<svg xmlns="http://www.w3.org/2000/svg" viewBox="-1.33 12.93 98.67 71.09"><path d="M95.33,61.01 L94.89,57.29 L93.81,53.71 L92.11,50.38 L89.86,47.39 L87.12,44.85 L83.98,42.82 L80.52,41.38 L76.87,40.56 L76.27,35.96 L74.89,31.54 L72.76,27.42 L69.96,23.73 L66.56,20.58 L62.67,18.05 L58.41,16.24 L53.89,15.19 L49.26,14.93 L44.44,15.27 L39.74,16.45 L35.33,18.43 L31.33,21.16 L27.87,24.54 L25.06,28.48 L22.98,32.85 L18.58,33.78 L14.42,35.48 L10.62,37.89 L7.30,40.92 L4.57,44.50 L2.52,48.50 L1.20,52.80 L0.67,57.27 L1.23,61.72 L2.55,66.00 L4.60,69.99 L7.31,73.56 L10.59,76.61 L14.36,79.05 L18.49,80.79 L22.86,81.79 L27.33,82.02 L29.68,81.92 L72.85,81.92 L73.42,81.87 L73.98,81.75 L78.06,81.33 L81.99,80.14 L85.62,78.23 L88.82,75.66 L91.48,72.54 L93.49,68.96 L94.79,65.07 L95.33,61.01 Z" fill="#3990e4" stroke="#1e1e1e" stroke-width="1" stroke-linejoin="round"/><path d="M44.65,51.57 L44.65,51.57 L56.91,27.45 L57.75,26.71 L58.86,26.71 L59.70,27.45 L71.91,50.49 L72.89,52.80 L73.15,55.29 L72.84,57.14 L71.98,58.85 L70.61,60.41 L68.79,61.76 L66.59,62.88 L64.07,63.72 L61.27,64.26 L58.28,64.44 L55.28,64.26 L52.49,63.72 L49.96,62.88 L47.76,61.76 L45.95,60.41 L44.58,58.85 L43.71,57.14 L43.41,55.29 L43.73,53.33 L44.65,51.57 Z" fill="#6ad2ea" stroke="#1e1e1e" stroke-width="1" stroke-linejoin="round"/><path d="M44.65,51.77 L43.64,53.88 L43.39,55.46 L43.41,55.85 L43.46,56.23 L43.46,56.53 L43.53,56.53 L43.99,57.96 L44.80,59.30 L45.92,60.53 L47.33,61.63 L48.99,62.59 L50.88,63.38 L52.96,63.99 L55.20,64.40 L55.20,63.61 L53.07,63.22 L51.10,62.64 L49.31,61.89 L47.74,60.99 L46.43,59.96 L45.39,58.81 L44.66,57.56 L44.27,56.22 L44.55,54.84 L45.20,53.48 L46.18,52.16 L47.48,50.94 L49.06,49.84 L50.89,48.92 L52.95,48.21 L55.20,47.74 L55.20,47.27 L55.08,47.34 L54.54,47.05 L51.22,47.93 L48.18,49.52 L45.55,51.73 L45.64,51.57 L49.43,44.10 L48.75,43.71 L44.65,51.80 L44.65,51.77 Z" fill="#ffffff" stroke="#ffffff" stroke-width="1" stroke-linejoin="round"/><path d="M55.18,46.98 L55.18,65.67 L39.02,75.07 L39.02,56.35 L55.18,46.98 Z" fill="#9cebff" stroke="#1e1e1e" stroke-width="1" stroke-linejoin="round" opacity="0.8"/><path d="M55.18,46.94 L39.02,56.33 L22.87,46.93 L39.02,37.54 L55.18,46.94 Z" fill="#9cebff" stroke="#1e1e1e" stroke-width="1" stroke-linejoin="round" opacity="0.85"/><path d="M39.02,56.34 L39.02,75.04 L22.87,65.65 L22.87,46.95 L39.02,56.34 Z" fill="#9cebff" stroke="#1e1e1e" stroke-width="1" stroke-linejoin="round"/><path d="M39.02,75.52 L22.49,65.92 L22.49,46.76 L39.02,37.16 L55.56,46.76 L55.56,65.90 L39.02,75.52 Z" fill="#ffffff" stroke="#1e1e1e" stroke-width="1" stroke-linejoin="round"/><path d="M23.26,65.45 L39.02,74.61 L54.78,65.45 L54.78,47.21 L39.02,38.04 L23.26,47.21 L23.26,65.45 Z" fill="#9cebff" stroke="#1e1e1e" stroke-width="1" stroke-linejoin="round"/><path d="M73.13,55.25 L72.88,52.75 L71.89,50.45 L59.68,27.41 L58.85,26.66 L57.73,26.66 L56.90,27.41 L48.75,43.47 L49.43,43.87 L57.60,27.80 L57.89,27.48 L58.30,27.37 L58.70,27.48 L58.99,27.79 L71.21,50.83 L71.21,50.86 L71.21,50.89 L71.81,52.08 L72.17,53.37 L69.91,50.96 L67.24,49.01 L64.26,47.60 L61.06,46.77 L57.77,46.56 L56.14,46.63 L54.52,46.84 L55.06,47.14 L55.18,47.07 L55.18,47.53 L56.48,47.39 L57.79,47.34 L60.65,47.55 L63.32,48.14 L65.75,49.04 L67.87,50.19 L69.64,51.53 L71.00,52.99 L71.90,54.52 L72.28,56.04 L71.79,57.59 L70.84,59.03 L69.48,60.31 L67.76,61.43 L65.73,62.34 L63.44,63.03 L60.94,63.47 L58.26,63.62 L56.72,63.56 L55.18,63.40 L55.18,64.20 L56.72,64.35 L58.26,64.40 L61.05,64.24 L63.66,63.78 L66.05,63.04 L68.17,62.07 L69.98,60.88 L71.42,59.51 L72.45,57.98 L73.02,56.33 L73.09,56.33 L73.07,56.05 L73.11,55.65 L73.13,55.25 Z" fill="#ffffff" stroke="#1e1e1e" stroke-width="1" stroke-linejoin="round"/></svg>