<svg xmlns="http://www.w3.org/2000/svg" viewBox="1.57 0.67 92.85 94.67"><ellipse cx="75.09" cy="58.35" rx="7.15" ry="7.15" fill="#9cebff" stroke="#9cebff" stroke-width="1"/><path d="M75.09,45.65 L72.44,45.89 L69.89,46.69 L67.57,48.00 L43.84,31.31 L5.76,58.35 L43.84,87.25 L68.00,68.91 L70.21,70.07 L72.61,70.80 L75.09,71.04 L78.13,70.67 L80.99,69.59 L83.51,67.85 L85.54,65.56 L86.96,62.85 L87.69,59.88 L87.69,56.82 L86.96,53.85 L85.54,51.14 L83.51,48.85 L80.99,47.11 L78.13,46.02 L75.09,45.65 L75.09,45.65 Z" fill="#50e6ff" stroke="#50e6ff" stroke-width="1" stroke-linejoin="round"/><path d="M66.51,49.01 L66.51,49.01" fill="none" stroke="#ffffff" stroke-width="1" stroke-linejoin="round"/><path d="M43.84,80.32 L15.09,58.67 L43.84,38.08 L64.00,52.37 L64.00,52.37 L62.88,55.27 L62.51,58.35 L62.62,60.59 L63.12,62.78 L64.00,64.85 L64.00,64.85 L43.84,80.32 Z" fill="#ffffff" stroke="#ffffff" stroke-width="1" stroke-linejoin="round"/><path d="M65.55,49.97 L65.55,49.97" fill="none" stroke="#ffffff" stroke-width="1" stroke-linejoin="round"/><path d="M64.69,51.09 L64.69,51.09" fill="none" stroke="#ffffff" stroke-width="1" stroke-linejoin="round"/><path d="M65.81,67.09 L65.81,67.09" fill="none" stroke="#ffffff" stroke-width="1" stroke-linejoin="round"/><path d="M64.96,66.08 L64.96,66.08" fill="none" stroke="#ffffff" stroke-width="1" stroke-linejoin="round"/><path d="M66.83,68.05 L66.83,68.05" fill="none" stroke="#ffffff" stroke-width="1" stroke-linejoin="round"/><path d="M75.09,65.65 L72.73,65.46 L70.55,64.52 L68.80,62.91 L67.67,60.82 L67.27,58.48 L67.67,56.14 L68.80,54.05 L70.55,52.44 L72.73,51.50 L75.09,51.31 L77.38,51.89 L79.36,53.19 L80.81,55.06 L81.58,57.30 L81.58,59.66 L80.81,61.90 L79.36,63.77 L77.38,65.07 L75.09,65.65 Z" fill="#9cebff" stroke="#9cebff" stroke-width="1" stroke-linejoin="round"/><ellipse cx="43.84" cy="34.13" rx="9.01" ry="9.01" fill="#975ae8" stroke="#1e1e1e" stroke-width="1"/><ellipse cx="12.59" cy="58.35" rx="9.01" ry="9.01" fill="#975ae8" stroke="#1e1e1e" stroke-width="1"/><ellipse cx="43.84" cy="84.32" rx="9.01" ry="9.01" fill="#975ae8" stroke="#1e1e1e" stroke-width="1"/><path d="M75.09,2.67 L71.58,3.12 L68.23,4.25 L65.17,6.03 L62.52,8.37 L60.38,11.19 L58.83,14.37 L57.95,17.80 L57.76,21.33 L57.88,22.99 L58.21,24.87 L59.45,29.21 L61.28,34.14 L63.52,39.45 L68.47,50.29 L72.80,60.00 L73.70,61.10 L75.07,61.51 L76.43,61.10 L77.33,60.00 L81.69,50.21 L86.66,39.31 L88.90,34.00 L90.74,29.08 L91.97,24.79 L92.31,22.94 L92.43,21.33 L92.19,17.82 L91.28,14.41 L89.73,11.25 L87.59,8.44 L84.95,6.11 L81.91,4.32 L78.58,3.16 L75.09,2.67 L75.09,2.67 Z" fill="#9457e7" stroke="#9457e7" stroke-width="1" stroke-linejoin="round"/><path d="M75.09,27.95 L72.69,27.58 L70.53,26.49 L68.80,24.78 L67.69,22.63 L67.31,20.23 L67.68,17.83 L68.78,15.67 L70.50,13.96 L72.66,12.86 L75.06,12.48 L77.45,12.87 L79.61,13.98 L81.32,15.70 L82.41,17.87 L82.77,20.27 L82.40,22.64 L81.31,24.78 L79.61,26.48 L77.47,27.57 L75.09,27.95 Z" fill="#ffffff" stroke="#ffffff" stroke-width="1" stroke-linejoin="round"/></svg>