<svg xmlns="http://www.w3.org/2000/svg" viewBox="1.78 0.82 98.08 100.00"><ellipse cx="79.51" cy="61.78" rx="7.57" ry="7.57" fill="#9cebff" stroke="#9cebff" stroke-width="1"/><path d="M79.51,48.34 L76.70,48.59 L74.01,49.43 L71.55,50.82 L46.42,33.15 L6.10,61.78 L46.42,92.39 L72.00,72.96 L74.34,74.20 L76.88,74.96 L79.51,75.22 L82.73,74.83 L85.76,73.68 L88.42,71.84 L90.57,69.41 L92.08,66.54 L92.85,63.40 L92.85,60.16 L92.08,57.01 L90.57,54.14 L88.42,51.72 L85.76,49.88 L82.73,48.73 L79.51,48.34 L79.51,48.34 Z" fill="#50e6ff" stroke="#50e6ff" stroke-width="1" stroke-linejoin="round"/><path d="M70.42,51.90 L70.42,51.90" fill="none" stroke="#ffffff" stroke-width="1" stroke-linejoin="round"/><path d="M46.42,85.04 L15.98,62.12 L46.42,40.32 L67.76,55.45 L67.76,55.45 L66.57,58.52 L66.18,61.78 L66.30,64.16 L66.83,66.48 L67.76,68.67 L67.76,68.67 L46.42,85.04 Z" fill="#ffffff" stroke="#ffffff" stroke-width="1" stroke-linejoin="round"/><path d="M69.40,52.91 L69.40,52.91" fill="none" stroke="#ffffff" stroke-width="1" stroke-linejoin="round"/><path d="M68.50,54.10 L68.50,54.10" fill="none" stroke="#ffffff" stroke-width="1" stroke-linejoin="round"/><path d="M69.68,71.04 L69.68,71.04" fill="none" stroke="#ffffff" stroke-width="1" stroke-linejoin="round"/><path d="M68.78,69.97 L68.78,69.97" fill="none" stroke="#ffffff" stroke-width="1" stroke-linejoin="round"/><path d="M70.76,72.06 L70.76,72.06" fill="none" stroke="#ffffff" stroke-width="1" stroke-linejoin="round"/><path d="M79.51,69.52 L77.00,69.32 L74.70,68.31 L72.85,66.61 L71.65,64.40 L71.23,61.92 L71.65,59.44 L72.85,57.23 L74.70,55.53 L77.00,54.52 L79.51,54.32 L81.94,54.95 L84.03,56.32 L85.56,58.30 L86.38,60.67 L86.38,63.17 L85.56,65.54 L84.03,67.52 L81.94,68.89 L79.51,69.52 Z" fill="#9cebff" stroke="#9cebff" stroke-width="1" stroke-linejoin="round"/><ellipse cx="46.42" cy="36.14" rx="9.54" ry="9.54" fill="#975ae8" stroke="#1e1e1e" stroke-width="1"/><ellipse cx="13.33" cy="61.78" rx="9.54" ry="9.54" fill="#975ae8" stroke="#1e1e1e" stroke-width="1"/><ellipse cx="46.42" cy="89.28" rx="9.54" ry="9.54" fill="#975ae8" stroke="#1e1e1e" stroke-width="1"/><path d="M79.51,2.82 L75.79,3.30 L72.25,4.50 L69.00,6.38 L66.19,8.86 L63.93,11.85 L62.30,15.22 L61.36,18.85 L61.16,22.59 L61.28,24.34 L61.64,26.33 L62.95,30.93 L64.89,36.15 L67.26,41.77 L72.50,53.25 L77.08,63.53 L78.04,64.70 L79.48,65.13 L80.93,64.70 L81.88,63.53 L86.50,53.16 L91.76,41.62 L94.13,36.00 L96.07,30.80 L97.38,26.25 L97.74,24.29 L97.86,22.59 L97.61,18.86 L96.65,15.26 L95.00,11.91 L92.74,8.94 L89.95,6.47 L86.73,4.58 L83.21,3.35 L79.51,2.82 L79.51,2.82 Z" fill="#9457e7" stroke="#9457e7" stroke-width="1" stroke-linejoin="round"/><path d="M79.51,29.59 L76.97,29.20 L74.67,28.05 L72.85,26.24 L71.67,23.96 L71.27,21.42 L71.66,18.88 L72.83,16.59 L74.64,14.78 L76.93,13.61 L79.47,13.21 L82.01,13.62 L84.29,14.80 L86.10,16.62 L87.26,18.92 L87.64,21.46 L87.24,23.97 L86.09,26.24 L84.29,28.04 L82.02,29.19 L79.51,29.59 Z" fill="#ffffff" stroke="#ffffff" stroke-width="1" stroke-linejoin="round"/></svg>