<svg xmlns="http://www.w3.org/2000/svg" viewBox="8.67 16.31 494.67 479.40"><path d="M240.87,24.94 L237.94,23.39 L234.93,22.04 L231.87,20.90 L228.75,19.97 L225.58,19.24 L222.39,18.73 L219.18,18.41 L215.95,18.31 L212.73,18.41 L209.52,18.73 L206.33,19.24 L203.16,19.97 L200.04,20.90 L196.97,22.04 L193.97,23.39 L191.03,24.94 L69.34,94.67 L65.79,97.03 L62.62,99.80 L59.87,102.93 L57.56,106.39 L55.71,110.11 L54.36,114.06 L53.53,118.18 L53.24,122.43 L53.24,150.23 L52.96,154.48 L52.13,158.61 L50.78,162.55 L48.93,166.28 L46.62,169.73 L43.86,172.86 L40.70,175.64 L37.15,178.00 L26.76,183.95 L23.21,186.31 L20.05,189.08 L17.29,192.22 L14.98,195.67 L13.13,199.39 L11.78,203.34 L10.95,207.46 L10.67,211.71 L10.67,320.43 L10.95,324.70 L11.79,328.84 L13.15,332.80 L15.01,336.53 L17.34,339.99 L20.11,343.13 L23.29,345.90 L26.86,348.26 L192.26,442.24 L194.95,443.64 L197.66,444.84 L200.41,445.83 L203.17,446.62 L205.94,447.22 L208.71,447.62 L211.47,447.83 L214.22,447.86 L216.95,447.71 L219.65,447.38 L222.31,446.89 L224.93,446.23 L227.50,445.40 L230.00,444.42 L232.44,443.29 L234.80,442.02 L237.08,440.59 L239.27,439.03 L241.35,437.34 L243.34,435.51 L245.20,433.56 L246.95,431.49 L248.57,429.31 L250.05,427.01 L251.38,424.60 L252.56,422.09 L253.58,419.49 L254.43,416.79 L255.11,414.00 L255.60,411.12 L255.90,408.17 L256.01,405.14 L256.00,51.04 L255.73,47.04 L254.95,43.17 L253.68,39.46 L251.95,35.96 L249.77,32.71 L247.18,29.77 L244.21,27.16 L240.87,24.94 Z" fill="#264cc5" stroke="#1e1e1e" stroke-width="1" stroke-linejoin="round"/><path d="M240.87,24.94 L237.94,23.39 L234.93,22.04 L231.87,20.90 L228.75,19.97 L225.58,19.24 L222.39,18.73 L219.18,18.41 L215.95,18.31 L212.73,18.41 L209.52,18.73 L206.33,19.24 L203.16,19.97 L200.04,20.90 L196.97,22.04 L193.97,23.39 L191.03,24.94 L69.34,94.67 L65.79,97.03 L62.62,99.80 L59.87,102.93 L57.56,106.39 L55.71,110.11 L54.36,114.06 L53.53,118.18 L53.24,122.43 L53.24,150.23 L52.96,154.48 L52.13,158.61 L50.78,162.55 L48.93,166.28 L46.62,169.73 L43.86,172.86 L40.70,175.64 L37.15,178.00 L26.76,183.95 L23.21,186.31 L20.05,189.08 L17.29,192.22 L14.98,195.67 L13.13,199.39 L11.78,203.34 L10.95,207.46 L10.67,211.71 L10.67,320.43 L10.95,324.70 L11.79,328.84 L13.15,332.80 L15.01,336.53 L17.34,339.99 L20.11,343.13 L23.29,345.90 L26.86,348.26 L192.26,442.24 L194.95,443.64 L197.66,444.84 L200.41,445.83 L203.17,446.62 L205.94,447.22 L208.71,447.62 L211.47,447.83 L214.22,447.86 L216.95,447.71 L219.65,447.38 L222.31,446.89 L224.93,446.23 L227.50,445.40 L230.00,444.42 L232.44,443.29 L234.80,442.02 L237.08,440.59 L239.27,439.03 L241.35,437.34 L243.34,435.51 L245.20,433.56 L246.95,431.49 L248.57,429.31 L250.05,427.01 L251.38,424.60 L252.56,422.09 L253.58,419.49 L254.43,416.79 L255.11,414.00 L255.60,411.12 L255.90,408.17 L256.01,405.14 L256.00,51.04 L255.73,47.04 L254.95,43.17 L253.68,39.46 L251.95,35.96 L249.77,32.71 L247.18,29.77 L244.21,27.16 L240.87,24.94 Z" fill="#2e44be" stroke="#1e1e1e" stroke-width="1" stroke-linejoin="round" opacity="0.5"/><path d="M240.87,24.94 L237.94,23.39 L234.93,22.04 L231.87,20.90 L228.75,19.97 L225.58,19.24 L222.39,18.73 L219.18,18.41 L215.95,18.31 L212.73,18.41 L209.52,18.73 L206.33,19.24 L203.16,19.97 L200.04,20.90 L196.97,22.04 L193.97,23.39 L191.03,24.94 L69.34,94.67 L65.79,97.03 L62.62,99.80 L59.87,102.93 L57.56,106.39 L55.71,110.11 L54.36,114.06 L53.53,118.18 L53.24,122.43 L53.24,150.23 L52.96,154.48 L52.13,158.61 L50.78,162.55 L48.93,166.28 L46.62,169.73 L43.86,172.86 L40.70,175.64 L37.15,178.00 L26.76,183.95 L23.21,186.31 L20.05,189.08 L17.29,192.22 L14.98,195.67 L13.13,199.39 L11.78,203.34 L10.95,207.46 L10.67,211.71 L10.67,320.43 L10.95,324.70 L11.79,328.84 L13.15,332.80 L15.01,336.53 L17.34,339.99 L20.11,343.13 L23.29,345.90 L26.86,348.26 L192.26,442.24 L194.95,443.64 L197.66,444.84 L200.41,445.83 L203.17,446.62 L205.94,447.22 L208.71,447.62 L211.47,447.83 L214.22,447.86 L216.95,447.71 L219.65,447.38 L222.31,446.89 L224.93,446.23 L227.50,445.40 L230.00,444.42 L232.44,443.29 L234.80,442.02 L237.08,440.59 L239.27,439.03 L241.35,437.34 L243.34,435.51 L245.20,433.56 L246.95,431.49 L248.57,429.31 L250.05,427.01 L251.38,424.60 L252.56,422.09 L253.58,419.49 L254.43,416.79 L255.11,414.00 L255.60,411.12 L255.90,408.17 L256.01,405.14 L256.00,51.04 L255.73,47.04 L254.95,43.17 L253.68,39.46 L251.95,35.96 L249.77,32.71 L247.18,29.77 L244.21,27.16 L240.87,24.94 Z" fill="#2d33a5" stroke="#1e1e1e" stroke-width="1" stroke-linejoin="round" opacity="0.78"/><path d="M256.00,211.86 L255.72,216.13 L254.88,220.26 L253.51,224.22 L251.66,227.96 L249.33,231.42 L246.56,234.56 L243.37,237.33 L239.80,239.69 L112.24,312.11 L108.66,314.47 L105.47,317.25 L102.70,320.40 L100.37,323.87 L98.51,327.61 L97.15,331.58 L96.32,335.73 L96.04,340.01 L96.19,414.18 L96.48,418.42 L97.32,422.54 L98.67,426.47 L100.52,430.19 L102.83,433.63 L105.58,436.76 L108.74,439.52 L112.28,441.88 L191.20,487.09 L194.13,488.64 L197.12,489.99 L200.18,491.12 L203.30,492.05 L206.45,492.78 L209.63,493.30 L212.84,493.61 L216.05,493.71 L219.27,493.61 L222.47,493.30 L225.66,492.78 L228.81,492.06 L231.92,491.13 L234.98,489.99 L237.98,488.65 L240.91,487.10 L244.24,484.89 L247.20,482.29 L249.79,479.35 L251.95,476.11 L253.69,472.62 L254.95,468.92 L255.73,465.05 L256.00,461.06 L256.00,160.00 L256.00,211.86 Z" fill="#4665ea" stroke="#1e1e1e" stroke-width="1" stroke-linejoin="round"/><path d="M256.00,211.86 L255.72,216.13 L254.88,220.26 L253.51,224.22 L251.66,227.96 L249.33,231.42 L246.56,234.56 L243.37,237.33 L239.80,239.69 L112.24,312.11 L108.66,314.47 L105.47,317.25 L102.70,320.40 L100.37,323.87 L98.51,327.61 L97.15,331.58 L96.32,335.73 L96.04,340.01 L96.19,414.18 L96.48,418.42 L97.32,422.54 L98.67,426.47 L100.52,430.19 L102.83,433.63 L105.58,436.76 L108.74,439.52 L112.28,441.88 L191.20,487.09 L194.13,488.64 L197.12,489.99 L200.18,491.12 L203.30,492.05 L206.45,492.78 L209.63,493.30 L212.84,493.61 L216.05,493.71 L219.27,493.61 L222.47,493.30 L225.66,492.78 L228.81,492.06 L231.92,491.13 L234.98,489.99 L237.98,488.65 L240.91,487.10 L244.24,484.89 L247.20,482.29 L249.79,479.35 L251.95,476.11 L253.69,472.62 L254.95,468.92 L255.73,465.05 L256.00,461.06 L256.00,160.00 L256.00,211.86 Z" fill="#3854d9" stroke="#1e1e1e" stroke-width="1" stroke-linejoin="round" opacity="0.5"/><path d="M458.76,122.43 L458.47,118.18 L457.64,114.06 L456.29,110.11 L454.44,106.39 L452.13,102.93 L449.38,99.80 L446.21,97.03 L442.67,94.67 L320.97,24.94 L318.03,23.39 L315.03,22.04 L311.96,20.90 L308.84,19.97 L305.68,19.24 L302.48,18.73 L299.27,18.41 L296.05,18.31 L292.82,18.41 L289.61,18.73 L286.42,19.24 L283.26,19.97 L280.13,20.90 L277.07,22.04 L274.06,23.39 L271.13,24.94 L267.79,27.16 L264.82,29.77 L262.23,32.71 L260.06,35.96 L258.32,39.46 L257.05,43.17 L256.27,47.04 L256.00,51.04 L256.00,387.72 L280.14,401.55 L283.93,403.41 L287.88,404.73 L291.94,405.52 L296.05,405.79 L300.15,405.52 L304.21,404.73 L308.16,403.41 L311.95,401.55 L442.67,326.67 L446.21,324.31 L449.38,321.54 L452.13,318.40 L454.44,314.95 L456.29,311.22 L457.64,307.28 L458.47,303.15 L458.76,298.90 L458.76,122.43 Z" fill="#38acfe" stroke="#1e1e1e" stroke-width="1" stroke-linejoin="round"/><path d="M458.76,122.43 L458.47,118.18 L457.64,114.06 L456.29,110.11 L454.44,106.39 L452.13,102.93 L449.38,99.80 L446.21,97.03 L442.67,94.67 L320.97,24.94 L318.03,23.39 L315.03,22.04 L311.96,20.90 L308.84,19.97 L305.68,19.24 L302.48,18.73 L299.27,18.41 L296.05,18.31 L292.82,18.41 L289.61,18.73 L286.42,19.24 L283.26,19.97 L280.13,20.90 L277.07,22.04 L274.06,23.39 L271.13,24.94 L267.79,27.16 L264.82,29.77 L262.23,32.71 L260.06,35.96 L258.32,39.46 L257.05,43.17 L256.27,47.04 L256.00,51.04 L256.00,387.72 L280.14,401.55 L283.93,403.41 L287.88,404.73 L291.94,405.52 L296.05,405.79 L300.15,405.52 L304.21,404.73 L308.16,403.41 L311.95,401.55 L442.67,326.67 L446.21,324.31 L449.38,321.54 L452.13,318.40 L454.44,314.95 L456.29,311.22 L457.64,307.28 L458.47,303.15 L458.76,298.90 L458.76,122.43 Z" fill="#207aee" stroke="#1e1e1e" stroke-width="1" stroke-linejoin="round" opacity="0.71"/><path d="M362.76,132.00 L366.55,130.15 L370.50,128.83 L374.56,128.03 L378.67,127.77 L382.78,128.03 L386.83,128.83 L390.78,130.15 L394.57,132.00 L485.24,183.95 L488.79,186.31 L491.95,189.08 L494.71,192.21 L497.02,195.67 L498.87,199.39 L500.22,203.34 L501.05,207.46 L501.33,211.71 L501.33,320.51 L501.05,324.76 L500.22,328.88 L498.87,332.83 L497.02,336.55 L494.71,340.01 L491.95,343.14 L488.79,345.91 L485.24,348.27 L378.67,409.33 L256.00,339.05 L256.00,211.71 L256.28,207.46 L257.12,203.34 L258.47,199.39 L260.31,195.67 L262.63,192.21 L265.38,189.08 L268.54,186.31 L272.09,183.95 L362.76,132.00 Z" fill="#42b4fe" stroke="#1e1e1e" stroke-width="1" stroke-linejoin="round"/><path d="M362.76,132.00 L366.55,130.15 L370.50,128.83 L374.56,128.03 L378.67,127.77 L382.78,128.03 L386.83,128.83 L390.78,130.15 L394.57,132.00 L485.24,183.95 L488.79,186.31 L491.95,189.08 L494.71,192.21 L497.02,195.67 L498.87,199.39 L500.22,203.34 L501.05,207.46 L501.33,211.71 L501.33,320.51 L501.05,324.76 L500.22,328.88 L498.87,332.83 L497.02,336.55 L494.71,340.01 L491.95,343.14 L488.79,345.91 L485.24,348.27 L378.67,409.33 L256.00,339.05 L256.00,211.71 L256.28,207.46 L257.12,203.34 L258.47,199.39 L260.31,195.67 L262.63,192.21 L265.38,189.08 L268.54,186.31 L272.09,183.95 L362.76,132.00 Z" fill="#309ef8" stroke="#1e1e1e" stroke-width="1" stroke-linejoin="round" opacity="0.5"/><path d="M255.99,211.86 L256.28,216.12 L257.12,220.26 L258.48,224.22 L260.34,227.96 L262.67,231.42 L265.44,234.56 L268.62,237.33 L272.19,239.68 L399.76,312.11 L403.34,314.47 L406.53,317.25 L409.30,320.40 L411.63,323.87 L413.49,327.61 L414.85,331.58 L415.68,335.73 L415.96,340.01 L415.81,414.18 L415.52,418.42 L414.68,422.53 L413.32,426.47 L411.48,430.19 L409.16,433.63 L406.42,436.76 L403.26,439.52 L399.71,441.88 L320.79,487.09 L317.87,488.64 L314.87,489.99 L311.81,491.12 L308.70,492.05 L305.54,492.78 L302.36,493.29 L299.16,493.60 L295.94,493.71 L292.73,493.61 L289.52,493.30 L286.34,492.78 L283.18,492.06 L280.07,491.13 L277.01,489.99 L274.01,488.65 L271.09,487.10 L267.76,484.88 L264.79,482.29 L262.21,479.35 L260.04,476.11 L258.31,472.62 L257.04,468.91 L256.26,465.05 L255.99,461.06 L255.99,176.00 L255.99,211.86 Z" fill="#62c5fe" stroke="#1e1e1e" stroke-width="1" stroke-linejoin="round"/><path d="M255.99,211.86 L256.28,216.12 L257.12,220.26 L258.48,224.22 L260.34,227.96 L262.67,231.42 L265.44,234.56 L268.62,237.33 L272.19,239.68 L399.76,312.11 L403.34,314.47 L406.53,317.25 L409.30,320.40 L411.63,323.87 L413.49,327.61 L414.85,331.58 L415.68,335.73 L415.96,340.01 L415.81,414.18 L415.52,418.42 L414.68,422.53 L413.32,426.47 L411.48,430.19 L409.16,433.63 L406.42,436.76 L403.26,439.52 L399.71,441.88 L320.79,487.09 L317.87,488.64 L314.87,489.99 L311.81,491.12 L308.70,492.05 L305.54,492.78 L302.36,493.29 L299.16,493.60 L295.94,493.71 L292.73,493.61 L289.52,493.30 L286.34,492.78 L283.18,492.06 L280.07,491.13 L277.01,489.99 L274.01,488.65 L271.09,487.10 L267.76,484.88 L264.79,482.29 L262.21,479.35 L260.04,476.11 L258.31,472.62 L257.04,468.91 L256.26,465.05 L255.99,461.06 L255.99,176.00 L255.99,211.86 Z" fill="#84b2ff" stroke="#1e1e1e" stroke-width="1" stroke-linejoin="round" opacity="0.5"/><path d="M255.99,211.86 L256.28,216.12 L257.12,220.26 L258.48,224.22 L260.34,227.96 L262.67,231.42 L265.44,234.56 L268.62,237.33 L272.19,239.68 L399.76,312.11 L403.34,314.47 L406.53,317.25 L409.30,320.40 L411.63,323.87 L413.49,327.61 L414.85,331.58 L415.68,335.73 L415.96,340.01 L415.81,414.18 L415.52,418.42 L414.68,422.53 L413.32,426.47 L411.48,430.19 L409.16,433.63 L406.42,436.76 L403.26,439.52 L399.71,441.88 L320.79,487.09 L317.87,488.64 L314.87,489.99 L311.81,491.12 L308.70,492.05 L305.54,492.78 L302.36,493.29 L299.16,493.60 L295.94,493.71 L292.73,493.61 L289.52,493.30 L286.34,492.78 L283.18,492.06 L280.07,491.13 L277.01,489.99 L274.01,488.65 L271.09,487.10 L267.76,484.88 L264.79,482.29 L262.21,479.35 L260.04,476.11 L258.31,472.62 L257.04,468.91 L256.26,465.05 L255.99,461.06 L255.99,176.00 L255.99,211.86 Z" fill="#90bdff" stroke="#1e1e1e" stroke-width="1" stroke-linejoin="round" opacity="0.5"/></svg>