<svg xmlns="http://www.w3.org/2000/svg" viewBox="0.09 1.58 100.00 97.01"><path d="M47.13,4.88 L46.55,4.58 L45.97,4.31 L45.37,4.09 L44.75,3.91 L44.14,3.77 L43.51,3.66 L42.88,3.60 L42.25,3.58 L41.62,3.60 L40.99,3.66 L40.37,3.77 L39.75,3.91 L39.14,4.09 L38.54,4.31 L37.95,4.58 L37.38,4.88 L13.57,18.52 L12.87,18.98 L12.25,19.53 L11.71,20.14 L11.26,20.81 L10.90,21.54 L10.64,22.32 L10.47,23.12 L10.42,23.95 L10.42,29.39 L10.36,30.22 L10.20,31.03 L9.93,31.80 L9.57,32.53 L9.12,33.21 L8.58,33.82 L7.96,34.36 L7.27,34.83 L5.24,35.99 L4.54,36.45 L3.92,36.99 L3.38,37.61 L2.93,38.28 L2.57,39.01 L2.31,39.78 L2.14,40.59 L2.09,41.42 L2.09,62.69 L2.14,63.53 L2.31,64.34 L2.57,65.11 L2.94,65.84 L3.39,66.52 L3.93,67.13 L4.56,67.68 L5.25,68.14 L37.62,86.52 L38.14,86.80 L38.67,87.03 L39.21,87.23 L39.75,87.38 L40.29,87.50 L40.83,87.58 L41.37,87.62 L41.91,87.62 L42.45,87.59 L42.97,87.53 L43.50,87.43 L44.01,87.30 L44.51,87.14 L45.00,86.95 L45.48,86.73 L45.94,86.48 L46.38,86.20 L46.81,85.90 L47.22,85.57 L47.61,85.21 L47.97,84.83 L48.32,84.42 L48.63,83.99 L48.92,83.55 L49.18,83.07 L49.41,82.58 L49.61,82.07 L49.78,81.55 L49.91,81.00 L50.01,80.44 L50.07,79.86 L50.09,79.27 L50.09,9.99 L50.03,9.20 L49.88,8.45 L49.63,7.72 L49.29,7.04 L48.87,6.40 L48.36,5.82 L47.78,5.31 L47.13,4.88 Z" fill="#264cc5" stroke="#1e1e1e" stroke-width="1" stroke-linejoin="round"/><path d="M47.13,4.88 L46.55,4.58 L45.97,4.31 L45.37,4.09 L44.75,3.91 L44.14,3.77 L43.51,3.66 L42.88,3.60 L42.25,3.58 L41.62,3.60 L40.99,3.66 L40.37,3.77 L39.75,3.91 L39.14,4.09 L38.54,4.31 L37.95,4.58 L37.38,4.88 L13.57,18.52 L12.87,18.98 L12.25,19.53 L11.71,20.14 L11.26,20.81 L10.90,21.54 L10.64,22.32 L10.47,23.12 L10.42,23.95 L10.42,29.39 L10.36,30.22 L10.20,31.03 L9.93,31.80 L9.57,32.53 L9.12,33.21 L8.58,33.82 L7.96,34.36 L7.27,34.83 L5.24,35.99 L4.54,36.45 L3.92,36.99 L3.38,37.61 L2.93,38.28 L2.57,39.01 L2.31,39.78 L2.14,40.59 L2.09,41.42 L2.09,62.69 L2.14,63.53 L2.31,64.34 L2.57,65.11 L2.94,65.84 L3.39,66.52 L3.93,67.13 L4.56,67.68 L5.25,68.14 L37.62,86.52 L38.14,86.80 L38.67,87.03 L39.21,87.23 L39.75,87.38 L40.29,87.50 L40.83,87.58 L41.37,87.62 L41.91,87.62 L42.45,87.59 L42.97,87.53 L43.50,87.43 L44.01,87.30 L44.51,87.14 L45.00,86.95 L45.48,86.73 L45.94,86.48 L46.38,86.20 L46.81,85.90 L47.22,85.57 L47.61,85.21 L47.97,84.83 L48.32,84.42 L48.63,83.99 L48.92,83.55 L49.18,83.07 L49.41,82.58 L49.61,82.07 L49.78,81.55 L49.91,81.00 L50.01,80.44 L50.07,79.86 L50.09,79.27 L50.09,9.99 L50.03,9.20 L49.88,8.45 L49.63,7.72 L49.29,7.04 L48.87,6.40 L48.36,5.82 L47.78,5.31 L47.13,4.88 Z" fill="#2e44be" stroke="#1e1e1e" stroke-width="1" stroke-linejoin="round" opacity="0.5"/><path d="M47.13,4.88 L46.55,4.58 L45.97,4.31 L45.37,4.09 L44.75,3.91 L44.14,3.77 L43.51,3.66 L42.88,3.60 L42.25,3.58 L41.62,3.60 L40.99,3.66 L40.37,3.77 L39.75,3.91 L39.14,4.09 L38.54,4.31 L37.95,4.58 L37.38,4.88 L13.57,18.52 L12.87,18.98 L12.25,19.53 L11.71,20.14 L11.26,20.81 L10.90,21.54 L10.64,22.32 L10.47,23.12 L10.42,23.95 L10.42,29.39 L10.36,30.22 L10.20,31.03 L9.93,31.80 L9.57,32.53 L9.12,33.21 L8.58,33.82 L7.96,34.36 L7.27,34.83 L5.24,35.99 L4.54,36.45 L3.92,36.99 L3.38,37.61 L2.93,38.28 L2.57,39.01 L2.31,39.78 L2.14,40.59 L2.09,41.42 L2.09,62.69 L2.14,63.53 L2.31,64.34 L2.57,65.11 L2.94,65.84 L3.39,66.52 L3.93,67.13 L4.56,67.68 L5.25,68.14 L37.62,86.52 L38.14,86.80 L38.67,87.03 L39.21,87.23 L39.75,87.38 L40.29,87.50 L40.83,87.58 L41.37,87.62 L41.91,87.62 L42.45,87.59 L42.97,87.53 L43.50,87.43 L44.01,87.30 L44.51,87.14 L45.00,86.95 L45.48,86.73 L45.94,86.48 L46.38,86.20 L46.81,85.90 L47.22,85.57 L47.61,85.21 L47.97,84.83 L48.32,84.42 L48.63,83.99 L48.92,83.55 L49.18,83.07 L49.41,82.58 L49.61,82.07 L49.78,81.55 L49.91,81.00 L50.01,80.44 L50.07,79.86 L50.09,79.27 L50.09,9.99 L50.03,9.20 L49.88,8.45 L49.63,7.72 L49.29,7.04 L48.87,6.40 L48.36,5.82 L47.78,5.31 L47.13,4.88 Z" fill="#2d33a5" stroke="#1e1e1e" stroke-width="1" stroke-linejoin="round" opacity="0.78"/><path d="M50.09,41.45 L50.03,42.29 L49.87,43.10 L49.60,43.87 L49.24,44.60 L48.78,45.28 L48.24,45.89 L47.62,46.43 L46.92,46.89 L21.96,61.07 L21.26,61.53 L20.64,62.07 L20.09,62.69 L19.64,63.37 L19.27,64.10 L19.01,64.87 L18.84,65.69 L18.79,66.52 L18.82,81.03 L18.88,81.86 L19.04,82.67 L19.31,83.44 L19.67,84.17 L20.12,84.84 L20.66,85.45 L21.27,85.99 L21.97,86.45 L37.41,95.30 L37.98,95.60 L38.57,95.87 L39.17,96.09 L39.78,96.27 L40.39,96.41 L41.02,96.51 L41.64,96.57 L42.27,96.60 L42.90,96.58 L43.53,96.51 L44.15,96.41 L44.77,96.27 L45.38,96.09 L45.97,95.87 L46.56,95.60 L47.13,95.30 L47.79,94.87 L48.37,94.36 L48.87,93.79 L49.30,93.15 L49.63,92.47 L49.88,91.74 L50.04,90.99 L50.09,90.21 L50.09,31.30 L50.09,41.45 Z" fill="#4665ea" stroke="#1e1e1e" stroke-width="1" stroke-linejoin="round"/><path d="M50.09,41.45 L50.03,42.29 L49.87,43.10 L49.60,43.87 L49.24,44.60 L48.78,45.28 L48.24,45.89 L47.62,46.43 L46.92,46.89 L21.96,61.07 L21.26,61.53 L20.64,62.07 L20.09,62.69 L19.64,63.37 L19.27,64.10 L19.01,64.87 L18.84,65.69 L18.79,66.52 L18.82,81.03 L18.88,81.86 L19.04,82.67 L19.31,83.44 L19.67,84.17 L20.12,84.84 L20.66,85.45 L21.27,85.99 L21.97,86.45 L37.41,95.30 L37.98,95.60 L38.57,95.87 L39.17,96.09 L39.78,96.27 L40.39,96.41 L41.02,96.51 L41.64,96.57 L42.27,96.60 L42.90,96.58 L43.53,96.51 L44.15,96.41 L44.77,96.27 L45.38,96.09 L45.97,95.87 L46.56,95.60 L47.13,95.30 L47.79,94.87 L48.37,94.36 L48.87,93.79 L49.30,93.15 L49.63,92.47 L49.88,91.74 L50.04,90.99 L50.09,90.21 L50.09,31.30 L50.09,41.45 Z" fill="#3854d9" stroke="#1e1e1e" stroke-width="1" stroke-linejoin="round" opacity="0.5"/><path d="M89.76,23.95 L89.70,23.12 L89.54,22.32 L89.27,21.54 L88.91,20.81 L88.46,20.14 L87.92,19.53 L87.30,18.98 L86.61,18.52 L62.80,4.88 L62.22,4.58 L61.64,4.31 L61.03,4.09 L60.42,3.91 L59.81,3.77 L59.18,3.66 L58.55,3.60 L57.92,3.58 L57.29,3.60 L56.66,3.66 L56.04,3.77 L55.42,3.91 L54.81,4.09 L54.21,4.31 L53.62,4.58 L53.05,4.88 L52.39,5.31 L51.81,5.82 L51.31,6.40 L50.88,7.04 L50.54,7.72 L50.29,8.45 L50.14,9.20 L50.09,9.99 L50.09,75.86 L54.81,78.56 L55.55,78.93 L56.32,79.19 L57.12,79.34 L57.92,79.39 L58.73,79.34 L59.52,79.19 L60.29,78.93 L61.03,78.56 L86.61,63.91 L87.30,63.45 L87.92,62.91 L88.46,62.30 L88.91,61.62 L89.27,60.89 L89.54,60.12 L89.70,59.31 L89.76,58.48 L89.76,23.95 Z" fill="#38acfe" stroke="#1e1e1e" stroke-width="1" stroke-linejoin="round"/><path d="M89.76,23.95 L89.70,23.12 L89.54,22.32 L89.27,21.54 L88.91,20.81 L88.46,20.14 L87.92,19.53 L87.30,18.98 L86.61,18.52 L62.80,4.88 L62.22,4.58 L61.64,4.31 L61.03,4.09 L60.42,3.91 L59.81,3.77 L59.18,3.66 L58.55,3.60 L57.92,3.58 L57.29,3.60 L56.66,3.66 L56.04,3.77 L55.42,3.91 L54.81,4.09 L54.21,4.31 L53.62,4.58 L53.05,4.88 L52.39,5.31 L51.81,5.82 L51.31,6.40 L50.88,7.04 L50.54,7.72 L50.29,8.45 L50.14,9.20 L50.09,9.99 L50.09,75.86 L54.81,78.56 L55.55,78.93 L56.32,79.19 L57.12,79.34 L57.92,79.39 L58.73,79.34 L59.52,79.19 L60.29,78.93 L61.03,78.56 L86.61,63.91 L87.30,63.45 L87.92,62.91 L88.46,62.30 L88.91,61.62 L89.27,60.89 L89.54,60.12 L89.70,59.31 L89.76,58.48 L89.76,23.95 Z" fill="#207aee" stroke="#1e1e1e" stroke-width="1" stroke-linejoin="round" opacity="0.71"/><path d="M70.97,25.83 L71.72,25.46 L72.49,25.21 L73.28,25.05 L74.09,25.00 L74.89,25.05 L75.68,25.21 L76.46,25.46 L77.20,25.83 L94.94,35.99 L95.63,36.45 L96.25,36.99 L96.79,37.61 L97.24,38.28 L97.60,39.01 L97.87,39.78 L98.03,40.59 L98.09,41.42 L98.09,62.71 L98.03,63.54 L97.87,64.35 L97.60,65.12 L97.24,65.85 L96.79,66.52 L96.25,67.14 L95.63,67.68 L94.94,68.14 L74.09,80.09 L50.09,66.34 L50.09,41.42 L50.14,40.59 L50.31,39.78 L50.57,39.01 L50.93,38.28 L51.38,37.61 L51.92,36.99 L52.54,36.45 L53.24,35.99 L70.97,25.83 Z" fill="#42b4fe" stroke="#1e1e1e" stroke-width="1" stroke-linejoin="round"/><path d="M70.97,25.83 L71.72,25.46 L72.49,25.21 L73.28,25.05 L74.09,25.00 L74.89,25.05 L75.68,25.21 L76.46,25.46 L77.20,25.83 L94.94,35.99 L95.63,36.45 L96.25,36.99 L96.79,37.61 L97.24,38.28 L97.60,39.01 L97.87,39.78 L98.03,40.59 L98.09,41.42 L98.09,62.71 L98.03,63.54 L97.87,64.35 L97.60,65.12 L97.24,65.85 L96.79,66.52 L96.25,67.14 L95.63,67.68 L94.94,68.14 L74.09,80.09 L50.09,66.34 L50.09,41.42 L50.14,40.59 L50.31,39.78 L50.57,39.01 L50.93,38.28 L51.38,37.61 L51.92,36.99 L52.54,36.45 L53.24,35.99 L70.97,25.83 Z" fill="#309ef8" stroke="#1e1e1e" stroke-width="1" stroke-linejoin="round" opacity="0.5"/><path d="M50.09,41.45 L50.14,42.29 L50.31,43.09 L50.57,43.87 L50.94,44.60 L51.39,45.28 L51.93,45.89 L52.56,46.43 L53.26,46.89 L78.21,61.07 L78.91,61.53 L79.54,62.07 L80.08,62.69 L80.54,63.37 L80.90,64.10 L81.17,64.87 L81.33,65.69 L81.38,66.52 L81.35,81.03 L81.30,81.86 L81.13,82.67 L80.87,83.44 L80.51,84.17 L80.05,84.84 L79.52,85.45 L78.90,85.99 L78.20,86.45 L62.76,95.30 L62.19,95.60 L61.60,95.87 L61.01,96.09 L60.40,96.27 L59.78,96.41 L59.16,96.51 L58.53,96.57 L57.90,96.59 L57.27,96.57 L56.65,96.51 L56.02,96.41 L55.41,96.27 L54.80,96.09 L54.20,95.87 L53.61,95.60 L53.04,95.30 L52.39,94.87 L51.81,94.36 L51.30,93.78 L50.88,93.15 L50.54,92.47 L50.29,91.74 L50.14,90.99 L50.09,90.21 L50.09,34.43 L50.09,41.45 Z" fill="#62c5fe" stroke="#1e1e1e" stroke-width="1" stroke-linejoin="round"/><path d="M50.09,41.45 L50.14,42.29 L50.31,43.09 L50.57,43.87 L50.94,44.60 L51.39,45.28 L51.93,45.89 L52.56,46.43 L53.26,46.89 L78.21,61.07 L78.91,61.53 L79.54,62.07 L80.08,62.69 L80.54,63.37 L80.90,64.10 L81.17,64.87 L81.33,65.69 L81.38,66.52 L81.35,81.03 L81.30,81.86 L81.13,82.67 L80.87,83.44 L80.51,84.17 L80.05,84.84 L79.52,85.45 L78.90,85.99 L78.20,86.45 L62.76,95.30 L62.19,95.60 L61.60,95.87 L61.01,96.09 L60.40,96.27 L59.78,96.41 L59.16,96.51 L58.53,96.57 L57.90,96.59 L57.27,96.57 L56.65,96.51 L56.02,96.41 L55.41,96.27 L54.80,96.09 L54.20,95.87 L53.61,95.60 L53.04,95.30 L52.39,94.87 L51.81,94.36 L51.30,93.78 L50.88,93.15 L50.54,92.47 L50.29,91.74 L50.14,90.99 L50.09,90.21 L50.09,34.43 L50.09,41.45 Z" fill="#84b2ff" stroke="#1e1e1e" stroke-width="1" stroke-linejoin="round" opacity="0.5"/><path d="M50.09,41.45 L50.14,42.29 L50.31,43.09 L50.57,43.87 L50.94,44.60 L51.39,45.28 L51.93,45.89 L52.56,46.43 L53.26,46.89 L78.21,61.07 L78.91,61.53 L79.54,62.07 L80.08,62.69 L80.54,63.37 L80.90,64.10 L81.17,64.87 L81.33,65.69 L81.38,66.52 L81.35,81.03 L81.30,81.86 L81.13,82.67 L80.87,83.44 L80.51,84.17 L80.05,84.84 L79.52,85.45 L78.90,85.99 L78.20,86.45 L62.76,95.30 L62.19,95.60 L61.60,95.87 L61.01,96.09 L60.40,96.27 L59.78,96.41 L59.16,96.51 L58.53,96.57 L57.90,96.59 L57.27,96.57 L56.65,96.51 L56.02,96.41 L55.41,96.27 L54.80,96.09 L54.20,95.87 L53.61,95.60 L53.04,95.30 L52.39,94.87 L51.81,94.36 L51.30,93.78 L50.88,93.15 L50.54,92.47 L50.29,91.74 L50.14,90.99 L50.09,90.21 L50.09,34.43 L50.09,41.45 Z" fill="#90bdff" stroke="#1e1e1e" stroke-width="1" stroke-linejoin="round" opacity="0.5"/></svg>