<svg xmlns="http://www.w3.org/2000/svg" viewBox="-2.43 57.64 516.21 396.75"><path d="M74.01,116.40 L81.71,109.77 L89.56,103.56 L97.56,97.78 L105.69,92.42 L113.93,87.48 L122.29,82.96 L130.74,78.84 L139.27,75.13 L147.86,71.83 L156.52,68.93 L165.22,66.43 L173.95,64.32 L182.70,62.61 L191.45,61.29 L200.20,60.36 L208.93,59.81 L217.63,59.64 L226.28,59.85 L234.88,60.44 L243.40,61.39 L251.85,62.72 L260.20,64.42 L268.45,66.48 L276.57,68.90 L284.56,71.67 L292.41,74.80 L300.10,78.29 L307.62,82.12 L314.96,86.30 L322.11,90.82 L329.04,95.68 L335.76,100.87 L341.62,105.85 L347.19,110.99 L352.46,116.31 L357.43,121.77 L362.11,127.38 L366.49,133.13 L370.57,139.00 L374.36,144.98 L377.86,151.07 L381.06,157.25 L383.97,163.52 L386.58,169.86 L388.90,176.27 L390.93,182.74 L392.66,189.25 L394.11,195.79 L395.26,202.37 L396.12,208.96 L396.69,215.56 L396.97,222.15 L396.96,228.73 L396.67,235.29 L396.08,241.82 L395.20,248.30 L394.04,254.74 L392.59,261.11 L390.85,267.41 L388.83,273.63 L386.52,279.76 L383.92,285.78 L381.04,291.70 L377.87,297.49 L374.48,303.09 L370.94,308.42 L367.25,313.48 L363.40,318.26 L359.41,322.77 L355.29,327.00 L351.02,330.96 L346.62,334.63 L342.10,338.02 L337.44,341.13 L332.67,343.95 L327.77,346.49 L322.77,348.73 L317.65,350.69 L312.42,352.35 L307.09,353.72 L301.66,354.79 L296.13,355.56 L290.51,356.03 L284.80,356.20 L279.00,356.06 L273.13,355.62 L267.17,354.87 L261.14,353.81 L255.04,352.45 L248.88,350.76 L242.65,348.77 L236.36,346.45 L230.01,343.82 L223.61,340.87 L217.16,337.60 L210.67,334.00 L169.22,405.80 L169.19,405.79 L166.96,409.44 L164.57,412.93 L162.03,416.27 L159.35,419.44 L156.54,422.46 L153.60,425.31 L150.53,428.00 L147.36,430.52 L144.08,432.87 L140.70,435.06 L137.22,437.07 L133.67,438.90 L130.03,440.57 L126.33,442.05 L122.56,443.35 L118.73,444.48 L114.86,445.41 L110.95,446.17 L106.99,446.73 L103.02,447.11 L99.02,447.30 L95.00,447.29 L90.98,447.08 L86.97,446.68 L82.96,446.09 L78.96,445.29 L74.99,444.29 L71.04,443.08 L67.13,441.67 L63.27,440.04 L59.46,438.21 L55.70,436.17 L49.92,432.51 L44.54,428.46 L39.57,424.05 L35.02,419.31 L30.90,414.26 L27.21,408.94 L23.96,403.38 L21.16,397.61 L21.13,397.61 L17.30,388.18 L13.85,378.67 L10.79,369.10 L8.10,359.47 L5.78,349.80 L3.83,340.10 L2.26,330.38 L1.04,320.65 L0.19,310.93 L-0.30,301.23 L-0.43,291.56 L-0.22,281.92 L0.35,272.35 L1.27,262.83 L2.53,253.40 L4.14,244.05 L6.08,234.80 L8.36,225.67 L10.97,216.66 L13.92,207.79 L17.19,199.07 L20.79,190.51 L24.71,182.12 L28.95,173.92 L33.50,165.91 L38.37,158.12 L43.55,150.54 L49.04,143.20 L54.83,136.10 L60.93,129.26 L67.32,122.69 L74.01,116.40 Z" fill="#0a4a34" stroke="#1e1e1e" stroke-width="1" stroke-linejoin="round"/><path d="M74.01,116.40 L81.71,109.77 L89.56,103.56 L97.56,97.78 L105.69,92.42 L113.93,87.48 L122.29,82.96 L130.74,78.84 L139.27,75.13 L147.86,71.83 L156.52,68.93 L165.22,66.43 L173.95,64.32 L182.70,62.61 L191.45,61.29 L200.20,60.36 L208.93,59.81 L217.63,59.64 L226.28,59.85 L234.88,60.44 L243.40,61.39 L251.85,62.72 L260.20,64.42 L268.45,66.48 L276.57,68.90 L284.56,71.67 L292.41,74.80 L300.10,78.29 L307.62,82.12 L314.96,86.30 L322.11,90.82 L329.04,95.68 L335.76,100.87 L341.62,105.85 L347.19,110.99 L352.46,116.31 L357.43,121.77 L362.11,127.38 L366.49,133.13 L370.57,139.00 L374.36,144.98 L377.86,151.07 L381.06,157.25 L383.97,163.52 L386.58,169.86 L388.90,176.27 L390.93,182.74 L392.66,189.25 L394.11,195.79 L395.26,202.37 L396.12,208.96 L396.69,215.56 L396.97,222.15 L396.96,228.73 L396.67,235.29 L396.08,241.82 L395.20,248.30 L394.04,254.74 L392.59,261.11 L390.85,267.41 L388.83,273.63 L386.52,279.76 L383.92,285.78 L381.04,291.70 L377.87,297.49 L374.48,303.09 L370.94,308.42 L367.25,313.48 L363.40,318.26 L359.41,322.77 L355.29,327.00 L351.02,330.96 L346.62,334.63 L342.10,338.02 L337.44,341.13 L332.67,343.95 L327.77,346.49 L322.77,348.73 L317.65,350.69 L312.42,352.35 L307.09,353.72 L301.66,354.79 L296.13,355.56 L290.51,356.03 L284.80,356.20 L279.00,356.06 L273.13,355.62 L267.17,354.87 L261.14,353.81 L255.04,352.45 L248.88,350.76 L242.65,348.77 L236.36,346.45 L230.01,343.82 L223.61,340.87 L217.16,337.60 L210.67,334.00 L169.22,405.80 L169.19,405.79 L166.96,409.44 L164.57,412.93 L162.03,416.27 L159.35,419.44 L156.54,422.46 L153.60,425.31 L150.53,428.00 L147.36,430.52 L144.08,432.87 L140.70,435.06 L137.22,437.07 L133.67,438.90 L130.03,440.57 L126.33,442.05 L122.56,443.35 L118.73,444.48 L114.86,445.41 L110.95,446.17 L106.99,446.73 L103.02,447.11 L99.02,447.30 L95.00,447.29 L90.98,447.08 L86.97,446.68 L82.96,446.09 L78.96,445.29 L74.99,444.29 L71.04,443.08 L67.13,441.67 L63.27,440.04 L59.46,438.21 L55.70,436.17 L49.92,432.51 L44.54,428.46 L39.57,424.05 L35.02,419.31 L30.90,414.26 L27.21,408.94 L23.96,403.38 L21.16,397.61 L21.13,397.61 L17.30,388.18 L13.85,378.67 L10.79,369.10 L8.10,359.47 L5.78,349.80 L3.83,340.10 L2.26,330.38 L1.04,320.65 L0.19,310.93 L-0.30,301.23 L-0.43,291.56 L-0.22,281.92 L0.35,272.35 L1.27,262.83 L2.53,253.40 L4.14,244.05 L6.08,234.80 L8.36,225.67 L10.97,216.66 L13.92,207.79 L17.19,199.07 L20.79,190.51 L24.71,182.12 L28.95,173.92 L33.50,165.91 L38.37,158.12 L43.55,150.54 L49.04,143.20 L54.83,136.10 L60.93,129.26 L67.32,122.69 L74.01,116.40 Z" fill="#1a7f7c" stroke="#1e1e1e" stroke-width="1" stroke-linejoin="round" opacity="0.8"/><path d="M455.64,75.86 L461.48,79.55 L466.91,83.65 L471.92,88.11 L476.50,92.92 L480.65,98.03 L484.35,103.41 L487.60,109.05 L490.40,114.90 L490.42,114.90 L494.22,124.32 L497.64,133.82 L500.69,143.38 L503.35,152.99 L505.65,162.65 L507.58,172.33 L509.14,182.04 L510.33,191.75 L511.17,201.45 L511.65,211.14 L511.77,220.80 L511.54,230.41 L510.96,239.97 L510.04,249.47 L508.77,258.89 L507.16,268.22 L505.21,277.45 L502.92,286.56 L500.31,295.55 L497.36,304.41 L494.09,313.11 L490.49,321.66 L486.57,330.03 L482.33,338.21 L477.78,346.20 L472.92,353.99 L467.74,361.55 L462.26,368.88 L456.48,375.96 L450.39,382.79 L444.00,389.35 L437.32,395.63 L429.63,402.26 L421.78,408.47 L413.78,414.25 L405.65,419.60 L397.40,424.55 L389.05,429.07 L380.60,433.19 L372.07,436.90 L363.47,440.20 L354.82,443.10 L346.12,445.60 L337.39,447.71 L328.64,449.42 L319.89,450.74 L311.14,451.67 L302.41,452.22 L293.71,452.39 L285.06,452.18 L276.46,451.59 L267.93,450.64 L259.49,449.31 L251.14,447.61 L242.89,445.55 L234.77,443.13 L226.77,440.36 L218.93,437.23 L211.24,433.74 L203.71,429.91 L196.38,425.73 L189.23,421.21 L182.29,416.36 L175.58,411.16 L169.71,406.18 L164.15,401.04 L158.88,395.72 L153.91,390.26 L149.23,384.65 L144.85,378.90 L140.76,373.03 L136.97,367.05 L133.48,360.96 L130.28,354.78 L127.37,348.51 L124.76,342.17 L122.44,335.76 L120.41,329.29 L118.68,322.78 L117.23,316.24 L116.08,309.66 L115.22,303.07 L114.65,296.47 L114.37,289.88 L114.37,283.30 L114.67,276.74 L115.26,270.21 L116.13,263.73 L117.30,257.29 L118.75,250.92 L120.49,244.62 L122.51,238.40 L124.82,232.27 L127.42,226.25 L130.30,220.33 L133.47,214.54 L136.85,208.94 L140.40,203.61 L144.09,198.55 L147.94,193.77 L151.92,189.26 L156.05,185.03 L160.32,181.07 L164.71,177.40 L169.24,174.01 L173.89,170.90 L178.67,168.08 L183.56,165.54 L188.57,163.30 L193.69,161.34 L198.92,159.68 L204.25,158.31 L209.68,157.24 L215.21,156.47 L220.83,156.00 L226.54,155.83 L232.33,155.97 L238.21,156.41 L244.17,157.16 L250.20,158.22 L256.29,159.58 L262.46,161.27 L268.69,163.26 L274.98,165.58 L281.33,168.21 L287.73,171.16 L294.17,174.43 L300.67,178.03 L342.10,106.27 L342.12,106.27 L344.36,102.62 L346.74,99.12 L349.28,95.79 L351.96,92.61 L354.77,89.59 L357.72,86.74 L360.78,84.05 L363.95,81.52 L367.24,79.17 L370.62,76.98 L374.09,74.97 L377.65,73.13 L381.28,71.47 L384.99,69.98 L388.76,68.68 L392.58,67.55 L396.46,66.61 L400.38,65.86 L404.33,65.29 L408.31,64.92 L412.31,64.73 L416.32,64.74 L420.34,64.94 L424.36,65.34 L428.38,65.94 L432.37,66.74 L436.35,67.74 L440.29,68.95 L444.20,70.36 L448.07,71.98 L451.88,73.81 L455.64,75.86 Z" fill="#22856d" stroke="#1e1e1e" stroke-width="1" stroke-linejoin="round"/><path d="M455.64,75.86 L461.48,79.55 L466.91,83.65 L471.92,88.11 L476.50,92.92 L480.65,98.03 L484.35,103.41 L487.60,109.05 L490.40,114.90 L490.42,114.90 L494.22,124.32 L497.64,133.82 L500.69,143.38 L503.35,152.99 L505.65,162.65 L507.58,172.33 L509.14,182.04 L510.33,191.75 L511.17,201.45 L511.65,211.14 L511.77,220.80 L511.54,230.41 L510.96,239.97 L510.04,249.47 L508.77,258.89 L507.16,268.22 L505.21,277.45 L502.92,286.56 L500.31,295.55 L497.36,304.41 L494.09,313.11 L490.49,321.66 L486.57,330.03 L482.33,338.21 L477.78,346.20 L472.92,353.99 L467.74,361.55 L462.26,368.88 L456.48,375.96 L450.39,382.79 L444.00,389.35 L437.32,395.63 L429.63,402.26 L421.78,408.47 L413.78,414.25 L405.65,419.60 L397.40,424.55 L389.05,429.07 L380.60,433.19 L372.07,436.90 L363.47,440.20 L354.82,443.10 L346.12,445.60 L337.39,447.71 L328.64,449.42 L319.89,450.74 L311.14,451.67 L302.41,452.22 L293.71,452.39 L285.06,452.18 L276.46,451.59 L267.93,450.64 L259.49,449.31 L251.14,447.61 L242.89,445.55 L234.77,443.13 L226.77,440.36 L218.93,437.23 L211.24,433.74 L203.71,429.91 L196.38,425.73 L189.23,421.21 L182.29,416.36 L175.58,411.16 L169.71,406.18 L164.15,401.04 L158.88,395.72 L153.91,390.26 L149.23,384.65 L144.85,378.90 L140.76,373.03 L136.97,367.05 L133.48,360.96 L130.28,354.78 L127.37,348.51 L124.76,342.17 L122.44,335.76 L120.41,329.29 L118.68,322.78 L117.23,316.24 L116.08,309.66 L115.22,303.07 L114.65,296.47 L114.37,289.88 L114.37,283.30 L114.67,276.74 L115.26,270.21 L116.13,263.73 L117.30,257.29 L118.75,250.92 L120.49,244.62 L122.51,238.40 L124.82,232.27 L127.42,226.25 L130.30,220.33 L133.47,214.54 L136.85,208.94 L140.40,203.61 L144.09,198.55 L147.94,193.77 L151.92,189.26 L156.05,185.03 L160.32,181.07 L164.71,177.40 L169.24,174.01 L173.89,170.90 L178.67,168.08 L183.56,165.54 L188.57,163.30 L193.69,161.34 L198.92,159.68 L204.25,158.31 L209.68,157.24 L215.21,156.47 L220.83,156.00 L226.54,155.83 L232.33,155.97 L238.21,156.41 L244.17,157.16 L250.20,158.22 L256.29,159.58 L262.46,161.27 L268.69,163.26 L274.98,165.58 L281.33,168.21 L287.73,171.16 L294.17,174.43 L300.67,178.03 L342.10,106.27 L342.12,106.27 L344.36,102.62 L346.74,99.12 L349.28,95.79 L351.96,92.61 L354.77,89.59 L357.72,86.74 L360.78,84.05 L363.95,81.52 L367.24,79.17 L370.62,76.98 L374.09,74.97 L377.65,73.13 L381.28,71.47 L384.99,69.98 L388.76,68.68 L392.58,67.55 L396.46,66.61 L400.38,65.86 L404.33,65.29 L408.31,64.92 L412.31,64.73 L416.32,64.74 L420.34,64.94 L424.36,65.34 L428.38,65.94 L432.37,66.74 L436.35,67.74 L440.29,68.95 L444.20,70.36 L448.07,71.98 L451.88,73.81 L455.64,75.86 Z" fill="#76d45e" stroke="#1e1e1e" stroke-width="1" stroke-linejoin="round" opacity="0.9"/><path d="M210.69,334.01 L217.18,337.60 L223.63,340.88 L230.03,343.83 L236.37,346.46 L242.66,348.77 L248.89,350.77 L255.06,352.45 L261.16,353.82 L267.19,354.88 L273.14,355.63 L279.02,356.07 L284.81,356.20 L290.52,356.04 L296.14,355.56 L301.67,354.79 L307.10,353.72 L312.44,352.36 L317.66,350.70 L322.78,348.74 L327.79,346.50 L332.68,343.96 L337.46,341.14 L342.11,338.03 L346.64,334.64 L351.04,330.97 L355.30,327.01 L359.43,322.78 L363.42,318.27 L367.26,313.48 L370.96,308.43 L374.50,303.10 L377.89,297.50 L380.95,291.90 L383.75,286.19 L386.28,280.38 L388.55,274.47 L390.55,268.48 L392.28,262.40 L393.74,256.26 L394.93,250.06 L395.86,243.81 L396.52,237.51 L396.90,231.19 L397.02,224.84 L396.87,218.47 L396.44,212.09 L395.75,205.72 L394.78,199.36 L393.55,193.02 L392.04,186.71 L390.25,180.43 L388.20,174.20 L385.87,168.03 L383.27,161.92 L380.39,155.88 L377.24,149.93 L373.82,144.06 L370.12,138.29 L366.14,132.64 L361.89,127.10 L357.36,121.68 L352.56,116.40 L347.48,111.26 L342.12,106.28 L300.69,178.03 L210.69,334.01 Z" fill="#249389" stroke="#1e1e1e" stroke-width="1" stroke-linejoin="round"/><path d="M300.69,178.03 L294.20,174.44 L287.75,171.16 L281.35,168.21 L275.01,165.58 L268.72,163.27 L262.49,161.27 L256.32,159.59 L250.22,158.22 L244.19,157.16 L238.24,156.41 L232.36,155.97 L226.56,155.84 L220.85,156.01 L215.23,156.48 L209.71,157.25 L204.27,158.32 L198.94,159.68 L193.72,161.34 L188.60,163.30 L183.59,165.54 L178.69,168.08 L173.92,170.90 L169.26,174.01 L164.74,177.40 L160.34,181.07 L156.07,185.03 L151.95,189.26 L147.96,193.77 L144.12,198.56 L140.42,203.61 L136.88,208.94 L133.49,214.54 L130.43,220.14 L127.63,225.85 L125.10,231.66 L122.83,237.57 L120.83,243.57 L119.10,249.64 L117.64,255.78 L116.44,261.98 L115.52,268.23 L114.86,274.53 L114.48,280.85 L114.36,287.21 L114.51,293.57 L114.93,299.95 L115.63,306.32 L116.60,312.68 L117.83,319.02 L119.34,325.33 L121.12,331.61 L123.18,337.84 L125.51,344.01 L128.11,350.12 L130.99,356.16 L134.14,362.11 L137.56,367.98 L141.26,373.75 L145.24,379.40 L149.49,384.94 L154.02,390.36 L158.82,395.64 L163.90,400.78 L169.26,405.76 L210.69,334.01 L300.69,178.03 Z" fill="#0b5155" stroke="#1e1e1e" stroke-width="1" stroke-linejoin="round"/><path d="M177.71,301.04 L180.13,305.00 L182.72,308.78 L185.47,312.40 L188.37,315.84 L191.42,319.11 L194.61,322.21 L197.93,325.12 L201.37,327.86 L204.92,330.41 L208.59,332.78 L212.35,334.96 L216.20,336.95 L220.14,338.75 L224.16,340.36 L228.24,341.78 L232.39,343.00 L236.59,344.01 L240.83,344.83 L245.12,345.45 L249.43,345.85 L253.76,346.06 L258.11,346.05 L262.47,345.83 L266.83,345.40 L271.17,344.75 L275.50,343.88 L279.81,342.80 L284.09,341.49 L288.32,339.96 L292.51,338.20 L296.65,336.22 L300.72,334.00 L304.67,331.58 L308.46,328.99 L312.07,326.25 L315.52,323.34 L318.79,320.29 L321.88,317.11 L324.80,313.79 L327.53,310.35 L330.09,306.79 L332.45,303.13 L334.64,299.36 L336.63,295.51 L338.43,291.57 L340.04,287.55 L341.45,283.47 L342.67,279.32 L343.69,275.13 L344.51,270.88 L345.12,266.60 L345.53,262.29 L345.73,257.95 L345.72,253.60 L345.51,249.24 L345.07,244.89 L344.42,240.54 L343.56,236.21 L342.47,231.90 L341.17,227.63 L339.63,223.39 L337.88,219.20 L335.89,215.07 L333.68,211.00 L331.26,207.04 L328.67,203.26 L325.92,199.64 L323.02,196.20 L319.97,192.93 L316.78,189.83 L313.46,186.92 L310.02,184.18 L306.47,181.63 L302.80,179.26 L299.04,177.08 L295.19,175.09 L291.25,173.28 L287.23,171.67 L283.15,170.26 L279.00,169.04 L274.80,168.02 L270.56,167.21 L266.27,166.59 L261.96,166.18 L257.63,165.98 L253.28,165.99 L248.92,166.21 L244.57,166.64 L240.22,167.29 L235.89,168.16 L231.58,169.24 L227.30,170.55 L223.07,172.08 L218.88,173.84 L214.75,175.82 L210.67,178.04 L206.72,180.46 L202.93,183.04 L199.32,185.79 L195.87,188.70 L192.60,191.75 L189.51,194.93 L186.59,198.25 L183.86,201.69 L181.31,205.25 L178.94,208.91 L176.76,212.67 L174.76,216.53 L172.96,220.47 L171.35,224.48 L169.94,228.57 L168.72,232.71 L167.70,236.91 L166.88,241.16 L166.27,245.44 L165.86,249.75 L165.66,254.09 L165.67,258.44 L165.89,262.79 L166.32,267.15 L166.97,271.50 L167.83,275.83 L168.92,280.14 L170.23,284.41 L171.76,288.65 L173.51,292.84 L175.50,296.97 L177.71,301.04 Z" fill="#6bdc8f" stroke="#1e1e1e" stroke-width="1" stroke-linejoin="round"/></svg>