<svg xmlns="http://www.w3.org/2000/svg" viewBox="6.09 -2.00 507.43 515.04"><path d="M203.21,382.36 L168.82,485.55 L167.03,489.97 L164.78,494.01 L162.11,497.66 L159.07,500.90 L155.70,503.72 L152.05,506.10 L148.16,508.04 L144.09,509.52 L139.87,510.52 L135.56,511.03 L131.19,511.04 L126.83,510.53 L122.51,509.49 L118.28,507.91 L114.18,505.77 L110.26,503.05 L26.13,436.63 L23.30,434.21 L20.70,431.61 L18.32,428.84 L16.19,425.91 L14.29,422.85 L12.64,419.67 L11.23,416.37 L10.08,412.99 L9.18,409.53 L8.55,406.00 L8.19,402.43 L8.09,398.83 L8.28,395.21 L8.74,391.60 L9.49,387.99 L10.53,384.42 L11.87,380.87 L13.48,377.47 L15.33,374.24 L17.41,371.19 L19.71,368.32 L22.21,365.65 L24.91,363.19 L27.78,360.95 L30.82,358.93 L34.01,357.15 L37.33,355.62 L40.78,354.34 L44.33,353.33 L47.98,352.60 L51.71,352.15 L55.51,352.00 L245.33,352.00 L241.78,352.14 L238.28,352.56 L234.87,353.25 L231.54,354.19 L228.31,355.39 L225.20,356.83 L222.22,358.49 L219.37,360.38 L216.68,362.48 L214.16,364.79 L211.81,367.28 L209.66,369.97 L207.71,372.82 L205.97,375.85 L204.47,379.03 L203.21,382.36 Z" fill="#27b288" stroke="#1e1e1e" stroke-width="1" stroke-linejoin="round"/><path d="M203.21,382.36 L168.82,485.55 L167.03,489.97 L164.78,494.01 L162.11,497.66 L159.07,500.90 L155.70,503.72 L152.05,506.10 L148.16,508.04 L144.09,509.52 L139.87,510.52 L135.56,511.03 L131.19,511.04 L126.83,510.53 L122.51,509.49 L118.28,507.91 L114.18,505.77 L110.26,503.05 L26.13,436.63 L23.30,434.21 L20.70,431.61 L18.32,428.84 L16.19,425.91 L14.29,422.85 L12.64,419.67 L11.23,416.37 L10.08,412.99 L9.18,409.53 L8.55,406.00 L8.19,402.43 L8.09,398.83 L8.28,395.21 L8.74,391.60 L9.49,387.99 L10.53,384.42 L11.87,380.87 L13.48,377.47 L15.33,374.24 L17.41,371.19 L19.71,368.32 L22.21,365.65 L24.91,363.19 L27.78,360.95 L30.82,358.93 L34.01,357.15 L37.33,355.62 L40.78,354.34 L44.33,353.33 L47.98,352.60 L51.71,352.15 L55.51,352.00 L245.33,352.00 L241.78,352.14 L238.28,352.56 L234.87,353.25 L231.54,354.19 L228.31,355.39 L225.20,356.83 L222.22,358.49 L219.37,360.38 L216.68,362.48 L214.16,364.79 L211.81,367.28 L209.66,369.97 L207.71,372.82 L205.97,375.85 L204.47,379.03 L203.21,382.36 Z" fill="#1e794a" stroke="#1e1e1e" stroke-width="1" stroke-linejoin="round" opacity="0"/><path d="M129.73,160.00 L324.45,160.00 L331.42,160.16 L338.39,160.62 L345.34,161.37 L352.25,162.42 L359.10,163.74 L365.87,165.34 L372.54,167.20 L379.10,169.32 L385.52,171.68 L391.80,174.28 L397.91,177.11 L403.83,180.17 L409.54,183.44 L415.03,186.91 L420.28,190.58 L425.27,194.44 L429.98,198.48 L434.39,202.69 L438.49,207.07 L442.26,211.60 L445.67,216.28 L448.72,221.10 L451.38,226.05 L453.63,231.13 L455.46,236.31 L456.84,241.61 L457.77,247.00 L458.22,252.48 L458.17,258.04 L457.60,263.68 L456.51,269.38 L454.86,275.14 L508.83,113.46 L510.04,109.31 L510.90,105.02 L511.39,100.61 L511.53,96.09 L511.31,91.50 L510.73,86.83 L509.79,82.12 L508.50,77.38 L506.85,72.62 L504.85,67.86 L502.50,63.13 L499.79,58.44 L496.73,53.80 L493.31,49.24 L489.55,44.77 L485.43,40.41 L480.97,36.18 L476.15,32.09 L470.99,28.17 L465.47,24.43 L459.61,20.88 L453.41,17.55 L446.85,14.45 L439.95,11.61 L432.70,9.03 L425.11,6.74 L417.18,4.76 L408.90,3.09 L400.28,1.76 L391.32,0.80 L382.01,0.20 L372.36,0.00 L161.73,0.00 L159.17,0.10 L156.65,0.40 L154.19,0.90 L151.79,1.58 L149.46,2.44 L147.22,3.48 L145.07,4.68 L143.02,6.04 L141.08,7.55 L139.26,9.22 L137.57,11.02 L136.02,12.95 L134.61,15.01 L133.36,17.19 L132.28,19.48 L131.37,21.88 L99.37,117.88 L98.34,121.77 L97.80,125.64 L97.74,129.46 L98.13,133.20 L98.95,136.83 L100.18,140.31 L101.80,143.62 L103.77,146.71 L106.08,149.56 L108.71,152.14 L111.62,154.40 L114.80,156.33 L118.23,157.89 L121.87,159.04 L125.71,159.75 L129.73,160.00 Z" fill="#1b8480" stroke="#1e1e1e" stroke-width="1" stroke-linejoin="round"/><path d="M129.73,160.00 L324.45,160.00 L331.42,160.16 L338.39,160.62 L345.34,161.37 L352.25,162.42 L359.10,163.74 L365.87,165.34 L372.54,167.20 L379.10,169.32 L385.52,171.68 L391.80,174.28 L397.91,177.11 L403.83,180.17 L409.54,183.44 L415.03,186.91 L420.28,190.58 L425.27,194.44 L429.98,198.48 L434.39,202.69 L438.49,207.07 L442.26,211.60 L445.67,216.28 L448.72,221.10 L451.38,226.05 L453.63,231.13 L455.46,236.31 L456.84,241.61 L457.77,247.00 L458.22,252.48 L458.17,258.04 L457.60,263.68 L456.51,269.38 L454.86,275.14 L508.83,113.46 L510.04,109.31 L510.90,105.02 L511.39,100.61 L511.53,96.09 L511.31,91.50 L510.73,86.83 L509.79,82.12 L508.50,77.38 L506.85,72.62 L504.85,67.86 L502.50,63.13 L499.79,58.44 L496.73,53.80 L493.31,49.24 L489.55,44.77 L485.43,40.41 L480.97,36.18 L476.15,32.09 L470.99,28.17 L465.47,24.43 L459.61,20.88 L453.41,17.55 L446.85,14.45 L439.95,11.61 L432.70,9.03 L425.11,6.74 L417.18,4.76 L408.90,3.09 L400.28,1.76 L391.32,0.80 L382.01,0.20 L372.36,0.00 L161.73,0.00 L159.17,0.10 L156.65,0.40 L154.19,0.90 L151.79,1.58 L149.46,2.44 L147.22,3.48 L145.07,4.68 L143.02,6.04 L141.08,7.55 L139.26,9.22 L137.57,11.02 L136.02,12.95 L134.61,15.01 L133.36,17.19 L132.28,19.48 L131.37,21.88 L99.37,117.88 L98.34,121.77 L97.80,125.64 L97.74,129.46 L98.13,133.20 L98.95,136.83 L100.18,140.31 L101.80,143.62 L103.77,146.71 L106.08,149.56 L108.71,152.14 L111.62,154.40 L114.80,156.33 L118.23,157.89 L121.87,159.04 L125.71,159.75 L129.73,160.00 Z" fill="#044f91" stroke="#1e1e1e" stroke-width="1" stroke-linejoin="round" opacity="0.51"/><path d="M319.11,352.00 L59.77,352.00 L55.50,352.17 L51.31,352.67 L47.21,353.50 L43.21,354.63 L39.33,356.07 L35.60,357.79 L32.01,359.79 L28.60,362.06 L25.36,364.58 L22.33,367.35 L19.51,370.35 L16.93,373.57 L14.58,377.00 L12.50,380.63 L10.70,384.45 L9.18,388.45 L62.51,228.47 L64.02,224.47 L65.83,220.65 L67.91,217.01 L70.25,213.58 L72.84,210.36 L75.66,207.36 L78.69,204.59 L81.92,202.07 L85.34,199.80 L88.92,197.80 L92.66,196.07 L96.54,194.63 L100.54,193.50 L104.64,192.67 L108.84,192.17 L113.11,192.00 L372.35,192.00 L379.01,191.90 L385.54,191.61 L391.94,191.13 L398.20,190.46 L404.32,189.61 L410.31,188.58 L416.16,187.38 L421.86,186.00 L427.41,184.46 L432.81,182.76 L438.07,180.90 L443.17,178.89 L448.11,176.72 L452.90,174.41 L457.52,171.95 L461.98,169.36 L466.28,166.63 L470.41,163.76 L474.37,160.78 L478.16,157.67 L481.77,154.43 L485.21,151.09 L488.46,147.63 L491.54,144.06 L494.43,140.40 L497.14,136.63 L499.66,132.76 L501.98,128.81 L504.12,124.76 L506.06,120.63 L507.80,116.42 L509.34,112.14 L454.90,275.72 L453.63,279.22 L452.18,282.72 L450.53,286.22 L448.69,289.71 L446.66,293.18 L444.43,296.61 L442.02,300.02 L439.41,303.38 L436.62,306.69 L433.63,309.95 L430.45,313.14 L427.07,316.25 L423.51,319.29 L419.75,322.24 L415.80,325.10 L411.65,327.85 L407.32,330.50 L402.79,333.03 L398.07,335.43 L393.16,337.70 L388.05,339.84 L382.75,341.82 L377.26,343.66 L371.57,345.33 L365.69,346.83 L359.62,348.16 L353.35,349.30 L346.89,350.25 L340.23,351.01 L333.39,351.55 L326.34,351.89 L319.11,352.00 Z" fill="#35ab85" stroke="#1e1e1e" stroke-width="1" stroke-linejoin="round"/><path d="M319.11,352.00 L59.77,352.00 L55.50,352.17 L51.31,352.67 L47.21,353.50 L43.21,354.63 L39.33,356.07 L35.60,357.79 L32.01,359.79 L28.60,362.06 L25.36,364.58 L22.33,367.35 L19.51,370.35 L16.93,373.57 L14.58,377.00 L12.50,380.63 L10.70,384.45 L9.18,388.45 L62.51,228.47 L64.02,224.47 L65.83,220.65 L67.91,217.01 L70.25,213.58 L72.84,210.36 L75.66,207.36 L78.69,204.59 L81.92,202.07 L85.34,199.80 L88.92,197.80 L92.66,196.07 L96.54,194.63 L100.54,193.50 L104.64,192.67 L108.84,192.17 L113.11,192.00 L372.35,192.00 L379.01,191.90 L385.54,191.61 L391.94,191.13 L398.20,190.46 L404.32,189.61 L410.31,188.58 L416.16,187.38 L421.86,186.00 L427.41,184.46 L432.81,182.76 L438.07,180.90 L443.17,178.89 L448.11,176.72 L452.90,174.41 L457.52,171.95 L461.98,169.36 L466.28,166.63 L470.41,163.76 L474.37,160.78 L478.16,157.67 L481.77,154.43 L485.21,151.09 L488.46,147.63 L491.54,144.06 L494.43,140.40 L497.14,136.63 L499.66,132.76 L501.98,128.81 L504.12,124.76 L506.06,120.63 L507.80,116.42 L509.34,112.14 L454.90,275.72 L453.63,279.22 L452.18,282.72 L450.53,286.22 L448.69,289.71 L446.66,293.18 L444.43,296.61 L442.02,300.02 L439.41,303.38 L436.62,306.69 L433.63,309.95 L430.45,313.14 L427.07,316.25 L423.51,319.29 L419.75,322.24 L415.80,325.10 L411.65,327.85 L407.32,330.50 L402.79,333.03 L398.07,335.43 L393.16,337.70 L388.05,339.84 L382.75,341.82 L377.26,343.66 L371.57,345.33 L365.69,346.83 L359.62,348.16 L353.35,349.30 L346.89,350.25 L340.23,351.01 L333.39,351.55 L326.34,351.89 L319.11,352.00 Z" fill="#81e08a" stroke="#1e1e1e" stroke-width="1" stroke-linejoin="round" opacity="0.5"/></svg>