<svg xmlns="http://www.w3.org/2000/svg" viewBox="26.00 14.00 475.31 484.00"><path d="M280.05,16.00 L285.72,16.30 L291.28,17.20 L296.69,18.66 L301.90,20.68 L306.87,23.23 L311.56,26.30 L315.92,29.86 L319.91,33.90 L440.84,169.95 L443.81,173.53 L446.47,177.22 L448.81,181.02 L450.86,184.91 L452.60,188.87 L454.05,192.89 L455.21,196.97 L456.09,201.07 L456.69,205.21 L457.01,209.35 L457.06,213.48 L456.84,217.60 L456.36,221.68 L455.63,225.72 L454.64,229.71 L453.41,233.62 L451.93,237.44 L450.22,241.17 L448.27,244.79 L446.10,248.28 L443.70,251.63 L441.08,254.83 L438.25,257.86 L435.20,260.72 L431.96,263.39 L428.51,265.84 L424.86,268.08 L421.03,270.09 L417.00,271.86 L412.80,273.36 L408.42,274.59 L403.87,275.54 L114.67,325.33 L150.93,284.34 L153.45,281.21 L155.62,277.92 L157.47,274.49 L158.97,270.94 L160.14,267.29 L160.98,263.57 L161.48,259.81 L161.64,256.02 L161.47,252.23 L160.96,248.46 L160.12,244.75 L158.94,241.10 L157.42,237.55 L155.57,234.12 L153.39,230.84 L150.86,227.72 L41.57,104.77 L38.86,101.49 L36.47,98.10 L34.39,94.63 L32.62,91.08 L31.14,87.46 L29.95,83.80 L29.05,80.10 L28.43,76.39 L28.08,72.66 L28.00,68.94 L28.18,65.23 L28.61,61.56 L29.30,57.94 L30.22,54.38 L31.39,50.89 L32.78,47.48 L34.40,44.18 L36.23,41.00 L38.28,37.94 L40.53,35.02 L42.99,32.25 L45.64,29.66 L48.47,27.25 L51.49,25.03 L54.68,23.03 L58.04,21.24 L61.57,19.70 L65.25,18.40 L69.09,17.37 L73.06,16.62 L77.18,16.16 L81.43,16.00 L280.05,16.00 Z" fill="#1f4ec2" stroke="#1e1e1e" stroke-width="1" stroke-linejoin="round"/><path d="M81.43,496.00 L77.18,495.84 L73.06,495.38 L69.09,494.63 L65.25,493.60 L61.57,492.30 L58.04,490.76 L54.68,488.97 L51.49,486.97 L48.47,484.75 L45.64,482.34 L42.99,479.75 L40.53,476.98 L38.28,474.06 L36.23,471.00 L34.40,467.82 L32.78,464.51 L31.39,461.11 L30.22,457.62 L29.30,454.06 L28.61,450.43 L28.18,446.77 L28.00,443.06 L28.08,439.34 L28.43,435.61 L29.05,431.89 L29.95,428.20 L31.14,424.54 L32.62,420.92 L34.39,417.37 L36.47,413.90 L38.86,410.51 L41.57,407.23 L315.17,99.43 L318.33,95.53 L321.06,91.41 L323.38,87.12 L325.27,82.68 L326.75,78.11 L327.80,73.46 L328.43,68.74 L328.64,64.00 L328.43,59.26 L327.80,54.54 L326.75,49.89 L325.27,45.32 L323.38,40.88 L321.06,36.59 L318.33,32.47 L315.17,28.57 L304.00,16.00 L485.84,220.57 L488.99,224.47 L491.73,228.59 L494.05,232.88 L495.94,237.32 L497.41,241.89 L498.47,246.54 L499.10,251.26 L499.31,256.00 L499.10,260.74 L498.47,265.46 L497.41,270.11 L495.94,274.68 L494.05,279.12 L491.73,283.42 L488.99,287.53 L485.84,291.43 L319.91,478.10 L315.92,482.14 L311.56,485.70 L306.87,488.77 L301.90,491.32 L296.69,493.34 L291.28,494.80 L285.72,495.70 L280.05,496.00 L81.43,496.00 Z" fill="#3b81f5" stroke="#1e1e1e" stroke-width="1" stroke-linejoin="round"/><path d="M81.43,496.00 L77.18,495.84 L73.06,495.38 L69.09,494.63 L65.25,493.60 L61.57,492.30 L58.04,490.76 L54.68,488.97 L51.49,486.97 L48.47,484.75 L45.64,482.34 L42.99,479.75 L40.53,476.98 L38.28,474.06 L36.23,471.00 L34.40,467.82 L32.78,464.51 L31.39,461.11 L30.22,457.62 L29.30,454.06 L28.61,450.43 L28.18,446.77 L28.00,443.06 L28.08,439.34 L28.43,435.61 L29.05,431.89 L29.95,428.20 L31.14,424.54 L32.62,420.92 L34.39,417.37 L36.47,413.90 L38.86,410.51 L41.57,407.23 L315.17,99.43 L318.33,95.53 L321.06,91.41 L323.38,87.12 L325.27,82.68 L326.75,78.11 L327.80,73.46 L328.43,68.74 L328.64,64.00 L328.43,59.26 L327.80,54.54 L326.75,49.89 L325.27,45.32 L323.38,40.88 L321.06,36.59 L318.33,32.47 L315.17,28.57 L304.00,16.00 L485.84,220.57 L488.99,224.47 L491.73,228.59 L494.05,232.88 L495.94,237.32 L497.41,241.89 L498.47,246.54 L499.10,251.26 L499.31,256.00 L499.10,260.74 L498.47,265.46 L497.41,270.11 L495.94,274.68 L494.05,279.12 L491.73,283.42 L488.99,287.53 L485.84,291.43 L319.91,478.10 L315.92,482.14 L311.56,485.70 L306.87,488.77 L301.90,491.32 L296.69,493.34 L291.28,494.80 L285.72,495.70 L280.05,496.00 L81.43,496.00 Z" fill="#245bd9" stroke="#1e1e1e" stroke-width="1" stroke-linejoin="round"/><path d="M204.59,496.00 L202.04,495.91 L199.57,495.63 L197.19,495.18 L194.89,494.56 L192.68,493.78 L190.56,492.85 L188.54,491.78 L186.63,490.58 L184.82,489.25 L183.12,487.80 L180.05,484.59 L177.47,481.00 L175.40,477.11 L173.87,472.97 L172.90,468.66 L172.53,464.24 L172.58,462.00 L172.79,459.77 L173.16,457.54 L173.70,455.32 L174.42,453.12 L175.30,450.95 L176.37,448.82 L177.62,446.74 L179.05,444.71 L180.68,442.74 L400.50,195.43 L403.66,191.53 L406.40,187.41 L408.71,183.12 L410.61,178.68 L412.08,174.11 L413.13,169.46 L413.77,164.74 L413.98,160.00 L413.77,155.26 L413.13,150.54 L412.08,145.89 L410.61,141.32 L408.71,136.88 L406.40,132.58 L403.66,128.47 L400.50,124.57 L378.67,100.00 L485.84,220.57 L488.99,224.47 L491.73,228.58 L494.05,232.88 L495.94,237.32 L497.41,241.89 L498.47,246.54 L499.10,251.26 L499.31,256.00 L499.10,260.74 L498.47,265.46 L497.41,270.11 L495.94,274.68 L494.05,279.12 L491.73,283.41 L489.00,287.53 L485.84,291.43 L319.91,478.10 L315.92,482.14 L311.56,485.70 L306.87,488.77 L301.90,491.32 L296.69,493.34 L291.28,494.80 L285.72,495.70 L280.05,496.00 L204.59,496.00 Z" fill="#61b8ff" stroke="#1e1e1e" stroke-width="1" stroke-linejoin="round"/></svg>