<svg xmlns="http://www.w3.org/2000/svg" viewBox="-0.58 -1.98 97.23 100.00"><path d="M17.00,59.71 L53.86,31.98 L54.52,31.53 L55.21,31.13 L55.93,30.79 L56.66,30.52 L57.40,30.31 L58.16,30.15 L58.93,30.06 L59.70,30.03 L60.47,30.06 L61.24,30.15 L62.00,30.30 L62.74,30.52 L63.48,30.79 L64.19,31.12 L64.88,31.52 L65.55,31.98 L90.76,50.89 L91.23,51.26 L91.67,51.66 L92.08,52.08 L92.46,52.51 L92.81,52.96 L93.13,53.43 L93.42,53.92 L93.68,54.41 L93.91,54.92 L94.10,55.43 L94.27,55.96 L94.41,56.49 L94.51,57.03 L94.59,57.57 L94.64,58.12 L94.65,58.66 L94.64,59.21 L94.59,59.75 L94.52,60.30 L94.41,60.84 L94.28,61.37 L94.11,61.89 L93.91,62.41 L93.68,62.92 L93.43,63.41 L93.14,63.90 L92.82,64.36 L92.47,64.82 L92.09,65.25 L91.68,65.67 L91.24,66.07 L90.77,66.44 L54.22,93.95 L53.52,94.44 L52.79,94.86 L52.03,95.21 L51.25,95.51 L50.46,95.73 L49.65,95.89 L48.84,95.99 L48.02,96.02 L47.21,95.99 L46.39,95.89 L45.59,95.73 L44.80,95.50 L44.02,95.21 L43.26,94.86 L42.53,94.44 L41.83,93.95 L17.00,75.26 L16.53,74.88 L16.09,74.48 L15.68,74.07 L15.30,73.63 L14.96,73.18 L14.64,72.71 L14.35,72.23 L14.09,71.73 L13.87,71.23 L13.67,70.71 L13.50,70.19 L13.37,69.65 L13.26,69.12 L13.18,68.57 L13.14,68.03 L13.12,67.48 L13.14,66.94 L13.18,66.39 L13.26,65.85 L13.37,65.31 L13.50,64.78 L13.67,64.26 L13.87,63.74 L14.09,63.23 L14.35,62.74 L14.64,62.26 L14.96,61.79 L15.31,61.34 L15.69,60.90 L16.09,60.48 L16.53,60.09 L17.00,59.71 Z" fill="#4c45cd" stroke="#1e1e1e" stroke-width="1" stroke-linejoin="round"/><path d="M17.00,59.71 L53.86,31.98 L54.52,31.53 L55.21,31.13 L55.93,30.79 L56.66,30.52 L57.40,30.31 L58.16,30.15 L58.93,30.06 L59.70,30.03 L60.47,30.06 L61.24,30.15 L62.00,30.30 L62.74,30.52 L63.48,30.79 L64.19,31.12 L64.88,31.52 L65.55,31.98 L90.76,50.89 L91.23,51.26 L91.67,51.66 L92.08,52.08 L92.46,52.51 L92.81,52.96 L93.13,53.43 L93.42,53.92 L93.68,54.41 L93.91,54.92 L94.10,55.43 L94.27,55.96 L94.41,56.49 L94.51,57.03 L94.59,57.57 L94.64,58.12 L94.65,58.66 L94.64,59.21 L94.59,59.75 L94.52,60.30 L94.41,60.84 L94.28,61.37 L94.11,61.89 L93.91,62.41 L93.68,62.92 L93.43,63.41 L93.14,63.90 L92.82,64.36 L92.47,64.82 L92.09,65.25 L91.68,65.67 L91.24,66.07 L90.77,66.44 L54.22,93.95 L53.52,94.44 L52.79,94.86 L52.03,95.21 L51.25,95.51 L50.46,95.73 L49.65,95.89 L48.84,95.99 L48.02,96.02 L47.21,95.99 L46.39,95.89 L45.59,95.73 L44.80,95.50 L44.02,95.21 L43.26,94.86 L42.53,94.44 L41.83,93.95 L17.00,75.26 L16.53,74.88 L16.09,74.48 L15.68,74.07 L15.30,73.63 L14.96,73.18 L14.64,72.71 L14.35,72.23 L14.09,71.73 L13.87,71.23 L13.67,70.71 L13.50,70.19 L13.37,69.65 L13.26,69.12 L13.18,68.57 L13.14,68.03 L13.12,67.48 L13.14,66.94 L13.18,66.39 L13.26,65.85 L13.37,65.31 L13.50,64.78 L13.67,64.26 L13.87,63.74 L14.09,63.23 L14.35,62.74 L14.64,62.26 L14.96,61.79 L15.31,61.34 L15.69,60.90 L16.09,60.48 L16.53,60.09 L17.00,59.71 Z" fill="#3e36b2" stroke="#1e1e1e" stroke-width="1" stroke-linejoin="round" opacity="0.5"/><path d="M16.93,59.70 L20.78,56.78 L62.18,87.97 L54.22,93.96 L53.52,94.44 L52.79,94.86 L52.03,95.22 L51.25,95.51 L50.46,95.73 L49.65,95.90 L48.84,95.99 L48.02,96.02 L47.21,95.99 L46.39,95.90 L45.59,95.73 L44.80,95.51 L44.02,95.21 L43.26,94.86 L42.53,94.44 L41.83,93.95 L16.96,75.23 L16.49,74.85 L16.05,74.45 L15.64,74.04 L15.26,73.60 L14.92,73.15 L14.60,72.69 L14.31,72.20 L14.05,71.71 L13.83,71.21 L13.63,70.69 L13.46,70.17 L13.33,69.64 L13.22,69.10 L13.14,68.56 L13.10,68.02 L13.08,67.47 L13.09,66.93 L13.14,66.38 L13.21,65.84 L13.32,65.30 L13.45,64.77 L13.62,64.25 L13.81,63.73 L14.04,63.23 L14.29,62.73 L14.58,62.25 L14.90,61.78 L15.24,61.33 L15.62,60.89 L16.03,60.48 L16.46,60.08 L16.93,59.70 Z" fill="#a3a3ff" stroke="#1e1e1e" stroke-width="1" stroke-linejoin="round" opacity="0.3"/><path d="M16.93,59.70 L20.78,56.78 L62.18,87.97 L54.22,93.96 L53.52,94.44 L52.79,94.86 L52.03,95.22 L51.25,95.51 L50.46,95.73 L49.65,95.90 L48.84,95.99 L48.02,96.02 L47.21,95.99 L46.39,95.90 L45.59,95.73 L44.80,95.51 L44.02,95.21 L43.26,94.86 L42.53,94.44 L41.83,93.95 L16.96,75.23 L16.49,74.85 L16.05,74.45 L15.64,74.04 L15.26,73.60 L14.92,73.15 L14.60,72.69 L14.31,72.20 L14.05,71.71 L13.83,71.21 L13.63,70.69 L13.46,70.17 L13.33,69.64 L13.22,69.10 L13.14,68.56 L13.10,68.02 L13.08,67.47 L13.09,66.93 L13.14,66.38 L13.21,65.84 L13.32,65.30 L13.45,64.77 L13.62,64.25 L13.81,63.73 L14.04,63.23 L14.29,62.73 L14.58,62.25 L14.90,61.78 L15.24,61.33 L15.62,60.89 L16.03,60.48 L16.46,60.08 L16.93,59.70 Z" fill="#5954e0" stroke="#1e1e1e" stroke-width="1" stroke-linejoin="round" opacity="0.5"/><path d="M5.30,29.61 L41.82,2.10 L42.53,1.61 L43.26,1.19 L44.02,0.84 L44.79,0.54 L45.59,0.32 L46.39,0.15 L47.21,0.06 L48.02,0.02 L48.84,0.06 L49.65,0.15 L50.46,0.32 L51.25,0.54 L52.03,0.83 L52.79,1.19 L53.52,1.61 L54.22,2.10 L79.05,20.79 L79.52,21.16 L79.96,21.56 L80.36,21.98 L80.74,22.41 L81.09,22.87 L81.41,23.34 L81.70,23.82 L81.95,24.31 L82.18,24.82 L82.38,25.34 L82.55,25.86 L82.68,26.39 L82.79,26.93 L82.86,27.47 L82.91,28.02 L82.92,28.56 L82.91,29.11 L82.86,29.65 L82.79,30.20 L82.68,30.73 L82.54,31.27 L82.38,31.79 L82.18,32.31 L81.95,32.81 L81.70,33.31 L81.41,33.79 L81.09,34.26 L80.74,34.71 L80.36,35.15 L79.95,35.56 L79.51,35.96 L79.04,36.34 L42.19,64.06 L41.53,64.52 L40.84,64.91 L40.12,65.25 L39.39,65.52 L38.64,65.74 L37.88,65.89 L37.12,65.98 L36.35,66.01 L35.58,65.98 L34.81,65.89 L34.05,65.74 L33.30,65.53 L32.57,65.25 L31.86,64.92 L31.16,64.52 L30.50,64.07 L5.31,45.16 L4.84,44.79 L4.40,44.39 L3.99,43.97 L3.61,43.54 L3.26,43.08 L2.94,42.62 L2.65,42.13 L2.40,41.64 L2.17,41.13 L1.97,40.62 L1.80,40.09 L1.67,39.56 L1.56,39.02 L1.48,38.48 L1.44,37.93 L1.42,37.39 L1.44,36.84 L1.48,36.30 L1.56,35.75 L1.66,35.22 L1.80,34.68 L1.97,34.16 L2.16,33.64 L2.39,33.13 L2.65,32.64 L2.93,32.16 L3.25,31.69 L3.60,31.24 L3.98,30.80 L4.39,30.38 L4.83,29.98 L5.30,29.61 Z" fill="#877cff" stroke="#1e1e1e" stroke-width="1" stroke-linejoin="round"/><path d="M5.30,29.61 L41.82,2.10 L42.53,1.61 L43.26,1.19 L44.02,0.84 L44.79,0.54 L45.59,0.32 L46.39,0.15 L47.21,0.06 L48.02,0.02 L48.84,0.06 L49.65,0.15 L50.46,0.32 L51.25,0.54 L52.03,0.83 L52.79,1.19 L53.52,1.61 L54.22,2.10 L79.05,20.79 L79.52,21.16 L79.96,21.56 L80.36,21.98 L80.74,22.41 L81.09,22.87 L81.41,23.34 L81.70,23.82 L81.95,24.31 L82.18,24.82 L82.38,25.34 L82.55,25.86 L82.68,26.39 L82.79,26.93 L82.86,27.47 L82.91,28.02 L82.92,28.56 L82.91,29.11 L82.86,29.65 L82.79,30.20 L82.68,30.73 L82.54,31.27 L82.38,31.79 L82.18,32.31 L81.95,32.81 L81.70,33.31 L81.41,33.79 L81.09,34.26 L80.74,34.71 L80.36,35.15 L79.95,35.56 L79.51,35.96 L79.04,36.34 L42.19,64.06 L41.53,64.52 L40.84,64.91 L40.12,65.25 L39.39,65.52 L38.64,65.74 L37.88,65.89 L37.12,65.98 L36.35,66.01 L35.58,65.98 L34.81,65.89 L34.05,65.74 L33.30,65.53 L32.57,65.25 L31.86,64.92 L31.16,64.52 L30.50,64.07 L5.31,45.16 L4.84,44.79 L4.40,44.39 L3.99,43.97 L3.61,43.54 L3.26,43.08 L2.94,42.62 L2.65,42.13 L2.40,41.64 L2.17,41.13 L1.97,40.62 L1.80,40.09 L1.67,39.56 L1.56,39.02 L1.48,38.48 L1.44,37.93 L1.42,37.39 L1.44,36.84 L1.48,36.30 L1.56,35.75 L1.66,35.22 L1.80,34.68 L1.97,34.16 L2.16,33.64 L2.39,33.13 L2.65,32.64 L2.93,32.16 L3.25,31.69 L3.60,31.24 L3.98,30.80 L4.39,30.38 L4.83,29.98 L5.30,29.61 Z" fill="#4b60d8" stroke="#1e1e1e" stroke-width="1" stroke-linejoin="round" opacity="0.5"/><path d="M5.30,29.61 L41.82,2.10 L42.53,1.61 L43.26,1.19 L44.02,0.84 L44.79,0.54 L45.59,0.32 L46.39,0.15 L47.21,0.06 L48.02,0.02 L48.84,0.06 L49.65,0.15 L50.46,0.32 L51.25,0.54 L52.03,0.83 L52.79,1.19 L53.52,1.61 L54.22,2.10 L79.05,20.79 L79.52,21.16 L79.96,21.56 L80.36,21.98 L80.74,22.41 L81.09,22.87 L81.41,23.34 L81.70,23.82 L81.95,24.31 L82.18,24.82 L82.38,25.34 L82.55,25.86 L82.68,26.39 L82.79,26.93 L82.86,27.47 L82.91,28.02 L82.92,28.56 L82.91,29.11 L82.86,29.65 L82.79,30.20 L82.68,30.73 L82.54,31.27 L82.38,31.79 L82.18,32.31 L81.95,32.81 L81.70,33.31 L81.41,33.79 L81.09,34.26 L80.74,34.71 L80.36,35.15 L79.95,35.56 L79.51,35.96 L79.04,36.34 L42.19,64.06 L41.53,64.52 L40.84,64.91 L40.12,65.25 L39.39,65.52 L38.64,65.74 L37.88,65.89 L37.12,65.98 L36.35,66.01 L35.58,65.98 L34.81,65.89 L34.05,65.74 L33.30,65.53 L32.57,65.25 L31.86,64.92 L31.16,64.52 L30.50,64.07 L5.31,45.16 L4.84,44.79 L4.40,44.39 L3.99,43.97 L3.61,43.54 L3.26,43.08 L2.94,42.62 L2.65,42.13 L2.40,41.64 L2.17,41.13 L1.97,40.62 L1.80,40.09 L1.67,39.56 L1.56,39.02 L1.48,38.48 L1.44,37.93 L1.42,37.39 L1.44,36.84 L1.48,36.30 L1.56,35.75 L1.66,35.22 L1.80,34.68 L1.97,34.16 L2.16,33.64 L2.39,33.13 L2.65,32.64 L2.93,32.16 L3.25,31.69 L3.60,31.24 L3.98,30.80 L4.39,30.38 L4.83,29.98 L5.30,29.61 Z" fill="#4e66e5" stroke="#1e1e1e" stroke-width="1" stroke-linejoin="round" opacity="0.5"/><path d="M33.92,8.13 L41.82,2.14 L42.52,1.65 L43.26,1.22 L44.01,0.86 L44.79,0.57 L45.59,0.34 L46.39,0.18 L47.21,0.08 L48.03,0.04 L48.85,0.07 L49.66,0.17 L50.47,0.33 L51.27,0.56 L52.05,0.85 L52.80,1.21 L53.54,1.63 L54.24,2.11 L79.09,20.82 L79.56,21.20 L80.00,21.59 L80.40,22.01 L80.78,22.44 L81.13,22.89 L81.45,23.36 L81.74,23.84 L81.99,24.34 L82.22,24.84 L82.42,25.36 L82.58,25.88 L82.72,26.41 L82.83,26.95 L82.90,27.49 L82.95,28.03 L82.97,28.58 L82.95,29.12 L82.91,29.66 L82.83,30.21 L82.73,30.74 L82.59,31.27 L82.43,31.80 L82.23,32.31 L82.01,32.82 L81.75,33.31 L81.47,33.80 L81.15,34.26 L80.80,34.72 L80.43,35.15 L80.02,35.57 L79.58,35.97 L79.12,36.34 L75.27,39.27 L33.92,8.13 Z" fill="#babaff" stroke="#1e1e1e" stroke-width="1" stroke-linejoin="round" opacity="0.3"/><path d="M33.92,8.13 L41.82,2.14 L42.52,1.65 L43.26,1.22 L44.01,0.86 L44.79,0.57 L45.59,0.34 L46.39,0.18 L47.21,0.08 L48.03,0.04 L48.85,0.07 L49.66,0.17 L50.47,0.33 L51.27,0.56 L52.05,0.85 L52.80,1.21 L53.54,1.63 L54.24,2.11 L79.09,20.82 L79.56,21.20 L80.00,21.59 L80.40,22.01 L80.78,22.44 L81.13,22.89 L81.45,23.36 L81.74,23.84 L81.99,24.34 L82.22,24.84 L82.42,25.36 L82.58,25.88 L82.72,26.41 L82.83,26.95 L82.90,27.49 L82.95,28.03 L82.97,28.58 L82.95,29.12 L82.91,29.66 L82.83,30.21 L82.73,30.74 L82.59,31.27 L82.43,31.80 L82.23,32.31 L82.01,32.82 L81.75,33.31 L81.47,33.80 L81.15,34.26 L80.80,34.72 L80.43,35.15 L80.02,35.57 L79.58,35.97 L79.12,36.34 L75.27,39.27 L33.92,8.13 Z" fill="#7370f0" stroke="#1e1e1e" stroke-width="1" stroke-linejoin="round" opacity="0.5"/><path d="M43.18,65.70 L82.06,49.99 L82.64,49.78 L83.22,49.61 L83.80,49.48 L84.39,49.39 L84.99,49.33 L85.58,49.31 L86.17,49.34 L86.76,49.39 L87.35,49.49 L87.93,49.62 L88.49,49.79 L89.05,50.00 L89.60,50.24 L90.13,50.52 L90.65,50.83 L91.15,51.18 L65.59,32.01 L64.89,31.52 L64.17,31.08 L63.42,30.69 L62.66,30.35 L61.87,30.06 L61.08,29.83 L60.27,29.64 L59.45,29.51 L58.62,29.43 L57.79,29.40 L56.96,29.42 L56.13,29.50 L55.30,29.63 L54.48,29.82 L53.67,30.06 L52.87,30.35 L13.98,46.05 L13.41,46.26 L12.83,46.43 L12.24,46.57 L11.65,46.66 L11.06,46.71 L10.47,46.73 L9.87,46.71 L9.28,46.65 L8.70,46.56 L8.12,46.43 L7.55,46.26 L6.99,46.05 L6.45,45.81 L5.91,45.53 L5.40,45.22 L4.90,44.87 L30.46,64.04 L31.16,64.53 L31.88,64.97 L32.62,65.35 L33.39,65.69 L34.17,65.98 L34.97,66.22 L35.78,66.40 L36.60,66.54 L37.42,66.62 L38.25,66.65 L39.08,66.62 L39.92,66.55 L40.74,66.41 L41.56,66.23 L42.38,65.99 L43.18,65.70 Z" fill="#9a9aff" stroke="#1e1e1e" stroke-width="1" stroke-linejoin="round"/></svg>