<svg xmlns="http://www.w3.org/2000/svg" viewBox="3.60 1.20 98.26 100.00"><path d="M56.01,3.20 L57.14,3.26 L58.26,3.44 L59.34,3.73 L60.38,4.14 L61.37,4.65 L62.31,5.26 L63.18,5.97 L63.98,6.78 L88.17,33.99 L88.76,34.71 L89.29,35.44 L89.76,36.20 L90.17,36.98 L90.52,37.77 L90.81,38.58 L91.04,39.39 L91.22,40.21 L91.34,41.04 L91.40,41.87 L91.41,42.70 L91.37,43.52 L91.27,44.34 L91.13,45.14 L90.93,45.94 L90.68,46.72 L90.39,47.49 L90.04,48.23 L89.65,48.96 L89.22,49.66 L88.74,50.33 L88.22,50.97 L87.65,51.57 L87.04,52.14 L86.39,52.68 L85.70,53.17 L84.97,53.62 L84.21,54.02 L83.40,54.37 L82.56,54.67 L81.68,54.92 L80.77,55.11 L22.93,65.07 L30.19,56.87 L30.69,56.24 L31.12,55.58 L31.49,54.90 L31.79,54.19 L32.03,53.46 L32.20,52.71 L32.30,51.96 L32.33,51.20 L32.29,50.45 L32.19,49.69 L32.02,48.95 L31.79,48.22 L31.48,47.51 L31.11,46.82 L30.68,46.17 L30.17,45.54 L8.31,20.95 L7.77,20.30 L7.29,19.62 L6.88,18.93 L6.52,18.22 L6.23,17.49 L5.99,16.76 L5.81,16.02 L5.69,15.28 L5.62,14.53 L5.60,13.79 L5.64,13.05 L5.72,12.31 L5.86,11.59 L6.04,10.88 L6.28,10.18 L6.56,9.50 L6.88,8.84 L7.25,8.20 L7.66,7.59 L8.11,7.00 L8.60,6.45 L9.13,5.93 L9.69,5.45 L10.30,5.01 L10.94,4.61 L11.61,4.25 L12.31,3.94 L13.05,3.68 L13.82,3.47 L14.61,3.32 L15.44,3.23 L16.29,3.20 L56.01,3.20 Z" fill="#1f4ec2" stroke="#1e1e1e" stroke-width="1" stroke-linejoin="round"/><path d="M16.29,99.20 L15.44,99.17 L14.61,99.08 L13.82,98.93 L13.05,98.72 L12.31,98.46 L11.61,98.15 L10.94,97.79 L10.30,97.39 L9.69,96.95 L9.13,96.47 L8.60,95.95 L8.11,95.40 L7.66,94.81 L7.25,94.20 L6.88,93.56 L6.56,92.90 L6.28,92.22 L6.04,91.52 L5.86,90.81 L5.72,90.09 L5.64,89.35 L5.60,88.61 L5.62,87.87 L5.69,87.12 L5.81,86.38 L5.99,85.64 L6.23,84.91 L6.52,84.18 L6.88,83.47 L7.29,82.78 L7.77,82.10 L8.31,81.45 L63.03,19.89 L63.67,19.11 L64.21,18.28 L64.68,17.42 L65.05,16.54 L65.35,15.62 L65.56,14.69 L65.69,13.75 L65.73,12.80 L65.69,11.85 L65.56,10.91 L65.35,9.98 L65.05,9.06 L64.68,8.18 L64.21,7.32 L63.67,6.49 L63.03,5.71 L60.80,3.20 L97.17,44.11 L97.80,44.89 L98.35,45.72 L98.81,46.58 L99.19,47.46 L99.48,48.38 L99.69,49.31 L99.82,50.25 L99.86,51.20 L99.82,52.15 L99.69,53.09 L99.48,54.02 L99.19,54.94 L98.81,55.82 L98.35,56.68 L97.80,57.51 L97.17,58.29 L63.98,95.62 L63.18,96.43 L62.31,97.14 L61.37,97.75 L60.38,98.26 L59.34,98.67 L58.26,98.96 L57.14,99.14 L56.01,99.20 L16.29,99.20 Z" fill="#3b81f5" stroke="#1e1e1e" stroke-width="1" stroke-linejoin="round"/><path d="M16.29,99.20 L15.44,99.17 L14.61,99.08 L13.82,98.93 L13.05,98.72 L12.31,98.46 L11.61,98.15 L10.94,97.79 L10.30,97.39 L9.69,96.95 L9.13,96.47 L8.60,95.95 L8.11,95.40 L7.66,94.81 L7.25,94.20 L6.88,93.56 L6.56,92.90 L6.28,92.22 L6.04,91.52 L5.86,90.81 L5.72,90.09 L5.64,89.35 L5.60,88.61 L5.62,87.87 L5.69,87.12 L5.81,86.38 L5.99,85.64 L6.23,84.91 L6.52,84.18 L6.88,83.47 L7.29,82.78 L7.77,82.10 L8.31,81.45 L63.03,19.89 L63.67,19.11 L64.21,18.28 L64.68,17.42 L65.05,16.54 L65.35,15.62 L65.56,14.69 L65.69,13.75 L65.73,12.80 L65.69,11.85 L65.56,10.91 L65.35,9.98 L65.05,9.06 L64.68,8.18 L64.21,7.32 L63.67,6.49 L63.03,5.71 L60.80,3.20 L97.17,44.11 L97.80,44.89 L98.35,45.72 L98.81,46.58 L99.19,47.46 L99.48,48.38 L99.69,49.31 L99.82,50.25 L99.86,51.20 L99.82,52.15 L99.69,53.09 L99.48,54.02 L99.19,54.94 L98.81,55.82 L98.35,56.68 L97.80,57.51 L97.17,58.29 L63.98,95.62 L63.18,96.43 L62.31,97.14 L61.37,97.75 L60.38,98.26 L59.34,98.67 L58.26,98.96 L57.14,99.14 L56.01,99.20 L16.29,99.20 Z" fill="#245bd9" stroke="#1e1e1e" stroke-width="1" stroke-linejoin="round" opacity="0.5"/><path d="M40.92,99.20 L40.41,99.18 L39.91,99.13 L39.44,99.04 L38.98,98.91 L38.54,98.76 L38.11,98.57 L37.71,98.36 L37.33,98.12 L36.96,97.85 L36.62,97.56 L36.01,96.92 L35.49,96.20 L35.08,95.42 L34.77,94.59 L34.58,93.73 L34.51,92.85 L34.52,92.40 L34.56,91.95 L34.63,91.51 L34.74,91.06 L34.88,90.62 L35.06,90.19 L35.27,89.76 L35.52,89.35 L35.81,88.94 L36.14,88.55 L80.10,39.09 L80.73,38.31 L81.28,37.48 L81.74,36.62 L82.12,35.74 L82.42,34.82 L82.63,33.89 L82.75,32.95 L82.80,32.00 L82.75,31.05 L82.63,30.11 L82.42,29.18 L82.12,28.26 L81.74,27.38 L81.28,26.52 L80.73,25.69 L80.10,24.91 L75.73,20.00 L97.17,44.11 L97.80,44.89 L98.35,45.72 L98.81,46.58 L99.19,47.46 L99.48,48.38 L99.69,49.31 L99.82,50.25 L99.86,51.20 L99.82,52.15 L99.69,53.09 L99.48,54.02 L99.19,54.94 L98.81,55.82 L98.35,56.68 L97.80,57.51 L97.17,58.29 L63.98,95.62 L63.18,96.43 L62.31,97.14 L61.37,97.75 L60.38,98.26 L59.34,98.67 L58.26,98.96 L57.14,99.14 L56.01,99.20 L40.92,99.20 Z" fill="#61b8ff" stroke="#1e1e1e" stroke-width="1" stroke-linejoin="round"/></svg>