<svg xmlns="http://www.w3.org/2000/svg" viewBox="-0.53 12.50 513.86 487.01"><path d="M235.49,52.12 L335.60,227.30 L337.39,230.68 L338.94,234.15 L340.25,237.68 L341.32,241.27 L342.15,244.91 L342.75,248.59 L343.10,252.29 L343.22,256.00 L343.10,259.71 L342.75,263.41 L342.15,267.09 L341.32,270.73 L340.25,274.32 L338.94,277.85 L337.39,281.32 L335.60,284.70 L235.49,459.88 L232.68,464.44 L229.63,468.70 L226.35,472.67 L222.87,476.34 L219.19,479.72 L215.34,482.81 L211.33,485.60 L207.17,488.10 L202.89,490.30 L198.49,492.21 L194.00,493.83 L189.43,495.15 L184.80,496.18 L180.11,496.92 L175.40,497.36 L170.67,497.50 L165.93,497.36 L161.22,496.92 L156.54,496.18 L151.90,495.15 L147.33,493.83 L142.84,492.21 L138.44,490.30 L134.16,488.10 L130.00,485.60 L125.99,482.81 L122.14,479.72 L118.46,476.34 L114.98,472.67 L111.70,468.70 L108.65,464.44 L105.84,459.88 L12.01,295.69 L9.54,291.02 L7.40,286.23 L5.59,281.34 L4.11,276.37 L2.96,271.34 L2.13,266.25 L1.64,261.13 L1.47,256.00 L1.64,250.87 L2.13,245.75 L2.96,240.66 L4.11,235.63 L5.59,230.66 L7.40,225.77 L9.54,220.98 L12.01,216.31 L105.84,52.12 L108.65,47.56 L111.70,43.30 L114.98,39.33 L118.46,35.66 L122.14,32.28 L125.99,29.19 L130.00,26.40 L134.16,23.90 L138.44,21.70 L142.84,19.79 L147.33,18.17 L151.90,16.85 L156.54,15.82 L161.22,15.08 L165.93,14.64 L170.67,14.50 L175.40,14.64 L180.11,15.08 L184.80,15.82 L189.43,16.85 L194.00,18.17 L198.49,19.79 L202.89,21.70 L207.17,23.90 L211.33,26.40 L215.34,29.19 L219.19,32.28 L222.87,35.66 L226.35,39.33 L229.63,43.30 L232.68,47.56 L235.49,52.12 Z" fill="#631965" stroke="#1e1e1e" stroke-width="1" stroke-linejoin="round"/><path d="M235.49,52.12 L335.60,227.30 L337.39,230.68 L338.94,234.15 L340.25,237.68 L341.32,241.27 L342.15,244.91 L342.75,248.59 L343.10,252.29 L343.22,256.00 L343.10,259.71 L342.75,263.41 L342.15,267.09 L341.32,270.73 L340.25,274.32 L338.94,277.85 L337.39,281.32 L335.60,284.70 L235.49,459.88 L232.68,464.44 L229.63,468.70 L226.35,472.67 L222.87,476.34 L219.19,479.72 L215.34,482.81 L211.33,485.60 L207.17,488.10 L202.89,490.30 L198.49,492.21 L194.00,493.83 L189.43,495.15 L184.80,496.18 L180.11,496.92 L175.40,497.36 L170.67,497.50 L165.93,497.36 L161.22,496.92 L156.54,496.18 L151.90,495.15 L147.33,493.83 L142.84,492.21 L138.44,490.30 L134.16,488.10 L130.00,485.60 L125.99,482.81 L122.14,479.72 L118.46,476.34 L114.98,472.67 L111.70,468.70 L108.65,464.44 L105.84,459.88 L12.01,295.69 L9.54,291.02 L7.40,286.23 L5.59,281.34 L4.11,276.37 L2.96,271.34 L2.13,266.25 L1.64,261.13 L1.47,256.00 L1.64,250.87 L2.13,245.75 L2.96,240.66 L4.11,235.63 L5.59,230.66 L7.40,225.77 L9.54,220.98 L12.01,216.31 L105.84,52.12 L108.65,47.56 L111.70,43.30 L114.98,39.33 L118.46,35.66 L122.14,32.28 L125.99,29.19 L130.00,26.40 L134.16,23.90 L138.44,21.70 L142.84,19.79 L147.33,18.17 L151.90,16.85 L156.54,15.82 L161.22,15.08 L165.93,14.64 L170.67,14.50 L175.40,14.64 L180.11,15.08 L184.80,15.82 L189.43,16.85 L194.00,18.17 L198.49,19.79 L202.89,21.70 L207.17,23.90 L211.33,26.40 L215.34,29.19 L219.19,32.28 L222.87,35.66 L226.35,39.33 L229.63,43.30 L232.68,47.56 L235.49,52.12 Z" fill="#4c1e4c" stroke="#1e1e1e" stroke-width="1" stroke-linejoin="round" opacity="0"/><path d="M352.00,256.00 L235.49,459.88 L232.68,464.44 L229.63,468.70 L226.35,472.67 L222.87,476.34 L219.19,479.72 L215.34,482.81 L211.33,485.60 L207.17,488.10 L202.89,490.30 L198.49,492.21 L194.00,493.83 L189.43,495.15 L184.80,496.18 L180.11,496.92 L175.40,497.36 L170.67,497.50 L165.93,497.36 L161.22,496.92 L156.54,496.18 L151.90,495.15 L147.33,493.83 L142.84,492.21 L138.44,490.30 L134.16,488.10 L130.00,485.60 L125.99,482.81 L122.14,479.72 L118.46,476.34 L114.98,472.67 L111.70,468.70 L108.65,464.44 L105.84,459.88 L10.67,293.33 L13.44,297.83 L16.46,302.04 L19.69,305.96 L23.13,309.58 L26.76,312.92 L30.56,315.97 L34.52,318.72 L38.62,321.19 L42.85,323.37 L47.19,325.25 L51.63,326.85 L56.14,328.15 L60.72,329.17 L65.34,329.89 L70.00,330.33 L74.67,330.47 L79.34,330.33 L83.99,329.89 L88.62,329.17 L93.19,328.15 L97.70,326.85 L102.14,325.25 L106.48,323.37 L110.71,321.19 L114.81,318.72 L118.77,315.97 L122.57,312.92 L126.20,309.58 L129.64,305.96 L132.88,302.04 L135.89,297.83 L138.67,293.33 L256.00,88.00 L352.00,256.00 Z" fill="#8e2d88" stroke="#1e1e1e" stroke-width="1" stroke-linejoin="round"/><path d="M352.00,256.00 L235.49,459.88 L232.68,464.44 L229.63,468.70 L226.35,472.67 L222.87,476.34 L219.19,479.72 L215.34,482.81 L211.33,485.60 L207.17,488.10 L202.89,490.30 L198.49,492.21 L194.00,493.83 L189.43,495.15 L184.80,496.18 L180.11,496.92 L175.40,497.36 L170.67,497.50 L165.93,497.36 L161.22,496.92 L156.54,496.18 L151.90,495.15 L147.33,493.83 L142.84,492.21 L138.44,490.30 L134.16,488.10 L130.00,485.60 L125.99,482.81 L122.14,479.72 L118.46,476.34 L114.98,472.67 L111.70,468.70 L108.65,464.44 L105.84,459.88 L10.67,293.33 L13.44,297.83 L16.46,302.04 L19.69,305.96 L23.13,309.58 L26.76,312.92 L30.56,315.97 L34.52,318.72 L38.62,321.19 L42.85,323.37 L47.19,325.25 L51.63,326.85 L56.14,328.15 L60.72,329.17 L65.34,329.89 L70.00,330.33 L74.67,330.47 L79.34,330.33 L83.99,329.89 L88.62,329.17 L93.19,328.15 L97.70,326.85 L102.14,325.25 L106.48,323.37 L110.71,321.19 L114.81,318.72 L118.77,315.97 L122.57,312.92 L126.20,309.58 L129.64,305.96 L132.88,302.04 L135.89,297.83 L138.67,293.33 L256.00,88.00 L352.00,256.00 Z" fill="#631965" stroke="#1e1e1e" stroke-width="1" stroke-linejoin="round" opacity="0.5"/><path d="M293.04,152.83 L437.33,405.33 L498.07,299.04 L500.75,293.97 L503.07,288.78 L505.04,283.48 L506.64,278.09 L507.89,272.63 L508.79,267.12 L509.32,261.57 L509.50,256.00 L509.32,250.43 L508.79,244.88 L507.89,239.37 L506.64,233.91 L505.04,228.52 L503.07,223.22 L500.75,218.03 L498.07,212.96 L406.16,52.12 L403.35,47.56 L400.30,43.30 L397.02,39.33 L393.54,35.66 L389.86,32.28 L386.01,29.19 L382.00,26.40 L377.84,23.90 L373.56,21.70 L369.16,19.79 L364.67,18.17 L360.10,16.85 L355.46,15.82 L350.78,15.08 L346.06,14.64 L341.33,14.50 L336.60,14.64 L331.89,15.08 L327.20,15.82 L322.57,16.85 L318.00,18.17 L313.50,19.79 L309.11,21.70 L304.82,23.90 L300.67,26.40 L296.66,29.19 L292.81,32.28 L289.13,35.66 L285.65,39.33 L282.37,43.30 L279.32,47.56 L276.50,52.12 L218.95,152.83 L220.56,150.23 L222.31,147.79 L224.18,145.52 L226.17,143.42 L228.27,141.49 L230.47,139.73 L232.76,138.13 L235.14,136.71 L237.59,135.45 L240.10,134.35 L242.66,133.43 L245.28,132.67 L247.92,132.09 L250.60,131.67 L253.30,131.41 L256.00,131.33 L258.70,131.41 L261.40,131.67 L264.07,132.09 L266.72,132.67 L269.33,133.43 L271.90,134.35 L274.41,135.45 L276.86,136.71 L279.24,138.13 L281.53,139.73 L283.73,141.49 L285.83,143.42 L287.82,145.52 L289.69,147.79 L291.44,150.23 L293.04,152.83 Z" fill="#d05fb6" stroke="#1e1e1e" stroke-width="1" stroke-linejoin="round"/><path d="M293.04,152.83 L437.33,405.33 L498.07,299.04 L500.75,293.97 L503.07,288.78 L505.04,283.48 L506.64,278.09 L507.89,272.63 L508.79,267.12 L509.32,261.57 L509.50,256.00 L509.32,250.43 L508.79,244.88 L507.89,239.37 L506.64,233.91 L505.04,228.52 L503.07,223.22 L500.75,218.03 L498.07,212.96 L406.16,52.12 L403.35,47.56 L400.30,43.30 L397.02,39.33 L393.54,35.66 L389.86,32.28 L386.01,29.19 L382.00,26.40 L377.84,23.90 L373.56,21.70 L369.16,19.79 L364.67,18.17 L360.10,16.85 L355.46,15.82 L350.78,15.08 L346.06,14.64 L341.33,14.50 L336.60,14.64 L331.89,15.08 L327.20,15.82 L322.57,16.85 L318.00,18.17 L313.50,19.79 L309.11,21.70 L304.82,23.90 L300.67,26.40 L296.66,29.19 L292.81,32.28 L289.13,35.66 L285.65,39.33 L282.37,43.30 L279.32,47.56 L276.50,52.12 L218.95,152.83 L220.56,150.23 L222.31,147.79 L224.18,145.52 L226.17,143.42 L228.27,141.49 L230.47,139.73 L232.76,138.13 L235.14,136.71 L237.59,135.45 L240.10,134.35 L242.66,133.43 L245.28,132.67 L247.92,132.09 L250.60,131.67 L253.30,131.41 L256.00,131.33 L258.70,131.41 L261.40,131.67 L264.07,132.09 L266.72,132.67 L269.33,133.43 L271.90,134.35 L274.41,135.45 L276.86,136.71 L279.24,138.13 L281.53,139.73 L283.73,141.49 L285.83,143.42 L287.82,145.52 L289.69,147.79 L291.44,150.23 L293.04,152.83 Z" fill="#d060b6" stroke="#1e1e1e" stroke-width="1" stroke-linejoin="round" opacity="0.5"/><path d="M425.24,127.84 L256.00,424.00 L276.50,459.88 L279.32,464.44 L282.37,468.70 L285.65,472.67 L289.13,476.34 L292.81,479.72 L296.66,482.81 L300.67,485.60 L304.82,488.10 L309.11,490.30 L313.50,492.21 L318.00,493.83 L322.57,495.15 L327.20,496.18 L331.89,496.92 L336.60,497.36 L341.33,497.50 L346.06,497.36 L350.78,496.92 L355.46,496.18 L360.10,495.15 L364.67,493.83 L369.16,492.21 L373.56,490.30 L377.84,488.10 L382.00,485.60 L386.01,482.81 L389.86,479.72 L393.54,476.34 L397.02,472.67 L400.30,468.70 L403.35,464.44 L406.16,459.88 L501.50,293.04 L503.80,288.68 L505.80,284.21 L507.49,279.65 L508.88,275.01 L509.95,270.31 L510.72,265.57 L511.18,260.79 L511.34,256.00 L511.18,251.21 L510.72,246.43 L509.95,241.69 L508.88,236.99 L507.49,232.35 L505.80,227.79 L503.80,223.32 L501.50,218.96 L425.24,85.50 L426.55,87.99 L427.70,90.55 L428.66,93.15 L429.45,95.80 L430.07,98.49 L430.51,101.20 L430.77,103.93 L430.86,106.67 L430.77,109.40 L430.51,112.13 L430.07,114.85 L429.45,117.53 L428.66,120.18 L427.70,122.79 L426.55,125.34 L425.24,127.84 Z" fill="#eea8d4" stroke="#1e1e1e" stroke-width="1" stroke-linejoin="round"/><path d="M276.50,459.88 L256.00,424.00 L352.00,256.00 L437.33,405.33 L406.16,459.88 L403.35,464.44 L400.30,468.70 L397.02,472.67 L393.54,476.34 L389.86,479.72 L386.01,482.81 L382.00,485.60 L377.84,488.10 L373.56,490.30 L369.16,492.21 L364.67,493.83 L360.10,495.15 L355.46,496.18 L350.78,496.92 L346.06,497.36 L341.33,497.50 L336.60,497.36 L331.89,496.92 L327.20,496.18 L322.57,495.15 L318.00,493.83 L313.50,492.21 L309.11,490.30 L304.82,488.10 L300.67,485.60 L296.66,482.81 L292.81,479.72 L289.13,476.34 L285.65,472.67 L282.37,468.70 L279.32,464.44 L276.50,459.88 Z" fill="#d871bd" stroke="#1e1e1e" stroke-width="1" stroke-linejoin="round" opacity="0.37"/></svg>