<svg xmlns="http://www.w3.org/2000/svg" viewBox="5.58 -1.87 500.99 515.75"><path d="M90.64,318.30 L287.11,170.50 L290.64,168.06 L294.32,165.95 L298.12,164.16 L302.03,162.69 L306.01,161.55 L310.06,160.74 L314.14,160.25 L318.25,160.08 L322.36,160.24 L326.44,160.73 L330.49,161.54 L334.48,162.67 L338.38,164.13 L342.18,165.91 L345.87,168.02 L349.41,170.46 L483.82,271.27 L486.33,273.27 L488.68,275.38 L490.87,277.61 L492.89,279.93 L494.76,282.34 L496.46,284.84 L498.00,287.41 L499.37,290.05 L500.59,292.75 L501.64,295.50 L502.54,298.30 L503.27,301.14 L503.84,304.01 L504.24,306.90 L504.49,309.80 L504.57,312.72 L504.49,315.63 L504.25,318.54 L503.85,321.43 L503.29,324.30 L502.56,327.14 L501.67,329.94 L500.62,332.69 L499.41,335.39 L498.04,338.04 L496.50,340.61 L494.81,343.11 L492.95,345.52 L490.93,347.85 L488.74,350.07 L486.40,352.19 L483.89,354.20 L289.04,500.84 L285.29,503.42 L281.39,505.67 L277.35,507.56 L273.21,509.12 L268.99,510.32 L264.69,511.19 L260.36,511.70 L256.00,511.88 L251.65,511.70 L247.31,511.18 L243.02,510.32 L238.79,509.11 L234.65,507.56 L230.62,505.66 L226.72,503.42 L222.97,500.83 L90.63,401.18 L88.12,399.18 L85.78,397.06 L83.60,394.83 L81.58,392.51 L79.72,390.10 L78.03,387.60 L76.49,385.03 L75.12,382.39 L73.91,379.69 L72.86,376.94 L71.97,374.14 L71.25,371.31 L70.68,368.44 L70.28,365.55 L70.04,362.65 L69.96,359.74 L70.04,356.83 L70.28,353.92 L70.69,351.03 L71.25,348.17 L71.98,345.33 L72.87,342.54 L73.92,339.78 L75.13,337.08 L76.51,334.45 L78.04,331.87 L79.74,329.38 L81.60,326.97 L83.61,324.65 L85.80,322.42 L88.14,320.31 L90.64,318.30 Z" fill="#4c45cd" stroke="#1e1e1e" stroke-width="1" stroke-linejoin="round"/><path d="M90.64,318.30 L287.11,170.50 L290.64,168.06 L294.32,165.95 L298.12,164.16 L302.03,162.69 L306.01,161.55 L310.06,160.74 L314.14,160.25 L318.25,160.08 L322.36,160.24 L326.44,160.73 L330.49,161.54 L334.48,162.67 L338.38,164.13 L342.18,165.91 L345.87,168.02 L349.41,170.46 L483.82,271.27 L486.33,273.27 L488.68,275.38 L490.87,277.61 L492.89,279.93 L494.76,282.34 L496.46,284.84 L498.00,287.41 L499.37,290.05 L500.59,292.75 L501.64,295.50 L502.54,298.30 L503.27,301.14 L503.84,304.01 L504.24,306.90 L504.49,309.80 L504.57,312.72 L504.49,315.63 L504.25,318.54 L503.85,321.43 L503.29,324.30 L502.56,327.14 L501.67,329.94 L500.62,332.69 L499.41,335.39 L498.04,338.04 L496.50,340.61 L494.81,343.11 L492.95,345.52 L490.93,347.85 L488.74,350.07 L486.40,352.19 L483.89,354.20 L289.04,500.84 L285.29,503.42 L281.39,505.67 L277.35,507.56 L273.21,509.12 L268.99,510.32 L264.69,511.19 L260.36,511.70 L256.00,511.88 L251.65,511.70 L247.31,511.18 L243.02,510.32 L238.79,509.11 L234.65,507.56 L230.62,505.66 L226.72,503.42 L222.97,500.83 L90.63,401.18 L88.12,399.18 L85.78,397.06 L83.60,394.83 L81.58,392.51 L79.72,390.10 L78.03,387.60 L76.49,385.03 L75.12,382.39 L73.91,379.69 L72.86,376.94 L71.97,374.14 L71.25,371.31 L70.68,368.44 L70.28,365.55 L70.04,362.65 L69.96,359.74 L70.04,356.83 L70.28,353.92 L70.69,351.03 L71.25,348.17 L71.98,345.33 L72.87,342.54 L73.92,339.78 L75.13,337.08 L76.51,334.45 L78.04,331.87 L79.74,329.38 L81.60,326.97 L83.61,324.65 L85.80,322.42 L88.14,320.31 L90.64,318.30 Z" fill="#3e36b2" stroke="#1e1e1e" stroke-width="1" stroke-linejoin="round" opacity="0.5"/><path d="M90.25,318.25 L110.78,302.68 L331.46,468.96 L289.04,500.86 L285.29,503.44 L281.38,505.68 L277.35,507.58 L273.21,509.13 L268.99,510.34 L264.70,511.20 L260.36,511.71 L256.01,511.89 L251.65,511.71 L247.32,511.19 L243.03,510.33 L238.80,509.12 L234.66,507.57 L230.63,505.67 L226.73,503.43 L222.98,500.84 L90.40,401.01 L87.90,399.01 L85.56,396.90 L83.39,394.68 L81.37,392.36 L79.52,389.96 L77.82,387.47 L76.29,384.90 L74.92,382.27 L73.71,379.58 L72.65,376.83 L71.76,374.04 L71.04,371.21 L70.47,368.35 L70.06,365.47 L69.81,362.57 L69.73,359.67 L69.80,356.76 L70.04,353.87 L70.44,350.98 L70.99,348.12 L71.71,345.29 L72.59,342.50 L73.63,339.75 L74.83,337.05 L76.20,334.41 L77.72,331.84 L79.41,329.35 L81.25,326.93 L83.26,324.61 L85.43,322.38 L87.76,320.26 L90.25,318.25 Z" fill="#a3a3ff" stroke="#1e1e1e" stroke-width="1" stroke-linejoin="round" opacity="0.3"/><path d="M90.25,318.25 L110.78,302.68 L331.46,468.96 L289.04,500.86 L285.29,503.44 L281.38,505.68 L277.35,507.58 L273.21,509.13 L268.99,510.34 L264.70,511.20 L260.36,511.71 L256.01,511.89 L251.65,511.71 L247.32,511.19 L243.03,510.33 L238.80,509.12 L234.66,507.57 L230.63,505.67 L226.73,503.43 L222.98,500.84 L90.40,401.01 L87.90,399.01 L85.56,396.90 L83.39,394.68 L81.37,392.36 L79.52,389.96 L77.82,387.47 L76.29,384.90 L74.92,382.27 L73.71,379.58 L72.65,376.83 L71.76,374.04 L71.04,371.21 L70.47,368.35 L70.06,365.47 L69.81,362.57 L69.73,359.67 L69.80,356.76 L70.04,353.87 L70.44,350.98 L70.99,348.12 L71.71,345.29 L72.59,342.50 L73.63,339.75 L74.83,337.05 L76.20,334.41 L77.72,331.84 L79.41,329.35 L81.25,326.93 L83.26,324.61 L85.43,322.38 L87.76,320.26 L90.25,318.25 Z" fill="#5954e0" stroke="#1e1e1e" stroke-width="1" stroke-linejoin="round" opacity="0.5"/><path d="M28.25,157.83 L222.96,11.19 L226.71,8.60 L230.61,6.35 L234.64,4.45 L238.79,2.90 L243.01,1.69 L247.31,0.82 L251.64,0.31 L256.00,0.13 L260.36,0.31 L264.70,0.82 L268.99,1.69 L273.22,2.89 L277.36,4.45 L281.39,6.35 L285.30,8.59 L289.05,11.18 L421.38,110.82 L423.88,112.82 L426.22,114.94 L428.40,117.16 L430.42,119.49 L432.28,121.90 L433.97,124.40 L435.51,126.97 L436.88,129.61 L438.09,132.31 L439.14,135.06 L440.03,137.86 L440.75,140.69 L441.32,143.56 L441.72,146.45 L441.96,149.35 L442.04,152.26 L441.96,155.17 L441.72,158.08 L441.31,160.96 L440.75,163.83 L440.02,166.67 L439.13,169.46 L438.08,172.22 L436.87,174.92 L435.50,177.55 L433.96,180.12 L432.26,182.62 L430.41,185.03 L428.39,187.35 L426.20,189.58 L423.86,191.69 L421.36,193.70 L224.91,341.49 L221.37,343.93 L217.69,346.04 L213.89,347.83 L209.98,349.30 L206.00,350.44 L201.95,351.25 L197.86,351.74 L193.75,351.91 L189.65,351.75 L185.56,351.26 L181.51,350.45 L177.52,349.32 L173.62,347.85 L169.81,346.07 L166.13,343.96 L162.59,341.52 L28.31,240.74 L25.81,238.74 L23.46,236.62 L21.28,234.40 L19.25,232.08 L17.39,229.67 L15.69,227.17 L14.15,224.60 L12.78,221.96 L11.56,219.26 L10.51,216.51 L9.62,213.71 L8.89,210.88 L8.32,208.01 L7.91,205.12 L7.67,202.22 L7.58,199.30 L7.66,196.39 L7.90,193.49 L8.30,190.60 L8.87,187.73 L9.59,184.89 L10.48,182.09 L11.53,179.34 L12.74,176.63 L14.11,173.99 L15.64,171.42 L17.34,168.92 L19.20,166.51 L21.22,164.18 L23.40,161.96 L25.74,159.84 L28.25,157.83 Z" fill="#877cff" stroke="#1e1e1e" stroke-width="1" stroke-linejoin="round"/><path d="M28.25,157.83 L222.96,11.19 L226.71,8.60 L230.61,6.35 L234.64,4.45 L238.79,2.90 L243.01,1.69 L247.31,0.82 L251.64,0.31 L256.00,0.13 L260.36,0.31 L264.70,0.82 L268.99,1.69 L273.22,2.89 L277.36,4.45 L281.39,6.35 L285.30,8.59 L289.05,11.18 L421.38,110.82 L423.88,112.82 L426.22,114.94 L428.40,117.16 L430.42,119.49 L432.28,121.90 L433.97,124.40 L435.51,126.97 L436.88,129.61 L438.09,132.31 L439.14,135.06 L440.03,137.86 L440.75,140.69 L441.32,143.56 L441.72,146.45 L441.96,149.35 L442.04,152.26 L441.96,155.17 L441.72,158.08 L441.31,160.96 L440.75,163.83 L440.02,166.67 L439.13,169.46 L438.08,172.22 L436.87,174.92 L435.50,177.55 L433.96,180.12 L432.26,182.62 L430.41,185.03 L428.39,187.35 L426.20,189.58 L423.86,191.69 L421.36,193.70 L224.91,341.49 L221.37,343.93 L217.69,346.04 L213.89,347.83 L209.98,349.30 L206.00,350.44 L201.95,351.25 L197.86,351.74 L193.75,351.91 L189.65,351.75 L185.56,351.26 L181.51,350.45 L177.52,349.32 L173.62,347.85 L169.81,346.07 L166.13,343.96 L162.59,341.52 L28.31,240.74 L25.81,238.74 L23.46,236.62 L21.28,234.40 L19.25,232.08 L17.39,229.67 L15.69,227.17 L14.15,224.60 L12.78,221.96 L11.56,219.26 L10.51,216.51 L9.62,213.71 L8.89,210.88 L8.32,208.01 L7.91,205.12 L7.67,202.22 L7.58,199.30 L7.66,196.39 L7.90,193.49 L8.30,190.60 L8.87,187.73 L9.59,184.89 L10.48,182.09 L11.53,179.34 L12.74,176.63 L14.11,173.99 L15.64,171.42 L17.34,168.92 L19.20,166.51 L21.22,164.18 L23.40,161.96 L25.74,159.84 L28.25,157.83 Z" fill="#4b60d8" stroke="#1e1e1e" stroke-width="1" stroke-linejoin="round" opacity="0.5"/><path d="M28.25,157.83 L222.96,11.19 L226.71,8.60 L230.61,6.35 L234.64,4.45 L238.79,2.90 L243.01,1.69 L247.31,0.82 L251.64,0.31 L256.00,0.13 L260.36,0.31 L264.70,0.82 L268.99,1.69 L273.22,2.89 L277.36,4.45 L281.39,6.35 L285.30,8.59 L289.05,11.18 L421.38,110.82 L423.88,112.82 L426.22,114.94 L428.40,117.16 L430.42,119.49 L432.28,121.90 L433.97,124.40 L435.51,126.97 L436.88,129.61 L438.09,132.31 L439.14,135.06 L440.03,137.86 L440.75,140.69 L441.32,143.56 L441.72,146.45 L441.96,149.35 L442.04,152.26 L441.96,155.17 L441.72,158.08 L441.31,160.96 L440.75,163.83 L440.02,166.67 L439.13,169.46 L438.08,172.22 L436.87,174.92 L435.50,177.55 L433.96,180.12 L432.26,182.62 L430.41,185.03 L428.39,187.35 L426.20,189.58 L423.86,191.69 L421.36,193.70 L224.91,341.49 L221.37,343.93 L217.69,346.04 L213.89,347.83 L209.98,349.30 L206.00,350.44 L201.95,351.25 L197.86,351.74 L193.75,351.91 L189.65,351.75 L185.56,351.26 L181.51,350.45 L177.52,349.32 L173.62,347.85 L169.81,346.07 L166.13,343.96 L162.59,341.52 L28.31,240.74 L25.81,238.74 L23.46,236.62 L21.28,234.40 L19.25,232.08 L17.39,229.67 L15.69,227.17 L14.15,224.60 L12.78,221.96 L11.56,219.26 L10.51,216.51 L9.62,213.71 L8.89,210.88 L8.32,208.01 L7.91,205.12 L7.67,202.22 L7.58,199.30 L7.66,196.39 L7.90,193.49 L8.30,190.60 L8.87,187.73 L9.59,184.89 L10.48,182.09 L11.53,179.34 L12.74,176.63 L14.11,173.99 L15.64,171.42 L17.34,168.92 L19.20,166.51 L21.22,164.18 L23.40,161.96 L25.74,159.84 L28.25,157.83 Z" fill="#4e66e5" stroke="#1e1e1e" stroke-width="1" stroke-linejoin="round" opacity="0.5"/><path d="M180.79,43.35 L222.92,11.39 L226.68,8.78 L230.58,6.52 L234.62,4.60 L238.77,3.03 L243.01,1.81 L247.31,0.93 L251.66,0.41 L256.02,0.22 L260.39,0.39 L264.74,0.90 L269.05,1.76 L273.29,2.97 L277.44,4.52 L281.49,6.43 L285.40,8.68 L289.17,11.27 L421.60,110.99 L424.10,112.99 L426.44,115.10 L428.61,117.32 L430.63,119.64 L432.48,122.04 L434.18,124.53 L435.71,127.10 L437.08,129.73 L438.29,132.42 L439.35,135.17 L440.24,137.96 L440.96,140.79 L441.53,143.65 L441.94,146.53 L442.19,149.43 L442.27,152.33 L442.20,155.24 L441.96,158.13 L441.56,161.02 L441.01,163.88 L440.29,166.71 L439.41,169.50 L438.37,172.25 L437.17,174.95 L435.80,177.59 L434.28,180.16 L432.59,182.65 L430.75,185.07 L428.74,187.39 L426.57,189.62 L424.24,191.74 L421.75,193.75 L401.22,209.32 L180.79,43.35 Z" fill="#babaff" stroke="#1e1e1e" stroke-width="1" stroke-linejoin="round" opacity="0.3"/><path d="M180.79,43.35 L222.92,11.39 L226.68,8.78 L230.58,6.52 L234.62,4.60 L238.77,3.03 L243.01,1.81 L247.31,0.93 L251.66,0.41 L256.02,0.22 L260.39,0.39 L264.74,0.90 L269.05,1.76 L273.29,2.97 L277.44,4.52 L281.49,6.43 L285.40,8.68 L289.17,11.27 L421.60,110.99 L424.10,112.99 L426.44,115.10 L428.61,117.32 L430.63,119.64 L432.48,122.04 L434.18,124.53 L435.71,127.10 L437.08,129.73 L438.29,132.42 L439.35,135.17 L440.24,137.96 L440.96,140.79 L441.53,143.65 L441.94,146.53 L442.19,149.43 L442.27,152.33 L442.20,155.24 L441.96,158.13 L441.56,161.02 L441.01,163.88 L440.29,166.71 L439.41,169.50 L438.37,172.25 L437.17,174.95 L435.80,177.59 L434.28,180.16 L432.59,182.65 L430.75,185.07 L428.74,187.39 L426.57,189.62 L424.24,191.74 L421.75,193.75 L401.22,209.32 L180.79,43.35 Z" fill="#7370f0" stroke="#1e1e1e" stroke-width="1" stroke-linejoin="round" opacity="0.5"/><path d="M230.16,350.22 L437.46,266.50 L440.51,265.38 L443.60,264.47 L446.73,263.77 L449.88,263.27 L453.04,262.98 L456.21,262.88 L459.37,262.99 L462.51,263.30 L465.63,263.81 L468.71,264.52 L471.74,265.42 L474.72,266.51 L477.64,267.80 L480.48,269.29 L483.23,270.96 L485.90,272.82 L349.65,170.64 L345.92,168.03 L342.06,165.68 L338.09,163.61 L334.00,161.80 L329.83,160.27 L325.58,159.00 L321.27,158.02 L316.90,157.31 L312.50,156.87 L308.08,156.72 L303.65,156.85 L299.22,157.26 L294.81,157.96 L290.44,158.94 L286.11,160.22 L281.84,161.78 L74.54,245.50 L71.49,246.62 L68.40,247.53 L65.27,248.23 L62.12,248.73 L58.96,249.02 L55.79,249.12 L52.63,249.01 L49.49,248.70 L46.37,248.19 L43.29,247.48 L40.26,246.58 L37.28,245.48 L34.36,244.19 L31.52,242.71 L28.77,241.04 L26.10,239.17 L162.35,341.36 L166.08,343.97 L169.94,346.31 L173.92,348.39 L178.00,350.20 L182.17,351.73 L186.42,352.99 L190.73,353.98 L195.10,354.69 L199.50,355.13 L203.92,355.28 L208.35,355.15 L212.78,354.74 L217.19,354.04 L221.56,353.06 L225.89,351.78 L230.16,350.22 Z" fill="#9a9aff" stroke="#1e1e1e" stroke-width="1" stroke-linejoin="round"/></svg>