<svg xmlns="http://www.w3.org/2000/svg" viewBox="-1.72 0.73 100.00 94.94"><path d="M44.34,9.81 L63.19,42.80 L63.53,43.43 L63.82,44.09 L64.06,44.75 L64.27,45.43 L64.42,46.11 L64.53,46.81 L64.60,47.50 L64.62,48.20 L64.60,48.90 L64.53,49.60 L64.42,50.29 L64.27,50.97 L64.06,51.65 L63.82,52.32 L63.53,52.97 L63.19,53.60 L44.34,86.59 L43.81,87.45 L43.24,88.25 L42.62,89.00 L41.96,89.69 L41.27,90.33 L40.55,90.91 L39.79,91.43 L39.01,91.90 L38.20,92.32 L37.37,92.68 L36.53,92.98 L35.67,93.23 L34.79,93.42 L33.91,93.56 L33.02,93.65 L32.13,93.67 L31.24,93.65 L30.36,93.56 L29.47,93.42 L28.60,93.23 L27.74,92.98 L26.89,92.68 L26.07,92.32 L25.26,91.90 L24.48,91.43 L23.72,90.91 L23.00,90.33 L22.30,89.69 L21.65,89.00 L21.03,88.25 L20.46,87.45 L19.93,86.59 L2.26,55.67 L1.80,54.79 L1.39,53.89 L1.05,52.97 L0.77,52.04 L0.56,51.09 L0.40,50.13 L0.31,49.17 L0.28,48.20 L0.31,47.23 L0.40,46.27 L0.56,45.31 L0.77,44.37 L1.05,43.43 L1.39,42.51 L1.80,41.61 L2.26,40.73 L19.93,9.81 L20.46,8.96 L21.03,8.15 L21.65,7.41 L22.30,6.71 L23.00,6.08 L23.72,5.50 L24.48,4.97 L25.26,4.50 L26.07,4.09 L26.89,3.73 L27.74,3.42 L28.60,3.17 L29.47,2.98 L30.36,2.84 L31.24,2.76 L32.13,2.73 L33.02,2.76 L33.91,2.84 L34.79,2.98 L35.67,3.17 L36.53,3.42 L37.37,3.73 L38.20,4.09 L39.01,4.50 L39.79,4.97 L40.55,5.50 L41.27,6.08 L41.96,6.71 L42.62,7.41 L43.24,8.15 L43.81,8.96 L44.34,9.81 Z" fill="#631965" stroke="#1e1e1e" stroke-width="1" stroke-linejoin="round"/><path d="M44.34,9.81 L63.19,42.80 L63.53,43.43 L63.82,44.09 L64.06,44.75 L64.27,45.43 L64.42,46.11 L64.53,46.81 L64.60,47.50 L64.62,48.20 L64.60,48.90 L64.53,49.60 L64.42,50.29 L64.27,50.97 L64.06,51.65 L63.82,52.32 L63.53,52.97 L63.19,53.60 L44.34,86.59 L43.81,87.45 L43.24,88.25 L42.62,89.00 L41.96,89.69 L41.27,90.33 L40.55,90.91 L39.79,91.43 L39.01,91.90 L38.20,92.32 L37.37,92.68 L36.53,92.98 L35.67,93.23 L34.79,93.42 L33.91,93.56 L33.02,93.65 L32.13,93.67 L31.24,93.65 L30.36,93.56 L29.47,93.42 L28.60,93.23 L27.74,92.98 L26.89,92.68 L26.07,92.32 L25.26,91.90 L24.48,91.43 L23.72,90.91 L23.00,90.33 L22.30,89.69 L21.65,89.00 L21.03,88.25 L20.46,87.45 L19.93,86.59 L2.26,55.67 L1.80,54.79 L1.39,53.89 L1.05,52.97 L0.77,52.04 L0.56,51.09 L0.40,50.13 L0.31,49.17 L0.28,48.20 L0.31,47.23 L0.40,46.27 L0.56,45.31 L0.77,44.37 L1.05,43.43 L1.39,42.51 L1.80,41.61 L2.26,40.73 L19.93,9.81 L20.46,8.96 L21.03,8.15 L21.65,7.41 L22.30,6.71 L23.00,6.08 L23.72,5.50 L24.48,4.97 L25.26,4.50 L26.07,4.09 L26.89,3.73 L27.74,3.42 L28.60,3.17 L29.47,2.98 L30.36,2.84 L31.24,2.76 L32.13,2.73 L33.02,2.76 L33.91,2.84 L34.79,2.98 L35.67,3.17 L36.53,3.42 L37.37,3.73 L38.20,4.09 L39.01,4.50 L39.79,4.97 L40.55,5.50 L41.27,6.08 L41.96,6.71 L42.62,7.41 L43.24,8.15 L43.81,8.96 L44.34,9.81 Z" fill="#4c1e4c" stroke="#1e1e1e" stroke-width="1" stroke-linejoin="round" opacity="0"/><path d="M66.28,48.20 L44.34,86.59 L43.81,87.45 L43.24,88.25 L42.62,89.00 L41.96,89.69 L41.27,90.33 L40.55,90.91 L39.79,91.43 L39.01,91.90 L38.20,92.32 L37.37,92.68 L36.53,92.98 L35.67,93.23 L34.79,93.42 L33.91,93.56 L33.02,93.65 L32.13,93.67 L31.24,93.65 L30.36,93.56 L29.47,93.42 L28.60,93.23 L27.74,92.98 L26.89,92.68 L26.07,92.32 L25.26,91.90 L24.48,91.43 L23.72,90.91 L23.00,90.33 L22.30,89.69 L21.65,89.00 L21.03,88.25 L20.46,87.45 L19.93,86.59 L2.01,55.23 L2.53,56.08 L3.10,56.87 L3.71,57.61 L4.36,58.29 L5.04,58.92 L5.75,59.49 L6.50,60.01 L7.27,60.48 L8.07,60.89 L8.89,61.24 L9.72,61.54 L10.57,61.79 L11.43,61.98 L12.30,62.11 L13.18,62.20 L14.06,62.22 L14.94,62.20 L15.81,62.11 L16.69,61.98 L17.55,61.79 L18.40,61.54 L19.23,61.24 L20.05,60.89 L20.84,60.48 L21.62,60.01 L22.36,59.49 L23.08,58.92 L23.76,58.29 L24.41,57.61 L25.02,56.87 L25.59,56.08 L26.11,55.23 L48.20,16.57 L66.28,48.20 Z" fill="#8e2d88" stroke="#1e1e1e" stroke-width="1" stroke-linejoin="round"/><path d="M66.28,48.20 L44.34,86.59 L43.81,87.45 L43.24,88.25 L42.62,89.00 L41.96,89.69 L41.27,90.33 L40.55,90.91 L39.79,91.43 L39.01,91.90 L38.20,92.32 L37.37,92.68 L36.53,92.98 L35.67,93.23 L34.79,93.42 L33.91,93.56 L33.02,93.65 L32.13,93.67 L31.24,93.65 L30.36,93.56 L29.47,93.42 L28.60,93.23 L27.74,92.98 L26.89,92.68 L26.07,92.32 L25.26,91.90 L24.48,91.43 L23.72,90.91 L23.00,90.33 L22.30,89.69 L21.65,89.00 L21.03,88.25 L20.46,87.45 L19.93,86.59 L2.01,55.23 L2.53,56.08 L3.10,56.87 L3.71,57.61 L4.36,58.29 L5.04,58.92 L5.75,59.49 L6.50,60.01 L7.27,60.48 L8.07,60.89 L8.89,61.24 L9.72,61.54 L10.57,61.79 L11.43,61.98 L12.30,62.11 L13.18,62.20 L14.06,62.22 L14.94,62.20 L15.81,62.11 L16.69,61.98 L17.55,61.79 L18.40,61.54 L19.23,61.24 L20.05,60.89 L20.84,60.48 L21.62,60.01 L22.36,59.49 L23.08,58.92 L23.76,58.29 L24.41,57.61 L25.02,56.87 L25.59,56.08 L26.11,55.23 L48.20,16.57 L66.28,48.20 Z" fill="#631965" stroke="#1e1e1e" stroke-width="1" stroke-linejoin="round" opacity="0.5"/><path d="M55.18,28.78 L82.34,76.32 L93.78,56.31 L94.28,55.35 L94.72,54.37 L95.09,53.38 L95.39,52.36 L95.63,51.33 L95.80,50.29 L95.90,49.25 L95.93,48.20 L95.90,47.15 L95.80,46.11 L95.63,45.07 L95.39,44.04 L95.09,43.03 L94.72,42.03 L94.28,41.05 L93.78,40.10 L76.47,9.81 L75.95,8.96 L75.37,8.15 L74.75,7.41 L74.10,6.71 L73.41,6.08 L72.68,5.50 L71.92,4.97 L71.14,4.50 L70.34,4.09 L69.51,3.73 L68.66,3.42 L67.80,3.17 L66.93,2.98 L66.05,2.84 L65.16,2.76 L64.27,2.73 L63.38,2.76 L62.49,2.84 L61.61,2.98 L60.73,3.17 L59.87,3.42 L59.03,3.73 L58.20,4.09 L57.39,4.50 L56.61,4.97 L55.86,5.50 L55.13,6.08 L54.44,6.71 L53.78,7.41 L53.17,8.15 L52.59,8.96 L52.06,9.81 L41.23,28.78 L41.53,28.29 L41.86,27.83 L42.21,27.40 L42.58,27.00 L42.98,26.64 L43.39,26.31 L43.83,26.01 L44.27,25.74 L44.73,25.50 L45.21,25.30 L45.69,25.12 L46.18,24.98 L46.68,24.87 L47.18,24.79 L47.69,24.74 L48.20,24.73 L48.71,24.74 L49.22,24.79 L49.72,24.87 L50.22,24.98 L50.71,25.12 L51.20,25.30 L51.67,25.50 L52.13,25.74 L52.58,26.01 L53.01,26.31 L53.42,26.64 L53.82,27.00 L54.19,27.40 L54.55,27.83 L54.87,28.29 L55.18,28.78 Z" fill="#d05fb6" stroke="#1e1e1e" stroke-width="1" stroke-linejoin="round"/><path d="M55.18,28.78 L82.34,76.32 L93.78,56.31 L94.28,55.35 L94.72,54.37 L95.09,53.38 L95.39,52.36 L95.63,51.33 L95.80,50.29 L95.90,49.25 L95.93,48.20 L95.90,47.15 L95.80,46.11 L95.63,45.07 L95.39,44.04 L95.09,43.03 L94.72,42.03 L94.28,41.05 L93.78,40.10 L76.47,9.81 L75.95,8.96 L75.37,8.15 L74.75,7.41 L74.10,6.71 L73.41,6.08 L72.68,5.50 L71.92,4.97 L71.14,4.50 L70.34,4.09 L69.51,3.73 L68.66,3.42 L67.80,3.17 L66.93,2.98 L66.05,2.84 L65.16,2.76 L64.27,2.73 L63.38,2.76 L62.49,2.84 L61.61,2.98 L60.73,3.17 L59.87,3.42 L59.03,3.73 L58.20,4.09 L57.39,4.50 L56.61,4.97 L55.86,5.50 L55.13,6.08 L54.44,6.71 L53.78,7.41 L53.17,8.15 L52.59,8.96 L52.06,9.81 L41.23,28.78 L41.53,28.29 L41.86,27.83 L42.21,27.40 L42.58,27.00 L42.98,26.64 L43.39,26.31 L43.83,26.01 L44.27,25.74 L44.73,25.50 L45.21,25.30 L45.69,25.12 L46.18,24.98 L46.68,24.87 L47.18,24.79 L47.69,24.74 L48.20,24.73 L48.71,24.74 L49.22,24.79 L49.72,24.87 L50.22,24.98 L50.71,25.12 L51.20,25.30 L51.67,25.50 L52.13,25.74 L52.58,26.01 L53.01,26.31 L53.42,26.64 L53.82,27.00 L54.19,27.40 L54.55,27.83 L54.87,28.29 L55.18,28.78 Z" fill="#d060b6" stroke="#1e1e1e" stroke-width="1" stroke-linejoin="round" opacity="0.5"/><path d="M80.07,24.07 L48.20,79.83 L52.06,86.59 L52.59,87.45 L53.17,88.25 L53.78,89.00 L54.44,89.69 L55.13,90.33 L55.86,90.91 L56.61,91.43 L57.39,91.90 L58.20,92.32 L59.03,92.68 L59.87,92.98 L60.73,93.23 L61.61,93.42 L62.49,93.56 L63.38,93.65 L64.27,93.67 L65.16,93.65 L66.05,93.56 L66.93,93.42 L67.80,93.23 L68.66,92.98 L69.51,92.68 L70.34,92.32 L71.14,91.90 L71.92,91.43 L72.68,90.91 L73.41,90.33 L74.10,89.69 L74.75,89.00 L75.37,88.25 L75.95,87.45 L76.47,86.59 L94.43,55.18 L94.86,54.35 L95.24,53.51 L95.55,52.65 L95.81,51.78 L96.02,50.90 L96.16,50.00 L96.25,49.10 L96.28,48.20 L96.25,47.30 L96.16,46.40 L96.02,45.51 L95.81,44.62 L95.55,43.75 L95.24,42.89 L94.86,42.05 L94.43,41.23 L80.07,16.10 L80.31,16.57 L80.53,17.05 L80.71,17.54 L80.86,18.04 L80.98,18.54 L81.06,19.05 L81.11,19.57 L81.12,20.08 L81.11,20.60 L81.06,21.11 L80.98,21.62 L80.86,22.13 L80.71,22.63 L80.53,23.12 L80.31,23.60 L80.07,24.07 Z" fill="#eea8d4" stroke="#1e1e1e" stroke-width="1" stroke-linejoin="round"/><path d="M52.06,86.59 L48.20,79.83 L66.28,48.20 L82.34,76.32 L76.47,86.59 L75.95,87.45 L75.37,88.25 L74.75,89.00 L74.10,89.69 L73.41,90.33 L72.68,90.91 L71.92,91.43 L71.14,91.90 L70.34,92.32 L69.51,92.68 L68.66,92.98 L67.80,93.23 L66.93,93.42 L66.05,93.56 L65.16,93.65 L64.27,93.67 L63.38,93.65 L62.49,93.56 L61.61,93.42 L60.73,93.23 L59.87,92.98 L59.03,92.68 L58.20,92.32 L57.39,91.90 L56.61,91.43 L55.86,90.91 L55.13,90.33 L54.44,89.69 L53.78,89.00 L53.17,88.25 L52.59,87.45 L52.06,86.59 Z" fill="#d871bd" stroke="#1e1e1e" stroke-width="1" stroke-linejoin="round" opacity="0.37"/></svg>