<svg xmlns="http://www.w3.org/2000/svg" viewBox="-0.48 -2.00 98.57 100.00"><path d="M38.17,71.83 L31.71,91.21 L31.38,92.04 L30.95,92.80 L30.45,93.49 L29.88,94.09 L29.25,94.62 L28.56,95.07 L27.83,95.44 L27.07,95.71 L26.27,95.90 L25.46,96.00 L24.65,96.00 L23.83,95.90 L23.01,95.71 L22.22,95.41 L21.45,95.01 L20.71,94.50 L4.91,82.02 L4.38,81.57 L3.89,81.08 L3.44,80.56 L3.04,80.01 L2.68,79.43 L2.37,78.84 L2.11,78.22 L1.89,77.58 L1.73,76.93 L1.61,76.27 L1.54,75.60 L1.52,74.92 L1.55,74.24 L1.64,73.56 L1.78,72.89 L1.98,72.21 L2.23,71.55 L2.53,70.91 L2.88,70.30 L3.27,69.73 L3.70,69.19 L4.17,68.69 L4.68,68.23 L5.22,67.81 L5.79,67.43 L6.39,67.09 L7.01,66.80 L7.66,66.56 L8.33,66.37 L9.01,66.24 L9.71,66.15 L10.43,66.12 L46.09,66.12 L45.42,66.15 L44.76,66.23 L44.12,66.36 L43.50,66.54 L42.89,66.76 L42.30,67.03 L41.74,67.34 L41.21,67.70 L40.70,68.09 L40.23,68.53 L39.79,68.99 L39.38,69.50 L39.02,70.04 L38.69,70.60 L38.41,71.20 L38.17,71.83 Z" fill="#27b288" stroke="#1e1e1e" stroke-width="1" stroke-linejoin="round"/><path d="M38.17,71.83 L31.71,91.21 L31.38,92.04 L30.95,92.80 L30.45,93.49 L29.88,94.09 L29.25,94.62 L28.56,95.07 L27.83,95.44 L27.07,95.71 L26.27,95.90 L25.46,96.00 L24.65,96.00 L23.83,95.90 L23.01,95.71 L22.22,95.41 L21.45,95.01 L20.71,94.50 L4.91,82.02 L4.38,81.57 L3.89,81.08 L3.44,80.56 L3.04,80.01 L2.68,79.43 L2.37,78.84 L2.11,78.22 L1.89,77.58 L1.73,76.93 L1.61,76.27 L1.54,75.60 L1.52,74.92 L1.55,74.24 L1.64,73.56 L1.78,72.89 L1.98,72.21 L2.23,71.55 L2.53,70.91 L2.88,70.30 L3.27,69.73 L3.70,69.19 L4.17,68.69 L4.68,68.23 L5.22,67.81 L5.79,67.43 L6.39,67.09 L7.01,66.80 L7.66,66.56 L8.33,66.37 L9.01,66.24 L9.71,66.15 L10.43,66.12 L46.09,66.12 L45.42,66.15 L44.76,66.23 L44.12,66.36 L43.50,66.54 L42.89,66.76 L42.30,67.03 L41.74,67.34 L41.21,67.70 L40.70,68.09 L40.23,68.53 L39.79,68.99 L39.38,69.50 L39.02,70.04 L38.69,70.60 L38.41,71.20 L38.17,71.83 Z" fill="#1e794a" stroke="#1e1e1e" stroke-width="1" stroke-linejoin="round" opacity="0"/><path d="M24.37,30.06 L60.95,30.06 L62.26,30.09 L63.57,30.17 L64.87,30.31 L66.17,30.51 L67.46,30.76 L68.73,31.06 L69.98,31.41 L71.21,31.81 L72.42,32.25 L73.60,32.74 L74.75,33.27 L75.86,33.84 L76.93,34.46 L77.96,35.11 L78.95,35.80 L79.89,36.53 L80.77,37.28 L81.60,38.08 L82.37,38.90 L83.08,39.75 L83.72,40.63 L84.29,41.53 L84.79,42.46 L85.21,43.42 L85.56,44.39 L85.82,45.39 L85.99,46.40 L86.08,47.43 L86.07,48.47 L85.96,49.53 L85.76,50.60 L85.45,51.69 L95.59,21.31 L95.81,20.53 L95.97,19.73 L96.07,18.90 L96.09,18.05 L96.05,17.19 L95.94,16.31 L95.77,15.43 L95.52,14.54 L95.21,13.64 L94.84,12.75 L94.40,11.86 L93.89,10.98 L93.31,10.11 L92.67,9.25 L91.96,8.41 L91.19,7.59 L90.35,6.80 L89.45,6.03 L88.48,5.29 L87.44,4.59 L86.34,3.92 L85.17,3.30 L83.94,2.72 L82.65,2.18 L81.28,1.70 L79.86,1.27 L78.37,0.89 L76.81,0.58 L75.19,0.33 L73.51,0.15 L71.76,0.04 L69.95,0.00 L30.38,0.00 L29.90,0.02 L29.43,0.08 L28.96,0.17 L28.51,0.30 L28.08,0.46 L27.66,0.65 L27.25,0.88 L26.87,1.13 L26.50,1.42 L26.16,1.73 L25.84,2.07 L25.55,2.43 L25.29,2.82 L25.05,3.23 L24.85,3.66 L24.68,4.11 L18.67,22.14 L18.47,22.87 L18.37,23.60 L18.36,24.32 L18.43,25.02 L18.59,25.70 L18.82,26.36 L19.12,26.98 L19.49,27.56 L19.93,28.10 L20.42,28.58 L20.97,29.01 L21.57,29.37 L22.21,29.66 L22.89,29.88 L23.62,30.01 L24.37,30.06 Z" fill="#1b8480" stroke="#1e1e1e" stroke-width="1" stroke-linejoin="round"/><path d="M24.37,30.06 L60.95,30.06 L62.26,30.09 L63.57,30.17 L64.87,30.31 L66.17,30.51 L67.46,30.76 L68.73,31.06 L69.98,31.41 L71.21,31.81 L72.42,32.25 L73.60,32.74 L74.75,33.27 L75.86,33.84 L76.93,34.46 L77.96,35.11 L78.95,35.80 L79.89,36.53 L80.77,37.28 L81.60,38.08 L82.37,38.90 L83.08,39.75 L83.72,40.63 L84.29,41.53 L84.79,42.46 L85.21,43.42 L85.56,44.39 L85.82,45.39 L85.99,46.40 L86.08,47.43 L86.07,48.47 L85.96,49.53 L85.76,50.60 L85.45,51.69 L95.59,21.31 L95.81,20.53 L95.97,19.73 L96.07,18.90 L96.09,18.05 L96.05,17.19 L95.94,16.31 L95.77,15.43 L95.52,14.54 L95.21,13.64 L94.84,12.75 L94.40,11.86 L93.89,10.98 L93.31,10.11 L92.67,9.25 L91.96,8.41 L91.19,7.59 L90.35,6.80 L89.45,6.03 L88.48,5.29 L87.44,4.59 L86.34,3.92 L85.17,3.30 L83.94,2.72 L82.65,2.18 L81.28,1.70 L79.86,1.27 L78.37,0.89 L76.81,0.58 L75.19,0.33 L73.51,0.15 L71.76,0.04 L69.95,0.00 L30.38,0.00 L29.90,0.02 L29.43,0.08 L28.96,0.17 L28.51,0.30 L28.08,0.46 L27.66,0.65 L27.25,0.88 L26.87,1.13 L26.50,1.42 L26.16,1.73 L25.84,2.07 L25.55,2.43 L25.29,2.82 L25.05,3.23 L24.85,3.66 L24.68,4.11 L18.67,22.14 L18.47,22.87 L18.37,23.60 L18.36,24.32 L18.43,25.02 L18.59,25.70 L18.82,26.36 L19.12,26.98 L19.49,27.56 L19.93,28.10 L20.42,28.58 L20.97,29.01 L21.57,29.37 L22.21,29.66 L22.89,29.88 L23.62,30.01 L24.37,30.06 Z" fill="#044f91" stroke="#1e1e1e" stroke-width="1" stroke-linejoin="round" opacity="0.51"/><path d="M59.94,66.12 L11.23,66.12 L10.43,66.16 L9.64,66.25 L8.87,66.41 L8.12,66.62 L7.39,66.89 L6.69,67.21 L6.01,67.59 L5.37,68.01 L4.76,68.49 L4.19,69.01 L3.67,69.57 L3.18,70.18 L2.74,70.82 L2.35,71.50 L2.01,72.22 L1.73,72.97 L11.74,42.92 L12.03,42.17 L12.37,41.45 L12.76,40.77 L13.20,40.12 L13.68,39.52 L14.21,38.95 L14.78,38.43 L15.39,37.96 L16.03,37.53 L16.70,37.16 L17.41,36.83 L18.13,36.56 L18.89,36.35 L19.66,36.19 L20.45,36.10 L21.25,36.07 L69.95,36.07 L71.20,36.05 L72.42,35.99 L73.63,35.90 L74.80,35.78 L75.95,35.62 L77.08,35.43 L78.18,35.20 L79.25,34.94 L80.29,34.65 L81.30,34.33 L82.29,33.98 L83.25,33.60 L84.18,33.20 L85.08,32.76 L85.95,32.30 L86.78,31.81 L87.59,31.30 L88.37,30.76 L89.11,30.20 L89.82,29.62 L90.50,29.01 L91.15,28.38 L91.76,27.73 L92.34,27.06 L92.88,26.37 L93.39,25.67 L93.86,24.94 L94.30,24.20 L94.70,23.44 L95.06,22.66 L95.39,21.87 L95.68,21.07 L85.45,51.79 L85.22,52.45 L84.94,53.11 L84.63,53.77 L84.29,54.42 L83.91,55.07 L83.49,55.72 L83.03,56.36 L82.54,56.99 L82.02,57.61 L81.46,58.22 L80.86,58.82 L80.23,59.41 L79.56,59.98 L78.85,60.53 L78.11,61.07 L77.33,61.59 L76.52,62.08 L75.67,62.56 L74.78,63.01 L73.86,63.44 L72.90,63.84 L71.90,64.21 L70.87,64.56 L69.80,64.87 L68.70,65.15 L67.55,65.40 L66.38,65.62 L65.16,65.80 L63.91,65.94 L62.63,66.04 L61.30,66.10 L59.94,66.12 Z" fill="#35ab85" stroke="#1e1e1e" stroke-width="1" stroke-linejoin="round"/><path d="M59.94,66.12 L11.23,66.12 L10.43,66.16 L9.64,66.25 L8.87,66.41 L8.12,66.62 L7.39,66.89 L6.69,67.21 L6.01,67.59 L5.37,68.01 L4.76,68.49 L4.19,69.01 L3.67,69.57 L3.18,70.18 L2.74,70.82 L2.35,71.50 L2.01,72.22 L1.73,72.97 L11.74,42.92 L12.03,42.17 L12.37,41.45 L12.76,40.77 L13.20,40.12 L13.68,39.52 L14.21,38.95 L14.78,38.43 L15.39,37.96 L16.03,37.53 L16.70,37.16 L17.41,36.83 L18.13,36.56 L18.89,36.35 L19.66,36.19 L20.45,36.10 L21.25,36.07 L69.95,36.07 L71.20,36.05 L72.42,35.99 L73.63,35.90 L74.80,35.78 L75.95,35.62 L77.08,35.43 L78.18,35.20 L79.25,34.94 L80.29,34.65 L81.30,34.33 L82.29,33.98 L83.25,33.60 L84.18,33.20 L85.08,32.76 L85.95,32.30 L86.78,31.81 L87.59,31.30 L88.37,30.76 L89.11,30.20 L89.82,29.62 L90.50,29.01 L91.15,28.38 L91.76,27.73 L92.34,27.06 L92.88,26.37 L93.39,25.67 L93.86,24.94 L94.30,24.20 L94.70,23.44 L95.06,22.66 L95.39,21.87 L95.68,21.07 L85.45,51.79 L85.22,52.45 L84.94,53.11 L84.63,53.77 L84.29,54.42 L83.91,55.07 L83.49,55.72 L83.03,56.36 L82.54,56.99 L82.02,57.61 L81.46,58.22 L80.86,58.82 L80.23,59.41 L79.56,59.98 L78.85,60.53 L78.11,61.07 L77.33,61.59 L76.52,62.08 L75.67,62.56 L74.78,63.01 L73.86,63.44 L72.90,63.84 L71.90,64.21 L70.87,64.56 L69.80,64.87 L68.70,65.15 L67.55,65.40 L66.38,65.62 L65.16,65.80 L63.91,65.94 L62.63,66.04 L61.30,66.10 L59.94,66.12 Z" fill="#81e08a" stroke="#1e1e1e" stroke-width="1" stroke-linejoin="round" opacity="0.5"/></svg>