<svg xmlns="http://www.w3.org/2000/svg" width="32" height="32" fill="none"><path fill="url(#if5cae4-if0c203-paint0_linear_62917_1944)" d="M3 6.5A3.5 3.5 0 0 1 6.5 3h19A3.5 3.5 0 0 1 29 6.5v19a3.5 3.5 0 0 1-3.5 3.5h-19A3.5 3.5 0 0 1 3 25.5z"/><path fill="url(#if5cae4-if0c203-paint1_radial_62917_1944)" fill-opacity=".2" d="M3 6.5A3.5 3.5 0 0 1 6.5 3h19A3.5 3.5 0 0 1 29 6.5v19a3.5 3.5 0 0 1-3.5 3.5h-19A3.5 3.5 0 0 1 3 25.5z"/><path fill="url(#if5cae4-if0c203-paint2_linear_62917_1944)" fill-rule="evenodd" d="M25.5 4h-19A2.5 2.5 0 0 0 4 6.5v19A2.5 2.5 0 0 0 6.5 28h19a2.5 2.5 0 0 0 2.5-2.5v-19A2.5 2.5 0 0 0 25.5 4m-19-1A3.5 3.5 0 0 0 3 6.5v19A3.5 3.5 0 0 0 6.5 29h19a3.5 3.5 0 0 0 3.5-3.5v-19A3.5 3.5 0 0 0 25.5 3z" clip-rule="evenodd"/><path fill="url(#if5cae4-if0c203-paint3_linear_62917_1944)" fill-rule="evenodd" d="M11.25 9a.75.75 0 0 1 .75.75v12.5a.75.75 0 1 1-1.5 0V9.75a.75.75 0 0 1 .75-.75" clip-rule="evenodd"/><path fill="url(#if5cae4-if0c203-paint4_linear_62917_1944)" fill-rule="evenodd" d="M15.25 22.25v-9.5a.75.75 0 0 1 1.5 0v9.5a.75.75 0 1 1-1.5 0" clip-rule="evenodd"/><path fill="url(#if5cae4-if0c203-paint5_linear_62917_1944)" fill-rule="evenodd" d="M20.75 15a.75.75 0 0 1 .75.75v6.5a.75.75 0 0 1-1.5 0v-6.5a.75.75 0 0 1 .75-.75" clip-rule="evenodd"/><path fill="#F5F5F5" fill-rule="evenodd" d="M29.5 18a2.5 2.5 0 0 1 2.5 2.5v9a2.5 2.5 0 0 1-2.5 2.5h-5a2.5 2.5 0 0 1-2.5-2.5v-9a2.5 2.5 0 0 1 2.5-2.5z" clip-rule="evenodd"/><path fill="url(#if5cae4-if0c203-paint6_linear_62917_1944)" d="M23 20.5a1.5 1.5 0 0 1 1.5-1.5h5a1.5 1.5 0 0 1 1.5 1.5v9a1.5 1.5 0 0 1-1.5 1.5h-5a1.5 1.5 0 0 1-1.5-1.5z"/><path fill="#F5F5F5" d="M28 28a.5.5 0 0 1 0 1h-2a.5.5 0 0 1 0-1z"/><defs><linearGradient id="if5cae4-if0c203-paint0_linear_62917_1944" x1="10.222" x2="13.511" y1="3" y2="29.311" gradientUnits="userSpaceOnUse"><stop stop-color="#fff"/><stop offset="1" stop-color="#EBEBEB"/></linearGradient><radialGradient id="if5cae4-if0c203-paint1_radial_62917_1944" cx="0" cy="0" r="1" gradientTransform="matrix(13.7222 20.5833 -20.5833 7.71875 11.306 9.77)" gradientUnits="userSpaceOnUse"><stop offset=".177" stop-color="#fff"/><stop offset="1" stop-color="#B8B8B8"/></radialGradient><linearGradient id="if5cae4-if0c203-paint2_linear_62917_1944" x1="11.396" x2="14.897" y1="3" y2="29.256" gradientUnits="userSpaceOnUse"><stop stop-color="#BBB"/><stop offset="1" stop-color="#888"/></linearGradient><linearGradient id="if5cae4-if0c203-paint3_linear_62917_1944" x1="10.5" x2="24.102" y1="9" y2="19.688" gradientUnits="userSpaceOnUse"><stop stop-color="#C28400"/><stop offset="1" stop-color="#A86500"/></linearGradient><linearGradient id="if5cae4-if0c203-paint4_linear_62917_1944" x1="10.5" x2="24.102" y1="9" y2="19.688" gradientUnits="userSpaceOnUse"><stop stop-color="#C28400"/><stop offset="1" stop-color="#A86500"/></linearGradient><linearGradient id="if5cae4-if0c203-paint5_linear_62917_1944" x1="10.5" x2="24.102" y1="9" y2="19.688" gradientUnits="userSpaceOnUse"><stop stop-color="#C28400"/><stop offset="1" stop-color="#A86500"/></linearGradient><linearGradient id="if5cae4-if0c203-paint6_linear_62917_1944" x1="23" x2="34.077" y1="19" y2="26.385" gradientUnits="userSpaceOnUse"><stop stop-color="#C28400"/><stop offset="1" stop-color="#A86500"/></linearGradient></defs></svg>