<svg xmlns="http://www.w3.org/2000/svg" width="32" height="32" fill="currentColor"><path fill="url(#ib20bc3-a)" d="M29 16c0 7.18-5.82 13-13 13S3 23.18 3 16 8.82 3 16 3s13 5.82 13 13"/><path fill="url(#ib20bc3-b)" fill-opacity=".2" d="M29 16c0 7.18-5.82 13-13 13S3 23.18 3 16 8.82 3 16 3s13 5.82 13 13"/><path fill="url(#ib20bc3-c)" fill-rule="evenodd" d="M16 28c6.627 0 12-5.373 12-12S22.627 4 16 4 4 9.373 4 16s5.373 12 12 12m0 1c7.18 0 13-5.82 13-13S23.18 3 16 3 3 8.82 3 16s5.82 13 13 13" clip-rule="evenodd"/><path fill="url(#ib20bc3-d)" d="M19.23 10.026a.75.75 0 1 0-1.39-.564l-5.07 12.512a.75.75 0 1 0 1.39.563z"/><path fill="url(#ib20bc3-e)" d="M11.53 12.22a.75.75 0 0 1 0 1.06L8.81 16l2.72 2.72a.75.75 0 1 1-1.06 1.06l-3.25-3.25a.75.75 0 0 1 0-1.06l3.25-3.25a.75.75 0 0 1 1.06 0"/><path fill="url(#ib20bc3-f)" d="M20.5 19.78a.75.75 0 0 1 0-1.06L23.22 16l-2.72-2.72a.75.75 0 1 1 1.062-1.06l3.25 3.25a.75.75 0 0 1 0 1.06l-3.25 3.25a.75.75 0 0 1-1.061 0Z"/><defs><linearGradient id="ib20bc3-a" x1="10.222" x2="13.511" y1="3" y2="29.311" gradientUnits="userSpaceOnUse"><stop stop-color="#fff"/><stop offset="1" stop-color="#EBEBEB"/></linearGradient><linearGradient id="ib20bc3-c" x1="11.396" x2="14.897" y1="3" y2="29.256" gradientUnits="userSpaceOnUse"><stop stop-color="#BBB"/><stop offset="1" stop-color="#888"/></linearGradient><linearGradient id="ib20bc3-d" x1="7" x2="20.578" y1="8.994" y2="26.466" gradientUnits="userSpaceOnUse"><stop stop-color="#4BA446"/><stop offset="1" stop-color="#3F7D35"/></linearGradient><linearGradient id="ib20bc3-e" x1="7" x2="20.578" y1="8.994" y2="26.467" gradientUnits="userSpaceOnUse"><stop stop-color="#4BA446"/><stop offset="1" stop-color="#3F7D35"/></linearGradient><linearGradient id="ib20bc3-f" x1="7" x2="20.578" y1="8.994" y2="26.467" gradientUnits="userSpaceOnUse"><stop stop-color="#4BA446"/><stop offset="1" stop-color="#3F7D35"/></linearGradient><radialGradient id="ib20bc3-b" cx="0" cy="0" r="1" gradientTransform="matrix(13.7222 20.58336 -17.81255 11.875 11.306 9.771)" gradientUnits="userSpaceOnUse"><stop offset=".177" stop-color="#fff"/><stop offset="1" stop-color="#B8B8B8"/></radialGradient></defs></svg>