<svg xmlns="http://www.w3.org/2000/svg" width="32" height="32" fill="none"><path fill="url(#ibcf8a2-paint0_linear_55562_402)" d="M3 6.5A3.5 3.5 0 0 1 6.5 3h19A3.5 3.5 0 0 1 29 6.5v19a3.5 3.5 0 0 1-3.5 3.5h-19A3.5 3.5 0 0 1 3 25.5z"/><path fill="url(#ibcf8a2-paint1_radial_55562_402)" fill-opacity=".2" d="M3 6.5A3.5 3.5 0 0 1 6.5 3h19A3.5 3.5 0 0 1 29 6.5v19a3.5 3.5 0 0 1-3.5 3.5h-19A3.5 3.5 0 0 1 3 25.5z"/><path fill="url(#ibcf8a2-paint2_linear_55562_402)" fill-rule="evenodd" d="M25.5 4h-19A2.5 2.5 0 0 0 4 6.5v19A2.5 2.5 0 0 0 6.5 28h19a2.5 2.5 0 0 0 2.5-2.5v-19A2.5 2.5 0 0 0 25.5 4m-19-1A3.5 3.5 0 0 0 3 6.5v19A3.5 3.5 0 0 0 6.5 29h19a3.5 3.5 0 0 0 3.5-3.5v-19A3.5 3.5 0 0 0 25.5 3z" clip-rule="evenodd"/><circle cx="15.906" cy="16" r="8" fill="url(#ibcf8a2-paint3_linear_55562_402)"/><path fill="#F4D58A" d="M20.085 11.82a.5.5 0 0 0-.635-.012l-.177.14a252 252 0 0 0-3.423 2.772c-.218.183-.41.347-.56.48a4 4 0 0 0-.344.327 1.5 1.5 0 1 0 2.282 1.948c.072-.084.17-.232.27-.39.107-.17.239-.385.385-.628.292-.488.646-1.096.989-1.69a295 295 0 0 0 1.213-2.126l.111-.196a.5.5 0 0 0-.11-.626"/><path fill="#F4D58A" d="M12.465 12.465a5 5 0 0 1 5.354-1.124.5.5 0 0 0 .363-.932 6.001 6.001 0 0 0-6.425 9.834.5.5 0 1 0 .707-.707 5 5 0 0 1 0-7.072"/><defs><linearGradient id="ibcf8a2-paint0_linear_55562_402" x1="10.222" x2="13.511" y1="3" y2="29.311" gradientUnits="userSpaceOnUse"><stop stop-color="#fff"/><stop offset="1" stop-color="#EBEBEB"/></linearGradient><radialGradient id="ibcf8a2-paint1_radial_55562_402" cx="0" cy="0" r="1" gradientTransform="matrix(13.72224 20.58334 -17.81253 11.87503 11.306 9.77)" gradientUnits="userSpaceOnUse"><stop offset=".177" stop-color="#fff"/><stop offset="1" stop-color="#B8B8B8"/></radialGradient><linearGradient id="ibcf8a2-paint2_linear_55562_402" x1="11.396" x2="14.897" y1="3" y2="29.256" gradientUnits="userSpaceOnUse"><stop stop-color="#BBB"/><stop offset="1" stop-color="#888"/></linearGradient><linearGradient id="ibcf8a2-paint3_linear_55562_402" x1="7.906" x2="23.906" y1="8" y2="24" gradientUnits="userSpaceOnUse"><stop stop-color="#C28400"/><stop offset="1" stop-color="#A86500"/></linearGradient></defs></svg>