<svg xmlns="http://www.w3.org/2000/svg" width="33" height="33" fill="currentColor"><path fill="url(#ic345f9-a)" d="M3 6.5A3.5 3.5 0 0 1 6.5 3h19A3.5 3.5 0 0 1 29 6.5v19a3.5 3.5 0 0 1-3.5 3.5h-19A3.5 3.5 0 0 1 3 25.5z"/><path fill="url(#ic345f9-b)" fill-opacity=".2" d="M3 6.5A3.5 3.5 0 0 1 6.5 3h19A3.5 3.5 0 0 1 29 6.5v19a3.5 3.5 0 0 1-3.5 3.5h-19A3.5 3.5 0 0 1 3 25.5z"/><path fill="url(#ic345f9-c)" fill-rule="evenodd" d="M25.5 4h-19A2.5 2.5 0 0 0 4 6.5v19A2.5 2.5 0 0 0 6.5 28h19a2.5 2.5 0 0 0 2.5-2.5v-19A2.5 2.5 0 0 0 25.5 4m-19-1A3.5 3.5 0 0 0 3 6.5v19A3.5 3.5 0 0 0 6.5 29h19a3.5 3.5 0 0 0 3.5-3.5v-19A3.5 3.5 0 0 0 25.5 3z" clip-rule="evenodd"/><path fill="url(#ic345f9-d)" fill-rule="evenodd" d="M11.25 9a.75.75 0 0 1 .75.75v12.5a.75.75 0 1 1-1.5 0V9.75a.75.75 0 0 1 .75-.75" clip-rule="evenodd"/><path fill="url(#ic345f9-e)" fill-rule="evenodd" d="M15.25 22.25v-9.5a.75.75 0 0 1 1.5 0v9.5a.75.75 0 1 1-1.5 0" clip-rule="evenodd"/><path fill="url(#ic345f9-f)" fill-rule="evenodd" d="M20.75 15a.75.75 0 0 1 .75.75v6.5a.75.75 0 0 1-1.5 0v-6.5a.75.75 0 0 1 .75-.75" clip-rule="evenodd"/><path fill="#F5F5F5" d="M25 33a8 8 0 1 0 0-16 8 8 0 0 0 0 16"/><path fill="url(#ic345f9-g)" fill-rule="evenodd" d="M29.95 20.05a7 7 0 1 1-9.9 9.9 7 7 0 0 1 9.9-9.9m-.368 1.075a6 6 0 0 1-8.457 8.457zm-.707-.707-8.457 8.457a6 6 0 0 1 8.457-8.457" clip-rule="evenodd"/><defs><linearGradient id="ic345f9-a" x1="10.222" x2="13.511" y1="3" y2="29.311" gradientUnits="userSpaceOnUse"><stop stop-color="#fff"/><stop offset="1" stop-color="#EBEBEB"/></linearGradient><linearGradient id="ic345f9-c" x1="11.396" x2="14.897" y1="3" y2="29.256" gradientUnits="userSpaceOnUse"><stop stop-color="#BBB"/><stop offset="1" stop-color="#888"/></linearGradient><linearGradient id="ic345f9-d" x1="10.5" x2="24.102" y1="9" y2="19.688" gradientUnits="userSpaceOnUse"><stop stop-color="#C28400"/><stop offset="1" stop-color="#A86500"/></linearGradient><linearGradient id="ic345f9-e" x1="10.5" x2="24.102" y1="9" y2="19.688" gradientUnits="userSpaceOnUse"><stop stop-color="#C28400"/><stop offset="1" stop-color="#A86500"/></linearGradient><linearGradient id="ic345f9-f" x1="10.5" x2="24.102" y1="9" y2="19.688" gradientUnits="userSpaceOnUse"><stop stop-color="#C28400"/><stop offset="1" stop-color="#A86500"/></linearGradient><linearGradient id="ic345f9-g" x1="18" x2="32" y1="18" y2="32" gradientUnits="userSpaceOnUse"><stop stop-color="#C28400"/><stop offset="1" stop-color="#A86500"/></linearGradient><radialGradient id="ic345f9-b" cx="0" cy="0" r="1" gradientTransform="matrix(13.7222 20.58336 -17.81255 11.875 11.306 9.771)" gradientUnits="userSpaceOnUse"><stop offset=".177" stop-color="#fff"/><stop offset="1" stop-color="#B8B8B8"/></radialGradient></defs></svg>