<svg xmlns="http://www.w3.org/2000/svg" viewBox="7.61 0.82 86.44 100.00"><path d="M92.04,26.69 L92.04,74.96 L50.82,98.82 L50.82,51.09 L92.04,26.69 Z" fill="#773adc" stroke="#1e1e1e" stroke-width="1" stroke-linejoin="round"/><path d="M73.83,51.39 L75.99,50.44 L77.96,50.02 L79.72,50.11 L81.22,50.69 L82.45,51.73 L83.37,53.20 L83.94,55.08 L84.14,57.33 L83.46,61.55 L82.03,65.57 L79.90,69.27 L77.14,72.52 L73.84,75.23 L71.68,76.18 L69.71,76.59 L67.95,76.49 L66.45,75.92 L65.22,74.88 L64.30,73.41 L63.73,71.53 L63.53,69.27 L64.11,65.02 L65.50,60.97 L67.64,57.25 L70.45,54.02 L73.83,51.39 L73.83,51.39 Z" fill="#5f37a1" stroke="#1e1e1e" stroke-width="1" stroke-linejoin="round"/><path d="M92.04,26.69 L50.82,51.09 L9.61,26.69 L50.82,2.82 L92.04,26.69 Z" fill="#b796f9" stroke="#1e1e1e" stroke-width="1" stroke-linejoin="round"/><path d="M50.82,51.09 L50.82,98.82 L9.61,74.96 L9.61,26.69 L50.82,51.09 Z" fill="#a67af4" stroke="#1e1e1e" stroke-width="1" stroke-linejoin="round"/></svg>