<svg xmlns="http://www.w3.org/2000/svg" viewBox="7.07 0.67 81.86 94.67"><path d="M86.93,25.21 L86.93,70.79 L48.00,93.33 L48.00,48.26 L86.93,25.21 Z" fill="#773adc" stroke="#1e1e1e" stroke-width="1" stroke-linejoin="round"/><path d="M69.73,48.53 L71.76,47.63 L73.63,47.24 L75.29,47.33 L76.71,47.88 L77.87,48.85 L78.74,50.24 L79.28,52.02 L79.47,54.15 L78.82,58.13 L77.47,61.93 L75.46,65.42 L72.85,68.49 L69.73,71.05 L67.70,71.94 L65.84,72.33 L64.18,72.24 L62.75,71.70 L61.59,70.72 L60.73,69.33 L60.19,67.56 L60.00,65.42 L60.55,61.41 L61.86,57.58 L63.88,54.07 L66.54,51.02 L69.73,48.53 L69.73,48.53 Z" fill="#5f37a1" stroke="#1e1e1e" stroke-width="1" stroke-linejoin="round"/><path d="M86.93,25.21 L48.00,48.26 L9.07,25.21 L48.00,2.67 L86.93,25.21 Z" fill="#b796f9" stroke="#1e1e1e" stroke-width="1" stroke-linejoin="round"/><path d="M48.00,48.26 L48.00,93.33 L9.07,70.79 L9.07,25.21 L48.00,48.26 Z" fill="#a67af4" stroke="#1e1e1e" stroke-width="1" stroke-linejoin="round"/></svg>