<svg xmlns="http://www.w3.org/2000/svg" viewBox="4.71 -1.51 86.58 98.95"><path d="M70.81,19.24 L70.81,56.53 L38.75,75.27 L38.75,37.92 L70.81,19.24 L70.81,19.24 Z" fill="#773adc" stroke="#1e1e1e" stroke-width="1" stroke-linejoin="round"/><path d="M70.81,19.24 L38.76,37.97 L6.76,19.23 L38.76,0.49 L70.81,19.24 L70.81,19.24 Z" fill="#b796f9" stroke="#1e1e1e" stroke-width="1" stroke-linejoin="round"/><path d="M38.76,37.97 L38.76,75.27 L6.71,56.53 L6.71,19.24 L38.76,37.98 L38.76,37.97 Z" fill="#a67af4" stroke="#1e1e1e" stroke-width="1" stroke-linejoin="round"/><path d="M62.19,69.87 L62.12,70.40 L62.02,70.83 L61.87,71.33 L61.70,71.74 L61.45,72.27 L61.25,72.64 L61.02,72.99 L60.94,73.09 L60.68,73.44 L60.41,73.78 L60.30,73.91 L59.59,74.61 L59.33,74.83 L59.06,75.03 L58.58,75.41 L57.97,75.81 L57.33,76.22 L56.54,76.65 L55.73,77.03 L55.20,77.23 L53.87,77.73 L53.33,77.89 L52.46,78.14 L51.80,78.32 L50.87,78.52 L50.23,78.65 L48.31,78.92 L47.71,78.97 L46.58,79.05 L44.27,79.05 L43.41,79.01 L41.83,78.83 L41.08,78.72 L40.19,78.56 L39.49,78.42 L38.43,78.16 L37.85,78.00 L36.04,77.39 L35.18,77.03 L34.76,76.84 L33.52,76.20 L31.62,75.03 L30.09,73.41 L29.05,71.44 L28.55,69.27 L28.55,76.77 L29.05,78.94 L30.09,80.91 L31.62,82.53 L33.52,83.70 L34.76,84.34 L35.19,84.53 L35.94,84.86 L36.04,84.90 L37.99,85.55 L38.42,85.66 L39.48,85.91 L39.76,85.98 L40.19,86.06 L41.08,86.22 L41.43,86.27 L41.83,86.33 L42.67,86.42 L43.07,86.47 L43.46,86.47 L44.31,86.51 L46.74,86.51 L47.87,86.43 L48.47,86.43 L50.39,86.17 L50.48,86.17 L51.01,86.06 L51.95,85.86 L52.61,85.68 L53.48,85.43 L53.66,85.38 L53.96,85.27 L55.30,84.77 L55.83,84.57 L57.43,83.77 L57.64,83.64 L58.07,83.35 L58.68,82.95 L59.15,82.58 L59.68,82.15 L59.79,82.06 L60.39,81.46 L60.50,81.32 L60.82,80.95 L60.94,80.79 L61.05,80.63 L61.13,80.53 L61.50,79.94 L61.56,79.81 L61.69,79.55 L61.80,79.28 L61.95,78.97 L61.98,78.86 L62.06,78.62 L62.12,78.36 L62.22,78.02 L62.22,77.93 L62.26,77.66 L62.28,77.40 L62.32,77.05 L62.32,69.33 L62.25,69.87 L62.19,69.87 Z" fill="#32bedd" stroke="#1e1e1e" stroke-width="1" stroke-linejoin="round"/><path d="M57.25,62.40 L59.42,63.93 L60.97,65.63 L61.91,67.43 L62.23,69.30 L61.93,71.16 L61.01,72.97 L59.48,74.67 L57.33,76.20 L53.53,77.77 L49.52,78.73 L45.42,79.06 L41.31,78.73 L37.31,77.77 L33.50,76.20 L31.34,74.67 L29.79,72.97 L28.85,71.16 L28.53,69.29 L28.83,67.43 L29.75,65.62 L31.28,63.92 L33.43,62.39 L37.24,60.82 L41.24,59.86 L45.34,59.54 L49.45,59.86 L53.45,60.82 L57.25,62.40 L57.25,62.40 Z" fill="#50e6ff" stroke="#1e1e1e" stroke-width="1" stroke-linejoin="round"/><path d="M89.25,78.79 L89.19,79.33 L89.09,79.75 L88.94,80.26 L88.77,80.67 L88.53,81.21 L88.10,81.92 L88.02,82.03 L87.49,82.72 L87.38,82.85 L86.67,83.54 L86.41,83.76 L86.14,83.97 L85.67,84.34 L85.06,84.74 L84.42,85.15 L83.63,85.58 L82.82,85.96 L82.29,86.17 L80.97,86.67 L80.49,86.83 L79.62,87.08 L78.95,87.26 L78.02,87.46 L77.38,87.58 L75.46,87.85 L74.86,87.90 L73.72,87.98 L71.30,87.98 L70.44,87.93 L69.66,87.86 L68.82,87.77 L68.07,87.66 L67.18,87.50 L66.49,87.36 L65.42,87.10 L64.84,86.94 L63.03,86.33 L62.18,85.97 L61.75,85.78 L60.51,85.14 L58.61,83.97 L57.09,82.35 L56.04,80.38 L55.54,78.21 L55.54,85.70 L56.04,87.87 L57.09,89.84 L58.61,91.47 L60.51,92.63 L61.75,93.27 L62.18,93.46 L62.94,93.79 L63.03,93.82 L64.84,94.43 L64.99,94.49 L65.41,94.59 L66.48,94.86 L66.76,94.92 L67.18,95.00 L68.08,95.16 L68.43,95.22 L68.83,95.26 L69.67,95.36 L70.07,95.40 L70.45,95.40 L71.30,95.45 L73.73,95.45 L74.86,95.37 L75.32,95.34 L75.47,95.34 L77.39,95.07 L77.48,95.07 L78.01,94.95 L78.94,94.76 L79.60,94.58 L80.47,94.33 L80.66,94.28 L80.95,94.17 L82.28,93.66 L82.81,93.46 L83.62,93.08 L84.41,92.66 L84.62,92.53 L85.05,92.25 L85.66,91.84 L86.13,91.47 L86.66,91.04 L86.77,90.95 L87.08,90.65 L87.38,90.34 L87.48,90.21 L87.80,89.83 L88.03,89.53 L88.11,89.42 L88.49,88.89 L88.55,88.76 L88.79,88.22 L88.94,87.91 L88.94,87.81 L89.08,87.30 L89.19,86.97 L89.19,86.87 L89.24,86.34 L89.28,85.99 L89.28,78.37 L89.27,78.84 L89.25,78.79 Z" fill="#32bedd" stroke="#1e1e1e" stroke-width="1" stroke-linejoin="round"/><path d="M84.27,71.36 L86.27,72.40 L87.85,74.00 L88.88,76.01 L89.24,78.23 L88.90,80.46 L87.90,82.48 L86.33,84.10 L84.34,85.16 L80.54,86.73 L76.53,87.69 L72.43,88.02 L68.32,87.69 L64.32,86.73 L60.51,85.16 L58.35,83.63 L56.80,81.93 L55.86,80.12 L55.54,78.25 L55.84,76.39 L56.76,74.58 L58.29,72.88 L60.44,71.35 L64.25,69.78 L68.25,68.82 L72.36,68.50 L76.46,68.82 L80.46,69.78 L84.27,71.36 L84.27,71.36 Z" fill="#50e6ff" stroke="#1e1e1e" stroke-width="1" stroke-linejoin="round"/><path d="M89.29,61.97 L89.25,62.46 L89.19,63.00 L89.09,63.42 L88.94,63.93 L88.77,64.34 L88.53,64.87 L88.10,65.58 L88.02,65.69 L87.49,66.38 L87.38,66.51 L87.03,66.87 L86.67,67.21 L86.41,67.43 L86.14,67.64 L85.66,68.01 L85.06,68.41 L84.42,68.83 L83.63,69.25 L82.82,69.63 L82.28,69.84 L80.95,70.34 L80.42,70.50 L79.55,70.75 L78.89,70.93 L77.95,71.13 L77.31,71.25 L75.39,71.52 L74.79,71.57 L73.65,71.65 L71.23,71.65 L70.38,71.59 L69.60,71.53 L68.76,71.43 L68.01,71.33 L67.11,71.17 L66.42,71.03 L65.35,70.76 L64.78,70.60 L62.97,69.99 L62.11,69.63 L61.67,69.45 L60.44,68.81 L58.54,67.64 L57.01,66.01 L55.96,64.05 L55.46,61.87 L55.46,69.37 L55.96,71.54 L57.01,73.51 L58.54,75.14 L60.44,76.30 L61.67,76.94 L62.10,77.13 L62.86,77.46 L62.95,77.49 L64.77,78.10 L64.91,78.15 L65.34,78.26 L66.41,78.52 L66.69,78.59 L67.10,78.66 L68.00,78.82 L68.36,78.89 L68.75,78.93 L69.59,79.02 L69.99,79.07 L70.37,79.07 L71.22,79.11 L73.64,79.11 L74.78,79.03 L75.24,79.00 L75.38,79.00 L77.30,78.74 L77.40,78.74 L77.93,78.62 L78.86,78.42 L79.52,78.24 L80.39,77.99 L80.58,77.94 L80.87,77.83 L82.21,77.33 L82.74,77.12 L83.55,76.74 L84.34,76.31 L84.54,76.20 L84.98,75.90 L85.58,75.50 L86.06,75.13 L86.60,74.70 L86.70,74.61 L87.02,74.32 L87.31,74.01 L87.42,73.88 L87.74,73.49 L87.97,73.18 L88.05,73.08 L88.24,72.79 L88.42,72.49 L88.48,72.36 L88.73,71.83 L88.87,71.53 L88.87,71.42 L88.95,71.17 L89.01,70.91 L89.12,70.58 L89.12,70.49 L89.17,69.95 L89.21,69.61 L89.21,69.46 L89.29,61.97 Z" fill="#32bedd" stroke="#1e1e1e" stroke-width="1" stroke-linejoin="round"/><path d="M72.47,52.16 L74.12,52.21 L75.76,52.36 L77.36,52.59 L78.92,52.92 L80.41,53.33 L81.83,53.83 L83.15,54.41 L84.38,55.05 L85.49,55.76 L86.47,56.54 L87.32,57.36 L88.02,58.23 L88.58,59.13 L88.97,60.06 L89.21,61.01 L89.29,61.97 L89.21,62.92 L88.96,63.87 L88.56,64.80 L88.00,65.70 L87.29,66.56 L86.44,67.38 L85.45,68.15 L84.34,68.85 L83.11,69.49 L81.78,70.06 L80.36,70.55 L78.87,70.95 L77.31,71.27 L75.70,71.50 L74.07,71.64 L72.42,71.68 L70.77,71.63 L69.13,71.48 L67.53,71.25 L65.97,70.92 L64.48,70.50 L63.06,70.01 L61.74,69.43 L60.51,68.79 L59.40,68.07 L58.42,67.30 L57.57,66.48 L56.87,65.61 L56.31,64.71 L55.91,63.78 L55.68,62.83 L55.60,61.87 L55.68,60.92 L55.93,59.97 L56.33,59.04 L56.89,58.14 L57.60,57.28 L58.45,56.46 L59.44,55.69 L60.55,54.98 L61.78,54.34 L63.11,53.78 L64.53,53.29 L66.02,52.88 L67.58,52.57 L69.18,52.34 L70.82,52.20 L72.47,52.16 Z" fill="#50e6ff" stroke="#1e1e1e" stroke-width="1" stroke-linejoin="round"/></svg>