<svg xmlns="http://www.w3.org/2000/svg" viewBox="4.78 -1.50 87.49 100.00"><path d="M71.58,19.45 L71.58,57.16 L39.18,76.10 L39.18,38.34 L71.58,19.45 L71.58,19.45 Z" fill="#773adc" stroke="#1e1e1e" stroke-width="1" stroke-linejoin="round"/><path d="M71.58,19.45 L39.19,38.39 L6.84,19.44 L39.19,0.50 L71.58,19.45 L71.58,19.45 Z" fill="#b796f9" stroke="#1e1e1e" stroke-width="1" stroke-linejoin="round"/><path d="M39.18,38.39 L39.18,76.10 L6.78,57.16 L6.78,19.45 L39.19,38.40 L39.18,38.39 Z" fill="#a67af4" stroke="#1e1e1e" stroke-width="1" stroke-linejoin="round"/><path d="M62.87,70.64 L62.81,71.18 L62.70,71.61 L62.55,72.12 L62.38,72.53 L62.13,73.07 L61.92,73.43 L61.70,73.79 L61.61,73.90 L61.35,74.25 L61.07,74.59 L60.96,74.73 L60.25,75.43 L59.98,75.65 L59.71,75.86 L59.22,76.24 L58.61,76.65 L57.96,77.06 L57.17,77.49 L56.35,77.88 L55.81,78.08 L54.46,78.59 L53.92,78.75 L53.04,79.00 L52.37,79.18 L51.43,79.39 L50.78,79.52 L48.84,79.79 L48.23,79.84 L47.09,79.92 L44.75,79.92 L43.89,79.88 L42.30,79.69 L41.53,79.59 L40.63,79.42 L39.93,79.28 L38.85,79.02 L38.27,78.86 L36.43,78.24 L35.57,77.88 L35.14,77.69 L33.89,77.04 L31.97,75.86 L30.43,74.22 L29.37,72.23 L28.86,70.03 L28.86,77.61 L29.37,79.81 L30.43,81.80 L31.97,83.44 L33.89,84.62 L35.14,85.27 L35.58,85.46 L36.34,85.80 L36.43,85.83 L38.41,86.49 L38.84,86.60 L39.92,86.86 L40.20,86.93 L40.63,87.01 L41.53,87.17 L41.89,87.22 L42.30,87.28 L43.14,87.37 L43.55,87.42 L43.93,87.42 L44.80,87.46 L47.25,87.46 L48.40,87.38 L49.00,87.38 L50.94,87.11 L51.04,87.11 L51.57,87.01 L52.52,86.80 L53.19,86.62 L54.07,86.37 L54.25,86.32 L54.56,86.21 L55.90,85.70 L56.44,85.50 L58.06,84.69 L58.28,84.56 L58.71,84.27 L59.32,83.86 L59.80,83.49 L60.34,83.05 L60.44,82.97 L61.06,82.35 L61.17,82.22 L61.49,81.84 L61.61,81.68 L61.72,81.52 L61.80,81.41 L62.18,80.82 L62.24,80.69 L62.37,80.43 L62.48,80.15 L62.63,79.84 L62.66,79.73 L62.74,79.48 L62.81,79.23 L62.90,78.88 L62.90,78.79 L62.94,78.52 L62.97,78.25 L63.01,77.90 L63.01,70.10 L62.94,70.64 L62.87,70.64 Z" fill="#32bedd" stroke="#1e1e1e" stroke-width="1" stroke-linejoin="round"/><path d="M57.88,63.09 L60.08,64.63 L61.64,66.35 L62.59,68.18 L62.91,70.06 L62.61,71.95 L61.69,73.77 L60.14,75.49 L57.96,77.04 L54.12,78.63 L50.07,79.60 L45.92,79.93 L41.77,79.60 L37.72,78.63 L33.87,77.04 L31.68,75.49 L30.11,73.77 L29.17,71.94 L28.85,70.06 L29.15,68.17 L30.08,66.34 L31.63,64.63 L33.80,63.08 L37.65,61.49 L41.69,60.52 L45.84,60.19 L49.99,60.52 L54.04,61.49 L57.88,63.09 L57.88,63.09 Z" fill="#50e6ff" stroke="#1e1e1e" stroke-width="1" stroke-linejoin="round"/><path d="M90.23,79.66 L90.18,80.20 L90.07,80.63 L89.92,81.14 L89.75,81.56 L89.50,82.10 L89.07,82.82 L88.99,82.93 L88.45,83.63 L88.34,83.76 L87.63,84.46 L87.36,84.68 L87.09,84.89 L86.61,85.27 L86.00,85.67 L85.35,86.09 L84.55,86.52 L83.73,86.90 L83.19,87.12 L81.86,87.63 L81.37,87.79 L80.49,88.04 L79.82,88.22 L78.88,88.42 L78.23,88.55 L76.29,88.82 L75.68,88.87 L74.53,88.95 L72.08,88.95 L71.22,88.89 L70.43,88.83 L69.58,88.73 L68.82,88.62 L67.92,88.46 L67.22,88.32 L66.14,88.06 L65.56,87.90 L63.72,87.28 L62.86,86.91 L62.43,86.73 L61.18,86.08 L59.26,84.90 L57.71,83.26 L56.65,81.27 L56.15,79.07 L56.15,86.64 L56.65,88.84 L57.71,90.83 L59.26,92.47 L61.18,93.65 L62.43,94.30 L62.86,94.49 L63.63,94.82 L63.72,94.86 L65.56,95.47 L65.70,95.53 L66.13,95.63 L67.21,95.90 L67.49,95.97 L67.92,96.04 L68.83,96.20 L69.19,96.27 L69.59,96.31 L70.44,96.41 L70.85,96.45 L71.22,96.45 L72.09,96.50 L74.54,96.50 L75.69,96.42 L76.15,96.39 L76.30,96.39 L78.24,96.12 L78.33,96.12 L78.87,96.00 L79.81,95.80 L80.48,95.62 L81.36,95.37 L81.54,95.32 L81.85,95.21 L83.18,94.70 L83.72,94.49 L84.54,94.10 L85.34,93.68 L85.56,93.55 L85.99,93.26 L86.60,92.85 L87.08,92.47 L87.62,92.04 L87.72,91.95 L88.04,91.65 L88.34,91.34 L88.45,91.20 L88.77,90.82 L89.00,90.51 L89.08,90.40 L89.46,89.86 L89.52,89.73 L89.77,89.20 L89.92,88.88 L89.92,88.77 L90.06,88.26 L90.17,87.92 L90.17,87.83 L90.23,87.29 L90.26,86.94 L90.26,79.24 L90.26,79.71 L90.23,79.66 Z" fill="#32bedd" stroke="#1e1e1e" stroke-width="1" stroke-linejoin="round"/><path d="M85.19,72.15 L87.22,73.20 L88.82,74.81 L89.85,76.84 L90.22,79.09 L89.88,81.35 L88.87,83.39 L87.28,85.02 L85.27,86.09 L81.42,87.69 L77.37,88.66 L73.22,88.99 L69.07,88.66 L65.02,87.69 L61.18,86.09 L58.99,84.55 L57.42,82.83 L56.48,81.00 L56.15,79.12 L56.46,77.23 L57.38,75.40 L58.93,73.69 L61.11,72.14 L64.95,70.55 L69.00,69.58 L73.15,69.25 L77.30,69.58 L81.35,70.55 L85.19,72.15 L85.19,72.15 Z" fill="#50e6ff" stroke="#1e1e1e" stroke-width="1" stroke-linejoin="round"/><path d="M90.27,62.66 L90.23,63.15 L90.18,63.69 L90.07,64.12 L89.92,64.63 L89.75,65.04 L89.50,65.58 L89.07,66.31 L88.99,66.41 L88.45,67.11 L88.34,67.24 L87.99,67.61 L87.63,67.95 L87.36,68.17 L87.09,68.38 L86.60,68.76 L85.99,69.16 L85.35,69.58 L84.55,70.01 L83.73,70.39 L83.19,70.61 L81.84,71.12 L81.30,71.28 L80.42,71.53 L79.75,71.71 L78.81,71.91 L78.16,72.04 L76.22,72.31 L75.61,72.36 L74.46,72.44 L72.02,72.44 L71.15,72.38 L70.37,72.32 L69.51,72.22 L68.76,72.11 L67.85,71.95 L67.15,71.81 L66.07,71.54 L65.49,71.38 L63.66,70.77 L62.80,70.40 L62.35,70.21 L61.10,69.56 L59.18,68.38 L57.64,66.74 L56.58,64.75 L56.07,62.55 L56.07,70.13 L56.58,72.33 L57.64,74.32 L59.18,75.96 L61.10,77.14 L62.35,77.79 L62.78,77.98 L63.56,78.31 L63.65,78.35 L65.48,78.96 L65.63,79.02 L66.06,79.12 L67.14,79.38 L67.42,79.45 L67.84,79.53 L68.75,79.69 L69.11,79.75 L69.51,79.80 L70.36,79.89 L70.77,79.94 L71.14,79.94 L72.01,79.98 L74.45,79.98 L75.61,79.90 L76.07,79.87 L76.21,79.87 L78.15,79.60 L78.25,79.60 L78.79,79.48 L79.73,79.28 L80.40,79.10 L81.28,78.85 L81.47,78.80 L81.76,78.69 L83.11,78.18 L83.65,77.97 L84.47,77.58 L85.27,77.15 L85.47,77.04 L85.92,76.74 L86.53,76.34 L87.01,75.96 L87.55,75.53 L87.66,75.43 L87.97,75.13 L88.27,74.82 L88.38,74.69 L88.70,74.30 L88.94,73.99 L89.02,73.88 L89.21,73.59 L89.39,73.29 L89.45,73.16 L89.70,72.62 L89.85,72.31 L89.85,72.20 L89.93,71.95 L89.99,71.69 L90.10,71.35 L90.10,71.26 L90.16,70.72 L90.19,70.38 L90.19,70.23 L90.27,62.66 Z" fill="#32bedd" stroke="#1e1e1e" stroke-width="1" stroke-linejoin="round"/><path d="M73.27,52.73 L74.94,52.79 L76.59,52.93 L78.21,53.17 L79.79,53.50 L81.30,53.92 L82.73,54.42 L84.07,55.00 L85.31,55.66 L86.43,56.38 L87.42,57.16 L88.28,57.99 L88.99,58.87 L89.55,59.78 L89.95,60.72 L90.20,61.68 L90.28,62.65 L90.19,63.62 L89.94,64.57 L89.53,65.51 L88.97,66.42 L88.25,67.29 L87.39,68.12 L86.39,68.90 L85.27,69.61 L84.03,70.26 L82.68,70.83 L81.25,71.33 L79.73,71.74 L78.16,72.06 L76.54,72.29 L74.88,72.43 L73.21,72.47 L71.54,72.42 L69.89,72.27 L68.27,72.03 L66.70,71.70 L65.19,71.28 L63.76,70.78 L62.41,70.20 L61.18,69.54 L60.06,68.82 L59.06,68.04 L58.21,67.21 L57.49,66.33 L56.93,65.42 L56.53,64.48 L56.29,63.52 L56.21,62.55 L56.29,61.59 L56.54,60.63 L56.95,59.69 L57.52,58.78 L58.23,57.91 L59.09,57.08 L60.09,56.30 L61.22,55.59 L62.46,54.94 L63.80,54.37 L65.24,53.88 L66.75,53.47 L68.32,53.14 L69.95,52.91 L71.60,52.78 L73.27,52.73 Z" fill="#50e6ff" stroke="#1e1e1e" stroke-width="1" stroke-linejoin="round"/></svg>