<svg xmlns="http://www.w3.org/2000/svg" viewBox="-2.00 -1.52 100.00 99.04"><path d="M70.03,12.80 L70.03,37.28 L48.96,49.60 L48.96,25.07 L70.03,12.80 Z" fill="#773adc" stroke="#1e1e1e" stroke-width="1" stroke-linejoin="round"/><path d="M61.07,25.12 L62.14,24.62 L63.14,24.39 L64.04,24.43 L64.83,24.71 L65.49,25.24 L65.98,25.98 L66.29,26.94 L66.40,28.11 L65.93,30.81 L64.84,33.34 L63.19,35.53 L61.07,37.28 L60.00,37.78 L59.00,38.00 L58.09,37.97 L57.30,37.68 L56.65,37.15 L56.15,36.39 L55.84,35.42 L55.73,34.24 L56.21,31.54 L57.30,29.04 L58.95,26.85 L61.07,25.12 L61.07,25.12 Z" fill="#552f99" stroke="#552f99" stroke-width="1" stroke-linejoin="round"/><path d="M42.13,58.67 L42.13,83.15 L21.07,95.47 L21.07,70.93 L42.13,58.67 Z" fill="#773adc" stroke="#1e1e1e" stroke-width="1" stroke-linejoin="round"/><path d="M31.57,72.16 L32.64,71.68 L33.64,71.46 L34.55,71.51 L35.34,71.80 L35.99,72.33 L36.49,73.07 L36.80,74.04 L36.91,75.20 L36.43,77.90 L35.34,80.42 L33.69,82.62 L31.57,84.37 L30.50,84.87 L29.50,85.09 L28.60,85.05 L27.81,84.75 L27.15,84.22 L26.66,83.47 L26.35,82.50 L26.24,81.33 L26.72,78.63 L27.81,76.11 L29.46,73.91 L31.57,72.16 L31.57,72.16 Z" fill="#552f99" stroke="#552f99" stroke-width="1" stroke-linejoin="round"/><path d="M21.07,70.93 L21.07,95.47 L0.00,83.15 L0.00,58.67 L21.07,70.93 Z" fill="#a67af4" stroke="#1e1e1e" stroke-width="1" stroke-linejoin="round"/><path d="M96.00,58.72 L96.00,83.20 L74.93,95.52 L74.93,70.99 L96.00,58.72 Z" fill="#773adc" stroke="#1e1e1e" stroke-width="1" stroke-linejoin="round"/><path d="M61.28,33.07 L64.71,34.87 L67.78,37.25 L70.38,40.12 L72.45,43.40 L73.92,46.99 L74.93,46.40 L80.27,49.49 L79.18,44.85 L77.31,40.46 L74.72,36.45 L71.48,32.95 L67.70,30.05 L63.47,27.84 L61.99,27.65 L60.61,28.23 L59.71,29.41 L59.52,30.89 L60.09,32.27 L61.28,33.17 L61.28,33.07 Z" fill="#32bedd" stroke="#1e1e1e" stroke-width="1" stroke-linejoin="round"/><path d="M74.93,71.04 L74.93,95.52 L53.87,83.20 L53.87,58.72 L74.93,71.04 Z" fill="#a67af4" stroke="#1e1e1e" stroke-width="1" stroke-linejoin="round"/><path d="M65.01,72.48 L64.00,72.02 L63.06,71.81 L62.21,71.86 L61.47,72.14 L60.85,72.64 L60.39,73.36 L60.10,74.27 L60.00,75.36 L60.44,77.92 L61.47,80.31 L63.02,82.39 L65.01,84.05 L66.02,84.52 L66.97,84.73 L67.82,84.69 L68.56,84.41 L69.17,83.91 L69.63,83.20 L69.92,82.28 L70.03,81.17 L69.58,78.61 L68.56,76.23 L67.01,74.14 L65.01,72.48 L65.01,72.48 Z" fill="#552f99" stroke="#552f99" stroke-width="1" stroke-linejoin="round"/><path d="M49.07,85.92 L44.57,85.60 L40.17,84.58 L35.98,82.90 L32.11,80.59 L31.13,79.62 L30.69,78.32 L30.90,76.96 L31.70,75.85 L32.92,75.22 L34.30,75.22 L35.52,75.84 L38.85,77.83 L42.47,79.24 L46.27,80.03 L50.14,80.17 L53.99,79.67 L57.70,78.54 L61.17,76.80 L62.63,76.36 L64.12,76.71 L65.23,77.76 L65.66,79.22 L65.31,80.70 L64.27,81.81 L60.71,83.60 L56.95,84.90 L53.04,85.67 L49.07,85.92 Z" fill="#32bedd" stroke="#1e1e1e" stroke-width="1" stroke-linejoin="round"/><path d="M70.03,12.80 L49.01,25.12 L27.95,12.80 L49.01,0.48 L70.03,12.80 Z" fill="#b796f9" stroke="#1e1e1e" stroke-width="1" stroke-linejoin="round"/><path d="M27.95,28.27 L24.56,30.87 L21.61,33.96 L19.17,37.47 L17.28,41.30 L16.00,45.38 L15.36,49.60 L21.33,46.35 L21.33,46.61 L22.80,42.53 L25.04,38.80 L27.95,35.57 L27.95,28.27 Z" fill="#32bedd" stroke="#32bedd" stroke-width="1" stroke-linejoin="round"/><path d="M96.00,58.72 L74.93,71.04 L53.87,58.72 L74.93,46.40 L96.00,58.72 Z" fill="#b796f9" stroke="#1e1e1e" stroke-width="1" stroke-linejoin="round"/><path d="M42.13,58.67 L21.07,70.93 L0.00,58.67 L21.07,46.35 L42.13,58.67 Z" fill="#b796f9" stroke="#1e1e1e" stroke-width="1" stroke-linejoin="round"/><path d="M48.96,25.12 L48.96,49.60 L27.95,37.28 L27.95,12.80 L48.96,25.12 Z" fill="#a67af4" stroke="#1e1e1e" stroke-width="1" stroke-linejoin="round"/></svg>