<svg xmlns="http://www.w3.org/2000/svg" viewBox="11.71 -2.00 72.59 100.00"><path d="M82.29,20.05 L82.29,59.95 L48.00,80.00 L48.00,40.05 L82.29,20.05 Z" fill="#773adc" stroke="#1e1e1e" stroke-width="1" stroke-linejoin="round"/><path d="M82.29,20.05 L48.00,40.11 L13.71,20.05 L48.00,0.00 L82.29,20.05 Z" fill="#b796f9" stroke="#1e1e1e" stroke-width="1" stroke-linejoin="round"/><path d="M48.00,40.11 L48.00,80.00 L13.71,59.95 L13.71,20.05 L48.00,40.11 Z" fill="#a67af4" stroke="#1e1e1e" stroke-width="1" stroke-linejoin="round"/><path d="M63.41,48.00 L48.32,32.64 L47.76,32.41 L47.20,32.64 L32.00,48.00 L31.77,48.55 L32.02,49.09 L32.59,49.28 L41.49,49.28 L42.06,49.51 L42.29,50.08 L42.29,64.00 L42.51,64.55 L43.04,64.80 L52.43,64.80 L53.06,64.61 L53.33,64.00 L53.33,49.87 L53.55,49.32 L54.08,49.07 L62.99,49.07 L63.45,48.63 L63.41,48.00 Z" fill="#ffffff" stroke="#1e1e1e" stroke-width="1" stroke-linejoin="round"/><rect x="28.85" y="62.99" width="37.44" height="33.01" fill="#38c6e4" stroke="#1e1e1e" stroke-width="1"/><path d="M43.20,86.93 L35.68,79.41 L43.04,72.05 L43.19,71.68 L43.04,71.31 L41.87,70.13 L41.49,70.01 L41.12,70.13 L32.59,78.67 L32.43,79.25 L32.59,79.84 L32.57,80.03 L32.59,80.21 L41.23,88.85 L41.60,89.01 L41.97,88.85 L43.15,87.68 L43.33,87.32 L43.20,86.93 Z" fill="#ffffff" stroke="#ffffff" stroke-width="1" stroke-linejoin="round"/><path d="M64.00,78.67 L55.52,70.13 L55.15,70.01 L54.77,70.13 L53.60,71.31 L53.45,71.68 L53.60,72.05 L60.91,79.41 L53.33,86.93 L53.18,87.31 L53.33,87.68 L54.51,88.85 L54.88,89.01 L55.25,88.85 L64.00,80.00 L64.00,80.00 L64.23,79.33 L64.00,78.67 Z" fill="#ffffff" stroke="#ffffff" stroke-width="1" stroke-linejoin="round"/></svg>