<svg xmlns="http://www.w3.org/2000/svg" viewBox="-0.92 -1.19 99.46 100.00"><path d="M65.63,11.12 L65.63,31.73 L48.27,42.03 L48.27,21.42 L65.63,11.12 Z" fill="#773adc" stroke="#1e1e1e" stroke-width="1" stroke-linejoin="round"/><path d="M58.03,22.03 L58.88,21.61 L59.63,21.40 L60.28,21.40 L60.83,21.61 L61.26,22.03 L61.57,22.63 L61.83,24.41 L61.19,26.95 L59.90,29.23 L58.03,31.07 L57.32,31.50 L56.64,31.70 L56.00,31.70 L55.42,31.49 L54.94,31.08 L54.56,30.47 L54.32,29.67 L54.24,28.69 L54.87,26.15 L56.17,23.87 L58.03,22.03 L58.03,22.03 Z" fill="#552f99" stroke="#552f99" stroke-width="1" stroke-linejoin="round"/><path d="M65.63,11.12 L48.27,21.42 L30.37,11.12 L48.27,0.81 L65.63,11.12 Z" fill="#b796f9" stroke="#1e1e1e" stroke-width="1" stroke-linejoin="round"/><path d="M48.27,21.42 L48.27,42.03 L30.37,31.73 L30.37,11.12 L48.27,21.42 Z" fill="#a67af4" stroke="#1e1e1e" stroke-width="1" stroke-linejoin="round"/><path d="M38.60,21.97 L37.79,21.66 L37.00,21.54 L36.27,21.60 L35.61,21.83 L35.06,22.21 L34.63,22.73 L34.35,23.37 L34.26,24.14 L34.54,26.29 L35.42,28.28 L36.80,29.96 L38.60,31.19 L39.40,31.49 L40.19,31.61 L40.92,31.55 L41.58,31.32 L42.13,30.94 L42.56,30.42 L42.84,29.78 L42.93,29.02 L42.53,26.91 L41.63,24.96 L40.29,23.28 L38.60,21.97 L38.60,21.97 Z" fill="#773adc" stroke="#773adc" stroke-width="1" stroke-linejoin="round"/><path d="M96.54,38.24 L96.54,58.85 L79.19,69.15 L79.19,48.54 L96.54,38.24 Z" fill="#5e9624" stroke="#1e1e1e" stroke-width="1" stroke-linejoin="round"/><path d="M79.19,48.54 L79.19,69.15 L61.83,58.85 L61.83,38.24 L79.19,48.54 Z" fill="#76bc2d" stroke="#1e1e1e" stroke-width="1" stroke-linejoin="round"/><path d="M71.05,50.17 L70.24,49.86 L69.46,49.75 L68.72,49.81 L68.07,50.03 L67.51,50.41 L67.08,50.93 L66.81,51.58 L66.71,52.34 L67.00,54.49 L67.87,56.49 L69.26,58.16 L71.05,59.39 L71.86,59.70 L72.64,59.81 L73.38,59.75 L74.03,59.53 L74.59,59.15 L75.02,58.63 L75.29,57.98 L75.39,57.22 L74.98,55.11 L74.08,53.16 L72.75,51.48 L71.05,50.17 L71.05,50.17 Z" fill="#5e9624" stroke="#5e9624" stroke-width="1" stroke-linejoin="round"/><path d="M71.25,32.94 L68.17,29.82 L64.64,27.23 L60.75,25.22 L59.23,25.00 L57.83,25.60 L56.95,26.85 L56.81,28.19 L57.41,29.41 L58.58,30.10 L61.46,31.56 L64.12,33.41 L66.49,35.62 L71.25,32.94 Z" fill="#32bedd" stroke="#32bedd" stroke-width="1" stroke-linejoin="round"/><path d="M71.24,43.82 L71.59,44.75 L72.24,44.42 L71.24,43.82 Z" fill="#32bedd" stroke="#32bedd" stroke-width="1" stroke-linejoin="round"/><path d="M36.34,39.32 L36.34,59.39 L18.44,69.69 L18.44,49.63 L36.34,39.32 Z" fill="#258277" stroke="#1e1e1e" stroke-width="1" stroke-linejoin="round"/><path d="M18.44,49.63 L18.44,69.69 L1.08,59.39 L1.08,39.32 L18.44,49.63 Z" fill="#37c2b1" stroke="#1e1e1e" stroke-width="1" stroke-linejoin="round"/><path d="M40.14,26.85 L39.00,25.63 L37.45,25.05 L35.80,25.22 L32.12,27.47 L28.75,30.15 L25.72,33.21 L31.46,36.50 L34.75,33.53 L38.51,31.19 L39.72,30.05 L40.30,28.50 L40.14,26.85 L40.14,26.85 Z" fill="#32bedd" stroke="#32bedd" stroke-width="1" stroke-linejoin="round"/><path d="M67.25,65.90 L67.25,86.51 L49.90,96.81 L49.90,76.20 L67.25,65.90 Z" fill="#d15900" stroke="#1e1e1e" stroke-width="1" stroke-linejoin="round"/><path d="M49.90,76.20 L49.90,96.81 L32.54,86.51 L32.54,65.90 L49.90,76.20 Z" fill="#f78d1e" stroke="#1e1e1e" stroke-width="1" stroke-linejoin="round"/><path d="M71.59,54.51 L70.53,53.87 L69.30,53.75 L68.13,54.17 L67.25,55.05 L63.90,58.63 L59.99,61.59 L65.23,64.69 L68.89,62.01 L72.14,58.85 L72.77,57.78 L72.89,56.55 L72.47,55.38 L71.59,54.51 Z" fill="#32bedd" stroke="#32bedd" stroke-width="1" stroke-linejoin="round"/><path d="M28.27,49.83 L29.16,49.44 L29.98,49.27 L30.71,49.31 L31.33,49.55 L31.84,49.98 L32.22,50.59 L32.46,51.37 L32.54,52.31 L32.14,54.48 L31.26,56.51 L29.95,58.29 L28.27,59.73 L27.38,60.12 L26.56,60.29 L25.83,60.25 L25.21,60.01 L24.70,59.58 L24.32,58.97 L24.08,58.19 L24.00,57.25 L24.35,55.06 L25.22,53.02 L26.55,51.24 L28.27,49.83 L28.27,49.83 Z" fill="#207067" stroke="#207067" stroke-width="1" stroke-linejoin="round"/><path d="M40.26,61.32 L36.97,59.53 L34.01,57.24 L31.46,54.51 L30.58,53.65 L29.41,53.23 L28.19,53.35 L27.12,53.97 L26.26,54.85 L25.84,56.01 L25.96,57.24 L26.58,58.31 L30.03,61.97 L34.06,65.00 L40.26,61.32 Z" fill="#32bedd" stroke="#32bedd" stroke-width="1" stroke-linejoin="round"/><path d="M67.25,65.90 L49.90,76.20 L32.54,65.90 L49.90,55.59 L67.25,65.90 Z" fill="#ffb34d" stroke="#1e1e1e" stroke-width="1" stroke-linejoin="round"/><path d="M36.34,39.32 L18.44,49.63 L1.08,39.32 L18.44,29.02 L36.34,39.32 Z" fill="#42e8ca" stroke="#1e1e1e" stroke-width="1" stroke-linejoin="round"/><path d="M96.54,38.24 L79.19,48.54 L61.83,38.24 L79.19,28.47 L96.54,38.24 Z" fill="#b4ec36" stroke="#1e1e1e" stroke-width="1" stroke-linejoin="round"/></svg>