<svg xmlns="http://www.w3.org/2000/svg" viewBox="-0.93 -1.20 97.87 98.40"><path d="M64.53,10.93 L64.53,31.20 L47.47,41.33 L47.47,21.07 L64.53,10.93 Z" fill="#773adc" stroke="#1e1e1e" stroke-width="1" stroke-linejoin="round"/><path d="M57.07,21.66 L57.90,21.25 L58.64,21.04 L59.28,21.05 L59.81,21.25 L60.24,21.66 L60.55,22.26 L60.80,24.01 L60.17,26.50 L58.90,28.74 L57.07,30.55 L56.37,30.97 L55.69,31.18 L55.06,31.17 L54.50,30.96 L54.02,30.56 L53.65,29.96 L53.42,29.18 L53.33,28.21 L53.96,25.71 L55.23,23.48 L57.07,21.66 L57.07,21.66 Z" fill="#552f99" stroke="#552f99" stroke-width="1" stroke-linejoin="round"/><path d="M64.53,10.93 L47.47,21.07 L29.87,10.93 L47.47,0.80 L64.53,10.93 Z" fill="#b796f9" stroke="#1e1e1e" stroke-width="1" stroke-linejoin="round"/><path d="M47.47,21.07 L47.47,41.33 L29.87,31.20 L29.87,10.93 L47.47,21.07 Z" fill="#a67af4" stroke="#1e1e1e" stroke-width="1" stroke-linejoin="round"/><path d="M37.95,21.60 L37.16,21.30 L36.39,21.18 L35.66,21.24 L35.02,21.47 L34.47,21.84 L34.05,22.35 L33.78,22.99 L33.69,23.73 L33.97,25.85 L34.83,27.81 L36.19,29.46 L37.95,30.67 L38.75,30.97 L39.52,31.08 L40.24,31.02 L40.89,30.80 L41.43,30.43 L41.85,29.92 L42.12,29.28 L42.22,28.53 L41.82,26.46 L40.93,24.54 L39.62,22.89 L37.95,21.60 L37.95,21.60 Z" fill="#773adc" stroke="#773adc" stroke-width="1" stroke-linejoin="round"/><path d="M94.93,37.60 L94.93,57.87 L77.87,68.00 L77.87,47.73 L94.93,37.60 Z" fill="#5e9624" stroke="#1e1e1e" stroke-width="1" stroke-linejoin="round"/><path d="M77.87,47.73 L77.87,68.00 L60.80,57.87 L60.80,37.60 L77.87,47.73 Z" fill="#76bc2d" stroke="#1e1e1e" stroke-width="1" stroke-linejoin="round"/><path d="M69.87,49.33 L69.07,49.03 L68.30,48.92 L67.58,48.98 L66.93,49.20 L66.39,49.57 L65.97,50.08 L65.70,50.72 L65.60,51.47 L65.88,53.59 L66.74,55.54 L68.10,57.19 L69.87,58.40 L70.66,58.70 L71.43,58.82 L72.15,58.76 L72.80,58.53 L73.35,58.16 L73.77,57.65 L74.04,57.01 L74.13,56.27 L73.73,54.19 L72.85,52.28 L71.53,50.63 L69.87,49.33 L69.87,49.33 Z" fill="#5e9624" stroke="#5e9624" stroke-width="1" stroke-linejoin="round"/><path d="M70.06,32.39 L67.03,29.33 L63.56,26.78 L59.73,24.80 L58.25,24.58 L56.87,25.17 L56.00,26.40 L55.86,27.72 L56.46,28.92 L57.60,29.60 L60.44,31.04 L63.05,32.86 L65.38,35.02 L70.06,32.39 Z" fill="#32bedd" stroke="#32bedd" stroke-width="1" stroke-linejoin="round"/><path d="M70.05,43.09 L70.40,44.00 L71.04,43.68 L70.05,43.09 Z" fill="#32bedd" stroke="#32bedd" stroke-width="1" stroke-linejoin="round"/><path d="M35.73,38.67 L35.73,58.40 L18.13,68.53 L18.13,48.80 L35.73,38.67 Z" fill="#258277" stroke="#1e1e1e" stroke-width="1" stroke-linejoin="round"/><path d="M18.13,48.80 L18.13,68.53 L1.07,58.40 L1.07,38.67 L18.13,48.80 Z" fill="#37c2b1" stroke="#1e1e1e" stroke-width="1" stroke-linejoin="round"/><path d="M39.47,26.40 L38.35,25.21 L36.82,24.63 L35.20,24.80 L31.59,27.01 L28.27,29.65 L25.29,32.66 L30.93,35.89 L34.17,32.97 L37.87,30.67 L39.06,29.55 L39.63,28.02 L39.47,26.40 L39.47,26.40 Z" fill="#32bedd" stroke="#32bedd" stroke-width="1" stroke-linejoin="round"/><path d="M66.13,64.80 L66.13,85.07 L49.07,95.20 L49.07,74.93 L66.13,64.80 Z" fill="#d15900" stroke="#1e1e1e" stroke-width="1" stroke-linejoin="round"/><path d="M49.07,74.93 L49.07,95.20 L32.00,85.07 L32.00,64.80 L49.07,74.93 Z" fill="#f78d1e" stroke="#1e1e1e" stroke-width="1" stroke-linejoin="round"/><path d="M70.40,53.60 L69.35,52.97 L68.14,52.86 L66.99,53.27 L66.13,54.13 L62.84,57.65 L58.99,60.56 L64.14,63.62 L67.74,60.98 L70.93,57.87 L71.56,56.82 L71.68,55.61 L71.26,54.46 L70.40,53.60 Z" fill="#32bedd" stroke="#32bedd" stroke-width="1" stroke-linejoin="round"/><path d="M27.80,49.00 L28.68,48.62 L29.48,48.45 L30.20,48.49 L30.81,48.73 L31.31,49.15 L31.69,49.75 L31.92,50.51 L32.00,51.43 L31.60,53.57 L30.74,55.57 L29.45,57.31 L27.80,58.73 L26.92,59.12 L26.12,59.28 L25.40,59.24 L24.79,59.01 L24.29,58.58 L23.91,57.98 L23.68,57.22 L23.60,56.30 L23.95,54.14 L24.80,52.13 L26.11,50.39 L27.80,49.00 L27.80,49.00 Z" fill="#207067" stroke="#207067" stroke-width="1" stroke-linejoin="round"/><path d="M39.59,60.29 L36.35,58.54 L33.44,56.29 L30.93,53.60 L30.07,52.75 L28.92,52.35 L27.72,52.46 L26.67,53.07 L25.82,53.93 L25.41,55.08 L25.53,56.28 L26.13,57.33 L29.53,60.94 L33.49,63.92 L39.59,60.29 Z" fill="#32bedd" stroke="#32bedd" stroke-width="1" stroke-linejoin="round"/><path d="M66.13,64.80 L49.07,74.93 L32.00,64.80 L49.07,54.67 L66.13,64.80 Z" fill="#ffb34d" stroke="#1e1e1e" stroke-width="1" stroke-linejoin="round"/><path d="M35.73,38.67 L18.13,48.80 L1.07,38.67 L18.13,28.53 L35.73,38.67 Z" fill="#42e8ca" stroke="#1e1e1e" stroke-width="1" stroke-linejoin="round"/><path d="M94.93,37.60 L77.87,47.73 L60.80,37.60 L77.87,28.00 L94.93,37.60 Z" fill="#b4ec36" stroke="#1e1e1e" stroke-width="1" stroke-linejoin="round"/></svg>