<svg xmlns="http://www.w3.org/2000/svg" viewBox="-1.90 2.42 100.00 91.05"><path d="M78.22,22.00 L78.22,57.01 L48.17,74.54 L48.17,39.53 L78.22,22.00 Z" fill="#773adc" stroke="#1e1e1e" stroke-width="1" stroke-linejoin="round"/><path d="M78.22,22.00 L48.17,39.59 L18.12,22.00 L48.17,4.42 L78.22,22.00 Z" fill="#b796f9" stroke="#1e1e1e" stroke-width="1" stroke-linejoin="round"/><path d="M48.17,39.59 L48.17,74.54 L18.12,57.01 L18.12,22.00 L48.17,39.59 Z" fill="#a67af4" stroke="#1e1e1e" stroke-width="1" stroke-linejoin="round"/><path d="M32.29,40.07 L30.85,39.42 L29.51,39.13 L28.30,39.19 L27.24,39.58 L26.37,40.29 L25.71,41.30 L25.29,42.60 L25.15,44.17 L25.58,47.09 L26.55,49.87 L28.04,52.43 L29.97,54.65 L32.29,56.48 L33.71,57.15 L35.04,57.45 L36.26,57.40 L37.32,57.01 L38.19,56.30 L38.86,55.29 L39.28,54.00 L39.43,52.43 L38.98,49.51 L37.99,46.72 L36.52,44.16 L34.59,41.92 L32.29,40.07 L32.29,40.07 Z" fill="#773adc" stroke="#773adc" stroke-width="1" stroke-linejoin="round"/><path d="M95.91,76.46 L82.11,62.60 L81.55,62.35 L80.99,62.60 L80.99,73.26 L17.90,73.26 L15.14,72.90 L12.57,71.83 L10.37,70.14 L8.67,67.93 L7.61,65.36 L7.25,62.60 L7.61,59.85 L8.67,57.28 L10.37,55.07 L12.57,53.38 L15.14,52.31 L17.90,51.95 L30.64,51.95 L32.01,51.66 L33.16,50.87 L33.94,49.70 L34.21,48.33 L33.93,46.96 L33.16,45.80 L32.00,45.03 L30.64,44.76 L17.90,44.76 L14.18,45.15 L10.62,46.30 L7.38,48.17 L4.60,50.68 L2.40,53.71 L0.88,57.13 L0.10,60.79 L0.10,64.53 L0.88,68.19 L2.40,71.61 L4.60,74.64 L7.38,77.14 L10.62,79.01 L14.18,80.17 L17.90,80.56 L80.77,80.56 L80.77,91.22 L81.33,91.47 L81.89,91.22 L95.91,77.42 L96.10,76.94 L95.91,76.46 Z" fill="#32bedd" stroke="#1e1e1e" stroke-width="1" stroke-linejoin="round"/></svg>