<svg xmlns="http://www.w3.org/2000/svg" viewBox="-1.90 2.43 100.09 91.13"><path d="M78.29,22.03 L78.29,57.07 L48.21,74.61 L48.21,39.57 L78.29,22.03 Z" fill="#773adc" stroke="#1e1e1e" stroke-width="1" stroke-linejoin="round"/><path d="M78.29,22.03 L48.21,39.63 L18.13,22.03 L48.21,4.43 L78.29,22.03 Z" fill="#b796f9" stroke="#1e1e1e" stroke-width="1" stroke-linejoin="round"/><path d="M48.21,39.63 L48.21,74.61 L18.13,57.07 L18.13,22.03 L48.21,39.63 Z" fill="#a67af4" stroke="#1e1e1e" stroke-width="1" stroke-linejoin="round"/><path d="M32.32,40.11 L30.88,39.45 L29.54,39.17 L28.32,39.23 L27.27,39.62 L26.39,40.33 L25.73,41.34 L25.32,42.64 L25.17,44.21 L25.61,47.13 L26.58,49.92 L28.06,52.48 L30.00,54.71 L32.32,56.53 L33.74,57.20 L35.08,57.50 L36.29,57.45 L37.35,57.07 L38.23,56.36 L38.90,55.35 L39.32,54.05 L39.47,52.48 L39.01,49.56 L38.03,46.77 L36.55,44.20 L34.63,41.96 L32.32,40.11 L32.32,40.11 Z" fill="#773adc" stroke="#773adc" stroke-width="1" stroke-linejoin="round"/><path d="M96.00,76.53 L82.19,62.67 L81.63,62.41 L81.07,62.67 L81.07,73.33 L17.92,73.33 L15.16,72.97 L12.59,71.90 L10.38,70.21 L8.68,68.00 L7.62,65.43 L7.25,62.67 L7.62,59.91 L8.68,57.33 L10.38,55.12 L12.59,53.43 L15.16,52.36 L17.92,52.00 L30.67,52.00 L32.04,51.71 L33.20,50.92 L33.97,49.75 L34.24,48.37 L33.97,47.01 L33.19,45.85 L32.03,45.07 L30.67,44.80 L17.92,44.80 L14.19,45.19 L10.63,46.35 L7.39,48.22 L4.60,50.73 L2.40,53.76 L0.88,57.18 L0.10,60.85 L0.10,64.59 L0.88,68.26 L2.40,71.68 L4.60,74.71 L7.39,77.22 L10.63,79.09 L14.19,80.25 L17.92,80.64 L80.85,80.64 L80.85,91.31 L81.41,91.56 L81.97,91.31 L96.00,77.49 L96.19,77.01 L96.00,76.53 Z" fill="#32bedd" stroke="#1e1e1e" stroke-width="1" stroke-linejoin="round"/></svg>