<svg xmlns="http://www.w3.org/2000/svg" viewBox="4.00 4.00 100.00 100.00"><path d="M39.60,73.20 L68.40,73.20 L68.40,102.00 L39.60,102.00 L39.60,73.20 Z" fill="#3990e4" stroke="#1e1e1e" stroke-width="1" stroke-linejoin="round"/><path d="M6.00,34.80 L34.80,34.80 L34.80,6.00 L10.02,6.00 L8.48,6.31 L7.18,7.18 L6.31,8.48 L6.00,10.02 L6.00,34.80 Z" fill="#3990e4" stroke="#1e1e1e" stroke-width="1" stroke-linejoin="round"/><path d="M10.02,102.00 L34.80,102.00 L34.80,73.20 L6.00,73.20 L6.00,97.98 L6.31,99.52 L7.18,100.82 L8.48,101.69 L10.02,102.00 L10.02,102.00 Z" fill="#3990e4" stroke="#1e1e1e" stroke-width="1" stroke-linejoin="round"/><path d="M6.00,68.40 L34.80,68.40 L34.80,39.60 L6.00,39.60 L6.00,68.40 Z" fill="#3990e4" stroke="#1e1e1e" stroke-width="1" stroke-linejoin="round"/><path d="M73.20,102.00 L97.98,102.00 L99.52,101.69 L100.82,100.82 L101.69,99.52 L102.00,97.98 L102.00,73.20 L73.20,73.20 L73.20,102.00 Z" fill="#3990e4" stroke="#1e1e1e" stroke-width="1" stroke-linejoin="round"/><path d="M39.60,68.40 L68.40,68.40 L68.40,39.60 L39.60,39.60 L39.60,68.40 Z" fill="#3990e4" stroke="#1e1e1e" stroke-width="1" stroke-linejoin="round"/><path d="M73.20,68.40 L102.00,68.40 L102.00,39.60 L73.20,39.60 L73.20,68.40 Z" fill="#3990e4" stroke="#1e1e1e" stroke-width="1" stroke-linejoin="round"/><path d="M73.20,6.00 L73.20,34.80 L102.00,34.80 L102.00,10.02 L101.69,8.48 L100.82,7.18 L99.52,6.31 L97.98,6.00 L73.20,6.00 Z" fill="#3990e4" stroke="#1e1e1e" stroke-width="1" stroke-linejoin="round"/><path d="M39.60,34.80 L68.40,34.80 L68.40,6.00 L39.60,6.00 L39.60,34.80 Z" fill="#3990e4" stroke="#1e1e1e" stroke-width="1" stroke-linejoin="round"/></svg>