<svg xmlns="http://www.w3.org/2000/svg" viewBox="3.33 3.33 89.33 89.33"><path d="M35.20,65.07 L60.80,65.07 L60.80,90.67 L35.20,90.67 L35.20,65.07 Z" fill="#3990e4" stroke="#1e1e1e" stroke-width="1" stroke-linejoin="round"/><path d="M5.33,30.93 L30.93,30.93 L30.93,5.33 L8.91,5.33 L7.54,5.61 L6.38,6.38 L5.61,7.54 L5.33,8.91 L5.33,30.93 Z" fill="#3990e4" stroke="#1e1e1e" stroke-width="1" stroke-linejoin="round"/><path d="M8.91,90.67 L30.93,90.67 L30.93,65.07 L5.33,65.07 L5.33,87.09 L5.61,88.46 L6.38,89.62 L7.54,90.39 L8.91,90.67 L8.91,90.67 Z" fill="#3990e4" stroke="#1e1e1e" stroke-width="1" stroke-linejoin="round"/><path d="M5.33,60.80 L30.93,60.80 L30.93,35.20 L5.33,35.20 L5.33,60.80 Z" fill="#3990e4" stroke="#1e1e1e" stroke-width="1" stroke-linejoin="round"/><path d="M65.07,90.67 L87.09,90.67 L88.46,90.39 L89.62,89.62 L90.39,88.46 L90.67,87.09 L90.67,65.07 L65.07,65.07 L65.07,90.67 Z" fill="#3990e4" stroke="#1e1e1e" stroke-width="1" stroke-linejoin="round"/><path d="M35.20,60.80 L60.80,60.80 L60.80,35.20 L35.20,35.20 L35.20,60.80 Z" fill="#3990e4" stroke="#1e1e1e" stroke-width="1" stroke-linejoin="round"/><path d="M65.07,60.80 L90.67,60.80 L90.67,35.20 L65.07,35.20 L65.07,60.80 Z" fill="#3990e4" stroke="#1e1e1e" stroke-width="1" stroke-linejoin="round"/><path d="M65.07,5.33 L65.07,30.93 L90.67,30.93 L90.67,8.91 L90.39,7.54 L89.62,6.38 L88.46,5.61 L87.09,5.33 L65.07,5.33 Z" fill="#3990e4" stroke="#1e1e1e" stroke-width="1" stroke-linejoin="round"/><path d="M35.20,30.93 L60.80,30.93 L60.80,5.33 L35.20,5.33 L35.20,30.93 Z" fill="#3990e4" stroke="#1e1e1e" stroke-width="1" stroke-linejoin="round"/></svg>