<svg xmlns="http://www.w3.org/2000/svg" viewBox="4.83 0.67 86.35 94.67"><rect x="6.83" y="2.67" width="54.24" height="90.61" fill="#4495e7" stroke="#1e1e1e" stroke-width="1"/><rect x="30.88" y="86.24" width="6.08" height="5.17" fill="#f2f2f2" stroke="#f2f2f2" stroke-width="1"/><rect x="27.68" y="5.71" width="12.48" height="1.65" fill="#f2f2f2" stroke="#f2f2f2" stroke-width="1"/><rect x="11.89" y="10.35" width="44.05" height="72.80" fill="#e1f5fe" stroke="#1e1e1e" stroke-width="1" opacity="0.9"/><rect x="49.07" y="53.23" width="40.11" height="40.11" fill="#76bc2d" stroke="#1e1e1e" stroke-width="1"/><path d="M67.06,81.81 L64.76,84.11 L64.05,84.41 L63.33,84.11 L54.13,74.91 L53.83,74.19 L54.13,73.48 L55.75,71.85 L56.47,71.56 L57.18,71.85 L67.10,81.77 L67.10,81.77 L67.06,81.81 Z" fill="#ffffff" stroke="#ffffff" stroke-width="1" stroke-linejoin="round"/><path d="M63.54,84.05 L61.24,81.74 L61.24,81.74 L82.36,60.63 L83.08,60.33 L83.79,60.63 L85.41,62.25 L85.71,62.96 L85.41,63.68 L65.01,84.08 L64.30,84.38 L63.58,84.08 L63.54,84.05 Z" fill="#ffffff" stroke="#1e1e1e" stroke-width="1" stroke-linejoin="round"/></svg>