<svg xmlns="http://www.w3.org/2000/svg" viewBox="-1.66 -2.00 99.32 100.00"><path d="M67.06,37.39 L66.76,41.37 L65.91,45.24 L64.58,48.99 L62.83,52.59 L60.74,56.04 L58.37,59.33 L55.80,62.43 L53.09,65.33 L50.31,68.02 L47.54,70.48 L42.27,74.68 L37.84,77.81 L34.80,79.76 L33.70,80.06 L32.60,79.76 L29.56,77.82 L25.13,74.69 L19.86,70.49 L17.09,68.03 L14.31,65.34 L11.60,62.43 L9.03,59.33 L6.66,56.05 L4.57,52.60 L2.82,48.99 L1.49,45.24 L0.64,41.37 L0.34,37.39 L0.34,11.48 L0.62,10.46 L1.37,9.71 L2.39,9.43 L5.97,9.23 L9.02,8.87 L11.61,8.36 L13.80,7.73 L15.67,7.00 L17.28,6.21 L19.98,4.51 L22.44,2.84 L25.19,1.40 L26.84,0.82 L28.77,0.38 L31.03,0.10 L33.70,0.00 L36.37,0.10 L38.64,0.38 L40.56,0.82 L42.21,1.40 L44.96,2.84 L47.42,4.51 L50.12,6.21 L51.73,7.00 L53.60,7.73 L55.79,8.36 L58.38,8.87 L61.43,9.23 L65.01,9.43 L66.03,9.71 L66.78,10.46 L67.06,11.48 L67.06,37.39 Z" fill="#86d633" stroke="#1e1e1e" stroke-width="1" stroke-linejoin="round"/><path d="M64.29,37.61 L64.02,41.26 L63.24,44.81 L62.02,48.24 L60.41,51.55 L58.50,54.71 L56.33,57.72 L53.97,60.57 L51.48,63.23 L48.94,65.69 L46.39,67.96 L41.56,71.81 L37.50,74.68 L34.71,76.46 L33.70,76.74 L32.69,76.46 L29.90,74.69 L25.84,71.82 L21.01,67.97 L18.47,65.71 L15.92,63.24 L13.44,60.58 L11.08,57.73 L8.91,54.72 L6.99,51.56 L5.39,48.25 L4.16,44.81 L3.38,41.26 L3.11,37.61 L3.11,13.87 L3.37,12.93 L4.05,12.24 L4.99,11.98 L8.27,11.80 L11.07,11.46 L13.44,10.99 L15.46,10.41 L17.17,9.75 L18.64,9.02 L21.12,7.46 L23.37,5.93 L25.90,4.60 L27.41,4.08 L29.18,3.67 L31.25,3.41 L33.70,3.32 L36.15,3.41 L38.23,3.67 L39.99,4.08 L41.51,4.60 L44.03,5.93 L46.28,7.46 L48.76,9.01 L50.23,9.74 L51.94,10.41 L53.95,10.98 L56.33,11.45 L59.12,11.79 L62.40,11.97 L63.33,12.23 L64.02,12.92 L64.28,13.85 L64.29,37.61 Z" fill="#89c12d" stroke="#1e1e1e" stroke-width="1" stroke-linejoin="round"/><path d="M32.69,46.03 L93.59,46.03 L94.58,46.24 L95.34,46.92 L95.66,47.88 L95.66,94.15 L95.34,95.11 L94.58,95.79 L93.59,96.00 L32.69,96.00 L31.70,95.79 L30.94,95.11 L30.62,94.15 L30.62,47.88 L30.94,46.92 L31.70,46.24 L32.69,46.03 L32.69,46.03 Z" fill="#b4ec36" stroke="#1e1e1e" stroke-width="1" stroke-linejoin="round"/><path d="M32.58,46.03 L93.71,46.03 L94.65,46.23 L95.36,46.87 L95.66,47.78 L95.66,47.78 L95.66,54.75 L30.62,54.75 L30.62,47.78 L30.93,46.87 L31.64,46.23 L32.58,46.03 Z" fill="#ffffff" stroke="#1e1e1e" stroke-width="1" stroke-linejoin="round" opacity="0.7"/><path d="M86.80,72.92 L46.66,72.92 L45.53,73.19 L45.19,73.48 L45.06,73.83 L45.06,76.07 L45.19,76.42 L45.53,76.71 L46.66,76.98 L86.80,76.98 L87.94,76.71 L88.28,76.42 L88.40,76.07 L88.40,73.83 L88.28,73.48 L87.94,73.19 L86.80,72.92 Z" fill="#ffffff" stroke="#ffffff" stroke-width="1" stroke-linejoin="round" opacity="0.7"/><path d="M86.80,62.71 L46.66,62.71 L45.53,62.98 L45.19,63.27 L45.06,63.62 L45.06,65.86 L45.19,66.21 L45.53,66.50 L46.66,66.77 L86.80,66.77 L87.94,66.50 L88.28,66.21 L88.40,65.86 L88.40,63.62 L88.28,63.27 L87.94,62.98 L86.80,62.71 Z" fill="#ffffff" stroke="#ffffff" stroke-width="1" stroke-linejoin="round" opacity="0.7"/><path d="M89.39,86.78 L46.58,86.78 L45.90,86.86 L45.35,87.07 L44.98,87.38 L44.85,87.75 L44.85,90.13 L44.98,90.51 L45.35,90.82 L45.90,91.02 L46.58,91.10 L89.39,91.10 L90.06,91.02 L90.61,90.82 L90.98,90.51 L91.11,90.13 L91.11,87.74 L90.98,87.37 L90.61,87.07 L90.06,86.86 L89.39,86.78 Z" fill="#ffffff" stroke="#ffffff" stroke-width="1" stroke-linejoin="round" opacity="0.7"/><ellipse cx="38.39" cy="64.74" rx="2.66" ry="2.66" fill="#ffffff" stroke="#ffffff" stroke-width="1" opacity="0.7"/><ellipse cx="38.39" cy="74.95" rx="2.66" ry="2.66" fill="#ffffff" stroke="#ffffff" stroke-width="1" opacity="0.7"/><ellipse cx="37.75" cy="88.95" rx="2.83" ry="2.83" fill="#ffffff" stroke="#ffffff" stroke-width="1" opacity="0.7"/></svg>