<svg xmlns="http://www.w3.org/2000/svg" viewBox="4.83 0.67 86.35 94.67"><path d="M58.35,2.67 L59.05,2.76 L59.71,3.03 L60.27,3.46 L60.70,4.03 L60.97,4.68 L61.07,5.39 L61.07,90.56 L60.97,91.26 L60.70,91.92 L60.27,92.48 L59.71,92.92 L59.05,93.19 L58.35,93.28 L9.55,93.28 L8.84,93.19 L8.19,92.92 L7.62,92.48 L7.19,91.92 L6.92,91.26 L6.83,90.56 L6.83,5.39 L6.92,4.68 L7.19,4.03 L7.62,3.46 L8.19,3.03 L8.84,2.76 L9.55,2.67 L58.35,2.67 Z" fill="#4495e7" stroke="#1e1e1e" stroke-width="1" stroke-linejoin="round"/><path d="M35.52,86.24 L35.89,86.29 L36.24,86.43 L36.54,86.66 L36.77,86.96 L36.91,87.31 L36.96,87.68 L36.96,89.97 L36.91,90.35 L36.77,90.69 L36.54,90.99 L36.24,91.22 L35.89,91.36 L35.52,91.41 L32.32,91.41 L31.95,91.36 L31.60,91.22 L31.30,90.99 L31.07,90.69 L30.93,90.35 L30.88,89.97 L30.88,87.68 L30.93,87.31 L31.07,86.96 L31.30,86.66 L31.60,86.43 L31.95,86.29 L32.32,86.24 L35.52,86.24 Z" fill="#f2f2f2" stroke="#f2f2f2" stroke-width="1" stroke-linejoin="round"/><path d="M39.36,5.71 L39.57,5.73 L39.76,5.81 L39.93,5.94 L40.05,6.11 L40.13,6.30 L40.16,6.51 L40.16,6.56 L40.13,6.77 L40.05,6.96 L39.93,7.13 L39.76,7.25 L39.57,7.33 L39.36,7.36 L28.48,7.36 L28.27,7.33 L28.08,7.25 L27.91,7.13 L27.79,6.96 L27.71,6.77 L27.68,6.56 L27.68,6.51 L27.71,6.30 L27.79,6.11 L27.91,5.94 L28.08,5.81 L28.27,5.73 L28.48,5.71 L39.36,5.71 Z" fill="#f2f2f2" stroke="#f2f2f2" stroke-width="1" stroke-linejoin="round"/><path d="M54.93,10.35 L55.20,10.38 L55.44,10.48 L55.65,10.64 L55.81,10.85 L55.91,11.10 L55.95,11.36 L55.95,82.13 L55.91,82.40 L55.81,82.64 L55.65,82.85 L55.44,83.01 L55.20,83.11 L54.93,83.15 L12.91,83.15 L12.64,83.11 L12.40,83.01 L12.19,82.85 L12.03,82.64 L11.93,82.40 L11.89,82.13 L11.89,11.36 L11.93,11.10 L12.03,10.85 L12.19,10.64 L12.40,10.48 L12.64,10.38 L12.91,10.35 L54.93,10.35 Z" fill="#e1f5fe" stroke="#1e1e1e" stroke-width="1" stroke-linejoin="round" opacity="0.9"/><path d="M87.68,53.23 L88.07,53.28 L88.43,53.43 L88.74,53.66 L88.97,53.97 L89.12,54.33 L89.17,54.72 L89.17,91.84 L89.12,92.23 L88.97,92.59 L88.74,92.90 L88.43,93.13 L88.07,93.28 L87.68,93.33 L50.56,93.33 L50.17,93.28 L49.81,93.13 L49.50,92.90 L49.27,92.59 L49.12,92.23 L49.07,91.84 L49.07,54.72 L49.12,54.33 L49.27,53.97 L49.50,53.66 L49.81,53.43 L50.17,53.28 L50.56,53.23 L87.68,53.23 Z" fill="#76bc2d" stroke="#1e1e1e" stroke-width="1" stroke-linejoin="round"/><path d="M67.06,81.81 L64.76,84.11 L64.05,84.41 L63.33,84.11 L54.13,74.91 L53.83,74.19 L54.13,73.48 L55.75,71.85 L56.47,71.56 L57.18,71.85 L67.10,81.77 L67.10,81.77 L67.06,81.81 Z" fill="#ffffff" stroke="#ffffff" stroke-width="1" stroke-linejoin="round"/><path d="M63.54,84.05 L61.24,81.74 L61.24,81.74 L82.36,60.63 L83.08,60.33 L83.79,60.63 L85.41,62.25 L85.71,62.96 L85.41,63.68 L65.01,84.08 L64.30,84.38 L63.58,84.08 L63.54,84.05 Z" fill="#ffffff" stroke="#1e1e1e" stroke-width="1" stroke-linejoin="round"/></svg>