<svg xmlns="http://www.w3.org/2000/svg" viewBox="-2.00 3.49 100.00 89.01"><path d="M85.76,5.49 L86.59,5.60 L87.36,5.92 L88.02,6.43 L88.53,7.09 L88.85,7.87 L88.96,8.69 L88.96,65.60 L88.85,66.43 L88.53,67.20 L88.02,67.86 L87.36,68.37 L86.59,68.69 L85.76,68.80 L3.20,68.80 L2.37,68.69 L1.60,68.37 L0.94,67.86 L0.43,67.20 L0.11,66.43 L0.00,65.60 L0.00,8.69 L0.11,7.87 L0.43,7.09 L0.94,6.43 L1.60,5.92 L2.37,5.60 L3.20,5.49 L85.76,5.49 Z" fill="#0078d4" stroke="#1e1e1e" stroke-width="1" stroke-linejoin="round"/><path d="M82.19,9.92 L82.60,9.97 L82.99,10.13 L83.32,10.39 L83.57,10.72 L83.73,11.11 L83.79,11.52 L83.79,62.19 L83.73,62.60 L83.57,62.99 L83.32,63.32 L82.99,63.57 L82.60,63.73 L82.19,63.79 L6.77,63.79 L6.36,63.73 L5.97,63.57 L5.64,63.32 L5.39,62.99 L5.23,62.60 L5.17,62.19 L5.17,11.52 L5.23,11.11 L5.39,10.72 L5.64,10.39 L5.97,10.13 L6.36,9.97 L6.77,9.92 L82.19,9.92 Z" fill="#e1f5fe" stroke="#1e1e1e" stroke-width="1" stroke-linejoin="round" opacity="0.9"/><path d="M94.40,21.97 L94.81,22.03 L95.20,22.19 L95.53,22.44 L95.79,22.77 L95.95,23.16 L96.00,23.57 L96.00,88.91 L95.95,89.32 L95.79,89.71 L95.53,90.04 L95.20,90.29 L94.81,90.45 L94.40,90.51 L56.53,90.51 L56.12,90.45 L55.73,90.29 L55.40,90.04 L55.15,89.71 L54.99,89.32 L54.93,88.91 L54.93,23.57 L54.99,23.16 L55.15,22.77 L55.40,22.44 L55.73,22.19 L56.12,22.03 L56.53,21.97 L94.40,21.97 Z" fill="#4495e7" stroke="#1e1e1e" stroke-width="1" stroke-linejoin="round"/><path d="M79.63,24.27 L79.78,24.29 L79.92,24.35 L80.04,24.44 L80.13,24.56 L80.19,24.70 L80.21,24.85 L80.21,24.96 L80.19,25.11 L80.13,25.25 L80.04,25.37 L79.92,25.47 L79.78,25.53 L79.63,25.55 L71.36,25.55 L71.21,25.53 L71.07,25.47 L70.95,25.37 L70.85,25.25 L70.79,25.11 L70.77,24.96 L70.77,24.85 L70.79,24.70 L70.85,24.56 L70.95,24.44 L71.07,24.35 L71.21,24.29 L71.36,24.27 L79.63,24.27 Z" fill="#f2f2f2" stroke="#f2f2f2" stroke-width="1" stroke-linejoin="round"/><path d="M91.41,27.73 L91.61,27.76 L91.79,27.83 L91.94,27.95 L92.06,28.11 L92.13,28.29 L92.16,28.48 L92.16,82.08 L92.13,82.27 L92.06,82.45 L91.94,82.61 L91.79,82.73 L91.61,82.80 L91.41,82.83 L59.57,82.83 L59.38,82.80 L59.20,82.73 L59.05,82.61 L58.93,82.45 L58.85,82.27 L58.83,82.08 L58.83,28.48 L58.85,28.29 L58.93,28.11 L59.05,27.95 L59.20,27.83 L59.38,27.76 L59.57,27.73 L91.41,27.73 Z" fill="#e1f5fe" stroke="#1e1e1e" stroke-width="1" stroke-linejoin="round" opacity="0.9"/><path d="M48.75,7.47 L48.90,7.49 L49.04,7.55 L49.16,7.64 L49.25,7.76 L49.31,7.90 L49.33,8.05 L49.33,8.16 L49.31,8.31 L49.25,8.45 L49.16,8.57 L49.04,8.67 L48.90,8.73 L48.75,8.75 L40.48,8.75 L40.33,8.73 L40.19,8.67 L40.07,8.57 L39.97,8.45 L39.91,8.31 L39.89,8.16 L39.89,8.05 L39.91,7.90 L39.97,7.76 L40.07,7.64 L40.19,7.55 L40.33,7.49 L40.48,7.47 L48.75,7.47 Z" fill="#f2f2f2" stroke="#f2f2f2" stroke-width="1" stroke-linejoin="round"/><path d="M76.69,85.12 L76.97,85.16 L77.23,85.26 L77.45,85.43 L77.62,85.65 L77.72,85.91 L77.76,86.19 L77.76,87.95 L77.72,88.22 L77.62,88.48 L77.45,88.70 L77.23,88.87 L76.97,88.98 L76.69,89.01 L74.24,89.01 L73.96,88.98 L73.71,88.87 L73.49,88.70 L73.32,88.48 L73.21,88.22 L73.17,87.95 L73.17,86.19 L73.21,85.91 L73.32,85.65 L73.49,85.43 L73.71,85.26 L73.96,85.16 L74.24,85.12 L76.69,85.12 Z" fill="#f2f2f2" stroke="#f2f2f2" stroke-width="1" stroke-linejoin="round"/></svg>