<svg xmlns="http://www.w3.org/2000/svg" viewBox="5.23 0.83 91.52 100.00"><path d="M61.82,2.83 L62.56,2.92 L63.26,3.21 L63.85,3.67 L64.31,4.27 L64.60,4.96 L64.70,5.71 L64.70,95.94 L64.60,96.69 L64.31,97.38 L63.85,97.98 L63.26,98.44 L62.56,98.73 L61.82,98.83 L10.11,98.83 L9.37,98.73 L8.67,98.44 L8.08,97.98 L7.62,97.38 L7.33,96.69 L7.23,95.94 L7.23,5.71 L7.33,4.96 L7.62,4.27 L8.08,3.67 L8.67,3.21 L9.37,2.92 L10.11,2.83 L61.82,2.83 Z" fill="#4495e7" stroke="#1e1e1e" stroke-width="1" stroke-linejoin="round"/><path d="M37.63,91.31 L38.03,91.36 L38.39,91.51 L38.71,91.76 L38.95,92.07 L39.11,92.44 L39.16,92.84 L39.16,95.27 L39.11,95.66 L38.95,96.03 L38.71,96.34 L38.39,96.59 L38.03,96.74 L37.63,96.79 L34.24,96.79 L33.85,96.74 L33.48,96.59 L33.16,96.34 L32.92,96.03 L32.77,95.66 L32.72,95.27 L32.72,92.84 L32.77,92.44 L32.92,92.07 L33.16,91.76 L33.48,91.51 L33.85,91.36 L34.24,91.31 L37.63,91.31 Z" fill="#f2f2f2" stroke="#f2f2f2" stroke-width="1" stroke-linejoin="round"/><path d="M41.76,6.05 L41.96,6.07 L42.15,6.15 L42.32,6.28 L42.44,6.44 L42.52,6.63 L42.55,6.84 L42.55,7.01 L42.52,7.21 L42.44,7.40 L42.32,7.57 L42.15,7.69 L41.96,7.77 L41.76,7.80 L30.12,7.80 L29.91,7.77 L29.72,7.69 L29.56,7.57 L29.43,7.40 L29.35,7.21 L29.33,7.01 L29.33,6.84 L29.35,6.63 L29.43,6.44 L29.56,6.28 L29.72,6.15 L29.91,6.07 L30.12,6.05 L41.76,6.05 Z" fill="#f2f2f2" stroke="#f2f2f2" stroke-width="1" stroke-linejoin="round"/><path d="M58.20,10.96 L58.48,11.00 L58.74,11.11 L58.96,11.28 L59.13,11.50 L59.24,11.76 L59.27,12.04 L59.27,87.02 L59.24,87.29 L59.13,87.55 L58.96,87.78 L58.74,87.95 L58.48,88.05 L58.20,88.09 L13.67,88.09 L13.40,88.05 L13.14,87.95 L12.91,87.78 L12.74,87.55 L12.64,87.29 L12.60,87.02 L12.60,12.04 L12.64,11.76 L12.74,11.50 L12.91,11.28 L13.14,11.11 L13.40,11.00 L13.67,10.96 L58.20,10.96 Z" fill="#e1f5fe" stroke="#1e1e1e" stroke-width="1" stroke-linejoin="round" opacity="0.9"/><path d="M89.90,88.77 L89.90,88.77 L87.13,83.12 L87.07,82.81 L87.13,82.50 L88.09,79.16 L88.28,78.82 L88.60,78.60 L94.25,76.56 L94.61,76.23 L94.76,75.77 L94.76,70.52 L94.42,70.23 L88.77,68.31 L88.45,68.13 L88.26,67.80 L87.02,64.53 L86.95,64.19 L87.02,63.85 L89.39,58.99 L89.55,58.51 L89.39,58.03 L85.66,54.24 L85.18,54.09 L84.70,54.24 L79.95,56.62 L79.51,56.68 L79.11,56.50 L75.88,55.54 L75.52,55.38 L75.32,55.03 L73.17,49.38 L72.87,48.98 L72.38,48.82 L67.24,48.82 L66.96,48.82 L65.04,54.47 L64.83,54.78 L64.53,54.98 L61.19,56.22 L60.85,56.28 L60.52,56.22 L54.87,53.40 L54.38,53.25 L53.90,53.40 L50.63,56.62 L50.50,57.10 L50.63,57.58 L50.63,57.58 L53.40,63.23 L53.46,63.57 L53.40,63.91 L51.81,67.80 L51.61,68.11 L51.31,68.31 L45.20,70.18 L44.80,70.48 L44.64,70.97 L44.64,75.55 L44.77,76.05 L45.20,76.34 L45.20,76.34 L50.85,78.26 L51.16,78.46 L51.36,78.77 L52.72,82.04 L52.80,82.38 L52.72,82.72 L49.89,88.37 L49.77,88.82 L49.89,89.28 L53.11,92.61 L53.62,92.78 L54.13,92.61 L54.13,92.61 L59.78,89.84 L60.12,89.76 L60.46,89.84 L63.74,91.20 L64.03,91.41 L64.24,91.71 L66.39,97.81 L66.70,98.22 L67.18,98.37 L71.76,98.37 L72.26,98.19 L72.55,97.75 L72.55,97.75 L74.47,92.10 L74.68,91.81 L74.98,91.59 L79.11,90.41 L79.44,90.34 L79.78,90.41 L85.72,93.17 L86.20,93.34 L86.68,93.17 L89.90,89.95 L90.17,89.36 L89.90,88.77 Z" fill="#949494" stroke="#949494" stroke-width="1" stroke-linejoin="round"/><path d="M66.84,81.03 L64.58,79.60 L62.92,77.50 L62.05,74.98 L62.06,72.31 L62.95,69.79 L64.63,67.70 L66.90,66.29 L69.51,65.72 L72.16,66.03 L74.57,67.21 L76.44,69.11 L77.58,71.53 L77.86,74.19 L77.24,76.79 L75.93,78.89 L74.03,80.49 L71.73,81.43 L69.26,81.61 L66.84,81.03 L66.84,81.03 Z" fill="#ffffff" stroke="#ffffff" stroke-width="1" stroke-linejoin="round"/><path d="M72.98,66.39 L73.67,66.72 L74.34,67.13 L74.96,67.59 L75.53,68.12 L76.05,68.69 L76.51,69.32 L76.90,69.99 L77.23,70.69 L77.49,71.42 L77.67,72.18 L77.78,72.95 L77.82,73.72 L77.77,74.50 L77.66,75.27 L77.46,76.02 L77.20,76.75 L76.86,77.45 L76.46,78.11 L75.99,78.73 L75.47,79.30 L74.89,79.82 L74.26,80.28 L73.59,80.68 L72.89,81.00 L72.16,81.26 L71.40,81.44 L70.64,81.55 L69.86,81.59 L69.09,81.55 L68.32,81.43 L67.57,81.23 L66.84,80.97 L66.14,80.63 L65.47,80.23 L64.85,79.76 L64.28,79.24 L63.76,78.66 L63.30,78.03 L62.91,77.37 L62.58,76.66 L62.32,75.93 L62.14,75.18 L62.03,74.41 L62.00,73.63 L62.04,72.86 L62.16,72.09 L62.35,71.34 L62.61,70.61 L62.95,69.91 L63.35,69.24 L63.82,68.62 L64.34,68.05 L64.92,67.53 L65.55,67.07 L66.22,66.68 L66.92,66.35 L67.65,66.09 L68.41,65.91 L69.18,65.80 L69.95,65.77 L70.73,65.81 L71.49,65.93 L72.25,66.12 L72.98,66.39 Z" fill="#ffffff" stroke="#ffffff" stroke-width="1" stroke-linejoin="round"/></svg>