<svg xmlns="http://www.w3.org/2000/svg" viewBox="-2.09 -1.93 99.32 100.00"><path d="M66.63,37.46 L66.34,41.44 L65.48,45.31 L64.15,49.06 L62.40,52.67 L60.31,56.12 L57.95,59.40 L55.37,62.50 L52.66,65.40 L49.89,68.09 L47.11,70.55 L41.84,74.75 L37.41,77.88 L34.37,79.83 L33.27,80.13 L32.18,79.83 L29.13,77.88 L24.70,74.75 L19.43,70.55 L16.66,68.09 L13.88,65.40 L11.17,62.50 L8.60,59.40 L6.24,56.12 L4.14,52.67 L2.40,49.06 L1.06,45.31 L0.21,41.44 L-0.09,37.46 L-0.09,11.56 L0.20,10.54 L0.94,9.79 L1.96,9.50 L5.54,9.31 L8.59,8.94 L11.18,8.43 L13.38,7.80 L15.25,7.07 L16.85,6.28 L19.55,4.58 L22.01,2.91 L24.76,1.47 L26.42,0.89 L28.34,0.45 L30.60,0.17 L33.27,0.07 L35.95,0.17 L38.21,0.45 L40.13,0.89 L41.78,1.47 L44.53,2.91 L46.99,4.58 L49.69,6.28 L51.30,7.07 L53.17,7.80 L55.37,8.43 L57.96,8.94 L61.01,9.31 L64.59,9.50 L65.61,9.79 L66.35,10.54 L66.63,11.56 L66.63,37.46 Z" fill="#ce74b6" stroke="#1e1e1e" stroke-width="1" stroke-linejoin="round"/><path d="M63.87,37.68 L63.59,41.33 L62.81,44.88 L61.59,48.32 L59.99,51.62 L58.07,54.79 L55.90,57.80 L53.54,60.64 L51.06,63.30 L48.51,65.77 L45.97,68.03 L41.13,71.88 L37.07,74.75 L34.28,76.53 L33.27,76.82 L32.27,76.53 L29.48,74.75 L25.41,71.88 L20.58,68.03 L18.03,65.77 L15.48,63.30 L13.00,60.64 L10.64,57.80 L8.47,54.79 L6.55,51.63 L4.95,48.32 L3.72,44.88 L2.94,41.33 L2.67,37.68 L2.67,13.93 L2.92,12.99 L3.61,12.30 L4.54,12.04 L7.83,11.86 L10.63,11.53 L13.01,11.06 L15.02,10.48 L16.74,9.81 L18.22,9.09 L20.69,7.53 L22.95,6.00 L25.47,4.67 L26.98,4.15 L28.75,3.74 L30.83,3.48 L33.27,3.39 L35.72,3.48 L37.80,3.74 L39.57,4.15 L41.08,4.67 L43.60,6.00 L45.86,7.53 L48.33,9.09 L49.81,9.81 L51.52,10.48 L53.53,11.06 L55.91,11.53 L58.71,11.86 L61.99,12.04 L62.92,12.30 L63.61,12.99 L63.87,13.93 L63.87,37.68 Z" fill="#c066a2" stroke="#1e1e1e" stroke-width="1" stroke-linejoin="round"/><path d="M32.27,46.11 L93.16,46.11 L94.16,46.31 L94.91,46.99 L95.23,47.95 L95.23,94.22 L94.91,95.19 L94.16,95.86 L93.16,96.07 L32.27,96.07 L31.27,95.86 L30.52,95.19 L30.20,94.22 L30.20,47.95 L30.52,46.99 L31.27,46.32 L32.27,46.11 Z" fill="#dc92bf" stroke="#1e1e1e" stroke-width="1" stroke-linejoin="round"/><path d="M32.15,46.11 L93.29,46.11 L94.22,46.30 L94.93,46.94 L95.23,47.85 L95.23,47.85 L95.23,54.82 L30.20,54.82 L30.20,47.85 L30.50,46.94 L31.21,46.30 L32.15,46.11 Z" fill="#ffffff" stroke="#1e1e1e" stroke-width="1" stroke-linejoin="round" opacity="0.7"/><path d="M86.40,72.99 L46.23,72.99 L45.10,73.26 L44.76,73.55 L44.63,73.90 L44.63,76.14 L44.76,76.49 L45.11,76.78 L46.23,77.05 L86.40,77.05 L87.54,76.78 L87.88,76.49 L88.00,76.14 L88.00,73.90 L87.87,73.55 L87.53,73.26 L86.40,72.99 Z" fill="#ffffff" stroke="#ffffff" stroke-width="1" stroke-linejoin="round" opacity="0.7"/><path d="M86.40,62.79 L46.23,62.79 L45.10,63.05 L44.76,63.34 L44.63,63.70 L44.63,65.94 L44.76,66.29 L45.11,66.58 L46.23,66.84 L86.40,66.84 L87.54,66.58 L87.88,66.29 L88.00,65.94 L88.00,63.70 L87.87,63.34 L87.53,63.05 L86.40,62.79 Z" fill="#ffffff" stroke="#ffffff" stroke-width="1" stroke-linejoin="round" opacity="0.7"/><path d="M88.96,86.86 L46.14,86.86 L45.47,86.93 L44.93,87.14 L44.56,87.45 L44.42,87.82 L44.42,90.21 L44.56,90.59 L44.93,90.90 L45.47,91.11 L46.14,91.18 L88.96,91.18 L89.63,91.11 L90.18,90.90 L90.55,90.59 L90.69,90.21 L90.69,87.82 L90.54,87.45 L90.17,87.14 L89.63,86.93 L88.96,86.86 Z" fill="#ffffff" stroke="#ffffff" stroke-width="1" stroke-linejoin="round" opacity="0.7"/><ellipse cx="37.96" cy="64.82" rx="2.66" ry="2.66" fill="#ffffff" stroke="#ffffff" stroke-width="1" opacity="0.7"/><ellipse cx="37.96" cy="75.02" rx="2.66" ry="2.66" fill="#ffffff" stroke="#ffffff" stroke-width="1" opacity="0.7"/><ellipse cx="37.32" cy="89.02" rx="2.83" ry="2.83" fill="#ffffff" stroke="#ffffff" stroke-width="1" opacity="0.7"/></svg>