<svg xmlns="http://www.w3.org/2000/svg" viewBox="4.83 0.67 86.61 94.61"><rect x="6.83" y="2.67" width="54.24" height="90.61" fill="#4495e7" stroke="#1e1e1e" stroke-width="1"/><rect x="30.88" y="86.19" width="6.08" height="5.17" fill="#f2f2f2" stroke="#f2f2f2" stroke-width="1"/><rect x="27.68" y="5.71" width="12.48" height="1.65" fill="#f2f2f2" stroke="#f2f2f2" stroke-width="1"/><rect x="11.89" y="10.35" width="44.05" height="72.80" fill="#e1f5fe" stroke="#1e1e1e" stroke-width="1" opacity="0.9"/><path d="M84.85,83.79 L84.85,83.79 L82.24,78.45 L82.18,78.16 L82.24,77.87 L83.15,74.72 L83.32,74.40 L83.63,74.19 L88.96,72.27 L89.30,71.96 L89.44,71.52 L89.44,66.56 L89.12,66.29 L83.79,64.48 L83.48,64.30 L83.31,64.00 L82.13,60.91 L82.07,60.59 L82.13,60.27 L84.37,55.68 L84.53,55.23 L84.37,54.77 L80.85,51.20 L80.40,51.06 L79.95,51.20 L75.47,53.44 L75.05,53.50 L74.67,53.33 L71.63,52.43 L71.29,52.27 L71.09,51.95 L69.07,46.61 L68.78,46.23 L68.32,46.08 L63.47,46.08 L63.20,46.08 L61.39,51.41 L61.20,51.70 L60.91,51.89 L57.76,53.07 L57.44,53.13 L57.12,53.07 L51.79,50.40 L51.33,50.26 L50.88,50.40 L47.79,53.44 L47.67,53.89 L47.79,54.35 L47.79,54.35 L50.40,59.68 L50.46,60.00 L50.40,60.32 L48.91,64.00 L48.72,64.29 L48.43,64.48 L42.67,66.24 L42.28,66.53 L42.13,66.99 L42.13,71.31 L42.26,71.78 L42.67,72.05 L42.67,72.05 L48.00,73.87 L48.29,74.06 L48.48,74.35 L49.76,77.44 L49.84,77.76 L49.76,78.08 L47.09,83.41 L46.98,83.84 L47.09,84.27 L50.13,87.41 L50.61,87.57 L51.09,87.41 L51.09,87.41 L56.43,84.80 L56.75,84.72 L57.07,84.80 L60.16,86.08 L60.44,86.28 L60.64,86.56 L62.67,92.32 L62.96,92.70 L63.41,92.85 L67.73,92.85 L68.20,92.68 L68.48,92.27 L68.48,92.27 L70.29,86.93 L70.49,86.65 L70.77,86.45 L74.67,85.33 L74.99,85.27 L75.31,85.33 L80.91,87.95 L81.36,88.10 L81.81,87.95 L84.85,84.91 L85.11,84.35 L84.85,83.79 Z" fill="#949494" stroke="#949494" stroke-width="1" stroke-linejoin="round"/><path d="M63.09,76.48 L60.96,75.13 L59.39,73.16 L58.57,70.77 L58.58,68.25 L59.42,65.87 L61.00,63.91 L63.15,62.57 L65.61,62.03 L68.12,62.33 L70.38,63.44 L72.15,65.23 L73.23,67.52 L73.49,70.03 L72.91,72.48 L71.67,74.47 L69.87,75.98 L67.71,76.86 L65.37,77.03 L63.09,76.48 L63.09,76.48 Z" fill="#ffffff" stroke="#ffffff" stroke-width="1" stroke-linejoin="round"/><path d="M68.88,62.66 L69.54,62.98 L70.17,63.36 L70.75,63.80 L71.29,64.29 L71.78,64.84 L72.22,65.43 L72.59,66.06 L72.90,66.73 L73.14,67.42 L73.31,68.13 L73.42,68.85 L73.45,69.59 L73.41,70.32 L73.30,71.04 L73.12,71.75 L72.87,72.44 L72.55,73.10 L72.17,73.73 L71.73,74.31 L71.23,74.85 L70.69,75.34 L70.10,75.78 L69.47,76.15 L68.80,76.46 L68.11,76.70 L67.40,76.87 L66.67,76.98 L65.94,77.01 L65.21,76.97 L64.48,76.86 L63.77,76.68 L63.09,76.42 L62.43,76.11 L61.80,75.73 L61.21,75.29 L60.67,74.79 L60.18,74.25 L59.75,73.66 L59.38,73.02 L59.07,72.36 L58.83,71.67 L58.65,70.96 L58.55,70.23 L58.52,69.50 L58.56,68.77 L58.67,68.04 L58.85,67.33 L59.10,66.65 L59.42,65.99 L59.80,65.36 L60.24,64.77 L60.73,64.23 L61.28,63.74 L61.87,63.31 L62.50,62.94 L63.17,62.63 L63.86,62.39 L64.57,62.21 L65.29,62.11 L66.03,62.08 L66.76,62.12 L67.48,62.23 L68.19,62.41 L68.88,62.66 Z" fill="#ffffff" stroke="#ffffff" stroke-width="1" stroke-linejoin="round"/></svg>