<svg xmlns="http://www.w3.org/2000/svg" viewBox="0.82 6.79 100.00 87.88"><path d="M94.65,19.28 L6.82,19.28 L5.34,19.50 L4.06,20.28 L3.17,21.49 L2.82,22.94 L2.82,89.01 L3.17,90.46 L4.06,91.67 L5.34,92.45 L6.82,92.67 L94.65,92.67 L96.13,92.45 L97.41,91.67 L98.29,90.46 L98.65,89.01 L98.65,22.94 L98.29,21.49 L97.41,20.28 L96.13,19.50 L94.65,19.28 L94.65,19.28 Z" fill="#0078d4" stroke="#1e1e1e" stroke-width="1" stroke-linejoin="round"/><path d="M94.99,19.28 L50.73,19.28 L50.73,92.56 L95.15,92.56 L96.56,92.28 L97.75,91.49 L98.54,90.30 L98.82,88.90 L98.82,22.94 L98.52,21.50 L97.69,20.29 L96.44,19.51 L94.99,19.28 Z" fill="#005ba1" stroke="#1e1e1e" stroke-width="1" stroke-linejoin="round"/><path d="M43.07,8.79 L14.32,8.79 L13.37,9.07 L12.67,9.76 L12.40,10.71 L12.40,83.99 L12.66,84.96 L13.36,85.68 L14.32,85.97 L43.07,85.97 L45.32,86.11 L47.42,86.97 L49.13,88.45 L50.27,90.40 L50.73,92.62 L50.73,16.52 L50.36,14.14 L49.27,12.00 L47.58,10.29 L45.44,9.19 L43.07,8.79 L43.07,8.79 Z" fill="#f2f2f2" stroke="#1e1e1e" stroke-width="1" stroke-linejoin="round"/><path d="M58.40,8.79 L87.15,8.79 L88.10,9.07 L88.79,9.76 L89.07,10.71 L89.07,83.99 L88.81,84.96 L88.11,85.68 L87.15,85.97 L58.40,85.97 L56.14,86.11 L54.05,86.97 L52.34,88.45 L51.20,90.40 L50.73,92.62 L50.73,16.52 L51.11,14.14 L52.20,12.00 L53.89,10.29 L56.03,9.19 L58.40,8.79 L58.40,8.79 Z" fill="#e6e6e6" stroke="#1e1e1e" stroke-width="1" stroke-linejoin="round"/><path d="M42.22,28.19 L20.97,28.19 L20.35,28.43 L20.07,29.03 L20.07,31.17 L20.35,31.77 L20.97,32.02 L42.22,32.02 L42.82,31.77 L43.07,31.17 L43.07,28.92 L42.78,28.39 L42.22,28.19 Z" fill="#b3b3b3" stroke="#b3b3b3" stroke-width="1" stroke-linejoin="round"/><path d="M42.22,39.46 L20.97,39.46 L20.35,39.70 L20.07,40.31 L20.07,42.45 L20.35,43.05 L20.97,43.29 L42.22,43.29 L42.82,43.05 L43.07,42.45 L43.07,40.47 L42.89,39.76 L42.22,39.46 Z" fill="#b3b3b3" stroke="#b3b3b3" stroke-width="1" stroke-linejoin="round"/><path d="M42.22,16.52 L20.97,16.52 L20.35,16.76 L20.07,17.36 L20.07,19.50 L20.35,20.11 L20.97,20.35 L42.22,20.35 L42.82,20.10 L43.07,19.50 L43.07,17.36 L42.82,16.76 L42.22,16.52 Z" fill="#b3b3b3" stroke="#b3b3b3" stroke-width="1" stroke-linejoin="round"/><path d="M42.22,51.18 L20.97,51.18 L20.35,51.43 L20.07,52.03 L20.07,54.17 L20.35,54.77 L20.97,55.02 L42.22,55.02 L42.82,54.77 L43.07,54.17 L43.07,52.03 L42.82,51.43 L42.22,51.18 L42.22,51.18 Z" fill="#b3b3b3" stroke="#b3b3b3" stroke-width="1" stroke-linejoin="round"/><path d="M42.22,62.74 L20.97,62.74 L20.35,62.98 L20.07,63.59 L20.07,65.73 L20.35,66.33 L20.97,66.57 L42.22,66.57 L42.82,66.33 L43.07,65.73 L43.07,63.59 L42.82,62.99 L42.22,62.74 L42.22,62.74 Z" fill="#b3b3b3" stroke="#b3b3b3" stroke-width="1" stroke-linejoin="round"/><path d="M30.72,74.30 L20.97,74.30 L20.35,74.54 L20.07,75.14 L20.07,77.28 L20.35,77.89 L20.97,78.13 L30.72,78.13 L31.32,77.88 L31.57,77.28 L31.57,75.14 L31.32,74.54 L30.72,74.30 L30.72,74.30 Z" fill="#b3b3b3" stroke="#b3b3b3" stroke-width="1" stroke-linejoin="round"/></svg>