<svg xmlns="http://www.w3.org/2000/svg" viewBox="0.67 6.32 94.83 83.36"><path d="M89.55,18.24 L6.45,18.24 L5.05,18.45 L3.84,19.19 L3.00,20.33 L2.67,21.71 L2.67,84.21 L3.00,85.59 L3.84,86.73 L5.05,87.47 L6.45,87.68 L89.55,87.68 L90.95,87.47 L92.16,86.73 L93.00,85.59 L93.33,84.21 L93.33,21.71 L93.00,20.33 L92.16,19.19 L90.95,18.45 L89.55,18.24 L89.55,18.24 Z" fill="#0078d4" stroke="#1e1e1e" stroke-width="1" stroke-linejoin="round"/><path d="M89.87,18.24 L48.00,18.24 L48.00,87.57 L90.03,87.57 L91.35,87.31 L92.48,86.56 L93.23,85.43 L93.49,84.11 L93.49,21.71 L93.22,20.34 L92.42,19.20 L91.24,18.46 L89.87,18.24 Z" fill="#005ba1" stroke="#1e1e1e" stroke-width="1" stroke-linejoin="round"/><path d="M40.75,8.32 L13.55,8.32 L12.65,8.58 L11.99,9.24 L11.73,10.13 L11.73,79.47 L11.97,80.38 L12.64,81.07 L13.55,81.33 L40.75,81.33 L42.88,81.47 L44.86,82.28 L46.48,83.69 L47.56,85.53 L48.00,87.63 L48.00,15.63 L47.65,13.38 L46.62,11.35 L45.01,9.73 L42.99,8.69 L40.75,8.32 L40.75,8.32 Z" fill="#f2f2f2" stroke="#1e1e1e" stroke-width="1" stroke-linejoin="round"/><path d="M55.25,8.32 L82.45,8.32 L83.35,8.58 L84.01,9.24 L84.27,10.13 L84.27,79.47 L84.03,80.38 L83.36,81.07 L82.45,81.33 L55.25,81.33 L53.12,81.47 L51.14,82.28 L49.52,83.69 L48.44,85.53 L48.00,87.63 L48.00,15.63 L48.35,13.38 L49.38,11.35 L50.99,9.73 L53.01,8.69 L55.25,8.32 L55.25,8.32 Z" fill="#e6e6e6" stroke="#1e1e1e" stroke-width="1" stroke-linejoin="round"/><path d="M39.95,26.67 L19.84,26.67 L19.25,26.90 L18.99,27.47 L18.99,29.49 L19.25,30.06 L19.84,30.29 L39.95,30.29 L40.51,30.06 L40.75,29.49 L40.75,27.36 L40.48,26.86 L39.95,26.67 Z" fill="#b3b3b3" stroke="#b3b3b3" stroke-width="1" stroke-linejoin="round"/><path d="M39.95,37.33 L19.84,37.33 L19.25,37.56 L18.99,38.13 L18.99,40.16 L19.25,40.73 L19.84,40.96 L39.95,40.96 L40.51,40.73 L40.75,40.16 L40.75,38.29 L40.58,37.62 L39.95,37.33 Z" fill="#b3b3b3" stroke="#b3b3b3" stroke-width="1" stroke-linejoin="round"/><path d="M39.95,15.63 L19.84,15.63 L19.25,15.86 L18.99,16.43 L18.99,18.45 L19.25,19.02 L19.84,19.25 L39.95,19.25 L40.51,19.02 L40.75,18.45 L40.75,16.43 L40.51,15.86 L39.95,15.63 Z" fill="#b3b3b3" stroke="#b3b3b3" stroke-width="1" stroke-linejoin="round"/><path d="M39.95,48.43 L19.84,48.43 L19.25,48.66 L18.99,49.23 L18.99,51.25 L19.25,51.82 L19.84,52.05 L39.95,52.05 L40.51,51.82 L40.75,51.25 L40.75,49.23 L40.51,48.66 L39.95,48.43 L39.95,48.43 Z" fill="#b3b3b3" stroke="#b3b3b3" stroke-width="1" stroke-linejoin="round"/><path d="M39.95,59.36 L19.84,59.36 L19.25,59.59 L18.99,60.16 L18.99,62.19 L19.25,62.76 L19.84,62.99 L39.95,62.99 L40.51,62.75 L40.75,62.19 L40.75,60.16 L40.51,59.59 L39.95,59.36 L39.95,59.36 Z" fill="#b3b3b3" stroke="#b3b3b3" stroke-width="1" stroke-linejoin="round"/><path d="M29.07,70.29 L19.84,70.29 L19.25,70.52 L18.99,71.09 L18.99,73.12 L19.25,73.69 L19.84,73.92 L29.07,73.92 L29.63,73.69 L29.87,73.12 L29.87,71.09 L29.63,70.53 L29.07,70.29 L29.07,70.29 Z" fill="#b3b3b3" stroke="#b3b3b3" stroke-width="1" stroke-linejoin="round"/></svg>