<svg xmlns="http://www.w3.org/2000/svg" viewBox="-1.97 7.90 99.96 80.20"><path d="M89.15,73.49 L90.75,73.22 L92.06,72.43 L92.95,71.22 L93.20,70.48 L93.29,69.66 L93.29,69.61 L93.19,68.94 L92.32,64.22 L91.67,61.97 L90.89,59.81 L89.96,57.76 L88.90,55.83 L87.68,54.02 L86.33,52.35 L84.83,50.83 L83.18,49.48 L81.38,48.30 L79.43,47.31 L77.33,46.51 L75.08,45.93 L72.67,45.58 L70.11,45.46 L67.55,45.56 L65.14,45.88 L62.88,46.39 L60.76,47.10 L58.80,48.01 L56.99,49.09 L55.33,50.36 L53.81,51.80 L52.44,53.41 L51.23,55.19 L50.15,57.12 L49.23,59.20 L48.45,61.43 L47.81,63.80 L47.32,66.30 L46.98,68.94 L46.98,69.78 L47.15,70.58 L47.91,71.98 L49.13,73.00 L49.88,73.32 L50.70,73.49 L89.16,73.49 L89.15,73.49 L89.15,73.49 Z" fill="#0078d4" stroke="#1e1e1e" stroke-width="1" stroke-linejoin="round"/><path d="M70.16,48.72 L68.30,48.60 L66.49,48.21 L64.75,47.56 L63.13,46.65 L70.11,64.86 L77.00,46.81 L75.40,47.64 L73.72,48.24 L71.96,48.60 L70.17,48.72 L70.16,48.72 Z" fill="#ffffff" stroke="#ffffff" stroke-width="1" stroke-linejoin="round" opacity="0.8"/><ellipse cx="70.16" cy="35.74" rx="12.99" ry="12.99" fill="#0078d4" stroke="#1e1e1e" stroke-width="1"/><path d="M63.11,86.10 L64.36,85.99 L65.51,85.65 L66.56,85.12 L67.47,84.41 L68.22,83.54 L68.79,82.53 L69.14,81.40 L69.27,80.17 L69.27,79.45 L68.71,75.86 L67.95,72.38 L66.98,69.03 L65.81,65.81 L64.43,62.74 L62.83,59.85 L61.02,57.15 L59.00,54.66 L56.76,52.39 L54.30,50.37 L51.62,48.62 L48.71,47.14 L45.58,45.96 L42.22,45.09 L38.63,44.56 L34.81,44.38 L30.98,44.53 L27.37,44.99 L23.99,45.75 L20.83,46.80 L17.89,48.13 L15.17,49.74 L12.67,51.61 L10.39,53.75 L8.34,56.13 L6.50,58.76 L4.87,61.63 L3.47,64.73 L2.29,68.06 L1.32,71.59 L0.57,75.34 L0.03,79.29 L0.04,80.54 L0.28,81.73 L0.74,82.83 L1.40,83.81 L2.24,84.65 L3.23,85.33 L4.34,85.80 L5.57,86.06 L63.11,86.10 L63.11,86.10 Z" fill="#29b9dd" stroke="#1e1e1e" stroke-width="1" stroke-linejoin="round"/><path d="M35.07,48.97 L32.34,48.76 L29.67,48.16 L27.12,47.19 L24.72,45.87 L35.07,73.01 L45.42,46.07 L43.00,47.33 L40.45,48.23 L37.79,48.78 L35.07,48.97 L35.07,48.97 Z" fill="#ffffff" stroke="#1e1e1e" stroke-width="1" stroke-linejoin="round" opacity="0.8"/><ellipse cx="34.91" cy="29.58" rx="19.40" ry="19.40" fill="#29b9dd" stroke="#1e1e1e" stroke-width="1"/><path d="M70.16,17.93 L71.98,18.02 L73.74,18.29 L75.45,18.73 L77.08,19.33 L78.64,20.08 L80.11,20.98 L81.48,22.00 L82.75,23.15 L83.90,24.42 L84.92,25.79 L85.82,27.26 L86.57,28.81 L87.17,30.45 L87.61,32.15 L87.88,33.92 L87.97,35.74 L87.69,38.88 L86.89,41.85 L85.61,44.59 L83.90,47.05 L86.11,48.75 L88.12,50.74 L89.66,52.66 L91.07,50.89 L92.32,49.01 L93.40,47.01 L94.31,44.92 L95.03,42.74 L95.56,40.47 L95.88,38.14 L95.99,35.74 L95.86,33.10 L95.47,30.54 L94.83,28.06 L93.96,25.69 L92.87,23.43 L91.58,21.30 L90.09,19.31 L88.42,17.48 L86.58,15.81 L84.59,14.32 L82.46,13.02 L80.20,11.93 L77.83,11.06 L75.36,10.42 L72.79,10.03 L70.15,9.90 L67.64,10.02 L65.19,10.38 L62.83,10.96 L60.55,11.75 L58.38,12.75 L56.31,13.93 L54.38,15.29 L52.58,16.82 L53.76,18.64 L54.76,20.57 L55.56,22.61 L56.17,24.74 L57.47,23.25 L58.93,21.92 L60.53,20.76 L62.26,19.78 L64.10,18.99 L66.04,18.41 L68.06,18.05 L70.15,17.93 L70.16,17.93 Z" fill="#0078d4" stroke="#1e1e1e" stroke-width="1" stroke-linejoin="round"/></svg>