<svg xmlns="http://www.w3.org/2000/svg" viewBox="-1.97 7.90 100.00 80.23"><path d="M89.19,73.52 L90.78,73.25 L92.10,72.46 L92.99,71.24 L93.23,70.50 L93.33,69.69 L93.33,69.64 L93.23,68.97 L92.35,64.24 L91.71,61.99 L90.92,59.84 L90.00,57.78 L88.93,55.85 L87.72,54.04 L86.36,52.37 L84.86,50.85 L83.21,49.50 L81.41,48.32 L79.46,47.32 L77.36,46.53 L75.11,45.95 L72.70,45.60 L70.14,45.47 L67.58,45.58 L65.16,45.89 L62.90,46.41 L60.79,47.12 L58.83,48.02 L57.01,49.11 L55.35,50.38 L53.83,51.82 L52.47,53.43 L51.25,55.21 L50.17,57.14 L49.25,59.22 L48.46,61.45 L47.83,63.82 L47.34,66.33 L46.99,68.97 L47.00,69.81 L47.17,70.60 L47.92,72.01 L49.15,73.03 L49.90,73.35 L50.72,73.52 L89.19,73.52 L89.19,73.52 L89.19,73.52 Z" fill="#0078d4" stroke="#1e1e1e" stroke-width="1" stroke-linejoin="round"/><path d="M70.19,48.74 L68.33,48.62 L66.51,48.23 L64.78,47.57 L63.15,46.67 L70.14,64.88 L77.03,46.83 L75.43,47.66 L73.74,48.25 L71.99,48.62 L70.19,48.74 L70.19,48.74 Z" fill="#ffffff" stroke="#ffffff" stroke-width="1" stroke-linejoin="round" opacity="0.8"/><ellipse cx="70.19" cy="35.75" rx="12.99" ry="12.99" fill="#0078d4" stroke="#1e1e1e" stroke-width="1"/><path d="M63.14,86.13 L64.38,86.02 L65.54,85.68 L66.58,85.15 L67.49,84.44 L68.25,83.57 L68.81,82.56 L69.17,81.43 L69.30,80.20 L69.30,79.48 L68.74,75.89 L67.98,72.41 L67.01,69.05 L65.84,65.83 L64.45,62.76 L62.86,59.87 L61.05,57.17 L59.02,54.68 L56.78,52.41 L54.32,50.39 L51.64,48.63 L48.73,47.16 L45.60,45.98 L42.23,45.11 L38.64,44.58 L34.82,44.40 L30.99,44.55 L27.38,45.01 L24.00,45.77 L20.84,46.82 L17.90,48.15 L15.18,49.76 L12.68,51.63 L10.40,53.77 L8.34,56.15 L6.50,58.79 L4.88,61.66 L3.47,64.76 L2.29,68.08 L1.32,71.62 L0.57,75.37 L0.03,79.32 L0.04,80.57 L0.28,81.76 L0.74,82.86 L1.40,83.84 L2.24,84.69 L3.23,85.36 L4.34,85.84 L5.57,86.09 L63.14,86.13 L63.14,86.13 Z" fill="#29b9dd" stroke="#1e1e1e" stroke-width="1" stroke-linejoin="round"/><path d="M35.09,48.99 L32.35,48.78 L29.69,48.18 L27.13,47.21 L24.73,45.88 L35.09,73.04 L45.44,46.09 L43.02,47.34 L40.47,48.25 L37.81,48.80 L35.09,48.98 L35.09,48.99 Z" fill="#ffffff" stroke="#1e1e1e" stroke-width="1" stroke-linejoin="round" opacity="0.8"/><ellipse cx="34.93" cy="29.60" rx="19.40" ry="19.40" fill="#29b9dd" stroke="#1e1e1e" stroke-width="1"/><path d="M70.19,17.94 L72.01,18.03 L73.77,18.30 L75.48,18.74 L77.11,19.34 L78.67,20.09 L80.14,20.98 L81.51,22.01 L82.78,23.16 L83.93,24.43 L84.96,25.80 L85.85,27.27 L86.60,28.83 L87.20,30.46 L87.64,32.17 L87.91,33.93 L88.00,35.75 L87.72,38.90 L86.92,41.87 L85.64,44.61 L83.94,47.07 L86.14,48.77 L88.16,50.76 L89.70,52.68 L91.10,50.91 L92.35,49.03 L93.44,47.03 L94.34,44.94 L95.07,42.75 L95.60,40.49 L95.92,38.15 L96.03,35.75 L95.90,33.11 L95.51,30.55 L94.87,28.08 L94.00,25.70 L92.91,23.44 L91.61,21.31 L90.12,19.32 L88.45,17.48 L86.62,15.81 L84.63,14.32 L82.49,13.03 L80.24,11.94 L77.86,11.07 L75.39,10.43 L72.82,10.04 L70.18,9.90 L67.67,10.02 L65.22,10.38 L62.85,10.96 L60.57,11.76 L58.40,12.75 L56.34,13.94 L54.40,15.30 L52.60,16.83 L53.78,18.64 L54.78,20.58 L55.58,22.61 L56.19,24.75 L57.49,23.26 L58.95,21.93 L60.55,20.77 L62.28,19.78 L64.12,19.00 L66.06,18.41 L68.09,18.06 L70.18,17.93 L70.19,17.94 Z" fill="#0078d4" stroke="#1e1e1e" stroke-width="1" stroke-linejoin="round"/></svg>