<svg xmlns="http://www.w3.org/2000/svg" viewBox="0.88 0.82 99.89 100.00"><path d="M79.06,95.15 L81.37,94.82 L83.45,93.78 L85.10,92.14 L86.16,90.06 L86.51,87.76 L86.54,87.30 L86.51,86.85 L85.84,82.51 L84.92,78.30 L83.75,74.23 L82.33,70.32 L80.66,66.60 L78.73,63.10 L76.54,59.82 L74.09,56.80 L71.37,54.06 L68.39,51.60 L65.14,49.47 L61.61,47.68 L57.81,46.25 L53.73,45.20 L49.37,44.55 L44.72,44.33 L40.08,44.52 L35.71,45.08 L31.62,45.99 L27.81,47.27 L24.27,48.88 L21.00,50.83 L18.00,53.11 L15.27,55.71 L12.80,58.61 L10.61,61.82 L8.67,65.32 L7.00,69.11 L5.58,73.17 L4.43,77.49 L3.53,82.07 L2.88,86.91 L3.02,89.25 L3.88,91.44 L5.36,93.26 L7.33,94.54 L9.60,95.15 L79.06,95.15 Z" fill="#89c12d" stroke="#1e1e1e" stroke-width="1" stroke-linejoin="round"/><path d="M45.18,49.86 L40.71,49.45 L36.40,48.19 L32.41,46.14 L44.72,79.06 L57.26,46.36 L53.46,48.25 L49.39,49.43 L45.18,49.86 L45.18,49.86 Z" fill="#ffffff" stroke="#1e1e1e" stroke-width="1" stroke-linejoin="round"/><ellipse cx="44.89" cy="26.37" rx="23.55" ry="23.55" fill="#89c12d" stroke="#1e1e1e" stroke-width="1"/><path d="M98.77,62.85 L98.77,86.80 L78.21,98.82 L78.21,74.88 L98.77,62.85 Z" fill="#32bedd" stroke="#1e1e1e" stroke-width="1" stroke-linejoin="round"/><path d="M98.77,62.85 L78.21,74.88 L57.66,62.85 L78.21,50.82 L98.77,62.85 Z" fill="#9cebff" stroke="#1e1e1e" stroke-width="1" stroke-linejoin="round"/><path d="M78.21,74.88 L78.21,98.82 L57.66,86.80 L57.66,62.85 L78.21,74.88 Z" fill="#50e6ff" stroke="#1e1e1e" stroke-width="1" stroke-linejoin="round"/><path d="M57.66,86.80 L78.21,74.88 L78.21,98.82 L57.66,86.80 Z" fill="#9cebff" stroke="#1e1e1e" stroke-width="1" stroke-linejoin="round"/><path d="M98.77,86.80 L78.21,74.88 L78.21,98.82 L98.77,86.80 Z" fill="#50e6ff" stroke="#1e1e1e" stroke-width="1" stroke-linejoin="round"/></svg>