<svg xmlns="http://www.w3.org/2000/svg" viewBox="0.72 0.67 94.56 94.67"><path d="M74.67,89.87 L76.84,89.55 L78.81,88.57 L80.38,87.02 L81.37,85.06 L81.71,82.88 L81.73,82.45 L81.71,82.03 L81.07,77.93 L80.20,73.95 L79.10,70.10 L77.76,66.41 L76.18,62.90 L74.36,59.59 L72.29,56.50 L69.97,53.65 L67.41,51.05 L64.59,48.74 L61.52,46.72 L58.19,45.03 L54.60,43.68 L50.74,42.68 L46.63,42.07 L42.24,41.87 L37.85,42.04 L33.73,42.57 L29.87,43.44 L26.26,44.64 L22.92,46.17 L19.83,48.01 L17.00,50.16 L14.42,52.61 L12.09,55.36 L10.02,58.39 L8.19,61.69 L6.61,65.27 L5.27,69.10 L4.18,73.19 L3.33,77.52 L2.72,82.08 L2.85,84.29 L3.66,86.36 L5.06,88.08 L6.92,89.29 L9.07,89.87 L74.67,89.87 Z" fill="#89c12d" stroke="#1e1e1e" stroke-width="1" stroke-linejoin="round"/><path d="M42.67,47.09 L38.45,46.70 L34.38,45.51 L30.61,43.57 L42.24,74.67 L54.08,43.79 L50.49,45.57 L46.65,46.68 L42.67,47.09 L42.67,47.09 Z" fill="#ffffff" stroke="#1e1e1e" stroke-width="1" stroke-linejoin="round"/><ellipse cx="42.40" cy="24.91" rx="22.24" ry="22.24" fill="#89c12d" stroke="#1e1e1e" stroke-width="1"/><path d="M93.28,59.36 L93.28,81.97 L73.87,93.33 L73.87,70.72 L93.28,59.36 Z" fill="#32bedd" stroke="#1e1e1e" stroke-width="1" stroke-linejoin="round"/><path d="M93.28,59.36 L73.87,70.72 L54.45,59.36 L73.87,48.00 L93.28,59.36 Z" fill="#9cebff" stroke="#1e1e1e" stroke-width="1" stroke-linejoin="round"/><path d="M73.87,70.72 L73.87,93.33 L54.45,81.97 L54.45,59.36 L73.87,70.72 Z" fill="#50e6ff" stroke="#1e1e1e" stroke-width="1" stroke-linejoin="round"/><path d="M54.45,81.97 L73.87,70.72 L73.87,93.33 L54.45,81.97 Z" fill="#9cebff" stroke="#1e1e1e" stroke-width="1" stroke-linejoin="round"/><path d="M93.28,81.97 L73.87,70.72 L73.87,93.33 L93.28,81.97 Z" fill="#50e6ff" stroke="#1e1e1e" stroke-width="1" stroke-linejoin="round"/></svg>