<svg xmlns="http://www.w3.org/2000/svg" viewBox="8.84 0.82 83.93 100.00"><path d="M90.77,47.64 L90.68,50.05 L90.41,52.42 L89.39,57.06 L87.80,61.55 L85.70,65.87 L83.20,70.00 L80.37,73.94 L77.28,77.65 L74.04,81.13 L70.71,84.36 L67.39,87.31 L61.07,92.35 L55.76,96.11 L52.10,98.45 L50.80,98.82 L49.51,98.45 L45.85,96.12 L40.53,92.38 L34.22,87.35 L30.89,84.40 L27.57,81.17 L24.32,77.69 L21.24,73.98 L18.41,70.04 L15.90,65.90 L13.81,61.57 L12.21,57.08 L11.20,52.43 L10.93,50.05 L10.84,47.64 L10.84,16.60 L11.16,15.37 L12.05,14.46 L13.27,14.11 L17.56,13.88 L21.22,13.45 L24.32,12.84 L26.96,12.09 L29.20,11.22 L31.13,10.27 L34.36,8.23 L37.31,6.23 L38.87,5.32 L40.60,4.50 L42.58,3.81 L44.89,3.28 L47.60,2.94 L50.80,2.82 L54.00,2.94 L56.72,3.28 L59.02,3.81 L61.00,4.50 L62.73,5.32 L64.30,6.23 L67.24,8.23 L70.48,10.27 L72.41,11.22 L74.65,12.09 L77.28,12.84 L80.39,13.45 L84.05,13.88 L88.34,14.11 L89.56,14.46 L90.45,15.37 L90.77,16.60 L90.77,47.64 Z" fill="#0078d4" stroke="#1e1e1e" stroke-width="1" stroke-linejoin="round"/><path d="M87.50,47.87 L87.17,52.26 L86.23,56.52 L84.76,60.64 L82.84,64.61 L80.54,68.40 L77.94,72.01 L75.11,75.42 L72.13,78.60 L69.08,81.56 L66.03,84.27 L60.23,88.88 L55.35,92.31 L51.99,94.44 L50.80,94.77 L49.62,94.44 L46.26,92.31 L41.38,88.88 L35.58,84.27 L32.53,81.56 L29.47,78.60 L26.49,75.42 L23.66,72.01 L21.06,68.40 L18.76,64.61 L16.84,60.64 L15.38,56.52 L14.44,52.26 L14.11,47.87 L14.11,19.64 L14.27,18.33 L15.11,17.32 L16.37,16.93 L20.31,16.76 L23.67,16.39 L26.52,15.86 L28.94,15.19 L31.00,14.42 L32.77,13.56 L35.75,11.73 L38.45,9.92 L41.47,8.35 L43.28,7.73 L45.39,7.25 L47.88,6.94 L50.80,6.83 L53.73,6.94 L56.21,7.25 L58.33,7.73 L60.14,8.35 L63.16,9.92 L65.86,11.73 L68.84,13.56 L70.61,14.42 L72.66,15.19 L75.08,15.86 L77.94,16.39 L81.30,16.76 L85.24,16.93 L86.35,17.25 L87.18,18.07 L87.50,19.19 L87.50,47.87 Z" fill="#3f93e6" stroke="#1e1e1e" stroke-width="1" stroke-linejoin="round"/><path d="M66.89,43.24 L64.63,43.24 L64.63,35.22 L64.40,32.43 L63.64,29.74 L62.39,27.23 L60.68,25.01 L58.29,22.97 L55.49,21.54 L52.43,20.80 L49.29,20.80 L46.23,21.54 L43.43,22.97 L41.04,25.01 L39.33,27.23 L38.08,29.73 L37.32,32.43 L37.09,35.22 L37.09,43.24 L34.83,43.24 L33.82,43.44 L33.08,44.15 L32.85,45.16 L32.85,65.93 L33.10,66.85 L33.79,67.52 L34.72,67.74 L66.89,67.74 L67.82,67.52 L68.50,66.85 L68.75,65.93 L68.75,45.16 L68.54,44.19 L67.85,43.48 L66.89,43.24 Z" fill="#ffbd02" stroke="#ffbd02" stroke-width="1" stroke-linejoin="round"/><path d="M58.14,43.24 L43.47,43.24 L43.47,35.11 L43.74,33.05 L44.53,31.12 L45.78,29.47 L47.54,28.05 L49.67,27.30 L51.93,27.30 L54.06,28.05 L55.83,29.47 L56.30,30.01 L56.73,30.60 L56.73,30.60 L57.77,32.72 L58.14,35.05 L58.14,43.24 Z" fill="#3f93e6" stroke="#3f93e6" stroke-width="1" stroke-linejoin="round"/><path d="M34.72,43.24 L66.89,43.24 L67.53,43.36 L68.08,43.69 L33.53,67.17 L33.05,66.57 L32.85,65.82 L32.85,45.16 L33.06,44.19 L33.75,43.48 L34.72,43.24 L34.72,43.24 Z" fill="#ffe452" stroke="#1e1e1e" stroke-width="1" stroke-linejoin="round"/><path d="M66.89,43.24 L34.72,43.24 L34.08,43.36 L33.53,43.69 L68.08,67.17 L68.58,66.58 L68.75,65.82 L68.75,45.16 L68.54,44.19 L67.85,43.48 L66.89,43.24 Z" fill="#ffd400" stroke="#1e1e1e" stroke-width="1" stroke-linejoin="round" opacity="0.5"/></svg>