<svg xmlns="http://www.w3.org/2000/svg" viewBox="8.24 0.67 79.52 94.70"><path d="M85.76,45.01 L85.67,47.28 L85.42,49.53 L84.46,53.91 L82.95,58.15 L80.97,62.23 L78.61,66.14 L75.93,69.86 L73.02,73.37 L69.95,76.65 L66.81,79.70 L63.67,82.49 L57.70,87.25 L52.68,90.80 L49.23,93.01 L48.00,93.37 L46.77,93.01 L43.32,90.82 L38.30,87.28 L32.33,82.53 L29.19,79.74 L26.05,76.69 L22.98,73.41 L20.07,69.89 L17.39,66.18 L15.03,62.26 L13.05,58.18 L11.54,53.93 L10.58,49.53 L10.33,47.29 L10.24,45.01 L10.24,15.68 L10.55,14.52 L11.38,13.67 L12.53,13.33 L16.59,13.12 L20.05,12.71 L22.98,12.13 L25.47,11.42 L27.59,10.60 L29.41,9.70 L32.47,7.78 L35.25,5.89 L36.73,5.02 L38.36,4.25 L40.23,3.60 L42.41,3.10 L44.98,2.78 L48.00,2.67 L51.02,2.78 L53.59,3.10 L55.77,3.60 L57.64,4.25 L59.27,5.02 L60.75,5.89 L63.53,7.78 L66.59,9.70 L68.41,10.60 L70.53,11.42 L73.02,12.13 L75.95,12.71 L79.41,13.12 L83.47,13.33 L84.62,13.67 L85.45,14.52 L85.76,15.68 L85.76,45.01 Z" fill="#0078d4" stroke="#1e1e1e" stroke-width="1" stroke-linejoin="round"/><path d="M82.67,45.23 L82.36,49.37 L81.47,53.40 L80.09,57.29 L78.27,61.04 L76.10,64.63 L73.64,68.04 L70.97,71.25 L68.15,74.27 L65.27,77.06 L62.38,79.62 L56.90,83.97 L52.29,87.21 L49.12,89.23 L48.00,89.54 L46.88,89.23 L43.71,87.21 L39.10,83.97 L33.62,79.62 L30.73,77.06 L27.85,74.27 L25.03,71.25 L22.36,68.04 L19.90,64.63 L17.73,61.04 L15.91,57.29 L14.53,53.40 L13.64,49.37 L13.33,45.23 L13.33,18.56 L13.48,17.32 L14.28,16.37 L15.47,16.00 L19.19,15.83 L22.36,15.48 L25.06,14.98 L27.35,14.35 L29.29,13.62 L30.96,12.82 L33.77,11.09 L36.33,9.38 L39.18,7.89 L40.89,7.30 L42.89,6.85 L45.23,6.56 L48.00,6.45 L50.77,6.56 L53.11,6.85 L55.11,7.30 L56.82,7.89 L59.67,9.38 L62.23,11.09 L65.04,12.82 L66.71,13.62 L68.66,14.35 L70.94,14.98 L73.64,15.48 L76.81,15.83 L80.53,16.00 L81.59,16.30 L82.37,17.08 L82.67,18.13 L82.67,45.23 Z" fill="#3f93e6" stroke="#1e1e1e" stroke-width="1" stroke-linejoin="round"/><path d="M63.20,40.85 L61.07,40.85 L61.07,33.28 L60.84,30.64 L60.13,28.09 L58.94,25.73 L57.33,23.63 L55.07,21.70 L52.43,20.35 L49.54,19.66 L46.57,19.66 L43.68,20.35 L41.03,21.70 L38.77,23.63 L37.16,25.73 L35.98,28.09 L35.26,30.64 L35.04,33.28 L35.04,40.85 L32.91,40.85 L31.95,41.04 L31.25,41.72 L31.04,42.67 L31.04,62.29 L31.28,63.16 L31.92,63.79 L32.80,64.00 L63.20,64.00 L64.08,63.79 L64.72,63.16 L64.96,62.29 L64.96,42.67 L64.76,41.75 L64.11,41.08 L63.20,40.85 Z" fill="#ffbd02" stroke="#ffbd02" stroke-width="1" stroke-linejoin="round"/><path d="M54.93,40.85 L41.07,40.85 L41.07,33.17 L41.32,31.23 L42.07,29.41 L43.25,27.84 L44.92,26.50 L46.93,25.80 L49.07,25.80 L51.08,26.50 L52.75,27.84 L53.20,28.36 L53.60,28.91 L53.60,28.91 L54.59,30.91 L54.93,33.12 L54.93,40.85 Z" fill="#3f93e6" stroke="#3f93e6" stroke-width="1" stroke-linejoin="round"/><path d="M32.80,40.85 L63.20,40.85 L63.80,40.97 L64.32,41.28 L31.68,63.47 L31.22,62.89 L31.04,62.19 L31.04,42.67 L31.24,41.75 L31.89,41.08 L32.80,40.85 L32.80,40.85 Z" fill="#ffe452" stroke="#1e1e1e" stroke-width="1" stroke-linejoin="round"/><path d="M63.20,40.85 L32.80,40.85 L32.20,40.97 L31.68,41.28 L64.32,63.47 L64.79,62.90 L64.96,62.19 L64.96,42.67 L64.76,41.75 L64.11,41.08 L63.20,40.85 Z" fill="#ffd400" stroke="#1e1e1e" stroke-width="1" stroke-linejoin="round" opacity="0.5"/></svg>