<svg xmlns="http://www.w3.org/2000/svg" viewBox="0.83 5.12 100.00 91.47"><path d="M85.32,7.12 L86.05,7.22 L86.73,7.50 L87.32,7.95 L87.77,8.53 L88.05,9.21 L88.15,9.94 L88.15,61.14 L88.05,61.87 L87.77,62.55 L87.32,63.13 L86.73,63.58 L86.05,63.87 L85.32,63.96 L5.65,63.96 L4.92,63.87 L4.24,63.58 L3.65,63.13 L3.20,62.55 L2.92,61.87 L2.83,61.14 L2.83,9.94 L2.92,9.21 L3.20,8.53 L3.65,7.95 L4.24,7.50 L4.92,7.22 L5.65,7.12 L85.32,7.12 Z" fill="#3990e4" stroke="#1e1e1e" stroke-width="1" stroke-linejoin="round"/><path d="M81.82,11.87 L82.23,11.92 L82.61,12.08 L82.94,12.33 L83.19,12.66 L83.35,13.04 L83.40,13.45 L83.40,57.69 L83.35,58.10 L83.19,58.48 L82.94,58.81 L82.61,59.06 L82.23,59.22 L81.82,59.27 L9.15,59.27 L8.74,59.22 L8.36,59.06 L8.03,58.81 L7.78,58.48 L7.63,58.10 L7.57,57.69 L7.57,13.45 L7.63,13.04 L7.78,12.66 L8.03,12.33 L8.36,12.08 L8.74,11.92 L9.15,11.87 L81.82,11.87 Z" fill="#ffffff" stroke="#1e1e1e" stroke-width="1" stroke-linejoin="round"/><path d="M62.61,81.20 L59.79,80.49 L58.65,79.97 L57.65,79.34 L56.81,78.61 L56.10,77.78 L55.03,75.81 L54.36,73.46 L54.00,70.74 L53.85,64.24 L36.90,64.24 L36.71,70.90 L36.35,73.66 L35.68,76.03 L34.61,77.98 L33.90,78.79 L33.06,79.50 L32.07,80.10 L30.93,80.58 L28.14,81.20 L26.52,81.74 L25.18,82.81 L24.29,84.27 L23.96,85.94 L66.56,85.94 L66.25,84.31 L65.41,82.88 L64.15,81.80 L62.61,81.20 L62.61,81.20 Z" fill="#1a72c0" stroke="#1e1e1e" stroke-width="1" stroke-linejoin="round"/><path d="M97.02,33.39 L58.14,33.39 L57.07,30.24 L55.23,27.47 L52.75,25.24 L49.79,23.72 L46.55,23.00 L43.22,23.12 L40.03,24.07 L37.19,25.81 L34.88,28.20 L33.25,31.11 L32.41,34.33 L32.41,37.66 L33.25,40.88 L34.88,43.78 L37.19,46.18 L40.03,47.91 L43.22,48.87 L46.55,48.99 L49.79,48.27 L52.75,46.74 L55.23,44.52 L57.07,41.74 L58.14,38.59 L62.15,38.59 L62.15,92.72 L62.40,93.66 L63.09,94.34 L64.02,94.59 L96.96,94.59 L97.89,94.34 L98.58,93.66 L98.83,92.72 L98.83,35.26 L98.58,34.34 L97.93,33.66 L97.02,33.39 L97.02,33.39 Z" fill="#32bedd" stroke="#1e1e1e" stroke-width="1" stroke-linejoin="round"/><path d="M94.76,38.54 L94.93,38.56 L95.10,38.63 L95.24,38.73 L95.34,38.87 L95.41,39.04 L95.43,39.21 L95.43,87.02 L95.41,87.19 L95.34,87.35 L95.24,87.50 L95.10,87.60 L94.93,87.67 L94.76,87.69 L66.34,87.69 L66.16,87.67 L66.00,87.60 L65.86,87.50 L65.75,87.35 L65.68,87.19 L65.66,87.02 L65.66,39.21 L65.68,39.04 L65.75,38.87 L65.86,38.73 L66.00,38.63 L66.16,38.56 L66.34,38.54 L94.76,38.54 Z" fill="#ffffff" stroke="#1e1e1e" stroke-width="1" stroke-linejoin="round"/><ellipse cx="45.49" cy="36.22" rx="8.25" ry="8.25" fill="#e1f5fe" stroke="#e1f5fe" stroke-width="1" opacity="0.9"/><path d="M84.08,61.14 L77.75,54.81 L77.37,54.76 L77.18,55.09 L77.18,58.93 L77.08,59.17 L76.85,59.27 L62.15,59.27 L62.15,63.96 L76.85,63.96 L77.08,64.06 L77.18,64.30 L77.18,68.20 L77.47,68.35 L77.75,68.20 L84.08,62.15 L84.31,61.65 L84.08,61.14 Z" fill="#0078d4" stroke="#1e1e1e" stroke-width="1" stroke-linejoin="round"/></svg>