<svg xmlns="http://www.w3.org/2000/svg" viewBox="0.67 4.72 94.61 86.56"><path d="M80.53,6.72 L81.22,6.81 L81.87,7.08 L82.42,7.50 L82.84,8.05 L83.11,8.70 L83.20,9.39 L83.20,57.71 L83.11,58.40 L82.84,59.04 L82.42,59.59 L81.87,60.02 L81.22,60.28 L80.53,60.37 L5.33,60.37 L4.64,60.28 L4.00,60.02 L3.45,59.59 L3.02,59.04 L2.76,58.40 L2.67,57.71 L2.67,9.39 L2.76,8.70 L3.02,8.05 L3.45,7.50 L4.00,7.08 L4.64,6.81 L5.33,6.72 L80.53,6.72 Z" fill="#3990e4" stroke="#1e1e1e" stroke-width="1" stroke-linejoin="round"/><path d="M77.23,11.20 L77.61,11.25 L77.97,11.40 L78.28,11.64 L78.52,11.95 L78.67,12.31 L78.72,12.69 L78.72,54.45 L78.67,54.84 L78.52,55.20 L78.28,55.51 L77.97,55.75 L77.61,55.90 L77.23,55.95 L8.64,55.95 L8.25,55.90 L7.89,55.75 L7.58,55.51 L7.35,55.20 L7.20,54.84 L7.15,54.45 L7.15,12.69 L7.20,12.31 L7.35,11.95 L7.58,11.64 L7.89,11.40 L8.25,11.25 L8.64,11.20 L77.23,11.20 Z" fill="#ffffff" stroke="#1e1e1e" stroke-width="1" stroke-linejoin="round"/><path d="M59.09,76.64 L56.44,75.97 L55.36,75.48 L54.42,74.89 L53.62,74.20 L52.95,73.41 L51.94,71.56 L51.31,69.34 L50.97,66.77 L50.83,60.64 L34.83,60.64 L34.65,66.92 L34.31,69.53 L33.67,71.76 L32.67,73.60 L32.00,74.37 L31.20,75.04 L30.27,75.60 L29.20,76.06 L26.56,76.64 L25.03,77.15 L23.77,78.16 L22.93,79.54 L22.61,81.12 L62.83,81.12 L62.53,79.58 L61.74,78.23 L60.55,77.21 L59.09,76.64 L59.09,76.64 Z" fill="#1a72c0" stroke="#1e1e1e" stroke-width="1" stroke-linejoin="round"/><path d="M91.57,31.52 L54.88,31.52 L53.87,28.55 L52.13,25.92 L49.79,23.83 L47.00,22.39 L43.93,21.70 L40.79,21.82 L37.78,22.72 L35.10,24.36 L32.92,26.62 L31.38,29.36 L30.59,32.40 L30.59,35.54 L31.38,38.58 L32.92,41.32 L35.10,43.59 L37.78,45.22 L40.79,46.13 L43.93,46.24 L47.00,45.56 L49.79,44.12 L52.13,42.02 L53.87,39.40 L54.88,36.43 L58.67,36.43 L58.67,87.52 L58.90,88.40 L59.55,89.04 L60.43,89.28 L91.52,89.28 L92.40,89.04 L93.04,88.40 L93.28,87.52 L93.28,33.28 L93.05,32.42 L92.43,31.77 L91.57,31.52 L91.57,31.52 Z" fill="#32bedd" stroke="#1e1e1e" stroke-width="1" stroke-linejoin="round"/><path d="M89.44,36.37 L89.61,36.40 L89.76,36.46 L89.89,36.56 L89.99,36.69 L90.06,36.85 L90.08,37.01 L90.08,82.13 L90.06,82.30 L89.99,82.45 L89.89,82.59 L89.76,82.69 L89.61,82.75 L89.44,82.77 L62.61,82.77 L62.45,82.75 L62.29,82.69 L62.16,82.59 L62.06,82.45 L62.00,82.30 L61.97,82.13 L61.97,37.01 L62.00,36.85 L62.06,36.69 L62.16,36.56 L62.29,36.46 L62.45,36.40 L62.61,36.37 L89.44,36.37 Z" fill="#ffffff" stroke="#1e1e1e" stroke-width="1" stroke-linejoin="round"/><ellipse cx="42.93" cy="34.19" rx="7.79" ry="7.79" fill="#e1f5fe" stroke="#e1f5fe" stroke-width="1" opacity="0.9"/><path d="M79.36,57.71 L73.39,51.73 L73.03,51.68 L72.85,52.00 L72.85,55.63 L72.76,55.85 L72.53,55.95 L58.67,55.95 L58.67,60.37 L72.53,60.37 L72.76,60.47 L72.85,60.69 L72.85,64.37 L73.12,64.52 L73.39,64.37 L79.36,58.67 L79.58,58.19 L79.36,57.71 Z" fill="#0078d4" stroke="#0078d4" stroke-width="1" stroke-linejoin="round"/></svg>