<svg xmlns="http://www.w3.org/2000/svg" viewBox="-0.33 -1.62 98.55 100.00"><path d="M71.11,13.38 L71.11,39.40 L48.81,52.46 L48.81,26.39 L71.11,13.38 Z" fill="#949494" stroke="#1e1e1e" stroke-width="1" stroke-linejoin="round"/><path d="M71.11,13.38 L48.81,26.45 L26.50,13.38 L48.81,0.38 L71.11,13.38 Z" fill="#b3b3b3" stroke="#1e1e1e" stroke-width="1" stroke-linejoin="round"/><path d="M48.81,26.45 L48.81,52.46 L26.50,39.40 L26.50,13.38 L48.81,26.45 Z" fill="#e6e6e6" stroke="#1e1e1e" stroke-width="1" stroke-linejoin="round"/><path d="M46.28,57.35 L46.28,83.26 L24.03,96.32 L24.03,70.36 L46.28,57.35 Z" fill="#949494" stroke="#1e1e1e" stroke-width="1" stroke-linejoin="round"/><path d="M46.28,57.35 L24.03,70.41 L1.67,57.35 L24.03,44.29 L46.28,57.35 Z" fill="#b3b3b3" stroke="#1e1e1e" stroke-width="1" stroke-linejoin="round"/><path d="M24.03,70.41 L24.03,96.32 L1.67,83.26 L1.67,57.35 L24.03,70.41 Z" fill="#e6e6e6" stroke="#1e1e1e" stroke-width="1" stroke-linejoin="round"/><path d="M73.85,44.24 L51.55,57.30 L51.55,83.37 L73.85,96.38 L96.22,83.37 L96.22,57.30 L73.85,44.24 Z" fill="#50e6ff" stroke="#1e1e1e" stroke-width="1" stroke-linejoin="round"/><path d="M90.03,84.60 L58.54,84.60 L57.01,84.17 L55.91,83.03 L55.53,81.49 L55.53,81.49 L55.53,60.26 L55.78,58.85 L56.71,57.77 L58.05,57.30 L89.82,57.30 L91.33,57.79 L92.42,58.94 L92.83,60.47 L92.83,81.43 L92.67,82.86 L91.83,84.02 L90.52,84.60 L90.03,84.60 Z" fill="#3990e4" stroke="#1e1e1e" stroke-width="1" stroke-linejoin="round"/><path d="M69.02,79.44 L60.58,71.11 L60.33,70.47 L60.58,69.82 L69.18,61.81 L69.77,61.61 L70.36,61.81 L71.11,62.57 L71.37,63.16 L71.11,63.75 L71.11,63.75 L64.50,69.88 L64.26,70.49 L64.50,71.11 L71.01,77.78 L71.26,78.34 L71.01,78.91 L71.01,78.91 L70.47,79.44 L69.88,79.68 L69.29,79.44 L69.02,79.44 Z" fill="#f2f2f2" stroke="#f2f2f2" stroke-width="1" stroke-linejoin="round"/><path d="M79.12,79.44 L87.51,71.11 L87.80,70.47 L87.51,69.82 L78.69,61.81 L78.10,61.56 L77.51,61.81 L77.51,61.81 L76.92,62.46 L76.68,63.05 L76.92,63.64 L83.58,69.88 L83.87,70.52 L83.58,71.17 L77.19,77.72 L76.93,78.29 L77.19,78.85 L77.19,78.85 L77.67,79.34 L78.12,79.77 L78.75,79.71 L78.95,79.60 L79.12,79.44 L79.12,79.44 Z" fill="#f2f2f2" stroke="#f2f2f2" stroke-width="1" stroke-linejoin="round"/></svg>