<svg xmlns="http://www.w3.org/2000/svg" viewBox="1.16 0.82 99.32 100.00"><path d="M69.91,40.21 L69.61,44.19 L68.76,48.06 L67.42,51.81 L65.67,55.41 L63.58,58.86 L61.21,62.14 L58.63,65.24 L55.92,68.14 L53.14,70.83 L50.36,73.29 L45.09,77.49 L40.65,80.62 L37.61,82.56 L36.51,82.90 L35.41,82.56 L32.37,80.62 L27.94,77.49 L22.67,73.29 L19.90,70.83 L17.12,68.14 L14.42,65.24 L11.85,62.14 L9.48,58.86 L7.39,55.41 L5.64,51.81 L4.31,48.06 L3.46,44.19 L3.16,40.21 L3.16,14.29 L3.45,13.28 L4.19,12.54 L5.20,12.25 L8.77,12.06 L11.83,11.69 L14.42,11.17 L16.61,10.54 L18.48,9.82 L20.09,9.02 L22.79,7.33 L25.26,5.66 L28.01,4.22 L29.66,3.65 L31.59,3.21 L33.86,2.92 L36.54,2.82 L39.21,2.92 L41.48,3.21 L43.40,3.65 L45.05,4.22 L47.80,5.66 L50.24,7.33 L52.93,9.02 L54.53,9.82 L56.39,10.54 L58.58,11.17 L61.16,11.69 L64.20,12.06 L67.76,12.25 L68.78,12.54 L69.54,13.28 L69.85,14.29 L69.91,40.21 Z" fill="#86d633" stroke="#1e1e1e" stroke-width="1" stroke-linejoin="round"/><path d="M67.14,40.43 L66.87,44.09 L66.09,47.64 L64.86,51.08 L63.26,54.39 L61.34,57.55 L59.17,60.56 L56.80,63.40 L54.32,66.06 L49.22,70.79 L44.39,74.64 L40.33,77.50 L37.55,79.28 L36.54,79.59 L35.52,79.28 L32.72,77.50 L28.66,74.64 L23.82,70.79 L18.73,66.06 L16.25,63.40 L13.89,60.56 L11.72,57.55 L9.81,54.39 L8.21,51.08 L6.98,47.64 L6.20,44.09 L5.93,40.43 L5.93,16.94 L6.18,16.01 L6.86,15.33 L7.79,15.08 L11.08,14.85 L13.89,14.47 L16.28,13.96 L18.30,13.35 L21.52,11.91 L24.03,10.32 L26.30,8.77 L28.82,7.44 L30.33,6.91 L32.07,6.51 L34.12,6.25 L36.54,6.16 L38.95,6.25 L41.00,6.51 L42.75,6.91 L44.25,7.43 L46.77,8.76 L49.04,10.28 L51.54,11.84 L54.75,13.23 L56.77,13.81 L59.15,14.28 L61.95,14.61 L65.22,14.80 L66.17,15.04 L66.87,15.72 L67.14,16.66 L67.14,40.43 Z" fill="#85bd2d" stroke="#1e1e1e" stroke-width="1" stroke-linejoin="round"/><path d="M35.52,48.85 L96.40,48.85 L97.40,49.05 L98.16,49.74 L98.48,50.71 L98.48,96.96 L98.16,97.93 L97.40,98.62 L96.40,98.82 L35.52,98.82 L34.53,98.60 L33.77,97.92 L33.43,96.96 L33.43,50.82 L33.73,49.81 L34.50,49.09 L35.52,48.85 L35.52,48.85 Z" fill="#9cebff" stroke="#1e1e1e" stroke-width="1" stroke-linejoin="round"/><path d="M35.41,48.85 L96.51,48.85 L97.46,49.04 L98.18,49.68 L98.48,50.60 L98.48,50.60 L98.48,57.60 L33.43,57.60 L33.43,50.82 L33.74,49.91 L34.46,49.27 L35.41,49.07 L35.41,48.85 Z" fill="#0078d4" stroke="#1e1e1e" stroke-width="1" stroke-linejoin="round"/><path d="M89.62,75.73 L49.47,75.73 L48.34,76.01 L48.01,76.30 L47.89,76.63 L47.89,79.06 L48.01,79.41 L48.34,79.70 L49.47,79.96 L89.62,79.96 L90.78,79.70 L91.13,79.41 L91.26,79.06 L91.26,76.80 L91.10,76.37 L90.71,76.03 L89.62,75.73 Z" fill="#0078d4" stroke="#0078d4" stroke-width="1" stroke-linejoin="round"/><path d="M89.62,65.56 L49.47,65.56 L48.34,65.82 L48.01,66.11 L47.89,66.47 L47.89,68.67 L48.01,69.02 L48.34,69.31 L49.47,69.57 L89.62,69.57 L90.78,69.31 L91.13,69.02 L91.26,68.67 L91.26,66.47 L91.10,66.11 L90.71,65.82 L89.62,65.56 Z" fill="#0078d4" stroke="#0078d4" stroke-width="1" stroke-linejoin="round"/><path d="M89.62,87.19 L49.47,87.19 L48.34,87.45 L48.01,87.74 L47.89,88.09 L47.89,90.35 L48.01,90.71 L48.34,91.00 L49.47,91.26 L89.62,91.26 L90.78,91.00 L91.13,90.71 L91.26,90.35 L91.26,88.09 L91.10,87.74 L90.71,87.45 L89.62,87.19 Z" fill="#0078d4" stroke="#0078d4" stroke-width="1" stroke-linejoin="round"/><ellipse cx="41.22" cy="67.54" rx="2.65" ry="2.65" fill="#0078d4" stroke="#0078d4" stroke-width="1"/><ellipse cx="41.22" cy="77.76" rx="2.65" ry="2.65" fill="#0078d4" stroke="#0078d4" stroke-width="1"/><ellipse cx="41.22" cy="89.22" rx="2.65" ry="2.65" fill="#0078d4" stroke="#0078d4" stroke-width="1"/></svg>