<svg xmlns="http://www.w3.org/2000/svg" viewBox="-2.00 4.03 100.00 87.95"><rect x="0.00" y="6.03" width="96.00" height="68.32" fill="#0078d4" stroke="#1e1e1e" stroke-width="1"/><rect x="5.60" y="10.83" width="84.85" height="58.13" fill="#e1f5fe" stroke="#1e1e1e" stroke-width="1" opacity="0.9"/><rect x="43.04" y="8.16" width="10.19" height="1.39" fill="#f2f2f2" stroke="#f2f2f2" stroke-width="1"/><ellipse cx="68.64" cy="67.47" rx="22.51" ry="22.51" fill="#76bc2d" stroke="#1e1e1e" stroke-width="1"/><path d="M55.20,64.00 L54.74,66.65 L54.77,69.33 L55.46,72.10 L56.69,74.67 L57.85,76.36 L59.25,77.87 L60.81,79.12 L62.51,80.16 L64.39,80.93 L66.35,81.49 L68.37,81.63 L70.40,81.49 L70.03,77.60 L69.81,77.07 L69.28,76.85 L67.20,76.85 L65.89,76.48 L64.64,75.95 L63.49,75.36 L62.40,74.67 L61.46,73.67 L60.69,72.53 L59.86,70.81 L59.41,68.96 L59.23,67.07 L59.41,65.17 L60.75,67.41 L61.23,67.76 L61.81,67.68 L63.47,66.72 L63.81,66.24 L63.73,65.65 L59.25,58.08 L58.75,57.73 L58.13,57.81 L50.61,62.29 L50.39,62.83 L50.61,63.36 L51.52,64.96 L52.01,65.36 L52.64,65.28 L55.20,64.00 Z" fill="#ffffff" stroke="#1e1e1e" stroke-width="1" stroke-linejoin="round"/><path d="M70.93,58.03 L72.24,58.41 L73.49,58.93 L74.67,59.66 L75.73,60.53 L76.70,61.53 L77.49,62.67 L78.29,64.39 L78.72,66.24 L78.90,68.13 L78.72,70.03 L77.39,67.79 L76.92,67.41 L76.32,67.47 L74.72,68.43 L74.35,68.93 L74.45,69.55 L78.88,77.07 L79.38,77.45 L80.00,77.39 L87.52,72.91 L87.92,72.42 L87.84,71.79 L86.88,70.19 L86.37,69.84 L85.76,69.92 L83.15,71.47 L83.66,68.61 L83.57,65.71 L82.89,62.95 L81.71,60.37 L80.52,58.72 L79.15,57.23 L76.95,55.47 L74.47,54.16 L71.79,53.33 L70.16,53.23 L68.53,53.33 L68.00,53.61 L67.84,54.19 L67.84,57.28 L68.09,57.76 L68.59,57.97 L69.76,57.95 L70.93,58.03 L70.93,58.03 Z" fill="#ffffff" stroke="#1e1e1e" stroke-width="1" stroke-linejoin="round"/></svg>