<svg xmlns="http://www.w3.org/2000/svg" viewBox="3.66 0.83 94.57 100.00"><path d="M79.25,91.98 L81.47,91.66 L83.49,90.68 L85.11,89.11 L86.16,87.12 L86.55,84.91 L86.57,84.48 L86.55,84.06 L85.90,79.86 L85.01,75.79 L83.88,71.86 L82.51,68.09 L80.89,64.51 L79.03,61.12 L76.91,57.96 L74.54,55.05 L71.92,52.40 L69.03,50.03 L65.89,47.98 L62.48,46.25 L58.81,44.87 L54.88,43.85 L50.67,43.23 L46.19,43.02 L41.70,43.20 L37.48,43.73 L33.52,44.61 L29.82,45.83 L26.38,47.38 L23.20,49.25 L20.28,51.44 L17.62,53.94 L15.23,56.73 L13.09,59.81 L11.20,63.18 L9.58,66.83 L8.22,70.74 L7.11,74.91 L6.26,79.33 L5.66,84.00 L5.79,86.26 L6.61,88.36 L8.03,90.11 L9.93,91.34 L12.11,91.92 L79.25,91.92 L79.25,91.98 Z" fill="#29b9dd" stroke="#1e1e1e" stroke-width="1" stroke-linejoin="round"/><path d="M46.13,48.23 L41.87,47.82 L37.76,46.59 L33.96,44.60 L46.02,76.42 L58.08,44.83 L54.33,46.70 L50.30,47.84 L46.13,48.23 L46.13,48.23 Z" fill="#ffffff" stroke="#1e1e1e" stroke-width="1" stroke-linejoin="round" opacity="0.8"/><ellipse cx="46.13" cy="25.53" rx="22.70" ry="22.70" fill="#29b9dd" stroke="#1e1e1e" stroke-width="1"/><path d="M86.66,61.25 L84.04,61.38 L81.55,62.20 L79.35,63.63 L77.60,65.58 L76.42,67.92 L75.24,65.58 L73.49,63.62 L71.29,62.18 L68.79,61.37 L66.17,61.25 L64.53,61.53 L63.09,61.97 L61.84,62.56 L60.76,63.28 L59.84,64.10 L59.06,65.01 L57.91,67.02 L57.18,69.14 L56.79,71.23 L56.60,74.66 L56.67,75.85 L56.99,77.55 L57.79,79.78 L59.28,82.52 L61.66,85.79 L65.15,89.60 L69.96,93.94 L76.30,98.83 L76.30,98.83 L76.30,98.83 L76.30,98.83 L76.30,98.83 L82.73,93.90 L87.61,89.53 L91.14,85.72 L93.54,82.46 L95.04,79.73 L95.84,77.53 L96.17,75.84 L96.23,74.66 L96.08,71.23 L95.72,69.14 L95.03,67.02 L93.89,65.01 L93.12,64.10 L92.19,63.28 L91.10,62.56 L89.82,61.97 L88.34,61.53 L86.66,61.25 Z" fill="#b31b1b" stroke="#1e1e1e" stroke-width="1" stroke-linejoin="round"/><path d="M96.23,73.58 L87.17,73.58 L86.81,73.66 L86.55,73.92 L83.72,78.62 L83.41,78.77 L83.09,78.62 L79.25,70.64 L78.85,70.24 L78.28,70.24 L77.89,70.64 L74.04,81.96 L73.70,82.30 L73.36,81.96 L70.02,74.26 L69.37,73.87 L68.72,74.26 L64.30,82.30 L64.04,82.57 L63.68,82.64 L59.60,82.64 L60.60,84.12 L61.70,85.53 L65.38,85.53 L65.75,85.43 L66.00,85.13 L69.11,79.47 L73.30,89.15 L73.70,89.55 L74.26,89.55 L74.66,89.15 L79.02,76.25 L82.81,83.49 L83.46,83.83 L84.11,83.49 L88.30,76.36 L88.57,76.09 L88.92,75.96 L96.23,75.96 L96.23,73.58 Z" fill="#f2f2f2" stroke="#1e1e1e" stroke-width="1" stroke-linejoin="round"/></svg>