<svg xmlns="http://www.w3.org/2000/svg" viewBox="3.33 0.67 89.33 94.45"><path d="M74.67,86.67 L76.77,86.37 L78.67,85.44 L80.19,83.96 L81.18,82.09 L81.55,80.00 L81.57,79.60 L81.55,79.20 L80.94,75.25 L80.10,71.41 L79.04,67.71 L77.74,64.16 L76.22,60.78 L74.46,57.59 L72.47,54.61 L70.23,51.87 L67.76,49.37 L65.04,47.14 L62.08,45.20 L58.87,43.57 L55.42,42.27 L51.71,41.32 L47.74,40.73 L43.52,40.53 L39.29,40.70 L35.31,41.21 L31.58,42.04 L28.10,43.18 L24.86,44.64 L21.86,46.41 L19.11,48.47 L16.61,50.82 L14.35,53.45 L12.33,56.36 L10.56,59.53 L9.03,62.97 L7.74,66.65 L6.70,70.58 L5.89,74.75 L5.33,79.15 L5.45,81.27 L6.23,83.26 L7.57,84.91 L9.36,86.06 L11.41,86.61 L74.67,86.61 L74.67,86.67 Z" fill="#29b9dd" stroke="#1e1e1e" stroke-width="1" stroke-linejoin="round"/><path d="M43.47,45.44 L39.45,45.05 L35.58,43.90 L32.00,42.03 L43.36,72.00 L54.72,42.24 L51.19,44.00 L47.39,45.08 L43.47,45.44 L43.47,45.44 Z" fill="#ffffff" stroke="#1e1e1e" stroke-width="1" stroke-linejoin="round" opacity="0.8"/><ellipse cx="43.47" cy="24.05" rx="21.39" ry="21.39" fill="#29b9dd" stroke="#1e1e1e" stroke-width="1"/><path d="M81.65,57.71 L79.18,57.84 L76.83,58.60 L74.76,59.95 L73.11,61.79 L72.00,64.00 L70.89,61.79 L69.24,59.94 L67.17,58.59 L64.82,57.83 L62.35,57.71 L60.80,57.97 L59.45,58.39 L58.27,58.95 L57.25,59.62 L56.38,60.40 L55.65,61.26 L54.56,63.15 L53.88,65.15 L53.51,67.11 L53.33,70.35 L53.39,71.47 L53.70,73.07 L54.45,75.17 L55.85,77.75 L58.10,80.84 L61.39,84.42 L65.92,88.52 L71.89,93.12 L71.89,93.12 L71.89,93.12 L71.89,93.12 L71.89,93.12 L77.95,88.47 L82.54,84.36 L85.87,80.77 L88.14,77.69 L89.55,75.12 L90.31,73.05 L90.61,71.46 L90.67,70.35 L90.53,67.11 L90.19,65.15 L89.54,63.15 L88.47,61.26 L87.74,60.40 L86.86,59.62 L85.83,58.95 L84.63,58.39 L83.24,57.97 L81.65,57.71 Z" fill="#b31b1b" stroke="#1e1e1e" stroke-width="1" stroke-linejoin="round"/><path d="M90.67,69.33 L82.13,69.33 L81.79,69.40 L81.55,69.65 L78.88,74.08 L78.59,74.22 L78.29,74.08 L74.67,66.56 L74.29,66.19 L73.76,66.19 L73.39,66.56 L69.76,77.23 L69.44,77.55 L69.12,77.23 L65.97,69.97 L65.36,69.60 L64.75,69.97 L60.59,77.55 L60.34,77.80 L60.00,77.87 L56.16,77.87 L57.10,79.26 L58.13,80.59 L61.60,80.59 L61.95,80.50 L62.19,80.21 L65.12,74.88 L69.07,84.00 L69.44,84.37 L69.97,84.37 L70.35,84.00 L74.45,71.84 L78.03,78.67 L78.64,78.99 L79.25,78.67 L83.20,71.95 L83.45,71.69 L83.79,71.57 L90.67,71.57" fill="none" stroke="#1e1e1e" stroke-width="1" stroke-linejoin="round"/></svg>