<svg xmlns="http://www.w3.org/2000/svg" viewBox="0.27 -2.00 95.48 99.91"><path d="M93.59,81.03 L93.10,82.43 L92.24,83.81 L91.03,85.17 L89.46,86.50 L87.54,87.79 L85.26,89.03 L82.62,90.21 L79.64,91.32 L70.56,93.60 L61.32,95.12 L51.99,95.90 L42.63,95.91 L33.30,95.16 L24.06,93.66 L14.97,91.41 L12.22,90.35 L9.81,89.23 L7.74,88.05 L5.99,86.82 L4.58,85.55 L3.51,84.26 L2.76,82.94 L2.35,81.60 L2.31,76.12 L2.35,71.11 L93.74,70.26 L93.59,81.03 Z" fill="#5ea0ef" stroke="#1e1e1e" stroke-width="1" stroke-linejoin="round"/><path d="M93.74,70.44 L93.54,71.99 L92.89,73.54 L91.82,75.05 L90.32,76.53 L88.42,77.95 L86.12,79.30 L83.46,80.58 L80.46,81.76 L77.14,82.83 L73.55,83.79 L69.71,84.63 L65.65,85.33 L61.43,85.90 L57.08,86.32 L52.65,86.59 L48.16,86.71 L43.68,86.68 L39.24,86.50 L34.88,86.17 L30.65,85.69 L26.59,85.06 L22.73,84.30 L19.11,83.42 L15.78,82.41 L12.75,81.29 L10.06,80.07 L7.74,78.76 L5.81,77.38 L4.28,75.93 L3.18,74.44 L2.50,72.91 L2.27,71.36 L2.47,69.81 L3.12,68.27 L4.19,66.75 L5.69,65.27 L7.59,63.85 L9.89,62.50 L12.55,61.22 L15.55,60.04 L18.87,58.97 L22.46,58.01 L26.31,57.17 L30.36,56.47 L34.58,55.90 L38.93,55.48 L43.36,55.21 L47.85,55.09 L52.33,55.12 L56.77,55.30 L61.13,55.64 L65.36,56.12 L69.43,56.74 L73.28,57.50 L76.90,58.39 L80.23,59.40 L83.26,60.52 L85.95,61.73 L88.27,63.04 L90.20,64.43 L91.73,65.87 L92.83,67.37 L93.51,68.89 L93.74,70.44 Z" fill="#50e6ff" stroke="#1e1e1e" stroke-width="1" stroke-linejoin="round"/><path d="M83.95,0.00 L84.61,0.09 L85.23,0.34 L85.76,0.75 L86.17,1.28 L86.42,1.90 L86.51,2.57 L86.51,48.78 L86.42,49.45 L86.17,50.07 L85.76,50.60 L85.23,51.01 L84.61,51.26 L83.95,51.35 L12.05,51.35 L11.39,51.26 L10.77,51.01 L10.24,50.60 L9.83,50.07 L9.58,49.45 L9.49,48.78 L9.49,2.57 L9.58,1.90 L9.83,1.28 L10.24,0.75 L10.77,0.34 L11.39,0.09 L12.05,0.00 L83.95,0.00 Z" fill="#3990e4" stroke="#1e1e1e" stroke-width="1" stroke-linejoin="round"/><path d="M63.47,66.88 L60.94,66.23 L59.02,65.20 L57.62,63.78 L56.65,61.99 L56.05,59.84 L55.72,57.35 L55.55,51.35 L40.43,51.35 L40.27,57.35 L39.94,59.84 L39.35,61.99 L38.39,63.78 L37.00,65.20 L35.08,66.23 L32.55,66.88 L31.06,67.33 L29.83,68.28 L29.02,69.61 L28.75,71.15 L67.25,71.15 L66.98,69.62 L66.18,68.29 L64.95,67.33 L63.47,66.88 L63.47,66.88 Z" fill="#a6a6a6" stroke="#1e1e1e" stroke-width="1" stroke-linejoin="round"/><path d="M65.07,29.57 L65.07,13.64 L60.48,13.64 L60.48,33.10 L72.06,33.10 L72.06,29.57 L65.07,29.57 Z" fill="#ffffff" stroke="#ffffff" stroke-width="1" stroke-linejoin="round"/><path d="M31.47,21.70 L30.21,21.07 L29.06,20.27 L28.60,19.55 L28.47,18.71 L28.65,17.90 L29.20,17.29 L30.14,16.87 L31.17,16.78 L33.56,17.09 L35.73,18.13 L35.73,14.09 L33.49,13.50 L31.17,13.33 L29.33,13.46 L27.58,14.00 L25.99,14.93 L24.92,16.11 L24.26,17.56 L24.07,19.15 L24.40,20.95 L25.23,22.59 L26.50,23.92 L28.10,24.83 L29.61,25.56 L30.99,26.52 L31.53,27.19 L31.72,28.03 L31.53,28.85 L30.99,29.50 L30.07,29.93 L29.06,30.09 L27.21,29.84 L25.46,29.16 L23.94,28.07 L23.94,32.64 L26.38,33.51 L28.97,33.74 L30.93,33.55 L32.81,32.94 L34.51,31.95 L35.64,30.76 L36.34,29.28 L36.53,27.65 L36.26,25.88 L35.34,24.35 L33.54,22.83 L31.47,21.70 L31.47,21.70 Z" fill="#ffffff" stroke="#ffffff" stroke-width="1" stroke-linejoin="round"/><path d="M55.92,29.21 L56.81,27.33 L57.34,25.32 L57.48,23.25 L57.19,20.59 L56.29,18.07 L54.89,16.07 L52.99,14.55 L50.77,13.65 L48.39,13.33 L45.76,13.64 L43.31,14.62 L41.29,16.19 L39.82,18.28 L38.78,20.88 L38.40,23.66 L38.67,26.20 L39.50,28.61 L40.88,30.58 L42.75,32.09 L44.95,33.07 L47.33,33.47 L51.36,38.04 L57.07,38.04 L51.53,32.71 L53.25,31.90 L54.73,30.71 L55.90,29.21 L55.92,29.21 Z" fill="#ffffff" stroke="#ffffff" stroke-width="1" stroke-linejoin="round"/><path d="M51.34,28.02 L50.35,28.94 L49.12,29.51 L47.77,29.66 L46.41,29.50 L45.18,28.92 L44.20,27.97 L43.11,25.80 L42.82,23.39 L43.12,20.98 L44.20,18.81 L45.22,17.88 L46.48,17.29 L47.86,17.11 L49.20,17.27 L50.42,17.86 L51.39,18.81 L52.40,21.00 L52.67,23.39 L52.66,25.01 L52.27,26.58 L51.53,28.02 L51.34,28.02 Z" fill="#3990e4" stroke="#3990e4" stroke-width="1" stroke-linejoin="round"/></svg>