<svg xmlns="http://www.w3.org/2000/svg" viewBox="-1.86 -1.78 99.83 100.00"><path d="M95.81,80.64 L95.29,82.10 L94.39,83.55 L93.12,84.98 L91.48,86.37 L89.47,87.72 L87.08,89.01 L84.32,90.25 L81.19,91.41 L71.68,93.79 L62.00,95.39 L52.23,96.20 L42.42,96.22 L32.65,95.44 L22.97,93.86 L13.45,91.51 L10.57,90.39 L8.04,89.21 L5.87,87.97 L4.04,86.69 L2.56,85.36 L1.44,84.00 L0.66,82.62 L0.22,81.21 L0.18,75.47 L0.22,70.23 L95.97,69.34 L95.81,80.64 Z" fill="#5ea0ef" stroke="#1e1e1e" stroke-width="1" stroke-linejoin="round"/><path d="M95.97,69.53 L95.75,71.16 L95.08,72.77 L93.95,74.36 L92.38,75.91 L90.39,77.40 L87.99,78.82 L85.20,80.15 L82.05,81.39 L78.58,82.51 L74.81,83.52 L70.79,84.40 L66.54,85.13 L62.12,85.73 L57.56,86.17 L52.91,86.45 L48.22,86.58 L43.52,86.55 L38.87,86.35 L34.30,86.01 L29.87,85.50 L25.61,84.85 L21.57,84.05 L17.78,83.12 L14.29,82.07 L11.12,80.89 L8.30,79.62 L5.87,78.25 L3.85,76.80 L2.25,75.28 L1.09,73.72 L0.38,72.12 L0.14,70.50 L0.35,68.87 L1.02,67.25 L2.15,65.67 L3.72,64.12 L5.72,62.63 L8.12,61.21 L10.91,59.88 L14.05,58.64 L17.53,57.51 L21.29,56.51 L25.32,55.63 L29.56,54.89 L33.98,54.30 L38.54,53.86 L43.19,53.58 L47.89,53.45 L52.58,53.48 L57.24,53.67 L61.80,54.02 L66.24,54.53 L70.49,55.18 L74.54,55.97 L78.32,56.90 L81.82,57.96 L84.99,59.13 L87.80,60.41 L90.23,61.78 L92.26,63.23 L93.86,64.75 L95.02,66.31 L95.72,67.91 L95.97,69.53 Z" fill="#50e6ff" stroke="#1e1e1e" stroke-width="1" stroke-linejoin="round"/><path d="M33.75,0.22 L20.69,2.64 L20.69,20.45 L33.75,23.24 L46.86,17.99 L46.86,4.69 L33.75,0.22 Z" fill="#975ae8" stroke="#1e1e1e" stroke-width="1" stroke-linejoin="round"/><path d="M62.02,0.45 L48.96,2.87 L48.96,20.68 L62.02,23.47 L75.08,18.17 L75.08,4.92 L62.02,0.45 Z" fill="#975ae8" stroke="#1e1e1e" stroke-width="1" stroke-linejoin="round"/><path d="M20.37,24.79 L7.30,27.21 L7.30,45.02 L20.37,47.81 L33.47,42.56 L33.47,29.27 L20.37,24.79 Z" fill="#975ae8" stroke="#1e1e1e" stroke-width="1" stroke-linejoin="round"/><path d="M48.55,24.61 L35.48,27.03 L35.48,44.84 L48.55,47.67 L61.61,42.37 L61.61,29.08 L48.55,24.61 Z" fill="#975ae8" stroke="#1e1e1e" stroke-width="1" stroke-linejoin="round"/><path d="M76.72,24.83 L63.66,27.26 L63.66,45.07 L76.72,47.85 L89.84,42.60 L89.84,29.31 L76.72,24.83 Z" fill="#975ae8" stroke="#1e1e1e" stroke-width="1" stroke-linejoin="round"/><path d="M33.43,49.64 L20.37,52.01 L20.37,69.82 L33.43,72.66 L46.54,67.36 L46.54,54.11 L33.43,49.64 Z" fill="#975ae8" stroke="#1e1e1e" stroke-width="1" stroke-linejoin="round"/><path d="M61.65,49.82 L48.59,52.24 L48.59,70.05 L61.65,72.84 L74.76,67.59 L74.76,54.29 L61.65,49.82 Z" fill="#975ae8" stroke="#1e1e1e" stroke-width="1" stroke-linejoin="round"/><path d="M20.69,2.64 L20.69,20.45 L33.88,23.24 L33.88,0.40 L20.69,2.64 Z" fill="#341a6e" stroke="#341a6e" stroke-width="1" stroke-linejoin="round"/><path d="M26.26,19.08 L22.56,18.35 L22.56,4.65 L26.26,4.06 L26.26,19.08 Z" fill="#975ae8" stroke="#975ae8" stroke-width="1" stroke-linejoin="round"/><path d="M32.03,20.13 L27.76,19.45 L27.76,3.78 L32.03,3.05 L32.03,20.13 Z" fill="#975ae8" stroke="#975ae8" stroke-width="1" stroke-linejoin="round"/><path d="M48.96,2.87 L48.96,20.68 L62.07,23.47 L62.07,0.63 L48.96,2.87 Z" fill="#341a6e" stroke="#341a6e" stroke-width="1" stroke-linejoin="round"/><path d="M54.48,19.31 L50.79,18.58 L50.79,4.88 L54.48,4.27 L54.48,19.31 Z" fill="#975ae8" stroke="#975ae8" stroke-width="1" stroke-linejoin="round"/><path d="M60.24,20.38 L55.97,19.69 L55.97,4.01 L60.24,3.24 L60.24,20.38 Z" fill="#975ae8" stroke="#975ae8" stroke-width="1" stroke-linejoin="round"/><path d="M7.26,27.23 L7.26,44.89 L20.46,47.67 L20.46,24.83 L7.26,27.23 Z" fill="#341a6e" stroke="#341a6e" stroke-width="1" stroke-linejoin="round"/><path d="M12.81,43.70 L9.08,42.92 L9.08,29.22 L12.78,28.58 L12.81,43.70 Z" fill="#975ae8" stroke="#975ae8" stroke-width="1" stroke-linejoin="round"/><path d="M18.61,44.89 L14.34,44.20 L14.34,28.35 L18.61,27.62 L18.61,44.89 Z" fill="#975ae8" stroke="#975ae8" stroke-width="1" stroke-linejoin="round"/><path d="M35.48,27.03 L35.48,44.89 L48.64,47.67 L48.64,24.83 L35.48,27.03 Z" fill="#341a6e" stroke="#341a6e" stroke-width="1" stroke-linejoin="round"/><path d="M41.01,43.51 L37.31,42.74 L37.31,29.04 L41.01,28.40 L41.01,43.51 Z" fill="#975ae8" stroke="#975ae8" stroke-width="1" stroke-linejoin="round"/><path d="M46.77,44.52 L42.49,43.83 L42.49,28.17 L46.77,27.44 L46.77,44.52 Z" fill="#975ae8" stroke="#975ae8" stroke-width="1" stroke-linejoin="round"/><path d="M63.66,27.26 L63.66,44.88 L76.87,47.67 L76.87,24.83 L63.66,27.26 Z" fill="#341a6e" stroke="#341a6e" stroke-width="1" stroke-linejoin="round"/><path d="M69.23,43.74 L65.54,42.97 L65.54,29.27 L69.23,28.63 L69.23,43.74 Z" fill="#975ae8" stroke="#975ae8" stroke-width="1" stroke-linejoin="round"/><path d="M74.99,44.75 L70.75,44.06 L70.75,28.40 L75.02,27.67 L74.99,44.75 Z" fill="#975ae8" stroke="#975ae8" stroke-width="1" stroke-linejoin="round"/><path d="M20.37,52.01 L20.37,69.82 L33.57,72.66 L33.57,49.46 L20.37,52.01 Z" fill="#341a6e" stroke="#341a6e" stroke-width="1" stroke-linejoin="round"/><path d="M25.94,68.50 L22.24,67.72 L22.24,54.02 L25.94,53.38 L25.94,68.50 Z" fill="#975ae8" stroke="#975ae8" stroke-width="1" stroke-linejoin="round"/><path d="M31.69,69.57 L27.42,68.88 L27.42,53.16 L31.69,52.42 L31.69,69.57 Z" fill="#975ae8" stroke="#975ae8" stroke-width="1" stroke-linejoin="round"/><path d="M48.58,52.24 L48.58,70.05 L61.78,72.84 L61.78,50.00 L48.58,52.24 Z" fill="#341a6e" stroke="#341a6e" stroke-width="1" stroke-linejoin="round"/><path d="M54.15,68.73 L50.45,67.95 L50.45,54.25 L54.15,53.61 L54.15,68.73 Z" fill="#975ae8" stroke="#975ae8" stroke-width="1" stroke-linejoin="round"/><path d="M59.91,69.73 L55.64,69.05 L55.64,53.38 L59.91,52.65 L59.91,69.73 Z" fill="#975ae8" stroke="#975ae8" stroke-width="1" stroke-linejoin="round"/></svg>