<svg xmlns="http://www.w3.org/2000/svg" viewBox="0.27 -2.00 95.56 100.00"><path d="M93.68,81.11 L93.18,82.51 L92.33,83.89 L91.11,85.25 L89.54,86.58 L87.62,87.87 L85.34,89.11 L82.70,90.29 L79.71,91.41 L70.62,93.68 L61.38,95.21 L52.04,95.99 L42.67,96.00 L33.33,95.25 L24.08,93.75 L14.98,91.50 L12.24,90.43 L9.82,89.31 L7.74,88.13 L6.00,86.90 L4.59,85.63 L3.51,84.33 L2.77,83.01 L2.35,81.68 L2.31,76.19 L2.35,71.18 L93.83,70.33 L93.68,81.11 Z" fill="#5ea0ef" stroke="#1e1e1e" stroke-width="1" stroke-linejoin="round"/><path d="M93.83,70.51 L93.62,72.06 L92.98,73.60 L91.90,75.12 L90.40,76.60 L88.50,78.02 L86.20,79.38 L83.54,80.65 L80.53,81.83 L77.21,82.91 L73.61,83.87 L69.77,84.71 L65.71,85.41 L61.49,85.98 L57.14,86.40 L52.69,86.67 L48.21,86.79 L43.72,86.76 L39.27,86.58 L34.91,86.25 L30.68,85.77 L26.61,85.14 L22.75,84.38 L19.13,83.49 L15.79,82.48 L12.76,81.36 L10.07,80.14 L7.75,78.83 L5.82,77.45 L4.29,76.00 L3.18,74.51 L2.51,72.98 L2.27,71.43 L2.48,69.87 L3.12,68.33 L4.20,66.81 L5.69,65.33 L7.60,63.91 L9.90,62.56 L12.56,61.28 L15.57,60.10 L18.89,59.02 L22.48,58.06 L26.33,57.23 L30.38,56.52 L34.61,55.95 L38.96,55.53 L43.40,55.26 L47.89,55.14 L52.38,55.17 L56.82,55.35 L61.19,55.69 L65.42,56.17 L69.49,56.79 L73.35,57.55 L76.97,58.44 L80.31,59.45 L83.34,60.57 L86.02,61.79 L88.35,63.10 L90.28,64.49 L91.81,65.93 L92.92,67.43 L93.59,68.96 L93.83,70.51 Z" fill="#50e6ff" stroke="#1e1e1e" stroke-width="1" stroke-linejoin="round"/><path d="M84.02,0.00 L84.69,0.09 L85.31,0.34 L85.84,0.75 L86.25,1.28 L86.50,1.90 L86.59,2.57 L86.59,48.83 L86.50,49.49 L86.25,50.11 L85.84,50.64 L85.31,51.05 L84.69,51.31 L84.02,51.40 L12.06,51.40 L11.40,51.31 L10.78,51.05 L10.25,50.64 L9.84,50.11 L9.58,49.49 L9.50,48.83 L9.50,2.57 L9.58,1.90 L9.84,1.28 L10.25,0.75 L10.78,0.34 L11.40,0.09 L12.06,0.00 L84.02,0.00 Z" fill="#3990e4" stroke="#1e1e1e" stroke-width="1" stroke-linejoin="round"/><path d="M63.53,66.94 L61.00,66.29 L59.07,65.26 L57.67,63.84 L56.71,62.05 L56.10,59.90 L55.77,57.40 L55.60,51.40 L40.46,51.40 L40.30,57.40 L39.98,59.90 L39.38,62.05 L38.43,63.84 L37.03,65.26 L35.11,66.29 L32.58,66.94 L31.09,67.39 L29.86,68.34 L29.05,69.68 L28.77,71.21 L67.32,71.21 L67.04,69.68 L66.24,68.35 L65.01,67.40 L63.53,66.94 L63.53,66.94 Z" fill="#a6a6a6" stroke="#1e1e1e" stroke-width="1" stroke-linejoin="round"/><path d="M65.13,29.60 L65.13,13.65 L60.54,13.65 L60.54,33.13 L72.13,33.13 L72.13,29.60 L65.13,29.60 Z" fill="#ffffff" stroke="#ffffff" stroke-width="1" stroke-linejoin="round"/><path d="M31.50,21.72 L30.24,21.09 L29.09,20.29 L28.63,19.57 L28.50,18.73 L28.68,17.92 L29.23,17.30 L30.17,16.89 L31.20,16.80 L33.59,17.11 L35.77,18.15 L35.77,14.10 L33.52,13.52 L31.20,13.35 L29.36,13.47 L27.60,14.02 L26.02,14.95 L24.94,16.13 L24.28,17.58 L24.09,19.16 L24.42,20.97 L25.26,22.61 L26.53,23.94 L28.13,24.85 L29.63,25.59 L31.02,26.54 L31.56,27.21 L31.75,28.06 L31.56,28.88 L31.02,29.53 L30.09,29.96 L29.09,30.12 L27.23,29.87 L25.49,29.19 L23.96,28.10 L23.96,32.67 L26.41,33.54 L29.00,33.77 L30.96,33.58 L32.84,32.98 L34.54,31.98 L35.67,30.79 L36.37,29.30 L36.56,27.67 L36.29,25.91 L35.37,24.37 L33.57,22.85 L31.50,21.72 L31.50,21.72 Z" fill="#ffffff" stroke="#ffffff" stroke-width="1" stroke-linejoin="round"/><path d="M55.97,29.23 L56.87,27.36 L57.39,25.35 L57.53,23.27 L57.25,20.61 L56.34,18.09 L54.95,16.09 L53.04,14.56 L50.82,13.66 L48.43,13.35 L45.81,13.66 L43.35,14.63 L41.33,16.21 L39.86,18.30 L38.81,20.90 L38.44,23.69 L38.70,26.22 L39.54,28.63 L40.92,30.60 L42.79,32.12 L44.99,33.10 L47.37,33.50 L51.41,38.08 L57.12,38.08 L51.57,32.74 L53.30,31.93 L54.78,30.74 L55.95,29.23 L55.97,29.23 Z" fill="#ffffff" stroke="#ffffff" stroke-width="1" stroke-linejoin="round"/><path d="M51.39,28.04 L50.40,28.97 L49.16,29.53 L47.81,29.69 L46.46,29.53 L45.22,28.94 L44.24,27.99 L43.15,25.82 L42.86,23.41 L43.16,21.00 L44.24,18.83 L45.27,17.89 L46.53,17.31 L47.91,17.13 L49.25,17.29 L50.47,17.88 L51.43,18.83 L52.45,21.02 L52.72,23.41 L52.71,25.03 L52.32,26.60 L51.57,28.04 L51.39,28.04 Z" fill="#3990e4" stroke="#3990e4" stroke-width="1" stroke-linejoin="round"/></svg>