<svg xmlns="http://www.w3.org/2000/svg" viewBox="0.27 -1.85 95.48 99.51"><path d="M93.59,80.78 L93.10,82.17 L92.24,83.56 L91.03,84.92 L89.46,86.25 L87.54,87.53 L85.26,88.77 L82.62,89.95 L79.64,91.07 L70.56,93.34 L61.32,94.87 L51.99,95.64 L42.63,95.66 L33.30,94.91 L24.06,93.41 L14.97,91.16 L12.22,90.10 L9.81,88.97 L7.74,87.79 L5.99,86.56 L4.58,85.29 L3.51,83.99 L2.76,82.67 L2.35,81.33 L2.31,75.85 L2.35,70.85 L93.74,69.99 L93.59,80.78 Z" fill="#5ea0ef" stroke="#1e1e1e" stroke-width="1" stroke-linejoin="round"/><path d="M93.74,70.19 L93.53,71.74 L92.89,73.28 L91.82,74.80 L90.32,76.27 L88.41,77.69 L86.12,79.05 L83.46,80.32 L80.46,81.50 L77.14,82.58 L73.54,83.54 L69.70,84.37 L65.65,85.08 L61.43,85.64 L57.08,86.06 L52.64,86.34 L48.16,86.46 L43.68,86.43 L39.24,86.24 L34.88,85.91 L30.65,85.43 L26.58,84.81 L22.72,84.05 L19.11,83.16 L15.77,82.15 L12.75,81.03 L10.06,79.81 L7.74,78.50 L5.81,77.12 L4.28,75.67 L3.18,74.18 L2.50,72.65 L2.27,71.10 L2.47,69.55 L3.11,68.01 L4.19,66.49 L5.69,65.02 L7.59,63.60 L9.89,62.24 L12.55,60.97 L15.55,59.79 L18.87,58.71 L22.46,57.75 L26.30,56.92 L30.35,56.21 L34.57,55.65 L38.92,55.23 L43.36,54.95 L47.84,54.83 L52.33,54.86 L56.77,55.05 L61.13,55.38 L65.36,55.86 L69.42,56.48 L73.28,57.24 L76.89,58.13 L80.23,59.14 L83.26,60.26 L85.94,61.48 L88.26,62.79 L90.20,64.17 L91.72,65.62 L92.83,67.11 L93.50,68.64 L93.74,70.19 Z" fill="#50e6ff" stroke="#1e1e1e" stroke-width="1" stroke-linejoin="round"/><path d="M45.44,21.69 L39.44,21.48 L33.86,20.87 L28.80,19.90 L24.40,18.60 L20.76,17.02 L19.27,16.14 L18.02,15.19 L17.02,14.19 L16.28,13.14 L15.83,12.05 L15.68,10.92 L15.68,68.31 L15.83,69.40 L16.27,70.46 L17.00,71.48 L17.98,72.47 L19.21,73.40 L20.68,74.28 L24.26,75.87 L28.60,77.18 L33.58,78.18 L39.09,78.83 L45.01,79.08 L45.44,79.08 L51.44,78.87 L57.02,78.26 L62.08,77.29 L66.48,75.99 L70.12,74.41 L71.61,73.52 L72.86,72.58 L73.86,71.58 L74.60,70.53 L75.05,69.44 L75.20,68.31 L75.20,10.92 L75.05,12.03 L74.59,13.10 L73.86,14.14 L72.86,15.13 L71.61,16.07 L70.11,16.96 L66.48,18.55 L62.07,19.86 L57.02,20.85 L51.44,21.47 L45.44,21.69 Z" fill="#005ba1" stroke="#1e1e1e" stroke-width="1" stroke-linejoin="round"/><path d="M75.20,10.92 L75.05,12.03 L74.59,13.10 L73.86,14.14 L72.86,15.13 L71.61,16.07 L70.11,16.96 L66.48,18.55 L62.07,19.86 L57.02,20.85 L51.44,21.47 L45.44,21.69 L39.44,21.48 L33.86,20.87 L28.80,19.90 L24.40,18.61 L20.76,17.03 L19.27,16.14 L18.02,15.20 L17.02,14.20 L16.28,13.15 L15.83,12.06 L15.68,10.92 L15.83,9.79 L16.28,8.70 L17.02,7.65 L18.02,6.65 L19.27,5.70 L20.76,4.81 L24.40,3.23 L28.80,1.94 L33.86,0.97 L39.44,0.36 L45.44,0.15 L51.44,0.36 L57.02,0.97 L62.08,1.94 L66.48,3.24 L70.12,4.82 L71.61,5.71 L72.86,6.66 L73.86,7.65 L74.60,8.70 L75.05,9.79 L75.20,10.92 Z" fill="#e8e8e8" stroke="#1e1e1e" stroke-width="1" stroke-linejoin="round"/><path d="M68.27,10.04 L68.15,10.74 L67.80,11.43 L67.24,12.09 L66.47,12.72 L64.36,13.89 L61.56,14.90 L58.18,15.74 L54.30,16.37 L50.02,16.77 L45.42,16.91 L40.83,16.77 L36.55,16.37 L32.67,15.74 L29.29,14.90 L26.50,13.88 L24.39,12.71 L23.63,12.08 L23.06,11.42 L22.72,10.74 L22.60,10.04 L22.72,9.33 L23.06,8.65 L23.63,8.00 L24.40,7.37 L26.51,6.21 L29.30,5.19 L32.68,4.36 L36.56,3.73 L40.85,3.34 L45.44,3.20 L50.03,3.34 L54.31,3.74 L58.19,4.37 L61.57,5.21 L64.36,6.23 L66.47,7.39 L67.24,8.02 L67.80,8.68 L68.15,9.36 L68.27,10.06" fill="none" stroke="#1e1e1e" stroke-width="1" stroke-linejoin="round"/><path d="M45.44,11.73 L39.33,11.93 L33.29,12.83 L27.38,14.40 L33.29,15.93 L39.34,16.78 L45.44,16.92 L51.55,16.75 L57.60,15.85 L63.50,14.25 L57.58,12.74 L51.54,11.90 L45.44,11.73 L45.44,11.73 Z" fill="#198ab3" stroke="#198ab3" stroke-width="1" stroke-linejoin="round"/><path d="M60.31,39.97 L60.31,41.91 L60.08,43.37 L59.94,44.84 L59.98,45.92 L60.17,46.98 L60.26,47.81 L60.17,48.65 L59.86,50.72 L59.01,52.63 L59.01,52.80 L59.01,52.96 L59.48,53.52 L62.28,48.15 L64.39,42.47 L64.39,42.47 L65.15,39.41 L65.47,36.87 L65.36,34.90 L65.14,34.15 L64.81,33.56 L62.84,31.64 L60.47,30.22 L57.85,29.38 L55.10,29.16 L52.37,29.57 L54.62,30.94 L56.60,32.68 L58.47,34.75 L59.74,37.24 L60.31,39.97 L60.31,39.97 Z" fill="#f2f2f2" stroke="#f2f2f2" stroke-width="1" stroke-linejoin="round"/><path d="M58.87,40.34 L57.00,40.22 L55.21,40.76 L54.78,41.11 L54.51,41.54 L54.35,42.61 L54.62,43.91 L55.21,45.40 L55.95,47.39 L56.81,49.34 L57.22,50.09 L57.22,50.09 L57.75,51.01 L58.12,51.62 L58.74,50.16 L58.96,48.60 L58.98,47.83 L58.96,47.07 L58.94,45.92 L58.73,44.79 L58.87,43.19 L59.10,41.59 L59.01,40.90 L59.05,40.20 L58.87,40.34 Z" fill="#f2f2f2" stroke="#f2f2f2" stroke-width="1" stroke-linejoin="round"/><path d="M57.48,42.24 L57.10,42.53 L56.65,42.70 L56.65,42.70 L56.32,42.74 L55.99,42.70 L55.73,42.30 L55.67,41.82 L55.67,41.82 L56.01,41.39 L56.78,41.13 L57.66,41.13 L57.87,41.18 L58.09,41.50 L57.94,41.84 L57.66,42.10 L57.48,42.24 Z" fill="#005ba1" stroke="#005ba1" stroke-width="1" stroke-linejoin="round"/><path d="M35.73,46.40 L35.73,45.58 L35.75,45.19 L35.73,44.79 L35.63,42.47 L35.73,40.15 L36.29,37.56 L37.13,35.05 L38.21,32.71 L39.79,30.69 L36.70,30.00 L33.54,29.76 L30.87,30.06 L28.43,31.15 L26.92,32.91 L25.88,35.00 L25.40,37.27 L25.50,39.59 L26.42,44.85 L27.82,49.99 L29.05,53.56 L30.32,56.31 L31.57,58.16 L32.19,58.73 L32.79,59.06 L32.79,59.06 L33.32,59.14 L33.86,59.02 L34.42,58.68 L34.97,58.09 L38.17,54.35 L36.84,52.61 L35.98,50.59 L35.66,48.42 L35.89,46.23 L35.73,46.40 Z" fill="#f2f2f2" stroke="#f2f2f2" stroke-width="1" stroke-linejoin="round"/><path d="M36.94,48.26 L36.99,49.56 L37.22,50.85 L37.73,51.93 L38.42,52.90 L39.98,54.03 L41.86,54.43 L42.28,52.99 L42.92,51.64 L43.46,50.29 L43.90,48.91 L44.01,46.33 L43.90,43.75 L43.85,43.04 L43.62,42.36 L43.45,41.66 L43.05,41.07 L43.05,41.07 L42.44,40.61 L41.75,40.33 L40.82,40.33 L39.68,40.56 L38.59,40.97 L37.83,41.38 L37.11,41.86 L37.11,45.19 L37.11,45.19 L37.12,45.54 L37.11,45.89 L37.11,47.70 L37.11,47.70 L36.94,48.26 Z" fill="#f2f2f2" stroke="#f2f2f2" stroke-width="1" stroke-linejoin="round"/><path d="M40.00,42.01 L40.00,42.01 L40.65,41.91 L41.30,42.01 L41.75,42.11 L42.18,42.29 L42.43,42.37 L42.56,42.57 L42.60,42.94 L42.60,42.94 L42.37,43.27 L42.06,43.54 L41.92,43.46 L41.79,43.35 L41.79,43.35 L40.93,42.91 L40.49,42.06 L40.00,42.01 Z" fill="#005ba1" stroke="#005ba1" stroke-width="1" stroke-linejoin="round"/><path d="M43.43,55.93 L43.11,56.02 L42.83,56.21 L42.18,57.00 L41.64,57.62 L41.04,58.07 L40.17,58.43 L38.79,58.76 L38.16,58.91 L37.59,59.23 L38.12,59.56 L38.70,59.76 L40.37,60.02 L42.04,59.76 L42.99,59.22 L43.85,58.55 L44.43,57.91 L44.78,57.11 L44.69,56.41 L44.31,55.81 L43.98,55.67 L43.62,55.72 L43.43,55.93 Z" fill="#f2f2f2" stroke="#f2f2f2" stroke-width="1" stroke-linejoin="round"/><path d="M64.83,55.93 L63.10,56.35 L61.31,56.35 L59.58,55.93 L59.26,55.88 L58.93,55.93 L58.48,56.18 L58.14,56.58 L58.10,57.30 L58.14,58.02 L60.74,58.19 L63.25,57.56 L64.45,56.88 L65.48,55.96 L64.83,55.93 Z" fill="#f2f2f2" stroke="#f2f2f2" stroke-width="1" stroke-linejoin="round"/><path d="M53.67,46.00 L53.19,44.45 L52.94,42.76 L53.00,41.92 L53.26,41.11 L53.75,40.36 L54.51,39.69 L56.53,38.98 L58.67,38.99 L57.46,36.17 L55.70,33.66 L55.23,33.19 L54.93,32.91 L54.93,32.91 L54.80,32.77 L54.66,32.63 L54.66,32.63 L53.18,31.53 L51.55,30.69 L49.03,29.90 L46.40,29.66 L44.74,29.74 L43.15,30.20 L42.44,30.43 L41.76,30.73 L40.31,32.03 L39.15,33.60 L38.33,35.37 L37.73,37.65 L37.33,39.97 L39.57,39.07 L41.97,38.90 L43.44,39.32 L44.63,40.26 L45.37,41.59 L45.55,43.10 L45.55,43.13 L45.68,46.07 L45.55,49.02 L45.08,50.50 L44.49,51.94 L43.65,54.21 L44.60,54.35 L45.41,54.86 L46.13,55.99 L46.30,57.32 L46.40,57.32 L46.40,58.44 L46.29,62.25 L46.67,66.04 L47.51,69.76 L48.00,70.33 L48.63,70.74 L49.31,71.07 L50.06,71.20 L51.74,71.11 L53.33,70.56 L54.71,69.60 L55.65,68.19 L56.05,66.54 L57.17,57.26 L57.17,57.26 L57.21,56.20 L57.58,55.22 L58.13,54.57 L58.84,54.10 L56.82,51.53 L55.15,48.73 L53.87,45.72 L53.67,46.00 Z" fill="#f2f2f2" stroke="#f2f2f2" stroke-width="1" stroke-linejoin="round"/><path d="M84.36,57.66 L84.96,58.48 L85.45,59.38 L85.83,60.35 L86.08,61.39 L86.22,62.47 L86.23,63.61 L86.12,64.77 L85.88,65.95 L85.53,67.14 L85.06,68.33 L84.48,69.50 L83.79,70.65 L83.00,71.77 L82.12,72.83 L81.16,73.84 L80.12,74.78 L79.02,75.64 L77.87,76.42 L76.67,77.11 L75.44,77.70 L74.19,78.18 L72.94,78.56 L71.68,78.82 L70.45,78.97 L69.25,79.00 L68.08,78.92 L66.97,78.71 L65.92,78.40 L64.94,77.97 L64.04,77.44 L63.24,76.80 L62.53,76.07 L61.93,75.25 L61.44,74.35 L61.06,73.38 L60.81,72.34 L60.67,71.25 L60.66,70.12 L60.77,68.96 L61.01,67.78 L61.36,66.58 L61.83,65.40 L62.41,64.22 L63.10,63.07 L63.89,61.96 L64.76,60.89 L65.73,59.89 L66.77,58.95 L67.87,58.08 L69.02,57.30 L70.22,56.61 L71.45,56.03 L72.70,55.54 L73.95,55.17 L75.20,54.90 L76.44,54.75 L77.64,54.72 L78.81,54.81 L79.92,55.01 L80.97,55.33 L81.95,55.75 L82.84,56.29 L83.65,56.92 L84.36,57.66 Z" fill="#76bc2d" stroke="#1e1e1e" stroke-width="1" stroke-linejoin="round"/><path d="M69.93,71.34 L68.51,69.92 L67.77,68.05 L67.82,66.04 L68.65,64.22 L70.13,62.86 L71.90,61.84 L73.20,61.52 L74.05,61.75 L74.44,62.36 L74.38,63.18 L73.87,64.05 L72.92,64.80 L71.53,65.27 L71.78,65.91 L72.44,66.31 L73.42,66.46 L74.62,66.34 L75.94,65.91 L77.26,65.16 L78.49,64.07 L79.53,62.60 L79.92,61.69 L80.07,60.83 L80.01,60.04 L79.75,59.34 L79.30,58.73 L78.70,58.22 L77.95,57.84 L77.07,57.60 L76.08,57.50 L74.99,57.56 L73.83,57.79 L72.60,58.21 L71.33,58.83 L70.03,59.67 L68.73,60.72 L67.43,62.02 L65.98,63.91 L64.93,65.88 L64.28,67.86 L64.02,69.76 L64.14,71.50 L64.65,73.00 L65.54,74.18 L66.81,74.95 L69.62,75.43 L72.46,75.22 L75.17,74.32 L77.58,72.80 L79.56,70.75 L80.98,68.27 L81.76,65.53 L81.86,62.68 L80.39,65.59 L78.83,67.85 L77.22,69.55 L75.59,70.72 L74.01,71.42 L72.50,71.73 L71.13,71.68 L69.93,71.34 Z" fill="#ffffff" stroke="#1e1e1e" stroke-width="1" stroke-linejoin="round"/></svg>