<svg xmlns="http://www.w3.org/2000/svg" viewBox="0.28 -1.85 95.95 100.00"><path d="M94.08,81.19 L93.58,82.60 L92.72,83.99 L91.50,85.36 L89.92,86.69 L87.99,87.99 L85.70,89.23 L83.05,90.42 L80.05,91.54 L70.92,93.82 L61.64,95.36 L52.26,96.14 L42.85,96.15 L33.47,95.40 L24.18,93.89 L15.05,91.63 L12.29,90.56 L9.86,89.43 L7.78,88.24 L6.02,87.01 L4.61,85.73 L3.53,84.43 L2.78,83.10 L2.36,81.75 L2.32,76.25 L2.36,71.21 L94.23,70.36 L94.08,81.19 Z" fill="#5ea0ef" stroke="#1e1e1e" stroke-width="1" stroke-linejoin="round"/><path d="M94.22,70.55 L94.02,72.11 L93.37,73.66 L92.29,75.18 L90.78,76.67 L88.87,78.09 L86.56,79.46 L83.89,80.74 L80.87,81.92 L77.54,83.00 L73.92,83.97 L70.06,84.81 L65.99,85.52 L61.75,86.08 L57.37,86.51 L52.91,86.78 L48.41,86.90 L43.90,86.87 L39.44,86.69 L35.06,86.35 L30.80,85.87 L26.72,85.24 L22.84,84.48 L19.21,83.59 L15.86,82.57 L12.81,81.45 L10.11,80.22 L7.78,78.91 L5.84,77.52 L4.30,76.06 L3.19,74.56 L2.51,73.03 L2.28,71.47 L2.48,69.91 L3.13,68.36 L4.21,66.84 L5.72,65.35 L7.63,63.92 L9.94,62.56 L12.61,61.28 L15.63,60.10 L18.96,59.02 L22.58,58.05 L26.44,57.21 L30.51,56.50 L34.75,55.93 L39.12,55.51 L43.59,55.24 L48.09,55.12 L52.60,55.15 L57.06,55.33 L61.44,55.67 L65.70,56.15 L69.78,56.77 L73.66,57.54 L77.29,58.43 L80.64,59.44 L83.69,60.57 L86.39,61.80 L88.72,63.11 L90.66,64.50 L92.20,65.95 L93.31,67.46 L93.98,68.99 L94.22,70.55 Z" fill="#50e6ff" stroke="#1e1e1e" stroke-width="1" stroke-linejoin="round"/><path d="M45.67,21.80 L39.65,21.59 L34.03,20.98 L28.95,20.00 L24.52,18.70 L20.87,17.11 L19.37,16.22 L18.11,15.27 L17.11,14.27 L16.37,13.21 L15.92,12.12 L15.76,10.98 L15.76,68.66 L15.91,69.76 L16.36,70.82 L17.08,71.85 L18.07,72.84 L19.31,73.78 L20.79,74.66 L24.38,76.26 L28.74,77.58 L33.75,78.59 L39.29,79.24 L45.25,79.49 L45.67,79.49 L51.70,79.28 L57.32,78.66 L62.40,77.69 L66.83,76.39 L70.48,74.79 L71.98,73.90 L73.24,72.95 L74.24,71.95 L74.98,70.90 L75.43,69.80 L75.59,68.66 L75.59,10.98 L75.43,12.09 L74.98,13.17 L74.24,14.21 L73.24,15.21 L71.98,16.16 L70.48,17.05 L66.82,18.65 L62.39,19.97 L57.31,20.96 L51.70,21.58 L45.67,21.80 Z" fill="#005ba1" stroke="#1e1e1e" stroke-width="1" stroke-linejoin="round"/><path d="M75.59,10.98 L75.43,12.09 L74.98,13.17 L74.24,14.21 L73.24,15.21 L71.98,16.16 L70.48,17.05 L66.82,18.65 L62.39,19.97 L57.31,20.96 L51.70,21.58 L45.67,21.80 L39.65,21.59 L34.03,20.98 L28.95,20.01 L24.53,18.71 L20.87,17.12 L19.37,16.23 L18.11,15.28 L17.11,14.27 L16.37,13.22 L15.92,12.12 L15.76,10.98 L15.92,9.84 L16.37,8.74 L17.11,7.69 L18.11,6.68 L19.37,5.73 L20.87,4.84 L24.52,3.25 L28.95,1.95 L34.03,0.97 L39.65,0.36 L45.67,0.15 L51.70,0.36 L57.32,0.98 L62.40,1.95 L66.83,3.26 L70.48,4.85 L71.98,5.74 L73.24,6.69 L74.24,7.69 L74.98,8.75 L75.43,9.84 L75.59,10.98 Z" fill="#e8e8e8" stroke="#1e1e1e" stroke-width="1" stroke-linejoin="round"/><path d="M68.62,10.09 L68.50,10.80 L68.15,11.48 L67.58,12.15 L66.81,12.78 L64.69,13.96 L61.88,14.98 L58.48,15.82 L54.58,16.46 L50.28,16.86 L45.66,17.00 L41.04,16.86 L36.74,16.46 L32.84,15.82 L29.44,14.98 L26.64,13.95 L24.52,12.78 L23.75,12.14 L23.18,11.48 L22.83,10.80 L22.71,10.09 L22.83,9.38 L23.18,8.70 L23.75,8.04 L24.52,7.40 L26.64,6.24 L29.45,5.22 L32.85,4.38 L36.75,3.75 L41.06,3.36 L45.67,3.22 L50.29,3.36 L54.59,3.76 L58.49,4.40 L61.89,5.24 L64.69,6.26 L66.81,7.43 L67.58,8.06 L68.15,8.72 L68.50,9.41 L68.62,10.11 L68.62,10.09 Z" fill="#50e6ff" stroke="#1e1e1e" stroke-width="1" stroke-linejoin="round"/><path d="M45.67,11.79 L39.53,11.99 L33.46,12.89 L27.52,14.47 L33.46,16.01 L39.54,16.86 L45.67,17.00 L51.82,16.83 L57.90,15.93 L63.83,14.32 L57.88,12.81 L51.81,11.96 L45.67,11.79 L45.67,11.79 Z" fill="#198ab3" stroke="#198ab3" stroke-width="1" stroke-linejoin="round"/><path d="M60.62,40.17 L60.62,42.13 L60.39,43.60 L60.25,45.07 L60.29,46.15 L60.48,47.22 L60.57,48.06 L60.48,48.90 L60.17,50.98 L59.32,52.91 L59.31,53.07 L59.32,53.23 L59.78,53.80 L62.60,48.40 L64.73,42.69 L64.73,42.69 L65.49,39.61 L65.81,37.06 L65.70,35.08 L65.48,34.33 L65.14,33.74 L63.16,31.80 L60.78,30.37 L58.15,29.53 L55.38,29.31 L52.64,29.73 L54.90,31.10 L56.89,32.85 L58.77,34.93 L60.05,37.43 L60.62,40.17 L60.62,40.17 Z" fill="#f2f2f2" stroke="#f2f2f2" stroke-width="1" stroke-linejoin="round"/><path d="M59.18,40.55 L57.30,40.43 L55.49,40.97 L55.06,41.32 L54.79,41.76 L54.63,42.83 L54.91,44.13 L55.49,45.63 L56.24,47.64 L57.10,49.60 L57.52,50.34 L57.52,50.34 L58.05,51.28 L58.42,51.88 L59.05,50.42 L59.26,48.85 L59.29,48.08 L59.26,47.31 L59.24,46.16 L59.03,45.03 L59.17,43.41 L59.40,41.81 L59.31,41.11 L59.35,40.40 L59.18,40.55 Z" fill="#f2f2f2" stroke="#f2f2f2" stroke-width="1" stroke-linejoin="round"/><path d="M57.78,42.46 L57.39,42.75 L56.94,42.92 L56.94,42.92 L56.61,42.96 L56.28,42.92 L56.02,42.52 L55.96,42.04 L55.96,42.04 L56.30,41.60 L57.08,41.34 L57.96,41.34 L58.17,41.39 L58.38,41.71 L58.24,42.06 L57.96,42.32 L57.78,42.46 Z" fill="#005ba1" stroke="#005ba1" stroke-width="1" stroke-linejoin="round"/><path d="M35.92,46.64 L35.92,45.82 L35.93,45.42 L35.92,45.03 L35.81,42.69 L35.92,40.36 L36.47,37.76 L37.32,35.23 L38.40,32.88 L40.00,30.85 L36.89,30.15 L33.71,29.91 L31.03,30.21 L28.58,31.31 L27.05,33.08 L26.02,35.18 L25.53,37.46 L25.64,39.80 L26.56,45.08 L27.97,50.25 L29.20,53.84 L30.47,56.60 L31.74,58.46 L32.36,59.03 L32.96,59.36 L32.96,59.36 L33.49,59.44 L34.04,59.33 L34.59,58.98 L35.15,58.38 L38.37,54.63 L37.03,52.88 L36.17,50.85 L35.85,48.67 L36.08,46.47 L35.92,46.64 Z" fill="#f2f2f2" stroke="#f2f2f2" stroke-width="1" stroke-linejoin="round"/><path d="M37.13,48.50 L37.18,49.82 L37.41,51.12 L37.93,52.19 L38.62,53.17 L40.18,54.31 L42.07,54.71 L42.50,53.27 L43.14,51.91 L43.69,50.55 L44.12,49.16 L44.23,46.57 L44.12,43.98 L44.08,43.26 L43.85,42.58 L43.67,41.88 L43.27,41.28 L43.27,41.28 L42.66,40.82 L41.96,40.53 L41.03,40.53 L39.89,40.77 L38.79,41.18 L38.02,41.59 L37.30,42.07 L37.30,45.43 L37.30,45.43 L37.31,45.78 L37.30,46.13 L37.30,47.95 L37.30,47.95 L37.13,48.50 Z" fill="#f2f2f2" stroke="#f2f2f2" stroke-width="1" stroke-linejoin="round"/><path d="M40.21,42.23 L40.21,42.23 L40.86,42.13 L41.51,42.23 L41.97,42.33 L42.40,42.51 L42.65,42.59 L42.78,42.79 L42.82,43.16 L42.82,43.16 L42.58,43.49 L42.28,43.77 L42.13,43.68 L42.00,43.58 L42.00,43.58 L41.14,43.13 L40.69,42.28 L40.21,42.23 Z" fill="#005ba1" stroke="#005ba1" stroke-width="1" stroke-linejoin="round"/><path d="M43.66,56.22 L43.33,56.31 L43.05,56.50 L42.40,57.29 L41.85,57.92 L41.26,58.37 L40.38,58.73 L38.99,59.07 L38.36,59.22 L37.78,59.53 L38.31,59.87 L38.90,60.07 L40.58,60.33 L42.26,60.07 L43.21,59.52 L44.08,58.86 L44.66,58.21 L45.01,57.41 L44.92,56.70 L44.54,56.10 L44.21,55.96 L43.85,56.01 L43.66,56.22 Z" fill="#f2f2f2" stroke="#f2f2f2" stroke-width="1" stroke-linejoin="round"/><path d="M65.16,56.22 L63.42,56.64 L61.63,56.64 L59.89,56.22 L59.56,56.17 L59.24,56.22 L58.78,56.47 L58.44,56.87 L58.40,57.60 L58.44,58.32 L61.05,58.49 L63.58,57.85 L64.79,57.17 L65.81,56.25 L65.16,56.22 Z" fill="#f2f2f2" stroke="#f2f2f2" stroke-width="1" stroke-linejoin="round"/><path d="M53.95,46.24 L53.46,44.67 L53.21,42.98 L53.28,42.13 L53.54,41.32 L54.03,40.57 L54.79,39.90 L56.82,39.18 L58.97,39.19 L57.76,36.36 L55.98,33.83 L55.52,33.37 L55.22,33.08 L55.22,33.08 L55.08,32.93 L54.94,32.80 L54.94,32.80 L53.46,31.69 L51.81,30.85 L49.28,30.05 L46.64,29.82 L44.98,29.89 L43.37,30.35 L42.66,30.59 L41.98,30.89 L40.52,32.20 L39.35,33.78 L38.52,35.55 L37.93,37.84 L37.53,40.17 L39.77,39.27 L42.19,39.10 L43.66,39.52 L44.86,40.47 L45.61,41.80 L45.79,43.32 L45.79,43.35 L45.92,46.31 L45.79,49.27 L45.32,50.76 L44.71,52.21 L43.88,54.49 L44.83,54.63 L45.65,55.15 L46.37,56.28 L46.54,57.62 L46.64,57.62 L46.64,58.74 L46.53,62.57 L46.91,66.38 L47.76,70.12 L48.24,70.70 L48.88,71.10 L49.57,71.43 L50.32,71.57 L52.01,71.48 L53.61,70.93 L54.99,69.96 L55.94,68.54 L56.34,66.88 L57.46,57.55 L57.46,57.55 L57.51,56.49 L57.88,55.50 L58.43,54.85 L59.14,54.38 L57.11,51.80 L55.43,48.98 L54.14,45.96 L53.95,46.24 Z" fill="#f2f2f2" stroke="#f2f2f2" stroke-width="1" stroke-linejoin="round"/><path d="M84.79,57.95 L85.40,58.78 L85.89,59.68 L86.27,60.66 L86.53,61.70 L86.66,62.80 L86.67,63.93 L86.56,65.10 L86.33,66.29 L85.97,67.49 L85.50,68.68 L84.91,69.86 L84.22,71.02 L83.43,72.13 L82.55,73.21 L81.58,74.22 L80.54,75.16 L79.43,76.03 L78.27,76.82 L77.06,77.51 L75.83,78.10 L74.57,78.59 L73.31,78.96 L72.05,79.23 L70.81,79.38 L69.60,79.41 L68.43,79.32 L67.31,79.12 L66.26,78.80 L65.28,78.37 L64.37,77.84 L63.57,77.20 L62.85,76.46 L62.25,75.64 L61.76,74.73 L61.38,73.75 L61.12,72.71 L60.98,71.62 L60.97,70.48 L61.08,69.31 L61.32,68.12 L61.67,66.93 L62.15,65.73 L62.73,64.55 L63.42,63.40 L64.21,62.28 L65.10,61.21 L66.07,60.20 L67.11,59.25 L68.22,58.38 L69.38,57.60 L70.58,56.91 L71.82,56.31 L73.07,55.83 L74.33,55.45 L75.59,55.19 L76.83,55.04 L78.04,55.01 L79.21,55.09 L80.33,55.29 L81.39,55.61 L82.37,56.04 L83.27,56.58 L84.08,57.22 L84.79,57.95 Z" fill="#76bc2d" stroke="#1e1e1e" stroke-width="1" stroke-linejoin="round"/><path d="M70.29,71.71 L68.86,70.28 L68.12,68.40 L68.16,66.38 L69.00,64.55 L70.49,63.19 L72.27,62.16 L73.58,61.84 L74.43,62.07 L74.82,62.68 L74.76,63.51 L74.25,64.38 L73.29,65.14 L71.90,65.61 L72.15,66.25 L72.81,66.65 L73.80,66.80 L75.01,66.68 L76.33,66.25 L77.66,65.50 L78.90,64.40 L79.94,62.93 L80.33,62.01 L80.48,61.15 L80.42,60.35 L80.16,59.64 L79.71,59.03 L79.11,58.52 L78.35,58.14 L77.47,57.89 L76.47,57.79 L75.38,57.85 L74.21,58.09 L72.97,58.51 L71.70,59.14 L70.39,59.97 L69.08,61.04 L67.78,62.34 L66.32,64.24 L65.27,66.22 L64.61,68.21 L64.35,70.12 L64.47,71.87 L64.98,73.38 L65.88,74.56 L67.15,75.34 L69.97,75.82 L72.83,75.60 L75.55,74.71 L77.98,73.18 L79.97,71.11 L81.39,68.63 L82.18,65.87 L82.28,63.01 L80.81,65.92 L79.24,68.20 L77.62,69.90 L75.98,71.08 L74.39,71.79 L72.88,72.09 L71.49,72.05 L70.29,71.71 Z" fill="#ffffff" stroke="#1e1e1e" stroke-width="1" stroke-linejoin="round"/></svg>