<svg xmlns="http://www.w3.org/2000/svg" viewBox="0.28 -1.85 95.95 100.00"><path d="M94.08,81.19 L93.58,82.60 L92.72,83.99 L91.50,85.36 L89.92,86.69 L87.99,87.99 L85.70,89.23 L83.05,90.42 L80.05,91.54 L70.92,93.82 L61.64,95.36 L52.26,96.14 L42.85,96.15 L33.47,95.40 L24.18,93.89 L15.05,91.63 L12.29,90.56 L9.86,89.43 L7.78,88.24 L6.02,87.01 L4.61,85.73 L3.53,84.43 L2.78,83.10 L2.36,81.75 L2.32,76.25 L2.36,71.21 L94.23,70.36 L94.08,81.19 Z" fill="#5ea0ef" stroke="#1e1e1e" stroke-width="1" stroke-linejoin="round"/><path d="M94.22,70.55 L94.02,72.11 L93.37,73.66 L92.29,75.18 L90.78,76.67 L88.87,78.09 L86.56,79.46 L83.89,80.74 L80.87,81.92 L77.54,83.00 L73.92,83.97 L70.06,84.81 L65.99,85.52 L61.75,86.08 L57.37,86.51 L52.91,86.78 L48.41,86.90 L43.90,86.87 L39.44,86.69 L35.06,86.35 L30.80,85.87 L26.72,85.24 L22.84,84.48 L19.21,83.59 L15.86,82.57 L12.81,81.45 L10.11,80.22 L7.78,78.91 L5.84,77.52 L4.30,76.06 L3.19,74.56 L2.51,73.03 L2.28,71.47 L2.48,69.91 L3.13,68.36 L4.21,66.84 L5.72,65.35 L7.63,63.92 L9.94,62.56 L12.61,61.28 L15.63,60.10 L18.96,59.02 L22.58,58.05 L26.44,57.21 L30.51,56.50 L34.75,55.93 L39.12,55.51 L43.59,55.24 L48.09,55.12 L52.60,55.15 L57.06,55.33 L61.44,55.67 L65.70,56.15 L69.78,56.77 L73.66,57.54 L77.29,58.43 L80.64,59.44 L83.69,60.57 L86.39,61.80 L88.72,63.11 L90.66,64.50 L92.20,65.95 L93.31,67.46 L93.98,68.99 L94.22,70.55 Z" fill="#50e6ff" stroke="#1e1e1e" stroke-width="1" stroke-linejoin="round"/><path d="M48.25,21.80 L42.22,21.59 L36.60,20.98 L31.52,20.00 L27.09,18.70 L23.44,17.11 L21.94,16.22 L20.68,15.27 L19.67,14.27 L18.94,13.21 L18.48,12.12 L18.33,10.98 L18.33,68.66 L18.48,69.76 L18.93,70.82 L19.65,71.85 L20.64,72.84 L21.88,73.78 L23.35,74.66 L26.95,76.26 L31.31,77.58 L36.32,78.59 L41.86,79.24 L47.81,79.49 L48.25,79.49 L54.28,79.28 L59.89,78.66 L64.97,77.69 L69.40,76.39 L73.05,74.79 L74.55,73.90 L75.81,72.95 L76.82,71.95 L77.55,70.90 L78.01,69.80 L78.16,68.66 L78.16,10.98 L78.01,12.09 L77.56,13.17 L76.83,14.21 L75.82,15.21 L74.56,16.16 L73.07,17.05 L69.42,18.65 L64.99,19.97 L59.90,20.96 L54.28,21.58 L48.25,21.80 Z" fill="#0077d2" stroke="#1e1e1e" stroke-width="1" stroke-linejoin="round"/><path d="M78.18,10.98 L78.03,12.09 L77.57,13.17 L76.84,14.21 L75.83,15.21 L74.57,16.16 L73.07,17.05 L69.42,18.65 L64.99,19.97 L59.91,20.96 L54.29,21.58 L48.27,21.80 L42.24,21.59 L36.63,20.98 L31.55,20.01 L27.12,18.71 L23.46,17.12 L21.96,16.23 L20.70,15.28 L19.70,14.27 L18.96,13.22 L18.50,12.12 L18.35,10.98 L18.50,9.84 L18.96,8.74 L19.70,7.69 L20.70,6.68 L21.96,5.73 L23.46,4.84 L27.11,3.25 L31.54,1.95 L36.61,0.97 L42.23,0.36 L48.25,0.15 L54.27,0.36 L59.88,0.98 L64.96,1.95 L69.39,3.25 L73.05,4.84 L74.55,5.74 L75.81,6.69 L76.81,7.69 L77.55,8.74 L78.01,9.84 L78.16,10.98 L78.18,10.98 Z" fill="#e8e8e8" stroke="#1e1e1e" stroke-width="1" stroke-linejoin="round"/><path d="M71.23,10.09 L71.11,10.80 L70.76,11.48 L70.19,12.15 L69.42,12.78 L67.30,13.96 L64.49,14.98 L61.09,15.82 L57.19,16.46 L52.89,16.86 L48.27,17.00 L43.65,16.86 L39.35,16.46 L35.44,15.82 L32.04,14.98 L29.24,13.95 L27.11,12.78 L26.34,12.14 L25.77,11.48 L25.42,10.80 L25.30,10.09 L25.42,9.38 L25.77,8.70 L26.34,8.04 L27.11,7.40 L29.23,6.24 L32.04,5.22 L35.44,4.38 L39.33,3.75 L43.64,3.36 L48.25,3.22 L52.86,3.36 L57.16,3.76 L61.06,4.39 L64.46,5.23 L67.27,6.25 L69.40,7.42 L70.17,8.05 L70.74,8.71 L71.09,9.39 L71.21,10.09 L71.23,10.09 Z" fill="#50e6ff" stroke="#1e1e1e" stroke-width="1" stroke-linejoin="round"/><path d="M48.25,11.79 L42.11,11.99 L36.03,12.89 L30.09,14.47 L36.03,16.02 L42.11,16.87 L48.25,17.01 L54.39,16.84 L60.47,15.94 L66.40,14.33 L60.45,12.81 L54.38,11.97 L48.25,11.79 L48.25,11.79 Z" fill="#198ab3" stroke="#198ab3" stroke-width="1" stroke-linejoin="round"/></svg>