<svg xmlns="http://www.w3.org/2000/svg" viewBox="0.27 -1.85 95.48 99.51"><path d="M93.59,80.78 L93.10,82.17 L92.24,83.56 L91.03,84.92 L89.46,86.25 L87.54,87.53 L85.26,88.77 L82.62,89.95 L79.64,91.07 L70.56,93.34 L61.32,94.87 L51.99,95.64 L42.63,95.66 L33.30,94.91 L24.06,93.41 L14.97,91.16 L12.22,90.10 L9.81,88.97 L7.74,87.79 L5.99,86.56 L4.58,85.29 L3.51,83.99 L2.76,82.67 L2.35,81.33 L2.31,75.85 L2.35,70.85 L93.74,69.99 L93.59,80.78 Z" fill="#5ea0ef" stroke="#1e1e1e" stroke-width="1" stroke-linejoin="round"/><path d="M93.74,70.19 L93.53,71.74 L92.89,73.28 L91.82,74.80 L90.32,76.27 L88.41,77.69 L86.12,79.05 L83.46,80.32 L80.46,81.50 L77.14,82.58 L73.54,83.54 L69.70,84.37 L65.65,85.08 L61.43,85.64 L57.08,86.06 L52.64,86.34 L48.16,86.46 L43.68,86.43 L39.24,86.24 L34.88,85.91 L30.65,85.43 L26.58,84.81 L22.72,84.05 L19.11,83.16 L15.77,82.15 L12.75,81.03 L10.06,79.81 L7.74,78.50 L5.81,77.12 L4.28,75.67 L3.18,74.18 L2.50,72.65 L2.27,71.10 L2.47,69.55 L3.11,68.01 L4.19,66.49 L5.69,65.02 L7.59,63.60 L9.89,62.24 L12.55,60.97 L15.55,59.79 L18.87,58.71 L22.46,57.75 L26.30,56.92 L30.35,56.21 L34.57,55.65 L38.92,55.23 L43.36,54.95 L47.84,54.83 L52.33,54.86 L56.77,55.05 L61.13,55.38 L65.36,55.86 L69.42,56.48 L73.28,57.24 L76.89,58.13 L80.23,59.14 L83.26,60.26 L85.94,61.48 L88.26,62.79 L90.20,64.17 L91.72,65.62 L92.83,67.11 L93.50,68.64 L93.74,70.19 Z" fill="#50e6ff" stroke="#1e1e1e" stroke-width="1" stroke-linejoin="round"/><path d="M48.00,21.69 L42.00,21.48 L36.41,20.87 L31.36,19.90 L26.95,18.60 L23.32,17.02 L21.83,16.14 L20.57,15.19 L19.57,14.19 L18.84,13.14 L18.39,12.05 L18.23,10.92 L18.23,68.31 L18.39,69.40 L18.83,70.46 L19.55,71.48 L20.53,72.47 L21.77,73.40 L23.24,74.28 L26.81,75.87 L31.15,77.18 L36.14,78.18 L41.65,78.83 L47.57,79.08 L48.00,79.08 L54.00,78.87 L59.58,78.26 L64.64,77.29 L69.04,75.99 L72.68,74.41 L74.17,73.52 L75.42,72.58 L76.42,71.58 L77.16,70.53 L77.61,69.44 L77.76,68.31 L77.76,10.92 L77.61,12.03 L77.16,13.10 L76.43,14.14 L75.43,15.13 L74.18,16.07 L72.69,16.96 L69.06,18.55 L64.65,19.86 L59.60,20.85 L54.01,21.47 L48.00,21.69 Z" fill="#0077d2" stroke="#1e1e1e" stroke-width="1" stroke-linejoin="round"/><path d="M77.78,10.92 L77.63,12.03 L77.18,13.10 L76.44,14.14 L75.44,15.13 L74.19,16.07 L72.70,16.96 L69.06,18.55 L64.66,19.86 L59.60,20.85 L54.02,21.47 L48.02,21.69 L42.03,21.48 L36.44,20.87 L31.38,19.90 L26.98,18.61 L23.34,17.03 L21.85,16.14 L20.60,15.20 L19.60,14.20 L18.86,13.15 L18.41,12.06 L18.26,10.92 L18.41,9.79 L18.86,8.70 L19.59,7.65 L20.59,6.65 L21.85,5.70 L23.34,4.81 L26.97,3.23 L31.37,1.94 L36.43,0.97 L42.01,0.36 L48.00,0.15 L53.99,0.36 L59.58,0.97 L64.63,1.94 L69.04,3.24 L72.67,4.82 L74.16,5.71 L75.42,6.65 L76.42,7.65 L77.15,8.70 L77.61,9.79 L77.76,10.92 L77.78,10.92 Z" fill="#e8e8e8" stroke="#1e1e1e" stroke-width="1" stroke-linejoin="round"/><path d="M70.86,10.04 L70.75,10.74 L70.40,11.43 L69.83,12.09 L69.06,12.72 L66.95,13.89 L64.16,14.90 L60.78,15.74 L56.90,16.37 L52.62,16.77 L48.02,16.91 L43.43,16.77 L39.14,16.37 L35.26,15.74 L31.88,14.90 L29.09,13.88 L26.97,12.71 L26.20,12.08 L25.64,11.42 L25.29,10.74 L25.17,10.04 L25.29,9.33 L25.64,8.65 L26.20,8.00 L26.97,7.37 L29.08,6.21 L31.87,5.19 L35.26,4.36 L39.13,3.73 L43.41,3.34 L48.00,3.20 L52.59,3.34 L56.87,3.74 L60.75,4.37 L64.13,5.20 L66.93,6.22 L69.04,7.38 L69.81,8.01 L70.38,8.66 L70.72,9.34 L70.84,10.04 L70.86,10.04 Z" fill="#50e6ff" stroke="#1e1e1e" stroke-width="1" stroke-linejoin="round"/><path d="M48.00,11.73 L41.89,11.93 L35.84,12.83 L29.94,14.40 L35.85,15.93 L41.89,16.78 L48.00,16.92 L54.11,16.75 L60.16,15.86 L66.06,14.26 L60.14,12.75 L54.10,11.90 L48.00,11.73 L48.00,11.73 Z" fill="#198ab3" stroke="#198ab3" stroke-width="1" stroke-linejoin="round"/></svg>