<svg xmlns="http://www.w3.org/2000/svg" viewBox="-1.86 -1.78 99.74 99.91"><path d="M95.72,80.56 L95.20,82.02 L94.30,83.47 L93.03,84.89 L91.39,86.28 L89.38,87.63 L86.99,88.93 L84.24,90.16 L81.11,91.32 L71.61,93.70 L61.94,95.30 L52.18,96.11 L42.38,96.13 L32.62,95.34 L22.95,93.77 L13.43,91.42 L10.56,90.30 L8.04,89.12 L5.86,87.89 L4.04,86.60 L2.56,85.28 L1.43,83.92 L0.66,82.54 L0.22,81.14 L0.18,75.40 L0.22,70.16 L95.88,69.27 L95.72,80.56 Z" fill="#5ea0ef" stroke="#1e1e1e" stroke-width="1" stroke-linejoin="round"/><path d="M95.88,69.47 L95.66,71.09 L94.99,72.70 L93.86,74.29 L92.30,75.84 L90.30,77.32 L87.90,78.74 L85.12,80.07 L81.97,81.31 L78.50,82.43 L74.74,83.44 L70.72,84.31 L66.48,85.05 L62.06,85.64 L57.51,86.08 L52.86,86.37 L48.17,86.50 L43.48,86.46 L38.83,86.27 L34.27,85.92 L29.84,85.42 L25.59,84.77 L21.55,83.97 L17.77,83.04 L14.27,81.99 L11.11,80.82 L8.30,79.54 L5.87,78.17 L3.84,76.72 L2.25,75.21 L1.09,73.65 L0.38,72.05 L0.14,70.43 L0.35,68.80 L1.02,67.19 L2.15,65.60 L3.72,64.06 L5.71,62.57 L8.11,61.15 L10.90,59.82 L14.04,58.58 L17.51,57.46 L21.27,56.45 L25.29,55.58 L29.53,54.84 L33.95,54.25 L38.50,53.81 L43.15,53.52 L47.84,53.40 L52.53,53.43 L57.18,53.62 L61.74,53.97 L66.17,54.47 L70.43,55.13 L74.46,55.92 L78.25,56.85 L81.74,57.91 L84.90,59.08 L87.72,60.35 L90.15,61.72 L92.17,63.17 L93.77,64.68 L94.92,66.25 L95.63,67.85 L95.88,69.47 Z" fill="#50e6ff" stroke="#1e1e1e" stroke-width="1" stroke-linejoin="round"/><path d="M33.72,0.22 L20.67,2.63 L20.67,20.43 L33.72,23.22 L46.81,17.97 L46.81,4.69 L33.72,0.22 Z" fill="#975ae8" stroke="#1e1e1e" stroke-width="1" stroke-linejoin="round"/><path d="M61.96,0.45 L48.91,2.86 L48.91,20.66 L61.96,23.45 L75.01,18.15 L75.01,4.92 L61.96,0.45 Z" fill="#975ae8" stroke="#1e1e1e" stroke-width="1" stroke-linejoin="round"/><path d="M20.35,24.77 L7.30,27.18 L7.30,44.98 L20.35,47.77 L33.44,42.52 L33.44,29.24 L20.35,24.77 Z" fill="#975ae8" stroke="#1e1e1e" stroke-width="1" stroke-linejoin="round"/><path d="M48.50,24.58 L35.45,27.00 L35.45,44.79 L48.50,47.63 L61.55,42.33 L61.55,29.06 L48.50,24.58 Z" fill="#975ae8" stroke="#1e1e1e" stroke-width="1" stroke-linejoin="round"/><path d="M76.65,24.81 L63.60,27.23 L63.60,45.02 L76.65,47.81 L89.75,42.56 L89.75,29.29 L76.65,24.81 Z" fill="#975ae8" stroke="#1e1e1e" stroke-width="1" stroke-linejoin="round"/><path d="M33.40,49.59 L20.35,51.96 L20.35,69.75 L33.40,72.59 L46.49,67.29 L46.49,54.06 L33.40,49.59 Z" fill="#975ae8" stroke="#1e1e1e" stroke-width="1" stroke-linejoin="round"/><path d="M61.59,49.77 L48.54,52.19 L48.54,69.98 L61.59,72.77 L74.69,67.52 L74.69,54.24 L61.59,49.77 Z" fill="#975ae8" stroke="#1e1e1e" stroke-width="1" stroke-linejoin="round"/><path d="M20.67,2.63 L20.67,20.43 L33.85,23.22 L33.85,0.40 L20.67,2.63 Z" fill="#341a6e" stroke="#341a6e" stroke-width="1" stroke-linejoin="round"/><path d="M26.23,19.06 L22.54,18.33 L22.54,4.65 L26.23,4.05 L26.23,19.06 Z" fill="#975ae8" stroke="#975ae8" stroke-width="1" stroke-linejoin="round"/><path d="M32.00,20.11 L27.73,19.43 L27.73,3.78 L32.00,3.05 L32.00,20.11 Z" fill="#975ae8" stroke="#975ae8" stroke-width="1" stroke-linejoin="round"/><path d="M48.91,2.86 L48.91,20.66 L62.01,23.45 L62.01,0.63 L48.91,2.86 Z" fill="#341a6e" stroke="#341a6e" stroke-width="1" stroke-linejoin="round"/><path d="M54.43,19.29 L50.74,18.56 L50.74,4.87 L54.43,4.27 L54.43,19.29 Z" fill="#975ae8" stroke="#975ae8" stroke-width="1" stroke-linejoin="round"/><path d="M60.18,20.36 L55.91,19.67 L55.91,4.01 L60.18,3.23 L60.18,20.36 Z" fill="#975ae8" stroke="#975ae8" stroke-width="1" stroke-linejoin="round"/><path d="M7.25,27.20 L7.25,44.84 L20.44,47.63 L20.44,24.81 L7.25,27.20 Z" fill="#341a6e" stroke="#341a6e" stroke-width="1" stroke-linejoin="round"/><path d="M12.80,43.66 L9.07,42.88 L9.07,29.19 L12.76,28.55 L12.80,43.66 Z" fill="#975ae8" stroke="#975ae8" stroke-width="1" stroke-linejoin="round"/><path d="M18.59,44.84 L14.33,44.16 L14.33,28.33 L18.59,27.59 L18.59,44.84 Z" fill="#975ae8" stroke="#975ae8" stroke-width="1" stroke-linejoin="round"/><path d="M35.45,27.00 L35.45,44.84 L48.59,47.63 L48.59,24.81 L35.45,27.00 Z" fill="#341a6e" stroke="#341a6e" stroke-width="1" stroke-linejoin="round"/><path d="M40.97,43.47 L37.27,42.70 L37.27,29.01 L40.97,28.37 L40.97,43.47 Z" fill="#975ae8" stroke="#975ae8" stroke-width="1" stroke-linejoin="round"/><path d="M46.72,44.48 L42.45,43.79 L42.45,28.14 L46.72,27.41 L46.72,44.48 Z" fill="#975ae8" stroke="#975ae8" stroke-width="1" stroke-linejoin="round"/><path d="M63.60,27.23 L63.60,44.83 L76.80,47.63 L76.80,24.81 L63.60,27.23 Z" fill="#341a6e" stroke="#341a6e" stroke-width="1" stroke-linejoin="round"/><path d="M69.17,43.70 L65.47,42.93 L65.47,29.24 L69.17,28.60 L69.17,43.70 Z" fill="#975ae8" stroke="#975ae8" stroke-width="1" stroke-linejoin="round"/><path d="M74.92,44.70 L70.68,44.02 L70.68,28.37 L74.94,27.64 L74.92,44.70 Z" fill="#975ae8" stroke="#975ae8" stroke-width="1" stroke-linejoin="round"/><path d="M20.35,51.96 L20.35,69.75 L33.54,72.59 L33.54,49.41 L20.35,51.96 Z" fill="#341a6e" stroke="#341a6e" stroke-width="1" stroke-linejoin="round"/><path d="M25.91,68.43 L22.22,67.66 L22.22,53.97 L25.91,53.33 L25.91,68.43 Z" fill="#975ae8" stroke="#975ae8" stroke-width="1" stroke-linejoin="round"/><path d="M31.66,69.50 L27.40,68.82 L27.40,53.10 L31.66,52.37 L31.66,69.50 Z" fill="#975ae8" stroke="#975ae8" stroke-width="1" stroke-linejoin="round"/><path d="M48.53,52.19 L48.53,69.98 L61.72,72.77 L61.72,49.95 L48.53,52.19 Z" fill="#341a6e" stroke="#341a6e" stroke-width="1" stroke-linejoin="round"/><path d="M54.10,68.66 L50.41,67.88 L50.41,54.20 L54.10,53.56 L54.10,68.66 Z" fill="#975ae8" stroke="#975ae8" stroke-width="1" stroke-linejoin="round"/><path d="M59.85,69.66 L55.58,68.98 L55.58,53.33 L59.85,52.60 L59.85,69.66 Z" fill="#975ae8" stroke="#975ae8" stroke-width="1" stroke-linejoin="round"/></svg>