<svg xmlns="http://www.w3.org/2000/svg" viewBox="-1.99 -2.00 99.99 100.00"><path d="M72.00,48.00 L72.00,48.00 L74.45,48.12 L76.83,48.49 L79.13,49.08 L81.34,49.89 L83.44,50.90 L85.42,52.10 L87.26,53.48 L88.97,55.03 L90.52,56.74 L91.90,58.58 L93.10,60.56 L94.11,62.66 L94.92,64.87 L95.51,67.17 L95.88,69.55 L96.00,72.00 L96.00,72.00 L95.88,74.45 L95.51,76.83 L94.92,79.13 L94.11,81.34 L93.10,83.44 L91.90,85.42 L90.52,87.26 L88.97,88.97 L87.26,90.52 L85.42,91.90 L83.44,93.10 L81.34,94.11 L79.13,94.92 L76.83,95.51 L74.45,95.88 L72.00,96.00 L48.00,96.00 L48.00,72.00 L48.12,69.55 L48.49,67.17 L49.08,64.87 L49.89,62.66 L50.90,60.56 L52.10,58.58 L53.48,56.74 L55.03,55.03 L56.74,53.48 L58.58,52.10 L60.56,50.90 L62.66,49.89 L64.87,49.08 L67.17,48.49 L69.55,48.12 L72.00,48.00 Z" fill="#32bedd" stroke="#1e1e1e" stroke-width="1" stroke-linejoin="round"/><path d="M45.75,77.67 L22.58,77.67 L35.15,35.80 L36.64,35.80 L46.14,67.46 L46.70,65.01 L47.47,62.65 L48.45,60.40 L49.64,58.26 L42.34,33.93 L35.89,11.87 L29.44,33.93 L15.70,79.73 L15.23,81.27 L14.49,83.66 L13.59,86.42 L12.80,89.17 L12.19,91.42 L11.96,92.63 L12.18,93.77 L12.85,94.74 L13.82,95.40 L14.95,95.63 L15.94,95.47 L16.77,95.02 L17.40,94.33 L17.80,93.48 L20.75,83.66 L45.74,83.66 L45.74,77.68 L45.75,77.67 Z" fill="#bdbdbd" stroke="#1e1e1e" stroke-width="1" stroke-linejoin="round"/><path d="M68.41,67.19 L68.55,67.21 L68.68,67.26 L68.80,67.35 L68.89,67.47 L68.94,67.60 L68.96,67.74 L68.96,81.70 L68.94,81.84 L68.89,81.97 L68.80,82.09 L68.68,82.18 L68.55,82.23 L68.41,82.25 L64.39,82.25 L64.25,82.23 L64.11,82.18 L64.00,82.09 L63.91,81.97 L63.85,81.84 L63.83,81.70 L63.83,67.74 L63.85,67.60 L63.91,67.47 L64.00,67.35 L64.11,67.26 L64.25,67.21 L64.39,67.19 L68.41,67.19 Z" fill="#ffffff" stroke="#ffffff" stroke-width="1" stroke-linejoin="round"/><path d="M60.24,72.39 L60.38,72.41 L60.52,72.47 L60.63,72.56 L60.72,72.67 L60.78,72.81 L60.79,72.95 L60.79,81.70 L60.78,81.84 L60.72,81.97 L60.63,82.09 L60.52,82.18 L60.38,82.23 L60.24,82.25 L56.22,82.25 L56.08,82.23 L55.95,82.18 L55.83,82.09 L55.74,81.97 L55.69,81.84 L55.67,81.70 L55.67,72.95 L55.69,72.81 L55.74,72.67 L55.83,72.56 L55.95,72.47 L56.08,72.41 L56.22,72.39 L60.24,72.39 Z" fill="#ffffff" stroke="#ffffff" stroke-width="1" stroke-linejoin="round"/><path d="M85.13,62.31 L85.13,62.31 L84.74,62.14 L80.71,62.14 L80.32,62.31 L80.32,62.31 L80.16,62.70 L80.16,62.70 L80.16,81.70 L80.16,81.70 L80.32,82.10 L80.32,82.10 L80.71,82.26 L84.74,82.26 L85.13,82.10 L85.13,82.10 L85.29,81.70 L85.29,81.70 L85.29,62.70 L85.29,62.70 L85.13,62.31 Z" fill="#ffffff" stroke="#ffffff" stroke-width="1" stroke-linejoin="round"/><path d="M76.58,72.39 L72.50,72.39 L72.44,72.41 L72.39,72.42 L72.34,72.44 L72.29,72.46 L72.25,72.49 L72.21,72.52 L72.17,72.55 L72.13,72.60 L72.10,72.64 L72.07,72.69 L72.04,72.74 L72.03,72.79 L72.01,72.84 L72.01,72.90 L72.00,72.95 L72.00,72.95 L72.00,81.69 L72.00,81.69 L72.00,81.74 L72.01,81.80 L72.03,81.85 L72.04,81.90 L72.07,81.95 L72.10,82.00 L72.13,82.04 L72.17,82.09 L72.21,82.12 L72.25,82.15 L72.29,82.18 L72.34,82.20 L72.39,82.22 L72.44,82.23 L72.50,82.23 L72.55,82.25 L76.59,82.25 L76.98,82.08 L77.14,81.69 L77.14,72.94 L76.98,72.55 L76.59,72.38 L76.58,72.39 Z" fill="#ffffff" stroke="#ffffff" stroke-width="1" stroke-linejoin="round"/><path d="M12.81,42.86 L11.59,41.22 L10.42,39.58 L8.49,35.92 L7.10,32.01 L6.26,27.96 L5.98,23.83 L6.29,19.68 L7.10,15.65 L8.46,11.79 L10.37,8.17 L11.49,6.49 L12.71,4.90 L13.27,4.01 L13.41,2.98 L13.18,1.85 L12.52,0.88 L11.56,0.22 L10.42,0.00 L9.11,0.33 L8.09,1.12 L6.22,3.45 L4.63,6.03 L3.27,8.82 L2.11,11.78 L1.17,14.83 L0.52,17.90 L0.13,20.93 L0.01,23.83 L0.17,26.87 L0.57,29.91 L1.22,32.95 L2.15,35.98 L3.33,38.94 L4.73,41.73 L6.35,44.33 L8.23,46.69 L9.27,47.49 L10.52,47.77 L11.65,47.54 L12.62,46.87 L13.29,45.91 L13.51,44.77 L13.32,43.74 L12.81,42.85 L12.81,42.86 Z" fill="#0078d4" stroke="#1e1e1e" stroke-width="1" stroke-linejoin="round"/><path d="M71.27,17.86 L70.66,14.82 L69.73,11.78 L68.55,8.82 L67.16,6.03 L65.55,3.45 L63.71,1.13 L62.63,0.32 L61.37,0.05 L60.24,0.29 L59.27,0.93 L58.60,1.87 L58.38,2.99 L58.57,4.02 L59.08,4.91 L60.29,6.50 L61.41,8.18 L63.36,11.84 L64.73,15.71 L65.54,19.73 L65.81,23.84 L65.53,27.96 L64.69,32.02 L63.30,35.92 L61.37,39.59 L60.20,41.27 L58.99,42.86 L58.43,43.75 L58.29,44.78 L58.51,45.92 L59.18,46.89 L60.15,47.55 L61.28,47.78 L62.54,47.51 L63.62,46.70 L65.56,44.42 L67.17,41.79 L68.52,38.94 L69.69,35.99 L70.63,32.97 L71.28,29.87 L71.66,26.80 L71.79,23.85 L71.64,20.88 L71.28,17.86 L71.27,17.86 Z" fill="#0078d4" stroke="#1e1e1e" stroke-width="1" stroke-linejoin="round"/><path d="M23.04,7.06 L22.07,6.39 L20.94,6.17 L19.79,6.40 L18.79,7.10 L17.21,8.81 L15.85,10.70 L14.68,12.71 L13.70,14.81 L12.92,17.00 L12.39,19.25 L12.07,21.54 L11.97,23.83 L12.27,27.41 L13.09,31.03 L14.42,34.48 L15.28,36.06 L16.27,37.53 L17.34,38.46 L17.99,38.71 L18.70,38.79 L19.83,38.57 L20.80,37.90 L21.47,36.93 L21.69,35.80 L21.56,34.90 L21.18,34.07 L19.81,31.58 L18.79,29.16 L18.16,26.64 L17.95,23.83 L18.03,21.97 L18.28,20.21 L18.69,18.56 L19.26,17.01 L20.87,14.08 L23.09,11.26 L23.75,10.28 L23.94,9.16 L23.71,8.03 L23.05,7.06 L23.04,7.06 Z" fill="#0078d4" stroke="#1e1e1e" stroke-width="1" stroke-linejoin="round"/><path d="M58.09,14.77 L57.12,12.64 L55.95,10.66 L54.58,8.81 L53.00,7.10 L52.02,6.41 L50.85,6.17 L49.72,6.39 L48.75,7.06 L48.08,8.03 L47.86,9.16 L48.07,10.30 L48.70,11.26 L50.92,14.09 L52.54,17.06 L53.11,18.62 L53.52,20.27 L53.76,22.01 L53.85,23.84 L53.74,25.86 L53.41,27.82 L52.87,29.72 L52.12,31.55 L51.51,32.58 L50.85,33.61 L50.29,34.69 L50.11,35.81 L50.35,37.00 L51.00,37.96 L51.95,38.59 L53.10,38.80 L53.93,38.65 L54.64,38.29 L55.86,37.07 L56.84,35.53 L57.54,34.08 L58.54,31.58 L59.25,29.04 L59.68,26.47 L59.82,23.85 L59.72,21.53 L59.39,19.24 L58.85,16.99 L58.10,14.78 L58.09,14.77 Z" fill="#0078d4" stroke="#1e1e1e" stroke-width="1" stroke-linejoin="round"/><path d="M35.89,11.85 L33.48,12.09 L31.23,12.79 L29.20,13.89 L27.43,15.35 L25.97,17.12 L24.87,19.15 L24.17,21.40 L23.93,23.81 L24.17,26.22 L24.87,28.46 L25.97,30.50 L27.43,32.27 L29.20,33.73 L31.23,34.83 L33.48,35.53 L35.89,35.77 L38.30,35.53 L40.54,34.83 L42.58,33.73 L44.35,32.27 L45.81,30.50 L46.91,28.46 L47.61,26.22 L47.85,23.81 L47.61,21.40 L46.91,19.15 L45.81,17.12 L44.35,15.35 L42.58,13.89 L40.54,12.79 L38.30,12.09 L35.89,11.85 L35.89,11.85 Z" fill="#0078d4" stroke="#1e1e1e" stroke-width="1" stroke-linejoin="round"/></svg>