<svg xmlns="http://www.w3.org/2000/svg" viewBox="-1.32 -0.83 100.00 99.01"><path d="M96.49,80.48 L95.97,81.96 L95.07,83.41 L93.80,84.84 L92.16,86.23 L90.14,87.57 L87.75,88.87 L84.99,90.10 L81.86,91.27 L73.49,93.41 L65.03,94.94 L56.50,95.86 L47.94,96.18 L39.38,95.88 L30.85,94.99 L22.38,93.48 L14.01,91.36 L11.13,90.25 L8.60,89.07 L6.42,87.83 L4.59,86.54 L3.11,85.21 L1.98,83.85 L1.20,82.46 L0.77,81.06 L0.72,75.31 L0.77,70.06 L96.68,69.17 L96.49,80.48 Z" fill="#5ea0ef" stroke="#1e1e1e" stroke-width="1" stroke-linejoin="round"/><path d="M48.83,86.44 L53.73,86.30 L58.49,86.00 L63.09,85.55 L67.49,84.95 L71.68,84.21 L75.63,83.34 L79.31,82.34 L82.71,81.24 L85.80,80.03 L88.55,78.73 L90.94,77.33 L92.94,75.86 L94.54,74.32 L95.71,72.72 L96.42,71.07 L96.65,69.37 L96.38,67.68 L95.64,66.04 L94.44,64.46 L92.81,62.95 L90.78,61.52 L88.36,60.18 L85.59,58.93 L82.48,57.78 L79.06,56.74 L75.35,55.83 L71.39,55.04 L67.19,54.38 L62.77,53.87 L58.17,53.50 L53.40,53.30 L48.50,53.26 L43.59,53.40 L38.83,53.70 L34.24,54.15 L29.83,54.75 L25.64,55.49 L21.70,56.36 L18.01,57.36 L14.61,58.46 L11.53,59.67 L8.78,60.97 L6.39,62.37 L4.38,63.84 L2.78,65.38 L1.62,66.98 L0.91,68.63 L0.68,70.33 L0.94,72.03 L1.68,73.66 L2.88,75.24 L4.51,76.75 L6.55,78.18 L8.96,79.52 L11.74,80.77 L14.85,81.92 L18.27,82.96 L21.97,83.87 L25.93,84.67 L30.14,85.32 L34.55,85.84 L39.15,86.20 L43.92,86.40 L48.83,86.44 Z" fill="#50e6ff" stroke="#1e1e1e" stroke-width="1" stroke-linejoin="round"/><path d="M84.80,1.17 L12.59,1.17 L11.58,1.38 L10.76,1.93 L10.20,2.75 L10.00,3.76 L10.00,19.75 L10.20,20.75 L10.76,21.58 L11.58,22.13 L12.59,22.34 L84.80,22.34 L85.81,22.13 L86.64,21.58 L87.19,20.76 L87.40,19.75 L87.40,3.76 L87.19,2.75 L86.64,1.93 L85.81,1.37 L84.80,1.17 L84.80,1.17 Z" fill="#b596f5" stroke="#1e1e1e" stroke-width="1" stroke-linejoin="round"/><path d="M79.85,4.87 L76.65,4.87 L76.15,4.97 L75.73,5.25 L75.46,5.66 L75.36,6.17 L75.36,9.37 L75.46,9.87 L75.73,10.28 L76.15,10.56 L76.65,10.66 L79.85,10.66 L80.35,10.56 L80.76,10.28 L81.04,9.87 L81.14,9.37 L81.14,6.17 L81.04,5.66 L80.76,5.25 L80.35,4.97 L79.85,4.87 L79.85,4.87 Z" fill="#f2f2f2" stroke="#f2f2f2" stroke-width="1" stroke-linejoin="round"/><path d="M79.85,12.85 L76.65,12.85 L76.15,12.95 L75.73,13.23 L75.46,13.64 L75.36,14.14 L75.36,17.34 L75.46,17.85 L75.73,18.26 L76.15,18.54 L76.65,18.64 L79.85,18.64 L80.35,18.54 L80.76,18.26 L81.04,17.85 L81.14,17.34 L81.14,14.14 L81.04,13.64 L80.76,13.23 L80.35,12.95 L79.85,12.85 Z" fill="#f2f2f2" stroke="#f2f2f2" stroke-width="1" stroke-linejoin="round"/><path d="M84.80,26.25 L12.59,26.25 L11.58,26.46 L10.76,27.01 L10.20,27.83 L10.00,28.84 L10.00,44.83 L10.20,45.83 L10.76,46.66 L11.58,47.21 L12.59,47.42 L84.80,47.42 L85.81,47.21 L86.64,46.66 L87.19,45.83 L87.40,44.83 L87.40,28.84 L87.19,27.84 L86.64,27.01 L85.81,26.46 L84.80,26.25 L84.80,26.25 Z" fill="#9266e6" stroke="#1e1e1e" stroke-width="1" stroke-linejoin="round"/><path d="M79.85,29.95 L76.65,29.95 L76.15,30.05 L75.73,30.33 L75.46,30.74 L75.36,31.24 L75.36,34.45 L75.46,34.95 L75.73,35.36 L76.15,35.64 L76.65,35.74 L79.85,35.74 L80.35,35.64 L80.76,35.36 L81.04,34.95 L81.14,34.45 L81.14,31.24 L81.04,30.74 L80.76,30.33 L80.35,30.05 L79.85,29.95 Z" fill="#f2f2f2" stroke="#f2f2f2" stroke-width="1" stroke-linejoin="round"/><path d="M79.85,37.92 L76.65,37.92 L76.15,38.03 L75.73,38.30 L75.46,38.71 L75.36,39.22 L75.36,42.42 L75.46,42.92 L75.73,43.33 L76.15,43.61 L76.65,43.71 L79.85,43.71 L80.35,43.61 L80.76,43.33 L81.04,42.92 L81.14,42.42 L81.14,39.22 L81.04,38.71 L80.76,38.30 L80.35,38.03 L79.85,37.92 Z" fill="#f2f2f2" stroke="#f2f2f2" stroke-width="1" stroke-linejoin="round"/><path d="M84.80,51.33 L12.59,51.33 L11.58,51.53 L10.76,52.08 L10.20,52.91 L10.00,53.92 L10.00,69.90 L10.20,70.91 L10.76,71.73 L11.58,72.29 L12.59,72.49 L84.80,72.49 L85.81,72.29 L86.64,71.73 L87.19,70.91 L87.40,69.90 L87.40,53.92 L87.19,52.91 L86.64,52.09 L85.81,51.53 L84.80,51.33 L84.80,51.33 Z" fill="#552f99" stroke="#1e1e1e" stroke-width="1" stroke-linejoin="round"/><path d="M79.85,55.03 L76.65,55.03 L76.15,55.13 L75.73,55.40 L75.46,55.82 L75.36,56.32 L75.36,59.52 L75.46,60.02 L75.73,60.43 L76.15,60.71 L76.65,60.81 L79.85,60.81 L80.35,60.71 L80.76,60.43 L81.04,60.02 L81.14,59.52 L81.14,56.32 L81.04,55.82 L80.76,55.40 L80.35,55.13 L79.85,55.03 Z" fill="#f2f2f2" stroke="#f2f2f2" stroke-width="1" stroke-linejoin="round"/><path d="M79.85,63.00 L76.65,63.00 L76.15,63.10 L75.73,63.38 L75.46,63.79 L75.36,64.29 L75.36,67.49 L75.46,68.00 L75.73,68.41 L76.15,68.68 L76.65,68.78 L79.85,68.78 L80.35,68.68 L80.76,68.41 L81.04,68.00 L81.14,67.49 L81.14,64.29 L81.04,63.79 L80.76,63.38 L80.35,63.10 L79.85,63.00 Z" fill="#f2f2f2" stroke="#f2f2f2" stroke-width="1" stroke-linejoin="round"/></svg>