<svg xmlns="http://www.w3.org/2000/svg" viewBox="-1.33 -0.85 98.67 97.69"><path d="M95.15,79.37 L94.64,80.82 L93.75,82.25 L92.50,83.66 L90.88,85.03 L88.89,86.36 L86.53,87.63 L83.81,88.85 L80.72,90.00 L72.47,92.11 L64.13,93.62 L55.72,94.53 L47.28,94.84 L38.83,94.55 L30.42,93.67 L22.07,92.18 L13.82,90.10 L10.98,88.99 L8.48,87.83 L6.33,86.61 L4.53,85.34 L3.07,84.03 L1.95,82.69 L1.18,81.32 L0.76,79.93 L0.71,74.26 L0.76,69.08 L95.33,68.21 L95.15,79.37 Z" fill="#5ea0ef" stroke="#1e1e1e" stroke-width="1" stroke-linejoin="round"/><path d="M48.15,85.24 L52.99,85.10 L57.68,84.81 L62.21,84.36 L66.56,83.77 L70.69,83.04 L74.58,82.18 L78.21,81.20 L81.56,80.11 L84.60,78.92 L87.32,77.63 L89.67,76.26 L91.65,74.81 L93.23,73.29 L94.38,71.71 L95.08,70.08 L95.31,68.41 L95.05,66.74 L94.31,65.12 L93.13,63.56 L91.52,62.08 L89.52,60.67 L87.13,59.34 L84.40,58.11 L81.33,56.98 L77.96,55.96 L74.31,55.05 L70.40,54.27 L66.26,53.62 L61.90,53.12 L57.36,52.76 L52.66,52.56 L47.82,52.52 L42.99,52.66 L38.29,52.95 L33.76,53.40 L29.42,53.99 L25.29,54.72 L21.39,55.58 L17.76,56.56 L14.41,57.65 L11.37,58.84 L8.66,60.13 L6.30,61.50 L4.32,62.95 L2.75,64.47 L1.60,66.05 L0.89,67.68 L0.67,69.35 L0.93,71.02 L1.66,72.64 L2.84,74.20 L4.45,75.68 L6.46,77.09 L8.84,78.42 L11.58,79.65 L14.64,80.78 L18.01,81.80 L21.67,82.71 L25.57,83.49 L29.72,84.14 L34.07,84.64 L38.61,85.00 L43.31,85.20 L48.15,85.24 Z" fill="#50e6ff" stroke="#1e1e1e" stroke-width="1" stroke-linejoin="round"/><path d="M83.62,1.16 L12.42,1.16 L11.42,1.36 L10.61,1.90 L10.06,2.72 L9.86,3.71 L9.86,19.47 L10.06,20.47 L10.61,21.28 L11.42,21.83 L12.42,22.03 L83.63,22.03 L84.62,21.83 L85.43,21.28 L85.98,20.47 L86.18,19.47 L86.18,3.71 L85.98,2.71 L85.43,1.90 L84.62,1.35 L83.63,1.15 L83.62,1.16 Z" fill="#b596f5" stroke="#1e1e1e" stroke-width="1" stroke-linejoin="round"/><path d="M78.74,4.81 L75.58,4.81 L75.09,4.91 L74.68,5.18 L74.41,5.58 L74.31,6.08 L74.31,9.24 L74.41,9.73 L74.68,10.14 L75.09,10.41 L75.58,10.51 L78.74,10.51 L79.24,10.41 L79.64,10.14 L79.92,9.73 L80.02,9.24 L80.02,6.08 L79.92,5.58 L79.64,5.18 L79.24,4.91 L78.74,4.81 L78.74,4.81 Z" fill="#f2f2f2" stroke="#f2f2f2" stroke-width="1" stroke-linejoin="round"/><path d="M78.74,12.67 L75.58,12.67 L75.09,12.77 L74.68,13.05 L74.41,13.45 L74.31,13.95 L74.31,17.10 L74.41,17.60 L74.68,18.01 L75.09,18.28 L75.58,18.38 L78.74,18.38 L79.24,18.28 L79.64,18.01 L79.92,17.60 L80.02,17.10 L80.02,13.95 L79.92,13.45 L79.64,13.05 L79.24,12.77 L78.74,12.67 Z" fill="#f2f2f2" stroke="#f2f2f2" stroke-width="1" stroke-linejoin="round"/><path d="M83.62,25.89 L12.42,25.89 L11.42,26.09 L10.61,26.64 L10.06,27.45 L9.86,28.44 L9.86,44.20 L10.06,45.20 L10.61,46.01 L11.42,46.56 L12.42,46.76 L83.63,46.76 L84.62,46.56 L85.43,46.01 L85.98,45.20 L86.18,44.20 L86.18,28.44 L85.98,27.45 L85.43,26.64 L84.62,26.09 L83.63,25.89 L83.62,25.89 Z" fill="#9266e6" stroke="#1e1e1e" stroke-width="1" stroke-linejoin="round"/><path d="M78.74,29.54 L75.58,29.54 L75.09,29.64 L74.68,29.91 L74.41,30.31 L74.31,30.81 L74.31,33.97 L74.41,34.46 L74.68,34.87 L75.09,35.14 L75.58,35.24 L78.74,35.24 L79.24,35.14 L79.64,34.87 L79.92,34.46 L80.02,33.97 L80.02,30.81 L79.92,30.31 L79.64,29.91 L79.24,29.64 L78.74,29.54 Z" fill="#f2f2f2" stroke="#f2f2f2" stroke-width="1" stroke-linejoin="round"/><path d="M78.74,37.40 L75.58,37.40 L75.09,37.50 L74.68,37.77 L74.41,38.18 L74.31,38.67 L74.31,41.83 L74.41,42.33 L74.68,42.73 L75.09,43.00 L75.58,43.10 L78.74,43.10 L79.24,43.00 L79.64,42.73 L79.92,42.33 L80.02,41.83 L80.02,38.67 L79.92,38.18 L79.64,37.77 L79.24,37.50 L78.74,37.40 Z" fill="#f2f2f2" stroke="#f2f2f2" stroke-width="1" stroke-linejoin="round"/><path d="M83.62,50.61 L12.42,50.61 L11.42,50.81 L10.61,51.36 L10.06,52.17 L9.86,53.17 L9.86,68.93 L10.06,69.92 L10.61,70.73 L11.42,71.28 L12.42,71.48 L83.63,71.48 L84.62,71.28 L85.43,70.74 L85.98,69.92 L86.18,68.93 L86.18,53.17 L85.98,52.17 L85.43,51.36 L84.62,50.81 L83.63,50.61 L83.62,50.61 Z" fill="#552f99" stroke="#1e1e1e" stroke-width="1" stroke-linejoin="round"/><path d="M78.74,54.26 L75.58,54.26 L75.09,54.36 L74.68,54.63 L74.41,55.04 L74.31,55.54 L74.31,58.69 L74.41,59.19 L74.68,59.59 L75.09,59.87 L75.58,59.97 L78.74,59.97 L79.24,59.87 L79.64,59.59 L79.92,59.19 L80.02,58.69 L80.02,55.54 L79.92,55.04 L79.64,54.63 L79.24,54.36 L78.74,54.26 Z" fill="#f2f2f2" stroke="#f2f2f2" stroke-width="1" stroke-linejoin="round"/><path d="M78.74,62.12 L75.58,62.12 L75.09,62.22 L74.68,62.50 L74.41,62.90 L74.31,63.40 L74.31,66.55 L74.41,67.05 L74.68,67.46 L75.09,67.73 L75.58,67.83 L78.74,67.83 L79.24,67.73 L79.64,67.46 L79.92,67.05 L80.02,66.55 L80.02,63.40 L79.92,62.90 L79.64,62.50 L79.24,62.22 L78.74,62.12 Z" fill="#f2f2f2" stroke="#f2f2f2" stroke-width="1" stroke-linejoin="round"/></svg>