<svg xmlns="http://www.w3.org/2000/svg" viewBox="-2.00 12.36 100.98 72.26"><path d="M40.81,70.21 L40.97,66.60 L41.30,65.18 L41.80,63.86 L42.46,62.64 L43.25,61.55 L44.17,60.58 L45.22,59.76 L46.36,59.09 L47.61,58.59 L47.65,58.53 L47.65,45.86 L47.75,44.67 L48.05,43.54 L48.54,42.49 L49.18,41.55 L49.98,40.73 L50.91,40.07 L51.96,39.60 L53.11,39.33 L54.21,39.27 L55.27,39.40 L56.26,39.70 L57.18,40.15 L58.01,40.73 L58.74,41.44 L59.34,42.26 L59.81,43.16 L61.98,43.16 L59.40,40.58 L58.83,39.88 L58.42,39.10 L58.18,38.28 L58.10,37.43 L58.18,36.58 L58.42,35.76 L58.83,34.98 L59.40,34.29 L63.03,30.66 L61.71,27.16 L59.86,23.98 L57.53,21.16 L54.78,18.76 L51.67,16.82 L48.26,15.41 L46.45,14.92 L44.59,14.57 L42.68,14.39 L40.73,14.36 L37.11,14.58 L33.64,15.35 L30.36,16.62 L27.33,18.37 L24.59,20.55 L22.21,23.14 L20.23,26.10 L18.71,29.38 L16.78,29.70 L14.92,30.19 L13.13,30.84 L11.42,31.64 L9.80,32.58 L8.28,33.65 L6.86,34.84 L5.55,36.16 L4.36,37.58 L3.30,39.10 L2.37,40.71 L1.58,42.41 L0.95,44.18 L0.46,46.02 L0.15,47.92 L-0.00,49.87 L0.20,52.07 L0.61,54.19 L1.22,56.23 L2.02,58.18 L3.00,60.03 L4.14,61.76 L5.45,63.37 L6.89,64.85 L8.47,66.18 L10.18,67.36 L11.99,68.37 L13.91,69.21 L15.91,69.86 L17.99,70.31 L20.14,70.56 L22.35,70.59 L24.31,70.51 L40.82,70.51 L40.81,70.21 L40.81,70.21 Z" fill="#3990e4" stroke="#1e1e1e" stroke-width="1" stroke-linejoin="round"/><path d="M79.55,74.44 L73.73,68.62 L73.02,68.25 L72.22,68.33 L71.60,68.83 L71.37,69.60 L71.37,73.01 L50.55,73.01 L49.47,72.79 L48.58,72.19 L47.98,71.31 L47.77,70.22 L47.84,67.66 L48.18,66.58 L48.78,65.77 L49.58,65.25 L50.55,65.07 L53.00,65.07 L52.67,63.84 L52.22,61.43 L52.12,60.56 L50.55,60.56 L49.23,60.68 L48.00,61.04 L46.86,61.61 L45.85,62.37 L44.97,63.31 L44.25,64.40 L43.71,65.64 L43.37,67.01 L43.24,70.25 L43.38,71.68 L43.80,73.04 L44.47,74.30 L45.39,75.41 L46.50,76.33 L47.76,77.00 L49.12,77.41 L50.55,77.55 L71.37,77.55 L71.37,81.24 L71.60,82.01 L72.22,82.52 L72.75,82.62 L73.27,82.52 L73.73,82.22 L79.55,76.40 L79.85,75.94 L79.95,75.42 L79.85,74.90 L79.55,74.44 L79.55,74.44 Z" fill="#155ea1" stroke="#1e1e1e" stroke-width="1" stroke-linejoin="round"/><path d="M94.83,37.45 L93.72,36.53 L92.46,35.86 L91.10,35.45 L89.67,35.31 L68.85,35.31 L68.85,31.62 L68.62,30.85 L67.99,30.34 L67.19,30.26 L66.49,30.64 L60.67,36.46 L60.37,36.92 L60.27,37.44 L60.37,37.96 L60.67,38.42 L66.49,44.23 L67.20,44.62 L67.99,44.53 L68.62,44.03 L68.85,43.26 L68.85,39.85 L89.66,39.85 L90.75,40.07 L91.63,40.66 L92.23,41.55 L92.45,42.63 L92.38,45.19 L92.03,46.28 L91.44,47.10 L90.64,47.61 L89.66,47.79 L87.22,47.79 L87.55,49.02 L87.99,51.43 L88.10,52.30 L89.66,52.30 L90.98,52.18 L92.21,51.82 L93.35,51.26 L94.37,50.50 L95.24,49.56 L95.96,48.46 L96.50,47.22 L96.85,45.85 L96.98,42.62 L96.84,41.18 L96.42,39.82 L95.75,38.57 L94.83,37.45 L94.83,37.45 Z" fill="#155ea1" stroke="#1e1e1e" stroke-width="1" stroke-linejoin="round"/><path d="M50.08,45.59 L50.17,44.77 L50.42,44.00 L50.82,43.31 L51.35,42.72 L51.98,42.25 L52.71,41.91 L53.51,41.73 L54.36,41.72 L55.76,42.14 L56.87,43.05 L57.60,44.30 L57.87,45.76 L57.87,66.84 L57.60,68.30 L56.87,69.55 L55.76,70.45 L54.36,70.88 L53.51,70.87 L52.71,70.69 L51.98,70.35 L51.35,69.88 L50.82,69.29 L50.42,68.60 L50.17,67.83 L50.08,67.00 L50.08,45.59 L50.08,45.59 Z" fill="#6ab4e3" stroke="#6ab4e3" stroke-width="1" stroke-linejoin="round"/><path d="M81.23,45.59 L81.32,44.77 L81.57,44.00 L81.97,43.31 L82.49,42.72 L83.13,42.25 L83.85,41.91 L84.65,41.73 L85.50,41.72 L86.91,42.14 L88.02,43.05 L88.75,44.30 L89.01,45.76 L89.01,66.84 L88.75,68.30 L88.02,69.55 L86.91,70.45 L85.50,70.88 L84.65,70.87 L83.86,70.69 L83.13,70.35 L82.50,69.88 L81.97,69.29 L81.57,68.60 L81.32,67.83 L81.23,67.00 L81.23,45.59 L81.23,45.59 Z" fill="#6ab4e3" stroke="#6ab4e3" stroke-width="1" stroke-linejoin="round"/><rect x="60.79" y="45.59" width="17.52" height="21.41" fill="#0a6bba" stroke="#1e1e1e" stroke-width="1"/></svg>