<svg xmlns="http://www.w3.org/2000/svg" viewBox="-1.99 14.02 99.99 67.99"><path d="M48.17,37.89 L48.17,37.89 L46.05,38.00 L43.99,38.32 L42.01,38.83 L40.11,39.54 L38.30,40.43 L36.59,41.48 L35.00,42.69 L33.53,44.05 L32.19,45.54 L31.00,47.16 L29.96,48.90 L29.08,50.74 L28.39,52.67 L27.88,54.69 L27.56,56.78 L27.45,58.93 L27.56,61.09 L27.87,63.18 L28.38,65.19 L29.07,67.13 L29.94,68.97 L30.98,70.71 L32.17,72.33 L33.50,73.83 L34.97,75.19 L36.56,76.40 L38.27,77.46 L40.08,78.34 L41.98,79.05 L43.96,79.57 L46.02,79.89 L48.13,80.01 L50.25,79.90 L52.30,79.58 L54.29,79.06 L56.19,78.36 L58.00,77.47 L59.71,76.42 L61.30,75.21 L62.77,73.85 L64.11,72.36 L65.30,70.74 L66.34,69.00 L67.21,67.16 L67.91,65.23 L68.42,63.21 L68.74,61.12 L68.85,58.97 L68.85,58.95 L68.74,56.80 L68.43,54.71 L67.92,52.69 L67.22,50.76 L66.35,48.91 L65.31,47.18 L64.12,45.56 L62.79,44.06 L61.32,42.70 L59.72,41.49 L58.02,40.44 L56.21,39.55 L54.31,38.84 L52.33,38.32 L50.27,38.00 L48.15,37.89 L48.17,37.89 Z" fill="#8e5ae8" stroke="#1e1e1e" stroke-width="1" stroke-linejoin="round"/><path d="M57.33,69.13 L56.68,69.00 L56.14,68.64 L55.79,68.11 L55.66,67.43 L55.66,50.46 L55.79,49.80 L56.14,49.27 L56.68,48.90 L57.33,48.76 L59.00,48.76 L59.64,48.90 L60.17,49.25 L60.53,49.80 L60.66,50.46 L60.66,67.43 L60.53,68.10 L60.18,68.62 L59.65,69.00 L59.00,69.13 L57.33,69.13 L57.33,69.13 Z" fill="#ffffff" stroke="#ffffff" stroke-width="1" stroke-linejoin="round"/><path d="M50.65,69.13 L50.00,69.00 L49.47,68.64 L49.11,68.11 L48.99,67.43 L48.99,55.55 L49.11,54.89 L49.47,54.36 L50.00,53.99 L50.65,53.86 L52.32,53.86 L52.96,53.99 L53.49,54.35 L53.86,54.89 L53.98,55.55 L53.98,67.43 L53.86,68.10 L53.50,68.62 L52.97,69.00 L52.32,69.13 L50.65,69.13 L50.65,69.13 Z" fill="#ffffff" stroke="#ffffff" stroke-width="1" stroke-linejoin="round"/><path d="M43.97,69.13 L43.32,69.00 L42.79,68.64 L42.44,68.11 L42.31,67.43 L42.31,60.65 L42.44,59.98 L42.79,59.46 L43.32,59.08 L43.97,58.95 L45.64,58.95 L46.28,59.08 L46.82,59.44 L47.18,59.98 L47.31,60.65 L47.31,67.43 L47.18,68.10 L46.83,68.62 L46.29,69.00 L45.64,69.13 L43.97,69.13 L43.97,69.13 Z" fill="#ffffff" stroke="#ffffff" stroke-width="1" stroke-linejoin="round"/><path d="M37.30,69.13 L36.65,69.00 L36.11,68.64 L35.76,68.11 L35.63,67.43 L35.63,65.74 L35.76,65.08 L36.11,64.55 L36.65,64.18 L37.30,64.04 L38.97,64.04 L39.61,64.18 L40.14,64.53 L40.50,65.08 L40.63,65.74 L40.63,67.43 L40.50,68.10 L40.15,68.62 L39.62,69.00 L38.97,69.13 L37.30,69.13 Z" fill="#ffffff" stroke="#ffffff" stroke-width="1" stroke-linejoin="round"/><path d="M85.61,49.24 L85.17,46.18 L84.19,43.36 L82.71,40.83 L80.79,38.65 L78.51,36.87 L75.92,35.55 L73.08,34.76 L70.05,34.55 L67.09,34.78 L64.29,35.57 L61.70,36.86 L59.40,38.61 L61.90,40.28 L64.17,42.26 L66.17,44.51 L67.86,47.02 L69.24,49.75 L70.25,52.67 L70.88,55.75 L71.10,58.97 L70.79,62.81 L69.88,66.45 L68.44,69.84 L66.51,72.93 L83.33,72.93 L83.97,72.83 L86.34,72.58 L88.55,71.88 L90.56,70.79 L92.33,69.35 L93.80,67.60 L94.93,65.58 L95.68,63.35 L95.99,60.95 L95.74,58.76 L95.11,56.71 L94.16,54.83 L92.91,53.15 L91.40,51.71 L89.65,50.56 L87.71,49.72 L85.60,49.24 L85.61,49.24 Z" fill="#3990e4" stroke="#1e1e1e" stroke-width="1" stroke-linejoin="round"/><path d="M48.15,35.61 L48.17,35.61 L50.58,35.74 L52.93,36.12 L55.19,36.73 L57.35,37.57 L59.06,36.07 L60.94,34.79 L61.03,34.74 L61.65,34.40 L62.06,34.19 L62.57,33.94 L63.49,33.55 L63.50,33.55 L62.96,31.64 L62.27,29.81 L61.43,28.06 L60.46,26.39 L59.35,24.82 L58.13,23.36 L55.34,20.77 L53.80,19.66 L52.16,18.68 L50.44,17.85 L48.65,17.16 L46.79,16.62 L44.87,16.25 L42.90,16.04 L40.89,16.02 L37.26,16.24 L33.77,17.02 L30.48,18.32 L27.43,20.10 L24.69,22.33 L22.30,24.98 L20.31,27.99 L18.78,31.35 L16.85,31.68 L14.98,32.18 L13.18,32.84 L11.47,33.65 L9.85,34.61 L8.32,35.70 L6.89,36.93 L5.58,38.27 L4.39,39.72 L3.32,41.27 L2.39,42.92 L1.60,44.65 L0.96,46.46 L0.47,48.34 L0.15,50.28 L0.01,52.27 L0.20,54.51 L0.61,56.68 L1.23,58.76 L2.03,60.75 L3.01,62.64 L4.16,64.41 L5.47,66.05 L6.92,67.56 L8.51,68.92 L10.22,70.12 L12.04,71.15 L13.97,72.01 L15.98,72.67 L18.07,73.13 L20.22,73.39 L22.44,73.42 L24.41,73.33 L30.09,73.33 L27.99,70.10 L26.46,66.58 L25.53,62.84 L25.29,60.90 L25.21,58.93 L25.33,56.55 L25.68,54.24 L26.25,52.01 L27.02,49.86 L27.99,47.83 L29.14,45.90 L30.47,44.11 L31.95,42.45 L33.58,40.94 L35.34,39.60 L37.24,38.43 L39.24,37.45 L41.35,36.66 L43.54,36.09 L45.82,35.73 L48.16,35.61 L48.15,35.61 Z" fill="#41d2ee" stroke="#1e1e1e" stroke-width="1" stroke-linejoin="round"/></svg>