<svg xmlns="http://www.w3.org/2000/svg" viewBox="-2.00 12.22 100.00 71.57"><path d="M40.40,69.51 L40.56,65.93 L40.89,64.53 L41.38,63.22 L42.03,62.01 L42.81,60.93 L43.73,59.97 L44.76,59.16 L45.90,58.50 L47.13,58.00 L47.17,57.94 L47.17,45.39 L47.27,44.22 L47.57,43.10 L48.05,42.06 L48.69,41.13 L49.48,40.32 L50.40,39.67 L51.44,39.20 L52.57,38.93 L53.67,38.88 L54.71,39.01 L55.70,39.30 L56.61,39.74 L57.43,40.32 L58.15,41.02 L58.75,41.83 L59.21,42.73 L61.36,42.73 L58.80,40.17 L58.24,39.48 L57.84,38.71 L57.59,37.89 L57.51,37.05 L57.59,36.21 L57.84,35.40 L58.24,34.63 L58.80,33.94 L62.39,30.35 L61.09,26.89 L59.26,23.74 L56.95,20.95 L54.23,18.57 L51.15,16.65 L47.77,15.25 L45.98,14.77 L44.14,14.43 L42.25,14.24 L40.32,14.22 L36.74,14.43 L33.30,15.19 L30.06,16.45 L27.05,18.18 L24.35,20.34 L21.99,22.91 L20.03,25.83 L18.52,29.09 L16.61,29.41 L14.77,29.89 L13.00,30.53 L11.31,31.32 L9.70,32.25 L8.20,33.31 L6.79,34.49 L5.50,35.79 L4.32,37.20 L3.27,38.71 L2.35,40.30 L1.57,41.98 L0.94,43.74 L0.46,45.56 L0.14,47.44 L-0.00,49.37 L0.20,51.54 L0.60,53.65 L1.21,55.67 L2.00,57.60 L2.97,59.43 L4.10,61.14 L5.39,62.74 L6.82,64.20 L8.39,65.52 L10.08,66.68 L11.87,67.68 L13.77,68.51 L15.75,69.16 L17.81,69.61 L19.94,69.85 L22.12,69.88 L24.06,69.80 L40.41,69.80 L40.39,69.50 L40.40,69.51 Z" fill="#3990e4" stroke="#1e1e1e" stroke-width="1" stroke-linejoin="round"/><path d="M78.75,73.69 L72.99,67.93 L72.29,67.56 L71.50,67.64 L70.88,68.14 L70.65,68.90 L70.65,72.28 L50.05,72.28 L48.97,72.06 L48.09,71.47 L47.50,70.59 L47.28,69.52 L47.36,66.98 L47.70,65.91 L48.29,65.10 L49.08,64.59 L50.05,64.41 L52.46,64.41 L52.14,63.20 L51.69,60.81 L51.59,59.95 L50.04,59.95 L48.74,60.07 L47.52,60.43 L46.39,60.99 L45.39,61.74 L44.52,62.67 L43.81,63.76 L43.27,64.98 L42.93,66.33 L42.81,69.54 L42.95,70.96 L43.36,72.31 L44.02,73.55 L44.93,74.65 L46.03,75.56 L47.28,76.22 L48.62,76.63 L50.04,76.77 L70.65,76.77 L70.65,80.43 L70.88,81.18 L71.50,81.69 L72.02,81.79 L72.54,81.69 L72.99,81.39 L78.75,75.63 L79.05,75.18 L79.15,74.66 L79.05,74.15 L78.75,73.69 L78.75,73.69 Z" fill="#155ea1" stroke="#1e1e1e" stroke-width="1" stroke-linejoin="round"/><path d="M93.88,37.07 L92.77,36.16 L91.53,35.50 L90.19,35.09 L88.77,34.95 L68.16,34.95 L68.16,31.30 L67.92,30.54 L67.31,30.04 L66.52,29.96 L65.82,30.33 L60.06,36.09 L59.76,36.54 L59.66,37.06 L59.76,37.58 L60.06,38.03 L65.82,43.79 L66.52,44.17 L67.31,44.09 L67.92,43.58 L68.16,42.82 L68.16,39.44 L88.76,39.44 L89.83,39.66 L90.71,40.25 L91.31,41.13 L91.52,42.21 L91.45,44.74 L91.11,45.81 L90.52,46.62 L89.73,47.13 L88.76,47.31 L86.34,47.31 L86.67,48.53 L87.11,50.92 L87.21,51.78 L88.76,51.78 L90.06,51.65 L91.29,51.30 L92.41,50.74 L93.42,49.99 L94.29,49.06 L95.00,47.97 L95.53,46.74 L95.87,45.39 L96.00,42.19 L95.86,40.77 L95.45,39.42 L94.79,38.18 L93.88,37.07 L93.88,37.07 Z" fill="#155ea1" stroke="#1e1e1e" stroke-width="1" stroke-linejoin="round"/><path d="M49.58,45.14 L49.66,44.31 L49.91,43.55 L50.31,42.87 L50.83,42.29 L51.46,41.82 L52.18,41.49 L52.97,41.31 L53.81,41.30 L55.20,41.72 L56.30,42.62 L57.02,43.85 L57.28,45.30 L57.28,66.16 L57.02,67.61 L56.30,68.85 L55.20,69.74 L53.81,70.17 L52.97,70.16 L52.18,69.98 L51.46,69.64 L50.83,69.18 L50.31,68.59 L49.91,67.91 L49.66,67.15 L49.58,66.33 L49.58,45.13 L49.58,45.14 Z" fill="#6ab4e3" stroke="#6ab4e3" stroke-width="1" stroke-linejoin="round"/><path d="M80.41,45.14 L80.50,44.31 L80.75,43.55 L81.14,42.87 L81.66,42.29 L82.29,41.82 L83.01,41.49 L83.80,41.31 L84.64,41.30 L86.03,41.72 L87.13,42.62 L87.86,43.85 L88.12,45.30 L88.12,66.16 L87.86,67.61 L87.13,68.85 L86.03,69.74 L84.64,70.17 L83.80,70.16 L83.01,69.98 L82.29,69.64 L81.67,69.18 L81.14,68.59 L80.75,67.91 L80.50,67.15 L80.41,66.33 L80.41,45.13 L80.41,45.14 Z" fill="#6ab4e3" stroke="#6ab4e3" stroke-width="1" stroke-linejoin="round"/><rect x="60.18" y="45.14" width="17.34" height="21.20" fill="#0a6bba" stroke="#1e1e1e" stroke-width="1"/></svg>