<svg xmlns="http://www.w3.org/2000/svg" viewBox="-1.99 14.02 100.00 68.00"><path d="M48.17,37.90 L48.17,37.90 L46.05,38.00 L44.00,38.32 L42.02,38.84 L40.11,39.54 L38.30,40.43 L36.60,41.48 L35.00,42.69 L33.53,44.05 L32.19,45.55 L31.00,47.17 L29.96,48.90 L29.09,50.74 L28.39,52.68 L27.88,54.70 L27.56,56.79 L27.45,58.94 L27.56,61.09 L27.87,63.18 L28.38,65.20 L29.07,67.14 L29.94,68.98 L30.98,70.72 L32.17,72.34 L33.51,73.83 L34.97,75.19 L36.57,76.41 L38.27,77.46 L40.08,78.35 L41.98,79.06 L43.97,79.58 L46.02,79.90 L48.14,80.01 L50.25,79.91 L52.31,79.59 L54.29,79.07 L56.20,78.37 L58.01,77.48 L59.71,76.43 L61.31,75.22 L62.78,73.86 L64.12,72.37 L65.31,70.74 L66.35,69.01 L67.22,67.17 L67.92,65.23 L68.43,63.22 L68.75,61.13 L68.86,58.97 L68.86,58.96 L68.75,56.80 L68.44,54.71 L67.93,52.70 L67.23,50.76 L66.36,48.92 L65.32,47.18 L64.13,45.56 L62.79,44.07 L61.32,42.71 L59.73,41.50 L58.03,40.44 L56.22,39.55 L54.31,38.85 L52.33,38.33 L50.28,38.01 L48.16,37.90 L48.17,37.90 Z" fill="#8e5ae8" stroke="#1e1e1e" stroke-width="1" stroke-linejoin="round"/><path d="M57.33,69.14 L56.68,69.01 L56.15,68.65 L55.80,68.12 L55.67,67.44 L55.67,50.46 L55.80,49.80 L56.15,49.27 L56.68,48.90 L57.33,48.77 L59.00,48.77 L59.64,48.90 L60.18,49.26 L60.54,49.80 L60.67,50.46 L60.67,67.44 L60.54,68.10 L60.19,68.63 L59.65,69.01 L59.00,69.14 L57.33,69.14 L57.33,69.14 Z" fill="#ffffff" stroke="#ffffff" stroke-width="1" stroke-linejoin="round"/><path d="M50.66,69.14 L50.01,69.01 L49.47,68.65 L49.12,68.12 L48.99,67.44 L48.99,55.56 L49.12,54.90 L49.47,54.37 L50.01,54.00 L50.66,53.86 L52.33,53.86 L52.97,54.00 L53.50,54.35 L53.86,54.90 L53.99,55.56 L53.99,67.44 L53.86,68.10 L53.51,68.63 L52.98,69.01 L52.33,69.14 L50.66,69.14 L50.66,69.14 Z" fill="#ffffff" stroke="#ffffff" stroke-width="1" stroke-linejoin="round"/><path d="M43.98,69.14 L43.33,69.01 L42.79,68.65 L42.44,68.12 L42.31,67.44 L42.31,60.65 L42.44,59.99 L42.79,59.46 L43.33,59.09 L43.98,58.96 L45.65,58.96 L46.29,59.09 L46.82,59.45 L47.18,59.99 L47.31,60.65 L47.31,67.44 L47.18,68.10 L46.83,68.63 L46.30,69.01 L45.65,69.14 L43.98,69.14 L43.98,69.14 Z" fill="#ffffff" stroke="#ffffff" stroke-width="1" stroke-linejoin="round"/><path d="M37.30,69.14 L36.65,69.01 L36.12,68.65 L35.76,68.12 L35.64,67.44 L35.64,65.75 L35.76,65.08 L36.12,64.56 L36.65,64.18 L37.30,64.05 L38.97,64.05 L39.61,64.18 L40.14,64.54 L40.51,65.08 L40.63,65.75 L40.63,67.44 L40.51,68.10 L40.15,68.63 L39.62,69.01 L38.97,69.14 L37.30,69.14 Z" fill="#ffffff" stroke="#ffffff" stroke-width="1" stroke-linejoin="round"/><path d="M85.61,49.24 L85.18,46.19 L84.20,43.37 L82.72,40.83 L80.80,38.65 L78.52,36.87 L75.93,35.56 L73.09,34.76 L70.06,34.55 L67.10,34.79 L64.29,35.58 L61.71,36.87 L59.40,38.62 L61.91,40.29 L64.18,42.26 L66.17,44.52 L67.87,47.03 L69.24,49.75 L70.26,52.67 L70.89,55.76 L71.11,58.97 L70.79,62.81 L69.89,66.45 L68.45,69.85 L66.52,72.94 L83.34,72.94 L83.98,72.84 L86.35,72.59 L88.56,71.89 L90.57,70.80 L92.34,69.35 L93.81,67.60 L94.94,65.59 L95.69,63.36 L96.01,60.96 L95.75,58.77 L95.13,56.72 L94.17,54.83 L92.92,53.16 L91.41,51.72 L89.66,50.56 L87.72,49.73 L85.61,49.24 L85.61,49.24 Z" fill="#3990e4" stroke="#1e1e1e" stroke-width="1" stroke-linejoin="round"/><path d="M48.15,35.61 L48.17,35.61 L50.59,35.74 L52.93,36.12 L55.20,36.74 L57.36,37.58 L59.07,36.07 L60.95,34.80 L61.04,34.75 L61.65,34.40 L62.07,34.19 L62.58,33.95 L63.50,33.55 L63.51,33.55 L62.97,31.64 L62.27,29.81 L61.44,28.06 L60.46,26.40 L59.36,24.83 L58.13,23.36 L55.35,20.77 L53.80,19.66 L52.17,18.69 L50.45,17.85 L48.66,17.16 L46.80,16.62 L44.88,16.25 L42.90,16.04 L40.89,16.02 L37.26,16.24 L33.77,17.02 L30.48,18.32 L27.44,20.10 L24.69,22.34 L22.30,24.98 L20.31,28.00 L18.79,31.35 L16.85,31.68 L14.98,32.18 L13.19,32.84 L11.47,33.66 L9.85,34.61 L8.32,35.71 L6.89,36.93 L5.58,38.27 L4.39,39.72 L3.32,41.28 L2.39,42.92 L1.60,44.66 L0.96,46.47 L0.47,48.34 L0.15,50.28 L0.01,52.27 L0.20,54.51 L0.61,56.68 L1.23,58.77 L2.03,60.76 L3.01,62.65 L4.16,64.42 L5.47,66.06 L6.92,67.57 L8.51,68.93 L10.22,70.13 L12.04,71.16 L13.97,72.01 L15.98,72.68 L18.07,73.14 L20.23,73.40 L22.44,73.43 L24.41,73.34 L30.09,73.34 L28.00,70.11 L26.47,66.59 L25.53,62.84 L25.29,60.91 L25.21,58.94 L25.33,56.56 L25.68,54.25 L26.25,52.01 L27.03,49.87 L27.99,47.83 L29.15,45.91 L30.47,44.11 L31.95,42.45 L33.58,40.95 L35.35,39.60 L37.24,38.43 L39.25,37.45 L41.35,36.67 L43.55,36.09 L45.82,35.74 L48.17,35.61 L48.15,35.61 Z" fill="#41d2ee" stroke="#1e1e1e" stroke-width="1" stroke-linejoin="round"/></svg>