<svg xmlns="http://www.w3.org/2000/svg" viewBox="-2.00 -2.00 100.00 100.00"><path d="M64.98,2.71 L64.98,42.07 L64.45,42.39 L46.90,52.52 L46.22,53.10 L45.83,53.91 L45.83,54.02 L45.76,54.28 L45.73,54.55 L45.73,79.51 L2.74,79.51 L1.38,79.15 L0.37,78.16 L0.00,76.80 L0.00,2.71 L0.37,1.35 L1.38,0.36 L2.74,0.00 L62.26,0.00 L63.62,0.37 L64.61,1.36 L64.98,2.71 Z" fill="#2f8ce2" stroke="#1e1e1e" stroke-width="1" stroke-linejoin="round"/><path d="M8.23,13.89 L15.47,13.89 L16.42,14.29 L16.82,15.25 L16.82,20.54 L16.42,21.50 L15.47,21.89 L8.23,21.89 L7.27,21.50 L6.87,20.54 L6.87,15.25 L7.27,14.29 L8.23,13.89 L8.23,13.89 Z" fill="#ffffff" stroke="#ffffff" stroke-width="1" stroke-linejoin="round" opacity="0.8"/><path d="M6.93,29.95 L6.93,35.24 L7.33,36.20 L8.29,36.59 L15.56,36.59 L16.52,36.20 L16.92,35.24 L16.92,29.95 L16.52,28.99 L15.56,28.59 L8.27,28.59 L7.32,29.00 L6.93,29.95 Z" fill="#ffffff" stroke="#ffffff" stroke-width="1" stroke-linejoin="round" opacity="0.8"/><path d="M24.98,13.89 L56.58,13.89 L57.53,14.29 L57.93,15.25 L57.93,20.54 L57.53,21.50 L56.58,21.89 L24.98,21.89 L24.02,21.50 L23.62,20.54 L23.62,15.25 L24.02,14.29 L24.98,13.89 L24.98,13.89 Z" fill="#ffffff" stroke="#ffffff" stroke-width="1" stroke-linejoin="round"/><path d="M23.62,29.95 L23.62,35.24 L24.02,36.20 L24.98,36.59 L56.75,36.59 L57.71,36.20 L58.11,35.24 L58.11,29.95 L57.71,28.99 L56.75,28.59 L24.98,28.59 L24.02,28.99 L23.62,29.95 Z" fill="#ffffff" stroke="#ffffff" stroke-width="1" stroke-linejoin="round"/><path d="M96.00,54.45 L96.00,82.17 L72.03,96.00 L72.01,95.96 L72.01,68.27 L96.00,54.45 Z" fill="#50e6ff" stroke="#1e1e1e" stroke-width="1" stroke-linejoin="round"/><path d="M96.00,54.45 L72.01,68.27 L48.07,54.50 L48.02,54.60 L48.02,82.05 L48.00,82.07 L48.00,54.55 L48.02,54.45 L72.03,40.60 L96.00,54.45 Z" fill="#c3f1ff" stroke="#1e1e1e" stroke-width="1" stroke-linejoin="round"/><path d="M72.01,68.27 L72.01,95.96 L48.02,82.14 L48.02,54.60 L48.07,54.50 L72.01,68.27 Z" fill="#9cebff" stroke="#1e1e1e" stroke-width="1" stroke-linejoin="round"/><path d="M73.15,38.65 L72.78,38.50 L72.98,38.57 L73.15,38.65 Z" fill="#ffffff" stroke="#ffffff" stroke-width="1" stroke-linejoin="round"/><path d="M64.98,2.71 L64.98,42.07 L64.45,42.39 L46.90,52.52 L46.22,53.10 L45.83,53.91 L45.83,54.02 L45.76,54.28 L45.73,54.55 L45.73,79.51 L2.74,79.51 L1.38,79.15 L0.37,78.16 L0.00,76.80 L0.00,2.71 L0.37,1.35 L1.38,0.36 L2.74,0.00 L62.26,0.00 L63.62,0.37 L64.61,1.36 L64.98,2.71 Z" fill="#2f8ce2" stroke="#1e1e1e" stroke-width="1" stroke-linejoin="round"/><path d="M8.23,13.89 L15.47,13.89 L16.42,14.29 L16.82,15.25 L16.82,20.54 L16.42,21.50 L15.47,21.89 L8.23,21.89 L7.27,21.50 L6.87,20.54 L6.87,15.25 L7.27,14.29 L8.23,13.89 L8.23,13.89 Z" fill="#ffffff" stroke="#ffffff" stroke-width="1" stroke-linejoin="round" opacity="0.8"/><path d="M6.93,29.95 L6.93,35.24 L7.33,36.20 L8.29,36.59 L15.56,36.59 L16.52,36.20 L16.92,35.24 L16.92,29.95 L16.52,28.99 L15.56,28.59 L8.27,28.59 L7.32,29.00 L6.93,29.95 Z" fill="#ffffff" stroke="#ffffff" stroke-width="1" stroke-linejoin="round" opacity="0.8"/><path d="M24.98,13.89 L56.58,13.89 L57.53,14.29 L57.93,15.25 L57.93,20.54 L57.53,21.50 L56.58,21.89 L24.98,21.89 L24.02,21.50 L23.62,20.54 L23.62,15.25 L24.02,14.29 L24.98,13.89 L24.98,13.89 Z" fill="#ffffff" stroke="#ffffff" stroke-width="1" stroke-linejoin="round"/><path d="M23.62,29.95 L23.62,35.24 L24.02,36.20 L24.98,36.59 L56.75,36.59 L57.71,36.20 L58.11,35.24 L58.11,29.95 L57.71,28.99 L56.75,28.59 L24.98,28.59 L24.02,28.99 L23.62,29.95 Z" fill="#ffffff" stroke="#ffffff" stroke-width="1" stroke-linejoin="round"/><path d="M73.15,38.65 L72.78,38.50 L72.98,38.57 L73.15,38.65 Z" fill="#ffffff" stroke="#ffffff" stroke-width="1" stroke-linejoin="round"/><path d="M87.41,49.49 L64.08,63.70 L64.05,68.21 L63.95,68.46 L63.70,68.55 L63.56,68.51 L63.44,68.43 L60.34,64.74 L60.19,64.64 L60.01,64.62 L57.13,65.23 L56.86,65.20 L56.72,64.98 L56.71,64.94 L56.72,64.90 L56.72,59.47 L80.11,45.26 L80.13,45.26 L87.41,49.49 Z" fill="#ffffff" stroke="#1e1e1e" stroke-width="1" stroke-linejoin="round" opacity="0.5"/></svg>