<svg xmlns="http://www.w3.org/2000/svg" viewBox="-1.99 -1.99 99.99 100.00"><path d="M36.26,60.71 L96.00,60.71 L96.00,94.02 L95.84,94.79 L95.41,95.43 L94.78,95.85 L94.01,96.01 L38.26,96.01 L37.48,95.85 L36.85,95.43 L36.42,94.79 L36.27,94.02 L36.27,60.71 L36.27,60.71 L36.26,60.71 Z" fill="#41d2ee" stroke="#1e1e1e" stroke-width="1" stroke-linejoin="round"/><path d="M93.99,47.98 L38.26,47.98 L37.48,48.14 L36.85,48.57 L36.42,49.20 L36.27,49.98 L36.27,60.71 L95.99,60.71 L95.99,49.98 L95.84,49.20 L95.41,48.57 L94.78,48.14 L94.00,47.98 L93.99,47.98 Z" fill="#34bddc" stroke="#1e1e1e" stroke-width="1" stroke-linejoin="round"/><path d="M48.03,76.50 L49.25,75.29 L49.25,75.29 L58.84,84.91 L59.00,85.30 L58.84,85.69 L57.62,86.91 L57.23,87.07 L56.84,86.91 L48.02,78.06 L47.78,77.69 L47.70,77.28 L47.78,76.86 L48.02,76.50 L48.02,76.50 L48.03,76.50 Z" fill="#f2f2f2" stroke="#f2f2f2" stroke-width="1" stroke-linejoin="round"/><path d="M49.23,79.29 L48.01,78.06 L47.77,77.70 L47.69,77.28 L47.77,76.87 L48.01,76.50 L48.01,76.50 L57.01,67.53 L57.40,67.37 L57.79,67.53 L59.00,68.75 L59.16,69.14 L59.00,69.53 L49.22,79.28 L49.22,79.28 L49.23,79.29 Z" fill="#f2f2f2" stroke="#f2f2f2" stroke-width="1" stroke-linejoin="round"/><path d="M73.95,86.92 L72.73,85.70 L72.56,85.31 L72.73,84.92 L82.34,75.29 L82.34,75.29 L83.56,76.50 L83.80,76.87 L83.88,77.28 L83.80,77.70 L83.56,78.06 L83.56,78.06 L74.73,86.92 L74.34,87.08 L73.95,86.92 L73.95,86.92 L73.95,86.92 Z" fill="#f2f2f2" stroke="#f2f2f2" stroke-width="1" stroke-linejoin="round"/><path d="M72.54,68.76 L73.75,67.54 L74.14,67.37 L74.53,67.54 L83.53,76.51 L83.77,76.88 L83.85,77.29 L83.77,77.71 L83.53,78.07 L83.53,78.07 L82.31,79.30 L82.31,79.30 L72.54,69.55 L72.37,69.16 L72.52,68.77 L72.53,68.77 L72.54,68.76 Z" fill="#f2f2f2" stroke="#f2f2f2" stroke-width="1" stroke-linejoin="round"/><path d="M68.58,64.14 L68.62,64.05 L68.69,63.97 L68.77,63.91 L68.87,63.87 L68.97,63.87 L69.07,63.88 L71.02,64.51 L71.11,64.55 L71.19,64.62 L71.25,64.70 L71.29,64.80 L71.29,64.90 L71.28,65.00 L63.34,89.80 L63.29,89.89 L63.23,89.97 L63.14,90.03 L63.04,90.07 L62.94,90.07 L62.84,90.06 L60.90,89.43 L60.80,89.39 L60.72,89.32 L60.66,89.24 L60.63,89.14 L60.62,89.04 L60.64,88.94 L68.58,64.14 Z" fill="#f2f2f2" stroke="#f2f2f2" stroke-width="1" stroke-linejoin="round"/><path d="M32.26,50.53 L32.38,49.21 L32.73,47.98 L33.28,46.87 L34.02,45.90 L34.91,45.10 L35.93,44.49 L37.05,44.11 L38.26,43.98 L51.24,43.98 L52.39,42.14 L53.39,40.22 L54.23,38.25 L54.92,36.22 L55.45,34.15 L55.82,32.05 L56.04,29.93 L56.09,27.80 L55.99,25.66 L55.72,23.53 L55.28,21.42 L54.68,19.33 L53.92,17.28 L52.98,15.28 L51.88,13.33 L50.60,11.45 L48.78,9.22 L46.77,7.22 L44.61,5.46 L42.31,3.94 L39.90,2.66 L37.39,1.62 L34.79,0.84 L32.14,0.31 L29.45,0.03 L26.75,0.01 L24.04,0.26 L21.35,0.76 L18.71,1.54 L16.13,2.58 L13.62,3.90 L11.22,5.49 L10.91,5.69 L8.72,7.57 L6.77,9.62 L5.07,11.82 L3.60,14.16 L2.38,16.61 L1.41,19.14 L0.69,21.75 L0.22,24.42 L0.01,27.11 L0.06,29.82 L0.37,32.52 L0.94,35.19 L1.78,37.82 L2.88,40.38 L4.26,42.85 L5.91,45.22 L8.49,48.12 L11.38,50.58 L14.52,52.60 L17.86,54.17 L21.35,55.28 L24.95,55.94 L28.60,56.12 L32.26,55.83 L32.26,50.53 Z" fill="#2a80c2" stroke="#1e1e1e" stroke-width="1" stroke-linejoin="round"/><path d="M20.52,22.09 L23.62,19.40 L26.95,17.04 L30.46,15.01 L34.14,13.33 L37.97,12.00 L41.91,11.03 L45.94,10.43 L50.04,10.22 L47.72,7.69 L45.09,5.45 L41.10,5.87 L37.17,6.62 L33.31,7.69 L29.55,9.09 L25.84,10.91 L22.33,13.09 L19.06,15.60 L16.04,18.44 L17.37,19.07 L18.57,19.90 L19.63,20.91 L20.52,22.08 L20.52,22.09 Z" fill="#ffffff" stroke="#1e1e1e" stroke-width="1" stroke-linejoin="round" opacity="0.6"/><path d="M6.57,33.42 L5.01,37.70 L3.79,42.10 L5.86,45.14 L7.68,47.30 L9.18,41.45 L11.26,35.80 L9.96,35.47 L8.74,34.95 L7.60,34.26 L6.57,33.41 L6.57,33.42 Z" fill="#ffffff" stroke="#ffffff" stroke-width="1" stroke-linejoin="round" opacity="0.6"/><path d="M9.81,18.37 L8.36,13.58 L7.53,8.63 L5.57,10.93 L3.89,13.43 L4.64,17.42 L5.78,21.32 L6.62,20.37 L7.59,19.55 L8.66,18.88 L9.82,18.37 L9.81,18.37 Z" fill="#f3f3f3" stroke="#f3f3f3" stroke-width="1" stroke-linejoin="round" opacity="0.55"/><ellipse cx="12.86" cy="26.89" rx="9.05" ry="9.05" fill="#e8e8e8" stroke="#1e1e1e" stroke-width="1"/><path d="M26.06,43.43 L26.18,42.26 L26.53,41.14 L27.09,40.12 L27.85,39.22 L25.60,37.89 L23.45,36.42 L21.40,34.81 L19.46,33.06 L18.40,34.03 L17.21,34.83 L15.90,35.42 L14.51,35.81 L16.84,38.02 L19.32,40.05 L22.61,42.28 L26.11,44.18 L26.05,43.43 L26.06,43.43 Z" fill="#f3f3f3" stroke="#f3f3f3" stroke-width="1" stroke-linejoin="round" opacity="0.55"/><path d="M39.17,27.72 L39.91,25.90 L40.49,25.11 L41.19,24.42 L37.19,21.33 L33.39,18.00 L29.79,14.45 L26.41,10.69 L22.84,6.03 L19.79,1.02 L16.18,2.41 L17.75,5.18 L19.46,7.87 L21.31,10.46 L23.30,12.94 L26.92,17.00 L30.78,20.83 L34.87,24.40 L39.17,27.72 L39.17,27.72 Z" fill="#f3f3f3" stroke="#1e1e1e" stroke-width="1" stroke-linejoin="round" opacity="0.7"/><ellipse cx="45.33" cy="28.84" rx="6.26" ry="6.26" fill="#f2f2f2" stroke="#f2f2f2" stroke-width="1"/><path d="M55.84,33.06 L54.68,32.49 L54.68,32.49 L53.69,31.96 L53.49,31.96 L52.62,31.26 L52.39,31.26 L51.37,30.60 L50.55,32.30 L49.25,33.65 L50.51,34.38 L50.77,34.55 L51.93,35.18 L51.93,35.18 L54.78,36.67 L54.78,36.67 L55.74,32.99 L55.83,33.06 L55.84,33.06 Z" fill="#f3f3f3" stroke="#f3f3f3" stroke-width="1" stroke-linejoin="round" opacity="0.55"/><path d="M37.78,44.00 L37.81,43.42 L37.69,42.23 L37.34,41.13 L36.80,40.13 L36.08,39.25 L35.21,38.53 L34.21,37.99 L33.10,37.65 L31.91,37.53 L30.72,37.65 L29.61,37.99 L28.61,38.53 L27.74,39.25 L27.02,40.13 L26.47,41.13 L26.13,42.23 L26.01,43.42 L26.13,44.61 L26.47,45.72 L27.02,46.72 L27.74,47.60 L28.61,48.32 L29.61,48.86 L30.72,49.20 L31.91,49.32 L32.36,49.30 L32.63,48.26 L33.04,47.30 L34.24,45.67 L35.00,45.03 L35.86,44.53 L36.79,44.18 L37.78,44.00 L37.78,44.00 Z" fill="#f2f2f2" stroke="#f2f2f2" stroke-width="1" stroke-linejoin="round"/><ellipse cx="12.86" cy="26.89" rx="9.05" ry="9.05" fill="#f2f2f2" stroke="#1e1e1e" stroke-width="1"/><path d="M51.08,43.97 L51.31,43.97 L51.37,43.90 L50.49,43.97 L51.08,43.97 L51.08,43.97 Z" fill="#f3f3f3" stroke="#f3f3f3" stroke-width="1" stroke-linejoin="round" opacity="0.55"/><path d="M38.26,43.97 L43.69,43.97 L40.72,43.63 L37.78,43.06 L37.78,43.43 L37.75,44.01 L38.26,43.98 L38.26,43.97 Z" fill="#f3f3f3" stroke="#f3f3f3" stroke-width="1" stroke-linejoin="round" opacity="0.55"/></svg>