<svg xmlns="http://www.w3.org/2000/svg" viewBox="-1.35 2.08 100.00 93.22"><path d="M45.05,19.04 L43.18,19.12 L41.35,19.37 L39.58,19.78 L37.87,20.34 L34.67,21.88 L31.82,23.93 L29.36,26.43 L27.36,29.33 L25.88,32.56 L25.36,34.29 L24.99,36.07 L22.17,36.60 L19.56,37.63 L17.21,39.10 L15.16,40.96 L13.48,43.16 L12.22,45.64 L11.42,48.37 L11.14,51.27 L11.35,53.79 L11.95,56.19 L12.91,58.41 L14.20,60.44 L15.78,62.23 L17.62,63.76 L19.69,64.99 L21.96,65.87 L61.01,26.83 L59.52,25.14 L57.85,23.62 L56.03,22.29 L54.06,21.17 L51.97,20.26 L49.76,19.59 L47.45,19.18 L45.05,19.04 L45.05,19.04 Z" fill="#1699f8" stroke="#1e1e1e" stroke-width="1" stroke-linejoin="round" opacity="0.5"/><path d="M72.37,38.51 L71.77,35.98 L70.88,33.58 L69.70,31.34 L68.25,29.26 L29.21,68.31 L31.36,68.80 L33.64,68.96 L70.90,68.96 L73.98,68.65 L76.85,67.76 L79.44,66.36 L81.69,64.50 L83.56,62.24 L84.96,59.65 L85.85,56.78 L86.16,53.71 L85.88,50.80 L85.09,48.08 L83.83,45.59 L82.15,43.39 L80.11,41.53 L77.76,40.06 L75.14,39.04 L72.31,38.51 L72.37,38.51 Z" fill="#159cf9" stroke="#1e1e1e" stroke-width="1" stroke-linejoin="round"/><path d="M79.99,29.58 L79.30,29.48 L78.66,29.63 L78.13,30.02 L77.77,30.61 L77.67,31.30 L77.82,31.94 L78.21,32.48 L78.80,32.83 L81.94,34.27 L84.75,36.13 L87.22,38.37 L89.31,40.94 L90.98,43.80 L92.22,46.91 L92.98,50.22 L93.24,53.71 L93.13,55.98 L92.79,58.19 L92.24,60.32 L91.49,62.36 L90.56,64.30 L89.45,66.13 L88.17,67.85 L86.73,69.42 L85.15,70.86 L83.44,72.14 L81.61,73.25 L79.67,74.19 L77.62,74.94 L75.49,75.48 L73.29,75.82 L71.01,75.93 L33.80,75.93 L30.83,75.75 L28.44,75.42 L26.62,75.01 L25.31,74.58 L92.97,6.81 L93.34,6.27 L93.46,5.66 L93.34,5.06 L92.97,4.54 L92.43,4.20 L91.82,4.08 L91.21,4.19 L90.70,4.54 L71.82,23.42 L69.23,20.34 L66.89,17.69 L64.29,15.35 L61.48,13.34 L58.48,11.67 L55.31,10.34 L51.99,9.38 L48.57,8.80 L45.05,8.60 L42.72,8.68 L40.42,8.94 L38.18,9.35 L35.99,9.93 L33.87,10.66 L31.81,11.53 L29.83,12.56 L27.93,13.72 L26.13,15.01 L24.43,16.44 L22.83,17.99 L21.34,19.67 L19.97,21.46 L18.73,23.36 L17.62,25.36 L16.66,27.47 L13.18,29.18 L10.05,31.35 L7.31,33.92 L5.00,36.86 L3.15,40.11 L1.78,43.63 L0.94,47.37 L0.65,51.27 L0.86,54.58 L1.47,57.78 L2.47,60.85 L3.83,63.75 L5.55,66.46 L7.61,68.93 L9.98,71.15 L12.66,73.07 L13.58,73.34 L14.41,73.14 L15.04,72.53 L15.27,71.88 L15.25,71.21 L14.99,70.59 L14.49,70.09 L12.19,68.44 L10.13,66.53 L8.36,64.40 L6.87,62.06 L5.68,59.56 L4.82,56.91 L4.29,54.14 L4.11,51.27 L4.37,47.81 L5.13,44.50 L6.37,41.40 L8.04,38.54 L10.12,35.97 L12.58,33.73 L15.38,31.85 L18.50,30.40 L19.25,30.13 L19.52,29.37 L21.33,25.59 L23.63,22.21 L26.38,19.24 L29.52,16.73 L33.01,14.72 L36.78,13.24 L40.80,12.32 L45.00,12.01 L48.11,12.18 L51.15,12.70 L54.09,13.56 L56.91,14.74 L59.58,16.23 L62.08,18.03 L64.38,20.12 L66.47,22.50 L69.28,25.85 L4.76,90.54 L4.39,91.08 L4.27,91.69 L4.39,92.29 L4.76,92.81 L5.29,93.17 L5.90,93.30 L6.50,93.17 L7.03,92.81 L22.55,77.29 L23.83,77.85 L26.03,78.51 L29.26,79.10 L33.64,79.45 L70.90,79.45 L73.53,79.32 L76.08,78.93 L78.54,78.29 L80.91,77.42 L83.15,76.33 L85.28,75.04 L87.26,73.56 L89.09,71.89 L90.75,70.06 L92.24,68.08 L93.53,65.96 L94.62,63.71 L95.49,61.34 L96.12,58.88 L96.52,56.33 L96.65,53.71 L96.35,49.69 L95.47,45.85 L94.04,42.26 L92.11,38.95 L89.69,35.98 L86.84,33.39 L83.57,31.24 L79.94,29.58 L79.99,29.58 Z" fill="#c1cad2" stroke="#1e1e1e" stroke-width="1" stroke-linejoin="round"/></svg>