<svg xmlns="http://www.w3.org/2000/svg" viewBox="-1.36 2.02 98.67 91.98"><path d="M44.43,18.77 L42.58,18.86 L40.78,19.10 L39.03,19.51 L37.34,20.06 L34.19,21.57 L31.37,23.59 L28.95,26.06 L26.98,28.92 L25.53,32.11 L25.01,33.81 L24.64,35.57 L21.86,36.09 L19.29,37.10 L16.97,38.55 L14.95,40.39 L13.30,42.56 L12.05,45.01 L11.26,47.69 L10.99,50.56 L11.19,53.05 L11.78,55.41 L12.73,57.60 L14.00,59.60 L15.56,61.37 L17.38,62.87 L19.42,64.08 L21.65,64.96 L60.16,26.45 L58.69,24.79 L57.05,23.30 L55.25,21.98 L53.31,20.87 L51.25,19.98 L49.07,19.32 L46.79,18.91 L44.43,18.77 L44.43,18.77 Z" fill="#1699f8" stroke="#1e1e1e" stroke-width="1" stroke-linejoin="round" opacity="0.5"/><path d="M71.36,37.97 L70.77,35.48 L69.89,33.11 L68.74,30.90 L67.31,28.85 L28.80,67.36 L30.93,67.84 L33.17,68.00 L69.92,68.00 L72.95,67.69 L75.78,66.82 L78.34,65.43 L80.56,63.60 L82.39,61.37 L83.78,58.82 L84.66,55.99 L84.96,52.96 L84.69,50.09 L83.91,47.41 L82.67,44.96 L81.01,42.79 L79.00,40.95 L76.68,39.50 L74.10,38.49 L71.31,37.97 L71.36,37.97 Z" fill="#159cf9" stroke="#1e1e1e" stroke-width="1" stroke-linejoin="round"/><path d="M78.88,29.17 L78.20,29.07 L77.57,29.22 L77.04,29.60 L76.69,30.19 L76.59,30.87 L76.74,31.50 L77.12,32.02 L77.71,32.37 L80.80,33.79 L83.58,35.63 L86.01,37.83 L88.07,40.37 L89.72,43.19 L90.94,46.26 L91.69,49.53 L91.95,52.96 L91.83,55.20 L91.50,57.38 L90.96,59.48 L90.22,61.49 L89.30,63.41 L88.20,65.22 L86.94,66.90 L85.53,68.46 L83.97,69.87 L82.28,71.14 L80.48,72.23 L78.56,73.16 L76.55,73.89 L74.44,74.43 L72.27,74.77 L70.03,74.88 L33.33,74.88 L30.40,74.70 L28.05,74.37 L26.25,73.96 L24.96,73.55 L91.68,6.72 L92.04,6.18 L92.16,5.58 L92.04,4.99 L91.68,4.48 L91.14,4.14 L90.54,4.02 L89.95,4.13 L89.44,4.48 L70.83,23.09 L68.27,20.05 L65.96,17.44 L63.40,15.14 L60.63,13.16 L57.67,11.51 L54.54,10.20 L51.27,9.25 L47.89,8.68 L44.43,8.48 L42.12,8.56 L39.86,8.81 L37.65,9.22 L35.49,9.79 L33.40,10.51 L31.37,11.37 L29.42,12.38 L27.55,13.53 L25.77,14.80 L24.09,16.21 L22.51,17.74 L21.04,19.39 L19.69,21.16 L18.47,23.03 L17.38,25.01 L16.43,27.09 L12.99,28.78 L9.91,30.91 L7.21,33.45 L4.93,36.35 L3.10,39.55 L1.76,43.02 L0.92,46.71 L0.64,50.56 L0.84,53.82 L1.45,56.98 L2.43,60.00 L3.78,62.87 L5.48,65.53 L7.50,67.97 L9.84,70.16 L12.48,72.05 L13.39,72.32 L14.21,72.12 L14.83,71.52 L15.06,70.88 L15.04,70.22 L14.78,69.61 L14.29,69.12 L12.02,67.49 L9.99,65.61 L8.24,63.50 L6.77,61.20 L5.61,58.73 L4.75,56.12 L4.23,53.38 L4.05,50.56 L4.31,47.14 L5.06,43.89 L6.28,40.83 L7.93,38.01 L9.98,35.47 L12.40,33.26 L15.17,31.41 L18.24,29.97 L18.99,29.71 L19.25,28.96 L21.03,25.24 L23.31,21.90 L26.02,18.97 L29.11,16.50 L32.55,14.51 L36.27,13.05 L40.23,12.15 L44.37,11.84 L47.44,12.01 L50.44,12.53 L53.34,13.37 L56.12,14.53 L58.75,16.01 L61.22,17.78 L63.49,19.84 L65.55,22.19 L68.32,25.49 L4.69,89.28 L4.33,89.82 L4.21,90.42 L4.33,91.01 L4.69,91.52 L5.21,91.88 L5.81,92.00 L6.41,91.88 L6.93,91.52 L22.24,76.21 L23.50,76.76 L25.67,77.42 L28.85,78.01 L33.17,78.35 L69.92,78.35 L72.51,78.22 L75.02,77.83 L77.45,77.20 L79.78,76.34 L82.00,75.27 L84.09,74.00 L86.05,72.53 L87.85,70.89 L89.49,69.09 L90.96,67.13 L92.23,65.04 L93.30,62.82 L94.16,60.49 L94.79,58.06 L95.18,55.55 L95.31,52.96 L95.01,49.00 L94.14,45.22 L92.74,41.67 L90.83,38.41 L88.45,35.48 L85.63,32.93 L82.41,30.81 L78.83,29.17 L78.88,29.17 Z" fill="#c1cad2" stroke="#1e1e1e" stroke-width="1" stroke-linejoin="round"/></svg>