<svg xmlns="http://www.w3.org/2000/svg" viewBox="-1.31 -1.32 100.00 100.00"><path d="M65.44,81.90 L59.21,81.76 L53.40,81.34 L48.14,80.68 L43.54,79.81 L39.73,78.75 L36.83,77.52 L35.76,76.86 L34.95,76.17 L34.44,75.45 L34.23,74.71 L34.23,74.71 L34.23,89.34 L34.39,90.09 L34.86,90.82 L35.63,91.52 L36.68,92.20 L39.56,93.44 L43.38,94.53 L48.00,95.42 L53.31,96.10 L59.17,96.53 L65.47,96.68 L71.64,96.53 L77.40,96.12 L82.62,95.47 L87.20,94.61 L91.01,93.57 L93.94,92.37 L95.04,91.72 L95.87,91.04 L96.42,90.33 L96.68,89.61 L96.68,89.61 L96.68,89.03 L96.68,89.03 L96.68,74.58 L96.52,75.33 L96.04,76.06 L95.27,76.76 L94.22,77.44 L91.34,78.68 L87.53,79.77 L82.90,80.66 L77.60,81.34 L71.73,81.77 L65.44,81.92 L65.44,81.92 L65.44,81.90 Z" fill="#0078d4" stroke="#1e1e1e" stroke-width="1" stroke-linejoin="round"/><path d="M78.07,68.05 L76.84,69.94 L75.30,71.59 L73.44,72.96 L71.26,73.99 L69.02,74.59 L66.72,74.79 L64.95,74.68 L63.24,74.33 L61.60,73.76 L60.06,73.00 L58.63,72.04 L57.33,70.91 L56.19,69.62 L55.22,68.18 L51.63,68.18 L47.92,68.69 L44.55,69.31 L41.58,70.02 L39.05,70.83 L37.00,71.72 L35.47,72.67 L34.53,73.69 L34.20,74.75 L34.36,75.50 L34.84,76.23 L35.61,76.93 L36.66,77.60 L39.54,78.85 L43.35,79.93 L47.97,80.83 L53.28,81.50 L59.15,81.93 L65.44,82.08 L71.74,81.93 L77.61,81.50 L82.91,80.83 L87.54,79.93 L91.35,78.85 L94.23,77.61 L95.28,76.93 L96.05,76.23 L96.53,75.50 L96.69,74.75 L96.60,74.20 L96.34,73.65 L95.32,72.60 L93.69,71.62 L91.49,70.71 L88.78,69.88 L85.60,69.16 L82.02,68.54 L78.07,68.05 L78.07,68.05 Z" fill="#83b9f9" stroke="#1e1e1e" stroke-width="1" stroke-linejoin="round"/><path d="M62.75,48.98 L57.14,49.22 L51.94,49.67 L47.22,50.33 L43.09,51.17 L39.63,52.16 L36.95,53.28 L35.14,54.52 L34.59,55.18 L34.29,55.85 L54.99,55.85 L56.37,53.55 L58.17,51.62 L60.32,50.08 L62.75,48.98 L62.75,48.98 Z" fill="#83b9f9" stroke="#83b9f9" stroke-width="1" stroke-linejoin="round"/><path d="M72.63,49.15 L73.91,49.83 L75.06,50.63 L76.95,52.51 L78.33,54.68 L79.21,57.02 L79.71,59.93 L79.67,62.80 L86.58,61.67 L89.49,60.95 L91.96,60.15 L93.96,59.27 L95.44,58.33 L96.36,57.33 L96.68,56.28 L96.56,55.64 L96.21,55.01 L94.86,53.81 L92.71,52.70 L89.82,51.70 L86.30,50.83 L82.20,50.10 L77.62,49.54 L72.63,49.15 L72.63,49.15 Z" fill="#83b9f9" stroke="#1e1e1e" stroke-width="1" stroke-linejoin="round"/><path d="M79.69,62.63 L79.40,64.49 L78.89,66.27 L78.15,67.95 L77.20,69.51 L76.03,70.92 L74.64,72.15 L73.05,73.18 L71.26,73.99 L69.02,74.59 L66.71,74.79 L64.94,74.67 L63.23,74.32 L61.59,73.76 L60.05,72.99 L58.62,72.04 L57.33,70.91 L56.18,69.62 L55.21,68.18 L34.22,68.18 L34.22,70.87 L34.38,71.62 L34.86,72.35 L35.63,73.05 L36.68,73.73 L39.56,74.97 L43.37,76.06 L48.00,76.95 L53.30,77.63 L59.17,78.06 L65.47,78.21 L71.63,78.06 L77.39,77.65 L82.62,77.01 L87.19,76.15 L91.01,75.10 L93.94,73.90 L95.03,73.25 L95.86,72.57 L96.42,71.87 L96.68,71.14 L96.68,56.11 L96.36,57.16 L95.44,58.16 L93.96,59.10 L91.96,59.98 L89.49,60.78 L86.59,61.50 L79.69,62.63 L79.69,62.63 Z" fill="#0078d4" stroke="#1e1e1e" stroke-width="1" stroke-linejoin="round"/><path d="M34.20,37.32 L34.36,38.07 L34.83,38.79 L35.60,39.49 L36.65,40.17 L39.53,41.41 L43.35,42.50 L47.97,43.39 L53.28,44.07 L59.14,44.50 L65.44,44.64 L71.74,44.50 L77.60,44.07 L82.91,43.39 L87.53,42.50 L91.35,41.41 L94.23,40.17 L95.28,39.50 L96.05,38.79 L96.52,38.07 L96.68,37.32 L96.52,36.57 L96.05,35.84 L95.28,35.14 L94.23,34.46 L91.35,33.22 L87.53,32.13 L82.91,31.24 L77.60,30.56 L71.74,30.13 L65.44,29.98 L59.14,30.13 L53.28,30.56 L47.97,31.23 L43.35,32.13 L39.53,33.21 L36.65,34.46 L35.60,35.13 L34.83,35.84 L34.36,36.57 L34.20,37.32 L34.20,37.32 Z" fill="#83b9f9" stroke="#1e1e1e" stroke-width="1" stroke-linejoin="round"/><path d="M65.44,44.48 L65.44,44.48 L59.21,44.33 L53.40,43.92 L48.14,43.26 L43.54,42.38 L39.73,41.32 L36.83,40.10 L35.76,39.43 L34.95,38.74 L34.44,38.02 L34.23,37.28 L34.23,51.91 L34.31,52.45 L34.56,52.98 L35.53,54.00 L37.08,54.96 L39.16,55.86 L54.99,55.86 L55.91,54.21 L57.04,52.72 L58.36,51.41 L59.85,50.31 L61.48,49.42 L63.24,48.76 L65.10,48.35 L67.03,48.21 L67.42,48.22 L70.54,48.31 L72.31,48.88 L73.86,49.66 L75.21,50.61 L76.37,51.71 L77.34,52.93 L78.13,54.24 L78.75,55.61 L79.21,57.02 L79.47,58.43 L86.27,57.34 L89.15,56.66 L91.63,55.89 L93.66,55.05 L95.21,54.14 L96.23,53.18 L96.68,52.17 L96.68,37.15 L96.52,37.90 L96.04,38.63 L95.27,39.33 L94.22,40.00 L91.34,41.25 L87.53,42.33 L82.90,43.23 L77.60,43.91 L71.73,44.33 L65.44,44.48 L65.44,44.48 Z" fill="#0078d4" stroke="#1e1e1e" stroke-width="1" stroke-linejoin="round"/><path d="M76.19,58.11 L75.58,56.76 L74.79,55.53 L73.84,54.43 L72.74,53.49 L71.53,52.72 L70.21,52.12 L68.80,51.72 L67.32,51.52 L67.32,51.42 L65.57,51.52 L63.90,51.91 L62.35,52.56 L60.93,53.46 L59.68,54.58 L58.63,55.90 L57.80,57.40 L57.24,59.05 L24.86,59.05 L22.99,58.89 L21.13,58.55 L19.30,58.06 L17.55,57.40 L15.91,56.59 L14.37,55.62 L12.95,54.52 L11.65,53.30 L10.48,51.96 L9.44,50.52 L8.54,48.99 L7.80,47.37 L7.21,45.69 L6.78,43.95 L6.53,42.16 L6.46,40.33 L6.57,38.48 L6.87,36.61 L7.72,33.76 L9.00,31.14 L10.65,28.77 L12.63,26.70 L14.92,24.96 L17.46,23.59 L20.22,22.61 L23.15,22.08 L24.86,22.08 L25.47,20.37 L26.79,17.31 L28.56,14.57 L30.73,12.17 L33.24,10.16 L36.04,8.57 L39.07,7.45 L42.29,6.81 L45.63,6.71 L48.39,6.84 L51.08,7.32 L53.67,8.13 L56.11,9.27 L58.40,10.71 L60.48,12.44 L62.34,14.44 L63.94,16.69 L64.40,17.75 L64.75,18.98 L65.20,21.53 L65.43,24.46 L71.28,24.46 L71.07,20.94 L70.61,18.33 L69.93,16.15 L68.02,12.74 L65.68,9.68 L62.95,7.02 L59.88,4.77 L56.52,2.99 L52.92,1.69 L49.14,0.91 L45.23,0.68 L41.28,0.93 L37.47,1.76 L33.86,3.11 L30.51,4.96 L27.45,7.27 L24.75,10.02 L22.46,13.15 L20.63,16.65 L18.20,17.23 L15.89,18.03 L13.70,19.05 L11.64,20.26 L9.73,21.65 L7.98,23.22 L6.39,24.93 L4.97,26.79 L3.74,28.78 L2.70,30.87 L1.87,33.07 L1.25,35.34 L0.85,37.69 L0.69,40.09 L0.77,42.53 L1.10,45.00 L1.97,48.33 L3.28,51.46 L4.99,54.35 L7.08,56.97 L9.51,59.28 L12.25,61.24 L15.26,62.82 L18.52,63.97 L21.44,64.77 L24.47,64.98 L57.25,64.98 L58.13,66.81 L59.33,68.38 L60.79,69.67 L62.46,70.65 L64.28,71.30 L66.21,71.58 L68.19,71.49 L70.17,70.99 L72.00,70.10 L73.58,68.91 L74.87,67.45 L75.86,65.79 L76.50,63.98 L76.79,62.06 L76.70,60.08 L76.20,58.11 L76.19,58.11 Z" fill="#50e6ff" stroke="#1e1e1e" stroke-width="1" stroke-linejoin="round"/></svg>