<svg xmlns="http://www.w3.org/2000/svg" viewBox="-1.32 -1.33 98.67 98.67"><path d="M64.53,80.77 L58.39,80.63 L52.66,80.22 L47.47,79.57 L42.94,78.70 L39.18,77.66 L36.32,76.45 L35.26,75.80 L34.47,75.12 L33.96,74.41 L33.75,73.68 L33.75,73.68 L33.75,88.11 L33.91,88.85 L34.38,89.56 L35.14,90.26 L36.18,90.92 L39.02,92.15 L42.78,93.22 L47.34,94.10 L52.57,94.77 L58.36,95.19 L64.57,95.34 L70.65,95.20 L76.32,94.79 L81.48,94.15 L85.99,93.31 L89.75,92.28 L92.64,91.09 L93.72,90.45 L94.54,89.78 L95.09,89.08 L95.34,88.37 L95.34,88.37 L95.34,87.80 L95.34,87.80 L95.34,73.55 L95.18,74.29 L94.71,75.01 L93.95,75.70 L92.92,76.37 L90.08,77.59 L86.31,78.66 L81.76,79.55 L76.52,80.22 L70.74,80.64 L64.53,80.78 L64.53,80.78 L64.53,80.77 Z" fill="#0078d4" stroke="#1e1e1e" stroke-width="1" stroke-linejoin="round"/><path d="M76.99,67.10 L75.78,68.97 L74.26,70.60 L72.42,71.95 L70.28,72.97 L68.07,73.56 L65.80,73.76 L64.05,73.64 L62.36,73.30 L60.75,72.74 L59.23,71.99 L57.82,71.05 L56.54,69.93 L55.41,68.66 L54.45,67.24 L50.92,67.24 L47.26,67.74 L43.94,68.35 L41.01,69.05 L38.51,69.85 L36.48,70.73 L34.98,71.67 L34.05,72.67 L33.73,73.72 L33.89,74.46 L34.35,75.17 L35.11,75.87 L36.15,76.53 L38.99,77.76 L42.75,78.83 L47.31,79.71 L52.54,80.38 L58.33,80.80 L64.54,80.94 L70.75,80.80 L76.53,80.38 L81.77,79.71 L86.33,78.83 L90.09,77.76 L92.93,76.53 L93.96,75.87 L94.72,75.17 L95.19,74.46 L95.35,73.72 L95.26,73.17 L95.00,72.63 L94.00,71.60 L92.39,70.63 L90.22,69.73 L87.55,68.91 L84.42,68.20 L80.88,67.59 L76.99,67.11 L76.99,67.10 Z" fill="#83b9f9" stroke="#1e1e1e" stroke-width="1" stroke-linejoin="round"/><path d="M61.88,48.30 L56.35,48.54 L51.22,48.99 L46.57,49.63 L42.49,50.46 L39.09,51.44 L36.44,52.55 L34.66,53.77 L34.11,54.41 L33.82,55.08 L54.23,55.08 L55.59,52.81 L57.37,50.90 L59.49,49.39 L61.88,48.30 L61.88,48.30 Z" fill="#83b9f9" stroke="#83b9f9" stroke-width="1" stroke-linejoin="round"/><path d="M71.63,48.47 L72.89,49.14 L74.02,49.93 L75.89,51.78 L77.24,53.92 L78.12,56.23 L78.61,59.10 L78.57,61.93 L85.39,60.81 L88.25,60.11 L90.69,59.32 L92.66,58.45 L94.12,57.52 L95.03,56.54 L95.34,55.50 L95.23,54.87 L94.88,54.25 L93.55,53.07 L91.42,51.98 L88.58,50.99 L85.10,50.13 L81.07,49.41 L76.55,48.85 L71.63,48.47 L71.63,48.47 Z" fill="#83b9f9" stroke="#1e1e1e" stroke-width="1" stroke-linejoin="round"/><path d="M78.59,61.76 L78.31,63.59 L77.80,65.35 L77.07,67.01 L76.13,68.55 L74.97,69.94 L73.61,71.15 L72.04,72.17 L70.27,72.97 L68.06,73.56 L65.79,73.75 L64.05,73.64 L62.36,73.29 L60.74,72.74 L59.22,71.98 L57.81,71.04 L56.53,69.93 L55.41,68.65 L54.45,67.23 L33.75,67.23 L33.75,69.89 L33.91,70.63 L34.38,71.35 L35.13,72.04 L36.17,72.71 L39.01,73.93 L42.77,75.01 L47.33,75.89 L52.57,76.56 L58.35,76.98 L64.56,77.13 L70.64,76.98 L76.32,76.58 L81.47,75.94 L85.99,75.09 L89.75,74.06 L92.64,72.88 L93.72,72.24 L94.54,71.57 L95.08,70.87 L95.34,70.15 L95.34,55.34 L95.02,56.37 L94.12,57.36 L92.66,58.29 L90.69,59.15 L88.25,59.94 L85.40,60.65 L78.59,61.77 L78.59,61.76 Z" fill="#0078d4" stroke="#1e1e1e" stroke-width="1" stroke-linejoin="round"/><path d="M33.72,36.80 L33.88,37.54 L34.35,38.26 L35.11,38.95 L36.14,39.61 L38.98,40.84 L42.75,41.91 L47.31,42.79 L52.54,43.46 L58.32,43.88 L64.53,44.03 L70.74,43.88 L76.53,43.46 L81.76,42.79 L86.32,41.91 L90.08,40.84 L92.92,39.61 L93.96,38.95 L94.72,38.26 L95.18,37.54 L95.34,36.80 L95.18,36.06 L94.72,35.34 L93.96,34.65 L92.92,33.98 L90.08,32.76 L86.32,31.69 L81.76,30.80 L76.53,30.14 L70.74,29.71 L64.53,29.57 L58.32,29.71 L52.54,30.14 L47.31,30.80 L42.75,31.68 L38.98,32.75 L36.14,33.98 L35.11,34.65 L34.35,35.34 L33.88,36.06 L33.72,36.80 L33.72,36.80 Z" fill="#83b9f9" stroke="#1e1e1e" stroke-width="1" stroke-linejoin="round"/><path d="M64.53,43.86 L64.53,43.86 L58.39,43.72 L52.66,43.31 L47.47,42.66 L42.94,41.79 L39.18,40.75 L36.32,39.54 L35.26,38.89 L34.47,38.21 L33.96,37.50 L33.75,36.77 L33.75,51.19 L33.84,51.73 L34.08,52.25 L35.04,53.25 L36.56,54.20 L38.62,55.08 L54.23,55.08 L55.14,53.46 L56.25,51.99 L57.55,50.70 L59.02,49.61 L60.63,48.73 L62.36,48.09 L64.20,47.68 L66.11,47.55 L66.49,47.55 L69.56,47.64 L71.31,48.20 L72.84,48.97 L74.17,49.91 L75.31,50.99 L76.27,52.19 L77.05,53.49 L77.66,54.84 L78.12,56.23 L78.37,57.62 L85.08,56.55 L87.92,55.87 L90.36,55.12 L92.37,54.29 L93.90,53.40 L94.90,52.45 L95.34,51.45 L95.34,36.63 L95.18,37.37 L94.71,38.09 L93.95,38.78 L92.92,39.45 L90.08,40.68 L86.31,41.75 L81.76,42.63 L76.52,43.30 L70.74,43.72 L64.53,43.87 L64.53,43.86 Z" fill="#0078d4" stroke="#1e1e1e" stroke-width="1" stroke-linejoin="round"/><path d="M75.14,57.31 L74.53,55.97 L73.75,54.76 L72.82,53.68 L71.74,52.75 L70.54,51.99 L69.23,51.40 L67.85,51.00 L66.39,50.81 L66.39,50.70 L64.67,50.80 L63.02,51.19 L61.48,51.83 L60.08,52.72 L58.85,53.83 L57.82,55.13 L57.00,56.61 L56.45,58.23 L24.52,58.23 L22.67,58.07 L20.84,57.74 L19.03,57.26 L17.31,56.61 L15.69,55.80 L14.18,54.85 L12.77,53.77 L11.49,52.56 L10.33,51.24 L9.31,49.82 L8.43,48.31 L7.69,46.72 L7.11,45.06 L6.69,43.34 L6.44,41.57 L6.37,39.77 L6.47,37.94 L6.77,36.10 L7.62,33.30 L8.87,30.71 L10.50,28.38 L12.46,26.33 L14.71,24.62 L17.22,23.26 L19.94,22.30 L22.83,21.78 L24.52,21.78 L25.11,20.09 L26.42,17.07 L28.17,14.37 L30.31,12.00 L32.78,10.02 L35.54,8.46 L38.53,7.34 L41.70,6.72 L45.00,6.62 L47.72,6.74 L50.38,7.22 L52.92,8.02 L55.34,9.14 L57.59,10.56 L59.64,12.27 L61.47,14.24 L63.05,16.46 L63.51,17.51 L63.86,18.71 L64.30,21.23 L64.53,24.12 L70.30,24.12 L70.09,20.65 L69.63,18.08 L68.96,15.93 L67.08,12.56 L64.77,9.55 L62.07,6.92 L59.05,4.71 L55.74,2.95 L52.19,1.66 L48.46,0.89 L44.60,0.67 L40.71,0.92 L36.95,1.73 L33.40,3.07 L30.08,4.89 L27.07,7.17 L24.41,9.88 L22.15,12.97 L20.35,16.42 L17.95,16.99 L15.67,17.78 L13.51,18.78 L11.48,19.98 L9.60,21.35 L7.87,22.89 L6.30,24.59 L4.90,26.42 L3.69,28.38 L2.67,30.45 L1.84,32.61 L1.23,34.85 L0.84,37.17 L0.68,39.53 L0.76,41.94 L1.08,44.37 L1.94,47.66 L3.23,50.75 L4.92,53.60 L6.98,56.18 L9.38,58.46 L12.08,60.39 L15.05,61.95 L18.26,63.09 L21.14,63.88 L24.13,64.08 L56.45,64.08 L57.33,65.89 L58.51,67.44 L59.95,68.71 L61.59,69.67 L63.39,70.31 L65.29,70.59 L67.24,70.50 L69.19,70.01 L71.01,69.13 L72.56,67.95 L73.84,66.52 L74.81,64.88 L75.44,63.09 L75.73,61.20 L75.64,59.25 L75.14,57.31 L75.14,57.31 Z" fill="#50e6ff" stroke="#1e1e1e" stroke-width="1" stroke-linejoin="round"/></svg>