<svg xmlns="http://www.w3.org/2000/svg" viewBox="6.70 5.96 97.26 100.00"><path d="M101.97,54.09 L101.46,49.88 L100.11,45.85 L97.99,42.18 L95.17,39.00 L91.77,36.46 L87.94,34.65 L83.81,33.64 L83.26,29.06 L81.93,24.65 L79.86,20.53 L77.10,16.84 L73.75,13.67 L69.90,11.14 L65.67,9.31 L61.18,8.24 L56.58,7.96 L51.81,8.32 L47.17,9.52 L42.82,11.51 L38.88,14.24 L35.49,17.61 L32.74,21.53 L30.72,25.87 L26.36,26.84 L22.24,28.57 L18.48,30.99 L15.21,34.03 L12.53,37.60 L10.51,41.59 L9.22,45.86 L8.70,50.30 L9.34,55.28 L10.93,60.03 L13.42,64.39 L16.71,68.18 L20.67,71.25 L25.16,73.49 L30.00,74.82 L35.01,75.17 L37.31,75.17 L79.83,75.17 L80.83,74.61 L84.86,74.18 L88.74,73.00 L92.33,71.11 L95.49,68.57 L98.12,65.48 L100.12,61.95 L101.42,58.11 L101.97,54.09 Z" fill="#3990e4" stroke="#1e1e1e" stroke-width="1" stroke-linejoin="round"/><path d="M82.13,78.96 L57.26,78.96 L57.26,47.88 L53.53,47.88 L53.53,78.96 L28.66,78.96 L27.73,79.21 L27.05,79.90 L26.80,80.83 L26.80,88.10 L27.05,89.04 L27.73,89.72 L28.66,89.97 L29.58,89.72 L30.25,89.03 L30.47,88.10 L30.47,82.63 L53.53,82.63 L53.53,86.42 L57.20,86.42 L57.20,82.63 L80.33,82.63 L80.33,89.41 L80.57,90.32 L81.23,91.00 L82.13,91.27 L83.05,91.01 L83.73,90.33 L84.00,89.41 L84.00,80.83 L83.75,79.90 L83.07,79.21 L82.13,78.96 L82.13,78.96 Z" fill="#949494" stroke="#1e1e1e" stroke-width="1" stroke-linejoin="round"/><path d="M88.48,103.96 L75.54,103.96 L74.38,103.67 L73.53,102.82 L73.24,101.66 L73.24,88.41 L73.55,87.26 L74.39,86.42 L75.54,86.11 L88.48,86.11 L89.61,86.44 L90.45,87.28 L90.78,88.41 L90.78,101.66 L90.47,102.81 L89.63,103.65 L88.48,103.96 L88.48,103.96 Z" fill="#3990e4" stroke="#1e1e1e" stroke-width="1" stroke-linejoin="round"/><path d="M63.98,101.66 L63.98,88.41 L63.65,87.28 L62.82,86.44 L61.68,86.11 L48.75,86.11 L47.60,86.42 L46.75,87.26 L46.45,88.41 L46.45,101.66 L46.73,102.82 L47.58,103.67 L48.75,103.96 L61.68,103.96 L62.83,103.65 L63.67,102.81 L63.98,101.66 L63.98,101.66 Z" fill="#3990e4" stroke="#1e1e1e" stroke-width="1" stroke-linejoin="round"/><path d="M37.31,101.66 L37.31,88.41 L36.98,87.28 L36.14,86.44 L35.01,86.11 L21.89,86.11 L20.75,86.44 L19.91,87.28 L19.59,88.41 L19.59,101.66 L19.89,102.81 L20.74,103.65 L21.89,103.96 L34.88,103.96 L36.08,103.69 L36.98,102.85 L37.31,101.66 Z" fill="#3990e4" stroke="#1e1e1e" stroke-width="1" stroke-linejoin="round"/><path d="M74.61,41.04 L74.61,36.75 L73.99,36.75 L69.39,35.25 L68.21,32.33 L70.51,27.36 L67.52,24.37 L66.90,24.68 L62.18,26.61 L59.19,25.43 L57.33,20.21 L53.28,20.21 L53.28,20.83 L51.79,25.43 L48.87,26.61 L43.52,24.25 L40.54,27.30 L40.85,27.85 L43.52,32.15 L42.28,35.07 L36.81,37.31 L36.81,41.53 L37.37,41.53 L41.97,43.03 L43.15,45.95 L40.85,50.92 L43.83,53.91 L44.46,53.91 L48.75,51.73 L51.67,52.91 L53.53,58.07 L57.82,58.07 L57.82,57.51 L59.32,52.91 L62.24,51.73 L67.21,54.03 L70.20,51.05 L69.89,50.42 L67.71,46.13 L68.89,43.21 L74.61,41.04 Z" fill="#ffffff" stroke="#ffffff" stroke-width="1" stroke-linejoin="round"/><path d="M55.96,47.25 L53.22,46.81 L50.78,45.48 L48.92,43.43 L47.84,40.87 L47.67,38.10 L48.43,35.43 L50.03,33.16 L52.28,31.55 L54.95,30.77 L57.72,30.92 L60.28,31.98 L62.36,33.82 L63.70,36.25 L64.17,38.98 L63.76,41.61 L62.54,43.97 L60.62,45.81 L58.22,46.94 L55.59,47.25 L55.96,47.25 Z" fill="#3990e4" stroke="#3990e4" stroke-width="1" stroke-linejoin="round"/></svg>