<svg xmlns="http://www.w3.org/2000/svg" viewBox="-1.97 -1.71 99.97 99.38"><path d="M92.84,0.29 L43.37,0.29 L42.15,0.53 L41.12,1.22 L40.42,2.24 L40.17,3.46 L40.17,74.22 L41.13,74.22 L42.52,71.95 L44.49,70.16 L46.89,69.01 L49.52,68.58 L49.59,68.58 L52.32,69.02 L54.80,70.24 L56.81,72.15 L58.16,74.56 L58.75,77.26 L58.52,80.01 L57.48,82.58 L55.73,84.72 L53.43,86.26 L50.78,87.05 L48.02,87.02 L45.38,86.18 L43.74,85.15 L42.34,83.81 L41.26,82.20 L40.19,82.20 L40.19,86.13 L40.45,87.34 L41.14,88.37 L42.18,89.05 L43.39,89.29 L92.86,89.29 L94.43,88.86 L95.58,87.71 L96.00,86.14 L96.00,3.46 L95.76,2.24 L95.08,1.22 L94.05,0.53 L92.84,0.29 L92.84,0.29 Z" fill="#0073cc" stroke="#1e1e1e" stroke-width="1" stroke-linejoin="round"/><path d="M47.55,10.18 L56.64,10.18 L57.20,10.41 L57.43,10.97 L57.43,10.97 L57.43,22.70 L57.20,23.26 L56.64,23.49 L47.57,23.49 L47.02,23.26 L46.78,22.70 L46.78,22.70 L46.78,10.97 L47.02,10.41 L47.57,10.18 L47.55,10.18 Z" fill="#f2f2f2" stroke="#f2f2f2" stroke-width="1" stroke-linejoin="round" opacity="0.4"/><path d="M63.55,10.18 L72.64,10.18 L73.20,10.41 L73.43,10.97 L73.43,10.97 L73.43,22.70 L73.20,23.26 L72.64,23.49 L63.57,23.49 L63.02,23.26 L62.78,22.70 L62.78,22.70 L62.78,10.97 L63.02,10.41 L63.57,10.18 L63.55,10.18 Z" fill="#f2f2f2" stroke="#f2f2f2" stroke-width="1" stroke-linejoin="round" opacity="0.4"/><path d="M79.58,10.18 L88.65,10.18 L89.21,10.41 L89.44,10.97 L89.44,10.97 L89.44,22.70 L89.21,23.26 L88.65,23.49 L79.58,23.49 L79.03,23.26 L78.79,22.70 L78.79,22.70 L78.79,10.97 L79.03,10.41 L79.58,10.18 L79.58,10.18 Z" fill="#f2f2f2" stroke="#f2f2f2" stroke-width="1" stroke-linejoin="round" opacity="0.4"/><path d="M47.58,31.41 L56.64,31.41 L57.20,31.64 L57.43,32.20 L57.43,32.20 L57.43,44.05 L57.20,44.61 L56.64,44.85 L47.57,44.85 L47.01,44.61 L46.78,44.05 L46.78,44.05 L46.78,32.32 L46.94,31.73 L47.46,31.42 L47.58,31.41 Z" fill="#f2f2f2" stroke="#f2f2f2" stroke-width="1" stroke-linejoin="round" opacity="0.4"/><path d="M63.58,31.41 L72.68,31.41 L73.24,31.64 L73.47,32.20 L73.47,32.20 L73.47,44.05 L73.24,44.61 L72.68,44.85 L63.61,44.85 L63.05,44.61 L62.82,44.05 L62.82,44.05 L62.82,32.32 L62.97,31.73 L63.49,31.42 L63.58,31.41 Z" fill="#f2f2f2" stroke="#f2f2f2" stroke-width="1" stroke-linejoin="round" opacity="0.4"/><path d="M79.62,31.41 L88.69,31.41 L89.25,31.64 L89.48,32.20 L89.48,32.20 L89.48,44.05 L89.25,44.61 L88.69,44.85 L79.62,44.85 L79.06,44.61 L78.83,44.05 L78.83,44.05 L78.83,32.32 L78.96,31.74 L79.47,31.41 L79.62,31.41 Z" fill="#f2f2f2" stroke="#f2f2f2" stroke-width="1" stroke-linejoin="round" opacity="0.4"/><path d="M47.62,49.91 L56.64,49.91 L57.20,50.14 L57.43,50.70 L57.43,50.70 L57.43,62.56 L57.20,63.12 L56.64,63.35 L47.57,63.35 L47.02,63.12 L46.78,62.56 L46.78,62.56 L46.78,50.83 L46.94,50.24 L47.46,49.94 L47.62,49.91 Z" fill="#f2f2f2" stroke="#f2f2f2" stroke-width="1" stroke-linejoin="round" opacity="0.4"/><path d="M63.62,49.91 L72.71,49.91 L73.27,50.14 L73.50,50.70 L73.50,50.70 L73.50,62.56 L73.27,63.12 L72.71,63.35 L63.65,63.35 L63.09,63.12 L62.86,62.56 L62.86,62.56 L62.86,50.83 L63.00,50.24 L63.53,49.94 L63.62,49.91 Z" fill="#f2f2f2" stroke="#f2f2f2" stroke-width="1" stroke-linejoin="round" opacity="0.4"/><path d="M79.66,49.91 L88.73,49.91 L89.28,50.14 L89.51,50.70 L89.51,50.70 L89.51,62.56 L89.28,63.12 L88.73,63.35 L79.66,63.35 L79.10,63.12 L78.87,62.56 L78.87,62.56 L78.87,50.83 L78.98,50.25 L79.47,49.92 L79.66,49.91 Z" fill="#f2f2f2" stroke="#f2f2f2" stroke-width="1" stroke-linejoin="round" opacity="0.4"/><path d="M80.97,58.67 L18.95,58.67 L17.75,58.90 L16.73,59.58 L16.05,60.60 L15.81,61.80 L15.81,74.21 L41.10,74.21 L42.49,71.94 L44.47,70.15 L46.87,68.99 L49.50,68.56 L49.57,68.56 L52.30,69.00 L54.78,70.23 L56.78,72.13 L58.14,74.54 L58.73,77.24 L58.50,80.00 L57.46,82.56 L55.71,84.71 L53.41,86.24 L50.76,87.03 L47.99,87.00 L45.36,86.16 L43.71,85.14 L42.32,83.79 L41.24,82.18 L15.81,82.18 L15.81,92.54 L16.05,93.74 L16.73,94.76 L17.75,95.44 L18.95,95.67 L80.97,95.67 L82.53,95.26 L83.68,94.11 L84.10,92.54 L84.10,61.81 L83.87,60.61 L83.19,59.59 L82.17,58.91 L80.97,58.67 L80.97,58.67 Z" fill="#2ec2e5" stroke="#1e1e1e" stroke-width="1" stroke-linejoin="round"/><path d="M73.06,63.42 L73.38,63.47 L73.69,63.59 L73.95,63.80 L74.16,64.06 L74.28,64.36 L74.33,64.69 L74.33,89.71 L74.28,90.04 L74.16,90.34 L73.95,90.60 L73.69,90.81 L73.38,90.93 L73.06,90.98 L65.64,90.98 L65.31,90.93 L65.01,90.81 L64.75,90.60 L64.54,90.34 L64.42,90.04 L64.37,89.71 L64.37,64.69 L64.42,64.36 L64.54,64.06 L64.75,63.80 L65.01,63.59 L65.31,63.47 L65.64,63.42 L73.06,63.42 Z" fill="#ffffff" stroke="#ffffff" stroke-width="1" stroke-linejoin="round" opacity="0.8"/><path d="M35.20,74.22 L35.20,64.69 L34.83,63.80 L33.93,63.42 L26.52,63.42 L25.62,63.79 L25.25,64.69 L25.25,74.22 L35.20,74.22 Z" fill="#ffffff" stroke="#ffffff" stroke-width="1" stroke-linejoin="round" opacity="0.8"/><path d="M25.25,82.21 L25.25,89.71 L25.63,90.60 L26.52,90.97 L33.94,90.97 L34.83,90.60 L35.20,89.71 L35.20,82.21 L25.25,82.21 Z" fill="#ffffff" stroke="#ffffff" stroke-width="1" stroke-linejoin="round" opacity="0.8"/><path d="M49.50,68.58 L49.57,68.58 L52.30,69.05 L54.77,70.30 L54.77,64.69 L54.40,63.80 L53.50,63.42 L46.08,63.42 L45.18,63.80 L44.81,64.69 L44.81,70.00 L47.06,68.97 L49.50,68.58 Z" fill="#ffffff" stroke="#ffffff" stroke-width="1" stroke-linejoin="round" opacity="0.8"/><path d="M52.44,86.62 L50.07,87.11 L47.66,86.96 L45.36,86.19 L44.83,85.90 L44.83,89.71 L45.20,90.60 L46.10,90.97 L53.51,90.97 L54.41,90.60 L54.78,89.71 L54.78,85.38 L53.66,86.09 L52.44,86.62 L52.44,86.62 Z" fill="#ffffff" stroke="#ffffff" stroke-width="1" stroke-linejoin="round" opacity="0.8"/><path d="M56.38,75.79 L55.34,73.67 L53.67,71.99 L51.55,70.95 L49.21,70.65 L46.89,71.12 L44.85,72.31 L43.31,74.10 L42.43,76.30 L16.97,76.30 L15.63,76.20 L14.30,75.96 L11.38,75.04 L8.76,73.45 L6.59,71.28 L5.01,68.66 L4.09,65.73 L3.89,62.67 L4.43,59.65 L5.66,56.85 L7.53,54.42 L9.93,52.50 L12.71,51.21 L15.72,50.62 L16.96,50.62 L17.35,49.49 L18.64,46.77 L20.47,44.37 L22.75,42.40 L25.39,40.95 L28.27,40.07 L31.27,39.81 L34.40,40.12 L37.38,41.07 L40.11,42.62 L40.11,37.95 L37.35,36.78 L34.43,36.06 L31.45,35.82 L27.81,36.07 L24.30,37.04 L21.04,38.67 L18.16,40.90 L15.77,43.66 L13.97,46.83 L10.60,47.75 L7.48,49.35 L4.78,51.58 L2.60,54.32 L1.04,57.45 L0.17,60.84 L0.03,64.34 L0.63,67.79 L1.93,71.04 L3.89,73.95 L6.41,76.38 L9.38,78.23 L12.67,79.41 L14.70,79.94 L16.80,80.09 L42.43,80.09 L43.46,82.09 L45.05,83.69 L47.05,84.72 L49.28,85.09 L51.51,84.77 L53.53,83.78 L55.16,82.22 L56.23,80.24 L56.65,78.03 L56.38,75.79 L56.38,75.79 Z" fill="#32bedd" stroke="#1e1e1e" stroke-width="1" stroke-linejoin="round"/></svg>