<svg xmlns="http://www.w3.org/2000/svg" viewBox="-2.00 -1.81 100.00 99.53"><path d="M95.83,80.11 L95.31,81.58 L94.41,83.04 L93.14,84.46 L91.50,85.86 L89.48,87.21 L87.09,88.50 L84.32,89.74 L81.19,90.91 L71.66,93.29 L61.97,94.90 L52.18,95.71 L42.36,95.72 L32.56,94.93 L22.87,93.36 L13.33,91.00 L10.45,89.88 L7.91,88.70 L5.73,87.46 L3.90,86.17 L2.42,84.84 L1.29,83.47 L0.51,82.09 L0.08,80.70 L0.03,75.08 L0.08,69.96 L96.00,69.06 L95.83,80.11 Z" fill="#5ea0ef" stroke="#1e1e1e" stroke-width="1" stroke-linejoin="round"/><path d="M96.00,69.24 L96.00,69.37 L95.74,71.05 L95.00,72.70 L93.82,74.29 L92.21,75.82 L90.19,77.29 L87.79,78.67 L85.04,79.96 L81.95,81.17 L78.56,82.26 L74.88,83.25 L70.94,84.11 L66.77,84.85 L62.38,85.44 L57.80,85.90 L53.05,86.19 L48.17,86.33 L43.41,86.29 L38.79,86.11 L30.04,85.29 L25.94,84.68 L22.06,83.94 L18.43,83.08 L15.05,82.10 L11.96,81.02 L9.17,79.85 L6.71,78.58 L4.60,77.23 L2.86,75.80 L1.51,74.30 L0.58,72.74 L0.09,71.13 L0.02,70.68 L-0.00,70.22 L0.18,68.73 L0.73,67.27 L1.63,65.85 L2.88,64.47 L4.44,63.14 L6.32,61.87 L8.48,60.67 L10.92,59.53 L18.07,57.15 L25.38,55.32 L32.81,54.03 L40.31,53.30 L47.84,53.13 L55.39,53.14 L62.92,53.73 L70.38,54.87 L77.73,56.56 L84.94,58.79 L87.36,59.87 L89.50,61.01 L91.37,62.21 L92.95,63.48 L94.21,64.80 L95.15,66.17 L95.75,67.59 L95.99,69.05 L96.00,69.24 Z" fill="#50e6ff" stroke="#1e1e1e" stroke-width="1" stroke-linejoin="round"/><rect x="7.18" y="49.56" width="65.80" height="24.69" fill="#005ba1" stroke="#1e1e1e" stroke-width="1"/><rect x="7.18" y="24.87" width="65.80" height="24.69" fill="#0078d4" stroke="#1e1e1e" stroke-width="1"/><rect x="7.18" y="0.19" width="65.80" height="24.69" fill="#5ea0ef" stroke="#1e1e1e" stroke-width="1"/><path d="M13.19,12.53 L13.19,12.53 L13.47,11.15 L14.26,9.97 L15.43,9.18 L16.82,8.91 L16.82,8.91 L18.21,9.18 L19.39,9.97 L20.17,11.14 L20.45,12.53 L20.45,12.53 L20.17,13.92 L19.39,15.10 L18.21,15.88 L16.82,16.15 L16.82,16.15 L15.43,15.88 L14.26,15.09 L13.47,13.92 L13.19,12.53 L13.19,12.53 Z" fill="#ffffff" stroke="#ffffff" stroke-width="1" stroke-linejoin="round"/><path d="M38.05,12.53 L37.72,11.74 L36.92,11.41 L25.39,11.41 L24.59,11.74 L24.26,12.53 L24.59,13.33 L25.39,13.66 L36.92,13.66 L37.72,13.33 L38.05,12.53 Z" fill="#ffffff" stroke="#ffffff" stroke-width="1" stroke-linejoin="round"/><path d="M38.05,37.22 L37.72,36.42 L36.92,36.09 L25.39,36.09 L24.59,36.42 L24.26,37.22 L24.59,38.01 L25.39,38.34 L36.92,38.34 L37.72,38.01 L38.05,37.22 Z" fill="#ffffff" stroke="#ffffff" stroke-width="1" stroke-linejoin="round"/><path d="M38.05,61.90 L37.72,61.11 L36.92,60.78 L25.39,60.78 L24.54,61.08 L24.18,61.90 L24.54,62.72 L25.39,63.02 L36.92,63.02 L37.72,62.70 L38.05,61.90 L38.05,61.90 Z" fill="#ffffff" stroke="#ffffff" stroke-width="1" stroke-linejoin="round"/><path d="M16.82,40.84 L16.82,40.84 L18.21,40.57 L19.39,39.78 L20.17,38.60 L20.45,37.22 L20.45,37.22 L20.17,35.83 L19.39,34.65 L18.21,33.87 L16.82,33.59 L16.82,33.59 L15.43,33.87 L14.26,34.65 L13.47,35.83 L13.19,37.22 L13.19,37.22 L13.47,38.60 L14.26,39.78 L15.43,40.57 L16.82,40.84 Z" fill="#ffffff" stroke="#ffffff" stroke-width="1" stroke-linejoin="round"/><path d="M16.82,65.53 L16.82,65.53 L18.21,65.25 L19.39,64.47 L20.17,63.29 L20.45,61.90 L20.45,61.90 L20.17,60.52 L19.39,59.34 L18.21,58.55 L16.82,58.28 L16.82,58.28 L15.43,58.55 L14.26,59.34 L13.47,60.52 L13.19,61.90 L13.19,61.90 L13.47,63.29 L14.26,64.47 L15.43,65.25 L16.82,65.53 L16.82,65.53 Z" fill="#ffffff" stroke="#ffffff" stroke-width="1" stroke-linejoin="round"/><path d="M72.98,21.87 L72.98,3.20 L72.58,1.70 L71.48,0.60 L69.98,0.20 L10.19,0.20 L8.69,0.60 L7.59,1.70 L7.18,3.20 L7.18,21.87 L7.59,23.37 L8.69,24.47 L10.19,24.87 L8.69,25.27 L7.59,26.37 L7.18,27.87 L7.18,46.54 L7.59,48.04 L8.69,49.13 L10.19,49.54 L8.69,49.94 L7.59,51.04 L7.18,52.54 L7.18,71.21 L7.59,72.71 L8.69,73.81 L10.19,74.21 L69.98,74.21 L71.48,73.81 L72.58,72.71 L72.98,71.21 L72.98,52.54 L72.58,51.04 L71.48,49.94 L69.98,49.54 L71.48,49.13 L72.58,48.04 L72.98,46.54 L72.98,27.87 L72.58,26.37 L71.48,25.27 L69.98,24.87 L71.48,24.47 L72.58,23.37 L72.98,21.87 L72.98,21.87 Z" fill="#e1f8ff" stroke="#1e1e1e" stroke-width="1" stroke-linejoin="round" opacity="0.3"/><path d="M88.82,63.47 L88.32,60.50 L87.02,57.79 L85.02,55.55 L82.48,53.94 L79.59,53.10 L79.16,50.11 L78.08,47.30 L76.41,44.79 L74.23,42.71 L71.64,41.16 L68.77,40.23 L65.77,39.95 L62.91,40.20 L60.18,41.03 L57.67,42.42 L55.50,44.28 L53.76,46.56 L52.53,49.14 L49.60,49.88 L46.93,51.29 L44.66,53.28 L42.92,55.75 L41.81,58.56 L41.39,61.55 L41.79,64.44 L42.83,67.16 L44.44,69.59 L46.55,71.60 L49.05,73.09 L51.82,73.98 L54.73,74.24 L78.13,74.24 L80.89,73.83 L83.46,72.74 L85.66,71.02 L87.36,68.81 L88.43,66.23 L88.82,63.47 Z" fill="#3990e4" stroke="#1e1e1e" stroke-width="1" stroke-linejoin="round"/></svg>