<svg xmlns="http://www.w3.org/2000/svg" viewBox="4.42 0.12 91.40 100.00"><path d="M60.33,82.34 L59.86,83.80 L58.72,84.83 L57.22,85.16 L9.53,85.16 L8.03,84.83 L6.90,83.80 L6.42,82.34 L6.42,4.94 L6.90,3.48 L8.03,2.45 L9.53,2.12 L57.22,2.12 L58.72,2.45 L59.86,3.48 L60.33,4.94 L60.33,82.34 Z" fill="#abaaab" stroke="#1e1e1e" stroke-width="1" stroke-linejoin="round"/><path d="M14.35,37.62 L14.56,35.71 L15.36,33.96 L16.65,32.54 L18.32,31.58 L20.20,31.19 L47.03,31.19 L48.92,31.58 L50.59,32.53 L51.89,33.95 L52.69,35.71 L52.91,37.62 L52.91,37.62 L52.69,39.54 L51.90,41.29 L50.61,42.72 L48.93,43.68 L47.05,44.08 L20.20,44.08 L18.32,43.68 L16.65,42.72 L15.35,41.29 L14.56,39.54 L14.35,37.62 L14.35,37.62 Z" fill="#003067" stroke="#1e1e1e" stroke-width="1" stroke-linejoin="round"/><path d="M14.35,18.44 L14.56,16.52 L15.35,14.77 L16.65,13.34 L18.32,12.38 L20.20,11.98 L47.03,11.98 L48.92,12.38 L50.60,13.33 L51.90,14.76 L52.69,16.52 L52.91,18.44 L52.91,18.44 L52.69,20.36 L51.90,22.11 L50.61,23.54 L48.93,24.50 L47.05,24.90 L20.20,24.90 L18.32,24.50 L16.65,23.54 L15.35,22.11 L14.56,20.36 L14.35,18.44 L14.35,18.44 Z" fill="#003067" stroke="#1e1e1e" stroke-width="1" stroke-linejoin="round"/><ellipse cx="21.89" cy="18.44" rx="4.33" ry="4.33" fill="#50e6ff" stroke="#50e6ff" stroke-width="1"/><ellipse cx="21.89" cy="37.62" rx="4.33" ry="4.33" fill="#50e6ff" stroke="#50e6ff" stroke-width="1"/><path d="M41.02,98.12 L41.02,65.49 L41.28,64.18 L42.02,63.08 L43.13,62.34 L44.43,62.08 L90.32,62.08 L91.62,62.34 L92.73,63.08 L93.47,64.18 L93.73,65.49 L93.73,98.12 L41.02,98.12 Z" fill="#2f8ce2" stroke="#1e1e1e" stroke-width="1" stroke-linejoin="round"/><path d="M82.22,62.08 L78.23,62.08 L78.23,56.34 L77.99,55.39 L77.30,54.70 L76.35,54.45 L58.53,54.45 L57.59,54.70 L56.90,55.39 L56.65,56.34 L56.65,62.08 L52.64,62.08 L52.64,56.34 L52.92,54.52 L53.75,52.87 L55.05,51.57 L56.69,50.74 L58.51,50.47 L76.34,50.47 L78.16,50.74 L79.80,51.57 L81.10,52.87 L81.93,54.52 L82.21,56.34 L82.22,62.08 Z" fill="#333333" stroke="#1e1e1e" stroke-width="1" stroke-linejoin="round"/><path d="M93.82,74.66 L41.02,74.66 L41.02,77.20 L62.02,77.20 L62.02,80.76 L62.23,81.52 L62.79,82.08 L63.55,82.29 L71.95,82.29 L72.71,82.08 L73.27,81.52 L73.47,80.76 L73.47,77.20 L93.82,77.20 L93.82,74.66 Z" fill="#ffffff" stroke="#ffffff" stroke-width="1" stroke-linejoin="round"/></svg>