<svg xmlns="http://www.w3.org/2000/svg" viewBox="4.15 0.03 87.70 95.94"><path d="M57.78,78.85 L57.32,80.25 L56.23,81.24 L54.79,81.55 L9.13,81.55 L7.69,81.24 L6.60,80.25 L6.15,78.85 L6.15,4.73 L6.60,3.33 L7.69,2.34 L9.13,2.03 L54.79,2.03 L56.23,2.34 L57.32,3.33 L57.78,4.73 L57.78,78.85 Z" fill="#abaaab" stroke="#1e1e1e" stroke-width="1" stroke-linejoin="round"/><path d="M13.74,36.03 L13.95,34.20 L14.71,32.52 L15.95,31.16 L17.55,30.24 L19.35,29.87 L45.04,29.87 L46.85,30.24 L48.45,31.15 L49.69,32.52 L50.46,34.19 L50.67,36.03 L50.67,36.03 L50.46,37.86 L49.70,39.55 L48.46,40.91 L46.86,41.83 L45.06,42.21 L19.35,42.21 L17.54,41.83 L15.94,40.91 L14.70,39.55 L13.94,37.86 L13.74,36.03 L13.74,36.03 Z" fill="#003067" stroke="#1e1e1e" stroke-width="1" stroke-linejoin="round"/><path d="M13.74,17.66 L13.94,15.82 L14.70,14.14 L15.94,12.77 L17.54,11.86 L19.35,11.48 L45.04,11.48 L46.85,11.85 L48.46,12.77 L49.70,14.14 L50.46,15.82 L50.67,17.66 L50.67,17.66 L50.46,19.49 L49.70,21.18 L48.46,22.55 L46.86,23.46 L45.06,23.85 L19.35,23.85 L17.54,23.46 L15.94,22.55 L14.70,21.18 L13.94,19.49 L13.74,17.66 L13.74,17.66 Z" fill="#003067" stroke="#1e1e1e" stroke-width="1" stroke-linejoin="round"/><ellipse cx="20.96" cy="17.66" rx="4.15" ry="4.15" fill="#50e6ff" stroke="#50e6ff" stroke-width="1"/><ellipse cx="20.96" cy="36.03" rx="4.15" ry="4.15" fill="#50e6ff" stroke="#50e6ff" stroke-width="1"/><path d="M39.29,93.97 L39.29,62.71 L39.54,61.47 L40.24,60.41 L41.30,59.70 L42.55,59.46 L86.50,59.46 L87.74,59.70 L88.80,60.41 L89.51,61.47 L89.76,62.71 L89.76,93.97 L39.29,93.97 Z" fill="#2f8ce2" stroke="#1e1e1e" stroke-width="1" stroke-linejoin="round"/><path d="M78.74,59.46 L74.92,59.46 L74.92,53.95 L74.69,53.05 L74.03,52.38 L73.12,52.15 L56.05,52.15 L55.15,52.38 L54.49,53.05 L54.26,53.95 L54.26,59.46 L50.42,59.46 L50.42,53.95 L50.68,52.21 L51.47,50.63 L52.72,49.39 L54.29,48.59 L56.04,48.33 L73.10,48.33 L74.85,48.59 L76.42,49.39 L77.67,50.63 L78.46,52.21 L78.73,53.95 L78.74,59.46 Z" fill="#333333" stroke="#1e1e1e" stroke-width="1" stroke-linejoin="round"/><path d="M89.85,71.50 L39.29,71.50 L39.29,73.93 L59.40,73.93 L59.40,77.34 L59.59,78.07 L60.13,78.61 L60.86,78.81 L68.90,78.81 L69.63,78.61 L70.17,78.07 L70.36,77.34 L70.36,73.93 L89.85,73.93 L89.85,71.50 Z" fill="#ffffff" stroke="#ffffff" stroke-width="1" stroke-linejoin="round"/></svg>