<svg xmlns="http://www.w3.org/2000/svg" viewBox="-1.31 0.02 100.00 97.32"><path d="M96.62,58.99 L96.69,59.86 L96.67,60.73 L96.56,61.60 L96.37,62.45 L96.09,63.28 L95.74,64.08 L95.31,64.84 L94.80,65.55 L94.23,66.21 L93.60,66.82 L92.91,67.35 L92.17,67.82 L91.39,68.21 L90.58,68.53 L89.73,68.76 L88.87,68.91 L88.00,68.97 L87.13,68.95 L86.26,68.84 L85.41,68.65 L84.58,68.38 L83.78,68.02 L83.02,67.59 L82.31,67.09 L81.65,66.52 L81.04,65.89 L80.51,65.20 L80.04,64.46 L79.65,63.68 L79.33,62.86 L79.10,62.02 L78.95,61.16 L78.89,60.29 L78.91,59.42 L79.01,58.55 L79.21,57.70 L79.48,56.87 L79.83,56.07 L80.27,55.31 L80.77,54.59 L81.34,53.93 L81.97,53.33 L82.66,52.79 L83.40,52.33 L84.18,51.93 L85.00,51.62 L85.84,51.39 L86.70,51.24 L87.57,51.17 L88.44,51.19 L89.31,51.30 L90.16,51.49 L90.99,51.77 L91.79,52.12 L92.55,52.55 L93.27,53.06 L93.93,53.63 L94.53,54.26 L95.07,54.95 L95.53,55.69 L95.93,56.47 L96.24,57.28 L96.47,58.12 L96.62,58.99 Z" fill="#30ab9c" stroke="#1e1e1e" stroke-width="1" stroke-linejoin="round"/><path d="M65.14,36.44 L65.39,36.70 L65.69,36.83 L66.01,36.73 L68.47,34.72 L73.04,27.51 L73.11,27.22 L72.98,26.95 L72.30,26.24 L72.02,26.10 L71.71,26.18 L64.69,30.70 L62.69,33.21 L62.59,33.52 L62.71,33.81 L62.97,34.08 L48.29,48.71 L45.37,45.58 L42.01,48.95 L42.00,50.24 L41.72,51.48 L41.18,52.64 L40.39,53.66 L39.42,54.46 L38.31,55.00 L37.10,55.27 L35.85,55.23 L21.58,69.35 L21.31,69.98 L21.56,70.63 L28.31,77.89 L28.95,78.18 L29.61,77.93 L29.63,77.91 L43.75,63.73 L43.76,62.42 L44.06,61.17 L44.64,60.01 L45.49,59.01 L46.45,58.21 L47.57,57.67 L48.77,57.41 L50.02,57.44 L53.38,54.08 L50.46,50.97 L65.14,36.43 L65.13,36.44 L65.14,36.44 Z" fill="#9b9c9c" stroke="#1e1e1e" stroke-width="1" stroke-linejoin="round"/><path d="M72.65,66.00 L68.94,62.33 L45.32,38.79 L44.14,37.57 L44.51,35.87 L44.64,34.16 L44.54,32.47 L44.23,30.81 L43.70,29.20 L42.97,27.67 L42.03,26.24 L40.90,24.93 L39.78,23.93 L38.56,23.10 L37.25,22.42 L35.88,21.92 L34.46,21.58 L33.00,21.42 L31.52,21.44 L30.04,21.65 L29.73,21.85 L29.66,22.22 L29.80,22.47 L35.99,28.53 L36.12,28.99 L34.62,35.36 L34.28,35.71 L28.11,37.54 L27.62,37.42 L21.57,31.39 L21.23,31.25 L20.88,31.39 L20.74,31.66 L20.59,33.18 L20.62,34.68 L20.82,36.16 L21.19,37.61 L21.73,39.00 L22.43,40.32 L23.29,41.56 L24.29,42.70 L25.52,43.78 L26.86,44.66 L28.30,45.34 L29.81,45.83 L31.37,46.10 L32.96,46.17 L34.56,46.02 L36.15,45.64 L36.38,45.87 L37.71,47.19 L64.79,74.52 L65.64,75.24 L66.59,75.75 L67.60,76.07 L68.64,76.19 L69.69,76.11 L70.71,75.82 L71.68,75.34 L72.55,74.65 L72.81,74.38 L73.51,73.45 L74.02,72.42 L74.31,71.30 L74.37,70.15 L74.24,69.00 L73.90,67.90 L73.37,66.89 L72.66,65.97 L72.64,66.00 L72.65,66.00 Z" fill="#2f8ce2" stroke="#1e1e1e" stroke-width="1" stroke-linejoin="round"/><ellipse cx="48.68" cy="10.93" rx="8.90" ry="8.90" fill="#8e5ae8" stroke="#1e1e1e" stroke-width="1"/><path d="M16.09,66.14 L16.28,65.94 L16.58,65.57 L16.78,65.31 L17.03,64.95 L17.26,64.59 L17.49,64.16 L17.76,63.61 L17.87,63.32 L18.04,62.85 L18.14,62.54 L18.26,62.05 L18.33,61.74 L18.41,61.19 L18.45,60.92 L18.49,60.07 L18.31,58.28 L17.79,56.61 L16.97,55.10 L15.88,53.78 L14.56,52.69 L13.05,51.87 L11.38,51.35 L9.58,51.17 L8.56,51.24 L8.51,51.25 L7.56,51.41 L7.56,51.41 L7.56,51.41 L5.37,52.24 L3.50,53.59 L3.50,53.59 L3.50,53.59 L2.33,54.92 L2.33,54.93 L1.87,55.65 L1.84,55.69 L1.48,56.41 L1.44,56.50 L1.17,57.21 L1.11,57.36 L0.93,58.04 L0.88,58.25 L0.77,58.93 L0.74,59.15 L0.69,60.08 L0.73,60.93 L0.77,61.21 L0.85,61.76 L0.92,62.08 L1.05,62.56 L1.15,62.89 L1.31,63.32 L1.44,63.66 L1.63,64.05 L1.80,64.39 L1.91,64.56 L2.50,65.44 L2.63,65.63 L2.99,66.05 L3.13,66.20 L3.54,66.60 L3.66,66.71 L4.14,67.11 L4.17,67.13 L5.37,67.91 L6.68,68.50 L8.10,68.87 L9.60,68.99 L11.18,68.85 L12.66,68.44 L12.75,68.41 L13.34,68.16 L13.43,68.12 L14.58,67.46 L15.62,66.64 L15.75,66.52 L16.11,66.15 L16.09,66.14 Z" fill="#2f8ce2" stroke="#1e1e1e" stroke-width="1" stroke-linejoin="round"/><path d="M36.57,10.66 L36.86,8.26 L37.59,6.03 L33.99,7.10 L30.51,8.46 L27.18,10.09 L24.01,11.98 L21.01,14.11 L18.20,16.47 L15.59,19.04 L13.19,21.82 L11.02,24.79 L9.09,27.93 L7.42,31.23 L6.01,34.68 L4.89,38.27 L4.06,41.97 L3.54,45.78 L3.35,49.69 L5.36,48.72 L7.56,48.12 L7.84,44.85 L8.37,41.65 L9.14,38.54 L10.15,35.52 L11.37,32.62 L12.81,29.83 L14.44,27.17 L16.27,24.65 L18.28,22.27 L20.46,20.05 L22.80,18.01 L25.29,16.14 L27.92,14.46 L30.69,12.98 L33.57,11.70 L36.56,10.65 L36.57,10.66 Z" fill="#9b9c9c" stroke="#1e1e1e" stroke-width="1" stroke-linejoin="round"/><path d="M83.77,71.51 L80.79,75.74 L77.31,79.55 L73.39,82.91 L71.28,84.40 L69.07,85.76 L66.77,86.98 L64.39,88.05 L61.93,88.98 L59.40,89.75 L56.81,90.36 L54.15,90.80 L51.44,91.07 L48.69,91.16 L45.93,91.07 L43.22,90.80 L40.57,90.36 L37.97,89.75 L35.44,88.98 L32.99,88.05 L30.61,86.98 L28.31,85.75 L26.10,84.40 L23.98,82.91 L20.06,79.55 L16.59,75.74 L13.60,71.51 L11.65,72.02 L9.58,72.21 L9.16,72.18 L10.70,74.72 L12.40,77.14 L14.25,79.45 L16.24,81.63 L18.37,83.67 L20.62,85.58 L23.00,87.34 L25.49,88.94 L28.09,90.38 L30.79,91.65 L33.58,92.75 L36.46,93.66 L39.41,94.39 L42.44,94.91 L45.54,95.23 L48.69,95.34 L51.84,95.23 L54.93,94.91 L57.96,94.39 L60.92,93.66 L63.80,92.75 L66.59,91.65 L69.29,90.38 L71.89,88.94 L74.38,87.34 L76.75,85.58 L79.01,83.67 L81.14,81.63 L83.13,79.45 L84.97,77.14 L86.67,74.72 L88.21,72.18 L87.78,72.21 L85.72,72.02 L83.77,71.51 L83.77,71.51 Z" fill="#9b9c9c" stroke="#1e1e1e" stroke-width="1" stroke-linejoin="round"/><path d="M59.77,6.03 L60.51,8.25 L60.80,10.65 L63.79,11.70 L66.67,12.97 L69.44,14.46 L72.07,16.14 L74.56,18.00 L76.90,20.05 L79.09,22.27 L81.10,24.64 L82.93,27.17 L84.56,29.83 L86.00,32.62 L87.23,35.53 L88.23,38.54 L89.00,41.65 L89.53,44.85 L89.81,48.13 L92.01,48.72 L94.03,49.70 L93.83,45.79 L93.32,41.98 L92.49,38.28 L91.37,34.69 L89.96,31.24 L88.29,27.93 L86.36,24.79 L84.18,21.82 L81.79,19.04 L79.17,16.46 L76.36,14.10 L73.36,11.97 L70.19,10.09 L66.86,8.46 L63.38,7.10 L59.77,6.03 L59.77,6.03 Z" fill="#9b9c9c" stroke="#1e1e1e" stroke-width="1" stroke-linejoin="round"/></svg>