<svg xmlns="http://www.w3.org/2000/svg" viewBox="-2.00 -0.24 100.00 96.47"><path d="M12.45,57.69 L12.45,28.83 L12.64,27.36 L13.21,26.00 L14.10,24.84 L15.28,23.93 L40.28,9.50 L41.66,8.93 L43.11,8.74 L44.56,8.93 L45.94,9.50 L48.24,10.83 L34.57,2.52 L33.20,1.95 L31.75,1.76 L30.30,1.95 L28.93,2.52 L2.82,16.88 L1.64,17.78 L0.75,18.94 L0.19,20.29 L0.00,21.76 L0.00,50.48 L0.19,51.95 L0.75,53.30 L1.64,54.46 L2.82,55.36 L14.93,62.35 L13.89,61.44 L13.11,60.33 L12.62,59.06 L12.45,57.68 L12.45,57.69 Z" fill="#198ab3" stroke="#1e1e1e" stroke-width="1" stroke-linejoin="round"/><path d="M15.28,62.60 L24.62,67.99 L24.60,67.95 L14.93,62.36 L15.28,62.60 L15.28,62.60 Z" fill="#32bedd" stroke="#32bedd" stroke-width="1" stroke-linejoin="round"/><path d="M55.10,14.78 L48.23,10.82 L54.85,14.84 L55.10,14.78 Z" fill="#32bedd" stroke="#32bedd" stroke-width="1" stroke-linejoin="round"/><path d="M24.12,36.49 L24.38,34.55 L25.12,32.78 L26.29,31.25 L27.84,30.05 L52.83,15.62 L53.82,15.15 L54.85,14.84 L48.23,10.82 L45.94,9.49 L44.56,8.92 L43.10,8.73 L41.65,8.92 L40.27,9.49 L15.28,23.93 L14.10,24.83 L13.21,26.00 L12.64,27.35 L12.45,28.83 L12.45,57.69 L12.62,59.07 L13.11,60.34 L13.89,61.45 L14.93,62.36 L24.60,67.95 L24.24,66.68 L24.12,65.35 L24.12,36.50 L24.12,36.49 Z" fill="#32bedd" stroke="#1e1e1e" stroke-width="1" stroke-linejoin="round"/><path d="M85.26,30.05 L60.27,15.62 L59.04,15.06 L57.75,14.73 L56.42,14.64 L55.10,14.78 L53.94,15.10 L52.84,15.62 L27.85,30.05 L26.30,31.25 L25.13,32.78 L24.39,34.55 L24.13,36.49 L24.13,65.35 L24.26,66.70 L24.63,67.99 L25.18,69.13 L25.91,70.16 L26.81,71.06 L27.88,71.81 L54.09,86.22 L55.88,86.96 L57.79,87.21 L59.72,86.96 L61.55,86.20 L85.26,71.79 L86.81,70.60 L87.98,69.07 L88.72,67.29 L88.98,65.35 L88.98,36.50 L88.72,34.56 L87.98,32.78 L86.81,31.25 L85.26,30.06 L85.26,30.05 Z" fill="#9cebff" stroke="#1e1e1e" stroke-width="1" stroke-linejoin="round"/><path d="M29.61,33.12 L54.60,18.69 L55.55,18.30 L56.55,18.17 L57.55,18.30 L58.50,18.69 L73.57,27.39 L83.49,33.11 L83.58,33.21 L56.73,48.51 L28.38,34.34 L28.92,33.66 L29.61,33.11 L29.61,33.12 Z" fill="#ffffff" stroke="#1e1e1e" stroke-width="1" stroke-linejoin="round"/><path d="M45.29,77.34 L29.61,68.72 L28.80,68.10 L28.19,67.29 L27.80,66.36 L27.66,65.35 L27.66,38.73 L54.68,52.23 L54.68,82.50 L45.29,77.34 L45.29,77.34 Z" fill="#ffffff" stroke="#1e1e1e" stroke-width="1" stroke-linejoin="round"/><path d="M85.43,65.35 L85.30,66.36 L84.91,67.30 L84.28,68.10 L83.46,68.74 L59.74,83.15 L58.92,83.37 L58.92,52.16 L85.43,37.05 L85.43,65.35 Z" fill="#ffffff" stroke="#1e1e1e" stroke-width="1" stroke-linejoin="round"/><path d="M56.55,43.44 L55.08,43.59 L53.72,44.01 L52.48,44.68 L51.40,45.57 L50.51,46.65 L49.84,47.89 L49.42,49.25 L49.27,50.72 L49.42,52.19 L49.84,53.55 L50.51,54.79 L51.40,55.87 L52.48,56.76 L53.72,57.43 L55.08,57.85 L56.55,58.00 L58.02,57.85 L59.38,57.43 L60.62,56.76 L61.70,55.87 L62.59,54.79 L63.26,53.55 L63.68,52.19 L63.83,50.72 L63.68,49.25 L63.26,47.89 L62.59,46.65 L61.70,45.57 L60.62,44.68 L59.38,44.01 L58.02,43.59 L56.55,43.44 Z" fill="#2aaed0" stroke="#2aaed0" stroke-width="1" stroke-linejoin="round"/><path d="M56.55,23.88 L57.89,23.74 L59.15,23.35 L60.28,22.74 L61.27,21.92 L62.08,20.94 L62.70,19.80 L63.09,18.55 L63.22,17.21 L63.09,15.86 L62.70,14.61 L62.08,13.47 L61.27,12.49 L60.28,11.67 L59.15,11.06 L57.89,10.67 L56.55,10.53 L55.20,10.67 L53.95,11.06 L52.82,11.67 L51.83,12.49 L51.02,13.47 L50.40,14.61 L50.01,15.86 L49.88,17.21 L50.01,18.55 L50.40,19.80 L51.02,20.94 L51.83,21.92 L52.82,22.74 L53.95,23.35 L55.20,23.74 L56.55,23.88 Z" fill="#2aaed0" stroke="#2aaed0" stroke-width="1" stroke-linejoin="round"/><path d="M25.89,62.37 L24.55,62.50 L23.30,62.89 L22.16,63.51 L21.18,64.32 L20.36,65.31 L19.75,66.44 L19.36,67.70 L19.22,69.04 L19.36,70.38 L19.75,71.64 L20.36,72.77 L21.18,73.76 L22.16,74.57 L23.30,75.19 L24.55,75.58 L25.89,75.71 L27.24,75.58 L28.49,75.19 L29.62,74.57 L30.61,73.76 L31.43,72.77 L32.04,71.64 L32.43,70.38 L32.57,69.04 L32.43,67.70 L32.04,66.44 L31.43,65.31 L30.61,64.32 L29.62,63.51 L28.49,62.89 L27.24,62.50 L25.89,62.37 L25.89,62.37 Z" fill="#2aaed0" stroke="#2aaed0" stroke-width="1" stroke-linejoin="round"/><path d="M87.21,40.26 L88.55,40.13 L89.80,39.74 L90.94,39.12 L91.92,38.31 L92.74,37.32 L93.35,36.19 L93.74,34.93 L93.88,33.59 L93.74,32.24 L93.35,30.99 L92.74,29.86 L91.92,28.87 L90.94,28.06 L89.80,27.44 L88.55,27.05 L87.21,26.92 L85.86,27.05 L84.61,27.44 L83.47,28.06 L82.49,28.87 L81.67,29.86 L81.06,30.99 L80.67,32.24 L80.53,33.59 L80.67,34.93 L81.06,36.19 L81.67,37.32 L82.49,38.31 L83.47,39.12 L84.61,39.74 L85.86,40.13 L87.21,40.26 Z" fill="#2aaed0" stroke="#2aaed0" stroke-width="1" stroke-linejoin="round"/><path d="M87.21,61.89 L85.86,62.02 L84.61,62.41 L83.47,63.03 L82.49,63.84 L81.67,64.83 L81.06,65.96 L80.67,67.22 L80.53,68.56 L80.67,69.90 L81.06,71.16 L81.67,72.29 L82.49,73.28 L83.47,74.09 L84.61,74.71 L85.86,75.10 L87.21,75.23 L88.55,75.10 L89.80,74.71 L90.94,74.09 L91.92,73.28 L92.74,72.29 L93.35,71.16 L93.74,69.90 L93.88,68.56 L93.74,67.22 L93.35,65.96 L92.74,64.83 L91.92,63.84 L90.94,63.03 L89.80,62.41 L88.55,62.02 L87.21,61.89 Z" fill="#2aaed0" stroke="#2aaed0" stroke-width="1" stroke-linejoin="round"/><path d="M56.55,78.77 L55.20,78.91 L53.95,79.30 L52.82,79.91 L51.83,80.73 L51.02,81.71 L50.40,82.85 L50.01,84.10 L49.88,85.45 L50.01,86.79 L50.40,88.04 L51.02,89.18 L51.83,90.16 L52.82,90.98 L53.95,91.59 L55.20,91.98 L56.55,92.12 L57.89,91.98 L59.15,91.59 L60.28,90.98 L61.27,90.16 L62.08,89.18 L62.70,88.04 L63.09,86.79 L63.22,85.45 L63.09,84.10 L62.70,82.85 L62.08,81.71 L61.27,80.73 L60.28,79.91 L59.15,79.30 L57.89,78.91 L56.55,78.77 L56.55,78.77 Z" fill="#2aaed0" stroke="#2aaed0" stroke-width="1" stroke-linejoin="round"/><path d="M25.89,28.20 L24.55,28.34 L23.30,28.73 L22.16,29.34 L21.18,30.16 L20.36,31.14 L19.75,32.28 L19.36,33.53 L19.22,34.87 L19.36,36.22 L19.75,37.47 L20.36,38.61 L21.18,39.59 L22.16,40.41 L23.30,41.02 L24.55,41.41 L25.89,41.55 L27.24,41.41 L28.49,41.02 L29.62,40.41 L30.61,39.59 L31.43,38.61 L32.04,37.47 L32.43,36.22 L32.57,34.87 L32.43,33.53 L32.04,32.28 L31.43,31.14 L30.61,30.16 L29.62,29.34 L28.49,28.73 L27.24,28.34 L25.89,28.20 Z" fill="#2aaed0" stroke="#2aaed0" stroke-width="1" stroke-linejoin="round"/><path d="M56.55,8.41 L54.78,8.59 L53.13,9.10 L51.64,9.92 L50.33,10.99 L49.26,12.29 L48.45,13.79 L47.93,15.44 L47.75,17.21 L47.93,18.98 L48.45,20.62 L49.26,22.12 L50.33,23.42 L51.64,24.50 L53.13,25.31 L54.78,25.82 L56.55,26.00 L58.32,25.82 L59.97,25.31 L61.46,24.50 L62.76,23.42 L63.84,22.12 L64.65,20.62 L65.16,18.98 L65.34,17.21 L65.16,15.44 L64.65,13.79 L63.84,12.29 L62.76,10.99 L61.46,9.92 L59.97,9.10 L58.32,8.59 L56.55,8.41 L56.55,8.41 Z" fill="#ffffff" stroke="#ffffff" stroke-width="1" stroke-linejoin="round"/><path d="M56.55,23.88 L55.20,23.74 L53.95,23.35 L52.82,22.74 L51.83,21.92 L51.02,20.94 L50.40,19.80 L50.01,18.55 L49.88,17.21 L50.01,15.86 L50.40,14.61 L51.02,13.47 L51.83,12.49 L52.82,11.67 L53.95,11.06 L55.20,10.67 L56.55,10.53 L57.89,10.67 L59.15,11.06 L60.28,11.67 L61.27,12.49 L62.08,13.47 L62.70,14.61 L63.09,15.86 L63.22,17.21 L63.09,18.55 L62.70,19.80 L62.08,20.94 L61.27,21.92 L60.28,22.74 L59.15,23.35 L57.89,23.74 L56.55,23.88 Z" fill="#2aaed0" stroke="#2aaed0" stroke-width="1" stroke-linejoin="round"/><path d="M25.89,60.24 L24.12,60.42 L22.47,60.93 L20.98,61.74 L19.68,62.82 L18.60,64.12 L17.79,65.62 L17.28,67.26 L17.10,69.03 L17.28,70.80 L17.79,72.45 L18.60,73.95 L19.68,75.25 L20.98,76.32 L22.47,77.14 L24.12,77.65 L25.89,77.83 L27.66,77.65 L29.31,77.14 L30.81,76.32 L32.11,75.25 L33.18,73.95 L34.00,72.45 L34.51,70.80 L34.69,69.03 L34.51,67.26 L34.00,65.62 L33.18,64.12 L32.11,62.82 L30.81,61.74 L29.31,60.93 L27.66,60.42 L25.89,60.24 L25.89,60.24 Z" fill="#ffffff" stroke="#ffffff" stroke-width="1" stroke-linejoin="round"/><path d="M25.89,75.71 L24.55,75.57 L23.30,75.18 L22.16,74.57 L21.18,73.75 L20.36,72.77 L19.75,71.63 L19.36,70.38 L19.22,69.03 L19.36,67.69 L19.75,66.44 L20.36,65.30 L21.18,64.32 L22.16,63.50 L23.30,62.89 L24.55,62.50 L25.89,62.36 L27.24,62.50 L28.49,62.89 L29.62,63.50 L30.61,64.32 L31.43,65.30 L32.04,66.44 L32.43,67.69 L32.57,69.03 L32.43,70.38 L32.04,71.63 L31.43,72.77 L30.61,73.75 L29.62,74.57 L28.49,75.18 L27.24,75.57 L25.89,75.71 L25.89,75.71 Z" fill="#2aaed0" stroke="#2aaed0" stroke-width="1" stroke-linejoin="round"/><path d="M87.21,59.75 L85.44,59.93 L83.79,60.45 L82.29,61.26 L80.99,62.33 L79.92,63.64 L79.10,65.13 L78.59,66.78 L78.41,68.55 L78.59,70.32 L79.10,71.97 L79.92,73.46 L80.99,74.76 L82.29,75.84 L83.79,76.65 L85.44,77.16 L87.21,77.34 L88.98,77.16 L90.62,76.65 L92.12,75.84 L93.42,74.76 L94.50,73.46 L95.31,71.97 L95.82,70.32 L96.00,68.55 L95.82,66.78 L95.31,65.13 L94.50,63.64 L93.42,62.33 L92.12,61.26 L90.62,60.45 L88.98,59.93 L87.21,59.75 Z" fill="#ffffff" stroke="#ffffff" stroke-width="1" stroke-linejoin="round"/><path d="M87.21,75.22 L85.86,75.09 L84.61,74.70 L83.47,74.08 L82.49,73.27 L81.67,72.28 L81.06,71.15 L80.67,69.89 L80.53,68.55 L80.67,67.20 L81.06,65.95 L81.67,64.82 L82.49,63.83 L83.47,63.02 L84.61,62.40 L85.86,62.01 L87.21,61.88 L88.55,62.01 L89.80,62.40 L90.94,63.02 L91.92,63.83 L92.74,64.82 L93.35,65.95 L93.74,67.20 L93.88,68.55 L93.74,69.89 L93.35,71.15 L92.74,72.28 L91.92,73.27 L90.94,74.08 L89.80,74.70 L88.55,75.09 L87.21,75.22 Z" fill="#2aaed0" stroke="#2aaed0" stroke-width="1" stroke-linejoin="round"/><path d="M25.89,26.08 L24.12,26.26 L22.47,26.77 L20.98,27.58 L19.68,28.66 L18.60,29.96 L17.79,31.46 L17.28,33.10 L17.10,34.87 L17.28,36.64 L17.79,38.29 L18.60,39.79 L19.68,41.09 L20.98,42.16 L22.47,42.98 L24.12,43.49 L25.89,43.67 L27.66,43.49 L29.31,42.98 L30.81,42.16 L32.11,41.09 L33.18,39.79 L34.00,38.29 L34.51,36.64 L34.69,34.87 L34.51,33.10 L34.00,31.46 L33.18,29.96 L32.11,28.66 L30.81,27.58 L29.31,26.77 L27.66,26.26 L25.89,26.08 L25.89,26.08 Z" fill="#ffffff" stroke="#ffffff" stroke-width="1" stroke-linejoin="round"/><path d="M25.89,41.55 L24.55,41.41 L23.30,41.02 L22.16,40.41 L21.18,39.59 L20.36,38.61 L19.75,37.47 L19.36,36.22 L19.22,34.87 L19.36,33.53 L19.75,32.28 L20.36,31.14 L21.18,30.16 L22.16,29.34 L23.30,28.73 L24.55,28.34 L25.89,28.20 L27.24,28.34 L28.49,28.73 L29.62,29.34 L30.61,30.16 L31.43,31.14 L32.04,32.28 L32.43,33.53 L32.57,34.87 L32.43,36.22 L32.04,37.47 L31.43,38.61 L30.61,39.59 L29.62,40.41 L28.49,41.02 L27.24,41.41 L25.89,41.55 Z" fill="#2aaed0" stroke="#2aaed0" stroke-width="1" stroke-linejoin="round"/><path d="M56.55,76.65 L54.78,76.82 L53.13,77.34 L51.64,78.15 L50.33,79.22 L49.26,80.53 L48.45,82.02 L47.93,83.67 L47.75,85.44 L47.93,87.21 L48.45,88.86 L49.26,90.35 L50.33,91.66 L51.64,92.73 L53.13,93.54 L54.78,94.06 L56.55,94.23 L58.32,94.06 L59.97,93.54 L61.46,92.73 L62.76,91.66 L63.84,90.35 L64.65,88.86 L65.16,87.21 L65.34,85.44 L65.16,83.67 L64.65,82.02 L63.84,80.53 L62.76,79.22 L61.46,78.15 L59.97,77.34 L58.32,76.82 L56.55,76.65 Z" fill="#ffffff" stroke="#ffffff" stroke-width="1" stroke-linejoin="round"/><path d="M56.55,92.11 L55.20,91.98 L53.95,91.59 L52.82,90.97 L51.83,90.16 L51.02,89.17 L50.40,88.04 L50.01,86.78 L49.88,85.44 L50.01,84.10 L50.40,82.84 L51.02,81.71 L51.83,80.72 L52.82,79.91 L53.95,79.29 L55.20,78.90 L56.55,78.77 L57.89,78.90 L59.15,79.29 L60.28,79.91 L61.27,80.72 L62.08,81.71 L62.70,82.84 L63.09,84.10 L63.22,85.44 L63.09,86.78 L62.70,88.04 L62.08,89.17 L61.27,90.16 L60.28,90.97 L59.15,91.59 L57.89,91.98 L56.55,92.11 Z" fill="#2aaed0" stroke="#2aaed0" stroke-width="1" stroke-linejoin="round"/><path d="M87.21,42.38 L88.98,42.20 L90.62,41.69 L92.12,40.88 L93.42,39.80 L94.50,38.50 L95.31,37.01 L95.82,35.36 L96.00,33.59 L95.82,31.82 L95.31,30.17 L94.50,28.68 L93.42,27.37 L92.12,26.30 L90.62,25.49 L88.98,24.97 L87.21,24.79 L85.44,24.97 L83.79,25.49 L82.29,26.30 L80.99,27.37 L79.92,28.68 L79.10,30.17 L78.59,31.82 L78.41,33.59 L78.59,35.36 L79.10,37.01 L79.92,38.50 L80.99,39.80 L82.29,40.88 L83.79,41.69 L85.44,42.20 L87.21,42.38 Z" fill="#ffffff" stroke="#ffffff" stroke-width="1" stroke-linejoin="round"/><path d="M87.21,26.92 L88.55,27.05 L89.80,27.44 L90.94,28.06 L91.92,28.87 L92.74,29.86 L93.35,30.99 L93.74,32.24 L93.88,33.59 L93.74,34.93 L93.35,36.19 L92.74,37.32 L91.92,38.31 L90.94,39.12 L89.80,39.74 L88.55,40.13 L87.21,40.26 L85.86,40.13 L84.61,39.74 L83.47,39.12 L82.49,38.31 L81.67,37.32 L81.06,36.19 L80.67,34.93 L80.53,33.59 L80.67,32.24 L81.06,30.99 L81.67,29.86 L82.49,28.87 L83.47,28.06 L84.61,27.44 L85.86,27.05 L87.21,26.92 Z" fill="#2aaed0" stroke="#2aaed0" stroke-width="1" stroke-linejoin="round"/></svg>