<svg xmlns="http://www.w3.org/2000/svg" viewBox="-2.00 -2.00 99.99 100.00"><path d="M23.50,78.18 L23.50,69.26 L23.66,67.93 L24.13,66.68 L24.89,65.51 L25.92,64.43 L27.20,63.43 L28.70,62.51 L32.31,60.93 L36.56,59.70 L41.31,58.81 L46.37,58.28 L51.58,58.10 L58.35,58.41 L61.62,58.79 L64.77,59.31 L64.77,27.75 L64.48,26.54 L63.68,25.59 L43.29,25.59 L42.36,25.49 L41.50,25.22 L40.73,24.79 L40.05,24.22 L39.49,23.53 L39.07,22.75 L38.81,21.88 L38.73,20.95 L38.73,0.64 L37.91,0.17 L36.99,0.00 L2.69,0.00 L1.64,0.21 L0.79,0.79 L0.21,1.65 L0.00,2.70 L0.00,76.79 L0.00,76.79 L0.21,77.85 L0.79,78.70 L1.65,79.28 L2.69,79.49 L23.50,79.49 L23.50,78.18 L23.50,78.18 Z" fill="#2f8ce2" stroke="#1e1e1e" stroke-width="1" stroke-linejoin="round"/><path d="M63.75,25.59 L43.30,25.59 L42.37,25.49 L41.51,25.22 L40.73,24.79 L40.06,24.22 L39.50,23.53 L39.08,22.75 L38.82,21.88 L38.73,20.95 L38.73,0.59 L63.75,25.59 L63.75,25.59 Z" fill="#0078d4" stroke="#1e1e1e" stroke-width="1" stroke-linejoin="round"/><path d="M52.77,45.38 L52.29,44.91 L51.70,44.66 L51.10,44.91 L46.29,49.69 L44.32,47.71 L43.72,47.46 L43.13,47.71 L42.63,48.21 L42.38,48.81 L42.63,49.41 L45.69,52.49 L46.28,52.74 L46.88,52.50 L46.89,52.49 L52.77,46.59 L53.02,45.99 L52.77,45.40 L52.77,45.40 L52.77,45.39 L52.77,45.38 Z" fill="#c3f1ff" stroke="#c3f1ff" stroke-width="1" stroke-linejoin="round"/><path d="M35.48,46.86 L36.01,46.93 L36.50,47.13 L36.93,47.46 L37.26,47.89 L37.46,48.38 L37.53,48.91 L37.53,48.92 L37.46,49.45 L37.26,49.95 L36.93,50.37 L36.50,50.70 L36.01,50.91 L35.48,50.98 L14.74,50.98 L14.20,50.91 L13.71,50.70 L13.28,50.37 L12.96,49.95 L12.75,49.45 L12.68,48.92 L12.68,48.91 L12.75,48.38 L12.96,47.89 L13.28,47.46 L13.71,47.13 L14.20,46.93 L14.74,46.86 L35.48,46.86 Z" fill="#c3f1ff" stroke="#c3f1ff" stroke-width="1" stroke-linejoin="round"/><path d="M52.77,30.81 L52.29,30.34 L51.70,30.08 L51.10,30.33 L51.09,30.34 L46.28,35.11 L44.31,33.14 L43.72,32.89 L43.12,33.14 L42.62,33.64 L42.38,34.24 L42.62,34.84 L45.69,37.91 L46.28,38.17 L46.87,37.93 L46.89,37.91 L52.77,32.02 L53.02,31.42 L52.77,30.83 L52.77,30.83 L52.77,30.82 L52.77,30.81 Z" fill="#c3f1ff" stroke="#c3f1ff" stroke-width="1" stroke-linejoin="round"/><path d="M35.48,32.29 L36.01,32.36 L36.50,32.56 L36.93,32.89 L37.26,33.31 L37.46,33.81 L37.53,34.34 L37.53,34.35 L37.46,34.88 L37.26,35.38 L36.93,35.80 L36.50,36.13 L36.01,36.34 L35.48,36.41 L14.74,36.41 L14.20,36.34 L13.71,36.13 L13.28,35.80 L12.96,35.38 L12.75,34.88 L12.68,34.35 L12.68,34.34 L12.75,33.81 L12.96,33.31 L13.28,32.89 L13.71,32.56 L14.20,32.36 L14.74,32.29 L35.48,32.29 Z" fill="#c3f1ff" stroke="#c3f1ff" stroke-width="1" stroke-linejoin="round"/><path d="M51.58,60.36 L46.37,60.54 L41.52,61.06 L37.13,61.88 L33.31,62.97 L30.16,64.29 L27.77,65.80 L26.91,66.62 L26.27,67.47 L25.88,68.36 L25.74,69.27 L25.88,70.20 L26.29,71.10 L26.95,71.97 L27.85,72.80 L30.32,74.33 L33.58,75.66 L37.37,76.71 L41.70,77.51 L46.47,78.01 L51.58,78.18 L55.55,78.08 L59.33,77.77 L64.84,76.92 L69.57,75.66 L72.84,74.33 L75.31,72.80 L76.21,71.97 L76.87,71.10 L77.27,70.20 L77.41,69.27 L77.28,68.36 L76.89,67.47 L76.25,66.62 L75.38,65.80 L73.00,64.29 L69.85,62.97 L66.02,61.88 L61.63,61.06 L56.78,60.54 L51.58,60.36 Z" fill="#41d2ee" stroke="#41d2ee" stroke-width="1" stroke-linejoin="round"/><path d="M65.02,69.41 L65.02,69.41 L61.55,70.51 L57.51,71.26 L54.59,71.55 L51.58,71.64 L47.85,71.49 L44.29,71.06 L41.01,70.36 L38.14,69.41 L37.76,69.09 L37.63,68.64 L37.76,68.19 L38.15,67.88 L40.66,67.04 L43.75,66.33 L47.41,65.84 L51.58,65.65 L55.76,65.84 L59.41,66.33 L62.51,67.04 L65.01,67.88 L65.40,68.20 L65.54,68.65 L65.41,69.10 L65.02,69.41 L65.02,69.41 Z" fill="#ffffff" stroke="#ffffff" stroke-width="1" stroke-linejoin="round"/><path d="M69.57,75.66 L64.84,76.91 L59.33,77.77 L55.55,78.07 L51.58,78.18 L77.41,78.18 L77.41,69.26 L77.27,70.19 L76.87,71.09 L76.21,71.96 L75.31,72.79 L72.84,74.33 L69.57,75.66 Z" fill="#198ab3" stroke="#198ab3" stroke-width="1" stroke-linejoin="round"/><path d="M94.82,78.18 L51.58,78.18 L46.47,78.00 L41.70,77.50 L37.37,76.71 L33.58,75.66 L30.32,74.33 L27.85,72.80 L26.95,71.96 L26.29,71.09 L25.88,70.19 L25.74,69.26 L25.74,87.09 L25.88,88.02 L26.29,88.92 L26.95,89.79 L27.85,90.62 L30.32,92.15 L33.58,93.48 L37.37,94.53 L41.70,95.33 L46.47,95.83 L51.58,96.00 L94.81,96.00 L95.27,95.91 L95.65,95.65 L95.90,95.27 L95.99,94.81 L95.99,79.37 L95.90,78.90 L95.65,78.52 L95.27,78.27 L94.81,78.18 L94.82,78.18 Z" fill="#76e8ff" stroke="#1e1e1e" stroke-width="1" stroke-linejoin="round"/><path d="M58.25,95.96 L58.25,90.29 L57.99,89.66 L57.36,89.40 L56.73,89.66 L56.47,90.29 L56.47,96.00 L58.25,96.00 L58.25,95.96 L58.25,95.96 Z" fill="#32bedd" stroke="#32bedd" stroke-width="1" stroke-linejoin="round"/><path d="M66.25,95.96 L66.25,85.00 L65.98,84.37 L65.35,84.11 L64.73,84.37 L64.46,85.00 L64.46,95.99 L66.24,95.99 L66.24,95.96 L66.25,95.96 Z" fill="#32bedd" stroke="#32bedd" stroke-width="1" stroke-linejoin="round"/><path d="M81.34,84.12 L80.71,84.38 L80.45,85.01 L80.45,96.00 L82.22,96.00 L82.22,85.01 L81.97,84.38 L81.34,84.12 Z" fill="#32bedd" stroke="#32bedd" stroke-width="1" stroke-linejoin="round"/><path d="M89.33,89.40 L88.70,89.66 L88.44,90.29 L88.44,96.00 L90.21,96.00 L90.21,90.29 L89.95,89.66 L89.33,89.40 L89.33,89.40 Z" fill="#32bedd" stroke="#32bedd" stroke-width="1" stroke-linejoin="round"/><path d="M74.23,95.96 L74.23,90.29 L73.97,89.66 L73.34,89.40 L72.71,89.66 L72.45,90.29 L72.45,96.00 L74.23,96.00 L74.23,95.96 L74.23,95.96 Z" fill="#32bedd" stroke="#32bedd" stroke-width="1" stroke-linejoin="round"/><path d="M49.37,84.12 L48.74,84.38 L48.48,85.01 L48.48,95.94 L50.26,95.99 L50.26,85.01 L50.00,84.38 L49.37,84.12 Z" fill="#32bedd" stroke="#32bedd" stroke-width="1" stroke-linejoin="round"/><path d="M41.38,89.40 L40.75,89.66 L40.49,90.29 L40.49,95.14 L42.27,95.40 L42.27,90.29 L42.01,89.66 L41.38,89.40 Z" fill="#32bedd" stroke="#32bedd" stroke-width="1" stroke-linejoin="round"/><path d="M33.58,93.48 L34.28,93.70 L34.28,85.00 L34.02,84.37 L33.39,84.11 L32.76,84.37 L32.50,85.00 L32.50,93.09 L33.58,93.48 Z" fill="#32bedd" stroke="#32bedd" stroke-width="1" stroke-linejoin="round"/></svg>