<svg xmlns="http://www.w3.org/2000/svg" viewBox="0.67 -1.07 94.67 98.14"><ellipse cx="48.00" cy="49.74" rx="45.33" ry="45.33" fill="#2abce0" stroke="#1e1e1e" stroke-width="1"/><path d="M46.99,80.36 L44.55,78.78 L41.34,76.51 L37.70,73.61 L33.97,70.16 L30.48,66.23 L28.94,64.11 L27.58,61.90 L26.45,59.61 L25.59,57.24 L25.04,54.81 L24.85,52.33 L24.85,35.23 L26.67,35.11 L29.99,34.87 L33.24,34.11 L36.34,32.87 L39.20,31.16 L41.90,29.60 L44.89,28.71 L48.00,28.55 L51.11,28.72 L54.09,29.60 L56.79,31.15 L59.66,32.86 L62.75,34.11 L66.00,34.87 L69.33,35.11 L71.15,35.23 L71.15,52.33 L70.96,54.81 L70.41,57.24 L69.55,59.61 L68.42,61.90 L67.06,64.11 L65.51,66.23 L62.02,70.16 L58.29,73.61 L54.65,76.51 L51.45,78.78 L49.00,80.36 L48.00,80.98 L46.99,80.36 Z" fill="#ffffff" stroke="#1e1e1e" stroke-width="1" stroke-linejoin="round"/><path d="M48.00,78.10 L44.22,75.59 L40.52,72.78 L37.03,69.71 L33.88,66.45 L31.20,63.03 L29.12,59.50 L28.35,57.71 L27.78,55.92 L27.42,54.12 L27.30,52.33 L27.30,37.53 L30.82,37.21 L34.26,36.36 L37.53,35.02 L40.56,33.20 L42.83,31.86 L45.36,31.11 L48.00,31.00 L50.63,31.13 L53.16,31.87 L55.43,33.19 L58.47,35.01 L61.74,36.36 L65.18,37.20 L68.70,37.53 L68.70,52.33 L68.58,54.12 L68.22,55.92 L67.65,57.71 L66.88,59.50 L64.80,63.03 L62.12,66.45 L58.97,69.71 L55.48,72.78 L51.78,75.59 L48.00,78.10 Z" fill="#50e6ff" stroke="#1e1e1e" stroke-width="1" stroke-linejoin="round"/><ellipse cx="81.84" cy="75.11" rx="6.94" ry="6.94" fill="#ffffff" stroke="#ffffff" stroke-width="1"/><path d="M81.84,64.69 L78.99,65.09 L76.35,66.26 L74.14,68.10 L72.51,70.47 L71.60,73.20 L71.47,76.08 L72.13,78.88 L73.53,81.40 L75.57,83.43 L78.09,84.83 L80.89,85.49 L83.77,85.36 L86.50,84.44 L88.87,82.81 L90.71,80.60 L91.87,77.96 L92.27,75.11 L91.91,72.42 L90.87,69.90 L89.21,67.75 L87.06,66.09 L84.54,65.05 L81.85,64.69 L81.84,64.69 Z" fill="#b3b3b3" stroke="#b3b3b3" stroke-width="1" stroke-linejoin="round"/><path d="M81.84,68.17 L84.13,68.55 L86.16,69.68 L87.71,71.41 L88.60,73.56 L88.73,75.87 L88.09,78.11 L86.74,80.00 L84.85,81.35 L82.62,81.99 L80.30,81.86 L78.15,80.97 L76.42,79.42 L75.30,77.39 L74.91,75.10 L75.25,72.96 L76.23,71.02 L77.76,69.49 L79.70,68.50 L81.84,68.17 Z" fill="#ffffff" stroke="#ffffff" stroke-width="1" stroke-linejoin="round"/><ellipse cx="14.16" cy="75.11" rx="6.94" ry="6.94" fill="#ffffff" stroke="#ffffff" stroke-width="1"/><path d="M14.16,64.69 L11.31,65.09 L8.67,66.25 L6.46,68.09 L4.83,70.47 L3.91,73.20 L3.78,76.07 L4.44,78.88 L5.84,81.39 L7.87,83.43 L10.39,84.83 L13.19,85.49 L16.07,85.36 L18.80,84.44 L21.18,82.81 L23.02,80.60 L24.18,77.96 L24.58,75.11 L24.22,72.41 L23.18,69.90 L21.52,67.75 L19.37,66.09 L16.85,65.05 L14.16,64.69 L14.16,64.69 Z" fill="#b3b3b3" stroke="#b3b3b3" stroke-width="1" stroke-linejoin="round"/><path d="M14.16,68.17 L16.45,68.55 L18.48,69.68 L20.03,71.41 L20.92,73.56 L21.05,75.87 L20.41,78.11 L19.06,80.00 L17.17,81.35 L14.94,81.99 L12.62,81.86 L10.47,80.97 L8.74,79.42 L7.62,77.39 L7.23,75.10 L7.57,72.96 L8.55,71.02 L10.08,69.49 L12.02,68.50 L14.16,68.17 Z" fill="#ffffff" stroke="#ffffff" stroke-width="1" stroke-linejoin="round"/><ellipse cx="48.00" cy="11.35" rx="6.94" ry="6.94" fill="#ffffff" stroke="#ffffff" stroke-width="1"/><path d="M48.00,0.93 L45.15,1.32 L42.51,2.49 L40.30,4.33 L38.67,6.70 L37.75,9.43 L37.62,12.31 L38.28,15.11 L39.68,17.63 L41.71,19.66 L44.23,21.07 L47.03,21.73 L49.91,21.59 L52.64,20.68 L55.01,19.05 L56.85,16.84 L58.02,14.20 L58.42,11.35 L58.06,8.65 L57.02,6.14 L55.36,3.99 L53.21,2.33 L50.70,1.29 L48.00,0.93 L48.00,0.93 Z" fill="#b3b3b3" stroke="#b3b3b3" stroke-width="1" stroke-linejoin="round"/><path d="M48.00,4.41 L50.29,4.79 L52.32,5.92 L53.87,7.65 L54.76,9.80 L54.89,12.11 L54.25,14.35 L52.90,16.24 L51.01,17.59 L48.78,18.23 L46.46,18.10 L44.31,17.21 L42.58,15.66 L41.46,13.63 L41.07,11.34 L41.41,9.20 L42.39,7.26 L43.92,5.73 L45.86,4.74 L48.00,4.41" fill="none" stroke="#ffffff" stroke-width="1" stroke-linejoin="round"/></svg>