<svg xmlns="http://www.w3.org/2000/svg" viewBox="0.72 -1.05 96.45 100.00"><ellipse cx="48.95" cy="50.72" rx="46.23" ry="46.23" fill="#2abce0" stroke="#1e1e1e" stroke-width="1"/><path d="M47.91,81.94 L45.42,80.34 L42.15,78.02 L38.44,75.06 L34.64,71.54 L31.09,67.54 L29.51,65.38 L28.12,63.12 L26.97,60.79 L26.09,58.37 L25.53,55.90 L25.34,53.36 L25.34,35.92 L27.19,35.81 L30.58,35.56 L33.90,34.79 L37.05,33.51 L39.97,31.77 L42.72,30.18 L45.77,29.28 L48.95,29.11 L52.11,29.28 L55.16,30.18 L57.91,31.76 L60.83,33.51 L63.99,34.78 L67.30,35.55 L70.70,35.81 L72.55,35.92 L72.55,53.36 L72.35,55.90 L71.80,58.37 L70.92,60.79 L69.77,63.12 L68.38,65.38 L66.80,67.54 L63.25,71.55 L59.44,75.06 L55.73,78.02 L52.46,80.34 L49.97,81.94 L48.95,82.57 L47.91,81.94 Z" fill="#ffffff" stroke="#1e1e1e" stroke-width="1" stroke-linejoin="round" opacity="0.85"/><path d="M48.95,79.64 L45.09,77.08 L41.32,74.21 L37.76,71.09 L34.55,67.76 L31.81,64.27 L29.70,60.67 L28.91,58.85 L28.33,57.02 L27.96,55.19 L27.84,53.36 L27.84,38.27 L31.43,37.94 L34.93,37.08 L38.27,35.71 L41.36,33.85 L43.68,32.49 L46.26,31.73 L48.95,31.61 L51.63,31.74 L54.20,32.50 L56.53,33.85 L59.62,35.70 L62.96,37.07 L66.46,37.94 L70.05,38.27 L70.05,53.36 L69.93,55.19 L69.57,57.02 L68.98,58.85 L68.20,60.67 L66.08,64.27 L63.35,67.76 L60.13,71.09 L56.57,74.21 L52.80,77.08 L48.95,79.64 Z" fill="#50e6ff" stroke="#1e1e1e" stroke-width="1" stroke-linejoin="round"/><ellipse cx="83.45" cy="76.59" rx="7.08" ry="7.08" fill="#ffffff" stroke="#ffffff" stroke-width="1"/><path d="M83.45,65.97 L80.55,66.38 L77.86,67.56 L75.60,69.44 L73.94,71.86 L73.01,74.65 L72.88,77.58 L73.55,80.44 L74.98,83.00 L77.06,85.08 L79.63,86.51 L82.48,87.18 L85.42,87.04 L88.20,86.11 L90.62,84.45 L92.50,82.19 L93.68,79.50 L94.09,76.59 L93.72,73.84 L92.66,71.28 L90.97,69.08 L88.77,67.40 L86.21,66.33 L83.46,65.97 L83.45,65.97 Z" fill="#b3b3b3" stroke="#b3b3b3" stroke-width="1" stroke-linejoin="round"/><path d="M83.45,69.51 L85.79,69.91 L87.86,71.05 L89.44,72.82 L90.35,75.01 L90.48,77.37 L89.82,79.65 L88.45,81.58 L86.52,82.95 L84.25,83.60 L81.88,83.47 L79.69,82.57 L77.93,80.99 L76.78,78.91 L76.38,76.58 L76.73,74.39 L77.73,72.42 L79.30,70.86 L81.27,69.86 L83.45,69.51 Z" fill="#ffffff" stroke="#ffffff" stroke-width="1" stroke-linejoin="round"/><ellipse cx="14.44" cy="76.59" rx="7.08" ry="7.08" fill="#ffffff" stroke="#ffffff" stroke-width="1"/><path d="M14.44,65.97 L11.53,66.37 L8.84,67.56 L6.58,69.43 L4.92,71.86 L3.99,74.64 L3.85,77.57 L4.52,80.43 L5.95,83.00 L8.03,85.08 L10.60,86.51 L13.45,87.18 L16.39,87.04 L19.17,86.11 L21.60,84.45 L23.47,82.19 L24.66,79.50 L25.06,76.59 L24.70,73.84 L23.63,71.28 L21.95,69.08 L19.75,67.39 L17.19,66.33 L14.44,65.97 L14.44,65.97 Z" fill="#b3b3b3" stroke="#b3b3b3" stroke-width="1" stroke-linejoin="round"/><path d="M14.44,69.51 L16.77,69.91 L18.85,71.05 L20.43,72.82 L21.33,75.01 L21.46,77.37 L20.81,79.65 L19.44,81.58 L17.51,82.95 L15.23,83.60 L12.87,83.47 L10.68,82.57 L8.91,80.99 L7.77,78.91 L7.37,76.58 L7.72,74.39 L8.72,72.42 L10.28,70.86 L12.25,69.86 L14.44,69.51 Z" fill="#ffffff" stroke="#ffffff" stroke-width="1" stroke-linejoin="round"/><ellipse cx="48.95" cy="11.57" rx="7.08" ry="7.08" fill="#ffffff" stroke="#ffffff" stroke-width="1"/><path d="M48.95,0.95 L46.04,1.35 L43.35,2.54 L41.09,4.41 L39.43,6.83 L38.50,9.62 L38.36,12.55 L39.03,15.41 L40.46,17.97 L42.53,20.05 L45.10,21.48 L47.96,22.15 L50.89,22.02 L53.68,21.09 L56.10,19.43 L57.98,17.17 L59.16,14.48 L59.57,11.57 L59.20,8.82 L58.14,6.26 L56.45,4.06 L54.26,2.38 L51.69,1.31 L48.95,0.95 L48.95,0.95 Z" fill="#b3b3b3" stroke="#b3b3b3" stroke-width="1" stroke-linejoin="round"/><path d="M48.95,4.49 L51.28,4.89 L53.35,6.03 L54.93,7.80 L55.84,9.99 L55.97,12.35 L55.32,14.63 L53.95,16.56 L52.01,17.93 L49.74,18.59 L47.37,18.45 L45.18,17.55 L43.42,15.97 L42.27,13.90 L41.88,11.56 L42.22,9.38 L43.23,7.41 L44.79,5.84 L46.76,4.84 L48.95,4.49 L48.95,4.49 Z" fill="#ffffff" stroke="#ffffff" stroke-width="1" stroke-linejoin="round"/></svg>