<svg xmlns="http://www.w3.org/2000/svg" viewBox="1.54 13.07 100.00 76.90"><path d="M76.96,52.37 L76.58,49.00 L75.54,45.77 L73.87,42.82 L71.66,40.25 L68.97,38.18 L65.93,36.68 L62.65,35.82 L62.16,31.72 L60.89,27.79 L58.88,24.19 L56.21,21.04 L52.97,18.47 L49.30,16.57 L45.34,15.43 L41.22,15.07 L37.41,15.39 L33.71,16.37 L30.24,18.00 L27.12,20.21 L24.44,22.93 L22.28,26.09 L20.71,29.59 L16.77,30.59 L13.12,32.36 L9.89,34.82 L7.22,37.89 L5.23,41.43 L3.98,45.30 L3.54,49.34 L3.99,53.30 L5.21,57.10 L7.15,60.59 L9.73,63.64 L12.85,66.12 L16.40,67.95 L20.24,69.05 L24.22,69.38 L26.04,69.30 L59.54,69.30 L59.98,69.26 L60.42,69.16 L64.09,68.65 L67.57,67.35 L70.68,65.33 L73.29,62.69 L75.26,59.55 L76.50,56.05 L76.96,52.37 L76.96,52.37 Z" fill="#2889e0" stroke="#1e1e1e" stroke-width="1" stroke-linejoin="round"/><path d="M58.87,83.44 L43.91,83.44 L43.05,83.36 L42.48,83.08 L42.18,82.52 L42.10,81.61 L41.83,79.14 L40.80,76.88 L39.10,75.06 L36.92,73.87 L34.47,73.44 L32.00,73.85 L29.78,75.01 L28.02,76.80 L26.90,79.04 L26.53,81.52 L26.48,82.60 L26.22,83.19 L25.61,83.41 L24.51,83.41 L22.53,83.15 L20.77,82.18 L19.50,80.63 L18.90,78.71 L19.05,76.71 L19.93,74.91 L20.30,73.95 L20.51,72.94 L21.08,70.91 L22.22,69.14 L23.83,67.78 L25.76,66.94 L29.82,65.45 L33.67,63.48 L37.24,61.05 L40.54,59.05 L44.09,57.58 L47.84,56.68 L51.67,56.35 L57.38,56.36 L63.03,57.16 L68.51,58.74 L71.67,60.13 L74.63,61.93 L77.33,64.09 L80.12,66.15 L83.30,67.55 L86.70,68.23 L89.77,68.77 L92.78,69.59 L94.95,70.67 L96.80,72.22 L98.25,74.16 L99.19,76.38 L99.54,78.22 L99.21,80.06 L98.24,81.66 L96.77,82.81 L94.98,83.36 L94.26,83.42 L93.53,83.44 L92.36,83.41 L91.75,83.18 L91.51,82.57 L91.44,81.39 L90.99,78.95 L89.83,76.76 L88.07,75.01 L85.86,73.88 L83.42,73.46 L80.98,73.92 L78.80,75.11 L77.10,76.92 L76.04,79.17 L75.73,81.63 L75.65,82.60 L75.32,83.16 L74.72,83.42 L73.84,83.47 L58.87,83.44 Z" fill="#45d7f2" stroke="#1e1e1e" stroke-width="1" stroke-linejoin="round"/><path d="M34.28,87.98 L32.06,87.57 L30.13,86.43 L28.69,84.70 L27.94,82.58 L27.96,80.33 L28.75,78.22 L30.20,76.51 L32.16,75.40 L34.38,75.03 L36.59,75.44 L38.53,76.58 L39.96,78.31 L40.71,80.43 L40.70,82.68 L39.91,84.78 L38.45,86.50 L36.49,87.60 L34.28,87.98 L34.28,87.98 Z" fill="#32bedd" stroke="#32bedd" stroke-width="1" stroke-linejoin="round"/><path d="M77.21,81.50 L77.47,79.50 L78.36,77.69 L79.77,76.25 L81.56,75.33 L83.55,75.03 L85.77,75.42 L87.71,76.54 L89.16,78.26 L89.93,80.38 L89.93,82.63 L89.16,84.74 L87.71,86.46 L85.77,87.59 L83.55,87.98 L81.56,87.67 L79.77,86.75 L78.36,85.31 L77.47,83.50 L77.21,81.50 Z" fill="#32bedd" stroke="#32bedd" stroke-width="1" stroke-linejoin="round"/><path d="M55.72,70.26 L36.36,41.15 L40.30,38.42 L59.67,67.54 L55.72,70.26 Z" fill="#ffffff" stroke="#1e1e1e" stroke-width="1" stroke-linejoin="round"/><path d="M51.01,69.77 L51.18,67.35 L52.20,65.15 L53.93,63.45 L56.15,62.47 L58.57,62.34 L60.88,63.08 L62.78,64.58 L64.02,66.67 L64.45,69.05 L64.00,71.44 L62.74,73.51 L60.83,75.00 L58.51,75.71 L56.38,75.66 L54.38,74.94 L52.71,73.61 L51.54,71.83 L51.01,69.77 L51.01,69.77 Z" fill="#e6e6e6" stroke="#e6e6e6" stroke-width="1" stroke-linejoin="round"/><path d="M31.97,40.95 L32.15,38.53 L33.16,36.32 L34.89,34.62 L37.11,33.65 L39.53,33.52 L41.84,34.26 L43.74,35.77 L44.99,37.85 L45.41,40.24 L44.96,42.62 L43.70,44.69 L41.79,46.18 L39.47,46.89 L37.34,46.84 L35.34,46.12 L33.67,44.80 L32.51,43.01 L31.97,40.95 L31.97,40.95 Z" fill="#e6e6e6" stroke="#e6e6e6" stroke-width="1" stroke-linejoin="round"/></svg>