<svg xmlns="http://www.w3.org/2000/svg" viewBox="1.30 12.04 93.43 71.91"><path d="M71.70,48.78 L71.34,45.65 L70.37,42.64 L68.82,39.89 L66.75,37.50 L64.25,35.57 L61.42,34.17 L58.36,33.37 L57.91,29.55 L56.72,25.89 L54.85,22.53 L52.36,19.60 L49.35,17.20 L45.93,15.44 L42.23,14.37 L38.40,14.04 L34.85,14.34 L31.40,15.25 L28.17,16.76 L25.26,18.82 L22.76,21.37 L20.75,24.31 L19.30,27.56 L15.63,28.49 L12.22,30.14 L9.21,32.44 L6.73,35.30 L4.87,38.60 L3.71,42.20 L3.30,45.96 L3.72,49.66 L4.85,53.20 L6.66,56.45 L9.06,59.28 L11.97,61.60 L15.28,63.30 L18.85,64.32 L22.56,64.63 L24.26,64.55 L55.46,64.55 L55.88,64.52 L56.28,64.43 L59.71,63.95 L62.95,62.74 L65.85,60.86 L68.27,58.40 L70.11,55.47 L71.27,52.21 L71.70,48.78 Z" fill="#2889e0" stroke="#1e1e1e" stroke-width="1" stroke-linejoin="round"/><path d="M54.84,77.73 L40.90,77.73 L40.10,77.66 L39.58,77.40 L39.29,76.88 L39.22,76.02 L38.97,73.72 L38.00,71.62 L36.42,69.92 L34.39,68.82 L32.11,68.41 L29.81,68.80 L27.74,69.88 L26.10,71.54 L25.06,73.63 L24.71,75.94 L24.66,76.95 L24.42,77.49 L23.86,77.70 L22.84,77.70 L20.98,77.46 L19.35,76.56 L18.17,75.11 L17.61,73.33 L17.75,71.46 L18.57,69.79 L18.91,68.89 L19.10,67.95 L19.64,66.06 L20.70,64.41 L22.20,63.14 L24.00,62.36 L27.78,60.97 L31.36,59.14 L34.69,56.87 L37.76,55.01 L41.08,53.64 L44.56,52.80 L48.14,52.50 L53.45,52.51 L58.72,53.25 L63.82,54.72 L66.77,56.02 L69.52,57.69 L72.04,59.70 L74.64,61.62 L77.60,62.93 L80.77,63.56 L83.63,64.07 L86.43,64.83 L88.45,65.83 L90.18,67.28 L91.52,69.08 L92.41,71.16 L92.73,72.87 L92.42,74.58 L91.52,76.07 L90.14,77.14 L88.48,77.65 L87.81,77.71 L87.13,77.73 L86.04,77.70 L85.47,77.49 L85.25,76.92 L85.18,75.82 L84.76,73.55 L83.68,71.51 L82.04,69.88 L79.99,68.82 L77.71,68.43 L75.44,68.86 L73.41,69.97 L71.82,71.66 L70.84,73.75 L70.55,76.05 L70.47,76.95 L70.16,77.47 L69.61,77.71 L68.79,77.75 L54.84,77.73 Z" fill="#45d7f2" stroke="#1e1e1e" stroke-width="1" stroke-linejoin="round"/><path d="M31.93,81.96 L29.87,81.58 L28.06,80.52 L26.73,78.90 L26.03,76.93 L26.05,74.83 L26.78,72.87 L28.14,71.27 L29.96,70.24 L32.03,69.89 L34.09,70.27 L35.89,71.34 L37.23,72.95 L37.93,74.93 L37.91,77.02 L37.18,78.98 L35.82,80.58 L34.00,81.61 L31.93,81.96 L31.93,81.96 Z" fill="#32bedd" stroke="#32bedd" stroke-width="1" stroke-linejoin="round"/><path d="M71.93,75.93 L72.17,74.06 L73.00,72.38 L74.31,71.04 L75.98,70.18 L77.83,69.89 L79.90,70.26 L81.71,71.30 L83.06,72.91 L83.78,74.88 L83.78,76.97 L83.06,78.94 L81.71,80.55 L79.90,81.59 L77.83,81.96 L75.98,81.67 L74.31,80.81 L73.00,79.47 L72.17,77.79 L71.93,75.93 Z" fill="#32bedd" stroke="#32bedd" stroke-width="1" stroke-linejoin="round"/><path d="M51.90,65.46 L33.87,38.34 L37.55,35.79 L55.58,62.92 L51.90,65.46 Z" fill="#ffffff" stroke="#1e1e1e" stroke-width="1" stroke-linejoin="round"/><path d="M47.52,64.99 L47.68,62.74 L48.63,60.69 L50.24,59.10 L52.30,58.19 L54.56,58.07 L56.71,58.76 L58.48,60.16 L59.64,62.10 L60.04,64.33 L59.62,66.55 L58.45,68.48 L56.66,69.87 L54.51,70.53 L52.52,70.49 L50.66,69.81 L49.10,68.58 L48.02,66.91 L47.52,64.99 L47.52,64.99 Z" fill="#e6e6e6" stroke="#e6e6e6" stroke-width="1" stroke-linejoin="round"/><path d="M29.79,38.14 L29.95,35.89 L30.89,33.84 L32.50,32.26 L34.57,31.35 L36.83,31.23 L38.98,31.91 L40.75,33.32 L41.91,35.26 L42.30,37.48 L41.89,39.70 L40.71,41.63 L38.93,43.02 L36.77,43.69 L34.78,43.64 L32.92,42.96 L31.36,41.73 L30.28,40.07 L29.79,38.14 L29.79,38.14 Z" fill="#e6e6e6" stroke="#e6e6e6" stroke-width="1" stroke-linejoin="round"/></svg>