<svg xmlns="http://www.w3.org/2000/svg" viewBox="3.96 -1.90 88.29 100.00"><path d="M80.03,48.21 L80.03,49.04 L79.52,53.94 L78.27,58.71 L76.29,63.23 L73.65,67.39 L70.39,71.09 L66.61,74.25 L62.38,76.79 L57.81,78.65 L53.01,79.78 L48.10,80.16 L47.76,80.16 L43.18,72.39 L42.14,71.14 L40.73,70.34 L39.13,70.06 L37.30,70.42 L35.76,71.47 L34.74,73.02 L33.34,76.53 L31.73,75.64 L31.26,75.35 L30.62,74.95 L30.00,74.53 L29.57,74.22 L29.15,73.91 L28.89,73.72 L28.17,73.18 L28.17,73.18 L28.17,73.18 L27.45,72.58 L26.84,72.05 L26.84,72.05 L26.77,71.98 L26.72,71.91 L25.53,70.78 L24.92,70.16 L24.87,70.12 L24.83,70.08 L23.77,68.86 L23.23,68.19 L22.70,67.49 L22.16,66.80 L21.63,66.07 L21.15,65.33 L21.01,65.12 L20.88,64.89 L20.59,64.41 L20.05,63.44 L19.67,62.75 L19.02,61.39 L18.69,60.64 L18.35,59.82 L18.05,59.01 L17.82,58.35 L17.65,57.85 L17.48,57.28 L17.23,56.41 L17.01,55.54 L16.82,54.65 L16.44,52.41 L16.23,50.15 L16.19,49.36 L16.19,48.21 L16.28,45.69 L16.57,43.18 L16.78,41.97 L16.99,41.00 L17.04,40.77 L17.10,40.55 L17.36,39.56 L17.36,39.47 L17.67,38.43 L17.67,38.37 L19.59,33.74 L22.20,29.47 L25.45,25.66 L29.25,22.40 L33.52,19.78 L38.14,17.86 L43.01,16.68 L48.00,16.28 L52.44,23.81 L53.59,25.13 L55.14,25.93 L56.87,26.12 L58.55,25.67 L59.96,24.64 L60.89,23.17 L62.31,19.61 L63.58,20.28 L64.69,20.94 L64.94,21.08 L65.75,21.61 L67.14,22.58 L68.89,23.99 L69.72,24.73 L72.76,27.93 L75.32,31.52 L77.37,35.42 L78.84,39.58 L79.73,43.90 L79.86,44.99 L80.00,46.92 L80.00,47.75 L80.03,48.21 Z" fill="#40d1ed" stroke="#1e1e1e" stroke-width="1" stroke-linejoin="round"/><path d="M63.94,63.09 L53.99,45.68 L53.00,46.25 L53.81,45.65 L42.55,29.64 L40.49,31.13 L50.47,45.32 L28.36,47.14 L28.57,49.71 L50.47,47.89 L43.21,59.96 L45.39,61.27 L52.85,48.85 L61.73,64.35 L63.94,63.09 Z" fill="#ffffff" stroke="#1e1e1e" stroke-width="1" stroke-linejoin="round" opacity="0.48"/><path d="M62.93,59.42 L62.90,59.42 L62.39,59.44 L61.90,59.52 L60.47,60.08 L59.31,61.09 L58.55,62.42 L58.27,63.93 L58.27,64.02 L58.68,65.95 L59.84,67.53 L61.57,68.48 L63.53,68.64 L65.37,67.96 L66.77,66.58 L67.47,64.74 L67.35,62.78 L66.41,61.04 L64.85,59.85 L62.93,59.42 Z" fill="#ffffff" stroke="#ffffff" stroke-width="1" stroke-linejoin="round" opacity="0.8"/><path d="M47.36,57.98 L46.30,57.24 L45.06,56.88 L44.84,56.86 L44.61,56.85 L44.58,56.85 L43.06,57.15 L41.76,58.00 L40.89,59.28 L40.57,60.80 L40.57,60.83 L40.94,62.54 L41.99,63.93 L43.54,64.74 L45.29,64.81 L46.90,64.14 L48.07,62.84 L48.58,61.17 L48.33,59.44 L47.36,57.98 L47.36,57.98 Z" fill="#ffffff" stroke="#ffffff" stroke-width="1" stroke-linejoin="round" opacity="0.8"/><path d="M31.98,46.84 L30.83,45.52 L29.22,44.82 L27.47,44.88 L25.92,45.68 L24.86,47.08 L24.51,48.80 L24.93,50.50 L26.05,51.86 L27.64,52.60 L29.39,52.58 L30.97,51.81 L32.06,50.44 L32.45,48.73 L32.33,47.76 L31.98,46.84 L31.98,46.84 Z" fill="#ffffff" stroke="#ffffff" stroke-width="1" stroke-linejoin="round" opacity="0.8"/><path d="M41.86,25.65 L41.72,25.65 L39.82,26.05 L38.22,27.14 L37.16,28.76 L36.80,30.66 L37.20,32.55 L38.29,34.15 L39.91,35.21 L41.81,35.57 L42.62,35.50 L43.41,35.31 L45.15,34.27 L46.34,32.62 L46.77,30.64 L46.41,28.75 L45.35,27.13 L43.75,26.05 L41.86,25.65 L41.86,25.65 Z" fill="#ffffff" stroke="#ffffff" stroke-width="1" stroke-linejoin="round" opacity="0.8"/><path d="M53.00,40.70 L51.81,40.81 L50.66,41.15 L49.01,42.21 L47.79,43.74 L47.13,45.59 L47.06,46.04 L47.03,46.49 L47.03,46.64 L47.23,48.15 L47.80,49.56 L48.71,50.79 L49.70,51.61 L50.84,52.21 L51.91,52.52 L53.02,52.62 L53.96,52.55 L54.88,52.33 L56.73,51.34 L58.13,49.77 L58.89,47.81 L58.93,45.71 L58.24,43.72 L56.90,42.10 L55.09,41.04 L53.02,40.67 L53.00,40.70 Z" fill="#ffffff" stroke="#ffffff" stroke-width="1" stroke-linejoin="round" opacity="0.8"/><path d="M88.18,61.42 L87.44,62.53 L86.24,63.10 L84.91,62.96 L82.03,61.81 L81.05,61.08 L80.54,59.96 L80.63,58.74 L81.83,53.78 L82.28,48.69 L81.97,43.60 L80.90,38.61 L79.11,33.83 L76.62,29.37 L73.50,25.33 L69.82,21.80 L65.65,18.86 L61.09,16.57 L60.26,18.66 L58.79,22.33 L57.96,23.40 L56.69,23.87 L55.36,23.60 L54.38,22.66 L50.67,16.37 L45.90,8.28 L45.57,7.21 L45.74,6.11 L46.38,5.20 L47.36,4.66 L63.42,0.10 L64.78,0.10 L65.93,0.82 L66.52,2.04 L66.39,3.39 L64.08,9.14 L69.24,11.69 L74.00,14.91 L78.29,18.74 L82.02,23.13 L85.11,27.97 L87.52,33.20 L89.20,38.70 L90.11,44.38 L90.24,50.13 L89.60,55.85 L88.18,61.42 L88.18,61.42 Z" fill="#0078d4" stroke="#1e1e1e" stroke-width="1" stroke-linejoin="round"/><path d="M48.27,91.54 L32.20,96.09 L30.85,96.10 L29.70,95.38 L29.10,94.16 L29.24,92.81 L31.56,87.04 L26.48,84.45 L21.80,81.20 L17.60,77.36 L13.95,72.98 L10.93,68.15 L8.58,62.96 L6.95,57.51 L6.07,51.88 L5.96,46.18 L6.61,40.52 L8.02,35.00 L8.75,33.90 L9.96,33.33 L11.28,33.47 L14.11,34.60 L15.11,35.32 L15.64,36.43 L15.57,37.67 L14.38,42.57 L13.92,47.59 L14.20,52.63 L15.22,57.57 L16.95,62.31 L19.36,66.74 L22.40,70.77 L25.99,74.31 L30.07,77.29 L34.53,79.63 L35.37,77.54 L36.83,73.89 L37.66,72.82 L38.93,72.35 L40.26,72.62 L41.25,73.56 L45.06,80.04 L49.72,87.94 L50.05,89.00 L49.87,90.10 L49.24,91.00 L48.27,91.54 Z" fill="#0078d4" stroke="#1e1e1e" stroke-width="1" stroke-linejoin="round"/></svg>