<svg xmlns="http://www.w3.org/2000/svg" viewBox="0.77 -0.71 94.35 97.37"><ellipse cx="53.87" cy="42.93" rx="7.63" ry="7.63" fill="#ffffff" stroke="#ffffff" stroke-width="1"/><ellipse cx="66.67" cy="65.65" rx="5.97" ry="5.97" fill="#ffffff" stroke="#ffffff" stroke-width="1"/><ellipse cx="42.88" cy="61.55" rx="5.17" ry="5.17" fill="#ffffff" stroke="#ffffff" stroke-width="1"/><ellipse cx="39.20" cy="22.29" rx="6.40" ry="6.40" fill="#ffffff" stroke="#ffffff" stroke-width="1"/><ellipse cx="22.03" cy="45.81" rx="5.17" ry="5.17" fill="#ffffff" stroke="#ffffff" stroke-width="1"/><path d="M68.05,64.43 L55.15,41.87 L53.87,42.56 L54.93,41.81 L40.32,21.01 L37.65,22.93 L50.61,41.33 L21.92,43.73 L22.19,47.04 L50.61,44.64 L41.17,60.32 L44.00,62.03 L53.71,45.92 L65.23,66.03 L68.11,64.43 L68.05,64.43 Z" fill="#989898" stroke="#1e1e1e" stroke-width="1" stroke-linejoin="round"/><ellipse cx="53.81" cy="42.99" rx="7.57" ry="7.57" fill="#32bedd" stroke="#32bedd" stroke-width="1"/><ellipse cx="39.20" cy="22.29" rx="6.40" ry="6.40" fill="#32bedd" stroke="#32bedd" stroke-width="1"/><ellipse cx="22.03" cy="45.81" rx="5.17" ry="5.17" fill="#32bedd" stroke="#32bedd" stroke-width="1"/><ellipse cx="42.88" cy="61.55" rx="5.17" ry="5.17" fill="#32bedd" stroke="#32bedd" stroke-width="1"/><ellipse cx="66.67" cy="65.65" rx="5.97" ry="5.97" fill="#32bedd" stroke="#32bedd" stroke-width="1"/><ellipse cx="80.27" cy="20.53" rx="7.57" ry="7.57" fill="#198ab3" stroke="#198ab3" stroke-width="1"/><ellipse cx="16.91" cy="20.53" rx="7.57" ry="7.57" fill="#198ab3" stroke="#198ab3" stroke-width="1"/><ellipse cx="48.05" cy="87.09" rx="7.57" ry="7.57" fill="#198ab3" stroke="#198ab3" stroke-width="1"/><path d="M26.35,16.64 L30.81,13.84 L35.63,11.71 L40.70,10.29 L45.93,9.61 L51.19,9.69 L56.40,10.52 L61.43,12.08 L66.18,14.35 L70.56,17.28 L71.75,14.77 L73.57,12.68 L75.89,11.15 L70.98,7.73 L65.66,4.99 L60.02,2.98 L54.16,1.74 L48.19,1.29 L42.21,1.64 L36.34,2.78 L30.66,4.69 L25.29,7.33 L20.32,10.67 L22.87,12.06 L24.93,14.10 L26.35,16.64 Z" fill="#969696" stroke="#1e1e1e" stroke-width="1" stroke-linejoin="round"/><path d="M88.53,26.67 L86.56,28.67 L84.12,30.05 L81.39,30.72 L83.38,35.85 L84.58,41.23 L84.96,46.72 L84.56,52.12 L83.37,57.40 L81.42,62.45 L78.75,67.16 L75.42,71.43 L71.51,75.17 L67.09,78.30 L62.26,80.74 L57.12,82.45 L58.07,84.80 L58.40,87.31 L58.22,89.07 L57.71,90.77 L63.33,89.16 L68.70,86.84 L73.72,83.84 L78.30,80.21 L82.39,76.02 L85.89,71.34 L88.76,66.24 L90.94,60.81 L92.40,55.15 L93.12,49.35 L93.08,43.50 L92.28,37.70 L90.74,32.06 L88.48,26.67 L88.53,26.67 Z" fill="#969696" stroke="#1e1e1e" stroke-width="1" stroke-linejoin="round"/><path d="M37.87,87.04 L38.19,84.57 L39.09,82.24 L33.93,80.54 L29.06,78.09 L24.62,74.96 L20.68,71.21 L17.34,66.91 L14.66,62.17 L12.71,57.09 L11.54,51.78 L11.15,46.35 L11.58,40.93 L12.79,35.63 L14.77,30.56 L12.83,29.97 L11.03,29.01 L9.44,27.73 L8.56,26.73 L7.84,25.60 L5.45,31.03 L3.79,36.73 L2.89,42.60 L2.77,48.53 L3.42,54.43 L4.85,60.20 L7.02,65.72 L9.89,70.92 L13.42,75.69 L17.55,79.96 L22.20,83.65 L27.29,86.69 L32.74,89.05 L38.45,90.67 L37.97,88.88 L37.81,87.04 L37.87,87.04 Z" fill="#969696" stroke="#1e1e1e" stroke-width="1" stroke-linejoin="round"/></svg>