<svg xmlns="http://www.w3.org/2000/svg" viewBox="-1.44 -1.93 98.98 100.00"><path d="M77.01,17.88 L49.28,1.87 L46.61,0.68 L43.74,0.07 L40.82,0.07 L37.96,0.68 L35.28,1.87 L7.56,17.88 L5.19,19.60 L3.23,21.78 L1.77,24.31 L0.87,27.09 L0.56,30.00 L0.56,62.02 L0.87,64.94 L1.77,67.72 L3.23,70.25 L5.19,72.43 L7.56,74.15 L35.31,90.16 L37.98,91.35 L40.85,91.96 L43.77,91.96 L46.63,91.35 L49.31,90.16 L77.06,74.15 L79.43,72.43 L81.38,70.25 L82.85,67.72 L83.75,64.94 L84.06,62.02 L84.06,30.00 L83.74,27.09 L82.83,24.30 L81.35,21.77 L79.38,19.59 L77.01,17.88 L77.01,17.88 Z" fill="#26a4c8" stroke="#1e1e1e" stroke-width="1" stroke-linejoin="round"/><path d="M89.89,41.33 L70.39,30.07 L67.68,28.95 L64.77,28.57 L61.86,28.95 L59.15,30.07 L39.66,41.33 L37.33,43.11 L35.54,45.44 L34.42,48.15 L34.04,51.06 L34.04,73.57 L34.42,76.48 L35.54,79.20 L37.33,81.52 L39.66,83.31 L59.15,94.57 L61.86,95.69 L64.77,96.07 L67.68,95.69 L70.39,94.57 L89.89,83.31 L92.23,81.53 L94.02,79.20 L95.15,76.49 L95.54,73.57 L95.54,51.06 L95.15,48.15 L94.02,45.44 L92.23,43.11 L89.89,41.33 L89.89,41.33 Z" fill="#41d2ee" stroke="#1e1e1e" stroke-width="1" stroke-linejoin="round"/><path d="M40.45,15.81 L46.06,12.71 L70.13,62.60 L68.18,64.73 L15.13,64.73 L15.73,58.34 L60.46,58.34 L40.45,15.81 Z" fill="#cef5ff" stroke="#1e1e1e" stroke-width="1" stroke-linejoin="round"/><ellipse cx="14.58" cy="61.83" rx="8.01" ry="8.01" fill="#ffffff" stroke="#ffffff" stroke-width="1"/><ellipse cx="64.77" cy="62.32" rx="12.51" ry="12.51" fill="#ffffff" stroke="#1e1e1e" stroke-width="1"/><ellipse cx="42.92" cy="13.65" rx="8.01" ry="8.01" fill="#ffffff" stroke="#ffffff" stroke-width="1"/></svg>