<svg xmlns="http://www.w3.org/2000/svg" viewBox="0.67 9.04 94.72 78.08"><path d="M48.96,43.95 L52.43,43.95 L52.43,43.95 L52.43,53.60 L52.21,54.13 L51.68,54.35 L48.00,54.35 L47.47,54.13 L47.25,53.60 L47.25,45.49 L47.49,44.67 L48.12,44.10 L48.96,43.95 L48.96,43.95 Z" fill="#b3b3b3" stroke="#b3b3b3" stroke-width="1" stroke-linejoin="round"/><path d="M48.96,43.95 L52.43,43.95 L52.43,43.95 L52.43,53.60 L52.21,54.13 L51.68,54.35 L48.00,54.35 L47.47,54.13 L47.25,53.60 L47.25,45.49 L47.49,44.67 L48.12,44.10 L48.96,43.95 L48.96,43.95 Z" fill="#b3b3b3" stroke="#b3b3b3" stroke-width="1" stroke-linejoin="round" opacity="0.5"/><path d="M88.32,43.95 L91.79,43.95 L92.56,44.15 L93.13,44.72 L93.33,45.49 L93.33,53.65 L93.11,54.18 L92.59,54.40 L89.07,54.40 L88.54,54.18 L88.32,53.65 L88.32,43.95 L88.32,43.95 Z" fill="#b3b3b3" stroke="#b3b3b3" stroke-width="1" stroke-linejoin="round"/><path d="M88.32,43.95 L91.79,43.95 L92.56,44.15 L93.13,44.72 L93.33,45.49 L93.33,53.65 L93.11,54.18 L92.59,54.40 L89.07,54.40 L88.54,54.18 L88.32,53.65 L88.32,43.95 L88.32,43.95 Z" fill="#b3b3b3" stroke="#b3b3b3" stroke-width="1" stroke-linejoin="round" opacity="0.5"/><path d="M93.33,45.33 L93.33,48.69 L93.33,48.69 L47.47,48.69 L47.47,48.69 L47.47,45.33 L47.67,44.56 L48.24,43.99 L49.01,43.79 L91.68,43.79 L92.50,43.96 L93.11,44.53 L93.33,45.33 Z" fill="#b3b3b3" stroke="#b3b3b3" stroke-width="1" stroke-linejoin="round"/><path d="M48.00,74.67 L51.47,74.67 L51.99,74.89 L52.21,75.41 L52.21,85.07 L52.21,85.07 L48.96,85.07 L48.19,84.86 L47.62,84.29 L47.41,83.52 L47.41,75.25 L47.62,74.87 L48.00,74.67 Z" fill="#b3b3b3" stroke="#b3b3b3" stroke-width="1" stroke-linejoin="round"/><path d="M48.00,74.67 L51.47,74.67 L51.99,74.89 L52.21,75.41 L52.21,85.07 L52.21,85.07 L48.96,85.07 L48.19,84.86 L47.62,84.29 L47.41,83.52 L47.41,75.25 L47.62,74.87 L48.00,74.67 Z" fill="#b3b3b3" stroke="#b3b3b3" stroke-width="1" stroke-linejoin="round" opacity="0.5"/><path d="M89.07,74.67 L92.53,74.67 L93.06,74.89 L93.28,75.41 L93.28,83.57 L93.07,84.35 L92.51,84.91 L91.73,85.12 L88.27,85.12 L88.27,85.12 L88.27,75.25 L88.56,74.81 L89.07,74.67 Z" fill="#b3b3b3" stroke="#b3b3b3" stroke-width="1" stroke-linejoin="round"/><path d="M89.07,74.67 L92.53,74.67 L93.06,74.89 L93.28,75.41 L93.28,83.57 L93.07,84.35 L92.51,84.91 L91.73,85.12 L88.27,85.12 L88.27,85.12 L88.27,75.25 L88.56,74.81 L89.07,74.67 Z" fill="#b3b3b3" stroke="#b3b3b3" stroke-width="1" stroke-linejoin="round" opacity="0.5"/><path d="M47.47,83.57 L47.47,80.21 L47.47,80.21 L93.39,80.21 L93.39,80.21 L93.39,83.57 L93.18,84.35 L92.61,84.91 L91.84,85.12 L49.17,85.12 L48.33,84.97 L47.70,84.40 L47.47,83.57 Z" fill="#b3b3b3" stroke="#b3b3b3" stroke-width="1" stroke-linejoin="round"/><path d="M75.15,62.61 L74.98,63.07 L74.56,63.31 L69.33,63.31 L68.85,63.14 L68.64,62.67 L68.64,62.67 L68.64,58.67 L68.82,58.22 L69.23,57.97 L74.56,57.97 L75.05,58.14 L75.25,58.61 L75.25,58.61 L75.15,62.61 Z" fill="#76bc2d" stroke="#76bc2d" stroke-width="1" stroke-linejoin="round"/><path d="M84.69,66.67 L84.53,67.12 L84.11,67.36 L78.77,67.36 L78.29,67.19 L78.08,66.72 L78.08,66.72 L78.08,62.77 L78.23,62.32 L78.67,62.13 L84.00,62.13 L84.49,62.26 L84.69,62.72 L84.69,62.72 L84.69,66.67 Z" fill="#5e9624" stroke="#5e9624" stroke-width="1" stroke-linejoin="round"/><path d="M75.15,70.72 L75.00,71.19 L74.56,71.41 L69.33,71.41 L68.86,71.26 L68.64,70.83 L68.64,66.83 L68.83,66.32 L69.33,66.13 L74.67,66.13 L75.15,66.26 L75.36,66.72 L75.36,70.72 L75.15,70.72 Z" fill="#5e9624" stroke="#5e9624" stroke-width="1" stroke-linejoin="round"/><path d="M65.60,58.67 L65.45,59.12 L65.01,59.31 L59.68,59.31 L59.15,59.59 L58.64,59.27 L58.67,58.67 L58.67,58.67 L58.67,54.56 L58.82,54.11 L59.25,53.92 L64.59,53.92 L65.19,54.10 L65.39,54.56 L65.60,58.67 Z" fill="#86d633" stroke="#86d633" stroke-width="1" stroke-linejoin="round"/><path d="M65.60,66.67 L65.45,67.14 L65.01,67.36 L59.68,67.36 L59.23,67.17 L59.04,66.72 L59.04,66.72 L59.04,62.67 L59.19,62.20 L59.63,61.97 L64.96,61.97 L65.56,62.16 L65.76,62.67 L65.60,66.67 Z" fill="#76bc2d" stroke="#76bc2d" stroke-width="1" stroke-linejoin="round"/><path d="M65.60,74.67 L65.47,75.15 L65.01,75.36 L59.68,75.36 L59.17,75.49 L58.73,75.19 L58.67,74.67 L58.67,70.51 L58.82,70.04 L59.25,69.81 L64.59,69.81 L65.15,69.97 L65.39,70.51 L65.60,74.67 Z" fill="#5e9624" stroke="#5e9624" stroke-width="1" stroke-linejoin="round"/><path d="M70.99,30.93 L70.99,30.93 L70.76,30.14 L70.15,29.58 L69.33,29.44 L26.67,29.44 L25.90,29.62 L25.33,30.17 L25.12,30.93 L25.12,30.93 L25.12,39.09 L25.37,39.62 L25.92,39.84 L29.33,39.84 L29.86,39.62 L30.08,39.09 L30.08,34.29 L65.92,34.29 L65.92,39.09 L66.17,39.62 L66.72,39.84 L70.19,39.84 L70.73,39.62 L70.99,39.09 L70.99,30.93 Z" fill="#949494" stroke="#1e1e1e" stroke-width="1" stroke-linejoin="round"/><path d="M30.08,60.37 L29.86,59.85 L29.33,59.63 L25.87,59.63 L25.32,59.84 L25.07,60.37 L25.07,68.53 L25.07,68.53 L25.32,69.51 L26.19,70.03 L44.75,70.03 L44.75,65.17 L30.08,65.17 L30.08,60.37 Z" fill="#949494" stroke="#949494" stroke-width="1" stroke-linejoin="round"/><path d="M48.59,12.59 L48.59,12.59 L48.38,11.81 L47.81,11.25 L47.04,11.04 L4.37,11.04 L3.60,11.25 L3.03,11.81 L2.83,12.59 L2.83,12.59 L2.83,20.75 L3.03,21.13 L3.41,21.33 L6.93,21.33 L7.46,21.11 L7.68,20.59 L7.68,16.00 L43.52,16.00 L43.52,20.85 L43.84,21.22 L44.32,21.33 L48.00,21.33 L48.55,21.12 L48.80,20.59 L48.80,12.59 L48.59,12.59 Z" fill="#949494" stroke="#1e1e1e" stroke-width="1" stroke-linejoin="round"/><path d="M7.68,42.03 L7.46,41.48 L6.93,41.23 L3.41,41.23 L2.88,41.48 L2.67,42.03 L2.67,50.13 L2.67,50.13 L2.76,50.70 L3.01,51.18 L3.36,51.51 L3.79,51.63 L22.35,51.63 L22.35,46.83 L7.68,46.83 L7.68,42.03 Z" fill="#949494" stroke="#949494" stroke-width="1" stroke-linejoin="round"/><path d="M41.71,44.37 L41.55,44.82 L41.12,45.01 L35.79,45.01 L35.30,44.88 L35.09,44.43 L35.09,44.43 L35.09,40.32 L35.22,39.83 L35.68,39.63 L41.01,39.63 L41.61,39.81 L41.81,40.32 L41.71,44.37 Z" fill="#76bc2d" stroke="#76bc2d" stroke-width="1" stroke-linejoin="round"/><path d="M41.71,48.43 L41.51,48.05 L40.91,48.00 L35.57,48.00 L35.14,48.22 L34.99,48.69 L34.99,52.85 L35.21,53.29 L35.68,53.44 L41.01,53.44 L41.45,53.22 L41.60,52.75 L41.71,48.43 Z" fill="#76bc2d" stroke="#76bc2d" stroke-width="1" stroke-linejoin="round"/><path d="M41.71,56.53 L41.51,56.07 L40.91,55.89 L35.57,55.89 L35.14,56.08 L34.99,56.53 L34.99,60.69 L35.19,61.15 L35.68,61.28 L41.01,61.28 L41.47,61.07 L41.60,60.59 L41.71,56.53 Z" fill="#76bc2d" stroke="#76bc2d" stroke-width="1" stroke-linejoin="round"/><path d="M19.31,21.92 L19.03,21.46 L18.51,21.33 L13.17,21.33 L12.74,21.56 L12.59,22.03 L12.59,26.19 L12.80,26.52 L13.17,26.67 L18.51,26.67 L18.96,26.46 L19.09,25.97 L19.31,21.92 Z" fill="#76bc2d" stroke="#76bc2d" stroke-width="1" stroke-linejoin="round"/><path d="M19.31,30.03 L19.11,29.57 L18.51,29.39 L13.17,29.39 L12.74,29.58 L12.59,30.03 L12.59,34.13 L12.59,34.13 L12.78,34.57 L13.23,34.72 L18.56,34.72 L18.99,34.53 L19.15,34.08 L19.31,30.03 Z" fill="#76bc2d" stroke="#76bc2d" stroke-width="1" stroke-linejoin="round"/><path d="M19.31,38.19 L19.11,37.68 L18.51,37.49 L13.17,37.49 L12.74,37.72 L12.59,38.19 L12.59,42.24 L12.59,42.24 L12.77,42.69 L13.23,42.88 L18.56,42.88 L19.00,42.66 L19.15,42.19 L19.31,38.19 Z" fill="#76bc2d" stroke="#76bc2d" stroke-width="1" stroke-linejoin="round"/></svg>