<svg xmlns="http://www.w3.org/2000/svg" viewBox="0.82 6.53 100.00 89.50"><path d="M61.16,47.55 L60.79,48.58 L59.80,49.07 L48.00,49.07 L46.96,48.70 L46.48,47.72 L46.48,38.91 L46.84,37.87 L47.83,37.38 L59.63,37.38 L60.67,37.75 L61.16,38.74 L61.16,47.55 Z" fill="#76bc2d" stroke="#76bc2d" stroke-width="1" stroke-linejoin="round"/><path d="M82.11,56.47 L81.74,57.51 L80.75,58.00 L68.95,58.00 L67.91,57.63 L67.43,56.64 L67.43,47.89 L67.80,46.85 L68.78,46.36 L80.58,46.36 L81.62,46.73 L82.11,47.72 L82.11,56.47 L82.11,56.47 Z" fill="#76bc2d" stroke="#76bc2d" stroke-width="1" stroke-linejoin="round"/><path d="M61.16,65.51 L60.79,66.54 L59.80,67.03 L48.00,67.03 L46.96,66.66 L46.48,65.68 L46.48,56.87 L46.84,55.83 L47.83,55.34 L59.63,55.34 L60.67,55.71 L61.16,56.70 L61.16,65.51 Z" fill="#76bc2d" stroke="#76bc2d" stroke-width="1" stroke-linejoin="round"/><path d="M40.21,38.63 L39.85,39.62 L38.91,40.09 L26.77,40.09 L25.75,39.75 L25.24,38.80 L25.24,29.65 L25.65,28.68 L26.60,28.24 L38.40,28.24 L39.21,28.35 L39.77,28.66 L40.10,29.14 L40.21,29.76 L40.21,38.63 Z" fill="#86d633" stroke="#86d633" stroke-width="1" stroke-linejoin="round"/><path d="M40.21,56.47 L39.87,57.50 L38.91,58.00 L26.77,58.00 L25.99,57.81 L25.43,57.25 L25.24,56.47 L25.24,47.55 L25.63,46.55 L26.60,46.08 L38.40,46.08 L39.21,46.19 L39.77,46.50 L40.10,46.96 L40.21,47.55 L40.21,56.47 Z" fill="#76bc2d" stroke="#76bc2d" stroke-width="1" stroke-linejoin="round"/><path d="M40.21,74.48 L39.87,75.52 L38.91,76.01 L26.77,76.01 L25.73,75.64 L25.24,74.65 L25.24,65.51 L25.62,64.49 L26.60,64.04 L38.40,64.04 L39.21,64.14 L39.77,64.43 L40.10,64.90 L40.21,65.51 L40.21,74.48 Z" fill="#76bc2d" stroke="#76bc2d" stroke-width="1" stroke-linejoin="round"/><path d="M6.04,8.53 L13.33,8.53 L13.33,8.53 L13.33,28.86 L13.11,29.68 L12.51,30.27 L11.69,30.49 L4.46,30.49 L3.64,30.27 L3.04,29.68 L2.82,28.86 L2.82,11.92 L3.02,10.63 L3.70,9.53 L4.77,8.79 L6.04,8.53 L6.04,8.53 Z" fill="#999999" stroke="#999999" stroke-width="1" stroke-linejoin="round"/><path d="M6.04,8.53 L13.33,8.53 L13.33,8.53 L13.33,28.86 L13.11,29.68 L12.51,30.27 L11.69,30.49 L4.46,30.49 L3.64,30.27 L3.04,29.68 L2.82,28.86 L2.82,11.92 L3.02,10.63 L3.70,9.53 L4.77,8.79 L6.04,8.53 L6.04,8.53 Z" fill="#999999" stroke="#999999" stroke-width="1" stroke-linejoin="round" opacity="0.5"/><path d="M88.32,8.53 L95.60,8.53 L97.21,8.96 L98.39,10.14 L98.82,11.75 L98.82,28.69 L98.60,29.51 L98.00,30.11 L97.19,30.32 L89.90,30.32 L89.08,30.11 L88.48,29.51 L88.26,28.69 L88.26,8.53 L88.32,8.53 Z" fill="#999999" stroke="#999999" stroke-width="1" stroke-linejoin="round"/><path d="M88.32,8.53 L95.60,8.53 L97.21,8.96 L98.39,10.14 L98.82,11.75 L98.82,28.69 L98.60,29.51 L98.00,30.11 L97.19,30.32 L89.90,30.32 L89.08,30.11 L88.48,29.51 L88.26,28.69 L88.26,8.53 L88.32,8.53 Z" fill="#999999" stroke="#999999" stroke-width="1" stroke-linejoin="round" opacity="0.5"/><path d="M98.82,11.75 L98.82,18.80 L98.82,18.80 L2.82,18.80 L2.82,18.80 L2.82,11.75 L3.25,10.14 L4.43,8.96 L6.04,8.53 L95.66,8.53 L97.25,8.98 L98.40,10.15 L98.82,11.75 L98.82,11.75 Z" fill="#949494" stroke="#1e1e1e" stroke-width="1" stroke-linejoin="round"/><path d="M4.46,72.06 L11.75,72.06 L12.56,72.28 L13.16,72.88 L13.38,73.69 L13.38,94.02 L13.38,94.02 L6.04,94.02 L4.43,93.59 L3.25,92.41 L2.82,90.80 L2.82,73.41 L3.39,72.43 L4.46,72.06 L4.46,72.06 Z" fill="#999999" stroke="#999999" stroke-width="1" stroke-linejoin="round"/><path d="M4.46,72.06 L11.75,72.06 L12.56,72.28 L13.16,72.88 L13.38,73.69 L13.38,94.02 L13.38,94.02 L6.04,94.02 L4.43,93.59 L3.25,92.41 L2.82,90.80 L2.82,73.41 L3.39,72.43 L4.46,72.06 L4.46,72.06 Z" fill="#999999" stroke="#999999" stroke-width="1" stroke-linejoin="round" opacity="0.5"/><path d="M89.90,72.06 L97.19,72.06 L98.00,72.28 L98.60,72.88 L98.82,73.69 L98.82,90.64 L98.39,92.24 L97.21,93.42 L95.60,93.85 L88.32,93.85 L88.32,93.85 L88.32,73.41 L88.87,72.45 L89.90,72.06 L89.90,72.06 Z" fill="#999999" stroke="#999999" stroke-width="1" stroke-linejoin="round"/><path d="M89.90,72.06 L97.19,72.06 L98.00,72.28 L98.60,72.88 L98.82,73.69 L98.82,90.64 L98.39,92.24 L97.21,93.42 L95.60,93.85 L88.32,93.85 L88.32,93.85 L88.32,73.41 L88.87,72.45 L89.90,72.06 L89.90,72.06 Z" fill="#999999" stroke="#999999" stroke-width="1" stroke-linejoin="round" opacity="0.5"/><path d="M2.82,90.80 L2.82,83.75 L2.82,83.75 L98.82,83.75 L98.82,83.75 L98.82,90.80 L98.39,92.41 L97.21,93.59 L95.60,94.02 L6.04,94.02 L4.43,93.59 L3.25,92.41 L2.82,90.80 Z" fill="#949494" stroke="#1e1e1e" stroke-width="1" stroke-linejoin="round"/></svg>