<svg xmlns="http://www.w3.org/2000/svg" viewBox="0.82 9.68 100.00 82.39"><path d="M51.81,46.50 L55.48,46.50 L55.48,46.50 L55.48,56.72 L55.25,57.28 L54.69,57.51 L50.79,57.51 L50.23,57.28 L50.00,56.72 L50.00,48.14 L50.25,47.27 L50.92,46.66 L51.81,46.50 L51.81,46.50 Z" fill="#b3b3b3" stroke="#b3b3b3" stroke-width="1" stroke-linejoin="round"/><path d="M51.81,46.50 L55.48,46.50 L55.48,46.50 L55.48,56.72 L55.25,57.28 L54.69,57.51 L50.79,57.51 L50.23,57.28 L50.00,56.72 L50.00,48.14 L50.25,47.27 L50.92,46.66 L51.81,46.50 L51.81,46.50 Z" fill="#b3b3b3" stroke="#b3b3b3" stroke-width="1" stroke-linejoin="round" opacity="0.5"/><path d="M93.46,46.50 L97.13,46.50 L97.95,46.72 L98.55,47.32 L98.77,48.14 L98.77,56.78 L98.53,57.33 L97.98,57.57 L94.25,57.57 L93.69,57.33 L93.46,56.78 L93.46,46.50 L93.46,46.50 Z" fill="#b3b3b3" stroke="#b3b3b3" stroke-width="1" stroke-linejoin="round"/><path d="M93.46,46.50 L97.13,46.50 L97.95,46.72 L98.55,47.32 L98.77,48.14 L98.77,56.78 L98.53,57.33 L97.98,57.57 L94.25,57.57 L93.69,57.33 L93.46,56.78 L93.46,46.50 L93.46,46.50 Z" fill="#b3b3b3" stroke="#b3b3b3" stroke-width="1" stroke-linejoin="round" opacity="0.5"/><path d="M98.77,47.97 L98.77,51.53 L98.77,51.53 L50.23,51.53 L50.23,51.53 L50.23,47.97 L50.45,47.15 L51.05,46.55 L51.87,46.34 L97.02,46.34 L97.88,46.51 L98.53,47.12 L98.77,47.97 Z" fill="#b3b3b3" stroke="#b3b3b3" stroke-width="1" stroke-linejoin="round"/><path d="M50.79,79.01 L54.46,79.01 L55.02,79.24 L55.25,79.80 L55.25,90.02 L55.25,90.02 L51.81,90.02 L50.99,89.80 L50.39,89.20 L50.17,88.38 L50.17,79.63 L50.39,79.23 L50.79,79.01 Z" fill="#b3b3b3" stroke="#b3b3b3" stroke-width="1" stroke-linejoin="round"/><path d="M50.79,79.01 L54.46,79.01 L55.02,79.24 L55.25,79.80 L55.25,90.02 L55.25,90.02 L51.81,90.02 L50.99,89.80 L50.39,89.20 L50.17,88.38 L50.17,79.63 L50.39,79.23 L50.79,79.01 Z" fill="#b3b3b3" stroke="#b3b3b3" stroke-width="1" stroke-linejoin="round" opacity="0.5"/><path d="M94.25,79.01 L97.92,79.01 L98.48,79.24 L98.71,79.80 L98.71,88.44 L98.49,89.26 L97.89,89.85 L97.07,90.07 L93.40,90.07 L93.40,90.07 L93.40,79.63 L93.71,79.16 L94.25,79.01 Z" fill="#b3b3b3" stroke="#b3b3b3" stroke-width="1" stroke-linejoin="round"/><path d="M94.25,79.01 L97.92,79.01 L98.48,79.24 L98.71,79.80 L98.71,88.44 L98.49,89.26 L97.89,89.85 L97.07,90.07 L93.40,90.07 L93.40,90.07 L93.40,79.63 L93.71,79.16 L94.25,79.01 Z" fill="#b3b3b3" stroke="#b3b3b3" stroke-width="1" stroke-linejoin="round" opacity="0.5"/><path d="M50.23,88.44 L50.23,84.88 L50.23,84.88 L98.82,84.88 L98.82,84.88 L98.82,88.44 L98.60,89.26 L98.00,89.85 L97.19,90.07 L52.04,90.07 L51.14,89.92 L50.47,89.31 L50.23,88.44 Z" fill="#b3b3b3" stroke="#b3b3b3" stroke-width="1" stroke-linejoin="round"/><path d="M79.52,66.26 L79.35,66.74 L78.90,66.99 L73.37,66.99 L72.85,66.81 L72.63,66.31 L72.63,66.31 L72.63,62.08 L72.82,61.61 L73.26,61.35 L78.90,61.35 L79.42,61.52 L79.63,62.02 L79.63,62.02 L79.52,66.26 Z" fill="#76bc2d" stroke="#76bc2d" stroke-width="1" stroke-linejoin="round"/><path d="M89.62,70.55 L89.45,71.03 L89.00,71.28 L83.36,71.28 L82.84,71.10 L82.62,70.60 L82.62,70.60 L82.62,66.43 L82.78,65.95 L83.25,65.75 L88.89,65.75 L89.40,65.89 L89.62,66.37 L89.62,66.37 L89.62,70.55 Z" fill="#5e9624" stroke="#5e9624" stroke-width="1" stroke-linejoin="round"/><path d="M79.52,74.84 L79.36,75.33 L78.90,75.57 L73.37,75.57 L72.87,75.41 L72.63,74.95 L72.63,70.72 L72.83,70.18 L73.37,69.98 L79.01,69.98 L79.53,70.12 L79.75,70.60 L79.75,74.84 L79.52,74.84 Z" fill="#5e9624" stroke="#5e9624" stroke-width="1" stroke-linejoin="round"/><path d="M69.42,62.08 L69.26,62.56 L68.80,62.76 L63.15,62.76 L62.59,63.05 L62.06,62.71 L62.08,62.08 L62.08,62.08 L62.08,57.74 L62.24,57.26 L62.70,57.06 L68.35,57.06 L68.98,57.25 L69.19,57.74 L69.42,62.08 Z" fill="#86d633" stroke="#86d633" stroke-width="1" stroke-linejoin="round"/><path d="M69.42,70.55 L69.26,71.04 L68.80,71.28 L63.15,71.28 L62.67,71.08 L62.48,70.60 L62.48,70.60 L62.48,66.31 L62.63,65.82 L63.10,65.58 L68.74,65.58 L69.38,65.78 L69.59,66.31 L69.42,70.55 Z" fill="#76bc2d" stroke="#76bc2d" stroke-width="1" stroke-linejoin="round"/><path d="M69.42,79.01 L69.28,79.53 L68.80,79.75 L63.15,79.75 L62.61,79.89 L62.15,79.57 L62.08,79.01 L62.08,74.61 L62.24,74.11 L62.70,73.88 L68.35,73.88 L68.94,74.05 L69.19,74.61 L69.42,79.01 Z" fill="#5e9624" stroke="#5e9624" stroke-width="1" stroke-linejoin="round"/><path d="M75.12,32.73 L75.12,32.73 L74.88,31.89 L74.23,31.30 L73.37,31.15 L28.22,31.15 L27.40,31.35 L26.80,31.93 L26.58,32.73 L26.58,32.73 L26.58,41.37 L26.85,41.93 L27.43,42.16 L31.04,42.16 L31.60,41.93 L31.83,41.37 L31.83,36.29 L69.76,36.29 L69.76,41.37 L70.02,41.93 L70.60,42.16 L74.27,42.16 L74.85,41.93 L75.12,41.37 L75.12,32.73 Z" fill="#949494" stroke="#1e1e1e" stroke-width="1" stroke-linejoin="round"/><path d="M31.83,63.89 L31.60,63.33 L31.04,63.10 L27.37,63.10 L26.79,63.32 L26.53,63.89 L26.53,72.52 L26.53,72.52 L26.80,73.55 L27.71,74.10 L47.35,74.10 L47.35,68.97 L31.83,68.97 L31.83,63.89 Z" fill="#949494" stroke="#949494" stroke-width="1" stroke-linejoin="round"/><path d="M51.41,13.32 L51.41,13.32 L51.20,12.50 L50.60,11.90 L49.78,11.68 L4.63,11.68 L3.81,11.90 L3.21,12.50 L2.99,13.32 L2.99,13.32 L2.99,21.95 L3.21,22.36 L3.61,22.57 L7.34,22.57 L7.90,22.34 L8.13,21.78 L8.13,16.93 L46.05,16.93 L46.05,22.07 L46.39,22.46 L46.90,22.57 L50.79,22.57 L51.37,22.35 L51.64,21.78 L51.64,13.32 L51.41,13.32 Z" fill="#949494" stroke="#1e1e1e" stroke-width="1" stroke-linejoin="round"/><path d="M8.13,44.47 L7.90,43.89 L7.34,43.63 L3.61,43.63 L3.05,43.89 L2.82,44.47 L2.82,53.05 L2.82,53.05 L2.92,53.66 L3.18,54.16 L3.56,54.50 L4.01,54.63 L23.65,54.63 L23.65,49.55 L8.13,49.55 L8.13,44.47 Z" fill="#949494" stroke="#949494" stroke-width="1" stroke-linejoin="round"/><path d="M44.13,46.96 L43.97,47.43 L43.51,47.63 L37.87,47.63 L37.36,47.50 L37.14,47.01 L37.14,47.01 L37.14,42.67 L37.27,42.15 L37.76,41.93 L43.40,41.93 L44.04,42.13 L44.25,42.67 L44.13,46.96 Z" fill="#76bc2d" stroke="#76bc2d" stroke-width="1" stroke-linejoin="round"/><path d="M44.13,51.25 L43.92,50.85 L43.29,50.79 L37.64,50.79 L37.18,51.03 L37.02,51.53 L37.02,55.93 L37.26,56.39 L37.76,56.55 L43.40,56.55 L43.86,56.31 L44.02,55.82 L44.13,51.25 Z" fill="#76bc2d" stroke="#76bc2d" stroke-width="1" stroke-linejoin="round"/><path d="M44.13,59.82 L43.92,59.34 L43.29,59.15 L37.64,59.15 L37.18,59.35 L37.02,59.82 L37.02,64.23 L37.24,64.71 L37.76,64.85 L43.40,64.85 L43.88,64.63 L44.02,64.11 L44.13,59.82 Z" fill="#76bc2d" stroke="#76bc2d" stroke-width="1" stroke-linejoin="round"/><path d="M20.43,23.20 L20.14,22.71 L19.58,22.57 L13.94,22.57 L13.48,22.81 L13.32,23.31 L13.32,27.71 L13.55,28.07 L13.94,28.22 L19.58,28.22 L20.07,28.00 L20.20,27.49 L20.43,23.20 Z" fill="#76bc2d" stroke="#76bc2d" stroke-width="1" stroke-linejoin="round"/><path d="M20.43,31.77 L20.22,31.29 L19.58,31.10 L13.94,31.10 L13.48,31.30 L13.32,31.77 L13.32,36.12 L13.32,36.12 L13.52,36.58 L14.00,36.74 L19.64,36.74 L20.10,36.54 L20.26,36.06 L20.43,31.77 Z" fill="#76bc2d" stroke="#76bc2d" stroke-width="1" stroke-linejoin="round"/><path d="M20.43,40.41 L20.22,39.87 L19.58,39.68 L13.94,39.68 L13.48,39.91 L13.32,40.41 L13.32,44.70 L13.32,44.70 L13.52,45.18 L14.00,45.38 L19.64,45.38 L20.10,45.14 L20.26,44.64 L20.43,40.41 Z" fill="#76bc2d" stroke="#76bc2d" stroke-width="1" stroke-linejoin="round"/></svg>