<svg xmlns="http://www.w3.org/2000/svg" viewBox="0.67 6.05 94.67 84.75"><path d="M57.76,44.91 L57.41,45.89 L56.48,46.35 L45.33,46.35 L44.35,46.00 L43.89,45.07 L43.89,36.75 L44.24,35.77 L45.17,35.31 L56.32,35.31 L57.30,35.66 L57.76,36.59 L57.76,44.91 Z" fill="#76bc2d" stroke="#76bc2d" stroke-width="1" stroke-linejoin="round"/><path d="M77.55,53.33 L77.20,54.31 L76.27,54.77 L65.12,54.77 L64.14,54.42 L63.68,53.49 L63.68,45.23 L64.03,44.25 L64.96,43.79 L76.11,43.79 L77.09,44.14 L77.55,45.07 L77.55,53.33 L77.55,53.33 Z" fill="#76bc2d" stroke="#76bc2d" stroke-width="1" stroke-linejoin="round"/><path d="M57.76,61.87 L57.41,62.85 L56.48,63.31 L45.33,63.31 L44.35,62.96 L43.89,62.03 L43.89,53.71 L44.24,52.73 L45.17,52.27 L56.32,52.27 L57.30,52.62 L57.76,53.55 L57.76,61.87 Z" fill="#76bc2d" stroke="#76bc2d" stroke-width="1" stroke-linejoin="round"/><path d="M37.97,36.48 L37.64,37.42 L36.75,37.87 L25.28,37.87 L24.32,37.54 L23.84,36.64 L23.84,28.00 L24.23,27.09 L25.12,26.67 L36.27,26.67 L37.03,26.77 L37.56,27.07 L37.87,27.52 L37.97,28.11 L37.97,36.48 Z" fill="#86d633" stroke="#86d633" stroke-width="1" stroke-linejoin="round"/><path d="M37.97,53.33 L37.66,54.31 L36.75,54.77 L25.28,54.77 L24.55,54.60 L24.02,54.07 L23.84,53.33 L23.84,44.91 L24.21,43.96 L25.12,43.52 L36.27,43.52 L37.03,43.62 L37.56,43.91 L37.87,44.35 L37.97,44.91 L37.97,53.33 Z" fill="#76bc2d" stroke="#76bc2d" stroke-width="1" stroke-linejoin="round"/><path d="M37.97,70.35 L37.66,71.32 L36.75,71.79 L25.28,71.79 L24.30,71.44 L23.84,70.51 L23.84,61.87 L24.19,60.91 L25.12,60.48 L36.27,60.48 L37.03,60.58 L37.56,60.85 L37.87,61.29 L37.97,61.87 L37.97,70.35 Z" fill="#76bc2d" stroke="#76bc2d" stroke-width="1" stroke-linejoin="round"/><path d="M5.71,8.05 L12.59,8.05 L12.59,8.05 L12.59,27.25 L12.38,28.03 L11.81,28.59 L11.04,28.80 L4.21,28.80 L3.44,28.59 L2.87,28.03 L2.67,27.25 L2.67,11.25 L2.85,10.04 L3.50,9.00 L4.51,8.30 L5.71,8.05 L5.71,8.05 Z" fill="#999999" stroke="#999999" stroke-width="1" stroke-linejoin="round"/><path d="M5.71,8.05 L12.59,8.05 L12.59,8.05 L12.59,27.25 L12.38,28.03 L11.81,28.59 L11.04,28.80 L4.21,28.80 L3.44,28.59 L2.87,28.03 L2.67,27.25 L2.67,11.25 L2.85,10.04 L3.50,9.00 L4.51,8.30 L5.71,8.05 L5.71,8.05 Z" fill="#999999" stroke="#999999" stroke-width="1" stroke-linejoin="round" opacity="0.5"/><path d="M83.41,8.05 L90.29,8.05 L91.81,8.46 L92.93,9.57 L93.33,11.09 L93.33,27.09 L93.13,27.87 L92.56,28.43 L91.79,28.64 L84.91,28.64 L84.13,28.43 L83.57,27.87 L83.36,27.09 L83.36,8.05 L83.41,8.05 Z" fill="#999999" stroke="#999999" stroke-width="1" stroke-linejoin="round"/><path d="M83.41,8.05 L90.29,8.05 L91.81,8.46 L92.93,9.57 L93.33,11.09 L93.33,27.09 L93.13,27.87 L92.56,28.43 L91.79,28.64 L84.91,28.64 L84.13,28.43 L83.57,27.87 L83.36,27.09 L83.36,8.05 L83.41,8.05 Z" fill="#999999" stroke="#999999" stroke-width="1" stroke-linejoin="round" opacity="0.5"/><path d="M93.33,11.09 L93.33,17.76 L93.33,17.76 L2.67,17.76 L2.67,17.76 L2.67,11.09 L3.07,9.57 L4.19,8.46 L5.71,8.05 L90.35,8.05 L91.84,8.48 L92.94,9.59 L93.33,11.09 L93.33,11.09 Z" fill="#949494" stroke="#1e1e1e" stroke-width="1" stroke-linejoin="round"/><path d="M4.21,68.05 L11.09,68.05 L11.87,68.26 L12.43,68.83 L12.64,69.60 L12.64,88.80 L12.64,88.80 L5.71,88.80 L4.19,88.39 L3.07,87.28 L2.67,85.76 L2.67,69.33 L3.20,68.41 L4.21,68.05 L4.21,68.05 Z" fill="#999999" stroke="#999999" stroke-width="1" stroke-linejoin="round"/><path d="M4.21,68.05 L11.09,68.05 L11.87,68.26 L12.43,68.83 L12.64,69.60 L12.64,88.80 L12.64,88.80 L5.71,88.80 L4.19,88.39 L3.07,87.28 L2.67,85.76 L2.67,69.33 L3.20,68.41 L4.21,68.05 L4.21,68.05 Z" fill="#999999" stroke="#999999" stroke-width="1" stroke-linejoin="round" opacity="0.5"/><path d="M84.91,68.05 L91.79,68.05 L92.56,68.26 L93.13,68.83 L93.33,69.60 L93.33,85.60 L92.93,87.12 L91.81,88.23 L90.29,88.64 L83.41,88.64 L83.41,88.64 L83.41,69.33 L83.93,68.43 L84.91,68.05 Z" fill="#999999" stroke="#999999" stroke-width="1" stroke-linejoin="round"/><path d="M84.91,68.05 L91.79,68.05 L92.56,68.26 L93.13,68.83 L93.33,69.60 L93.33,85.60 L92.93,87.12 L91.81,88.23 L90.29,88.64 L83.41,88.64 L83.41,88.64 L83.41,69.33 L83.93,68.43 L84.91,68.05 Z" fill="#999999" stroke="#999999" stroke-width="1" stroke-linejoin="round" opacity="0.5"/><path d="M2.67,85.76 L2.67,79.09 L2.67,79.09 L93.33,79.09 L93.33,79.09 L93.33,85.76 L92.93,87.28 L91.81,88.39 L90.29,88.80 L5.71,88.80 L4.19,88.39 L3.07,87.28 L2.67,85.76 Z" fill="#949494" stroke="#1e1e1e" stroke-width="1" stroke-linejoin="round"/></svg>