<svg xmlns="http://www.w3.org/2000/svg" viewBox="-1.33 -1.33 98.67 98.67"><path d="M8.55,0.67 L6.96,0.83 L5.48,1.29 L4.14,2.01 L2.98,2.98 L2.01,4.14 L1.29,5.48 L0.83,6.96 L0.67,8.55 L0.67,87.45 L0.83,89.04 L1.29,90.52 L2.01,91.86 L2.98,93.02 L4.14,93.99 L5.48,94.71 L6.96,95.17 L8.55,95.33 L64.62,95.33 L66.21,95.17 L67.69,94.71 L69.03,93.99 L70.20,93.02 L71.17,91.86 L71.89,90.52 L72.35,89.04 L72.51,87.45 L72.51,40.67 L72.35,39.08 L71.89,37.60 L71.17,36.26 L70.20,35.09 L69.03,34.13 L67.69,33.40 L66.21,32.94 L64.62,32.78 L56.45,32.78 L56.45,8.55 L56.29,6.96 L55.83,5.48 L55.11,4.14 L54.14,2.98 L52.98,2.01 L51.64,1.29 L50.16,0.83 L48.57,0.67 L8.55,0.67 Z" fill="#1b8af3" stroke="#1e1e1e" stroke-width="1" stroke-linejoin="round"/><path d="M48.62,95.33 L64.62,95.33 L66.21,95.17 L67.69,94.71 L69.03,93.99 L70.20,93.02 L71.16,91.86 L71.89,90.52 L72.35,89.04 L72.51,87.45 L72.51,40.67 L72.35,39.08 L71.89,37.60 L71.16,36.26 L70.20,35.09 L69.03,34.13 L67.69,33.40 L66.21,32.94 L64.62,32.78 L56.45,32.78 L56.45,8.55 L56.29,6.96 L55.83,5.48 L55.10,4.14 L54.14,2.98 L52.97,2.01 L51.63,1.29 L50.15,0.83 L48.56,0.67 L8.55,0.67 L6.96,0.83 L5.48,1.29 L4.14,2.01 L2.98,2.98 L2.01,4.14 L1.29,5.48 L0.83,6.96 L0.67,8.55 L0.67,87.45 L0.83,89.04 L1.29,90.52 L2.01,91.86 L2.98,93.02 L4.14,93.99 L5.48,94.71 L6.96,95.17 L8.55,95.33 L48.62,95.33 Z" fill="#1073de" stroke="#1e1e1e" stroke-width="1" stroke-linejoin="round"/><path d="M48.58,89.87 L64.62,89.87 L65.57,89.68 L66.34,89.16 L66.86,88.39 L67.05,87.45 L67.05,40.67 L66.86,39.73 L66.34,38.96 L65.57,38.44 L64.62,38.25 L56.45,38.25 L55.35,38.13 L54.33,37.82 L53.40,37.31 L52.59,36.64 L51.92,35.84 L51.42,34.91 L51.10,33.88 L50.99,32.78 L50.99,8.55 L50.80,7.61 L50.28,6.84 L49.51,6.32 L48.57,6.13 L8.55,6.13 L7.61,6.32 L6.84,6.84 L6.32,7.61 L6.13,8.55 L6.13,87.45 L6.32,88.39 L6.84,89.16 L7.61,89.68 L8.55,89.87 L48.58,89.87 Z" fill="#1b8af3" stroke="#1e1e1e" stroke-width="1" stroke-linejoin="round"/><path d="M22.65,76.46 L22.73,75.66 L22.96,74.92 L23.80,73.67 L25.06,72.82 L25.80,72.59 L26.59,72.51 L45.75,72.51 L46.54,72.59 L47.28,72.82 L48.54,73.67 L49.39,74.92 L49.62,75.66 L49.70,76.46 L49.70,95.33 L22.65,95.33 L22.65,76.46 L22.65,76.46 Z" fill="#ffffff" stroke="#1e1e1e" stroke-width="1" stroke-linejoin="round"/><path d="M19.26,12.50 L18.07,12.62 L16.96,12.97 L15.96,13.51 L15.08,14.23 L14.36,15.11 L13.81,16.11 L13.47,17.22 L13.35,18.42 L13.47,19.61 L13.81,20.72 L14.36,21.72 L15.08,22.60 L15.96,23.32 L16.96,23.87 L18.07,24.21 L19.26,24.33 L20.46,24.21 L21.57,23.87 L22.57,23.32 L23.45,22.60 L24.17,21.72 L24.71,20.72 L25.06,19.61 L25.18,18.42 L25.06,17.22 L24.71,16.11 L24.17,15.11 L23.45,14.23 L22.57,13.51 L21.57,12.97 L20.46,12.62 L19.26,12.50 L19.26,12.50 Z" fill="#b2e4ff" stroke="#b2e4ff" stroke-width="1" stroke-linejoin="round"/><path d="M37.86,12.50 L36.66,12.62 L35.55,12.97 L34.55,13.51 L33.67,14.23 L32.95,15.11 L32.41,16.11 L32.06,17.22 L31.94,18.42 L32.06,19.61 L32.41,20.72 L32.95,21.72 L33.67,22.60 L34.55,23.32 L35.55,23.87 L36.66,24.21 L37.86,24.33 L39.05,24.21 L40.16,23.87 L41.16,23.32 L42.04,22.60 L42.76,21.72 L43.31,20.72 L43.65,19.61 L43.77,18.42 L43.65,17.22 L43.31,16.11 L42.76,15.11 L42.04,14.23 L41.16,13.51 L40.16,12.97 L39.05,12.62 L37.86,12.50 L37.86,12.50 Z" fill="#b2e4ff" stroke="#b2e4ff" stroke-width="1" stroke-linejoin="round"/><path d="M37.86,31.09 L36.66,31.21 L35.55,31.56 L34.55,32.10 L33.67,32.83 L32.95,33.70 L32.41,34.71 L32.06,35.82 L31.94,37.01 L32.06,38.20 L32.41,39.31 L32.95,40.31 L33.67,41.19 L34.55,41.91 L35.55,42.46 L36.66,42.80 L37.86,42.92 L39.05,42.80 L40.16,42.46 L41.16,41.91 L42.04,41.19 L42.76,40.31 L43.31,39.31 L43.65,38.20 L43.77,37.01 L43.65,35.82 L43.31,34.71 L42.76,33.70 L42.04,32.83 L41.16,32.10 L40.16,31.56 L39.05,31.21 L37.86,31.09 L37.86,31.09 Z" fill="#b2e4ff" stroke="#b2e4ff" stroke-width="1" stroke-linejoin="round"/><path d="M37.86,49.69 L36.66,49.81 L35.55,50.16 L34.55,50.70 L33.67,51.42 L32.95,52.30 L32.41,53.30 L32.06,54.41 L31.94,55.61 L32.06,56.80 L32.41,57.91 L32.95,58.91 L33.67,59.79 L34.55,60.51 L35.55,61.05 L36.66,61.40 L37.86,61.52 L39.05,61.40 L40.16,61.05 L41.16,60.51 L42.04,59.79 L42.76,58.91 L43.31,57.91 L43.65,56.80 L43.77,55.61 L43.65,54.41 L43.31,53.30 L42.76,52.30 L42.04,51.42 L41.16,50.70 L40.16,50.16 L39.05,49.81 L37.86,49.69 L37.86,49.69 Z" fill="#b2e4ff" stroke="#b2e4ff" stroke-width="1" stroke-linejoin="round"/><path d="M56.45,49.69 L55.26,49.81 L54.15,50.16 L53.15,50.70 L52.27,51.42 L51.55,52.30 L51.00,53.30 L50.66,54.41 L50.54,55.61 L50.66,56.80 L51.00,57.91 L51.55,58.91 L52.27,59.79 L53.15,60.51 L54.15,61.05 L55.26,61.40 L56.45,61.52 L57.64,61.40 L58.75,61.05 L59.76,60.51 L60.63,59.79 L61.36,58.91 L61.90,57.91 L62.25,56.80 L62.37,55.61 L62.25,54.41 L61.90,53.30 L61.36,52.30 L60.63,51.42 L59.76,50.70 L58.75,50.16 L57.64,49.81 L56.45,49.69 Z" fill="#b2e4ff" stroke="#b2e4ff" stroke-width="1" stroke-linejoin="round"/><path d="M19.26,31.09 L18.07,31.21 L16.96,31.56 L15.96,32.10 L15.08,32.83 L14.36,33.70 L13.81,34.71 L13.47,35.82 L13.35,37.01 L13.47,38.20 L13.81,39.31 L14.36,40.31 L15.08,41.19 L15.96,41.91 L16.96,42.46 L18.07,42.80 L19.26,42.92 L20.46,42.80 L21.57,42.46 L22.57,41.91 L23.45,41.19 L24.17,40.31 L24.71,39.31 L25.06,38.20 L25.18,37.01 L25.06,35.82 L24.71,34.71 L24.17,33.70 L23.45,32.83 L22.57,32.10 L21.57,31.56 L20.46,31.21 L19.26,31.09 Z" fill="#b2e4ff" stroke="#b2e4ff" stroke-width="1" stroke-linejoin="round"/><path d="M19.26,49.69 L18.07,49.81 L16.96,50.16 L15.96,50.70 L15.08,51.42 L14.36,52.30 L13.81,53.30 L13.47,54.41 L13.35,55.61 L13.47,56.80 L13.81,57.91 L14.36,58.91 L15.08,59.79 L15.96,60.51 L16.96,61.05 L18.07,61.40 L19.26,61.52 L20.46,61.40 L21.57,61.05 L22.57,60.51 L23.45,59.79 L24.17,58.91 L24.71,57.91 L25.06,56.80 L25.18,55.61 L25.06,54.41 L24.71,53.30 L24.17,52.30 L23.45,51.42 L22.57,50.70 L21.57,50.16 L20.46,49.81 L19.26,49.69 Z" fill="#b2e4ff" stroke="#b2e4ff" stroke-width="1" stroke-linejoin="round"/><path d="M41.24,95.31 L38.66,94.90 L36.27,94.02 L34.12,92.74 L32.24,91.09 L30.71,89.12 L29.55,86.89 L28.81,84.43 L28.56,81.81 L28.82,79.13 L29.59,76.63 L30.79,74.37 L32.39,72.38 L34.33,70.73 L36.56,69.46 L39.02,68.63 L41.68,68.29 L42.69,64.96 L44.23,61.91 L46.24,59.17 L48.67,56.81 L51.47,54.89 L54.58,53.44 L57.95,52.54 L61.53,52.22 L65.10,52.54 L68.47,53.44 L71.58,54.89 L74.38,56.81 L76.81,59.17 L78.82,61.91 L80.36,64.97 L81.37,68.29 L81.81,68.29 L84.53,68.56 L87.07,69.35 L89.37,70.60 L91.37,72.25 L93.02,74.25 L94.27,76.55 L95.06,79.09 L95.33,81.81 L95.06,84.54 L94.27,87.08 L93.02,89.38 L91.37,91.38 L89.37,93.03 L87.07,94.28 L84.53,95.06 L81.81,95.34 L41.24,95.34 L41.24,95.31 L41.24,95.31 Z" fill="#aed8fc" stroke="#1e1e1e" stroke-width="1" stroke-linejoin="round"/></svg>