<svg xmlns="http://www.w3.org/2000/svg" viewBox="1.86 -1.95 92.29 99.95"><path d="M45.98,91.91 L9.44,70.81 L8.37,69.91 L7.67,68.70 L7.43,67.32 L7.43,25.13 L7.67,23.75 L8.37,22.54 L9.44,21.64 L45.98,0.53 L47.30,0.05 L48.70,0.05 L50.01,0.53 L86.55,21.63 L87.63,22.53 L88.33,23.74 L88.57,25.12 L88.57,67.32 L88.33,68.69 L87.63,69.91 L86.55,70.81 L50.01,91.91 L48.70,92.38 L47.30,92.38 L45.98,91.91 L45.98,91.91 Z" fill="#a3a3a3" stroke="#1e1e1e" stroke-width="1" stroke-linejoin="round"/><path d="M14.96,67.62 L45.98,85.54 L47.30,86.02 L48.70,86.02 L50.01,85.54 L81.07,67.62 L82.14,66.72 L82.83,65.51 L83.08,64.14 L83.08,28.31 L82.83,26.93 L82.14,25.72 L81.07,24.82 L50.01,6.93 L48.70,6.46 L47.30,6.46 L45.98,6.93 L14.96,24.82 L13.89,25.72 L13.19,26.93 L12.94,28.31 L12.94,64.14 L13.19,65.52 L13.89,66.72 L14.96,67.62 L14.96,67.62 Z" fill="#ffffff" stroke="#1e1e1e" stroke-width="1" stroke-linejoin="round"/><ellipse cx="10.95" cy="24.87" rx="7.09" ry="7.09" fill="#41d2ee" stroke="#41d2ee" stroke-width="1"/><ellipse cx="48.18" cy="88.91" rx="7.09" ry="7.09" fill="#41d2ee" stroke="#41d2ee" stroke-width="1"/><ellipse cx="85.05" cy="25.31" rx="7.09" ry="7.09" fill="#41d2ee" stroke="#41d2ee" stroke-width="1"/><path d="M43.16,42.63 L29.40,42.63 L31.47,22.51 L31.75,21.70 L32.39,21.12 L33.22,20.91 L39.34,20.91 L40.18,21.12 L40.82,21.69 L41.10,22.51 L43.16,42.63 Z" fill="#32bedd" stroke="#32bedd" stroke-width="1" stroke-linejoin="round"/><path d="M55.32,43.53 L45.51,43.53 L46.98,29.87 L47.39,29.05 L48.23,28.73 L52.60,28.73 L53.46,29.05 L53.87,29.87 L55.32,43.53 Z" fill="#32bedd" stroke="#32bedd" stroke-width="1" stroke-linejoin="round"/><path d="M72.46,39.65 L23.55,39.65 L22.52,39.92 L21.77,40.67 L21.49,41.70 L21.49,64.10 L21.77,65.13 L22.52,65.88 L23.55,66.15 L51.59,66.15 L51.59,57.89 L51.88,57.18 L52.60,56.88 L58.28,56.88 L58.99,57.18 L59.29,57.89 L59.29,66.13 L72.46,66.13 L73.48,65.86 L74.24,65.11 L74.51,64.09 L74.51,41.69 L74.23,40.67 L73.48,39.92 L72.46,39.65 L72.46,39.65 Z" fill="#41d2ee" stroke="#1e1e1e" stroke-width="1" stroke-linejoin="round"/><rect x="29.36" y="46.07" width="8.13" height="5.95" fill="#ffffff" stroke="#ffffff" stroke-width="1"/><rect x="43.94" y="46.07" width="8.13" height="5.95" fill="#ffffff" stroke="#ffffff" stroke-width="1"/><rect x="58.52" y="46.07" width="8.13" height="5.95" fill="#ffffff" stroke="#ffffff" stroke-width="1"/></svg>