<svg xmlns="http://www.w3.org/2000/svg" viewBox="4.13 -2.00 87.73 100.00"><path d="M48.00,0.00 L6.13,23.95 L6.13,39.95 L22.40,49.81 L22.40,40.21 L13.87,35.31 L13.87,28.69 L48.00,8.96 L82.13,28.75 L82.13,67.04 L48.00,86.77 L6.13,62.83 L6.13,71.79 L48.00,96.00 L89.87,72.05 L89.87,24.05 L48.00,0.00 Z" fill="#a3a3a3" stroke="#1e1e1e" stroke-width="1" stroke-linejoin="round"/><path d="M48.00,0.00 L48.00,0.00 L6.13,23.95 L13.87,28.69 L48.00,8.96 L48.00,8.96 L82.13,28.69 L89.87,23.95 L48.00,0.00 Z" fill="#949494" stroke="#1e1e1e" stroke-width="1" stroke-linejoin="round"/><path d="M70.67,34.88 L70.67,61.12 L48.00,74.29 L48.00,48.05 L70.67,34.88 Z" fill="#32bedd" stroke="#1e1e1e" stroke-width="1" stroke-linejoin="round"/><path d="M70.67,34.88 L48.00,48.05 L25.33,34.88 L48.00,21.71 L70.67,34.88 Z" fill="#9cebff" stroke="#1e1e1e" stroke-width="1" stroke-linejoin="round"/><path d="M48.00,48.05 L48.00,74.29 L25.33,61.12 L25.33,34.88 L48.00,48.05 Z" fill="#50e6ff" stroke="#1e1e1e" stroke-width="1" stroke-linejoin="round"/><path d="M25.33,61.12 L48.00,48.05 L48.00,74.29 L25.33,61.12 Z" fill="#9cebff" stroke="#1e1e1e" stroke-width="1" stroke-linejoin="round"/><path d="M70.67,61.12 L48.00,48.05 L48.00,74.29 L70.67,61.12 Z" fill="#50e6ff" stroke="#1e1e1e" stroke-width="1" stroke-linejoin="round"/></svg>