<svg xmlns="http://www.w3.org/2000/svg" viewBox="-2.00 -1.52 100.00 99.04"><path d="M96.00,47.20 L95.51,43.47 L94.39,39.87 L92.65,36.53 L90.37,33.53 L87.60,30.98 L84.43,28.95 L80.95,27.50 L77.28,26.67 L76.70,21.98 L75.31,17.47 L73.17,13.26 L70.33,9.49 L66.88,6.26 L62.93,3.68 L58.59,1.83 L53.99,0.75 L49.28,0.48 L44.99,0.73 L40.79,1.64 L36.78,3.18 L33.05,5.32 L29.69,8.01 L26.79,11.18 L24.41,14.76 L22.61,18.67 L18.15,19.61 L13.93,21.33 L10.08,23.77 L6.72,26.85 L3.95,30.47 L1.87,34.53 L0.54,38.89 L0.00,43.41 L0.57,47.93 L1.91,52.27 L3.98,56.32 L6.73,59.94 L10.06,63.04 L13.88,65.51 L18.07,67.28 L22.50,68.30 L27.04,68.53 L29.39,68.53 L73.17,68.53 L73.76,68.57 L74.35,68.53 L78.52,68.10 L82.54,66.87 L86.24,64.90 L89.50,62.26 L92.19,59.04 L94.22,55.36 L95.50,51.37 L96.00,47.20 Z" fill="#2abce0" stroke="#1e1e1e" stroke-width="1" stroke-linejoin="round"/><rect x="45.76" y="45.12" width="4.16" height="33.01" fill="#b3b3b3" stroke="#b3b3b3" stroke-width="1"/><ellipse cx="47.84" cy="35.15" rx="11.09" ry="11.09" fill="#f2f2f2" stroke="#1e1e1e" stroke-width="1"/><path d="M54.03,75.36 L55.03,75.49 L55.97,75.88 L56.78,76.50 L57.40,77.31 L57.79,78.25 L57.92,79.25 L57.92,91.63 L57.79,92.63 L57.40,93.57 L56.78,94.38 L55.97,95.00 L55.03,95.39 L54.03,95.52 L41.65,95.52 L40.65,95.39 L39.71,95.00 L38.90,94.38 L38.28,93.57 L37.89,92.63 L37.76,91.63 L37.76,79.25 L37.89,78.25 L38.28,77.31 L38.90,76.50 L39.71,75.88 L40.65,75.49 L41.65,75.36 L54.03,75.36 Z" fill="#2abce0" stroke="#1e1e1e" stroke-width="1" stroke-linejoin="round"/></svg>