<svg xmlns="http://www.w3.org/2000/svg" viewBox="0.51 0.67 94.99 94.61"><ellipse cx="60.80" cy="45.01" rx="10.51" ry="10.51" fill="#ffffff" stroke="#1e1e1e" stroke-width="1"/><ellipse cx="78.40" cy="76.27" rx="8.27" ry="8.27" fill="#ffffff" stroke="#ffffff" stroke-width="1"/><ellipse cx="45.71" cy="70.61" rx="7.09" ry="7.09" fill="#ffffff" stroke="#ffffff" stroke-width="1"/><ellipse cx="40.59" cy="16.59" rx="8.80" ry="8.80" fill="#ffffff" stroke="#1e1e1e" stroke-width="1"/><ellipse cx="17.01" cy="49.01" rx="7.09" ry="7.09" fill="#ffffff" stroke="#ffffff" stroke-width="1"/><path d="M80.32,74.61 L62.56,43.52 L60.80,44.53 L62.24,43.47 L42.13,14.88 L38.45,17.55 L56.27,42.88 L16.80,46.13 L17.17,50.72 L56.27,47.47 L43.31,69.01 L47.20,71.36 L60.53,49.17 L76.37,76.85 L80.32,74.61 Z" fill="#949494" stroke="#1e1e1e" stroke-width="1" stroke-linejoin="round"/><path d="M93.49,6.56 L93.49,6.56 L93.20,5.07 L92.35,3.81 L91.09,2.96 L89.60,2.67 L69.33,2.67 L68.37,2.92 L67.67,3.63 L67.41,4.59 L67.41,12.11 L67.67,13.07 L68.37,13.77 L69.33,14.03 L81.87,14.03 L81.87,26.29 L82.15,27.27 L82.86,27.99 L83.84,28.27 L91.31,28.27 L92.28,27.99 L93.00,27.27 L93.28,26.29 L93.28,6.56 L93.49,6.56 Z" fill="#949494" stroke="#1e1e1e" stroke-width="1" stroke-linejoin="round"/><path d="M26.67,81.97 L13.92,81.97 L13.92,69.71 L13.64,68.73 L12.92,68.01 L11.95,67.73 L4.48,67.73 L3.50,68.01 L2.79,68.73 L2.51,69.71 L2.51,89.44 L2.51,89.44 L2.82,90.91 L3.67,92.16 L4.92,92.99 L6.40,93.28 L26.67,93.28 L27.63,93.02 L28.33,92.32 L28.59,91.36 L28.59,83.89 L28.33,82.93 L27.63,82.23 L26.67,81.97 L26.67,81.97 Z" fill="#949494" stroke="#1e1e1e" stroke-width="1" stroke-linejoin="round"/><path d="M60.80,34.61 L63.73,35.03 L66.44,36.23 L68.71,38.13 L70.37,40.58 L71.30,43.40 L71.41,46.36 L70.70,49.24 L69.23,51.81 L67.11,53.88 L64.50,55.28 L61.61,55.92 L58.65,55.73 L55.86,54.74 L53.45,53.01 L51.61,50.69 L50.47,47.96 L50.13,45.01 L50.55,42.30 L51.65,39.79 L53.35,37.64 L55.54,36.00 L58.08,34.96 L60.80,34.61 L60.80,34.61 Z" fill="#31d2f4" stroke="#31d2f4" stroke-width="1" stroke-linejoin="round"/><path d="M32.00,16.59 L32.37,19.17 L33.48,21.54 L35.24,23.48 L37.48,24.82 L40.02,25.45 L42.63,25.31 L45.08,24.41 L47.17,22.84 L48.71,20.72 L49.56,18.25 L49.65,15.64 L48.98,13.11 L47.59,10.90 L45.62,9.18 L43.23,8.11 L40.64,7.79 L37.96,8.26 L35.55,9.52 L33.64,11.47 L32.42,13.90 L32.00,16.59 L32.00,16.59 Z" fill="#31d2f4" stroke="#31d2f4" stroke-width="1" stroke-linejoin="round"/><path d="M9.92,48.96 L10.32,51.30 L11.47,53.38 L13.24,54.97 L15.43,55.88 L17.81,56.01 L20.09,55.35 L22.03,53.98 L23.40,52.04 L24.06,49.75 L23.93,47.38 L23.02,45.19 L21.44,43.41 L19.36,42.26 L17.01,41.87 L14.82,42.21 L12.84,43.22 L11.27,44.79 L10.27,46.77 L9.92,48.96 L9.92,48.96 Z" fill="#31d2f4" stroke="#31d2f4" stroke-width="1" stroke-linejoin="round"/><path d="M38.61,70.56 L39.00,72.93 L40.14,75.03 L41.92,76.64 L44.13,77.57 L46.53,77.72 L48.83,77.07 L50.79,75.69 L52.19,73.73 L52.86,71.43 L52.73,69.04 L51.82,66.82 L50.22,65.03 L48.12,63.87 L45.76,63.47 L43.56,63.80 L41.56,64.80 L39.98,66.37 L38.96,68.36 L38.61,70.56 L38.61,70.56 Z" fill="#31d2f4" stroke="#31d2f4" stroke-width="1" stroke-linejoin="round"/><path d="M70.19,76.27 L70.58,78.83 L71.74,81.14 L73.56,82.98 L75.86,84.17 L78.42,84.59 L80.98,84.19 L83.29,83.02 L85.13,81.20 L86.31,78.89 L86.72,76.34 L86.32,73.78 L85.15,71.47 L83.32,69.64 L81.01,68.46 L78.45,68.05 L75.90,68.43 L73.58,69.59 L71.75,71.41 L70.58,73.71 L70.19,76.27 Z" fill="#31d2f4" stroke="#31d2f4" stroke-width="1" stroke-linejoin="round"/></svg>