<svg xmlns="http://www.w3.org/2000/svg" viewBox="0.67 0.77 94.66 94.19"><path d="M52.43,2.77 L56.93,2.99 L61.21,3.62 L65.25,4.65 L69.04,6.06 L72.59,7.83 L75.87,9.95 L78.90,12.40 L81.66,15.15 L84.14,18.20 L86.35,21.52 L88.27,25.09 L89.89,28.90 L91.21,32.92 L92.23,37.15 L92.94,41.56 L93.33,46.13 L93.10,48.17 L92.24,50.03 L90.82,51.51 L89.01,52.47 L86.99,52.80 L17.65,52.80 L15.67,52.43 L13.91,51.46 L12.55,49.97 L11.72,48.14 L11.52,46.13 L11.91,41.56 L12.62,37.15 L13.64,32.92 L14.96,28.90 L16.59,25.09 L18.51,21.52 L20.71,18.20 L23.19,15.15 L25.95,12.40 L28.98,9.95 L32.27,7.83 L35.81,6.06 L39.61,4.65 L43.64,3.62 L47.92,2.99 L52.43,2.77 Z" fill="#0078d4" stroke="#1e1e1e" stroke-width="1" stroke-linejoin="round"/><path d="M17.81,48.59 L16.84,48.20 L16.18,47.38 L16.00,46.35 L16.35,41.96 L17.04,37.78 L18.07,33.82 L19.40,30.09 L21.02,26.61 L22.90,23.37 L25.04,20.39 L27.41,17.69 L30.00,15.26 L32.77,13.13 L35.72,11.29 L38.83,9.77 L42.07,8.57 L45.43,7.70 L48.89,7.17 L52.43,6.99 L55.96,7.17 L59.42,7.70 L62.78,8.57 L66.03,9.77 L69.14,11.29 L72.09,13.13 L74.88,15.26 L77.47,17.69 L79.86,20.39 L82.01,23.37 L83.92,26.61 L85.57,30.09 L86.93,33.82 L87.99,37.78 L88.72,41.96 L89.12,46.35 L88.97,47.20 L88.53,47.95 L87.82,48.41 L86.99,48.59 L17.81,48.59 Z" fill="#fbfbfb" stroke="#1e1e1e" stroke-width="1" stroke-linejoin="round"/><path d="M72.27,20.21 L68.36,17.25 L64.01,14.96 L59.36,13.41 L54.51,12.64 L54.51,26.67 L57.46,27.32 L60.25,28.51 L62.77,30.19 L72.27,20.21 Z" fill="#5ea0ef" stroke="#1e1e1e" stroke-width="1" stroke-linejoin="round"/><path d="M32.59,20.21 L42.08,29.97 L44.59,28.36 L47.36,27.25 L50.29,26.67 L50.29,12.64 L45.46,13.40 L40.81,14.95 L36.48,17.24 L32.59,20.21 L32.59,20.21 Z" fill="#0078d4" stroke="#1e1e1e" stroke-width="1" stroke-linejoin="round"/><path d="M65.76,33.07 L67.44,35.65 L68.65,38.49 L69.33,41.49 L82.77,41.49 L82.04,36.56 L80.55,31.81 L78.32,27.36 L75.41,23.31 L65.76,33.07 Z" fill="#5ea0ef" stroke="#1e1e1e" stroke-width="1" stroke-linejoin="round"/><path d="M39.09,33.07 L29.60,23.31 L26.68,27.35 L24.45,31.81 L22.96,36.56 L22.24,41.49 L35.63,41.49 L36.30,38.50 L37.46,35.66 L39.09,33.07 L39.09,33.07 Z" fill="#005ba1" stroke="#1e1e1e" stroke-width="1" stroke-linejoin="round"/><path d="M77.12,30.03 L76.45,29.16 L75.44,28.71 L74.35,28.80 L54.56,36.69 L56.11,40.64 L75.89,32.75 L76.76,32.09 L77.20,31.11 L77.12,30.03 Z" fill="#005ba1" stroke="#005ba1" stroke-width="1" stroke-linejoin="round"/><ellipse cx="52.43" cy="39.57" rx="5.76" ry="5.76" fill="#767676" stroke="#767676" stroke-width="1"/><path d="M57.23,92.96 L4.75,92.96 L4.16,92.84 L3.65,92.52 L2.91,91.45 L2.67,90.12 L2.77,89.48 L3.04,88.91 L21.33,62.56 L21.42,61.97 L21.33,61.39 L21.33,43.95 L21.18,43.12 L20.48,42.67 L19.47,42.67 L18.43,42.39 L17.67,41.63 L17.39,40.59 L17.39,39.89 L17.67,38.85 L18.43,38.09 L19.47,37.81 L42.67,37.81 L43.72,38.08 L44.48,38.84 L44.75,39.89 L44.75,40.80 L44.42,41.76 L43.66,42.44 L42.67,42.67 L41.55,42.67 L40.79,42.98 L40.48,43.73 L40.48,61.17 L40.58,61.79 L40.85,62.35 L58.99,88.69 L59.24,89.34 L59.33,90.03 L59.09,91.43 L58.77,92.03 L58.35,92.52 L57.83,92.84 L57.23,92.96 Z" fill="#2ecaec" stroke="#1e1e1e" stroke-width="1" stroke-linejoin="round"/><path d="M11.68,85.33 L24.80,66.13 L25.44,64.84 L25.65,63.41 L25.65,55.63 L25.86,54.85 L26.43,54.29 L27.20,54.08 L34.67,54.08 L35.43,54.29 L35.98,54.86 L36.16,55.63 L36.16,64.00 L36.32,64.95 L36.75,65.81 L50.19,85.33 L50.38,86.12 L49.99,86.83 L49.23,87.09 L12.59,87.09 L11.85,86.81 L11.49,86.10 L11.68,85.33 Z" fill="#ffffff" stroke="#1e1e1e" stroke-width="1" stroke-linejoin="round"/></svg>