<svg xmlns="http://www.w3.org/2000/svg" viewBox="0.67 8.24 94.67 79.50"><path d="M93.33,13.33 L93.33,71.09 L93.09,72.29 L92.41,73.30 L91.39,73.97 L90.19,74.19 L66.08,74.19 L65.55,74.41 L65.33,74.93 L65.33,84.27 L64.94,85.27 L63.97,85.74 L62.93,85.44 L48.43,74.35 L47.95,74.35 L5.81,74.35 L4.61,74.13 L3.59,73.46 L2.91,72.45 L2.67,71.25 L2.67,13.33 L2.91,12.14 L3.59,11.13 L4.61,10.46 L5.81,10.24 L90.19,10.24 L91.39,10.46 L92.41,11.13 L93.09,12.14 L93.33,13.33 Z" fill="#e7a407" stroke="#1e1e1e" stroke-width="1" stroke-linejoin="round"/><path d="M10.93,48.00 L26.93,61.44 L28.00,61.77 L29.01,61.30 L29.44,60.27 L29.44,54.40 L93.23,54.40 L93.23,45.33 L11.89,45.33 L11.07,45.64 L10.54,46.35 L10.49,47.23 L10.93,48.00 Z" fill="#ffe452" stroke="#1e1e1e" stroke-width="1" stroke-linejoin="round"/><path d="M86.61,34.45 L70.03,21.01 L68.96,20.68 L67.95,21.16 L67.52,22.19 L67.52,28.05 L2.67,28.05 L2.67,37.33 L85.65,37.33 L86.67,37.11 L87.32,36.29 L87.30,35.24 L86.61,34.45 Z" fill="#ffffff" stroke="#1e1e1e" stroke-width="1" stroke-linejoin="round"/></svg>