<svg xmlns="http://www.w3.org/2000/svg" viewBox="-1.13 -1.13 100.00 100.00"><path d="M60.64,96.21 L5.91,71.58 L3.68,70.21 L2.00,68.20 L1.03,65.78 L0.87,63.17 L1.53,60.64 L26.16,5.91 L27.53,3.68 L29.53,2.00 L31.96,1.03 L34.57,0.87 L37.10,1.53 L91.83,26.16 L94.05,27.53 L95.74,29.53 L96.71,31.96 L96.87,34.57 L96.21,37.10 L71.58,91.83 L70.21,94.05 L68.20,95.74 L65.78,96.71 L63.17,96.87 L60.64,96.21 L60.64,96.21 Z" fill="#74cfeb" stroke="#1e1e1e" stroke-width="1" stroke-linejoin="round"/><path d="M86.34,27.80 L71.58,13.03 L70.00,11.78 L68.12,11.04 L66.11,10.86 L19.59,10.86 L17.21,11.19 L15.06,12.27 L13.36,13.96 L12.28,16.11 L11.95,18.49 L11.95,79.24 L12.28,81.63 L13.35,83.79 L15.06,85.50 L17.22,86.57 L19.61,86.91 L80.91,86.91 L83.30,86.57 L85.46,85.50 L87.16,83.79 L88.24,81.63 L88.57,79.24 L88.57,33.27 L88.29,31.29 L87.55,29.43 L86.39,27.80 L86.34,27.80 Z" fill="#bcbcbc" stroke="#1e1e1e" stroke-width="1" stroke-linejoin="round"/><path d="M40.45,86.91 L60.54,95.88 L61.71,96.44 L62.86,96.75 L63.97,96.83 L65.05,96.70 L66.09,96.39 L67.08,95.91 L68.92,94.56 L70.53,92.81 L71.89,90.83 L72.97,88.81 L73.73,86.91 L40.45,86.91 Z" fill="#44c3e1" stroke="#1e1e1e" stroke-width="1" stroke-linejoin="round"/><path d="M76.49,51.99 L76.49,45.69 L75.61,45.36 L68.87,43.15 L67.10,38.84 L70.52,31.55 L66.10,27.15 L65.22,27.59 L58.93,30.80 L54.61,29.03 L51.85,21.43 L45.56,21.43 L45.22,22.26 L43.01,29.01 L38.70,30.78 L31.52,27.35 L27.10,31.77 L27.55,32.66 L30.75,38.95 L28.98,43.26 L21.25,46.02 L21.25,52.32 L22.13,52.65 L28.87,54.86 L30.64,59.17 L27.21,66.46 L31.63,70.88 L32.51,70.44 L38.81,67.24 L43.12,69.00 L45.89,76.60 L52.18,76.60 L52.52,75.72 L54.73,68.98 L59.03,67.21 L66.33,70.64 L70.75,66.22 L70.31,65.33 L67.10,59.03 L68.87,54.72 L76.49,51.99 Z" fill="#8c8d8e" stroke="#1e1e1e" stroke-width="1" stroke-linejoin="round"/><path d="M52.41,34.16 L52.27,34.11 L52.13,34.09 L51.84,34.19 L51.62,34.38 L39.10,52.60 L38.98,52.92 L39.02,53.26 L39.27,53.51 L39.61,53.62 L47.09,53.62 L43.74,64.62 L43.73,65.05 L44.03,65.35 L44.17,65.41 L44.32,65.42 L44.60,65.34 L44.83,65.16 L57.73,46.70 L57.87,46.33 L57.68,45.87 L57.22,45.68 L49.49,45.68 L52.70,34.89 L52.71,34.47 L52.41,34.16 Z" fill="#ffffff" stroke="#1e1e1e" stroke-width="1" stroke-linejoin="round"/></svg>