<svg xmlns="http://www.w3.org/2000/svg" viewBox="-1.15 -1.15 98.29 98.29"><path d="M59.56,94.50 L5.80,70.31 L3.62,68.96 L1.97,66.99 L1.01,64.61 L0.85,62.04 L1.50,59.56 L25.69,5.80 L27.04,3.62 L29.01,1.97 L31.39,1.01 L33.96,0.85 L36.44,1.50 L90.20,25.69 L92.38,27.04 L94.03,29.01 L94.99,31.39 L95.15,33.96 L94.50,36.44 L70.31,90.20 L68.96,92.38 L66.99,94.03 L64.61,94.99 L62.04,95.15 L59.56,94.50 L59.56,94.50 Z" fill="#74cfeb" stroke="#1e1e1e" stroke-width="1" stroke-linejoin="round"/><path d="M84.80,27.31 L70.31,12.80 L68.75,11.58 L66.91,10.84 L64.93,10.67 L19.24,10.67 L16.90,10.99 L14.79,12.05 L13.12,13.72 L12.06,15.83 L11.73,18.17 L11.73,77.83 L12.06,80.18 L13.11,82.30 L14.79,83.98 L16.91,85.03 L19.26,85.36 L79.47,85.36 L81.81,85.03 L83.94,83.98 L85.61,82.30 L86.67,80.18 L86.99,77.83 L86.99,32.68 L86.72,30.74 L86.00,28.91 L84.86,27.31 L84.80,27.31 Z" fill="#bcbcbc" stroke="#1e1e1e" stroke-width="1" stroke-linejoin="round"/><path d="M39.73,85.36 L59.46,94.17 L60.61,94.72 L61.74,95.03 L62.83,95.11 L63.89,94.98 L64.91,94.68 L65.89,94.21 L67.69,92.88 L69.28,91.16 L70.62,89.22 L71.67,87.23 L72.42,85.36" fill="none" stroke="#1e1e1e" stroke-width="1" stroke-linejoin="round"/><path d="M75.13,51.07 L75.13,44.88 L74.27,44.55 L67.64,42.38 L65.91,38.15 L69.27,30.99 L64.93,26.67 L64.06,27.10 L57.88,30.25 L53.64,28.51 L50.93,21.05 L44.75,21.05 L44.42,21.87 L42.25,28.49 L38.02,30.23 L30.96,26.86 L26.62,31.21 L27.06,32.07 L30.20,38.26 L28.46,42.49 L20.87,45.21 L20.87,51.39 L21.73,51.72 L28.36,53.89 L30.09,58.12 L26.73,65.28 L31.07,69.62 L31.94,69.19 L38.12,66.04 L42.36,67.78 L45.07,75.24 L51.25,75.24 L51.58,74.37 L53.75,67.75 L57.98,66.02 L65.15,69.38 L69.49,65.04 L69.06,64.17 L65.91,57.98 L67.64,53.75 L75.13,51.07 Z" fill="#8c8d8e" stroke="#1e1e1e" stroke-width="1" stroke-linejoin="round"/><path d="M51.48,33.56 L51.34,33.50 L51.20,33.49 L50.92,33.58 L50.70,33.77 L38.40,51.66 L38.28,51.98 L38.33,52.31 L38.57,52.56 L38.90,52.67 L46.25,52.67 L42.96,63.47 L42.95,63.89 L43.25,64.19 L43.38,64.25 L43.53,64.26 L43.81,64.18 L44.03,64.00 L56.70,45.87 L56.84,45.51 L56.66,45.05 L56.20,44.86 L48.61,44.86 L51.77,34.27 L51.77,33.85 L51.48,33.56 Z" fill="#ffffff" stroke="#1e1e1e" stroke-width="1" stroke-linejoin="round"/></svg>