<svg xmlns="http://www.w3.org/2000/svg" viewBox="-2.00 3.82 100.01 88.33"><path d="M93.08,59.75 L32.08,59.75 L31.27,62.87 L29.91,65.77 L28.04,68.37 L25.69,70.61 L26.21,83.58 L93.09,83.58 L94.23,83.35 L95.15,82.73 L95.78,81.80 L96.01,80.67 L96.01,62.66 L96.01,62.66 L95.78,61.53 L95.15,60.60 L94.22,59.98 L93.09,59.75 L93.08,59.75 Z" fill="#2f7ec8" stroke="#1e1e1e" stroke-width="1" stroke-linejoin="round"/><path d="M93.08,5.82 L11.75,5.82 L10.62,6.05 L9.69,6.67 L9.07,7.60 L8.84,8.73 L8.84,26.74 L9.07,27.87 L9.69,28.79 L10.61,29.42 L11.75,29.65 L93.09,29.65 L94.22,29.42 L95.15,28.80 L95.77,27.87 L96.00,26.74 L96.00,8.73 L96.00,8.73 L95.77,7.60 L95.15,6.67 L94.22,6.05 L93.08,5.82 Z" fill="#2f7ec8" stroke="#1e1e1e" stroke-width="1" stroke-linejoin="round"/><path d="M93.08,32.79 L11.75,32.79 L10.62,33.02 L9.69,33.64 L9.07,34.57 L8.84,35.70 L8.84,40.60 L11.79,39.78 L14.93,39.49 L16.68,39.58 L18.39,39.84 L20.04,40.26 L21.62,40.84 L23.12,41.56 L24.55,42.41 L27.11,44.50 L29.23,47.04 L30.11,48.45 L30.85,49.94 L31.45,51.52 L31.89,53.16 L32.18,54.86 L32.30,56.61 L93.08,56.61 L94.21,56.38 L95.14,55.76 L95.77,54.84 L95.99,53.70 L95.99,35.70 L95.99,35.70 L95.77,34.56 L95.14,33.64 L94.21,33.01 L93.08,32.78 L93.08,32.79 Z" fill="#2f7ec8" stroke="#1e1e1e" stroke-width="1" stroke-linejoin="round"/><path d="M87.85,63.93 L88.23,63.97 L88.58,64.12 L88.88,64.35 L89.11,64.65 L89.26,65.00 L89.31,65.38 L89.31,68.98 L89.26,69.36 L89.11,69.71 L88.88,70.01 L88.58,70.24 L88.23,70.39 L87.85,70.44 L84.25,70.44 L83.87,70.39 L83.52,70.24 L83.22,70.01 L82.99,69.71 L82.84,69.36 L82.79,68.98 L82.79,65.38 L82.84,65.00 L82.99,64.65 L83.22,64.35 L83.52,64.12 L83.87,63.97 L84.25,63.93 L87.85,63.93 Z" fill="#ffffff" stroke="#ffffff" stroke-width="1" stroke-linejoin="round"/><path d="M87.85,72.90 L88.23,72.95 L88.58,73.10 L88.88,73.33 L89.11,73.63 L89.26,73.98 L89.31,74.36 L89.31,77.96 L89.26,78.33 L89.11,78.69 L88.88,78.99 L88.58,79.22 L88.23,79.36 L87.85,79.41 L84.25,79.41 L83.87,79.36 L83.52,79.22 L83.22,78.99 L82.99,78.69 L82.84,78.33 L82.79,77.96 L82.79,74.36 L82.84,73.98 L82.99,73.63 L83.22,73.33 L83.52,73.10 L83.87,72.95 L84.25,72.90 L87.85,72.90 Z" fill="#ffffff" stroke="#ffffff" stroke-width="1" stroke-linejoin="round"/><path d="M87.85,36.96 L88.23,37.01 L88.58,37.16 L88.88,37.39 L89.11,37.69 L89.26,38.04 L89.31,38.42 L89.31,42.02 L89.26,42.39 L89.11,42.74 L88.88,43.05 L88.58,43.28 L88.23,43.42 L87.85,43.47 L84.25,43.47 L83.87,43.42 L83.52,43.28 L83.22,43.05 L82.99,42.74 L82.84,42.39 L82.79,42.02 L82.79,38.42 L82.84,38.04 L82.99,37.69 L83.22,37.39 L83.52,37.16 L83.87,37.01 L84.25,36.96 L87.85,36.96 Z" fill="#ffffff" stroke="#ffffff" stroke-width="1" stroke-linejoin="round"/><path d="M87.85,45.94 L88.23,45.99 L88.58,46.13 L88.88,46.36 L89.11,46.66 L89.26,47.02 L89.31,47.39 L89.31,50.99 L89.26,51.37 L89.11,51.72 L88.88,52.02 L88.58,52.25 L88.23,52.40 L87.85,52.45 L84.25,52.45 L83.87,52.40 L83.52,52.25 L83.22,52.02 L82.99,51.72 L82.84,51.37 L82.79,50.99 L82.79,47.39 L82.84,47.02 L82.99,46.66 L83.22,46.36 L83.52,46.13 L83.87,45.99 L84.25,45.94 L87.85,45.94 Z" fill="#ffffff" stroke="#ffffff" stroke-width="1" stroke-linejoin="round"/><path d="M87.85,9.99 L88.23,10.04 L88.58,10.18 L88.88,10.42 L89.11,10.72 L89.26,11.07 L89.31,11.45 L89.31,15.05 L89.26,15.42 L89.11,15.77 L88.88,16.07 L88.58,16.31 L88.23,16.45 L87.85,16.50 L84.25,16.50 L83.87,16.45 L83.52,16.31 L83.22,16.07 L82.99,15.77 L82.84,15.42 L82.79,15.05 L82.79,11.45 L82.84,11.07 L82.99,10.72 L83.22,10.42 L83.52,10.18 L83.87,10.04 L84.25,9.99 L87.85,9.99 Z" fill="#ffffff" stroke="#ffffff" stroke-width="1" stroke-linejoin="round"/><path d="M87.85,18.97 L88.23,19.01 L88.58,19.16 L88.88,19.39 L89.11,19.69 L89.26,20.04 L89.31,20.42 L89.31,24.02 L89.26,24.40 L89.11,24.75 L88.88,25.05 L88.58,25.28 L88.23,25.43 L87.85,25.48 L84.25,25.48 L83.87,25.43 L83.52,25.28 L83.22,25.05 L82.99,24.75 L82.84,24.40 L82.79,24.02 L82.79,20.42 L82.84,20.04 L82.99,19.69 L83.22,19.39 L83.52,19.16 L83.87,19.01 L84.25,18.97 L87.85,18.97 Z" fill="#ffffff" stroke="#ffffff" stroke-width="1" stroke-linejoin="round"/><path d="M23.12,67.59 L21.28,68.96 L19.24,69.97 L17.04,70.58 L14.76,70.79 L12.47,70.58 L10.28,69.97 L8.24,68.96 L6.39,67.59 L5.35,88.38 L5.58,89.34 L6.33,90.00 L7.32,90.11 L8.18,89.62 L14.63,83.07 L21.13,89.67 L21.98,90.15 L22.96,90.06 L23.71,89.42 L23.96,88.48 L23.11,67.59 L23.12,67.59 Z" fill="#41d2ee" stroke="#1e1e1e" stroke-width="1" stroke-linejoin="round"/><path d="M14.93,71.90 L17.94,71.60 L20.75,70.73 L23.28,69.34 L25.49,67.52 L27.32,65.30 L28.69,62.75 L29.56,59.94 L29.87,56.92 L29.56,53.90 L28.69,51.09 L27.32,48.55 L25.49,46.33 L23.28,44.50 L20.75,43.12 L17.94,42.25 L14.93,41.94 L11.92,42.25 L9.12,43.12 L6.58,44.50 L4.37,46.33 L2.55,48.55 L1.17,51.09 L0.30,53.90 L0.00,56.92 L0.30,59.94 L1.17,62.75 L2.55,65.30 L4.37,67.52 L6.58,69.34 L9.12,70.73 L11.92,71.60 L14.93,71.90 Z" fill="#26a4c8" stroke="#1e1e1e" stroke-width="1" stroke-linejoin="round"/><path d="M14.93,68.28 L17.22,68.05 L19.36,67.39 L21.29,66.34 L22.97,64.95 L24.35,63.27 L25.40,61.34 L26.06,59.21 L26.29,56.92 L26.06,54.63 L25.40,52.50 L24.35,50.57 L22.97,48.89 L21.28,47.50 L19.35,46.46 L17.22,45.79 L14.93,45.56 L12.64,45.79 L10.51,46.46 L8.58,47.50 L6.90,48.89 L5.51,50.57 L4.47,52.50 L3.80,54.63 L3.57,56.92 L3.80,59.21 L4.47,61.34 L5.51,63.27 L6.90,64.95 L8.58,66.34 L10.51,67.39 L12.64,68.05 L14.93,68.28 Z" fill="#76e8ff" stroke="#1e1e1e" stroke-width="1" stroke-linejoin="round"/></svg>