<svg xmlns="http://www.w3.org/2000/svg" viewBox="-2.00 3.82 100.01 88.33"><path d="M93.08,59.75 L32.08,59.75 L31.27,62.87 L29.91,65.77 L28.04,68.37 L25.69,70.61 L26.21,83.58 L93.09,83.58 L94.23,83.35 L95.15,82.73 L95.78,81.80 L96.01,80.67 L96.01,62.66 L96.01,62.66 L95.78,61.53 L95.15,60.60 L94.22,59.98 L93.09,59.75 L93.08,59.75 Z" fill="#2f7ec8" stroke="#1e1e1e" stroke-width="1" stroke-linejoin="round"/><path d="M93.08,5.82 L11.75,5.82 L10.62,6.05 L9.69,6.67 L9.07,7.60 L8.84,8.73 L8.84,26.74 L9.07,27.87 L9.69,28.79 L10.61,29.42 L11.75,29.65 L93.09,29.65 L94.22,29.42 L95.15,28.80 L95.77,27.87 L96.00,26.74 L96.00,8.73 L96.00,8.73 L95.77,7.60 L95.15,6.67 L94.22,6.05 L93.08,5.82 Z" fill="#2f7ec8" stroke="#1e1e1e" stroke-width="1" stroke-linejoin="round"/><path d="M93.08,32.79 L11.75,32.79 L10.62,33.02 L9.69,33.64 L9.07,34.57 L8.84,35.70 L8.84,40.60 L11.79,39.78 L14.93,39.49 L16.68,39.58 L18.39,39.84 L20.04,40.26 L21.62,40.84 L23.12,41.56 L24.55,42.41 L27.11,44.50 L29.23,47.04 L30.11,48.45 L30.85,49.94 L31.45,51.52 L31.89,53.16 L32.18,54.86 L32.30,56.61 L93.08,56.61 L94.21,56.38 L95.14,55.76 L95.77,54.84 L95.99,53.70 L95.99,35.70 L95.99,35.70 L95.77,34.56 L95.14,33.64 L94.21,33.01 L93.08,32.78 L93.08,32.79 Z" fill="#2f7ec8" stroke="#1e1e1e" stroke-width="1" stroke-linejoin="round"/><rect x="82.79" y="63.93" width="6.51" height="6.51" fill="#ffffff" stroke="#ffffff" stroke-width="1"/><rect x="82.79" y="72.90" width="6.51" height="6.51" fill="#ffffff" stroke="#ffffff" stroke-width="1"/><rect x="82.79" y="36.96" width="6.51" height="6.51" fill="#ffffff" stroke="#ffffff" stroke-width="1"/><rect x="82.79" y="45.94" width="6.51" height="6.51" fill="#ffffff" stroke="#ffffff" stroke-width="1"/><rect x="82.79" y="9.99" width="6.51" height="6.51" fill="#ffffff" stroke="#ffffff" stroke-width="1"/><rect x="82.79" y="18.97" width="6.51" height="6.51" fill="#ffffff" stroke="#ffffff" stroke-width="1"/><path d="M23.12,67.59 L21.28,68.96 L19.24,69.97 L17.04,70.58 L14.76,70.79 L12.47,70.58 L10.28,69.97 L8.24,68.96 L6.39,67.59 L5.35,88.38 L5.58,89.34 L6.33,90.00 L7.32,90.11 L8.18,89.62 L14.63,83.07 L21.13,89.67 L21.98,90.15 L22.96,90.06 L23.71,89.42 L23.96,88.48 L23.11,67.59 L23.12,67.59 Z" fill="#41d2ee" stroke="#1e1e1e" stroke-width="1" stroke-linejoin="round"/><path d="M14.93,71.90 L17.94,71.60 L20.75,70.73 L23.28,69.34 L25.49,67.52 L27.32,65.30 L28.69,62.75 L29.56,59.94 L29.87,56.92 L29.56,53.90 L28.69,51.09 L27.32,48.55 L25.49,46.33 L23.28,44.50 L20.75,43.12 L17.94,42.25 L14.93,41.94 L11.92,42.25 L9.12,43.12 L6.58,44.50 L4.37,46.33 L2.55,48.55 L1.17,51.09 L0.30,53.90 L0.00,56.92 L0.30,59.94 L1.17,62.75 L2.55,65.30 L4.37,67.52 L6.58,69.34 L9.12,70.73 L11.92,71.60 L14.93,71.90 Z" fill="#26a4c8" stroke="#1e1e1e" stroke-width="1" stroke-linejoin="round"/><path d="M14.93,68.28 L17.22,68.05 L19.36,67.39 L21.29,66.34 L22.97,64.95 L24.35,63.27 L25.40,61.34 L26.06,59.21 L26.29,56.92 L26.06,54.63 L25.40,52.50 L24.35,50.57 L22.97,48.89 L21.28,47.50 L19.35,46.46 L17.22,45.79 L14.93,45.56 L12.64,45.79 L10.51,46.46 L8.58,47.50 L6.90,48.89 L5.51,50.57 L4.47,52.50 L3.80,54.63 L3.57,56.92 L3.80,59.21 L4.47,61.34 L5.51,63.27 L6.90,64.95 L8.58,66.34 L10.51,67.39 L12.64,68.05 L14.93,68.28 Z" fill="#76e8ff" stroke="#1e1e1e" stroke-width="1" stroke-linejoin="round"/></svg>