<svg xmlns="http://www.w3.org/2000/svg" viewBox="-1.90 4.94 100.00 86.06"><path d="M96.10,51.73 L96.10,42.18 L95.57,41.70 L85.74,38.39 L83.23,32.03 L88.09,22.00 L88.63,20.88 L85.42,17.62 L81.69,13.93 L80.40,14.58 L70.79,19.43 L64.33,17.62 L60.17,6.94 L50.61,6.94 L50.13,7.42 L46.82,17.19 L40.10,19.70 L28.99,14.36 L22.16,21.04 L22.80,22.32 L27.92,32.03 L31.91,30.00 L36.14,28.53 L40.54,27.68 L45.01,27.44 L50.07,27.85 L55.00,29.03 L59.71,30.93 L64.07,33.53 L65.05,34.19 L65.99,34.92 L65.99,34.92 L68.05,37.02 L69.72,39.45 L70.95,42.12 L70.95,42.12 L71.80,45.03 L72.08,48.05 L71.74,51.43 L70.75,54.67 L69.15,57.66 L66.99,60.28 L64.36,62.43 L61.36,64.01 L58.10,64.98 L54.72,65.29 L51.20,64.93 L47.83,63.87 L44.74,62.14 L41.09,65.19 L37.04,67.69 L32.68,69.60 L28.10,70.87 L23.38,71.49 L22.37,73.57 L29.20,80.46 L30.59,80.08 L40.20,74.74 L46.82,77.47 L51.04,89.00 L60.65,89.00 L61.02,87.66 L64.44,77.47 L70.95,74.74 L82.22,80.08 L89.00,73.36 L88.36,72.08 L83.39,62.52 L85.42,55.85 L96.10,51.73 Z" fill="#a2a2a2" stroke="#1e1e1e" stroke-width="1" stroke-linejoin="round"/><path d="M21.36,56.86 L21.36,56.86 L17.59,56.51 L13.96,55.42 L10.62,53.65 L7.69,51.25 L6.80,50.32 L6.51,49.08 L6.89,47.85 L7.83,46.98 L9.08,46.70 L10.30,47.10 L11.16,48.05 L13.36,49.77 L15.87,51.02 L18.56,51.76 L21.36,51.95 L21.36,51.95 L24.11,51.74 L26.76,51.00 L29.22,49.76 L31.39,48.05 L34.33,45.72 L37.66,44.01 L41.27,43.00 L45.01,42.71 L48.76,43.01 L52.39,44.03 L55.76,45.73 L58.73,48.05 L59.42,49.16 L59.44,50.46 L58.80,51.59 L57.67,52.24 L56.36,52.21 L55.26,51.52 L53.09,49.75 L50.62,48.44 L47.95,47.63 L45.17,47.36 L45.17,47.36 L42.39,47.61 L39.73,48.42 L37.27,49.74 L35.13,51.52 L32.15,53.85 L28.77,55.56 L25.13,56.58 L21.36,56.86 L21.36,56.86 Z" fill="#50e6ff" stroke="#1e1e1e" stroke-width="1" stroke-linejoin="round"/><path d="M21.36,47.09 L21.36,47.09 L18.90,46.77 L16.60,45.82 L14.63,44.31 L14.05,43.22 L14.07,41.98 L14.70,40.91 L15.77,40.29 L17.01,40.26 L18.10,40.84 L19.59,41.84 L21.36,42.18 L21.36,42.18 L23.06,41.76 L24.56,40.84 L28.03,37.92 L31.90,35.57 L36.10,33.84 L40.51,32.79 L45.03,32.44 L49.56,32.79 L53.97,33.84 L58.16,35.57 L62.04,37.92 L65.51,40.84 L66.09,41.94 L66.07,43.17 L65.44,44.24 L64.37,44.87 L63.13,44.90 L62.04,44.31 L58.80,41.62 L55.15,39.52 L51.18,38.08 L47.03,37.36 L42.82,37.36 L38.67,38.08 L34.71,39.52 L31.05,41.62 L27.82,44.31 L25.90,45.73 L23.71,46.67 L21.36,47.09 Z" fill="#50e6ff" stroke="#1e1e1e" stroke-width="1" stroke-linejoin="round"/><path d="M21.36,66.63 L16.79,66.30 L12.32,65.25 L8.09,63.51 L4.18,61.12 L0.69,58.14 L0.10,57.05 L0.10,55.81 L0.69,54.72 L1.81,54.09 L3.10,54.09 L4.22,54.72 L7.10,57.20 L10.35,59.19 L13.86,60.63 L17.56,61.50 L21.36,61.77 L25.14,61.48 L28.83,60.59 L32.33,59.13 L35.56,57.14 L38.44,54.67 L40.37,53.31 L42.56,52.42 L44.90,52.05 L47.34,52.40 L49.61,53.35 L51.57,54.83 L52.21,55.93 L52.21,57.20 L51.57,58.30 L50.46,58.94 L49.17,58.94 L48.05,58.30 L46.61,57.32 L44.90,56.97 L44.90,56.97 L43.18,57.39 L41.70,58.35 L38.25,61.25 L34.39,63.57 L30.23,65.27 L25.84,66.30 L21.36,66.63 L21.36,66.63 Z" fill="#32bedd" stroke="#1e1e1e" stroke-width="1" stroke-linejoin="round"/></svg>