<svg xmlns="http://www.w3.org/2000/svg" viewBox="0.56 0.13 94.88 95.73"><rect x="24.80" y="24.69" width="46.67" height="46.67" fill="#28b5da" stroke="#1e1e1e" stroke-width="1"/><path d="M62.83,64.96 L86.19,48.59 L86.51,48.00 L86.19,47.41 L62.83,31.09 L62.33,30.95 L61.87,31.19 L61.71,31.68 L61.71,41.07 L24.80,41.07 L24.80,54.93 L61.71,54.93 L61.71,64.37 L62.10,64.98 L62.83,64.96 L62.83,64.96 Z" fill="#c3f1ff" stroke="#1e1e1e" stroke-width="1" stroke-linejoin="round"/><path d="M90.67,93.87 L5.33,93.87 L3.95,93.50 L2.93,92.48 L2.56,91.09 L2.56,4.91 L2.93,3.52 L3.95,2.50 L5.33,2.13 L90.67,2.13 L92.05,2.50 L93.07,3.52 L93.44,4.91 L93.44,32.00 L93.11,32.94 L92.22,33.42 L91.25,33.17 L85.92,29.44 L85.49,28.92 L85.33,28.27 L85.33,10.67 L10.99,10.67 L10.99,85.33 L85.01,85.33 L85.01,68.27 L85.17,67.64 L85.60,67.15 L90.93,63.25 L91.90,63.01 L92.79,63.48 L93.12,64.43 L93.12,91.09 L92.81,92.39 L91.92,93.40 L90.67,93.87 Z" fill="#949494" stroke="#1e1e1e" stroke-width="1" stroke-linejoin="round"/><path d="M85.01,10.67 L85.01,28.00 L85.17,28.66 L85.60,29.17 L90.93,32.91 L91.90,33.35 L92.90,32.97 L93.33,32.00 L93.33,10.67 L85.01,10.67 Z" fill="#767676" stroke="#767676" stroke-width="1" stroke-linejoin="round"/><path d="M85.01,85.33 L85.01,68.00 L85.17,67.37 L85.60,66.88 L90.93,63.09 L91.89,62.90 L92.75,63.36 L93.12,64.27 L93.12,85.60 L85.01,85.33 Z" fill="#767676" stroke="#767676" stroke-width="1" stroke-linejoin="round"/></svg>