<svg xmlns="http://www.w3.org/2000/svg" viewBox="-0.50 -1.56 97.01 99.11"><path d="M2.17,35.31 L4.20,29.47 L6.97,23.95 L10.44,18.83 L14.54,14.21 L19.20,10.15 L24.35,6.74 L29.90,4.02 L35.76,2.04 L41.82,0.84 L47.99,0.44 L54.16,0.84 L60.22,2.04 L66.08,4.02 L71.63,6.74 L76.78,10.15 L81.45,14.21 L85.55,18.83 L89.01,23.95 L91.78,29.47 L93.81,35.31 L84.75,35.31 L82.52,30.11 L79.55,25.28 L75.92,20.94 L71.69,17.17 L66.97,14.05 L61.84,11.65 L56.41,10.02 L50.81,9.20 L45.14,9.20 L39.54,10.02 L34.12,11.65 L28.99,14.05 L24.26,17.17 L20.03,20.94 L16.40,25.28 L13.44,30.11 L11.21,35.31 L2.17,35.31 Z" fill="#9d9d9d" stroke="#1e1e1e" stroke-width="1" stroke-linejoin="round"/><path d="M84.58,61.25 L82.30,66.36 L79.31,71.09 L75.67,75.34 L71.47,79.03 L66.77,82.07 L61.69,84.41 L56.33,86.00 L50.79,86.81 L45.20,86.81 L39.66,86.00 L34.30,84.41 L29.22,82.07 L24.52,79.03 L20.31,75.34 L16.68,71.09 L13.69,66.36 L11.41,61.25 L2.33,61.25 L4.41,67.01 L7.21,72.45 L10.69,77.49 L14.79,82.04 L19.44,86.02 L24.56,89.38 L30.07,92.04 L35.87,93.98 L41.88,95.16 L47.99,95.55 L54.10,95.16 L60.11,93.98 L65.92,92.04 L71.43,89.38 L76.55,86.02 L81.20,82.04 L85.29,77.49 L88.77,72.45 L91.57,67.01 L93.65,61.25 L84.58,61.25 Z" fill="#9d9d9d" stroke="#1e1e1e" stroke-width="1" stroke-linejoin="round"/><path d="M51.41,70.09 L40.00,44.43 L35.20,52.72 L5.83,52.72 L4.17,52.39 L2.77,51.45 L1.83,50.05 L1.50,48.39 L1.83,46.74 L2.77,45.34 L4.17,44.40 L5.83,44.07 L30.22,44.07 L41.02,25.40 L53.46,53.38 L60.80,43.98 L90.19,44.04 L91.84,44.37 L93.25,45.31 L94.18,46.71 L94.51,48.37 L94.18,50.02 L93.25,51.43 L91.84,52.36 L90.19,52.69 L90.19,52.69 L65.03,52.63 L51.41,70.09 Z" fill="#50e6ff" stroke="#1e1e1e" stroke-width="1" stroke-linejoin="round"/></svg>