<svg xmlns="http://www.w3.org/2000/svg" viewBox="0.68 0.23 99.11 100.00"><path d="M72.50,25.84 L73.09,25.92 L73.65,26.15 L74.12,26.51 L74.48,26.99 L74.71,27.54 L74.79,28.13 L74.79,72.39 L74.71,72.98 L74.48,73.53 L74.12,74.01 L73.65,74.37 L73.09,74.60 L72.50,74.68 L28.24,74.68 L27.65,74.60 L27.10,74.37 L26.62,74.01 L26.26,73.53 L26.03,72.98 L25.95,72.39 L25.95,28.13 L26.03,27.54 L26.26,26.99 L26.62,26.51 L27.10,26.15 L27.65,25.92 L28.24,25.84 L72.50,25.84 Z" fill="#28b5da" stroke="#1e1e1e" stroke-width="1" stroke-linejoin="round"/><path d="M65.75,67.98 L90.20,50.85 L90.53,50.23 L90.20,49.62 L65.75,32.54 L65.23,32.39 L64.75,32.64 L64.58,33.15 L64.58,42.98 L25.95,42.98 L25.95,57.49 L64.58,57.49 L64.58,67.37 L64.99,68.00 L65.75,67.98 L65.75,67.98 Z" fill="#c3f1ff" stroke="#1e1e1e" stroke-width="1" stroke-linejoin="round"/><path d="M94.88,98.23 L5.58,98.23 L4.13,97.84 L3.07,96.78 L2.68,95.33 L2.68,5.13 L3.07,3.68 L4.13,2.62 L5.58,2.23 L94.88,2.23 L96.33,2.62 L97.40,3.68 L97.79,5.13 L97.79,33.49 L97.44,34.48 L96.51,34.97 L95.50,34.72 L89.92,30.81 L89.46,30.27 L89.30,29.58 L89.30,11.16 L11.50,11.16 L11.50,89.30 L88.97,89.30 L88.97,71.44 L89.13,70.78 L89.58,70.27 L95.16,66.20 L96.18,65.94 L97.10,66.44 L97.45,67.42 L97.45,95.33 L97.12,96.69 L96.19,97.74 L94.88,98.23 Z" fill="#949494" stroke="#1e1e1e" stroke-width="1" stroke-linejoin="round"/><path d="M88.97,11.16 L88.97,29.30 L89.13,29.99 L89.58,30.53 L95.16,34.44 L96.18,34.90 L97.22,34.50 L97.67,33.49 L97.67,11.16 L88.97,11.16 Z" fill="#767676" stroke="#767676" stroke-width="1" stroke-linejoin="round"/><path d="M88.97,89.30 L88.97,71.16 L89.13,70.50 L89.58,69.99 L95.16,66.03 L96.17,65.82 L97.07,66.31 L97.45,67.26 L97.45,89.58 L88.97,89.30 Z" fill="#767676" stroke="#767676" stroke-width="1" stroke-linejoin="round"/></svg>