<svg xmlns="http://www.w3.org/2000/svg" viewBox="16.12 -1.98 63.89 100.00"><path d="M74.77,37.92 L76.53,35.64 L77.64,32.98 L78.02,30.12 L77.64,27.27 L76.53,24.61 L74.77,22.33 L74.77,22.33 L55.87,3.26 L53.59,1.50 L50.93,0.39 L48.07,0.02 L45.21,0.39 L42.55,1.50 L40.27,3.26 L40.27,3.26 L21.36,22.33 L19.61,24.61 L18.50,27.27 L18.12,30.12 L18.50,32.98 L19.61,35.64 L21.36,37.92 L37.39,53.94 L38.06,54.95 L38.30,56.13 L38.30,85.46 L38.59,86.90 L39.42,88.13 L46.63,95.34 L47.74,96.02 L49.04,96.02 L50.15,95.34 L57.15,88.34 L57.15,88.34 L61.26,84.18 L61.65,83.53 L61.65,82.79 L61.26,82.15 L58.32,79.21 L57.90,78.50 L57.90,77.67 L58.32,76.96 L61.26,73.97 L61.65,73.33 L61.65,72.58 L61.26,71.94 L58.32,68.95 L57.90,68.26 L57.90,67.45 L58.32,66.76 L61.26,63.77 L61.65,63.13 L61.65,62.38 L61.26,61.74 L57.15,57.58 L57.15,56.08 L74.77,37.92 Z" fill="#ffca12" stroke="#ffca12" stroke-width="1" stroke-linejoin="round"/><path d="M48.07,7.85 L50.32,8.24 L52.27,9.41 L53.69,11.20 L54.38,13.37 L54.24,15.65 L53.31,17.73 L51.70,19.34 L49.62,20.28 L47.34,20.41 L45.17,19.72 L43.38,18.31 L42.21,16.35 L41.82,14.10 L42.13,12.17 L43.01,10.43 L44.40,9.04 L46.14,8.16 L48.07,7.85 L48.07,7.85 Z" fill="#ffffff" stroke="#ffffff" stroke-width="1" stroke-linejoin="round"/><path d="M43.10,86.15 L43.10,86.15 L43.81,86.54 L44.61,86.45 L45.21,85.92 L45.40,85.14 L45.40,61.26 L45.24,60.58 L44.76,60.09 L44.76,60.09 L43.82,59.87 L42.98,60.34 L42.68,61.26 L42.68,85.14 L42.79,85.69 L43.10,86.15 L43.10,86.15 Z" fill="#ff9300" stroke="#ff9300" stroke-width="1" stroke-linejoin="round" opacity="0.75"/><path d="M62.44,28.68 L62.88,28.74 L63.29,28.91 L63.65,29.18 L63.92,29.54 L64.09,29.95 L64.15,30.39 L64.15,30.66 L64.09,31.10 L63.92,31.51 L63.65,31.87 L63.29,32.14 L62.88,32.31 L62.44,32.37 L34.56,32.37 L34.11,32.31 L33.70,32.14 L33.35,31.87 L33.08,31.51 L32.91,31.10 L32.85,30.66 L32.85,30.39 L32.91,29.95 L33.08,29.54 L33.35,29.18 L33.70,28.91 L34.11,28.74 L34.56,28.68 L62.44,28.68 Z" fill="#ff9300" stroke="#ff9300" stroke-width="1" stroke-linejoin="round" opacity="0.75"/><path d="M62.44,34.66 L62.88,34.72 L63.29,34.89 L63.65,35.16 L63.92,35.52 L64.09,35.93 L64.15,36.37 L64.15,36.64 L64.09,37.08 L63.92,37.49 L63.65,37.85 L63.29,38.12 L62.88,38.29 L62.44,38.35 L34.56,38.35 L34.11,38.29 L33.70,38.12 L33.35,37.85 L33.08,37.49 L32.91,37.08 L32.85,36.64 L32.85,36.37 L32.91,35.93 L33.08,35.52 L33.35,35.16 L33.70,34.89 L34.11,34.72 L34.56,34.66 L62.44,34.66 Z" fill="#ff9300" stroke="#ff9300" stroke-width="1" stroke-linejoin="round" opacity="0.75"/></svg>