<svg xmlns="http://www.w3.org/2000/svg" viewBox="-0.48 -1.55 97.88 100.00"><path d="M2.19,35.64 L4.24,29.75 L7.04,24.17 L10.54,19.01 L14.67,14.34 L19.38,10.25 L24.58,6.80 L30.18,4.06 L36.10,2.06 L42.22,0.85 L48.44,0.45 L54.67,0.85 L60.79,2.06 L66.70,4.06 L72.30,6.80 L77.50,10.25 L82.21,14.34 L86.35,19.01 L89.84,24.17 L92.64,29.75 L94.69,35.64 L85.54,35.64 L83.29,30.39 L80.30,25.52 L76.63,21.13 L72.37,17.33 L67.59,14.18 L62.41,11.76 L56.94,10.12 L51.28,9.29 L45.57,9.29 L39.91,10.12 L34.44,11.76 L29.26,14.18 L24.49,17.33 L20.22,21.13 L16.55,25.52 L13.56,30.39 L11.31,35.64 L2.19,35.64 Z" fill="#9d9d9d" stroke="#1e1e1e" stroke-width="1" stroke-linejoin="round"/><path d="M85.37,61.82 L83.07,66.98 L80.05,71.75 L76.38,76.05 L72.14,79.77 L67.40,82.84 L62.27,85.20 L56.86,86.81 L51.27,87.62 L45.62,87.62 L40.03,86.81 L34.62,85.20 L29.49,82.84 L24.75,79.77 L20.50,76.05 L16.84,71.75 L13.82,66.98 L11.52,61.82 L2.35,61.82 L4.45,67.63 L7.28,73.13 L10.79,78.21 L14.93,82.80 L19.62,86.83 L24.79,90.21 L30.35,92.91 L36.21,94.86 L42.27,96.05 L48.44,96.45 L54.61,96.05 L60.67,94.86 L66.53,92.91 L72.10,90.21 L77.26,86.83 L81.96,82.80 L86.09,78.21 L89.60,73.13 L92.43,67.63 L94.53,61.82 L85.37,61.82 Z" fill="#9d9d9d" stroke="#1e1e1e" stroke-width="1" stroke-linejoin="round"/><path d="M51.89,70.74 L40.37,44.84 L35.53,53.21 L5.88,53.21 L4.21,52.88 L2.80,51.93 L1.85,50.52 L1.52,48.85 L1.85,47.18 L2.80,45.76 L4.21,44.81 L5.88,44.48 L30.50,44.48 L41.40,25.64 L53.96,53.88 L61.37,44.39 L91.03,44.46 L92.70,44.79 L94.12,45.73 L95.06,47.15 L95.40,48.82 L95.06,50.49 L94.12,51.91 L92.70,52.85 L91.03,53.19 L91.03,53.19 L65.64,53.13 L51.89,70.74 Z" fill="#50e6ff" stroke="#1e1e1e" stroke-width="1" stroke-linejoin="round"/></svg>