<svg xmlns="http://www.w3.org/2000/svg" viewBox="16.10 -1.98 63.81 99.86"><path d="M74.67,37.87 L76.42,35.59 L77.53,32.93 L77.90,30.08 L77.53,27.23 L76.42,24.57 L74.67,22.29 L74.67,22.29 L55.79,3.25 L53.51,1.50 L50.85,0.39 L48.00,0.02 L45.15,0.39 L42.49,1.50 L40.21,3.25 L40.21,3.25 L21.33,22.29 L19.58,24.57 L18.47,27.23 L18.10,30.08 L18.47,32.93 L19.58,35.59 L21.33,37.87 L37.33,53.87 L38.01,54.87 L38.24,56.05 L38.24,85.33 L38.54,86.78 L39.36,88.00 L46.56,95.20 L47.67,95.88 L48.97,95.88 L50.08,95.20 L57.07,88.21 L57.07,88.21 L61.17,84.05 L61.56,83.41 L61.56,82.67 L61.17,82.03 L58.24,79.09 L57.82,78.39 L57.82,77.56 L58.24,76.85 L61.17,73.87 L61.56,73.23 L61.56,72.48 L61.17,71.84 L58.24,68.85 L57.82,68.16 L57.82,67.36 L58.24,66.67 L61.17,63.68 L61.56,63.04 L61.56,62.29 L61.17,61.65 L57.07,57.49 L57.07,56.00 L74.67,37.87 Z" fill="#ffca12" stroke="#ffca12" stroke-width="1" stroke-linejoin="round"/><path d="M48.00,7.84 L50.24,8.23 L52.20,9.40 L53.61,11.18 L54.30,13.35 L54.17,15.63 L53.23,17.70 L51.62,19.31 L49.55,20.25 L47.27,20.38 L45.10,19.69 L43.32,18.28 L42.15,16.32 L41.76,14.08 L42.07,12.15 L42.95,10.41 L44.33,9.03 L46.07,8.15 L48.00,7.84 L48.00,7.84 Z" fill="#ffffff" stroke="#ffffff" stroke-width="1" stroke-linejoin="round"/><path d="M43.04,86.03 L43.04,86.03 L43.74,86.41 L44.54,86.32 L45.14,85.79 L45.33,85.01 L45.33,61.17 L45.18,60.50 L44.69,60.00 L44.69,60.00 L43.75,59.78 L42.91,60.26 L42.61,61.17 L42.61,85.01 L42.73,85.56 L43.04,86.03 L43.04,86.03 Z" fill="#ff9300" stroke="#ff9300" stroke-width="1" stroke-linejoin="round" opacity="0.75"/><path d="M62.35,28.64 L62.79,28.70 L63.20,28.87 L63.55,29.14 L63.82,29.49 L64.00,29.90 L64.05,30.35 L64.05,30.61 L64.00,31.06 L63.82,31.47 L63.55,31.82 L63.20,32.09 L62.79,32.26 L62.35,32.32 L34.51,32.32 L34.06,32.26 L33.65,32.09 L33.30,31.82 L33.03,31.47 L32.86,31.06 L32.80,30.61 L32.80,30.35 L32.86,29.90 L33.03,29.49 L33.30,29.14 L33.65,28.87 L34.06,28.70 L34.51,28.64 L62.35,28.64 Z" fill="#ff9300" stroke="#ff9300" stroke-width="1" stroke-linejoin="round" opacity="0.75"/><path d="M62.35,34.61 L62.79,34.67 L63.20,34.84 L63.55,35.11 L63.82,35.47 L64.00,35.88 L64.05,36.32 L64.05,36.59 L64.00,37.03 L63.82,37.44 L63.55,37.79 L63.20,38.06 L62.79,38.24 L62.35,38.29 L34.51,38.29 L34.06,38.24 L33.65,38.06 L33.30,37.79 L33.03,37.44 L32.86,37.03 L32.80,36.59 L32.80,36.32 L32.86,35.88 L33.03,35.47 L33.30,35.11 L33.65,34.84 L34.06,34.67 L34.51,34.61 L62.35,34.61 Z" fill="#ff9300" stroke="#ff9300" stroke-width="1" stroke-linejoin="round" opacity="0.75"/></svg>