<svg xmlns="http://www.w3.org/2000/svg" viewBox="0.00 0.44 100.00 99.06"><path d="M84.61,20.89 L76.94,13.44 L76.17,13.44 L65.83,19.00 L58.44,15.72 L53.78,2.44 L43.06,2.56 L42.56,4.06 L38.89,15.61 L31.50,18.78 L18.94,13.22 L11.50,20.72 L12.28,22.22 L17.83,32.94 L14.89,40.33 L2.00,45.17 L2.00,56.00 L3.50,56.50 L15.06,60.06 L18.22,67.44 L12.67,80.06 L20.39,87.56 L21.78,86.78 L32.50,81.22 L35.94,85.44 L44.83,97.17 L55.56,97.17 L56.06,95.67 L59.89,88.89 L66.00,85.83 L78.11,85.11 L85.67,77.39 L85.67,76.67 L87.17,71.11 L91.56,57.94 L84.61,20.89 Z" fill="#3f93e6" stroke="#1e1e1e" stroke-width="1" stroke-linejoin="round"/><path d="M49.28,74.06 L44.72,73.63 L40.32,72.36 L36.23,70.29 L32.61,67.48 L29.58,64.05 L27.25,60.10 L25.70,55.79 L24.99,51.27 L25.14,46.69 L26.15,42.22 L27.98,38.02 L30.57,34.24 L33.82,31.01 L37.62,28.45 L41.83,26.65 L46.30,25.68 L50.88,25.56 L55.40,26.30 L59.70,27.88 L63.63,30.24 L67.04,33.29 L69.82,36.93 L71.87,41.03 L73.11,45.44 L73.50,50.00 L73.11,54.19 L72.00,58.24 L70.20,62.04 L67.77,65.47 L64.79,68.44 L61.34,70.84 L57.53,72.61 L53.47,73.69 L49.28,74.06 L49.28,74.06 Z" fill="#ffffff" stroke="#1e1e1e" stroke-width="1" stroke-linejoin="round"/><path d="M66.00,49.39 L65.85,51.38 L65.42,53.32 L64.76,55.20 L63.88,57.00 L62.83,58.73 L61.65,60.37 L59.00,63.38 L56.22,65.96 L53.58,68.06 L49.83,70.61 L49.28,70.74 L48.72,70.61 L44.99,68.06 L42.36,65.96 L39.58,63.38 L36.95,60.37 L35.77,58.73 L34.72,57.00 L33.85,55.20 L33.18,53.32 L32.76,51.38 L32.61,49.39 L32.61,36.44 L32.90,35.72 L33.61,35.39 L36.93,35.19 L39.33,34.65 L41.07,33.89 L42.42,33.03 L43.65,32.16 L45.03,31.40 L46.81,30.87 L49.28,30.67 L51.75,30.86 L53.56,31.37 L54.96,32.09 L56.22,32.92 L57.58,33.77 L59.32,34.53 L61.69,35.11 L64.94,35.39 L65.68,35.71 L66.00,36.44 L66.00,49.39 Z" fill="#32bedd" stroke="#1e1e1e" stroke-width="1" stroke-linejoin="round"/><path d="M64.61,49.50 L64.47,51.33 L64.08,53.11 L63.47,54.83 L62.67,56.48 L60.62,59.57 L58.19,62.33 L55.64,64.69 L53.22,66.62 L49.78,68.94 L49.28,69.07 L48.78,68.94 L45.34,66.62 L42.93,64.69 L40.39,62.33 L37.97,59.57 L35.93,56.48 L35.14,54.83 L34.53,53.11 L34.14,51.33 L34.00,49.50 L34.00,37.61 L34.26,36.96 L34.89,36.67 L37.95,36.48 L40.15,35.99 L41.76,35.30 L43.00,34.50 L44.13,33.70 L45.39,33.01 L47.02,32.52 L49.28,32.33 L51.53,32.51 L53.17,32.98 L54.44,33.65 L55.58,34.42 L56.82,35.20 L58.43,35.90 L60.63,36.42 L63.67,36.67 L64.32,36.96 L64.61,37.61 L64.61,49.50 Z" fill="#50e6ff" stroke="#1e1e1e" stroke-width="1" stroke-linejoin="round"/><path d="M56.00,47.56 L55.06,47.56 L55.06,44.44 L54.62,42.15 L53.39,40.17 L52.22,39.17 L50.81,38.56 L49.28,38.39 L47.76,38.59 L46.35,39.20 L45.17,40.17 L43.93,42.15 L43.50,44.44 L43.50,47.78 L42.56,47.78 L42.01,48.01 L41.78,48.56 L41.78,57.22 L42.02,57.74 L42.56,57.94 L56.00,57.94 L56.55,57.75 L56.78,57.22 L56.78,48.33 L56.55,47.78 L56.00,47.56 L56.00,47.56 Z" fill="#f2f2f2" stroke="#f2f2f2" stroke-width="1" stroke-linejoin="round"/><path d="M52.33,47.56 L46.22,47.56 L46.22,44.44 L46.46,43.18 L47.17,42.11 L48.12,41.42 L49.28,41.17 L50.44,41.41 L51.39,42.11 L51.78,42.56 L51.78,42.56 L52.18,43.46 L52.33,44.44 L52.33,47.56 Z" fill="#50e6ff" stroke="#50e6ff" stroke-width="1" stroke-linejoin="round"/><path d="M78.67,13.28 L82.61,5.11 L82.67,4.44 L82.22,3.94 L81.78,3.94 L51.17,6.28 L50.59,6.59 L50.39,7.22 L50.35,7.44 L50.39,7.67 L67.72,32.67 L68.33,32.91 L68.94,32.67 L69.22,32.33 L72.67,25.17 L73.17,24.72 L73.83,24.72 L73.83,24.72 L77.38,28.05 L80.44,31.83 L82.94,36.00 L84.84,40.48 L86.11,45.17 L86.72,50.00 L86.41,55.59 L85.22,61.07 L83.18,66.29 L80.36,71.13 L76.81,75.47 L72.62,79.20 L67.91,82.22 L62.78,84.47 L57.35,85.89 L51.78,86.44 L47.31,86.26 L42.90,85.55 L38.61,84.30 L34.50,82.56 L33.85,82.49 L33.33,82.89 L28.78,91.11 L28.71,91.76 L29.11,92.28 L29.11,92.28 L34.76,94.74 L40.68,96.45 L46.78,97.37 L52.94,97.50 L59.06,96.82 L65.05,95.36 L70.79,93.13 L76.20,90.17 L81.18,86.53 L85.64,82.28 L89.51,77.48 L92.72,72.22 L95.12,66.86 L96.81,61.23 L97.78,55.43 L98.00,49.56 L97.31,43.68 L95.88,37.95 L93.73,32.44 L90.92,27.24 L87.46,22.44 L83.43,18.12 L78.89,14.33 L78.61,13.84 L78.67,13.28 L78.67,13.28 Z" fill="#86d633" stroke="#1e1e1e" stroke-width="1" stroke-linejoin="round"/></svg>