<svg xmlns="http://www.w3.org/2000/svg" viewBox="0.82 12.23 100.00 77.24"><path d="M40.32,14.23 L40.73,14.28 L41.11,14.44 L41.44,14.69 L41.69,15.02 L41.85,15.40 L41.90,15.81 L41.90,42.64 L41.85,43.04 L41.69,43.43 L41.44,43.75 L41.11,44.00 L40.73,44.16 L40.32,44.22 L4.40,44.22 L4.00,44.16 L3.61,44.00 L3.29,43.75 L3.04,43.43 L2.88,43.04 L2.82,42.64 L2.82,15.81 L2.88,15.40 L3.04,15.02 L3.29,14.69 L3.61,14.44 L4.00,14.28 L4.40,14.23 L40.32,14.23 Z" fill="#26afd4" stroke="#1e1e1e" stroke-width="1" stroke-linejoin="round"/><path d="M97.24,31.51 L97.65,31.56 L98.03,31.72 L98.36,31.97 L98.61,32.30 L98.77,32.68 L98.82,33.09 L98.82,59.92 L98.77,60.32 L98.61,60.71 L98.36,61.03 L98.03,61.28 L97.65,61.44 L97.24,61.50 L61.33,61.50 L60.92,61.44 L60.54,61.28 L60.21,61.03 L59.96,60.71 L59.80,60.32 L59.75,59.92 L59.75,33.09 L59.80,32.68 L59.96,32.30 L60.21,31.97 L60.54,31.72 L60.92,31.56 L61.33,31.51 L97.24,31.51 Z" fill="#26afd4" stroke="#1e1e1e" stroke-width="1" stroke-linejoin="round"/><path d="M46.98,57.49 L47.60,57.57 L48.17,57.80 L48.66,58.18 L49.04,58.67 L49.27,59.24 L49.36,59.86 L49.36,85.10 L49.27,85.72 L49.04,86.29 L48.66,86.78 L48.17,87.16 L47.60,87.39 L46.98,87.47 L12.65,87.47 L12.04,87.39 L11.46,87.16 L10.97,86.78 L10.60,86.29 L10.36,85.72 L10.28,85.10 L10.28,59.86 L10.36,59.24 L10.60,58.67 L10.97,58.18 L11.46,57.80 L12.04,57.57 L12.65,57.49 L46.98,57.49 Z" fill="#26afd4" stroke="#1e1e1e" stroke-width="1" stroke-linejoin="round"/><path d="M74.26,50.37 L75.56,46.76 L27.22,28.97 L25.92,32.53 L74.26,50.37 Z" fill="#773adc" stroke="#1e1e1e" stroke-width="1" stroke-linejoin="round"/><path d="M77.25,49.86 L75.44,46.48 L29.87,70.48 L31.62,73.86 L77.25,49.86 Z" fill="#773adc" stroke="#1e1e1e" stroke-width="1" stroke-linejoin="round"/><path d="M28.24,75.50 L32.02,74.82 L24.34,31.28 L20.56,31.96 L28.24,75.50 Z" fill="#773adc" stroke="#1e1e1e" stroke-width="1" stroke-linejoin="round"/><path d="M84.40,43.22 L84.70,43.74 L84.94,44.29 L85.13,44.86 L85.26,45.44 L85.33,46.04 L85.35,46.63 L85.31,47.23 L85.20,47.82 L85.04,48.40 L84.83,48.96 L84.56,49.49 L84.24,50.00 L83.87,50.47 L83.46,50.90 L83.01,51.30 L82.52,51.64 L82.00,51.94 L81.45,52.18 L80.88,52.37 L80.30,52.50 L79.71,52.57 L79.11,52.59 L78.51,52.55 L77.92,52.44 L77.35,52.29 L76.79,52.07 L76.25,51.80 L75.75,51.48 L75.27,51.11 L74.84,50.70 L74.45,50.25 L74.10,49.76 L73.81,49.24 L73.56,48.69 L73.38,48.13 L73.24,47.54 L73.17,46.95 L73.15,46.35 L73.20,45.75 L73.30,45.16 L73.46,44.59 L73.67,44.03 L73.94,43.49 L74.26,42.99 L74.63,42.51 L75.04,42.08 L75.49,41.69 L75.98,41.34 L76.50,41.05 L77.05,40.80 L77.62,40.62 L78.20,40.48 L78.80,40.41 L79.39,40.39 L79.99,40.44 L80.58,40.54 L81.16,40.70 L81.72,40.91 L82.25,41.18 L82.76,41.50 L83.23,41.87 L83.66,42.28 L84.06,42.73 L84.40,43.22 Z" fill="#ffffff" stroke="#ffffff" stroke-width="1" stroke-linejoin="round"/><path d="M27.53,25.94 L27.83,26.46 L28.07,27.01 L28.26,27.57 L28.39,28.16 L28.47,28.75 L28.48,29.35 L28.44,29.95 L28.34,30.54 L28.18,31.11 L27.96,31.67 L27.70,32.21 L27.38,32.71 L27.01,33.19 L26.60,33.62 L26.14,34.01 L25.65,34.36 L25.13,34.65 L24.59,34.90 L24.02,35.08 L23.44,35.22 L22.84,35.29 L22.24,35.31 L21.65,35.26 L21.06,35.16 L20.48,35.00 L19.92,34.79 L19.39,34.52 L18.88,34.20 L18.41,33.83 L17.97,33.42 L17.58,32.97 L17.24,32.48 L16.94,31.96 L16.70,31.41 L16.51,30.84 L16.38,30.26 L16.30,29.66 L16.29,29.07 L16.33,28.47 L16.43,27.88 L16.59,27.30 L16.81,26.74 L17.08,26.21 L17.40,25.70 L17.76,25.23 L18.18,24.80 L18.63,24.40 L19.12,24.06 L19.64,23.76 L20.18,23.52 L20.75,23.33 L21.34,23.20 L21.93,23.13 L22.53,23.11 L23.13,23.15 L23.72,23.26 L24.29,23.41 L24.85,23.63 L25.39,23.90 L25.89,24.22 L26.36,24.59 L26.80,25.00 L27.19,25.45 L27.53,25.94 Z" fill="#ffffff" stroke="#ffffff" stroke-width="1" stroke-linejoin="round"/><path d="M35.04,69.16 L35.33,69.68 L35.57,70.23 L35.76,70.80 L35.90,71.38 L35.97,71.97 L35.98,72.57 L35.94,73.17 L35.84,73.76 L35.68,74.34 L35.47,74.90 L35.20,75.43 L34.88,75.94 L34.51,76.41 L34.10,76.84 L33.65,77.23 L33.16,77.58 L32.64,77.87 L32.09,78.12 L31.52,78.31 L30.94,78.44 L30.34,78.51 L29.74,78.53 L29.15,78.48 L28.56,78.38 L27.98,78.22 L27.42,78.01 L26.89,77.74 L26.38,77.42 L25.91,77.05 L25.48,76.64 L25.08,76.19 L24.74,75.70 L24.44,75.18 L24.20,74.63 L24.01,74.06 L23.88,73.48 L23.81,72.89 L23.79,72.29 L23.83,71.69 L23.94,71.10 L24.09,70.52 L24.31,69.97 L24.58,69.43 L24.90,68.92 L25.26,68.45 L25.68,68.02 L26.13,67.63 L26.62,67.28 L27.14,66.99 L27.69,66.74 L28.25,66.55 L28.84,66.42 L29.43,66.35 L30.03,66.33 L30.63,66.38 L31.22,66.48 L31.79,66.64 L32.35,66.85 L32.89,67.12 L33.39,67.44 L33.87,67.81 L34.30,68.22 L34.69,68.67 L35.04,69.16 Z" fill="#ffffff" stroke="#ffffff" stroke-width="1" stroke-linejoin="round"/></svg>