<svg xmlns="http://www.w3.org/2000/svg" viewBox="4.13 -2.00 87.73 100.00"><path d="M48.00,0.00 L6.13,23.95 L6.13,71.79 L48.00,96.00 L89.87,72.05 L89.87,24.05 L48.00,0.00 Z" fill="#0078d4" stroke="#1e1e1e" stroke-width="1" stroke-linejoin="round"/><path d="M82.13,67.04 L48.00,86.77 L13.87,67.25 L13.87,28.69 L48.00,8.96 L82.13,28.75 L82.13,67.04 Z" fill="#ffffff" stroke="#1e1e1e" stroke-width="1" stroke-linejoin="round"/><path d="M48.00,0.00 L48.00,0.00 L6.13,23.95 L13.87,28.69 L48.00,8.96 L48.00,8.96 L82.13,28.69 L89.87,23.95 L48.00,0.00 Z" fill="#0066b4" stroke="#1e1e1e" stroke-width="1" stroke-linejoin="round"/><path d="M67.95,55.87 L67.20,54.97 L66.22,54.34 L64.09,50.45 L61.43,46.90 L58.29,43.76 L54.73,41.11 L50.84,38.98 L46.68,37.44 L42.34,36.50 L76.89,16.53 L68.85,11.93 L29.51,34.67 L28.24,35.84 L27.57,37.44 L27.65,39.17 L28.45,40.71 L29.83,41.76 L31.52,42.13 L31.76,42.08 L32.00,42.01 L32.67,44.80 L37.00,44.21 L41.36,44.44 L45.60,45.49 L49.57,47.33 L53.11,49.88 L56.12,53.05 L58.46,56.74 L19.27,79.39 L27.27,84.01 L66.49,61.33 L67.20,60.78 L67.78,60.07 L68.18,59.98 L68.04,59.53 L68.41,58.32 L68.38,57.06 L67.95,55.87 L67.95,55.87 Z" fill="#50e6ff" stroke="#1e1e1e" stroke-width="1" stroke-linejoin="round"/><path d="M64.49,48.07 L61.79,48.45 L59.29,49.55 L57.19,51.29 L55.65,53.54 L54.79,56.12 L54.66,58.85 L55.28,61.50 L56.61,63.88 L58.54,65.81 L60.92,67.14 L63.57,67.76 L66.30,67.63 L68.88,66.77 L71.13,65.23 L72.87,63.13 L73.98,60.64 L74.35,57.94 L74.02,55.38 L73.03,53.00 L71.46,50.96 L69.42,49.39 L67.04,48.41 L64.49,48.07 Z" fill="#50e6ff" stroke="#1e1e1e" stroke-width="1" stroke-linejoin="round"/><path d="M31.51,28.09 L28.81,28.47 L26.32,29.57 L24.22,31.31 L22.68,33.56 L21.82,36.14 L21.69,38.87 L22.31,41.52 L23.64,43.90 L25.57,45.83 L27.95,47.16 L30.60,47.78 L33.33,47.66 L35.91,46.79 L38.16,45.25 L39.90,43.15 L41.00,40.66 L41.38,37.96 L41.05,35.40 L40.06,33.02 L38.49,30.98 L36.45,29.41 L34.07,28.43 L31.51,28.09 L31.51,28.09 Z" fill="#50e6ff" stroke="#1e1e1e" stroke-width="1" stroke-linejoin="round"/></svg>