<svg xmlns="http://www.w3.org/2000/svg" viewBox="4.16 0.67 87.68 94.67"><path d="M6.16,26.29 L6.16,29.02 L48.00,52.63 L85.37,31.53 L85.37,40.06 L48.00,61.29 L8.27,38.71 L6.16,39.88 L6.16,56.21 L48.00,79.76 L85.37,58.74 L85.37,67.19 L48.00,88.43 L8.27,65.85 L6.16,67.02 L6.16,69.79 L48.00,93.33 L89.84,69.79 L89.84,53.45 L87.71,52.28 L48.00,74.86 L10.62,53.62 L10.62,45.21 L48.00,66.21 L89.84,42.67 L89.84,26.55 L87.71,25.38 L48.00,47.96 L12.54,27.81 L48.00,7.79 L77.21,24.29 L79.76,22.85 L79.76,20.60 L48.00,2.67 L6.16,26.29 Z" fill="#ff3621" stroke="#1e1e1e" stroke-width="1" stroke-linejoin="round"/></svg>