<svg xmlns="http://www.w3.org/2000/svg" viewBox="4.52 0.82 92.60 100.00"><path d="M6.52,27.84 L6.52,30.73 L50.82,55.73 L90.39,33.38 L90.39,42.42 L50.82,64.89 L8.75,40.99 L6.52,42.23 L6.52,59.52 L50.82,84.45 L90.39,62.19 L90.39,71.15 L50.82,93.63 L8.75,69.72 L6.52,70.97 L6.52,73.90 L50.82,98.82 L95.12,73.90 L95.12,56.59 L92.87,55.36 L50.82,79.26 L11.25,56.78 L11.25,47.86 L50.82,70.10 L95.12,45.18 L95.12,28.11 L92.87,26.87 L50.82,50.78 L13.28,29.45 L50.82,8.24 L81.75,25.72 L84.45,24.20 L84.45,21.81 L50.82,2.82 L6.52,27.84 Z" fill="#ff3621" stroke="#1e1e1e" stroke-width="1" stroke-linejoin="round"/></svg>