<svg xmlns="http://www.w3.org/2000/svg" viewBox="-1.36 12.88 98.69 70.22"><path d="M74.19,55.63 L74.19,51.68 L74.27,50.78 L74.51,49.94 L75.38,48.47 L76.68,47.40 L78.29,46.83 L78.29,31.41 L0.64,31.41 L0.64,74.67 L0.85,75.68 L1.41,76.51 L2.24,77.07 L3.25,77.28 L54.03,77.28 L55.12,72.92 L56.63,69.02 L58.55,65.58 L60.88,62.61 L63.61,60.12 L66.73,58.12 L70.24,56.62 L74.13,55.63 L74.19,55.63 Z" fill="#32cced" stroke="#1e1e1e" stroke-width="1" stroke-linejoin="round"/><path d="M69.55,77.28 L69.55,77.17 L69.28,77.28 L69.55,77.28 Z" fill="#32cced" stroke="#32cced" stroke-width="1" stroke-linejoin="round"/><path d="M3.25,14.88 L75.68,14.88 L76.70,15.09 L77.53,15.65 L78.09,16.48 L78.29,17.49 L78.29,17.49 L78.29,31.41 L0.64,31.41 L0.64,17.49 L0.85,16.48 L1.41,15.65 L2.24,15.09 L3.25,14.88 L3.25,14.88 L3.25,14.88 Z" fill="#0078d4" stroke="#1e1e1e" stroke-width="1" stroke-linejoin="round"/><rect x="9.01" y="37.17" width="28.69" height="15.57" fill="#0078d4" stroke="#1e1e1e" stroke-width="1"/><rect x="41.01" y="37.17" width="28.69" height="15.57" fill="#ffffff" stroke="#1e1e1e" stroke-width="1"/><rect x="8.85" y="55.79" width="28.69" height="15.57" fill="#0078d4" stroke="#1e1e1e" stroke-width="1"/><path d="M69.49,56.91 L69.07,56.11 L68.69,55.87 L68.21,55.79 L42.13,55.79 L41.64,55.89 L41.23,56.17 L40.96,56.57 L40.85,57.07 L40.85,70.03 L40.96,70.52 L41.23,70.93 L41.64,71.20 L42.13,71.31 L55.63,71.31 L56.70,68.73 L57.97,66.38 L59.43,64.24 L61.08,62.32 L62.91,60.62 L64.93,59.14 L67.12,57.89 L69.49,56.85 L69.49,56.91 Z" fill="#0078d4" stroke="#1e1e1e" stroke-width="1" stroke-linejoin="round"/><path d="M77.33,58.40 L77.33,51.68 L77.62,50.70 L78.33,50.08 L79.25,49.89 L80.16,50.24 L80.37,50.40 L94.77,64.21 L95.17,64.76 L95.33,65.39 L95.25,66.04 L94.93,66.61 L94.77,66.83 L80.37,80.64 L79.48,81.10 L78.53,81.03 L77.75,80.49 L77.33,79.57 L77.33,79.31 L77.33,72.59 L76.59,72.59 L74.23,72.71 L71.96,73.08 L69.78,73.69 L67.69,74.55 L65.67,75.66 L63.74,77.02 L61.88,78.62 L60.11,80.48 L59.62,80.89 L59.08,81.09 L58.53,81.09 L57.99,80.93 L57.53,80.62 L57.17,80.18 L56.97,79.63 L56.96,78.99 L57.92,74.60 L59.31,70.73 L61.14,67.37 L62.22,65.89 L63.40,64.53 L64.69,63.31 L66.08,62.21 L67.58,61.25 L69.19,60.42 L72.71,59.14 L76.64,58.40 L77.39,58.40 L77.39,51.63 L77.39,58.35 L77.33,58.40 Z" fill="#4796e8" stroke="#1e1e1e" stroke-width="1" stroke-linejoin="round"/></svg>