<svg xmlns="http://www.w3.org/2000/svg" viewBox="-2.00 -2.00 100.00 100.00"><path d="M41.46,19.64 L0.00,61.09 L0.00,87.27 L0.30,89.53 L1.17,91.64 L2.56,93.44 L4.36,94.83 L6.47,95.70 L8.73,96.00 L87.27,96.00 L89.53,95.70 L91.64,94.83 L93.44,93.44 L94.83,91.64 L95.70,89.53 L96.00,87.27 L96.00,8.73 L95.70,6.47 L94.83,4.36 L93.44,2.56 L91.64,1.17 L89.53,0.30 L87.27,0.00 L82.91,0.00 L52.36,30.54 L41.46,19.64 Z" fill="#148ae3" stroke="#1e1e1e" stroke-width="1" stroke-linejoin="round"/><path d="M41.46,45.82 L3.13,84.15 L1.74,85.64 L0.89,87.49 L0.66,89.51 L1.09,91.50 L2.47,93.36 L4.30,94.79 L6.43,95.69 L8.73,96.00 L87.27,96.00 L89.53,95.70 L91.64,94.83 L93.44,93.44 L94.83,91.64 L95.70,89.53 L96.00,87.27 L96.00,13.09 L52.36,56.73 L41.46,45.82 Z" fill="#00b0f0" stroke="#1e1e1e" stroke-width="1" stroke-linejoin="round"/><path d="M52.36,30.54 L82.91,0.00 L8.73,0.00 L6.47,0.30 L4.36,1.17 L2.56,2.56 L1.17,4.36 L0.30,6.47 L-0.00,8.73 L0.00,61.09 L41.46,19.64 L52.36,30.54 Z" fill="#66e9ff" stroke="#1e1e1e" stroke-width="1" stroke-linejoin="round"/></svg>