<svg xmlns="http://www.w3.org/2000/svg" viewBox="-1.35 13.09 100.00 71.14"><path d="M75.21,56.39 L75.21,52.39 L75.29,51.48 L75.53,50.63 L76.42,49.14 L77.74,48.05 L79.37,47.47 L79.37,31.85 L0.65,31.85 L0.65,75.70 L0.86,76.73 L1.43,77.57 L2.27,78.14 L3.30,78.35 L54.77,78.35 L55.88,73.93 L57.41,69.97 L59.36,66.49 L61.72,63.48 L64.49,60.95 L67.65,58.93 L71.21,57.40 L75.16,56.39 L75.21,56.39 Z" fill="#32cced" stroke="#1e1e1e" stroke-width="1" stroke-linejoin="round"/><path d="M70.51,78.35 L70.51,78.24 L70.24,78.35 L70.51,78.35 Z" fill="#32cced" stroke="#32cced" stroke-width="1" stroke-linejoin="round"/><path d="M3.30,15.09 L76.72,15.09 L77.75,15.29 L78.60,15.86 L79.17,16.70 L79.37,17.73 L79.37,17.73 L79.37,31.85 L0.65,31.85 L0.65,17.73 L0.86,16.70 L1.43,15.86 L2.27,15.29 L3.30,15.09 L3.30,15.09 L3.30,15.09 Z" fill="#0078d4" stroke="#1e1e1e" stroke-width="1" stroke-linejoin="round"/><path d="M36.93,37.69 L37.27,37.73 L37.58,37.86 L37.85,38.07 L38.05,38.34 L38.18,38.65 L38.23,38.98 L38.23,52.18 L38.18,52.51 L38.05,52.83 L37.85,53.09 L37.58,53.30 L37.27,53.43 L36.93,53.47 L10.44,53.47 L10.10,53.43 L9.79,53.30 L9.52,53.09 L9.31,52.83 L9.18,52.51 L9.14,52.18 L9.14,38.98 L9.18,38.65 L9.31,38.34 L9.52,38.07 L9.79,37.86 L10.10,37.73 L10.44,37.69 L36.93,37.69 Z" fill="#0078d4" stroke="#1e1e1e" stroke-width="1" stroke-linejoin="round"/><path d="M69.37,37.69 L69.71,37.73 L70.02,37.86 L70.29,38.07 L70.49,38.34 L70.62,38.65 L70.67,38.98 L70.67,52.18 L70.62,52.51 L70.49,52.83 L70.29,53.09 L70.02,53.30 L69.71,53.43 L69.37,53.47 L42.88,53.47 L42.54,53.43 L42.23,53.30 L41.96,53.09 L41.75,52.83 L41.62,52.51 L41.58,52.18 L41.58,38.98 L41.62,38.65 L41.75,38.34 L41.96,38.07 L42.23,37.86 L42.54,37.73 L42.88,37.69 L69.37,37.69 Z" fill="#ffffff" stroke="#1e1e1e" stroke-width="1" stroke-linejoin="round"/><path d="M36.77,56.56 L37.10,56.60 L37.42,56.73 L37.68,56.94 L37.89,57.21 L38.02,57.52 L38.06,57.85 L38.06,71.05 L38.02,71.38 L37.89,71.70 L37.68,71.96 L37.42,72.17 L37.10,72.30 L36.77,72.34 L10.27,72.34 L9.94,72.30 L9.62,72.17 L9.36,71.96 L9.15,71.70 L9.02,71.38 L8.98,71.05 L8.98,57.85 L9.02,57.52 L9.15,57.21 L9.36,56.94 L9.62,56.73 L9.94,56.60 L10.27,56.56 L36.77,56.56 Z" fill="#0078d4" stroke="#1e1e1e" stroke-width="1" stroke-linejoin="round"/><path d="M70.45,57.69 L70.03,56.88 L69.64,56.64 L69.15,56.56 L42.71,56.56 L42.22,56.66 L41.80,56.94 L41.52,57.35 L41.42,57.85 L41.42,70.99 L41.52,71.49 L41.80,71.91 L42.22,72.19 L42.71,72.29 L56.39,72.29 L57.49,69.68 L58.77,67.29 L60.25,65.13 L61.92,63.18 L63.78,61.46 L65.82,59.96 L68.05,58.68 L70.45,57.64 L70.45,57.69 Z" fill="#0078d4" stroke="#1e1e1e" stroke-width="1" stroke-linejoin="round"/><path d="M78.40,59.21 L78.40,52.39 L78.69,51.40 L79.41,50.77 L80.34,50.58 L81.27,50.93 L81.48,51.10 L96.08,65.10 L96.49,65.65 L96.65,66.30 L96.57,66.95 L96.24,67.53 L96.08,67.75 L81.48,81.75 L80.58,82.22 L79.62,82.14 L78.82,81.60 L78.40,80.67 L78.40,80.40 L78.40,73.59 L77.64,73.59 L75.26,73.71 L72.96,74.09 L70.75,74.71 L68.62,75.58 L66.58,76.71 L64.62,78.08 L62.74,79.71 L60.94,81.59 L60.45,82.00 L59.90,82.21 L59.33,82.21 L58.79,82.05 L58.32,81.73 L57.96,81.29 L57.76,80.73 L57.75,80.08 L58.72,75.63 L60.13,71.71 L61.99,68.30 L63.08,66.80 L64.27,65.42 L65.58,64.18 L66.99,63.07 L68.51,62.09 L70.14,61.25 L73.71,59.96 L77.70,59.21 L78.45,59.21 L78.45,52.34 L78.45,59.15 L78.40,59.21 Z" fill="#4796e8" stroke="#1e1e1e" stroke-width="1" stroke-linejoin="round"/></svg>