<svg xmlns="http://www.w3.org/2000/svg" viewBox="0.67 0.67 94.67 94.67"><path d="M70.67,55.89 L70.67,35.04 L70.45,34.50 L69.92,34.28 L69.39,34.51 L48.05,55.84 L25.87,78.03 L25.87,93.33 L90.29,93.33 L91.82,92.94 L92.94,91.82 L93.33,90.29 L93.33,35.04 L93.12,34.50 L92.59,34.28 L92.05,34.51 L70.67,55.89 Z" fill="#005ba1" stroke="#1e1e1e" stroke-width="1" stroke-linejoin="round"/><path d="M25.33,19.09 L20.76,18.93 L16.50,18.44 L12.65,17.68 L9.30,16.66 L6.53,15.42 L4.45,13.99 L3.68,13.21 L3.13,12.39 L2.78,11.54 L2.67,10.67 L2.67,40.91 L2.67,40.91 L2.67,90.29 L3.06,91.82 L4.18,92.94 L5.71,93.33 L48.00,93.33 L48.00,10.67 L47.88,11.54 L47.54,12.39 L46.98,13.21 L46.22,13.99 L44.13,15.42 L41.37,16.66 L38.01,17.68 L34.16,18.44 L29.91,18.93 L25.33,19.09 Z" fill="#0077d2" stroke="#1e1e1e" stroke-width="1" stroke-linejoin="round"/><path d="M79.47,69.17 L79.85,69.22 L80.21,69.37 L80.52,69.61 L80.76,69.92 L80.91,70.28 L80.96,70.67 L80.96,79.79 L80.91,80.17 L80.76,80.53 L80.52,80.84 L80.21,81.08 L79.85,81.23 L79.47,81.28 L70.35,81.28 L69.96,81.23 L69.60,81.08 L69.29,80.84 L69.05,80.53 L68.90,80.17 L68.85,79.79 L68.85,70.67 L68.90,70.28 L69.05,69.92 L69.29,69.61 L69.60,69.37 L69.96,69.22 L70.35,69.17 L79.47,69.17 Z" fill="#ffffff" stroke="#ffffff" stroke-width="1" stroke-linejoin="round"/><path d="M58.45,69.17 L58.84,69.22 L59.20,69.37 L59.51,69.61 L59.75,69.92 L59.90,70.28 L59.95,70.67 L59.95,79.79 L59.90,80.17 L59.75,80.53 L59.51,80.84 L59.20,81.08 L58.84,81.23 L58.45,81.28 L49.33,81.28 L48.95,81.23 L48.59,81.08 L48.28,80.84 L48.04,80.53 L47.89,80.17 L47.84,79.79 L47.84,70.67 L47.89,70.28 L48.04,69.92 L48.28,69.61 L48.59,69.37 L48.95,69.22 L49.33,69.17 L58.45,69.17 Z" fill="#ffffff" stroke="#ffffff" stroke-width="1" stroke-linejoin="round"/><path d="M37.44,69.17 L37.83,69.22 L38.19,69.37 L38.50,69.61 L38.73,69.92 L38.88,70.28 L38.93,70.67 L38.93,79.79 L38.88,80.17 L38.73,80.53 L38.50,80.84 L38.19,81.08 L37.83,81.23 L37.44,81.28 L28.32,81.28 L27.93,81.23 L27.57,81.08 L27.26,80.84 L27.03,80.53 L26.88,80.17 L26.83,79.79 L26.83,70.67 L26.88,70.28 L27.03,69.92 L27.26,69.61 L27.57,69.37 L27.93,69.22 L28.32,69.17 L37.44,69.17 Z" fill="#ffffff" stroke="#ffffff" stroke-width="1" stroke-linejoin="round"/><path d="M48.00,10.67 L47.88,11.51 L47.54,12.32 L46.98,13.11 L46.22,13.86 L44.13,15.26 L41.37,16.47 L38.01,17.48 L34.16,18.23 L29.91,18.71 L25.33,18.88 L20.76,18.72 L16.50,18.26 L12.65,17.53 L9.30,16.55 L6.53,15.35 L4.45,13.95 L3.68,13.19 L3.13,12.38 L2.78,11.54 L2.67,10.67 L2.78,9.79 L3.13,8.96 L3.68,8.17 L4.45,7.41 L6.53,6.05 L9.30,4.89 L12.65,3.95 L16.50,3.25 L20.76,2.82 L25.33,2.67 L29.91,2.83 L34.16,3.31 L38.01,4.06 L41.37,5.05 L44.13,6.24 L46.22,7.59 L46.98,8.32 L47.54,9.08 L47.88,9.86 L48.00,10.67 Z" fill="#eaeaea" stroke="#1e1e1e" stroke-width="1" stroke-linejoin="round"/><path d="M42.67,10.19 L42.58,10.73 L42.31,11.26 L41.30,12.26 L39.70,13.16 L37.57,13.95 L35.00,14.61 L32.05,15.10 L28.78,15.41 L25.28,15.52 L21.78,15.42 L18.51,15.11 L15.56,14.63 L12.99,13.99 L10.86,13.21 L9.26,12.30 L8.25,11.29 L7.98,10.75 L7.89,10.19 L7.99,9.63 L8.26,9.09 L9.31,8.10 L10.95,7.21 L13.11,6.46 L15.71,5.85 L18.67,5.39 L21.90,5.11 L25.33,5.01 L28.76,5.12 L31.98,5.42 L34.92,5.89 L37.50,6.52 L39.64,7.28 L41.27,8.16 L42.30,9.14 L42.57,9.65 L42.67,10.19 Z" fill="#50e6ff" stroke="#1e1e1e" stroke-width="1" stroke-linejoin="round"/><path d="M25.33,11.41 L20.68,11.57 L16.08,12.23 L11.57,13.39 L16.07,14.59 L20.68,15.26 L25.33,15.41 L29.99,15.26 L34.59,14.59 L39.09,13.39 L34.59,12.23 L29.98,11.57 L25.33,11.41 L25.33,11.41 Z" fill="#198ab3" stroke="#198ab3" stroke-width="1" stroke-linejoin="round"/></svg>