<svg xmlns="http://www.w3.org/2000/svg" viewBox="0.82 0.82 100.00 100.00"><path d="M74.82,59.18 L74.82,37.10 L74.60,36.53 L74.03,36.30 L73.47,36.54 L50.88,59.12 L27.39,82.62 L27.39,98.82 L95.60,98.82 L97.23,98.41 L98.41,97.23 L98.82,95.60 L98.82,37.10 L98.60,36.53 L98.03,36.30 L97.47,36.54 L74.82,59.18 Z" fill="#005ba1" stroke="#1e1e1e" stroke-width="1" stroke-linejoin="round"/><path d="M26.82,20.22 L21.98,20.04 L17.48,19.53 L13.40,18.72 L9.85,17.64 L6.92,16.33 L4.71,14.81 L3.90,13.98 L3.31,13.12 L2.95,12.22 L2.82,11.29 L2.82,43.31 L2.82,43.31 L2.82,95.60 L3.24,97.23 L4.42,98.41 L6.04,98.82 L50.82,98.82 L50.82,11.29 L50.70,12.22 L50.34,13.12 L49.75,13.98 L48.94,14.81 L46.73,16.33 L43.80,17.64 L40.25,18.72 L36.17,19.53 L31.66,20.04 L26.82,20.22 Z" fill="#0077d2" stroke="#1e1e1e" stroke-width="1" stroke-linejoin="round"/><path d="M84.14,73.24 L84.55,73.30 L84.93,73.45 L85.26,73.71 L85.51,74.03 L85.67,74.41 L85.72,74.82 L85.72,84.48 L85.67,84.89 L85.51,85.27 L85.26,85.60 L84.93,85.85 L84.55,86.01 L84.14,86.06 L74.48,86.06 L74.08,86.01 L73.69,85.85 L73.37,85.60 L73.12,85.27 L72.96,84.89 L72.90,84.48 L72.90,74.82 L72.96,74.41 L73.12,74.03 L73.37,73.71 L73.69,73.45 L74.08,73.30 L74.48,73.24 L84.14,73.24 Z" fill="#ffffff" stroke="#ffffff" stroke-width="1" stroke-linejoin="round"/><path d="M61.89,73.24 L62.30,73.30 L62.68,73.45 L63.01,73.71 L63.26,74.03 L63.42,74.41 L63.47,74.82 L63.47,84.48 L63.42,84.89 L63.26,85.27 L63.01,85.60 L62.68,85.85 L62.30,86.01 L61.89,86.06 L52.24,86.06 L51.83,86.01 L51.44,85.85 L51.12,85.60 L50.87,85.27 L50.71,84.89 L50.65,84.48 L50.65,74.82 L50.71,74.41 L50.87,74.03 L51.12,73.71 L51.44,73.45 L51.83,73.30 L52.24,73.24 L61.89,73.24 Z" fill="#ffffff" stroke="#ffffff" stroke-width="1" stroke-linejoin="round"/><path d="M39.64,73.24 L40.05,73.30 L40.43,73.45 L40.76,73.71 L41.01,74.03 L41.17,74.41 L41.22,74.82 L41.22,84.48 L41.17,84.89 L41.01,85.27 L40.76,85.60 L40.43,85.85 L40.05,86.01 L39.64,86.06 L29.99,86.06 L29.58,86.01 L29.20,85.85 L28.87,85.60 L28.62,85.27 L28.46,84.89 L28.40,84.48 L28.40,74.82 L28.46,74.41 L28.62,74.03 L28.87,73.71 L29.20,73.45 L29.58,73.30 L29.99,73.24 L39.64,73.24 Z" fill="#ffffff" stroke="#ffffff" stroke-width="1" stroke-linejoin="round"/><path d="M50.82,11.29 L50.70,12.18 L50.34,13.05 L49.75,13.88 L48.94,14.68 L46.73,16.16 L43.80,17.44 L40.25,18.50 L36.17,19.31 L31.66,19.81 L26.82,19.99 L21.98,19.82 L17.48,19.34 L13.40,18.56 L9.85,17.53 L6.92,16.25 L4.71,14.77 L3.90,13.96 L3.31,13.11 L2.95,12.22 L2.82,11.29 L2.95,10.37 L3.31,9.49 L3.90,8.65 L4.71,7.85 L6.92,6.41 L9.85,5.17 L13.40,4.18 L17.48,3.44 L21.98,2.98 L26.82,2.82 L31.66,3.00 L36.17,3.50 L40.25,4.30 L43.80,5.34 L46.73,6.60 L48.94,8.04 L49.75,8.81 L50.34,9.62 L50.70,10.45 L50.82,11.29 Z" fill="#eaeaea" stroke="#1e1e1e" stroke-width="1" stroke-linejoin="round"/><path d="M45.18,10.79 L45.08,11.36 L44.80,11.92 L43.73,12.98 L42.03,13.94 L39.78,14.77 L37.06,15.47 L33.93,15.99 L30.48,16.32 L26.77,16.43 L23.06,16.32 L19.60,16.00 L16.48,15.49 L13.75,14.82 L11.50,13.99 L9.80,13.03 L8.73,11.95 L8.45,11.38 L8.36,10.79 L8.46,10.19 L8.75,9.63 L9.85,8.57 L11.59,7.64 L13.88,6.84 L16.64,6.19 L19.77,5.71 L23.19,5.41 L26.82,5.31 L30.45,5.42 L33.86,5.74 L36.97,6.24 L39.71,6.90 L41.98,7.71 L43.70,8.64 L44.79,9.68 L45.08,10.22 L45.18,10.79 Z" fill="#50e6ff" stroke="#1e1e1e" stroke-width="1" stroke-linejoin="round"/><path d="M26.82,12.08 L21.90,12.25 L17.03,12.95 L12.25,14.17 L17.02,15.44 L21.90,16.16 L26.82,16.32 L31.75,16.16 L36.63,15.44 L41.39,14.17 L36.62,12.95 L31.75,12.25 L26.82,12.08 L26.82,12.08 Z" fill="#198ab3" stroke="#198ab3" stroke-width="1" stroke-linejoin="round"/></svg>