<svg xmlns="http://www.w3.org/2000/svg" viewBox="0.67 8.99 94.67 78.03"><path d="M91.20,19.20 L51.68,19.20 L51.06,19.12 L50.51,18.83 L39.20,11.31 L38.63,11.07 L38.03,10.99 L4.80,10.99 L3.75,11.26 L2.97,12.02 L2.67,13.07 L2.67,82.93 L2.97,83.98 L3.75,84.74 L4.80,85.01 L91.20,85.01 L92.25,84.74 L93.03,83.98 L93.33,82.93 L93.33,21.33 L93.05,20.27 L92.27,19.49 L91.20,19.20 Z" fill="#005ba1" stroke="#1e1e1e" stroke-width="1" stroke-linejoin="round"/><path d="M30.67,15.04 L30.89,15.07 L31.09,15.15 L31.27,15.29 L31.41,15.47 L31.49,15.67 L31.52,15.89 L31.52,18.29 L31.49,18.51 L31.41,18.72 L31.27,18.90 L31.09,19.03 L30.89,19.12 L30.67,19.15 L11.79,19.15 L11.57,19.12 L11.36,19.03 L11.18,18.90 L11.05,18.72 L10.96,18.51 L10.93,18.29 L10.93,15.89 L10.96,15.67 L11.05,15.47 L11.18,15.29 L11.36,15.15 L11.57,15.07 L11.79,15.04 L30.67,15.04 Z" fill="#ffffff" stroke="#ffffff" stroke-width="1" stroke-linejoin="round"/><path d="M14.45,15.04 L14.61,15.06 L14.75,15.12 L14.87,15.21 L14.96,15.33 L15.02,15.47 L15.04,15.63 L15.04,18.56 L15.02,18.71 L14.96,18.85 L14.87,18.97 L14.75,19.07 L14.61,19.13 L14.45,19.15 L11.52,19.15 L11.37,19.13 L11.23,19.07 L11.11,18.97 L11.01,18.85 L10.95,18.71 L10.93,18.56 L10.93,15.63 L10.95,15.47 L11.01,15.33 L11.11,15.21 L11.23,15.12 L11.37,15.06 L11.52,15.04 L14.45,15.04 Z" fill="#1ac3f2" stroke="#1ac3f2" stroke-width="1" stroke-linejoin="round"/><path d="M91.20,19.09 L48.00,19.09 L47.18,19.25 L46.51,19.73 L39.31,26.67 L38.61,27.09 L37.81,27.25 L4.80,27.25 L3.73,27.54 L2.95,28.32 L2.67,29.39 L2.67,82.72 L2.97,83.76 L3.75,84.52 L4.80,84.80 L91.20,84.80 L92.25,84.52 L93.03,83.76 L93.33,82.72 L93.33,21.33 L93.08,20.22 L92.30,19.40 L91.20,19.09 Z" fill="#2bc0e3" stroke="#1e1e1e" stroke-width="1" stroke-linejoin="round"/><path d="M54.29,30.40 L54.08,30.37 L53.87,30.40 L53.60,30.45 L53.17,30.77 L36.32,55.25 L36.21,55.68 L36.32,56.11 L36.65,56.47 L37.12,56.64 L47.09,56.64 L42.67,71.47 L42.64,72.03 L43.04,72.43 L43.23,72.46 L43.41,72.43 L43.80,72.38 L44.11,72.05 L61.49,47.20 L61.49,46.67 L61.21,46.06 L60.59,45.81 L49.92,45.81 L54.24,31.25 L54.41,30.84 L54.29,30.40 Z" fill="#ffffff" stroke="#1e1e1e" stroke-width="1" stroke-linejoin="round"/></svg>