<svg xmlns="http://www.w3.org/2000/svg" viewBox="-2.00 -1.71 100.00 99.45"><path d="M49.09,58.40 L48.96,54.14 L49.55,49.91 L50.84,45.84 L52.79,42.04 L55.35,38.62 L58.45,35.68 L62.00,33.31 L65.89,31.56 L70.03,30.49 L74.28,30.12 L74.71,30.12 L76.17,30.16 L77.64,30.29 L81.78,31.16 L85.71,32.71 L89.33,34.89 L89.33,3.27 L88.93,1.78 L87.84,0.69 L86.34,0.29 L2.97,0.29 L1.49,0.69 L0.40,1.78 L0.00,3.27 L0.00,60.90 L0.40,62.39 L1.49,63.48 L2.98,63.88 L50.59,63.88 L49.64,61.20 L49.09,58.40 L49.09,58.40 Z" fill="#0078d4" stroke="#1e1e1e" stroke-width="1" stroke-linejoin="round"/><path d="M48.91,55.22 L49.34,50.86 L50.53,46.63 L52.41,42.67 L54.96,39.10 L58.07,36.01 L61.68,33.51 L65.65,31.67 L69.89,30.53 L74.26,30.14 L74.71,30.14 L79.13,30.53 L83.39,31.74 L83.39,6.40 L83.14,5.80 L82.54,5.54 L6.84,5.54 L6.24,5.80 L5.98,6.40 L5.98,57.22 L6.24,57.83 L6.84,58.08 L49.06,58.08 L48.94,56.65 L48.91,55.22 Z" fill="#4298e6" stroke="#1e1e1e" stroke-width="1" stroke-linejoin="round" opacity="0.9"/><path d="M51.40,1.89 L51.64,1.93 L51.87,2.02 L52.07,2.17 L52.22,2.37 L52.32,2.60 L52.35,2.84 L52.35,3.00 L52.32,3.25 L52.22,3.48 L52.07,3.68 L51.87,3.83 L51.64,3.92 L51.40,3.95 L38.16,3.95 L37.92,3.92 L37.69,3.83 L37.49,3.68 L37.34,3.48 L37.25,3.25 L37.21,3.00 L37.21,2.84 L37.25,2.60 L37.34,2.37 L37.49,2.17 L37.69,2.02 L37.92,1.93 L38.16,1.89 L51.40,1.89 Z" fill="#f2f2f2" stroke="#f2f2f2" stroke-width="1" stroke-linejoin="round"/><path d="M52.92,55.21 L52.95,56.55 L53.06,57.88 L53.33,59.51 L53.75,61.04 L54.99,63.89 L56.62,66.57 L58.48,69.22 L60.40,71.98 L62.24,75.00 L63.82,78.41 L64.47,80.31 L64.99,82.35 L65.60,83.34 L66.69,83.73 L82.28,83.73 L83.37,83.34 L83.99,82.35 L84.51,80.31 L85.15,78.41 L86.73,75.00 L88.55,71.98 L90.47,69.22 L92.32,66.57 L93.95,63.89 L95.20,61.04 L95.63,59.51 L95.91,57.88 L96.00,53.89 L95.34,49.95 L93.96,46.20 L91.91,42.78 L89.25,39.79 L86.08,37.36 L82.52,35.56 L78.68,34.45 L74.71,34.08 L74.27,34.08 L70.13,34.48 L66.15,35.68 L62.47,37.63 L59.25,40.25 L56.59,43.45 L54.60,47.11 L53.36,51.08 L52.92,55.21 L52.92,55.21 Z" fill="#98de34" stroke="#1e1e1e" stroke-width="1" stroke-linejoin="round"/><path d="M83.39,46.05 L81.47,46.50 L79.87,47.65 L78.83,49.33 L78.50,51.27 L78.50,54.06 L70.85,54.06 L70.85,51.27 L70.50,49.31 L69.43,47.62 L67.80,46.48 L65.85,46.05 L65.74,46.05 L63.84,46.55 L62.27,47.71 L61.22,49.37 L60.86,51.29 L61.22,53.21 L62.27,54.87 L63.84,56.03 L65.74,56.53 L68.06,56.53 L68.06,78.28 L68.47,79.15 L69.36,79.51 L70.26,79.15 L70.67,78.28 L70.67,56.53 L78.50,56.53 L78.50,78.28 L78.91,79.15 L79.81,79.51 L80.70,79.15 L81.11,78.28 L81.11,56.53 L83.39,56.53 L85.32,56.07 L86.93,54.92 L87.97,53.23 L88.29,51.28 L88.29,51.28 L87.96,49.33 L86.92,47.66 L85.32,46.50 L83.39,46.05 L83.39,46.05 Z" fill="#d3ef94" stroke="#d3ef94" stroke-width="1" stroke-linejoin="round" opacity="0.51"/><path d="M68.06,54.06 L65.59,54.06 L64.12,53.84 L62.96,52.90 L62.44,51.50 L62.72,50.03 L63.71,48.91 L65.13,48.46 L66.58,48.79 L67.66,49.83 L68.06,51.26 L68.06,54.06 Z" fill="#98de34" stroke="#98de34" stroke-width="1" stroke-linejoin="round" opacity="0.51"/><path d="M83.58,54.06 L81.11,54.06 L81.11,51.12 L81.31,49.88 L82.09,48.89 L83.26,48.42 L84.51,48.60 L85.51,49.36 L86.00,50.52 L86.02,50.82 L86.00,51.12 L85.79,52.47 L84.94,53.54 L83.67,54.05 L83.58,54.06 Z" fill="#98de34" stroke="#98de34" stroke-width="1" stroke-linejoin="round" opacity="0.51"/><path d="M78.93,95.36 L81.87,92.20 L81.87,83.78 L67.24,83.78 L67.24,92.19 L70.17,95.34 L70.48,95.60 L70.86,95.74 L78.11,95.74 L78.56,95.63 L78.93,95.36 L78.93,95.36 Z" fill="#cecece" stroke="#cecece" stroke-width="1" stroke-linejoin="round"/><path d="M67.08,89.59 L81.87,86.73 L81.87,85.10 L67.08,88.00 L67.08,89.59 Z" fill="#999999" stroke="#999999" stroke-width="1" stroke-linejoin="round"/><path d="M81.87,90.72 L81.87,89.12 L67.08,92.06 L67.08,92.20 L68.20,93.44 L81.87,90.72 Z" fill="#999999" stroke="#999999" stroke-width="1" stroke-linejoin="round"/></svg>