<svg xmlns="http://www.w3.org/2000/svg" viewBox="0.68 1.73 94.60 92.48"><path d="M39.04,63.15 L56.69,63.15 L57.62,62.81 L58.13,61.97 L59.14,58.68 L60.69,55.61 L62.76,52.86 L65.28,50.51 L65.84,49.62 L65.65,48.59 L56.48,32.59 L55.68,31.95 L54.67,32.00 L51.38,32.89 L48.00,33.23 L44.50,32.93 L41.12,32.00 L40.09,32.01 L39.31,32.69 L30.13,48.69 L29.96,49.72 L30.51,50.61 L33.00,52.96 L35.05,55.70 L36.60,58.75 L37.60,62.03 L38.12,62.84 L39.04,63.15 Z" fill="#0078d4" stroke="#1e1e1e" stroke-width="1" stroke-linejoin="round"/><path d="M28.37,13.60 L17.71,13.60 L16.96,13.80 L16.43,14.35 L2.88,37.65 L2.68,38.40 L2.88,39.15 L7.84,47.68 L8.70,48.38 L9.81,48.32 L12.55,47.23 L15.41,46.57 L18.35,46.35 L19.41,46.31 L20.48,46.35 L21.33,46.18 L21.97,45.60 L26.19,38.40 L32.53,27.41 L32.79,26.59 L32.53,25.76 L30.68,23.04 L29.31,20.05 L28.46,16.88 L28.16,13.60 L28.37,13.60 Z" fill="#0078d4" stroke="#1e1e1e" stroke-width="1" stroke-linejoin="round"/><path d="M79.68,14.35 L79.14,13.80 L78.40,13.60 L67.73,13.60 L67.47,16.85 L66.67,20.00 L65.36,22.98 L63.57,25.71 L63.31,26.53 L63.57,27.36 L69.97,38.40 L74.19,45.71 L74.82,46.31 L75.68,46.45 L77.71,46.45 L80.66,46.69 L83.54,47.35 L86.29,48.43 L87.19,48.48 L87.95,48.00 L92.91,39.41 L93.11,38.67 L92.91,37.92 L79.68,14.35 Z" fill="#0078d4" stroke="#1e1e1e" stroke-width="1" stroke-linejoin="round"/><path d="M57.44,71.68 L38.29,71.68 L37.42,71.93 L36.85,72.64 L35.59,75.44 L33.91,78.00 L31.84,80.27 L29.44,82.19 L28.81,83.11 L28.96,84.21 L33.17,91.47 L33.72,92.00 L34.45,92.21 L61.39,92.21 L62.12,92.00 L62.67,91.47 L66.83,84.27 L67.04,83.54 L66.86,82.80 L66.35,82.24 L63.93,80.31 L61.85,78.03 L60.15,75.45 L58.88,72.64 L58.31,71.93 L57.44,71.68 Z" fill="#0078d4" stroke="#1e1e1e" stroke-width="1" stroke-linejoin="round"/><ellipse cx="18.35" cy="66.03" rx="9.87" ry="9.87" fill="#40d0ec" stroke="#1e1e1e" stroke-width="1"/><ellipse cx="77.39" cy="66.03" rx="9.87" ry="9.87" fill="#40d0ec" stroke="#1e1e1e" stroke-width="1"/><ellipse cx="47.89" cy="13.60" rx="9.87" ry="9.87" fill="#40d0ec" stroke="#1e1e1e" stroke-width="1"/><path d="M77.39,34.24 L72.67,34.58 L68.05,35.63 L69.65,38.40 L73.87,45.71 L74.50,46.31 L75.36,46.45 L77.39,46.45 L80.34,46.69 L83.22,47.35 L85.97,48.43 L86.68,48.65 L87.40,48.49 L87.95,48.00 L92.16,40.75 L93.28,38.77 L89.57,36.85 L85.64,35.44 L81.55,34.56 L77.39,34.24 L77.39,34.24 Z" fill="#5ea0ef" stroke="#1e1e1e" stroke-width="1" stroke-linejoin="round"/><path d="M58.13,61.97 L59.14,58.68 L60.69,55.61 L62.76,52.86 L65.28,50.51 L65.84,49.62 L65.65,48.59 L60.32,39.20 L56.47,42.11 L53.09,45.57 L50.28,49.49 L48.09,53.80 L46.57,58.38 L45.76,63.15 L56.75,63.15 L57.64,62.80 L58.13,61.97 L58.13,61.97 Z" fill="#5ea0ef" stroke="#1e1e1e" stroke-width="1" stroke-linejoin="round"/><path d="M58.88,72.64 L58.31,71.93 L57.44,71.68 L46.08,71.68 L47.38,76.53 L49.42,81.11 L52.15,85.32 L55.51,89.05 L59.41,92.21 L61.39,92.21 L62.12,92.00 L62.67,91.47 L66.83,84.27 L67.04,83.54 L66.86,82.80 L66.35,82.24 L63.87,80.33 L61.74,78.06 L59.98,75.47 L58.67,72.64 L58.88,72.64 Z" fill="#5ea0ef" stroke="#1e1e1e" stroke-width="1" stroke-linejoin="round"/></svg>