<svg xmlns="http://www.w3.org/2000/svg" viewBox="0.84 1.96 100.00 97.75"><path d="M41.37,66.91 L60.07,66.91 L61.05,66.55 L61.60,65.67 L62.66,62.18 L64.31,58.92 L66.50,56.01 L69.17,53.52 L69.77,52.58 L69.57,51.48 L59.85,34.53 L59.00,33.85 L57.92,33.91 L54.45,34.85 L50.86,35.21 L47.16,34.90 L43.57,33.91 L42.47,33.92 L41.65,34.64 L31.93,51.60 L31.75,52.69 L32.32,53.63 L34.97,56.11 L37.14,59.02 L38.78,62.25 L39.84,65.72 L40.39,66.59 L41.37,66.91 Z" fill="#0078d4" stroke="#1e1e1e" stroke-width="1" stroke-linejoin="round"/><path d="M30.06,14.41 L18.76,14.41 L17.97,14.62 L17.41,15.20 L3.05,39.90 L2.84,40.69 L3.05,41.48 L8.31,50.52 L9.22,51.26 L10.40,51.20 L13.29,50.04 L16.33,49.34 L19.44,49.11 L20.57,49.07 L21.70,49.11 L22.60,48.93 L23.28,48.32 L27.75,40.69 L34.47,29.05 L34.75,28.17 L34.47,27.30 L32.51,24.42 L31.06,21.25 L30.16,17.88 L29.84,14.41 L30.06,14.41 Z" fill="#0078d4" stroke="#1e1e1e" stroke-width="1" stroke-linejoin="round"/><path d="M84.43,15.20 L83.86,14.62 L83.07,14.41 L71.77,14.41 L71.49,17.85 L70.64,21.20 L69.26,24.35 L67.36,27.24 L67.09,28.11 L67.36,28.99 L74.14,40.69 L78.61,48.43 L79.28,49.07 L80.19,49.22 L82.34,49.22 L85.46,49.47 L88.52,50.17 L91.44,51.31 L92.39,51.37 L93.19,50.86 L98.44,41.76 L98.66,40.97 L98.44,40.18 L84.43,15.20 Z" fill="#0078d4" stroke="#1e1e1e" stroke-width="1" stroke-linejoin="round"/><path d="M60.86,75.95 L40.58,75.95 L39.65,76.22 L39.05,76.97 L37.72,79.94 L35.93,82.65 L33.74,85.06 L31.19,87.09 L30.52,88.06 L30.69,89.23 L35.15,96.92 L35.73,97.49 L36.51,97.71 L65.05,97.71 L65.82,97.49 L66.40,96.92 L70.81,89.29 L71.03,88.52 L70.85,87.73 L70.30,87.14 L67.74,85.10 L65.54,82.68 L63.74,79.95 L62.39,76.97 L61.79,76.22 L60.86,75.95 Z" fill="#0078d4" stroke="#1e1e1e" stroke-width="1" stroke-linejoin="round"/><ellipse cx="19.44" cy="69.96" rx="10.45" ry="10.45" fill="#40d0ec" stroke="#1e1e1e" stroke-width="1"/><ellipse cx="82.00" cy="69.96" rx="10.45" ry="10.45" fill="#40d0ec" stroke="#1e1e1e" stroke-width="1"/><ellipse cx="50.75" cy="14.41" rx="10.45" ry="10.45" fill="#40d0ec" stroke="#1e1e1e" stroke-width="1"/><path d="M82.00,36.28 L77.00,36.64 L72.11,37.75 L73.80,40.69 L78.27,48.43 L78.94,49.07 L79.85,49.22 L82.00,49.22 L85.12,49.47 L88.18,50.17 L91.10,51.31 L91.84,51.55 L92.61,51.38 L93.19,50.86 L97.65,43.18 L98.84,41.08 L94.91,39.05 L90.74,37.55 L86.41,36.63 L82.00,36.28 L82.00,36.28 Z" fill="#5ea0ef" stroke="#1e1e1e" stroke-width="1" stroke-linejoin="round"/><path d="M61.60,65.67 L62.66,62.18 L64.31,58.92 L66.50,56.01 L69.17,53.52 L69.77,52.58 L69.57,51.48 L63.92,41.54 L59.83,44.62 L56.26,48.28 L53.28,52.44 L50.95,57.01 L49.35,61.86 L48.49,66.91 L60.13,66.91 L61.07,66.54 L61.60,65.67 L61.60,65.67 Z" fill="#5ea0ef" stroke="#1e1e1e" stroke-width="1" stroke-linejoin="round"/><path d="M62.39,76.97 L61.79,76.22 L60.86,75.95 L48.83,75.95 L50.20,81.09 L52.37,85.95 L55.26,90.41 L58.82,94.36 L62.95,97.71 L65.05,97.71 L65.82,97.49 L66.40,96.92 L70.81,89.29 L71.03,88.52 L70.85,87.73 L70.30,87.14 L67.68,85.12 L65.42,82.71 L63.56,79.97 L62.16,76.97 L62.39,76.97 Z" fill="#5ea0ef" stroke="#1e1e1e" stroke-width="1" stroke-linejoin="round"/></svg>