<svg xmlns="http://www.w3.org/2000/svg" viewBox="0.82 8.79 100.00 84.05"><path d="M98.82,14.12 L98.82,75.28 L98.38,76.91 L97.19,78.11 L95.55,78.55 L70.02,78.55 L69.44,78.78 L69.18,79.34 L69.18,89.22 L68.78,90.31 L67.75,90.84 L66.64,90.52 L51.28,78.72 L50.77,78.72 L6.10,78.72 L4.46,78.28 L3.26,77.08 L2.82,75.44 L2.82,14.12 L3.06,12.85 L3.76,11.77 L4.83,11.04 L6.10,10.79 L95.55,10.79 L96.81,11.04 L97.88,11.77 L98.59,12.85 L98.82,14.12 Z" fill="#71b42b" stroke="#1e1e1e" stroke-width="1" stroke-linejoin="round"/><path d="M53.87,54.38 L47.32,54.38 L46.29,54.17 L45.50,53.46 L45.18,52.46 L44.05,19.37 L44.29,18.36 L45.02,17.61 L46.02,17.34 L55.62,17.34 L56.65,17.62 L57.37,18.39 L57.60,19.43 L55.85,52.52 L55.55,53.46 L54.83,54.14 L53.87,54.38 L53.87,54.38 Z" fill="#ffffff" stroke="#1e1e1e" stroke-width="1" stroke-linejoin="round"/><path d="M52.01,59.97 L52.90,60.09 L53.73,60.43 L54.45,60.98 L54.99,61.69 L55.34,62.52 L55.45,63.42 L55.45,66.07 L55.34,66.96 L54.99,67.79 L54.45,68.51 L53.73,69.05 L52.90,69.40 L52.01,69.52 L49.36,69.52 L48.46,69.40 L47.63,69.05 L46.92,68.51 L46.37,67.79 L46.03,66.96 L45.91,66.07 L45.91,63.42 L46.03,62.52 L46.37,61.69 L46.92,60.98 L47.63,60.43 L48.46,60.09 L49.36,59.97 L52.01,59.97 Z" fill="#ffffff" stroke="#ffffff" stroke-width="1" stroke-linejoin="round"/></svg>