<svg xmlns="http://www.w3.org/2000/svg" viewBox="0.67 8.19 94.67 79.61"><path d="M93.33,13.33 L93.33,71.09 L92.92,72.64 L91.79,73.77 L90.24,74.19 L66.13,74.19 L65.59,74.40 L65.33,74.93 L65.33,84.27 L64.96,85.30 L63.99,85.79 L62.93,85.49 L48.43,74.35 L47.95,74.35 L5.76,74.35 L4.21,73.93 L3.08,72.80 L2.67,71.25 L2.67,13.33 L2.89,12.13 L3.55,11.11 L4.56,10.43 L5.76,10.19 L90.24,10.19 L91.44,10.43 L92.45,11.11 L93.11,12.13 L93.33,13.33 Z" fill="#71b42b" stroke="#1e1e1e" stroke-width="1" stroke-linejoin="round"/><path d="M50.88,51.36 L44.69,51.36 L43.72,51.16 L42.98,50.49 L42.67,49.55 L41.60,18.29 L41.83,17.34 L42.52,16.63 L43.47,16.37 L52.53,16.37 L53.50,16.64 L54.19,17.37 L54.40,18.35 L52.75,49.60 L52.46,50.49 L51.78,51.13 L50.88,51.36 Z" fill="#ffffff" stroke="#1e1e1e" stroke-width="1" stroke-linejoin="round"/><rect x="43.36" y="56.64" width="9.01" height="9.01" fill="#ffffff" stroke="#ffffff" stroke-width="1"/></svg>