<svg xmlns="http://www.w3.org/2000/svg" viewBox="-1.82 11.21 99.64 73.55"><path d="M95.82,61.02 L95.69,59.04 L95.40,57.11 L94.93,55.23 L94.31,53.42 L93.54,51.68 L92.62,50.02 L91.57,48.45 L90.39,46.98 L89.08,45.62 L87.66,44.37 L86.14,43.25 L84.51,42.25 L82.80,41.40 L81.00,40.70 L79.12,40.15 L77.17,39.77 L76.95,37.00 L76.46,34.31 L75.72,31.72 L74.74,29.25 L73.53,26.90 L72.11,24.69 L70.49,22.64 L68.69,20.75 L66.72,19.04 L64.58,17.52 L62.31,16.21 L59.91,15.12 L57.39,14.26 L54.77,13.65 L52.06,13.29 L49.27,13.21 L47.06,13.27 L44.88,13.51 L42.74,13.91 L40.66,14.47 L38.64,15.19 L36.69,16.06 L34.81,17.07 L33.02,18.23 L31.33,19.51 L29.73,20.92 L28.24,22.45 L26.87,24.10 L25.62,25.86 L24.51,27.73 L23.53,29.69 L22.71,31.75 L20.35,32.16 L18.07,32.78 L15.89,33.60 L13.80,34.60 L11.83,35.77 L9.98,37.11 L8.27,38.59 L6.69,40.23 L5.25,41.99 L3.98,43.87 L2.88,45.87 L1.95,47.97 L1.20,50.15 L0.65,52.42 L0.31,54.75 L0.18,57.15 L0.41,59.82 L0.89,62.40 L1.62,64.89 L2.58,67.27 L3.75,69.53 L5.12,71.65 L6.68,73.63 L8.42,75.45 L10.33,77.09 L12.38,78.56 L14.57,79.82 L16.89,80.88 L19.31,81.71 L21.83,82.31 L24.44,82.66 L27.12,82.76 L73.08,82.76 L74.25,82.76 L76.45,82.61 L78.58,82.25 L80.64,81.70 L82.62,80.95 L84.50,80.02 L86.27,78.93 L87.92,77.67 L89.45,76.27 L90.84,74.74 L92.08,73.07 L93.16,71.29 L94.07,69.41 L94.80,67.43 L95.35,65.36 L95.69,63.23 L95.82,61.02 Z" fill="#3990e4" stroke="#1e1e1e" stroke-width="1" stroke-linejoin="round"/><path d="M55.77,36.53 L53.51,35.15 L53.08,34.77 L52.80,34.28 L51.08,29.47 L50.83,29.01 L50.46,28.65 L50.00,28.43 L49.48,28.35 L46.60,28.35 L46.05,28.44 L45.57,28.69 L45.20,29.09 L44.97,29.59 L43.75,34.10 L43.39,34.76 L42.78,35.21 L40.52,36.18 L39.83,36.32 L39.15,36.17 L34.61,34.08 L34.11,33.94 L33.59,33.96 L33.11,34.13 L32.69,34.44 L30.66,36.56 L30.35,36.99 L30.20,37.49 L30.21,38.00 L30.37,38.50 L32.59,42.84 L32.77,43.53 L32.66,44.23 L31.79,46.46 L31.36,47.08 L30.71,47.46 L25.85,48.95 L25.36,49.20 L24.99,49.57 L24.74,50.04 L24.66,50.57 L24.66,53.43 L24.75,53.98 L25.00,54.46 L25.40,54.83 L25.90,55.06 L30.34,56.28 L31.00,56.63 L31.45,57.24 L32.42,59.50 L32.56,60.19 L32.41,60.87 L30.38,65.36 L30.24,65.86 L30.26,66.37 L30.74,67.26 L32.87,69.35 L33.31,69.66 L33.81,69.82 L34.33,69.82 L34.84,69.65 L39.09,67.44 L39.78,67.25 L40.50,67.37 L42.79,68.27 L43.37,68.66 L43.75,69.24 L45.54,73.91 L46.16,74.70 L47.11,75.00 L50.05,75.00 L50.58,74.92 L51.04,74.69 L51.41,74.33 L51.65,73.86 L53.12,69.58 L53.42,69.06 L53.88,68.67 L55.99,67.45 L56.75,67.23 L57.52,67.37 L61.56,69.16 L62.57,69.28 L63.46,68.80 L65.58,66.63 L65.88,66.21 L66.04,65.73 L66.05,65.22 L65.90,64.71 L64.06,60.89 L63.90,60.19 L64.04,59.48 L65.01,57.26 L65.42,56.68 L66.04,56.33 L70.69,54.83 L71.17,54.58 L71.54,54.21 L71.78,53.75 L71.86,53.22 L71.86,50.43 L71.77,49.88 L71.51,49.40 L71.12,49.03 L70.61,48.80 L66.01,47.56 L65.41,47.27 L64.97,46.76 L63.85,44.77 L63.63,44.03 L63.76,43.27 L65.51,39.16 L65.62,38.16 L65.13,37.27 L62.96,35.18 L62.07,34.73 L61.07,34.87 L57.35,36.60 L56.54,36.76 L55.75,36.51 L55.77,36.53 Z" fill="#9fe234" stroke="#9fe234" stroke-width="1" stroke-linejoin="round"/><path d="M40.73,55.43 L40.37,54.92 L40.23,54.31 L40.29,52.58 L40.54,51.02 L40.97,49.63 L41.56,48.39 L42.28,47.33 L43.12,46.42 L44.06,45.69 L45.08,45.11 L46.15,44.71 L47.27,44.47 L48.40,44.39 L49.53,44.48 L50.65,44.74 L51.72,45.16 L52.73,45.75 L53.66,46.51 L53.66,46.51 L54.66,47.72 L55.37,49.06 L55.79,50.49 L55.94,51.97 L55.80,53.45 L55.38,54.88 L54.68,56.23 L53.69,57.44 L52.50,58.42 L51.19,59.12 L49.78,59.56 L48.33,59.72 L46.87,59.60 L45.46,59.21 L44.12,58.55 L42.90,57.61 L40.74,55.43 L40.73,55.43 Z" fill="#3990e4" stroke="#3990e4" stroke-width="1" stroke-linejoin="round"/><ellipse cx="48.27" cy="52.05" rx="11.08" ry="11.13" fill="#71b52b" stroke="#1e1e1e" stroke-width="1"/><path d="M53.69,47.09 L46.01,54.80 L42.27,51.06 L42.09,50.91 L41.59,50.70 L41.08,50.70 L40.60,50.90 L40.22,51.27 L40.00,52.14 L40.37,52.95 L45.06,57.65 L45.25,57.80 L45.68,58.00 L46.13,58.03 L46.57,57.92 L46.95,57.64 L55.59,48.98 L55.75,48.79 L55.95,48.30 L55.94,47.79 L55.74,47.31 L55.36,46.94 L54.50,46.73 L53.70,47.09 L53.68,47.09 L53.69,47.09 Z" fill="#ffffff" stroke="#ffffff" stroke-width="1" stroke-linejoin="round"/></svg>