<svg xmlns="http://www.w3.org/2000/svg" viewBox="0.28 -2.00 95.44 99.94"><path d="M93.58,81.07 L93.08,82.46 L92.23,83.85 L91.02,85.21 L89.45,86.53 L87.52,87.82 L85.25,89.06 L82.61,90.24 L79.63,91.35 L70.55,93.62 L61.32,95.15 L51.99,95.92 L42.63,95.94 L33.30,95.19 L24.07,93.69 L14.98,91.44 L12.23,90.37 L9.82,89.24 L7.75,88.06 L6.00,86.83 L4.59,85.56 L3.52,84.26 L2.77,82.94 L2.36,81.60 L2.32,76.12 L2.36,71.11 L93.73,70.27 L93.58,81.07 Z" fill="#5ea0ef" stroke="#1e1e1e" stroke-width="1" stroke-linejoin="round"/><path d="M93.73,70.45 L93.52,72.00 L92.88,73.54 L91.80,75.06 L90.31,76.53 L88.40,77.95 L86.11,79.31 L83.45,80.58 L80.45,81.76 L77.13,82.83 L73.54,83.79 L69.70,84.63 L65.65,85.34 L61.43,85.90 L57.08,86.32 L52.64,86.59 L48.16,86.71 L43.68,86.68 L39.24,86.50 L34.89,86.17 L30.66,85.69 L26.59,85.06 L22.74,84.30 L19.12,83.42 L15.79,82.41 L12.76,81.29 L10.08,80.07 L7.76,78.76 L5.83,77.38 L4.30,75.93 L3.19,74.44 L2.52,72.91 L2.28,71.37 L2.49,69.81 L3.13,68.27 L4.21,66.76 L5.70,65.28 L7.61,63.86 L9.90,62.51 L12.56,61.23 L15.56,60.05 L18.88,58.98 L22.47,58.02 L26.31,57.18 L30.36,56.48 L34.58,55.91 L38.93,55.49 L43.37,55.22 L47.85,55.10 L52.33,55.13 L56.77,55.31 L61.13,55.65 L65.36,56.13 L69.42,56.75 L73.27,57.51 L76.89,58.40 L80.22,59.40 L83.25,60.52 L85.93,61.74 L88.25,63.05 L90.18,64.43 L91.71,65.88 L92.82,67.37 L93.49,68.90 L93.73,70.45 Z" fill="#50e6ff" stroke="#1e1e1e" stroke-width="1" stroke-linejoin="round"/><path d="M71.27,69.22 L70.87,70.47 L69.89,71.36 L68.61,71.64 L27.45,71.64 L26.16,71.36 L25.19,70.47 L24.78,69.22 L24.78,2.43 L25.18,1.17 L26.16,0.29 L27.45,0.00 L68.59,0.00 L69.88,0.29 L70.85,1.17 L71.26,2.43 L71.27,69.22 Z" fill="#8e5ae8" stroke="#1e1e1e" stroke-width="1" stroke-linejoin="round"/><path d="M59.80,36.22 L36.65,36.22 L34.64,35.71 L32.98,34.48 L31.91,32.70 L31.60,30.65 L31.60,30.65 L31.91,28.60 L32.97,26.82 L34.64,25.58 L36.65,25.07 L59.80,25.07 L61.81,25.57 L63.48,26.81 L64.54,28.59 L64.85,30.64 L64.55,32.69 L63.48,34.47 L61.81,35.71 L59.80,36.22 Z" fill="#552f99" stroke="#1e1e1e" stroke-width="1" stroke-linejoin="round"/><path d="M64.85,14.08 L64.54,12.04 L63.47,10.27 L61.80,9.04 L59.80,8.53 L36.65,8.53 L34.65,9.04 L32.99,10.27 L31.92,12.04 L31.60,14.08 L31.60,14.08 L31.91,16.13 L32.98,17.91 L34.64,19.15 L36.65,19.65 L59.80,19.65 L61.81,19.15 L63.48,17.91 L64.54,16.13 L64.85,14.08 L64.85,14.08 Z" fill="#552f99" stroke="#1e1e1e" stroke-width="1" stroke-linejoin="round"/><path d="M58.35,10.34 L60.04,10.75 L61.37,11.88 L62.03,13.49 L61.90,15.23 L60.99,16.71 L59.50,17.63 L57.76,17.76 L56.15,17.09 L55.02,15.77 L54.61,14.07 L54.90,12.65 L55.71,11.43 L56.92,10.63 L58.35,10.34 L58.35,10.34 Z" fill="#50e6ff" stroke="#50e6ff" stroke-width="1" stroke-linejoin="round"/><path d="M54.61,30.61 L55.02,32.30 L56.15,33.63 L57.76,34.30 L59.50,34.16 L60.99,33.25 L61.90,31.76 L62.03,30.02 L61.37,28.41 L60.04,27.28 L58.35,26.87 L56.91,27.16 L55.70,27.97 L54.89,29.19 L54.61,30.63 L54.61,30.61 Z" fill="#50e6ff" stroke="#50e6ff" stroke-width="1" stroke-linejoin="round"/></svg>