<svg xmlns="http://www.w3.org/2000/svg" viewBox="-1.46 -1.46 100.00 100.00"><path d="M96.54,53.93 L96.54,43.15 L94.92,42.61 L83.06,38.83 L79.82,31.28 L86.29,18.34 L78.20,10.79 L76.58,11.33 L65.80,16.72 L58.25,13.48 L53.93,0.54 L43.15,0.54 L42.07,2.16 L38.29,14.02 L30.74,16.72 L18.34,10.79 L10.79,18.88 L11.33,20.49 L16.72,31.28 L14.02,38.83 L0.54,43.15 L0.54,53.93 L2.16,54.47 L14.02,58.25 L17.26,65.80 L10.79,78.74 L18.88,86.29 L20.49,85.75 L31.28,80.36 L38.83,83.60 L43.15,96.54 L53.93,96.54 L54.47,94.92 L58.25,83.06 L65.80,79.82 L78.20,85.75 L85.75,78.20 L85.21,76.58 L79.82,65.80 L83.06,58.25 L96.54,53.93 Z" fill="#3e93e6" stroke="#1e1e1e" stroke-width="1" stroke-linejoin="round"/><path d="M48.54,69.57 L44.41,69.22 L40.44,68.06 L36.78,66.13 L33.57,63.51 L30.95,60.30 L29.02,56.64 L27.86,52.66 L27.51,48.54 L27.86,44.41 L29.02,40.44 L30.95,36.78 L33.57,33.57 L36.78,30.95 L40.44,29.02 L44.41,27.86 L48.54,27.51 L52.66,27.86 L56.64,29.02 L60.30,30.95 L63.51,33.57 L66.13,36.78 L68.06,40.44 L69.22,44.41 L69.57,48.54 L69.57,48.54 L69.22,52.66 L68.06,56.64 L66.13,60.30 L63.51,63.51 L60.30,66.13 L56.64,68.06 L52.66,69.22 L48.54,69.57 L48.54,69.57 Z" fill="#ffffff" stroke="#1e1e1e" stroke-width="1" stroke-linejoin="round"/><path d="M45.84,56.63 L26.43,56.63 L25.69,56.29 L25.35,55.55 L25.35,55.01 L48.54,9.17 L48.63,8.86 L48.88,8.70 L49.62,8.63 L72.27,8.63 L73.01,8.97 L73.35,9.71 L73.35,10.25 L45.84,46.38 L72.27,46.38 L73.01,46.72 L73.35,47.46 L73.19,47.84 L72.81,48.00 L28.58,93.84 L27.87,94.21 L26.90,94.72 L26.49,94.76 L26.23,94.53 L26.19,93.89 L26.43,92.76 L26.43,92.76 L45.84,56.63 Z" fill="#feae18" stroke="#1e1e1e" stroke-width="1" stroke-linejoin="round"/></svg>