<svg xmlns="http://www.w3.org/2000/svg" viewBox="-1.47 -1.47 98.93 98.93"><path d="M95.47,53.33 L95.47,42.67 L93.87,42.13 L82.13,38.40 L78.93,30.93 L85.33,18.13 L77.33,10.67 L75.73,11.20 L65.07,16.53 L57.60,13.33 L53.33,0.53 L42.67,0.53 L41.60,2.13 L37.87,13.87 L30.40,16.53 L18.13,10.67 L10.67,18.67 L11.20,20.27 L16.53,30.93 L13.87,38.40 L0.53,42.67 L0.53,53.33 L2.13,53.87 L13.87,57.60 L17.07,65.07 L10.67,77.87 L18.67,85.33 L20.27,84.80 L30.93,79.47 L38.40,82.67 L42.67,95.47 L53.33,95.47 L53.87,93.87 L57.60,82.13 L65.07,78.93 L77.33,84.80 L84.80,77.33 L84.27,75.73 L78.93,65.07 L82.13,57.60 L95.47,53.33 Z" fill="#3e93e6" stroke="#1e1e1e" stroke-width="1" stroke-linejoin="round"/><path d="M48.00,68.80 L43.92,68.45 L39.99,67.30 L36.37,65.39 L33.20,62.80 L30.61,59.63 L28.70,56.01 L27.55,52.08 L27.20,48.00 L27.55,43.92 L28.70,39.99 L30.61,36.37 L33.20,33.20 L36.37,30.61 L39.99,28.70 L43.92,27.55 L48.00,27.20 L52.08,27.55 L56.01,28.70 L59.63,30.61 L62.80,33.20 L65.39,36.37 L67.30,39.99 L68.45,43.92 L68.80,48.00 L68.80,48.00 L68.45,52.08 L67.30,56.01 L65.39,59.63 L62.80,62.80 L59.63,65.39 L56.01,67.30 L52.08,68.45 L48.00,68.80 L48.00,68.80 Z" fill="#ffffff" stroke="#1e1e1e" stroke-width="1" stroke-linejoin="round"/><path d="M45.33,56.00 L26.13,56.00 L25.40,55.67 L25.07,54.93 L25.07,54.40 L48.00,9.07 L48.09,8.76 L48.33,8.60 L49.07,8.53 L71.47,8.53 L72.20,8.87 L72.53,9.60 L72.53,10.13 L45.33,45.87 L71.47,45.87 L72.20,46.20 L72.53,46.93 L72.38,47.31 L72.00,47.47 L28.27,92.80 L27.56,93.16 L26.60,93.67 L26.20,93.71 L25.94,93.47 L25.90,92.85 L26.13,91.73 L26.13,91.73 L45.33,56.00 Z" fill="#feae18" stroke="#1e1e1e" stroke-width="1" stroke-linejoin="round"/></svg>