<svg xmlns="http://www.w3.org/2000/svg" viewBox="4.93 -1.20 86.14 98.45"><path d="M88.80,91.09 L69.65,41.39 L69.11,40.69 L68.27,40.43 L54.61,40.43 L54.61,28.59 L54.43,26.30 L53.52,24.20 L51.98,22.52 L49.96,21.42 L47.71,21.05 L45.45,21.42 L43.44,22.52 L41.89,24.20 L40.98,26.30 L40.80,28.59 L40.80,40.43 L28.48,40.43 L27.61,40.69 L27.04,41.39 L7.20,91.09 L6.93,92.46 L7.32,93.80 L8.28,94.80 L9.60,95.25 L86.40,95.25 L87.72,94.80 L88.68,93.80 L89.07,92.46 L88.80,91.09 L88.80,91.09 Z" fill="#3990e4" stroke="#1e1e1e" stroke-width="1" stroke-linejoin="round"/><path d="M17.97,64.00 L64.00,40.43 L68.00,40.43 L68.89,40.70 L69.44,41.44 L73.87,52.91 L9.60,85.33 L17.97,64.00 Z" fill="#83b9f9" stroke="#1e1e1e" stroke-width="1" stroke-linejoin="round"/><path d="M50.88,95.15 L82.88,75.95 L88.69,91.09 L88.93,92.47 L88.53,93.80 L87.56,94.80 L86.24,95.25 L50.88,95.15 Z" fill="#83b9f9" stroke="#1e1e1e" stroke-width="1" stroke-linejoin="round"/><path d="M47.31,0.85 L25.33,13.60 L25.02,13.92 L24.91,14.35 L24.91,16.32 L25.16,16.92 L25.76,17.17 L29.07,17.17 L29.07,40.43 L33.23,40.43 L33.23,17.17 L62.24,17.17 L62.24,40.43 L66.35,40.43 L66.35,17.17 L69.71,17.17 L70.31,16.92 L70.56,16.32 L70.56,14.35 L70.45,13.92 L70.13,13.60 L48.00,0.85 L47.65,0.80 L47.31,0.85 L47.31,0.85 Z" fill="#0078d4" stroke="#1e1e1e" stroke-width="1" stroke-linejoin="round"/></svg>