<svg xmlns="http://www.w3.org/2000/svg" viewBox="-1.57 -2.00 99.13 100.00"><path d="M55.91,63.51 L45.67,63.51 L45.67,61.13 L45.83,59.61 L46.26,58.20 L46.96,56.92 L47.88,55.81 L48.99,54.89 L50.27,54.19 L51.68,53.76 L53.20,53.60 L79.16,53.60 L80.11,50.46 L80.79,47.21 L81.22,43.87 L81.36,40.46 L81.15,36.32 L80.54,32.30 L79.54,28.43 L78.18,24.71 L76.47,21.17 L74.45,17.84 L72.12,14.72 L69.50,11.85 L66.63,9.24 L63.52,6.91 L60.18,4.88 L56.64,3.18 L52.93,1.82 L49.05,0.82 L45.03,0.21 L40.89,0.00 L36.76,0.21 L32.74,0.82 L28.86,1.82 L25.14,3.18 L21.61,4.88 L18.27,6.91 L15.16,9.24 L12.28,11.85 L9.67,14.72 L7.34,17.84 L5.32,21.18 L3.61,24.71 L2.25,28.43 L1.25,32.31 L0.64,36.32 L0.43,40.46 L0.64,44.60 L1.25,48.62 L2.25,52.49 L3.61,56.21 L5.32,59.75 L7.34,63.08 L9.67,66.20 L12.28,69.07 L15.16,71.68 L18.27,74.01 L21.61,76.04 L25.14,77.74 L28.86,79.10 L32.74,80.10 L36.76,80.71 L40.89,80.92 L44.75,80.74 L48.50,80.20 L52.13,79.33 L55.62,78.14 L55.90,63.52 L55.91,63.51 Z" fill="#b0b0b0" stroke="#1e1e1e" stroke-width="1" stroke-linejoin="round"/><path d="M55.91,63.51 L45.67,63.51 L45.67,61.13 L45.83,59.61 L46.26,58.20 L46.96,56.92 L47.88,55.81 L48.99,54.89 L50.27,54.19 L51.68,53.76 L53.20,53.60 L72.50,53.60 L73.64,50.46 L74.48,47.19 L74.99,43.80 L75.17,40.31 L74.99,36.80 L74.47,33.39 L73.62,30.09 L72.47,26.94 L71.02,23.93 L69.30,21.10 L67.32,18.45 L65.10,16.01 L62.66,13.79 L60.02,11.82 L57.18,10.09 L54.18,8.65 L51.02,7.49 L47.73,6.64 L44.32,6.12 L40.80,5.95 L37.29,6.12 L33.88,6.64 L30.58,7.49 L27.43,8.65 L24.42,10.10 L21.59,11.82 L18.94,13.80 L16.50,16.01 L14.28,18.46 L12.30,21.10 L10.58,23.94 L9.13,26.94 L7.98,30.10 L7.13,33.39 L6.61,36.80 L6.43,40.32 L6.61,43.83 L7.13,47.24 L7.98,50.54 L9.13,53.69 L10.58,56.70 L12.30,59.53 L14.28,62.18 L16.50,64.62 L18.94,66.84 L21.58,68.81 L24.42,70.54 L27.42,71.98 L30.58,73.14 L33.87,73.99 L37.28,74.51 L40.80,74.68 L44.76,74.46 L48.59,73.80 L52.27,72.72 L55.76,71.27 L55.91,63.51 L55.91,63.51 Z" fill="#ffffff" stroke="#1e1e1e" stroke-width="1" stroke-linejoin="round"/><path d="M56.76,57.94 L58.14,56.56 L62.42,60.83 L61.03,62.21 L56.76,57.94 Z" fill="#7a7a7a" stroke="#7a7a7a" stroke-width="1" stroke-linejoin="round"/><path d="M57.07,22.60 L58.45,23.98 L62.73,19.71 L61.35,18.32 L57.07,22.60 L57.07,22.60 Z" fill="#7a7a7a" stroke="#7a7a7a" stroke-width="1" stroke-linejoin="round"/><path d="M64.60,39.46 L64.60,41.41 L70.65,41.41 L70.65,39.46 L64.60,39.46 Z" fill="#7a7a7a" stroke="#7a7a7a" stroke-width="1" stroke-linejoin="round"/><path d="M39.70,70.35 L41.66,70.35 L41.66,64.31 L39.70,64.31 L39.70,70.35 Z" fill="#7a7a7a" stroke="#7a7a7a" stroke-width="1" stroke-linejoin="round"/><path d="M24.04,22.41 L19.76,18.14 L18.38,19.52 L22.65,23.80 L24.04,22.41 L24.04,22.41 Z" fill="#7a7a7a" stroke="#7a7a7a" stroke-width="1" stroke-linejoin="round"/><path d="M18.65,61.03 L20.04,62.41 L24.31,58.14 L22.93,56.75 L18.65,61.03 L18.65,61.03 Z" fill="#7a7a7a" stroke="#7a7a7a" stroke-width="1" stroke-linejoin="round"/><path d="M10.29,41.41 L16.34,41.41 L16.34,39.46 L10.29,39.46 L10.29,41.41 L10.29,41.41 Z" fill="#7a7a7a" stroke="#7a7a7a" stroke-width="1" stroke-linejoin="round"/><path d="M40.99,5.95 L44.52,6.14 L47.95,6.67 L51.26,7.52 L54.44,8.69 L57.46,10.15 L60.30,11.89 L62.96,13.88 L65.41,16.11 L67.64,18.57 L69.62,21.24 L71.35,24.09 L72.80,27.11 L73.95,30.29 L74.80,33.60 L75.32,37.03 L75.49,40.57 L75.32,43.99 L74.82,47.31 L74.01,50.52 L72.91,53.61 L79.17,53.61 L80.00,50.89 L80.63,48.13 L81.07,45.34 L81.32,42.54 L81.37,39.72 L81.22,36.91 L80.89,34.12 L80.35,31.34 L79.62,28.61 L78.70,25.92 L77.59,23.29 L76.28,20.73 L74.77,18.25 L73.08,15.86 L71.18,13.58 L69.10,11.40 L66.15,8.81 L63.00,6.53 L59.65,4.58 L56.13,2.95 L52.48,1.67 L48.71,0.75 L44.86,0.19 L40.94,0.00 L39.81,0.23 L38.89,0.85 L38.27,1.77 L38.04,2.90 L38.04,2.95 L38.27,4.10 L38.90,5.05 L39.83,5.70 L40.98,5.95 L40.99,5.95 Z" fill="#0078d4" stroke="#1e1e1e" stroke-width="1" stroke-linejoin="round"/><path d="M55.75,71.73 L52.27,73.16 L48.62,74.21 L44.81,74.85 L40.87,75.07 L37.34,74.88 L33.91,74.35 L30.60,73.50 L27.43,72.33 L24.41,70.87 L21.56,69.13 L18.90,67.14 L16.45,64.91 L14.23,62.45 L12.24,59.78 L10.52,56.93 L9.07,53.91 L7.91,50.73 L7.06,47.42 L6.55,43.98 L6.37,40.45 L6.53,37.23 L6.98,34.06 L7.72,30.96 L8.74,27.94 L10.03,25.03 L11.59,22.25 L13.41,19.61 L15.48,17.14 L17.90,20.65 L24.66,5.62 L8.38,7.52 L11.95,12.28 L9.22,15.39 L6.87,18.70 L4.89,22.18 L3.28,25.79 L2.04,29.51 L1.17,33.31 L0.68,37.16 L0.55,41.04 L0.80,44.91 L1.41,48.74 L2.39,52.52 L3.75,56.20 L5.46,59.76 L7.55,63.17 L10.01,66.40 L12.83,69.43 L15.08,71.45 L17.44,73.28 L19.90,74.91 L22.45,76.35 L25.07,77.58 L27.75,78.61 L30.49,79.45 L33.26,80.09 L36.07,80.52 L38.89,80.77 L41.73,80.81 L44.56,80.66 L47.37,80.31 L50.16,79.76 L52.91,79.01 L55.62,78.07 L55.74,71.73 L55.75,71.73 Z" fill="#0078d4" stroke="#1e1e1e" stroke-width="1" stroke-linejoin="round"/><path d="M55.32,51.36 L45.09,41.12 L44.31,40.60 L43.43,40.41 L43.66,39.87 L43.75,39.27 L43.75,13.23 L43.55,12.27 L43.02,11.48 L42.23,10.95 L41.27,10.76 L40.80,10.76 L39.84,10.95 L39.05,11.48 L38.52,12.27 L38.32,13.23 L38.32,39.27 L38.52,40.23 L39.05,41.02 L39.84,41.55 L40.80,41.74 L41.07,41.74 L40.67,42.53 L40.56,43.38 L40.75,44.22 L41.26,44.96 L50.43,54.13 L51.76,53.74 L53.19,53.60 L56.00,53.60 L55.95,52.41 L55.32,51.35 L55.32,51.36 Z" fill="#7a7a7a" stroke="#1e1e1e" stroke-width="1" stroke-linejoin="round"/><ellipse cx="40.80" cy="40.46" rx="5.71" ry="5.71" fill="#666666" stroke="#666666" stroke-width="1"/><path d="M48.05,61.13 L48.16,60.09 L48.45,59.13 L48.93,58.25 L49.56,57.49 L50.32,56.86 L51.19,56.39 L52.16,56.09 L53.19,55.99 L55.25,56.09 L57.29,56.37 L59.30,56.83 L61.27,57.46 L61.42,57.82 L61.22,58.22 L60.16,59.10 L58.93,60.07 L58.50,60.59 L58.33,61.12 L48.05,61.12 L48.05,61.13 Z" fill="#0078d4" stroke="#0078d4" stroke-width="1" stroke-linejoin="round"/><path d="M88.31,63.86 L88.15,62.28 L87.69,60.80 L86.97,59.46 L86.00,58.30 L84.84,57.34 L83.50,56.61 L82.02,56.15 L80.44,55.99 L54.35,55.99 L53.20,55.99 L54.23,56.10 L55.20,56.40 L56.07,56.87 L56.83,57.50 L57.46,58.26 L57.93,59.13 L58.23,60.10 L58.34,61.13 L57.77,90.82 L57.83,91.55 L58.05,92.47 L58.43,93.32 L59.58,94.73 L60.31,95.27 L61.13,95.67 L62.02,95.92 L62.96,96.00 L63.99,95.89 L64.96,95.58 L65.82,95.10 L66.58,94.46 L67.20,93.70 L67.67,92.82 L67.96,91.86 L68.05,90.82 L88.32,90.83 L88.32,63.86 L88.31,63.86 Z" fill="#3d92e5" stroke="#1e1e1e" stroke-width="1" stroke-linejoin="round"/><path d="M66.77,60.60 L66.53,61.18 L65.95,61.42 L65.38,61.18 L65.14,60.60 L65.38,60.03 L65.95,59.79 L65.95,59.79 L65.95,59.79 L66.53,60.03 L66.77,60.60 L66.77,60.60 L66.77,60.60 Z" fill="#ffffff" stroke="#ffffff" stroke-width="1" stroke-linejoin="round"/><path d="M66.77,74.81 L66.53,75.39 L65.95,75.63 L65.38,75.39 L65.13,74.81 L65.37,74.23 L65.95,73.99 L65.95,73.99 L66.52,74.23 L66.76,74.81 L66.77,74.81 Z" fill="#ffffff" stroke="#ffffff" stroke-width="1" stroke-linejoin="round"/><path d="M62.46,72.52 L62.46,70.21 L63.78,70.99 L65.30,71.27 L66.08,71.19 L66.63,70.97 L66.95,70.64 L67.06,70.22 L66.89,69.68 L66.42,69.24 L65.71,68.85 L64.82,68.47 L63.85,67.96 L63.02,67.23 L62.57,66.41 L62.43,65.49 L62.50,64.78 L62.75,64.10 L63.64,63.15 L64.94,62.60 L66.49,62.42 L67.92,62.52 L69.06,62.82 L69.06,64.97 L68.50,64.65 L67.87,64.42 L66.61,64.25 L65.90,64.32 L65.35,64.54 L65.00,64.86 L64.88,65.29 L65.01,65.75 L65.40,66.14 L66.01,66.50 L66.82,66.87 L67.94,67.41 L68.78,68.07 L69.32,68.91 L69.50,70.20 L69.18,71.46 L68.79,71.99 L68.29,72.41 L66.98,72.93 L65.41,73.09 L63.79,72.95 L62.46,72.52 L62.46,72.52 Z" fill="#ffffff" stroke="#ffffff" stroke-width="1" stroke-linejoin="round"/><path d="M77.97,84.12 L61.90,84.12 L61.20,83.85 L60.90,83.16 L61.18,82.46 L61.87,82.16 L61.90,82.16 L77.97,82.16 L78.66,82.46 L78.93,83.16 L78.65,83.83 L77.97,84.12 Z" fill="#ffffff" stroke="#ffffff" stroke-width="1" stroke-linejoin="round"/><path d="M82.08,88.20 L61.90,88.20 L61.20,87.93 L60.90,87.24 L61.18,86.54 L61.87,86.24 L61.90,86.24 L82.08,86.24 L82.78,86.52 L83.08,87.21 L82.80,87.90 L82.11,88.20 L82.08,88.20 L82.08,88.20 Z" fill="#ffffff" stroke="#ffffff" stroke-width="1" stroke-linejoin="round"/><path d="M81.97,79.06 L81.69,78.37 L80.99,78.08 L61.90,78.08 L61.82,78.08 L61.27,78.29 L60.95,78.78 L60.93,79.26 L61.12,79.67 L61.46,79.95 L61.91,80.04 L81.00,80.04 L81.69,79.76 L81.98,79.06 L81.98,79.06 L81.97,79.06 Z" fill="#ffffff" stroke="#ffffff" stroke-width="1" stroke-linejoin="round"/><path d="M90.42,95.96 L91.46,95.85 L92.42,95.55 L93.30,95.08 L94.06,94.45 L94.68,93.69 L95.16,92.82 L95.46,91.85 L95.56,90.82 L68.05,90.82 L67.94,91.85 L67.62,92.82 L67.14,93.69 L66.52,94.45 L65.79,95.08 L64.99,95.55 L64.16,95.85 L63.31,95.96 L90.42,95.96 Z" fill="#5ea0ef" stroke="#5ea0ef" stroke-width="1" stroke-linejoin="round"/></svg>