<svg xmlns="http://www.w3.org/2000/svg" viewBox="-2.00 -1.98 100.00 99.97"><path d="M50.56,53.47 L52.30,51.77 L54.18,50.23 L56.18,48.86 L58.29,47.67 L60.49,46.66 L62.78,45.83 L65.14,45.20 L67.56,44.78 L73.52,44.17 L79.16,43.97 L83.30,44.09 L87.24,44.45 L90.99,45.06 L94.58,45.93 L95.98,46.50 L96.00,45.62 L95.90,43.53 L95.61,41.51 L95.13,39.54 L94.48,37.66 L93.67,35.85 L92.70,34.14 L91.58,32.53 L90.33,31.03 L88.94,29.65 L87.44,28.40 L85.83,27.28 L84.11,26.32 L82.30,25.51 L80.41,24.86 L78.45,24.39 L76.41,24.11 L75.88,21.59 L75.14,19.15 L74.19,16.81 L73.04,14.58 L71.71,12.47 L70.21,10.48 L68.55,8.63 L66.73,6.94 L64.78,5.40 L62.69,4.04 L60.48,2.85 L58.16,1.86 L55.74,1.07 L53.24,0.49 L50.65,0.14 L48.00,0.02 L45.35,0.14 L42.77,0.49 L40.26,1.07 L37.84,1.86 L35.53,2.85 L33.32,4.04 L31.23,5.40 L29.27,6.94 L27.46,8.64 L25.79,10.48 L24.29,12.47 L22.96,14.58 L21.82,16.81 L20.86,19.15 L20.12,21.59 L19.59,24.11 L17.56,24.40 L15.59,24.87 L13.70,25.51 L11.89,26.32 L10.18,27.29 L8.56,28.40 L7.06,29.65 L5.67,31.03 L4.42,32.53 L3.30,34.14 L2.33,35.85 L1.52,37.66 L0.87,39.55 L0.39,41.51 L0.10,43.54 L0.00,45.62 L0.11,47.83 L0.44,49.98 L0.97,52.05 L1.70,54.03 L2.61,55.92 L3.69,57.70 L4.93,59.36 L6.33,60.90 L7.86,62.29 L9.52,63.54 L11.30,64.62 L13.19,65.53 L15.18,66.25 L17.25,66.79 L19.39,67.11 L21.60,67.23 L44.03,67.23 L44.26,65.45 L44.67,63.66 L45.25,61.88 L46.00,60.11 L47.98,56.68 L50.57,53.48 L50.56,53.47 Z" fill="#2f8ce2" stroke="#1e1e1e" stroke-width="1" stroke-linejoin="round"/><path d="M45.72,92.35 L46.24,88.88 L47.37,85.17 L49.09,81.33 L51.35,77.49 L53.18,74.70 L55.40,71.93 L57.33,69.89 L59.45,67.93 L61.76,66.08 L64.26,64.37 L66.93,62.82 L69.77,61.45 L72.78,60.29 L75.95,59.36 L76.77,58.97 L77.35,58.32 L77.65,57.49 L77.61,56.59 L77.22,55.77 L76.57,55.18 L75.74,54.88 L74.84,54.93 L71.31,55.97 L67.96,57.26 L64.79,58.79 L61.82,60.51 L59.04,62.42 L56.47,64.47 L54.11,66.64 L51.97,68.92 L50.22,71.04 L48.65,73.23 L48.16,71.03 L47.98,68.57 L48.07,66.98 L48.36,65.38 L48.83,63.77 L49.47,62.17 L51.20,59.08 L53.49,56.22 L56.36,53.61 L58.00,52.45 L59.77,51.41 L61.67,50.50 L63.69,49.74 L65.83,49.15 L68.09,48.75 L72.66,48.25 L76.80,48.01 L80.52,47.99 L83.84,48.14 L86.78,48.43 L89.36,48.83 L93.51,49.79 L94.41,50.19 L95.14,50.81 L95.68,51.62 L95.97,52.56 L95.98,53.54 L95.72,54.47 L95.21,55.29 L94.47,55.94 L93.97,56.43 L93.29,57.50 L92.55,59.15 L91.82,61.27 L90.63,65.50 L90.37,66.46 L88.62,72.34 L87.51,75.33 L86.12,78.29 L84.39,81.13 L82.24,83.71 L80.95,84.91 L79.55,85.97 L78.03,86.90 L76.39,87.68 L74.62,88.31 L72.73,88.77 L70.70,89.05 L68.54,89.15 L66.34,89.04 L64.32,88.72 L62.46,88.22 L60.76,87.56 L59.22,86.77 L57.84,85.88 L55.51,83.86 L54.29,86.34 L53.40,88.70 L52.83,90.86 L52.56,92.77 L52.21,94.09 L51.41,95.13 L50.28,95.80 L48.94,95.98 L47.62,95.63 L46.58,94.83 L45.91,93.70 L45.73,92.35 L45.72,92.35 Z" fill="#5e9524" stroke="#1e1e1e" stroke-width="1" stroke-linejoin="round"/><path d="M45.72,92.35 L46.24,88.88 L47.37,85.17 L49.09,81.33 L51.35,77.49 L53.18,74.70 L55.40,71.93 L57.33,69.89 L59.45,67.93 L61.76,66.08 L64.26,64.37 L66.93,62.82 L69.77,61.45 L72.78,60.29 L75.95,59.36 L79.21,58.45 L82.29,57.30 L85.01,55.97 L87.20,54.52 L88.68,52.98 L89.11,52.21 L89.29,51.43 L89.21,50.67 L88.85,49.92 L88.18,49.19 L87.18,48.49 L91.12,49.17 L93.50,49.79 L94.41,50.19 L95.14,50.81 L95.67,51.62 L95.96,52.56 L95.97,53.54 L95.71,54.47 L95.20,55.29 L94.47,55.94 L93.97,56.43 L93.28,57.50 L92.55,59.15 L91.82,61.27 L90.62,65.50 L90.36,66.46 L88.62,72.34 L87.50,75.33 L86.11,78.29 L84.38,81.13 L82.23,83.71 L80.95,84.91 L79.54,85.97 L78.03,86.90 L76.38,87.68 L74.62,88.31 L72.72,88.77 L70.70,89.05 L68.53,89.15 L66.34,89.04 L64.31,88.72 L62.46,88.22 L60.76,87.56 L59.22,86.77 L57.83,85.88 L55.51,83.86 L54.29,86.34 L53.39,88.70 L52.82,90.86 L52.56,92.77 L52.21,94.09 L51.41,95.13 L50.28,95.80 L48.93,95.98 L47.62,95.63 L46.57,94.83 L45.91,93.70 L45.72,92.35 L45.72,92.35 Z" fill="#7ec930" stroke="#1e1e1e" stroke-width="1" stroke-linejoin="round"/></svg>