<svg xmlns="http://www.w3.org/2000/svg" viewBox="-2.00 10.77 100.00 75.89"><path d="M38.04,23.83 L19.02,34.89 L0.00,23.83 L19.02,12.77 L38.04,23.83 Z" fill="#5ea0ef" stroke="#1e1e1e" stroke-width="1" stroke-linejoin="round"/><path d="M38.04,73.57 L19.02,62.59 L19.02,84.62 L38.04,73.57 Z" fill="#005ba1" stroke="#1e1e1e" stroke-width="1" stroke-linejoin="round"/><path d="M19.02,34.89 L19.02,34.89 L19.02,34.89 L0.00,23.83 L0.00,73.61 L19.02,84.66 L38.04,73.61 L38.04,73.57 L19.02,84.62 L19.02,62.59 L38.04,73.57 L38.04,23.83 L19.02,34.89 Z" fill="#0078d4" stroke="#1e1e1e" stroke-width="1" stroke-linejoin="round"/><path d="M57.96,23.83 L76.98,34.89 L96.00,23.83 L76.98,12.77 L57.96,23.83 Z" fill="#9cebff" stroke="#1e1e1e" stroke-width="1" stroke-linejoin="round"/><path d="M57.96,73.57 L76.98,62.59 L76.98,84.62 L57.96,73.57 Z" fill="#32bedd" stroke="#1e1e1e" stroke-width="1" stroke-linejoin="round"/><path d="M76.98,34.85 L76.98,34.85 L76.98,34.85 L76.98,62.55 L57.96,73.57 L57.96,23.80 L76.98,34.85 Z" fill="#67d5ee" stroke="#1e1e1e" stroke-width="1" stroke-linejoin="round"/><path d="M57.96,23.83 L76.98,34.89 L96.00,23.83 L76.98,12.77 L57.96,23.83 Z" fill="#9cebff" stroke="#1e1e1e" stroke-width="1" stroke-linejoin="round"/><path d="M76.98,34.89 L57.96,23.83 L57.96,73.57 L76.98,62.59 L76.98,84.62 L57.96,73.57 L57.96,73.61 L76.98,84.66 L96.00,73.61 L96.00,23.83 L96.00,23.83 L76.98,34.89 Z" fill="#50e6ff" stroke="#1e1e1e" stroke-width="1" stroke-linejoin="round"/><path d="M57.96,73.57 L76.98,62.59 L76.98,84.62 L57.96,73.57 Z" fill="#32bedd" stroke="#1e1e1e" stroke-width="1" stroke-linejoin="round"/><path d="M76.98,34.85 L76.98,34.85 L76.98,34.85 L76.98,62.55 L57.96,73.57 L57.96,23.80 L76.98,34.85 Z" fill="#67d5ee" stroke="#1e1e1e" stroke-width="1" stroke-linejoin="round"/><path d="M19.02,34.89 L19.02,34.89 L19.02,34.89 L19.02,62.58 L38.04,73.61 L38.04,23.83 L19.02,34.89 Z" fill="#005ba1" stroke="#1e1e1e" stroke-width="1" stroke-linejoin="round"/><path d="M76.92,54.01 L76.19,55.53 L75.24,56.98 L74.10,58.36 L72.77,59.66 L71.28,60.88 L69.64,62.01 L65.98,64.01 L61.90,65.61 L57.52,66.80 L52.98,67.53 L48.40,67.79 L47.97,67.79 L47.54,67.79 L42.96,67.53 L38.42,66.80 L34.05,65.61 L29.96,64.01 L26.30,62.01 L24.66,60.88 L23.17,59.66 L21.84,58.36 L20.70,56.98 L19.75,55.53 L19.02,54.01 L18.97,49.74 L19.02,44.87 L19.59,46.58 L20.39,48.22 L21.40,49.80 L22.61,51.30 L24.00,52.71 L25.56,54.04 L27.27,55.27 L29.12,56.40 L33.19,58.33 L37.64,59.77 L42.37,60.67 L47.25,60.99 L47.97,60.99 L48.69,60.99 L53.57,60.67 L58.29,59.77 L62.74,58.33 L66.81,56.40 L68.66,55.27 L70.38,54.04 L71.94,52.71 L73.33,51.30 L74.54,49.80 L75.55,48.22 L76.35,46.58 L76.92,44.87 L76.97,49.74 L76.92,54.01 Z" fill="#1a8ec0" stroke="#1e1e1e" stroke-width="1" stroke-linejoin="round"/><path d="M71.47,31.69 L67.44,34.50 L63.06,36.73 L58.42,38.33 L53.60,39.28 L48.69,39.55 L47.97,39.55 L47.25,39.55 L42.35,39.28 L37.53,38.34 L32.89,36.74 L28.52,34.52 L24.49,31.71 L19.93,34.38 L20.83,35.71 L21.90,36.98 L24.49,39.32 L27.61,41.36 L31.14,43.09 L35.00,44.48 L39.08,45.50 L43.30,46.13 L47.54,46.35 L48.40,46.35 L52.65,46.13 L56.87,45.50 L60.95,44.47 L64.82,43.08 L68.35,41.35 L71.47,39.30 L74.06,36.95 L75.13,35.68 L76.03,34.34 L71.47,31.69 Z" fill="#1a8ec0" stroke="#1e1e1e" stroke-width="1" stroke-linejoin="round"/></svg>