<svg xmlns="http://www.w3.org/2000/svg" viewBox="-1.57 -2.00 99.14 100.01"><path d="M55.91,63.51 L45.67,63.51 L45.67,61.13 L45.83,59.62 L46.27,58.20 L46.96,56.93 L47.88,55.81 L49.00,54.89 L50.27,54.20 L51.69,53.76 L53.20,53.61 L79.17,53.61 L80.11,50.46 L80.80,47.21 L81.22,43.87 L81.37,40.46 L81.16,36.32 L80.54,32.31 L79.54,28.43 L78.18,24.71 L76.48,21.18 L74.45,17.84 L72.12,14.72 L69.51,11.85 L66.63,9.24 L63.52,6.91 L60.18,4.88 L56.65,3.18 L52.93,1.82 L49.05,0.82 L45.03,0.21 L40.90,0.00 L36.76,0.21 L32.74,0.82 L28.86,1.82 L25.15,3.18 L21.61,4.88 L18.27,6.91 L15.16,9.24 L12.28,11.85 L9.67,14.73 L7.34,17.84 L5.32,21.18 L3.61,24.71 L2.25,28.43 L1.25,32.31 L0.64,36.33 L0.43,40.46 L0.64,44.60 L1.25,48.62 L2.25,52.50 L3.61,56.21 L5.32,59.75 L7.34,63.09 L9.67,66.20 L12.28,69.08 L15.16,71.69 L18.27,74.02 L21.61,76.04 L25.15,77.75 L28.86,79.11 L32.74,80.11 L36.76,80.72 L40.90,80.93 L44.75,80.75 L48.50,80.21 L52.13,79.34 L55.63,78.15 L55.90,63.52 L55.91,63.51 Z" fill="#b0b0b0" stroke="#1e1e1e" stroke-width="1" stroke-linejoin="round"/><path d="M55.91,63.51 L45.67,63.51 L45.67,61.13 L45.83,59.62 L46.27,58.20 L46.96,56.93 L47.88,55.81 L49.00,54.89 L50.27,54.20 L51.69,53.76 L53.20,53.61 L72.51,53.61 L73.65,50.47 L74.48,47.19 L75.00,43.81 L75.17,40.31 L75.00,36.80 L74.48,33.39 L73.63,30.09 L72.47,26.94 L71.03,23.93 L69.30,21.10 L67.33,18.45 L65.11,16.01 L62.67,13.79 L60.02,11.82 L57.19,10.09 L54.18,8.65 L51.03,7.49 L47.73,6.64 L44.32,6.12 L40.81,5.95 L37.29,6.12 L33.88,6.65 L30.58,7.49 L27.43,8.65 L24.42,10.10 L21.59,11.82 L18.94,13.80 L16.50,16.02 L14.28,18.46 L12.30,21.10 L10.58,23.94 L9.13,26.94 L7.98,30.10 L7.13,33.39 L6.61,36.81 L6.43,40.32 L6.61,43.83 L7.13,47.25 L7.98,50.54 L9.13,53.70 L10.58,56.70 L12.30,59.54 L14.28,62.18 L16.50,64.62 L18.94,66.84 L21.58,68.82 L24.42,70.54 L27.42,71.99 L30.58,73.14 L33.87,73.99 L37.29,74.51 L40.80,74.69 L44.76,74.46 L48.59,73.80 L52.27,72.73 L55.76,71.27 L55.91,63.51 L55.91,63.51 Z" fill="#ffffff" stroke="#1e1e1e" stroke-width="1" stroke-linejoin="round"/><path d="M56.76,57.94 L58.14,56.56 L62.42,60.84 L61.04,62.22 L56.76,57.94 Z" fill="#7a7a7a" stroke="#7a7a7a" stroke-width="1" stroke-linejoin="round"/><path d="M57.07,22.60 L58.45,23.98 L62.73,19.71 L61.35,18.33 L57.07,22.60 L57.07,22.60 Z" fill="#7a7a7a" stroke="#7a7a7a" stroke-width="1" stroke-linejoin="round"/><path d="M64.60,39.46 L64.60,41.41 L70.65,41.41 L70.65,39.46 L64.60,39.46 Z" fill="#7a7a7a" stroke="#7a7a7a" stroke-width="1" stroke-linejoin="round"/><path d="M39.71,70.36 L41.66,70.36 L41.66,64.31 L39.71,64.31 L39.71,70.36 Z" fill="#7a7a7a" stroke="#7a7a7a" stroke-width="1" stroke-linejoin="round"/><path d="M24.04,22.42 L19.76,18.14 L18.38,19.52 L22.66,23.80 L24.04,22.42 L24.04,22.42 Z" fill="#7a7a7a" stroke="#7a7a7a" stroke-width="1" stroke-linejoin="round"/><path d="M18.66,61.03 L20.04,62.42 L24.31,58.14 L22.93,56.76 L18.66,61.03 L18.66,61.03 Z" fill="#7a7a7a" stroke="#7a7a7a" stroke-width="1" stroke-linejoin="round"/><path d="M10.29,41.41 L16.34,41.41 L16.34,39.46 L10.29,39.46 L10.29,41.41 L10.29,41.41 Z" fill="#7a7a7a" stroke="#7a7a7a" stroke-width="1" stroke-linejoin="round"/><path d="M40.99,5.95 L44.53,6.14 L47.96,6.67 L51.27,7.52 L54.44,8.69 L57.46,10.15 L60.31,11.89 L62.96,13.88 L65.41,16.12 L67.64,18.57 L69.62,21.24 L71.35,24.09 L72.80,27.11 L73.96,30.29 L74.80,33.60 L75.32,37.04 L75.49,40.57 L75.32,43.99 L74.82,47.31 L74.01,50.53 L72.92,53.61 L79.17,53.61 L80.00,50.89 L80.64,48.13 L81.08,45.35 L81.32,42.54 L81.37,39.73 L81.23,36.91 L80.89,34.12 L80.36,31.35 L79.63,28.61 L78.71,25.92 L77.59,23.29 L76.28,20.73 L74.78,18.25 L73.08,15.86 L71.19,13.58 L69.10,11.40 L66.16,8.81 L63.00,6.53 L59.65,4.58 L56.14,2.95 L52.48,1.67 L48.72,0.75 L44.86,0.19 L40.94,0.00 L39.81,0.23 L38.89,0.85 L38.27,1.77 L38.04,2.90 L38.04,2.95 L38.27,4.10 L38.90,5.05 L39.84,5.70 L40.99,5.95 L40.99,5.95 Z" fill="#0078d4" stroke="#1e1e1e" stroke-width="1" stroke-linejoin="round"/><path d="M55.75,71.74 L52.27,73.16 L48.62,74.21 L44.81,74.85 L40.87,75.07 L37.34,74.89 L33.91,74.36 L30.60,73.50 L27.43,72.33 L24.41,70.87 L21.56,69.14 L18.90,67.14 L16.45,64.91 L14.23,62.45 L12.24,59.79 L10.52,56.93 L9.07,53.91 L7.91,50.73 L7.06,47.42 L6.55,43.99 L6.37,40.45 L6.53,37.23 L6.98,34.06 L7.72,30.96 L8.74,27.94 L10.03,25.03 L11.59,22.25 L13.41,19.61 L15.48,17.14 L17.90,20.66 L24.66,5.62 L8.38,7.52 L11.95,12.28 L9.22,15.39 L6.87,18.70 L4.89,22.18 L3.28,25.79 L2.04,29.51 L1.17,33.31 L0.68,37.16 L0.55,41.04 L0.80,44.91 L1.41,48.75 L2.39,52.52 L3.75,56.20 L5.46,59.76 L7.55,63.17 L10.01,66.40 L12.83,69.43 L15.08,71.46 L17.44,73.29 L19.90,74.92 L22.45,76.35 L25.07,77.58 L27.75,78.62 L30.49,79.45 L33.26,80.09 L36.07,80.53 L38.90,80.77 L41.73,80.81 L44.56,80.66 L47.38,80.31 L50.17,79.76 L52.92,79.02 L55.62,78.07 L55.74,71.74 L55.75,71.74 Z" fill="#0078d4" stroke="#1e1e1e" stroke-width="1" stroke-linejoin="round"/><path d="M55.33,51.36 L45.09,41.13 L44.32,40.61 L43.43,40.42 L43.66,39.87 L43.75,39.27 L43.75,13.23 L43.55,12.27 L43.02,11.48 L42.24,10.95 L41.27,10.76 L40.80,10.76 L39.84,10.95 L39.05,11.48 L38.52,12.27 L38.33,13.23 L38.33,39.27 L38.52,40.23 L39.05,41.02 L39.84,41.55 L40.80,41.74 L41.07,41.74 L40.67,42.53 L40.56,43.39 L40.76,44.22 L41.26,44.96 L50.43,54.13 L51.77,53.74 L53.19,53.60 L56.00,53.60 L55.95,52.41 L55.33,51.35 L55.33,51.36 Z" fill="#7a7a7a" stroke="#1e1e1e" stroke-width="1" stroke-linejoin="round"/><ellipse cx="40.80" cy="40.46" rx="5.71" ry="5.71" fill="#666666" stroke="#666666" stroke-width="1"/><path d="M48.05,61.13 L48.16,60.10 L48.46,59.13 L48.93,58.26 L49.56,57.50 L50.32,56.87 L51.19,56.39 L52.16,56.09 L53.19,55.99 L55.26,56.09 L57.30,56.37 L59.30,56.83 L61.27,57.46 L61.42,57.83 L61.22,58.22 L60.17,59.10 L58.93,60.07 L58.50,60.59 L58.34,61.13 L48.05,61.13 L48.05,61.13 Z" fill="#0078d4" stroke="#0078d4" stroke-width="1" stroke-linejoin="round"/><path d="M88.31,63.87 L88.15,62.28 L87.70,60.80 L86.97,59.47 L86.01,58.30 L84.84,57.34 L83.51,56.61 L82.03,56.15 L80.44,55.99 L54.36,55.99 L53.20,55.99 L54.24,56.10 L55.20,56.40 L56.07,56.87 L56.83,57.50 L57.46,58.26 L57.94,59.14 L58.24,60.10 L58.34,61.14 L57.78,90.83 L57.83,91.56 L58.05,92.48 L58.43,93.32 L59.58,94.74 L60.32,95.27 L61.14,95.67 L62.03,95.92 L62.97,96.01 L64.00,95.89 L64.96,95.58 L65.83,95.10 L66.58,94.47 L67.20,93.71 L67.67,92.83 L67.96,91.86 L68.06,90.83 L88.33,90.84 L88.33,63.87 L88.31,63.87 Z" fill="#3d92e5" stroke="#1e1e1e" stroke-width="1" stroke-linejoin="round"/><path d="M66.77,60.61 L66.54,61.19 L65.96,61.42 L65.38,61.19 L65.14,60.61 L65.38,60.03 L65.96,59.79 L65.96,59.79 L65.96,59.79 L66.53,60.03 L66.77,60.61 L66.77,60.61 L66.77,60.61 Z" fill="#ffffff" stroke="#ffffff" stroke-width="1" stroke-linejoin="round"/><path d="M66.77,74.81 L66.54,75.39 L65.96,75.63 L65.38,75.40 L65.14,74.82 L65.37,74.24 L65.95,73.99 L65.95,73.99 L66.53,74.23 L66.77,74.81 L66.77,74.81 Z" fill="#ffffff" stroke="#ffffff" stroke-width="1" stroke-linejoin="round"/><path d="M62.46,72.52 L62.46,70.22 L63.79,70.99 L65.30,71.27 L66.08,71.19 L66.63,70.97 L66.95,70.64 L67.06,70.22 L66.89,69.69 L66.42,69.25 L65.71,68.86 L64.83,68.47 L63.85,67.96 L63.02,67.24 L62.57,66.42 L62.43,65.49 L62.50,64.78 L62.76,64.11 L63.64,63.15 L64.94,62.60 L66.49,62.43 L67.92,62.52 L69.07,62.82 L69.07,64.97 L68.50,64.66 L67.87,64.43 L66.62,64.25 L65.90,64.33 L65.35,64.54 L65.00,64.86 L64.88,65.29 L65.01,65.75 L65.40,66.14 L66.02,66.51 L66.83,66.87 L67.94,67.42 L68.78,68.07 L69.32,68.92 L69.50,70.20 L69.18,71.47 L68.80,72.00 L68.29,72.42 L66.99,72.94 L65.41,73.10 L63.80,72.95 L62.46,72.52 L62.46,72.52 Z" fill="#ffffff" stroke="#ffffff" stroke-width="1" stroke-linejoin="round"/><path d="M77.97,84.13 L61.90,84.13 L61.21,83.85 L60.91,83.16 L61.18,82.46 L61.87,82.17 L61.90,82.17 L77.97,82.17 L78.66,82.46 L78.94,83.16 L78.65,83.84 L77.97,84.13 Z" fill="#ffffff" stroke="#ffffff" stroke-width="1" stroke-linejoin="round"/><path d="M82.09,88.21 L61.90,88.21 L61.21,87.93 L60.91,87.24 L61.18,86.54 L61.87,86.25 L61.90,86.25 L82.09,86.25 L82.78,86.52 L83.08,87.21 L82.81,87.91 L82.12,88.21 L82.09,88.21 L82.09,88.21 Z" fill="#ffffff" stroke="#ffffff" stroke-width="1" stroke-linejoin="round"/><path d="M81.98,79.07 L81.69,78.37 L81.00,78.09 L61.90,78.09 L61.82,78.09 L61.27,78.30 L60.95,78.78 L60.93,79.27 L61.12,79.67 L61.46,79.95 L61.91,80.05 L81.00,80.05 L81.70,79.76 L81.98,79.07 L81.98,79.07 L81.98,79.07 Z" fill="#ffffff" stroke="#ffffff" stroke-width="1" stroke-linejoin="round"/><path d="M90.43,95.96 L91.46,95.86 L92.43,95.56 L93.30,95.08 L94.06,94.46 L94.69,93.69 L95.16,92.82 L95.46,91.86 L95.57,90.82 L68.05,90.82 L67.94,91.86 L67.63,92.82 L67.14,93.69 L66.52,94.46 L65.80,95.08 L65.00,95.56 L64.16,95.86 L63.31,95.96 L90.43,95.96 Z" fill="#5ea0ef" stroke="#5ea0ef" stroke-width="1" stroke-linejoin="round"/></svg>