<svg xmlns="http://www.w3.org/2000/svg" viewBox="5.04 -1.19 87.49 100.00"><path d="M90.26,92.59 L70.79,42.06 L70.24,41.36 L69.39,41.09 L55.51,41.09 L55.51,29.06 L55.33,26.74 L54.40,24.60 L52.83,22.89 L50.78,21.77 L48.49,21.39 L46.19,21.77 L44.15,22.89 L42.58,24.60 L41.65,26.74 L41.47,29.06 L41.47,41.09 L28.95,41.09 L28.07,41.35 L27.48,42.06 L7.32,92.59 L7.04,93.97 L7.44,95.33 L8.42,96.36 L9.76,96.81 L87.82,96.81 L89.16,96.36 L90.13,95.33 L90.53,93.97 L90.26,92.59 L90.26,92.59 Z" fill="#3990e4" stroke="#1e1e1e" stroke-width="1" stroke-linejoin="round"/><path d="M18.27,65.05 L65.05,41.09 L69.11,41.09 L70.01,41.37 L70.58,42.12 L75.08,53.77 L9.76,86.73 L18.27,65.05 Z" fill="#83b9f9" stroke="#1e1e1e" stroke-width="1" stroke-linejoin="round"/><path d="M51.71,96.71 L84.24,77.19 L90.15,92.59 L90.39,93.98 L89.98,95.33 L88.99,96.35 L87.65,96.81 L51.71,96.71 Z" fill="#83b9f9" stroke="#1e1e1e" stroke-width="1" stroke-linejoin="round"/><path d="M48.08,0.87 L25.75,13.82 L25.43,14.14 L25.31,14.58 L25.31,16.59 L25.57,17.20 L26.18,17.45 L29.54,17.45 L29.54,41.09 L33.77,41.09 L33.77,17.45 L63.26,17.45 L63.26,41.09 L67.43,41.09 L67.43,17.45 L70.85,17.45 L71.46,17.20 L71.72,16.59 L71.72,14.58 L71.60,14.14 L71.28,13.82 L48.79,0.87 L48.43,0.81 L48.08,0.87 L48.08,0.87 Z" fill="#0078d4" stroke="#1e1e1e" stroke-width="1" stroke-linejoin="round"/></svg>