<svg xmlns="http://www.w3.org/2000/svg" viewBox="0.76 1.79 100.00 98.44"><path d="M85.58,76.26 L88.51,76.34 L91.33,77.14 L93.86,78.61 L95.96,80.66 L97.47,83.17 L98.32,85.98 L98.45,88.91 L98.45,88.91 L97.74,91.65 L96.34,94.11 L94.34,96.11 L91.89,97.52 L89.15,98.23 L86.32,98.20 L83.60,97.43 L81.17,95.96 L80.08,94.61 L79.71,92.92 L79.71,76.21 L85.58,76.26 Z" fill="#198ab3" stroke="#1e1e1e" stroke-width="1" stroke-linejoin="round"/><path d="M98.73,76.21 L98.73,25.40 L98.26,22.08 L96.96,18.99 L94.90,16.33 L92.23,14.30 L89.13,13.02 L85.80,12.59 L2.88,12.59 L2.88,12.59 L2.88,63.39 L3.32,66.74 L4.61,69.86 L6.67,72.53 L9.34,74.59 L12.46,75.88 L15.81,76.32 L29.52,76.32 L71.80,76.32 L80.27,76.07 L88.74,76.32 L90.70,76.77 L92.38,77.44 L93.78,78.28 L94.95,79.26 L95.89,80.35 L96.63,81.52 L97.60,83.97 L98.04,86.33 L98.14,88.34 L98.00,90.26 L98.76,83.25 L98.73,76.21 L98.73,76.21 Z" fill="#30d0f2" stroke="#1e1e1e" stroke-width="1" stroke-linejoin="round"/><path d="M2.82,64.46 L2.82,64.07 L3.68,61.21 L5.31,58.72 L7.59,56.79 L10.32,55.59 L13.27,55.21 L16.22,55.69 L18.90,56.98 L21.11,58.99 L22.02,59.41 L22.96,59.06 L23.37,58.14 L23.37,14.00 L23.41,13.18 L23.37,12.36 L23.37,12.36 L23.37,12.36 L22.46,9.61 L20.83,7.22 L18.61,5.37 L15.96,4.19 L13.10,3.79 L10.23,4.19 L7.58,5.37 L5.36,7.22 L3.73,9.61 L2.82,12.36 L2.82,12.36 L2.82,12.36 L2.76,13.18 L2.82,14.00 L2.82,64.46 Z" fill="#198ab3" stroke="#1e1e1e" stroke-width="1" stroke-linejoin="round"/><path d="M69.66,47.87 L69.45,47.08 L68.87,46.50 L68.08,46.29 L62.43,46.29 L61.47,43.86 L57.58,34.26 L57.13,33.19 L59.52,32.10 L61.42,30.28 L62.60,27.93 L62.93,25.32 L62.38,22.75 L61.00,20.51 L58.95,18.85 L56.47,17.98 L53.84,17.98 L51.35,18.85 L49.31,20.51 L47.92,22.75 L47.37,25.32 L47.70,27.93 L48.88,30.28 L50.78,32.10 L53.18,33.19 L52.67,34.32 L48.55,43.92 L47.53,46.40 L41.89,46.40 L41.10,46.61 L40.52,47.19 L40.30,47.98 L40.50,48.78 L41.08,49.37 L41.89,49.56 L46.40,49.56 L44.82,53.63 L41.26,63.51 L41.26,63.51 L41.23,64.50 L41.91,65.23 L42.91,65.26 L43.64,64.58 L43.64,64.58 L48.60,55.38 L51.54,49.73 L58.65,49.73 L61.36,55.38 L66.16,64.63 L66.16,64.63 L66.87,65.22 L67.80,65.18 L68.46,64.54 L68.53,63.62 L68.53,63.62 L65.26,53.74 L63.73,49.62 L67.91,49.62 L68.84,49.47 L69.51,48.80 L69.66,47.87 Z" fill="#ffffff" stroke="#ffffff" stroke-width="1" stroke-linejoin="round"/><path d="M50.80,25.63 L51.15,23.88 L52.14,22.39 L53.63,21.40 L55.38,21.06 L57.13,21.40 L58.61,22.39 L59.60,23.88 L59.95,25.63 L59.60,27.38 L58.61,28.86 L57.13,29.85 L55.38,30.20 L53.63,29.85 L52.14,28.86 L51.15,27.38 L50.80,25.63 Z" fill="#30d0f2" stroke="#30d0f2" stroke-width="1" stroke-linejoin="round"/><path d="M53.23,46.29 L53.23,45.89 L55.09,41.83 L56.90,45.84 L56.90,46.29 L53.23,46.29 Z" fill="#30d0f2" stroke="#30d0f2" stroke-width="1" stroke-linejoin="round"/></svg>