<svg xmlns="http://www.w3.org/2000/svg" viewBox="0.61 1.58 94.70 93.23"><path d="M80.85,72.05 L83.62,72.12 L86.29,72.88 L88.68,74.27 L90.66,76.21 L92.09,78.58 L92.89,81.23 L93.01,84.00 L93.01,84.00 L92.35,86.59 L91.02,88.91 L89.14,90.81 L86.82,92.14 L84.23,92.81 L81.55,92.78 L78.98,92.05 L76.69,90.67 L75.66,89.39 L75.31,87.79 L75.31,72.00 L80.85,72.05 Z" fill="#198ab3" stroke="#1e1e1e" stroke-width="1" stroke-linejoin="round"/><path d="M93.28,72.00 L93.28,24.00 L92.84,20.86 L91.61,17.94 L89.67,15.43 L87.14,13.51 L84.21,12.30 L81.07,11.89 L2.72,11.89 L2.72,11.89 L2.72,59.89 L3.14,63.05 L4.36,66.00 L6.30,68.53 L8.83,70.47 L11.77,71.69 L14.93,72.11 L27.89,72.11 L67.84,72.11 L75.84,71.87 L83.84,72.11 L85.70,72.54 L87.28,73.16 L88.61,73.96 L89.71,74.88 L90.60,75.92 L91.29,77.02 L92.21,79.33 L92.63,81.56 L92.72,83.46 L92.59,85.28 L93.31,78.66 L93.28,72.00 L93.28,72.00 Z" fill="#30d0f2" stroke="#1e1e1e" stroke-width="1" stroke-linejoin="round"/><path d="M2.67,60.91 L2.67,60.53 L3.48,57.83 L5.02,55.48 L7.17,53.66 L9.75,52.52 L12.54,52.16 L15.32,52.61 L17.86,53.84 L19.95,55.73 L20.81,56.13 L21.69,55.80 L22.08,54.93 L22.08,13.23 L22.12,12.45 L22.08,11.68 L22.08,11.68 L22.08,11.68 L21.22,9.08 L19.68,6.82 L17.58,5.07 L15.08,3.96 L12.37,3.58 L9.66,3.96 L7.16,5.07 L5.06,6.82 L3.53,9.08 L2.67,11.68 L2.67,11.68 L2.67,11.68 L2.61,12.45 L2.67,13.23 L2.67,60.91 Z" fill="#198ab3" stroke="#1e1e1e" stroke-width="1" stroke-linejoin="round"/><path d="M65.81,45.23 L65.61,44.48 L65.07,43.93 L64.32,43.73 L58.99,43.73 L58.08,41.44 L54.40,32.37 L53.97,31.36 L56.24,30.33 L58.03,28.61 L59.15,26.39 L59.46,23.92 L58.93,21.49 L57.63,19.38 L55.69,17.81 L53.35,16.99 L50.86,16.99 L48.52,17.81 L46.58,19.38 L45.28,21.49 L44.75,23.92 L45.07,26.39 L46.18,28.61 L47.98,30.33 L50.24,31.36 L49.76,32.43 L45.87,41.49 L44.91,43.84 L39.57,43.84 L38.83,44.04 L38.28,44.59 L38.08,45.33 L38.26,46.09 L38.81,46.64 L39.57,46.83 L43.84,46.83 L42.35,50.67 L38.99,60.00 L38.99,60.00 L38.96,60.94 L39.60,61.63 L40.54,61.66 L41.23,61.01 L41.23,61.01 L45.92,52.32 L48.69,46.99 L55.41,46.99 L57.97,52.32 L62.51,61.07 L62.51,61.07 L63.18,61.62 L64.05,61.58 L64.68,60.98 L64.75,60.11 L64.75,60.11 L61.65,50.77 L60.21,46.88 L64.16,46.88 L65.04,46.74 L65.68,46.11 L65.81,45.23 Z" fill="#ffffff" stroke="#ffffff" stroke-width="1" stroke-linejoin="round"/><path d="M48.00,24.21 L48.33,22.56 L49.27,21.16 L50.67,20.22 L52.32,19.89 L53.97,20.22 L55.37,21.16 L56.31,22.56 L56.64,24.21 L56.31,25.87 L55.37,27.27 L53.97,28.20 L52.32,28.53 L50.67,28.20 L49.27,27.27 L48.33,25.87 L48.00,24.21 Z" fill="#30d0f2" stroke="#30d0f2" stroke-width="1" stroke-linejoin="round"/><path d="M50.29,43.73 L50.29,43.36 L52.05,39.52 L53.76,43.31 L53.76,43.73 L50.29,43.73 Z" fill="#30d0f2" stroke="#30d0f2" stroke-width="1" stroke-linejoin="round"/></svg>