<svg xmlns="http://www.w3.org/2000/svg" viewBox="8.99 0.67 78.03 94.67"><path d="M53.33,3.36 L14.56,3.36 L13.04,3.77 L11.93,4.88 L11.52,6.40 L11.52,89.60 L11.93,91.12 L13.04,92.23 L14.56,92.64 L81.44,92.64 L82.96,92.23 L84.07,91.12 L84.48,89.60 L84.48,34.56 L84.07,33.03 L82.96,31.90 L81.44,31.47 L59.25,31.47 L57.72,31.08 L56.60,29.96 L56.21,28.43 L56.21,6.40 L55.83,4.92 L54.79,3.82 L53.33,3.36 L53.33,3.36 Z" fill="#ffffff" stroke="#1e1e1e" stroke-width="1" stroke-linejoin="round"/><path d="M53.33,2.67 L14.08,2.67 L12.53,3.08 L11.40,4.21 L10.99,5.76 L10.99,90.24 L11.40,91.79 L12.53,92.92 L14.08,93.33 L81.92,93.33 L83.47,92.92 L84.60,91.79 L85.01,90.24 L85.01,34.35 L84.60,32.80 L83.47,31.67 L81.92,31.25 L59.41,31.25 L57.87,30.84 L56.73,29.71 L56.32,28.16 L56.32,5.76 L55.92,4.24 L54.84,3.12 L53.33,2.67 L53.33,2.67 Z" fill="#3990e4" stroke="#1e1e1e" stroke-width="1" stroke-linejoin="round"/><path d="M51.73,7.25 L51.73,28.16 L52.12,30.52 L53.22,32.65 L54.92,34.33 L57.05,35.41 L59.41,35.79 L80.48,35.79 L80.48,88.75 L15.52,88.75 L15.52,7.25 L51.73,7.25 Z" fill="#ffffff" stroke="#1e1e1e" stroke-width="1" stroke-linejoin="round"/><path d="M83.84,32.00 L55.25,3.36 L55.25,26.67 L55.66,28.71 L56.82,30.44 L58.55,31.59 L60.59,32.00 L83.84,32.00 Z" fill="#0078d4" stroke="#1e1e1e" stroke-width="1" stroke-linejoin="round"/><path d="M55.52,59.63 L53.18,61.24 L50.53,62.25 L47.71,62.59 L44.89,62.25 L42.23,61.24 L39.89,59.63 L38.93,78.99 L39.15,79.90 L39.85,80.51 L40.78,80.61 L41.60,80.16 L47.57,74.03 L53.65,80.00 L54.46,80.41 L55.35,80.29 L56.03,79.70 L56.27,78.83 L55.52,59.63 Z" fill="#b31b1b" stroke="#1e1e1e" stroke-width="1" stroke-linejoin="round"/><ellipse cx="47.89" cy="49.65" rx="13.92" ry="13.97" fill="#e62323" stroke="#1e1e1e" stroke-width="1"/><ellipse cx="47.89" cy="49.65" rx="10.56" ry="10.61" fill="#ffd400" stroke="#1e1e1e" stroke-width="1"/></svg>