<svg xmlns="http://www.w3.org/2000/svg" viewBox="-1.98 -2.00 100.00 99.97"><path d="M84.75,42.39 L84.70,44.56 L84.53,46.71 L84.15,47.57 L83.33,48.03 L82.40,47.92 L78.16,46.50 L73.74,45.82 L69.27,45.90 L64.88,46.74 L60.70,48.31 L56.84,50.57 L53.42,53.45 L50.54,56.86 L48.28,60.72 L46.71,64.90 L45.87,69.29 L45.79,73.76 L46.46,78.18 L47.88,82.42 L47.99,83.35 L47.53,84.17 L46.68,84.56 L44.53,84.72 L42.37,84.77 L36.51,84.37 L30.77,83.16 L25.24,81.17 L20.05,78.43 L15.29,75.00 L11.04,70.95 L7.39,66.35 L4.42,61.29 L2.17,55.87 L0.70,50.18 L0.02,44.35 L0.15,38.48 L1.10,32.69 L2.83,27.08 L5.33,21.77 L8.53,16.85 L12.39,12.42 L16.81,8.57 L21.73,5.37 L27.05,2.87 L32.65,1.14 L38.45,0.19 L44.32,0.06 L50.15,0.73 L55.83,2.21 L61.25,4.46 L66.31,7.43 L70.91,11.08 L74.97,15.32 L78.39,20.09 L81.13,25.28 L83.12,30.80 L84.33,36.55 L84.74,42.40 L84.75,42.39 Z" fill="#004988" stroke="#1e1e1e" stroke-width="1" stroke-linejoin="round"/><path d="M77.04,2.82 L77.04,46.25 L72.69,45.77 L68.32,46.02 L64.05,47.00 L60.00,48.67 L56.28,50.99 L53.00,53.90 L50.25,57.31 L48.11,61.13 L46.63,65.25 L45.86,69.56 L45.82,73.94 L46.50,78.27 L47.90,82.42 L48.01,83.35 L47.55,84.17 L46.70,84.56 L44.54,84.72 L42.38,84.77 L36.60,84.38 L30.92,83.21 L25.46,81.27 L20.32,78.60 L15.59,75.25 L11.36,71.28 L7.71,66.78 L7.71,2.81 L8.09,1.40 L9.13,0.37 L10.54,0.00 L74.22,0.00 L75.63,0.38 L76.66,1.41 L77.04,2.82 Z" fill="#2f8ce2" stroke="#1e1e1e" stroke-width="1" stroke-linejoin="round"/><path d="M96.02,72.01 L95.59,76.51 L94.33,80.85 L92.28,84.88 L89.51,88.45 L86.12,91.43 L82.23,93.73 L77.98,95.26 L73.52,95.97 L69.01,95.83 L64.60,94.84 L60.45,93.05 L56.71,90.51 L53.52,87.32 L50.98,83.58 L49.18,79.43 L48.20,75.02 L48.06,70.51 L48.76,66.04 L50.29,61.79 L52.59,57.90 L55.58,54.52 L59.15,51.75 L63.18,49.70 L67.52,48.43 L72.01,48.01 L76.18,48.37 L80.22,49.46 L84.02,51.23 L87.44,53.63 L90.40,56.58 L92.80,60.01 L94.57,63.80 L95.65,67.85 L96.02,72.01 Z" fill="#ffffff" stroke="#1e1e1e" stroke-width="1" stroke-linejoin="round"/><path d="M96.02,72.01 L95.59,76.51 L94.33,80.85 L92.28,84.88 L89.51,88.45 L86.12,91.43 L82.23,93.73 L77.98,95.26 L73.52,95.97 L69.01,95.83 L64.60,94.84 L60.45,93.05 L56.71,90.51 L53.52,87.32 L50.98,83.58 L49.18,79.43 L48.20,75.02 L48.06,70.51 L48.76,66.04 L50.29,61.79 L52.59,57.90 L55.58,54.52 L59.15,51.75 L63.18,49.70 L67.52,48.43 L72.01,48.01 L76.18,48.37 L80.22,49.46 L84.02,51.23 L87.44,53.63 L90.40,56.58 L92.80,60.01 L94.57,63.80 L95.65,67.85 L96.02,72.01 Z" fill="#57a300" stroke="#1e1e1e" stroke-width="1" stroke-linejoin="round"/><path d="M36.10,24.13 L62.63,24.13 L63.38,24.34 L63.93,24.89 L64.14,25.64 L64.14,29.52 L63.93,30.27 L63.38,30.82 L62.63,31.02 L36.10,31.02 L35.35,30.82 L34.80,30.27 L34.59,29.52 L34.59,25.64 L34.80,24.89 L35.35,24.33 L36.10,24.13 L36.10,24.13 Z" fill="#ffffff" stroke="#ffffff" stroke-width="1" stroke-linejoin="round"/><path d="M34.81,40.45 L34.81,44.33 L35.01,45.08 L35.57,45.64 L36.32,45.84 L62.84,45.84 L63.60,45.64 L64.15,45.08 L64.35,44.33 L64.35,40.45 L64.15,39.70 L63.60,39.15 L62.84,38.95 L36.32,38.95 L35.57,39.15 L35.01,39.70 L34.81,40.45 L34.81,40.45 Z" fill="#ffffff" stroke="#ffffff" stroke-width="1" stroke-linejoin="round"/><path d="M36.25,53.75 L35.50,53.96 L34.95,54.51 L34.75,55.26 L34.75,59.14 L34.95,59.89 L35.50,60.44 L36.25,60.65 L48.35,60.65 L50.47,57.01 L53.15,53.75 L36.25,53.75 Z" fill="#ffffff" stroke="#ffffff" stroke-width="1" stroke-linejoin="round"/><path d="M68.55,83.51 L69.29,83.95 L70.14,83.91 L70.83,83.42 L85.44,64.71 L85.66,63.83 L85.20,63.05 L82.48,60.95 L81.59,60.71 L80.78,61.17 L69.35,75.80 L62.95,68.92 L62.11,68.54 L61.24,68.86 L58.73,71.17 L58.45,71.56 L58.34,72.02 L58.41,72.49 L58.66,72.90 L68.55,83.51 Z" fill="#ffffff" stroke="#ffffff" stroke-width="1" stroke-linejoin="round"/><path d="M21.73,24.13 L27.21,24.13 L27.98,24.34 L28.55,24.91 L28.76,25.69 L28.76,29.47 L28.55,30.25 L27.98,30.82 L27.21,31.02 L21.73,31.02 L20.95,30.82 L20.38,30.25 L20.17,29.47 L20.17,25.69 L20.38,24.91 L20.95,24.34 L21.73,24.13 L21.73,24.13 Z" fill="#ffffff" stroke="#ffffff" stroke-width="1" stroke-linejoin="round" opacity="0.8"/><path d="M20.39,40.50 L20.39,44.28 L20.60,45.05 L21.17,45.62 L21.95,45.83 L27.41,45.83 L28.19,45.62 L28.76,45.05 L28.97,44.28 L28.97,40.50 L28.76,39.72 L28.19,39.15 L27.41,38.94 L21.95,38.94 L21.17,39.15 L20.60,39.72 L20.39,40.50 L20.39,40.50 Z" fill="#ffffff" stroke="#ffffff" stroke-width="1" stroke-linejoin="round" opacity="0.8"/><path d="M20.32,55.31 L20.32,59.09 L20.53,59.87 L21.10,60.44 L21.88,60.65 L27.35,60.65 L28.13,60.44 L28.70,59.87 L28.90,59.09 L28.90,55.31 L28.70,54.53 L28.13,53.96 L27.35,53.75 L21.87,53.75 L21.10,53.97 L20.53,54.54 L20.32,55.31 Z" fill="#ffffff" stroke="#ffffff" stroke-width="1" stroke-linejoin="round" opacity="0.8"/></svg>