<svg xmlns="http://www.w3.org/2000/svg" viewBox="0.93 0.71 99.83 100.00"><path d="M56.44,57.79 L56.30,59.43 L55.70,60.96 L54.69,62.25 L53.18,63.31 L51.48,64.02 L49.66,64.34 L49.66,67.72 L47.18,67.72 L47.18,64.23 L43.98,63.81 L40.97,62.65 L40.97,58.07 L42.33,58.89 L43.80,59.49 L45.46,59.99 L47.18,60.28 L47.18,54.41 L44.45,53.19 L42.05,51.41 L40.87,49.34 L40.52,46.97 L41.05,44.65 L42.38,42.67 L44.60,41.19 L47.18,40.52 L47.18,37.42 L49.61,37.42 L49.61,40.47 L52.27,40.75 L54.80,41.59 L54.80,46.11 L52.30,44.96 L49.61,44.36 L49.61,50.79 L52.38,52.02 L54.80,53.84 L56.01,55.66 L56.44,57.79 L56.44,57.79 Z" fill="#258277" stroke="#258277" stroke-width="1" stroke-linejoin="round"/><path d="M47.18,49.72 L47.18,44.47 L46.12,44.87 L45.38,45.73 L45.15,46.84 L45.29,47.69 L45.71,48.45 L46.41,49.13 L47.41,49.72 L47.18,49.72 Z" fill="#ffffff" stroke="#ffffff" stroke-width="1" stroke-linejoin="round"/><path d="M51.98,58.02 L51.83,57.25 L51.39,56.56 L50.65,55.94 L49.61,55.37 L49.61,60.44 L50.65,60.14 L51.39,59.63 L51.83,58.93 L51.98,58.02 Z" fill="#ffffff" stroke="#ffffff" stroke-width="1" stroke-linejoin="round"/><path d="M93.35,53.56 L73.03,53.56 L72.67,57.74 L71.62,61.81 L69.90,65.64 L67.56,69.13 L64.68,72.18 L78.17,87.37 L82.62,82.81 L86.39,77.68 L89.40,72.07 L91.59,66.09 L92.91,59.86 L93.35,53.50 L93.35,53.56 Z" fill="#ffca00" stroke="#1e1e1e" stroke-width="1" stroke-linejoin="round"/><path d="M48.08,78.62 L43.49,78.19 L39.05,76.93 L34.92,74.87 L31.24,72.09 L28.13,68.68 L25.70,64.76 L24.04,60.46 L23.19,55.92 L23.19,51.31 L24.04,46.77 L25.70,42.47 L28.13,38.55 L31.24,35.14 L34.92,32.36 L39.05,30.30 L43.49,29.04 L48.08,28.61 L48.08,8.41 L42.19,8.80 L36.40,9.95 L30.81,11.85 L25.51,14.46 L20.60,17.74 L16.16,21.63 L12.26,26.07 L8.98,30.98 L6.37,36.28 L4.47,41.87 L3.32,47.67 L2.93,53.56 L2.93,53.56 L3.32,59.45 L4.47,65.24 L6.37,70.84 L8.98,76.13 L12.26,81.04 L16.16,85.48 L20.60,89.38 L25.51,92.66 L30.81,95.27 L36.40,97.17 L42.19,98.32 L48.08,98.71 L48.08,98.71 L53.56,98.41 L58.95,97.45 L64.19,95.84 L69.20,93.61 L73.90,90.79 L78.22,87.42 L64.68,72.24 L61.04,74.96 L56.97,76.97 L52.61,78.20 L48.08,78.62 L48.08,78.62 Z" fill="#72b62b" stroke="#1e1e1e" stroke-width="1" stroke-linejoin="round"/><path d="M46.00,2.71 L46.00,2.71 L46.00,26.19 L46.00,26.19 L50.59,26.48 L55.08,27.51 L59.35,29.24 L63.28,31.63 L66.78,34.62 L69.77,38.13 L72.15,42.07 L73.87,46.34 L74.89,50.83 L75.17,55.42 L98.77,55.42 L98.38,49.06 L97.23,42.80 L95.34,36.72 L92.72,30.91 L89.42,25.46 L85.49,20.45 L80.99,15.95 L75.97,12.02 L70.52,8.73 L64.70,6.12 L58.62,4.23 L52.35,3.09 L46.00,2.71 L46.00,2.71 Z" fill="#cccccc" stroke="#1e1e1e" stroke-width="1" stroke-linejoin="round"/><path d="M75.29,55.42 L74.90,50.40 L73.65,45.53 L71.57,40.94 L68.73,36.78 L65.21,33.18 L61.12,30.24 L56.59,28.06 L51.74,26.69 L46.73,26.19 L46.00,26.19 L47.86,29.69 L52.43,30.38 L56.80,31.88 L60.83,34.16 L64.37,37.12 L67.32,40.68 L69.58,44.72 L71.06,49.10 L71.73,53.67 L75.29,55.42 Z" fill="#999999" stroke="#1e1e1e" stroke-width="1" stroke-linejoin="round"/></svg>