<svg xmlns="http://www.w3.org/2000/svg" viewBox="-2.00 7.55 100.00 78.54"><path d="M24.92,28.56 L1.70,28.56 L0.85,28.33 L0.23,27.71 L0.00,26.86 L0.00,11.25 L0.23,10.40 L0.85,9.78 L1.70,9.55 L24.92,9.55 L25.77,9.78 L26.39,10.40 L26.62,11.25 L26.62,26.86 L26.39,27.71 L25.77,28.33 L24.92,28.56 L24.92,28.56 Z" fill="#2f8ce2" stroke="#1e1e1e" stroke-width="1" stroke-linejoin="round"/><path d="M24.92,56.32 L1.70,56.32 L0.85,56.10 L0.23,55.47 L-0.00,54.62 L0.00,39.01 L0.23,38.16 L0.85,37.54 L1.70,37.31 L24.92,37.31 L25.77,37.54 L26.39,38.16 L26.62,39.01 L26.62,54.62 L26.39,55.47 L25.77,56.09 L24.92,56.32 L24.92,56.32 Z" fill="#2f8ce2" stroke="#1e1e1e" stroke-width="1" stroke-linejoin="round"/><path d="M60.04,28.56 L36.84,28.56 L35.98,28.34 L35.36,27.71 L35.13,26.86 L35.13,11.25 L35.36,10.40 L35.98,9.78 L36.84,9.55 L60.05,9.55 L60.90,9.78 L61.52,10.40 L61.75,11.25 L61.75,26.86 L61.52,27.71 L60.89,28.34 L60.04,28.56 L60.04,28.56 Z" fill="#2f8ce2" stroke="#1e1e1e" stroke-width="1" stroke-linejoin="round"/><path d="M60.04,84.09 L36.84,84.09 L35.98,83.86 L35.36,83.23 L35.13,82.38 L35.13,66.77 L35.36,65.91 L35.98,65.29 L36.84,65.06 L60.05,65.06 L60.90,65.29 L61.52,65.92 L61.75,66.77 L61.75,82.37 L61.52,83.23 L60.89,83.86 L60.04,84.08 L60.04,84.09 Z" fill="#2f8ce2" stroke="#1e1e1e" stroke-width="1" stroke-linejoin="round"/><path d="M24.92,84.09 L1.70,84.09 L0.85,83.86 L0.22,83.23 L0.00,82.37 L0.00,66.77 L0.23,65.92 L0.85,65.29 L1.70,65.06 L24.92,65.06 L25.77,65.29 L26.39,65.92 L26.62,66.77 L26.62,82.37 L26.39,83.23 L25.77,83.85 L24.92,84.08 L24.92,84.09 Z" fill="#2f8ce2" stroke="#1e1e1e" stroke-width="1" stroke-linejoin="round"/><path d="M70.56,20.06 L95.24,44.73 L96.00,46.05 L96.00,47.57 L95.24,48.89 L70.56,73.57 L69.63,73.95 L68.71,73.57 L68.32,72.64 L68.32,57.47 L67.94,56.54 L67.01,56.15 L36.17,56.15 L35.42,55.84 L35.10,55.09 L35.10,38.54 L35.42,37.78 L36.17,37.47 L67.01,37.47 L67.94,37.08 L68.32,36.15 L68.32,20.99 L68.71,20.06 L69.63,19.68 L70.56,20.06 L70.56,20.06 Z" fill="#86d633" stroke="#1e1e1e" stroke-width="1" stroke-linejoin="round"/></svg>