<svg xmlns="http://www.w3.org/2000/svg" viewBox="0.88 1.67 100.00 98.36"><path d="M78.54,95.21 L80.83,94.86 L82.90,93.83 L84.55,92.20 L85.62,90.15 L86.00,87.86 L86.00,86.96 L85.33,82.66 L84.41,78.48 L83.25,74.45 L81.84,70.58 L80.18,66.89 L78.26,63.42 L76.09,60.17 L73.65,57.17 L70.96,54.45 L68.00,52.02 L64.77,49.91 L61.27,48.13 L57.50,46.71 L53.45,45.67 L49.13,45.03 L44.53,44.81 L39.92,44.99 L35.58,45.55 L31.52,46.46 L27.73,47.72 L24.21,49.32 L20.95,51.25 L17.97,53.51 L15.25,56.08 L12.79,58.96 L10.60,62.14 L8.67,65.61 L7.00,69.36 L5.58,73.39 L4.43,77.67 L3.53,82.22 L2.88,87.02 L3.00,89.34 L3.84,91.51 L5.30,93.33 L7.25,94.60 L9.49,95.21 L78.54,95.21 Z" fill="#975ae8" stroke="#1e1e1e" stroke-width="1" stroke-linejoin="round"/><path d="M44.47,50.29 L40.06,49.87 L35.81,48.64 L31.87,46.62 L44.36,79.11 L56.50,46.79 L52.74,48.70 L48.68,49.88 L44.47,50.29 L44.47,50.29 Z" fill="#ffffff" stroke="#1e1e1e" stroke-width="1" stroke-linejoin="round"/><ellipse cx="44.47" cy="27.01" rx="23.34" ry="23.34" fill="#975ae8" stroke="#1e1e1e" stroke-width="1"/><path d="M95.72,74.59 L96.54,74.69 L97.30,75.01 L97.95,75.51 L98.46,76.17 L98.77,76.93 L98.88,77.75 L98.88,94.87 L98.77,95.69 L98.46,96.45 L97.95,97.11 L97.30,97.61 L96.54,97.93 L95.72,98.03 L54.47,98.03 L53.65,97.93 L52.89,97.61 L52.23,97.11 L51.73,96.45 L51.41,95.69 L51.31,94.87 L51.31,77.75 L51.41,76.93 L51.73,76.17 L52.23,75.51 L52.89,75.01 L53.65,74.69 L54.47,74.59 L95.72,74.59 Z" fill="#50e6ff" stroke="#1e1e1e" stroke-width="1" stroke-linejoin="round"/><path d="M75.09,74.59 L54.47,74.59 L52.89,75.01 L51.73,76.17 L51.31,77.75 L51.31,94.70 L51.73,96.28 L52.89,97.44 L54.47,97.86 L75.09,97.86 L75.09,74.59 Z" fill="#32bedd" stroke="#1e1e1e" stroke-width="1" stroke-linejoin="round"/><path d="M71.65,81.14 L71.14,80.57 L70.57,80.36 L70.01,80.57 L60.06,90.41 L56.50,86.85 L55.91,86.64 L55.32,86.85 L54.81,87.41 L54.54,87.98 L54.81,88.54 L59.56,93.34 L59.84,93.34 L60.29,93.47 L60.74,93.34 L71.76,82.04 L71.86,81.57 L71.65,81.14 Z" fill="#ffffff" stroke="#ffffff" stroke-width="1" stroke-linejoin="round"/><path d="M93.29,91.65 L88.54,86.96 L93.23,82.27 L93.44,81.73 L93.23,81.20 L92.61,80.57 L92.07,80.31 L91.54,80.57 L86.85,85.26 L82.21,80.63 L81.62,80.36 L81.03,80.63 L80.46,81.14 L80.25,81.68 L80.46,82.21 L85.15,86.96 L80.52,91.59 L80.27,92.21 L80.52,92.84 L81.08,93.34 L81.59,93.61 L82.10,93.34 L86.85,88.65 L91.59,93.34 L92.13,93.55 L92.67,93.34 L93.29,92.72 L93.50,92.19 L93.29,91.65 Z" fill="#f2f2f2" stroke="#f2f2f2" stroke-width="1" stroke-linejoin="round"/></svg>