<svg xmlns="http://www.w3.org/2000/svg" viewBox="0.72 1.47 94.61 93.07"><path d="M74.13,89.87 L76.29,89.54 L78.25,88.56 L79.81,87.03 L80.81,85.09 L81.17,82.93 L81.17,82.08 L80.54,78.02 L79.67,74.08 L78.58,70.27 L77.25,66.62 L75.68,63.14 L73.87,59.86 L71.82,56.79 L69.52,53.97 L66.98,51.40 L64.18,49.10 L61.14,47.11 L57.83,45.43 L54.27,44.09 L50.45,43.10 L46.37,42.50 L42.03,42.29 L37.68,42.47 L33.58,42.99 L29.75,43.85 L26.17,45.04 L22.85,46.55 L19.78,48.37 L16.96,50.50 L14.39,52.93 L12.08,55.65 L10.01,58.65 L8.18,61.93 L6.60,65.47 L5.27,69.27 L4.18,73.32 L3.33,77.61 L2.72,82.13 L2.83,84.33 L3.62,86.38 L5.00,88.09 L6.84,89.29 L8.96,89.87 L74.13,89.87 Z" fill="#975ae8" stroke="#1e1e1e" stroke-width="1" stroke-linejoin="round"/><path d="M41.97,47.47 L37.81,47.08 L33.80,45.91 L30.08,44.00 L41.87,74.67 L53.33,44.16 L49.78,45.97 L45.95,47.08 L41.97,47.47 L41.97,47.47 Z" fill="#ffffff" stroke="#1e1e1e" stroke-width="1" stroke-linejoin="round"/><ellipse cx="41.97" cy="25.49" rx="22.03" ry="22.03" fill="#975ae8" stroke="#1e1e1e" stroke-width="1"/><path d="M90.35,70.40 L91.12,70.50 L91.84,70.80 L92.46,71.27 L92.93,71.89 L93.23,72.61 L93.33,73.39 L93.33,89.55 L93.23,90.32 L92.93,91.04 L92.46,91.66 L91.84,92.13 L91.12,92.43 L90.35,92.53 L51.41,92.53 L50.64,92.43 L49.92,92.13 L49.30,91.66 L48.83,91.04 L48.53,90.32 L48.43,89.55 L48.43,73.39 L48.53,72.61 L48.83,71.89 L49.30,71.27 L49.92,70.80 L50.64,70.50 L51.41,70.40 L90.35,70.40 Z" fill="#50e6ff" stroke="#1e1e1e" stroke-width="1" stroke-linejoin="round"/><path d="M70.88,70.40 L51.41,70.40 L49.92,70.80 L48.83,71.89 L48.43,73.39 L48.43,89.39 L48.83,90.88 L49.92,91.97 L51.41,92.37 L70.88,92.37 L70.88,70.40 Z" fill="#32bedd" stroke="#1e1e1e" stroke-width="1" stroke-linejoin="round"/><path d="M67.63,76.59 L67.15,76.05 L66.61,75.85 L66.08,76.05 L56.69,85.33 L53.33,81.97 L52.77,81.78 L52.21,81.97 L51.73,82.51 L51.48,83.04 L51.73,83.57 L56.21,88.11 L56.48,88.11 L56.91,88.22 L57.33,88.11 L67.73,77.44 L67.83,76.99 L67.63,76.59 Z" fill="#ffffff" stroke="#ffffff" stroke-width="1" stroke-linejoin="round"/><path d="M88.05,86.51 L83.57,82.08 L88.00,77.65 L88.20,77.15 L88.00,76.64 L87.41,76.05 L86.91,75.80 L86.40,76.05 L81.97,80.48 L77.60,76.11 L77.04,75.85 L76.48,76.11 L75.95,76.59 L75.75,77.09 L75.95,77.60 L80.37,82.08 L76.00,86.45 L75.77,87.04 L76.00,87.63 L76.53,88.11 L77.01,88.36 L77.49,88.11 L81.97,83.68 L86.45,88.11 L86.96,88.30 L87.47,88.11 L88.05,87.52 L88.25,87.01 L88.05,86.51 Z" fill="#f2f2f2" stroke="#f2f2f2" stroke-width="1" stroke-linejoin="round"/></svg>