<svg xmlns="http://www.w3.org/2000/svg" viewBox="-1.68 9.04 99.43 77.97"><path d="M77.07,46.93 L19.63,46.93 L19.63,72.80 L19.63,72.80 L19.77,74.04 L20.21,75.25 L20.92,76.42 L21.89,77.54 L23.10,78.61 L24.55,79.62 L28.07,81.43 L32.36,82.92 L37.29,84.05 L42.75,84.76 L48.64,85.01 L54.53,84.77 L59.99,84.07 L64.92,82.96 L69.21,81.49 L72.73,79.69 L74.18,78.68 L75.39,77.61 L76.36,76.48 L77.07,75.30 L77.51,74.07 L77.65,72.80 L77.65,72.80 L77.07,46.93 Z" fill="#773adc" stroke="#1e1e1e" stroke-width="1" stroke-linejoin="round"/><path d="M44.75,11.52 L2.08,33.33 L1.04,34.30 L0.42,35.58 L0.32,36.99 L0.75,38.35 L1.30,39.20 L2.08,39.84 L44.75,58.40 L46.69,58.80 L48.64,58.40 L93.87,39.73 L94.94,38.79 L95.60,37.52 L95.74,36.10 L95.36,34.72 L94.75,33.80 L93.87,33.12 L48.75,11.41 L47.42,11.04 L46.05,11.08 L44.75,11.52 L44.75,11.52 Z" fill="#9b6bee" stroke="#1e1e1e" stroke-width="1" stroke-linejoin="round"/><path d="M84.48,54.40 L84.48,54.40 L84.03,52.94 L83.25,51.63 L80.68,47.86 L77.52,44.56 L73.87,41.83 L69.81,39.73 L51.25,32.00 L45.33,36.21 L64.00,44.16 L67.71,46.02 L71.10,48.44 L74.07,51.35 L76.56,54.67 L78.51,58.35 L79.50,62.79 L80.00,67.31 L84.48,54.40 Z" fill="#50e6ff" stroke="#50e6ff" stroke-width="1" stroke-linejoin="round"/><path d="M80.85,67.31 L83.09,62.88 L85.92,66.51 L86.45,66.51 L86.41,62.38 L85.73,58.31 L84.43,54.40 L80.85,67.31 Z" fill="#50e6ff" stroke="#50e6ff" stroke-width="1" stroke-linejoin="round"/><ellipse cx="47.68" cy="34.45" rx="7.15" ry="3.63" fill="#552f99" stroke="#552f99" stroke-width="1"/></svg>