<svg xmlns="http://www.w3.org/2000/svg" viewBox="-1.68 9.11 100.00 78.42"><path d="M77.53,47.22 L19.74,47.22 L19.74,73.24 L19.74,73.24 L19.89,74.49 L20.33,75.71 L21.05,76.88 L22.02,78.01 L23.24,79.08 L24.69,80.10 L28.24,81.92 L32.55,83.42 L37.51,84.56 L43.01,85.27 L48.93,85.52 L54.85,85.28 L60.35,84.58 L65.31,83.46 L69.62,81.98 L73.17,80.17 L74.63,79.15 L75.85,78.08 L76.82,76.94 L77.53,75.75 L77.97,74.52 L78.12,73.24 L78.12,73.24 L77.53,47.22 Z" fill="#773adc" stroke="#1e1e1e" stroke-width="1" stroke-linejoin="round"/><path d="M45.02,11.59 L2.09,33.53 L1.04,34.50 L0.42,35.79 L0.32,37.21 L0.75,38.58 L1.31,39.43 L2.09,40.08 L45.02,58.75 L46.97,59.15 L48.93,58.75 L94.43,39.97 L95.51,39.02 L96.17,37.75 L96.32,36.31 L95.93,34.93 L95.32,34.00 L94.43,33.32 L49.04,11.48 L47.71,11.11 L46.33,11.14 L45.02,11.59 L45.02,11.59 Z" fill="#9b6bee" stroke="#1e1e1e" stroke-width="1" stroke-linejoin="round"/><path d="M84.99,54.73 L84.99,54.73 L84.53,53.26 L83.75,51.94 L81.17,48.14 L77.99,44.83 L74.31,42.08 L70.23,39.97 L51.56,32.19 L45.61,36.43 L64.38,44.43 L68.12,46.30 L71.53,48.73 L74.52,51.65 L77.02,55.00 L78.98,58.70 L79.97,63.16 L80.48,67.71 L84.99,54.73 Z" fill="#50e6ff" stroke="#50e6ff" stroke-width="1" stroke-linejoin="round"/><path d="M81.34,67.71 L83.59,63.26 L86.44,66.91 L86.97,66.91 L86.93,62.76 L86.24,58.67 L84.93,54.73 L81.34,67.71 Z" fill="#50e6ff" stroke="#50e6ff" stroke-width="1" stroke-linejoin="round"/><ellipse cx="47.97" cy="34.66" rx="7.19" ry="3.65" fill="#552f99" stroke="#552f99" stroke-width="1"/></svg>