<svg xmlns="http://www.w3.org/2000/svg" viewBox="15.59 7.95 84.40 100.00"><path d="M52.14,58.95 L52.54,59.00 L52.91,59.15 L53.23,59.40 L53.48,59.72 L53.63,60.09 L53.68,60.49 L53.68,104.41 L53.63,104.81 L53.48,105.18 L53.23,105.50 L52.91,105.75 L52.54,105.90 L52.14,105.95 L41.29,105.95 L40.89,105.90 L40.52,105.75 L40.20,105.50 L39.95,105.18 L39.80,104.81 L39.75,104.41 L39.75,60.49 L39.80,60.09 L39.95,59.72 L40.20,59.40 L40.52,59.15 L40.89,59.00 L41.29,58.95 L52.14,58.95 Z" fill="#0078d4" stroke="#1e1e1e" stroke-width="1" stroke-linejoin="round"/><path d="M74.30,73.08 L74.69,73.13 L75.07,73.28 L75.39,73.53 L75.63,73.85 L75.78,74.22 L75.84,74.62 L75.84,104.41 L75.78,104.81 L75.63,105.18 L75.39,105.50 L75.07,105.75 L74.69,105.90 L74.30,105.95 L63.44,105.95 L63.04,105.90 L62.67,105.75 L62.35,105.50 L62.11,105.18 L61.95,104.81 L61.90,104.41 L61.90,74.62 L61.95,74.22 L62.11,73.85 L62.35,73.53 L62.67,73.28 L63.04,73.13 L63.44,73.08 L74.30,73.08 Z" fill="#0078d4" stroke="#1e1e1e" stroke-width="1" stroke-linejoin="round"/><path d="M96.45,45.27 L96.85,45.32 L97.22,45.48 L97.54,45.72 L97.78,46.04 L97.94,46.41 L97.99,46.81 L97.99,104.41 L97.94,104.81 L97.78,105.18 L97.54,105.50 L97.22,105.75 L96.85,105.90 L96.45,105.95 L85.60,105.95 L85.20,105.90 L84.83,105.75 L84.51,105.50 L84.26,105.18 L84.11,104.81 L84.06,104.41 L84.06,46.81 L84.11,46.41 L84.26,46.04 L84.51,45.72 L84.83,45.48 L85.20,45.32 L85.60,45.27 L96.45,45.27 Z" fill="#0078d4" stroke="#1e1e1e" stroke-width="1" stroke-linejoin="round"/><path d="M29.99,73.08 L30.39,73.13 L30.76,73.28 L31.08,73.53 L31.32,73.85 L31.48,74.22 L31.53,74.62 L31.53,104.41 L31.48,104.81 L31.32,105.18 L31.08,105.50 L30.76,105.75 L30.39,105.90 L29.99,105.95 L19.14,105.95 L18.74,105.90 L18.37,105.75 L18.05,105.50 L17.80,105.18 L17.65,104.81 L17.59,104.41 L17.59,74.62 L17.65,74.22 L17.80,73.85 L18.05,73.53 L18.37,73.28 L18.74,73.13 L19.14,73.08 L29.99,73.08 Z" fill="#0078d4" stroke="#1e1e1e" stroke-width="1" stroke-linejoin="round"/><path d="M96.32,35.83 L89.90,29.02 L86.69,25.81 L64.21,48.35 L63.44,48.70 L62.67,48.35 L49.06,35.00 L23.37,60.68 L22.60,61.03 L21.83,60.68 L18.43,57.79 L18.11,56.99 L18.43,56.19 L48.29,26.39 L49.06,26.04 L49.83,26.39 L63.19,39.68 L81.74,21.13 L78.53,17.92 L71.79,11.49 L71.52,10.87 L71.76,10.24 L72.37,9.95 L97.09,9.95 L97.73,10.22 L97.99,10.85 L97.99,35.19 L97.80,36.01 L97.01,36.32 L96.32,35.83 L96.32,35.83 Z" fill="#85bd2d" stroke="#1e1e1e" stroke-width="1" stroke-linejoin="round"/></svg>