<svg xmlns="http://www.w3.org/2000/svg" viewBox="12.61 6.27 70.77 83.73"><path d="M43.31,48.96 L43.64,49.00 L43.95,49.13 L44.21,49.33 L44.42,49.60 L44.54,49.91 L44.59,50.24 L44.59,86.72 L44.54,87.05 L44.42,87.36 L44.21,87.63 L43.95,87.83 L43.64,87.96 L43.31,88.00 L34.29,88.00 L33.96,87.96 L33.65,87.83 L33.39,87.63 L33.18,87.36 L33.06,87.05 L33.01,86.72 L33.01,50.24 L33.06,49.91 L33.18,49.60 L33.39,49.33 L33.65,49.13 L33.96,49.00 L34.29,48.96 L43.31,48.96 Z" fill="#0078d4" stroke="#1e1e1e" stroke-width="1" stroke-linejoin="round"/><path d="M61.71,60.69 L62.04,60.74 L62.35,60.86 L62.61,61.07 L62.82,61.33 L62.94,61.64 L62.99,61.97 L62.99,86.72 L62.94,87.05 L62.82,87.36 L62.61,87.63 L62.35,87.83 L62.04,87.96 L61.71,88.00 L52.69,88.00 L52.36,87.96 L52.05,87.83 L51.79,87.63 L51.58,87.36 L51.46,87.05 L51.41,86.72 L51.41,61.97 L51.46,61.64 L51.58,61.33 L51.79,61.07 L52.05,60.86 L52.36,60.74 L52.69,60.69 L61.71,60.69 Z" fill="#0078d4" stroke="#1e1e1e" stroke-width="1" stroke-linejoin="round"/><path d="M80.11,37.60 L80.44,37.64 L80.75,37.77 L81.01,37.97 L81.22,38.24 L81.34,38.55 L81.39,38.88 L81.39,86.72 L81.34,87.05 L81.22,87.36 L81.01,87.63 L80.75,87.83 L80.44,87.96 L80.11,88.00 L71.09,88.00 L70.76,87.96 L70.45,87.83 L70.19,87.63 L69.98,87.36 L69.86,87.05 L69.81,86.72 L69.81,38.88 L69.86,38.55 L69.98,38.24 L70.19,37.97 L70.45,37.77 L70.76,37.64 L71.09,37.60 L80.11,37.60 Z" fill="#0078d4" stroke="#1e1e1e" stroke-width="1" stroke-linejoin="round"/><path d="M24.91,60.69 L25.24,60.74 L25.55,60.86 L25.81,61.07 L26.02,61.33 L26.14,61.64 L26.19,61.97 L26.19,86.72 L26.14,87.05 L26.02,87.36 L25.81,87.63 L25.55,87.83 L25.24,87.96 L24.91,88.00 L15.89,88.00 L15.56,87.96 L15.25,87.83 L14.99,87.63 L14.78,87.36 L14.66,87.05 L14.61,86.72 L14.61,61.97 L14.66,61.64 L14.78,61.33 L14.99,61.07 L15.25,60.86 L15.56,60.74 L15.89,60.69 L24.91,60.69 Z" fill="#0078d4" stroke="#1e1e1e" stroke-width="1" stroke-linejoin="round"/><path d="M80.00,29.76 L74.67,24.11 L72.00,21.44 L53.33,40.16 L52.69,40.45 L52.05,40.16 L40.75,29.07 L19.41,50.40 L18.77,50.69 L18.13,50.40 L15.31,48.00 L15.04,47.33 L15.31,46.67 L40.11,21.92 L40.75,21.63 L41.39,21.92 L52.48,32.96 L67.89,17.55 L65.23,14.88 L59.63,9.55 L59.40,9.03 L59.60,8.51 L60.11,8.27 L80.64,8.27 L81.17,8.49 L81.39,9.01 L81.39,29.23 L81.23,29.91 L80.57,30.16 L80.00,29.76 L80.00,29.76 Z" fill="#85bd2d" stroke="#1e1e1e" stroke-width="1" stroke-linejoin="round"/></svg>