<svg xmlns="http://www.w3.org/2000/svg" viewBox="12.61 6.27 70.77 83.73"><rect x="33.01" y="48.96" width="11.57" height="39.04" fill="#000000" stroke="#1e1e1e" stroke-width="1"/><rect x="51.41" y="60.69" width="11.57" height="27.31" fill="#000000" stroke="#1e1e1e" stroke-width="1"/><rect x="69.81" y="37.60" width="11.57" height="50.40" fill="#000000" stroke="#1e1e1e" stroke-width="1"/><rect x="14.61" y="60.69" width="11.57" height="27.31" fill="#000000" stroke="#1e1e1e" stroke-width="1"/><path d="M80.00,29.76 L74.67,24.11 L72.00,21.44 L53.33,40.16 L52.69,40.45 L52.05,40.16 L40.75,29.07 L19.41,50.40 L18.77,50.69 L18.13,50.40 L15.31,48.00 L15.04,47.33 L15.31,46.67 L40.11,21.92 L40.75,21.63 L41.39,21.92 L52.48,32.96 L67.89,17.55 L65.23,14.88 L59.63,9.55 L59.40,9.03 L59.60,8.51 L60.11,8.27 L80.64,8.27 L81.17,8.49 L81.39,9.01 L81.39,29.23 L81.23,29.91 L80.57,30.16 L80.00,29.76 L80.00,29.76 Z" fill="#000000" stroke="#1e1e1e" stroke-width="1" stroke-linejoin="round"/></svg>