<svg xmlns="http://www.w3.org/2000/svg" viewBox="0.79 0.81 99.64 100.00"><path d="M79.78,29.38 L81.73,29.76 L83.61,30.30 L85.41,31.01 L87.12,31.86 L90.27,33.98 L92.99,36.59 L95.23,39.62 L96.92,43.02 L97.54,44.83 L98.00,46.71 L98.30,48.65 L98.43,50.63 L98.30,52.78 L97.98,54.87 L97.46,56.89 L96.76,58.83 L95.88,60.68 L94.85,62.44 L93.66,64.08 L92.33,65.60 L90.86,67.00 L89.27,68.25 L87.57,69.36 L85.76,70.31 L83.86,71.09 L81.87,71.70 L79.81,72.11 L77.68,72.33 L66.73,48.64 L65.90,47.36 L64.76,46.39 L63.40,45.77 L61.89,45.55 L39.73,45.55 L38.21,45.77 L36.84,46.40 L35.70,47.38 L34.87,48.67 L24.32,71.89 L22.12,71.37 L19.99,70.67 L17.95,69.80 L15.99,68.77 L14.14,67.59 L12.39,66.25 L10.76,64.79 L9.25,63.19 L7.88,61.47 L6.66,59.64 L5.58,57.70 L4.67,55.67 L3.92,53.55 L3.35,51.35 L2.97,49.08 L2.79,46.75 L2.92,44.36 L3.26,42.02 L3.81,39.75 L4.55,37.57 L5.48,35.47 L6.59,33.48 L7.86,31.59 L9.29,29.83 L10.87,28.20 L12.59,26.71 L14.44,25.37 L16.41,24.20 L18.49,23.20 L20.68,22.39 L22.96,21.77 L25.32,21.35 L26.14,19.30 L27.12,17.33 L28.23,15.47 L29.48,13.71 L32.34,10.52 L35.63,7.83 L39.30,5.66 L43.27,4.08 L45.35,3.51 L47.49,3.11 L49.67,2.87 L51.88,2.81 L54.66,2.89 L57.37,3.25 L59.99,3.86 L62.51,4.72 L64.92,5.81 L67.19,7.12 L69.32,8.64 L71.30,10.35 L73.10,12.24 L74.72,14.29 L76.14,16.50 L77.35,18.84 L78.33,21.32 L79.07,23.91 L79.56,26.59 L79.78,29.37 L79.78,29.38 Z" fill="#3990e4" stroke="#1e1e1e" stroke-width="1" stroke-linejoin="round"/><path d="M48.12,98.81 L48.12,50.79 L40.20,50.79 L18.81,98.81 L48.12,98.81 Z" fill="#bcbcbb" stroke="#1e1e1e" stroke-width="1" stroke-linejoin="round"/><path d="M53.40,98.81 L53.40,50.79 L61.32,50.79 L82.71,98.81 L53.40,98.81 L53.40,98.81 Z" fill="#bcbcbb" stroke="#1e1e1e" stroke-width="1" stroke-linejoin="round"/></svg>