<svg xmlns="http://www.w3.org/2000/svg" viewBox="0.63 0.65 94.36 94.70"><path d="M75.38,27.75 L77.22,28.12 L78.99,28.63 L80.70,29.30 L82.32,30.10 L85.29,32.10 L87.86,34.57 L89.98,37.44 L91.57,40.65 L92.16,42.36 L92.60,44.13 L92.88,45.96 L93.00,47.83 L92.88,49.87 L92.57,51.84 L92.08,53.75 L91.42,55.59 L90.59,57.34 L89.61,58.99 L88.49,60.54 L87.23,61.98 L85.85,63.30 L84.35,64.49 L82.74,65.54 L81.03,66.43 L79.23,67.17 L77.35,67.74 L75.40,68.13 L73.39,68.34 L63.05,45.96 L62.26,44.75 L61.19,43.83 L59.90,43.24 L58.47,43.03 L37.54,43.03 L36.10,43.24 L34.81,43.84 L33.73,44.77 L32.95,45.99 L22.98,67.93 L20.90,67.43 L18.89,66.77 L16.96,65.95 L15.11,64.98 L13.36,63.86 L11.71,62.60 L10.17,61.21 L8.74,59.70 L7.45,58.08 L6.29,56.35 L5.27,54.52 L4.41,52.60 L3.71,50.60 L3.17,48.52 L2.81,46.37 L2.63,44.17 L2.76,41.91 L3.08,39.70 L3.60,37.56 L4.30,35.49 L5.18,33.51 L6.22,31.63 L7.43,29.85 L8.78,28.18 L10.27,26.64 L11.90,25.24 L13.64,23.97 L15.51,22.87 L17.47,21.92 L19.54,21.15 L21.69,20.57 L23.92,20.18 L24.70,18.23 L25.62,16.38 L26.67,14.61 L27.85,12.95 L30.55,9.94 L33.67,7.40 L37.13,5.35 L40.88,3.85 L42.85,3.32 L44.87,2.94 L46.93,2.71 L49.02,2.65 L51.65,2.73 L54.21,3.07 L56.68,3.65 L59.06,4.46 L61.34,5.49 L63.48,6.73 L65.50,8.16 L67.36,9.78 L69.07,11.56 L70.60,13.50 L71.94,15.59 L73.08,17.81 L74.01,20.14 L74.71,22.59 L75.17,25.13 L75.38,27.75 L75.38,27.75 Z" fill="#3990e4" stroke="#1e1e1e" stroke-width="1" stroke-linejoin="round"/><path d="M45.46,93.35 L45.46,47.99 L37.98,47.99 L17.78,93.35 L45.46,93.35 Z" fill="#bcbcbb" stroke="#1e1e1e" stroke-width="1" stroke-linejoin="round"/><path d="M50.46,93.35 L50.46,47.99 L57.94,47.99 L78.14,93.35 L50.46,93.35 L50.46,93.35 Z" fill="#bcbcbb" stroke="#1e1e1e" stroke-width="1" stroke-linejoin="round"/></svg>