<svg xmlns="http://www.w3.org/2000/svg" viewBox="1.12 1.12 100.00 100.00"><path d="M31.75,74.58 L56.29,74.58 L56.29,99.12 L31.75,99.12 L31.75,74.58 Z" fill="#3a9de6" stroke="#1e1e1e" stroke-width="1" stroke-linejoin="round"/><path d="M6.53,99.12 L27.66,99.12 L27.66,74.58 L3.12,74.58 L3.12,95.72 L3.38,97.02 L4.12,98.13 L5.23,98.86 L6.53,99.12 L6.53,99.12 Z" fill="#3a9de6" stroke="#1e1e1e" stroke-width="1" stroke-linejoin="round"/><path d="M3.12,70.72 L27.66,70.72 L27.66,45.96 L3.12,45.96 L3.12,70.72 Z" fill="#3a9de6" stroke="#1e1e1e" stroke-width="1" stroke-linejoin="round"/><path d="M65.33,3.12 L70.66,3.50 L75.87,4.71 L80.81,6.74 L85.37,9.54 L89.43,13.02 L92.88,17.11 L95.63,21.69 L97.62,26.65 L98.80,31.87 L99.12,37.21 L98.76,42.51 L97.55,47.69 L95.54,52.62 L92.78,57.16 L89.33,61.21 L85.28,64.66 L80.74,67.42 L75.81,69.43 L70.63,70.64 L65.33,71.01 L31.53,71.01 L31.53,36.92 L31.90,31.62 L33.10,26.44 L35.11,21.51 L37.87,16.97 L41.32,12.92 L45.37,9.47 L49.92,6.71 L54.84,4.70 L60.02,3.49 L65.33,3.12 L65.33,3.12 Z" fill="#28b6db" stroke="#1e1e1e" stroke-width="1" stroke-linejoin="round"/><rect x="43.11" y="32.09" width="7.73" height="23.18" fill="#ffffff" stroke="#ffffff" stroke-width="1"/><rect x="58.57" y="39.82" width="7.73" height="15.45" fill="#ffffff" stroke="#ffffff" stroke-width="1"/><rect x="74.02" y="24.37" width="7.73" height="30.90" fill="#ffffff" stroke="#ffffff" stroke-width="1"/></svg>