<svg xmlns="http://www.w3.org/2000/svg" viewBox="16.06 -2.00 66.34 100.00"><path d="M80.39,92.75 L80.07,94.04 L79.27,95.11 L78.12,95.80 L76.80,96.00 L21.66,96.00 L20.34,95.80 L19.19,95.12 L18.39,94.04 L18.06,92.75 L18.06,3.25 L18.39,1.96 L19.19,0.88 L20.34,0.20 L21.66,0.00 L76.80,0.00 L78.12,0.20 L79.27,0.88 L80.07,1.96 L80.40,3.25 L80.39,92.75 Z" fill="#8e5ae8" stroke="#1e1e1e" stroke-width="1" stroke-linejoin="round"/><path d="M71.79,41.07 L71.55,38.85 L70.63,36.82 L69.13,35.17 L67.20,34.06 L65.02,33.60 L34.00,33.60 L31.82,34.06 L29.89,35.17 L28.39,36.82 L27.47,38.85 L27.23,41.07 L27.23,41.07 L27.47,43.28 L28.39,45.31 L29.89,46.96 L31.82,48.07 L34.00,48.53 L65.02,48.53 L67.20,48.07 L69.13,46.96 L70.63,45.31 L71.55,43.28 L71.79,41.07 L71.79,41.07 Z" fill="#552f99" stroke="#1e1e1e" stroke-width="1" stroke-linejoin="round"/><path d="M71.79,18.86 L71.55,16.65 L70.63,14.62 L69.13,12.97 L67.20,11.86 L65.02,11.40 L34.00,11.40 L31.82,11.86 L29.89,12.97 L28.39,14.62 L27.47,16.65 L27.23,18.86 L27.23,18.86 L27.47,21.08 L28.39,23.11 L29.89,24.76 L31.82,25.87 L34.00,26.33 L65.02,26.33 L67.20,25.87 L69.13,24.76 L70.63,23.11 L71.55,21.08 L71.79,18.86 L71.79,18.86 Z" fill="#552f99" stroke="#1e1e1e" stroke-width="1" stroke-linejoin="round"/><ellipse cx="63.07" cy="18.86" rx="5.01" ry="5.01" fill="#50e6ff" stroke="#50e6ff" stroke-width="1"/><ellipse cx="63.07" cy="41.04" rx="5.01" ry="5.01" fill="#50e6ff" stroke="#50e6ff" stroke-width="1"/></svg>