<svg xmlns="http://www.w3.org/2000/svg" viewBox="-2.00 1.63 100.00 92.69"><path d="M92.80,3.63 L93.63,3.74 L94.40,4.06 L95.06,4.56 L95.57,5.23 L95.89,6.00 L96.00,6.83 L96.00,64.43 L95.89,65.25 L95.57,66.03 L95.06,66.69 L94.40,67.20 L93.63,67.52 L92.80,67.63 L3.20,67.63 L2.37,67.52 L1.60,67.20 L0.94,66.69 L0.43,66.03 L0.11,65.25 L0.00,64.43 L0.00,6.83 L0.11,6.00 L0.43,5.23 L0.94,4.56 L1.60,4.06 L2.37,3.74 L3.20,3.63 L92.80,3.63 Z" fill="#3990e4" stroke="#1e1e1e" stroke-width="1" stroke-linejoin="round"/><path d="M88.91,8.96 L89.36,9.02 L89.79,9.20 L90.15,9.48 L90.43,9.84 L90.61,10.26 L90.67,10.72 L90.67,60.53 L90.61,60.99 L90.43,61.41 L90.15,61.78 L89.79,62.06 L89.36,62.23 L88.91,62.29 L7.09,62.29 L6.64,62.23 L6.21,62.06 L5.85,61.78 L5.57,61.41 L5.39,60.99 L5.33,60.53 L5.33,10.72 L5.39,10.26 L5.57,9.84 L5.85,9.48 L6.21,9.20 L6.64,9.02 L7.09,8.96 L88.91,8.96 Z" fill="#ffffff" stroke="#1e1e1e" stroke-width="1" stroke-linejoin="round"/><path d="M67.25,86.99 L65.58,86.64 L64.10,86.18 L62.82,85.59 L61.71,84.88 L60.76,84.06 L59.96,83.12 L59.30,82.06 L58.77,80.89 L58.02,78.21 L57.62,75.10 L57.46,71.57 L57.44,67.63 L38.56,67.63 L38.53,71.57 L38.36,75.10 L37.96,78.21 L37.21,80.89 L36.68,82.06 L36.02,83.12 L35.23,84.06 L34.29,84.88 L33.18,85.59 L31.89,86.18 L30.42,86.64 L28.75,86.99 L26.92,87.60 L25.41,88.80 L24.40,90.44 L24.00,92.32 L72.00,92.32 L71.60,90.44 L70.59,88.80 L69.08,87.60 L67.25,86.99 L67.25,86.99 Z" fill="#1a72c0" stroke="#1e1e1e" stroke-width="1" stroke-linejoin="round"/><path d="M45.78,48.37 L42.19,51.95 L41.50,52.35 L40.70,52.35 L40.01,51.95 L25.83,37.77 L25.43,37.07 L25.43,36.27 L25.83,35.58 L28.32,33.09 L29.01,32.69 L29.81,32.69 L30.50,33.09 L45.59,48.18 L45.59,48.18 L45.78,48.37 Z" fill="#86d633" stroke="#1e1e1e" stroke-width="1" stroke-linejoin="round"/><path d="M40.06,51.90 L36.47,48.32 L36.47,48.32 L69.02,15.77 L69.71,15.37 L70.51,15.37 L71.21,15.77 L73.66,18.23 L74.06,18.92 L74.06,19.72 L73.66,20.41 L42.21,51.87 L41.51,52.27 L40.71,52.27 L40.02,51.87 L40.06,51.90 Z" fill="#5e9624" stroke="#1e1e1e" stroke-width="1" stroke-linejoin="round"/></svg>