<svg xmlns="http://www.w3.org/2000/svg" viewBox="-1.40 8.80 100.00 79.73"><path d="M50.88,62.98 L50.88,62.98 L63.84,55.79 L63.88,55.63 L63.84,55.47 L63.84,41.05 L63.88,40.89 L63.84,40.73 L63.46,40.73 L50.66,47.91 L50.63,48.04 L50.66,48.18 L50.66,62.60 L50.63,62.76 L50.66,62.92 L50.66,62.92 L50.88,62.98 Z" fill="#198ab3" stroke="#198ab3" stroke-width="1" stroke-linejoin="round"/><path d="M50.66,80.96 L50.66,80.96 L63.63,73.78 L63.66,73.62 L63.63,73.46 L63.63,59.09 L63.66,58.93 L63.63,58.77 L63.44,58.73 L63.25,58.77 L50.29,65.95 L50.29,65.95 L50.29,80.37 L50.25,80.53 L50.29,80.69 L50.29,80.69 L50.66,80.96 Z" fill="#198ab3" stroke="#198ab3" stroke-width="1" stroke-linejoin="round"/><path d="M67.03,53.69 L67.03,53.69 L81.02,46.72 L81.06,46.56 L81.02,46.40 L81.02,32.03 L81.06,31.87 L81.02,31.71 L80.59,31.71 L67.46,38.89 L67.46,38.89 L67.46,53.58 L67.42,53.74 L67.46,53.90 L67.46,53.90 L67.03,53.69 Z" fill="#198ab3" stroke="#198ab3" stroke-width="1" stroke-linejoin="round"/><path d="M67.46,71.94 L67.46,71.94 L81.02,64.81 L81.06,64.65 L81.02,64.49 L81.02,50.07 L81.06,49.91 L81.02,49.75 L80.80,49.70 L80.59,49.75 L67.68,56.93 L67.64,57.06 L67.68,57.20 L67.68,71.62 L67.63,71.78 L67.68,71.94 L67.68,71.94 L67.46,71.94 Z" fill="#198ab3" stroke="#198ab3" stroke-width="1" stroke-linejoin="round"/><path d="M46.29,62.98 L46.29,62.98 L33.16,55.74 L33.11,55.58 L33.16,55.42 L33.16,41.05 L33.12,40.89 L33.16,40.73 L33.54,40.73 L46.50,47.91 L46.55,48.07 L46.50,48.23 L46.50,62.60 L46.54,62.76 L46.50,62.92 L46.50,62.92 L46.29,62.98 Z" fill="#32bedd" stroke="#32bedd" stroke-width="1" stroke-linejoin="round"/><path d="M46.29,81.02 L46.29,81.02 L33.16,73.78 L33.11,73.62 L33.16,73.46 L33.16,59.09 L33.11,58.93 L33.16,58.77 L33.35,58.73 L33.54,58.77 L46.50,65.95 L46.55,66.11 L46.50,66.27 L46.50,80.64 L46.54,80.80 L46.50,80.96 L46.50,80.96 L46.29,81.02 Z" fill="#32bedd" stroke="#32bedd" stroke-width="1" stroke-linejoin="round"/><path d="M29.49,54.01 L29.49,54.01 L16.20,46.72 L16.17,46.56 L16.20,46.40 L16.20,32.03 L16.17,31.87 L16.20,31.71 L16.64,31.71 L29.71,38.89 L29.74,39.05 L29.71,39.21 L29.71,53.58 L29.74,53.74 L29.71,53.90 L29.71,53.90 L29.49,54.01 Z" fill="#32bedd" stroke="#1e1e1e" stroke-width="1" stroke-linejoin="round"/><path d="M29.49,72.00 L29.49,72.00 L16.20,64.81 L16.17,64.65 L16.20,64.49 L16.20,50.07 L16.17,49.91 L16.20,49.75 L16.42,49.70 L16.64,49.75 L29.71,56.93 L29.74,57.09 L29.71,57.25 L29.71,71.62 L29.74,71.78 L29.71,71.94 L29.71,71.94 L29.49,72.00 Z" fill="#32bedd" stroke="#1e1e1e" stroke-width="1" stroke-linejoin="round"/><path d="M34.78,36.78 L34.78,36.78 L48.61,29.38 L48.83,29.32 L49.04,29.38 L62.28,36.62 L62.32,36.78 L62.28,36.94 L62.31,37.11 L62.28,37.27 L48.61,44.51 L48.23,44.51 L34.95,37.32 L34.91,37.13 L34.95,36.94 L34.95,36.94 L34.78,36.78 Z" fill="#50e6ff" stroke="#1e1e1e" stroke-width="1" stroke-linejoin="round"/><path d="M17.34,27.28 L17.34,27.28 L30.73,19.82 L31.11,19.82 L44.24,27.01 L44.28,27.17 L44.24,27.33 L44.27,27.49 L44.24,27.65 L31.00,35.00 L30.57,35.00 L17.45,27.76 L17.40,27.60 L17.45,27.44 L17.45,27.44 L17.34,27.28 Z" fill="#50e6ff" stroke="#1e1e1e" stroke-width="1" stroke-linejoin="round"/><path d="M52.66,27.44 L52.66,27.44 L66.06,19.98 L66.25,19.95 L66.44,19.98 L79.56,27.01 L79.59,27.17 L79.56,27.33 L79.60,27.49 L79.56,27.65 L66.33,35.16 L65.90,35.16 L52.77,27.92 L52.73,27.76 L52.77,27.60 L52.77,27.60 L52.66,27.44 Z" fill="#50e6ff" stroke="#1e1e1e" stroke-width="1" stroke-linejoin="round"/><path d="M34.84,18.04 L34.84,18.04 L48.61,10.80 L48.61,10.80 L62.11,17.82 L62.15,17.99 L62.11,18.15 L62.17,18.31 L62.11,18.47 L48.61,25.66 L48.29,25.66 L35.00,18.53 L34.98,18.39 L35.00,18.26 L35.00,18.26 L34.84,18.04 Z" fill="#50e6ff" stroke="#1e1e1e" stroke-width="1" stroke-linejoin="round"/><path d="M94.90,24.20 L93.34,22.16 L91.36,20.46 L88.96,19.10 L86.17,18.10 L83.00,17.45 L79.47,17.17 L75.60,17.26 L71.40,17.72 L70.00,17.72 L80.32,23.12 L82.95,23.26 L85.48,24.02 L87.76,25.34 L89.66,27.17 L89.66,27.17 L90.28,28.64 L90.54,30.33 L90.43,32.23 L89.96,34.31 L89.15,36.56 L87.98,38.96 L86.48,41.49 L84.64,44.13 L78.73,50.77 L72.22,56.83 L65.16,62.25 L57.63,66.98 L49.95,71.37 L41.88,75.01 L33.51,77.88 L24.90,79.94 L21.70,80.32 L18.76,80.45 L16.09,80.34 L13.72,80.00 L11.66,79.42 L9.94,78.62 L8.56,77.61 L7.56,76.37 L6.93,74.94 L6.65,73.34 L6.70,71.57 L7.09,69.64 L7.79,67.57 L8.81,65.37 L10.12,63.04 L11.72,60.60 L11.72,50.72 L7.67,55.79 L5.29,59.25 L3.39,62.61 L1.97,65.84 L1.04,68.93 L0.60,71.86 L0.65,74.61 L1.21,77.16 L2.27,79.51 L4.78,82.20 L7.80,84.32 L11.18,85.79 L14.79,86.53 L18.47,86.53 L22.02,86.39 L25.55,85.99 L32.94,84.34 L40.19,82.13 L47.25,79.40 L54.08,76.14 L60.66,72.38 L67.09,68.38 L73.20,63.90 L78.96,58.98 L84.33,53.64 L89.28,47.91 L91.75,44.45 L93.72,41.10 L95.18,37.87 L96.14,34.78 L96.60,31.85 L96.54,29.10 L95.98,26.54 L94.90,24.20 Z" fill="#9b70e8" stroke="#1e1e1e" stroke-width="1" stroke-linejoin="round"/></svg>