<svg xmlns="http://www.w3.org/2000/svg" viewBox="-1.41 8.67 98.79 78.78"><path d="M50.24,62.19 L50.24,62.19 L63.04,55.09 L63.08,54.93 L63.04,54.77 L63.04,40.53 L63.08,40.37 L63.04,40.21 L62.67,40.21 L50.03,47.31 L49.99,47.44 L50.03,47.57 L50.03,61.81 L49.99,61.97 L50.03,62.13 L50.03,62.13" fill="none" stroke="#198ab3" stroke-width="1" stroke-linejoin="round"/><path d="M50.03,79.95 L50.03,79.95 L62.83,72.85 L62.86,72.69 L62.83,72.53 L62.83,58.35 L62.86,58.19 L62.83,58.03 L62.64,57.99 L62.45,58.03 L49.65,65.12 L49.65,65.12 L49.65,79.36 L49.62,79.52 L49.65,79.68 L49.65,79.68" fill="none" stroke="#198ab3" stroke-width="1" stroke-linejoin="round"/><path d="M66.19,53.01 L66.19,53.01 L80.00,46.13 L80.04,45.97 L80.00,45.81 L80.00,31.63 L80.04,31.47 L80.00,31.31 L79.57,31.31 L66.61,38.40 L66.61,38.40 L66.61,52.91 L66.57,53.07 L66.61,53.23 L66.61,53.23" fill="none" stroke="#198ab3" stroke-width="1" stroke-linejoin="round"/><path d="M66.61,71.04 L66.61,71.04 L80.00,64.00 L80.04,63.84 L80.00,63.68 L80.00,49.44 L80.04,49.28 L80.00,49.12 L79.79,49.08 L79.57,49.12 L66.83,56.21 L66.79,56.35 L66.83,56.48 L66.83,70.72 L66.78,70.88 L66.83,71.04 L66.83,71.04" fill="none" stroke="#198ab3" stroke-width="1" stroke-linejoin="round"/><path d="M45.71,62.19 L45.71,62.19 L32.75,55.04 L32.69,54.88 L32.75,54.72 L32.75,40.53 L32.70,40.37 L32.75,40.21 L33.12,40.21 L45.92,47.31 L45.96,47.47 L45.92,47.63 L45.92,61.81 L45.96,61.97 L45.92,62.13 L45.92,62.13" fill="none" stroke="#32bedd" stroke-width="1" stroke-linejoin="round"/><path d="M45.71,80.00 L45.71,80.00 L32.75,72.85 L32.69,72.69 L32.75,72.53 L32.75,58.35 L32.69,58.19 L32.75,58.03 L32.93,57.99 L33.12,58.03 L45.92,65.12 L45.96,65.28 L45.92,65.44 L45.92,79.63 L45.96,79.79 L45.92,79.95 L45.92,79.95" fill="none" stroke="#32bedd" stroke-width="1" stroke-linejoin="round"/><path d="M29.12,53.33 L29.12,53.33 L16.00,46.13 L15.96,45.97 L16.00,45.81 L16.00,31.63 L15.97,31.47 L16.00,31.31 L16.43,31.31 L29.33,38.40 L29.37,38.56 L29.33,38.72 L29.33,52.91 L29.36,53.07 L29.33,53.23 L29.33,53.23" fill="none" stroke="#32bedd" stroke-width="1" stroke-linejoin="round"/><path d="M29.12,71.09 L29.12,71.09 L16.00,64.00 L15.96,63.84 L16.00,63.68 L16.00,49.44 L15.96,49.28 L16.00,49.12 L16.21,49.08 L16.43,49.12 L29.33,56.21 L29.37,56.37 L29.33,56.53 L29.33,70.72 L29.36,70.88 L29.33,71.04 L29.33,71.04" fill="none" stroke="#32bedd" stroke-width="1" stroke-linejoin="round"/><path d="M34.35,36.32 L34.35,36.32 L48.00,29.01 L48.21,28.96 L48.43,29.01 L61.49,36.16 L61.54,36.32 L61.49,36.48 L61.53,36.64 L61.49,36.80 L48.00,43.95 L47.63,43.95 L34.51,36.85 L34.47,36.67 L34.51,36.48 L34.51,36.48" fill="none" stroke="#1e1e1e" stroke-width="1" stroke-linejoin="round"/><path d="M17.12,26.93 L17.12,26.93 L30.35,19.57 L30.72,19.57 L43.68,26.67 L43.72,26.83 L43.68,26.99 L43.72,27.15 L43.68,27.31 L30.61,34.56 L30.19,34.56 L17.23,27.41 L17.18,27.25 L17.23,27.09 L17.23,27.09" fill="none" stroke="#1e1e1e" stroke-width="1" stroke-linejoin="round"/><path d="M52.00,27.09 L52.00,27.09 L65.23,19.73 L65.41,19.70 L65.60,19.73 L78.56,26.67 L78.59,26.83 L78.56,26.99 L78.60,27.15 L78.56,27.31 L65.49,34.72 L65.07,34.72 L52.11,27.57 L52.06,27.41 L52.11,27.25 L52.11,27.25" fill="none" stroke="#1e1e1e" stroke-width="1" stroke-linejoin="round"/><path d="M34.40,17.81 L34.40,17.81 L48.00,10.67 L48.00,10.67 L61.33,17.60 L61.37,17.76 L61.33,17.92 L61.39,18.08 L61.33,18.24 L48.00,25.33 L47.68,25.33 L34.56,18.29 L34.54,18.16 L34.56,18.03 L34.56,18.03" fill="none" stroke="#1e1e1e" stroke-width="1" stroke-linejoin="round"/><path d="M93.71,23.89 L92.17,21.88 L90.21,20.20 L87.84,18.86 L85.09,17.87 L81.96,17.24 L78.47,16.96 L74.65,17.04 L70.51,17.49 L69.12,17.49 L79.31,22.83 L81.91,22.97 L84.40,23.72 L86.65,25.03 L88.53,26.83 L88.53,26.83 L89.15,28.28 L89.40,29.95 L89.29,31.83 L88.83,33.88 L88.03,36.10 L86.88,38.47 L85.39,40.96 L83.57,43.57 L77.74,50.13 L71.31,56.12 L64.34,61.46 L56.91,66.13 L49.32,70.47 L41.35,74.07 L33.09,76.90 L24.59,78.93 L21.43,79.31 L18.52,79.44 L15.89,79.33 L13.55,78.99 L11.51,78.43 L9.81,77.64 L8.46,76.63 L7.47,75.41 L6.84,74.00 L6.56,72.42 L6.62,70.67 L7.00,68.77 L7.70,66.72 L8.70,64.55 L9.99,62.25 L11.57,59.84 L11.57,50.08 L7.57,55.09 L5.23,58.51 L3.35,61.82 L1.95,65.01 L1.03,68.06 L0.59,70.95 L0.64,73.67 L1.19,76.19 L2.24,78.51 L4.72,81.17 L7.70,83.26 L11.04,84.71 L14.60,85.45 L18.24,85.44 L21.74,85.30 L25.23,84.91 L32.52,83.28 L39.68,81.10 L46.65,78.40 L53.40,75.18 L59.89,71.47 L66.24,67.52 L72.28,63.10 L77.97,58.24 L83.27,52.97 L88.16,47.31 L90.59,43.89 L92.54,40.58 L93.98,37.39 L94.93,34.34 L95.38,31.45 L95.33,28.73 L94.77,26.21 L93.71,23.89 Z" fill="#9b70e8" stroke="#1e1e1e" stroke-width="1" stroke-linejoin="round"/></svg>