<svg xmlns="http://www.w3.org/2000/svg" viewBox="8.19 0.67 79.63 94.83"><path d="M10.29,11.25 L16.75,3.73 L17.83,2.94 L19.15,2.67 L81.07,2.67 L82.88,2.87 L84.44,3.81 L85.48,5.30 L85.81,7.09 L85.81,84.43 L85.53,85.69 L84.75,86.72 L77.81,93.07 L14.51,93.07 L10.19,91.31 L10.29,11.25 Z" fill="#005ba1" stroke="#1e1e1e" stroke-width="1" stroke-linejoin="round"/><path d="M15.52,11.20 L19.47,6.72 L20.30,6.05 L21.33,5.76 L79.41,5.76 L80.80,6.13 L81.82,7.15 L82.19,8.53 L82.19,82.03 L81.96,83.16 L81.28,84.11 L75.09,89.71 L15.52,11.20 Z" fill="#ffffff" stroke="#1e1e1e" stroke-width="1" stroke-linejoin="round"/><path d="M74.67,11.15 L10.67,11.15 L10.44,11.24 L10.35,11.47 L10.35,91.47 L10.64,92.48 L11.40,93.22 L12.43,93.49 L74.67,93.49 L75.68,93.22 L76.42,92.48 L76.69,91.47 L76.69,13.23 L76.42,12.20 L75.68,11.44 L74.67,11.15 L74.67,11.15 Z" fill="#3a9de6" stroke="#1e1e1e" stroke-width="1" stroke-linejoin="round"/><path d="M58.77,33.07 L59.16,33.12 L59.52,33.27 L59.83,33.50 L60.07,33.81 L60.22,34.17 L60.27,34.56 L60.27,44.27 L60.22,44.65 L60.07,45.01 L59.83,45.32 L59.52,45.56 L59.16,45.71 L58.77,45.76 L26.67,45.76 L26.28,45.71 L25.92,45.56 L25.61,45.32 L25.37,45.01 L25.22,44.65 L25.17,44.27 L25.17,34.56 L25.22,34.17 L25.37,33.81 L25.61,33.50 L25.92,33.27 L26.28,33.12 L26.67,33.07 L58.77,33.07 Z" fill="#ffffff" stroke="#1e1e1e" stroke-width="1" stroke-linejoin="round"/></svg>