<svg xmlns="http://www.w3.org/2000/svg" viewBox="-2.00 6.00 100.00 83.99"><path d="M53.13,46.55 L53.13,31.06 L53.43,29.66 L54.20,28.53 L55.34,27.76 L56.74,27.47 L60.47,27.16 L63.07,26.53 L64.94,25.68 L66.45,24.70 L68.01,23.69 L69.92,22.77 L72.42,22.09 L75.78,21.83 L75.78,11.47 L75.50,10.12 L74.75,9.02 L73.63,8.27 L72.26,8.00 L3.53,8.00 L2.15,8.27 L1.03,9.02 L0.28,10.12 L0.00,11.47 L0.00,84.52 L0.28,85.88 L1.03,86.98 L2.15,87.72 L3.53,87.99 L72.26,87.99 L73.63,87.72 L74.75,86.98 L75.50,85.87 L75.78,84.52 L75.78,74.42 L74.78,74.28 L73.86,73.89 L71.97,72.70 L69.16,70.75 L65.78,68.09 L62.20,64.79 L60.44,62.92 L58.78,60.91 L57.24,58.78 L55.88,56.54 L54.75,54.18 L53.88,51.73 L53.33,49.18 L53.13,46.54 L53.13,46.55 Z" fill="#006aba" stroke="#1e1e1e" stroke-width="1" stroke-linejoin="round"/><path d="M31.45,28.34 L31.45,25.83 L31.09,25.70 L28.36,24.82 L27.64,23.10 L29.03,20.20 L27.24,18.44 L26.89,18.62 L24.35,19.89 L22.61,19.18 L21.49,16.15 L18.94,16.15 L18.81,16.50 L17.92,19.19 L16.18,19.89 L13.27,18.52 L11.49,20.28 L11.66,20.63 L12.97,23.14 L12.25,24.85 L9.12,25.96 L9.12,28.46 L9.48,28.60 L12.21,29.48 L12.92,31.19 L11.54,34.10 L13.32,35.86 L13.68,35.68 L16.22,34.41 L17.96,35.11 L19.08,38.14 L21.63,38.14 L21.76,37.79 L22.65,35.10 L24.39,34.40 L27.34,35.77 L29.13,34.01 L28.95,33.65 L27.66,31.15 L28.37,29.44 L31.46,28.34 L31.45,28.34 Z" fill="#c3f1ff" stroke="#c3f1ff" stroke-width="1" stroke-linejoin="round"/><path d="M20.28,31.97 L19.29,31.88 L18.37,31.59 L17.54,31.15 L16.81,30.56 L16.21,29.85 L15.76,29.03 L15.48,28.12 L15.38,27.15 L15.48,26.17 L15.76,25.27 L16.21,24.45 L16.81,23.73 L17.54,23.14 L18.37,22.70 L19.29,22.42 L20.28,22.32 L21.27,22.42 L22.19,22.70 L23.02,23.14 L23.74,23.73 L24.34,24.45 L24.79,25.27 L25.08,26.17 L25.18,27.15 L25.18,27.15 L25.08,28.12 L24.79,29.02 L24.34,29.84 L23.75,30.56 L23.02,31.15 L22.19,31.59 L21.27,31.88 L20.29,31.97 L20.28,31.97 L20.28,31.97 Z" fill="#006aba" stroke="#006aba" stroke-width="1" stroke-linejoin="round"/><path d="M21.75,71.47 L21.75,71.47 L21.11,70.89 L20.78,70.66 L20.39,70.59 L20.01,70.66 L19.67,70.89 L13.87,76.60 L11.49,74.25 L11.15,74.03 L10.77,73.95 L10.38,74.03 L10.04,74.25 L9.41,74.84 L9.11,75.55 L9.41,76.27 L13.12,79.93 L13.84,80.22 L14.56,79.94 L14.57,79.93 L21.70,72.91 L21.94,72.59 L22.03,72.21 L21.97,71.83 L21.77,71.49 L21.75,71.47 Z" fill="#c3f1ff" stroke="#c3f1ff" stroke-width="1" stroke-linejoin="round"/><path d="M21.75,58.19 L21.75,58.19 L21.11,57.61 L20.78,57.38 L20.39,57.31 L20.01,57.38 L19.67,57.61 L13.87,63.32 L11.49,60.97 L11.15,60.75 L10.77,60.67 L10.38,60.75 L10.04,60.97 L9.41,61.56 L9.11,62.27 L9.41,62.99 L13.12,66.65 L13.84,66.94 L14.56,66.66 L14.57,66.65 L21.70,59.63 L21.94,59.31 L22.03,58.93 L21.97,58.55 L21.77,58.21 L21.75,58.19 Z" fill="#c3f1ff" stroke="#c3f1ff" stroke-width="1" stroke-linejoin="round"/><path d="M21.75,44.60 L21.75,44.60 L21.11,44.01 L20.78,43.79 L20.39,43.71 L20.01,43.79 L19.67,44.01 L13.87,49.72 L11.49,47.38 L11.15,47.15 L10.77,47.08 L10.38,47.15 L10.04,47.38 L9.41,47.96 L9.11,48.68 L9.41,49.40 L13.12,53.05 L13.84,53.35 L14.56,53.06 L14.57,53.05 L21.70,46.03 L21.94,45.71 L22.03,45.34 L21.97,44.96 L21.77,44.61 L21.75,44.60 Z" fill="#c3f1ff" stroke="#c3f1ff" stroke-width="1" stroke-linejoin="round"/><path d="M62.79,73.14 L63.24,73.20 L63.66,73.37 L64.02,73.64 L64.30,74.00 L64.47,74.42 L64.53,74.87 L64.53,76.54 L64.47,76.99 L64.30,77.41 L64.02,77.76 L63.66,78.04 L63.24,78.21 L62.79,78.27 L28.57,78.27 L28.12,78.21 L27.70,78.04 L27.34,77.76 L27.06,77.41 L26.89,76.99 L26.83,76.54 L26.83,74.87 L26.89,74.42 L27.06,74.00 L27.34,73.64 L27.70,73.37 L28.12,73.20 L28.57,73.14 L62.79,73.14 Z" fill="#c3f1ff" stroke="#c3f1ff" stroke-width="1" stroke-linejoin="round"/><path d="M51.87,59.55 L52.32,59.61 L52.74,59.78 L53.10,60.06 L53.37,60.42 L53.55,60.84 L53.61,61.29 L53.61,62.95 L53.55,63.40 L53.37,63.82 L53.10,64.18 L52.74,64.46 L52.32,64.63 L51.87,64.69 L28.57,64.69 L28.12,64.63 L27.70,64.46 L27.34,64.18 L27.06,63.82 L26.89,63.40 L26.83,62.95 L26.83,61.29 L26.89,60.84 L27.06,60.42 L27.34,60.06 L27.70,59.78 L28.12,59.61 L28.57,59.55 L51.87,59.55 Z" fill="#c3f1ff" stroke="#c3f1ff" stroke-width="1" stroke-linejoin="round"/><path d="M47.44,45.96 L47.89,46.02 L48.31,46.19 L48.67,46.47 L48.94,46.83 L49.11,47.25 L49.17,47.70 L49.17,49.37 L49.11,49.81 L48.94,50.23 L48.67,50.59 L48.31,50.87 L47.89,51.04 L47.44,51.10 L28.57,51.10 L28.12,51.04 L27.70,50.87 L27.34,50.59 L27.06,50.23 L26.89,49.81 L26.83,49.37 L26.83,47.70 L26.89,47.25 L27.06,46.83 L27.34,46.47 L27.70,46.19 L28.12,46.02 L28.57,45.96 L47.44,45.96 Z" fill="#c3f1ff" stroke="#c3f1ff" stroke-width="1" stroke-linejoin="round"/><path d="M96.00,46.55 L95.82,48.93 L95.30,51.24 L94.49,53.48 L93.44,55.63 L92.17,57.69 L90.73,59.65 L87.53,63.23 L84.17,66.31 L80.97,68.82 L78.29,70.68 L76.45,71.85 L75.78,72.03 L75.11,71.85 L73.27,70.69 L70.59,68.82 L67.39,66.31 L64.03,63.23 L60.83,59.65 L59.39,57.69 L58.13,55.63 L57.07,53.48 L56.26,51.24 L55.74,48.93 L55.56,46.55 L55.56,31.08 L55.67,30.61 L55.93,30.22 L56.32,29.96 L56.81,29.86 L60.82,29.52 L63.72,28.84 L65.83,27.93 L67.47,26.92 L68.96,25.92 L70.62,25.06 L72.79,24.45 L75.78,24.22 L78.77,24.45 L80.94,25.06 L82.61,25.92 L84.10,26.92 L85.73,27.93 L87.84,28.84 L90.74,29.52 L94.76,29.86 L95.24,29.96 L95.63,30.22 L95.90,30.61 L96.00,31.08 L96.00,46.55 Z" fill="#7ec930" stroke="#1e1e1e" stroke-width="1" stroke-linejoin="round"/><path d="M94.32,46.68 L94.15,48.86 L93.68,50.98 L92.94,53.03 L91.97,55.00 L90.81,56.89 L89.49,58.69 L86.56,61.97 L83.47,64.80 L80.54,67.10 L76.39,69.88 L75.78,70.05 L75.17,69.88 L71.01,67.10 L68.09,64.81 L65.00,61.98 L62.07,58.69 L60.75,56.90 L59.59,55.01 L58.62,53.03 L57.88,50.98 L57.40,48.86 L57.24,46.68 L57.24,32.51 L57.33,32.07 L57.57,31.72 L57.93,31.47 L58.37,31.38 L62.06,31.07 L64.72,30.44 L66.65,29.61 L68.15,28.68 L69.52,27.76 L71.05,26.97 L73.03,26.42 L75.78,26.21 L78.52,26.42 L80.51,26.97 L82.03,27.76 L83.40,28.68 L84.90,29.61 L86.83,30.44 L89.49,31.06 L93.17,31.37 L93.61,31.46 L93.97,31.71 L94.21,32.06 L94.30,32.50 L94.31,46.68 L94.32,46.68 Z" fill="#6aa929" stroke="#1e1e1e" stroke-width="1" stroke-linejoin="round"/><path d="M85.94,38.10 L73.45,50.46 L67.36,44.47 L67.06,44.22 L66.26,43.90 L65.42,43.90 L64.65,44.21 L64.03,44.82 L63.72,45.49 L63.67,46.21 L63.85,46.90 L64.27,47.51 L71.90,55.03 L72.20,55.28 L72.90,55.59 L73.64,55.65 L74.36,55.46 L74.98,55.02 L89.04,41.14 L89.29,40.84 L89.61,40.05 L89.60,39.23 L89.27,38.47 L88.66,37.87 L87.98,37.58 L87.26,37.52 L86.57,37.70 L85.96,38.11 L85.92,38.11 L85.93,38.11 L85.94,38.10 Z" fill="#ffffff" stroke="#1e1e1e" stroke-width="1" stroke-linejoin="round"/></svg>