<svg xmlns="http://www.w3.org/2000/svg" viewBox="4.64 -2.01 86.71 100.00"><path d="M82.30,49.81 L73.17,55.18 L64.02,60.55 L47.99,69.96 L31.95,60.55 L22.82,55.18 L13.69,49.81 L47.99,29.65 L82.30,49.81 Z" fill="#a33a85" stroke="#1e1e1e" stroke-width="1" stroke-linejoin="round"/><path d="M82.30,49.81 L82.30,67.00 L47.99,87.14 L13.69,67.00 L13.69,49.81 L22.82,55.18 L31.95,60.55 L47.99,69.96 L64.02,60.55 L73.17,55.18 L82.30,49.81 Z" fill="#59285f" stroke="#1e1e1e" stroke-width="1" stroke-linejoin="round"/><path d="M89.35,25.57 L89.35,70.45 L88.95,71.95 L87.85,73.06 L49.53,95.58 L48.79,95.89 L48.00,95.99 L48.00,48.11 L88.95,24.06 L89.25,24.79 L89.35,25.57 L89.35,25.57 Z" fill="#a33a85" stroke="#1e1e1e" stroke-width="1" stroke-linejoin="round" opacity="0.6"/><path d="M88.95,24.06 L48.00,48.05 L48.00,48.11 L7.04,24.06 L7.51,23.42 L8.14,22.93 L46.49,0.40 L48.01,-0.01 L49.53,0.40 L87.87,22.94 L88.48,23.43 L88.95,24.06 L88.95,24.06 Z" fill="#dc92bf" stroke="#1e1e1e" stroke-width="1" stroke-linejoin="round" opacity="0.6"/><path d="M48.00,48.11 L48.00,95.99 L47.21,95.89 L46.48,95.58 L8.14,73.06 L7.04,71.95 L6.64,70.45 L6.64,25.55 L6.74,24.78 L7.04,24.06 L48.00,48.11 Z" fill="#ce74b6" stroke="#1e1e1e" stroke-width="1" stroke-linejoin="round" opacity="0.6"/></svg>