<svg xmlns="http://www.w3.org/2000/svg" viewBox="4.64 -2.01 86.72 100.01"><path d="M82.31,49.82 L73.18,55.18 L64.03,60.55 L47.99,69.97 L31.96,60.55 L22.82,55.18 L13.69,49.82 L47.99,29.65 L82.31,49.82 Z" fill="#a33a85" stroke="#1e1e1e" stroke-width="1" stroke-linejoin="round"/><path d="M82.31,49.82 L82.31,67.00 L47.99,87.15 L13.69,67.00 L13.69,49.82 L22.82,55.18 L31.96,60.55 L47.99,69.97 L64.03,60.55 L73.18,55.18 L82.31,49.82 Z" fill="#59285f" stroke="#1e1e1e" stroke-width="1" stroke-linejoin="round"/><path d="M89.36,25.57 L89.36,70.45 L88.96,71.96 L87.86,73.07 L49.54,95.58 L48.80,95.90 L48.00,96.00 L48.00,48.12 L88.95,24.06 L89.26,24.79 L89.36,25.57 L89.36,25.57 Z" fill="#a33a85" stroke="#1e1e1e" stroke-width="1" stroke-linejoin="round" opacity="0.6"/><path d="M88.96,24.06 L48.00,48.06 L48.00,48.12 L7.04,24.06 L7.51,23.42 L8.14,22.93 L46.50,0.40 L48.02,-0.01 L49.54,0.40 L87.88,22.94 L88.49,23.43 L88.96,24.06 L88.96,24.06 Z" fill="#dc92bf" stroke="#1e1e1e" stroke-width="1" stroke-linejoin="round" opacity="0.6"/><path d="M48.00,48.12 L48.00,96.00 L47.21,95.90 L46.49,95.59 L8.14,73.07 L7.04,71.96 L6.64,70.45 L6.64,25.55 L6.74,24.78 L7.04,24.06 L48.00,48.12 Z" fill="#ce74b6" stroke="#1e1e1e" stroke-width="1" stroke-linejoin="round" opacity="0.6"/></svg>