<svg xmlns="http://www.w3.org/2000/svg" viewBox="10.96 4.00 86.05 100.00"><path d="M12.96,23.99 L13.23,22.60 L13.97,21.45 L15.06,20.68 L16.37,20.39 L20.91,20.18 L25.42,19.55 L29.90,18.49 L34.36,17.00 L38.80,15.08 L43.21,12.73 L47.59,9.94 L51.94,6.72 L52.92,6.18 L53.98,6.00 L55.05,6.18 L56.02,6.72 L60.38,9.94 L64.75,12.73 L69.15,15.08 L73.58,17.00 L78.04,18.49 L82.52,19.55 L87.04,20.18 L91.59,20.39 L92.91,20.68 L94.00,21.45 L94.74,22.60 L95.01,23.99 L95.01,49.18 L94.85,53.61 L94.38,57.88 L93.59,62.01 L92.49,65.98 L91.08,69.80 L89.35,73.47 L87.32,76.99 L84.98,80.36 L82.33,83.57 L79.37,86.63 L76.11,89.54 L72.54,92.29 L68.67,94.88 L64.49,97.32 L60.02,99.60 L55.24,101.73 L54.01,102.00 L52.72,101.73 L47.95,99.60 L43.47,97.32 L39.30,94.88 L35.43,92.29 L31.86,89.54 L28.60,86.63 L25.64,83.57 L22.99,80.36 L20.65,76.99 L18.61,73.47 L16.89,69.80 L15.48,65.98 L14.37,62.01 L13.59,57.88 L13.11,53.61 L12.96,49.18 L12.96,23.99 L12.96,23.99 Z" fill="#1a7d7a" stroke="#1e1e1e" stroke-width="1" stroke-linejoin="round"/><path d="M74.74,77.20 L73.90,77.09 L73.13,76.76 L72.48,76.23 L71.98,75.52 L70.27,71.78 L69.00,68.03 L68.10,64.29 L67.56,60.59 L67.31,56.98 L67.31,53.48 L67.53,50.14 L67.92,46.98 L69.03,41.36 L70.30,36.90 L71.92,32.57 L72.64,31.58 L73.64,30.96 L74.80,30.76 L76.00,31.01 L77.00,31.73 L77.63,32.73 L77.84,33.90 L77.56,35.09 L77.56,35.09 L76.29,38.55 L75.18,42.46 L74.17,47.45 L73.59,53.24 L73.55,56.35 L73.73,59.56 L74.18,62.82 L74.93,66.12 L76.02,69.40 L77.50,72.64 L77.83,73.81 L77.69,74.98 L77.12,76.04 L76.18,76.84 L74.74,77.20 L74.74,77.20 Z" fill="#45e5c6" stroke="#1e1e1e" stroke-width="1" stroke-linejoin="round"/><path d="M53.98,77.20 L52.76,76.95 L51.77,76.29 L51.11,75.30 L50.86,74.08 L50.86,33.83 L51.11,32.61 L51.77,31.62 L52.76,30.95 L53.98,30.71 L55.20,30.95 L56.19,31.62 L56.86,32.61 L57.10,33.83 L57.10,74.08 L56.86,75.30 L56.19,76.29 L55.20,76.95 L53.98,77.20 L53.98,77.20 Z" fill="#9ff2e4" stroke="#9ff2e4" stroke-width="1" stroke-linejoin="round"/><path d="M33.23,77.20 L31.79,76.84 L30.84,76.07 L30.28,75.03 L30.14,73.84 L30.47,72.64 L31.94,69.40 L33.04,66.12 L33.79,62.84 L34.24,59.58 L34.43,56.39 L34.39,53.29 L33.81,47.52 L32.81,42.54 L31.70,38.63 L30.41,35.09 L30.13,33.89 L30.34,32.71 L30.97,31.71 L31.97,31.01 L33.16,30.73 L34.32,30.94 L35.33,31.57 L36.05,32.57 L37.67,36.90 L38.93,41.36 L40.04,46.98 L40.43,50.14 L40.65,53.48 L40.66,56.98 L40.41,60.59 L39.86,64.29 L38.97,68.03 L37.69,71.78 L35.99,75.52 L35.49,76.23 L34.83,76.76 L34.07,77.09 L33.23,77.20 Z" fill="#45e5c6" stroke="#1e1e1e" stroke-width="1" stroke-linejoin="round"/><path d="M14.76,23.03 L15.41,22.25 L16.37,21.95 L21.04,21.73 L25.68,21.07 L30.30,19.96 L34.89,18.42 L39.44,16.44 L43.97,14.03 L48.45,11.19 L52.90,7.92 L53.42,7.65 L53.98,7.56 L53.98,6.00 L52.92,6.18 L51.94,6.72 L47.59,9.94 L43.21,12.73 L38.81,15.08 L34.38,17.00 L29.93,18.49 L25.44,19.55 L20.92,20.18 L16.37,20.39 L15.26,20.60 L14.30,21.15 L13.55,21.99 L13.08,23.03 L14.70,23.03 L14.76,23.03 Z" fill="#ffffff" stroke="#1e1e1e" stroke-width="1" stroke-linejoin="round" opacity="0.23"/><path d="M92.91,57.10 L92.29,60.66 L91.42,64.10 L90.33,67.43 L88.99,70.65 L87.42,73.75 L85.61,76.74 L83.57,79.62 L81.29,82.38 L78.78,85.03 L76.03,87.56 L73.05,89.98 L69.83,92.28 L66.38,94.46 L62.70,96.52 L58.79,98.46 L54.64,100.29 L53.98,100.41 L53.98,101.97 L55.24,101.73 L59.50,99.86 L63.52,97.86 L67.30,95.74 L70.84,93.49 L74.14,91.12 L77.20,88.63 L80.02,86.02 L82.59,83.28 L84.93,80.43 L87.02,77.45 L88.88,74.36 L90.48,71.14 L91.85,67.81 L92.97,64.36 L93.84,60.79 L94.47,57.10 L92.91,57.10 Z" fill="#08494e" stroke="#1e1e1e" stroke-width="1" stroke-linejoin="round" opacity="0.99"/></svg>