<svg xmlns="http://www.w3.org/2000/svg" viewBox="9.52 3.33 76.96 89.36"><path d="M11.52,21.33 L11.76,20.09 L12.42,19.07 L13.39,18.39 L14.56,18.13 L18.59,17.95 L22.60,17.38 L26.59,16.44 L30.55,15.11 L34.50,13.41 L38.42,11.32 L42.31,8.84 L46.19,5.97 L47.05,5.49 L48.00,5.33 L48.95,5.49 L49.81,5.97 L53.68,8.84 L57.58,11.32 L61.49,13.41 L65.43,15.11 L69.39,16.44 L73.38,17.38 L77.39,17.95 L81.44,18.13 L82.61,18.39 L83.58,19.07 L84.24,20.09 L84.48,21.33 L84.48,43.73 L84.34,47.67 L83.92,51.47 L83.22,55.13 L82.24,58.67 L80.98,62.07 L79.45,65.33 L77.64,68.46 L75.56,71.45 L73.20,74.31 L70.57,77.03 L67.67,79.61 L64.50,82.06 L61.06,84.37 L57.35,86.53 L53.37,88.56 L49.12,90.45 L48.02,90.69 L46.88,90.45 L42.63,88.56 L38.65,86.53 L34.94,84.37 L31.50,82.06 L28.33,79.61 L25.43,77.03 L22.80,74.31 L20.44,71.45 L18.36,68.46 L16.55,65.33 L15.02,62.07 L13.76,58.67 L12.78,55.13 L12.08,51.47 L11.66,47.67 L11.52,43.73 L11.52,21.33 L11.52,21.33 Z" fill="#1a7d7a" stroke="#1e1e1e" stroke-width="1" stroke-linejoin="round"/><path d="M66.45,68.64 L65.71,68.54 L65.03,68.25 L64.44,67.78 L64.00,67.15 L62.48,63.83 L61.35,60.49 L60.56,57.16 L60.07,53.88 L59.85,50.66 L59.85,47.55 L60.05,44.58 L60.39,41.77 L61.38,36.78 L62.51,32.81 L63.95,28.96 L64.59,28.08 L65.48,27.53 L66.51,27.35 L67.57,27.57 L68.46,28.22 L69.03,29.11 L69.21,30.14 L68.96,31.20 L68.96,31.20 L67.83,34.28 L66.85,37.76 L65.95,42.19 L65.43,47.34 L65.40,50.11 L65.56,52.96 L65.96,55.86 L66.63,58.79 L67.60,61.71 L68.91,64.59 L69.20,65.63 L69.08,66.67 L68.58,67.61 L67.73,68.32 L66.45,68.64 L66.45,68.64 Z" fill="#45e5c6" stroke="#1e1e1e" stroke-width="1" stroke-linejoin="round"/><path d="M48.00,68.64 L46.91,68.42 L46.03,67.83 L45.44,66.95 L45.23,65.87 L45.23,30.08 L45.44,28.99 L46.03,28.11 L46.91,27.52 L48.00,27.31 L49.09,27.52 L49.97,28.11 L50.56,28.99 L50.77,30.08 L50.77,65.87 L50.56,66.95 L49.97,67.83 L49.09,68.42 L48.00,68.64 L48.00,68.64 Z" fill="#9ff2e4" stroke="#9ff2e4" stroke-width="1" stroke-linejoin="round"/><path d="M29.55,68.64 L28.27,68.32 L27.42,67.64 L26.92,66.71 L26.80,65.66 L27.09,64.59 L28.40,61.71 L29.37,58.79 L30.04,55.87 L30.45,52.98 L30.61,50.14 L30.58,47.39 L30.07,42.25 L29.18,37.83 L28.19,34.35 L27.04,31.20 L26.79,30.13 L26.97,29.09 L27.54,28.19 L28.43,27.57 L29.49,27.32 L30.52,27.51 L31.41,28.07 L32.05,28.96 L33.49,32.81 L34.62,36.78 L35.61,41.77 L35.95,44.58 L36.15,47.55 L36.15,50.66 L35.93,53.88 L35.44,57.16 L34.65,60.49 L33.52,63.83 L32.00,67.15 L31.56,67.78 L30.97,68.25 L30.29,68.54 L29.55,68.64 Z" fill="#45e5c6" stroke="#1e1e1e" stroke-width="1" stroke-linejoin="round"/><path d="M13.12,20.48 L13.70,19.78 L14.56,19.52 L18.71,19.32 L22.84,18.73 L26.94,17.75 L31.02,16.38 L35.07,14.62 L39.09,12.48 L43.08,9.95 L47.04,7.04 L47.50,6.80 L48.00,6.72 L48.00,5.33 L47.05,5.49 L46.19,5.97 L42.32,8.84 L38.42,11.32 L34.51,13.41 L30.57,15.11 L26.61,16.44 L22.62,17.38 L18.61,17.95 L14.56,18.13 L13.57,18.31 L12.71,18.81 L12.05,19.55 L11.63,20.48 L13.07,20.48 L13.12,20.48 Z" fill="#ffffff" stroke="#1e1e1e" stroke-width="1" stroke-linejoin="round"/><path d="M82.61,50.77 L82.06,53.93 L81.29,57.00 L80.31,59.96 L79.13,62.82 L77.73,65.58 L76.12,68.24 L74.31,70.80 L72.28,73.25 L70.05,75.61 L67.60,77.86 L64.95,80.00 L62.09,82.05 L59.03,83.99 L55.75,85.82 L52.27,87.55 L48.59,89.17 L48.00,89.28 L48.00,90.67 L49.12,90.45 L52.90,88.79 L56.48,87.01 L59.84,85.12 L62.99,83.13 L65.92,81.02 L68.64,78.81 L71.15,76.48 L73.44,74.05 L75.52,71.51 L77.38,68.87 L79.03,66.12 L80.45,63.26 L81.67,60.29 L82.66,57.23 L83.44,54.05 L84.00,50.77 L82.61,50.77 Z" fill="#08494e" stroke="#1e1e1e" stroke-width="1" stroke-linejoin="round"/></svg>