<svg xmlns="http://www.w3.org/2000/svg" viewBox="6.03 -2.00 83.95 100.00"><path d="M87.99,44.81 L87.90,47.21 L87.63,49.59 L87.20,51.92 L86.61,54.23 L85.01,58.72 L82.92,63.04 L80.41,67.18 L77.58,71.11 L74.50,74.83 L71.25,78.30 L67.92,81.53 L64.60,84.49 L58.28,89.52 L52.96,93.28 L49.31,95.62 L48.01,96.00 L46.71,95.62 L43.06,93.30 L37.74,89.55 L31.43,84.53 L28.10,81.57 L24.77,78.34 L21.53,74.86 L18.44,71.15 L15.61,67.21 L13.10,63.07 L11.01,58.74 L9.41,54.24 L8.82,51.94 L8.39,49.60 L8.12,47.22 L8.03,44.81 L8.03,13.78 L8.36,12.55 L9.25,11.64 L10.47,11.29 L14.76,11.06 L18.42,10.63 L21.53,10.02 L24.17,9.27 L26.41,8.40 L28.33,7.45 L31.57,5.41 L34.52,3.41 L36.08,2.49 L37.81,1.68 L39.79,0.99 L42.09,0.46 L44.81,0.12 L48.01,0.00 L51.21,0.12 L53.93,0.46 L56.23,0.99 L58.21,1.68 L59.94,2.49 L61.50,3.41 L64.45,5.41 L67.69,7.45 L69.61,8.40 L71.85,9.27 L74.49,10.02 L77.60,10.63 L81.26,11.06 L85.55,11.29 L86.77,11.64 L87.66,12.55 L87.99,13.78 L87.99,44.81 Z" fill="#0078d4" stroke="#1e1e1e" stroke-width="1" stroke-linejoin="round"/><path d="M82.42,45.24 L82.11,49.35 L81.24,53.35 L79.86,57.22 L78.06,60.94 L75.90,64.50 L73.46,67.88 L70.81,71.07 L68.02,74.06 L65.15,76.84 L62.29,79.38 L56.85,83.70 L52.27,86.92 L49.12,88.91 L48.01,89.23 L46.90,88.91 L43.75,86.92 L39.17,83.70 L33.73,79.38 L30.87,76.84 L28.00,74.06 L25.21,71.07 L22.56,67.88 L20.12,64.50 L17.96,60.94 L16.16,57.22 L14.78,53.35 L13.91,49.35 L13.60,45.24 L13.60,18.77 L13.70,17.65 L14.34,16.73 L15.36,16.26 L15.54,16.24 L15.72,16.23 L19.41,16.06 L22.56,15.71 L25.24,15.21 L27.50,14.59 L29.43,13.86 L31.10,13.06 L33.89,11.35 L36.42,9.65 L39.25,8.18 L40.95,7.59 L42.93,7.14 L45.26,6.85 L48.01,6.75 L50.76,6.85 L53.09,7.14 L55.07,7.59 L56.76,8.18 L59.60,9.65 L62.13,11.35 L64.92,13.06 L66.58,13.86 L68.51,14.59 L70.78,15.21 L73.46,15.71 L76.61,16.06 L80.30,16.23 L81.36,16.52 L82.14,17.30 L82.44,18.36 L82.42,45.24 Z" fill="#3f93e6" stroke="#1e1e1e" stroke-width="1" stroke-linejoin="round"/><path d="M66.04,37.43 L66.04,58.40 L48.06,69.00 L48.06,47.91 L66.04,37.43 Z" fill="#50e6ff" stroke="#1e1e1e" stroke-width="1" stroke-linejoin="round"/><path d="M66.04,37.43 L48.06,48.02 L29.98,37.43 L48.06,26.83 L66.04,37.43 Z" fill="#c3f1ff" stroke="#1e1e1e" stroke-width="1" stroke-linejoin="round"/><path d="M48.06,48.02 L48.06,69.00 L29.98,58.40 L29.98,37.43 L48.06,48.02 Z" fill="#9cebff" stroke="#1e1e1e" stroke-width="1" stroke-linejoin="round"/><path d="M29.98,58.40 L48.06,47.91 L48.06,69.00 L29.98,58.40 Z" fill="#c3f1ff" stroke="#1e1e1e" stroke-width="1" stroke-linejoin="round"/><path d="M66.04,58.40 L48.06,47.91 L48.06,69.00 L66.04,58.40 Z" fill="#9cebff" stroke="#1e1e1e" stroke-width="1" stroke-linejoin="round"/></svg>