<svg xmlns="http://www.w3.org/2000/svg" viewBox="3.41 -2.00 89.18 100.00"><path d="M47.37,49.43 L47.37,64.34 L34.48,71.83 L34.48,56.90 L47.37,49.43 Z" fill="#0078d4" stroke="#0078d4" stroke-width="1" stroke-linejoin="round"/><path d="M47.37,49.43 L34.48,56.92 L21.59,49.43 L34.48,41.94 L47.37,49.43 Z" fill="#5ea0ef" stroke="#1e1e1e" stroke-width="1" stroke-linejoin="round"/><path d="M34.48,56.92 L34.48,71.83 L21.59,64.34 L21.59,49.43 L34.48,56.92 Z" fill="#83b9f9" stroke="#83b9f9" stroke-width="1" stroke-linejoin="round"/><path d="M61.02,25.79 L61.02,40.70 L48.14,48.19 L48.14,33.26 L61.02,25.79 Z" fill="#0078d4" stroke="#0078d4" stroke-width="1" stroke-linejoin="round"/><path d="M61.02,25.79 L48.14,33.28 L35.25,25.79 L48.14,18.30 L61.02,25.79 Z" fill="#5ea0ef" stroke="#1e1e1e" stroke-width="1" stroke-linejoin="round"/><path d="M48.14,33.28 L48.14,48.19 L35.25,40.70 L35.25,25.79 L48.14,33.28 Z" fill="#83b9f9" stroke="#83b9f9" stroke-width="1" stroke-linejoin="round"/><path d="M74.49,49.40 L74.49,64.30 L61.61,71.79 L61.61,56.86 L74.49,49.40 Z" fill="#32bedd" stroke="#32bedd" stroke-width="1" stroke-linejoin="round"/><path d="M74.49,49.40 L61.61,56.89 L48.72,49.39 L61.61,41.90 L74.49,49.40 Z" fill="#50e6ff" stroke="#1e1e1e" stroke-width="1" stroke-linejoin="round"/><path d="M61.61,56.89 L61.61,71.79 L48.72,64.30 L48.72,49.39 L61.61,56.89 Z" fill="#9cebff" stroke="#9cebff" stroke-width="1" stroke-linejoin="round"/><path d="M48.03,0.01 L45.73,0.31 L43.59,1.20 L9.81,20.81 L7.98,22.22 L6.60,24.04 L5.72,26.15 L5.41,28.45 L5.41,67.55 L5.72,69.85 L6.60,71.96 L7.98,73.78 L9.81,75.19 L43.59,94.81 L45.73,95.70 L48.03,96.00 L50.33,95.69 L52.47,94.80 L86.20,75.19 L88.03,73.78 L89.41,71.96 L90.29,69.85 L90.59,67.55 L90.59,28.49 L90.29,26.20 L89.41,24.09 L88.03,22.27 L86.20,20.85 L52.47,1.20 L50.32,0.31 L48.02,0.00 L48.02,0.00 L48.03,0.01 Z" fill="#2f8ce2" stroke="#1e1e1e" stroke-width="1" stroke-linejoin="round"/><path d="M48.02,4.60 L49.12,4.75 L50.15,5.18 L83.88,24.83 L84.76,25.51 L85.42,26.38 L85.84,27.39 L85.98,28.49 L85.98,67.55 L85.84,68.65 L85.42,69.66 L84.76,70.53 L83.88,71.21 L50.15,90.82 L49.12,91.25 L48.02,91.39 L46.93,91.25 L45.89,90.82 L12.12,71.21 L11.24,70.53 L10.57,69.66 L10.16,68.65 L10.01,67.55 L10.01,28.45 L10.16,27.35 L10.58,26.34 L11.24,25.47 L12.12,24.79 L45.90,5.18 L46.93,4.75 L48.03,4.61" fill="none" stroke="#1e1e1e" stroke-width="1" stroke-linejoin="round"/></svg>