<svg xmlns="http://www.w3.org/2000/svg" viewBox="6.03 -2.00 83.94 99.98"><path d="M87.97,44.80 L87.88,47.20 L87.61,49.58 L87.18,51.91 L86.59,54.22 L84.99,58.71 L82.90,63.03 L80.40,67.16 L77.56,71.09 L74.48,74.81 L71.24,78.29 L67.91,81.51 L64.58,84.47 L58.27,89.51 L52.95,93.26 L49.30,95.60 L48.00,95.98 L46.70,95.60 L43.05,93.28 L37.74,89.54 L31.42,84.51 L28.10,81.55 L24.77,78.33 L21.52,74.85 L18.44,71.13 L15.60,67.20 L13.10,63.06 L11.01,58.73 L9.41,54.23 L8.82,51.93 L8.39,49.58 L8.12,47.21 L8.03,44.80 L8.03,13.78 L8.36,12.55 L9.24,11.64 L10.46,11.29 L14.76,11.06 L18.42,10.63 L21.53,10.02 L24.16,9.26 L26.40,8.40 L28.33,7.44 L31.56,5.41 L34.51,3.41 L36.07,2.49 L37.80,1.68 L39.78,0.99 L42.09,0.46 L44.80,0.12 L48.00,0.00 L51.20,0.12 L53.91,0.46 L56.22,0.99 L58.20,1.68 L59.93,2.49 L61.49,3.41 L64.44,5.41 L67.67,7.44 L69.60,8.40 L71.84,9.26 L74.47,10.02 L77.58,10.63 L81.24,11.06 L85.54,11.29 L86.76,11.64 L87.64,12.55 L87.97,13.78 L87.97,44.80 Z" fill="#0078d4" stroke="#1e1e1e" stroke-width="1" stroke-linejoin="round"/><path d="M82.41,45.23 L82.10,49.34 L81.22,53.34 L79.85,57.20 L78.04,60.92 L75.89,64.48 L73.45,67.87 L70.80,71.06 L68.00,74.05 L65.14,76.82 L62.27,79.36 L56.84,83.68 L52.26,86.90 L49.11,88.90 L48.00,89.21 L46.89,88.90 L43.74,86.90 L39.16,83.68 L33.72,79.36 L30.86,76.82 L28.00,74.05 L25.20,71.06 L22.55,67.87 L20.11,64.48 L17.96,60.92 L16.15,57.20 L14.78,53.34 L13.90,49.34 L13.59,45.23 L13.59,18.76 L13.69,17.64 L14.34,16.73 L15.36,16.26 L15.54,16.23 L15.71,16.22 L19.41,16.06 L22.56,15.71 L25.23,15.21 L27.50,14.59 L29.43,13.86 L31.09,13.06 L33.88,11.35 L36.41,9.65 L39.25,8.17 L40.95,7.59 L42.93,7.14 L45.25,6.85 L48.00,6.75 L50.75,6.85 L53.07,7.14 L55.05,7.59 L56.75,8.17 L59.58,9.65 L62.12,11.35 L64.91,13.06 L66.57,13.86 L68.50,14.59 L70.77,15.21 L73.44,15.71 L76.59,16.06 L80.29,16.22 L81.35,16.52 L82.12,17.30 L82.42,18.36 L82.41,45.23 Z" fill="#3f93e6" stroke="#1e1e1e" stroke-width="1" stroke-linejoin="round"/><path d="M66.03,37.42 L66.03,58.39 L48.05,68.98 L48.05,47.90 L66.03,37.42 Z" fill="#50e6ff" stroke="#1e1e1e" stroke-width="1" stroke-linejoin="round"/><path d="M66.03,37.42 L48.05,48.01 L29.97,37.42 L48.05,26.83 L66.03,37.42 Z" fill="#c3f1ff" stroke="#1e1e1e" stroke-width="1" stroke-linejoin="round"/><path d="M48.05,48.01 L48.05,68.98 L29.97,58.39 L29.97,37.42 L48.05,48.01 Z" fill="#9cebff" stroke="#1e1e1e" stroke-width="1" stroke-linejoin="round"/><path d="M29.97,58.39 L48.05,47.90 L48.05,68.98 L29.97,58.39 Z" fill="#c3f1ff" stroke="#1e1e1e" stroke-width="1" stroke-linejoin="round"/><path d="M66.03,58.39 L48.05,47.90 L48.05,68.98 L66.03,58.39 Z" fill="#9cebff" stroke="#1e1e1e" stroke-width="1" stroke-linejoin="round"/></svg>