<svg xmlns="http://www.w3.org/2000/svg" viewBox="-1.97 -2.06 99.93 100.09"><path d="M83.09,44.84 L82.93,48.29 L80.95,47.40 L78.95,46.72 L76.96,46.22 L74.96,45.90 L72.98,45.76 L71.01,45.79 L67.15,46.33 L63.45,47.46 L59.94,49.13 L56.70,51.28 L53.77,53.86 L51.21,56.80 L49.08,60.06 L47.43,63.58 L46.31,67.30 L45.78,71.16 L45.76,73.14 L45.90,75.13 L46.22,77.12 L46.72,79.12 L47.41,81.12 L48.29,83.10 L45.73,83.31 L43.21,83.34 L40.72,83.18 L38.28,82.85 L35.89,82.35 L33.56,81.69 L31.28,80.87 L29.07,79.91 L24.87,77.58 L20.99,74.74 L17.47,71.46 L14.37,67.78 L11.71,63.77 L9.54,59.47 L7.90,54.96 L6.83,50.27 L6.52,47.88 L6.37,45.47 L6.39,43.04 L6.57,40.61 L6.93,38.17 L7.47,35.74 L8.19,33.33 L9.10,30.93 L11.09,26.64 L13.59,22.62 L16.57,18.95 L17.22,20.03 L17.81,20.73 L18.35,21.07 L18.85,21.11 L19.31,20.88 L19.75,20.43 L20.55,19.02 L22.08,15.33 L22.91,13.71 L23.36,13.10 L23.84,12.68 L26.38,11.23 L28.94,9.98 L31.53,8.93 L34.14,8.07 L36.75,7.41 L39.37,6.93 L41.98,6.64 L44.57,6.52 L47.14,6.57 L49.69,6.79 L52.19,7.18 L54.65,7.72 L57.06,8.42 L59.41,9.27 L63.91,11.40 L68.08,14.07 L70.02,15.59 L71.86,17.24 L73.59,19.00 L75.19,20.88 L76.68,22.87 L78.03,24.96 L79.23,27.15 L80.29,29.43 L81.19,31.80 L81.93,34.26 L82.50,36.79 L82.88,39.41 L83.09,42.09 L83.09,44.84 Z" fill="#ededed" stroke="#1e1e1e" stroke-width="1" stroke-linejoin="round"/><path d="M44.80,6.54 L44.65,6.54 L39.17,6.93 L33.80,8.10 L28.66,10.03 L23.85,12.68 L20.83,6.87 L25.23,4.42 L29.89,2.47 L34.74,1.07 L39.71,0.22 L44.75,-0.06 L43.54,0.19 L42.51,0.89 L41.82,1.92 L41.58,3.14 L41.58,3.23 L41.83,4.47 L42.52,5.53 L43.56,6.26 L44.80,6.54 L44.80,6.54 Z" fill="#7a7a7a" stroke="#7a7a7a" stroke-width="1" stroke-linejoin="round"/><path d="M41.90,14.62 L41.90,43.48 L42.27,44.85 L43.27,45.86 L44.65,46.22 L45.18,46.22 L46.55,45.86 L47.56,44.85 L47.93,43.48 L47.93,14.62 L47.56,13.25 L46.55,12.24 L45.18,11.88 L44.65,11.88 L43.27,12.24 L42.27,13.25 L41.90,14.62 Z" fill="#7a7a7a" stroke="#7a7a7a" stroke-width="1" stroke-linejoin="round"/><path d="M49.41,45.55 L48.18,44.84 L46.76,44.84 L45.53,45.55 L45.15,45.92 L44.45,47.15 L44.45,48.57 L45.15,49.80 L51.39,56.04 L53.38,53.78 L55.62,51.77 L49.41,45.55 Z" fill="#7a7a7a" stroke="#7a7a7a" stroke-width="1" stroke-linejoin="round"/><ellipse cx="44.65" cy="44.80" rx="6.33" ry="6.33" fill="#4f4f4f" stroke="#4f4f4f" stroke-width="1"/><path d="M48.29,83.10 L48.61,83.88 L49.12,84.74 L50.26,86.53 L50.62,87.39 L50.69,88.16 L50.33,88.82 L49.43,89.32 L45.72,89.59 L42.10,89.55 L38.58,89.23 L35.16,88.63 L31.85,87.76 L28.66,86.65 L25.59,85.29 L22.66,83.72 L19.87,81.93 L17.23,79.95 L14.75,77.78 L12.43,75.44 L10.28,72.95 L8.32,70.31 L6.54,67.54 L4.96,64.66 L3.58,61.67 L2.42,58.59 L1.47,55.44 L0.75,52.22 L0.27,48.96 L0.03,45.65 L0.04,42.33 L0.30,38.99 L0.84,35.66 L1.64,32.34 L2.73,29.06 L4.11,25.82 L5.78,22.63 L7.76,19.52 L10.05,16.49 L12.67,13.56 L11.66,12.25 L10.46,10.59 L10.09,9.77 L10.03,9.03 L10.39,8.42 L11.31,7.99 L24.11,6.49 L25.14,6.71 L25.64,7.28 L25.71,8.09 L25.47,9.05 L24.56,11.09 L23.83,12.68 L20.34,20.43 L19.79,21.06 L19.25,21.33 L18.73,21.30 L18.22,21.03 L17.30,20.07 L16.56,18.95 L14.57,21.30 L14.54,21.33 L13.83,22.29 L13.77,22.40 L11.17,26.50 L9.13,30.91 L9.13,30.94 L8.20,33.40 L7.46,35.87 L6.91,38.34 L6.55,40.81 L6.36,43.27 L6.35,45.71 L6.50,48.12 L6.81,50.51 L7.89,55.18 L9.55,59.66 L11.75,63.89 L14.43,67.84 L17.56,71.45 L21.09,74.68 L24.98,77.46 L29.19,79.76 L33.67,81.53 L36.00,82.19 L38.37,82.70 L40.80,83.06 L43.26,83.24 L45.76,83.26 L48.29,83.10 Z" fill="#76bc2d" stroke="#1e1e1e" stroke-width="1" stroke-linejoin="round"/><path d="M64.45,4.51 L64.28,4.41 L64.10,4.34 L59.48,2.43 L54.68,1.05 L49.75,0.22 L44.76,-0.04 L43.19,0.46 L42.06,1.66 L41.64,3.25 L42.06,4.85 L43.19,6.05 L44.76,6.55 L45.47,6.55 L51.15,7.09 L56.69,8.47 L61.96,10.65 L66.85,13.59 L71.25,17.23 L75.06,21.47 L78.19,26.24 L80.59,31.42 L82.19,36.90 L82.96,42.55 L82.88,48.26 L82.88,48.26 L86.50,50.25 L87.69,50.70 L88.53,50.70 L89.08,50.17 L89.41,49.05 L89.56,47.26 L89.60,44.73 L89.25,39.19 L88.21,33.73 L86.51,28.45 L84.18,23.42 L81.23,18.71 L77.73,14.41 L73.72,10.56 L69.27,7.25 L64.45,4.51 L64.45,4.51 Z" fill="#76bc2d" stroke="#1e1e1e" stroke-width="1" stroke-linejoin="round"/><path d="M88.50,54.70 L85.72,52.45 L82.63,50.64 L82.29,50.46 L78.05,48.92 L73.59,48.21 L69.08,48.34 L64.68,49.32 L60.54,51.11 L56.80,53.64 L53.61,56.82 L51.07,60.55 L49.27,64.69 L48.28,69.09 L48.14,73.60 L48.84,78.05 L50.36,82.30 L50.46,82.52 L50.57,82.73 L52.34,85.73 L54.52,88.44 L54.62,88.55 L58.01,91.52 L61.88,93.81 L66.12,95.33 L70.57,96.03 L75.07,95.88 L79.46,94.90 L83.60,93.11 L87.32,90.58 L90.50,87.39 L93.04,83.67 L94.82,79.54 L95.81,75.15 L95.95,70.65 L95.25,66.20 L93.73,61.96 L91.45,58.08 L88.47,54.70 L88.50,54.70 Z" fill="#7ec930" stroke="#1e1e1e" stroke-width="1" stroke-linejoin="round"/><path d="M78.58,74.38 L77.61,72.85 L76.29,71.59 L74.71,70.69 L72.83,69.87 L71.03,68.87 L70.28,68.21 L69.96,67.26 L70.17,66.28 L70.47,65.91 L70.86,65.64 L72.92,65.07 L75.07,65.14 L77.09,65.87 L77.66,66.16 L78.21,66.50 L78.21,62.23 L75.53,61.58 L72.76,61.43 L70.02,61.78 L68.38,62.32 L66.94,63.27 L65.80,64.57 L65.75,64.66 L65.70,64.75 L65.19,66.08 L65.04,67.50 L65.32,69.34 L66.21,70.98 L67.85,72.41 L69.78,73.42 L71.32,74.07 L72.93,74.92 L73.58,75.45 L74.02,76.08 L74.18,76.82 L73.97,77.69 L73.70,78.06 L73.34,78.34 L72.06,78.78 L70.71,78.87 L68.84,78.66 L67.06,78.05 L65.45,77.07 L65.26,76.93 L65.08,76.78 L65.08,81.35 L66.40,81.90 L67.79,82.26 L69.10,82.42 L71.78,82.48 L73.18,82.36 L74.54,82.09 L75.82,81.64 L76.96,80.98 L77.92,80.07 L78.63,78.89 L79.04,77.40 L79.02,75.86 L78.58,74.38 Z" fill="#ffffff" stroke="#ffffff" stroke-width="1" stroke-linejoin="round"/><path d="M71.68,83.98 L70.53,84.33 L69.77,85.24 L69.65,86.43 L70.21,87.49 L71.26,88.06 L72.45,87.95 L73.38,87.20 L73.73,86.05 L73.45,85.03 L72.70,84.28 L71.68,84.00 L71.68,83.98 Z" fill="#ffffff" stroke="#ffffff" stroke-width="1" stroke-linejoin="round"/><path d="M71.78,56.07 L71.78,56.07 L70.63,56.42 L69.86,57.34 L69.74,58.54 L70.31,59.60 L71.37,60.16 L72.56,60.04 L73.49,59.28 L73.83,58.12 L73.83,58.12 L73.56,57.10 L72.81,56.35 L71.78,56.09 L71.78,56.07 Z" fill="#ffffff" stroke="#ffffff" stroke-width="1" stroke-linejoin="round"/></svg>