<svg xmlns="http://www.w3.org/2000/svg" viewBox="0.82 3.37 100.00 94.67"><ellipse cx="52.99" cy="50.79" rx="30.65" ry="30.65" fill="#5c9fee" stroke="#1e1e1e" stroke-width="1"/><ellipse cx="53.11" cy="50.79" rx="26.69" ry="26.69" fill="#ffffff" stroke="#1e1e1e" stroke-width="1"/><path d="M65.54,37.32 L68.77,34.09 L69.81,35.12 L66.58,38.36 L65.54,37.32 Z" fill="#7a7a7a" stroke="#7a7a7a" stroke-width="1" stroke-linejoin="round"/><rect x="71.22" y="50.06" width="4.57" height="1.47" fill="#7a7a7a" stroke="#7a7a7a" stroke-width="1"/><path d="M65.29,64.01 L66.32,62.97 L69.56,66.21 L68.52,67.24 L65.29,64.01 Z" fill="#7a7a7a" stroke="#7a7a7a" stroke-width="1" stroke-linejoin="round"/><rect x="52.37" y="68.80" width="1.47" height="4.57" fill="#7a7a7a" stroke="#7a7a7a" stroke-width="1"/><path d="M36.28,35.00 L37.32,33.97 L40.55,37.20 L39.52,38.24 L36.28,35.00 Z" fill="#7a7a7a" stroke="#7a7a7a" stroke-width="1" stroke-linejoin="round"/><path d="M36.49,66.36 L39.72,63.13 L40.76,64.17 L37.53,67.40 L36.49,66.36 Z" fill="#7a7a7a" stroke="#7a7a7a" stroke-width="1" stroke-linejoin="round"/><rect x="30.19" y="50.06" width="4.57" height="1.47" fill="#7a7a7a" stroke="#7a7a7a" stroke-width="1"/><path d="M64.17,59.03 L56.44,51.25 L55.78,50.86 L55.03,50.79 L55.24,50.36 L55.37,49.89 L55.37,30.08 L55.12,29.15 L54.43,28.47 L53.50,28.22 L53.11,28.22 L52.18,28.47 L51.49,29.15 L51.25,30.08 L51.25,49.83 L51.49,50.78 L52.17,51.48 L53.11,51.75 L53.39,51.75 L52.98,52.53 L52.98,53.41 L53.39,54.18 L61.23,62.08 L62.07,62.57 L63.05,62.57 L63.89,62.08 L63.89,62.08 L64.68,61.21 L64.79,60.04 L64.17,59.03 L64.17,59.03 Z" fill="#7a7a7a" stroke="#1e1e1e" stroke-width="1" stroke-linejoin="round"/><ellipse cx="53.16" cy="50.79" rx="4.35" ry="4.35" fill="#4f4f4f" stroke="#4f4f4f" stroke-width="1"/><path d="M2.82,85.11 L2.94,85.56 L3.27,85.90 L9.82,89.57 L20.88,95.94 L21.60,96.04 L22.18,95.60 L25.90,89.28 L25.97,88.62 L25.57,88.10 L12.59,80.76 L12.26,80.42 L12.13,79.97 L12.13,21.73 L12.25,21.27 L12.59,20.94 L25.57,13.60 L25.97,13.08 L25.90,12.42 L22.18,6.10 L21.63,5.60 L20.88,5.64 L10.05,11.91 L3.27,15.69 L2.94,16.02 L2.82,16.48 L2.82,85.11 L2.82,85.11 Z" fill="#949494" stroke="#1e1e1e" stroke-width="1" stroke-linejoin="round"/><path d="M12.08,21.28 L12.42,20.94 L25.40,13.60 L25.85,13.09 L25.74,12.42 L22.01,6.10 L21.50,5.57 L20.77,5.64 L9.88,11.91 L3.16,15.69 L3.01,15.73 L2.82,16.03 L7.90,18.91 L12.08,21.28 Z" fill="#a3a3a3" stroke="#1e1e1e" stroke-width="1" stroke-linejoin="round"/><path d="M25.40,87.99 L12.42,80.65 L12.19,80.42 L12.02,80.14 L2.88,85.78 L3.16,85.78 L9.65,89.45 L20.94,95.72 L21.64,95.83 L22.18,95.38 L25.90,89.06 L25.89,88.41 L25.40,87.99 Z" fill="#a3a3a3" stroke="#1e1e1e" stroke-width="1" stroke-linejoin="round"/><path d="M98.82,85.11 L98.70,85.56 L98.37,85.90 L91.82,89.57 L80.54,95.83 L79.84,95.95 L79.29,95.49 L75.57,89.17 L75.46,88.52 L75.85,87.99 L88.83,80.65 L89.16,80.31 L89.28,79.86 L89.28,21.73 L89.17,21.27 L88.83,20.94 L75.85,13.60 L75.46,13.07 L75.57,12.42 L79.29,6.10 L79.60,5.55 L80.20,5.37 L80.76,5.64 L91.60,11.80 L98.37,15.58 L98.70,15.91 L98.82,16.37 L98.82,85.11 L98.82,85.11 Z" fill="#949494" stroke="#1e1e1e" stroke-width="1" stroke-linejoin="round"/><path d="M89.57,21.28 L89.23,20.94 L76.25,13.60 L75.79,13.09 L75.91,12.42 L79.63,6.10 L80.15,5.57 L80.87,5.64 L91.77,11.80 L98.48,15.58 L98.63,15.62 L98.82,15.92 L93.74,18.79 L89.57,21.28 Z" fill="#a3a3a3" stroke="#1e1e1e" stroke-width="1" stroke-linejoin="round"/><path d="M76.25,87.99 L89.23,80.65 L89.47,80.43 L89.62,80.14 L98.77,85.78 L98.48,85.78 L91.99,89.45 L80.71,95.72 L80.01,95.83 L79.46,95.38 L75.74,89.06 L75.75,88.41 L76.25,87.99 Z" fill="#a3a3a3" stroke="#1e1e1e" stroke-width="1" stroke-linejoin="round"/><path d="M44.81,18.91 L44.81,18.91 L43.99,17.69 L42.66,17.07 L41.20,17.21 L36.05,19.56 L31.32,22.67 L27.12,26.46 L23.55,30.85 L20.68,35.73 L18.60,40.99 L17.34,46.50 L16.93,52.15 L17.54,57.66 L19.02,63.00 L21.34,68.04 L24.43,72.65 L28.22,76.70 L26.30,79.29 L26.05,80.11 L26.41,80.89 L27.20,81.21 L37.81,81.95 L38.66,81.76 L39.18,81.06 L39.11,80.20 L34.65,70.94 L33.98,70.41 L33.12,70.41 L32.45,70.94 L31.38,72.41 L28.38,68.96 L25.95,65.09 L24.15,60.90 L23.01,56.47 L22.57,51.92 L22.91,47.11 L23.97,42.41 L25.73,37.93 L28.16,33.76 L31.20,30.02 L34.77,26.78 L38.79,24.13 L43.17,22.12 L44.25,21.38 L44.85,20.22 L44.81,18.91 L44.81,18.91 Z" fill="#76bc2d" stroke="#1e1e1e" stroke-width="1" stroke-linejoin="round"/></svg>