<svg xmlns="http://www.w3.org/2000/svg" viewBox="-0.93 -1.09 97.69 100.00"><path d="M50.20,55.36 L50.57,53.99 L51.57,52.98 L52.94,52.62 L68.67,52.62 L64.96,48.68 L60.69,45.35 L55.96,42.73 L50.88,40.86 L45.57,39.80 L40.16,39.57 L35.78,39.75 L31.67,40.27 L27.83,41.13 L24.25,42.31 L20.92,43.82 L17.86,45.64 L15.05,47.77 L12.50,50.19 L10.21,52.91 L8.16,55.90 L6.37,59.17 L4.82,62.70 L3.52,66.48 L2.46,70.52 L1.65,74.79 L1.07,79.30 L1.19,81.48 L1.97,83.51 L3.35,85.20 L5.19,86.38 L7.30,86.93 L50.26,86.93 L50.20,55.36 Z" fill="#3a9de6" stroke="#1e1e1e" stroke-width="1" stroke-linejoin="round"/><path d="M40.16,44.78 L36.01,44.38 L32.00,43.20 L28.30,41.29 L40.05,71.95 L51.70,41.45 L48.09,43.28 L44.20,44.41 L40.16,44.78 Z" fill="#ffffff" stroke="#1e1e1e" stroke-width="1" stroke-linejoin="round" opacity="0.8"/><ellipse cx="40.16" cy="22.82" rx="21.91" ry="21.91" fill="#3a9de6" stroke="#1e1e1e" stroke-width="1"/><path d="M67.60,84.35 L80.16,84.35 L80.16,96.91 L67.60,96.91 L67.60,84.35 Z" fill="#7fcb30" stroke="#7fcb30" stroke-width="1" stroke-linejoin="round"/><path d="M52.94,67.60 L65.50,67.60 L65.50,55.03 L54.77,55.03 L53.88,55.27 L53.23,55.92 L52.99,56.81 L52.94,67.60 Z" fill="#7fcb30" stroke="#7fcb30" stroke-width="1" stroke-linejoin="round"/><path d="M54.71,96.91 L65.45,96.91 L65.45,84.35 L52.94,84.35 L52.94,95.09 L53.16,96.00 L53.81,96.67 L54.71,96.91 L54.71,96.91 Z" fill="#7fcb30" stroke="#7fcb30" stroke-width="1" stroke-linejoin="round"/><path d="M52.94,82.26 L65.50,82.26 L65.50,69.80 L52.94,69.80 L52.94,82.26 Z" fill="#7fcb30" stroke="#7fcb30" stroke-width="1" stroke-linejoin="round"/><path d="M82.20,96.91 L92.94,96.91 L93.81,96.67 L94.45,96.02 L94.66,95.14 L94.66,84.40 L82.20,84.40 L82.20,96.91 Z" fill="#7fcb30" stroke="#7fcb30" stroke-width="1" stroke-linejoin="round"/><path d="M67.60,82.26 L80.16,82.26 L80.16,69.80 L67.60,69.80 L67.60,82.26 Z" fill="#7fcb30" stroke="#7fcb30" stroke-width="1" stroke-linejoin="round"/><path d="M82.20,82.26 L94.77,82.26 L94.77,69.80 L82.20,69.80 L82.20,82.26 Z" fill="#7fcb30" stroke="#7fcb30" stroke-width="1" stroke-linejoin="round"/><path d="M82.20,55.03 L82.20,67.60 L94.77,67.60 L94.77,56.86 L94.55,55.98 L93.92,55.33 L93.05,55.09 L82.20,55.03 Z" fill="#7fcb30" stroke="#7fcb30" stroke-width="1" stroke-linejoin="round"/><path d="M67.60,67.60 L80.16,67.60 L80.16,55.03 L67.60,55.03 L67.60,67.60 Z" fill="#7fcb30" stroke="#7fcb30" stroke-width="1" stroke-linejoin="round"/></svg>