<svg xmlns="http://www.w3.org/2000/svg" viewBox="2.65 -2.00 90.71 99.95"><path d="M26.52,69.78 L26.52,69.78 L46.15,58.44 L45.33,57.69 L44.38,57.06 L30.51,49.05 L29.21,48.45 L27.85,48.10 L26.48,47.99 L25.12,48.11 L23.78,48.46 L22.51,49.05 L8.65,57.06 L7.71,57.69 L6.89,58.44 L5.94,59.63 L5.23,60.97 L4.80,62.44 L4.65,63.98 L4.65,63.98 L4.80,62.44 L5.23,60.98 L5.94,59.63 L6.89,58.44 L26.52,69.78 Z" fill="#66c0ff" stroke="#1e1e1e" stroke-width="1" stroke-linejoin="round"/><path d="M48.27,62.63 L48.18,62.22 L48.00,61.61 L47.45,60.29 L47.19,59.80 L46.95,59.45 L46.15,58.44 L46.14,58.44 L26.51,69.78 L26.51,69.78 L26.51,95.94 L26.94,95.94 L28.39,95.76 L28.75,95.66 L30.52,94.94 L44.39,86.93 L46.06,85.65 L47.32,84.01 L48.11,82.09 L48.39,80.01 L48.39,63.99 L48.26,62.65 L48.27,62.63 Z" fill="#4894fe" stroke="#1e1e1e" stroke-width="1" stroke-linejoin="round"/><path d="M26.52,69.78 L6.89,58.44 L5.94,59.63 L5.23,60.98 L4.80,62.44 L4.65,63.98 L4.65,79.99 L4.92,82.08 L5.72,83.99 L6.98,85.64 L8.65,86.92 L22.51,94.93 L22.61,94.98 L23.96,95.53 L25.02,95.80 L26.06,95.93 L26.53,95.93 L26.53,69.78 L26.52,69.78 Z" fill="#58aafe" stroke="#1e1e1e" stroke-width="1" stroke-linejoin="round"/><path d="M69.88,21.79 L89.16,10.45 L89.96,11.51 L90.59,12.69 L90.33,12.05 L90.25,11.91 L89.75,11.17 L89.71,11.11 L89.15,10.44 L89.14,10.44 L88.33,9.70 L87.40,9.06 L73.79,1.06 L72.52,0.46 L71.18,0.11 L69.84,-0.00 L68.50,0.11 L67.18,0.47 L65.94,1.06 L52.33,9.06 L51.41,9.69 L50.60,10.44 L69.88,21.78 L69.88,21.79 L69.88,21.79 Z" fill="#36dff1" stroke="#1e1e1e" stroke-width="1" stroke-linejoin="round"/><path d="M69.88,21.79 L69.88,21.78 L50.60,10.44 L49.67,11.63 L48.97,12.98 L48.55,14.44 L48.40,15.98 L48.40,32.00 L48.67,34.09 L49.45,36.00 L50.69,37.64 L52.33,38.92 L65.94,46.93 L67.41,47.54 L68.34,47.79 L69.48,47.93 L69.87,47.93 L69.87,21.79 L69.88,21.79 Z" fill="#16bbda" stroke="#1e1e1e" stroke-width="1" stroke-linejoin="round"/><path d="M90.59,12.69 L89.96,11.51 L89.16,10.45 L69.88,21.79 L69.88,47.94 L70.37,47.94 L71.67,47.77 L72.13,47.64 L73.72,46.99 L73.82,46.94 L87.43,38.93 L89.07,37.65 L90.30,36.01 L91.08,34.10 L91.35,32.01 L91.35,16.01 L91.21,14.63 L90.84,13.32 L90.59,12.70 L90.59,12.69 Z" fill="#26cfe8" stroke="#1e1e1e" stroke-width="1" stroke-linejoin="round"/></svg>