<svg xmlns="http://www.w3.org/2000/svg" viewBox="8.24 0.67 79.47 94.61"><path d="M10.29,11.20 L16.80,3.73 L17.86,2.94 L19.15,2.67 L81.01,2.67 L82.81,2.89 L84.35,3.83 L85.38,5.32 L85.71,7.09 L85.71,84.43 L85.44,85.71 L84.69,86.77 L77.76,93.17 L14.51,93.17 L10.24,91.36 L10.29,11.20 Z" fill="#773adc" stroke="#1e1e1e" stroke-width="1" stroke-linejoin="round"/><path d="M15.47,11.20 L19.41,6.67 L20.28,6.03 L21.33,5.76 L79.36,5.76 L80.75,6.13 L81.76,7.15 L82.13,8.53 L82.13,82.03 L81.90,83.16 L81.23,84.11 L75.09,89.71 L15.47,11.20 Z" fill="#ffffff" stroke="#1e1e1e" stroke-width="1" stroke-linejoin="round"/><path d="M74.67,11.20 L10.67,11.20 L10.40,11.20 L10.40,91.20 L10.67,92.22 L11.41,92.98 L12.43,93.28 L74.67,93.28 L75.68,92.98 L76.42,92.22 L76.69,91.20 L76.69,13.23 L76.42,12.21 L75.68,11.47 L74.67,11.20 L74.67,11.20 Z" fill="#a669ee" stroke="#1e1e1e" stroke-width="1" stroke-linejoin="round"/><path d="M44.53,59.63 L36.00,54.93 L36.00,54.93 L36.00,45.33 L36.00,45.33 L44.37,49.97 L44.37,59.31" fill="none" stroke="#ffffff" stroke-width="1" stroke-linejoin="round"/><path d="M33.60,53.33 L25.07,48.80 L25.07,48.80 L25.07,39.20 L25.07,39.20 L25.07,39.20 L33.44,43.84 L33.44,53.33 L33.44,53.33" fill="none" stroke="#ffffff" stroke-width="1" stroke-linejoin="round"/><path d="M37.33,42.67 L45.71,38.13 L54.24,42.67 L54.24,42.67 L45.92,47.20 L37.33,42.67 Z" fill="#ffffff" stroke="#ffffff" stroke-width="1" stroke-linejoin="round" opacity="0.8"/><path d="M26.67,36.64 L34.77,32.00 L35.04,32.00 L43.20,36.48 L43.31,36.69 L43.20,36.91 L34.93,41.44 L26.67,36.96" fill="none" stroke="#ffffff" stroke-width="1" stroke-linejoin="round" opacity="0.8"/><path d="M48.43,36.80 L56.75,32.00 L56.75,32.00 L64.91,36.48 L64.91,36.48 L64.91,36.48 L56.64,41.01 L56.37,41.01 L48.53,37.33 L48.53,37.33" fill="none" stroke="#ffffff" stroke-width="1" stroke-linejoin="round" opacity="0.8"/><path d="M37.33,30.93 L45.65,26.45 L45.92,26.45 L54.19,30.88 L54.19,30.88 L45.81,35.36 L37.33,31.25" fill="none" stroke="#ffffff" stroke-width="1" stroke-linejoin="round" opacity="0.8"/><path d="M47.04,59.63 L55.41,54.99 L55.41,45.33 L46.99,49.97 L46.99,49.97 L46.99,59.31 L46.99,59.31 L47.04,59.63 Z" fill="#ffffff" stroke="#ffffff" stroke-width="1" stroke-linejoin="round" opacity="0.6"/><path d="M66.40,39.04 L66.40,39.04 L57.97,43.68 L57.97,43.68 L57.97,53.33 L57.97,53.33 L58.24,53.33 L66.61,48.69 L66.61,48.69 L66.61,39.25 L66.40,39.04 L66.40,39.04 Z" fill="#ffffff" stroke="#ffffff" stroke-width="1" stroke-linejoin="round" opacity="0.6"/><path d="M48.00,65.07 L49.26,65.18 L50.39,65.60 L51.21,66.42 L51.46,67.01 L51.57,67.73 L51.64,68.35 L51.57,68.96 L55.84,67.20 L55.84,67.20 L55.84,57.60 L55.84,57.60 L47.41,62.24 L47.41,65.07 L48.00,65.07 Z" fill="#ffffff" stroke="#ffffff" stroke-width="1" stroke-linejoin="round" opacity="0.6"/><path d="M66.13,51.31 L57.71,55.95 L57.71,65.28 L57.71,65.28 L57.97,65.28 L66.35,60.64 L66.35,51.57 L66.13,51.31 Z" fill="#ffffff" stroke="#ffffff" stroke-width="1" stroke-linejoin="round" opacity="0.6"/><path d="M39.04,63.47 L39.84,64.58 L40.24,64.97 L40.64,65.17 L44.80,65.17 L44.80,62.29 L44.80,62.29 L36.27,57.49 L36.27,60.16 L37.82,61.70 L39.04,63.52 L39.04,63.47 Z" fill="#ffffff" stroke="#ffffff" stroke-width="1" stroke-linejoin="round"/><path d="M32.80,59.41 L33.36,59.39 L33.92,59.41 L33.92,55.95 L33.92,55.95 L25.39,51.31 L25.39,51.31 L25.39,60.27 L26.73,60.12 L28.05,59.84 L30.42,59.50 L32.80,59.41 L32.80,59.41 Z" fill="#ffffff" stroke="#ffffff" stroke-width="1" stroke-linejoin="round"/><path d="M63.36,69.33 L58.03,72.53 L52.16,76.00 L49.91,76.62 L47.57,76.59 L45.81,76.59 L40.48,76.85 L37.65,76.85 L36.75,76.75 L35.77,76.45 L33.74,75.45 L31.80,74.13 L30.19,72.80 L29.28,71.95 L27.06,70.46 L24.53,69.57 L21.87,69.33 L18.77,69.33 L18.77,61.49 L25.07,61.49 L26.52,61.37 L27.95,61.07 L30.38,60.64 L32.85,60.48 L35.01,61.04 L36.85,62.27 L38.19,64.05 L39.27,65.46 L39.84,65.94 L40.48,66.19 L42.61,66.25 L45.55,66.19 L48.00,66.19 L49.30,66.30 L50.09,66.63 L50.50,67.13 L50.67,67.79 L50.56,68.73 L50.08,69.55 L48.26,69.97 L46.40,70.13 L42.39,70.27 L40.26,70.13 L39.42,69.93 L38.83,69.60 L35.63,66.77 L34.99,67.57 L38.19,70.35 L40.26,71.24 L42.51,71.36 L44.41,71.33 L46.51,71.09 L48.31,70.95 L50.08,70.61 L50.29,70.65 L50.51,70.61 L54.61,68.90 L59.95,66.51 L61.62,65.96 L63.39,65.73 L64.84,65.88 L65.31,66.13 L65.55,66.51 L65.55,67.32 L65.18,68.01 L64.46,68.65 L63.41,69.28 L63.36,69.33 Z" fill="#ffffff" stroke="#1e1e1e" stroke-width="1" stroke-linejoin="round"/></svg>