<svg xmlns="http://www.w3.org/2000/svg" viewBox="0.93 0.93 94.13 94.40"><path d="M29.81,70.03 L52.85,70.03 L52.85,90.67 L52.50,92.00 L51.52,92.98 L50.19,93.33 L29.81,93.33 L29.81,70.03 Z" fill="#3f93e6" stroke="#1e1e1e" stroke-width="1" stroke-linejoin="round"/><path d="M6.13,93.07 L25.97,93.07 L25.97,70.03 L2.93,70.03 L2.93,89.87 L3.18,91.09 L3.87,92.13 L4.91,92.82 L6.13,93.07 L6.13,93.07 Z" fill="#3f93e6" stroke="#1e1e1e" stroke-width="1" stroke-linejoin="round"/><path d="M2.93,66.40 L25.97,66.40 L25.97,43.15 L5.60,43.15 L4.27,43.50 L3.29,44.48 L2.93,45.81 L2.93,66.40 Z" fill="#3f93e6" stroke="#1e1e1e" stroke-width="1" stroke-linejoin="round"/><path d="M61.33,2.93 L66.34,3.28 L71.23,4.43 L75.87,6.33 L80.16,8.95 L83.96,12.23 L87.20,16.06 L89.79,20.36 L91.66,25.02 L92.76,29.92 L93.07,34.93 L92.72,39.91 L91.59,44.78 L89.70,49.40 L87.11,53.67 L83.87,57.47 L80.07,60.71 L75.80,63.30 L71.18,65.19 L66.31,66.32 L61.33,66.67 L29.60,66.67 L29.60,34.67 L29.95,29.69 L31.08,24.82 L32.96,20.20 L35.56,15.93 L38.80,12.13 L42.60,8.89 L46.87,6.30 L51.49,4.41 L56.35,3.28 L61.33,2.93 L61.33,2.93 Z" fill="#2abce0" stroke="#1e1e1e" stroke-width="1" stroke-linejoin="round"/><path d="M80.85,17.28 L78.81,17.69 L77.08,18.84 L75.93,20.57 L75.52,22.61 L75.83,24.37 L76.69,25.92 L67.79,41.87 L67.09,41.87 L65.62,42.09 L64.27,42.72 L57.39,35.68 L57.70,34.66 L57.81,33.60 L57.40,31.51 L56.21,29.73 L54.44,28.55 L52.35,28.13 L50.25,28.55 L48.48,29.73 L47.30,31.51 L46.88,33.60 L47.06,34.92 L47.57,36.16 L41.33,44.37 L40.59,44.33 L39.84,44.37 L37.80,44.78 L36.07,45.94 L34.91,47.67 L34.51,49.71 L34.91,51.75 L36.07,53.48 L37.80,54.63 L39.84,55.04 L41.88,54.63 L43.61,53.48 L44.77,51.75 L45.17,49.71 L44.98,48.41 L44.48,47.20 L51.04,38.93 L51.71,38.98 L52.37,38.93 L53.35,38.80 L54.29,38.51 L61.81,46.40 L61.79,46.88 L61.81,47.36 L62.22,49.40 L63.38,51.13 L65.11,52.29 L67.15,52.69 L69.19,52.29 L70.92,51.13 L72.07,49.40 L72.48,47.36 L72.18,45.68 L71.41,44.16 L80.32,28.16 L80.85,28.16 L82.89,27.75 L84.62,26.60 L85.78,24.87 L86.19,22.83 L85.98,21.13 L85.25,19.58 L84.06,18.35 L82.54,17.55 L80.85,17.28 L80.85,17.28 Z" fill="#ffffff" stroke="#1e1e1e" stroke-width="1" stroke-linejoin="round"/></svg>