<svg xmlns="http://www.w3.org/2000/svg" viewBox="1.12 1.12 99.72 100.00"><path d="M31.66,74.36 L56.13,74.36 L56.13,96.28 L55.75,97.70 L54.71,98.74 L53.30,99.12 L31.66,99.12 L31.66,74.36 Z" fill="#3f93e6" stroke="#1e1e1e" stroke-width="1" stroke-linejoin="round"/><path d="M6.51,98.83 L27.58,98.83 L27.58,74.36 L3.12,74.36 L3.12,95.43 L3.37,96.73 L4.11,97.84 L5.21,98.57 L6.51,98.83 L6.51,98.83 Z" fill="#3f93e6" stroke="#1e1e1e" stroke-width="1" stroke-linejoin="round"/><path d="M3.12,70.51 L27.58,70.51 L27.58,45.82 L5.95,45.82 L4.53,46.20 L3.49,47.24 L3.12,48.65 L3.12,70.51 Z" fill="#3f93e6" stroke="#1e1e1e" stroke-width="1" stroke-linejoin="round"/><path d="M65.13,3.12 L70.45,3.49 L75.64,4.70 L80.57,6.72 L85.12,9.51 L89.17,12.98 L92.61,17.06 L95.35,21.63 L97.34,26.57 L98.51,31.78 L98.83,37.10 L98.46,42.39 L97.26,47.55 L95.26,52.46 L92.50,56.99 L89.06,61.03 L85.03,64.47 L80.50,67.22 L75.59,69.23 L70.42,70.43 L65.13,70.80 L31.43,70.80 L31.43,36.81 L31.80,31.52 L33.00,26.36 L35.01,21.45 L37.76,16.92 L41.20,12.88 L45.24,9.44 L49.77,6.69 L54.68,4.68 L59.84,3.48 L65.13,3.12 L65.13,3.12 Z" fill="#2abce0" stroke="#1e1e1e" stroke-width="1" stroke-linejoin="round"/><path d="M85.86,18.35 L83.69,18.78 L81.86,20.01 L80.63,21.85 L80.20,24.01 L80.52,25.88 L81.44,27.53 L71.99,44.46 L71.25,44.46 L69.68,44.70 L68.25,45.37 L60.94,37.89 L61.28,36.81 L61.39,35.68 L60.95,33.46 L59.69,31.58 L57.81,30.32 L55.59,29.88 L53.37,30.32 L51.48,31.58 L50.23,33.46 L49.78,35.68 L49.98,37.09 L50.52,38.40 L43.89,47.12 L43.10,47.08 L42.31,47.12 L40.14,47.55 L38.30,48.78 L37.08,50.62 L36.64,52.79 L37.08,54.95 L38.30,56.79 L40.14,58.02 L42.31,58.45 L44.48,58.02 L46.31,56.79 L47.54,54.95 L47.97,52.79 L47.77,51.41 L47.24,50.12 L54.20,41.35 L54.91,41.39 L55.62,41.35 L56.66,41.21 L57.66,40.89 L65.64,49.27 L65.62,49.78 L65.64,50.29 L66.07,52.46 L67.30,54.30 L69.14,55.53 L71.31,55.96 L73.47,55.53 L75.31,54.30 L76.54,52.46 L76.97,50.29 L76.65,48.51 L75.84,46.90 L85.30,29.90 L85.86,29.90 L88.03,29.47 L89.87,28.25 L91.09,26.41 L91.53,24.24 L91.31,22.44 L90.53,20.79 L89.27,19.48 L87.66,18.64 L85.86,18.35 L85.86,18.35 Z" fill="#ffffff" stroke="#1e1e1e" stroke-width="1" stroke-linejoin="round"/></svg>