<svg xmlns="http://www.w3.org/2000/svg" viewBox="8.27 0.82 85.10 100.00"><path d="M35.10,2.82 L16.07,2.82 L13.85,3.26 L11.97,4.52 L10.71,6.40 L10.27,8.62 L10.27,27.67 L21.86,27.67 L21.86,14.41 L35.10,14.41 L35.10,2.82 Z" fill="#32bedd" stroke="#1e1e1e" stroke-width="1" stroke-linejoin="round"/><path d="M85.58,2.82 L66.55,2.82 L66.55,14.41 L79.79,14.41 L79.79,27.67 L91.38,27.67 L91.38,8.62 L90.93,6.40 L89.68,4.52 L87.80,3.26 L85.58,2.82 Z" fill="#32bedd" stroke="#1e1e1e" stroke-width="1" stroke-linejoin="round"/><path d="M79.79,73.98 L79.79,87.22 L66.55,87.22 L66.55,98.82 L85.58,98.82 L87.80,98.38 L89.68,97.13 L90.93,95.25 L91.38,93.03 L91.38,73.98 L79.79,73.98 Z" fill="#32bedd" stroke="#1e1e1e" stroke-width="1" stroke-linejoin="round"/><path d="M21.86,87.24 L21.86,73.98 L10.27,73.98 L10.27,93.01 L10.71,95.24 L11.96,97.12 L13.84,98.38 L16.07,98.82 L35.10,98.82 L35.10,87.24 L21.86,87.24 Z" fill="#32bedd" stroke="#1e1e1e" stroke-width="1" stroke-linejoin="round"/><path d="M21.03,91.38 L80.62,91.38 L82.27,90.93 L83.48,89.72 L83.93,88.07 L83.93,13.55 L83.48,11.90 L82.27,10.69 L80.62,10.24 L21.03,10.24 L19.38,10.69 L18.17,11.90 L17.72,13.55 L17.72,88.09 L18.18,89.73 L19.39,90.93 L21.03,91.38 L21.03,91.38 Z" fill="#2cc3e5" stroke="#1e1e1e" stroke-width="1" stroke-linejoin="round"/><path d="M25.98,84.76 L75.67,84.76 L76.50,84.53 L77.10,83.93 L77.33,83.10 L77.33,18.55 L77.10,17.72 L76.50,17.11 L75.67,16.89 L25.98,16.89 L25.15,17.11 L24.54,17.72 L24.32,18.55 L24.32,83.10 L24.55,83.93 L25.15,84.53 L25.98,84.76 L25.98,84.76 Z" fill="#ffffff" stroke="#1e1e1e" stroke-width="1" stroke-linejoin="round"/><path d="M37.58,74.82 L64.07,74.82 L64.89,74.60 L65.50,74.00 L65.72,73.17 L65.72,65.72 L65.50,64.89 L64.89,64.29 L64.07,64.07 L37.58,64.07 L36.76,64.29 L36.15,64.89 L35.93,65.72 L35.93,73.17 L36.15,74.00 L36.76,74.60 L37.58,74.82 L37.58,74.82 Z" fill="#5e9624" stroke="#1e1e1e" stroke-width="1" stroke-linejoin="round"/><path d="M37.58,56.21 L64.07,56.21 L64.89,55.98 L65.50,55.38 L65.72,54.55 L65.72,47.10 L65.50,46.27 L64.89,45.67 L64.07,45.44 L37.58,45.44 L36.75,45.67 L36.15,46.27 L35.93,47.10 L35.93,54.55 L36.15,55.38 L36.76,55.98 L37.58,56.21 L37.58,56.21 Z" fill="#76bc2d" stroke="#1e1e1e" stroke-width="1" stroke-linejoin="round"/><path d="M37.58,37.58 L64.07,37.58 L64.89,37.36 L65.50,36.75 L65.72,35.93 L65.72,28.48 L65.50,27.65 L64.89,27.05 L64.07,26.82 L37.58,26.82 L36.76,27.05 L36.15,27.65 L35.93,28.48 L35.93,35.93 L36.15,36.75 L36.76,37.36 L37.58,37.58 L37.58,37.58 Z" fill="#86d633" stroke="#1e1e1e" stroke-width="1" stroke-linejoin="round"/></svg>