<svg xmlns="http://www.w3.org/2000/svg" viewBox="7.70 0.67 80.60 94.67"><path d="M33.15,2.67 L15.17,2.67 L13.08,3.08 L11.30,4.27 L10.12,6.04 L9.70,8.14 L9.70,26.13 L20.65,26.13 L20.65,13.61 L33.15,13.61 L33.15,2.67 Z" fill="#32bedd" stroke="#1e1e1e" stroke-width="1" stroke-linejoin="round"/><path d="M80.83,2.67 L62.85,2.67 L62.85,13.61 L75.35,13.61 L75.35,26.13 L86.30,26.13 L86.30,8.14 L85.88,6.04 L84.70,4.27 L82.92,3.08 L80.83,2.67 Z" fill="#32bedd" stroke="#1e1e1e" stroke-width="1" stroke-linejoin="round"/><path d="M75.35,69.87 L75.35,82.37 L62.85,82.37 L62.85,93.33 L80.83,93.33 L82.92,92.92 L84.70,91.73 L85.88,89.96 L86.30,87.86 L86.30,69.87 L75.35,69.87 Z" fill="#32bedd" stroke="#1e1e1e" stroke-width="1" stroke-linejoin="round"/><path d="M20.65,82.39 L20.65,69.87 L9.70,69.87 L9.70,87.85 L10.11,89.94 L11.30,91.72 L13.08,92.92 L15.17,93.33 L33.15,93.33 L33.15,82.39 L20.65,82.39 Z" fill="#32bedd" stroke="#1e1e1e" stroke-width="1" stroke-linejoin="round"/><path d="M19.86,86.30 L76.14,86.30 L77.70,85.88 L78.84,84.73 L79.26,83.17 L79.26,12.80 L78.84,11.24 L77.70,10.10 L76.14,9.67 L19.86,9.67 L18.30,10.10 L17.16,11.24 L16.74,12.80 L16.74,83.20 L17.17,84.75 L18.31,85.88 L19.86,86.30 Z" fill="#2cc3e5" stroke="#1e1e1e" stroke-width="1" stroke-linejoin="round"/><path d="M24.53,80.05 L71.47,80.05 L72.25,79.84 L72.82,79.27 L73.03,78.49 L73.03,17.52 L72.82,16.74 L72.25,16.16 L71.47,15.95 L24.53,15.95 L23.75,16.16 L23.18,16.74 L22.97,17.52 L22.97,78.49 L23.18,79.27 L23.75,79.84 L24.53,80.05 L24.53,80.05 Z" fill="#ffffff" stroke="#1e1e1e" stroke-width="1" stroke-linejoin="round"/><path d="M35.49,70.67 L60.51,70.67 L61.29,70.46 L61.86,69.88 L62.07,69.10 L62.07,62.07 L61.86,61.29 L61.29,60.72 L60.51,60.51 L35.49,60.51 L34.71,60.72 L34.14,61.29 L33.93,62.07 L33.93,69.10 L34.14,69.88 L34.71,70.46 L35.49,70.67 L35.49,70.67 Z" fill="#5e9624" stroke="#5e9624" stroke-width="1" stroke-linejoin="round"/><path d="M35.49,53.08 L60.51,53.08 L61.29,52.87 L61.86,52.30 L62.07,51.52 L62.07,44.49 L61.86,43.70 L61.29,43.13 L60.51,42.92 L35.49,42.92 L34.71,43.13 L34.14,43.70 L33.93,44.49 L33.93,51.52 L34.14,52.30 L34.71,52.87 L35.49,53.08 L35.49,53.08 Z" fill="#76bc2d" stroke="#76bc2d" stroke-width="1" stroke-linejoin="round"/><path d="M35.49,35.49 L60.51,35.49 L61.29,35.28 L61.86,34.71 L62.07,33.93 L62.07,26.90 L61.86,26.12 L61.29,25.54 L60.51,25.33 L35.49,25.33 L34.71,25.54 L34.14,26.12 L33.93,26.90 L33.93,33.93 L34.14,34.71 L34.71,35.28 L35.49,35.49 L35.49,35.49 Z" fill="#86d633" stroke="#86d633" stroke-width="1" stroke-linejoin="round"/></svg>