<svg xmlns="http://www.w3.org/2000/svg" viewBox="-2.00 5.28 100.00 85.44"><path d="M95.90,53.96 L95.63,52.45 L94.87,51.16 L93.76,50.03 L92.42,49.01 L89.50,47.04 L88.17,45.98 L87.09,44.81 L85.95,43.02 L84.99,41.19 L83.19,37.67 L82.15,36.13 L80.87,34.83 L79.26,33.85 L77.20,33.25 L76.59,28.60 L75.19,24.11 L73.04,19.94 L70.20,16.20 L66.76,13.00 L62.82,10.44 L58.50,8.61 L53.92,7.54 L49.23,7.28 L44.95,7.53 L40.76,8.44 L36.75,9.97 L33.03,12.11 L29.68,14.79 L26.78,17.95 L24.41,21.52 L22.60,25.41 L18.14,26.36 L13.92,28.08 L10.07,30.52 L6.71,33.61 L3.95,37.23 L1.87,41.29 L0.54,45.65 L0.00,50.18 L0.57,54.68 L1.91,59.02 L3.98,63.05 L6.73,66.67 L10.05,69.76 L13.86,72.23 L18.05,73.99 L22.47,75.01 L27.00,75.24 L29.38,75.14 L73.11,75.14 L73.70,75.09 L74.27,74.97 L78.40,74.55 L82.38,73.34 L86.06,71.41 L89.30,68.81 L91.99,65.64 L94.04,62.02 L95.36,58.08 L95.90,53.96 Z" fill="#9461eb" stroke="#1e1e1e" stroke-width="1" stroke-linejoin="round"/><path d="M88.22,34.95 L88.64,35.00 L89.02,35.16 L89.36,35.42 L89.61,35.75 L89.77,36.14 L89.82,36.55 L89.82,52.97 L89.77,53.38 L89.61,53.77 L89.36,54.10 L89.02,54.36 L88.64,54.52 L88.22,54.57 L42.47,54.57 L42.06,54.52 L41.67,54.36 L41.34,54.10 L41.09,53.77 L40.93,53.38 L40.87,52.97 L40.87,36.55 L40.93,36.14 L41.09,35.75 L41.34,35.42 L41.67,35.16 L42.06,35.00 L42.47,34.95 L88.22,34.95 Z" fill="#005ba1" stroke="#1e1e1e" stroke-width="1" stroke-linejoin="round"/><path d="M83.40,22.65 L83.81,22.70 L84.20,22.86 L84.53,23.11 L84.78,23.45 L84.94,23.83 L85.00,24.25 L85.00,50.65 L84.94,51.06 L84.78,51.45 L84.53,51.78 L84.20,52.03 L83.81,52.19 L83.40,52.25 L47.31,52.25 L46.89,52.19 L46.51,52.03 L46.18,51.78 L45.92,51.45 L45.76,51.06 L45.71,50.65 L45.71,24.25 L45.76,23.83 L45.92,23.45 L46.18,23.11 L46.51,22.86 L46.89,22.70 L47.31,22.65 L83.40,22.65 Z" fill="#afeeff" stroke="#1e1e1e" stroke-width="1" stroke-linejoin="round"/><path d="M37.90,43.63 L92.80,43.63 L94.02,43.87 L95.06,44.56 L95.76,45.60 L96.00,46.83 L96.00,79.36 L96.00,79.36 L34.70,79.36 L34.70,79.36 L34.70,46.83 L34.95,45.60 L35.64,44.57 L36.68,43.87 L37.90,43.63 L37.90,43.63 Z" fill="#5ea0ef" stroke="#1e1e1e" stroke-width="1" stroke-linejoin="round"/><rect x="34.70" y="75.16" width="61.30" height="5.44" fill="#0078d4" stroke="#0078d4" stroke-width="1"/><path d="M86.43,65.63 L86.85,65.68 L87.23,65.84 L87.56,66.10 L87.82,66.43 L87.98,66.81 L88.03,67.23 L88.03,70.38 L87.98,70.80 L87.82,71.18 L87.56,71.52 L87.23,71.77 L86.85,71.93 L86.43,71.98 L44.25,71.98 L43.84,71.93 L43.45,71.77 L43.12,71.52 L42.87,71.18 L42.71,70.80 L42.65,70.38 L42.65,67.23 L42.71,66.81 L42.87,66.43 L43.12,66.10 L43.45,65.84 L43.84,65.68 L44.25,65.63 L86.43,65.63 Z" fill="#83b9f9" stroke="#83b9f9" stroke-width="1" stroke-linejoin="round"/><ellipse cx="85.57" cy="53.77" rx="1.52" ry="1.52" fill="#c3f1ff" stroke="#c3f1ff" stroke-width="1"/><path d="M45.71,66.73 L85.00,66.73 L85.00,66.73 L85.00,87.12 L84.78,87.92 L84.20,88.51 L83.40,88.72 L47.30,88.72 L46.50,88.51 L45.92,87.92 L45.70,87.12 L45.70,66.73 L45.71,66.73 Z" fill="#afeeff" stroke="#1e1e1e" stroke-width="1" stroke-linejoin="round"/></svg>