<svg xmlns="http://www.w3.org/2000/svg" viewBox="-2.00 -1.72 100.00 99.41"><path d="M96.00,51.29 L96.00,44.80 L95.74,43.59 L95.02,42.58 L93.95,41.95 L83.13,38.35 L82.57,38.01 L82.20,37.46 L79.87,31.40 L79.78,30.79 L79.93,30.19 L84.87,20.27 L85.19,19.07 L84.99,17.85 L84.31,16.81 L79.47,11.98 L78.43,11.30 L77.21,11.10 L76.01,11.41 L66.10,16.36 L65.50,16.51 L64.89,16.41 L58.81,14.07 L58.28,13.73 L57.94,13.20 L53.81,2.23 L53.17,1.21 L52.19,0.53 L51.01,0.28 L44.50,0.28 L43.30,0.53 L42.30,1.25 L41.66,2.30 L38.05,12.67 L37.75,13.19 L37.26,13.54 L31.16,16.35 L30.51,16.50 L29.86,16.35 L20.02,11.41 L18.82,11.09 L17.60,11.28 L16.55,11.95 L11.70,16.79 L11.02,17.84 L10.83,19.06 L11.14,20.26 L16.09,30.19 L16.25,30.79 L16.15,31.40 L13.80,37.49 L13.46,38.01 L12.93,38.35 L1.95,42.47 L0.93,43.11 L0.24,44.10 L0.00,45.28 L0.00,51.77 L0.26,52.98 L0.98,53.98 L2.05,54.61 L12.89,58.22 L13.45,58.56 L13.81,59.11 L16.15,65.17 L16.25,65.78 L16.09,66.38 L11.14,76.27 L10.81,77.46 L11.00,78.69 L11.67,79.73 L16.53,84.59 L17.57,85.26 L18.79,85.45 L19.99,85.13 L29.88,80.18 L30.48,80.02 L31.09,80.12 L37.20,82.46 L37.72,82.80 L38.06,83.32 L42.15,93.78 L42.79,94.78 L43.78,95.45 L44.94,95.69 L51.49,95.69 L52.71,95.43 L53.71,94.71 L54.34,93.64 L57.95,82.82 L58.29,82.25 L58.84,81.89 L64.89,79.56 L65.50,79.46 L66.10,79.62 L76.01,84.55 L77.21,84.87 L78.43,84.67 L79.47,83.99 L84.27,79.19 L84.95,78.13 L85.14,76.89 L84.80,75.68 L79.93,66.37 L79.76,65.76 L79.86,65.14 L82.20,59.06 L82.54,58.53 L83.07,58.19 L94.04,54.09 L95.06,53.45 L95.75,52.47 L96.00,51.29 Z" fill="#006ec2" stroke="#1e1e1e" stroke-width="1" stroke-linejoin="round"/><path d="M48.07,72.40 L43.67,72.00 L39.42,70.82 L35.44,68.88 L31.89,66.27 L28.86,63.05 L26.46,59.34 L24.77,55.26 L23.84,50.94 L23.71,46.53 L24.37,42.16 L25.81,37.99 L27.98,34.14 L30.81,30.75 L34.20,27.92 L38.05,25.75 L42.22,24.31 L46.59,23.64 L51.00,23.78 L55.32,24.70 L59.40,26.39 L63.11,28.79 L66.33,31.82 L68.94,35.38 L70.88,39.35 L72.06,43.60 L72.46,48.00 L72.09,52.24 L70.99,56.34 L69.19,60.20 L66.76,63.68 L63.75,66.69 L60.27,69.13 L56.41,70.93 L52.31,72.03 L48.07,72.40 L48.07,72.40 Z" fill="#ffffff" stroke="#1e1e1e" stroke-width="1" stroke-linejoin="round"/><ellipse cx="48.07" cy="48.00" rx="24.40" ry="24.40" fill="#004b8b" stroke="#1e1e1e" stroke-width="1"/><path d="M68.12,28.48 L66.93,27.88 L62.93,26.28 L58.72,25.39 L54.41,25.24 L50.14,25.84 L46.04,27.17 L43.00,27.73 L40.08,28.73 L37.33,30.14 L36.45,30.38 L35.58,30.12 L34.97,29.45 L33.09,25.71 L32.91,24.89 L33.14,24.08 L33.73,23.49 L37.63,21.40 L41.83,20.02 L46.21,19.37 L50.63,19.50 L54.96,20.38 L59.08,21.99 L62.36,23.77 L65.39,25.95 L68.12,28.48 L68.12,28.48 Z" fill="#87eaff" stroke="#1e1e1e" stroke-width="1" stroke-linejoin="round"/><path d="M66.89,62.69 L61.68,52.31 L61.51,51.39 L61.86,50.52 L62.61,49.96 L63.55,49.89 L66.66,50.54 L67.21,47.14 L67.10,43.69 L66.34,40.32 L64.95,37.16 L62.98,34.33 L60.32,31.57 L57.16,29.39 L53.63,27.90 L49.88,27.15 L46.04,27.17 L50.14,25.84 L54.41,25.24 L58.72,25.39 L62.93,26.28 L66.93,27.88 L68.12,28.48 L70.74,31.96 L72.77,35.82 L74.14,39.95 L74.83,44.25 L74.82,48.61 L74.55,52.18 L75.21,52.31 L77.72,52.85 L78.54,53.29 L79.01,54.10 L78.98,55.04 L78.45,55.81 L71.31,61.73 L69.48,63.25 L68.55,63.63 L67.58,63.42 L66.89,62.69 Z" fill="#49ddf7" stroke="#1e1e1e" stroke-width="1" stroke-linejoin="round"/><path d="M27.30,67.52 L28.50,68.12 L32.50,69.72 L36.71,70.61 L41.02,70.76 L45.29,70.16 L49.39,68.83 L52.43,68.27 L55.35,67.27 L58.10,65.86 L58.98,65.62 L59.85,65.88 L60.46,66.55 L62.34,70.29 L62.52,71.11 L62.29,71.92 L61.70,72.51 L57.80,74.60 L53.60,75.98 L49.22,76.63 L44.80,76.50 L40.46,75.62 L36.35,74.01 L33.07,72.23 L30.04,70.05 L27.30,67.52 L27.30,67.52 Z" fill="#87eaff" stroke="#1e1e1e" stroke-width="1" stroke-linejoin="round"/><path d="M28.54,33.31 L33.74,43.69 L33.91,44.61 L33.57,45.48 L32.81,46.04 L31.88,46.11 L28.76,45.46 L28.21,48.86 L28.32,52.31 L29.09,55.68 L30.48,58.84 L32.45,61.67 L35.10,64.44 L38.26,66.61 L41.79,68.10 L45.55,68.85 L49.39,68.83 L45.29,70.16 L41.02,70.76 L36.71,70.61 L32.50,69.72 L28.50,68.12 L27.30,67.52 L24.68,64.04 L22.66,60.18 L21.28,56.05 L20.59,51.75 L20.61,47.39 L20.88,43.82 L20.22,43.69 L17.71,43.15 L16.88,42.71 L16.41,41.90 L16.45,40.96 L16.98,40.19 L24.12,34.27 L25.95,32.75 L26.87,32.37 L27.85,32.58 L28.54,33.31 Z" fill="#49ddf7" stroke="#1e1e1e" stroke-width="1" stroke-linejoin="round"/></svg>