<svg xmlns="http://www.w3.org/2000/svg" viewBox="3.64 0.82 94.20 100.00"><path d="M78.53,90.65 L80.71,90.30 L82.68,89.30 L84.25,87.75 L85.27,85.78 L85.63,83.60 L85.65,83.18 L85.63,82.76 L85.00,78.59 L84.12,74.54 L83.02,70.65 L81.67,66.92 L80.08,63.38 L78.25,60.04 L76.17,56.93 L73.85,54.06 L71.28,51.46 L68.46,49.14 L65.38,47.13 L62.05,45.43 L58.47,44.08 L54.63,43.09 L50.53,42.49 L46.17,42.28 L41.80,42.46 L37.66,42.99 L33.76,43.87 L30.11,45.08 L26.70,46.62 L23.53,48.48 L20.61,50.65 L17.93,53.12 L15.51,55.89 L13.33,58.94 L11.41,62.27 L9.74,65.87 L8.33,69.74 L7.17,73.85 L6.28,78.21 L5.64,82.81 L5.78,85.03 L6.59,87.09 L8.00,88.81 L9.86,90.02 L12.01,90.59 L78.53,90.59 L78.53,90.65 Z" fill="#29b9dd" stroke="#1e1e1e" stroke-width="1" stroke-linejoin="round"/><path d="M45.83,47.58 L41.62,47.15 L37.57,45.93 L33.82,43.97 L45.66,75.31 L57.61,44.20 L53.92,46.04 L49.94,47.18 L45.83,47.58 L45.83,47.58 Z" fill="#ffffff" stroke="#1e1e1e" stroke-width="1" stroke-linejoin="round" opacity="0.8"/><ellipse cx="45.83" cy="25.20" rx="22.38" ry="22.38" fill="#29b9dd" stroke="#1e1e1e" stroke-width="1"/><path d="M95.83,73.29 L95.66,75.66 L95.16,77.98 L94.38,80.22 L93.35,82.37 L92.12,84.43 L90.73,86.40 L87.63,89.99 L84.37,93.07 L81.28,95.59 L76.89,98.65 L76.24,98.82 L75.60,98.65 L71.07,95.50 L67.93,92.96 L64.63,89.86 L61.50,86.28 L60.11,84.32 L58.87,82.28 L57.84,80.14 L57.05,77.92 L56.55,75.64 L56.37,73.29 L56.37,57.61 L56.72,56.76 L57.56,56.37 L61.46,56.03 L64.27,55.35 L66.32,54.44 L67.92,53.43 L69.37,52.43 L70.99,51.57 L73.09,50.96 L75.99,50.74 L78.89,50.96 L80.99,51.57 L82.60,52.43 L84.04,53.43 L85.62,54.44 L87.66,55.35 L90.47,56.03 L94.37,56.37 L95.21,56.76 L95.55,57.61 L95.83,73.29 Z" fill="#005ba1" stroke="#1e1e1e" stroke-width="1" stroke-linejoin="round"/><path d="M93.97,73.29 L93.81,75.48 L93.36,77.61 L92.64,79.67 L91.70,81.65 L90.57,83.54 L89.30,85.35 L86.46,88.65 L83.47,91.48 L80.63,93.79 L76.61,96.57 L76.02,96.74 L75.43,96.57 L71.41,93.81 L68.57,91.52 L65.58,88.71 L62.74,85.42 L61.47,83.62 L60.34,81.72 L59.40,79.73 L58.68,77.65 L58.23,75.50 L58.06,73.29 L58.06,59.02 L58.36,58.23 L59.14,57.90 L62.76,57.67 L65.36,57.08 L67.24,56.25 L68.69,55.30 L70.00,54.35 L71.47,53.52 L73.39,52.93 L76.05,52.71 L78.71,52.92 L80.62,53.48 L82.09,54.28 L83.40,55.20 L84.85,56.13 L86.73,56.97 L89.34,57.59 L92.96,57.90 L93.74,58.23 L94.03,59.02 L93.97,73.29 Z" fill="#3a9de6" stroke="#1e1e1e" stroke-width="1" stroke-linejoin="round"/></svg>