<svg xmlns="http://www.w3.org/2000/svg" viewBox="3.33 0.67 89.33 94.82"><path d="M74.29,85.76 L76.36,85.43 L78.23,84.49 L79.71,83.02 L80.67,81.16 L81.01,79.09 L81.03,78.69 L81.01,78.29 L80.41,74.35 L79.59,70.52 L78.54,66.84 L77.27,63.31 L75.76,59.96 L74.03,56.80 L72.06,53.86 L69.87,51.15 L67.43,48.68 L64.76,46.49 L61.86,44.58 L58.71,42.98 L55.32,41.71 L51.68,40.77 L47.81,40.20 L43.68,40.00 L39.54,40.17 L35.63,40.67 L31.94,41.50 L28.49,42.65 L25.26,44.10 L22.26,45.86 L19.50,47.91 L16.97,50.25 L14.67,52.87 L12.61,55.76 L10.80,58.91 L9.22,62.32 L7.88,65.97 L6.79,69.87 L5.94,74.00 L5.33,78.35 L5.47,80.44 L6.24,82.40 L7.57,84.02 L9.33,85.16 L11.36,85.71 L74.29,85.71 L74.29,85.76 Z" fill="#29b9dd" stroke="#1e1e1e" stroke-width="1" stroke-linejoin="round"/><path d="M43.36,45.01 L39.38,44.61 L35.55,43.46 L32.00,41.60 L43.20,71.25 L54.51,41.81 L51.01,43.56 L47.25,44.64 L43.36,45.01 L43.36,45.01 Z" fill="#ffffff" stroke="#1e1e1e" stroke-width="1" stroke-linejoin="round" opacity="0.8"/><ellipse cx="43.36" cy="23.84" rx="21.17" ry="21.17" fill="#29b9dd" stroke="#1e1e1e" stroke-width="1"/><path d="M90.67,69.33 L90.50,71.58 L90.03,73.77 L89.29,75.89 L88.32,77.93 L87.15,79.88 L85.84,81.74 L82.91,85.13 L79.82,88.06 L76.90,90.44 L72.75,93.33 L72.13,93.49 L71.52,93.33 L67.24,90.35 L64.27,87.94 L61.15,85.01 L58.19,81.62 L56.86,79.78 L55.69,77.84 L54.72,75.82 L53.97,73.72 L53.50,71.56 L53.33,69.33 L53.33,54.51 L53.66,53.70 L54.45,53.33 L58.14,53.01 L60.81,52.36 L62.75,51.51 L64.25,50.55 L65.63,49.60 L67.16,48.79 L69.15,48.22 L71.89,48.00 L74.64,48.22 L76.62,48.79 L78.14,49.60 L79.51,50.55 L81.00,51.51 L82.93,52.36 L85.59,53.01 L89.28,53.33 L90.08,53.70 L90.40,54.51 L90.67,69.33 Z" fill="#005ba1" stroke="#1e1e1e" stroke-width="1" stroke-linejoin="round"/><path d="M88.91,69.33 L88.75,71.41 L88.32,73.42 L87.64,75.37 L86.75,77.25 L85.69,79.04 L84.48,80.75 L81.79,83.87 L78.97,86.55 L76.28,88.73 L72.48,91.36 L71.92,91.52 L71.36,91.36 L67.56,88.75 L64.87,86.59 L62.05,83.93 L59.36,80.82 L58.15,79.11 L57.09,77.31 L56.20,75.43 L55.52,73.47 L55.09,71.43 L54.93,69.33 L54.93,55.84 L55.21,55.09 L55.95,54.77 L59.37,54.56 L61.84,54.01 L63.62,53.22 L64.99,52.32 L66.23,51.42 L67.62,50.63 L69.43,50.08 L71.95,49.87 L74.46,50.07 L76.28,50.60 L77.67,51.35 L78.91,52.22 L80.28,53.10 L82.06,53.89 L84.52,54.49 L87.95,54.77 L88.68,55.09 L88.96,55.84 L88.91,69.33 Z" fill="#3a9de6" stroke="#1e1e1e" stroke-width="1" stroke-linejoin="round"/></svg>