<svg xmlns="http://www.w3.org/2000/svg" viewBox="-2.00 16.51 100.00 62.99"><path d="M96.00,56.16 L95.54,52.70 L94.40,49.40 L92.62,46.40 L90.28,43.81 L87.47,41.74 L84.30,40.27 L80.91,39.47 L80.31,35.25 L78.91,31.22 L76.75,27.55 L73.93,24.36 L70.54,21.77 L66.71,19.90 L62.60,18.79 L58.35,18.51 L54.42,18.81 L50.61,19.79 L47.03,21.42 L43.79,23.65 L40.98,26.41 L38.70,29.62 L37.01,33.17 L33.38,33.93 L29.94,35.32 L26.80,37.31 L24.06,39.82 L21.82,42.78 L20.14,46.09 L19.08,49.64 L18.67,53.33 L19.27,57.39 L20.64,61.25 L22.73,64.78 L25.45,67.85 L28.71,70.34 L32.38,72.16 L36.34,73.24 L40.43,73.55 L77.76,73.55 L78.72,73.55 L82.09,73.17 L85.32,72.15 L88.29,70.53 L90.90,68.37 L93.04,65.75 L94.65,62.76 L95.64,59.53 L96.00,56.16 Z" fill="#3990e4" stroke="#1e1e1e" stroke-width="1" stroke-linejoin="round"/><path d="M79.47,59.84 L79.00,56.29 L77.84,52.90 L76.02,49.81 L73.62,47.14 L70.74,45.01 L67.49,43.50 L64.00,42.67 L63.36,38.35 L61.90,34.24 L59.68,30.49 L56.77,27.25 L53.29,24.62 L49.37,22.72 L45.15,21.61 L40.80,21.33 L36.76,21.60 L32.83,22.57 L29.13,24.21 L25.77,26.48 L22.86,29.29 L20.49,32.57 L18.72,36.21 L15.03,37.00 L11.54,38.43 L8.36,40.45 L5.58,42.99 L3.29,45.99 L1.56,49.35 L0.46,52.95 L0.00,56.69 L0.58,60.89 L1.96,64.89 L4.10,68.55 L6.90,71.72 L10.27,74.29 L14.08,76.14 L18.17,77.23 L22.40,77.49 L24.37,77.49 L60.59,77.49 L61.55,77.49 L65.00,77.14 L68.33,76.13 L71.40,74.50 L74.09,72.31 L76.32,69.64 L78.00,66.60 L79.06,63.29 L79.47,59.84 Z" fill="#30d0f2" stroke="#1e1e1e" stroke-width="1" stroke-linejoin="round"/><path d="M25.71,49.97 L30.24,49.97 L30.73,50.07 L31.15,50.35 L41.81,61.01 L42.22,61.95 L41.81,62.88 L27.31,77.12 L26.89,77.40 L26.40,77.49 L22.08,77.49 L21.26,77.02 L20.96,76.12 L21.33,75.25 L33.65,62.77 L34.05,61.87 L33.65,60.96 L24.80,52.16 L24.42,51.25 L24.80,50.35 L25.71,49.97 Z" fill="#ffffff" stroke="#1e1e1e" stroke-width="1" stroke-linejoin="round"/><path d="M44.00,32.00 L48.64,32.00 L49.13,32.12 L49.55,32.43 L57.71,40.69 L58.08,41.60 L57.71,42.51 L47.04,52.69 L46.62,52.97 L46.13,53.07 L42.24,53.07 L41.36,52.68 L40.97,51.79 L41.28,50.88 L49.44,42.67 L49.80,41.76 L49.44,40.85 L43.09,34.45 L42.36,33.77 L42.32,32.77 L43.00,32.04 L44.00,32.00 L44.00,32.00 Z" fill="#ffffff" stroke="#1e1e1e" stroke-width="1" stroke-linejoin="round"/><path d="M53.55,53.33 L58.08,53.33 L58.56,53.44 L58.99,53.71 L65.65,60.37 L66.01,61.28 L65.65,62.19 L56.00,71.95 L55.59,72.23 L55.09,72.32 L50.72,72.32 L49.81,71.95 L49.44,71.04 L49.81,70.13 L57.39,62.45 L57.74,61.55 L57.39,60.64 L52.64,55.79 L52.25,54.95 L52.53,54.06 L53.33,53.60 L53.55,53.33 Z" fill="#ffffff" stroke="#1e1e1e" stroke-width="1" stroke-linejoin="round"/></svg>