<svg xmlns="http://www.w3.org/2000/svg" viewBox="-1.36 5.95 98.61 84.11"><path d="M52.80,43.84 L52.80,55.68 L57.23,55.68 L57.23,54.24 L57.35,53.29 L57.71,52.37 L58.38,51.53 L59.25,50.93 L60.01,50.67 L60.80,50.56 L61.65,50.67 L62.67,51.09 L63.52,51.84 L65.92,54.61 L67.34,53.98 L68.69,53.19 L69.97,52.26 L71.15,51.20 L73.00,48.91 L74.37,46.33 L75.23,43.54 L75.52,40.59 L75.32,39.33 L74.80,38.21 L74.04,37.20 L73.09,36.27 L70.94,34.48 L68.91,32.59 L67.43,30.50 L66.21,28.46 L65.55,27.57 L64.77,26.83 L63.83,26.29 L62.67,25.97 L62.50,24.13 L62.15,22.32 L61.64,20.56 L60.97,18.87 L60.13,17.25 L59.15,15.71 L58.02,14.28 L56.75,12.96 L55.35,11.77 L53.85,10.74 L52.27,9.86 L50.61,9.13 L48.88,8.58 L47.11,8.19 L45.30,7.98 L43.47,7.95 L40.49,8.14 L37.61,8.77 L34.87,9.85 L32.32,11.36 L30.00,13.25 L28.03,15.47 L26.41,17.98 L25.17,20.75 L22.08,21.42 L19.19,22.62 L16.55,24.31 L14.24,26.45 L12.38,28.93 L10.97,31.69 L10.05,34.65 L9.65,37.76 L12.76,36.77 L15.83,35.40 L18.90,33.65 L21.97,31.52 L23.47,30.73 L25.12,30.45 L26.77,30.73 L28.27,31.52 L30.66,33.20 L33.05,34.65 L35.44,35.87 L37.84,36.87 L40.25,37.63 L42.67,38.18 L45.11,38.51 L47.57,38.61 L48.62,38.72 L49.60,39.02 L50.48,39.50 L51.24,40.14 L51.87,40.91 L52.34,41.79 L52.64,42.75 L52.75,43.79 L52.75,43.79 L52.80,43.84 Z" fill="#1983db" stroke="#1e1e1e" stroke-width="1" stroke-linejoin="round"/><path d="M61.12,53.92 L69.12,63.25 L69.39,64.05 L69.12,64.85 L61.12,74.19 L60.91,74.35 L60.64,74.35 L60.43,74.19 L60.37,73.92 L60.37,68.21 L60.37,68.00 L60.27,67.84 L60.11,67.73 L59.95,67.73 L46.13,67.73 L46.03,67.73 L45.92,67.63 L45.87,67.52 L45.87,67.36 L45.87,61.07 L45.97,60.80 L46.19,60.69 L60.00,60.69 L60.16,60.69 L60.32,60.59 L60.43,60.43 L60.43,60.21 L60.43,54.45 L60.48,54.19 L60.69,54.03 L60.96,54.03 L61.17,54.19 L61.17,54.19 L61.12,53.92 Z" fill="#005ba1" stroke="#1e1e1e" stroke-width="1" stroke-linejoin="round"/><path d="M0.64,43.84 L0.80,43.05 L1.23,42.41 L1.88,41.97 L2.67,41.81 L5.38,41.69 L8.07,41.33 L10.74,40.73 L13.40,39.89 L16.04,38.80 L18.67,37.47 L21.29,35.90 L23.89,34.08 L24.49,33.78 L25.12,33.68 L25.75,33.78 L26.35,34.08 L28.95,35.90 L31.57,37.47 L34.20,38.80 L36.84,39.89 L39.50,40.73 L42.17,41.33 L44.86,41.69 L47.57,41.81 L48.36,41.97 L49.01,42.41 L49.44,43.05 L49.60,43.84 L49.60,58.13 L49.51,60.64 L49.22,63.06 L48.75,65.40 L48.10,67.65 L47.25,69.82 L46.23,71.89 L45.01,73.89 L43.61,75.79 L42.03,77.61 L40.27,79.34 L38.32,80.99 L36.19,82.55 L33.88,84.02 L31.39,85.40 L25.87,87.89 L25.12,88.05 L24.37,87.89 L18.85,85.40 L16.36,84.02 L14.05,82.55 L11.92,80.99 L9.97,79.34 L8.21,77.61 L6.63,75.79 L5.23,73.89 L4.01,71.89 L2.99,69.82 L2.14,67.65 L1.49,65.40 L1.02,63.06 L0.73,60.64 L0.64,58.13 L0.64,43.84 Z" fill="#1198be" stroke="#1e1e1e" stroke-width="1" stroke-linejoin="round"/><path d="M38.13,67.09 L30.13,57.76 L29.87,56.96 L30.13,56.16 L38.13,46.83 L38.35,46.67 L38.61,46.67 L38.83,46.83 L38.88,47.09 L38.88,52.85 L38.99,53.23 L39.31,53.39 L50.29,53.39 L50.40,53.39 L50.51,53.49 L50.56,53.60 L50.56,53.76 L50.56,60.00 L50.45,60.27 L50.24,60.37 L39.25,60.37 L38.93,60.53 L38.83,60.91 L38.83,66.67 L38.77,66.93 L38.56,67.15 L38.29,67.15 L38.08,66.99 L38.08,66.99 L38.13,67.09 Z" fill="#ffffff" stroke="#1e1e1e" stroke-width="1" stroke-linejoin="round"/><path d="M91.52,43.41 L89.61,41.67 L87.43,40.29 L85.05,39.30 L82.51,38.72 L82.34,36.92 L81.99,35.15 L81.48,33.44 L80.81,31.79 L79.97,30.22 L78.99,28.72 L77.86,27.32 L76.59,26.03 L75.19,24.86 L73.69,23.84 L72.11,22.98 L70.45,22.27 L68.72,21.73 L66.95,21.35 L65.14,21.15 L63.31,21.12 L60.36,21.30 L57.49,21.91 L54.74,22.96 L52.16,24.43 L49.87,26.25 L47.89,28.40 L46.26,30.83 L45.01,33.49 L42.85,33.90 L40.76,34.56 L38.77,35.46 L36.91,36.59 L39.55,37.53 L42.20,38.19 L44.87,38.59 L47.57,38.72 L48.62,38.83 L49.60,39.13 L50.48,39.61 L51.24,40.25 L51.87,41.01 L52.34,41.89 L52.64,42.86 L52.75,43.89 L52.75,57.39 L57.17,57.39 L57.17,54.29 L57.29,53.34 L57.65,52.43 L58.33,51.59 L59.20,50.99 L59.95,50.72 L60.75,50.61 L61.60,50.72 L62.61,51.15 L63.47,51.89 L71.47,61.23 L72.23,62.56 L72.48,64.05 L72.21,65.57 L71.47,66.88 L71.20,67.15 L79.68,67.15 L80.48,67.15 L83.35,66.86 L86.07,66.03 L88.59,64.69 L90.83,62.88 L92.68,60.70 L94.06,58.23 L94.93,55.55 L95.25,52.75 L94.95,50.19 L94.20,47.74 L93.03,45.46 L91.47,43.41 L91.47,43.41 L91.52,43.41 Z" fill="#7fe0ff" stroke="#1e1e1e" stroke-width="1" stroke-linejoin="round"/></svg>