<svg xmlns="http://www.w3.org/2000/svg" viewBox="-1.35 6.06 100.00 85.28"><path d="M53.57,44.48 L53.57,56.50 L58.07,56.50 L58.07,55.03 L58.19,54.07 L58.55,53.14 L59.24,52.29 L60.12,51.68 L60.89,51.41 L61.69,51.30 L62.56,51.41 L63.59,51.84 L64.45,52.60 L66.89,55.41 L68.32,54.77 L69.70,53.97 L71.00,53.02 L72.19,51.95 L74.07,49.63 L75.46,47.01 L76.33,44.17 L76.63,41.18 L76.42,39.90 L75.90,38.77 L75.12,37.75 L74.16,36.80 L71.98,34.99 L69.92,33.06 L68.42,30.94 L67.18,28.88 L66.51,27.98 L65.72,27.23 L64.77,26.67 L63.59,26.35 L63.41,24.48 L63.07,22.65 L62.55,20.86 L61.86,19.14 L61.02,17.50 L60.02,15.94 L58.87,14.49 L57.58,13.15 L56.16,11.95 L54.64,10.89 L53.03,10.00 L51.35,9.27 L49.60,8.70 L47.80,8.31 L45.96,8.10 L44.10,8.06 L41.09,8.25 L38.16,8.90 L35.38,10.00 L32.79,11.53 L30.44,13.45 L28.44,15.70 L26.80,18.25 L25.54,21.05 L22.41,21.73 L19.47,22.95 L16.79,24.67 L14.45,26.84 L12.56,29.36 L11.13,32.15 L10.19,35.16 L9.79,38.31 L12.94,37.31 L16.07,35.92 L19.18,34.14 L22.30,31.98 L23.81,31.18 L25.49,30.90 L27.17,31.18 L28.68,31.98 L31.11,33.69 L33.54,35.16 L35.96,36.40 L38.39,37.41 L40.84,38.19 L43.29,38.74 L45.77,39.07 L48.27,39.18 L49.34,39.29 L50.32,39.60 L51.22,40.08 L51.99,40.73 L52.63,41.51 L53.11,42.40 L53.41,43.38 L53.52,44.43 L53.52,44.43 L53.57,44.48 Z" fill="#1983db" stroke="#1e1e1e" stroke-width="1" stroke-linejoin="round"/><path d="M62.02,54.71 L70.13,64.18 L70.40,64.99 L70.13,65.80 L62.02,75.27 L61.80,75.44 L61.53,75.44 L61.31,75.27 L61.26,75.00 L61.26,69.21 L61.26,69.00 L61.15,68.83 L60.99,68.73 L60.83,68.73 L46.81,68.73 L46.70,68.73 L46.59,68.62 L46.54,68.51 L46.54,68.35 L46.54,61.96 L46.65,61.69 L46.86,61.58 L60.88,61.58 L61.04,61.58 L61.20,61.47 L61.31,61.31 L61.31,61.10 L61.31,55.25 L61.37,54.98 L61.58,54.82 L61.85,54.82 L62.07,54.98 L62.07,54.98 L62.02,54.71 Z" fill="#005ba1" stroke="#1e1e1e" stroke-width="1" stroke-linejoin="round"/><path d="M0.65,44.48 L0.81,43.68 L1.25,43.03 L1.91,42.59 L2.71,42.43 L5.46,42.30 L8.19,41.94 L10.90,41.33 L13.60,40.47 L16.28,39.37 L18.95,38.02 L21.60,36.42 L24.24,34.58 L24.85,34.28 L25.49,34.17 L26.13,34.28 L26.73,34.58 L29.38,36.42 L32.03,38.02 L34.70,39.37 L37.38,40.47 L40.08,41.33 L42.79,41.94 L45.52,42.30 L48.27,42.43 L49.07,42.59 L49.72,43.03 L50.17,43.68 L50.33,44.48 L50.33,58.99 L50.23,61.53 L49.94,63.99 L49.47,66.36 L48.80,68.64 L47.95,70.84 L46.90,72.95 L45.67,74.97 L44.25,76.90 L42.65,78.75 L40.86,80.51 L38.88,82.18 L36.72,83.76 L34.38,85.25 L31.85,86.65 L26.25,89.18 L25.49,89.34 L24.73,89.18 L19.13,86.65 L16.60,85.25 L14.26,83.76 L12.10,82.18 L10.12,80.51 L8.33,78.75 L6.72,76.90 L5.31,74.97 L4.07,72.95 L3.03,70.84 L2.17,68.64 L1.51,66.36 L1.03,63.99 L0.75,61.53 L0.65,58.99 L0.65,44.48 Z" fill="#1198be" stroke="#1e1e1e" stroke-width="1" stroke-linejoin="round"/><path d="M38.69,68.08 L30.57,58.61 L30.30,57.79 L30.57,56.98 L38.69,47.51 L38.91,47.35 L39.18,47.35 L39.40,47.51 L39.45,47.78 L39.45,53.63 L39.56,54.01 L39.88,54.17 L51.03,54.17 L51.14,54.17 L51.25,54.28 L51.30,54.39 L51.30,54.55 L51.30,60.88 L51.19,61.15 L50.98,61.26 L39.83,61.26 L39.50,61.42 L39.40,61.80 L39.40,67.64 L39.34,67.91 L39.13,68.13 L38.85,68.13 L38.64,67.97 L38.64,67.97 L38.69,68.08 Z" fill="#ffffff" stroke="#1e1e1e" stroke-width="1" stroke-linejoin="round"/><path d="M92.86,44.05 L90.92,42.28 L88.71,40.88 L86.29,39.87 L83.72,39.29 L83.54,37.46 L83.20,35.67 L82.68,33.93 L81.99,32.26 L81.15,30.66 L80.15,29.14 L79.00,27.72 L77.71,26.41 L76.29,25.22 L74.77,24.19 L73.17,23.32 L71.48,22.60 L69.73,22.05 L67.93,21.67 L66.09,21.46 L64.23,21.43 L61.25,21.61 L58.34,22.23 L55.54,23.29 L52.92,24.78 L50.60,26.63 L48.59,28.82 L46.94,31.28 L45.67,33.98 L43.47,34.40 L41.36,35.07 L39.34,35.98 L37.45,37.12 L40.13,38.08 L42.82,38.75 L45.53,39.15 L48.27,39.29 L49.34,39.40 L50.32,39.70 L51.22,40.19 L51.99,40.84 L52.63,41.62 L53.11,42.51 L53.41,43.49 L53.52,44.54 L53.52,58.23 L58.01,58.23 L58.01,55.09 L58.13,54.12 L58.50,53.20 L59.18,52.34 L60.07,51.73 L60.83,51.46 L61.64,51.36 L62.50,51.46 L63.53,51.90 L64.40,52.65 L72.51,62.12 L73.29,63.48 L73.54,64.99 L73.27,66.53 L72.51,67.86 L72.24,68.13 L80.85,68.13 L81.66,68.13 L84.57,67.84 L87.33,67.00 L89.89,65.64 L92.16,63.80 L94.04,61.59 L95.44,59.09 L96.32,56.37 L96.65,53.52 L96.34,50.92 L95.58,48.44 L94.40,46.13 L92.81,44.05 L92.81,44.05 L92.86,44.05 Z" fill="#7fe0ff" stroke="#1e1e1e" stroke-width="1" stroke-linejoin="round"/></svg>