<svg xmlns="http://www.w3.org/2000/svg" viewBox="6.47 -2.00 83.05 100.00"><path d="M87.52,21.35 L87.52,63.85 L50.80,85.19 L50.80,42.64 L87.52,21.35 Z" fill="#32bedd" stroke="#1e1e1e" stroke-width="1" stroke-linejoin="round"/><path d="M87.52,21.35 L50.81,42.70 L14.08,21.35 L50.81,0.00 L87.52,21.35 Z" fill="#9cebff" stroke="#1e1e1e" stroke-width="1" stroke-linejoin="round"/><path d="M50.80,42.70 L50.80,85.19 L14.08,63.85 L14.08,21.35 L50.80,42.70 Z" fill="#50e6ff" stroke="#1e1e1e" stroke-width="1" stroke-linejoin="round"/><path d="M14.08,63.85 L50.80,42.64 L50.80,85.19 L14.08,63.85 Z" fill="#9cebff" stroke="#1e1e1e" stroke-width="1" stroke-linejoin="round"/><path d="M87.52,63.85 L50.80,42.64 L50.80,85.19 L87.52,63.85 Z" fill="#50e6ff" stroke="#1e1e1e" stroke-width="1" stroke-linejoin="round"/><path d="M69.80,78.29 L52.02,95.74 L51.38,96.00 L50.75,95.73 L50.49,95.09 L50.58,85.39 L50.58,84.80 L46.61,84.63 L42.68,84.20 L38.81,83.51 L35.03,82.56 L31.38,81.37 L27.89,79.93 L24.59,78.24 L21.51,76.31 L18.67,74.15 L16.12,71.75 L13.89,69.12 L11.99,66.27 L10.47,63.20 L9.36,59.90 L8.68,56.40 L8.47,52.68 L10.15,54.71 L12.93,57.24 L16.77,60.02 L21.63,62.83 L24.44,64.17 L27.49,65.44 L30.79,66.59 L34.32,67.61 L38.08,68.47 L42.07,69.12 L46.29,69.56 L50.72,69.74 L50.72,69.57 L50.81,59.87 L51.08,59.23 L51.71,58.97 L52.35,59.24 L69.80,77.03 L70.06,77.66 L69.80,78.29 L69.80,78.29 Z" fill="#773adc" stroke="#1e1e1e" stroke-width="1" stroke-linejoin="round"/></svg>