<svg xmlns="http://www.w3.org/2000/svg" viewBox="1.15 -0.88 93.71 100.59"><path d="M92.85,44.80 L92.33,40.78 L91.01,36.96 L88.96,33.47 L86.24,30.46 L82.98,28.06 L79.30,26.37 L75.36,25.44 L74.80,21.08 L73.49,16.88 L71.48,12.96 L68.82,9.46 L65.59,6.46 L61.90,4.07 L57.85,2.35 L53.57,1.36 L49.17,1.12 L44.58,1.44 L40.12,2.57 L35.93,4.45 L32.12,7.04 L28.83,10.25 L26.15,13.99 L24.16,18.13 L20.01,19.02 L16.07,20.62 L12.49,22.90 L9.36,25.77 L6.79,29.16 L4.86,32.94 L3.64,37.01 L3.15,41.23 L3.68,45.44 L4.94,49.50 L6.88,53.28 L9.44,56.67 L12.56,59.56 L16.13,61.87 L20.04,63.52 L24.18,64.47 L28.43,64.69 L29.52,64.73 L30.61,64.69 L71.52,64.69 L72.05,64.74 L72.59,64.69 L76.49,64.30 L80.24,63.16 L83.71,61.32 L86.76,58.86 L89.28,55.86 L91.18,52.42 L92.38,48.69 L92.85,44.80 Z" fill="#3990e4" stroke="#1e1e1e" stroke-width="1" stroke-linejoin="round"/><path d="M43.41,85.33 L43.41,82.13 L43.41,82.13 L40.16,81.01 L39.31,78.83 L40.96,75.52 L40.96,75.15 L39.95,74.13 L38.72,72.91 L38.29,72.91 L35.09,74.51 L32.91,73.92 L31.52,70.35 L28.37,70.35 L28.37,70.35 L27.31,73.60 L24.91,74.67 L21.33,72.64 L18.99,74.67 L18.99,75.09 L20.59,78.24 L19.68,80.43 L16.00,82.03 L16.00,85.33 L16.48,85.33 L19.84,86.45 L20.75,88.64 L19.04,92.32 L21.28,94.56 L21.71,94.56 L24.91,92.96 L27.09,93.87 L28.48,97.71 L31.63,97.71 L31.63,97.23 L32.75,93.87 L34.88,92.96 L38.61,94.67 L40.85,92.43 L40.85,92.00 L39.25,88.85 L39.84,86.61 L43.41,85.33 Z" fill="#76bc2d" stroke="#76bc2d" stroke-width="1" stroke-linejoin="round"/><path d="M30.03,88.27 L28.16,87.88 L26.62,86.75 L25.69,85.09 L25.53,83.18 L26.19,81.39 L27.53,80.03 L29.32,79.36 L31.22,79.48 L32.90,80.39 L34.05,81.92 L34.45,83.79 L34.45,83.79 L34.06,85.42 L33.09,86.80 L31.68,87.72 L30.03,88.05 L30.03,88.27 Z" fill="#ffffff" stroke="#ffffff" stroke-width="1" stroke-linejoin="round"/><path d="M92.16,67.41 L92.16,61.17 L91.84,60.91 L85.33,58.67 L83.68,54.40 L86.99,48.00 L87.31,47.31 L85.33,45.17 L82.99,42.67 L82.13,43.09 L75.89,46.29 L71.63,45.07 L68.91,38.13 L62.72,38.13 L62.40,38.45 L60.27,44.80 L55.89,46.45 L48.69,43.04 L44.32,47.41 L44.75,48.27 L48.00,54.45 L46.24,58.72 L38.72,61.44 L38.72,67.68 L39.63,67.95 L46.24,70.13 L48.00,74.67 L44.59,81.87 L48.96,86.29 L49.81,85.92 L56.05,82.72 L60.32,84.48 L63.04,92.00 L69.33,92.00 L69.33,90.67 L71.52,84.05 L75.73,82.29 L83.04,85.65 L87.41,81.28 L86.99,80.43 L83.95,74.67 L85.17,70.29 L92.16,67.41 Z" fill="#ffc813" stroke="#1e1e1e" stroke-width="1" stroke-linejoin="round"/><path d="M65.97,73.17 L63.43,72.81 L61.11,71.73 L59.19,70.02 L57.86,67.82 L57.22,65.34 L57.33,62.77 L58.18,60.35 L59.70,58.28 L61.75,56.74 L64.16,55.86 L66.72,55.72 L69.22,56.33 L71.43,57.63 L73.16,59.52 L74.27,61.84 L74.67,64.37 L74.67,64.37 L74.37,66.63 L73.51,68.74 L72.13,70.56 L70.33,71.96 L68.23,72.85 L65.97,73.17 L65.97,73.17 Z" fill="#ffffff" stroke="#1e1e1e" stroke-width="1" stroke-linejoin="round"/><path d="M65.97,73.17 L63.43,72.81 L61.11,71.73 L59.19,70.02 L57.86,67.82 L57.22,65.34 L57.33,62.77 L58.18,60.35 L59.70,58.28 L61.75,56.74 L64.16,55.86 L66.72,55.72 L69.22,56.33 L71.43,57.63 L73.16,59.52 L74.27,61.84 L74.67,64.37 L74.67,64.37 L74.37,66.63 L73.51,68.74 L72.13,70.56 L70.33,71.96 L68.23,72.85 L65.97,73.17 L65.97,73.17 Z" fill="#ffffff" stroke="#1e1e1e" stroke-width="1" stroke-linejoin="round"/></svg>