<svg xmlns="http://www.w3.org/2000/svg" viewBox="0.82 6.08 100.00 89.51"><path d="M75.60,41.79 L75.57,41.77 L75.57,41.70 L75.46,41.70 L50.81,24.88 L26.15,41.70 L26.04,41.70 L26.04,41.77 L26.01,41.79 L26.04,41.79 L26.04,74.55 L75.57,74.55 L75.57,41.79 L75.60,41.79 Z" fill="#50e6ff" stroke="#1e1e1e" stroke-width="1" stroke-linejoin="round"/><path d="M26.01,41.79 L26.06,74.54 L50.80,58.16 L26.01,41.79 Z" fill="#32bedd" stroke="#1e1e1e" stroke-width="1" stroke-linejoin="round"/><path d="M75.58,41.79 L50.80,58.16 L75.54,74.54 L75.58,41.79 Z" fill="#198ab3" stroke="#1e1e1e" stroke-width="1" stroke-linejoin="round"/><path d="M50.80,58.16 L26.06,74.51 L26.06,74.54 L75.54,74.54 L75.54,74.51 L50.80,58.16 Z" fill="#005091" stroke="#1e1e1e" stroke-width="1" stroke-linejoin="round"/><path d="M6.05,8.08 L13.34,8.08 L13.34,8.08 L13.34,28.40 L13.12,29.21 L12.53,29.80 L11.72,30.02 L4.44,30.02 L3.64,29.81 L3.05,29.23 L2.82,28.43 L2.82,11.29 L3.26,9.68 L4.44,8.51 L6.05,8.08 L6.05,8.08 Z" fill="#999999" stroke="#999999" stroke-width="1" stroke-linejoin="round"/><path d="M6.05,8.08 L13.34,8.08 L13.34,8.08 L13.34,28.40 L13.12,29.21 L12.53,29.80 L11.72,30.02 L4.44,30.02 L3.64,29.81 L3.05,29.23 L2.82,28.43 L2.82,11.29 L3.26,9.68 L4.44,8.51 L6.05,8.08 L6.05,8.08 Z" fill="#999999" stroke="#999999" stroke-width="1" stroke-linejoin="round" opacity="0.5"/><path d="M88.31,8.08 L95.59,8.08 L97.21,8.51 L98.39,9.68 L98.82,11.29 L98.82,28.43 L98.61,29.24 L98.02,29.83 L97.21,30.05 L89.92,30.05 L89.12,29.83 L88.53,29.24 L88.31,28.43 L88.31,8.08 L88.31,8.08 Z" fill="#999999" stroke="#999999" stroke-width="1" stroke-linejoin="round"/><path d="M88.31,8.08 L95.59,8.08 L97.21,8.51 L98.39,9.68 L98.82,11.29 L98.82,28.43 L98.61,29.24 L98.02,29.83 L97.21,30.05 L89.92,30.05 L89.12,29.83 L88.53,29.24 L88.31,28.43 L88.31,8.08 L88.31,8.08 Z" fill="#999999" stroke="#999999" stroke-width="1" stroke-linejoin="round" opacity="0.5"/><path d="M98.82,11.28 L98.82,18.32 L98.82,18.32 L2.82,18.32 L2.82,18.32 L2.82,11.28 L3.25,9.68 L4.42,8.50 L6.03,8.08 L95.64,8.08 L97.24,8.51 L98.40,9.68 L98.82,11.28 L98.82,11.28 Z" fill="#949494" stroke="#1e1e1e" stroke-width="1" stroke-linejoin="round"/><path d="M4.44,71.60 L11.72,71.60 L12.53,71.82 L13.12,72.41 L13.34,73.21 L13.34,93.54 L13.34,93.54 L6.05,93.54 L4.45,93.12 L3.27,91.95 L2.82,90.35 L2.82,73.21 L3.04,72.41 L3.63,71.82 L4.44,71.60 L4.44,71.60 Z" fill="#999999" stroke="#999999" stroke-width="1" stroke-linejoin="round"/><path d="M4.44,71.60 L11.72,71.60 L12.53,71.82 L13.12,72.41 L13.34,73.21 L13.34,93.54 L13.34,93.54 L6.05,93.54 L4.45,93.12 L3.27,91.95 L2.82,90.35 L2.82,73.21 L3.04,72.41 L3.63,71.82 L4.44,71.60 L4.44,71.60 Z" fill="#999999" stroke="#999999" stroke-width="1" stroke-linejoin="round" opacity="0.5"/><path d="M89.92,71.60 L97.21,71.60 L98.02,71.82 L98.61,72.41 L98.82,73.21 L98.82,90.35 L98.39,91.97 L97.21,93.15 L95.59,93.58 L88.31,93.58 L88.31,93.58 L88.31,73.25 L88.51,72.43 L89.10,71.82 L89.92,71.60 Z" fill="#999999" stroke="#999999" stroke-width="1" stroke-linejoin="round"/><path d="M89.92,71.60 L97.21,71.60 L98.02,71.82 L98.61,72.41 L98.82,73.21 L98.82,90.35 L98.39,91.97 L97.21,93.15 L95.59,93.58 L88.31,93.58 L88.31,93.58 L88.31,73.25 L88.51,72.43 L89.10,71.82 L89.92,71.60 Z" fill="#999999" stroke="#999999" stroke-width="1" stroke-linejoin="round" opacity="0.5"/><path d="M2.82,90.37 L2.82,83.33 L2.82,83.33 L98.82,83.33 L98.82,83.33 L98.82,90.37 L98.39,91.97 L97.22,93.14 L95.62,93.57 L6.03,93.57 L4.42,93.14 L3.25,91.97 L2.82,90.37 Z" fill="#949494" stroke="#1e1e1e" stroke-width="1" stroke-linejoin="round"/></svg>