<svg xmlns="http://www.w3.org/2000/svg" viewBox="1.37 5.80 100.00 95.11"><path d="M76.13,7.80 L71.59,7.85 L67.15,8.75 L62.95,10.46 L59.15,12.94 L55.88,16.08 L53.26,19.78 L51.37,23.91 L49.48,19.78 L46.84,16.08 L43.56,12.94 L39.76,10.47 L35.55,8.76 L31.10,7.85 L26.56,7.80 L22.62,8.36 L19.14,9.34 L16.11,10.71 L13.48,12.40 L11.23,14.37 L9.33,16.56 L7.76,18.94 L6.48,21.44 L5.46,24.02 L4.69,26.64 L4.12,29.23 L3.73,31.75 L3.37,36.38 L3.39,40.13 L3.59,43.01 L3.88,44.91 L4.40,47.12 L5.19,49.64 L6.33,52.47 L7.88,55.62 L9.90,59.08 L12.46,62.86 L15.62,66.96 L19.45,71.38 L24.02,76.12 L29.37,81.19 L35.59,86.58 L42.73,92.30 L50.87,98.34 L50.87,98.91 L51.26,98.62 L51.66,98.91 L51.66,98.34 L59.83,92.29 L67.01,86.56 L73.25,81.16 L78.64,76.07 L83.22,71.30 L87.07,66.84 L90.25,62.71 L92.82,58.88 L94.86,55.38 L96.41,52.18 L97.55,49.30 L98.35,46.74 L98.87,44.48 L99.16,42.53 L99.36,39.56 L99.37,35.90 L99.01,31.36 L98.62,28.89 L98.04,26.35 L97.26,23.78 L96.24,21.24 L94.96,18.78 L93.38,16.44 L91.48,14.28 L89.23,12.34 L86.59,10.67 L83.55,9.33 L80.07,8.35 L76.13,7.80 Z" fill="#f79415" stroke="#1e1e1e" stroke-width="1" stroke-linejoin="round"/><path d="M96.08,21.48 L96.90,26.01 L97.14,30.62 L96.78,35.21 L95.84,39.73 L94.33,44.08 L92.19,48.22 L89.51,52.14 L86.30,55.84 L82.58,59.33 L78.35,62.60 L73.62,65.65 L68.42,68.49 L62.74,71.10 L61.10,69.77 L59.17,68.94 L57.08,68.67 L54.53,69.08 L52.26,70.31 L50.52,72.22 L49.50,74.59 L49.32,77.16 L50.00,79.66 L51.46,81.79 L53.53,83.32 L56.00,84.09 L58.58,84.00 L60.99,83.07 L62.96,81.40 L64.27,79.17 L64.77,76.64 L71.95,73.21 L78.74,69.07 L85.07,64.25 L90.87,58.80 L96.08,52.79 L97.77,48.38 L98.86,43.78 L99.31,39.08 L99.13,34.36 L98.60,29.96 L97.58,25.65 L96.08,21.48 L96.08,21.48 Z" fill="#ffe452" stroke="#1e1e1e" stroke-width="1" stroke-linejoin="round"/><path d="M38.83,67.48 L38.83,67.48 L36.62,69.74 L31.29,64.15 L26.97,58.89 L23.66,53.99 L22.39,51.68 L21.37,49.47 L20.61,47.37 L20.11,45.38 L19.87,43.50 L19.89,41.74 L20.18,40.10 L20.72,38.59 L21.53,37.20 L22.61,35.95 L23.88,34.89 L25.28,34.10 L26.81,33.57 L28.45,33.29 L30.22,33.28 L32.10,33.53 L34.09,34.03 L36.19,34.79 L38.40,35.80 L40.71,37.06 L45.62,40.35 L50.90,44.63 L56.52,49.91 L54.31,52.17 L53.54,53.49 L53.54,55.02 L54.31,56.35 L55.63,57.14 L57.18,57.14 L58.50,56.35 L58.50,56.35 L62.68,52.17 L63.43,50.84 L63.43,49.31 L62.68,47.98 L60.59,45.89 L56.35,41.89 L51.58,37.95 L46.46,34.32 L43.80,32.71 L41.12,31.28 L38.43,30.05 L35.75,29.08 L33.10,28.38 L30.50,27.99 L27.98,27.94 L25.54,28.27 L23.22,29.00 L21.02,30.18 L18.88,27.78 L17.19,25.03 L16.01,22.03 L15.37,18.88 L15.44,15.62 L16.33,12.48 L17.97,9.66 L14.86,11.35 L12.05,13.49 L9.61,16.05 L9.47,20.17 L10.18,24.23 L11.72,28.05 L14.01,31.48 L16.96,34.36 L15.81,36.55 L15.09,38.88 L14.79,41.31 L14.85,43.84 L15.25,46.43 L15.96,49.08 L16.94,51.75 L18.16,54.44 L19.59,57.12 L21.20,59.77 L24.82,64.90 L28.74,69.67 L32.72,73.93 L34.82,76.07 L36.14,76.83 L37.67,76.83 L39.00,76.07 L43.24,71.83 L43.99,70.51 L43.99,68.98 L43.24,67.65 L42.27,66.88 L41.07,66.57 L39.85,66.79 L38.83,67.48 Z" fill="#ffe452" stroke="#1e1e1e" stroke-width="1" stroke-linejoin="round"/></svg>