<svg xmlns="http://www.w3.org/2000/svg" viewBox="5.91 0.82 89.84 100.00"><path d="M8.02,10.11 L13.67,3.73 L14.51,3.09 L15.53,2.82 L68.10,2.82 L69.63,3.03 L70.94,3.83 L71.82,5.09 L72.11,6.61 L72.11,72.23 L71.87,73.31 L71.21,74.20 L65.56,79.57 L8.02,10.11 Z" fill="#999999" stroke="#1e1e1e" stroke-width="1" stroke-linejoin="round"/><path d="M8.02,10.11 L13.67,3.73 L14.51,3.09 L15.53,2.82 L68.10,2.82 L69.63,3.03 L70.94,3.83 L71.82,5.09 L72.11,6.61 L72.11,72.23 L71.87,73.31 L71.21,74.20 L65.56,79.57 L8.02,10.11 Z" fill="#999999" stroke="#1e1e1e" stroke-width="1" stroke-linejoin="round" opacity="0.5"/><path d="M12.42,10.11 L15.76,6.27 L16.60,5.78 L17.56,5.65 L66.64,5.65 L67.82,5.96 L68.69,6.83 L69.01,8.02 L69.01,70.19 L68.81,71.14 L68.27,71.94 L63.02,76.74 L12.42,10.11 Z" fill="#ffffff" stroke="#1e1e1e" stroke-width="1" stroke-linejoin="round"/><path d="M62.68,10.05 L8.19,10.05 L7.91,10.05 L7.91,77.82 L8.14,78.69 L8.78,79.33 L9.66,79.57 L62.68,79.57 L63.56,79.33 L64.20,78.69 L64.43,77.82 L64.43,11.80 L64.20,10.93 L63.56,10.29 L62.68,10.05 L62.68,10.05 Z" fill="#abaaab" stroke="#1e1e1e" stroke-width="1" stroke-linejoin="round"/><path d="M69.01,56.92 L64.04,56.76 L59.41,56.31 L55.22,55.59 L51.56,54.63 L48.55,53.47 L46.27,52.13 L45.44,51.41 L44.83,50.66 L44.46,49.88 L44.33,49.07 L44.33,90.97 L44.45,91.77 L44.82,92.54 L45.42,93.29 L46.23,94.00 L48.47,95.33 L51.44,96.49 L55.04,97.45 L59.17,98.18 L63.75,98.65 L68.67,98.82 L69.01,98.82 L73.99,98.66 L78.64,98.21 L82.84,97.49 L86.50,96.53 L89.52,95.37 L91.80,94.04 L92.63,93.31 L93.24,92.56 L93.61,91.78 L93.74,90.97 L93.74,49.07 L93.61,49.88 L93.24,50.66 L92.63,51.41 L91.80,52.13 L89.52,53.47 L86.50,54.63 L82.84,55.59 L78.64,56.31 L73.99,56.76 L69.01,56.92 Z" fill="#0077d2" stroke="#1e1e1e" stroke-width="1" stroke-linejoin="round"/><path d="M93.74,49.07 L93.61,49.88 L93.23,50.66 L92.61,51.41 L91.77,52.13 L89.46,53.47 L86.41,54.63 L82.74,55.59 L78.54,56.31 L73.93,56.76 L69.01,56.92 L64.09,56.76 L59.48,56.31 L55.29,55.59 L51.63,54.63 L48.59,53.47 L46.30,52.13 L45.46,51.41 L44.84,50.66 L44.46,49.88 L44.33,49.07 L44.46,48.27 L44.84,47.48 L45.46,46.73 L46.30,46.00 L48.61,44.66 L51.65,43.49 L55.32,42.52 L59.51,41.79 L64.10,41.33 L69.01,41.17 L73.91,41.33 L78.52,41.79 L82.71,42.52 L86.39,43.49 L89.44,44.66 L91.76,46.00 L92.61,46.73 L93.23,47.48 L93.61,48.27 L93.74,49.07 L93.74,49.07 Z" fill="#e8e8e8" stroke="#1e1e1e" stroke-width="1" stroke-linejoin="round"/><path d="M87.98,48.45 L87.88,48.96 L87.59,49.46 L86.49,50.40 L84.73,51.24 L82.41,51.97 L79.60,52.58 L76.38,53.03 L72.82,53.32 L69.01,53.42 L65.19,53.32 L61.64,53.03 L58.43,52.58 L55.63,51.97 L53.32,51.24 L51.58,50.40 L50.47,49.46 L50.19,48.96 L50.09,48.45 L50.19,47.94 L50.47,47.44 L51.58,46.50 L53.32,45.65 L55.63,44.90 L58.43,44.29 L61.64,43.82 L65.19,43.53 L69.01,43.43 L72.82,43.53 L76.38,43.82 L79.60,44.29 L82.41,44.90 L84.73,45.65 L86.49,46.50 L87.59,47.44 L87.88,47.94 L87.98,48.45 Z" fill="#50e6ff" stroke="#1e1e1e" stroke-width="1" stroke-linejoin="round"/><path d="M69.01,49.58 L63.96,49.72 L58.96,50.36 L54.04,51.50 L58.96,52.65 L63.96,53.29 L69.01,53.42 L74.07,53.29 L79.09,52.65 L84.03,51.50 L79.09,50.36 L74.07,49.72 L69.01,49.58 L69.01,49.58 Z" fill="#198ab3" stroke="#198ab3" stroke-width="1" stroke-linejoin="round"/></svg>