<svg xmlns="http://www.w3.org/2000/svg" viewBox="5.47 0.67 85.07 94.67"><path d="M7.57,9.55 L12.91,3.52 L13.70,2.92 L14.67,2.67 L64.32,2.67 L65.76,2.86 L67.00,3.62 L67.83,4.81 L68.11,6.24 L68.11,68.21 L67.88,69.24 L67.25,70.08 L61.92,75.15 L7.57,9.55 Z" fill="#999999" stroke="#1e1e1e" stroke-width="1" stroke-linejoin="round"/><path d="M7.57,9.55 L12.91,3.52 L13.70,2.92 L14.67,2.67 L64.32,2.67 L65.76,2.86 L67.00,3.62 L67.83,4.81 L68.11,6.24 L68.11,68.21 L67.88,69.24 L67.25,70.08 L61.92,75.15 L7.57,9.55 Z" fill="#999999" stroke="#1e1e1e" stroke-width="1" stroke-linejoin="round" opacity="0.5"/><path d="M11.73,9.55 L14.88,5.92 L15.67,5.46 L16.59,5.33 L62.93,5.33 L64.05,5.63 L64.87,6.45 L65.17,7.57 L65.17,66.29 L64.99,67.19 L64.48,67.95 L59.52,72.48 L11.73,9.55 Z" fill="#ffffff" stroke="#1e1e1e" stroke-width="1" stroke-linejoin="round"/><path d="M59.20,9.49 L7.73,9.49 L7.47,9.49 L7.47,73.49 L7.69,74.32 L8.29,74.93 L9.12,75.15 L59.20,75.15 L60.03,74.93 L60.63,74.32 L60.85,73.49 L60.85,11.15 L60.63,10.32 L60.03,9.71 L59.20,9.49 L59.20,9.49 Z" fill="#abaaab" stroke="#1e1e1e" stroke-width="1" stroke-linejoin="round"/><path d="M65.17,53.76 L60.48,53.61 L56.11,53.18 L52.15,52.50 L48.70,51.59 L45.85,50.50 L43.70,49.24 L42.92,48.56 L42.34,47.84 L41.99,47.11 L41.87,46.35 L41.87,85.92 L41.98,86.67 L42.33,87.40 L42.90,88.10 L43.67,88.78 L45.78,90.03 L48.58,91.13 L51.98,92.03 L55.88,92.72 L60.21,93.17 L64.85,93.33 L65.17,93.33 L69.88,93.18 L74.27,92.75 L78.24,92.07 L81.69,91.17 L84.55,90.07 L86.70,88.81 L87.48,88.13 L88.06,87.42 L88.41,86.68 L88.53,85.92 L88.53,46.35 L88.41,47.11 L88.06,47.84 L87.48,48.56 L86.70,49.24 L84.55,50.50 L81.69,51.59 L78.24,52.50 L74.27,53.18 L69.88,53.61 L65.17,53.76 Z" fill="#0077d2" stroke="#1e1e1e" stroke-width="1" stroke-linejoin="round"/><path d="M88.53,46.35 L88.41,47.11 L88.05,47.84 L87.47,48.56 L86.67,49.24 L84.49,50.50 L81.61,51.59 L78.14,52.50 L74.18,53.18 L69.82,53.61 L65.17,53.76 L60.53,53.61 L56.18,53.18 L52.22,52.50 L48.76,51.59 L45.89,50.50 L43.72,49.24 L42.93,48.56 L42.35,47.84 L41.99,47.11 L41.87,46.35 L41.99,45.59 L42.35,44.85 L42.93,44.13 L43.73,43.45 L45.91,42.18 L48.78,41.07 L52.24,40.16 L56.20,39.47 L60.54,39.03 L65.17,38.88 L69.81,39.03 L74.16,39.47 L78.12,40.16 L81.59,41.07 L84.47,42.18 L86.66,43.45 L87.46,44.13 L88.05,44.85 L88.41,45.59 L88.53,46.35 L88.53,46.35 Z" fill="#e8e8e8" stroke="#1e1e1e" stroke-width="1" stroke-linejoin="round"/><path d="M83.09,45.76 L83.00,46.24 L82.73,46.71 L81.68,47.60 L80.02,48.39 L77.83,49.09 L75.18,49.66 L72.14,50.09 L68.78,50.36 L65.17,50.45 L61.57,50.36 L58.22,50.09 L55.18,49.66 L52.54,49.09 L50.36,48.39 L48.71,47.60 L47.67,46.71 L47.40,46.24 L47.31,45.76 L47.40,45.28 L47.67,44.81 L48.71,43.92 L50.36,43.11 L52.54,42.41 L55.18,41.83 L58.22,41.39 L61.57,41.11 L65.17,41.01 L68.78,41.11 L72.14,41.39 L75.18,41.83 L77.83,42.41 L80.02,43.11 L81.68,43.92 L82.73,44.81 L83.00,45.28 L83.09,45.76 Z" fill="#50e6ff" stroke="#1e1e1e" stroke-width="1" stroke-linejoin="round"/><path d="M65.17,46.83 L60.41,46.96 L55.68,47.56 L51.04,48.64 L55.68,49.72 L60.41,50.33 L65.17,50.45 L69.96,50.33 L74.70,49.72 L79.36,48.64 L74.70,47.56 L69.95,46.96 L65.17,46.83 L65.17,46.83 Z" fill="#198ab3" stroke="#198ab3" stroke-width="1" stroke-linejoin="round"/></svg>