<svg xmlns="http://www.w3.org/2000/svg" viewBox="1.18 5.36 94.59 89.97"><path d="M71.84,7.36 L67.56,7.41 L63.37,8.26 L59.40,9.88 L55.82,12.21 L52.73,15.17 L50.26,18.67 L48.48,22.56 L46.69,18.67 L44.20,15.18 L41.11,12.21 L37.52,9.88 L33.55,8.26 L29.35,7.41 L25.07,7.36 L21.35,7.89 L18.07,8.82 L15.20,10.10 L12.72,11.70 L10.60,13.56 L8.81,15.63 L7.32,17.87 L6.11,20.23 L5.16,22.67 L4.42,25.13 L3.89,27.58 L3.52,29.96 L3.18,34.33 L3.20,37.87 L3.39,40.58 L3.66,42.38 L4.15,44.46 L4.90,46.84 L5.97,49.52 L7.43,52.49 L9.34,55.75 L11.76,59.32 L14.74,63.19 L18.36,67.36 L22.66,71.83 L27.72,76.61 L33.59,81.70 L40.33,87.10 L48.00,92.80 L48.00,93.33 L48.37,93.07 L48.75,93.33 L48.75,92.80 L56.46,87.09 L63.23,81.69 L69.13,76.58 L74.21,71.78 L78.53,67.28 L82.17,63.08 L85.17,59.17 L87.59,55.57 L89.51,52.26 L90.98,49.24 L92.06,46.53 L92.81,44.10 L93.29,41.97 L93.57,40.13 L93.76,37.33 L93.77,33.88 L93.43,29.60 L93.06,27.26 L92.52,24.86 L91.78,22.44 L90.82,20.05 L89.61,17.72 L88.12,15.52 L86.32,13.48 L84.20,11.65 L81.71,10.07 L78.84,8.80 L75.56,7.88 L71.84,7.36 Z" fill="#f79415" stroke="#1e1e1e" stroke-width="1" stroke-linejoin="round"/><path d="M90.67,20.27 L91.44,24.55 L91.66,28.89 L91.33,33.23 L90.44,37.49 L89.01,41.60 L87.00,45.50 L84.47,49.20 L81.44,52.69 L77.93,55.99 L73.93,59.07 L69.48,61.95 L64.56,64.63 L59.20,67.09 L57.66,65.84 L55.84,65.05 L53.87,64.80 L51.46,65.19 L49.32,66.35 L47.68,68.15 L46.72,70.39 L46.54,72.82 L47.18,75.17 L48.56,77.18 L50.52,78.63 L52.84,79.35 L55.28,79.27 L57.55,78.39 L59.41,76.81 L60.64,74.71 L61.12,72.32 L67.90,69.09 L74.30,65.18 L80.28,60.63 L85.75,55.49 L90.67,49.81 L92.26,45.65 L93.29,41.32 L93.72,36.88 L93.55,32.43 L93.04,28.27 L92.08,24.20 L90.67,20.27 L90.67,20.27 Z" fill="#ffe452" stroke="#1e1e1e" stroke-width="1" stroke-linejoin="round"/><path d="M36.64,63.68 L36.64,63.68 L34.56,65.81 L29.53,60.54 L25.45,55.57 L22.33,50.95 L21.13,48.77 L20.17,46.69 L19.45,44.70 L18.98,42.83 L18.75,41.05 L18.77,39.39 L19.04,37.84 L19.55,36.41 L20.32,35.10 L21.33,33.92 L22.53,32.92 L23.86,32.18 L25.30,31.67 L26.85,31.42 L28.52,31.41 L30.29,31.64 L32.17,32.11 L34.15,32.83 L36.24,33.78 L38.41,34.98 L43.05,38.08 L48.03,42.12 L53.33,47.09 L51.25,49.23 L50.52,50.48 L50.52,51.92 L51.25,53.17 L52.50,53.92 L53.95,53.92 L55.20,53.17 L55.20,53.17 L59.15,49.23 L59.86,47.97 L59.86,46.53 L59.15,45.28 L57.17,43.31 L53.17,39.53 L48.68,35.81 L43.84,32.39 L41.34,30.87 L38.81,29.51 L36.27,28.36 L33.74,27.44 L31.24,26.78 L28.79,26.41 L26.40,26.36 L24.10,26.67 L21.91,27.37 L19.84,28.48 L17.82,26.21 L16.22,23.62 L15.11,20.79 L14.51,17.81 L14.57,14.74 L15.41,11.78 L16.96,9.12 L14.02,10.71 L11.37,12.73 L9.07,15.15 L8.94,19.03 L9.61,22.86 L11.06,26.47 L13.22,29.71 L16.00,32.43 L14.92,34.49 L14.24,36.69 L13.95,38.98 L14.01,41.36 L14.39,43.81 L15.06,46.31 L15.99,48.84 L17.14,51.37 L18.49,53.90 L20.01,56.40 L23.42,61.24 L27.12,65.75 L30.88,69.76 L32.85,71.79 L34.11,72.50 L35.55,72.50 L36.80,71.79 L40.80,67.79 L41.51,66.53 L41.51,65.09 L40.80,63.84 L39.89,63.11 L38.76,62.82 L37.61,63.02 L36.64,63.68 Z" fill="#ffe452" stroke="#1e1e1e" stroke-width="1" stroke-linejoin="round"/></svg>