<svg xmlns="http://www.w3.org/2000/svg" viewBox="0.67 5.63 94.67 84.76"><path d="M71.40,39.47 L71.37,39.45 L71.37,39.38 L71.27,39.38 L47.98,23.49 L24.70,39.38 L24.60,39.38 L24.60,39.45 L24.57,39.47 L24.60,39.47 L24.60,70.41 L71.37,70.41 L71.37,39.47 L71.40,39.47 Z" fill="#50e6ff" stroke="#1e1e1e" stroke-width="1" stroke-linejoin="round"/><path d="M24.57,39.47 L24.61,70.40 L47.97,54.93 L24.57,39.47 Z" fill="#32bedd" stroke="#1e1e1e" stroke-width="1" stroke-linejoin="round"/><path d="M71.38,39.47 L47.97,54.93 L71.34,70.40 L71.38,39.47 Z" fill="#198ab3" stroke="#1e1e1e" stroke-width="1" stroke-linejoin="round"/><path d="M47.97,54.93 L24.61,70.37 L24.61,70.39 L71.34,70.39 L71.34,70.37 L47.97,54.93 Z" fill="#005091" stroke="#1e1e1e" stroke-width="1" stroke-linejoin="round"/><path d="M5.72,7.63 L12.60,7.63 L12.60,7.63 L12.60,26.83 L12.39,27.59 L11.83,28.15 L11.07,28.35 L4.19,28.35 L3.44,28.15 L2.88,27.60 L2.67,26.85 L2.67,10.67 L3.08,9.15 L4.20,8.03 L5.72,7.63 L5.72,7.63 Z" fill="#999999" stroke="#999999" stroke-width="1" stroke-linejoin="round"/><path d="M5.72,7.63 L12.60,7.63 L12.60,7.63 L12.60,26.83 L12.39,27.59 L11.83,28.15 L11.07,28.35 L4.19,28.35 L3.44,28.15 L2.88,27.60 L2.67,26.85 L2.67,10.67 L3.08,9.15 L4.20,8.03 L5.72,7.63 L5.72,7.63 Z" fill="#999999" stroke="#999999" stroke-width="1" stroke-linejoin="round" opacity="0.5"/><path d="M83.40,7.63 L90.28,7.63 L91.80,8.03 L92.92,9.15 L93.33,10.67 L93.33,26.85 L93.13,27.62 L92.57,28.17 L91.81,28.38 L84.93,28.38 L84.17,28.17 L83.61,27.62 L83.40,26.85 L83.40,7.63 L83.40,7.63 Z" fill="#999999" stroke="#999999" stroke-width="1" stroke-linejoin="round"/><path d="M83.40,7.63 L90.28,7.63 L91.80,8.03 L92.92,9.15 L93.33,10.67 L93.33,26.85 L93.13,27.62 L92.57,28.17 L91.81,28.38 L84.93,28.38 L84.17,28.17 L83.61,27.62 L83.40,26.85 L83.40,7.63 L83.40,7.63 Z" fill="#999999" stroke="#999999" stroke-width="1" stroke-linejoin="round" opacity="0.5"/><path d="M93.33,10.65 L93.33,17.30 L93.33,17.30 L2.67,17.30 L2.67,17.30 L2.67,10.65 L3.07,9.14 L4.18,8.03 L5.69,7.63 L90.33,7.63 L91.83,8.04 L92.93,9.14 L93.33,10.65 L93.33,10.65 Z" fill="#949494" stroke="#1e1e1e" stroke-width="1" stroke-linejoin="round"/><path d="M4.19,67.62 L11.07,67.62 L11.83,67.83 L12.39,68.38 L12.60,69.15 L12.60,88.35 L12.60,88.35 L5.72,88.35 L4.20,87.94 L3.09,86.84 L2.67,85.33 L2.67,69.15 L2.87,68.38 L3.43,67.83 L4.19,67.62 L4.19,67.62 Z" fill="#999999" stroke="#999999" stroke-width="1" stroke-linejoin="round"/><path d="M4.19,67.62 L11.07,67.62 L11.83,67.83 L12.39,68.38 L12.60,69.15 L12.60,88.35 L12.60,88.35 L5.72,88.35 L4.20,87.94 L3.09,86.84 L2.67,85.33 L2.67,69.15 L2.87,68.38 L3.43,67.83 L4.19,67.62 L4.19,67.62 Z" fill="#999999" stroke="#999999" stroke-width="1" stroke-linejoin="round" opacity="0.5"/><path d="M84.93,67.62 L91.81,67.62 L92.57,67.83 L93.13,68.38 L93.33,69.15 L93.33,85.33 L92.92,86.86 L91.81,87.98 L90.28,88.38 L83.40,88.38 L83.40,88.38 L83.40,69.18 L83.59,68.41 L84.15,67.83 L84.93,67.62 Z" fill="#999999" stroke="#999999" stroke-width="1" stroke-linejoin="round"/><path d="M84.93,67.62 L91.81,67.62 L92.57,67.83 L93.13,68.38 L93.33,69.15 L93.33,85.33 L92.92,86.86 L91.81,87.98 L90.28,88.38 L83.40,88.38 L83.40,88.38 L83.40,69.18 L83.59,68.41 L84.15,67.83 L84.93,67.62 Z" fill="#999999" stroke="#999999" stroke-width="1" stroke-linejoin="round" opacity="0.5"/><path d="M2.67,85.35 L2.67,78.70 L2.67,78.70 L93.33,78.70 L93.33,78.70 L93.33,85.35 L92.93,86.86 L91.82,87.97 L90.31,88.37 L5.69,88.37 L4.18,87.97 L3.07,86.86 L2.67,85.35 Z" fill="#949494" stroke="#1e1e1e" stroke-width="1" stroke-linejoin="round"/></svg>