<svg xmlns="http://www.w3.org/2000/svg" viewBox="12.40 -2.00 71.20 100.00"><path d="M77.91,60.25 L48.00,69.75 L18.09,60.25 L17.41,60.12 L16.74,60.15 L15.56,60.62 L14.72,61.54 L14.48,62.12 L14.40,62.78 L14.40,83.41 L14.54,84.24 L14.93,84.97 L15.53,85.55 L16.31,85.94 L48.00,96.00 L79.69,85.94 L80.47,85.55 L81.07,84.97 L81.46,84.24 L81.60,83.41 L81.60,62.78 L81.52,62.12 L81.28,61.54 L80.44,60.62 L79.26,60.15 L78.59,60.12 L77.91,60.25 L77.91,60.25 Z" fill="#76d263" stroke="#1e1e1e" stroke-width="1" stroke-linejoin="round"/><path d="M81.60,51.42 L81.60,30.78 L81.52,30.13 L81.28,29.54 L80.44,28.62 L79.26,28.15 L78.59,28.12 L77.91,28.26 L48.00,37.75 L18.09,28.26 L17.41,28.12 L16.74,28.15 L15.56,28.62 L14.72,29.54 L14.48,30.13 L14.40,30.78 L14.40,51.42 L14.54,52.25 L14.93,52.98 L15.53,53.56 L16.31,53.95 L48.00,64.01 L79.69,53.95 L80.47,53.56 L81.07,52.98 L81.46,52.25 L81.60,51.42 L81.60,51.42 Z" fill="#399a91" stroke="#1e1e1e" stroke-width="1" stroke-linejoin="round"/><path d="M14.40,19.41 L14.40,2.67 L14.62,1.63 L15.22,0.78 L16.11,0.21 L17.20,0.00 L78.80,0.00 L79.89,0.21 L80.78,0.78 L81.38,1.63 L81.60,2.67 L81.60,19.41 L81.46,20.24 L81.07,20.97 L80.47,21.55 L79.69,21.94 L48.00,32.00 L16.31,21.94 L15.53,21.55 L14.93,20.97 L14.54,20.24 L14.40,19.41 L14.40,19.41 Z" fill="#225b62" stroke="#1e1e1e" stroke-width="1" stroke-linejoin="round"/></svg>