<svg xmlns="http://www.w3.org/2000/svg" viewBox="0.82 6.08 100.00 89.50"><path d="M71.72,46.02 L71.72,42.64 L46.19,42.64 L34.22,54.55 L25.41,54.55 L45.85,33.88 L59.80,33.88 L59.80,30.66 L44.44,30.66 L20.61,54.55 L17.22,54.55 L17.22,57.94 L27.44,57.94 L39.53,69.85 L68.33,69.85 L68.33,66.47 L40.77,66.47 L32.24,57.94 L52.97,57.94 L52.97,54.55 L39.08,54.55 L47.55,46.02 L71.72,46.02 Z" fill="#32bedd" stroke="#1e1e1e" stroke-width="1" stroke-linejoin="round"/><ellipse cx="56.36" cy="56.24" rx="4.91" ry="4.91" fill="#ffffff" stroke="#ffffff" stroke-width="1"/><ellipse cx="61.50" cy="32.41" rx="4.91" ry="4.91" fill="#ffffff" stroke="#ffffff" stroke-width="1"/><ellipse cx="73.41" cy="44.33" rx="4.91" ry="4.91" fill="#ffffff" stroke="#ffffff" stroke-width="1"/><ellipse cx="68.33" cy="68.16" rx="4.91" ry="4.91" fill="#ffffff" stroke="#ffffff" stroke-width="1"/><ellipse cx="61.33" cy="32.41" rx="5.93" ry="5.93" fill="#50e6ff" stroke="#50e6ff" stroke-width="1"/><ellipse cx="73.24" cy="44.33" rx="5.93" ry="5.93" fill="#9a72ce" stroke="#9a72ce" stroke-width="1"/><ellipse cx="68.33" cy="68.16" rx="5.93" ry="5.93" fill="#9a72ce" stroke="#9a72ce" stroke-width="1"/><ellipse cx="56.36" cy="56.24" rx="5.93" ry="5.93" fill="#50e6ff" stroke="#50e6ff" stroke-width="1"/><path d="M6.04,8.08 L13.33,8.08 L13.33,8.08 L13.33,28.24 L13.11,29.05 L12.51,29.65 L11.69,29.87 L4.46,29.87 L3.64,29.65 L3.04,29.05 L2.82,28.24 L2.82,11.29 L3.25,9.68 L4.43,8.51 L6.04,8.08 L6.04,8.08 Z" fill="#999999" stroke="#999999" stroke-width="1" stroke-linejoin="round"/><path d="M6.04,8.08 L13.33,8.08 L13.33,8.08 L13.33,28.24 L13.11,29.05 L12.51,29.65 L11.69,29.87 L4.46,29.87 L3.64,29.65 L3.04,29.05 L2.82,28.24 L2.82,11.29 L3.25,9.68 L4.43,8.51 L6.04,8.08 L6.04,8.08 Z" fill="#999999" stroke="#999999" stroke-width="1" stroke-linejoin="round" opacity="0.5"/><path d="M88.32,8.08 L95.60,8.08 L97.21,8.51 L98.39,9.68 L98.82,11.29 L98.82,28.24 L98.60,29.05 L98.00,29.65 L97.19,29.87 L89.90,29.87 L89.11,29.64 L88.53,29.04 L88.32,28.24 L88.32,8.08 L88.32,8.08 Z" fill="#999999" stroke="#999999" stroke-width="1" stroke-linejoin="round"/><path d="M88.32,8.08 L95.60,8.08 L97.21,8.51 L98.39,9.68 L98.82,11.29 L98.82,28.24 L98.60,29.05 L98.00,29.65 L97.19,29.87 L89.90,29.87 L89.11,29.64 L88.53,29.04 L88.32,28.24 L88.32,8.08 L88.32,8.08 Z" fill="#999999" stroke="#999999" stroke-width="1" stroke-linejoin="round" opacity="0.5"/><path d="M98.82,11.29 L98.82,18.35 L98.82,18.35 L2.82,18.35 L2.82,18.35 L2.82,11.29 L3.25,9.68 L4.43,8.51 L6.04,8.08 L95.66,8.08 L97.25,8.53 L98.40,9.70 L98.82,11.29 L98.82,11.29 Z" fill="#949494" stroke="#1e1e1e" stroke-width="1" stroke-linejoin="round"/><path d="M4.46,71.60 L11.75,71.60 L12.56,71.82 L13.16,72.42 L13.38,73.24 L13.38,93.57 L13.38,93.57 L6.04,93.57 L4.43,93.14 L3.25,91.96 L2.82,90.35 L2.82,73.41 L2.98,72.52 L3.59,71.85 L4.46,71.60 L4.46,71.60 Z" fill="#999999" stroke="#999999" stroke-width="1" stroke-linejoin="round"/><path d="M4.46,71.60 L11.75,71.60 L12.56,71.82 L13.16,72.42 L13.38,73.24 L13.38,93.57 L13.38,93.57 L6.04,93.57 L4.43,93.14 L3.25,91.96 L2.82,90.35 L2.82,73.41 L2.98,72.52 L3.59,71.85 L4.46,71.60 L4.46,71.60 Z" fill="#999999" stroke="#999999" stroke-width="1" stroke-linejoin="round" opacity="0.5"/><path d="M89.90,71.60 L97.19,71.60 L98.00,71.82 L98.60,72.42 L98.82,73.24 L98.82,90.18 L98.39,91.79 L97.21,92.97 L95.60,93.40 L88.32,93.40 L88.32,93.40 L88.32,73.41 L88.47,72.54 L89.05,71.87 L89.90,71.60 Z" fill="#999999" stroke="#999999" stroke-width="1" stroke-linejoin="round"/><path d="M89.90,71.60 L97.19,71.60 L98.00,71.82 L98.60,72.42 L98.82,73.24 L98.82,90.18 L98.39,91.79 L97.21,92.97 L95.60,93.40 L88.32,93.40 L88.32,93.40 L88.32,73.41 L88.47,72.54 L89.05,71.87 L89.90,71.60 Z" fill="#999999" stroke="#999999" stroke-width="1" stroke-linejoin="round" opacity="0.5"/><path d="M2.82,90.35 L2.82,83.29 L2.82,83.29 L98.82,83.29 L98.82,83.29 L98.82,90.35 L98.39,91.96 L97.21,93.14 L95.60,93.57 L6.04,93.57 L4.43,93.14 L3.25,91.96 L2.82,90.35 Z" fill="#949494" stroke="#1e1e1e" stroke-width="1" stroke-linejoin="round"/></svg>