<svg xmlns="http://www.w3.org/2000/svg" viewBox="0.56 5.52 94.88 84.96"><path d="M5.65,7.57 L12.53,7.57 L12.53,7.57 L12.53,26.67 L12.33,27.44 L11.76,28.01 L10.99,28.21 L4.11,28.21 L3.33,28.01 L2.77,27.44 L2.56,26.67 L2.56,10.67 L2.78,9.47 L3.45,8.46 L4.46,7.79 L5.65,7.57 L5.65,7.57 Z" fill="#a3a3a3" stroke="#a3a3a3" stroke-width="1" stroke-linejoin="round"/><path d="M5.65,7.57 L12.53,7.57 L12.53,7.57 L12.53,26.67 L12.33,27.44 L11.76,28.01 L10.99,28.21 L4.11,28.21 L3.33,28.01 L2.77,27.44 L2.56,26.67 L2.56,10.67 L2.78,9.47 L3.45,8.46 L4.46,7.79 L5.65,7.57 L5.65,7.57 Z" fill="#a3a3a3" stroke="#a3a3a3" stroke-width="1" stroke-linejoin="round" opacity="0.5"/><path d="M83.47,7.57 L90.35,7.57 L91.87,7.98 L92.98,9.09 L93.39,10.61 L93.39,26.67 L93.18,27.44 L92.61,28.01 L91.84,28.21 L85.01,28.21 L84.24,28.01 L83.67,27.44 L83.47,26.67 L83.47,7.57 L83.47,7.57 Z" fill="#a3a3a3" stroke="#a3a3a3" stroke-width="1" stroke-linejoin="round"/><path d="M83.47,7.57 L90.35,7.57 L91.87,7.98 L92.98,9.09 L93.39,10.61 L93.39,26.67 L93.18,27.44 L92.61,28.01 L91.84,28.21 L85.01,28.21 L84.24,28.01 L83.67,27.44 L83.47,26.67 L83.47,7.57 L83.47,7.57 Z" fill="#a3a3a3" stroke="#a3a3a3" stroke-width="1" stroke-linejoin="round" opacity="0.5"/><path d="M93.39,10.56 L93.39,17.23 L93.39,17.23 L2.72,17.23 L2.72,17.23 L2.72,10.56 L3.13,9.04 L4.24,7.93 L5.76,7.52 L90.35,7.52 L91.87,7.93 L92.98,9.04 L93.39,10.56 Z" fill="#949494" stroke="#1e1e1e" stroke-width="1" stroke-linejoin="round"/><path d="M4.11,67.68 L10.99,67.68 L11.76,67.89 L12.33,68.45 L12.53,69.23 L12.53,88.48 L12.53,88.48 L5.65,88.48 L4.45,88.25 L3.43,87.57 L2.76,86.54 L2.56,85.33 L2.56,69.33 L2.73,68.51 L3.30,67.90 L4.11,67.68 L4.11,67.68 Z" fill="#a3a3a3" stroke="#a3a3a3" stroke-width="1" stroke-linejoin="round"/><path d="M4.11,67.68 L10.99,67.68 L11.76,67.89 L12.33,68.45 L12.53,69.23 L12.53,88.48 L12.53,88.48 L5.65,88.48 L4.45,88.25 L3.43,87.57 L2.76,86.54 L2.56,85.33 L2.56,69.33 L2.73,68.51 L3.30,67.90 L4.11,67.68 L4.11,67.68 Z" fill="#a3a3a3" stroke="#a3a3a3" stroke-width="1" stroke-linejoin="round" opacity="0.5"/><path d="M85.01,67.68 L91.89,67.68 L92.67,67.89 L93.23,68.45 L93.44,69.23 L93.44,85.23 L93.03,86.75 L91.92,87.86 L90.40,88.27 L83.47,88.27 L83.47,88.27 L83.47,69.33 L83.64,68.51 L84.21,67.90 L85.01,67.68 L85.01,67.68 Z" fill="#a3a3a3" stroke="#a3a3a3" stroke-width="1" stroke-linejoin="round"/><path d="M85.01,67.68 L91.89,67.68 L92.67,67.89 L93.23,68.45 L93.44,69.23 L93.44,85.23 L93.03,86.75 L91.92,87.86 L90.40,88.27 L83.47,88.27 L83.47,88.27 L83.47,69.33 L83.64,68.51 L84.21,67.90 L85.01,67.68 L85.01,67.68 Z" fill="#a3a3a3" stroke="#a3a3a3" stroke-width="1" stroke-linejoin="round" opacity="0.5"/><path d="M2.56,85.44 L2.56,78.77 L2.56,78.77 L93.23,78.77 L93.23,78.77 L93.23,85.44 L92.82,86.96 L91.71,88.07 L90.19,88.48 L5.60,88.48 L4.08,88.07 L2.97,86.96 L2.56,85.44 Z" fill="#949494" stroke="#1e1e1e" stroke-width="1" stroke-linejoin="round"/><path d="M79.52,47.15 L69.81,37.33 L69.24,37.19 L68.96,37.71 L68.96,43.73 L68.82,44.13 L68.43,44.27 L40.48,44.27 L39.25,43.09 L37.73,42.34 L36.05,42.08 L33.90,42.27 L31.97,43.23 L30.51,44.83 L29.73,46.84 L29.73,49.00 L30.51,51.01 L31.97,52.61 L33.90,53.57 L36.05,53.76 L37.75,53.48 L39.29,52.71 L40.53,51.52 L68.43,51.52 L68.80,51.64 L68.96,52.00 L68.96,57.92 L69.27,58.39 L69.81,58.24 L79.52,48.59 L79.80,47.87 L79.52,47.15 Z" fill="#5ea0ef" stroke="#1e1e1e" stroke-width="1" stroke-linejoin="round"/><path d="M61.60,29.81 L51.89,20.16 L51.32,20.01 L51.04,20.53 L51.04,26.67 L50.92,27.04 L50.56,27.20 L33.07,27.20 L31.82,26.03 L30.28,25.27 L28.59,25.01 L26.45,25.37 L24.59,26.47 L23.26,28.17 L22.64,30.24 L22.80,32.40 L23.74,34.35 L25.32,35.83 L27.32,36.63 L29.49,36.66 L31.51,35.90 L33.12,34.45 L50.56,34.45 L50.90,34.59 L51.04,34.93 L51.04,40.59 L51.35,41.05 L51.89,40.91 L61.60,31.25 L61.88,30.53 L61.60,29.81 Z" fill="#6aa928" stroke="#1e1e1e" stroke-width="1" stroke-linejoin="round"/><path d="M61.60,64.80 L51.89,55.15 L51.32,55.00 L51.04,55.52 L51.04,61.39 L50.90,61.75 L50.56,61.92 L33.07,61.92 L31.82,60.75 L30.28,59.99 L28.59,59.73 L26.49,60.12 L24.67,61.24 L23.37,62.93 L22.76,64.97 L22.92,67.10 L23.83,69.03 L25.37,70.50 L27.34,71.33 L29.47,71.40 L31.49,70.70 L33.12,69.33 L50.56,69.33 L50.90,69.47 L51.04,69.81 L51.04,75.73 L51.35,76.20 L51.89,76.05 L61.60,66.40 L61.96,65.60 L61.60,64.80 L61.60,64.80 Z" fill="#6aa928" stroke="#1e1e1e" stroke-width="1" stroke-linejoin="round"/></svg>