<svg xmlns="http://www.w3.org/2000/svg" viewBox="0.67 5.63 94.67 84.75"><path d="M67.73,43.47 L67.73,40.27 L43.63,40.27 L32.32,51.52 L24.00,51.52 L43.31,32.00 L56.48,32.00 L56.48,28.96 L41.97,28.96 L19.47,51.52 L16.27,51.52 L16.27,54.72 L25.92,54.72 L37.33,65.97 L64.53,65.97 L64.53,62.77 L38.51,62.77 L30.45,54.72 L50.03,54.72 L50.03,51.52 L36.91,51.52 L44.91,43.47 L67.73,43.47 Z" fill="#32bedd" stroke="#1e1e1e" stroke-width="1" stroke-linejoin="round"/><ellipse cx="53.23" cy="53.12" rx="4.64" ry="4.64" fill="#ffffff" stroke="#ffffff" stroke-width="1"/><ellipse cx="58.08" cy="30.61" rx="4.64" ry="4.64" fill="#ffffff" stroke="#ffffff" stroke-width="1"/><ellipse cx="69.33" cy="41.87" rx="4.64" ry="4.64" fill="#ffffff" stroke="#ffffff" stroke-width="1"/><ellipse cx="64.53" cy="64.37" rx="4.64" ry="4.64" fill="#ffffff" stroke="#ffffff" stroke-width="1"/><ellipse cx="57.92" cy="30.61" rx="5.60" ry="5.60" fill="#50e6ff" stroke="#50e6ff" stroke-width="1"/><ellipse cx="69.17" cy="41.87" rx="5.60" ry="5.60" fill="#9a72ce" stroke="#9a72ce" stroke-width="1"/><ellipse cx="64.53" cy="64.37" rx="5.60" ry="5.60" fill="#9a72ce" stroke="#9a72ce" stroke-width="1"/><ellipse cx="53.23" cy="53.12" rx="5.60" ry="5.60" fill="#50e6ff" stroke="#50e6ff" stroke-width="1"/><path d="M5.71,7.63 L12.59,7.63 L12.59,7.63 L12.59,26.67 L12.38,27.44 L11.81,28.01 L11.04,28.21 L4.21,28.21 L3.44,28.01 L2.87,27.44 L2.67,26.67 L2.67,10.67 L3.07,9.15 L4.19,8.03 L5.71,7.63 L5.71,7.63 Z" fill="#999999" stroke="#999999" stroke-width="1" stroke-linejoin="round"/><path d="M5.71,7.63 L12.59,7.63 L12.59,7.63 L12.59,26.67 L12.38,27.44 L11.81,28.01 L11.04,28.21 L4.21,28.21 L3.44,28.01 L2.87,27.44 L2.67,26.67 L2.67,10.67 L3.07,9.15 L4.19,8.03 L5.71,7.63 L5.71,7.63 Z" fill="#999999" stroke="#999999" stroke-width="1" stroke-linejoin="round" opacity="0.5"/><path d="M83.41,7.63 L90.29,7.63 L91.81,8.03 L92.93,9.15 L93.33,10.67 L93.33,26.67 L93.13,27.44 L92.56,28.01 L91.79,28.21 L84.91,28.21 L84.16,27.99 L83.61,27.42 L83.41,26.67 L83.41,7.63 L83.41,7.63 Z" fill="#999999" stroke="#999999" stroke-width="1" stroke-linejoin="round"/><path d="M83.41,7.63 L90.29,7.63 L91.81,8.03 L92.93,9.15 L93.33,10.67 L93.33,26.67 L93.13,27.44 L92.56,28.01 L91.79,28.21 L84.91,28.21 L84.16,27.99 L83.61,27.42 L83.41,26.67 L83.41,7.63 L83.41,7.63 Z" fill="#999999" stroke="#999999" stroke-width="1" stroke-linejoin="round" opacity="0.5"/><path d="M93.33,10.67 L93.33,17.33 L93.33,17.33 L2.67,17.33 L2.67,17.33 L2.67,10.67 L3.07,9.15 L4.19,8.03 L5.71,7.63 L90.35,7.63 L91.84,8.05 L92.94,9.16 L93.33,10.67 L93.33,10.67 Z" fill="#949494" stroke="#1e1e1e" stroke-width="1" stroke-linejoin="round"/><path d="M4.21,67.63 L11.09,67.63 L11.87,67.83 L12.43,68.40 L12.64,69.17 L12.64,88.37 L12.64,88.37 L5.71,88.37 L4.19,87.97 L3.07,86.85 L2.67,85.33 L2.67,69.33 L2.82,68.49 L3.39,67.86 L4.21,67.63 L4.21,67.63 Z" fill="#999999" stroke="#999999" stroke-width="1" stroke-linejoin="round"/><path d="M4.21,67.63 L11.09,67.63 L11.87,67.83 L12.43,68.40 L12.64,69.17 L12.64,88.37 L12.64,88.37 L5.71,88.37 L4.19,87.97 L3.07,86.85 L2.67,85.33 L2.67,69.33 L2.82,68.49 L3.39,67.86 L4.21,67.63 L4.21,67.63 Z" fill="#999999" stroke="#999999" stroke-width="1" stroke-linejoin="round" opacity="0.5"/><path d="M84.91,67.63 L91.79,67.63 L92.56,67.83 L93.13,68.40 L93.33,69.17 L93.33,85.17 L92.93,86.69 L91.81,87.81 L90.29,88.21 L83.41,88.21 L83.41,88.21 L83.41,69.33 L83.56,68.51 L84.11,67.88 L84.91,67.63 Z" fill="#999999" stroke="#999999" stroke-width="1" stroke-linejoin="round"/><path d="M84.91,67.63 L91.79,67.63 L92.56,67.83 L93.13,68.40 L93.33,69.17 L93.33,85.17 L92.93,86.69 L91.81,87.81 L90.29,88.21 L83.41,88.21 L83.41,88.21 L83.41,69.33 L83.56,68.51 L84.11,67.88 L84.91,67.63 Z" fill="#999999" stroke="#999999" stroke-width="1" stroke-linejoin="round" opacity="0.5"/><path d="M2.67,85.33 L2.67,78.67 L2.67,78.67 L93.33,78.67 L93.33,78.67 L93.33,85.33 L92.93,86.85 L91.81,87.97 L90.29,88.37 L5.71,88.37 L4.19,87.97 L3.07,86.85 L2.67,85.33 Z" fill="#949494" stroke="#1e1e1e" stroke-width="1" stroke-linejoin="round"/></svg>