<svg xmlns="http://www.w3.org/2000/svg" viewBox="0.70 5.94 100.00 89.52"><path d="M5.97,8.00 L13.24,8.00 L13.24,8.00 L13.24,28.17 L13.02,28.99 L12.42,29.58 L11.61,29.80 L4.34,29.80 L3.52,29.58 L2.92,28.99 L2.70,28.17 L2.70,11.27 L2.94,10.01 L3.64,8.94 L4.71,8.23 L5.97,8.00 L5.97,8.00 Z" fill="#a3a3a3" stroke="#a3a3a3" stroke-width="1" stroke-linejoin="round"/><path d="M5.97,8.00 L13.24,8.00 L13.24,8.00 L13.24,28.17 L13.02,28.99 L12.42,29.58 L11.61,29.80 L4.34,29.80 L3.52,29.58 L2.92,28.99 L2.70,28.17 L2.70,11.27 L2.94,10.01 L3.64,8.94 L4.71,8.23 L5.97,8.00 L5.97,8.00 Z" fill="#a3a3a3" stroke="#a3a3a3" stroke-width="1" stroke-linejoin="round" opacity="0.5"/><path d="M88.17,8.00 L95.44,8.00 L97.04,8.43 L98.22,9.61 L98.65,11.21 L98.65,28.17 L98.43,28.99 L97.83,29.58 L97.01,29.80 L89.80,29.80 L88.99,29.58 L88.39,28.99 L88.17,28.17 L88.17,8.00 L88.17,8.00 Z" fill="#a3a3a3" stroke="#a3a3a3" stroke-width="1" stroke-linejoin="round"/><path d="M88.17,8.00 L95.44,8.00 L97.04,8.43 L98.22,9.61 L98.65,11.21 L98.65,28.17 L98.43,28.99 L97.83,29.58 L97.01,29.80 L89.80,29.80 L88.99,29.58 L88.39,28.99 L88.17,28.17 L88.17,8.00 L88.17,8.00 Z" fill="#a3a3a3" stroke="#a3a3a3" stroke-width="1" stroke-linejoin="round" opacity="0.5"/><path d="M98.65,11.15 L98.65,18.20 L98.65,18.20 L2.87,18.20 L2.87,18.20 L2.87,11.15 L3.30,9.55 L4.48,8.37 L6.08,7.94 L95.44,7.94 L97.04,8.37 L98.22,9.55 L98.65,11.15 Z" fill="#949494" stroke="#1e1e1e" stroke-width="1" stroke-linejoin="round"/><path d="M4.34,71.49 L11.61,71.49 L12.42,71.71 L13.02,72.31 L13.24,73.13 L13.24,93.46 L13.24,93.46 L5.97,93.46 L4.70,93.23 L3.62,92.51 L2.92,91.42 L2.70,90.14 L2.70,73.24 L2.88,72.37 L3.49,71.73 L4.34,71.49 L4.34,71.49 Z" fill="#a3a3a3" stroke="#a3a3a3" stroke-width="1" stroke-linejoin="round"/><path d="M4.34,71.49 L11.61,71.49 L12.42,71.71 L13.02,72.31 L13.24,73.13 L13.24,93.46 L13.24,93.46 L5.97,93.46 L4.70,93.23 L3.62,92.51 L2.92,91.42 L2.70,90.14 L2.70,73.24 L2.88,72.37 L3.49,71.73 L4.34,71.49 L4.34,71.49 Z" fill="#a3a3a3" stroke="#a3a3a3" stroke-width="1" stroke-linejoin="round" opacity="0.5"/><path d="M89.80,71.49 L97.07,71.49 L97.89,71.71 L98.49,72.31 L98.70,73.13 L98.70,90.03 L98.27,91.63 L97.10,92.81 L95.49,93.24 L88.17,93.24 L88.17,93.24 L88.17,73.24 L88.35,72.37 L88.95,71.73 L89.80,71.49 L89.80,71.49 Z" fill="#a3a3a3" stroke="#a3a3a3" stroke-width="1" stroke-linejoin="round"/><path d="M89.80,71.49 L97.07,71.49 L97.89,71.71 L98.49,72.31 L98.70,73.13 L98.70,90.03 L98.27,91.63 L97.10,92.81 L95.49,93.24 L88.17,93.24 L88.17,93.24 L88.17,73.24 L88.35,72.37 L88.95,71.73 L89.80,71.49 L89.80,71.49 Z" fill="#a3a3a3" stroke="#a3a3a3" stroke-width="1" stroke-linejoin="round" opacity="0.5"/><path d="M2.70,90.25 L2.70,83.21 L2.70,83.21 L98.48,83.21 L98.48,83.21 L98.48,90.25 L98.05,91.86 L96.87,93.03 L95.27,93.46 L5.92,93.46 L4.31,93.03 L3.13,91.86 L2.70,90.25 Z" fill="#949494" stroke="#1e1e1e" stroke-width="1" stroke-linejoin="round"/><path d="M84.00,49.80 L73.75,39.44 L73.14,39.28 L72.85,39.83 L72.85,46.20 L72.70,46.62 L72.28,46.76 L42.76,46.76 L41.46,45.52 L39.86,44.73 L38.08,44.45 L35.81,44.66 L33.77,45.67 L32.23,47.35 L31.40,49.48 L31.40,51.76 L32.23,53.89 L33.77,55.57 L35.81,56.58 L38.08,56.79 L39.88,56.49 L41.50,55.68 L42.82,54.42 L72.28,54.42 L72.68,54.55 L72.85,54.93 L72.85,61.18 L73.17,61.68 L73.75,61.52 L84.00,51.32 L84.30,50.56 L84.00,49.80 Z" fill="#5ea0ef" stroke="#1e1e1e" stroke-width="1" stroke-linejoin="round"/><path d="M65.07,31.49 L54.82,21.30 L54.21,21.14 L53.92,21.69 L53.92,28.17 L53.79,28.56 L53.41,28.73 L34.93,28.73 L33.61,27.49 L31.99,26.70 L30.20,26.42 L27.94,26.80 L25.98,27.96 L24.57,29.76 L23.91,31.95 L24.09,34.23 L25.08,36.28 L26.74,37.85 L28.86,38.70 L31.15,38.72 L33.28,37.92 L34.99,36.39 L53.41,36.39 L53.77,36.54 L53.92,36.90 L53.92,42.87 L54.24,43.37 L54.82,43.21 L65.07,33.01 L65.37,32.25 L65.07,31.49 Z" fill="#6aa928" stroke="#1e1e1e" stroke-width="1" stroke-linejoin="round"/><path d="M65.07,68.45 L54.82,58.25 L54.21,58.10 L53.92,58.65 L53.92,64.85 L53.77,65.22 L53.41,65.41 L34.93,65.41 L33.61,64.17 L31.99,63.37 L30.20,63.10 L27.98,63.51 L26.06,64.69 L24.69,66.47 L24.04,68.63 L24.21,70.88 L25.18,72.92 L26.80,74.48 L28.88,75.35 L31.13,75.42 L33.26,74.69 L34.99,73.24 L53.41,73.24 L53.77,73.39 L53.92,73.75 L53.92,80.00 L54.24,80.49 L54.82,80.34 L65.07,70.14 L65.45,69.30 L65.07,68.45 Z" fill="#6aa928" stroke="#1e1e1e" stroke-width="1" stroke-linejoin="round"/></svg>