<svg xmlns="http://www.w3.org/2000/svg" viewBox="-2.00 4.04 100.00 87.93"><path d="M71.35,23.47 L66.55,23.47 L66.55,10.85 L66.48,10.85 L66.41,10.85 L30.18,10.85 L30.11,10.85 L30.04,10.85 L30.04,23.47 L25.24,23.47 L25.24,10.61 L25.68,8.81 L26.77,7.31 L28.35,6.34 L30.18,6.04 L66.41,6.04 L68.24,6.34 L69.81,7.31 L70.91,8.81 L71.35,10.61 L71.35,23.47 Z" fill="#a3a3a3" stroke="#1e1e1e" stroke-width="1" stroke-linejoin="round"/><path d="M92.80,22.92 L93.63,23.03 L94.40,23.35 L95.06,23.86 L95.57,24.52 L95.89,25.29 L96.00,26.12 L96.00,86.76 L95.89,87.59 L95.57,88.36 L95.06,89.03 L94.40,89.53 L93.63,89.85 L92.80,89.96 L3.20,89.96 L2.37,89.85 L1.60,89.53 L0.94,89.03 L0.43,88.36 L0.11,87.59 L0.00,86.76 L0.00,26.12 L0.11,25.29 L0.43,24.52 L0.94,23.86 L1.60,23.35 L2.37,23.03 L3.20,22.92 L92.80,22.92 Z" fill="#3990e4" stroke="#1e1e1e" stroke-width="1" stroke-linejoin="round"/><path d="M60.58,33.25 L57.88,33.33 L55.26,34.00 L52.86,35.23 L50.77,36.95 L49.12,39.08 L47.96,41.52 L46.79,39.09 L45.11,36.97 L43.01,35.26 L40.59,34.06 L37.97,33.40 L35.26,33.34 L33.25,33.63 L31.48,34.14 L29.93,34.84 L28.59,35.71 L27.44,36.72 L26.48,37.84 L25.68,39.06 L25.03,40.34 L24.13,42.99 L23.65,45.60 L23.48,47.96 L23.50,49.87 L23.60,51.34 L24.02,53.44 L25.02,56.17 L26.85,59.53 L28.17,61.46 L29.79,63.55 L31.75,65.80 L34.09,68.22 L36.84,70.79 L40.02,73.54 L43.68,76.45 L47.85,79.53 L48.05,79.67 L48.25,79.53 L52.41,76.42 L56.07,73.48 L59.25,70.71 L61.99,68.10 L64.33,65.66 L66.29,63.38 L67.90,61.26 L69.21,59.30 L71.03,55.87 L72.02,53.08 L72.42,50.94 L72.52,49.42 L72.51,47.56 L72.32,45.25 L71.81,42.69 L70.89,40.09 L70.22,38.84 L69.41,37.65 L68.44,36.55 L67.28,35.56 L65.94,34.71 L64.38,34.03 L62.60,33.53 L60.58,33.25 Z" fill="#f48a0e" stroke="#1e1e1e" stroke-width="1" stroke-linejoin="round"/><path d="M71.91,43.04 L71.97,46.48 L71.39,49.86 L70.19,53.08 L67.67,56.63 L64.65,59.75 L61.20,62.39 L57.38,64.47 L53.30,65.95 L52.03,64.94 L50.47,64.54 L48.82,64.79 L47.41,65.70 L46.51,67.11 L46.27,68.77 L46.74,70.38 L47.84,71.65 L49.36,72.35 L51.04,72.36 L52.57,71.67 L53.67,70.41 L54.16,68.81 L58.35,67.04 L62.31,64.81 L65.99,62.14 L69.33,59.07 L71.00,56.09 L72.06,52.85 L72.49,49.47 L72.44,46.23 L71.91,43.04 L71.91,43.04 Z" fill="#ffffff" stroke="#1e1e1e" stroke-width="1" stroke-linejoin="round" opacity="0.9"/><path d="M37.90,66.52 L38.91,67.67 L39.56,68.09 L40.34,68.14 L41.04,67.79 L43.32,65.75 L43.75,65.10 L43.79,64.32 L43.45,63.62 L42.84,63.13 L42.08,63.01 L41.35,63.29 L41.28,63.34 L41.21,63.41 L40.02,64.47 L37.46,61.47 L35.41,58.67 L33.87,56.08 L32.83,53.71 L32.31,51.59 L32.30,49.73 L32.81,48.15 L33.85,46.85 L35.26,45.99 L36.89,45.67 L38.75,45.90 L40.80,46.66 L43.04,47.94 L45.45,49.76 L48.02,52.09 L50.74,54.93 L49.55,56.00 L49.11,56.65 L49.06,57.43 L49.41,58.13 L49.41,58.13 L50.04,58.57 L50.79,58.63 L51.48,58.31 L51.48,58.31 L51.55,58.26 L53.80,56.25 L54.22,55.60 L54.26,54.82 L53.92,54.12 L52.91,53.01 L50.87,50.85 L48.55,48.70 L46.04,46.70 L43.41,44.99 L40.73,43.72 L38.08,43.01 L36.79,42.91 L35.54,43.01 L34.33,43.32 L33.18,43.86 L31.87,42.10 L31.01,40.08 L30.63,37.93 L30.87,35.91 L31.70,34.05 L29.60,34.99 L27.77,36.38 L27.62,38.99 L28.15,41.55 L29.30,43.89 L31.01,45.87 L30.36,46.95 L29.93,48.12 L29.70,49.35 L29.66,50.65 L30.08,53.35 L31.04,56.16 L32.44,58.96 L34.13,61.68 L36.00,64.23 L37.90,66.52 Z" fill="#ffffff" stroke="#1e1e1e" stroke-width="1" stroke-linejoin="round" opacity="0.9"/></svg>