<svg xmlns="http://www.w3.org/2000/svg" viewBox="4.36 4.36 100.00 100.00"><path d="M6.36,9.60 L6.36,99.12 L6.79,100.74 L7.98,101.93 L9.60,102.36 L99.12,102.36 L100.74,101.93 L101.93,100.74 L102.36,99.12 L102.36,9.60 L101.93,7.98 L100.74,6.79 L99.12,6.36 L9.60,6.36 L7.98,6.79 L6.79,7.98 L6.36,9.60 Z" fill="#0078d4" stroke="#1e1e1e" stroke-width="1" stroke-linejoin="round"/><path d="M93.72,93.60 L18.00,93.60 L16.38,93.17 L15.19,91.98 L14.76,90.36 L14.76,15.00 L93.72,15.00 L93.72,93.60 Z" fill="#ffffff" stroke="#1e1e1e" stroke-width="1" stroke-linejoin="round"/><path d="M21.72,21.72 L39.00,21.72 L39.00,39.00 L21.72,39.00 L21.72,21.72 Z" fill="#ffca00" stroke="#ffca00" stroke-width="1" stroke-linejoin="round"/><path d="M21.72,45.72 L39.00,45.72 L39.00,63.00 L21.72,63.00 L21.72,45.72 Z" fill="#e62323" stroke="#e62323" stroke-width="1" stroke-linejoin="round"/><path d="M45.72,45.72 L63.00,45.72 L63.00,63.00 L45.72,63.00 L45.72,45.72 Z" fill="#5ea0ef" stroke="#5ea0ef" stroke-width="1" stroke-linejoin="round"/><path d="M21.72,69.72 L39.00,69.72 L39.00,87.00 L21.72,87.00 L21.72,69.72 Z" fill="#975ae8" stroke="#975ae8" stroke-width="1" stroke-linejoin="round"/><path d="M45.72,69.72 L63.00,69.72 L63.00,87.00 L45.72,87.00 L45.72,69.72 Z" fill="#e62323" stroke="#e62323" stroke-width="1" stroke-linejoin="round"/><path d="M69.72,69.72 L87.00,69.72 L87.00,87.00 L69.72,87.00 L69.72,69.72 Z" fill="#975ae8" stroke="#975ae8" stroke-width="1" stroke-linejoin="round"/></svg>