<svg xmlns="http://www.w3.org/2000/svg" viewBox="3.65 3.65 89.33 89.33"><path d="M5.65,8.53 L5.65,88.11 L6.04,89.55 L7.09,90.60 L8.53,90.99 L88.11,90.99 L89.55,90.60 L90.60,89.55 L90.99,88.11 L90.99,8.53 L90.60,7.09 L89.55,6.04 L88.11,5.65 L8.53,5.65 L7.09,6.04 L6.04,7.09 L5.65,8.53 Z" fill="#0078d4" stroke="#1e1e1e" stroke-width="1" stroke-linejoin="round"/><path d="M83.31,83.20 L16.00,83.20 L14.56,82.81 L13.51,81.76 L13.12,80.32 L13.12,13.33 L83.31,13.33 L83.31,83.20 Z" fill="#ffffff" stroke="#1e1e1e" stroke-width="1" stroke-linejoin="round"/><path d="M19.31,19.31 L34.67,19.31 L34.67,34.67 L19.31,34.67 L19.31,19.31 Z" fill="#ffca00" stroke="#ffca00" stroke-width="1" stroke-linejoin="round"/><path d="M19.31,40.64 L34.67,40.64 L34.67,56.00 L19.31,56.00 L19.31,40.64 Z" fill="#e62323" stroke="#e62323" stroke-width="1" stroke-linejoin="round"/><path d="M40.64,40.64 L56.00,40.64 L56.00,56.00 L40.64,56.00 L40.64,40.64 Z" fill="#5ea0ef" stroke="#5ea0ef" stroke-width="1" stroke-linejoin="round"/><path d="M19.31,61.97 L34.67,61.97 L34.67,77.33 L19.31,77.33 L19.31,61.97 Z" fill="#975ae8" stroke="#975ae8" stroke-width="1" stroke-linejoin="round"/><path d="M40.64,61.97 L56.00,61.97 L56.00,77.33 L40.64,77.33 L40.64,61.97 Z" fill="#e62323" stroke="#e62323" stroke-width="1" stroke-linejoin="round"/><path d="M61.97,61.97 L77.33,61.97 L77.33,77.33 L61.97,77.33 L61.97,61.97 Z" fill="#975ae8" stroke="#975ae8" stroke-width="1" stroke-linejoin="round"/></svg>