<svg xmlns="http://www.w3.org/2000/svg" viewBox="-1.26 -1.26 100.00 100.00"><ellipse cx="48.74" cy="48.74" rx="48.00" ry="48.00" fill="#3a90e5" stroke="#1e1e1e" stroke-width="1"/><ellipse cx="48.74" cy="48.74" rx="40.00" ry="40.00" fill="#ffffff" stroke="#1e1e1e" stroke-width="1"/><path d="M51.08,46.93 L51.08,40.48 L46.54,40.48 L46.54,46.93 L46.28,47.57 L45.63,47.84 L28.55,47.84 L27.64,48.08 L26.98,48.74 L26.74,49.65 L26.74,58.02 L31.28,58.02 L31.28,53.38 L31.54,52.74 L32.18,52.48 L65.24,52.48 L65.88,52.74 L66.15,53.38 L66.15,58.12 L70.69,58.12 L70.69,49.65 L70.44,48.74 L69.78,48.08 L68.87,47.84 L51.99,47.84 L51.35,47.57 L51.08,46.93 Z" fill="#0078d4" stroke="#1e1e1e" stroke-width="1" stroke-linejoin="round"/><path d="M57.14,20.92 L40.13,20.92 L39.19,21.17 L38.50,21.86 L38.25,22.79 L38.25,39.81 L38.50,40.75 L39.19,41.45 L40.13,41.70 L57.14,41.70 L58.09,41.45 L58.78,40.76 L59.03,39.81 L59.03,22.79 L58.78,21.85 L58.09,21.16 L57.14,20.92 L57.14,20.92 Z" fill="#ffffff" stroke="#1e1e1e" stroke-width="1" stroke-linejoin="round"/><path d="M57.14,20.92 L40.13,20.92 L39.19,21.17 L38.50,21.86 L38.25,22.79 L38.25,39.81 L38.50,40.75 L39.19,41.45 L40.13,41.70 L57.14,41.70 L58.09,41.45 L58.78,40.76 L59.03,39.81 L59.03,22.79 L58.78,21.85 L58.09,21.16 L57.14,20.92 L57.14,20.92 Z" fill="#a67af4" stroke="#a67af4" stroke-width="1" stroke-linejoin="round"/><path d="M55.52,36.95 L55.15,37.83 L54.27,38.19 L42.99,38.19 L42.11,37.83 L41.74,36.95 L41.74,25.65 L42.11,24.77 L42.99,24.41 L54.28,24.41 L55.16,24.77 L55.53,25.65 L55.52,36.95 Z" fill="#ffffff" stroke="#ffffff" stroke-width="1" stroke-linejoin="round"/><path d="M36.37,71.41 L36.37,59.57 L36.16,58.82 L35.61,58.26 L34.86,58.06 L23.02,58.06 L22.27,58.26 L21.71,58.82 L21.51,59.57 L21.51,71.41 L21.71,72.17 L22.27,72.72 L23.02,72.92 L34.86,72.92 L35.61,72.72 L36.17,72.16 L36.37,71.41 Z" fill="#6aa929" stroke="#6aa929" stroke-width="1" stroke-linejoin="round"/><path d="M75.92,71.41 L75.92,59.57 L75.72,58.82 L75.16,58.26 L74.41,58.06 L62.57,58.06 L61.81,58.26 L61.26,58.82 L61.06,59.57 L61.06,71.41 L61.26,72.17 L61.81,72.72 L62.57,72.92 L74.41,72.92 L75.16,72.72 L75.72,72.16 L75.92,71.41 Z" fill="#6aa929" stroke="#6aa929" stroke-width="1" stroke-linejoin="round"/></svg>