<svg xmlns="http://www.w3.org/2000/svg" viewBox="0.78 -2.00 94.44 100.00"><path d="M38.22,42.36 L37.31,43.54 L36.15,44.42 L34.80,44.98 L33.33,45.18 L12.14,45.18 L11.41,45.08 L10.74,44.80 L10.17,44.37 L9.72,43.78 L3.16,32.47 L2.88,31.79 L2.78,31.06 L2.88,30.34 L3.16,29.65 L9.71,18.36 L10.17,17.77 L10.75,17.32 L11.43,17.04 L12.16,16.94 L25.16,16.94 L25.90,17.04 L26.57,17.32 L27.16,17.77 L27.61,18.36 L30.89,24.00 L38.23,36.70 L38.80,38.08 L38.99,39.54 L38.80,40.99 L38.23,42.37 L38.22,42.37 L38.22,42.36 Z" fill="#86d633" stroke="#1e1e1e" stroke-width="1" stroke-linejoin="round"/><path d="M63.47,15.52 L60.25,21.18 L52.91,33.87 L52.00,35.05 L50.83,35.95 L49.48,36.51 L47.99,36.71 L46.51,36.51 L45.15,35.95 L43.99,35.05 L43.07,33.87 L35.74,21.18 L32.52,15.53 L32.23,14.84 L32.14,14.11 L32.23,13.39 L32.52,12.70 L39.00,1.45 L39.46,0.85 L40.05,0.39 L40.75,0.10 L41.50,0.00 L54.54,0.00 L55.27,0.10 L55.94,0.38 L56.52,0.82 L56.98,1.41 L63.47,12.71 L63.76,13.39 L63.85,14.11 L63.76,14.83 L63.47,15.52 Z" fill="#ffd400" stroke="#1e1e1e" stroke-width="1" stroke-linejoin="round"/><path d="M38.22,53.63 L38.79,55.01 L38.98,56.46 L38.79,57.92 L38.22,59.30 L30.88,72.00 L27.61,77.64 L27.15,78.23 L26.57,78.68 L25.90,78.96 L25.16,79.06 L12.16,79.06 L11.42,78.96 L10.74,78.68 L10.16,78.23 L9.71,77.64 L3.16,66.35 L2.87,65.66 L2.78,64.94 L2.87,64.21 L3.16,63.53 L9.72,52.22 L10.17,51.63 L10.74,51.20 L11.40,50.92 L12.13,50.82 L33.33,50.82 L34.80,51.02 L36.15,51.58 L37.31,52.46 L38.22,53.64 L38.22,53.64 L38.22,53.63 Z" fill="#5ea0ef" stroke="#1e1e1e" stroke-width="1" stroke-linejoin="round"/><path d="M92.83,32.47 L86.28,43.76 L85.83,44.35 L85.25,44.80 L84.57,45.08 L83.83,45.18 L62.66,45.18 L61.19,44.98 L59.84,44.42 L58.68,43.54 L57.77,42.36 L57.20,40.98 L57.01,39.53 L57.20,38.08 L57.77,36.70 L65.11,24.00 L68.38,18.35 L68.83,17.76 L69.42,17.32 L70.09,17.04 L70.83,16.94 L83.83,16.94 L84.57,17.04 L85.24,17.32 L85.83,17.76 L86.28,18.35 L92.83,29.65 L93.12,30.33 L93.21,31.06 L93.12,31.78 L92.83,32.47 L92.83,32.47 Z" fill="#faa21d" stroke="#1e1e1e" stroke-width="1" stroke-linejoin="round"/><path d="M92.83,66.35 L86.27,77.66 L85.82,78.24 L85.25,78.68 L84.58,78.96 L83.86,79.05 L70.81,79.05 L70.08,78.96 L69.42,78.68 L68.84,78.24 L68.40,77.66 L65.11,72.00 L57.77,59.30 L57.20,57.92 L57.01,56.46 L57.20,55.01 L57.77,53.63 L58.68,52.46 L59.84,51.57 L61.19,51.01 L62.66,50.82 L83.84,50.82 L84.57,50.92 L85.25,51.20 L85.83,51.64 L86.29,52.23 L92.84,63.53 L93.12,64.21 L93.22,64.94 L93.12,65.66 L92.84,66.35 L92.84,66.35 L92.83,66.35 Z" fill="#f04049" stroke="#1e1e1e" stroke-width="1" stroke-linejoin="round"/><path d="M63.47,83.29 L56.97,94.59 L56.52,95.18 L55.94,95.62 L55.27,95.90 L54.53,96.00 L41.50,96.00 L40.74,95.90 L40.05,95.61 L39.45,95.15 L38.99,94.55 L32.52,83.30 L32.24,82.61 L32.14,81.89 L32.24,81.17 L32.52,80.48 L35.75,74.82 L43.09,62.13 L44.00,60.95 L45.16,60.05 L46.52,59.49 L48.00,59.29 L49.48,59.49 L50.84,60.05 L52.01,60.95 L52.92,62.13 L60.26,74.82 L63.48,80.48 L63.76,81.17 L63.86,81.89 L63.76,82.61 L63.48,83.30 L63.47,83.30 L63.47,83.29 Z" fill="#a67af4" stroke="#1e1e1e" stroke-width="1" stroke-linejoin="round"/><path d="M33.34,50.82 L25.41,50.82 L25.41,58.42 L25.57,59.60 L26.02,60.68 L26.73,61.61 L27.67,62.33 L34.27,66.15 L38.23,59.30 L38.80,57.92 L38.99,56.46 L38.80,55.01 L38.23,53.63 L37.32,52.46 L36.16,51.57 L34.81,51.01 L33.34,50.82 Z" fill="#b7d2f9" stroke="#b7d2f9" stroke-width="1" stroke-linejoin="round"/><path d="M48.00,59.29 L46.52,59.49 L45.16,60.05 L43.99,60.95 L43.08,62.13 L39.13,68.96 L45.74,72.77 L46.83,73.23 L47.99,73.38 L49.15,73.23 L50.25,72.77 L56.86,68.96 L52.91,62.13 L52.00,60.95 L50.83,60.05 L49.48,59.49 L47.99,59.29 L48.00,59.29 Z" fill="#d2bff9" stroke="#d2bff9" stroke-width="1" stroke-linejoin="round"/><path d="M62.66,45.18 L70.58,45.18 L70.58,37.57 L70.43,36.39 L69.98,35.31 L69.26,34.38 L68.32,33.66 L61.72,29.85 L57.76,36.70 L57.19,38.08 L57.00,39.54 L57.19,40.99 L57.76,42.37 L58.67,43.54 L59.83,44.43 L61.18,44.99 L62.65,45.18 L62.65,45.18 L62.66,45.18 Z" fill="#f7cc88" stroke="#f7cc88" stroke-width="1" stroke-linejoin="round"/><path d="M70.58,50.82 L62.66,50.82 L61.19,51.01 L59.84,51.57 L58.68,52.46 L57.77,53.63 L57.20,55.01 L57.01,56.46 L57.20,57.92 L57.77,59.30 L61.73,66.15 L68.33,62.34 L69.27,61.62 L69.98,60.69 L70.43,59.61 L70.59,58.43 L70.59,50.82 L70.58,50.82 Z" fill="#f6a9af" stroke="#f6a9af" stroke-width="1" stroke-linejoin="round"/><path d="M45.74,23.22 L39.13,27.03 L43.08,33.86 L43.99,35.05 L45.16,35.94 L46.51,36.51 L48.00,36.70 L49.48,36.51 L50.84,35.94 L52.00,35.05 L52.91,33.86 L56.87,27.03 L50.26,23.22 L49.16,22.77 L48.00,22.62 L46.84,22.77 L45.74,23.22 Z" fill="#fbe981" stroke="#fbe981" stroke-width="1" stroke-linejoin="round"/><path d="M34.26,29.84 L27.67,33.65 L26.73,34.38 L26.01,35.30 L25.56,36.39 L25.41,37.57 L25.41,45.18 L33.33,45.18 L34.80,44.98 L36.15,44.42 L37.31,43.54 L38.22,42.36 L38.79,40.98 L38.98,39.53 L38.79,38.08 L38.22,36.70 L34.26,29.84 L34.26,29.84 L34.26,29.84 Z" fill="#c4ea8b" stroke="#c4ea8b" stroke-width="1" stroke-linejoin="round"/></svg>