<svg xmlns="http://www.w3.org/2000/svg" viewBox="-2.00 -2.11 100.00 100.21"><path d="M73.87,48.25 L58.34,48.25 L55.84,47.85 L53.58,46.70 L51.79,44.91 L50.64,42.66 L50.25,40.15 L50.25,23.09 L45.75,23.09 L45.75,40.16 L45.36,42.66 L44.21,44.92 L42.42,46.71 L40.16,47.85 L37.66,48.25 L22.13,48.25 L20.15,48.56 L18.37,49.47 L16.95,50.89 L16.04,52.67 L15.73,54.65 L15.73,67.12 L20.21,67.12 L20.21,54.63 L20.47,53.69 L21.16,52.99 L22.11,52.74 L37.66,52.74 L40.25,52.48 L42.73,51.68 L44.99,50.39 L46.93,48.67 L47.62,48.25 L48.42,48.25 L49.11,48.67 L51.05,50.39 L53.31,51.68 L55.78,52.47 L58.36,52.74 L73.89,52.74 L74.84,52.99 L75.53,53.69 L75.79,54.63 L75.79,67.10 L80.27,67.10 L80.27,54.63 L79.95,52.66 L79.04,50.88 L77.63,49.47 L75.85,48.56 L73.87,48.25 L73.87,48.25 Z" fill="#0078d4" stroke="#1e1e1e" stroke-width="1" stroke-linejoin="round"/><path d="M62.77,-0.11 L63.60,0.00 L64.38,0.32 L65.05,0.84 L65.56,1.50 L65.88,2.28 L65.99,3.11 L65.99,32.66 L65.88,33.49 L65.56,34.27 L65.05,34.93 L64.38,35.45 L63.60,35.77 L62.77,35.88 L33.23,35.88 L32.39,35.77 L31.62,35.45 L30.95,34.93 L30.44,34.27 L30.12,33.49 L30.01,32.66 L30.01,3.11 L30.12,2.28 L30.44,1.50 L30.95,0.84 L31.62,0.32 L32.39,0.00 L33.23,-0.11 L62.77,-0.11 Z" fill="#76e8ff" stroke="#1e1e1e" stroke-width="1" stroke-linejoin="round"/><path d="M32.76,60.12 L33.60,60.23 L34.37,60.55 L35.04,61.07 L35.55,61.73 L35.87,62.51 L35.98,63.34 L35.98,92.89 L35.87,93.72 L35.55,94.50 L35.04,95.16 L34.37,95.68 L33.60,96.00 L32.76,96.11 L3.22,96.11 L2.39,96.00 L1.61,95.68 L0.94,95.16 L0.43,94.50 L0.11,93.72 L0.00,92.89 L0.00,63.34 L0.11,62.51 L0.43,61.73 L0.94,61.07 L1.61,60.55 L2.39,60.23 L3.22,60.12 L32.76,60.12 Z" fill="#9de135" stroke="#1e1e1e" stroke-width="1" stroke-linejoin="round"/><path d="M96.00,92.89 L95.89,93.72 L95.57,94.50 L95.06,95.16 L94.39,95.68 L93.61,96.00 L92.78,96.11 L63.24,96.11 L62.40,96.00 L61.63,95.68 L60.96,95.16 L60.45,94.50 L60.13,93.72 L60.02,92.89 L60.02,63.34 L60.13,62.51 L60.45,61.73 L60.96,61.07 L61.63,60.55 L62.40,60.23 L63.24,60.12 L92.78,60.12 L93.61,60.23 L94.39,60.55 L95.06,61.07 L95.57,61.73 L95.89,62.51 L96.00,63.34 L96.00,92.89 Z" fill="#9de135" stroke="#1e1e1e" stroke-width="1" stroke-linejoin="round"/></svg>