<svg xmlns="http://www.w3.org/2000/svg" viewBox="-2.00 -2.11 99.79 100.00"><path d="M73.71,48.14 L58.21,48.14 L55.72,47.75 L53.46,46.60 L51.68,44.81 L50.53,42.56 L50.13,40.07 L50.13,23.04 L45.65,23.04 L45.65,40.07 L45.26,42.57 L44.11,44.82 L42.32,46.60 L40.07,47.75 L37.58,48.14 L22.08,48.14 L20.11,48.46 L18.33,49.36 L16.91,50.78 L16.01,52.56 L15.69,54.53 L15.69,66.97 L20.17,66.97 L20.17,54.51 L20.42,53.57 L21.12,52.88 L22.06,52.62 L37.58,52.62 L40.16,52.36 L42.63,51.57 L44.89,50.28 L46.83,48.56 L47.51,48.14 L48.32,48.14 L49.00,48.56 L50.94,50.28 L53.19,51.56 L55.66,52.36 L58.23,52.62 L73.73,52.62 L74.68,52.88 L75.37,53.57 L75.62,54.51 L75.62,66.96 L80.09,66.96 L80.09,54.51 L79.78,52.54 L78.87,50.77 L77.46,49.36 L75.68,48.46 L73.71,48.14 L73.71,48.14 Z" fill="#0078d4" stroke="#1e1e1e" stroke-width="1" stroke-linejoin="round"/><path d="M62.63,-0.11 L63.46,0.00 L64.24,0.32 L64.90,0.83 L65.41,1.50 L65.73,2.28 L65.84,3.11 L65.84,32.58 L65.73,33.42 L65.41,34.19 L64.90,34.86 L64.24,35.37 L63.46,35.69 L62.63,35.80 L33.15,35.80 L32.32,35.69 L31.55,35.37 L30.88,34.86 L30.37,34.19 L30.05,33.42 L29.94,32.58 L29.94,3.11 L30.05,2.28 L30.37,1.50 L30.88,0.83 L31.55,0.32 L32.32,0.00 L33.15,-0.11 L62.63,-0.11 Z" fill="#76e8ff" stroke="#1e1e1e" stroke-width="1" stroke-linejoin="round"/><path d="M32.69,59.99 L33.52,60.10 L34.30,60.42 L34.96,60.93 L35.47,61.60 L35.79,62.37 L35.90,63.20 L35.90,92.68 L35.79,93.51 L35.47,94.29 L34.96,94.95 L34.30,95.46 L33.52,95.78 L32.69,95.89 L3.21,95.89 L2.38,95.78 L1.61,95.46 L0.94,94.95 L0.43,94.29 L0.11,93.51 L0.00,92.68 L0.00,63.20 L0.11,62.37 L0.43,61.60 L0.94,60.93 L1.61,60.42 L2.38,60.10 L3.21,59.99 L32.69,59.99 Z" fill="#9de135" stroke="#1e1e1e" stroke-width="1" stroke-linejoin="round"/><path d="M95.79,92.68 L95.68,93.51 L95.36,94.29 L94.85,94.95 L94.18,95.46 L93.40,95.78 L92.57,95.89 L63.10,95.89 L62.27,95.78 L61.49,95.46 L60.82,94.95 L60.31,94.29 L59.99,93.51 L59.88,92.68 L59.88,63.20 L59.99,62.37 L60.31,61.60 L60.82,60.93 L61.49,60.42 L62.27,60.10 L63.10,59.99 L92.57,59.99 L93.40,60.10 L94.18,60.42 L94.85,60.93 L95.36,61.60 L95.68,62.37 L95.79,63.20 L95.79,92.68 Z" fill="#9de135" stroke="#1e1e1e" stroke-width="1" stroke-linejoin="round"/></svg>