<svg xmlns="http://www.w3.org/2000/svg" viewBox="-2.00 -2.11 100.00 100.21"><path d="M73.87,48.25 L58.34,48.25 L55.84,47.85 L53.58,46.70 L51.79,44.91 L50.64,42.66 L50.25,40.15 L50.25,23.09 L45.75,23.09 L45.75,40.16 L45.36,42.66 L44.21,44.92 L42.42,46.71 L40.16,47.85 L37.66,48.25 L22.13,48.25 L20.15,48.56 L18.37,49.47 L16.95,50.89 L16.04,52.67 L15.73,54.65 L15.73,67.12 L20.21,67.12 L20.21,54.63 L20.47,53.69 L21.16,52.99 L22.11,52.74 L37.66,52.74 L40.25,52.48 L42.73,51.68 L44.99,50.39 L46.93,48.67 L47.62,48.25 L48.42,48.25 L49.11,48.67 L51.05,50.39 L53.31,51.68 L55.78,52.47 L58.36,52.74 L73.89,52.74 L74.84,52.99 L75.53,53.69 L75.79,54.63 L75.79,67.10 L80.27,67.10 L80.27,54.63 L79.95,52.66 L79.04,50.88 L77.63,49.47 L75.85,48.56 L73.87,48.25 L73.87,48.25 Z" fill="#0078d4" stroke="#1e1e1e" stroke-width="1" stroke-linejoin="round"/><rect x="30.01" y="-0.11" width="35.98" height="35.98" fill="#76e8ff" stroke="#1e1e1e" stroke-width="1"/><rect x="0.00" y="60.12" width="35.98" height="35.98" fill="#9de135" stroke="#1e1e1e" stroke-width="1"/><path d="M96.00,60.12 L96.00,96.11 L60.02,96.11 L60.02,60.12 L96.00,60.12 Z" fill="#9de135" stroke="#1e1e1e" stroke-width="1" stroke-linejoin="round"/></svg>