<svg xmlns="http://www.w3.org/2000/svg" viewBox="0.23 5.37 100.00 89.72"><path d="M96.95,44.98 L97.29,45.02 L97.59,45.15 L97.86,45.35 L98.06,45.61 L98.19,45.92 L98.23,46.25 L98.23,63.16 L98.19,63.49 L98.06,63.80 L97.86,64.06 L97.59,64.26 L97.29,64.39 L96.95,64.44 L95.79,64.44 L95.46,64.39 L95.15,64.26 L94.88,64.06 L94.68,63.80 L94.55,63.49 L94.51,63.16 L94.51,46.25 L94.55,45.92 L94.68,45.61 L94.88,45.35 L95.15,45.15 L95.46,45.02 L95.79,44.98 L96.95,44.98 Z" fill="#0078d4" stroke="#0078d4" stroke-width="1" stroke-linejoin="round"/><path d="M96.95,68.11 L97.29,68.15 L97.59,68.28 L97.86,68.48 L98.06,68.75 L98.19,69.05 L98.23,69.39 L98.23,73.83 L98.19,74.16 L98.06,74.47 L97.86,74.73 L97.59,74.93 L97.29,75.06 L96.95,75.11 L95.79,75.11 L95.46,75.06 L95.15,74.93 L94.88,74.73 L94.68,74.47 L94.55,74.16 L94.51,73.83 L94.51,69.39 L94.55,69.05 L94.68,68.75 L94.88,68.48 L95.15,68.28 L95.46,68.15 L95.79,68.11 L96.95,68.11 Z" fill="#0078d4" stroke="#0078d4" stroke-width="1" stroke-linejoin="round"/><path d="M58.63,31.63 L87.43,31.63 L88.07,31.90 L88.34,32.54 L88.34,39.23 L88.34,39.23 L57.73,39.23 L57.73,39.23 L57.73,32.54 L57.99,31.90 L58.63,31.63 L58.63,31.63 Z" fill="#005ba1" stroke="#005ba1" stroke-width="1" stroke-linejoin="round"/><path d="M57.73,85.69 L88.34,85.69 L88.34,85.69 L88.34,92.20 L88.08,92.83 L87.45,93.09 L58.60,93.09 L57.97,92.83 L57.70,92.20 L57.70,85.69 L57.73,85.69 Z" fill="#005ba1" stroke="#005ba1" stroke-width="1" stroke-linejoin="round"/><path d="M93.73,37.07 L94.27,37.14 L94.77,37.35 L95.20,37.68 L95.53,38.11 L95.73,38.61 L95.80,39.14 L95.80,83.62 L95.73,84.16 L95.53,84.66 L95.20,85.09 L94.77,85.41 L94.27,85.62 L93.73,85.69 L52.39,85.69 L51.85,85.62 L51.35,85.41 L50.92,85.09 L50.59,84.66 L50.39,84.16 L50.32,83.62 L50.32,39.14 L50.39,38.61 L50.59,38.11 L50.92,37.68 L51.35,37.35 L51.85,37.14 L52.39,37.07 L93.73,37.07 Z" fill="#2f8ce2" stroke="#1e1e1e" stroke-width="1" stroke-linejoin="round"/><path d="M90.51,41.09 L90.96,41.15 L91.38,41.32 L91.74,41.60 L92.01,41.96 L92.19,42.37 L92.24,42.82 L92.24,79.94 L92.19,80.39 L92.01,80.80 L91.74,81.16 L91.38,81.44 L90.96,81.61 L90.51,81.67 L56.04,81.67 L55.59,81.61 L55.18,81.44 L54.82,81.16 L54.54,80.80 L54.37,80.39 L54.31,79.94 L54.31,42.82 L54.37,42.37 L54.54,41.96 L54.82,41.60 L55.18,41.32 L55.59,41.15 L56.04,41.09 L90.51,41.09 Z" fill="#005ba1" stroke="#1e1e1e" stroke-width="1" stroke-linejoin="round"/><path d="M77.83,43.65 L75.91,43.93 L74.28,44.99 L73.26,46.64 L72.23,44.99 L70.60,43.94 L68.67,43.68 L67.29,43.97 L66.25,44.54 L65.48,45.31 L64.96,46.22 L64.46,48.13 L64.40,49.67 L64.59,50.97 L64.95,51.95 L65.62,53.17 L66.68,54.63 L68.24,56.32 L70.39,58.25 L73.22,60.42 L73.30,60.47 L73.37,60.41 L76.20,58.23 L78.35,56.28 L79.90,54.57 L80.96,53.09 L81.62,51.85 L81.98,50.84 L82.16,49.51 L82.09,48.00 L81.57,46.13 L81.03,45.24 L80.26,44.48 L79.21,43.93 L77.83,43.65 Z" fill="#f8971e" stroke="#f8971e" stroke-width="1" stroke-linejoin="round"/><path d="M92.18,65.29 L81.29,65.29 L81.14,65.33 L81.03,65.43 L78.55,69.69 L78.35,69.84 L78.10,69.79 L78.05,69.75 L78.00,69.69 L74.46,63.00 L74.10,62.67 L73.62,62.70 L73.45,62.82 L73.32,63.00 L69.93,73.11 L69.75,73.28 L69.50,73.27 L69.50,73.27 L69.41,73.20 L69.34,73.11 L66.46,66.37 L66.08,66.06 L65.60,66.10 L65.44,66.22 L65.33,66.37 L61.35,73.52 L61.24,73.64 L61.08,73.68 L54.13,73.68 L54.13,76.18 L62.56,76.18 L62.72,76.14 L62.83,76.02 L65.31,71.46 L65.50,71.30 L65.75,71.33 L65.82,71.38 L65.88,71.46 L69.27,79.35 L69.60,79.70 L70.08,79.72 L70.31,79.58 L70.45,79.35 L74.03,68.74 L74.19,68.58 L74.42,68.57 L74.52,68.64 L74.59,68.74 L77.58,74.41 L77.94,74.70 L78.41,74.66 L78.55,74.55 L78.66,74.41 L82.47,68.01 L82.58,67.89 L82.73,67.85 L92.17,67.85 L92.18,65.29 Z" fill="#ffffff" stroke="#1e1e1e" stroke-width="1" stroke-linejoin="round"/><path d="M48.07,39.42 L48.40,37.76 L49.33,36.36 L50.73,35.43 L52.39,35.10 L55.48,35.10 L55.48,32.81 L55.90,31.23 L57.05,30.08 L58.63,29.65 L75.78,29.65 L74.70,25.06 L72.79,20.74 L70.14,16.83 L66.83,13.47 L62.96,10.77 L58.66,8.81 L54.08,7.67 L49.37,7.37 L44.69,7.70 L40.13,8.84 L35.84,10.77 L31.96,13.42 L28.60,16.70 L25.87,20.53 L23.86,24.77 L19.59,25.68 L15.55,27.33 L11.87,29.66 L8.66,32.60 L6.01,36.07 L4.02,39.95 L2.75,44.12 L2.23,48.45 L2.78,52.77 L4.06,56.93 L6.04,60.80 L8.67,64.27 L11.86,67.23 L15.51,69.59 L19.52,71.29 L23.76,72.26 L28.10,72.49 L48.07,72.49 L48.07,39.42 Z" fill="#3d92e5" stroke="#1e1e1e" stroke-width="1" stroke-linejoin="round"/></svg>