<svg xmlns="http://www.w3.org/2000/svg" viewBox="0.13 5.05 95.74 85.92"><path d="M92.66,42.98 L92.97,43.02 L93.27,43.14 L93.52,43.34 L93.71,43.59 L93.84,43.89 L93.88,44.20 L93.88,60.36 L93.84,60.67 L93.71,60.97 L93.52,61.22 L93.27,61.42 L92.97,61.54 L92.66,61.58 L91.54,61.58 L91.23,61.54 L90.93,61.42 L90.68,61.22 L90.48,60.97 L90.36,60.67 L90.32,60.36 L90.32,44.20 L90.36,43.89 L90.48,43.59 L90.68,43.34 L90.93,43.14 L91.23,43.02 L91.54,42.98 L92.66,42.98 Z" fill="#0078d4" stroke="#0078d4" stroke-width="1" stroke-linejoin="round"/><path d="M92.66,65.09 L92.97,65.13 L93.27,65.25 L93.52,65.45 L93.71,65.70 L93.84,65.99 L93.88,66.31 L93.88,70.55 L93.84,70.87 L93.71,71.17 L93.52,71.42 L93.27,71.61 L92.97,71.73 L92.66,71.78 L91.54,71.78 L91.23,71.73 L90.93,71.61 L90.68,71.42 L90.48,71.17 L90.36,70.87 L90.32,70.55 L90.32,66.31 L90.36,65.99 L90.48,65.70 L90.68,65.45 L90.93,65.25 L91.23,65.13 L91.54,65.09 L92.66,65.09 Z" fill="#0078d4" stroke="#0078d4" stroke-width="1" stroke-linejoin="round"/><path d="M56.03,30.23 L83.56,30.23 L84.17,30.48 L84.42,31.09 L84.42,37.49 L84.42,37.49 L55.17,37.49 L55.17,37.49 L55.17,31.09 L55.42,30.48 L56.03,30.23 L56.03,30.23 Z" fill="#005ba1" stroke="#005ba1" stroke-width="1" stroke-linejoin="round"/><path d="M55.17,81.89 L84.43,81.89 L84.43,81.89 L84.43,88.11 L84.18,88.72 L83.57,88.97 L56.00,88.97 L55.40,88.72 L55.15,88.11 L55.15,81.89 L55.17,81.89 Z" fill="#005ba1" stroke="#005ba1" stroke-width="1" stroke-linejoin="round"/><path d="M89.58,35.43 L90.09,35.50 L90.57,35.69 L90.98,36.01 L91.29,36.42 L91.49,36.90 L91.56,37.41 L91.56,79.91 L91.49,80.43 L91.29,80.90 L90.98,81.31 L90.57,81.63 L90.09,81.83 L89.58,81.89 L50.06,81.89 L49.55,81.83 L49.07,81.63 L48.66,81.31 L48.35,80.90 L48.15,80.43 L48.09,79.91 L48.09,37.41 L48.15,36.90 L48.35,36.42 L48.66,36.01 L49.07,35.69 L49.55,35.50 L50.06,35.43 L89.58,35.43 Z" fill="#2f8ce2" stroke="#1e1e1e" stroke-width="1" stroke-linejoin="round"/><path d="M86.50,39.27 L86.93,39.33 L87.33,39.49 L87.67,39.75 L87.93,40.10 L88.10,40.49 L88.15,40.92 L88.15,76.39 L88.10,76.82 L87.93,77.22 L87.67,77.56 L87.33,77.83 L86.93,77.99 L86.50,78.05 L53.56,78.05 L53.13,77.99 L52.73,77.83 L52.39,77.56 L52.13,77.22 L51.96,76.82 L51.90,76.39 L51.90,40.92 L51.96,40.49 L52.13,40.10 L52.39,39.75 L52.73,39.49 L53.13,39.33 L53.56,39.27 L86.50,39.27 Z" fill="#005ba1" stroke="#1e1e1e" stroke-width="1" stroke-linejoin="round"/><path d="M74.38,41.72 L72.54,41.98 L70.99,42.99 L70.02,44.58 L69.03,43.00 L67.47,41.99 L65.62,41.74 L64.31,42.02 L63.31,42.57 L62.58,43.31 L62.08,44.17 L61.60,45.99 L61.55,47.47 L61.73,48.71 L62.08,49.65 L62.71,50.82 L63.73,52.21 L65.22,53.82 L67.27,55.67 L69.98,57.74 L70.05,57.79 L70.12,57.73 L72.82,55.65 L74.88,53.79 L76.36,52.15 L77.37,50.74 L78.00,49.55 L78.34,48.58 L78.52,47.31 L78.45,45.87 L77.95,44.08 L77.44,43.24 L76.70,42.51 L75.70,41.98 L74.38,41.72 Z" fill="#f8971e" stroke="#f8971e" stroke-width="1" stroke-linejoin="round"/><path d="M88.10,62.40 L77.69,62.40 L77.55,62.44 L77.43,62.53 L75.07,66.60 L74.88,66.74 L74.64,66.70 L74.59,66.65 L74.54,66.60 L71.16,60.20 L70.82,59.89 L70.36,59.92 L70.19,60.04 L70.07,60.20 L66.83,69.87 L66.65,70.03 L66.42,70.02 L66.42,70.02 L66.33,69.96 L66.27,69.87 L63.51,63.43 L63.15,63.13 L62.69,63.17 L62.54,63.28 L62.43,63.43 L58.63,70.26 L58.52,70.37 L58.37,70.42 L51.73,70.42 L51.73,72.80 L59.79,72.80 L59.94,72.77 L60.04,72.65 L62.41,68.29 L62.60,68.14 L62.83,68.17 L62.90,68.22 L62.95,68.29 L66.20,75.83 L66.51,76.17 L66.97,76.19 L67.19,76.05 L67.33,75.83 L70.75,65.70 L70.90,65.54 L71.12,65.53 L71.22,65.60 L71.29,65.70 L74.14,71.11 L74.49,71.39 L74.93,71.35 L75.07,71.25 L75.17,71.11 L78.81,64.99 L78.92,64.88 L79.06,64.84 L88.08,64.84 L88.10,62.40 Z" fill="#ffffff" stroke="#1e1e1e" stroke-width="1" stroke-linejoin="round"/><path d="M45.94,37.67 L46.25,36.09 L47.15,34.75 L48.49,33.86 L50.06,33.54 L53.02,33.54 L53.02,31.35 L53.42,29.85 L54.52,28.74 L56.03,28.34 L72.42,28.34 L71.38,23.95 L69.57,19.82 L67.03,16.09 L63.86,12.88 L60.17,10.29 L56.06,8.42 L51.69,7.33 L47.18,7.05 L42.70,7.36 L38.35,8.45 L34.25,10.29 L30.54,12.82 L27.34,15.96 L24.73,19.62 L22.80,23.67 L18.72,24.54 L14.87,26.11 L11.34,28.34 L8.27,31.16 L5.75,34.47 L3.84,38.18 L2.63,42.17 L2.13,46.30 L2.65,50.43 L3.88,54.40 L5.78,58.10 L8.29,61.42 L11.33,64.25 L14.82,66.51 L18.65,68.13 L22.71,69.06 L26.86,69.27 L45.94,69.27 L45.94,37.67 Z" fill="#3d92e5" stroke="#1e1e1e" stroke-width="1" stroke-linejoin="round"/></svg>