<svg xmlns="http://www.w3.org/2000/svg" viewBox="-2.00 1.50 99.97 92.98"><path d="M81.84,28.11 L57.64,28.11 L57.64,3.73 L78.44,3.50 L79.74,3.76 L80.85,4.51 L81.59,5.61 L81.85,6.92 L81.84,28.11 Z" fill="#2f8ce2" stroke="#1e1e1e" stroke-width="1" stroke-linejoin="round"/><path d="M53.37,28.34 L53.37,3.50 L28.70,3.50 L29.16,28.34 L53.37,28.34 Z" fill="#2f8ce2" stroke="#1e1e1e" stroke-width="1" stroke-linejoin="round"/><path d="M0.23,57.07 L24.89,57.07 L24.89,32.21 L0.00,32.21 L0.23,57.07 Z" fill="#2f8ce2" stroke="#1e1e1e" stroke-width="1" stroke-linejoin="round"/><path d="M0.00,82.10 L0.26,83.41 L1.00,84.52 L2.11,85.26 L3.42,85.51 L24.89,85.51 L24.89,60.91 L0.00,60.91 L0.00,82.10 Z" fill="#2f8ce2" stroke="#1e1e1e" stroke-width="1" stroke-linejoin="round"/><path d="M0.00,6.93 L0.23,28.11 L24.89,28.11 L24.89,3.50 L3.42,3.50 L2.11,3.77 L1.00,4.51 L0.26,5.62 L0.00,6.93 L0.00,6.93 Z" fill="#2f8ce2" stroke="#1e1e1e" stroke-width="1" stroke-linejoin="round"/><path d="M34.03,35.38 L38.89,35.38 L38.89,48.86 L38.57,49.63 L37.79,49.95 L32.93,49.95 L32.17,49.63 L31.87,48.86 L31.87,37.56 L32.13,36.48 L32.90,35.68 L33.97,35.38 L34.03,35.38 Z" fill="#a3a3a3" stroke="#a3a3a3" stroke-width="1" stroke-linejoin="round"/><path d="M34.03,35.38 L38.89,35.38 L38.89,48.86 L38.57,49.63 L37.79,49.95 L32.93,49.95 L32.17,49.63 L31.87,48.86 L31.87,37.56 L32.13,36.48 L32.90,35.68 L33.97,35.38 L34.03,35.38 Z" fill="#a3a3a3" stroke="#a3a3a3" stroke-width="1" stroke-linejoin="round" opacity="0.5"/><path d="M88.96,35.38 L93.82,35.38 L94.89,35.67 L95.67,36.45 L95.95,37.51 L95.95,48.86 L95.64,49.62 L94.89,49.95 L90.09,49.95 L89.31,49.63 L88.99,48.86 L88.99,35.38 L88.96,35.38 Z" fill="#a3a3a3" stroke="#a3a3a3" stroke-width="1" stroke-linejoin="round"/><path d="M88.96,35.38 L93.82,35.38 L94.89,35.67 L95.67,36.45 L95.95,37.51 L95.95,48.86 L95.64,49.62 L94.89,49.95 L90.09,49.95 L89.31,49.63 L88.99,48.86 L88.99,35.38 L88.96,35.38 Z" fill="#a3a3a3" stroke="#a3a3a3" stroke-width="1" stroke-linejoin="round" opacity="0.5"/><path d="M95.96,37.49 L95.96,42.19 L31.96,42.19 L31.96,37.49 L32.25,36.42 L33.03,35.64 L34.10,35.35 L93.83,35.35 L94.90,35.64 L95.68,36.42 L95.96,37.49 Z" fill="#949494" stroke="#949494" stroke-width="1" stroke-linejoin="round"/><path d="M32.93,77.81 L37.79,77.81 L38.56,78.12 L38.89,78.88 L38.89,92.47 L34.03,92.47 L32.95,92.21 L32.14,91.44 L31.84,90.37 L31.84,90.31 L31.84,90.25 L31.84,78.98 L32.10,78.18 L32.85,77.81 L32.93,77.81 Z" fill="#a3a3a3" stroke="#a3a3a3" stroke-width="1" stroke-linejoin="round"/><path d="M32.93,77.81 L37.79,77.81 L38.56,78.12 L38.89,78.88 L38.89,92.47 L34.03,92.47 L32.95,92.21 L32.14,91.44 L31.84,90.37 L31.84,90.31 L31.84,90.25 L31.84,78.98 L32.10,78.18 L32.85,77.81 L32.93,77.81 Z" fill="#a3a3a3" stroke="#a3a3a3" stroke-width="1" stroke-linejoin="round" opacity="0.5"/><path d="M90.05,77.81 L94.91,77.81 L95.66,78.13 L95.97,78.88 L95.97,78.88 L95.97,90.18 L95.69,91.24 L94.91,92.02 L93.84,92.31 L88.96,92.31 L88.96,78.98 L89.22,78.18 L89.97,77.81 L90.05,77.81 Z" fill="#a3a3a3" stroke="#a3a3a3" stroke-width="1" stroke-linejoin="round"/><path d="M90.05,77.81 L94.91,77.81 L95.66,78.13 L95.97,78.88 L95.97,78.88 L95.97,90.18 L95.69,91.24 L94.91,92.02 L93.84,92.31 L88.96,92.31 L88.96,78.98 L89.22,78.18 L89.97,77.81 L90.05,77.81 Z" fill="#a3a3a3" stroke="#a3a3a3" stroke-width="1" stroke-linejoin="round" opacity="0.5"/><path d="M31.85,90.35 L31.85,85.64 L95.85,85.64 L95.85,90.35 L95.56,91.42 L94.78,92.20 L93.71,92.49 L33.99,92.49 L32.92,92.20 L32.13,91.42 L31.85,90.35 Z" fill="#949494" stroke="#949494" stroke-width="1" stroke-linejoin="round"/><path d="M77.87,72.09 L77.87,72.09 L78.03,72.05 L78.16,71.95 L85.79,64.36 L86.01,63.79 L85.79,63.23 L78.16,55.51 L78.03,55.41 L77.86,55.37 L77.74,55.39 L77.63,55.45 L77.51,55.61 L77.49,55.81 L77.49,60.54 L77.41,60.82 L77.16,60.97 L59.42,60.97 L58.45,60.04 L57.26,59.45 L55.94,59.25 L55.71,59.24 L55.49,59.25 L53.76,59.56 L52.28,60.50 L51.25,61.93 L50.84,63.64 L51.09,65.38 L51.98,66.90 L53.37,67.97 L55.06,68.45 L55.28,68.45 L55.50,68.45 L55.72,68.45 L55.94,68.45 L57.27,68.23 L58.48,67.62 L59.46,66.69 L77.15,66.69 L77.40,66.78 L77.53,67.02 L77.53,71.72 L77.63,71.97 L77.87,72.09 Z" fill="#2f8ce2" stroke="#1e1e1e" stroke-width="1" stroke-linejoin="round"/><path d="M63.51,69.52 L61.64,71.51 L59.29,72.90 L56.64,73.59 L53.91,73.52 L51.30,72.69 L49.02,71.18 L47.25,69.10 L46.13,66.61 L45.73,63.90 L46.10,61.19 L47.21,58.69 L48.96,56.59 L51.23,55.06 L53.82,54.22 L56.56,54.12 L59.21,54.79 L61.57,56.16 L63.47,58.13 L68.80,58.13 L67.08,55.18 L64.72,52.71 L61.84,50.87 L58.61,49.76 L55.21,49.44 L51.83,49.93 L48.66,51.21 L45.88,53.19 L43.65,55.77 L42.08,58.81 L41.28,62.13 L41.28,65.55 L42.08,68.86 L43.65,71.90 L45.88,74.48 L48.66,76.47 L51.83,77.74 L55.21,78.23 L58.61,77.91 L61.84,76.80 L64.72,74.96 L67.08,72.50 L68.80,69.54 L63.51,69.52 Z" fill="#773adc" stroke="#1e1e1e" stroke-width="1" stroke-linejoin="round"/></svg>