<svg xmlns="http://www.w3.org/2000/svg" viewBox="-2.00 1.50 100.00 93.01"><path d="M81.86,28.11 L57.65,28.11 L57.65,3.73 L78.46,3.50 L79.77,3.77 L80.88,4.51 L81.62,5.62 L81.87,6.92 L81.86,28.11 Z" fill="#2f8ce2" stroke="#1e1e1e" stroke-width="1" stroke-linejoin="round"/><path d="M53.38,28.34 L53.38,3.50 L28.71,3.50 L29.17,28.34 L53.38,28.34 Z" fill="#2f8ce2" stroke="#1e1e1e" stroke-width="1" stroke-linejoin="round"/><path d="M0.23,57.08 L24.90,57.08 L24.90,32.22 L0.00,32.22 L0.23,57.08 Z" fill="#2f8ce2" stroke="#1e1e1e" stroke-width="1" stroke-linejoin="round"/><path d="M0.00,82.12 L0.26,83.43 L1.00,84.54 L2.11,85.28 L3.42,85.54 L24.90,85.54 L24.90,60.93 L0.00,60.93 L0.00,82.12 Z" fill="#2f8ce2" stroke="#1e1e1e" stroke-width="1" stroke-linejoin="round"/><path d="M0.00,6.94 L0.23,28.11 L24.90,28.11 L24.90,3.50 L3.42,3.50 L2.11,3.77 L1.00,4.51 L0.26,5.62 L0.00,6.94 L0.00,6.94 Z" fill="#2f8ce2" stroke="#1e1e1e" stroke-width="1" stroke-linejoin="round"/><path d="M34.04,35.39 L38.90,35.39 L38.90,48.87 L38.58,49.65 L37.80,49.97 L32.94,49.97 L32.18,49.64 L31.88,48.87 L31.88,37.57 L32.14,36.49 L32.91,35.69 L33.98,35.39 L34.04,35.39 Z" fill="#a3a3a3" stroke="#a3a3a3" stroke-width="1" stroke-linejoin="round"/><path d="M34.04,35.39 L38.90,35.39 L38.90,48.87 L38.58,49.65 L37.80,49.97 L32.94,49.97 L32.18,49.64 L31.88,48.87 L31.88,37.57 L32.14,36.49 L32.91,35.69 L33.98,35.39 L34.04,35.39 Z" fill="#a3a3a3" stroke="#a3a3a3" stroke-width="1" stroke-linejoin="round" opacity="0.5"/><path d="M88.98,35.39 L93.84,35.39 L94.91,35.68 L95.69,36.46 L95.98,37.53 L95.98,48.87 L95.67,49.64 L94.91,49.97 L90.11,49.97 L89.34,49.65 L89.02,48.87 L89.02,35.39 L88.98,35.39 Z" fill="#a3a3a3" stroke="#a3a3a3" stroke-width="1" stroke-linejoin="round"/><path d="M88.98,35.39 L93.84,35.39 L94.91,35.68 L95.69,36.46 L95.98,37.53 L95.98,48.87 L95.67,49.64 L94.91,49.97 L90.11,49.97 L89.34,49.65 L89.02,48.87 L89.02,35.39 L88.98,35.39 Z" fill="#a3a3a3" stroke="#a3a3a3" stroke-width="1" stroke-linejoin="round" opacity="0.5"/><path d="M95.99,37.50 L95.99,42.20 L31.97,42.20 L31.97,37.50 L32.26,36.43 L33.04,35.65 L34.11,35.36 L93.86,35.36 L94.92,35.65 L95.70,36.43 L95.99,37.50 Z" fill="#949494" stroke="#949494" stroke-width="1" stroke-linejoin="round"/><path d="M32.94,77.83 L37.80,77.83 L38.57,78.14 L38.90,78.90 L38.90,92.50 L34.04,92.50 L32.95,92.24 L32.15,91.46 L31.85,90.39 L31.85,90.33 L31.85,90.28 L31.85,79.00 L32.10,78.20 L32.86,77.83 L32.94,77.83 Z" fill="#a3a3a3" stroke="#a3a3a3" stroke-width="1" stroke-linejoin="round"/><path d="M32.94,77.83 L37.80,77.83 L38.57,78.14 L38.90,78.90 L38.90,92.50 L34.04,92.50 L32.95,92.24 L32.15,91.46 L31.85,90.39 L31.85,90.33 L31.85,90.28 L31.85,79.00 L32.10,78.20 L32.86,77.83 L32.94,77.83 Z" fill="#a3a3a3" stroke="#a3a3a3" stroke-width="1" stroke-linejoin="round" opacity="0.5"/><path d="M90.08,77.83 L94.93,77.83 L95.69,78.15 L96.00,78.90 L96.00,78.90 L96.00,90.20 L95.71,91.27 L94.93,92.05 L93.87,92.33 L88.98,92.33 L88.98,79.00 L89.24,78.20 L90.00,77.83 L90.08,77.83 Z" fill="#a3a3a3" stroke="#a3a3a3" stroke-width="1" stroke-linejoin="round"/><path d="M90.08,77.83 L94.93,77.83 L95.69,78.15 L96.00,78.90 L96.00,78.90 L96.00,90.20 L95.71,91.27 L94.93,92.05 L93.87,92.33 L88.98,92.33 L88.98,79.00 L89.24,78.20 L90.00,77.83 L90.08,77.83 Z" fill="#a3a3a3" stroke="#a3a3a3" stroke-width="1" stroke-linejoin="round" opacity="0.5"/><path d="M31.85,90.38 L31.85,85.67 L95.87,85.67 L95.87,90.38 L95.59,91.44 L94.81,92.23 L93.74,92.51 L34.00,92.51 L32.93,92.23 L32.14,91.45 L31.85,90.38 Z" fill="#949494" stroke="#949494" stroke-width="1" stroke-linejoin="round"/><path d="M77.89,72.11 L77.89,72.11 L78.05,72.07 L78.18,71.97 L85.81,64.38 L86.03,63.81 L85.81,63.24 L78.18,55.53 L78.05,55.42 L77.88,55.39 L77.76,55.41 L77.65,55.46 L77.53,55.62 L77.51,55.82 L77.51,60.56 L77.43,60.84 L77.18,60.98 L59.44,60.98 L58.47,60.06 L57.27,59.47 L55.95,59.26 L55.73,59.26 L55.51,59.26 L53.78,59.58 L52.29,60.52 L51.27,61.95 L50.85,63.66 L51.11,65.40 L51.99,66.91 L53.38,67.99 L55.08,68.47 L55.30,68.47 L55.51,68.47 L55.73,68.47 L55.95,68.47 L57.29,68.25 L58.50,67.64 L59.47,66.71 L77.17,66.71 L77.42,66.80 L77.55,67.04 L77.55,71.74 L77.65,71.99 L77.89,72.11 Z" fill="#2f8ce2" stroke="#1e1e1e" stroke-width="1" stroke-linejoin="round"/><path d="M63.53,69.54 L61.66,71.53 L59.30,72.92 L56.66,73.61 L53.92,73.54 L51.31,72.71 L49.04,71.20 L47.26,69.12 L46.14,66.63 L45.74,63.92 L46.12,61.21 L47.22,58.71 L48.97,56.61 L51.24,55.08 L53.84,54.23 L56.57,54.14 L59.23,54.80 L61.59,56.18 L63.48,58.15 L68.82,58.15 L67.10,55.19 L64.74,52.73 L61.86,50.89 L58.63,49.77 L55.23,49.46 L51.85,49.95 L48.68,51.22 L45.90,53.20 L43.66,55.79 L42.10,58.83 L41.29,62.15 L41.29,65.56 L42.10,68.88 L43.66,71.92 L45.90,74.51 L48.68,76.49 L51.85,77.76 L55.23,78.25 L58.63,77.94 L61.86,76.82 L64.74,74.98 L67.10,72.52 L68.82,69.56 L63.53,69.54 Z" fill="#773adc" stroke="#1e1e1e" stroke-width="1" stroke-linejoin="round"/></svg>