<svg xmlns="http://www.w3.org/2000/svg" viewBox="1.09 4.77 94.72 84.80"><path d="M66.03,57.55 L50.13,32.05 L48.69,32.96 L47.31,32.05 L31.36,57.55 L34.61,59.52 L48.69,36.96 L62.83,59.57 L66.03,57.55 Z" fill="#949494" stroke="#1e1e1e" stroke-width="1" stroke-linejoin="round"/><ellipse cx="48.43" cy="33.12" rx="8.21" ry="8.21" fill="#86d633" stroke="#86d633" stroke-width="1"/><ellipse cx="32.59" cy="58.45" rx="8.21" ry="8.21" fill="#9a72ce" stroke="#9a72ce" stroke-width="1"/><ellipse cx="64.32" cy="58.45" rx="8.21" ry="8.21" fill="#9a72ce" stroke="#9a72ce" stroke-width="1"/><path d="M6.13,6.77 L13.01,6.77 L13.01,6.77 L13.01,25.97 L12.81,26.75 L12.24,27.31 L11.47,27.52 L4.64,27.52 L3.87,27.31 L3.30,26.75 L3.09,25.97 L3.09,9.97 L3.28,8.76 L3.93,7.72 L4.93,7.02 L6.13,6.77 L6.13,6.77 Z" fill="#999999" stroke="#999999" stroke-width="1" stroke-linejoin="round"/><path d="M6.13,6.77 L13.01,6.77 L13.01,6.77 L13.01,25.97 L12.81,26.75 L12.24,27.31 L11.47,27.52 L4.64,27.52 L3.87,27.31 L3.30,26.75 L3.09,25.97 L3.09,9.97 L3.28,8.76 L3.93,7.72 L4.93,7.02 L6.13,6.77 L6.13,6.77 Z" fill="#999999" stroke="#999999" stroke-width="1" stroke-linejoin="round" opacity="0.5"/><path d="M83.84,6.77 L90.67,6.77 L92.19,7.18 L93.30,8.29 L93.71,9.81 L93.71,25.81 L93.50,26.59 L92.93,27.15 L92.16,27.36 L85.33,27.36 L84.56,27.15 L83.99,26.59 L83.79,25.81 L83.79,6.77 L83.84,6.77 Z" fill="#999999" stroke="#999999" stroke-width="1" stroke-linejoin="round"/><path d="M83.84,6.77 L90.67,6.77 L92.19,7.18 L93.30,8.29 L93.71,9.81 L93.71,25.81 L93.50,26.59 L92.93,27.15 L92.16,27.36 L85.33,27.36 L84.56,27.15 L83.99,26.59 L83.79,25.81 L83.79,6.77 L83.84,6.77 Z" fill="#999999" stroke="#999999" stroke-width="1" stroke-linejoin="round" opacity="0.5"/><path d="M93.76,9.81 L93.76,16.53 L93.76,16.53 L3.09,16.53 L3.09,16.53 L3.09,9.81 L3.50,8.29 L4.61,7.18 L6.13,6.77 L90.72,6.77 L92.24,7.18 L93.35,8.29 L93.76,9.81 Z" fill="#949494" stroke="#1e1e1e" stroke-width="1" stroke-linejoin="round"/><path d="M4.64,66.77 L11.52,66.77 L12.29,66.98 L12.86,67.55 L13.07,68.32 L13.07,87.52 L13.07,87.52 L6.13,87.52 L4.61,87.11 L3.50,86.00 L3.09,84.48 L3.09,68.48 L3.24,67.64 L3.82,67.01 L4.64,66.77 L4.64,66.77 Z" fill="#999999" stroke="#999999" stroke-width="1" stroke-linejoin="round"/><path d="M4.64,66.77 L11.52,66.77 L12.29,66.98 L12.86,67.55 L13.07,68.32 L13.07,87.52 L13.07,87.52 L6.13,87.52 L4.61,87.11 L3.50,86.00 L3.09,84.48 L3.09,68.48 L3.24,67.64 L3.82,67.01 L4.64,66.77 L4.64,66.77 Z" fill="#999999" stroke="#999999" stroke-width="1" stroke-linejoin="round" opacity="0.5"/><path d="M85.33,66.77 L92.27,66.77 L93.04,66.98 L93.61,67.55 L93.81,68.32 L93.81,84.32 L93.41,85.84 L92.29,86.95 L90.77,87.36 L83.84,87.36 L83.84,87.36 L83.84,68.16 L84.33,67.19 L85.33,66.77 L85.33,66.77 Z" fill="#999999" stroke="#999999" stroke-width="1" stroke-linejoin="round"/><path d="M85.33,66.77 L92.27,66.77 L93.04,66.98 L93.61,67.55 L93.81,68.32 L93.81,84.32 L93.41,85.84 L92.29,86.95 L90.77,87.36 L83.84,87.36 L83.84,87.36 L83.84,68.16 L84.33,67.19 L85.33,66.77 L85.33,66.77 Z" fill="#999999" stroke="#999999" stroke-width="1" stroke-linejoin="round" opacity="0.5"/><path d="M3.09,84.53 L3.09,77.81 L3.09,77.81 L93.76,77.81 L93.76,77.81 L93.76,84.53 L93.35,86.05 L92.24,87.17 L90.72,87.57 L6.13,87.57 L4.61,87.17 L3.50,86.05 L3.09,84.53 Z" fill="#949494" stroke="#1e1e1e" stroke-width="1" stroke-linejoin="round"/></svg>