<svg xmlns="http://www.w3.org/2000/svg" viewBox="1.27 5.17 100.00 89.50"><path d="M69.87,60.90 L53.05,33.92 L51.53,34.88 L50.06,33.92 L33.19,60.90 L36.63,62.98 L51.53,39.11 L66.48,63.04 L69.87,60.90 Z" fill="#949494" stroke="#1e1e1e" stroke-width="1" stroke-linejoin="round"/><ellipse cx="51.25" cy="35.05" rx="8.69" ry="8.69" fill="#86d633" stroke="#1e1e1e" stroke-width="1"/><ellipse cx="34.48" cy="61.86" rx="8.69" ry="8.69" fill="#9a72ce" stroke="#1e1e1e" stroke-width="1"/><ellipse cx="68.06" cy="61.86" rx="8.69" ry="8.69" fill="#9a72ce" stroke="#1e1e1e" stroke-width="1"/><path d="M6.49,7.17 L13.77,7.17 L13.77,7.17 L13.77,27.49 L13.55,28.30 L12.95,28.90 L12.13,29.12 L4.91,29.12 L4.09,28.90 L3.49,28.30 L3.27,27.49 L3.27,10.55 L3.47,9.27 L4.15,8.17 L5.22,7.43 L6.49,7.17 L6.49,7.17 Z" fill="#999999" stroke="#999999" stroke-width="1" stroke-linejoin="round"/><path d="M6.49,7.17 L13.77,7.17 L13.77,7.17 L13.77,27.49 L13.55,28.30 L12.95,28.90 L12.13,29.12 L4.91,29.12 L4.09,28.90 L3.49,28.30 L3.27,27.49 L3.27,10.55 L3.47,9.27 L4.15,8.17 L5.22,7.43 L6.49,7.17 L6.49,7.17 Z" fill="#999999" stroke="#999999" stroke-width="1" stroke-linejoin="round" opacity="0.5"/><path d="M88.72,7.17 L95.94,7.17 L97.55,7.60 L98.73,8.78 L99.16,10.38 L99.16,27.32 L98.94,28.13 L98.34,28.73 L97.52,28.95 L90.30,28.95 L89.48,28.73 L88.88,28.13 L88.66,27.32 L88.66,7.17 L88.72,7.17 Z" fill="#999999" stroke="#999999" stroke-width="1" stroke-linejoin="round"/><path d="M88.72,7.17 L95.94,7.17 L97.55,7.60 L98.73,8.78 L99.16,10.38 L99.16,27.32 L98.94,28.13 L98.34,28.73 L97.52,28.95 L90.30,28.95 L89.48,28.73 L88.88,28.13 L88.66,27.32 L88.66,7.17 L88.72,7.17 Z" fill="#999999" stroke="#999999" stroke-width="1" stroke-linejoin="round" opacity="0.5"/><path d="M99.22,10.38 L99.22,17.50 L99.22,17.50 L3.27,17.50 L3.27,17.50 L3.27,10.38 L3.70,8.78 L4.88,7.60 L6.49,7.17 L96.00,7.17 L97.61,7.60 L98.79,8.78 L99.22,10.38 Z" fill="#949494" stroke="#1e1e1e" stroke-width="1" stroke-linejoin="round"/><path d="M4.91,70.66 L12.19,70.66 L13.01,70.88 L13.61,71.48 L13.83,72.30 L13.83,92.61 L13.83,92.61 L6.49,92.61 L4.88,92.18 L3.70,91.01 L3.27,89.40 L3.27,72.47 L3.43,71.58 L4.04,70.90 L4.91,70.66 L4.91,70.66 Z" fill="#999999" stroke="#999999" stroke-width="1" stroke-linejoin="round"/><path d="M4.91,70.66 L12.19,70.66 L13.01,70.88 L13.61,71.48 L13.83,72.30 L13.83,92.61 L13.83,92.61 L6.49,92.61 L4.88,92.18 L3.70,91.01 L3.27,89.40 L3.27,72.47 L3.43,71.58 L4.04,70.90 L4.91,70.66 L4.91,70.66 Z" fill="#999999" stroke="#999999" stroke-width="1" stroke-linejoin="round" opacity="0.5"/><path d="M90.30,70.66 L97.64,70.66 L98.46,70.88 L99.05,71.48 L99.27,72.30 L99.27,89.23 L98.84,90.84 L97.66,92.01 L96.06,92.44 L88.72,92.44 L88.72,92.44 L88.72,72.13 L89.23,71.10 L90.30,70.66 L90.30,70.66 Z" fill="#999999" stroke="#999999" stroke-width="1" stroke-linejoin="round"/><path d="M90.30,70.66 L97.64,70.66 L98.46,70.88 L99.05,71.48 L99.27,72.30 L99.27,89.23 L98.84,90.84 L97.66,92.01 L96.06,92.44 L88.72,92.44 L88.72,92.44 L88.72,72.13 L89.23,71.10 L90.30,70.66 L90.30,70.66 Z" fill="#999999" stroke="#999999" stroke-width="1" stroke-linejoin="round" opacity="0.5"/><path d="M3.27,89.45 L3.27,82.34 L3.27,82.34 L99.22,82.34 L99.22,82.34 L99.22,89.45 L98.79,91.06 L97.61,92.24 L96.00,92.67 L6.49,92.67 L4.88,92.24 L3.70,91.06 L3.27,89.45 Z" fill="#949494" stroke="#1e1e1e" stroke-width="1" stroke-linejoin="round"/></svg>