<svg xmlns="http://www.w3.org/2000/svg" viewBox="1.57 0.67 92.85 94.67"><path d="M33.17,63.09 L3.57,63.09 L3.57,35.89 L4.00,34.40 L5.11,33.30 L6.61,32.91 L33.28,32.91 L33.17,63.09 Z" fill="#005ba1" stroke="#1e1e1e" stroke-width="1" stroke-linejoin="round"/><path d="M62.83,63.09 L33.17,63.09 L33.17,93.33 L59.84,93.33 L61.36,92.93 L62.47,91.81 L62.88,90.29 L62.83,63.09 Z" fill="#005ba1" stroke="#1e1e1e" stroke-width="1" stroke-linejoin="round"/><path d="M62.83,63.09 L33.17,63.09 L33.17,32.91 L62.83,32.91 L62.83,63.09 Z" fill="#0078d4" stroke="#1e1e1e" stroke-width="1" stroke-linejoin="round"/><path d="M33.17,63.09 L3.57,63.09 L3.57,90.29 L3.98,91.81 L5.09,92.93 L6.61,93.33 L33.28,93.33 L33.17,63.09 Z" fill="#0078d4" stroke="#1e1e1e" stroke-width="1" stroke-linejoin="round"/><path d="M62.83,32.91 L33.17,32.91 L33.17,5.71 L33.58,4.19 L34.69,3.07 L36.21,2.67 L62.88,2.67 L62.83,32.91 Z" fill="#0078d4" stroke="#1e1e1e" stroke-width="1" stroke-linejoin="round"/><path d="M92.43,32.91 L62.83,32.91 L62.83,63.09 L89.97,63.09 L91.18,62.77 L92.08,61.90 L92.43,60.69 L92.43,32.91 Z" fill="#0078d4" stroke="#1e1e1e" stroke-width="1" stroke-linejoin="round"/><path d="M92.43,32.91 L62.83,32.91 L62.83,2.67 L89.97,2.67 L91.18,2.99 L92.08,3.86 L92.43,5.07 L92.43,32.91 Z" fill="#2bc0e3" stroke="#1e1e1e" stroke-width="1" stroke-linejoin="round"/><path d="M62.83,32.91 L33.17,32.91 L33.17,60.11 L33.60,61.60 L34.71,62.70 L36.21,63.09 L62.88,63.09 L62.83,32.91 Z" fill="#2bc0e3" stroke="#1e1e1e" stroke-width="1" stroke-linejoin="round"/></svg>