<svg xmlns="http://www.w3.org/2000/svg" viewBox="1.78 0.82 98.08 100.00"><path d="M35.12,66.80 L3.78,66.80 L3.78,38.00 L4.23,36.42 L5.41,35.26 L7.00,34.84 L35.24,34.84 L35.12,66.80 Z" fill="#005ba1" stroke="#1e1e1e" stroke-width="1" stroke-linejoin="round"/><path d="M66.52,66.80 L35.12,66.80 L35.12,98.82 L63.36,98.82 L64.97,98.39 L66.15,97.21 L66.58,95.60 L66.52,66.80 Z" fill="#005ba1" stroke="#1e1e1e" stroke-width="1" stroke-linejoin="round"/><path d="M66.52,66.80 L35.12,66.80 L35.12,34.84 L66.52,34.84 L66.52,66.80 Z" fill="#0078d4" stroke="#1e1e1e" stroke-width="1" stroke-linejoin="round"/><path d="M35.12,66.80 L3.78,66.80 L3.78,95.60 L4.21,97.21 L5.39,98.39 L7.00,98.82 L35.24,98.82 L35.12,66.80 Z" fill="#0078d4" stroke="#1e1e1e" stroke-width="1" stroke-linejoin="round"/><path d="M66.52,34.84 L35.12,34.84 L35.12,6.04 L35.56,4.43 L36.73,3.25 L38.34,2.82 L66.58,2.82 L66.52,34.84 Z" fill="#0078d4" stroke="#1e1e1e" stroke-width="1" stroke-linejoin="round"/><path d="M97.86,34.84 L66.52,34.84 L66.52,66.80 L95.27,66.80 L96.55,66.47 L97.50,65.54 L97.86,64.26 L97.86,34.84 Z" fill="#0078d4" stroke="#1e1e1e" stroke-width="1" stroke-linejoin="round"/><path d="M97.86,34.84 L66.52,34.84 L66.52,2.82 L95.27,2.82 L96.55,3.16 L97.50,4.09 L97.86,5.36 L97.86,34.84 Z" fill="#2bc0e3" stroke="#1e1e1e" stroke-width="1" stroke-linejoin="round"/><path d="M66.52,34.84 L35.12,34.84 L35.12,63.64 L35.57,65.23 L36.75,66.38 L38.34,66.80 L66.58,66.80 L66.52,34.84 Z" fill="#2bc0e3" stroke="#1e1e1e" stroke-width="1" stroke-linejoin="round"/></svg>