<svg xmlns="http://www.w3.org/2000/svg" viewBox="0.72 8.67 94.61 78.72"><path d="M93.33,54.72 L92.80,50.66 L91.46,46.79 L89.38,43.27 L86.63,40.23 L83.33,37.80 L79.61,36.09 L75.63,35.15 L75.05,30.75 L73.73,26.52 L71.70,22.59 L69.02,19.06 L65.77,16.05 L62.05,13.64 L57.97,11.91 L53.65,10.91 L49.23,10.67 L44.61,10.98 L40.12,12.10 L35.90,13.99 L32.07,16.58 L28.76,19.81 L26.06,23.56 L24.05,27.73 L19.84,28.64 L15.86,30.27 L12.22,32.58 L9.05,35.49 L6.45,38.92 L4.48,42.75 L3.23,46.87 L2.72,51.15 L3.28,55.38 L4.56,59.45 L6.53,63.24 L9.12,66.64 L12.26,69.53 L15.85,71.84 L19.79,73.50 L23.95,74.45 L28.21,74.67 L71.79,74.67 L72.32,74.69 L72.85,74.67 L76.77,74.26 L80.55,73.12 L84.03,71.28 L87.11,68.81 L89.65,65.81 L91.58,62.37 L92.83,58.63 L93.33,54.72 Z" fill="#3990e4" stroke="#1e1e1e" stroke-width="1" stroke-linejoin="round"/><path d="M63.36,82.83 L63.01,84.12 L62.05,85.06 L60.75,85.39 L35.84,85.39 L34.54,85.06 L33.58,84.12 L33.23,82.83 L33.23,36.64 L33.58,35.34 L34.54,34.40 L35.84,34.08 L60.75,34.08 L62.05,34.40 L63.01,35.34 L63.36,36.64 L63.36,82.83 Z" fill="#a0a0a0" stroke="#1e1e1e" stroke-width="1" stroke-linejoin="round"/><path d="M36.80,39.41 L42.67,39.41 L42.67,46.61 L36.80,46.61 L36.80,39.41 Z" fill="#ffffff" stroke="#ffffff" stroke-width="1" stroke-linejoin="round"/><path d="M45.44,39.41 L51.20,39.41 L51.20,46.61 L45.44,46.61 L45.44,39.41 Z" fill="#ffffff" stroke="#ffffff" stroke-width="1" stroke-linejoin="round"/><path d="M54.08,39.41 L59.84,39.41 L59.84,46.61 L54.08,46.61 L54.08,39.41 Z" fill="#ffffff" stroke="#ffffff" stroke-width="1" stroke-linejoin="round"/><path d="M36.80,50.93 L42.67,50.93 L42.67,58.13 L36.80,58.13 L36.80,50.93 Z" fill="#ffffff" stroke="#ffffff" stroke-width="1" stroke-linejoin="round"/><path d="M45.44,50.93 L51.20,50.93 L51.20,58.13 L45.44,58.13 L45.44,50.93 Z" fill="#ffffff" stroke="#ffffff" stroke-width="1" stroke-linejoin="round"/><path d="M54.08,50.93 L59.84,50.93 L59.84,58.13 L54.08,58.13 L54.08,50.93 Z" fill="#ffffff" stroke="#ffffff" stroke-width="1" stroke-linejoin="round"/><path d="M36.80,62.45 L42.67,62.45 L42.67,69.65 L36.80,69.65 L36.80,62.45 Z" fill="#ffffff" stroke="#ffffff" stroke-width="1" stroke-linejoin="round"/><path d="M45.44,62.45 L51.20,62.45 L51.20,69.65 L45.44,69.65 L45.44,62.45 Z" fill="#ffffff" stroke="#ffffff" stroke-width="1" stroke-linejoin="round"/><path d="M45.44,73.97 L51.20,73.97 L51.20,82.61 L45.44,82.61 L45.44,73.97 Z" fill="#ffffff" stroke="#ffffff" stroke-width="1" stroke-linejoin="round"/><path d="M54.08,62.45 L59.84,62.45 L59.84,69.65 L54.08,69.65 L54.08,62.45 Z" fill="#ffffff" stroke="#ffffff" stroke-width="1" stroke-linejoin="round"/></svg>