<svg xmlns="http://www.w3.org/2000/svg" viewBox="0.88 9.30 100.00 83.16"><path d="M98.88,57.97 L98.31,53.67 L96.90,49.57 L94.69,45.84 L91.78,42.62 L88.28,40.05 L84.34,38.23 L80.12,37.24 L79.51,32.58 L78.11,28.10 L75.96,23.93 L73.12,20.19 L69.68,17.00 L65.74,14.45 L61.41,12.62 L56.84,11.56 L52.15,11.30 L47.26,11.64 L42.51,12.82 L38.03,14.82 L33.98,17.57 L30.47,20.99 L27.60,24.96 L25.48,29.38 L21.02,30.34 L16.80,32.07 L12.95,34.51 L9.59,37.60 L6.83,41.23 L4.75,45.29 L3.42,49.66 L2.88,54.19 L3.48,58.67 L4.83,62.99 L6.92,67.00 L9.66,70.60 L12.99,73.67 L16.79,76.11 L20.96,77.87 L25.37,78.87 L29.89,79.11 L76.05,79.11 L76.62,79.13 L77.18,79.11 L81.34,78.68 L85.33,77.47 L89.03,75.52 L92.28,72.90 L94.98,69.72 L97.03,66.08 L98.34,62.11 L98.88,57.97 Z" fill="#3990e4" stroke="#1e1e1e" stroke-width="1" stroke-linejoin="round"/><path d="M67.13,87.75 L66.75,89.12 L65.74,90.12 L64.36,90.46 L37.97,90.46 L36.59,90.12 L35.57,89.12 L35.20,87.75 L35.20,38.82 L35.57,37.45 L36.59,36.45 L37.97,36.11 L64.36,36.11 L65.74,36.45 L66.75,37.45 L67.13,38.82 L67.13,87.75 Z" fill="#a0a0a0" stroke="#1e1e1e" stroke-width="1" stroke-linejoin="round"/><path d="M38.99,41.76 L45.20,41.76 L45.20,49.38 L38.99,49.38 L38.99,41.76 Z" fill="#ffffff" stroke="#ffffff" stroke-width="1" stroke-linejoin="round"/><path d="M48.14,41.76 L54.24,41.76 L54.24,49.38 L48.14,49.38 L48.14,41.76 Z" fill="#ffffff" stroke="#ffffff" stroke-width="1" stroke-linejoin="round"/><path d="M57.29,41.76 L63.40,41.76 L63.40,49.38 L57.29,49.38 L57.29,41.76 Z" fill="#ffffff" stroke="#ffffff" stroke-width="1" stroke-linejoin="round"/><path d="M38.99,53.96 L45.20,53.96 L45.20,61.59 L38.99,61.59 L38.99,53.96 Z" fill="#ffffff" stroke="#ffffff" stroke-width="1" stroke-linejoin="round"/><path d="M48.14,53.96 L54.24,53.96 L54.24,61.59 L48.14,61.59 L48.14,53.96 Z" fill="#ffffff" stroke="#ffffff" stroke-width="1" stroke-linejoin="round"/><path d="M57.29,53.96 L63.40,53.96 L63.40,61.59 L57.29,61.59 L57.29,53.96 Z" fill="#ffffff" stroke="#ffffff" stroke-width="1" stroke-linejoin="round"/><path d="M38.99,66.17 L45.20,66.17 L45.20,73.79 L38.99,73.79 L38.99,66.17 Z" fill="#ffffff" stroke="#ffffff" stroke-width="1" stroke-linejoin="round"/><path d="M48.14,66.17 L54.24,66.17 L54.24,73.79 L48.14,73.79 L48.14,66.17 Z" fill="#ffffff" stroke="#ffffff" stroke-width="1" stroke-linejoin="round"/><path d="M48.14,78.37 L54.24,78.37 L54.24,87.52 L48.14,87.52 L48.14,78.37 Z" fill="#ffffff" stroke="#ffffff" stroke-width="1" stroke-linejoin="round"/><path d="M57.29,66.17 L63.40,66.17 L63.40,73.79 L57.29,73.79 L57.29,66.17 Z" fill="#ffffff" stroke="#ffffff" stroke-width="1" stroke-linejoin="round"/></svg>