<svg xmlns="http://www.w3.org/2000/svg" viewBox="-2.00 1.95 100.00 92.11"><path d="M96.00,50.67 L95.54,46.90 L94.44,43.28 L92.72,39.90 L90.43,36.87 L87.66,34.29 L84.47,32.23 L80.98,30.76 L77.28,29.92 L76.67,25.26 L75.26,20.78 L73.10,16.61 L70.26,12.86 L66.81,9.67 L62.87,7.11 L58.55,5.28 L53.97,4.21 L49.28,3.95 L44.99,4.20 L40.79,5.11 L36.78,6.65 L33.05,8.79 L29.69,11.48 L26.79,14.65 L24.41,18.23 L22.61,22.13 L18.15,23.08 L13.93,24.80 L10.08,27.23 L6.72,30.31 L3.95,33.94 L1.87,37.99 L0.54,42.35 L0.00,46.88 L0.57,51.39 L1.91,55.74 L3.98,59.78 L6.73,63.41 L10.06,66.50 L13.88,68.97 L18.07,70.75 L22.50,71.77 L27.04,72.00 L29.39,72.00 L73.17,72.00 L73.76,72.02 L74.35,72.00 L78.52,71.56 L82.53,70.33 L86.23,68.35 L89.49,65.71 L92.18,62.49 L94.21,58.82 L95.50,54.83 L96.00,50.67 Z" fill="#3990e4" stroke="#1e1e1e" stroke-width="1" stroke-linejoin="round"/><path d="M70.29,87.25 L70.71,87.31 L71.09,87.47 L71.42,87.72 L71.68,88.05 L71.84,88.44 L71.89,88.85 L71.89,90.45 L71.84,90.87 L71.68,91.25 L71.42,91.58 L71.09,91.84 L70.71,92.00 L70.29,92.05 L50.83,92.05 L50.41,92.00 L50.03,91.84 L49.70,91.58 L49.44,91.25 L49.28,90.87 L49.23,90.45 L49.23,88.85 L49.28,88.44 L49.44,88.05 L49.70,87.72 L50.03,87.47 L50.41,87.31 L50.83,87.25 L70.29,87.25 Z" fill="#198ab3" stroke="#198ab3" stroke-width="1" stroke-linejoin="round"/><path d="M70.29,77.07 L70.71,77.12 L71.09,77.28 L71.42,77.54 L71.68,77.87 L71.84,78.25 L71.89,78.67 L71.89,80.27 L71.84,80.68 L71.68,81.07 L71.42,81.40 L71.09,81.65 L70.71,81.81 L70.29,81.87 L50.83,81.87 L50.41,81.81 L50.03,81.65 L49.70,81.40 L49.44,81.07 L49.28,80.68 L49.23,80.27 L49.23,78.67 L49.28,78.25 L49.44,77.87 L49.70,77.54 L50.03,77.28 L50.41,77.12 L50.83,77.07 L70.29,77.07 Z" fill="#32bedd" stroke="#32bedd" stroke-width="1" stroke-linejoin="round"/><path d="M70.29,66.93 L70.71,66.99 L71.09,67.15 L71.42,67.40 L71.68,67.73 L71.84,68.12 L71.89,68.53 L71.89,70.13 L71.84,70.55 L71.68,70.93 L71.42,71.26 L71.09,71.52 L70.71,71.68 L70.29,71.73 L50.83,71.73 L50.41,71.68 L50.03,71.52 L49.70,71.26 L49.44,70.93 L49.28,70.55 L49.23,70.13 L49.23,68.53 L49.28,68.12 L49.44,67.73 L49.70,67.40 L50.03,67.15 L50.41,66.99 L50.83,66.93 L70.29,66.93 Z" fill="#50e6ff" stroke="#50e6ff" stroke-width="1" stroke-linejoin="round"/><path d="M47.47,41.60 L47.88,41.65 L48.27,41.81 L48.60,42.07 L48.85,42.40 L49.01,42.79 L49.07,43.20 L49.07,44.80 L49.01,45.21 L48.85,45.60 L48.60,45.93 L48.27,46.19 L47.88,46.35 L47.47,46.40 L28.00,46.40 L27.59,46.35 L27.20,46.19 L26.87,45.93 L26.61,45.60 L26.45,45.21 L26.40,44.80 L26.40,43.20 L26.45,42.79 L26.61,42.40 L26.87,42.07 L27.20,41.81 L27.59,41.65 L28.00,41.60 L47.47,41.60 Z" fill="#f2f2f2" stroke="#f2f2f2" stroke-width="1" stroke-linejoin="round"/><path d="M47.47,50.93 L47.88,50.99 L48.27,51.15 L48.60,51.40 L48.85,51.73 L49.01,52.12 L49.07,52.53 L49.07,54.13 L49.01,54.55 L48.85,54.93 L48.60,55.26 L48.27,55.52 L47.88,55.68 L47.47,55.73 L28.00,55.73 L27.59,55.68 L27.20,55.52 L26.87,55.26 L26.61,54.93 L26.45,54.55 L26.40,54.13 L26.40,52.53 L26.45,52.12 L26.61,51.73 L26.87,51.40 L27.20,51.15 L27.59,50.99 L28.00,50.93 L47.47,50.93 Z" fill="#f2f2f2" stroke="#f2f2f2" stroke-width="1" stroke-linejoin="round"/><path d="M47.47,60.32 L47.88,60.37 L48.27,60.53 L48.60,60.79 L48.85,61.12 L49.01,61.51 L49.07,61.92 L49.07,63.52 L49.01,63.93 L48.85,64.32 L48.60,64.65 L48.27,64.91 L47.88,65.07 L47.47,65.12 L28.00,65.12 L27.59,65.07 L27.20,64.91 L26.87,64.65 L26.61,64.32 L26.45,63.93 L26.40,63.52 L26.40,61.92 L26.45,61.51 L26.61,61.12 L26.87,60.79 L27.20,60.53 L27.59,60.37 L28.00,60.32 L47.47,60.32 Z" fill="#f2f2f2" stroke="#f2f2f2" stroke-width="1" stroke-linejoin="round"/></svg>