<svg xmlns="http://www.w3.org/2000/svg" viewBox="-2.00 3.25 100.00 89.52"><path d="M3.27,5.30 L10.54,5.30 L10.54,25.47 L10.32,26.28 L9.72,26.88 L8.91,27.10 L1.64,27.10 L0.82,26.88 L0.22,26.28 L0.00,25.47 L0.00,8.57 L0.22,7.33 L0.90,6.27 L1.93,5.56 L3.16,5.30 L3.27,5.30 Z" fill="#a3a3a3" stroke="#a3a3a3" stroke-width="1" stroke-linejoin="round"/><path d="M3.27,5.30 L10.54,5.30 L10.54,25.47 L10.32,26.28 L9.72,26.88 L8.91,27.10 L1.64,27.10 L0.82,26.88 L0.22,26.28 L0.00,25.47 L0.00,8.57 L0.22,7.33 L0.90,6.27 L1.93,5.56 L3.16,5.30 L3.27,5.30 Z" fill="#a3a3a3" stroke="#a3a3a3" stroke-width="1" stroke-linejoin="round" opacity="0.5"/><path d="M85.47,5.30 L92.73,5.30 L93.96,5.54 L94.99,6.23 L95.69,7.27 L95.93,8.50 L95.93,25.46 L95.71,26.27 L95.11,26.87 L94.30,27.09 L87.10,27.09 L86.28,26.87 L85.69,26.27 L85.47,25.46 L85.47,5.30 Z" fill="#a3a3a3" stroke="#a3a3a3" stroke-width="1" stroke-linejoin="round"/><path d="M85.47,5.30 L92.73,5.30 L93.96,5.54 L94.99,6.23 L95.69,7.27 L95.93,8.50 L95.93,25.46 L95.71,26.27 L95.11,26.87 L94.30,27.09 L87.10,27.09 L86.28,26.87 L85.69,26.27 L85.47,25.46 L85.47,5.30 Z" fill="#a3a3a3" stroke="#a3a3a3" stroke-width="1" stroke-linejoin="round" opacity="0.5"/><path d="M95.94,8.45 L95.94,15.49 L0.17,15.49 L0.17,8.45 L0.41,7.23 L1.11,6.19 L2.15,5.50 L3.37,5.25 L92.73,5.25 L93.96,5.49 L95.00,6.19 L95.70,7.23 L95.94,8.45 Z" fill="#949494" stroke="#1e1e1e" stroke-width="1" stroke-linejoin="round"/><path d="M1.64,68.80 L8.91,68.80 L9.72,69.02 L10.32,69.62 L10.54,70.43 L10.54,90.77 L3.27,90.77 L2.03,90.55 L0.97,89.87 L0.26,88.83 L0.00,87.61 L0.00,87.43 L0.00,70.53 L0.17,69.71 L0.72,69.07 L1.52,68.80 L1.64,68.80 Z" fill="#a3a3a3" stroke="#a3a3a3" stroke-width="1" stroke-linejoin="round"/><path d="M1.64,68.80 L8.91,68.80 L9.72,69.02 L10.32,69.62 L10.54,70.43 L10.54,90.77 L3.27,90.77 L2.03,90.55 L0.97,89.87 L0.26,88.83 L0.00,87.61 L0.00,87.43 L0.00,70.53 L0.17,69.71 L0.72,69.07 L1.52,68.80 L1.64,68.80 Z" fill="#a3a3a3" stroke="#a3a3a3" stroke-width="1" stroke-linejoin="round" opacity="0.5"/><path d="M87.10,68.80 L94.37,68.80 L95.17,69.01 L95.77,69.60 L96.00,70.40 L96.00,70.40 L96.00,87.30 L95.76,88.53 L95.06,89.56 L94.02,90.26 L92.80,90.50 L85.47,90.50 L85.47,70.50 L85.63,69.67 L86.18,69.03 L86.98,68.76 L87.10,68.80 Z" fill="#a3a3a3" stroke="#a3a3a3" stroke-width="1" stroke-linejoin="round"/><path d="M87.10,68.80 L94.37,68.80 L95.17,69.01 L95.77,69.60 L96.00,70.40 L96.00,70.40 L96.00,87.30 L95.76,88.53 L95.06,89.56 L94.02,90.26 L92.80,90.50 L85.47,90.50 L85.47,70.50 L85.63,69.67 L86.18,69.03 L86.98,68.76 L87.10,68.80 Z" fill="#a3a3a3" stroke="#a3a3a3" stroke-width="1" stroke-linejoin="round" opacity="0.5"/><path d="M0.00,87.55 L0.00,80.53 L95.78,80.53 L95.78,87.57 L95.53,88.80 L94.84,89.84 L93.80,90.53 L92.58,90.77 L3.20,90.77 L1.97,90.53 L0.93,89.83 L0.24,88.78 L0.00,87.55 Z" fill="#949494" stroke="#1e1e1e" stroke-width="1" stroke-linejoin="round"/><path d="M82.33,47.08 L70.93,35.54 L70.56,35.33 L70.14,35.44 L69.96,35.68 L69.93,35.97 L69.93,43.07 L69.82,43.49 L69.44,43.69 L41.76,43.69 L40.32,42.31 L38.53,41.43 L36.55,41.12 L35.89,41.09 L33.60,41.48 L31.57,42.62 L30.03,44.36 L29.16,46.51 L29.05,48.83 L29.72,51.05 L31.08,52.93 L33.00,54.25 L35.24,54.86 L35.89,54.89 L36.55,54.86 L38.55,54.53 L40.36,53.62 L41.82,52.22 L69.33,52.22 L69.69,52.38 L69.87,52.73 L69.87,59.73 L70.01,60.13 L70.40,60.32 L70.40,60.32 L70.64,60.27 L70.84,60.11 L82.26,48.76 L82.61,47.93 L82.33,47.08 Z" fill="#8e5ae8" stroke="#1e1e1e" stroke-width="1" stroke-linejoin="round"/><path d="M14.65,29.06 L14.65,45.50 L25.07,45.50 L25.91,43.08 L27.28,40.91 L29.12,39.12 L31.32,37.81 L33.76,37.03 L33.76,26.36 L17.31,26.36 L15.97,26.72 L14.99,27.71 L14.65,29.06 Z" fill="#6aa928" stroke="#1e1e1e" stroke-width="1" stroke-linejoin="round"/><path d="M54.71,26.38 L38.27,26.38 L38.27,37.05 L41.07,37.90 L43.55,39.46 L57.38,39.46 L57.38,29.05 L57.02,27.72 L56.05,26.74 L54.71,26.38 L54.71,26.38 Z" fill="#6aa928" stroke="#6aa928" stroke-width="1" stroke-linejoin="round"/><path d="M38.27,58.95 L38.27,69.50 L54.71,69.50 L56.05,69.15 L57.02,68.17 L57.38,66.84 L57.38,56.49 L43.62,56.49 L41.11,58.09 L38.27,58.95 L38.27,58.95 Z" fill="#6aa928" stroke="#6aa928" stroke-width="1" stroke-linejoin="round"/><path d="M25.07,50.39 L14.65,50.39 L14.65,66.84 L15.00,68.17 L15.98,69.15 L17.31,69.50 L33.76,69.50 L33.76,58.90 L31.30,58.14 L29.08,56.82 L27.24,55.02 L25.88,52.83 L25.07,50.39 Z" fill="#6aa928" stroke="#1e1e1e" stroke-width="1" stroke-linejoin="round"/></svg>