<svg xmlns="http://www.w3.org/2000/svg" viewBox="-2.00 -2.00 100.00 100.00"><ellipse cx="48.30" cy="48.00" rx="18.61" ry="18.61" fill="#a276ef" stroke="#1e1e1e" stroke-width="1"/><path d="M33.06,68.68 L40.54,76.16 L40.54,55.53 L19.91,55.53 L27.40,63.02 L7.56,82.85 L0.07,75.37 L0.09,96.00 L20.71,96.00 L13.23,88.51 L33.06,68.68 Z" fill="#006aba" stroke="#1e1e1e" stroke-width="1" stroke-linejoin="round"/><path d="M96.00,95.91 L96.00,75.29 L88.51,82.77 L68.68,62.94 L76.16,55.46 L55.53,55.46 L55.53,76.09 L63.02,68.60 L82.85,88.44 L75.37,95.93 L96.00,95.91 Z" fill="#004684" stroke="#1e1e1e" stroke-width="1" stroke-linejoin="round"/><path d="M88.44,13.15 L95.93,20.63 L95.91,0.00 L75.29,0.00 L82.77,7.49 L62.94,27.32 L55.46,19.84 L55.46,40.47 L76.09,40.47 L68.60,32.98 L88.44,13.15 Z" fill="#2f8ce2" stroke="#1e1e1e" stroke-width="1" stroke-linejoin="round"/><path d="M40.47,40.54 L40.47,19.91 L32.98,27.40 L13.15,7.56 L20.63,0.07 L0.00,0.09 L0.00,20.71 L7.49,13.23 L27.32,33.06 L19.84,40.54 L40.47,40.54 Z" fill="#70acf4" stroke="#1e1e1e" stroke-width="1" stroke-linejoin="round"/></svg>