<svg xmlns="http://www.w3.org/2000/svg" viewBox="-1.33 3.01 98.67 89.96"><ellipse cx="39.35" cy="48.98" rx="14.52" ry="14.58" fill="#29bade" stroke="#1e1e1e" stroke-width="1"/><ellipse cx="88.24" cy="26.20" rx="7.09" ry="7.15" fill="#32bedd" stroke="#32bedd" stroke-width="1"/><ellipse cx="88.24" cy="49.54" rx="7.09" ry="7.15" fill="#32bedd" stroke="#32bedd" stroke-width="1"/><ellipse cx="88.24" cy="72.82" rx="7.09" ry="7.15" fill="#32bedd" stroke="#32bedd" stroke-width="1"/><ellipse cx="67.51" cy="38.14" rx="7.09" ry="7.15" fill="#50e6ff" stroke="#50e6ff" stroke-width="1"/><ellipse cx="67.51" cy="61.48" rx="7.09" ry="7.15" fill="#50e6ff" stroke="#50e6ff" stroke-width="1"/><path d="M60.02,71.48 L55.84,75.10 L51.00,78.44 L45.51,81.50 L39.35,84.29 L35.42,82.57 L31.74,80.75 L28.32,78.82 L25.17,76.78 L22.27,74.63 L19.62,72.37 L17.23,70.01 L15.10,67.53 L13.22,64.94 L11.60,62.24 L10.22,59.43 L9.10,56.51 L8.23,53.48 L7.61,50.33 L7.24,47.07 L7.11,43.70 L7.11,24.26 L11.25,23.86 L15.36,23.14 L19.44,22.10 L23.49,20.75 L27.50,19.09 L31.49,17.12 L35.44,14.83 L39.35,12.22 L43.27,14.83 L47.22,17.12 L51.20,19.09 L55.22,20.75 L59.27,22.10 L63.34,23.14 L67.45,23.86 L71.59,24.26 L71.59,26.46 L71.73,26.90 L72.09,27.19 L73.38,27.83 L74.58,28.63 L75.68,29.55 L76.65,30.60 L77.07,30.87 L77.53,30.85 L77.90,30.58 L78.05,30.11 L78.05,21.13 L77.79,19.87 L77.09,18.84 L76.05,18.16 L74.77,17.91 L70.50,17.72 L66.26,17.14 L62.04,16.19 L57.84,14.85 L53.67,13.13 L49.53,11.02 L45.40,8.53 L41.30,5.66 L40.37,5.18 L39.37,5.01 L38.36,5.18 L37.43,5.66 L33.32,8.54 L29.20,11.03 L25.05,13.13 L20.88,14.85 L16.68,16.19 L12.46,17.14 L8.21,17.72 L3.94,17.91 L2.67,18.16 L1.63,18.85 L0.92,19.87 L0.67,21.13 L0.67,43.70 L0.82,47.66 L1.26,51.49 L2.00,55.18 L3.04,58.74 L4.37,62.17 L6.00,65.46 L7.91,68.61 L10.12,71.62 L12.62,74.50 L15.41,77.24 L18.48,79.84 L21.85,82.30 L25.50,84.63 L29.44,86.81 L33.66,88.85 L38.17,90.75 L39.35,90.98 L40.54,90.75 L44.49,89.10 L48.23,87.33 L51.75,85.46 L55.05,83.48 L58.14,81.40 L61.00,79.21 L63.65,76.91 L66.07,74.51 L66.26,74.13 L66.24,73.73 L66.02,73.39 L65.63,73.21 L63.21,72.54 L61.02,71.40 L60.50,71.26 L60.02,71.48 L60.02,71.48 Z" fill="#8f5be8" stroke="#1e1e1e" stroke-width="1" stroke-linejoin="round"/></svg>