<svg xmlns="http://www.w3.org/2000/svg" viewBox="-1.32 3.09 100.00 91.17"><ellipse cx="39.90" cy="49.67" rx="14.72" ry="14.78" fill="#29bade" stroke="#1e1e1e" stroke-width="1"/><ellipse cx="89.48" cy="26.57" rx="7.19" ry="7.25" fill="#32bedd" stroke="#32bedd" stroke-width="1"/><ellipse cx="89.48" cy="50.23" rx="7.19" ry="7.25" fill="#32bedd" stroke="#32bedd" stroke-width="1"/><ellipse cx="89.48" cy="73.84" rx="7.19" ry="7.25" fill="#32bedd" stroke="#32bedd" stroke-width="1"/><ellipse cx="68.46" cy="38.68" rx="7.19" ry="7.25" fill="#50e6ff" stroke="#50e6ff" stroke-width="1"/><ellipse cx="68.46" cy="62.35" rx="7.19" ry="7.25" fill="#50e6ff" stroke="#50e6ff" stroke-width="1"/><path d="M60.87,72.49 L56.63,76.16 L51.72,79.54 L46.15,82.65 L39.91,85.48 L35.92,83.73 L32.19,81.89 L28.72,79.93 L25.52,77.86 L22.58,75.68 L19.90,73.39 L17.48,70.99 L15.31,68.48 L13.41,65.86 L11.76,63.12 L10.37,60.27 L9.23,57.31 L8.35,54.23 L7.72,51.04 L7.34,47.74 L7.21,44.32 L7.21,24.60 L11.41,24.19 L15.58,23.46 L19.72,22.41 L23.82,21.05 L27.89,19.36 L31.93,17.36 L35.94,15.03 L39.91,12.40 L43.88,15.03 L47.89,17.36 L51.92,19.36 L56.00,21.05 L60.10,22.41 L64.24,23.46 L68.40,24.19 L72.60,24.60 L72.60,26.84 L72.74,27.28 L73.11,27.57 L74.42,28.23 L75.63,29.03 L76.74,29.97 L77.73,31.03 L78.15,31.31 L78.62,31.28 L78.99,31.01 L79.15,30.53 L79.15,21.43 L78.89,20.15 L78.17,19.11 L77.12,18.41 L75.83,18.16 L71.49,17.96 L67.19,17.38 L62.91,16.41 L58.66,15.06 L54.43,13.31 L50.22,11.18 L46.04,8.65 L41.88,5.74 L40.94,5.25 L39.92,5.09 L38.90,5.25 L37.96,5.74 L33.79,8.66 L29.61,11.18 L25.40,13.31 L21.17,15.06 L16.91,16.42 L12.64,17.38 L8.33,17.97 L4.00,18.16 L2.71,18.42 L1.65,19.11 L0.94,20.15 L0.68,21.43 L0.68,44.31 L0.83,48.33 L1.28,52.21 L2.03,55.96 L3.08,59.57 L4.43,63.04 L6.08,66.38 L8.02,69.57 L10.26,72.63 L12.80,75.55 L15.62,78.33 L18.74,80.96 L22.16,83.46 L25.86,85.82 L29.85,88.03 L34.13,90.10 L38.70,92.03 L39.91,92.26 L41.11,92.03 L45.12,90.35 L48.91,88.56 L52.48,86.67 L55.83,84.66 L58.96,82.55 L61.86,80.33 L64.54,78.00 L67.00,75.56 L67.20,75.18 L67.17,74.77 L66.95,74.42 L66.56,74.24 L64.10,73.56 L61.88,72.40 L61.36,72.27 L60.87,72.48 L60.87,72.49 Z" fill="#8f5be8" stroke="#1e1e1e" stroke-width="1" stroke-linejoin="round"/></svg>