<svg xmlns="http://www.w3.org/2000/svg" viewBox="-1.33 -1.33 98.67 98.66"><path d="M47.86,30.43 L46.58,30.05 L45.27,29.92 L43.95,30.05 L42.67,30.43 L28.87,36.01 L28.04,36.49 L27.41,37.19 L27.00,38.03 L26.86,38.98 L26.86,56.69 L27.00,57.64 L27.41,58.49 L28.04,59.18 L28.87,59.67 L42.67,65.25 L43.95,65.63 L45.27,65.75 L46.58,65.63 L47.86,65.25 L67.39,58.76 L68.21,58.27 L68.85,57.58 L69.25,56.73 L69.40,55.79 L69.37,39.27 L69.23,38.32 L68.82,37.48 L68.19,36.78 L67.36,36.29 L47.86,30.43 L47.86,30.43 Z" fill="#975ae8" stroke="#1e1e1e" stroke-width="1" stroke-linejoin="round"/><path d="M42.42,30.43 L28.61,36.01 L27.79,36.49 L27.15,37.19 L26.75,38.03 L26.60,38.98 L26.60,56.69 L26.75,57.64 L27.15,58.49 L27.79,59.18 L28.61,59.67 L42.42,65.25 L43.69,65.63 L45.01,65.75 L45.01,29.92 L43.69,30.05 L42.42,30.43 Z" fill="#552f99" stroke="#1e1e1e" stroke-width="1" stroke-linejoin="round"/><path d="M35.68,37.34 L35.68,58.40 L35.77,58.68 L36.02,58.84 L41.29,60.38 L41.70,60.31 L41.88,59.94 L41.88,35.74 L41.70,35.37 L41.29,35.30 L36.01,36.90 L35.77,37.07 L35.68,37.34 L35.68,37.34 Z" fill="#b77af4" stroke="#b77af4" stroke-width="1" stroke-linejoin="round" opacity="0.75"/><path d="M29.11,39.26 L29.11,56.18 L29.20,56.45 L29.43,56.62 L33.05,57.82 L33.46,57.76 L33.65,57.39 L33.65,38.19 L33.47,37.82 L33.06,37.74 L29.44,38.82 L29.20,38.98 L29.11,39.26 L29.11,39.26 Z" fill="#b77af4" stroke="#b77af4" stroke-width="1" stroke-linejoin="round" opacity="0.75"/><path d="M48.13,76.42 L44.69,76.68 L41.94,77.39 L40.90,77.88 L40.12,78.46 L39.63,79.10 L39.46,79.80 L39.46,91.95 L39.63,92.65 L40.12,93.29 L40.90,93.87 L41.94,94.36 L44.69,95.07 L48.13,95.33 L51.57,95.07 L54.32,94.36 L55.36,93.87 L56.14,93.29 L56.63,92.65 L56.80,91.95 L56.80,79.80 L56.63,79.10 L56.14,78.46 L55.36,77.88 L54.32,77.39 L51.57,76.68 L48.13,76.42 Z" fill="#41d2ee" stroke="#41d2ee" stroke-width="1" stroke-linejoin="round"/><path d="M55.07,91.96 L54.94,92.28 L54.58,92.62 L53.19,93.28 L51.00,93.78 L48.13,93.98 L45.26,93.78 L43.07,93.28 L41.68,92.62 L41.31,92.28 L41.19,91.96 L41.19,87.96 L42.52,88.50 L44.15,88.91 L46.04,89.17 L48.13,89.26 L50.22,89.17 L52.10,88.91 L53.73,88.50 L55.07,87.96 L55.07,91.96 Z" fill="#ffffff" stroke="#ffffff" stroke-width="1" stroke-linejoin="round"/><path d="M55.07,85.88 L54.94,86.20 L54.58,86.54 L53.19,87.20 L51.00,87.70 L48.13,87.90 L45.26,87.70 L43.07,87.20 L41.68,86.54 L41.31,86.20 L41.19,85.88 L41.19,81.85 L42.82,82.47 L44.54,82.90 L46.32,83.13 L48.13,83.17 L49.94,83.13 L51.72,82.90 L53.44,82.47 L55.07,81.85 L55.07,85.88 Z" fill="#ffffff" stroke="#ffffff" stroke-width="1" stroke-linejoin="round"/><path d="M48.13,0.67 L44.69,0.92 L41.94,1.63 L40.90,2.13 L40.12,2.70 L39.63,3.34 L39.46,4.04 L39.46,16.20 L39.63,16.90 L40.12,17.54 L40.90,18.11 L41.94,18.61 L44.69,19.32 L48.13,19.57 L51.57,19.32 L54.32,18.61 L55.36,18.11 L56.14,17.54 L56.63,16.90 L56.80,16.20 L56.80,4.04 L56.63,3.34 L56.14,2.70 L55.36,2.13 L54.32,1.63 L51.57,0.92 L48.13,0.67 Z" fill="#41d2ee" stroke="#41d2ee" stroke-width="1" stroke-linejoin="round"/><path d="M55.07,16.20 L54.94,16.53 L54.58,16.87 L53.19,17.53 L51.00,18.03 L48.13,18.23 L45.26,18.03 L43.07,17.53 L41.68,16.87 L41.31,16.53 L41.19,16.20 L41.19,12.20 L42.52,12.74 L44.15,13.15 L46.04,13.41 L48.13,13.50 L50.22,13.41 L52.10,13.15 L53.73,12.74 L55.07,12.20 L55.07,16.20 L55.07,16.20 Z" fill="#ffffff" stroke="#ffffff" stroke-width="1" stroke-linejoin="round"/><path d="M55.07,10.12 L54.94,10.45 L54.58,10.79 L53.19,11.45 L51.00,11.95 L48.13,12.15 L45.26,11.95 L43.07,11.45 L41.68,10.79 L41.31,10.45 L41.19,10.12 L41.19,6.10 L42.82,6.71 L44.54,7.14 L46.32,7.38 L48.13,7.42 L49.94,7.38 L51.72,7.14 L53.44,6.71 L55.07,6.10 L55.07,10.12 L55.07,10.12 Z" fill="#ffffff" stroke="#ffffff" stroke-width="1" stroke-linejoin="round"/><path d="M9.34,38.38 L5.90,38.64 L3.15,39.35 L2.11,39.85 L1.33,40.42 L0.84,41.06 L0.67,41.76 L0.67,53.92 L0.84,54.62 L1.33,55.26 L2.11,55.83 L3.15,56.33 L5.90,57.04 L9.34,57.30 L12.78,57.04 L15.53,56.33 L16.57,55.83 L17.35,55.26 L17.84,54.62 L18.01,53.92 L18.01,41.76 L17.84,41.06 L17.35,40.42 L16.57,39.85 L15.53,39.35 L12.78,38.64 L9.34,38.38 Z" fill="#41d2ee" stroke="#41d2ee" stroke-width="1" stroke-linejoin="round"/><path d="M16.28,53.92 L16.16,54.24 L15.79,54.59 L14.40,55.24 L12.21,55.75 L9.34,55.95 L6.47,55.75 L4.29,55.24 L2.89,54.59 L2.53,54.24 L2.41,53.92 L2.41,49.92 L3.74,50.46 L5.37,50.87 L7.25,51.13 L9.34,51.22 L11.43,51.13 L13.32,50.87 L14.95,50.46 L16.28,49.92 L16.28,53.92 Z" fill="#ffffff" stroke="#ffffff" stroke-width="1" stroke-linejoin="round"/><path d="M16.28,47.84 L16.16,48.16 L15.79,48.51 L14.40,49.16 L12.21,49.67 L9.34,49.87 L6.47,49.67 L4.29,49.16 L2.89,48.51 L2.53,48.16 L2.41,47.84 L2.41,43.81 L4.04,44.43 L5.75,44.86 L7.53,45.10 L9.34,45.14 L11.16,45.10 L12.93,44.86 L14.65,44.43 L16.28,43.81 L16.28,47.84 Z" fill="#ffffff" stroke="#ffffff" stroke-width="1" stroke-linejoin="round"/><path d="M86.66,38.38 L83.22,38.64 L80.47,39.35 L79.43,39.85 L78.65,40.42 L78.16,41.06 L77.99,41.76 L77.99,53.92 L78.16,54.62 L78.65,55.26 L79.43,55.83 L80.47,56.33 L83.22,57.04 L86.66,57.30 L90.10,57.04 L92.85,56.33 L93.89,55.83 L94.67,55.26 L95.16,54.62 L95.33,53.92 L95.33,41.76 L95.16,41.06 L94.67,40.42 L93.89,39.85 L92.85,39.35 L90.10,38.64 L86.66,38.38 Z" fill="#41d2ee" stroke="#41d2ee" stroke-width="1" stroke-linejoin="round"/><path d="M93.60,53.92 L93.48,54.24 L93.11,54.59 L91.72,55.24 L89.53,55.75 L86.66,55.95 L83.79,55.75 L81.60,55.24 L80.21,54.59 L79.85,54.24 L79.72,53.92 L79.72,49.92 L81.06,50.46 L82.69,50.87 L84.57,51.13 L86.66,51.22 L88.75,51.13 L90.63,50.87 L92.27,50.46 L93.60,49.92 L93.60,53.92 Z" fill="#ffffff" stroke="#ffffff" stroke-width="1" stroke-linejoin="round"/><path d="M93.60,47.84 L93.48,48.16 L93.11,48.51 L91.72,49.16 L89.53,49.67 L86.66,49.87 L83.79,49.67 L81.60,49.16 L80.21,48.51 L79.85,48.16 L79.72,47.84 L79.72,43.81 L81.35,44.43 L83.07,44.86 L84.85,45.10 L86.66,45.14 L88.47,45.10 L90.25,44.86 L91.97,44.43 L93.60,43.81 L93.60,47.84 Z" fill="#ffffff" stroke="#ffffff" stroke-width="1" stroke-linejoin="round"/><path d="M11.58,36.11 L11.58,29.33 L11.79,27.93 L12.39,26.67 L13.33,25.65 L14.55,24.93 L37.09,15.82 L37.09,11.57 L13.07,21.28 L11.89,21.86 L10.83,22.60 L9.90,23.48 L9.11,24.47 L8.48,25.57 L8.01,26.76 L7.73,28.02 L7.63,29.33 L7.63,36.07 L9.34,36.02 L11.58,36.11 L11.58,36.11 Z" fill="#9e9e9e" stroke="#1e1e1e" stroke-width="1" stroke-linejoin="round"/><path d="M11.58,66.41 L11.58,59.57 L9.34,59.66 L7.63,59.60 L7.63,66.41 L7.73,67.72 L8.01,68.98 L8.48,70.17 L9.11,71.27 L9.90,72.27 L10.83,73.14 L11.89,73.88 L13.07,74.46 L37.09,84.17 L37.09,81.82 L37.19,80.92 L37.50,80.09 L14.56,70.82 L13.33,70.09 L12.39,69.07 L11.79,67.82 L11.58,66.41 L11.58,66.41 Z" fill="#9e9e9e" stroke="#1e1e1e" stroke-width="1" stroke-linejoin="round"/><path d="M83.19,21.28 L59.18,11.57 L59.18,15.82 L81.71,24.93 L82.94,25.65 L83.88,26.67 L84.48,27.93 L84.69,29.33 L84.69,36.09 L86.67,36.02 L88.64,36.09 L88.64,29.33 L88.54,28.02 L88.25,26.76 L87.79,25.57 L87.16,24.47 L86.37,23.48 L85.44,22.60 L84.38,21.86 L83.19,21.28 Z" fill="#9e9e9e" stroke="#1e1e1e" stroke-width="1" stroke-linejoin="round"/><path d="M84.68,59.58 L84.68,66.41 L84.47,67.82 L83.87,69.07 L82.93,70.09 L81.71,70.82 L58.77,80.09 L59.07,80.92 L59.18,81.82 L59.18,84.17 L83.19,74.46 L84.38,73.88 L85.44,73.14 L86.37,72.27 L87.16,71.27 L87.79,70.17 L88.25,68.98 L88.54,67.72 L88.64,66.41 L88.64,59.58 L86.67,59.66 L84.69,59.58 L84.68,59.58 Z" fill="#9e9e9e" stroke="#1e1e1e" stroke-width="1" stroke-linejoin="round"/></svg>