<svg xmlns="http://www.w3.org/2000/svg" viewBox="-1.46 2.47 100.00 92.11"><path d="M28.41,44.05 L13.00,49.67 L13.45,53.37 L14.25,57.01 L28.87,51.72 L28.39,47.90 L28.41,44.05 L28.41,44.05 Z" fill="#c32034" stroke="#c32034" stroke-width="1" stroke-linejoin="round"/><path d="M96.54,26.97 L94.81,23.72 L92.83,20.62 L77.40,26.24 L79.88,29.14 L81.98,32.32 L96.54,26.97 Z" fill="#c32034" stroke="#c32034" stroke-width="1" stroke-linejoin="round"/><path d="M62.63,22.60 L65.63,24.24 L68.42,26.23 L70.96,28.53 L86.37,22.91 L82.55,18.26 L78.13,14.18 L73.19,10.74 L67.83,8.00 L62.14,6.02 L56.24,4.84 L50.23,4.47 L44.23,4.93 L38.34,6.20 L32.69,8.26 L27.37,11.07 L22.48,14.59 L18.12,18.73 L14.36,23.44 L11.28,28.61 L8.94,34.16 L7.38,39.97 L6.62,45.94 L6.68,51.96 L22.11,46.34 L22.57,42.93 L23.43,39.61 L24.69,36.42 L26.90,32.52 L29.69,29.02 L32.99,25.99 L36.73,23.52 L40.80,21.66 L45.12,20.47 L49.57,19.96 L54.04,20.15 L58.43,21.04 L62.63,22.60 L62.63,22.60 Z" fill="#db212f" stroke="#1e1e1e" stroke-width="1" stroke-linejoin="round"/><path d="M15.18,56.56 L0.54,61.85 L2.23,67.10 L4.55,72.11 L7.44,76.80 L22.79,71.19 L20.11,67.99 L17.92,64.44 L16.26,60.60 L15.18,56.58 L15.18,56.56 Z" fill="#ea2227" stroke="#1e1e1e" stroke-width="1" stroke-linejoin="round"/><path d="M79.07,50.74 L78.59,54.14 L77.72,57.46 L76.48,60.66 L74.27,64.57 L71.48,68.09 L68.17,71.12 L64.42,73.60 L60.34,75.46 L56.01,76.65 L51.55,77.16 L47.06,76.96 L42.66,76.06 L38.46,74.48 L35.45,72.84 L32.66,70.85 L30.13,68.55 L14.78,74.15 L18.34,78.54 L22.45,82.42 L27.01,85.75 L31.98,88.45 L37.68,90.65 L43.64,92.04 L49.74,92.58 L55.85,92.28 L61.85,91.13 L67.65,89.16 L73.11,86.41 L78.13,82.92 L82.63,78.77 L86.51,74.04 L89.69,68.82 L92.12,63.20 L93.74,57.30 L94.53,51.24 L94.47,45.12 L79.07,50.74 Z" fill="#db212f" stroke="#1e1e1e" stroke-width="1" stroke-linejoin="round"/><path d="M82.85,31.91 L68.24,37.20 L70.01,41.00 L71.21,45.01 L71.82,49.15 L71.81,53.34 L87.15,47.72 L86.37,42.29 L84.92,36.99 L82.84,31.91 L82.85,31.91 Z" fill="#ea2227" stroke="#1e1e1e" stroke-width="1" stroke-linejoin="round"/><path d="M13.04,49.62 L28.38,44.06 L28.31,47.10 L13.48,52.60 L13.04,49.62 Z" fill="#ad213a" stroke="#ad213a" stroke-width="1" stroke-linejoin="round"/><path d="M77.39,26.15 L93.00,20.86 L94.65,23.24 L79.51,28.52 L77.39,26.15 Z" fill="#ad213a" stroke="#ad213a" stroke-width="1" stroke-linejoin="round"/><path d="M14.70,74.12 L30.05,68.63 L34.67,72.95 L18.54,78.88 L14.70,74.12 Z" fill="#ba2034" stroke="#ba2034" stroke-width="1" stroke-linejoin="round"/><path d="M94.68,45.24 L79.08,50.79 L77.95,56.95 L94.62,51.12 L94.68,45.24 Z" fill="#ba2034" stroke="#ba2034" stroke-width="1" stroke-linejoin="round"/></svg>