<svg xmlns="http://www.w3.org/2000/svg" viewBox="-1.47 2.42 98.93 91.13"><path d="M28.09,43.56 L12.85,49.12 L13.30,52.78 L14.10,56.38 L28.55,51.15 L28.08,47.37 L28.09,43.56 L28.09,43.56 Z" fill="#c32034" stroke="#c32034" stroke-width="1" stroke-linejoin="round"/><path d="M95.47,26.67 L93.76,23.46 L91.80,20.39 L76.54,25.95 L78.99,28.82 L81.07,31.96 L95.47,26.67 Z" fill="#c32034" stroke="#c32034" stroke-width="1" stroke-linejoin="round"/><path d="M61.93,22.35 L64.90,23.97 L67.66,25.94 L70.17,28.21 L85.41,22.66 L81.63,18.06 L77.26,14.02 L72.37,10.62 L67.07,7.91 L61.45,5.96 L55.61,4.79 L49.67,4.42 L43.74,4.87 L37.92,6.13 L32.33,8.17 L27.06,10.95 L22.23,14.42 L17.92,18.53 L14.20,23.18 L11.16,28.29 L8.84,33.78 L7.29,39.52 L6.54,45.43 L6.61,51.38 L21.87,45.82 L22.32,42.46 L23.17,39.17 L24.42,36.01 L26.60,32.16 L29.36,28.69 L32.63,25.70 L36.32,23.26 L40.35,21.42 L44.62,20.24 L49.02,19.73 L53.44,19.92 L57.78,20.80 L61.93,22.35 L61.93,22.35 Z" fill="#db212f" stroke="#1e1e1e" stroke-width="1" stroke-linejoin="round"/><path d="M15.01,55.93 L0.53,61.16 L2.21,66.35 L4.50,71.31 L7.36,75.95 L22.53,70.40 L19.89,67.23 L17.72,63.72 L16.08,59.93 L15.01,55.95 L15.01,55.93 Z" fill="#ea2227" stroke="#1e1e1e" stroke-width="1" stroke-linejoin="round"/><path d="M78.19,50.18 L77.72,53.54 L76.86,56.82 L75.63,59.99 L73.45,63.85 L70.68,67.33 L67.41,70.33 L63.71,72.78 L59.66,74.62 L55.39,75.80 L50.97,76.30 L46.54,76.10 L42.19,75.21 L38.03,73.65 L35.06,72.03 L32.30,70.06 L29.79,67.79 L14.62,73.33 L18.14,77.66 L22.20,81.51 L26.71,84.79 L31.62,87.47 L37.27,89.64 L43.16,91.01 L49.18,91.55 L55.22,91.25 L61.17,90.12 L66.89,88.17 L72.29,85.45 L77.27,82.00 L81.71,77.90 L85.54,73.22 L88.69,68.05 L91.09,62.50 L92.70,56.67 L93.48,50.67 L93.42,44.62 L78.19,50.18 Z" fill="#db212f" stroke="#1e1e1e" stroke-width="1" stroke-linejoin="round"/><path d="M81.93,31.56 L67.48,36.79 L69.23,40.54 L70.42,44.51 L71.02,48.61 L71.01,52.75 L86.18,47.19 L85.41,41.82 L83.98,36.58 L81.91,31.56 L81.93,31.56 Z" fill="#ea2227" stroke="#1e1e1e" stroke-width="1" stroke-linejoin="round"/><path d="M12.89,49.07 L28.06,43.57 L28.00,46.58 L13.33,52.02 L12.89,49.07 Z" fill="#ad213a" stroke="#ad213a" stroke-width="1" stroke-linejoin="round"/><path d="M76.53,25.86 L91.96,20.62 L93.60,22.98 L78.62,28.21 L76.53,25.86 Z" fill="#ad213a" stroke="#ad213a" stroke-width="1" stroke-linejoin="round"/><path d="M14.54,73.30 L29.71,67.87 L34.29,72.14 L18.33,78.01 L14.54,73.30 Z" fill="#ba2034" stroke="#ba2034" stroke-width="1" stroke-linejoin="round"/><path d="M93.63,44.74 L78.20,50.23 L77.09,56.31 L93.57,50.55 L93.63,44.74 Z" fill="#ba2034" stroke="#ba2034" stroke-width="1" stroke-linejoin="round"/></svg>