<svg xmlns="http://www.w3.org/2000/svg" viewBox="1.64 1.55 100.00 100.00"><path d="M49.06,49.22 L3.64,49.22 L3.64,10.16 L3.96,8.13 L4.88,6.30 L6.33,4.84 L8.15,3.89 L10.18,3.55 L49.06,3.55 L49.06,49.22 Z" fill="#949494" stroke="#1e1e1e" stroke-width="1" stroke-linejoin="round"/><path d="M9.28,43.57 L43.44,43.57 L43.44,9.08 L10.18,9.08 L9.54,9.34 L9.28,9.98 L9.28,9.98 L9.28,43.57 Z" fill="#ffffff" stroke="#1e1e1e" stroke-width="1" stroke-linejoin="round"/><path d="M99.64,49.22 L54.22,49.22 L54.22,3.55 L93.10,3.55 L95.12,3.89 L96.95,4.84 L98.39,6.30 L99.32,8.13 L99.64,10.16 L99.64,49.22 Z" fill="#949494" stroke="#1e1e1e" stroke-width="1" stroke-linejoin="round"/><path d="M59.86,43.57 L94.02,43.57 L94.02,10.16 L93.89,9.48 L93.32,9.09 L93.22,9.09 L93.12,9.09 L59.86,9.09 L59.86,43.57 Z" fill="#ffffff" stroke="#1e1e1e" stroke-width="1" stroke-linejoin="round"/><path d="M49.06,99.55 L10.18,99.55 L8.17,99.24 L6.36,98.32 L4.91,96.89 L3.97,95.08 L3.64,93.07 L3.64,53.95 L49.06,53.95 L49.06,99.55 Z" fill="#949494" stroke="#1e1e1e" stroke-width="1" stroke-linejoin="round"/><path d="M9.28,59.60 L9.28,93.07 L9.54,93.71 L10.18,93.97 L43.42,93.97 L43.42,59.60 L9.28,59.60 Z" fill="#ffffff" stroke="#1e1e1e" stroke-width="1" stroke-linejoin="round"/><path d="M93.10,99.55 L54.22,99.55 L54.22,53.95 L99.64,53.95 L99.64,93.07 L99.30,95.08 L98.37,96.89 L96.92,98.32 L95.11,99.24 L93.10,99.55 Z" fill="#949494" stroke="#1e1e1e" stroke-width="1" stroke-linejoin="round"/><path d="M59.86,93.91 L93.10,93.91 L93.73,93.65 L94.00,93.01 L94.00,59.60 L59.83,59.60 L59.86,93.91 Z" fill="#ffffff" stroke="#1e1e1e" stroke-width="1" stroke-linejoin="round"/><path d="M83.13,35.84 L82.81,34.86 L81.99,34.25 L51.49,23.94 L51.37,23.92 L51.24,23.91 L51.24,23.91 L50.71,24.13 L50.49,24.67 L50.49,78.45 L50.71,78.98 L51.24,79.20 L51.24,79.20 L51.38,79.19 L51.52,79.15 L82.07,66.93 L82.83,66.32 L83.12,65.39 L83.13,35.84 Z" fill="#6735bd" stroke="#1e1e1e" stroke-width="1" stroke-linejoin="round"/><path d="M51.05,23.91 L20.91,29.41 L20.38,29.73 L20.17,30.31 L20.17,71.91 L20.37,72.48 L20.89,72.80 L51.03,79.20 L51.71,79.08 L52.11,78.51 L52.12,78.41 L52.11,78.30 L52.11,24.81 L51.86,24.19 L51.24,23.91 L51.15,23.91 L51.05,23.91 L51.05,23.91 Z" fill="#7f45e0" stroke="#1e1e1e" stroke-width="1" stroke-linejoin="round"/><path d="M37.12,32.20 L37.12,70.92 L47.61,72.63 L47.61,30.38 L37.12,32.20 Z" fill="#b796f9" stroke="#1e1e1e" stroke-width="1" stroke-linejoin="round" opacity="0.5"/><path d="M24.24,34.29 L24.24,68.20 L33.35,70.05 L33.35,32.76 L24.24,34.29 Z" fill="#b796f9" stroke="#1e1e1e" stroke-width="1" stroke-linejoin="round" opacity="0.5"/></svg>