<svg xmlns="http://www.w3.org/2000/svg" viewBox="-2.00 6.64 100.00 90.02"><path d="M39.65,43.64 L53.46,35.25 L92.18,49.82 L90.98,46.19 L89.10,42.87 L86.61,39.97 L86.55,39.70 L83.97,37.55 L81.08,35.82 L77.98,34.53 L74.71,33.73 L74.12,29.20 L72.76,24.85 L70.66,20.80 L67.90,17.18 L64.54,14.09 L60.70,11.62 L56.50,9.86 L52.05,8.86 L47.49,8.64 L42.76,8.98 L38.15,10.13 L33.81,12.07 L29.89,14.74 L26.49,18.06 L23.72,21.92 L21.67,26.20 L17.37,27.12 L13.31,28.78 L9.61,31.14 L6.38,34.12 L3.73,37.62 L1.75,41.54 L0.49,45.75 L-0.00,50.11 L0.55,54.46 L1.85,58.65 L3.86,62.55 L6.51,66.04 L9.72,69.03 L13.40,71.41 L17.44,73.12 L21.71,74.11 L26.09,74.33 L39.65,74.33 L39.65,43.64 Z" fill="#2f8ce2" stroke="#1e1e1e" stroke-width="1" stroke-linejoin="round"/><path d="M53.74,38.20 L53.79,61.04 L96.00,70.01 L96.00,54.10 L53.74,38.20 Z" fill="#767676" stroke="#1e1e1e" stroke-width="1" stroke-linejoin="round"/><path d="M53.74,38.20 L42.32,45.14 L42.32,66.38 L53.79,61.04 L53.74,38.20 Z" fill="#999999" stroke="#1e1e1e" stroke-width="1" stroke-linejoin="round"/><path d="M73.00,61.36 L76.84,62.43 L76.84,50.00 L73.00,48.66 L73.00,61.36 Z" fill="#a3a3a3" stroke="#a3a3a3" stroke-width="1" stroke-linejoin="round"/><path d="M69.16,47.43 L65.32,46.05 L65.32,59.33 L69.16,60.40 L69.16,47.43 Z" fill="#a3a3a3" stroke="#a3a3a3" stroke-width="1" stroke-linejoin="round"/><path d="M80.68,63.44 L84.42,64.46 L84.53,52.61 L80.68,51.33 L80.68,63.44 Z" fill="#a3a3a3" stroke="#a3a3a3" stroke-width="1" stroke-linejoin="round"/><path d="M57.69,57.36 L61.53,58.32 L61.53,44.82 L57.69,43.54 L57.69,57.36 Z" fill="#a3a3a3" stroke="#a3a3a3" stroke-width="1" stroke-linejoin="round"/><path d="M92.16,55.23 L88.32,53.89 L88.32,65.47 L92.16,66.54 L92.16,55.23 Z" fill="#a3a3a3" stroke="#a3a3a3" stroke-width="1" stroke-linejoin="round"/><path d="M46.21,60.67 L44.29,61.79 L44.29,46.69 L46.21,45.67 L46.21,60.67 Z" fill="#b3b3b3" stroke="#b3b3b3" stroke-width="1" stroke-linejoin="round"/><path d="M50.00,43.49 L48.03,44.77 L48.03,59.44 L50.00,58.37 L50.00,43.49 Z" fill="#b3b3b3" stroke="#b3b3b3" stroke-width="1" stroke-linejoin="round"/><path d="M96.00,70.01 L84.47,73.96 L42.32,66.38 L53.79,61.04 L96.00,70.01 Z" fill="#474647" stroke="#1e1e1e" stroke-width="1" stroke-linejoin="round"/><path d="M96.00,86.28 L53.58,94.34 L53.79,64.51 L96.00,72.35 L96.00,86.28 Z" fill="#767676" stroke="#1e1e1e" stroke-width="1" stroke-linejoin="round"/><path d="M57.69,89.43 L57.69,70.49 L61.53,70.97 L61.53,88.79 L57.69,89.43 Z" fill="#a3a3a3" stroke="#a3a3a3" stroke-width="1" stroke-linejoin="round"/><path d="M69.16,87.51 L65.32,88.20 L65.32,71.45 L69.16,72.03 L69.16,87.51 L69.16,87.51 Z" fill="#a3a3a3" stroke="#a3a3a3" stroke-width="1" stroke-linejoin="round"/><path d="M73.00,86.92 L73.00,72.41 L76.84,72.89 L76.84,86.23 L73.00,86.92 Z" fill="#a3a3a3" stroke="#a3a3a3" stroke-width="1" stroke-linejoin="round"/><path d="M84.47,84.90 L80.68,85.59 L80.68,73.37 L84.47,73.96 L84.47,84.90 Z" fill="#a3a3a3" stroke="#a3a3a3" stroke-width="1" stroke-linejoin="round"/><path d="M92.26,83.67 L88.32,84.36 L88.32,74.33 L92.00,74.81 L92.26,83.67 Z" fill="#a3a3a3" stroke="#a3a3a3" stroke-width="1" stroke-linejoin="round"/><path d="M42.32,87.52 L42.32,70.12 L53.84,64.78 L53.84,94.67 L42.32,87.52 Z" fill="#999999" stroke="#1e1e1e" stroke-width="1" stroke-linejoin="round"/><path d="M45.95,87.46 L44.24,86.60 L44.24,71.87 L45.95,71.07 L45.95,87.46 Z" fill="#b3b3b3" stroke="#b3b3b3" stroke-width="1" stroke-linejoin="round"/><path d="M50.05,69.05 L48.03,70.06 L48.03,88.63 L50.00,89.64 L50.00,69.05 L50.05,69.05 Z" fill="#b3b3b3" stroke="#b3b3b3" stroke-width="1" stroke-linejoin="round"/></svg>