<svg xmlns="http://www.w3.org/2000/svg" viewBox="-2.00 4.51 100.43 88.80"><path d="M30.93,6.51 L15.68,9.33 L15.68,30.13 L30.93,33.39 L46.24,27.25 L46.24,11.73 L30.93,6.51 Z" fill="#975ae8" stroke="#1e1e1e" stroke-width="1" stroke-linejoin="round"/><path d="M15.68,9.33 L15.68,30.13 L31.09,33.39 L31.09,6.72 L15.68,9.33 Z" fill="#341a6e" stroke="#341a6e" stroke-width="1" stroke-linejoin="round"/><path d="M22.19,28.53 L17.87,27.68 L17.87,11.68 L22.19,10.99 L22.19,28.53 Z" fill="#975ae8" stroke="#975ae8" stroke-width="1" stroke-linejoin="round"/><path d="M28.91,29.76 L23.95,28.96 L23.95,10.67 L28.91,9.81 L28.91,29.76 Z" fill="#975ae8" stroke="#975ae8" stroke-width="1" stroke-linejoin="round"/><path d="M63.95,6.77 L48.69,9.60 L48.69,30.40 L63.95,33.65 L79.20,27.47 L79.20,12.00 L63.95,6.77 Z" fill="#975ae8" stroke="#1e1e1e" stroke-width="1" stroke-linejoin="round"/><path d="M48.69,9.60 L48.69,30.40 L64.00,33.65 L64.00,6.99 L48.69,9.60 Z" fill="#341a6e" stroke="#341a6e" stroke-width="1" stroke-linejoin="round"/><path d="M55.15,28.80 L50.83,27.95 L50.83,11.95 L55.15,11.25 L55.15,28.80 Z" fill="#975ae8" stroke="#975ae8" stroke-width="1" stroke-linejoin="round"/><path d="M61.87,30.03 L56.91,29.23 L56.91,10.93 L61.87,10.03 L61.87,30.03 Z" fill="#975ae8" stroke="#975ae8" stroke-width="1" stroke-linejoin="round"/><path d="M15.31,35.20 L0.05,38.03 L0.05,58.83 L15.31,62.08 L30.61,55.95 L30.61,40.43 L15.31,35.20 Z" fill="#975ae8" stroke="#1e1e1e" stroke-width="1" stroke-linejoin="round"/><path d="M0.00,38.03 L0.00,58.67 L15.41,61.92 L15.41,35.25 L0.00,38.03 Z" fill="#341a6e" stroke="#341a6e" stroke-width="1" stroke-linejoin="round"/><path d="M6.45,57.28 L2.13,56.37 L2.13,40.37 L6.45,39.63 L6.45,57.28 Z" fill="#975ae8" stroke="#975ae8" stroke-width="1" stroke-linejoin="round"/><path d="M13.23,58.67 L8.27,57.87 L8.27,39.36 L13.23,38.51 L13.23,58.67 Z" fill="#975ae8" stroke="#975ae8" stroke-width="1" stroke-linejoin="round"/><path d="M48.21,34.99 L32.96,37.81 L32.96,58.61 L48.21,61.92 L63.47,55.73 L63.47,40.21 L48.21,34.99 Z" fill="#975ae8" stroke="#1e1e1e" stroke-width="1" stroke-linejoin="round"/><path d="M32.96,37.81 L32.96,58.67 L48.32,61.92 L48.32,35.25 L32.96,37.81 Z" fill="#341a6e" stroke="#341a6e" stroke-width="1" stroke-linejoin="round"/><path d="M39.41,57.07 L35.09,56.16 L35.09,40.16 L39.41,39.41 L39.41,57.07 Z" fill="#975ae8" stroke="#975ae8" stroke-width="1" stroke-linejoin="round"/><path d="M46.13,58.24 L41.17,57.44 L41.17,39.15 L46.13,38.29 L46.13,58.24 Z" fill="#975ae8" stroke="#975ae8" stroke-width="1" stroke-linejoin="round"/><path d="M81.12,35.25 L65.87,38.08 L65.87,58.88 L81.12,62.13 L96.43,56.00 L96.43,40.48 L81.12,35.25 Z" fill="#975ae8" stroke="#1e1e1e" stroke-width="1" stroke-linejoin="round"/><path d="M65.87,38.08 L65.87,58.67 L81.28,61.92 L81.28,35.25 L65.87,38.08 Z" fill="#341a6e" stroke="#341a6e" stroke-width="1" stroke-linejoin="round"/><path d="M72.37,57.33 L68.05,56.43 L68.05,40.43 L72.37,39.68 L72.37,57.33 Z" fill="#975ae8" stroke="#975ae8" stroke-width="1" stroke-linejoin="round"/><path d="M79.09,58.51 L74.13,57.71 L74.13,39.41 L79.09,38.56 L79.09,58.51 Z" fill="#975ae8" stroke="#975ae8" stroke-width="1" stroke-linejoin="round"/><path d="M30.56,64.21 L15.31,66.99 L15.31,87.79 L30.56,91.09 L45.87,84.91 L45.87,69.44 L30.56,64.21 Z" fill="#975ae8" stroke="#1e1e1e" stroke-width="1" stroke-linejoin="round"/><path d="M15.31,66.99 L15.31,87.79 L30.72,91.09 L30.72,64.00 L15.31,66.99 Z" fill="#341a6e" stroke="#341a6e" stroke-width="1" stroke-linejoin="round"/><path d="M21.81,86.24 L17.49,85.33 L17.49,69.33 L21.81,68.59 L21.81,86.24 Z" fill="#975ae8" stroke="#975ae8" stroke-width="1" stroke-linejoin="round"/><path d="M28.53,87.47 L23.57,86.67 L23.57,68.32 L28.53,67.47 L28.53,87.47 Z" fill="#975ae8" stroke="#975ae8" stroke-width="1" stroke-linejoin="round"/><path d="M63.52,64.43 L48.27,67.25 L48.27,88.05 L63.52,91.31 L78.83,85.17 L78.83,69.65 L63.52,64.43 Z" fill="#975ae8" stroke="#1e1e1e" stroke-width="1" stroke-linejoin="round"/><path d="M48.27,67.25 L48.27,88.05 L63.68,91.31 L63.68,64.64 L48.27,67.25 Z" fill="#341a6e" stroke="#341a6e" stroke-width="1" stroke-linejoin="round"/><path d="M54.77,86.51 L50.45,85.60 L50.45,69.60 L54.77,68.85 L54.77,86.51 Z" fill="#975ae8" stroke="#975ae8" stroke-width="1" stroke-linejoin="round"/><path d="M61.49,87.68 L56.53,86.88 L56.53,68.59 L61.49,67.73 L61.49,87.68 Z" fill="#975ae8" stroke="#975ae8" stroke-width="1" stroke-linejoin="round"/></svg>