<svg xmlns="http://www.w3.org/2000/svg" viewBox="-2.00 -2.00 99.95 100.00"><path d="M6.13,78.88 L6.13,17.12 L6.35,14.96 L6.97,12.91 L7.98,11.02 L9.33,9.33 L11.02,7.96 L12.91,6.95 L14.96,6.34 L17.12,6.13 L78.83,6.13 L80.99,6.35 L83.04,6.97 L84.93,7.98 L86.61,9.33 L87.99,11.02 L88.99,12.91 L89.61,14.96 L89.81,17.12 L89.81,78.83 L89.60,80.99 L88.97,83.04 L87.97,84.93 L86.61,86.61 L84.93,87.99 L83.04,88.99 L80.99,89.61 L78.83,89.81 L17.12,89.81 L14.96,89.60 L12.91,88.97 L11.02,87.97 L9.33,86.61 L7.96,84.93 L6.95,83.04 L6.34,80.99 L6.13,78.83 L6.13,78.88 Z" fill="#ffffff" stroke="#1e1e1e" stroke-width="1" stroke-linejoin="round"/><path d="M6.13,78.88 L6.13,17.12 L6.35,14.96 L6.97,12.91 L7.98,11.02 L9.33,9.33 L11.02,7.96 L12.91,6.95 L14.96,6.34 L17.12,6.13 L78.83,6.13 L80.99,6.35 L83.04,6.97 L84.93,7.98 L86.61,9.33 L87.99,11.02 L88.99,12.91 L89.61,14.96 L89.81,17.12 L89.81,78.83 L89.60,80.99 L88.97,83.04 L87.97,84.93 L86.61,86.61 L84.93,87.99 L83.04,88.99 L80.99,89.61 L78.83,89.81 L17.12,89.81 L14.96,89.60 L12.91,88.97 L11.02,87.97 L9.33,86.61 L7.96,84.93 L6.95,83.04 L6.34,80.99 L6.13,78.83 L6.13,78.88 Z" fill="#d8f7ff" stroke="#1e1e1e" stroke-width="1" stroke-linejoin="round" opacity="0.75"/><path d="M78.88,96.00 L17.12,96.00 L15.41,95.92 L13.74,95.67 L12.12,95.27 L10.55,94.71 L9.04,94.00 L7.61,93.14 L6.26,92.14 L5.01,90.99 L3.86,89.72 L2.86,88.37 L2.00,86.94 L1.29,85.43 L0.73,83.87 L0.33,82.25 L0.08,80.58 L0.00,78.88 L0.00,17.12 L0.08,15.41 L0.33,13.74 L0.73,12.12 L1.29,10.55 L2.00,9.04 L2.86,7.61 L3.86,6.26 L5.01,5.01 L6.28,3.86 L7.63,2.86 L9.06,2.00 L10.57,1.29 L12.13,0.73 L13.75,0.33 L15.42,0.08 L17.12,0.00 L78.83,0.00 L80.53,0.08 L82.20,0.33 L83.83,0.73 L85.40,1.29 L86.91,2.00 L88.34,2.86 L89.68,3.86 L90.93,5.01 L92.08,6.28 L93.09,7.63 L93.95,9.06 L94.66,10.57 L95.22,12.13 L95.62,13.75 L95.86,15.42 L95.95,17.12 L95.95,78.83 L95.86,80.53 L95.62,82.20 L95.22,83.83 L94.66,85.40 L93.95,86.91 L93.09,88.34 L92.08,89.68 L90.93,90.93 L89.67,92.08 L88.31,93.09 L86.88,93.95 L85.38,94.66 L83.82,95.22 L82.20,95.62 L80.53,95.86 L78.83,95.95 L78.88,96.00 Z" fill="#1073de" stroke="#1e1e1e" stroke-width="1" stroke-linejoin="round"/><path d="M17.12,6.13 L14.96,6.34 L12.91,6.95 L11.02,7.96 L9.33,9.33 L7.96,11.02 L6.95,12.91 L6.34,14.96 L6.13,17.12 L6.13,78.83 L6.34,80.99 L6.95,83.04 L7.96,84.93 L9.33,86.61 L11.02,87.99 L12.91,88.99 L14.96,89.61 L17.12,89.81 L78.83,89.81 L80.97,89.60 L83.02,88.97 L84.92,87.97 L86.61,86.61 L87.99,84.93 L88.99,83.04 L89.61,80.99 L89.81,78.83 L89.81,17.12 L89.61,14.96 L88.99,12.91 L87.99,11.02 L86.61,9.33 L84.95,7.98 L83.06,6.97 L81.00,6.35 L78.83,6.13 L17.12,6.13 Z" fill="#e2f9ff" stroke="#1e1e1e" stroke-width="1" stroke-linejoin="round"/><path d="M51.68,50.03 L64.64,42.56 L77.60,50.03 L77.60,65.01 L64.64,72.48 L51.68,65.01 L51.68,50.08 L51.68,50.08 L51.68,50.03 Z" fill="#a265ec" stroke="#1e1e1e" stroke-width="1" stroke-linejoin="round"/><path d="M51.79,50.08 L64.69,57.49 L64.69,72.43 L51.73,64.96 L51.73,50.08 L51.73,50.08 L51.79,50.08 Z" fill="#552f99" stroke="#552f99" stroke-width="1" stroke-linejoin="round"/><path d="M64.69,72.37 L77.60,64.96 L77.60,50.03 L64.64,57.49 L64.64,72.37 L64.64,72.37 L64.69,72.37 Z" fill="#8b4ee3" stroke="#8b4ee3" stroke-width="1" stroke-linejoin="round"/><path d="M35.20,21.23 L48.16,13.76 L61.12,21.23 L61.12,36.21 L48.16,43.68 L35.20,36.21 L35.20,21.28 L35.20,21.28 L35.20,21.23 Z" fill="#a265ec" stroke="#1e1e1e" stroke-width="1" stroke-linejoin="round"/><path d="M35.31,21.23 L48.21,28.64 L48.21,43.57 L35.25,36.11 L35.25,21.23 L35.25,21.23 L35.31,21.23 Z" fill="#552f99" stroke="#552f99" stroke-width="1" stroke-linejoin="round"/><path d="M48.16,43.57 L61.07,36.16 L61.07,21.23 L48.11,28.69 L48.11,43.57 L48.11,43.57 L48.16,43.57 Z" fill="#8b4ee3" stroke="#8b4ee3" stroke-width="1" stroke-linejoin="round"/><path d="M51.68,30.45 L64.64,22.99 L77.60,30.45 L77.60,45.44 L64.64,52.91 L51.68,45.44 L51.68,30.51 L51.68,30.51 L51.68,30.45 Z" fill="#a265ec" stroke="#1e1e1e" stroke-width="1" stroke-linejoin="round"/><path d="M51.79,30.51 L64.69,37.92 L64.69,52.85 L51.73,45.39 L51.73,30.51 L51.73,30.51 L51.79,30.51 Z" fill="#552f99" stroke="#552f99" stroke-width="1" stroke-linejoin="round"/><path d="M64.69,52.80 L77.60,45.39 L77.60,30.45 L64.64,37.92 L64.64,52.80 L64.64,52.80 L64.69,52.80 Z" fill="#8b4ee3" stroke="#8b4ee3" stroke-width="1" stroke-linejoin="round"/><path d="M18.67,49.87 L31.63,42.40 L44.59,49.87 L44.59,64.85 L31.63,72.32 L18.67,64.85 L18.67,49.92 L18.67,49.92 L18.67,49.87 Z" fill="#bd96ff" stroke="#1e1e1e" stroke-width="1" stroke-linejoin="round"/><path d="M18.77,49.92 L31.68,57.33 L31.68,72.27 L18.72,64.80 L18.72,49.92 L18.72,49.92 L18.77,49.92 Z" fill="#8b52f4" stroke="#8b52f4" stroke-width="1" stroke-linejoin="round"/><path d="M31.68,72.21 L44.59,64.80 L44.59,49.87 L31.63,57.33 L31.63,72.21 L31.63,72.21 L31.68,72.21 Z" fill="#9c6cfe" stroke="#9c6cfe" stroke-width="1" stroke-linejoin="round"/><path d="M35.20,59.15 L48.16,51.68 L61.12,59.15 L61.12,74.13 L48.16,81.60 L35.20,74.13 L35.20,59.20 L35.20,59.20 L35.20,59.15 Z" fill="#bd96ff" stroke="#1e1e1e" stroke-width="1" stroke-linejoin="round"/><path d="M35.20,59.20 L48.11,66.61 L48.11,81.55 L35.15,74.08 L35.15,59.20 L35.15,59.20 L35.20,59.20 Z" fill="#8b52f4" stroke="#8b52f4" stroke-width="1" stroke-linejoin="round"/><path d="M48.21,81.49 L61.12,74.08 L61.12,59.15 L48.16,66.61 L48.16,81.49 L48.16,81.49 L48.21,81.49 Z" fill="#9c6cfe" stroke="#9c6cfe" stroke-width="1" stroke-linejoin="round"/><path d="M18.67,30.99 L31.63,23.52 L44.59,30.99 L44.59,45.97 L31.63,53.44 L18.67,45.97 L18.67,31.04 L18.67,31.04 L18.67,30.99 Z" fill="#bd96ff" stroke="#1e1e1e" stroke-width="1" stroke-linejoin="round"/><path d="M18.77,31.04 L31.68,38.45 L31.68,53.39 L18.72,45.92 L18.72,31.04 L18.72,31.04 L18.77,31.04 Z" fill="#8b52f4" stroke="#8b52f4" stroke-width="1" stroke-linejoin="round"/><path d="M31.68,53.33 L44.59,45.92 L44.59,30.99 L31.63,38.45 L31.63,53.33 L31.63,53.33 L31.68,53.33 Z" fill="#9c6cfe" stroke="#9c6cfe" stroke-width="1" stroke-linejoin="round"/><path d="M35.20,40.27 L48.16,32.80 L61.12,40.27 L61.12,55.25 L48.16,62.72 L35.20,55.25 L35.20,40.32 L35.20,40.32 L35.20,40.27 Z" fill="#bd96ff" stroke="#1e1e1e" stroke-width="1" stroke-linejoin="round"/><path d="M35.31,40.32 L48.21,47.73 L48.21,62.67 L35.25,55.20 L35.25,40.32 L35.25,40.32 L35.31,40.32 Z" fill="#8b52f4" stroke="#8b52f4" stroke-width="1" stroke-linejoin="round"/><path d="M48.21,62.61 L61.12,55.20 L61.12,40.27 L48.16,47.73 L48.16,62.61 L48.16,62.61 L48.21,62.61 Z" fill="#9c6cfe" stroke="#9c6cfe" stroke-width="1" stroke-linejoin="round"/></svg>