<svg xmlns="http://www.w3.org/2000/svg" viewBox="-2.00 4.48 100.00 88.42"><path d="M30.80,6.48 L15.61,9.29 L15.61,30.00 L30.80,33.24 L46.04,27.13 L46.04,11.68 L30.80,6.48 Z" fill="#975ae8" stroke="#1e1e1e" stroke-width="1" stroke-linejoin="round"/><path d="M15.61,9.29 L15.61,30.00 L30.96,33.24 L30.96,6.69 L15.61,9.29 Z" fill="#341a6e" stroke="#341a6e" stroke-width="1" stroke-linejoin="round"/><path d="M22.09,28.41 L17.79,27.56 L17.79,11.63 L22.09,10.94 L22.09,28.41 Z" fill="#975ae8" stroke="#975ae8" stroke-width="1" stroke-linejoin="round"/><path d="M28.78,29.63 L23.84,28.83 L23.84,10.62 L28.78,9.77 L28.78,29.63 Z" fill="#975ae8" stroke="#975ae8" stroke-width="1" stroke-linejoin="round"/><path d="M63.66,6.74 L48.48,9.56 L48.48,30.27 L63.66,33.50 L78.85,27.35 L78.85,11.95 L63.66,6.74 Z" fill="#975ae8" stroke="#1e1e1e" stroke-width="1" stroke-linejoin="round"/><path d="M48.48,9.56 L48.48,30.27 L63.72,33.50 L63.72,6.96 L48.48,9.56 Z" fill="#341a6e" stroke="#341a6e" stroke-width="1" stroke-linejoin="round"/><path d="M54.90,28.67 L50.60,27.82 L50.60,11.89 L54.90,11.20 L54.90,28.67 Z" fill="#975ae8" stroke="#975ae8" stroke-width="1" stroke-linejoin="round"/><path d="M61.59,29.89 L56.65,29.10 L56.65,10.88 L61.59,9.98 L61.59,29.89 Z" fill="#975ae8" stroke="#975ae8" stroke-width="1" stroke-linejoin="round"/><path d="M15.24,35.04 L0.05,37.86 L0.05,58.57 L15.24,61.81 L30.48,55.70 L30.48,40.25 L15.24,35.04 Z" fill="#975ae8" stroke="#1e1e1e" stroke-width="1" stroke-linejoin="round"/><path d="M0.00,37.86 L0.00,58.41 L15.35,61.65 L15.35,35.10 L0.00,37.86 Z" fill="#341a6e" stroke="#341a6e" stroke-width="1" stroke-linejoin="round"/><path d="M6.42,57.03 L2.12,56.12 L2.12,40.19 L6.42,39.45 L6.42,57.03 Z" fill="#975ae8" stroke="#975ae8" stroke-width="1" stroke-linejoin="round"/><path d="M13.17,58.41 L8.23,57.61 L8.23,39.19 L13.17,38.34 L13.17,58.41 Z" fill="#975ae8" stroke="#975ae8" stroke-width="1" stroke-linejoin="round"/><path d="M48.00,34.83 L32.81,37.65 L32.81,58.35 L48.00,61.65 L63.19,55.49 L63.19,40.04 L48.00,34.83 Z" fill="#975ae8" stroke="#1e1e1e" stroke-width="1" stroke-linejoin="round"/><path d="M32.81,37.65 L32.81,58.41 L48.11,61.65 L48.11,35.10 L32.81,37.65 Z" fill="#341a6e" stroke="#341a6e" stroke-width="1" stroke-linejoin="round"/><path d="M39.24,56.81 L34.94,55.91 L34.94,39.98 L39.24,39.24 L39.24,56.81 Z" fill="#975ae8" stroke="#975ae8" stroke-width="1" stroke-linejoin="round"/><path d="M45.93,57.98 L40.99,57.19 L40.99,38.97 L45.93,38.12 L45.93,57.98 Z" fill="#975ae8" stroke="#975ae8" stroke-width="1" stroke-linejoin="round"/><path d="M80.76,35.10 L65.58,37.91 L65.58,58.62 L80.76,61.86 L96.00,55.75 L96.00,40.30 L80.76,35.10 Z" fill="#975ae8" stroke="#1e1e1e" stroke-width="1" stroke-linejoin="round"/><path d="M65.58,37.91 L65.58,58.41 L80.92,61.65 L80.92,35.10 L65.58,37.91 Z" fill="#341a6e" stroke="#341a6e" stroke-width="1" stroke-linejoin="round"/><path d="M72.05,57.08 L67.75,56.18 L67.75,40.25 L72.05,39.50 L72.05,57.08 Z" fill="#975ae8" stroke="#975ae8" stroke-width="1" stroke-linejoin="round"/><path d="M78.74,58.25 L73.81,57.45 L73.81,39.24 L78.74,38.39 L78.74,58.25 Z" fill="#975ae8" stroke="#975ae8" stroke-width="1" stroke-linejoin="round"/><path d="M30.42,63.93 L15.24,66.69 L15.24,87.40 L30.42,90.69 L45.66,84.53 L45.66,69.13 L30.42,63.93 Z" fill="#975ae8" stroke="#1e1e1e" stroke-width="1" stroke-linejoin="round"/><path d="M15.24,66.69 L15.24,87.40 L30.58,90.69 L30.58,63.72 L15.24,66.69 Z" fill="#341a6e" stroke="#341a6e" stroke-width="1" stroke-linejoin="round"/><path d="M21.72,85.86 L17.42,84.96 L17.42,69.03 L21.72,68.28 L21.72,85.86 Z" fill="#975ae8" stroke="#975ae8" stroke-width="1" stroke-linejoin="round"/><path d="M28.41,87.08 L23.47,86.28 L23.47,68.02 L28.41,67.17 L28.41,87.08 Z" fill="#975ae8" stroke="#975ae8" stroke-width="1" stroke-linejoin="round"/><path d="M63.24,64.14 L48.05,66.96 L48.05,87.66 L63.24,90.90 L78.48,84.80 L78.48,69.35 L63.24,64.14 Z" fill="#975ae8" stroke="#1e1e1e" stroke-width="1" stroke-linejoin="round"/><path d="M48.05,66.96 L48.05,87.66 L63.40,90.90 L63.40,64.35 L48.05,66.96 Z" fill="#341a6e" stroke="#341a6e" stroke-width="1" stroke-linejoin="round"/><path d="M54.53,86.12 L50.23,85.22 L50.23,69.29 L54.53,68.55 L54.53,86.12 Z" fill="#975ae8" stroke="#975ae8" stroke-width="1" stroke-linejoin="round"/><path d="M61.22,87.29 L56.28,86.50 L56.28,68.28 L61.22,67.43 L61.22,87.29 Z" fill="#975ae8" stroke="#975ae8" stroke-width="1" stroke-linejoin="round"/></svg>