<svg xmlns="http://www.w3.org/2000/svg" viewBox="-2.00 0.78 100.00 94.48"><path d="M70.94,55.17 L64.54,55.17 L64.54,41.23 L64.45,40.26 L64.17,39.36 L63.72,38.55 L63.14,37.83 L62.43,37.25 L61.61,36.80 L60.71,36.52 L59.74,36.43 L35.83,36.43 L34.86,36.52 L33.96,36.80 L33.15,37.25 L32.44,37.83 L31.85,38.55 L31.41,39.36 L31.13,40.26 L31.03,41.23 L31.03,55.17 L24.63,55.17 L24.63,41.23 L24.86,38.97 L25.51,36.87 L26.54,34.97 L27.91,33.31 L29.57,31.94 L31.47,30.91 L33.57,30.25 L35.83,30.03 L59.74,30.03 L62.00,30.25 L64.10,30.91 L66.00,31.94 L67.66,33.31 L69.03,34.97 L70.06,36.87 L70.72,38.97 L70.94,41.23 L70.94,55.17 Z" fill="#a3a3a3" stroke="#1e1e1e" stroke-width="1" stroke-linejoin="round"/><path d="M67.74,62.07 L79.95,54.89 L80.46,55.56 L80.86,56.31 L80.69,55.90 L80.65,55.82 L80.34,55.34 L80.31,55.31 L79.96,54.89 L79.95,54.89 L78.85,54.01 L70.23,48.94 L69.42,48.56 L68.58,48.34 L66.88,48.34 L65.26,48.94 L56.64,54.01 L55.55,54.89 L67.75,62.06 L67.75,62.06 L67.74,62.07 Z" fill="#9c6cfe" stroke="#1e1e1e" stroke-width="1" stroke-linejoin="round"/><path d="M67.74,62.07 L67.74,62.07 L55.54,54.89 L54.95,55.64 L54.51,56.49 L54.24,57.42 L54.14,58.39 L54.14,68.53 L54.32,69.85 L54.81,71.07 L55.59,72.11 L56.63,72.92 L65.25,77.99 L66.18,78.38 L66.77,78.53 L67.49,78.62 L67.74,78.62 L67.74,62.07 L67.74,62.07 Z" fill="#7a41dc" stroke="#1e1e1e" stroke-width="1" stroke-linejoin="round"/><path d="M80.86,56.31 L80.46,55.56 L79.95,54.89 L67.74,62.07 L67.74,78.62 L68.05,78.62 L68.88,78.52 L69.17,78.44 L70.18,78.02 L70.24,77.99 L78.86,72.92 L79.89,72.10 L80.68,71.06 L81.17,69.85 L81.34,68.53 L81.34,58.39 L81.25,57.52 L81.02,56.69 L80.86,56.30 L80.86,56.31 Z" fill="#8b52f4" stroke="#1e1e1e" stroke-width="1" stroke-linejoin="round"/><path d="M27.82,62.07 L40.03,54.89 L40.54,55.56 L40.94,56.31 L40.77,55.90 L40.73,55.82 L40.42,55.34 L40.39,55.31 L40.04,54.89 L40.03,54.89 L38.93,54.01 L30.31,48.94 L29.50,48.56 L28.66,48.34 L26.96,48.34 L25.34,48.94 L16.72,54.01 L15.63,54.89 L27.83,62.06 L27.83,62.06 L27.82,62.07 Z" fill="#36dff1" stroke="#1e1e1e" stroke-width="1" stroke-linejoin="round"/><path d="M27.82,62.07 L27.82,62.07 L15.62,54.89 L15.03,55.64 L14.59,56.49 L14.32,57.42 L14.22,58.39 L14.22,68.53 L14.40,69.85 L14.89,71.07 L15.67,72.11 L16.71,72.92 L25.33,77.99 L26.26,78.38 L26.85,78.53 L27.57,78.62 L27.82,78.62 L27.82,62.07 L27.82,62.07 Z" fill="#16bbda" stroke="#1e1e1e" stroke-width="1" stroke-linejoin="round"/><path d="M40.94,56.31 L40.54,55.56 L40.03,54.89 L27.82,62.07 L27.82,78.62 L28.13,78.62 L28.96,78.52 L29.25,78.44 L30.26,78.02 L30.32,77.99 L38.94,72.92 L39.98,72.10 L40.76,71.06 L41.25,69.85 L41.42,68.53 L41.42,58.39 L41.33,57.52 L41.10,56.69 L40.94,56.30 L40.94,56.31 Z" fill="#26cfe8" stroke="#1e1e1e" stroke-width="1" stroke-linejoin="round"/><path d="M47.79,28.52 L47.79,28.52 L35.58,21.34 L34.99,22.09 L34.55,22.94 L34.28,23.87 L34.19,24.85 L34.19,34.99 L34.36,36.31 L34.85,37.52 L35.63,38.56 L36.67,39.38 L45.29,44.45 L46.22,44.84 L46.81,44.99 L47.54,45.08 L47.78,45.08 L47.78,28.53 L47.79,28.52 Z" fill="#4aa647" stroke="#1e1e1e" stroke-width="1" stroke-linejoin="round"/><path d="M61.06,23.15 L60.90,22.76 L60.50,22.01 L59.99,21.34 L47.78,28.52 L47.78,45.07 L48.09,45.07 L48.92,44.97 L49.21,44.89 L50.22,44.47 L50.28,44.44 L58.90,39.37 L59.93,38.55 L60.71,37.51 L61.21,36.30 L61.38,34.98 L61.38,24.84 L61.29,23.97 L61.06,23.14 L61.06,23.15 Z" fill="#62be55" stroke="#1e1e1e" stroke-width="1" stroke-linejoin="round"/><path d="M47.79,28.52 L59.99,21.34 L60.51,22.01 L60.90,22.76 L60.74,22.36 L60.69,22.27 L60.38,21.80 L60.35,21.76 L60.00,21.34 L59.99,21.34 L58.90,20.46 L50.27,15.39 L49.47,15.02 L48.62,14.79 L46.92,14.80 L45.30,15.39 L36.68,20.46 L35.59,21.34 L47.80,28.52 L47.80,28.52 L47.79,28.52 Z" fill="#76d45e" stroke="#1e1e1e" stroke-width="1" stroke-linejoin="round"/><path d="M9.77,18.13 L22.76,10.79 L23.16,10.26 L23.10,9.61 L19.37,3.28 L18.83,2.78 L18.10,2.82 L18.07,2.83 L7.23,9.09 L0.45,12.87 L0.19,13.16 L0.07,13.55 L9.42,18.51 L9.77,18.13 Z" fill="#a3a3a3" stroke="#1e1e1e" stroke-width="1" stroke-linejoin="round"/><path d="M9.32,77.19 L9.32,18.92 L9.42,18.50 L0.07,13.55 L0.00,13.66 L0.00,82.09 L9.35,77.26 L9.32,77.19 Z" fill="#949494" stroke="#1e1e1e" stroke-width="1" stroke-linejoin="round"/><path d="M0.45,83.13 L7.00,86.79 L18.07,93.17 L18.79,93.27 L19.37,92.83 L23.10,86.51 L23.16,85.85 L22.76,85.32 L9.77,77.98 L9.48,77.67 L9.36,77.26 L0.00,82.09 L0.00,82.33 L0.12,82.79 L0.45,83.12 L0.45,83.13 Z" fill="#a3a3a3" stroke="#1e1e1e" stroke-width="1" stroke-linejoin="round"/><path d="M86.23,18.13 L73.24,10.79 L72.84,10.26 L72.90,9.61 L76.63,3.28 L77.17,2.78 L77.90,2.82 L77.93,2.83 L88.77,9.09 L95.55,12.87 L95.81,13.16 L95.93,13.55 L86.58,18.51 L86.23,18.13 Z" fill="#a3a3a3" stroke="#1e1e1e" stroke-width="1" stroke-linejoin="round"/><path d="M86.68,77.19 L86.68,18.92 L86.58,18.50 L95.93,13.54 L96.00,13.66 L96.00,82.09 L86.65,77.26 L86.68,77.19 L86.68,77.19 Z" fill="#949494" stroke="#1e1e1e" stroke-width="1" stroke-linejoin="round"/><path d="M95.55,83.13 L89.00,86.79 L77.93,93.17 L77.21,93.27 L76.63,92.83 L72.90,86.51 L72.84,85.85 L73.24,85.32 L86.23,77.98 L86.52,77.67 L86.64,77.26 L95.99,82.09 L95.99,82.33 L95.87,82.79 L95.54,83.12 L95.55,83.13 Z" fill="#a3a3a3" stroke="#1e1e1e" stroke-width="1" stroke-linejoin="round"/></svg>