<svg xmlns="http://www.w3.org/2000/svg" viewBox="-2.00 -0.57 100.00 97.14"><path d="M90.30,61.75 L87.84,67.36 L84.64,72.59 L80.76,77.34 L76.27,81.51 L71.25,85.04 L65.80,87.85 L60.03,89.90 L54.02,91.15 L47.90,91.56 L43.71,91.38 L39.56,90.79 L35.48,89.80 L36.18,87.64 L36.44,85.38 L36.65,85.43 L42.22,86.64 L47.90,87.03 L53.56,86.62 L59.10,85.44 L64.43,83.50 L69.43,80.83 L74.02,77.50 L78.10,73.57 L81.59,69.11 L84.44,64.20 L84.49,64.15 L90.30,61.75 Z" fill="#32bedd" stroke="#1e1e1e" stroke-width="1" stroke-linejoin="round"/><path d="M19.10,75.03 L17.24,76.34 L15.69,78.02 L12.23,74.03 L9.25,69.67 L6.78,65.00 L12.33,66.23 L12.33,67.62 L12.64,69.02 L13.54,70.14 L14.84,70.76 L15.58,70.92 L17.16,72.93 L18.89,74.82 L19.10,75.03 Z" fill="#32bedd" stroke="#32bedd" stroke-width="1" stroke-linejoin="round"/><path d="M65.88,5.11 L64.95,7.20 L64.44,9.43 L64.06,9.27 L58.85,7.40 L53.43,6.27 L47.90,5.91 L42.78,6.24 L37.73,7.22 L32.85,8.82 L28.21,11.02 L23.88,13.79 L19.94,17.08 L16.44,20.84 L14.89,21.16 L13.59,21.76 L12.67,22.86 L12.33,24.26 L12.33,26.71 L6.89,27.72 L9.60,22.69 L12.92,18.04 L16.80,13.85 L21.18,10.18 L25.99,7.09 L31.16,4.64 L36.59,2.86 L42.20,1.79 L47.90,1.43 L54.04,1.85 L60.07,3.08 L65.88,5.11 L65.88,5.11 Z" fill="#32bedd" stroke="#1e1e1e" stroke-width="1" stroke-linejoin="round"/><path d="M89.98,30.40 L84.17,28.37 L82.41,25.18 L80.33,22.19 L80.06,21.81 L82.11,20.81 L83.90,19.41 L86.30,22.86 L88.33,26.54 L89.98,30.40 L89.98,30.40 Z" fill="#32bedd" stroke="#32bedd" stroke-width="1" stroke-linejoin="round"/><path d="M53.72,63.51 L67.26,66.50 L46.25,75.20 L45.98,75.25 L45.42,75.01 L45.18,74.45 L45.18,18.39 L45.42,17.83 L45.98,17.59 L46.12,17.60 L46.25,17.64 L70.04,25.96 L53.77,29.00 L52.58,29.57 L51.74,30.60 L51.42,31.88 L51.42,60.68 L51.71,61.95 L52.53,62.97 L53.72,63.51 L53.72,63.51 Z" fill="#ffffff" stroke="#1e1e1e" stroke-width="1" stroke-linejoin="round"/><path d="M5.87,30.23 L12.32,29.00 L12.32,63.94 L5.76,62.50 L0.48,61.32 L0.12,61.10 L0.00,60.68 L0.00,31.88 L0.13,31.48 L0.48,31.24 L5.87,30.23 Z" fill="#a67af4" stroke="#1e1e1e" stroke-width="1" stroke-linejoin="round"/><path d="M53.72,63.51 L67.26,66.50 L46.25,75.20 L45.98,75.25 L45.42,75.01 L45.18,74.45 L45.18,18.39 L45.42,17.83 L45.98,17.59 L46.12,17.60 L46.25,17.64 L70.04,25.96 L53.77,29.00 L52.58,29.57 L51.74,30.60 L51.42,31.88 L51.42,60.68 L51.71,61.95 L52.53,62.97 L53.72,63.51 L53.72,63.51 Z" fill="#6635bb" stroke="#1e1e1e" stroke-width="1" stroke-linejoin="round"/><path d="M45.79,17.60 L15.35,23.35 L14.81,23.68 L14.60,24.28 L14.60,67.63 L14.80,68.22 L15.33,68.55 L45.77,75.20 L46.55,75.00 L46.89,74.27 L46.89,18.55 L46.62,17.88 L45.97,17.60 L45.79,17.60 Z" fill="#8e5ae8" stroke="#1e1e1e" stroke-width="1" stroke-linejoin="round"/><path d="M31.72,26.25 L31.72,66.58 L42.31,68.34 L42.31,24.34 L31.72,26.25 Z" fill="#b796f9" stroke="#1e1e1e" stroke-width="1" stroke-linejoin="round" opacity="0.5"/><path d="M18.71,28.42 L18.71,63.75 L27.94,65.69 L27.94,26.83 L18.71,28.42 Z" fill="#b796f9" stroke="#1e1e1e" stroke-width="1" stroke-linejoin="round" opacity="0.5"/><path d="M85.33,10.92 L84.92,13.64 L83.74,16.11 L81.90,18.14 L79.54,19.55 L76.88,20.21 L74.14,20.07 L71.56,19.15 L69.35,17.51 L67.72,15.31 L66.79,12.73 L66.66,9.99 L67.32,7.33 L68.73,4.97 L70.76,3.12 L73.23,1.95 L75.95,1.54 L78.38,1.85 L80.64,2.79 L82.59,4.28 L84.08,6.22 L85.02,8.49 L85.33,10.92 L85.33,10.92 Z" fill="#32bedd" stroke="#1e1e1e" stroke-width="1" stroke-linejoin="round"/><ellipse cx="24.80" cy="85.19" rx="9.38" ry="9.38" fill="#32bedd" stroke="#1e1e1e" stroke-width="1"/><path d="M96.00,35.67 L96.00,56.18 L95.80,56.81 L95.29,57.24 L91.21,58.93 L74.83,65.69 L74.77,65.69 L74.67,65.70 L74.57,65.69 L74.19,65.53 L74.04,65.16 L74.04,27.91 L74.12,27.64 L74.33,27.45 L74.33,27.45 L74.43,27.45 L74.48,27.44 L74.53,27.45 L74.62,27.45 L74.71,27.49 L74.77,27.49 L74.83,27.49 L90.93,33.07 L95.20,34.57 L95.78,34.99 L96.00,35.67 Z" fill="#773adc" stroke="#1e1e1e" stroke-width="1" stroke-linejoin="round"/><path d="M74.45,27.41 L54.18,31.23 L53.82,31.45 L53.69,31.85 L53.69,60.70 L53.82,61.09 L54.17,61.32 L74.44,65.75 L74.90,65.66 L75.17,65.27 L75.17,65.20 L75.17,65.13 L75.17,28.03 L74.99,27.59 L74.55,27.40 L74.50,27.40 L74.45,27.41 L74.45,27.41 Z" fill="#a67af4" stroke="#1e1e1e" stroke-width="1" stroke-linejoin="round"/></svg>