<svg xmlns="http://www.w3.org/2000/svg" viewBox="19.35 19.40 217.32 217.27"><path d="M30.08,168.53 L26.95,179.97 L25.01,186.45 L24.06,190.12 L23.28,193.78 L21.91,198.55 L21.35,203.49 L21.61,208.45 L22.68,213.29 L24.54,217.90 L27.12,222.14 L30.38,225.89 L34.20,229.05 L38.50,231.54 L43.14,233.29 L48.02,234.25 L51.29,234.58 L54.77,234.67 L58.47,234.49 L62.37,234.04 L86.98,230.65 L90.49,229.74 L93.70,228.03 L96.43,225.64 L98.53,222.67 L99.89,219.30 L116.82,157.10 L30.08,168.53 L30.08,168.53 Z" fill="#127268" stroke="#1e1e1e" stroke-width="1" stroke-linejoin="round"/><path d="M54.08,171.48 L49.45,172.40 L45.29,173.64 L41.56,175.15 L38.25,176.86 L35.34,178.73 L32.79,180.71 L30.60,182.74 L28.72,184.78 L27.16,186.77 L25.87,188.66 L24.06,191.95 L23.10,194.22 L22.82,195.07 L47.65,103.81 L177.43,86.26 L159.73,150.53 L158.69,152.94 L157.02,154.95 L154.83,156.40 L152.33,157.17 L151.61,157.29 L53.35,171.60 L54.08,171.48 Z" fill="#36b092" stroke="#1e1e1e" stroke-width="1" stroke-linejoin="round"/><path d="M54.08,171.48 L49.45,172.40 L45.29,173.64 L41.56,175.15 L38.25,176.86 L35.34,178.73 L32.79,180.71 L30.60,182.74 L28.72,184.78 L27.16,186.77 L25.87,188.66 L24.06,191.95 L23.10,194.22 L22.82,195.07 L47.65,103.81 L177.43,86.26 L159.73,150.53 L158.69,152.94 L157.02,154.95 L154.83,156.40 L152.33,157.17 L151.61,157.29 L53.35,171.60 L54.08,171.48 Z" fill="#6ad6f9" stroke="#1e1e1e" stroke-width="1" stroke-linejoin="round" opacity="0.8"/><path d="M68.79,113.25 L212.46,92.03 L214.85,91.33 L216.93,89.97 L218.53,88.07 L219.52,85.79 L234.35,32.13 L234.66,29.77 L234.31,27.40 L233.31,25.23 L231.74,23.43 L229.74,22.13 L227.46,21.43 L225.07,21.40 L87.99,41.65 L82.67,42.91 L77.59,44.92 L72.84,47.63 L68.52,50.98 L64.73,54.92 L61.53,59.35 L59.00,64.19 L57.18,69.35 L37.40,141.00 L38.87,135.84 L40.47,131.19 L41.41,129.06 L42.49,127.05 L43.75,125.16 L45.22,123.39 L46.93,121.74 L48.93,120.20 L51.24,118.77 L53.91,117.46 L56.96,116.25 L60.44,115.15 L64.37,114.15 L68.79,113.25 L68.79,113.25 Z" fill="#3fecc5" stroke="#1e1e1e" stroke-width="1" stroke-linejoin="round"/><path d="M68.79,113.25 L212.46,92.03 L214.85,91.33 L216.93,89.97 L218.53,88.07 L219.52,85.79 L234.35,32.13 L234.66,29.77 L234.31,27.40 L233.31,25.23 L231.74,23.43 L229.74,22.13 L227.46,21.43 L225.07,21.40 L87.99,41.65 L82.67,42.91 L77.59,44.92 L72.84,47.63 L68.52,50.98 L64.73,54.92 L61.53,59.35 L59.00,64.19 L57.18,69.35 L37.40,141.00 L38.87,135.84 L40.47,131.19 L41.41,129.06 L42.49,127.05 L43.75,125.16 L45.22,123.39 L46.93,121.74 L48.93,120.20 L51.24,118.77 L53.91,117.46 L56.96,116.25 L60.44,115.15 L64.37,114.15 L68.79,113.25 L68.79,113.25 Z" fill="#68e9c3" stroke="#1e1e1e" stroke-width="1" stroke-linejoin="round"/><path d="M68.79,113.25 L212.46,92.03 L214.85,91.33 L216.93,89.97 L218.53,88.07 L219.52,85.79 L234.35,32.13 L234.66,29.77 L234.31,27.40 L233.31,25.23 L231.74,23.43 L229.74,22.13 L227.46,21.43 L225.07,21.40 L87.99,41.65 L82.67,42.91 L77.59,44.92 L72.84,47.63 L68.52,50.98 L64.73,54.92 L61.53,59.35 L59.00,64.19 L57.18,69.35 L37.40,141.00 L38.87,135.84 L40.47,131.19 L41.41,129.06 L42.49,127.05 L43.75,125.16 L45.22,123.39 L46.93,121.74 L48.93,120.20 L51.24,118.77 L53.91,117.46 L56.96,116.25 L60.44,115.15 L64.37,114.15 L68.79,113.25 L68.79,113.25 Z" fill="#ffffff" stroke="#1e1e1e" stroke-width="1" stroke-linejoin="round" opacity="0.4"/><path d="M68.79,113.26 L61.70,114.81 L58.65,115.69 L55.91,116.65 L53.45,117.67 L51.25,118.78 L49.30,119.96 L47.58,121.22 L46.05,122.55 L44.72,123.97 L43.54,125.47 L42.50,127.05 L40.78,130.47 L39.39,134.23 L22.82,195.08 L23.10,194.24 L24.05,191.99 L25.85,188.73 L27.12,186.85 L28.67,184.87 L30.52,182.84 L32.69,180.82 L35.21,178.85 L38.09,176.98 L41.37,175.27 L45.05,173.76 L49.16,172.50 L53.73,171.56 L151.61,157.30 L152.34,157.18 L154.84,156.41 L157.02,154.96 L158.70,152.95 L159.74,150.55 L174.30,97.67 L68.79,113.26 Z" fill="#063d3b" stroke="#1e1e1e" stroke-width="1" stroke-linejoin="round"/><path d="M68.79,113.26 L61.70,114.81 L58.65,115.69 L55.91,116.65 L53.45,117.67 L51.25,118.78 L49.30,119.96 L47.58,121.22 L46.05,122.55 L44.72,123.97 L43.54,125.47 L42.50,127.05 L40.78,130.47 L39.39,134.23 L22.82,195.08 L23.10,194.24 L24.05,191.99 L25.85,188.73 L27.12,186.85 L28.67,184.87 L30.52,182.84 L32.69,180.82 L35.21,178.85 L38.09,176.98 L41.37,175.27 L45.05,173.76 L49.16,172.50 L53.73,171.56 L151.61,157.30 L152.34,157.18 L154.84,156.41 L157.02,154.96 L158.70,152.95 L159.74,150.55 L174.30,97.67 L68.79,113.26 Z" fill="#ffffff" stroke="#1e1e1e" stroke-width="1" stroke-linejoin="round" opacity="0.2"/><path d="M53.73,171.56 L49.84,172.34 L46.28,173.34 L43.03,174.53 L40.08,175.89 L37.42,177.38 L35.03,178.97 L32.90,180.63 L31.02,182.34 L29.38,184.05 L27.95,185.74 L25.71,188.95 L24.19,191.70 L23.28,193.77 L21.91,198.54 L21.35,203.47 L21.60,208.43 L22.67,213.28 L24.53,217.89 L27.12,222.13 L30.37,225.88 L34.20,229.05 L38.49,231.54 L43.14,233.29 L48.02,234.25 L51.29,234.58 L54.77,234.66 L58.47,234.49 L62.37,234.04 L86.98,230.64 L90.49,229.73 L93.70,228.03 L96.43,225.63 L98.53,222.67 L99.89,219.30 L115.32,162.59 L53.74,171.56 L53.73,171.56 Z" fill="#063d3b" stroke="#1e1e1e" stroke-width="1" stroke-linejoin="round"/></svg>