<svg xmlns="http://www.w3.org/2000/svg" viewBox="6.76 6.76 99.68 100.00"><path d="M8.76,21.90 L9.09,18.97 L10.06,16.20 L11.62,13.70 L13.70,11.62 L16.20,10.06 L18.97,9.09 L21.90,8.76 L83.20,8.76 L86.13,9.09 L88.90,10.06 L91.40,11.62 L93.48,13.70 L95.04,16.20 L96.01,18.97 L96.34,21.90 L96.34,83.20 L96.01,86.13 L95.04,88.90 L93.48,91.40 L91.40,93.48 L88.90,95.04 L86.13,96.01 L83.20,96.34 L21.90,96.34 L18.97,96.01 L16.20,95.04 L13.70,93.48 L11.62,91.40 L10.06,88.90 L9.09,86.13 L8.76,83.20 L8.76,21.90 Z" fill="#f5f5f5" stroke="#1e1e1e" stroke-width="1" stroke-linejoin="round"/><path d="M8.76,21.90 L9.09,18.97 L10.06,16.20 L11.62,13.70 L13.70,11.62 L16.20,10.06 L18.97,9.09 L21.90,8.76 L83.20,8.76 L86.13,9.09 L88.90,10.06 L91.40,11.62 L93.48,13.70 L95.04,16.20 L96.01,18.97 L96.34,21.90 L96.34,83.20 L96.01,86.13 L95.04,88.90 L93.48,91.40 L91.40,93.48 L88.90,95.04 L86.13,96.01 L83.20,96.34 L21.90,96.34 L18.97,96.01 L16.20,95.04 L13.70,93.48 L11.62,91.40 L10.06,88.90 L9.09,86.13 L8.76,83.20 L8.76,21.90 Z" fill="#e3e3e3" stroke="#1e1e1e" stroke-width="1" stroke-linejoin="round" opacity="0.2"/><path d="M21.90,8.76 L18.97,9.09 L16.20,10.06 L13.70,11.62 L11.62,13.70 L10.06,16.20 L9.09,18.97 L8.76,21.90 L8.76,83.20 L9.09,86.13 L10.06,88.90 L11.62,91.40 L13.70,93.48 L16.20,95.04 L18.97,96.01 L21.90,96.34 L83.20,96.34 L86.13,96.01 L88.90,95.04 L91.40,93.48 L93.48,91.40 L95.04,88.90 L96.01,86.13 L96.34,83.20 L96.34,21.90 L96.01,18.97 L95.04,16.20 L93.48,13.70 L91.40,11.62 L88.90,10.06 L86.13,9.09 L83.20,8.76 L21.90,8.76 Z" fill="#a2a2a2" stroke="#1e1e1e" stroke-width="1" stroke-linejoin="round"/><path d="M83.20,13.14 L21.90,13.14 L19.63,13.44 L17.52,14.31 L15.70,15.70 L14.31,17.52 L13.44,19.63 L13.14,21.90 L13.14,83.20 L13.44,85.47 L14.31,87.58 L15.70,89.40 L17.52,90.79 L19.63,91.66 L21.90,91.96 L83.20,91.96 L85.47,91.66 L87.58,90.79 L89.40,89.40 L90.79,87.58 L91.66,85.47 L91.96,83.20 L91.96,21.90 L91.66,19.63 L90.79,17.52 L89.40,15.70 L87.58,14.31 L85.47,13.44 L83.20,13.14 Z" fill="#f1f1f1" stroke="#1e1e1e" stroke-width="1" stroke-linejoin="round"/><path d="M52.55,43.79 L56.08,43.66 L59.37,43.28 L62.35,42.67 L64.94,41.87 L67.08,40.89 L68.69,39.78 L69.28,39.18 L69.71,38.55 L69.98,37.89 L70.07,37.22 L69.98,36.55 L69.71,35.90 L69.28,35.27 L68.69,34.67 L67.08,33.55 L64.94,32.58 L62.35,31.78 L59.37,31.17 L56.08,30.79 L52.55,30.65 L49.02,30.79 L45.73,31.17 L42.75,31.78 L40.16,32.58 L38.02,33.55 L36.41,34.67 L35.82,35.27 L35.39,35.90 L35.12,36.55 L35.03,37.22 L35.12,37.89 L35.39,38.55 L35.82,39.18 L36.41,39.78 L38.02,40.89 L40.16,41.87 L42.75,42.67 L45.73,43.28 L49.02,43.66 L52.55,43.79 Z" fill="#0077bd" stroke="#1e1e1e" stroke-width="1" stroke-linejoin="round"/><path d="M52.55,43.79 L56.08,43.66 L59.37,43.28 L62.35,42.67 L64.94,41.87 L67.08,40.89 L68.69,39.78 L69.28,39.18 L69.71,38.55 L69.98,37.89 L70.07,37.22 L69.98,36.55 L69.71,35.90 L69.28,35.27 L68.69,34.67 L67.08,33.55 L64.94,32.58 L62.35,31.78 L59.37,31.17 L56.08,30.79 L52.55,30.65 L49.02,30.79 L45.73,31.17 L42.75,31.78 L40.16,32.58 L38.02,33.55 L36.41,34.67 L35.82,35.27 L35.39,35.90 L35.12,36.55 L35.03,37.22 L35.12,37.89 L35.39,38.55 L35.82,39.18 L36.41,39.78 L38.02,40.89 L40.16,41.87 L42.75,42.67 L45.73,43.28 L49.02,43.66 L52.55,43.79 Z" fill="#0077bd" stroke="#1e1e1e" stroke-width="1" stroke-linejoin="round"/><path d="M52.55,48.17 L56.40,48.03 L60.06,47.60 L63.44,46.91 L66.48,45.97 L68.30,45.19 L70.03,44.23 L70.07,68.97 L69.95,70.20 L69.60,71.35 L69.06,72.40 L68.35,73.37 L67.50,74.25 L66.53,75.04 L64.37,76.35 L61.84,77.40 L58.99,78.18 L55.88,78.66 L52.58,78.83 L49.28,78.66 L46.16,78.18 L43.31,77.40 L40.77,76.35 L38.62,75.04 L37.65,74.25 L36.80,73.37 L36.09,72.40 L35.55,71.35 L35.20,70.20 L35.08,68.97 L35.05,44.21 L36.78,45.18 L38.63,45.97 L41.66,46.91 L45.05,47.60 L48.71,48.03 L52.55,48.17 L52.55,48.17 Z" fill="#0077bd" stroke="#1e1e1e" stroke-width="1" stroke-linejoin="round"/><path d="M35.07,37.67 L35.27,38.31 L35.62,38.92 L36.76,40.07 L38.43,41.11 L40.57,42.01 L43.11,42.76 L45.99,43.32 L49.16,43.67 L52.55,43.79 L56.00,43.66 L59.22,43.30 L62.14,42.72 L64.71,41.95 L66.85,41.02 L68.50,39.95 L69.59,38.76 L69.90,38.13 L70.05,37.48 L70.07,37.22 L69.98,36.55 L69.71,35.90 L69.28,35.27 L68.69,34.67 L67.08,33.55 L64.94,32.58 L62.35,31.78 L59.37,31.17 L56.09,30.79 L52.56,30.65 L49.04,30.79 L45.75,31.17 L42.78,31.78 L40.20,32.58 L38.06,33.55 L36.45,34.67 L35.86,35.27 L35.43,35.90 L35.17,36.55 L35.08,37.22 L35.09,37.47 L35.13,37.72 L35.07,37.67 Z" fill="#0077bd" stroke="#1e1e1e" stroke-width="1" stroke-linejoin="round"/><path d="M78.83,77.78 L78.56,76.40 L77.80,75.22 L76.66,74.40 L75.29,74.06 L73.90,74.26 L72.68,74.95 L63.25,83.04 L62.35,84.19 L61.96,85.60 L62.14,87.05 L62.87,88.32 L72.30,99.09 L73.23,99.87 L74.28,100.28 L75.36,100.36 L76.41,100.13 L77.36,99.61 L78.13,98.84 L78.64,97.84 L78.83,96.64 L78.83,77.78 L78.83,77.78 Z" fill="#0077bd" stroke="#1e1e1e" stroke-width="1" stroke-linejoin="round"/><path d="M83.20,77.78 L83.47,76.40 L84.23,75.22 L85.37,74.40 L86.74,74.06 L88.13,74.26 L89.35,74.95 L98.78,83.04 L99.68,84.19 L100.07,85.60 L99.89,87.05 L99.16,88.32 L89.73,99.09 L88.80,99.87 L87.75,100.28 L86.67,100.36 L85.62,100.13 L84.67,99.61 L83.90,98.84 L83.39,97.84 L83.20,96.64 L83.20,77.78 L83.20,77.78 Z" fill="#0077bd" stroke="#1e1e1e" stroke-width="1" stroke-linejoin="round"/><path d="M81.01,102.21 L82.27,103.28 L83.70,104.07 L85.25,104.57 L86.88,104.76 L88.52,104.61 L90.13,104.11 L91.65,103.24 L93.02,101.98 L102.46,91.20 L103.63,89.42 L104.31,87.41 L104.44,85.28 L104.01,83.20 L103.05,81.30 L101.63,79.71 L92.20,71.63 L90.81,70.66 L89.35,70.03 L87.83,69.71 L86.32,69.69 L84.84,69.95 L83.44,70.47 L82.15,71.23 L81.01,72.22 L79.88,71.23 L78.60,70.47 L77.19,69.95 L75.71,69.69 L74.20,69.71 L72.69,70.02 L71.22,70.66 L69.83,71.63 L60.40,79.71 L58.98,81.30 L58.02,83.20 L57.59,85.28 L57.72,87.41 L58.40,89.42 L59.57,91.20 L69.01,101.98 L70.38,103.24 L71.90,104.11 L73.51,104.61 L75.15,104.76 L76.78,104.57 L78.34,104.07 L79.76,103.28 L81.01,102.21 L81.01,102.21 Z" fill="#f5f5f5" stroke="#1e1e1e" stroke-width="1" stroke-linejoin="round"/><path d="M83.20,96.75 L83.20,77.67 L83.50,76.31 L84.28,75.16 L85.42,74.37 L86.77,74.06 L88.15,74.26 L89.35,74.95 L98.78,83.04 L99.68,84.19 L100.07,85.60 L99.89,87.05 L99.16,88.32 L89.73,99.09 L88.81,99.86 L87.78,100.28 L86.70,100.36 L85.66,100.14 L84.72,99.64 L83.95,98.90 L83.42,97.92 L83.20,96.75 L83.20,96.75 Z" fill="#0077bd" stroke="#1e1e1e" stroke-width="1" stroke-linejoin="round"/><path d="M78.83,96.75 L78.83,77.67 L78.53,76.31 L77.75,75.16 L76.61,74.37 L75.26,74.06 L73.88,74.26 L72.68,74.95 L63.25,83.04 L62.35,84.19 L61.96,85.60 L62.14,87.05 L62.87,88.32 L72.30,99.09 L73.22,99.86 L74.25,100.28 L75.33,100.36 L76.37,100.14 L77.31,99.64 L78.08,98.90 L78.61,97.92 L78.83,96.75 L78.83,96.75 Z" fill="#0077bd" stroke="#1e1e1e" stroke-width="1" stroke-linejoin="round"/></svg>