<svg xmlns="http://www.w3.org/2000/svg" viewBox="9.08 9.08 100.00 100.00"><path d="M11.08,24.00 L11.33,21.48 L12.06,19.05 L13.25,16.82 L14.86,14.86 L16.82,13.25 L19.05,12.06 L21.48,11.33 L24.00,11.08 L94.15,11.08 L96.68,11.33 L99.10,12.06 L101.33,13.25 L103.29,14.86 L104.90,16.82 L106.09,19.05 L106.83,21.48 L107.08,24.00 L107.08,94.15 L106.83,96.68 L106.09,99.10 L104.90,101.33 L103.29,103.29 L101.33,104.90 L99.10,106.09 L96.68,106.83 L94.15,107.08 L24.00,107.08 L21.48,106.83 L19.05,106.09 L16.82,104.90 L14.86,103.29 L13.25,101.33 L12.06,99.10 L11.33,96.68 L11.08,94.15 L11.08,24.00 Z" fill="#f5f5f5" stroke="#1e1e1e" stroke-width="1" stroke-linejoin="round"/><path d="M11.08,24.00 L11.33,21.48 L12.06,19.05 L13.25,16.82 L14.86,14.86 L16.82,13.25 L19.05,12.06 L21.48,11.33 L24.00,11.08 L94.15,11.08 L96.68,11.33 L99.10,12.06 L101.33,13.25 L103.29,14.86 L104.90,16.82 L106.09,19.05 L106.83,21.48 L107.08,24.00 L107.08,94.15 L106.83,96.68 L106.09,99.10 L104.90,101.33 L103.29,103.29 L101.33,104.90 L99.10,106.09 L96.68,106.83 L94.15,107.08 L24.00,107.08 L21.48,106.83 L19.05,106.09 L16.82,104.90 L14.86,103.29 L13.25,101.33 L12.06,99.10 L11.33,96.68 L11.08,94.15 L11.08,24.00 Z" fill="#e3e3e3" stroke="#1e1e1e" stroke-width="1" stroke-linejoin="round" opacity="0.2"/><path d="M24.00,11.08 L21.48,11.33 L19.05,12.06 L16.82,13.25 L14.86,14.86 L13.25,16.82 L12.06,19.05 L11.33,21.48 L11.08,24.00 L11.08,94.15 L11.33,96.68 L12.06,99.10 L13.25,101.33 L14.86,103.29 L16.82,104.90 L19.05,106.09 L21.48,106.83 L24.00,107.08 L94.15,107.08 L96.68,106.83 L99.10,106.09 L101.33,104.90 L103.29,103.29 L104.90,101.33 L106.09,99.10 L106.83,96.68 L107.08,94.15 L107.08,24.00 L106.83,21.48 L106.09,19.05 L104.90,16.82 L103.29,14.86 L101.33,13.25 L99.10,12.06 L96.68,11.33 L94.15,11.08 L24.00,11.08 Z" fill="#a2a2a2" stroke="#1e1e1e" stroke-width="1" stroke-linejoin="round"/><path d="M94.15,14.77 L24.00,14.77 L21.95,15.00 L19.99,15.68 L18.24,16.78 L16.78,18.24 L15.68,19.99 L15.00,21.95 L14.77,24.00 L14.77,94.15 L15.00,96.21 L15.68,98.16 L16.78,99.91 L18.24,101.37 L19.99,102.47 L21.95,103.15 L24.00,103.38 L94.15,103.38 L96.21,103.15 L98.16,102.47 L99.91,101.37 L101.37,99.91 L102.47,98.16 L103.15,96.21 L103.38,94.15 L103.38,24.00 L103.15,21.95 L102.47,19.99 L101.37,18.24 L99.91,16.78 L98.16,15.68 L96.21,15.00 L94.15,14.77 Z" fill="#f1f1f1" stroke="#1e1e1e" stroke-width="1" stroke-linejoin="round"/><path d="M33.23,59.08 L33.48,56.19 L34.23,53.39 L35.46,50.77 L37.12,48.40 L39.17,46.35 L41.54,44.69 L44.16,43.46 L46.96,42.71 L49.85,42.46 L52.62,42.46 L53.82,42.74 L54.78,43.50 L55.32,44.61 L55.32,45.85 L54.78,46.96 L53.82,47.73 L52.62,48.00 L49.85,48.00 L47.38,48.28 L45.04,49.10 L42.94,50.42 L41.19,52.17 L39.87,54.27 L39.05,56.61 L38.77,59.08 L39.05,61.54 L39.87,63.88 L41.19,65.98 L42.94,67.74 L45.04,69.06 L47.38,69.88 L49.85,70.15 L52.62,70.15 L53.82,70.43 L54.78,71.20 L55.32,72.31 L55.32,73.54 L54.78,74.65 L53.82,75.42 L52.62,75.69 L49.85,75.69 L46.96,75.44 L44.16,74.69 L41.54,73.47 L39.17,71.81 L37.12,69.76 L35.46,67.38 L34.23,64.76 L33.48,61.96 L33.23,59.08 Z" fill="#d26100" stroke="#1e1e1e" stroke-width="1" stroke-linejoin="round"/><path d="M84.92,59.08 L84.67,61.96 L83.92,64.76 L82.70,67.38 L81.04,69.76 L78.99,71.81 L76.62,73.47 L73.99,74.69 L71.19,75.44 L68.31,75.69 L65.54,75.69 L64.34,75.42 L63.37,74.65 L62.84,73.54 L62.84,72.31 L63.37,71.20 L64.34,70.43 L65.54,70.15 L68.31,70.15 L70.77,69.88 L73.11,69.06 L75.21,67.74 L76.97,65.98 L78.29,63.88 L79.11,61.54 L79.38,59.08 L79.11,56.61 L78.29,54.27 L76.97,52.17 L75.21,50.42 L73.11,49.10 L70.77,48.28 L68.31,48.00 L65.54,48.00 L64.34,47.73 L63.37,46.96 L62.84,45.85 L62.84,44.61 L63.37,43.50 L64.34,42.74 L65.54,42.46 L68.31,42.46 L71.19,42.71 L73.99,43.46 L76.62,44.69 L78.99,46.35 L81.04,48.40 L82.70,50.77 L83.92,53.39 L84.67,56.19 L84.92,59.08 Z" fill="#d26100" stroke="#1e1e1e" stroke-width="1" stroke-linejoin="round"/><path d="M50.77,56.31 L49.57,56.58 L48.60,57.35 L48.07,58.46 L48.07,59.69 L48.60,60.80 L49.57,61.57 L50.77,61.85 L67.38,61.85 L68.59,61.57 L69.55,60.80 L70.08,59.69 L70.08,58.46 L69.55,57.35 L68.59,56.58 L67.38,56.31 L50.77,56.31 Z" fill="#d26100" stroke="#d26100" stroke-width="1" stroke-linejoin="round"/></svg>