<svg xmlns="http://www.w3.org/2000/svg" viewBox="2.36 11.09 100.00 82.55"><path d="M4.36,26.18 L4.69,23.27 L5.66,20.50 L7.22,18.02 L9.29,15.95 L11.77,14.39 L14.54,13.42 L17.45,13.09 L87.27,13.09 L90.19,13.42 L92.95,14.39 L95.43,15.95 L97.51,18.02 L99.07,20.50 L100.04,23.27 L100.36,26.18 L100.36,78.55 L100.04,81.46 L99.07,84.23 L97.51,86.71 L95.43,88.78 L92.95,90.34 L90.19,91.31 L87.27,91.64 L17.45,91.64 L14.54,91.31 L11.77,90.34 L9.29,88.78 L7.22,86.71 L5.66,84.23 L4.69,81.46 L4.36,78.55 L4.36,26.18 Z" fill="#f5f5f5" stroke="#1e1e1e" stroke-width="1" stroke-linejoin="round"/><path d="M4.36,26.18 L4.69,23.27 L5.66,20.50 L7.22,18.02 L9.29,15.95 L11.77,14.39 L14.54,13.42 L17.45,13.09 L87.27,13.09 L90.19,13.42 L92.95,14.39 L95.43,15.95 L97.51,18.02 L99.07,20.50 L100.04,23.27 L100.36,26.18 L100.36,78.55 L100.04,81.46 L99.07,84.23 L97.51,86.71 L95.43,88.78 L92.95,90.34 L90.19,91.31 L87.27,91.64 L17.45,91.64 L14.54,91.31 L11.77,90.34 L9.29,88.78 L7.22,86.71 L5.66,84.23 L4.69,81.46 L4.36,78.55 L4.36,26.18 Z" fill="#e3e3e3" stroke="#1e1e1e" stroke-width="1" stroke-linejoin="round" opacity="0.2"/><path d="M17.45,13.09 L14.54,13.42 L11.77,14.39 L9.29,15.95 L7.22,18.02 L5.66,20.50 L4.69,23.27 L4.36,26.18 L4.36,78.55 L4.69,81.46 L5.66,84.23 L7.22,86.71 L9.29,88.78 L11.77,90.34 L14.54,91.31 L17.45,91.64 L87.27,91.64 L90.19,91.31 L92.95,90.34 L95.43,88.78 L97.51,86.71 L99.07,84.23 L100.04,81.46 L100.36,78.55 L100.36,26.18 L100.04,23.27 L99.07,20.50 L97.51,18.02 L95.43,15.95 L92.95,14.39 L90.19,13.42 L87.27,13.09 L17.45,13.09 Z" fill="#a2a2a2" stroke="#1e1e1e" stroke-width="1" stroke-linejoin="round"/><path d="M87.27,17.45 L17.45,17.45 L15.20,17.75 L13.09,18.62 L11.28,20.01 L9.90,21.82 L9.02,23.92 L8.73,26.18 L8.73,78.55 L9.02,80.80 L9.90,82.91 L11.28,84.72 L13.09,86.10 L15.20,86.98 L17.45,87.27 L87.27,87.27 L89.53,86.98 L91.64,86.10 L93.44,84.72 L94.83,82.91 L95.70,80.80 L96.00,78.55 L96.00,26.18 L95.70,23.92 L94.83,21.82 L93.44,20.01 L91.64,18.62 L89.53,17.75 L87.27,17.45 Z" fill="#f1f1f1" stroke="#1e1e1e" stroke-width="1" stroke-linejoin="round"/><path d="M43.64,61.09 L43.30,62.76 L42.36,64.18 L40.94,65.12 L39.27,65.45 L37.60,65.12 L36.19,64.18 L35.24,62.76 L34.91,61.09 L35.24,59.42 L36.19,58.01 L37.60,57.06 L39.27,56.73 L40.94,57.06 L42.36,58.01 L43.30,59.42 L43.64,61.09 Z" fill="#6848aa" stroke="#6848aa" stroke-width="1" stroke-linejoin="round"/><path d="M56.73,61.09 L56.40,62.76 L55.45,64.18 L54.03,65.12 L52.36,65.45 L50.69,65.12 L49.28,64.18 L48.33,62.76 L48.00,61.09 L48.33,59.42 L49.28,58.01 L50.69,57.06 L52.36,56.73 L54.03,57.06 L55.45,58.01 L56.40,59.42 L56.73,61.09 Z" fill="#6848aa" stroke="#6848aa" stroke-width="1" stroke-linejoin="round"/><path d="M69.82,61.09 L69.49,62.76 L68.54,64.18 L67.12,65.12 L65.45,65.45 L63.78,65.12 L62.37,64.18 L61.42,62.76 L61.09,61.09 L61.42,59.42 L62.37,58.01 L63.78,57.06 L65.45,56.73 L67.12,57.06 L68.54,58.01 L69.49,59.42 L69.82,61.09 Z" fill="#6848aa" stroke="#6848aa" stroke-width="1" stroke-linejoin="round"/><path d="M34.06,26.18 L33.12,26.28 L32.23,26.56 L31.42,27.01 L30.72,27.63 L18.62,40.72 L17.85,41.84 L17.49,43.04 L17.50,44.26 L17.85,45.41 L18.50,46.44 L19.42,47.26 L20.58,47.80 L21.95,48.00 L26.18,48.00 L26.18,69.82 L26.48,72.08 L27.35,74.18 L28.74,75.99 L30.55,77.38 L32.65,78.25 L34.91,78.55 L69.82,78.55 L72.08,78.25 L74.18,77.38 L75.99,75.99 L77.38,74.18 L78.25,72.08 L78.55,69.82 L78.55,48.00 L82.78,48.00 L84.14,47.80 L85.30,47.26 L86.23,46.44 L86.88,45.41 L87.22,44.26 L87.23,43.04 L86.87,41.84 L86.11,40.72 L74.00,27.63 L73.04,26.84 L71.90,26.35 L70.67,26.18 L34.06,26.18 Z" fill="#6848aa" stroke="#1e1e1e" stroke-width="1" stroke-linejoin="round"/><path d="M30.55,48.00 L74.18,48.00 L74.18,69.82 L73.85,71.49 L72.90,72.90 L71.49,73.85 L69.82,74.18 L34.91,74.18 L33.24,73.85 L31.82,72.90 L30.88,71.49 L30.55,69.82 L30.55,48.00 Z" fill="#f1f1f1" stroke="#1e1e1e" stroke-width="1" stroke-linejoin="round"/><path d="M43.64,61.09 L43.30,62.76 L42.36,64.18 L40.94,65.12 L39.27,65.45 L37.60,65.12 L36.19,64.18 L35.24,62.76 L34.91,61.09 L35.24,59.42 L36.19,58.01 L37.60,57.06 L39.27,56.73 L40.94,57.06 L42.36,58.01 L43.30,59.42 L43.64,61.09 Z" fill="#6848aa" stroke="#6848aa" stroke-width="1" stroke-linejoin="round"/><path d="M56.73,61.09 L56.40,62.76 L55.45,64.18 L54.03,65.12 L52.36,65.45 L50.69,65.12 L49.28,64.18 L48.33,62.76 L48.00,61.09 L48.33,59.42 L49.28,58.01 L50.69,57.06 L52.36,56.73 L54.03,57.06 L55.45,58.01 L56.40,59.42 L56.73,61.09 Z" fill="#6848aa" stroke="#6848aa" stroke-width="1" stroke-linejoin="round"/><path d="M69.82,61.09 L69.49,62.76 L68.54,64.18 L67.12,65.12 L65.45,65.45 L63.78,65.12 L62.37,64.18 L61.42,62.76 L61.09,61.09 L61.42,59.42 L62.37,58.01 L63.78,57.06 L65.45,56.73 L67.12,57.06 L68.54,58.01 L69.49,59.42 L69.82,61.09 Z" fill="#6848aa" stroke="#6848aa" stroke-width="1" stroke-linejoin="round"/></svg>