<svg xmlns="http://www.w3.org/2000/svg" viewBox="10.00 10.00 100.00 100.00"><path d="M12.00,27.00 L12.38,23.66 L13.49,20.49 L15.27,17.65 L17.65,15.27 L20.49,13.49 L23.66,12.38 L27.00,12.00 L93.00,12.00 L96.34,12.38 L99.51,13.49 L102.35,15.27 L104.73,17.65 L106.51,20.49 L107.62,23.66 L108.00,27.00 L108.00,93.00 L107.62,96.34 L106.51,99.51 L104.73,102.35 L102.35,104.73 L99.51,106.51 L96.34,107.62 L93.00,108.00 L27.00,108.00 L23.66,107.62 L20.49,106.51 L17.65,104.73 L15.27,102.35 L13.49,99.51 L12.38,96.34 L12.00,93.00 L12.00,27.00 Z" fill="#f5f5f5" stroke="#1e1e1e" stroke-width="1" stroke-linejoin="round"/><path d="M12.00,27.00 L12.38,23.66 L13.49,20.49 L15.27,17.65 L17.65,15.27 L20.49,13.49 L23.66,12.38 L27.00,12.00 L93.00,12.00 L96.34,12.38 L99.51,13.49 L102.35,15.27 L104.73,17.65 L106.51,20.49 L107.62,23.66 L108.00,27.00 L108.00,93.00 L107.62,96.34 L106.51,99.51 L104.73,102.35 L102.35,104.73 L99.51,106.51 L96.34,107.62 L93.00,108.00 L27.00,108.00 L23.66,107.62 L20.49,106.51 L17.65,104.73 L15.27,102.35 L13.49,99.51 L12.38,96.34 L12.00,93.00 L12.00,27.00 Z" fill="#e3e3e3" stroke="#1e1e1e" stroke-width="1" stroke-linejoin="round" opacity="0.2"/><path d="M27.00,12.00 L23.66,12.38 L20.49,13.49 L17.65,15.27 L15.27,17.65 L13.49,20.49 L12.38,23.66 L12.00,27.00 L12.00,93.00 L12.38,96.34 L13.49,99.51 L15.27,102.35 L17.65,104.73 L20.49,106.51 L23.66,107.62 L27.00,108.00 L93.00,108.00 L96.34,107.62 L99.51,106.51 L102.35,104.73 L104.73,102.35 L106.51,99.51 L107.62,96.34 L108.00,93.00 L108.00,27.00 L107.62,23.66 L106.51,20.49 L104.73,17.65 L102.35,15.27 L99.51,13.49 L96.34,12.38 L93.00,12.00 L27.00,12.00 Z" fill="#a2a2a2" stroke="#1e1e1e" stroke-width="1" stroke-linejoin="round"/><path d="M93.00,18.00 L27.00,18.00 L24.22,18.44 L21.71,19.72 L19.72,21.71 L18.44,24.22 L18.00,27.00 L18.00,93.00 L18.44,95.78 L19.72,98.29 L21.71,100.28 L24.22,101.56 L27.00,102.00 L93.00,102.00 L95.78,101.56 L98.29,100.28 L100.28,98.29 L101.56,95.78 L102.00,93.00 L102.00,27.00 L101.56,24.22 L100.28,21.71 L98.29,19.72 L95.78,18.44 L93.00,18.00 Z" fill="#f1f1f1" stroke="#1e1e1e" stroke-width="1" stroke-linejoin="round"/><path d="M33.00,85.50 L33.00,34.50 L33.45,32.55 L34.69,30.98 L36.50,30.11 L38.50,30.11 L40.31,30.98 L41.55,32.55 L42.00,34.50 L42.00,85.50 L41.55,87.45 L40.31,89.02 L38.50,89.89 L36.50,89.89 L34.69,89.02 L33.45,87.45 L33.00,85.50 Z" fill="#b57400" stroke="#1e1e1e" stroke-width="1" stroke-linejoin="round"/><path d="M55.50,85.50 L55.50,52.50 L55.95,50.55 L57.19,48.98 L59.00,48.11 L61.00,48.11 L62.81,48.98 L64.05,50.55 L64.50,52.50 L64.50,85.50 L64.05,87.45 L62.81,89.02 L61.00,89.89 L59.00,89.89 L57.19,89.02 L55.95,87.45 L55.50,85.50 Z" fill="#b57400" stroke="#1e1e1e" stroke-width="1" stroke-linejoin="round"/><path d="M82.50,66.00 L84.22,66.34 L85.68,67.32 L86.66,68.78 L87.00,70.50 L87.00,85.50 L86.55,87.45 L85.31,89.02 L83.50,89.89 L81.50,89.89 L79.69,89.02 L78.45,87.45 L78.00,85.50 L78.00,70.50 L78.34,68.78 L79.32,67.32 L80.78,66.34 L82.50,66.00 Z" fill="#b57400" stroke="#b57400" stroke-width="1" stroke-linejoin="round"/></svg>