<svg xmlns="http://www.w3.org/2000/svg" viewBox="7.60 7.60 100.00 100.00"><path d="M9.60,24.00 L9.96,20.80 L11.03,17.75 L12.74,15.02 L15.02,12.74 L17.75,11.03 L20.80,9.96 L24.00,9.60 L91.20,9.60 L94.40,9.96 L97.45,11.03 L100.18,12.74 L102.46,15.02 L104.17,17.75 L105.24,20.80 L105.60,24.00 L105.60,91.20 L105.24,94.40 L104.17,97.45 L102.46,100.18 L100.18,102.46 L97.45,104.17 L94.40,105.24 L91.20,105.60 L24.00,105.60 L20.80,105.24 L17.75,104.17 L15.02,102.46 L12.74,100.18 L11.03,97.45 L9.96,94.40 L9.60,91.20 L9.60,24.00 Z" fill="#f5f5f5" stroke="#1e1e1e" stroke-width="1" stroke-linejoin="round"/><path d="M9.60,24.00 L9.96,20.80 L11.03,17.75 L12.74,15.02 L15.02,12.74 L17.75,11.03 L20.80,9.96 L24.00,9.60 L91.20,9.60 L94.40,9.96 L97.45,11.03 L100.18,12.74 L102.46,15.02 L104.17,17.75 L105.24,20.80 L105.60,24.00 L105.60,91.20 L105.24,94.40 L104.17,97.45 L102.46,100.18 L100.18,102.46 L97.45,104.17 L94.40,105.24 L91.20,105.60 L24.00,105.60 L20.80,105.24 L17.75,104.17 L15.02,102.46 L12.74,100.18 L11.03,97.45 L9.96,94.40 L9.60,91.20 L9.60,24.00 Z" fill="#e3e3e3" stroke="#1e1e1e" stroke-width="1" stroke-linejoin="round" opacity="0.2"/><path d="M24.00,9.60 L20.80,9.96 L17.75,11.03 L15.02,12.74 L12.74,15.02 L11.03,17.75 L9.96,20.80 L9.60,24.00 L9.60,91.20 L9.96,94.40 L11.03,97.45 L12.74,100.18 L15.02,102.46 L17.75,104.17 L20.80,105.24 L24.00,105.60 L91.20,105.60 L94.40,105.24 L97.45,104.17 L100.18,102.46 L102.46,100.18 L104.17,97.45 L105.24,94.40 L105.60,91.20 L105.60,24.00 L105.24,20.80 L104.17,17.75 L102.46,15.02 L100.18,12.74 L97.45,11.03 L94.40,9.96 L91.20,9.60 L24.00,9.60 Z" fill="#a2a2a2" stroke="#1e1e1e" stroke-width="1" stroke-linejoin="round"/><path d="M91.20,14.40 L24.00,14.40 L21.52,14.73 L19.20,15.69 L17.21,17.21 L15.69,19.20 L14.73,21.52 L14.40,24.00 L14.40,91.20 L14.73,93.68 L15.69,96.00 L17.21,97.99 L19.20,99.51 L21.52,100.47 L24.00,100.80 L91.20,100.80 L93.68,100.47 L96.00,99.51 L97.99,97.99 L99.51,96.00 L100.47,93.68 L100.80,91.20 L100.80,24.00 L100.47,21.52 L99.51,19.20 L97.99,17.21 L96.00,15.69 L93.68,14.73 L91.20,14.40 Z" fill="#f1f1f1" stroke="#1e1e1e" stroke-width="1" stroke-linejoin="round"/><path d="M52.38,84.01 L52.97,84.27 L53.07,84.32 L53.63,84.55 L54.22,84.71 L56.38,85.11 L58.58,85.12 L60.74,84.73 L61.39,84.57 L62.02,84.32 L62.56,84.06 L62.70,84.00 L77.04,77.13 L79.32,75.70 L81.22,73.80 L82.66,71.52 L83.55,68.98 L83.85,66.31 L83.85,46.64 L83.59,44.70 L82.81,42.91 L81.58,41.39 L79.99,40.26 L63.10,31.41 L60.40,30.38 L57.54,30.03 L54.69,30.37 L51.99,31.39 L34.93,40.26 L33.33,41.39 L32.10,42.91 L31.32,44.70 L31.05,46.64 L31.05,66.31 L31.36,69.00 L32.25,71.54 L33.70,73.83 L35.62,75.73 L37.91,77.16 L52.38,84.01 Z" fill="#45903e" stroke="#1e1e1e" stroke-width="1" stroke-linejoin="round"/><path d="M54.90,79.88 L55.14,79.97 L55.14,62.74 L54.77,60.07 L53.66,57.62 L51.93,55.57 L49.69,54.08 L36.04,47.54 L36.04,66.31 L36.32,68.30 L37.15,70.14 L38.45,71.68 L40.13,72.80 L54.90,79.88 Z" fill="#f1f1f1" stroke="#1e1e1e" stroke-width="1" stroke-linejoin="round"/><path d="M59.94,79.95 L60.52,79.71 L74.96,72.80 L76.64,71.68 L77.94,70.14 L78.77,68.30 L79.05,66.31 L79.05,47.54 L65.40,54.08 L63.16,55.57 L61.42,57.62 L60.32,60.07 L59.94,62.74 L59.94,79.95 Z" fill="#f1f1f1" stroke="#1e1e1e" stroke-width="1" stroke-linejoin="round"/></svg>