<svg xmlns="http://www.w3.org/2000/svg" viewBox="7.61 7.63 100.00 99.98"><path d="M13.54,75.85 L12.13,80.99 L11.26,83.91 L10.83,85.56 L10.48,87.21 L9.86,89.36 L9.61,91.58 L9.72,93.81 L10.21,95.99 L11.04,98.06 L12.21,99.97 L13.67,101.66 L15.39,103.08 L17.33,104.20 L19.42,104.99 L21.61,105.42 L23.08,105.57 L24.65,105.61 L26.31,105.53 L28.07,105.33 L39.14,103.80 L40.73,103.39 L42.17,102.62 L43.40,101.55 L44.34,100.21 L44.95,98.69 L52.57,70.70 L13.54,75.84 L13.54,75.85 Z" fill="#127268" stroke="#1e1e1e" stroke-width="1" stroke-linejoin="round"/><path d="M24.34,77.17 L22.26,77.59 L20.38,78.15 L18.71,78.82 L17.22,79.59 L15.90,80.43 L14.76,81.32 L13.77,82.24 L12.93,83.16 L12.22,84.05 L11.64,84.90 L10.83,86.38 L10.40,87.41 L10.27,87.79 L21.45,46.72 L79.85,38.82 L71.89,67.75 L71.42,68.83 L70.66,69.73 L69.68,70.38 L68.55,70.73 L68.23,70.78 L24.01,77.23 L24.34,77.17 Z" fill="#36b092" stroke="#1e1e1e" stroke-width="1" stroke-linejoin="round"/><path d="M24.34,77.17 L22.26,77.59 L20.38,78.15 L18.71,78.82 L17.22,79.59 L15.90,80.43 L14.76,81.32 L13.77,82.24 L12.93,83.16 L12.22,84.05 L11.64,84.90 L10.83,86.38 L10.40,87.41 L10.27,87.79 L21.45,46.72 L79.85,38.82 L71.89,67.75 L71.42,68.83 L70.66,69.73 L69.68,70.38 L68.55,70.73 L68.23,70.78 L24.01,77.23 L24.34,77.17 Z" fill="#6ad6f9" stroke="#1e1e1e" stroke-width="1" stroke-linejoin="round" opacity="0.4"/><path d="M30.96,50.97 L95.62,41.42 L96.69,41.10 L97.63,40.49 L98.35,39.63 L98.79,38.61 L105.46,14.46 L105.61,13.40 L105.45,12.33 L105.00,11.36 L104.29,10.54 L103.39,9.96 L102.36,9.65 L101.29,9.63 L39.60,18.75 L37.20,19.31 L34.92,20.22 L32.78,21.43 L30.84,22.94 L29.13,24.71 L27.69,26.71 L26.55,28.89 L25.73,31.21 L16.83,63.46 L17.49,61.13 L18.21,59.04 L18.64,58.08 L19.12,57.18 L19.69,56.33 L20.35,55.53 L21.12,54.79 L22.02,54.09 L23.06,53.45 L24.26,52.86 L25.63,52.32 L27.20,51.82 L28.97,51.37 L30.96,50.97 L30.96,50.97 Z" fill="#3fecc5" stroke="#1e1e1e" stroke-width="1" stroke-linejoin="round"/><path d="M30.96,50.97 L95.62,41.42 L96.69,41.10 L97.63,40.49 L98.35,39.63 L98.79,38.61 L105.46,14.46 L105.61,13.40 L105.45,12.33 L105.00,11.36 L104.29,10.54 L103.39,9.96 L102.36,9.65 L101.29,9.63 L39.60,18.75 L37.20,19.31 L34.92,20.22 L32.78,21.43 L30.84,22.94 L29.13,24.71 L27.69,26.71 L26.55,28.89 L25.73,31.21 L16.83,63.46 L17.49,61.13 L18.21,59.04 L18.64,58.08 L19.12,57.18 L19.69,56.33 L20.35,55.53 L21.12,54.79 L22.02,54.09 L23.06,53.45 L24.26,52.86 L25.63,52.32 L27.20,51.82 L28.97,51.37 L30.96,50.97 L30.96,50.97 Z" fill="#68e9c3" stroke="#1e1e1e" stroke-width="1" stroke-linejoin="round"/><path d="M30.96,50.97 L95.62,41.42 L96.69,41.10 L97.63,40.49 L98.35,39.63 L98.79,38.61 L105.46,14.46 L105.61,13.40 L105.45,12.33 L105.00,11.36 L104.29,10.54 L103.39,9.96 L102.36,9.65 L101.29,9.63 L39.60,18.75 L37.20,19.31 L34.92,20.22 L32.78,21.43 L30.84,22.94 L29.13,24.71 L27.69,26.71 L26.55,28.89 L25.73,31.21 L16.83,63.46 L17.49,61.13 L18.21,59.04 L18.64,58.08 L19.12,57.18 L19.69,56.33 L20.35,55.53 L21.12,54.79 L22.02,54.09 L23.06,53.45 L24.26,52.86 L25.63,52.32 L27.20,51.82 L28.97,51.37 L30.96,50.97 L30.96,50.97 Z" fill="#ffffff" stroke="#1e1e1e" stroke-width="1" stroke-linejoin="round" opacity="0.37"/><path d="M30.96,50.97 L27.77,51.67 L26.39,52.07 L25.16,52.50 L24.05,52.96 L23.07,53.45 L22.19,53.99 L21.41,54.55 L20.73,55.15 L20.12,55.79 L19.59,56.47 L19.13,57.18 L18.35,58.71 L17.73,60.41 L10.27,87.79 L10.40,87.41 L10.82,86.40 L11.63,84.93 L12.20,84.09 L12.90,83.20 L13.74,82.29 L14.71,81.38 L15.85,80.49 L17.14,79.65 L18.62,78.88 L20.27,78.20 L22.13,77.63 L24.18,77.21 L68.23,70.79 L68.56,70.74 L69.68,70.39 L70.67,69.74 L71.42,68.84 L71.89,67.75 L78.44,43.95 L30.96,50.97 Z" fill="#063d3b" stroke="#1e1e1e" stroke-width="1" stroke-linejoin="round" opacity="0.18"/><path d="M30.96,50.97 L27.77,51.67 L26.39,52.07 L25.16,52.50 L24.05,52.96 L23.07,53.45 L22.19,53.99 L21.41,54.55 L20.73,55.15 L20.12,55.79 L19.59,56.47 L19.13,57.18 L18.35,58.71 L17.73,60.41 L10.27,87.79 L10.40,87.41 L10.82,86.40 L11.63,84.93 L12.20,84.09 L12.90,83.20 L13.74,82.29 L14.71,81.38 L15.85,80.49 L17.14,79.65 L18.62,78.88 L20.27,78.20 L22.13,77.63 L24.18,77.21 L68.23,70.79 L68.56,70.74 L69.68,70.39 L70.67,69.74 L71.42,68.84 L71.89,67.75 L78.44,43.95 L30.96,50.97 Z" fill="#ffffff" stroke="#1e1e1e" stroke-width="1" stroke-linejoin="round" opacity="0.18"/><path d="M24.18,77.21 L22.43,77.56 L20.83,78.01 L19.36,78.55 L18.04,79.16 L16.84,79.83 L15.76,80.54 L14.81,81.29 L13.96,82.06 L13.22,82.83 L12.58,83.59 L11.57,85.03 L10.89,86.27 L10.48,87.20 L9.86,89.35 L9.61,91.57 L9.72,93.80 L10.20,95.99 L11.04,98.06 L12.20,99.97 L13.67,101.65 L15.39,103.08 L17.32,104.20 L19.42,104.99 L21.61,105.42 L23.08,105.57 L24.65,105.61 L26.31,105.53 L28.07,105.33 L39.14,103.80 L40.73,103.39 L42.17,102.62 L43.40,101.54 L44.34,100.21 L44.95,98.69 L51.90,73.17 L24.18,77.21 L24.18,77.21 Z" fill="#063d3b" stroke="#1e1e1e" stroke-width="1" stroke-linejoin="round" opacity="0.53"/></svg>