<svg xmlns="http://www.w3.org/2000/svg" viewBox="2.18 10.53 100.00 91.73"><path d="M4.18,25.06 L4.49,22.28 L5.42,19.63 L6.91,17.25 L8.90,15.27 L11.27,13.77 L13.92,12.85 L16.71,12.53 L83.55,12.53 L86.34,12.85 L88.99,13.77 L91.36,15.27 L93.35,17.25 L94.84,19.63 L95.77,22.28 L96.08,25.06 L96.08,75.19 L95.77,77.98 L94.84,80.63 L93.35,83.01 L91.36,84.99 L88.99,86.48 L86.34,87.41 L83.55,87.73 L16.71,87.73 L13.92,87.41 L11.27,86.48 L8.90,84.99 L6.91,83.01 L5.42,80.63 L4.49,77.98 L4.18,75.19 L4.18,25.06 Z" fill="#f5f5f5" stroke="#1e1e1e" stroke-width="1" stroke-linejoin="round"/><path d="M4.18,25.06 L4.49,22.28 L5.42,19.63 L6.91,17.25 L8.90,15.27 L11.27,13.77 L13.92,12.85 L16.71,12.53 L83.55,12.53 L86.34,12.85 L88.99,13.77 L91.36,15.27 L93.35,17.25 L94.84,19.63 L95.77,22.28 L96.08,25.06 L96.08,75.19 L95.77,77.98 L94.84,80.63 L93.35,83.01 L91.36,84.99 L88.99,86.48 L86.34,87.41 L83.55,87.73 L16.71,87.73 L13.92,87.41 L11.27,86.48 L8.90,84.99 L6.91,83.01 L5.42,80.63 L4.49,77.98 L4.18,75.19 L4.18,25.06 Z" fill="#e3e3e3" stroke="#1e1e1e" stroke-width="1" stroke-linejoin="round" opacity="0.2"/><path d="M16.71,12.53 L13.92,12.85 L11.27,13.77 L8.90,15.27 L6.91,17.25 L5.42,19.63 L4.49,22.28 L4.18,25.06 L4.18,75.19 L4.49,77.98 L5.42,80.63 L6.91,83.01 L8.90,84.99 L11.27,86.48 L13.92,87.41 L16.71,87.73 L83.55,87.73 L86.34,87.41 L88.99,86.48 L91.36,84.99 L93.35,83.01 L94.84,80.63 L95.77,77.98 L96.08,75.19 L96.08,25.06 L95.77,22.28 L94.84,19.63 L93.35,17.25 L91.36,15.27 L88.99,13.77 L86.34,12.85 L83.55,12.53 L16.71,12.53 Z" fill="#a2a2a2" stroke="#1e1e1e" stroke-width="1" stroke-linejoin="round"/><path d="M83.55,16.71 L16.71,16.71 L14.55,16.99 L12.53,17.83 L10.80,19.16 L9.47,20.89 L8.64,22.90 L8.35,25.06 L8.35,75.19 L8.64,77.36 L9.47,79.37 L10.80,81.10 L12.53,82.43 L14.55,83.26 L16.71,83.55 L83.55,83.55 L85.71,83.26 L87.73,82.43 L89.46,81.10 L90.78,79.37 L91.62,77.36 L91.90,75.19 L91.90,25.06 L91.62,22.90 L90.78,20.89 L89.46,19.16 L87.73,17.83 L85.71,16.99 L83.55,16.71 Z" fill="#f1f1f1" stroke="#1e1e1e" stroke-width="1" stroke-linejoin="round"/><path d="M41.77,58.48 L41.46,60.08 L40.55,61.44 L39.20,62.34 L37.60,62.66 L36.00,62.34 L34.64,61.44 L33.74,60.08 L33.42,58.48 L33.74,56.88 L34.64,55.53 L36.00,54.62 L37.60,54.31 L39.20,54.62 L40.55,55.53 L41.46,56.88 L41.77,58.48 Z" fill="#6848aa" stroke="#6848aa" stroke-width="1" stroke-linejoin="round"/><path d="M54.31,58.48 L53.99,60.08 L53.08,61.44 L51.73,62.34 L50.13,62.66 L48.53,62.34 L47.17,61.44 L46.27,60.08 L45.95,58.48 L46.27,56.88 L47.17,55.53 L48.53,54.62 L50.13,54.31 L51.73,54.62 L53.08,55.53 L53.99,56.88 L54.31,58.48 Z" fill="#6848aa" stroke="#6848aa" stroke-width="1" stroke-linejoin="round"/><path d="M66.84,58.48 L66.52,60.08 L65.61,61.44 L64.26,62.34 L62.66,62.66 L61.06,62.34 L59.71,61.44 L58.80,60.08 L58.48,58.48 L58.80,56.88 L59.71,55.53 L61.06,54.62 L62.66,54.31 L64.26,54.62 L65.61,55.53 L66.52,56.88 L66.84,58.48 Z" fill="#6848aa" stroke="#6848aa" stroke-width="1" stroke-linejoin="round"/><path d="M32.60,25.06 L31.71,25.16 L30.86,25.43 L30.08,25.86 L29.41,26.45 L17.82,38.98 L17.09,40.05 L16.75,41.20 L16.76,42.37 L17.09,43.47 L17.71,44.45 L18.60,45.24 L19.71,45.76 L21.01,45.95 L25.06,45.95 L25.06,66.84 L25.35,69.00 L26.18,71.02 L27.51,72.75 L29.24,74.07 L31.26,74.91 L33.42,75.19 L66.84,75.19 L69.00,74.91 L71.02,74.07 L72.75,72.75 L74.07,71.02 L74.91,69.00 L75.19,66.84 L75.19,45.95 L79.25,45.95 L80.55,45.76 L81.66,45.24 L82.55,44.45 L83.17,43.47 L83.50,42.37 L83.51,41.20 L83.17,40.05 L82.44,38.98 L70.84,26.45 L69.92,25.70 L68.83,25.22 L67.65,25.06 L32.60,25.06 Z" fill="#6848aa" stroke="#1e1e1e" stroke-width="1" stroke-linejoin="round"/><path d="M29.24,45.95 L71.02,45.95 L71.02,66.84 L70.70,68.44 L69.79,69.79 L68.44,70.70 L66.84,71.02 L33.42,71.02 L31.82,70.70 L30.47,69.79 L29.56,68.44 L29.24,66.84 L29.24,45.95 Z" fill="#f1f1f1" stroke="#1e1e1e" stroke-width="1" stroke-linejoin="round"/><path d="M41.77,58.48 L41.46,60.08 L40.55,61.44 L39.20,62.34 L37.60,62.66 L36.00,62.34 L34.64,61.44 L33.74,60.08 L33.42,58.48 L33.74,56.88 L34.64,55.53 L36.00,54.62 L37.60,54.31 L39.20,54.62 L40.55,55.53 L41.46,56.88 L41.77,58.48 Z" fill="#6848aa" stroke="#6848aa" stroke-width="1" stroke-linejoin="round"/><path d="M54.31,58.48 L53.99,60.08 L53.08,61.44 L51.73,62.34 L50.13,62.66 L48.53,62.34 L47.17,61.44 L46.27,60.08 L45.95,58.48 L46.27,56.88 L47.17,55.53 L48.53,54.62 L50.13,54.31 L51.73,54.62 L53.08,55.53 L53.99,56.88 L54.31,58.48 Z" fill="#6848aa" stroke="#6848aa" stroke-width="1" stroke-linejoin="round"/><path d="M66.84,58.48 L66.52,60.08 L65.61,61.44 L64.26,62.34 L62.66,62.66 L61.06,62.34 L59.71,61.44 L58.80,60.08 L58.48,58.48 L58.80,56.88 L59.71,55.53 L61.06,54.62 L62.66,54.31 L64.26,54.62 L65.61,55.53 L66.52,56.88 L66.84,58.48 Z" fill="#6848aa" stroke="#6848aa" stroke-width="1" stroke-linejoin="round"/><path d="M60.57,62.66 L57.12,62.98 L53.78,63.93 L50.68,65.48 L47.91,67.57 L45.57,70.13 L43.74,73.08 L42.49,76.31 L41.85,79.72 L41.85,83.19 L42.49,86.60 L43.74,89.84 L45.57,92.79 L47.91,95.35 L50.68,97.44 L53.78,98.99 L57.12,99.94 L60.57,100.26 L81.46,100.26 L84.91,99.94 L88.25,98.99 L91.36,97.44 L94.12,95.35 L96.46,92.79 L98.29,89.84 L99.54,86.60 L100.18,83.19 L100.18,79.72 L99.54,76.31 L98.29,73.08 L96.46,70.13 L94.12,67.57 L91.36,65.48 L88.25,63.93 L84.91,62.98 L81.46,62.66 L60.57,62.66 Z" fill="#f5f5f5" stroke="#1e1e1e" stroke-width="1" stroke-linejoin="round"/><path d="M45.95,81.46 L46.23,78.61 L47.06,75.86 L48.42,73.34 L50.23,71.12 L52.45,69.30 L54.98,67.95 L57.72,67.12 L60.57,66.84 L64.75,66.84 L65.79,67.12 L66.56,67.88 L66.84,68.93 L66.56,69.97 L65.79,70.74 L64.75,71.02 L60.57,71.02 L58.07,71.32 L55.72,72.21 L53.65,73.64 L51.98,75.53 L50.81,77.76 L50.20,80.20 L50.20,82.72 L50.81,85.16 L51.98,87.39 L53.65,89.28 L55.72,90.71 L58.07,91.60 L60.57,91.90 L64.75,91.90 L65.79,92.18 L66.56,92.95 L66.84,93.99 L66.56,95.04 L65.79,95.80 L64.75,96.08 L60.57,96.08 L57.72,95.80 L54.98,94.97 L52.45,93.62 L50.23,91.80 L48.42,89.58 L47.06,87.05 L46.23,84.31 L45.95,81.46 Z" fill="#6848aa" stroke="#1e1e1e" stroke-width="1" stroke-linejoin="round"/><path d="M81.46,96.08 L84.50,95.76 L87.41,94.82 L90.05,93.29 L92.32,91.24 L94.12,88.77 L95.36,85.98 L96.00,82.99 L96.00,79.93 L95.36,76.94 L94.12,74.15 L92.32,71.68 L90.05,69.63 L87.41,68.10 L84.50,67.16 L81.46,66.84 L77.02,66.84 L77.02,66.86 L76.09,67.21 L75.43,67.96 L75.19,68.93 L75.43,69.89 L76.09,70.64 L77.02,71.00 L77.02,71.02 L81.46,71.02 L83.96,71.32 L86.31,72.21 L88.38,73.64 L90.05,75.53 L91.22,77.76 L91.83,80.20 L91.83,82.72 L91.22,85.16 L90.05,87.39 L88.38,89.28 L86.31,90.71 L83.96,91.60 L81.46,91.90 L77.28,91.90 L76.24,92.18 L75.47,92.95 L75.19,93.99 L75.47,95.04 L76.24,95.80 L77.28,96.08 L81.46,96.08 Z" fill="#6848aa" stroke="#1e1e1e" stroke-width="1" stroke-linejoin="round"/><path d="M60.57,79.37 L59.53,79.65 L58.76,80.41 L58.48,81.46 L58.76,82.50 L59.53,83.27 L60.57,83.55 L81.46,83.55 L82.50,83.27 L83.27,82.50 L83.55,81.46 L83.27,80.41 L82.50,79.65 L81.46,79.37 L60.57,79.37 Z" fill="#6848aa" stroke="#6848aa" stroke-width="1" stroke-linejoin="round"/></svg>