<svg xmlns="http://www.w3.org/2000/svg" viewBox="8.67 8.67 110.67 110.67"><path d="M10.67,26.67 L11.07,23.11 L12.25,19.72 L14.16,16.69 L16.69,14.16 L19.72,12.25 L23.11,11.07 L26.67,10.67 L101.33,10.67 L104.89,11.07 L108.28,12.25 L111.31,14.16 L113.84,16.69 L115.75,19.72 L116.93,23.11 L117.33,26.67 L117.33,101.33 L116.93,104.89 L115.75,108.28 L113.84,111.31 L111.31,113.84 L108.28,115.75 L104.89,116.93 L101.33,117.33 L26.67,117.33 L23.11,116.93 L19.72,115.75 L16.69,113.84 L14.16,111.31 L12.25,108.28 L11.07,104.89 L10.67,101.33 L10.67,26.67 Z" fill="#f5f5f5" stroke="#1e1e1e" stroke-width="1" stroke-linejoin="round"/><path d="M10.67,26.67 L11.07,23.11 L12.25,19.72 L14.16,16.69 L16.69,14.16 L19.72,12.25 L23.11,11.07 L26.67,10.67 L101.33,10.67 L104.89,11.07 L108.28,12.25 L111.31,14.16 L113.84,16.69 L115.75,19.72 L116.93,23.11 L117.33,26.67 L117.33,101.33 L116.93,104.89 L115.75,108.28 L113.84,111.31 L111.31,113.84 L108.28,115.75 L104.89,116.93 L101.33,117.33 L26.67,117.33 L23.11,116.93 L19.72,115.75 L16.69,113.84 L14.16,111.31 L12.25,108.28 L11.07,104.89 L10.67,101.33 L10.67,26.67 Z" fill="#e3e3e3" stroke="#1e1e1e" stroke-width="1" stroke-linejoin="round" opacity="0.2"/><path d="M26.67,10.67 L23.11,11.07 L19.72,12.25 L16.69,14.16 L14.16,16.69 L12.25,19.72 L11.07,23.11 L10.67,26.67 L10.67,101.33 L11.07,104.89 L12.25,108.28 L14.16,111.31 L16.69,113.84 L19.72,115.75 L23.11,116.93 L26.67,117.33 L101.33,117.33 L104.89,116.93 L108.28,115.75 L111.31,113.84 L113.84,111.31 L115.75,108.28 L116.93,104.89 L117.33,101.33 L117.33,26.67 L116.93,23.11 L115.75,19.72 L113.84,16.69 L111.31,14.16 L108.28,12.25 L104.89,11.07 L101.33,10.67 L26.67,10.67 Z" fill="#a2a2a2" stroke="#1e1e1e" stroke-width="1" stroke-linejoin="round"/><path d="M101.33,16.00 L26.67,16.00 L23.91,16.36 L21.33,17.43 L19.12,19.12 L17.43,21.33 L16.36,23.91 L16.00,26.67 L16.00,101.33 L16.36,104.09 L17.43,106.67 L19.12,108.88 L21.33,110.57 L23.91,111.64 L26.67,112.00 L101.33,112.00 L104.09,111.64 L106.67,110.57 L108.88,108.88 L110.57,106.67 L111.64,104.09 L112.00,101.33 L112.00,26.67 L111.64,23.91 L110.57,21.33 L108.88,19.12 L106.67,17.43 L104.09,16.36 L101.33,16.00 Z" fill="#f1f1f1" stroke="#1e1e1e" stroke-width="1" stroke-linejoin="round"/><path d="M61.55,42.39 L58.93,40.23 L55.94,38.62 L52.69,37.63 L49.31,37.28 L45.93,37.61 L42.68,38.58 L39.68,40.18 L37.05,42.33 L34.90,44.96 L33.30,47.96 L32.33,51.21 L32.00,54.59 L32.35,57.97 L33.34,61.22 L34.95,64.21 L37.11,66.83 L62.21,91.94 L63.41,92.63 L64.79,92.63 L65.98,91.94 L74.46,83.47 L72.50,82.38 L70.92,80.78 L69.84,78.81 L67.91,73.65 L66.02,74.41 L64.00,74.67 L56.00,74.67 L53.53,74.28 L51.30,73.14 L49.53,71.37 L48.39,69.14 L48.00,66.67 L48.39,64.19 L49.53,61.96 L51.30,60.19 L53.53,59.06 L56.00,58.67 L58.80,58.67 L62.02,51.41 L63.28,49.42 L65.07,47.89 L67.23,46.94 L69.57,46.66 L71.89,47.08 L73.99,48.15 L75.68,49.79 L76.83,51.86 L78.10,55.25 L79.54,53.15 L81.56,51.61 L83.97,50.78 L86.52,50.75 L88.94,51.53 L91.01,53.02 L92.49,55.09 L94.30,58.73 L95.49,58.96 L95.99,55.42 L95.75,51.86 L94.79,48.42 L93.15,45.25 L90.90,42.48 L88.27,40.31 L85.28,38.70 L82.03,37.70 L78.64,37.36 L75.25,37.68 L71.99,38.66 L68.99,40.26 L66.36,42.42 L63.97,44.81 L61.55,42.39 Z" fill="#6848aa" stroke="#1e1e1e" stroke-width="1" stroke-linejoin="round"/><path d="M86.95,67.86 L87.93,68.94 L89.33,69.33 L93.33,69.33 L94.67,68.98 L95.64,68.00 L96.00,66.67 L95.64,65.33 L94.67,64.36 L93.33,64.00 L90.98,64.00 L87.72,57.47 L86.72,56.39 L85.29,56.00 L83.88,56.43 L82.91,57.55 L77.59,69.08 L71.83,53.73 L71.13,52.69 L70.03,52.09 L68.78,52.06 L67.66,52.59 L66.90,53.58 L62.27,64.00 L56.00,64.00 L54.67,64.36 L53.69,65.33 L53.33,66.67 L53.69,68.00 L54.67,68.98 L56.00,69.33 L64.00,69.33 L65.00,69.14 L65.85,68.58 L66.44,67.75 L69.13,61.70 L74.83,76.94 L75.53,77.97 L76.61,78.58 L77.86,78.62 L78.99,78.10 L79.75,77.12 L85.43,64.82 L86.95,67.86 Z" fill="#6848aa" stroke="#1e1e1e" stroke-width="1" stroke-linejoin="round"/></svg>