<svg xmlns="http://www.w3.org/2000/svg" viewBox="7.60 10.67 100.00 93.86"><path d="M93.60,102.51 L94.83,102.45 L96.02,102.27 L97.17,101.97 L98.27,101.57 L99.32,101.06 L100.31,100.46 L101.23,99.77 L102.08,99.00 L102.86,98.15 L103.55,97.22 L104.15,96.24 L104.66,95.19 L105.06,94.09 L105.36,92.94 L105.54,91.75 L105.60,90.53 L105.60,43.80 L105.47,42.76 L105.09,41.83 L104.50,41.04 L103.73,40.42 L59.66,13.22 L58.68,12.81 L57.62,12.67 L57.04,12.71 L56.49,12.84 L55.97,13.03 L55.49,13.29 L11.52,40.42 L10.75,41.04 L10.15,41.84 L9.76,42.78 L9.62,43.82 L9.62,90.55 L9.81,92.63 L10.35,94.65 L11.24,96.54 L12.44,98.25 L13.92,99.73 L15.63,100.92 L17.52,101.81 L19.54,102.35 L21.62,102.53 L93.62,102.53 L93.60,102.50 L93.60,102.51 Z" fill="#067dc5" stroke="#1e1e1e" stroke-width="1" stroke-linejoin="round"/><path d="M9.60,63.71 L9.60,90.53 L9.79,92.61 L10.33,94.62 L11.21,96.52 L12.41,98.23 L13.89,99.70 L15.61,100.90 L17.50,101.78 L19.52,102.32 L21.60,102.51 L93.60,102.51 L94.83,102.44 L96.02,102.26 L97.17,101.97 L98.27,101.56 L99.32,101.06 L100.31,100.46 L101.23,99.77 L102.08,99.00 L102.86,98.15 L103.55,97.22 L104.15,96.24 L104.66,95.19 L105.06,94.09 L105.36,92.94 L105.54,91.75 L105.60,90.53 L105.60,63.71 L9.60,63.71 Z" fill="#000000" stroke="#1e1e1e" stroke-width="1" stroke-linejoin="round" opacity="0.02"/><path d="M21.60,102.51 L20.37,102.44 L19.18,102.26 L18.03,101.97 L16.93,101.56 L15.88,101.06 L14.89,100.46 L13.97,99.77 L13.12,99.00 L12.34,98.15 L11.65,97.22 L11.05,96.24 L10.54,95.19 L10.14,94.09 L9.84,92.94 L9.66,91.75 L9.60,90.53 L9.60,62.58 L9.64,62.05 L9.74,61.53 L10.14,60.58 L10.75,59.78 L11.54,59.16 L43.49,39.43 L44.50,38.99 L45.60,38.83 L46.70,38.99 L47.71,39.43 L79.66,59.16 L80.46,59.78 L81.07,60.58 L81.46,61.53 L81.60,62.58 L81.60,90.53 L81.79,92.61 L82.33,94.62 L83.21,96.52 L84.41,98.23 L85.89,99.70 L87.61,100.90 L89.50,101.78 L91.52,102.32 L93.60,102.51 L21.60,102.51 Z" fill="#12a7eb" stroke="#1e1e1e" stroke-width="1" stroke-linejoin="round"/><path d="M21.60,102.51 L20.37,102.44 L19.18,102.26 L18.03,101.97 L16.93,101.56 L15.88,101.06 L14.89,100.46 L13.97,99.77 L13.12,99.00 L12.34,98.15 L11.65,97.22 L11.05,96.24 L10.54,95.19 L10.14,94.09 L9.84,92.94 L9.66,91.75 L9.60,90.53 L9.60,62.58 L9.64,62.05 L9.74,61.53 L10.14,60.58 L10.75,59.78 L11.54,59.16 L43.49,39.43 L44.50,38.99 L45.60,38.83 L46.70,38.99 L47.71,39.43 L79.66,59.16 L80.46,59.78 L81.07,60.58 L81.46,61.53 L81.60,62.58 L81.60,90.53 L81.79,92.61 L82.33,94.62 L83.21,96.52 L84.41,98.23 L85.89,99.70 L87.61,100.90 L89.50,101.78 L91.52,102.32 L93.60,102.51 L21.60,102.51 Z" fill="#000000" stroke="#1e1e1e" stroke-width="1" stroke-linejoin="round" opacity="0.15"/><path d="M81.60,90.53 L81.60,63.71 L9.60,63.71 L9.60,90.53 L9.79,92.61 L10.33,94.62 L11.21,96.52 L12.41,98.23 L13.89,99.70 L15.61,100.90 L17.50,101.78 L19.52,102.32 L21.60,102.51 L93.60,102.51 L92.37,102.44 L91.18,102.26 L90.03,101.97 L88.93,101.56 L87.88,101.06 L86.89,100.46 L85.97,99.77 L85.12,99.00 L84.34,98.15 L83.65,97.22 L83.05,96.24 L82.54,95.19 L82.14,94.09 L81.84,92.94 L81.66,91.75 L81.60,90.53 Z" fill="#000000" stroke="#1e1e1e" stroke-width="1" stroke-linejoin="round" opacity="0.02"/><path d="M21.60,102.51 L20.37,102.45 L19.18,102.27 L18.03,101.97 L16.93,101.57 L15.88,101.06 L14.89,100.46 L13.97,99.77 L13.12,99.00 L12.34,98.15 L11.65,97.22 L11.05,96.24 L10.54,95.19 L10.14,94.09 L9.84,92.94 L9.66,91.75 L9.60,90.53 L9.60,81.37 L9.74,80.34 L10.12,79.40 L10.72,78.60 L11.50,77.97 L31.49,65.63 L32.50,65.18 L33.60,65.03 L34.70,65.18 L35.71,65.63 L55.68,77.95 L56.47,78.57 L57.07,79.37 L57.46,80.31 L57.60,81.35 L57.60,90.53 L57.79,92.61 L58.33,94.63 L59.21,96.52 L60.41,98.23 L61.89,99.71 L63.61,100.90 L65.50,101.79 L67.52,102.33 L69.60,102.51 L21.60,102.51 Z" fill="#46d2f6" stroke="#1e1e1e" stroke-width="1" stroke-linejoin="round"/><path d="M59.59,97.14 L58.74,95.62 L58.11,93.99 L57.73,92.29 L57.60,90.55 L57.60,81.37 L57.46,80.33 L57.07,79.39 L56.47,78.59 L55.68,77.97 L35.71,65.65 L34.70,65.21 L33.60,65.05 L32.50,65.21 L31.49,65.65 L11.50,78.00 L10.72,78.62 L10.12,79.42 L9.74,80.36 L9.60,81.40 L9.60,90.55 L9.74,92.35 L10.13,94.07 L10.75,95.68 L11.59,97.17 L59.59,97.17 L59.59,97.14 L59.59,97.14 Z" fill="#a1ecff" stroke="#1e1e1e" stroke-width="1" stroke-linejoin="round" opacity="0.5"/></svg>