<svg xmlns="http://www.w3.org/2000/svg" viewBox="6.73 6.73 99.92 100.00"><path d="M8.73,21.82 L9.06,18.91 L10.02,16.14 L11.58,13.66 L13.66,11.58 L16.14,10.02 L18.91,9.06 L21.82,8.73 L82.91,8.73 L85.82,9.06 L88.59,10.02 L91.07,11.58 L93.14,13.66 L94.70,16.14 L95.67,18.91 L96.00,21.82 L96.00,82.91 L95.67,85.82 L94.70,88.59 L93.14,91.07 L91.07,93.14 L88.59,94.70 L85.82,95.67 L82.91,96.00 L21.82,96.00 L18.91,95.67 L16.14,94.70 L13.66,93.14 L11.58,91.07 L10.02,88.59 L9.06,85.82 L8.73,82.91 L8.73,21.82 Z" fill="#f5f5f5" stroke="#1e1e1e" stroke-width="1" stroke-linejoin="round"/><path d="M8.73,21.82 L9.06,18.91 L10.02,16.14 L11.58,13.66 L13.66,11.58 L16.14,10.02 L18.91,9.06 L21.82,8.73 L82.91,8.73 L85.82,9.06 L88.59,10.02 L91.07,11.58 L93.14,13.66 L94.70,16.14 L95.67,18.91 L96.00,21.82 L96.00,82.91 L95.67,85.82 L94.70,88.59 L93.14,91.07 L91.07,93.14 L88.59,94.70 L85.82,95.67 L82.91,96.00 L21.82,96.00 L18.91,95.67 L16.14,94.70 L13.66,93.14 L11.58,91.07 L10.02,88.59 L9.06,85.82 L8.73,82.91 L8.73,21.82 Z" fill="#e3e3e3" stroke="#1e1e1e" stroke-width="1" stroke-linejoin="round" opacity="0.2"/><path d="M21.82,8.73 L18.91,9.06 L16.14,10.02 L13.66,11.58 L11.58,13.66 L10.02,16.14 L9.06,18.91 L8.73,21.82 L8.73,82.91 L9.06,85.82 L10.02,88.59 L11.58,91.07 L13.66,93.14 L16.14,94.70 L18.91,95.67 L21.82,96.00 L82.91,96.00 L85.82,95.67 L88.59,94.70 L91.07,93.14 L93.14,91.07 L94.70,88.59 L95.67,85.82 L96.00,82.91 L96.00,21.82 L95.67,18.91 L94.70,16.14 L93.14,13.66 L91.07,11.58 L88.59,10.02 L85.82,9.06 L82.91,8.73 L21.82,8.73 Z" fill="#a2a2a2" stroke="#1e1e1e" stroke-width="1" stroke-linejoin="round"/><path d="M82.91,13.09 L21.82,13.09 L19.56,13.39 L17.45,14.26 L15.65,15.65 L14.26,17.45 L13.39,19.56 L13.09,21.82 L13.09,82.91 L13.39,85.17 L14.26,87.27 L15.65,89.08 L17.45,90.47 L19.56,91.34 L21.82,91.64 L82.91,91.64 L85.17,91.34 L87.27,90.47 L89.08,89.08 L90.47,87.27 L91.34,85.17 L91.64,82.91 L91.64,21.82 L91.34,19.56 L90.47,17.45 L89.08,15.65 L87.27,14.26 L85.17,13.39 L82.91,13.09 Z" fill="#f1f1f1" stroke="#1e1e1e" stroke-width="1" stroke-linejoin="round"/><path d="M31.64,45.82 L33.50,45.49 L35.14,44.54 L36.36,43.09 L37.01,41.31 L37.01,39.42 L36.36,37.64 L35.14,36.19 L33.50,35.24 L31.64,34.91 L29.77,35.24 L28.13,36.19 L26.91,37.64 L26.26,39.42 L26.26,41.31 L26.91,43.09 L28.13,44.54 L29.77,45.49 L31.64,45.82 Z" fill="#6848aa" stroke="#6848aa" stroke-width="1" stroke-linejoin="round"/><path d="M52.36,45.82 L54.23,45.49 L55.87,44.54 L57.09,43.09 L57.74,41.31 L57.74,39.42 L57.09,37.64 L55.87,36.19 L54.23,35.24 L52.36,34.91 L50.50,35.24 L48.86,36.19 L47.64,37.64 L46.99,39.42 L46.99,41.31 L47.64,43.09 L48.86,44.54 L50.50,45.49 L52.36,45.82 Z" fill="#6848aa" stroke="#6848aa" stroke-width="1" stroke-linejoin="round"/><path d="M57.82,64.36 L57.49,66.23 L56.54,67.87 L55.09,69.09 L53.31,69.74 L51.42,69.74 L49.64,69.09 L48.19,67.87 L47.24,66.23 L46.91,64.36 L47.24,62.50 L48.19,60.86 L49.64,59.64 L51.42,58.99 L53.31,58.99 L55.09,59.64 L56.54,60.86 L57.49,62.50 L57.82,64.36 Z" fill="#6848aa" stroke="#6848aa" stroke-width="1" stroke-linejoin="round"/><path d="M31.64,69.82 L33.50,69.49 L35.14,68.54 L36.36,67.09 L37.01,65.31 L37.01,63.42 L36.36,61.64 L35.14,60.19 L33.50,59.24 L31.64,58.91 L29.77,59.24 L28.13,60.19 L26.91,61.64 L26.26,63.42 L26.26,65.31 L26.91,67.09 L28.13,68.54 L29.77,69.49 L31.64,69.82 Z" fill="#6848aa" stroke="#6848aa" stroke-width="1" stroke-linejoin="round"/><path d="M78.55,40.36 L78.22,42.23 L77.27,43.87 L75.82,45.09 L74.04,45.74 L72.14,45.74 L70.36,45.09 L68.91,43.87 L67.97,42.23 L67.64,40.36 L67.97,38.50 L68.91,36.86 L70.36,35.64 L72.14,34.99 L74.04,34.99 L75.82,35.64 L77.27,36.86 L78.22,38.50 L78.55,40.36 Z" fill="#6848aa" stroke="#6848aa" stroke-width="1" stroke-linejoin="round"/><path d="M63.27,65.45 L59.66,65.79 L56.18,66.78 L52.94,68.40 L50.04,70.58 L47.60,73.26 L45.69,76.34 L44.39,79.72 L43.72,83.28 L43.72,86.90 L44.39,90.46 L45.69,93.84 L47.60,96.92 L50.04,99.60 L52.94,101.79 L56.18,103.40 L59.66,104.39 L63.27,104.73 L85.09,104.73 L88.70,104.39 L92.18,103.40 L95.43,101.79 L98.32,99.60 L100.76,96.92 L102.67,93.84 L103.98,90.46 L104.64,86.90 L104.64,83.28 L103.98,79.72 L102.67,76.34 L100.76,73.26 L98.32,70.58 L95.43,68.40 L92.18,66.78 L88.70,65.79 L85.09,65.45 L63.27,65.45 Z" fill="#f5f5f5" stroke="#1e1e1e" stroke-width="1" stroke-linejoin="round"/><path d="M48.00,85.09 L48.29,82.11 L49.16,79.25 L50.57,76.61 L52.47,74.29 L54.79,72.39 L57.43,70.98 L60.29,70.11 L63.27,69.82 L67.64,69.82 L68.73,70.11 L69.53,70.91 L69.82,72.00 L69.53,73.09 L68.73,73.89 L67.64,74.18 L63.27,74.18 L60.66,74.50 L58.20,75.43 L56.04,76.93 L54.29,78.89 L53.07,81.22 L52.44,83.78 L52.44,86.41 L53.07,88.96 L54.29,91.29 L56.04,93.26 L58.20,94.75 L60.66,95.68 L63.27,96.00 L67.64,96.00 L68.73,96.29 L69.53,97.09 L69.82,98.18 L69.53,99.27 L68.73,100.07 L67.64,100.36 L63.27,100.36 L60.29,100.07 L57.43,99.20 L54.79,97.79 L52.47,95.89 L50.57,93.58 L49.16,90.94 L48.29,88.07 L48.00,85.09 Z" fill="#6848aa" stroke="#1e1e1e" stroke-width="1" stroke-linejoin="round"/><path d="M85.09,100.36 L88.27,100.03 L91.30,99.04 L94.07,97.45 L96.44,95.31 L98.32,92.73 L99.62,89.81 L100.28,86.69 L100.28,83.49 L99.62,80.37 L98.32,77.45 L96.44,74.87 L94.07,72.74 L91.30,71.14 L88.27,70.15 L85.09,69.82 L80.45,69.82 L80.45,69.84 L79.48,70.21 L78.79,70.99 L78.55,72.00 L78.79,73.01 L79.48,73.79 L80.45,74.16 L80.45,74.18 L85.09,74.18 L87.70,74.50 L90.16,75.43 L92.32,76.93 L94.07,78.89 L95.29,81.22 L95.92,83.78 L95.92,86.41 L95.29,88.96 L94.07,91.29 L92.32,93.26 L90.16,94.75 L87.70,95.68 L85.09,96.00 L80.73,96.00 L79.64,96.29 L78.84,97.09 L78.55,98.18 L78.84,99.27 L79.64,100.07 L80.73,100.36 L85.09,100.36 Z" fill="#6848aa" stroke="#1e1e1e" stroke-width="1" stroke-linejoin="round"/><path d="M63.27,82.91 L62.18,83.20 L61.38,84.00 L61.09,85.09 L61.38,86.18 L62.18,86.98 L63.27,87.27 L85.09,87.27 L86.18,86.98 L86.98,86.18 L87.27,85.09 L86.98,84.00 L86.18,83.20 L85.09,82.91 L63.27,82.91 Z" fill="#6848aa" stroke="#6848aa" stroke-width="1" stroke-linejoin="round"/></svg>