<svg xmlns="http://www.w3.org/2000/svg" viewBox="17.39 7.60 80.61 100.00"><path d="M73.28,9.60 L75.60,9.72 L77.85,10.06 L80.02,10.61 L82.11,11.37 L84.09,12.32 L85.96,13.45 L87.71,14.75 L89.33,16.21 L90.80,17.81 L92.11,19.54 L93.25,21.40 L94.21,23.38 L94.97,25.45 L95.54,27.61 L95.88,29.85 L96.00,32.16 L95.96,33.56 L95.85,34.92 L95.66,36.23 L95.41,37.49 L95.08,38.71 L94.69,39.87 L94.23,40.98 L93.70,42.04 L93.12,43.05 L92.47,44.02 L91.76,44.93 L91.00,45.79 L90.17,46.60 L89.30,47.37 L87.39,48.75 L85.28,49.93 L82.99,50.91 L80.52,51.69 L77.90,52.27 L75.14,52.65 L72.24,52.83 L69.22,52.82 L66.10,52.60 L61.88,51.66 L59.58,51.02 L57.24,50.25 L54.93,49.30 L52.73,48.15 L51.68,47.49 L50.69,46.77 L49.76,45.99 L48.90,45.14 L49.47,40.81 L49.96,36.53 L50.96,28.11 L51.33,26.09 L51.87,24.15 L52.59,22.31 L53.46,20.57 L54.48,18.93 L55.65,17.41 L56.94,16.00 L58.37,14.72 L59.91,13.57 L61.56,12.55 L63.31,11.67 L65.16,10.94 L67.08,10.36 L69.08,9.94 L71.15,9.69 L73.28,9.60 L73.28,9.60 Z" fill="#ea364a" stroke="#1e1e1e" stroke-width="1" stroke-linejoin="round"/><path d="M73.28,9.60 L75.60,9.72 L77.85,10.06 L80.02,10.61 L82.11,11.37 L84.09,12.32 L85.96,13.45 L87.71,14.75 L89.33,16.21 L90.80,17.81 L92.11,19.54 L93.25,21.40 L94.21,23.38 L94.97,25.45 L95.54,27.61 L95.88,29.85 L96.00,32.16 L95.96,33.56 L95.85,34.92 L95.66,36.23 L95.41,37.49 L95.08,38.71 L94.69,39.87 L94.23,40.98 L93.70,42.04 L93.12,43.05 L92.47,44.02 L91.76,44.93 L91.00,45.79 L90.17,46.60 L89.30,47.37 L87.39,48.75 L85.28,49.93 L82.99,50.91 L80.52,51.69 L77.90,52.27 L75.14,52.65 L72.24,52.83 L69.22,52.82 L66.10,52.60 L61.88,51.66 L59.58,51.02 L57.24,50.25 L54.93,49.30 L52.73,48.15 L51.68,47.49 L50.69,46.77 L49.76,45.99 L48.90,45.14 L49.47,40.81 L49.96,36.53 L50.96,28.11 L51.33,26.09 L51.87,24.15 L52.59,22.31 L53.46,20.57 L54.48,18.93 L55.65,17.41 L56.94,16.00 L58.37,14.72 L59.91,13.57 L61.56,12.55 L63.31,11.67 L65.16,10.94 L67.08,10.36 L69.08,9.94 L71.15,9.69 L73.28,9.60 L73.28,9.60 Z" fill="#560b14" stroke="#1e1e1e" stroke-width="1" stroke-linejoin="round" opacity="0.45"/><path d="M58.10,72.25 L61.56,72.67 L63.23,73.01 L64.84,73.44 L66.36,73.98 L67.79,74.62 L69.14,75.36 L70.39,76.19 L71.55,77.12 L72.60,78.13 L73.55,79.23 L74.39,80.42 L75.10,81.68 L75.70,83.03 L76.18,84.45 L76.52,85.94 L76.73,87.50 L76.80,89.13 L76.72,90.81 L76.48,92.45 L76.09,94.02 L75.55,95.54 L74.88,96.98 L74.09,98.34 L73.17,99.60 L72.15,100.77 L71.02,101.84 L69.79,102.79 L68.48,103.61 L67.08,104.31 L65.62,104.86 L64.09,105.27 L62.50,105.51 L60.86,105.60 L59.23,105.51 L57.64,105.27 L56.10,104.86 L54.63,104.31 L53.23,103.61 L51.91,102.79 L50.68,101.84 L49.54,100.78 L48.50,99.61 L47.58,98.34 L46.78,96.98 L46.11,95.54 L45.57,94.03 L45.17,92.45 L44.93,90.81 L44.85,89.13 L44.74,86.88 L44.41,84.62 L43.83,82.42 L43.44,81.36 L42.97,80.33 L42.42,79.35 L41.79,78.42 L41.08,77.55 L40.28,76.75 L39.39,76.03 L38.41,75.39 L37.33,74.84 L36.14,74.39 L36.71,74.40 L39.60,74.36 L41.02,74.27 L42.46,74.08 L45.47,73.49 L48.89,72.84 L50.85,72.55 L53.01,72.34 L55.42,72.23 L58.10,72.25 L58.10,72.25 Z" fill="#ae1e2e" stroke="#1e1e1e" stroke-width="1" stroke-linejoin="round"/><path d="M58.10,72.25 L61.56,72.67 L63.23,73.01 L64.84,73.44 L66.36,73.98 L67.79,74.62 L69.14,75.36 L70.39,76.19 L71.55,77.12 L72.60,78.13 L73.55,79.23 L74.39,80.42 L75.10,81.68 L75.70,83.03 L76.18,84.45 L76.52,85.94 L76.73,87.50 L76.80,89.13 L76.72,90.81 L76.48,92.45 L76.09,94.02 L75.55,95.54 L74.88,96.98 L74.09,98.34 L73.17,99.60 L72.15,100.77 L71.02,101.84 L69.79,102.79 L68.48,103.61 L67.08,104.31 L65.62,104.86 L64.09,105.27 L62.50,105.51 L60.86,105.60 L59.23,105.51 L57.64,105.27 L56.10,104.86 L54.63,104.31 L53.23,103.61 L51.91,102.79 L50.68,101.84 L49.54,100.78 L48.50,99.61 L47.58,98.34 L46.78,96.98 L46.11,95.54 L45.57,94.03 L45.17,92.45 L44.93,90.81 L44.85,89.13 L44.74,86.88 L44.41,84.62 L43.83,82.42 L43.44,81.36 L42.97,80.33 L42.42,79.35 L41.79,78.42 L41.08,77.55 L40.28,76.75 L39.39,76.03 L38.41,75.39 L37.33,74.84 L36.14,74.39 L36.71,74.40 L39.60,74.36 L41.02,74.27 L42.46,74.08 L45.47,73.49 L48.89,72.84 L50.85,72.55 L53.01,72.34 L55.42,72.23 L58.10,72.25 L58.10,72.25 Z" fill="#6f0f1a" stroke="#1e1e1e" stroke-width="1" stroke-linejoin="round" opacity="0.52"/><path d="M36.75,40.80 L38.49,40.86 L40.18,41.04 L41.82,41.35 L43.39,41.80 L44.89,42.39 L46.30,43.13 L47.62,44.03 L48.85,45.09 L49.72,45.96 L50.66,46.75 L51.66,47.48 L52.72,48.15 L54.95,49.31 L57.29,50.27 L59.66,51.05 L61.99,51.68 L66.24,52.63 L63.17,52.50 L61.68,52.53 L60.25,52.63 L58.87,52.81 L57.56,53.08 L56.33,53.45 L55.19,53.93 L54.15,54.53 L53.21,55.25 L52.39,56.11 L51.70,57.12 L51.15,58.28 L50.74,59.60 L50.49,61.10 L50.40,62.77 L50.44,63.61 L50.58,64.43 L50.79,65.22 L51.07,65.98 L51.43,66.72 L51.85,67.43 L52.87,68.73 L54.07,69.89 L55.42,70.87 L56.87,71.67 L58.39,72.26 L55.64,72.23 L53.18,72.33 L50.98,72.54 L48.99,72.82 L45.51,73.49 L42.46,74.08 L41.02,74.27 L39.60,74.36 L36.71,74.40 L34.94,74.32 L33.22,74.07 L31.55,73.68 L29.96,73.13 L28.45,72.44 L27.02,71.63 L25.69,70.68 L24.46,69.61 L23.34,68.44 L22.34,67.15 L21.48,65.77 L20.75,64.29 L20.17,62.73 L19.74,61.09 L19.48,59.38 L19.39,57.60 L19.48,55.82 L19.74,54.11 L20.17,52.47 L20.76,50.91 L21.49,49.43 L22.36,48.05 L23.35,46.76 L24.47,45.58 L25.71,44.52 L27.04,43.57 L28.47,42.75 L29.99,42.07 L31.59,41.52 L33.25,41.13 L34.97,40.88 L36.75,40.80 Z" fill="#ef4043" stroke="#1e1e1e" stroke-width="1" stroke-linejoin="round"/><path d="M36.75,40.80 L38.49,40.86 L40.18,41.04 L41.82,41.35 L43.39,41.80 L44.89,42.39 L46.30,43.13 L47.62,44.03 L48.85,45.09 L49.72,45.96 L50.66,46.75 L51.66,47.48 L52.72,48.15 L54.95,49.31 L57.29,50.27 L59.66,51.05 L61.99,51.68 L66.24,52.63 L63.17,52.50 L61.68,52.53 L60.25,52.63 L58.87,52.81 L57.56,53.08 L56.33,53.45 L55.19,53.93 L54.15,54.53 L53.21,55.25 L52.39,56.11 L51.70,57.12 L51.15,58.28 L50.74,59.60 L50.49,61.10 L50.40,62.77 L50.44,63.61 L50.58,64.43 L50.79,65.22 L51.07,65.98 L51.43,66.72 L51.85,67.43 L52.87,68.73 L54.07,69.89 L55.42,70.87 L56.87,71.67 L58.39,72.26 L55.64,72.23 L53.18,72.33 L50.98,72.54 L48.99,72.82 L45.51,73.49 L42.46,74.08 L41.02,74.27 L39.60,74.36 L36.71,74.40 L34.94,74.32 L33.22,74.07 L31.55,73.68 L29.96,73.13 L28.45,72.44 L27.02,71.63 L25.69,70.68 L24.46,69.61 L23.34,68.44 L22.34,67.15 L21.48,65.77 L20.75,64.29 L20.17,62.73 L19.74,61.09 L19.48,59.38 L19.39,57.60 L19.48,55.82 L19.74,54.11 L20.17,52.47 L20.76,50.91 L21.49,49.43 L22.36,48.05 L23.35,46.76 L24.47,45.58 L25.71,44.52 L27.04,43.57 L28.47,42.75 L29.99,42.07 L31.59,41.52 L33.25,41.13 L34.97,40.88 L36.75,40.80 Z" fill="#ff764e" stroke="#1e1e1e" stroke-width="1" stroke-linejoin="round" opacity="0.07"/><path d="M36.75,40.80 L38.49,40.86 L40.18,41.04 L41.82,41.35 L43.39,41.80 L44.89,42.39 L46.30,43.13 L47.62,44.03 L48.85,45.09 L49.72,45.96 L50.66,46.75 L51.66,47.48 L52.72,48.15 L54.95,49.31 L57.29,50.27 L59.66,51.05 L61.99,51.68 L66.24,52.63 L63.17,52.50 L61.68,52.53 L60.25,52.63 L58.87,52.81 L57.56,53.08 L56.33,53.45 L55.19,53.93 L54.15,54.53 L53.21,55.25 L52.39,56.11 L51.70,57.12 L51.15,58.28 L50.74,59.60 L50.49,61.10 L50.40,62.77 L50.44,63.61 L50.58,64.43 L50.79,65.22 L51.07,65.98 L51.43,66.72 L51.85,67.43 L52.87,68.73 L54.07,69.89 L55.42,70.87 L56.87,71.67 L58.39,72.26 L55.64,72.23 L53.18,72.33 L50.98,72.54 L48.99,72.82 L45.51,73.49 L42.46,74.08 L41.02,74.27 L39.60,74.36 L36.71,74.40 L34.94,74.32 L33.22,74.07 L31.55,73.68 L29.96,73.13 L28.45,72.44 L27.02,71.63 L25.69,70.68 L24.46,69.61 L23.34,68.44 L22.34,67.15 L21.48,65.77 L20.75,64.29 L20.17,62.73 L19.74,61.09 L19.48,59.38 L19.39,57.60 L19.48,55.82 L19.74,54.11 L20.17,52.47 L20.76,50.91 L21.49,49.43 L22.36,48.05 L23.35,46.76 L24.47,45.58 L25.71,44.52 L27.04,43.57 L28.47,42.75 L29.99,42.07 L31.59,41.52 L33.25,41.13 L34.97,40.88 L36.75,40.80 Z" fill="#ffd9a4" stroke="#1e1e1e" stroke-width="1" stroke-linejoin="round" opacity="0.54"/></svg>