<svg xmlns="http://www.w3.org/2000/svg" viewBox="10.51 2.17 91.49 100.00"><path d="M12.51,16.68 L12.82,13.90 L13.75,11.25 L15.24,8.88 L17.22,6.90 L19.59,5.41 L22.24,4.48 L25.02,4.17 L75.06,4.17 L77.85,4.48 L80.49,5.41 L82.86,6.90 L84.84,8.88 L86.33,11.25 L87.26,13.90 L87.57,16.68 L87.57,83.40 L87.26,86.19 L86.33,88.83 L84.84,91.20 L82.86,93.18 L80.49,94.68 L77.85,95.60 L75.06,95.91 L25.02,95.91 L22.24,95.60 L19.59,94.68 L17.22,93.18 L15.24,91.20 L13.75,88.83 L12.82,86.19 L12.51,83.40 L12.51,16.68 Z" fill="#f5f5f5" stroke="#1e1e1e" stroke-width="1" stroke-linejoin="round"/><path d="M12.51,16.68 L12.82,13.90 L13.75,11.25 L15.24,8.88 L17.22,6.90 L19.59,5.41 L22.24,4.48 L25.02,4.17 L75.06,4.17 L77.85,4.48 L80.49,5.41 L82.86,6.90 L84.84,8.88 L86.33,11.25 L87.26,13.90 L87.57,16.68 L87.57,83.40 L87.26,86.19 L86.33,88.83 L84.84,91.20 L82.86,93.18 L80.49,94.68 L77.85,95.60 L75.06,95.91 L25.02,95.91 L22.24,95.60 L19.59,94.68 L17.22,93.18 L15.24,91.20 L13.75,88.83 L12.82,86.19 L12.51,83.40 L12.51,16.68 Z" fill="#e3e3e3" stroke="#1e1e1e" stroke-width="1" stroke-linejoin="round" opacity="0.2"/><path d="M25.02,4.17 L22.24,4.48 L19.59,5.41 L17.22,6.90 L15.24,8.88 L13.75,11.25 L12.82,13.90 L12.51,16.68 L12.51,83.40 L12.82,86.19 L13.75,88.83 L15.24,91.20 L17.22,93.18 L19.59,94.68 L22.24,95.60 L25.02,95.91 L75.06,95.91 L77.85,95.60 L80.49,94.68 L82.86,93.18 L84.84,91.20 L86.33,88.83 L87.26,86.19 L87.57,83.40 L87.57,16.68 L87.26,13.90 L86.33,11.25 L84.84,8.88 L82.86,6.90 L80.49,5.41 L77.85,4.48 L75.06,4.17 L25.02,4.17 Z" fill="#a2a2a2" stroke="#1e1e1e" stroke-width="1" stroke-linejoin="round"/><path d="M75.06,8.34 L25.02,8.34 L22.86,8.62 L20.85,9.46 L19.12,10.78 L17.80,12.51 L16.96,14.52 L16.68,16.68 L16.68,83.40 L16.96,85.56 L17.80,87.57 L19.12,89.30 L20.85,90.63 L22.86,91.46 L25.02,91.74 L75.06,91.74 L77.22,91.46 L79.23,90.63 L80.96,89.30 L82.29,87.57 L83.12,85.56 L83.40,83.40 L83.40,16.68 L83.12,14.52 L82.29,12.51 L80.96,10.78 L79.23,9.46 L77.22,8.62 L75.06,8.34 Z" fill="#f1f1f1" stroke="#1e1e1e" stroke-width="1" stroke-linejoin="round"/><path d="M62.55,25.02 L43.79,25.02 L41.47,25.28 L39.26,26.05 L37.29,27.30 L35.64,28.95 L34.39,30.92 L33.62,33.13 L33.36,35.45 L33.36,58.38 L27.11,58.38 L26.06,58.66 L25.30,59.43 L25.02,60.47 L25.02,64.64 L25.28,66.96 L26.05,69.16 L27.30,71.14 L28.95,72.79 L30.92,74.03 L33.13,74.80 L35.45,75.06 L60.24,75.06 L60.24,75.06 L60.47,75.06 L62.40,74.76 L64.14,73.87 L65.53,72.48 L66.42,70.74 L66.72,68.81 L66.72,50.04 L72.98,50.04 L74.02,49.76 L74.78,49.00 L75.06,47.96 L75.06,33.36 L74.78,31.20 L73.95,29.19 L72.62,27.46 L70.89,26.14 L68.88,25.31 L66.72,25.02 L62.55,25.02 Z" fill="#45903e" stroke="#45903e" stroke-width="1" stroke-linejoin="round"/><path d="M43.79,29.19 L41.85,29.50 L40.11,30.39 L38.73,31.77 L37.84,33.51 L37.53,35.45 L37.53,58.38 L56.30,58.38 L57.34,58.66 L58.10,59.43 L58.38,60.47 L58.38,68.81 L58.66,69.85 L59.43,70.61 L60.47,70.89 L61.51,70.61 L62.27,69.85 L62.55,68.81 L62.55,29.19 L43.79,29.19 Z" fill="#f1f1f1" stroke="#f1f1f1" stroke-width="1" stroke-linejoin="round"/><path d="M41.70,39.62 L41.98,38.57 L42.74,37.81 L43.79,37.53 L56.30,37.53 L57.34,37.81 L58.10,38.57 L58.38,39.62 L58.10,40.66 L57.34,41.42 L56.30,41.70 L43.79,41.70 L42.74,41.42 L41.98,40.66 L41.70,39.62 Z" fill="#45903e" stroke="#45903e" stroke-width="1" stroke-linejoin="round"/><path d="M43.79,45.87 L42.74,46.15 L41.98,46.91 L41.70,47.96 L41.98,49.00 L42.74,49.76 L43.79,50.04 L56.30,50.04 L57.34,49.76 L58.10,49.00 L58.38,47.96 L58.10,46.91 L57.34,46.15 L56.30,45.87 L43.79,45.87 Z" fill="#45903e" stroke="#45903e" stroke-width="1" stroke-linejoin="round"/><path d="M98.25,64.39 L97.30,63.61 L96.23,63.03 L95.06,62.68 L93.83,62.55 L72.98,62.55 L71.80,62.67 L70.68,63.01 L70.10,63.30 L69.56,63.64 L68.66,64.39 L67.72,65.56 L67.56,65.85 L67.22,66.43 L66.93,67.26 L66.81,67.77 L66.81,68.02 L66.73,69.02 L66.81,70.06 L67.06,70.95 L67.43,71.78 L67.91,72.55 L68.52,73.23 L68.93,73.65 L68.05,74.15 L67.26,74.81 L64.30,77.77 L63.16,79.36 L62.55,81.22 L62.55,83.17 L63.16,85.03 L64.30,86.61 L65.13,87.30 L66.06,87.82 L64.30,89.58 L63.15,91.16 L62.55,93.02 L62.55,94.97 L63.15,96.83 L64.30,98.42 L65.89,99.57 L67.75,100.17 L69.70,100.17 L71.56,99.57 L73.14,98.42 L74.90,96.66 L75.42,97.59 L76.11,98.42 L77.69,99.56 L79.55,100.17 L81.50,100.17 L83.36,99.56 L84.95,98.42 L87.91,95.46 L88.55,94.65 L89.03,93.75 L89.37,94.08 L90.07,94.69 L90.84,95.18 L91.67,95.56 L92.54,95.79 L93.37,95.91 L93.79,95.91 L95.02,95.79 L96.25,95.41 L97.29,94.83 L97.83,94.41 L98.08,94.16 L98.71,93.45 L98.92,93.12 L99.39,92.31 L99.72,91.45 L99.93,90.55 L100.00,89.62 L100.00,68.81 L99.88,67.58 L99.52,66.41 L98.95,65.34 L98.17,64.39 L98.25,64.39 Z" fill="#f5f5f5" stroke="#1e1e1e" stroke-width="1" stroke-linejoin="round"/><path d="M72.99,66.72 L93.85,66.72 L94.89,67.00 L95.65,67.77 L95.93,68.81 L95.93,89.66 L95.84,90.26 L95.58,90.82 L95.51,90.91 L95.13,91.31 L94.65,91.59 L93.85,91.74 L93.05,91.59 L92.37,91.14 L71.52,70.28 L71.03,69.52 L70.92,68.61 L71.20,67.74 L71.24,67.68 L71.30,67.59 L72.04,66.95 L72.99,66.72 L72.99,66.72 Z" fill="#45903e" stroke="#1e1e1e" stroke-width="1" stroke-linejoin="round"/><path d="M73.23,77.79 L73.77,78.72 L73.77,79.80 L73.23,80.73 L70.28,83.69 L69.35,84.23 L68.27,84.23 L67.33,83.69 L66.79,82.75 L66.80,81.67 L67.34,80.73 L70.28,77.79 L71.22,77.25 L72.30,77.25 L73.23,77.79 L73.23,77.79 Z" fill="#45903e" stroke="#45903e" stroke-width="1" stroke-linejoin="round"/><path d="M85.03,89.58 L85.57,90.52 L85.57,91.60 L85.03,92.53 L82.08,95.48 L81.14,96.04 L80.05,96.05 L79.10,95.51 L78.56,94.56 L78.57,93.47 L79.13,92.53 L82.08,89.58 L83.01,89.04 L84.09,89.04 L85.03,89.58 L85.03,89.58 Z" fill="#45903e" stroke="#45903e" stroke-width="1" stroke-linejoin="round"/><path d="M79.13,83.69 L79.67,84.62 L79.67,85.70 L79.13,86.64 L70.28,95.48 L69.34,96.04 L68.25,96.05 L67.31,95.51 L66.76,94.56 L66.77,93.47 L67.33,92.53 L76.18,83.69 L77.12,83.15 L78.19,83.15 L79.13,83.69 Z" fill="#45903e" stroke="#45903e" stroke-width="1" stroke-linejoin="round"/></svg>