<svg xmlns="http://www.w3.org/2000/svg" viewBox="19.43 19.33 217.23 217.34"><path d="M124.69,156.29 L108.00,217.82 L107.64,219.54 L107.52,221.34 L107.85,224.31 L108.84,227.13 L110.43,229.66 L112.54,231.77 L115.07,233.36 L117.89,234.34 L120.85,234.68 L123.68,234.38 L126.30,233.52 L128.65,232.18 L130.67,230.41 L229.92,117.79 L228.63,119.07 L227.22,120.21 L225.70,121.20 L224.08,122.04 L222.37,122.71 L220.57,123.20 L218.72,123.50 L216.80,123.61 L167.57,123.61 L163.77,123.77 L160.06,124.24 L156.45,125.01 L152.95,126.07 L149.58,127.40 L146.36,128.99 L143.28,130.83 L140.37,132.90 L137.65,135.19 L135.11,137.69 L132.78,140.39 L130.67,143.27 L128.80,146.32 L127.17,149.52 L125.79,152.87 L124.69,156.35 L124.69,156.29 Z" fill="#670938" stroke="#1e1e1e" stroke-width="1" stroke-linejoin="round"/><path d="M234.61,105.79 L234.52,103.98 L234.25,102.21 L233.82,100.51 L233.22,98.88 L232.47,97.32 L231.58,95.86 L230.56,94.49 L229.41,93.23 L228.15,92.09 L226.79,91.06 L225.32,90.17 L223.77,89.43 L222.14,88.83 L220.43,88.39 L218.67,88.12 L216.85,88.03 L80.43,88.03 L39.09,132.45 L35.40,132.84 L31.87,133.99 L28.66,135.84 L25.90,138.33 L23.72,141.33 L22.21,144.72 L21.43,148.35 L21.43,152.07 L22.21,155.70 L23.72,159.09 L25.90,162.09 L28.66,164.58 L31.87,166.43 L35.40,167.58 L39.09,167.97 L146.35,167.97 L150.03,168.36 L153.56,169.50 L156.77,171.35 L159.52,173.83 L161.70,176.83 L163.21,180.21 L163.99,183.83 L164.00,187.54 L163.24,191.16 L161.74,194.55 L159.57,197.56 L224.11,124.35 L229.87,117.84 L229.81,117.84 L231.83,115.26 L233.36,112.35 L233.92,110.78 L234.33,109.16 L234.58,107.47 L234.67,105.74 L234.61,105.79 Z" fill="#e42b3f" stroke="#1e1e1e" stroke-width="1" stroke-linejoin="round"/><path d="M234.61,105.79 L234.52,103.98 L234.25,102.21 L233.82,100.51 L233.22,98.88 L232.47,97.32 L231.58,95.86 L230.56,94.49 L229.41,93.23 L228.15,92.09 L226.79,91.06 L225.32,90.17 L223.77,89.43 L222.14,88.83 L220.43,88.39 L218.67,88.12 L216.85,88.03 L80.43,88.03 L39.09,132.45 L35.40,132.84 L31.87,133.99 L28.66,135.84 L25.90,138.33 L23.72,141.33 L22.21,144.72 L21.43,148.35 L21.43,152.07 L22.21,155.70 L23.72,159.09 L25.90,162.09 L28.66,164.58 L31.87,166.43 L35.40,167.58 L39.09,167.97 L146.35,167.97 L150.03,168.36 L153.56,169.50 L156.77,171.35 L159.52,173.83 L161.70,176.83 L163.21,180.21 L163.99,183.83 L164.00,187.54 L163.24,191.16 L161.74,194.55 L159.57,197.56 L224.11,124.35 L229.87,117.84 L229.81,117.84 L231.83,115.26 L233.36,112.35 L233.92,110.78 L234.33,109.16 L234.58,107.47 L234.67,105.74 L234.61,105.79 Z" fill="#570830" stroke="#1e1e1e" stroke-width="1" stroke-linejoin="round"/><path d="M131.15,99.72 L147.84,38.18 L148.20,36.46 L148.32,34.66 L147.98,31.70 L147.00,28.88 L145.41,26.35 L143.30,24.24 L140.77,22.65 L137.95,21.67 L134.99,21.33 L132.16,21.63 L129.54,22.49 L127.19,23.83 L125.17,25.60 L25.92,138.21 L27.21,136.94 L28.61,135.80 L30.14,134.80 L31.76,133.97 L33.47,133.30 L35.27,132.81 L37.12,132.50 L39.04,132.40 L88.27,132.40 L92.07,132.24 L95.78,131.77 L99.39,131.00 L102.89,129.94 L106.26,128.61 L109.48,127.02 L112.56,125.18 L115.47,123.11 L118.19,120.82 L120.73,118.32 L123.06,115.62 L125.17,112.74 L127.04,109.69 L128.67,106.49 L130.05,103.14 L131.15,99.66 L131.15,99.72 Z" fill="#fc6759" stroke="#1e1e1e" stroke-width="1" stroke-linejoin="round"/></svg>