<svg xmlns="http://www.w3.org/2000/svg" viewBox="14.00 14.00 142.67 142.67"><path d="M154.67,85.33 L154.58,88.90 L154.31,92.42 L153.87,95.89 L153.26,99.31 L152.48,102.66 L151.55,105.95 L150.46,109.17 L149.22,112.32 L147.83,115.39 L146.30,118.38 L144.63,121.29 L142.83,124.10 L138.83,129.44 L134.36,134.36 L129.44,138.83 L124.10,142.83 L121.29,144.63 L118.38,146.30 L115.39,147.83 L112.32,149.22 L109.17,150.46 L105.95,151.55 L102.66,152.48 L99.31,153.26 L95.89,153.87 L92.42,154.31 L88.90,154.58 L85.33,154.67 L81.77,154.58 L78.24,154.31 L74.77,153.87 L71.36,153.26 L68.01,152.48 L64.72,151.55 L61.49,150.46 L58.35,149.22 L55.27,147.83 L52.28,146.30 L49.38,144.63 L46.57,142.83 L41.23,138.83 L36.31,134.36 L31.83,129.44 L27.84,124.10 L26.04,121.29 L24.37,118.38 L22.84,115.39 L21.45,112.32 L20.21,109.17 L19.12,105.95 L18.18,102.66 L17.41,99.31 L16.80,95.89 L16.36,92.42 L16.09,88.90 L16.00,85.33 L16.09,81.77 L16.36,78.24 L16.80,74.77 L17.41,71.36 L18.18,68.01 L19.12,64.72 L20.21,61.49 L21.45,58.35 L22.84,55.27 L24.37,52.28 L26.04,49.38 L27.84,46.57 L31.83,41.23 L36.31,36.31 L41.23,31.83 L46.57,27.84 L49.38,26.04 L52.28,24.37 L55.27,22.84 L58.35,21.45 L61.49,20.21 L64.72,19.12 L68.01,18.18 L71.36,17.41 L74.77,16.80 L78.24,16.36 L81.77,16.09 L85.33,16.00 L88.90,16.09 L92.42,16.36 L95.89,16.80 L99.31,17.41 L102.66,18.18 L105.95,19.12 L109.17,20.21 L112.32,21.45 L115.39,22.84 L118.38,24.37 L121.29,26.04 L124.10,27.84 L129.44,31.83 L134.36,36.31 L138.83,41.23 L142.83,46.57 L144.63,49.38 L146.30,52.28 L147.83,55.27 L149.22,58.35 L150.46,61.49 L151.55,64.72 L152.48,68.01 L153.26,71.36 L153.87,74.77 L154.31,78.24 L154.58,81.77 L154.67,85.33 Z" fill="#f5f5f5" stroke="#1e1e1e" stroke-width="1" stroke-linejoin="round"/><path d="M154.67,85.33 L154.58,88.90 L154.31,92.42 L153.87,95.89 L153.26,99.31 L152.48,102.66 L151.55,105.95 L150.46,109.17 L149.22,112.32 L147.83,115.39 L146.30,118.38 L144.63,121.29 L142.83,124.10 L138.83,129.44 L134.36,134.36 L129.44,138.83 L124.10,142.83 L121.29,144.63 L118.38,146.30 L115.39,147.83 L112.32,149.22 L109.17,150.46 L105.95,151.55 L102.66,152.48 L99.31,153.26 L95.89,153.87 L92.42,154.31 L88.90,154.58 L85.33,154.67 L81.77,154.58 L78.24,154.31 L74.77,153.87 L71.36,153.26 L68.01,152.48 L64.72,151.55 L61.49,150.46 L58.35,149.22 L55.27,147.83 L52.28,146.30 L49.38,144.63 L46.57,142.83 L41.23,138.83 L36.31,134.36 L31.83,129.44 L27.84,124.10 L26.04,121.29 L24.37,118.38 L22.84,115.39 L21.45,112.32 L20.21,109.17 L19.12,105.95 L18.18,102.66 L17.41,99.31 L16.80,95.89 L16.36,92.42 L16.09,88.90 L16.00,85.33 L16.09,81.77 L16.36,78.24 L16.80,74.77 L17.41,71.36 L18.18,68.01 L19.12,64.72 L20.21,61.49 L21.45,58.35 L22.84,55.27 L24.37,52.28 L26.04,49.38 L27.84,46.57 L31.83,41.23 L36.31,36.31 L41.23,31.83 L46.57,27.84 L49.38,26.04 L52.28,24.37 L55.27,22.84 L58.35,21.45 L61.49,20.21 L64.72,19.12 L68.01,18.18 L71.36,17.41 L74.77,16.80 L78.24,16.36 L81.77,16.09 L85.33,16.00 L88.90,16.09 L92.42,16.36 L95.89,16.80 L99.31,17.41 L102.66,18.18 L105.95,19.12 L109.17,20.21 L112.32,21.45 L115.39,22.84 L118.38,24.37 L121.29,26.04 L124.10,27.84 L129.44,31.83 L134.36,36.31 L138.83,41.23 L142.83,46.57 L144.63,49.38 L146.30,52.28 L147.83,55.27 L149.22,58.35 L150.46,61.49 L151.55,64.72 L152.48,68.01 L153.26,71.36 L153.87,74.77 L154.31,78.24 L154.58,81.77 L154.67,85.33 Z" fill="#e3e3e3" stroke="#1e1e1e" stroke-width="1" stroke-linejoin="round" opacity="0.2"/><path d="M85.33,154.67 L88.90,154.58 L92.42,154.31 L95.89,153.87 L99.31,153.26 L102.66,152.48 L105.95,151.55 L109.17,150.46 L112.32,149.22 L115.39,147.83 L118.38,146.30 L121.29,144.63 L124.10,142.83 L129.44,138.83 L134.36,134.36 L138.83,129.44 L142.83,124.10 L144.63,121.29 L146.30,118.38 L147.83,115.39 L149.22,112.32 L150.46,109.17 L151.55,105.95 L152.48,102.66 L153.26,99.31 L153.87,95.89 L154.31,92.42 L154.58,88.90 L154.67,85.33 L154.58,81.77 L154.31,78.24 L153.87,74.77 L153.26,71.36 L152.48,68.01 L151.55,64.72 L150.46,61.49 L149.22,58.35 L147.83,55.27 L146.30,52.28 L144.63,49.38 L142.83,46.57 L138.83,41.23 L134.36,36.31 L129.44,31.83 L124.10,27.84 L121.29,26.04 L118.38,24.37 L115.39,22.84 L112.32,21.45 L109.17,20.21 L105.95,19.12 L102.66,18.18 L99.31,17.41 L95.89,16.80 L92.42,16.36 L88.90,16.09 L85.33,16.00 L81.77,16.09 L78.24,16.36 L74.77,16.80 L71.36,17.41 L68.01,18.18 L64.72,19.12 L61.49,20.21 L58.35,21.45 L55.27,22.84 L52.28,24.37 L49.38,26.04 L46.57,27.84 L41.23,31.83 L36.31,36.31 L31.83,41.23 L27.84,46.57 L26.04,49.38 L24.37,52.28 L22.84,55.27 L21.45,58.35 L20.21,61.49 L19.12,64.72 L18.18,68.01 L17.41,71.36 L16.80,74.77 L16.36,78.24 L16.09,81.77 L16.00,85.33 L16.09,88.90 L16.36,92.42 L16.80,95.89 L17.41,99.31 L18.18,102.66 L19.12,105.95 L20.21,109.17 L21.45,112.32 L22.84,115.39 L24.37,118.38 L26.04,121.29 L27.84,124.10 L31.83,129.44 L36.31,134.36 L41.23,138.83 L46.57,142.83 L49.38,144.63 L52.28,146.30 L55.27,147.83 L58.35,149.22 L61.49,150.46 L64.72,151.55 L68.01,152.48 L71.36,153.26 L74.77,153.87 L78.24,154.31 L81.77,154.58 L85.33,154.67 Z" fill="#a2a2a2" stroke="#1e1e1e" stroke-width="1" stroke-linejoin="round"/><path d="M85.33,149.33 L88.63,149.25 L91.88,149.00 L95.08,148.60 L98.23,148.03 L104.36,146.46 L110.24,144.30 L115.84,141.61 L121.12,138.40 L126.04,134.72 L130.59,130.59 L134.72,126.04 L138.40,121.12 L141.61,115.84 L144.30,110.24 L146.46,104.36 L148.03,98.23 L148.60,95.08 L149.00,91.88 L149.25,88.63 L149.33,85.33 L149.25,82.04 L149.00,78.79 L148.60,75.59 L148.03,72.44 L146.46,66.30 L144.30,60.42 L141.61,54.83 L138.40,49.55 L134.72,44.62 L130.59,40.08 L126.04,35.95 L121.12,32.26 L115.84,29.06 L110.24,26.36 L104.36,24.21 L98.23,22.63 L95.08,22.07 L91.88,21.66 L88.63,21.42 L85.33,21.33 L82.04,21.42 L78.79,21.66 L75.59,22.07 L72.44,22.63 L66.30,24.21 L60.42,26.36 L54.83,29.06 L49.55,32.26 L44.62,35.95 L40.08,40.08 L35.95,44.62 L32.26,49.55 L29.06,54.83 L26.36,60.42 L24.21,66.30 L22.63,72.44 L22.07,75.59 L21.66,78.79 L21.42,82.04 L21.33,85.33 L21.42,88.63 L21.66,91.88 L22.07,95.08 L22.63,98.23 L24.21,104.36 L26.36,110.24 L29.06,115.84 L32.26,121.12 L35.95,126.04 L40.08,130.59 L44.62,134.72 L49.55,138.40 L54.83,141.61 L60.42,144.30 L66.30,146.46 L72.44,148.03 L75.59,148.60 L78.79,149.00 L82.04,149.25 L85.33,149.33 Z" fill="#f1f1f1" stroke="#1e1e1e" stroke-width="1" stroke-linejoin="round"/><path d="M102.56,53.47 L102.85,51.71 L102.34,50.01 L101.14,48.69 L99.49,48.02 L97.72,48.13 L96.17,49.00 L95.15,50.46 L68.11,117.19 L67.79,118.97 L68.28,120.70 L69.48,122.05 L71.16,122.72 L72.95,122.60 L74.51,121.69 L75.52,120.20 L102.56,53.47 Z" fill="#45903e" stroke="#1e1e1e" stroke-width="1" stroke-linejoin="round"/><path d="M61.49,65.17 L62.36,66.47 L62.66,68.00 L62.36,69.53 L61.49,70.83 L46.99,85.33 L61.49,99.84 L62.51,101.35 L62.75,103.15 L62.16,104.88 L60.88,106.16 L59.15,106.75 L57.35,106.51 L55.84,105.49 L38.51,88.16 L37.64,86.86 L37.34,85.33 L37.64,83.80 L38.51,82.51 L55.84,65.17 L57.14,64.31 L58.67,64.00 L60.20,64.31 L61.49,65.17 L61.49,65.17 Z" fill="#45903e" stroke="#1e1e1e" stroke-width="1" stroke-linejoin="round"/><path d="M109.33,105.49 L108.47,104.20 L108.16,102.67 L108.47,101.14 L109.33,99.84 L123.84,85.33 L109.33,70.83 L108.39,69.32 L108.19,67.55 L108.78,65.87 L110.04,64.61 L111.72,64.02 L113.49,64.22 L115.00,65.17 L132.33,82.51 L133.20,83.80 L133.50,85.33 L133.20,86.86 L132.33,88.16 L115.00,105.49 L113.70,106.36 L112.17,106.67 L110.64,106.36 L109.34,105.49 L109.33,105.49 Z" fill="#45903e" stroke="#1e1e1e" stroke-width="1" stroke-linejoin="round"/></svg>