<svg xmlns="http://www.w3.org/2000/svg" viewBox="6.73 2.36 91.27 100.00"><path d="M17.45,26.18 L17.78,23.27 L18.75,20.50 L20.31,18.02 L22.38,15.95 L24.87,14.39 L27.63,13.42 L30.55,13.09 L82.91,13.09 L85.82,13.42 L88.59,14.39 L91.07,15.95 L93.14,18.02 L94.70,20.50 L95.67,23.27 L96.00,26.18 L96.00,76.36 L95.70,80.12 L94.83,83.78 L93.38,87.26 L91.42,90.47 L88.97,93.33 L86.11,95.78 L82.90,97.75 L79.42,99.19 L75.75,100.07 L72.00,100.36 L30.55,100.36 L27.63,100.04 L24.87,99.07 L22.38,97.51 L20.31,95.43 L18.75,92.95 L17.78,90.19 L17.45,87.27 L17.45,26.18 Z" fill="#f5f5f5" stroke="#1e1e1e" stroke-width="1" stroke-linejoin="round"/><path d="M17.45,26.18 L17.78,23.27 L18.75,20.50 L20.31,18.02 L22.38,15.95 L24.87,14.39 L27.63,13.42 L30.55,13.09 L82.91,13.09 L85.82,13.42 L88.59,14.39 L91.07,15.95 L93.14,18.02 L94.70,20.50 L95.67,23.27 L96.00,26.18 L96.00,76.36 L95.70,80.12 L94.83,83.78 L93.38,87.26 L91.42,90.47 L88.97,93.33 L86.11,95.78 L82.90,97.75 L79.42,99.19 L75.75,100.07 L72.00,100.36 L30.55,100.36 L27.63,100.04 L24.87,99.07 L22.38,97.51 L20.31,95.43 L18.75,92.95 L17.78,90.19 L17.45,87.27 L17.45,26.18 Z" fill="#e3e3e3" stroke="#1e1e1e" stroke-width="1" stroke-linejoin="round" opacity="0.2"/><path d="M30.55,13.09 L27.63,13.42 L24.87,14.39 L22.38,15.95 L20.31,18.02 L18.75,20.50 L17.78,23.27 L17.45,26.18 L17.45,87.27 L17.78,90.19 L18.75,92.95 L20.31,95.43 L22.38,97.51 L24.87,99.07 L27.63,100.04 L30.55,100.36 L72.00,100.36 L75.75,100.07 L79.42,99.19 L82.90,97.75 L86.11,95.78 L88.97,93.33 L91.42,90.47 L93.38,87.26 L94.83,83.78 L95.70,80.12 L96.00,76.36 L96.00,26.18 L95.67,23.27 L94.70,20.50 L93.14,18.02 L91.07,15.95 L88.59,14.39 L85.82,13.42 L82.91,13.09 L30.55,13.09 Z" fill="#a2a2a2" stroke="#1e1e1e" stroke-width="1" stroke-linejoin="round"/><path d="M82.91,17.45 L30.55,17.45 L28.29,17.75 L26.18,18.62 L24.37,20.01 L22.99,21.82 L22.12,23.92 L21.82,26.18 L21.82,87.27 L22.12,89.53 L22.99,91.64 L24.37,93.44 L26.18,94.83 L28.29,95.70 L30.55,96.00 L72.00,96.00 L75.41,95.70 L78.72,94.82 L81.82,93.37 L84.62,91.41 L87.04,88.99 L89.01,86.18 L90.45,83.08 L91.34,79.77 L91.64,76.36 L91.64,26.18 L91.34,23.92 L90.47,21.82 L89.08,20.01 L87.27,18.62 L85.17,17.75 L82.91,17.45 Z" fill="#f1f1f1" stroke="#1e1e1e" stroke-width="1" stroke-linejoin="round"/><path d="M8.73,17.45 L9.06,14.54 L10.02,11.77 L11.58,9.29 L13.66,7.22 L16.14,5.66 L18.91,4.69 L21.82,4.36 L74.18,4.36 L77.09,4.69 L79.86,5.66 L82.34,7.22 L84.42,9.29 L85.98,11.77 L86.94,14.54 L87.27,17.45 L87.27,78.55 L86.94,81.46 L85.98,84.23 L84.42,86.71 L82.34,88.78 L79.86,90.34 L77.09,91.31 L74.18,91.64 L21.82,91.64 L18.91,91.31 L16.14,90.34 L13.66,88.78 L11.58,86.71 L10.02,84.23 L9.06,81.46 L8.73,78.55 L8.73,17.45 Z" fill="#f5f5f5" stroke="#1e1e1e" stroke-width="1" stroke-linejoin="round"/><path d="M8.73,17.45 L9.06,14.54 L10.02,11.77 L11.58,9.29 L13.66,7.22 L16.14,5.66 L18.91,4.69 L21.82,4.36 L74.18,4.36 L77.09,4.69 L79.86,5.66 L82.34,7.22 L84.42,9.29 L85.98,11.77 L86.94,14.54 L87.27,17.45 L87.27,78.55 L86.94,81.46 L85.98,84.23 L84.42,86.71 L82.34,88.78 L79.86,90.34 L77.09,91.31 L74.18,91.64 L21.82,91.64 L18.91,91.31 L16.14,90.34 L13.66,88.78 L11.58,86.71 L10.02,84.23 L9.06,81.46 L8.73,78.55 L8.73,17.45 Z" fill="#e3e3e3" stroke="#1e1e1e" stroke-width="1" stroke-linejoin="round" opacity="0.2"/><path d="M21.82,4.36 L18.91,4.69 L16.14,5.66 L13.66,7.22 L11.58,9.29 L10.02,11.77 L9.06,14.54 L8.73,17.45 L8.73,78.55 L9.06,81.46 L10.02,84.23 L11.58,86.71 L13.66,88.78 L16.14,90.34 L18.91,91.31 L21.82,91.64 L74.18,91.64 L77.09,91.31 L79.86,90.34 L82.34,88.78 L84.42,86.71 L85.98,84.23 L86.94,81.46 L87.27,78.55 L87.27,17.45 L86.94,14.54 L85.98,11.77 L84.42,9.29 L82.34,7.22 L79.86,5.66 L77.09,4.69 L74.18,4.36 L21.82,4.36 Z" fill="#a2a2a2" stroke="#1e1e1e" stroke-width="1" stroke-linejoin="round"/><path d="M74.18,8.73 L21.82,8.73 L19.56,9.02 L17.45,9.90 L15.65,11.28 L14.26,13.09 L13.39,15.20 L13.09,17.45 L13.09,78.55 L13.39,80.80 L14.26,82.91 L15.65,84.72 L17.45,86.10 L19.56,86.98 L21.82,87.27 L74.18,87.27 L76.44,86.98 L78.55,86.10 L80.35,84.72 L81.74,82.91 L82.61,80.80 L82.91,78.55 L82.91,17.45 L82.61,15.20 L81.74,13.09 L80.35,11.28 L78.55,9.90 L76.44,9.02 L74.18,8.73 Z" fill="#f1f1f1" stroke="#1e1e1e" stroke-width="1" stroke-linejoin="round"/><path d="M49.13,21.91 L47.97,21.82 L46.80,21.93 L45.40,22.31 L44.16,23.07 L43.17,24.14 L42.60,25.12 L42.15,26.26 L41.83,27.55 L41.64,28.98 L41.36,34.81 L50.18,34.81 L51.27,35.11 L52.07,35.90 L52.36,36.99 L52.07,38.09 L51.27,38.88 L50.18,39.18 L41.12,39.18 L39.87,59.55 L39.87,59.57 L39.85,59.83 L39.52,63.07 L39.22,64.79 L38.77,66.50 L38.06,68.28 L37.06,69.98 L35.69,71.51 L33.91,72.82 L32.48,73.55 L31.04,73.98 L29.60,74.17 L28.19,74.14 L26.80,73.93 L25.47,73.57 L23.03,72.56 L22.19,71.81 L21.84,70.75 L22.06,69.64 L22.81,68.80 L23.87,68.44 L24.97,68.66 L26.84,69.43 L28.58,69.79 L30.18,69.70 L30.92,69.47 L31.63,69.11 L31.68,69.08 L32.71,68.33 L33.51,67.43 L34.14,66.37 L34.61,65.17 L34.97,63.80 L35.21,62.36 L35.52,59.27 L35.52,59.22 L35.52,59.21 L36.75,39.18 L28.36,39.18 L27.27,38.88 L26.47,38.09 L26.18,36.99 L26.47,35.90 L27.27,35.11 L28.36,34.81 L36.99,34.81 L37.16,31.77 L37.28,28.72 L37.53,26.82 L37.98,24.98 L38.67,23.23 L39.60,21.62 L40.89,20.13 L42.46,18.93 L44.24,18.08 L46.15,17.61 L46.18,17.61 L48.08,17.46 L49.99,17.63 L51.67,18.15 L53.22,18.95 L54.01,19.76 L54.28,20.85 L53.97,21.94 L53.16,22.73 L52.07,23.00 L50.98,22.69 L50.09,22.22 L49.13,21.91 L49.13,21.91 Z" fill="#45903e" stroke="#1e1e1e" stroke-width="1" stroke-linejoin="round"/><path d="M73.54,44.27 L74.11,45.25 L74.11,46.38 L73.54,47.36 L63.81,57.10 L65.82,60.59 L67.86,64.07 L67.99,64.29 L68.43,65.00 L68.65,65.25 L68.91,65.43 L69.12,65.45 L69.33,65.45 L69.38,65.43 L69.52,65.31 L69.64,65.16 L69.96,64.75 L70.27,64.34 L71.17,63.69 L72.27,63.56 L73.30,63.99 L73.98,64.87 L74.13,65.97 L73.73,67.00 L73.58,67.21 L72.87,68.11 L71.83,69.05 L70.92,69.52 L69.93,69.77 L68.88,69.81 L67.76,69.66 L67.50,69.59 L67.25,69.48 L65.96,68.68 L64.92,67.58 L64.56,67.04 L64.22,66.49 L64.08,66.24 L63.50,65.28 L62.04,62.80 L60.61,60.30 L51.73,69.18 L50.75,69.75 L49.62,69.75 L48.64,69.18 L48.07,68.20 L48.07,67.07 L48.64,66.09 L58.36,56.37 L56.63,53.36 L54.88,50.37 L54.43,49.55 L53.91,48.78 L53.55,48.36 L53.13,48.00 L53.11,48.01 L52.97,48.07 L51.91,49.16 L51.01,49.82 L49.91,49.95 L48.88,49.51 L48.21,48.63 L48.05,47.53 L48.45,46.50 L49.40,45.40 L50.71,44.35 L52.05,43.77 L53.51,43.66 L54.93,44.02 L55.68,44.46 L56.33,44.98 L57.36,46.11 L58.13,47.24 L58.73,48.30 L61.56,53.18 L70.46,44.27 L71.44,43.71 L72.57,43.71 L73.54,44.27 L73.54,44.27 Z" fill="#45903e" stroke="#1e1e1e" stroke-width="1" stroke-linejoin="round"/></svg>