<svg xmlns="http://www.w3.org/2000/svg" viewBox="8.42 3.33 121.73 126.67"><path d="M21.33,32.00 L21.73,28.44 L22.92,25.06 L24.82,22.02 L27.36,19.49 L30.39,17.58 L33.77,16.40 L37.33,16.00 L101.33,16.00 L104.89,16.40 L108.28,17.58 L111.31,19.49 L113.84,22.02 L115.75,25.06 L116.93,28.44 L117.33,32.00 L117.33,93.33 L116.97,97.92 L115.90,102.40 L114.14,106.65 L111.73,110.58 L108.74,114.08 L105.24,117.06 L101.32,119.47 L97.06,121.23 L92.59,122.31 L88.00,122.67 L37.33,122.67 L33.77,122.27 L30.39,121.08 L27.36,119.18 L24.82,116.64 L22.92,113.61 L21.73,110.23 L21.33,106.67 L21.33,32.00 Z" fill="#f5f5f5" stroke="#1e1e1e" stroke-width="1" stroke-linejoin="round"/><path d="M21.33,32.00 L21.73,28.44 L22.92,25.06 L24.82,22.02 L27.36,19.49 L30.39,17.58 L33.77,16.40 L37.33,16.00 L101.33,16.00 L104.89,16.40 L108.28,17.58 L111.31,19.49 L113.84,22.02 L115.75,25.06 L116.93,28.44 L117.33,32.00 L117.33,93.33 L116.97,97.92 L115.90,102.40 L114.14,106.65 L111.73,110.58 L108.74,114.08 L105.24,117.06 L101.32,119.47 L97.06,121.23 L92.59,122.31 L88.00,122.67 L37.33,122.67 L33.77,122.27 L30.39,121.08 L27.36,119.18 L24.82,116.64 L22.92,113.61 L21.73,110.23 L21.33,106.67 L21.33,32.00 Z" fill="#e3e3e3" stroke="#1e1e1e" stroke-width="1" stroke-linejoin="round" opacity="0.2"/><path d="M101.33,16.00 L104.89,16.40 L108.28,17.58 L111.31,19.49 L113.84,22.02 L115.75,25.06 L116.93,28.44 L117.33,32.00 L117.33,93.33 L116.97,97.92 L115.90,102.40 L114.14,106.65 L111.73,110.58 L108.74,114.08 L105.24,117.06 L101.32,119.47 L97.06,121.23 L92.59,122.31 L88.00,122.67 L87.56,122.67 L87.56,117.33 L88.00,117.33 L92.17,116.97 L96.21,115.89 L100.00,114.12 L103.43,111.72 L106.39,108.76 L108.78,105.33 L110.55,101.54 L111.64,97.50 L112.00,93.33 L112.00,32.00 L111.64,29.24 L110.57,26.67 L108.88,24.46 L106.67,22.76 L104.09,21.70 L101.33,21.33 L37.33,21.33 L34.57,21.70 L32.00,22.76 L29.79,24.46 L28.10,26.67 L27.03,29.24 L26.67,32.00 L26.67,106.67 L27.03,109.43 L28.10,112.00 L29.79,114.21 L32.00,115.90 L34.57,116.97 L37.33,117.33 L67.31,117.33 L67.31,122.67 L37.33,122.67 L33.77,122.27 L30.39,121.08 L27.36,119.18 L24.82,116.64 L22.92,113.61 L21.73,110.23 L21.33,106.67 L21.33,32.00 L21.73,28.44 L22.92,25.06 L24.82,22.02 L27.36,19.49 L30.39,17.58 L33.77,16.40 L37.33,16.00 L101.33,16.00 Z" fill="#a2a2a2" stroke="#1e1e1e" stroke-width="1" stroke-linejoin="round"/><path d="M10.42,21.33 L10.82,17.77 L12.00,14.39 L13.91,11.36 L16.44,8.82 L19.47,6.92 L22.86,5.73 L26.42,5.33 L90.42,5.33 L93.98,5.73 L97.36,6.92 L100.39,8.82 L102.93,11.36 L104.83,14.39 L106.01,17.77 L106.42,21.33 L106.42,96.00 L106.01,99.56 L104.83,102.94 L102.93,105.98 L100.39,108.51 L97.36,110.42 L93.98,111.60 L90.42,112.00 L26.42,112.00 L22.86,111.60 L19.47,110.42 L16.44,108.51 L13.91,105.98 L12.00,102.94 L10.82,99.56 L10.42,96.00 L10.42,21.33 Z" fill="#f5f5f5" stroke="#1e1e1e" stroke-width="1" stroke-linejoin="round"/><path d="M10.42,21.33 L10.82,17.77 L12.00,14.39 L13.91,11.36 L16.44,8.82 L19.47,6.92 L22.86,5.73 L26.42,5.33 L90.42,5.33 L93.98,5.73 L97.36,6.92 L100.39,8.82 L102.93,11.36 L104.83,14.39 L106.01,17.77 L106.42,21.33 L106.42,96.00 L106.01,99.56 L104.83,102.94 L102.93,105.98 L100.39,108.51 L97.36,110.42 L93.98,111.60 L90.42,112.00 L26.42,112.00 L22.86,111.60 L19.47,110.42 L16.44,108.51 L13.91,105.98 L12.00,102.94 L10.82,99.56 L10.42,96.00 L10.42,21.33 Z" fill="#e3e3e3" stroke="#1e1e1e" stroke-width="1" stroke-linejoin="round" opacity="0.2"/><path d="M26.67,5.33 L23.11,5.73 L19.72,6.92 L16.69,8.82 L14.16,11.36 L12.25,14.39 L11.07,17.77 L10.67,21.33 L10.67,96.00 L11.07,99.56 L12.25,102.94 L14.16,105.98 L16.69,108.51 L19.72,110.42 L23.11,111.60 L26.67,112.00 L90.67,112.00 L94.23,111.60 L97.61,110.42 L100.64,108.51 L103.18,105.98 L105.08,102.94 L106.27,99.56 L106.67,96.00 L106.67,21.33 L106.27,17.77 L105.08,14.39 L103.18,11.36 L100.64,8.82 L97.61,6.92 L94.23,5.73 L90.67,5.33 L26.67,5.33 Z" fill="#a2a2a2" stroke="#1e1e1e" stroke-width="1" stroke-linejoin="round"/><path d="M90.67,10.67 L26.67,10.67 L23.91,11.03 L21.33,12.10 L19.12,13.79 L17.43,16.00 L16.36,18.57 L16.00,21.33 L16.00,96.00 L16.36,98.76 L17.43,101.33 L19.12,103.54 L21.33,105.24 L23.91,106.30 L26.67,106.67 L90.67,106.67 L93.43,106.30 L96.00,105.24 L98.21,103.54 L99.90,101.33 L100.97,98.76 L101.33,96.00 L101.33,21.33 L100.97,18.57 L99.90,16.00 L98.21,13.79 L96.00,12.10 L93.43,11.03 L90.67,10.67 Z" fill="#f1f1f1" stroke="#1e1e1e" stroke-width="1" stroke-linejoin="round"/><path d="M38.81,26.67 L40.34,26.97 L41.63,27.84 L42.50,29.14 L42.81,30.67 L42.81,86.67 L42.41,88.40 L41.30,89.79 L39.70,90.57 L37.92,90.57 L36.31,89.79 L35.20,88.40 L34.81,86.67 L34.81,30.67 L35.11,29.14 L35.98,27.84 L37.27,26.97 L38.81,26.67 Z" fill="#b57400" stroke="#b57400" stroke-width="1" stroke-linejoin="round"/><path d="M58.81,42.67 L60.34,42.97 L61.63,43.84 L62.50,45.14 L62.81,46.67 L62.81,86.67 L62.41,88.40 L61.30,89.79 L59.70,90.57 L57.92,90.57 L56.31,89.79 L55.20,88.40 L54.81,86.67 L54.81,46.67 L55.11,45.14 L55.98,43.84 L57.27,42.97 L58.81,42.67 Z" fill="#b57400" stroke="#b57400" stroke-width="1" stroke-linejoin="round"/><path d="M78.81,60.00 L80.34,60.30 L81.63,61.17 L82.50,62.47 L82.81,64.00 L82.81,86.67 L82.41,88.40 L81.30,89.79 L79.70,90.57 L77.92,90.57 L76.31,89.79 L75.20,88.40 L74.81,86.67 L74.81,64.00 L75.11,62.47 L75.98,61.17 L77.27,60.30 L78.81,60.00 Z" fill="#b57400" stroke="#b57400" stroke-width="1" stroke-linejoin="round"/><path d="M73.67,90.67 L75.97,90.87 L78.14,91.44 L80.15,92.36 L81.96,93.58 L83.70,92.01 L85.82,91.01 L88.14,90.67 L94.81,90.67 L97.82,91.01 L100.68,92.03 L103.23,93.67 L104.98,92.06 L107.12,91.02 L109.47,90.67 L110.30,90.71 L112.57,91.29 L114.57,92.50 L116.13,94.24 L117.13,96.35 L117.47,98.67 L117.47,112.00 L120.14,112.00 L122.62,112.39 L124.85,113.53 L126.62,115.30 L127.75,117.53 L128.14,120.00 L127.75,122.47 L126.62,124.70 L124.85,126.47 L122.62,127.61 L120.14,128.00 L109.48,128.00 L107.64,127.79 L105.95,127.18 L104.47,126.24 L103.23,124.99 L101.67,126.09 L99.96,126.96 L98.12,127.58 L96.17,127.93 L94.81,128.00 L88.14,128.00 L87.00,127.92 L85.92,127.68 L83.94,126.80 L81.94,127.69 L79.77,128.00 L79.76,128.00 L77.28,127.62 L75.02,126.52 L73.18,124.81 L71.43,126.52 L69.23,127.62 L66.81,128.00 L64.34,127.61 L62.10,126.48 L60.33,124.71 L59.19,122.47 L58.80,120.00 L58.80,98.67 L59.19,96.19 L60.33,93.96 L62.10,92.19 L64.33,91.06 L66.81,90.67 L73.67,90.67 Z" fill="#f5f5f5" stroke="#1e1e1e" stroke-width="1" stroke-linejoin="round"/><path d="M73.67,96.00 L76.15,96.38 L78.38,97.52 L80.16,99.29 L81.30,101.52 L81.68,104.00 L81.29,106.48 L80.14,108.71 L78.36,110.47 L79.34,112.12 L80.05,113.69 L81.31,117.51 L81.46,117.96 L82.23,119.00 L82.41,120.28 L81.98,121.49 L81.02,122.36 L79.76,122.67 L78.65,122.45 L77.69,121.85 L77.25,121.37 L76.90,120.82 L76.53,120.00 L76.23,119.15 L75.08,115.64 L74.41,114.18 L73.69,113.11 L72.88,112.41 L71.96,112.05 L71.38,112.00 L69.47,112.00 L69.47,120.00 L69.11,121.33 L68.14,122.31 L66.81,122.67 L65.47,122.31 L64.50,121.33 L64.14,120.00 L64.14,98.67 L64.50,97.33 L65.47,96.36 L66.81,96.00 L73.67,96.00 Z" fill="#b57400" stroke="#b57400" stroke-width="1" stroke-linejoin="round"/><path d="M69.47,106.67 L73.67,106.67 L75.00,106.31 L75.98,105.33 L76.34,104.00 L75.98,102.67 L75.00,101.69 L73.67,101.33 L69.47,101.33 L69.47,106.67 Z" fill="#f5f5f5" stroke="#f5f5f5" stroke-width="1" stroke-linejoin="round"/><path d="M94.81,96.00 L97.28,96.39 L99.51,97.53 L101.28,99.30 L102.41,101.53 L102.81,104.00 L102.81,114.67 L102.41,117.14 L101.28,119.37 L99.51,121.14 L97.28,122.28 L94.81,122.67 L88.14,122.67 L86.81,122.31 L85.83,121.33 L85.47,120.00 L85.47,98.67 L85.83,97.33 L86.81,96.36 L88.14,96.00 L94.81,96.00 Z" fill="#b57400" stroke="#b57400" stroke-width="1" stroke-linejoin="round"/><path d="M90.81,117.33 L94.81,117.33 L96.14,116.98 L97.11,116.00 L97.47,114.67 L97.47,104.00 L97.11,102.67 L96.14,101.69 L94.81,101.33 L90.81,101.33 L90.81,117.33 Z" fill="#f5f5f5" stroke="#f5f5f5" stroke-width="1" stroke-linejoin="round"/><path d="M109.47,96.00 L110.81,96.36 L111.78,97.33 L112.14,98.67 L112.14,117.33 L120.14,117.33 L121.47,117.69 L122.45,118.67 L122.81,120.00 L122.45,121.33 L121.47,122.31 L120.14,122.67 L109.47,122.67 L108.14,122.31 L107.16,121.33 L106.81,120.00 L106.81,98.67 L107.16,97.33 L108.14,96.36 L109.47,96.00 Z" fill="#b57400" stroke="#b57400" stroke-width="1" stroke-linejoin="round"/></svg>