<svg xmlns="http://www.w3.org/2000/svg" viewBox="19.33 62.00 302.67 217.33"><path d="M156.44,85.33 L143.45,72.34 L141.36,70.45 L139.11,68.78 L136.73,67.35 L134.22,66.17 L131.60,65.23 L128.91,64.55 L126.14,64.14 L123.33,64.00 L39.11,64.00 L35.65,64.34 L32.31,65.35 L29.24,66.99 L26.54,69.20 L24.33,71.90 L22.69,74.97 L21.68,78.31 L21.33,81.78 L21.33,259.56 L21.67,263.03 L22.69,266.36 L24.33,269.43 L26.54,272.13 L29.23,274.34 L32.31,275.98 L35.64,276.99 L39.11,277.33 L302.22,277.33 L305.69,276.99 L309.03,275.98 L312.10,274.34 L314.79,272.13 L317.00,269.43 L318.65,266.36 L319.66,263.03 L320.00,259.56 L320.00,103.11 L319.66,99.64 L318.65,96.31 L317.00,93.23 L314.79,90.54 L312.10,88.33 L309.03,86.69 L305.69,85.67 L302.22,85.33 L156.44,85.33 Z" fill="#ffb900" stroke="#1e1e1e" stroke-width="1" stroke-linejoin="round"/><path d="M156.44,85.33 L142.40,99.38 L139.43,101.91 L136.10,103.95 L132.49,105.45 L128.69,106.36 L124.80,106.67 L21.33,106.67 L21.33,259.56 L21.67,263.03 L22.69,266.36 L24.33,269.43 L26.54,272.13 L29.23,274.34 L32.31,275.98 L35.64,276.99 L39.11,277.33 L302.22,277.33 L305.69,276.99 L309.03,275.98 L312.10,274.34 L314.79,272.13 L317.00,269.43 L318.65,266.36 L319.66,263.03 L320.00,259.56 L320.00,103.11 L319.66,99.64 L318.65,96.31 L317.00,93.23 L314.79,90.54 L312.10,88.33 L309.03,86.69 L305.69,85.67 L302.22,85.33 L156.44,85.33 Z" fill="#ffd75e" stroke="#1e1e1e" stroke-width="1" stroke-linejoin="round"/><path d="M156.44,85.33 L143.45,98.33 L141.36,100.22 L139.11,101.88 L136.73,103.31 L134.22,104.50 L131.60,105.44 L128.91,106.11 L126.14,106.53 L123.33,106.67 L21.33,106.67 L21.33,259.56 L21.67,263.03 L22.69,266.36 L24.33,269.43 L26.54,272.13 L29.23,274.34 L32.31,275.98 L35.64,276.99 L39.11,277.33 L302.22,277.33 L305.69,276.99 L309.03,275.98 L312.10,274.34 L314.79,272.13 L317.00,269.43 L318.65,266.36 L319.66,263.03 L320.00,259.56 L320.00,103.11 L319.66,99.64 L318.65,96.31 L317.00,93.23 L314.79,90.54 L312.10,88.33 L309.03,86.69 L305.69,85.67 L302.22,85.33 L156.44,85.33 Z" fill="#ffebae" stroke="#1e1e1e" stroke-width="1" stroke-linejoin="round"/><path d="M21.33,254.22 L21.33,259.55 L21.67,263.02 L22.68,266.36 L24.33,269.43 L26.54,272.12 L29.23,274.34 L32.31,275.98 L35.64,276.99 L39.11,277.33 L302.22,277.33 L305.69,276.99 L309.03,275.98 L312.10,274.34 L314.80,272.12 L317.01,269.43 L318.65,266.36 L319.66,263.02 L320.00,259.55 L320.00,254.22 L319.66,257.69 L318.65,261.02 L317.01,264.10 L314.80,266.79 L312.10,269.00 L309.03,270.65 L305.69,271.66 L302.22,272.00 L39.11,272.00 L35.64,271.66 L32.31,270.65 L29.23,269.00 L26.54,266.79 L24.33,264.10 L22.68,261.02 L21.67,257.69 L21.33,254.22 Z" fill="#bf5712" stroke="#1e1e1e" stroke-width="1" stroke-linejoin="round"/><path d="M164.01,85.33 L145.66,103.57 L142.17,106.50 L138.28,108.86 L134.06,110.59 L129.63,111.65 L125.08,112.00 L21.33,112.00 L21.33,106.67 L125.08,106.67 L128.80,106.38 L132.43,105.51 L135.88,104.10 L139.06,102.17 L141.91,99.77 L156.48,85.33 L164.00,85.33 L164.01,85.33 Z" fill="#ffffff" stroke="#1e1e1e" stroke-width="1" stroke-linejoin="round" opacity="0.4"/></svg>