<svg xmlns="http://www.w3.org/2000/svg" viewBox="8.67 8.67 110.67 110.67"><path d="M10.67,26.67 L11.07,23.11 L12.25,19.72 L14.16,16.69 L16.69,14.16 L19.72,12.25 L23.11,11.07 L26.67,10.67 L101.33,10.67 L104.89,11.07 L108.28,12.25 L111.31,14.16 L113.84,16.69 L115.75,19.72 L116.93,23.11 L117.33,26.67 L117.33,101.33 L116.93,104.89 L115.75,108.28 L113.84,111.31 L111.31,113.84 L108.28,115.75 L104.89,116.93 L101.33,117.33 L26.67,117.33 L23.11,116.93 L19.72,115.75 L16.69,113.84 L14.16,111.31 L12.25,108.28 L11.07,104.89 L10.67,101.33 L10.67,26.67 Z" fill="#f5f5f5" stroke="#1e1e1e" stroke-width="1" stroke-linejoin="round"/><path d="M10.67,26.67 L11.07,23.11 L12.25,19.72 L14.16,16.69 L16.69,14.16 L19.72,12.25 L23.11,11.07 L26.67,10.67 L101.33,10.67 L104.89,11.07 L108.28,12.25 L111.31,14.16 L113.84,16.69 L115.75,19.72 L116.93,23.11 L117.33,26.67 L117.33,101.33 L116.93,104.89 L115.75,108.28 L113.84,111.31 L111.31,113.84 L108.28,115.75 L104.89,116.93 L101.33,117.33 L26.67,117.33 L23.11,116.93 L19.72,115.75 L16.69,113.84 L14.16,111.31 L12.25,108.28 L11.07,104.89 L10.67,101.33 L10.67,26.67 Z" fill="#e3e3e3" stroke="#1e1e1e" stroke-width="1" stroke-linejoin="round" opacity="0.2"/><path d="M26.67,10.67 L23.11,11.07 L19.72,12.25 L16.69,14.16 L14.16,16.69 L12.25,19.72 L11.07,23.11 L10.67,26.67 L10.67,101.33 L11.07,104.89 L12.25,108.28 L14.16,111.31 L16.69,113.84 L19.72,115.75 L23.11,116.93 L26.67,117.33 L101.33,117.33 L104.89,116.93 L108.28,115.75 L111.31,113.84 L113.84,111.31 L115.75,108.28 L116.93,104.89 L117.33,101.33 L117.33,26.67 L116.93,23.11 L115.75,19.72 L113.84,16.69 L111.31,14.16 L108.28,12.25 L104.89,11.07 L101.33,10.67 L26.67,10.67 Z" fill="#a2a2a2" stroke="#1e1e1e" stroke-width="1" stroke-linejoin="round"/><path d="M101.33,16.00 L26.67,16.00 L23.91,16.36 L21.33,17.43 L19.12,19.12 L17.43,21.33 L16.36,23.91 L16.00,26.67 L16.00,101.33 L16.36,104.09 L17.43,106.67 L19.12,108.88 L21.33,110.57 L23.91,111.64 L26.67,112.00 L101.33,112.00 L104.09,111.64 L106.67,110.57 L108.88,108.88 L110.57,106.67 L111.64,104.09 L112.00,101.33 L112.00,26.67 L111.64,23.91 L110.57,21.33 L108.88,19.12 L106.67,17.43 L104.09,16.36 L101.33,16.00 Z" fill="#f1f1f1" stroke="#1e1e1e" stroke-width="1" stroke-linejoin="round"/><path d="M58.20,93.35 L58.85,93.64 L58.97,93.69 L59.59,93.94 L60.25,94.12 L62.65,94.57 L65.09,94.58 L67.49,94.14 L68.22,93.97 L68.91,93.69 L69.51,93.40 L69.67,93.33 L85.59,85.70 L88.13,84.11 L90.25,82.00 L91.84,79.47 L92.83,76.65 L93.17,73.67 L93.17,51.82 L92.87,49.67 L92.01,47.68 L90.65,45.99 L88.88,44.73 L70.11,34.90 L67.11,33.76 L63.94,33.37 L60.76,33.75 L57.77,34.87 L38.81,44.73 L37.04,45.99 L35.66,47.67 L34.80,49.67 L34.50,51.82 L34.50,73.68 L34.84,76.66 L35.84,79.49 L37.44,82.03 L39.57,84.14 L42.12,85.73 L58.20,93.35 Z" fill="#45903e" stroke="#1e1e1e" stroke-width="1" stroke-linejoin="round"/><path d="M61.00,88.75 L61.27,88.85 L61.27,69.71 L60.85,66.75 L59.63,64.02 L57.70,61.75 L55.21,60.09 L40.04,52.82 L40.04,73.67 L40.36,75.89 L41.27,77.94 L42.72,79.65 L44.59,80.89 L61.00,88.75 Z" fill="#f1f1f1" stroke="#1e1e1e" stroke-width="1" stroke-linejoin="round"/><path d="M66.60,88.84 L67.24,88.57 L83.29,80.89 L85.16,79.65 L86.60,77.94 L87.52,75.89 L87.83,73.67 L87.83,52.82 L72.66,60.09 L70.17,61.75 L68.24,64.02 L67.02,66.75 L66.60,69.71 L66.60,88.84 Z" fill="#f1f1f1" stroke="#1e1e1e" stroke-width="1" stroke-linejoin="round"/></svg>