<svg xmlns="http://www.w3.org/2000/svg" viewBox="8.67 8.67 121.39 121.33"><path d="M10.67,26.67 L11.07,23.11 L12.25,19.72 L14.16,16.69 L16.69,14.16 L19.72,12.25 L23.11,11.07 L26.67,10.67 L101.33,10.67 L104.89,11.07 L108.28,12.25 L111.31,14.16 L113.84,16.69 L115.75,19.72 L116.93,23.11 L117.33,26.67 L117.33,101.33 L116.93,104.89 L115.75,108.28 L113.84,111.31 L111.31,113.84 L108.28,115.75 L104.89,116.93 L101.33,117.33 L26.67,117.33 L23.11,116.93 L19.72,115.75 L16.69,113.84 L14.16,111.31 L12.25,108.28 L11.07,104.89 L10.67,101.33 L10.67,26.67 Z" fill="#f5f5f5" stroke="#1e1e1e" stroke-width="1" stroke-linejoin="round"/><path d="M10.67,26.67 L11.07,23.11 L12.25,19.72 L14.16,16.69 L16.69,14.16 L19.72,12.25 L23.11,11.07 L26.67,10.67 L101.33,10.67 L104.89,11.07 L108.28,12.25 L111.31,14.16 L113.84,16.69 L115.75,19.72 L116.93,23.11 L117.33,26.67 L117.33,101.33 L116.93,104.89 L115.75,108.28 L113.84,111.31 L111.31,113.84 L108.28,115.75 L104.89,116.93 L101.33,117.33 L26.67,117.33 L23.11,116.93 L19.72,115.75 L16.69,113.84 L14.16,111.31 L12.25,108.28 L11.07,104.89 L10.67,101.33 L10.67,26.67 Z" fill="#e3e3e3" stroke="#1e1e1e" stroke-width="1" stroke-linejoin="round" opacity="0.2"/><path d="M26.67,10.67 L23.11,11.07 L19.72,12.25 L16.69,14.16 L14.16,16.69 L12.25,19.72 L11.07,23.11 L10.67,26.67 L10.67,101.33 L11.07,104.89 L12.25,108.28 L14.16,111.31 L16.69,113.84 L19.72,115.75 L23.11,116.93 L26.67,117.33 L101.33,117.33 L104.89,116.93 L108.28,115.75 L111.31,113.84 L113.84,111.31 L115.75,108.28 L116.93,104.89 L117.33,101.33 L117.33,26.67 L116.93,23.11 L115.75,19.72 L113.84,16.69 L111.31,14.16 L108.28,12.25 L104.89,11.07 L101.33,10.67 L26.67,10.67 Z" fill="#a2a2a2" stroke="#1e1e1e" stroke-width="1" stroke-linejoin="round"/><path d="M101.33,16.00 L26.67,16.00 L23.91,16.36 L21.33,17.43 L19.12,19.12 L17.43,21.33 L16.36,23.91 L16.00,26.67 L16.00,101.33 L16.36,104.09 L17.43,106.67 L19.12,108.88 L21.33,110.57 L23.91,111.64 L26.67,112.00 L101.33,112.00 L104.09,111.64 L106.67,110.57 L108.88,108.88 L110.57,106.67 L111.64,104.09 L112.00,101.33 L112.00,26.67 L111.64,23.91 L110.57,21.33 L108.88,19.12 L106.67,17.43 L104.09,16.36 L101.33,16.00 Z" fill="#f1f1f1" stroke="#1e1e1e" stroke-width="1" stroke-linejoin="round"/><path d="M64.00,58.67 L68.69,58.49 L73.14,57.97 L77.26,57.13 L80.96,55.98 L83.19,55.03 L85.29,53.87 L85.33,84.00 L85.19,85.50 L84.76,86.89 L84.10,88.18 L83.24,89.36 L82.20,90.43 L81.03,91.39 L78.40,92.99 L75.32,94.26 L71.84,95.21 L68.05,95.80 L64.03,96.00 L60.01,95.80 L56.22,95.21 L52.74,94.26 L49.66,92.99 L47.03,91.39 L45.86,90.43 L44.82,89.36 L43.95,88.18 L43.29,86.89 L42.87,85.50 L42.73,84.00 L42.68,53.85 L44.80,55.02 L47.05,55.98 L50.74,57.13 L54.87,57.97 L59.32,58.49 L64.01,58.67 L64.00,58.67 Z" fill="#0077bd" stroke="#1e1e1e" stroke-width="1" stroke-linejoin="round"/><path d="M42.71,45.88 L42.95,46.65 L43.38,47.40 L44.77,48.80 L46.80,50.07 L49.40,51.17 L52.50,52.07 L56.01,52.75 L59.87,53.18 L63.99,53.33 L68.20,53.18 L72.12,52.73 L75.68,52.03 L78.81,51.09 L81.41,49.96 L83.42,48.65 L84.75,47.20 L85.13,46.43 L85.32,45.64 L85.33,45.33 L85.22,44.52 L84.90,43.72 L84.37,42.96 L83.66,42.22 L81.69,40.86 L79.09,39.68 L75.93,38.70 L72.31,37.96 L68.31,37.50 L64.01,37.33 L59.72,37.50 L55.72,37.96 L52.11,38.70 L48.96,39.68 L46.36,40.86 L44.39,42.22 L43.68,42.96 L43.15,43.72 L42.83,44.52 L42.72,45.33 L42.74,45.64 L42.78,45.94 L42.71,45.88 Z" fill="#0077bd" stroke="#1e1e1e" stroke-width="1" stroke-linejoin="round"/><path d="M120.00,112.00 L117.33,112.00 L117.33,98.67 L117.17,97.05 L116.71,95.55 L115.97,94.19 L114.99,93.01 L113.81,92.03 L112.45,91.29 L110.95,90.83 L109.33,90.67 L108.14,90.75 L107.00,91.01 L105.93,91.42 L104.94,91.98 L103.25,93.48 L102.57,94.40 L102.03,95.41 L99.58,93.40 L96.83,91.93 L93.86,91.03 L90.72,90.72 L87.85,90.98 L85.11,91.73 L82.54,92.97 L80.21,94.67 L79.63,94.13 L77.28,92.62 L74.74,91.51 L72.07,90.84 L69.33,90.61 L67.68,90.61 L65.64,90.79 L63.68,91.20 L61.12,92.27 L58.82,93.82 L56.87,95.80 L55.36,98.13 L54.35,100.72 L53.87,103.47 L53.87,104.00 L54.05,106.16 L54.61,108.20 L55.53,110.10 L56.80,111.84 L56.20,112.36 L55.68,112.96 L54.79,114.31 L54.20,115.77 L53.92,117.29 L53.92,118.83 L54.21,120.33 L54.79,121.77 L55.66,123.07 L56.80,124.21 L59.19,125.84 L61.82,127.03 L64.62,127.75 L67.52,128.00 L68.43,128.00 L70.83,127.84 L73.06,127.37 L75.12,126.60 L77.01,125.55 L78.32,124.53 L79.47,123.36 L81.91,125.34 L84.63,126.80 L87.59,127.70 L90.72,128.00 L92.35,127.92 L93.95,127.68 L95.50,127.28 L97.01,126.72 L98.01,127.28 L99.08,127.68 L100.21,127.92 L101.39,128.00 L103.45,127.73 L105.39,126.93 L107.29,127.73 L109.39,128.00 L120.05,128.00 L121.67,127.84 L123.17,127.37 L124.53,126.64 L125.71,125.66 L126.69,124.48 L127.43,123.12 L127.89,121.61 L128.05,120.00 L127.89,118.39 L127.43,116.88 L126.69,115.52 L125.71,114.34 L124.53,113.36 L123.17,112.63 L121.67,112.16 L120.05,112.00 L120.00,112.00 Z" fill="#f5f5f5" stroke="#1e1e1e" stroke-width="1" stroke-linejoin="round"/><path d="M76.29,98.31 L73.83,96.87 L71.09,96.08 L68.24,95.99 L65.60,96.21 L63.16,97.24 L61.16,98.97 L59.80,101.24 L59.21,103.82 L59.20,103.91 L59.20,104.00 L59.29,105.10 L59.53,106.10 L60.39,107.79 L61.58,109.10 L62.89,110.06 L65.38,111.23 L67.42,111.87 L67.54,111.90 L67.87,111.99 L69.41,112.46 L70.75,113.07 L71.54,113.77 L71.78,114.67 L71.70,115.53 L71.50,116.12 L70.97,116.73 L69.88,117.17 L68.27,117.33 L68.15,117.33 L68.04,117.34 L66.44,117.28 L64.91,116.80 L63.55,115.96 L62.29,115.37 L60.90,115.50 L59.77,116.31 L59.20,117.58 L59.35,118.96 L60.18,120.09 L62.66,121.64 L65.45,122.52 L68.38,122.67 L69.72,122.59 L71.15,122.35 L72.59,121.88 L73.97,121.14 L75.30,119.96 L76.29,118.48 L76.90,116.71 L77.11,114.67 L77.03,113.56 L76.81,112.55 L76.00,110.84 L74.85,109.51 L73.53,108.51 L71.23,107.45 L69.30,106.86 L68.99,106.77 L67.28,106.24 L65.66,105.50 L64.78,104.76 L64.53,104.09 L65.11,102.58 L66.37,101.56 L67.96,101.32 L68.28,101.35 L68.59,101.32 L70.16,101.33 L71.68,101.75 L73.03,102.54 L74.30,103.03 L75.64,102.83 L76.71,102.01 L77.24,100.76 L77.09,99.42 L76.29,98.32 L76.29,98.31 Z" fill="#0077bd" stroke="#1e1e1e" stroke-width="1" stroke-linejoin="round"/><path d="M90.67,96.00 L87.91,96.36 L85.33,97.43 L83.12,99.12 L81.43,101.33 L80.36,103.91 L80.00,106.67 L80.00,112.00 L80.42,114.96 L81.64,117.68 L83.56,119.96 L86.05,121.62 L88.89,122.52 L91.88,122.60 L94.76,121.85 L97.33,120.33 L99.73,122.13 L101.01,122.65 L102.38,122.45 L103.47,121.60 L103.98,120.32 L103.79,118.95 L102.93,117.87 L100.53,116.06 L101.13,114.07 L101.33,112.00 L101.33,106.67 L100.97,103.91 L99.90,101.33 L98.21,99.12 L96.00,97.43 L93.43,96.36 L90.67,96.00 Z" fill="#0077bd" stroke="#0077bd" stroke-width="1" stroke-linejoin="round"/><path d="M92.27,109.87 L95.96,112.64 L95.99,112.32 L96.00,112.00 L96.00,106.67 L95.59,104.63 L94.44,102.90 L92.71,101.74 L90.67,101.33 L88.63,101.74 L86.90,102.90 L85.74,104.63 L85.33,106.67 L85.33,112.00 L85.74,114.05 L86.91,115.79 L88.66,116.94 L90.71,117.34 L92.76,116.91 L89.07,114.13 L88.21,113.05 L88.02,111.68 L88.53,110.40 L89.62,109.55 L90.99,109.35 L92.27,109.87" fill="none" stroke="#f5f5f5" stroke-width="1" stroke-linejoin="round"/><path d="M111.98,98.67 L111.62,97.33 L110.65,96.36 L109.31,96.00 L107.98,96.36 L107.00,97.33 L106.65,98.67 L106.65,120.00 L107.00,121.33 L107.98,122.31 L109.31,122.67 L119.98,122.67 L121.31,122.31 L122.29,121.33 L122.65,120.00 L122.29,118.67 L121.31,117.69 L119.98,117.33 L111.98,117.33 L111.98,98.67 Z" fill="#0077bd" stroke="#1e1e1e" stroke-width="1" stroke-linejoin="round"/></svg>