<svg xmlns="http://www.w3.org/2000/svg" viewBox="7.60 7.60 100.00 100.00"><path d="M9.60,24.00 L9.96,20.80 L11.03,17.75 L12.74,15.02 L15.02,12.74 L17.75,11.03 L20.80,9.96 L24.00,9.60 L91.20,9.60 L94.40,9.96 L97.45,11.03 L100.18,12.74 L102.46,15.02 L104.17,17.75 L105.24,20.80 L105.60,24.00 L105.60,91.20 L105.24,94.40 L104.17,97.45 L102.46,100.18 L100.18,102.46 L97.45,104.17 L94.40,105.24 L91.20,105.60 L24.00,105.60 L20.80,105.24 L17.75,104.17 L15.02,102.46 L12.74,100.18 L11.03,97.45 L9.96,94.40 L9.60,91.20 L9.60,24.00 Z" fill="#f5f5f5" stroke="#1e1e1e" stroke-width="1" stroke-linejoin="round"/><path d="M9.60,24.00 L9.96,20.80 L11.03,17.75 L12.74,15.02 L15.02,12.74 L17.75,11.03 L20.80,9.96 L24.00,9.60 L91.20,9.60 L94.40,9.96 L97.45,11.03 L100.18,12.74 L102.46,15.02 L104.17,17.75 L105.24,20.80 L105.60,24.00 L105.60,91.20 L105.24,94.40 L104.17,97.45 L102.46,100.18 L100.18,102.46 L97.45,104.17 L94.40,105.24 L91.20,105.60 L24.00,105.60 L20.80,105.24 L17.75,104.17 L15.02,102.46 L12.74,100.18 L11.03,97.45 L9.96,94.40 L9.60,91.20 L9.60,24.00 Z" fill="#e3e3e3" stroke="#1e1e1e" stroke-width="1" stroke-linejoin="round" opacity="0.2"/><path d="M24.00,9.60 L20.80,9.96 L17.75,11.03 L15.02,12.74 L12.74,15.02 L11.03,17.75 L9.96,20.80 L9.60,24.00 L9.60,91.20 L9.96,94.40 L11.03,97.45 L12.74,100.18 L15.02,102.46 L17.75,104.17 L20.80,105.24 L24.00,105.60 L91.20,105.60 L94.40,105.24 L97.45,104.17 L100.18,102.46 L102.46,100.18 L104.17,97.45 L105.24,94.40 L105.60,91.20 L105.60,24.00 L105.24,20.80 L104.17,17.75 L102.46,15.02 L100.18,12.74 L97.45,11.03 L94.40,9.96 L91.20,9.60 L24.00,9.60 Z" fill="#a2a2a2" stroke="#1e1e1e" stroke-width="1" stroke-linejoin="round"/><path d="M91.20,14.40 L24.00,14.40 L21.52,14.73 L19.20,15.69 L17.21,17.21 L15.69,19.20 L14.73,21.52 L14.40,24.00 L14.40,91.20 L14.73,93.68 L15.69,96.00 L17.21,97.99 L19.20,99.51 L21.52,100.47 L24.00,100.80 L91.20,100.80 L93.68,100.47 L96.00,99.51 L97.99,97.99 L99.51,96.00 L100.47,93.68 L100.80,91.20 L100.80,24.00 L100.47,21.52 L99.51,19.20 L97.99,17.21 L96.00,15.69 L93.68,14.73 L91.20,14.40 Z" fill="#f1f1f1" stroke="#1e1e1e" stroke-width="1" stroke-linejoin="round"/><path d="M58.84,28.90 L57.56,28.80 L56.28,28.92 L54.74,29.34 L53.38,30.17 L52.29,31.35 L51.66,32.43 L51.17,33.69 L50.81,35.11 L50.60,36.68 L50.29,43.09 L60.00,43.09 L61.20,43.42 L62.08,44.29 L62.40,45.49 L62.08,46.69 L61.20,47.57 L60.00,47.89 L50.03,47.89 L49.38,59.10 L48.66,70.31 L48.66,70.33 L48.64,70.61 L48.27,74.18 L47.94,76.07 L47.45,77.95 L46.67,79.91 L45.56,81.77 L44.06,83.47 L42.10,84.91 L40.53,85.71 L38.94,86.19 L37.36,86.39 L35.80,86.35 L34.28,86.12 L32.82,85.73 L30.13,84.62 L29.19,83.80 L28.79,82.62 L29.04,81.39 L29.86,80.46 L31.05,80.07 L32.27,80.32 L34.33,81.17 L36.24,81.57 L38.00,81.47 L38.81,81.22 L39.59,80.82 L39.65,80.78 L40.78,79.96 L41.66,78.97 L42.35,77.81 L42.87,76.48 L43.27,74.98 L43.53,73.40 L43.87,69.99 L43.88,69.95 L43.88,69.94 L45.22,47.89 L36.00,47.89 L34.80,47.57 L33.92,46.69 L33.60,45.49 L33.92,44.29 L34.80,43.42 L36.00,43.09 L45.49,43.09 L45.67,39.74 L45.81,36.39 L46.08,34.31 L46.58,32.28 L47.33,30.36 L48.36,28.58 L49.78,26.94 L51.50,25.62 L53.46,24.69 L55.56,24.17 L55.59,24.17 L57.69,24.00 L59.78,24.19 L61.64,24.77 L63.35,25.64 L64.21,26.53 L64.51,27.74 L64.17,28.93 L63.28,29.80 L62.07,30.10 L60.88,29.76 L59.90,29.24 L58.84,28.90 L58.84,28.90 Z" fill="#45903e" stroke="#1e1e1e" stroke-width="1" stroke-linejoin="round"/><path d="M85.70,53.50 L86.32,54.58 L86.32,55.82 L85.70,56.90 L74.99,67.61 L77.20,71.45 L79.44,75.27 L79.58,75.51 L80.08,76.30 L80.31,76.57 L80.61,76.78 L80.83,76.80 L81.06,76.79 L81.12,76.78 L81.27,76.64 L81.41,76.48 L81.76,76.03 L82.10,75.58 L83.09,74.85 L84.30,74.71 L85.43,75.19 L86.17,76.15 L86.35,77.37 L85.90,78.50 L85.73,78.73 L84.95,79.72 L83.81,80.75 L82.81,81.27 L81.73,81.54 L80.57,81.59 L79.34,81.42 L79.05,81.34 L78.78,81.23 L77.36,80.35 L76.21,79.14 L75.81,78.55 L75.44,77.94 L75.28,77.67 L73.36,74.41 L71.47,71.12 L61.70,80.90 L60.62,81.52 L59.38,81.52 L58.30,80.90 L57.68,79.83 L57.68,78.58 L58.30,77.51 L69.00,66.81 L67.10,63.50 L65.17,60.20 L64.67,59.30 L64.10,58.45 L63.70,58.00 L63.24,57.60 L63.22,57.61 L63.07,57.69 L62.43,58.23 L61.90,58.88 L60.91,59.60 L59.70,59.74 L58.57,59.27 L57.83,58.30 L57.65,57.09 L58.10,55.95 L59.14,54.74 L60.58,53.58 L62.06,52.95 L63.66,52.83 L65.22,53.22 L66.04,53.71 L66.76,54.28 L67.90,55.53 L68.74,56.76 L69.40,57.93 L72.51,63.29 L82.31,53.50 L83.38,52.88 L84.62,52.88 L85.70,53.50 L85.70,53.50 Z" fill="#45903e" stroke="#1e1e1e" stroke-width="1" stroke-linejoin="round"/></svg>