<svg xmlns="http://www.w3.org/2000/svg" viewBox="8.67 8.67 121.33 121.33"><path d="M10.67,26.67 L11.07,23.11 L12.25,19.72 L14.16,16.69 L16.69,14.16 L19.72,12.25 L23.11,11.07 L26.67,10.67 L101.33,10.67 L104.89,11.07 L108.28,12.25 L111.31,14.16 L113.84,16.69 L115.75,19.72 L116.93,23.11 L117.33,26.67 L117.33,85.83 L117.01,89.72 L116.08,94.48 L114.60,99.68 L112.65,104.90 L111.51,107.37 L110.28,109.70 L108.96,111.81 L107.56,113.65 L106.09,115.18 L104.56,116.34 L102.97,117.08 L101.33,117.33 L26.67,117.33 L23.11,116.93 L19.72,115.75 L16.69,113.84 L14.16,111.31 L12.25,108.28 L11.07,104.89 L10.67,101.33 L10.67,26.67 Z" fill="#f5f5f5" stroke="#1e1e1e" stroke-width="1" stroke-linejoin="round"/><path d="M10.67,26.67 L11.07,23.11 L12.25,19.72 L14.16,16.69 L16.69,14.16 L19.72,12.25 L23.11,11.07 L26.67,10.67 L101.33,10.67 L104.89,11.07 L108.28,12.25 L111.31,14.16 L113.84,16.69 L115.75,19.72 L116.93,23.11 L117.33,26.67 L117.33,85.83 L117.01,89.72 L116.08,94.48 L114.60,99.68 L112.65,104.90 L111.51,107.37 L110.28,109.70 L108.96,111.81 L107.56,113.65 L106.09,115.18 L104.56,116.34 L102.97,117.08 L101.33,117.33 L26.67,117.33 L23.11,116.93 L19.72,115.75 L16.69,113.84 L14.16,111.31 L12.25,108.28 L11.07,104.89 L10.67,101.33 L10.67,26.67 Z" fill="#e3e3e3" stroke="#1e1e1e" stroke-width="1" stroke-linejoin="round" opacity="0.2"/><path d="M26.67,10.67 L23.11,11.07 L19.72,12.25 L16.69,14.16 L14.16,16.69 L12.25,19.72 L11.07,23.11 L10.67,26.67 L10.67,101.33 L11.07,104.89 L12.25,108.28 L14.16,111.31 L16.69,113.84 L19.72,115.75 L23.11,116.93 L26.67,117.33 L101.33,117.33 L102.97,117.09 L104.56,116.40 L106.09,115.31 L107.56,113.86 L108.96,112.12 L110.28,110.12 L111.51,107.92 L112.65,105.56 L114.60,100.59 L116.08,95.61 L117.01,91.00 L117.33,87.17 L117.33,26.67 L116.93,23.11 L115.75,19.72 L113.84,16.69 L111.31,14.16 L108.28,12.25 L104.89,11.07 L101.33,10.67 L26.67,10.67 Z" fill="#a2a2a2" stroke="#1e1e1e" stroke-width="1" stroke-linejoin="round"/><path d="M101.33,16.00 L26.67,16.00 L23.91,16.36 L21.33,17.43 L19.12,19.12 L17.43,21.33 L16.36,23.91 L16.00,26.67 L16.00,101.33 L16.36,104.09 L17.43,106.67 L19.12,108.88 L21.33,110.57 L23.91,111.64 L26.67,112.00 L101.33,112.00 L104.09,111.64 L106.67,110.57 L108.88,108.88 L110.57,106.67 L111.64,104.09 L112.00,101.33 L112.00,26.67 L111.64,23.91 L110.57,21.33 L108.88,19.12 L106.67,17.43 L104.09,16.36 L101.33,16.00 Z" fill="#f1f1f1" stroke="#1e1e1e" stroke-width="1" stroke-linejoin="round"/><path d="M46.18,59.20 L47.83,58.00 L49.78,57.36 L51.83,57.36 L53.77,58.00 L55.43,59.20 L68.80,72.58 L70.00,74.23 L70.64,76.18 L70.64,78.23 L70.00,80.17 L68.80,81.83 L67.77,82.86 L65.29,84.88 L62.45,86.38 L59.37,87.27 L56.18,87.54 L53.00,87.16 L49.96,86.16 L47.17,84.57 L36.60,95.22 L35.41,95.91 L34.03,95.92 L32.83,95.23 L32.13,94.04 L32.13,92.65 L32.82,91.46 L43.40,80.79 L41.82,78.01 L40.83,74.97 L40.46,71.79 L40.73,68.61 L41.63,65.54 L43.12,62.71 L45.14,60.23 L46.18,59.20 Z" fill="#45903e" stroke="#1e1e1e" stroke-width="1" stroke-linejoin="round"/><path d="M91.50,32.74 L92.70,32.13 L94.05,32.18 L95.20,32.89 L95.86,34.07 L95.85,35.42 L95.18,36.60 L84.37,46.90 L86.04,49.69 L87.11,52.76 L87.54,55.99 L87.30,59.23 L86.42,62.36 L84.91,65.25 L82.86,67.77 L81.83,68.80 L80.17,70.00 L78.22,70.63 L76.18,70.63 L74.23,70.00 L72.57,68.80 L59.20,55.43 L58.00,53.77 L57.37,51.82 L57.37,49.78 L58.00,47.83 L59.20,46.17 L60.23,45.14 L63.11,42.86 L66.43,41.29 L70.02,40.53 L73.70,40.60 L77.25,41.51 L80.51,43.21 L91.50,32.74 Z" fill="#45903e" stroke="#1e1e1e" stroke-width="1" stroke-linejoin="round"/><path d="M111.81,64.04 L114.14,64.65 L116.18,65.91 L117.75,67.73 L118.71,69.92 L118.98,72.31 L118.53,74.67 L120.00,74.67 L122.27,75.00 L124.35,75.96 L126.07,77.47 L127.29,79.41 L127.91,81.61 L127.89,83.90 L127.21,86.09 L125.95,88.00 L126.70,88.98 L127.30,90.07 L127.72,91.25 L127.96,92.52 L128.00,93.33 L127.61,95.81 L126.47,98.04 L124.70,99.81 L122.47,100.94 L120.00,101.33 L114.67,101.33 L114.29,105.81 L113.16,110.17 L111.32,114.27 L108.81,118.00 L105.72,121.26 L102.12,123.96 L98.11,126.01 L93.83,127.35 L89.37,127.96 L88.00,128.00 L82.67,128.00 L80.19,127.61 L77.96,126.47 L76.19,124.70 L75.06,122.47 L74.67,120.00 L74.71,119.18 L74.90,118.10 L75.23,117.05 L73.04,116.08 L71.23,114.51 L69.98,112.47 L69.38,110.15 L69.33,109.33 L69.38,108.52 L69.61,107.25 L70.03,106.07 L70.63,104.98 L71.39,104.00 L70.02,101.90 L69.38,99.48 L69.33,98.67 L69.38,97.85 L69.95,95.58 L71.16,93.58 L72.90,92.01 L75.02,91.01 L77.33,90.67 L80.18,90.67 L81.10,85.90 L82.78,81.34 L85.17,77.12 L88.22,73.34 L91.83,70.10 L95.93,67.48 L100.39,65.56 L105.10,64.39 L109.94,64.00 L110.99,64.00 L111.81,64.04 Z" fill="#f5f5f5" stroke="#1e1e1e" stroke-width="1" stroke-linejoin="round"/><path d="M120.00,90.67 L121.33,91.02 L122.31,92.00 L122.67,93.33 L122.31,94.67 L121.33,95.64 L120.00,96.00 L113.03,96.00 L111.62,96.28 L110.42,97.09 L109.62,98.29 L109.33,99.70 L109.32,99.77 L109.33,99.83 L109.33,101.33 L108.92,105.50 L107.71,109.50 L105.74,113.19 L103.08,116.42 L99.85,119.07 L96.16,121.04 L92.16,122.26 L88.00,122.67 L82.67,122.67 L81.33,122.31 L80.36,121.33 L80.00,120.00 L80.36,118.67 L81.33,117.69 L82.67,117.33 L88.00,117.33 L91.56,116.93 L94.94,115.75 L97.98,113.84 L100.51,111.31 L102.42,108.28 L103.60,104.89 L104.00,101.33 L104.00,99.83 L104.01,99.77 L104.00,99.70 L104.18,97.88 L104.71,96.19 L105.54,94.65 L106.65,93.31 L107.98,92.21 L109.52,91.38 L111.21,90.85 L113.03,90.67 L120.00,90.67 Z" fill="#45903e" stroke="#1e1e1e" stroke-width="1" stroke-linejoin="round"/><path d="M120.00,80.00 L121.33,80.36 L122.31,81.33 L122.67,82.67 L122.31,84.00 L121.33,84.98 L120.00,85.33 L111.46,85.33 L109.42,85.54 L107.52,86.13 L105.80,87.06 L104.30,88.30 L103.06,89.80 L102.13,91.52 L101.54,93.42 L101.33,95.46 L101.33,96.00 L100.93,99.56 L99.75,102.94 L97.84,105.98 L95.31,108.51 L92.28,110.42 L88.89,111.60 L85.33,112.00 L77.33,112.00 L76.00,111.64 L75.02,110.67 L74.67,109.33 L75.02,108.00 L76.00,107.02 L77.33,106.67 L85.33,106.67 L88.09,106.30 L90.67,105.24 L92.88,103.54 L94.57,101.33 L95.64,98.76 L96.00,96.00 L96.00,95.21 L96.01,95.11 L96.46,91.73 L97.64,88.53 L99.50,85.67 L101.94,83.29 L104.84,81.49 L108.07,80.38 L111.46,80.00 L120.00,80.00 Z" fill="#45903e" stroke="#1e1e1e" stroke-width="1" stroke-linejoin="round"/><path d="M110.99,69.33 L112.32,69.69 L113.30,70.67 L113.65,72.00 L113.30,73.33 L112.32,74.31 L110.99,74.67 L109.94,74.67 L106.18,75.04 L102.57,76.13 L99.23,77.92 L96.31,80.31 L93.92,83.23 L92.13,86.57 L91.04,90.18 L90.67,93.94 L90.27,96.23 L89.20,98.29 L87.54,99.93 L85.47,100.97 L83.17,101.33 L77.33,101.33 L76.00,100.98 L75.02,100.00 L74.67,98.67 L75.02,97.33 L76.00,96.36 L77.33,96.00 L83.17,96.00 L84.25,95.71 L85.04,94.92 L85.33,93.83 L85.33,93.79 L85.73,89.54 L86.86,85.42 L88.68,81.55 L91.15,78.06 L94.18,75.05 L97.68,72.61 L101.56,70.81 L105.68,69.71 L109.94,69.33 L110.99,69.33 Z" fill="#45903e" stroke="#1e1e1e" stroke-width="1" stroke-linejoin="round"/></svg>