<svg xmlns="http://www.w3.org/2000/svg" viewBox="12.40 7.60 90.39 100.00"><path d="M19.20,72.00 L19.20,103.20 L18.88,104.40 L18.00,105.28 L16.80,105.60 L15.60,105.28 L14.72,104.40 L14.40,103.20 L14.40,16.80 L14.75,14.58 L15.78,12.57 L17.37,10.98 L19.38,9.95 L21.60,9.60 L98.40,9.60 L99.66,9.96 L100.55,10.93 L100.79,12.22 L100.32,13.44 L79.80,40.80 L100.32,68.16 L100.79,69.38 L100.55,70.67 L99.66,71.64 L98.40,72.00 L19.20,72.00 Z" fill="#16806e" stroke="#1e1e1e" stroke-width="1" stroke-linejoin="round"/><path d="M21.60,14.40 L20.40,14.72 L19.52,15.60 L19.20,16.80 L19.20,67.20 L93.60,67.20 L74.88,42.24 L74.46,41.31 L74.46,40.29 L74.88,39.36 L93.60,14.40 L21.60,14.40 Z" fill="#ffffff" stroke="#1e1e1e" stroke-width="1" stroke-linejoin="round"/></svg>