<svg xmlns="http://www.w3.org/2000/svg" viewBox="10.00 10.00 100.00 100.00"><path d="M12.00,27.00 L12.38,23.66 L13.49,20.49 L15.27,17.65 L17.65,15.27 L20.49,13.49 L23.66,12.38 L27.00,12.00 L93.00,12.00 L96.34,12.38 L99.51,13.49 L102.35,15.27 L104.73,17.65 L106.51,20.49 L107.62,23.66 L108.00,27.00 L108.00,93.00 L107.62,96.34 L106.51,99.51 L104.73,102.35 L102.35,104.73 L99.51,106.51 L96.34,107.62 L93.00,108.00 L27.00,108.00 L23.66,107.62 L20.49,106.51 L17.65,104.73 L15.27,102.35 L13.49,99.51 L12.38,96.34 L12.00,93.00 L12.00,27.00 Z" fill="#f5f5f5" stroke="#1e1e1e" stroke-width="1" stroke-linejoin="round"/><path d="M12.00,27.00 L12.38,23.66 L13.49,20.49 L15.27,17.65 L17.65,15.27 L20.49,13.49 L23.66,12.38 L27.00,12.00 L93.00,12.00 L96.34,12.38 L99.51,13.49 L102.35,15.27 L104.73,17.65 L106.51,20.49 L107.62,23.66 L108.00,27.00 L108.00,93.00 L107.62,96.34 L106.51,99.51 L104.73,102.35 L102.35,104.73 L99.51,106.51 L96.34,107.62 L93.00,108.00 L27.00,108.00 L23.66,107.62 L20.49,106.51 L17.65,104.73 L15.27,102.35 L13.49,99.51 L12.38,96.34 L12.00,93.00 L12.00,27.00 Z" fill="#e3e3e3" stroke="#1e1e1e" stroke-width="1" stroke-linejoin="round" opacity="0.2"/><path d="M27.00,12.00 L23.66,12.38 L20.49,13.49 L17.65,15.27 L15.27,17.65 L13.49,20.49 L12.38,23.66 L12.00,27.00 L12.00,93.00 L12.38,96.34 L13.49,99.51 L15.27,102.35 L17.65,104.73 L20.49,106.51 L23.66,107.62 L27.00,108.00 L93.00,108.00 L96.34,107.62 L99.51,106.51 L102.35,104.73 L104.73,102.35 L106.51,99.51 L107.62,96.34 L108.00,93.00 L108.00,27.00 L107.62,23.66 L106.51,20.49 L104.73,17.65 L102.35,15.27 L99.51,13.49 L96.34,12.38 L93.00,12.00 L27.00,12.00 Z" fill="#a2a2a2" stroke="#1e1e1e" stroke-width="1" stroke-linejoin="round"/><path d="M93.00,18.00 L27.00,18.00 L24.22,18.44 L21.71,19.72 L19.72,21.71 L18.44,24.22 L18.00,27.00 L18.00,93.00 L18.44,95.78 L19.72,98.29 L21.71,100.28 L24.22,101.56 L27.00,102.00 L93.00,102.00 L95.78,101.56 L98.29,100.28 L100.28,98.29 L101.56,95.78 L102.00,93.00 L102.00,27.00 L101.56,24.22 L100.28,21.71 L98.29,19.72 L95.78,18.44 L93.00,18.00 Z" fill="#f1f1f1" stroke="#1e1e1e" stroke-width="1" stroke-linejoin="round"/><path d="M48.35,30.00 L47.12,30.12 L45.96,30.47 L44.91,31.02 L43.98,31.75 L43.20,32.63 L42.60,33.65 L42.20,34.78 L42.01,36.00 L38.14,36.00 L36.50,36.17 L34.97,36.64 L33.59,37.39 L32.38,38.39 L31.39,39.59 L30.64,40.97 L30.17,42.50 L30.00,44.14 L30.40,47.67 L31.57,51.02 L33.46,54.03 L35.97,56.54 L38.98,58.43 L42.33,59.60 L45.86,60.00 L46.58,60.00 L49.59,62.69 L53.12,64.64 L57.00,65.75 L57.00,75.00 L51.60,75.00 L48.63,75.47 L45.96,76.83 L43.83,78.96 L42.47,81.63 L42.00,84.60 L42.19,85.53 L42.70,86.30 L43.47,86.81 L44.40,87.00 L75.60,87.00 L76.80,86.68 L77.68,85.80 L78.00,84.60 L77.53,81.63 L76.17,78.96 L74.04,76.83 L71.37,75.47 L68.40,75.00 L63.00,75.00 L63.00,65.75 L66.88,64.64 L70.41,62.69 L73.42,60.00 L74.14,60.00 L77.67,59.60 L81.02,58.43 L84.03,56.54 L86.54,54.03 L88.43,51.02 L89.60,47.67 L90.00,44.14 L89.83,42.50 L89.36,40.97 L88.61,39.59 L87.61,38.38 L86.41,37.39 L85.03,36.64 L83.50,36.17 L81.86,36.00 L77.99,36.00 L77.80,34.78 L77.40,33.65 L76.80,32.63 L76.02,31.75 L75.09,31.02 L74.04,30.47 L72.88,30.12 L71.65,30.00 L48.36,30.00 L48.35,30.00 Z" fill="#b57400" stroke="#b57400" stroke-width="1" stroke-linejoin="round"/><path d="M78.00,42.00 L78.00,48.00 L77.78,50.80 L77.13,53.54 L79.38,52.50 L81.31,50.92 L82.77,48.92 L83.69,46.61 L84.00,44.14 L83.71,43.07 L82.93,42.29 L81.86,42.00 L78.00,42.00 Z" fill="#f1f1f1" stroke="#f1f1f1" stroke-width="1" stroke-linejoin="round"/><path d="M42.87,53.54 L42.22,50.80 L42.00,48.00 L42.00,42.00 L38.14,42.00 L37.07,42.29 L36.29,43.07 L36.00,44.14 L36.13,45.76 L36.51,47.29 L37.12,48.72 L37.94,50.02 L38.94,51.17 L40.11,52.16 L41.43,52.95 L42.87,53.54 Z" fill="#f1f1f1" stroke="#f1f1f1" stroke-width="1" stroke-linejoin="round"/></svg>