<svg xmlns="http://www.w3.org/2000/svg" viewBox="8.67 8.67 110.67 110.67"><path d="M10.67,26.67 L11.07,23.11 L12.25,19.72 L14.16,16.69 L16.69,14.16 L19.72,12.25 L23.11,11.07 L26.67,10.67 L101.33,10.67 L104.89,11.07 L108.28,12.25 L111.31,14.16 L113.84,16.69 L115.75,19.72 L116.93,23.11 L117.33,26.67 L117.33,101.33 L116.93,104.89 L115.75,108.28 L113.84,111.31 L111.31,113.84 L108.28,115.75 L104.89,116.93 L101.33,117.33 L26.67,117.33 L23.11,116.93 L19.72,115.75 L16.69,113.84 L14.16,111.31 L12.25,108.28 L11.07,104.89 L10.67,101.33 L10.67,26.67 Z" fill="#f5f5f5" stroke="#1e1e1e" stroke-width="1" stroke-linejoin="round"/><path d="M10.67,26.67 L11.07,23.11 L12.25,19.72 L14.16,16.69 L16.69,14.16 L19.72,12.25 L23.11,11.07 L26.67,10.67 L101.33,10.67 L104.89,11.07 L108.28,12.25 L111.31,14.16 L113.84,16.69 L115.75,19.72 L116.93,23.11 L117.33,26.67 L117.33,101.33 L116.93,104.89 L115.75,108.28 L113.84,111.31 L111.31,113.84 L108.28,115.75 L104.89,116.93 L101.33,117.33 L26.67,117.33 L23.11,116.93 L19.72,115.75 L16.69,113.84 L14.16,111.31 L12.25,108.28 L11.07,104.89 L10.67,101.33 L10.67,26.67 Z" fill="#e3e3e3" stroke="#1e1e1e" stroke-width="1" stroke-linejoin="round" opacity="0.2"/><path d="M26.67,10.67 L23.11,11.07 L19.72,12.25 L16.69,14.16 L14.16,16.69 L12.25,19.72 L11.07,23.11 L10.67,26.67 L10.67,101.33 L11.07,104.89 L12.25,108.28 L14.16,111.31 L16.69,113.84 L19.72,115.75 L23.11,116.93 L26.67,117.33 L101.33,117.33 L104.89,116.93 L108.28,115.75 L111.31,113.84 L113.84,111.31 L115.75,108.28 L116.93,104.89 L117.33,101.33 L117.33,26.67 L116.93,23.11 L115.75,19.72 L113.84,16.69 L111.31,14.16 L108.28,12.25 L104.89,11.07 L101.33,10.67 L26.67,10.67 Z" fill="#a2a2a2" stroke="#1e1e1e" stroke-width="1" stroke-linejoin="round"/><path d="M101.33,16.00 L26.67,16.00 L23.91,16.36 L21.33,17.43 L19.12,19.12 L17.43,21.33 L16.36,23.91 L16.00,26.67 L16.00,101.33 L16.36,104.09 L17.43,106.67 L19.12,108.88 L21.33,110.57 L23.91,111.64 L26.67,112.00 L101.33,112.00 L104.09,111.64 L106.67,110.57 L108.88,108.88 L110.57,106.67 L111.64,104.09 L112.00,101.33 L112.00,26.67 L111.64,23.91 L110.57,21.33 L108.88,19.12 L106.67,17.43 L104.09,16.36 L101.33,16.00 Z" fill="#f1f1f1" stroke="#1e1e1e" stroke-width="1" stroke-linejoin="round"/><path d="M34.67,37.51 L35.02,36.18 L36.00,35.21 L37.33,34.85 L37.53,34.85 L40.04,35.25 L42.29,36.42 L44.07,38.24 L45.18,40.52 L47.47,48.00 L85.23,48.00 L87.28,48.41 L89.02,49.58 L90.17,51.34 L90.56,53.40 L90.12,55.45 L83.91,69.84 L82.69,71.81 L80.96,73.35 L78.86,74.33 L76.57,74.67 L55.77,74.67 L53.69,74.39 L51.75,73.58 L50.09,72.29 L48.82,70.62 L48.03,68.67 L47.14,65.23 L40.09,42.07 L39.54,41.09 L38.64,40.42 L37.54,40.18 L37.33,40.18 L36.00,39.82 L35.02,38.85 L34.67,37.51 L34.67,37.51 Z" fill="#6848aa" stroke="#1e1e1e" stroke-width="1" stroke-linejoin="round"/><path d="M62.67,87.33 L62.31,89.60 L61.27,91.64 L59.64,93.27 L57.60,94.31 L55.33,94.67 L53.07,94.31 L51.02,93.27 L49.40,91.64 L48.36,89.60 L48.00,87.33 L48.36,85.07 L49.40,83.02 L51.02,81.40 L53.07,80.36 L55.33,80.00 L57.60,80.36 L59.64,81.40 L61.27,83.02 L62.31,85.07 L62.67,87.33 Z" fill="#6848aa" stroke="#6848aa" stroke-width="1" stroke-linejoin="round"/><path d="M82.67,87.33 L82.31,89.60 L81.27,91.64 L79.64,93.27 L77.60,94.31 L75.33,94.67 L73.07,94.31 L71.02,93.27 L69.40,91.64 L68.36,89.60 L68.00,87.33 L68.36,85.07 L69.40,83.02 L71.02,81.40 L73.07,80.36 L75.33,80.00 L77.60,80.36 L79.64,81.40 L81.27,83.02 L82.31,85.07 L82.67,87.33 Z" fill="#6848aa" stroke="#6848aa" stroke-width="1" stroke-linejoin="round"/></svg>