<svg xmlns="http://www.w3.org/2000/svg" viewBox="7.60 7.60 100.00 100.00"><path d="M9.60,24.00 L9.96,20.80 L11.03,17.75 L12.74,15.02 L15.02,12.74 L17.75,11.03 L20.80,9.96 L24.00,9.60 L91.20,9.60 L94.40,9.96 L97.45,11.03 L100.18,12.74 L102.46,15.02 L104.17,17.75 L105.24,20.80 L105.60,24.00 L105.60,91.20 L105.24,94.40 L104.17,97.45 L102.46,100.18 L100.18,102.46 L97.45,104.17 L94.40,105.24 L91.20,105.60 L24.00,105.60 L20.80,105.24 L17.75,104.17 L15.02,102.46 L12.74,100.18 L11.03,97.45 L9.96,94.40 L9.60,91.20 L9.60,24.00 Z" fill="#f5f5f5" stroke="#1e1e1e" stroke-width="1" stroke-linejoin="round"/><path d="M9.60,24.00 L9.96,20.80 L11.03,17.75 L12.74,15.02 L15.02,12.74 L17.75,11.03 L20.80,9.96 L24.00,9.60 L91.20,9.60 L94.40,9.96 L97.45,11.03 L100.18,12.74 L102.46,15.02 L104.17,17.75 L105.24,20.80 L105.60,24.00 L105.60,91.20 L105.24,94.40 L104.17,97.45 L102.46,100.18 L100.18,102.46 L97.45,104.17 L94.40,105.24 L91.20,105.60 L24.00,105.60 L20.80,105.24 L17.75,104.17 L15.02,102.46 L12.74,100.18 L11.03,97.45 L9.96,94.40 L9.60,91.20 L9.60,24.00 Z" fill="#e3e3e3" stroke="#1e1e1e" stroke-width="1" stroke-linejoin="round" opacity="0.2"/><path d="M24.00,9.60 L20.80,9.96 L17.75,11.03 L15.02,12.74 L12.74,15.02 L11.03,17.75 L9.96,20.80 L9.60,24.00 L9.60,91.20 L9.96,94.40 L11.03,97.45 L12.74,100.18 L15.02,102.46 L17.75,104.17 L20.80,105.24 L24.00,105.60 L91.20,105.60 L94.40,105.24 L97.45,104.17 L100.18,102.46 L102.46,100.18 L104.17,97.45 L105.24,94.40 L105.60,91.20 L105.60,24.00 L105.24,20.80 L104.17,17.75 L102.46,15.02 L100.18,12.74 L97.45,11.03 L94.40,9.96 L91.20,9.60 L24.00,9.60 Z" fill="#a2a2a2" stroke="#1e1e1e" stroke-width="1" stroke-linejoin="round"/><path d="M91.20,14.40 L24.00,14.40 L21.52,14.73 L19.20,15.69 L17.21,17.21 L15.69,19.20 L14.73,21.52 L14.40,24.00 L14.40,91.20 L14.73,93.68 L15.69,96.00 L17.21,97.99 L19.20,99.51 L21.52,100.47 L24.00,100.80 L91.20,100.80 L93.68,100.47 L96.00,99.51 L97.99,97.99 L99.51,96.00 L100.47,93.68 L100.80,91.20 L100.80,24.00 L100.47,21.52 L99.51,19.20 L97.99,17.21 L96.00,15.69 L93.68,14.73 L91.20,14.40 Z" fill="#f1f1f1" stroke="#1e1e1e" stroke-width="1" stroke-linejoin="round"/><path d="M55.40,38.15 L53.04,36.21 L50.35,34.76 L47.42,33.86 L44.38,33.56 L41.34,33.85 L38.41,34.73 L35.71,36.16 L33.34,38.09 L31.41,40.46 L29.97,43.16 L29.09,46.09 L28.80,49.13 L29.11,52.17 L30.01,55.10 L31.45,57.79 L33.40,60.15 L55.99,82.75 L57.07,83.37 L58.31,83.37 L59.39,82.75 L67.02,75.12 L65.25,74.14 L63.83,72.70 L62.86,70.93 L61.12,66.28 L59.42,66.97 L57.60,67.20 L50.40,67.20 L48.18,66.85 L46.17,65.82 L44.58,64.23 L43.55,62.22 L43.20,60.00 L43.55,57.78 L44.58,55.77 L46.17,54.18 L48.18,53.15 L50.40,52.80 L52.92,52.80 L55.82,46.27 L56.96,44.48 L58.57,43.10 L60.51,42.25 L62.62,42.00 L64.70,42.37 L66.59,43.34 L68.12,44.81 L69.14,46.67 L70.29,49.73 L71.58,47.84 L73.41,46.45 L75.57,45.70 L77.87,45.68 L80.05,46.37 L81.90,47.72 L83.24,49.58 L84.87,52.85 L85.94,53.06 L86.39,49.88 L86.17,46.67 L85.31,43.58 L83.84,40.72 L81.81,38.23 L79.45,36.28 L76.75,34.83 L73.82,33.93 L70.78,33.62 L67.73,33.92 L64.80,34.80 L62.09,36.24 L59.72,38.17 L57.58,40.32 L55.40,38.15 Z" fill="#6848aa" stroke="#1e1e1e" stroke-width="1" stroke-linejoin="round"/><path d="M78.25,61.08 L79.14,62.04 L80.40,62.40 L84.00,62.40 L85.20,62.08 L86.08,61.20 L86.40,60.00 L86.08,58.80 L85.20,57.92 L84.00,57.60 L81.88,57.60 L78.95,51.72 L78.04,50.75 L76.76,50.40 L75.49,50.79 L74.62,51.79 L69.83,62.17 L64.65,48.36 L64.02,47.42 L63.03,46.88 L61.91,46.85 L60.89,47.33 L60.21,48.23 L56.04,57.60 L50.40,57.60 L49.20,57.92 L48.32,58.80 L48.00,60.00 L48.32,61.20 L49.20,62.08 L50.40,62.40 L57.60,62.40 L58.50,62.23 L59.27,61.73 L59.79,60.97 L62.21,55.53 L67.35,69.24 L67.97,70.17 L68.95,70.72 L70.07,70.76 L71.09,70.29 L71.78,69.41 L76.89,58.34 L78.25,61.08 Z" fill="#6848aa" stroke="#1e1e1e" stroke-width="1" stroke-linejoin="round"/></svg>