<svg xmlns="http://www.w3.org/2000/svg" viewBox="10.00 10.00 100.00 100.00"><path d="M12.00,24.00 L12.23,21.66 L12.91,19.41 L14.02,17.33 L15.51,15.51 L17.33,14.02 L19.41,12.91 L21.66,12.23 L24.00,12.00 L96.00,12.00 L98.34,12.23 L100.59,12.91 L102.67,14.02 L104.49,15.51 L105.98,17.33 L107.09,19.41 L107.77,21.66 L108.00,24.00 L108.00,96.00 L107.77,98.34 L107.09,100.59 L105.98,102.67 L104.49,104.49 L102.67,105.98 L100.59,107.09 L98.34,107.77 L96.00,108.00 L24.00,108.00 L21.66,107.77 L19.41,107.09 L17.33,105.98 L15.51,104.49 L14.02,102.67 L12.91,100.59 L12.23,98.34 L12.00,96.00 L12.00,24.00 Z" fill="#f5f5f5" stroke="#1e1e1e" stroke-width="1" stroke-linejoin="round"/><path d="M12.00,24.00 L12.23,21.66 L12.91,19.41 L14.02,17.33 L15.51,15.51 L17.33,14.02 L19.41,12.91 L21.66,12.23 L24.00,12.00 L96.00,12.00 L98.34,12.23 L100.59,12.91 L102.67,14.02 L104.49,15.51 L105.98,17.33 L107.09,19.41 L107.77,21.66 L108.00,24.00 L108.00,96.00 L107.77,98.34 L107.09,100.59 L105.98,102.67 L104.49,104.49 L102.67,105.98 L100.59,107.09 L98.34,107.77 L96.00,108.00 L24.00,108.00 L21.66,107.77 L19.41,107.09 L17.33,105.98 L15.51,104.49 L14.02,102.67 L12.91,100.59 L12.23,98.34 L12.00,96.00 L12.00,24.00 Z" fill="#e3e3e3" stroke="#1e1e1e" stroke-width="1" stroke-linejoin="round" opacity="0.2"/><path d="M24.00,12.00 L21.66,12.23 L19.41,12.91 L17.33,14.02 L15.51,15.51 L14.02,17.33 L12.91,19.41 L12.23,21.66 L12.00,24.00 L12.00,96.00 L12.23,98.34 L12.91,100.59 L14.02,102.67 L15.51,104.49 L17.33,105.98 L19.41,107.09 L21.66,107.77 L24.00,108.00 L96.00,108.00 L98.34,107.77 L100.59,107.09 L102.67,105.98 L104.49,104.49 L105.98,102.67 L107.09,100.59 L107.77,98.34 L108.00,96.00 L108.00,24.00 L107.77,21.66 L107.09,19.41 L105.98,17.33 L104.49,15.51 L102.67,14.02 L100.59,12.91 L98.34,12.23 L96.00,12.00 L24.00,12.00 Z" fill="#a2a2a2" stroke="#1e1e1e" stroke-width="1" stroke-linejoin="round"/><path d="M96.00,15.00 L24.00,15.00 L22.00,15.23 L20.10,15.89 L18.39,16.96 L16.96,18.39 L15.89,20.10 L15.23,22.00 L15.00,24.00 L15.00,96.00 L15.23,98.00 L15.89,99.90 L16.96,101.61 L18.39,103.04 L20.10,104.11 L22.00,104.77 L24.00,105.00 L96.00,105.00 L98.00,104.77 L99.90,104.11 L101.61,103.04 L103.04,101.61 L104.11,99.90 L104.77,98.00 L105.00,96.00 L105.00,24.00 L104.77,22.00 L104.11,20.10 L103.04,18.39 L101.61,16.96 L99.90,15.89 L98.00,15.23 L96.00,15.00 Z" fill="#f1f1f1" stroke="#1e1e1e" stroke-width="1" stroke-linejoin="round"/><path d="M60.00,45.00 L60.00,43.50 L59.78,42.11 L59.14,40.85 L58.15,39.86 L56.89,39.22 L55.50,39.00 L40.50,39.00 L39.11,39.22 L37.85,39.86 L36.86,40.85 L36.22,42.11 L36.00,43.50 L36.00,79.50 L36.22,80.89 L36.86,82.15 L37.85,83.14 L39.11,83.78 L40.50,84.00 L76.50,84.00 L77.89,83.78 L79.15,83.14 L80.14,82.15 L80.78,80.89 L81.00,79.50 L81.00,64.50 L80.78,63.11 L80.14,61.85 L79.15,60.86 L77.89,60.22 L76.50,60.00 L74.70,60.00 L82.77,51.93 L83.59,50.79 L84.03,49.45 L84.03,48.05 L83.59,46.71 L82.77,45.57 L74.28,37.08 L73.14,36.25 L71.80,35.82 L70.40,35.82 L69.06,36.25 L67.92,37.08 L60.00,45.00 Z" fill="#d26100" stroke="#d26100" stroke-width="1" stroke-linejoin="round"/><path d="M60.00,52.50 L60.00,60.00 L67.50,60.00 L60.00,52.50 Z" fill="#f1f1f1" stroke="#f1f1f1" stroke-width="1" stroke-linejoin="round"/><path d="M40.50,42.00 L55.50,42.00 L56.25,42.20 L56.80,42.75 L57.00,43.50 L57.00,60.00 L39.00,60.00 L39.00,43.50 L39.20,42.75 L39.75,42.20 L40.50,42.00 Z" fill="#f1f1f1" stroke="#f1f1f1" stroke-width="1" stroke-linejoin="round"/><path d="M76.50,81.00 L60.00,81.00 L60.00,63.00 L76.50,63.00 L77.25,63.20 L77.80,63.75 L78.00,64.50 L78.00,79.50 L77.80,80.25 L77.25,80.80 L76.50,81.00 Z" fill="#f1f1f1" stroke="#f1f1f1" stroke-width="1" stroke-linejoin="round"/><path d="M57.00,63.00 L57.00,81.00 L40.50,81.00 L39.75,80.80 L39.20,80.25 L39.00,79.50 L39.00,63.00 L57.00,63.00 Z" fill="#f1f1f1" stroke="#f1f1f1" stroke-width="1" stroke-linejoin="round"/></svg>