<svg xmlns="http://www.w3.org/2000/svg" viewBox="19.33 19.33 217.30 217.33"><path d="M193.99,148.21 L196.15,148.31 L198.27,148.63 L200.37,149.13 L202.42,149.82 L204.42,150.67 L206.36,151.68 L210.02,154.12 L213.31,157.04 L216.16,160.33 L218.49,163.91 L220.22,167.67 L220.93,169.87 L221.45,172.14 L221.76,174.48 L221.87,176.89 L221.73,179.61 L221.32,182.26 L220.66,184.81 L219.77,187.26 L218.64,189.60 L217.30,191.79 L215.76,193.85 L214.04,195.74 L212.14,197.46 L210.08,199.00 L207.88,200.33 L205.54,201.46 L203.08,202.35 L200.52,203.01 L197.86,203.41 L195.13,203.55 L181.32,203.55 L176.95,203.64 L172.66,203.90 L168.47,204.35 L164.39,205.00 L160.41,205.86 L156.54,206.94 L152.80,208.25 L149.18,209.81 L145.69,211.62 L142.34,213.69 L139.14,216.04 L136.08,218.67 L133.18,221.60 L130.45,224.84 L127.88,228.40 L125.48,232.29 L124.43,233.60 L122.97,234.43 L121.31,234.67 L119.67,234.26 L118.30,233.29 L117.40,231.87 L117.08,230.22 L117.08,145.70 L193.99,148.21 Z" fill="#0a5bab" stroke="#1e1e1e" stroke-width="1" stroke-linejoin="round"/><path d="M193.99,148.21 L196.15,148.31 L198.27,148.63 L200.37,149.13 L202.42,149.82 L204.42,150.67 L206.36,151.68 L210.02,154.12 L213.31,157.04 L216.16,160.33 L218.49,163.91 L220.22,167.67 L220.93,169.87 L221.45,172.14 L221.76,174.48 L221.87,176.89 L221.73,179.61 L221.32,182.26 L220.66,184.81 L219.77,187.26 L218.64,189.60 L217.30,191.79 L215.76,193.85 L214.04,195.74 L212.14,197.46 L210.08,199.00 L207.88,200.33 L205.54,201.46 L203.08,202.35 L200.52,203.01 L197.86,203.41 L195.13,203.55 L181.32,203.55 L176.95,203.64 L172.66,203.90 L168.47,204.35 L164.39,205.00 L160.41,205.86 L156.54,206.94 L152.80,208.25 L149.18,209.81 L145.69,211.62 L142.34,213.69 L139.14,216.04 L136.08,218.67 L133.18,221.60 L130.45,224.84 L127.88,228.40 L125.48,232.29 L124.43,233.60 L122.97,234.43 L121.31,234.67 L119.67,234.26 L118.30,233.29 L117.40,231.87 L117.08,230.22 L117.08,145.70 L193.99,148.21 Z" fill="#000000" stroke="#1e1e1e" stroke-width="1" stroke-linejoin="round"/><path d="M220.22,167.67 L218.24,163.47 L215.56,159.68 L212.26,156.41 L208.45,153.76 L204.23,151.81 L199.75,150.62 L195.12,150.22 L52.53,150.22 L49.34,150.06 L46.24,149.59 L43.25,148.82 L40.39,147.77 L37.66,146.46 L35.09,144.91 L32.69,143.11 L30.47,141.11 L28.46,138.90 L26.66,136.50 L25.10,133.94 L23.79,131.22 L22.74,128.36 L21.97,125.38 L21.49,122.29 L21.33,119.11 L21.51,115.91 L22.01,112.77 L22.83,109.71 L23.94,106.75 L25.33,103.91 L26.98,101.21 L28.87,98.66 L30.97,96.30 L33.28,94.15 L35.77,92.21 L38.43,90.51 L41.23,89.08 L44.16,87.93 L47.20,87.09 L50.33,86.56 L53.53,86.38 L110.29,84.52 L186.34,84.03 L188.03,87.62 L220.22,167.66" fill="none" stroke="#1e1e1e" stroke-width="1" stroke-linejoin="round"/><path d="M220.22,167.67 L218.24,163.47 L215.56,159.68 L212.26,156.41 L208.45,153.76 L204.23,151.81 L199.75,150.62 L195.12,150.22 L52.53,150.22 L49.34,150.06 L46.24,149.59 L43.25,148.82 L40.39,147.77 L37.66,146.46 L35.09,144.91 L32.69,143.11 L30.47,141.11 L28.46,138.90 L26.66,136.50 L25.10,133.94 L23.79,131.22 L22.74,128.36 L21.97,125.38 L21.49,122.29 L21.33,119.11 L21.51,115.91 L22.01,112.77 L22.83,109.71 L23.94,106.75 L25.33,103.91 L26.98,101.21 L28.87,98.66 L30.97,96.30 L33.28,94.15 L35.77,92.21 L38.43,90.51 L41.23,89.08 L44.16,87.93 L47.20,87.09 L50.33,86.56 L53.53,86.38 L110.29,84.52 L186.34,84.03 L188.03,87.62 L220.22,167.66" fill="none" stroke="#1e1e1e" stroke-width="1" stroke-linejoin="round"/><path d="M234.10,76.00 L216.35,31.87 L214.67,28.90 L212.45,26.31 L209.77,24.19 L206.74,22.62 L203.47,21.66 L200.07,21.33 L58.87,21.33 L55.05,21.74 L51.41,22.96 L48.12,24.93 L45.32,27.56 L43.15,30.72 L41.71,34.28 L22.19,111.98 L22.97,109.55 L23.93,107.18 L25.07,104.89 L26.37,102.69 L27.83,100.60 L29.43,98.62 L31.19,96.77 L33.07,95.06 L35.08,93.51 L37.20,92.12 L39.44,90.92 L41.78,89.90 L44.20,89.09 L46.72,88.49 L49.31,88.12 L51.96,88.00 L225.76,88.00 L228.18,87.66 L230.41,86.68 L232.30,85.13 L233.69,83.13 L234.49,80.82 L234.63,78.38 L234.11,76.00" fill="none" stroke="#1e1e1e" stroke-width="1" stroke-linejoin="round"/></svg>