<svg xmlns="http://www.w3.org/2000/svg" viewBox="8.67 8.67 89.33 89.33"><path d="M10.67,24.00 L11.00,21.03 L11.99,18.21 L13.58,15.69 L15.69,13.58 L18.21,11.99 L21.03,11.00 L24.00,10.67 L82.67,10.67 L85.63,11.00 L88.45,11.99 L90.98,13.58 L93.09,15.69 L94.68,18.21 L95.67,21.03 L96.00,24.00 L96.00,82.67 L95.67,85.63 L94.68,88.45 L93.09,90.98 L90.98,93.09 L88.45,94.68 L85.63,95.67 L82.67,96.00 L24.00,96.00 L21.03,95.67 L18.21,94.68 L15.69,93.09 L13.58,90.98 L11.99,88.45 L11.00,85.63 L10.67,82.67 L10.67,24.00 Z" fill="#f5f5f5" stroke="#1e1e1e" stroke-width="1" stroke-linejoin="round"/><path d="M10.67,24.00 L11.00,21.03 L11.99,18.21 L13.58,15.69 L15.69,13.58 L18.21,11.99 L21.03,11.00 L24.00,10.67 L82.67,10.67 L85.63,11.00 L88.45,11.99 L90.98,13.58 L93.09,15.69 L94.68,18.21 L95.67,21.03 L96.00,24.00 L96.00,82.67 L95.67,85.63 L94.68,88.45 L93.09,90.98 L90.98,93.09 L88.45,94.68 L85.63,95.67 L82.67,96.00 L24.00,96.00 L21.03,95.67 L18.21,94.68 L15.69,93.09 L13.58,90.98 L11.99,88.45 L11.00,85.63 L10.67,82.67 L10.67,24.00 Z" fill="#e3e3e3" stroke="#1e1e1e" stroke-width="1" stroke-linejoin="round" opacity="0.2"/><path d="M24.00,10.67 L21.03,11.00 L18.21,11.99 L15.69,13.58 L13.58,15.69 L11.99,18.21 L11.00,21.03 L10.67,24.00 L10.67,82.67 L11.00,85.63 L11.99,88.45 L13.58,90.98 L15.69,93.09 L18.21,94.68 L21.03,95.67 L24.00,96.00 L82.67,96.00 L85.63,95.67 L88.45,94.68 L90.98,93.09 L93.09,90.98 L94.68,88.45 L95.67,85.63 L96.00,82.67 L96.00,24.00 L95.67,21.03 L94.68,18.21 L93.09,15.69 L90.98,13.58 L88.45,11.99 L85.63,11.00 L82.67,10.67 L24.00,10.67 Z" fill="#a2a2a2" stroke="#1e1e1e" stroke-width="1" stroke-linejoin="round"/><path d="M82.67,16.00 L24.00,16.00 L21.53,16.39 L19.30,17.53 L17.53,19.30 L16.39,21.53 L16.00,24.00 L16.00,82.67 L16.39,85.14 L17.53,87.37 L19.30,89.14 L21.53,90.28 L24.00,90.67 L82.67,90.67 L85.14,90.28 L87.37,89.14 L89.14,87.37 L90.28,85.14 L90.67,82.67 L90.67,24.00 L90.28,21.53 L89.14,19.30 L87.37,17.53 L85.14,16.39 L82.67,16.00 Z" fill="#f1f1f1" stroke="#1e1e1e" stroke-width="1" stroke-linejoin="round"/><path d="M42.98,26.67 L41.88,26.77 L40.85,27.08 L39.92,27.57 L39.09,28.22 L38.40,29.01 L37.87,29.91 L37.51,30.92 L37.34,32.00 L33.90,32.00 L32.44,32.15 L31.09,32.57 L29.86,33.24 L28.79,34.12 L27.90,35.19 L27.23,36.42 L26.81,37.78 L26.67,39.24 L27.02,42.37 L28.06,45.35 L29.74,48.03 L31.97,50.26 L34.65,51.94 L37.63,52.98 L40.76,53.33 L41.40,53.33 L44.08,55.72 L47.22,57.46 L50.67,58.45 L50.67,66.67 L45.87,66.67 L43.23,67.08 L40.85,68.30 L38.96,70.18 L37.75,72.56 L37.33,75.20 L37.50,76.03 L37.96,76.71 L38.64,77.16 L39.47,77.33 L67.20,77.33 L68.27,77.05 L69.05,76.27 L69.33,75.20 L68.92,72.56 L67.70,70.18 L65.82,68.30 L63.44,67.08 L60.80,66.67 L56.00,66.67 L56.00,58.45 L59.45,57.46 L62.58,55.72 L65.26,53.33 L65.90,53.33 L69.04,52.98 L72.02,51.94 L74.69,50.26 L76.92,48.03 L78.60,45.35 L79.65,42.37 L80.00,39.24 L79.85,37.78 L79.43,36.42 L78.76,35.19 L77.88,34.12 L76.81,33.24 L75.58,32.57 L74.22,32.15 L72.76,32.00 L69.32,32.00 L69.16,30.92 L68.80,29.91 L68.26,29.01 L67.57,28.22 L66.75,27.57 L65.81,27.08 L64.79,26.77 L63.69,26.67 L42.99,26.67 L42.98,26.67 Z" fill="#b57400" stroke="#b57400" stroke-width="1" stroke-linejoin="round"/><path d="M69.33,37.33 L69.33,42.67 L69.14,45.16 L68.56,47.59 L70.56,46.66 L72.27,45.26 L73.58,43.48 L74.39,41.43 L74.67,39.24 L74.41,38.29 L73.71,37.59 L72.76,37.33 L69.33,37.33 Z" fill="#f1f1f1" stroke="#f1f1f1" stroke-width="1" stroke-linejoin="round"/><path d="M38.11,47.59 L37.53,45.16 L37.33,42.67 L37.33,37.33 L33.90,37.33 L32.95,37.59 L32.26,38.29 L32.00,39.24 L32.12,40.67 L32.46,42.04 L33.00,43.30 L33.72,44.46 L34.62,45.48 L35.66,46.36 L36.83,47.07 L38.11,47.59 Z" fill="#f1f1f1" stroke="#f1f1f1" stroke-width="1" stroke-linejoin="round"/></svg>