<svg xmlns="http://www.w3.org/2000/svg" viewBox="14.00 8.67 110.67 115.90"><path d="M16.00,26.67 L16.40,23.11 L17.58,19.72 L19.49,16.69 L22.02,14.16 L25.06,12.25 L28.44,11.07 L32.00,10.67 L85.33,10.67 L88.89,11.07 L92.28,12.25 L95.31,14.16 L97.84,16.69 L99.75,19.72 L100.93,23.11 L101.33,26.67 L101.33,59.59 L98.68,59.08 L96.00,58.77 L96.00,26.67 L95.64,23.91 L94.57,21.33 L92.88,19.12 L90.67,17.43 L88.09,16.36 L85.33,16.00 L32.00,16.00 L29.24,16.36 L26.67,17.43 L24.46,19.12 L22.76,21.33 L21.70,23.91 L21.33,26.67 L21.33,101.33 L21.70,104.09 L22.76,106.67 L24.46,108.88 L26.67,110.57 L29.24,111.64 L32.00,112.00 L64.12,112.00 L66.09,114.77 L68.32,117.33 L32.00,117.33 L28.44,116.93 L25.06,115.75 L22.02,113.84 L19.49,111.31 L17.58,108.28 L16.40,104.89 L16.00,101.33 L16.00,26.67 Z" fill="#16806e" stroke="#1e1e1e" stroke-width="1" stroke-linejoin="round"/><path d="M106.67,61.32 L110.82,63.40 L114.67,66.01 L114.67,59.00 L114.27,57.50 L113.17,56.40 L111.66,56.00 L106.67,56.00 L106.67,61.32 Z" fill="#16806e" stroke="#16806e" stroke-width="1" stroke-linejoin="round"/><path d="M77.75,62.36 L84.51,55.59 L85.20,54.56 L85.45,53.33 L85.20,52.11 L84.51,51.07 L73.72,40.28 L72.52,39.57 L71.13,39.56 L69.92,40.25 L69.22,41.46 L69.24,42.86 L69.95,44.05 L79.23,53.33 L69.95,62.61 L69.28,63.73 L69.22,65.02 L69.78,66.19 L70.82,66.97 L74.15,64.45 L77.75,62.36 Z" fill="#16806e" stroke="#1e1e1e" stroke-width="1" stroke-linejoin="round"/><path d="M66.59,35.31 L66.59,33.91 L65.88,32.70 L64.66,32.02 L63.26,32.05 L62.07,32.78 L61.41,34.02 L52.08,71.35 L52.13,72.71 L52.84,73.87 L54.04,74.53 L55.40,74.51 L56.57,73.82 L57.25,72.65 L66.59,35.31 Z" fill="#16806e" stroke="#1e1e1e" stroke-width="1" stroke-linejoin="round"/><path d="M47.55,44.22 L48.27,43.02 L48.28,41.63 L47.59,40.41 L46.37,39.72 L44.98,39.73 L43.78,40.45 L33.16,51.07 L32.46,52.11 L32.22,53.33 L32.46,54.56 L33.16,55.59 L43.78,66.22 L44.97,66.88 L46.34,66.87 L47.52,66.19 L48.21,65.01 L48.22,63.64 L47.55,62.45 L38.43,53.33 L47.55,44.22 Z" fill="#16806e" stroke="#1e1e1e" stroke-width="1" stroke-linejoin="round"/><path d="M106.67,32.00 L111.67,32.00 L112.84,32.24 L113.79,32.88 L114.43,33.83 L114.67,35.00 L114.67,45.00 L114.43,46.17 L113.79,47.12 L112.83,47.76 L111.66,48.00 L106.67,48.00 L106.67,32.00 Z" fill="#16806e" stroke="#16806e" stroke-width="1" stroke-linejoin="round"/><path d="M122.67,93.33 L122.27,88.51 L121.08,83.81 L119.13,79.37 L116.48,75.32 L113.20,71.75 L109.38,68.78 L105.12,66.47 L100.53,64.90 L95.76,64.10 L90.91,64.10 L86.13,64.90 L81.55,66.47 L77.29,68.78 L73.47,71.75 L70.19,75.32 L67.54,79.37 L65.59,83.81 L64.40,88.51 L64.00,93.33 L64.40,98.16 L65.59,102.86 L67.54,107.29 L70.19,111.35 L73.47,114.91 L77.29,117.89 L81.55,120.20 L86.13,121.77 L90.91,122.57 L95.76,122.57 L100.53,121.77 L105.12,120.20 L109.38,117.89 L113.20,114.91 L116.48,111.35 L119.13,107.29 L121.08,102.86 L122.27,98.16 L122.67,93.33 Z" fill="#16806e" stroke="#1e1e1e" stroke-width="1" stroke-linejoin="round"/><path d="M96.00,96.00 L96.01,109.35 L95.65,110.68 L94.67,111.66 L93.34,112.02 L92.01,111.66 L91.03,110.68 L90.67,109.35 L90.67,96.00 L77.31,96.00 L75.98,95.64 L75.00,94.67 L74.65,93.33 L75.00,92.00 L75.98,91.02 L77.31,90.67 L90.67,90.67 L90.67,77.33 L91.02,76.00 L92.00,75.02 L93.33,74.67 L94.67,75.02 L95.64,76.00 L96.00,77.33 L96.00,90.67 L109.32,90.67 L110.65,91.02 L111.63,92.00 L111.98,93.33 L111.63,94.67 L110.65,95.64 L109.32,96.00 L96.00,96.00 Z" fill="#ffffff" stroke="#1e1e1e" stroke-width="1" stroke-linejoin="round"/></svg>