<svg xmlns="http://www.w3.org/2000/svg" viewBox="7.64 7.60 99.95 100.00"><path d="M56.11,70.33 L48.60,98.02 L48.44,98.79 L48.38,99.60 L48.53,100.93 L48.98,102.20 L49.69,103.34 L50.64,104.29 L51.78,105.01 L53.05,105.45 L54.38,105.60 L55.66,105.46 L56.83,105.08 L57.89,104.48 L58.80,103.68 L103.46,53.00 L102.88,53.58 L102.25,54.09 L101.56,54.54 L100.83,54.91 L100.06,55.22 L99.25,55.44 L98.42,55.57 L97.56,55.62 L75.40,55.62 L73.69,55.69 L72.02,55.90 L70.40,56.25 L68.83,56.73 L67.31,57.33 L65.86,58.04 L64.47,58.87 L63.16,59.80 L61.94,60.83 L60.80,61.96 L59.75,63.17 L58.80,64.47 L57.96,65.84 L57.22,67.28 L56.60,68.79 L56.11,70.35 L56.11,70.33 Z" fill="#670938" stroke="#1e1e1e" stroke-width="1" stroke-linejoin="round"/><path d="M105.57,47.60 L105.53,46.79 L105.41,45.99 L105.21,45.23 L104.94,44.49 L104.61,43.79 L104.21,43.13 L103.75,42.52 L103.23,41.95 L102.66,41.44 L102.05,40.98 L101.39,40.58 L100.69,40.24 L99.96,39.97 L99.19,39.77 L98.40,39.65 L97.58,39.61 L36.19,39.61 L17.59,59.60 L15.93,59.78 L14.34,60.29 L12.89,61.13 L11.65,62.24 L10.67,63.60 L9.99,65.12 L9.64,66.76 L9.64,68.43 L9.99,70.06 L10.67,71.59 L11.65,72.94 L12.89,74.06 L14.34,74.89 L15.93,75.41 L17.59,75.58 L65.85,75.58 L67.51,75.76 L69.10,76.27 L70.54,77.10 L71.78,78.22 L72.76,79.57 L73.44,81.09 L73.79,82.72 L73.80,84.39 L73.45,86.02 L72.78,87.54 L71.80,88.90 L100.84,55.95 L103.43,53.03 L103.41,53.03 L104.32,51.86 L105.01,50.55 L105.26,49.85 L105.44,49.12 L105.56,48.36 L105.59,47.58 L105.57,47.60 Z" fill="#e42b3f" stroke="#1e1e1e" stroke-width="1" stroke-linejoin="round"/><path d="M105.57,47.60 L105.53,46.79 L105.41,45.99 L105.21,45.23 L104.94,44.49 L104.61,43.79 L104.21,43.13 L103.75,42.52 L103.23,41.95 L102.66,41.44 L102.05,40.98 L101.39,40.58 L100.69,40.24 L99.96,39.97 L99.19,39.77 L98.40,39.65 L97.58,39.61 L36.19,39.61 L17.59,59.60 L15.93,59.78 L14.34,60.29 L12.89,61.13 L11.65,62.24 L10.67,63.60 L9.99,65.12 L9.64,66.76 L9.64,68.43 L9.99,70.06 L10.67,71.59 L11.65,72.94 L12.89,74.06 L14.34,74.89 L15.93,75.41 L17.59,75.58 L65.85,75.58 L67.51,75.76 L69.10,76.27 L70.54,77.10 L71.78,78.22 L72.76,79.57 L73.44,81.09 L73.79,82.72 L73.80,84.39 L73.45,86.02 L72.78,87.54 L71.80,88.90 L100.84,55.95 L103.43,53.03 L103.41,53.03 L104.32,51.86 L105.01,50.55 L105.26,49.85 L105.44,49.12 L105.56,48.36 L105.59,47.58 L105.57,47.60 Z" fill="#570830" stroke="#1e1e1e" stroke-width="1" stroke-linejoin="round" opacity="0.56"/><path d="M59.01,44.87 L66.52,17.18 L66.69,16.41 L66.74,15.60 L66.59,14.26 L66.15,12.99 L65.43,11.86 L64.48,10.91 L63.34,10.19 L62.08,9.75 L60.74,9.60 L59.47,9.73 L58.29,10.12 L57.23,10.72 L56.33,11.52 L11.66,62.19 L12.24,61.62 L12.88,61.11 L13.56,60.66 L14.29,60.28 L15.06,59.98 L15.87,59.76 L16.71,59.62 L17.57,59.58 L39.72,59.58 L41.43,59.50 L43.10,59.29 L44.72,58.95 L46.30,58.47 L47.81,57.87 L49.27,57.16 L50.65,56.33 L51.96,55.40 L53.18,54.37 L54.33,53.24 L55.37,52.03 L56.32,50.73 L57.17,49.36 L57.90,47.92 L58.52,46.41 L59.01,44.85 L59.01,44.87 Z" fill="#fc6759" stroke="#1e1e1e" stroke-width="1" stroke-linejoin="round"/></svg>