<svg xmlns="http://www.w3.org/2000/svg" viewBox="46.00 19.33 164.00 217.33"><path d="M208.00,21.33 L208.00,234.66 L136.89,234.66 L136.89,21.33 L208.00,21.33 Z" fill="#d7960f" stroke="#1e1e1e" stroke-width="1" stroke-linejoin="round"/><path d="M163.56,83.55 L163.56,234.67 L92.45,234.67 L92.45,74.67 L154.67,74.67 L156.46,74.85 L158.13,75.37 L159.64,76.19 L160.95,77.27 L162.04,78.59 L162.86,80.10 L163.38,81.77 L163.56,83.56 L163.56,83.55 Z" fill="#eec230" stroke="#1e1e1e" stroke-width="1" stroke-linejoin="round"/><path d="M48.00,128.00 L48.00,234.66 L119.11,234.66 L119.11,136.89 L118.93,135.09 L118.42,133.43 L117.60,131.92 L116.51,130.60 L115.19,129.52 L113.68,128.70 L112.01,128.18 L110.22,128.00 L48.00,128.00 Z" fill="#f8de6d" stroke="#1e1e1e" stroke-width="1" stroke-linejoin="round"/></svg>