<svg xmlns="http://www.w3.org/2000/svg" viewBox="14.00 14.00 148.00 142.67"><path d="M122.67,16.00 L125.43,16.36 L128.00,17.43 L130.21,19.12 L131.90,21.33 L132.97,23.91 L133.33,26.67 L133.33,112.00 L132.97,114.76 L131.90,117.33 L130.21,119.54 L128.00,121.24 L125.43,122.30 L122.67,122.67 L37.33,122.67 L34.57,122.30 L32.00,121.24 L29.79,119.54 L28.10,117.33 L27.03,114.76 L26.67,112.00 L26.67,26.67 L27.03,23.91 L28.10,21.33 L29.79,19.12 L32.00,17.43 L34.57,16.36 L37.33,16.00 L122.67,16.00 Z" fill="#d257d6" stroke="#1e1e1e" stroke-width="1" stroke-linejoin="round"/><path d="M122.67,16.00 L125.43,16.36 L128.00,17.43 L130.21,19.12 L131.90,21.33 L132.97,23.91 L133.33,26.67 L133.33,112.00 L132.97,114.76 L131.90,117.33 L130.21,119.54 L128.00,121.24 L125.43,122.30 L122.67,122.67 L37.33,122.67 L34.57,122.30 L32.00,121.24 L29.79,119.54 L28.10,117.33 L27.03,114.76 L26.67,112.00 L26.67,26.67 L27.03,23.91 L28.10,21.33 L29.79,19.12 L32.00,17.43 L34.57,16.36 L37.33,16.00 L122.67,16.00 Z" fill="#372d95" stroke="#1e1e1e" stroke-width="1" stroke-linejoin="round" opacity="0.19"/><path d="M122.67,16.00 L125.43,16.36 L128.00,17.43 L130.21,19.12 L131.90,21.33 L132.97,23.91 L133.33,26.67 L133.33,112.00 L132.97,114.76 L131.90,117.33 L130.21,119.54 L128.00,121.24 L125.43,122.30 L122.67,122.67 L37.33,122.67 L34.57,122.30 L32.00,121.24 L29.79,119.54 L28.10,117.33 L27.03,114.76 L26.67,112.00 L26.67,26.67 L27.03,23.91 L28.10,21.33 L29.79,19.12 L32.00,17.43 L34.57,16.36 L37.33,16.00 L122.67,16.00 Z" fill="#85198a" stroke="#1e1e1e" stroke-width="1" stroke-linejoin="round" opacity="0.5"/><path d="M122.67,16.00 L125.43,16.36 L128.00,17.43 L130.21,19.12 L131.90,21.33 L132.97,23.91 L133.33,26.67 L133.33,112.00 L132.97,114.76 L131.90,117.33 L130.21,119.54 L128.00,121.24 L125.43,122.30 L122.67,122.67 L37.33,122.67 L34.57,122.30 L32.00,121.24 L29.79,119.54 L28.10,117.33 L27.03,114.76 L26.67,112.00 L26.67,26.67 L27.03,23.91 L28.10,21.33 L29.79,19.12 L32.00,17.43 L34.57,16.36 L37.33,16.00 L122.67,16.00 Z" fill="#fff0a8" stroke="#1e1e1e" stroke-width="1" stroke-linejoin="round" opacity="0.02"/><path d="M103.12,46.29 L104.45,44.60 L106.21,43.39 L108.26,42.75 L110.41,42.75 L112.45,43.39 L114.22,44.60 L115.55,46.29 L159.03,122.29 L159.78,124.14 L160.00,126.02 L159.73,127.84 L159.03,129.52 L157.93,130.98 L156.50,132.12 L154.78,132.87 L152.82,133.14 L65.85,133.14 L63.89,132.87 L62.16,132.12 L60.73,130.98 L59.64,129.52 L58.94,127.84 L58.67,126.02 L58.89,124.14 L59.64,122.29 L103.12,46.29 Z" fill="#df75e3" stroke="#1e1e1e" stroke-width="1" stroke-linejoin="round"/><path d="M103.12,46.29 L104.45,44.60 L106.21,43.39 L108.26,42.75 L110.41,42.75 L112.45,43.39 L114.22,44.60 L115.55,46.29 L159.03,122.29 L159.78,124.14 L160.00,126.02 L159.73,127.84 L159.03,129.52 L157.93,130.98 L156.50,132.12 L154.78,132.87 L152.82,133.14 L65.85,133.14 L63.89,132.87 L62.16,132.12 L60.73,130.98 L59.64,129.52 L58.94,127.84 L58.67,126.02 L58.89,124.14 L59.64,122.29 L103.12,46.29 Z" fill="#372d95" stroke="#1e1e1e" stroke-width="1" stroke-linejoin="round" opacity="0.2"/><path d="M103.12,46.29 L104.45,44.60 L106.21,43.39 L108.26,42.75 L110.41,42.75 L112.45,43.39 L114.22,44.60 L115.55,46.29 L159.03,122.29 L159.78,124.14 L160.00,126.02 L159.73,127.84 L159.03,129.52 L157.93,130.98 L156.50,132.12 L154.78,132.87 L152.82,133.14 L65.85,133.14 L63.89,132.87 L62.16,132.12 L60.73,130.98 L59.64,129.52 L58.94,127.84 L58.67,126.02 L58.89,124.14 L59.64,122.29 L103.12,46.29 Z" fill="#fff0a8" stroke="#1e1e1e" stroke-width="1" stroke-linejoin="round" opacity="0.05"/><ellipse cx="58.67" cy="112.00" rx="42.67" ry="42.67" fill="#e783ea" stroke="#1e1e1e" stroke-width="1"/><ellipse cx="58.67" cy="112.00" rx="42.67" ry="42.67" fill="#fff0a8" stroke="#1e1e1e" stroke-width="1" opacity="0.05"/></svg>