<svg xmlns="http://www.w3.org/2000/svg" viewBox="14.25 3.33 78.67 100.00"><path d="M16.25,16.00 L16.61,13.24 L17.68,10.67 L19.37,8.46 L21.58,6.76 L24.16,5.70 L26.92,5.33 L80.25,5.33 L83.01,5.70 L85.58,6.76 L87.79,8.46 L89.49,10.67 L90.55,13.24 L90.92,16.00 L90.92,90.67 L90.55,93.43 L89.49,96.00 L87.79,98.21 L85.58,99.90 L83.01,100.97 L80.25,101.33 L26.92,101.33 L24.16,100.97 L21.58,99.90 L19.37,98.21 L17.68,96.00 L16.61,93.43 L16.25,90.67 L16.25,16.00 Z" fill="#f5f5f5" stroke="#1e1e1e" stroke-width="1" stroke-linejoin="round"/><path d="M16.25,16.00 L16.61,13.24 L17.68,10.67 L19.37,8.46 L21.58,6.76 L24.16,5.70 L26.92,5.33 L80.25,5.33 L83.01,5.70 L85.58,6.76 L87.79,8.46 L89.49,10.67 L90.55,13.24 L90.92,16.00 L90.92,90.67 L90.55,93.43 L89.49,96.00 L87.79,98.21 L85.58,99.90 L83.01,100.97 L80.25,101.33 L26.92,101.33 L24.16,100.97 L21.58,99.90 L19.37,98.21 L17.68,96.00 L16.61,93.43 L16.25,90.67 L16.25,16.00 Z" fill="#e3e3e3" stroke="#1e1e1e" stroke-width="1" stroke-linejoin="round" opacity="0.2"/><path d="M90.92,16.00 L90.55,13.24 L89.49,10.67 L87.79,8.46 L85.58,6.76 L83.01,5.70 L80.25,5.33 L26.92,5.33 L24.16,5.70 L21.58,6.76 L19.37,8.46 L17.68,10.67 L16.61,13.24 L16.25,16.00 L16.25,90.67 L16.61,93.43 L17.68,96.00 L19.37,98.21 L21.58,99.90 L24.16,100.97 L26.92,101.33 L80.25,101.33 L83.01,100.97 L85.58,99.90 L87.79,98.21 L89.49,96.00 L90.55,93.43 L90.92,90.67 L90.92,16.00 Z" fill="#a2a2a2" stroke="#1e1e1e" stroke-width="1" stroke-linejoin="round"/><path d="M26.92,10.67 L80.25,10.67 L82.29,11.07 L84.02,12.23 L85.18,13.96 L85.58,16.00 L85.58,72.00 L85.19,74.47 L84.06,76.70 L82.29,78.47 L80.06,79.61 L77.58,80.00 L26.92,80.00 L24.16,80.36 L21.58,81.43 L21.58,16.00 L21.99,13.96 L23.15,12.23 L24.88,11.07 L26.92,10.67 Z" fill="#f1f1f1" stroke="#1e1e1e" stroke-width="1" stroke-linejoin="round"/><path d="M21.58,90.67 L21.99,92.71 L23.15,94.44 L24.88,95.59 L26.92,96.00 L80.25,96.00 L82.29,95.59 L84.02,94.44 L85.18,92.71 L85.58,90.67 L85.58,82.67 L83.13,84.13 L80.42,85.03 L77.58,85.33 L26.92,85.33 L24.88,85.74 L23.15,86.90 L21.99,88.63 L21.58,90.67 Z" fill="#f1f1f1" stroke="#1e1e1e" stroke-width="1" stroke-linejoin="round"/><path d="M61.25,24.65 L61.26,23.25 L60.55,22.04 L59.33,21.35 L57.93,21.38 L56.74,22.12 L56.08,23.35 L46.75,60.69 L46.80,62.05 L47.51,63.21 L48.70,63.86 L50.06,63.84 L51.24,63.16 L51.92,61.98 L61.25,24.65 Z" fill="#45903e" stroke="#1e1e1e" stroke-width="1" stroke-linejoin="round"/><path d="M64.62,29.62 L63.93,30.81 L63.93,32.19 L64.62,33.39 L73.90,42.67 L64.62,51.95 L63.90,53.14 L63.89,54.54 L64.59,55.75 L65.80,56.44 L67.19,56.43 L68.39,55.72 L79.18,44.93 L79.87,43.89 L80.11,42.67 L79.87,41.44 L79.18,40.41 L68.39,29.62 L67.19,28.93 L65.81,28.93 L64.62,29.62 L64.62,29.62 Z" fill="#45903e" stroke="#1e1e1e" stroke-width="1" stroke-linejoin="round"/><path d="M42.22,29.78 L42.91,30.98 L42.91,32.36 L42.22,33.55 L33.10,42.67 L42.22,51.78 L42.88,52.97 L42.87,54.34 L42.19,55.52 L41.01,56.21 L39.64,56.22 L38.45,55.55 L27.82,44.93 L27.13,43.89 L26.89,42.67 L27.13,41.44 L27.82,40.41 L38.45,29.78 L39.64,29.09 L41.02,29.09 L42.22,29.78 Z" fill="#45903e" stroke="#1e1e1e" stroke-width="1" stroke-linejoin="round"/></svg>