<svg xmlns="http://www.w3.org/2000/svg" viewBox="8.67 8.67 121.23 121.33"><path d="M10.67,26.67 L11.07,23.11 L12.25,19.72 L14.16,16.69 L16.69,14.16 L19.72,12.25 L23.11,11.07 L26.67,10.67 L101.33,10.67 L104.89,11.07 L108.28,12.25 L111.31,14.16 L113.84,16.69 L115.75,19.72 L116.93,23.11 L117.33,26.67 L117.33,101.33 L116.93,104.89 L115.75,108.28 L113.84,111.31 L111.31,113.84 L108.28,115.75 L104.89,116.93 L101.33,117.33 L26.67,117.33 L23.11,116.93 L19.72,115.75 L16.69,113.84 L14.16,111.31 L12.25,108.28 L11.07,104.89 L10.67,101.33 L10.67,26.67 Z" fill="#f5f5f5" stroke="#1e1e1e" stroke-width="1" stroke-linejoin="round"/><path d="M10.67,26.67 L11.07,23.11 L12.25,19.72 L14.16,16.69 L16.69,14.16 L19.72,12.25 L23.11,11.07 L26.67,10.67 L101.33,10.67 L104.89,11.07 L108.28,12.25 L111.31,14.16 L113.84,16.69 L115.75,19.72 L116.93,23.11 L117.33,26.67 L117.33,101.33 L116.93,104.89 L115.75,108.28 L113.84,111.31 L111.31,113.84 L108.28,115.75 L104.89,116.93 L101.33,117.33 L26.67,117.33 L23.11,116.93 L19.72,115.75 L16.69,113.84 L14.16,111.31 L12.25,108.28 L11.07,104.89 L10.67,101.33 L10.67,26.67 Z" fill="#e3e3e3" stroke="#1e1e1e" stroke-width="1" stroke-linejoin="round" opacity="0.2"/><path d="M26.67,10.67 L23.11,11.07 L19.72,12.25 L16.69,14.16 L14.16,16.69 L12.25,19.72 L11.07,23.11 L10.67,26.67 L10.67,101.33 L11.07,104.89 L12.25,108.28 L14.16,111.31 L16.69,113.84 L19.72,115.75 L23.11,116.93 L26.67,117.33 L101.33,117.33 L104.89,116.93 L108.28,115.75 L111.31,113.84 L113.84,111.31 L115.75,108.28 L116.93,104.89 L117.33,101.33 L117.33,26.67 L116.93,23.11 L115.75,19.72 L113.84,16.69 L111.31,14.16 L108.28,12.25 L104.89,11.07 L101.33,10.67 L26.67,10.67 Z" fill="#a2a2a2" stroke="#1e1e1e" stroke-width="1" stroke-linejoin="round"/><path d="M101.33,16.00 L26.67,16.00 L23.91,16.36 L21.33,17.43 L19.12,19.12 L17.43,21.33 L16.36,23.91 L16.00,26.67 L16.00,101.33 L16.36,104.09 L17.43,106.67 L19.12,108.88 L21.33,110.57 L23.91,111.64 L26.67,112.00 L101.33,112.00 L104.09,111.64 L106.67,110.57 L108.88,108.88 L110.57,106.67 L111.64,104.09 L112.00,101.33 L112.00,26.67 L111.64,23.91 L110.57,21.33 L108.88,19.12 L106.67,17.43 L104.09,16.36 L101.33,16.00 Z" fill="#f1f1f1" stroke="#1e1e1e" stroke-width="1" stroke-linejoin="round"/><path d="M38.67,56.00 L40.95,55.60 L42.95,54.44 L44.44,52.67 L45.23,50.49 L45.23,48.18 L44.44,46.00 L42.95,44.23 L40.95,43.07 L38.67,42.67 L36.39,43.07 L34.38,44.23 L32.89,46.00 L32.10,48.18 L32.10,50.49 L32.89,52.67 L34.38,54.44 L36.39,55.60 L38.67,56.00 Z" fill="#6848aa" stroke="#6848aa" stroke-width="1" stroke-linejoin="round"/><path d="M64.00,56.00 L66.28,55.60 L68.29,54.44 L69.77,52.67 L70.57,50.49 L70.57,48.18 L69.77,46.00 L68.29,44.23 L66.28,43.07 L64.00,42.67 L61.72,43.07 L59.71,44.23 L58.23,46.00 L57.43,48.18 L57.43,50.49 L58.23,52.67 L59.71,54.44 L61.72,55.60 L64.00,56.00 Z" fill="#6848aa" stroke="#6848aa" stroke-width="1" stroke-linejoin="round"/><path d="M70.67,78.67 L70.26,80.95 L69.11,82.95 L67.33,84.44 L65.16,85.23 L62.84,85.23 L60.67,84.44 L58.89,82.95 L57.74,80.95 L57.33,78.67 L57.74,76.39 L58.89,74.38 L60.67,72.89 L62.84,72.10 L65.16,72.10 L67.33,72.89 L69.11,74.38 L70.26,76.39 L70.67,78.67 Z" fill="#6848aa" stroke="#6848aa" stroke-width="1" stroke-linejoin="round"/><path d="M38.67,85.33 L40.95,84.93 L42.95,83.77 L44.44,82.00 L45.23,79.82 L45.23,77.51 L44.44,75.33 L42.95,73.56 L40.95,72.40 L38.67,72.00 L36.39,72.40 L34.38,73.56 L32.89,75.33 L32.10,77.51 L32.10,79.82 L32.89,82.00 L34.38,83.77 L36.39,84.93 L38.67,85.33 Z" fill="#6848aa" stroke="#6848aa" stroke-width="1" stroke-linejoin="round"/><path d="M96.00,49.33 L95.60,51.61 L94.44,53.62 L92.67,55.11 L90.49,55.90 L88.18,55.90 L86.00,55.11 L84.23,53.62 L83.07,51.61 L82.67,49.33 L83.07,47.05 L84.23,45.05 L86.00,43.56 L88.18,42.77 L90.49,42.77 L92.67,43.56 L94.44,45.05 L95.60,47.05 L96.00,49.33 Z" fill="#6848aa" stroke="#6848aa" stroke-width="1" stroke-linejoin="round"/><path d="M77.33,80.00 L72.92,80.41 L68.66,81.62 L64.70,83.59 L61.16,86.26 L58.18,89.54 L55.85,93.30 L54.25,97.43 L53.44,101.79 L53.44,106.21 L54.25,110.57 L55.85,114.70 L58.18,118.46 L61.16,121.74 L64.70,124.41 L68.66,126.38 L72.92,127.59 L77.33,128.00 L104.00,128.00 L108.41,127.59 L112.67,126.38 L116.63,124.41 L120.17,121.74 L123.15,118.46 L125.48,114.70 L127.08,110.57 L127.90,106.21 L127.90,101.79 L127.08,97.43 L125.48,93.30 L123.15,89.54 L120.17,86.26 L116.63,83.59 L112.67,81.62 L108.41,80.41 L104.00,80.00 L77.33,80.00 Z" fill="#f5f5f5" stroke="#1e1e1e" stroke-width="1" stroke-linejoin="round"/><path d="M58.67,104.00 L59.03,100.36 L60.09,96.86 L61.81,93.63 L64.13,90.80 L66.96,88.48 L70.19,86.75 L73.69,85.69 L77.33,85.33 L82.67,85.33 L84.00,85.69 L84.98,86.67 L85.33,88.00 L84.98,89.33 L84.00,90.31 L82.67,90.67 L77.33,90.67 L74.14,91.05 L71.14,92.19 L68.49,94.02 L66.36,96.43 L64.87,99.27 L64.10,102.39 L64.10,105.61 L64.87,108.73 L66.36,111.57 L68.49,113.98 L71.14,115.81 L74.14,116.95 L77.33,117.33 L82.67,117.33 L84.00,117.69 L84.98,118.67 L85.33,120.00 L84.98,121.33 L84.00,122.31 L82.67,122.67 L77.33,122.67 L73.69,122.31 L70.19,121.25 L66.96,119.52 L64.13,117.20 L61.81,114.37 L60.09,111.14 L59.03,107.64 L58.67,104.00 Z" fill="#6848aa" stroke="#1e1e1e" stroke-width="1" stroke-linejoin="round"/><path d="M104.00,122.67 L107.88,122.26 L111.59,121.05 L114.97,119.10 L117.87,116.49 L120.17,113.33 L121.75,109.77 L122.56,105.95 L122.56,102.05 L121.75,98.23 L120.17,94.67 L117.87,91.51 L114.97,88.90 L111.59,86.95 L107.88,85.74 L104.00,85.33 L98.33,85.33 L98.33,85.35 L97.14,85.81 L96.30,86.77 L96.00,88.00 L96.30,89.23 L97.14,90.19 L98.33,90.65 L98.33,90.67 L104.00,90.67 L107.19,91.05 L110.20,92.19 L112.84,94.02 L114.97,96.43 L116.47,99.27 L117.24,102.39 L117.24,105.61 L116.47,108.73 L114.97,111.57 L112.84,113.98 L110.20,115.81 L107.19,116.95 L104.00,117.33 L98.67,117.33 L97.33,117.69 L96.36,118.67 L96.00,120.00 L96.36,121.33 L97.33,122.31 L98.67,122.67 L104.00,122.67 Z" fill="#6848aa" stroke="#1e1e1e" stroke-width="1" stroke-linejoin="round"/><path d="M77.33,101.33 L76.00,101.69 L75.02,102.67 L74.67,104.00 L75.02,105.33 L76.00,106.31 L77.33,106.67 L104.00,106.67 L105.33,106.31 L106.31,105.33 L106.67,104.00 L106.31,102.67 L105.33,101.69 L104.00,101.33 L77.33,101.33 Z" fill="#6848aa" stroke="#6848aa" stroke-width="1" stroke-linejoin="round"/></svg>