<svg xmlns="http://www.w3.org/2000/svg" viewBox="6.73 6.73 100.00 100.00"><path d="M8.73,21.82 L9.06,18.91 L10.02,16.14 L11.58,13.66 L13.66,11.58 L16.14,10.02 L18.91,9.06 L21.82,8.73 L82.91,8.73 L85.82,9.06 L88.59,10.02 L91.07,11.58 L93.14,13.66 L94.70,16.14 L95.67,18.91 L96.00,21.82 L96.00,70.23 L95.73,73.41 L94.97,77.30 L93.76,81.56 L92.17,85.82 L91.24,87.85 L90.23,89.75 L89.15,91.48 L88.00,92.99 L86.80,94.24 L85.55,95.19 L84.25,95.79 L82.91,96.00 L21.82,96.00 L18.91,95.67 L16.14,94.70 L13.66,93.14 L11.58,91.07 L10.02,88.59 L9.06,85.82 L8.73,82.91 L8.73,21.82 Z" fill="#f5f5f5" stroke="#1e1e1e" stroke-width="1" stroke-linejoin="round"/><path d="M8.73,21.82 L9.06,18.91 L10.02,16.14 L11.58,13.66 L13.66,11.58 L16.14,10.02 L18.91,9.06 L21.82,8.73 L82.91,8.73 L85.82,9.06 L88.59,10.02 L91.07,11.58 L93.14,13.66 L94.70,16.14 L95.67,18.91 L96.00,21.82 L96.00,70.23 L95.73,73.41 L94.97,77.30 L93.76,81.56 L92.17,85.82 L91.24,87.85 L90.23,89.75 L89.15,91.48 L88.00,92.99 L86.80,94.24 L85.55,95.19 L84.25,95.79 L82.91,96.00 L21.82,96.00 L18.91,95.67 L16.14,94.70 L13.66,93.14 L11.58,91.07 L10.02,88.59 L9.06,85.82 L8.73,82.91 L8.73,21.82 Z" fill="#e3e3e3" stroke="#1e1e1e" stroke-width="1" stroke-linejoin="round" opacity="0.2"/><path d="M21.82,8.73 L18.91,9.06 L16.14,10.02 L13.66,11.58 L11.58,13.66 L10.02,16.14 L9.06,18.91 L8.73,21.82 L8.73,82.91 L9.06,85.82 L10.02,88.59 L11.58,91.07 L13.66,93.14 L16.14,94.70 L18.91,95.67 L21.82,96.00 L82.91,96.00 L84.25,95.80 L85.55,95.24 L86.80,94.34 L88.00,93.16 L89.15,91.73 L90.23,90.10 L91.24,88.30 L92.17,86.37 L93.76,82.30 L94.97,78.22 L95.73,74.45 L96.00,71.32 L96.00,21.82 L95.67,18.91 L94.70,16.14 L93.14,13.66 L91.07,11.58 L88.59,10.02 L85.82,9.06 L82.91,8.73 L21.82,8.73 Z" fill="#a2a2a2" stroke="#1e1e1e" stroke-width="1" stroke-linejoin="round"/><path d="M82.91,13.09 L21.82,13.09 L19.56,13.39 L17.45,14.26 L15.65,15.65 L14.26,17.45 L13.39,19.56 L13.09,21.82 L13.09,82.91 L13.39,85.17 L14.26,87.27 L15.65,89.08 L17.45,90.47 L19.56,91.34 L21.82,91.64 L82.91,91.64 L85.17,91.34 L87.27,90.47 L89.08,89.08 L90.47,87.27 L91.34,85.17 L91.64,82.91 L91.64,21.82 L91.34,19.56 L90.47,17.45 L89.08,15.65 L87.27,14.26 L85.17,13.39 L82.91,13.09 Z" fill="#f1f1f1" stroke="#1e1e1e" stroke-width="1" stroke-linejoin="round"/><path d="M37.78,48.44 L39.14,47.45 L40.73,46.93 L42.40,46.93 L44.00,47.45 L45.35,48.44 L56.29,59.38 L57.28,60.74 L57.79,62.33 L57.79,64.00 L57.28,65.60 L56.29,66.95 L55.45,67.79 L53.42,69.45 L51.10,70.67 L48.58,71.40 L45.97,71.62 L43.36,71.31 L40.87,70.49 L38.60,69.19 L29.95,77.90 L28.97,78.47 L27.84,78.48 L26.86,77.91 L26.29,76.94 L26.29,75.81 L26.85,74.83 L35.51,66.10 L34.22,63.82 L33.41,61.34 L33.10,58.74 L33.32,56.13 L34.06,53.62 L35.28,51.30 L36.93,49.28 L37.78,48.44 Z" fill="#45903e" stroke="#1e1e1e" stroke-width="1" stroke-linejoin="round"/><path d="M74.86,26.79 L75.85,26.29 L76.95,26.33 L77.89,26.91 L78.43,27.88 L78.42,28.98 L77.87,29.94 L69.03,38.37 L70.40,40.65 L71.27,43.17 L71.62,45.81 L71.43,48.46 L70.70,51.02 L69.47,53.38 L67.79,55.45 L66.95,56.29 L65.59,57.27 L64.00,57.79 L62.33,57.79 L60.73,57.27 L59.38,56.29 L48.44,45.35 L47.45,43.99 L46.94,42.40 L46.94,40.73 L47.45,39.13 L48.44,37.78 L49.28,36.93 L51.63,35.07 L54.35,33.79 L57.29,33.16 L60.30,33.22 L63.21,33.96 L65.87,35.35 L74.86,26.79 Z" fill="#45903e" stroke="#1e1e1e" stroke-width="1" stroke-linejoin="round"/><path d="M91.48,52.40 L93.38,52.89 L95.05,53.93 L96.34,55.41 L97.13,57.21 L97.35,59.16 L96.98,61.09 L98.18,61.09 L100.04,61.36 L101.74,62.15 L103.15,63.39 L104.15,64.97 L104.66,66.77 L104.64,68.65 L104.08,70.44 L103.05,72.00 L103.67,72.80 L104.15,73.69 L104.50,74.66 L104.69,75.70 L104.73,76.36 L104.41,78.39 L103.48,80.21 L102.03,81.66 L100.20,82.59 L98.18,82.91 L93.82,82.91 L93.51,86.57 L92.59,90.14 L91.08,93.49 L89.03,96.55 L86.50,99.21 L83.55,101.42 L80.28,103.10 L76.77,104.20 L73.12,104.70 L72.00,104.73 L67.64,104.73 L65.61,104.41 L63.79,103.48 L62.34,102.03 L61.41,100.20 L61.09,98.18 L61.13,97.51 L61.28,96.63 L61.55,95.77 L59.76,94.98 L58.28,93.69 L57.25,92.02 L56.76,90.12 L56.73,89.45 L56.76,88.79 L56.95,87.75 L57.30,86.78 L57.79,85.89 L58.41,85.09 L57.29,83.37 L56.76,81.39 L56.73,80.73 L56.76,80.06 L57.23,78.20 L58.22,76.56 L59.65,75.28 L61.38,74.46 L63.27,74.18 L65.60,74.18 L66.35,70.28 L67.73,66.55 L69.69,63.10 L72.18,60.00 L75.14,57.35 L78.49,55.21 L82.14,53.64 L85.99,52.69 L89.95,52.36 L90.81,52.36 L91.48,52.40 Z" fill="#f5f5f5" stroke="#1e1e1e" stroke-width="1" stroke-linejoin="round"/><path d="M98.18,74.18 L99.27,74.47 L100.07,75.27 L100.36,76.36 L100.07,77.45 L99.27,78.25 L98.18,78.55 L92.48,78.55 L91.32,78.78 L90.34,79.43 L89.69,80.42 L89.45,81.57 L89.45,81.63 L89.45,81.68 L89.45,82.91 L89.12,86.31 L88.13,89.59 L86.51,92.61 L84.34,95.25 L81.70,97.42 L78.68,99.03 L75.41,100.03 L72.00,100.36 L67.64,100.36 L66.55,100.07 L65.75,99.27 L65.45,98.18 L65.75,97.09 L66.55,96.29 L67.64,96.00 L72.00,96.00 L74.91,95.67 L77.68,94.70 L80.16,93.14 L82.23,91.07 L83.79,88.59 L84.76,85.82 L85.09,82.91 L85.09,81.68 L85.10,81.63 L85.09,81.57 L85.24,80.08 L85.67,78.70 L86.35,77.44 L87.26,76.35 L88.35,75.44 L89.61,74.76 L90.99,74.33 L92.48,74.18 L98.18,74.18 Z" fill="#45903e" stroke="#1e1e1e" stroke-width="1" stroke-linejoin="round"/><path d="M98.18,65.45 L99.27,65.75 L100.07,66.55 L100.36,67.64 L100.07,68.73 L99.27,69.53 L98.18,69.82 L91.19,69.82 L89.52,69.99 L87.97,70.47 L86.56,71.23 L85.34,72.24 L84.32,73.47 L83.56,74.88 L83.08,76.43 L82.91,78.10 L82.91,78.55 L82.58,81.46 L81.61,84.23 L80.05,86.71 L77.98,88.78 L75.50,90.34 L72.73,91.31 L69.82,91.64 L63.27,91.64 L62.18,91.34 L61.38,90.55 L61.09,89.45 L61.38,88.36 L62.18,87.57 L63.27,87.27 L69.82,87.27 L72.08,86.98 L74.18,86.10 L75.99,84.72 L77.38,82.91 L78.25,80.80 L78.55,78.55 L78.55,77.90 L78.55,77.82 L78.92,75.05 L79.89,72.44 L81.41,70.09 L83.40,68.14 L85.78,66.68 L88.42,65.76 L91.19,65.45 L98.18,65.45 Z" fill="#45903e" stroke="#1e1e1e" stroke-width="1" stroke-linejoin="round"/><path d="M90.81,56.73 L91.90,57.02 L92.70,57.82 L92.99,58.91 L92.70,60.00 L91.90,60.80 L90.81,61.09 L89.95,61.09 L86.88,61.39 L83.92,62.29 L81.19,63.75 L78.80,65.71 L76.84,68.10 L75.38,70.83 L74.48,73.78 L74.18,76.86 L73.86,78.74 L72.98,80.42 L71.62,81.76 L69.93,82.61 L68.05,82.91 L63.27,82.91 L62.18,82.62 L61.38,81.82 L61.09,80.73 L61.38,79.64 L62.18,78.84 L63.27,78.55 L68.05,78.55 L68.93,78.31 L69.58,77.66 L69.82,76.77 L69.82,76.74 L70.14,73.26 L71.07,69.89 L72.56,66.72 L74.57,63.87 L77.05,61.40 L79.92,59.41 L83.09,57.93 L86.47,57.03 L89.95,56.73 L90.81,56.73 Z" fill="#45903e" stroke="#1e1e1e" stroke-width="1" stroke-linejoin="round"/></svg>