<svg xmlns="http://www.w3.org/2000/svg" viewBox="8.64 8.64 100.00 99.75"><path d="M10.64,23.94 L10.97,20.98 L11.96,18.17 L13.54,15.65 L15.65,13.54 L18.17,11.96 L20.98,10.97 L23.94,10.64 L82.45,10.64 L85.41,10.97 L88.22,11.96 L90.74,13.54 L92.85,15.65 L94.43,18.17 L95.42,20.98 L95.75,23.94 L95.75,82.45 L95.42,85.41 L94.43,88.22 L92.85,90.74 L90.74,92.85 L88.22,94.43 L85.41,95.42 L82.45,95.75 L23.94,95.75 L20.98,95.42 L18.17,94.43 L15.65,92.85 L13.54,90.74 L11.96,88.22 L10.97,85.41 L10.64,82.45 L10.64,23.94 Z" fill="#f5f5f5" stroke="#1e1e1e" stroke-width="1" stroke-linejoin="round"/><path d="M10.64,23.94 L10.97,20.98 L11.96,18.17 L13.54,15.65 L15.65,13.54 L18.17,11.96 L20.98,10.97 L23.94,10.64 L82.45,10.64 L85.41,10.97 L88.22,11.96 L90.74,13.54 L92.85,15.65 L94.43,18.17 L95.42,20.98 L95.75,23.94 L95.75,82.45 L95.42,85.41 L94.43,88.22 L92.85,90.74 L90.74,92.85 L88.22,94.43 L85.41,95.42 L82.45,95.75 L23.94,95.75 L20.98,95.42 L18.17,94.43 L15.65,92.85 L13.54,90.74 L11.96,88.22 L10.97,85.41 L10.64,82.45 L10.64,23.94 Z" fill="#e3e3e3" stroke="#1e1e1e" stroke-width="1" stroke-linejoin="round" opacity="0.2"/><path d="M23.94,10.64 L20.98,10.97 L18.17,11.96 L15.65,13.54 L13.54,15.65 L11.96,18.17 L10.97,20.98 L10.64,23.94 L10.64,82.45 L10.97,85.41 L11.96,88.22 L13.54,90.74 L15.65,92.85 L18.17,94.43 L20.98,95.42 L23.94,95.75 L82.45,95.75 L85.41,95.42 L88.22,94.43 L90.74,92.85 L92.85,90.74 L94.43,88.22 L95.42,85.41 L95.75,82.45 L95.75,23.94 L95.42,20.98 L94.43,18.17 L92.85,15.65 L90.74,13.54 L88.22,11.96 L85.41,10.97 L82.45,10.64 L23.94,10.64 Z" fill="#a2a2a2" stroke="#1e1e1e" stroke-width="1" stroke-linejoin="round"/><path d="M82.45,15.96 L23.94,15.96 L21.47,16.35 L19.25,17.48 L17.48,19.25 L16.35,21.47 L15.96,23.94 L15.96,82.45 L16.35,84.92 L17.48,87.14 L19.25,88.91 L21.47,90.04 L23.94,90.43 L82.45,90.43 L84.92,90.04 L87.14,88.91 L88.91,87.14 L90.04,84.92 L90.43,82.45 L90.43,23.94 L90.04,21.47 L88.91,19.25 L87.14,17.48 L84.92,16.35 L82.45,15.96 Z" fill="#f1f1f1" stroke="#1e1e1e" stroke-width="1" stroke-linejoin="round"/><path d="M31.92,47.87 L33.95,47.47 L35.68,46.32 L36.83,44.59 L37.24,42.56 L36.83,40.52 L35.68,38.79 L33.95,37.64 L31.92,37.24 L29.88,37.64 L28.16,38.79 L27.00,40.52 L26.60,42.56 L27.00,44.59 L28.16,46.32 L29.88,47.47 L31.92,47.87 Z" fill="#6848aa" stroke="#6848aa" stroke-width="1" stroke-linejoin="round"/><path d="M53.19,47.87 L55.23,47.47 L56.96,46.32 L58.11,44.59 L58.51,42.56 L58.11,40.52 L56.96,38.79 L55.23,37.64 L53.19,37.24 L51.16,37.64 L49.43,38.79 L48.28,40.52 L47.87,42.56 L48.28,44.59 L49.43,46.32 L51.16,47.47 L53.19,47.87 Z" fill="#6848aa" stroke="#6848aa" stroke-width="1" stroke-linejoin="round"/><path d="M79.79,42.56 L79.39,44.59 L78.23,46.32 L76.51,47.47 L74.47,47.87 L72.44,47.47 L70.71,46.32 L69.56,44.59 L69.15,42.56 L69.56,40.52 L70.71,38.79 L72.44,37.64 L74.47,37.24 L76.51,37.64 L78.23,38.79 L79.39,40.52 L79.79,42.56 Z" fill="#6848aa" stroke="#6848aa" stroke-width="1" stroke-linejoin="round"/><path d="M53.19,69.15 L55.23,68.75 L56.96,67.59 L58.11,65.87 L58.51,63.83 L58.11,61.80 L56.96,60.07 L55.23,58.92 L53.19,58.51 L51.16,58.92 L49.43,60.07 L48.28,61.80 L47.87,63.83 L48.28,65.87 L49.43,67.59 L51.16,68.75 L53.19,69.15 Z" fill="#6848aa" stroke="#6848aa" stroke-width="1" stroke-linejoin="round"/><path d="M37.24,63.83 L36.83,65.87 L35.68,67.59 L33.95,68.75 L31.92,69.15 L29.88,68.75 L28.16,67.59 L27.00,65.87 L26.60,63.83 L27.00,61.80 L28.16,60.07 L29.88,58.92 L31.92,58.51 L33.95,58.92 L35.68,60.07 L36.83,61.80 L37.24,63.83 Z" fill="#6848aa" stroke="#6848aa" stroke-width="1" stroke-linejoin="round"/><path d="M70.85,74.53 L68.73,71.54 L67.34,68.14 L66.76,64.51 L67.02,60.85 L68.12,57.35 L69.99,54.19 L72.52,51.54 L75.60,49.54 L79.06,48.30 L82.70,47.87 L86.35,48.30 L89.80,49.54 L92.88,51.54 L95.42,54.19 L97.28,57.35 L98.38,60.85 L98.65,64.51 L98.07,68.14 L96.68,71.54 L94.55,74.53 L97.74,75.22 L100.68,76.68 L103.16,78.80 L105.05,81.47 L106.24,84.52 L106.64,87.77 L106.23,91.52 L105.01,95.08 L103.04,98.29 L100.40,100.99 L98.74,102.23 L96.92,103.31 L94.93,104.24 L92.79,105.01 L90.49,105.61 L88.04,106.04 L85.44,106.30 L82.70,106.39 L79.96,106.30 L77.36,106.04 L74.92,105.61 L72.62,105.01 L70.48,104.25 L68.49,103.32 L66.66,102.24 L65.00,101.00 L62.36,98.30 L60.39,95.09 L59.17,91.52 L58.76,87.77 L59.17,84.52 L60.35,81.47 L62.24,78.80 L64.73,76.68 L67.66,75.22 L70.85,74.53 L70.85,74.53 Z" fill="#f5f5f5" stroke="#1e1e1e" stroke-width="1" stroke-linejoin="round"/><path d="M82.70,74.47 L85.45,74.11 L88.02,73.05 L90.22,71.36 L91.91,69.15 L92.98,66.59 L93.34,63.83 L92.98,61.08 L91.91,58.51 L90.22,56.31 L88.02,54.62 L85.45,53.56 L82.70,53.19 L79.95,53.56 L77.38,54.62 L75.18,56.31 L73.49,58.51 L72.43,61.08 L72.06,63.83 L72.43,66.59 L73.49,69.15 L75.18,71.36 L77.38,73.05 L79.95,74.11 L82.70,74.47 Z" fill="#6848aa" stroke="#1e1e1e" stroke-width="1" stroke-linejoin="round"/><path d="M82.70,101.07 L85.10,100.99 L87.32,100.77 L89.36,100.41 L91.22,99.92 L92.91,99.32 L94.44,98.61 L95.80,97.80 L97.00,96.90 L98.04,95.93 L98.94,94.89 L100.28,92.64 L101.06,90.24 L101.32,87.77 L100.93,85.31 L99.80,83.08 L98.03,81.32 L95.81,80.18 L93.34,79.79 L72.06,79.79 L69.60,80.18 L67.37,81.32 L65.61,83.08 L64.47,85.31 L64.08,87.77 L64.34,90.25 L65.12,92.65 L66.47,94.90 L67.36,95.94 L68.41,96.91 L69.61,97.81 L70.97,98.61 L72.49,99.32 L74.18,99.93 L76.04,100.41 L78.08,100.77 L80.30,100.99 L82.70,101.07 Z" fill="#6848aa" stroke="#1e1e1e" stroke-width="1" stroke-linejoin="round"/></svg>