<svg xmlns="http://www.w3.org/2000/svg" viewBox="8.67 8.67 110.67 110.67"><path d="M10.67,26.67 L11.07,23.11 L12.25,19.72 L14.16,16.69 L16.69,14.16 L19.72,12.25 L23.11,11.07 L26.67,10.67 L101.33,10.67 L104.89,11.07 L108.28,12.25 L111.31,14.16 L113.84,16.69 L115.75,19.72 L116.93,23.11 L117.33,26.67 L117.33,101.33 L116.93,104.89 L115.75,108.28 L113.84,111.31 L111.31,113.84 L108.28,115.75 L104.89,116.93 L101.33,117.33 L26.67,117.33 L23.11,116.93 L19.72,115.75 L16.69,113.84 L14.16,111.31 L12.25,108.28 L11.07,104.89 L10.67,101.33 L10.67,26.67 Z" fill="#f5f5f5" stroke="#1e1e1e" stroke-width="1" stroke-linejoin="round"/><path d="M10.67,26.67 L11.07,23.11 L12.25,19.72 L14.16,16.69 L16.69,14.16 L19.72,12.25 L23.11,11.07 L26.67,10.67 L101.33,10.67 L104.89,11.07 L108.28,12.25 L111.31,14.16 L113.84,16.69 L115.75,19.72 L116.93,23.11 L117.33,26.67 L117.33,101.33 L116.93,104.89 L115.75,108.28 L113.84,111.31 L111.31,113.84 L108.28,115.75 L104.89,116.93 L101.33,117.33 L26.67,117.33 L23.11,116.93 L19.72,115.75 L16.69,113.84 L14.16,111.31 L12.25,108.28 L11.07,104.89 L10.67,101.33 L10.67,26.67 Z" fill="#e3e3e3" stroke="#1e1e1e" stroke-width="1" stroke-linejoin="round" opacity="0.2"/><path d="M26.67,10.67 L23.11,11.07 L19.72,12.25 L16.69,14.16 L14.16,16.69 L12.25,19.72 L11.07,23.11 L10.67,26.67 L10.67,101.33 L11.07,104.89 L12.25,108.28 L14.16,111.31 L16.69,113.84 L19.72,115.75 L23.11,116.93 L26.67,117.33 L101.33,117.33 L104.89,116.93 L108.28,115.75 L111.31,113.84 L113.84,111.31 L115.75,108.28 L116.93,104.89 L117.33,101.33 L117.33,26.67 L116.93,23.11 L115.75,19.72 L113.84,16.69 L111.31,14.16 L108.28,12.25 L104.89,11.07 L101.33,10.67 L26.67,10.67 Z" fill="#a2a2a2" stroke="#1e1e1e" stroke-width="1" stroke-linejoin="round"/><path d="M101.33,16.00 L26.67,16.00 L23.91,16.36 L21.33,17.43 L19.12,19.12 L17.43,21.33 L16.36,23.91 L16.00,26.67 L16.00,101.33 L16.36,104.09 L17.43,106.67 L19.12,108.88 L21.33,110.57 L23.91,111.64 L26.67,112.00 L101.33,112.00 L104.09,111.64 L106.67,110.57 L108.88,108.88 L110.57,106.67 L111.64,104.09 L112.00,101.33 L112.00,26.67 L111.64,23.91 L110.57,21.33 L108.88,19.12 L106.67,17.43 L104.09,16.36 L101.33,16.00 Z" fill="#f1f1f1" stroke="#1e1e1e" stroke-width="1" stroke-linejoin="round"/><path d="M85.33,37.33 L88.23,37.73 L90.90,38.90 L93.16,40.75 L94.83,43.15 L95.79,45.91 L95.97,48.82 L95.35,51.68 L93.97,54.25 L91.95,56.36 L89.44,57.85 L86.61,58.59 L83.69,58.54 L80.90,57.70 L78.43,56.13 L76.48,53.96 L75.20,51.33 L69.83,51.33 L68.50,51.69 L67.53,52.67 L67.17,54.00 L67.17,75.33 L67.53,76.67 L68.50,77.64 L69.83,78.00 L74.86,78.00 L75.84,75.16 L77.57,72.70 L79.91,70.83 L82.69,69.68 L85.68,69.35 L88.63,69.87 L91.33,71.19 L93.55,73.21 L95.12,75.78 L95.91,78.67 L95.86,81.68 L94.98,84.55 L93.33,87.06 L91.05,89.01 L88.31,90.24 L85.33,90.67 L82.69,90.33 L80.21,89.36 L78.05,87.79 L76.34,85.74 L75.20,83.33 L69.83,83.33 L67.36,82.94 L65.13,81.81 L63.36,80.04 L62.23,77.81 L61.83,75.33 L61.83,67.00 L52.90,67.00 L51.70,69.67 L49.82,71.91 L47.40,73.56 L44.63,74.49 L41.70,74.63 L38.85,73.97 L36.29,72.56 L34.21,70.51 L32.76,67.97 L32.05,65.13 L32.15,62.21 L33.03,59.42 L34.64,56.97 L36.85,55.06 L39.50,53.82 L42.39,53.34 L45.29,53.67 L48.00,54.77 L50.31,56.57 L52.04,58.93 L53.07,61.67 L61.83,61.67 L61.83,54.00 L62.23,51.53 L63.36,49.30 L65.13,47.53 L67.36,46.39 L69.83,46.00 L74.86,46.00 L75.81,43.22 L77.47,40.80 L79.74,38.93 L82.42,37.74 L85.33,37.33" fill="none" stroke="#1e1e1e" stroke-width="1" stroke-linejoin="round"/></svg>