<svg xmlns="http://www.w3.org/2000/svg" viewBox="6.72 6.72 99.82 100.00"><path d="M8.72,21.80 L9.05,18.89 L10.01,16.12 L11.57,13.64 L13.64,11.57 L16.12,10.01 L18.89,9.05 L21.80,8.72 L82.83,8.72 L85.74,9.05 L88.51,10.01 L90.99,11.57 L93.06,13.64 L94.61,16.12 L95.58,18.89 L95.91,21.80 L95.91,82.83 L95.58,85.74 L94.61,88.51 L93.06,90.99 L90.99,93.06 L88.51,94.61 L85.74,95.58 L82.83,95.91 L21.80,95.91 L18.89,95.58 L16.12,94.61 L13.64,93.06 L11.57,90.99 L10.01,88.51 L9.05,85.74 L8.72,82.83 L8.72,21.80 Z" fill="#f5f5f5" stroke="#1e1e1e" stroke-width="1" stroke-linejoin="round"/><path d="M8.72,21.80 L9.05,18.89 L10.01,16.12 L11.57,13.64 L13.64,11.57 L16.12,10.01 L18.89,9.05 L21.80,8.72 L82.83,8.72 L85.74,9.05 L88.51,10.01 L90.99,11.57 L93.06,13.64 L94.61,16.12 L95.58,18.89 L95.91,21.80 L95.91,82.83 L95.58,85.74 L94.61,88.51 L93.06,90.99 L90.99,93.06 L88.51,94.61 L85.74,95.58 L82.83,95.91 L21.80,95.91 L18.89,95.58 L16.12,94.61 L13.64,93.06 L11.57,90.99 L10.01,88.51 L9.05,85.74 L8.72,82.83 L8.72,21.80 Z" fill="#e3e3e3" stroke="#1e1e1e" stroke-width="1" stroke-linejoin="round" opacity="0.2"/><path d="M21.80,8.72 L18.89,9.05 L16.12,10.01 L13.64,11.57 L11.57,13.64 L10.01,16.12 L9.05,18.89 L8.72,21.80 L8.72,82.83 L9.05,85.74 L10.01,88.51 L11.57,90.99 L13.64,93.06 L16.12,94.61 L18.89,95.58 L21.80,95.91 L82.83,95.91 L85.74,95.58 L88.51,94.61 L90.99,93.06 L93.06,90.99 L94.61,88.51 L95.58,85.74 L95.91,82.83 L95.91,21.80 L95.58,18.89 L94.61,16.12 L93.06,13.64 L90.99,11.57 L88.51,10.01 L85.74,9.05 L82.83,8.72 L21.80,8.72 Z" fill="#a2a2a2" stroke="#1e1e1e" stroke-width="1" stroke-linejoin="round"/><path d="M82.83,13.08 L21.80,13.08 L19.54,13.38 L17.44,14.25 L15.63,15.63 L14.25,17.44 L13.38,19.54 L13.08,21.80 L13.08,82.83 L13.38,85.09 L14.25,87.19 L15.63,89.00 L17.44,90.38 L19.54,91.25 L21.80,91.55 L82.83,91.55 L85.09,91.25 L87.19,90.38 L89.00,89.00 L90.38,87.19 L91.25,85.09 L91.55,82.83 L91.55,21.80 L91.25,19.54 L90.38,17.44 L89.00,15.63 L87.19,14.25 L85.09,13.38 L82.83,13.08 Z" fill="#f1f1f1" stroke="#1e1e1e" stroke-width="1" stroke-linejoin="round"/><path d="M50.10,78.47 L69.75,78.47 L72.01,78.17 L74.11,77.30 L75.92,75.92 L77.30,74.11 L78.17,72.01 L78.47,69.75 L78.47,51.40 L78.13,49.00 L77.15,46.78 L75.59,44.92 L58.15,29.23 L56.41,28.01 L54.42,27.25 L52.32,26.99 L50.21,27.25 L48.23,28.01 L46.49,29.23 L29.05,44.92 L27.49,46.78 L26.50,49.00 L26.16,51.40 L26.16,69.75 L26.45,72.01 L27.33,74.11 L28.71,75.92 L30.52,77.30 L32.62,78.17 L34.88,78.47 L54.53,78.47 L50.10,78.47 Z" fill="#0077bd" stroke="#1e1e1e" stroke-width="1" stroke-linejoin="round"/><path d="M102.71,67.31 L101.72,66.50 L100.60,65.89 L99.38,65.52 L98.09,65.39 L76.29,65.39 L75.06,65.52 L73.89,65.87 L73.28,66.18 L72.72,66.53 L71.77,67.32 L70.80,68.53 L70.62,68.84 L70.28,69.45 L69.97,70.32 L69.84,70.84 L69.84,71.10 L69.76,72.16 L69.84,73.24 L70.10,74.17 L70.49,75.04 L71.00,75.85 L71.63,76.55 L72.06,76.99 L71.14,77.52 L70.32,78.21 L67.22,81.31 L66.02,82.96 L65.39,84.90 L65.39,86.95 L66.02,88.89 L67.22,90.55 L68.09,91.26 L69.06,91.81 L67.22,93.64 L66.02,95.30 L65.39,97.24 L65.39,99.29 L66.02,101.23 L67.22,102.89 L68.88,104.09 L70.82,104.72 L72.87,104.72 L74.81,104.09 L76.47,102.89 L78.30,101.05 L78.85,102.02 L79.56,102.89 L81.22,104.09 L83.16,104.72 L85.21,104.72 L87.15,104.09 L88.80,102.89 L91.90,99.79 L92.57,98.95 L93.08,98.00 L93.43,98.35 L94.16,98.99 L94.97,99.51 L95.83,99.90 L96.74,100.14 L97.61,100.27 L98.05,100.27 L99.33,100.14 L100.62,99.75 L101.71,99.14 L102.28,98.70 L102.54,98.44 L103.19,97.70 L103.41,97.35 L103.90,96.50 L104.25,95.60 L104.47,94.66 L104.54,93.69 L104.54,71.93 L104.41,70.65 L104.04,69.43 L103.44,68.30 L102.62,67.31 L102.71,67.31 Z" fill="#f5f5f5" stroke="#1e1e1e" stroke-width="1" stroke-linejoin="round"/><path d="M76.31,69.75 L98.11,69.75 L99.20,70.04 L100.00,70.84 L100.29,71.93 L100.29,93.73 L100.19,94.36 L99.92,94.94 L99.85,95.04 L99.45,95.45 L98.94,95.74 L98.11,95.91 L97.28,95.75 L96.57,95.27 L74.77,73.48 L74.26,72.67 L74.14,71.73 L74.43,70.82 L74.48,70.76 L74.54,70.66 L75.32,69.99 L76.31,69.75 L76.31,69.75 Z" fill="#0077bd" stroke="#1e1e1e" stroke-width="1" stroke-linejoin="round"/><path d="M76.55,81.32 L77.12,82.30 L77.12,83.42 L76.55,84.40 L73.48,87.49 L72.50,88.05 L71.37,88.05 L70.39,87.49 L69.83,86.51 L69.83,85.38 L70.39,84.40 L73.48,81.32 L74.45,80.75 L75.58,80.75 L76.56,81.32 L76.55,81.32 Z" fill="#0077bd" stroke="#0077bd" stroke-width="1" stroke-linejoin="round"/><path d="M88.89,93.65 L89.46,94.63 L89.46,95.76 L88.89,96.73 L85.80,99.82 L84.83,100.40 L83.68,100.41 L82.70,99.84 L82.13,98.85 L82.14,97.71 L82.72,96.73 L85.80,93.65 L86.78,93.09 L87.91,93.09 L88.89,93.65 L88.89,93.65 Z" fill="#0077bd" stroke="#0077bd" stroke-width="1" stroke-linejoin="round"/><path d="M82.72,87.49 L83.29,88.46 L83.29,89.59 L82.72,90.57 L73.47,99.82 L72.49,100.40 L71.35,100.41 L70.36,99.84 L69.79,98.85 L69.80,97.71 L70.39,96.73 L79.64,87.49 L80.62,86.92 L81.75,86.92 L82.72,87.49 Z" fill="#0077bd" stroke="#0077bd" stroke-width="1" stroke-linejoin="round"/></svg>