<svg xmlns="http://www.w3.org/2000/svg" viewBox="14.00 14.00 142.67 142.67"><path d="M16.00,34.67 L16.36,31.02 L17.42,27.52 L19.15,24.30 L21.47,21.47 L24.30,19.15 L27.52,17.42 L31.02,16.36 L34.67,16.00 L136.00,16.00 L139.64,16.36 L143.14,17.42 L146.37,19.15 L149.20,21.47 L151.52,24.30 L153.25,27.52 L154.31,31.02 L154.67,34.67 L154.67,136.00 L154.31,139.64 L153.25,143.14 L151.52,146.37 L149.20,149.20 L146.37,151.52 L143.14,153.25 L139.64,154.31 L136.00,154.67 L34.67,154.67 L31.02,154.31 L27.52,153.25 L24.30,151.52 L21.47,149.20 L19.15,146.37 L17.42,143.14 L16.36,139.64 L16.00,136.00 L16.00,34.67 Z" fill="#f5f5f5" stroke="#1e1e1e" stroke-width="1" stroke-linejoin="round"/><path d="M16.00,34.67 L16.36,31.02 L17.42,27.52 L19.15,24.30 L21.47,21.47 L24.30,19.15 L27.52,17.42 L31.02,16.36 L34.67,16.00 L136.00,16.00 L139.64,16.36 L143.14,17.42 L146.37,19.15 L149.20,21.47 L151.52,24.30 L153.25,27.52 L154.31,31.02 L154.67,34.67 L154.67,136.00 L154.31,139.64 L153.25,143.14 L151.52,146.37 L149.20,149.20 L146.37,151.52 L143.14,153.25 L139.64,154.31 L136.00,154.67 L34.67,154.67 L31.02,154.31 L27.52,153.25 L24.30,151.52 L21.47,149.20 L19.15,146.37 L17.42,143.14 L16.36,139.64 L16.00,136.00 L16.00,34.67 Z" fill="#e3e3e3" stroke="#1e1e1e" stroke-width="1" stroke-linejoin="round" opacity="0.2"/><path d="M34.67,16.00 L31.02,16.36 L27.52,17.42 L24.30,19.15 L21.47,21.47 L19.15,24.30 L17.42,27.52 L16.36,31.02 L16.00,34.67 L16.00,136.00 L16.36,139.64 L17.42,143.14 L19.15,146.37 L21.47,149.20 L24.30,151.52 L27.52,153.25 L31.02,154.31 L34.67,154.67 L136.00,154.67 L139.64,154.31 L143.14,153.25 L146.37,151.52 L149.20,149.20 L151.52,146.37 L153.25,143.14 L154.31,139.64 L154.67,136.00 L154.67,34.67 L154.31,31.02 L153.25,27.52 L151.52,24.30 L149.20,21.47 L146.37,19.15 L143.14,17.42 L139.64,16.36 L136.00,16.00 L34.67,16.00 Z" fill="#a2a2a2" stroke="#1e1e1e" stroke-width="1" stroke-linejoin="round"/><path d="M136.00,21.33 L34.67,21.33 L31.70,21.67 L28.88,22.65 L26.35,24.24 L24.24,26.35 L22.65,28.88 L21.67,31.70 L21.33,34.67 L21.33,136.00 L21.67,138.97 L22.65,141.79 L24.24,144.31 L26.35,146.42 L28.88,148.01 L31.70,149.00 L34.67,149.33 L136.00,149.33 L138.97,149.00 L141.79,148.01 L144.31,146.42 L146.42,144.31 L148.01,141.79 L149.00,138.97 L149.33,136.00 L149.33,34.67 L149.00,31.70 L148.01,28.88 L146.42,26.35 L144.31,24.24 L141.79,22.65 L138.97,21.67 L136.00,21.33 Z" fill="#f1f1f1" stroke="#1e1e1e" stroke-width="1" stroke-linejoin="round"/><path d="M48.00,85.33 L48.36,81.17 L49.45,77.12 L51.22,73.33 L53.61,69.91 L56.57,66.95 L60.00,64.55 L63.79,62.78 L67.83,61.70 L72.00,61.33 L76.00,61.33 L77.74,61.73 L79.13,62.84 L79.90,64.44 L79.90,66.22 L79.13,67.83 L77.74,68.94 L76.00,69.33 L72.00,69.33 L68.44,69.73 L65.06,70.92 L62.02,72.82 L59.49,75.36 L57.58,78.39 L56.40,81.77 L56.00,85.33 L56.40,88.89 L57.58,92.28 L59.49,95.31 L62.02,97.84 L65.06,99.75 L68.44,100.93 L72.00,101.33 L76.00,101.33 L77.74,101.73 L79.13,102.84 L79.90,104.44 L79.90,106.22 L79.13,107.83 L77.74,108.94 L76.00,109.33 L72.00,109.33 L67.83,108.97 L63.79,107.89 L60.00,106.12 L56.57,103.72 L53.61,100.76 L51.22,97.33 L49.45,93.54 L48.36,89.50 L48.00,85.33 Z" fill="#d26100" stroke="#1e1e1e" stroke-width="1" stroke-linejoin="round"/><path d="M122.67,85.33 L122.30,89.50 L121.22,93.54 L119.45,97.33 L117.05,100.76 L114.09,103.72 L110.67,106.12 L106.88,107.89 L102.83,108.97 L98.67,109.33 L94.67,109.33 L92.93,108.94 L91.54,107.83 L90.77,106.22 L90.77,104.44 L91.54,102.84 L92.93,101.73 L94.67,101.33 L98.67,101.33 L102.23,100.93 L105.61,99.75 L108.64,97.84 L111.18,95.31 L113.08,92.28 L114.27,88.89 L114.67,85.33 L114.27,81.77 L113.08,78.39 L111.18,75.36 L108.64,72.82 L105.61,70.92 L102.23,69.73 L98.67,69.33 L94.67,69.33 L92.93,68.94 L91.54,67.83 L90.77,66.22 L90.77,64.44 L91.54,62.84 L92.93,61.73 L94.67,61.33 L98.67,61.33 L102.83,61.70 L106.88,62.78 L110.67,64.55 L114.09,66.95 L117.05,69.91 L119.45,73.33 L121.22,77.12 L122.30,81.17 L122.67,85.33 Z" fill="#d26100" stroke="#1e1e1e" stroke-width="1" stroke-linejoin="round"/><path d="M73.33,81.33 L71.60,81.73 L70.21,82.84 L69.43,84.44 L69.43,86.22 L70.21,87.83 L71.60,88.94 L73.33,89.33 L97.33,89.33 L99.07,88.94 L100.46,87.83 L101.23,86.22 L101.23,84.44 L100.46,82.84 L99.07,81.73 L97.33,81.33 L73.33,81.33 Z" fill="#d26100" stroke="#d26100" stroke-width="1" stroke-linejoin="round"/></svg>