<svg xmlns="http://www.w3.org/2000/svg" viewBox="6.01 16.67 243.99 222.65"><path d="M242.52,176.60 L173.71,57.40 L177.28,66.61 L180.13,76.06 L182.25,85.70 L183.62,95.48 L184.24,105.33 L184.10,115.20 L172.20,114.31 L173.46,114.76 L176.36,116.01 L178.01,116.91 L179.58,117.97 L180.91,119.18 L181.82,120.52 L182.27,121.68 L182.58,122.98 L182.83,125.97 L182.64,129.42 L182.06,133.25 L181.13,137.38 L179.91,141.72 L178.45,146.20 L176.81,150.73 L173.16,159.64 L169.38,167.79 L165.88,174.56 L163.07,179.29 L158.90,185.11 L154.12,191.06 L149.02,196.86 L143.87,202.24 L138.96,206.90 L134.55,210.58 L132.63,211.96 L130.94,213.00 L129.52,213.64 L128.41,213.86 L127.38,213.77 L126.68,213.58 L126.14,213.31 L119.05,217.57 L111.68,221.69 L104.06,225.57 L96.23,229.09 L88.21,232.14 L84.14,233.45 L80.03,234.60 L75.90,235.58 L71.74,236.37 L67.55,236.96 L63.35,237.33 L207.46,237.33 L210.35,237.23 L213.16,236.94 L215.90,236.47 L218.55,235.83 L221.12,235.01 L223.60,234.04 L225.99,232.91 L228.28,231.63 L230.46,230.22 L232.54,228.68 L234.50,227.01 L236.36,225.23 L238.09,223.34 L239.69,221.34 L242.52,217.08 L244.79,212.51 L245.72,210.12 L246.49,207.67 L247.11,205.18 L247.57,202.64 L247.86,200.07 L247.99,197.47 L247.95,194.86 L247.74,192.23 L247.34,189.59 L246.76,186.96 L245.99,184.33 L245.03,181.73 L243.88,179.15 L242.52,176.60 L242.52,176.60 Z" fill="#024ab0" stroke="#1e1e1e" stroke-width="1" stroke-linejoin="round"/><path d="M242.52,176.60 L173.71,57.40 L177.28,66.61 L180.13,76.06 L182.25,85.70 L183.62,95.48 L184.24,105.33 L184.10,115.20 L172.20,114.31 L173.46,114.76 L176.36,116.01 L178.01,116.91 L179.58,117.97 L180.91,119.18 L181.82,120.52 L182.27,121.68 L182.58,122.98 L182.83,125.97 L182.64,129.42 L182.06,133.25 L181.13,137.38 L179.91,141.72 L178.45,146.20 L176.81,150.73 L173.16,159.64 L169.38,167.79 L165.88,174.56 L163.07,179.29 L158.90,185.11 L154.12,191.06 L149.02,196.86 L143.87,202.24 L138.96,206.90 L134.55,210.58 L132.63,211.96 L130.94,213.00 L129.52,213.64 L128.41,213.86 L127.38,213.77 L126.68,213.58 L126.14,213.31 L119.05,217.57 L111.68,221.69 L104.06,225.57 L96.23,229.09 L88.21,232.14 L84.14,233.45 L80.03,234.60 L75.90,235.58 L71.74,236.37 L67.55,236.96 L63.35,237.33 L207.46,237.33 L210.35,237.23 L213.16,236.94 L215.90,236.47 L218.55,235.83 L221.12,235.01 L223.60,234.04 L225.99,232.91 L228.28,231.63 L230.46,230.22 L232.54,228.68 L234.50,227.01 L236.36,225.23 L238.09,223.34 L239.69,221.34 L242.52,217.08 L244.79,212.51 L245.72,210.12 L246.49,207.67 L247.11,205.18 L247.57,202.64 L247.86,200.07 L247.99,197.47 L247.95,194.86 L247.74,192.23 L247.34,189.59 L246.76,186.96 L245.99,184.33 L245.03,181.73 L243.88,179.15 L242.52,176.60 L242.52,176.60 Z" fill="#041642" stroke="#1e1e1e" stroke-width="1" stroke-linejoin="round" opacity="0.5"/><path d="M242.52,176.60 L173.71,57.40 L177.28,66.61 L180.13,76.06 L182.25,85.70 L183.62,95.48 L184.24,105.33 L184.10,115.20 L172.20,114.31 L173.46,114.76 L176.36,116.01 L178.01,116.91 L179.58,117.97 L180.91,119.18 L181.82,120.52 L182.27,121.68 L182.58,122.98 L182.83,125.97 L182.64,129.42 L182.06,133.25 L181.13,137.38 L179.91,141.72 L178.45,146.20 L176.81,150.73 L173.16,159.64 L169.38,167.79 L165.88,174.56 L163.07,179.29 L158.90,185.11 L154.12,191.06 L149.02,196.86 L143.87,202.24 L138.96,206.90 L134.55,210.58 L132.63,211.96 L130.94,213.00 L129.52,213.64 L128.41,213.86 L127.38,213.77 L126.68,213.58 L126.14,213.31 L119.05,217.57 L111.68,221.69 L104.06,225.57 L96.23,229.09 L88.21,232.14 L84.14,233.45 L80.03,234.60 L75.90,235.58 L71.74,236.37 L67.55,236.96 L63.35,237.33 L207.46,237.33 L210.35,237.23 L213.16,236.94 L215.90,236.47 L218.55,235.83 L221.12,235.01 L223.60,234.04 L225.99,232.91 L228.28,231.63 L230.46,230.22 L232.54,228.68 L234.50,227.01 L236.36,225.23 L238.09,223.34 L239.69,221.34 L242.52,217.08 L244.79,212.51 L245.72,210.12 L246.49,207.67 L247.11,205.18 L247.57,202.64 L247.86,200.07 L247.99,197.47 L247.95,194.86 L247.74,192.23 L247.34,189.59 L246.76,186.96 L245.99,184.33 L245.03,181.73 L243.88,179.15 L242.52,176.60 L242.52,176.60 Z" fill="#000000" stroke="#1e1e1e" stroke-width="1" stroke-linejoin="round" opacity="0.2"/><path d="M232.43,160.16 L236.46,166.08 L163.06,38.92 L161.53,36.47 L159.87,34.17 L158.10,32.04 L156.21,30.06 L154.22,28.24 L152.14,26.58 L149.97,25.08 L147.72,23.73 L145.41,22.55 L143.03,21.52 L140.60,20.65 L138.14,19.94 L135.63,19.39 L133.10,18.99 L128.00,18.67 L122.90,18.99 L120.37,19.39 L117.87,19.94 L115.40,20.65 L112.97,21.52 L110.60,22.55 L108.28,23.73 L106.04,25.08 L103.87,26.58 L101.79,28.24 L99.80,30.06 L97.91,32.04 L96.13,34.17 L94.48,36.47 L92.95,38.92 L20.79,163.93 L23.02,160.88 L25.52,157.92 L28.28,155.06 L31.26,152.29 L34.43,149.62 L37.76,147.04 L44.81,142.16 L52.16,137.65 L59.57,133.50 L66.83,129.72 L73.70,126.30 L73.57,124.14 L73.79,122.12 L74.07,121.07 L74.52,120.07 L75.69,118.47 L77.01,117.39 L78.40,116.65 L79.83,116.06 L84.89,114.14 L90.00,112.45 L95.15,110.98 L100.34,109.73 L105.56,108.70 L110.81,107.90 L116.06,107.31 L121.33,106.93 L126.60,106.77 L131.87,106.83 L137.12,107.10 L142.35,107.58 L147.56,108.28 L152.74,109.18 L157.87,110.30 L162.96,111.62 L168.00,113.15 L172.98,114.88 L177.88,116.82 L182.72,118.97 L187.47,121.31 L192.14,123.86 L196.71,126.61 L201.18,129.55 L205.54,132.70 L209.78,136.04 L213.90,139.58 L217.89,143.31 L221.75,147.24 L225.46,151.36 L229.02,155.67 L232.42,160.17 L232.43,160.16 Z" fill="#1cacf6" stroke="#1e1e1e" stroke-width="1" stroke-linejoin="round"/><path d="M232.43,160.16 L236.46,166.08 L163.06,38.92 L161.53,36.47 L159.87,34.17 L158.10,32.04 L156.21,30.06 L154.22,28.24 L152.14,26.58 L149.97,25.08 L147.72,23.73 L145.41,22.55 L143.03,21.52 L140.60,20.65 L138.14,19.94 L135.63,19.39 L133.10,18.99 L128.00,18.67 L122.90,18.99 L120.37,19.39 L117.87,19.94 L115.40,20.65 L112.97,21.52 L110.60,22.55 L108.28,23.73 L106.04,25.08 L103.87,26.58 L101.79,28.24 L99.80,30.06 L97.91,32.04 L96.13,34.17 L94.48,36.47 L92.95,38.92 L20.79,163.93 L23.02,160.88 L25.52,157.92 L28.28,155.06 L31.26,152.29 L34.43,149.62 L37.76,147.04 L44.81,142.16 L52.16,137.65 L59.57,133.50 L66.83,129.72 L73.70,126.30 L73.57,124.14 L73.79,122.12 L74.07,121.07 L74.52,120.07 L75.69,118.47 L77.01,117.39 L78.40,116.65 L79.83,116.06 L84.89,114.14 L90.00,112.45 L95.15,110.98 L100.34,109.73 L105.56,108.70 L110.81,107.90 L116.06,107.31 L121.33,106.93 L126.60,106.77 L131.87,106.83 L137.12,107.10 L142.35,107.58 L147.56,108.28 L152.74,109.18 L157.87,110.30 L162.96,111.62 L168.00,113.15 L172.98,114.88 L177.88,116.82 L182.72,118.97 L187.47,121.31 L192.14,123.86 L196.71,126.61 L201.18,129.55 L205.54,132.70 L209.78,136.04 L213.90,139.58 L217.89,143.31 L221.75,147.24 L225.46,151.36 L229.02,155.67 L232.42,160.17 L232.43,160.16 Z" fill="#000000" stroke="#1e1e1e" stroke-width="1" stroke-linejoin="round" opacity="0.36"/><path d="M193.30,237.31 L48.54,237.31 L45.65,237.21 L42.84,236.92 L40.10,236.45 L37.45,235.80 L34.88,234.99 L32.40,234.02 L30.01,232.89 L27.72,231.61 L25.54,230.20 L23.46,228.66 L21.50,226.99 L19.64,225.21 L17.91,223.32 L16.31,221.32 L13.48,217.06 L11.21,212.49 L10.28,210.10 L9.51,207.65 L8.89,205.16 L8.43,202.62 L8.14,200.05 L8.01,197.45 L8.05,194.84 L8.26,192.21 L8.66,189.57 L9.24,186.94 L10.01,184.32 L10.97,181.71 L12.12,179.13 L13.48,176.58 L86.84,49.50 L83.08,57.46 L79.89,65.63 L77.27,73.97 L75.21,82.46 L73.74,91.07 L72.84,99.76 L72.54,108.50 L72.82,117.25 L73.70,126.00 L75.18,134.70 L77.27,143.32 L79.98,151.83 L83.30,160.21 L85.19,164.33 L87.24,168.41 L89.45,172.44 L91.81,176.41 L94.33,180.32 L97.01,184.17 L101.55,190.09 L106.37,195.67 L111.44,200.92 L116.75,205.83 L122.28,210.39 L128.02,214.61 L133.95,218.49 L140.06,222.01 L146.33,225.18 L152.74,228.00 L159.27,230.46 L165.92,232.56 L172.66,234.29 L179.49,235.67 L186.37,236.67 L193.30,237.30 L193.30,237.31 Z" fill="#2bd7fa" stroke="#1e1e1e" stroke-width="1" stroke-linejoin="round"/><path d="M193.30,237.31 L48.54,237.31 L45.65,237.21 L42.84,236.92 L40.10,236.45 L37.45,235.80 L34.88,234.99 L32.40,234.02 L30.01,232.89 L27.72,231.61 L25.54,230.20 L23.46,228.66 L21.50,226.99 L19.64,225.21 L17.91,223.32 L16.31,221.32 L13.48,217.06 L11.21,212.49 L10.28,210.10 L9.51,207.65 L8.89,205.16 L8.43,202.62 L8.14,200.05 L8.01,197.45 L8.05,194.84 L8.26,192.21 L8.66,189.57 L9.24,186.94 L10.01,184.32 L10.97,181.71 L12.12,179.13 L13.48,176.58 L86.84,49.50 L83.08,57.46 L79.89,65.63 L77.27,73.97 L75.21,82.46 L73.74,91.07 L72.84,99.76 L72.54,108.50 L72.82,117.25 L73.70,126.00 L75.18,134.70 L77.27,143.32 L79.98,151.83 L83.30,160.21 L85.19,164.33 L87.24,168.41 L89.45,172.44 L91.81,176.41 L94.33,180.32 L97.01,184.17 L101.55,190.09 L106.37,195.67 L111.44,200.92 L116.75,205.83 L122.28,210.39 L128.02,214.61 L133.95,218.49 L140.06,222.01 L146.33,225.18 L152.74,228.00 L159.27,230.46 L165.92,232.56 L172.66,234.29 L179.49,235.67 L186.37,236.67 L193.30,237.30 L193.30,237.31 Z" fill="#9bf0ff" stroke="#1e1e1e" stroke-width="1" stroke-linejoin="round" opacity="0.25"/><path d="M193.30,237.31 L48.54,237.31 L45.65,237.21 L42.84,236.92 L40.10,236.45 L37.45,235.80 L34.88,234.99 L32.40,234.02 L30.01,232.89 L27.72,231.61 L25.54,230.20 L23.46,228.66 L21.50,226.99 L19.64,225.21 L17.91,223.32 L16.31,221.32 L13.48,217.06 L11.21,212.49 L10.28,210.10 L9.51,207.65 L8.89,205.16 L8.43,202.62 L8.14,200.05 L8.01,197.45 L8.05,194.84 L8.26,192.21 L8.66,189.57 L9.24,186.94 L10.01,184.32 L10.97,181.71 L12.12,179.13 L13.48,176.58 L86.84,49.50 L83.08,57.46 L79.89,65.63 L77.27,73.97 L75.21,82.46 L73.74,91.07 L72.84,99.76 L72.54,108.50 L72.82,117.25 L73.70,126.00 L75.18,134.70 L77.27,143.32 L79.98,151.83 L83.30,160.21 L85.19,164.33 L87.24,168.41 L89.45,172.44 L91.81,176.41 L94.33,180.32 L97.01,184.17 L101.55,190.09 L106.37,195.67 L111.44,200.92 L116.75,205.83 L122.28,210.39 L128.02,214.61 L133.95,218.49 L140.06,222.01 L146.33,225.18 L152.74,228.00 L159.27,230.46 L165.92,232.56 L172.66,234.29 L179.49,235.67 L186.37,236.67 L193.30,237.30 L193.30,237.31 Z" fill="#2dcafc" stroke="#1e1e1e" stroke-width="1" stroke-linejoin="round"/></svg>