<svg xmlns="http://www.w3.org/2000/svg" viewBox="22.15 19.36 211.73 217.20"><path d="M118.45,173.55 L121.14,171.91 L123.71,170.14 L126.16,168.27 L128.49,166.28 L132.79,162.01 L136.60,157.36 L139.91,152.39 L142.70,147.14 L144.97,141.65 L146.70,135.96 L147.88,130.11 L148.51,124.15 L148.57,118.13 L148.05,112.07 L146.94,106.03 L145.23,100.06 L142.91,94.18 L139.96,88.45 L136.47,83.03 L132.54,78.08 L128.22,73.61 L123.55,69.63 L118.56,66.16 L113.31,63.19 L107.84,60.76 L102.18,58.86 L96.39,57.51 L90.50,56.73 L84.55,56.52 L78.60,56.90 L72.67,57.88 L66.82,59.46 L63.93,60.49 L61.08,61.68 L58.27,63.02 L55.50,64.52 L52.81,66.17 L50.24,67.93 L47.79,69.81 L45.46,71.80 L41.16,76.07 L37.35,80.72 L34.04,85.69 L31.25,90.94 L28.98,96.43 L27.25,102.12 L26.07,107.97 L25.44,113.93 L25.38,119.95 L25.90,126.01 L27.01,132.05 L28.72,138.02 L31.04,143.90 L33.99,149.63 L37.48,155.05 L41.41,160.00 L45.73,164.47 L50.41,168.45 L55.39,171.92 L60.64,174.89 L66.11,177.32 L71.77,179.22 L77.56,180.56 L83.45,181.35 L89.40,181.55 L95.35,181.18 L101.28,180.20 L107.13,178.61 L110.02,177.58 L112.87,176.40 L115.68,175.06 L118.45,173.55 L118.45,173.55 Z" fill="#0079d4" stroke="#1e1e1e" stroke-width="1" stroke-linejoin="round"/><path d="M156.65,89.15 L159.31,86.19 L161.61,83.02 L163.55,79.69 L165.13,76.21 L166.34,72.61 L167.19,68.92 L167.68,65.18 L167.80,61.39 L167.57,57.61 L166.97,53.84 L166.01,50.13 L164.70,46.50 L163.02,42.97 L160.98,39.58 L158.59,36.35 L155.83,33.32 L152.80,30.56 L149.57,28.17 L146.18,26.14 L142.65,24.46 L139.02,23.14 L135.30,22.19 L131.54,21.59 L127.75,21.36 L123.97,21.49 L120.22,21.97 L116.54,22.83 L112.94,24.04 L109.46,25.62 L106.12,27.56 L102.96,29.86 L100.01,32.53 L97.34,35.49 L95.04,38.65 L93.10,41.98 L91.52,45.46 L90.31,49.06 L89.46,52.75 L88.97,56.50 L88.85,60.28 L89.08,64.07 L89.68,67.83 L90.64,71.54 L91.96,75.17 L93.63,78.70 L95.67,82.09 L98.06,85.32 L100.82,88.36 L103.85,91.11 L107.08,93.50 L110.48,95.54 L114.00,97.21 L117.64,98.53 L121.35,99.48 L125.11,100.08 L128.90,100.31 L132.68,100.19 L136.43,99.70 L140.12,98.85 L143.71,97.63 L147.19,96.06 L150.53,94.12 L153.69,91.81 L156.65,89.15 Z" fill="#0173cb" stroke="#1e1e1e" stroke-width="1" stroke-linejoin="round"/><path d="M140.26,230.51 L144.98,230.39 L149.63,230.03 L154.21,229.45 L158.72,228.65 L163.16,227.62 L167.50,226.39 L171.76,224.95 L175.92,223.31 L179.98,221.47 L183.93,219.45 L187.77,217.24 L191.48,214.86 L195.08,212.30 L198.54,209.58 L201.86,206.70 L205.04,203.67 L208.08,200.49 L210.96,197.16 L213.68,193.70 L216.23,190.11 L218.61,186.39 L220.82,182.55 L222.84,178.60 L224.68,174.54 L226.32,170.38 L227.76,166.13 L228.99,161.78 L230.02,157.35 L230.82,152.83 L231.40,148.25 L231.76,143.59 L231.88,138.88 L231.76,134.17 L231.40,129.51 L230.82,124.93 L230.02,120.41 L228.99,115.98 L227.76,111.63 L226.32,107.38 L224.68,103.22 L222.84,99.16 L220.82,95.21 L218.61,91.37 L216.23,87.65 L213.68,84.06 L210.96,80.60 L208.08,77.28 L205.05,74.10 L201.86,71.06 L198.54,68.18 L195.08,65.46 L191.49,62.91 L187.77,60.53 L183.93,58.32 L179.98,56.30 L175.92,54.46 L171.76,52.82 L167.51,51.38 L163.16,50.15 L158.73,49.13 L154.21,48.32 L149.63,47.74 L144.98,47.38 L140.26,47.26 L135.55,47.38 L130.89,47.74 L126.31,48.32 L121.80,49.13 L117.36,50.15 L113.02,51.38 L108.76,52.82 L104.60,54.46 L100.54,56.30 L96.59,58.32 L92.75,60.53 L89.03,62.91 L85.44,65.47 L81.98,68.19 L78.66,71.07 L75.47,74.10 L72.44,77.28 L69.56,80.60 L66.84,84.07 L64.29,87.66 L61.90,91.38 L59.70,95.21 L57.67,99.16 L55.84,103.22 L54.20,107.38 L52.76,111.64 L51.52,115.99 L50.50,120.42 L49.70,124.93 L49.11,129.52 L48.76,134.17 L48.64,138.89 L48.76,143.60 L49.11,148.25 L49.70,152.84 L50.50,157.35 L51.52,161.78 L52.76,166.13 L54.20,170.39 L55.84,174.55 L57.67,178.61 L59.70,182.56 L61.90,186.39 L64.29,190.11 L66.84,193.70 L69.56,197.16 L72.44,200.49 L75.47,203.67 L78.66,206.70 L81.98,209.58 L85.44,212.30 L89.03,214.86 L92.75,217.24 L96.59,219.44 L100.54,221.47 L104.60,223.30 L108.76,224.94 L113.02,226.38 L117.36,227.62 L121.80,228.64 L126.31,229.45 L130.89,230.03 L135.55,230.38 L140.26,230.50 L140.26,230.51 Z" fill="#0182d8" stroke="#1e1e1e" stroke-width="1" stroke-linejoin="round"/><path d="M104.37,28.73 L99.43,31.95 L94.70,35.38 L90.18,39.00 L85.87,42.81 L81.77,46.80 L77.90,50.96 L74.25,55.28 L70.82,59.75 L67.62,64.36 L64.64,69.10 L61.90,73.96 L59.39,78.94 L57.12,84.02 L55.10,89.19 L53.31,94.45 L51.77,99.79 L50.48,105.19 L49.43,110.65 L48.64,116.16 L48.11,121.70 L47.84,127.28 L47.83,132.88 L48.08,138.48 L48.60,144.09 L49.39,149.69 L50.45,155.28 L51.78,160.83 L53.40,166.36 L55.29,171.83 L57.47,177.26 L59.94,182.62 L62.69,187.90 L65.95,193.47 L69.48,198.78 L71.88,199.15 L125.03,216.89 L175.53,183.06 L173.64,182.87 L171.18,182.21 L168.21,181.06 L164.79,179.41 L160.96,177.28 L156.80,174.65 L152.35,171.51 L147.67,167.86 L142.83,163.70 L137.87,159.02 L132.85,153.81 L127.83,148.08 L122.88,141.81 L118.03,135.00 L113.36,127.65 L108.92,119.74 L103.98,109.84 L99.95,100.60 L96.74,92.00 L94.32,84.03 L92.61,76.65 L91.56,69.86 L91.11,63.62 L91.21,57.91 L91.79,52.71 L92.79,48.00 L94.16,43.75 L95.83,39.95 L97.75,36.57 L99.87,33.59 L102.11,30.98 L104.42,28.73 L104.37,28.73 Z" fill="#3ad3f8" stroke="#1e1e1e" stroke-width="1" stroke-linejoin="round"/><path d="M104.37,28.73 L99.43,31.95 L94.70,35.38 L90.18,39.00 L85.87,42.81 L81.77,46.80 L77.90,50.96 L74.25,55.28 L70.82,59.75 L67.62,64.36 L64.64,69.10 L61.90,73.96 L59.39,78.94 L57.12,84.02 L55.10,89.19 L53.31,94.45 L51.77,99.79 L50.48,105.19 L49.43,110.65 L48.64,116.16 L48.11,121.70 L47.84,127.28 L47.83,132.88 L48.08,138.48 L48.60,144.09 L49.39,149.69 L50.45,155.28 L51.78,160.83 L53.40,166.36 L55.29,171.83 L57.47,177.26 L59.94,182.62 L62.69,187.90 L65.95,193.47 L69.48,198.78 L71.88,199.15 L125.03,216.89 L175.53,183.06 L173.64,182.87 L171.18,182.21 L168.21,181.06 L164.79,179.41 L160.96,177.28 L156.80,174.65 L152.35,171.51 L147.67,167.86 L142.83,163.70 L137.87,159.02 L132.85,153.81 L127.83,148.08 L122.88,141.81 L118.03,135.00 L113.36,127.65 L108.92,119.74 L103.98,109.84 L99.95,100.60 L96.74,92.00 L94.32,84.03 L92.61,76.65 L91.56,69.86 L91.11,63.62 L91.21,57.91 L91.79,52.71 L92.79,48.00 L94.16,43.75 L95.83,39.95 L97.75,36.57 L99.87,33.59 L102.11,30.98 L104.42,28.73 L104.37,28.73 Z" fill="#000000" stroke="#1e1e1e" stroke-width="1" stroke-linejoin="round" opacity="0"/><path d="M209.94,198.38 L215.21,191.60 L219.82,184.34 L223.74,176.70 L226.92,168.71 L229.34,160.47 L228.41,158.09 L227.32,155.81 L226.09,153.65 L224.72,151.61 L223.23,149.68 L221.61,147.87 L219.87,146.18 L218.04,144.61 L214.08,141.83 L209.80,139.57 L205.27,137.81 L200.54,136.59 L195.68,135.92 L190.77,135.79 L185.85,136.24 L180.99,137.27 L176.27,138.90 L173.98,139.94 L171.74,141.14 L169.57,142.49 L167.47,144.00 L165.46,145.67 L163.53,147.49 L157.73,153.21 L151.93,158.60 L146.19,163.56 L140.54,168.00 L135.06,171.82 L129.78,174.91 L127.24,176.16 L124.77,177.19 L122.39,178.00 L120.09,178.56 L113.68,179.64 L107.51,180.31 L101.56,180.61 L95.86,180.55 L90.38,180.15 L85.13,179.43 L80.11,178.40 L75.31,177.08 L70.74,175.50 L66.40,173.67 L62.29,171.61 L58.39,169.35 L54.72,166.88 L51.27,164.25 L48.04,161.46 L45.04,158.54 L42.25,155.49 L39.67,152.35 L37.32,149.13 L35.18,145.85 L33.25,142.52 L31.54,139.17 L30.05,135.82 L28.76,132.48 L27.69,129.17 L26.82,125.91 L26.17,122.72 L25.72,119.62 L25.48,116.63 L25.44,113.76 L25.61,111.04 L25.99,108.47 L24.74,116.68 L24.15,124.95 L24.20,133.25 L24.90,141.52 L26.26,149.70 L27.48,155.02 L28.96,160.22 L30.68,165.28 L32.64,170.21 L34.83,175.01 L37.23,179.65 L39.85,184.15 L42.67,188.48 L45.69,192.66 L48.90,196.67 L52.29,200.51 L55.85,204.18 L59.58,207.66 L63.47,210.96 L67.50,214.06 L71.68,216.97 L75.99,219.67 L80.42,222.17 L84.98,224.45 L89.64,226.51 L94.41,228.35 L99.27,229.97 L104.22,231.35 L109.25,232.49 L114.35,233.39 L119.51,234.03 L124.72,234.43 L129.99,234.56 L135.29,234.43 L140.63,234.03 L145.98,233.35 L151.36,232.39 L159.80,230.32 L168.03,227.56 L176.01,224.14 L183.69,220.06 L191.00,215.38 L197.90,210.10 L198.19,209.86 L204.29,204.34 L209.94,198.36 L209.94,198.38 Z" fill="#40d9fa" stroke="#1e1e1e" stroke-width="1" stroke-linejoin="round"/></svg>