<svg xmlns="http://www.w3.org/2000/svg" viewBox="7.60 7.60 100.00 100.00"><path d="M9.60,24.00 L9.96,20.80 L11.03,17.75 L12.74,15.02 L15.02,12.74 L17.75,11.03 L20.80,9.96 L24.00,9.60 L91.20,9.60 L94.40,9.96 L97.45,11.03 L100.18,12.74 L102.46,15.02 L104.17,17.75 L105.24,20.80 L105.60,24.00 L105.60,91.20 L105.24,94.40 L104.17,97.45 L102.46,100.18 L100.18,102.46 L97.45,104.17 L94.40,105.24 L91.20,105.60 L24.00,105.60 L20.80,105.24 L17.75,104.17 L15.02,102.46 L12.74,100.18 L11.03,97.45 L9.96,94.40 L9.60,91.20 L9.60,24.00 Z" fill="#f5f5f5" stroke="#1e1e1e" stroke-width="1" stroke-linejoin="round"/><path d="M9.60,24.00 L9.96,20.80 L11.03,17.75 L12.74,15.02 L15.02,12.74 L17.75,11.03 L20.80,9.96 L24.00,9.60 L91.20,9.60 L94.40,9.96 L97.45,11.03 L100.18,12.74 L102.46,15.02 L104.17,17.75 L105.24,20.80 L105.60,24.00 L105.60,91.20 L105.24,94.40 L104.17,97.45 L102.46,100.18 L100.18,102.46 L97.45,104.17 L94.40,105.24 L91.20,105.60 L24.00,105.60 L20.80,105.24 L17.75,104.17 L15.02,102.46 L12.74,100.18 L11.03,97.45 L9.96,94.40 L9.60,91.20 L9.60,24.00 Z" fill="#e3e3e3" stroke="#1e1e1e" stroke-width="1" stroke-linejoin="round" opacity="0.2"/><path d="M24.00,9.60 L20.80,9.96 L17.75,11.03 L15.02,12.74 L12.74,15.02 L11.03,17.75 L9.96,20.80 L9.60,24.00 L9.60,91.20 L9.96,94.40 L11.03,97.45 L12.74,100.18 L15.02,102.46 L17.75,104.17 L20.80,105.24 L24.00,105.60 L91.20,105.60 L94.40,105.24 L97.45,104.17 L100.18,102.46 L102.46,100.18 L104.17,97.45 L105.24,94.40 L105.60,91.20 L105.60,24.00 L105.24,20.80 L104.17,17.75 L102.46,15.02 L100.18,12.74 L97.45,11.03 L94.40,9.96 L91.20,9.60 L24.00,9.60 Z" fill="#a2a2a2" stroke="#1e1e1e" stroke-width="1" stroke-linejoin="round"/><path d="M91.20,14.40 L24.00,14.40 L21.52,14.73 L19.20,15.69 L17.21,17.21 L15.69,19.20 L14.73,21.52 L14.40,24.00 L14.40,91.20 L14.73,93.68 L15.69,96.00 L17.21,97.99 L19.20,99.51 L21.52,100.47 L24.00,100.80 L91.20,100.80 L93.68,100.47 L96.00,99.51 L97.99,97.99 L99.51,96.00 L100.47,93.68 L100.80,91.20 L100.80,24.00 L100.47,21.52 L99.51,19.20 L97.99,17.21 L96.00,15.69 L93.68,14.73 L91.20,14.40 Z" fill="#f1f1f1" stroke="#1e1e1e" stroke-width="1" stroke-linejoin="round"/><path d="M40.80,81.60 L43.47,81.30 L46.01,80.41 L48.28,78.98 L50.18,77.08 L51.61,74.81 L52.50,72.27 L52.80,69.60 L52.80,57.59 L62.40,57.59 L62.40,69.60 L62.75,72.48 L63.78,75.18 L65.43,77.57 L67.60,79.49 L70.17,80.83 L72.98,81.51 L75.88,81.51 L78.69,80.81 L81.25,79.45 L83.41,77.52 L85.05,75.13 L86.06,72.41 L86.40,69.54 L86.04,66.66 L80.23,41.43 L79.85,39.87 L79.22,38.41 L78.35,37.08 L77.27,35.92 L76.00,34.96 L74.57,34.23 L73.01,33.76 L71.33,33.60 L69.51,33.78 L67.83,34.31 L66.31,35.14 L64.99,36.24 L63.91,37.58 L63.09,39.10 L62.58,40.79 L62.40,42.59 L62.40,47.99 L52.80,47.99 L52.80,42.59 L52.51,40.27 L51.62,38.10 L50.20,36.24 L48.35,34.81 L46.19,33.91 L43.87,33.60 L42.19,33.76 L40.63,34.23 L39.20,34.96 L37.93,35.92 L36.85,37.08 L35.98,38.41 L35.35,39.87 L34.97,41.43 L29.16,66.66 L28.80,69.36 L29.06,72.07 L29.91,74.65 L31.33,76.97 L33.24,78.92 L35.53,80.38 L38.10,81.29 L40.80,81.60 Z" fill="#b57400" stroke="#b57400" stroke-width="1" stroke-linejoin="round"/><path d="M67.20,69.60 L67.55,71.82 L68.58,73.83 L70.17,75.42 L72.18,76.45 L74.40,76.80 L76.62,76.45 L78.63,75.42 L80.22,73.83 L81.25,71.82 L81.60,69.60 L81.25,67.38 L80.22,65.37 L78.63,63.78 L76.62,62.75 L74.40,62.40 L72.18,62.75 L70.17,63.78 L68.58,65.37 L67.55,67.38 L67.20,69.60 Z" fill="#f1f1f1" stroke="#f1f1f1" stroke-width="1" stroke-linejoin="round"/><path d="M40.80,76.80 L43.02,76.45 L45.03,75.42 L46.62,73.83 L47.65,71.82 L48.00,69.60 L47.65,67.38 L46.62,65.37 L45.03,63.78 L43.02,62.75 L40.80,62.40 L38.58,62.75 L36.57,63.78 L34.98,65.37 L33.95,67.38 L33.60,69.60 L33.95,71.82 L34.98,73.83 L36.57,75.42 L38.58,76.45 L40.80,76.80 Z" fill="#f1f1f1" stroke="#f1f1f1" stroke-width="1" stroke-linejoin="round"/></svg>