<svg xmlns="http://www.w3.org/2000/svg" viewBox="14.00 14.00 142.67 142.67"><path d="M16.00,34.67 L16.36,31.02 L17.42,27.52 L19.15,24.30 L21.47,21.47 L24.30,19.15 L27.52,17.42 L31.02,16.36 L34.67,16.00 L136.00,16.00 L139.64,16.36 L143.14,17.42 L146.37,19.15 L149.20,21.47 L151.52,24.30 L153.25,27.52 L154.31,31.02 L154.67,34.67 L154.67,136.00 L154.31,139.64 L153.25,143.14 L151.52,146.37 L149.20,149.20 L146.37,151.52 L143.14,153.25 L139.64,154.31 L136.00,154.67 L34.67,154.67 L31.02,154.31 L27.52,153.25 L24.30,151.52 L21.47,149.20 L19.15,146.37 L17.42,143.14 L16.36,139.64 L16.00,136.00 L16.00,34.67 Z" fill="#f5f5f5" stroke="#1e1e1e" stroke-width="1" stroke-linejoin="round"/><path d="M16.00,34.67 L16.36,31.02 L17.42,27.52 L19.15,24.30 L21.47,21.47 L24.30,19.15 L27.52,17.42 L31.02,16.36 L34.67,16.00 L136.00,16.00 L139.64,16.36 L143.14,17.42 L146.37,19.15 L149.20,21.47 L151.52,24.30 L153.25,27.52 L154.31,31.02 L154.67,34.67 L154.67,136.00 L154.31,139.64 L153.25,143.14 L151.52,146.37 L149.20,149.20 L146.37,151.52 L143.14,153.25 L139.64,154.31 L136.00,154.67 L34.67,154.67 L31.02,154.31 L27.52,153.25 L24.30,151.52 L21.47,149.20 L19.15,146.37 L17.42,143.14 L16.36,139.64 L16.00,136.00 L16.00,34.67 Z" fill="#e3e3e3" stroke="#1e1e1e" stroke-width="1" stroke-linejoin="round" opacity="0.2"/><path d="M34.67,16.00 L31.02,16.36 L27.52,17.42 L24.30,19.15 L21.47,21.47 L19.15,24.30 L17.42,27.52 L16.36,31.02 L16.00,34.67 L16.00,136.00 L16.36,139.64 L17.42,143.14 L19.15,146.37 L21.47,149.20 L24.30,151.52 L27.52,153.25 L31.02,154.31 L34.67,154.67 L136.00,154.67 L139.64,154.31 L143.14,153.25 L146.37,151.52 L149.20,149.20 L151.52,146.37 L153.25,143.14 L154.31,139.64 L154.67,136.00 L154.67,34.67 L154.31,31.02 L153.25,27.52 L151.52,24.30 L149.20,21.47 L146.37,19.15 L143.14,17.42 L139.64,16.36 L136.00,16.00 L34.67,16.00 Z" fill="#a2a2a2" stroke="#1e1e1e" stroke-width="1" stroke-linejoin="round"/><path d="M136.00,21.33 L34.67,21.33 L31.70,21.67 L28.88,22.65 L26.35,24.24 L24.24,26.35 L22.65,28.88 L21.67,31.70 L21.33,34.67 L21.33,136.00 L21.67,138.97 L22.65,141.79 L24.24,144.31 L26.35,146.42 L28.88,148.01 L31.70,149.00 L34.67,149.33 L136.00,149.33 L138.97,149.00 L141.79,148.01 L144.31,146.42 L146.42,144.31 L148.01,141.79 L149.00,138.97 L149.33,136.00 L149.33,34.67 L149.00,31.70 L148.01,28.88 L146.42,26.35 L144.31,24.24 L141.79,22.65 L138.97,21.67 L136.00,21.33 Z" fill="#f1f1f1" stroke="#1e1e1e" stroke-width="1" stroke-linejoin="round"/><path d="M70.67,53.33 L66.67,53.33 L65.33,52.98 L64.36,52.00 L64.00,50.67 L64.36,49.33 L65.33,48.36 L66.67,48.00 L104.00,48.00 L105.33,48.36 L106.31,49.33 L106.67,50.67 L106.31,52.00 L105.33,52.98 L104.00,53.33 L100.00,53.33 L100.00,78.65 L100.10,80.29 L100.40,81.90 L100.90,83.46 L101.58,84.94 L115.48,110.89 L116.27,113.10 L116.39,115.45 L115.82,117.72 L114.61,119.74 L112.87,121.32 L110.75,122.32 L108.43,122.67 L62.24,122.67 L59.92,122.32 L57.79,121.32 L56.06,119.74 L54.85,117.72 L54.28,115.45 L54.40,113.10 L55.19,110.89 L69.09,84.95 L70.27,81.90 L70.67,78.65 L70.67,53.33 Z" fill="#45903e" stroke="#45903e" stroke-width="1" stroke-linejoin="round"/><path d="M70.67,93.33 L70.67,93.29 L70.65,93.33 L70.67,93.33 Z" fill="#f1f1f1" stroke="#f1f1f1" stroke-width="1" stroke-linejoin="round"/><path d="M102.88,98.67 L67.79,98.67 L59.89,113.41 L59.58,114.73 L59.96,116.03 L60.93,116.99 L62.24,117.33 L108.43,117.33 L109.74,116.99 L110.71,116.03 L111.09,114.73 L110.77,113.41 L102.88,98.67 Z" fill="#f1f1f1" stroke="#f1f1f1" stroke-width="1" stroke-linejoin="round"/></svg>