<svg xmlns="http://www.w3.org/2000/svg" viewBox="8.67 8.67 110.67 110.67"><path d="M10.67,26.67 L11.07,23.11 L12.25,19.72 L14.16,16.69 L16.69,14.16 L19.72,12.25 L23.11,11.07 L26.67,10.67 L101.33,10.67 L104.89,11.07 L108.28,12.25 L111.31,14.16 L113.84,16.69 L115.75,19.72 L116.93,23.11 L117.33,26.67 L117.33,101.33 L116.93,104.89 L115.75,108.28 L113.84,111.31 L111.31,113.84 L108.28,115.75 L104.89,116.93 L101.33,117.33 L26.67,117.33 L23.11,116.93 L19.72,115.75 L16.69,113.84 L14.16,111.31 L12.25,108.28 L11.07,104.89 L10.67,101.33 L10.67,26.67 Z" fill="#f5f5f5" stroke="#1e1e1e" stroke-width="1" stroke-linejoin="round"/><path d="M10.67,26.67 L11.07,23.11 L12.25,19.72 L14.16,16.69 L16.69,14.16 L19.72,12.25 L23.11,11.07 L26.67,10.67 L101.33,10.67 L104.89,11.07 L108.28,12.25 L111.31,14.16 L113.84,16.69 L115.75,19.72 L116.93,23.11 L117.33,26.67 L117.33,101.33 L116.93,104.89 L115.75,108.28 L113.84,111.31 L111.31,113.84 L108.28,115.75 L104.89,116.93 L101.33,117.33 L26.67,117.33 L23.11,116.93 L19.72,115.75 L16.69,113.84 L14.16,111.31 L12.25,108.28 L11.07,104.89 L10.67,101.33 L10.67,26.67 Z" fill="#e3e3e3" stroke="#1e1e1e" stroke-width="1" stroke-linejoin="round" opacity="0.2"/><path d="M26.67,10.67 L23.11,11.07 L19.72,12.25 L16.69,14.16 L14.16,16.69 L12.25,19.72 L11.07,23.11 L10.67,26.67 L10.67,101.33 L11.07,104.89 L12.25,108.28 L14.16,111.31 L16.69,113.84 L19.72,115.75 L23.11,116.93 L26.67,117.33 L101.33,117.33 L104.89,116.93 L108.28,115.75 L111.31,113.84 L113.84,111.31 L115.75,108.28 L116.93,104.89 L117.33,101.33 L117.33,26.67 L116.93,23.11 L115.75,19.72 L113.84,16.69 L111.31,14.16 L108.28,12.25 L104.89,11.07 L101.33,10.67 L26.67,10.67 Z" fill="#a2a2a2" stroke="#1e1e1e" stroke-width="1" stroke-linejoin="round"/><path d="M101.33,16.00 L26.67,16.00 L23.91,16.36 L21.33,17.43 L19.12,19.12 L17.43,21.33 L16.36,23.91 L16.00,26.67 L16.00,101.33 L16.36,104.09 L17.43,106.67 L19.12,108.88 L21.33,110.57 L23.91,111.64 L26.67,112.00 L101.33,112.00 L104.09,111.64 L106.67,110.57 L108.88,108.88 L110.57,106.67 L111.64,104.09 L112.00,101.33 L112.00,26.67 L111.64,23.91 L110.57,21.33 L108.88,19.12 L106.67,17.43 L104.09,16.36 L101.33,16.00 Z" fill="#f1f1f1" stroke="#1e1e1e" stroke-width="1" stroke-linejoin="round"/><path d="M40.00,36.00 L37.53,36.39 L35.30,37.53 L33.53,39.30 L32.39,41.53 L32.00,44.00 L32.00,86.67 L32.39,89.14 L33.53,91.37 L35.30,93.14 L37.53,94.28 L40.00,94.67 L42.47,94.28 L44.70,93.14 L46.47,91.37 L47.61,89.14 L48.00,86.67 L48.00,80.00 L80.00,80.00 L80.00,86.67 L80.39,89.14 L81.53,91.37 L83.30,93.14 L85.53,94.28 L88.00,94.67 L90.47,94.28 L92.70,93.14 L94.47,91.37 L95.61,89.14 L96.00,86.67 L96.00,44.00 L95.61,41.53 L94.47,39.30 L92.70,37.53 L90.47,36.39 L88.00,36.00 L85.53,36.39 L83.30,37.53 L81.53,39.30 L80.39,41.53 L80.00,44.00 L80.00,48.00 L48.00,48.00 L48.00,44.00 L47.61,41.53 L46.47,39.30 L44.70,37.53 L42.47,36.39 L40.00,36.00 Z" fill="#45903e" stroke="#45903e" stroke-width="1" stroke-linejoin="round"/><path d="M42.67,86.67 L42.67,44.00 L42.31,42.67 L41.33,41.69 L40.00,41.33 L38.67,41.69 L37.69,42.67 L37.33,44.00 L37.33,86.67 L37.69,88.00 L38.67,88.98 L40.00,89.33 L41.33,88.98 L42.31,88.00 L42.67,86.67 Z" fill="#f1f1f1" stroke="#f1f1f1" stroke-width="1" stroke-linejoin="round"/><path d="M90.67,44.00 L90.67,86.67 L90.31,88.00 L89.33,88.98 L88.00,89.33 L86.67,88.98 L85.69,88.00 L85.33,86.67 L85.33,44.00 L85.69,42.67 L86.67,41.69 L88.00,41.33 L89.33,41.69 L90.31,42.67 L90.67,44.00 Z" fill="#f1f1f1" stroke="#f1f1f1" stroke-width="1" stroke-linejoin="round"/></svg>