<svg xmlns="http://www.w3.org/2000/svg" viewBox="14.00 14.00 142.67 142.67"><path d="M16.00,34.67 L16.36,31.02 L17.42,27.52 L19.15,24.30 L21.47,21.47 L24.30,19.15 L27.52,17.42 L31.02,16.36 L34.67,16.00 L136.00,16.00 L139.64,16.36 L143.14,17.42 L146.37,19.15 L149.20,21.47 L151.52,24.30 L153.25,27.52 L154.31,31.02 L154.67,34.67 L154.67,136.00 L154.31,139.64 L153.25,143.14 L151.52,146.37 L149.20,149.20 L146.37,151.52 L143.14,153.25 L139.64,154.31 L136.00,154.67 L34.67,154.67 L31.02,154.31 L27.52,153.25 L24.30,151.52 L21.47,149.20 L19.15,146.37 L17.42,143.14 L16.36,139.64 L16.00,136.00 L16.00,34.67 Z" fill="#f5f5f5" stroke="#1e1e1e" stroke-width="1" stroke-linejoin="round"/><path d="M16.00,34.67 L16.36,31.02 L17.42,27.52 L19.15,24.30 L21.47,21.47 L24.30,19.15 L27.52,17.42 L31.02,16.36 L34.67,16.00 L136.00,16.00 L139.64,16.36 L143.14,17.42 L146.37,19.15 L149.20,21.47 L151.52,24.30 L153.25,27.52 L154.31,31.02 L154.67,34.67 L154.67,136.00 L154.31,139.64 L153.25,143.14 L151.52,146.37 L149.20,149.20 L146.37,151.52 L143.14,153.25 L139.64,154.31 L136.00,154.67 L34.67,154.67 L31.02,154.31 L27.52,153.25 L24.30,151.52 L21.47,149.20 L19.15,146.37 L17.42,143.14 L16.36,139.64 L16.00,136.00 L16.00,34.67 Z" fill="#e3e3e3" stroke="#1e1e1e" stroke-width="1" stroke-linejoin="round" opacity="0.2"/><path d="M34.67,16.00 L31.02,16.36 L27.52,17.42 L24.30,19.15 L21.47,21.47 L19.15,24.30 L17.42,27.52 L16.36,31.02 L16.00,34.67 L16.00,136.00 L16.36,139.64 L17.42,143.14 L19.15,146.37 L21.47,149.20 L24.30,151.52 L27.52,153.25 L31.02,154.31 L34.67,154.67 L136.00,154.67 L139.64,154.31 L143.14,153.25 L146.37,151.52 L149.20,149.20 L151.52,146.37 L153.25,143.14 L154.31,139.64 L154.67,136.00 L154.67,34.67 L154.31,31.02 L153.25,27.52 L151.52,24.30 L149.20,21.47 L146.37,19.15 L143.14,17.42 L139.64,16.36 L136.00,16.00 L34.67,16.00 Z" fill="#a2a2a2" stroke="#1e1e1e" stroke-width="1" stroke-linejoin="round"/><path d="M136.00,21.33 L34.67,21.33 L31.70,21.67 L28.88,22.65 L26.35,24.24 L24.24,26.35 L22.65,28.88 L21.67,31.70 L21.33,34.67 L21.33,136.00 L21.67,138.97 L22.65,141.79 L24.24,144.31 L26.35,146.42 L28.88,148.01 L31.70,149.00 L34.67,149.33 L136.00,149.33 L138.97,149.00 L141.79,148.01 L144.31,146.42 L146.42,144.31 L148.01,141.79 L149.00,138.97 L149.33,136.00 L149.33,34.67 L149.00,31.70 L148.01,28.88 L146.42,26.35 L144.31,24.24 L141.79,22.65 L138.97,21.67 L136.00,21.33 Z" fill="#f1f1f1" stroke="#1e1e1e" stroke-width="1" stroke-linejoin="round"/><path d="M117.33,53.33 L116.98,56.06 L115.94,58.61 L114.28,60.80 L112.12,62.50 L109.59,63.59 L106.87,64.00 L104.14,63.70 L99.99,73.70 L101.46,75.07 L102.77,76.59 L103.92,78.24 L104.88,80.03 L102.00,80.12 L99.18,80.74 L97.07,78.22 L94.40,76.30 L91.34,75.09 L88.08,74.67 L84.81,75.05 L81.74,76.23 L79.05,78.12 L76.90,80.61 L75.43,83.55 L74.73,86.76 L74.83,90.05 L75.73,93.21 L77.38,96.06 L79.68,98.41 L82.48,100.13 L85.62,101.12 L88.90,101.30 L90.10,103.94 L91.75,106.29 L88.27,106.67 L84.78,106.39 L81.40,105.46 L78.26,103.93 L75.46,101.83 L73.10,99.24 L71.26,96.26 L63.81,99.34 L63.96,102.27 L63.31,105.12 L61.91,107.68 L59.86,109.78 L57.32,111.23 L54.49,111.94 L51.56,111.86 L48.77,110.98 L46.32,109.38 L44.40,107.17 L43.15,104.52 L42.67,101.64 L42.99,98.73 L44.09,96.02 L45.88,93.71 L48.23,91.97 L50.97,90.94 L53.89,90.69 L56.76,91.24 L59.37,92.55 L61.54,94.52 L69.60,91.17 L69.33,87.40 L69.84,83.64 L71.09,80.07 L73.04,76.83 L75.61,74.04 L69.42,67.86 L66.72,68.98 L63.81,69.33 L60.92,68.88 L58.26,67.66 L56.04,65.76 L54.41,63.33 L53.50,60.55 L53.39,57.63 L54.07,54.78 L55.50,52.23 L57.56,50.16 L60.12,48.73 L62.96,48.05 L65.89,48.17 L68.67,49.08 L71.10,50.70 L72.99,52.93 L74.21,55.59 L74.67,58.48 L74.32,61.39 L73.19,64.09 L80.16,71.06 L82.68,70.10 L85.31,69.53 L88.00,69.33 L89.95,69.43 L91.83,69.73 L93.66,70.21 L95.40,70.86 L99.42,61.16 L97.63,58.99 L96.46,56.43 L96.00,53.66 L96.29,50.86 L97.30,48.24 L98.95,45.96 L101.15,44.20 L103.72,43.08 L106.50,42.67 L109.30,42.99 L111.91,44.04 L114.15,45.73 L115.88,47.95 L116.96,50.55 L117.33,53.33" fill="none" stroke="#1e1e1e" stroke-width="1" stroke-linejoin="round"/><path d="M114.67,96.00 L114.30,98.76 L113.24,101.33 L111.54,103.54 L109.33,105.24 L106.76,106.30 L104.00,106.67 L101.24,106.30 L98.67,105.24 L96.46,103.54 L94.76,101.33 L93.70,98.76 L93.33,96.00 L93.70,93.24 L94.76,90.67 L96.46,88.46 L98.67,86.76 L101.24,85.70 L104.00,85.33 L106.76,85.70 L109.33,86.76 L111.54,88.46 L113.24,90.67 L114.30,93.24 L114.67,96.00 Z" fill="#6848aa" stroke="#1e1e1e" stroke-width="1" stroke-linejoin="round"/><path d="M122.67,120.00 L122.41,122.48 L121.62,124.88 L120.28,127.14 L119.38,128.18 L118.33,129.16 L117.13,130.05 L115.77,130.87 L114.24,131.58 L112.54,132.18 L110.67,132.67 L108.63,133.03 L106.41,133.26 L104.00,133.33 L101.59,133.26 L99.37,133.03 L97.33,132.67 L95.46,132.19 L93.76,131.58 L92.23,130.87 L90.87,130.06 L89.67,129.17 L88.62,128.19 L87.72,127.15 L86.38,124.90 L85.59,122.49 L85.33,120.00 L85.72,117.53 L86.86,115.30 L88.63,113.53 L90.86,112.39 L93.33,112.00 L114.67,112.00 L117.14,112.39 L119.37,113.53 L121.14,115.30 L122.28,117.53 L122.67,120.00 Z" fill="#6848aa" stroke="#1e1e1e" stroke-width="1" stroke-linejoin="round"/></svg>