<svg xmlns="http://www.w3.org/2000/svg" viewBox="14.00 14.00 163.90 164.00"><path d="M16.00,34.67 L16.36,31.02 L17.42,27.52 L19.15,24.30 L21.47,21.47 L24.30,19.15 L27.52,17.42 L31.02,16.36 L34.67,16.00 L136.00,16.00 L139.64,16.36 L143.14,17.42 L146.37,19.15 L149.20,21.47 L151.52,24.30 L153.25,27.52 L154.31,31.02 L154.67,34.67 L154.67,136.00 L154.31,139.64 L153.25,143.14 L151.52,146.37 L149.20,149.20 L146.37,151.52 L143.14,153.25 L139.64,154.31 L136.00,154.67 L34.67,154.67 L31.02,154.31 L27.52,153.25 L24.30,151.52 L21.47,149.20 L19.15,146.37 L17.42,143.14 L16.36,139.64 L16.00,136.00 L16.00,34.67 Z" fill="#f5f5f5" stroke="#1e1e1e" stroke-width="1" stroke-linejoin="round"/><path d="M16.00,34.67 L16.36,31.02 L17.42,27.52 L19.15,24.30 L21.47,21.47 L24.30,19.15 L27.52,17.42 L31.02,16.36 L34.67,16.00 L136.00,16.00 L139.64,16.36 L143.14,17.42 L146.37,19.15 L149.20,21.47 L151.52,24.30 L153.25,27.52 L154.31,31.02 L154.67,34.67 L154.67,136.00 L154.31,139.64 L153.25,143.14 L151.52,146.37 L149.20,149.20 L146.37,151.52 L143.14,153.25 L139.64,154.31 L136.00,154.67 L34.67,154.67 L31.02,154.31 L27.52,153.25 L24.30,151.52 L21.47,149.20 L19.15,146.37 L17.42,143.14 L16.36,139.64 L16.00,136.00 L16.00,34.67 Z" fill="#e3e3e3" stroke="#1e1e1e" stroke-width="1" stroke-linejoin="round" opacity="0.2"/><path d="M34.67,16.00 L31.02,16.36 L27.52,17.42 L24.30,19.15 L21.47,21.47 L19.15,24.30 L17.42,27.52 L16.36,31.02 L16.00,34.67 L16.00,136.00 L16.36,139.64 L17.42,143.14 L19.15,146.37 L21.47,149.20 L24.30,151.52 L27.52,153.25 L31.02,154.31 L34.67,154.67 L136.00,154.67 L139.64,154.31 L143.14,153.25 L146.37,151.52 L149.20,149.20 L151.52,146.37 L153.25,143.14 L154.31,139.64 L154.67,136.00 L154.67,34.67 L154.31,31.02 L153.25,27.52 L151.52,24.30 L149.20,21.47 L146.37,19.15 L143.14,17.42 L139.64,16.36 L136.00,16.00 L34.67,16.00 Z" fill="#a2a2a2" stroke="#1e1e1e" stroke-width="1" stroke-linejoin="round"/><path d="M136.00,21.33 L34.67,21.33 L31.70,21.67 L28.88,22.65 L26.35,24.24 L24.24,26.35 L22.65,28.88 L21.67,31.70 L21.33,34.67 L21.33,136.00 L21.67,138.97 L22.65,141.79 L24.24,144.31 L26.35,146.42 L28.88,148.01 L31.70,149.00 L34.67,149.33 L136.00,149.33 L138.97,149.00 L141.79,148.01 L144.31,146.42 L146.42,144.31 L148.01,141.79 L149.00,138.97 L149.33,136.00 L149.33,34.67 L149.00,31.70 L148.01,28.88 L146.42,26.35 L144.31,24.24 L141.79,22.65 L138.97,21.67 L136.00,21.33 Z" fill="#f1f1f1" stroke="#1e1e1e" stroke-width="1" stroke-linejoin="round"/><path d="M60.00,48.00 L61.53,48.30 L62.83,49.17 L63.70,50.47 L64.00,52.00 L64.00,118.67 L63.60,120.40 L62.49,121.79 L60.89,122.57 L59.11,122.57 L57.51,121.79 L56.40,120.40 L56.00,118.67 L56.00,52.00 L56.30,50.47 L57.17,49.17 L58.47,48.30 L60.00,48.00 Z" fill="#b57400" stroke="#1e1e1e" stroke-width="1" stroke-linejoin="round"/><path d="M81.33,118.67 L81.33,68.00 L81.73,66.26 L82.84,64.87 L84.44,64.10 L86.22,64.10 L87.83,64.87 L88.94,66.26 L89.33,68.00 L89.33,118.67 L88.94,120.40 L87.83,121.79 L86.22,122.57 L84.44,122.57 L82.84,121.79 L81.73,120.40 L81.33,118.67 Z" fill="#b57400" stroke="#1e1e1e" stroke-width="1" stroke-linejoin="round"/><path d="M110.67,80.00 L112.20,80.30 L113.50,81.17 L114.36,82.47 L114.67,84.00 L114.67,118.67 L114.27,120.40 L113.16,121.79 L111.56,122.57 L109.78,122.57 L108.17,121.79 L107.06,120.40 L106.67,118.67 L106.67,84.00 L106.97,82.47 L107.84,81.17 L109.14,80.30 L110.67,80.00 Z" fill="#b57400" stroke="#1e1e1e" stroke-width="1" stroke-linejoin="round"/><path d="M133.33,176.00 L139.14,175.60 L144.84,174.42 L150.33,172.47 L155.50,169.79 L160.26,166.43 L164.52,162.46 L168.19,157.94 L171.22,152.96 L173.54,147.62 L175.11,142.01 L175.90,136.25 L175.90,130.42 L175.11,124.65 L173.54,119.05 L171.22,113.70 L168.19,108.73 L164.52,104.21 L160.26,100.24 L155.50,96.88 L150.33,94.20 L144.84,92.25 L139.14,91.06 L133.33,90.67 L127.52,91.06 L121.82,92.25 L116.33,94.20 L111.16,96.88 L106.41,100.24 L102.15,104.21 L98.48,108.73 L95.45,113.70 L93.13,119.05 L91.56,124.65 L90.77,130.42 L90.77,136.25 L91.56,142.01 L93.13,147.62 L95.45,152.96 L98.48,157.94 L102.15,162.46 L106.41,166.43 L111.16,169.79 L116.33,172.47 L121.82,174.42 L127.52,175.60 L133.33,176.00 Z" fill="#f5f5f5" stroke="#1e1e1e" stroke-width="1" stroke-linejoin="round"/><path d="M159.73,106.93 L163.37,111.16 L166.34,115.89 L168.57,121.00 L170.02,126.39 L170.64,131.94 L170.43,137.51 L169.40,143.00 L167.55,148.26 L164.95,153.20 L161.63,157.69 L157.69,161.63 L153.20,164.95 L148.26,167.55 L143.00,169.40 L137.51,170.43 L131.94,170.64 L126.39,170.02 L121.00,168.57 L115.89,166.34 L111.16,163.37 L106.93,159.73 L103.29,155.50 L100.32,150.78 L98.09,145.66 L96.65,140.27 L96.02,134.73 L96.23,129.15 L97.27,123.67 L99.11,118.40 L101.72,113.47 L105.03,108.98 L108.98,105.03 L113.47,101.72 L118.40,99.11 L123.67,97.27 L129.15,96.23 L134.73,96.02 L140.27,96.65 L145.66,98.09 L150.78,100.32 L155.50,103.29 L159.73,106.93" fill="none" stroke="#1e1e1e" stroke-width="1" stroke-linejoin="round"/><path d="M157.77,112.67 L160.70,116.73 L162.97,121.20 L164.50,125.97 L165.28,130.92 L165.27,135.93 L164.48,140.88 L162.93,145.64 L160.65,150.11 L157.70,154.16 L154.16,157.70 L150.11,160.65 L145.64,162.93 L140.88,164.48 L135.93,165.27 L130.92,165.28 L125.97,164.50 L121.20,162.97 L116.73,160.70 L112.67,157.77 L157.77,112.67 Z" fill="#f5f5f5" stroke="#1e1e1e" stroke-width="1" stroke-linejoin="round"/><path d="M154.00,108.90 L108.90,154.00 L105.96,149.94 L103.70,145.47 L102.16,140.70 L101.39,135.75 L101.40,130.74 L102.19,125.79 L103.74,121.02 L106.02,116.56 L108.96,112.51 L112.51,108.96 L116.56,106.02 L121.02,103.74 L125.79,102.19 L130.74,101.40 L135.75,101.39 L140.70,102.16 L145.47,103.70 L149.94,105.96 L154.00,108.90" fill="none" stroke="#1e1e1e" stroke-width="1" stroke-linejoin="round"/></svg>