<svg xmlns="http://www.w3.org/2000/svg" viewBox="8.87 7.62 97.54 100.00"><path d="M53.34,78.15 L54.55,77.41 L55.70,76.61 L56.81,75.77 L57.86,74.87 L59.79,72.95 L61.51,70.86 L63.00,68.62 L64.25,66.25 L65.28,63.78 L66.06,61.22 L66.59,58.59 L66.87,55.90 L66.90,53.19 L66.66,50.46 L66.16,47.74 L65.39,45.05 L64.35,42.41 L63.02,39.83 L61.45,37.39 L59.68,35.16 L57.73,33.15 L55.63,31.35 L53.39,29.79 L51.02,28.45 L48.56,27.36 L46.01,26.50 L43.40,25.90 L40.75,25.54 L38.07,25.45 L35.39,25.62 L32.72,26.06 L30.09,26.78 L28.79,27.24 L27.50,27.77 L26.24,28.38 L24.99,29.05 L23.78,29.79 L22.62,30.59 L21.52,31.43 L20.47,32.33 L18.53,34.25 L16.82,36.34 L15.33,38.58 L14.07,40.95 L13.05,43.42 L12.27,45.98 L11.74,48.62 L11.45,51.30 L11.43,54.01 L11.66,56.74 L12.16,59.46 L12.93,62.15 L13.98,64.80 L15.30,67.38 L16.88,69.81 L18.65,72.04 L20.59,74.06 L22.70,75.85 L24.94,77.41 L27.30,78.75 L29.77,79.84 L32.32,80.70 L34.92,81.30 L37.58,81.66 L40.25,81.75 L42.94,81.58 L45.60,81.14 L48.24,80.42 L49.54,79.96 L50.82,79.43 L52.09,78.82 L53.33,78.15 L53.34,78.15 Z" fill="#0079d4" stroke="#1e1e1e" stroke-width="1" stroke-linejoin="round"/><path d="M70.53,40.14 L71.73,38.81 L72.77,37.38 L73.64,35.88 L74.35,34.32 L74.90,32.70 L75.28,31.04 L75.50,29.35 L75.56,27.64 L75.45,25.94 L75.18,24.24 L74.75,22.57 L74.16,20.94 L73.40,19.35 L72.49,17.82 L71.41,16.37 L70.17,15.00 L68.80,13.76 L67.35,12.68 L65.82,11.77 L64.23,11.01 L62.60,10.42 L60.92,9.99 L59.23,9.72 L57.52,9.62 L55.82,9.67 L54.13,9.89 L52.47,10.28 L50.85,10.82 L49.29,11.53 L47.79,12.41 L46.36,13.45 L45.03,14.65 L43.83,15.98 L42.79,17.40 L41.92,18.90 L41.21,20.47 L40.67,22.09 L40.28,23.75 L40.06,25.44 L40.01,27.14 L40.11,28.85 L40.38,30.54 L40.81,32.21 L41.41,33.85 L42.16,35.44 L43.08,36.96 L44.16,38.42 L45.40,39.79 L46.76,41.02 L48.22,42.10 L49.74,43.02 L51.33,43.77 L52.97,44.37 L54.64,44.80 L56.34,45.06 L58.04,45.17 L59.74,45.11 L61.43,44.89 L63.09,44.51 L64.71,43.96 L66.28,43.25 L67.78,42.38 L69.20,41.34 L70.53,40.14 Z" fill="#0173cb" stroke="#1e1e1e" stroke-width="1" stroke-linejoin="round"/><path d="M63.16,103.79 L65.28,103.74 L67.37,103.58 L69.44,103.32 L71.47,102.95 L73.47,102.49 L75.42,101.94 L77.34,101.29 L79.21,100.55 L81.04,99.72 L82.82,98.81 L84.55,97.82 L86.22,96.75 L87.84,95.60 L89.40,94.37 L90.89,93.07 L92.33,91.71 L93.69,90.28 L94.99,88.78 L96.21,87.22 L97.36,85.60 L98.44,83.93 L99.43,82.20 L100.34,80.42 L101.17,78.59 L101.91,76.72 L102.55,74.80 L103.11,72.85 L103.57,70.85 L103.93,68.82 L104.20,66.75 L104.36,64.66 L104.41,62.53 L104.36,60.41 L104.20,58.32 L103.93,56.25 L103.57,54.22 L103.11,52.22 L102.56,50.27 L101.91,48.35 L101.17,46.48 L100.34,44.65 L99.43,42.87 L98.44,41.14 L97.36,39.47 L96.21,37.85 L94.99,36.29 L93.69,34.80 L92.33,33.36 L90.89,32.00 L89.40,30.70 L87.84,29.48 L86.22,28.33 L84.55,27.25 L82.82,26.26 L81.04,25.35 L79.22,24.52 L77.34,23.78 L75.42,23.14 L73.47,22.58 L71.47,22.12 L69.44,21.76 L67.37,21.49 L65.28,21.34 L63.16,21.28 L61.03,21.34 L58.94,21.49 L56.87,21.76 L54.84,22.12 L52.85,22.58 L50.89,23.14 L48.97,23.79 L47.10,24.52 L45.27,25.35 L43.49,26.26 L41.76,27.25 L40.09,28.33 L38.47,29.48 L36.91,30.70 L35.42,32.00 L33.98,33.37 L32.62,34.80 L31.32,36.29 L30.10,37.85 L28.95,39.47 L27.87,41.14 L26.88,42.87 L25.97,44.65 L25.14,46.48 L24.40,48.35 L23.76,50.27 L23.20,52.23 L22.74,54.22 L22.38,56.25 L22.11,58.32 L21.96,60.41 L21.90,62.54 L21.96,64.66 L22.11,66.76 L22.38,68.82 L22.74,70.85 L23.20,72.85 L23.76,74.81 L24.40,76.72 L25.14,78.60 L25.97,80.42 L26.88,82.20 L27.87,83.93 L28.95,85.60 L30.10,87.22 L31.32,88.78 L32.62,90.28 L33.98,91.71 L35.42,93.07 L36.91,94.37 L38.47,95.60 L40.09,96.75 L41.76,97.82 L43.49,98.81 L45.27,99.72 L47.10,100.55 L48.97,101.29 L50.89,101.94 L52.85,102.49 L54.84,102.95 L56.87,103.31 L58.94,103.58 L61.03,103.74 L63.16,103.79 L63.16,103.79 Z" fill="#0182d8" stroke="#1e1e1e" stroke-width="1" stroke-linejoin="round"/><path d="M46.99,12.94 L44.77,14.39 L42.64,15.93 L40.60,17.56 L38.66,19.28 L36.82,21.07 L35.08,22.95 L33.43,24.89 L31.89,26.90 L30.45,28.98 L29.11,31.11 L27.87,33.30 L26.74,35.54 L25.72,37.83 L24.81,40.16 L24.00,42.53 L23.31,44.93 L22.73,47.36 L22.26,49.82 L21.90,52.30 L21.66,54.80 L21.54,57.31 L21.54,59.83 L21.65,62.36 L21.88,64.88 L22.24,67.40 L22.72,69.92 L23.32,72.42 L24.04,74.91 L24.90,77.37 L25.88,79.82 L26.99,82.23 L28.23,84.61 L29.69,87.11 L31.29,89.51 L32.37,89.67 L56.30,97.66 L79.04,82.43 L78.19,82.34 L77.08,82.04 L75.74,81.53 L74.20,80.79 L72.48,79.83 L70.60,78.64 L68.60,77.23 L66.49,75.58 L64.31,73.71 L62.08,71.60 L59.82,69.26 L57.56,66.68 L55.33,63.85 L53.15,60.79 L51.04,57.48 L49.04,53.92 L46.82,49.46 L45.00,45.30 L43.56,41.43 L42.47,37.84 L41.70,34.52 L41.23,31.46 L41.03,28.64 L41.07,26.07 L41.33,23.73 L41.78,21.61 L42.40,19.70 L43.15,17.99 L44.02,16.47 L44.97,15.12 L45.98,13.95 L47.02,12.94 L46.99,12.94 Z" fill="#3ad3f8" stroke="#1e1e1e" stroke-width="1" stroke-linejoin="round"/><path d="M46.99,12.94 L44.77,14.39 L42.64,15.93 L40.60,17.56 L38.66,19.28 L36.82,21.07 L35.08,22.95 L33.43,24.89 L31.89,26.90 L30.45,28.98 L29.11,31.11 L27.87,33.30 L26.74,35.54 L25.72,37.83 L24.81,40.16 L24.00,42.53 L23.31,44.93 L22.73,47.36 L22.26,49.82 L21.90,52.30 L21.66,54.80 L21.54,57.31 L21.54,59.83 L21.65,62.36 L21.88,64.88 L22.24,67.40 L22.72,69.92 L23.32,72.42 L24.04,74.91 L24.90,77.37 L25.88,79.82 L26.99,82.23 L28.23,84.61 L29.69,87.11 L31.29,89.51 L32.37,89.67 L56.30,97.66 L79.04,82.43 L78.19,82.34 L77.08,82.04 L75.74,81.53 L74.20,80.79 L72.48,79.83 L70.60,78.64 L68.60,77.23 L66.49,75.58 L64.31,73.71 L62.08,71.60 L59.82,69.26 L57.56,66.68 L55.33,63.85 L53.15,60.79 L51.04,57.48 L49.04,53.92 L46.82,49.46 L45.00,45.30 L43.56,41.43 L42.47,37.84 L41.70,34.52 L41.23,31.46 L41.03,28.64 L41.07,26.07 L41.33,23.73 L41.78,21.61 L42.40,19.70 L43.15,17.99 L44.02,16.47 L44.97,15.12 L45.98,13.95 L47.02,12.94 L46.99,12.94 Z" fill="#000000" stroke="#1e1e1e" stroke-width="1" stroke-linejoin="round" opacity="0"/><path d="M94.53,89.33 L96.90,86.27 L98.98,83.01 L100.74,79.56 L102.18,75.97 L103.27,72.26 L102.85,71.18 L102.36,70.16 L101.80,69.19 L101.19,68.27 L100.51,67.40 L99.78,66.58 L99.00,65.82 L98.18,65.11 L96.40,63.86 L94.47,62.84 L92.43,62.05 L90.30,61.51 L88.11,61.20 L85.90,61.15 L83.68,61.35 L81.50,61.81 L79.37,62.54 L78.34,63.01 L77.33,63.55 L76.35,64.16 L75.41,64.84 L74.50,65.59 L73.63,66.41 L71.02,68.99 L68.41,71.42 L65.82,73.65 L63.28,75.65 L60.81,77.36 L58.44,78.76 L57.29,79.32 L56.18,79.79 L55.11,80.15 L54.07,80.40 L51.19,80.89 L48.41,81.19 L45.73,81.33 L43.16,81.30 L40.69,81.12 L38.33,80.79 L36.07,80.33 L33.91,79.74 L31.85,79.02 L29.90,78.20 L28.05,77.27 L26.29,76.25 L24.64,75.14 L23.09,73.96 L21.63,72.70 L20.28,71.39 L19.02,70.02 L17.86,68.60 L16.80,67.15 L15.84,65.67 L14.97,64.18 L14.20,62.67 L13.53,61.16 L12.95,59.65 L12.47,58.16 L12.08,56.70 L11.78,55.26 L11.58,53.86 L11.47,52.52 L11.46,51.22 L11.53,50.00 L11.70,48.84 L11.14,52.54 L10.87,56.26 L10.90,60.00 L11.21,63.72 L11.82,67.41 L12.37,69.80 L13.04,72.14 L13.82,74.42 L14.70,76.64 L15.68,78.80 L16.76,80.89 L17.94,82.92 L19.22,84.87 L20.57,86.75 L22.02,88.56 L23.55,90.29 L25.15,91.94 L26.83,93.51 L28.58,94.99 L30.39,96.39 L32.28,97.70 L34.22,98.91 L36.21,100.04 L38.26,101.06 L40.36,101.99 L42.51,102.82 L44.70,103.55 L46.93,104.17 L49.19,104.68 L51.49,105.09 L53.81,105.38 L56.16,105.56 L58.53,105.62 L60.92,105.56 L63.32,105.38 L65.73,105.07 L68.15,104.64 L71.95,103.71 L75.66,102.47 L79.26,100.92 L82.71,99.09 L86.00,96.98 L89.11,94.60 L89.24,94.50 L91.99,92.01 L94.53,89.32 L94.53,89.33 Z" fill="#40d9fa" stroke="#1e1e1e" stroke-width="1" stroke-linejoin="round"/></svg>