<svg xmlns="http://www.w3.org/2000/svg" viewBox="39.44 19.33 181.79 217.33"><path d="M135.08,233.78 L133.60,234.25 L132.07,234.55 L130.51,234.66 L128.95,234.59 L127.40,234.34 L125.87,233.90 L124.39,233.27 L122.98,232.45 L120.81,230.70 L118.94,228.56 L117.44,226.12 L116.36,223.49 L115.76,220.77 L115.70,218.04 L115.89,216.71 L116.24,215.41 L116.75,214.17 L117.43,212.98 L169.32,135.82 L216.99,189.31 L218.04,190.77 L218.76,192.36 L219.15,194.03 L219.21,195.73 L218.95,197.42 L218.37,199.03 L217.46,200.52 L216.24,201.84 L215.05,202.76 L213.73,203.44 L135.08,233.78 Z" fill="#095fa6" stroke="#1e1e1e" stroke-width="1" stroke-linejoin="round"/><path d="M93.27,141.42 L42.77,65.44 L41.77,63.22 L41.44,60.80 L41.62,59.01 L42.14,57.34 L42.96,55.83 L44.05,54.51 L45.37,53.42 L46.88,52.60 L48.56,52.07 L50.35,51.89 L52.38,51.84 L53.40,51.89 L54.29,52.11 L136.41,90.72 L131.72,100.05 L93.27,141.42 Z" fill="#0c589b" stroke="#1e1e1e" stroke-width="1" stroke-linejoin="round"/><path d="M125.59,233.83 L124.26,233.25 L122.98,232.50 L120.69,230.57 L118.89,228.19 L117.67,225.47 L117.08,222.54 L117.15,219.55 L117.89,216.66 L119.24,213.99 L217.89,65.49 L218.91,63.15 L219.21,60.62 L218.78,58.11 L217.66,55.82 L215.93,53.94 L213.73,52.64 L135.08,22.29 L132.77,21.62 L130.34,21.39 L127.90,21.61 L125.59,22.24 L46.93,52.59 L48.61,52.08 L50.40,51.89 L52.17,52.08 L53.81,52.59 L115.88,82.51 L117.52,83.48 L119.00,84.63 L120.32,85.95 L121.45,87.42 L122.36,89.03 L123.05,90.77 L123.47,92.64 L123.62,94.61 L123.39,97.06 L122.74,99.36 L121.70,101.47 L120.31,103.35 L43.73,189.31 L42.68,190.77 L41.96,192.36 L41.57,194.03 L41.51,195.73 L41.77,197.41 L42.35,199.03 L43.26,200.52 L44.48,201.84 L45.67,202.76 L46.99,203.44 L125.64,233.79 L125.59,233.83 Z" fill="#34afe6" stroke="#1e1e1e" stroke-width="1" stroke-linejoin="round"/><path d="M53.97,52.59 L116.04,82.50 L118.61,84.15 L120.74,86.26 L121.62,87.46 L122.37,88.77 L122.96,90.15 L123.40,91.62 L219.23,59.46 L218.60,57.25 L217.47,55.30 L215.90,53.72 L213.95,52.58 L135.30,22.24 L132.99,21.57 L130.55,21.33 L128.12,21.56 L125.81,22.19 L47.15,52.53 L48.82,52.03 L50.61,51.84 L52.38,52.03 L54.03,52.53 L53.97,52.59 Z" fill="#a1ecff" stroke="#1e1e1e" stroke-width="1" stroke-linejoin="round"/></svg>