<svg xmlns="http://www.w3.org/2000/svg" viewBox="14.00 14.00 142.67 142.67"><path d="M16.00,34.67 L16.36,31.02 L17.42,27.52 L19.15,24.30 L21.47,21.47 L24.30,19.15 L27.52,17.42 L31.02,16.36 L34.67,16.00 L136.00,16.00 L139.64,16.36 L143.14,17.42 L146.37,19.15 L149.20,21.47 L151.52,24.30 L153.25,27.52 L154.31,31.02 L154.67,34.67 L154.67,136.00 L154.31,139.64 L153.25,143.14 L151.52,146.37 L149.20,149.20 L146.37,151.52 L143.14,153.25 L139.64,154.31 L136.00,154.67 L34.67,154.67 L31.02,154.31 L27.52,153.25 L24.30,151.52 L21.47,149.20 L19.15,146.37 L17.42,143.14 L16.36,139.64 L16.00,136.00 L16.00,34.67 Z" fill="#f5f5f5" stroke="#1e1e1e" stroke-width="1" stroke-linejoin="round"/><path d="M16.00,34.67 L16.36,31.02 L17.42,27.52 L19.15,24.30 L21.47,21.47 L24.30,19.15 L27.52,17.42 L31.02,16.36 L34.67,16.00 L136.00,16.00 L139.64,16.36 L143.14,17.42 L146.37,19.15 L149.20,21.47 L151.52,24.30 L153.25,27.52 L154.31,31.02 L154.67,34.67 L154.67,136.00 L154.31,139.64 L153.25,143.14 L151.52,146.37 L149.20,149.20 L146.37,151.52 L143.14,153.25 L139.64,154.31 L136.00,154.67 L34.67,154.67 L31.02,154.31 L27.52,153.25 L24.30,151.52 L21.47,149.20 L19.15,146.37 L17.42,143.14 L16.36,139.64 L16.00,136.00 L16.00,34.67 Z" fill="#e3e3e3" stroke="#1e1e1e" stroke-width="1" stroke-linejoin="round" opacity="0.2"/><path d="M34.67,16.00 L31.02,16.36 L27.52,17.42 L24.30,19.15 L21.47,21.47 L19.15,24.30 L17.42,27.52 L16.36,31.02 L16.00,34.67 L16.00,136.00 L16.36,139.64 L17.42,143.14 L19.15,146.37 L21.47,149.20 L24.30,151.52 L27.52,153.25 L31.02,154.31 L34.67,154.67 L136.00,154.67 L139.64,154.31 L143.14,153.25 L146.37,151.52 L149.20,149.20 L151.52,146.37 L153.25,143.14 L154.31,139.64 L154.67,136.00 L154.67,34.67 L154.31,31.02 L153.25,27.52 L151.52,24.30 L149.20,21.47 L146.37,19.15 L143.14,17.42 L139.64,16.36 L136.00,16.00 L34.67,16.00 Z" fill="#a2a2a2" stroke="#1e1e1e" stroke-width="1" stroke-linejoin="round"/><path d="M136.00,21.33 L34.67,21.33 L31.70,21.67 L28.88,22.65 L26.35,24.24 L24.24,26.35 L22.65,28.88 L21.67,31.70 L21.33,34.67 L21.33,136.00 L21.67,138.97 L22.65,141.79 L24.24,144.31 L26.35,146.42 L28.88,148.01 L31.70,149.00 L34.67,149.33 L136.00,149.33 L138.97,149.00 L141.79,148.01 L144.31,146.42 L146.42,144.31 L148.01,141.79 L149.00,138.97 L149.33,136.00 L149.33,34.67 L149.00,31.70 L148.01,28.88 L146.42,26.35 L144.31,24.24 L141.79,22.65 L138.97,21.67 L136.00,21.33 Z" fill="#f1f1f1" stroke="#1e1e1e" stroke-width="1" stroke-linejoin="round"/><path d="M58.83,58.67 L56.00,58.67 L53.53,59.06 L51.30,60.19 L49.53,61.96 L48.39,64.19 L48.00,66.67 L48.00,109.33 L48.39,111.81 L49.53,114.04 L51.30,115.81 L53.53,116.94 L56.00,117.33 L58.83,117.33 L58.83,58.67 Z" fill="#b57400" stroke="#b57400" stroke-width="1" stroke-linejoin="round"/><path d="M64.17,117.33 L64.17,58.67 L114.67,58.67 L117.14,59.06 L119.37,60.19 L121.14,61.96 L122.28,64.19 L122.67,66.67 L122.67,109.33 L122.28,111.81 L121.14,114.04 L119.37,115.81 L117.14,116.94 L114.67,117.33 L64.17,117.33 Z" fill="#b57400" stroke="#b57400" stroke-width="1" stroke-linejoin="round"/><path d="M77.33,80.00 L77.74,77.96 L78.90,76.23 L80.63,75.07 L82.67,74.67 L104.00,74.67 L106.04,75.07 L107.77,76.23 L108.93,77.96 L109.33,80.00 L109.33,90.67 L108.93,92.71 L107.77,94.44 L106.04,95.59 L104.00,96.00 L82.67,96.00 L80.63,95.59 L78.90,94.44 L77.74,92.71 L77.33,90.67 L77.33,80.00 Z" fill="#f1f1f1" stroke="#f1f1f1" stroke-width="1" stroke-linejoin="round"/><path d="M104.00,80.00 L82.67,80.00 L82.67,90.67 L104.00,90.67 L104.00,80.00 Z" fill="#b57400" stroke="#b57400" stroke-width="1" stroke-linejoin="round"/></svg>