<svg xmlns="http://www.w3.org/2000/svg" viewBox="19.60 7.60 76.00 100.00"><path d="M93.60,9.60 L93.60,105.60 L61.60,105.60 L61.60,9.60 L93.60,9.60 Z" fill="#d7960f" stroke="#1e1e1e" stroke-width="1" stroke-linejoin="round"/><path d="M73.60,37.60 L73.60,105.60 L41.60,105.60 L41.60,33.60 L69.60,33.60 L70.41,33.68 L71.16,33.91 L71.84,34.28 L72.43,34.77 L72.92,35.36 L73.29,36.04 L73.52,36.79 L73.60,37.60 L73.60,37.60 Z" fill="#eec230" stroke="#1e1e1e" stroke-width="1" stroke-linejoin="round"/><path d="M21.60,57.60 L21.60,105.60 L53.60,105.60 L53.60,61.60 L53.52,60.79 L53.29,60.04 L52.92,59.36 L52.43,58.77 L51.84,58.28 L51.16,57.91 L50.41,57.68 L49.60,57.60 L21.60,57.60 Z" fill="#f8de6d" stroke="#1e1e1e" stroke-width="1" stroke-linejoin="round"/></svg>