<svg xmlns="http://www.w3.org/2000/svg" viewBox="7.60 7.60 100.00 100.00"><path d="M21.60,24.00 L21.96,20.80 L23.03,17.75 L24.74,15.02 L27.02,12.74 L29.75,11.03 L32.80,9.96 L36.00,9.60 L39.20,9.96 L42.25,11.03 L44.98,12.74 L47.26,15.02 L48.97,17.75 L50.04,20.80 L50.40,24.00 L50.04,27.20 L48.97,30.25 L47.26,32.98 L44.98,35.26 L42.25,36.97 L39.20,38.04 L36.00,38.40 L32.80,38.04 L29.75,36.97 L27.02,35.26 L24.74,32.98 L23.03,30.25 L21.96,27.20 L21.60,24.00 Z" fill="#16806e" stroke="#1e1e1e" stroke-width="1" stroke-linejoin="round"/><path d="M36.00,14.40 L33.52,14.73 L31.20,15.69 L29.21,17.21 L27.69,19.20 L26.73,21.52 L26.40,24.00 L26.73,26.48 L27.69,28.80 L29.21,30.79 L31.20,32.31 L33.52,33.27 L36.00,33.60 L38.48,33.27 L40.80,32.31 L42.79,30.79 L44.31,28.80 L45.27,26.48 L45.60,24.00 L45.27,21.52 L44.31,19.20 L42.79,17.21 L40.80,15.69 L38.48,14.73 L36.00,14.40 Z" fill="#ffffff" stroke="#1e1e1e" stroke-width="1" stroke-linejoin="round"/><path d="M57.60,38.40 L54.40,38.76 L51.35,39.83 L48.62,41.54 L46.34,43.82 L44.63,46.55 L43.56,49.60 L43.20,52.80 L43.56,56.00 L44.63,59.05 L46.34,61.78 L48.62,64.06 L51.35,65.77 L54.40,66.84 L57.60,67.20 L60.80,66.84 L63.85,65.77 L66.58,64.06 L68.86,61.78 L70.57,59.05 L71.64,56.00 L72.00,52.80 L71.64,49.60 L70.57,46.55 L68.86,43.82 L66.58,41.54 L63.85,39.83 L60.80,38.76 L57.60,38.40 Z" fill="#16806e" stroke="#1e1e1e" stroke-width="1" stroke-linejoin="round"/><path d="M48.00,52.80 L48.33,50.32 L49.29,48.00 L50.81,46.01 L52.80,44.49 L55.12,43.53 L57.60,43.20 L60.08,43.53 L62.40,44.49 L64.39,46.01 L65.91,48.00 L66.87,50.32 L67.20,52.80 L66.87,55.28 L65.91,57.60 L64.39,59.59 L62.40,61.11 L60.08,62.07 L57.60,62.40 L55.12,62.07 L52.80,61.11 L50.81,59.59 L49.29,57.60 L48.33,55.28 L48.00,52.80 Z" fill="#ffffff" stroke="#1e1e1e" stroke-width="1" stroke-linejoin="round"/><path d="M80.64,94.57 L81.75,92.48 L82.58,90.42 L83.18,88.46 L83.58,86.67 L83.95,83.78 L84.00,82.21 L84.00,80.48 L83.83,78.77 L83.33,77.18 L82.55,75.74 L81.52,74.48 L80.26,73.45 L78.82,72.67 L77.22,72.17 L75.51,72.00 L39.69,72.00 L37.98,72.17 L36.38,72.67 L34.94,73.45 L33.68,74.48 L32.65,75.74 L31.87,77.18 L31.37,78.78 L31.20,80.49 L31.20,82.21 L31.25,83.78 L31.62,86.67 L32.02,88.46 L32.62,90.42 L33.45,92.48 L34.56,94.57 L36.06,96.75 L37.90,98.80 L40.11,100.67 L42.71,102.31 L45.74,103.67 L49.21,104.71 L53.16,105.37 L57.60,105.60 L62.04,105.37 L65.99,104.71 L69.46,103.67 L72.49,102.31 L75.09,100.67 L77.30,98.80 L79.14,96.75 L80.64,94.57 Z" fill="#16806e" stroke="#1e1e1e" stroke-width="1" stroke-linejoin="round"/><path d="M79.20,82.21 L79.16,83.47 L78.86,85.79 L78.06,88.79 L77.40,90.43 L76.52,92.10 L75.41,93.72 L74.01,95.30 L72.29,96.77 L70.21,98.08 L67.74,99.20 L64.84,100.05 L61.47,100.60 L57.60,100.80 L53.73,100.60 L50.36,100.05 L47.46,99.19 L44.99,98.08 L42.91,96.77 L41.19,95.30 L39.79,93.72 L38.68,92.10 L37.80,90.44 L37.14,88.80 L36.34,85.79 L36.04,83.47 L36.00,82.21 L36.00,80.49 L36.07,79.74 L36.29,79.05 L37.08,77.88 L38.25,77.09 L38.94,76.87 L39.69,76.80 L75.51,76.80 L76.26,76.87 L76.95,77.09 L78.12,77.88 L78.91,79.05 L79.13,79.74 L79.20,80.49 L79.20,82.21 L79.20,82.21 Z" fill="#ffffff" stroke="#1e1e1e" stroke-width="1" stroke-linejoin="round"/><path d="M102.24,65.77 L101.17,67.39 L99.91,68.94 L98.46,70.41 L96.81,71.78 L94.94,73.02 L92.85,74.12 L90.53,75.06 L87.96,75.82 L86.83,73.53 L85.29,71.49 L87.76,70.91 L89.95,70.16 L91.87,69.25 L93.55,68.21 L94.99,67.08 L96.22,65.86 L97.26,64.59 L98.12,63.30 L99.00,61.64 L99.66,60.00 L100.46,56.99 L100.76,54.67 L100.80,53.41 L100.80,51.69 L100.52,50.28 L99.72,49.08 L98.52,48.28 L97.11,48.00 L76.20,48.00 L75.38,45.53 L74.23,43.20 L97.11,43.20 L98.83,43.37 L100.42,43.87 L101.86,44.65 L103.12,45.68 L104.15,46.94 L104.93,48.38 L105.43,49.98 L105.60,51.69 L105.60,53.41 L105.55,54.98 L105.18,57.87 L104.78,59.66 L104.18,61.62 L103.35,63.68 L102.24,65.77 Z" fill="#16806e" stroke="#1e1e1e" stroke-width="1" stroke-linejoin="round"/><path d="M40.97,43.20 L18.09,43.20 L16.37,43.37 L14.78,43.87 L13.34,44.65 L12.08,45.68 L11.05,46.94 L10.27,48.38 L9.77,49.98 L9.60,51.69 L9.60,53.41 L9.65,54.98 L10.02,57.87 L10.42,59.66 L11.02,61.62 L11.85,63.68 L12.96,65.77 L14.03,67.39 L15.29,68.94 L16.74,70.41 L18.39,71.78 L20.26,73.02 L22.35,74.12 L24.67,75.06 L27.24,75.82 L28.37,73.52 L29.91,71.49 L27.44,70.91 L25.25,70.16 L23.33,69.25 L21.65,68.21 L20.21,67.08 L18.98,65.86 L17.94,64.59 L17.08,63.30 L16.20,61.64 L15.54,60.00 L14.74,56.99 L14.44,54.67 L14.40,53.41 L14.40,51.69 L14.47,50.94 L14.69,50.25 L15.48,49.08 L16.65,48.29 L17.34,48.07 L18.09,48.00 L39.00,48.00 L39.83,45.52 L40.97,43.20 L40.97,43.20 Z" fill="#16806e" stroke="#1e1e1e" stroke-width="1" stroke-linejoin="round"/><path d="M79.20,9.60 L76.00,9.96 L72.95,11.03 L70.22,12.74 L67.94,15.02 L66.23,17.75 L65.16,20.80 L64.80,24.00 L65.16,27.20 L66.23,30.25 L67.94,32.98 L70.22,35.26 L72.95,36.97 L76.00,38.04 L79.20,38.40 L82.40,38.04 L85.45,36.97 L88.18,35.26 L90.46,32.98 L92.17,30.25 L93.24,27.20 L93.60,24.00 L93.24,20.80 L92.17,17.75 L90.46,15.02 L88.18,12.74 L85.45,11.03 L82.40,9.96 L79.20,9.60 Z" fill="#16806e" stroke="#1e1e1e" stroke-width="1" stroke-linejoin="round"/><path d="M69.60,24.00 L69.93,21.52 L70.89,19.20 L72.41,17.21 L74.40,15.69 L76.72,14.73 L79.20,14.40 L81.68,14.73 L84.00,15.69 L85.99,17.21 L87.51,19.20 L88.47,21.52 L88.80,24.00 L88.47,26.48 L87.51,28.80 L85.99,30.79 L84.00,32.31 L81.68,33.27 L79.20,33.60 L76.72,33.27 L74.40,32.31 L72.41,30.79 L70.89,28.80 L69.93,26.48 L69.60,24.00 Z" fill="#ffffff" stroke="#1e1e1e" stroke-width="1" stroke-linejoin="round"/></svg>