<svg xmlns="http://www.w3.org/2000/svg" viewBox="8.91 6.73 100.00 100.00"><path d="M10.91,21.82 L11.24,18.91 L12.21,16.14 L13.77,13.66 L15.84,11.58 L18.32,10.02 L21.09,9.06 L24.00,8.73 L85.09,8.73 L88.00,9.06 L90.77,10.02 L93.25,11.58 L95.33,13.66 L96.89,16.14 L97.85,18.91 L98.18,21.82 L98.18,82.91 L97.85,85.82 L96.89,88.59 L95.33,91.07 L93.25,93.14 L90.77,94.70 L88.00,95.67 L85.09,96.00 L24.00,96.00 L21.09,95.67 L18.32,94.70 L15.84,93.14 L13.77,91.07 L12.21,88.59 L11.24,85.82 L10.91,82.91 L10.91,21.82 Z" fill="#f5f5f5" stroke="#1e1e1e" stroke-width="1" stroke-linejoin="round"/><path d="M10.91,21.82 L11.24,18.91 L12.21,16.14 L13.77,13.66 L15.84,11.58 L18.32,10.02 L21.09,9.06 L24.00,8.73 L85.09,8.73 L88.00,9.06 L90.77,10.02 L93.25,11.58 L95.33,13.66 L96.89,16.14 L97.85,18.91 L98.18,21.82 L98.18,82.91 L97.85,85.82 L96.89,88.59 L95.33,91.07 L93.25,93.14 L90.77,94.70 L88.00,95.67 L85.09,96.00 L24.00,96.00 L21.09,95.67 L18.32,94.70 L15.84,93.14 L13.77,91.07 L12.21,88.59 L11.24,85.82 L10.91,82.91 L10.91,21.82 Z" fill="#e3e3e3" stroke="#1e1e1e" stroke-width="1" stroke-linejoin="round" opacity="0.2"/><path d="M24.00,8.73 L21.09,9.06 L18.32,10.02 L15.84,11.58 L13.77,13.66 L12.21,16.14 L11.24,18.91 L10.91,21.82 L10.91,82.91 L11.24,85.82 L12.21,88.59 L13.77,91.07 L15.84,93.14 L18.32,94.70 L21.09,95.67 L24.00,96.00 L85.09,96.00 L88.00,95.67 L90.77,94.70 L93.25,93.14 L95.33,91.07 L96.89,88.59 L97.85,85.82 L98.18,82.91 L98.18,21.82 L97.85,18.91 L96.89,16.14 L95.33,13.66 L93.25,11.58 L90.77,10.02 L88.00,9.06 L85.09,8.73 L24.00,8.73 Z" fill="#a2a2a2" stroke="#1e1e1e" stroke-width="1" stroke-linejoin="round"/><path d="M85.09,13.09 L24.00,13.09 L21.74,13.39 L19.64,14.26 L17.83,15.65 L16.44,17.45 L15.57,19.56 L15.27,21.82 L15.27,82.91 L15.57,85.17 L16.44,87.27 L17.83,89.08 L19.64,90.47 L21.74,91.34 L24.00,91.64 L85.09,91.64 L87.35,91.34 L89.45,90.47 L91.26,89.08 L92.65,87.27 L93.52,85.17 L93.82,82.91 L93.82,21.82 L93.52,19.56 L92.65,17.45 L91.26,15.65 L89.45,14.26 L87.35,13.39 L85.09,13.09 Z" fill="#f1f1f1" stroke="#1e1e1e" stroke-width="1" stroke-linejoin="round"/><path d="M32.73,41.45 L33.04,44.04 L33.95,46.48 L35.42,48.63 L37.35,50.37 L39.65,51.61 L42.17,52.26 L43.35,54.80 L45.06,57.03 L47.19,58.84 L49.67,60.16 L52.36,60.92 L52.36,67.64 L48.44,67.64 L46.28,67.98 L44.33,68.97 L42.79,70.51 L41.80,72.46 L41.45,74.62 L41.59,75.30 L41.97,75.85 L42.52,76.23 L43.20,76.36 L65.89,76.36 L66.76,76.13 L67.40,75.49 L67.64,74.62 L67.29,72.46 L66.30,70.51 L64.76,68.97 L62.81,67.98 L60.65,67.64 L56.73,67.64 L56.73,60.91 L59.42,60.15 L61.90,58.84 L64.03,57.02 L65.74,54.80 L66.93,52.26 L69.44,51.61 L71.74,50.37 L73.67,48.63 L75.14,46.48 L76.05,44.04 L76.36,41.45 L76.36,37.09 L76.04,35.07 L75.11,33.24 L73.67,31.80 L71.84,30.87 L69.82,30.55 L67.41,30.55 L67.07,29.64 L66.59,28.80 L65.99,28.06 L65.29,27.42 L64.48,26.90 L63.60,26.51 L62.64,26.27 L61.64,26.18 L47.45,26.18 L46.45,26.27 L45.49,26.51 L44.61,26.90 L43.80,27.42 L43.10,28.06 L42.50,28.80 L42.02,29.64 L41.68,30.55 L39.27,30.55 L37.25,30.87 L35.43,31.80 L33.98,33.24 L33.05,35.07 L32.73,37.09 L32.73,41.45 Z" fill="#b57400" stroke="#b57400" stroke-width="1" stroke-linejoin="round"/><path d="M39.27,34.91 L41.45,34.91 L41.45,47.63 L39.69,46.68 L38.29,45.24 L37.40,43.44 L37.09,41.45 L37.09,37.09 L37.38,36.00 L38.18,35.20 L39.27,34.91 Z" fill="#f1f1f1" stroke="#f1f1f1" stroke-width="1" stroke-linejoin="round"/><path d="M67.64,47.63 L69.40,46.68 L70.80,45.24 L71.69,43.44 L72.00,41.45 L72.00,37.09 L71.71,36.00 L70.91,35.20 L69.82,34.91 L67.64,34.91 L67.64,47.63 Z" fill="#f1f1f1" stroke="#f1f1f1" stroke-width="1" stroke-linejoin="round"/><path d="M106.91,78.55 L106.59,82.64 L105.63,86.64 L104.06,90.43 L101.91,93.93 L99.24,97.06 L96.12,99.73 L92.61,101.87 L88.82,103.45 L84.82,104.40 L80.73,104.73 L76.63,104.40 L72.64,103.45 L68.84,101.87 L65.34,99.73 L62.21,97.06 L59.55,93.93 L57.40,90.43 L55.83,86.64 L54.87,82.64 L54.55,78.55 L54.87,74.45 L55.83,70.45 L57.40,66.66 L59.55,63.16 L62.21,60.03 L65.34,57.36 L68.84,55.22 L72.64,53.65 L76.63,52.69 L80.73,52.36 L84.82,52.69 L88.82,53.65 L92.61,55.22 L96.12,57.36 L99.24,60.03 L101.91,63.16 L104.06,66.66 L105.63,70.45 L106.59,74.45 L106.91,78.55 Z" fill="#f5f5f5" stroke="#1e1e1e" stroke-width="1" stroke-linejoin="round"/><path d="M96.15,63.12 L98.65,66.02 L100.60,69.32 L101.95,72.91 L102.64,76.68 L102.67,80.52 L102.02,84.30 L100.72,87.90 L98.81,91.23 L96.35,94.17 L93.41,96.63 L90.09,98.54 L86.48,99.84 L82.70,100.48 L78.87,100.46 L75.10,99.77 L71.51,98.42 L68.21,96.47 L65.30,93.97 L62.93,91.05 L61.10,87.77 L59.86,84.22 L59.24,80.51 L59.28,76.74 L59.95,73.04 L61.26,69.52 L63.15,66.26 L65.57,63.39 L68.45,60.97 L71.70,59.08 L75.23,57.77 L78.93,57.09 L82.69,57.06 L86.40,57.67 L89.95,58.92 L93.23,60.75 L96.15,63.12 L96.15,63.12 Z" fill="#b57400" stroke="#1e1e1e" stroke-width="1" stroke-linejoin="round"/><path d="M94.52,67.84 L96.31,70.68 L97.53,73.81 L98.13,77.12 L98.08,80.48 L97.39,83.77 L96.09,86.86 L94.21,89.65 L91.83,92.03 L89.05,93.90 L85.95,95.21 L82.66,95.90 L79.30,95.95 L75.99,95.35 L72.86,94.13 L70.02,92.33 L94.52,67.84 Z" fill="#f5f5f5" stroke="#1e1e1e" stroke-width="1" stroke-linejoin="round"/><path d="M91.43,64.76 L66.94,89.25 L65.14,86.41 L63.92,83.28 L63.32,79.97 L63.37,76.61 L64.06,73.32 L65.37,70.23 L67.25,67.44 L69.62,65.06 L72.41,63.19 L75.50,61.88 L78.79,61.19 L82.15,61.14 L85.46,61.74 L88.59,62.96 L91.43,64.76 Z" fill="#f5f5f5" stroke="#1e1e1e" stroke-width="1" stroke-linejoin="round"/></svg>