<svg xmlns="http://www.w3.org/2000/svg" viewBox="3.33 14.00 126.56 116.00"><path d="M5.33,32.00 L5.73,28.44 L6.92,25.06 L8.82,22.02 L11.36,19.49 L14.39,17.58 L17.77,16.40 L21.33,16.00 L106.67,16.00 L110.23,16.40 L113.61,17.58 L116.64,19.49 L119.18,22.02 L121.08,25.06 L122.27,28.44 L122.67,32.00 L122.67,96.00 L122.27,99.56 L121.08,102.94 L119.18,105.98 L116.64,108.51 L113.61,110.42 L110.23,111.60 L106.67,112.00 L21.33,112.00 L17.77,111.60 L14.39,110.42 L11.36,108.51 L8.82,105.98 L6.92,102.94 L5.73,99.56 L5.33,96.00 L5.33,32.00 Z" fill="#f5f5f5" stroke="#1e1e1e" stroke-width="1" stroke-linejoin="round"/><path d="M5.33,32.00 L5.73,28.44 L6.92,25.06 L8.82,22.02 L11.36,19.49 L14.39,17.58 L17.77,16.40 L21.33,16.00 L106.67,16.00 L110.23,16.40 L113.61,17.58 L116.64,19.49 L119.18,22.02 L121.08,25.06 L122.27,28.44 L122.67,32.00 L122.67,96.00 L122.27,99.56 L121.08,102.94 L119.18,105.98 L116.64,108.51 L113.61,110.42 L110.23,111.60 L106.67,112.00 L21.33,112.00 L17.77,111.60 L14.39,110.42 L11.36,108.51 L8.82,105.98 L6.92,102.94 L5.73,99.56 L5.33,96.00 L5.33,32.00 Z" fill="#e3e3e3" stroke="#1e1e1e" stroke-width="1" stroke-linejoin="round" opacity="0.2"/><path d="M21.33,16.00 L17.77,16.40 L14.39,17.58 L11.36,19.49 L8.82,22.02 L6.92,25.06 L5.73,28.44 L5.33,32.00 L5.33,96.00 L5.73,99.56 L6.92,102.94 L8.82,105.98 L11.36,108.51 L14.39,110.42 L17.77,111.60 L21.33,112.00 L106.67,112.00 L110.23,111.60 L113.61,110.42 L116.64,108.51 L119.18,105.98 L121.08,102.94 L122.27,99.56 L122.67,96.00 L122.67,32.00 L122.27,28.44 L121.08,25.06 L119.18,22.02 L116.64,19.49 L113.61,17.58 L110.23,16.40 L106.67,16.00 L21.33,16.00 Z" fill="#a2a2a2" stroke="#1e1e1e" stroke-width="1" stroke-linejoin="round"/><path d="M106.67,21.33 L21.33,21.33 L18.57,21.70 L16.00,22.76 L13.79,24.46 L12.10,26.67 L11.03,29.24 L10.67,32.00 L10.67,96.00 L11.03,98.76 L12.10,101.33 L13.79,103.54 L16.00,105.24 L18.57,106.30 L21.33,106.67 L106.67,106.67 L109.43,106.30 L112.00,105.24 L114.21,103.54 L115.90,101.33 L116.97,98.76 L117.33,96.00 L117.33,32.00 L116.97,29.24 L115.90,26.67 L114.21,24.46 L112.00,22.76 L109.43,21.70 L106.67,21.33 Z" fill="#f1f1f1" stroke="#1e1e1e" stroke-width="1" stroke-linejoin="round"/><path d="M53.33,74.67 L52.93,76.71 L51.77,78.44 L50.04,79.59 L48.00,80.00 L45.96,79.59 L44.23,78.44 L43.07,76.71 L42.67,74.67 L43.07,72.63 L44.23,70.90 L45.96,69.74 L48.00,69.33 L50.04,69.74 L51.77,70.90 L52.93,72.63 L53.33,74.67 Z" fill="#6848aa" stroke="#6848aa" stroke-width="1" stroke-linejoin="round"/><path d="M69.33,74.67 L68.93,76.71 L67.77,78.44 L66.04,79.59 L64.00,80.00 L61.96,79.59 L60.23,78.44 L59.07,76.71 L58.67,74.67 L59.07,72.63 L60.23,70.90 L61.96,69.74 L64.00,69.33 L66.04,69.74 L67.77,70.90 L68.93,72.63 L69.33,74.67 Z" fill="#6848aa" stroke="#6848aa" stroke-width="1" stroke-linejoin="round"/><path d="M85.33,74.67 L84.93,76.71 L83.77,78.44 L82.04,79.59 L80.00,80.00 L77.96,79.59 L76.23,78.44 L75.07,76.71 L74.67,74.67 L75.07,72.63 L76.23,70.90 L77.96,69.74 L80.00,69.33 L82.04,69.74 L83.77,70.90 L84.93,72.63 L85.33,74.67 Z" fill="#6848aa" stroke="#6848aa" stroke-width="1" stroke-linejoin="round"/><path d="M41.63,32.00 L40.48,32.12 L39.39,32.46 L38.41,33.01 L37.55,33.77 L22.75,49.77 L21.82,51.13 L21.38,52.61 L21.39,54.09 L21.82,55.50 L22.61,56.76 L23.74,57.76 L25.16,58.43 L26.83,58.67 L32.00,58.67 L32.00,85.33 L32.36,88.09 L33.43,90.67 L35.12,92.88 L37.33,94.57 L39.91,95.64 L42.67,96.00 L85.33,96.00 L88.09,95.64 L90.67,94.57 L92.88,92.88 L94.57,90.67 L95.64,88.09 L96.00,85.33 L96.00,58.67 L101.17,58.67 L102.84,58.43 L104.26,57.76 L105.39,56.76 L106.18,55.50 L106.61,54.09 L106.62,52.61 L106.18,51.13 L105.25,49.77 L90.45,33.77 L89.27,32.81 L87.88,32.20 L86.37,32.00 L41.63,32.00 Z" fill="#6848aa" stroke="#1e1e1e" stroke-width="1" stroke-linejoin="round"/><path d="M37.33,58.67 L90.67,58.67 L90.67,85.33 L90.26,87.37 L89.10,89.10 L87.37,90.26 L85.33,90.67 L42.67,90.67 L40.63,90.26 L38.90,89.10 L37.74,87.37 L37.33,85.33 L37.33,58.67 Z" fill="#f1f1f1" stroke="#1e1e1e" stroke-width="1" stroke-linejoin="round"/><path d="M53.33,74.67 L52.93,76.71 L51.77,78.44 L50.04,79.59 L48.00,80.00 L45.96,79.59 L44.23,78.44 L43.07,76.71 L42.67,74.67 L43.07,72.63 L44.23,70.90 L45.96,69.74 L48.00,69.33 L50.04,69.74 L51.77,70.90 L52.93,72.63 L53.33,74.67 Z" fill="#6848aa" stroke="#6848aa" stroke-width="1" stroke-linejoin="round"/><path d="M69.33,74.67 L68.93,76.71 L67.77,78.44 L66.04,79.59 L64.00,80.00 L61.96,79.59 L60.23,78.44 L59.07,76.71 L58.67,74.67 L59.07,72.63 L60.23,70.90 L61.96,69.74 L64.00,69.33 L66.04,69.74 L67.77,70.90 L68.93,72.63 L69.33,74.67 Z" fill="#6848aa" stroke="#6848aa" stroke-width="1" stroke-linejoin="round"/><path d="M85.33,74.67 L84.93,76.71 L83.77,78.44 L82.04,79.59 L80.00,80.00 L77.96,79.59 L76.23,78.44 L75.07,76.71 L74.67,74.67 L75.07,72.63 L76.23,70.90 L77.96,69.74 L80.00,69.33 L82.04,69.74 L83.77,70.90 L84.93,72.63 L85.33,74.67 Z" fill="#6848aa" stroke="#6848aa" stroke-width="1" stroke-linejoin="round"/><path d="M77.33,80.00 L72.92,80.41 L68.66,81.62 L64.70,83.59 L61.16,86.26 L58.18,89.54 L55.85,93.30 L54.25,97.43 L53.44,101.79 L53.44,106.21 L54.25,110.57 L55.85,114.70 L58.18,118.46 L61.16,121.74 L64.70,124.41 L68.66,126.38 L72.92,127.59 L77.33,128.00 L104.00,128.00 L108.41,127.59 L112.67,126.38 L116.63,124.41 L120.17,121.74 L123.15,118.46 L125.48,114.70 L127.08,110.57 L127.90,106.21 L127.90,101.79 L127.08,97.43 L125.48,93.30 L123.15,89.54 L120.17,86.26 L116.63,83.59 L112.67,81.62 L108.41,80.41 L104.00,80.00 L77.33,80.00 Z" fill="#f5f5f5" stroke="#1e1e1e" stroke-width="1" stroke-linejoin="round"/><path d="M58.67,104.00 L59.03,100.36 L60.09,96.86 L61.81,93.63 L64.13,90.80 L66.96,88.48 L70.19,86.75 L73.69,85.69 L77.33,85.33 L82.67,85.33 L84.00,85.69 L84.98,86.67 L85.33,88.00 L84.98,89.33 L84.00,90.31 L82.67,90.67 L77.33,90.67 L74.14,91.05 L71.14,92.19 L68.49,94.02 L66.36,96.43 L64.87,99.27 L64.10,102.39 L64.10,105.61 L64.87,108.73 L66.36,111.57 L68.49,113.98 L71.14,115.81 L74.14,116.95 L77.33,117.33 L82.67,117.33 L84.00,117.69 L84.98,118.67 L85.33,120.00 L84.98,121.33 L84.00,122.31 L82.67,122.67 L77.33,122.67 L73.69,122.31 L70.19,121.25 L66.96,119.52 L64.13,117.20 L61.81,114.37 L60.09,111.14 L59.03,107.64 L58.67,104.00 Z" fill="#6848aa" stroke="#1e1e1e" stroke-width="1" stroke-linejoin="round"/><path d="M104.00,122.67 L107.88,122.26 L111.59,121.05 L114.97,119.10 L117.87,116.49 L120.17,113.33 L121.75,109.77 L122.56,105.95 L122.56,102.05 L121.75,98.23 L120.17,94.67 L117.87,91.51 L114.97,88.90 L111.59,86.95 L107.88,85.74 L104.00,85.33 L98.33,85.33 L98.33,85.35 L97.14,85.81 L96.30,86.77 L96.00,88.00 L96.30,89.23 L97.14,90.19 L98.33,90.65 L98.33,90.67 L104.00,90.67 L107.19,91.05 L110.20,92.19 L112.84,94.02 L114.97,96.43 L116.47,99.27 L117.24,102.39 L117.24,105.61 L116.47,108.73 L114.97,111.57 L112.84,113.98 L110.20,115.81 L107.19,116.95 L104.00,117.33 L98.67,117.33 L97.33,117.69 L96.36,118.67 L96.00,120.00 L96.36,121.33 L97.33,122.31 L98.67,122.67 L104.00,122.67 Z" fill="#6848aa" stroke="#1e1e1e" stroke-width="1" stroke-linejoin="round"/><path d="M77.33,101.33 L76.00,101.69 L75.02,102.67 L74.67,104.00 L75.02,105.33 L76.00,106.31 L77.33,106.67 L104.00,106.67 L105.33,106.31 L106.31,105.33 L106.67,104.00 L106.31,102.67 L105.33,101.69 L104.00,101.33 L77.33,101.33 Z" fill="#6848aa" stroke="#6848aa" stroke-width="1" stroke-linejoin="round"/></svg>