<svg xmlns="http://www.w3.org/2000/svg" viewBox="7.60 7.60 100.00 100.00"><path d="M9.60,24.00 L9.96,20.80 L11.03,17.75 L12.74,15.02 L15.02,12.74 L17.75,11.03 L20.80,9.96 L24.00,9.60 L91.20,9.60 L94.40,9.96 L97.45,11.03 L100.18,12.74 L102.46,15.02 L104.17,17.75 L105.24,20.80 L105.60,24.00 L105.60,91.20 L105.24,94.40 L104.17,97.45 L102.46,100.18 L100.18,102.46 L97.45,104.17 L94.40,105.24 L91.20,105.60 L24.00,105.60 L20.80,105.24 L17.75,104.17 L15.02,102.46 L12.74,100.18 L11.03,97.45 L9.96,94.40 L9.60,91.20 L9.60,24.00 Z" fill="#f5f5f5" stroke="#1e1e1e" stroke-width="1" stroke-linejoin="round"/><path d="M9.60,24.00 L9.96,20.80 L11.03,17.75 L12.74,15.02 L15.02,12.74 L17.75,11.03 L20.80,9.96 L24.00,9.60 L91.20,9.60 L94.40,9.96 L97.45,11.03 L100.18,12.74 L102.46,15.02 L104.17,17.75 L105.24,20.80 L105.60,24.00 L105.60,91.20 L105.24,94.40 L104.17,97.45 L102.46,100.18 L100.18,102.46 L97.45,104.17 L94.40,105.24 L91.20,105.60 L24.00,105.60 L20.80,105.24 L17.75,104.17 L15.02,102.46 L12.74,100.18 L11.03,97.45 L9.96,94.40 L9.60,91.20 L9.60,24.00 Z" fill="#e3e3e3" stroke="#1e1e1e" stroke-width="1" stroke-linejoin="round" opacity="0.2"/><path d="M24.00,9.60 L20.80,9.96 L17.75,11.03 L15.02,12.74 L12.74,15.02 L11.03,17.75 L9.96,20.80 L9.60,24.00 L9.60,91.20 L9.96,94.40 L11.03,97.45 L12.74,100.18 L15.02,102.46 L17.75,104.17 L20.80,105.24 L24.00,105.60 L91.20,105.60 L94.40,105.24 L97.45,104.17 L100.18,102.46 L102.46,100.18 L104.17,97.45 L105.24,94.40 L105.60,91.20 L105.60,24.00 L105.24,20.80 L104.17,17.75 L102.46,15.02 L100.18,12.74 L97.45,11.03 L94.40,9.96 L91.20,9.60 L24.00,9.60 Z" fill="#a2a2a2" stroke="#1e1e1e" stroke-width="1" stroke-linejoin="round"/><path d="M91.20,14.40 L24.00,14.40 L21.52,14.73 L19.20,15.69 L17.21,17.21 L15.69,19.20 L14.73,21.52 L14.40,24.00 L14.40,91.20 L14.73,93.68 L15.69,96.00 L17.21,97.99 L19.20,99.51 L21.52,100.47 L24.00,100.80 L91.20,100.80 L93.68,100.47 L96.00,99.51 L97.99,97.99 L99.51,96.00 L100.47,93.68 L100.80,91.20 L100.80,24.00 L100.47,21.52 L99.51,19.20 L97.99,17.21 L96.00,15.69 L93.68,14.73 L91.20,14.40 Z" fill="#f1f1f1" stroke="#1e1e1e" stroke-width="1" stroke-linejoin="round"/><path d="M36.00,32.40 L33.78,32.75 L31.77,33.78 L30.18,35.37 L29.15,37.38 L28.80,39.60 L28.80,78.00 L29.15,80.22 L30.18,82.23 L31.77,83.82 L33.78,84.85 L36.00,85.20 L38.22,84.85 L40.23,83.82 L41.82,82.23 L42.85,80.22 L43.20,78.00 L43.20,72.00 L72.00,72.00 L72.00,78.00 L72.35,80.22 L73.38,82.23 L74.97,83.82 L76.98,84.85 L79.20,85.20 L81.42,84.85 L83.43,83.82 L85.02,82.23 L86.05,80.22 L86.40,78.00 L86.40,39.60 L86.05,37.38 L85.02,35.37 L83.43,33.78 L81.42,32.75 L79.20,32.40 L76.98,32.75 L74.97,33.78 L73.38,35.37 L72.35,37.38 L72.00,39.60 L72.00,43.20 L43.20,43.20 L43.20,39.60 L42.85,37.38 L41.82,35.37 L40.23,33.78 L38.22,32.75 L36.00,32.40 Z" fill="#45903e" stroke="#45903e" stroke-width="1" stroke-linejoin="round"/><path d="M38.40,78.00 L38.40,39.60 L38.08,38.40 L37.20,37.52 L36.00,37.20 L34.80,37.52 L33.92,38.40 L33.60,39.60 L33.60,78.00 L33.92,79.20 L34.80,80.08 L36.00,80.40 L37.20,80.08 L38.08,79.20 L38.40,78.00 Z" fill="#f1f1f1" stroke="#f1f1f1" stroke-width="1" stroke-linejoin="round"/><path d="M81.60,39.60 L81.60,78.00 L81.28,79.20 L80.40,80.08 L79.20,80.40 L78.00,80.08 L77.12,79.20 L76.80,78.00 L76.80,39.60 L77.12,38.40 L78.00,37.52 L79.20,37.20 L80.40,37.52 L81.28,38.40 L81.60,39.60 Z" fill="#f1f1f1" stroke="#f1f1f1" stroke-width="1" stroke-linejoin="round"/></svg>