<svg xmlns="http://www.w3.org/2000/svg" viewBox="8.67 8.67 110.67 110.67"><path d="M10.67,26.67 L11.07,23.11 L12.25,19.72 L14.16,16.69 L16.69,14.16 L19.72,12.25 L23.11,11.07 L26.67,10.67 L101.33,10.67 L104.89,11.07 L108.28,12.25 L111.31,14.16 L113.84,16.69 L115.75,19.72 L116.93,23.11 L117.33,26.67 L117.33,101.33 L116.93,104.89 L115.75,108.28 L113.84,111.31 L111.31,113.84 L108.28,115.75 L104.89,116.93 L101.33,117.33 L26.67,117.33 L23.11,116.93 L19.72,115.75 L16.69,113.84 L14.16,111.31 L12.25,108.28 L11.07,104.89 L10.67,101.33 L10.67,26.67 Z" fill="#f5f5f5" stroke="#1e1e1e" stroke-width="1" stroke-linejoin="round"/><path d="M10.67,26.67 L11.07,23.11 L12.25,19.72 L14.16,16.69 L16.69,14.16 L19.72,12.25 L23.11,11.07 L26.67,10.67 L101.33,10.67 L104.89,11.07 L108.28,12.25 L111.31,14.16 L113.84,16.69 L115.75,19.72 L116.93,23.11 L117.33,26.67 L117.33,101.33 L116.93,104.89 L115.75,108.28 L113.84,111.31 L111.31,113.84 L108.28,115.75 L104.89,116.93 L101.33,117.33 L26.67,117.33 L23.11,116.93 L19.72,115.75 L16.69,113.84 L14.16,111.31 L12.25,108.28 L11.07,104.89 L10.67,101.33 L10.67,26.67 Z" fill="#e3e3e3" stroke="#1e1e1e" stroke-width="1" stroke-linejoin="round" opacity="0.2"/><path d="M26.67,10.67 L23.11,11.07 L19.72,12.25 L16.69,14.16 L14.16,16.69 L12.25,19.72 L11.07,23.11 L10.67,26.67 L10.67,101.33 L11.07,104.89 L12.25,108.28 L14.16,111.31 L16.69,113.84 L19.72,115.75 L23.11,116.93 L26.67,117.33 L101.33,117.33 L104.89,116.93 L108.28,115.75 L111.31,113.84 L113.84,111.31 L115.75,108.28 L116.93,104.89 L117.33,101.33 L117.33,26.67 L116.93,23.11 L115.75,19.72 L113.84,16.69 L111.31,14.16 L108.28,12.25 L104.89,11.07 L101.33,10.67 L26.67,10.67 Z" fill="#a2a2a2" stroke="#1e1e1e" stroke-width="1" stroke-linejoin="round"/><path d="M101.33,16.00 L26.67,16.00 L23.91,16.36 L21.33,17.43 L19.12,19.12 L17.43,21.33 L16.36,23.91 L16.00,26.67 L16.00,101.33 L16.36,104.09 L17.43,106.67 L19.12,108.88 L21.33,110.57 L23.91,111.64 L26.67,112.00 L101.33,112.00 L104.09,111.64 L106.67,110.57 L108.88,108.88 L110.57,106.67 L111.64,104.09 L112.00,101.33 L112.00,26.67 L111.64,23.91 L110.57,21.33 L108.88,19.12 L106.67,17.43 L104.09,16.36 L101.33,16.00 Z" fill="#f1f1f1" stroke="#1e1e1e" stroke-width="1" stroke-linejoin="round"/><path d="M64.83,34.62 L62.53,36.02 L61.48,36.87 L60.56,37.83 L59.78,38.89 L59.18,40.05 L58.80,41.31 L58.67,42.67 L58.67,53.36 L61.38,53.59 L64.00,54.04 L64.00,50.27 L64.83,50.71 L67.52,51.82 L70.55,52.65 L73.85,53.16 L77.33,53.33 L80.82,53.16 L84.11,52.65 L87.14,51.82 L89.84,50.71 L90.67,50.27 L90.67,74.67 L90.53,75.27 L90.04,76.06 L89.06,76.97 L87.46,77.94 L85.42,78.78 L83.01,79.43 L80.30,79.85 L77.33,80.00 L74.56,79.87 L72.00,79.50 L72.00,75.93 L71.15,76.49 L70.26,77.01 L67.40,78.30 L64.24,79.24 L60.86,79.81 L57.33,80.00 L53.81,79.81 L50.43,79.24 L47.27,78.30 L44.41,77.01 L43.52,76.49 L42.67,75.92 L42.67,88.25 L42.67,88.25 L43.05,89.82 L43.95,91.28 L45.32,92.59 L47.11,93.74 L49.27,94.68 L51.72,95.39 L54.43,95.84 L57.33,96.00 L60.23,95.84 L62.94,95.39 L65.40,94.68 L67.55,93.74 L69.34,92.59 L70.72,91.28 L71.62,89.82 L71.99,88.25 L72.00,88.25 L72.00,84.92 L74.61,85.23 L77.33,85.33 L80.82,85.16 L84.11,84.65 L87.14,83.82 L89.84,82.71 L92.14,81.31 L93.18,80.46 L94.11,79.50 L94.89,78.45 L95.48,77.29 L95.87,76.03 L96.00,74.67 L96.00,42.67 L95.87,41.31 L95.48,40.05 L94.89,38.89 L94.11,37.83 L93.19,36.87 L92.14,36.02 L89.84,34.62 L87.14,33.51 L84.11,32.69 L80.82,32.18 L77.33,32.00 L73.85,32.18 L70.55,32.69 L67.52,33.51 L64.83,34.62 Z" fill="#45903e" stroke="#45903e" stroke-width="1" stroke-linejoin="round"/><path d="M67.21,39.40 L65.61,40.36 L64.63,41.27 L64.13,42.06 L64.00,42.67 L64.13,43.27 L64.63,44.06 L65.61,44.97 L67.21,45.94 L69.25,46.78 L71.66,47.43 L74.37,47.85 L77.33,48.00 L80.30,47.85 L83.01,47.43 L85.42,46.78 L87.46,45.94 L89.06,44.97 L90.04,44.06 L90.53,43.27 L90.67,42.67 L90.53,42.06 L90.04,41.27 L89.06,40.36 L87.46,39.40 L85.42,38.56 L83.01,37.91 L80.30,37.48 L77.33,37.33 L74.37,37.48 L71.66,37.91 L69.25,38.56 L67.21,39.40" fill="none" stroke="#f1f1f1" stroke-width="1" stroke-linejoin="round"/><path d="M57.33,58.67 L60.70,58.87 L64.00,59.54 L65.71,60.10 L67.25,60.78 L68.62,61.56 L69.78,62.43 L70.72,63.39 L71.42,64.43 L71.85,65.52 L72.00,66.67 L71.70,68.28 L70.85,69.78 L69.50,71.14 L67.70,72.32 L65.53,73.30 L63.04,74.04 L60.29,74.50 L57.33,74.67 L54.38,74.50 L51.62,74.04 L49.13,73.30 L46.96,72.32 L45.17,71.14 L43.82,69.78 L42.96,68.28 L42.67,66.67 L42.96,65.06 L43.82,63.55 L45.17,62.19 L46.96,61.01 L49.13,60.03 L51.62,59.30 L54.38,58.83 L57.33,58.67 Z" fill="#45903e" stroke="#1e1e1e" stroke-width="1" stroke-linejoin="round"/><path d="M42.12,36.77 L43.31,36.08 L44.69,36.08 L45.89,36.77 L52.55,43.45 L53.24,44.64 L53.24,46.02 L52.55,47.22 L45.89,53.89 L44.69,54.58 L43.31,54.59 L42.11,53.90 L41.42,52.70 L41.42,51.32 L42.11,50.12 L44.09,48.15 L41.91,48.89 L40.03,50.19 L38.57,51.96 L37.65,54.06 L37.33,56.33 L37.33,61.33 L36.98,62.67 L36.00,63.64 L34.67,64.00 L33.33,63.64 L32.36,62.67 L32.00,61.33 L32.00,56.33 L32.41,53.01 L33.61,49.90 L35.53,47.16 L38.06,44.98 L41.04,43.47 L44.30,42.73 L42.11,40.54 L41.42,39.35 L41.42,37.97 L42.11,36.77 L42.12,36.77 Z" fill="#45903e" stroke="#1e1e1e" stroke-width="1" stroke-linejoin="round"/></svg>