<svg xmlns="http://www.w3.org/2000/svg" viewBox="7.60 7.60 100.00 100.00"><path d="M9.60,24.00 L9.96,20.80 L11.03,17.75 L12.74,15.02 L15.02,12.74 L17.75,11.03 L20.80,9.96 L24.00,9.60 L91.20,9.60 L94.40,9.96 L97.45,11.03 L100.18,12.74 L102.46,15.02 L104.17,17.75 L105.24,20.80 L105.60,24.00 L105.60,91.20 L105.24,94.40 L104.17,97.45 L102.46,100.18 L100.18,102.46 L97.45,104.17 L94.40,105.24 L91.20,105.60 L24.00,105.60 L20.80,105.24 L17.75,104.17 L15.02,102.46 L12.74,100.18 L11.03,97.45 L9.96,94.40 L9.60,91.20 L9.60,24.00 Z" fill="#f5f5f5" stroke="#1e1e1e" stroke-width="1" stroke-linejoin="round"/><path d="M9.60,24.00 L9.96,20.80 L11.03,17.75 L12.74,15.02 L15.02,12.74 L17.75,11.03 L20.80,9.96 L24.00,9.60 L91.20,9.60 L94.40,9.96 L97.45,11.03 L100.18,12.74 L102.46,15.02 L104.17,17.75 L105.24,20.80 L105.60,24.00 L105.60,91.20 L105.24,94.40 L104.17,97.45 L102.46,100.18 L100.18,102.46 L97.45,104.17 L94.40,105.24 L91.20,105.60 L24.00,105.60 L20.80,105.24 L17.75,104.17 L15.02,102.46 L12.74,100.18 L11.03,97.45 L9.96,94.40 L9.60,91.20 L9.60,24.00 Z" fill="#e3e3e3" stroke="#1e1e1e" stroke-width="1" stroke-linejoin="round" opacity="0.2"/><path d="M24.00,9.60 L20.80,9.96 L17.75,11.03 L15.02,12.74 L12.74,15.02 L11.03,17.75 L9.96,20.80 L9.60,24.00 L9.60,91.20 L9.96,94.40 L11.03,97.45 L12.74,100.18 L15.02,102.46 L17.75,104.17 L20.80,105.24 L24.00,105.60 L91.20,105.60 L94.40,105.24 L97.45,104.17 L100.18,102.46 L102.46,100.18 L104.17,97.45 L105.24,94.40 L105.60,91.20 L105.60,24.00 L105.24,20.80 L104.17,17.75 L102.46,15.02 L100.18,12.74 L97.45,11.03 L94.40,9.96 L91.20,9.60 L24.00,9.60 Z" fill="#a2a2a2" stroke="#1e1e1e" stroke-width="1" stroke-linejoin="round"/><path d="M91.20,14.40 L24.00,14.40 L21.52,14.73 L19.20,15.69 L17.21,17.21 L15.69,19.20 L14.73,21.52 L14.40,24.00 L14.40,91.20 L14.73,93.68 L15.69,96.00 L17.21,97.99 L19.20,99.51 L21.52,100.47 L24.00,100.80 L91.20,100.80 L93.68,100.47 L96.00,99.51 L97.99,97.99 L99.51,96.00 L100.47,93.68 L100.80,91.20 L100.80,24.00 L100.47,21.52 L99.51,19.20 L97.99,17.21 L96.00,15.69 L93.68,14.73 L91.20,14.40 Z" fill="#f1f1f1" stroke="#1e1e1e" stroke-width="1" stroke-linejoin="round"/><path d="M31.20,33.76 L31.52,32.56 L32.40,31.68 L33.60,31.36 L33.78,31.36 L36.03,31.73 L38.06,32.78 L39.66,34.41 L40.67,36.47 L42.72,43.20 L76.70,43.20 L78.55,43.57 L80.12,44.63 L81.15,46.20 L81.50,48.06 L81.11,49.90 L75.52,62.86 L74.42,64.63 L72.86,66.02 L70.97,66.90 L68.91,67.20 L50.19,67.20 L48.32,66.95 L46.57,66.22 L45.08,65.07 L43.93,63.56 L43.22,61.80 L42.42,58.71 L36.08,37.87 L35.59,36.98 L34.77,36.38 L33.78,36.16 L33.60,36.16 L32.40,35.84 L31.52,34.96 L31.20,33.76 L31.20,33.76 Z" fill="#6848aa" stroke="#1e1e1e" stroke-width="1" stroke-linejoin="round"/><path d="M56.40,78.60 L56.08,80.64 L55.14,82.48 L53.68,83.94 L51.84,84.88 L49.80,85.20 L47.76,84.88 L45.92,83.94 L44.46,82.48 L43.52,80.64 L43.20,78.60 L43.52,76.56 L44.46,74.72 L45.92,73.26 L47.76,72.32 L49.80,72.00 L51.84,72.32 L53.68,73.26 L55.14,74.72 L56.08,76.56 L56.40,78.60 Z" fill="#6848aa" stroke="#6848aa" stroke-width="1" stroke-linejoin="round"/><path d="M74.40,78.60 L74.08,80.64 L73.14,82.48 L71.68,83.94 L69.84,84.88 L67.80,85.20 L65.76,84.88 L63.92,83.94 L62.46,82.48 L61.52,80.64 L61.20,78.60 L61.52,76.56 L62.46,74.72 L63.92,73.26 L65.76,72.32 L67.80,72.00 L69.84,72.32 L71.68,73.26 L73.14,74.72 L74.08,76.56 L74.40,78.60 Z" fill="#6848aa" stroke="#6848aa" stroke-width="1" stroke-linejoin="round"/></svg>