<svg xmlns="http://www.w3.org/2000/svg" viewBox="4.86 18.57 100.00 72.57"><path d="M50.29,27.43 L46.11,23.25 L45.44,22.64 L44.71,22.11 L43.95,21.65 L43.14,21.27 L42.30,20.97 L41.43,20.75 L40.55,20.62 L39.64,20.57 L12.57,20.57 L11.46,20.68 L10.39,21.01 L9.40,21.53 L8.53,22.24 L7.82,23.11 L7.29,24.10 L6.97,25.17 L6.86,26.29 L6.86,83.43 L6.97,84.54 L7.29,85.62 L7.82,86.60 L8.53,87.47 L9.40,88.18 L10.38,88.71 L11.46,89.03 L12.57,89.14 L97.14,89.14 L98.26,89.03 L99.33,88.71 L100.32,88.18 L101.18,87.47 L101.89,86.60 L102.42,85.62 L102.75,84.54 L102.86,83.43 L102.86,33.14 L102.75,32.03 L102.42,30.96 L101.89,29.97 L101.18,29.10 L100.32,28.39 L99.33,27.86 L98.26,27.54 L97.14,27.43 L50.29,27.43 Z" fill="#ffb900" stroke="#1e1e1e" stroke-width="1" stroke-linejoin="round"/><path d="M50.29,27.43 L45.77,31.94 L44.82,32.76 L43.75,33.41 L42.59,33.89 L41.37,34.19 L40.11,34.29 L6.86,34.29 L6.86,83.43 L6.97,84.54 L7.29,85.62 L7.82,86.60 L8.53,87.47 L9.40,88.18 L10.38,88.71 L11.46,89.03 L12.57,89.14 L97.14,89.14 L98.26,89.03 L99.33,88.71 L100.32,88.18 L101.18,87.47 L101.89,86.60 L102.42,85.62 L102.75,84.54 L102.86,83.43 L102.86,33.14 L102.75,32.03 L102.42,30.96 L101.89,29.97 L101.18,29.10 L100.32,28.39 L99.33,27.86 L98.26,27.54 L97.14,27.43 L50.29,27.43 Z" fill="#ffd75e" stroke="#1e1e1e" stroke-width="1" stroke-linejoin="round"/><path d="M50.29,27.43 L46.11,31.61 L45.44,32.21 L44.71,32.75 L43.95,33.21 L43.14,33.59 L42.30,33.89 L41.43,34.11 L40.55,34.24 L39.64,34.29 L6.86,34.29 L6.86,83.43 L6.97,84.54 L7.29,85.62 L7.82,86.60 L8.53,87.47 L9.40,88.18 L10.38,88.71 L11.46,89.03 L12.57,89.14 L97.14,89.14 L98.26,89.03 L99.33,88.71 L100.32,88.18 L101.18,87.47 L101.89,86.60 L102.42,85.62 L102.75,84.54 L102.86,83.43 L102.86,33.14 L102.75,32.03 L102.42,30.96 L101.89,29.97 L101.18,29.10 L100.32,28.39 L99.33,27.86 L98.26,27.54 L97.14,27.43 L50.29,27.43 Z" fill="#ffebae" stroke="#1e1e1e" stroke-width="1" stroke-linejoin="round" opacity="0.16"/><path d="M6.86,81.71 L6.86,83.43 L6.97,84.54 L7.29,85.61 L7.82,86.60 L8.53,87.47 L9.40,88.18 L10.38,88.71 L11.46,89.03 L12.57,89.14 L97.14,89.14 L98.26,89.03 L99.33,88.71 L100.32,88.18 L101.18,87.47 L101.89,86.60 L102.42,85.61 L102.75,84.54 L102.86,83.43 L102.86,81.71 L102.75,82.83 L102.42,83.90 L101.89,84.89 L101.18,85.75 L100.32,86.47 L99.33,86.99 L98.26,87.32 L97.14,87.43 L12.57,87.43 L11.46,87.32 L10.38,86.99 L9.40,86.47 L8.53,85.75 L7.82,84.89 L7.29,83.90 L6.97,82.83 L6.86,81.71 Z" fill="#bf5712" stroke="#bf5712" stroke-width="1" stroke-linejoin="round"/><path d="M52.72,27.43 L46.82,33.29 L45.70,34.23 L44.45,34.99 L43.09,35.55 L41.67,35.89 L40.21,36.00 L6.86,36.00 L6.86,34.29 L40.21,34.29 L41.40,34.19 L42.57,33.91 L43.67,33.46 L44.70,32.84 L45.62,32.07 L50.30,27.43 L52.71,27.43 L52.72,27.43 Z" fill="#ffffff" stroke="#1e1e1e" stroke-width="1" stroke-linejoin="round" opacity="0.4"/></svg>