<svg xmlns="http://www.w3.org/2000/svg" viewBox="14.00 14.00 158.67 158.67"><path d="M16.00,34.67 L16.36,31.02 L17.42,27.52 L19.15,24.30 L21.47,21.47 L24.30,19.15 L27.52,17.42 L31.02,16.36 L34.67,16.00 L136.00,16.00 L139.64,16.36 L143.14,17.42 L146.37,19.15 L149.20,21.47 L151.52,24.30 L153.25,27.52 L154.31,31.02 L154.67,34.67 L154.67,136.00 L154.31,139.64 L153.25,143.14 L151.52,146.37 L149.20,149.20 L146.37,151.52 L143.14,153.25 L139.64,154.31 L136.00,154.67 L34.67,154.67 L31.02,154.31 L27.52,153.25 L24.30,151.52 L21.47,149.20 L19.15,146.37 L17.42,143.14 L16.36,139.64 L16.00,136.00 L16.00,34.67 Z" fill="#f5f5f5" stroke="#1e1e1e" stroke-width="1" stroke-linejoin="round"/><path d="M16.00,34.67 L16.36,31.02 L17.42,27.52 L19.15,24.30 L21.47,21.47 L24.30,19.15 L27.52,17.42 L31.02,16.36 L34.67,16.00 L136.00,16.00 L139.64,16.36 L143.14,17.42 L146.37,19.15 L149.20,21.47 L151.52,24.30 L153.25,27.52 L154.31,31.02 L154.67,34.67 L154.67,136.00 L154.31,139.64 L153.25,143.14 L151.52,146.37 L149.20,149.20 L146.37,151.52 L143.14,153.25 L139.64,154.31 L136.00,154.67 L34.67,154.67 L31.02,154.31 L27.52,153.25 L24.30,151.52 L21.47,149.20 L19.15,146.37 L17.42,143.14 L16.36,139.64 L16.00,136.00 L16.00,34.67 Z" fill="#e3e3e3" stroke="#1e1e1e" stroke-width="1" stroke-linejoin="round" opacity="0.2"/><path d="M34.67,16.00 L31.02,16.36 L27.52,17.42 L24.30,19.15 L21.47,21.47 L19.15,24.30 L17.42,27.52 L16.36,31.02 L16.00,34.67 L16.00,136.00 L16.36,139.64 L17.42,143.14 L19.15,146.37 L21.47,149.20 L24.30,151.52 L27.52,153.25 L31.02,154.31 L34.67,154.67 L136.00,154.67 L139.64,154.31 L143.14,153.25 L146.37,151.52 L149.20,149.20 L151.52,146.37 L153.25,143.14 L154.31,139.64 L154.67,136.00 L154.67,34.67 L154.31,31.02 L153.25,27.52 L151.52,24.30 L149.20,21.47 L146.37,19.15 L143.14,17.42 L139.64,16.36 L136.00,16.00 L34.67,16.00 Z" fill="#a2a2a2" stroke="#1e1e1e" stroke-width="1" stroke-linejoin="round"/><path d="M136.00,21.33 L34.67,21.33 L31.70,21.67 L28.88,22.65 L26.35,24.24 L24.24,26.35 L22.65,28.88 L21.67,31.70 L21.33,34.67 L21.33,136.00 L21.67,138.97 L22.65,141.79 L24.24,144.31 L26.35,146.42 L28.88,148.01 L31.70,149.00 L34.67,149.33 L136.00,149.33 L138.97,149.00 L141.79,148.01 L144.31,146.42 L146.42,144.31 L148.01,141.79 L149.00,138.97 L149.33,136.00 L149.33,34.67 L149.00,31.70 L148.01,28.88 L146.42,26.35 L144.31,24.24 L141.79,22.65 L138.97,21.67 L136.00,21.33 Z" fill="#f1f1f1" stroke="#1e1e1e" stroke-width="1" stroke-linejoin="round"/><path d="M60.00,48.00 L61.53,48.30 L62.83,49.17 L63.70,50.47 L64.00,52.00 L64.00,118.67 L63.60,120.40 L62.49,121.79 L60.89,122.57 L59.11,122.57 L57.51,121.79 L56.40,120.40 L56.00,118.67 L56.00,52.00 L56.30,50.47 L57.17,49.17 L58.47,48.30 L60.00,48.00 Z" fill="#b57400" stroke="#1e1e1e" stroke-width="1" stroke-linejoin="round"/><path d="M81.33,118.67 L81.33,68.00 L81.73,66.26 L82.84,64.87 L84.44,64.10 L86.22,64.10 L87.83,64.87 L88.94,66.26 L89.33,68.00 L89.33,118.67 L88.94,120.40 L87.83,121.79 L86.22,122.57 L84.44,122.57 L82.84,121.79 L81.73,120.40 L81.33,118.67 Z" fill="#b57400" stroke="#1e1e1e" stroke-width="1" stroke-linejoin="round"/><path d="M110.67,80.00 L112.20,80.30 L113.50,81.17 L114.36,82.47 L114.67,84.00 L114.67,118.67 L114.27,120.40 L113.16,121.79 L111.56,122.57 L109.78,122.57 L108.17,121.79 L107.06,120.40 L106.67,118.67 L106.67,84.00 L106.97,82.47 L107.84,81.17 L109.14,80.30 L110.67,80.00 Z" fill="#b57400" stroke="#1e1e1e" stroke-width="1" stroke-linejoin="round"/><path d="M157.33,96.00 L160.30,96.33 L163.12,97.32 L165.65,98.91 L167.76,101.02 L169.35,103.55 L170.33,106.37 L170.67,109.33 L170.67,157.33 L170.33,160.30 L169.35,163.12 L167.76,165.65 L165.65,167.76 L163.12,169.35 L160.30,170.33 L157.33,170.67 L130.67,170.67 L127.70,170.33 L124.88,169.35 L122.35,167.76 L120.24,165.65 L118.65,163.12 L117.67,160.30 L117.33,157.33 L117.33,109.33 L117.67,106.37 L118.65,103.55 L120.24,101.02 L122.35,98.91 L124.88,97.32 L127.70,96.33 L130.67,96.00 L157.33,96.00 Z" fill="#f5f5f5" stroke="#1e1e1e" stroke-width="1" stroke-linejoin="round"/><path d="M122.67,109.33 L123.06,106.86 L124.19,104.63 L125.96,102.86 L128.19,101.72 L130.67,101.33 L157.33,101.33 L159.81,101.72 L162.04,102.86 L163.81,104.63 L164.94,106.86 L165.33,109.33 L165.33,157.33 L164.94,159.81 L163.81,162.04 L162.04,163.81 L159.81,164.94 L157.33,165.33 L130.67,165.33 L128.19,164.94 L125.96,163.81 L124.19,162.04 L123.06,159.81 L122.67,157.33 L122.67,109.33 Z" fill="#b57400" stroke="#1e1e1e" stroke-width="1" stroke-linejoin="round"/><path d="M149.33,149.33 L150.67,149.69 L151.64,150.67 L152.00,152.00 L151.64,153.33 L150.67,154.31 L149.33,154.67 L138.67,154.67 L137.33,154.31 L136.36,153.33 L136.00,152.00 L136.36,150.67 L137.33,149.69 L138.67,149.33 L149.33,149.33 Z" fill="#f5f5f5" stroke="#f5f5f5" stroke-width="1" stroke-linejoin="round"/></svg>