<svg xmlns="http://www.w3.org/2000/svg" viewBox="13.09 4.86 83.54 100.00"><path d="M32.91,15.09 L85.03,15.09 L86.90,15.27 L88.70,15.82 L90.36,16.70 L91.82,17.90 L93.01,19.35 L93.90,21.01 L94.44,22.81 L94.63,24.69 L94.63,85.03 L94.45,87.57 L93.91,90.05 L93.02,92.43 L91.80,94.67 L90.27,96.70 L88.48,98.50 L86.44,100.03 L84.21,101.25 L81.82,102.13 L79.34,102.68 L76.80,102.86 L32.91,102.86 L31.04,102.67 L29.24,102.13 L27.58,101.24 L26.13,100.05 L24.93,98.59 L24.05,96.93 L23.50,95.13 L23.31,93.26 L23.31,24.69 L23.50,22.81 L24.05,21.01 L24.93,19.35 L26.13,17.90 L27.58,16.70 L29.24,15.82 L31.04,15.27 L32.91,15.09 Z" fill="#f5f5f5" stroke="#1e1e1e" stroke-width="1" stroke-linejoin="round"/><path d="M32.91,15.09 L85.03,15.09 L86.90,15.27 L88.70,15.82 L90.36,16.70 L91.82,17.90 L93.01,19.35 L93.90,21.01 L94.44,22.81 L94.63,24.69 L94.63,85.03 L94.45,87.57 L93.91,90.05 L93.02,92.43 L91.80,94.67 L90.27,96.70 L88.48,98.50 L86.44,100.03 L84.21,101.25 L81.82,102.13 L79.34,102.68 L76.80,102.86 L32.91,102.86 L31.04,102.67 L29.24,102.13 L27.58,101.24 L26.13,100.05 L24.93,98.59 L24.05,96.93 L23.50,95.13 L23.31,93.26 L23.31,24.69 L23.50,22.81 L24.05,21.01 L24.93,19.35 L26.13,17.90 L27.58,16.70 L29.24,15.82 L31.04,15.27 L32.91,15.09 Z" fill="#e3e3e3" stroke="#1e1e1e" stroke-width="1" stroke-linejoin="round" opacity="0.2"/><path d="M24.69,6.86 L76.80,6.86 L78.67,7.04 L80.47,7.59 L82.13,8.48 L83.59,9.67 L84.78,11.12 L85.67,12.78 L86.22,14.58 L86.40,16.46 L86.40,85.03 L86.22,86.90 L85.67,88.70 L84.78,90.36 L83.59,91.82 L82.13,93.01 L80.47,93.90 L78.67,94.44 L76.80,94.63 L24.69,94.63 L22.81,94.44 L21.01,93.90 L19.35,93.01 L17.90,91.82 L16.70,90.36 L15.82,88.70 L15.27,86.90 L15.09,85.03 L15.09,16.46 L15.27,14.58 L15.82,12.78 L16.70,11.12 L17.90,9.67 L19.35,8.48 L21.01,7.59 L22.81,7.04 L24.69,6.86 Z" fill="#f5f5f5" stroke="#1e1e1e" stroke-width="1" stroke-linejoin="round"/><path d="M24.69,6.86 L76.80,6.86 L78.67,7.04 L80.47,7.59 L82.13,8.48 L83.59,9.67 L84.78,11.12 L85.67,12.78 L86.22,14.58 L86.40,16.46 L86.40,85.03 L86.22,86.90 L85.67,88.70 L84.78,90.36 L83.59,91.82 L82.13,93.01 L80.47,93.90 L78.67,94.44 L76.80,94.63 L24.69,94.63 L22.81,94.44 L21.01,93.90 L19.35,93.01 L17.90,91.82 L16.70,90.36 L15.82,88.70 L15.27,86.90 L15.09,85.03 L15.09,16.46 L15.27,14.58 L15.82,12.78 L16.70,11.12 L17.90,9.67 L19.35,8.48 L21.01,7.59 L22.81,7.04 L24.69,6.86 Z" fill="#e3e3e3" stroke="#1e1e1e" stroke-width="1" stroke-linejoin="round" opacity="0.2"/><path d="M50.74,19.20 L51.82,19.31 L52.82,19.61 L53.73,20.09 L54.54,20.73 L55.20,21.50 L55.72,22.39 L56.06,23.38 L56.21,24.44 L71.77,33.42 L73.21,32.98 L74.71,32.95 L76.16,33.33 L77.46,34.09 L78.50,35.18 L79.21,36.50 L79.53,37.97 L79.44,39.47 L78.95,40.89 L78.09,42.13 L76.93,43.08 L75.55,43.68 L74.06,43.89 L73.18,43.80 L68.40,51.68 L73.34,60.39 L74.86,60.41 L76.32,60.84 L77.61,61.65 L78.62,62.79 L79.28,64.16 L79.54,65.66 L79.38,67.17 L78.81,68.58 L77.87,69.78 L76.64,70.68 L75.21,71.20 L73.69,71.31 L72.20,70.99 L70.85,70.28 L69.75,69.23 L56.21,77.04 L55.94,78.54 L55.27,79.90 L54.25,81.03 L52.96,81.84 L51.50,82.25 L49.98,82.25 L48.52,81.84 L47.23,81.03 L46.21,79.90 L45.53,78.54 L45.27,77.04 L31.72,69.22 L30.62,70.28 L29.28,70.99 L27.79,71.30 L26.27,71.20 L24.84,70.67 L23.61,69.78 L22.67,68.58 L22.09,67.17 L21.93,65.66 L22.19,64.15 L22.85,62.78 L23.87,61.65 L25.15,60.83 L26.61,60.40 L28.14,60.39 L33.08,51.68 L28.30,43.80 L27.43,43.89 L25.94,43.68 L24.56,43.08 L23.39,42.13 L22.53,40.90 L22.04,39.48 L21.95,37.97 L22.27,36.51 L22.98,35.18 L24.02,34.09 L25.32,33.33 L26.77,32.95 L28.28,32.98 L29.72,33.42 L45.27,24.44 L45.51,23.07 L46.08,21.80 L46.96,20.72 L48.07,19.90 L49.36,19.38 L50.74,19.20 L50.74,19.20 Z" fill="#45903e" stroke="#45903e" stroke-width="1" stroke-linejoin="round"/><path d="M32.76,64.58 L32.86,65.13 L45.78,72.58 L38.47,60.55 L32.76,64.58 Z" fill="#f1f1f1" stroke="#f1f1f1" stroke-width="1" stroke-linejoin="round"/><path d="M55.71,72.58 L68.62,65.13 L68.66,64.85 L68.72,64.58 L63.01,60.55 L55.71,72.58 Z" fill="#f1f1f1" stroke="#f1f1f1" stroke-width="1" stroke-linejoin="round"/><path d="M41.84,58.17 L48.69,69.45 L48.69,54.45 L48.22,54.24 L47.78,53.98 L41.84,58.17 Z" fill="#f1f1f1" stroke="#f1f1f1" stroke-width="1" stroke-linejoin="round"/><path d="M53.71,53.98 L53.26,54.24 L52.80,54.45 L52.80,69.45 L59.64,58.17 L53.71,53.98 Z" fill="#f1f1f1" stroke="#f1f1f1" stroke-width="1" stroke-linejoin="round"/><path d="M33.74,58.85 L36.33,57.03 L35.53,55.70 L33.74,58.85 Z" fill="#f1f1f1" stroke="#f1f1f1" stroke-width="1" stroke-linejoin="round"/><path d="M65.15,57.02 L67.73,58.85 L65.95,55.71 L65.15,57.02 Z" fill="#f1f1f1" stroke="#f1f1f1" stroke-width="1" stroke-linejoin="round"/><path d="M37.85,51.60 L39.70,54.65 L45.41,50.62 L45.34,50.30 L45.30,49.99 L40.37,47.15 L37.85,51.60 Z" fill="#f1f1f1" stroke="#f1f1f1" stroke-width="1" stroke-linejoin="round"/><path d="M56.19,49.99 L56.14,50.30 L56.08,50.62 L61.78,54.65 L63.63,51.60 L61.11,47.15 L56.19,49.99 Z" fill="#f1f1f1" stroke="#f1f1f1" stroke-width="1" stroke-linejoin="round"/><path d="M64.68,45.10 L66.08,47.58 L69.14,42.54 L64.68,45.10 Z" fill="#f1f1f1" stroke="#f1f1f1" stroke-width="1" stroke-linejoin="round"/><path d="M35.40,47.57 L36.80,45.10 L32.35,42.54 L35.40,47.57 Z" fill="#f1f1f1" stroke="#f1f1f1" stroke-width="1" stroke-linejoin="round"/><path d="M51.46,30.12 L50.74,30.17 L50.39,30.16 L50.03,30.12 L42.40,43.57 L46.48,45.92 L47.48,44.96 L48.70,44.28 L50.05,43.93 L51.44,43.93 L52.78,44.28 L54.00,44.96 L55.00,45.92 L59.08,43.57 L51.46,30.12 Z" fill="#f1f1f1" stroke="#f1f1f1" stroke-width="1" stroke-linejoin="round"/><path d="M32.57,36.52 L32.79,37.29 L32.90,38.11 L38.83,41.52 L46.10,28.71 L32.57,36.52 Z" fill="#f1f1f1" stroke="#f1f1f1" stroke-width="1" stroke-linejoin="round"/><path d="M62.65,41.52 L68.59,38.11 L68.69,37.29 L68.91,36.52 L55.39,28.71 L62.65,41.52 Z" fill="#f1f1f1" stroke="#f1f1f1" stroke-width="1" stroke-linejoin="round"/></svg>