<svg xmlns="http://www.w3.org/2000/svg" viewBox="6.72 6.72 100.00 99.96"><path d="M8.72,21.81 L9.05,18.90 L10.02,16.13 L11.58,13.65 L13.65,11.58 L16.13,10.02 L18.90,9.05 L21.81,8.72 L82.87,8.72 L85.78,9.05 L88.55,10.02 L91.03,11.58 L93.10,13.65 L94.66,16.13 L95.63,18.90 L95.96,21.81 L95.96,82.87 L95.63,85.78 L94.66,88.55 L93.10,91.03 L91.03,93.10 L88.55,94.66 L85.78,95.63 L82.87,95.96 L21.81,95.96 L18.90,95.63 L16.13,94.66 L13.65,93.10 L11.58,91.03 L10.02,88.55 L9.05,85.78 L8.72,82.87 L8.72,21.81 Z" fill="#f5f5f5" stroke="#1e1e1e" stroke-width="1" stroke-linejoin="round"/><path d="M8.72,21.81 L9.05,18.90 L10.02,16.13 L11.58,13.65 L13.65,11.58 L16.13,10.02 L18.90,9.05 L21.81,8.72 L82.87,8.72 L85.78,9.05 L88.55,10.02 L91.03,11.58 L93.10,13.65 L94.66,16.13 L95.63,18.90 L95.96,21.81 L95.96,82.87 L95.63,85.78 L94.66,88.55 L93.10,91.03 L91.03,93.10 L88.55,94.66 L85.78,95.63 L82.87,95.96 L21.81,95.96 L18.90,95.63 L16.13,94.66 L13.65,93.10 L11.58,91.03 L10.02,88.55 L9.05,85.78 L8.72,82.87 L8.72,21.81 Z" fill="#e3e3e3" stroke="#1e1e1e" stroke-width="1" stroke-linejoin="round" opacity="0.2"/><path d="M21.81,8.72 L18.90,9.05 L16.13,10.02 L13.65,11.58 L11.58,13.65 L10.02,16.13 L9.05,18.90 L8.72,21.81 L8.72,82.87 L9.05,85.78 L10.02,88.55 L11.58,91.03 L13.65,93.10 L16.13,94.66 L18.90,95.63 L21.81,95.96 L82.87,95.96 L85.78,95.63 L88.55,94.66 L91.03,93.10 L93.10,91.03 L94.66,88.55 L95.63,85.78 L95.96,82.87 L95.96,21.81 L95.63,18.90 L94.66,16.13 L93.10,13.65 L91.03,11.58 L88.55,10.02 L85.78,9.05 L82.87,8.72 L21.81,8.72 Z" fill="#a2a2a2" stroke="#1e1e1e" stroke-width="1" stroke-linejoin="round"/><path d="M82.87,13.08 L21.81,13.08 L19.55,13.38 L17.45,14.25 L15.64,15.64 L14.25,17.45 L13.38,19.55 L13.08,21.81 L13.08,82.87 L13.38,85.13 L14.25,87.23 L15.64,89.04 L17.45,90.43 L19.55,91.30 L21.81,91.59 L82.87,91.59 L85.13,91.30 L87.23,90.43 L89.04,89.04 L90.43,87.23 L91.30,85.13 L91.59,82.87 L91.59,21.81 L91.30,19.55 L90.43,17.45 L89.04,15.64 L87.23,14.25 L85.13,13.38 L82.87,13.08 Z" fill="#f1f1f1" stroke="#1e1e1e" stroke-width="1" stroke-linejoin="round"/><path d="M52.34,47.98 L56.17,47.83 L59.81,47.41 L63.19,46.72 L66.21,45.78 L68.03,45.01 L69.75,44.05 L69.79,68.70 L69.67,69.92 L69.32,71.06 L68.78,72.11 L68.07,73.08 L67.23,73.95 L66.26,74.74 L64.12,76.05 L61.59,77.09 L58.75,77.86 L55.65,78.34 L52.37,78.51 L49.08,78.34 L45.98,77.86 L43.13,77.09 L40.61,76.05 L38.46,74.74 L37.50,73.95 L36.65,73.08 L35.95,72.11 L35.41,71.06 L35.06,69.92 L34.94,68.70 L34.91,44.04 L36.63,45.00 L38.47,45.78 L41.50,46.72 L44.87,47.41 L48.51,47.83 L52.34,47.98 L52.34,47.98 Z" fill="#0077bd" stroke="#1e1e1e" stroke-width="1" stroke-linejoin="round"/><path d="M34.93,37.52 L35.13,38.15 L35.48,38.76 L36.61,39.91 L38.28,40.95 L40.40,41.85 L42.94,42.59 L45.81,43.14 L48.96,43.49 L52.34,43.62 L55.77,43.49 L58.98,43.13 L61.89,42.55 L64.45,41.78 L66.58,40.85 L68.22,39.79 L69.31,38.60 L69.62,37.97 L69.77,37.33 L69.79,37.07 L69.70,36.41 L69.43,35.76 L69.00,35.13 L68.42,34.53 L66.81,33.42 L64.68,32.45 L62.10,31.65 L59.14,31.05 L55.86,30.66 L52.35,30.53 L48.84,30.66 L45.57,31.05 L42.61,31.65 L40.04,32.45 L37.91,33.42 L36.30,34.53 L35.72,35.13 L35.29,35.76 L35.03,36.41 L34.94,37.07 L34.95,37.32 L34.99,37.57 L34.93,37.52 Z" fill="#0077bd" stroke="#1e1e1e" stroke-width="1" stroke-linejoin="round"/><path d="M98.14,91.59 L95.96,91.59 L95.96,80.69 L95.82,79.37 L95.44,78.14 L94.84,77.03 L94.04,76.06 L93.07,75.26 L91.96,74.66 L90.73,74.28 L89.41,74.15 L88.44,74.22 L87.50,74.43 L86.63,74.77 L85.82,75.22 L84.44,76.45 L83.89,77.20 L83.44,78.03 L81.44,76.38 L79.19,75.18 L76.76,74.44 L74.19,74.19 L71.84,74.40 L69.60,75.02 L67.51,76.03 L65.60,77.42 L65.12,76.98 L63.20,75.74 L61.12,74.84 L58.94,74.29 L56.70,74.10 L55.35,74.10 L53.68,74.25 L52.08,74.58 L49.98,75.46 L48.10,76.73 L46.51,78.35 L45.27,80.25 L44.45,82.37 L44.05,84.62 L44.05,85.05 L44.21,86.81 L44.66,88.49 L45.41,90.04 L46.45,91.46 L45.96,91.89 L45.54,92.38 L44.81,93.48 L44.33,94.68 L44.09,95.92 L44.10,97.18 L44.34,98.41 L44.81,99.58 L45.52,100.65 L46.45,101.58 L48.40,102.91 L50.56,103.88 L52.85,104.48 L55.22,104.68 L55.96,104.68 L57.92,104.55 L59.75,104.17 L61.44,103.54 L62.98,102.67 L64.05,101.84 L64.99,100.89 L66.98,102.51 L69.21,103.70 L71.63,104.43 L74.19,104.68 L75.52,104.61 L76.83,104.42 L78.10,104.09 L79.34,103.63 L80.15,104.09 L81.03,104.42 L81.95,104.61 L82.92,104.68 L84.60,104.46 L86.19,103.81 L87.74,104.46 L89.46,104.68 L98.18,104.68 L99.50,104.55 L100.73,104.17 L101.84,103.56 L102.81,102.77 L103.61,101.80 L104.21,100.69 L104.59,99.46 L104.72,98.14 L104.59,96.82 L104.21,95.59 L103.61,94.48 L102.81,93.51 L101.84,92.71 L100.73,92.11 L99.50,91.73 L98.18,91.59 L98.14,91.59 Z" fill="#f5f5f5" stroke="#1e1e1e" stroke-width="1" stroke-linejoin="round"/><path d="M62.39,80.40 L60.38,79.22 L58.14,78.57 L55.81,78.50 L53.65,78.68 L51.65,79.52 L50.02,80.94 L48.90,82.79 L48.42,84.90 L48.41,84.98 L48.41,85.05 L48.49,85.95 L48.68,86.77 L49.39,88.15 L50.36,89.22 L51.43,90.01 L53.47,90.96 L55.14,91.49 L55.24,91.51 L55.51,91.59 L56.76,91.97 L57.86,92.47 L58.51,93.04 L58.70,93.78 L58.64,94.48 L58.48,94.96 L58.04,95.46 L57.15,95.82 L55.83,95.96 L55.73,95.96 L55.64,95.97 L54.33,95.91 L53.08,95.52 L51.97,94.83 L50.94,94.35 L49.81,94.45 L48.88,95.12 L48.41,96.16 L48.54,97.29 L49.21,98.21 L51.24,99.48 L53.53,100.20 L55.92,100.32 L57.02,100.26 L58.19,100.06 L59.37,99.68 L60.50,99.07 L61.58,98.11 L62.39,96.90 L62.89,95.45 L63.06,93.78 L63.00,92.87 L62.81,92.05 L62.15,90.65 L61.22,89.56 L60.13,88.74 L58.25,87.87 L56.68,87.39 L56.42,87.32 L55.02,86.89 L53.70,86.28 L52.98,85.67 L52.78,85.12 L53.25,83.89 L54.28,83.06 L55.58,82.86 L55.84,82.89 L56.09,82.86 L57.38,82.87 L58.62,83.21 L59.73,83.86 L60.76,84.26 L61.86,84.10 L62.73,83.42 L63.16,82.40 L63.04,81.30 L62.39,80.41 L62.39,80.40 Z" fill="#0077bd" stroke="#1e1e1e" stroke-width="1" stroke-linejoin="round"/><path d="M74.15,78.51 L71.89,78.81 L69.79,79.68 L67.98,81.06 L66.59,82.87 L65.72,84.98 L65.42,87.23 L65.42,91.59 L65.77,94.01 L66.76,96.24 L68.34,98.11 L70.37,99.46 L72.70,100.20 L75.14,100.27 L77.50,99.65 L79.60,98.41 L81.56,99.88 L82.61,100.30 L83.73,100.14 L84.62,99.45 L85.04,98.40 L84.88,97.28 L84.18,96.39 L82.22,94.92 L82.71,93.29 L82.87,91.59 L82.87,87.23 L82.57,84.98 L81.70,82.87 L80.32,81.06 L78.51,79.68 L76.41,78.81 L74.15,78.51 Z" fill="#0077bd" stroke="#0077bd" stroke-width="1" stroke-linejoin="round"/><path d="M75.46,89.85 L78.48,92.12 L78.50,91.86 L78.51,91.59 L78.51,87.23 L78.18,85.56 L77.23,84.15 L75.82,83.20 L74.15,82.87 L72.48,83.20 L71.06,84.15 L70.12,85.56 L69.79,87.23 L69.79,91.59 L70.12,93.27 L71.08,94.69 L72.51,95.64 L74.19,95.96 L75.86,95.61 L72.84,93.34 L72.14,92.45 L71.98,91.33 L72.40,90.29 L73.29,89.59 L74.41,89.43 L75.46,89.85 L75.46,89.85 Z" fill="#f5f5f5" stroke="#f5f5f5" stroke-width="1" stroke-linejoin="round"/><path d="M91.58,80.69 L91.29,79.60 L90.49,78.80 L89.40,78.51 L88.31,78.80 L87.51,79.60 L87.22,80.69 L87.22,98.14 L87.51,99.23 L88.31,100.03 L89.40,100.32 L98.12,100.32 L99.21,100.03 L100.01,99.23 L100.30,98.14 L100.01,97.05 L99.21,96.25 L98.12,95.96 L91.58,95.96 L91.58,80.69 Z" fill="#0077bd" stroke="#0077bd" stroke-width="1" stroke-linejoin="round"/></svg>