<svg xmlns="http://www.w3.org/2000/svg" viewBox="8.67 8.67 110.67 110.67"><path d="M10.67,26.67 L11.07,23.11 L12.25,19.72 L14.16,16.69 L16.69,14.16 L19.72,12.25 L23.11,11.07 L26.67,10.67 L101.33,10.67 L104.89,11.07 L108.28,12.25 L111.31,14.16 L113.84,16.69 L115.75,19.72 L116.93,23.11 L117.33,26.67 L117.33,101.33 L116.93,104.89 L115.75,108.28 L113.84,111.31 L111.31,113.84 L108.28,115.75 L104.89,116.93 L101.33,117.33 L26.67,117.33 L23.11,116.93 L19.72,115.75 L16.69,113.84 L14.16,111.31 L12.25,108.28 L11.07,104.89 L10.67,101.33 L10.67,26.67 Z" fill="#f5f5f5" stroke="#1e1e1e" stroke-width="1" stroke-linejoin="round"/><path d="M10.67,26.67 L11.07,23.11 L12.25,19.72 L14.16,16.69 L16.69,14.16 L19.72,12.25 L23.11,11.07 L26.67,10.67 L101.33,10.67 L104.89,11.07 L108.28,12.25 L111.31,14.16 L113.84,16.69 L115.75,19.72 L116.93,23.11 L117.33,26.67 L117.33,101.33 L116.93,104.89 L115.75,108.28 L113.84,111.31 L111.31,113.84 L108.28,115.75 L104.89,116.93 L101.33,117.33 L26.67,117.33 L23.11,116.93 L19.72,115.75 L16.69,113.84 L14.16,111.31 L12.25,108.28 L11.07,104.89 L10.67,101.33 L10.67,26.67 Z" fill="#e3e3e3" stroke="#1e1e1e" stroke-width="1" stroke-linejoin="round" opacity="0.2"/><path d="M26.67,10.67 L23.11,11.07 L19.72,12.25 L16.69,14.16 L14.16,16.69 L12.25,19.72 L11.07,23.11 L10.67,26.67 L10.67,101.33 L11.07,104.89 L12.25,108.28 L14.16,111.31 L16.69,113.84 L19.72,115.75 L23.11,116.93 L26.67,117.33 L101.33,117.33 L104.89,116.93 L108.28,115.75 L111.31,113.84 L113.84,111.31 L115.75,108.28 L116.93,104.89 L117.33,101.33 L117.33,26.67 L116.93,23.11 L115.75,19.72 L113.84,16.69 L111.31,14.16 L108.28,12.25 L104.89,11.07 L101.33,10.67 L26.67,10.67 Z" fill="#a2a2a2" stroke="#1e1e1e" stroke-width="1" stroke-linejoin="round"/><path d="M101.33,16.00 L26.67,16.00 L23.91,16.36 L21.33,17.43 L19.12,19.12 L17.43,21.33 L16.36,23.91 L16.00,26.67 L16.00,101.33 L16.36,104.09 L17.43,106.67 L19.12,108.88 L21.33,110.57 L23.91,111.64 L26.67,112.00 L101.33,112.00 L104.09,111.64 L106.67,110.57 L108.88,108.88 L110.57,106.67 L111.64,104.09 L112.00,101.33 L112.00,26.67 L111.64,23.91 L110.57,21.33 L108.88,19.12 L106.67,17.43 L104.09,16.36 L101.33,16.00 Z" fill="#f1f1f1" stroke="#1e1e1e" stroke-width="1" stroke-linejoin="round"/><path d="M38.67,56.00 L40.95,55.60 L42.95,54.44 L44.44,52.67 L45.23,50.49 L45.23,48.18 L44.44,46.00 L42.95,44.23 L40.95,43.07 L38.67,42.67 L36.39,43.07 L34.38,44.23 L32.89,46.00 L32.10,48.18 L32.10,50.49 L32.89,52.67 L34.38,54.44 L36.39,55.60 L38.67,56.00 Z" fill="#6848aa" stroke="#6848aa" stroke-width="1" stroke-linejoin="round"/><path d="M64.00,56.00 L66.28,55.60 L68.29,54.44 L69.77,52.67 L70.57,50.49 L70.57,48.18 L69.77,46.00 L68.29,44.23 L66.28,43.07 L64.00,42.67 L61.72,43.07 L59.71,44.23 L58.23,46.00 L57.43,48.18 L57.43,50.49 L58.23,52.67 L59.71,54.44 L61.72,55.60 L64.00,56.00 Z" fill="#6848aa" stroke="#6848aa" stroke-width="1" stroke-linejoin="round"/><path d="M70.67,78.67 L70.26,80.95 L69.11,82.95 L67.33,84.44 L65.16,85.23 L62.84,85.23 L60.67,84.44 L58.89,82.95 L57.74,80.95 L57.33,78.67 L57.74,76.39 L58.89,74.38 L60.67,72.89 L62.84,72.10 L65.16,72.10 L67.33,72.89 L69.11,74.38 L70.26,76.39 L70.67,78.67 Z" fill="#6848aa" stroke="#6848aa" stroke-width="1" stroke-linejoin="round"/><path d="M38.67,85.33 L40.95,84.93 L42.95,83.77 L44.44,82.00 L45.23,79.82 L45.23,77.51 L44.44,75.33 L42.95,73.56 L40.95,72.40 L38.67,72.00 L36.39,72.40 L34.38,73.56 L32.89,75.33 L32.10,77.51 L32.10,79.82 L32.89,82.00 L34.38,83.77 L36.39,84.93 L38.67,85.33 Z" fill="#6848aa" stroke="#6848aa" stroke-width="1" stroke-linejoin="round"/><path d="M96.00,49.33 L95.60,51.61 L94.44,53.62 L92.67,55.11 L90.49,55.90 L88.18,55.90 L86.00,55.11 L84.23,53.62 L83.07,51.61 L82.67,49.33 L83.07,47.05 L84.23,45.05 L86.00,43.56 L88.18,42.77 L90.49,42.77 L92.67,43.56 L94.44,45.05 L95.60,47.05 L96.00,49.33 Z" fill="#6848aa" stroke="#6848aa" stroke-width="1" stroke-linejoin="round"/></svg>