<svg xmlns="http://www.w3.org/2000/svg" viewBox="8.67 8.67 121.23 121.44"><path d="M10.67,26.67 L11.07,23.11 L12.25,19.72 L14.16,16.69 L16.69,14.16 L19.72,12.25 L23.11,11.07 L26.67,10.67 L101.33,10.67 L104.89,11.07 L108.28,12.25 L111.31,14.16 L113.84,16.69 L115.75,19.72 L116.93,23.11 L117.33,26.67 L117.33,101.33 L116.93,104.89 L115.75,108.28 L113.84,111.31 L111.31,113.84 L108.28,115.75 L104.89,116.93 L101.33,117.33 L26.67,117.33 L23.11,116.93 L19.72,115.75 L16.69,113.84 L14.16,111.31 L12.25,108.28 L11.07,104.89 L10.67,101.33 L10.67,26.67 Z" fill="#f5f5f5" stroke="#1e1e1e" stroke-width="1" stroke-linejoin="round"/><path d="M10.67,26.67 L11.07,23.11 L12.25,19.72 L14.16,16.69 L16.69,14.16 L19.72,12.25 L23.11,11.07 L26.67,10.67 L101.33,10.67 L104.89,11.07 L108.28,12.25 L111.31,14.16 L113.84,16.69 L115.75,19.72 L116.93,23.11 L117.33,26.67 L117.33,101.33 L116.93,104.89 L115.75,108.28 L113.84,111.31 L111.31,113.84 L108.28,115.75 L104.89,116.93 L101.33,117.33 L26.67,117.33 L23.11,116.93 L19.72,115.75 L16.69,113.84 L14.16,111.31 L12.25,108.28 L11.07,104.89 L10.67,101.33 L10.67,26.67 Z" fill="#e3e3e3" stroke="#1e1e1e" stroke-width="1" stroke-linejoin="round" opacity="0.2"/><path d="M26.67,10.67 L23.11,11.07 L19.72,12.25 L16.69,14.16 L14.16,16.69 L12.25,19.72 L11.07,23.11 L10.67,26.67 L10.67,101.33 L11.07,104.89 L12.25,108.28 L14.16,111.31 L16.69,113.84 L19.72,115.75 L23.11,116.93 L26.67,117.33 L101.33,117.33 L104.89,116.93 L108.28,115.75 L111.31,113.84 L113.84,111.31 L115.75,108.28 L116.93,104.89 L117.33,101.33 L117.33,26.67 L116.93,23.11 L115.75,19.72 L113.84,16.69 L111.31,14.16 L108.28,12.25 L104.89,11.07 L101.33,10.67 L26.67,10.67 Z" fill="#a2a2a2" stroke="#1e1e1e" stroke-width="1" stroke-linejoin="round"/><path d="M101.33,16.00 L26.67,16.00 L23.91,16.36 L21.33,17.43 L19.12,19.12 L17.43,21.33 L16.36,23.91 L16.00,26.67 L16.00,101.33 L16.36,104.09 L17.43,106.67 L19.12,108.88 L21.33,110.57 L23.91,111.64 L26.67,112.00 L101.33,112.00 L104.09,111.64 L106.67,110.57 L108.88,108.88 L110.57,106.67 L111.64,104.09 L112.00,101.33 L112.00,26.67 L111.64,23.91 L110.57,21.33 L108.88,19.12 L106.67,17.43 L104.09,16.36 L101.33,16.00 Z" fill="#f1f1f1" stroke="#1e1e1e" stroke-width="1" stroke-linejoin="round"/><path d="M64.00,96.00 L69.01,95.61 L73.89,94.43 L78.53,92.51 L82.81,89.89 L86.63,86.63 L89.89,82.81 L92.51,78.53 L94.43,73.89 L95.61,69.01 L96.00,64.00 L95.61,58.99 L94.43,54.11 L92.51,49.47 L89.89,45.19 L86.63,41.37 L82.81,38.11 L78.53,35.49 L73.89,33.57 L69.01,32.39 L64.00,32.00 L58.99,32.39 L54.11,33.57 L49.47,35.49 L45.19,38.11 L41.37,41.37 L38.11,45.19 L35.49,49.47 L33.57,54.11 L32.39,58.99 L32.00,64.00 L32.39,69.01 L33.57,73.89 L35.49,78.53 L38.11,82.81 L41.37,86.63 L45.19,89.89 L49.47,92.51 L54.11,94.43 L58.99,95.61 L64.00,96.00 L64.00,96.00 Z" fill="#ce2e85" stroke="#1e1e1e" stroke-width="1" stroke-linejoin="round"/><path d="M64.00,42.67 L61.82,42.78 L59.71,43.10 L57.66,43.63 L55.70,44.35 L53.84,45.24 L52.08,46.31 L50.44,47.54 L48.92,48.92 L47.54,50.44 L46.31,52.08 L45.24,53.84 L44.35,55.70 L43.63,57.66 L43.10,59.71 L42.78,61.82 L42.67,64.00 L43.07,68.17 L44.29,72.17 L46.28,75.86 L48.96,79.07 L50.17,79.83 L51.60,79.86 L52.83,79.15 L53.53,77.90 L53.47,76.47 L52.69,75.27 L50.69,72.87 L49.20,70.11 L48.30,67.12 L48.00,64.00 L48.37,60.62 L49.44,57.38 L51.17,54.45 L53.48,51.95 L56.27,50.00 L59.41,48.68 L62.75,48.05 L66.15,48.14 L67.52,47.96 L68.62,47.12 L69.15,45.85 L68.97,44.48 L68.13,43.38 L66.86,42.85 L65.43,42.71 L64.00,42.67 L64.00,42.67 Z" fill="#f5bcd8" stroke="#1e1e1e" stroke-width="1" stroke-linejoin="round"/><path d="M80.34,47.27 L79.53,46.86 L78.62,46.84 L77.80,47.23 L77.09,47.79 L73.27,50.85 L69.46,53.92 L63.40,58.88 L62.27,59.83 L61.16,60.80 L60.45,61.43 L59.79,62.11 L58.73,63.90 L58.35,65.95 L58.69,68.01 L59.72,69.82 L61.30,71.18 L63.25,71.91 L65.34,71.92 L67.30,71.23 L68.91,69.90 L69.99,68.34 L71.53,65.83 L75.49,59.07 L77.92,54.82 L80.34,50.57 L80.78,49.78 L81.04,48.91 L80.88,48.01 L80.34,47.27 L80.34,47.27 Z" fill="#f5bcd8" stroke="#1e1e1e" stroke-width="1" stroke-linejoin="round"/><path d="M125.65,82.35 L124.44,81.35 L123.07,80.61 L121.57,80.16 L120.00,80.00 L93.33,80.00 L91.83,80.15 L90.40,80.59 L89.65,80.96 L88.96,81.39 L87.81,82.35 L86.61,83.84 L86.40,84.21 L85.97,84.96 L85.60,86.03 L85.44,86.67 L85.44,86.99 L85.34,88.27 L85.44,89.60 L85.76,90.74 L86.23,91.81 L86.86,92.79 L87.63,93.65 L88.16,94.19 L87.03,94.83 L86.03,95.68 L82.24,99.47 L80.77,101.49 L80.00,103.87 L80.00,106.37 L80.77,108.75 L82.24,110.77 L83.30,111.65 L84.48,112.32 L82.24,114.56 L80.77,116.58 L80.00,118.96 L80.00,121.46 L80.77,123.84 L82.24,125.87 L84.26,127.34 L86.64,128.11 L89.14,128.11 L91.52,127.34 L93.55,125.87 L95.79,123.63 L96.46,124.81 L97.33,125.87 L99.36,127.34 L101.74,128.11 L104.24,128.11 L106.62,127.34 L108.64,125.87 L112.43,122.08 L113.25,121.05 L113.87,119.89 L114.29,120.32 L115.19,121.10 L116.18,121.73 L117.24,122.21 L118.35,122.51 L119.41,122.67 L119.95,122.67 L121.52,122.51 L123.09,122.03 L124.43,121.28 L125.12,120.75 L125.44,120.43 L126.24,119.52 L126.51,119.09 L127.11,118.06 L127.54,116.95 L127.80,115.80 L127.89,114.61 L127.89,88.00 L127.74,86.43 L127.28,84.93 L126.54,83.56 L125.55,82.35 L125.65,82.35 Z" fill="#f5f5f5" stroke="#1e1e1e" stroke-width="1" stroke-linejoin="round"/><path d="M93.35,85.33 L120.02,85.33 L121.35,85.69 L122.33,86.67 L122.69,88.00 L122.69,114.67 L122.57,115.44 L122.24,116.15 L122.15,116.27 L121.66,116.77 L121.05,117.13 L120.02,117.33 L119.00,117.13 L118.14,116.55 L91.47,89.89 L90.85,88.90 L90.70,87.75 L91.06,86.64 L91.11,86.56 L91.19,86.44 L92.14,85.63 L93.35,85.33 L93.35,85.33 Z" fill="#ce2e85" stroke="#1e1e1e" stroke-width="1" stroke-linejoin="round"/><path d="M93.65,99.48 L94.34,100.68 L94.34,102.06 L93.65,103.25 L89.89,107.02 L88.70,107.69 L87.33,107.68 L86.15,106.99 L85.46,105.81 L85.45,104.45 L86.12,103.25 L89.89,99.48 L91.08,98.79 L92.46,98.79 L93.66,99.48 L93.65,99.48 Z" fill="#ce2e85" stroke="#ce2e85" stroke-width="1" stroke-linejoin="round"/><path d="M108.75,114.57 L109.44,115.77 L109.44,117.15 L108.75,118.34 L104.97,122.11 L103.77,122.83 L102.38,122.84 L101.17,122.15 L100.47,120.93 L100.48,119.54 L101.20,118.34 L104.97,114.57 L106.17,113.88 L107.55,113.88 L108.74,114.57 L108.75,114.57 Z" fill="#ce2e85" stroke="#ce2e85" stroke-width="1" stroke-linejoin="round"/><path d="M101.20,107.03 L101.89,108.22 L101.89,109.60 L101.20,110.80 L89.88,122.11 L88.68,122.83 L87.29,122.84 L86.08,122.15 L85.38,120.93 L85.40,119.54 L86.11,118.34 L97.43,107.03 L98.62,106.34 L100.00,106.34 L101.20,107.03 Z" fill="#ce2e85" stroke="#ce2e85" stroke-width="1" stroke-linejoin="round"/></svg>