<svg xmlns="http://www.w3.org/2000/svg" viewBox="16.65 7.60 84.01 100.00"><path d="M60.79,105.20 L60.12,105.42 L59.43,105.55 L58.73,105.60 L58.03,105.57 L57.33,105.46 L56.64,105.26 L55.98,104.97 L55.34,104.60 L54.36,103.82 L53.53,102.85 L52.85,101.76 L52.36,100.57 L52.09,99.35 L52.07,98.12 L52.15,97.52 L52.31,96.94 L52.54,96.38 L52.84,95.84 L76.19,61.12 L97.65,85.19 L98.12,85.85 L98.44,86.56 L98.62,87.32 L98.65,88.08 L98.53,88.84 L98.27,89.56 L97.86,90.23 L97.31,90.83 L96.77,91.24 L96.18,91.55 L60.79,105.20 Z" fill="#095fa6" stroke="#1e1e1e" stroke-width="1" stroke-linejoin="round"/><path d="M41.97,63.64 L19.25,29.45 L18.80,28.45 L18.65,27.36 L18.73,26.55 L18.96,25.80 L19.33,25.12 L19.82,24.53 L20.42,24.04 L21.10,23.67 L21.85,23.43 L22.66,23.35 L23.57,23.33 L24.03,23.35 L24.43,23.45 L61.39,40.82 L59.27,45.02 L41.97,63.64 Z" fill="#0c589b" stroke="#1e1e1e" stroke-width="1" stroke-linejoin="round"/><path d="M56.52,105.23 L55.92,104.96 L55.34,104.63 L54.31,103.76 L53.50,102.69 L52.95,101.46 L52.69,100.14 L52.72,98.80 L53.05,97.50 L53.66,96.30 L98.05,29.47 L98.51,28.42 L98.65,27.28 L98.45,26.15 L97.95,25.12 L97.17,24.27 L96.18,23.69 L60.79,10.03 L59.75,9.73 L58.65,9.62 L57.56,9.73 L56.52,10.01 L21.12,23.66 L21.87,23.44 L22.68,23.35 L23.48,23.44 L24.22,23.66 L52.15,37.13 L52.88,37.57 L53.55,38.08 L54.15,38.68 L54.65,39.34 L55.07,40.06 L55.37,40.85 L55.56,41.69 L55.63,42.57 L55.53,43.68 L55.24,44.71 L54.77,45.66 L54.14,46.51 L19.68,85.19 L19.21,85.85 L18.88,86.56 L18.71,87.32 L18.68,88.08 L18.80,88.84 L19.06,89.56 L19.47,90.23 L20.02,90.83 L20.55,91.24 L21.14,91.55 L56.54,105.21 L56.52,105.23 Z" fill="#34afe6" stroke="#1e1e1e" stroke-width="1" stroke-linejoin="round"/><path d="M24.29,23.66 L52.22,37.12 L53.38,37.87 L54.34,38.82 L54.73,39.36 L55.07,39.95 L55.33,40.57 L55.53,41.23 L98.65,26.76 L98.37,25.76 L97.86,24.89 L97.16,24.17 L96.28,23.66 L60.89,10.01 L59.85,9.71 L58.75,9.60 L57.66,9.70 L56.61,9.98 L21.22,23.64 L21.97,23.41 L22.78,23.33 L23.57,23.41 L24.31,23.64 L24.29,23.66 Z" fill="#a1ecff" stroke="#1e1e1e" stroke-width="1" stroke-linejoin="round" opacity="0.41"/></svg>