<svg xmlns="http://www.w3.org/2000/svg" viewBox="7.60 7.60 99.98 100.00"><path d="M87.30,66.69 L88.27,66.74 L89.22,66.88 L90.17,67.11 L91.09,67.42 L91.99,67.80 L92.86,68.26 L94.51,69.35 L95.99,70.67 L97.27,72.15 L98.32,73.76 L99.10,75.45 L99.42,76.44 L99.65,77.46 L99.79,78.52 L99.84,79.60 L99.78,80.83 L99.60,82.02 L99.30,83.17 L98.89,84.27 L98.39,85.32 L97.79,86.31 L97.09,87.23 L96.32,88.08 L95.46,88.86 L94.54,89.55 L93.54,90.15 L92.49,90.66 L91.39,91.06 L90.23,91.35 L89.04,91.54 L87.81,91.60 L81.60,91.60 L79.63,91.64 L77.70,91.75 L75.81,91.96 L73.97,92.25 L72.18,92.64 L70.44,93.12 L68.76,93.71 L67.13,94.41 L65.56,95.23 L64.05,96.16 L62.61,97.22 L61.24,98.40 L59.93,99.72 L58.70,101.18 L57.55,102.78 L56.47,104.53 L56.00,105.12 L55.34,105.50 L54.59,105.60 L53.85,105.42 L53.24,104.98 L52.83,104.34 L52.68,103.60 L52.68,65.57 L87.30,66.69 Z" fill="#0a5bab" stroke="#1e1e1e" stroke-width="1" stroke-linejoin="round"/><path d="M87.30,66.69 L88.27,66.74 L89.22,66.88 L90.17,67.11 L91.09,67.42 L91.99,67.80 L92.86,68.26 L94.51,69.35 L95.99,70.67 L97.27,72.15 L98.32,73.76 L99.10,75.45 L99.42,76.44 L99.65,77.46 L99.79,78.52 L99.84,79.60 L99.78,80.83 L99.60,82.02 L99.30,83.17 L98.89,84.27 L98.39,85.32 L97.79,86.31 L97.09,87.23 L96.32,88.08 L95.46,88.86 L94.54,89.55 L93.54,90.15 L92.49,90.66 L91.39,91.06 L90.23,91.35 L89.04,91.54 L87.81,91.60 L81.60,91.60 L79.63,91.64 L77.70,91.75 L75.81,91.96 L73.97,92.25 L72.18,92.64 L70.44,93.12 L68.76,93.71 L67.13,94.41 L65.56,95.23 L64.05,96.16 L62.61,97.22 L61.24,98.40 L59.93,99.72 L58.70,101.18 L57.55,102.78 L56.47,104.53 L56.00,105.12 L55.34,105.50 L54.59,105.60 L53.85,105.42 L53.24,104.98 L52.83,104.34 L52.68,103.60 L52.68,65.57 L87.30,66.69 Z" fill="#000000" stroke="#1e1e1e" stroke-width="1" stroke-linejoin="round" opacity="0.3"/><path d="M99.10,75.45 L98.21,73.56 L97.00,71.86 L95.52,70.38 L93.80,69.19 L91.91,68.31 L89.89,67.78 L87.80,67.60 L23.64,67.60 L22.20,67.53 L20.81,67.31 L19.46,66.97 L18.17,66.50 L16.95,65.91 L15.79,65.21 L14.71,64.40 L13.71,63.50 L12.81,62.50 L12.00,61.43 L11.29,60.27 L10.70,59.05 L10.23,57.76 L9.89,56.42 L9.67,55.03 L9.60,53.60 L9.68,52.16 L9.90,50.75 L10.27,49.37 L10.77,48.04 L11.40,46.76 L12.14,45.54 L12.99,44.40 L13.94,43.34 L14.98,42.37 L16.10,41.49 L17.29,40.73 L18.55,40.09 L19.87,39.57 L21.24,39.19 L22.65,38.95 L24.09,38.87 L49.63,38.04 L83.85,37.81 L84.61,39.43 L99.10,75.45 L99.10,75.45 Z" fill="#5185ed" stroke="#1e1e1e" stroke-width="1" stroke-linejoin="round"/><path d="M99.10,75.45 L98.21,73.56 L97.00,71.86 L95.52,70.38 L93.80,69.19 L91.91,68.31 L89.89,67.78 L87.80,67.60 L23.64,67.60 L22.20,67.53 L20.81,67.31 L19.46,66.97 L18.17,66.50 L16.95,65.91 L15.79,65.21 L14.71,64.40 L13.71,63.50 L12.81,62.50 L12.00,61.43 L11.29,60.27 L10.70,59.05 L10.23,57.76 L9.89,56.42 L9.67,55.03 L9.60,53.60 L9.68,52.16 L9.90,50.75 L10.27,49.37 L10.77,48.04 L11.40,46.76 L12.14,45.54 L12.99,44.40 L13.94,43.34 L14.98,42.37 L16.10,41.49 L17.29,40.73 L18.55,40.09 L19.87,39.57 L21.24,39.19 L22.65,38.95 L24.09,38.87 L49.63,38.04 L83.85,37.81 L84.61,39.43 L99.10,75.45 L99.10,75.45 Z" fill="#294cb0" stroke="#1e1e1e" stroke-width="1" stroke-linejoin="round" opacity="0.39"/><path d="M105.35,34.20 L97.36,14.34 L96.60,13.01 L95.60,11.84 L94.40,10.89 L93.03,10.18 L91.56,9.75 L90.03,9.60 L26.49,9.60 L24.77,9.78 L23.14,10.33 L21.65,11.22 L20.39,12.40 L19.42,13.83 L18.77,15.43 L9.99,50.39 L10.34,49.30 L10.77,48.23 L11.28,47.20 L11.87,46.21 L12.52,45.27 L13.25,44.38 L14.03,43.55 L14.88,42.78 L15.79,42.08 L16.74,41.46 L17.75,40.91 L18.80,40.45 L19.89,40.09 L21.02,39.82 L22.19,39.66 L23.38,39.60 L101.59,39.60 L102.68,39.45 L103.69,39.01 L104.54,38.31 L105.16,37.41 L105.52,36.37 L105.58,35.27 L105.35,34.20 L105.35,34.20 Z" fill="#9cbcfb" stroke="#1e1e1e" stroke-width="1" stroke-linejoin="round"/></svg>