<svg xmlns="http://www.w3.org/2000/svg" viewBox="14.00 8.67 99.99 110.67"><path d="M21.33,80.00 L21.33,114.67 L20.98,116.00 L20.00,116.98 L18.67,117.33 L17.33,116.98 L16.36,116.00 L16.00,114.67 L16.00,18.67 L16.39,16.19 L17.53,13.96 L19.30,12.19 L21.53,11.06 L24.00,10.67 L109.33,10.67 L110.74,11.06 L111.72,12.14 L111.99,13.57 L111.47,14.93 L88.67,45.33 L111.47,75.73 L111.99,77.09 L111.72,78.53 L110.74,79.60 L109.33,80.00 L21.33,80.00 Z" fill="#16806e" stroke="#1e1e1e" stroke-width="1" stroke-linejoin="round"/><path d="M24.00,16.00 L22.67,16.36 L21.69,17.33 L21.33,18.67 L21.33,74.67 L104.00,74.67 L83.20,46.93 L82.73,45.90 L82.73,44.77 L83.20,43.73 L104.00,16.00 L24.00,16.00 Z" fill="#ffffff" stroke="#1e1e1e" stroke-width="1" stroke-linejoin="round"/></svg>