<svg xmlns="http://www.w3.org/2000/svg" viewBox="8.67 8.67 110.67 110.67"><path d="M10.67,26.67 L11.07,23.11 L12.25,19.72 L14.16,16.69 L16.69,14.16 L19.72,12.25 L23.11,11.07 L26.67,10.67 L101.33,10.67 L104.89,11.07 L108.28,12.25 L111.31,14.16 L113.84,16.69 L115.75,19.72 L116.93,23.11 L117.33,26.67 L117.33,101.33 L116.93,104.89 L115.75,108.28 L113.84,111.31 L111.31,113.84 L108.28,115.75 L104.89,116.93 L101.33,117.33 L26.67,117.33 L23.11,116.93 L19.72,115.75 L16.69,113.84 L14.16,111.31 L12.25,108.28 L11.07,104.89 L10.67,101.33 L10.67,26.67 Z" fill="#f5f5f5" stroke="#1e1e1e" stroke-width="1" stroke-linejoin="round"/><path d="M10.67,26.67 L11.07,23.11 L12.25,19.72 L14.16,16.69 L16.69,14.16 L19.72,12.25 L23.11,11.07 L26.67,10.67 L101.33,10.67 L104.89,11.07 L108.28,12.25 L111.31,14.16 L113.84,16.69 L115.75,19.72 L116.93,23.11 L117.33,26.67 L117.33,101.33 L116.93,104.89 L115.75,108.28 L113.84,111.31 L111.31,113.84 L108.28,115.75 L104.89,116.93 L101.33,117.33 L26.67,117.33 L23.11,116.93 L19.72,115.75 L16.69,113.84 L14.16,111.31 L12.25,108.28 L11.07,104.89 L10.67,101.33 L10.67,26.67 Z" fill="#e3e3e3" stroke="#1e1e1e" stroke-width="1" stroke-linejoin="round" opacity="0.2"/><path d="M26.67,10.67 L23.11,11.07 L19.72,12.25 L16.69,14.16 L14.16,16.69 L12.25,19.72 L11.07,23.11 L10.67,26.67 L10.67,101.33 L11.07,104.89 L12.25,108.28 L14.16,111.31 L16.69,113.84 L19.72,115.75 L23.11,116.93 L26.67,117.33 L101.33,117.33 L104.89,116.93 L108.28,115.75 L111.31,113.84 L113.84,111.31 L115.75,108.28 L116.93,104.89 L117.33,101.33 L117.33,26.67 L116.93,23.11 L115.75,19.72 L113.84,16.69 L111.31,14.16 L108.28,12.25 L104.89,11.07 L101.33,10.67 L26.67,10.67 Z" fill="#a2a2a2" stroke="#1e1e1e" stroke-width="1" stroke-linejoin="round"/><path d="M101.33,16.00 L26.67,16.00 L23.91,16.36 L21.33,17.43 L19.12,19.12 L17.43,21.33 L16.36,23.91 L16.00,26.67 L16.00,101.33 L16.36,104.09 L17.43,106.67 L19.12,108.88 L21.33,110.57 L23.91,111.64 L26.67,112.00 L101.33,112.00 L104.09,111.64 L106.67,110.57 L108.88,108.88 L110.57,106.67 L111.64,104.09 L112.00,101.33 L112.00,26.67 L111.64,23.91 L110.57,21.33 L108.88,19.12 L106.67,17.43 L104.09,16.36 L101.33,16.00 Z" fill="#f1f1f1" stroke="#1e1e1e" stroke-width="1" stroke-linejoin="round"/><path d="M65.38,32.11 L63.96,32.00 L62.54,32.13 L60.83,32.60 L59.31,33.53 L58.10,34.83 L57.40,36.03 L56.85,37.43 L56.46,39.01 L56.22,40.75 L55.88,47.88 L66.67,47.88 L68.00,48.24 L68.98,49.22 L69.33,50.55 L68.98,51.88 L68.00,52.86 L66.67,53.22 L55.59,53.22 L54.87,65.67 L54.07,78.12 L54.07,78.14 L54.04,78.46 L53.63,82.42 L53.27,84.52 L52.72,86.61 L51.85,88.79 L50.62,90.86 L48.96,92.74 L46.78,94.35 L45.03,95.23 L43.27,95.76 L41.51,95.99 L39.78,95.95 L38.09,95.69 L36.47,95.25 L33.48,94.02 L32.43,93.11 L31.99,91.80 L32.26,90.44 L33.18,89.40 L34.50,88.96 L35.86,89.25 L38.14,90.19 L40.27,90.64 L42.22,90.52 L43.13,90.24 L43.99,89.80 L44.06,89.76 L45.31,88.85 L46.29,87.74 L47.06,86.45 L47.64,84.98 L48.07,83.31 L48.37,81.55 L48.75,77.77 L48.75,77.72 L48.75,77.71 L50.25,53.22 L40.00,53.22 L38.67,52.86 L37.69,51.88 L37.33,50.55 L37.69,49.22 L38.67,48.24 L40.00,47.88 L50.54,47.88 L50.75,44.16 L50.90,40.43 L51.20,38.12 L51.75,35.87 L52.59,33.73 L53.74,31.76 L55.31,29.94 L57.23,28.47 L59.40,27.43 L61.74,26.85 L61.77,26.85 L64.10,26.67 L66.43,26.88 L68.49,27.52 L70.38,28.49 L71.34,29.48 L71.68,30.82 L71.30,32.15 L70.31,33.11 L68.97,33.45 L67.64,33.07 L66.55,32.49 L65.38,32.11 L65.38,32.11 Z" fill="#45903e" stroke="#1e1e1e" stroke-width="1" stroke-linejoin="round"/><path d="M95.22,59.45 L95.91,60.64 L95.91,62.02 L95.22,63.22 L83.32,75.12 L85.77,79.39 L88.27,83.64 L88.43,83.90 L88.98,84.78 L89.24,85.08 L89.56,85.31 L89.82,85.33 L90.07,85.32 L90.13,85.31 L90.31,85.15 L90.45,84.98 L90.84,84.47 L91.22,83.97 L92.32,83.17 L93.67,83.01 L94.92,83.54 L95.75,84.62 L95.94,85.96 L95.45,87.23 L95.26,87.48 L94.39,88.58 L93.13,89.72 L92.01,90.30 L90.81,90.60 L89.52,90.65 L88.15,90.47 L87.84,90.38 L87.53,90.26 L85.95,89.28 L84.68,87.93 L84.23,87.28 L83.82,86.60 L83.65,86.30 L81.51,82.67 L79.41,79.02 L68.55,89.89 L67.36,90.58 L65.98,90.58 L64.78,89.89 L64.09,88.70 L64.09,87.31 L64.78,86.12 L76.66,74.23 L74.55,70.55 L72.41,66.89 L71.86,65.89 L71.22,64.95 L70.78,64.44 L70.27,64.01 L70.24,64.02 L70.08,64.10 L69.37,64.70 L68.78,65.42 L67.68,66.22 L66.33,66.38 L65.08,65.85 L64.25,64.78 L64.06,63.43 L64.55,62.17 L65.72,60.82 L67.31,59.54 L68.96,58.83 L70.74,58.69 L72.47,59.14 L73.38,59.67 L74.18,60.31 L75.45,61.70 L76.38,63.07 L77.11,64.36 L80.57,70.33 L91.45,59.45 L92.65,58.76 L94.03,58.76 L95.22,59.45 L95.22,59.45 Z" fill="#45903e" stroke="#1e1e1e" stroke-width="1" stroke-linejoin="round"/></svg>