<svg xmlns="http://www.w3.org/2000/svg" viewBox="7.60 7.60 100.00 100.00"><path d="M9.60,24.00 L9.96,20.80 L11.03,17.75 L12.74,15.02 L15.02,12.74 L17.75,11.03 L20.80,9.96 L24.00,9.60 L91.20,9.60 L94.40,9.96 L97.45,11.03 L100.18,12.74 L102.46,15.02 L104.17,17.75 L105.24,20.80 L105.60,24.00 L105.60,91.20 L105.24,94.40 L104.17,97.45 L102.46,100.18 L100.18,102.46 L97.45,104.17 L94.40,105.24 L91.20,105.60 L24.00,105.60 L20.80,105.24 L17.75,104.17 L15.02,102.46 L12.74,100.18 L11.03,97.45 L9.96,94.40 L9.60,91.20 L9.60,24.00 Z" fill="#f5f5f5" stroke="#1e1e1e" stroke-width="1" stroke-linejoin="round"/><path d="M9.60,24.00 L9.96,20.80 L11.03,17.75 L12.74,15.02 L15.02,12.74 L17.75,11.03 L20.80,9.96 L24.00,9.60 L91.20,9.60 L94.40,9.96 L97.45,11.03 L100.18,12.74 L102.46,15.02 L104.17,17.75 L105.24,20.80 L105.60,24.00 L105.60,91.20 L105.24,94.40 L104.17,97.45 L102.46,100.18 L100.18,102.46 L97.45,104.17 L94.40,105.24 L91.20,105.60 L24.00,105.60 L20.80,105.24 L17.75,104.17 L15.02,102.46 L12.74,100.18 L11.03,97.45 L9.96,94.40 L9.60,91.20 L9.60,24.00 Z" fill="#e3e3e3" stroke="#1e1e1e" stroke-width="1" stroke-linejoin="round" opacity="0.2"/><path d="M24.00,9.60 L20.80,9.96 L17.75,11.03 L15.02,12.74 L12.74,15.02 L11.03,17.75 L9.96,20.80 L9.60,24.00 L9.60,91.20 L9.96,94.40 L11.03,97.45 L12.74,100.18 L15.02,102.46 L17.75,104.17 L20.80,105.24 L24.00,105.60 L91.20,105.60 L94.40,105.24 L97.45,104.17 L100.18,102.46 L102.46,100.18 L104.17,97.45 L105.24,94.40 L105.60,91.20 L105.60,24.00 L105.24,20.80 L104.17,17.75 L102.46,15.02 L100.18,12.74 L97.45,11.03 L94.40,9.96 L91.20,9.60 L24.00,9.60 Z" fill="#a2a2a2" stroke="#1e1e1e" stroke-width="1" stroke-linejoin="round"/><path d="M91.20,14.40 L24.00,14.40 L21.52,14.73 L19.20,15.69 L17.21,17.21 L15.69,19.20 L14.73,21.52 L14.40,24.00 L14.40,91.20 L14.73,93.68 L15.69,96.00 L17.21,97.99 L19.20,99.51 L21.52,100.47 L24.00,100.80 L91.20,100.80 L93.68,100.47 L96.00,99.51 L97.99,97.99 L99.51,96.00 L100.47,93.68 L100.80,91.20 L100.80,24.00 L100.47,21.52 L99.51,19.20 L97.99,17.21 L96.00,15.69 L93.68,14.73 L91.20,14.40 Z" fill="#f1f1f1" stroke="#1e1e1e" stroke-width="1" stroke-linejoin="round"/><path d="M58.34,31.16 L56.27,32.42 L55.33,33.19 L54.50,34.05 L53.80,35.00 L53.26,36.04 L52.92,37.17 L52.80,38.40 L52.80,48.02 L55.24,48.23 L57.60,48.64 L57.60,45.24 L58.34,45.64 L60.77,46.64 L63.50,47.38 L66.46,47.84 L69.60,48.00 L72.74,47.84 L75.70,47.38 L78.43,46.64 L80.86,45.64 L81.60,45.24 L81.60,67.20 L81.48,67.74 L81.04,68.45 L80.15,69.27 L78.71,70.14 L76.87,70.90 L74.71,71.49 L72.27,71.86 L69.60,72.00 L67.10,71.88 L64.80,71.55 L64.80,68.33 L64.03,68.85 L63.23,69.31 L60.66,70.47 L57.82,71.31 L54.77,71.83 L51.60,72.00 L48.43,71.83 L45.38,71.31 L42.54,70.47 L39.97,69.31 L39.17,68.84 L38.40,68.33 L38.40,79.43 L38.40,79.43 L38.74,80.84 L39.55,82.15 L40.79,83.33 L42.40,84.37 L44.34,85.21 L46.55,85.85 L48.99,86.26 L51.60,86.40 L54.21,86.26 L56.65,85.85 L58.86,85.21 L60.80,84.37 L62.41,83.33 L63.65,82.15 L64.46,80.84 L64.80,79.43 L64.80,79.43 L64.80,76.43 L67.15,76.70 L69.60,76.80 L72.74,76.64 L75.70,76.18 L78.43,75.44 L80.86,74.44 L82.93,73.18 L83.87,72.41 L84.70,71.55 L85.40,70.60 L85.94,69.56 L86.28,68.43 L86.40,67.20 L86.40,38.40 L86.28,37.17 L85.94,36.04 L85.40,35.00 L84.70,34.05 L83.87,33.19 L82.93,32.42 L80.86,31.16 L78.43,30.16 L75.70,29.42 L72.74,28.96 L69.60,28.80 L66.46,28.96 L63.50,29.42 L60.77,30.16 L58.34,31.16 Z" fill="#45903e" stroke="#45903e" stroke-width="1" stroke-linejoin="round"/><path d="M60.49,35.46 L59.05,36.33 L58.16,37.15 L57.72,37.86 L57.60,38.40 L57.72,38.94 L58.16,39.65 L59.05,40.47 L60.49,41.34 L62.33,42.10 L64.49,42.69 L66.93,43.07 L69.60,43.20 L72.27,43.07 L74.71,42.69 L76.87,42.10 L78.71,41.34 L80.15,40.47 L81.04,39.65 L81.48,38.94 L81.60,38.40 L81.48,37.86 L81.04,37.15 L80.15,36.33 L78.71,35.46 L76.87,34.70 L74.71,34.11 L72.27,33.73 L69.60,33.60 L66.93,33.73 L64.49,34.11 L62.33,34.70 L60.49,35.46 L60.49,35.46 Z" fill="#f1f1f1" stroke="#f1f1f1" stroke-width="1" stroke-linejoin="round"/><path d="M51.60,52.80 L54.63,52.99 L57.60,53.59 L59.14,54.09 L60.53,54.70 L61.76,55.40 L62.80,56.19 L63.65,57.06 L64.28,57.98 L64.67,58.97 L64.80,60.00 L64.53,61.45 L63.76,62.80 L62.55,64.02 L60.93,65.09 L58.98,65.97 L56.74,66.63 L54.26,67.05 L51.60,67.20 L48.94,67.05 L46.46,66.63 L44.22,65.97 L42.27,65.09 L40.65,64.02 L39.44,62.80 L38.67,61.45 L38.40,60.00 L38.67,58.55 L39.44,57.20 L40.65,55.98 L42.27,54.91 L44.22,54.03 L46.46,53.37 L48.94,52.95 L51.60,52.80 Z" fill="#45903e" stroke="#1e1e1e" stroke-width="1" stroke-linejoin="round"/><path d="M37.91,33.10 L38.98,32.48 L40.22,32.48 L41.30,33.10 L47.30,39.11 L47.92,40.18 L47.92,41.42 L47.30,42.49 L41.30,48.50 L40.22,49.13 L38.98,49.13 L37.90,48.51 L37.28,47.43 L37.28,46.19 L37.90,45.11 L39.68,43.33 L37.72,44.00 L36.02,45.17 L34.71,46.76 L33.88,48.65 L33.60,50.70 L33.60,55.20 L33.28,56.40 L32.40,57.28 L31.20,57.60 L30.00,57.28 L29.12,56.40 L28.80,55.20 L28.80,50.70 L29.17,47.71 L30.25,44.91 L31.98,42.45 L34.25,40.48 L36.94,39.12 L39.87,38.46 L37.90,36.49 L37.28,35.41 L37.28,34.17 L37.90,33.10 L37.91,33.10 Z" fill="#45903e" stroke="#1e1e1e" stroke-width="1" stroke-linejoin="round"/></svg>