<svg xmlns="http://www.w3.org/2000/svg" viewBox="11.09 2.36 82.55 100.00"><path d="M13.09,17.45 L13.42,14.54 L14.39,11.77 L15.95,9.29 L18.02,7.22 L20.50,5.66 L23.27,4.69 L26.18,4.36 L78.55,4.36 L81.46,4.69 L84.23,5.66 L86.71,7.22 L88.78,9.29 L90.34,11.77 L91.31,14.54 L91.64,17.45 L91.64,87.27 L91.31,90.19 L90.34,92.95 L88.78,95.43 L86.71,97.51 L84.23,99.07 L81.46,100.04 L78.55,100.36 L26.18,100.36 L23.27,100.04 L20.50,99.07 L18.02,97.51 L15.95,95.43 L14.39,92.95 L13.42,90.19 L13.09,87.27 L13.09,17.45 Z" fill="#f5f5f5" stroke="#1e1e1e" stroke-width="1" stroke-linejoin="round"/><path d="M13.09,17.45 L13.42,14.54 L14.39,11.77 L15.95,9.29 L18.02,7.22 L20.50,5.66 L23.27,4.69 L26.18,4.36 L78.55,4.36 L81.46,4.69 L84.23,5.66 L86.71,7.22 L88.78,9.29 L90.34,11.77 L91.31,14.54 L91.64,17.45 L91.64,87.27 L91.31,90.19 L90.34,92.95 L88.78,95.43 L86.71,97.51 L84.23,99.07 L81.46,100.04 L78.55,100.36 L26.18,100.36 L23.27,100.04 L20.50,99.07 L18.02,97.51 L15.95,95.43 L14.39,92.95 L13.42,90.19 L13.09,87.27 L13.09,17.45 Z" fill="#e3e3e3" stroke="#1e1e1e" stroke-width="1" stroke-linejoin="round" opacity="0.2"/><path d="M26.18,4.36 L23.27,4.69 L20.50,5.66 L18.02,7.22 L15.95,9.29 L14.39,11.77 L13.42,14.54 L13.09,17.45 L13.09,87.27 L13.42,90.19 L14.39,92.95 L15.95,95.43 L18.02,97.51 L20.50,99.07 L23.27,100.04 L26.18,100.36 L78.55,100.36 L81.46,100.04 L84.23,99.07 L86.71,97.51 L88.78,95.43 L90.34,92.95 L91.31,90.19 L91.64,87.27 L91.64,17.45 L91.31,14.54 L90.34,11.77 L88.78,9.29 L86.71,7.22 L84.23,5.66 L81.46,4.69 L78.55,4.36 L26.18,4.36 Z" fill="#a2a2a2" stroke="#1e1e1e" stroke-width="1" stroke-linejoin="round"/><path d="M78.55,8.73 L26.18,8.73 L23.92,9.02 L21.82,9.90 L20.01,11.28 L18.62,13.09 L17.75,15.20 L17.45,17.45 L17.45,87.27 L17.75,89.53 L18.62,91.64 L20.01,93.44 L21.82,94.83 L23.92,95.70 L26.18,96.00 L78.55,96.00 L80.80,95.70 L82.91,94.83 L84.72,93.44 L86.10,91.64 L86.98,89.53 L87.27,87.27 L87.27,17.45 L86.98,15.20 L86.10,13.09 L84.72,11.28 L82.91,9.90 L80.80,9.02 L78.55,8.73 Z" fill="#f1f1f1" stroke="#1e1e1e" stroke-width="1" stroke-linejoin="round"/><path d="M47.96,77.19 L47.58,77.85 L47.28,78.55 L34.91,78.55 L32.65,78.25 L30.55,77.38 L28.74,75.99 L27.35,74.18 L26.48,72.08 L26.18,69.82 L26.18,51.45 L26.52,49.04 L27.51,46.82 L29.07,44.96 L46.53,29.25 L48.27,28.03 L50.25,27.27 L52.36,27.01 L54.47,27.27 L56.46,28.03 L58.20,29.25 L75.66,44.96 L77.22,46.82 L78.21,49.04 L78.55,51.45 L78.55,61.27 L78.37,61.23 L78.33,61.14 L78.18,60.88 L78.07,60.62 L77.48,59.43 L76.63,58.35 L75.62,57.53 L74.49,56.91 L74.09,56.73 L72.05,56.38 L69.99,56.69 L69.47,56.91 L68.33,57.51 L67.34,58.31 L66.54,59.30 L65.93,60.44 L65.45,61.01 L64.97,60.44 L63.99,58.78 L62.56,57.48 L60.82,56.66 L58.91,56.38 L58.30,56.38 L57.39,56.53 L56.52,56.80 L54.96,57.67 L53.70,58.94 L52.80,60.53 L52.54,61.10 L52.35,61.18 L52.15,61.23 L52.01,61.27 L50.12,62.03 L48.55,63.34 L47.46,65.06 L46.95,67.04 L47.08,69.08 L47.79,70.93 L49.03,72.48 L50.69,73.57 L52.60,74.10 L52.58,74.14 L52.19,74.27 L52.06,74.32 L50.83,74.72 L49.71,75.35 L48.74,76.18 L47.96,77.20 L47.96,77.19 Z" fill="#2865c7" stroke="#1e1e1e" stroke-width="1" stroke-linejoin="round"/><path d="M71.33,60.81 L70.52,61.28 L69.98,62.06 L69.27,63.26 L68.14,64.40 L66.79,65.18 L65.42,65.45 L64.07,65.18 L62.75,64.41 L61.69,63.35 L60.93,62.06 L60.33,61.23 L59.41,60.76 L58.38,60.77 L57.47,61.25 L56.88,62.09 L56.16,63.52 L55.38,64.42 L54.39,65.04 L52.98,65.51 L51.94,66.02 L51.30,66.98 L51.25,68.13 L51.79,69.16 L52.78,69.75 L53.93,69.77 L55.11,69.44 L56.22,69.01 L57.26,68.44 L58.22,67.73 L59.04,66.93 L60.04,67.83 L61.19,68.61 L62.48,69.25 L63.90,69.67 L65.42,69.82 L66.95,69.67 L68.37,69.25 L69.67,68.62 L70.83,67.84 L71.36,67.39 L71.86,66.91 L72.69,67.73 L73.65,68.44 L74.69,69.01 L75.80,69.44 L76.98,69.77 L78.11,69.72 L79.06,69.12 L79.59,68.12 L79.54,66.99 L78.94,66.03 L77.94,65.51 L76.52,65.05 L75.53,64.42 L74.75,63.52 L74.04,62.09 L73.56,61.35 L72.82,60.86 L72.82,60.86 L72.08,60.71 L71.33,60.81 L71.33,60.81 Z" fill="#2865c7" stroke="#2865c7" stroke-width="1" stroke-linejoin="round"/><path d="M58.22,80.82 L59.04,80.02 L60.04,80.92 L61.19,81.71 L62.48,82.34 L63.90,82.76 L65.42,82.91 L66.95,82.76 L68.37,82.34 L69.67,81.71 L70.83,80.93 L71.86,80.01 L72.69,80.82 L73.65,81.54 L74.69,82.10 L75.80,82.53 L76.98,82.86 L78.11,82.81 L79.06,82.21 L79.59,81.21 L79.54,80.08 L78.94,79.12 L77.94,78.60 L76.52,78.14 L75.53,77.51 L74.75,76.61 L74.04,75.19 L73.43,74.31 L72.48,73.84 L71.41,73.87 L70.49,74.40 L70.20,74.75 L69.98,75.15 L69.27,76.35 L68.14,77.49 L66.79,78.27 L65.42,78.55 L64.07,78.28 L62.75,77.50 L61.69,76.44 L60.93,75.15 L60.33,74.32 L59.41,73.85 L58.38,73.86 L57.47,74.34 L56.88,75.19 L56.16,76.61 L55.38,77.51 L54.39,78.14 L52.98,78.60 L51.94,79.11 L51.30,80.07 L51.25,81.23 L51.79,82.25 L52.78,82.85 L53.93,82.86 L55.11,82.53 L56.22,82.10 L57.26,81.54 L58.22,80.82 L58.22,80.82 Z" fill="#2865c7" stroke="#2865c7" stroke-width="1" stroke-linejoin="round"/></svg>