<svg xmlns="http://www.w3.org/2000/svg" viewBox="7.93 7.93 100.00 100.00"><path d="M9.93,21.52 L10.15,19.26 L10.81,17.08 L11.88,15.08 L13.32,13.32 L15.08,11.88 L17.08,10.81 L19.26,10.15 L21.52,9.93 L84.41,9.93 L86.67,10.15 L88.85,10.81 L90.85,11.88 L92.61,13.32 L94.05,15.08 L95.12,17.08 L95.78,19.26 L96.00,21.52 L96.00,84.41 L95.78,86.67 L95.12,88.85 L94.05,90.85 L92.61,92.61 L90.85,94.05 L88.85,95.12 L86.67,95.78 L84.41,96.00 L21.52,96.00 L19.26,95.78 L17.08,95.12 L15.08,94.05 L13.32,92.61 L11.88,90.85 L10.81,88.85 L10.15,86.67 L9.93,84.41 L9.93,21.52 Z" fill="#f5f5f5" stroke="#1e1e1e" stroke-width="1" stroke-linejoin="round"/><path d="M9.93,21.52 L10.15,19.26 L10.81,17.08 L11.88,15.08 L13.32,13.32 L15.08,11.88 L17.08,10.81 L19.26,10.15 L21.52,9.93 L84.41,9.93 L86.67,10.15 L88.85,10.81 L90.85,11.88 L92.61,13.32 L94.05,15.08 L95.12,17.08 L95.78,19.26 L96.00,21.52 L96.00,84.41 L95.78,86.67 L95.12,88.85 L94.05,90.85 L92.61,92.61 L90.85,94.05 L88.85,95.12 L86.67,95.78 L84.41,96.00 L21.52,96.00 L19.26,95.78 L17.08,95.12 L15.08,94.05 L13.32,92.61 L11.88,90.85 L10.81,88.85 L10.15,86.67 L9.93,84.41 L9.93,21.52 Z" fill="#e3e3e3" stroke="#1e1e1e" stroke-width="1" stroke-linejoin="round" opacity="0.2"/><path d="M21.52,9.93 L19.26,10.15 L17.08,10.81 L15.08,11.88 L13.32,13.32 L11.88,15.08 L10.81,17.08 L10.15,19.26 L9.93,21.52 L9.93,84.41 L10.15,86.67 L10.81,88.85 L11.88,90.85 L13.32,92.61 L15.08,94.05 L17.08,95.12 L19.26,95.78 L21.52,96.00 L84.41,96.00 L86.67,95.78 L88.85,95.12 L90.85,94.05 L92.61,92.61 L94.05,90.85 L95.12,88.85 L95.78,86.67 L96.00,84.41 L96.00,21.52 L95.78,19.26 L95.12,17.08 L94.05,15.08 L92.61,13.32 L90.85,11.88 L88.85,10.81 L86.67,10.15 L84.41,9.93 L21.52,9.93 Z" fill="#a2a2a2" stroke="#1e1e1e" stroke-width="1" stroke-linejoin="round"/><path d="M84.41,13.24 L21.52,13.24 L19.68,13.45 L17.93,14.06 L16.36,15.05 L15.05,16.36 L14.06,17.93 L13.45,19.68 L13.24,21.52 L13.24,84.41 L13.45,86.26 L14.06,88.00 L15.05,89.57 L16.36,90.88 L17.93,91.87 L19.68,92.48 L21.52,92.69 L84.41,92.69 L86.26,92.48 L88.00,91.87 L89.57,90.88 L90.88,89.57 L91.87,88.00 L92.48,86.26 L92.69,84.41 L92.69,21.52 L92.48,19.68 L91.87,17.93 L90.88,16.36 L89.57,15.05 L88.00,14.06 L86.26,13.45 L84.41,13.24 Z" fill="#f1f1f1" stroke="#1e1e1e" stroke-width="1" stroke-linejoin="round"/><path d="M37.24,29.79 L38.19,29.98 L39.00,30.52 L39.54,31.33 L39.72,32.28 L39.72,73.66 L39.48,74.73 L38.79,75.60 L37.79,76.08 L36.69,76.08 L35.69,75.60 L35.00,74.73 L34.76,73.66 L34.76,32.28 L34.95,31.33 L35.49,30.52 L36.29,29.98 L37.24,29.79 Z" fill="#b57400" stroke="#b57400" stroke-width="1" stroke-linejoin="round"/><path d="M50.48,73.66 L50.48,42.21 L50.73,41.13 L51.42,40.27 L52.41,39.79 L53.52,39.79 L54.51,40.27 L55.20,41.13 L55.45,42.21 L55.45,73.66 L55.20,74.73 L54.51,75.60 L53.52,76.08 L52.41,76.08 L51.42,75.60 L50.73,74.73 L50.48,73.66 Z" fill="#b57400" stroke="#b57400" stroke-width="1" stroke-linejoin="round"/><path d="M68.69,49.66 L69.64,49.84 L70.45,50.38 L70.98,51.19 L71.17,52.14 L71.17,73.66 L70.93,74.73 L70.24,75.60 L69.24,76.08 L68.14,76.08 L67.14,75.60 L66.45,74.73 L66.21,73.66 L66.21,52.14 L66.40,51.19 L66.93,50.38 L67.74,49.84 L68.69,49.66 Z" fill="#b57400" stroke="#b57400" stroke-width="1" stroke-linejoin="round"/><path d="M97.66,59.59 L99.50,59.79 L101.25,60.41 L102.82,61.39 L104.13,62.70 L105.11,64.27 L105.72,66.02 L105.93,67.86 L105.93,97.66 L105.72,99.50 L105.11,101.25 L104.13,102.82 L102.82,104.13 L101.25,105.11 L99.50,105.72 L97.66,105.93 L81.10,105.93 L79.26,105.72 L77.51,105.11 L75.94,104.13 L74.63,102.82 L73.65,101.25 L73.04,99.50 L72.83,97.66 L72.83,67.86 L73.04,66.02 L73.65,64.27 L74.63,62.70 L75.94,61.39 L77.51,60.41 L79.26,59.79 L81.10,59.59 L97.66,59.59 Z" fill="#f5f5f5" stroke="#1e1e1e" stroke-width="1" stroke-linejoin="round"/><path d="M76.14,67.86 L76.38,66.33 L77.09,64.94 L78.18,63.84 L79.57,63.14 L81.10,62.90 L97.66,62.90 L99.19,63.14 L100.57,63.84 L101.67,64.94 L102.38,66.33 L102.62,67.86 L102.62,97.66 L102.38,99.19 L101.67,100.57 L100.57,101.67 L99.19,102.38 L97.66,102.62 L81.10,102.62 L79.57,102.38 L78.18,101.67 L77.09,100.57 L76.38,99.19 L76.14,97.66 L76.14,67.86 Z" fill="#b57400" stroke="#1e1e1e" stroke-width="1" stroke-linejoin="round"/><path d="M92.69,92.69 L93.52,92.91 L94.12,93.52 L94.34,94.34 L94.12,95.17 L93.52,95.78 L92.69,96.00 L86.07,96.00 L85.24,95.78 L84.64,95.17 L84.41,94.34 L84.64,93.52 L85.24,92.91 L86.07,92.69 L92.69,92.69 Z" fill="#f5f5f5" stroke="#f5f5f5" stroke-width="1" stroke-linejoin="round"/></svg>