<svg xmlns="http://www.w3.org/2000/svg" viewBox="8.67 8.67 89.33 89.33"><path d="M10.67,24.00 L11.00,21.03 L11.99,18.21 L13.58,15.69 L15.69,13.58 L18.21,11.99 L21.03,11.00 L24.00,10.67 L82.67,10.67 L85.63,11.00 L88.45,11.99 L90.98,13.58 L93.09,15.69 L94.68,18.21 L95.67,21.03 L96.00,24.00 L96.00,82.67 L95.67,85.63 L94.68,88.45 L93.09,90.98 L90.98,93.09 L88.45,94.68 L85.63,95.67 L82.67,96.00 L24.00,96.00 L21.03,95.67 L18.21,94.68 L15.69,93.09 L13.58,90.98 L11.99,88.45 L11.00,85.63 L10.67,82.67 L10.67,24.00 Z" fill="#f5f5f5" stroke="#1e1e1e" stroke-width="1" stroke-linejoin="round"/><path d="M10.67,24.00 L11.00,21.03 L11.99,18.21 L13.58,15.69 L15.69,13.58 L18.21,11.99 L21.03,11.00 L24.00,10.67 L82.67,10.67 L85.63,11.00 L88.45,11.99 L90.98,13.58 L93.09,15.69 L94.68,18.21 L95.67,21.03 L96.00,24.00 L96.00,82.67 L95.67,85.63 L94.68,88.45 L93.09,90.98 L90.98,93.09 L88.45,94.68 L85.63,95.67 L82.67,96.00 L24.00,96.00 L21.03,95.67 L18.21,94.68 L15.69,93.09 L13.58,90.98 L11.99,88.45 L11.00,85.63 L10.67,82.67 L10.67,24.00 Z" fill="#e3e3e3" stroke="#1e1e1e" stroke-width="1" stroke-linejoin="round" opacity="0.2"/><path d="M24.00,10.67 L21.03,11.00 L18.21,11.99 L15.69,13.58 L13.58,15.69 L11.99,18.21 L11.00,21.03 L10.67,24.00 L10.67,82.67 L11.00,85.63 L11.99,88.45 L13.58,90.98 L15.69,93.09 L18.21,94.68 L21.03,95.67 L24.00,96.00 L82.67,96.00 L85.63,95.67 L88.45,94.68 L90.98,93.09 L93.09,90.98 L94.68,88.45 L95.67,85.63 L96.00,82.67 L96.00,24.00 L95.67,21.03 L94.68,18.21 L93.09,15.69 L90.98,13.58 L88.45,11.99 L85.63,11.00 L82.67,10.67 L24.00,10.67 Z" fill="#a2a2a2" stroke="#1e1e1e" stroke-width="1" stroke-linejoin="round"/><path d="M82.67,16.00 L24.00,16.00 L21.53,16.39 L19.30,17.53 L17.53,19.30 L16.39,21.53 L16.00,24.00 L16.00,82.67 L16.39,85.14 L17.53,87.37 L19.30,89.14 L21.53,90.28 L24.00,90.67 L82.67,90.67 L85.14,90.28 L87.37,89.14 L89.14,87.37 L90.28,85.14 L90.67,82.67 L90.67,24.00 L90.28,21.53 L89.14,19.30 L87.37,17.53 L85.14,16.39 L82.67,16.00 Z" fill="#f1f1f1" stroke="#1e1e1e" stroke-width="1" stroke-linejoin="round"/><path d="M29.33,76.00 L29.33,30.67 L29.73,28.93 L30.84,27.54 L32.44,26.77 L34.22,26.77 L35.83,27.54 L36.94,28.93 L37.33,30.67 L37.33,76.00 L36.94,77.74 L35.83,79.13 L34.22,79.90 L32.44,79.90 L30.84,79.13 L29.73,77.74 L29.33,76.00 Z" fill="#b57400" stroke="#b57400" stroke-width="1" stroke-linejoin="round"/><path d="M49.33,76.00 L49.33,46.67 L49.73,44.93 L50.84,43.54 L52.44,42.77 L54.22,42.77 L55.83,43.54 L56.94,44.93 L57.33,46.67 L57.33,76.00 L56.94,77.74 L55.83,79.13 L54.22,79.90 L52.44,79.90 L50.84,79.13 L49.73,77.74 L49.33,76.00 Z" fill="#b57400" stroke="#b57400" stroke-width="1" stroke-linejoin="round"/><path d="M73.33,58.67 L74.86,58.97 L76.16,59.84 L77.03,61.14 L77.33,62.67 L77.33,76.00 L76.94,77.74 L75.83,79.13 L74.22,79.90 L72.44,79.90 L70.84,79.13 L69.73,77.74 L69.33,76.00 L69.33,62.67 L69.64,61.14 L70.50,59.84 L71.80,58.97 L73.33,58.67 Z" fill="#b57400" stroke="#b57400" stroke-width="1" stroke-linejoin="round"/></svg>