<svg xmlns="http://www.w3.org/2000/svg" viewBox="11.09 2.36 82.55 100.00"><path d="M13.09,17.45 L13.42,14.54 L14.39,11.77 L15.95,9.29 L18.02,7.22 L20.50,5.66 L23.27,4.69 L26.18,4.36 L78.55,4.36 L81.46,4.69 L84.23,5.66 L86.71,7.22 L88.78,9.29 L90.34,11.77 L91.31,14.54 L91.64,17.45 L91.64,87.27 L91.31,90.19 L90.34,92.95 L88.78,95.43 L86.71,97.51 L84.23,99.07 L81.46,100.04 L78.55,100.36 L26.18,100.36 L23.27,100.04 L20.50,99.07 L18.02,97.51 L15.95,95.43 L14.39,92.95 L13.42,90.19 L13.09,87.27 L13.09,17.45 Z" fill="#f5f5f5" stroke="#1e1e1e" stroke-width="1" stroke-linejoin="round"/><path d="M13.09,17.45 L13.42,14.54 L14.39,11.77 L15.95,9.29 L18.02,7.22 L20.50,5.66 L23.27,4.69 L26.18,4.36 L78.55,4.36 L81.46,4.69 L84.23,5.66 L86.71,7.22 L88.78,9.29 L90.34,11.77 L91.31,14.54 L91.64,17.45 L91.64,87.27 L91.31,90.19 L90.34,92.95 L88.78,95.43 L86.71,97.51 L84.23,99.07 L81.46,100.04 L78.55,100.36 L26.18,100.36 L23.27,100.04 L20.50,99.07 L18.02,97.51 L15.95,95.43 L14.39,92.95 L13.42,90.19 L13.09,87.27 L13.09,17.45 Z" fill="#e3e3e3" stroke="#1e1e1e" stroke-width="1" stroke-linejoin="round" opacity="0.2"/><path d="M26.18,4.36 L23.27,4.69 L20.50,5.66 L18.02,7.22 L15.95,9.29 L14.39,11.77 L13.42,14.54 L13.09,17.45 L13.09,87.27 L13.42,90.19 L14.39,92.95 L15.95,95.43 L18.02,97.51 L20.50,99.07 L23.27,100.04 L26.18,100.36 L78.55,100.36 L81.46,100.04 L84.23,99.07 L86.71,97.51 L88.78,95.43 L90.34,92.95 L91.31,90.19 L91.64,87.27 L91.64,17.45 L91.31,14.54 L90.34,11.77 L88.78,9.29 L86.71,7.22 L84.23,5.66 L81.46,4.69 L78.55,4.36 L26.18,4.36 Z" fill="#a2a2a2" stroke="#1e1e1e" stroke-width="1" stroke-linejoin="round"/><path d="M78.55,8.73 L26.18,8.73 L23.92,9.02 L21.82,9.90 L20.01,11.28 L18.62,13.09 L17.75,15.20 L17.45,17.45 L17.45,87.27 L17.75,89.53 L18.62,91.64 L20.01,93.44 L21.82,94.83 L23.92,95.70 L26.18,96.00 L78.55,96.00 L80.80,95.70 L82.91,94.83 L84.72,93.44 L86.10,91.64 L86.98,89.53 L87.27,87.27 L87.27,17.45 L86.98,15.20 L86.10,13.09 L84.72,11.28 L82.91,9.90 L80.80,9.02 L78.55,8.73 Z" fill="#f1f1f1" stroke="#1e1e1e" stroke-width="1" stroke-linejoin="round"/><path d="M61.09,26.18 L57.30,26.51 L53.63,27.50 L50.18,29.10 L47.07,31.29 L44.38,33.98 L42.20,37.09 L40.59,40.54 L39.60,44.21 L39.27,48.00 L39.27,49.64 L39.29,49.91 L39.34,50.18 L39.27,50.18 L39.10,51.04 L38.62,51.75 L37.92,52.22 L37.06,52.40 L28.50,52.40 L27.41,52.69 L26.61,53.49 L26.32,54.58 L26.61,55.67 L27.41,56.47 L28.50,56.76 L37.06,56.76 L38.38,56.63 L39.62,56.25 L40.74,55.64 L41.71,54.84 L42.51,53.86 L43.12,52.74 L43.50,51.51 L43.64,50.18 L43.57,50.18 L43.62,49.91 L43.64,49.64 L43.64,48.00 L43.97,44.59 L44.97,41.32 L46.58,38.30 L48.75,35.66 L51.39,33.49 L54.41,31.87 L57.69,30.88 L61.09,30.55 L63.27,30.55 L64.36,30.25 L65.16,29.45 L65.45,28.36 L65.16,27.27 L64.36,26.47 L63.27,26.18 L61.09,26.18 Z" fill="#ce2e85" stroke="#1e1e1e" stroke-width="1" stroke-linejoin="round"/><path d="M39.68,74.22 L43.04,73.96 L46.32,73.19 L45.32,71.23 L44.54,69.17 L42.13,69.68 L39.68,69.85 L32.86,69.85 L31.77,70.15 L30.97,70.94 L30.68,72.03 L30.97,73.13 L31.77,73.92 L32.86,74.22 L39.68,74.22 Z" fill="#ce2e85" stroke="#ce2e85" stroke-width="1" stroke-linejoin="round"/><path d="M53.05,46.50 L54.27,44.16 L56.01,42.17 L58.18,40.67 L60.65,39.73 L63.27,39.41 L67.64,39.41 L68.73,39.12 L69.53,38.32 L69.82,37.23 L69.53,36.14 L68.73,35.34 L67.64,35.04 L63.27,35.04 L60.40,35.32 L57.63,36.13 L55.06,37.44 L52.79,39.21 L50.89,41.38 L49.43,43.87 L48.46,46.59 L48.03,49.44 L48.01,49.61 L48.00,49.77 L48.00,50.18 L47.97,50.97 L50.32,48.52 L53.05,46.50 L53.05,46.50 Z" fill="#ce2e85" stroke="#1e1e1e" stroke-width="1" stroke-linejoin="round"/><path d="M43.64,63.27 L43.79,60.80 L44.24,58.42 L42.09,59.87 L39.66,60.78 L37.09,61.09 L28.36,61.09 L27.27,61.38 L26.47,62.18 L26.18,63.27 L26.47,64.36 L27.27,65.16 L28.36,65.45 L37.09,65.45 L38.83,65.36 L40.51,65.07 L42.12,64.61 L43.65,63.98 L43.64,63.27 Z" fill="#ce2e85" stroke="#ce2e85" stroke-width="1" stroke-linejoin="round"/><path d="M48.22,61.77 L50.31,60.89 L52.10,59.51 L53.48,57.71 L54.35,55.62 L54.65,53.38 L54.36,51.13 L54.32,50.99 L56.01,49.93 L57.84,49.09 L59.88,50.38 L62.19,51.07 L64.61,51.09 L66.94,50.46 L69.00,49.20 L70.92,50.14 L72.67,51.33 L72.62,53.74 L73.23,56.08 L74.46,58.15 L76.21,59.82 L78.35,60.93 L78.54,62.93 L78.47,64.93 L78.32,64.97 L76.24,65.85 L74.44,67.23 L73.07,69.02 L72.20,71.12 L71.90,73.36 L72.18,75.60 L72.22,75.75 L70.53,76.81 L68.71,77.65 L66.67,76.35 L64.35,75.67 L61.94,75.65 L59.61,76.28 L57.55,77.53 L55.64,76.60 L53.87,75.40 L53.92,72.99 L53.31,70.66 L52.08,68.58 L50.33,66.92 L48.19,65.80 L48.00,63.81 L48.08,61.81 L48.22,61.77 Z" fill="#ce2e85" stroke="#ce2e85" stroke-width="1" stroke-linejoin="round"/><path d="M60.00,63.37 L60.32,64.79 L61.23,65.93 L62.54,66.56 L64.00,66.56 L65.31,65.93 L66.22,64.79 L66.55,63.37 L66.22,61.95 L65.31,60.81 L64.00,60.18 L62.54,60.18 L61.23,60.81 L60.32,61.95 L60.00,63.37 Z" fill="#f1f1f1" stroke="#f1f1f1" stroke-width="1" stroke-linejoin="round"/></svg>