<svg xmlns="http://www.w3.org/2000/svg" viewBox="8.67 8.67 120.52 120.92"><path d="M10.67,26.67 L11.07,23.11 L12.25,19.72 L14.16,16.69 L16.69,14.16 L19.72,12.25 L23.11,11.07 L26.67,10.67 L101.33,10.67 L104.89,11.07 L108.28,12.25 L111.31,14.16 L113.84,16.69 L115.75,19.72 L116.93,23.11 L117.33,26.67 L117.33,101.33 L116.93,104.89 L115.75,108.28 L113.84,111.31 L111.31,113.84 L108.28,115.75 L104.89,116.93 L101.33,117.33 L26.67,117.33 L23.11,116.93 L19.72,115.75 L16.69,113.84 L14.16,111.31 L12.25,108.28 L11.07,104.89 L10.67,101.33 L10.67,26.67 Z" fill="#f5f5f5" stroke="#1e1e1e" stroke-width="1" stroke-linejoin="round"/><path d="M10.67,26.67 L11.07,23.11 L12.25,19.72 L14.16,16.69 L16.69,14.16 L19.72,12.25 L23.11,11.07 L26.67,10.67 L101.33,10.67 L104.89,11.07 L108.28,12.25 L111.31,14.16 L113.84,16.69 L115.75,19.72 L116.93,23.11 L117.33,26.67 L117.33,101.33 L116.93,104.89 L115.75,108.28 L113.84,111.31 L111.31,113.84 L108.28,115.75 L104.89,116.93 L101.33,117.33 L26.67,117.33 L23.11,116.93 L19.72,115.75 L16.69,113.84 L14.16,111.31 L12.25,108.28 L11.07,104.89 L10.67,101.33 L10.67,26.67 Z" fill="#e3e3e3" stroke="#1e1e1e" stroke-width="1" stroke-linejoin="round" opacity="0.2"/><path d="M26.67,10.67 L23.11,11.07 L19.72,12.25 L16.69,14.16 L14.16,16.69 L12.25,19.72 L11.07,23.11 L10.67,26.67 L10.67,101.33 L11.07,104.89 L12.25,108.28 L14.16,111.31 L16.69,113.84 L19.72,115.75 L23.11,116.93 L26.67,117.33 L101.33,117.33 L104.89,116.93 L108.28,115.75 L111.31,113.84 L113.84,111.31 L115.75,108.28 L116.93,104.89 L117.33,101.33 L117.33,26.67 L116.93,23.11 L115.75,19.72 L113.84,16.69 L111.31,14.16 L108.28,12.25 L104.89,11.07 L101.33,10.67 L26.67,10.67 Z" fill="#a2a2a2" stroke="#1e1e1e" stroke-width="1" stroke-linejoin="round"/><path d="M101.33,16.00 L26.67,16.00 L23.91,16.36 L21.33,17.43 L19.12,19.12 L17.43,21.33 L16.36,23.91 L16.00,26.67 L16.00,101.33 L16.36,104.09 L17.43,106.67 L19.12,108.88 L21.33,110.57 L23.91,111.64 L26.67,112.00 L101.33,112.00 L104.09,111.64 L106.67,110.57 L108.88,108.88 L110.57,106.67 L111.64,104.09 L112.00,101.33 L112.00,26.67 L111.64,23.91 L110.57,21.33 L108.88,19.12 L106.67,17.43 L104.09,16.36 L101.33,16.00 Z" fill="#f1f1f1" stroke="#1e1e1e" stroke-width="1" stroke-linejoin="round"/><path d="M64.00,53.33 L68.30,53.17 L72.31,52.70 L75.93,51.97 L79.09,50.99 L81.69,49.81 L83.66,48.45 L84.37,47.71 L84.90,46.94 L85.22,46.15 L85.33,45.33 L85.22,44.52 L84.90,43.72 L84.37,42.96 L83.66,42.22 L81.69,40.86 L79.09,39.68 L75.93,38.70 L72.31,37.96 L68.30,37.50 L64.00,37.33 L59.70,37.50 L55.69,37.96 L52.07,38.70 L48.91,39.68 L46.31,40.86 L44.34,42.22 L43.63,42.96 L43.10,43.72 L42.78,44.52 L42.67,45.33 L42.78,46.15 L43.10,46.94 L43.63,47.71 L44.34,48.45 L46.31,49.81 L48.91,50.99 L52.07,51.97 L55.69,52.70 L59.70,53.17 L64.00,53.33 Z" fill="#0077bd" stroke="#1e1e1e" stroke-width="1" stroke-linejoin="round"/><path d="M64.00,53.33 L68.30,53.17 L72.31,52.70 L75.93,51.97 L79.09,50.99 L81.69,49.81 L83.66,48.45 L84.37,47.71 L84.90,46.94 L85.22,46.15 L85.33,45.33 L85.22,44.52 L84.90,43.72 L84.37,42.96 L83.66,42.22 L81.69,40.86 L79.09,39.68 L75.93,38.70 L72.31,37.96 L68.30,37.50 L64.00,37.33 L59.70,37.50 L55.69,37.96 L52.07,38.70 L48.91,39.68 L46.31,40.86 L44.34,42.22 L43.63,42.96 L43.10,43.72 L42.78,44.52 L42.67,45.33 L42.78,46.15 L43.10,46.94 L43.63,47.71 L44.34,48.45 L46.31,49.81 L48.91,50.99 L52.07,51.97 L55.69,52.70 L59.70,53.17 L64.00,53.33 Z" fill="#0077bd" stroke="#1e1e1e" stroke-width="1" stroke-linejoin="round"/><path d="M64.00,58.67 L68.69,58.49 L73.14,57.97 L77.26,57.13 L80.96,55.98 L83.19,55.03 L85.29,53.87 L85.33,84.00 L85.19,85.50 L84.76,86.89 L84.10,88.18 L83.24,89.36 L82.20,90.43 L81.03,91.39 L78.40,92.99 L75.32,94.26 L71.84,95.21 L68.05,95.80 L64.03,96.00 L60.01,95.80 L56.22,95.21 L52.74,94.26 L49.66,92.99 L47.03,91.39 L45.86,90.43 L44.82,89.36 L43.95,88.18 L43.29,86.89 L42.87,85.50 L42.73,84.00 L42.68,53.85 L44.80,55.02 L47.05,55.98 L50.74,57.13 L54.87,57.97 L59.32,58.49 L64.01,58.67 L64.00,58.67 Z" fill="#0077bd" stroke="#1e1e1e" stroke-width="1" stroke-linejoin="round"/><path d="M42.71,45.88 L42.95,46.65 L43.38,47.40 L44.77,48.80 L46.80,50.07 L49.40,51.17 L52.50,52.07 L56.01,52.75 L59.87,53.18 L63.99,53.33 L68.20,53.18 L72.12,52.73 L75.68,52.03 L78.81,51.09 L81.41,49.96 L83.42,48.65 L84.75,47.20 L85.13,46.43 L85.32,45.64 L85.33,45.33 L85.22,44.52 L84.90,43.72 L84.37,42.96 L83.66,42.22 L81.69,40.86 L79.09,39.68 L75.93,38.70 L72.31,37.96 L68.31,37.50 L64.01,37.33 L59.72,37.50 L55.72,37.96 L52.11,38.70 L48.96,39.68 L46.36,40.86 L44.39,42.22 L43.68,42.96 L43.15,43.72 L42.83,44.52 L42.72,45.33 L42.74,45.64 L42.78,45.94 L42.71,45.88 Z" fill="#0077bd" stroke="#1e1e1e" stroke-width="1" stroke-linejoin="round"/><path d="M96.00,94.73 L95.68,93.05 L94.75,91.60 L93.36,90.61 L91.70,90.20 L90.00,90.44 L88.52,91.29 L77.03,101.13 L75.93,102.53 L75.46,104.25 L75.68,106.01 L76.57,107.56 L88.06,120.68 L89.19,121.63 L90.46,122.13 L91.78,122.23 L93.06,121.94 L94.22,121.31 L95.15,120.37 L95.78,119.16 L96.01,117.70 L96.01,94.73 L96.00,94.73 Z" fill="#0077bd" stroke="#1e1e1e" stroke-width="1" stroke-linejoin="round"/><path d="M101.33,94.73 L101.66,93.05 L102.58,91.60 L103.97,90.61 L105.63,90.20 L107.33,90.44 L108.82,91.29 L120.30,101.13 L121.40,102.53 L121.87,104.25 L121.65,106.01 L120.76,107.56 L109.27,120.68 L108.14,121.63 L106.87,122.13 L105.55,122.23 L104.27,121.94 L103.12,121.31 L102.18,120.37 L101.56,119.16 L101.33,117.70 L101.33,94.73 L101.33,94.73 Z" fill="#0077bd" stroke="#1e1e1e" stroke-width="1" stroke-linejoin="round"/><path d="M98.67,124.49 L100.19,125.78 L101.93,126.75 L103.83,127.36 L105.81,127.58 L107.81,127.41 L109.77,126.80 L111.62,125.74 L113.29,124.20 L124.78,111.07 L126.21,108.91 L127.04,106.45 L127.19,103.86 L126.67,101.33 L125.50,99.01 L123.77,97.08 L112.29,87.23 L110.60,86.05 L108.81,85.28 L106.97,84.90 L105.13,84.87 L103.32,85.19 L101.61,85.82 L100.05,86.75 L98.67,87.95 L97.29,86.75 L95.72,85.82 L94.01,85.19 L92.21,84.87 L90.36,84.89 L88.52,85.28 L86.73,86.05 L85.05,87.23 L73.56,97.08 L71.83,99.01 L70.66,101.32 L70.14,103.86 L70.30,106.45 L71.12,108.91 L72.55,111.07 L84.04,124.20 L85.72,125.74 L87.57,126.80 L89.53,127.41 L91.53,127.58 L93.51,127.36 L95.40,126.75 L97.14,125.78 L98.67,124.49 L98.67,124.49 Z" fill="#f5f5f5" stroke="#1e1e1e" stroke-width="1" stroke-linejoin="round"/><path d="M101.33,117.83 L101.33,94.59 L101.70,92.94 L102.64,91.54 L104.03,90.58 L105.68,90.20 L107.35,90.44 L108.82,91.29 L120.30,101.13 L121.40,102.53 L121.87,104.25 L121.65,106.01 L120.76,107.56 L109.27,120.68 L108.16,121.62 L106.90,122.13 L105.60,122.23 L104.33,121.96 L103.18,121.35 L102.24,120.44 L101.60,119.26 L101.33,117.83 L101.33,117.83 Z" fill="#0077bd" stroke="#1e1e1e" stroke-width="1" stroke-linejoin="round"/><path d="M96.00,117.83 L96.00,94.59 L95.64,92.94 L94.69,91.54 L93.30,90.58 L91.65,90.20 L89.98,90.44 L88.52,91.29 L77.03,101.13 L75.93,102.53 L75.46,104.25 L75.68,106.01 L76.57,107.56 L88.06,120.68 L89.18,121.62 L90.43,122.13 L91.74,122.23 L93.01,121.96 L94.16,121.35 L95.09,120.44 L95.74,119.26 L96.00,117.83 L96.00,117.83 Z" fill="#0077bd" stroke="#1e1e1e" stroke-width="1" stroke-linejoin="round"/></svg>