<svg xmlns="http://www.w3.org/2000/svg" viewBox="9.08 9.08 100.00 100.00"><path d="M107.08,59.08 L107.01,61.55 L106.83,63.98 L106.52,66.39 L106.10,68.75 L105.57,71.07 L104.92,73.35 L104.16,75.58 L103.30,77.76 L102.34,79.89 L101.28,81.96 L100.13,83.97 L98.88,85.91 L96.12,89.61 L93.02,93.02 L89.61,96.12 L85.91,98.88 L83.97,100.13 L81.96,101.28 L79.89,102.34 L77.76,103.30 L75.58,104.16 L73.35,104.92 L71.07,105.57 L68.75,106.10 L66.39,106.52 L63.98,106.83 L61.55,107.01 L59.08,107.08 L56.61,107.01 L54.17,106.83 L51.77,106.52 L49.40,106.10 L47.08,105.57 L44.80,104.92 L42.57,104.16 L40.39,103.30 L38.27,102.34 L36.20,101.28 L34.19,100.13 L32.24,98.88 L28.54,96.12 L25.14,93.02 L22.04,89.61 L19.27,85.91 L18.03,83.97 L16.87,81.96 L15.81,79.89 L14.85,77.76 L13.99,75.58 L13.23,73.35 L12.59,71.07 L12.05,68.75 L11.63,66.39 L11.32,63.98 L11.14,61.55 L11.08,59.08 L11.14,56.61 L11.32,54.17 L11.63,51.77 L12.05,49.40 L12.59,47.08 L13.23,44.80 L13.99,42.57 L14.85,40.39 L15.81,38.27 L16.87,36.20 L18.03,34.19 L19.27,32.24 L22.04,28.54 L25.14,25.14 L28.54,22.04 L32.24,19.27 L34.19,18.03 L36.20,16.87 L38.27,15.81 L40.39,14.85 L42.57,13.99 L44.80,13.23 L47.08,12.59 L49.40,12.05 L51.77,11.63 L54.17,11.32 L56.61,11.14 L59.08,11.08 L61.55,11.14 L63.98,11.32 L66.39,11.63 L68.75,12.05 L71.07,12.59 L73.35,13.23 L75.58,13.99 L77.76,14.85 L79.89,15.81 L81.96,16.87 L83.97,18.03 L85.91,19.27 L89.61,22.04 L93.02,25.14 L96.12,28.54 L98.88,32.24 L100.13,34.19 L101.28,36.20 L102.34,38.27 L103.30,40.39 L104.16,42.57 L104.92,44.80 L105.57,47.08 L106.10,49.40 L106.52,51.77 L106.83,54.17 L107.01,56.61 L107.08,59.08 Z" fill="#f5f5f5" stroke="#1e1e1e" stroke-width="1" stroke-linejoin="round"/><path d="M107.08,59.08 L107.01,61.55 L106.83,63.98 L106.52,66.39 L106.10,68.75 L105.57,71.07 L104.92,73.35 L104.16,75.58 L103.30,77.76 L102.34,79.89 L101.28,81.96 L100.13,83.97 L98.88,85.91 L96.12,89.61 L93.02,93.02 L89.61,96.12 L85.91,98.88 L83.97,100.13 L81.96,101.28 L79.89,102.34 L77.76,103.30 L75.58,104.16 L73.35,104.92 L71.07,105.57 L68.75,106.10 L66.39,106.52 L63.98,106.83 L61.55,107.01 L59.08,107.08 L56.61,107.01 L54.17,106.83 L51.77,106.52 L49.40,106.10 L47.08,105.57 L44.80,104.92 L42.57,104.16 L40.39,103.30 L38.27,102.34 L36.20,101.28 L34.19,100.13 L32.24,98.88 L28.54,96.12 L25.14,93.02 L22.04,89.61 L19.27,85.91 L18.03,83.97 L16.87,81.96 L15.81,79.89 L14.85,77.76 L13.99,75.58 L13.23,73.35 L12.59,71.07 L12.05,68.75 L11.63,66.39 L11.32,63.98 L11.14,61.55 L11.08,59.08 L11.14,56.61 L11.32,54.17 L11.63,51.77 L12.05,49.40 L12.59,47.08 L13.23,44.80 L13.99,42.57 L14.85,40.39 L15.81,38.27 L16.87,36.20 L18.03,34.19 L19.27,32.24 L22.04,28.54 L25.14,25.14 L28.54,22.04 L32.24,19.27 L34.19,18.03 L36.20,16.87 L38.27,15.81 L40.39,14.85 L42.57,13.99 L44.80,13.23 L47.08,12.59 L49.40,12.05 L51.77,11.63 L54.17,11.32 L56.61,11.14 L59.08,11.08 L61.55,11.14 L63.98,11.32 L66.39,11.63 L68.75,12.05 L71.07,12.59 L73.35,13.23 L75.58,13.99 L77.76,14.85 L79.89,15.81 L81.96,16.87 L83.97,18.03 L85.91,19.27 L89.61,22.04 L93.02,25.14 L96.12,28.54 L98.88,32.24 L100.13,34.19 L101.28,36.20 L102.34,38.27 L103.30,40.39 L104.16,42.57 L104.92,44.80 L105.57,47.08 L106.10,49.40 L106.52,51.77 L106.83,54.17 L107.01,56.61 L107.08,59.08 Z" fill="#e3e3e3" stroke="#1e1e1e" stroke-width="1" stroke-linejoin="round" opacity="0.2"/><path d="M59.08,107.08 L61.55,107.01 L63.98,106.83 L66.39,106.52 L68.75,106.10 L71.07,105.57 L73.35,104.92 L75.58,104.16 L77.76,103.30 L79.89,102.34 L81.96,101.28 L83.97,100.13 L85.91,98.88 L89.61,96.12 L93.02,93.02 L96.12,89.61 L98.88,85.91 L100.13,83.97 L101.28,81.96 L102.34,79.89 L103.30,77.76 L104.16,75.58 L104.92,73.35 L105.57,71.07 L106.10,68.75 L106.52,66.39 L106.83,63.98 L107.01,61.55 L107.08,59.08 L107.01,56.61 L106.83,54.17 L106.52,51.77 L106.10,49.40 L105.57,47.08 L104.92,44.80 L104.16,42.57 L103.30,40.39 L102.34,38.27 L101.28,36.20 L100.13,34.19 L98.88,32.24 L96.12,28.54 L93.02,25.14 L89.61,22.04 L85.91,19.27 L83.97,18.03 L81.96,16.87 L79.89,15.81 L77.76,14.85 L75.58,13.99 L73.35,13.23 L71.07,12.59 L68.75,12.05 L66.39,11.63 L63.98,11.32 L61.55,11.14 L59.08,11.08 L56.61,11.14 L54.17,11.32 L51.77,11.63 L49.40,12.05 L47.08,12.59 L44.80,13.23 L42.57,13.99 L40.39,14.85 L38.27,15.81 L36.20,16.87 L34.19,18.03 L32.24,19.27 L28.54,22.04 L25.14,25.14 L22.04,28.54 L19.27,32.24 L18.03,34.19 L16.87,36.20 L15.81,38.27 L14.85,40.39 L13.99,42.57 L13.23,44.80 L12.59,47.08 L12.05,49.40 L11.63,51.77 L11.32,54.17 L11.14,56.61 L11.08,59.08 L11.14,61.55 L11.32,63.98 L11.63,66.39 L12.05,68.75 L12.59,71.07 L13.23,73.35 L13.99,75.58 L14.85,77.76 L15.81,79.89 L16.87,81.96 L18.03,83.97 L19.27,85.91 L22.04,89.61 L25.14,93.02 L28.54,96.12 L32.24,98.88 L34.19,100.13 L36.20,101.28 L38.27,102.34 L40.39,103.30 L42.57,104.16 L44.80,104.92 L47.08,105.57 L49.40,106.10 L51.77,106.52 L54.17,106.83 L56.61,107.01 L59.08,107.08 Z" fill="#a2a2a2" stroke="#1e1e1e" stroke-width="1" stroke-linejoin="round"/><path d="M59.08,103.38 L61.36,103.33 L63.61,103.16 L65.82,102.87 L68.01,102.48 L72.25,101.39 L76.32,99.90 L80.20,98.04 L83.85,95.82 L87.26,93.27 L90.41,90.41 L93.27,87.26 L95.82,83.85 L98.04,80.20 L99.90,76.32 L101.39,72.25 L102.48,68.01 L102.87,65.82 L103.16,63.61 L103.33,61.36 L103.38,59.08 L103.33,56.80 L103.16,54.55 L102.87,52.33 L102.48,50.15 L101.39,45.90 L99.90,41.83 L98.04,37.96 L95.82,34.30 L93.27,30.89 L90.41,27.75 L87.26,24.89 L83.85,22.34 L80.20,20.12 L76.32,18.25 L72.25,16.76 L68.01,15.67 L65.82,15.28 L63.61,15.00 L61.36,14.83 L59.08,14.77 L56.80,14.83 L54.55,15.00 L52.33,15.28 L50.15,15.67 L45.90,16.76 L41.83,18.25 L37.96,20.12 L34.30,22.34 L30.89,24.89 L27.75,27.75 L24.89,30.89 L22.34,34.30 L20.12,37.96 L18.25,41.83 L16.76,45.90 L15.67,50.15 L15.28,52.33 L15.00,54.55 L14.83,56.80 L14.77,59.08 L14.83,61.36 L15.00,63.61 L15.28,65.82 L15.67,68.01 L16.76,72.25 L18.25,76.32 L20.12,80.20 L22.34,83.85 L24.89,87.26 L27.75,90.41 L30.89,93.27 L34.30,95.82 L37.96,98.04 L41.83,99.90 L45.90,101.39 L50.15,102.48 L52.33,102.87 L54.55,103.16 L56.80,103.33 L59.08,103.38 Z" fill="#f1f1f1" stroke="#1e1e1e" stroke-width="1" stroke-linejoin="round"/><path d="M71.00,37.02 L71.20,35.80 L70.85,34.62 L70.02,33.71 L68.88,33.24 L67.65,33.32 L66.58,33.93 L65.87,34.94 L47.15,81.13 L46.93,82.36 L47.27,83.56 L48.10,84.49 L49.26,84.96 L50.51,84.87 L51.59,84.25 L52.28,83.21 L71.00,37.02 Z" fill="#45903e" stroke="#1e1e1e" stroke-width="1" stroke-linejoin="round"/><path d="M42.57,45.12 L43.17,46.02 L43.38,47.08 L43.17,48.14 L42.57,49.03 L32.53,59.08 L42.57,69.12 L43.27,70.17 L43.44,71.41 L43.04,72.61 L42.15,73.50 L40.95,73.90 L39.70,73.74 L38.66,73.03 L26.66,61.03 L26.06,60.14 L25.85,59.08 L26.06,58.02 L26.66,57.12 L38.66,45.12 L39.56,44.52 L40.62,44.31 L41.67,44.52 L42.57,45.12 L42.57,45.12 Z" fill="#45903e" stroke="#1e1e1e" stroke-width="1" stroke-linejoin="round"/><path d="M75.69,73.03 L75.09,72.14 L74.88,71.08 L75.09,70.02 L75.69,69.12 L85.74,59.08 L75.69,49.03 L75.04,47.99 L74.90,46.76 L75.31,45.60 L76.18,44.73 L77.35,44.32 L78.57,44.46 L79.61,45.12 L91.61,57.12 L92.21,58.02 L92.42,59.08 L92.21,60.14 L91.61,61.03 L79.61,73.03 L78.71,73.63 L77.65,73.85 L76.59,73.63 L75.70,73.03 L75.69,73.03 Z" fill="#45903e" stroke="#1e1e1e" stroke-width="1" stroke-linejoin="round"/></svg>