<svg xmlns="http://www.w3.org/2000/svg" viewBox="8.67 8.67 110.67 110.67"><path d="M10.67,26.67 L11.07,23.11 L12.25,19.72 L14.16,16.69 L16.69,14.16 L19.72,12.25 L23.11,11.07 L26.67,10.67 L101.33,10.67 L104.89,11.07 L108.28,12.25 L111.31,14.16 L113.84,16.69 L115.75,19.72 L116.93,23.11 L117.33,26.67 L117.33,101.33 L116.93,104.89 L115.75,108.28 L113.84,111.31 L111.31,113.84 L108.28,115.75 L104.89,116.93 L101.33,117.33 L26.67,117.33 L23.11,116.93 L19.72,115.75 L16.69,113.84 L14.16,111.31 L12.25,108.28 L11.07,104.89 L10.67,101.33 L10.67,26.67 Z" fill="#f5f5f5" stroke="#1e1e1e" stroke-width="1" stroke-linejoin="round"/><path d="M10.67,26.67 L11.07,23.11 L12.25,19.72 L14.16,16.69 L16.69,14.16 L19.72,12.25 L23.11,11.07 L26.67,10.67 L101.33,10.67 L104.89,11.07 L108.28,12.25 L111.31,14.16 L113.84,16.69 L115.75,19.72 L116.93,23.11 L117.33,26.67 L117.33,101.33 L116.93,104.89 L115.75,108.28 L113.84,111.31 L111.31,113.84 L108.28,115.75 L104.89,116.93 L101.33,117.33 L26.67,117.33 L23.11,116.93 L19.72,115.75 L16.69,113.84 L14.16,111.31 L12.25,108.28 L11.07,104.89 L10.67,101.33 L10.67,26.67 Z" fill="#e3e3e3" stroke="#1e1e1e" stroke-width="1" stroke-linejoin="round" opacity="0.2"/><path d="M26.67,10.67 L23.11,11.07 L19.72,12.25 L16.69,14.16 L14.16,16.69 L12.25,19.72 L11.07,23.11 L10.67,26.67 L10.67,101.33 L11.07,104.89 L12.25,108.28 L14.16,111.31 L16.69,113.84 L19.72,115.75 L23.11,116.93 L26.67,117.33 L101.33,117.33 L104.89,116.93 L108.28,115.75 L111.31,113.84 L113.84,111.31 L115.75,108.28 L116.93,104.89 L117.33,101.33 L117.33,26.67 L116.93,23.11 L115.75,19.72 L113.84,16.69 L111.31,14.16 L108.28,12.25 L104.89,11.07 L101.33,10.67 L26.67,10.67 Z" fill="#a2a2a2" stroke="#1e1e1e" stroke-width="1" stroke-linejoin="round"/><path d="M101.33,16.00 L26.67,16.00 L23.91,16.36 L21.33,17.43 L19.12,19.12 L17.43,21.33 L16.36,23.91 L16.00,26.67 L16.00,101.33 L16.36,104.09 L17.43,106.67 L19.12,108.88 L21.33,110.57 L23.91,111.64 L26.67,112.00 L101.33,112.00 L104.09,111.64 L106.67,110.57 L108.88,108.88 L110.57,106.67 L111.64,104.09 L112.00,101.33 L112.00,26.67 L111.64,23.91 L110.57,21.33 L108.88,19.12 L106.67,17.43 L104.09,16.36 L101.33,16.00 Z" fill="#f1f1f1" stroke="#1e1e1e" stroke-width="1" stroke-linejoin="round"/><path d="M44.00,32.00 L41.18,32.37 L38.55,33.46 L36.29,35.19 L34.56,37.45 L33.47,40.08 L33.10,42.90 L33.10,48.60 L33.11,49.66 L33.10,52.38 L32.96,53.85 L32.66,55.34 L32.14,56.80 L31.36,58.17 L30.25,59.42 L28.76,60.49 L27.46,61.60 L26.75,63.15 L26.75,64.85 L27.46,66.40 L28.76,67.51 L30.25,68.58 L31.36,69.83 L32.15,71.20 L32.66,72.66 L32.96,74.15 L33.10,75.62 L33.11,78.34 L33.10,79.40 L33.10,85.10 L33.32,87.30 L33.95,89.34 L34.96,91.19 L36.29,92.81 L37.90,94.14 L39.75,95.14 L41.80,95.78 L44.00,96.00 L45.74,95.60 L47.13,94.49 L47.90,92.89 L47.90,91.11 L47.13,89.51 L45.74,88.40 L44.00,88.00 L42.55,87.61 L41.49,86.55 L41.10,85.10 L41.10,79.40 L41.12,78.94 L41.19,76.51 L41.10,74.76 L40.86,72.76 L40.38,70.60 L39.61,68.37 L38.48,66.14 L36.93,64.00 L38.48,61.86 L39.61,59.63 L40.38,57.40 L40.86,55.24 L41.10,53.24 L41.19,51.49 L41.12,49.06 L41.10,48.60 L41.10,42.90 L41.33,41.77 L41.95,40.85 L42.87,40.23 L44.00,40.00 L45.74,39.60 L47.13,38.49 L47.90,36.89 L47.90,35.11 L47.13,33.51 L45.74,32.40 L44.00,32.00 Z" fill="#45903e" stroke="#1e1e1e" stroke-width="1" stroke-linejoin="round"/><path d="M58.58,49.65 L57.24,48.48 L55.52,48.00 L53.77,48.32 L52.32,49.36 L51.48,50.93 L51.39,52.71 L52.09,54.35 L59.07,64.00 L52.09,73.65 L51.39,75.29 L51.48,77.07 L52.32,78.64 L53.77,79.68 L55.52,80.00 L57.24,79.52 L58.58,78.35 L64.00,70.83 L69.42,78.34 L70.76,79.54 L72.48,80.04 L74.25,79.73 L75.71,78.68 L76.56,77.09 L76.63,75.30 L75.91,73.65 L68.93,64.00 L75.91,54.34 L76.58,52.70 L76.48,50.94 L75.63,49.39 L74.20,48.36 L72.47,48.04 L70.76,48.50 L69.42,49.65 L64.00,57.17 L58.58,49.65 Z" fill="#45903e" stroke="#1e1e1e" stroke-width="1" stroke-linejoin="round"/><path d="M94.91,42.90 L94.53,40.08 L93.44,37.45 L91.71,35.19 L89.45,33.46 L86.82,32.37 L84.00,32.00 L82.26,32.40 L80.87,33.51 L80.10,35.11 L80.10,36.89 L80.87,38.49 L82.26,39.60 L84.00,40.00 L85.13,40.23 L86.05,40.85 L86.67,41.77 L86.90,42.90 L86.90,48.60 L86.88,49.06 L86.81,51.49 L86.90,53.24 L87.14,55.24 L87.62,57.40 L88.39,59.63 L89.52,61.86 L91.07,64.00 L89.52,66.14 L88.39,68.37 L87.62,70.60 L87.14,72.76 L86.90,74.76 L86.81,76.51 L86.88,78.94 L86.91,79.40 L86.91,85.10 L86.68,86.23 L86.06,87.15 L85.13,87.77 L84.00,88.00 L82.26,88.40 L80.87,89.51 L80.10,91.11 L80.10,92.89 L80.87,94.49 L82.26,95.60 L84.00,96.00 L86.20,95.78 L88.25,95.14 L90.10,94.14 L91.71,92.81 L93.04,91.19 L94.05,89.34 L94.68,87.30 L94.90,85.10 L94.90,79.40 L94.89,78.34 L94.90,75.62 L95.04,74.15 L95.34,72.66 L95.86,71.20 L96.64,69.83 L97.75,68.58 L99.24,67.51 L100.54,66.40 L101.25,64.85 L101.25,63.15 L100.54,61.60 L99.24,60.49 L97.75,59.42 L96.64,58.17 L95.85,56.80 L95.34,55.34 L95.04,53.85 L94.90,52.38 L94.89,49.66 L94.90,48.60 L94.91,42.90 Z" fill="#45903e" stroke="#1e1e1e" stroke-width="1" stroke-linejoin="round"/></svg>