<svg xmlns="http://www.w3.org/2000/svg" viewBox="9.08 9.08 100.00 100.00"><path d="M11.08,24.00 L11.33,21.48 L12.06,19.05 L13.25,16.82 L14.86,14.86 L16.82,13.25 L19.05,12.06 L21.48,11.33 L24.00,11.08 L94.15,11.08 L96.68,11.33 L99.10,12.06 L101.33,13.25 L103.29,14.86 L104.90,16.82 L106.09,19.05 L106.83,21.48 L107.08,24.00 L107.08,94.15 L106.83,96.68 L106.09,99.10 L104.90,101.33 L103.29,103.29 L101.33,104.90 L99.10,106.09 L96.68,106.83 L94.15,107.08 L24.00,107.08 L21.48,106.83 L19.05,106.09 L16.82,104.90 L14.86,103.29 L13.25,101.33 L12.06,99.10 L11.33,96.68 L11.08,94.15 L11.08,24.00 Z" fill="#f5f5f5" stroke="#1e1e1e" stroke-width="1" stroke-linejoin="round"/><path d="M11.08,24.00 L11.33,21.48 L12.06,19.05 L13.25,16.82 L14.86,14.86 L16.82,13.25 L19.05,12.06 L21.48,11.33 L24.00,11.08 L94.15,11.08 L96.68,11.33 L99.10,12.06 L101.33,13.25 L103.29,14.86 L104.90,16.82 L106.09,19.05 L106.83,21.48 L107.08,24.00 L107.08,94.15 L106.83,96.68 L106.09,99.10 L104.90,101.33 L103.29,103.29 L101.33,104.90 L99.10,106.09 L96.68,106.83 L94.15,107.08 L24.00,107.08 L21.48,106.83 L19.05,106.09 L16.82,104.90 L14.86,103.29 L13.25,101.33 L12.06,99.10 L11.33,96.68 L11.08,94.15 L11.08,24.00 Z" fill="#e3e3e3" stroke="#1e1e1e" stroke-width="1" stroke-linejoin="round" opacity="0.2"/><path d="M24.00,11.08 L21.48,11.33 L19.05,12.06 L16.82,13.25 L14.86,14.86 L13.25,16.82 L12.06,19.05 L11.33,21.48 L11.08,24.00 L11.08,94.15 L11.33,96.68 L12.06,99.10 L13.25,101.33 L14.86,103.29 L16.82,104.90 L19.05,106.09 L21.48,106.83 L24.00,107.08 L94.15,107.08 L96.68,106.83 L99.10,106.09 L101.33,104.90 L103.29,103.29 L104.90,101.33 L106.09,99.10 L106.83,96.68 L107.08,94.15 L107.08,24.00 L106.83,21.48 L106.09,19.05 L104.90,16.82 L103.29,14.86 L101.33,13.25 L99.10,12.06 L96.68,11.33 L94.15,11.08 L24.00,11.08 Z" fill="#a2a2a2" stroke="#1e1e1e" stroke-width="1" stroke-linejoin="round"/><path d="M94.15,14.77 L24.00,14.77 L21.95,15.00 L19.99,15.68 L18.24,16.78 L16.78,18.24 L15.68,19.99 L15.00,21.95 L14.77,24.00 L14.77,94.15 L15.00,96.21 L15.68,98.16 L16.78,99.91 L18.24,101.37 L19.99,102.47 L21.95,103.15 L24.00,103.38 L94.15,103.38 L96.21,103.15 L98.16,102.47 L99.91,101.37 L101.37,99.91 L102.47,98.16 L103.15,96.21 L103.38,94.15 L103.38,24.00 L103.15,21.95 L102.47,19.99 L101.37,18.24 L99.91,16.78 L98.16,15.68 L96.21,15.00 L94.15,14.77 Z" fill="#f1f1f1" stroke="#1e1e1e" stroke-width="1" stroke-linejoin="round"/><path d="M40.73,40.62 L38.77,40.62 L37.06,40.89 L35.51,41.67 L34.29,42.90 L33.50,44.44 L33.23,46.15 L33.23,75.69 L33.50,77.40 L34.29,78.95 L35.51,80.17 L37.06,80.96 L38.77,81.23 L40.73,81.23 L40.73,40.62 Z" fill="#b57400" stroke="#b57400" stroke-width="1" stroke-linejoin="round"/><path d="M44.42,81.23 L44.42,40.62 L79.38,40.62 L81.10,40.89 L82.64,41.67 L83.87,42.90 L84.65,44.44 L84.92,46.15 L84.92,75.69 L84.65,77.40 L83.87,78.95 L82.64,80.17 L81.10,80.96 L79.38,81.23 L44.42,81.23 Z" fill="#b57400" stroke="#b57400" stroke-width="1" stroke-linejoin="round"/><path d="M53.54,55.38 L53.82,53.97 L54.62,52.77 L55.82,51.97 L57.23,51.69 L72.00,51.69 L73.41,51.97 L74.61,52.77 L75.41,53.97 L75.69,55.38 L75.69,62.77 L75.41,64.18 L74.61,65.38 L73.41,66.18 L72.00,66.46 L57.23,66.46 L55.82,66.18 L54.62,65.38 L53.82,64.18 L53.54,62.77 L53.54,55.38 Z" fill="#f1f1f1" stroke="#f1f1f1" stroke-width="1" stroke-linejoin="round"/><path d="M72.00,55.38 L57.23,55.38 L57.23,62.77 L72.00,62.77 L72.00,55.38 Z" fill="#b57400" stroke="#b57400" stroke-width="1" stroke-linejoin="round"/></svg>