<svg xmlns="http://www.w3.org/2000/svg" viewBox="8.67 8.67 110.67 110.67"><path d="M10.67,26.67 L11.07,23.11 L12.25,19.72 L14.16,16.69 L16.69,14.16 L19.72,12.25 L23.11,11.07 L26.67,10.67 L101.33,10.67 L104.89,11.07 L108.28,12.25 L111.31,14.16 L113.84,16.69 L115.75,19.72 L116.93,23.11 L117.33,26.67 L117.33,101.33 L116.93,104.89 L115.75,108.28 L113.84,111.31 L111.31,113.84 L108.28,115.75 L104.89,116.93 L101.33,117.33 L26.67,117.33 L23.11,116.93 L19.72,115.75 L16.69,113.84 L14.16,111.31 L12.25,108.28 L11.07,104.89 L10.67,101.33 L10.67,26.67 Z" fill="#f5f5f5" stroke="#1e1e1e" stroke-width="1" stroke-linejoin="round"/><path d="M10.67,26.67 L11.07,23.11 L12.25,19.72 L14.16,16.69 L16.69,14.16 L19.72,12.25 L23.11,11.07 L26.67,10.67 L101.33,10.67 L104.89,11.07 L108.28,12.25 L111.31,14.16 L113.84,16.69 L115.75,19.72 L116.93,23.11 L117.33,26.67 L117.33,101.33 L116.93,104.89 L115.75,108.28 L113.84,111.31 L111.31,113.84 L108.28,115.75 L104.89,116.93 L101.33,117.33 L26.67,117.33 L23.11,116.93 L19.72,115.75 L16.69,113.84 L14.16,111.31 L12.25,108.28 L11.07,104.89 L10.67,101.33 L10.67,26.67 Z" fill="#e3e3e3" stroke="#1e1e1e" stroke-width="1" stroke-linejoin="round" opacity="0.2"/><path d="M26.67,10.67 L23.11,11.07 L19.72,12.25 L16.69,14.16 L14.16,16.69 L12.25,19.72 L11.07,23.11 L10.67,26.67 L10.67,101.33 L11.07,104.89 L12.25,108.28 L14.16,111.31 L16.69,113.84 L19.72,115.75 L23.11,116.93 L26.67,117.33 L101.33,117.33 L104.89,116.93 L108.28,115.75 L111.31,113.84 L113.84,111.31 L115.75,108.28 L116.93,104.89 L117.33,101.33 L117.33,26.67 L116.93,23.11 L115.75,19.72 L113.84,16.69 L111.31,14.16 L108.28,12.25 L104.89,11.07 L101.33,10.67 L26.67,10.67 Z" fill="#a2a2a2" stroke="#1e1e1e" stroke-width="1" stroke-linejoin="round"/><path d="M101.33,16.00 L26.67,16.00 L23.91,16.36 L21.33,17.43 L19.12,19.12 L17.43,21.33 L16.36,23.91 L16.00,26.67 L16.00,101.33 L16.36,104.09 L17.43,106.67 L19.12,108.88 L21.33,110.57 L23.91,111.64 L26.67,112.00 L101.33,112.00 L104.09,111.64 L106.67,110.57 L108.88,108.88 L110.57,106.67 L111.64,104.09 L112.00,101.33 L112.00,26.67 L111.64,23.91 L110.57,21.33 L108.88,19.12 L106.67,17.43 L104.09,16.36 L101.33,16.00 Z" fill="#f1f1f1" stroke="#1e1e1e" stroke-width="1" stroke-linejoin="round"/><path d="M64.00,24.00 L65.56,24.15 L67.01,24.59 L68.33,25.27 L69.50,26.19 L70.47,27.30 L71.23,28.58 L71.74,30.00 L71.98,31.53 L88.94,41.32 L91.31,40.26 L93.90,40.02 L96.43,40.62 L98.63,41.99 L100.28,44.01 L101.19,46.44 L101.27,49.04 L100.52,51.52 L99.01,53.64 L96.91,55.16 L94.42,55.92 L91.82,55.85 L86.87,64.30 L91.68,72.17 L93.33,72.00 L95.78,72.38 L97.99,73.49 L99.76,75.22 L100.91,77.41 L101.34,79.84 L101.01,82.29 L99.94,84.53 L98.24,86.33 L96.08,87.52 L93.65,87.99 L91.19,87.70 L88.94,86.68 L71.98,96.47 L71.49,98.84 L70.31,100.96 L68.56,102.62 L66.39,103.68 L64.00,104.05 L61.61,103.68 L59.44,102.62 L57.68,100.95 L56.51,98.84 L56.02,96.47 L39.07,86.68 L36.88,87.69 L34.49,87.99 L32.11,87.58 L29.97,86.47 L28.25,84.78 L27.12,82.65 L26.67,80.28 L26.95,77.89 L27.93,75.68 L29.52,73.87 L31.58,72.62 L33.92,72.03 L36.33,72.17 L41.14,64.30 L36.18,55.85 L33.58,55.92 L31.10,55.16 L28.99,53.64 L27.48,51.52 L26.73,49.04 L26.82,46.44 L27.73,44.01 L29.37,41.99 L31.58,40.62 L34.11,40.02 L36.69,40.26 L39.07,41.32 L56.03,31.53 L56.53,29.17 L57.71,27.07 L59.46,25.42 L61.62,24.37 L64.00,24.00 Z" fill="#6748a8" stroke="#6748a8" stroke-width="1" stroke-linejoin="round"/><path d="M42.56,78.72 L42.67,80.00 L42.57,81.22 L42.30,82.39 L56.58,90.63 L47.89,75.82 L42.56,78.72 Z" fill="#f1f1f1" stroke="#f1f1f1" stroke-width="1" stroke-linejoin="round"/><path d="M71.43,90.63 L85.70,82.39 L85.36,80.57 L85.45,78.73 L80.12,75.82 L71.43,90.63 Z" fill="#f1f1f1" stroke="#f1f1f1" stroke-width="1" stroke-linejoin="round"/><path d="M52.58,73.26 L61.33,88.20 L61.33,71.54 L59.92,70.87 L58.67,69.94 L52.58,73.26 Z" fill="#f1f1f1" stroke="#f1f1f1" stroke-width="1" stroke-linejoin="round"/><path d="M69.34,69.94 L68.09,70.86 L66.67,71.54 L66.67,88.20 L75.43,73.26 L69.34,69.94 Z" fill="#f1f1f1" stroke="#f1f1f1" stroke-width="1" stroke-linejoin="round"/><path d="M42.14,72.89 L45.19,71.23 L44.20,69.53 L42.14,72.89 Z" fill="#f1f1f1" stroke="#f1f1f1" stroke-width="1" stroke-linejoin="round"/><path d="M82.81,71.22 L85.87,72.89 L83.81,69.52 L82.81,71.22 Z" fill="#f1f1f1" stroke="#f1f1f1" stroke-width="1" stroke-linejoin="round"/><path d="M47.36,64.35 L49.89,68.67 L56.12,65.26 L56.03,64.63 L56.00,64.00 L56.14,62.53 L50.46,59.26 L47.36,64.35 Z" fill="#f1f1f1" stroke="#f1f1f1" stroke-width="1" stroke-linejoin="round"/><path d="M71.95,63.03 L72.00,64.15 L71.90,65.26 L78.13,68.66 L80.66,64.35 L77.79,59.67 L71.95,63.03 Z" fill="#f1f1f1" stroke="#f1f1f1" stroke-width="1" stroke-linejoin="round"/><path d="M44.30,59.14 L45.85,56.60 L41.27,53.97 L44.30,59.14 Z" fill="#f1f1f1" stroke="#f1f1f1" stroke-width="1" stroke-linejoin="round"/><path d="M82.42,57.01 L83.72,59.14 L86.26,54.80 L82.42,57.01 Z" fill="#f1f1f1" stroke="#f1f1f1" stroke-width="1" stroke-linejoin="round"/><path d="M65.67,39.82 L64.01,40.00 L62.35,39.82 L53.25,54.71 L58.82,57.91 L60.81,56.66 L63.08,56.05 L65.43,56.12 L67.65,56.88 L69.56,58.25 L75.01,55.11 L65.67,39.82 Z" fill="#f1f1f1" stroke="#f1f1f1" stroke-width="1" stroke-linejoin="round"/><path d="M70.21,37.03 L79.64,52.46 L85.43,49.13 L85.37,47.35 L85.71,45.60 L70.42,36.77 L70.21,37.03 Z" fill="#f1f1f1" stroke="#f1f1f1" stroke-width="1" stroke-linejoin="round"/><path d="M42.30,45.61 L42.58,46.79 L42.67,48.00 L42.63,48.61 L48.62,52.05 L57.79,37.04 L57.59,36.77 L42.30,45.61 Z" fill="#f1f1f1" stroke="#f1f1f1" stroke-width="1" stroke-linejoin="round"/></svg>