<svg xmlns="http://www.w3.org/2000/svg" viewBox="8.67 3.33 110.67 121.33"><path d="M21.33,32.00 L21.73,28.44 L22.92,25.06 L24.82,22.02 L27.36,19.49 L30.39,17.58 L33.77,16.40 L37.33,16.00 L101.33,16.00 L104.89,16.40 L108.28,17.58 L111.31,19.49 L113.84,22.02 L115.75,25.06 L116.93,28.44 L117.33,32.00 L117.33,93.33 L116.97,97.92 L115.90,102.40 L114.14,106.65 L111.73,110.58 L108.74,114.08 L105.24,117.06 L101.32,119.47 L97.06,121.23 L92.59,122.31 L88.00,122.67 L37.33,122.67 L33.77,122.27 L30.39,121.08 L27.36,119.18 L24.82,116.64 L22.92,113.61 L21.73,110.23 L21.33,106.67 L21.33,32.00 Z" fill="#f5f5f5" stroke="#1e1e1e" stroke-width="1" stroke-linejoin="round"/><path d="M21.33,32.00 L21.73,28.44 L22.92,25.06 L24.82,22.02 L27.36,19.49 L30.39,17.58 L33.77,16.40 L37.33,16.00 L101.33,16.00 L104.89,16.40 L108.28,17.58 L111.31,19.49 L113.84,22.02 L115.75,25.06 L116.93,28.44 L117.33,32.00 L117.33,93.33 L116.97,97.92 L115.90,102.40 L114.14,106.65 L111.73,110.58 L108.74,114.08 L105.24,117.06 L101.32,119.47 L97.06,121.23 L92.59,122.31 L88.00,122.67 L37.33,122.67 L33.77,122.27 L30.39,121.08 L27.36,119.18 L24.82,116.64 L22.92,113.61 L21.73,110.23 L21.33,106.67 L21.33,32.00 Z" fill="#e3e3e3" stroke="#1e1e1e" stroke-width="1" stroke-linejoin="round" opacity="0.2"/><path d="M37.33,16.00 L33.77,16.40 L30.39,17.58 L27.36,19.49 L24.82,22.02 L22.92,25.06 L21.73,28.44 L21.33,32.00 L21.33,106.67 L21.73,110.23 L22.92,113.61 L24.82,116.64 L27.36,119.18 L30.39,121.08 L33.77,122.27 L37.33,122.67 L88.00,122.67 L92.59,122.31 L97.06,121.23 L101.32,119.47 L105.24,117.06 L108.74,114.08 L111.73,110.58 L114.14,106.65 L115.90,102.40 L116.97,97.92 L117.33,93.33 L117.33,32.00 L116.93,28.44 L115.75,25.06 L113.84,22.02 L111.31,19.49 L108.28,17.58 L104.89,16.40 L101.33,16.00 L37.33,16.00 Z" fill="#a2a2a2" stroke="#1e1e1e" stroke-width="1" stroke-linejoin="round"/><path d="M101.33,21.33 L37.33,21.33 L34.57,21.70 L32.00,22.76 L29.79,24.46 L28.10,26.67 L27.03,29.24 L26.67,32.00 L26.67,106.67 L27.03,109.43 L28.10,112.00 L29.79,114.21 L32.00,115.90 L34.57,116.97 L37.33,117.33 L88.00,117.33 L92.17,116.97 L96.21,115.89 L100.00,114.12 L103.43,111.72 L106.39,108.76 L108.78,105.33 L110.55,101.54 L111.64,97.50 L112.00,93.33 L112.00,32.00 L111.64,29.24 L110.57,26.67 L108.88,24.46 L106.67,22.76 L104.09,21.70 L101.33,21.33 Z" fill="#f1f1f1" stroke="#1e1e1e" stroke-width="1" stroke-linejoin="round"/><path d="M10.67,21.33 L11.07,17.77 L12.25,14.39 L14.16,11.36 L16.69,8.82 L19.72,6.92 L23.11,5.73 L26.67,5.33 L90.67,5.33 L94.23,5.73 L97.61,6.92 L100.64,8.82 L103.18,11.36 L105.08,14.39 L106.27,17.77 L106.67,21.33 L106.67,96.00 L106.27,99.56 L105.08,102.94 L103.18,105.98 L100.64,108.51 L97.61,110.42 L94.23,111.60 L90.67,112.00 L26.67,112.00 L23.11,111.60 L19.72,110.42 L16.69,108.51 L14.16,105.98 L12.25,102.94 L11.07,99.56 L10.67,96.00 L10.67,21.33 Z" fill="#f5f5f5" stroke="#1e1e1e" stroke-width="1" stroke-linejoin="round"/><path d="M10.67,21.33 L11.07,17.77 L12.25,14.39 L14.16,11.36 L16.69,8.82 L19.72,6.92 L23.11,5.73 L26.67,5.33 L90.67,5.33 L94.23,5.73 L97.61,6.92 L100.64,8.82 L103.18,11.36 L105.08,14.39 L106.27,17.77 L106.67,21.33 L106.67,96.00 L106.27,99.56 L105.08,102.94 L103.18,105.98 L100.64,108.51 L97.61,110.42 L94.23,111.60 L90.67,112.00 L26.67,112.00 L23.11,111.60 L19.72,110.42 L16.69,108.51 L14.16,105.98 L12.25,102.94 L11.07,99.56 L10.67,96.00 L10.67,21.33 Z" fill="#e3e3e3" stroke="#1e1e1e" stroke-width="1" stroke-linejoin="round" opacity="0.2"/><path d="M26.67,5.33 L23.11,5.73 L19.72,6.92 L16.69,8.82 L14.16,11.36 L12.25,14.39 L11.07,17.77 L10.67,21.33 L10.67,96.00 L11.07,99.56 L12.25,102.94 L14.16,105.98 L16.69,108.51 L19.72,110.42 L23.11,111.60 L26.67,112.00 L90.67,112.00 L94.23,111.60 L97.61,110.42 L100.64,108.51 L103.18,105.98 L105.08,102.94 L106.27,99.56 L106.67,96.00 L106.67,21.33 L106.27,17.77 L105.08,14.39 L103.18,11.36 L100.64,8.82 L97.61,6.92 L94.23,5.73 L90.67,5.33 L26.67,5.33 Z" fill="#a2a2a2" stroke="#1e1e1e" stroke-width="1" stroke-linejoin="round"/><path d="M90.67,10.67 L26.67,10.67 L23.91,11.03 L21.33,12.10 L19.12,13.79 L17.43,16.00 L16.36,18.57 L16.00,21.33 L16.00,96.00 L16.36,98.76 L17.43,101.33 L19.12,103.54 L21.33,105.24 L23.91,106.30 L26.67,106.67 L90.67,106.67 L93.43,106.30 L96.00,105.24 L98.21,103.54 L99.90,101.33 L100.97,98.76 L101.33,96.00 L101.33,21.33 L100.97,18.57 L99.90,16.00 L98.21,13.79 L96.00,12.10 L93.43,11.03 L90.67,10.67 Z" fill="#f1f1f1" stroke="#1e1e1e" stroke-width="1" stroke-linejoin="round"/><path d="M32.00,26.67 L29.96,27.07 L28.23,28.23 L27.07,29.96 L26.67,32.00 L26.67,48.00 L27.07,50.04 L28.23,51.77 L29.96,52.93 L32.00,53.33 L48.00,53.33 L50.04,52.93 L51.77,51.77 L52.93,50.04 L53.33,48.00 L53.33,32.00 L52.93,29.96 L51.77,28.23 L50.04,27.07 L48.00,26.67 L32.00,26.67 Z" fill="#b57400" stroke="#1e1e1e" stroke-width="1" stroke-linejoin="round"/><path d="M64.00,34.67 L64.36,33.33 L65.33,32.36 L66.67,32.00 L88.00,32.00 L89.33,32.36 L90.31,33.33 L90.67,34.67 L90.31,36.00 L89.33,36.98 L88.00,37.33 L66.67,37.33 L65.33,36.98 L64.36,36.00 L64.00,34.67 Z" fill="#b57400" stroke="#b57400" stroke-width="1" stroke-linejoin="round"/><path d="M64.00,50.67 L64.36,49.33 L65.33,48.36 L66.67,48.00 L88.00,48.00 L89.33,48.36 L90.31,49.33 L90.67,50.67 L90.31,52.00 L89.33,52.98 L88.00,53.33 L66.67,53.33 L65.33,52.98 L64.36,52.00 L64.00,50.67 Z" fill="#b57400" stroke="#b57400" stroke-width="1" stroke-linejoin="round"/><path d="M29.33,64.00 L28.00,64.36 L27.02,65.33 L26.67,66.67 L27.02,68.00 L28.00,68.98 L29.33,69.33 L88.00,69.33 L89.33,68.98 L90.31,68.00 L90.67,66.67 L90.31,65.33 L89.33,64.36 L88.00,64.00 L29.33,64.00 Z" fill="#b57400" stroke="#b57400" stroke-width="1" stroke-linejoin="round"/><path d="M26.67,82.67 L27.02,81.33 L28.00,80.36 L29.33,80.00 L88.00,80.00 L89.33,80.36 L90.31,81.33 L90.67,82.67 L90.31,84.00 L89.33,84.98 L88.00,85.33 L29.33,85.33 L28.00,84.98 L27.02,84.00 L26.67,82.67 Z" fill="#b57400" stroke="#b57400" stroke-width="1" stroke-linejoin="round"/></svg>