<svg xmlns="http://www.w3.org/2000/svg" viewBox="19.33 19.33 217.33 217.33"><path d="M82.97,234.67 L81.37,234.49 L79.90,233.98 L78.59,233.19 L77.48,232.15 L76.61,230.90 L76.02,229.49 L75.73,227.96 L75.79,226.35 L76.81,220.38 L78.09,214.52 L79.62,208.77 L81.40,203.13 L83.42,197.61 L85.68,192.22 L88.16,186.95 L90.87,181.83 L93.78,176.85 L96.91,172.01 L100.24,167.33 L103.76,162.82 L107.47,158.46 L111.36,154.28 L115.42,150.27 L119.66,146.45 L124.06,142.81 L128.61,139.37 L133.31,136.12 L138.15,133.09 L143.13,130.26 L148.24,127.65 L153.47,125.26 L158.81,123.09 L164.27,121.17 L169.83,119.47 L175.48,118.03 L181.23,116.83 L187.05,115.89 L192.96,115.22 L198.93,114.80 L204.97,114.67 L218.06,114.67 L221.30,114.42 L224.26,113.69 L226.89,112.51 L229.16,110.88 L231.01,108.83 L232.39,106.39 L233.25,103.56 L233.55,100.37 L234.30,96.85 L234.30,159.09 L234.21,160.91 L233.94,162.67 L233.50,164.38 L232.91,166.01 L232.16,167.56 L231.27,169.03 L230.25,170.39 L229.11,171.65 L227.85,172.80 L226.49,173.82 L225.03,174.71 L223.48,175.46 L221.85,176.06 L220.15,176.49 L218.39,176.76 L216.58,176.85 L209.23,176.85 L202.05,177.28 L194.98,178.52 L188.09,180.58 L181.49,183.42 L175.26,187.00 L169.49,191.27 L164.24,196.19 L159.60,201.67 L155.63,207.66 L152.37,214.06 L149.87,220.80 L147.53,228.37 L146.99,229.72 L146.26,230.93 L145.36,232.01 L144.32,232.92 L143.14,233.66 L141.86,234.21 L140.50,234.55 L139.07,234.67 L82.97,234.67 Z" fill="#0b6813" stroke="#1e1e1e" stroke-width="1" stroke-linejoin="round"/><path d="M82.97,234.67 L81.37,234.49 L79.90,233.98 L78.59,233.19 L77.48,232.15 L76.61,230.90 L76.02,229.49 L75.73,227.96 L75.79,226.35 L76.81,220.38 L78.09,214.52 L79.62,208.77 L81.40,203.13 L83.42,197.61 L85.68,192.22 L88.16,186.95 L90.87,181.83 L93.78,176.85 L96.91,172.01 L100.24,167.33 L103.76,162.82 L107.47,158.46 L111.36,154.28 L115.42,150.27 L119.66,146.45 L124.06,142.81 L128.61,139.37 L133.31,136.12 L138.15,133.09 L143.13,130.26 L148.24,127.65 L153.47,125.26 L158.81,123.09 L164.27,121.17 L169.83,119.47 L175.48,118.03 L181.23,116.83 L187.05,115.89 L192.96,115.22 L198.93,114.80 L204.97,114.67 L218.06,114.67 L221.30,114.42 L224.26,113.69 L226.89,112.51 L229.16,110.88 L231.01,108.83 L232.39,106.39 L233.25,103.56 L233.55,100.37 L234.30,96.85 L234.30,159.09 L234.21,160.91 L233.94,162.67 L233.50,164.38 L232.91,166.01 L232.16,167.56 L231.27,169.03 L230.25,170.39 L229.11,171.65 L227.85,172.80 L226.49,173.82 L225.03,174.71 L223.48,175.46 L221.85,176.06 L220.15,176.49 L218.39,176.76 L216.58,176.85 L209.23,176.85 L202.05,177.28 L194.98,178.52 L188.09,180.58 L181.49,183.42 L175.26,187.00 L169.49,191.27 L164.24,196.19 L159.60,201.67 L155.63,207.66 L152.37,214.06 L149.87,220.80 L147.53,228.37 L146.99,229.72 L146.26,230.93 L145.36,232.01 L144.32,232.92 L143.14,233.66 L141.86,234.21 L140.50,234.55 L139.07,234.67 L82.97,234.67 Z" fill="#0f5196" stroke="#1e1e1e" stroke-width="1" stroke-linejoin="round"/><path d="M30.22,163.57 L28.44,163.39 L26.77,162.87 L25.26,162.05 L23.94,160.96 L22.86,159.64 L22.03,158.13 L21.51,156.46 L21.33,154.67 L21.33,101.33 L21.51,99.54 L22.03,97.87 L22.86,96.36 L23.94,95.04 L25.26,93.95 L26.77,93.13 L28.44,92.61 L30.22,92.43 L189.90,92.43 L191.69,92.61 L193.36,93.13 L194.87,93.95 L196.19,95.04 L197.27,96.36 L198.09,97.87 L198.61,99.54 L198.79,101.33 L198.79,154.67 L198.61,156.46 L198.09,158.13 L197.27,159.64 L196.19,160.96 L194.87,162.05 L193.36,162.87 L191.69,163.39 L189.90,163.57 L30.22,163.57 Z" fill="#349a0f" stroke="#1e1e1e" stroke-width="1" stroke-linejoin="round"/><path d="M30.22,163.57 L28.44,163.39 L26.77,162.87 L25.26,162.05 L23.94,160.96 L22.86,159.64 L22.03,158.13 L21.51,156.46 L21.33,154.67 L21.33,101.33 L21.51,99.54 L22.03,97.87 L22.86,96.36 L23.94,95.04 L25.26,93.95 L26.77,93.13 L28.44,92.61 L30.22,92.43 L189.90,92.43 L191.69,92.61 L193.36,93.13 L194.87,93.95 L196.19,95.04 L197.27,96.36 L198.09,97.87 L198.61,99.54 L198.79,101.33 L198.79,154.67 L198.61,156.46 L198.09,158.13 L197.27,159.64 L196.19,160.96 L194.87,162.05 L193.36,162.87 L191.69,163.39 L189.90,163.57 L30.22,163.57 Z" fill="#000000" stroke="#1e1e1e" stroke-width="1" stroke-linejoin="round"/><path d="M83.08,21.33 L81.45,21.51 L79.96,22.03 L78.64,22.83 L77.52,23.89 L76.63,25.15 L76.03,26.58 L75.73,28.13 L75.79,29.76 L76.81,35.83 L78.10,41.80 L79.64,47.66 L81.44,53.41 L83.49,59.03 L85.77,64.52 L88.29,69.88 L91.03,75.10 L93.98,80.17 L97.16,85.09 L100.53,89.86 L104.11,94.47 L107.87,98.90 L111.82,103.16 L115.96,107.24 L120.26,111.14 L124.73,114.84 L129.35,118.35 L134.13,121.66 L139.05,124.75 L144.12,127.63 L149.31,130.29 L154.63,132.73 L160.07,134.93 L165.62,136.90 L171.28,138.62 L177.03,140.09 L182.88,141.31 L188.81,142.27 L194.82,142.96 L200.90,143.38 L207.05,143.52 L218.06,143.52 L221.67,143.93 L225.09,145.13 L228.16,147.06 L230.72,149.63 L232.65,152.70 L233.84,156.13 L234.25,159.73 L234.25,96.91 L234.15,95.09 L233.89,93.33 L233.45,91.62 L232.85,89.99 L232.11,88.44 L231.22,86.97 L230.20,85.61 L229.06,84.35 L227.80,83.20 L226.43,82.18 L224.97,81.29 L223.42,80.54 L221.79,79.94 L220.10,79.51 L218.34,79.24 L216.52,79.15 L209.17,79.15 L204.10,78.94 L199.13,78.33 L194.27,77.33 L189.53,75.96 L184.95,74.22 L180.54,72.13 L176.31,69.71 L172.29,66.97 L168.50,63.93 L164.95,60.59 L161.66,56.97 L158.66,53.09 L155.95,48.96 L153.57,44.59 L151.52,40.00 L149.82,35.20 L147.48,27.63 L146.94,26.28 L146.21,25.07 L145.31,23.99 L144.27,23.08 L143.10,22.34 L141.82,21.79 L140.45,21.45 L139.02,21.33 L83.08,21.33 Z" fill="#74be47" stroke="#1e1e1e" stroke-width="1" stroke-linejoin="round"/><path d="M216.52,79.09 L209.17,79.09 L204.48,78.92 L199.86,78.39 L195.34,77.52 L190.93,76.33 L186.64,74.83 L182.49,73.02 L178.50,70.92 L174.68,68.53 L174.68,139.47 L182.55,141.20 L190.59,142.47 L198.77,143.25 L207.09,143.52 L218.11,143.52 L221.72,143.93 L225.14,145.13 L228.21,147.06 L230.77,149.63 L232.70,152.70 L233.89,156.13 L234.29,159.73 L234.29,96.91 L234.20,95.09 L233.93,93.33 L233.50,91.62 L232.90,89.99 L232.16,88.44 L231.27,86.97 L230.25,85.61 L229.10,84.35 L227.85,83.20 L226.48,82.18 L225.02,81.29 L223.47,80.54 L221.84,79.94 L220.14,79.51 L218.38,79.24 L216.57,79.15 L216.52,79.09 Z" fill="#e5fac1" stroke="#1e1e1e" stroke-width="1" stroke-linejoin="round" opacity="0.4"/><path d="M83.50,21.33 L81.88,21.51 L80.38,22.03 L79.06,22.83 L77.94,23.89 L77.06,25.15 L76.45,26.58 L76.15,28.13 L76.21,29.76 L77.23,35.83 L78.52,41.80 L80.07,47.66 L81.86,53.41 L83.91,59.03 L86.19,64.52 L88.71,69.88 L91.45,75.10 L94.40,80.17 L97.58,85.09 L100.95,89.86 L104.53,94.47 L108.29,98.90 L112.24,103.16 L116.37,107.24 L120.68,111.14 L125.14,114.84 L129.77,118.35 L134.55,121.66 L139.47,124.75 L144.53,127.63 L149.73,130.29 L155.05,132.73 L160.49,134.93 L166.04,136.90 L171.69,138.62 L177.45,140.09 L183.29,141.31 L189.22,142.27 L195.23,142.96 L201.31,143.38 L207.46,143.52 L218.49,143.52 L222.09,143.93 L225.51,145.13 L228.58,147.06 L231.14,149.63 L233.07,152.70 L234.27,156.13 L234.67,159.73 L234.67,96.91 L234.58,95.09 L234.31,93.33 L233.87,91.62 L233.27,89.99 L232.53,88.44 L231.64,86.97 L230.62,85.61 L229.48,84.35 L228.22,83.20 L226.85,82.18 L225.39,81.29 L223.84,80.54 L222.21,79.94 L220.51,79.51 L218.75,79.24 L216.94,79.15 L209.60,79.15 L204.53,78.94 L199.56,78.33 L194.69,77.33 L189.96,75.96 L185.38,74.22 L180.97,72.13 L176.74,69.71 L172.72,66.97 L168.93,63.93 L165.38,60.59 L162.09,56.97 L159.08,53.09 L156.38,48.96 L153.99,44.59 L151.94,40.00 L150.25,35.20 L147.91,27.63 L147.37,26.28 L146.64,25.07 L145.74,23.99 L144.70,23.08 L143.52,22.34 L142.24,21.79 L140.88,21.45 L139.45,21.33 L83.50,21.33 Z" fill="#fed500" stroke="#1e1e1e" stroke-width="1" stroke-linejoin="round" opacity="0.7"/></svg>