<svg xmlns="http://www.w3.org/2000/svg" viewBox="19.62 7.60 80.80 100.00"><path d="M60.01,9.60 L55.85,9.96 L51.81,11.05 L48.01,12.82 L44.59,15.21 L41.63,18.17 L39.23,21.60 L37.46,25.39 L36.38,29.43 L36.01,33.60 L36.38,37.77 L37.46,41.81 L39.23,45.60 L41.63,49.03 L44.59,51.99 L48.01,54.38 L51.81,56.15 L55.85,57.24 L60.01,57.60 L64.18,57.24 L68.22,56.15 L72.01,54.38 L75.44,51.99 L78.40,49.03 L80.80,45.60 L82.57,41.81 L83.65,37.77 L84.01,33.60 L83.65,29.43 L82.57,25.39 L80.80,21.60 L78.40,18.17 L75.44,15.21 L72.01,12.82 L68.22,11.05 L64.18,9.96 L60.01,9.60 Z" fill="#16806e" stroke="#1e1e1e" stroke-width="1" stroke-linejoin="round"/><path d="M40.81,33.60 L41.18,29.85 L42.28,26.25 L44.05,22.93 L46.44,20.02 L49.35,17.64 L52.67,15.86 L56.27,14.77 L60.01,14.40 L63.76,14.77 L67.36,15.86 L70.68,17.64 L73.59,20.02 L75.98,22.93 L77.75,26.25 L78.85,29.85 L79.21,33.60 L78.85,37.35 L77.75,40.95 L75.98,44.27 L73.59,47.18 L70.68,49.56 L67.36,51.34 L63.76,52.43 L60.01,52.80 L56.27,52.43 L52.67,51.34 L49.35,49.56 L46.44,47.18 L44.05,44.27 L42.28,40.95 L41.18,37.35 L40.81,33.60 Z" fill="#ffffff" stroke="#1e1e1e" stroke-width="1" stroke-linejoin="round"/><path d="M87.62,67.20 L90.41,67.57 L93.02,68.65 L95.25,70.36 L96.97,72.60 L98.05,75.20 L98.41,78.00 L98.41,82.40 L98.13,85.11 L97.30,87.71 L95.95,90.08 L94.51,91.97 L92.95,93.73 L91.29,95.37 L89.51,96.89 L87.63,98.28 L85.64,99.55 L83.55,100.71 L81.35,101.73 L79.04,102.64 L76.63,103.43 L71.50,104.64 L65.95,105.36 L60.00,105.60 L54.05,105.36 L48.50,104.63 L43.37,103.42 L40.96,102.64 L38.65,101.73 L36.45,100.70 L34.36,99.55 L32.37,98.27 L30.50,96.88 L28.73,95.36 L27.06,93.72 L25.51,91.95 L24.07,90.07 L22.73,87.70 L21.90,85.11 L21.62,82.41 L21.62,77.99 L21.99,75.20 L23.07,72.60 L24.78,70.36 L27.01,68.65 L29.61,67.57 L32.40,67.20 L87.61,67.20 L87.62,67.20 Z" fill="#16806e" stroke="#1e1e1e" stroke-width="1" stroke-linejoin="round"/><path d="M87.62,72.00 L88.83,72.12 L89.95,72.47 L90.97,73.02 L91.86,73.76 L92.59,74.64 L93.14,75.66 L93.49,76.79 L93.61,78.00 L93.61,82.40 L93.51,83.70 L93.21,84.97 L92.72,86.17 L92.05,87.29 L89.51,90.38 L86.57,93.09 L83.22,95.41 L79.45,97.32 L75.26,98.83 L70.62,99.92 L65.54,100.58 L60.00,100.80 L54.46,100.58 L49.37,99.92 L44.74,98.83 L40.55,97.32 L36.78,95.40 L33.44,93.08 L30.51,90.37 L27.97,87.28 L27.12,85.77 L26.59,84.13 L26.41,82.41 L26.41,77.99 L26.54,76.78 L26.89,75.66 L27.44,74.64 L28.17,73.75 L29.06,73.02 L30.08,72.47 L31.20,72.12 L32.41,72.00 L87.62,72.00 L87.62,72.00 Z" fill="#ffffff" stroke="#1e1e1e" stroke-width="1" stroke-linejoin="round"/></svg>