<svg xmlns="http://www.w3.org/2000/svg" viewBox="6.34 2.17 95.66 100.00"><path d="M16.68,25.02 L16.99,22.24 L17.92,19.59 L19.41,17.22 L21.39,15.24 L23.76,13.75 L26.41,12.82 L29.19,12.51 L79.23,12.51 L82.02,12.82 L84.66,13.75 L87.03,15.24 L89.01,17.22 L90.50,19.59 L91.43,22.24 L91.74,25.02 L91.74,72.98 L91.46,76.57 L90.62,80.07 L89.24,83.39 L87.36,86.46 L85.03,89.20 L82.29,91.53 L79.22,93.41 L75.90,94.79 L72.40,95.63 L68.81,95.91 L29.19,95.91 L26.41,95.60 L23.76,94.68 L21.39,93.18 L19.41,91.20 L17.92,88.83 L16.99,86.19 L16.68,83.40 L16.68,25.02 Z" fill="#f5f5f5" stroke="#1e1e1e" stroke-width="1" stroke-linejoin="round"/><path d="M16.68,25.02 L16.99,22.24 L17.92,19.59 L19.41,17.22 L21.39,15.24 L23.76,13.75 L26.41,12.82 L29.19,12.51 L79.23,12.51 L82.02,12.82 L84.66,13.75 L87.03,15.24 L89.01,17.22 L90.50,19.59 L91.43,22.24 L91.74,25.02 L91.74,72.98 L91.46,76.57 L90.62,80.07 L89.24,83.39 L87.36,86.46 L85.03,89.20 L82.29,91.53 L79.22,93.41 L75.90,94.79 L72.40,95.63 L68.81,95.91 L29.19,95.91 L26.41,95.60 L23.76,94.68 L21.39,93.18 L19.41,91.20 L17.92,88.83 L16.99,86.19 L16.68,83.40 L16.68,25.02 Z" fill="#e3e3e3" stroke="#1e1e1e" stroke-width="1" stroke-linejoin="round" opacity="0.2"/><path d="M29.19,12.51 L26.41,12.82 L23.76,13.75 L21.39,15.24 L19.41,17.22 L17.92,19.59 L16.99,22.24 L16.68,25.02 L16.68,83.40 L16.99,86.19 L17.92,88.83 L19.41,91.20 L21.39,93.18 L23.76,94.68 L26.41,95.60 L29.19,95.91 L68.81,95.91 L72.40,95.63 L75.90,94.79 L79.22,93.41 L82.29,91.53 L85.03,89.20 L87.36,86.46 L89.24,83.39 L90.62,80.07 L91.46,76.57 L91.74,72.98 L91.74,25.02 L91.43,22.24 L90.50,19.59 L89.01,17.22 L87.03,15.24 L84.66,13.75 L82.02,12.82 L79.23,12.51 L29.19,12.51 Z" fill="#a2a2a2" stroke="#1e1e1e" stroke-width="1" stroke-linejoin="round"/><path d="M79.23,16.68 L29.19,16.68 L27.03,16.96 L25.02,17.80 L23.29,19.12 L21.97,20.85 L21.14,22.86 L20.85,25.02 L20.85,83.40 L21.14,85.56 L21.97,87.57 L23.29,89.30 L25.02,90.63 L27.03,91.46 L29.19,91.74 L68.81,91.74 L72.07,91.46 L75.23,90.61 L78.19,89.23 L80.87,87.35 L83.18,85.04 L85.06,82.36 L86.44,79.40 L87.29,76.24 L87.57,72.98 L87.57,25.02 L87.29,22.86 L86.46,20.85 L85.13,19.12 L83.40,17.80 L81.39,16.96 L79.23,16.68 Z" fill="#f1f1f1" stroke="#1e1e1e" stroke-width="1" stroke-linejoin="round"/><path d="M8.34,16.68 L8.65,13.90 L9.58,11.25 L11.07,8.88 L13.05,6.90 L15.42,5.41 L18.07,4.48 L20.85,4.17 L70.89,4.17 L73.68,4.48 L76.32,5.41 L78.69,6.90 L80.67,8.88 L82.16,11.25 L83.09,13.90 L83.40,16.68 L83.40,75.06 L83.09,77.85 L82.16,80.49 L80.67,82.86 L78.69,84.84 L76.32,86.33 L73.68,87.26 L70.89,87.57 L20.85,87.57 L18.07,87.26 L15.42,86.33 L13.05,84.84 L11.07,82.86 L9.58,80.49 L8.65,77.85 L8.34,75.06 L8.34,16.68 Z" fill="#f5f5f5" stroke="#1e1e1e" stroke-width="1" stroke-linejoin="round"/><path d="M8.34,16.68 L8.65,13.90 L9.58,11.25 L11.07,8.88 L13.05,6.90 L15.42,5.41 L18.07,4.48 L20.85,4.17 L70.89,4.17 L73.68,4.48 L76.32,5.41 L78.69,6.90 L80.67,8.88 L82.16,11.25 L83.09,13.90 L83.40,16.68 L83.40,75.06 L83.09,77.85 L82.16,80.49 L80.67,82.86 L78.69,84.84 L76.32,86.33 L73.68,87.26 L70.89,87.57 L20.85,87.57 L18.07,87.26 L15.42,86.33 L13.05,84.84 L11.07,82.86 L9.58,80.49 L8.65,77.85 L8.34,75.06 L8.34,16.68 Z" fill="#e3e3e3" stroke="#1e1e1e" stroke-width="1" stroke-linejoin="round" opacity="0.2"/><path d="M20.85,4.17 L18.07,4.48 L15.42,5.41 L13.05,6.90 L11.07,8.88 L9.58,11.25 L8.65,13.90 L8.34,16.68 L8.34,75.06 L8.65,77.85 L9.58,80.49 L11.07,82.86 L13.05,84.84 L15.42,86.33 L18.07,87.26 L20.85,87.57 L70.89,87.57 L73.68,87.26 L76.32,86.33 L78.69,84.84 L80.67,82.86 L82.16,80.49 L83.09,77.85 L83.40,75.06 L83.40,16.68 L83.09,13.90 L82.16,11.25 L80.67,8.88 L78.69,6.90 L76.32,5.41 L73.68,4.48 L70.89,4.17 L20.85,4.17 Z" fill="#a2a2a2" stroke="#1e1e1e" stroke-width="1" stroke-linejoin="round"/><path d="M70.89,8.34 L20.85,8.34 L18.69,8.62 L16.68,9.46 L14.95,10.78 L13.63,12.51 L12.79,14.52 L12.51,16.68 L12.51,75.06 L12.79,77.22 L13.63,79.23 L14.95,80.96 L16.68,82.29 L18.69,83.12 L20.85,83.40 L70.89,83.40 L73.05,83.12 L75.06,82.29 L76.79,80.96 L78.12,79.23 L78.95,77.22 L79.23,75.06 L79.23,16.68 L78.95,14.52 L78.12,12.51 L76.79,10.78 L75.06,9.46 L73.05,8.62 L70.89,8.34 Z" fill="#f1f1f1" stroke="#1e1e1e" stroke-width="1" stroke-linejoin="round"/><path d="M98.25,64.39 L97.30,63.61 L96.23,63.03 L95.06,62.68 L93.83,62.55 L72.98,62.55 L71.80,62.67 L70.68,63.01 L70.10,63.30 L69.56,63.64 L68.66,64.39 L67.72,65.56 L67.56,65.85 L67.22,66.43 L66.93,67.26 L66.81,67.77 L66.81,68.02 L66.73,69.02 L66.81,70.06 L67.06,70.95 L67.43,71.78 L67.91,72.55 L68.52,73.23 L68.93,73.65 L68.05,74.15 L67.26,74.81 L64.30,77.77 L63.16,79.36 L62.55,81.22 L62.55,83.17 L63.16,85.03 L64.30,86.61 L65.13,87.30 L66.06,87.82 L64.30,89.58 L63.15,91.16 L62.55,93.02 L62.55,94.97 L63.15,96.83 L64.30,98.42 L65.89,99.57 L67.75,100.17 L69.70,100.17 L71.56,99.57 L73.14,98.42 L74.90,96.66 L75.42,97.59 L76.11,98.42 L77.69,99.56 L79.55,100.17 L81.50,100.17 L83.36,99.56 L84.95,98.42 L87.91,95.46 L88.55,94.65 L89.03,93.75 L89.37,94.08 L90.07,94.69 L90.84,95.18 L91.67,95.56 L92.54,95.79 L93.37,95.91 L93.79,95.91 L95.02,95.79 L96.25,95.41 L97.29,94.83 L97.83,94.41 L98.08,94.16 L98.71,93.45 L98.92,93.12 L99.39,92.31 L99.72,91.45 L99.93,90.55 L100.00,89.62 L100.00,68.81 L99.88,67.58 L99.52,66.41 L98.95,65.34 L98.17,64.39 L98.25,64.39 Z" fill="#f5f5f5" stroke="#1e1e1e" stroke-width="1" stroke-linejoin="round"/><path d="M72.99,66.72 L93.85,66.72 L94.89,67.00 L95.65,67.77 L95.93,68.81 L95.93,89.66 L95.84,90.26 L95.58,90.82 L95.51,90.91 L95.13,91.31 L94.65,91.59 L93.85,91.74 L93.05,91.59 L92.37,91.14 L71.52,70.28 L71.03,69.52 L70.92,68.61 L71.20,67.74 L71.24,67.68 L71.30,67.59 L72.04,66.95 L72.99,66.72 L72.99,66.72 Z" fill="#45903e" stroke="#1e1e1e" stroke-width="1" stroke-linejoin="round"/><path d="M73.23,77.79 L73.77,78.72 L73.77,79.80 L73.23,80.73 L70.28,83.68 L69.35,84.20 L68.28,84.19 L67.36,83.66 L66.82,82.73 L66.82,81.67 L67.34,80.73 L70.28,77.79 L71.22,77.25 L72.30,77.25 L73.23,77.79 L73.23,77.79 Z" fill="#45903e" stroke="#45903e" stroke-width="1" stroke-linejoin="round"/><path d="M85.03,89.58 L85.57,90.52 L85.57,91.60 L85.03,92.53 L82.08,95.48 L81.14,96.04 L80.05,96.05 L79.10,95.51 L78.56,94.56 L78.57,93.47 L79.13,92.53 L82.08,89.58 L83.01,89.04 L84.09,89.04 L85.03,89.58 L85.03,89.58 Z" fill="#45903e" stroke="#45903e" stroke-width="1" stroke-linejoin="round"/><path d="M79.13,83.69 L79.67,84.62 L79.67,85.70 L79.13,86.64 L70.28,95.48 L69.34,96.04 L68.25,96.05 L67.31,95.51 L66.76,94.56 L66.77,93.47 L67.33,92.53 L76.18,83.69 L77.12,83.15 L78.19,83.15 L79.13,83.69 Z" fill="#45903e" stroke="#45903e" stroke-width="1" stroke-linejoin="round"/></svg>