<svg xmlns="http://www.w3.org/2000/svg" viewBox="7.60 7.60 99.94 100.00"><path d="M9.60,20.80 L9.82,18.61 L10.45,16.51 L11.49,14.58 L12.88,12.88 L14.58,11.49 L16.51,10.45 L18.61,9.82 L20.80,9.60 L81.60,9.60 L83.79,9.82 L85.89,10.45 L87.82,11.49 L89.52,12.88 L90.91,14.58 L91.95,16.51 L92.58,18.61 L92.80,20.80 L92.80,81.60 L92.58,83.79 L91.95,85.89 L90.91,87.82 L89.52,89.52 L87.82,90.91 L85.89,91.95 L83.79,92.58 L81.60,92.80 L20.80,92.80 L18.61,92.58 L16.51,91.95 L14.58,90.91 L12.88,89.52 L11.49,87.82 L10.45,85.89 L9.82,83.79 L9.60,81.60 L9.60,20.80 Z" fill="#f5f5f5" stroke="#1e1e1e" stroke-width="1" stroke-linejoin="round"/><path d="M9.60,20.80 L9.82,18.61 L10.45,16.51 L11.49,14.58 L12.88,12.88 L14.58,11.49 L16.51,10.45 L18.61,9.82 L20.80,9.60 L81.60,9.60 L83.79,9.82 L85.89,10.45 L87.82,11.49 L89.52,12.88 L90.91,14.58 L91.95,16.51 L92.58,18.61 L92.80,20.80 L92.80,81.60 L92.58,83.79 L91.95,85.89 L90.91,87.82 L89.52,89.52 L87.82,90.91 L85.89,91.95 L83.79,92.58 L81.60,92.80 L20.80,92.80 L18.61,92.58 L16.51,91.95 L14.58,90.91 L12.88,89.52 L11.49,87.82 L10.45,85.89 L9.82,83.79 L9.60,81.60 L9.60,20.80 Z" fill="#e3e3e3" stroke="#1e1e1e" stroke-width="1" stroke-linejoin="round" opacity="0.2"/><path d="M20.80,9.60 L18.61,9.82 L16.51,10.45 L14.58,11.49 L12.88,12.88 L11.49,14.58 L10.45,16.51 L9.82,18.61 L9.60,20.80 L9.60,81.60 L9.82,83.79 L10.45,85.89 L11.49,87.82 L12.88,89.52 L14.58,90.91 L16.51,91.95 L18.61,92.58 L20.80,92.80 L81.60,92.80 L83.79,92.58 L85.89,91.95 L87.82,90.91 L89.52,89.52 L90.91,87.82 L91.95,85.89 L92.58,83.79 L92.80,81.60 L92.80,20.80 L92.58,18.61 L91.95,16.51 L90.91,14.58 L89.52,12.88 L87.82,11.49 L85.89,10.45 L83.79,9.82 L81.60,9.60 L20.80,9.60 Z" fill="#a2a2a2" stroke="#1e1e1e" stroke-width="1" stroke-linejoin="round"/><path d="M81.60,12.80 L20.80,12.80 L19.02,13.00 L17.33,13.59 L15.81,14.55 L14.55,15.81 L13.59,17.33 L13.00,19.02 L12.80,20.80 L12.80,81.60 L13.00,83.38 L13.59,85.07 L14.55,86.59 L15.81,87.85 L17.33,88.81 L19.02,89.40 L20.80,89.60 L81.60,89.60 L83.38,89.40 L85.07,88.81 L86.59,87.85 L87.85,86.59 L88.81,85.07 L89.40,83.38 L89.60,81.60 L89.60,20.80 L89.40,19.02 L88.81,17.33 L87.85,15.81 L86.59,14.55 L85.07,13.59 L83.38,13.00 L81.60,12.80 Z" fill="#f1f1f1" stroke="#1e1e1e" stroke-width="1" stroke-linejoin="round"/><path d="M36.00,28.80 L36.92,28.98 L37.70,29.50 L38.22,30.28 L38.40,31.20 L38.40,71.20 L38.16,72.24 L37.50,73.08 L36.53,73.54 L35.47,73.54 L34.50,73.08 L33.84,72.24 L33.60,71.20 L33.60,31.20 L33.78,30.28 L34.30,29.50 L35.08,28.98 L36.00,28.80 Z" fill="#b57400" stroke="#b57400" stroke-width="1" stroke-linejoin="round"/><path d="M48.80,71.20 L48.80,40.80 L49.04,39.76 L49.70,38.92 L50.67,38.46 L51.73,38.46 L52.70,38.92 L53.36,39.76 L53.60,40.80 L53.60,71.20 L53.36,72.24 L52.70,73.08 L51.73,73.54 L50.67,73.54 L49.70,73.08 L49.04,72.24 L48.80,71.20 Z" fill="#b57400" stroke="#b57400" stroke-width="1" stroke-linejoin="round"/><path d="M66.40,48.00 L67.32,48.18 L68.10,48.70 L68.62,49.48 L68.80,50.40 L68.80,71.20 L68.56,72.24 L67.90,73.08 L66.93,73.54 L65.87,73.54 L64.90,73.08 L64.24,72.24 L64.00,71.20 L64.00,50.40 L64.18,49.48 L64.70,48.70 L65.48,48.18 L66.40,48.00 Z" fill="#b57400" stroke="#b57400" stroke-width="1" stroke-linejoin="round"/><path d="M80.00,105.60 L83.49,105.36 L86.91,104.65 L90.20,103.48 L93.30,101.87 L96.16,99.86 L98.71,97.47 L100.91,94.76 L102.73,91.78 L104.12,88.57 L105.06,85.21 L105.54,81.75 L105.54,78.25 L105.06,74.79 L104.12,71.43 L102.73,68.22 L100.91,65.24 L98.71,62.53 L96.16,60.14 L93.30,58.13 L90.20,56.52 L86.91,55.35 L83.49,54.64 L80.00,54.40 L76.51,54.64 L73.09,55.35 L69.80,56.52 L66.70,58.13 L63.84,60.14 L61.29,62.53 L59.09,65.24 L57.27,68.22 L55.88,71.43 L54.94,74.79 L54.46,78.25 L54.46,81.75 L54.94,85.21 L55.88,88.57 L57.27,91.78 L59.09,94.76 L61.29,97.47 L63.84,99.86 L66.70,101.87 L69.80,103.48 L73.09,104.65 L76.51,105.36 L80.00,105.60 Z" fill="#f5f5f5" stroke="#1e1e1e" stroke-width="1" stroke-linejoin="round"/><path d="M95.84,64.16 L98.02,66.70 L99.81,69.53 L101.14,72.60 L102.01,75.84 L102.39,79.16 L102.26,82.51 L101.64,85.80 L100.53,88.96 L98.97,91.92 L96.98,94.61 L94.61,96.98 L91.92,98.97 L88.96,100.53 L85.80,101.64 L82.51,102.26 L79.16,102.39 L75.84,102.01 L72.60,101.14 L69.53,99.81 L66.70,98.02 L64.16,95.84 L61.98,93.30 L60.19,90.47 L58.86,87.40 L57.99,84.16 L57.61,80.84 L57.74,77.49 L58.36,74.20 L59.47,71.04 L61.03,68.08 L63.02,65.39 L65.39,63.02 L68.08,61.03 L71.04,59.47 L74.20,58.36 L77.49,57.74 L80.84,57.61 L84.16,57.99 L87.40,58.86 L90.47,60.19 L93.30,61.98 L95.84,64.16 L95.84,64.16 Z" fill="#b57400" stroke="#1e1e1e" stroke-width="1" stroke-linejoin="round"/><path d="M94.66,67.60 L96.42,70.04 L97.78,72.72 L98.70,75.58 L99.17,78.55 L99.16,81.56 L98.69,84.53 L97.76,87.39 L96.39,90.06 L94.62,92.50 L92.50,94.62 L90.06,96.39 L87.39,97.76 L84.53,98.69 L81.56,99.16 L78.55,99.17 L75.58,98.70 L72.72,97.78 L70.04,96.42 L67.60,94.66 L94.66,67.60 Z" fill="#f5f5f5" stroke="#1e1e1e" stroke-width="1" stroke-linejoin="round"/><path d="M92.40,65.34 L65.34,92.40 L63.58,89.96 L62.22,87.28 L61.30,84.42 L60.83,81.45 L60.84,78.44 L61.31,75.47 L62.24,72.61 L63.61,69.94 L65.38,67.50 L67.50,65.38 L69.94,63.61 L72.61,62.24 L75.47,61.31 L78.44,60.84 L81.45,60.83 L84.42,61.30 L87.28,62.22 L89.96,63.58 L92.40,65.34 L92.40,65.34 Z" fill="#f5f5f5" stroke="#1e1e1e" stroke-width="1" stroke-linejoin="round"/></svg>