<svg xmlns="http://www.w3.org/2000/svg" viewBox="8.67 8.67 121.23 121.33"><path d="M10.67,26.67 L11.07,23.11 L12.25,19.72 L14.16,16.69 L16.69,14.16 L19.72,12.25 L23.11,11.07 L26.67,10.67 L101.33,10.67 L104.89,11.07 L108.28,12.25 L111.31,14.16 L113.84,16.69 L115.75,19.72 L116.93,23.11 L117.33,26.67 L117.33,101.33 L116.93,104.89 L115.75,108.28 L113.84,111.31 L111.31,113.84 L108.28,115.75 L104.89,116.93 L101.33,117.33 L26.67,117.33 L23.11,116.93 L19.72,115.75 L16.69,113.84 L14.16,111.31 L12.25,108.28 L11.07,104.89 L10.67,101.33 L10.67,26.67 Z" fill="#f5f5f5" stroke="#1e1e1e" stroke-width="1" stroke-linejoin="round"/><path d="M10.67,26.67 L11.07,23.11 L12.25,19.72 L14.16,16.69 L16.69,14.16 L19.72,12.25 L23.11,11.07 L26.67,10.67 L101.33,10.67 L104.89,11.07 L108.28,12.25 L111.31,14.16 L113.84,16.69 L115.75,19.72 L116.93,23.11 L117.33,26.67 L117.33,101.33 L116.93,104.89 L115.75,108.28 L113.84,111.31 L111.31,113.84 L108.28,115.75 L104.89,116.93 L101.33,117.33 L26.67,117.33 L23.11,116.93 L19.72,115.75 L16.69,113.84 L14.16,111.31 L12.25,108.28 L11.07,104.89 L10.67,101.33 L10.67,26.67 Z" fill="#e3e3e3" stroke="#1e1e1e" stroke-width="1" stroke-linejoin="round" opacity="0.2"/><path d="M26.67,10.67 L23.11,11.07 L19.72,12.25 L16.69,14.16 L14.16,16.69 L12.25,19.72 L11.07,23.11 L10.67,26.67 L10.67,101.33 L11.07,104.89 L12.25,108.28 L14.16,111.31 L16.69,113.84 L19.72,115.75 L23.11,116.93 L26.67,117.33 L101.33,117.33 L104.89,116.93 L108.28,115.75 L111.31,113.84 L113.84,111.31 L115.75,108.28 L116.93,104.89 L117.33,101.33 L117.33,26.67 L116.93,23.11 L115.75,19.72 L113.84,16.69 L111.31,14.16 L108.28,12.25 L104.89,11.07 L101.33,10.67 L26.67,10.67 Z" fill="#a2a2a2" stroke="#1e1e1e" stroke-width="1" stroke-linejoin="round"/><path d="M101.33,16.00 L26.67,16.00 L23.91,16.36 L21.33,17.43 L19.12,19.12 L17.43,21.33 L16.36,23.91 L16.00,26.67 L16.00,101.33 L16.36,104.09 L17.43,106.67 L19.12,108.88 L21.33,110.57 L23.91,111.64 L26.67,112.00 L101.33,112.00 L104.09,111.64 L106.67,110.57 L108.88,108.88 L110.57,106.67 L111.64,104.09 L112.00,101.33 L112.00,26.67 L111.64,23.91 L110.57,21.33 L108.88,19.12 L106.67,17.43 L104.09,16.36 L101.33,16.00 Z" fill="#f1f1f1" stroke="#1e1e1e" stroke-width="1" stroke-linejoin="round"/><path d="M50.67,53.00 L53.37,51.88 L55.67,50.08 L57.40,47.71 L58.42,44.97 L58.65,42.06 L58.08,39.19 L56.76,36.58 L54.77,34.43 L52.28,32.90 L49.46,32.10 L46.54,32.10 L43.72,32.90 L41.23,34.43 L39.24,36.58 L37.92,39.19 L37.35,42.06 L37.58,44.97 L38.60,47.71 L40.33,50.08 L42.63,51.88 L45.33,53.00 L45.33,75.00 L42.63,76.12 L40.33,77.92 L38.60,80.29 L37.58,83.03 L37.35,85.94 L37.92,88.81 L39.24,91.42 L41.23,93.57 L43.72,95.10 L46.54,95.90 L49.46,95.90 L52.28,95.10 L54.77,93.57 L56.76,91.42 L58.08,88.81 L58.65,85.94 L58.42,83.03 L57.40,80.29 L55.67,77.92 L53.37,76.12 L50.67,75.00 L50.67,66.67 L69.33,66.67 L72.30,66.33 L75.12,65.35 L77.65,63.76 L79.76,61.65 L81.35,59.12 L82.33,56.30 L82.67,53.33 L82.67,52.95 L85.35,51.80 L87.63,49.96 L89.31,47.57 L90.29,44.81 L90.47,41.89 L89.86,39.03 L88.49,36.44 L86.47,34.32 L83.96,32.83 L81.13,32.08 L78.20,32.13 L75.40,32.97 L72.93,34.54 L70.98,36.72 L69.70,39.35 L69.18,42.23 L69.46,45.14 L70.52,47.87 L72.28,50.20 L74.61,51.97 L77.33,53.04 L77.33,53.33 L76.94,55.81 L75.81,58.04 L74.04,59.81 L71.81,60.94 L69.33,61.33 L50.67,61.33 L50.67,53.00 Z" fill="#6848aa" stroke="#1e1e1e" stroke-width="1" stroke-linejoin="round"/><path d="M77.33,80.00 L72.92,80.41 L68.66,81.62 L64.70,83.59 L61.16,86.26 L58.18,89.54 L55.85,93.30 L54.25,97.43 L53.44,101.79 L53.44,106.21 L54.25,110.57 L55.85,114.70 L58.18,118.46 L61.16,121.74 L64.70,124.41 L68.66,126.38 L72.92,127.59 L77.33,128.00 L104.00,128.00 L108.41,127.59 L112.67,126.38 L116.63,124.41 L120.17,121.74 L123.15,118.46 L125.48,114.70 L127.08,110.57 L127.90,106.21 L127.90,101.79 L127.08,97.43 L125.48,93.30 L123.15,89.54 L120.17,86.26 L116.63,83.59 L112.67,81.62 L108.41,80.41 L104.00,80.00 L77.33,80.00 Z" fill="#f5f5f5" stroke="#1e1e1e" stroke-width="1" stroke-linejoin="round"/><path d="M58.67,104.00 L59.03,100.36 L60.09,96.86 L61.81,93.63 L64.13,90.80 L66.96,88.48 L70.19,86.75 L73.69,85.69 L77.33,85.33 L82.67,85.33 L84.00,85.69 L84.98,86.67 L85.33,88.00 L84.98,89.33 L84.00,90.31 L82.67,90.67 L77.33,90.67 L74.14,91.05 L71.14,92.19 L68.49,94.02 L66.36,96.43 L64.87,99.27 L64.10,102.39 L64.10,105.61 L64.87,108.73 L66.36,111.57 L68.49,113.98 L71.14,115.81 L74.14,116.95 L77.33,117.33 L82.67,117.33 L84.00,117.69 L84.98,118.67 L85.33,120.00 L84.98,121.33 L84.00,122.31 L82.67,122.67 L77.33,122.67 L73.69,122.31 L70.19,121.25 L66.96,119.52 L64.13,117.20 L61.81,114.37 L60.09,111.14 L59.03,107.64 L58.67,104.00 Z" fill="#6848aa" stroke="#1e1e1e" stroke-width="1" stroke-linejoin="round"/><path d="M104.00,122.67 L107.88,122.26 L111.59,121.05 L114.97,119.10 L117.87,116.49 L120.17,113.33 L121.75,109.77 L122.56,105.95 L122.56,102.05 L121.75,98.23 L120.17,94.67 L117.87,91.51 L114.97,88.90 L111.59,86.95 L107.88,85.74 L104.00,85.33 L98.33,85.33 L98.33,85.35 L97.14,85.81 L96.30,86.77 L96.00,88.00 L96.30,89.23 L97.14,90.19 L98.33,90.65 L98.33,90.67 L104.00,90.67 L107.19,91.05 L110.20,92.19 L112.84,94.02 L114.97,96.43 L116.47,99.27 L117.24,102.39 L117.24,105.61 L116.47,108.73 L114.97,111.57 L112.84,113.98 L110.20,115.81 L107.19,116.95 L104.00,117.33 L98.67,117.33 L97.33,117.69 L96.36,118.67 L96.00,120.00 L96.36,121.33 L97.33,122.31 L98.67,122.67 L104.00,122.67 Z" fill="#6848aa" stroke="#1e1e1e" stroke-width="1" stroke-linejoin="round"/><path d="M77.33,101.33 L76.00,101.69 L75.02,102.67 L74.67,104.00 L75.02,105.33 L76.00,106.31 L77.33,106.67 L104.00,106.67 L105.33,106.31 L106.31,105.33 L106.67,104.00 L106.31,102.67 L105.33,101.69 L104.00,101.33 L77.33,101.33 Z" fill="#6848aa" stroke="#6848aa" stroke-width="1" stroke-linejoin="round"/></svg>