<svg xmlns="http://www.w3.org/2000/svg" viewBox="7.60 7.60 100.00 100.00"><path d="M9.60,24.00 L9.96,20.80 L11.03,17.75 L12.74,15.02 L15.02,12.74 L17.75,11.03 L20.80,9.96 L24.00,9.60 L91.20,9.60 L94.40,9.96 L97.45,11.03 L100.18,12.74 L102.46,15.02 L104.17,17.75 L105.24,20.80 L105.60,24.00 L105.60,91.20 L105.24,94.40 L104.17,97.45 L102.46,100.18 L100.18,102.46 L97.45,104.17 L94.40,105.24 L91.20,105.60 L24.00,105.60 L20.80,105.24 L17.75,104.17 L15.02,102.46 L12.74,100.18 L11.03,97.45 L9.96,94.40 L9.60,91.20 L9.60,24.00 Z" fill="#f5f5f5" stroke="#1e1e1e" stroke-width="1" stroke-linejoin="round"/><path d="M9.60,24.00 L9.96,20.80 L11.03,17.75 L12.74,15.02 L15.02,12.74 L17.75,11.03 L20.80,9.96 L24.00,9.60 L91.20,9.60 L94.40,9.96 L97.45,11.03 L100.18,12.74 L102.46,15.02 L104.17,17.75 L105.24,20.80 L105.60,24.00 L105.60,91.20 L105.24,94.40 L104.17,97.45 L102.46,100.18 L100.18,102.46 L97.45,104.17 L94.40,105.24 L91.20,105.60 L24.00,105.60 L20.80,105.24 L17.75,104.17 L15.02,102.46 L12.74,100.18 L11.03,97.45 L9.96,94.40 L9.60,91.20 L9.60,24.00 Z" fill="#e3e3e3" stroke="#1e1e1e" stroke-width="1" stroke-linejoin="round" opacity="0.2"/><path d="M24.00,9.60 L20.80,9.96 L17.75,11.03 L15.02,12.74 L12.74,15.02 L11.03,17.75 L9.96,20.80 L9.60,24.00 L9.60,91.20 L9.96,94.40 L11.03,97.45 L12.74,100.18 L15.02,102.46 L17.75,104.17 L20.80,105.24 L24.00,105.60 L91.20,105.60 L94.40,105.24 L97.45,104.17 L100.18,102.46 L102.46,100.18 L104.17,97.45 L105.24,94.40 L105.60,91.20 L105.60,24.00 L105.24,20.80 L104.17,17.75 L102.46,15.02 L100.18,12.74 L97.45,11.03 L94.40,9.96 L91.20,9.60 L24.00,9.60 Z" fill="#a2a2a2" stroke="#1e1e1e" stroke-width="1" stroke-linejoin="round"/><path d="M91.20,14.40 L24.00,14.40 L21.52,14.73 L19.20,15.69 L17.21,17.21 L15.69,19.20 L14.73,21.52 L14.40,24.00 L14.40,91.20 L14.73,93.68 L15.69,96.00 L17.21,97.99 L19.20,99.51 L21.52,100.47 L24.00,100.80 L91.20,100.80 L93.68,100.47 L96.00,99.51 L97.99,97.99 L99.51,96.00 L100.47,93.68 L100.80,91.20 L100.80,24.00 L100.47,21.52 L99.51,19.20 L97.99,17.21 L96.00,15.69 L93.68,14.73 L91.20,14.40 Z" fill="#f1f1f1" stroke="#1e1e1e" stroke-width="1" stroke-linejoin="round"/><path d="M76.80,33.60 L79.40,33.96 L81.81,35.01 L83.84,36.68 L85.35,38.83 L86.21,41.32 L86.37,43.94 L85.81,46.51 L84.58,48.83 L82.76,50.73 L80.49,52.06 L77.95,52.73 L75.32,52.69 L72.81,51.93 L70.59,50.52 L68.84,48.56 L67.68,46.20 L62.85,46.20 L61.65,46.52 L60.77,47.40 L60.45,48.60 L60.45,67.80 L60.77,69.00 L61.65,69.88 L62.85,70.20 L67.38,70.20 L68.26,67.64 L69.81,65.43 L71.92,63.74 L74.42,62.71 L77.11,62.41 L79.77,62.88 L82.20,64.07 L84.20,65.89 L85.61,68.20 L86.32,70.81 L86.28,73.51 L85.48,76.09 L84.00,78.35 L81.94,80.11 L79.48,81.22 L76.80,81.60 L74.42,81.30 L72.19,80.42 L70.24,79.01 L68.71,77.17 L67.68,75.00 L62.85,75.00 L60.63,74.65 L58.62,73.62 L57.03,72.03 L56.00,70.02 L55.65,67.80 L55.65,60.30 L47.61,60.30 L46.53,62.70 L44.84,64.72 L42.66,66.20 L40.16,67.04 L37.53,67.17 L34.97,66.57 L32.66,65.31 L30.78,63.46 L29.48,61.17 L28.85,58.62 L28.93,55.99 L29.73,53.48 L31.17,51.28 L33.17,49.55 L35.55,48.44 L38.15,48.01 L40.76,48.30 L43.20,49.30 L45.28,50.91 L46.84,53.04 L47.76,55.50 L55.65,55.50 L55.65,48.60 L56.00,46.38 L57.03,44.37 L58.62,42.78 L60.63,41.75 L62.85,41.40 L67.38,41.40 L68.23,38.90 L69.73,36.72 L71.76,35.03 L74.18,33.97 L76.80,33.60 L76.80,33.60 Z" fill="#ce2e85" stroke="#1e1e1e" stroke-width="1" stroke-linejoin="round"/></svg>