<svg xmlns="http://www.w3.org/2000/svg" viewBox="6.15 2.17 96.13 100.00"><path d="M16.70,25.04 L17.01,22.26 L17.94,19.61 L19.43,17.24 L21.41,15.25 L23.78,13.76 L26.43,12.84 L29.22,12.52 L79.30,12.52 L82.09,12.84 L84.74,13.76 L87.11,15.25 L89.09,17.24 L90.59,19.61 L91.51,22.26 L91.83,25.04 L91.83,73.04 L91.54,76.63 L90.70,80.14 L89.32,83.47 L87.44,86.54 L85.10,89.28 L82.36,91.62 L79.29,93.50 L75.96,94.88 L72.46,95.72 L68.87,96.00 L29.22,96.00 L26.43,95.69 L23.78,94.76 L21.41,93.27 L19.43,91.29 L17.94,88.91 L17.01,86.26 L16.70,83.48 L16.70,25.04 Z" fill="#f5f5f5" stroke="#1e1e1e" stroke-width="1" stroke-linejoin="round"/><path d="M16.70,25.04 L17.01,22.26 L17.94,19.61 L19.43,17.24 L21.41,15.25 L23.78,13.76 L26.43,12.84 L29.22,12.52 L79.30,12.52 L82.09,12.84 L84.74,13.76 L87.11,15.25 L89.09,17.24 L90.59,19.61 L91.51,22.26 L91.83,25.04 L91.83,73.04 L91.54,76.63 L90.70,80.14 L89.32,83.47 L87.44,86.54 L85.10,89.28 L82.36,91.62 L79.29,93.50 L75.96,94.88 L72.46,95.72 L68.87,96.00 L29.22,96.00 L26.43,95.69 L23.78,94.76 L21.41,93.27 L19.43,91.29 L17.94,88.91 L17.01,86.26 L16.70,83.48 L16.70,25.04 Z" fill="#e3e3e3" stroke="#1e1e1e" stroke-width="1" stroke-linejoin="round" opacity="0.2"/><path d="M79.30,12.52 L82.09,12.84 L84.74,13.76 L87.11,15.25 L89.09,17.24 L90.59,19.61 L91.51,22.26 L91.83,25.04 L91.83,73.04 L91.54,76.63 L90.70,80.14 L89.32,83.47 L87.44,86.54 L85.10,89.28 L82.36,91.62 L79.29,93.50 L75.96,94.88 L72.46,95.72 L68.87,96.00 L68.52,96.00 L68.52,91.83 L68.87,91.83 L72.13,91.54 L75.29,90.69 L78.26,89.31 L80.94,87.43 L83.26,85.12 L85.14,82.43 L86.52,79.47 L87.37,76.31 L87.65,73.04 L87.65,25.04 L87.37,22.88 L86.53,20.87 L85.21,19.14 L83.48,17.81 L81.46,16.98 L79.30,16.70 L29.22,16.70 L27.06,16.98 L25.04,17.81 L23.31,19.14 L21.99,20.87 L21.15,22.88 L20.87,25.04 L20.87,83.48 L21.15,85.64 L21.99,87.65 L23.31,89.38 L25.04,90.71 L27.06,91.54 L29.22,91.83 L52.67,91.83 L52.67,96.00 L29.22,96.00 L26.43,95.69 L23.78,94.76 L21.41,93.27 L19.43,91.29 L17.94,88.91 L17.01,86.26 L16.70,83.48 L16.70,25.04 L17.01,22.26 L17.94,19.61 L19.43,17.24 L21.41,15.25 L23.78,13.76 L26.43,12.84 L29.22,12.52 L79.30,12.52 Z" fill="#a2a2a2" stroke="#1e1e1e" stroke-width="1" stroke-linejoin="round"/><path d="M8.15,16.70 L8.47,13.91 L9.39,11.26 L10.88,8.89 L12.87,6.91 L15.24,5.41 L17.89,4.49 L20.67,4.17 L70.76,4.17 L73.55,4.49 L76.19,5.41 L78.57,6.91 L80.55,8.89 L82.04,11.26 L82.97,13.91 L83.28,16.70 L83.28,75.13 L82.97,77.92 L82.04,80.56 L80.55,82.94 L78.57,84.92 L76.19,86.41 L73.55,87.34 L70.76,87.65 L20.67,87.65 L17.89,87.34 L15.24,86.41 L12.87,84.92 L10.88,82.94 L9.39,80.56 L8.47,77.92 L8.15,75.13 L8.15,16.70 Z" fill="#f5f5f5" stroke="#1e1e1e" stroke-width="1" stroke-linejoin="round"/><path d="M8.15,16.70 L8.47,13.91 L9.39,11.26 L10.88,8.89 L12.87,6.91 L15.24,5.41 L17.89,4.49 L20.67,4.17 L70.76,4.17 L73.55,4.49 L76.19,5.41 L78.57,6.91 L80.55,8.89 L82.04,11.26 L82.97,13.91 L83.28,16.70 L83.28,75.13 L82.97,77.92 L82.04,80.56 L80.55,82.94 L78.57,84.92 L76.19,86.41 L73.55,87.34 L70.76,87.65 L20.67,87.65 L17.89,87.34 L15.24,86.41 L12.87,84.92 L10.88,82.94 L9.39,80.56 L8.47,77.92 L8.15,75.13 L8.15,16.70 Z" fill="#e3e3e3" stroke="#1e1e1e" stroke-width="1" stroke-linejoin="round" opacity="0.2"/><path d="M20.87,4.17 L18.08,4.49 L15.44,5.41 L13.06,6.91 L11.08,8.89 L9.59,11.26 L8.66,13.91 L8.35,16.70 L8.35,75.13 L8.66,77.92 L9.59,80.56 L11.08,82.94 L13.06,84.92 L15.44,86.41 L18.08,87.34 L20.87,87.65 L70.96,87.65 L73.74,87.34 L76.39,86.41 L78.76,84.92 L80.75,82.94 L82.24,80.56 L83.16,77.92 L83.48,75.13 L83.48,16.70 L83.16,13.91 L82.24,11.26 L80.75,8.89 L78.76,6.91 L76.39,5.41 L73.74,4.49 L70.96,4.17 L20.87,4.17 Z" fill="#a2a2a2" stroke="#1e1e1e" stroke-width="1" stroke-linejoin="round"/><path d="M70.96,8.35 L20.87,8.35 L18.71,8.63 L16.70,9.47 L14.97,10.79 L13.64,12.52 L12.81,14.54 L12.52,16.70 L12.52,75.13 L12.81,77.29 L13.64,79.30 L14.97,81.03 L16.70,82.36 L18.71,83.19 L20.87,83.48 L70.96,83.48 L73.12,83.19 L75.13,82.36 L76.86,81.03 L78.19,79.30 L79.02,77.29 L79.30,75.13 L79.30,16.70 L79.02,14.54 L78.19,12.52 L76.86,10.79 L75.13,9.47 L73.12,8.63 L70.96,8.35 Z" fill="#f1f1f1" stroke="#1e1e1e" stroke-width="1" stroke-linejoin="round"/><path d="M30.37,20.87 L31.57,21.11 L32.58,21.79 L33.26,22.80 L33.50,24.00 L33.50,67.83 L33.19,69.18 L32.32,70.27 L31.07,70.88 L29.67,70.88 L28.42,70.27 L27.55,69.18 L27.24,67.83 L27.24,24.00 L27.48,22.80 L28.16,21.79 L29.17,21.11 L30.37,20.87 Z" fill="#b57400" stroke="#b57400" stroke-width="1" stroke-linejoin="round"/><path d="M46.02,33.39 L47.22,33.63 L48.24,34.31 L48.91,35.32 L49.15,36.52 L49.15,67.83 L48.84,69.18 L47.97,70.27 L46.72,70.88 L45.32,70.88 L44.07,70.27 L43.20,69.18 L42.89,67.83 L42.89,36.52 L43.13,35.32 L43.81,34.31 L44.82,33.63 L46.02,33.39 Z" fill="#b57400" stroke="#b57400" stroke-width="1" stroke-linejoin="round"/><path d="M61.67,46.96 L62.87,47.19 L63.89,47.87 L64.57,48.89 L64.80,50.09 L64.80,67.83 L64.49,69.18 L63.63,70.27 L62.37,70.88 L60.98,70.88 L59.72,70.27 L58.85,69.18 L58.54,67.83 L58.54,50.09 L58.78,48.89 L59.46,47.87 L60.48,47.19 L61.67,46.96 Z" fill="#b57400" stroke="#b57400" stroke-width="1" stroke-linejoin="round"/><path d="M57.65,70.96 L59.45,71.11 L61.15,71.56 L62.72,72.28 L64.14,73.24 L65.51,72.01 L67.16,71.23 L68.98,70.96 L74.20,70.96 L76.55,71.23 L78.79,72.03 L80.79,73.31 L82.16,72.04 L83.83,71.24 L85.67,70.96 L86.32,70.99 L88.09,71.44 L89.66,72.39 L90.89,73.75 L91.67,75.41 L91.93,77.22 L91.93,87.65 L94.03,87.65 L95.96,87.96 L97.71,88.85 L99.09,90.23 L99.98,91.98 L100.29,93.91 L99.98,95.85 L99.09,97.59 L97.71,98.98 L95.96,99.87 L94.03,100.17 L85.68,100.17 L84.24,100.01 L82.92,99.54 L81.76,98.79 L80.79,97.82 L79.57,98.68 L78.23,99.36 L76.79,99.85 L75.26,100.12 L74.20,100.17 L68.98,100.17 L68.09,100.11 L67.24,99.93 L65.69,99.23 L64.13,99.93 L62.43,100.17 L62.42,100.17 L60.48,99.87 L58.71,99.02 L57.27,97.67 L55.90,99.01 L54.18,99.87 L52.29,100.17 L50.35,99.87 L48.60,98.98 L47.22,97.60 L46.32,95.85 L46.02,93.91 L46.02,77.22 L46.32,75.28 L47.21,73.54 L48.60,72.15 L50.35,71.26 L52.28,70.96 L57.65,70.96 Z" fill="#f5f5f5" stroke="#1e1e1e" stroke-width="1" stroke-linejoin="round"/><path d="M57.65,75.13 L59.59,75.43 L61.34,76.32 L62.73,77.70 L63.62,79.45 L63.93,81.39 L63.62,83.33 L62.72,85.07 L61.32,86.45 L62.09,87.75 L62.65,88.98 L63.63,91.97 L63.75,92.31 L64.35,93.13 L64.50,94.13 L64.16,95.08 L63.40,95.76 L62.42,96.00 L61.55,95.83 L60.80,95.36 L60.45,94.98 L60.18,94.55 L59.89,93.91 L59.66,93.25 L58.76,90.50 L58.24,89.36 L57.67,88.52 L57.04,87.97 L56.32,87.69 L55.86,87.65 L54.37,87.65 L54.37,93.91 L54.09,94.96 L53.33,95.72 L52.28,96.00 L51.24,95.72 L50.48,94.96 L50.20,93.91 L50.20,77.22 L50.48,76.17 L51.24,75.41 L52.28,75.13 L57.65,75.13 Z" fill="#b57400" stroke="#b57400" stroke-width="1" stroke-linejoin="round"/><path d="M54.37,83.48 L57.65,83.48 L58.70,83.20 L59.46,82.43 L59.74,81.39 L59.46,80.35 L58.70,79.58 L57.65,79.30 L54.37,79.30 L54.37,83.48 Z" fill="#f5f5f5" stroke="#f5f5f5" stroke-width="1" stroke-linejoin="round"/><path d="M74.20,75.13 L76.13,75.44 L77.88,76.33 L79.26,77.71 L80.15,79.46 L80.46,81.39 L80.46,89.74 L80.15,91.67 L79.26,93.42 L77.88,94.80 L76.13,95.69 L74.20,96.00 L68.98,96.00 L67.93,95.72 L67.17,94.96 L66.89,93.91 L66.89,77.22 L67.17,76.17 L67.93,75.41 L68.98,75.13 L74.20,75.13 Z" fill="#b57400" stroke="#b57400" stroke-width="1" stroke-linejoin="round"/><path d="M71.07,91.83 L74.20,91.83 L75.24,91.55 L76.00,90.78 L76.28,89.74 L76.28,81.39 L76.00,80.35 L75.24,79.58 L74.20,79.30 L71.07,79.30 L71.07,91.83 Z" fill="#f5f5f5" stroke="#f5f5f5" stroke-width="1" stroke-linejoin="round"/><path d="M85.67,75.13 L86.72,75.41 L87.48,76.17 L87.76,77.22 L87.76,91.83 L94.02,91.83 L95.07,92.11 L95.83,92.87 L96.11,93.91 L95.83,94.96 L95.07,95.72 L94.02,96.00 L85.67,96.00 L84.63,95.72 L83.87,94.96 L83.59,93.91 L83.59,77.22 L83.87,76.17 L84.63,75.41 L85.67,75.13 Z" fill="#b57400" stroke="#b57400" stroke-width="1" stroke-linejoin="round"/></svg>