<svg xmlns="http://www.w3.org/2000/svg" viewBox="8.67 3.33 110.67 121.33"><path d="M21.33,32.00 L21.73,28.44 L22.92,25.06 L24.82,22.02 L27.36,19.49 L30.39,17.58 L33.77,16.40 L37.33,16.00 L101.33,16.00 L104.89,16.40 L108.28,17.58 L111.31,19.49 L113.84,22.02 L115.75,25.06 L116.93,28.44 L117.33,32.00 L117.33,93.33 L116.97,97.92 L115.90,102.40 L114.14,106.65 L111.73,110.58 L108.74,114.08 L105.24,117.06 L101.32,119.47 L97.06,121.23 L92.59,122.31 L88.00,122.67 L37.33,122.67 L33.77,122.27 L30.39,121.08 L27.36,119.18 L24.82,116.64 L22.92,113.61 L21.73,110.23 L21.33,106.67 L21.33,32.00 Z" fill="#f5f5f5" stroke="#1e1e1e" stroke-width="1" stroke-linejoin="round"/><path d="M21.33,32.00 L21.73,28.44 L22.92,25.06 L24.82,22.02 L27.36,19.49 L30.39,17.58 L33.77,16.40 L37.33,16.00 L101.33,16.00 L104.89,16.40 L108.28,17.58 L111.31,19.49 L113.84,22.02 L115.75,25.06 L116.93,28.44 L117.33,32.00 L117.33,93.33 L116.97,97.92 L115.90,102.40 L114.14,106.65 L111.73,110.58 L108.74,114.08 L105.24,117.06 L101.32,119.47 L97.06,121.23 L92.59,122.31 L88.00,122.67 L37.33,122.67 L33.77,122.27 L30.39,121.08 L27.36,119.18 L24.82,116.64 L22.92,113.61 L21.73,110.23 L21.33,106.67 L21.33,32.00 Z" fill="#e3e3e3" stroke="#1e1e1e" stroke-width="1" stroke-linejoin="round" opacity="0.2"/><path d="M37.33,16.00 L33.77,16.40 L30.39,17.58 L27.36,19.49 L24.82,22.02 L22.92,25.06 L21.73,28.44 L21.33,32.00 L21.33,106.67 L21.73,110.23 L22.92,113.61 L24.82,116.64 L27.36,119.18 L30.39,121.08 L33.77,122.27 L37.33,122.67 L88.00,122.67 L92.59,122.31 L97.06,121.23 L101.32,119.47 L105.24,117.06 L108.74,114.08 L111.73,110.58 L114.14,106.65 L115.90,102.40 L116.97,97.92 L117.33,93.33 L117.33,32.00 L116.93,28.44 L115.75,25.06 L113.84,22.02 L111.31,19.49 L108.28,17.58 L104.89,16.40 L101.33,16.00 L37.33,16.00 Z" fill="#a2a2a2" stroke="#1e1e1e" stroke-width="1" stroke-linejoin="round"/><path d="M101.33,21.33 L37.33,21.33 L34.57,21.70 L32.00,22.76 L29.79,24.46 L28.10,26.67 L27.03,29.24 L26.67,32.00 L26.67,106.67 L27.03,109.43 L28.10,112.00 L29.79,114.21 L32.00,115.90 L34.57,116.97 L37.33,117.33 L88.00,117.33 L92.17,116.97 L96.21,115.89 L100.00,114.12 L103.43,111.72 L106.39,108.76 L108.78,105.33 L110.55,101.54 L111.64,97.50 L112.00,93.33 L112.00,32.00 L111.64,29.24 L110.57,26.67 L108.88,24.46 L106.67,22.76 L104.09,21.70 L101.33,21.33 Z" fill="#f1f1f1" stroke="#1e1e1e" stroke-width="1" stroke-linejoin="round"/><path d="M10.67,21.33 L11.07,17.77 L12.25,14.39 L14.16,11.36 L16.69,8.82 L19.72,6.92 L23.11,5.73 L26.67,5.33 L90.67,5.33 L94.23,5.73 L97.61,6.92 L100.64,8.82 L103.18,11.36 L105.08,14.39 L106.27,17.77 L106.67,21.33 L106.67,96.00 L106.27,99.56 L105.08,102.94 L103.18,105.98 L100.64,108.51 L97.61,110.42 L94.23,111.60 L90.67,112.00 L26.67,112.00 L23.11,111.60 L19.72,110.42 L16.69,108.51 L14.16,105.98 L12.25,102.94 L11.07,99.56 L10.67,96.00 L10.67,21.33 Z" fill="#f5f5f5" stroke="#1e1e1e" stroke-width="1" stroke-linejoin="round"/><path d="M10.67,21.33 L11.07,17.77 L12.25,14.39 L14.16,11.36 L16.69,8.82 L19.72,6.92 L23.11,5.73 L26.67,5.33 L90.67,5.33 L94.23,5.73 L97.61,6.92 L100.64,8.82 L103.18,11.36 L105.08,14.39 L106.27,17.77 L106.67,21.33 L106.67,96.00 L106.27,99.56 L105.08,102.94 L103.18,105.98 L100.64,108.51 L97.61,110.42 L94.23,111.60 L90.67,112.00 L26.67,112.00 L23.11,111.60 L19.72,110.42 L16.69,108.51 L14.16,105.98 L12.25,102.94 L11.07,99.56 L10.67,96.00 L10.67,21.33 Z" fill="#e3e3e3" stroke="#1e1e1e" stroke-width="1" stroke-linejoin="round" opacity="0.2"/><path d="M26.67,5.33 L23.11,5.73 L19.72,6.92 L16.69,8.82 L14.16,11.36 L12.25,14.39 L11.07,17.77 L10.67,21.33 L10.67,96.00 L11.07,99.56 L12.25,102.94 L14.16,105.98 L16.69,108.51 L19.72,110.42 L23.11,111.60 L26.67,112.00 L90.67,112.00 L94.23,111.60 L97.61,110.42 L100.64,108.51 L103.18,105.98 L105.08,102.94 L106.27,99.56 L106.67,96.00 L106.67,21.33 L106.27,17.77 L105.08,14.39 L103.18,11.36 L100.64,8.82 L97.61,6.92 L94.23,5.73 L90.67,5.33 L26.67,5.33 Z" fill="#a2a2a2" stroke="#1e1e1e" stroke-width="1" stroke-linejoin="round"/><path d="M90.67,10.67 L26.67,10.67 L23.91,11.03 L21.33,12.10 L19.12,13.79 L17.43,16.00 L16.36,18.57 L16.00,21.33 L16.00,96.00 L16.36,98.76 L17.43,101.33 L19.12,103.54 L21.33,105.24 L23.91,106.30 L26.67,106.67 L90.67,106.67 L93.43,106.30 L96.00,105.24 L98.21,103.54 L99.90,101.33 L100.97,98.76 L101.33,96.00 L101.33,21.33 L100.97,18.57 L99.90,16.00 L98.21,13.79 L96.00,12.10 L93.43,11.03 L90.67,10.67 Z" fill="#f1f1f1" stroke="#1e1e1e" stroke-width="1" stroke-linejoin="round"/><path d="M60.05,26.77 L58.63,26.67 L57.21,26.80 L55.49,27.27 L53.97,28.19 L52.77,29.50 L52.07,30.70 L51.52,32.10 L51.12,33.68 L50.89,35.42 L50.55,42.55 L61.33,42.55 L62.67,42.91 L63.64,43.88 L64.00,45.22 L63.64,46.55 L62.67,47.53 L61.33,47.88 L50.26,47.88 L48.74,72.79 L48.74,72.81 L48.71,73.13 L48.30,77.09 L47.93,79.19 L47.39,81.27 L46.52,83.45 L45.29,85.53 L43.62,87.40 L41.45,89.01 L39.70,89.89 L37.94,90.43 L36.18,90.65 L34.45,90.61 L32.76,90.36 L31.13,89.92 L28.14,88.69 L27.12,87.77 L26.69,86.47 L26.96,85.12 L27.87,84.09 L29.17,83.65 L30.52,83.91 L32.81,84.86 L34.93,85.30 L36.88,85.19 L37.79,84.91 L38.66,84.46 L38.73,84.43 L39.97,83.52 L40.96,82.41 L41.72,81.12 L42.30,79.65 L42.74,77.98 L43.04,76.22 L43.41,72.44 L43.42,72.38 L43.42,72.37 L44.91,47.88 L34.67,47.88 L33.33,47.53 L32.36,46.55 L32.00,45.22 L32.36,43.88 L33.33,42.91 L34.67,42.55 L45.21,42.55 L45.41,38.83 L45.57,35.10 L45.87,32.78 L46.42,30.53 L47.26,28.40 L48.41,26.43 L49.98,24.60 L51.89,23.14 L54.07,22.10 L56.41,21.52 L56.44,21.52 L58.77,21.34 L61.09,21.55 L63.16,22.18 L65.05,23.16 L66.01,24.15 L66.35,25.49 L65.97,26.82 L64.98,27.78 L63.64,28.11 L62.31,27.73 L61.22,27.15 L60.05,26.77" fill="none" stroke="#1e1e1e" stroke-width="1" stroke-linejoin="round"/><path d="M89.89,54.11 L90.58,55.31 L90.58,56.69 L89.89,57.89 L77.98,69.79 L80.44,74.06 L82.94,78.30 L83.09,78.57 L83.64,79.45 L83.90,79.75 L84.23,79.97 L84.48,80.00 L84.74,79.99 L84.80,79.97 L84.97,79.82 L85.12,79.64 L85.51,79.14 L85.89,78.64 L86.98,77.84 L88.33,77.68 L89.59,78.21 L90.42,79.28 L90.61,80.63 L90.11,81.89 L89.93,82.15 L89.06,83.24 L87.79,84.39 L86.68,84.97 L85.47,85.27 L84.19,85.32 L82.82,85.14 L82.50,85.05 L82.20,84.92 L80.62,83.95 L79.34,82.60 L78.90,81.94 L78.49,81.27 L78.31,80.97 L77.62,79.79 L75.83,76.75 L74.07,73.70 L63.22,84.55 L62.02,85.25 L60.64,85.25 L59.45,84.55 L58.75,83.36 L58.75,81.98 L59.45,80.78 L71.33,68.90 L69.22,65.22 L67.08,61.56 L66.53,60.56 L65.89,59.62 L65.45,59.10 L64.93,58.67 L64.91,58.68 L64.75,58.76 L63.45,60.09 L62.35,60.89 L61.00,61.05 L59.75,60.52 L58.92,59.44 L58.73,58.10 L59.22,56.83 L60.38,55.49 L61.98,54.20 L63.62,53.50 L65.40,53.36 L67.14,53.80 L68.05,54.34 L68.85,54.97 L70.11,56.36 L71.05,57.73 L71.78,59.03 L75.24,64.99 L86.12,54.11 L87.31,53.42 L88.69,53.42 L89.89,54.11" fill="none" stroke="#1e1e1e" stroke-width="1" stroke-linejoin="round"/></svg>