<svg xmlns="http://www.w3.org/2000/svg" viewBox="6.73 6.73 95.90 100.00"><path d="M8.73,21.82 L9.06,18.91 L10.02,16.14 L11.58,13.66 L13.66,11.58 L16.14,10.02 L18.91,9.06 L21.82,8.73 L82.91,8.73 L85.82,9.06 L88.59,10.02 L91.07,11.58 L93.14,13.66 L94.70,16.14 L95.67,18.91 L96.00,21.82 L96.00,82.91 L95.67,85.82 L94.70,88.59 L93.14,91.07 L91.07,93.14 L88.59,94.70 L85.82,95.67 L82.91,96.00 L21.82,96.00 L18.91,95.67 L16.14,94.70 L13.66,93.14 L11.58,91.07 L10.02,88.59 L9.06,85.82 L8.73,82.91 L8.73,21.82 Z" fill="#f5f5f5" stroke="#1e1e1e" stroke-width="1" stroke-linejoin="round"/><path d="M8.73,21.82 L9.06,18.91 L10.02,16.14 L11.58,13.66 L13.66,11.58 L16.14,10.02 L18.91,9.06 L21.82,8.73 L82.91,8.73 L85.82,9.06 L88.59,10.02 L91.07,11.58 L93.14,13.66 L94.70,16.14 L95.67,18.91 L96.00,21.82 L96.00,82.91 L95.67,85.82 L94.70,88.59 L93.14,91.07 L91.07,93.14 L88.59,94.70 L85.82,95.67 L82.91,96.00 L21.82,96.00 L18.91,95.67 L16.14,94.70 L13.66,93.14 L11.58,91.07 L10.02,88.59 L9.06,85.82 L8.73,82.91 L8.73,21.82 Z" fill="#e3e3e3" stroke="#1e1e1e" stroke-width="1" stroke-linejoin="round" opacity="0.2"/><path d="M21.82,8.73 L18.91,9.06 L16.14,10.02 L13.66,11.58 L11.58,13.66 L10.02,16.14 L9.06,18.91 L8.73,21.82 L8.73,82.91 L9.06,85.82 L10.02,88.59 L11.58,91.07 L13.66,93.14 L16.14,94.70 L18.91,95.67 L21.82,96.00 L82.91,96.00 L85.82,95.67 L88.59,94.70 L91.07,93.14 L93.14,91.07 L94.70,88.59 L95.67,85.82 L96.00,82.91 L96.00,21.82 L95.67,18.91 L94.70,16.14 L93.14,13.66 L91.07,11.58 L88.59,10.02 L85.82,9.06 L82.91,8.73 L21.82,8.73 Z" fill="#a2a2a2" stroke="#1e1e1e" stroke-width="1" stroke-linejoin="round"/><path d="M82.91,13.09 L21.82,13.09 L19.56,13.39 L17.45,14.26 L15.65,15.65 L14.26,17.45 L13.39,19.56 L13.09,21.82 L13.09,82.91 L13.39,85.17 L14.26,87.27 L15.65,89.08 L17.45,90.47 L19.56,91.34 L21.82,91.64 L82.91,91.64 L85.17,91.34 L87.27,90.47 L89.08,89.08 L90.47,87.27 L91.34,85.17 L91.64,82.91 L91.64,21.82 L91.34,19.56 L90.47,17.45 L89.08,15.65 L87.27,14.26 L85.17,13.39 L82.91,13.09 Z" fill="#f1f1f1" stroke="#1e1e1e" stroke-width="1" stroke-linejoin="round"/><path d="M41.45,43.36 L43.67,42.45 L45.55,40.97 L46.96,39.04 L47.79,36.80 L47.99,34.41 L47.52,32.06 L46.44,29.93 L44.81,28.17 L42.77,26.92 L40.47,26.27 L38.08,26.27 L35.77,26.92 L33.73,28.17 L32.11,29.93 L31.02,32.06 L30.56,34.41 L30.75,36.80 L31.58,39.04 L32.99,40.97 L34.88,42.45 L37.09,43.36 L37.09,61.37 L34.88,62.28 L32.99,63.75 L31.58,65.69 L30.75,67.93 L30.56,70.32 L31.02,72.67 L32.11,74.80 L33.73,76.56 L35.77,77.81 L38.08,78.46 L40.47,78.46 L42.77,77.81 L44.81,76.56 L46.44,74.80 L47.52,72.67 L47.99,70.32 L47.79,67.93 L46.96,65.69 L45.55,63.75 L43.67,62.28 L41.45,61.37 L41.45,54.55 L56.73,54.55 L59.15,54.27 L61.46,53.47 L63.53,52.17 L65.26,50.44 L66.56,48.37 L67.36,46.06 L67.64,43.64 L67.64,43.33 L69.84,42.38 L71.69,40.87 L73.07,38.92 L73.87,36.66 L74.02,34.27 L73.52,31.93 L72.40,29.81 L70.75,28.08 L68.69,26.86 L66.38,26.25 L63.98,26.29 L61.69,26.97 L59.67,28.26 L58.08,30.04 L57.03,32.19 L56.60,34.55 L56.83,36.93 L57.70,39.16 L59.14,41.07 L61.04,42.52 L63.27,43.40 L63.27,43.64 L62.95,45.66 L62.02,47.48 L60.57,48.93 L58.75,49.86 L56.73,50.18 L41.45,50.18 L41.45,43.36 Z" fill="#6848aa" stroke="#1e1e1e" stroke-width="1" stroke-linejoin="round"/><path d="M95.19,104.56 L97.05,103.88 L98.61,102.68 L99.75,101.06 L100.35,99.18 L100.59,96.96 L100.63,95.04 L100.32,90.81 L99.41,86.67 L97.92,82.70 L95.88,78.98 L93.33,75.60 L90.32,72.61 L86.92,70.09 L83.19,68.07 L79.21,66.61 L75.06,65.74 L70.83,65.47 L66.60,65.80 L64.89,66.32 L63.39,67.28 L62.20,68.61 L61.42,70.22 L61.10,71.97 L61.09,71.97 L61.09,94.66 L61.43,97.27 L62.44,99.70 L64.04,101.78 L66.12,103.38 L68.55,104.38 L71.15,104.73 L93.96,104.73 L94.60,104.69 L95.19,104.56 Z" fill="#f5f5f5" stroke="#1e1e1e" stroke-width="1" stroke-linejoin="round"/><path d="M71.04,74.18 L69.51,74.24 L67.99,74.42 L66.86,74.30 L65.95,73.64 L65.48,72.61 L65.60,71.48 L66.26,70.57 L67.29,70.11 L71.22,69.83 L75.15,70.16 L78.97,71.11 L82.60,72.63 L85.95,74.71 L88.94,77.27 L91.48,80.28 L93.53,83.64 L95.04,87.28 L95.95,91.11 L96.26,95.04 L96.23,96.72 L96.04,98.49 L95.58,99.52 L94.67,100.19 L93.54,100.30 L92.51,99.84 L91.85,98.93 L91.73,97.80 L91.85,96.72 L91.90,95.63 L91.90,95.04 L91.58,91.42 L90.64,87.91 L89.10,84.61 L87.02,81.63 L84.45,79.06 L81.47,76.98 L78.17,75.44 L74.66,74.50 L71.04,74.18 Z" fill="#6848aa" stroke="#1e1e1e" stroke-width="1" stroke-linejoin="round"/><path d="M70.34,82.78 L68.06,83.00 L66.91,82.96 L65.94,82.33 L65.42,81.30 L65.50,80.15 L66.16,79.20 L67.21,78.72 L68.76,78.49 L70.34,78.41 L73.63,78.73 L76.80,79.68 L79.73,81.22 L82.31,83.29 L84.43,85.82 L86.04,88.71 L87.06,91.85 L87.45,95.14 L87.20,98.43 L86.74,99.47 L85.83,100.13 L84.71,100.25 L83.67,99.79 L83.01,98.88 L82.89,97.75 L82.96,97.26 L83.02,96.76 L83.07,96.14 L83.08,95.52 L82.76,92.68 L81.82,89.99 L80.30,87.58 L78.29,85.56 L75.87,84.04 L73.18,83.10 L70.34,82.78 L70.34,82.78 Z" fill="#6848aa" stroke="#1e1e1e" stroke-width="1" stroke-linejoin="round"/><path d="M77.67,93.82 L77.34,95.68 L76.40,97.32 L74.95,98.54 L73.17,99.19 L71.27,99.19 L69.49,98.54 L68.04,97.32 L67.09,95.68 L66.76,93.82 L67.09,91.95 L68.04,90.31 L69.49,89.09 L71.27,88.45 L73.17,88.45 L74.95,89.09 L76.40,90.31 L77.34,91.95 L77.67,93.82 Z" fill="#6848aa" stroke="#6848aa" stroke-width="1" stroke-linejoin="round"/></svg>