<svg xmlns="http://www.w3.org/2000/svg" viewBox="7.60 7.60 100.00 100.00"><path d="M9.60,24.00 L9.96,20.80 L11.03,17.75 L12.74,15.02 L15.02,12.74 L17.75,11.03 L20.80,9.96 L24.00,9.60 L91.20,9.60 L94.40,9.96 L97.45,11.03 L100.18,12.74 L102.46,15.02 L104.17,17.75 L105.24,20.80 L105.60,24.00 L105.60,91.20 L105.24,94.40 L104.17,97.45 L102.46,100.18 L100.18,102.46 L97.45,104.17 L94.40,105.24 L91.20,105.60 L24.00,105.60 L20.80,105.24 L17.75,104.17 L15.02,102.46 L12.74,100.18 L11.03,97.45 L9.96,94.40 L9.60,91.20 L9.60,24.00 Z" fill="#f5f5f5" stroke="#1e1e1e" stroke-width="1" stroke-linejoin="round"/><path d="M9.60,24.00 L9.96,20.80 L11.03,17.75 L12.74,15.02 L15.02,12.74 L17.75,11.03 L20.80,9.96 L24.00,9.60 L91.20,9.60 L94.40,9.96 L97.45,11.03 L100.18,12.74 L102.46,15.02 L104.17,17.75 L105.24,20.80 L105.60,24.00 L105.60,91.20 L105.24,94.40 L104.17,97.45 L102.46,100.18 L100.18,102.46 L97.45,104.17 L94.40,105.24 L91.20,105.60 L24.00,105.60 L20.80,105.24 L17.75,104.17 L15.02,102.46 L12.74,100.18 L11.03,97.45 L9.96,94.40 L9.60,91.20 L9.60,24.00 Z" fill="#e3e3e3" stroke="#1e1e1e" stroke-width="1" stroke-linejoin="round" opacity="0.2"/><path d="M24.00,9.60 L20.80,9.96 L17.75,11.03 L15.02,12.74 L12.74,15.02 L11.03,17.75 L9.96,20.80 L9.60,24.00 L9.60,91.20 L9.96,94.40 L11.03,97.45 L12.74,100.18 L15.02,102.46 L17.75,104.17 L20.80,105.24 L24.00,105.60 L91.20,105.60 L94.40,105.24 L97.45,104.17 L100.18,102.46 L102.46,100.18 L104.17,97.45 L105.24,94.40 L105.60,91.20 L105.60,24.00 L105.24,20.80 L104.17,17.75 L102.46,15.02 L100.18,12.74 L97.45,11.03 L94.40,9.96 L91.20,9.60 L24.00,9.60 Z" fill="#a2a2a2" stroke="#1e1e1e" stroke-width="1" stroke-linejoin="round"/><path d="M91.20,14.40 L24.00,14.40 L21.52,14.73 L19.20,15.69 L17.21,17.21 L15.69,19.20 L14.73,21.52 L14.40,24.00 L14.40,91.20 L14.73,93.68 L15.69,96.00 L17.21,97.99 L19.20,99.51 L21.52,100.47 L24.00,100.80 L91.20,100.80 L93.68,100.47 L96.00,99.51 L97.99,97.99 L99.51,96.00 L100.47,93.68 L100.80,91.20 L100.80,24.00 L100.47,21.52 L99.51,19.20 L97.99,17.21 L96.00,15.69 L93.68,14.73 L91.20,14.40 Z" fill="#f1f1f1" stroke="#1e1e1e" stroke-width="1" stroke-linejoin="round"/><path d="M39.60,28.80 L37.06,29.13 L34.69,30.11 L32.66,31.67 L31.10,33.71 L30.12,36.07 L29.79,38.61 L29.79,43.74 L29.80,44.69 L29.79,47.14 L29.66,48.47 L29.39,49.81 L28.93,51.12 L28.22,52.35 L27.22,53.47 L25.88,54.44 L24.71,55.44 L24.07,56.83 L24.07,58.37 L24.71,59.76 L25.88,60.76 L27.22,61.72 L28.22,62.84 L28.93,64.08 L29.40,65.39 L29.67,66.73 L29.79,68.06 L29.80,70.51 L29.79,71.46 L29.79,76.59 L29.99,78.57 L30.56,80.41 L31.46,82.07 L32.66,83.53 L34.11,84.72 L35.78,85.63 L37.62,86.20 L39.60,86.40 L41.16,86.04 L42.41,85.04 L43.11,83.60 L43.11,82.00 L42.41,80.56 L41.16,79.56 L39.60,79.20 L38.29,78.85 L37.34,77.89 L36.99,76.59 L36.99,71.46 L37.01,71.05 L37.07,68.86 L36.99,67.29 L36.77,65.49 L36.34,63.54 L35.65,61.53 L34.64,59.52 L33.24,57.60 L34.64,55.68 L35.65,53.67 L36.34,51.66 L36.77,49.71 L36.99,47.91 L37.07,46.34 L37.01,44.15 L36.99,43.74 L36.99,38.61 L37.19,37.60 L37.75,36.77 L38.58,36.21 L39.60,36.00 L41.16,35.64 L42.41,34.64 L43.11,33.20 L43.11,31.60 L42.41,30.16 L41.16,29.16 L39.60,28.80 Z" fill="#45903e" stroke="#1e1e1e" stroke-width="1" stroke-linejoin="round"/><path d="M52.72,44.69 L51.51,43.63 L49.97,43.20 L48.39,43.48 L47.09,44.42 L46.33,45.84 L46.25,47.44 L46.88,48.91 L53.16,57.60 L46.88,66.29 L46.25,67.76 L46.33,69.36 L47.09,70.78 L48.39,71.72 L49.97,72.00 L51.51,71.57 L52.72,70.51 L57.60,63.74 L62.48,70.50 L63.68,71.58 L65.24,72.03 L66.83,71.75 L68.14,70.81 L68.90,69.38 L68.97,67.77 L68.32,66.29 L62.04,57.60 L68.32,48.90 L68.92,47.43 L68.83,45.85 L68.07,44.45 L66.78,43.53 L65.22,43.24 L63.69,43.65 L62.48,44.69 L57.60,51.45 L52.72,44.69 Z" fill="#45903e" stroke="#1e1e1e" stroke-width="1" stroke-linejoin="round"/><path d="M85.42,38.61 L85.08,36.07 L84.10,33.71 L82.54,31.67 L80.51,30.11 L78.14,29.13 L75.60,28.80 L74.04,29.16 L72.79,30.16 L72.09,31.60 L72.09,33.20 L72.79,34.64 L74.04,35.64 L75.60,36.00 L76.62,36.21 L77.45,36.77 L78.01,37.60 L78.21,38.61 L78.21,43.74 L78.19,44.15 L78.13,46.34 L78.21,47.91 L78.43,49.71 L78.86,51.66 L79.55,53.67 L80.56,55.68 L81.96,57.60 L80.56,59.52 L79.55,61.53 L78.86,63.54 L78.43,65.49 L78.21,67.29 L78.13,68.86 L78.19,71.05 L78.22,71.46 L78.22,76.59 L78.01,77.60 L77.45,78.43 L76.62,78.99 L75.60,79.20 L74.04,79.56 L72.79,80.56 L72.09,82.00 L72.09,83.60 L72.79,85.04 L74.04,86.04 L75.60,86.40 L77.58,86.20 L79.42,85.63 L81.09,84.72 L82.54,83.53 L83.74,82.07 L84.64,80.41 L85.21,78.57 L85.41,76.59 L85.41,71.46 L85.40,70.51 L85.41,68.06 L85.54,66.73 L85.81,65.39 L86.27,64.08 L86.98,62.85 L87.98,61.73 L89.32,60.76 L90.48,59.76 L91.12,58.37 L91.12,56.83 L90.48,55.44 L89.32,54.44 L87.98,53.48 L86.98,52.35 L86.27,51.12 L85.80,49.81 L85.54,48.47 L85.41,47.14 L85.40,44.69 L85.41,43.74 L85.42,38.61 Z" fill="#45903e" stroke="#1e1e1e" stroke-width="1" stroke-linejoin="round"/></svg>