<svg xmlns="http://www.w3.org/2000/svg" viewBox="8.67 8.67 110.67 110.67"><path d="M10.67,26.67 L11.07,23.11 L12.25,19.72 L14.16,16.69 L16.69,14.16 L19.72,12.25 L23.11,11.07 L26.67,10.67 L101.33,10.67 L104.89,11.07 L108.28,12.25 L111.31,14.16 L113.84,16.69 L115.75,19.72 L116.93,23.11 L117.33,26.67 L117.33,101.33 L116.93,104.89 L115.75,108.28 L113.84,111.31 L111.31,113.84 L108.28,115.75 L104.89,116.93 L101.33,117.33 L26.67,117.33 L23.11,116.93 L19.72,115.75 L16.69,113.84 L14.16,111.31 L12.25,108.28 L11.07,104.89 L10.67,101.33 L10.67,26.67 Z" fill="#f5f5f5" stroke="#1e1e1e" stroke-width="1" stroke-linejoin="round"/><path d="M10.67,26.67 L11.07,23.11 L12.25,19.72 L14.16,16.69 L16.69,14.16 L19.72,12.25 L23.11,11.07 L26.67,10.67 L101.33,10.67 L104.89,11.07 L108.28,12.25 L111.31,14.16 L113.84,16.69 L115.75,19.72 L116.93,23.11 L117.33,26.67 L117.33,101.33 L116.93,104.89 L115.75,108.28 L113.84,111.31 L111.31,113.84 L108.28,115.75 L104.89,116.93 L101.33,117.33 L26.67,117.33 L23.11,116.93 L19.72,115.75 L16.69,113.84 L14.16,111.31 L12.25,108.28 L11.07,104.89 L10.67,101.33 L10.67,26.67 Z" fill="#e3e3e3" stroke="#1e1e1e" stroke-width="1" stroke-linejoin="round" opacity="0.2"/><path d="M26.67,10.67 L23.11,11.07 L19.72,12.25 L16.69,14.16 L14.16,16.69 L12.25,19.72 L11.07,23.11 L10.67,26.67 L10.67,101.33 L11.07,104.89 L12.25,108.28 L14.16,111.31 L16.69,113.84 L19.72,115.75 L23.11,116.93 L26.67,117.33 L101.33,117.33 L104.89,116.93 L108.28,115.75 L111.31,113.84 L113.84,111.31 L115.75,108.28 L116.93,104.89 L117.33,101.33 L117.33,26.67 L116.93,23.11 L115.75,19.72 L113.84,16.69 L111.31,14.16 L108.28,12.25 L104.89,11.07 L101.33,10.67 L26.67,10.67 Z" fill="#a2a2a2" stroke="#1e1e1e" stroke-width="1" stroke-linejoin="round"/><path d="M101.33,16.00 L26.67,16.00 L23.91,16.36 L21.33,17.43 L19.12,19.12 L17.43,21.33 L16.36,23.91 L16.00,26.67 L16.00,101.33 L16.36,104.09 L17.43,106.67 L19.12,108.88 L21.33,110.57 L23.91,111.64 L26.67,112.00 L101.33,112.00 L104.09,111.64 L106.67,110.57 L108.88,108.88 L110.57,106.67 L111.64,104.09 L112.00,101.33 L112.00,26.67 L111.64,23.91 L110.57,21.33 L108.88,19.12 L106.67,17.43 L104.09,16.36 L101.33,16.00 Z" fill="#f1f1f1" stroke="#1e1e1e" stroke-width="1" stroke-linejoin="round"/><path d="M58.25,39.45 L60.29,37.91 L62.72,37.11 L65.28,37.11 L67.71,37.91 L69.75,39.45 L77.12,47.07 L80.41,50.65 L82.02,52.65 L83.49,54.80 L84.77,57.08 L85.77,59.52 L86.43,62.10 L86.67,64.83 L86.57,67.05 L86.27,69.20 L85.79,71.29 L85.13,73.29 L84.30,75.21 L83.32,77.02 L82.18,78.73 L80.90,80.33 L79.49,81.80 L77.96,83.13 L76.31,84.33 L74.56,85.37 L72.71,86.25 L70.77,86.96 L68.75,87.49 L66.67,87.84 L66.67,93.33 L66.31,94.67 L65.33,95.64 L64.00,96.00 L62.67,95.64 L61.69,94.67 L61.33,93.33 L61.33,87.84 L59.25,87.49 L57.23,86.96 L55.29,86.25 L53.44,85.37 L51.69,84.32 L50.04,83.13 L48.51,81.79 L47.10,80.33 L45.82,78.73 L44.68,77.02 L43.70,75.20 L42.87,73.29 L42.21,71.28 L41.73,69.20 L41.43,67.04 L41.33,64.83 L41.57,62.10 L42.23,59.52 L43.23,57.08 L44.51,54.80 L45.98,52.65 L47.59,50.65 L50.88,47.07 L58.25,39.45 Z" fill="#6848aa" stroke="#6848aa" stroke-width="1" stroke-linejoin="round"/><path d="M61.33,82.46 L61.33,61.33 L61.69,60.00 L62.67,59.02 L64.00,58.67 L65.33,59.02 L66.31,60.00 L66.67,61.33 L66.67,82.45 L64.00,82.66 L61.33,82.45 L61.33,82.46 Z" fill="#f1f1f1" stroke="#f1f1f1" stroke-width="1" stroke-linejoin="round"/></svg>