<svg xmlns="http://www.w3.org/2000/svg" viewBox="19.01 19.23 217.64 217.41"><path d="M209.28,88.68 L211.05,86.46 L212.95,84.73 L214.96,83.47 L217.04,82.66 L219.15,82.27 L221.26,82.27 L223.34,82.64 L225.34,83.36 L227.24,84.40 L229.00,85.73 L230.58,87.34 L231.95,89.19 L233.08,91.26 L233.93,93.53 L234.47,95.97 L234.65,98.55 L234.65,156.63 L234.10,160.34 L232.89,163.88 L231.05,167.15 L228.64,170.02 L176.29,222.14 L173.74,224.24 L170.84,225.80 L167.69,226.76 L164.41,227.10 L161.13,226.78 L154.63,225.34 L138.18,221.37 L127.65,218.60 L116.34,215.39 L104.83,211.82 L93.68,207.95 L88.42,205.92 L83.46,203.84 L78.89,201.72 L74.76,199.56 L71.15,197.38 L68.13,195.18 L65.77,192.97 L64.14,190.77 L63.63,189.66 L63.32,188.57 L63.23,187.47 L63.37,186.38 L63.75,185.30 L64.38,184.22 L65.25,183.15 L66.40,182.09 L67.81,181.04 L69.51,180.00 L73.78,177.96 L79.28,175.98 L86.09,174.06 L93.46,172.05 L100.62,169.80 L107.57,167.32 L114.29,164.63 L120.80,161.77 L127.09,158.73 L133.16,155.56 L139.00,152.26 L144.63,148.86 L150.02,145.37 L155.19,141.82 L160.14,138.23 L169.34,131.00 L177.61,123.85 L184.95,116.93 L191.35,110.40 L196.79,104.44 L201.26,99.20 L204.75,94.84 L207.26,91.52 L209.29,88.68" fill="none" stroke="#1e1e1e" stroke-width="1" stroke-linejoin="round"/><path d="M209.28,88.68 L211.05,86.46 L212.95,84.73 L214.96,83.47 L217.04,82.66 L219.15,82.27 L221.26,82.27 L223.34,82.64 L225.34,83.36 L227.24,84.40 L229.00,85.73 L230.58,87.34 L231.95,89.19 L233.08,91.26 L233.93,93.53 L234.47,95.97 L234.65,98.55 L234.65,156.63 L234.10,160.34 L232.89,163.88 L231.05,167.15 L228.64,170.02 L176.29,222.14 L173.74,224.24 L170.84,225.80 L167.69,226.76 L164.41,227.10 L161.13,226.78 L154.63,225.34 L138.18,221.37 L127.65,218.60 L116.34,215.39 L104.83,211.82 L93.68,207.95 L88.42,205.92 L83.46,203.84 L78.89,201.72 L74.76,199.56 L71.15,197.38 L68.13,195.18 L65.77,192.97 L64.14,190.77 L63.63,189.66 L63.32,188.57 L63.23,187.47 L63.37,186.38 L63.75,185.30 L64.38,184.22 L65.25,183.15 L66.40,182.09 L67.81,181.04 L69.51,180.00 L73.78,177.96 L79.28,175.98 L86.09,174.06 L93.46,172.05 L100.62,169.80 L107.57,167.32 L114.29,164.63 L120.80,161.77 L127.09,158.73 L133.16,155.56 L139.00,152.26 L144.63,148.86 L150.02,145.37 L155.19,141.82 L160.14,138.23 L169.34,131.00 L177.61,123.85 L184.95,116.93 L191.35,110.40 L196.79,104.44 L201.26,99.20 L204.75,94.84 L207.26,91.52 L209.29,88.68" fill="none" stroke="#1e1e1e" stroke-width="1" stroke-linejoin="round"/><path d="M209.28,88.68 L211.05,86.46 L212.95,84.73 L214.96,83.47 L217.04,82.66 L219.15,82.27 L221.26,82.27 L223.34,82.64 L225.34,83.36 L227.24,84.40 L229.00,85.73 L230.58,87.34 L231.95,89.19 L233.08,91.26 L233.93,93.53 L234.47,95.97 L234.65,98.55 L234.65,156.63 L234.10,160.34 L232.89,163.88 L231.05,167.15 L228.64,170.02 L176.29,222.14 L173.74,224.24 L170.84,225.80 L167.69,226.76 L164.41,227.10 L161.13,226.78 L154.63,225.34 L138.18,221.37 L127.65,218.60 L116.34,215.39 L104.83,211.82 L93.68,207.95 L88.42,205.92 L83.46,203.84 L78.89,201.72 L74.76,199.56 L71.15,197.38 L68.13,195.18 L65.77,192.97 L64.14,190.77 L63.63,189.66 L63.32,188.57 L63.23,187.47 L63.37,186.38 L63.75,185.30 L64.38,184.22 L65.25,183.15 L66.40,182.09 L67.81,181.04 L69.51,180.00 L73.78,177.96 L79.28,175.98 L86.09,174.06 L93.46,172.05 L100.62,169.80 L107.57,167.32 L114.29,164.63 L120.80,161.77 L127.09,158.73 L133.16,155.56 L139.00,152.26 L144.63,148.86 L150.02,145.37 L155.19,141.82 L160.14,138.23 L169.34,131.00 L177.61,123.85 L184.95,116.93 L191.35,110.40 L196.79,104.44 L201.26,99.20 L204.75,94.84 L207.26,91.52 L209.29,88.68" fill="none" stroke="#1e1e1e" stroke-width="1" stroke-linejoin="round"/><path d="M188.67,210.03 L188.73,210.08 L224.49,174.39 L222.31,176.25 L219.77,177.87 L216.88,179.23 L213.68,180.34 L210.19,181.19 L206.45,181.79 L202.47,182.11 L198.28,182.17 L193.92,181.96 L189.42,181.47 L184.79,180.70 L180.07,179.65 L175.28,178.31 L170.46,176.68 L165.63,174.76 L160.81,172.54 L157.67,170.87 L154.65,169.03 L151.75,167.03 L148.94,164.87 L146.24,162.58 L143.64,160.17 L138.68,155.00 L134.04,149.46 L129.66,143.63 L125.50,137.61 L121.50,131.49 L63.80,40.28 L26.46,78.66 L24.26,81.36 L22.59,84.41 L21.50,87.71 L21.02,91.16 L21.23,164.95 L21.25,166.81 L21.44,168.64 L21.82,170.43 L22.36,172.17 L23.07,173.84 L23.94,175.43 L24.97,176.93 L26.14,178.32 L73.61,229.22 L76.22,231.51 L79.25,233.22 L82.56,234.28 L86.02,234.64 L156.97,234.64 L158.60,234.55 L160.21,234.29 L161.78,233.87 L163.31,233.30 L166.19,231.72 L168.77,229.62 L188.67,210.03 Z" fill="#4f1a1a" stroke="#1e1e1e" stroke-width="1" stroke-linejoin="round"/><path d="M188.67,210.03 L188.73,210.08 L224.49,174.39 L222.31,176.25 L219.77,177.87 L216.88,179.23 L213.68,180.34 L210.19,181.19 L206.45,181.79 L202.47,182.11 L198.28,182.17 L193.92,181.96 L189.42,181.47 L184.79,180.70 L180.07,179.65 L175.28,178.31 L170.46,176.68 L165.63,174.76 L160.81,172.54 L157.67,170.87 L154.65,169.03 L151.75,167.03 L148.94,164.87 L146.24,162.58 L143.64,160.17 L138.68,155.00 L134.04,149.46 L129.66,143.63 L125.50,137.61 L121.50,131.49 L63.80,40.28 L26.46,78.66 L24.26,81.36 L22.59,84.41 L21.50,87.71 L21.02,91.16 L21.23,164.95 L21.25,166.81 L21.44,168.64 L21.82,170.43 L22.36,172.17 L23.07,173.84 L23.94,175.43 L24.97,176.93 L26.14,178.32 L73.61,229.22 L76.22,231.51 L79.25,233.22 L82.56,234.28 L86.02,234.64 L156.97,234.64 L158.60,234.55 L160.21,234.29 L161.78,233.87 L163.31,233.30 L166.19,231.72 L168.77,229.62 L188.67,210.03 Z" fill="#138bd7" stroke="#1e1e1e" stroke-width="1" stroke-linejoin="round"/><path d="M188.67,210.03 L188.73,210.08 L224.49,174.39 L222.31,176.25 L219.77,177.87 L216.88,179.23 L213.68,180.34 L210.19,181.19 L206.45,181.79 L202.47,182.11 L198.28,182.17 L193.92,181.96 L189.42,181.47 L184.79,180.70 L180.07,179.65 L175.28,178.31 L170.46,176.68 L165.63,174.76 L160.81,172.54 L157.67,170.87 L154.65,169.03 L151.75,167.03 L148.94,164.87 L146.24,162.58 L143.64,160.17 L138.68,155.00 L134.04,149.46 L129.66,143.63 L125.50,137.61 L121.50,131.49 L63.80,40.28 L26.46,78.66 L24.26,81.36 L22.59,84.41 L21.50,87.71 L21.02,91.16 L21.23,164.95 L21.25,166.81 L21.44,168.64 L21.82,170.43 L22.36,172.17 L23.07,173.84 L23.94,175.43 L24.97,176.93 L26.14,178.32 L73.61,229.22 L76.22,231.51 L79.25,233.22 L82.56,234.28 L86.02,234.64 L156.97,234.64 L158.60,234.55 L160.21,234.29 L161.78,233.87 L163.31,233.30 L166.19,231.72 L168.77,229.62 L188.67,210.03 Z" fill="#12a7eb" stroke="#1e1e1e" stroke-width="1" stroke-linejoin="round"/><path d="M188.67,210.03 L188.73,210.08 L224.49,174.39 L222.31,176.25 L219.77,177.87 L216.88,179.23 L213.68,180.34 L210.19,181.19 L206.45,181.79 L202.47,182.11 L198.28,182.17 L193.92,181.96 L189.42,181.47 L184.79,180.70 L180.07,179.65 L175.28,178.31 L170.46,176.68 L165.63,174.76 L160.81,172.54 L157.67,170.87 L154.65,169.03 L151.75,167.03 L148.94,164.87 L146.24,162.58 L143.64,160.17 L138.68,155.00 L134.04,149.46 L129.66,143.63 L125.50,137.61 L121.50,131.49 L63.80,40.28 L26.46,78.66 L24.26,81.36 L22.59,84.41 L21.50,87.71 L21.02,91.16 L21.23,164.95 L21.25,166.81 L21.44,168.64 L21.82,170.43 L22.36,172.17 L23.07,173.84 L23.94,175.43 L24.97,176.93 L26.14,178.32 L73.61,229.22 L76.22,231.51 L79.25,233.22 L82.56,234.28 L86.02,234.64 L156.97,234.64 L158.60,234.55 L160.21,234.29 L161.78,233.87 L163.31,233.30 L166.19,231.72 L168.77,229.62 L188.67,210.03 Z" fill="#000000" stroke="#1e1e1e" stroke-width="1" stroke-linejoin="round"/><path d="M54.45,159.20 L57.24,154.04 L59.86,149.63 L62.43,145.84 L65.02,142.54 L67.73,139.59 L70.64,136.87 L73.86,134.24 L77.47,131.57 L86.22,125.59 L97.63,117.86 L112.41,107.35 L121.30,100.71 L131.31,92.99 L136.09,89.09 L140.63,85.12 L144.91,81.11 L148.96,77.08 L152.76,73.03 L156.33,69.00 L162.78,61.06 L168.35,53.41 L173.08,46.20 L177.00,39.61 L180.15,33.78 L181.00,31.40 L181.12,28.88 L180.50,26.44 L179.19,24.29 L177.30,22.61 L175.01,21.56 L172.51,21.23 L89.42,21.23 L87.72,21.32 L86.06,21.57 L84.43,22.00 L82.85,22.58 L81.34,23.32 L79.89,24.21 L78.53,25.24 L77.27,26.42 L26.17,78.95 L23.97,81.72 L22.34,84.87 L21.34,88.26 L21.01,91.79 L21.01,165.40 L21.10,167.15 L21.34,168.87 L21.74,170.55 L22.29,172.18 L22.98,173.75 L23.83,175.25 L24.81,176.66 L25.92,177.97 L66.99,221.95 L65.77,220.56 L62.72,216.61 L60.77,213.79 L58.69,210.46 L56.58,206.67 L54.55,202.47 L52.72,197.90 L51.19,193.00 L50.07,187.81 L49.47,182.39 L49.40,179.60 L49.50,176.77 L49.79,173.90 L50.27,171.00 L50.97,168.08 L51.88,165.13 L53.04,162.17 L54.45,159.20" fill="none" stroke="#1e1e1e" stroke-width="1" stroke-linejoin="round"/><path d="M54.45,159.20 L57.24,154.04 L59.86,149.63 L62.43,145.84 L65.02,142.54 L67.73,139.59 L70.64,136.87 L73.86,134.24 L77.47,131.57 L86.22,125.59 L97.63,117.86 L112.41,107.35 L121.30,100.71 L131.31,92.99 L136.09,89.09 L140.63,85.12 L144.91,81.11 L148.96,77.08 L152.76,73.03 L156.33,69.00 L162.78,61.06 L168.35,53.41 L173.08,46.20 L177.00,39.61 L180.15,33.78 L181.00,31.40 L181.12,28.88 L180.50,26.44 L179.19,24.29 L177.30,22.61 L175.01,21.56 L172.51,21.23 L89.42,21.23 L87.72,21.32 L86.06,21.57 L84.43,22.00 L82.85,22.58 L81.34,23.32 L79.89,24.21 L78.53,25.24 L77.27,26.42 L26.17,78.95 L23.97,81.72 L22.34,84.87 L21.34,88.26 L21.01,91.79 L21.01,165.40 L21.10,167.15 L21.34,168.87 L21.74,170.55 L22.29,172.18 L22.98,173.75 L23.83,175.25 L24.81,176.66 L25.92,177.97 L66.99,221.95 L65.77,220.56 L62.72,216.61 L60.77,213.79 L58.69,210.46 L56.58,206.67 L54.55,202.47 L52.72,197.90 L51.19,193.00 L50.07,187.81 L49.47,182.39 L49.40,179.60 L49.50,176.77 L49.79,173.90 L50.27,171.00 L50.97,168.08 L51.88,165.13 L53.04,162.17 L54.45,159.20" fill="none" stroke="#1e1e1e" stroke-width="1" stroke-linejoin="round"/><path d="M54.45,159.20 L57.24,154.04 L59.86,149.63 L62.43,145.84 L65.02,142.54 L67.73,139.59 L70.64,136.87 L73.86,134.24 L77.47,131.57 L86.22,125.59 L97.63,117.86 L112.41,107.35 L121.30,100.71 L131.31,92.99 L136.09,89.09 L140.63,85.12 L144.91,81.11 L148.96,77.08 L152.76,73.03 L156.33,69.00 L162.78,61.06 L168.35,53.41 L173.08,46.20 L177.00,39.61 L180.15,33.78 L181.00,31.40 L181.12,28.88 L180.50,26.44 L179.19,24.29 L177.30,22.61 L175.01,21.56 L172.51,21.23 L89.42,21.23 L87.72,21.32 L86.06,21.57 L84.43,22.00 L82.85,22.58 L81.34,23.32 L79.89,24.21 L78.53,25.24 L77.27,26.42 L26.17,78.95 L23.97,81.72 L22.34,84.87 L21.34,88.26 L21.01,91.79 L21.01,165.40 L21.10,167.15 L21.34,168.87 L21.74,170.55 L22.29,172.18 L22.98,173.75 L23.83,175.25 L24.81,176.66 L25.92,177.97 L66.99,221.95 L65.77,220.56 L62.72,216.61 L60.77,213.79 L58.69,210.46 L56.58,206.67 L54.55,202.47 L52.72,197.90 L51.19,193.00 L50.07,187.81 L49.47,182.39 L49.40,179.60 L49.50,176.77 L49.79,173.90 L50.27,171.00 L50.97,168.08 L51.88,165.13 L53.04,162.17 L54.45,159.20" fill="none" stroke="#1e1e1e" stroke-width="1" stroke-linejoin="round"/><path d="M54.45,159.20 L57.24,154.04 L59.86,149.63 L62.43,145.84 L65.02,142.54 L67.73,139.59 L70.64,136.87 L73.86,134.24 L77.47,131.57 L86.22,125.59 L97.63,117.86 L112.41,107.35 L121.30,100.71 L131.31,92.99 L136.09,89.09 L140.63,85.12 L144.91,81.11 L148.96,77.08 L152.76,73.03 L156.33,69.00 L162.78,61.06 L168.35,53.41 L173.08,46.20 L177.00,39.61 L180.15,33.78 L181.00,31.40 L181.12,28.88 L180.50,26.44 L179.19,24.29 L177.30,22.61 L175.01,21.56 L172.51,21.23 L89.42,21.23 L87.72,21.32 L86.06,21.57 L84.43,22.00 L82.85,22.58 L81.34,23.32 L79.89,24.21 L78.53,25.24 L77.27,26.42 L26.17,78.95 L23.97,81.72 L22.34,84.87 L21.34,88.26 L21.01,91.79 L21.01,165.40 L21.10,167.15 L21.34,168.87 L21.74,170.55 L22.29,172.18 L22.98,173.75 L23.83,175.25 L24.81,176.66 L25.92,177.97 L66.99,221.95 L65.77,220.56 L62.72,216.61 L60.77,213.79 L58.69,210.46 L56.58,206.67 L54.55,202.47 L52.72,197.90 L51.19,193.00 L50.07,187.81 L49.47,182.39 L49.40,179.60 L49.50,176.77 L49.79,173.90 L50.27,171.00 L50.97,168.08 L51.88,165.13 L53.04,162.17 L54.45,159.20" fill="none" stroke="#1e1e1e" stroke-width="1" stroke-linejoin="round"/></svg>