<svg xmlns="http://www.w3.org/2000/svg" viewBox="6.72 6.72 99.82 100.00"><path d="M8.72,21.80 L9.05,18.89 L10.01,16.12 L11.57,13.64 L13.64,11.57 L16.12,10.01 L18.89,9.05 L21.80,8.72 L82.83,8.72 L85.74,9.05 L88.51,10.01 L90.99,11.57 L93.06,13.64 L94.61,16.12 L95.58,18.89 L95.91,21.80 L95.91,82.83 L95.58,85.74 L94.61,88.51 L93.06,90.99 L90.99,93.06 L88.51,94.61 L85.74,95.58 L82.83,95.91 L21.80,95.91 L18.89,95.58 L16.12,94.61 L13.64,93.06 L11.57,90.99 L10.01,88.51 L9.05,85.74 L8.72,82.83 L8.72,21.80 Z" fill="#f5f5f5" stroke="#1e1e1e" stroke-width="1" stroke-linejoin="round"/><path d="M8.72,21.80 L9.05,18.89 L10.01,16.12 L11.57,13.64 L13.64,11.57 L16.12,10.01 L18.89,9.05 L21.80,8.72 L82.83,8.72 L85.74,9.05 L88.51,10.01 L90.99,11.57 L93.06,13.64 L94.61,16.12 L95.58,18.89 L95.91,21.80 L95.91,82.83 L95.58,85.74 L94.61,88.51 L93.06,90.99 L90.99,93.06 L88.51,94.61 L85.74,95.58 L82.83,95.91 L21.80,95.91 L18.89,95.58 L16.12,94.61 L13.64,93.06 L11.57,90.99 L10.01,88.51 L9.05,85.74 L8.72,82.83 L8.72,21.80 Z" fill="#e3e3e3" stroke="#1e1e1e" stroke-width="1" stroke-linejoin="round" opacity="0.2"/><path d="M21.80,8.72 L18.89,9.05 L16.12,10.01 L13.64,11.57 L11.57,13.64 L10.01,16.12 L9.05,18.89 L8.72,21.80 L8.72,82.83 L9.05,85.74 L10.01,88.51 L11.57,90.99 L13.64,93.06 L16.12,94.61 L18.89,95.58 L21.80,95.91 L82.83,95.91 L85.74,95.58 L88.51,94.61 L90.99,93.06 L93.06,90.99 L94.61,88.51 L95.58,85.74 L95.91,82.83 L95.91,21.80 L95.58,18.89 L94.61,16.12 L93.06,13.64 L90.99,11.57 L88.51,10.01 L85.74,9.05 L82.83,8.72 L21.80,8.72 Z" fill="#a2a2a2" stroke="#1e1e1e" stroke-width="1" stroke-linejoin="round"/><path d="M82.83,13.08 L21.80,13.08 L19.54,13.38 L17.44,14.25 L15.63,15.63 L14.25,17.44 L13.38,19.54 L13.08,21.80 L13.08,82.83 L13.38,85.09 L14.25,87.19 L15.63,89.00 L17.44,90.38 L19.54,91.25 L21.80,91.55 L82.83,91.55 L85.09,91.25 L87.19,90.38 L89.00,89.00 L90.38,87.19 L91.25,85.09 L91.55,82.83 L91.55,21.80 L91.25,19.54 L90.38,17.44 L89.00,15.63 L87.19,14.25 L85.09,13.38 L82.83,13.08 Z" fill="#f1f1f1" stroke="#1e1e1e" stroke-width="1" stroke-linejoin="round"/><path d="M52.31,47.96 L56.15,47.81 L59.79,47.39 L63.16,46.70 L66.18,45.76 L68.00,44.99 L69.72,44.03 L69.75,68.66 L69.63,69.89 L69.29,71.03 L68.75,72.08 L68.04,73.04 L67.19,73.92 L66.23,74.70 L64.09,76.01 L61.56,77.05 L58.72,77.83 L55.62,78.31 L52.34,78.47 L49.05,78.31 L45.95,77.83 L43.11,77.05 L40.59,76.01 L38.44,74.71 L37.48,73.92 L36.63,73.04 L35.93,72.08 L35.39,71.03 L35.04,69.89 L34.92,68.66 L34.89,44.01 L36.61,44.98 L38.45,45.76 L41.47,46.70 L44.84,47.39 L48.48,47.81 L52.31,47.96 L52.31,47.96 Z" fill="#0077bd" stroke="#1e1e1e" stroke-width="1" stroke-linejoin="round"/><path d="M34.92,37.51 L35.11,38.13 L35.46,38.74 L36.60,39.89 L38.26,40.93 L40.38,41.83 L42.91,42.57 L45.79,43.12 L48.94,43.47 L52.31,43.60 L55.75,43.47 L58.95,43.10 L61.87,42.53 L64.42,41.76 L66.55,40.83 L68.19,39.77 L69.27,38.58 L69.59,37.96 L69.74,37.31 L69.75,37.06 L69.66,36.39 L69.40,35.74 L68.97,35.11 L68.38,34.51 L66.78,33.40 L64.65,32.43 L62.07,31.63 L59.11,31.03 L55.84,30.65 L52.33,30.52 L48.82,30.65 L45.55,31.03 L42.60,31.63 L40.02,32.43 L37.90,33.40 L36.29,34.51 L35.71,35.11 L35.28,35.74 L35.01,36.39 L34.92,37.06 L34.93,37.30 L34.97,37.55 L34.92,37.51 L34.92,37.51 Z" fill="#0077bd" stroke="#1e1e1e" stroke-width="1" stroke-linejoin="round"/><path d="M102.71,67.31 L101.72,66.50 L100.60,65.89 L99.38,65.52 L98.09,65.39 L76.29,65.39 L75.06,65.52 L73.89,65.87 L73.28,66.18 L72.72,66.53 L71.77,67.32 L70.80,68.53 L70.62,68.84 L70.28,69.45 L69.97,70.32 L69.84,70.84 L69.84,71.10 L69.76,72.16 L69.84,73.24 L70.10,74.17 L70.49,75.04 L71.00,75.85 L71.63,76.55 L72.06,76.99 L71.14,77.52 L70.32,78.21 L67.22,81.31 L66.02,82.96 L65.39,84.90 L65.39,86.95 L66.02,88.89 L67.22,90.55 L68.09,91.26 L69.06,91.81 L67.22,93.64 L66.02,95.30 L65.39,97.24 L65.39,99.29 L66.02,101.23 L67.22,102.89 L68.88,104.09 L70.82,104.72 L72.87,104.72 L74.81,104.09 L76.47,102.89 L78.30,101.05 L78.85,102.02 L79.56,102.89 L81.22,104.09 L83.16,104.72 L85.21,104.72 L87.15,104.09 L88.80,102.89 L91.90,99.79 L92.57,98.95 L93.08,98.00 L93.43,98.35 L94.16,98.99 L94.97,99.51 L95.83,99.90 L96.74,100.14 L97.61,100.27 L98.05,100.27 L99.33,100.14 L100.62,99.75 L101.71,99.14 L102.28,98.70 L102.54,98.44 L103.19,97.70 L103.41,97.35 L103.90,96.50 L104.25,95.60 L104.47,94.66 L104.54,93.69 L104.54,71.93 L104.41,70.65 L104.04,69.43 L103.44,68.30 L102.62,67.31 L102.71,67.31 Z" fill="#f5f5f5" stroke="#1e1e1e" stroke-width="1" stroke-linejoin="round"/><path d="M76.31,69.75 L98.11,69.75 L99.20,70.04 L100.00,70.84 L100.29,71.93 L100.29,93.73 L100.19,94.36 L99.92,94.94 L99.85,95.04 L99.45,95.45 L98.94,95.74 L98.11,95.91 L97.28,95.75 L96.57,95.27 L74.77,73.48 L74.26,72.67 L74.14,71.73 L74.43,70.82 L74.48,70.76 L74.54,70.66 L75.32,69.99 L76.31,69.75 L76.31,69.75 Z" fill="#0077bd" stroke="#1e1e1e" stroke-width="1" stroke-linejoin="round"/><path d="M76.55,81.32 L77.12,82.30 L77.12,83.42 L76.55,84.40 L73.48,87.48 L72.50,88.03 L71.39,88.02 L70.42,87.46 L69.86,86.49 L69.85,85.38 L70.39,84.40 L73.48,81.32 L74.45,80.75 L75.58,80.75 L76.56,81.32 L76.55,81.32 Z" fill="#0077bd" stroke="#0077bd" stroke-width="1" stroke-linejoin="round"/><path d="M88.89,93.65 L89.46,94.63 L89.46,95.76 L88.89,96.73 L85.80,99.82 L84.83,100.40 L83.68,100.41 L82.70,99.84 L82.13,98.85 L82.14,97.71 L82.72,96.73 L85.80,93.65 L86.78,93.09 L87.91,93.09 L88.89,93.65 L88.89,93.65 Z" fill="#0077bd" stroke="#0077bd" stroke-width="1" stroke-linejoin="round"/><path d="M82.72,87.49 L83.29,88.46 L83.29,89.59 L82.72,90.57 L73.47,99.82 L72.49,100.40 L71.35,100.41 L70.36,99.84 L69.79,98.85 L69.80,97.71 L70.39,96.73 L79.64,87.49 L80.62,86.92 L81.75,86.92 L82.72,87.49 Z" fill="#0077bd" stroke="#0077bd" stroke-width="1" stroke-linejoin="round"/></svg>