<svg xmlns="http://www.w3.org/2000/svg" viewBox="1.20 5.47 100.00 91.47"><path d="M97.01,70.64 L69.49,22.96 L70.91,26.64 L72.06,30.42 L72.90,34.28 L73.45,38.19 L73.70,42.13 L73.64,46.08 L68.88,45.73 L69.39,45.90 L70.55,46.41 L71.21,46.76 L71.84,47.19 L72.37,47.67 L72.73,48.21 L72.91,48.67 L73.03,49.19 L73.14,50.39 L73.06,51.77 L72.83,53.30 L72.45,54.95 L71.97,56.69 L71.38,58.48 L70.73,60.29 L69.27,63.86 L67.76,67.12 L66.35,69.83 L65.23,71.72 L63.56,74.05 L61.65,76.43 L59.61,78.75 L57.55,80.90 L55.58,82.77 L53.82,84.24 L53.06,84.79 L52.38,85.20 L51.81,85.46 L51.36,85.55 L50.95,85.51 L50.67,85.44 L50.46,85.33 L47.62,87.03 L44.67,88.68 L41.63,90.23 L38.49,91.64 L35.28,92.86 L33.66,93.38 L32.01,93.84 L30.36,94.24 L28.70,94.55 L27.02,94.79 L25.34,94.94 L82.99,94.94 L84.14,94.90 L85.27,94.78 L86.36,94.59 L87.43,94.33 L88.45,94.01 L89.45,93.62 L90.40,93.17 L91.31,92.66 L92.19,92.09 L93.02,91.48 L93.81,90.81 L94.55,90.10 L95.24,89.34 L95.88,88.54 L97.01,86.84 L97.92,85.01 L98.29,84.05 L98.60,83.07 L98.85,82.08 L99.03,81.06 L99.15,80.03 L99.20,78.99 L99.19,77.95 L99.10,76.89 L98.94,75.84 L98.71,74.79 L98.40,73.74 L98.02,72.69 L97.55,71.66 L97.01,70.64 L97.01,70.64 Z" fill="#024ab0" stroke="#1e1e1e" stroke-width="1" stroke-linejoin="round"/><path d="M97.01,70.64 L69.49,22.96 L70.91,26.64 L72.06,30.42 L72.90,34.28 L73.45,38.19 L73.70,42.13 L73.64,46.08 L68.88,45.73 L69.39,45.90 L70.55,46.41 L71.21,46.76 L71.84,47.19 L72.37,47.67 L72.73,48.21 L72.91,48.67 L73.03,49.19 L73.14,50.39 L73.06,51.77 L72.83,53.30 L72.45,54.95 L71.97,56.69 L71.38,58.48 L70.73,60.29 L69.27,63.86 L67.76,67.12 L66.35,69.83 L65.23,71.72 L63.56,74.05 L61.65,76.43 L59.61,78.75 L57.55,80.90 L55.58,82.77 L53.82,84.24 L53.06,84.79 L52.38,85.20 L51.81,85.46 L51.36,85.55 L50.95,85.51 L50.67,85.44 L50.46,85.33 L47.62,87.03 L44.67,88.68 L41.63,90.23 L38.49,91.64 L35.28,92.86 L33.66,93.38 L32.01,93.84 L30.36,94.24 L28.70,94.55 L27.02,94.79 L25.34,94.94 L82.99,94.94 L84.14,94.90 L85.27,94.78 L86.36,94.59 L87.43,94.33 L88.45,94.01 L89.45,93.62 L90.40,93.17 L91.31,92.66 L92.19,92.09 L93.02,91.48 L93.81,90.81 L94.55,90.10 L95.24,89.34 L95.88,88.54 L97.01,86.84 L97.92,85.01 L98.29,84.05 L98.60,83.07 L98.85,82.08 L99.03,81.06 L99.15,80.03 L99.20,78.99 L99.19,77.95 L99.10,76.89 L98.94,75.84 L98.71,74.79 L98.40,73.74 L98.02,72.69 L97.55,71.66 L97.01,70.64 L97.01,70.64 Z" fill="#041642" stroke="#1e1e1e" stroke-width="1" stroke-linejoin="round" opacity="0.25"/><path d="M97.01,70.64 L69.49,22.96 L70.91,26.64 L72.06,30.42 L72.90,34.28 L73.45,38.19 L73.70,42.13 L73.64,46.08 L68.88,45.73 L69.39,45.90 L70.55,46.41 L71.21,46.76 L71.84,47.19 L72.37,47.67 L72.73,48.21 L72.91,48.67 L73.03,49.19 L73.14,50.39 L73.06,51.77 L72.83,53.30 L72.45,54.95 L71.97,56.69 L71.38,58.48 L70.73,60.29 L69.27,63.86 L67.76,67.12 L66.35,69.83 L65.23,71.72 L63.56,74.05 L61.65,76.43 L59.61,78.75 L57.55,80.90 L55.58,82.77 L53.82,84.24 L53.06,84.79 L52.38,85.20 L51.81,85.46 L51.36,85.55 L50.95,85.51 L50.67,85.44 L50.46,85.33 L47.62,87.03 L44.67,88.68 L41.63,90.23 L38.49,91.64 L35.28,92.86 L33.66,93.38 L32.01,93.84 L30.36,94.24 L28.70,94.55 L27.02,94.79 L25.34,94.94 L82.99,94.94 L84.14,94.90 L85.27,94.78 L86.36,94.59 L87.43,94.33 L88.45,94.01 L89.45,93.62 L90.40,93.17 L91.31,92.66 L92.19,92.09 L93.02,91.48 L93.81,90.81 L94.55,90.10 L95.24,89.34 L95.88,88.54 L97.01,86.84 L97.92,85.01 L98.29,84.05 L98.60,83.07 L98.85,82.08 L99.03,81.06 L99.15,80.03 L99.20,78.99 L99.19,77.95 L99.10,76.89 L98.94,75.84 L98.71,74.79 L98.40,73.74 L98.02,72.69 L97.55,71.66 L97.01,70.64 L97.01,70.64 Z" fill="#000000" stroke="#1e1e1e" stroke-width="1" stroke-linejoin="round" opacity="0.1"/><path d="M92.98,64.07 L94.59,66.44 L65.23,15.57 L64.61,14.59 L63.95,13.67 L63.24,12.82 L62.49,12.02 L61.69,11.30 L60.86,10.63 L59.99,10.03 L59.09,9.49 L58.16,9.02 L57.21,8.61 L56.24,8.26 L55.26,7.98 L54.26,7.75 L53.24,7.60 L51.20,7.47 L49.16,7.60 L48.15,7.75 L47.15,7.98 L46.16,8.26 L45.19,8.61 L44.24,9.02 L43.32,9.49 L42.42,10.03 L41.55,10.63 L40.72,11.30 L39.92,12.02 L39.17,12.82 L38.45,13.67 L37.79,14.59 L37.18,15.57 L8.32,65.58 L9.21,64.35 L10.21,63.17 L11.31,62.03 L12.50,60.92 L13.77,59.85 L15.11,58.82 L17.92,56.87 L20.86,55.06 L23.83,53.40 L26.73,51.89 L29.48,50.52 L29.43,49.66 L29.52,48.85 L29.63,48.43 L29.81,48.03 L30.28,47.39 L30.80,46.96 L31.36,46.66 L31.93,46.43 L33.96,45.66 L36.00,44.98 L38.06,44.39 L40.14,43.90 L42.23,43.48 L44.32,43.16 L46.43,42.92 L48.54,42.77 L50.64,42.71 L52.75,42.73 L54.85,42.84 L56.94,43.04 L59.03,43.31 L61.10,43.68 L63.15,44.12 L65.19,44.65 L67.20,45.26 L69.19,45.96 L71.16,46.73 L73.09,47.59 L74.99,48.53 L76.86,49.55 L78.69,50.65 L80.47,51.82 L82.22,53.08 L83.92,54.42 L85.56,55.83 L87.16,57.33 L88.70,58.90 L90.19,60.54 L91.61,62.27 L92.97,64.07 L92.98,64.07 Z" fill="#1cacf6" stroke="#1e1e1e" stroke-width="1" stroke-linejoin="round"/><path d="M92.98,64.07 L94.59,66.44 L65.23,15.57 L64.61,14.59 L63.95,13.67 L63.24,12.82 L62.49,12.02 L61.69,11.30 L60.86,10.63 L59.99,10.03 L59.09,9.49 L58.16,9.02 L57.21,8.61 L56.24,8.26 L55.26,7.98 L54.26,7.75 L53.24,7.60 L51.20,7.47 L49.16,7.60 L48.15,7.75 L47.15,7.98 L46.16,8.26 L45.19,8.61 L44.24,9.02 L43.32,9.49 L42.42,10.03 L41.55,10.63 L40.72,11.30 L39.92,12.02 L39.17,12.82 L38.45,13.67 L37.79,14.59 L37.18,15.57 L8.32,65.58 L9.21,64.35 L10.21,63.17 L11.31,62.03 L12.50,60.92 L13.77,59.85 L15.11,58.82 L17.92,56.87 L20.86,55.06 L23.83,53.40 L26.73,51.89 L29.48,50.52 L29.43,49.66 L29.52,48.85 L29.63,48.43 L29.81,48.03 L30.28,47.39 L30.80,46.96 L31.36,46.66 L31.93,46.43 L33.96,45.66 L36.00,44.98 L38.06,44.39 L40.14,43.90 L42.23,43.48 L44.32,43.16 L46.43,42.92 L48.54,42.77 L50.64,42.71 L52.75,42.73 L54.85,42.84 L56.94,43.04 L59.03,43.31 L61.10,43.68 L63.15,44.12 L65.19,44.65 L67.20,45.26 L69.19,45.96 L71.16,46.73 L73.09,47.59 L74.99,48.53 L76.86,49.55 L78.69,50.65 L80.47,51.82 L82.22,53.08 L83.92,54.42 L85.56,55.83 L87.16,57.33 L88.70,58.90 L90.19,60.54 L91.61,62.27 L92.97,64.07 L92.98,64.07 Z" fill="#000000" stroke="#1e1e1e" stroke-width="1" stroke-linejoin="round" opacity="0.34"/><path d="M77.32,94.93 L19.42,94.93 L18.26,94.89 L17.14,94.77 L16.04,94.58 L14.98,94.33 L13.95,94.00 L12.96,93.61 L12.00,93.16 L11.09,92.65 L10.22,92.08 L9.39,91.47 L8.60,90.80 L7.86,90.09 L7.17,89.33 L6.52,88.53 L5.39,86.83 L4.48,85.00 L4.11,84.04 L3.80,83.07 L3.56,82.07 L3.37,81.05 L3.25,80.02 L3.20,78.99 L3.22,77.94 L3.31,76.89 L3.46,75.83 L3.70,74.78 L4.00,73.73 L4.39,72.69 L4.85,71.66 L5.39,70.64 L34.74,19.80 L33.24,22.98 L31.96,26.25 L30.91,29.59 L30.09,32.99 L29.50,36.43 L29.14,39.90 L29.02,43.40 L29.13,46.90 L29.48,50.40 L30.07,53.88 L30.91,57.33 L31.99,60.74 L33.32,64.09 L34.08,65.74 L34.90,67.37 L35.78,68.98 L36.73,70.57 L37.73,72.13 L38.81,73.67 L40.62,76.04 L42.55,78.27 L44.58,80.37 L46.70,82.34 L48.91,84.16 L51.21,85.85 L53.58,87.40 L56.03,88.81 L58.53,90.08 L61.10,91.20 L63.71,92.19 L66.37,93.03 L69.07,93.72 L71.80,94.27 L74.55,94.67 L77.32,94.93 L77.32,94.93 Z" fill="#2bd7fa" stroke="#1e1e1e" stroke-width="1" stroke-linejoin="round"/><path d="M77.32,94.93 L19.42,94.93 L18.26,94.89 L17.14,94.77 L16.04,94.58 L14.98,94.33 L13.95,94.00 L12.96,93.61 L12.00,93.16 L11.09,92.65 L10.22,92.08 L9.39,91.47 L8.60,90.80 L7.86,90.09 L7.17,89.33 L6.52,88.53 L5.39,86.83 L4.48,85.00 L4.11,84.04 L3.80,83.07 L3.56,82.07 L3.37,81.05 L3.25,80.02 L3.20,78.99 L3.22,77.94 L3.31,76.89 L3.46,75.83 L3.70,74.78 L4.00,73.73 L4.39,72.69 L4.85,71.66 L5.39,70.64 L34.74,19.80 L33.24,22.98 L31.96,26.25 L30.91,29.59 L30.09,32.99 L29.50,36.43 L29.14,39.90 L29.02,43.40 L29.13,46.90 L29.48,50.40 L30.07,53.88 L30.91,57.33 L31.99,60.74 L33.32,64.09 L34.08,65.74 L34.90,67.37 L35.78,68.98 L36.73,70.57 L37.73,72.13 L38.81,73.67 L40.62,76.04 L42.55,78.27 L44.58,80.37 L46.70,82.34 L48.91,84.16 L51.21,85.85 L53.58,87.40 L56.03,88.81 L58.53,90.08 L61.10,91.20 L63.71,92.19 L66.37,93.03 L69.07,93.72 L71.80,94.27 L74.55,94.67 L77.32,94.93 L77.32,94.93 Z" fill="#9bf0ff" stroke="#1e1e1e" stroke-width="1" stroke-linejoin="round" opacity="0.16"/><path d="M77.32,94.93 L19.42,94.93 L18.26,94.89 L17.14,94.77 L16.04,94.58 L14.98,94.33 L13.95,94.00 L12.96,93.61 L12.00,93.16 L11.09,92.65 L10.22,92.08 L9.39,91.47 L8.60,90.80 L7.86,90.09 L7.17,89.33 L6.52,88.53 L5.39,86.83 L4.48,85.00 L4.11,84.04 L3.80,83.07 L3.56,82.07 L3.37,81.05 L3.25,80.02 L3.20,78.99 L3.22,77.94 L3.31,76.89 L3.46,75.83 L3.70,74.78 L4.00,73.73 L4.39,72.69 L4.85,71.66 L5.39,70.64 L34.74,19.80 L33.24,22.98 L31.96,26.25 L30.91,29.59 L30.09,32.99 L29.50,36.43 L29.14,39.90 L29.02,43.40 L29.13,46.90 L29.48,50.40 L30.07,53.88 L30.91,57.33 L31.99,60.74 L33.32,64.09 L34.08,65.74 L34.90,67.37 L35.78,68.98 L36.73,70.57 L37.73,72.13 L38.81,73.67 L40.62,76.04 L42.55,78.27 L44.58,80.37 L46.70,82.34 L48.91,84.16 L51.21,85.85 L53.58,87.40 L56.03,88.81 L58.53,90.08 L61.10,91.20 L63.71,92.19 L66.37,93.03 L69.07,93.72 L71.80,94.27 L74.55,94.67 L77.32,94.93 L77.32,94.93 Z" fill="#2dcafc" stroke="#1e1e1e" stroke-width="1" stroke-linejoin="round" opacity="0.5"/></svg>