<svg xmlns="http://www.w3.org/2000/svg" viewBox="7.60 7.60 100.00 100.00"><path d="M37.34,105.60 L36.62,105.52 L35.95,105.29 L35.36,104.93 L34.87,104.47 L34.48,103.91 L34.21,103.27 L34.08,102.58 L34.10,101.86 L34.56,99.17 L35.14,96.53 L35.83,93.94 L36.63,91.41 L37.54,88.92 L38.56,86.50 L39.67,84.13 L40.89,81.82 L42.20,79.58 L43.61,77.41 L45.11,75.30 L46.69,73.27 L48.36,71.31 L50.11,69.42 L51.94,67.62 L53.85,65.90 L55.82,64.26 L57.87,62.72 L59.99,61.26 L62.17,59.89 L64.41,58.62 L66.71,57.44 L69.06,56.37 L71.47,55.39 L73.92,54.52 L76.42,53.76 L78.97,53.11 L81.55,52.58 L84.17,52.15 L86.83,51.85 L89.52,51.66 L92.24,51.60 L98.13,51.60 L99.58,51.49 L100.92,51.16 L102.10,50.63 L103.12,49.90 L103.95,48.97 L104.58,47.87 L104.96,46.60 L105.10,45.17 L105.43,43.58 L105.43,71.59 L105.39,72.41 L105.27,73.20 L105.08,73.97 L104.81,74.70 L104.47,75.40 L104.07,76.06 L103.61,76.68 L103.10,77.24 L102.53,77.76 L101.92,78.22 L101.26,78.62 L100.56,78.96 L99.83,79.22 L99.07,79.42 L98.27,79.54 L97.46,79.58 L94.15,79.58 L90.92,79.77 L87.74,80.34 L84.64,81.26 L81.67,82.54 L78.87,84.15 L76.27,86.07 L73.91,88.28 L71.82,90.75 L70.03,93.45 L68.57,96.33 L67.44,99.36 L66.39,102.77 L66.15,103.37 L65.82,103.92 L65.41,104.40 L64.94,104.81 L64.41,105.15 L63.84,105.39 L63.22,105.55 L62.58,105.60 L37.34,105.60 Z" fill="#0b6813" stroke="#1e1e1e" stroke-width="1" stroke-linejoin="round"/><path d="M37.34,105.60 L36.62,105.52 L35.95,105.29 L35.36,104.93 L34.87,104.47 L34.48,103.91 L34.21,103.27 L34.08,102.58 L34.10,101.86 L34.56,99.17 L35.14,96.53 L35.83,93.94 L36.63,91.41 L37.54,88.92 L38.56,86.50 L39.67,84.13 L40.89,81.82 L42.20,79.58 L43.61,77.41 L45.11,75.30 L46.69,73.27 L48.36,71.31 L50.11,69.42 L51.94,67.62 L53.85,65.90 L55.82,64.26 L57.87,62.72 L59.99,61.26 L62.17,59.89 L64.41,58.62 L66.71,57.44 L69.06,56.37 L71.47,55.39 L73.92,54.52 L76.42,53.76 L78.97,53.11 L81.55,52.58 L84.17,52.15 L86.83,51.85 L89.52,51.66 L92.24,51.60 L98.13,51.60 L99.58,51.49 L100.92,51.16 L102.10,50.63 L103.12,49.90 L103.95,48.97 L104.58,47.87 L104.96,46.60 L105.10,45.17 L105.43,43.58 L105.43,71.59 L105.39,72.41 L105.27,73.20 L105.08,73.97 L104.81,74.70 L104.47,75.40 L104.07,76.06 L103.61,76.68 L103.10,77.24 L102.53,77.76 L101.92,78.22 L101.26,78.62 L100.56,78.96 L99.83,79.22 L99.07,79.42 L98.27,79.54 L97.46,79.58 L94.15,79.58 L90.92,79.77 L87.74,80.34 L84.64,81.26 L81.67,82.54 L78.87,84.15 L76.27,86.07 L73.91,88.28 L71.82,90.75 L70.03,93.45 L68.57,96.33 L67.44,99.36 L66.39,102.77 L66.15,103.37 L65.82,103.92 L65.41,104.40 L64.94,104.81 L64.41,105.15 L63.84,105.39 L63.22,105.55 L62.58,105.60 L37.34,105.60 Z" fill="#0f5196" stroke="#1e1e1e" stroke-width="1" stroke-linejoin="round" opacity="0.52"/><path d="M13.60,73.61 L12.80,73.53 L12.05,73.29 L11.37,72.92 L10.77,72.43 L10.28,71.84 L9.92,71.16 L9.68,70.41 L9.60,69.60 L9.60,45.60 L9.68,44.79 L9.92,44.04 L10.28,43.36 L10.77,42.77 L11.37,42.28 L12.05,41.91 L12.80,41.67 L13.60,41.59 L85.46,41.59 L86.26,41.67 L87.01,41.91 L87.69,42.28 L88.28,42.77 L88.77,43.36 L89.14,44.04 L89.38,44.79 L89.46,45.60 L89.46,69.60 L89.38,70.41 L89.14,71.16 L88.77,71.84 L88.28,72.43 L87.69,72.92 L87.01,73.29 L86.26,73.53 L85.46,73.61 L13.60,73.61 Z" fill="#349a0f" stroke="#1e1e1e" stroke-width="1" stroke-linejoin="round"/><path d="M13.60,73.61 L12.80,73.53 L12.05,73.29 L11.37,72.92 L10.77,72.43 L10.28,71.84 L9.92,71.16 L9.68,70.41 L9.60,69.60 L9.60,45.60 L9.68,44.79 L9.92,44.04 L10.28,43.36 L10.77,42.77 L11.37,42.28 L12.05,41.91 L12.80,41.67 L13.60,41.59 L85.46,41.59 L86.26,41.67 L87.01,41.91 L87.69,42.28 L88.28,42.77 L88.77,43.36 L89.14,44.04 L89.38,44.79 L89.46,45.60 L89.46,69.60 L89.38,70.41 L89.14,71.16 L88.77,71.84 L88.28,72.43 L87.69,72.92 L87.01,73.29 L86.26,73.53 L85.46,73.61 L13.60,73.61 Z" fill="#000000" stroke="#1e1e1e" stroke-width="1" stroke-linejoin="round" opacity="0.15"/><path d="M37.38,9.60 L36.65,9.68 L35.98,9.91 L35.39,10.27 L34.88,10.75 L34.49,11.32 L34.21,11.96 L34.08,12.66 L34.10,13.39 L34.56,16.13 L35.14,18.81 L35.84,21.45 L36.65,24.03 L37.57,26.56 L38.60,29.03 L39.73,31.45 L40.96,33.79 L42.29,36.08 L43.72,38.29 L45.24,40.44 L46.85,42.51 L48.54,44.51 L50.32,46.42 L52.18,48.26 L54.12,50.01 L56.13,51.68 L58.21,53.26 L60.36,54.75 L62.57,56.14 L64.85,57.44 L67.19,58.63 L69.58,59.73 L72.03,60.72 L74.53,61.60 L77.07,62.38 L79.66,63.04 L82.29,63.59 L84.96,64.02 L87.67,64.33 L90.40,64.52 L93.17,64.58 L98.13,64.58 L99.75,64.77 L101.29,65.31 L102.67,66.18 L103.83,67.33 L104.69,68.72 L105.23,70.26 L105.41,71.88 L105.41,43.61 L105.37,42.79 L105.25,42.00 L105.05,41.23 L104.78,40.50 L104.45,39.80 L104.05,39.14 L103.59,38.52 L103.08,37.96 L102.51,37.44 L101.90,36.98 L101.24,36.58 L100.54,36.24 L99.81,35.98 L99.04,35.78 L98.25,35.66 L97.44,35.62 L94.13,35.62 L91.85,35.52 L89.61,35.25 L87.42,34.80 L85.29,34.18 L83.23,33.40 L81.24,32.46 L79.34,31.37 L77.53,30.14 L75.83,28.77 L74.23,27.27 L72.75,25.64 L71.40,23.89 L70.18,22.03 L69.10,20.07 L68.18,18.00 L67.42,15.84 L66.37,12.43 L66.12,11.83 L65.80,11.28 L65.39,10.80 L64.92,10.39 L64.39,10.05 L63.82,9.81 L63.20,9.65 L62.56,9.60 L37.38,9.60 Z" fill="#74be47" stroke="#1e1e1e" stroke-width="1" stroke-linejoin="round"/><path d="M97.43,35.59 L94.13,35.59 L92.01,35.51 L89.94,35.27 L87.90,34.89 L85.92,34.35 L83.99,33.67 L82.12,32.86 L80.33,31.91 L78.60,30.84 L78.60,62.76 L82.15,63.54 L85.77,64.11 L89.45,64.46 L93.19,64.58 L98.15,64.58 L99.77,64.77 L101.31,65.31 L102.69,66.18 L103.85,67.33 L104.71,68.72 L105.25,70.26 L105.43,71.88 L105.43,43.61 L105.39,42.79 L105.27,42.00 L105.07,41.23 L104.81,40.50 L104.47,39.80 L104.07,39.14 L103.61,38.52 L103.10,37.96 L102.53,37.44 L101.92,36.98 L101.26,36.58 L100.56,36.24 L99.83,35.98 L99.06,35.78 L98.27,35.66 L97.46,35.62 L97.43,35.59 Z" fill="#e5fac1" stroke="#1e1e1e" stroke-width="1" stroke-linejoin="round" opacity="0.19"/><path d="M37.57,9.60 L36.84,9.68 L36.17,9.91 L35.58,10.27 L35.07,10.75 L34.67,11.32 L34.40,11.96 L34.27,12.66 L34.29,13.39 L34.75,16.13 L35.33,18.81 L36.03,21.45 L36.84,24.03 L37.76,26.56 L38.79,29.03 L39.92,31.45 L41.15,33.79 L42.48,36.08 L43.91,38.29 L45.43,40.44 L47.04,42.51 L48.73,44.51 L50.51,46.42 L52.37,48.26 L54.30,50.01 L56.31,51.68 L58.40,53.26 L60.55,54.75 L62.76,56.14 L65.04,57.44 L67.38,58.63 L69.77,59.73 L72.22,60.72 L74.72,61.60 L77.26,62.38 L79.85,63.04 L82.48,63.59 L85.15,64.02 L87.85,64.33 L90.59,64.52 L93.36,64.58 L98.32,64.58 L99.94,64.77 L101.48,65.31 L102.86,66.18 L104.02,67.33 L104.88,68.72 L105.42,70.26 L105.60,71.88 L105.60,43.61 L105.56,42.79 L105.44,42.00 L105.24,41.23 L104.97,40.50 L104.64,39.80 L104.24,39.14 L103.78,38.52 L103.26,37.96 L102.70,37.44 L102.08,36.98 L101.43,36.58 L100.73,36.24 L100.00,35.98 L99.23,35.78 L98.44,35.66 L97.62,35.62 L94.32,35.62 L92.04,35.52 L89.80,35.25 L87.61,34.80 L85.48,34.18 L83.42,33.40 L81.43,32.46 L79.53,31.37 L77.72,30.14 L76.02,28.77 L74.42,27.27 L72.94,25.64 L71.59,23.89 L70.37,22.03 L69.30,20.07 L68.37,18.00 L67.61,15.84 L66.56,12.43 L66.32,11.83 L65.99,11.28 L65.58,10.80 L65.11,10.39 L64.59,10.05 L64.01,9.81 L63.39,9.65 L62.75,9.60 L37.57,9.60 Z" fill="#fed500" stroke="#1e1e1e" stroke-width="1" stroke-linejoin="round" opacity="0.4"/></svg>