<svg xmlns="http://www.w3.org/2000/svg" viewBox="3.28 4.54 100.00 100.00"><path d="M38.88,73.74 L67.68,73.74 L67.68,102.54 L38.88,102.54 L38.88,73.74 Z" fill="#6fb12a" stroke="#1e1e1e" stroke-width="1" stroke-linejoin="round"/><path d="M5.28,35.34 L34.08,35.34 L34.08,6.54 L9.30,6.54 L7.76,6.85 L6.46,7.72 L5.59,9.02 L5.28,10.56 L5.28,35.34 Z" fill="#6fb12a" stroke="#1e1e1e" stroke-width="1" stroke-linejoin="round"/><path d="M9.30,102.54 L34.08,102.54 L34.08,73.74 L5.28,73.74 L5.28,98.52 L5.59,100.06 L6.46,101.36 L7.76,102.23 L9.30,102.54 L9.30,102.54 Z" fill="#6fb12a" stroke="#1e1e1e" stroke-width="1" stroke-linejoin="round"/><path d="M5.28,68.94 L34.08,68.94 L34.08,40.14 L5.28,40.14 L5.28,68.94 Z" fill="#6fb12a" stroke="#1e1e1e" stroke-width="1" stroke-linejoin="round"/><path d="M72.48,102.54 L97.32,102.54 L98.84,102.22 L100.12,101.34 L100.98,100.04 L101.28,98.52 L101.28,73.74 L72.48,73.74 L72.48,102.54 Z" fill="#6fb12a" stroke="#1e1e1e" stroke-width="1" stroke-linejoin="round"/><path d="M38.88,68.94 L67.68,68.94 L67.68,40.14 L38.88,40.14 L38.88,68.94 Z" fill="#6fb12a" stroke="#1e1e1e" stroke-width="1" stroke-linejoin="round"/><path d="M72.48,68.94 L101.28,68.94 L101.28,40.14 L72.48,40.14 L72.48,68.94 Z" fill="#6fb12a" stroke="#1e1e1e" stroke-width="1" stroke-linejoin="round"/><path d="M72.48,6.54 L72.48,35.34 L101.28,35.34 L101.28,10.56 L100.98,9.04 L100.12,7.74 L98.84,6.86 L97.32,6.54 L72.48,6.54 Z" fill="#6fb12a" stroke="#1e1e1e" stroke-width="1" stroke-linejoin="round"/><path d="M38.88,35.34 L67.68,35.34 L67.68,6.54 L38.88,6.54 L38.88,35.34 Z" fill="#6fb12a" stroke="#1e1e1e" stroke-width="1" stroke-linejoin="round"/></svg>