<svg xmlns="http://www.w3.org/2000/svg" viewBox="2.69 3.81 89.33 89.33"><path d="M34.56,65.55 L60.16,65.55 L60.16,91.15 L34.56,91.15 L34.56,65.55 Z" fill="#6fb12a" stroke="#1e1e1e" stroke-width="1" stroke-linejoin="round"/><path d="M4.69,31.41 L30.29,31.41 L30.29,5.81 L8.27,5.81 L6.90,6.09 L5.74,6.86 L4.97,8.02 L4.69,9.39 L4.69,31.41 Z" fill="#6fb12a" stroke="#1e1e1e" stroke-width="1" stroke-linejoin="round"/><path d="M8.27,91.15 L30.29,91.15 L30.29,65.55 L4.69,65.55 L4.69,87.57 L4.97,88.94 L5.74,90.10 L6.90,90.87 L8.27,91.15 L8.27,91.15 Z" fill="#6fb12a" stroke="#1e1e1e" stroke-width="1" stroke-linejoin="round"/><path d="M4.69,61.28 L30.29,61.28 L30.29,35.68 L4.69,35.68 L4.69,61.28 Z" fill="#6fb12a" stroke="#1e1e1e" stroke-width="1" stroke-linejoin="round"/><path d="M64.43,91.15 L86.51,91.15 L87.86,90.86 L89.00,90.08 L89.76,88.93 L90.03,87.57 L90.03,65.55 L64.43,65.55 L64.43,91.15 Z" fill="#6fb12a" stroke="#1e1e1e" stroke-width="1" stroke-linejoin="round"/><path d="M34.56,61.28 L60.16,61.28 L60.16,35.68 L34.56,35.68 L34.56,61.28 Z" fill="#6fb12a" stroke="#1e1e1e" stroke-width="1" stroke-linejoin="round"/><path d="M64.43,61.28 L90.03,61.28 L90.03,35.68 L64.43,35.68 L64.43,61.28 Z" fill="#6fb12a" stroke="#1e1e1e" stroke-width="1" stroke-linejoin="round"/><path d="M64.43,5.81 L64.43,31.41 L90.03,31.41 L90.03,9.39 L89.76,8.03 L89.00,6.88 L87.86,6.10 L86.51,5.81 L64.43,5.81 Z" fill="#6fb12a" stroke="#1e1e1e" stroke-width="1" stroke-linejoin="round"/><path d="M34.56,31.41 L60.16,31.41 L60.16,5.81 L34.56,5.81 L34.56,31.41 Z" fill="#6fb12a" stroke="#1e1e1e" stroke-width="1" stroke-linejoin="round"/></svg>