<svg xmlns="http://www.w3.org/2000/svg" viewBox="3.37 -2.00 89.23 99.95"><path d="M52.54,66.83 L50.73,67.19 L49.19,68.22 L49.16,68.26 L48.30,68.74 L47.31,68.73 L46.46,68.22 L46.05,67.58 L45.93,66.83 L45.87,50.91 L45.67,50.16 L45.12,49.60 L34.28,43.32 L33.90,44.69 L33.29,45.98 L31.61,48.07 L29.37,49.52 L26.78,50.22 L24.11,50.07 L21.61,49.11 L19.53,47.42 L18.08,45.17 L17.39,42.58 L17.52,39.91 L18.47,37.41 L19.28,36.23 L20.27,35.20 L7.64,27.88 L6.62,27.70 L5.72,28.22 L5.37,29.19 L5.41,56.34 L5.41,71.64 L5.81,73.16 L6.92,74.27 L43.64,95.54 L44.67,95.72 L45.57,95.20 L45.93,94.22 L45.93,86.82 L45.93,76.25 L46.24,75.16 L47.10,74.44 L48.22,74.33 L49.22,74.86 L50.74,75.90 L52.54,76.27 L54.35,75.92 L55.89,74.90 L56.91,73.37 L57.27,71.56 L56.91,69.75 L55.88,68.22 L54.35,67.19 L52.54,66.83 L52.54,66.83 Z" fill="#3c91e5" stroke="#1e1e1e" stroke-width="1" stroke-linejoin="round"/><path d="M72.31,36.99 L71.23,37.25 L70.18,36.86 L69.54,35.95 L69.50,34.83 L69.50,34.83 L69.64,32.98 L69.04,31.22 L67.82,29.85 L66.17,29.05 L64.34,28.94 L62.60,29.54 L61.23,30.76 L60.43,32.41 L60.32,34.24 L60.92,35.98 L62.14,37.35 L63.79,38.15 L64.80,38.81 L65.22,39.94 L64.94,40.98 L64.15,41.72 L50.49,49.60 L49.93,50.16 L49.72,50.92 L49.72,63.45 L51.10,63.10 L52.52,62.99 L55.17,63.41 L57.55,64.64 L59.44,66.53 L60.66,68.91 L61.08,71.56 L60.67,74.19 L59.45,76.57 L57.57,78.46 L55.19,79.67 L52.55,80.09 L51.13,79.97 L49.75,79.63 L49.75,94.46 L50.11,95.43 L51.01,95.95 L52.03,95.77 L89.08,74.38 L90.20,73.26 L90.60,71.72 L90.60,58.64 L90.55,29.03 L90.19,28.06 L89.29,27.54 L88.27,27.72 L72.31,36.99 Z" fill="#3c91e5" stroke="#1e1e1e" stroke-width="1" stroke-linejoin="round"/><path d="M73.36,31.96 L72.97,30.58 L72.36,29.29 L70.66,27.23 L68.41,25.80 L65.82,25.13 L63.15,25.30 L60.67,26.28 L58.61,27.98 L57.18,30.24 L56.52,32.83 L56.69,35.49 L57.67,37.98 L59.38,40.03 L48.57,46.27 L47.81,46.48 L47.05,46.27 L33.29,38.30 L32.54,38.03 L31.75,38.07 L30.90,38.58 L30.41,39.45 L30.42,40.44 L30.54,42.28 L29.95,44.01 L28.74,45.39 L27.09,46.20 L25.25,46.32 L23.52,45.73 L22.14,44.51 L21.33,42.86 L21.22,41.03 L21.81,39.29 L23.03,37.92 L24.68,37.11 L24.68,37.11 L25.49,36.71 L26.00,35.96 L26.10,35.04 L25.77,34.18 L25.08,33.56 L9.35,24.42 L8.68,23.63 L8.68,22.59 L9.35,21.79 L46.40,0.41 L47.92,-0.00 L49.44,0.41 L86.40,21.82 L87.07,22.61 L87.07,23.65 L86.40,24.45 L73.36,31.96 Z" fill="#9563eb" stroke="#1e1e1e" stroke-width="1" stroke-linejoin="round"/></svg>