<svg xmlns="http://www.w3.org/2000/svg" viewBox="-0.21 2.53 100.00 94.53"><path d="M29.51,7.61 L30.17,6.35 L31.16,5.38 L32.40,4.75 L33.80,4.53 L62.24,4.53 L32.72,91.97 L32.06,93.23 L31.07,94.20 L29.84,94.83 L28.43,95.05 L6.30,95.05 L5.19,94.92 L4.19,94.53 L3.33,93.94 L2.63,93.17 L2.12,92.26 L1.83,91.25 L1.79,90.18 L2.02,89.08 L29.51,7.61 Z" fill="#0c5aa4" stroke="#1e1e1e" stroke-width="1" stroke-linejoin="round"/><path d="M74.97,63.37 L30.16,63.37 L29.50,63.47 L28.95,63.75 L28.52,64.17 L28.23,64.68 L28.09,65.26 L28.12,65.86 L28.33,66.44 L28.74,66.96 L57.54,93.84 L58.97,94.74 L60.63,95.05 L86.00,95.05 L74.97,63.37 Z" fill="#0078d4" stroke="#1e1e1e" stroke-width="1" stroke-linejoin="round"/><path d="M33.80,4.53 L32.40,4.75 L31.16,5.38 L30.17,6.35 L29.51,7.61 L2.02,89.08 L1.79,90.18 L1.83,91.25 L2.12,92.26 L2.63,93.17 L3.33,93.94 L4.19,94.53 L5.19,94.92 L6.30,95.05 L28.43,95.05 L29.84,94.83 L31.07,94.20 L32.06,93.23 L32.72,91.97 L38.19,75.78 L57.54,93.83 L58.97,94.74 L60.63,95.05 L86.00,95.05 L74.97,63.37 L42.38,63.37 L62.24,4.53 L33.80,4.53 Z" fill="#000000" stroke="#1e1e1e" stroke-width="1" stroke-linejoin="round" opacity="0.07"/><path d="M70.06,7.61 L69.41,6.35 L68.42,5.38 L67.18,4.75 L65.78,4.53 L33.95,4.53 L34.09,4.53 L35.49,4.75 L36.73,5.38 L37.72,6.35 L38.38,7.61 L65.88,89.08 L66.10,90.18 L66.06,91.25 L65.77,92.26 L65.27,93.17 L64.57,93.94 L63.70,94.53 L62.70,94.92 L61.59,95.05 L61.10,95.05 L93.27,95.05 L94.39,94.92 L95.39,94.53 L96.25,93.94 L96.95,93.17 L97.46,92.26 L97.75,91.25 L97.79,90.18 L97.56,89.08 L70.06,7.61 Z" fill="#32aeea" stroke="#1e1e1e" stroke-width="1" stroke-linejoin="round"/></svg>