<svg xmlns="http://www.w3.org/2000/svg" viewBox="-0.34 5.65 96.76 84.69"><path d="M34.33,9.90 L32.77,8.34 L31.58,7.65 L30.20,7.65 L29.00,8.34 L13.90,23.42 L7.69,17.22 L6.49,16.53 L5.11,16.53 L3.91,17.22 L2.35,18.78 L1.66,19.98 L1.66,21.36 L2.35,22.55 L12.02,32.23 L12.88,32.81 L13.90,33.01 L14.92,32.81 L15.79,32.23 L34.33,13.67 L35.02,12.47 L35.02,11.09 L34.33,9.90 Z" fill="#358ee3" stroke="#1e1e1e" stroke-width="1" stroke-linejoin="round"/><path d="M89.50,15.73 L90.78,15.90 L91.97,16.39 L92.98,17.17 L93.77,18.19 L94.26,19.38 L94.43,20.65 L94.43,20.91 L94.26,22.19 L93.77,23.37 L92.98,24.39 L91.97,25.18 L90.78,25.67 L89.50,25.83 L44.06,25.83 L42.79,25.67 L41.60,25.18 L40.58,24.39 L39.80,23.37 L39.31,22.19 L39.14,20.91 L39.14,20.65 L39.31,19.38 L39.80,18.19 L40.58,17.17 L41.60,16.39 L42.79,15.90 L44.06,15.73 L89.50,15.73 Z" fill="#a3a3a3" stroke="#1e1e1e" stroke-width="1" stroke-linejoin="round"/><path d="M89.50,43.06 L90.78,43.22 L91.97,43.72 L92.98,44.50 L93.77,45.52 L94.26,46.70 L94.43,47.98 L94.43,48.24 L94.26,49.51 L93.77,50.70 L92.98,51.72 L91.97,52.50 L90.78,52.99 L89.50,53.16 L44.06,53.16 L42.79,52.99 L41.60,52.50 L40.58,51.72 L39.80,50.70 L39.31,49.51 L39.14,48.24 L39.14,47.98 L39.31,46.70 L39.80,45.52 L40.58,44.50 L41.60,43.72 L42.79,43.22 L44.06,43.06 L89.50,43.06 Z" fill="#a3a3a3" stroke="#1e1e1e" stroke-width="1" stroke-linejoin="round"/><path d="M89.50,70.38 L90.78,70.55 L91.97,71.04 L92.98,71.82 L93.77,72.84 L94.26,74.03 L94.43,75.30 L94.43,75.56 L94.26,76.84 L93.77,78.02 L92.98,79.04 L91.97,79.83 L90.78,80.32 L89.50,80.49 L44.06,80.49 L42.79,80.32 L41.60,79.83 L40.58,79.04 L39.80,78.02 L39.31,76.84 L39.14,75.56 L39.14,75.30 L39.31,74.03 L39.80,72.84 L40.58,71.82 L41.60,71.04 L42.79,70.55 L44.06,70.38 L89.50,70.38 Z" fill="#a3a3a3" stroke="#1e1e1e" stroke-width="1" stroke-linejoin="round"/><path d="M34.33,37.62 L32.77,36.05 L31.58,35.36 L30.20,35.36 L29.00,36.05 L13.90,51.14 L7.69,44.93 L6.49,44.24 L5.11,44.24 L3.91,44.93 L2.35,46.50 L1.66,47.69 L1.66,49.07 L2.35,50.27 L12.02,59.95 L12.88,60.53 L13.90,60.73 L14.92,60.53 L15.79,59.95 L34.33,41.39 L35.02,40.19 L35.02,38.81 L34.33,37.62 L34.33,37.62 Z" fill="#358ee3" stroke="#1e1e1e" stroke-width="1" stroke-linejoin="round"/><path d="M34.33,65.33 L32.77,63.77 L31.91,63.19 L30.89,62.99 L29.87,63.19 L29.00,63.77 L13.90,78.85 L7.69,72.65 L6.49,71.96 L5.11,71.96 L3.91,72.65 L2.35,74.20 L1.66,75.40 L1.66,76.78 L2.35,77.97 L12.02,87.65 L13.21,88.34 L14.59,88.34 L15.79,87.65 L34.33,69.09 L35.02,67.90 L35.02,66.52 L34.33,65.33 L34.33,65.33 Z" fill="#358ee3" stroke="#1e1e1e" stroke-width="1" stroke-linejoin="round"/></svg>