<svg xmlns="http://www.w3.org/2000/svg" viewBox="-0.28 5.92 100.00 87.51"><path d="M35.53,10.24 L33.92,8.63 L32.68,7.92 L31.25,7.92 L30.01,8.63 L14.38,24.24 L7.95,17.82 L6.72,17.11 L5.29,17.11 L4.05,17.82 L2.43,19.44 L1.72,20.68 L1.72,22.10 L2.43,23.34 L12.44,33.36 L13.33,33.96 L14.39,34.16 L15.44,33.96 L16.34,33.36 L35.53,14.15 L36.24,12.91 L36.24,11.48 L35.53,10.24 Z" fill="#358ee3" stroke="#1e1e1e" stroke-width="1" stroke-linejoin="round"/><path d="M92.63,16.28 L93.94,16.45 L95.17,16.96 L96.23,17.77 L97.04,18.82 L97.55,20.05 L97.72,21.37 L97.72,21.64 L97.55,22.96 L97.04,24.19 L96.23,25.24 L95.17,26.05 L93.94,26.56 L92.63,26.74 L45.60,26.74 L44.28,26.56 L43.05,26.05 L42.00,25.24 L41.19,24.19 L40.68,22.96 L40.51,21.64 L40.51,21.37 L40.68,20.05 L41.19,18.82 L42.00,17.77 L43.05,16.96 L44.28,16.45 L45.60,16.28 L92.63,16.28 Z" fill="#a3a3a3" stroke="#1e1e1e" stroke-width="1" stroke-linejoin="round"/><path d="M92.63,44.56 L93.94,44.73 L95.17,45.24 L96.23,46.05 L97.04,47.10 L97.55,48.33 L97.72,49.65 L97.72,49.92 L97.55,51.24 L97.04,52.47 L96.23,53.52 L95.17,54.33 L93.94,54.84 L92.63,55.02 L45.60,55.02 L44.28,54.84 L43.05,54.33 L42.00,53.52 L41.19,52.47 L40.68,51.24 L40.51,49.92 L40.51,49.65 L40.68,48.33 L41.19,47.10 L42.00,46.05 L43.05,45.24 L44.28,44.73 L45.60,44.56 L92.63,44.56 Z" fill="#a3a3a3" stroke="#1e1e1e" stroke-width="1" stroke-linejoin="round"/><path d="M92.63,72.83 L93.94,73.01 L95.17,73.52 L96.23,74.33 L97.04,75.38 L97.55,76.61 L97.72,77.93 L97.72,78.20 L97.55,79.52 L97.04,80.75 L96.23,81.80 L95.17,82.61 L93.94,83.12 L92.63,83.29 L45.60,83.29 L44.28,83.12 L43.05,82.61 L42.00,81.80 L41.19,80.75 L40.68,79.52 L40.51,78.20 L40.51,77.93 L40.68,76.61 L41.19,75.38 L42.00,74.33 L43.05,73.52 L44.28,73.01 L45.60,72.83 L92.63,72.83 Z" fill="#a3a3a3" stroke="#1e1e1e" stroke-width="1" stroke-linejoin="round"/><path d="M35.53,38.93 L33.92,37.31 L32.68,36.60 L31.25,36.60 L30.01,37.31 L14.38,52.92 L7.95,46.50 L6.72,45.79 L5.29,45.79 L4.05,46.50 L2.43,48.12 L1.72,49.35 L1.72,50.78 L2.43,52.02 L12.44,62.04 L13.33,62.64 L14.39,62.85 L15.44,62.64 L16.34,62.04 L35.53,42.83 L36.24,41.59 L36.24,40.16 L35.53,38.93 L35.53,38.93 Z" fill="#358ee3" stroke="#1e1e1e" stroke-width="1" stroke-linejoin="round"/><path d="M35.53,67.61 L33.92,65.99 L33.02,65.39 L31.96,65.18 L30.91,65.39 L30.01,65.99 L14.38,81.60 L7.95,75.18 L6.72,74.47 L5.29,74.47 L4.05,75.18 L2.43,76.79 L1.72,78.03 L1.72,79.46 L2.43,80.69 L12.44,90.71 L13.67,91.42 L15.10,91.42 L16.34,90.71 L35.53,71.50 L36.24,70.27 L36.24,68.84 L35.53,67.61 Z" fill="#358ee3" stroke="#1e1e1e" stroke-width="1" stroke-linejoin="round"/></svg>