<svg xmlns="http://www.w3.org/2000/svg" viewBox="-2.00 1.13 100.00 93.75"><path d="M96.00,49.86 L95.55,46.09 L94.45,42.46 L92.73,39.08 L90.45,36.05 L87.67,33.47 L84.48,31.41 L80.98,29.95 L77.28,29.12 L76.67,24.46 L75.26,19.97 L73.11,15.80 L70.27,12.05 L66.82,8.85 L62.88,6.30 L58.55,4.46 L53.97,3.39 L49.28,3.13 L44.99,3.38 L40.79,4.28 L36.78,5.82 L33.05,7.96 L29.70,10.65 L26.80,13.82 L24.42,17.39 L22.61,21.30 L18.15,22.25 L13.93,23.97 L10.08,26.41 L6.72,29.49 L3.96,33.12 L1.87,37.18 L0.54,41.54 L0.00,46.06 L0.57,50.57 L1.91,54.91 L3.99,58.96 L6.73,62.58 L10.06,65.67 L13.88,68.14 L18.06,69.91 L22.49,70.93 L27.03,71.16 L29.41,71.06 L73.18,71.06 L73.77,71.01 L74.34,70.89 L78.48,70.46 L82.46,69.26 L86.15,67.32 L89.39,64.72 L92.09,61.55 L94.13,57.93 L95.45,53.98 L96.00,49.86 Z" fill="#2f8ce2" stroke="#1e1e1e" stroke-width="1" stroke-linejoin="round"/><rect x="44.24" y="53.85" width="9.03" height="28.53" fill="#005ba1" stroke="#005ba1" stroke-width="1"/><path d="M74.33,30.93 L73.99,30.18 L73.23,29.87 L60.19,29.87 L59.73,30.17 L59.84,30.71 L63.60,34.47 L63.85,34.72 L63.99,35.07 L63.85,35.41 L59.87,39.40 L57.63,36.93 L54.88,35.05 L51.78,33.86 L51.78,25.99 L51.92,25.65 L52.27,25.50 L57.96,25.50 L58.42,25.19 L58.31,24.66 L49.07,15.39 L48.29,15.07 L47.50,15.39 L38.22,24.66 L38.11,25.19 L38.57,25.50 L44.27,25.50 L44.62,25.64 L44.76,25.99 L44.76,33.86 L41.54,35.10 L38.71,37.08 L36.44,39.69 L32.15,35.42 L32.01,35.07 L32.15,34.73 L32.40,34.47 L36.16,30.74 L36.31,30.17 L35.81,29.87 L22.77,29.87 L21.99,30.19 L21.67,30.97 L21.67,43.99 L21.98,44.45 L22.51,44.34 L26.27,40.61 L26.52,40.36 L26.87,40.21 L27.22,40.36 L34.02,47.14 L34.02,47.67 L34.43,51.09 L35.65,54.30 L37.61,57.14 L40.18,59.42 L43.23,61.02 L46.57,61.84 L50.01,61.84 L53.36,61.02 L56.40,59.42 L58.98,57.14 L60.94,54.30 L62.16,51.09 L62.57,47.67 L62.52,46.60 L68.81,40.31 L69.16,40.17 L69.50,40.31 L69.75,40.56 L73.51,44.32 L74.05,44.42 L74.36,43.97 L74.33,30.93 Z" fill="#ffffff" stroke="#1e1e1e" stroke-width="1" stroke-linejoin="round"/><ellipse cx="48.55" cy="47.69" rx="7.14" ry="7.14" fill="#7cc630" stroke="#7cc630" stroke-width="1"/><ellipse cx="48.63" cy="83.57" rx="9.31" ry="9.31" fill="#2f8ce2" stroke="#1e1e1e" stroke-width="1"/></svg>