<svg xmlns="http://www.w3.org/2000/svg" viewBox="0.82 10.23 100.00 81.18"><path d="M2.82,32.69 L98.82,32.69 L98.82,32.69 L98.82,86.21 L98.39,87.81 L97.22,88.99 L95.62,89.42 L6.03,89.42 L4.43,88.99 L3.25,87.81 L2.82,86.21 L2.82,32.69 L2.82,32.69 Z" fill="#32ccec" stroke="#1e1e1e" stroke-width="1" stroke-linejoin="round"/><path d="M6.05,12.23 L95.60,12.23 L97.20,12.66 L98.38,13.84 L98.81,15.44 L98.81,32.69 L98.81,32.69 L2.82,32.69 L2.82,32.69 L2.82,15.44 L3.26,13.83 L4.44,12.66 L6.05,12.23 L6.05,12.23 Z" fill="#198ab3" stroke="#1e1e1e" stroke-width="1" stroke-linejoin="round"/><path d="M72.38,39.22 L54.99,39.22 L54.02,39.62 L53.61,40.59 L53.61,78.12 L54.02,79.09 L54.99,79.49 L85.14,79.49 L86.11,79.09 L86.52,78.12 L86.52,53.27 L86.12,52.30 L85.14,51.90 L75.13,51.90 L74.16,51.49 L73.76,50.52 L73.76,40.59 L73.36,39.62 L72.38,39.22 L72.38,39.22 Z" fill="#ffffff" stroke="#1e1e1e" stroke-width="1" stroke-linejoin="round"/><path d="M72.42,38.91 L54.78,38.91 L53.79,39.32 L53.38,40.31 L53.38,78.40 L53.79,79.39 L54.78,79.80 L85.38,79.80 L86.37,79.39 L86.78,78.40 L86.78,53.19 L86.37,52.21 L85.38,51.79 L75.22,51.79 L74.23,51.39 L73.82,50.40 L73.82,40.31 L73.42,39.32 L72.43,38.91 L72.42,38.91 Z" fill="#c3f1ff" stroke="#1e1e1e" stroke-width="1" stroke-linejoin="round"/><path d="M71.75,40.98 L71.75,50.40 L72.02,51.72 L72.77,52.84 L73.89,53.59 L75.21,53.86 L84.71,53.86 L84.71,77.74 L55.43,77.74 L55.43,40.98 L71.75,40.98 Z" fill="#ffffff" stroke="#1e1e1e" stroke-width="1" stroke-linejoin="round"/><path d="M86.23,52.07 L73.33,39.22 L73.33,49.69 L73.64,50.88 L74.50,51.75 L75.68,52.07 L86.23,52.07 Z" fill="#50e6ff" stroke="#50e6ff" stroke-width="1" stroke-linejoin="round"/><path d="M35.30,39.22 L17.90,39.22 L16.93,39.62 L16.52,40.59 L16.52,78.12 L16.93,79.09 L17.90,79.49 L48.06,79.49 L49.03,79.09 L49.43,78.12 L49.43,53.27 L49.03,52.30 L48.06,51.90 L38.04,51.90 L37.07,51.49 L36.67,50.52 L36.67,40.59 L36.27,39.62 L35.30,39.22 L35.30,39.22 Z" fill="#ffffff" stroke="#1e1e1e" stroke-width="1" stroke-linejoin="round"/><path d="M35.33,38.91 L17.68,38.91 L16.69,39.32 L16.28,40.31 L16.28,78.40 L16.69,79.39 L17.68,79.80 L48.28,79.80 L49.26,79.39 L49.67,78.40 L49.67,53.19 L49.26,52.20 L48.28,51.79 L38.12,51.79 L37.12,51.39 L36.71,50.40 L36.71,40.31 L36.30,39.32 L35.31,38.91 L35.33,38.91 Z" fill="#c3f1ff" stroke="#1e1e1e" stroke-width="1" stroke-linejoin="round"/><path d="M34.66,40.98 L34.66,50.40 L34.93,51.72 L35.68,52.84 L36.80,53.59 L38.12,53.86 L47.62,53.86 L47.62,77.74 L18.34,77.74 L18.34,40.98 L34.66,40.98 Z" fill="#ffffff" stroke="#1e1e1e" stroke-width="1" stroke-linejoin="round"/><path d="M49.13,52.07 L36.24,39.22 L36.24,49.69 L36.55,50.88 L37.41,51.75 L38.59,52.07 L49.13,52.07 Z" fill="#50e6ff" stroke="#50e6ff" stroke-width="1" stroke-linejoin="round"/></svg>