<svg xmlns="http://www.w3.org/2000/svg" viewBox="0.82 10.23 100.00 81.18"><path d="M2.82,32.69 L98.82,32.69 L98.82,32.69 L98.82,86.21 L98.39,87.81 L97.22,88.99 L95.62,89.42 L6.03,89.42 L4.43,88.99 L3.25,87.81 L2.82,86.21 L2.82,32.69 L2.82,32.69 Z" fill="#32ccec" stroke="#1e1e1e" stroke-width="1" stroke-linejoin="round"/><path d="M6.05,12.23 L95.60,12.23 L97.20,12.66 L98.38,13.84 L98.81,15.44 L98.81,32.69 L98.81,32.69 L2.82,32.69 L2.82,32.69 L2.82,15.44 L3.26,13.83 L4.44,12.66 L6.05,12.23 L6.05,12.23 Z" fill="#0078d4" stroke="#1e1e1e" stroke-width="1" stroke-linejoin="round"/><path d="M47.02,39.81 L47.43,39.86 L47.82,40.02 L48.15,40.27 L48.40,40.61 L48.56,40.99 L48.62,41.40 L48.62,57.45 L48.56,57.87 L48.40,58.25 L48.15,58.58 L47.82,58.84 L47.43,59.00 L47.02,59.05 L14.74,59.05 L14.33,59.00 L13.95,58.84 L13.61,58.58 L13.36,58.25 L13.20,57.87 L13.15,57.45 L13.15,41.40 L13.20,40.99 L13.36,40.61 L13.61,40.27 L13.95,40.02 L14.33,39.86 L14.74,39.81 L47.02,39.81 Z" fill="#0078d4" stroke="#1e1e1e" stroke-width="1" stroke-linejoin="round"/><path d="M86.59,39.81 L87.01,39.86 L87.39,40.02 L87.72,40.27 L87.98,40.61 L88.14,40.99 L88.19,41.40 L88.19,57.45 L88.14,57.87 L87.98,58.25 L87.72,58.58 L87.39,58.84 L87.01,59.00 L86.59,59.05 L54.32,59.05 L53.91,59.00 L53.52,58.84 L53.19,58.58 L52.94,58.25 L52.78,57.87 L52.72,57.45 L52.72,41.40 L52.78,40.99 L52.94,40.61 L53.19,40.27 L53.52,40.02 L53.91,39.86 L54.32,39.81 L86.59,39.81 Z" fill="#ffffff" stroke="#1e1e1e" stroke-width="1" stroke-linejoin="round"/><path d="M46.84,62.84 L47.25,62.89 L47.64,63.05 L47.97,63.31 L48.22,63.64 L48.38,64.02 L48.43,64.44 L48.43,80.49 L48.38,80.90 L48.22,81.29 L47.97,81.62 L47.64,81.87 L47.25,82.03 L46.84,82.09 L14.56,82.09 L14.15,82.03 L13.76,81.87 L13.43,81.62 L13.18,81.29 L13.02,80.90 L12.97,80.49 L12.97,64.44 L13.02,64.02 L13.18,63.64 L13.43,63.31 L13.76,63.05 L14.15,62.89 L14.56,62.84 L46.84,62.84 Z" fill="#0078d4" stroke="#1e1e1e" stroke-width="1" stroke-linejoin="round"/><path d="M86.41,62.84 L86.82,62.89 L87.21,63.05 L87.54,63.31 L87.80,63.64 L87.95,64.02 L88.01,64.44 L88.01,80.49 L87.95,80.90 L87.80,81.29 L87.54,81.62 L87.21,81.87 L86.82,82.03 L86.41,82.09 L54.14,82.09 L53.72,82.03 L53.34,81.87 L53.01,81.62 L52.75,81.29 L52.59,80.90 L52.54,80.49 L52.54,64.44 L52.59,64.02 L52.75,63.64 L53.01,63.31 L53.34,63.05 L53.72,62.89 L54.14,62.84 L86.41,62.84 Z" fill="#0078d4" stroke="#1e1e1e" stroke-width="1" stroke-linejoin="round"/></svg>