<svg xmlns="http://www.w3.org/2000/svg" viewBox="0.67 9.55 94.67 76.90"><path d="M2.67,30.87 L93.33,30.87 L93.33,30.87 L93.33,81.42 L92.93,82.93 L91.82,84.04 L90.30,84.45 L5.70,84.45 L4.18,84.04 L3.07,82.93 L2.67,81.42 L2.67,30.87 L2.67,30.87 Z" fill="#32ccec" stroke="#1e1e1e" stroke-width="1" stroke-linejoin="round"/><path d="M5.71,11.55 L90.29,11.55 L91.80,11.96 L92.91,13.07 L93.32,14.58 L93.32,30.87 L93.32,30.87 L2.67,30.87 L2.67,30.87 L2.67,14.58 L3.08,13.06 L4.19,11.95 L5.71,11.55 L5.71,11.55 Z" fill="#0078d4" stroke="#1e1e1e" stroke-width="1" stroke-linejoin="round"/><path d="M44.41,37.59 L44.80,37.65 L45.16,37.80 L45.47,38.04 L45.71,38.35 L45.86,38.71 L45.91,39.10 L45.91,54.26 L45.86,54.65 L45.71,55.02 L45.47,55.33 L45.16,55.57 L44.80,55.72 L44.41,55.77 L13.93,55.77 L13.53,55.72 L13.17,55.57 L12.86,55.33 L12.62,55.02 L12.47,54.65 L12.42,54.26 L12.42,39.10 L12.47,38.71 L12.62,38.35 L12.86,38.04 L13.17,37.80 L13.53,37.65 L13.93,37.59 L44.41,37.59 Z" fill="#0078d4" stroke="#1e1e1e" stroke-width="1" stroke-linejoin="round"/><path d="M81.78,37.59 L82.17,37.65 L82.54,37.80 L82.85,38.04 L83.09,38.35 L83.24,38.71 L83.29,39.10 L83.29,54.26 L83.24,54.65 L83.09,55.02 L82.85,55.33 L82.54,55.57 L82.17,55.72 L81.78,55.77 L51.30,55.77 L50.91,55.72 L50.55,55.57 L50.23,55.33 L49.99,55.02 L49.84,54.65 L49.79,54.26 L49.79,39.10 L49.84,38.71 L49.99,38.35 L50.23,38.04 L50.55,37.80 L50.91,37.65 L51.30,37.59 L81.78,37.59 Z" fill="#ffffff" stroke="#1e1e1e" stroke-width="1" stroke-linejoin="round"/><path d="M44.23,59.35 L44.63,59.40 L44.99,59.55 L45.30,59.79 L45.54,60.10 L45.69,60.47 L45.74,60.86 L45.74,76.02 L45.69,76.41 L45.54,76.77 L45.30,77.08 L44.99,77.32 L44.63,77.47 L44.23,77.53 L13.75,77.53 L13.36,77.47 L13.00,77.32 L12.69,77.08 L12.45,76.77 L12.30,76.41 L12.25,76.02 L12.25,60.86 L12.30,60.47 L12.45,60.10 L12.69,59.79 L13.00,59.55 L13.36,59.40 L13.75,59.35 L44.23,59.35 Z" fill="#0078d4" stroke="#1e1e1e" stroke-width="1" stroke-linejoin="round"/><path d="M81.61,59.35 L82.00,59.40 L82.37,59.55 L82.68,59.79 L82.92,60.10 L83.07,60.47 L83.12,60.86 L83.12,76.02 L83.07,76.41 L82.92,76.77 L82.68,77.08 L82.37,77.32 L82.00,77.47 L81.61,77.53 L51.13,77.53 L50.74,77.47 L50.38,77.32 L50.06,77.08 L49.82,76.77 L49.67,76.41 L49.62,76.02 L49.62,60.86 L49.67,60.47 L49.82,60.10 L50.06,59.79 L50.38,59.55 L50.74,59.40 L51.13,59.35 L81.61,59.35 Z" fill="#0078d4" stroke="#1e1e1e" stroke-width="1" stroke-linejoin="round"/></svg>