<svg xmlns="http://www.w3.org/2000/svg" viewBox="0.67 9.55 94.67 76.90"><path d="M2.67,30.87 L93.33,30.87 L93.33,30.87 L93.33,81.42 L92.93,82.93 L91.82,84.04 L90.30,84.45 L5.70,84.45 L4.18,84.04 L3.07,82.93 L2.67,81.42 L2.67,30.87 L2.67,30.87 Z" fill="#32ccec" stroke="#1e1e1e" stroke-width="1" stroke-linejoin="round"/><path d="M5.71,11.55 L90.29,11.55 L91.80,11.96 L92.91,13.07 L93.32,14.58 L93.32,30.87 L93.32,30.87 L2.67,30.87 L2.67,30.87 L2.67,14.58 L3.08,13.06 L4.19,11.95 L5.71,11.55 L5.71,11.55 Z" fill="#198ab3" stroke="#1e1e1e" stroke-width="1" stroke-linejoin="round"/><path d="M68.36,37.04 L51.93,37.04 L51.01,37.42 L50.63,38.34 L50.63,73.78 L51.01,74.70 L51.93,75.08 L80.41,75.08 L81.33,74.70 L81.71,73.78 L81.71,50.31 L81.33,49.39 L80.41,49.01 L70.96,49.01 L70.04,48.63 L69.66,47.71 L69.66,38.34 L69.28,37.42 L68.36,37.04 L68.36,37.04 Z" fill="#ffffff" stroke="#1e1e1e" stroke-width="1" stroke-linejoin="round"/><path d="M68.39,36.75 L51.73,36.75 L50.80,37.14 L50.42,38.07 L50.42,74.05 L50.80,74.98 L51.73,75.37 L80.64,75.37 L81.57,74.98 L81.96,74.05 L81.96,50.23 L81.57,49.30 L80.64,48.92 L71.04,48.92 L70.11,48.53 L69.72,47.60 L69.72,38.07 L69.34,37.14 L68.41,36.75 L68.39,36.75 Z" fill="#c3f1ff" stroke="#1e1e1e" stroke-width="1" stroke-linejoin="round"/><path d="M67.77,38.70 L67.77,47.60 L68.02,48.85 L68.72,49.91 L69.78,50.61 L71.03,50.86 L80.00,50.86 L80.00,73.42 L52.35,73.42 L52.35,38.70 L67.77,38.70 Z" fill="#ffffff" stroke="#1e1e1e" stroke-width="1" stroke-linejoin="round"/><path d="M81.44,49.18 L69.26,37.04 L69.26,46.93 L69.55,48.05 L70.36,48.87 L71.48,49.18 L81.44,49.18 Z" fill="#50e6ff" stroke="#50e6ff" stroke-width="1" stroke-linejoin="round"/><path d="M33.34,37.04 L16.90,37.04 L15.98,37.42 L15.61,38.34 L15.61,73.78 L15.98,74.70 L16.90,75.08 L45.39,75.08 L46.30,74.70 L46.68,73.78 L46.68,50.31 L46.30,49.39 L45.39,49.01 L35.93,49.01 L35.01,48.63 L34.63,47.71 L34.63,38.34 L34.26,37.42 L33.34,37.04 L33.34,37.04 Z" fill="#ffffff" stroke="#1e1e1e" stroke-width="1" stroke-linejoin="round"/><path d="M33.37,36.75 L16.69,36.75 L15.76,37.14 L15.38,38.07 L15.38,74.05 L15.76,74.98 L16.69,75.37 L45.59,75.37 L46.53,74.98 L46.91,74.05 L46.91,50.23 L46.53,49.30 L45.59,48.92 L36.00,48.92 L35.06,48.54 L34.67,47.60 L34.67,38.07 L34.28,37.14 L33.35,36.75 L33.37,36.75 Z" fill="#c3f1ff" stroke="#1e1e1e" stroke-width="1" stroke-linejoin="round"/><path d="M32.74,38.70 L32.74,47.60 L32.99,48.85 L33.69,49.91 L34.75,50.61 L36.00,50.86 L44.97,50.86 L44.97,73.42 L17.32,73.42 L17.32,38.70 L32.74,38.70 Z" fill="#ffffff" stroke="#1e1e1e" stroke-width="1" stroke-linejoin="round"/><path d="M46.40,49.18 L34.23,37.04 L34.23,46.93 L34.52,48.05 L35.33,48.87 L36.45,49.18 L46.40,49.18 Z" fill="#50e6ff" stroke="#50e6ff" stroke-width="1" stroke-linejoin="round"/></svg>