<svg xmlns="http://www.w3.org/2000/svg" viewBox="-2.00 -2.00 100.00 100.00"><path d="M45.73,0.94 L46.40,0.43 L47.17,0.11 L48.00,0.00 L48.82,0.11 L49.60,0.43 L50.26,0.94 L95.06,45.74 L95.57,46.40 L95.89,47.17 L95.99,48.00 L95.89,48.83 L95.57,49.60 L95.06,50.26 L50.26,95.06 L49.60,95.57 L48.82,95.89 L48.00,96.00 L47.17,95.89 L46.40,95.57 L45.73,95.06 L0.93,50.26 L0.43,49.60 L0.11,48.83 L-0.00,48.00 L0.11,47.17 L0.43,46.40 L0.93,45.74 L45.73,0.94 Z" fill="#4093e6" stroke="#1e1e1e" stroke-width="1" stroke-linejoin="round"/><path d="M78.55,46.59 L69.53,38.45 L68.73,37.82 L68.17,37.76 L67.85,38.28 L67.74,39.37 L67.74,42.97 L67.41,43.77 L66.61,44.10 L63.79,44.16 L61.03,43.60 L58.45,42.45 L56.19,40.77 L54.35,38.64 L53.01,36.15 L53.01,19.31 L52.81,18.53 L52.24,17.96 L51.46,17.75 L43.69,17.75 L42.91,17.96 L42.34,18.53 L42.13,19.31 L42.13,61.87 L41.91,62.41 L41.37,62.63 L32.53,62.63 L32.00,62.86 L31.78,63.40 L32.00,63.94 L46.37,78.34 L47.14,78.78 L48.03,78.78 L48.79,78.34 L63.19,63.96 L63.42,63.42 L63.20,62.89 L62.66,62.66 L53.78,62.66 L53.23,62.42 L53.01,61.87 L53.01,47.56 L56.16,49.25 L59.52,50.46 L63.03,51.14 L66.60,51.29 L67.41,51.61 L67.74,52.42 L67.74,56.31 L67.89,57.23 L68.28,57.70 L68.84,57.70 L69.53,57.23 L78.55,48.45 L78.98,47.88 L78.98,47.16 L78.55,46.59 Z" fill="#c3f1ff" stroke="#1e1e1e" stroke-width="1" stroke-linejoin="round"/></svg>