<svg xmlns="http://www.w3.org/2000/svg" viewBox="0.82 10.23 100.00 81.18"><path d="M2.82,32.69 L98.82,32.69 L98.82,32.69 L98.82,86.21 L98.39,87.81 L97.22,88.99 L95.62,89.42 L6.03,89.42 L4.43,88.99 L3.25,87.81 L2.82,86.21 L2.82,32.69 L2.82,32.69 Z" fill="#32d2f3" stroke="#1e1e1e" stroke-width="1" stroke-linejoin="round"/><path d="M6.05,12.23 L95.60,12.23 L97.20,12.66 L98.38,13.84 L98.81,15.44 L98.81,32.69 L98.81,32.69 L2.82,32.69 L2.82,32.69 L2.82,15.44 L3.26,13.83 L4.44,12.66 L6.05,12.23 L6.05,12.23 Z" fill="#0078d4" stroke="#1e1e1e" stroke-width="1" stroke-linejoin="round"/><path d="M84.30,18.34 L84.72,18.40 L85.11,18.56 L85.44,18.81 L85.69,19.14 L85.85,19.53 L85.91,19.95 L85.91,24.98 L85.85,25.39 L85.69,25.78 L85.44,26.11 L85.11,26.37 L84.72,26.53 L84.30,26.58 L17.34,26.58 L16.93,26.53 L16.54,26.37 L16.21,26.11 L15.95,25.78 L15.79,25.39 L15.74,24.98 L15.74,19.95 L15.79,19.53 L15.95,19.14 L16.21,18.81 L16.54,18.56 L16.93,18.40 L17.34,18.34 L84.30,18.34 Z" fill="#f2f2f2" stroke="#1e1e1e" stroke-width="1" stroke-linejoin="round"/></svg>