<svg xmlns="http://www.w3.org/2000/svg" viewBox="0.67 9.55 94.67 76.90"><path d="M2.67,30.87 L93.33,30.87 L93.33,30.87 L93.33,81.42 L92.93,82.93 L91.82,84.04 L90.30,84.45 L5.70,84.45 L4.18,84.04 L3.07,82.93 L2.67,81.42 L2.67,30.87 L2.67,30.87 Z" fill="#32d2f3" stroke="#1e1e1e" stroke-width="1" stroke-linejoin="round"/><path d="M5.71,11.55 L90.29,11.55 L91.80,11.96 L92.91,13.07 L93.32,14.58 L93.32,30.87 L93.32,30.87 L2.67,30.87 L2.67,30.87 L2.67,14.58 L3.08,13.06 L4.19,11.95 L5.71,11.55 L5.71,11.55 Z" fill="#0078d4" stroke="#1e1e1e" stroke-width="1" stroke-linejoin="round"/><path d="M79.62,17.32 L80.01,17.37 L80.38,17.53 L80.69,17.77 L80.93,18.08 L81.08,18.45 L81.14,18.84 L81.14,23.59 L81.08,23.98 L80.93,24.35 L80.69,24.66 L80.38,24.90 L80.01,25.05 L79.62,25.10 L16.38,25.10 L15.99,25.05 L15.62,24.90 L15.31,24.66 L15.07,24.35 L14.92,23.98 L14.86,23.59 L14.86,18.84 L14.92,18.45 L15.07,18.08 L15.31,17.77 L15.62,17.53 L15.99,17.37 L16.38,17.32 L79.62,17.32 Z" fill="#f2f2f2" stroke="#f2f2f2" stroke-width="1" stroke-linejoin="round"/></svg>