<svg xmlns="http://www.w3.org/2000/svg" viewBox="4.76 0.87 92.66 100.00"><path d="M51.09,27.02 L50.04,26.78 L49.19,26.11 L33.29,6.81 L32.83,5.43 L33.24,4.04 L34.36,3.12 L35.81,3.00 L37.07,3.73 L51.06,20.72 L64.84,3.74 L65.86,3.00 L67.12,2.87 L68.28,3.38 L69.02,4.41 L69.15,5.66 L68.63,6.82 L52.97,26.11 L52.13,26.78 L51.09,27.02 Z" fill="#773adc" stroke="#1e1e1e" stroke-width="1" stroke-linejoin="round"/><path d="M9.20,50.17 L7.98,49.84 L7.09,48.95 L6.76,47.73 L6.76,40.46 L7.14,39.15 L8.16,38.25 L33.82,26.22 L35.04,26.04 L36.19,26.48 L36.98,27.43 L37.20,28.65 L36.81,29.81 L35.89,30.64 L11.64,41.99 L11.64,47.73 L11.31,48.94 L10.42,49.84 L9.20,50.17 L9.20,50.17 Z" fill="#773adc" stroke="#1e1e1e" stroke-width="1" stroke-linejoin="round"/><path d="M9.20,72.33 L7.98,72.00 L7.09,71.11 L6.76,69.89 L6.76,62.63 L7.14,61.32 L8.16,60.42 L33.82,48.38 L35.06,48.16 L36.25,48.59 L37.06,49.56 L37.29,50.80 L36.86,51.99 L35.89,52.81 L11.64,64.16 L11.64,69.87 L11.32,71.10 L10.43,72.00 L9.20,72.33 L9.20,72.33 Z" fill="#773adc" stroke="#1e1e1e" stroke-width="1" stroke-linejoin="round"/><path d="M9.20,95.63 L7.98,95.30 L7.09,94.41 L6.76,93.19 L6.76,85.92 L7.14,84.61 L8.16,83.71 L33.82,71.68 L35.04,71.50 L36.19,71.95 L36.98,72.89 L37.20,74.11 L36.81,75.27 L35.89,76.10 L11.64,87.45 L11.64,93.17 L11.32,94.40 L10.43,95.30 L9.20,95.63 L9.20,95.63 Z" fill="#773adc" stroke="#1e1e1e" stroke-width="1" stroke-linejoin="round"/><path d="M92.98,50.17 L91.76,49.84 L90.87,48.94 L90.54,47.73 L90.54,42.01 L66.29,30.66 L65.38,29.83 L64.98,28.66 L65.21,27.45 L65.99,26.50 L67.15,26.06 L68.37,26.24 L94.02,38.27 L95.04,39.17 L95.42,40.48 L95.42,47.74 L95.09,48.96 L94.20,49.84 L92.98,50.17 L92.98,50.17 Z" fill="#773adc" stroke="#1e1e1e" stroke-width="1" stroke-linejoin="round"/><path d="M92.98,72.33 L91.76,72.00 L90.87,71.11 L90.54,69.89 L90.54,64.18 L66.29,52.82 L65.33,52.01 L64.90,50.82 L65.12,49.58 L65.93,48.61 L67.12,48.18 L68.37,48.40 L94.02,60.44 L95.04,61.34 L95.42,62.64 L95.42,69.91 L95.09,71.12 L94.20,72.01 L92.98,72.33 L92.98,72.33 Z" fill="#773adc" stroke="#1e1e1e" stroke-width="1" stroke-linejoin="round"/><path d="M92.98,95.63 L91.76,95.30 L90.87,94.41 L90.54,93.19 L90.54,87.47 L66.29,76.12 L65.38,75.29 L64.98,74.12 L65.21,72.91 L65.99,71.96 L67.15,71.52 L68.37,71.70 L94.02,83.73 L95.04,84.63 L95.42,85.94 L95.42,93.20 L95.09,94.42 L94.20,95.30 L92.98,95.63 L92.98,95.63 Z" fill="#773adc" stroke="#1e1e1e" stroke-width="1" stroke-linejoin="round"/><path d="M75.76,39.93 L75.39,35.26 L74.17,30.74 L72.12,26.53 L69.33,22.76 L65.89,19.58 L61.92,17.10 L57.56,15.39 L52.96,14.52 L48.28,14.52 L43.67,15.39 L39.31,17.10 L35.34,19.58 L31.90,22.76 L29.11,26.53 L27.07,30.74 L25.84,35.26 L25.48,39.93 L25.48,74.21 L25.97,78.78 L27.28,83.18 L29.37,87.27 L32.17,90.92 L35.59,93.99 L39.51,96.39 L43.80,98.03 L48.32,98.87 L52.92,98.87 L57.43,98.03 L61.73,96.39 L65.65,93.99 L69.06,90.92 L71.87,87.27 L73.96,83.18 L75.27,78.78 L75.76,74.21 L75.76,39.93 Z" fill="#8e5ae8" stroke="#1e1e1e" stroke-width="1" stroke-linejoin="round"/><path d="M72.76,28.03 L70.79,24.94 L68.40,22.17 L65.63,19.78 L62.54,17.81 L61.44,20.12 L61.20,22.67 L61.85,25.15 L63.32,27.25 L65.42,28.72 L67.90,29.37 L70.45,29.13 L72.76,28.03 L72.76,28.03 Z" fill="#b796f9" stroke="#b796f9" stroke-width="1" stroke-linejoin="round"/><path d="M28.48,28.03 L30.79,29.13 L33.34,29.37 L35.82,28.72 L37.92,27.25 L39.39,25.15 L40.04,22.67 L39.80,20.12 L38.69,17.81 L35.61,19.78 L32.84,22.17 L30.44,24.94 L28.48,28.03 L28.48,28.03 Z" fill="#b796f9" stroke="#b796f9" stroke-width="1" stroke-linejoin="round"/></svg>