<svg xmlns="http://www.w3.org/2000/svg" viewBox="4.35 0.69 87.30 94.19"><path d="M48.00,25.38 L47.01,25.16 L46.21,24.53 L31.28,6.40 L30.85,5.10 L31.22,3.79 L32.28,2.93 L33.64,2.82 L34.83,3.50 L47.97,19.47 L60.92,3.51 L61.88,2.82 L63.06,2.69 L64.14,3.18 L64.84,4.14 L64.96,5.32 L64.48,6.41 L49.77,24.53 L48.98,25.15 L48.00,25.38 Z" fill="#773adc" stroke="#1e1e1e" stroke-width="1" stroke-linejoin="round"/><path d="M8.65,47.13 L7.50,46.82 L6.66,45.98 L6.35,44.84 L6.35,38.01 L6.71,36.78 L7.67,35.94 L31.77,24.63 L32.92,24.47 L34.00,24.88 L34.74,25.77 L34.95,26.91 L34.58,28.01 L33.72,28.78 L10.94,39.45 L10.94,44.84 L10.63,45.98 L9.79,46.82 L8.65,47.13 L8.65,47.13 Z" fill="#773adc" stroke="#1e1e1e" stroke-width="1" stroke-linejoin="round"/><path d="M8.65,67.95 L7.50,67.65 L6.66,66.81 L6.35,65.66 L6.35,58.84 L6.71,57.61 L7.67,56.76 L31.77,45.46 L32.94,45.25 L34.06,45.65 L34.82,46.56 L35.03,47.73 L34.63,48.85 L33.72,49.61 L10.94,60.28 L10.94,65.64 L10.64,66.80 L9.80,67.64 L8.65,67.95 L8.65,67.95 Z" fill="#773adc" stroke="#1e1e1e" stroke-width="1" stroke-linejoin="round"/><path d="M8.65,89.84 L7.50,89.53 L6.66,88.69 L6.35,87.55 L6.35,80.72 L6.71,79.49 L7.67,78.65 L31.77,67.34 L32.92,67.18 L34.00,67.59 L34.74,68.48 L34.95,69.62 L34.58,70.72 L33.72,71.49 L10.94,82.16 L10.94,87.53 L10.64,88.68 L9.80,89.53 L8.65,89.84 L8.65,89.84 Z" fill="#773adc" stroke="#1e1e1e" stroke-width="1" stroke-linejoin="round"/><path d="M87.35,47.13 L86.21,46.82 L85.37,45.98 L85.06,44.84 L85.06,39.47 L62.28,28.80 L61.42,28.03 L61.05,26.93 L61.26,25.79 L62.00,24.90 L63.08,24.48 L64.23,24.65 L88.33,35.95 L89.29,36.80 L89.65,38.03 L89.65,44.85 L89.34,45.99 L88.50,46.83 L87.35,47.13 L87.35,47.13 Z" fill="#773adc" stroke="#1e1e1e" stroke-width="1" stroke-linejoin="round"/><path d="M87.35,67.95 L86.21,67.64 L85.37,66.81 L85.06,65.66 L85.06,60.29 L62.28,49.63 L61.37,48.86 L60.97,47.75 L61.18,46.58 L61.94,45.67 L63.06,45.26 L64.23,45.47 L88.33,56.78 L89.29,57.62 L89.65,58.85 L89.65,65.67 L89.34,66.82 L88.50,67.65 L87.35,67.95 L87.35,67.95 Z" fill="#773adc" stroke="#1e1e1e" stroke-width="1" stroke-linejoin="round"/><path d="M87.35,89.84 L86.21,89.53 L85.37,88.69 L85.06,87.55 L85.06,82.18 L62.28,71.51 L61.42,70.73 L61.05,69.64 L61.26,68.50 L62.00,67.61 L63.08,67.19 L64.23,67.36 L88.33,78.66 L89.29,79.51 L89.65,80.74 L89.65,87.56 L89.34,88.70 L88.50,89.54 L87.35,89.84 L87.35,89.84 Z" fill="#773adc" stroke="#1e1e1e" stroke-width="1" stroke-linejoin="round"/><path d="M71.17,37.51 L70.83,33.13 L69.68,28.88 L67.76,24.92 L65.14,21.39 L61.91,18.40 L58.18,16.06 L54.08,14.46 L49.75,13.64 L45.35,13.64 L41.03,14.46 L36.93,16.06 L33.20,18.40 L29.97,21.39 L27.35,24.92 L25.43,28.88 L24.28,33.13 L23.94,37.51 L23.94,69.72 L24.40,74.01 L25.63,78.15 L27.59,81.99 L30.23,85.41 L33.44,88.30 L37.12,90.55 L41.15,92.10 L45.40,92.88 L49.71,92.88 L53.96,92.10 L57.99,90.55 L61.67,88.30 L64.88,85.41 L67.52,81.99 L69.48,78.15 L70.71,74.01 L71.17,69.72 L71.17,37.51 Z" fill="#8e5ae8" stroke="#1e1e1e" stroke-width="1" stroke-linejoin="round"/><path d="M68.36,26.33 L66.51,23.43 L64.26,20.83 L61.66,18.58 L58.76,16.73 L57.72,18.90 L57.49,21.30 L58.11,23.63 L59.48,25.60 L61.46,26.98 L63.79,27.60 L66.18,27.37 L68.36,26.33 L68.36,26.33 Z" fill="#b796f9" stroke="#b796f9" stroke-width="1" stroke-linejoin="round"/><path d="M26.75,26.33 L28.92,27.37 L31.32,27.60 L33.65,26.98 L35.62,25.60 L37.00,23.63 L37.62,21.30 L37.39,18.90 L36.35,16.73 L33.45,18.58 L30.85,20.83 L28.60,23.43 L26.75,26.33 L26.75,26.33 Z" fill="#b796f9" stroke="#b796f9" stroke-width="1" stroke-linejoin="round"/></svg>