<svg xmlns="http://www.w3.org/2000/svg" viewBox="0.67 0.85 94.67 94.30"><path d="M65.93,25.65 L50.06,41.52 L49.21,42.00 L48.24,42.00 L47.39,41.52 L31.51,25.65 L31.27,25.05 L31.52,24.45 L32.11,24.20 L41.87,24.20 L42.47,23.96 L42.71,23.36 L42.71,3.53 L42.91,3.05 L43.39,2.85 L54.06,2.85 L54.54,3.05 L54.73,3.53 L54.73,23.36 L54.98,23.96 L55.58,24.20 L65.34,24.20 L65.93,24.45 L66.18,25.05 L65.93,25.65 Z" fill="#9b6aee" stroke="#1e1e1e" stroke-width="1" stroke-linejoin="round"/><rect x="2.67" y="67.58" width="90.67" height="25.56" fill="#9766ec" stroke="#1e1e1e" stroke-width="1"/><rect x="22.26" y="49.64" width="13.27" height="13.27" fill="#86d633" stroke="#86d633" stroke-width="1"/><rect x="42.09" y="49.64" width="13.27" height="13.27" fill="#86d633" stroke="#86d633" stroke-width="1"/><rect x="61.91" y="49.64" width="13.27" height="13.27" fill="#86d633" stroke="#86d633" stroke-width="1"/><rect x="32.18" y="73.31" width="13.27" height="13.27" fill="#b4ec36" stroke="#b4ec36" stroke-width="1"/><rect x="52.00" y="73.31" width="13.27" height="13.27" fill="#b4ec36" stroke="#b4ec36" stroke-width="1"/></svg>