<svg xmlns="http://www.w3.org/2000/svg" viewBox="0.82 1.02 100.00 99.61"><path d="M69.81,27.16 L53.00,43.96 L52.11,44.47 L51.08,44.47 L50.18,43.96 L33.37,27.16 L33.11,26.52 L33.37,25.89 L34.00,25.63 L44.34,25.63 L44.97,25.37 L45.23,24.73 L45.23,3.73 L45.44,3.23 L45.94,3.02 L57.24,3.02 L57.74,3.23 L57.95,3.73 L57.95,24.73 L58.22,25.37 L58.85,25.63 L69.18,25.63 L69.81,25.89 L70.07,26.53 L69.81,27.16 Z" fill="#9b6aee" stroke="#1e1e1e" stroke-width="1" stroke-linejoin="round"/><path d="M95.93,71.56 L96.68,71.66 L97.38,71.95 L97.98,72.41 L98.44,73.01 L98.72,73.71 L98.82,74.46 L98.82,95.73 L98.72,96.48 L98.44,97.18 L97.98,97.78 L97.38,98.24 L96.68,98.53 L95.93,98.63 L5.72,98.63 L4.97,98.53 L4.27,98.24 L3.67,97.78 L3.21,97.18 L2.92,96.48 L2.82,95.73 L2.82,74.46 L2.92,73.71 L3.21,73.01 L3.67,72.41 L4.27,71.95 L4.97,71.66 L5.72,71.56 L95.93,71.56 Z" fill="#9766ec" stroke="#1e1e1e" stroke-width="1" stroke-linejoin="round"/><path d="M36.47,52.56 L36.77,52.60 L37.05,52.72 L37.28,52.90 L37.47,53.14 L37.58,53.41 L37.62,53.71 L37.62,65.47 L37.58,65.76 L37.47,66.04 L37.28,66.28 L37.05,66.46 L36.77,66.57 L36.47,66.61 L24.72,66.61 L24.42,66.57 L24.14,66.46 L23.91,66.28 L23.72,66.04 L23.61,65.76 L23.57,65.47 L23.57,53.71 L23.61,53.41 L23.72,53.14 L23.91,52.90 L24.14,52.72 L24.42,52.60 L24.72,52.56 L36.47,52.56 Z" fill="#86d633" stroke="#86d633" stroke-width="1" stroke-linejoin="round"/><path d="M57.46,52.56 L57.76,52.60 L58.04,52.72 L58.28,52.90 L58.46,53.14 L58.57,53.41 L58.61,53.71 L58.61,65.47 L58.57,65.76 L58.46,66.04 L58.28,66.28 L58.04,66.46 L57.76,66.57 L57.46,66.61 L45.71,66.61 L45.41,66.57 L45.13,66.46 L44.90,66.28 L44.71,66.04 L44.60,65.76 L44.56,65.47 L44.56,53.71 L44.60,53.41 L44.71,53.14 L44.90,52.90 L45.13,52.72 L45.41,52.60 L45.71,52.56 L57.46,52.56 Z" fill="#86d633" stroke="#86d633" stroke-width="1" stroke-linejoin="round"/><path d="M78.45,52.56 L78.75,52.60 L79.03,52.72 L79.27,52.90 L79.45,53.14 L79.56,53.41 L79.60,53.71 L79.60,65.47 L79.56,65.76 L79.45,66.04 L79.27,66.28 L79.03,66.46 L78.75,66.57 L78.45,66.61 L66.70,66.61 L66.40,66.57 L66.12,66.46 L65.89,66.28 L65.70,66.04 L65.59,65.76 L65.55,65.47 L65.55,53.71 L65.59,53.41 L65.70,53.14 L65.89,52.90 L66.12,52.72 L66.40,52.60 L66.70,52.56 L78.45,52.56 Z" fill="#86d633" stroke="#86d633" stroke-width="1" stroke-linejoin="round"/><path d="M46.97,77.62 L47.27,77.66 L47.55,77.78 L47.78,77.96 L47.97,78.20 L48.08,78.47 L48.12,78.77 L48.12,90.53 L48.08,90.82 L47.97,91.10 L47.78,91.34 L47.55,91.52 L47.27,91.64 L46.97,91.67 L35.22,91.67 L34.92,91.64 L34.64,91.52 L34.40,91.34 L34.22,91.10 L34.11,90.82 L34.07,90.53 L34.07,78.77 L34.11,78.47 L34.22,78.20 L34.40,77.96 L34.64,77.78 L34.92,77.66 L35.22,77.62 L46.97,77.62 Z" fill="#b4ec36" stroke="#b4ec36" stroke-width="1" stroke-linejoin="round"/><path d="M67.96,77.62 L68.26,77.66 L68.54,77.78 L68.77,77.96 L68.96,78.20 L69.07,78.47 L69.11,78.77 L69.11,90.53 L69.07,90.82 L68.96,91.10 L68.77,91.34 L68.54,91.52 L68.26,91.64 L67.96,91.67 L56.21,91.67 L55.91,91.64 L55.63,91.52 L55.39,91.34 L55.21,91.10 L55.10,90.82 L55.06,90.53 L55.06,78.77 L55.10,78.47 L55.21,78.20 L55.39,77.96 L55.63,77.78 L55.91,77.66 L56.21,77.62 L67.96,77.62 Z" fill="#b4ec36" stroke="#b4ec36" stroke-width="1" stroke-linejoin="round"/></svg>