<svg xmlns="http://www.w3.org/2000/svg" viewBox="0.67 0.85 94.67 94.30"><path d="M65.93,25.65 L50.06,41.52 L49.21,42.00 L48.24,42.00 L47.39,41.52 L31.51,25.65 L31.27,25.05 L31.52,24.45 L32.11,24.20 L41.87,24.20 L42.47,23.96 L42.71,23.36 L42.71,3.53 L42.91,3.05 L43.39,2.85 L54.06,2.85 L54.54,3.05 L54.73,3.53 L54.73,23.36 L54.98,23.96 L55.58,24.20 L65.34,24.20 L65.93,24.45 L66.18,25.05 L65.93,25.65 Z" fill="#9b6aee" stroke="#1e1e1e" stroke-width="1" stroke-linejoin="round"/><path d="M90.60,67.58 L91.31,67.68 L91.97,67.95 L92.53,68.39 L92.97,68.95 L93.24,69.61 L93.33,70.32 L93.33,90.41 L93.24,91.12 L92.97,91.78 L92.53,92.35 L91.97,92.78 L91.31,93.05 L90.60,93.15 L5.40,93.15 L4.69,93.05 L4.03,92.78 L3.47,92.35 L3.03,91.78 L2.76,91.12 L2.67,90.41 L2.67,70.32 L2.76,69.61 L3.03,68.95 L3.47,68.39 L4.03,67.95 L4.69,67.68 L5.40,67.58 L90.60,67.58 Z" fill="#9766ec" stroke="#1e1e1e" stroke-width="1" stroke-linejoin="round"/><path d="M34.45,49.64 L34.73,49.68 L34.99,49.79 L35.21,49.96 L35.39,50.18 L35.49,50.45 L35.53,50.73 L35.53,61.83 L35.49,62.11 L35.39,62.37 L35.21,62.59 L34.99,62.77 L34.73,62.88 L34.45,62.91 L23.34,62.91 L23.06,62.88 L22.80,62.77 L22.58,62.59 L22.41,62.37 L22.30,62.11 L22.26,61.83 L22.26,50.73 L22.30,50.45 L22.41,50.18 L22.58,49.96 L22.80,49.79 L23.06,49.68 L23.34,49.64 L34.45,49.64 Z" fill="#86d633" stroke="#86d633" stroke-width="1" stroke-linejoin="round"/><path d="M54.27,49.64 L54.55,49.68 L54.81,49.79 L55.04,49.96 L55.21,50.18 L55.32,50.45 L55.35,50.73 L55.35,61.83 L55.32,62.11 L55.21,62.37 L55.04,62.59 L54.81,62.77 L54.55,62.88 L54.27,62.91 L43.17,62.91 L42.89,62.88 L42.63,62.77 L42.40,62.59 L42.23,62.37 L42.12,62.11 L42.09,61.83 L42.09,50.73 L42.12,50.45 L42.23,50.18 L42.40,49.96 L42.63,49.79 L42.89,49.68 L43.17,49.64 L54.27,49.64 Z" fill="#86d633" stroke="#86d633" stroke-width="1" stroke-linejoin="round"/><path d="M74.10,49.64 L74.38,49.68 L74.64,49.79 L74.86,49.96 L75.03,50.18 L75.14,50.45 L75.18,50.73 L75.18,61.83 L75.14,62.11 L75.03,62.37 L74.86,62.59 L74.64,62.77 L74.38,62.88 L74.10,62.91 L62.99,62.91 L62.71,62.88 L62.45,62.77 L62.23,62.59 L62.05,62.37 L61.95,62.11 L61.91,61.83 L61.91,50.73 L61.95,50.45 L62.05,50.18 L62.23,49.96 L62.45,49.79 L62.71,49.68 L62.99,49.64 L74.10,49.64 Z" fill="#86d633" stroke="#86d633" stroke-width="1" stroke-linejoin="round"/><path d="M44.36,73.31 L44.64,73.35 L44.90,73.46 L45.13,73.63 L45.30,73.85 L45.41,74.11 L45.45,74.39 L45.45,85.50 L45.41,85.78 L45.30,86.04 L45.13,86.26 L44.90,86.44 L44.64,86.54 L44.36,86.58 L33.26,86.58 L32.98,86.54 L32.72,86.44 L32.49,86.26 L32.32,86.04 L32.21,85.78 L32.18,85.50 L32.18,74.39 L32.21,74.11 L32.32,73.85 L32.49,73.63 L32.72,73.46 L32.98,73.35 L33.26,73.31 L44.36,73.31 Z" fill="#b4ec36" stroke="#b4ec36" stroke-width="1" stroke-linejoin="round"/><path d="M64.19,73.31 L64.47,73.35 L64.73,73.46 L64.95,73.63 L65.12,73.85 L65.23,74.11 L65.27,74.39 L65.27,85.50 L65.23,85.78 L65.12,86.04 L64.95,86.26 L64.73,86.44 L64.47,86.54 L64.19,86.58 L53.08,86.58 L52.80,86.54 L52.54,86.44 L52.32,86.26 L52.15,86.04 L52.04,85.78 L52.00,85.50 L52.00,74.39 L52.04,74.11 L52.15,73.85 L52.32,73.63 L52.54,73.46 L52.80,73.35 L53.08,73.31 L64.19,73.31 Z" fill="#b4ec36" stroke="#b4ec36" stroke-width="1" stroke-linejoin="round"/></svg>