<svg xmlns="http://www.w3.org/2000/svg" viewBox="0.90 0.67 94.21 94.67"><path d="M35.35,26.22 L28.84,25.97 L22.77,25.27 L17.28,24.17 L12.50,22.72 L8.56,20.96 L6.94,19.99 L5.58,18.95 L4.50,17.87 L3.71,16.74 L3.22,15.57 L3.06,14.36 L2.90,77.02 L3.06,78.22 L3.54,79.38 L4.32,80.50 L5.39,81.58 L6.73,82.61 L8.32,83.58 L12.20,85.33 L16.91,86.78 L22.33,87.89 L28.31,88.60 L34.75,88.89 L35.20,88.89 L41.72,88.66 L47.79,87.99 L53.28,86.92 L58.07,85.50 L62.02,83.76 L63.65,82.79 L65.01,81.77 L66.10,80.69 L66.90,79.56 L67.39,78.39 L67.56,77.19 L67.73,14.53 L67.56,15.73 L67.07,16.90 L66.26,18.03 L65.17,19.11 L63.81,20.13 L62.18,21.10 L58.23,22.83 L53.44,24.26 L47.94,25.33 L41.87,26.00 L35.35,26.22 Z" fill="#0077d3" stroke="#1e1e1e" stroke-width="1" stroke-linejoin="round"/><path d="M67.73,14.53 L67.57,15.73 L67.08,16.90 L66.28,18.03 L65.19,19.11 L63.82,20.13 L62.20,21.10 L58.25,22.83 L53.46,24.26 L47.96,25.33 L41.89,26.00 L35.37,26.22 L28.85,25.97 L22.79,25.27 L17.30,24.17 L12.51,22.72 L8.57,20.97 L6.95,19.99 L5.59,18.96 L4.50,17.87 L3.71,16.74 L3.22,15.57 L3.06,14.36 L3.23,13.16 L3.72,11.99 L4.52,10.86 L5.61,9.78 L6.97,8.76 L8.59,7.79 L12.55,6.06 L17.34,4.63 L22.83,3.56 L28.90,2.89 L35.42,2.67 L41.93,2.92 L48.00,3.62 L53.49,4.72 L58.27,6.17 L62.22,7.92 L63.83,8.89 L65.19,9.93 L66.27,11.01 L67.07,12.15 L67.55,13.32 L67.72,14.53" fill="none" stroke="#1e1e1e" stroke-width="1" stroke-linejoin="round"/><path d="M60.18,13.56 L60.05,14.32 L59.67,15.06 L59.06,15.78 L58.22,16.47 L55.94,17.73 L52.91,18.84 L49.23,19.74 L45.02,20.42 L40.37,20.84 L35.37,20.98 L30.38,20.81 L25.73,20.37 L21.52,19.66 L17.85,18.74 L14.83,17.63 L12.54,16.35 L11.71,15.66 L11.10,14.94 L10.73,14.20 L10.60,13.43 L10.73,12.66 L11.11,11.92 L11.72,11.20 L12.56,10.52 L14.85,9.25 L17.88,8.15 L21.55,7.24 L25.76,6.56 L30.41,6.14 L35.41,6.00 L40.40,6.17 L45.05,6.61 L49.26,7.32 L52.93,8.24 L55.95,9.36 L58.23,10.64 L59.07,11.33 L59.68,12.05 L60.05,12.79 L60.18,13.56 Z" fill="#50e6ff" stroke="#1e1e1e" stroke-width="1" stroke-linejoin="round"/><path d="M35.39,15.22 L28.75,15.41 L22.17,16.35 L15.74,18.01 L22.16,19.76 L28.73,20.75 L35.37,20.98 L42.01,20.79 L48.59,19.84 L55.01,18.13 L48.59,16.43 L42.02,15.46 L35.39,15.22 L35.39,15.22 Z" fill="#198ab3" stroke="#198ab3" stroke-width="1" stroke-linejoin="round"/><path d="M71.16,50.84 L66.74,50.67 L62.63,50.19 L58.91,49.45 L55.66,48.46 L52.99,47.27 L50.97,45.91 L50.24,45.18 L49.70,44.41 L49.37,43.62 L49.26,42.80 L49.15,85.29 L49.26,86.10 L49.58,86.89 L50.11,87.65 L50.84,88.38 L52.83,89.73 L55.46,90.92 L58.66,91.90 L62.33,92.65 L66.39,93.14 L70.75,93.33 L71.05,93.33 L75.47,93.18 L79.59,92.73 L83.31,92.00 L86.56,91.03 L89.24,89.86 L91.27,88.51 L92.01,87.78 L92.55,87.01 L92.88,86.22 L93.00,85.40 L93.10,42.91 L92.99,43.73 L92.65,44.52 L92.11,45.28 L91.37,46.02 L89.35,47.37 L86.67,48.54 L83.42,49.51 L79.70,50.24 L75.58,50.69 L71.16,50.84 Z" fill="#4fe5fe" stroke="#1e1e1e" stroke-width="1" stroke-linejoin="round"/><path d="M93.10,42.91 L92.99,43.73 L92.66,44.52 L92.12,45.28 L91.38,46.02 L89.35,47.37 L86.67,48.54 L83.43,49.51 L79.70,50.24 L75.58,50.69 L71.16,50.84 L66.75,50.67 L62.63,50.19 L58.91,49.45 L55.67,48.46 L52.99,47.27 L50.97,45.91 L50.24,45.18 L49.70,44.41 L49.37,43.62 L49.26,42.80 L49.37,41.98 L49.71,41.19 L50.25,40.43 L50.99,39.70 L53.01,38.34 L55.69,37.17 L58.94,36.20 L62.67,35.47 L66.78,35.02 L71.20,34.87 L75.62,35.04 L79.73,35.52 L83.46,36.27 L86.70,37.25 L89.37,38.44 L91.39,39.80 L92.13,40.53 L92.66,41.30 L92.99,42.10 L93.10,42.91 Z" fill="#e6e6e6" stroke="#1e1e1e" stroke-width="1" stroke-linejoin="round"/><path d="M88.00,42.25 L87.91,42.77 L87.66,43.27 L86.68,44.22 L85.13,45.08 L83.07,45.83 L80.58,46.44 L77.72,46.90 L74.57,47.19 L71.18,47.29 L67.79,47.17 L64.64,46.87 L61.78,46.40 L59.30,45.77 L57.25,45.01 L55.70,44.15 L54.73,43.19 L54.47,42.68 L54.39,42.17 L54.48,41.65 L54.73,41.14 L55.72,40.19 L57.27,39.33 L59.32,38.59 L61.81,37.97 L64.66,37.51 L67.82,37.22 L71.21,37.13 L74.59,37.24 L77.75,37.55 L80.60,38.02 L83.08,38.65 L85.14,39.40 L86.68,40.27 L87.66,41.23 L87.91,41.73 L88.00,42.25 Z" fill="#50e6ff" stroke="#1e1e1e" stroke-width="1" stroke-linejoin="round"/><path d="M71.18,43.38 L66.67,43.51 L62.21,44.14 L57.85,45.27 L62.19,46.45 L66.65,47.13 L71.15,47.29 L75.66,47.15 L80.13,46.50 L84.49,45.34 L80.13,44.19 L75.68,43.54 L71.18,43.38 L71.18,43.38 Z" fill="#198ab3" stroke="#198ab3" stroke-width="1" stroke-linejoin="round"/><path d="M74.90,56.47 L74.77,56.42 L74.62,56.41 L74.35,56.49 L74.13,56.68 L62.14,74.13 L62.03,74.44 L62.07,74.76 L62.31,75.00 L62.63,75.11 L69.81,75.11 L66.61,85.64 L66.61,86.04 L66.89,86.33 L67.02,86.39 L67.17,86.40 L67.44,86.31 L67.66,86.12 L80.00,68.46 L80.14,68.12 L79.96,67.67 L79.51,67.49 L72.11,67.49 L75.20,57.17 L75.20,56.76 L74.90,56.47 Z" fill="#f2f2f2" stroke="#1e1e1e" stroke-width="1" stroke-linejoin="round"/></svg>