<svg xmlns="http://www.w3.org/2000/svg" viewBox="1.07 0.82 99.51 100.00"><path d="M37.43,27.77 L30.54,27.50 L24.11,26.75 L18.30,25.59 L13.24,24.05 L9.06,22.20 L7.35,21.16 L5.91,20.07 L4.77,18.92 L3.92,17.72 L3.41,16.48 L3.24,15.21 L3.07,81.55 L3.24,82.82 L3.75,84.05 L4.58,85.24 L5.71,86.38 L7.12,87.47 L8.81,88.50 L12.92,90.35 L17.91,91.88 L23.64,93.06 L29.98,93.82 L36.80,94.11 L37.27,94.11 L44.17,93.88 L50.60,93.17 L56.42,92.03 L61.49,90.52 L65.67,88.69 L67.39,87.67 L68.83,86.58 L69.99,85.44 L70.84,84.24 L71.36,83.00 L71.54,81.73 L71.72,15.38 L71.53,16.66 L71.01,17.89 L70.16,19.09 L69.01,20.23 L67.56,21.32 L65.84,22.34 L61.65,24.18 L56.58,25.69 L50.76,26.82 L44.33,27.53 L37.43,27.77 Z" fill="#0077d3" stroke="#1e1e1e" stroke-width="1" stroke-linejoin="round"/><path d="M71.72,15.38 L71.54,16.66 L71.02,17.89 L70.18,19.09 L69.02,20.23 L67.58,21.32 L65.86,22.34 L61.67,24.17 L56.60,25.68 L50.78,26.82 L44.35,27.53 L37.45,27.77 L30.55,27.50 L24.13,26.76 L18.31,25.59 L13.25,24.06 L9.07,22.20 L7.36,21.17 L5.92,20.07 L4.77,18.92 L3.93,17.72 L3.41,16.48 L3.24,15.21 L3.42,13.93 L3.94,12.70 L4.78,11.50 L5.94,10.36 L7.38,9.27 L9.10,8.25 L13.29,6.41 L18.36,4.90 L24.17,3.77 L30.60,3.06 L37.50,2.82 L44.40,3.09 L50.82,3.84 L56.64,5.00 L61.70,6.53 L65.88,8.38 L67.59,9.42 L69.03,10.51 L70.17,11.66 L71.01,12.86 L71.53,14.10 L71.70,15.38 L71.72,15.38 Z" fill="#e6e6e6" stroke="#1e1e1e" stroke-width="1" stroke-linejoin="round"/><path d="M63.72,14.35 L63.58,15.16 L63.18,15.95 L62.53,16.71 L61.65,17.44 L59.23,18.78 L56.02,19.94 L52.13,20.90 L47.67,21.62 L42.74,22.07 L37.45,22.22 L32.16,22.04 L27.24,21.56 L22.78,20.82 L18.90,19.84 L15.70,18.66 L13.28,17.31 L12.40,16.58 L11.76,15.82 L11.36,15.03 L11.23,14.22 L11.36,13.41 L11.76,12.62 L12.41,11.86 L13.30,11.14 L15.72,9.79 L18.93,8.63 L22.82,7.67 L27.28,6.95 L32.20,6.50 L37.49,6.35 L42.78,6.53 L47.70,7.00 L52.16,7.75 L56.04,8.73 L59.24,9.91 L61.66,11.26 L62.54,11.99 L63.19,12.75 L63.58,13.54 L63.72,14.35 Z" fill="#50e6ff" stroke="#1e1e1e" stroke-width="1" stroke-linejoin="round"/><path d="M37.47,16.11 L30.44,16.32 L23.48,17.31 L16.67,19.07 L23.46,20.92 L30.42,21.97 L37.45,22.22 L44.48,22.01 L51.45,21.00 L58.25,19.20 L51.45,17.40 L44.50,16.36 L37.47,16.11 L37.47,16.11 Z" fill="#198ab3" stroke="#198ab3" stroke-width="1" stroke-linejoin="round"/><path d="M75.35,53.83 L70.67,53.65 L66.31,53.15 L62.37,52.36 L58.94,51.31 L56.11,50.06 L53.97,48.61 L53.19,47.83 L52.62,47.02 L52.27,46.18 L52.16,45.32 L52.04,90.31 L52.16,91.17 L52.50,92.00 L53.06,92.80 L53.83,93.58 L55.93,95.01 L58.72,96.27 L62.11,97.31 L65.99,98.10 L70.29,98.62 L74.91,98.82 L75.23,98.82 L79.91,98.66 L84.27,98.18 L88.22,97.41 L91.65,96.39 L94.49,95.14 L96.64,93.71 L97.42,92.94 L97.99,92.13 L98.35,91.29 L98.47,90.43 L98.58,45.44 L98.46,46.30 L98.10,47.14 L97.53,47.95 L96.75,48.72 L94.60,50.15 L91.77,51.40 L88.33,52.42 L84.39,53.19 L80.03,53.67 L75.35,53.83 Z" fill="#4fe5fe" stroke="#1e1e1e" stroke-width="1" stroke-linejoin="round"/><path d="M98.58,45.44 L98.46,46.30 L98.11,47.14 L97.54,47.95 L96.75,48.72 L94.61,50.15 L91.77,51.40 L88.33,52.42 L84.39,53.19 L80.03,53.67 L75.35,53.83 L70.67,53.65 L66.32,53.15 L62.37,52.36 L58.94,51.31 L56.11,50.06 L53.97,48.61 L53.19,47.83 L52.62,47.02 L52.27,46.18 L52.16,45.32 L52.28,44.45 L52.63,43.61 L53.21,42.81 L53.99,42.03 L56.13,40.60 L58.97,39.36 L62.41,38.33 L66.35,37.56 L70.71,37.08 L75.39,36.92 L80.07,37.10 L84.42,37.61 L88.36,38.40 L91.80,39.44 L94.63,40.70 L96.77,42.14 L97.55,42.92 L98.11,43.73 L98.46,44.57 L98.58,45.44 Z" fill="#e6e6e6" stroke="#1e1e1e" stroke-width="1" stroke-linejoin="round"/><path d="M93.18,44.74 L93.08,45.29 L92.81,45.82 L91.78,46.83 L90.13,47.73 L87.96,48.52 L85.32,49.17 L82.30,49.66 L78.95,49.97 L75.37,50.07 L71.78,49.95 L68.44,49.63 L65.42,49.12 L62.79,48.46 L60.62,47.66 L58.98,46.74 L57.95,45.73 L57.68,45.20 L57.59,44.65 L57.68,44.10 L57.95,43.56 L58.99,42.56 L60.64,41.65 L62.81,40.86 L65.45,40.21 L68.47,39.72 L71.81,39.41 L75.39,39.31 L78.98,39.43 L82.32,39.76 L85.34,40.26 L87.97,40.92 L90.14,41.72 L91.78,42.64 L92.82,43.65 L93.09,44.19 L93.18,44.74 Z" fill="#50e6ff" stroke="#1e1e1e" stroke-width="1" stroke-linejoin="round"/><path d="M75.37,45.93 L70.60,46.07 L65.87,46.74 L61.25,47.93 L65.85,49.19 L70.57,49.90 L75.34,50.07 L80.11,49.93 L84.84,49.24 L89.46,48.01 L84.85,46.79 L80.13,46.10 L75.37,45.93 L75.37,45.93 Z" fill="#198ab3" stroke="#198ab3" stroke-width="1" stroke-linejoin="round"/><path d="M79.31,59.80 L79.17,59.74 L79.01,59.72 L78.72,59.82 L78.49,60.02 L65.80,78.49 L65.68,78.82 L65.73,79.16 L65.98,79.42 L66.32,79.53 L73.92,79.53 L70.53,90.67 L70.53,91.10 L70.83,91.41 L70.97,91.47 L71.12,91.48 L71.41,91.39 L71.64,91.19 L84.71,72.49 L84.85,72.12 L84.66,71.65 L84.19,71.46 L76.35,71.46 L79.62,60.54 L79.62,60.10 L79.31,59.80 Z" fill="#f2f2f2" stroke="#1e1e1e" stroke-width="1" stroke-linejoin="round"/></svg>