<svg xmlns="http://www.w3.org/2000/svg" viewBox="4.37 -2.00 87.26 100.00"><path d="M59.24,0.00 L54.77,0.33 L50.39,1.31 L46.20,2.93 L42.30,5.15 L38.77,7.93 L38.33,8.65 L38.35,9.49 L38.83,10.19 L40.69,11.92 L42.24,13.94 L43.41,16.20 L44.04,16.94 L44.99,17.15 L45.87,16.73 L48.97,14.27 L52.51,12.51 L56.34,11.50 L60.29,11.31 L64.20,11.93 L67.89,13.34 L71.22,15.48 L74.03,18.26 L76.22,21.56 L77.68,25.24 L78.35,29.13 L78.21,33.09 L77.26,36.93 L75.54,40.49 L73.12,43.62 L70.12,46.19 L69.52,46.98 L69.55,47.97 L70.19,48.72 L73.46,51.05 L76.34,53.86 L76.97,54.29 L77.73,54.35 L78.42,54.04 L82.03,50.59 L85.02,46.61 L87.33,42.18 L88.88,37.44 L89.63,32.51 L89.57,27.53 L88.69,22.62 L87.02,17.92 L84.61,13.55 L81.51,9.64 L77.82,6.29 L73.63,3.59 L69.05,1.61 L64.21,0.40 L59.24,0.00 Z" fill="#006cbf" stroke="#1e1e1e" stroke-width="1" stroke-linejoin="round"/><path d="M49.72,96.00 L77.22,96.00 L78.80,95.56 L79.97,94.40 L80.42,92.83 L80.42,70.61 L80.03,66.33 L78.85,62.20 L76.94,58.36 L74.35,54.93 L71.17,52.03 L67.52,49.77 L63.52,48.22 L59.29,47.43 L55.00,47.43 L50.78,48.22 L46.77,49.77 L43.12,52.03 L39.95,54.93 L37.36,58.36 L35.44,62.20 L34.27,66.33 L33.87,70.61 L49.72,96.00 Z" fill="#006ec2" stroke="#1e1e1e" stroke-width="1" stroke-linejoin="round"/><path d="M29.62,34.67 L32.73,34.28 L35.66,33.14 L38.21,31.31 L40.24,28.92 L41.62,26.09 L42.27,23.02 L42.14,19.88 L41.24,16.87 L39.63,14.18 L37.41,11.96 L34.71,10.35 L31.71,9.45 L28.57,9.32 L25.49,9.97 L22.67,11.35 L20.28,13.38 L18.45,15.93 L17.31,18.86 L16.92,21.97 L17.24,24.80 L18.18,27.48 L19.69,29.89 L21.70,31.90 L24.11,33.41 L26.79,34.35 L29.62,34.67 L29.62,34.67 Z" fill="#41d2ee" stroke="#1e1e1e" stroke-width="1" stroke-linejoin="round"/><path d="M9.52,96.00 L49.72,96.00 L51.30,95.56 L52.46,94.40 L52.92,92.83 L52.92,62.15 L52.52,57.87 L51.35,53.74 L49.43,49.90 L46.84,46.47 L43.67,43.58 L40.02,41.31 L36.01,39.76 L31.79,38.97 L27.50,38.97 L23.27,39.76 L19.27,41.31 L15.62,43.58 L12.44,46.47 L9.85,49.90 L7.94,53.74 L6.76,57.87 L6.37,62.15 L6.37,92.83 L6.81,94.39 L7.96,95.54 L9.52,96.00 L9.52,96.00 Z" fill="#41d2ee" stroke="#1e1e1e" stroke-width="1" stroke-linejoin="round"/><ellipse cx="59.24" cy="30.41" rx="12.69" ry="12.69" fill="#006ec2" stroke="#1e1e1e" stroke-width="1"/></svg>