<svg xmlns="http://www.w3.org/2000/svg" viewBox="0.67 9.55 94.67 76.90"><path d="M2.67,30.87 L93.33,30.87 L93.33,30.87 L93.33,81.42 L92.93,82.93 L91.82,84.04 L90.30,84.45 L5.70,84.45 L4.18,84.04 L3.07,82.93 L2.67,81.42 L2.67,30.87 L2.67,30.87 Z" fill="#4093e6" stroke="#1e1e1e" stroke-width="1" stroke-linejoin="round"/><path d="M5.71,11.55 L90.29,11.55 L91.80,11.96 L92.91,13.07 L93.32,14.58 L93.32,30.87 L93.32,30.87 L2.67,30.87 L2.67,30.87 L2.67,14.58 L3.08,13.06 L4.19,11.95 L5.71,11.55 L5.71,11.55 Z" fill="#0078d4" stroke="#1e1e1e" stroke-width="1" stroke-linejoin="round"/><path d="M20.52,54.84 L22.37,53.00 L22.37,53.00 L36.94,67.60 L37.18,68.20 L36.94,68.79 L35.08,70.63 L34.49,70.88 L33.90,70.63 L20.51,57.21 L20.08,56.45 L20.08,55.59 L20.52,54.84 L20.52,54.84 Z" fill="#b4d2f7" stroke="#1e1e1e" stroke-width="1" stroke-linejoin="round"/><path d="M22.34,59.06 L20.50,57.21 L20.06,56.46 L20.07,55.59 L20.50,54.84 L34.16,41.22 L34.75,40.97 L35.34,41.22 L37.19,43.07 L37.43,43.66 L37.19,44.26 L22.34,59.06 L22.34,59.06 Z" fill="#f2f2f2" stroke="#1e1e1e" stroke-width="1" stroke-linejoin="round"/><path d="M59.86,70.65 L58.01,68.80 L57.76,68.21 L58.01,67.62 L72.59,52.99 L72.59,52.99 L74.44,54.84 L74.88,55.59 L74.88,56.45 L74.45,57.20 L61.04,70.65 L60.45,70.89 L59.85,70.65 L59.86,70.65 Z" fill="#b4d2f7" stroke="#1e1e1e" stroke-width="1" stroke-linejoin="round"/><path d="M57.73,43.08 L59.57,41.23 L60.16,40.98 L60.76,41.23 L74.42,54.85 L74.85,55.60 L74.85,56.47 L74.42,57.22 L72.57,59.07 L72.57,59.07 L57.74,44.28 L57.48,43.68 L57.73,43.08 Z" fill="#f2f2f2" stroke="#1e1e1e" stroke-width="1" stroke-linejoin="round"/><path d="M51.90,35.50 L55.99,36.81 L43.58,75.59 L39.48,74.28 L51.90,35.50 Z" fill="#f2f2f2" stroke="#1e1e1e" stroke-width="1" stroke-linejoin="round"/></svg>