<svg xmlns="http://www.w3.org/2000/svg" viewBox="0.82 10.23 100.00 81.18"><path d="M2.82,32.69 L98.82,32.69 L98.82,32.69 L98.82,86.21 L98.39,87.81 L97.22,88.99 L95.62,89.42 L6.03,89.42 L4.43,88.99 L3.25,87.81 L2.82,86.21 L2.82,32.69 L2.82,32.69 Z" fill="#4093e6" stroke="#1e1e1e" stroke-width="1" stroke-linejoin="round"/><path d="M6.05,12.23 L95.60,12.23 L97.20,12.66 L98.38,13.84 L98.81,15.44 L98.81,32.69 L98.81,32.69 L2.82,32.69 L2.82,32.69 L2.82,15.44 L3.26,13.83 L4.44,12.66 L6.05,12.23 L6.05,12.23 Z" fill="#0078d4" stroke="#1e1e1e" stroke-width="1" stroke-linejoin="round"/><path d="M21.73,58.07 L23.69,56.11 L23.69,56.11 L39.11,71.58 L39.37,72.21 L39.11,72.83 L37.15,74.79 L36.52,75.05 L35.89,74.79 L21.72,60.57 L21.26,59.77 L21.26,58.86 L21.72,58.06 L21.73,58.07 Z" fill="#b4d2f7" stroke="#1e1e1e" stroke-width="1" stroke-linejoin="round"/><path d="M23.66,62.53 L21.70,60.57 L21.25,59.78 L21.25,58.86 L21.71,58.07 L36.17,43.64 L36.80,43.38 L37.42,43.65 L39.38,45.60 L39.64,46.23 L39.38,46.86 L23.66,62.53 L23.66,62.53 Z" fill="#f2f2f2" stroke="#1e1e1e" stroke-width="1" stroke-linejoin="round"/><path d="M63.38,74.80 L61.42,72.85 L61.16,72.22 L61.42,71.59 L76.86,56.11 L76.86,56.11 L78.82,58.06 L79.28,58.86 L79.28,59.77 L78.82,60.57 L64.63,74.80 L64.00,75.07 L63.38,74.81 L63.38,74.80 Z" fill="#b4d2f7" stroke="#1e1e1e" stroke-width="1" stroke-linejoin="round"/><path d="M61.12,45.62 L63.08,43.66 L63.70,43.40 L64.33,43.65 L78.79,58.08 L79.25,58.87 L79.25,59.79 L78.80,60.58 L76.84,62.54 L76.84,62.54 L61.14,46.88 L60.86,46.25 L61.12,45.62 Z" fill="#f2f2f2" stroke="#1e1e1e" stroke-width="1" stroke-linejoin="round"/><path d="M58.68,38.79 L58.83,38.86 L58.96,38.96 L59.05,39.10 L59.11,39.25 L59.12,39.42 L59.09,39.58 L46.33,79.43 L46.26,79.58 L46.15,79.71 L46.02,79.80 L45.86,79.86 L45.70,79.87 L45.54,79.84 L42.41,78.84 L42.26,78.77 L42.13,78.66 L42.04,78.53 L41.98,78.37 L41.97,78.21 L42.00,78.05 L54.75,38.19 L54.83,38.04 L54.93,37.92 L55.07,37.82 L55.22,37.77 L55.39,37.75 L55.55,37.78 L58.68,38.79 Z" fill="#f2f2f2" stroke="#1e1e1e" stroke-width="1" stroke-linejoin="round"/></svg>