<svg xmlns="http://www.w3.org/2000/svg" viewBox="-2.00 0.67 100.00 94.74"><path d="M27.20,22.47 L46.40,3.26 L47.43,2.67 L48.61,2.67 L49.64,3.26 L68.84,22.46 L69.14,23.19 L68.85,23.91 L68.12,24.21 L56.29,24.21 L55.57,24.51 L55.27,25.23 L55.27,49.23 L55.03,49.81 L54.45,50.05 L41.55,50.05 L40.97,49.81 L40.73,49.23 L40.73,25.23 L40.43,24.51 L39.71,24.21 L27.89,24.21 L27.19,23.90 L26.90,23.18 L27.20,22.47 Z" fill="#9b6aee" stroke="#1e1e1e" stroke-width="1" stroke-linejoin="round"/><rect x="0.00" y="62.47" width="96.00" height="30.94" fill="#9766ec" stroke="#1e1e1e" stroke-width="1"/><rect x="15.97" y="70.30" width="16.06" height="16.06" fill="#ffffff" stroke="#ffffff" stroke-width="1"/><rect x="39.97" y="70.30" width="16.06" height="16.06" fill="#b4ec36" stroke="#b4ec36" stroke-width="1"/><rect x="63.96" y="70.30" width="16.06" height="16.06" fill="#b4ec36" stroke="#b4ec36" stroke-width="1"/></svg>