<svg xmlns="http://www.w3.org/2000/svg" viewBox="-2.00 0.67 100.00 94.74"><path d="M27.20,22.47 L46.40,3.26 L47.43,2.67 L48.61,2.67 L49.64,3.26 L68.84,22.46 L69.14,23.19 L68.85,23.91 L68.12,24.21 L56.29,24.21 L55.57,24.51 L55.27,25.23 L55.27,49.23 L55.03,49.81 L54.45,50.05 L41.55,50.05 L40.97,49.81 L40.73,49.23 L40.73,25.23 L40.43,24.51 L39.71,24.21 L27.89,24.21 L27.19,23.90 L26.90,23.18 L27.20,22.47 Z" fill="#9b6aee" stroke="#1e1e1e" stroke-width="1" stroke-linejoin="round"/><path d="M92.90,62.47 L93.70,62.57 L94.45,62.88 L95.09,63.38 L95.58,64.02 L95.89,64.77 L96.00,65.57 L96.00,90.31 L95.89,91.11 L95.58,91.86 L95.09,92.50 L94.45,92.99 L93.70,93.30 L92.90,93.41 L3.10,93.41 L2.30,93.30 L1.55,92.99 L0.91,92.50 L0.42,91.86 L0.11,91.11 L0.00,90.31 L0.00,65.57 L0.11,64.77 L0.42,64.02 L0.91,63.38 L1.55,62.88 L2.30,62.57 L3.10,62.47 L92.90,62.47 Z" fill="#9766ec" stroke="#1e1e1e" stroke-width="1" stroke-linejoin="round"/><path d="M30.73,70.30 L31.07,70.35 L31.38,70.48 L31.65,70.69 L31.86,70.96 L31.99,71.27 L32.04,71.61 L32.04,85.06 L31.99,85.40 L31.86,85.71 L31.65,85.99 L31.38,86.19 L31.07,86.32 L30.73,86.37 L17.28,86.37 L16.94,86.32 L16.63,86.19 L16.36,85.99 L16.15,85.71 L16.02,85.40 L15.97,85.06 L15.97,71.61 L16.02,71.27 L16.15,70.96 L16.36,70.69 L16.63,70.48 L16.94,70.35 L17.28,70.30 L30.73,70.30 Z" fill="#ffffff" stroke="#ffffff" stroke-width="1" stroke-linejoin="round"/><path d="M54.73,70.30 L55.06,70.35 L55.38,70.48 L55.65,70.69 L55.86,70.96 L55.99,71.27 L56.03,71.61 L56.03,85.06 L55.99,85.40 L55.86,85.71 L55.65,85.99 L55.38,86.19 L55.06,86.32 L54.73,86.37 L41.27,86.37 L40.94,86.32 L40.62,86.19 L40.35,85.99 L40.14,85.71 L40.01,85.40 L39.97,85.06 L39.97,71.61 L40.01,71.27 L40.14,70.96 L40.35,70.69 L40.62,70.48 L40.94,70.35 L41.27,70.30 L54.73,70.30 Z" fill="#b4ec36" stroke="#b4ec36" stroke-width="1" stroke-linejoin="round"/><path d="M78.72,70.30 L79.06,70.35 L79.37,70.48 L79.64,70.69 L79.85,70.96 L79.98,71.27 L80.03,71.61 L80.03,85.06 L79.98,85.40 L79.85,85.71 L79.64,85.99 L79.37,86.19 L79.06,86.32 L78.72,86.37 L65.27,86.37 L64.93,86.32 L64.62,86.19 L64.35,85.99 L64.14,85.71 L64.01,85.40 L63.96,85.06 L63.96,71.61 L64.01,71.27 L64.14,70.96 L64.35,70.69 L64.62,70.48 L64.93,70.35 L65.27,70.30 L78.72,70.30 Z" fill="#b4ec36" stroke="#b4ec36" stroke-width="1" stroke-linejoin="round"/></svg>