<svg xmlns="http://www.w3.org/2000/svg" viewBox="-2.00 6.92 100.00 82.15"><path d="M0.00,73.73 L0.11,72.91 L0.43,72.14 L0.93,71.49 L1.59,70.98 L2.36,70.66 L3.18,70.55 L92.82,70.55 L93.64,70.66 L94.41,70.98 L95.07,71.49 L95.57,72.14 L95.89,72.91 L96.00,73.73 L96.00,80.68 L95.89,81.50 L95.57,82.27 L95.07,82.92 L94.41,83.43 L93.64,83.75 L92.82,83.86 L3.18,83.86 L2.36,83.75 L1.59,83.43 L0.93,82.92 L0.43,82.27 L0.11,81.50 L0.00,80.68 L0.00,73.73 Z" fill="#5e9624" stroke="#1e1e1e" stroke-width="1" stroke-linejoin="round"/><path d="M0.00,44.84 L0.11,44.02 L0.43,43.25 L0.93,42.60 L1.59,42.09 L2.36,41.77 L3.18,41.66 L92.82,41.66 L93.64,41.77 L94.41,42.09 L95.07,42.60 L95.57,43.25 L95.89,44.02 L96.00,44.84 L96.00,51.79 L95.89,52.61 L95.57,53.38 L95.07,54.03 L94.41,54.54 L93.64,54.86 L92.82,54.97 L3.18,54.97 L2.36,54.86 L1.59,54.54 L0.93,54.03 L0.43,53.38 L0.11,52.61 L0.00,51.79 L0.00,44.84 Z" fill="#5e9624" stroke="#1e1e1e" stroke-width="1" stroke-linejoin="round"/><path d="M0.00,15.49 L0.11,14.67 L0.43,13.90 L0.93,13.25 L1.59,12.74 L2.36,12.42 L3.18,12.31 L92.82,12.31 L93.64,12.42 L94.41,12.74 L95.07,13.25 L95.57,13.90 L95.89,14.67 L96.00,15.49 L96.00,22.44 L95.89,23.26 L95.57,24.03 L95.07,24.68 L94.41,25.19 L93.64,25.51 L92.82,25.62 L3.18,25.62 L2.36,25.51 L1.59,25.19 L0.93,24.68 L0.43,24.03 L0.11,23.26 L0.00,22.44 L0.00,15.49 Z" fill="#5e9624" stroke="#1e1e1e" stroke-width="1" stroke-linejoin="round"/><path d="M32.86,73.73 L32.97,72.91 L33.29,72.14 L33.80,71.49 L34.45,70.98 L35.22,70.66 L36.04,70.55 L92.82,70.55 L93.64,70.66 L94.41,70.98 L95.07,71.49 L95.57,72.14 L95.89,72.91 L96.00,73.73 L96.00,80.68 L95.89,81.50 L95.57,82.27 L95.07,82.92 L94.41,83.43 L93.64,83.75 L92.82,83.86 L36.04,83.86 L35.22,83.75 L34.45,83.43 L33.80,82.92 L33.29,82.27 L32.97,81.50 L32.86,80.68 L32.86,73.73 Z" fill="#6dad2a" stroke="#1e1e1e" stroke-width="1" stroke-linejoin="round"/><path d="M76.03,44.84 L76.13,44.02 L76.45,43.25 L76.96,42.60 L77.62,42.09 L78.38,41.77 L79.21,41.66 L92.82,41.66 L93.64,41.77 L94.41,42.09 L95.06,42.60 L95.57,43.25 L95.89,44.02 L95.99,44.84 L95.99,51.79 L95.89,52.61 L95.57,53.38 L95.06,54.03 L94.41,54.54 L93.64,54.86 L92.82,54.97 L79.21,54.97 L78.38,54.86 L77.62,54.54 L76.96,54.03 L76.45,53.38 L76.13,52.61 L76.03,51.79 L76.03,44.84 Z" fill="#6dad2a" stroke="#6dad2a" stroke-width="1" stroke-linejoin="round"/><path d="M32.86,15.49 L32.97,14.67 L33.29,13.90 L33.80,13.25 L34.45,12.74 L35.22,12.42 L36.04,12.31 L92.82,12.31 L93.64,12.42 L94.41,12.74 L95.07,13.25 L95.57,13.90 L95.89,14.67 L96.00,15.49 L96.00,22.44 L95.89,23.26 L95.57,24.03 L95.07,24.68 L94.41,25.19 L93.64,25.51 L92.82,25.62 L36.04,25.62 L35.22,25.51 L34.45,25.19 L33.80,24.68 L33.29,24.03 L32.97,23.26 L32.86,22.44 L32.86,15.49 Z" fill="#6dad2a" stroke="#1e1e1e" stroke-width="1" stroke-linejoin="round"/><path d="M32.18,70.13 L32.29,69.32 L32.60,68.56 L33.10,67.91 L33.75,67.41 L34.51,67.10 L35.32,66.99 L35.32,66.99 L36.14,67.10 L36.89,67.41 L37.54,67.91 L38.04,68.56 L38.36,69.32 L38.46,70.13 L38.46,83.94 L38.36,84.75 L38.04,85.51 L37.54,86.16 L36.89,86.66 L36.14,86.97 L35.32,87.08 L35.32,87.08 L34.51,86.97 L33.75,86.66 L33.10,86.16 L32.60,85.51 L32.29,84.75 L32.18,83.94 L32.18,70.13 Z" fill="#e6e6e6" stroke="#e6e6e6" stroke-width="1" stroke-linejoin="round"/><path d="M74.48,41.14 L74.59,40.33 L74.90,39.57 L75.40,38.92 L76.05,38.42 L76.81,38.11 L77.62,38.00 L77.62,38.00 L78.43,38.11 L79.19,38.42 L79.84,38.92 L80.34,39.57 L80.66,40.33 L80.76,41.14 L80.76,54.94 L80.66,55.76 L80.34,56.51 L79.84,57.17 L79.19,57.66 L78.43,57.98 L77.62,58.09 L77.62,58.09 L76.81,57.98 L76.05,57.66 L75.40,57.17 L74.90,56.51 L74.59,55.76 L74.48,54.94 L74.48,41.14 Z" fill="#e6e6e6" stroke="#e6e6e6" stroke-width="1" stroke-linejoin="round"/><path d="M32.18,12.06 L32.29,11.25 L32.60,10.49 L33.10,9.84 L33.75,9.34 L34.51,9.03 L35.32,8.92 L35.32,8.92 L36.14,9.03 L36.89,9.34 L37.54,9.84 L38.04,10.49 L38.36,11.25 L38.46,12.06 L38.46,25.87 L38.36,26.68 L38.04,27.44 L37.54,28.09 L36.89,28.59 L36.14,28.90 L35.32,29.01 L35.32,29.01 L34.51,28.90 L33.75,28.59 L33.10,28.09 L32.60,27.44 L32.29,26.68 L32.18,25.87 L32.18,12.06 Z" fill="#e6e6e6" stroke="#e6e6e6" stroke-width="1" stroke-linejoin="round"/></svg>