<svg xmlns="http://www.w3.org/2000/svg" viewBox="6.92 -2.00 82.15 100.00"><path d="M22.26,0.00 L23.08,0.11 L23.85,0.43 L24.51,0.93 L25.01,1.59 L25.33,2.36 L25.44,3.18 L25.44,92.82 L25.33,93.64 L25.01,94.41 L24.51,95.07 L23.85,95.57 L23.08,95.89 L22.26,96.00 L15.32,96.00 L14.49,95.89 L13.73,95.57 L13.07,95.07 L12.56,94.41 L12.25,93.64 L12.14,92.82 L12.14,3.18 L12.25,2.36 L12.56,1.59 L13.07,0.93 L13.73,0.43 L14.49,0.11 L15.32,0.00 L22.26,0.00 Z" fill="#0078d4" stroke="#1e1e1e" stroke-width="1" stroke-linejoin="round"/><path d="M51.15,0.00 L51.97,0.11 L52.74,0.43 L53.40,0.93 L53.90,1.59 L54.22,2.36 L54.33,3.18 L54.33,92.82 L54.22,93.64 L53.90,94.41 L53.40,95.07 L52.74,95.57 L51.97,95.89 L51.15,96.00 L44.21,96.00 L43.39,95.89 L42.62,95.57 L41.96,95.07 L41.46,94.41 L41.14,93.64 L41.03,92.82 L41.03,3.18 L41.14,2.36 L41.46,1.59 L41.96,0.93 L42.62,0.43 L43.39,0.11 L44.21,0.00 L51.15,0.00 Z" fill="#0078d4" stroke="#1e1e1e" stroke-width="1" stroke-linejoin="round"/><path d="M80.51,0.00 L81.33,0.11 L82.10,0.43 L82.75,0.93 L83.26,1.59 L83.58,2.36 L83.69,3.18 L83.69,92.82 L83.58,93.64 L83.26,94.41 L82.75,95.07 L82.10,95.57 L81.33,95.89 L80.51,96.00 L73.56,96.00 L72.74,95.89 L71.97,95.57 L71.32,95.07 L70.81,94.41 L70.49,93.64 L70.38,92.82 L70.38,3.18 L70.49,2.36 L70.81,1.59 L71.32,0.93 L71.97,0.43 L72.74,0.11 L73.56,0.00 L80.51,0.00 Z" fill="#0078d4" stroke="#1e1e1e" stroke-width="1" stroke-linejoin="round"/><path d="M22.26,32.86 L23.08,32.97 L23.85,33.29 L24.51,33.80 L25.01,34.45 L25.33,35.22 L25.44,36.04 L25.44,92.82 L25.33,93.64 L25.01,94.41 L24.51,95.07 L23.85,95.57 L23.08,95.89 L22.26,96.00 L15.32,96.00 L14.49,95.89 L13.73,95.57 L13.07,95.07 L12.56,94.41 L12.25,93.64 L12.14,92.82 L12.14,36.04 L12.25,35.22 L12.56,34.45 L13.07,33.80 L13.73,33.29 L14.49,32.97 L15.32,32.86 L22.26,32.86 Z" fill="#43d4f0" stroke="#1e1e1e" stroke-width="1" stroke-linejoin="round"/><path d="M51.15,76.03 L51.97,76.14 L52.74,76.46 L53.40,76.96 L53.90,77.62 L54.22,78.39 L54.33,79.21 L54.33,92.82 L54.22,93.64 L53.90,94.41 L53.40,95.07 L52.74,95.57 L51.97,95.89 L51.15,96.00 L44.21,96.00 L43.39,95.89 L42.62,95.57 L41.96,95.07 L41.46,94.41 L41.14,93.64 L41.03,92.82 L41.03,79.21 L41.14,78.39 L41.46,77.62 L41.96,76.96 L42.62,76.46 L43.39,76.14 L44.21,76.03 L51.15,76.03 Z" fill="#43d4f0" stroke="#43d4f0" stroke-width="1" stroke-linejoin="round"/><path d="M80.51,32.86 L81.33,32.97 L82.10,33.29 L82.75,33.80 L83.26,34.45 L83.58,35.22 L83.69,36.04 L83.69,92.82 L83.58,93.64 L83.26,94.41 L82.75,95.07 L82.10,95.57 L81.33,95.89 L80.51,96.00 L73.56,96.00 L72.74,95.89 L71.97,95.57 L71.32,95.07 L70.81,94.41 L70.49,93.64 L70.38,92.82 L70.38,36.04 L70.49,35.22 L70.81,34.45 L71.32,33.80 L71.97,33.29 L72.74,32.97 L73.56,32.86 L80.51,32.86 Z" fill="#43d4f0" stroke="#1e1e1e" stroke-width="1" stroke-linejoin="round"/><path d="M25.87,32.18 L26.68,32.29 L27.44,32.60 L28.09,33.10 L28.59,33.75 L28.90,34.51 L29.01,35.32 L29.01,35.32 L28.90,36.14 L28.59,36.89 L28.09,37.54 L27.44,38.04 L26.68,38.36 L25.87,38.46 L12.06,38.46 L11.25,38.36 L10.49,38.04 L9.84,37.54 L9.34,36.89 L9.03,36.14 L8.92,35.32 L8.92,35.32 L9.03,34.51 L9.34,33.75 L9.84,33.10 L10.49,32.60 L11.25,32.29 L12.06,32.18 L25.87,32.18 Z" fill="#e6e6e6" stroke="#e6e6e6" stroke-width="1" stroke-linejoin="round"/><path d="M54.86,74.48 L55.67,74.59 L56.43,74.90 L57.08,75.40 L57.58,76.05 L57.89,76.81 L58.00,77.62 L58.00,77.62 L57.89,78.43 L57.58,79.19 L57.08,79.84 L56.43,80.34 L55.67,80.66 L54.86,80.76 L41.06,80.76 L40.24,80.66 L39.49,80.34 L38.83,79.84 L38.34,79.19 L38.02,78.43 L37.91,77.62 L37.91,77.62 L38.02,76.81 L38.34,76.05 L38.83,75.40 L39.49,74.90 L40.24,74.59 L41.06,74.48 L54.86,74.48 Z" fill="#e6e6e6" stroke="#e6e6e6" stroke-width="1" stroke-linejoin="round"/><path d="M83.94,32.18 L84.75,32.29 L85.51,32.60 L86.16,33.10 L86.66,33.75 L86.97,34.51 L87.08,35.32 L87.08,35.32 L86.97,36.14 L86.66,36.89 L86.16,37.54 L85.51,38.04 L84.75,38.36 L83.94,38.46 L70.13,38.46 L69.32,38.36 L68.56,38.04 L67.91,37.54 L67.41,36.89 L67.10,36.14 L66.99,35.32 L66.99,35.32 L67.10,34.51 L67.41,33.75 L67.91,33.10 L68.56,32.60 L69.32,32.29 L70.13,32.18 L83.94,32.18 Z" fill="#e6e6e6" stroke="#e6e6e6" stroke-width="1" stroke-linejoin="round"/></svg>