<svg xmlns="http://www.w3.org/2000/svg" viewBox="4.93 -2.00 86.15 100.00"><path d="M50.54,47.66 L50.54,47.66 L46.05,44.03 L41.08,41.11 L35.73,38.93 L35.73,22.63 L40.39,23.61 L44.88,25.20 L49.12,27.36 L49.90,27.52 L50.60,27.13 L50.87,26.38 L50.87,13.28 L50.71,12.70 L50.28,12.27 L45.61,10.45 L40.73,9.32 L35.73,8.89 L35.73,1.15 L35.39,0.33 L34.56,0.00 L27.53,0.00 L26.72,0.34 L26.38,1.15 L26.38,9.15 L22.62,9.90 L19.03,11.25 L15.69,13.15 L12.70,15.55 L10.21,18.48 L8.37,21.87 L7.26,25.55 L6.93,29.39 L7.12,32.98 L8.00,36.46 L9.53,39.72 L11.66,42.62 L16.14,46.21 L21.08,49.14 L26.38,51.33 L26.38,66.90 L22.13,66.07 L18.00,64.76 L13.86,63.11 L10.05,60.80 L9.25,60.58 L8.52,60.96 L8.22,61.73 L8.22,75.20 L8.39,75.79 L8.84,76.22 L13.00,78.10 L17.35,79.50 L21.83,80.40 L26.38,80.80 L26.38,89.90 L26.72,90.71 L27.53,91.05 L34.56,91.05 L35.37,90.71 L35.71,89.90 L35.71,80.35 L39.61,79.67 L43.35,78.39 L46.84,76.52 L50.00,74.13 L52.38,71.19 L54.11,67.82 L55.12,64.17 L55.36,60.39 L55.11,56.91 L54.20,53.55 L52.66,50.42 L50.54,47.66 L50.54,47.66 Z" fill="#77be2e" stroke="#77be2e" stroke-width="1" stroke-linejoin="round"/><path d="M40.28,60.99 L40.28,61.07 L40.02,63.00 L39.08,64.71 L37.58,65.96 L35.73,66.57 L35.73,55.14 L37.69,56.44 L39.11,57.85 L39.97,59.36 L40.28,60.97 L40.28,60.99 Z" fill="#ffffff" stroke="#ffffff" stroke-width="1" stroke-linejoin="round"/><path d="M22.01,28.56 L22.24,26.64 L23.13,24.93 L24.58,23.65 L26.39,22.97 L26.39,34.97 L24.67,33.88 L23.31,32.37 L22.40,30.55 L22.01,28.56 L22.01,28.56 Z" fill="#ffffff" stroke="#ffffff" stroke-width="1" stroke-linejoin="round"/><path d="M65.26,77.30 L64.72,76.60 L64.38,75.78 L64.27,74.90 L64.38,74.03 L64.72,73.21 L65.26,72.51 L65.60,72.17 L66.30,71.64 L67.11,71.30 L67.99,71.18 L68.87,71.30 L69.68,71.64 L70.39,72.17 L88.09,89.88 L88.63,90.58 L88.97,91.40 L89.09,92.28 L88.97,93.15 L88.63,93.97 L88.09,94.67 L87.76,95.01 L87.06,95.55 L86.24,95.88 L85.36,96.00 L84.49,95.88 L83.67,95.55 L82.97,95.01 L65.26,77.30 Z" fill="#198ab3" stroke="#1e1e1e" stroke-width="1" stroke-linejoin="round"/><ellipse cx="55.73" cy="62.27" rx="21.83" ry="21.83" fill="#32bedd" stroke="#1e1e1e" stroke-width="1"/><ellipse cx="55.77" cy="61.89" rx="17.15" ry="17.15" fill="#ffffff" stroke="#1e1e1e" stroke-width="1"/></svg>