<svg xmlns="http://www.w3.org/2000/svg" viewBox="-0.28 6.18 100.00 90.13"><path d="M68.23,8.18 L31.22,8.18 L28.36,8.56 L25.70,9.66 L23.41,11.42 L21.66,13.70 L3.20,45.75 L2.10,48.41 L1.72,51.27 L2.10,54.13 L3.20,56.80 L21.66,88.79 L23.41,91.07 L25.70,92.83 L28.36,93.93 L31.22,94.31 L68.23,94.31 L71.09,93.93 L73.75,92.83 L76.04,91.07 L77.79,88.79 L96.24,56.80 L97.35,54.13 L97.72,51.27 L97.35,48.41 L96.24,45.75 L77.79,13.70 L76.04,11.42 L73.75,9.66 L71.09,8.56 L68.23,8.18 Z" fill="#6fb12a" stroke="#1e1e1e" stroke-width="1" stroke-linejoin="round"/><path d="M50.11,26.57 L48.39,26.24 L46.93,25.27 L45.94,23.82 L45.58,22.10 L45.93,20.37 L46.91,18.90 L48.38,17.91 L50.11,17.57 L51.84,17.91 L53.31,18.90 L54.30,20.37 L54.64,22.10 L54.28,23.82 L53.29,25.27 L51.83,26.24 L50.11,26.57 L50.11,26.57 Z" fill="#ffffff" stroke="#ffffff" stroke-width="1" stroke-linejoin="round" opacity="0.9"/><path d="M45.58,80.44 L45.93,82.18 L46.91,83.65 L48.38,84.63 L50.11,84.97 L51.84,84.63 L53.31,83.65 L54.30,82.18 L54.64,80.44 L54.30,78.71 L53.31,77.24 L51.84,76.26 L50.11,75.91 L48.38,76.26 L46.91,77.24 L45.93,78.71 L45.58,80.44 Z" fill="#ffffff" stroke="#ffffff" stroke-width="1" stroke-linejoin="round" opacity="0.9"/><path d="M50.22,65.53 L47.68,65.39 L45.29,64.48 L43.30,62.89 L41.88,60.77 L33.87,62.32 L35.37,65.28 L37.49,67.84 L40.13,69.85 L43.15,71.23 L46.40,71.90 L49.72,71.82 L53.10,71.60 L56.18,70.95 L58.91,69.91 L61.26,68.51 L63.18,66.79 L64.60,64.78 L65.49,62.53 L65.80,60.06 L65.69,57.38 L64.96,54.80 L63.65,52.47 L61.84,50.50 L59.61,49.01 L54.72,47.34 L49.72,46.02 L47.21,45.15 L45.30,43.90 L44.59,43.15 L44.08,42.33 L43.76,41.44 L43.65,40.50 L44.32,38.47 L45.70,36.85 L47.60,35.87 L49.72,35.69 L51.84,35.86 L53.83,36.59 L55.54,37.84 L56.85,39.50 L63.76,37.29 L61.81,34.59 L59.27,32.41 L56.30,30.89 L53.06,30.11 L49.72,30.11 L47.25,30.25 L44.77,30.69 L42.40,31.45 L40.24,32.57 L38.37,34.07 L36.92,35.98 L36.38,37.10 L35.97,38.34 L35.72,39.69 L35.64,41.16 L35.92,44.55 L36.26,45.99 L36.73,47.28 L37.32,48.42 L38.04,49.44 L39.79,51.12 L41.96,52.41 L44.49,53.41 L47.35,54.19 L50.50,54.86 L52.42,55.36 L54.66,56.36 L55.68,57.09 L56.52,57.99 L57.08,59.09 L57.29,60.39 L56.80,62.08 L56.28,62.94 L55.56,63.74 L54.61,64.45 L53.42,65.02 L51.96,65.39 L50.22,65.53 Z" fill="#ffffff" stroke="#ffffff" stroke-width="1" stroke-linejoin="round" opacity="0.9"/></svg>