<svg xmlns="http://www.w3.org/2000/svg" viewBox="0.67 8.23 94.67 79.54"><path d="M93.33,13.33 L93.33,71.10 L92.91,72.66 L91.77,73.79 L90.22,74.20 L66.13,74.20 L65.60,74.42 L65.38,74.95 L65.38,84.27 L64.97,85.28 L63.99,85.76 L62.94,85.46 L48.42,74.36 L48.20,74.24 L47.96,74.20 L5.78,74.20 L4.23,73.79 L3.09,72.66 L2.67,71.10 L2.67,13.33 L3.09,11.78 L4.23,10.64 L5.78,10.23 L90.22,10.23 L91.77,10.64 L92.91,11.78 L93.33,13.33 Z" fill="#71b42b" stroke="#1e1e1e" stroke-width="1" stroke-linejoin="round"/><path d="M57.45,41.90 L57.45,41.90 L55.15,40.05 L52.60,38.55 L49.86,37.43 L49.86,29.09 L53.41,29.96 L56.71,31.51 L57.01,31.59 L57.31,31.51 L57.53,31.29 L57.61,30.98 L57.61,24.30 L57.53,23.99 L57.31,23.77 L53.67,22.50 L49.84,22.03 L49.84,18.09 L49.67,17.68 L49.25,17.50 L45.67,17.50 L45.25,17.68 L45.08,18.09 L45.08,22.18 L42.53,22.76 L40.16,23.86 L38.08,25.45 L36.45,27.51 L35.43,29.93 L35.11,32.53 L35.32,34.98 L36.15,37.29 L37.54,39.31 L39.83,41.15 L42.36,42.65 L45.08,43.77 L45.08,51.73 L42.92,51.32 L40.82,50.67 L38.70,49.82 L36.75,48.63 L36.13,48.58 L35.81,49.10 L35.81,56.00 L35.89,56.31 L36.12,56.53 L38.99,57.76 L42.01,58.55 L45.11,58.87 L45.11,63.54 L45.28,63.95 L45.70,64.13 L49.30,64.13 L49.71,63.95 L49.88,63.54 L49.88,58.67 L52.52,58.13 L54.99,57.04 L57.17,55.47 L58.73,53.41 L59.66,51.00 L59.91,48.43 L59.67,46.06 L58.83,43.84 L57.45,41.90 L57.45,41.90 Z" fill="#f2f2f2" stroke="#f2f2f2" stroke-width="1" stroke-linejoin="round"/><path d="M52.20,48.72 L52.20,48.76 L51.95,50.07 L51.10,51.10 L49.86,51.59 L49.86,45.72 L50.87,46.39 L51.60,47.12 L52.04,47.89 L52.20,48.72 Z" fill="#71b42b" stroke="#71b42b" stroke-width="1" stroke-linejoin="round"/><path d="M42.84,32.12 L43.08,30.83 L43.89,29.80 L45.08,29.26 L45.08,35.41 L43.95,34.61 L43.17,33.47 L42.84,32.12 L42.84,32.12 Z" fill="#71b42b" stroke="#71b42b" stroke-width="1" stroke-linejoin="round"/></svg>