<svg xmlns="http://www.w3.org/2000/svg" viewBox="0.79 0.24 98.99 100.00"><path d="M64.88,54.88 L64.88,54.88 L61.98,52.54 L58.78,50.65 L55.33,49.24 L55.33,38.73 L58.34,39.36 L61.24,40.38 L63.97,41.79 L64.35,41.89 L64.72,41.79 L65.00,41.52 L65.10,41.14 L65.10,32.69 L65.00,32.31 L64.72,32.04 L61.71,30.87 L58.55,30.14 L55.33,29.86 L55.33,24.86 L55.11,24.34 L54.58,24.12 L50.03,24.12 L49.50,24.34 L49.29,24.86 L49.29,30.01 L46.07,30.74 L43.08,32.14 L40.46,34.14 L38.84,36.04 L37.65,38.22 L36.93,40.60 L36.72,43.08 L36.98,46.16 L38.02,49.07 L39.77,51.62 L42.66,53.95 L45.85,55.83 L49.28,57.24 L49.28,67.30 L46.53,66.78 L43.87,65.94 L41.19,64.87 L38.73,63.37 L38.35,63.23 L37.95,63.31 L37.66,63.59 L37.55,63.97 L37.55,72.65 L37.66,73.04 L37.95,73.31 L41.56,74.87 L45.36,75.86 L49.28,76.27 L49.28,82.15 L49.49,82.68 L50.02,82.89 L54.55,82.89 L55.10,82.69 L55.33,82.15 L55.33,76.01 L58.66,75.34 L61.78,73.98 L64.55,72.00 L66.09,70.10 L67.21,67.93 L67.85,65.57 L68.01,63.13 L67.70,60.14 L66.63,57.32 L64.88,54.88 L64.88,54.88 Z" fill="#76bc2d" stroke="#76bc2d" stroke-width="1" stroke-linejoin="round"/><path d="M58.25,63.48 L58.25,63.53 L57.93,65.18 L56.87,66.48 L55.31,67.10 L55.31,59.71 L56.58,60.55 L57.49,61.45 L58.05,62.43 L58.25,63.48 Z" fill="#ffffff" stroke="#ffffff" stroke-width="1" stroke-linejoin="round"/><path d="M46.46,42.56 L46.76,40.93 L47.78,39.63 L49.29,38.95 L49.29,46.69 L47.86,45.69 L46.87,44.25 L46.46,42.56 Z" fill="#ffffff" stroke="#ffffff" stroke-width="1" stroke-linejoin="round"/><ellipse cx="11.33" cy="47.48" rx="8.53" ry="8.53" fill="#f78d1e" stroke="#f78d1e" stroke-width="1"/><ellipse cx="22.92" cy="21.97" rx="8.53" ry="8.53" fill="#f78d1e" stroke="#f78d1e" stroke-width="1"/><path d="M65.03,10.57 L62.40,9.93 L59.74,9.45 L59.85,11.69 L59.37,13.87 L58.33,15.86 L63.88,17.05 L69.19,19.06 L74.15,21.83 L78.64,25.31 L82.56,29.42 L85.83,34.07 L88.37,39.14 L90.13,44.54 L91.07,50.15 L91.17,55.82 L90.42,61.45 L88.85,66.91 L86.48,72.07 L83.37,76.83 L79.59,81.07 L75.23,84.70 L70.37,87.64 L65.13,89.83 L59.62,91.22 L53.97,91.77 L48.30,91.48 L42.73,90.35 L37.39,88.40 L32.41,85.68 L27.88,82.26 L23.91,78.20 L20.58,73.59 L23.94,72.33 L24.41,71.76 L24.15,71.07 L12.14,61.17 L11.40,61.04 L10.93,61.62 L8.43,76.97 L8.69,77.67 L9.42,77.79 L14.36,75.93 L17.85,81.12 L22.03,85.78 L26.82,89.80 L32.12,93.11 L37.84,95.66 L43.85,97.38 L50.05,98.24 L56.30,98.23 L62.49,97.35 L68.50,95.61 L74.21,93.05 L79.50,89.72 L84.28,85.69 L88.45,81.02 L91.93,75.82 L94.64,70.19 L96.55,64.23 L97.60,58.07 L97.78,51.81 L97.09,45.60 L95.54,39.54 L93.16,33.75 L89.99,28.36 L86.10,23.46 L81.57,19.15 L76.48,15.52 L70.93,12.63 L65.03,10.55 L65.03,10.57 Z" fill="#76bc2d" stroke="#1e1e1e" stroke-width="1" stroke-linejoin="round"/><ellipse cx="47.87" cy="10.77" rx="8.53" ry="8.53" fill="#f78d1e" stroke="#f78d1e" stroke-width="1"/></svg>