<svg xmlns="http://www.w3.org/2000/svg" viewBox="0.67 0.14 94.65 95.61"><path d="M61.91,52.37 L61.91,52.37 L59.15,50.14 L56.09,48.33 L52.80,46.99 L52.80,36.96 L55.67,37.56 L58.44,38.54 L61.05,39.88 L61.41,39.97 L61.77,39.88 L62.03,39.62 L62.13,39.26 L62.13,31.19 L62.03,30.84 L61.77,30.58 L58.89,29.46 L55.88,28.76 L52.80,28.50 L52.80,23.73 L52.59,23.22 L52.09,23.02 L47.74,23.02 L47.24,23.22 L47.03,23.73 L47.03,28.64 L43.96,29.34 L41.11,30.67 L38.61,32.58 L37.07,34.39 L35.93,36.47 L35.24,38.75 L35.04,41.11 L35.29,44.05 L36.29,46.83 L37.96,49.26 L40.71,51.48 L43.75,53.28 L47.02,54.63 L47.02,64.23 L44.41,63.73 L41.86,62.93 L39.31,61.90 L36.96,60.47 L36.60,60.34 L36.22,60.42 L35.94,60.68 L35.83,61.05 L35.83,69.33 L35.94,69.70 L36.21,69.96 L39.66,71.45 L43.29,72.39 L47.02,72.78 L47.02,78.40 L47.23,78.90 L47.73,79.10 L52.06,79.10 L52.58,78.91 L52.80,78.40 L52.80,72.53 L55.98,71.90 L58.96,70.60 L61.60,68.71 L63.07,66.90 L64.14,64.82 L64.75,62.57 L64.90,60.25 L64.61,57.39 L63.59,54.70 L61.91,52.37 L61.91,52.37 Z" fill="#76bc2d" stroke="#76bc2d" stroke-width="1" stroke-linejoin="round"/><path d="M55.59,60.58 L55.59,60.63 L55.29,62.20 L54.27,63.44 L52.78,64.03 L52.78,56.99 L53.99,57.78 L54.87,58.65 L55.40,59.58 L55.59,60.58 Z" fill="#ffffff" stroke="#ffffff" stroke-width="1" stroke-linejoin="round"/><path d="M44.34,40.61 L44.62,39.06 L45.59,37.82 L47.03,37.17 L47.03,44.56 L45.67,43.60 L44.73,42.23 L44.34,40.61 Z" fill="#ffffff" stroke="#ffffff" stroke-width="1" stroke-linejoin="round"/><ellipse cx="10.81" cy="45.31" rx="8.14" ry="8.14" fill="#f78d1e" stroke="#f78d1e" stroke-width="1"/><ellipse cx="21.88" cy="20.97" rx="8.14" ry="8.14" fill="#f78d1e" stroke="#f78d1e" stroke-width="1"/><path d="M62.06,10.09 L59.55,9.47 L57.01,9.02 L57.11,11.15 L56.65,13.24 L55.66,15.13 L60.96,16.27 L66.03,18.19 L70.76,20.84 L75.04,24.16 L78.79,28.08 L81.91,32.51 L84.33,37.36 L86.01,42.51 L86.91,47.85 L87.00,53.27 L86.29,58.65 L84.79,63.85 L82.53,68.78 L79.56,73.32 L75.96,77.36 L71.79,80.83 L67.15,83.64 L62.15,85.72 L56.90,87.05 L51.50,87.58 L46.09,87.30 L40.78,86.22 L35.69,84.36 L30.93,81.77 L26.60,78.50 L22.81,74.62 L19.64,70.23 L22.84,69.03 L23.29,68.49 L23.05,67.82 L11.58,58.37 L10.88,58.26 L10.43,58.81 L8.04,73.46 L8.29,74.12 L8.99,74.23 L13.70,72.46 L17.03,77.42 L21.02,81.86 L25.59,85.70 L30.65,88.86 L36.11,91.29 L41.85,92.93 L47.76,93.75 L53.73,93.74 L59.64,92.90 L65.37,91.25 L70.82,88.80 L75.87,85.63 L80.43,81.77 L84.41,77.32 L87.73,72.36 L90.32,66.98 L92.14,61.30 L93.14,55.41 L93.32,49.45 L92.66,43.51 L91.17,37.73 L88.90,32.21 L85.88,27.06 L82.17,22.39 L77.84,18.28 L72.98,14.81 L67.69,12.05 L62.06,10.06 L62.06,10.09 Z" fill="#76bc2d" stroke="#1e1e1e" stroke-width="1" stroke-linejoin="round"/><ellipse cx="45.69" cy="10.28" rx="8.14" ry="8.14" fill="#f78d1e" stroke="#f78d1e" stroke-width="1"/></svg>