<svg xmlns="http://www.w3.org/2000/svg" viewBox="-0.34 5.89 96.67 87.15"><path d="M65.87,7.89 L30.13,7.89 L27.38,8.26 L24.81,9.33 L22.60,11.02 L20.91,13.23 L3.09,44.16 L2.03,46.73 L1.66,49.49 L2.03,52.25 L3.09,54.83 L20.91,85.71 L22.60,87.91 L24.81,89.61 L27.38,90.67 L30.13,91.04 L65.87,91.04 L68.62,90.67 L71.19,89.61 L73.40,87.91 L75.09,85.71 L92.91,54.83 L93.97,52.25 L94.34,49.49 L93.97,46.73 L92.91,44.16 L75.09,13.23 L73.40,11.02 L71.19,9.33 L68.62,8.26 L65.87,7.89 Z" fill="#6fb12a" stroke="#1e1e1e" stroke-width="1" stroke-linejoin="round"/><path d="M48.37,25.65 L46.71,25.33 L45.30,24.39 L44.35,22.99 L44.00,21.33 L44.33,19.66 L45.28,18.24 L46.70,17.29 L48.37,16.96 L50.05,17.29 L51.47,18.24 L52.41,19.66 L52.75,21.33 L52.40,22.99 L51.45,24.39 L50.03,25.33 L48.37,25.65 L48.37,25.65 Z" fill="#ffffff" stroke="#ffffff" stroke-width="1" stroke-linejoin="round" opacity="0.9"/><path d="M44.00,77.65 L44.33,79.33 L45.28,80.75 L46.70,81.69 L48.37,82.03 L50.05,81.69 L51.47,80.75 L52.41,79.33 L52.75,77.65 L52.41,75.98 L51.47,74.56 L50.05,73.61 L48.37,73.28 L46.70,73.61 L45.28,74.56 L44.33,75.98 L44.00,77.65 Z" fill="#ffffff" stroke="#ffffff" stroke-width="1" stroke-linejoin="round" opacity="0.9"/><path d="M48.48,63.25 L46.02,63.12 L43.72,62.24 L41.80,60.71 L40.43,58.67 L32.69,60.16 L34.14,63.02 L36.19,65.48 L38.74,67.43 L41.66,68.76 L44.80,69.40 L48.00,69.33 L51.25,69.12 L54.23,68.49 L56.87,67.48 L59.14,66.13 L60.99,64.47 L62.36,62.54 L63.22,60.36 L63.52,57.97 L63.41,55.39 L62.71,52.90 L61.45,50.65 L59.69,48.75 L57.55,47.31 L52.83,45.69 L48.00,44.43 L45.58,43.59 L43.73,42.38 L43.05,41.66 L42.55,40.86 L42.24,40.01 L42.13,39.09 L42.78,37.14 L44.12,35.57 L45.95,34.63 L48.00,34.45 L50.04,34.61 L51.96,35.32 L53.61,36.53 L54.88,38.13 L61.55,36.00 L59.66,33.39 L57.22,31.29 L54.35,29.82 L51.22,29.07 L48.00,29.07 L45.61,29.20 L43.22,29.62 L40.93,30.36 L38.84,31.44 L37.04,32.89 L35.64,34.74 L35.12,35.82 L34.73,37.01 L34.48,38.31 L34.40,39.73 L34.67,43.01 L35.00,44.40 L35.46,45.64 L36.03,46.75 L36.72,47.72 L38.41,49.35 L40.50,50.59 L42.95,51.55 L45.71,52.31 L48.75,52.96 L50.60,53.44 L52.77,54.41 L53.75,55.11 L54.56,55.98 L55.11,57.04 L55.31,58.29 L54.83,59.92 L54.33,60.75 L53.63,61.53 L52.72,62.22 L51.56,62.76 L50.16,63.12 L48.48,63.25 Z" fill="#ffffff" stroke="#ffffff" stroke-width="1" stroke-linejoin="round" opacity="0.9"/></svg>