<svg xmlns="http://www.w3.org/2000/svg" viewBox="0.79 0.15 98.73 100.00"><path d="M72.81,15.57 L72.81,42.27 L49.74,55.68 L49.74,28.94 L72.81,15.57 Z" fill="#76bc2d" stroke="#1e1e1e" stroke-width="1" stroke-linejoin="round"/><path d="M72.81,15.57 L49.74,28.98 L26.66,15.56 L49.74,2.15 L72.81,15.57 Z" fill="#b4ec36" stroke="#1e1e1e" stroke-width="1" stroke-linejoin="round"/><path d="M49.74,28.98 L49.74,55.68 L26.66,42.27 L26.66,15.56 L49.74,28.98 Z" fill="#86d633" stroke="#1e1e1e" stroke-width="1" stroke-linejoin="round"/><path d="M48.94,58.04 L48.94,84.74 L25.86,98.15 L25.86,71.41 L48.94,58.04 Z" fill="#76bc2d" stroke="#1e1e1e" stroke-width="1" stroke-linejoin="round"/><path d="M48.94,58.04 L25.86,71.45 L2.79,58.04 L25.86,44.62 L48.94,58.04 Z" fill="#b4ec36" stroke="#1e1e1e" stroke-width="1" stroke-linejoin="round"/><path d="M25.86,71.45 L25.86,98.15 L2.79,84.74 L2.79,58.04 L25.86,71.45 Z" fill="#86d633" stroke="#1e1e1e" stroke-width="1" stroke-linejoin="round"/><path d="M97.52,58.04 L97.52,84.74 L74.44,98.15 L74.44,71.41 L97.52,58.04 Z" fill="#76bc2d" stroke="#1e1e1e" stroke-width="1" stroke-linejoin="round"/><path d="M97.52,58.04 L74.45,71.45 L51.37,58.04 L74.45,44.62 L97.52,58.04 Z" fill="#b4ec36" stroke="#1e1e1e" stroke-width="1" stroke-linejoin="round"/><path d="M74.44,71.45 L74.44,98.15 L51.37,84.74 L51.37,58.04 L74.44,71.45 Z" fill="#86d633" stroke="#1e1e1e" stroke-width="1" stroke-linejoin="round"/></svg>