<svg xmlns="http://www.w3.org/2000/svg" viewBox="-2.00 12.06 100.00 71.88"><path d="M2.93,14.06 L93.13,14.06 L94.51,14.36 L95.56,15.32 L96.00,16.67 L96.00,79.33 L95.56,80.68 L94.51,81.64 L93.13,81.94 L2.93,81.94 L1.53,81.64 L0.46,80.69 L0.00,79.33 L0.00,16.77 L0.43,15.38 L1.50,14.38 L2.92,14.06 L2.93,14.06 Z" fill="#68c2b5" stroke="#1e1e1e" stroke-width="1" stroke-linejoin="round"/><rect x="66.45" y="22.43" width="8.17" height="49.86" fill="#ffffff" stroke="#1e1e1e" stroke-width="1" opacity="0.9"/><rect x="8.68" y="62.02" width="45.72" height="10.33" fill="#ffffff" stroke="#1e1e1e" stroke-width="1" opacity="0.6"/><rect x="78.98" y="42.83" width="8.17" height="29.46" fill="#ffffff" stroke="#ffffff" stroke-width="1" opacity="0.9"/><path d="M48.62,25.45 L37.26,45.66 L25.25,33.42 L12.86,49.48 L15.77,51.76 L25.59,39.09 L38.06,51.81 L51.84,27.30 L48.62,25.45 Z" fill="#ffffff" stroke="#1e1e1e" stroke-width="1" stroke-linejoin="round"/><ellipse cx="25.39" cy="36.24" rx="4.67" ry="4.70" fill="#ffffff" stroke="#ffffff" stroke-width="1"/><ellipse cx="38.06" cy="47.89" rx="4.67" ry="4.70" fill="#ffffff" stroke="#ffffff" stroke-width="1"/><ellipse cx="49.82" cy="26.96" rx="4.67" ry="4.70" fill="#ffffff" stroke="#ffffff" stroke-width="1"/><ellipse cx="14.80" cy="49.94" rx="4.67" ry="4.70" fill="#ffffff" stroke="#ffffff" stroke-width="1"/></svg>