<svg xmlns="http://www.w3.org/2000/svg" viewBox="-2.00 9.46 99.95 77.23"><path d="M75.13,29.89 L2.36,29.89 L1.21,30.16 L0.35,30.96 L-0.00,32.08 L0.00,82.55 L0.37,83.66 L1.23,84.43 L2.36,84.69 L75.13,84.69 L76.25,84.43 L77.10,83.65 L77.45,82.55 L77.45,32.00 L77.10,30.91 L76.25,30.14 L75.13,29.89 L75.13,29.89 Z" fill="#2c9a8d" stroke="#1e1e1e" stroke-width="1" stroke-linejoin="round"/><path d="M84.41,20.62 L11.64,20.62 L10.49,20.88 L9.62,21.68 L9.27,22.81 L9.27,73.28 L9.65,74.37 L10.51,75.14 L11.64,75.38 L84.41,75.38 L85.52,75.13 L86.37,74.37 L86.73,73.28 L86.73,22.72 L86.37,21.63 L85.52,20.87 L84.41,20.62 L84.41,20.62 Z" fill="#31ad9e" stroke="#1e1e1e" stroke-width="1" stroke-linejoin="round"/><path d="M93.63,11.46 L20.98,11.46 L19.83,11.73 L18.97,12.53 L18.62,13.65 L18.62,64.04 L19.00,65.13 L19.86,65.90 L20.98,66.14 L93.63,66.14 L94.75,65.90 L95.59,65.13 L95.95,64.04 L95.95,13.56 L95.59,12.48 L94.75,11.71 L93.63,11.46 L93.63,11.46 Z" fill="#3acbba" stroke="#1e1e1e" stroke-width="1" stroke-linejoin="round"/><path d="M78.09,18.21 L78.25,18.23 L78.41,18.29 L78.54,18.39 L78.64,18.53 L78.70,18.68 L78.73,18.84 L78.73,57.73 L78.70,57.90 L78.64,58.05 L78.54,58.18 L78.41,58.28 L78.25,58.35 L78.09,58.37 L72.78,58.37 L72.61,58.35 L72.46,58.28 L72.33,58.18 L72.23,58.05 L72.17,57.90 L72.14,57.73 L72.14,18.84 L72.17,18.68 L72.23,18.53 L72.33,18.39 L72.46,18.29 L72.61,18.23 L72.78,18.21 L78.09,18.21 Z" fill="#ffffff" stroke="#ffffff" stroke-width="1" stroke-linejoin="round" opacity="0.9"/><path d="M61.75,50.09 L61.93,50.11 L62.10,50.18 L62.24,50.29 L62.35,50.43 L62.41,50.60 L62.44,50.77 L62.44,57.73 L62.41,57.90 L62.35,58.07 L62.24,58.21 L62.10,58.32 L61.93,58.39 L61.75,58.41 L26.30,58.41 L26.12,58.39 L25.96,58.32 L25.82,58.21 L25.71,58.07 L25.64,57.90 L25.62,57.73 L25.62,50.77 L25.64,50.60 L25.71,50.43 L25.82,50.29 L25.96,50.18 L26.12,50.11 L26.30,50.09 L61.75,50.09 Z" fill="#ffffff" stroke="#1e1e1e" stroke-width="1" stroke-linejoin="round" opacity="0.6"/><path d="M88.33,34.63 L88.46,34.65 L88.57,34.70 L88.67,34.78 L88.75,34.88 L88.80,34.99 L88.82,35.12 L88.82,57.88 L88.80,58.01 L88.75,58.13 L88.67,58.23 L88.57,58.30 L88.46,58.35 L88.33,58.37 L82.72,58.37 L82.59,58.35 L82.48,58.30 L82.38,58.23 L82.30,58.13 L82.25,58.01 L82.23,57.88 L82.23,35.12 L82.25,34.99 L82.30,34.88 L82.38,34.78 L82.48,34.70 L82.59,34.65 L82.72,34.63 L88.33,34.63 Z" fill="#ffffff" stroke="#ffffff" stroke-width="1" stroke-linejoin="round" opacity="0.9"/><path d="M57.79,20.63 L48.63,36.92 L38.96,27.06 L28.98,39.99 L31.32,41.82 L39.23,31.62 L49.28,41.87 L60.38,22.13 L57.79,20.63 Z" fill="#ffffff" stroke="#1e1e1e" stroke-width="1" stroke-linejoin="round"/><ellipse cx="39.07" cy="29.33" rx="3.76" ry="3.78" fill="#ffffff" stroke="#ffffff" stroke-width="1"/><ellipse cx="49.28" cy="38.71" rx="3.76" ry="3.78" fill="#ffffff" stroke="#ffffff" stroke-width="1"/><ellipse cx="58.75" cy="21.85" rx="3.76" ry="3.78" fill="#ffffff" stroke="#ffffff" stroke-width="1"/><ellipse cx="30.54" cy="40.36" rx="3.76" ry="3.78" fill="#ffffff" stroke="#ffffff" stroke-width="1"/></svg>