<svg xmlns="http://www.w3.org/2000/svg" viewBox="-2.00 9.46 99.95 77.23"><path d="M75.13,29.89 L2.36,29.89 L1.21,30.16 L0.35,30.96 L-0.00,32.08 L0.00,82.55 L0.37,83.66 L1.23,84.43 L2.36,84.69 L75.13,84.69 L76.25,84.43 L77.10,83.65 L77.45,82.55 L77.45,32.00 L77.10,30.91 L76.25,30.14 L75.13,29.89 L75.13,29.89 Z" fill="#2c9a8d" stroke="#1e1e1e" stroke-width="1" stroke-linejoin="round"/><path d="M84.41,20.62 L11.64,20.62 L10.49,20.88 L9.62,21.68 L9.27,22.81 L9.27,73.28 L9.65,74.37 L10.51,75.14 L11.64,75.38 L84.41,75.38 L85.52,75.13 L86.37,74.37 L86.73,73.28 L86.73,22.72 L86.37,21.63 L85.52,20.87 L84.41,20.62 L84.41,20.62 Z" fill="#31ad9e" stroke="#1e1e1e" stroke-width="1" stroke-linejoin="round"/><path d="M93.63,11.46 L20.98,11.46 L19.83,11.73 L18.97,12.53 L18.62,13.65 L18.62,64.04 L19.00,65.13 L19.86,65.90 L20.98,66.14 L93.63,66.14 L94.75,65.90 L95.59,65.13 L95.95,64.04 L95.95,13.56 L95.59,12.48 L94.75,11.71 L93.63,11.46 L93.63,11.46 Z" fill="#3acbba" stroke="#1e1e1e" stroke-width="1" stroke-linejoin="round"/><rect x="72.14" y="18.21" width="6.58" height="40.16" fill="#ffffff" stroke="#ffffff" stroke-width="1" opacity="0.9"/><rect x="25.62" y="50.09" width="36.82" height="8.32" fill="#ffffff" stroke="#1e1e1e" stroke-width="1" opacity="0.6"/><rect x="82.23" y="34.63" width="6.58" height="23.73" fill="#ffffff" stroke="#ffffff" stroke-width="1" opacity="0.9"/><path d="M57.79,20.63 L48.63,36.92 L38.96,27.06 L28.98,39.99 L31.32,41.82 L39.23,31.62 L49.28,41.87 L60.38,22.13 L57.79,20.63 Z" fill="#ffffff" stroke="#1e1e1e" stroke-width="1" stroke-linejoin="round"/><ellipse cx="39.07" cy="29.33" rx="3.76" ry="3.78" fill="#ffffff" stroke="#ffffff" stroke-width="1"/><ellipse cx="49.28" cy="38.71" rx="3.76" ry="3.78" fill="#ffffff" stroke="#ffffff" stroke-width="1"/><ellipse cx="58.75" cy="21.85" rx="3.76" ry="3.78" fill="#ffffff" stroke="#ffffff" stroke-width="1"/><ellipse cx="30.54" cy="40.36" rx="3.76" ry="3.78" fill="#ffffff" stroke="#ffffff" stroke-width="1"/></svg>