<svg xmlns="http://www.w3.org/2000/svg" viewBox="-2.00 12.06 100.00 71.88"><path d="M2.93,14.06 L93.13,14.06 L94.51,14.36 L95.56,15.32 L96.00,16.67 L96.00,79.33 L95.56,80.68 L94.51,81.64 L93.13,81.94 L2.93,81.94 L1.53,81.64 L0.46,80.69 L0.00,79.33 L0.00,16.77 L0.43,15.38 L1.50,14.38 L2.92,14.06 L2.93,14.06 Z" fill="#68c2b5" stroke="#1e1e1e" stroke-width="1" stroke-linejoin="round"/><path d="M73.83,22.43 L74.04,22.46 L74.23,22.54 L74.39,22.66 L74.51,22.82 L74.59,23.01 L74.62,23.22 L74.62,71.51 L74.59,71.71 L74.51,71.90 L74.39,72.06 L74.23,72.19 L74.04,72.27 L73.83,72.29 L67.23,72.29 L67.03,72.27 L66.84,72.19 L66.68,72.06 L66.55,71.90 L66.47,71.71 L66.45,71.51 L66.45,23.22 L66.47,23.01 L66.55,22.82 L66.68,22.66 L66.84,22.54 L67.03,22.46 L67.23,22.43 L73.83,22.43 Z" fill="#ffffff" stroke="#1e1e1e" stroke-width="1" stroke-linejoin="round" opacity="0.9"/><path d="M53.55,62.02 L53.77,62.05 L53.98,62.13 L54.15,62.27 L54.29,62.45 L54.37,62.65 L54.40,62.87 L54.40,71.50 L54.37,71.72 L54.29,71.93 L54.15,72.10 L53.98,72.24 L53.77,72.32 L53.55,72.35 L9.53,72.35 L9.31,72.32 L9.11,72.24 L8.93,72.10 L8.80,71.93 L8.71,71.72 L8.68,71.50 L8.68,62.87 L8.71,62.65 L8.80,62.45 L8.93,62.27 L9.11,62.13 L9.31,62.05 L9.53,62.02 L53.55,62.02 Z" fill="#ffffff" stroke="#1e1e1e" stroke-width="1" stroke-linejoin="round" opacity="0.6"/><path d="M86.54,42.83 L86.70,42.85 L86.85,42.91 L86.97,43.01 L87.07,43.13 L87.13,43.28 L87.15,43.43 L87.15,71.69 L87.13,71.85 L87.07,71.99 L86.97,72.12 L86.85,72.21 L86.70,72.27 L86.54,72.29 L79.58,72.29 L79.42,72.27 L79.28,72.21 L79.15,72.12 L79.06,71.99 L79.00,71.85 L78.98,71.69 L78.98,43.43 L79.00,43.28 L79.06,43.13 L79.15,43.01 L79.28,42.91 L79.42,42.85 L79.58,42.83 L86.54,42.83 Z" fill="#ffffff" stroke="#ffffff" stroke-width="1" stroke-linejoin="round" opacity="0.9"/><path d="M48.62,25.45 L37.26,45.66 L25.25,33.42 L12.86,49.48 L15.77,51.76 L25.59,39.09 L38.06,51.81 L51.84,27.30 L48.62,25.45 Z" fill="#ffffff" stroke="#1e1e1e" stroke-width="1" stroke-linejoin="round"/><ellipse cx="25.39" cy="36.24" rx="4.67" ry="4.70" fill="#ffffff" stroke="#ffffff" stroke-width="1"/><ellipse cx="38.06" cy="47.89" rx="4.67" ry="4.70" fill="#ffffff" stroke="#ffffff" stroke-width="1"/><ellipse cx="49.82" cy="26.96" rx="4.67" ry="4.70" fill="#ffffff" stroke="#ffffff" stroke-width="1"/><ellipse cx="14.80" cy="49.94" rx="4.67" ry="4.70" fill="#ffffff" stroke="#ffffff" stroke-width="1"/></svg>