<svg xmlns="http://www.w3.org/2000/svg" viewBox="2.69 0.82 96.27 100.00"><path d="M71.43,93.92 L69.54,93.58 L67.90,93.12 L66.47,92.54 L65.26,91.83 L64.23,91.01 L63.38,90.06 L62.69,89.00 L62.14,87.82 L61.41,85.12 L61.05,81.98 L60.94,74.42 L40.87,74.42 L40.76,81.98 L40.40,85.12 L39.66,87.82 L39.11,89.00 L38.42,90.07 L37.57,91.01 L36.55,91.84 L35.34,92.55 L33.91,93.13 L32.27,93.59 L30.39,93.92 L28.54,94.38 L26.97,95.45 L25.85,96.99 L25.34,98.82 L76.51,98.82 L75.98,96.99 L74.86,95.45 L73.28,94.38 L71.43,93.92 L71.43,93.92 Z" fill="#1f56a3" stroke="#1e1e1e" stroke-width="1" stroke-linejoin="round"/><path d="M93.83,9.40 L94.64,9.51 L95.40,9.82 L96.04,10.32 L96.54,10.97 L96.85,11.72 L96.96,12.53 L96.96,71.62 L96.85,72.43 L96.54,73.18 L96.04,73.83 L95.40,74.33 L94.64,74.64 L93.83,74.74 L7.82,74.74 L7.01,74.64 L6.25,74.33 L5.60,73.83 L5.11,73.18 L4.79,72.43 L4.69,71.62 L4.69,12.53 L4.79,11.72 L5.11,10.97 L5.60,10.32 L6.25,9.82 L7.01,9.51 L7.82,9.40 L93.83,9.40 Z" fill="#1490df" stroke="#1e1e1e" stroke-width="1" stroke-linejoin="round"/><path d="M89.95,14.46 L90.35,14.52 L90.73,14.67 L91.05,14.92 L91.30,15.24 L91.46,15.62 L91.51,16.03 L91.51,67.12 L91.46,67.52 L91.30,67.90 L91.05,68.22 L90.73,68.47 L90.35,68.63 L89.95,68.68 L11.56,68.68 L11.15,68.63 L10.78,68.47 L10.45,68.22 L10.20,67.90 L10.05,67.52 L10.00,67.12 L10.00,16.03 L10.05,15.62 L10.20,15.24 L10.45,14.92 L10.78,14.67 L11.15,14.52 L11.56,14.46 L89.95,14.46 Z" fill="#ffffff" stroke="#1e1e1e" stroke-width="1" stroke-linejoin="round"/><path d="M70.96,29.48 L52.40,48.03 L51.41,48.60 L50.26,48.60 L49.27,48.03 L30.72,29.48 L30.42,28.78 L30.71,28.07 L31.42,27.78 L42.83,27.78 L43.53,27.49 L43.82,26.80 L43.82,3.61 L44.05,3.05 L44.61,2.82 L57.07,2.82 L57.63,3.06 L57.86,3.61 L57.86,26.80 L58.15,27.50 L58.85,27.79 L70.26,27.79 L70.96,28.08 L71.25,28.78 L70.96,29.48 Z" fill="#43a6ee" stroke="#1e1e1e" stroke-width="1" stroke-linejoin="round"/><path d="M24.78,50.08 L28.87,50.08 L29.51,50.35 L29.77,50.99 L29.77,62.42 L29.77,62.42 L25.69,62.42 L24.78,62.17 L24.12,61.51 L23.88,60.60 L23.88,50.99 L24.14,50.35 L24.78,50.08 Z" fill="#999999" stroke="#999999" stroke-width="1" stroke-linejoin="round"/><path d="M24.78,50.08 L28.87,50.08 L29.51,50.35 L29.77,50.99 L29.77,62.42 L29.77,62.42 L25.69,62.42 L24.78,62.17 L24.12,61.51 L23.88,60.60 L23.88,50.99 L24.14,50.35 L24.78,50.08 Z" fill="#999999" stroke="#999999" stroke-width="1" stroke-linejoin="round" opacity="0.5"/><path d="M72.77,50.08 L76.86,50.08 L77.50,50.35 L77.77,50.99 L77.77,60.59 L77.52,61.49 L76.86,62.16 L75.95,62.40 L71.86,62.40 L71.86,62.40 L71.86,50.99 L72.13,50.35 L72.77,50.08 L72.77,50.08 Z" fill="#999999" stroke="#999999" stroke-width="1" stroke-linejoin="round"/><path d="M72.77,50.08 L76.86,50.08 L77.50,50.35 L77.77,50.99 L77.77,60.59 L77.52,61.49 L76.86,62.16 L75.95,62.40 L71.86,62.40 L71.86,62.40 L71.86,50.99 L72.13,50.35 L72.77,50.08 L72.77,50.08 Z" fill="#999999" stroke="#999999" stroke-width="1" stroke-linejoin="round" opacity="0.5"/><path d="M23.88,60.62 L23.88,56.67 L23.88,56.67 L77.77,56.67 L77.77,56.67 L77.77,60.62 L77.53,61.52 L76.88,62.17 L75.99,62.42 L25.67,62.42 L24.77,62.18 L24.12,61.52 L23.88,60.62 Z" fill="#949494" stroke="#949494" stroke-width="1" stroke-linejoin="round"/></svg>