<svg xmlns="http://www.w3.org/2000/svg" viewBox="2.43 0.67 91.15 94.67"><path d="M67.46,88.70 L65.68,88.38 L64.12,87.95 L62.78,87.40 L61.63,86.73 L60.66,85.95 L59.86,85.06 L59.21,84.05 L58.69,82.94 L58.00,80.39 L57.66,77.42 L57.56,70.29 L38.60,70.29 L38.49,77.42 L38.15,80.39 L37.46,82.94 L36.94,84.06 L36.29,85.06 L35.49,85.96 L34.52,86.74 L33.37,87.40 L32.03,87.95 L30.48,88.39 L28.70,88.70 L26.96,89.14 L25.47,90.15 L24.42,91.60 L23.93,93.33 L72.26,93.33 L71.76,91.60 L70.70,90.14 L69.21,89.13 L67.46,88.70 L67.46,88.70 Z" fill="#1f56a3" stroke="#1e1e1e" stroke-width="1" stroke-linejoin="round"/><rect x="4.43" y="8.88" width="87.15" height="61.71" fill="#1490df" stroke="#1e1e1e" stroke-width="1"/><rect x="9.44" y="13.66" width="76.99" height="51.21" fill="#ffffff" stroke="#1e1e1e" stroke-width="1"/><path d="M67.01,27.84 L49.49,45.36 L48.55,45.90 L47.47,45.90 L46.53,45.36 L29.01,27.84 L28.73,27.18 L29.01,26.51 L29.67,26.24 L40.45,26.24 L41.11,25.97 L41.38,25.31 L41.38,3.41 L41.60,2.88 L42.13,2.67 L53.90,2.67 L54.43,2.89 L54.65,3.41 L54.65,25.31 L54.92,25.97 L55.58,26.25 L66.36,26.25 L67.02,26.52 L67.29,27.18 L67.01,27.84 Z" fill="#43a6ee" stroke="#1e1e1e" stroke-width="1" stroke-linejoin="round"/><path d="M23.40,47.30 L27.26,47.30 L27.87,47.55 L28.12,48.15 L28.12,58.95 L28.12,58.95 L24.26,58.95 L23.41,58.72 L22.78,58.09 L22.55,57.24 L22.55,48.16 L22.80,47.55 L23.40,47.30 Z" fill="#999999" stroke="#999999" stroke-width="1" stroke-linejoin="round"/><path d="M23.40,47.30 L27.26,47.30 L27.87,47.55 L28.12,48.15 L28.12,58.95 L28.12,58.95 L24.26,58.95 L23.41,58.72 L22.78,58.09 L22.55,57.24 L22.55,48.16 L22.80,47.55 L23.40,47.30 Z" fill="#999999" stroke="#999999" stroke-width="1" stroke-linejoin="round" opacity="0.5"/><path d="M68.73,47.30 L72.59,47.30 L73.20,47.55 L73.45,48.15 L73.45,57.22 L73.22,58.08 L72.59,58.70 L71.73,58.93 L67.87,58.93 L67.87,58.93 L67.87,48.16 L68.12,47.55 L68.73,47.30 L68.73,47.30 Z" fill="#999999" stroke="#999999" stroke-width="1" stroke-linejoin="round"/><path d="M68.73,47.30 L72.59,47.30 L73.20,47.55 L73.45,48.15 L73.45,57.22 L73.22,58.08 L72.59,58.70 L71.73,58.93 L67.87,58.93 L67.87,58.93 L67.87,48.16 L68.12,47.55 L68.73,47.30 L68.73,47.30 Z" fill="#999999" stroke="#999999" stroke-width="1" stroke-linejoin="round" opacity="0.5"/><path d="M22.55,57.25 L22.55,53.52 L22.55,53.52 L73.45,53.52 L73.45,53.52 L73.45,57.25 L73.23,58.10 L72.61,58.72 L71.77,58.95 L24.25,58.95 L23.40,58.72 L22.78,58.10 L22.55,57.25 Z" fill="#949494" stroke="#949494" stroke-width="1" stroke-linejoin="round"/></svg>