<svg xmlns="http://www.w3.org/2000/svg" viewBox="-2.00 0.06 100.00 95.84"><path d="M96.00,48.79 L95.55,45.03 L94.45,41.40 L92.73,38.02 L90.45,34.99 L87.67,32.41 L84.48,30.35 L80.98,28.89 L77.28,28.06 L76.67,23.40 L75.26,18.91 L73.11,14.73 L70.27,10.99 L66.82,7.79 L62.88,5.24 L58.55,3.40 L53.97,2.33 L49.28,2.06 L44.99,2.31 L40.79,3.22 L36.78,4.76 L33.05,6.90 L29.70,9.59 L26.79,12.76 L24.41,16.34 L22.61,20.24 L18.15,21.19 L13.93,22.91 L10.08,25.35 L6.72,28.43 L3.96,32.06 L1.87,36.12 L0.54,40.48 L0.00,45.00 L0.57,49.51 L1.91,53.85 L3.99,57.90 L6.73,61.52 L10.06,64.61 L13.88,67.08 L18.06,68.85 L22.49,69.87 L27.03,70.11 L29.41,70.00 L73.18,70.00 L73.77,69.95 L74.34,69.83 L78.48,69.40 L82.46,68.20 L86.15,66.26 L89.39,63.66 L92.09,60.49 L94.13,56.87 L95.45,52.92 L96.00,48.79 L96.00,48.79 Z" fill="#3990e4" stroke="#1e1e1e" stroke-width="1" stroke-linejoin="round"/><path d="M56.47,76.27 L55.99,78.91 L56.03,81.59 L56.61,84.21 L57.98,87.24 L60.03,89.85 L62.64,91.90 L65.66,93.28 L68.92,93.90 L72.24,93.73 L75.42,92.79 L78.28,91.11 L80.67,88.81 L82.45,86.00 L83.50,82.85 L83.79,79.55 L83.28,76.27 L69.95,48.40 L56.47,76.27 Z" fill="#32d2f3" stroke="#1e1e1e" stroke-width="1" stroke-linejoin="round"/></svg>