<svg xmlns="http://www.w3.org/2000/svg" viewBox="0.67 1.52 94.67 92.96"><rect x="22.83" y="32.59" width="41.21" height="41.21" fill="#32d2f3" stroke="#1e1e1e" stroke-width="1"/><path d="M90.10,3.52 L51.17,3.52 L50.37,3.73 L49.78,4.32 L49.57,5.12 L49.57,12.20 L49.78,13.00 L50.37,13.58 L51.17,13.80 L79.81,13.80 L81.05,14.04 L82.10,14.74 L82.80,15.79 L83.04,17.03 L83.04,46.14 L83.25,46.94 L83.84,47.52 L84.64,47.74 L91.73,47.74 L92.53,47.52 L93.12,46.94 L93.33,46.14 L93.33,6.75 L93.09,5.52 L92.39,4.47 L91.34,3.77 L90.10,3.52 Z" fill="#773adc" stroke="#1e1e1e" stroke-width="1" stroke-linejoin="round"/><path d="M76.44,54.52 L76.44,80.15 L76.05,81.63 L74.97,82.70 L73.50,83.10 L14.99,83.10 L13.51,82.70 L12.44,81.63 L12.04,80.15 L12.04,24.92 L12.44,23.45 L13.51,22.37 L14.99,21.97 L44.32,21.97 L45.12,21.76 L45.71,21.17 L45.92,20.37 L45.92,14.21 L45.71,13.41 L45.12,12.83 L44.32,12.61 L5.61,12.61 L4.14,13.01 L3.07,14.08 L2.67,15.54 L2.67,89.54 L3.06,91.01 L4.14,92.09 L5.61,92.48 L82.87,92.48 L84.35,92.09 L85.43,91.01 L85.82,89.54 L85.82,54.52 L85.61,53.72 L85.02,53.14 L84.22,52.92 L78.06,52.92 L77.25,53.13 L76.66,53.72 L76.44,54.52 Z" fill="#b3b3b3" stroke="#1e1e1e" stroke-width="1" stroke-linejoin="round"/></svg>