<svg xmlns="http://www.w3.org/2000/svg" viewBox="0.82 1.73 100.00 98.19"><path d="M66.09,34.50 L66.54,34.56 L66.95,34.73 L67.30,35.00 L67.57,35.36 L67.75,35.77 L67.80,36.21 L67.80,76.42 L67.75,76.86 L67.57,77.28 L67.30,77.63 L66.95,77.90 L66.54,78.07 L66.09,78.13 L25.89,78.13 L25.44,78.07 L25.03,77.90 L24.68,77.63 L24.40,77.28 L24.23,76.86 L24.18,76.42 L24.18,36.21 L24.23,35.77 L24.40,35.36 L24.68,35.00 L25.03,34.73 L25.44,34.56 L25.89,34.50 L66.09,34.50 Z" fill="#32d2f3" stroke="#1e1e1e" stroke-width="1" stroke-linejoin="round"/><path d="M95.40,3.73 L54.18,3.73 L53.33,3.95 L52.71,4.57 L52.48,5.42 L52.48,12.91 L52.71,13.76 L53.33,14.38 L54.18,14.61 L84.51,14.61 L85.82,14.87 L86.93,15.61 L87.67,16.72 L87.92,18.03 L87.92,48.85 L88.15,49.70 L88.77,50.32 L89.62,50.55 L97.13,50.55 L97.98,50.32 L98.60,49.70 L98.82,48.85 L98.82,7.15 L98.56,5.84 L97.82,4.73 L96.71,3.99 L95.40,3.73 Z" fill="#773adc" stroke="#1e1e1e" stroke-width="1" stroke-linejoin="round"/><path d="M80.94,57.73 L80.94,84.87 L80.52,86.43 L79.38,87.57 L77.82,87.99 L15.87,87.99 L14.31,87.57 L13.17,86.43 L12.75,84.87 L12.75,26.38 L13.17,24.82 L14.31,23.68 L15.87,23.27 L46.93,23.27 L47.77,23.04 L48.39,22.42 L48.62,21.57 L48.62,15.05 L48.39,14.20 L47.77,13.58 L46.93,13.36 L5.94,13.36 L4.39,13.77 L3.25,14.90 L2.82,16.46 L2.82,94.80 L3.24,96.36 L4.38,97.50 L5.94,97.92 L87.75,97.92 L89.31,97.50 L90.45,96.36 L90.87,94.80 L90.87,57.73 L90.65,56.88 L90.03,56.26 L89.18,56.04 L82.65,56.04 L81.80,56.26 L81.17,56.88 L80.94,57.73 Z" fill="#b3b3b3" stroke="#1e1e1e" stroke-width="1" stroke-linejoin="round"/></svg>