<svg xmlns="http://www.w3.org/2000/svg" viewBox="7.73 -1.96 80.62 100.00"><path d="M48.10,80.67 L48.10,96.04 L47.46,96.04 L47.44,96.01 L47.40,95.99 L47.11,95.98 L46.82,95.94 L46.18,95.72 L46.12,95.72 L12.40,76.30 L10.71,75.30 L9.97,74.65 L9.77,74.29 L9.73,73.90 L9.84,58.53 L10.15,59.39 L10.85,59.97 L45.75,80.09 L46.00,80.25 L46.28,80.36 L47.18,80.59 L48.10,80.67 L48.10,80.67 Z" fill="#0078d4" stroke="#1e1e1e" stroke-width="1" stroke-linejoin="round"/><path d="M47.51,62.47 L46.88,62.35 L46.28,62.15 L46.01,62.05 L45.75,61.94 L10.85,41.77 L10.14,41.19 L9.84,40.33 L9.73,55.69 L9.77,56.08 L9.97,56.44 L10.71,57.10 L12.40,58.10 L29.24,67.85 L46.12,77.52 L46.18,77.52 L46.71,77.68 L46.76,77.71 L46.82,77.73 L47.40,77.84 L48.10,77.84 L48.10,62.47 L47.51,62.47 Z" fill="#0078d4" stroke="#1e1e1e" stroke-width="1" stroke-linejoin="round"/><path d="M46.28,44.01 L28.55,33.81 L10.85,23.57 L10.14,23.00 L9.84,22.13 L9.73,37.50 L9.77,37.89 L9.97,38.26 L10.71,38.92 L12.40,39.90 L29.24,49.65 L46.12,59.32 L46.18,59.32 L46.49,59.45 L46.82,59.54 L47.40,59.64 L47.46,59.64 L47.94,59.70 L48.10,59.70 L48.10,44.33 L47.18,44.23 L46.28,44.01 L46.28,44.01 Z" fill="#0078d4" stroke="#1e1e1e" stroke-width="1" stroke-linejoin="round"/><path d="M71.68,23.31 L48.42,36.70 L47.54,36.90 L46.66,36.70 L24.46,24.05 L23.69,23.13 L23.69,21.93 L24.46,21.01 L47.72,7.62 L48.60,7.42 L49.48,7.62 L71.68,20.27 L72.34,20.90 L72.58,21.79 L72.34,22.67 L71.68,23.31 Z" fill="#003067" stroke="#1e1e1e" stroke-width="1" stroke-linejoin="round"/><path d="M86.25,22.51 L86.25,22.56 L86.09,22.88 L85.76,23.28 L85.34,23.57 L50.66,43.75 L49.82,44.09 L48.95,44.29 L48.60,44.33 L48.26,44.34 L48.10,44.34 L48.10,59.71 L48.42,59.70 L48.74,59.65 L49.33,59.56 L49.91,59.39 L50.24,59.28 L50.55,59.12 L75.90,44.39 L78.19,43.06 L85.23,38.95 L85.45,38.80 L85.66,38.63 L85.93,38.36 L85.93,38.31 L85.98,38.31 L85.98,38.26 L86.14,37.99 L86.14,37.94 L86.19,37.88 L86.25,37.56 L86.35,22.20 L86.32,22.36 L86.25,22.51 L86.25,22.51 Z" fill="#005ba1" stroke="#1e1e1e" stroke-width="1" stroke-linejoin="round"/><path d="M86.25,40.70 L86.25,40.75 L86.09,41.07 L85.75,41.46 L85.34,41.77 L85.07,41.93 L84.27,42.36 L83.63,42.73 L79.58,45.08 L72.48,49.24 L69.28,51.11 L67.68,52.07 L64.48,53.93 L59.84,56.60 L54.55,59.64 L50.66,61.88 L49.83,62.26 L48.95,62.47 L48.26,62.47 L48.18,62.51 L48.10,62.47 L48.10,77.84 L48.74,77.84 L49.33,77.74 L49.91,77.57 L50.25,77.44 L50.55,77.25 L55.99,74.10 L58.61,72.61 L64.69,69.09 L67.89,67.22 L69.55,66.26 L72.75,64.39 L85.23,57.14 L85.45,56.98 L85.66,56.82 L85.93,56.55 L85.93,56.50 L85.98,56.50 L85.98,56.44 L86.14,56.12 L86.16,56.08 L86.19,56.07 L86.25,55.69 L86.35,40.38 L86.32,40.55 L86.25,40.70 L86.25,40.70 Z" fill="#005ba1" stroke="#1e1e1e" stroke-width="1" stroke-linejoin="round"/><path d="M86.25,58.90 L86.25,58.95 L86.09,59.27 L85.74,59.65 L85.34,59.96 L50.66,80.08 L49.84,80.45 L48.95,80.61 L48.60,80.66 L48.26,80.67 L48.10,80.67 L48.10,96.04 L48.74,96.04 L49.33,95.95 L49.91,95.78 L55.91,92.41 L67.65,85.57 L85.23,75.29 L85.45,75.16 L85.66,75.02 L85.93,74.75 L85.93,74.70 L85.98,74.70 L85.98,74.65 L86.14,74.33 L86.19,74.27 L86.25,73.90 L86.35,58.53 L86.32,58.72 L86.25,58.90 Z" fill="#005ba1" stroke="#1e1e1e" stroke-width="1" stroke-linejoin="round"/><path d="M85.34,59.96 L50.66,80.08 L49.03,80.61 L47.32,80.61 L45.70,80.08 L10.85,59.96 L10.07,59.30 L9.81,58.55 L10.05,57.80 L10.80,57.14 L28.43,67.38 L46.12,77.52 L46.42,77.59 L46.71,77.68 L48.67,77.84 L50.55,77.25 L85.29,57.08 L86.04,57.63 L86.34,58.50 L86.07,59.39 L85.34,59.96 Z" fill="#5ea0ef" stroke="#1e1e1e" stroke-width="1" stroke-linejoin="round"/><path d="M85.29,38.89 L85.27,38.92 L85.23,38.94 L50.55,59.11 L49.13,59.59 L47.63,59.66 L46.18,59.32 L46.12,59.32 L28.43,49.20 L10.80,38.95 L10.05,39.62 L9.81,40.37 L10.07,41.11 L10.85,41.78 L45.70,61.89 L47.32,62.43 L49.03,62.43 L50.66,61.89 L85.34,41.78 L86.08,41.21 L86.35,40.31 L86.05,39.43 L85.29,38.89 L85.29,38.89 Z" fill="#5ea0ef" stroke="#1e1e1e" stroke-width="1" stroke-linejoin="round"/><path d="M85.34,23.57 L50.66,43.75 L49.03,44.25 L47.32,44.25 L45.70,43.75 L10.85,23.58 L10.10,23.05 L9.82,22.17 L10.10,21.29 L10.85,20.76 L45.48,0.58 L47.11,0.04 L48.82,0.04 L50.44,0.58 L85.29,20.75 L86.07,21.42 L86.33,22.18 L86.09,22.93 L85.34,23.57 L85.34,23.57 Z" fill="#5ea0ef" stroke="#1e1e1e" stroke-width="1" stroke-linejoin="round"/><path d="M71.68,20.27 L49.48,7.62 L48.60,7.42 L47.72,7.62 L24.46,21.01 L23.69,21.93 L23.69,23.13 L24.46,24.05 L46.66,36.70 L47.54,36.90 L48.42,36.70 L71.68,23.31 L72.33,22.67 L72.57,21.79 L72.33,20.91 L71.68,20.28 L71.68,20.27 Z" fill="#003067" stroke="#1e1e1e" stroke-width="1" stroke-linejoin="round"/><path d="M83.12,73.42 L83.07,66.38 L82.96,66.19 L82.74,66.18 L65.46,76.20 L65.38,76.28 L65.35,76.39 L65.40,83.44 L65.51,83.62 L65.73,83.62 L83.01,73.61 L83.09,73.53 L83.12,73.42 L83.12,73.42 Z" fill="#5ea0ef" stroke="#1e1e1e" stroke-width="1" stroke-linejoin="round"/><path d="M83.01,55.43 L65.73,65.44 L65.51,65.44 L65.40,65.25 L65.35,58.21 L65.38,58.10 L65.46,58.02 L82.74,48.02 L82.96,48.02 L83.07,48.21 L83.12,55.25 L83.09,55.35 L83.01,55.43 L83.01,55.43 Z" fill="#5ea0ef" stroke="#1e1e1e" stroke-width="1" stroke-linejoin="round"/><path d="M83.01,37.24 L65.73,47.26 L65.51,47.26 L65.40,47.07 L65.35,40.02 L65.38,39.91 L65.46,39.83 L82.74,29.81 L82.96,29.81 L83.07,30.00 L83.12,37.04 L83.10,37.16 L83.01,37.24 L83.01,37.24 Z" fill="#5ea0ef" stroke="#1e1e1e" stroke-width="1" stroke-linejoin="round"/><path d="M41.56,82.02 L42.53,83.03 L42.93,84.39 L42.93,88.29 L42.82,88.85 L42.52,89.19 L42.09,89.28 L41.55,89.09 L38.15,87.13 L37.17,86.10 L36.77,84.74 L36.77,80.83 L36.88,80.28 L37.18,79.95 L37.62,79.87 L38.16,80.05 L41.56,82.02 Z" fill="#50e6ff" stroke="#50e6ff" stroke-width="1" stroke-linejoin="round"/><path d="M38.16,61.89 L37.62,61.71 L37.18,61.79 L36.88,62.12 L36.77,62.67 L36.77,66.58 L37.17,67.94 L38.15,68.98 L41.55,70.93 L42.09,71.12 L42.52,71.03 L42.82,70.69 L42.93,70.13 L42.93,66.23 L42.53,64.88 L41.56,63.86 L38.16,61.89 Z" fill="#50e6ff" stroke="#50e6ff" stroke-width="1" stroke-linejoin="round"/><path d="M38.16,43.72 L37.62,43.53 L37.18,43.61 L36.88,43.94 L36.77,44.49 L36.77,48.40 L37.17,49.76 L38.15,50.79 L41.55,52.75 L42.09,52.94 L42.52,52.85 L42.82,52.51 L42.93,51.95 L42.93,48.05 L42.53,46.70 L41.56,45.67 L38.16,43.72 Z" fill="#50e6ff" stroke="#50e6ff" stroke-width="1" stroke-linejoin="round"/></svg>