<svg xmlns="http://www.w3.org/2000/svg" viewBox="7.73 -1.96 80.59 99.96"><path d="M48.07,80.63 L48.07,96.00 L47.43,96.00 L47.42,95.96 L47.38,95.95 L47.09,95.94 L46.79,95.89 L46.15,95.68 L46.10,95.68 L12.39,76.27 L10.70,75.27 L9.96,74.62 L9.76,74.25 L9.73,73.87 L9.83,58.51 L10.15,59.36 L10.85,59.95 L45.73,80.05 L45.98,80.21 L46.26,80.32 L47.15,80.56 L48.07,80.63 L48.07,80.63 Z" fill="#0078d4" stroke="#1e1e1e" stroke-width="1" stroke-linejoin="round"/><path d="M47.49,62.44 L46.86,62.33 L46.26,62.12 L45.99,62.02 L45.73,61.91 L10.85,41.75 L10.14,41.17 L9.83,40.31 L9.73,55.67 L9.76,56.06 L9.96,56.42 L10.70,57.07 L12.39,58.07 L29.23,67.82 L46.10,77.48 L46.15,77.48 L46.69,77.64 L46.74,77.68 L46.79,77.70 L47.38,77.80 L48.07,77.80 L48.07,62.44 L47.49,62.44 Z" fill="#0078d4" stroke="#1e1e1e" stroke-width="1" stroke-linejoin="round"/><path d="M46.26,43.99 L28.53,33.80 L10.85,23.56 L10.14,22.99 L9.83,22.12 L9.73,37.48 L9.76,37.87 L9.96,38.24 L10.70,38.90 L12.39,39.88 L29.23,49.63 L46.10,59.30 L46.15,59.30 L46.47,59.42 L46.79,59.51 L47.38,59.62 L47.43,59.62 L47.91,59.67 L48.07,59.67 L48.07,44.31 L47.16,44.21 L46.26,43.99 L46.26,43.99 Z" fill="#0078d4" stroke="#1e1e1e" stroke-width="1" stroke-linejoin="round"/><path d="M71.65,23.30 L48.39,36.68 L47.51,36.88 L46.63,36.68 L24.45,24.04 L23.68,23.12 L23.68,21.92 L24.45,21.00 L47.70,7.62 L48.58,7.42 L49.46,7.62 L71.65,20.26 L72.31,20.89 L72.55,21.78 L72.31,22.66 L71.65,23.30 Z" fill="#003067" stroke="#1e1e1e" stroke-width="1" stroke-linejoin="round"/><path d="M86.21,22.50 L86.21,22.55 L86.05,22.87 L85.72,23.27 L85.30,23.56 L50.63,43.73 L49.80,44.07 L48.93,44.27 L48.58,44.31 L48.23,44.32 L48.07,44.32 L48.07,59.68 L48.40,59.67 L48.71,59.63 L49.31,59.53 L49.89,59.36 L50.22,59.25 L50.53,59.09 L75.86,44.37 L78.15,43.04 L85.19,38.93 L85.42,38.78 L85.62,38.61 L85.89,38.35 L85.89,38.29 L85.94,38.29 L85.94,38.24 L86.10,37.97 L86.10,37.92 L86.15,37.87 L86.21,37.55 L86.31,22.19 L86.28,22.35 L86.21,22.50 L86.21,22.50 Z" fill="#005ba1" stroke="#1e1e1e" stroke-width="1" stroke-linejoin="round"/><path d="M86.21,40.68 L86.21,40.74 L86.05,41.06 L85.71,41.44 L85.30,41.75 L85.03,41.91 L84.23,42.34 L83.59,42.71 L79.54,45.06 L72.45,49.22 L69.25,51.08 L67.65,52.04 L64.45,53.91 L59.81,56.58 L54.53,59.62 L50.63,61.86 L49.81,62.23 L48.93,62.44 L48.23,62.44 L48.15,62.48 L48.07,62.44 L48.07,77.80 L48.71,77.80 L49.31,77.71 L49.89,77.54 L50.22,77.41 L50.53,77.22 L55.97,74.07 L58.58,72.58 L64.66,69.06 L67.86,67.19 L69.51,66.23 L72.71,64.36 L85.19,57.11 L85.42,56.96 L85.62,56.79 L85.89,56.52 L85.89,56.47 L85.94,56.47 L85.94,56.42 L86.10,56.10 L86.12,56.06 L86.15,56.04 L86.21,55.67 L86.31,40.36 L86.29,40.53 L86.21,40.68 L86.21,40.68 Z" fill="#005ba1" stroke="#1e1e1e" stroke-width="1" stroke-linejoin="round"/><path d="M86.21,58.87 L86.21,58.92 L86.05,59.24 L85.70,59.62 L85.30,59.94 L50.63,80.04 L49.81,80.41 L48.93,80.58 L48.58,80.62 L48.23,80.63 L48.07,80.63 L48.07,96.00 L48.71,96.00 L49.31,95.90 L49.89,95.73 L55.88,92.37 L67.62,85.53 L85.19,75.25 L85.41,75.13 L85.62,74.99 L85.89,74.72 L85.89,74.67 L85.94,74.67 L85.94,74.61 L86.10,74.29 L86.15,74.24 L86.21,73.87 L86.31,58.51 L86.28,58.69 L86.21,58.87 Z" fill="#005ba1" stroke="#1e1e1e" stroke-width="1" stroke-linejoin="round"/><path d="M85.30,59.94 L50.63,80.04 L49.01,80.58 L47.30,80.58 L45.67,80.04 L10.85,59.94 L10.07,59.27 L9.80,58.52 L10.05,57.78 L10.79,57.11 L28.42,67.35 L46.10,77.48 L46.40,77.55 L46.69,77.64 L48.65,77.81 L50.53,77.22 L85.25,57.06 L86.00,57.60 L86.30,58.48 L86.03,59.37 L85.30,59.94 Z" fill="#5ea0ef" stroke="#1e1e1e" stroke-width="1" stroke-linejoin="round"/><path d="M85.25,38.87 L85.23,38.91 L85.19,38.92 L50.53,59.08 L49.11,59.56 L47.61,59.64 L46.15,59.30 L46.10,59.30 L28.42,49.17 L10.79,38.93 L10.05,39.60 L9.80,40.35 L10.07,41.09 L10.85,41.76 L45.67,61.87 L47.30,62.40 L49.01,62.40 L50.63,61.87 L85.30,41.76 L86.04,41.19 L86.31,40.30 L86.01,39.41 L85.25,38.87 L85.25,38.87 Z" fill="#5ea0ef" stroke="#1e1e1e" stroke-width="1" stroke-linejoin="round"/><path d="M85.30,23.56 L50.63,43.73 L49.01,44.23 L47.30,44.23 L45.67,43.73 L10.85,23.57 L10.10,23.04 L9.81,22.16 L10.10,21.28 L10.85,20.75 L45.46,0.58 L47.09,0.04 L48.80,0.04 L50.42,0.58 L85.25,20.74 L86.03,21.41 L86.29,22.17 L86.05,22.92 L85.30,23.56 L85.30,23.56 Z" fill="#5ea0ef" stroke="#1e1e1e" stroke-width="1" stroke-linejoin="round"/><path d="M71.65,20.26 L49.46,7.62 L48.58,7.42 L47.70,7.62 L24.45,21.00 L23.68,21.92 L23.68,23.12 L24.45,24.04 L46.63,36.68 L47.51,36.88 L48.39,36.68 L71.65,23.30 L72.30,22.66 L72.54,21.78 L72.30,20.90 L71.65,20.27 L71.65,20.26 Z" fill="#003067" stroke="#1e1e1e" stroke-width="1" stroke-linejoin="round"/><path d="M83.08,73.39 L83.03,66.35 L82.92,66.16 L82.70,66.15 L65.43,76.17 L65.35,76.25 L65.32,76.36 L65.37,83.40 L65.48,83.58 L65.70,83.58 L82.98,73.57 L83.06,73.49 L83.08,73.39 L83.08,73.39 Z" fill="#5ea0ef" stroke="#1e1e1e" stroke-width="1" stroke-linejoin="round"/><path d="M82.98,55.40 L65.70,65.41 L65.48,65.41 L65.37,65.22 L65.32,58.18 L65.35,58.07 L65.43,57.99 L82.70,48.00 L82.92,48.00 L83.03,48.19 L83.08,55.23 L83.05,55.33 L82.98,55.40 L82.98,55.40 Z" fill="#5ea0ef" stroke="#1e1e1e" stroke-width="1" stroke-linejoin="round"/><path d="M82.98,37.23 L65.70,47.24 L65.48,47.23 L65.37,47.05 L65.32,40.00 L65.35,39.89 L65.43,39.81 L82.70,29.80 L82.92,29.79 L83.03,29.98 L83.08,37.02 L83.06,37.14 L82.98,37.23 L82.98,37.23 Z" fill="#5ea0ef" stroke="#1e1e1e" stroke-width="1" stroke-linejoin="round"/><path d="M41.54,81.98 L42.51,83.00 L42.91,84.35 L42.91,88.25 L42.80,88.81 L42.50,89.14 L42.07,89.24 L41.53,89.05 L38.13,87.09 L37.16,86.06 L36.75,84.70 L36.75,80.79 L36.86,80.24 L37.16,79.91 L37.60,79.83 L38.14,80.02 L41.54,81.98 Z" fill="#50e6ff" stroke="#50e6ff" stroke-width="1" stroke-linejoin="round"/><path d="M38.14,61.87 L37.60,61.68 L37.16,61.76 L36.86,62.09 L36.75,62.65 L36.75,66.55 L37.16,67.91 L38.13,68.94 L41.53,70.90 L42.07,71.09 L42.50,71.00 L42.80,70.66 L42.91,70.10 L42.91,66.20 L42.51,64.85 L41.54,63.83 L38.14,61.87 Z" fill="#50e6ff" stroke="#50e6ff" stroke-width="1" stroke-linejoin="round"/><path d="M38.14,43.70 L37.60,43.51 L37.16,43.59 L36.86,43.92 L36.75,44.47 L36.75,48.37 L37.16,49.74 L38.13,50.77 L41.53,52.73 L42.07,52.91 L42.50,52.82 L42.80,52.49 L42.91,51.93 L42.91,48.03 L42.51,46.67 L41.54,45.65 L38.14,43.70 Z" fill="#50e6ff" stroke="#50e6ff" stroke-width="1" stroke-linejoin="round"/></svg>