<svg xmlns="http://www.w3.org/2000/svg" viewBox="1.97 -2.00 92.05 100.00"><rect x="5.75" y="1.78" width="53.92" height="62.32" fill="#5ea0ef" stroke="#1e1e1e" stroke-width="1"/><path d="M59.67,65.88 L5.75,65.88 L4.86,65.64 L4.21,64.99 L3.97,64.10 L3.97,1.78 L4.21,0.89 L4.86,0.24 L5.75,0.00 L59.67,0.00 L60.56,0.24 L61.21,0.89 L61.45,1.78 L61.45,64.10 L61.21,64.99 L60.56,65.64 L59.67,65.88 L59.67,65.88 Z" fill="#0078d4" stroke="#1e1e1e" stroke-width="1" stroke-linejoin="round"/><path d="M7.53,62.32 L57.89,62.32 L57.89,3.56 L7.53,3.56 L7.53,62.32 Z" fill="#5ea0ef" stroke="#1e1e1e" stroke-width="1" stroke-linejoin="round"/><rect x="16.05" y="10.23" width="53.92" height="62.32" fill="#83b9f9" stroke="#1e1e1e" stroke-width="1"/><path d="M69.97,74.33 L16.05,74.33 L15.16,74.09 L14.51,73.44 L14.27,72.55 L14.27,10.23 L14.51,9.34 L15.16,8.69 L16.05,8.45 L69.97,8.45 L70.86,8.69 L71.52,9.34 L71.75,10.23 L71.75,72.53 L71.52,73.43 L70.87,74.09 L69.97,74.33 Z" fill="#0078d4" stroke="#1e1e1e" stroke-width="1" stroke-linejoin="round"/><path d="M17.83,70.77 L68.20,70.77 L68.20,12.01 L17.83,12.01 L17.83,70.77 Z" fill="#83b9f9" stroke="#1e1e1e" stroke-width="1" stroke-linejoin="round"/><path d="M64.44,18.08 L31.03,18.08 L29.71,18.45 L28.74,19.42 L28.39,20.75 L28.39,92.80 L28.74,94.13 L29.71,95.10 L31.03,95.47 L88.93,95.47 L90.25,95.10 L91.21,94.12 L91.56,92.80 L91.56,45.09 L91.21,43.76 L90.25,42.79 L88.93,42.42 L69.73,42.42 L68.41,42.06 L67.45,41.10 L67.09,39.78 L67.09,20.73 L66.73,19.41 L65.76,18.44 L64.44,18.08 Z" fill="#ffffff" stroke="#1e1e1e" stroke-width="1" stroke-linejoin="round"/><path d="M64.50,17.50 L30.60,17.50 L29.26,17.86 L28.29,18.83 L27.93,20.17 L27.93,93.33 L28.29,94.67 L29.26,95.64 L30.60,96.00 L89.35,96.00 L90.69,95.64 L91.66,94.67 L92.02,93.33 L92.02,44.91 L91.66,43.58 L90.69,42.60 L89.35,42.25 L69.87,42.25 L68.53,41.89 L67.56,40.91 L67.20,39.58 L67.20,20.18 L66.84,18.84 L65.87,17.87 L64.53,17.51 L64.50,17.50 Z" fill="#3a90e5" stroke="#1e1e1e" stroke-width="1" stroke-linejoin="round"/><path d="M63.22,21.46 L63.22,39.55 L63.54,41.61 L64.49,43.46 L65.96,44.93 L67.81,45.87 L69.87,46.19 L88.10,46.19 L88.10,92.06 L31.88,92.06 L31.88,21.46 L63.22,21.46 L63.22,21.46 Z" fill="#ffffff" stroke="#1e1e1e" stroke-width="1" stroke-linejoin="round"/><path d="M91.01,42.77 L66.25,18.08 L66.25,38.20 L66.59,39.94 L67.56,41.42 L69.03,42.41 L70.76,42.77 L91.01,42.77 Z" fill="#0078d4" stroke="#1e1e1e" stroke-width="1" stroke-linejoin="round"/><rect x="38.17" y="53.24" width="43.61" height="5.85" fill="#5ea0ef" stroke="#5ea0ef" stroke-width="1"/><rect x="38.17" y="63.72" width="43.61" height="5.85" fill="#5ea0ef" stroke="#5ea0ef" stroke-width="1"/><rect x="38.17" y="74.20" width="27.49" height="5.85" fill="#5ea0ef" stroke="#5ea0ef" stroke-width="1"/></svg>