<svg xmlns="http://www.w3.org/2000/svg" viewBox="6.80 -2.00 82.40 100.00"><path d="M53.46,0.71 L12.60,0.71 L11.36,0.96 L10.31,1.66 L9.61,2.71 L9.37,3.95 L9.37,92.05 L9.61,93.29 L10.31,94.34 L11.36,95.04 L12.60,95.29 L83.40,95.29 L84.63,95.03 L85.67,94.33 L86.36,93.28 L86.60,92.05 L86.60,33.74 L86.36,32.51 L85.67,31.47 L84.63,30.77 L83.40,30.51 L59.90,30.51 L58.68,30.26 L57.64,29.56 L56.95,28.51 L56.70,27.29 L56.70,3.95 L56.47,2.70 L55.76,1.65 L54.70,0.95 L53.46,0.71 L53.46,0.71 Z" fill="#ffffff" stroke="#1e1e1e" stroke-width="1" stroke-linejoin="round"/><path d="M53.53,0.00 L12.07,0.00 L10.82,0.25 L9.76,0.96 L9.05,2.03 L8.80,3.28 L8.80,92.72 L9.05,93.97 L9.76,95.04 L10.82,95.75 L12.07,96.00 L83.93,96.00 L85.18,95.75 L86.24,95.04 L86.95,93.97 L87.20,92.72 L87.20,33.53 L86.95,32.27 L86.24,31.21 L85.18,30.50 L83.93,30.25 L60.07,30.25 L58.82,30.00 L57.76,29.29 L57.05,28.22 L56.80,26.97 L56.80,3.28 L56.55,2.03 L55.84,0.96 L54.78,0.25 L53.53,-0.00 L53.53,0.00 Z" fill="#3a90e5" stroke="#1e1e1e" stroke-width="1" stroke-linejoin="round"/><path d="M51.96,4.84 L51.96,26.97 L52.36,29.48 L53.51,31.74 L55.30,33.53 L57.56,34.69 L60.07,35.09 L82.36,35.09 L82.36,91.16 L13.64,91.16 L13.64,4.84 L51.96,4.84 Z" fill="#ffffff" stroke="#1e1e1e" stroke-width="1" stroke-linejoin="round"/><path d="M85.95,30.90 L55.67,0.71 L55.67,25.31 L55.93,27.03 L56.71,28.58 L57.93,29.82 L59.47,30.62 L61.19,30.90 L85.95,30.90 Z" fill="#0078d4" stroke="#1e1e1e" stroke-width="1" stroke-linejoin="round"/><path d="M71.45,43.71 L72.28,43.82 L73.05,44.14 L73.72,44.65 L74.23,45.32 L74.55,46.10 L74.66,46.93 L74.66,47.65 L74.55,48.48 L74.23,49.26 L73.72,49.92 L73.05,50.43 L72.28,50.75 L71.45,50.86 L24.55,50.86 L23.72,50.75 L22.94,50.43 L22.28,49.92 L21.76,49.26 L21.44,48.48 L21.33,47.65 L21.33,46.93 L21.44,46.10 L21.76,45.32 L22.28,44.65 L22.94,44.14 L23.72,43.82 L24.55,43.71 L71.45,43.71 Z" fill="#5ea0ef" stroke="#5ea0ef" stroke-width="1" stroke-linejoin="round"/><path d="M71.45,56.53 L72.28,56.64 L73.05,56.96 L73.72,57.47 L74.23,58.14 L74.55,58.91 L74.66,59.74 L74.66,60.46 L74.55,61.30 L74.23,62.07 L73.72,62.74 L73.05,63.25 L72.28,63.57 L71.45,63.68 L24.55,63.68 L23.72,63.57 L22.94,63.25 L22.28,62.74 L21.76,62.07 L21.44,61.30 L21.33,60.46 L21.33,59.74 L21.44,58.91 L21.76,58.14 L22.28,57.47 L22.94,56.96 L23.72,56.64 L24.55,56.53 L71.45,56.53 Z" fill="#5ea0ef" stroke="#5ea0ef" stroke-width="1" stroke-linejoin="round"/><path d="M51.73,69.34 L52.56,69.45 L53.34,69.77 L54.00,70.29 L54.51,70.95 L54.83,71.73 L54.94,72.56 L54.94,73.28 L54.83,74.11 L54.51,74.89 L54.00,75.55 L53.34,76.07 L52.56,76.39 L51.73,76.50 L24.55,76.50 L23.72,76.39 L22.94,76.07 L22.28,75.55 L21.76,74.89 L21.44,74.11 L21.33,73.28 L21.33,72.56 L21.44,71.73 L21.76,70.95 L22.28,70.29 L22.94,69.77 L23.72,69.45 L24.55,69.34 L51.73,69.34 Z" fill="#5ea0ef" stroke="#5ea0ef" stroke-width="1" stroke-linejoin="round"/></svg>