<svg xmlns="http://www.w3.org/2000/svg" viewBox="-2.00 6.80 100.00 82.40"><path d="M93.75,17.51 L51.88,17.51 L51.23,17.41 L50.63,17.14 L38.67,9.18 L38.08,8.90 L37.43,8.80 L2.25,8.80 L1.12,9.10 L0.30,9.92 L0.00,11.04 L0.00,84.96 L0.30,86.08 L1.12,86.90 L2.25,87.20 L93.75,87.20 L94.88,86.90 L95.70,86.08 L96.00,84.96 L96.00,19.73 L95.69,18.62 L94.87,17.80 L93.75,17.51 L93.75,17.51 Z" fill="#dfa500" stroke="#1e1e1e" stroke-width="1" stroke-linejoin="round"/><rect x="8.73" y="13.09" width="21.82" height="4.36" fill="#ffffff" stroke="#ffffff" stroke-width="1"/><path d="M93.75,17.40 L47.77,17.40 L46.90,17.57 L46.17,18.06 L38.78,25.46 L38.05,25.94 L37.18,26.11 L2.25,26.11 L1.12,26.41 L0.30,27.23 L0.00,28.35 L0.00,84.85 L0.30,85.97 L1.12,86.79 L2.25,87.09 L93.75,87.09 L94.88,86.79 L95.70,85.97 L96.00,84.85 L96.00,19.64 L95.70,18.52 L94.88,17.70 L93.75,17.40 L93.75,17.40 Z" fill="#ffcd00" stroke="#1e1e1e" stroke-width="1" stroke-linejoin="round"/></svg>