<svg xmlns="http://www.w3.org/2000/svg" viewBox="-2.00 6.80 100.00 82.40"><path d="M93.75,17.51 L51.88,17.51 L51.23,17.41 L50.63,17.14 L38.67,9.18 L38.08,8.90 L37.43,8.80 L2.25,8.80 L1.12,9.10 L0.30,9.92 L0.00,11.04 L0.00,84.96 L0.30,86.08 L1.12,86.90 L2.25,87.20 L93.75,87.20 L94.88,86.90 L95.70,86.08 L96.00,84.96 L96.00,19.73 L95.69,18.62 L94.87,17.80 L93.75,17.51 L93.75,17.51 Z" fill="#dfa500" stroke="#1e1e1e" stroke-width="1" stroke-linejoin="round"/><rect x="8.73" y="13.09" width="21.82" height="4.36" fill="#ffffff" stroke="#ffffff" stroke-width="1"/><path d="M93.75,17.40 L47.77,17.40 L46.90,17.57 L46.17,18.06 L38.78,25.46 L38.05,25.94 L37.18,26.11 L2.25,26.11 L1.12,26.41 L0.30,27.23 L0.00,28.35 L0.00,84.85 L0.30,85.97 L1.12,86.79 L2.25,87.09 L93.75,87.09 L94.88,86.79 L95.70,85.97 L96.00,84.85 L96.00,19.64 L95.70,18.52 L94.88,17.70 L93.75,17.40 L93.75,17.40 Z" fill="#ffc801" stroke="#1e1e1e" stroke-width="1" stroke-linejoin="round"/><path d="M65.83,43.52 L65.83,64.39 L47.79,74.87 L47.79,53.97 L65.83,43.52 Z" fill="#f78d1e" stroke="#1e1e1e" stroke-width="1" stroke-linejoin="round"/><path d="M65.83,43.52 L47.80,54.01 L29.76,43.51 L47.80,33.03 L65.83,43.52 Z" fill="#ffb34d" stroke="#1e1e1e" stroke-width="1" stroke-linejoin="round"/><path d="M47.79,54.01 L47.79,74.87 L29.76,64.39 L29.76,43.52 L47.79,54.01 Z" fill="#faa21d" stroke="#1e1e1e" stroke-width="1" stroke-linejoin="round"/><path d="M93.75,17.51 L51.88,17.51 L51.23,17.41 L50.63,17.14 L38.67,9.18 L38.08,8.90 L37.43,8.80 L2.25,8.80 L1.12,9.10 L0.30,9.92 L0.00,11.04 L0.00,84.96 L0.30,86.08 L1.12,86.90 L2.25,87.20 L93.75,87.20 L94.88,86.90 L95.70,86.08 L96.00,84.96 L96.00,19.73 L95.69,18.62 L94.87,17.80 L93.75,17.51 L93.75,17.51 Z" fill="#dfa500" stroke="#1e1e1e" stroke-width="1" stroke-linejoin="round"/><rect x="8.73" y="13.09" width="21.82" height="4.36" fill="#ffffff" stroke="#ffffff" stroke-width="1"/><path d="M93.75,17.40 L47.77,17.40 L46.90,17.57 L46.17,18.06 L38.78,25.46 L38.05,25.94 L37.18,26.11 L2.25,26.11 L1.12,26.41 L0.30,27.23 L0.00,28.35 L0.00,84.85 L0.30,85.97 L1.12,86.79 L2.25,87.09 L93.75,87.09 L94.88,86.79 L95.70,85.97 L96.00,84.85 L96.00,19.64 L95.70,18.52 L94.88,17.70 L93.75,17.40 L93.75,17.40 Z" fill="#ffc801" stroke="#1e1e1e" stroke-width="1" stroke-linejoin="round"/><path d="M60.84,70.49 L57.36,72.75 L53.50,74.28 L49.42,75.02 L45.28,74.94 L41.23,74.05 L37.43,72.37 L34.04,69.98 L31.19,66.97 L28.98,63.46 L27.51,59.58 L26.83,55.49 L26.98,51.34 L27.93,47.31 L29.67,43.54 L32.11,40.19 L35.16,37.38 L35.38,37.22 L38.87,35.06 L42.71,33.62 L46.76,32.95 L50.87,33.09 L54.86,34.03 L58.60,35.73 L61.94,38.12 L64.74,41.12 L66.90,44.61 L68.34,48.46 L69.01,52.51 L68.87,56.61 L67.93,60.61 L66.23,64.35 L63.84,67.68 L60.84,70.49 Z" fill="#3a90e5" stroke="#1e1e1e" stroke-width="1" stroke-linejoin="round"/><ellipse cx="36.61" cy="53.15" rx="6.73" ry="6.73" fill="#e7e7e7" stroke="#e7e7e7" stroke-width="1"/><ellipse cx="50.79" cy="65.45" rx="4.37" ry="4.37" fill="#e7e7e7" stroke="#e7e7e7" stroke-width="1"/><ellipse cx="60.77" cy="54.59" rx="4.65" ry="4.65" fill="#ffffff" stroke="#ffffff" stroke-width="1"/><path d="M29.87,64.45 L30.60,65.61 L31.40,66.73 L32.06,67.54 L32.77,68.33 L33.88,63.99 L35.43,59.79 L33.55,59.17 L31.93,58.01 L30.78,61.19 L29.87,64.45 L29.87,64.45 Z" fill="#f2f2f2" stroke="#f2f2f2" stroke-width="1" stroke-linejoin="round" opacity="0.55"/><path d="M34.35,46.81 L33.27,43.24 L32.65,39.55 L31.20,41.28 L29.94,43.15 L30.50,46.09 L31.34,48.97 L32.69,47.68 L34.35,46.81 L34.35,46.81 Z" fill="#f2f2f2" stroke="#f2f2f2" stroke-width="1" stroke-linejoin="round" opacity="0.55"/><path d="M41.52,57.74 L39.85,59.04 L37.85,59.76 L39.57,61.42 L41.42,62.93 L43.87,64.59 L46.46,66.01 L46.42,65.72 L46.40,65.44 L46.74,63.74 L47.72,62.31 L44.47,60.23 L41.52,57.74 L41.52,57.74 Z" fill="#f2f2f2" stroke="#f2f2f2" stroke-width="1" stroke-linejoin="round" opacity="0.55"/><path d="M55.16,65.17 L55.16,65.44 L54.83,67.09 L53.91,68.50 L58.09,69.06 L62.31,69.10 L63.82,67.52 L65.15,65.79 L63.55,65.92 L61.95,65.96 L58.53,65.77 L55.16,65.17 L55.16,65.17 Z" fill="#f2f2f2" stroke="#f2f2f2" stroke-width="1" stroke-linejoin="round" opacity="0.55"/><path d="M57.69,51.32 L53.52,47.99 L49.65,44.34 L54.32,42.41 L59.23,41.20 L64.27,40.75 L62.55,38.86 L60.60,37.19 L56.65,37.67 L52.78,38.58 L49.03,39.92 L46.76,41.17 L46.69,41.09 L44.06,37.62 L41.80,33.89 L40.45,34.37 L39.13,34.93 L41.48,38.89 L44.23,42.58 L41.50,44.56 L39.00,46.84 L40.88,47.93 L42.32,49.56 L44.62,47.56 L47.12,45.82 L51.48,49.99 L56.19,53.76 L56.74,52.42 L57.69,51.32 Z" fill="#f2f2f2" stroke="#1e1e1e" stroke-width="1" stroke-linejoin="round" opacity="0.55"/><path d="M67.78,57.31 L67.71,57.27 L66.98,56.87 L66.84,56.80 L66.18,56.44 L66.02,56.35 L65.24,55.90 L64.64,57.17 L63.67,58.18 L64.60,58.71 L64.81,58.83 L65.66,59.31 L65.74,59.35 L67.88,60.47 L67.88,60.47 L68.27,59.12 L68.58,57.73 L67.78,57.31 Z" fill="#f2f2f2" stroke="#f2f2f2" stroke-width="1" stroke-linejoin="round" opacity="0.55"/><ellipse cx="36.61" cy="53.15" rx="6.73" ry="6.73" fill="#ffffff" stroke="#ffffff" stroke-width="1"/><ellipse cx="50.79" cy="65.45" rx="4.37" ry="4.37" fill="#ffffff" stroke="#ffffff" stroke-width="1"/></svg>