<svg xmlns="http://www.w3.org/2000/svg" viewBox="1.31 4.72 93.33 86.56"><rect x="3.31" y="6.72" width="89.33" height="59.57" fill="#3990e4" stroke="#1e1e1e" stroke-width="1"/><path d="M62.88,33.81 L62.88,51.15 L48.00,59.84 L48.00,42.51 L62.88,33.81 Z" fill="#50e6ff" stroke="#1e1e1e" stroke-width="1" stroke-linejoin="round"/><path d="M48.00,42.51 L48.00,59.84 L33.12,51.15 L33.12,33.81 L48.00,42.51 Z" fill="#9cebff" stroke="#1e1e1e" stroke-width="1" stroke-linejoin="round"/><path d="M33.12,51.15 L48.00,42.51 L48.00,59.84 L33.12,51.15 Z" fill="#c3f1ff" stroke="#c3f1ff" stroke-width="1" stroke-linejoin="round"/><path d="M62.88,51.15 L48.00,42.51 L48.00,59.84 L62.88,51.15 Z" fill="#9cebff" stroke="#9cebff" stroke-width="1" stroke-linejoin="round"/><path d="M65.92,84.32 L64.36,84.00 L62.98,83.57 L61.79,83.02 L60.75,82.36 L59.87,81.59 L59.13,80.71 L58.01,78.63 L57.31,76.13 L56.93,73.23 L56.78,69.95 L56.75,66.29 L39.25,66.29 L39.22,69.95 L39.07,73.23 L38.69,76.13 L37.99,78.63 L36.87,80.71 L36.13,81.59 L35.25,82.36 L34.21,83.02 L33.02,83.57 L31.64,84.00 L30.08,84.32 L28.39,84.91 L27.00,86.03 L26.05,87.54 L25.65,89.28 L70.35,89.28 L69.95,87.54 L69.00,86.03 L67.61,84.91 L65.92,84.32 Z" fill="#a6a6a6" stroke="#1e1e1e" stroke-width="1" stroke-linejoin="round"/><path d="M59.36,33.17 L55.68,33.86 L51.94,33.86 L48.27,33.17 L48.00,32.91 L46.99,33.28 L43.28,33.74 L39.55,33.47 L35.95,32.48 L35.95,32.48 L33.49,33.92 L48.00,42.67 L62.88,33.92 L60.85,32.75 L59.36,33.17 Z" fill="#c3f1ff" stroke="#c3f1ff" stroke-width="1" stroke-linejoin="round"/><path d="M66.56,26.67 L66.30,26.07 L65.87,25.47 L65.20,24.92 L64.26,24.50 L63.00,24.25 L61.36,24.24 L59.31,24.53 L56.80,25.17 L53.76,26.49 L50.98,28.28 L48.53,30.51 L51.39,27.22 L54.82,24.52 L58.70,22.52 L62.88,21.28 L56.43,20.96 L58.67,16.64 L55.07,19.19 L52.02,22.38 L49.64,26.09 L48.00,30.19 L48.00,30.88 L46.59,26.04 L44.42,21.48 L41.55,17.33 L38.06,13.70 L34.03,10.67 L36.21,16.43 L27.25,16.43 L32.14,18.24 L36.69,20.78 L40.80,23.99 L44.37,27.79 L41.85,25.90 L39.04,24.48 L36.52,23.49 L33.84,23.09 L31.15,23.31 L29.95,24.06 L29.17,25.23 L28.98,25.85 L28.93,26.59 L29.10,27.43 L29.55,28.35 L30.37,29.34 L31.63,30.36 L33.39,31.42 L35.73,32.48 L39.34,33.47 L43.06,33.74 L46.77,33.28 L48.00,32.91 L48.43,32.91 L52.10,33.60 L55.84,33.60 L59.52,32.91 L62.07,32.06 L64.38,30.69 L66.35,28.85 L66.64,27.78 L66.56,26.67 Z" fill="#ffca00" stroke="#ffca00" stroke-width="1" stroke-linejoin="round"/><path d="M36.80,30.24 L34.17,29.00 L32.45,27.83 L31.58,26.81 L31.43,26.38 L31.47,26.03 L31.66,25.73 L32.00,25.60 L33.81,25.56 L35.61,25.87 L38.13,26.72 L40.45,27.90 L42.55,29.44 L44.37,31.31 L40.53,31.19 L36.80,30.24 L36.80,30.24 Z" fill="#3990e4" stroke="#3990e4" stroke-width="1" stroke-linejoin="round"/><path d="M64.00,27.84 L62.43,29.18 L60.63,30.18 L58.67,30.83 L56.12,31.35 L53.52,31.47 L50.93,31.20 L52.93,29.53 L55.15,28.17 L57.55,27.15 L60.36,26.45 L62.41,26.29 L63.73,26.55 L64.11,26.82 L64.32,27.15 L64.24,27.53 L64.00,27.84 L64.00,27.84 Z" fill="#3990e4" stroke="#3990e4" stroke-width="1" stroke-linejoin="round"/></svg>