<svg xmlns="http://www.w3.org/2000/svg" viewBox="1.55 5.22 100.00 92.72"><path d="M96.34,7.22 L97.17,7.33 L97.95,7.65 L98.61,8.16 L99.12,8.83 L99.44,9.60 L99.55,10.43 L99.55,68.03 L99.44,68.86 L99.12,69.64 L98.61,70.30 L97.95,70.81 L97.17,71.13 L96.34,71.24 L6.76,71.24 L5.93,71.13 L5.16,70.81 L4.49,70.30 L3.98,69.64 L3.66,68.86 L3.55,68.03 L3.55,10.43 L3.66,9.60 L3.98,8.83 L4.49,8.16 L5.16,7.65 L5.93,7.33 L6.76,7.22 L96.34,7.22 Z" fill="#3990e4" stroke="#1e1e1e" stroke-width="1" stroke-linejoin="round"/><path d="M67.57,36.34 L67.57,54.96 L51.58,64.31 L51.58,45.68 L67.57,36.34 Z" fill="#50e6ff" stroke="#1e1e1e" stroke-width="1" stroke-linejoin="round"/><path d="M51.58,45.68 L51.58,64.31 L35.59,54.96 L35.59,36.34 L51.58,45.68 Z" fill="#9cebff" stroke="#1e1e1e" stroke-width="1" stroke-linejoin="round"/><path d="M35.59,54.96 L51.58,45.68 L51.58,64.31 L35.59,54.96 Z" fill="#c3f1ff" stroke="#c3f1ff" stroke-width="1" stroke-linejoin="round"/><path d="M67.57,54.96 L51.58,45.68 L51.58,64.31 L67.57,54.96 Z" fill="#9cebff" stroke="#9cebff" stroke-width="1" stroke-linejoin="round"/><path d="M70.84,90.61 L69.16,90.27 L67.68,89.80 L66.40,89.21 L65.29,88.50 L64.34,87.68 L63.54,86.73 L62.34,84.49 L61.59,81.81 L61.18,78.70 L61.01,75.17 L60.98,71.24 L42.18,71.24 L42.15,75.17 L41.98,78.70 L41.57,81.81 L40.82,84.49 L39.62,86.73 L38.83,87.68 L37.88,88.50 L36.77,89.21 L35.48,89.80 L34.00,90.27 L32.32,90.61 L30.51,91.25 L29.01,92.45 L27.99,94.07 L27.57,95.94 L75.60,95.94 L75.17,94.07 L74.15,92.45 L72.65,91.25 L70.84,90.61 Z" fill="#a6a6a6" stroke="#1e1e1e" stroke-width="1" stroke-linejoin="round"/><path d="M63.79,35.65 L59.84,36.39 L55.82,36.39 L51.87,35.65 L51.58,35.36 L50.49,35.76 L46.51,36.26 L42.50,35.97 L38.63,34.90 L38.63,34.90 L35.99,36.45 L51.58,45.85 L67.57,36.45 L65.39,35.19 L63.79,35.65 Z" fill="#c3f1ff" stroke="#1e1e1e" stroke-width="1" stroke-linejoin="round"/><path d="M71.53,28.66 L71.25,28.01 L70.78,27.37 L70.07,26.78 L69.06,26.33 L67.70,26.06 L65.94,26.05 L63.74,26.36 L61.04,27.05 L57.78,28.46 L54.79,30.39 L52.16,32.78 L55.23,29.25 L58.91,26.35 L63.08,24.20 L67.57,22.87 L60.64,22.52 L63.04,17.88 L59.18,20.63 L55.91,24.05 L53.34,28.04 L51.58,32.44 L51.58,33.18 L50.07,27.98 L47.74,23.09 L44.66,18.63 L40.90,14.72 L36.57,11.46 L38.92,17.65 L29.29,17.65 L34.54,19.60 L39.43,22.33 L43.85,25.78 L47.68,29.86 L44.97,27.84 L41.95,26.31 L39.25,25.25 L36.37,24.82 L33.47,25.05 L32.19,25.85 L31.35,27.11 L31.14,27.78 L31.09,28.58 L31.27,29.48 L31.76,30.47 L32.64,31.53 L33.99,32.63 L35.88,33.76 L38.40,34.90 L42.27,35.97 L46.28,36.26 L50.26,35.76 L51.58,35.36 L52.04,35.36 L55.99,36.11 L60.01,36.11 L63.96,35.36 L66.71,34.46 L69.19,32.98 L71.30,31.01 L71.61,29.85 L71.53,28.66 Z" fill="#ffca00" stroke="#ffca00" stroke-width="1" stroke-linejoin="round"/><path d="M39.55,32.50 L36.72,31.17 L34.88,29.91 L33.94,28.81 L33.78,28.35 L33.81,27.97 L34.03,27.65 L34.39,27.51 L36.33,27.47 L38.26,27.80 L40.98,28.71 L43.47,29.98 L45.73,31.64 L47.68,33.64 L43.55,33.52 L39.55,32.50 L39.55,32.50 Z" fill="#3990e4" stroke="#3990e4" stroke-width="1" stroke-linejoin="round"/><path d="M68.78,29.92 L67.09,31.35 L65.15,32.44 L63.04,33.13 L60.31,33.68 L57.51,33.82 L54.73,33.53 L56.88,31.73 L59.27,30.27 L61.84,29.17 L64.86,28.42 L67.07,28.25 L68.48,28.54 L68.90,28.82 L69.12,29.17 L69.03,29.58 L68.78,29.92 L68.78,29.92 Z" fill="#3990e4" stroke="#3990e4" stroke-width="1" stroke-linejoin="round"/></svg>