<svg xmlns="http://www.w3.org/2000/svg" viewBox="3.33 11.70 89.33 72.62"><path d="M5.33,31.88 L90.67,31.88 L90.67,31.88 L90.67,79.47 L90.28,80.89 L89.24,81.94 L87.81,82.32 L8.19,82.32 L6.76,81.94 L5.72,80.89 L5.33,79.47 L5.33,31.88 L5.33,31.88 Z" fill="#32d2f3" stroke="#1e1e1e" stroke-width="1" stroke-linejoin="round"/><path d="M8.21,13.70 L87.80,13.70 L89.23,14.07 L90.28,15.11 L90.67,16.53 L90.67,31.88 L90.67,31.88 L5.33,31.88 L5.33,31.88 L5.33,16.53 L5.72,15.11 L6.78,14.07 L8.21,13.70 L8.21,13.70 Z" fill="#0078d4" stroke="#1e1e1e" stroke-width="1" stroke-linejoin="round"/><rect x="17.34" y="19.09" width="61.33" height="7.20" fill="#f2f2f2" stroke="#f2f2f2" stroke-width="1"/><path d="M35.26,71.83 L46.22,42.26 L46.25,41.35 L45.73,40.61 L44.87,40.32 L38.06,40.32 L37.24,40.58 L36.71,41.26 L25.75,70.84 L25.73,71.74 L26.24,72.48 L27.10,72.77 L33.91,72.77 L34.73,72.51 L35.26,71.83 Z" fill="#f2f2f2" stroke="#1e1e1e" stroke-width="1" stroke-linejoin="round"/><path d="M59.29,71.83 L70.25,42.26 L70.28,41.35 L69.76,40.61 L68.90,40.32 L62.09,40.32 L61.27,40.58 L60.74,41.26 L49.78,70.84 L49.75,71.74 L50.27,72.48 L51.13,72.77 L57.94,72.77 L58.76,72.51 L59.29,71.83 L59.29,71.83 Z" fill="#f2f2f2" stroke="#1e1e1e" stroke-width="1" stroke-linejoin="round"/></svg>