<svg xmlns="http://www.w3.org/2000/svg" viewBox="0.67 0.67 94.67 94.13"><path d="M93.33,52.80 L93.33,42.67 L91.73,42.13 L80.53,38.40 L77.87,31.47 L83.73,19.73 L76.27,12.27 L74.67,12.80 L64.53,18.13 L57.60,15.47 L52.80,2.67 L42.67,2.67 L42.13,4.27 L38.40,14.93 L31.47,18.13 L19.73,12.27 L12.27,19.73 L12.80,21.33 L18.13,31.47 L15.47,38.40 L2.67,43.20 L2.67,53.33 L4.27,53.87 L15.47,57.60 L18.13,64.53 L12.27,76.27 L19.73,83.73 L21.33,83.20 L31.47,77.87 L38.40,80.53 L43.20,92.80 L53.33,92.80 L53.87,91.20 L57.60,80.00 L64.53,77.33 L76.27,83.20 L83.73,75.73 L83.20,74.67 L77.87,64.53 L80.53,57.60 L93.33,52.80 Z" fill="#32c9e9" stroke="#1e1e1e" stroke-width="1" stroke-linejoin="round"/><path d="M65.60,34.67 L61.33,38.40 L63.42,41.31 L64.78,44.62 L65.35,48.15 L65.09,51.72 L64.03,55.14 L62.21,58.22 L59.73,60.80 L56.83,62.89 L53.52,64.26 L49.98,64.83 L46.41,64.57 L42.99,63.50 L39.91,61.68 L37.33,59.20 L35.42,56.57 L34.10,53.60 L33.42,50.43 L33.42,47.17 L34.10,44.00 L35.42,41.03 L37.33,38.40 L37.87,38.40 L41.07,41.07 L41.60,41.07 L41.60,40.53 L40.53,29.87 L40.44,29.56 L40.20,29.40 L39.47,29.33 L29.33,30.93 L28.96,31.09 L28.80,31.47 L28.80,31.47 L32.00,34.13 L32.00,34.13 L32.00,34.67 L32.00,34.67 L29.59,38.10 L27.90,41.94 L27.00,46.04 L26.93,50.24 L27.68,54.37 L29.23,58.27 L31.52,61.78 L34.46,64.78 L37.93,67.14 L41.80,68.77 L45.91,69.61 L50.11,69.62 L54.22,68.80 L58.10,67.19 L61.58,64.85 L64.53,61.87 L67.02,59.04 L68.91,55.78 L70.14,52.22 L70.65,48.49 L70.43,44.72 L69.49,41.08 L67.86,37.68 L65.60,34.67 Z" fill="#ffffff" stroke="#1e1e1e" stroke-width="1" stroke-linejoin="round"/></svg>