<svg xmlns="http://www.w3.org/2000/svg" viewBox="0.82 0.82 100.00 99.44"><path d="M98.82,55.91 L98.82,45.18 L97.13,44.61 L85.27,40.66 L82.45,33.32 L88.66,20.89 L80.75,12.99 L79.06,13.55 L68.33,19.20 L60.99,16.38 L55.91,2.82 L45.18,2.82 L44.61,4.52 L40.66,15.81 L33.32,19.20 L20.89,12.99 L12.99,20.89 L13.55,22.59 L19.20,33.32 L16.38,40.66 L2.82,45.74 L2.82,56.47 L4.52,57.04 L16.38,60.99 L19.20,68.33 L12.99,80.75 L20.89,88.66 L22.59,88.09 L33.32,82.45 L40.66,85.27 L45.74,98.26 L56.47,98.26 L57.04,96.56 L60.99,84.71 L68.33,81.88 L80.75,88.09 L88.66,80.19 L88.09,79.06 L82.45,68.33 L85.27,60.99 L98.82,55.91 Z" fill="#32c9e9" stroke="#1e1e1e" stroke-width="1" stroke-linejoin="round"/><path d="M69.46,36.71 L64.94,40.66 L67.15,43.74 L68.59,47.24 L69.19,50.98 L68.92,54.76 L67.80,58.38 L65.87,61.64 L63.25,64.38 L60.17,66.59 L56.67,68.04 L52.92,68.64 L49.14,68.37 L45.52,67.24 L42.26,65.31 L39.53,62.68 L37.50,59.90 L36.10,56.76 L35.38,53.39 L35.38,49.95 L36.10,46.58 L37.50,43.44 L39.53,40.66 L40.09,40.66 L43.48,43.48 L44.05,43.48 L44.05,42.92 L42.92,31.62 L42.82,31.30 L42.56,31.13 L41.79,31.06 L31.06,32.75 L30.66,32.92 L30.49,33.32 L30.49,33.32 L33.88,36.14 L33.88,36.14 L33.88,36.71 L33.88,36.71 L31.33,40.34 L29.54,44.41 L28.59,48.75 L28.51,53.19 L29.31,57.56 L30.95,61.69 L33.38,65.42 L36.49,68.59 L40.16,71.09 L44.26,72.82 L48.61,73.70 L53.05,73.71 L57.41,72.85 L61.52,71.14 L65.20,68.66 L68.33,65.51 L70.96,62.51 L72.97,59.06 L74.27,55.29 L74.81,51.34 L74.58,47.36 L73.58,43.49 L71.85,39.90 L69.46,36.71 Z" fill="#ffffff" stroke="#1e1e1e" stroke-width="1" stroke-linejoin="round"/></svg>