<svg xmlns="http://www.w3.org/2000/svg" viewBox="7.64 0.67 80.62 94.67"><path d="M49.60,78.68 L49.46,78.41 L49.09,78.22 L47.97,78.06 L46.84,78.22 L46.47,78.41 L46.33,78.68 L46.21,81.09 L45.44,83.39 L44.07,85.39 L42.21,86.94 L40.00,87.93 L37.61,88.28 L58.31,88.28 L55.92,87.92 L53.71,86.93 L51.86,85.38 L50.49,83.38 L49.72,81.09 L49.60,78.68 L49.60,78.68 Z" fill="#999999" stroke="#999999" stroke-width="1" stroke-linejoin="round"/><path d="M71.12,5.87 L72.48,5.08 L74.06,5.08 L75.42,5.87 L75.56,6.02 L79.17,10.84 L82.09,16.12 L84.27,21.74 L85.67,27.60 L86.26,33.60 L86.03,39.63 L84.99,45.56 L83.15,51.30 L80.56,56.74 L77.24,61.78 L73.28,66.32 L68.74,70.28 L63.70,73.59 L58.26,76.19 L52.51,78.03 L46.57,79.07 L40.55,79.29 L34.55,78.70 L28.69,77.30 L23.07,75.11 L17.80,72.19 L12.97,68.58 L12.11,67.27 L12.02,65.71 L12.71,64.31 L12.84,64.17 L12.84,64.17 L14.14,63.39 L15.66,63.32 L17.01,64.00 L21.62,67.37 L26.67,70.03 L32.06,71.90 L37.67,72.95 L43.38,73.15 L49.05,72.50 L54.56,71.02 L59.79,68.73 L64.62,65.70 L68.95,61.97 L72.67,57.65 L75.71,52.82 L78.00,47.59 L79.49,42.08 L80.14,36.41 L79.94,30.70 L78.89,25.09 L77.02,19.70 L74.37,14.64 L71.00,10.04 L70.31,8.69 L70.35,7.17 L71.12,5.87 L71.12,5.87 Z" fill="#a3a3a3" stroke="#1e1e1e" stroke-width="1" stroke-linejoin="round"/><path d="M63.71,93.33 L32.25,93.33 L30.98,92.99 L30.05,92.06 L29.71,90.79 L29.71,90.79 L30.05,89.53 L30.98,88.60 L32.25,88.26 L63.71,88.26 L64.98,88.60 L65.91,89.53 L66.25,90.79 L66.25,90.79 L65.91,92.06 L64.98,92.99 L63.71,93.33 L63.71,93.33 Z" fill="#a3a3a3" stroke="#a3a3a3" stroke-width="1" stroke-linejoin="round"/><ellipse cx="41.98" cy="35.00" rx="32.34" ry="32.34" fill="#d22020" stroke="#1e1e1e" stroke-width="1"/><path d="M44.75,43.23 L38.70,43.23 L37.74,42.88 L37.29,41.97 L36.63,14.43 L37.07,13.47 L38.05,13.11 L45.40,13.11 L46.38,13.47 L46.82,14.43 L46.17,41.97 L45.71,42.88 L44.75,43.23 Z" fill="#f2f2f2" stroke="#1e1e1e" stroke-width="1" stroke-linejoin="round"/><ellipse cx="41.72" cy="51.45" rx="4.83" ry="4.83" fill="#f2f2f2" stroke="#f2f2f2" stroke-width="1"/></svg>