<svg xmlns="http://www.w3.org/2000/svg" viewBox="8.21 0.82 85.13 100.00"><path d="M52.52,83.31 L52.37,83.02 L51.98,82.82 L50.79,82.65 L49.60,82.82 L49.20,83.02 L49.06,83.31 L48.93,85.87 L48.11,88.29 L46.66,90.41 L44.69,92.05 L42.35,93.10 L39.82,93.47 L61.74,93.47 L59.21,93.10 L56.87,92.05 L54.91,90.40 L53.46,88.29 L52.64,85.86 L52.52,83.31 L52.52,83.31 Z" fill="#999999" stroke="#999999" stroke-width="1" stroke-linejoin="round"/><path d="M75.30,6.21 L76.75,5.38 L78.42,5.38 L79.86,6.21 L80.01,6.37 L83.83,11.48 L86.92,17.07 L89.23,23.02 L90.71,29.23 L91.34,35.58 L91.10,41.96 L89.99,48.24 L88.05,54.32 L85.29,60.08 L81.79,65.42 L77.59,70.22 L72.78,74.42 L67.44,77.92 L61.68,80.67 L55.60,82.62 L49.31,83.72 L42.94,83.95 L36.58,83.33 L30.38,81.84 L24.43,79.53 L18.84,76.43 L13.73,72.61 L12.83,71.23 L12.72,69.58 L13.46,68.09 L13.60,67.95 L13.60,67.95 L14.97,67.11 L16.58,67.05 L18.01,67.76 L22.89,71.34 L28.24,74.15 L33.95,76.13 L39.89,77.24 L45.93,77.45 L51.93,76.77 L57.77,75.20 L63.31,72.78 L68.42,69.56 L73.00,65.62 L76.95,61.04 L80.17,55.92 L82.59,50.39 L84.16,44.55 L84.85,38.55 L84.64,32.51 L83.53,26.57 L81.55,20.86 L78.74,15.50 L75.17,10.63 L74.45,9.20 L74.49,7.60 L75.30,6.21 L75.30,6.21 Z" fill="#a3a3a3" stroke="#1e1e1e" stroke-width="1" stroke-linejoin="round"/><path d="M67.46,98.82 L34.14,98.82 L32.80,98.46 L31.81,97.48 L31.45,96.14 L31.45,96.14 L31.81,94.79 L32.80,93.81 L34.14,93.45 L67.46,93.45 L68.80,93.81 L69.78,94.79 L70.14,96.14 L70.14,96.14 L69.78,97.48 L68.80,98.46 L67.46,98.82 L67.46,98.82 Z" fill="#a3a3a3" stroke="#a3a3a3" stroke-width="1" stroke-linejoin="round"/><ellipse cx="44.45" cy="37.06" rx="34.24" ry="34.24" fill="#6dad29" stroke="#1e1e1e" stroke-width="1"/><path d="M40.94,48.54 L37.80,51.69 L36.83,52.09 L35.86,51.69 L23.36,39.19 L22.96,38.22 L23.36,37.25 L25.54,35.08 L26.51,34.68 L27.48,35.08 L40.94,48.54 L40.94,48.54 Z" fill="#ffffff" stroke="#1e1e1e" stroke-width="1" stroke-linejoin="round"/><path d="M35.92,51.71 L32.77,48.56 L32.77,48.56 L61.52,19.81 L62.49,19.41 L63.47,19.81 L65.64,21.99 L66.04,22.96 L65.64,23.93 L37.86,51.71 L36.89,52.12 L35.92,51.71 L35.92,51.71 Z" fill="#f2f2f2" stroke="#1e1e1e" stroke-width="1" stroke-linejoin="round"/></svg>