<svg xmlns="http://www.w3.org/2000/svg" viewBox="3.33 5.69 89.33 84.70"><path d="M48.00,88.39 L55.24,83.01 L61.62,77.93 L67.17,73.13 L71.96,68.61 L76.05,64.38 L79.49,60.43 L82.34,56.76 L84.65,53.38 L86.49,50.28 L87.90,47.46 L88.95,44.93 L89.69,42.67 L90.46,38.99 L90.67,36.42 L90.67,33.09 L90.34,28.97 L89.48,24.43 L88.79,22.10 L87.89,19.81 L86.75,17.58 L85.35,15.47 L83.67,13.52 L81.67,11.77 L79.33,10.26 L76.64,9.05 L73.55,8.18 L70.05,7.69 L66.01,7.74 L62.05,8.54 L58.31,10.07 L54.93,12.27 L52.01,15.07 L49.68,18.36 L48.00,22.04 L46.32,18.37 L43.99,15.08 L41.08,12.28 L37.70,10.08 L33.97,8.55 L30.01,7.74 L25.98,7.69 L22.48,8.19 L19.39,9.06 L16.69,10.27 L14.36,11.78 L12.36,13.53 L10.67,15.48 L9.27,17.59 L8.14,19.82 L7.23,22.11 L6.54,24.43 L5.67,28.98 L5.34,33.09 L5.33,36.42 L5.53,38.99 L6.30,42.67 L7.03,44.93 L8.08,47.46 L9.49,50.28 L11.32,53.38 L13.64,56.76 L16.49,60.43 L19.93,64.38 L24.02,68.61 L28.82,73.13 L34.37,77.93 L40.75,83.01 L48.00,88.39 Z" fill="#d22020" stroke="#1e1e1e" stroke-width="1" stroke-linejoin="round"/><path d="M90.67,36.42 L90.67,33.09 L90.34,28.97 L89.48,24.43 L88.79,22.10 L87.89,19.81 L86.75,17.58 L85.35,15.47 L83.67,13.52 L81.67,11.77 L79.33,10.26 L76.64,9.05 L73.55,8.18 L70.05,7.69 L66.01,7.74 L62.05,8.54 L58.31,10.07 L54.93,12.27 L52.01,15.07 L49.68,18.36 L48.00,22.04 L46.32,18.37 L43.99,15.08 L41.08,12.28 L37.70,10.08 L33.97,8.55 L30.01,7.74 L25.98,7.69 L22.48,8.19 L19.39,9.06 L16.69,10.27 L14.36,11.78 L12.36,13.53 L10.67,15.48 L9.27,17.59 L8.14,19.82 L7.23,22.11 L6.54,24.43 L5.67,28.98 L5.34,33.09 L5.33,36.42 L5.52,38.97 L6.24,42.63 L6.95,44.87 L7.96,47.38 L9.34,50.18 L11.14,53.26 L13.42,56.62 L16.24,60.26 L19.65,64.19 L23.71,68.40 L28.48,72.90 L34.01,77.69 L40.37,82.77 L47.62,88.15" fill="none" stroke="#1e1e1e" stroke-width="1" stroke-linejoin="round"/></svg>