<svg xmlns="http://www.w3.org/2000/svg" viewBox="5.47 -2.00 81.87 100.00"><path d="M78.13,96.00 L80.33,95.73 L82.33,94.78 L83.93,93.26 L84.97,91.30 L85.33,89.12 L85.33,88.27 L84.71,84.25 L83.86,80.34 L82.77,76.57 L81.45,72.96 L79.89,69.52 L78.10,66.27 L76.06,63.24 L73.79,60.45 L71.26,57.90 L68.49,55.64 L65.47,53.66 L62.20,52.00 L58.68,50.68 L54.90,49.71 L50.86,49.11 L46.56,48.91 L42.25,49.08 L38.20,49.60 L34.38,50.46 L30.82,51.64 L27.51,53.15 L24.44,54.96 L21.62,57.08 L19.05,59.49 L16.73,62.19 L14.66,65.16 L12.84,68.40 L11.27,71.90 L9.94,75.65 L8.87,79.64 L8.04,83.87 L7.47,88.32 L7.55,90.51 L8.32,92.56 L9.69,94.26 L11.53,95.45 L13.65,96.00 L78.13,96.00 Z" fill="#29b9dd" stroke="#1e1e1e" stroke-width="1" stroke-linejoin="round"/><path d="M46.29,54.03 L42.16,53.65 L38.18,52.48 L34.51,50.56 L46.19,81.07 L57.81,50.77 L54.20,52.57 L50.31,53.66 L46.29,54.03 L46.29,54.03 Z" fill="#ffffff" stroke="#1e1e1e" stroke-width="1" stroke-linejoin="round" opacity="0.8"/><ellipse cx="46.29" cy="32.27" rx="21.76" ry="21.76" fill="#29b9dd" stroke="#1e1e1e" stroke-width="1"/><path d="M78.93,38.56 L79.40,34.02 L79.24,29.46 L78.45,24.96 L76.97,20.45 L74.85,16.20 L72.15,12.30 L68.92,8.83 L65.22,5.85 L61.13,3.44 L56.74,1.64 L52.14,0.48 L47.41,0.00 L42.68,0.03 L38.01,0.82 L33.52,2.34 L29.34,4.57 L25.57,7.43 L22.30,10.86 L19.63,14.77 L19.15,16.32 L19.50,17.90 L20.59,19.09 L20.59,19.09 L21.99,19.54 L23.44,19.22 L24.53,18.24 L27.10,14.55 L30.30,11.41 L34.04,8.91 L38.17,7.14 L42.55,6.17 L47.04,6.03 L51.30,6.48 L55.44,7.60 L59.35,9.35 L62.94,11.70 L66.11,14.58 L68.79,17.92 L70.91,21.64 L72.43,25.65 L73.20,29.50 L73.43,33.42 L73.12,37.33 L71.86,38.08 L70.87,39.16 L70.24,40.48 L68.80,45.28 L68.61,47.22 L69.17,49.08 L70.40,50.59 L72.11,51.52 L74.07,51.61 L75.94,50.98 L77.45,49.72 L78.40,48.00 L79.84,43.20 L80.07,41.58 L79.76,39.97 L78.93,38.56 Z" fill="#767676" stroke="#1e1e1e" stroke-width="1" stroke-linejoin="round"/></svg>