<svg xmlns="http://www.w3.org/2000/svg" viewBox="0.67 14.64 94.67 66.72"><rect x="2.67" y="16.64" width="90.67" height="62.72" fill="#2bc0e3" stroke="#1e1e1e" stroke-width="1"/><path d="M93.14,52.86 L86.59,46.93 L84.84,45.83 L82.86,45.25 L80.79,45.25 L78.81,45.83 L77.07,46.93 L41.75,79.36 L90.28,79.36 L91.81,78.95 L92.92,77.83 L93.33,76.31 L93.33,52.84 L93.14,52.86 Z" fill="#86d633" stroke="#1e1e1e" stroke-width="1" stroke-linejoin="round"/><path d="M83.68,79.36 L55.90,54.13 L54.19,53.12 L52.23,52.78 L50.28,53.12 L48.57,54.13 L20.80,79.36 L83.68,79.36 Z" fill="#b4ec36" stroke="#1e1e1e" stroke-width="1" stroke-linejoin="round"/><path d="M48.00,41.88 L47.61,39.57 L46.59,37.47 L45.03,35.74 L43.04,34.51 L40.79,33.88 L40.32,31.21 L39.19,28.75 L37.45,26.67 L35.25,25.10 L32.71,24.15 L30.02,23.89 L27.39,24.17 L24.91,25.08 L22.72,26.57 L20.96,28.55 L19.73,30.89 L17.03,31.61 L14.64,33.07 L12.75,35.14 L11.52,37.66 L11.05,40.42 L11.49,43.00 L12.58,45.38 L14.26,47.40 L16.39,48.92 L18.85,49.83 L21.46,50.08 L22.37,50.04 L39.22,50.04 L39.44,50.02 L39.66,49.97 L42.19,49.57 L44.47,48.42 L46.31,46.64 L47.52,44.39 L48.00,41.88 L48.00,41.88 Z" fill="#ffffff" stroke="#1e1e1e" stroke-width="1" stroke-linejoin="round"/></svg>