<svg xmlns="http://www.w3.org/2000/svg" viewBox="-1.63 1.55 99.93 100.00"><path d="M77.93,89.47 L72.47,93.13 L66.57,96.02 L60.34,98.07 L53.88,99.26 L47.31,99.55 L40.77,98.95 L34.38,97.46 L28.24,95.12 L22.48,91.96 L17.21,88.05 L12.51,83.45 L8.49,78.26 L5.21,72.57 L2.74,66.49 L1.11,60.12 L0.37,53.60 L0.52,47.03 L1.57,40.55 L3.49,34.27 L6.25,28.31 L9.79,22.78 L14.05,17.78 L18.96,13.41 L19.47,13.07 L24.94,9.54 L30.84,6.78 L37.06,4.84 L43.49,3.75 L50.00,3.55 L56.48,4.23 L62.81,5.78 L68.87,8.17 L74.55,11.35 L79.75,15.28 L84.38,19.87 L88.34,25.04 L91.56,30.71 L93.99,36.75 L95.58,43.07 L96.30,49.55 L96.14,56.06 L95.10,62.49 L93.20,68.72 L90.48,74.64 L86.98,80.14 L82.77,85.11 L77.93,89.47 L77.93,89.47 Z" fill="#3399e3" stroke="#1e1e1e" stroke-width="1" stroke-linejoin="round"/><path d="M48.44,34.92 L46.62,34.75 L44.90,34.11 L43.41,33.05 L42.33,31.77 L41.67,30.24 L41.48,28.58 L41.67,26.92 L42.33,25.38 L43.41,24.11 L44.95,23.21 L46.66,22.71 L48.44,22.64 L50.25,22.77 L51.96,23.35 L53.48,24.33 L54.58,25.60 L55.26,27.14 L55.46,28.81 L55.27,30.49 L54.59,32.05 L53.48,33.33 L51.96,34.29 L50.24,34.83 L48.44,34.92 L48.44,34.92 Z" fill="#ffffff" stroke="#ffffff" stroke-width="1" stroke-linejoin="round"/><path d="M52.06,80.47 L44.65,80.47 L43.46,80.16 L42.59,79.29 L42.27,78.10 L42.27,43.52 L42.59,42.33 L43.46,41.46 L44.65,41.14 L52.06,41.14 L53.25,41.46 L54.12,42.33 L54.44,43.52 L54.44,78.10 L54.12,79.29 L53.25,80.16 L52.06,80.47 L52.06,80.47 Z" fill="#ffffff" stroke="#ffffff" stroke-width="1" stroke-linejoin="round"/></svg>