<svg xmlns="http://www.w3.org/2000/svg" viewBox="0.83 7.87 100.00 86.00"><path d="M7.42,9.87 L14.41,9.87 L14.41,9.87 L14.41,29.39 L14.20,30.16 L13.63,30.73 L12.86,30.94 L5.87,30.94 L5.10,30.73 L4.53,30.16 L4.32,29.39 L4.32,12.96 L4.74,11.42 L5.87,10.28 L7.42,9.87 Z" fill="#999999" stroke="#999999" stroke-width="1" stroke-linejoin="round"/><path d="M7.42,9.87 L14.41,9.87 L14.41,9.87 L14.41,29.39 L14.20,30.16 L13.63,30.73 L12.86,30.94 L5.87,30.94 L5.10,30.73 L4.53,30.16 L4.32,29.39 L4.32,12.96 L4.74,11.42 L5.87,10.28 L7.42,9.87 Z" fill="#999999" stroke="#999999" stroke-width="1" stroke-linejoin="round" opacity="0.5"/><path d="M86.30,9.87 L93.29,9.87 L94.84,10.28 L95.97,11.42 L96.38,12.96 L96.38,29.39 L96.18,30.16 L95.61,30.73 L94.84,30.94 L87.85,30.94 L87.08,30.73 L86.51,30.16 L86.30,29.39 L86.30,9.87 L86.30,9.87 Z" fill="#999999" stroke="#999999" stroke-width="1" stroke-linejoin="round"/><path d="M86.30,9.87 L93.29,9.87 L94.84,10.28 L95.97,11.42 L96.38,12.96 L96.38,29.39 L96.18,30.16 L95.61,30.73 L94.84,30.94 L87.85,30.94 L87.08,30.73 L86.51,30.16 L86.30,29.39 L86.30,9.87 L86.30,9.87 Z" fill="#999999" stroke="#999999" stroke-width="1" stroke-linejoin="round" opacity="0.5"/><path d="M96.38,12.94 L96.38,19.72 L96.38,19.72 L4.32,19.72 L4.32,19.72 L4.32,12.94 L4.73,11.40 L5.86,10.28 L7.39,9.87 L93.29,9.87 L94.84,10.27 L95.97,11.40 L96.38,12.94 Z" fill="#949494" stroke="#1e1e1e" stroke-width="1" stroke-linejoin="round"/><path d="M5.87,70.79 L12.86,70.79 L13.64,71.00 L14.20,71.56 L14.41,72.34 L14.41,91.86 L14.41,91.86 L7.42,91.86 L5.87,91.44 L4.74,90.31 L4.32,88.76 L4.32,72.34 L4.53,71.56 L5.10,71.00 L5.87,70.79 L5.87,70.79 Z" fill="#999999" stroke="#999999" stroke-width="1" stroke-linejoin="round"/><path d="M5.87,70.79 L12.86,70.79 L13.64,71.00 L14.20,71.56 L14.41,72.34 L14.41,91.86 L14.41,91.86 L7.42,91.86 L5.87,91.44 L4.74,90.31 L4.32,88.76 L4.32,72.34 L4.53,71.56 L5.10,71.00 L5.87,70.79 L5.87,70.79 Z" fill="#999999" stroke="#999999" stroke-width="1" stroke-linejoin="round" opacity="0.5"/><path d="M87.85,70.79 L94.84,70.79 L95.61,71.00 L96.18,71.56 L96.38,72.34 L96.38,88.77 L95.97,90.31 L94.84,91.45 L93.29,91.86 L86.30,91.86 L86.30,91.86 L86.30,72.34 L86.51,71.56 L87.08,71.00 L87.85,70.79 Z" fill="#999999" stroke="#999999" stroke-width="1" stroke-linejoin="round"/><path d="M87.85,70.79 L94.84,70.79 L95.61,71.00 L96.18,71.56 L96.38,72.34 L96.38,88.77 L95.97,90.31 L94.84,91.45 L93.29,91.86 L86.30,91.86 L86.30,91.86 L86.30,72.34 L86.51,71.56 L87.08,71.00 L87.85,70.79 Z" fill="#999999" stroke="#999999" stroke-width="1" stroke-linejoin="round" opacity="0.5"/><path d="M4.32,88.79 L4.32,82.01 L4.32,82.01 L96.38,82.01 L96.38,82.01 L96.38,88.79 L95.97,90.32 L94.85,91.45 L93.32,91.86 L7.39,91.86 L5.86,91.45 L4.73,90.32 L4.32,88.79 L4.32,88.79 Z" fill="#949494" stroke="#1e1e1e" stroke-width="1" stroke-linejoin="round"/><path d="M28.19,30.99 L45.86,48.65 L46.40,49.60 L46.40,50.69 L45.86,51.63 L28.19,69.29 L27.53,69.57 L26.86,69.29 L26.59,68.62 L26.59,57.77 L26.32,57.10 L25.65,56.82 L3.58,56.82 L3.04,56.61 L2.83,56.07 L2.83,44.21 L3.05,43.68 L3.58,43.46 L25.65,43.46 L26.32,43.18 L26.59,42.52 L26.59,31.65 L26.87,30.99 L27.53,30.71 L28.19,30.99 Z" fill="#8e5ae8" stroke="#1e1e1e" stroke-width="1" stroke-linejoin="round"/><path d="M80.62,30.99 L98.28,48.65 L98.83,49.60 L98.83,50.69 L98.28,51.63 L80.62,69.29 L79.96,69.57 L79.29,69.29 L79.02,68.62 L79.02,57.77 L78.74,57.10 L78.07,56.82 L56.00,56.82 L55.47,56.60 L55.25,56.07 L55.25,44.21 L55.47,43.67 L56.00,43.45 L78.07,43.45 L78.74,43.18 L79.02,42.51 L79.02,31.65 L79.30,30.99 L79.96,30.71 L80.62,30.99 L80.62,30.99 Z" fill="#43a6ee" stroke="#1e1e1e" stroke-width="1" stroke-linejoin="round"/></svg>