<svg xmlns="http://www.w3.org/2000/svg" viewBox="5.27 3.33 85.45 89.33"><path d="M27.98,20.02 L28.69,20.11 L29.36,20.39 L29.93,20.82 L30.37,21.39 L30.64,22.06 L30.74,22.77 L30.74,87.91 L30.64,88.62 L30.37,89.29 L29.93,89.86 L29.36,90.30 L28.69,90.57 L27.98,90.67 L10.05,90.67 L9.33,90.57 L8.67,90.30 L8.10,89.86 L7.66,89.29 L7.38,88.62 L7.29,87.91 L7.29,22.77 L7.38,22.06 L7.66,21.39 L8.10,20.82 L8.67,20.39 L9.33,20.11 L10.05,20.02 L27.98,20.02 Z" fill="#ffc713" stroke="#1e1e1e" stroke-width="1" stroke-linejoin="round"/><path d="M56.97,20.02 L57.68,20.11 L58.34,20.39 L58.92,20.82 L59.35,21.39 L59.63,22.06 L59.72,22.77 L59.72,87.91 L59.63,88.62 L59.35,89.29 L58.92,89.86 L58.34,90.30 L57.68,90.57 L56.97,90.67 L39.03,90.67 L38.32,90.57 L37.66,90.30 L37.08,89.86 L36.65,89.29 L36.37,88.62 L36.28,87.91 L36.28,22.77 L36.37,22.06 L36.65,21.39 L37.08,20.82 L37.66,20.39 L38.32,20.11 L39.03,20.02 L56.97,20.02 Z" fill="#6cab29" stroke="#1e1e1e" stroke-width="1" stroke-linejoin="round"/><path d="M85.96,20.02 L86.67,20.11 L87.34,20.39 L87.91,20.82 L88.35,21.39 L88.62,22.06 L88.71,22.77 L88.71,87.91 L88.62,88.62 L88.35,89.29 L87.91,89.86 L87.34,90.30 L86.67,90.57 L85.96,90.67 L68.03,90.67 L67.31,90.57 L66.65,90.30 L66.08,89.86 L65.64,89.29 L65.36,88.62 L65.27,87.91 L65.27,22.77 L65.36,22.06 L65.64,21.39 L66.08,20.82 L66.65,20.39 L67.31,20.11 L68.03,20.02 L85.96,20.02 Z" fill="#43a6ee" stroke="#1e1e1e" stroke-width="1" stroke-linejoin="round"/><path d="M8.62,5.33 L29.40,5.33 L30.34,5.73 L30.74,6.67 L30.74,21.98 L30.74,21.98 L7.27,21.98 L7.27,21.98 L7.27,6.67 L7.67,5.72 L8.62,5.33 L8.62,5.33 Z" fill="#faa21d" stroke="#1e1e1e" stroke-width="1" stroke-linejoin="round"/><path d="M37.62,5.33 L58.38,5.33 L59.33,5.73 L59.72,6.67 L59.72,21.98 L59.72,21.98 L36.27,21.98 L36.27,21.98 L36.27,6.67 L36.66,5.72 L37.62,5.33 L37.62,5.33 Z" fill="#86d633" stroke="#1e1e1e" stroke-width="1" stroke-linejoin="round"/><path d="M66.60,5.33 L87.37,5.33 L88.32,5.73 L88.71,6.67 L88.71,21.98 L88.71,21.98 L65.24,21.98 L65.24,21.98 L65.24,6.67 L65.64,5.72 L66.60,5.33 L66.60,5.33 Z" fill="#5ea0ef" stroke="#1e1e1e" stroke-width="1" stroke-linejoin="round"/></svg>