<svg xmlns="http://www.w3.org/2000/svg" viewBox="6.18 4.00 95.63 100.00"><path d="M31.48,22.52 L32.28,22.62 L33.03,22.93 L33.67,23.43 L34.16,24.07 L34.47,24.82 L34.58,25.62 L34.58,98.90 L34.47,99.70 L34.16,100.45 L33.67,101.09 L33.03,101.58 L32.28,101.89 L31.48,102.00 L11.30,102.00 L10.50,101.89 L9.75,101.58 L9.11,101.09 L8.62,100.45 L8.31,99.70 L8.20,98.90 L8.20,25.62 L8.31,24.82 L8.62,24.07 L9.11,23.43 L9.75,22.93 L10.50,22.62 L11.30,22.52 L31.48,22.52 Z" fill="#ffc713" stroke="#1e1e1e" stroke-width="1" stroke-linejoin="round"/><path d="M64.09,22.52 L64.89,22.62 L65.64,22.93 L66.28,23.43 L66.77,24.07 L67.08,24.82 L67.19,25.62 L67.19,98.90 L67.08,99.70 L66.77,100.45 L66.28,101.09 L65.64,101.58 L64.89,101.89 L64.09,102.00 L43.91,102.00 L43.11,101.89 L42.36,101.58 L41.72,101.09 L41.23,100.45 L40.92,99.70 L40.81,98.90 L40.81,25.62 L40.92,24.82 L41.23,24.07 L41.72,23.43 L42.36,22.93 L43.11,22.62 L43.91,22.52 L64.09,22.52 Z" fill="#6cab29" stroke="#1e1e1e" stroke-width="1" stroke-linejoin="round"/><path d="M96.70,22.52 L97.50,22.62 L98.25,22.93 L98.90,23.43 L99.39,24.07 L99.70,24.82 L99.80,25.62 L99.80,98.90 L99.70,99.70 L99.39,100.45 L98.90,101.09 L98.25,101.58 L97.50,101.89 L96.70,102.00 L76.53,102.00 L75.73,101.89 L74.98,101.58 L74.34,101.09 L73.84,100.45 L73.53,99.70 L73.43,98.90 L73.43,25.62 L73.53,24.82 L73.84,24.07 L74.34,23.43 L74.98,22.93 L75.73,22.62 L76.53,22.52 L96.70,22.52 Z" fill="#43a6ee" stroke="#1e1e1e" stroke-width="1" stroke-linejoin="round"/><path d="M9.70,6.00 L33.07,6.00 L34.14,6.44 L34.58,7.51 L34.58,24.73 L34.58,24.73 L8.18,24.73 L8.18,24.73 L8.18,7.51 L8.63,6.43 L9.70,6.00 L9.70,6.00 Z" fill="#faa21d" stroke="#1e1e1e" stroke-width="1" stroke-linejoin="round"/><path d="M42.32,6.00 L65.68,6.00 L66.75,6.44 L67.19,7.51 L67.19,24.73 L67.19,24.73 L40.80,24.73 L40.80,24.73 L40.80,7.51 L41.25,6.44 L42.32,6.00 L42.32,6.00 Z" fill="#86d633" stroke="#1e1e1e" stroke-width="1" stroke-linejoin="round"/><path d="M74.93,6.00 L98.29,6.00 L99.36,6.44 L99.80,7.51 L99.80,24.73 L99.80,24.73 L73.40,24.73 L73.40,24.73 L73.40,7.51 L73.85,6.43 L74.93,6.00 L74.93,6.00 Z" fill="#5ea0ef" stroke="#1e1e1e" stroke-width="1" stroke-linejoin="round"/></svg>