<svg xmlns="http://www.w3.org/2000/svg" viewBox="0.08 0.78 100.00 98.60"><path d="M98.08,37.79 L98.08,4.00 L97.73,3.14 L96.87,2.78 L63.08,2.78 L62.22,3.13 L61.86,4.00 L62.22,4.86 L71.53,14.17 L72.14,14.79 L72.50,15.64 L72.14,16.50 L31.41,57.24 L31.05,58.10 L31.41,58.96 L41.90,69.46 L42.76,69.82 L43.62,69.46 L84.36,28.72 L85.22,28.36 L86.08,28.72 L86.70,29.34 L96.01,38.65 L96.86,39.01 L97.73,38.65 L98.08,37.79 Z" fill="#43a6ee" stroke="#1e1e1e" stroke-width="1" stroke-linejoin="round"/><path d="M73.27,60.76 L73.27,85.49 L72.89,86.91 L71.85,87.95 L70.43,88.33 L13.97,88.33 L12.55,87.95 L11.51,86.91 L11.13,85.49 L11.13,32.19 L11.51,30.77 L12.55,29.73 L13.97,29.35 L42.26,29.35 L43.04,29.14 L43.61,28.57 L43.82,27.79 L43.82,21.86 L43.61,21.08 L43.04,20.51 L42.26,20.30 L4.92,20.30 L3.50,20.68 L2.46,21.72 L2.08,23.14 L2.08,94.54 L2.46,95.96 L3.50,97.00 L4.92,97.38 L79.48,97.38 L80.91,97.00 L81.95,95.96 L82.33,94.54 L82.33,60.76 L82.12,59.98 L81.55,59.41 L80.77,59.20 L74.83,59.20 L74.05,59.41 L73.48,59.98 L73.27,60.76 Z" fill="#b3b3b3" stroke="#1e1e1e" stroke-width="1" stroke-linejoin="round"/></svg>