<svg xmlns="http://www.w3.org/2000/svg" viewBox="13.29 -2.00 69.47 100.00"><path d="M15.38,7.43 L20.97,0.93 L21.90,0.25 L23.02,0.00 L76.67,0.00 L78.23,0.18 L79.58,0.99 L80.48,2.29 L80.77,3.84 L80.77,70.79 L80.54,71.89 L79.88,72.80 L73.84,78.31 L19.00,78.31 L15.29,76.75 L15.38,7.43 Z" fill="#005ba1" stroke="#1e1e1e" stroke-width="1" stroke-linejoin="round"/><path d="M19.88,7.40 L23.31,3.50 L24.12,2.89 L25.12,2.67 L75.25,2.67 L76.45,2.99 L77.33,3.87 L77.65,5.08 L77.65,68.75 L77.45,69.72 L76.87,70.53 L71.53,75.41 L19.88,7.40 Z" fill="#ffffff" stroke="#1e1e1e" stroke-width="1" stroke-linejoin="round"/><path d="M40.85,68.84 L23.82,68.84 L23.18,69.11 L22.91,69.76 L22.91,95.53 L23.17,95.94 L23.65,95.88 L32.05,89.30 L32.14,89.25 L32.24,89.22 L32.21,89.22 L41.77,81.75 L41.77,69.75 L41.49,69.11 L40.85,68.84 L40.85,68.84 Z" fill="#84d432" stroke="#1e1e1e" stroke-width="1" stroke-linejoin="round"/><path d="M32.21,89.19 L41.77,81.72 L41.77,95.59 L41.51,96.00 L41.03,95.95 L32.21,89.19 Z" fill="#76bc2d" stroke="#76bc2d" stroke-width="1" stroke-linejoin="round"/><path d="M71.16,7.36 L15.55,7.36 L15.37,7.43 L15.29,7.62 L15.29,76.75 L15.53,77.64 L16.18,78.29 L17.07,78.52 L71.16,78.52 L72.05,78.29 L72.70,77.64 L72.94,76.75 L72.94,9.14 L72.70,8.25 L72.05,7.60 L71.16,7.36 L71.16,7.36 Z" fill="#3a9de6" stroke="#1e1e1e" stroke-width="1" stroke-linejoin="round"/><path d="M32.34,32.78 L32.34,51.69 L28.28,51.69 L28.28,37.36 L27.90,37.64 L27.49,37.89 L27.01,38.14 L26.52,38.37 L25.99,38.56 L25.45,38.73 L24.91,38.86 L24.35,38.94 L24.35,35.55 L25.88,35.03 L27.35,34.36 L28.65,33.62 L29.89,32.76 L32.34,32.78 Z" fill="#ffffff" stroke="#ffffff" stroke-width="1" stroke-linejoin="round"/><path d="M44.29,52.02 L42.74,51.87 L41.40,51.44 L40.27,50.71 L39.34,49.70 L38.61,48.39 L38.10,46.80 L37.79,44.91 L37.69,42.74 L37.78,40.19 L38.39,37.71 L39.49,35.40 L40.89,33.99 L42.69,33.11 L44.67,32.88 L46.18,33.03 L47.49,33.47 L48.60,34.21 L49.51,35.24 L50.21,36.57 L50.72,38.19 L51.02,40.10 L51.12,42.31 L51.02,44.82 L50.43,47.25 L49.36,49.51 L47.99,50.92 L46.24,51.78 L44.29,52.02 Z" fill="#ffffff" stroke="#ffffff" stroke-width="1" stroke-linejoin="round"/><path d="M44.48,36.01 L43.85,36.11 L43.31,36.42 L42.85,36.94 L42.47,37.67 L42.18,38.60 L41.97,39.74 L41.81,42.65 L41.97,45.39 L42.17,46.47 L42.46,47.35 L42.82,48.03 L43.27,48.52 L43.79,48.81 L44.40,48.91 L45.01,48.81 L45.53,48.51 L45.98,48.00 L46.34,47.29 L46.62,46.38 L46.81,45.27 L46.96,42.44 L46.81,39.62 L46.61,38.51 L46.34,37.60 L45.99,36.90 L45.57,36.39 L45.06,36.09 L44.48,35.99 L44.48,36.01 Z" fill="#3a9de6" stroke="#3a9de6" stroke-width="1" stroke-linejoin="round"/><path d="M62.74,32.78 L62.74,51.69 L58.67,51.69 L58.67,37.36 L58.29,37.64 L57.88,37.89 L57.40,38.14 L56.91,38.37 L56.38,38.56 L55.84,38.73 L55.29,38.86 L54.74,38.94 L54.74,35.55 L56.27,35.03 L57.74,34.36 L59.04,33.62 L60.28,32.76 L62.74,32.78 Z" fill="#ffffff" stroke="#ffffff" stroke-width="1" stroke-linejoin="round"/></svg>