<svg xmlns="http://www.w3.org/2000/svg" viewBox="12.59 -2.00 58.33 100.00"><ellipse cx="41.76" cy="68.84" rx="11.88" ry="11.88" fill="#32bedd" stroke="#1e1e1e" stroke-width="1"/><path d="M41.76,87.95 L37.87,87.55 L34.14,86.37 L30.73,84.46 L27.79,81.89 L25.42,78.77 L23.74,75.24 L22.82,71.44 L22.68,67.53 L23.35,63.68 L24.78,60.04 L26.93,56.77 L29.69,54.01 L32.96,51.87 L36.60,50.43 L40.45,49.77 L44.36,49.90 L48.16,50.83 L51.69,52.51 L54.80,54.87 L57.37,57.82 L59.29,61.23 L60.47,64.95 L60.87,68.84 L60.50,72.57 L59.41,76.15 L57.64,79.45 L55.27,82.35 L52.37,84.72 L49.07,86.49 L45.49,87.58 L41.76,87.95 L41.76,87.95 Z" fill="#50e6ff" stroke="#1e1e1e" stroke-width="1" stroke-linejoin="round"/><path d="M41.76,52.98 L38.23,53.37 L34.87,54.54 L31.86,56.42 L29.34,58.93 L27.45,61.94 L26.27,65.29 L25.87,68.82 L26.26,72.36 L27.43,75.71 L29.32,78.72 L31.83,81.24 L34.84,83.13 L38.19,84.31 L41.72,84.71 L45.26,84.31 L48.61,83.14 L51.62,81.25 L54.14,78.74 L56.03,75.73 L57.20,72.37 L57.60,68.84 L57.20,65.32 L56.03,61.97 L54.14,58.96 L51.63,56.45 L48.63,54.56 L45.28,53.38 L41.76,52.98 L41.76,52.98 Z" fill="#32bedd" stroke="#1e1e1e" stroke-width="1" stroke-linejoin="round"/><path d="M41.76,96.00 L37.04,95.59 L32.47,94.36 L28.18,92.36 L24.30,89.65 L20.95,86.30 L18.23,82.42 L16.23,78.13 L15.01,73.56 L14.59,68.84 L15.00,64.12 L16.23,59.55 L18.23,55.26 L20.95,51.38 L24.29,48.03 L28.17,45.31 L32.47,43.31 L37.04,42.09 L41.76,41.67 L46.47,42.09 L51.05,43.31 L55.34,45.32 L59.22,48.03 L62.56,51.38 L65.28,55.26 L67.28,59.55 L68.51,64.13 L68.92,68.84 L68.50,73.56 L67.27,78.13 L65.27,82.41 L62.55,86.29 L59.20,89.63 L55.33,92.35 L51.04,94.35 L46.47,95.58 L41.76,96.00 L41.76,96.00 Z" fill="#9cebff" stroke="#1e1e1e" stroke-width="1" stroke-linejoin="round"/><path d="M41.76,44.93 L37.28,45.35 L32.96,46.61 L28.94,48.65 L25.39,51.41 L22.41,54.78 L20.12,58.66 L18.59,62.89 L17.89,67.34 L18.03,71.84 L19.01,76.23 L20.80,80.36 L23.33,84.08 L26.51,87.27 L30.23,89.80 L34.36,91.59 L38.76,92.57 L43.25,92.71 L47.70,92.01 L51.94,90.48 L55.81,88.19 L59.19,85.21 L61.95,81.66 L63.99,77.65 L65.25,73.32 L65.67,68.84 L65.30,64.69 L64.22,60.67 L62.46,56.89 L60.07,53.48 L57.12,50.53 L53.71,48.14 L49.93,46.38 L45.91,45.30 L41.76,44.93 L41.76,44.93 Z" fill="#32bedd" stroke="#1e1e1e" stroke-width="1" stroke-linejoin="round"/><path d="M41.94,0.00 L37.86,0.53 L33.98,1.85 L30.43,3.91 L27.35,6.63 L24.87,9.90 L23.08,13.60 L22.05,17.57 L21.82,21.67 L21.96,23.58 L22.35,25.77 L23.78,30.80 L25.91,36.52 L28.50,42.67 L34.25,55.25 L39.29,66.54 L40.07,67.63 L41.26,68.24 L42.60,68.24 L43.79,67.63 L44.58,66.54 L49.61,55.17 L55.36,42.52 L57.96,36.36 L60.09,30.66 L61.53,25.68 L61.92,23.54 L62.05,21.67 L61.79,17.59 L60.73,13.63 L58.93,9.96 L56.45,6.70 L53.39,3.99 L49.86,1.92 L45.99,0.57 L41.94,0.00 L41.94,0.00 Z" fill="#9457e7" stroke="#1e1e1e" stroke-width="1" stroke-linejoin="round"/><path d="M41.94,29.33 L39.34,28.95 L36.97,27.82 L35.02,26.06 L33.67,23.81 L33.03,21.26 L33.17,18.64 L34.05,16.17 L35.62,14.06 L37.73,12.50 L40.20,11.62 L42.82,11.49 L45.37,12.13 L47.62,13.48 L49.38,15.43 L50.50,17.81 L50.88,20.41 L50.57,22.72 L49.68,24.87 L48.26,26.72 L46.40,28.14 L44.25,29.03 L41.94,29.33 L41.94,29.33 Z" fill="#ffffff" stroke="#1e1e1e" stroke-width="1" stroke-linejoin="round"/></svg>