<svg xmlns="http://www.w3.org/2000/svg" viewBox="8.20 0.67 79.60 94.67"><path d="M10.30,11.25 L16.76,3.73 L17.83,2.94 L19.13,2.67 L81.07,2.67 L82.87,2.88 L84.43,3.82 L85.47,5.31 L85.80,7.10 L85.80,84.43 L85.53,85.70 L84.78,86.75 L77.80,93.10 L14.49,93.10 L10.22,91.31 L10.30,11.25 Z" fill="#d15900" stroke="#1e1e1e" stroke-width="1" stroke-linejoin="round"/><path d="M15.49,11.20 L19.45,6.69 L20.40,5.98 L21.55,5.73 L79.39,5.73 L80.78,6.11 L81.80,7.13 L82.18,8.52 L82.18,82.04 L81.94,83.17 L81.26,84.10 L75.09,89.73 L15.49,11.20 Z" fill="#ffffff" stroke="#1e1e1e" stroke-width="1" stroke-linejoin="round"/><path d="M74.71,11.16 L10.50,11.16 L10.29,11.25 L10.20,11.46 L10.20,91.28 L10.48,92.31 L11.24,93.06 L12.27,93.33 L74.72,93.33 L75.75,93.06 L76.50,92.31 L76.77,91.28 L76.77,13.22 L76.49,12.19 L75.74,11.44 L74.71,11.16 L74.71,11.16 Z" fill="#f38111" stroke="#1e1e1e" stroke-width="1" stroke-linejoin="round"/><path d="M56.00,52.58 L55.62,55.67 L54.46,58.55 L52.60,61.05 L51.70,61.76 L50.57,61.89 L49.54,61.39 L48.91,60.39 L48.92,59.21 L49.57,58.22 L51.04,56.14 L51.81,53.70 L51.81,51.15 L51.04,48.72 L49.57,46.63 L48.94,45.66 L48.92,44.50 L49.52,43.52 L50.56,43.01 L51.71,43.13 L52.62,43.85 L54.50,46.43 L55.65,49.41 L56.00,52.58 L56.00,52.58 Z" fill="#ffffff" stroke="#ffffff" stroke-width="1" stroke-linejoin="round"/><path d="M30.97,52.58 L31.35,49.42 L32.51,46.46 L34.36,43.87 L35.28,43.13 L36.45,43.01 L37.50,43.53 L38.10,44.54 L38.07,45.72 L37.40,46.69 L35.95,48.76 L35.19,51.18 L35.19,53.71 L35.95,56.12 L37.40,58.20 L38.05,59.21 L38.05,60.42 L37.40,61.43 L36.43,61.89 L35.36,61.79 L34.49,61.16 L32.60,58.62 L31.41,55.70 L30.97,52.58 L30.97,52.58 Z" fill="#ffffff" stroke="#ffffff" stroke-width="1" stroke-linejoin="round"/><path d="M40.00,52.38 L40.27,51.04 L41.03,49.91 L42.17,49.15 L43.51,48.89 L45.00,49.28 L46.19,50.26 L46.84,51.66 L46.84,53.20 L46.19,54.59 L45.00,55.58 L43.51,55.97 L42.14,55.71 L40.99,54.93 L40.23,53.76 L40.00,52.38 Z" fill="#ffffff" stroke="#ffffff" stroke-width="1" stroke-linejoin="round"/><path d="M66.67,52.27 L66.35,55.74 L65.37,59.08 L63.76,62.17 L61.59,64.89 L60.65,65.77 L59.43,66.19 L58.15,66.07 L57.03,65.42 L56.25,64.35 L55.98,63.05 L56.27,61.76 L57.08,60.70 L58.98,58.15 L60.17,55.20 L60.57,52.05 L60.17,48.90 L58.98,45.96 L57.08,43.41 L56.21,42.20 L56.01,40.72 L56.52,39.33 L57.62,38.32 L59.06,37.95 L60.51,38.29 L61.63,39.26 L63.83,42.08 L65.43,45.27 L66.39,48.71 L66.67,52.27 Z" fill="#ffffff" stroke="#1e1e1e" stroke-width="1" stroke-linejoin="round"/><path d="M20.27,51.87 L20.58,55.34 L21.56,58.68 L23.17,61.77 L25.34,64.50 L26.28,65.38 L27.50,65.79 L28.79,65.67 L29.90,65.03 L30.70,63.95 L30.98,62.64 L30.68,61.33 L29.87,60.27 L27.97,57.72 L26.78,54.77 L26.37,51.62 L26.78,48.47 L27.97,45.52 L29.87,42.98 L30.74,41.77 L30.95,40.29 L30.44,38.89 L29.34,37.88 L27.89,37.51 L26.44,37.85 L25.32,38.83 L23.11,41.65 L21.50,44.85 L20.54,48.30 L20.27,51.87 L20.27,51.87 Z" fill="#ffffff" stroke="#1e1e1e" stroke-width="1" stroke-linejoin="round"/></svg>