<svg xmlns="http://www.w3.org/2000/svg" viewBox="8.80 0.82 84.05 100.00"><path d="M10.90,11.91 L17.74,3.95 L18.87,3.12 L20.25,2.82 L85.84,2.82 L87.75,3.05 L89.40,4.04 L90.50,5.62 L90.85,7.52 L90.85,89.40 L90.57,90.74 L89.77,91.86 L82.38,98.58 L15.34,98.58 L10.82,96.68 L10.90,11.91 Z" fill="#d15900" stroke="#1e1e1e" stroke-width="1" stroke-linejoin="round"/><path d="M16.40,11.86 L20.59,7.08 L21.60,6.33 L22.82,6.07 L84.06,6.07 L85.54,6.47 L86.61,7.54 L87.01,9.02 L87.01,86.87 L86.76,88.06 L86.04,89.05 L79.50,95.01 L16.40,11.86 Z" fill="#ffffff" stroke="#1e1e1e" stroke-width="1" stroke-linejoin="round"/><path d="M79.10,11.82 L11.12,11.82 L10.90,11.91 L10.80,12.14 L10.80,96.65 L11.10,97.74 L11.90,98.54 L12.99,98.82 L79.12,98.82 L80.20,98.53 L81.00,97.74 L81.29,96.65 L81.29,13.99 L80.99,12.90 L80.19,12.11 L79.10,11.82 L79.10,11.82 Z" fill="#f38111" stroke="#1e1e1e" stroke-width="1" stroke-linejoin="round"/><path d="M59.29,55.67 L58.89,58.94 L57.66,62.00 L55.69,64.64 L54.75,65.40 L53.54,65.53 L52.45,65.00 L51.79,63.94 L51.80,62.69 L52.48,61.65 L54.04,59.44 L54.86,56.86 L54.86,54.16 L54.04,51.58 L52.48,49.37 L51.81,48.35 L51.80,47.12 L52.44,46.08 L53.54,45.54 L54.75,45.66 L55.71,46.42 L57.70,49.16 L58.92,52.31 L59.29,55.67 L59.29,55.67 Z" fill="#ffffff" stroke="#ffffff" stroke-width="1" stroke-linejoin="round"/><path d="M32.79,55.67 L33.20,52.33 L34.42,49.19 L36.38,46.45 L37.35,45.67 L38.59,45.54 L39.71,46.09 L40.35,47.16 L40.30,48.41 L39.60,49.43 L38.07,51.63 L37.26,54.19 L37.26,56.87 L38.07,59.42 L39.60,61.62 L40.29,62.69 L40.29,63.97 L39.60,65.05 L38.57,65.53 L37.44,65.42 L36.52,64.75 L34.52,62.07 L33.25,58.98 L32.79,55.67 Z" fill="#ffffff" stroke="#ffffff" stroke-width="1" stroke-linejoin="round"/><path d="M42.35,55.47 L42.64,54.04 L43.45,52.84 L44.65,52.04 L46.07,51.76 L47.65,52.18 L48.90,53.22 L49.59,54.70 L49.59,56.33 L48.90,57.81 L47.65,58.85 L46.07,59.27 L44.62,58.99 L43.40,58.16 L42.60,56.92 L42.35,55.47 Z" fill="#ffffff" stroke="#ffffff" stroke-width="1" stroke-linejoin="round"/><path d="M70.59,55.34 L70.25,59.01 L69.21,62.55 L67.51,65.83 L65.21,68.71 L64.22,69.64 L62.93,70.08 L61.57,69.95 L60.38,69.27 L59.56,68.14 L59.27,66.76 L59.58,65.39 L60.43,64.27 L62.44,61.57 L63.70,58.45 L64.13,55.12 L63.70,51.78 L62.44,48.66 L60.43,45.96 L59.52,44.68 L59.31,43.12 L59.84,41.64 L61.01,40.58 L62.53,40.18 L64.07,40.54 L65.26,41.57 L67.58,44.55 L69.28,47.93 L70.30,51.57 L70.59,55.34 L70.59,55.34 Z" fill="#ffffff" stroke="#1e1e1e" stroke-width="1" stroke-linejoin="round"/><path d="M21.46,54.92 L21.79,58.60 L22.83,62.14 L24.53,65.41 L26.83,68.29 L27.83,69.22 L29.12,69.66 L30.48,69.53 L31.66,68.85 L32.51,67.71 L32.80,66.32 L32.49,64.94 L31.62,63.81 L29.62,61.11 L28.36,57.99 L27.93,54.66 L28.36,51.32 L29.62,48.20 L31.62,45.50 L32.55,44.22 L32.77,42.66 L32.23,41.17 L31.06,40.11 L29.54,39.71 L28.00,40.07 L26.81,41.11 L24.47,44.10 L22.77,47.49 L21.75,51.14 L21.46,54.92 L21.46,54.92 Z" fill="#ffffff" stroke="#1e1e1e" stroke-width="1" stroke-linejoin="round"/></svg>