<svg xmlns="http://www.w3.org/2000/svg" viewBox="4.00 13.38 100.00 81.21"><path d="M6.00,35.84 L102.00,35.84 L102.00,35.84 L102.00,89.36 L101.57,90.96 L100.40,92.14 L98.79,92.57 L9.21,92.57 L7.61,92.14 L6.43,90.96 L6.00,89.36 L6.00,35.84 L6.00,35.84 Z" fill="#32d2f3" stroke="#1e1e1e" stroke-width="1" stroke-linejoin="round"/><path d="M9.23,15.38 L98.77,15.38 L100.39,15.80 L101.57,16.98 L102.00,18.60 L102.00,35.84 L102.00,35.84 L6.00,35.84 L6.00,35.84 L6.00,18.60 L6.43,16.98 L7.61,15.80 L9.23,15.38 L9.23,15.38 Z" fill="#198ab3" stroke="#1e1e1e" stroke-width="1" stroke-linejoin="round"/><path d="M6.00,35.84 L31.16,35.84 L31.16,35.84 L31.16,92.57 L31.16,92.57 L9.22,92.57 L7.61,92.15 L6.43,90.98 L6.00,89.37 L6.00,35.84 L6.00,35.84 Z" fill="#9cebff" stroke="#1e1e1e" stroke-width="1" stroke-linejoin="round"/><path d="M31.16,80.14 L102.00,80.14 L102.00,80.14 L102.00,89.40 L101.57,91.00 L100.40,92.16 L98.81,92.59 L31.16,92.59 L31.16,92.59 L31.16,80.14 L31.16,80.14 Z" fill="#32bedd" stroke="#1e1e1e" stroke-width="1" stroke-linejoin="round"/></svg>