<svg xmlns="http://www.w3.org/2000/svg" viewBox="3.33 11.67 89.33 72.63"><path d="M5.33,31.86 L90.67,31.86 L90.67,31.86 L90.67,79.43 L90.28,80.86 L89.24,81.90 L87.81,82.28 L8.19,82.28 L6.76,81.90 L5.72,80.86 L5.33,79.43 L5.33,31.86 L5.33,31.86 Z" fill="#32d2f3" stroke="#1e1e1e" stroke-width="1" stroke-linejoin="round"/><path d="M8.20,13.67 L87.80,13.67 L89.23,14.05 L90.29,15.10 L90.67,16.53 L90.67,31.86 L90.67,31.86 L5.33,31.86 L5.33,31.86 L5.33,16.53 L5.71,15.10 L6.77,14.05 L8.20,13.67 L8.20,13.67 Z" fill="#198ab3" stroke="#1e1e1e" stroke-width="1" stroke-linejoin="round"/><path d="M5.33,31.86 L27.70,31.86 L27.70,31.86 L27.70,82.28 L27.70,82.28 L8.19,82.28 L6.76,81.91 L5.72,80.87 L5.33,79.44 L5.33,31.86 L5.33,31.86 Z" fill="#9cebff" stroke="#1e1e1e" stroke-width="1" stroke-linejoin="round"/><path d="M27.70,71.23 L90.67,71.23 L90.67,71.23 L90.67,79.47 L90.29,80.89 L89.25,81.92 L87.83,82.30 L27.70,82.30 L27.70,82.30 L27.70,71.23 L27.70,71.23 Z" fill="#32bedd" stroke="#1e1e1e" stroke-width="1" stroke-linejoin="round"/></svg>