<svg xmlns="http://www.w3.org/2000/svg" viewBox="0.65 2.28 94.70 91.65"><path d="M73.01,59.84 L65.01,42.24 L48.00,22.40 L30.88,42.19 L22.83,59.73 L25.65,61.07 L32.21,46.77 L38.67,61.07 L41.55,59.79 L34.08,43.31 L48.00,27.20 L61.87,43.36 L54.29,59.79 L57.12,61.12 L63.68,46.88 L70.13,61.17 L73.01,59.84 Z" fill="#949494" stroke="#1e1e1e" stroke-width="1" stroke-linejoin="round"/><ellipse cx="48.00" cy="24.80" rx="9.01" ry="9.01" fill="#9a72ce" stroke="#1e1e1e" stroke-width="1"/><path d="M32.00,36.05 L34.19,36.34 L36.17,37.33 L37.70,38.93 L38.61,40.95 L38.80,43.15 L38.25,45.29 L37.02,47.13 L35.25,48.45 L33.13,49.11 L30.92,49.03 L28.86,48.22 L27.19,46.77 L26.10,44.84 L25.71,42.67 L26.00,40.68 L26.88,38.87 L28.26,37.41 L30.03,36.44 L32.00,36.05 L32.00,36.05 Z" fill="#369be4" stroke="#369be4" stroke-width="1" stroke-linejoin="round"/><path d="M57.17,42.67 L57.49,44.68 L58.42,46.49 L59.86,47.93 L61.67,48.85 L63.68,49.17 L65.86,48.82 L67.79,47.77 L69.27,46.13 L70.12,44.10 L70.25,41.89 L69.65,39.77 L68.37,37.97 L66.57,36.70 L64.45,36.09 L62.25,36.22 L60.22,37.08 L58.58,38.55 L57.53,40.49 L57.17,42.67 L57.17,42.67 Z" fill="#369be4" stroke="#369be4" stroke-width="1" stroke-linejoin="round"/><ellipse cx="24.21" cy="60.37" rx="5.17" ry="5.17" fill="#37c2b1" stroke="#37c2b1" stroke-width="1"/><ellipse cx="40.11" cy="60.43" rx="5.17" ry="5.17" fill="#37c2b1" stroke="#37c2b1" stroke-width="1"/><ellipse cx="55.68" cy="60.48" rx="5.17" ry="5.17" fill="#37c2b1" stroke="#37c2b1" stroke-width="1"/><ellipse cx="71.57" cy="60.53" rx="5.17" ry="5.17" fill="#37c2b1" stroke="#37c2b1" stroke-width="1"/><path d="M2.67,81.17 L2.78,81.60 L3.09,81.92 L9.23,85.33 L19.89,91.41 L20.57,91.48 L21.12,91.09 L24.37,85.33 L24.48,84.67 L24.05,84.16 L11.84,76.85 L11.53,76.54 L11.41,76.11 L11.41,19.89 L11.53,19.46 L11.84,19.15 L24.05,12.05 L24.52,11.72 L24.65,11.17 L24.37,10.67 L20.91,4.75 L20.35,4.36 L19.68,4.43 L9.44,10.35 L3.09,14.08 L2.78,14.40 L2.67,14.83 L2.67,81.17 L2.67,81.17 Z" fill="#949494" stroke="#1e1e1e" stroke-width="1" stroke-linejoin="round"/><path d="M24.37,10.67 L20.91,4.75 L20.51,4.41 L20.00,4.32 L19.57,4.32 L9.33,10.35 L2.99,14.08 L2.83,14.06 L2.67,14.08 L2.67,14.08 L2.65,14.29 L2.67,14.51 L11.41,19.84 L11.53,19.41 L11.84,19.09 L24.05,12.05 L24.52,11.72 L24.65,11.17 L24.37,10.67 Z" fill="#a3a3a3" stroke="#1e1e1e" stroke-width="1" stroke-linejoin="round"/><path d="M24.37,85.33 L20.91,91.47 L20.51,91.81 L20.00,91.89 L19.79,91.93 L19.57,91.89 L9.33,85.65 L2.99,81.92 L2.83,81.94 L2.67,81.92 L2.67,81.92 L2.65,81.71 L2.67,81.49 L11.41,76.16 L11.53,76.59 L11.84,76.91 L24.05,84.00 L24.55,84.59 L24.37,85.33 Z" fill="#a3a3a3" stroke="#1e1e1e" stroke-width="1" stroke-linejoin="round"/><path d="M93.33,14.83 L93.22,14.40 L92.91,14.08 L86.77,10.67 L76.11,4.59 L75.43,4.52 L74.88,4.91 L71.63,10.67 L71.52,11.33 L71.95,11.84 L84.16,18.93 L84.47,19.25 L84.59,19.68 L84.59,76.11 L84.47,76.54 L84.16,76.85 L71.95,83.95 L71.52,84.46 L71.63,85.12 L75.09,91.25 L75.65,91.64 L76.32,91.57 L86.56,85.65 L92.91,81.92 L93.22,81.60 L93.33,81.17 L93.33,14.83 L93.33,14.83 Z" fill="#949494" stroke="#1e1e1e" stroke-width="1" stroke-linejoin="round"/><path d="M71.63,85.33 L75.09,91.47 L75.49,91.81 L76.00,91.89 L76.43,91.89 L86.67,85.97 L93.01,82.24 L93.17,82.26 L93.33,82.24 L93.33,82.24 L93.35,82.03 L93.33,81.81 L84.59,76.48 L84.47,76.91 L84.16,77.23 L71.95,84.32 L71.59,84.77 L71.63,85.33 Z" fill="#a3a3a3" stroke="#1e1e1e" stroke-width="1" stroke-linejoin="round"/><path d="M71.63,10.67 L75.09,4.75 L75.49,4.41 L76.00,4.32 L76.21,4.28 L76.43,4.32 L86.67,10.24 L93.01,13.97 L93.17,13.95 L93.33,13.97 L93.33,13.97 L93.35,14.19 L93.33,14.40 L84.59,19.73 L84.47,19.30 L84.16,18.99 L71.95,12.05 L71.41,11.45 L71.63,10.67 Z" fill="#a3a3a3" stroke="#1e1e1e" stroke-width="1" stroke-linejoin="round"/></svg>