<svg xmlns="http://www.w3.org/2000/svg" viewBox="7.14 0.23 86.69 100.00"><path d="M84.93,26.37 L79.32,26.37 L79.32,98.23 L84.93,87.40 L84.93,26.37 Z" fill="#50e6ff" stroke="#50e6ff" stroke-width="1" stroke-linejoin="round"/><path d="M84.93,87.35 L84.93,87.35 L79.32,98.17 L84.93,93.69 L91.84,88.08 L84.93,87.35 Z" fill="#9cebff" stroke="#9cebff" stroke-width="1" stroke-linejoin="round"/><path d="M48.08,15.65 L48.61,12.95 L49.96,10.54 L51.98,8.66 L54.48,7.51 L57.22,7.18 L59.95,7.52 L62.44,8.68 L64.44,10.56 L65.78,12.96 L66.31,15.65 L66.31,26.37 L70.74,26.37 L70.74,15.65 L70.35,12.42 L69.19,9.37 L67.34,6.69 L64.90,4.53 L62.02,3.01 L58.85,2.23 L55.59,2.23 L52.43,3.01 L49.54,4.53 L47.10,6.69 L45.25,9.37 L44.09,12.42 L43.70,15.65 L43.70,26.37 L48.08,26.37 L48.08,15.65 Z" fill="#a3a3a3" stroke="#1e1e1e" stroke-width="1" stroke-linejoin="round"/><path d="M34.67,15.65 L35.20,12.96 L36.53,10.56 L38.54,8.68 L41.03,7.52 L43.76,7.18 L46.50,7.51 L49.00,8.66 L51.02,10.54 L52.37,12.95 L52.90,15.65 L52.90,26.37 L57.28,26.37 L57.28,15.65 L56.87,12.72 L55.83,9.95 L54.20,7.49 L52.06,5.45 L49.52,3.93 L46.70,3.02 L43.76,2.75 L40.82,3.02 L38.01,3.93 L35.48,5.45 L33.34,7.49 L31.72,9.96 L30.69,12.72 L30.29,15.65 L30.29,26.37 L34.67,26.37 L34.67,15.65 Z" fill="#767676" stroke="#1e1e1e" stroke-width="1" stroke-linejoin="round"/><path d="M79.10,26.37 L79.10,98.23 L9.14,92.68 L11.22,26.37 L79.10,26.37 Z" fill="#32bedd" stroke="#1e1e1e" stroke-width="1" stroke-linejoin="round"/><path d="M84.93,26.37 L84.93,87.40 L91.84,88.41 L89.76,26.37 L84.93,26.37 Z" fill="#32bedd" stroke="#32bedd" stroke-width="1" stroke-linejoin="round"/><path d="M58.40,36.58 L33.66,36.58 L32.85,36.79 L32.25,37.39 L32.03,38.20 L32.03,83.08 L32.25,83.90 L32.85,84.49 L33.66,84.71 L58.68,85.50 L59.48,85.28 L60.06,84.68 L60.25,83.87 L60.25,38.20 L60.02,37.30 L59.32,36.69 L58.40,36.58 L58.40,36.58 Z" fill="#f5f5f5" stroke="#f5f5f5" stroke-width="1" stroke-linejoin="round"/><path d="M40.50,68.72 L40.35,69.00 L40.06,69.11 L35.45,69.11 L35.19,68.99 L35.06,68.72 L35.06,62.78 L35.19,62.51 L35.45,62.38 L40.06,62.38 L40.35,62.49 L40.50,62.78 L40.50,68.72 Z" fill="#32bedd" stroke="#32bedd" stroke-width="1" stroke-linejoin="round"/><path d="M40.50,57.95 L40.35,58.23 L40.06,58.34 L35.45,58.34 L35.19,58.22 L35.06,57.95 L35.06,52.00 L35.19,51.74 L35.45,51.61 L40.06,51.61 L40.35,51.72 L40.50,52.00 L40.50,57.95 Z" fill="#32bedd" stroke="#32bedd" stroke-width="1" stroke-linejoin="round"/><path d="M40.50,47.12 L40.36,47.43 L40.06,47.57 L35.45,47.57 L35.19,47.41 L35.06,47.12 L35.06,41.18 L35.19,40.91 L35.45,40.78 L40.06,40.78 L40.35,40.90 L40.50,41.18 L40.50,47.12 Z" fill="#32bedd" stroke="#32bedd" stroke-width="1" stroke-linejoin="round"/><path d="M48.47,82.58 L48.36,82.86 L48.08,82.97 L43.59,82.97 L43.31,82.86 L43.20,82.58 L43.20,73.60 L43.31,73.32 L43.59,73.21 L48.19,73.21 L48.47,73.32 L48.58,73.60 L48.47,82.58 Z" fill="#32bedd" stroke="#32bedd" stroke-width="1" stroke-linejoin="round"/><path d="M48.47,68.72 L48.36,69.00 L48.08,69.11 L43.59,69.11 L43.31,69.00 L43.20,68.72 L43.20,62.78 L43.31,62.50 L43.59,62.38 L48.19,62.38 L48.47,62.50 L48.58,62.78 L48.47,68.72 Z" fill="#32bedd" stroke="#32bedd" stroke-width="1" stroke-linejoin="round"/><path d="M48.47,57.95 L48.36,58.23 L48.08,58.34 L43.59,58.34 L43.31,58.23 L43.20,57.95 L43.20,52.00 L43.31,51.73 L43.59,51.61 L48.19,51.61 L48.47,51.73 L48.58,52.00 L48.47,57.95 Z" fill="#32bedd" stroke="#32bedd" stroke-width="1" stroke-linejoin="round"/><path d="M48.47,47.12 L48.36,47.42 L48.08,47.57 L43.59,47.57 L43.31,47.42 L43.20,47.12 L43.20,41.18 L43.31,40.90 L43.59,40.78 L48.19,40.78 L48.47,40.90 L48.58,41.18 L48.47,47.12 Z" fill="#32bedd" stroke="#32bedd" stroke-width="1" stroke-linejoin="round"/><path d="M56.55,68.72 L56.43,69.00 L56.16,69.11 L51.67,69.11 L51.39,69.00 L51.28,68.72 L51.28,62.78 L51.39,62.50 L51.67,62.38 L56.10,62.38 L56.38,62.50 L56.49,62.78 L56.55,68.72 Z" fill="#32bedd" stroke="#32bedd" stroke-width="1" stroke-linejoin="round"/><path d="M56.55,57.95 L56.43,58.23 L56.16,58.34 L51.67,58.34 L51.39,58.23 L51.28,57.95 L51.28,52.00 L51.39,51.73 L51.67,51.61 L56.10,51.61 L56.38,51.73 L56.49,52.00 L56.55,57.95 Z" fill="#32bedd" stroke="#32bedd" stroke-width="1" stroke-linejoin="round"/><path d="M56.55,47.12 L56.44,47.42 L56.16,47.57 L51.67,47.57 L51.39,47.42 L51.28,47.12 L51.28,41.18 L51.39,40.90 L51.67,40.78 L56.10,40.78 L56.38,40.90 L56.49,41.18 L56.55,47.12 Z" fill="#32bedd" stroke="#32bedd" stroke-width="1" stroke-linejoin="round"/></svg>