<svg xmlns="http://www.w3.org/2000/svg" viewBox="6.19 1.22 87.46 100.00"><path d="M84.71,26.94 L79.06,26.94 L79.06,99.22 L84.71,88.32 L84.71,26.94 Z" fill="#50e6ff" stroke="#50e6ff" stroke-width="1" stroke-linejoin="round"/><path d="M84.71,88.26 L84.71,88.26 L79.06,99.16 L84.71,94.64 L91.65,89.28 L84.71,88.26 Z" fill="#9cebff" stroke="#9cebff" stroke-width="1" stroke-linejoin="round"/><path d="M47.38,16.15 L47.91,13.45 L49.24,11.04 L51.25,9.16 L53.74,7.98 L56.47,7.62 L59.23,7.95 L61.75,9.12 L63.78,11.00 L65.14,13.43 L65.68,16.15 L65.68,26.94 L70.08,26.94 L70.08,16.15 L69.67,13.21 L68.62,10.43 L66.97,7.95 L64.82,5.90 L62.26,4.38 L59.43,3.48 L56.47,3.22 L53.52,3.49 L50.70,4.40 L48.15,5.92 L46.01,7.97 L44.37,10.44 L43.32,13.21 L42.92,16.15 L42.92,26.94 L47.32,26.94 L47.38,16.15 Z" fill="#a3a3a3" stroke="#1e1e1e" stroke-width="1" stroke-linejoin="round"/><path d="M33.88,16.15 L34.42,13.44 L35.76,11.02 L37.78,9.14 L40.29,7.97 L43.03,7.62 L45.78,7.96 L48.29,9.13 L50.33,11.02 L51.69,13.43 L52.24,16.15 L52.24,26.94 L56.47,26.94 L56.47,16.15 L55.93,12.76 L54.54,9.62 L52.39,6.94 L49.63,4.90 L46.44,3.63 L43.03,3.22 L40.08,3.49 L37.26,4.40 L34.71,5.92 L32.57,7.97 L30.93,10.44 L29.88,13.21 L29.48,16.15 L29.48,26.94 L33.88,26.94 L33.88,16.15 Z" fill="#767676" stroke="#1e1e1e" stroke-width="1" stroke-linejoin="round"/><path d="M78.61,26.94 L78.61,99.22 L8.19,93.63 L10.33,26.94 L78.61,26.94 Z" fill="#32bedd" stroke="#1e1e1e" stroke-width="1" stroke-linejoin="round"/><path d="M84.42,26.94 L84.42,88.32 L91.37,89.34 L89.28,26.94 L84.42,26.94 Z" fill="#32bedd" stroke="#32bedd" stroke-width="1" stroke-linejoin="round"/><path d="M68.84,69.52 L68.45,66.69 L67.45,64.02 L65.89,61.63 L63.85,59.64 L61.42,58.14 L58.73,57.20 L58.27,53.86 L57.13,50.68 L55.34,47.81 L52.99,45.38 L50.18,43.50 L47.04,42.24 L43.71,41.68 L40.67,41.74 L37.71,42.46 L34.98,43.81 L32.61,45.72 L30.71,48.09 L29.36,50.82 L26.18,51.47 L23.26,52.88 L20.78,54.97 L18.89,57.62 L17.72,60.64 L17.34,63.87 L17.74,67.13 L18.82,70.23 L20.53,73.04 L22.79,75.42 L25.51,77.26 L28.56,78.50 L31.79,79.06 L33.04,79.06 L56.53,80.64 L57.15,80.64 L60.12,80.35 L62.91,79.29 L65.33,77.53 L67.20,75.21 L68.40,72.47 L68.84,69.52 L68.84,69.52 Z" fill="#f1f1f1" stroke="#1e1e1e" stroke-width="1" stroke-linejoin="round"/></svg>