<svg xmlns="http://www.w3.org/2000/svg" viewBox="6.69 0.12 82.61 95.27"><path d="M80.75,25.07 L75.41,25.07 L75.41,93.39 L80.75,83.09 L80.75,25.07 Z" fill="#50e6ff" stroke="#50e6ff" stroke-width="1" stroke-linejoin="round"/><path d="M80.75,83.04 L80.75,83.04 L75.41,93.33 L80.75,89.07 L87.31,83.73 L80.75,83.04 Z" fill="#9cebff" stroke="#9cebff" stroke-width="1" stroke-linejoin="round"/><path d="M45.71,14.88 L46.21,12.31 L47.49,10.02 L49.42,8.24 L51.80,7.14 L54.40,6.83 L56.99,7.15 L59.36,8.26 L61.27,10.04 L62.54,12.32 L63.04,14.88 L63.04,25.07 L67.25,25.07 L67.25,14.88 L66.88,11.80 L65.78,8.91 L64.02,6.36 L61.70,4.30 L58.96,2.86 L55.95,2.12 L52.85,2.12 L49.84,2.86 L47.10,4.30 L44.78,6.36 L43.02,8.91 L41.92,11.80 L41.55,14.88 L41.55,25.07 L45.71,25.07 L45.71,14.88 Z" fill="#a3a3a3" stroke="#1e1e1e" stroke-width="1" stroke-linejoin="round"/><path d="M32.96,14.88 L33.46,12.32 L34.73,10.04 L36.64,8.26 L39.01,7.15 L41.60,6.83 L44.20,7.14 L46.58,8.24 L48.51,10.02 L49.79,12.31 L50.29,14.88 L50.29,25.07 L54.45,25.07 L54.45,14.88 L54.07,12.09 L53.08,9.46 L51.52,7.12 L49.49,5.18 L47.07,3.74 L44.40,2.87 L41.60,2.61 L38.80,2.87 L36.14,3.74 L33.73,5.18 L31.70,7.12 L30.16,9.47 L29.17,12.10 L28.80,14.88 L28.80,25.07 L32.96,25.07 L32.96,14.88 Z" fill="#767676" stroke="#1e1e1e" stroke-width="1" stroke-linejoin="round"/><path d="M75.20,25.07 L75.20,93.39 L8.69,88.11 L10.67,25.07 L75.20,25.07 Z" fill="#32bedd" stroke="#1e1e1e" stroke-width="1" stroke-linejoin="round"/><path d="M80.75,25.07 L80.75,83.09 L87.31,84.05 L85.33,25.07 L80.75,25.07 Z" fill="#32bedd" stroke="#32bedd" stroke-width="1" stroke-linejoin="round"/><path d="M55.52,34.77 L32.00,34.77 L31.23,34.98 L30.66,35.55 L30.45,36.32 L30.45,78.99 L30.66,79.76 L31.23,80.33 L32.00,80.53 L55.79,81.28 L56.55,81.07 L57.10,80.50 L57.28,79.73 L57.28,36.32 L57.06,35.46 L56.40,34.88 L55.52,34.77 Z" fill="#f5f5f5" stroke="#f5f5f5" stroke-width="1" stroke-linejoin="round"/><path d="M38.51,65.33 L38.36,65.60 L38.08,65.71 L33.71,65.71 L33.46,65.58 L33.33,65.33 L33.33,59.68 L33.46,59.43 L33.71,59.31 L38.08,59.31 L38.36,59.41 L38.51,59.68 L38.51,65.33 Z" fill="#32bedd" stroke="#32bedd" stroke-width="1" stroke-linejoin="round"/><path d="M38.51,55.09 L38.36,55.36 L38.08,55.47 L33.71,55.47 L33.46,55.34 L33.33,55.09 L33.33,49.44 L33.46,49.19 L33.71,49.07 L38.08,49.07 L38.36,49.17 L38.51,49.44 L38.51,55.09 Z" fill="#32bedd" stroke="#32bedd" stroke-width="1" stroke-linejoin="round"/><path d="M38.51,44.80 L38.37,45.09 L38.08,45.23 L33.71,45.23 L33.45,45.07 L33.33,44.80 L33.33,39.15 L33.46,38.90 L33.71,38.77 L38.08,38.77 L38.36,38.88 L38.51,39.15 L38.51,44.80 Z" fill="#32bedd" stroke="#32bedd" stroke-width="1" stroke-linejoin="round"/><path d="M46.08,78.51 L45.97,78.77 L45.71,78.88 L41.44,78.88 L41.18,78.77 L41.07,78.51 L41.07,69.97 L41.18,69.71 L41.44,69.60 L45.81,69.60 L46.08,69.71 L46.19,69.97 L46.08,78.51 Z" fill="#32bedd" stroke="#32bedd" stroke-width="1" stroke-linejoin="round"/><path d="M46.08,65.33 L45.97,65.60 L45.71,65.71 L41.44,65.71 L41.18,65.60 L41.07,65.33 L41.07,59.68 L41.18,59.42 L41.44,59.31 L45.81,59.31 L46.08,59.42 L46.19,59.68 L46.08,65.33 Z" fill="#32bedd" stroke="#32bedd" stroke-width="1" stroke-linejoin="round"/><path d="M46.08,55.09 L45.97,55.36 L45.71,55.47 L41.44,55.47 L41.18,55.36 L41.07,55.09 L41.07,49.44 L41.18,49.18 L41.44,49.07 L45.81,49.07 L46.08,49.18 L46.19,49.44 L46.08,55.09 Z" fill="#32bedd" stroke="#32bedd" stroke-width="1" stroke-linejoin="round"/><path d="M46.08,44.80 L45.97,45.08 L45.71,45.23 L41.44,45.23 L41.17,45.08 L41.07,44.80 L41.07,39.15 L41.18,38.88 L41.44,38.77 L45.81,38.77 L46.08,38.88 L46.19,39.15 L46.08,44.80 Z" fill="#32bedd" stroke="#32bedd" stroke-width="1" stroke-linejoin="round"/><path d="M53.76,65.33 L53.65,65.60 L53.39,65.71 L49.12,65.71 L48.86,65.60 L48.75,65.33 L48.75,59.68 L48.86,59.42 L49.12,59.31 L53.33,59.31 L53.60,59.42 L53.71,59.68 L53.76,65.33 Z" fill="#32bedd" stroke="#32bedd" stroke-width="1" stroke-linejoin="round"/><path d="M53.76,55.09 L53.65,55.36 L53.39,55.47 L49.12,55.47 L48.86,55.36 L48.75,55.09 L48.75,49.44 L48.86,49.18 L49.12,49.07 L53.33,49.07 L53.60,49.18 L53.71,49.44 L53.76,55.09 Z" fill="#32bedd" stroke="#32bedd" stroke-width="1" stroke-linejoin="round"/><path d="M53.76,44.80 L53.65,45.08 L53.39,45.23 L49.12,45.23 L48.85,45.08 L48.75,44.80 L48.75,39.15 L48.86,38.88 L49.12,38.77 L53.33,38.77 L53.60,38.88 L53.71,39.15 L53.76,44.80 Z" fill="#32bedd" stroke="#32bedd" stroke-width="1" stroke-linejoin="round"/></svg>