<svg xmlns="http://www.w3.org/2000/svg" viewBox="5.73 1.04 82.83 94.67"><path d="M80.00,25.44 L74.67,25.44 L74.67,93.71 L80.00,83.41 L80.00,25.44 Z" fill="#50e6ff" stroke="#50e6ff" stroke-width="1" stroke-linejoin="round"/><path d="M80.00,83.36 L80.00,83.36 L74.67,93.65 L80.00,89.39 L86.56,84.32 L80.00,83.36 Z" fill="#9cebff" stroke="#9cebff" stroke-width="1" stroke-linejoin="round"/><path d="M44.75,15.25 L45.25,12.70 L46.51,10.43 L48.40,8.65 L50.75,7.54 L53.33,7.20 L55.94,7.51 L58.32,8.61 L60.24,10.39 L61.52,12.68 L62.03,15.25 L62.03,25.44 L66.19,25.44 L66.19,15.25 L65.80,12.47 L64.81,9.85 L63.25,7.51 L61.22,5.57 L58.80,4.14 L56.13,3.28 L53.33,3.04 L50.54,3.29 L47.88,4.16 L45.48,5.59 L43.45,7.53 L41.91,9.86 L40.92,12.48 L40.53,15.25 L40.53,25.44 L44.69,25.44 L44.75,15.25 Z" fill="#a3a3a3" stroke="#1e1e1e" stroke-width="1" stroke-linejoin="round"/><path d="M32.00,15.25 L32.50,12.69 L33.77,10.41 L35.68,8.63 L38.05,7.52 L40.64,7.20 L43.24,7.52 L45.61,8.63 L47.53,10.40 L48.81,12.69 L49.33,15.25 L49.33,25.44 L53.33,25.44 L53.33,15.25 L52.82,12.05 L51.51,9.09 L49.48,6.56 L46.87,4.63 L43.86,3.43 L40.64,3.04 L37.85,3.29 L35.19,4.16 L32.78,5.59 L30.76,7.53 L29.21,9.86 L28.22,12.48 L27.84,15.25 L27.84,25.44 L32.00,25.44 L32.00,15.25 Z" fill="#767676" stroke="#1e1e1e" stroke-width="1" stroke-linejoin="round"/><path d="M74.24,25.44 L74.24,93.71 L7.73,88.43 L9.76,25.44 L74.24,25.44 Z" fill="#32bedd" stroke="#1e1e1e" stroke-width="1" stroke-linejoin="round"/><path d="M79.73,25.44 L79.73,83.41 L86.29,84.37 L84.32,25.44 L79.73,25.44 Z" fill="#32bedd" stroke="#32bedd" stroke-width="1" stroke-linejoin="round"/><path d="M65.01,65.65 L64.64,62.99 L63.70,60.46 L62.23,58.20 L60.30,56.32 L58.01,54.91 L55.47,54.03 L55.04,50.86 L53.95,47.86 L52.26,45.15 L50.04,42.86 L47.39,41.08 L44.43,39.90 L41.28,39.36 L38.41,39.42 L35.61,40.10 L33.04,41.38 L30.80,43.18 L29.00,45.42 L27.73,48.00 L24.73,48.61 L21.97,49.94 L19.62,51.92 L17.84,54.41 L16.74,57.27 L16.37,60.32 L16.75,63.40 L17.77,66.33 L19.39,68.98 L21.53,71.23 L24.09,72.97 L26.97,74.14 L30.03,74.67 L31.20,74.67 L53.39,76.16 L53.97,76.16 L56.78,75.89 L59.42,74.88 L61.70,73.23 L63.47,71.03 L64.60,68.44 L65.01,65.65 Z" fill="#f1f1f1" stroke="#1e1e1e" stroke-width="1" stroke-linejoin="round"/></svg>