<svg xmlns="http://www.w3.org/2000/svg" viewBox="-1.00 -0.92 100.00 99.82"><path d="M50.22,21.38 L74.03,35.07 L90.63,25.49 L87.17,20.19 L83.04,15.39 L78.32,11.18 L73.08,7.63 L67.42,4.80 L61.44,2.75 L55.24,1.50 L48.92,1.08 L42.61,1.49 L36.41,2.74 L30.42,4.79 L24.76,7.62 L19.52,11.17 L14.80,15.37 L20.86,14.69 L26.96,14.69 L33.02,15.37 L38.97,16.73 L44.72,18.74 L50.22,21.38 L50.22,21.38 Z" fill="#004887" stroke="#1e1e1e" stroke-width="1" stroke-linejoin="round"/><path d="M73.71,35.07 L73.34,67.92 L90.58,72.55 L93.28,66.99 L95.23,61.12 L96.41,55.06 L96.80,48.89 L96.40,42.73 L95.20,36.66 L93.23,30.81 L90.52,25.25 L87.12,20.09 L83.09,15.41 L78.48,11.29 L73.38,7.80 L67.88,4.99 L62.06,2.92 L65.93,8.68 L69.08,14.87 L71.44,21.40 L73.00,28.16 L73.71,35.07 L73.71,35.07 Z" fill="#0078d4" stroke="#1e1e1e" stroke-width="1" stroke-linejoin="round"/><path d="M73.68,63.40 L48.90,77.71 L49.29,96.77 L55.52,96.33 L61.65,95.09 L67.56,93.06 L73.16,90.28 L78.34,86.80 L83.03,82.67 L87.15,77.96 L90.61,72.76 L93.37,67.15 L95.37,61.23 L96.59,55.10 L97.00,48.86 L96.57,43.13 L95.43,37.49 L93.07,42.72 L90.16,47.66 L86.71,52.25 L82.79,56.44 L78.43,60.17 L73.68,63.40 L73.68,63.40 Z" fill="#5ea0ef" stroke="#1e1e1e" stroke-width="1" stroke-linejoin="round"/><path d="M48.90,77.71 L24.10,63.40 L7.66,73.26 L11.12,78.37 L15.21,82.99 L19.85,87.05 L24.98,90.48 L30.51,93.21 L36.35,95.21 L42.39,96.45 L48.55,96.89 L54.70,96.54 L60.77,95.40 L66.63,93.49 L72.20,90.83 L77.38,87.49 L82.09,83.50 L75.27,84.06 L68.42,83.75 L61.68,82.57 L55.14,80.55 L48.90,77.71 L48.90,77.71 Z" fill="#004482" stroke="#1e1e1e" stroke-width="1" stroke-linejoin="round"/><path d="M24.09,63.40 L24.46,29.45 L7.50,24.98 L4.69,30.60 L2.65,36.55 L1.41,42.72 L1.00,48.99 L1.43,55.24 L2.67,61.39 L4.70,67.31 L7.49,72.93 L10.97,78.13 L15.11,82.84 L19.82,86.97 L25.03,90.46 L30.64,93.24 L36.57,95.27 L33.13,90.60 L30.20,85.60 L27.81,80.32 L25.98,74.82 L24.74,69.16 L24.09,63.40 L24.09,63.40 Z" fill="#0078d4" stroke="#1e1e1e" stroke-width="1" stroke-linejoin="round"/><path d="M24.95,34.30 L48.90,20.45 L42.84,17.60 L36.48,15.47 L29.93,14.10 L23.25,13.50 L16.55,13.67 L12.60,17.74 L9.15,22.24 L6.26,27.13 L3.97,32.32 L2.32,37.75 L1.32,43.33 L1.00,48.99 L1.44,55.36 L2.72,61.62 L5.13,56.16 L8.11,50.98 L11.62,46.16 L15.63,41.73 L20.09,37.77 L24.95,34.30 L24.95,34.30 Z" fill="#5ea0ef" stroke="#1e1e1e" stroke-width="1" stroke-linejoin="round"/><path d="M73.68,63.40 L73.68,34.76 L48.88,20.45 L24.09,34.76 L24.09,63.40 L48.88,77.71 L73.68,63.40 Z" fill="#c3f1ff" stroke="#1e1e1e" stroke-width="1" stroke-linejoin="round"/><path d="M48.92,49.38 L48.92,77.71 L24.09,63.40 L24.09,34.86 L48.92,49.38 Z" fill="#89ecff" stroke="#1e1e1e" stroke-width="1" stroke-linejoin="round"/><path d="M48.88,49.38 L48.88,77.71 L73.71,63.40 L73.71,34.86 L48.88,49.38 Z" fill="#50e6ff" stroke="#1e1e1e" stroke-width="1" stroke-linejoin="round"/></svg>