<svg xmlns="http://www.w3.org/2000/svg" viewBox="8.98 0.67 78.05 94.67"><path d="M53.15,3.34 L14.57,3.34 L13.04,3.75 L11.92,4.87 L11.52,6.40 L11.52,89.60 L11.93,91.12 L13.04,92.24 L14.57,92.65 L81.43,92.65 L82.96,92.24 L84.07,91.12 L84.48,89.60 L84.48,34.53 L84.07,33.01 L82.96,31.89 L81.43,31.48 L59.24,31.48 L57.72,31.07 L56.61,29.96 L56.20,28.44 L56.20,6.40 L55.79,4.87 L54.68,3.76 L53.15,3.34 L53.15,3.34 Z" fill="#ffffff" stroke="#1e1e1e" stroke-width="1" stroke-linejoin="round"/><path d="M53.22,2.67 L14.07,2.67 L12.52,3.08 L11.39,4.22 L10.98,5.77 L10.98,90.23 L11.39,91.78 L12.52,92.92 L14.07,93.33 L81.93,93.33 L83.48,92.92 L84.61,91.78 L85.02,90.23 L85.02,34.33 L84.61,32.78 L83.48,31.65 L81.93,31.24 L59.40,31.24 L57.85,30.82 L56.72,29.69 L56.31,28.14 L56.31,5.77 L55.90,4.22 L54.76,3.08 L53.22,2.67 L53.22,2.67 Z" fill="#3a90e5" stroke="#1e1e1e" stroke-width="1" stroke-linejoin="round"/><path d="M51.73,7.24 L51.73,28.14 L52.11,30.51 L53.20,32.64 L54.89,34.34 L57.02,35.43 L59.39,35.81 L80.44,35.81 L80.44,88.76 L15.55,88.76 L15.55,7.24 L51.73,7.24 Z" fill="#ffffff" stroke="#1e1e1e" stroke-width="1" stroke-linejoin="round"/><path d="M83.84,31.85 L55.24,3.34 L55.24,26.57 L55.63,28.58 L56.76,30.29 L58.45,31.44 L60.46,31.85 L83.84,31.85 Z" fill="#0078d4" stroke="#1e1e1e" stroke-width="1" stroke-linejoin="round"/><path d="M24.74,27.90 L24.74,46.80 L25.10,47.77 L25.99,48.29 L27.01,48.12 L43.55,38.67 L44.22,37.87 L44.22,36.83 L43.55,36.03 L27.01,26.58 L25.99,26.41 L25.10,26.93 L24.74,27.90 Z" fill="#32bedd" stroke="#1e1e1e" stroke-width="1" stroke-linejoin="round"/><path d="M61.41,55.56 L62.02,55.64 L62.59,55.88 L63.08,56.26 L63.46,56.75 L63.70,57.32 L63.78,57.93 L63.78,58.47 L63.70,59.08 L63.46,59.65 L63.08,60.14 L62.59,60.52 L62.02,60.76 L61.41,60.84 L26.84,60.84 L26.22,60.76 L25.65,60.52 L25.16,60.14 L24.79,59.65 L24.55,59.08 L24.47,58.47 L24.47,57.93 L24.55,57.32 L24.79,56.75 L25.16,56.26 L25.65,55.88 L26.22,55.64 L26.84,55.56 L61.41,55.56 Z" fill="#5ea0ef" stroke="#5ea0ef" stroke-width="1" stroke-linejoin="round"/><path d="M61.41,65.01 L62.02,65.09 L62.59,65.33 L63.08,65.70 L63.46,66.19 L63.70,66.76 L63.78,67.38 L63.78,67.91 L63.70,68.53 L63.46,69.10 L63.08,69.59 L62.59,69.97 L62.02,70.20 L61.41,70.28 L26.84,70.28 L26.22,70.20 L25.65,69.97 L25.16,69.59 L24.79,69.10 L24.55,68.53 L24.47,67.91 L24.47,67.38 L24.55,66.76 L24.79,66.19 L25.16,65.70 L25.65,65.33 L26.22,65.09 L26.84,65.01 L61.41,65.01 Z" fill="#5ea0ef" stroke="#5ea0ef" stroke-width="1" stroke-linejoin="round"/><path d="M46.87,74.46 L47.49,74.54 L48.06,74.78 L48.55,75.15 L48.93,75.64 L49.16,76.21 L49.24,76.83 L49.24,77.37 L49.16,77.98 L48.93,78.55 L48.55,79.04 L48.06,79.42 L47.49,79.65 L46.87,79.73 L26.84,79.73 L26.22,79.65 L25.65,79.42 L25.16,79.04 L24.79,78.55 L24.55,77.98 L24.47,77.37 L24.47,76.83 L24.55,76.21 L24.79,75.64 L25.16,75.15 L25.65,74.78 L26.22,74.54 L26.84,74.46 L46.87,74.46 Z" fill="#5ea0ef" stroke="#5ea0ef" stroke-width="1" stroke-linejoin="round"/></svg>