<svg xmlns="http://www.w3.org/2000/svg" viewBox="9.62 0.82 82.40 100.00"><path d="M56.28,3.54 L15.42,3.54 L13.81,3.97 L12.63,5.16 L12.20,6.78 L12.20,94.87 L12.63,96.49 L13.81,97.67 L15.42,98.10 L86.22,98.10 L87.84,97.67 L89.02,96.49 L89.45,94.87 L89.45,36.56 L89.02,34.95 L87.84,33.77 L86.22,33.33 L62.73,33.33 L61.12,32.90 L59.94,31.72 L59.50,30.11 L59.50,6.78 L59.07,5.16 L57.89,3.98 L56.28,3.54 L56.28,3.54 Z" fill="#ffffff" stroke="#1e1e1e" stroke-width="1" stroke-linejoin="round"/><path d="M56.35,2.82 L14.90,2.82 L13.26,3.26 L12.06,4.47 L11.62,6.10 L11.62,95.54 L12.06,97.18 L13.26,98.38 L14.90,98.82 L86.75,98.82 L88.39,98.38 L89.59,97.18 L90.03,95.54 L90.03,36.35 L89.59,34.71 L88.39,33.51 L86.75,33.07 L62.90,33.07 L61.26,32.64 L60.06,31.43 L59.62,29.79 L59.62,6.10 L59.18,4.47 L57.98,3.26 L56.35,2.82 L56.35,2.82 Z" fill="#3a90e5" stroke="#1e1e1e" stroke-width="1" stroke-linejoin="round"/><path d="M54.78,7.66 L54.78,29.79 L55.17,32.30 L56.32,34.56 L58.12,36.36 L60.38,37.51 L62.89,37.91 L85.17,37.91 L85.17,93.98 L16.46,93.98 L16.46,7.66 L54.78,7.66 Z" fill="#ffffff" stroke="#1e1e1e" stroke-width="1" stroke-linejoin="round"/><path d="M88.77,33.72 L58.49,3.54 L58.49,28.13 L58.90,30.26 L60.10,32.07 L61.89,33.29 L64.02,33.72 L88.77,33.72 Z" fill="#0078d4" stroke="#1e1e1e" stroke-width="1" stroke-linejoin="round"/><path d="M26.20,29.54 L26.20,49.55 L26.57,50.58 L27.52,51.13 L28.60,50.95 L46.11,40.94 L46.82,40.10 L46.82,38.99 L46.11,38.15 L28.60,28.14 L27.52,27.96 L26.57,28.51 L26.20,29.54 Z" fill="#32bedd" stroke="#1e1e1e" stroke-width="1" stroke-linejoin="round"/><path d="M65.02,58.83 L65.67,58.92 L66.27,59.17 L66.79,59.57 L67.19,60.08 L67.44,60.69 L67.53,61.34 L67.53,61.91 L67.44,62.56 L67.19,63.16 L66.79,63.68 L66.27,64.08 L65.67,64.33 L65.02,64.42 L28.42,64.42 L27.77,64.33 L27.16,64.08 L26.64,63.68 L26.24,63.16 L25.99,62.56 L25.91,61.91 L25.91,61.34 L25.99,60.69 L26.24,60.08 L26.64,59.57 L27.16,59.17 L27.77,58.92 L28.42,58.83 L65.02,58.83 Z" fill="#5ea0ef" stroke="#5ea0ef" stroke-width="1" stroke-linejoin="round"/><path d="M65.02,68.83 L65.67,68.92 L66.27,69.17 L66.79,69.57 L67.19,70.09 L67.44,70.69 L67.53,71.34 L67.53,71.91 L67.44,72.56 L67.19,73.16 L66.79,73.68 L66.27,74.08 L65.67,74.33 L65.02,74.42 L28.42,74.42 L27.77,74.33 L27.16,74.08 L26.64,73.68 L26.24,73.16 L25.99,72.56 L25.91,71.91 L25.91,71.34 L25.99,70.69 L26.24,70.09 L26.64,69.57 L27.16,69.17 L27.77,68.92 L28.42,68.83 L65.02,68.83 Z" fill="#5ea0ef" stroke="#5ea0ef" stroke-width="1" stroke-linejoin="round"/><path d="M49.63,78.84 L50.28,78.92 L50.89,79.17 L51.40,79.57 L51.80,80.09 L52.05,80.70 L52.14,81.35 L52.14,81.92 L52.05,82.57 L51.80,83.17 L51.40,83.69 L50.89,84.09 L50.28,84.34 L49.63,84.42 L28.42,84.42 L27.77,84.34 L27.16,84.09 L26.64,83.69 L26.24,83.17 L25.99,82.57 L25.91,81.92 L25.91,81.35 L25.99,80.70 L26.24,80.09 L26.64,79.57 L27.16,79.17 L27.77,78.92 L28.42,78.84 L49.63,78.84 Z" fill="#5ea0ef" stroke="#5ea0ef" stroke-width="1" stroke-linejoin="round"/></svg>