<svg xmlns="http://www.w3.org/2000/svg" viewBox="8.98 0.67 78.05 94.67"><path d="M53.15,3.34 L14.57,3.34 L13.04,3.75 L11.92,4.87 L11.52,6.40 L11.52,89.60 L11.93,91.12 L13.04,92.24 L14.57,92.65 L81.43,92.65 L82.96,92.24 L84.07,91.12 L84.48,89.60 L84.48,34.53 L84.07,33.01 L82.96,31.89 L81.43,31.48 L59.24,31.48 L57.72,31.07 L56.61,29.96 L56.20,28.44 L56.20,6.40 L55.79,4.87 L54.68,3.76 L53.15,3.34 L53.15,3.34 Z" fill="#ffffff" stroke="#1e1e1e" stroke-width="1" stroke-linejoin="round"/><path d="M53.22,2.67 L14.07,2.67 L12.52,3.08 L11.39,4.22 L10.98,5.77 L10.98,90.23 L11.39,91.78 L12.52,92.92 L14.07,93.33 L81.93,93.33 L83.48,92.92 L84.61,91.78 L85.02,90.23 L85.02,34.33 L84.61,32.78 L83.48,31.65 L81.93,31.24 L59.40,31.24 L57.85,30.82 L56.72,29.69 L56.31,28.14 L56.31,5.77 L55.90,4.22 L54.76,3.08 L53.22,2.67 L53.22,2.67 Z" fill="#3a90e5" stroke="#1e1e1e" stroke-width="1" stroke-linejoin="round"/><path d="M51.73,7.24 L51.73,28.14 L52.11,30.51 L53.20,32.64 L54.89,34.34 L57.02,35.43 L59.39,35.81 L80.44,35.81 L80.44,88.76 L15.55,88.76 L15.55,7.24 L51.73,7.24 Z" fill="#ffffff" stroke="#1e1e1e" stroke-width="1" stroke-linejoin="round"/><path d="M83.84,31.85 L55.24,3.34 L55.24,26.57 L55.63,28.58 L56.76,30.29 L58.45,31.44 L60.46,31.85 L83.84,31.85 Z" fill="#0078d4" stroke="#1e1e1e" stroke-width="1" stroke-linejoin="round"/><path d="M24.74,27.90 L24.74,46.80 L25.10,47.77 L25.99,48.29 L27.01,48.12 L43.55,38.67 L44.22,37.87 L44.22,36.83 L43.55,36.03 L27.01,26.58 L25.99,26.41 L25.10,26.93 L24.74,27.90 Z" fill="#32bedd" stroke="#1e1e1e" stroke-width="1" stroke-linejoin="round"/><rect x="24.47" y="55.56" width="39.31" height="5.27" fill="#5ea0ef" stroke="#5ea0ef" stroke-width="1"/><rect x="24.47" y="65.01" width="39.31" height="5.27" fill="#5ea0ef" stroke="#5ea0ef" stroke-width="1"/><rect x="24.47" y="74.46" width="24.77" height="5.27" fill="#5ea0ef" stroke="#5ea0ef" stroke-width="1"/></svg>