<svg xmlns="http://www.w3.org/2000/svg" viewBox="0.14 1.84 100.00 97.20"><path d="M69.02,38.66 L69.02,61.22 L49.53,72.53 L49.53,49.97 L69.02,38.66 Z" fill="#b854f0" stroke="#1e1e1e" stroke-width="1" stroke-linejoin="round"/><path d="M69.02,38.66 L49.53,49.97 L30.03,38.66 L49.53,27.30 L69.02,38.66 Z" fill="#5bb4f5" stroke="#1e1e1e" stroke-width="1" stroke-linejoin="round"/><path d="M49.53,49.97 L49.53,72.53 L30.03,61.22 L30.03,38.66 L49.53,49.97 Z" fill="#ffb945" stroke="#1e1e1e" stroke-width="1" stroke-linejoin="round"/><path d="M50.92,75.88 L45.05,73.28 L39.22,70.31 L32.84,66.60 L26.87,62.60 L21.37,58.38 L16.43,53.98 L19.61,50.70 L24.33,54.89 L29.58,58.91 L35.29,62.73 L41.39,66.29 L47.02,69.14 L52.65,71.64 L50.92,75.88 Z" fill="#8c8c8c" stroke="#1e1e1e" stroke-width="1" stroke-linejoin="round"/><path d="M86.57,50.03 L90.97,44.85 L93.37,41.43 L95.28,38.14 L96.72,34.99 L97.67,32.00 L98.14,29.19 L98.12,26.58 L97.61,24.17 L96.60,22.01 L95.11,20.13 L93.19,18.59 L90.86,17.41 L88.13,16.57 L85.03,16.09 L81.57,15.97 L77.77,16.22 L73.65,16.82 L67.94,18.16 L61.96,20.06 L55.80,22.47 L49.53,25.35 L43.33,23.01 L37.27,21.17 L38.62,18.32 L40.08,15.80 L41.62,13.63 L43.23,11.81 L44.89,10.37 L46.59,9.32 L48.31,8.68 L50.03,8.47 L51.98,8.73 L53.90,9.51 L55.78,10.82 L57.60,12.65 L61.06,9.58 L58.50,7.11 L55.77,5.31 L54.36,4.68 L52.93,4.22 L51.49,3.94 L50.03,3.84 L47.45,4.13 L44.97,4.97 L42.59,6.34 L40.33,8.21 L38.21,10.54 L36.24,13.32 L34.43,16.50 L32.81,20.06 L26.63,19.00 L22.67,18.73 L19.04,18.80 L15.74,19.20 L12.80,19.93 L10.23,20.98 L8.05,22.33 L6.27,24.00 L4.90,25.96 L4.28,27.31 L3.84,28.74 L3.58,30.23 L3.52,31.79 L3.63,33.40 L3.93,35.08 L5.06,38.57 L6.89,42.24 L9.41,46.05 L12.62,49.98 L16.49,53.98 L19.67,50.70 L16.42,47.35 L13.68,44.08 L11.47,40.92 L9.80,37.91 L8.69,35.09 L8.16,32.49 L8.23,30.16 L8.49,29.11 L8.91,28.13 L9.88,26.79 L11.23,25.66 L12.93,24.75 L14.97,24.05 L17.33,23.58 L19.99,23.34 L22.93,23.33 L26.13,23.56 L28.62,23.95 L31.20,24.46 L29.60,30.28 L28.43,36.61 L27.71,43.36 L27.46,50.47 L27.77,58.26 L28.65,65.60 L30.05,72.39 L31.92,78.55 L27.73,79.65 L23.76,80.43 L20.06,80.86 L16.69,80.92 L13.72,80.59 L11.18,79.84 L10.10,79.30 L9.16,78.65 L8.35,77.88 L7.69,76.99 L7.09,75.68 L6.79,74.20 L6.78,72.54 L7.07,70.72 L7.65,68.75 L8.51,66.64 L9.66,64.41 L11.09,62.06 L7.24,59.55 L5.45,62.52 L4.04,65.37 L3.02,68.09 L2.38,70.66 L2.14,73.09 L2.29,75.35 L2.84,77.46 L3.79,79.39 L4.85,80.81 L6.15,82.03 L7.67,83.06 L9.40,83.89 L11.34,84.53 L13.47,84.99 L15.79,85.26 L18.27,85.35 L21.79,85.18 L25.55,84.70 L29.53,83.91 L33.70,82.84 L35.31,85.98 L37.06,88.77 L38.95,91.20 L40.97,93.24 L43.11,94.87 L45.35,96.06 L47.67,96.80 L50.08,97.05 L52.02,96.88 L53.92,96.40 L55.75,95.62 L57.53,94.54 L59.24,93.18 L60.87,91.55 L62.42,89.67 L63.89,87.54 L65.27,85.18 L66.55,82.61 L67.72,79.83 L68.78,76.86 L70.55,70.38 L71.81,63.29 L77.97,58.36 L83.51,53.31 L85.68,55.82 L87.62,58.37 L89.21,60.84 L90.46,63.20 L91.35,65.44 L91.88,67.53 L92.04,69.46 L91.83,71.21 L91.25,72.76 L90.50,73.84 L89.49,74.80 L88.24,75.62 L86.77,76.31 L85.07,76.85 L83.17,77.25 L81.06,77.50 L78.77,77.60 L78.77,82.17 L81.76,82.05 L84.50,81.71 L86.98,81.13 L89.20,80.33 L91.15,79.30 L92.82,78.06 L94.21,76.60 L95.32,74.93 L96.22,72.72 L96.64,70.32 L96.58,67.76 L96.05,65.03 L95.05,62.17 L93.59,59.19 L91.67,56.10 L89.30,52.92 L86.79,50.03 L86.57,50.03 Z" fill="#8c8c8c" stroke="#8c8c8c" stroke-width="1" stroke-linejoin="round"/><path d="M74.48,21.28 L77.84,20.77 L80.93,20.51 L83.73,20.52 L86.22,20.79 L88.39,21.32 L90.20,22.10 L91.64,23.12 L92.70,24.40 L93.36,25.91 L93.63,27.65 L93.51,29.62 L93.01,31.79 L92.14,34.14 L90.91,36.65 L89.31,39.29 L87.35,42.06 L85.48,44.40 L83.40,46.74 L78.53,42.41 L73.09,38.24 L67.15,34.28 L60.78,30.58 L55.04,27.80 L60.11,25.64 L65.08,23.81 L69.89,22.34 L74.48,21.28 L74.48,21.28 Z" fill="#ffffff" stroke="#ffffff" stroke-width="1" stroke-linejoin="round"/><path d="M44.12,28.13 L38.27,31.48 L33.31,34.82 L34.35,29.91 L35.60,25.46 L39.82,26.67 L44.12,28.13 L44.12,28.13 Z" fill="#ffffff" stroke="#ffffff" stroke-width="1" stroke-linejoin="round"/><path d="M31.98,50.47 L32.10,45.58 L32.48,40.95 L36.52,38.12 L40.72,35.38 L45.23,32.74 L49.69,30.31 L54.15,32.35 L58.61,34.65 L63.11,37.23 L67.41,39.94 L67.86,45.15 L68.02,50.47 L67.87,55.75 L67.46,60.78 L63.65,63.44 L59.66,66.02 L53.97,69.31 L48.09,72.30 L42.15,74.93 L36.27,77.16 L34.52,71.51 L33.19,65.15 L32.33,58.12 L32.03,50.47 L31.98,50.47 Z" fill="#5bb4f5" stroke="#5bb4f5" stroke-width="1" stroke-linejoin="round"/><path d="M49.97,92.48 L48.38,92.29 L46.79,91.74 L45.22,90.84 L43.67,89.60 L42.16,88.04 L40.70,86.16 L39.31,83.97 L37.99,81.50 L43.78,79.30 L49.75,76.63 L55.84,73.50 L62.00,69.92 L66.46,67.02 L65.17,72.62 L63.56,77.62 L61.68,81.98 L59.57,85.64 L57.30,88.56 L54.91,90.71 L53.68,91.47 L52.45,92.03 L51.21,92.36 L49.97,92.48 L49.97,92.48 Z" fill="#ffffff" stroke="#ffffff" stroke-width="1" stroke-linejoin="round"/><path d="M72.31,43.45 L76.43,46.73 L80.22,50.08 L76.46,53.59 L72.37,57.05 L72.59,50.47 L72.31,43.45 L72.31,43.45 Z" fill="#ffffff" stroke="#ffffff" stroke-width="1" stroke-linejoin="round"/><path d="M9.92,53.87 L8.67,53.91 L7.50,54.19 L6.42,54.67 L5.47,55.35 L4.66,56.20 L4.03,57.20 L3.60,58.32 L3.40,59.55 L3.44,60.80 L3.71,61.97 L4.20,63.05 L4.88,64.00 L5.73,64.81 L6.73,65.44 L7.85,65.87 L9.08,66.07 L10.33,66.03 L11.50,65.76 L12.58,65.27 L13.53,64.59 L14.33,63.74 L14.96,62.74 L15.39,61.62 L15.60,60.39 L15.56,59.14 L15.28,57.97 L14.79,56.89 L14.12,55.94 L13.27,55.14 L12.27,54.51 L11.15,54.08 L9.92,53.87 L9.92,53.87 Z" fill="#119fc5" stroke="#119fc5" stroke-width="1" stroke-linejoin="round"/><path d="M59.44,4.35 L58.20,4.47 L57.05,4.82 L56.01,5.39 L55.10,6.13 L54.36,7.04 L53.79,8.08 L53.44,9.23 L53.31,10.47 L53.44,11.71 L53.79,12.86 L54.36,13.91 L55.10,14.81 L56.01,15.56 L57.05,16.12 L58.20,16.48 L59.44,16.60 L60.68,16.48 L61.83,16.12 L62.87,15.56 L63.78,14.81 L64.53,13.91 L65.09,12.86 L65.45,11.71 L65.57,10.47 L65.45,9.23 L65.09,8.08 L64.53,7.04 L63.78,6.13 L62.87,5.39 L61.83,4.82 L60.68,4.47 L59.44,4.35 L59.44,4.35 Z" fill="#119fc5" stroke="#119fc5" stroke-width="1" stroke-linejoin="round"/><path d="M79.66,74.04 L78.43,74.16 L77.27,74.52 L76.23,75.08 L75.33,75.83 L74.58,76.73 L74.02,77.77 L73.66,78.93 L73.54,80.17 L73.66,81.40 L74.02,82.56 L74.58,83.60 L75.33,84.50 L76.23,85.25 L77.27,85.81 L78.43,86.17 L79.66,86.29 L80.90,86.17 L82.06,85.81 L83.10,85.25 L84.00,84.50 L84.75,83.60 L85.31,82.56 L85.67,81.40 L85.79,80.17 L85.67,78.93 L85.31,77.77 L84.75,76.73 L84.00,75.83 L83.10,75.08 L82.06,74.52 L80.90,74.16 L79.66,74.04 Z" fill="#119fc5" stroke="#119fc5" stroke-width="1" stroke-linejoin="round"/></svg>