<svg xmlns="http://www.w3.org/2000/svg" viewBox="0.05 1.68 95.91 93.23"><path d="M66.08,37.01 L66.08,58.61 L47.41,69.44 L47.41,47.84 L66.08,37.01 Z" fill="#b854f0" stroke="#1e1e1e" stroke-width="1" stroke-linejoin="round"/><path d="M66.08,37.01 L47.41,47.84 L28.75,37.01 L47.41,26.13 L66.08,37.01 Z" fill="#5bb4f5" stroke="#1e1e1e" stroke-width="1" stroke-linejoin="round"/><path d="M47.41,47.84 L47.41,69.44 L28.75,58.61 L28.75,37.01 L47.41,47.84 Z" fill="#ffb945" stroke="#1e1e1e" stroke-width="1" stroke-linejoin="round"/><path d="M48.75,72.64 L43.13,70.15 L37.55,67.31 L31.44,63.75 L25.72,59.93 L20.46,55.89 L15.73,51.68 L18.77,48.53 L23.29,52.55 L28.32,56.40 L33.79,60.05 L39.63,63.47 L45.01,66.19 L50.40,68.59 L48.75,72.64 Z" fill="#8c8c8c" stroke="#1e1e1e" stroke-width="1" stroke-linejoin="round"/><path d="M82.88,47.89 L87.09,42.93 L89.39,39.67 L91.22,36.52 L92.59,33.50 L93.51,30.64 L93.95,27.95 L93.93,25.44 L93.44,23.14 L92.48,21.07 L91.05,19.27 L89.21,17.80 L86.98,16.67 L84.37,15.87 L81.41,15.41 L78.09,15.29 L74.46,15.52 L70.51,16.11 L65.04,17.39 L59.32,19.21 L53.42,21.51 L47.41,24.27 L41.49,22.03 L35.68,20.27 L36.97,17.54 L38.37,15.13 L39.84,13.04 L41.39,11.31 L42.98,9.93 L44.60,8.93 L46.25,8.31 L47.89,8.11 L49.76,8.36 L51.60,9.11 L53.40,10.36 L55.15,12.11 L58.45,9.17 L56.00,6.81 L53.39,5.09 L52.05,4.48 L50.68,4.04 L49.29,3.77 L47.89,3.68 L45.43,3.96 L43.05,4.76 L40.78,6.07 L38.61,7.86 L36.58,10.09 L34.69,12.75 L32.97,15.79 L31.41,19.20 L25.49,18.19 L21.70,17.93 L18.22,18.00 L15.07,18.38 L12.25,19.08 L9.79,20.08 L7.70,21.38 L6.00,22.97 L4.69,24.85 L4.09,26.15 L3.67,27.51 L3.43,28.94 L3.37,30.43 L3.48,31.98 L3.76,33.58 L4.84,36.93 L6.60,40.44 L9.01,44.09 L12.08,47.85 L15.79,51.68 L18.83,48.53 L15.72,45.33 L13.10,42.20 L10.98,39.18 L9.38,36.29 L8.32,33.59 L7.81,31.10 L7.88,28.87 L8.13,27.86 L8.53,26.93 L9.46,25.65 L10.75,24.57 L12.38,23.69 L14.33,23.03 L16.59,22.58 L19.14,22.34 L21.95,22.34 L25.01,22.56 L27.40,22.93 L29.87,23.41 L28.34,28.99 L27.22,35.05 L26.53,41.51 L26.29,48.32 L26.58,55.78 L27.43,62.80 L28.77,69.31 L30.56,75.20 L26.55,76.25 L22.74,77.00 L19.20,77.41 L15.98,77.47 L13.13,77.16 L10.71,76.44 L9.67,75.92 L8.77,75.30 L7.99,74.56 L7.36,73.71 L6.78,72.46 L6.50,71.03 L6.49,69.44 L6.77,67.70 L7.32,65.82 L8.15,63.80 L9.25,61.66 L10.61,59.41 L6.93,57.01 L5.22,59.86 L3.87,62.58 L2.89,65.18 L2.28,67.65 L2.05,69.97 L2.19,72.14 L2.72,74.15 L3.63,76.00 L4.64,77.36 L5.88,78.53 L7.34,79.52 L9.00,80.31 L10.86,80.93 L12.90,81.36 L15.11,81.62 L17.49,81.71 L20.86,81.55 L24.46,81.09 L28.27,80.33 L32.27,79.31 L33.80,82.31 L35.48,84.99 L37.29,87.31 L39.23,89.27 L41.27,90.83 L43.41,91.97 L45.64,92.67 L47.95,92.91 L49.81,92.75 L51.62,92.29 L53.37,91.54 L55.07,90.50 L56.71,89.20 L58.27,87.64 L59.76,85.84 L61.17,83.81 L62.48,81.55 L63.71,79.09 L64.83,76.43 L65.85,73.58 L67.54,67.38 L68.75,60.59 L74.65,55.87 L79.95,51.04 L82.03,53.44 L83.88,55.88 L85.41,58.25 L86.60,60.51 L87.45,62.65 L87.96,64.65 L88.12,66.50 L87.92,68.17 L87.36,69.65 L86.64,70.69 L85.67,71.61 L84.48,72.40 L83.07,73.05 L81.44,73.58 L79.62,73.96 L77.61,74.20 L75.41,74.29 L75.41,78.67 L78.27,78.55 L80.90,78.22 L83.27,77.67 L85.39,76.90 L87.26,75.92 L88.86,74.73 L90.19,73.33 L91.25,71.73 L92.12,69.62 L92.52,67.32 L92.46,64.87 L91.95,62.26 L91.00,59.52 L89.60,56.67 L87.76,53.71 L85.49,50.67 L83.09,47.89 L82.88,47.89 Z" fill="#8c8c8c" stroke="#8c8c8c" stroke-width="1" stroke-linejoin="round"/><path d="M71.31,20.37 L74.52,19.88 L77.48,19.64 L80.16,19.65 L82.55,19.91 L84.62,20.41 L86.35,21.15 L87.73,22.14 L88.75,23.36 L89.38,24.80 L89.63,26.47 L89.52,28.36 L89.05,30.43 L88.21,32.68 L87.03,35.08 L85.50,37.62 L83.63,40.27 L81.83,42.51 L79.84,44.75 L75.18,40.61 L69.97,36.61 L64.28,32.82 L58.19,29.28 L52.69,26.61 L57.54,24.55 L62.30,22.79 L66.91,21.39 L71.31,20.37 L71.31,20.37 Z" fill="#ffffff" stroke="#ffffff" stroke-width="1" stroke-linejoin="round"/><path d="M42.24,26.93 L36.64,30.13 L31.89,33.33 L32.89,28.63 L34.08,24.37 L38.12,25.53 L42.24,26.93 L42.24,26.93 Z" fill="#ffffff" stroke="#ffffff" stroke-width="1" stroke-linejoin="round"/><path d="M30.61,48.32 L30.73,43.64 L31.09,39.20 L34.96,36.49 L38.99,33.87 L43.30,31.34 L47.57,29.01 L51.84,30.97 L56.11,33.17 L60.42,35.65 L64.53,38.24 L64.97,43.22 L65.12,48.32 L64.97,53.37 L64.59,58.19 L60.93,60.73 L57.12,63.20 L51.67,66.35 L46.04,69.21 L40.35,71.73 L34.72,73.87 L33.05,68.46 L31.77,62.37 L30.95,55.64 L30.67,48.32 L30.61,48.32 Z" fill="#5bb4f5" stroke="#5bb4f5" stroke-width="1" stroke-linejoin="round"/><path d="M47.84,88.53 L46.32,88.36 L44.80,87.83 L43.29,86.97 L41.81,85.78 L40.36,84.28 L38.97,82.48 L37.63,80.39 L36.37,78.03 L41.91,75.92 L47.63,73.36 L53.46,70.36 L59.36,66.93 L63.63,64.16 L62.39,69.53 L60.85,74.31 L59.05,78.48 L57.03,81.99 L54.86,84.79 L52.56,86.84 L51.39,87.57 L50.21,88.10 L49.02,88.42 L47.84,88.53 L47.84,88.53 Z" fill="#ffffff" stroke="#ffffff" stroke-width="1" stroke-linejoin="round"/><path d="M69.23,41.60 L73.17,44.73 L76.80,47.95 L73.20,51.30 L69.28,54.61 L69.49,48.32 L69.23,41.60 L69.23,41.60 Z" fill="#ffffff" stroke="#ffffff" stroke-width="1" stroke-linejoin="round"/><path d="M9.49,51.57 L8.30,51.61 L7.18,51.88 L6.15,52.34 L5.23,52.99 L4.46,53.81 L3.86,54.76 L3.45,55.84 L3.25,57.01 L3.29,58.21 L3.56,59.33 L4.02,60.36 L4.67,61.27 L5.49,62.04 L6.44,62.65 L7.52,63.06 L8.69,63.25 L9.89,63.21 L11.01,62.95 L12.04,62.48 L12.95,61.83 L13.72,61.02 L14.33,60.07 L14.74,58.99 L14.93,57.81 L14.89,56.62 L14.63,55.50 L14.16,54.47 L13.51,53.55 L12.70,52.78 L11.75,52.18 L10.67,51.77 L9.49,51.57 L9.49,51.57 Z" fill="#119fc5" stroke="#119fc5" stroke-width="1" stroke-linejoin="round"/><path d="M56.91,4.16 L55.72,4.28 L54.62,4.62 L53.62,5.16 L52.75,5.87 L52.04,6.74 L51.50,7.74 L51.16,8.84 L51.04,10.03 L51.16,11.21 L51.50,12.32 L52.04,13.31 L52.75,14.18 L53.62,14.89 L54.62,15.43 L55.72,15.77 L56.91,15.89 L58.09,15.77 L59.20,15.43 L60.19,14.89 L61.06,14.18 L61.77,13.31 L62.31,12.32 L62.65,11.21 L62.77,10.03 L62.65,8.84 L62.31,7.74 L61.77,6.74 L61.06,5.87 L60.19,5.16 L59.20,4.62 L58.09,4.28 L56.91,4.16 L56.91,4.16 Z" fill="#119fc5" stroke="#119fc5" stroke-width="1" stroke-linejoin="round"/><path d="M76.27,70.88 L75.08,71.00 L73.98,71.34 L72.98,71.88 L72.11,72.59 L71.40,73.46 L70.86,74.46 L70.52,75.56 L70.40,76.75 L70.52,77.93 L70.86,79.04 L71.40,80.03 L72.11,80.90 L72.98,81.61 L73.98,82.15 L75.08,82.49 L76.27,82.61 L77.45,82.49 L78.56,82.15 L79.55,81.61 L80.42,80.90 L81.13,80.03 L81.67,79.04 L82.01,77.93 L82.13,76.75 L82.01,75.56 L81.67,74.46 L81.13,73.46 L80.42,72.59 L79.55,71.88 L78.56,71.34 L77.45,71.00 L76.27,70.88 Z" fill="#119fc5" stroke="#119fc5" stroke-width="1" stroke-linejoin="round"/></svg>