<svg xmlns="http://www.w3.org/2000/svg" viewBox="17.26 -2.00 61.48 100.00"><rect x="19.26" y="0.00" width="57.48" height="96.00" fill="#4595e7" stroke="#1e1e1e" stroke-width="1"/><rect x="41.38" y="3.22" width="13.24" height="1.78" fill="#f2f2f2" stroke="#f2f2f2" stroke-width="1"/><rect x="24.66" y="8.12" width="46.69" height="77.13" fill="#e1f5fe" stroke="#1e1e1e" stroke-width="1" opacity="0.9"/><rect x="44.79" y="88.43" width="6.42" height="5.48" fill="#f2f2f2" stroke="#f2f2f2" stroke-width="1"/><path d="M60.80,15.42 L60.80,34.54 L60.50,35.26 L59.77,35.56 L51.77,35.56 L51.59,35.64 L51.52,35.81 L51.52,38.90 L51.24,39.34 L50.71,39.29 L45.91,35.62 L45.84,35.58 L45.76,35.56 L31.86,35.56 L31.13,35.26 L30.83,34.54 L30.83,15.42 L31.13,14.70 L31.86,14.40 L59.79,14.40 L60.50,14.70 L60.80,15.42 L60.80,15.42 Z" fill="#5ea0ef" stroke="#1e1e1e" stroke-width="1" stroke-linejoin="round"/><rect x="30.76" y="52.69" width="8.98" height="25.50" fill="#5ea0ef" stroke="#5ea0ef" stroke-width="1"/><rect x="44.08" y="46.97" width="8.98" height="31.23" fill="#0078d4" stroke="#0078d4" stroke-width="1"/><rect x="57.39" y="42.28" width="8.98" height="35.91" fill="#005ba1" stroke="#1e1e1e" stroke-width="1"/></svg>