<svg xmlns="http://www.w3.org/2000/svg" viewBox="4.00 4.00 100.00 100.00"><path d="M98.80,6.00 L99.63,6.11 L100.40,6.43 L101.06,6.94 L101.57,7.60 L101.89,8.37 L102.00,9.20 L102.00,98.80 L101.89,99.63 L101.57,100.40 L101.06,101.06 L100.40,101.57 L99.63,101.89 L98.80,102.00 L9.20,102.00 L8.37,101.89 L7.60,101.57 L6.94,101.06 L6.43,100.40 L6.11,99.63 L6.00,98.80 L6.00,9.20 L6.11,8.37 L6.43,7.60 L6.94,6.94 L7.60,6.43 L8.37,6.11 L9.20,6.00 L98.80,6.00 Z" fill="#3d91e5" stroke="#1e1e1e" stroke-width="1" stroke-linejoin="round"/><path d="M35.03,16.66 L35.25,16.69 L35.45,16.77 L35.62,16.91 L35.76,17.08 L35.84,17.28 L35.87,17.50 L35.87,36.03 L35.84,36.25 L35.76,36.45 L35.62,36.62 L35.45,36.76 L35.25,36.84 L35.03,36.87 L15.01,36.87 L14.79,36.84 L14.59,36.76 L14.41,36.62 L14.28,36.45 L14.19,36.25 L14.17,36.03 L14.17,17.50 L14.19,17.28 L14.28,17.08 L14.41,16.91 L14.59,16.77 L14.79,16.69 L15.01,16.66 L35.03,16.66 Z" fill="#ffffff" stroke="#1e1e1e" stroke-width="1" stroke-linejoin="round" opacity="0.95"/><path d="M64.01,16.66 L64.23,16.69 L64.43,16.77 L64.61,16.91 L64.74,17.08 L64.83,17.28 L64.85,17.50 L64.85,36.03 L64.83,36.25 L64.74,36.45 L64.61,36.62 L64.43,36.76 L64.23,36.84 L64.01,36.87 L43.99,36.87 L43.77,36.84 L43.57,36.76 L43.40,36.62 L43.26,36.45 L43.18,36.25 L43.15,36.03 L43.15,17.50 L43.18,17.28 L43.26,17.08 L43.40,16.91 L43.57,16.77 L43.77,16.69 L43.99,16.66 L64.01,16.66 Z" fill="#ffffff" stroke="#1e1e1e" stroke-width="1" stroke-linejoin="round" opacity="0.95"/><path d="M93.00,16.66 L93.22,16.69 L93.42,16.77 L93.59,16.91 L93.73,17.08 L93.81,17.28 L93.84,17.50 L93.84,36.03 L93.81,36.25 L93.73,36.45 L93.59,36.62 L93.42,36.76 L93.22,36.84 L93.00,36.87 L72.98,36.87 L72.76,36.84 L72.56,36.76 L72.38,36.62 L72.25,36.45 L72.17,36.25 L72.14,36.03 L72.14,17.50 L72.17,17.28 L72.25,17.08 L72.38,16.91 L72.56,16.77 L72.76,16.69 L72.98,16.66 L93.00,16.66 Z" fill="#ffffff" stroke="#1e1e1e" stroke-width="1" stroke-linejoin="round" opacity="0.95"/><path d="M63.69,43.68 L63.91,43.71 L64.11,43.79 L64.28,43.93 L64.42,44.10 L64.50,44.30 L64.53,44.52 L64.53,63.05 L64.50,63.27 L64.42,63.47 L64.28,63.64 L64.11,63.78 L63.91,63.86 L63.69,63.89 L15.01,63.89 L14.79,63.86 L14.59,63.78 L14.41,63.64 L14.28,63.47 L14.19,63.27 L14.17,63.05 L14.17,44.52 L14.19,44.30 L14.28,44.10 L14.41,43.93 L14.59,43.79 L14.79,43.71 L15.01,43.68 L63.69,43.68 Z" fill="#ffffff" stroke="#1e1e1e" stroke-width="1" stroke-linejoin="round" opacity="0.45"/><path d="M92.92,43.68 L93.13,43.71 L93.34,43.79 L93.51,43.93 L93.64,44.10 L93.73,44.30 L93.76,44.52 L93.76,63.05 L93.73,63.27 L93.64,63.47 L93.51,63.64 L93.34,63.78 L93.13,63.86 L92.92,63.89 L72.89,63.89 L72.68,63.86 L72.47,63.78 L72.30,63.64 L72.17,63.47 L72.08,63.27 L72.05,63.05 L72.05,44.52 L72.08,44.30 L72.17,44.10 L72.30,43.93 L72.47,43.79 L72.68,43.71 L72.89,43.68 L92.92,43.68 Z" fill="#ffffff" stroke="#1e1e1e" stroke-width="1" stroke-linejoin="round" opacity="0.9"/><path d="M92.44,71.12 L92.66,71.15 L92.86,71.24 L93.04,71.37 L93.17,71.54 L93.25,71.75 L93.28,71.96 L93.28,90.49 L93.25,90.71 L93.17,90.91 L93.04,91.09 L92.86,91.22 L92.66,91.30 L92.44,91.33 L15.01,91.33 L14.79,91.30 L14.59,91.22 L14.41,91.09 L14.28,90.91 L14.19,90.71 L14.17,90.49 L14.17,71.96 L14.19,71.75 L14.28,71.54 L14.41,71.37 L14.59,71.24 L14.79,71.15 L15.01,71.12 L92.44,71.12 Z" fill="#ffffff" stroke="#1e1e1e" stroke-width="1" stroke-linejoin="round" opacity="0.75"/></svg>