<svg xmlns="http://www.w3.org/2000/svg" viewBox="-2.00 -2.00 100.00 100.00"><ellipse cx="48.00" cy="48.00" rx="48.00" ry="48.00" fill="#8e5ae8" stroke="#1e1e1e" stroke-width="1"/><path d="M60.72,82.54 L60.87,83.22 L60.41,83.73 L55.08,85.15 L49.60,85.78 L44.09,85.61 L38.66,84.65 L33.43,82.90 L28.51,80.41 L24.01,77.23 L20.01,73.42 L16.61,69.08 L16.54,68.40 L17.07,67.95 L19.09,67.21 L20.94,66.10 L21.52,65.96 L22.01,66.29 L25.22,70.17 L29.01,73.50 L33.27,76.18 L37.90,78.16 L42.79,79.38 L47.81,79.82 L52.84,79.46 L57.74,78.30 L58.31,78.34 L58.68,78.76 L59.52,80.75 L60.72,82.54 L60.72,82.54 Z" fill="#ffffff" stroke="#1e1e1e" stroke-width="1" stroke-linejoin="round"/><path d="M48.00,10.18 L42.38,10.61 L36.88,11.87 L31.63,13.92 L26.75,16.74 L22.33,20.25 L18.49,24.38 L15.30,29.03 L12.84,34.10 L11.16,39.48 L10.30,45.06 L10.58,45.68 L11.25,45.82 L12.70,45.54 L14.18,45.44 L14.85,45.46 L15.52,45.52 L16.07,45.35 L16.33,44.84 L17.27,39.73 L19.03,34.85 L21.56,30.31 L24.80,26.24 L28.65,22.76 L33.02,19.94 L37.78,17.88 L42.82,16.61 L48.00,16.18 L48.93,16.18 L48.90,15.35 L49.10,13.24 L49.68,11.20 L49.61,10.51 L49.00,10.18 L48.00,10.18 Z" fill="#ffffff" stroke="#1e1e1e" stroke-width="1" stroke-linejoin="round"/><path d="M71.07,19.33 L70.13,21.27 L68.85,23.01 L68.66,23.56 L68.93,24.07 L72.39,27.59 L75.25,31.61 L77.47,36.01 L78.97,40.71 L79.73,45.58 L79.73,50.51 L78.96,55.39 L77.45,60.08 L75.23,64.49 L75.13,65.04 L75.46,65.50 L77.20,66.79 L78.66,68.38 L79.28,68.68 L79.89,68.35 L82.48,63.56 L84.36,58.44 L85.48,53.11 L85.83,47.67 L85.38,42.24 L84.17,36.93 L82.19,31.85 L79.51,27.11 L76.18,22.80 L72.26,19.02 L71.58,18.86 L71.07,19.33 L71.07,19.33 Z" fill="#ffffff" stroke="#1e1e1e" stroke-width="1" stroke-linejoin="round"/><ellipse cx="48.00" cy="48.82" rx="34.82" ry="34.82" fill="#b796f9" stroke="#1e1e1e" stroke-width="1" opacity="0.6"/><path d="M69.53,15.33 L69.53,15.96 L68.97,18.55 L67.70,20.87 L65.83,22.73 L63.50,23.98 L60.92,24.52 L58.28,24.30 L55.82,23.33 L53.74,21.71 L52.20,19.56 L51.34,17.06 L51.21,16.20 L51.17,15.33 L51.49,12.70 L52.55,10.26 L54.27,8.23 L56.49,6.78 L59.03,6.02 L61.69,6.02 L64.23,6.78 L66.45,8.23 L68.17,10.26 L69.23,12.70 L69.55,15.33 L69.53,15.33 Z" fill="#b0eeff" stroke="#1e1e1e" stroke-width="1" stroke-linejoin="round"/><path d="M78.71,75.20 L78.32,77.89 L77.16,80.34 L75.33,82.35 L72.99,83.73 L70.35,84.37 L67.64,84.22 L65.10,83.28 L62.93,81.63 L61.35,79.43 L60.47,76.86 L60.39,74.15 L61.10,71.53 L62.54,69.23 L64.60,67.45 L67.08,66.35 L69.78,66.03 L72.45,66.50 L74.87,67.74 L76.82,69.62 L78.13,72.00 L78.57,73.57 L78.71,75.20 L78.71,75.20 Z" fill="#b0eeff" stroke="#1e1e1e" stroke-width="1" stroke-linejoin="round"/><path d="M23.37,56.84 L23.06,59.22 L22.14,61.43 L20.68,63.33 L18.78,64.79 L16.56,65.71 L14.18,66.02 L13.93,66.02 L11.35,65.61 L8.99,64.50 L7.03,62.76 L5.65,60.54 L4.95,58.02 L4.98,55.41 L5.75,52.91 L7.20,50.73 L9.20,49.04 L11.59,47.99 L14.18,47.65 L15.57,47.76 L16.93,48.06 L19.04,49.03 L20.84,50.50 L22.21,52.38 L23.08,54.53 L23.37,56.84 L23.37,56.84 Z" fill="#b0eeff" stroke="#1e1e1e" stroke-width="1" stroke-linejoin="round"/><ellipse cx="48.00" cy="47.96" rx="18.06" ry="18.06" fill="#b0eeff" stroke="#1e1e1e" stroke-width="1"/></svg>