<svg xmlns="http://www.w3.org/2000/svg" viewBox="0.67 9.55 94.67 76.90"><path d="M2.67,30.87 L93.33,30.87 L93.33,30.87 L93.33,81.42 L92.93,82.93 L91.82,84.04 L90.30,84.45 L5.70,84.45 L4.18,84.04 L3.07,82.93 L2.67,81.42 L2.67,30.87 L2.67,30.87 Z" fill="#32d2f3" stroke="#1e1e1e" stroke-width="1" stroke-linejoin="round"/><path d="M5.71,11.55 L90.29,11.55 L91.80,11.96 L92.91,13.07 L93.32,14.58 L93.32,30.87 L93.32,30.87 L2.67,30.87 L2.67,30.87 L2.67,14.58 L3.08,13.06 L4.19,11.95 L5.71,11.55 L5.71,11.55 Z" fill="#0078d4" stroke="#1e1e1e" stroke-width="1" stroke-linejoin="round"/><path d="M15.07,42.55 L17.03,40.58 L17.66,40.32 L18.29,40.58 L32.86,55.10 L33.33,55.90 L33.33,56.83 L32.87,57.63 L30.90,59.60 L30.90,59.60 L15.07,43.82 L14.81,43.19 L15.07,42.56 L15.07,42.55 Z" fill="#f2f2f2" stroke="#1e1e1e" stroke-width="1" stroke-linejoin="round"/><path d="M17.33,72.02 L15.35,70.05 L15.09,69.42 L15.35,68.79 L30.91,53.19 L30.91,53.19 L32.88,55.15 L33.34,55.95 L33.34,56.88 L32.88,57.68 L18.57,72.03 L17.94,72.29 L17.31,72.03 L17.33,72.02 Z" fill="#e6e6e6" stroke="#1e1e1e" stroke-width="1" stroke-linejoin="round"/><rect x="38.51" y="67.41" width="25.45" height="5.39" fill="#f2f2f2" stroke="#f2f2f2" stroke-width="1"/></svg>