<svg xmlns="http://www.w3.org/2000/svg" viewBox="0.84 0.88 100.00 100.00"><path d="M50.20,71.48 L55.93,67.07 L60.29,63.15 L63.46,59.71 L65.63,56.74 L67.00,54.24 L67.75,52.22 L68.07,50.67 L68.15,49.59 L68.02,46.46 L67.66,44.55 L66.98,42.60 L65.92,40.78 L64.37,39.22 L63.38,38.58 L62.25,38.07 L60.95,37.71 L59.47,37.50 L57.10,37.62 L54.84,38.35 L52.85,39.64 L51.26,41.41 L50.20,43.54 L49.13,41.41 L47.54,39.64 L45.55,38.35 L43.29,37.62 L40.92,37.50 L39.45,37.71 L38.15,38.07 L37.01,38.58 L36.03,39.22 L34.48,40.78 L33.41,42.60 L32.74,44.55 L32.38,46.46 L32.24,49.59 L32.32,50.67 L32.64,52.22 L33.39,54.24 L34.76,56.74 L36.93,59.70 L40.10,63.15 L44.46,67.07 L50.20,71.48 Z" fill="#3399e3" stroke="#1e1e1e" stroke-width="1" stroke-linejoin="round"/><path d="M71.67,30.00 L66.30,24.92 L60.63,20.18 L54.69,15.78 L50.84,18.22 L57.12,22.73 L63.09,27.65 L68.72,32.96 L74.00,38.59 L78.90,44.56 L83.39,50.84 L85.86,46.89 L81.47,40.98 L76.74,35.34 L71.67,30.00 L71.67,30.00 Z" fill="#b3b3b3" stroke="#1e1e1e" stroke-width="1" stroke-linejoin="round"/><path d="M32.96,68.71 L27.67,63.09 L22.77,57.12 L18.28,50.84 L15.82,54.79 L20.21,60.71 L24.94,66.35 L30.01,71.70 L35.35,76.75 L40.98,81.48 L46.89,85.86 L50.84,83.39 L44.56,78.90 L38.59,74.00 L32.96,68.71 L32.96,68.71 Z" fill="#b3b3b3" stroke="#1e1e1e" stroke-width="1" stroke-linejoin="round"/><path d="M88.47,50.84 L85.86,54.79 L88.97,60.48 L91.43,65.99 L93.22,71.25 L94.30,76.18 L94.57,78.50 L94.65,80.70 L94.54,82.78 L94.23,84.73 L93.73,86.53 L93.02,88.19 L92.11,89.68 L90.98,91.00 L89.66,92.13 L88.17,93.04 L86.51,93.75 L84.70,94.26 L82.75,94.56 L80.67,94.67 L78.47,94.59 L76.15,94.33 L71.22,93.24 L65.96,91.46 L60.45,88.99 L54.77,85.89 L50.82,88.48 L56.21,91.81 L61.93,94.54 L67.90,96.65 L74.07,98.10 L80.36,98.88 L84.05,98.70 L87.64,97.79 L90.97,96.19 L93.92,93.96 L95.37,92.28 L96.56,90.41 L97.50,88.37 L98.19,86.17 L98.63,83.81 L98.84,81.30 L98.80,78.67 L98.54,75.91 L98.04,73.05 L97.32,70.08 L96.38,67.03 L95.21,63.90 L92.25,57.46 L88.47,50.84 Z" fill="#b3b3b3" stroke="#1e1e1e" stroke-width="1" stroke-linejoin="round"/><path d="M15.82,46.89 L12.71,41.21 L10.25,35.70 L8.46,30.44 L7.38,25.51 L7.11,23.20 L7.03,21.00 L7.14,18.92 L7.45,16.97 L7.95,15.16 L8.66,13.51 L9.57,12.01 L10.70,10.69 L13.02,9.00 L15.62,7.80 L18.42,7.14 L21.28,7.03 L25.74,7.41 L30.13,8.30 L34.38,9.68 L40.83,12.44 L46.99,15.78 L50.84,13.25 L43.52,9.12 L35.81,5.76 L31.31,4.31 L27.04,3.35 L23.04,2.88 L19.33,2.89 L15.92,3.38 L12.84,4.36 L10.10,5.81 L7.74,7.74 L6.30,9.41 L5.11,11.27 L4.17,13.31 L3.48,15.51 L3.04,17.87 L2.84,20.37 L2.87,23.01 L3.14,25.76 L3.64,28.63 L4.36,31.59 L5.30,34.64 L6.47,37.77 L9.43,44.22 L13.21,50.84 L15.82,46.89 Z" fill="#b3b3b3" stroke="#1e1e1e" stroke-width="1" stroke-linejoin="round"/><path d="M21.30,98.86 L17.60,98.68 L14.02,97.77 L10.69,96.17 L7.74,93.94 L5.80,91.56 L4.35,88.82 L3.38,85.77 L2.89,82.41 L2.86,78.80 L3.28,74.94 L4.14,70.88 L5.43,66.65 L7.14,62.27 L9.26,57.77 L11.78,53.18 L14.69,48.54 L17.98,43.87 L21.63,39.21 L25.65,34.57 L30.01,30.00 L36.31,23.98 L43.09,18.50 L50.32,13.62 L57.93,9.36 L65.87,5.76 L70.37,4.31 L74.64,3.35 L78.64,2.88 L82.35,2.89 L85.76,3.38 L88.84,4.36 L91.58,5.81 L93.94,7.74 L95.88,10.12 L97.32,12.85 L98.29,15.91 L98.78,19.26 L98.81,22.88 L98.40,26.73 L97.54,30.79 L96.24,35.02 L94.53,39.40 L92.41,43.90 L89.89,48.48 L86.99,53.13 L83.70,57.79 L80.05,62.46 L76.03,67.10 L71.67,71.67 L65.12,77.79 L58.47,83.20 L51.80,87.85 L45.21,91.73 L38.77,94.80 L35.64,96.03 L32.58,97.03 L29.61,97.82 L26.73,98.39 L23.95,98.74 L21.30,98.86 Z" fill="#5ea0ef" stroke="#1e1e1e" stroke-width="1" stroke-linejoin="round"/><path d="M80.39,7.03 L75.94,7.41 L71.55,8.30 L67.29,9.68 L59.69,13.14 L52.41,17.23 L45.49,21.92 L38.99,27.17 L32.96,32.96 L29.02,37.09 L25.36,41.30 L22.00,45.56 L18.94,49.84 L16.20,54.10 L13.80,58.32 L11.74,62.46 L10.04,66.49 L8.70,70.38 L7.75,74.09 L7.18,77.61 L7.03,80.88 L7.29,83.89 L7.98,86.59 L9.11,88.97 L10.70,90.98 L12.71,92.56 L15.08,93.69 L17.79,94.38 L20.79,94.65 L24.07,94.49 L27.58,93.93 L31.29,92.97 L35.18,91.64 L39.21,89.94 L43.35,87.87 L47.57,85.47 L51.84,82.73 L56.11,79.68 L60.38,76.31 L64.59,72.66 L68.72,68.71 L72.66,64.58 L76.32,60.37 L79.68,56.11 L82.74,51.83 L85.48,47.57 L87.88,43.35 L89.94,39.21 L91.64,35.18 L92.98,31.29 L93.93,27.57 L94.50,24.06 L94.65,20.79 L94.39,17.78 L93.70,15.08 L92.57,12.70 L90.98,10.69 L90.98,10.69 L88.66,9.00 L86.05,7.80 L83.26,7.14 L80.39,7.03 L80.39,7.03 Z" fill="#ffffff" stroke="#1e1e1e" stroke-width="1" stroke-linejoin="round"/><path d="M50.20,71.48 L55.93,67.07 L60.29,63.15 L63.46,59.71 L65.63,56.74 L67.00,54.24 L67.75,52.22 L68.07,50.67 L68.15,49.59 L68.02,46.46 L67.66,44.55 L66.98,42.60 L65.92,40.78 L64.37,39.22 L63.38,38.58 L62.25,38.07 L60.95,37.71 L59.47,37.50 L57.10,37.62 L54.84,38.35 L52.85,39.64 L51.26,41.41 L50.20,43.54 L49.13,41.41 L47.54,39.64 L45.55,38.35 L43.29,37.62 L40.92,37.50 L39.45,37.71 L38.15,38.07 L37.01,38.58 L36.03,39.22 L34.48,40.78 L33.41,42.60 L32.74,44.55 L32.38,46.46 L32.24,49.59 L32.32,50.67 L32.64,52.22 L33.39,54.24 L34.76,56.74 L36.93,59.70 L40.10,63.15 L44.46,67.07 L50.20,71.48 Z" fill="#3399e3" stroke="#1e1e1e" stroke-width="1" stroke-linejoin="round"/><path d="M15.82,46.90 L19.73,52.96 L16.60,55.88 L11.84,48.57 L15.82,46.90 Z" fill="#b3b3b3" stroke="#b3b3b3" stroke-width="1" stroke-linejoin="round"/><path d="M85.86,54.77 L81.72,48.37 L85.14,45.70 L89.50,52.51 L85.86,54.77 Z" fill="#b3b3b3" stroke="#b3b3b3" stroke-width="1" stroke-linejoin="round"/></svg>