<svg xmlns="http://www.w3.org/2000/svg" viewBox="-2.00 -2.00 100.00 100.00"><path d="M74.51,42.98 L73.71,42.77 L73.13,42.18 L72.91,41.38 L72.91,41.38 L72.56,37.81 L71.51,34.39 L69.82,31.23 L67.55,28.46 L64.78,26.18 L61.62,24.49 L58.19,23.45 L54.62,23.09 L53.82,22.88 L53.24,22.29 L53.02,21.49 L53.02,21.49 L53.24,20.69 L53.82,20.11 L54.62,19.89 L54.62,19.89 L58.19,19.54 L61.62,18.49 L64.78,16.80 L67.55,14.53 L69.82,11.76 L71.51,8.60 L72.55,5.17 L72.91,1.60 L73.12,0.80 L73.71,0.21 L74.51,0.00 L74.51,0.00 L75.31,0.21 L75.89,0.80 L76.11,1.60 L76.11,1.60 L76.46,5.17 L77.50,8.60 L79.20,11.76 L81.47,14.53 L84.24,16.80 L87.40,18.49 L90.83,19.53 L94.40,19.89 L95.34,20.19 L95.92,20.99 L95.92,21.98 L95.34,22.78 L94.40,23.09 L94.40,23.09 L90.83,23.44 L87.41,24.49 L84.25,26.18 L81.48,28.45 L79.21,31.22 L77.51,34.38 L76.47,37.81 L76.12,41.37 L75.90,42.17 L75.32,42.76 L74.52,42.97 L74.51,42.98 Z" fill="#5e9624" stroke="#1e1e1e" stroke-width="1" stroke-linejoin="round"/><path d="M39.78,0.00 L40.61,0.11 L41.38,0.43 L42.04,0.94 L42.55,1.60 L42.87,2.37 L42.98,3.20 L42.98,39.78 L42.87,40.61 L42.55,41.38 L42.04,42.04 L41.38,42.55 L40.61,42.87 L39.78,42.98 L3.20,42.98 L2.37,42.87 L1.60,42.55 L0.94,42.04 L0.43,41.38 L0.11,40.61 L0.00,39.78 L0.00,3.20 L0.11,2.37 L0.43,1.60 L0.94,0.94 L1.60,0.43 L2.37,0.11 L3.20,0.00 L39.78,0.00 Z" fill="#7ec930" stroke="#1e1e1e" stroke-width="1" stroke-linejoin="round"/><path d="M39.78,53.02 L40.61,53.13 L41.38,53.45 L42.04,53.96 L42.55,54.62 L42.87,55.39 L42.98,56.22 L42.98,92.80 L42.87,93.63 L42.55,94.40 L42.04,95.06 L41.38,95.57 L40.61,95.89 L39.78,96.00 L3.20,96.00 L2.37,95.89 L1.60,95.57 L0.94,95.06 L0.43,94.40 L0.11,93.63 L0.00,92.80 L0.00,56.22 L0.11,55.39 L0.43,54.62 L0.94,53.96 L1.60,53.45 L2.37,53.13 L3.20,53.02 L39.78,53.02 Z" fill="#7ec930" stroke="#1e1e1e" stroke-width="1" stroke-linejoin="round"/><path d="M92.80,53.02 L93.63,53.13 L94.40,53.45 L95.06,53.96 L95.57,54.62 L95.89,55.39 L96.00,56.22 L96.00,92.80 L95.89,93.63 L95.57,94.40 L95.06,95.06 L94.40,95.57 L93.63,95.89 L92.80,96.00 L56.22,96.00 L55.39,95.89 L54.62,95.57 L53.96,95.06 L53.45,94.40 L53.13,93.63 L53.02,92.80 L53.02,56.22 L53.13,55.39 L53.45,54.62 L53.96,53.96 L54.62,53.45 L55.39,53.13 L56.22,53.02 L92.80,53.02 Z" fill="#7ec930" stroke="#1e1e1e" stroke-width="1" stroke-linejoin="round"/><path d="M34.75,37.96 L8.23,37.96 L7.00,37.72 L5.97,37.03 L5.27,35.99 L5.03,34.76 L5.03,8.21 L5.27,6.99 L5.97,5.95 L7.00,5.26 L8.23,5.01 L34.75,5.01 L35.98,5.26 L37.01,5.95 L37.71,6.99 L37.95,8.21 L37.95,34.75 L37.71,35.98 L37.01,37.01 L35.98,37.71 L34.75,37.95 L34.75,37.96 Z" fill="#86d633" stroke="#1e1e1e" stroke-width="1" stroke-linejoin="round"/><path d="M37.95,87.77 L37.95,61.25 L37.71,60.02 L37.01,58.99 L35.98,58.29 L34.75,58.05 L8.21,58.05 L6.99,58.29 L5.95,58.99 L5.26,60.02 L5.01,61.25 L5.01,61.25 L5.01,87.78 L5.26,89.01 L5.95,90.04 L6.99,90.74 L8.21,90.98 L34.75,90.98 L35.98,90.74 L37.01,90.04 L37.71,89.01 L37.95,87.78 L37.95,87.78 L37.95,87.77 Z" fill="#86d633" stroke="#1e1e1e" stroke-width="1" stroke-linejoin="round"/><path d="M90.98,87.77 L90.98,61.25 L90.73,60.02 L90.04,58.99 L89.00,58.29 L87.78,58.05 L61.24,58.05 L60.01,58.29 L58.97,58.99 L58.28,60.02 L58.04,61.25 L58.04,61.25 L58.04,87.78 L58.28,89.01 L58.97,90.04 L60.01,90.74 L61.24,90.98 L87.76,90.98 L88.99,90.75 L90.04,90.05 L90.74,89.01 L90.99,87.78 L90.99,87.74 L90.98,87.77 Z" fill="#86d633" stroke="#1e1e1e" stroke-width="1" stroke-linejoin="round"/></svg>