<svg xmlns="http://www.w3.org/2000/svg" viewBox="-2.00 -0.52 100.00 97.03"><path d="M69.45,89.41 L67.49,89.06 L65.78,88.58 L64.30,87.98 L63.04,87.24 L61.97,86.38 L61.09,85.40 L60.37,84.29 L59.80,83.07 L59.03,80.26 L58.66,76.99 L58.54,73.28 L58.54,69.14 L37.66,69.14 L37.66,73.29 L37.54,77.00 L37.17,80.27 L36.40,83.08 L35.83,84.30 L35.11,85.41 L34.23,86.39 L33.16,87.25 L31.90,87.98 L30.42,88.59 L28.71,89.06 L26.75,89.41 L24.83,89.89 L23.19,91.00 L22.03,92.61 L21.50,94.52 L74.73,94.52 L74.19,92.61 L73.02,91.00 L71.38,89.89 L69.45,89.41 L69.45,89.41 Z" fill="#1f56a3" stroke="#1e1e1e" stroke-width="1" stroke-linejoin="round"/><rect x="0.00" y="1.48" width="96.00" height="67.98" fill="#1490df" stroke="#1e1e1e" stroke-width="1"/><rect x="5.53" y="6.75" width="84.81" height="56.41" fill="#ffffff" stroke="#1e1e1e" stroke-width="1"/><path d="M64.42,24.82 L64.02,24.93 L63.73,25.22 L58.77,33.60 L58.34,33.95 L57.78,33.94 L57.37,33.57 L49.78,19.10 L49.31,18.71 L48.70,18.76 L48.30,19.22 L41.17,40.40 L40.75,40.87 L40.12,40.89 L39.67,40.46 L33.50,26.16 L33.09,25.74 L32.51,25.71 L32.06,26.09 L23.56,41.56 L23.27,41.86 L22.86,41.97 L5.53,41.97 L5.53,47.08 L25.88,47.08 L26.29,46.97 L26.58,46.67 L31.50,37.72 L31.95,37.35 L32.53,37.37 L32.94,37.79 L40.26,54.74 L40.71,55.17 L41.33,55.14 L41.75,54.68 L49.33,32.17 L49.73,31.71 L50.34,31.66 L50.80,32.05 L57.10,44.05 L57.52,44.42 L58.07,44.43 L58.51,44.09 L66.67,30.33 L66.96,30.04 L67.35,29.93 L90.36,29.93 L90.36,24.82 L64.42,24.82 Z" fill="#76bc2d" stroke="#1e1e1e" stroke-width="1" stroke-linejoin="round"/></svg>