<svg xmlns="http://www.w3.org/2000/svg" viewBox="12.73 0.82 76.18 100.00"><path d="M50.88,29.06 L43.63,28.77 L36.87,27.99 L30.76,26.76 L25.44,25.15 L23.11,24.21 L21.04,23.20 L19.24,22.11 L17.73,20.96 L16.52,19.75 L15.64,18.49 L15.10,17.19 L14.91,15.85 L14.73,85.62 L14.92,86.95 L15.45,88.24 L16.32,89.49 L17.51,90.69 L19.00,91.84 L20.77,92.92 L22.81,93.93 L25.10,94.86 L30.34,96.48 L36.37,97.71 L43.04,98.51 L50.21,98.82 L50.70,98.82 L57.96,98.58 L64.72,97.83 L70.84,96.64 L76.17,95.05 L78.50,94.12 L80.57,93.12 L82.38,92.04 L83.90,90.90 L85.11,89.70 L86.00,88.44 L86.55,87.14 L86.74,85.80 L86.92,16.03 L86.73,17.37 L86.18,18.67 L85.29,19.93 L84.08,21.13 L82.56,22.27 L80.75,23.35 L78.68,24.35 L76.35,25.28 L71.02,26.87 L64.90,28.06 L58.14,28.81 L50.88,29.06 Z" fill="#0077d3" stroke="#1e1e1e" stroke-width="1" stroke-linejoin="round"/><path d="M86.92,16.03 L86.73,17.37 L86.19,18.67 L85.30,19.93 L84.08,21.13 L82.57,22.27 L80.76,23.35 L78.68,24.35 L76.36,25.28 L71.02,26.87 L64.90,28.06 L58.14,28.81 L50.88,29.06 L43.63,28.77 L36.87,27.99 L30.76,26.76 L25.44,25.15 L23.11,24.21 L21.04,23.20 L19.24,22.11 L17.73,20.96 L16.52,19.75 L15.64,18.49 L15.10,17.19 L14.91,15.85 L15.10,14.51 L15.65,13.20 L16.54,11.95 L17.76,10.75 L19.27,9.61 L21.08,8.53 L23.15,7.52 L25.48,6.60 L30.81,5.01 L36.93,3.82 L43.69,3.07 L50.95,2.82 L58.21,3.11 L64.96,3.89 L71.08,5.12 L76.40,6.73 L78.72,7.67 L80.79,8.68 L82.59,9.77 L84.10,10.92 L85.31,12.13 L86.19,13.39 L86.74,14.69 L86.92,16.03 Z" fill="#e6e6e6" stroke="#1e1e1e" stroke-width="1" stroke-linejoin="round"/><path d="M78.50,14.95 L78.36,15.80 L77.94,16.63 L77.26,17.43 L76.33,18.19 L73.78,19.60 L70.40,20.83 L66.32,21.83 L61.63,22.59 L56.44,23.06 L50.88,23.22 L45.32,23.03 L40.15,22.53 L35.46,21.75 L31.38,20.73 L28.02,19.48 L25.48,18.06 L24.55,17.29 L23.87,16.49 L23.46,15.66 L23.32,14.81 L23.46,13.95 L23.88,13.13 L24.57,12.33 L25.50,11.57 L28.04,10.16 L31.42,8.93 L35.50,7.92 L40.19,7.17 L45.38,6.69 L50.94,6.54 L56.50,6.72 L61.68,7.22 L66.37,8.00 L70.45,9.03 L73.81,10.27 L76.36,11.70 L77.28,12.46 L77.96,13.27 L78.38,14.10 L78.52,14.95 L78.50,14.95 Z" fill="#50e6ff" stroke="#1e1e1e" stroke-width="1" stroke-linejoin="round"/><path d="M50.91,16.80 L43.52,17.02 L36.20,18.06 L29.04,19.91 L36.19,21.85 L43.50,22.96 L50.90,23.22 L58.30,23.00 L65.62,21.93 L72.77,20.02 L65.62,18.13 L58.30,17.06 L50.91,16.80 L50.91,16.80 Z" fill="#198ab3" stroke="#198ab3" stroke-width="1" stroke-linejoin="round"/><path d="M46.99,73.60 L43.59,77.00 L42.54,77.44 L41.49,77.00 L27.98,63.49 L27.59,62.82 L27.58,62.05 L27.97,61.39 L30.32,59.03 L31.37,58.60 L32.42,59.03 L46.99,73.60 L46.99,73.60 Z" fill="#ffffff" stroke="#1e1e1e" stroke-width="1" stroke-linejoin="round"/><path d="M41.54,77.02 L38.14,73.62 L38.14,73.62 L69.23,42.53 L70.27,42.10 L71.32,42.53 L73.68,44.89 L74.11,45.94 L73.68,46.98 L43.64,77.02 L42.98,77.41 L42.21,77.41 L41.54,77.02 L41.54,77.02 Z" fill="#f2f2f2" stroke="#1e1e1e" stroke-width="1" stroke-linejoin="round"/></svg>