<svg xmlns="http://www.w3.org/2000/svg" viewBox="11.91 0.67 72.17 94.66"><path d="M48.05,27.44 L41.20,27.17 L34.82,26.43 L29.05,25.28 L24.02,23.75 L21.83,22.87 L19.87,21.91 L18.17,20.88 L16.75,19.79 L15.60,18.65 L14.77,17.46 L14.26,16.23 L14.09,14.97 L13.91,80.86 L14.09,82.12 L14.59,83.34 L15.42,84.52 L16.54,85.65 L17.94,86.73 L19.62,87.75 L21.54,88.70 L23.70,89.59 L28.66,91.11 L34.35,92.28 L40.65,93.03 L47.42,93.33 L47.88,93.33 L54.74,93.09 L61.12,92.39 L66.90,91.26 L71.93,89.76 L74.13,88.89 L76.09,87.94 L77.80,86.92 L79.23,85.84 L80.38,84.71 L81.22,83.52 L81.74,82.30 L81.91,81.03 L82.09,15.14 L81.91,16.40 L81.39,17.63 L80.55,18.82 L79.40,19.95 L77.97,21.03 L76.26,22.05 L74.30,23.00 L72.11,23.87 L67.07,25.37 L61.29,26.50 L54.91,27.21 L48.05,27.44 Z" fill="#0077d3" stroke="#1e1e1e" stroke-width="1" stroke-linejoin="round"/><path d="M82.09,15.14 L81.91,16.41 L81.39,17.63 L80.55,18.82 L79.41,19.95 L77.97,21.03 L76.27,22.05 L74.31,23.00 L72.11,23.87 L67.07,25.37 L61.29,26.50 L54.91,27.21 L48.05,27.44 L41.20,27.17 L34.82,26.43 L29.05,25.28 L24.02,23.75 L21.83,22.87 L19.87,21.91 L18.17,20.88 L16.75,19.79 L15.60,18.65 L14.77,17.46 L14.26,16.23 L14.09,14.97 L14.26,13.70 L14.78,12.47 L15.62,11.29 L16.77,10.15 L18.20,9.07 L19.91,8.05 L21.87,7.11 L24.06,6.23 L29.10,4.73 L34.88,3.61 L41.26,2.90 L48.12,2.67 L54.97,2.94 L61.35,3.67 L67.12,4.83 L72.15,6.36 L74.34,7.24 L76.30,8.20 L78.00,9.23 L79.43,10.31 L80.57,11.45 L81.40,12.64 L81.91,13.87 L82.09,15.14 Z" fill="#e6e6e6" stroke="#1e1e1e" stroke-width="1" stroke-linejoin="round"/><path d="M74.13,14.12 L74.00,14.92 L73.60,15.70 L72.96,16.46 L72.08,17.18 L69.68,18.51 L66.49,19.67 L62.63,20.62 L58.20,21.33 L53.31,21.78 L48.05,21.93 L42.80,21.75 L37.91,21.28 L33.49,20.54 L29.64,19.57 L26.46,18.40 L24.06,17.06 L23.19,16.33 L22.55,15.57 L22.15,14.79 L22.02,13.98 L22.16,13.18 L22.55,12.40 L23.20,11.64 L24.08,10.92 L26.48,9.59 L29.67,8.43 L33.53,7.48 L37.96,6.77 L42.85,6.32 L48.11,6.18 L53.36,6.35 L58.25,6.82 L62.68,7.56 L66.53,8.53 L69.71,9.70 L72.11,11.05 L72.98,11.77 L73.62,12.53 L74.02,13.31 L74.15,14.12 L74.13,14.12 Z" fill="#50e6ff" stroke="#1e1e1e" stroke-width="1" stroke-linejoin="round"/><path d="M48.08,15.87 L41.10,16.07 L34.19,17.06 L27.43,18.80 L34.17,20.64 L41.08,21.68 L48.07,21.93 L55.05,21.72 L61.97,20.71 L68.72,18.91 L61.97,17.13 L55.06,16.11 L48.08,15.87 L48.08,15.87 Z" fill="#198ab3" stroke="#198ab3" stroke-width="1" stroke-linejoin="round"/><path d="M44.37,69.51 L41.16,72.72 L40.17,73.13 L39.19,72.72 L26.42,59.96 L26.05,59.33 L26.05,58.60 L26.41,57.97 L28.64,55.75 L29.63,55.34 L30.61,55.75 L44.37,69.51 L44.37,69.51 Z" fill="#ffffff" stroke="#1e1e1e" stroke-width="1" stroke-linejoin="round"/><path d="M39.23,72.74 L36.02,69.53 L36.02,69.53 L65.38,40.17 L66.37,39.76 L67.35,40.17 L69.58,42.39 L69.99,43.38 L69.58,44.37 L41.21,72.74 L40.59,73.10 L39.86,73.10 L39.23,72.74 L39.23,72.74 Z" fill="#f2f2f2" stroke="#1e1e1e" stroke-width="1" stroke-linejoin="round"/></svg>