<svg xmlns="http://www.w3.org/2000/svg" viewBox="-0.61 -0.56 97.17 97.17"><path d="M21.71,55.68 L18.08,53.31 L14.15,51.48 L9.99,50.24 L5.71,49.60 L4.70,49.32 L4.13,48.45 L4.27,47.41 L6.50,44.00 L9.21,40.94 L12.32,38.29 L15.76,36.00 L19.52,34.27 L23.50,33.17 L27.61,32.71 L31.74,32.91 L35.79,33.76 L37.51,34.31 L39.09,35.20 L21.71,55.68 Z" fill="#f78d1e" stroke="#1e1e1e" stroke-width="1" stroke-linejoin="round"/><path d="M41.07,74.99 L61.55,57.60 L62.43,59.21 L62.99,60.96 L63.82,65.01 L64.00,69.14 L63.53,73.25 L62.42,77.23 L60.69,80.99 L58.40,84.43 L55.76,87.49 L52.69,90.14 L49.28,92.32 L48.45,92.51 L47.64,92.21 L47.14,91.52 L47.09,90.67 L46.42,86.47 L45.18,82.40 L43.38,78.55 L41.07,74.99 L41.07,74.99 Z" fill="#f78d1e" stroke="#1e1e1e" stroke-width="1" stroke-linejoin="round"/><path d="M92.69,1.44 L83.12,4.73 L73.84,8.75 L64.90,13.49 L56.36,18.91 L48.27,24.99 L40.67,31.67 L33.63,38.93 L27.17,46.72 L21.33,54.99 L41.01,74.67 L49.28,68.83 L57.07,62.37 L64.33,55.33 L71.01,47.73 L77.09,39.64 L82.51,31.10 L87.25,22.16 L91.27,12.88 L94.56,3.31 L94.45,2.28 L93.72,1.55 L92.69,1.44 L92.69,1.44 Z" fill="#fcd116" stroke="#1e1e1e" stroke-width="1" stroke-linejoin="round"/><path d="M92.69,1.44 L83.12,4.73 L73.84,8.75 L64.90,13.49 L56.36,18.91 L48.27,24.99 L40.67,31.67 L33.63,38.93 L27.17,46.72 L21.33,54.99 L41.01,74.67 L49.28,68.83 L57.07,62.37 L64.33,55.33 L71.01,47.73 L77.09,39.64 L82.51,31.10 L87.25,22.16 L91.27,12.88 L94.56,3.31 L94.45,2.28 L93.72,1.55 L92.69,1.44 L92.69,1.44 Z" fill="#fec900" stroke="#1e1e1e" stroke-width="1" stroke-linejoin="round"/><path d="M92.69,1.44 L84.55,4.11 L76.63,7.37 L68.96,11.20 L84.96,27.20 L88.74,19.48 L91.95,11.50 L94.56,3.31 L94.45,2.28 L93.72,1.55 L92.69,1.44 L92.69,1.44 Z" fill="#0078d4" stroke="#1e1e1e" stroke-width="1" stroke-linejoin="round"/><path d="M1.39,93.01 L2.26,86.78 L3.85,80.68 L6.12,74.81 L9.04,69.23 L12.58,64.02 L16.70,59.25 L21.33,54.99 L41.01,74.67 L36.75,79.30 L31.98,83.42 L26.77,86.96 L21.19,89.88 L15.32,92.15 L9.22,93.74 L2.99,94.61 L2.16,94.44 L1.56,93.84 L1.39,93.01 Z" fill="#f69012" stroke="#1e1e1e" stroke-width="1" stroke-linejoin="round"/><ellipse cx="60.91" cy="35.09" rx="10.19" ry="10.19" fill="#dfa500" stroke="#1e1e1e" stroke-width="1"/><ellipse cx="60.91" cy="35.09" rx="7.63" ry="7.63" fill="#f2f2f2" stroke="#f2f2f2" stroke-width="1"/><path d="M27.52,72.48 L25.34,73.91 L22.95,74.97 L20.43,75.63 L21.10,73.10 L22.14,70.70 L23.52,68.48 L42.67,49.28 L46.67,53.28 L27.52,72.48 Z" fill="#d15900" stroke="#1e1e1e" stroke-width="1" stroke-linejoin="round"/></svg>