<svg xmlns="http://www.w3.org/2000/svg" viewBox="-0.57 -0.52 100.00 100.00"><path d="M22.37,57.37 L18.63,54.93 L14.58,53.04 L10.30,51.76 L5.88,51.10 L4.85,50.81 L4.26,49.92 L4.40,48.85 L6.70,45.33 L9.49,42.18 L12.69,39.46 L16.24,37.09 L20.11,35.31 L24.21,34.17 L28.45,33.70 L32.70,33.91 L36.87,34.78 L38.65,35.35 L40.28,36.27 L22.37,57.37 Z" fill="#f78d1e" stroke="#1e1e1e" stroke-width="1" stroke-linejoin="round"/><path d="M42.31,77.26 L63.41,59.35 L64.32,61.01 L64.90,62.81 L65.75,66.98 L65.94,71.24 L65.46,75.47 L64.31,79.57 L62.53,83.44 L60.17,86.99 L57.45,90.15 L54.29,92.88 L50.78,95.12 L49.92,95.32 L49.09,95.01 L48.57,94.30 L48.52,93.42 L47.83,89.09 L46.55,84.90 L44.70,80.94 L42.31,77.26 L42.31,77.26 Z" fill="#f78d1e" stroke="#1e1e1e" stroke-width="1" stroke-linejoin="round"/><path d="M95.51,1.48 L85.65,4.87 L76.08,9.02 L66.87,13.90 L58.07,19.49 L49.73,25.74 L41.91,32.63 L34.65,40.11 L27.99,48.14 L21.98,56.65 L42.26,76.93 L50.78,70.92 L58.80,64.27 L66.28,57.01 L73.17,49.18 L79.42,40.84 L85.01,32.04 L89.89,22.83 L94.04,13.27 L97.43,3.41 L97.32,2.35 L96.57,1.59 L95.51,1.48 L95.51,1.48 Z" fill="#fcd116" stroke="#1e1e1e" stroke-width="1" stroke-linejoin="round"/><path d="M95.51,1.48 L85.65,4.87 L76.08,9.02 L66.87,13.90 L58.07,19.49 L49.73,25.74 L41.91,32.63 L34.65,40.11 L27.99,48.14 L21.98,56.65 L42.26,76.93 L50.78,70.92 L58.80,64.27 L66.28,57.01 L73.17,49.18 L79.42,40.84 L85.01,32.04 L89.89,22.83 L94.04,13.27 L97.43,3.41 L97.32,2.35 L96.57,1.59 L95.51,1.48 L95.51,1.48 Z" fill="#fec900" stroke="#1e1e1e" stroke-width="1" stroke-linejoin="round"/><path d="M95.51,1.48 L87.12,4.24 L78.95,7.59 L71.05,11.54 L87.54,28.03 L91.43,20.07 L94.74,11.85 L97.43,3.41 L97.32,2.35 L96.57,1.59 L95.51,1.48 L95.51,1.48 Z" fill="#0078d4" stroke="#1e1e1e" stroke-width="1" stroke-linejoin="round"/><path d="M1.43,95.84 L2.33,89.41 L3.96,83.13 L6.30,77.07 L9.32,71.33 L12.97,65.96 L17.21,61.05 L21.98,56.65 L42.26,76.93 L37.86,81.71 L32.95,85.95 L27.58,89.60 L21.84,92.61 L15.78,94.95 L9.50,96.58 L3.08,97.48 L2.23,97.30 L1.61,96.69 L1.43,95.84 Z" fill="#f69012" stroke="#1e1e1e" stroke-width="1" stroke-linejoin="round"/><ellipse cx="62.75" cy="36.16" rx="10.50" ry="10.50" fill="#dfa500" stroke="#1e1e1e" stroke-width="1"/><ellipse cx="62.75" cy="36.16" rx="7.86" ry="7.86" fill="#f2f2f2" stroke="#f2f2f2" stroke-width="1"/><path d="M28.35,74.68 L26.11,76.15 L23.65,77.24 L21.05,77.92 L21.74,75.32 L22.81,72.84 L24.23,70.56 L43.96,50.78 L48.08,54.90 L28.35,74.68 Z" fill="#d15900" stroke="#1e1e1e" stroke-width="1" stroke-linejoin="round"/></svg>