<svg xmlns="http://www.w3.org/2000/svg" viewBox="0.03 1.15 94.67 94.67"><ellipse cx="47.36" cy="48.48" rx="45.33" ry="45.33" fill="#5c9fee" stroke="#1e1e1e" stroke-width="1"/><ellipse cx="47.57" cy="48.48" rx="39.47" ry="39.47" fill="#ffffff" stroke="#1e1e1e" stroke-width="1"/><path d="M65.85,28.52 L70.64,23.73 L72.19,25.28 L67.40,30.07 L65.85,28.52 Z" fill="#7a7a7a" stroke="#7a7a7a" stroke-width="1" stroke-linejoin="round"/><rect x="74.29" y="47.36" width="6.77" height="2.19" fill="#7a7a7a" stroke="#7a7a7a" stroke-width="1"/><path d="M65.54,68.03 L67.08,66.49 L71.87,71.28 L70.33,72.82 L65.54,68.03 Z" fill="#7a7a7a" stroke="#7a7a7a" stroke-width="1" stroke-linejoin="round"/><rect x="46.45" y="75.09" width="2.19" height="6.77" fill="#7a7a7a" stroke="#7a7a7a" stroke-width="1"/><path d="M22.67,25.06 L24.22,23.52 L29.01,28.31 L27.46,29.85 L22.67,25.06 Z" fill="#7a7a7a" stroke="#7a7a7a" stroke-width="1" stroke-linejoin="round"/><path d="M23.01,71.44 L27.80,66.65 L29.34,68.20 L24.55,72.99 L23.01,71.44 Z" fill="#7a7a7a" stroke="#7a7a7a" stroke-width="1" stroke-linejoin="round"/><rect x="13.60" y="47.36" width="6.77" height="2.19" fill="#7a7a7a" stroke="#7a7a7a" stroke-width="1"/><rect x="44.80" y="15.09" width="6.08" height="34.77" fill="#7a7a7a" stroke="#7a7a7a" stroke-width="1"/><path d="M65.81,62.50 L61.51,66.80 L46.12,51.41 L50.42,47.11 L65.81,62.50 Z" fill="#7a7a7a" stroke="#1e1e1e" stroke-width="1" stroke-linejoin="round"/><ellipse cx="47.57" cy="48.43" rx="6.40" ry="6.40" fill="#6e6e6e" stroke="#6e6e6e" stroke-width="1"/></svg>