<svg xmlns="http://www.w3.org/2000/svg" viewBox="0.15 1.33 100.00 100.00"><ellipse cx="50.15" cy="51.33" rx="48.00" ry="48.00" fill="#5c9fee" stroke="#1e1e1e" stroke-width="1"/><ellipse cx="50.37" cy="51.33" rx="41.79" ry="41.79" fill="#ffffff" stroke="#1e1e1e" stroke-width="1"/><path d="M69.72,30.20 L74.79,25.13 L76.43,26.77 L71.36,31.84 L69.72,30.20 Z" fill="#7a7a7a" stroke="#7a7a7a" stroke-width="1" stroke-linejoin="round"/><rect x="78.66" y="50.15" width="7.17" height="2.32" fill="#7a7a7a" stroke="#7a7a7a" stroke-width="1"/><path d="M69.39,72.03 L71.03,70.40 L76.10,75.47 L74.46,77.11 L69.39,72.03 Z" fill="#7a7a7a" stroke="#7a7a7a" stroke-width="1" stroke-linejoin="round"/><rect x="49.19" y="79.51" width="2.32" height="7.17" fill="#7a7a7a" stroke="#7a7a7a" stroke-width="1"/><path d="M24.01,26.54 L25.64,24.90 L30.71,29.97 L29.08,31.61 L24.01,26.54 Z" fill="#7a7a7a" stroke="#7a7a7a" stroke-width="1" stroke-linejoin="round"/><path d="M24.36,75.64 L29.43,70.57 L31.07,72.21 L26.00,77.28 L24.36,75.64 Z" fill="#7a7a7a" stroke="#7a7a7a" stroke-width="1" stroke-linejoin="round"/><rect x="14.40" y="50.15" width="7.17" height="2.32" fill="#7a7a7a" stroke="#7a7a7a" stroke-width="1"/><path d="M50.94,15.98 L51.70,16.08 L52.40,16.37 L53.01,16.84 L53.48,17.45 L53.77,18.16 L53.87,18.92 L53.87,49.86 L53.77,50.62 L53.48,51.33 L53.01,51.94 L52.40,52.41 L51.70,52.70 L50.94,52.80 L50.37,52.80 L49.61,52.70 L48.90,52.41 L48.30,51.94 L47.83,51.33 L47.54,50.62 L47.44,49.86 L47.44,18.92 L47.54,18.16 L47.83,17.45 L48.30,16.84 L48.90,16.37 L49.61,16.08 L50.37,15.98 L50.94,15.98 Z" fill="#7a7a7a" stroke="#7a7a7a" stroke-width="1" stroke-linejoin="round"/><path d="M67.20,68.65 L66.60,69.11 L65.89,69.41 L65.13,69.51 L64.37,69.41 L63.66,69.11 L63.05,68.65 L50.91,56.51 L50.45,55.90 L50.15,55.19 L50.05,54.43 L50.15,53.67 L50.45,52.96 L50.91,52.36 L51.31,51.96 L51.92,51.49 L52.63,51.20 L53.39,51.10 L54.15,51.20 L54.86,51.49 L55.46,51.96 L67.60,64.10 L68.07,64.70 L68.36,65.41 L68.46,66.17 L68.36,66.93 L68.07,67.64 L67.60,68.25 L67.20,68.65 Z" fill="#7a7a7a" stroke="#1e1e1e" stroke-width="1" stroke-linejoin="round"/><ellipse cx="50.37" cy="51.28" rx="6.78" ry="6.78" fill="#6e6e6e" stroke="#6e6e6e" stroke-width="1"/></svg>