<svg xmlns="http://www.w3.org/2000/svg" viewBox="0.03 1.15 94.67 94.67"><ellipse cx="47.36" cy="48.48" rx="45.33" ry="45.33" fill="#5c9fee" stroke="#1e1e1e" stroke-width="1"/><ellipse cx="47.57" cy="48.48" rx="39.47" ry="39.47" fill="#ffffff" stroke="#1e1e1e" stroke-width="1"/><path d="M65.85,28.52 L70.64,23.73 L72.19,25.28 L67.40,30.07 L65.85,28.52 Z" fill="#7a7a7a" stroke="#7a7a7a" stroke-width="1" stroke-linejoin="round"/><rect x="74.29" y="47.36" width="6.77" height="2.19" fill="#7a7a7a" stroke="#7a7a7a" stroke-width="1"/><path d="M65.54,68.03 L67.08,66.49 L71.87,71.28 L70.33,72.82 L65.54,68.03 Z" fill="#7a7a7a" stroke="#7a7a7a" stroke-width="1" stroke-linejoin="round"/><rect x="46.45" y="75.09" width="2.19" height="6.77" fill="#7a7a7a" stroke="#7a7a7a" stroke-width="1"/><path d="M22.67,25.06 L24.22,23.52 L29.01,28.31 L27.46,29.85 L22.67,25.06 Z" fill="#7a7a7a" stroke="#7a7a7a" stroke-width="1" stroke-linejoin="round"/><path d="M23.01,71.44 L27.80,66.65 L29.34,68.20 L24.55,72.99 L23.01,71.44 Z" fill="#7a7a7a" stroke="#7a7a7a" stroke-width="1" stroke-linejoin="round"/><rect x="13.60" y="47.36" width="6.77" height="2.19" fill="#7a7a7a" stroke="#7a7a7a" stroke-width="1"/><path d="M48.11,15.09 L48.82,15.19 L49.49,15.46 L50.07,15.91 L50.51,16.48 L50.79,17.15 L50.88,17.87 L50.88,47.09 L50.79,47.81 L50.51,48.48 L50.07,49.05 L49.49,49.50 L48.82,49.77 L48.11,49.87 L47.57,49.87 L46.86,49.77 L46.19,49.50 L45.61,49.05 L45.17,48.48 L44.89,47.81 L44.80,47.09 L44.80,17.87 L44.89,17.15 L45.17,16.48 L45.61,15.91 L46.19,15.46 L46.86,15.19 L47.57,15.09 L48.11,15.09 Z" fill="#7a7a7a" stroke="#7a7a7a" stroke-width="1" stroke-linejoin="round"/><path d="M63.47,64.83 L62.90,65.28 L62.23,65.55 L61.51,65.65 L60.79,65.55 L60.12,65.28 L59.55,64.83 L48.08,53.37 L47.64,52.80 L47.37,52.13 L47.27,51.41 L47.37,50.69 L47.64,50.02 L48.08,49.45 L48.46,49.07 L49.03,48.63 L49.70,48.35 L50.42,48.26 L51.14,48.35 L51.81,48.63 L52.38,49.07 L63.85,60.54 L64.29,61.11 L64.56,61.78 L64.66,62.50 L64.56,63.21 L64.29,63.88 L63.85,64.46 L63.47,64.83 Z" fill="#7a7a7a" stroke="#1e1e1e" stroke-width="1" stroke-linejoin="round"/><ellipse cx="47.57" cy="48.43" rx="6.40" ry="6.40" fill="#6e6e6e" stroke="#6e6e6e" stroke-width="1"/></svg>