<svg xmlns="http://www.w3.org/2000/svg" viewBox="7.55 1.98 80.97 92.13"><path d="M44.91,75.04 L41.17,75.04 L40.41,75.26 L39.89,75.86 L39.79,76.64 L39.81,79.46 L39.32,81.70 L38.88,82.63 L38.32,83.44 L36.86,84.74 L34.96,85.65 L32.65,86.25 L29.97,86.58 L26.93,86.72 L25.95,87.13 L25.55,88.11 L25.55,90.67 L25.95,91.67 L26.93,92.11 L57.87,92.11 L58.85,91.67 L59.25,90.67 L59.25,88.16 L58.85,87.18 L57.87,86.77 L54.91,86.68 L52.38,86.37 L50.26,85.78 L48.58,84.85 L47.33,83.54 L46.53,81.78 L46.18,79.52 L46.29,76.69 L46.21,75.89 L45.69,75.26 L44.91,75.04 L44.91,75.04 Z" fill="#ef7100" stroke="#1e1e1e" stroke-width="1" stroke-linejoin="round"/><path d="M46.45,58.67 L47.17,58.02 L48.00,57.55 L48.76,57.31 L49.55,57.23 L50.36,57.31 L51.15,57.55 L51.75,58.06 L52.27,58.67 L45.81,52.00 L44.91,50.68 L44.59,49.12 L44.91,47.56 L45.81,46.24 L47.12,45.32 L48.69,45.01 L50.26,45.34 L51.57,46.24 L53.33,48.00 L54.67,49.17 L57.81,52.37 L59.14,53.25 L60.69,53.55 L62.25,53.25 L63.57,52.37 L64.48,51.04 L64.80,49.47 L64.48,47.89 L63.57,46.56 L60.43,43.41 L58.67,41.39 L48.80,32.00 L47.89,30.68 L47.58,29.12 L47.89,27.56 L48.80,26.24 L50.11,25.32 L51.68,25.01 L53.24,25.34 L54.56,26.24 L58.77,30.45 L57.90,29.13 L57.59,27.57 L57.90,26.01 L58.78,24.68 L60.10,23.79 L61.65,23.47 L63.21,23.78 L64.53,24.64 L75.20,35.57 L74.59,30.41 L73.17,25.40 L70.98,20.68 L68.07,16.37 L64.53,12.56 L60.42,9.36 L55.87,6.85 L50.98,5.08 L45.87,4.11 L50.77,9.01 L51.87,10.68 L52.27,12.64 L51.86,14.68 L50.70,16.41 L48.97,17.57 L46.93,17.97 L44.96,17.57 L43.31,16.43 L39.95,13.12 L38.27,12.17 L36.36,11.87 L34.47,12.28 L32.85,13.33 L31.71,14.88 L31.20,16.75 L31.57,18.71 L32.69,20.37 L39.41,26.67 L40.56,28.32 L40.96,30.29 L40.57,32.27 L39.41,33.92 L37.75,35.04 L35.79,35.47 L33.76,35.15 L32.00,34.08 L24.91,26.67 L25.23,28.40 L24.91,30.13 L24.13,31.70 L22.89,32.94 L21.31,33.71 L19.57,33.92 L17.85,33.45 L16.37,32.43 L21.71,37.76 L22.83,39.42 L23.20,41.39 L23.11,42.39 L22.83,43.36 L21.70,45.01 L20.05,46.13 L19.08,46.41 L18.08,46.51 L17.07,46.42 L16.11,46.13 L15.22,45.67 L14.45,45.01 L9.55,40.11 L10.45,45.25 L12.15,50.18 L14.61,54.78 L17.76,58.94 L21.53,62.54 L25.82,65.51 L30.52,67.76 L35.53,69.25 L40.70,69.92 L45.91,69.77 L51.04,68.80 L46.45,64.00 L45.58,62.68 L45.27,61.12 L45.58,59.56 L46.45,58.24 L46.45,58.67 Z" fill="#0072ca" stroke="#1e1e1e" stroke-width="1" stroke-linejoin="round"/><path d="M75.41,35.36 L64.75,24.69 L63.42,23.83 L61.87,23.52 L60.31,23.82 L58.99,24.69 L58.08,26.02 L57.76,27.60 L58.08,29.18 L58.99,30.51 L54.77,26.29 L53.46,25.39 L51.89,25.07 L50.32,25.38 L49.01,26.29 L48.08,27.57 L47.71,29.10 L47.96,30.66 L48.80,32.00 L58.67,41.39 L60.64,43.36 L63.79,46.51 L64.70,47.84 L65.01,49.41 L64.70,50.99 L63.79,52.32 L62.46,53.19 L60.91,53.50 L59.35,53.19 L58.03,52.32 L54.88,49.17 L53.33,48.00 L51.63,46.29 L50.31,45.39 L48.75,45.07 L47.18,45.38 L45.87,46.29 L44.96,47.61 L44.64,49.17 L44.96,50.74 L45.87,52.05 L52.21,58.67 L50.90,57.76 L49.33,57.44 L47.78,57.78 L46.45,58.67 L45.58,59.99 L45.27,61.55 L45.58,63.10 L46.45,64.43 L51.04,69.01 L55.12,67.62 L58.98,65.71 L62.57,63.32 L65.81,60.48 L68.83,57.02 L71.34,53.17 L73.28,49.01 L74.65,44.58 L75.37,40.00 L75.41,35.36 Z" fill="#9cebff" stroke="#1e1e1e" stroke-width="1" stroke-linejoin="round"/><path d="M21.87,45.17 L22.50,44.40 L22.99,43.52 L23.27,42.55 L23.36,41.55 L23.28,40.54 L22.99,39.57 L22.51,38.67 L21.87,37.87 L16.53,32.53 L17.11,33.48 L17.87,34.29 L18.80,34.92 L19.84,35.36 L20.96,35.48 L22.08,35.36 L23.17,35.04 L24.16,34.51 L25.01,33.77 L25.65,32.85 L26.29,31.96 L26.67,30.93 L26.78,29.84 L26.67,28.75 L25.92,27.59 L24.91,26.67 L32.00,34.08 L33.67,35.20 L35.63,35.63 L37.61,35.20 L39.29,34.06 L40.42,32.37 L40.84,30.39 L40.49,28.39 L39.41,26.67 L32.85,20.21 L31.73,18.55 L31.31,16.59 L31.81,14.70 L32.96,13.13 L34.59,12.07 L36.50,11.67 L38.42,11.98 L40.11,12.96 L43.47,16.27 L45.12,17.41 L47.09,17.81 L49.07,17.42 L50.72,16.27 L51.87,14.62 L52.27,12.64 L51.86,10.67 L50.72,9.01 L45.87,4.11 L41.00,3.98 L36.16,4.56 L31.47,5.86 L27.01,7.83 L22.90,10.43 L19.21,13.61 L16.03,17.30 L13.43,21.41 L11.46,25.87 L10.16,30.56 L9.58,35.40 L9.71,40.27 L14.56,45.17 L15.36,45.82 L16.27,46.29 L17.23,46.58 L18.24,46.67 L19.24,46.57 L20.21,46.29 L21.09,45.81 L21.87,45.17 Z" fill="#9cebff" stroke="#1e1e1e" stroke-width="1" stroke-linejoin="round"/><path d="M42.67,80.85 L36.93,80.50 L31.29,79.39 L25.85,77.55 L20.70,75.01 L15.93,71.80 L11.63,68.00 L11.08,67.56 L10.67,66.99 L10.61,66.40 L10.67,65.81 L10.61,65.23 L10.67,64.64 L10.95,64.12 L11.36,63.68 L11.80,63.27 L12.32,62.99 L12.91,62.93 L13.49,62.99 L14.08,62.93 L14.67,62.99 L15.21,63.27 L15.68,63.68 L19.40,66.94 L23.51,69.70 L27.95,71.89 L32.71,73.48 L37.65,74.41 L42.67,74.67 L47.61,74.37 L52.48,73.42 L57.17,71.84 L61.57,69.65 L65.64,66.92 L69.33,63.68 L72.84,59.61 L75.74,55.08 L77.97,50.18 L79.48,45.02 L80.24,39.70 L80.24,34.32 L79.48,29.00 L77.97,23.84 L75.74,18.95 L72.84,14.42 L69.33,10.35 L68.66,9.34 L68.43,8.16 L68.62,6.91 L69.33,5.87 L70.31,5.20 L71.47,4.96 L72.65,5.19 L73.65,5.87 L77.44,10.19 L80.63,14.97 L83.17,20.12 L85.02,25.56 L86.14,31.20 L86.52,36.93 L86.14,42.67 L85.02,48.30 L83.17,53.75 L80.63,58.90 L77.44,63.68 L73.65,68.00 L69.35,71.79 L64.59,74.99 L59.45,77.53 L54.02,79.37 L48.39,80.49 L42.67,80.85 L42.67,80.85 Z" fill="#faa21d" stroke="#1e1e1e" stroke-width="1" stroke-linejoin="round"/></svg>