<svg xmlns="http://www.w3.org/2000/svg" viewBox="8.40 2.33 87.84 100.00"><path d="M48.92,81.74 L44.85,81.74 L44.02,81.98 L43.46,82.63 L43.34,83.48 L43.37,86.55 L42.83,89.00 L42.35,90.01 L41.74,90.89 L40.15,92.31 L38.08,93.30 L35.57,93.95 L32.64,94.31 L29.34,94.46 L28.27,94.91 L27.83,95.97 L27.83,98.76 L28.27,99.85 L29.34,100.33 L63.03,100.33 L64.11,99.85 L64.54,98.76 L64.54,96.03 L64.10,94.96 L63.03,94.52 L59.82,94.42 L57.05,94.08 L54.75,93.44 L52.92,92.43 L51.56,91.00 L50.69,89.08 L50.31,86.62 L50.43,83.54 L50.34,82.66 L49.77,81.98 L48.92,81.74 L48.92,81.74 Z" fill="#ef7100" stroke="#1e1e1e" stroke-width="1" stroke-linejoin="round"/><path d="M50.60,63.91 L51.38,63.21 L52.29,62.69 L53.11,62.42 L53.97,62.34 L54.86,62.43 L55.71,62.69 L56.37,63.25 L56.93,63.91 L49.90,56.64 L48.92,55.21 L48.57,53.51 L48.92,51.80 L49.90,50.37 L51.33,49.37 L53.04,49.03 L54.74,49.39 L56.18,50.37 L58.10,52.29 L59.55,53.56 L62.98,57.05 L64.42,58.00 L66.11,58.33 L67.81,58.00 L69.25,57.05 L70.24,55.60 L70.59,53.88 L70.24,52.17 L69.25,50.72 L65.82,47.29 L63.91,45.08 L53.16,34.86 L52.17,33.42 L51.82,31.72 L52.17,30.02 L53.16,28.58 L54.59,27.59 L56.29,27.25 L58.00,27.60 L59.43,28.58 L64.02,33.17 L63.07,31.73 L62.74,30.03 L63.07,28.33 L64.03,26.89 L65.46,25.92 L67.16,25.56 L68.85,25.90 L70.30,26.84 L81.92,38.75 L81.25,33.12 L79.70,27.67 L77.32,22.53 L74.15,17.83 L70.29,13.68 L65.82,10.20 L60.86,7.46 L55.53,5.54 L49.96,4.47 L55.31,9.82 L56.50,11.64 L56.93,13.77 L56.49,15.99 L55.23,17.88 L53.35,19.14 L51.12,19.58 L48.98,19.14 L47.17,17.89 L43.51,14.29 L41.69,13.25 L39.61,12.93 L37.55,13.37 L35.78,14.52 L34.54,16.21 L33.99,18.24 L34.39,20.39 L35.61,22.19 L42.93,29.05 L44.18,30.85 L44.62,33.00 L44.19,35.15 L42.93,36.95 L41.12,38.17 L38.98,38.63 L36.77,38.28 L34.86,37.12 L27.13,29.05 L27.48,30.94 L27.13,32.82 L26.29,34.54 L24.93,35.88 L23.22,36.72 L21.32,36.95 L19.44,36.43 L17.84,35.32 L23.65,41.13 L24.87,42.94 L25.27,45.08 L25.17,46.18 L24.87,47.23 L23.64,49.03 L21.84,50.25 L20.79,50.56 L19.69,50.66 L18.60,50.57 L17.54,50.25 L16.58,49.74 L15.74,49.03 L10.40,43.69 L11.38,49.29 L13.23,54.66 L15.91,59.67 L19.34,64.20 L23.45,68.13 L28.12,71.36 L33.25,73.82 L38.70,75.43 L44.33,76.17 L50.01,76.00 L55.60,74.94 L50.60,69.72 L49.65,68.27 L49.32,66.58 L49.65,64.88 L50.60,63.44 L50.60,63.91 Z" fill="#0072ca" stroke="#1e1e1e" stroke-width="1" stroke-linejoin="round"/><path d="M82.15,38.52 L70.53,26.90 L69.08,25.96 L67.39,25.62 L65.70,25.95 L64.25,26.90 L63.26,28.35 L62.92,30.06 L63.26,31.78 L64.25,33.23 L59.66,28.64 L58.23,27.66 L56.53,27.31 L54.82,27.64 L53.39,28.64 L52.37,30.03 L51.97,31.70 L52.25,33.40 L53.16,34.86 L63.91,45.08 L66.06,47.23 L69.48,50.66 L70.47,52.11 L70.82,53.83 L70.47,55.54 L69.48,56.99 L68.04,57.94 L66.35,58.28 L64.65,57.94 L63.21,56.99 L59.78,53.56 L58.10,52.29 L56.24,50.43 L54.80,49.44 L53.10,49.09 L51.39,49.43 L49.96,50.43 L48.98,51.86 L48.63,53.56 L48.98,55.27 L49.96,56.70 L56.88,63.91 L55.44,62.92 L53.74,62.57 L52.04,62.94 L50.60,63.91 L49.65,65.35 L49.32,67.04 L49.65,68.74 L50.60,70.18 L55.60,75.18 L60.04,73.66 L64.25,71.58 L68.15,68.97 L71.69,65.88 L74.98,62.11 L77.71,57.92 L79.82,53.39 L81.32,48.56 L82.10,43.57 L82.15,38.52 L82.15,38.52 Z" fill="#9cebff" stroke="#1e1e1e" stroke-width="1" stroke-linejoin="round"/><path d="M23.82,49.21 L24.51,48.36 L25.04,47.41 L25.34,46.35 L25.45,45.26 L25.36,44.16 L25.04,43.11 L24.52,42.12 L23.82,41.25 L18.01,35.44 L18.64,36.47 L19.46,37.36 L20.48,38.04 L21.61,38.52 L22.83,38.65 L24.05,38.52 L25.23,38.17 L26.32,37.59 L27.24,36.79 L27.94,35.79 L28.63,34.81 L29.05,33.70 L29.17,32.50 L29.05,31.31 L28.24,30.06 L27.13,29.05 L34.86,37.12 L36.67,38.34 L38.81,38.81 L40.97,38.34 L42.79,37.10 L44.03,35.26 L44.48,33.10 L44.10,30.92 L42.93,29.05 L35.79,22.02 L34.57,20.20 L34.10,18.07 L34.65,16.02 L35.90,14.30 L37.68,13.15 L39.76,12.71 L41.85,13.05 L43.69,14.12 L47.35,17.72 L49.15,18.97 L51.30,19.40 L53.45,18.98 L55.25,17.72 L56.51,15.92 L56.93,13.77 L56.50,11.62 L55.25,9.82 L49.96,4.47 L44.66,4.33 L39.39,4.97 L34.28,6.38 L29.43,8.52 L24.94,11.36 L20.92,14.82 L17.46,18.84 L14.62,23.33 L12.48,28.18 L11.07,33.29 L10.43,38.56 L10.57,43.86 L15.86,49.21 L16.73,49.91 L17.72,50.43 L18.77,50.74 L19.87,50.83 L20.96,50.73 L22.02,50.43 L22.97,49.90 L23.82,49.21 Z" fill="#9cebff" stroke="#1e1e1e" stroke-width="1" stroke-linejoin="round"/><path d="M46.48,88.07 L40.23,87.69 L34.09,86.48 L28.16,84.48 L22.55,81.70 L17.35,78.22 L12.66,74.07 L12.07,73.59 L11.62,72.97 L11.55,72.33 L11.62,71.69 L11.56,71.05 L11.62,70.41 L11.93,69.84 L12.37,69.37 L12.85,68.92 L13.42,68.61 L14.06,68.55 L14.70,68.61 L15.34,68.55 L15.98,68.61 L16.57,68.92 L17.08,69.37 L21.13,72.92 L25.61,75.92 L30.44,78.31 L35.63,80.04 L41.01,81.05 L46.48,81.33 L51.87,81.01 L57.16,79.98 L62.28,78.26 L67.06,75.87 L71.50,72.89 L75.52,69.37 L79.35,64.93 L82.51,60.00 L84.93,54.67 L86.58,49.04 L87.41,43.25 L87.41,37.39 L86.58,31.59 L84.93,25.97 L82.51,20.64 L79.35,15.71 L75.52,11.27 L74.79,10.18 L74.54,8.89 L74.75,7.53 L75.52,6.39 L76.59,5.66 L77.85,5.40 L79.14,5.66 L80.23,6.39 L84.36,11.10 L87.83,16.30 L90.60,21.92 L92.61,27.85 L93.83,33.99 L94.24,40.23 L93.83,46.48 L92.61,52.62 L90.60,58.55 L87.83,64.16 L84.36,69.37 L80.23,74.07 L75.54,78.20 L70.36,81.68 L64.76,84.45 L58.84,86.46 L52.71,87.67 L46.48,88.07 L46.48,88.07 Z" fill="#faa21d" stroke="#1e1e1e" stroke-width="1" stroke-linejoin="round"/></svg>