<svg xmlns="http://www.w3.org/2000/svg" viewBox="-0.24 1.09 94.67 94.67"><ellipse cx="47.09" cy="48.43" rx="45.33" ry="45.33" fill="#b0b0b0" stroke="#1e1e1e" stroke-width="1"/><ellipse cx="46.99" cy="48.27" rx="38.51" ry="38.51" fill="#ffffff" stroke="#1e1e1e" stroke-width="1"/><path d="M65.22,28.42 L70.00,23.63 L71.55,25.18 L66.76,29.97 L65.22,28.42 Z" fill="#7a7a7a" stroke="#7a7a7a" stroke-width="1" stroke-linejoin="round"/><rect x="73.65" y="47.31" width="6.77" height="2.19" fill="#7a7a7a" stroke="#7a7a7a" stroke-width="1"/><path d="M64.87,68.01 L66.42,66.46 L71.21,71.25 L69.66,72.79 L64.87,68.01 Z" fill="#7a7a7a" stroke="#7a7a7a" stroke-width="1" stroke-linejoin="round"/><rect x="45.76" y="75.15" width="2.19" height="6.77" fill="#7a7a7a" stroke="#7a7a7a" stroke-width="1"/><path d="M21.87,24.97 L23.42,23.42 L28.21,28.21 L26.66,29.75 L21.87,24.97 Z" fill="#7a7a7a" stroke="#7a7a7a" stroke-width="1" stroke-linejoin="round"/><path d="M22.18,71.47 L26.96,66.68 L28.51,68.23 L23.72,73.02 L22.18,71.47 Z" fill="#7a7a7a" stroke="#7a7a7a" stroke-width="1" stroke-linejoin="round"/><rect x="12.80" y="47.31" width="6.77" height="2.19" fill="#7a7a7a" stroke="#7a7a7a" stroke-width="1"/><path d="M47.15,3.09 L47.15,3.09 L45.89,3.35 L44.83,4.06 L44.13,5.14 L43.89,6.40 L44.14,7.67 L44.86,8.76 L45.93,9.49 L47.20,9.76 L47.20,9.76 L52.89,10.19 L58.45,11.45 L63.76,13.51 L68.72,16.33 L73.20,19.85 L77.13,23.99 L80.40,28.66 L82.95,33.76 L84.72,39.18 L85.68,44.80 L85.80,50.50 L85.09,56.16 L83.55,61.65 L81.22,66.85 L78.15,71.66 L74.41,75.96 L70.08,79.67 L65.25,82.70 L60.03,84.99 L54.53,86.49 L48.87,87.16 L43.17,87.00 L37.55,86.00 L32.15,84.18 L27.07,81.59 L22.42,78.29 L18.31,74.33 L14.83,69.82 L12.04,64.85 L10.02,59.51 L8.80,53.94 L8.42,48.26 L8.87,42.57 L10.15,37.02 L12.24,31.71 L15.08,26.77 L18.61,22.29 L21.33,26.24 L28.91,9.39 L10.67,11.52 L14.67,16.85 L10.66,21.59 L7.35,26.83 L4.78,32.48 L3.00,38.42 L2.06,44.55 L1.96,50.75 L2.71,56.90 L4.29,62.90 L6.68,68.63 L9.82,73.97 L13.67,78.83 L18.15,83.13 L23.17,86.77 L28.64,89.69 L34.46,91.83 L40.52,93.16 L46.70,93.65 L52.89,93.29 L58.97,92.09 L64.84,90.07 L70.37,87.26 L75.47,83.73 L80.03,79.53 L83.98,74.75 L87.24,69.47 L89.75,63.80 L91.45,57.84 L92.33,51.70 L92.36,45.50 L91.55,39.35 L89.90,33.37 L87.45,27.67 L84.24,22.36 L80.34,17.54 L75.81,13.30 L70.75,9.72 L65.25,6.86 L59.41,4.78 L53.33,3.51 L47.15,3.09 L47.15,3.09 Z" fill="#7450b6" stroke="#1e1e1e" stroke-width="1" stroke-linejoin="round"/><rect x="44.21" y="15.15" width="6.08" height="34.72" fill="#7a7a7a" stroke="#7a7a7a" stroke-width="1"/><path d="M65.23,62.60 L60.93,66.90 L45.54,51.51 L49.84,47.21 L65.23,62.60 Z" fill="#7a7a7a" stroke="#1e1e1e" stroke-width="1" stroke-linejoin="round"/><ellipse cx="46.99" cy="48.43" rx="6.40" ry="6.40" fill="#6e6e6e" stroke="#6e6e6e" stroke-width="1"/></svg>