<svg xmlns="http://www.w3.org/2000/svg" viewBox="0.82 9.63 100.00 82.38"><path d="M96.56,20.33 L54.72,20.33 L54.06,20.24 L53.48,19.93 L41.51,11.97 L40.91,11.72 L40.26,11.63 L5.08,11.63 L3.97,11.93 L3.14,12.73 L2.82,13.84 L2.82,87.81 L3.14,88.92 L3.97,89.72 L5.08,90.01 L96.56,90.01 L97.68,89.72 L98.50,88.92 L98.82,87.81 L98.82,22.59 L98.52,21.46 L97.69,20.63 L96.56,20.33 Z" fill="#ef7100" stroke="#1e1e1e" stroke-width="1" stroke-linejoin="round"/><path d="M32.47,15.92 L32.70,15.96 L32.92,16.05 L33.11,16.19 L33.25,16.38 L33.34,16.59 L33.37,16.83 L33.37,19.37 L33.34,19.60 L33.25,19.82 L33.11,20.01 L32.92,20.15 L32.70,20.24 L32.47,20.27 L12.48,20.27 L12.25,20.24 L12.03,20.15 L11.84,20.01 L11.70,19.82 L11.61,19.60 L11.58,19.37 L11.58,16.83 L11.61,16.59 L11.70,16.38 L11.84,16.19 L12.03,16.05 L12.25,15.96 L12.48,15.92 L32.47,15.92 Z" fill="#ffffff" stroke="#ffffff" stroke-width="1" stroke-linejoin="round"/><path d="M15.30,15.92 L15.46,15.95 L15.61,16.01 L15.74,16.11 L15.84,16.24 L15.90,16.39 L15.92,16.55 L15.92,19.65 L15.90,19.81 L15.84,19.96 L15.74,20.09 L15.61,20.19 L15.46,20.25 L15.30,20.27 L12.20,20.27 L12.04,20.25 L11.89,20.19 L11.76,20.09 L11.66,19.96 L11.60,19.81 L11.58,19.65 L11.58,16.55 L11.60,16.39 L11.66,16.24 L11.76,16.11 L11.89,16.01 L12.04,15.95 L12.20,15.92 L15.30,15.92 Z" fill="#d15900" stroke="#d15900" stroke-width="1" stroke-linejoin="round"/><path d="M96.56,20.22 L50.82,20.22 L49.96,20.38 L49.24,20.89 L41.62,28.24 L40.88,28.69 L40.04,28.86 L5.08,28.86 L3.95,29.16 L3.13,29.99 L2.82,31.12 L2.82,87.59 L3.14,88.69 L3.97,89.50 L5.08,89.79 L96.56,89.79 L97.68,89.50 L98.50,88.69 L98.82,87.59 L98.82,22.59 L98.56,21.41 L97.73,20.54 L96.56,20.22 Z" fill="#ea860e" stroke="#1e1e1e" stroke-width="1" stroke-linejoin="round"/><path d="M72.51,45.35 L72.51,68.95 L52.24,80.81 L52.24,57.15 L72.51,45.35 Z" fill="#ffca00" stroke="#1e1e1e" stroke-width="1" stroke-linejoin="round"/><path d="M72.51,45.35 L52.24,57.20 L31.91,45.35 L52.24,33.43 L72.51,45.35 Z" fill="#ffe452" stroke="#1e1e1e" stroke-width="1" stroke-linejoin="round"/><path d="M52.24,57.20 L52.24,80.81 L31.91,68.95 L31.91,45.35 L52.24,57.20 Z" fill="#ffd400" stroke="#1e1e1e" stroke-width="1" stroke-linejoin="round"/></svg>