<svg xmlns="http://www.w3.org/2000/svg" viewBox="0.67 3.27 94.67 89.49"><path d="M2.67,80.43 L2.78,80.86 L3.09,81.17 L9.28,84.64 L19.73,90.67 L20.41,90.76 L20.96,90.35 L24.48,84.37 L24.54,83.75 L24.16,83.25 L11.89,76.32 L11.59,76.00 L11.47,75.57 L11.47,20.53 L11.58,20.10 L11.89,19.79 L24.16,12.85 L24.54,12.36 L24.48,11.73 L20.96,5.76 L20.44,5.29 L19.73,5.33 L9.49,11.25 L3.09,14.83 L2.78,15.14 L2.67,15.57 L2.67,80.43 L2.67,80.43 Z" fill="#949494" stroke="#1e1e1e" stroke-width="1" stroke-linejoin="round"/><path d="M11.41,20.11 L11.73,19.79 L24.00,12.85 L24.43,12.37 L24.32,11.73 L20.80,5.76 L20.32,5.27 L19.63,5.33 L9.33,11.25 L2.99,14.83 L2.85,14.87 L2.67,15.15 L7.47,17.87 L11.41,20.11 Z" fill="#a3a3a3" stroke="#1e1e1e" stroke-width="1" stroke-linejoin="round"/><path d="M24.00,83.15 L11.73,76.21 L11.52,76.00 L11.36,75.73 L2.72,81.07 L2.99,81.07 L9.12,84.53 L19.79,90.45 L20.45,90.56 L20.96,90.13 L24.48,84.16 L24.47,83.54 L24.00,83.15 Z" fill="#a3a3a3" stroke="#1e1e1e" stroke-width="1" stroke-linejoin="round"/><path d="M93.33,80.43 L93.22,80.86 L92.91,81.17 L86.72,84.64 L76.27,90.67 L75.59,90.76 L75.04,90.35 L71.52,84.37 L71.46,83.75 L71.84,83.25 L84.11,76.32 L84.41,76.00 L84.53,75.57 L84.53,20.53 L84.42,20.10 L84.11,19.79 L71.84,12.85 L71.46,12.36 L71.52,11.73 L75.04,5.76 L75.56,5.29 L76.27,5.33 L86.51,11.15 L92.91,14.72 L93.22,15.04 L93.33,15.47 L93.33,80.43 L93.33,80.43 Z" fill="#949494" stroke="#1e1e1e" stroke-width="1" stroke-linejoin="round"/><path d="M84.59,20.11 L84.27,19.79 L72.00,12.85 L71.57,12.37 L71.68,11.73 L75.20,5.76 L75.68,5.27 L76.37,5.33 L86.67,11.15 L93.01,14.72 L93.33,15.04 L88.53,17.76 L84.59,20.11 Z" fill="#a3a3a3" stroke="#1e1e1e" stroke-width="1" stroke-linejoin="round"/><path d="M72.00,83.15 L84.27,76.21 L84.48,76.00 L84.64,75.73 L93.28,81.07 L93.28,81.07 L87.15,84.53 L76.48,90.45 L75.82,90.56 L75.31,90.13 L71.79,84.16 L71.69,83.61 L72.00,83.15 Z" fill="#a3a3a3" stroke="#1e1e1e" stroke-width="1" stroke-linejoin="round"/><path d="M76.32,31.63 L76.32,64.37 L47.95,80.85 L47.95,48.05 L76.32,31.63 Z" fill="#32bedd" stroke="#1e1e1e" stroke-width="1" stroke-linejoin="round"/><path d="M76.32,31.63 L48.00,48.11 L19.63,31.63 L48.00,15.15 L76.32,31.63 Z" fill="#9cebff" stroke="#1e1e1e" stroke-width="1" stroke-linejoin="round"/><path d="M47.95,48.11 L47.95,80.85 L19.63,64.37 L19.63,31.63 L47.95,48.11 Z" fill="#50e6ff" stroke="#1e1e1e" stroke-width="1" stroke-linejoin="round"/><path d="M19.63,64.37 L47.95,48.05 L47.95,80.85 L19.63,64.37 Z" fill="#9cebff" stroke="#1e1e1e" stroke-width="1" stroke-linejoin="round"/><path d="M76.32,64.37 L47.95,48.05 L47.95,80.85 L76.32,64.37 Z" fill="#50e6ff" stroke="#1e1e1e" stroke-width="1" stroke-linejoin="round"/></svg>