<svg xmlns="http://www.w3.org/2000/svg" viewBox="-2.00 -2.00 100.00 100.00"><path d="M45.73,0.94 L46.40,0.43 L47.17,0.11 L48.00,0.00 L48.82,0.11 L49.60,0.43 L50.26,0.94 L95.06,45.74 L95.57,46.40 L95.89,47.17 L95.99,48.00 L95.89,48.83 L95.57,49.60 L95.06,50.26 L50.26,95.06 L49.60,95.57 L48.82,95.89 L48.00,96.00 L47.17,95.89 L46.40,95.57 L45.73,95.06 L0.93,50.26 L0.43,49.60 L0.11,48.83 L-0.00,48.00 L0.11,47.17 L0.43,46.40 L0.93,45.74 L45.73,0.94 Z" fill="#6cab29" stroke="#1e1e1e" stroke-width="1" stroke-linejoin="round"/><path d="M63.14,34.69 L63.14,31.22 L62.66,31.03 L58.92,29.81 L57.95,27.43 L59.84,23.41 L57.40,20.97 L56.91,21.21 L53.43,22.98 L51.05,22.01 L49.53,17.79 L46.06,17.79 L45.87,18.28 L44.65,22.02 L42.27,22.99 L38.30,21.10 L35.86,23.54 L36.10,24.03 L37.87,27.50 L36.91,29.87 L32.64,31.39 L32.64,34.87 L33.13,35.06 L36.86,36.28 L37.85,38.66 L35.93,42.67 L38.37,45.10 L38.86,44.86 L42.34,43.09 L44.71,44.07 L46.24,48.28 L49.72,48.28 L49.90,47.79 L51.13,44.06 L53.50,43.08 L57.53,44.98 L59.97,42.53 L59.73,42.07 L57.96,38.60 L58.94,36.22 L63.14,34.69 Z" fill="#ffffff" stroke="#ffffff" stroke-width="1" stroke-linejoin="round"/><path d="M47.89,39.74 L45.67,39.37 L43.71,38.28 L42.21,36.61 L41.35,34.53 L41.23,32.29 L41.85,30.13 L43.15,28.30 L44.99,27.01 L47.14,26.39 L49.39,26.52 L51.46,27.38 L53.13,28.88 L54.21,30.85 L54.58,33.07 L54.25,35.13 L53.30,36.99 L51.82,38.47 L49.95,39.42 L47.89,39.74 L47.89,39.74 Z" fill="#6cab29" stroke="#6cab29" stroke-width="1" stroke-linejoin="round"/><path d="M56.06,58.21 L51.83,58.13 L48.94,58.13 L46.86,58.10 L44.64,58.49 L42.61,59.47 L40.94,60.98 L39.75,62.90 L39.13,65.07 L42.02,65.11 L42.66,63.59 L43.76,62.35 L45.20,61.54 L46.82,61.23 L48.90,61.26 L51.79,61.30 L56.03,61.36 L57.95,61.97 L59.52,63.23 L60.55,64.96 L60.88,66.95 L60.49,68.93 L59.42,70.63 L57.80,71.84 L55.87,72.39 L46.67,72.26 L45.05,71.91 L43.64,71.05 L42.58,69.78 L41.98,68.25 L39.09,68.20 L39.64,70.39 L40.78,72.33 L42.41,73.89 L44.41,74.93 L46.61,75.38 L55.82,75.51 L58.33,75.00 L60.57,73.75 L62.31,71.86 L63.39,69.53 L63.70,66.98 L63.47,64.42 L62.46,62.06 L60.77,60.12 L58.57,58.79 L56.06,58.21 L56.06,58.21 Z" fill="#ffffff" stroke="#1e1e1e" stroke-width="1" stroke-linejoin="round"/><path d="M44.10,65.12 L42.02,65.09 L39.13,65.07 L34.90,65.00 L32.97,64.40 L31.39,63.14 L30.36,61.41 L30.02,59.42 L30.42,57.44 L31.49,55.73 L33.11,54.52 L35.06,53.97 L44.26,54.11 L45.87,54.46 L47.28,55.32 L48.34,56.58 L48.94,58.12 L51.83,58.16 L51.29,55.97 L50.15,54.01 L48.52,52.45 L46.52,51.40 L44.30,50.95 L35.10,50.82 L32.58,51.32 L30.34,52.58 L28.59,54.47 L27.51,56.81 L27.20,59.36 L27.43,61.92 L28.45,64.28 L30.13,66.22 L32.33,67.54 L34.84,68.13 L39.07,68.19 L41.96,68.23 L44.04,68.26 L46.26,67.88 L48.29,66.89 L49.97,65.38 L51.16,63.46 L51.77,61.29 L48.88,61.24 L48.24,62.76 L47.15,63.99 L45.72,64.81 L44.10,65.12 Z" fill="#b4ec36" stroke="#1e1e1e" stroke-width="1" stroke-linejoin="round"/><ellipse cx="47.89" cy="33.05" rx="4.53" ry="4.53" fill="#b4ec36" stroke="#b4ec36" stroke-width="1"/></svg>