<svg xmlns="http://www.w3.org/2000/svg" viewBox="-1.78 -2.00 99.58 100.00"><ellipse cx="51.79" cy="44.01" rx="44.01" ry="44.01" fill="#5c9fee" stroke="#1e1e1e" stroke-width="1"/><ellipse cx="51.96" cy="44.01" rx="38.32" ry="38.32" fill="#ffffff" stroke="#1e1e1e" stroke-width="1"/><path d="M69.76,24.66 L74.40,20.02 L75.90,21.51 L71.26,26.16 L69.76,24.66 Z" fill="#7a7a7a" stroke="#7a7a7a" stroke-width="1" stroke-linejoin="round"/><rect x="77.92" y="42.91" width="6.57" height="2.12" fill="#7a7a7a" stroke="#7a7a7a" stroke-width="1"/><path d="M69.46,62.97 L70.95,61.47 L75.60,66.11 L74.10,67.61 L69.46,62.97 Z" fill="#7a7a7a" stroke="#7a7a7a" stroke-width="1" stroke-linejoin="round"/><rect x="50.90" y="69.83" width="2.12" height="6.57" fill="#7a7a7a" stroke="#7a7a7a" stroke-width="1"/><path d="M27.79,21.30 L29.29,19.81 L33.93,24.45 L32.44,25.95 L27.79,21.30 Z" fill="#7a7a7a" stroke="#7a7a7a" stroke-width="1" stroke-linejoin="round"/><path d="M28.11,66.31 L32.75,61.66 L34.25,63.16 L29.61,67.80 L28.11,66.31 Z" fill="#7a7a7a" stroke="#7a7a7a" stroke-width="1" stroke-linejoin="round"/><rect x="19.01" y="42.91" width="6.57" height="2.12" fill="#7a7a7a" stroke="#7a7a7a" stroke-width="1"/><rect x="49.26" y="11.58" width="5.90" height="33.74" fill="#7a7a7a" stroke="#7a7a7a" stroke-width="1"/><path d="M69.68,57.66 L65.51,61.83 L50.57,46.89 L54.74,42.72 L69.68,57.66 Z" fill="#7a7a7a" stroke="#1e1e1e" stroke-width="1" stroke-linejoin="round"/><ellipse cx="51.98" cy="43.94" rx="6.23" ry="6.23" fill="#6e6e6e" stroke="#6e6e6e" stroke-width="1"/><path d="M43.08,0.78 L37.41,2.33 L32.00,4.61 L26.93,7.59 L22.31,11.22 L18.20,15.43 L14.70,20.14 L11.84,25.28 L9.70,30.75 L8.30,36.46 L7.66,42.31 L7.81,48.18 L8.74,53.99 L10.42,59.62 L12.84,64.97 L15.95,69.96 L19.69,74.50 L24.00,78.49 L28.80,81.88 L30.26,78.01 L30.64,77.56 L31.22,77.47 L31.73,77.77 L43.20,91.69 L43.40,92.24 L43.19,92.80 L42.67,93.08 L24.84,96.00 L24.26,95.89 L23.89,95.43 L23.89,94.85 L26.03,89.12 L21.24,86.01 L16.82,82.39 L12.83,78.31 L9.31,73.82 L6.31,68.96 L3.86,63.81 L1.99,58.42 L0.73,52.75 L0.22,46.96 L0.45,41.16 L1.43,35.43 L3.13,29.88 L5.53,24.59 L8.59,19.65 L12.26,15.15 L16.47,11.16 L21.17,7.74 L26.26,4.95 L31.68,2.84 L37.31,1.44 L43.08,0.78 L43.08,0.78 Z" fill="#86d633" stroke="#1e1e1e" stroke-width="1" stroke-linejoin="round"/></svg>