<svg xmlns="http://www.w3.org/2000/svg" viewBox="1.71 0.67 92.58 94.67"><path d="M34.21,54.48 L35.36,53.61 L36.69,53.05 L38.12,52.87 L39.55,53.05 L40.88,53.61 L42.02,54.48 L42.57,55.03 L43.45,56.17 L44.00,57.50 L44.19,58.93 L44.00,60.36 L43.45,61.70 L42.57,62.84 L13.69,91.72 L12.54,92.60 L11.21,93.15 L9.78,93.34 L8.35,93.15 L7.02,92.60 L5.87,91.72 L5.33,91.18 L4.45,90.03 L3.90,88.70 L3.71,87.27 L3.90,85.84 L4.45,84.51 L5.33,83.36 L34.21,54.48 Z" fill="#198ab3" stroke="#1e1e1e" stroke-width="1" stroke-linejoin="round"/><ellipse cx="56.69" cy="38.27" rx="35.60" ry="35.60" fill="#32d2f3" stroke="#1e1e1e" stroke-width="1"/><ellipse cx="56.61" cy="37.63" rx="27.96" ry="27.96" fill="#ffffff" stroke="#1e1e1e" stroke-width="1"/><path d="M29.52,44.55 L29.92,42.92 L31.27,38.70 L32.39,35.93 L33.83,32.89 L35.63,29.70 L37.82,26.48 L40.43,23.37 L43.48,20.49 L45.19,19.17 L47.02,17.95 L48.98,16.86 L51.07,15.90 L53.29,15.08 L55.65,14.44 L58.15,13.98 L60.80,13.71 L63.60,13.66 L66.56,13.83 L69.67,14.25 L72.94,14.93 L69.19,12.59 L65.11,10.89 L60.81,9.86 L56.40,9.54 L52.00,9.93 L47.71,11.02 L43.66,12.79 L39.95,15.18 L36.36,18.27 L33.35,21.92 L31.02,26.04 L29.44,30.50 L28.65,35.16 L28.68,39.89 L29.52,44.55 L29.52,44.55 Z" fill="#c3f1ff" stroke="#1e1e1e" stroke-width="1" stroke-linejoin="round"/></svg>