<svg xmlns="http://www.w3.org/2000/svg" viewBox="-0.58 0.67 94.86 96.96"><path d="M1.42,87.27 L38.12,50.58 L46.48,58.93 L9.78,95.63 L1.42,87.27 Z" fill="#198ab3" stroke="#1e1e1e" stroke-width="1" stroke-linejoin="round"/><ellipse cx="56.69" cy="38.27" rx="35.60" ry="35.60" fill="#32d2f3" stroke="#1e1e1e" stroke-width="1"/><ellipse cx="56.61" cy="37.63" rx="27.96" ry="27.96" fill="#ffffff" stroke="#1e1e1e" stroke-width="1"/><path d="M29.52,44.55 L29.92,42.92 L31.27,38.70 L32.39,35.93 L33.83,32.89 L35.63,29.70 L37.82,26.48 L40.43,23.37 L43.48,20.49 L45.19,19.17 L47.02,17.95 L48.98,16.86 L51.07,15.90 L53.29,15.08 L55.65,14.44 L58.15,13.98 L60.80,13.71 L63.60,13.66 L66.56,13.83 L69.67,14.25 L72.94,14.93 L69.19,12.59 L65.11,10.89 L60.81,9.86 L56.40,9.54 L52.00,9.93 L47.71,11.02 L43.66,12.79 L39.95,15.18 L36.36,18.27 L33.35,21.92 L31.02,26.04 L29.44,30.50 L28.65,35.16 L28.68,39.89 L29.52,44.55 L29.52,44.55 Z" fill="#c3f1ff" stroke="#1e1e1e" stroke-width="1" stroke-linejoin="round"/></svg>