<svg xmlns="http://www.w3.org/2000/svg" viewBox="0.16 0.79 100.00 98.75"><path d="M47.03,57.84 L70.62,57.84 L70.62,81.44 L47.03,81.44 L47.03,57.84 Z" fill="#3e93e6" stroke="#1e1e1e" stroke-width="1" stroke-linejoin="round"/><path d="M19.51,26.38 L43.09,26.38 L43.09,2.79 L22.77,2.79 L21.52,3.04 L20.45,3.75 L19.74,4.81 L19.49,6.06 L19.51,26.38 Z" fill="#3e93e6" stroke="#1e1e1e" stroke-width="1" stroke-linejoin="round"/><path d="M22.78,81.44 L43.09,81.44 L43.09,57.84 L19.51,57.84 L19.51,78.16 L19.94,79.80 L21.14,81.00 L22.77,81.44 L22.78,81.44 Z" fill="#3e93e6" stroke="#1e1e1e" stroke-width="1" stroke-linejoin="round"/><path d="M19.51,53.91 L43.09,53.91 L43.09,30.32 L19.51,30.32 L19.51,53.91 Z" fill="#3e93e6" stroke="#1e1e1e" stroke-width="1" stroke-linejoin="round"/><path d="M74.57,81.44 L94.89,81.44 L96.14,81.19 L97.20,80.48 L97.91,79.42 L98.16,78.16 L98.16,57.84 L74.56,57.84 L74.57,81.44 Z" fill="#3e93e6" stroke="#1e1e1e" stroke-width="1" stroke-linejoin="round"/><path d="M47.03,53.91 L70.62,53.91 L70.62,30.32 L47.03,30.32 L47.03,53.91 Z" fill="#3e93e6" stroke="#1e1e1e" stroke-width="1" stroke-linejoin="round"/><path d="M74.56,53.91 L98.15,53.91 L98.15,30.32 L74.56,30.32 L74.56,53.91 Z" fill="#3e93e6" stroke="#1e1e1e" stroke-width="1" stroke-linejoin="round"/><path d="M74.56,2.79 L74.56,26.38 L98.15,26.38 L98.15,6.06 L97.90,4.81 L97.19,3.75 L96.13,3.04 L94.88,2.79 L74.56,2.79 Z" fill="#3e93e6" stroke="#1e1e1e" stroke-width="1" stroke-linejoin="round"/><path d="M47.03,26.38 L70.62,26.38 L70.62,2.79 L47.03,2.79 L47.03,26.38 Z" fill="#3e93e6" stroke="#1e1e1e" stroke-width="1" stroke-linejoin="round"/><path d="M20.04,74.76 L20.71,74.25 L21.49,73.92 L22.33,73.81 L23.17,73.92 L23.95,74.25 L24.62,74.76 L24.94,75.08 L25.45,75.75 L25.77,76.53 L25.88,77.37 L25.77,78.21 L25.45,78.99 L24.94,79.66 L8.01,96.58 L7.34,97.10 L6.56,97.42 L5.72,97.53 L4.88,97.42 L4.10,97.10 L3.43,96.58 L3.11,96.27 L2.60,95.59 L2.27,94.81 L2.16,93.98 L2.27,93.14 L2.60,92.36 L3.11,91.69 L20.04,74.76 Z" fill="#198ab3" stroke="#1e1e1e" stroke-width="1" stroke-linejoin="round"/><ellipse cx="33.21" cy="65.25" rx="20.87" ry="20.87" fill="#50e6ff" stroke="#1e1e1e" stroke-width="1"/><ellipse cx="33.17" cy="64.88" rx="16.38" ry="16.38" fill="#ffffff" stroke="#1e1e1e" stroke-width="1"/></svg>