<svg xmlns="http://www.w3.org/2000/svg" viewBox="-1.21 0.67 97.15 95.95"><path d="M45.00,55.35 L67.58,55.35 L67.58,77.94 L45.00,77.94 L45.00,55.35 Z" fill="#3e93e6" stroke="#1e1e1e" stroke-width="1" stroke-linejoin="round"/><path d="M18.67,25.25 L41.24,25.25 L41.24,2.67 L21.79,2.67 L20.59,2.91 L19.57,3.59 L18.89,4.60 L18.66,5.80 L18.67,25.25 Z" fill="#3e93e6" stroke="#1e1e1e" stroke-width="1" stroke-linejoin="round"/><path d="M21.80,77.94 L41.24,77.94 L41.24,55.35 L18.67,55.35 L18.67,74.80 L19.09,76.36 L20.23,77.51 L21.79,77.94 L21.80,77.94 Z" fill="#3e93e6" stroke="#1e1e1e" stroke-width="1" stroke-linejoin="round"/><path d="M18.67,51.59 L41.24,51.59 L41.24,29.01 L18.67,29.01 L18.67,51.59 Z" fill="#3e93e6" stroke="#1e1e1e" stroke-width="1" stroke-linejoin="round"/><path d="M71.36,77.94 L90.81,77.94 L92.01,77.70 L93.02,77.02 L93.70,76.00 L93.94,74.80 L93.94,55.35 L71.35,55.35 L71.36,77.94 Z" fill="#3e93e6" stroke="#1e1e1e" stroke-width="1" stroke-linejoin="round"/><path d="M45.00,51.59 L67.58,51.59 L67.58,29.01 L45.00,29.01 L45.00,51.59 Z" fill="#3e93e6" stroke="#1e1e1e" stroke-width="1" stroke-linejoin="round"/><path d="M71.35,51.59 L93.93,51.59 L93.93,29.01 L71.35,29.01 L71.35,51.59 Z" fill="#3e93e6" stroke="#1e1e1e" stroke-width="1" stroke-linejoin="round"/><path d="M71.35,2.67 L71.35,25.25 L93.93,25.25 L93.93,5.80 L93.69,4.60 L93.01,3.59 L91.99,2.91 L90.79,2.67 L71.35,2.67 Z" fill="#3e93e6" stroke="#1e1e1e" stroke-width="1" stroke-linejoin="round"/><path d="M45.00,25.25 L67.58,25.25 L67.58,2.67 L45.00,2.67 L45.00,25.25 Z" fill="#3e93e6" stroke="#1e1e1e" stroke-width="1" stroke-linejoin="round"/><path d="M0.79,89.93 L21.37,69.35 L26.05,74.04 L5.47,94.62 L0.79,89.93 Z" fill="#198ab3" stroke="#1e1e1e" stroke-width="1" stroke-linejoin="round"/><ellipse cx="31.78" cy="62.45" rx="19.97" ry="19.97" fill="#50e6ff" stroke="#1e1e1e" stroke-width="1"/><ellipse cx="31.74" cy="62.09" rx="15.68" ry="15.68" fill="#ffffff" stroke="#1e1e1e" stroke-width="1"/></svg>