<svg xmlns="http://www.w3.org/2000/svg" viewBox="1.93 0.82 97.78 100.00"><path d="M36.22,57.68 L37.43,56.76 L38.84,56.17 L40.36,55.97 L41.87,56.17 L43.28,56.76 L44.49,57.68 L45.07,58.26 L46.00,59.47 L46.58,60.88 L46.78,62.40 L46.58,63.91 L46.00,65.32 L45.07,66.53 L14.49,97.11 L13.28,98.04 L11.87,98.62 L10.36,98.82 L8.84,98.62 L7.43,98.04 L6.22,97.11 L5.64,96.53 L4.71,95.32 L4.13,93.91 L3.93,92.40 L4.13,90.88 L4.71,89.47 L5.64,88.26 L36.22,57.68 Z" fill="#198ab3" stroke="#1e1e1e" stroke-width="1" stroke-linejoin="round"/><ellipse cx="60.02" cy="40.51" rx="37.69" ry="37.69" fill="#32d2f3" stroke="#1e1e1e" stroke-width="1"/><ellipse cx="59.94" cy="39.84" rx="29.61" ry="29.61" fill="#ffffff" stroke="#1e1e1e" stroke-width="1"/><path d="M31.25,47.17 L31.68,45.44 L33.11,40.97 L34.29,38.04 L35.82,34.82 L37.72,31.44 L40.04,28.04 L42.80,24.74 L46.04,21.69 L47.85,20.29 L49.78,19.01 L51.86,17.85 L54.07,16.83 L56.42,15.97 L58.92,15.29 L61.57,14.80 L64.38,14.52 L67.34,14.46 L70.47,14.65 L73.76,15.09 L77.22,15.81 L73.25,13.33 L68.93,11.53 L64.38,10.44 L59.71,10.10 L55.05,10.51 L50.52,11.67 L46.23,13.54 L42.29,16.08 L38.49,19.34 L35.31,23.21 L32.85,27.57 L31.17,32.29 L30.33,37.23 L30.36,42.24 L31.25,47.17 L31.25,47.17 Z" fill="#c3f1ff" stroke="#1e1e1e" stroke-width="1" stroke-linejoin="round"/></svg>