<svg xmlns="http://www.w3.org/2000/svg" viewBox="-1.15 3.60 94.61 89.71"><path d="M46.19,91.31 L53.88,85.60 L60.65,80.20 L66.55,75.10 L71.64,70.30 L75.99,65.80 L79.64,61.61 L82.67,57.72 L85.13,54.13 L87.07,50.83 L88.57,47.84 L89.68,45.14 L90.46,42.74 L90.97,40.64 L91.26,38.84 L91.47,36.11 L91.47,32.57 L91.12,28.20 L90.75,25.82 L90.21,23.37 L89.47,20.91 L88.50,18.47 L87.28,16.11 L85.78,13.87 L83.97,11.80 L81.83,9.94 L79.32,8.34 L76.42,7.06 L73.10,6.13 L69.33,5.60 L65.09,5.68 L60.93,6.55 L57.01,8.18 L53.46,10.52 L50.40,13.47 L47.95,16.94 L46.19,20.80 L44.40,16.91 L41.91,13.42 L38.82,10.45 L35.22,8.12 L31.26,6.50 L27.06,5.65 L22.77,5.60 L19.05,6.13 L15.77,7.06 L12.90,8.34 L10.42,9.94 L8.30,11.80 L6.51,13.87 L5.02,16.11 L3.81,18.47 L2.85,20.91 L2.12,23.37 L1.58,25.82 L1.20,28.20 L0.85,32.57 L0.85,36.11 L1.01,38.84 L1.30,40.64 L1.80,42.74 L2.58,45.14 L3.69,47.84 L5.20,50.83 L7.16,54.13 L9.63,57.72 L12.67,61.61 L16.34,65.80 L20.70,70.30 L25.80,75.10 L31.71,80.20 L38.49,85.60 L46.19,91.31 L46.19,91.31 Z" fill="#3399e3" stroke="#1e1e1e" stroke-width="1" stroke-linejoin="round"/><path d="M91.47,32.96 L70.13,32.96 L69.74,33.07 L69.44,33.33 L62.99,44.48 L62.27,44.88 L61.55,44.48 L52.32,26.93 L51.71,26.25 L50.83,25.99 L49.94,26.25 L49.33,26.93 L40.48,53.33 L40.02,53.77 L39.39,53.77 L38.93,53.33 L31.36,35.79 L30.75,35.14 L29.89,34.90 L29.04,35.14 L28.43,35.79 L18.08,54.40 L17.79,54.70 L17.39,54.83 L7.57,54.83 L9.88,58.15 L12.37,61.33 L21.33,61.33 L21.75,61.23 L22.03,60.91 L28.48,49.01 L28.93,48.63 L29.52,48.63 L29.97,49.01 L38.83,69.60 L39.43,70.38 L40.37,70.67 L41.31,70.38 L41.92,69.60 L51.25,41.87 L51.69,41.42 L52.31,41.42 L52.75,41.87 L60.53,56.64 L61.38,57.39 L62.51,57.39 L63.36,56.64 L73.28,39.95 L73.57,39.65 L73.97,39.52 L91.20,39.52 L91.47,32.96 Z" fill="#ffffff" stroke="#1e1e1e" stroke-width="1" stroke-linejoin="round"/></svg>