<svg xmlns="http://www.w3.org/2000/svg" viewBox="0.99 0.67 94.06 94.67"><path d="M58.45,85.23 L57.97,86.73 L56.80,87.79 L55.25,88.12 L6.19,88.12 L4.64,87.79 L3.47,86.73 L2.99,85.23 L2.99,5.56 L3.47,4.06 L4.64,3.01 L6.18,2.67 L55.24,2.67 L56.79,3.00 L57.96,4.06 L58.44,5.56 L58.45,85.23 Z" fill="#abaaab" stroke="#1e1e1e" stroke-width="1" stroke-linejoin="round"/><path d="M11.13,39.20 L11.34,37.22 L12.15,35.41 L13.49,33.93 L15.21,32.94 L17.16,32.53 L44.77,32.53 L46.71,32.94 L48.44,33.93 L49.77,35.41 L50.59,37.22 L50.80,39.20 L50.80,39.20 L50.59,41.18 L49.77,42.99 L48.44,44.47 L46.71,45.46 L44.77,45.87 L17.16,45.87 L15.21,45.46 L13.49,44.47 L12.15,42.99 L11.34,41.18 L11.13,39.20 Z" fill="#003067" stroke="#1e1e1e" stroke-width="1" stroke-linejoin="round"/><path d="M11.13,19.46 L11.34,17.49 L12.16,15.67 L13.49,14.20 L15.21,13.21 L17.16,12.80 L44.77,12.80 L46.71,13.21 L48.44,14.20 L49.77,15.67 L50.58,17.49 L50.80,19.46 L50.80,19.46 L50.58,21.43 L49.76,23.24 L48.43,24.71 L46.71,25.70 L44.77,26.11 L17.16,26.11 L15.22,25.70 L13.49,24.71 L12.16,23.24 L11.34,21.43 L11.13,19.46 L11.13,19.46 Z" fill="#003067" stroke="#1e1e1e" stroke-width="1" stroke-linejoin="round"/><ellipse cx="18.89" cy="19.46" rx="4.46" ry="4.46" fill="#50e6ff" stroke="#50e6ff" stroke-width="1"/><ellipse cx="18.89" cy="39.20" rx="4.46" ry="4.46" fill="#50e6ff" stroke="#50e6ff" stroke-width="1"/><path d="M79.19,55.91 L62.27,47.47 L44.74,55.91 L38.34,68.45 L38.34,91.81 L38.54,92.57 L39.10,93.13 L39.86,93.33 L84.69,93.33 L85.45,93.13 L86.01,92.57 L86.21,91.81 L86.21,68.45 L79.19,55.91 Z" fill="#3990e4" stroke="#1e1e1e" stroke-width="1" stroke-linejoin="round"/><path d="M34.57,75.20 L33.44,74.92 L32.59,74.13 L32.23,73.03 L32.43,71.89 L39.95,55.47 L40.38,54.85 L40.97,54.40 L61.53,43.34 L62.65,43.06 L63.77,43.34 L83.61,54.40 L84.16,54.83 L84.56,55.40 L92.80,71.81 L93.04,73.00 L92.66,74.14 L91.76,74.94 L90.58,75.19 L89.43,74.81 L88.63,73.90 L80.71,58.13 L62.61,48.05 L43.87,58.13 L36.69,73.83 L35.83,74.83 L34.57,75.20 Z" fill="#50e6ff" stroke="#1e1e1e" stroke-width="1" stroke-linejoin="round"/><path d="M65.30,60.85 L65.69,60.91 L66.06,61.06 L66.38,61.30 L66.62,61.61 L66.77,61.98 L66.82,62.37 L66.82,69.31 L66.77,69.71 L66.62,70.07 L66.38,70.39 L66.06,70.63 L65.69,70.78 L65.30,70.83 L58.81,70.83 L58.42,70.78 L58.05,70.63 L57.74,70.39 L57.49,70.07 L57.34,69.71 L57.29,69.31 L57.29,62.37 L57.34,61.98 L57.49,61.61 L57.74,61.30 L58.05,61.06 L58.42,60.91 L58.81,60.85 L65.30,60.85 Z" fill="#005ba1" stroke="#005ba1" stroke-width="1" stroke-linejoin="round"/><path d="M62.05,85.01 L71.27,78.84 L70.86,78.65 L70.42,78.58 L53.69,78.58 L53.24,78.65 L52.84,78.84 L62.05,85.01 Z" fill="#005ba1" stroke="#005ba1" stroke-width="1" stroke-linejoin="round"/><path d="M71.94,91.63 L71.94,80.28 L63.46,85.96 L71.94,91.63 Z" fill="#005ba1" stroke="#005ba1" stroke-width="1" stroke-linejoin="round"/><path d="M60.65,85.96 L52.17,80.28 L52.17,91.63 L60.65,85.96 Z" fill="#005ba1" stroke="#005ba1" stroke-width="1" stroke-linejoin="round"/><path d="M71.87,93.33 L71.94,93.33 L71.94,93.22 L71.87,93.33 Z" fill="#005ba1" stroke="#005ba1" stroke-width="1" stroke-linejoin="round"/><path d="M52.17,93.22 L52.17,93.33 L52.25,93.33 L52.17,93.22 Z" fill="#005ba1" stroke="#005ba1" stroke-width="1" stroke-linejoin="round"/><path d="M52.44,93.33 L71.66,93.33 L62.05,86.90 L52.44,93.33 Z" fill="#005ba1" stroke="#005ba1" stroke-width="1" stroke-linejoin="round"/></svg>