<svg xmlns="http://www.w3.org/2000/svg" viewBox="0.67 4.63 94.67 86.73"><path d="M93.33,71.11 L2.67,71.11 L8.98,12.86 L9.49,10.89 L10.54,9.16 L12.06,7.80 L13.90,6.93 L15.91,6.63 L80.09,6.63 L82.10,6.93 L83.94,7.80 L85.45,9.16 L86.51,10.89 L87.02,12.86 L93.33,71.11 Z" fill="#3990e4" stroke="#1e1e1e" stroke-width="1" stroke-linejoin="round"/><path d="M2.67,71.11 L93.33,71.11 L93.33,71.11 L93.33,82.38 L92.99,84.54 L92.00,86.49 L90.46,88.03 L88.51,89.02 L86.35,89.37 L9.65,89.37 L7.49,89.02 L5.54,88.03 L4.00,86.49 L3.01,84.54 L2.67,82.38 L2.67,71.11 L2.67,71.11 Z" fill="#5ea0ef" stroke="#1e1e1e" stroke-width="1" stroke-linejoin="round"/><path d="M80.15,63.12 L15.85,63.12 L14.92,62.85 L14.28,62.14 L14.11,61.18 L18.99,16.18 L19.28,15.39 L19.90,14.83 L20.72,14.62 L75.28,14.62 L76.10,14.83 L76.72,15.39 L77.01,16.18 L81.89,61.18 L81.72,62.14 L81.08,62.85 L80.15,63.12 Z" fill="#f2f2f2" stroke="#1e1e1e" stroke-width="1" stroke-linejoin="round"/><path d="M73.02,81.57 L73.02,77.33 L72.81,76.55 L72.23,75.98 L71.45,75.77 L71.26,75.77 L70.48,75.98 L69.91,76.55 L69.70,77.33 L69.70,81.35 L49.18,81.35 L49.18,77.33 L48.97,76.55 L48.39,75.98 L47.61,75.77 L47.42,75.77 L46.64,75.98 L46.07,76.55 L45.87,77.33 L45.87,81.35 L24.22,81.35 L24.22,77.39 L24.01,76.60 L23.44,76.03 L22.66,75.82 L22.47,75.82 L21.69,76.03 L21.11,76.60 L20.90,77.39 L20.90,81.60 L21.14,82.80 L21.82,83.82 L22.84,84.50 L24.04,84.74 L24.22,84.74 L69.89,84.68 L71.45,84.27 L72.59,83.13 L73.02,81.57 L73.02,81.57 Z" fill="#f2f2f2" stroke="#1e1e1e" stroke-width="1" stroke-linejoin="round"/><path d="M45.75,40.45 L34.35,40.45 L33.90,40.33 L33.71,40.05 L33.72,39.97 L33.77,39.89 L47.47,21.25 L47.73,21.07 L48.05,21.02 L61.54,21.02 L62.00,21.14 L62.19,21.42 L62.15,21.54 L62.07,21.64 L45.99,36.23 L61.65,36.23 L62.10,36.34 L62.29,36.62 L62.24,36.78 L62.13,36.89 L36.10,55.56 L35.13,55.95 L34.76,55.86 L34.98,55.14 L34.98,55.14 L45.75,40.45 Z" fill="#5ea0ef" stroke="#1e1e1e" stroke-width="1" stroke-linejoin="round"/></svg>