<svg xmlns="http://www.w3.org/2000/svg" viewBox="0.90 9.73 94.20 76.53"><path d="M2.90,28.35 L93.10,28.35 L93.10,28.35 L93.10,81.25 L92.69,82.75 L91.59,83.86 L90.09,84.26 L5.91,84.26 L4.41,83.86 L3.31,82.75 L2.90,81.25 L2.90,28.35 L2.90,28.35 Z" fill="#32ccec" stroke="#1e1e1e" stroke-width="1" stroke-linejoin="round"/><path d="M5.93,11.73 L90.07,11.73 L91.58,12.14 L92.68,13.24 L93.08,14.75 L93.08,28.35 L93.08,28.35 L2.92,28.35 L2.92,28.35 L2.92,14.75 L3.32,13.24 L4.42,12.14 L5.93,11.73 L5.93,11.73 Z" fill="#0078d4" stroke="#1e1e1e" stroke-width="1" stroke-linejoin="round"/><path d="M74.13,39.04 L51.81,39.04 L51.46,38.99 L51.15,38.84 L44.75,34.60 L44.43,34.45 L44.09,34.39 L25.34,34.39 L24.50,34.74 L24.15,35.59 L24.15,75.01 L24.50,75.86 L25.34,76.20 L74.13,76.20 L74.98,75.85 L75.33,75.01 L75.33,40.23 L74.98,39.39 L74.13,39.04 Z" fill="#5ea0ef" stroke="#1e1e1e" stroke-width="1" stroke-linejoin="round"/><rect x="27.49" y="36.83" width="12.36" height="2.47" fill="#ffffff" stroke="#ffffff" stroke-width="1"/><rect x="27.49" y="36.83" width="2.47" height="2.47" fill="#0078d4" stroke="#0078d4" stroke-width="1"/><path d="M74.13,38.98 L49.60,38.98 L49.14,39.07 L48.75,39.33 L44.81,43.27 L44.42,43.53 L43.96,43.63 L25.34,43.63 L24.50,43.98 L24.15,44.82 L24.15,74.95 L24.50,75.80 L25.34,76.14 L74.13,76.14 L74.98,75.80 L75.33,74.95 L75.33,40.18 L74.98,39.33 L74.13,38.98 Z" fill="#ffffff" stroke="#1e1e1e" stroke-width="1" stroke-linejoin="round" opacity="0.9"/></svg>