<svg xmlns="http://www.w3.org/2000/svg" viewBox="0.90 9.73 94.20 76.53"><path d="M2.90,28.35 L93.10,28.35 L93.10,28.35 L93.10,81.25 L92.69,82.75 L91.59,83.86 L90.09,84.26 L5.91,84.26 L4.41,83.86 L3.31,82.75 L2.90,81.25 L2.90,28.35 L2.90,28.35 Z" fill="#b18cf7" stroke="#1e1e1e" stroke-width="1" stroke-linejoin="round"/><path d="M5.93,11.73 L90.07,11.73 L91.58,12.14 L92.68,13.24 L93.08,14.75 L93.08,28.35 L93.08,28.35 L2.92,28.35 L2.92,28.35 L2.92,14.75 L3.32,13.24 L4.42,12.14 L5.93,11.73 L5.93,11.73 Z" fill="#773adc" stroke="#1e1e1e" stroke-width="1" stroke-linejoin="round"/><path d="M32.18,34.32 L32.56,34.37 L32.91,34.52 L33.21,34.75 L33.45,35.05 L33.59,35.40 L33.64,35.78 L33.64,75.17 L33.59,75.55 L33.45,75.90 L33.21,76.20 L32.91,76.43 L32.56,76.58 L32.18,76.63 L15.46,76.63 L15.08,76.58 L14.73,76.43 L14.43,76.20 L14.20,75.90 L14.05,75.55 L14.00,75.17 L14.00,35.78 L14.05,35.40 L14.20,35.05 L14.43,34.75 L14.73,34.52 L15.08,34.37 L15.46,34.32 L32.18,34.32 Z" fill="#ffffff" stroke="#1e1e1e" stroke-width="1" stroke-linejoin="round"/><path d="M56.36,34.32 L56.74,34.37 L57.09,34.52 L57.39,34.75 L57.62,35.05 L57.77,35.40 L57.82,35.78 L57.82,75.17 L57.77,75.55 L57.62,75.90 L57.39,76.20 L57.09,76.43 L56.74,76.58 L56.36,76.63 L39.64,76.63 L39.26,76.58 L38.91,76.43 L38.60,76.20 L38.37,75.90 L38.23,75.55 L38.18,75.17 L38.18,35.78 L38.23,35.40 L38.37,35.05 L38.60,34.75 L38.91,34.52 L39.26,34.37 L39.64,34.32 L56.36,34.32 Z" fill="#ffffff" stroke="#1e1e1e" stroke-width="1" stroke-linejoin="round" opacity="0.75"/><path d="M80.54,34.32 L80.92,34.37 L81.27,34.52 L81.57,34.75 L81.80,35.05 L81.95,35.40 L82.00,35.78 L82.00,75.17 L81.95,75.55 L81.80,75.90 L81.57,76.20 L81.27,76.43 L80.92,76.58 L80.54,76.63 L63.82,76.63 L63.44,76.58 L63.09,76.43 L62.79,76.20 L62.55,75.90 L62.41,75.55 L62.36,75.17 L62.36,35.78 L62.41,35.40 L62.55,35.05 L62.79,34.75 L63.09,34.52 L63.44,34.37 L63.82,34.32 L80.54,34.32 Z" fill="#ffffff" stroke="#1e1e1e" stroke-width="1" stroke-linejoin="round" opacity="0.5"/></svg>