<svg xmlns="http://www.w3.org/2000/svg" viewBox="0.90 9.73 94.20 76.53"><path d="M2.90,28.35 L93.10,28.35 L93.10,28.35 L93.10,81.25 L92.69,82.75 L91.59,83.86 L90.09,84.26 L5.91,84.26 L4.41,83.86 L3.31,82.75 L2.90,81.25 L2.90,28.35 L2.90,28.35 Z" fill="#b18cf7" stroke="#1e1e1e" stroke-width="1" stroke-linejoin="round"/><path d="M5.93,11.73 L90.07,11.73 L91.58,12.14 L92.68,13.24 L93.08,14.75 L93.08,28.35 L93.08,28.35 L2.92,28.35 L2.92,28.35 L2.92,14.75 L3.32,13.24 L4.42,12.14 L5.93,11.73 L5.93,11.73 Z" fill="#773adc" stroke="#1e1e1e" stroke-width="1" stroke-linejoin="round"/><rect x="14.00" y="34.32" width="19.64" height="42.31" fill="#ffffff" stroke="#1e1e1e" stroke-width="1"/><rect x="38.18" y="34.32" width="19.64" height="42.31" fill="#ffffff" stroke="#1e1e1e" stroke-width="1" opacity="0.75"/><rect x="62.36" y="34.32" width="19.64" height="42.31" fill="#ffffff" stroke="#1e1e1e" stroke-width="1" opacity="0.5"/></svg>