<svg xmlns="http://www.w3.org/2000/svg" viewBox="0.90 9.73 94.20 76.53"><path d="M2.90,28.35 L93.10,28.35 L93.10,28.35 L93.10,81.25 L92.69,82.75 L91.59,83.86 L90.09,84.26 L5.91,84.26 L4.41,83.86 L3.31,82.75 L2.90,81.25 L2.90,28.35 L2.90,28.35 Z" fill="#32ccec" stroke="#1e1e1e" stroke-width="1" stroke-linejoin="round"/><path d="M5.93,11.73 L90.07,11.73 L91.58,12.14 L92.68,13.24 L93.08,14.75 L93.08,28.35 L93.08,28.35 L2.92,28.35 L2.92,28.35 L2.92,14.75 L3.32,13.24 L4.42,12.14 L5.93,11.73 L5.93,11.73 Z" fill="#0078d4" stroke="#1e1e1e" stroke-width="1" stroke-linejoin="round"/><path d="M72.15,39.18 L50.05,39.18 L49.70,39.13 L49.39,38.99 L43.08,34.79 L42.76,34.64 L42.42,34.59 L23.85,34.59 L23.01,34.93 L22.67,35.77 L22.67,74.78 L23.01,75.62 L23.85,75.97 L72.15,75.97 L72.99,75.62 L73.33,74.78 L73.33,40.37 L72.99,39.53 L72.15,39.18 L72.15,39.18 Z" fill="#f78d1e" stroke="#1e1e1e" stroke-width="1" stroke-linejoin="round"/><path d="M38.30,36.85 L38.43,36.87 L38.55,36.92 L38.65,37.00 L38.72,37.10 L38.77,37.21 L38.79,37.34 L38.79,38.67 L38.77,38.80 L38.72,38.91 L38.65,39.02 L38.55,39.09 L38.43,39.14 L38.30,39.16 L27.76,39.16 L27.63,39.14 L27.52,39.09 L27.42,39.02 L27.34,38.91 L27.29,38.80 L27.27,38.67 L27.27,37.34 L27.29,37.21 L27.34,37.10 L27.42,37.00 L27.52,36.92 L27.63,36.87 L27.76,36.85 L38.30,36.85 Z" fill="#ffffff" stroke="#ffffff" stroke-width="1" stroke-linejoin="round"/><path d="M29.25,36.85 L29.33,36.86 L29.41,36.90 L29.48,36.95 L29.53,37.02 L29.57,37.10 L29.58,37.18 L29.58,38.83 L29.57,38.91 L29.53,38.99 L29.48,39.06 L29.41,39.11 L29.33,39.15 L29.25,39.16 L27.61,39.16 L27.52,39.15 L27.44,39.11 L27.37,39.06 L27.32,38.99 L27.29,38.91 L27.27,38.83 L27.27,37.18 L27.29,37.10 L27.32,37.02 L27.37,36.95 L27.44,36.90 L27.52,36.86 L27.61,36.85 L29.25,36.85 Z" fill="#d15900" stroke="#d15900" stroke-width="1" stroke-linejoin="round"/><path d="M72.15,39.13 L47.88,39.13 L47.42,39.21 L47.04,39.47 L43.14,43.37 L42.75,43.63 L42.30,43.72 L23.85,43.72 L23.01,44.06 L22.67,44.90 L22.67,74.71 L23.01,75.55 L23.85,75.90 L72.15,75.90 L72.99,75.55 L73.33,74.71 L73.33,40.31 L72.99,39.47 L72.15,39.13 L72.15,39.13 Z" fill="#ffffff" stroke="#1e1e1e" stroke-width="1" stroke-linejoin="round"/></svg>