<svg xmlns="http://www.w3.org/2000/svg" viewBox="1.09 10.49 100.00 81.19"><path d="M3.09,30.18 L99.09,30.18 L99.09,30.18 L99.09,86.47 L98.66,88.08 L97.48,89.25 L95.88,89.68 L6.30,89.68 L4.69,89.25 L3.52,88.08 L3.09,86.47 L3.09,30.18 L3.09,30.18 Z" fill="#32ccec" stroke="#1e1e1e" stroke-width="1" stroke-linejoin="round"/><path d="M6.31,12.49 L95.86,12.49 L97.47,12.92 L98.64,14.09 L99.07,15.70 L99.07,30.17 L99.07,30.17 L3.11,30.17 L3.11,30.17 L3.11,15.70 L3.53,14.10 L4.71,12.92 L6.31,12.49 L6.31,12.49 Z" fill="#0078d4" stroke="#1e1e1e" stroke-width="1" stroke-linejoin="round"/><path d="M78.90,41.55 L55.15,41.55 L54.78,41.50 L54.44,41.34 L47.63,36.82 L47.29,36.66 L46.92,36.61 L26.97,36.61 L26.08,36.98 L25.70,37.88 L25.70,79.84 L26.08,80.74 L26.97,81.11 L78.90,81.11 L79.80,80.73 L80.17,79.84 L80.17,42.82 L79.80,41.92 L78.90,41.55 Z" fill="#5ea0ef" stroke="#1e1e1e" stroke-width="1" stroke-linejoin="round"/><path d="M41.86,39.20 L42.00,39.21 L42.14,39.27 L42.25,39.36 L42.34,39.47 L42.40,39.61 L42.41,39.75 L42.41,41.27 L42.40,41.42 L42.34,41.55 L42.25,41.67 L42.14,41.76 L42.00,41.81 L41.86,41.83 L29.81,41.83 L29.67,41.81 L29.53,41.76 L29.42,41.67 L29.33,41.55 L29.28,41.42 L29.26,41.27 L29.26,39.75 L29.28,39.61 L29.33,39.47 L29.42,39.36 L29.53,39.27 L29.67,39.21 L29.81,39.20 L41.86,39.20 Z" fill="#ffffff" stroke="#ffffff" stroke-width="1" stroke-linejoin="round"/><path d="M31.51,39.20 L31.61,39.21 L31.70,39.25 L31.78,39.31 L31.84,39.39 L31.88,39.48 L31.89,39.58 L31.89,41.45 L31.88,41.55 L31.84,41.64 L31.78,41.72 L31.70,41.78 L31.61,41.82 L31.51,41.83 L29.64,41.83 L29.54,41.82 L29.45,41.78 L29.37,41.72 L29.31,41.64 L29.27,41.55 L29.26,41.45 L29.26,39.58 L29.27,39.48 L29.31,39.39 L29.37,39.31 L29.45,39.25 L29.54,39.21 L29.64,39.20 L31.51,39.20 Z" fill="#0078d4" stroke="#0078d4" stroke-width="1" stroke-linejoin="round"/><path d="M78.90,41.49 L52.79,41.49 L52.30,41.59 L51.89,41.86 L47.69,46.06 L47.28,46.34 L46.79,46.43 L26.97,46.43 L26.08,46.81 L25.70,47.70 L25.70,79.78 L26.08,80.67 L26.97,81.04 L78.90,81.04 L79.80,80.67 L80.17,79.78 L80.17,42.76 L79.80,41.86 L78.90,41.49 Z" fill="#ffffff" stroke="#1e1e1e" stroke-width="1" stroke-linejoin="round" opacity="0.9"/></svg>