<svg xmlns="http://www.w3.org/2000/svg" viewBox="13.56 -1.56 63.94 100.00"><path d="M72.26,38.32 L74.02,36.03 L75.13,33.37 L75.50,30.51 L75.13,27.65 L74.02,24.99 L72.26,22.70 L72.26,22.70 L53.29,3.68 L51.02,1.92 L48.36,0.82 L45.51,0.44 L42.66,0.82 L40.01,1.92 L37.73,3.68 L37.73,3.68 L18.76,22.70 L17.02,25.00 L15.94,27.66 L15.56,30.51 L15.94,33.36 L17.02,36.02 L18.76,38.32 L34.75,54.30 L35.41,55.31 L35.65,56.49 L35.65,85.91 L35.92,87.35 L36.72,88.57 L43.91,95.77 L45.02,96.44 L46.32,96.44 L47.43,95.77 L54.41,88.78 L54.41,88.78 L58.51,84.68 L58.90,84.04 L58.90,83.29 L58.51,82.66 L55.58,79.67 L55.16,78.96 L55.16,78.14 L55.58,77.43 L58.51,74.45 L58.90,73.81 L58.90,73.06 L58.51,72.42 L55.42,69.28 L55.00,68.59 L55.00,67.78 L55.42,67.09 L58.62,63.95 L59.01,63.31 L59.01,62.56 L58.62,61.93 L54.52,57.77 L54.52,56.28 L72.26,38.32 Z" fill="#ffca12" stroke="#ffca12" stroke-width="1" stroke-linejoin="round"/><path d="M45.62,8.26 L47.84,8.69 L49.77,9.87 L51.15,11.66 L51.81,13.83 L51.66,16.09 L50.72,18.14 L49.12,19.74 L47.05,20.66 L44.79,20.79 L42.63,20.11 L40.85,18.71 L39.68,16.77 L39.28,14.55 L39.57,12.61 L40.45,10.86 L41.83,9.46 L43.57,8.57 L45.51,8.26 L45.62,8.26 Z" fill="#ffffff" stroke="#ffffff" stroke-width="1" stroke-linejoin="round"/><path d="M40.61,86.39 L40.61,86.39 L41.51,86.56 L42.31,86.12 L42.63,85.27 L42.63,61.55 L42.48,60.90 L42.05,60.38 L42.05,60.38 L41.11,60.16 L40.27,60.64 L39.97,61.55 L39.97,85.27 L40.16,85.90 L40.61,86.39 Z" fill="#ff9300" stroke="#ff9300" stroke-width="1" stroke-linejoin="round" opacity="0.75"/><path d="M59.85,29.04 L60.29,29.10 L60.70,29.27 L61.05,29.54 L61.32,29.90 L61.49,30.31 L61.55,30.75 L61.55,31.02 L61.49,31.46 L61.32,31.87 L61.05,32.22 L60.70,32.49 L60.29,32.66 L59.85,32.72 L32.03,32.72 L31.59,32.66 L31.18,32.49 L30.82,32.22 L30.55,31.87 L30.38,31.46 L30.32,31.02 L30.32,30.75 L30.38,30.31 L30.55,29.90 L30.82,29.54 L31.18,29.27 L31.59,29.10 L32.03,29.04 L59.85,29.04 Z" fill="#ff9300" stroke="#ff9300" stroke-width="1" stroke-linejoin="round" opacity="0.75"/><path d="M59.85,35.01 L60.29,35.07 L60.70,35.24 L61.05,35.51 L61.32,35.87 L61.49,36.28 L61.55,36.72 L61.55,36.98 L61.49,37.43 L61.32,37.84 L61.05,38.19 L60.70,38.46 L60.29,38.63 L59.85,38.69 L32.03,38.69 L31.59,38.63 L31.18,38.46 L30.82,38.19 L30.55,37.84 L30.38,37.43 L30.32,36.98 L30.32,36.72 L30.38,36.28 L30.55,35.87 L30.82,35.51 L31.18,35.24 L31.59,35.07 L32.03,35.01 L59.85,35.01 Z" fill="#ff9300" stroke="#ff9300" stroke-width="1" stroke-linejoin="round" opacity="0.75"/></svg>