<svg xmlns="http://www.w3.org/2000/svg" viewBox="0.67 9.55 94.67 76.90"><path d="M2.67,30.87 L93.33,30.87 L93.33,30.87 L93.33,81.42 L92.93,82.93 L91.82,84.04 L90.30,84.45 L5.70,84.45 L4.18,84.04 L3.07,82.93 L2.67,81.42 L2.67,30.87 L2.67,30.87 Z" fill="#4093e6" stroke="#1e1e1e" stroke-width="1" stroke-linejoin="round"/><path d="M5.71,11.55 L90.29,11.55 L91.80,11.96 L92.91,13.07 L93.32,14.58 L93.32,30.87 L93.32,30.87 L2.67,30.87 L2.67,30.87 L2.67,14.58 L3.08,13.06 L4.19,11.95 L5.71,11.55 L5.71,11.55 Z" fill="#0078d4" stroke="#1e1e1e" stroke-width="1" stroke-linejoin="round"/><path d="M30.25,37.98 L30.64,38.03 L31.00,38.18 L31.31,38.42 L31.55,38.73 L31.70,39.10 L31.75,39.49 L31.75,46.34 L31.70,46.73 L31.55,47.09 L31.31,47.40 L31.00,47.64 L30.64,47.79 L30.25,47.85 L13.80,47.85 L13.41,47.79 L13.04,47.64 L12.73,47.40 L12.49,47.09 L12.34,46.73 L12.29,46.34 L12.29,39.49 L12.34,39.10 L12.49,38.73 L12.73,38.42 L13.04,38.18 L13.41,38.03 L13.80,37.98 L30.25,37.98 Z" fill="#ffffff" stroke="#ffffff" stroke-width="1" stroke-linejoin="round" opacity="0.9"/><path d="M56.36,37.84 L56.75,37.89 L57.11,38.04 L57.42,38.28 L57.66,38.59 L57.82,38.96 L57.87,39.35 L57.87,46.20 L57.82,46.59 L57.66,46.95 L57.42,47.26 L57.11,47.50 L56.75,47.66 L56.36,47.71 L39.91,47.71 L39.52,47.66 L39.15,47.50 L38.84,47.26 L38.60,46.95 L38.45,46.59 L38.40,46.20 L38.40,39.35 L38.45,38.96 L38.60,38.59 L38.84,38.28 L39.15,38.04 L39.52,37.89 L39.91,37.84 L56.36,37.84 Z" fill="#ffffff" stroke="#ffffff" stroke-width="1" stroke-linejoin="round" opacity="0.9"/><path d="M82.47,37.84 L82.86,37.89 L83.22,38.04 L83.54,38.28 L83.78,38.59 L83.93,38.96 L83.98,39.35 L83.98,46.20 L83.93,46.59 L83.78,46.95 L83.54,47.26 L83.22,47.50 L82.86,47.66 L82.47,47.71 L66.02,47.71 L65.63,47.66 L65.27,47.50 L64.95,47.26 L64.71,46.95 L64.56,46.59 L64.51,46.20 L64.51,39.35 L64.56,38.96 L64.71,38.59 L64.95,38.28 L65.27,38.04 L65.63,37.89 L66.02,37.84 L82.47,37.84 Z" fill="#ffffff" stroke="#ffffff" stroke-width="1" stroke-linejoin="round" opacity="0.9"/><path d="M30.53,52.09 L30.92,52.14 L31.29,52.29 L31.60,52.53 L31.84,52.85 L31.99,53.21 L32.04,53.60 L32.04,60.45 L31.99,60.84 L31.84,61.20 L31.60,61.52 L31.29,61.76 L30.92,61.91 L30.53,61.96 L14.09,61.96 L13.69,61.91 L13.33,61.76 L13.02,61.52 L12.78,61.20 L12.63,60.84 L12.58,60.45 L12.58,53.60 L12.63,53.21 L12.78,52.85 L13.02,52.53 L13.33,52.29 L13.69,52.14 L14.09,52.09 L30.53,52.09 Z" fill="#ffffff" stroke="#ffffff" stroke-width="1" stroke-linejoin="round" opacity="0.9"/><path d="M56.65,51.95 L57.04,52.00 L57.40,52.15 L57.71,52.39 L57.95,52.71 L58.10,53.07 L58.15,53.46 L58.15,60.31 L58.10,60.70 L57.95,61.06 L57.71,61.38 L57.40,61.62 L57.04,61.77 L56.65,61.82 L40.20,61.82 L39.81,61.77 L39.44,61.62 L39.13,61.38 L38.89,61.06 L38.74,60.70 L38.69,60.31 L38.69,53.46 L38.74,53.07 L38.89,52.71 L39.13,52.39 L39.44,52.15 L39.81,52.00 L40.20,51.95 L56.65,51.95 Z" fill="#ffd400" stroke="#ffd400" stroke-width="1" stroke-linejoin="round"/><path d="M82.76,51.95 L83.15,52.00 L83.51,52.15 L83.82,52.39 L84.06,52.71 L84.22,53.07 L84.27,53.46 L84.27,60.31 L84.22,60.70 L84.06,61.06 L83.82,61.38 L83.51,61.62 L83.15,61.77 L82.76,61.82 L66.31,61.82 L65.92,61.77 L65.55,61.62 L65.24,61.38 L65.00,61.06 L64.85,60.70 L64.80,60.31 L64.80,53.46 L64.85,53.07 L65.00,52.71 L65.24,52.39 L65.55,52.15 L65.92,52.00 L66.31,51.95 L82.76,51.95 Z" fill="#ffd400" stroke="#ffd400" stroke-width="1" stroke-linejoin="round"/><path d="M30.53,66.34 L30.92,66.39 L31.29,66.54 L31.60,66.78 L31.84,67.10 L31.99,67.46 L32.04,67.85 L32.04,74.70 L31.99,75.09 L31.84,75.45 L31.60,75.77 L31.29,76.01 L30.92,76.16 L30.53,76.21 L14.09,76.21 L13.69,76.16 L13.33,76.01 L13.02,75.77 L12.78,75.45 L12.63,75.09 L12.58,74.70 L12.58,67.85 L12.63,67.46 L12.78,67.10 L13.02,66.78 L13.33,66.54 L13.69,66.39 L14.09,66.34 L30.53,66.34 Z" fill="#ffd400" stroke="#ffd400" stroke-width="1" stroke-linejoin="round"/><path d="M56.65,66.20 L57.04,66.25 L57.40,66.40 L57.71,66.64 L57.95,66.96 L58.10,67.32 L58.15,67.71 L58.15,74.56 L58.10,74.95 L57.95,75.31 L57.71,75.63 L57.40,75.87 L57.04,76.02 L56.65,76.07 L40.20,76.07 L39.81,76.02 L39.44,75.87 L39.13,75.63 L38.89,75.31 L38.74,74.95 L38.69,74.56 L38.69,67.71 L38.74,67.32 L38.89,66.96 L39.13,66.64 L39.44,66.40 L39.81,66.25 L40.20,66.20 L56.65,66.20 Z" fill="#ffd400" stroke="#ffd400" stroke-width="1" stroke-linejoin="round"/><path d="M82.76,66.20 L83.15,66.25 L83.51,66.40 L83.82,66.64 L84.06,66.96 L84.22,67.32 L84.27,67.71 L84.27,74.56 L84.22,74.95 L84.06,75.31 L83.82,75.63 L83.51,75.87 L83.15,76.02 L82.76,76.07 L66.31,76.07 L65.92,76.02 L65.55,75.87 L65.24,75.63 L65.00,75.31 L64.85,74.95 L64.80,74.56 L64.80,67.71 L64.85,67.32 L65.00,66.96 L65.24,66.64 L65.55,66.40 L65.92,66.25 L66.31,66.20 L82.76,66.20 Z" fill="#ffd400" stroke="#ffd400" stroke-width="1" stroke-linejoin="round"/></svg>