<svg xmlns="http://www.w3.org/2000/svg" viewBox="0.67 9.55 94.67 76.90"><path d="M2.67,30.87 L93.33,30.87 L93.33,30.87 L93.33,81.42 L92.93,82.93 L91.82,84.04 L90.30,84.45 L5.70,84.45 L4.18,84.04 L3.07,82.93 L2.67,81.42 L2.67,30.87 L2.67,30.87 Z" fill="#4093e6" stroke="#1e1e1e" stroke-width="1" stroke-linejoin="round"/><path d="M5.71,11.55 L90.29,11.55 L91.80,11.96 L92.91,13.07 L93.32,14.58 L93.32,30.87 L93.32,30.87 L2.67,30.87 L2.67,30.87 L2.67,14.58 L3.08,13.06 L4.19,11.95 L5.71,11.55 L5.71,11.55 Z" fill="#0078d4" stroke="#1e1e1e" stroke-width="1" stroke-linejoin="round"/><rect x="12.29" y="37.98" width="19.47" height="9.87" fill="#ffffff" stroke="#ffffff" stroke-width="1" opacity="0.9"/><rect x="38.40" y="37.84" width="19.47" height="9.87" fill="#ffffff" stroke="#ffffff" stroke-width="1" opacity="0.9"/><rect x="64.51" y="37.84" width="19.47" height="9.87" fill="#ffffff" stroke="#ffffff" stroke-width="1" opacity="0.9"/><rect x="12.58" y="52.09" width="19.47" height="9.87" fill="#ffffff" stroke="#ffffff" stroke-width="1" opacity="0.9"/><rect x="38.69" y="51.95" width="19.47" height="9.87" fill="#ffd400" stroke="#ffd400" stroke-width="1"/><rect x="64.80" y="51.95" width="19.47" height="9.87" fill="#ffd400" stroke="#ffd400" stroke-width="1"/><rect x="12.58" y="66.34" width="19.47" height="9.87" fill="#ffd400" stroke="#ffd400" stroke-width="1"/><rect x="38.69" y="66.20" width="19.47" height="9.87" fill="#ffd400" stroke="#ffd400" stroke-width="1"/><rect x="64.80" y="66.20" width="19.47" height="9.87" fill="#ffd400" stroke="#ffd400" stroke-width="1"/></svg>