<svg xmlns="http://www.w3.org/2000/svg" viewBox="0.82 10.23 100.00 81.18"><path d="M2.82,32.69 L98.82,32.69 L98.82,32.69 L98.82,86.21 L98.39,87.81 L97.22,88.99 L95.62,89.42 L6.03,89.42 L4.43,88.99 L3.25,87.81 L2.82,86.21 L2.82,32.69 L2.82,32.69 Z" fill="#4093e6" stroke="#1e1e1e" stroke-width="1" stroke-linejoin="round"/><path d="M6.05,12.23 L95.60,12.23 L97.20,12.66 L98.38,13.84 L98.81,15.44 L98.81,32.69 L98.81,32.69 L2.82,32.69 L2.82,32.69 L2.82,15.44 L3.26,13.83 L4.44,12.66 L6.05,12.23 L6.05,12.23 Z" fill="#0078d4" stroke="#1e1e1e" stroke-width="1" stroke-linejoin="round"/><path d="M32.02,40.21 L32.44,40.27 L32.82,40.43 L33.15,40.68 L33.41,41.01 L33.57,41.40 L33.62,41.81 L33.62,49.06 L33.57,49.48 L33.41,49.86 L33.15,50.19 L32.82,50.45 L32.44,50.61 L32.02,50.66 L14.61,50.66 L14.20,50.61 L13.81,50.45 L13.48,50.19 L13.22,49.86 L13.07,49.48 L13.01,49.06 L13.01,41.81 L13.07,41.40 L13.22,41.01 L13.48,40.68 L13.81,40.43 L14.20,40.27 L14.61,40.21 L32.02,40.21 Z" fill="#ffffff" stroke="#ffffff" stroke-width="1" stroke-linejoin="round" opacity="0.9"/><path d="M59.67,40.07 L60.09,40.12 L60.47,40.28 L60.80,40.53 L61.06,40.86 L61.22,41.25 L61.27,41.66 L61.27,48.91 L61.22,49.33 L61.06,49.71 L60.80,50.04 L60.47,50.30 L60.09,50.46 L59.67,50.51 L42.26,50.51 L41.84,50.46 L41.46,50.30 L41.13,50.04 L40.87,49.71 L40.71,49.33 L40.66,48.91 L40.66,41.66 L40.71,41.25 L40.87,40.86 L41.13,40.53 L41.46,40.28 L41.84,40.12 L42.26,40.07 L59.67,40.07 Z" fill="#ffffff" stroke="#ffffff" stroke-width="1" stroke-linejoin="round" opacity="0.9"/><path d="M87.32,40.07 L87.73,40.12 L88.12,40.28 L88.45,40.53 L88.70,40.86 L88.86,41.25 L88.92,41.66 L88.92,48.91 L88.86,49.33 L88.70,49.71 L88.45,50.04 L88.12,50.30 L87.73,50.46 L87.32,50.51 L69.90,50.51 L69.49,50.46 L69.11,50.30 L68.77,50.04 L68.52,49.71 L68.36,49.33 L68.31,48.91 L68.31,41.66 L68.36,41.25 L68.52,40.86 L68.77,40.53 L69.11,40.28 L69.49,40.12 L69.90,40.07 L87.32,40.07 Z" fill="#ffffff" stroke="#ffffff" stroke-width="1" stroke-linejoin="round" opacity="0.9"/><path d="M32.33,55.15 L32.74,55.21 L33.13,55.37 L33.46,55.62 L33.71,55.95 L33.87,56.34 L33.93,56.75 L33.93,64.00 L33.87,64.42 L33.71,64.80 L33.46,65.13 L33.13,65.39 L32.74,65.55 L32.33,65.60 L14.91,65.60 L14.50,65.55 L14.11,65.39 L13.78,65.13 L13.53,64.80 L13.37,64.42 L13.32,64.00 L13.32,56.75 L13.37,56.34 L13.53,55.95 L13.78,55.62 L14.11,55.37 L14.50,55.21 L14.91,55.15 L32.33,55.15 Z" fill="#ffffff" stroke="#ffffff" stroke-width="1" stroke-linejoin="round" opacity="0.9"/><path d="M59.98,55.01 L60.39,55.06 L60.78,55.22 L61.11,55.48 L61.36,55.81 L61.52,56.19 L61.58,56.61 L61.58,63.86 L61.52,64.27 L61.36,64.66 L61.11,64.99 L60.78,65.24 L60.39,65.40 L59.98,65.46 L42.56,65.46 L42.15,65.40 L41.76,65.24 L41.43,64.99 L41.18,64.66 L41.02,64.27 L40.96,63.86 L40.96,56.61 L41.02,56.19 L41.18,55.81 L41.43,55.48 L41.76,55.22 L42.15,55.06 L42.56,55.01 L59.98,55.01 Z" fill="#ffd400" stroke="#ffd400" stroke-width="1" stroke-linejoin="round"/><path d="M87.63,55.01 L88.04,55.06 L88.42,55.22 L88.76,55.48 L89.01,55.81 L89.17,56.19 L89.22,56.61 L89.22,63.86 L89.17,64.27 L89.01,64.66 L88.76,64.99 L88.42,65.24 L88.04,65.40 L87.63,65.46 L70.21,65.46 L69.80,65.40 L69.41,65.24 L69.08,64.99 L68.83,64.66 L68.67,64.27 L68.61,63.86 L68.61,56.61 L68.67,56.19 L68.83,55.81 L69.08,55.48 L69.41,55.22 L69.80,55.06 L70.21,55.01 L87.63,55.01 Z" fill="#ffd400" stroke="#ffd400" stroke-width="1" stroke-linejoin="round"/><path d="M32.33,70.24 L32.74,70.30 L33.13,70.46 L33.46,70.71 L33.71,71.04 L33.87,71.43 L33.93,71.84 L33.93,79.09 L33.87,79.51 L33.71,79.89 L33.46,80.22 L33.13,80.48 L32.74,80.64 L32.33,80.69 L14.91,80.69 L14.50,80.64 L14.11,80.48 L13.78,80.22 L13.53,79.89 L13.37,79.51 L13.32,79.09 L13.32,71.84 L13.37,71.43 L13.53,71.04 L13.78,70.71 L14.11,70.46 L14.50,70.30 L14.91,70.24 L32.33,70.24 Z" fill="#ffd400" stroke="#ffd400" stroke-width="1" stroke-linejoin="round"/><path d="M59.98,70.10 L60.39,70.15 L60.78,70.31 L61.11,70.57 L61.36,70.90 L61.52,71.28 L61.58,71.70 L61.58,78.95 L61.52,79.36 L61.36,79.74 L61.11,80.08 L60.78,80.33 L60.39,80.49 L59.98,80.54 L42.56,80.54 L42.15,80.49 L41.76,80.33 L41.43,80.08 L41.18,79.74 L41.02,79.36 L40.96,78.95 L40.96,71.70 L41.02,71.28 L41.18,70.90 L41.43,70.57 L41.76,70.31 L42.15,70.15 L42.56,70.10 L59.98,70.10 Z" fill="#ffd400" stroke="#ffd400" stroke-width="1" stroke-linejoin="round"/><path d="M87.63,70.10 L88.04,70.15 L88.42,70.31 L88.76,70.57 L89.01,70.90 L89.17,71.28 L89.22,71.70 L89.22,78.95 L89.17,79.36 L89.01,79.74 L88.76,80.08 L88.42,80.33 L88.04,80.49 L87.63,80.54 L70.21,80.54 L69.80,80.49 L69.41,80.33 L69.08,80.08 L68.83,79.74 L68.67,79.36 L68.61,78.95 L68.61,71.70 L68.67,71.28 L68.83,70.90 L69.08,70.57 L69.41,70.31 L69.80,70.15 L70.21,70.10 L87.63,70.10 Z" fill="#ffd400" stroke="#ffd400" stroke-width="1" stroke-linejoin="round"/></svg>