<svg xmlns="http://www.w3.org/2000/svg" viewBox="-0.97 -0.31 100.00 98.43"><path d="M96.10,15.56 L83.10,2.67 L82.03,1.93 L80.76,1.69 L56.65,2.61 L55.43,2.82 L54.42,3.54 L1.85,55.89 L1.03,57.32 L1.03,58.97 L1.85,60.41 L36.90,95.29 L38.35,96.11 L40.02,96.11 L41.47,95.29 L94.20,42.88 L94.84,41.96 L95.13,40.87 L97.03,18.07 L96.85,16.71 L96.10,15.56 L96.10,15.56 Z" fill="#916ac8" stroke="#916ac8" stroke-width="1" stroke-linejoin="round"/><path d="M80.43,24.11 L78.34,23.72 L76.53,22.62 L75.22,20.95 L74.60,18.92 L74.73,16.80 L75.61,14.87 L77.12,13.38 L79.06,12.52 L81.18,12.40 L83.20,13.05 L84.86,14.37 L85.95,16.19 L86.31,18.28 L86.02,20.09 L85.18,21.73 L83.88,23.02 L82.24,23.84 L80.43,24.11 L80.43,24.11 Z" fill="#ffffff" stroke="#ffffff" stroke-width="1" stroke-linejoin="round"/><path d="M80.43,7.84 L77.58,8.25 L74.95,9.43 L72.73,11.28 L71.11,13.66 L70.21,16.40 L70.09,19.28 L70.75,22.09 L72.17,24.60 L74.21,26.64 L76.73,28.04 L79.54,28.69 L82.42,28.55 L85.15,27.63 L87.53,26.00 L89.37,23.78 L90.54,21.14 L90.93,18.28 L90.57,15.58 L89.51,13.06 L87.84,10.89 L85.67,9.23 L83.14,8.19 L80.43,7.84 L80.43,7.84 Z" fill="#552f99" stroke="#552f99" stroke-width="1" stroke-linejoin="round"/><path d="M86.20,19.43 L85.43,21.38 L84.01,22.94 L82.14,23.91 L80.05,24.15 L78.01,23.63 L76.28,22.44 L75.08,20.71 L74.57,18.67 L74.81,16.57 L75.77,14.70 L77.33,13.29 L79.29,12.52 L81.20,12.45 L83.04,13.01 L84.59,14.12 L85.71,15.68 L86.26,17.51 L86.20,19.43 Z" fill="#ffffff" stroke="#ffffff" stroke-width="1" stroke-linejoin="round"/></svg>