<svg xmlns="http://www.w3.org/2000/svg" viewBox="-0.99 -0.35 98.08 96.54"><path d="M94.19,15.25 L81.44,2.61 L80.39,1.89 L79.15,1.65 L55.52,2.56 L54.33,2.77 L53.33,3.47 L1.81,54.77 L1.01,56.18 L1.01,57.80 L1.81,59.20 L36.16,93.39 L37.58,94.20 L39.22,94.20 L40.64,93.39 L92.32,42.03 L92.95,41.12 L93.23,40.05 L95.09,17.71 L94.92,16.38 L94.19,15.25 L94.19,15.25 Z" fill="#916ac8" stroke="#916ac8" stroke-width="1" stroke-linejoin="round"/><path d="M78.83,23.63 L76.78,23.25 L75.00,22.17 L73.72,20.53 L73.11,18.54 L73.24,16.47 L74.10,14.57 L75.58,13.11 L77.48,12.27 L79.56,12.15 L81.54,12.79 L83.17,14.08 L84.23,15.87 L84.59,17.92 L84.30,19.69 L83.48,21.29 L82.21,22.56 L80.60,23.36 L78.83,23.63 L78.83,23.63 Z" fill="#ffffff" stroke="#ffffff" stroke-width="1" stroke-linejoin="round"/><path d="M78.83,7.68 L76.03,8.08 L73.45,9.24 L71.28,11.05 L69.70,13.39 L68.81,16.08 L68.69,18.90 L69.34,21.65 L70.73,24.11 L72.73,26.11 L75.20,27.48 L77.95,28.12 L80.78,27.98 L83.46,27.08 L85.79,25.48 L87.59,23.31 L88.73,20.72 L89.12,17.92 L88.76,15.27 L87.72,12.80 L86.09,10.68 L83.96,9.05 L81.48,8.03 L78.83,7.68 L78.83,7.68 Z" fill="#552f99" stroke="#552f99" stroke-width="1" stroke-linejoin="round"/><path d="M84.48,19.04 L83.72,20.96 L82.34,22.49 L80.50,23.43 L78.45,23.66 L76.45,23.16 L74.76,21.99 L73.58,20.29 L73.08,18.29 L73.32,16.24 L74.26,14.41 L75.79,13.02 L77.71,12.27 L79.58,12.21 L81.38,12.75 L82.90,13.84 L84.00,15.37 L84.54,17.16 L84.48,19.04 Z" fill="#ffffff" stroke="#ffffff" stroke-width="1" stroke-linejoin="round"/></svg>