<svg xmlns="http://www.w3.org/2000/svg" viewBox="4.52 0.67 87.04 94.58"><path d="M79.88,13.33 L69.87,3.39 L69.02,2.84 L68.02,2.67 L49.45,3.34 L48.54,3.55 L47.78,4.06 L7.16,44.47 L6.52,45.58 L6.52,46.86 L7.16,47.96 L34.22,74.88 L35.33,75.52 L36.61,75.52 L37.72,74.88 L78.40,34.42 L78.90,33.72 L79.11,32.89 L80.60,15.29 L80.46,14.23 L79.88,13.33 L79.88,13.33 Z" fill="#773adc" stroke="#773adc" stroke-width="1" stroke-linejoin="round"/><path d="M67.79,19.93 L65.93,19.51 L64.41,18.36 L63.50,16.68 L63.37,14.78 L64.04,12.99 L65.40,11.65 L67.19,10.98 L69.09,11.12 L70.77,12.04 L71.91,13.57 L72.31,15.43 L71.97,17.16 L70.99,18.62 L69.52,19.59 L67.79,19.93 L67.79,19.93 Z" fill="#ffffff" stroke="#ffffff" stroke-width="1" stroke-linejoin="round"/><path d="M67.79,7.38 L65.30,7.78 L63.06,8.94 L61.29,10.73 L60.16,12.98 L59.77,15.47 L60.17,17.96 L61.33,20.20 L63.11,21.98 L65.36,23.12 L67.85,23.50 L70.34,23.10 L72.58,21.96 L74.36,20.17 L75.51,17.92 L75.90,15.43 L75.50,12.94 L74.34,10.69 L72.55,8.90 L70.29,7.76 L67.79,7.38 L67.79,7.38 Z" fill="#341a6e" stroke="#341a6e" stroke-width="1" stroke-linejoin="round"/><path d="M72.23,16.31 L71.46,18.10 L70.02,19.39 L68.16,19.96 L66.24,19.71 L64.60,18.67 L63.55,17.04 L63.28,15.12 L63.84,13.26 L65.12,11.81 L66.90,11.02 L68.67,11.00 L70.31,11.66 L71.56,12.91 L72.24,14.54 L72.23,16.31 L72.23,16.31 Z" fill="#ffffff" stroke="#ffffff" stroke-width="1" stroke-linejoin="round"/><path d="M88.84,31.08 L78.83,21.12 L77.98,20.57 L76.98,20.40 L58.41,21.07 L57.51,21.28 L56.74,21.79 L16.12,62.20 L15.48,63.31 L15.48,64.59 L16.12,65.69 L43.20,92.61 L44.31,93.25 L45.59,93.25 L46.70,92.61 L87.36,52.15 L87.85,51.45 L88.07,50.62 L89.56,33.02 L89.41,31.97 L88.84,31.08 L88.84,31.08 Z" fill="#9a72ce" stroke="#9a72ce" stroke-width="1" stroke-linejoin="round"/><path d="M76.76,37.66 L74.89,37.25 L73.37,36.10 L72.46,34.42 L72.33,32.51 L73.00,30.73 L74.36,29.38 L76.15,28.72 L78.05,28.86 L79.73,29.77 L80.87,31.30 L81.27,33.17 L80.93,34.89 L79.95,36.35 L78.48,37.32 L76.76,37.66 L76.76,37.66 Z" fill="#773adc" stroke="#773adc" stroke-width="1" stroke-linejoin="round"/><path d="M76.76,25.10 L74.27,25.51 L72.03,26.66 L70.25,28.45 L69.12,30.70 L68.73,33.19 L69.13,35.68 L70.28,37.92 L72.07,39.70 L74.32,40.84 L76.81,41.23 L79.30,40.83 L81.54,39.69 L83.32,37.90 L84.46,35.66 L84.86,33.17 L84.46,30.67 L83.30,28.42 L81.51,26.64 L79.26,25.49 L76.76,25.10 L76.76,25.10 Z" fill="#552f99" stroke="#552f99" stroke-width="1" stroke-linejoin="round"/><path d="M81.19,34.05 L80.42,35.83 L78.98,37.13 L77.12,37.70 L75.20,37.44 L73.56,36.40 L72.51,34.77 L72.24,32.85 L72.80,30.99 L74.08,29.54 L75.86,28.76 L77.62,28.74 L79.26,29.40 L80.52,30.65 L81.19,32.28 L81.19,34.05 L81.19,34.05 Z" fill="#773adc" stroke="#773adc" stroke-width="1" stroke-linejoin="round"/><path d="M81.19,34.05 L80.42,35.83 L78.98,37.13 L77.12,37.70 L75.20,37.44 L73.56,36.40 L72.51,34.77 L72.24,32.85 L72.80,30.99 L74.08,29.54 L75.86,28.76 L77.62,28.74 L79.26,29.40 L80.52,30.65 L81.19,32.28 L81.19,34.05 L81.19,34.05 Z" fill="#ffffff" stroke="#ffffff" stroke-width="1" stroke-linejoin="round"/><path d="M72.23,16.31 L71.46,18.10 L70.02,19.39 L68.16,19.96 L66.24,19.71 L64.60,18.67 L63.55,17.04 L63.28,15.12 L63.84,13.26 L65.12,11.81 L66.90,11.02 L68.67,11.00 L70.31,11.66 L71.56,12.91 L72.24,14.54 L72.23,16.31 Z" fill="#ffffff" stroke="#ffffff" stroke-width="1" stroke-linejoin="round"/></svg>