<svg xmlns="http://www.w3.org/2000/svg" viewBox="4.91 0.83 92.00 100.00"><path d="M84.65,14.13 L74.04,3.59 L73.14,3.01 L72.08,2.83 L52.40,3.54 L51.45,3.76 L50.64,4.31 L7.59,47.13 L6.91,48.31 L6.91,49.66 L7.59,50.83 L36.26,79.36 L37.44,80.04 L38.80,80.04 L39.98,79.36 L83.09,36.48 L83.61,35.73 L83.85,34.85 L85.42,16.20 L85.27,15.08 L84.65,14.13 L84.65,14.13 Z" fill="#773adc" stroke="#773adc" stroke-width="1" stroke-linejoin="round"/><path d="M71.85,21.12 L69.87,20.68 L68.26,19.46 L67.30,17.68 L67.16,15.66 L67.87,13.77 L69.31,12.34 L71.21,11.64 L73.22,11.79 L75.00,12.76 L76.21,14.38 L76.64,16.36 L76.27,18.19 L75.23,19.73 L73.68,20.76 L71.85,21.12 L71.85,21.12 Z" fill="#ffffff" stroke="#ffffff" stroke-width="1" stroke-linejoin="round"/><path d="M71.85,7.82 L69.21,8.25 L66.84,9.47 L64.96,11.37 L63.75,13.76 L63.34,16.40 L63.77,19.03 L64.99,21.41 L66.89,23.29 L69.27,24.50 L71.91,24.91 L74.55,24.49 L76.93,23.27 L78.81,21.38 L80.02,19.00 L80.44,16.36 L80.01,13.71 L78.79,11.33 L76.89,9.44 L74.49,8.23 L71.85,7.82 L71.85,7.82 Z" fill="#341a6e" stroke="#341a6e" stroke-width="1" stroke-linejoin="round"/><path d="M76.55,17.29 L75.74,19.18 L74.21,20.55 L72.24,21.16 L70.20,20.89 L68.47,19.78 L67.35,18.06 L67.06,16.02 L67.65,14.05 L69.01,12.51 L70.90,11.68 L72.77,11.66 L74.51,12.36 L75.84,13.68 L76.56,15.41 L76.55,17.29 L76.55,17.29 Z" fill="#ffffff" stroke="#ffffff" stroke-width="1" stroke-linejoin="round"/><path d="M94.16,32.94 L83.54,22.38 L82.64,21.80 L81.58,21.62 L61.90,22.33 L60.95,22.55 L60.13,23.10 L17.09,65.92 L16.41,67.09 L16.41,68.45 L17.09,69.62 L45.78,98.15 L46.96,98.83 L48.32,98.83 L49.50,98.15 L92.58,55.27 L93.11,54.53 L93.34,53.65 L94.91,34.99 L94.76,33.88 L94.16,32.94 L94.16,32.94 Z" fill="#9a72ce" stroke="#9a72ce" stroke-width="1" stroke-linejoin="round"/><path d="M81.35,39.92 L79.37,39.48 L77.76,38.26 L76.79,36.48 L76.66,34.46 L77.37,32.57 L78.80,31.14 L80.70,30.43 L82.72,30.58 L84.49,31.55 L85.70,33.17 L86.13,35.15 L85.77,36.98 L84.73,38.52 L83.18,39.56 L81.35,39.92 L81.35,39.92 Z" fill="#773adc" stroke="#773adc" stroke-width="1" stroke-linejoin="round"/><path d="M81.35,26.61 L78.71,27.03 L76.34,28.26 L74.45,30.15 L73.25,32.54 L72.84,35.18 L73.27,37.81 L74.49,40.19 L76.38,42.08 L78.76,43.28 L81.40,43.70 L84.04,43.28 L86.42,42.06 L88.30,40.17 L89.52,37.79 L89.93,35.15 L89.51,32.51 L88.28,30.12 L86.39,28.23 L83.99,27.02 L81.35,26.61 L81.35,26.61 Z" fill="#552f99" stroke="#552f99" stroke-width="1" stroke-linejoin="round"/><path d="M86.04,36.08 L85.23,37.97 L83.70,39.35 L81.74,39.95 L79.70,39.68 L77.96,38.58 L76.85,36.85 L76.56,34.82 L77.15,32.85 L78.51,31.31 L80.39,30.48 L82.27,30.46 L84.00,31.16 L85.33,32.48 L86.05,34.21 L86.04,36.08 L86.04,36.08 Z" fill="#773adc" stroke="#773adc" stroke-width="1" stroke-linejoin="round"/><path d="M86.04,36.08 L85.23,37.97 L83.70,39.35 L81.74,39.95 L79.70,39.68 L77.96,38.58 L76.85,36.85 L76.56,34.82 L77.15,32.85 L78.51,31.31 L80.39,30.48 L82.27,30.46 L84.00,31.16 L85.33,32.48 L86.05,34.21 L86.04,36.08 L86.04,36.08 Z" fill="#ffffff" stroke="#ffffff" stroke-width="1" stroke-linejoin="round"/><path d="M76.55,17.29 L75.74,19.18 L74.21,20.55 L72.24,21.16 L70.20,20.89 L68.47,19.78 L67.35,18.06 L67.06,16.02 L67.65,14.05 L69.01,12.51 L70.90,11.68 L72.77,11.66 L74.51,12.36 L75.84,13.68 L76.56,15.41 L76.55,17.29 Z" fill="#ffffff" stroke="#ffffff" stroke-width="1" stroke-linejoin="round"/></svg>