<svg xmlns="http://www.w3.org/2000/svg" viewBox="0.82 6.86 100.00 87.93"><path d="M74.17,26.31 L69.37,26.31 L69.37,13.68 L69.30,13.67 L69.23,13.68 L33.01,13.68 L32.93,13.67 L32.86,13.68 L32.86,26.31 L28.06,26.31 L28.06,13.43 L28.50,11.63 L29.59,10.13 L31.17,9.15 L33.01,8.86 L69.23,8.86 L71.06,9.15 L72.64,10.13 L73.74,11.63 L74.17,13.43 L74.17,26.31 Z" fill="#a3a3a3" stroke="#1e1e1e" stroke-width="1" stroke-linejoin="round"/><path d="M95.62,25.74 L96.45,25.85 L97.22,26.17 L97.89,26.68 L98.39,27.35 L98.71,28.12 L98.82,28.95 L98.82,89.58 L98.71,90.41 L98.39,91.19 L97.89,91.85 L97.22,92.36 L96.45,92.68 L95.62,92.79 L6.03,92.79 L5.20,92.68 L4.42,92.36 L3.76,91.85 L3.25,91.19 L2.93,90.41 L2.82,89.58 L2.82,28.95 L2.93,28.12 L3.25,27.35 L3.76,26.68 L4.42,26.17 L5.20,25.85 L6.03,25.74 L95.62,25.74 Z" fill="#3990e4" stroke="#1e1e1e" stroke-width="1" stroke-linejoin="round"/><rect x="2.82" y="42.88" width="96.00" height="7.40" fill="#9cebff" stroke="#9cebff" stroke-width="1"/><path d="M37.37,50.29 L64.94,50.29 L64.94,50.29 L64.94,58.93 L64.73,59.73 L64.15,60.31 L63.35,60.52 L38.96,60.52 L38.17,60.31 L37.59,59.73 L37.38,58.93 L37.38,50.29 L37.37,50.29 Z" fill="#005ba1" stroke="#005ba1" stroke-width="1" stroke-linejoin="round"/><path d="M2.82,61.52 L2.82,78.43 L29.05,86.84 L33.97,71.50 L2.82,61.52 Z" fill="#83b9f9" stroke="#1e1e1e" stroke-width="1" stroke-linejoin="round"/><path d="M98.82,60.68 L95.37,59.40 L91.71,58.99 L88.06,59.46 L84.62,60.78 L81.60,62.89 L79.16,65.65 L77.46,68.92 L76.58,72.49 L76.58,76.18 L77.46,79.75 L79.16,83.02 L81.60,85.78 L84.62,87.89 L88.06,89.22 L91.71,89.68 L95.37,89.27 L98.82,87.99 L98.82,60.68 Z" fill="#5ea0ef" stroke="#1e1e1e" stroke-width="1" stroke-linejoin="round"/></svg>