<svg xmlns="http://www.w3.org/2000/svg" viewBox="4.75 3.18 86.57 89.62"><path d="M76.64,22.24 L77.07,22.61 L77.57,22.81 L78.08,22.61 L82.03,19.31 L89.17,7.52 L89.33,7.07 L89.17,6.61 L87.95,5.33 L87.49,5.18 L87.04,5.33 L75.79,12.96 L72.59,17.07 L72.41,17.55 L72.59,18.03 L73.01,18.45 L49.76,42.67 L44.96,37.33 L39.63,42.67 L39.75,44.82 L39.40,46.95 L38.58,48.95 L37.33,50.72 L35.81,52.04 L34.01,52.95 L32.04,53.41 L30.03,53.39 L7.15,76.59 L6.75,77.24 L6.75,78.01 L7.15,78.67 L18.24,90.19 L18.91,90.60 L19.70,90.60 L20.37,90.19 L42.67,66.93 L42.65,64.83 L43.10,62.78 L44.01,60.89 L45.33,59.25 L47.44,57.60 L49.96,56.68 L52.64,56.59 L57.97,51.25 L53.33,46.08 L76.64,22.24 Z" fill="#127dae" stroke="#1e1e1e" stroke-width="1" stroke-linejoin="round"/><path d="M85.87,75.04 L80.53,69.33 L44.91,32.80 L44.91,32.80 L43.15,30.88 L43.85,27.47 L43.95,23.99 L43.45,20.55 L42.34,17.25 L40.68,14.19 L38.51,11.47 L35.77,9.12 L32.62,7.37 L29.20,6.26 L25.62,5.84 L22.03,6.13 L21.46,6.66 L21.60,7.41 L30.88,16.85 L30.97,17.23 L30.88,17.60 L28.64,27.25 L28.45,27.59 L28.11,27.79 L18.61,30.40 L18.24,30.50 L17.87,30.40 L8.85,20.85 L8.34,20.63 L7.81,20.83 L7.57,21.33 L7.29,25.01 L7.71,28.68 L8.82,32.19 L10.57,35.44 L12.91,38.29 L15.90,40.80 L19.37,42.59 L23.14,43.60 L27.04,43.77 L30.88,43.09 L31.20,43.47 L33.23,45.55 L33.23,45.55 L73.81,88.21 L75.88,89.82 L78.34,90.71 L80.96,90.80 L83.48,90.09 L85.65,88.64 L86.08,88.21 L87.47,86.33 L88.33,84.14 L88.59,81.81 L88.27,79.35 L87.34,77.04 L85.87,75.04 L85.87,75.04 Z" fill="#2bc0e3" stroke="#1e1e1e" stroke-width="1" stroke-linejoin="round"/></svg>