<svg xmlns="http://www.w3.org/2000/svg" viewBox="5.26 0.67 85.47 94.66"><path d="M81.79,63.83 L87.78,63.83 L88.46,64.11 L88.74,64.79 L88.74,85.38 L88.74,85.38 L80.83,85.38 L80.83,85.38 L80.83,64.79 L81.11,64.11 L81.79,63.83 L81.79,63.83 Z" fill="#767676" stroke="#767676" stroke-width="1" stroke-linejoin="round"/><path d="M8.22,64.35 L14.47,64.35 L15.15,64.63 L15.43,65.31 L15.43,85.38 L15.43,85.38 L7.26,85.38 L7.26,85.38 L7.26,65.31 L7.55,64.63 L8.22,64.35 L8.22,64.35 Z" fill="#767676" stroke="#767676" stroke-width="1" stroke-linejoin="round"/><path d="M7.26,90.74 L7.26,85.40 L7.26,85.40 L88.74,85.40 L88.74,85.40 L88.74,90.74 L88.39,92.03 L87.44,92.99 L86.14,93.33 L9.85,93.33 L8.55,92.98 L7.61,92.03 L7.26,90.74 L7.26,90.74 Z" fill="#949494" stroke="#949494" stroke-width="1" stroke-linejoin="round"/><rect x="19.78" y="38.80" width="15.35" height="41.35" fill="#0078d4" stroke="#1e1e1e" stroke-width="1"/><rect x="40.27" y="38.80" width="15.35" height="41.35" fill="#0078d4" stroke="#1e1e1e" stroke-width="1"/><rect x="60.75" y="38.80" width="15.35" height="41.35" fill="#37c2b1" stroke="#1e1e1e" stroke-width="1"/><path d="M75.20,18.77 L59.35,2.91 L58.78,2.67 L58.21,2.91 L57.97,3.48 L57.97,12.73 L54.40,12.84 L50.85,13.20 L47.36,13.79 L43.95,14.61 L40.65,15.65 L37.49,16.92 L34.51,18.41 L31.71,20.12 L29.14,22.05 L26.83,24.19 L24.79,26.53 L23.06,29.09 L21.66,31.84 L20.63,34.80 L20.00,37.96 L19.78,41.31 L21.31,39.49 L23.83,37.24 L27.31,34.76 L31.71,32.27 L34.26,31.09 L37.02,29.98 L39.99,28.97 L43.18,28.08 L46.58,27.35 L50.18,26.79 L53.98,26.44 L57.97,26.31 L57.97,35.20 L58.21,35.77 L58.78,36.01 L59.35,35.77 L75.20,19.91 L75.44,19.34 L75.20,18.77 Z" fill="#3edac1" stroke="#1e1e1e" stroke-width="1" stroke-linejoin="round"/></svg>