<svg xmlns="http://www.w3.org/2000/svg" viewBox="2.45 -2.00 91.10 100.00"><path d="M91.55,42.40 L91.04,38.50 L89.76,34.78 L87.76,31.40 L85.12,28.48 L81.96,26.15 L78.39,24.50 L74.57,23.59 L74.01,19.36 L72.74,15.29 L70.79,11.50 L68.21,8.10 L65.08,5.19 L61.50,2.87 L57.58,1.20 L53.42,0.24 L49.16,0.00 L44.72,0.31 L40.40,1.40 L36.34,3.22 L32.66,5.73 L29.48,8.84 L26.89,12.47 L24.98,16.49 L20.93,17.35 L17.10,18.91 L13.60,21.13 L10.55,23.92 L8.04,27.21 L6.15,30.89 L4.94,34.85 L4.45,38.96 L4.96,43.05 L6.18,46.99 L8.06,50.66 L10.55,53.95 L13.58,56.76 L17.04,59.00 L20.84,60.60 L24.86,61.53 L28.98,61.74 L31.14,61.64 L70.86,61.64 L71.40,61.60 L71.93,61.49 L75.68,61.10 L79.29,60.00 L82.63,58.24 L85.57,55.88 L88.01,53.01 L89.86,49.72 L91.06,46.14 L91.55,42.40 L91.55,42.40 Z" fill="#3990e4" stroke="#1e1e1e" stroke-width="1" stroke-linejoin="round"/><rect x="10.29" y="67.63" width="79.51" height="5.75" fill="#198ab3" stroke="#198ab3" stroke-width="1"/><rect x="10.29" y="78.90" width="59.43" height="5.75" fill="#32bedd" stroke="#32bedd" stroke-width="1"/><rect x="10.29" y="90.09" width="47.65" height="5.91" fill="#50e6ff" stroke="#50e6ff" stroke-width="1"/></svg>