<svg xmlns="http://www.w3.org/2000/svg" viewBox="0.84 0.88 99.98 100.00"><path d="M18.28,50.84 L15.82,54.79 L20.21,60.71 L24.94,66.35 L30.01,71.70 L35.35,76.75 L40.98,81.48 L46.89,85.86 L50.84,83.39 L44.56,78.90 L38.59,73.99 L32.96,68.70 L27.68,63.08 L22.77,57.12 L18.28,50.84 L18.28,50.84 Z" fill="#b3b3b3" stroke="#1e1e1e" stroke-width="1" stroke-linejoin="round"/><path d="M10.70,10.69 L13.02,9.00 L15.63,7.80 L18.42,7.14 L21.29,7.03 L25.74,7.41 L30.13,8.30 L34.39,9.68 L40.83,12.44 L46.99,15.78 L50.84,13.25 L43.52,9.12 L35.81,5.76 L31.31,4.31 L27.04,3.36 L23.04,2.88 L19.33,2.89 L15.92,3.39 L12.84,4.36 L10.10,5.81 L7.74,7.74 L6.30,9.41 L5.11,11.27 L4.17,13.31 L3.48,15.51 L3.04,17.87 L2.84,20.37 L2.87,23.01 L3.14,25.76 L3.64,28.63 L4.36,31.59 L5.30,34.64 L6.47,37.77 L9.43,44.22 L13.21,50.84 L15.82,46.89 L12.71,41.21 L10.25,35.70 L8.46,30.44 L7.38,25.51 L7.11,23.20 L7.03,21.00 L7.14,18.92 L7.45,16.97 L7.95,15.16 L8.66,13.51 L9.57,12.01 L10.70,10.69 Z" fill="#b3b3b3" stroke="#1e1e1e" stroke-width="1" stroke-linejoin="round"/><path d="M21.30,98.86 L17.60,98.68 L14.02,97.77 L10.69,96.17 L7.74,93.94 L5.80,91.56 L4.35,88.82 L3.38,85.77 L2.89,82.41 L2.86,78.80 L3.28,74.94 L4.14,70.88 L5.43,66.65 L7.14,62.27 L9.26,57.77 L11.78,53.18 L14.69,48.54 L17.98,43.87 L21.63,39.21 L25.65,34.57 L30.01,30.00 L36.31,23.98 L43.10,18.50 L50.32,13.62 L57.93,9.36 L65.87,5.76 L70.37,4.31 L74.64,3.35 L78.64,2.88 L82.35,2.89 L85.76,3.38 L88.85,4.36 L91.58,5.81 L93.94,7.74 L95.88,10.12 L97.32,12.85 L98.29,15.91 L98.78,19.26 L98.82,22.88 L98.40,26.73 L97.54,30.79 L96.25,35.02 L94.54,39.40 L92.42,43.90 L89.90,48.49 L86.99,53.13 L83.70,57.80 L80.05,62.46 L76.03,67.10 L71.67,71.67 L65.12,77.79 L58.47,83.20 L51.80,87.85 L45.21,91.73 L38.77,94.80 L35.64,96.03 L32.58,97.04 L29.61,97.83 L26.73,98.40 L23.96,98.74 L21.30,98.86 Z" fill="#5ea0ef" stroke="#1e1e1e" stroke-width="1" stroke-linejoin="round"/><path d="M80.40,7.03 L75.94,7.41 L71.55,8.30 L67.30,9.68 L59.69,13.14 L52.41,17.23 L45.49,21.92 L38.99,27.18 L32.96,32.96 L29.02,37.09 L25.36,41.30 L22.00,45.56 L18.94,49.84 L16.20,54.10 L13.80,58.32 L11.74,62.46 L10.04,66.49 L8.70,70.38 L7.75,74.10 L7.18,77.61 L7.03,80.88 L7.29,83.89 L7.98,86.59 L9.11,88.97 L10.70,90.98 L12.71,92.56 L15.08,93.70 L17.79,94.39 L20.79,94.65 L24.07,94.49 L27.58,93.93 L31.30,92.98 L35.18,91.64 L39.21,89.94 L43.36,87.88 L47.57,85.47 L51.84,82.74 L56.12,79.68 L60.38,76.32 L64.59,72.66 L68.72,68.71 L72.66,64.58 L76.32,60.37 L79.68,56.11 L82.74,51.83 L85.48,47.57 L87.88,43.35 L89.94,39.21 L91.65,35.18 L92.98,31.29 L93.94,27.57 L94.50,24.06 L94.65,20.79 L94.39,17.78 L93.70,15.08 L92.57,12.70 L90.98,10.69 L90.98,10.69 L88.66,9.00 L86.06,7.80 L83.26,7.14 L80.40,7.03 L80.40,7.03 Z" fill="#ffffff" stroke="#1e1e1e" stroke-width="1" stroke-linejoin="round"/><path d="M15.82,46.90 L19.73,52.96 L16.60,55.88 L11.84,48.58 L15.82,46.90 Z" fill="#b3b3b3" stroke="#b3b3b3" stroke-width="1" stroke-linejoin="round"/><path d="M85.02,45.80 L78.68,37.61 L71.67,29.98 L66.30,24.91 L60.63,20.17 L54.69,15.78 L50.84,18.22 L57.12,22.73 L63.09,27.65 L68.72,32.96 L73.57,38.09 L78.09,43.52 L82.28,49.21 L85.86,54.79 L88.97,60.48 L91.43,65.99 L93.22,71.25 L94.30,76.18 L94.57,78.50 L94.65,80.70 L94.54,82.78 L94.24,84.73 L93.73,86.54 L93.02,88.19 L92.11,89.68 L90.98,91.00 L89.66,92.13 L88.17,93.04 L86.51,93.75 L84.71,94.26 L82.76,94.56 L80.67,94.68 L78.47,94.59 L76.15,94.33 L71.22,93.24 L65.96,91.46 L60.45,89.00 L54.77,85.89 L50.82,88.49 L56.21,91.81 L61.93,94.55 L67.91,96.65 L74.07,98.10 L80.36,98.88 L84.06,98.70 L87.64,97.79 L90.97,96.19 L93.92,93.96 L95.32,92.34 L96.48,90.55 L97.40,88.59 L98.09,86.48 L98.55,84.21 L98.78,81.82 L98.79,79.29 L98.57,76.65 L98.14,73.91 L97.50,71.07 L96.65,68.14 L95.60,65.14 L92.89,58.94 L89.40,52.57 L89.45,52.54 L88.80,51.51 L88.42,50.86 L88.42,50.90 L85.02,45.80 Z" fill="#b3b3b3" stroke="#1e1e1e" stroke-width="1" stroke-linejoin="round"/><path d="M61.14,64.67 L57.80,66.71 L54.08,67.96 L50.17,68.34 L46.28,67.85 L42.60,66.50 L39.31,64.37 L36.57,61.56 L34.53,58.21 L33.29,54.49 L32.90,50.59 L33.39,46.70 L34.74,43.02 L36.87,39.72 L39.68,36.99 L39.85,36.85 L43.22,34.83 L46.95,33.61 L50.85,33.25 L54.74,33.77 L58.42,35.14 L61.70,37.29 L64.42,40.12 L66.44,43.48 L67.66,47.21 L68.03,51.12 L67.51,55.01 L66.14,58.69 L63.99,61.97 L61.16,64.69 L61.14,64.67 Z" fill="#3a90e5" stroke="#1e1e1e" stroke-width="1" stroke-linejoin="round"/><ellipse cx="40.87" cy="50.16" rx="5.63" ry="5.63" fill="#e7e7e7" stroke="#e7e7e7" stroke-width="1"/><ellipse cx="52.74" cy="60.45" rx="3.66" ry="3.66" fill="#e7e7e7" stroke="#e7e7e7" stroke-width="1"/><ellipse cx="61.09" cy="51.37" rx="3.89" ry="3.89" fill="#ffffff" stroke="#ffffff" stroke-width="1"/><path d="M35.24,59.62 L35.85,60.59 L36.52,61.52 L37.07,62.21 L37.65,62.86 L38.58,59.23 L39.88,55.71 L38.30,55.18 L36.94,54.21 L35.99,56.89 L35.24,59.62 L35.24,59.62 Z" fill="#f2f2f2" stroke="#f2f2f2" stroke-width="1" stroke-linejoin="round" opacity="0.55"/><path d="M38.98,44.86 L38.07,41.87 L37.55,38.79 L36.34,40.23 L35.29,41.80 L35.77,44.26 L36.47,46.67 L37.60,45.59 L38.98,44.86 L38.98,44.86 Z" fill="#f2f2f2" stroke="#f2f2f2" stroke-width="1" stroke-linejoin="round" opacity="0.55"/><path d="M44.98,54.00 L43.58,55.10 L41.90,55.70 L43.35,57.08 L44.90,58.35 L46.95,59.74 L49.12,60.92 L49.09,60.69 L49.08,60.45 L49.38,59.03 L50.21,57.83 L47.47,56.09 L44.98,54.00 L44.98,54.00 Z" fill="#f2f2f2" stroke="#f2f2f2" stroke-width="1" stroke-linejoin="round" opacity="0.55"/><path d="M56.39,60.22 L56.39,60.45 L56.12,61.83 L55.35,63.01 L58.85,63.48 L62.39,63.51 L63.65,62.19 L64.76,60.74 L63.41,60.85 L62.06,60.89 L59.21,60.72 L56.39,60.22 Z" fill="#f2f2f2" stroke="#f2f2f2" stroke-width="1" stroke-linejoin="round" opacity="0.55"/><path d="M58.51,48.63 L55.03,45.85 L51.78,42.79 L55.69,41.18 L59.80,40.17 L64.01,39.79 L62.58,38.20 L60.95,36.81 L56.02,37.55 L51.27,39.10 L49.37,40.15 L49.31,40.11 L47.11,37.20 L45.22,34.08 L44.08,34.47 L42.96,34.94 L44.93,38.26 L47.23,41.34 L44.94,43.01 L42.85,44.93 L44.42,45.83 L45.63,47.19 L47.56,45.52 L49.65,44.06 L53.30,47.54 L57.25,50.67 L57.71,49.55 L58.51,48.63 Z" fill="#f2f2f2" stroke="#1e1e1e" stroke-width="1" stroke-linejoin="round" opacity="0.55"/><path d="M66.96,53.67 L66.89,53.63 L66.28,53.30 L66.17,53.24 L65.60,52.93 L65.47,52.86 L64.82,52.48 L64.31,53.54 L63.51,54.39 L64.27,54.83 L64.45,54.93 L65.17,55.33 L65.23,55.37 L67.01,56.31 L67.01,56.31 L67.33,55.17 L67.58,54.01 L66.96,53.67 Z" fill="#f2f2f2" stroke="#f2f2f2" stroke-width="1" stroke-linejoin="round" opacity="0.55"/><ellipse cx="40.87" cy="50.16" rx="5.63" ry="5.63" fill="#ffffff" stroke="#ffffff" stroke-width="1"/><ellipse cx="52.74" cy="60.45" rx="3.66" ry="3.66" fill="#ffffff" stroke="#ffffff" stroke-width="1"/></svg>