<svg xmlns="http://www.w3.org/2000/svg" viewBox="-0.81 -2.00 97.62 100.00"><path d="M82.71,41.96 L53.61,41.96 L52.83,41.75 L52.26,41.18 L52.05,40.40 L52.05,29.29 L44.23,29.29 L44.23,40.40 L44.02,41.18 L43.45,41.75 L42.67,41.96 L13.22,41.96 L12.02,42.20 L11.01,42.88 L10.33,43.90 L10.09,45.09 L10.09,59.49 L17.91,59.49 L17.91,51.49 L18.12,50.71 L18.69,50.14 L19.48,49.93 L44.23,49.93 L44.23,70.83 L52.05,70.83 L52.05,49.96 L76.46,49.96 L77.24,50.17 L77.81,50.74 L78.02,51.53 L78.02,59.69 L85.87,59.69 L85.87,45.09 L85.63,43.89 L84.94,42.87 L83.92,42.19 L82.71,41.96 L82.71,41.96 Z" fill="#50e6ff" stroke="#1e1e1e" stroke-width="1" stroke-linejoin="round"/><path d="M60.68,0.00 L61.42,0.10 L62.10,0.38 L62.69,0.83 L63.14,1.42 L63.42,2.10 L63.52,2.84 L63.52,28.53 L63.42,29.26 L63.14,29.95 L62.69,30.53 L62.10,30.99 L61.42,31.27 L60.68,31.37 L34.99,31.37 L34.26,31.27 L33.57,30.99 L32.99,30.53 L32.53,29.95 L32.25,29.26 L32.15,28.53 L32.15,2.84 L32.25,2.10 L32.53,1.42 L32.99,0.83 L33.57,0.38 L34.26,0.10 L34.99,0.00 L60.68,0.00 Z" fill="#0078d4" stroke="#1e1e1e" stroke-width="1" stroke-linejoin="round"/><path d="M55.74,6.03 L56.20,6.09 L56.62,6.26 L56.98,6.54 L57.26,6.90 L57.43,7.32 L57.49,7.78 L57.49,23.59 L57.43,24.05 L57.26,24.47 L56.98,24.83 L56.62,25.11 L56.20,25.28 L55.74,25.34 L39.93,25.34 L39.47,25.28 L39.05,25.11 L38.69,24.83 L38.41,24.47 L38.24,24.05 L38.18,23.59 L38.18,7.78 L38.24,7.32 L38.41,6.90 L38.69,6.54 L39.05,6.26 L39.47,6.09 L39.93,6.03 L55.74,6.03 Z" fill="#ffffff" stroke="#1e1e1e" stroke-width="1" stroke-linejoin="round"/><path d="M24.48,59.56 L25.08,59.64 L25.64,59.87 L26.12,60.24 L26.49,60.72 L26.72,61.28 L26.80,61.88 L26.80,82.85 L26.72,83.45 L26.49,84.01 L26.12,84.49 L25.64,84.86 L25.08,85.09 L24.48,85.17 L3.51,85.17 L2.91,85.09 L2.35,84.86 L1.87,84.49 L1.50,84.01 L1.27,83.45 L1.19,82.85 L1.19,61.88 L1.27,61.28 L1.50,60.72 L1.87,60.24 L2.35,59.87 L2.91,59.64 L3.51,59.56 L24.48,59.56 Z" fill="#7fcb30" stroke="#1e1e1e" stroke-width="1" stroke-linejoin="round"/><path d="M58.62,70.39 L59.22,70.47 L59.78,70.70 L60.26,71.07 L60.63,71.55 L60.86,72.11 L60.94,72.71 L60.94,93.68 L60.86,94.28 L60.63,94.84 L60.26,95.32 L59.78,95.69 L59.22,95.92 L58.62,96.00 L37.65,96.00 L37.05,95.92 L36.49,95.69 L36.01,95.32 L35.64,94.84 L35.41,94.28 L35.33,93.68 L35.33,72.71 L35.41,72.11 L35.64,71.55 L36.01,71.07 L36.49,70.70 L37.05,70.47 L37.65,70.39 L58.62,70.39 Z" fill="#7fcb30" stroke="#1e1e1e" stroke-width="1" stroke-linejoin="round"/><path d="M92.49,59.73 L93.09,59.81 L93.65,60.04 L94.13,60.41 L94.50,60.89 L94.73,61.45 L94.81,62.05 L94.81,83.02 L94.73,83.62 L94.50,84.18 L94.13,84.66 L93.65,85.03 L93.09,85.26 L92.49,85.34 L71.52,85.34 L70.92,85.26 L70.36,85.03 L69.88,84.66 L69.51,84.18 L69.28,83.62 L69.20,83.02 L69.20,62.05 L69.28,61.45 L69.51,60.89 L69.88,60.41 L70.36,60.04 L70.92,59.81 L71.52,59.73 L92.49,59.73 Z" fill="#7fcb30" stroke="#1e1e1e" stroke-width="1" stroke-linejoin="round"/></svg>