<svg xmlns="http://www.w3.org/2000/svg" viewBox="-0.81 -2.00 97.62 100.00"><path d="M82.71,41.96 L53.61,41.96 L52.83,41.75 L52.26,41.18 L52.05,40.40 L52.05,29.29 L44.23,29.29 L44.23,40.40 L44.02,41.18 L43.45,41.75 L42.67,41.96 L13.22,41.96 L12.02,42.20 L11.01,42.88 L10.33,43.90 L10.09,45.09 L10.09,59.49 L17.91,59.49 L17.91,51.49 L18.12,50.71 L18.69,50.14 L19.48,49.93 L44.23,49.93 L44.23,70.83 L52.05,70.83 L52.05,49.96 L76.46,49.96 L77.24,50.17 L77.81,50.74 L78.02,51.53 L78.02,59.69 L85.87,59.69 L85.87,45.09 L85.63,43.89 L84.94,42.87 L83.92,42.19 L82.71,41.96 L82.71,41.96 Z" fill="#50e6ff" stroke="#1e1e1e" stroke-width="1" stroke-linejoin="round"/><rect x="32.15" y="0.00" width="31.37" height="31.37" fill="#0078d4" stroke="#1e1e1e" stroke-width="1"/><rect x="38.18" y="6.03" width="19.32" height="19.32" fill="#ffffff" stroke="#1e1e1e" stroke-width="1"/><rect x="1.19" y="59.56" width="25.61" height="25.61" fill="#7fcb30" stroke="#1e1e1e" stroke-width="1"/><rect x="35.33" y="70.39" width="25.61" height="25.61" fill="#7fcb30" stroke="#1e1e1e" stroke-width="1"/><rect x="69.20" y="59.73" width="25.61" height="25.61" fill="#7fcb30" stroke="#1e1e1e" stroke-width="1"/></svg>