<svg xmlns="http://www.w3.org/2000/svg" viewBox="-2.00 -2.00 100.00 100.00"><path d="M0.00,48.00 L0.03,46.76 L0.12,45.55 L0.28,44.34 L0.49,43.16 L0.76,42.00 L1.08,40.86 L1.46,39.75 L1.89,38.66 L2.37,37.59 L2.90,36.56 L3.47,35.55 L4.10,34.58 L4.77,33.64 L5.48,32.73 L6.23,31.86 L7.03,31.03 L7.86,30.23 L8.73,29.48 L9.64,28.77 L10.58,28.10 L11.55,27.47 L12.56,26.90 L13.59,26.37 L14.66,25.89 L15.75,25.46 L16.86,25.08 L18.00,24.76 L19.16,24.49 L20.34,24.28 L21.55,24.12 L22.76,24.03 L24.00,24.00 L25.23,24.03 L26.45,24.12 L27.65,24.28 L28.84,24.49 L30.00,24.76 L31.14,25.08 L32.25,25.46 L33.34,25.89 L34.40,26.37 L35.44,26.90 L36.44,27.47 L37.42,28.10 L38.36,28.77 L39.27,29.48 L40.14,30.23 L40.97,31.03 L41.76,31.86 L42.52,32.73 L43.23,33.64 L43.90,34.58 L44.52,35.55 L45.10,36.56 L45.63,37.59 L46.11,38.66 L46.54,39.75 L46.92,40.86 L47.24,42.00 L47.51,43.16 L47.72,44.34 L47.88,45.55 L47.97,46.76 L48.00,48.00 L48.00,52.00 L47.96,52.82 L47.84,53.61 L47.64,54.38 L47.37,55.11 L47.03,55.81 L46.63,56.47 L46.17,57.09 L45.66,57.66 L45.09,58.17 L44.47,58.63 L43.81,59.03 L43.11,59.37 L42.38,59.64 L41.61,59.84 L40.82,59.96 L40.00,60.00 L39.18,60.04 L38.39,60.16 L37.62,60.36 L36.89,60.63 L36.19,60.96 L35.53,61.37 L34.91,61.83 L34.34,62.34 L33.83,62.91 L33.37,63.53 L32.97,64.19 L32.63,64.89 L32.36,65.62 L32.16,66.39 L32.04,67.18 L32.00,68.00 L32.00,76.00 L31.97,77.03 L31.90,78.04 L31.77,79.04 L31.59,80.03 L31.37,81.00 L31.10,81.95 L30.79,82.88 L30.43,83.78 L30.03,84.67 L29.59,85.53 L29.10,86.37 L28.58,87.18 L28.03,87.97 L27.43,88.72 L26.80,89.45 L26.14,90.14 L25.45,90.80 L24.72,91.43 L23.97,92.03 L23.18,92.58 L22.37,93.10 L21.53,93.58 L20.67,94.03 L19.78,94.43 L18.88,94.79 L17.95,95.10 L17.00,95.37 L16.03,95.59 L15.05,95.77 L14.04,95.90 L13.03,95.97 L12.00,96.00 L11.38,95.98 L10.77,95.94 L10.17,95.86 L9.58,95.76 L8.43,95.46 L7.33,95.06 L6.28,94.55 L5.29,93.95 L4.37,93.26 L3.51,92.48 L2.74,91.63 L2.05,90.71 L1.45,89.72 L0.94,88.67 L0.54,87.57 L0.24,86.42 L0.14,85.83 L0.06,85.23 L0.02,84.62 L0.00,84.00 L0.00,48.00 Z" fill="#1a5acd" stroke="#1e1e1e" stroke-width="1" stroke-linejoin="round"/><path d="M0.00,48.00 L0.03,46.76 L0.12,45.55 L0.28,44.34 L0.49,43.16 L0.76,42.00 L1.08,40.86 L1.46,39.75 L1.89,38.66 L2.37,37.59 L2.90,36.56 L3.47,35.55 L4.10,34.58 L4.77,33.64 L5.48,32.73 L6.23,31.86 L7.03,31.03 L7.86,30.23 L8.73,29.48 L9.64,28.77 L10.58,28.10 L11.55,27.47 L12.56,26.90 L13.59,26.37 L14.66,25.89 L15.75,25.46 L16.86,25.08 L18.00,24.76 L19.16,24.49 L20.34,24.28 L21.55,24.12 L22.76,24.03 L24.00,24.00 L25.23,24.03 L26.45,24.12 L27.65,24.28 L28.84,24.49 L30.00,24.76 L31.14,25.08 L32.25,25.46 L33.34,25.89 L34.40,26.37 L35.44,26.90 L36.44,27.47 L37.42,28.10 L38.36,28.77 L39.27,29.48 L40.14,30.23 L40.97,31.03 L41.76,31.86 L42.52,32.73 L43.23,33.64 L43.90,34.58 L44.52,35.55 L45.10,36.56 L45.63,37.59 L46.11,38.66 L46.54,39.75 L46.92,40.86 L47.24,42.00 L47.51,43.16 L47.72,44.34 L47.88,45.55 L47.97,46.76 L48.00,48.00 L48.00,52.00 L47.96,52.82 L47.84,53.61 L47.64,54.38 L47.37,55.11 L47.03,55.81 L46.63,56.47 L46.17,57.09 L45.66,57.66 L45.09,58.17 L44.47,58.63 L43.81,59.03 L43.11,59.37 L42.38,59.64 L41.61,59.84 L40.82,59.96 L40.00,60.00 L39.18,60.04 L38.39,60.16 L37.62,60.36 L36.89,60.63 L36.19,60.96 L35.53,61.37 L34.91,61.83 L34.34,62.34 L33.83,62.91 L33.37,63.53 L32.97,64.19 L32.63,64.89 L32.36,65.62 L32.16,66.39 L32.04,67.18 L32.00,68.00 L32.00,76.00 L31.97,77.03 L31.90,78.04 L31.77,79.04 L31.59,80.03 L31.37,81.00 L31.10,81.95 L30.79,82.88 L30.43,83.78 L30.03,84.67 L29.59,85.53 L29.10,86.37 L28.58,87.18 L28.03,87.97 L27.43,88.72 L26.80,89.45 L26.14,90.14 L25.45,90.80 L24.72,91.43 L23.97,92.03 L23.18,92.58 L22.37,93.10 L21.53,93.58 L20.67,94.03 L19.78,94.43 L18.88,94.79 L17.95,95.10 L17.00,95.37 L16.03,95.59 L15.05,95.77 L14.04,95.90 L13.03,95.97 L12.00,96.00 L11.38,95.98 L10.77,95.94 L10.17,95.86 L9.58,95.76 L8.43,95.46 L7.33,95.06 L6.28,94.55 L5.29,93.95 L4.37,93.26 L3.51,92.48 L2.74,91.63 L2.05,90.71 L1.45,89.72 L0.94,88.67 L0.54,87.57 L0.24,86.42 L0.14,85.83 L0.06,85.23 L0.02,84.62 L0.00,84.00 L0.00,48.00 Z" fill="#1b44b1" stroke="#1e1e1e" stroke-width="1" stroke-linejoin="round" opacity="0"/><path d="M64.00,20.00 L64.03,18.97 L64.10,17.95 L64.23,16.95 L64.41,15.97 L64.63,15.00 L64.90,14.05 L65.21,13.12 L65.57,12.21 L65.97,11.33 L66.41,10.47 L66.89,9.63 L67.41,8.82 L67.97,8.03 L68.57,7.28 L69.19,6.55 L69.86,5.86 L70.55,5.20 L71.28,4.57 L72.03,3.97 L72.82,3.42 L73.63,2.90 L74.47,2.41 L75.33,1.97 L76.21,1.57 L77.12,1.21 L78.05,0.90 L79.00,0.63 L79.97,0.41 L80.95,0.23 L81.95,0.10 L82.97,0.03 L84.00,-0.00 L84.62,0.02 L85.23,0.06 L85.83,0.14 L86.42,0.24 L87.57,0.54 L88.67,0.94 L89.72,1.45 L90.71,2.05 L91.63,2.74 L92.48,3.51 L93.26,4.37 L93.95,5.29 L94.55,6.28 L95.06,7.33 L95.46,8.43 L95.76,9.58 L95.86,10.17 L95.94,10.77 L95.98,11.38 L96.00,12.00 L96.00,48.00 L95.97,49.23 L95.87,50.45 L95.72,51.65 L95.51,52.84 L95.24,54.00 L94.92,55.14 L94.54,56.25 L94.11,57.34 L93.63,58.40 L93.10,59.44 L92.52,60.44 L91.90,61.42 L91.23,62.36 L90.52,63.27 L89.76,64.14 L88.97,64.97 L88.14,65.76 L87.27,66.52 L86.36,67.23 L85.42,67.90 L84.44,68.52 L83.44,69.10 L82.40,69.63 L81.34,70.11 L80.25,70.54 L79.14,70.92 L78.00,71.24 L76.84,71.51 L75.65,71.72 L74.45,71.88 L73.23,71.97 L72.00,72.00 L70.76,71.97 L69.55,71.88 L68.34,71.72 L67.16,71.51 L66.00,71.24 L64.86,70.92 L63.75,70.54 L62.66,70.11 L61.59,69.63 L60.56,69.10 L59.55,68.52 L58.58,67.90 L57.64,67.23 L56.73,66.52 L55.86,65.76 L55.03,64.97 L54.23,64.14 L53.48,63.27 L52.77,62.36 L52.10,61.42 L51.47,60.44 L50.90,59.44 L50.37,58.40 L49.89,57.34 L49.46,56.25 L49.08,55.14 L48.75,54.00 L48.49,52.84 L48.28,51.65 L48.12,50.45 L48.03,49.23 L48.00,48.00 L48.00,44.00 L48.04,43.18 L48.16,42.39 L48.36,41.62 L48.63,40.89 L48.96,40.19 L49.37,39.53 L49.83,38.91 L50.34,38.34 L50.91,37.83 L51.53,37.37 L52.19,36.97 L52.89,36.63 L53.62,36.36 L54.39,36.16 L55.18,36.04 L56.00,36.00 L56.82,35.96 L57.61,35.84 L58.38,35.64 L59.11,35.37 L59.81,35.03 L60.47,34.63 L61.09,34.17 L61.66,33.66 L62.17,33.09 L62.63,32.47 L63.03,31.81 L63.37,31.11 L63.64,30.38 L63.84,29.61 L63.96,28.82 L64.00,28.00 L64.00,20.00 Z" fill="#0064bb" stroke="#1e1e1e" stroke-width="1" stroke-linejoin="round"/><path d="M64.00,20.00 L64.03,18.97 L64.10,17.95 L64.23,16.95 L64.41,15.97 L64.63,15.00 L64.90,14.05 L65.21,13.12 L65.57,12.21 L65.97,11.33 L66.41,10.47 L66.89,9.63 L67.41,8.82 L67.97,8.03 L68.57,7.28 L69.19,6.55 L69.86,5.86 L70.55,5.20 L71.28,4.57 L72.03,3.97 L72.82,3.42 L73.63,2.90 L74.47,2.41 L75.33,1.97 L76.21,1.57 L77.12,1.21 L78.05,0.90 L79.00,0.63 L79.97,0.41 L80.95,0.23 L81.95,0.10 L82.97,0.03 L84.00,-0.00 L84.62,0.02 L85.23,0.06 L85.83,0.14 L86.42,0.24 L87.57,0.54 L88.67,0.94 L89.72,1.45 L90.71,2.05 L91.63,2.74 L92.48,3.51 L93.26,4.37 L93.95,5.29 L94.55,6.28 L95.06,7.33 L95.46,8.43 L95.76,9.58 L95.86,10.17 L95.94,10.77 L95.98,11.38 L96.00,12.00 L96.00,48.00 L95.97,49.23 L95.87,50.45 L95.72,51.65 L95.51,52.84 L95.24,54.00 L94.92,55.14 L94.54,56.25 L94.11,57.34 L93.63,58.40 L93.10,59.44 L92.52,60.44 L91.90,61.42 L91.23,62.36 L90.52,63.27 L89.76,64.14 L88.97,64.97 L88.14,65.76 L87.27,66.52 L86.36,67.23 L85.42,67.90 L84.44,68.52 L83.44,69.10 L82.40,69.63 L81.34,70.11 L80.25,70.54 L79.14,70.92 L78.00,71.24 L76.84,71.51 L75.65,71.72 L74.45,71.88 L73.23,71.97 L72.00,72.00 L70.76,71.97 L69.55,71.88 L68.34,71.72 L67.16,71.51 L66.00,71.24 L64.86,70.92 L63.75,70.54 L62.66,70.11 L61.59,69.63 L60.56,69.10 L59.55,68.52 L58.58,67.90 L57.64,67.23 L56.73,66.52 L55.86,65.76 L55.03,64.97 L54.23,64.14 L53.48,63.27 L52.77,62.36 L52.10,61.42 L51.47,60.44 L50.90,59.44 L50.37,58.40 L49.89,57.34 L49.46,56.25 L49.08,55.14 L48.75,54.00 L48.49,52.84 L48.28,51.65 L48.12,50.45 L48.03,49.23 L48.00,48.00 L48.00,44.00 L48.04,43.18 L48.16,42.39 L48.36,41.62 L48.63,40.89 L48.96,40.19 L49.37,39.53 L49.83,38.91 L50.34,38.34 L50.91,37.83 L51.53,37.37 L52.19,36.97 L52.89,36.63 L53.62,36.36 L54.39,36.16 L55.18,36.04 L56.00,36.00 L56.82,35.96 L57.61,35.84 L58.38,35.64 L59.11,35.37 L59.81,35.03 L60.47,34.63 L61.09,34.17 L61.66,33.66 L62.17,33.09 L62.63,32.47 L63.03,31.81 L63.37,31.11 L63.64,30.38 L63.84,29.61 L63.96,28.82 L64.00,28.00 L64.00,20.00 Z" fill="#0078d4" stroke="#1e1e1e" stroke-width="1" stroke-linejoin="round" opacity="0"/><path d="M72.00,12.00 L72.00,48.00 L71.98,49.24 L71.94,50.47 L71.86,51.69 L71.75,52.91 L71.61,54.11 L71.45,55.31 L71.25,56.50 L71.02,57.67 L70.49,60.00 L69.84,62.27 L69.09,64.50 L68.23,66.68 L67.27,68.81 L66.21,70.88 L65.05,72.89 L63.80,74.84 L62.46,76.72 L61.04,78.53 L59.53,80.27 L57.94,81.94 L56.27,83.53 L54.53,85.04 L52.72,86.46 L50.84,87.80 L48.89,89.05 L46.88,90.21 L44.81,91.27 L42.68,92.23 L40.50,93.09 L38.27,93.84 L36.00,94.49 L33.67,95.02 L32.50,95.25 L31.31,95.45 L30.11,95.61 L28.91,95.75 L27.69,95.86 L26.47,95.94 L25.24,95.98 L24.00,96.00 L12.00,96.00 L12.62,95.98 L13.23,95.94 L13.83,95.86 L14.42,95.76 L15.57,95.46 L16.67,95.06 L17.72,94.55 L18.71,93.95 L19.63,93.26 L20.49,92.48 L21.26,91.63 L21.95,90.71 L22.55,89.72 L23.06,88.67 L23.46,87.57 L23.76,86.42 L23.86,85.83 L23.94,85.23 L23.98,84.62 L24.00,84.00 L24.00,48.00 L24.02,46.76 L24.06,45.53 L24.14,44.31 L24.25,43.09 L24.39,41.89 L24.55,40.69 L24.75,39.50 L24.97,38.33 L25.51,36.00 L26.16,33.73 L26.91,31.50 L27.77,29.32 L28.73,27.19 L29.79,25.12 L30.95,23.11 L32.20,21.16 L33.54,19.28 L34.96,17.47 L36.47,15.73 L38.06,14.06 L39.73,12.47 L41.47,10.96 L43.28,9.54 L45.16,8.20 L47.11,6.95 L49.12,5.79 L51.19,4.73 L53.32,3.77 L55.50,2.91 L57.73,2.16 L60.00,1.51 L62.33,0.98 L63.50,0.75 L64.69,0.55 L65.89,0.39 L67.09,0.25 L68.31,0.14 L69.53,0.06 L70.76,0.02 L72.00,0.00 L84.00,0.00 L83.38,0.02 L82.77,0.06 L82.17,0.14 L81.58,0.24 L80.43,0.54 L79.33,0.94 L78.28,1.45 L77.29,2.05 L76.37,2.74 L75.51,3.51 L74.74,4.37 L74.05,5.29 L73.45,6.28 L72.94,7.33 L72.54,8.43 L72.24,9.58 L72.14,10.17 L72.06,10.77 L72.01,11.38 L72.00,12.00 Z" fill="#24bafa" stroke="#1e1e1e" stroke-width="1" stroke-linejoin="round"/><path d="M71.98,0.00 L71.36,0.01 L69.69,0.05 L68.04,0.16 L66.41,0.32 L64.80,0.53 L63.20,0.80 L61.62,1.12 L60.05,1.49 L58.51,1.92 L56.99,2.39 L55.49,2.91 L54.02,3.47 L52.57,4.09 L51.14,4.75 L49.74,5.45 L48.37,6.20 L47.02,6.99 L45.70,7.83 L44.41,8.70 L43.15,9.62 L41.93,10.57 L40.73,11.56 L39.57,12.60 L38.44,13.66 L37.35,14.76 L36.29,15.90 L35.27,17.07 L34.29,18.28 L33.35,19.51 L32.44,20.78 L31.58,22.08 L30.76,23.40 L29.97,24.76 L30.92,25.02 L31.85,25.32 L32.76,25.66 L33.65,26.03 L34.53,26.44 L35.38,26.88 L36.22,27.35 L37.03,27.86 L37.83,28.40 L38.60,28.97 L39.34,29.56 L40.06,30.19 L40.76,30.84 L41.42,31.52 L42.07,32.23 L42.68,32.96 L43.26,33.71 L43.82,34.49 L44.34,35.29 L44.83,36.12 L45.29,36.96 L45.72,37.83 L46.11,38.71 L46.47,39.61 L46.79,40.53 L47.08,41.47 L47.32,42.42 L47.53,43.38 L47.70,44.36 L47.83,45.36 L47.92,46.36 L47.97,47.38 L47.98,48.62 L48.03,49.64 L48.12,50.64 L48.25,51.64 L48.42,52.62 L48.63,53.58 L48.88,54.54 L49.16,55.47 L49.48,56.39 L49.84,57.29 L50.23,58.18 L50.66,59.04 L51.12,59.88 L51.61,60.71 L52.14,61.51 L52.69,62.29 L53.28,63.04 L53.89,63.77 L54.53,64.48 L55.20,65.16 L55.89,65.81 L56.61,66.44 L57.36,67.04 L58.13,67.60 L58.92,68.14 L59.73,68.65 L60.57,69.12 L61.43,69.56 L62.30,69.97 L63.20,70.34 L64.11,70.68 L65.04,70.98 L65.98,71.24 L66.68,69.94 L67.33,68.61 L67.95,67.26 L68.53,65.89 L69.06,64.50 L69.56,63.09 L70.01,61.65 L70.41,60.20 L70.77,58.73 L71.09,57.24 L71.35,55.74 L71.58,54.22 L71.75,52.69 L71.88,51.14 L71.95,49.58 L71.98,48.00 L71.98,12.00 L71.99,11.38 L72.04,10.77 L72.11,10.17 L72.22,9.58 L72.52,8.43 L72.92,7.33 L73.42,6.28 L74.03,5.29 L74.72,4.37 L75.49,3.52 L76.34,2.74 L77.27,2.05 L78.26,1.45 L79.31,0.94 L80.41,0.54 L81.56,0.25 L82.15,0.14 L82.75,0.06 L83.36,0.02 L83.98,0.00 L71.98,0.00 Z" fill="#6fe8f5" stroke="#1e1e1e" stroke-width="1" stroke-linejoin="round" opacity="0"/><path d="M71.98,0.00 L71.36,0.01 L69.69,0.05 L68.04,0.16 L66.41,0.32 L64.80,0.53 L63.20,0.80 L61.62,1.12 L60.05,1.49 L58.51,1.92 L56.99,2.39 L55.49,2.91 L54.02,3.47 L52.57,4.09 L51.14,4.75 L49.74,5.45 L48.37,6.20 L47.02,6.99 L45.70,7.83 L44.41,8.70 L43.15,9.62 L41.93,10.57 L40.73,11.56 L39.57,12.60 L38.44,13.66 L37.35,14.76 L36.29,15.90 L35.27,17.07 L34.29,18.28 L33.35,19.51 L32.44,20.78 L31.58,22.08 L30.76,23.40 L29.97,24.76 L30.92,25.02 L31.85,25.32 L32.76,25.66 L33.65,26.03 L34.53,26.44 L35.38,26.88 L36.22,27.35 L37.03,27.86 L37.83,28.40 L38.60,28.97 L39.34,29.56 L40.06,30.19 L40.76,30.84 L41.42,31.52 L42.07,32.23 L42.68,32.96 L43.26,33.71 L43.82,34.49 L44.34,35.29 L44.83,36.12 L45.29,36.96 L45.72,37.83 L46.11,38.71 L46.47,39.61 L46.79,40.53 L47.08,41.47 L47.32,42.42 L47.53,43.38 L47.70,44.36 L47.83,45.36 L47.92,46.36 L47.97,47.38 L47.98,48.62 L48.03,49.64 L48.12,50.64 L48.25,51.64 L48.42,52.62 L48.63,53.58 L48.88,54.54 L49.16,55.47 L49.48,56.39 L49.84,57.29 L50.23,58.18 L50.66,59.04 L51.12,59.88 L51.61,60.71 L52.14,61.51 L52.69,62.29 L53.28,63.04 L53.89,63.77 L54.53,64.48 L55.20,65.16 L55.89,65.81 L56.61,66.44 L57.36,67.04 L58.13,67.60 L58.92,68.14 L59.73,68.65 L60.57,69.12 L61.43,69.56 L62.30,69.97 L63.20,70.34 L64.11,70.68 L65.04,70.98 L65.98,71.24 L66.68,69.94 L67.33,68.61 L67.95,67.26 L68.53,65.89 L69.06,64.50 L69.56,63.09 L70.01,61.65 L70.41,60.20 L70.77,58.73 L71.09,57.24 L71.35,55.74 L71.58,54.22 L71.75,52.69 L71.88,51.14 L71.95,49.58 L71.98,48.00 L71.98,12.00 L71.99,11.38 L72.04,10.77 L72.11,10.17 L72.22,9.58 L72.52,8.43 L72.92,7.33 L73.42,6.28 L74.03,5.29 L74.72,4.37 L75.49,3.52 L76.34,2.74 L77.27,2.05 L78.26,1.45 L79.31,0.94 L80.41,0.54 L81.56,0.25 L82.15,0.14 L82.75,0.06 L83.36,0.02 L83.98,0.00 L71.98,0.00 Z" fill="#319cf3" stroke="#1e1e1e" stroke-width="1" stroke-linejoin="round" opacity="0.5"/><path d="M29.97,24.76 L29.28,26.06 L28.62,27.39 L28.00,28.74 L27.43,30.11 L26.89,31.50 L26.40,32.91 L25.95,34.35 L25.54,35.80 L25.18,37.27 L24.87,38.76 L24.60,40.26 L24.38,41.78 L24.20,43.31 L24.08,44.86 L24.00,46.43 L23.98,48.00 L23.98,84.00 L23.96,84.62 L23.92,85.23 L23.84,85.83 L23.73,86.42 L23.44,87.57 L23.03,88.67 L22.53,89.72 L21.93,90.71 L21.24,91.63 L20.46,92.49 L19.61,93.26 L18.69,93.95 L17.70,94.55 L16.65,95.06 L15.55,95.46 L14.40,95.76 L13.80,95.86 L13.20,95.94 L12.59,95.98 L11.98,96.00 L23.98,96.00 L25.66,95.97 L27.34,95.88 L29.00,95.74 L30.64,95.54 L32.26,95.29 L33.86,94.98 L35.45,94.62 L37.01,94.21 L38.56,93.74 L40.08,93.23 L41.58,92.67 L43.05,92.06 L44.50,91.40 L45.92,90.70 L47.32,89.95 L48.69,89.16 L50.03,88.32 L51.33,87.44 L52.61,86.52 L53.86,85.56 L55.07,84.56 L56.25,83.53 L57.40,82.45 L58.51,81.34 L59.58,80.19 L60.61,79.01 L61.61,77.79 L62.57,76.55 L63.48,75.27 L64.36,73.95 L65.19,72.61 L65.98,71.24 L65.04,70.98 L64.11,70.68 L63.20,70.34 L62.30,69.97 L61.43,69.56 L60.57,69.12 L59.73,68.65 L58.92,68.14 L58.13,67.60 L57.36,67.04 L56.61,66.44 L55.89,65.81 L55.20,65.16 L54.53,64.48 L53.89,63.77 L53.28,63.04 L52.69,62.29 L52.14,61.51 L51.61,60.71 L51.12,59.88 L50.66,59.04 L50.23,58.18 L49.84,57.29 L49.48,56.39 L49.16,55.47 L48.88,54.54 L48.63,53.58 L48.42,52.62 L48.25,51.64 L48.12,50.64 L48.03,49.64 L47.98,48.62 L47.97,47.38 L47.92,46.36 L47.83,45.36 L47.70,44.36 L47.53,43.38 L47.32,42.42 L47.08,41.47 L46.79,40.53 L46.47,39.61 L46.11,38.71 L45.72,37.83 L45.29,36.96 L44.83,36.12 L44.34,35.29 L43.82,34.49 L43.26,33.71 L42.68,32.96 L42.07,32.23 L41.42,31.52 L40.76,30.84 L40.06,30.19 L39.34,29.56 L38.60,28.97 L37.83,28.40 L37.03,27.86 L36.22,27.35 L35.38,26.88 L34.53,26.44 L33.65,26.03 L32.76,25.66 L31.85,25.32 L30.92,25.02 L29.97,24.76 Z" fill="#0094f0" stroke="#1e1e1e" stroke-width="1" stroke-linejoin="round" opacity="0"/></svg>