<svg xmlns="http://www.w3.org/2000/svg" viewBox="40.67 -1.99 430.67 515.69"><path d="M42.67,46.12 L42.96,39.29 L43.82,33.11 L44.45,30.25 L45.21,27.54 L46.09,24.98 L47.09,22.57 L48.21,20.30 L49.44,18.17 L50.78,16.18 L52.22,14.32 L55.39,10.99 L58.92,8.15 L62.78,5.78 L66.92,3.85 L71.33,2.35 L75.95,1.24 L80.77,0.49 L85.74,0.09 L90.83,0.01 L96.01,0.22 L114.42,1.58 L132.68,3.21 L150.77,5.09 L168.64,7.22 L186.28,9.59 L203.65,12.21 L220.73,15.05 L237.49,18.13 L253.90,21.43 L269.94,24.94 L285.56,28.67 L300.75,32.61 L315.48,36.75 L329.71,41.08 L343.42,45.61 L356.59,50.32 L369.17,55.22 L381.15,60.29 L392.50,65.53 L403.18,70.93 L413.17,76.50 L422.45,82.22 L430.97,88.09 L438.72,94.11 L442.29,97.17 L445.66,100.27 L448.82,103.39 L451.77,106.56 L454.51,109.75 L457.02,112.97 L459.31,116.23 L461.38,119.52 L463.21,122.83 L464.81,126.18 L466.18,129.55 L467.31,132.95 L468.19,136.38 L468.82,139.83 L469.20,143.31 L469.33,146.81 L469.33,377.93 L469.23,374.59 L468.91,371.28 L468.39,368.00 L467.67,364.76 L466.74,361.55 L465.62,358.38 L464.30,355.24 L462.79,352.14 L461.10,349.07 L459.22,346.04 L457.15,343.05 L454.91,340.09 L449.89,334.27 L444.20,328.61 L437.85,323.08 L430.86,317.71 L423.26,312.48 L415.08,307.39 L406.33,302.46 L397.04,297.68 L387.25,293.04 L376.96,288.56 L373.90,287.01 L371.13,285.07 L368.70,282.78 L366.63,280.18 L364.96,277.31 L363.72,274.22 L362.95,270.95 L362.69,267.54 L362.69,192.06 L362.47,184.25 L361.84,177.01 L360.78,170.30 L359.31,164.10 L357.41,158.40 L355.10,153.15 L352.37,148.35 L349.23,143.96 L345.67,139.95 L341.70,136.31 L337.33,133.01 L332.54,130.02 L327.35,127.32 L321.76,124.88 L315.76,122.68 L309.35,120.69 L302.95,119.06 L296.95,117.93 L291.35,117.32 L286.16,117.24 L281.37,117.70 L276.99,118.71 L274.95,119.42 L273.02,120.28 L271.19,121.28 L269.46,122.42 L267.84,123.71 L266.31,125.15 L264.90,126.74 L263.58,128.47 L262.37,130.36 L261.26,132.40 L259.37,136.93 L257.89,142.10 L256.83,147.90 L256.19,154.35 L255.98,161.46 L255.98,199.30 L255.77,204.18 L255.17,208.84 L254.18,213.28 L252.79,217.49 L251.02,221.47 L248.88,225.20 L246.36,228.70 L243.48,231.95 L240.25,234.94 L236.66,237.68 L232.72,240.15 L228.44,242.35 L223.83,244.29 L218.90,245.94 L213.63,247.31 L208.06,248.39 L185.71,251.80 L163.39,254.69 L139.40,257.31 L112.04,259.92 L108.37,260.17 L104.75,260.25 L101.20,260.17 L97.72,259.92 L94.31,259.51 L90.98,258.95 L87.72,258.22 L84.54,257.35 L81.45,256.31 L78.45,255.13 L75.55,253.80 L72.74,252.32 L70.03,250.70 L67.43,248.93 L64.93,247.03 L62.55,244.98 L60.28,242.80 L58.13,240.49 L56.10,238.04 L54.21,235.46 L52.44,232.76 L50.80,229.93 L49.31,226.97 L47.95,223.89 L46.74,220.70 L45.69,217.38 L44.78,213.95 L44.03,210.41 L43.44,206.76 L43.01,202.99 L42.75,199.12 L42.67,195.15 L42.67,46.12 Z" fill="#3b51d7" stroke="#1e1e1e" stroke-width="1" stroke-linejoin="round"/><path d="M42.67,46.12 L42.96,39.29 L43.82,33.11 L44.45,30.25 L45.21,27.54 L46.09,24.98 L47.09,22.57 L48.21,20.30 L49.44,18.17 L50.78,16.18 L52.22,14.32 L55.39,10.99 L58.92,8.15 L62.78,5.78 L66.92,3.85 L71.33,2.35 L75.95,1.24 L80.77,0.49 L85.74,0.09 L90.83,0.01 L96.01,0.22 L114.42,1.58 L132.68,3.21 L150.77,5.09 L168.64,7.22 L186.28,9.59 L203.65,12.21 L220.73,15.05 L237.49,18.13 L253.90,21.43 L269.94,24.94 L285.56,28.67 L300.75,32.61 L315.48,36.75 L329.71,41.08 L343.42,45.61 L356.59,50.32 L369.17,55.22 L381.15,60.29 L392.50,65.53 L403.18,70.93 L413.17,76.50 L422.45,82.22 L430.97,88.09 L438.72,94.11 L442.29,97.17 L445.66,100.27 L448.82,103.39 L451.77,106.56 L454.51,109.75 L457.02,112.97 L459.31,116.23 L461.38,119.52 L463.21,122.83 L464.81,126.18 L466.18,129.55 L467.31,132.95 L468.19,136.38 L468.82,139.83 L469.20,143.31 L469.33,146.81 L469.33,377.93 L469.23,374.59 L468.91,371.28 L468.39,368.00 L467.67,364.76 L466.74,361.55 L465.62,358.38 L464.30,355.24 L462.79,352.14 L461.10,349.07 L459.22,346.04 L457.15,343.05 L454.91,340.09 L449.89,334.27 L444.20,328.61 L437.85,323.08 L430.86,317.71 L423.26,312.48 L415.08,307.39 L406.33,302.46 L397.04,297.68 L387.25,293.04 L376.96,288.56 L373.90,287.01 L371.13,285.07 L368.70,282.78 L366.63,280.18 L364.96,277.31 L363.72,274.22 L362.95,270.95 L362.69,267.54 L362.69,192.06 L362.47,184.25 L361.84,177.01 L360.78,170.30 L359.31,164.10 L357.41,158.40 L355.10,153.15 L352.37,148.35 L349.23,143.96 L345.67,139.95 L341.70,136.31 L337.33,133.01 L332.54,130.02 L327.35,127.32 L321.76,124.88 L315.76,122.68 L309.35,120.69 L302.95,119.06 L296.95,117.93 L291.35,117.32 L286.16,117.24 L281.37,117.70 L276.99,118.71 L274.95,119.42 L273.02,120.28 L271.19,121.28 L269.46,122.42 L267.84,123.71 L266.31,125.15 L264.90,126.74 L263.58,128.47 L262.37,130.36 L261.26,132.40 L259.37,136.93 L257.89,142.10 L256.83,147.90 L256.19,154.35 L255.98,161.46 L255.98,199.30 L255.77,204.18 L255.17,208.84 L254.18,213.28 L252.79,217.49 L251.02,221.47 L248.88,225.20 L246.36,228.70 L243.48,231.95 L240.25,234.94 L236.66,237.68 L232.72,240.15 L228.44,242.35 L223.83,244.29 L218.90,245.94 L213.63,247.31 L208.06,248.39 L185.71,251.80 L163.39,254.69 L139.40,257.31 L112.04,259.92 L108.37,260.17 L104.75,260.25 L101.20,260.17 L97.72,259.92 L94.31,259.51 L90.98,258.95 L87.72,258.22 L84.54,257.35 L81.45,256.31 L78.45,255.13 L75.55,253.80 L72.74,252.32 L70.03,250.70 L67.43,248.93 L64.93,247.03 L62.55,244.98 L60.28,242.80 L58.13,240.49 L56.10,238.04 L54.21,235.46 L52.44,232.76 L50.80,229.93 L49.31,226.97 L47.95,223.89 L46.74,220.70 L45.69,217.38 L44.78,213.95 L44.03,210.41 L43.44,206.76 L43.01,202.99 L42.75,199.12 L42.67,195.15 L42.67,46.12 Z" fill="#5750e2" stroke="#1e1e1e" stroke-width="1" stroke-linejoin="round" opacity="0"/><path d="M42.67,46.12 L42.96,39.29 L43.82,33.11 L44.45,30.25 L45.21,27.54 L46.09,24.98 L47.09,22.57 L48.21,20.30 L49.44,18.17 L50.78,16.18 L52.22,14.32 L55.39,10.99 L58.92,8.15 L62.78,5.78 L66.92,3.85 L71.33,2.35 L75.95,1.24 L80.77,0.49 L85.74,0.09 L90.83,0.01 L96.01,0.22 L114.42,1.58 L132.68,3.21 L150.77,5.09 L168.64,7.22 L186.28,9.59 L203.65,12.21 L220.73,15.05 L237.49,18.13 L253.90,21.43 L269.94,24.94 L285.56,28.67 L300.75,32.61 L315.48,36.75 L329.71,41.08 L343.42,45.61 L356.59,50.32 L369.17,55.22 L381.15,60.29 L392.50,65.53 L403.18,70.93 L413.17,76.50 L422.45,82.22 L430.97,88.09 L438.72,94.11 L442.29,97.17 L445.66,100.27 L448.82,103.39 L451.77,106.56 L454.51,109.75 L457.02,112.97 L459.31,116.23 L461.38,119.52 L463.21,122.83 L464.81,126.18 L466.18,129.55 L467.31,132.95 L468.19,136.38 L468.82,139.83 L469.20,143.31 L469.33,146.81 L469.33,377.93 L469.23,374.59 L468.91,371.28 L468.39,368.00 L467.67,364.76 L466.74,361.55 L465.62,358.38 L464.30,355.24 L462.79,352.14 L461.10,349.07 L459.22,346.04 L457.15,343.05 L454.91,340.09 L449.89,334.27 L444.20,328.61 L437.85,323.08 L430.86,317.71 L423.26,312.48 L415.08,307.39 L406.33,302.46 L397.04,297.68 L387.25,293.04 L376.96,288.56 L373.90,287.01 L371.13,285.07 L368.70,282.78 L366.63,280.18 L364.96,277.31 L363.72,274.22 L362.95,270.95 L362.69,267.54 L362.69,192.06 L362.47,184.25 L361.84,177.01 L360.78,170.30 L359.31,164.10 L357.41,158.40 L355.10,153.15 L352.37,148.35 L349.23,143.96 L345.67,139.95 L341.70,136.31 L337.33,133.01 L332.54,130.02 L327.35,127.32 L321.76,124.88 L315.76,122.68 L309.35,120.69 L302.95,119.06 L296.95,117.93 L291.35,117.32 L286.16,117.24 L281.37,117.70 L276.99,118.71 L274.95,119.42 L273.02,120.28 L271.19,121.28 L269.46,122.42 L267.84,123.71 L266.31,125.15 L264.90,126.74 L263.58,128.47 L262.37,130.36 L261.26,132.40 L259.37,136.93 L257.89,142.10 L256.83,147.90 L256.19,154.35 L255.98,161.46 L255.98,199.30 L255.77,204.18 L255.17,208.84 L254.18,213.28 L252.79,217.49 L251.02,221.47 L248.88,225.20 L246.36,228.70 L243.48,231.95 L240.25,234.94 L236.66,237.68 L232.72,240.15 L228.44,242.35 L223.83,244.29 L218.90,245.94 L213.63,247.31 L208.06,248.39 L185.71,251.80 L163.39,254.69 L139.40,257.31 L112.04,259.92 L108.37,260.17 L104.75,260.25 L101.20,260.17 L97.72,259.92 L94.31,259.51 L90.98,258.95 L87.72,258.22 L84.54,257.35 L81.45,256.31 L78.45,255.13 L75.55,253.80 L72.74,252.32 L70.03,250.70 L67.43,248.93 L64.93,247.03 L62.55,244.98 L60.28,242.80 L58.13,240.49 L56.10,238.04 L54.21,235.46 L52.44,232.76 L50.80,229.93 L49.31,226.97 L47.95,223.89 L46.74,220.70 L45.69,217.38 L44.78,213.95 L44.03,210.41 L43.44,206.76 L43.01,202.99 L42.75,199.12 L42.67,195.15 L42.67,46.12 Z" fill="#2764e7" stroke="#1e1e1e" stroke-width="1" stroke-linejoin="round" opacity="0"/><path d="M469.33,146.81 L469.25,149.69 L469.01,152.54 L468.60,155.37 L468.03,158.18 L466.42,163.74 L464.20,169.22 L461.38,174.60 L457.97,179.90 L453.99,185.11 L449.45,190.22 L444.38,195.23 L438.78,200.15 L432.67,204.97 L426.06,209.69 L418.97,214.30 L411.42,218.81 L403.42,223.21 L394.99,227.50 L386.13,231.69 L376.88,235.75 L367.23,239.71 L357.21,243.54 L346.83,247.26 L336.11,250.86 L325.06,254.33 L313.69,257.68 L302.03,260.91 L290.09,264.00 L277.88,266.97 L265.41,269.80 L252.71,272.50 L239.79,275.06 L226.66,277.48 L213.33,279.77 L206.68,281.01 L200.25,282.53 L194.06,284.33 L188.14,286.42 L182.53,288.83 L177.26,291.57 L172.35,294.65 L167.83,298.09 L163.73,301.90 L160.09,306.09 L158.45,308.34 L156.92,310.68 L155.53,313.13 L154.27,315.69 L153.14,318.35 L152.15,321.13 L151.31,324.01 L150.61,327.00 L150.06,330.11 L149.66,333.34 L149.42,336.68 L149.33,340.15 L149.33,454.95 L149.43,459.91 L149.71,464.61 L150.18,469.04 L150.82,473.21 L151.64,477.13 L152.63,480.80 L153.79,484.23 L155.11,487.43 L156.58,490.40 L158.21,493.14 L159.99,495.67 L161.91,497.99 L163.97,500.10 L166.17,502.02 L168.50,503.74 L170.95,505.27 L173.53,506.63 L176.23,507.81 L179.04,508.82 L181.96,509.67 L184.99,510.36 L188.11,510.91 L194.65,511.56 L201.54,511.69 L208.75,511.34 L216.25,510.56 L223.99,509.39 L237.92,506.90 L251.53,504.25 L264.79,501.46 L277.71,498.52 L290.27,495.44 L302.47,492.23 L314.31,488.89 L325.77,485.42 L336.84,481.84 L347.53,478.13 L357.82,474.33 L367.70,470.41 L377.18,466.40 L386.23,462.29 L394.86,458.09 L403.05,453.80 L410.81,449.44 L418.12,445.00 L424.97,440.49 L431.36,435.92 L437.28,431.28 L442.72,426.59 L447.68,421.85 L452.15,417.07 L456.12,412.24 L459.58,407.38 L462.53,402.49 L464.96,397.57 L466.86,392.63 L468.23,387.68 L469.06,382.71 L469.33,377.74 L469.33,146.81 Z" fill="#3f6ceb" stroke="#1e1e1e" stroke-width="1" stroke-linejoin="round"/><path d="M469.33,146.81 L469.25,149.69 L469.01,152.54 L468.60,155.37 L468.03,158.18 L466.42,163.74 L464.20,169.22 L461.38,174.60 L457.97,179.90 L453.99,185.11 L449.45,190.22 L444.38,195.23 L438.78,200.15 L432.67,204.97 L426.06,209.69 L418.97,214.30 L411.42,218.81 L403.42,223.21 L394.99,227.50 L386.13,231.69 L376.88,235.75 L367.23,239.71 L357.21,243.54 L346.83,247.26 L336.11,250.86 L325.06,254.33 L313.69,257.68 L302.03,260.91 L290.09,264.00 L277.88,266.97 L265.41,269.80 L252.71,272.50 L239.79,275.06 L226.66,277.48 L213.33,279.77 L206.68,281.01 L200.25,282.53 L194.06,284.33 L188.14,286.42 L182.53,288.83 L177.26,291.57 L172.35,294.65 L167.83,298.09 L163.73,301.90 L160.09,306.09 L158.45,308.34 L156.92,310.68 L155.53,313.13 L154.27,315.69 L153.14,318.35 L152.15,321.13 L151.31,324.01 L150.61,327.00 L150.06,330.11 L149.66,333.34 L149.42,336.68 L149.33,340.15 L149.33,454.95 L149.43,459.91 L149.71,464.61 L150.18,469.04 L150.82,473.21 L151.64,477.13 L152.63,480.80 L153.79,484.23 L155.11,487.43 L156.58,490.40 L158.21,493.14 L159.99,495.67 L161.91,497.99 L163.97,500.10 L166.17,502.02 L168.50,503.74 L170.95,505.27 L173.53,506.63 L176.23,507.81 L179.04,508.82 L181.96,509.67 L184.99,510.36 L188.11,510.91 L194.65,511.56 L201.54,511.69 L208.75,511.34 L216.25,510.56 L223.99,509.39 L237.92,506.90 L251.53,504.25 L264.79,501.46 L277.71,498.52 L290.27,495.44 L302.47,492.23 L314.31,488.89 L325.77,485.42 L336.84,481.84 L347.53,478.13 L357.82,474.33 L367.70,470.41 L377.18,466.40 L386.23,462.29 L394.86,458.09 L403.05,453.80 L410.81,449.44 L418.12,445.00 L424.97,440.49 L431.36,435.92 L437.28,431.28 L442.72,426.59 L447.68,421.85 L452.15,417.07 L456.12,412.24 L459.58,407.38 L462.53,402.49 L464.96,397.57 L466.86,392.63 L468.23,387.68 L469.06,382.71 L469.33,377.74 L469.33,146.81 Z" fill="#4ca5f3" stroke="#1e1e1e" stroke-width="1" stroke-linejoin="round" opacity="0.2"/><path d="M362.67,332.57 L362.48,340.62 L361.92,348.03 L360.98,354.83 L359.64,361.06 L357.89,366.75 L355.74,371.94 L353.16,376.66 L350.14,380.95 L346.69,384.84 L342.79,388.37 L338.42,391.57 L333.59,394.48 L328.27,397.12 L322.47,399.55 L316.16,401.78 L309.35,403.86 L303.33,405.46 L297.61,406.71 L292.20,407.57 L287.13,407.99 L282.39,407.94 L278.00,407.36 L275.95,406.86 L273.98,406.21 L272.11,405.41 L270.33,404.45 L268.65,403.32 L267.07,402.03 L265.58,400.56 L264.20,398.92 L262.92,397.08 L261.74,395.06 L260.67,392.84 L259.71,390.41 L258.85,387.78 L258.10,384.93 L256.94,378.58 L256.24,371.31 L256.00,363.08 L256.00,271.81 L270.65,268.62 L284.97,265.26 L298.93,261.72 L312.53,258.01 L325.72,254.13 L338.49,250.08 L350.81,245.86 L362.67,241.48 L362.67,332.57 Z" fill="#8ba2fe" stroke="#1e1e1e" stroke-width="1" stroke-linejoin="round" opacity="0.5"/></svg>