<svg xmlns="http://www.w3.org/2000/svg" viewBox="-2.00 -2.00 516.00 515.98"><path d="M0.00,256.00 L0.08,252.71 L0.33,249.46 L0.74,246.25 L1.30,243.10 L2.88,236.97 L5.03,231.09 L7.72,225.49 L10.93,220.22 L14.61,215.29 L18.75,210.75 L23.29,206.61 L28.22,202.93 L33.49,199.72 L39.09,197.03 L44.97,194.88 L51.10,193.30 L54.25,192.74 L57.46,192.33 L60.71,192.08 L64.00,192.00 L85.33,192.00 L85.33,320.00 L64.00,320.00 L60.71,319.92 L57.46,319.67 L54.25,319.26 L51.10,318.70 L44.97,317.12 L39.09,314.97 L33.49,312.28 L28.22,309.07 L23.29,305.39 L18.75,301.25 L14.61,296.71 L10.93,291.78 L7.72,286.51 L5.03,280.91 L2.88,275.03 L1.30,268.90 L0.74,265.75 L0.33,262.54 L0.08,259.29 L0.00,256.00 Z" fill="#16369a" stroke="#1e1e1e" stroke-width="1" stroke-linejoin="round"/><path d="M0.00,256.00 L0.08,252.71 L0.33,249.46 L0.74,246.25 L1.30,243.10 L2.88,236.97 L5.03,231.09 L7.72,225.49 L10.93,220.22 L14.61,215.29 L18.75,210.75 L23.29,206.61 L28.22,202.93 L33.49,199.72 L39.09,197.03 L44.97,194.88 L51.10,193.30 L54.25,192.74 L57.46,192.33 L60.71,192.08 L64.00,192.00 L85.33,192.00 L85.33,320.00 L64.00,320.00 L60.71,319.92 L57.46,319.67 L54.25,319.26 L51.10,318.70 L44.97,317.12 L39.09,314.97 L33.49,312.28 L28.22,309.07 L23.29,305.39 L18.75,301.25 L14.61,296.71 L10.93,291.78 L7.72,286.51 L5.03,280.91 L2.88,275.03 L1.30,268.90 L0.74,265.75 L0.33,262.54 L0.08,259.29 L0.00,256.00 Z" fill="#102784" stroke="#1e1e1e" stroke-width="1" stroke-linejoin="round"/><path d="M85.33,160.00 L85.42,156.71 L85.66,153.46 L86.07,150.25 L86.63,147.10 L88.21,140.97 L90.36,135.09 L93.06,129.49 L96.26,124.22 L99.95,119.29 L104.08,114.75 L108.62,110.61 L113.55,106.93 L118.83,103.72 L124.42,101.03 L130.30,98.88 L136.44,97.30 L139.59,96.74 L142.79,96.33 L146.04,96.08 L149.33,96.00 L170.67,96.00 L170.67,320.00 L85.33,320.00 L85.33,160.00 Z" fill="#1569d8" stroke="#1e1e1e" stroke-width="1" stroke-linejoin="round"/><path d="M85.33,160.00 L85.42,156.71 L85.66,153.46 L86.07,150.25 L86.63,147.10 L88.21,140.97 L90.36,135.09 L93.06,129.49 L96.26,124.22 L99.95,119.29 L104.08,114.75 L108.62,110.61 L113.55,106.93 L118.83,103.72 L124.42,101.03 L130.30,98.88 L136.44,97.30 L139.59,96.74 L142.79,96.33 L146.04,96.08 L149.33,96.00 L170.67,96.00 L170.67,320.00 L85.33,320.00 L85.33,160.00 Z" fill="#1065d0" stroke="#1e1e1e" stroke-width="1" stroke-linejoin="round" opacity="0.6"/><path d="M170.67,64.00 L170.75,60.71 L171.00,57.46 L171.40,54.25 L171.97,51.10 L173.54,44.97 L175.70,39.09 L178.39,33.49 L181.60,28.22 L185.28,23.29 L189.41,18.75 L193.96,14.61 L198.88,10.93 L204.16,7.72 L209.76,5.03 L215.64,2.88 L221.77,1.30 L224.92,0.74 L228.12,0.33 L231.37,0.08 L234.67,0.00 L256.00,0.00 L262.87,0.09 L269.47,0.36 L281.75,1.29 L292.66,2.62 L302.00,4.13 L309.59,5.65 L315.25,6.97 L320.00,8.27 L320.00,288.00 L319.83,291.27 L319.35,294.45 L318.56,297.52 L317.49,300.46 L316.14,303.25 L314.53,305.89 L312.69,308.35 L310.63,310.63 L308.35,312.69 L305.89,314.53 L303.25,316.14 L300.46,317.49 L297.52,318.56 L294.45,319.35 L291.27,319.83 L288.00,320.00 L170.67,320.00 L170.67,64.00 Z" fill="#18a3fc" stroke="#1e1e1e" stroke-width="1" stroke-linejoin="round"/><path d="M170.67,64.00 L170.75,60.71 L171.00,57.46 L171.40,54.25 L171.97,51.10 L173.54,44.97 L175.70,39.09 L178.39,33.49 L181.60,28.22 L185.28,23.29 L189.41,18.75 L193.96,14.61 L198.88,10.93 L204.16,7.72 L209.76,5.03 L215.64,2.88 L221.77,1.30 L224.92,0.74 L228.12,0.33 L231.37,0.08 L234.67,0.00 L256.00,0.00 L262.87,0.09 L269.47,0.36 L281.75,1.29 L292.66,2.62 L302.00,4.13 L309.59,5.65 L315.25,6.97 L320.00,8.27 L320.00,288.00 L319.83,291.27 L319.35,294.45 L318.56,297.52 L317.49,300.46 L316.14,303.25 L314.53,305.89 L312.69,308.35 L310.63,310.63 L308.35,312.69 L305.89,314.53 L303.25,316.14 L300.46,317.49 L297.52,318.56 L294.45,319.35 L291.27,319.83 L288.00,320.00 L170.67,320.00 L170.67,64.00 Z" fill="#147cec" stroke="#1e1e1e" stroke-width="1" stroke-linejoin="round" opacity="0.5"/><path d="M256.00,32.00 L256.17,28.73 L256.65,25.55 L257.44,22.48 L258.52,19.55 L259.87,16.77 L261.48,14.16 L263.32,11.75 L265.38,9.55 L267.65,7.58 L270.11,5.86 L272.74,4.42 L275.53,3.27 L278.46,2.43 L281.51,1.93 L284.67,1.78 L287.92,2.00 L295.27,3.03 L302.58,4.27 L309.85,5.73 L317.07,7.39 L324.24,9.26 L331.35,11.34 L338.39,13.62 L345.37,16.10 L352.27,18.79 L359.10,21.68 L365.85,24.77 L372.51,28.05 L379.09,31.53 L385.57,35.21 L391.95,39.08 L398.22,43.14 L406.01,48.55 L413.57,54.24 L420.90,60.18 L427.99,66.38 L434.85,72.83 L441.45,79.52 L447.80,86.44 L453.89,93.59 L459.72,100.96 L465.27,108.54 L470.54,116.32 L475.53,124.30 L480.23,132.47 L484.63,140.82 L488.73,149.34 L492.52,158.03 L495.98,166.86 L499.11,175.78 L501.90,184.80 L504.36,193.89 L506.47,203.06 L508.24,212.30 L509.68,221.58 L510.77,230.91 L511.52,240.27 L511.92,249.66 L511.98,259.06 L511.70,268.46 L511.07,277.86 L510.09,287.25 L508.76,296.61 L507.08,305.94 L505.06,315.21 L502.71,324.36 L500.02,333.41 L497.00,342.34 L493.67,351.14 L490.01,359.80 L486.05,368.31 L481.77,376.68 L477.19,384.88 L472.32,392.90 L467.15,400.75 L461.68,408.42 L455.93,415.88 L449.90,423.14 L443.60,430.19 L437.02,437.02 L430.19,443.60 L423.15,449.90 L415.88,455.93 L408.42,461.68 L400.76,467.14 L392.91,472.31 L384.88,477.19 L376.68,481.77 L368.32,486.04 L359.80,490.01 L351.14,493.66 L342.34,497.00 L333.41,500.01 L324.36,502.70 L315.21,505.06 L305.94,507.08 L296.61,508.76 L287.25,510.08 L277.86,511.06 L268.46,511.70 L259.05,511.98 L249.65,511.92 L240.27,511.51 L230.91,510.77 L221.58,509.67 L212.29,508.24 L203.06,506.47 L193.89,504.35 L184.80,501.90 L175.78,499.11 L166.86,495.98 L158.03,492.51 L149.34,488.72 L140.82,484.62 L132.47,480.22 L124.30,475.53 L116.32,470.54 L108.54,465.26 L100.96,459.71 L93.60,453.89 L86.45,447.80 L79.52,441.45 L72.83,434.84 L66.39,427.99 L60.19,420.90 L54.24,413.57 L48.56,406.01 L43.15,398.23 L38.03,390.25 L33.22,382.10 L28.72,373.81 L24.54,365.36 L20.67,356.78 L17.13,348.07 L13.92,339.25 L11.02,330.31 L8.46,321.28 L6.23,312.15 L4.34,302.94 L2.79,293.66 L1.57,284.32 L0.70,274.92 L0.18,265.48 L0.00,256.00 L0.08,259.29 L0.33,262.54 L0.74,265.75 L1.30,268.90 L2.88,275.03 L5.03,280.91 L7.73,286.51 L10.93,291.78 L14.62,296.71 L18.75,301.26 L23.29,305.39 L28.22,309.07 L33.49,312.28 L39.09,314.97 L44.97,317.12 L51.10,318.70 L54.25,319.26 L57.46,319.67 L60.71,319.92 L64.00,320.00 L224.00,320.00 L227.27,319.84 L230.45,319.35 L233.52,318.56 L236.46,317.49 L239.25,316.14 L241.89,314.54 L244.35,312.69 L246.63,310.63 L248.69,308.36 L250.53,305.89 L252.14,303.25 L253.48,300.46 L254.56,297.52 L255.35,294.45 L255.83,291.27 L256.00,288.00 L256.00,32.00 Z" fill="#1bb2f7" stroke="#1e1e1e" stroke-width="1" stroke-linejoin="round"/><path d="M256.00,32.00 L256.17,28.73 L256.65,25.55 L257.44,22.48 L258.52,19.55 L259.87,16.77 L261.48,14.16 L263.32,11.75 L265.38,9.55 L267.65,7.58 L270.11,5.86 L272.74,4.42 L275.53,3.27 L278.46,2.43 L281.51,1.93 L284.67,1.78 L287.92,2.00 L295.27,3.03 L302.58,4.27 L309.85,5.73 L317.07,7.39 L324.24,9.26 L331.35,11.34 L338.39,13.62 L345.37,16.10 L352.27,18.79 L359.10,21.68 L365.85,24.77 L372.51,28.05 L379.09,31.53 L385.57,35.21 L391.95,39.08 L398.22,43.14 L406.01,48.55 L413.57,54.24 L420.90,60.18 L427.99,66.38 L434.85,72.83 L441.45,79.52 L447.80,86.44 L453.89,93.59 L459.72,100.96 L465.27,108.54 L470.54,116.32 L475.53,124.30 L480.23,132.47 L484.63,140.82 L488.73,149.34 L492.52,158.03 L495.98,166.86 L499.11,175.78 L501.90,184.80 L504.36,193.89 L506.47,203.06 L508.24,212.30 L509.68,221.58 L510.77,230.91 L511.52,240.27 L511.92,249.66 L511.98,259.06 L511.70,268.46 L511.07,277.86 L510.09,287.25 L508.76,296.61 L507.08,305.94 L505.06,315.21 L502.71,324.36 L500.02,333.41 L497.00,342.34 L493.67,351.14 L490.01,359.80 L486.05,368.31 L481.77,376.68 L477.19,384.88 L472.32,392.90 L467.15,400.75 L461.68,408.42 L455.93,415.88 L449.90,423.14 L443.60,430.19 L437.02,437.02 L430.19,443.60 L423.15,449.90 L415.88,455.93 L408.42,461.68 L400.76,467.14 L392.91,472.31 L384.88,477.19 L376.68,481.77 L368.32,486.04 L359.80,490.01 L351.14,493.66 L342.34,497.00 L333.41,500.01 L324.36,502.70 L315.21,505.06 L305.94,507.08 L296.61,508.76 L287.25,510.08 L277.86,511.06 L268.46,511.70 L259.05,511.98 L249.65,511.92 L240.27,511.51 L230.91,510.77 L221.58,509.67 L212.29,508.24 L203.06,506.47 L193.89,504.35 L184.80,501.90 L175.78,499.11 L166.86,495.98 L158.03,492.51 L149.34,488.72 L140.82,484.62 L132.47,480.22 L124.30,475.53 L116.32,470.54 L108.54,465.26 L100.96,459.71 L93.60,453.89 L86.45,447.80 L79.52,441.45 L72.83,434.84 L66.39,427.99 L60.19,420.90 L54.24,413.57 L48.56,406.01 L43.15,398.23 L38.03,390.25 L33.22,382.10 L28.72,373.81 L24.54,365.36 L20.67,356.78 L17.13,348.07 L13.92,339.25 L11.02,330.31 L8.46,321.28 L6.23,312.15 L4.34,302.94 L2.79,293.66 L1.57,284.32 L0.70,274.92 L0.18,265.48 L0.00,256.00 L0.08,259.29 L0.33,262.54 L0.74,265.75 L1.30,268.90 L2.88,275.03 L5.03,280.91 L7.73,286.51 L10.93,291.78 L14.62,296.71 L18.75,301.26 L23.29,305.39 L28.22,309.07 L33.49,312.28 L39.09,314.97 L44.97,317.12 L51.10,318.70 L54.25,319.26 L57.46,319.67 L60.71,319.92 L64.00,320.00 L224.00,320.00 L227.27,319.84 L230.45,319.35 L233.52,318.56 L236.46,317.49 L239.25,316.14 L241.89,314.54 L244.35,312.69 L246.63,310.63 L248.69,308.36 L250.53,305.89 L252.14,303.25 L253.48,300.46 L254.56,297.52 L255.35,294.45 L255.83,291.27 L256.00,288.00 L256.00,32.00 Z" fill="#29c3ff" stroke="#1e1e1e" stroke-width="1" stroke-linejoin="round"/><path d="M512.00,256.00 L511.92,252.71 L511.67,249.46 L511.26,246.25 L510.70,243.10 L509.12,236.97 L506.97,231.09 L504.28,225.49 L501.07,220.22 L497.39,215.29 L493.25,210.75 L488.71,206.61 L483.78,202.93 L478.51,199.72 L472.91,197.03 L467.03,194.88 L460.90,193.30 L457.75,192.74 L454.54,192.33 L451.29,192.08 L448.00,192.00 L256.00,192.00 L256.00,288.00 L255.83,291.27 L255.35,294.45 L254.56,297.52 L253.49,300.46 L252.14,303.25 L250.53,305.89 L248.69,308.35 L246.63,310.63 L244.35,312.69 L241.89,314.53 L239.25,316.14 L236.46,317.49 L233.52,318.56 L230.45,319.35 L227.27,319.83 L224.00,320.00 L213.33,320.00 L448.00,320.00 L451.29,319.92 L454.54,319.67 L457.75,319.26 L460.90,318.70 L467.03,317.12 L472.91,314.97 L478.51,312.28 L483.78,309.07 L488.71,305.39 L493.25,301.25 L497.39,296.71 L501.07,291.78 L504.28,286.51 L506.97,280.91 L509.12,275.03 L510.70,268.90 L511.26,265.75 L511.67,262.54 L511.92,259.29 L512.00,256.00 Z" fill="#3bd5ff" stroke="#1e1e1e" stroke-width="1" stroke-linejoin="round" opacity="0.6"/></svg>