<svg xmlns="http://www.w3.org/2000/svg" viewBox="-2.00 -2.00 516.00 516.01"><path d="M0.00,256.00 L0.17,249.41 L0.66,242.91 L1.47,236.51 L2.60,230.20 L4.03,224.01 L5.75,217.94 L7.77,211.99 L10.06,206.18 L12.62,200.51 L15.45,194.99 L18.53,189.63 L21.86,184.43 L25.43,179.42 L29.23,174.58 L33.25,169.94 L37.49,165.49 L41.94,161.25 L46.58,157.23 L51.42,153.43 L56.43,149.86 L61.63,146.53 L66.99,143.45 L72.51,140.62 L78.18,138.06 L83.99,135.77 L89.94,133.75 L96.01,132.03 L102.20,130.60 L108.51,129.47 L114.91,128.66 L121.41,128.17 L128.00,128.00 L134.59,128.17 L141.09,128.66 L147.49,129.47 L153.80,130.60 L159.99,132.03 L166.06,133.75 L172.01,135.77 L177.82,138.06 L183.49,140.62 L189.01,143.45 L194.37,146.53 L199.57,149.86 L204.58,153.43 L209.42,157.23 L214.06,161.25 L218.51,165.49 L222.75,169.94 L226.77,174.58 L230.57,179.42 L234.14,184.43 L237.47,189.63 L240.55,194.99 L243.38,200.51 L245.94,206.18 L248.23,211.99 L250.25,217.94 L251.97,224.01 L253.40,230.20 L254.53,236.51 L255.34,242.91 L255.83,249.41 L256.00,256.00 L256.00,277.33 L255.78,281.70 L255.13,285.93 L254.08,290.02 L252.65,293.94 L250.85,297.67 L248.71,301.19 L246.26,304.47 L243.50,307.50 L240.47,310.26 L237.19,312.71 L233.67,314.85 L229.94,316.65 L226.02,318.08 L221.93,319.13 L217.70,319.78 L213.33,320.00 L208.97,320.22 L204.73,320.87 L200.65,321.92 L196.73,323.35 L193.00,325.15 L189.48,327.29 L186.19,329.74 L183.16,332.50 L180.41,335.53 L177.95,338.81 L175.82,342.33 L174.02,346.06 L172.58,349.98 L171.53,354.07 L170.89,358.30 L170.67,362.67 L170.67,405.33 L170.53,410.82 L170.12,416.24 L169.44,421.58 L168.50,426.83 L167.31,431.99 L165.87,437.05 L164.19,442.01 L162.28,446.85 L160.15,451.58 L157.79,456.18 L155.22,460.64 L152.45,464.97 L149.48,469.15 L146.31,473.18 L142.96,477.05 L139.42,480.76 L135.72,484.29 L131.85,487.64 L127.82,490.81 L123.64,493.78 L119.31,496.56 L114.84,499.13 L110.24,501.48 L105.52,503.62 L100.68,505.53 L95.72,507.20 L90.66,508.64 L85.50,509.83 L80.24,510.77 L74.91,511.45 L69.49,511.86 L64.00,512.00 L60.71,511.92 L57.46,511.67 L54.25,511.26 L51.10,510.70 L44.97,509.12 L39.09,506.97 L33.49,504.28 L28.22,501.07 L23.29,497.39 L18.75,493.25 L14.61,488.71 L10.93,483.78 L7.72,478.51 L5.03,472.91 L2.88,467.03 L1.30,460.90 L0.74,457.75 L0.33,454.54 L0.08,451.29 L0.00,448.00 L0.00,256.00 Z" fill="#1a5acd" stroke="#1e1e1e" stroke-width="1" stroke-linejoin="round"/><path d="M0.00,256.00 L0.17,249.41 L0.66,242.91 L1.47,236.51 L2.60,230.20 L4.03,224.01 L5.75,217.94 L7.77,211.99 L10.06,206.18 L12.62,200.51 L15.45,194.99 L18.53,189.63 L21.86,184.43 L25.43,179.42 L29.23,174.58 L33.25,169.94 L37.49,165.49 L41.94,161.25 L46.58,157.23 L51.42,153.43 L56.43,149.86 L61.63,146.53 L66.99,143.45 L72.51,140.62 L78.18,138.06 L83.99,135.77 L89.94,133.75 L96.01,132.03 L102.20,130.60 L108.51,129.47 L114.91,128.66 L121.41,128.17 L128.00,128.00 L134.59,128.17 L141.09,128.66 L147.49,129.47 L153.80,130.60 L159.99,132.03 L166.06,133.75 L172.01,135.77 L177.82,138.06 L183.49,140.62 L189.01,143.45 L194.37,146.53 L199.57,149.86 L204.58,153.43 L209.42,157.23 L214.06,161.25 L218.51,165.49 L222.75,169.94 L226.77,174.58 L230.57,179.42 L234.14,184.43 L237.47,189.63 L240.55,194.99 L243.38,200.51 L245.94,206.18 L248.23,211.99 L250.25,217.94 L251.97,224.01 L253.40,230.20 L254.53,236.51 L255.34,242.91 L255.83,249.41 L256.00,256.00 L256.00,277.33 L255.78,281.70 L255.13,285.93 L254.08,290.02 L252.65,293.94 L250.85,297.67 L248.71,301.19 L246.26,304.47 L243.50,307.50 L240.47,310.26 L237.19,312.71 L233.67,314.85 L229.94,316.65 L226.02,318.08 L221.93,319.13 L217.70,319.78 L213.33,320.00 L208.97,320.22 L204.73,320.87 L200.65,321.92 L196.73,323.35 L193.00,325.15 L189.48,327.29 L186.19,329.74 L183.16,332.50 L180.41,335.53 L177.95,338.81 L175.82,342.33 L174.02,346.06 L172.58,349.98 L171.53,354.07 L170.89,358.30 L170.67,362.67 L170.67,405.33 L170.53,410.82 L170.12,416.24 L169.44,421.58 L168.50,426.83 L167.31,431.99 L165.87,437.05 L164.19,442.01 L162.28,446.85 L160.15,451.58 L157.79,456.18 L155.22,460.64 L152.45,464.97 L149.48,469.15 L146.31,473.18 L142.96,477.05 L139.42,480.76 L135.72,484.29 L131.85,487.64 L127.82,490.81 L123.64,493.78 L119.31,496.56 L114.84,499.13 L110.24,501.48 L105.52,503.62 L100.68,505.53 L95.72,507.20 L90.66,508.64 L85.50,509.83 L80.24,510.77 L74.91,511.45 L69.49,511.86 L64.00,512.00 L60.71,511.92 L57.46,511.67 L54.25,511.26 L51.10,510.70 L44.97,509.12 L39.09,506.97 L33.49,504.28 L28.22,501.07 L23.29,497.39 L18.75,493.25 L14.61,488.71 L10.93,483.78 L7.72,478.51 L5.03,472.91 L2.88,467.03 L1.30,460.90 L0.74,457.75 L0.33,454.54 L0.08,451.29 L0.00,448.00 L0.00,256.00 Z" fill="#1b44b1" stroke="#1e1e1e" stroke-width="1" stroke-linejoin="round"/><path d="M341.33,106.67 L341.47,101.18 L341.88,95.76 L342.56,90.42 L343.50,85.17 L344.69,80.01 L346.13,74.95 L347.81,69.99 L349.72,65.15 L351.85,60.42 L354.21,55.82 L356.78,51.36 L359.55,47.03 L362.52,42.85 L365.69,38.82 L369.04,34.95 L372.58,31.24 L376.28,27.71 L380.15,24.36 L384.18,21.19 L388.36,18.22 L392.69,15.44 L397.16,12.87 L401.76,10.52 L406.48,8.38 L411.32,6.47 L416.28,4.80 L421.34,3.36 L426.50,2.17 L431.76,1.23 L437.09,0.55 L442.51,0.14 L448.00,-0.00 L451.29,0.08 L454.54,0.33 L457.75,0.74 L460.90,1.30 L467.03,2.88 L472.91,5.03 L478.51,7.72 L483.78,10.93 L488.71,14.61 L493.25,18.75 L497.39,23.29 L501.07,28.22 L504.28,33.49 L506.97,39.09 L509.12,44.97 L510.70,51.10 L511.26,54.25 L511.67,57.46 L511.92,60.71 L512.00,64.00 L512.00,256.00 L511.83,262.59 L511.34,269.09 L510.53,275.49 L509.40,281.80 L507.97,287.99 L506.25,294.06 L504.23,300.01 L501.94,305.82 L499.38,311.49 L496.55,317.01 L493.47,322.37 L490.14,327.57 L486.57,332.58 L482.77,337.42 L478.75,342.06 L474.51,346.51 L470.06,350.75 L465.42,354.77 L460.58,358.57 L455.57,362.14 L450.37,365.47 L445.01,368.55 L439.49,371.38 L433.82,373.94 L428.01,376.23 L422.06,378.25 L415.99,379.97 L409.80,381.40 L403.49,382.53 L397.09,383.34 L390.59,383.83 L384.00,384.00 L377.41,383.83 L370.91,383.34 L364.51,382.53 L358.20,381.40 L352.01,379.97 L345.94,378.25 L339.99,376.23 L334.18,373.94 L328.51,371.38 L322.99,368.55 L317.63,365.47 L312.43,362.14 L307.42,358.57 L302.58,354.77 L297.94,350.75 L293.49,346.51 L289.25,342.06 L285.23,337.42 L281.43,332.58 L277.86,327.57 L274.53,322.37 L271.45,317.01 L268.62,311.49 L266.06,305.82 L263.77,300.01 L261.75,294.06 L260.03,287.99 L258.60,281.80 L257.47,275.49 L256.66,269.09 L256.17,262.59 L256.00,256.00 L256.00,234.67 L256.22,230.30 L256.87,226.07 L257.92,221.98 L259.35,218.06 L261.15,214.33 L263.29,210.81 L265.74,207.53 L268.50,204.50 L271.53,201.74 L274.81,199.29 L278.33,197.15 L282.06,195.35 L285.98,193.92 L290.07,192.87 L294.30,192.22 L298.67,192.00 L303.03,191.78 L307.27,191.13 L311.35,190.08 L315.27,188.65 L319.00,186.85 L322.52,184.71 L325.81,182.26 L328.84,179.50 L331.59,176.47 L334.05,173.19 L336.18,169.67 L337.98,165.94 L339.42,162.02 L340.47,157.93 L341.11,153.70 L341.33,149.33 L341.33,106.67 Z" fill="#0064bb" stroke="#1e1e1e" stroke-width="1" stroke-linejoin="round"/><path d="M341.33,106.67 L341.47,101.18 L341.88,95.76 L342.56,90.42 L343.50,85.17 L344.69,80.01 L346.13,74.95 L347.81,69.99 L349.72,65.15 L351.85,60.42 L354.21,55.82 L356.78,51.36 L359.55,47.03 L362.52,42.85 L365.69,38.82 L369.04,34.95 L372.58,31.24 L376.28,27.71 L380.15,24.36 L384.18,21.19 L388.36,18.22 L392.69,15.44 L397.16,12.87 L401.76,10.52 L406.48,8.38 L411.32,6.47 L416.28,4.80 L421.34,3.36 L426.50,2.17 L431.76,1.23 L437.09,0.55 L442.51,0.14 L448.00,-0.00 L451.29,0.08 L454.54,0.33 L457.75,0.74 L460.90,1.30 L467.03,2.88 L472.91,5.03 L478.51,7.72 L483.78,10.93 L488.71,14.61 L493.25,18.75 L497.39,23.29 L501.07,28.22 L504.28,33.49 L506.97,39.09 L509.12,44.97 L510.70,51.10 L511.26,54.25 L511.67,57.46 L511.92,60.71 L512.00,64.00 L512.00,256.00 L511.83,262.59 L511.34,269.09 L510.53,275.49 L509.40,281.80 L507.97,287.99 L506.25,294.06 L504.23,300.01 L501.94,305.82 L499.38,311.49 L496.55,317.01 L493.47,322.37 L490.14,327.57 L486.57,332.58 L482.77,337.42 L478.75,342.06 L474.51,346.51 L470.06,350.75 L465.42,354.77 L460.58,358.57 L455.57,362.14 L450.37,365.47 L445.01,368.55 L439.49,371.38 L433.82,373.94 L428.01,376.23 L422.06,378.25 L415.99,379.97 L409.80,381.40 L403.49,382.53 L397.09,383.34 L390.59,383.83 L384.00,384.00 L377.41,383.83 L370.91,383.34 L364.51,382.53 L358.20,381.40 L352.01,379.97 L345.94,378.25 L339.99,376.23 L334.18,373.94 L328.51,371.38 L322.99,368.55 L317.63,365.47 L312.43,362.14 L307.42,358.57 L302.58,354.77 L297.94,350.75 L293.49,346.51 L289.25,342.06 L285.23,337.42 L281.43,332.58 L277.86,327.57 L274.53,322.37 L271.45,317.01 L268.62,311.49 L266.06,305.82 L263.77,300.01 L261.75,294.06 L260.03,287.99 L258.60,281.80 L257.47,275.49 L256.66,269.09 L256.17,262.59 L256.00,256.00 L256.00,234.67 L256.22,230.30 L256.87,226.07 L257.92,221.98 L259.35,218.06 L261.15,214.33 L263.29,210.81 L265.74,207.53 L268.50,204.50 L271.53,201.74 L274.81,199.29 L278.33,197.15 L282.06,195.35 L285.98,193.92 L290.07,192.87 L294.30,192.22 L298.67,192.00 L303.03,191.78 L307.27,191.13 L311.35,190.08 L315.27,188.65 L319.00,186.85 L322.52,184.71 L325.81,182.26 L328.84,179.50 L331.59,176.47 L334.05,173.19 L336.18,169.67 L337.98,165.94 L339.42,162.02 L340.47,157.93 L341.11,153.70 L341.33,149.33 L341.33,106.67 Z" fill="#0078d4" stroke="#1e1e1e" stroke-width="1" stroke-linejoin="round"/><path d="M384.00,64.00 L384.00,256.00 L383.92,262.61 L383.67,269.17 L383.25,275.70 L382.68,282.17 L381.94,288.61 L381.05,294.99 L380.00,301.32 L378.80,307.59 L375.94,319.98 L372.49,332.13 L368.47,344.02 L363.88,355.65 L358.76,366.99 L353.10,378.02 L346.94,388.75 L340.28,399.13 L333.14,409.17 L325.54,418.84 L317.50,428.13 L309.02,437.02 L300.13,445.50 L290.84,453.54 L281.17,461.14 L271.13,468.28 L260.75,474.94 L250.02,481.10 L238.99,486.76 L227.65,491.88 L216.02,496.47 L204.13,500.49 L191.98,503.94 L179.59,506.80 L173.32,508.00 L166.99,509.05 L160.60,509.94 L154.17,510.68 L147.70,511.25 L141.17,511.67 L134.61,511.92 L128.00,512.00 L64.00,512.00 L67.29,511.92 L70.54,511.67 L73.75,511.26 L76.90,510.70 L83.03,509.12 L88.91,506.97 L94.51,504.28 L99.78,501.07 L104.71,497.39 L109.25,493.25 L113.39,488.71 L117.07,483.78 L120.28,478.51 L122.97,472.91 L125.12,467.03 L126.70,460.90 L127.26,457.75 L127.67,454.54 L127.92,451.29 L128.00,448.00 L128.00,256.00 L128.08,249.39 L128.33,242.83 L128.75,236.30 L129.32,229.83 L130.06,223.39 L130.95,217.01 L132.00,210.68 L133.20,204.41 L136.06,192.02 L139.51,179.87 L143.53,167.98 L148.12,156.35 L153.24,145.01 L158.90,133.98 L165.06,123.25 L171.72,112.87 L178.86,102.83 L186.46,93.16 L194.50,83.87 L202.98,74.98 L211.87,66.50 L221.16,58.46 L230.83,50.86 L240.87,43.72 L251.25,37.06 L261.98,30.90 L273.01,25.24 L284.35,20.12 L295.98,15.53 L307.87,11.51 L320.02,8.06 L332.41,5.20 L338.68,4.00 L345.01,2.95 L351.39,2.06 L357.83,1.32 L364.30,0.75 L370.83,0.33 L377.39,0.08 L384.00,0.00 L448.00,0.00 L444.71,0.08 L441.46,0.33 L438.25,0.74 L435.10,1.30 L428.97,2.88 L423.09,5.03 L417.49,7.72 L412.22,10.93 L407.29,14.61 L402.75,18.75 L398.61,23.29 L394.93,28.22 L391.72,33.49 L389.03,39.09 L386.88,44.97 L385.30,51.10 L384.74,54.25 L384.33,57.46 L384.08,60.71 L384.00,64.00 Z" fill="#24bafa" stroke="#1e1e1e" stroke-width="1" stroke-linejoin="round"/><path d="M383.88,0.01 L380.57,0.03 L371.70,0.29 L362.91,0.85 L354.20,1.71 L345.58,2.85 L337.05,4.28 L328.62,5.99 L320.29,7.97 L312.07,10.22 L303.96,12.73 L295.97,15.50 L288.11,18.53 L280.37,21.80 L272.76,25.32 L265.29,29.08 L257.96,33.08 L250.77,37.30 L243.74,41.75 L236.87,46.41 L230.16,51.29 L223.62,56.38 L217.24,61.68 L211.04,67.18 L205.03,72.87 L199.20,78.75 L193.56,84.81 L188.12,91.06 L182.88,97.48 L177.85,104.07 L173.02,110.83 L168.42,117.74 L164.03,124.82 L159.87,132.04 L164.91,133.45 L169.86,135.05 L174.72,136.85 L179.49,138.84 L184.16,141.01 L188.72,143.36 L193.18,145.89 L197.52,148.59 L201.74,151.46 L205.84,154.48 L209.82,157.67 L213.66,161.00 L217.37,164.49 L220.93,168.11 L224.35,171.88 L227.62,175.78 L230.74,179.81 L233.69,183.96 L236.49,188.24 L239.11,192.63 L241.57,197.13 L243.84,201.74 L245.93,206.45 L247.84,211.26 L249.56,216.17 L251.08,221.16 L252.40,226.23 L253.51,231.39 L254.42,236.61 L255.11,241.91 L255.59,247.28 L255.84,252.70 L255.92,259.31 L256.17,264.73 L256.65,270.10 L257.34,275.40 L258.24,280.63 L259.36,285.78 L260.68,290.86 L262.20,295.85 L263.92,300.75 L265.83,305.56 L267.92,310.27 L270.19,314.88 L272.65,319.38 L275.27,323.77 L278.07,328.05 L281.02,332.20 L284.14,336.23 L287.41,340.13 L290.83,343.90 L294.40,347.53 L298.10,351.01 L301.95,354.34 L305.92,357.53 L310.02,360.55 L314.25,363.42 L318.59,366.12 L323.04,368.64 L327.61,371.00 L332.28,373.17 L337.04,375.16 L341.91,376.96 L346.86,378.56 L351.90,379.97 L355.62,373.02 L359.12,365.94 L362.41,358.74 L365.49,351.43 L368.34,344.00 L370.97,336.46 L373.37,328.82 L375.53,321.08 L377.45,313.24 L379.13,305.31 L380.56,297.29 L381.75,289.18 L382.67,281.00 L383.34,272.74 L383.74,264.41 L383.88,256.01 L383.88,64.01 L383.96,60.71 L384.21,57.46 L384.62,54.26 L385.18,51.11 L386.76,44.98 L388.91,39.10 L391.60,33.50 L394.81,28.22 L398.49,23.30 L402.62,18.75 L407.17,14.62 L412.10,10.94 L417.37,7.73 L422.97,5.04 L428.85,2.88 L434.98,1.31 L438.13,0.74 L441.34,0.34 L444.59,0.09 L447.88,0.01 L383.88,0.01 Z" fill="#6fe8f5" stroke="#1e1e1e" stroke-width="1" stroke-linejoin="round"/><path d="M383.88,0.01 L380.57,0.03 L371.70,0.29 L362.91,0.85 L354.20,1.71 L345.58,2.85 L337.05,4.28 L328.62,5.99 L320.29,7.97 L312.07,10.22 L303.96,12.73 L295.97,15.50 L288.11,18.53 L280.37,21.80 L272.76,25.32 L265.29,29.08 L257.96,33.08 L250.77,37.30 L243.74,41.75 L236.87,46.41 L230.16,51.29 L223.62,56.38 L217.24,61.68 L211.04,67.18 L205.03,72.87 L199.20,78.75 L193.56,84.81 L188.12,91.06 L182.88,97.48 L177.85,104.07 L173.02,110.83 L168.42,117.74 L164.03,124.82 L159.87,132.04 L164.91,133.45 L169.86,135.05 L174.72,136.85 L179.49,138.84 L184.16,141.01 L188.72,143.36 L193.18,145.89 L197.52,148.59 L201.74,151.46 L205.84,154.48 L209.82,157.67 L213.66,161.00 L217.37,164.49 L220.93,168.11 L224.35,171.88 L227.62,175.78 L230.74,179.81 L233.69,183.96 L236.49,188.24 L239.11,192.63 L241.57,197.13 L243.84,201.74 L245.93,206.45 L247.84,211.26 L249.56,216.17 L251.08,221.16 L252.40,226.23 L253.51,231.39 L254.42,236.61 L255.11,241.91 L255.59,247.28 L255.84,252.70 L255.92,259.31 L256.17,264.73 L256.65,270.10 L257.34,275.40 L258.24,280.63 L259.36,285.78 L260.68,290.86 L262.20,295.85 L263.92,300.75 L265.83,305.56 L267.92,310.27 L270.19,314.88 L272.65,319.38 L275.27,323.77 L278.07,328.05 L281.02,332.20 L284.14,336.23 L287.41,340.13 L290.83,343.90 L294.40,347.53 L298.10,351.01 L301.95,354.34 L305.92,357.53 L310.02,360.55 L314.25,363.42 L318.59,366.12 L323.04,368.64 L327.61,371.00 L332.28,373.17 L337.04,375.16 L341.91,376.96 L346.86,378.56 L351.90,379.97 L355.62,373.02 L359.12,365.94 L362.41,358.74 L365.49,351.43 L368.34,344.00 L370.97,336.46 L373.37,328.82 L375.53,321.08 L377.45,313.24 L379.13,305.31 L380.56,297.29 L381.75,289.18 L382.67,281.00 L383.34,272.74 L383.74,264.41 L383.88,256.01 L383.88,64.01 L383.96,60.71 L384.21,57.46 L384.62,54.26 L385.18,51.11 L386.76,44.98 L388.91,39.10 L391.60,33.50 L394.81,28.22 L398.49,23.30 L402.62,18.75 L407.17,14.62 L412.10,10.94 L417.37,7.73 L422.97,5.04 L428.85,2.88 L434.98,1.31 L438.13,0.74 L441.34,0.34 L444.59,0.09 L447.88,0.01 L383.88,0.01 Z" fill="#319cf3" stroke="#1e1e1e" stroke-width="1" stroke-linejoin="round"/><path d="M159.87,132.04 L156.15,138.99 L152.65,146.07 L149.35,153.26 L146.28,160.58 L143.42,168.01 L140.79,175.54 L138.40,183.19 L136.23,190.93 L134.31,198.77 L132.63,206.70 L131.20,214.72 L130.01,222.83 L129.09,231.01 L128.42,239.27 L128.01,247.61 L127.88,256.01 L127.88,448.01 L127.80,451.30 L127.55,454.55 L127.14,457.75 L126.58,460.90 L125.00,467.04 L122.85,472.92 L120.15,478.51 L116.95,483.79 L113.26,488.72 L109.13,493.26 L104.59,497.39 L99.66,501.08 L94.39,504.28 L88.79,506.98 L82.91,509.13 L76.78,510.71 L73.63,511.27 L70.42,511.68 L67.17,511.92 L63.88,512.01 L127.88,512.01 L136.88,511.85 L145.80,511.39 L154.64,510.62 L163.39,509.56 L172.05,508.21 L180.61,506.57 L189.07,504.65 L197.42,502.45 L205.65,499.98 L213.76,497.24 L221.75,494.24 L229.62,490.99 L237.34,487.48 L244.93,483.73 L252.38,479.74 L259.67,475.51 L266.81,471.06 L273.79,466.37 L280.61,461.47 L287.25,456.35 L293.72,451.02 L300.01,445.48 L306.12,439.75 L312.03,433.82 L317.75,427.70 L323.27,421.39 L328.59,414.91 L333.69,408.25 L338.58,401.42 L343.25,394.43 L347.69,387.28 L351.90,379.97 L346.86,378.56 L341.91,376.96 L337.04,375.16 L332.28,373.17 L327.61,371.00 L323.04,368.64 L318.59,366.12 L314.25,363.42 L310.02,360.55 L305.92,357.53 L301.95,354.34 L298.10,351.01 L294.40,347.53 L290.83,343.90 L287.41,340.13 L284.14,336.23 L281.02,332.20 L278.07,328.05 L275.27,323.77 L272.65,319.38 L270.19,314.88 L267.92,310.27 L265.83,305.56 L263.92,300.75 L262.20,295.85 L260.68,290.86 L259.36,285.78 L258.24,280.63 L257.34,275.40 L256.65,270.10 L256.17,264.73 L255.92,259.31 L255.84,252.70 L255.59,247.28 L255.11,241.91 L254.42,236.61 L253.51,231.39 L252.40,226.23 L251.08,221.16 L249.56,216.17 L247.84,211.26 L245.93,206.45 L243.84,201.74 L241.57,197.13 L239.11,192.63 L236.49,188.24 L233.69,183.96 L230.74,179.81 L227.62,175.78 L224.35,171.88 L220.93,168.11 L217.37,164.49 L213.66,161.00 L209.82,157.67 L205.84,154.48 L201.74,151.46 L197.52,148.59 L193.18,145.89 L188.72,143.36 L184.16,141.01 L179.49,138.84 L174.72,136.85 L169.86,135.05 L164.91,133.45 L159.87,132.04 Z" fill="#0094f0" stroke="#1e1e1e" stroke-width="1" stroke-linejoin="round" opacity="0.5"/></svg>