<svg xmlns="http://www.w3.org/2000/svg" viewBox="42.48 -2.00 465.22 516.00"><path d="M168.67,0.00 L177.42,0.31 L186.05,1.22 L194.53,2.72 L202.83,4.79 L210.94,7.42 L218.82,10.59 L226.45,14.28 L233.81,18.48 L240.86,23.17 L247.58,28.33 L253.95,33.96 L259.93,40.03 L265.51,46.52 L270.65,53.42 L275.34,60.72 L279.53,68.40 L304.00,117.33 L234.67,256.02 L176.22,372.91 L174.23,376.55 L172.02,380.01 L169.59,383.28 L166.95,386.36 L164.12,389.23 L161.10,391.90 L157.92,394.35 L154.58,396.57 L151.10,398.56 L147.49,400.31 L143.76,401.82 L139.92,403.06 L135.98,404.04 L131.97,404.76 L127.88,405.19 L123.74,405.33 L116.26,405.33 L112.23,405.20 L108.30,404.81 L104.47,404.18 L100.74,403.30 L97.13,402.20 L93.64,400.88 L90.26,399.35 L87.02,397.61 L83.92,395.69 L80.96,393.59 L78.14,391.32 L75.48,388.88 L72.97,386.29 L70.64,383.56 L68.47,380.70 L66.48,377.71 L64.67,374.61 L63.06,371.41 L61.63,368.11 L60.41,364.72 L59.40,361.26 L58.59,357.73 L58.01,354.15 L57.65,350.52 L57.52,346.85 L57.63,343.15 L57.97,339.44 L58.57,335.71 L59.42,331.99 L60.53,328.28 L61.90,324.58 L63.55,320.92 L84.09,279.85 L84.44,279.11 L88.85,270.31 L90.32,266.87 L91.38,263.31 L92.01,259.67 L92.22,256.00 L92.01,252.33 L91.38,248.69 L90.32,245.13 L88.85,241.69 L57.73,179.45 L55.00,173.64 L52.59,167.78 L50.51,161.90 L48.75,155.99 L47.30,150.07 L46.15,144.14 L45.31,138.22 L44.76,132.31 L44.49,125.92 L44.56,119.57 L44.96,113.27 L45.68,107.03 L46.71,100.85 L48.05,94.75 L49.69,88.74 L51.63,82.84 L53.85,77.05 L56.36,71.38 L59.13,65.84 L62.18,60.45 L65.48,55.22 L69.04,50.15 L72.84,45.26 L76.89,40.56 L81.16,36.06 L85.67,31.77 L90.39,27.70 L95.32,23.87 L100.47,20.28 L105.81,16.94 L111.34,13.87 L117.06,11.07 L122.95,8.57 L129.02,6.36 L135.26,4.46 L141.65,2.89 L148.20,1.64 L154.89,0.74 L161.72,0.19 L168.67,0.00 Z" fill="#bc2b5f" stroke="#1e1e1e" stroke-width="1" stroke-linejoin="round"/><path d="M168.67,0.00 L177.42,0.31 L186.05,1.22 L194.53,2.72 L202.83,4.79 L210.94,7.42 L218.82,10.59 L226.45,14.28 L233.81,18.48 L240.86,23.17 L247.58,28.33 L253.95,33.96 L259.93,40.03 L265.51,46.52 L270.65,53.42 L275.34,60.72 L279.53,68.40 L304.00,117.33 L234.67,256.02 L176.22,372.91 L174.23,376.55 L172.02,380.01 L169.59,383.28 L166.95,386.36 L164.12,389.23 L161.10,391.90 L157.92,394.35 L154.58,396.57 L151.10,398.56 L147.49,400.31 L143.76,401.82 L139.92,403.06 L135.98,404.04 L131.97,404.76 L127.88,405.19 L123.74,405.33 L116.26,405.33 L112.23,405.20 L108.30,404.81 L104.47,404.18 L100.74,403.30 L97.13,402.20 L93.64,400.88 L90.26,399.35 L87.02,397.61 L83.92,395.69 L80.96,393.59 L78.14,391.32 L75.48,388.88 L72.97,386.29 L70.64,383.56 L68.47,380.70 L66.48,377.71 L64.67,374.61 L63.06,371.41 L61.63,368.11 L60.41,364.72 L59.40,361.26 L58.59,357.73 L58.01,354.15 L57.65,350.52 L57.52,346.85 L57.63,343.15 L57.97,339.44 L58.57,335.71 L59.42,331.99 L60.53,328.28 L61.90,324.58 L63.55,320.92 L84.09,279.85 L84.44,279.11 L88.85,270.31 L90.32,266.87 L91.38,263.31 L92.01,259.67 L92.22,256.00 L92.01,252.33 L91.38,248.69 L90.32,245.13 L88.85,241.69 L57.73,179.45 L55.00,173.64 L52.59,167.78 L50.51,161.90 L48.75,155.99 L47.30,150.07 L46.15,144.14 L45.31,138.22 L44.76,132.31 L44.49,125.92 L44.56,119.57 L44.96,113.27 L45.68,107.03 L46.71,100.85 L48.05,94.75 L49.69,88.74 L51.63,82.84 L53.85,77.05 L56.36,71.38 L59.13,65.84 L62.18,60.45 L65.48,55.22 L69.04,50.15 L72.84,45.26 L76.89,40.56 L81.16,36.06 L85.67,31.77 L90.39,27.70 L95.32,23.87 L100.47,20.28 L105.81,16.94 L111.34,13.87 L117.06,11.07 L122.95,8.57 L129.02,6.36 L135.26,4.46 L141.65,2.89 L148.20,1.64 L154.89,0.74 L161.72,0.19 L168.67,0.00 Z" fill="#861165" stroke="#1e1e1e" stroke-width="1" stroke-linejoin="round" opacity="0.5"/><path d="M168.67,0.00 L177.42,0.31 L186.05,1.22 L194.53,2.72 L202.83,4.79 L210.94,7.42 L218.82,10.59 L226.45,14.28 L233.81,18.48 L240.86,23.17 L247.58,28.33 L253.95,33.96 L259.93,40.03 L265.51,46.52 L270.65,53.42 L275.34,60.72 L279.53,68.40 L304.00,117.33 L234.67,256.02 L176.22,372.91 L174.23,376.55 L172.02,380.01 L169.59,383.28 L166.95,386.36 L164.12,389.23 L161.10,391.90 L157.92,394.35 L154.58,396.57 L151.10,398.56 L147.49,400.31 L143.76,401.82 L139.92,403.06 L135.98,404.04 L131.97,404.76 L127.88,405.19 L123.74,405.33 L116.26,405.33 L112.23,405.20 L108.30,404.81 L104.47,404.18 L100.74,403.30 L97.13,402.20 L93.64,400.88 L90.26,399.35 L87.02,397.61 L83.92,395.69 L80.96,393.59 L78.14,391.32 L75.48,388.88 L72.97,386.29 L70.64,383.56 L68.47,380.70 L66.48,377.71 L64.67,374.61 L63.06,371.41 L61.63,368.11 L60.41,364.72 L59.40,361.26 L58.59,357.73 L58.01,354.15 L57.65,350.52 L57.52,346.85 L57.63,343.15 L57.97,339.44 L58.57,335.71 L59.42,331.99 L60.53,328.28 L61.90,324.58 L63.55,320.92 L84.09,279.85 L84.44,279.11 L88.85,270.31 L90.32,266.87 L91.38,263.31 L92.01,259.67 L92.22,256.00 L92.01,252.33 L91.38,248.69 L90.32,245.13 L88.85,241.69 L57.73,179.45 L55.00,173.64 L52.59,167.78 L50.51,161.90 L48.75,155.99 L47.30,150.07 L46.15,144.14 L45.31,138.22 L44.76,132.31 L44.49,125.92 L44.56,119.57 L44.96,113.27 L45.68,107.03 L46.71,100.85 L48.05,94.75 L49.69,88.74 L51.63,82.84 L53.85,77.05 L56.36,71.38 L59.13,65.84 L62.18,60.45 L65.48,55.22 L69.04,50.15 L72.84,45.26 L76.89,40.56 L81.16,36.06 L85.67,31.77 L90.39,27.70 L95.32,23.87 L100.47,20.28 L105.81,16.94 L111.34,13.87 L117.06,11.07 L122.95,8.57 L129.02,6.36 L135.26,4.46 L141.65,2.89 L148.20,1.64 L154.89,0.74 L161.72,0.19 L168.67,0.00 Z" fill="#7e1069" stroke="#1e1e1e" stroke-width="1" stroke-linejoin="round" opacity="0.67"/><path d="M238.07,21.24 L244.44,25.84 L250.52,30.84 L256.28,36.23 L261.71,42.00 L266.77,48.13 L271.46,54.61 L275.75,61.42 L279.61,68.57 L373.33,256.00 L298.67,405.34 L117.25,405.34 L122.14,405.16 L126.96,404.64 L131.69,403.80 L136.34,402.63 L140.87,401.15 L145.27,399.38 L149.53,397.31 L153.64,394.95 L157.58,392.33 L161.33,389.43 L164.89,386.28 L168.23,382.89 L171.34,379.25 L174.21,375.39 L176.82,371.30 L179.16,367.01 L227.51,270.31 L228.99,266.86 L230.04,263.30 L230.68,259.67 L230.89,256.00 L230.68,252.33 L230.04,248.70 L228.99,245.14 L227.51,241.69 L196.85,180.37 L194.24,174.82 L191.92,169.23 L189.90,163.61 L188.17,157.97 L186.72,152.31 L185.55,146.65 L184.65,140.98 L184.03,135.32 L183.67,129.67 L183.57,124.05 L183.72,118.45 L184.13,112.90 L184.78,107.38 L185.68,101.92 L186.81,96.52 L188.18,91.19 L189.77,85.93 L191.59,80.76 L193.63,75.67 L195.89,70.69 L198.36,65.81 L201.03,61.04 L203.90,56.39 L206.97,51.87 L210.23,47.49 L213.68,43.25 L217.32,39.16 L221.13,35.23 L225.11,31.46 L229.27,27.87 L233.59,24.46 L238.07,21.24 Z" fill="#f3475a" stroke="#1e1e1e" stroke-width="1" stroke-linejoin="round"/><path d="M238.07,21.24 L244.44,25.84 L250.52,30.84 L256.28,36.23 L261.71,42.00 L266.77,48.13 L271.46,54.61 L275.75,61.42 L279.61,68.57 L373.33,256.00 L298.67,405.34 L117.25,405.34 L122.14,405.16 L126.96,404.64 L131.69,403.80 L136.34,402.63 L140.87,401.15 L145.27,399.38 L149.53,397.31 L153.64,394.95 L157.58,392.33 L161.33,389.43 L164.89,386.28 L168.23,382.89 L171.34,379.25 L174.21,375.39 L176.82,371.30 L179.16,367.01 L227.51,270.31 L228.99,266.86 L230.04,263.30 L230.68,259.67 L230.89,256.00 L230.68,252.33 L230.04,248.70 L228.99,245.14 L227.51,241.69 L196.85,180.37 L194.24,174.82 L191.92,169.23 L189.90,163.61 L188.17,157.97 L186.72,152.31 L185.55,146.65 L184.65,140.98 L184.03,135.32 L183.67,129.67 L183.57,124.05 L183.72,118.45 L184.13,112.90 L184.78,107.38 L185.68,101.92 L186.81,96.52 L188.18,91.19 L189.77,85.93 L191.59,80.76 L193.63,75.67 L195.89,70.69 L198.36,65.81 L201.03,61.04 L203.90,56.39 L206.97,51.87 L210.23,47.49 L213.68,43.25 L217.32,39.16 L221.13,35.23 L225.11,31.46 L229.27,27.87 L233.59,24.46 L238.07,21.24 Z" fill="#e23e50" stroke="#1e1e1e" stroke-width="1" stroke-linejoin="round" opacity="0.5"/><path d="M238.07,21.24 L244.44,25.84 L250.52,30.84 L256.28,36.23 L261.71,42.00 L266.77,48.13 L271.46,54.61 L275.75,61.42 L279.61,68.57 L373.33,256.00 L298.67,405.34 L117.25,405.34 L122.14,405.16 L126.96,404.64 L131.69,403.80 L136.34,402.63 L140.87,401.15 L145.27,399.38 L149.53,397.31 L153.64,394.95 L157.58,392.33 L161.33,389.43 L164.89,386.28 L168.23,382.89 L171.34,379.25 L174.21,375.39 L176.82,371.30 L179.16,367.01 L227.51,270.31 L228.99,266.86 L230.04,263.30 L230.68,259.67 L230.89,256.00 L230.68,252.33 L230.04,248.70 L228.99,245.14 L227.51,241.69 L196.85,180.37 L194.24,174.82 L191.92,169.23 L189.90,163.61 L188.17,157.97 L186.72,152.31 L185.55,146.65 L184.65,140.98 L184.03,135.32 L183.67,129.67 L183.57,124.05 L183.72,118.45 L184.13,112.90 L184.78,107.38 L185.68,101.92 L186.81,96.52 L188.18,91.19 L189.77,85.93 L191.59,80.76 L193.63,75.67 L195.89,70.69 L198.36,65.81 L201.03,61.04 L203.90,56.39 L206.97,51.87 L210.23,47.49 L213.68,43.25 L217.32,39.16 L221.13,35.23 L225.11,31.46 L229.27,27.87 L233.59,24.46 L238.07,21.24 Z" fill="#c4204d" stroke="#1e1e1e" stroke-width="1" stroke-linejoin="round" opacity="0.5"/><path d="M238.07,21.24 L244.44,25.84 L250.52,30.84 L256.28,36.23 L261.71,42.00 L266.77,48.13 L271.46,54.61 L275.75,61.42 L279.61,68.57 L373.33,256.00 L298.67,405.34 L117.25,405.34 L122.14,405.16 L126.96,404.64 L131.69,403.80 L136.34,402.63 L140.87,401.15 L145.27,399.38 L149.53,397.31 L153.64,394.95 L157.58,392.33 L161.33,389.43 L164.89,386.28 L168.23,382.89 L171.34,379.25 L174.21,375.39 L176.82,371.30 L179.16,367.01 L227.51,270.31 L228.99,266.86 L230.04,263.30 L230.68,259.67 L230.89,256.00 L230.68,252.33 L230.04,248.70 L228.99,245.14 L227.51,241.69 L196.85,180.37 L194.24,174.82 L191.92,169.23 L189.90,163.61 L188.17,157.97 L186.72,152.31 L185.55,146.65 L184.65,140.98 L184.03,135.32 L183.67,129.67 L183.57,124.05 L183.72,118.45 L184.13,112.90 L184.78,107.38 L185.68,101.92 L186.81,96.52 L188.18,91.19 L189.77,85.93 L191.59,80.76 L193.63,75.67 L195.89,70.69 L198.36,65.81 L201.03,61.04 L203.90,56.39 L206.97,51.87 L210.23,47.49 L213.68,43.25 L217.32,39.16 L221.13,35.23 L225.11,31.46 L229.27,27.87 L233.59,24.46 L238.07,21.24 Z" fill="#ac1862" stroke="#1e1e1e" stroke-width="1" stroke-linejoin="round" opacity="0.4"/><path d="M307.35,0.00 L316.10,0.31 L324.74,1.22 L333.23,2.73 L341.54,4.80 L349.66,7.44 L357.55,10.61 L365.19,14.32 L372.55,18.52 L379.61,23.23 L386.33,28.40 L392.70,34.04 L398.69,40.12 L404.27,46.63 L409.41,53.55 L414.09,60.87 L418.28,68.56 L500.15,232.31 L501.45,235.14 L502.58,238.02 L503.53,240.95 L504.31,243.92 L504.92,246.91 L505.35,249.94 L505.61,252.97 L505.70,256.01 L505.61,259.06 L505.35,262.09 L504.92,265.11 L504.31,268.11 L503.52,271.08 L502.57,274.01 L501.44,276.89 L500.13,279.72 L450.14,379.72 L398.74,482.52 L396.94,485.82 L394.93,488.97 L392.72,491.95 L390.32,494.75 L387.74,497.36 L385.01,499.78 L382.11,502.01 L379.08,504.03 L375.91,505.84 L372.63,507.43 L369.23,508.80 L365.74,509.93 L362.17,510.83 L358.52,511.47 L354.80,511.87 L351.04,512.00 L168.64,512.00 L160.10,511.72 L151.76,510.89 L143.63,509.54 L135.73,507.68 L128.07,505.33 L120.66,502.51 L113.52,499.25 L106.65,495.57 L100.07,491.48 L93.80,487.01 L87.83,482.17 L82.20,476.99 L76.91,471.49 L71.96,465.68 L67.39,459.59 L63.19,453.24 L59.38,446.65 L55.97,439.84 L52.98,432.83 L50.42,425.63 L48.30,418.28 L46.63,410.79 L45.43,403.17 L44.71,395.46 L44.48,387.67 L44.75,379.83 L45.54,371.94 L46.85,364.04 L48.71,356.14 L51.13,348.27 L54.10,340.44 L57.66,332.67 L63.77,320.47 L62.89,322.30 L61.36,325.93 L60.10,329.59 L59.09,333.26 L58.34,336.94 L57.83,340.62 L57.56,344.29 L57.53,347.94 L57.72,351.55 L58.14,355.13 L58.78,358.66 L59.63,362.13 L60.68,365.53 L61.93,368.85 L63.38,372.10 L65.02,375.24 L66.84,378.29 L68.84,381.22 L71.01,384.02 L73.35,386.70 L75.84,389.23 L78.50,391.62 L81.30,393.85 L84.24,395.90 L87.32,397.79 L90.54,399.48 L93.88,400.98 L97.34,402.27 L100.92,403.35 L104.60,404.20 L108.39,404.82 L112.28,405.20 L116.26,405.33 L278.89,405.33 L283.38,405.02 L287.71,404.09 L291.84,402.60 L295.71,400.55 L299.27,398.01 L302.46,394.98 L305.22,391.52 L307.51,387.65 L366.18,270.31 L367.66,266.87 L368.71,263.31 L369.35,259.67 L369.56,256.00 L369.35,252.33 L368.71,248.69 L367.66,245.13 L366.18,241.69 L279.67,68.68 L275.80,61.53 L271.50,54.70 L266.80,48.20 L261.73,42.06 L256.29,36.29 L250.52,30.89 L244.43,25.87 L238.04,21.27 L241.72,18.84 L245.51,16.53 L249.38,14.37 L253.35,12.33 L257.41,10.44 L261.56,8.69 L265.79,7.09 L270.11,5.65 L274.50,4.36 L278.98,3.22 L283.53,2.25 L288.15,1.45 L292.85,0.82 L297.62,0.37 L302.45,0.09 L307.35,0.00 Z" fill="#fb6b78" stroke="#1e1e1e" stroke-width="1" stroke-linejoin="round"/></svg>