<svg xmlns="http://www.w3.org/2000/svg" viewBox="-2.00 -1.67 100.00 100.00"><path d="M48.17,6.02 L48.14,5.41 L48.05,4.81 L47.90,4.23 L47.69,3.68 L47.44,3.15 L47.14,2.66 L46.79,2.21 L46.40,1.80 L45.98,1.43 L45.51,1.10 L45.02,0.83 L44.49,0.62 L43.94,0.46 L43.37,0.36 L42.77,0.33 L42.16,0.38 L40.78,0.57 L39.40,0.80 L38.04,1.08 L36.68,1.39 L35.33,1.74 L33.99,2.13 L32.67,2.56 L31.35,3.03 L30.05,3.54 L28.77,4.08 L27.50,4.66 L26.25,5.28 L25.01,5.93 L23.79,6.63 L22.59,7.35 L21.41,8.12 L19.94,9.14 L18.52,10.21 L17.14,11.32 L15.81,12.49 L14.52,13.70 L13.27,14.96 L12.08,16.27 L10.93,17.61 L9.84,19.00 L8.79,20.42 L7.80,21.89 L6.86,23.39 L5.98,24.93 L5.15,26.50 L4.38,28.10 L3.67,29.74 L3.01,31.40 L2.43,33.08 L1.90,34.77 L1.44,36.48 L1.04,38.21 L0.71,39.95 L0.44,41.69 L0.23,43.45 L0.09,45.21 L0.01,46.97 L0.00,48.74 L0.06,50.51 L0.18,52.28 L0.36,54.05 L0.61,55.81 L0.93,57.57 L1.31,59.31 L1.75,61.03 L2.26,62.73 L2.82,64.41 L3.45,66.07 L4.14,67.70 L4.88,69.30 L5.69,70.88 L6.55,72.42 L7.47,73.93 L8.44,75.41 L9.47,76.85 L10.55,78.25 L11.68,79.62 L12.87,80.94 L14.11,82.23 L15.39,83.47 L16.72,84.65 L18.09,85.79 L19.49,86.87 L20.93,87.90 L22.41,88.87 L23.92,89.79 L25.46,90.65 L27.04,91.45 L28.64,92.20 L30.27,92.89 L31.92,93.52 L33.60,94.08 L35.31,94.59 L37.03,95.03 L38.77,95.41 L40.53,95.73 L42.29,95.98 L44.06,96.16 L45.82,96.28 L47.59,96.33 L49.36,96.32 L51.13,96.25 L52.89,96.11 L54.65,95.90 L56.39,95.63 L58.13,95.30 L59.85,94.90 L61.57,94.44 L63.26,93.91 L64.94,93.32 L66.60,92.67 L68.24,91.96 L69.84,91.19 L71.41,90.36 L72.95,89.47 L74.45,88.54 L75.91,87.54 L77.34,86.50 L78.73,85.40 L80.07,84.26 L81.37,83.06 L82.63,81.82 L83.85,80.53 L85.01,79.20 L86.13,77.82 L87.20,76.39 L88.22,74.93 L88.98,73.75 L89.71,72.55 L90.40,71.33 L91.06,70.09 L91.68,68.84 L92.26,67.57 L92.80,66.28 L93.31,64.98 L93.77,63.67 L94.20,62.35 L94.59,61.01 L94.95,59.66 L95.26,58.30 L95.53,56.93 L95.77,55.56 L95.96,54.17 L96.00,53.56 L95.97,52.97 L95.88,52.40 L95.72,51.84 L95.51,51.32 L95.23,50.82 L94.91,50.36 L94.54,49.93 L94.13,49.55 L93.67,49.20 L93.18,48.90 L92.66,48.64 L92.11,48.44 L91.53,48.29 L90.93,48.20 L90.32,48.17 L54.19,48.17 L53.57,48.14 L52.98,48.05 L52.40,47.90 L51.85,47.70 L51.32,47.44 L50.82,47.14 L50.36,46.79 L49.93,46.41 L49.54,45.98 L49.20,45.51 L48.90,45.02 L48.64,44.49 L48.44,43.94 L48.29,43.36 L48.20,42.76 L48.17,42.15 L48.17,6.02 Z" fill="#196e4b" stroke="#1e1e1e" stroke-width="1" stroke-linejoin="round"/><path d="M48.17,6.02 L48.14,5.41 L48.05,4.81 L47.90,4.23 L47.69,3.68 L47.44,3.15 L47.14,2.66 L46.79,2.21 L46.40,1.80 L45.98,1.43 L45.51,1.10 L45.02,0.83 L44.49,0.62 L43.94,0.46 L43.37,0.36 L42.77,0.33 L42.16,0.38 L40.78,0.57 L39.40,0.80 L38.04,1.08 L36.68,1.39 L35.33,1.74 L33.99,2.13 L32.67,2.56 L31.35,3.03 L30.05,3.54 L28.77,4.08 L27.50,4.66 L26.25,5.28 L25.01,5.93 L23.79,6.63 L22.59,7.35 L21.41,8.12 L19.94,9.14 L18.52,10.21 L17.14,11.32 L15.81,12.49 L14.52,13.70 L13.27,14.96 L12.08,16.27 L10.93,17.61 L9.84,19.00 L8.79,20.42 L7.80,21.89 L6.86,23.39 L5.98,24.93 L5.15,26.50 L4.38,28.10 L3.67,29.74 L3.01,31.40 L2.43,33.08 L1.90,34.77 L1.44,36.48 L1.04,38.21 L0.71,39.95 L0.44,41.69 L0.23,43.45 L0.09,45.21 L0.01,46.97 L0.00,48.74 L0.06,50.51 L0.18,52.28 L0.36,54.05 L0.61,55.81 L0.93,57.57 L1.31,59.31 L1.75,61.03 L2.26,62.73 L2.82,64.41 L3.45,66.07 L4.14,67.70 L4.88,69.30 L5.69,70.88 L6.55,72.42 L7.47,73.93 L8.44,75.41 L9.47,76.85 L10.55,78.25 L11.68,79.62 L12.87,80.94 L14.11,82.23 L15.39,83.47 L16.72,84.65 L18.09,85.79 L19.49,86.87 L20.93,87.90 L22.41,88.87 L23.92,89.79 L25.46,90.65 L27.04,91.45 L28.64,92.20 L30.27,92.89 L31.92,93.52 L33.60,94.08 L35.31,94.59 L37.03,95.03 L38.77,95.41 L40.53,95.73 L42.29,95.98 L44.06,96.16 L45.82,96.28 L47.59,96.33 L49.36,96.32 L51.13,96.25 L52.89,96.11 L54.65,95.90 L56.39,95.63 L58.13,95.30 L59.85,94.90 L61.57,94.44 L63.26,93.91 L64.94,93.32 L66.60,92.67 L68.24,91.96 L69.84,91.19 L71.41,90.36 L72.95,89.47 L74.45,88.54 L75.91,87.54 L77.34,86.50 L78.73,85.40 L80.07,84.26 L81.37,83.06 L82.63,81.82 L83.85,80.53 L85.01,79.20 L86.13,77.82 L87.20,76.39 L88.22,74.93 L88.98,73.75 L89.71,72.55 L90.40,71.33 L91.06,70.09 L91.68,68.84 L92.26,67.57 L92.80,66.28 L93.31,64.98 L93.77,63.67 L94.20,62.35 L94.59,61.01 L94.95,59.66 L95.26,58.30 L95.53,56.93 L95.77,55.56 L95.96,54.17 L96.00,53.56 L95.97,52.97 L95.88,52.40 L95.72,51.84 L95.51,51.32 L95.23,50.82 L94.91,50.36 L94.54,49.93 L94.13,49.55 L93.67,49.20 L93.18,48.90 L92.66,48.64 L92.11,48.44 L91.53,48.29 L90.93,48.20 L90.32,48.17 L54.19,48.17 L53.57,48.14 L52.98,48.05 L52.40,47.90 L51.85,47.70 L51.32,47.44 L50.82,47.14 L50.36,46.79 L49.93,46.41 L49.54,45.98 L49.20,45.51 L48.90,45.02 L48.64,44.49 L48.44,43.94 L48.29,43.36 L48.20,42.76 L48.17,42.15 L48.17,6.02 Z" fill="#094247" stroke="#1e1e1e" stroke-width="1" stroke-linejoin="round" opacity="0.51"/><path d="M48.17,75.89 L48.20,76.55 L48.30,77.18 L48.46,77.79 L48.67,78.38 L48.94,78.93 L49.27,79.45 L49.63,79.93 L50.05,80.36 L50.50,80.75 L50.99,81.08 L51.52,81.35 L52.07,81.56 L52.65,81.70 L53.26,81.78 L53.89,81.77 L54.53,81.69 L56.20,81.33 L57.85,80.89 L59.47,80.36 L61.07,79.75 L62.64,79.07 L64.17,78.30 L65.67,77.46 L67.12,76.54 L68.16,75.82 L69.17,75.06 L70.15,74.27 L71.09,73.44 L72.01,72.58 L72.89,71.69 L73.73,70.77 L74.54,69.81 L75.32,68.83 L76.06,67.82 L76.76,66.78 L77.43,65.72 L78.05,64.63 L78.64,63.52 L79.19,62.38 L79.69,61.23 L80.15,60.05 L80.57,58.86 L80.94,57.66 L81.27,56.45 L81.55,55.22 L81.79,53.99 L81.98,52.76 L82.12,51.51 L82.22,50.27 L82.28,49.01 L82.29,47.76 L82.25,46.51 L82.16,45.26 L82.03,44.00 L81.86,42.76 L81.63,41.51 L81.36,40.28 L81.05,39.06 L80.69,37.85 L80.29,36.66 L79.84,35.49 L79.36,34.33 L78.83,33.20 L78.26,32.09 L77.65,30.99 L77.00,29.92 L76.31,28.88 L75.58,27.85 L74.82,26.86 L74.01,25.89 L73.17,24.95 L72.30,24.04 L71.39,23.17 L70.45,22.33 L69.48,21.52 L68.48,20.76 L67.46,20.03 L66.42,19.34 L65.35,18.69 L64.25,18.08 L63.14,17.51 L62.00,16.98 L60.85,16.49 L59.68,16.05 L58.49,15.65 L57.28,15.29 L56.06,14.97 L54.83,14.70 L53.58,14.48 L52.33,14.30 L51.08,14.17 L49.83,14.09 L48.58,14.05 L47.32,14.06 L46.07,14.11 L44.82,14.21 L43.58,14.36 L42.34,14.55 L41.11,14.79 L39.89,15.07 L38.68,15.40 L37.48,15.77 L36.29,16.18 L35.11,16.65 L33.95,17.15 L32.82,17.70 L31.70,18.28 L30.62,18.91 L29.55,19.58 L28.52,20.28 L27.51,21.02 L26.52,21.79 L25.57,22.61 L24.65,23.45 L23.76,24.33 L22.90,25.25 L22.07,26.19 L21.28,27.17 L20.52,28.18 L19.80,29.21 L18.88,30.67 L18.03,32.17 L17.27,33.70 L16.58,35.27 L15.98,36.86 L15.45,38.49 L15.01,40.14 L14.65,41.81 L14.57,42.45 L14.56,43.08 L14.64,43.68 L14.78,44.27 L14.99,44.82 L15.26,45.35 L15.59,45.84 L15.98,46.29 L16.41,46.70 L16.89,47.07 L17.40,47.39 L17.96,47.66 L18.54,47.88 L19.16,48.04 L19.79,48.14 L20.45,48.17 L41.77,48.17 L42.43,48.20 L43.06,48.30 L43.67,48.46 L44.26,48.67 L44.82,48.94 L45.35,49.26 L45.84,49.63 L46.30,50.04 L46.71,50.50 L47.08,50.99 L47.40,51.52 L47.67,52.08 L47.88,52.66 L48.04,53.28 L48.14,53.91 L48.17,54.57 L48.17,75.89 Z" fill="#44b86e" stroke="#1e1e1e" stroke-width="1" stroke-linejoin="round"/><path d="M48.17,75.89 L48.20,76.55 L48.30,77.18 L48.46,77.79 L48.67,78.38 L48.94,78.93 L49.27,79.45 L49.63,79.93 L50.05,80.36 L50.50,80.75 L50.99,81.08 L51.52,81.35 L52.07,81.56 L52.65,81.70 L53.26,81.78 L53.89,81.77 L54.53,81.69 L56.20,81.33 L57.85,80.89 L59.47,80.36 L61.07,79.75 L62.64,79.07 L64.17,78.30 L65.67,77.46 L67.12,76.54 L68.16,75.82 L69.17,75.06 L70.15,74.27 L71.09,73.44 L72.01,72.58 L72.89,71.69 L73.73,70.77 L74.54,69.81 L75.32,68.83 L76.06,67.82 L76.76,66.78 L77.43,65.72 L78.05,64.63 L78.64,63.52 L79.19,62.38 L79.69,61.23 L80.15,60.05 L80.57,58.86 L80.94,57.66 L81.27,56.45 L81.55,55.22 L81.79,53.99 L81.98,52.76 L82.12,51.51 L82.22,50.27 L82.28,49.01 L82.29,47.76 L82.25,46.51 L82.16,45.26 L82.03,44.00 L81.86,42.76 L81.63,41.51 L81.36,40.28 L81.05,39.06 L80.69,37.85 L80.29,36.66 L79.84,35.49 L79.36,34.33 L78.83,33.20 L78.26,32.09 L77.65,30.99 L77.00,29.92 L76.31,28.88 L75.58,27.85 L74.82,26.86 L74.01,25.89 L73.17,24.95 L72.30,24.04 L71.39,23.17 L70.45,22.33 L69.48,21.52 L68.48,20.76 L67.46,20.03 L66.42,19.34 L65.35,18.69 L64.25,18.08 L63.14,17.51 L62.00,16.98 L60.85,16.49 L59.68,16.05 L58.49,15.65 L57.28,15.29 L56.06,14.97 L54.83,14.70 L53.58,14.48 L52.33,14.30 L51.08,14.17 L49.83,14.09 L48.58,14.05 L47.32,14.06 L46.07,14.11 L44.82,14.21 L43.58,14.36 L42.34,14.55 L41.11,14.79 L39.89,15.07 L38.68,15.40 L37.48,15.77 L36.29,16.18 L35.11,16.65 L33.95,17.15 L32.82,17.70 L31.70,18.28 L30.62,18.91 L29.55,19.58 L28.52,20.28 L27.51,21.02 L26.52,21.79 L25.57,22.61 L24.65,23.45 L23.76,24.33 L22.90,25.25 L22.07,26.19 L21.28,27.17 L20.52,28.18 L19.80,29.21 L18.88,30.67 L18.03,32.17 L17.27,33.70 L16.58,35.27 L15.98,36.86 L15.45,38.49 L15.01,40.14 L14.65,41.81 L14.57,42.45 L14.56,43.08 L14.64,43.68 L14.78,44.27 L14.99,44.82 L15.26,45.35 L15.59,45.84 L15.98,46.29 L16.41,46.70 L16.89,47.07 L17.40,47.39 L17.96,47.66 L18.54,47.88 L19.16,48.04 L19.79,48.14 L20.45,48.17 L41.77,48.17 L42.43,48.20 L43.06,48.30 L43.67,48.46 L44.26,48.67 L44.82,48.94 L45.35,49.26 L45.84,49.63 L46.30,50.04 L46.71,50.50 L47.08,50.99 L47.40,51.52 L47.67,52.08 L47.88,52.66 L48.04,53.28 L48.14,53.91 L48.17,54.57 L48.17,75.89 Z" fill="#309c61" stroke="#1e1e1e" stroke-width="1" stroke-linejoin="round" opacity="0"/><path d="M48.17,75.89 L48.20,76.55 L48.30,77.18 L48.46,77.79 L48.67,78.38 L48.94,78.93 L49.27,79.45 L49.63,79.93 L50.05,80.36 L50.50,80.75 L50.99,81.08 L51.52,81.35 L52.07,81.56 L52.65,81.70 L53.26,81.78 L53.89,81.77 L54.53,81.69 L56.20,81.33 L57.85,80.89 L59.47,80.36 L61.07,79.75 L62.64,79.07 L64.17,78.30 L65.67,77.46 L67.12,76.54 L68.16,75.82 L69.17,75.06 L70.15,74.27 L71.09,73.44 L72.01,72.58 L72.89,71.69 L73.73,70.77 L74.54,69.81 L75.32,68.83 L76.06,67.82 L76.76,66.78 L77.43,65.72 L78.05,64.63 L78.64,63.52 L79.19,62.38 L79.69,61.23 L80.15,60.05 L80.57,58.86 L80.94,57.66 L81.27,56.45 L81.55,55.22 L81.79,53.99 L81.98,52.76 L82.12,51.51 L82.22,50.27 L82.28,49.01 L82.29,47.76 L82.25,46.51 L82.16,45.26 L82.03,44.00 L81.86,42.76 L81.63,41.51 L81.36,40.28 L81.05,39.06 L80.69,37.85 L80.29,36.66 L79.84,35.49 L79.36,34.33 L78.83,33.20 L78.26,32.09 L77.65,30.99 L77.00,29.92 L76.31,28.88 L75.58,27.85 L74.82,26.86 L74.01,25.89 L73.17,24.95 L72.30,24.04 L71.39,23.17 L70.45,22.33 L69.48,21.52 L68.48,20.76 L67.46,20.03 L66.42,19.34 L65.35,18.69 L64.25,18.08 L63.14,17.51 L62.00,16.98 L60.85,16.49 L59.68,16.05 L58.49,15.65 L57.28,15.29 L56.06,14.97 L54.83,14.70 L53.58,14.48 L52.33,14.30 L51.08,14.17 L49.83,14.09 L48.58,14.05 L47.32,14.06 L46.07,14.11 L44.82,14.21 L43.58,14.36 L42.34,14.55 L41.11,14.79 L39.89,15.07 L38.68,15.40 L37.48,15.77 L36.29,16.18 L35.11,16.65 L33.95,17.15 L32.82,17.70 L31.70,18.28 L30.62,18.91 L29.55,19.58 L28.52,20.28 L27.51,21.02 L26.52,21.79 L25.57,22.61 L24.65,23.45 L23.76,24.33 L22.90,25.25 L22.07,26.19 L21.28,27.17 L20.52,28.18 L19.80,29.21 L18.88,30.67 L18.03,32.17 L17.27,33.70 L16.58,35.27 L15.98,36.86 L15.45,38.49 L15.01,40.14 L14.65,41.81 L14.57,42.45 L14.56,43.08 L14.64,43.68 L14.78,44.27 L14.99,44.82 L15.26,45.35 L15.59,45.84 L15.98,46.29 L16.41,46.70 L16.89,47.07 L17.40,47.39 L17.96,47.66 L18.54,47.88 L19.16,48.04 L19.79,48.14 L20.45,48.17 L41.77,48.17 L42.43,48.20 L43.06,48.30 L43.67,48.46 L44.26,48.67 L44.82,48.94 L45.35,49.26 L45.84,49.63 L46.30,50.04 L46.71,50.50 L47.08,50.99 L47.40,51.52 L47.67,52.08 L47.88,52.66 L48.04,53.28 L48.14,53.91 L48.17,54.57 L48.17,75.89 Z" fill="#62be55" stroke="#1e1e1e" stroke-width="1" stroke-linejoin="round" opacity="0"/><path d="M48.17,75.89 L48.20,76.55 L48.30,77.18 L48.46,77.79 L48.67,78.38 L48.94,78.93 L49.27,79.45 L49.63,79.93 L50.05,80.36 L50.50,80.75 L50.99,81.08 L51.52,81.35 L52.07,81.56 L52.65,81.70 L53.26,81.78 L53.89,81.77 L54.53,81.69 L56.20,81.33 L57.85,80.89 L59.47,80.36 L61.07,79.75 L62.64,79.07 L64.17,78.30 L65.67,77.46 L67.12,76.54 L68.16,75.82 L69.17,75.06 L70.15,74.27 L71.09,73.44 L72.01,72.58 L72.89,71.69 L73.73,70.77 L74.54,69.81 L75.32,68.83 L76.06,67.82 L76.76,66.78 L77.43,65.72 L78.05,64.63 L78.64,63.52 L79.19,62.38 L79.69,61.23 L80.15,60.05 L80.57,58.86 L80.94,57.66 L81.27,56.45 L81.55,55.22 L81.79,53.99 L81.98,52.76 L82.12,51.51 L82.22,50.27 L82.28,49.01 L82.29,47.76 L82.25,46.51 L82.16,45.26 L82.03,44.00 L81.86,42.76 L81.63,41.51 L81.36,40.28 L81.05,39.06 L80.69,37.85 L80.29,36.66 L79.84,35.49 L79.36,34.33 L78.83,33.20 L78.26,32.09 L77.65,30.99 L77.00,29.92 L76.31,28.88 L75.58,27.85 L74.82,26.86 L74.01,25.89 L73.17,24.95 L72.30,24.04 L71.39,23.17 L70.45,22.33 L69.48,21.52 L68.48,20.76 L67.46,20.03 L66.42,19.34 L65.35,18.69 L64.25,18.08 L63.14,17.51 L62.00,16.98 L60.85,16.49 L59.68,16.05 L58.49,15.65 L57.28,15.29 L56.06,14.97 L54.83,14.70 L53.58,14.48 L52.33,14.30 L51.08,14.17 L49.83,14.09 L48.58,14.05 L47.32,14.06 L46.07,14.11 L44.82,14.21 L43.58,14.36 L42.34,14.55 L41.11,14.79 L39.89,15.07 L38.68,15.40 L37.48,15.77 L36.29,16.18 L35.11,16.65 L33.95,17.15 L32.82,17.70 L31.70,18.28 L30.62,18.91 L29.55,19.58 L28.52,20.28 L27.51,21.02 L26.52,21.79 L25.57,22.61 L24.65,23.45 L23.76,24.33 L22.90,25.25 L22.07,26.19 L21.28,27.17 L20.52,28.18 L19.80,29.21 L18.88,30.67 L18.03,32.17 L17.27,33.70 L16.58,35.27 L15.98,36.86 L15.45,38.49 L15.01,40.14 L14.65,41.81 L14.57,42.45 L14.56,43.08 L14.64,43.68 L14.78,44.27 L14.99,44.82 L15.26,45.35 L15.59,45.84 L15.98,46.29 L16.41,46.70 L16.89,47.07 L17.40,47.39 L17.96,47.66 L18.54,47.88 L19.16,48.04 L19.79,48.14 L20.45,48.17 L41.77,48.17 L42.43,48.20 L43.06,48.30 L43.67,48.46 L44.26,48.67 L44.82,48.94 L45.35,49.26 L45.84,49.63 L46.30,50.04 L46.71,50.50 L47.08,50.99 L47.40,51.52 L47.67,52.08 L47.88,52.66 L48.04,53.28 L48.14,53.91 L48.17,54.57 L48.17,75.89 Z" fill="#1a7f7c" stroke="#1e1e1e" stroke-width="1" stroke-linejoin="round" opacity="0.99"/><ellipse cx="48.17" cy="48.17" rx="18.06" ry="18.06" fill="#95e57a" stroke="#1e1e1e" stroke-width="1"/></svg>