<svg xmlns="http://www.w3.org/2000/svg" viewBox="1.97 -1.88 92.01 100.00"><path d="M30.14,47.92 L30.18,49.15 L30.30,50.35 L30.51,51.52 L30.78,52.65 L31.13,53.75 L31.55,54.81 L32.04,55.82 L32.58,56.80 L33.19,57.73 L33.85,58.61 L34.56,59.45 L35.33,60.24 L36.14,60.97 L36.99,61.65 L37.89,62.28 L38.82,62.85 L39.78,63.36 L40.78,63.81 L41.80,64.20 L42.84,64.52 L43.91,64.78 L44.99,64.97 L46.09,65.09 L47.20,65.14 L48.32,65.11 L49.44,65.01 L50.56,64.83 L51.68,64.58 L52.80,64.24 L53.91,63.82 L55.01,63.32 L56.09,62.72 L25.10,80.81 L24.22,81.28 L23.32,81.69 L22.41,82.03 L21.50,82.30 L20.59,82.50 L19.67,82.64 L18.76,82.72 L17.85,82.74 L16.94,82.70 L16.05,82.60 L15.17,82.44 L14.30,82.23 L13.45,81.96 L12.62,81.64 L11.81,81.27 L11.02,80.85 L10.27,80.39 L9.54,79.87 L8.85,79.32 L8.19,78.72 L7.57,78.07 L6.98,77.39 L6.45,76.67 L5.95,75.91 L5.51,75.11 L5.12,74.28 L4.78,73.42 L4.49,72.53 L4.27,71.60 L4.10,70.65 L4.00,69.67 L3.97,68.67 L3.97,28.03 L4.01,27.02 L4.11,26.03 L4.27,25.07 L4.50,24.14 L4.79,23.25 L5.13,22.38 L5.53,21.55 L5.98,20.75 L6.48,19.99 L7.02,19.26 L7.61,18.58 L8.23,17.94 L8.90,17.33 L9.60,16.78 L10.34,16.27 L11.10,15.80 L11.89,15.39 L12.71,15.02 L13.55,14.71 L14.40,14.44 L15.28,14.24 L16.17,14.09 L17.07,13.99 L17.98,13.96 L18.89,13.98 L19.81,14.07 L20.73,14.22 L21.65,14.44 L22.56,14.72 L23.47,15.07 L24.37,15.49 L25.25,15.98 L30.11,18.90 L30.14,47.92 Z" fill="#2369e8" stroke="#1e1e1e" stroke-width="1" stroke-linejoin="round"/><path d="M30.14,47.92 L30.18,49.15 L30.30,50.35 L30.51,51.52 L30.78,52.65 L31.13,53.75 L31.55,54.81 L32.04,55.82 L32.58,56.80 L33.19,57.73 L33.85,58.61 L34.56,59.45 L35.33,60.24 L36.14,60.97 L36.99,61.65 L37.89,62.28 L38.82,62.85 L39.78,63.36 L40.78,63.81 L41.80,64.20 L42.84,64.52 L43.91,64.78 L44.99,64.97 L46.09,65.09 L47.20,65.14 L48.32,65.11 L49.44,65.01 L50.56,64.83 L51.68,64.58 L52.80,64.24 L53.91,63.82 L55.01,63.32 L56.09,62.72 L25.10,80.81 L24.22,81.28 L23.32,81.69 L22.41,82.03 L21.50,82.30 L20.59,82.50 L19.67,82.64 L18.76,82.72 L17.85,82.74 L16.94,82.70 L16.05,82.60 L15.17,82.44 L14.30,82.23 L13.45,81.96 L12.62,81.64 L11.81,81.27 L11.02,80.85 L10.27,80.39 L9.54,79.87 L8.85,79.32 L8.19,78.72 L7.57,78.07 L6.98,77.39 L6.45,76.67 L5.95,75.91 L5.51,75.11 L5.12,74.28 L4.78,73.42 L4.49,72.53 L4.27,71.60 L4.10,70.65 L4.00,69.67 L3.97,68.67 L3.97,28.03 L4.01,27.02 L4.11,26.03 L4.27,25.07 L4.50,24.14 L4.79,23.25 L5.13,22.38 L5.53,21.55 L5.98,20.75 L6.48,19.99 L7.02,19.26 L7.61,18.58 L8.23,17.94 L8.90,17.33 L9.60,16.78 L10.34,16.27 L11.10,15.80 L11.89,15.39 L12.71,15.02 L13.55,14.71 L14.40,14.44 L15.28,14.24 L16.17,14.09 L17.07,13.99 L17.98,13.96 L18.89,13.98 L19.81,14.07 L20.73,14.22 L21.65,14.44 L22.56,14.72 L23.47,15.07 L24.37,15.49 L25.25,15.98 L30.11,18.90 L30.14,47.92 Z" fill="#1d49ba" stroke="#1e1e1e" stroke-width="1" stroke-linejoin="round" opacity="0.33"/><path d="M55.90,33.65 L54.82,33.07 L53.72,32.59 L52.61,32.18 L51.50,31.86 L50.38,31.62 L49.26,31.45 L48.14,31.36 L47.02,31.35 L45.92,31.41 L44.83,31.54 L43.75,31.74 L42.69,32.00 L41.65,32.33 L40.64,32.73 L39.65,33.18 L38.70,33.70 L37.77,34.27 L36.89,34.90 L36.04,35.59 L35.24,36.32 L34.48,37.11 L33.77,37.95 L33.12,38.83 L32.52,39.76 L31.98,40.73 L31.50,41.75 L31.09,42.80 L30.74,43.90 L30.47,45.02 L30.27,46.19 L30.15,47.38 L30.11,48.61 L30.11,14.69 L30.14,13.65 L30.24,12.64 L30.41,11.65 L30.65,10.70 L30.94,9.78 L31.29,8.88 L31.69,8.03 L32.15,7.20 L32.66,6.42 L33.21,5.67 L33.81,4.96 L34.45,4.30 L35.13,3.68 L35.85,3.10 L36.60,2.57 L37.38,2.08 L38.19,1.65 L39.03,1.27 L39.89,0.93 L40.76,0.66 L41.66,0.43 L42.57,0.27 L43.50,0.16 L44.43,0.12 L45.37,0.13 L46.32,0.21 L47.26,0.35 L48.21,0.56 L49.15,0.83 L50.09,1.18 L51.02,1.60 L51.93,2.08 L84.70,21.00 L85.59,21.55 L86.41,22.15 L87.18,22.79 L87.89,23.47 L88.54,24.19 L89.14,24.94 L89.68,25.72 L90.17,26.53 L90.59,27.36 L90.96,28.21 L91.27,29.09 L91.53,29.98 L91.73,30.88 L91.87,31.79 L91.95,32.70 L91.98,33.62 L91.95,34.54 L91.86,35.46 L91.72,36.37 L91.52,37.27 L91.26,38.16 L90.95,39.03 L90.58,39.88 L90.15,40.72 L89.66,41.52 L89.12,42.30 L88.52,43.05 L87.87,43.77 L87.16,44.44 L86.39,45.08 L85.56,45.68 L84.68,46.22 L81.29,48.17 L55.90,33.65 Z" fill="#0dabfd" stroke="#1e1e1e" stroke-width="1" stroke-linejoin="round"/><path d="M55.90,33.65 L54.82,33.07 L53.72,32.59 L52.61,32.18 L51.50,31.86 L50.38,31.62 L49.26,31.45 L48.14,31.36 L47.02,31.35 L45.92,31.41 L44.83,31.54 L43.75,31.74 L42.69,32.00 L41.65,32.33 L40.64,32.73 L39.65,33.18 L38.70,33.70 L37.77,34.27 L36.89,34.90 L36.04,35.59 L35.24,36.32 L34.48,37.11 L33.77,37.95 L33.12,38.83 L32.52,39.76 L31.98,40.73 L31.50,41.75 L31.09,42.80 L30.74,43.90 L30.47,45.02 L30.27,46.19 L30.15,47.38 L30.11,48.61 L30.11,14.69 L30.14,13.65 L30.24,12.64 L30.41,11.65 L30.65,10.70 L30.94,9.78 L31.29,8.88 L31.69,8.03 L32.15,7.20 L32.66,6.42 L33.21,5.67 L33.81,4.96 L34.45,4.30 L35.13,3.68 L35.85,3.10 L36.60,2.57 L37.38,2.08 L38.19,1.65 L39.03,1.27 L39.89,0.93 L40.76,0.66 L41.66,0.43 L42.57,0.27 L43.50,0.16 L44.43,0.12 L45.37,0.13 L46.32,0.21 L47.26,0.35 L48.21,0.56 L49.15,0.83 L50.09,1.18 L51.02,1.60 L51.93,2.08 L84.70,21.00 L85.59,21.55 L86.41,22.15 L87.18,22.79 L87.89,23.47 L88.54,24.19 L89.14,24.94 L89.68,25.72 L90.17,26.53 L90.59,27.36 L90.96,28.21 L91.27,29.09 L91.53,29.98 L91.73,30.88 L91.87,31.79 L91.95,32.70 L91.98,33.62 L91.95,34.54 L91.86,35.46 L91.72,36.37 L91.52,37.27 L91.26,38.16 L90.95,39.03 L90.58,39.88 L90.15,40.72 L89.66,41.52 L89.12,42.30 L88.52,43.05 L87.87,43.77 L87.16,44.44 L86.39,45.08 L85.56,45.68 L84.68,46.22 L81.29,48.17 L55.90,33.65 Z" fill="#007ed8" stroke="#1e1e1e" stroke-width="1" stroke-linejoin="round" opacity="0.5"/><path d="M55.90,33.65 L54.82,33.07 L53.72,32.59 L52.61,32.18 L51.50,31.86 L50.38,31.62 L49.26,31.45 L48.14,31.36 L47.02,31.35 L45.92,31.41 L44.83,31.54 L43.75,31.74 L42.69,32.00 L41.65,32.33 L40.64,32.73 L39.65,33.18 L38.70,33.70 L37.77,34.27 L36.89,34.90 L36.04,35.59 L35.24,36.32 L34.48,37.11 L33.77,37.95 L33.12,38.83 L32.52,39.76 L31.98,40.73 L31.50,41.75 L31.09,42.80 L30.74,43.90 L30.47,45.02 L30.27,46.19 L30.15,47.38 L30.11,48.61 L30.11,14.69 L30.14,13.65 L30.24,12.64 L30.41,11.65 L30.65,10.70 L30.94,9.78 L31.29,8.88 L31.69,8.03 L32.15,7.20 L32.66,6.42 L33.21,5.67 L33.81,4.96 L34.45,4.30 L35.13,3.68 L35.85,3.10 L36.60,2.57 L37.38,2.08 L38.19,1.65 L39.03,1.27 L39.89,0.93 L40.76,0.66 L41.66,0.43 L42.57,0.27 L43.50,0.16 L44.43,0.12 L45.37,0.13 L46.32,0.21 L47.26,0.35 L48.21,0.56 L49.15,0.83 L50.09,1.18 L51.02,1.60 L51.93,2.08 L84.70,21.00 L85.59,21.55 L86.41,22.15 L87.18,22.79 L87.89,23.47 L88.54,24.19 L89.14,24.94 L89.68,25.72 L90.17,26.53 L90.59,27.36 L90.96,28.21 L91.27,29.09 L91.53,29.98 L91.73,30.88 L91.87,31.79 L91.95,32.70 L91.98,33.62 L91.95,34.54 L91.86,35.46 L91.72,36.37 L91.52,37.27 L91.26,38.16 L90.95,39.03 L90.58,39.88 L90.15,40.72 L89.66,41.52 L89.12,42.30 L88.52,43.05 L87.87,43.77 L87.16,44.44 L86.39,45.08 L85.56,45.68 L84.68,46.22 L81.29,48.17 L55.90,33.65 Z" fill="#1666d6" stroke="#1e1e1e" stroke-width="1" stroke-linejoin="round" opacity="0.69"/><path d="M55.56,63.04 L56.59,62.39 L57.56,61.68 L58.46,60.93 L59.30,60.13 L60.07,59.28 L60.77,58.39 L61.40,57.47 L61.97,56.52 L62.47,55.53 L62.90,54.53 L63.27,53.50 L63.57,52.45 L63.80,51.39 L63.97,50.31 L64.07,49.23 L64.10,48.15 L64.06,47.07 L63.96,45.99 L63.79,44.91 L63.55,43.85 L63.25,42.81 L62.88,41.78 L62.44,40.77 L61.94,39.79 L61.37,38.84 L60.73,37.92 L60.03,37.04 L59.25,36.19 L58.42,35.39 L57.51,34.64 L56.54,33.94 L55.50,33.29 L84.62,50.11 L85.50,50.66 L86.32,51.25 L87.09,51.89 L87.80,52.57 L88.46,53.29 L89.05,54.04 L89.59,54.82 L90.08,55.63 L90.50,56.46 L90.87,57.31 L91.18,58.19 L91.44,59.07 L91.64,59.97 L91.78,60.88 L91.86,61.80 L91.89,62.72 L91.86,63.64 L91.78,64.55 L91.63,65.46 L91.44,66.36 L91.18,67.25 L90.87,68.12 L90.50,68.97 L90.07,69.81 L89.58,70.61 L89.04,71.39 L88.45,72.14 L87.79,72.86 L87.08,73.54 L86.31,74.17 L85.49,74.77 L84.61,75.32 L51.92,94.15 L51.01,94.64 L50.08,95.06 L49.14,95.40 L48.20,95.67 L47.25,95.88 L46.31,96.02 L45.36,96.10 L44.42,96.12 L43.49,96.07 L42.56,95.96 L41.65,95.79 L40.76,95.57 L39.88,95.29 L39.02,94.96 L38.19,94.58 L37.38,94.14 L36.60,93.66 L35.85,93.13 L35.13,92.55 L34.45,91.93 L33.81,91.26 L33.21,90.56 L32.66,89.81 L32.15,89.02 L31.69,88.20 L31.29,87.35 L30.94,86.45 L30.65,85.53 L30.41,84.58 L30.24,83.59 L30.14,82.58 L30.11,81.54 L30.11,77.87 L55.56,63.04 Z" fill="#0a77d9" stroke="#1e1e1e" stroke-width="1" stroke-linejoin="round"/><path d="M55.56,63.04 L56.59,62.39 L57.56,61.68 L58.46,60.93 L59.30,60.13 L60.07,59.28 L60.77,58.39 L61.40,57.47 L61.97,56.52 L62.47,55.53 L62.90,54.53 L63.27,53.50 L63.57,52.45 L63.80,51.39 L63.97,50.31 L64.07,49.23 L64.10,48.15 L64.06,47.07 L63.96,45.99 L63.79,44.91 L63.55,43.85 L63.25,42.81 L62.88,41.78 L62.44,40.77 L61.94,39.79 L61.37,38.84 L60.73,37.92 L60.03,37.04 L59.25,36.19 L58.42,35.39 L57.51,34.64 L56.54,33.94 L55.50,33.29 L84.62,50.11 L85.50,50.66 L86.32,51.25 L87.09,51.89 L87.80,52.57 L88.46,53.29 L89.05,54.04 L89.59,54.82 L90.08,55.63 L90.50,56.46 L90.87,57.31 L91.18,58.19 L91.44,59.07 L91.64,59.97 L91.78,60.88 L91.86,61.80 L91.89,62.72 L91.86,63.64 L91.78,64.55 L91.63,65.46 L91.44,66.36 L91.18,67.25 L90.87,68.12 L90.50,68.97 L90.07,69.81 L89.58,70.61 L89.04,71.39 L88.45,72.14 L87.79,72.86 L87.08,73.54 L86.31,74.17 L85.49,74.77 L84.61,75.32 L51.92,94.15 L51.01,94.64 L50.08,95.06 L49.14,95.40 L48.20,95.67 L47.25,95.88 L46.31,96.02 L45.36,96.10 L44.42,96.12 L43.49,96.07 L42.56,95.96 L41.65,95.79 L40.76,95.57 L39.88,95.29 L39.02,94.96 L38.19,94.58 L37.38,94.14 L36.60,93.66 L35.85,93.13 L35.13,92.55 L34.45,91.93 L33.81,91.26 L33.21,90.56 L32.66,89.81 L32.15,89.02 L31.69,88.20 L31.29,87.35 L30.94,86.45 L30.65,85.53 L30.41,84.58 L30.24,83.59 L30.14,82.58 L30.11,81.54 L30.11,77.87 L55.56,63.04 Z" fill="#16389a" stroke="#1e1e1e" stroke-width="1" stroke-linejoin="round" opacity="0.25"/><path d="M55.56,63.04 L56.59,62.39 L57.56,61.68 L58.46,60.93 L59.30,60.13 L60.07,59.28 L60.77,58.39 L61.40,57.47 L61.97,56.52 L62.47,55.53 L62.90,54.53 L63.27,53.50 L63.57,52.45 L63.80,51.39 L63.97,50.31 L64.07,49.23 L64.10,48.15 L64.06,47.07 L63.96,45.99 L63.79,44.91 L63.55,43.85 L63.25,42.81 L62.88,41.78 L62.44,40.77 L61.94,39.79 L61.37,38.84 L60.73,37.92 L60.03,37.04 L59.25,36.19 L58.42,35.39 L57.51,34.64 L56.54,33.94 L55.50,33.29 L84.62,50.11 L85.50,50.66 L86.32,51.25 L87.09,51.89 L87.80,52.57 L88.46,53.29 L89.05,54.04 L89.59,54.82 L90.08,55.63 L90.50,56.46 L90.87,57.31 L91.18,58.19 L91.44,59.07 L91.64,59.97 L91.78,60.88 L91.86,61.80 L91.89,62.72 L91.86,63.64 L91.78,64.55 L91.63,65.46 L91.44,66.36 L91.18,67.25 L90.87,68.12 L90.50,68.97 L90.07,69.81 L89.58,70.61 L89.04,71.39 L88.45,72.14 L87.79,72.86 L87.08,73.54 L86.31,74.17 L85.49,74.77 L84.61,75.32 L51.92,94.15 L51.01,94.64 L50.08,95.06 L49.14,95.40 L48.20,95.67 L47.25,95.88 L46.31,96.02 L45.36,96.10 L44.42,96.12 L43.49,96.07 L42.56,95.96 L41.65,95.79 L40.76,95.57 L39.88,95.29 L39.02,94.96 L38.19,94.58 L37.38,94.14 L36.60,93.66 L35.85,93.13 L35.13,92.55 L34.45,91.93 L33.81,91.26 L33.21,90.56 L32.66,89.81 L32.15,89.02 L31.69,88.20 L31.29,87.35 L30.94,86.45 L30.65,85.53 L30.41,84.58 L30.24,83.59 L30.14,82.58 L30.11,81.54 L30.11,77.87 L55.56,63.04 Z" fill="#1b44b1" stroke="#1e1e1e" stroke-width="1" stroke-linejoin="round" opacity="0.6"/><path d="M30.11,48.17 L30.13,47.29 L30.19,46.43 L30.30,45.57 L30.45,44.73 L30.64,43.91 L30.87,43.10 L31.14,42.30 L31.45,41.53 L31.79,40.77 L32.17,40.04 L32.58,39.32 L33.02,38.63 L33.50,37.96 L34.00,37.32 L34.54,36.70 L35.10,36.11 L35.70,35.54 L36.31,35.01 L36.96,34.50 L37.63,34.02 L38.32,33.58 L39.03,33.17 L39.77,32.79 L40.53,32.45 L41.30,32.14 L42.09,31.88 L42.90,31.65 L43.73,31.46 L44.57,31.31 L45.42,31.20 L46.29,31.13 L47.17,31.11 L48.04,31.13 L48.91,31.20 L49.76,31.31 L50.60,31.46 L51.43,31.65 L52.24,31.88 L53.03,32.15 L53.81,32.45 L54.56,32.79 L55.30,33.17 L56.01,33.58 L56.70,34.02 L57.37,34.50 L58.02,35.01 L58.64,35.54 L59.23,36.11 L59.79,36.70 L60.33,37.32 L60.84,37.96 L61.31,38.63 L61.76,39.32 L62.17,40.04 L62.54,40.77 L62.89,41.53 L63.19,42.31 L63.46,43.10 L63.69,43.91 L63.88,44.73 L64.03,45.57 L64.14,46.43 L64.20,47.29 L64.23,48.17 L64.19,49.30 L64.08,50.42 L63.89,51.52 L63.64,52.60 L63.32,53.66 L62.93,54.69 L62.48,55.70 L61.96,56.67 L61.38,57.60 L60.75,58.50 L60.05,59.36 L59.30,60.17 L58.49,60.93 L57.63,61.65 L56.72,62.30 L55.77,62.91 L24.48,81.17 L25.12,80.77 L25.72,80.34 L26.29,79.86 L26.83,79.36 L27.33,78.82 L27.79,78.25 L28.21,77.66 L28.60,77.04 L28.94,76.39 L29.24,75.73 L29.50,75.04 L29.72,74.34 L29.89,73.63 L30.01,72.89 L30.08,72.15 L30.11,71.40 L30.11,48.17 Z" fill="#60def8" stroke="#1e1e1e" stroke-width="1" stroke-linejoin="round"/></svg>