<svg xmlns="http://www.w3.org/2000/svg" viewBox="-1.88 14.54 515.77 485.94"><path d="M218.29,482.87 L222.34,486.53 L226.65,489.70 L231.20,492.38 L235.93,494.58 L240.81,496.29 L245.81,497.51 L250.89,498.24 L256.00,498.49 L261.11,498.24 L266.19,497.51 L271.18,496.29 L276.07,494.58 L280.80,492.38 L285.35,489.70 L289.66,486.53 L293.71,482.87 L461.36,315.22 L338.14,192.00 L351.08,192.00 L350.92,184.40 L350.42,176.85 L349.61,169.34 L348.48,161.89 L347.03,154.51 L345.27,147.21 L343.20,140.00 L340.82,132.88 L338.15,125.87 L335.17,118.99 L331.90,112.22 L328.34,105.60 L324.49,99.12 L320.36,92.80 L315.94,86.65 L311.25,80.68 L306.30,74.91 L301.13,69.38 L295.74,64.09 L290.14,59.05 L284.34,54.27 L278.34,49.74 L272.16,45.48 L265.81,41.48 L259.30,37.77 L252.63,34.33 L245.81,31.17 L238.85,28.31 L231.77,25.75 L224.57,23.49 L217.25,21.53 L209.83,19.89 L202.35,18.57 L194.84,17.57 L187.32,16.91 L179.79,16.57 L172.27,16.55 L164.77,16.85 L157.29,17.47 L149.85,18.42 L142.45,19.67 L135.12,21.25 L127.85,23.14 L120.66,25.34 L113.55,27.85 L106.55,30.67 L99.65,33.80 L92.88,37.24 L86.25,40.96 L79.82,44.96 L73.58,49.21 L67.55,53.73 L61.72,58.48 L56.11,63.48 L50.73,68.70 L45.57,74.15 L40.66,79.82 L35.98,85.69 L31.56,91.76 L27.40,98.02 L23.50,104.47 L19.88,111.10 L16.53,117.89 L13.47,124.84 L10.72,131.93 L8.28,139.09 L6.16,146.34 L4.35,153.66 L2.87,161.03 L1.70,168.45 L0.85,175.91 L0.33,183.39 L0.12,190.89 L0.23,198.39 L0.66,205.89 L1.42,213.37 L2.50,220.83 L3.90,228.25 L5.62,235.62 L7.67,242.94 L9.30,248.04 L11.09,253.08 L13.02,258.05 L15.10,262.95 L17.32,267.78 L19.69,272.53 L22.19,277.21 L24.83,281.80 L30.52,290.72 L36.73,299.28 L43.45,307.45 L50.65,315.21 L50.64,315.22 L218.29,482.87 Z" fill="#1d4abb" stroke="#1e1e1e" stroke-width="1" stroke-linejoin="round"/><path d="M218.29,482.87 L222.34,486.53 L226.65,489.70 L231.20,492.38 L235.93,494.58 L240.81,496.29 L245.81,497.51 L250.89,498.24 L256.00,498.49 L261.11,498.24 L266.19,497.51 L271.18,496.29 L276.07,494.58 L280.80,492.38 L285.35,489.70 L289.66,486.53 L293.71,482.87 L461.36,315.22 L338.14,192.00 L351.08,192.00 L350.92,184.40 L350.42,176.85 L349.61,169.34 L348.48,161.89 L347.03,154.51 L345.27,147.21 L343.20,140.00 L340.82,132.88 L338.15,125.87 L335.17,118.99 L331.90,112.22 L328.34,105.60 L324.49,99.12 L320.36,92.80 L315.94,86.65 L311.25,80.68 L306.30,74.91 L301.13,69.38 L295.74,64.09 L290.14,59.05 L284.34,54.27 L278.34,49.74 L272.16,45.48 L265.81,41.48 L259.30,37.77 L252.63,34.33 L245.81,31.17 L238.85,28.31 L231.77,25.75 L224.57,23.49 L217.25,21.53 L209.83,19.89 L202.35,18.57 L194.84,17.57 L187.32,16.91 L179.79,16.57 L172.27,16.55 L164.77,16.85 L157.29,17.47 L149.85,18.42 L142.45,19.67 L135.12,21.25 L127.85,23.14 L120.66,25.34 L113.55,27.85 L106.55,30.67 L99.65,33.80 L92.88,37.24 L86.25,40.96 L79.82,44.96 L73.58,49.21 L67.55,53.73 L61.72,58.48 L56.11,63.48 L50.73,68.70 L45.57,74.15 L40.66,79.82 L35.98,85.69 L31.56,91.76 L27.40,98.02 L23.50,104.47 L19.88,111.10 L16.53,117.89 L13.47,124.84 L10.72,131.93 L8.28,139.09 L6.16,146.34 L4.35,153.66 L2.87,161.03 L1.70,168.45 L0.85,175.91 L0.33,183.39 L0.12,190.89 L0.23,198.39 L0.66,205.89 L1.42,213.37 L2.50,220.83 L3.90,228.25 L5.62,235.62 L7.67,242.94 L9.30,248.04 L11.09,253.08 L13.02,258.05 L15.10,262.95 L17.32,267.78 L19.69,272.53 L22.19,277.21 L24.83,281.80 L30.52,290.72 L36.73,299.28 L43.45,307.45 L50.65,315.21 L50.64,315.22 L218.29,482.87 Z" fill="#102784" stroke="#1e1e1e" stroke-width="1" stroke-linejoin="round"/><path d="M218.29,482.87 L222.34,486.53 L226.65,489.70 L231.20,492.38 L235.93,494.58 L240.81,496.29 L245.81,497.51 L250.89,498.24 L256.00,498.49 L261.11,498.24 L266.19,497.51 L271.18,496.29 L276.07,494.58 L280.80,492.38 L285.35,489.70 L289.66,486.53 L293.71,482.87 L461.36,315.22 L338.14,192.00 L351.08,192.00 L350.92,184.40 L350.42,176.85 L349.61,169.34 L348.48,161.89 L347.03,154.51 L345.27,147.21 L343.20,140.00 L340.82,132.88 L338.15,125.87 L335.17,118.99 L331.90,112.22 L328.34,105.60 L324.49,99.12 L320.36,92.80 L315.94,86.65 L311.25,80.68 L306.30,74.91 L301.13,69.38 L295.74,64.09 L290.14,59.05 L284.34,54.27 L278.34,49.74 L272.16,45.48 L265.81,41.48 L259.30,37.77 L252.63,34.33 L245.81,31.17 L238.85,28.31 L231.77,25.75 L224.57,23.49 L217.25,21.53 L209.83,19.89 L202.35,18.57 L194.84,17.57 L187.32,16.91 L179.79,16.57 L172.27,16.55 L164.77,16.85 L157.29,17.47 L149.85,18.42 L142.45,19.67 L135.12,21.25 L127.85,23.14 L120.66,25.34 L113.55,27.85 L106.55,30.67 L99.65,33.80 L92.88,37.24 L86.25,40.96 L79.82,44.96 L73.58,49.21 L67.55,53.73 L61.72,58.48 L56.11,63.48 L50.73,68.70 L45.57,74.15 L40.66,79.82 L35.98,85.69 L31.56,91.76 L27.40,98.02 L23.50,104.47 L19.88,111.10 L16.53,117.89 L13.47,124.84 L10.72,131.93 L8.28,139.09 L6.16,146.34 L4.35,153.66 L2.87,161.03 L1.70,168.45 L0.85,175.91 L0.33,183.39 L0.12,190.89 L0.23,198.39 L0.66,205.89 L1.42,213.37 L2.50,220.83 L3.90,228.25 L5.62,235.62 L7.67,242.94 L9.30,248.04 L11.09,253.08 L13.02,258.05 L15.10,262.95 L17.32,267.78 L19.69,272.53 L22.19,277.21 L24.83,281.80 L30.52,290.72 L36.73,299.28 L43.45,307.45 L50.65,315.21 L50.64,315.22 L218.29,482.87 Z" fill="#163697" stroke="#1e1e1e" stroke-width="1" stroke-linejoin="round"/><path d="M504.33,141.07 L501.97,133.84 L499.30,126.76 L496.35,119.81 L493.10,113.01 L489.57,106.37 L485.77,99.89 L481.69,93.59 L477.35,87.47 L472.76,81.55 L467.91,75.82 L462.82,70.30 L457.49,64.99 L451.93,59.91 L446.14,55.07 L440.13,50.46 L433.90,46.10 L427.50,42.02 L420.94,38.23 L414.25,34.74 L407.42,31.54 L400.48,28.65 L393.43,26.05 L386.29,23.77 L379.05,21.79 L371.74,20.12 L364.36,18.77 L356.92,17.73 L349.43,17.02 L341.91,16.62 L334.36,16.54 L326.79,16.80 L319.22,17.38 L310.93,18.39 L302.72,19.80 L294.62,21.59 L286.62,23.75 L278.76,26.29 L271.02,29.18 L263.44,32.44 L256.02,36.05 L260.92,38.67 L265.73,41.44 L270.43,44.36 L275.04,47.43 L279.55,50.63 L283.96,53.98 L288.25,57.46 L292.44,61.08 L296.51,64.82 L300.46,68.70 L304.29,72.70 L307.99,76.83 L311.57,81.07 L315.02,85.44 L318.33,89.91 L321.51,94.51 L325.01,99.98 L328.31,105.56 L331.39,111.25 L334.26,117.03 L336.91,122.92 L339.34,128.88 L341.54,134.93 L343.52,141.06 L345.28,147.25 L346.81,153.51 L348.10,159.82 L349.17,166.18 L350.00,172.59 L350.60,179.03 L350.96,185.50 L351.08,192.00 L336.41,192.00 L336.42,192.00 L175.59,192.00 L175.59,192.00 L160.95,192.00 L161.11,199.59 L161.60,207.15 L162.42,214.66 L163.55,222.11 L165.00,229.49 L166.76,236.79 L168.83,244.00 L171.21,251.12 L173.88,258.12 L176.86,265.01 L180.13,271.77 L183.69,278.40 L187.54,284.87 L191.67,291.19 L196.09,297.34 L200.78,303.32 L205.72,309.09 L210.90,314.62 L216.29,319.90 L221.89,324.94 L227.69,329.73 L233.68,334.25 L239.86,338.51 L246.21,342.51 L252.72,346.22 L259.39,349.66 L266.21,352.81 L273.16,355.67 L280.25,358.24 L287.45,360.50 L294.77,362.46 L302.19,364.10 L309.67,365.42 L317.17,366.41 L324.69,367.08 L332.22,367.42 L339.74,367.44 L347.25,367.14 L354.72,366.51 L362.16,365.57 L369.56,364.31 L376.90,362.74 L384.16,360.85 L391.36,358.65 L398.46,356.13 L405.46,353.31 L412.36,350.18 L419.13,346.75 L425.75,343.02 L432.19,339.03 L438.42,334.77 L444.46,330.26 L450.28,325.51 L455.89,320.51 L461.28,315.29 L466.43,309.84 L471.35,304.17 L476.02,298.30 L480.44,292.23 L484.61,285.97 L488.50,279.52 L492.13,272.90 L495.47,266.11 L498.53,259.15 L501.29,252.07 L503.73,244.90 L505.85,237.66 L507.65,230.34 L509.13,222.97 L510.30,215.55 L511.15,208.09 L511.68,200.61 L511.88,193.11 L511.77,185.61 L511.34,178.11 L510.58,170.63 L509.50,163.17 L508.10,155.75 L506.38,148.38 L504.33,141.07 Z" fill="#12a6fc" stroke="#1e1e1e" stroke-width="1" stroke-linejoin="round"/><path d="M504.33,141.07 L501.97,133.84 L499.30,126.76 L496.35,119.81 L493.10,113.01 L489.57,106.37 L485.77,99.89 L481.69,93.59 L477.35,87.47 L472.76,81.55 L467.91,75.82 L462.82,70.30 L457.49,64.99 L451.93,59.91 L446.14,55.07 L440.13,50.46 L433.90,46.10 L427.50,42.02 L420.94,38.23 L414.25,34.74 L407.42,31.54 L400.48,28.65 L393.43,26.05 L386.29,23.77 L379.05,21.79 L371.74,20.12 L364.36,18.77 L356.92,17.73 L349.43,17.02 L341.91,16.62 L334.36,16.54 L326.79,16.80 L319.22,17.38 L310.93,18.39 L302.72,19.80 L294.62,21.59 L286.62,23.75 L278.76,26.29 L271.02,29.18 L263.44,32.44 L256.02,36.05 L260.92,38.67 L265.73,41.44 L270.43,44.36 L275.04,47.43 L279.55,50.63 L283.96,53.98 L288.25,57.46 L292.44,61.08 L296.51,64.82 L300.46,68.70 L304.29,72.70 L307.99,76.83 L311.57,81.07 L315.02,85.44 L318.33,89.91 L321.51,94.51 L325.01,99.98 L328.31,105.56 L331.39,111.25 L334.26,117.03 L336.91,122.92 L339.34,128.88 L341.54,134.93 L343.52,141.06 L345.28,147.25 L346.81,153.51 L348.10,159.82 L349.17,166.18 L350.00,172.59 L350.60,179.03 L350.96,185.50 L351.08,192.00 L336.41,192.00 L336.42,192.00 L175.59,192.00 L175.59,192.00 L160.95,192.00 L161.11,199.59 L161.60,207.15 L162.42,214.66 L163.55,222.11 L165.00,229.49 L166.76,236.79 L168.83,244.00 L171.21,251.12 L173.88,258.12 L176.86,265.01 L180.13,271.77 L183.69,278.40 L187.54,284.87 L191.67,291.19 L196.09,297.34 L200.78,303.32 L205.72,309.09 L210.90,314.62 L216.29,319.90 L221.89,324.94 L227.69,329.73 L233.68,334.25 L239.86,338.51 L246.21,342.51 L252.72,346.22 L259.39,349.66 L266.21,352.81 L273.16,355.67 L280.25,358.24 L287.45,360.50 L294.77,362.46 L302.19,364.10 L309.67,365.42 L317.17,366.41 L324.69,367.08 L332.22,367.42 L339.74,367.44 L347.25,367.14 L354.72,366.51 L362.16,365.57 L369.56,364.31 L376.90,362.74 L384.16,360.85 L391.36,358.65 L398.46,356.13 L405.46,353.31 L412.36,350.18 L419.13,346.75 L425.75,343.02 L432.19,339.03 L438.42,334.77 L444.46,330.26 L450.28,325.51 L455.89,320.51 L461.28,315.29 L466.43,309.84 L471.35,304.17 L476.02,298.30 L480.44,292.23 L484.61,285.97 L488.50,279.52 L492.13,272.90 L495.47,266.11 L498.53,259.15 L501.29,252.07 L503.73,244.90 L505.85,237.66 L507.65,230.34 L509.13,222.97 L510.30,215.55 L511.15,208.09 L511.68,200.61 L511.88,193.11 L511.77,185.61 L511.34,178.11 L510.58,170.63 L509.50,163.17 L508.10,155.75 L506.38,148.38 L504.33,141.07 Z" fill="#163697" stroke="#1e1e1e" stroke-width="1" stroke-linejoin="round" opacity="0.6"/><path d="M188.78,124.79 L192.32,121.42 L196.00,118.26 L199.79,115.33 L203.69,112.61 L207.69,110.11 L211.78,107.82 L215.96,105.76 L220.22,103.91 L224.54,102.28 L228.92,100.86 L233.36,99.67 L237.83,98.69 L242.34,97.93 L246.88,97.38 L251.43,97.06 L255.99,96.95 L260.55,97.06 L265.10,97.38 L269.63,97.93 L274.14,98.69 L278.61,99.67 L283.05,100.86 L287.43,102.28 L291.75,103.91 L296.01,105.76 L300.19,107.82 L304.28,110.11 L308.29,112.61 L312.19,115.33 L315.98,118.26 L319.65,121.42 L323.20,124.79 L326.57,128.33 L329.72,132.01 L332.66,135.80 L335.38,139.70 L337.88,143.70 L340.16,147.79 L342.23,151.97 L344.08,156.23 L345.71,160.55 L347.12,164.94 L348.32,169.37 L349.29,173.84 L350.06,178.35 L350.60,182.89 L350.93,187.44 L351.03,192.00 L350.93,196.56 L350.60,201.11 L350.06,205.64 L349.29,210.15 L348.32,214.63 L347.12,219.06 L345.71,223.44 L344.08,227.76 L342.23,232.02 L340.16,236.20 L337.88,240.29 L335.38,244.30 L332.66,248.20 L329.72,251.99 L326.57,255.66 L323.20,259.21 L319.65,262.58 L315.98,265.73 L312.19,268.67 L308.29,271.39 L304.28,273.89 L300.19,276.17 L296.01,278.24 L291.75,280.09 L287.43,281.72 L283.05,283.13 L278.61,284.33 L274.14,285.31 L269.63,286.07 L265.10,286.61 L260.55,286.94 L255.99,287.05 L251.43,286.94 L246.88,286.61 L242.34,286.07 L237.83,285.31 L233.36,284.33 L228.92,283.13 L224.54,281.72 L220.22,280.09 L215.96,278.24 L211.78,276.17 L207.69,273.89 L203.69,271.39 L199.79,268.67 L196.00,265.73 L192.32,262.58 L188.78,259.21 L185.41,255.66 L182.25,251.99 L179.32,248.20 L176.60,244.30 L174.10,240.29 L171.81,236.20 L169.75,232.02 L167.90,227.76 L166.27,223.44 L164.85,219.06 L163.66,214.63 L162.68,210.15 L161.92,205.64 L161.37,201.11 L161.05,196.56 L160.94,192.00 L161.05,187.44 L161.37,182.89 L161.92,178.35 L162.68,173.84 L163.66,169.37 L164.85,164.94 L166.27,160.55 L167.90,156.23 L169.75,151.97 L171.81,147.79 L174.10,143.70 L176.60,139.70 L179.32,135.80 L182.25,132.01 L185.41,128.33 L188.78,124.79 Z" fill="#60def8" stroke="#1e1e1e" stroke-width="1" stroke-linejoin="round"/></svg>