<svg xmlns="http://www.w3.org/2000/svg" viewBox="-1.96 4.07 100.00 88.94"><path d="M95.95,17.04 L96.03,16.57 L96.04,16.10 L96.01,15.65 L95.93,15.21 L95.80,14.78 L95.62,14.38 L95.40,14.00 L95.15,13.64 L94.85,13.31 L94.53,13.02 L94.17,12.76 L93.78,12.55 L93.37,12.37 L92.93,12.24 L92.47,12.16 L92.00,12.13 L1.96,12.13 L8.41,46.52 L86.30,46.52 L86.65,46.50 L87.00,46.46 L87.66,46.28 L88.28,46.00 L88.84,45.62 L89.32,45.16 L89.73,44.61 L90.04,44.00 L90.16,43.67 L90.25,43.33 L95.95,17.04 Z" fill="#ffb052" stroke="#1e1e1e" stroke-width="1" stroke-linejoin="round"/><path d="M81.38,78.32 L81.57,77.28 L81.69,76.24 L81.76,75.21 L81.77,74.18 L81.72,73.17 L81.61,72.17 L81.45,71.19 L81.23,70.22 L80.96,69.27 L80.64,68.34 L80.28,67.43 L79.86,66.55 L79.40,65.69 L78.89,64.86 L78.34,64.06 L77.75,63.28 L77.12,62.55 L76.45,61.84 L75.74,61.18 L74.99,60.55 L74.21,59.96 L73.40,59.41 L72.56,58.91 L71.68,58.45 L70.78,58.04 L69.85,57.67 L68.89,57.36 L67.91,57.10 L66.91,56.90 L65.89,56.75 L64.84,56.66 L63.78,56.63 L14.96,56.63 L14.49,56.66 L14.04,56.73 L13.61,56.86 L13.21,57.02 L12.82,57.23 L12.47,57.48 L12.14,57.77 L11.85,58.08 L11.59,58.43 L11.37,58.80 L11.19,59.19 L11.05,59.60 L10.96,60.03 L10.91,60.48 L10.92,60.93 L10.98,61.40 L13.94,77.72 L14.08,78.43 L14.26,79.14 L14.47,79.82 L14.70,80.50 L14.96,81.16 L15.25,81.80 L15.57,82.43 L15.91,83.04 L16.67,84.21 L17.52,85.31 L18.46,86.32 L19.49,87.25 L20.58,88.09 L21.75,88.83 L22.98,89.48 L24.26,90.02 L24.93,90.24 L25.60,90.44 L26.29,90.61 L26.98,90.76 L27.69,90.87 L28.40,90.95 L29.13,90.99 L29.86,91.01 L65.74,91.01 L66.44,91.00 L67.14,90.95 L68.51,90.77 L69.85,90.47 L71.15,90.07 L72.40,89.56 L73.60,88.95 L74.73,88.24 L75.81,87.44 L76.81,86.56 L77.74,85.59 L78.58,84.54 L79.34,83.43 L80.00,82.24 L80.57,80.99 L81.03,79.69 L81.22,79.01 L81.38,78.32 Z" fill="#cb6507" stroke="#1e1e1e" stroke-width="1" stroke-linejoin="round"/><path d="M4.09,6.07 L3.62,6.09 L3.17,6.17 L2.73,6.30 L2.32,6.47 L1.94,6.69 L1.58,6.94 L1.25,7.23 L0.96,7.55 L0.70,7.90 L0.48,8.28 L0.31,8.68 L0.17,9.09 L0.08,9.53 L0.04,9.98 L0.06,10.44 L0.12,10.91 L13.57,78.01 L13.73,78.71 L13.92,79.40 L14.13,80.08 L14.37,80.74 L14.64,81.39 L14.94,82.02 L15.61,83.23 L16.37,84.38 L17.23,85.45 L18.17,86.44 L19.18,87.35 L20.27,88.17 L21.43,88.89 L22.65,89.52 L23.92,90.04 L25.24,90.46 L25.92,90.63 L26.61,90.76 L27.30,90.87 L28.01,90.95 L28.72,91.00 L29.44,91.01 L74.83,91.01 L64.96,91.01 L64.24,90.99 L63.52,90.95 L62.81,90.87 L62.11,90.76 L61.42,90.62 L60.73,90.45 L59.41,90.03 L58.13,89.50 L56.90,88.86 L55.74,88.13 L54.65,87.30 L53.63,86.38 L52.69,85.37 L51.83,84.29 L51.07,83.13 L50.41,81.91 L50.12,81.27 L49.85,80.61 L49.61,79.95 L49.40,79.26 L49.22,78.57 L49.07,77.86 L36.02,9.36 L35.94,9.00 L35.82,8.67 L35.68,8.34 L35.52,8.04 L35.11,7.48 L34.62,7.00 L34.06,6.60 L33.44,6.31 L33.10,6.21 L32.76,6.13 L32.41,6.08 L32.05,6.07 L4.09,6.07 Z" fill="#fbbe16" stroke="#1e1e1e" stroke-width="1" stroke-linejoin="round"/></svg>