<svg xmlns="http://www.w3.org/2000/svg" viewBox="19.33 19.33 473.33 473.33"><path d="M21.33,74.67 L21.61,69.21 L22.42,63.92 L23.73,58.81 L25.52,53.91 L27.77,49.24 L30.44,44.85 L33.51,40.74 L36.95,36.95 L40.74,33.51 L44.85,30.44 L49.24,27.77 L53.91,25.52 L58.81,23.73 L63.92,22.42 L69.21,21.61 L74.67,21.33 L394.67,21.33 L399.61,21.46 L404.48,21.83 L409.29,22.44 L414.01,23.28 L418.66,24.36 L423.21,25.65 L427.67,27.16 L432.03,28.88 L436.29,30.80 L440.43,32.92 L444.45,35.23 L448.34,37.73 L452.10,40.41 L455.73,43.26 L459.21,46.27 L462.55,49.45 L465.73,52.79 L468.74,56.27 L471.59,59.90 L474.27,63.66 L476.77,67.55 L479.08,71.57 L481.20,75.71 L483.12,79.97 L484.84,84.33 L486.35,88.79 L487.64,93.34 L488.72,97.99 L489.56,102.71 L490.17,107.52 L490.54,112.39 L490.67,117.33 L490.67,437.33 L490.39,442.79 L489.58,448.08 L488.27,453.19 L486.48,458.09 L484.23,462.76 L481.56,467.15 L478.49,471.26 L475.05,475.05 L471.26,478.49 L467.15,481.56 L462.76,484.23 L458.09,486.48 L453.19,488.27 L448.08,489.58 L442.79,490.39 L437.33,490.67 L320.00,490.67 L320.00,128.00 L21.33,128.00 L21.33,74.67 Z" fill="#5f36bf" stroke="#1e1e1e" stroke-width="1" stroke-linejoin="round"/><path d="M21.33,74.67 L21.61,69.21 L22.42,63.92 L23.73,58.81 L25.52,53.91 L27.77,49.24 L30.44,44.85 L33.51,40.74 L36.95,36.95 L40.74,33.51 L44.85,30.44 L49.24,27.77 L53.91,25.52 L58.81,23.73 L63.92,22.42 L69.21,21.61 L74.67,21.33 L394.67,21.33 L399.61,21.46 L404.48,21.83 L409.29,22.44 L414.01,23.28 L418.66,24.36 L423.21,25.65 L427.67,27.16 L432.03,28.88 L436.29,30.80 L440.43,32.92 L444.45,35.23 L448.34,37.73 L452.10,40.41 L455.73,43.26 L459.21,46.27 L462.55,49.45 L465.73,52.79 L468.74,56.27 L471.59,59.90 L474.27,63.66 L476.77,67.55 L479.08,71.57 L481.20,75.71 L483.12,79.97 L484.84,84.33 L486.35,88.79 L487.64,93.34 L488.72,97.99 L489.56,102.71 L490.17,107.52 L490.54,112.39 L490.67,117.33 L490.67,437.33 L490.39,442.79 L489.58,448.08 L488.27,453.19 L486.48,458.09 L484.23,462.76 L481.56,467.15 L478.49,471.26 L475.05,475.05 L471.26,478.49 L467.15,481.56 L462.76,484.23 L458.09,486.48 L453.19,488.27 L448.08,489.58 L442.79,490.39 L437.33,490.67 L320.00,490.67 L320.00,128.00 L21.33,128.00 L21.33,74.67 Z" fill="#4b20a0" stroke="#1e1e1e" stroke-width="1" stroke-linejoin="round"/><path d="M21.33,74.67 L21.61,69.21 L22.42,63.92 L23.73,58.81 L25.52,53.91 L27.77,49.24 L30.44,44.85 L33.51,40.74 L36.95,36.95 L40.74,33.51 L44.85,30.44 L49.24,27.77 L53.91,25.52 L58.81,23.73 L63.92,22.42 L69.21,21.61 L74.67,21.33 L394.67,21.33 L399.61,21.46 L404.48,21.83 L409.29,22.44 L414.01,23.28 L418.66,24.36 L423.21,25.65 L427.67,27.16 L432.03,28.88 L436.29,30.80 L440.43,32.92 L444.45,35.23 L448.34,37.73 L452.10,40.41 L455.73,43.26 L459.21,46.27 L462.55,49.45 L465.73,52.79 L468.74,56.27 L471.59,59.90 L474.27,63.66 L476.77,67.55 L479.08,71.57 L481.20,75.71 L483.12,79.97 L484.84,84.33 L486.35,88.79 L487.64,93.34 L488.72,97.99 L489.56,102.71 L490.17,107.52 L490.54,112.39 L490.67,117.33 L490.67,437.33 L490.39,442.79 L489.58,448.08 L488.27,453.19 L486.48,458.09 L484.23,462.76 L481.56,467.15 L478.49,471.26 L475.05,475.05 L471.26,478.49 L467.15,481.56 L462.76,484.23 L458.09,486.48 L453.19,488.27 L448.08,489.58 L442.79,490.39 L437.33,490.67 L320.00,490.67 L320.00,128.00 L21.33,128.00 L21.33,74.67 Z" fill="#261d82" stroke="#1e1e1e" stroke-width="1" stroke-linejoin="round"/><path d="M21.33,74.67 L21.61,69.21 L22.42,63.92 L23.73,58.81 L25.52,53.91 L27.77,49.24 L30.44,44.85 L33.51,40.74 L36.95,36.95 L40.74,33.51 L44.85,30.44 L49.24,27.77 L53.91,25.52 L58.81,23.73 L63.92,22.42 L69.21,21.61 L74.67,21.33 L394.67,21.33 L399.61,21.46 L404.48,21.83 L409.29,22.44 L414.01,23.28 L418.66,24.36 L423.21,25.65 L427.67,27.16 L432.03,28.88 L436.29,30.80 L440.43,32.92 L444.45,35.23 L448.34,37.73 L452.10,40.41 L455.73,43.26 L459.21,46.27 L462.55,49.45 L465.73,52.79 L468.74,56.27 L471.59,59.90 L474.27,63.66 L476.77,67.55 L479.08,71.57 L481.20,75.71 L483.12,79.97 L484.84,84.33 L486.35,88.79 L487.64,93.34 L488.72,97.99 L489.56,102.71 L490.17,107.52 L490.54,112.39 L490.67,117.33 L490.67,437.33 L490.39,442.79 L489.58,448.08 L488.27,453.19 L486.48,458.09 L484.23,462.76 L481.56,467.15 L478.49,471.26 L475.05,475.05 L471.26,478.49 L467.15,481.56 L462.76,484.23 L458.09,486.48 L453.19,488.27 L448.08,489.58 L442.79,490.39 L437.33,490.67 L320.00,490.67 L320.00,128.00 L21.33,128.00 L21.33,74.67 Z" fill="#4a2aa8" stroke="#1e1e1e" stroke-width="1" stroke-linejoin="round"/><path d="M21.33,74.67 L21.61,80.12 L22.42,85.42 L23.73,90.53 L25.52,95.43 L27.77,100.09 L30.44,104.49 L33.51,108.59 L36.95,112.38 L40.74,115.82 L44.85,118.89 L49.24,121.56 L53.91,123.81 L58.81,125.60 L63.92,126.92 L69.21,127.72 L74.67,128.00 L330.67,128.00 L336.12,128.28 L341.42,129.08 L346.53,130.40 L351.43,132.19 L356.09,134.44 L360.49,137.11 L364.59,140.18 L368.38,143.62 L371.82,147.41 L374.89,151.51 L377.56,155.91 L379.81,160.57 L381.60,165.47 L382.92,170.58 L383.72,175.88 L384.00,181.33 L384.00,437.33 L383.72,442.79 L382.92,448.08 L381.60,453.19 L379.81,458.09 L377.56,462.76 L374.89,467.15 L371.82,471.26 L368.38,475.05 L364.59,478.49 L360.49,481.56 L356.09,484.23 L351.43,486.48 L346.53,488.27 L341.42,489.58 L336.12,490.39 L330.67,490.67 L149.33,490.67 L155.92,490.50 L162.42,490.01 L168.83,489.19 L175.13,488.07 L181.32,486.64 L187.40,484.91 L193.34,482.90 L199.16,480.61 L204.83,478.04 L210.35,475.22 L215.71,472.14 L220.90,468.81 L225.92,465.24 L230.75,461.44 L235.40,457.41 L239.84,453.18 L244.08,448.73 L248.10,444.09 L251.90,439.25 L255.47,434.23 L258.80,429.04 L261.88,423.68 L264.71,418.16 L267.27,412.49 L269.57,406.68 L271.58,400.73 L273.30,394.66 L274.73,388.46 L275.86,382.16 L276.67,375.75 L277.17,369.25 L277.33,362.67 L277.17,356.08 L276.67,349.58 L275.86,343.17 L274.73,336.87 L273.30,330.68 L271.58,324.60 L269.57,318.66 L267.27,312.84 L264.71,307.17 L261.88,301.65 L258.80,296.29 L255.47,291.10 L251.90,286.08 L248.10,281.25 L244.08,276.60 L239.84,272.16 L235.40,267.92 L230.75,263.90 L225.92,260.10 L220.90,256.53 L215.71,253.20 L210.35,250.12 L204.83,247.29 L199.16,244.73 L193.34,242.43 L187.40,240.42 L181.32,238.70 L175.13,237.27 L168.83,236.14 L162.42,235.33 L155.92,234.83 L149.33,234.67 L74.67,234.67 L69.21,234.39 L63.92,233.58 L58.81,232.27 L53.91,230.48 L49.24,228.23 L44.85,225.56 L40.74,222.49 L36.95,219.05 L33.51,215.26 L30.44,211.15 L27.77,206.76 L25.52,202.09 L23.73,197.19 L22.42,192.08 L21.61,186.79 L21.33,181.33 L21.33,53.33 L21.33,74.67 Z" fill="#9c6cee" stroke="#1e1e1e" stroke-width="1" stroke-linejoin="round"/><path d="M21.33,74.67 L21.61,80.12 L22.42,85.42 L23.73,90.53 L25.52,95.43 L27.77,100.09 L30.44,104.49 L33.51,108.59 L36.95,112.38 L40.74,115.82 L44.85,118.89 L49.24,121.56 L53.91,123.81 L58.81,125.60 L63.92,126.92 L69.21,127.72 L74.67,128.00 L330.67,128.00 L336.12,128.28 L341.42,129.08 L346.53,130.40 L351.43,132.19 L356.09,134.44 L360.49,137.11 L364.59,140.18 L368.38,143.62 L371.82,147.41 L374.89,151.51 L377.56,155.91 L379.81,160.57 L381.60,165.47 L382.92,170.58 L383.72,175.88 L384.00,181.33 L384.00,437.33 L383.72,442.79 L382.92,448.08 L381.60,453.19 L379.81,458.09 L377.56,462.76 L374.89,467.15 L371.82,471.26 L368.38,475.05 L364.59,478.49 L360.49,481.56 L356.09,484.23 L351.43,486.48 L346.53,488.27 L341.42,489.58 L336.12,490.39 L330.67,490.67 L149.33,490.67 L155.92,490.50 L162.42,490.01 L168.83,489.19 L175.13,488.07 L181.32,486.64 L187.40,484.91 L193.34,482.90 L199.16,480.61 L204.83,478.04 L210.35,475.22 L215.71,472.14 L220.90,468.81 L225.92,465.24 L230.75,461.44 L235.40,457.41 L239.84,453.18 L244.08,448.73 L248.10,444.09 L251.90,439.25 L255.47,434.23 L258.80,429.04 L261.88,423.68 L264.71,418.16 L267.27,412.49 L269.57,406.68 L271.58,400.73 L273.30,394.66 L274.73,388.46 L275.86,382.16 L276.67,375.75 L277.17,369.25 L277.33,362.67 L277.17,356.08 L276.67,349.58 L275.86,343.17 L274.73,336.87 L273.30,330.68 L271.58,324.60 L269.57,318.66 L267.27,312.84 L264.71,307.17 L261.88,301.65 L258.80,296.29 L255.47,291.10 L251.90,286.08 L248.10,281.25 L244.08,276.60 L239.84,272.16 L235.40,267.92 L230.75,263.90 L225.92,260.10 L220.90,256.53 L215.71,253.20 L210.35,250.12 L204.83,247.29 L199.16,244.73 L193.34,242.43 L187.40,240.42 L181.32,238.70 L175.13,237.27 L168.83,236.14 L162.42,235.33 L155.92,234.83 L149.33,234.67 L74.67,234.67 L69.21,234.39 L63.92,233.58 L58.81,232.27 L53.91,230.48 L49.24,228.23 L44.85,225.56 L40.74,222.49 L36.95,219.05 L33.51,215.26 L30.44,211.15 L27.77,206.76 L25.52,202.09 L23.73,197.19 L22.42,192.08 L21.61,186.79 L21.33,181.33 L21.33,53.33 L21.33,74.67 Z" fill="#c08afe" stroke="#1e1e1e" stroke-width="1" stroke-linejoin="round" opacity="0.8"/><path d="M21.33,74.67 L21.61,80.12 L22.42,85.42 L23.73,90.53 L25.52,95.43 L27.77,100.09 L30.44,104.49 L33.51,108.59 L36.95,112.38 L40.74,115.82 L44.85,118.89 L49.24,121.56 L53.91,123.81 L58.81,125.60 L63.92,126.92 L69.21,127.72 L74.67,128.00 L330.67,128.00 L336.12,128.28 L341.42,129.08 L346.53,130.40 L351.43,132.19 L356.09,134.44 L360.49,137.11 L364.59,140.18 L368.38,143.62 L371.82,147.41 L374.89,151.51 L377.56,155.91 L379.81,160.57 L381.60,165.47 L382.92,170.58 L383.72,175.88 L384.00,181.33 L384.00,437.33 L383.72,442.79 L382.92,448.08 L381.60,453.19 L379.81,458.09 L377.56,462.76 L374.89,467.15 L371.82,471.26 L368.38,475.05 L364.59,478.49 L360.49,481.56 L356.09,484.23 L351.43,486.48 L346.53,488.27 L341.42,489.58 L336.12,490.39 L330.67,490.67 L149.33,490.67 L155.92,490.50 L162.42,490.01 L168.83,489.19 L175.13,488.07 L181.32,486.64 L187.40,484.91 L193.34,482.90 L199.16,480.61 L204.83,478.04 L210.35,475.22 L215.71,472.14 L220.90,468.81 L225.92,465.24 L230.75,461.44 L235.40,457.41 L239.84,453.18 L244.08,448.73 L248.10,444.09 L251.90,439.25 L255.47,434.23 L258.80,429.04 L261.88,423.68 L264.71,418.16 L267.27,412.49 L269.57,406.68 L271.58,400.73 L273.30,394.66 L274.73,388.46 L275.86,382.16 L276.67,375.75 L277.17,369.25 L277.33,362.67 L277.17,356.08 L276.67,349.58 L275.86,343.17 L274.73,336.87 L273.30,330.68 L271.58,324.60 L269.57,318.66 L267.27,312.84 L264.71,307.17 L261.88,301.65 L258.80,296.29 L255.47,291.10 L251.90,286.08 L248.10,281.25 L244.08,276.60 L239.84,272.16 L235.40,267.92 L230.75,263.90 L225.92,260.10 L220.90,256.53 L215.71,253.20 L210.35,250.12 L204.83,247.29 L199.16,244.73 L193.34,242.43 L187.40,240.42 L181.32,238.70 L175.13,237.27 L168.83,236.14 L162.42,235.33 L155.92,234.83 L149.33,234.67 L74.67,234.67 L69.21,234.39 L63.92,233.58 L58.81,232.27 L53.91,230.48 L49.24,228.23 L44.85,225.56 L40.74,222.49 L36.95,219.05 L33.51,215.26 L30.44,211.15 L27.77,206.76 L25.52,202.09 L23.73,197.19 L22.42,192.08 L21.61,186.79 L21.33,181.33 L21.33,53.33 L21.33,74.67 Z" fill="#5b2ab5" stroke="#1e1e1e" stroke-width="1" stroke-linejoin="round"/><ellipse cx="149.33" cy="362.67" rx="128.00" ry="128.00" fill="#e7abfa" stroke="#1e1e1e" stroke-width="1"/></svg>