<svg xmlns="http://www.w3.org/2000/svg" viewBox="-1.98 -0.22 514.20 514.20"><path d="M256.00,32.00 L255.83,28.73 L255.35,25.55 L254.56,22.48 L253.48,19.55 L252.13,16.77 L250.52,14.16 L248.68,11.75 L246.62,9.54 L244.35,7.58 L241.89,5.86 L239.26,4.42 L236.47,3.27 L233.54,2.43 L230.49,1.93 L227.33,1.78 L224.08,2.00 L216.73,3.03 L209.41,4.27 L202.15,5.73 L194.93,7.39 L187.76,9.26 L180.65,11.34 L173.61,13.62 L166.63,16.11 L159.72,18.79 L152.90,21.68 L146.15,24.77 L139.48,28.05 L132.91,31.53 L126.43,35.21 L120.05,39.08 L113.77,43.14 L105.99,48.56 L98.43,54.24 L91.10,60.18 L84.01,66.38 L77.15,72.83 L70.55,79.52 L64.20,86.45 L58.11,93.60 L52.29,100.96 L46.73,108.54 L41.46,116.32 L36.47,124.30 L31.78,132.47 L27.37,140.82 L23.28,149.34 L19.49,158.03 L16.02,166.86 L12.89,175.78 L10.10,184.80 L7.65,193.89 L5.53,203.06 L3.76,212.30 L2.32,221.58 L1.23,230.91 L0.48,240.27 L0.08,249.65 L0.02,259.05 L0.30,268.46 L0.93,277.86 L1.91,287.25 L3.24,296.61 L4.92,305.94 L6.94,315.21 L9.30,324.36 L11.98,333.41 L15.00,342.34 L18.33,351.14 L21.99,359.80 L25.95,368.32 L30.23,376.68 L34.81,384.88 L39.68,392.91 L44.86,400.76 L50.32,408.42 L56.07,415.88 L62.10,423.14 L68.40,430.19 L74.98,437.02 L81.81,443.60 L88.86,449.90 L96.12,455.93 L103.58,461.68 L111.24,467.14 L119.09,472.32 L127.12,477.19 L135.32,481.77 L143.68,486.05 L152.20,490.01 L160.86,493.67 L169.66,497.00 L178.59,500.02 L187.64,502.70 L196.79,505.06 L206.06,507.08 L215.39,508.76 L224.75,510.09 L234.14,511.07 L243.54,511.70 L252.95,511.98 L262.35,511.92 L271.73,511.52 L281.09,510.77 L290.42,509.68 L299.70,508.24 L308.94,506.47 L318.11,504.35 L327.20,501.90 L336.22,499.11 L345.14,495.98 L353.97,492.51 L362.66,488.72 L371.18,484.63 L379.53,480.22 L387.70,475.53 L395.68,470.54 L403.46,465.27 L411.04,459.71 L418.40,453.89 L425.55,447.80 L432.48,441.45 L439.17,434.85 L445.62,427.99 L451.82,420.90 L457.76,413.57 L463.44,406.01 L468.86,398.23 L472.92,391.95 L476.79,385.57 L480.47,379.09 L483.95,372.52 L487.23,365.85 L490.32,359.10 L493.21,352.28 L495.89,345.37 L498.38,338.39 L500.66,331.35 L502.74,324.24 L504.61,317.07 L506.27,309.85 L507.73,302.59 L508.97,295.27 L510.00,287.92 L510.22,284.67 L510.07,281.51 L509.57,278.46 L508.73,275.53 L507.58,272.74 L506.14,270.11 L504.42,267.65 L502.46,265.38 L500.25,263.32 L497.84,261.48 L495.23,259.87 L492.45,258.52 L489.52,257.44 L486.45,256.65 L483.27,256.17 L480.00,256.00 L288.00,256.00 L284.73,255.83 L281.55,255.35 L278.48,254.56 L275.54,253.49 L272.75,252.14 L270.11,250.53 L267.65,248.69 L265.37,246.63 L263.31,244.35 L261.47,241.89 L259.86,239.25 L258.51,236.46 L257.44,233.52 L256.65,230.45 L256.17,227.27 L256.00,224.00 L256.00,32.00 Z" fill="#196e4b" stroke="#1e1e1e" stroke-width="1" stroke-linejoin="round"/><path d="M256.00,32.00 L255.83,28.73 L255.35,25.55 L254.56,22.48 L253.48,19.55 L252.13,16.77 L250.52,14.16 L248.68,11.75 L246.62,9.54 L244.35,7.58 L241.89,5.86 L239.26,4.42 L236.47,3.27 L233.54,2.43 L230.49,1.93 L227.33,1.78 L224.08,2.00 L216.73,3.03 L209.41,4.27 L202.15,5.73 L194.93,7.39 L187.76,9.26 L180.65,11.34 L173.61,13.62 L166.63,16.11 L159.72,18.79 L152.90,21.68 L146.15,24.77 L139.48,28.05 L132.91,31.53 L126.43,35.21 L120.05,39.08 L113.77,43.14 L105.99,48.56 L98.43,54.24 L91.10,60.18 L84.01,66.38 L77.15,72.83 L70.55,79.52 L64.20,86.45 L58.11,93.60 L52.29,100.96 L46.73,108.54 L41.46,116.32 L36.47,124.30 L31.78,132.47 L27.37,140.82 L23.28,149.34 L19.49,158.03 L16.02,166.86 L12.89,175.78 L10.10,184.80 L7.65,193.89 L5.53,203.06 L3.76,212.30 L2.32,221.58 L1.23,230.91 L0.48,240.27 L0.08,249.65 L0.02,259.05 L0.30,268.46 L0.93,277.86 L1.91,287.25 L3.24,296.61 L4.92,305.94 L6.94,315.21 L9.30,324.36 L11.98,333.41 L15.00,342.34 L18.33,351.14 L21.99,359.80 L25.95,368.32 L30.23,376.68 L34.81,384.88 L39.68,392.91 L44.86,400.76 L50.32,408.42 L56.07,415.88 L62.10,423.14 L68.40,430.19 L74.98,437.02 L81.81,443.60 L88.86,449.90 L96.12,455.93 L103.58,461.68 L111.24,467.14 L119.09,472.32 L127.12,477.19 L135.32,481.77 L143.68,486.05 L152.20,490.01 L160.86,493.67 L169.66,497.00 L178.59,500.02 L187.64,502.70 L196.79,505.06 L206.06,507.08 L215.39,508.76 L224.75,510.09 L234.14,511.07 L243.54,511.70 L252.95,511.98 L262.35,511.92 L271.73,511.52 L281.09,510.77 L290.42,509.68 L299.70,508.24 L308.94,506.47 L318.11,504.35 L327.20,501.90 L336.22,499.11 L345.14,495.98 L353.97,492.51 L362.66,488.72 L371.18,484.63 L379.53,480.22 L387.70,475.53 L395.68,470.54 L403.46,465.27 L411.04,459.71 L418.40,453.89 L425.55,447.80 L432.48,441.45 L439.17,434.85 L445.62,427.99 L451.82,420.90 L457.76,413.57 L463.44,406.01 L468.86,398.23 L472.92,391.95 L476.79,385.57 L480.47,379.09 L483.95,372.52 L487.23,365.85 L490.32,359.10 L493.21,352.28 L495.89,345.37 L498.38,338.39 L500.66,331.35 L502.74,324.24 L504.61,317.07 L506.27,309.85 L507.73,302.59 L508.97,295.27 L510.00,287.92 L510.22,284.67 L510.07,281.51 L509.57,278.46 L508.73,275.53 L507.58,272.74 L506.14,270.11 L504.42,267.65 L502.46,265.38 L500.25,263.32 L497.84,261.48 L495.23,259.87 L492.45,258.52 L489.52,257.44 L486.45,256.65 L483.27,256.17 L480.00,256.00 L288.00,256.00 L284.73,255.83 L281.55,255.35 L278.48,254.56 L275.54,253.49 L272.75,252.14 L270.11,250.53 L267.65,248.69 L265.37,246.63 L263.31,244.35 L261.47,241.89 L259.86,239.25 L258.51,236.46 L257.44,233.52 L256.65,230.45 L256.17,227.27 L256.00,224.00 L256.00,32.00 Z" fill="#094247" stroke="#1e1e1e" stroke-width="1" stroke-linejoin="round" opacity="0.51"/><path d="M256.00,403.33 L256.18,406.81 L256.70,410.19 L257.54,413.45 L258.69,416.56 L260.12,419.51 L261.83,422.26 L263.79,424.80 L265.98,427.10 L268.39,429.14 L271.00,430.89 L273.79,432.34 L276.74,433.46 L279.83,434.22 L283.05,434.61 L286.38,434.59 L289.80,434.16 L298.68,432.24 L307.45,429.88 L316.08,427.09 L324.57,423.87 L332.90,420.22 L341.05,416.15 L349.00,411.67 L356.74,406.77 L362.26,402.94 L367.61,398.91 L372.80,394.70 L377.83,390.31 L382.68,385.74 L387.36,381.00 L391.86,376.10 L396.17,371.04 L400.30,365.82 L404.23,360.45 L407.96,354.94 L411.50,349.29 L414.83,343.50 L417.94,337.59 L420.85,331.55 L423.53,325.39 L425.98,319.14 L428.20,312.82 L430.18,306.43 L431.92,299.99 L433.41,293.50 L434.67,286.96 L435.69,280.38 L436.46,273.77 L436.99,267.14 L437.28,260.49 L437.32,253.84 L437.12,247.17 L436.67,240.51 L435.98,233.87 L435.04,227.23 L433.85,220.62 L432.42,214.06 L430.75,207.58 L428.84,201.17 L426.71,194.84 L424.35,188.61 L421.76,182.48 L418.95,176.44 L415.92,170.52 L412.68,164.71 L409.22,159.02 L405.56,153.46 L401.69,148.04 L397.62,142.75 L393.35,137.61 L388.88,132.61 L384.22,127.78 L379.39,123.12 L374.39,118.65 L369.25,114.38 L363.96,110.31 L358.54,106.44 L352.98,102.78 L347.29,99.32 L341.48,96.08 L335.56,93.05 L329.52,90.24 L323.39,87.65 L317.16,85.29 L310.83,83.16 L304.42,81.25 L297.94,79.58 L291.38,78.15 L284.77,76.96 L278.13,76.02 L271.49,75.33 L264.83,74.88 L258.16,74.68 L251.51,74.72 L244.86,75.01 L238.23,75.54 L231.62,76.31 L225.04,77.33 L218.50,78.59 L212.01,80.08 L205.57,81.82 L199.18,83.80 L192.86,86.02 L186.61,88.47 L180.45,91.15 L174.41,94.06 L168.50,97.17 L162.71,100.50 L157.06,104.04 L151.55,107.77 L146.18,111.70 L140.96,115.83 L135.90,120.14 L131.00,124.64 L126.26,129.32 L121.69,134.17 L117.30,139.20 L113.09,144.39 L109.06,149.74 L105.23,155.26 L100.33,163.00 L95.85,170.95 L91.78,179.10 L88.13,187.43 L84.91,195.92 L82.12,204.55 L79.76,213.32 L77.84,222.20 L77.41,225.62 L77.39,228.95 L77.78,232.17 L78.54,235.26 L79.66,238.21 L81.11,241.00 L82.86,243.61 L84.90,246.02 L87.20,248.21 L89.74,250.17 L92.49,251.88 L95.44,253.31 L98.55,254.46 L101.81,255.30 L105.19,255.82 L108.67,256.00 L222.00,256.00 L225.48,256.18 L228.85,256.69 L232.11,257.53 L235.23,258.67 L238.21,260.10 L241.01,261.81 L243.63,263.76 L246.04,265.96 L248.24,268.37 L250.19,270.99 L251.90,273.79 L253.33,276.77 L254.47,279.89 L255.31,283.15 L255.82,286.52 L256.00,290.00 L256.00,403.33 Z" fill="#44b86e" stroke="#1e1e1e" stroke-width="1" stroke-linejoin="round"/><path d="M256.00,403.33 L256.18,406.81 L256.70,410.19 L257.54,413.45 L258.69,416.56 L260.12,419.51 L261.83,422.26 L263.79,424.80 L265.98,427.10 L268.39,429.14 L271.00,430.89 L273.79,432.34 L276.74,433.46 L279.83,434.22 L283.05,434.61 L286.38,434.59 L289.80,434.16 L298.68,432.24 L307.45,429.88 L316.08,427.09 L324.57,423.87 L332.90,420.22 L341.05,416.15 L349.00,411.67 L356.74,406.77 L362.26,402.94 L367.61,398.91 L372.80,394.70 L377.83,390.31 L382.68,385.74 L387.36,381.00 L391.86,376.10 L396.17,371.04 L400.30,365.82 L404.23,360.45 L407.96,354.94 L411.50,349.29 L414.83,343.50 L417.94,337.59 L420.85,331.55 L423.53,325.39 L425.98,319.14 L428.20,312.82 L430.18,306.43 L431.92,299.99 L433.41,293.50 L434.67,286.96 L435.69,280.38 L436.46,273.77 L436.99,267.14 L437.28,260.49 L437.32,253.84 L437.12,247.17 L436.67,240.51 L435.98,233.87 L435.04,227.23 L433.85,220.62 L432.42,214.06 L430.75,207.58 L428.84,201.17 L426.71,194.84 L424.35,188.61 L421.76,182.48 L418.95,176.44 L415.92,170.52 L412.68,164.71 L409.22,159.02 L405.56,153.46 L401.69,148.04 L397.62,142.75 L393.35,137.61 L388.88,132.61 L384.22,127.78 L379.39,123.12 L374.39,118.65 L369.25,114.38 L363.96,110.31 L358.54,106.44 L352.98,102.78 L347.29,99.32 L341.48,96.08 L335.56,93.05 L329.52,90.24 L323.39,87.65 L317.16,85.29 L310.83,83.16 L304.42,81.25 L297.94,79.58 L291.38,78.15 L284.77,76.96 L278.13,76.02 L271.49,75.33 L264.83,74.88 L258.16,74.68 L251.51,74.72 L244.86,75.01 L238.23,75.54 L231.62,76.31 L225.04,77.33 L218.50,78.59 L212.01,80.08 L205.57,81.82 L199.18,83.80 L192.86,86.02 L186.61,88.47 L180.45,91.15 L174.41,94.06 L168.50,97.17 L162.71,100.50 L157.06,104.04 L151.55,107.77 L146.18,111.70 L140.96,115.83 L135.90,120.14 L131.00,124.64 L126.26,129.32 L121.69,134.17 L117.30,139.20 L113.09,144.39 L109.06,149.74 L105.23,155.26 L100.33,163.00 L95.85,170.95 L91.78,179.10 L88.13,187.43 L84.91,195.92 L82.12,204.55 L79.76,213.32 L77.84,222.20 L77.41,225.62 L77.39,228.95 L77.78,232.17 L78.54,235.26 L79.66,238.21 L81.11,241.00 L82.86,243.61 L84.90,246.02 L87.20,248.21 L89.74,250.17 L92.49,251.88 L95.44,253.31 L98.55,254.46 L101.81,255.30 L105.19,255.82 L108.67,256.00 L222.00,256.00 L225.48,256.18 L228.85,256.69 L232.11,257.53 L235.23,258.67 L238.21,260.10 L241.01,261.81 L243.63,263.76 L246.04,265.96 L248.24,268.37 L250.19,270.99 L251.90,273.79 L253.33,276.77 L254.47,279.89 L255.31,283.15 L255.82,286.52 L256.00,290.00 L256.00,403.33 Z" fill="#309c61" stroke="#1e1e1e" stroke-width="1" stroke-linejoin="round" opacity="0"/><path d="M256.00,403.33 L256.18,406.81 L256.70,410.19 L257.54,413.45 L258.69,416.56 L260.12,419.51 L261.83,422.26 L263.79,424.80 L265.98,427.10 L268.39,429.14 L271.00,430.89 L273.79,432.34 L276.74,433.46 L279.83,434.22 L283.05,434.61 L286.38,434.59 L289.80,434.16 L298.68,432.24 L307.45,429.88 L316.08,427.09 L324.57,423.87 L332.90,420.22 L341.05,416.15 L349.00,411.67 L356.74,406.77 L362.26,402.94 L367.61,398.91 L372.80,394.70 L377.83,390.31 L382.68,385.74 L387.36,381.00 L391.86,376.10 L396.17,371.04 L400.30,365.82 L404.23,360.45 L407.96,354.94 L411.50,349.29 L414.83,343.50 L417.94,337.59 L420.85,331.55 L423.53,325.39 L425.98,319.14 L428.20,312.82 L430.18,306.43 L431.92,299.99 L433.41,293.50 L434.67,286.96 L435.69,280.38 L436.46,273.77 L436.99,267.14 L437.28,260.49 L437.32,253.84 L437.12,247.17 L436.67,240.51 L435.98,233.87 L435.04,227.23 L433.85,220.62 L432.42,214.06 L430.75,207.58 L428.84,201.17 L426.71,194.84 L424.35,188.61 L421.76,182.48 L418.95,176.44 L415.92,170.52 L412.68,164.71 L409.22,159.02 L405.56,153.46 L401.69,148.04 L397.62,142.75 L393.35,137.61 L388.88,132.61 L384.22,127.78 L379.39,123.12 L374.39,118.65 L369.25,114.38 L363.96,110.31 L358.54,106.44 L352.98,102.78 L347.29,99.32 L341.48,96.08 L335.56,93.05 L329.52,90.24 L323.39,87.65 L317.16,85.29 L310.83,83.16 L304.42,81.25 L297.94,79.58 L291.38,78.15 L284.77,76.96 L278.13,76.02 L271.49,75.33 L264.83,74.88 L258.16,74.68 L251.51,74.72 L244.86,75.01 L238.23,75.54 L231.62,76.31 L225.04,77.33 L218.50,78.59 L212.01,80.08 L205.57,81.82 L199.18,83.80 L192.86,86.02 L186.61,88.47 L180.45,91.15 L174.41,94.06 L168.50,97.17 L162.71,100.50 L157.06,104.04 L151.55,107.77 L146.18,111.70 L140.96,115.83 L135.90,120.14 L131.00,124.64 L126.26,129.32 L121.69,134.17 L117.30,139.20 L113.09,144.39 L109.06,149.74 L105.23,155.26 L100.33,163.00 L95.85,170.95 L91.78,179.10 L88.13,187.43 L84.91,195.92 L82.12,204.55 L79.76,213.32 L77.84,222.20 L77.41,225.62 L77.39,228.95 L77.78,232.17 L78.54,235.26 L79.66,238.21 L81.11,241.00 L82.86,243.61 L84.90,246.02 L87.20,248.21 L89.74,250.17 L92.49,251.88 L95.44,253.31 L98.55,254.46 L101.81,255.30 L105.19,255.82 L108.67,256.00 L222.00,256.00 L225.48,256.18 L228.85,256.69 L232.11,257.53 L235.23,258.67 L238.21,260.10 L241.01,261.81 L243.63,263.76 L246.04,265.96 L248.24,268.37 L250.19,270.99 L251.90,273.79 L253.33,276.77 L254.47,279.89 L255.31,283.15 L255.82,286.52 L256.00,290.00 L256.00,403.33 Z" fill="#62be55" stroke="#1e1e1e" stroke-width="1" stroke-linejoin="round" opacity="0"/><path d="M256.00,403.33 L256.18,406.81 L256.70,410.19 L257.54,413.45 L258.69,416.56 L260.12,419.51 L261.83,422.26 L263.79,424.80 L265.98,427.10 L268.39,429.14 L271.00,430.89 L273.79,432.34 L276.74,433.46 L279.83,434.22 L283.05,434.61 L286.38,434.59 L289.80,434.16 L298.68,432.24 L307.45,429.88 L316.08,427.09 L324.57,423.87 L332.90,420.22 L341.05,416.15 L349.00,411.67 L356.74,406.77 L362.26,402.94 L367.61,398.91 L372.80,394.70 L377.83,390.31 L382.68,385.74 L387.36,381.00 L391.86,376.10 L396.17,371.04 L400.30,365.82 L404.23,360.45 L407.96,354.94 L411.50,349.29 L414.83,343.50 L417.94,337.59 L420.85,331.55 L423.53,325.39 L425.98,319.14 L428.20,312.82 L430.18,306.43 L431.92,299.99 L433.41,293.50 L434.67,286.96 L435.69,280.38 L436.46,273.77 L436.99,267.14 L437.28,260.49 L437.32,253.84 L437.12,247.17 L436.67,240.51 L435.98,233.87 L435.04,227.23 L433.85,220.62 L432.42,214.06 L430.75,207.58 L428.84,201.17 L426.71,194.84 L424.35,188.61 L421.76,182.48 L418.95,176.44 L415.92,170.52 L412.68,164.71 L409.22,159.02 L405.56,153.46 L401.69,148.04 L397.62,142.75 L393.35,137.61 L388.88,132.61 L384.22,127.78 L379.39,123.12 L374.39,118.65 L369.25,114.38 L363.96,110.31 L358.54,106.44 L352.98,102.78 L347.29,99.32 L341.48,96.08 L335.56,93.05 L329.52,90.24 L323.39,87.65 L317.16,85.29 L310.83,83.16 L304.42,81.25 L297.94,79.58 L291.38,78.15 L284.77,76.96 L278.13,76.02 L271.49,75.33 L264.83,74.88 L258.16,74.68 L251.51,74.72 L244.86,75.01 L238.23,75.54 L231.62,76.31 L225.04,77.33 L218.50,78.59 L212.01,80.08 L205.57,81.82 L199.18,83.80 L192.86,86.02 L186.61,88.47 L180.45,91.15 L174.41,94.06 L168.50,97.17 L162.71,100.50 L157.06,104.04 L151.55,107.77 L146.18,111.70 L140.96,115.83 L135.90,120.14 L131.00,124.64 L126.26,129.32 L121.69,134.17 L117.30,139.20 L113.09,144.39 L109.06,149.74 L105.23,155.26 L100.33,163.00 L95.85,170.95 L91.78,179.10 L88.13,187.43 L84.91,195.92 L82.12,204.55 L79.76,213.32 L77.84,222.20 L77.41,225.62 L77.39,228.95 L77.78,232.17 L78.54,235.26 L79.66,238.21 L81.11,241.00 L82.86,243.61 L84.90,246.02 L87.20,248.21 L89.74,250.17 L92.49,251.88 L95.44,253.31 L98.55,254.46 L101.81,255.30 L105.19,255.82 L108.67,256.00 L222.00,256.00 L225.48,256.18 L228.85,256.69 L232.11,257.53 L235.23,258.67 L238.21,260.10 L241.01,261.81 L243.63,263.76 L246.04,265.96 L248.24,268.37 L250.19,270.99 L251.90,273.79 L253.33,276.77 L254.47,279.89 L255.31,283.15 L255.82,286.52 L256.00,290.00 L256.00,403.33 Z" fill="#1a7f7c" stroke="#1e1e1e" stroke-width="1" stroke-linejoin="round" opacity="0.99"/><ellipse cx="256.00" cy="256.00" rx="96.00" ry="96.00" fill="#95e57a" stroke="#1e1e1e" stroke-width="1"/></svg>