<svg xmlns="http://www.w3.org/2000/svg" viewBox="-1.80 -1.80 100.00 100.00"><path d="M34.14,34.14 L34.88,34.85 L35.65,35.51 L36.45,36.12 L37.26,36.69 L38.10,37.21 L38.96,37.69 L39.83,38.12 L40.72,38.51 L41.62,38.85 L42.54,39.15 L43.47,39.40 L44.40,39.60 L45.35,39.76 L46.30,39.88 L47.25,39.94 L48.20,39.97 L49.16,39.94 L50.11,39.88 L51.06,39.76 L52.00,39.60 L52.94,39.40 L53.86,39.15 L54.78,38.85 L55.68,38.51 L56.57,38.12 L57.45,37.69 L58.30,37.21 L59.14,36.69 L59.96,36.12 L60.75,35.51 L61.52,34.85 L62.26,34.14 L62.97,33.40 L63.63,32.63 L64.24,31.84 L64.81,31.02 L65.33,30.19 L65.81,29.33 L66.24,28.46 L66.63,27.57 L66.97,26.66 L67.27,25.74 L67.52,24.82 L67.72,23.88 L67.88,22.94 L67.99,21.99 L68.06,21.04 L68.08,20.08 L68.06,19.13 L67.99,18.18 L67.88,17.23 L67.72,16.29 L67.52,15.35 L67.27,14.42 L66.97,13.51 L66.63,12.60 L66.24,11.71 L65.81,10.84 L65.33,9.98 L64.81,9.14 L64.24,8.33 L63.63,7.54 L62.97,6.77 L62.26,6.03 L61.52,5.32 L60.75,4.66 L59.96,4.05 L59.14,3.48 L58.30,2.95 L57.45,2.48 L56.57,2.04 L55.68,1.66 L54.78,1.32 L53.86,1.02 L52.94,0.77 L52.00,0.57 L51.06,0.41 L50.11,0.29 L49.16,0.22 L48.20,0.20 L47.25,0.22 L46.30,0.29 L45.35,0.41 L44.40,0.57 L43.47,0.77 L42.54,1.02 L41.62,1.32 L40.72,1.66 L39.83,2.04 L38.96,2.48 L38.10,2.95 L37.26,3.48 L36.45,4.05 L35.65,4.66 L34.88,5.32 L34.14,6.03 L33.44,6.77 L32.78,7.54 L32.16,8.33 L31.60,9.14 L31.07,9.98 L30.59,10.84 L30.16,11.71 L29.78,12.60 L29.43,13.51 L29.14,14.42 L28.89,15.35 L28.68,16.29 L28.52,17.23 L28.41,18.18 L28.34,19.13 L28.32,20.08 L28.34,21.04 L28.41,21.99 L28.52,22.94 L28.68,23.88 L28.89,24.82 L29.14,25.74 L29.43,26.66 L29.78,27.57 L30.16,28.46 L30.59,29.33 L31.07,30.19 L31.60,31.02 L32.16,31.84 L32.78,32.63 L33.44,33.40 L34.14,34.14 Z" fill="#1387b3" stroke="#1e1e1e" stroke-width="1" stroke-linejoin="round"/><path d="M34.14,34.14 L34.88,34.85 L35.65,35.51 L36.45,36.12 L37.26,36.69 L38.10,37.21 L38.96,37.69 L39.83,38.12 L40.72,38.51 L41.62,38.85 L42.54,39.15 L43.47,39.40 L44.40,39.60 L45.35,39.76 L46.30,39.88 L47.25,39.94 L48.20,39.97 L49.16,39.94 L50.11,39.88 L51.06,39.76 L52.00,39.60 L52.94,39.40 L53.86,39.15 L54.78,38.85 L55.68,38.51 L56.57,38.12 L57.45,37.69 L58.30,37.21 L59.14,36.69 L59.96,36.12 L60.75,35.51 L61.52,34.85 L62.26,34.14 L62.97,33.40 L63.63,32.63 L64.24,31.84 L64.81,31.02 L65.33,30.19 L65.81,29.33 L66.24,28.46 L66.63,27.57 L66.97,26.66 L67.27,25.74 L67.52,24.82 L67.72,23.88 L67.88,22.94 L67.99,21.99 L68.06,21.04 L68.08,20.08 L68.06,19.13 L67.99,18.18 L67.88,17.23 L67.72,16.29 L67.52,15.35 L67.27,14.42 L66.97,13.51 L66.63,12.60 L66.24,11.71 L65.81,10.84 L65.33,9.98 L64.81,9.14 L64.24,8.33 L63.63,7.54 L62.97,6.77 L62.26,6.03 L61.52,5.32 L60.75,4.66 L59.96,4.05 L59.14,3.48 L58.30,2.95 L57.45,2.48 L56.57,2.04 L55.68,1.66 L54.78,1.32 L53.86,1.02 L52.94,0.77 L52.00,0.57 L51.06,0.41 L50.11,0.29 L49.16,0.22 L48.20,0.20 L47.25,0.22 L46.30,0.29 L45.35,0.41 L44.40,0.57 L43.47,0.77 L42.54,1.02 L41.62,1.32 L40.72,1.66 L39.83,2.04 L38.96,2.48 L38.10,2.95 L37.26,3.48 L36.45,4.05 L35.65,4.66 L34.88,5.32 L34.14,6.03 L33.44,6.77 L32.78,7.54 L32.16,8.33 L31.60,9.14 L31.07,9.98 L30.59,10.84 L30.16,11.71 L29.78,12.60 L29.43,13.51 L29.14,14.42 L28.89,15.35 L28.68,16.29 L28.52,17.23 L28.41,18.18 L28.34,19.13 L28.32,20.08 L28.34,21.04 L28.41,21.99 L28.52,22.94 L28.68,23.88 L28.89,24.82 L29.14,25.74 L29.43,26.66 L29.78,27.57 L30.16,28.46 L30.59,29.33 L31.07,30.19 L31.60,31.02 L32.16,31.84 L32.78,32.63 L33.44,33.40 L34.14,34.14 Z" fill="#025bab" stroke="#1e1e1e" stroke-width="1" stroke-linejoin="round" opacity="0.92"/><path d="M34.14,34.14 L34.88,34.85 L35.65,35.51 L36.45,36.12 L37.26,36.69 L38.10,37.21 L38.96,37.69 L39.83,38.12 L40.72,38.51 L41.62,38.85 L42.54,39.15 L43.47,39.40 L44.40,39.60 L45.35,39.76 L46.30,39.88 L47.25,39.94 L48.20,39.97 L49.16,39.94 L50.11,39.88 L51.06,39.76 L52.00,39.60 L52.94,39.40 L53.86,39.15 L54.78,38.85 L55.68,38.51 L56.57,38.12 L57.45,37.69 L58.30,37.21 L59.14,36.69 L59.96,36.12 L60.75,35.51 L61.52,34.85 L62.26,34.14 L62.97,33.40 L63.63,32.63 L64.24,31.84 L64.81,31.02 L65.33,30.19 L65.81,29.33 L66.24,28.46 L66.63,27.57 L66.97,26.66 L67.27,25.74 L67.52,24.82 L67.72,23.88 L67.88,22.94 L67.99,21.99 L68.06,21.04 L68.08,20.08 L68.06,19.13 L67.99,18.18 L67.88,17.23 L67.72,16.29 L67.52,15.35 L67.27,14.42 L66.97,13.51 L66.63,12.60 L66.24,11.71 L65.81,10.84 L65.33,9.98 L64.81,9.14 L64.24,8.33 L63.63,7.54 L62.97,6.77 L62.26,6.03 L61.52,5.32 L60.75,4.66 L59.96,4.05 L59.14,3.48 L58.30,2.95 L57.45,2.48 L56.57,2.04 L55.68,1.66 L54.78,1.32 L53.86,1.02 L52.94,0.77 L52.00,0.57 L51.06,0.41 L50.11,0.29 L49.16,0.22 L48.20,0.20 L47.25,0.22 L46.30,0.29 L45.35,0.41 L44.40,0.57 L43.47,0.77 L42.54,1.02 L41.62,1.32 L40.72,1.66 L39.83,2.04 L38.96,2.48 L38.10,2.95 L37.26,3.48 L36.45,4.05 L35.65,4.66 L34.88,5.32 L34.14,6.03 L33.44,6.77 L32.78,7.54 L32.16,8.33 L31.60,9.14 L31.07,9.98 L30.59,10.84 L30.16,11.71 L29.78,12.60 L29.43,13.51 L29.14,14.42 L28.89,15.35 L28.68,16.29 L28.52,17.23 L28.41,18.18 L28.34,19.13 L28.32,20.08 L28.34,21.04 L28.41,21.99 L28.52,22.94 L28.68,23.88 L28.89,24.82 L29.14,25.74 L29.43,26.66 L29.78,27.57 L30.16,28.46 L30.59,29.33 L31.07,30.19 L31.60,31.02 L32.16,31.84 L32.78,32.63 L33.44,33.40 L34.14,34.14 Z" fill="#0a65a3" stroke="#1e1e1e" stroke-width="1" stroke-linejoin="round" opacity="0.5"/><path d="M62.26,62.26 L61.52,61.56 L60.75,60.90 L59.96,60.28 L59.14,59.71 L58.30,59.19 L57.45,58.71 L56.57,58.28 L55.68,57.89 L54.78,57.55 L53.86,57.26 L52.94,57.01 L52.00,56.80 L51.06,56.64 L50.11,56.53 L49.16,56.46 L48.20,56.44 L47.25,56.46 L46.30,56.53 L45.35,56.64 L44.40,56.80 L43.47,57.01 L42.54,57.26 L41.62,57.55 L40.72,57.89 L39.83,58.28 L38.96,58.71 L38.10,59.19 L37.26,59.71 L36.45,60.28 L35.65,60.90 L34.88,61.56 L34.14,62.26 L33.44,63.00 L32.78,63.77 L32.16,64.56 L31.60,65.38 L31.07,66.22 L30.59,67.07 L30.16,67.95 L29.78,68.84 L29.43,69.74 L29.14,70.66 L28.89,71.59 L28.68,72.52 L28.52,73.47 L28.41,74.41 L28.34,75.37 L28.32,76.32 L28.34,77.27 L28.41,78.23 L28.52,79.17 L28.68,80.12 L28.89,81.05 L29.14,81.98 L29.43,82.90 L29.78,83.80 L30.16,84.69 L30.59,85.57 L31.07,86.42 L31.60,87.26 L32.16,88.08 L32.78,88.87 L33.44,89.64 L34.14,90.38 L34.88,91.08 L35.65,91.74 L36.45,92.36 L37.26,92.93 L38.10,93.45 L38.96,93.93 L39.83,94.36 L40.72,94.75 L41.62,95.09 L42.54,95.38 L43.47,95.63 L44.40,95.84 L45.35,96.00 L46.30,96.11 L47.25,96.18 L48.20,96.20 L49.16,96.18 L50.11,96.11 L51.06,96.00 L52.00,95.84 L52.94,95.63 L53.86,95.38 L54.78,95.09 L55.68,94.75 L56.57,94.36 L57.45,93.93 L58.30,93.45 L59.14,92.93 L59.96,92.36 L60.75,91.74 L61.52,91.08 L62.26,90.38 L62.97,89.64 L63.63,88.87 L64.24,88.08 L64.81,87.26 L65.33,86.42 L65.81,85.57 L66.24,84.69 L66.63,83.80 L66.97,82.90 L67.26,81.98 L67.52,81.05 L67.72,80.12 L67.88,79.17 L67.99,78.23 L68.06,77.27 L68.08,76.32 L68.06,75.37 L67.99,74.41 L67.88,73.47 L67.72,72.52 L67.52,71.59 L67.26,70.66 L66.97,69.74 L66.63,68.84 L66.24,67.95 L65.81,67.07 L65.33,66.22 L64.81,65.38 L64.24,64.56 L63.63,63.77 L62.97,63.00 L62.26,62.26 Z" fill="#09638e" stroke="#1e1e1e" stroke-width="1" stroke-linejoin="round"/><path d="M62.26,62.26 L61.52,61.56 L60.75,60.90 L59.96,60.28 L59.14,59.71 L58.30,59.19 L57.45,58.71 L56.57,58.28 L55.68,57.89 L54.78,57.55 L53.86,57.26 L52.94,57.01 L52.00,56.80 L51.06,56.64 L50.11,56.53 L49.16,56.46 L48.20,56.44 L47.25,56.46 L46.30,56.53 L45.35,56.64 L44.40,56.80 L43.47,57.01 L42.54,57.26 L41.62,57.55 L40.72,57.89 L39.83,58.28 L38.96,58.71 L38.10,59.19 L37.26,59.71 L36.45,60.28 L35.65,60.90 L34.88,61.56 L34.14,62.26 L33.44,63.00 L32.78,63.77 L32.16,64.56 L31.60,65.38 L31.07,66.22 L30.59,67.07 L30.16,67.95 L29.78,68.84 L29.43,69.74 L29.14,70.66 L28.89,71.59 L28.68,72.52 L28.52,73.47 L28.41,74.41 L28.34,75.37 L28.32,76.32 L28.34,77.27 L28.41,78.23 L28.52,79.17 L28.68,80.12 L28.89,81.05 L29.14,81.98 L29.43,82.90 L29.78,83.80 L30.16,84.69 L30.59,85.57 L31.07,86.42 L31.60,87.26 L32.16,88.08 L32.78,88.87 L33.44,89.64 L34.14,90.38 L34.88,91.08 L35.65,91.74 L36.45,92.36 L37.26,92.93 L38.10,93.45 L38.96,93.93 L39.83,94.36 L40.72,94.75 L41.62,95.09 L42.54,95.38 L43.47,95.63 L44.40,95.84 L45.35,96.00 L46.30,96.11 L47.25,96.18 L48.20,96.20 L49.16,96.18 L50.11,96.11 L51.06,96.00 L52.00,95.84 L52.94,95.63 L53.86,95.38 L54.78,95.09 L55.68,94.75 L56.57,94.36 L57.45,93.93 L58.30,93.45 L59.14,92.93 L59.96,92.36 L60.75,91.74 L61.52,91.08 L62.26,90.38 L62.97,89.64 L63.63,88.87 L64.24,88.08 L64.81,87.26 L65.33,86.42 L65.81,85.57 L66.24,84.69 L66.63,83.80 L66.97,82.90 L67.26,81.98 L67.52,81.05 L67.72,80.12 L67.88,79.17 L67.99,78.23 L68.06,77.27 L68.08,76.32 L68.06,75.37 L67.99,74.41 L67.88,73.47 L67.72,72.52 L67.52,71.59 L67.26,70.66 L66.97,69.74 L66.63,68.84 L66.24,67.95 L65.81,67.07 L65.33,66.22 L64.81,65.38 L64.24,64.56 L63.63,63.77 L62.97,63.00 L62.26,62.26 Z" fill="#044c87" stroke="#1e1e1e" stroke-width="1" stroke-linejoin="round" opacity="0.5"/><path d="M62.26,62.26 L61.52,61.56 L60.75,60.90 L59.96,60.28 L59.14,59.71 L58.30,59.19 L57.45,58.71 L56.57,58.28 L55.68,57.89 L54.78,57.55 L53.86,57.26 L52.94,57.01 L52.00,56.80 L51.06,56.64 L50.11,56.53 L49.16,56.46 L48.20,56.44 L47.25,56.46 L46.30,56.53 L45.35,56.64 L44.40,56.80 L43.47,57.01 L42.54,57.26 L41.62,57.55 L40.72,57.89 L39.83,58.28 L38.96,58.71 L38.10,59.19 L37.26,59.71 L36.45,60.28 L35.65,60.90 L34.88,61.56 L34.14,62.26 L33.44,63.00 L32.78,63.77 L32.16,64.56 L31.60,65.38 L31.07,66.22 L30.59,67.07 L30.16,67.95 L29.78,68.84 L29.43,69.74 L29.14,70.66 L28.89,71.59 L28.68,72.52 L28.52,73.47 L28.41,74.41 L28.34,75.37 L28.32,76.32 L28.34,77.27 L28.41,78.23 L28.52,79.17 L28.68,80.12 L28.89,81.05 L29.14,81.98 L29.43,82.90 L29.78,83.80 L30.16,84.69 L30.59,85.57 L31.07,86.42 L31.60,87.26 L32.16,88.08 L32.78,88.87 L33.44,89.64 L34.14,90.38 L34.88,91.08 L35.65,91.74 L36.45,92.36 L37.26,92.93 L38.10,93.45 L38.96,93.93 L39.83,94.36 L40.72,94.75 L41.62,95.09 L42.54,95.38 L43.47,95.63 L44.40,95.84 L45.35,96.00 L46.30,96.11 L47.25,96.18 L48.20,96.20 L49.16,96.18 L50.11,96.11 L51.06,96.00 L52.00,95.84 L52.94,95.63 L53.86,95.38 L54.78,95.09 L55.68,94.75 L56.57,94.36 L57.45,93.93 L58.30,93.45 L59.14,92.93 L59.96,92.36 L60.75,91.74 L61.52,91.08 L62.26,90.38 L62.97,89.64 L63.63,88.87 L64.24,88.08 L64.81,87.26 L65.33,86.42 L65.81,85.57 L66.24,84.69 L66.63,83.80 L66.97,82.90 L67.26,81.98 L67.52,81.05 L67.72,80.12 L67.88,79.17 L67.99,78.23 L68.06,77.27 L68.08,76.32 L68.06,75.37 L67.99,74.41 L67.88,73.47 L67.72,72.52 L67.52,71.59 L67.26,70.66 L66.97,69.74 L66.63,68.84 L66.24,67.95 L65.81,67.07 L65.33,66.22 L64.81,65.38 L64.24,64.56 L63.63,63.77 L62.97,63.00 L62.26,62.26 Z" fill="#013b82" stroke="#1e1e1e" stroke-width="1" stroke-linejoin="round" opacity="0.87"/><path d="M34.14,62.26 L34.88,62.97 L35.65,63.63 L36.45,64.24 L37.26,64.81 L38.10,65.33 L38.96,65.81 L39.83,66.24 L40.72,66.63 L41.62,66.97 L42.54,67.27 L43.47,67.52 L44.40,67.72 L45.35,67.88 L46.30,67.99 L47.25,68.06 L48.20,68.08 L49.16,68.06 L50.11,67.99 L51.06,67.88 L52.00,67.72 L52.94,67.52 L53.86,67.27 L54.78,66.97 L55.68,66.63 L56.57,66.24 L57.45,65.81 L58.30,65.33 L59.14,64.81 L59.96,64.24 L60.75,63.63 L61.52,62.97 L62.26,62.26 L62.97,61.52 L63.63,60.75 L64.24,59.96 L64.81,59.14 L65.33,58.30 L65.81,57.45 L66.24,56.57 L66.63,55.68 L66.97,54.78 L67.27,53.86 L67.52,52.94 L67.72,52.00 L67.88,51.06 L67.99,50.11 L68.06,49.16 L68.08,48.20 L68.06,47.25 L67.99,46.30 L67.88,45.35 L67.72,44.40 L67.52,43.47 L67.27,42.54 L66.97,41.62 L66.63,40.72 L66.24,39.83 L65.81,38.96 L65.33,38.10 L64.81,37.26 L64.24,36.45 L63.63,35.65 L62.97,34.88 L62.26,34.14 L61.52,33.44 L60.75,32.78 L59.96,32.16 L59.14,31.60 L58.30,31.07 L57.45,30.59 L56.57,30.16 L55.68,29.78 L54.78,29.43 L53.86,29.14 L52.94,28.89 L52.00,28.68 L51.06,28.52 L50.11,28.41 L49.16,28.34 L48.20,28.32 L47.25,28.34 L46.30,28.41 L45.35,28.52 L44.40,28.68 L43.47,28.89 L42.54,29.14 L41.62,29.43 L40.72,29.78 L39.83,30.16 L38.96,30.59 L38.10,31.07 L37.26,31.60 L36.45,32.16 L35.65,32.78 L34.88,33.44 L34.14,34.14 L33.44,34.88 L32.78,35.65 L32.16,36.45 L31.60,37.26 L31.07,38.10 L30.59,38.96 L30.16,39.83 L29.78,40.72 L29.43,41.62 L29.14,42.54 L28.89,43.47 L28.68,44.40 L28.52,45.35 L28.41,46.30 L28.34,47.25 L28.32,48.20 L28.34,49.16 L28.41,50.11 L28.52,51.06 L28.68,52.00 L28.89,52.94 L29.14,53.86 L29.43,54.78 L29.78,55.68 L30.16,56.57 L30.59,57.45 L31.07,58.30 L31.60,59.14 L32.16,59.96 L32.78,60.75 L33.44,61.52 L34.14,62.26 Z" fill="#22c0dd" stroke="#1e1e1e" stroke-width="1" stroke-linejoin="round"/><path d="M34.14,62.26 L34.88,62.97 L35.65,63.63 L36.45,64.24 L37.26,64.81 L38.10,65.33 L38.96,65.81 L39.83,66.24 L40.72,66.63 L41.62,66.97 L42.54,67.27 L43.47,67.52 L44.40,67.72 L45.35,67.88 L46.30,67.99 L47.25,68.06 L48.20,68.08 L49.16,68.06 L50.11,67.99 L51.06,67.88 L52.00,67.72 L52.94,67.52 L53.86,67.27 L54.78,66.97 L55.68,66.63 L56.57,66.24 L57.45,65.81 L58.30,65.33 L59.14,64.81 L59.96,64.24 L60.75,63.63 L61.52,62.97 L62.26,62.26 L62.97,61.52 L63.63,60.75 L64.24,59.96 L64.81,59.14 L65.33,58.30 L65.81,57.45 L66.24,56.57 L66.63,55.68 L66.97,54.78 L67.27,53.86 L67.52,52.94 L67.72,52.00 L67.88,51.06 L67.99,50.11 L68.06,49.16 L68.08,48.20 L68.06,47.25 L67.99,46.30 L67.88,45.35 L67.72,44.40 L67.52,43.47 L67.27,42.54 L66.97,41.62 L66.63,40.72 L66.24,39.83 L65.81,38.96 L65.33,38.10 L64.81,37.26 L64.24,36.45 L63.63,35.65 L62.97,34.88 L62.26,34.14 L61.52,33.44 L60.75,32.78 L59.96,32.16 L59.14,31.60 L58.30,31.07 L57.45,30.59 L56.57,30.16 L55.68,29.78 L54.78,29.43 L53.86,29.14 L52.94,28.89 L52.00,28.68 L51.06,28.52 L50.11,28.41 L49.16,28.34 L48.20,28.32 L47.25,28.34 L46.30,28.41 L45.35,28.52 L44.40,28.68 L43.47,28.89 L42.54,29.14 L41.62,29.43 L40.72,29.78 L39.83,30.16 L38.96,30.59 L38.10,31.07 L37.26,31.60 L36.45,32.16 L35.65,32.78 L34.88,33.44 L34.14,34.14 L33.44,34.88 L32.78,35.65 L32.16,36.45 L31.60,37.26 L31.07,38.10 L30.59,38.96 L30.16,39.83 L29.78,40.72 L29.43,41.62 L29.14,42.54 L28.89,43.47 L28.68,44.40 L28.52,45.35 L28.41,46.30 L28.34,47.25 L28.32,48.20 L28.34,49.16 L28.41,50.11 L28.52,51.06 L28.68,52.00 L28.89,52.94 L29.14,53.86 L29.43,54.78 L29.78,55.68 L30.16,56.57 L30.59,57.45 L31.07,58.30 L31.60,59.14 L32.16,59.96 L32.78,60.75 L33.44,61.52 L34.14,62.26 Z" fill="#0a6d97" stroke="#1e1e1e" stroke-width="1" stroke-linejoin="round" opacity="0.83"/><path d="M34.14,62.26 L34.88,62.97 L35.65,63.63 L36.45,64.24 L37.26,64.81 L38.10,65.33 L38.96,65.81 L39.83,66.24 L40.72,66.63 L41.62,66.97 L42.54,67.27 L43.47,67.52 L44.40,67.72 L45.35,67.88 L46.30,67.99 L47.25,68.06 L48.20,68.08 L49.16,68.06 L50.11,67.99 L51.06,67.88 L52.00,67.72 L52.94,67.52 L53.86,67.27 L54.78,66.97 L55.68,66.63 L56.57,66.24 L57.45,65.81 L58.30,65.33 L59.14,64.81 L59.96,64.24 L60.75,63.63 L61.52,62.97 L62.26,62.26 L62.97,61.52 L63.63,60.75 L64.24,59.96 L64.81,59.14 L65.33,58.30 L65.81,57.45 L66.24,56.57 L66.63,55.68 L66.97,54.78 L67.27,53.86 L67.52,52.94 L67.72,52.00 L67.88,51.06 L67.99,50.11 L68.06,49.16 L68.08,48.20 L68.06,47.25 L67.99,46.30 L67.88,45.35 L67.72,44.40 L67.52,43.47 L67.27,42.54 L66.97,41.62 L66.63,40.72 L66.24,39.83 L65.81,38.96 L65.33,38.10 L64.81,37.26 L64.24,36.45 L63.63,35.65 L62.97,34.88 L62.26,34.14 L61.52,33.44 L60.75,32.78 L59.96,32.16 L59.14,31.60 L58.30,31.07 L57.45,30.59 L56.57,30.16 L55.68,29.78 L54.78,29.43 L53.86,29.14 L52.94,28.89 L52.00,28.68 L51.06,28.52 L50.11,28.41 L49.16,28.34 L48.20,28.32 L47.25,28.34 L46.30,28.41 L45.35,28.52 L44.40,28.68 L43.47,28.89 L42.54,29.14 L41.62,29.43 L40.72,29.78 L39.83,30.16 L38.96,30.59 L38.10,31.07 L37.26,31.60 L36.45,32.16 L35.65,32.78 L34.88,33.44 L34.14,34.14 L33.44,34.88 L32.78,35.65 L32.16,36.45 L31.60,37.26 L31.07,38.10 L30.59,38.96 L30.16,39.83 L29.78,40.72 L29.43,41.62 L29.14,42.54 L28.89,43.47 L28.68,44.40 L28.52,45.35 L28.41,46.30 L28.34,47.25 L28.32,48.20 L28.34,49.16 L28.41,50.11 L28.52,51.06 L28.68,52.00 L28.89,52.94 L29.14,53.86 L29.43,54.78 L29.78,55.68 L30.16,56.57 L30.59,57.45 L31.07,58.30 L31.60,59.14 L32.16,59.96 L32.78,60.75 L33.44,61.52 L34.14,62.26 Z" fill="#0a6d97" stroke="#1e1e1e" stroke-width="1" stroke-linejoin="round" opacity="0.83"/><path d="M6.03,34.14 L34.14,6.03 L33.44,6.77 L32.78,7.54 L32.16,8.33 L31.60,9.14 L31.07,9.98 L30.59,10.84 L30.16,11.71 L29.78,12.60 L29.43,13.51 L29.14,14.42 L28.89,15.35 L28.68,16.29 L28.52,17.23 L28.41,18.18 L28.34,19.13 L28.32,20.08 L28.34,21.04 L28.41,21.99 L28.52,22.94 L28.68,23.88 L28.89,24.82 L29.14,25.74 L29.43,26.66 L29.78,27.57 L30.16,28.46 L30.59,29.33 L31.07,30.19 L31.60,31.02 L32.16,31.84 L32.78,32.63 L33.44,33.40 L34.14,34.14 L34.85,34.88 L35.51,35.65 L36.12,36.45 L36.69,37.26 L37.21,38.10 L37.69,38.96 L38.12,39.83 L38.51,40.72 L38.85,41.62 L39.15,42.54 L39.40,43.47 L39.60,44.40 L39.76,45.35 L39.88,46.30 L39.94,47.25 L39.97,48.20 L39.94,49.16 L39.88,50.11 L39.76,51.06 L39.60,52.00 L39.40,52.94 L39.15,53.86 L38.85,54.78 L38.51,55.68 L38.12,56.57 L37.69,57.45 L37.21,58.30 L36.69,59.14 L36.12,59.96 L35.51,60.75 L34.85,61.52 L34.14,62.26 L33.40,62.97 L32.63,63.63 L31.84,64.24 L31.02,64.81 L30.19,65.33 L29.33,65.81 L28.46,66.24 L27.57,66.63 L26.66,66.97 L25.74,67.27 L24.82,67.52 L23.88,67.72 L22.94,67.88 L21.99,67.99 L21.04,68.06 L20.08,68.08 L19.13,68.06 L18.18,67.99 L17.23,67.88 L16.29,67.72 L15.35,67.52 L14.42,67.27 L13.51,66.97 L12.60,66.63 L11.71,66.24 L10.84,65.81 L9.98,65.33 L9.14,64.81 L8.33,64.24 L7.54,63.63 L6.77,62.97 L6.03,62.26 L5.32,61.52 L4.66,60.75 L4.05,59.96 L3.48,59.14 L2.95,58.30 L2.48,57.45 L2.04,56.57 L1.66,55.68 L1.32,54.78 L1.02,53.86 L0.77,52.94 L0.57,52.00 L0.41,51.06 L0.29,50.11 L0.22,49.16 L0.20,48.20 L0.22,47.25 L0.29,46.30 L0.41,45.35 L0.57,44.40 L0.77,43.47 L1.02,42.54 L1.32,41.62 L1.66,40.72 L2.04,39.83 L2.48,38.96 L2.95,38.10 L3.48,37.26 L4.05,36.45 L4.66,35.65 L5.32,34.88 L6.03,34.14 Z" fill="#3aded3" stroke="#1e1e1e" stroke-width="1" stroke-linejoin="round"/><path d="M6.03,34.14 L34.14,6.03 L33.44,6.77 L32.78,7.54 L32.16,8.33 L31.60,9.14 L31.07,9.98 L30.59,10.84 L30.16,11.71 L29.78,12.60 L29.43,13.51 L29.14,14.42 L28.89,15.35 L28.68,16.29 L28.52,17.23 L28.41,18.18 L28.34,19.13 L28.32,20.08 L28.34,21.04 L28.41,21.99 L28.52,22.94 L28.68,23.88 L28.89,24.82 L29.14,25.74 L29.43,26.66 L29.78,27.57 L30.16,28.46 L30.59,29.33 L31.07,30.19 L31.60,31.02 L32.16,31.84 L32.78,32.63 L33.44,33.40 L34.14,34.14 L34.85,34.88 L35.51,35.65 L36.12,36.45 L36.69,37.26 L37.21,38.10 L37.69,38.96 L38.12,39.83 L38.51,40.72 L38.85,41.62 L39.15,42.54 L39.40,43.47 L39.60,44.40 L39.76,45.35 L39.88,46.30 L39.94,47.25 L39.97,48.20 L39.94,49.16 L39.88,50.11 L39.76,51.06 L39.60,52.00 L39.40,52.94 L39.15,53.86 L38.85,54.78 L38.51,55.68 L38.12,56.57 L37.69,57.45 L37.21,58.30 L36.69,59.14 L36.12,59.96 L35.51,60.75 L34.85,61.52 L34.14,62.26 L33.40,62.97 L32.63,63.63 L31.84,64.24 L31.02,64.81 L30.19,65.33 L29.33,65.81 L28.46,66.24 L27.57,66.63 L26.66,66.97 L25.74,67.27 L24.82,67.52 L23.88,67.72 L22.94,67.88 L21.99,67.99 L21.04,68.06 L20.08,68.08 L19.13,68.06 L18.18,67.99 L17.23,67.88 L16.29,67.72 L15.35,67.52 L14.42,67.27 L13.51,66.97 L12.60,66.63 L11.71,66.24 L10.84,65.81 L9.98,65.33 L9.14,64.81 L8.33,64.24 L7.54,63.63 L6.77,62.97 L6.03,62.26 L5.32,61.52 L4.66,60.75 L4.05,59.96 L3.48,59.14 L2.95,58.30 L2.48,57.45 L2.04,56.57 L1.66,55.68 L1.32,54.78 L1.02,53.86 L0.77,52.94 L0.57,52.00 L0.41,51.06 L0.29,50.11 L0.22,49.16 L0.20,48.20 L0.22,47.25 L0.29,46.30 L0.41,45.35 L0.57,44.40 L0.77,43.47 L1.02,42.54 L1.32,41.62 L1.66,40.72 L2.04,39.83 L2.48,38.96 L2.95,38.10 L3.48,37.26 L4.05,36.45 L4.66,35.65 L5.32,34.88 L6.03,34.14 Z" fill="#2bdabe" stroke="#1e1e1e" stroke-width="1" stroke-linejoin="round" opacity="0"/><path d="M90.38,62.26 L62.26,90.38 L62.97,89.64 L63.63,88.87 L64.24,88.08 L64.81,87.26 L65.33,86.42 L65.81,85.57 L66.24,84.69 L66.63,83.80 L66.97,82.90 L67.26,81.98 L67.52,81.05 L67.72,80.12 L67.88,79.17 L67.99,78.23 L68.06,77.27 L68.08,76.32 L68.06,75.37 L67.99,74.41 L67.88,73.47 L67.72,72.52 L67.52,71.59 L67.26,70.66 L66.97,69.74 L66.63,68.84 L66.24,67.95 L65.81,67.07 L65.33,66.22 L64.81,65.38 L64.24,64.56 L63.63,63.77 L62.97,63.00 L62.26,62.26 L61.56,61.52 L60.90,60.75 L60.28,59.96 L59.71,59.14 L59.19,58.30 L58.71,57.45 L58.28,56.57 L57.89,55.68 L57.55,54.78 L57.26,53.86 L57.01,52.94 L56.80,52.00 L56.64,51.06 L56.53,50.11 L56.46,49.16 L56.44,48.20 L56.46,47.25 L56.53,46.30 L56.64,45.35 L56.80,44.40 L57.01,43.47 L57.26,42.54 L57.55,41.62 L57.89,40.72 L58.28,39.83 L58.71,38.96 L59.19,38.10 L59.71,37.26 L60.28,36.45 L60.90,35.65 L61.56,34.88 L62.26,34.14 L63.00,33.44 L63.77,32.78 L64.56,32.16 L65.38,31.60 L66.22,31.07 L67.07,30.59 L67.95,30.16 L68.84,29.78 L69.74,29.43 L70.66,29.14 L71.59,28.89 L72.52,28.68 L73.47,28.52 L74.41,28.41 L75.37,28.34 L76.32,28.32 L77.27,28.34 L78.23,28.41 L79.17,28.52 L80.12,28.68 L81.05,28.89 L81.98,29.14 L82.90,29.43 L83.80,29.78 L84.69,30.16 L85.57,30.59 L86.42,31.07 L87.26,31.60 L88.08,32.16 L88.87,32.78 L89.64,33.44 L90.38,34.14 L91.08,34.88 L91.74,35.65 L92.36,36.45 L92.93,37.26 L93.45,38.10 L93.93,38.96 L94.36,39.83 L94.75,40.72 L95.09,41.62 L95.38,42.54 L95.63,43.47 L95.84,44.40 L96.00,45.35 L96.11,46.30 L96.18,47.25 L96.20,48.20 L96.18,49.16 L96.11,50.11 L96.00,51.06 L95.84,52.00 L95.63,52.94 L95.38,53.86 L95.09,54.78 L94.75,55.68 L94.36,56.57 L93.93,57.45 L93.45,58.30 L92.93,59.14 L92.36,59.96 L91.74,60.75 L91.08,61.52 L90.38,62.26 Z" fill="#1dc6d0" stroke="#1e1e1e" stroke-width="1" stroke-linejoin="round"/></svg>