<svg xmlns="http://www.w3.org/2000/svg" viewBox="-1.98 1.10 100.00 94.41"><path d="M40.95,90.58 L41.71,91.27 L42.52,91.86 L43.37,92.36 L44.26,92.78 L45.17,93.10 L46.11,93.33 L47.06,93.46 L48.02,93.51 L48.98,93.46 L49.93,93.33 L50.87,93.10 L51.79,92.78 L52.67,92.36 L53.53,91.86 L54.34,91.27 L55.10,90.58 L86.54,59.13 L63.43,36.02 L65.86,36.02 L65.83,34.59 L65.73,33.17 L65.58,31.77 L65.37,30.37 L65.10,28.98 L64.77,27.61 L64.38,26.26 L63.93,24.93 L63.43,23.61 L62.87,22.32 L62.26,21.05 L61.59,19.81 L60.87,18.59 L60.09,17.41 L59.27,16.25 L58.39,15.13 L57.46,14.05 L56.49,13.01 L55.48,12.02 L54.43,11.08 L53.34,10.18 L52.21,9.33 L51.05,8.53 L49.86,7.78 L48.64,7.08 L47.39,6.44 L46.11,5.85 L44.81,5.31 L43.48,4.83 L42.13,4.41 L40.75,4.04 L39.36,3.73 L37.96,3.48 L36.55,3.30 L35.14,3.17 L33.73,3.11 L32.32,3.10 L30.91,3.16 L29.51,3.28 L28.11,3.45 L26.72,3.69 L25.35,3.99 L23.98,4.34 L22.63,4.75 L21.30,5.22 L19.99,5.75 L18.69,6.34 L17.42,6.99 L16.18,7.68 L14.97,8.43 L13.80,9.23 L12.67,10.08 L11.58,10.97 L10.53,11.91 L9.52,12.89 L8.55,13.91 L7.63,14.97 L6.75,16.07 L5.92,17.21 L5.14,18.39 L4.41,19.60 L3.73,20.84 L3.10,22.11 L2.53,23.42 L2.01,24.75 L1.55,26.09 L1.16,27.45 L0.82,28.82 L0.54,30.21 L0.32,31.60 L0.16,33.00 L0.06,34.40 L0.02,35.81 L0.04,37.22 L0.12,38.62 L0.27,40.03 L0.47,41.42 L0.73,42.82 L1.05,44.20 L1.44,45.57 L1.75,46.53 L2.08,47.47 L2.44,48.41 L2.83,49.33 L3.25,50.23 L3.69,51.12 L4.16,52.00 L4.66,52.86 L5.73,54.53 L6.89,56.14 L8.15,57.67 L9.50,59.13 L9.50,59.13 L40.95,90.58 Z" fill="#1d4abb" stroke="#1e1e1e" stroke-width="1" stroke-linejoin="round"/><path d="M40.95,90.58 L41.71,91.27 L42.52,91.86 L43.37,92.36 L44.26,92.78 L45.17,93.10 L46.11,93.33 L47.06,93.46 L48.02,93.51 L48.98,93.46 L49.93,93.33 L50.87,93.10 L51.79,92.78 L52.67,92.36 L53.53,91.86 L54.34,91.27 L55.10,90.58 L86.54,59.13 L63.43,36.02 L65.86,36.02 L65.83,34.59 L65.73,33.17 L65.58,31.77 L65.37,30.37 L65.10,28.98 L64.77,27.61 L64.38,26.26 L63.93,24.93 L63.43,23.61 L62.87,22.32 L62.26,21.05 L61.59,19.81 L60.87,18.59 L60.09,17.41 L59.27,16.25 L58.39,15.13 L57.46,14.05 L56.49,13.01 L55.48,12.02 L54.43,11.08 L53.34,10.18 L52.21,9.33 L51.05,8.53 L49.86,7.78 L48.64,7.08 L47.39,6.44 L46.11,5.85 L44.81,5.31 L43.48,4.83 L42.13,4.41 L40.75,4.04 L39.36,3.73 L37.96,3.48 L36.55,3.30 L35.14,3.17 L33.73,3.11 L32.32,3.10 L30.91,3.16 L29.51,3.28 L28.11,3.45 L26.72,3.69 L25.35,3.99 L23.98,4.34 L22.63,4.75 L21.30,5.22 L19.99,5.75 L18.69,6.34 L17.42,6.99 L16.18,7.68 L14.97,8.43 L13.80,9.23 L12.67,10.08 L11.58,10.97 L10.53,11.91 L9.52,12.89 L8.55,13.91 L7.63,14.97 L6.75,16.07 L5.92,17.21 L5.14,18.39 L4.41,19.60 L3.73,20.84 L3.10,22.11 L2.53,23.42 L2.01,24.75 L1.55,26.09 L1.16,27.45 L0.82,28.82 L0.54,30.21 L0.32,31.60 L0.16,33.00 L0.06,34.40 L0.02,35.81 L0.04,37.22 L0.12,38.62 L0.27,40.03 L0.47,41.42 L0.73,42.82 L1.05,44.20 L1.44,45.57 L1.75,46.53 L2.08,47.47 L2.44,48.41 L2.83,49.33 L3.25,50.23 L3.69,51.12 L4.16,52.00 L4.66,52.86 L5.73,54.53 L6.89,56.14 L8.15,57.67 L9.50,59.13 L9.50,59.13 L40.95,90.58 Z" fill="#102784" stroke="#1e1e1e" stroke-width="1" stroke-linejoin="round"/><path d="M40.95,90.58 L41.71,91.27 L42.52,91.86 L43.37,92.36 L44.26,92.78 L45.17,93.10 L46.11,93.33 L47.06,93.46 L48.02,93.51 L48.98,93.46 L49.93,93.33 L50.87,93.10 L51.79,92.78 L52.67,92.36 L53.53,91.86 L54.34,91.27 L55.10,90.58 L86.54,59.13 L63.43,36.02 L65.86,36.02 L65.83,34.59 L65.73,33.17 L65.58,31.77 L65.37,30.37 L65.10,28.98 L64.77,27.61 L64.38,26.26 L63.93,24.93 L63.43,23.61 L62.87,22.32 L62.26,21.05 L61.59,19.81 L60.87,18.59 L60.09,17.41 L59.27,16.25 L58.39,15.13 L57.46,14.05 L56.49,13.01 L55.48,12.02 L54.43,11.08 L53.34,10.18 L52.21,9.33 L51.05,8.53 L49.86,7.78 L48.64,7.08 L47.39,6.44 L46.11,5.85 L44.81,5.31 L43.48,4.83 L42.13,4.41 L40.75,4.04 L39.36,3.73 L37.96,3.48 L36.55,3.30 L35.14,3.17 L33.73,3.11 L32.32,3.10 L30.91,3.16 L29.51,3.28 L28.11,3.45 L26.72,3.69 L25.35,3.99 L23.98,4.34 L22.63,4.75 L21.30,5.22 L19.99,5.75 L18.69,6.34 L17.42,6.99 L16.18,7.68 L14.97,8.43 L13.80,9.23 L12.67,10.08 L11.58,10.97 L10.53,11.91 L9.52,12.89 L8.55,13.91 L7.63,14.97 L6.75,16.07 L5.92,17.21 L5.14,18.39 L4.41,19.60 L3.73,20.84 L3.10,22.11 L2.53,23.42 L2.01,24.75 L1.55,26.09 L1.16,27.45 L0.82,28.82 L0.54,30.21 L0.32,31.60 L0.16,33.00 L0.06,34.40 L0.02,35.81 L0.04,37.22 L0.12,38.62 L0.27,40.03 L0.47,41.42 L0.73,42.82 L1.05,44.20 L1.44,45.57 L1.75,46.53 L2.08,47.47 L2.44,48.41 L2.83,49.33 L3.25,50.23 L3.69,51.12 L4.16,52.00 L4.66,52.86 L5.73,54.53 L6.89,56.14 L8.15,57.67 L9.50,59.13 L9.50,59.13 L40.95,90.58 Z" fill="#163697" stroke="#1e1e1e" stroke-width="1" stroke-linejoin="round"/><path d="M94.61,26.46 L94.16,25.11 L93.66,23.78 L93.11,22.47 L92.50,21.20 L91.84,19.95 L91.12,18.74 L90.36,17.56 L89.54,16.41 L88.68,15.30 L87.77,14.22 L86.82,13.19 L85.82,12.19 L84.77,11.24 L83.69,10.33 L82.56,9.47 L81.39,8.65 L80.19,7.88 L78.96,7.17 L77.71,6.52 L76.43,5.92 L75.13,5.37 L73.80,4.89 L72.46,4.46 L71.10,4.09 L69.73,3.77 L68.35,3.52 L66.95,3.33 L65.55,3.19 L64.14,3.12 L62.72,3.10 L61.30,3.15 L59.88,3.26 L58.33,3.45 L56.79,3.71 L55.27,4.05 L53.77,4.46 L52.29,4.93 L50.84,5.47 L49.42,6.08 L48.03,6.76 L48.95,7.25 L49.85,7.77 L50.73,8.32 L51.59,8.90 L52.44,9.50 L53.27,10.13 L54.07,10.78 L54.86,11.46 L55.62,12.16 L56.36,12.89 L57.08,13.64 L57.78,14.41 L58.45,15.21 L59.09,16.03 L59.71,16.87 L60.31,17.73 L60.97,18.75 L61.59,19.80 L62.16,20.87 L62.70,21.95 L63.20,23.06 L63.65,24.18 L64.07,25.31 L64.44,26.46 L64.77,27.62 L65.06,28.80 L65.30,29.98 L65.50,31.17 L65.66,32.37 L65.77,33.58 L65.83,34.80 L65.86,36.02 L63.11,36.02 L63.11,36.02 L32.94,36.02 L32.94,36.02 L30.19,36.02 L30.22,37.44 L30.31,38.86 L30.47,40.27 L30.68,41.66 L30.95,43.05 L31.28,44.42 L31.67,45.77 L32.12,47.11 L32.62,48.42 L33.18,49.71 L33.79,50.98 L34.46,52.22 L35.18,53.44 L35.95,54.62 L36.78,55.78 L37.66,56.90 L38.59,57.98 L39.56,59.02 L40.57,60.01 L41.62,60.95 L42.71,61.85 L43.84,62.70 L44.99,63.50 L46.19,64.25 L47.41,64.95 L48.66,65.59 L49.94,66.18 L51.24,66.72 L52.57,67.20 L53.92,67.62 L55.29,67.99 L56.69,68.30 L58.09,68.55 L59.50,68.73 L60.91,68.86 L62.32,68.92 L63.73,68.93 L65.14,68.87 L66.54,68.75 L67.94,68.58 L69.32,68.34 L70.70,68.04 L72.06,67.69 L73.41,67.28 L74.75,66.81 L76.06,66.28 L77.35,65.69 L78.62,65.05 L79.87,64.35 L81.07,63.60 L82.24,62.80 L83.37,61.95 L84.47,61.06 L85.52,60.12 L86.53,59.14 L87.50,58.12 L88.42,57.06 L89.30,55.96 L90.12,54.82 L90.91,53.64 L91.64,52.43 L92.32,51.19 L92.94,49.92 L93.52,48.61 L94.03,47.29 L94.49,45.94 L94.89,44.58 L95.23,43.21 L95.51,41.83 L95.73,40.43 L95.88,39.04 L95.98,37.63 L96.02,36.23 L96.00,34.82 L95.92,33.41 L95.78,32.01 L95.58,30.61 L95.31,29.22 L94.99,27.83 L94.61,26.46 Z" fill="#12a6fc" stroke="#1e1e1e" stroke-width="1" stroke-linejoin="round"/><path d="M94.61,26.46 L94.16,25.11 L93.66,23.78 L93.11,22.47 L92.50,21.20 L91.84,19.95 L91.12,18.74 L90.36,17.56 L89.54,16.41 L88.68,15.30 L87.77,14.22 L86.82,13.19 L85.82,12.19 L84.77,11.24 L83.69,10.33 L82.56,9.47 L81.39,8.65 L80.19,7.88 L78.96,7.17 L77.71,6.52 L76.43,5.92 L75.13,5.37 L73.80,4.89 L72.46,4.46 L71.10,4.09 L69.73,3.77 L68.35,3.52 L66.95,3.33 L65.55,3.19 L64.14,3.12 L62.72,3.10 L61.30,3.15 L59.88,3.26 L58.33,3.45 L56.79,3.71 L55.27,4.05 L53.77,4.46 L52.29,4.93 L50.84,5.47 L49.42,6.08 L48.03,6.76 L48.95,7.25 L49.85,7.77 L50.73,8.32 L51.59,8.90 L52.44,9.50 L53.27,10.13 L54.07,10.78 L54.86,11.46 L55.62,12.16 L56.36,12.89 L57.08,13.64 L57.78,14.41 L58.45,15.21 L59.09,16.03 L59.71,16.87 L60.31,17.73 L60.97,18.75 L61.59,19.80 L62.16,20.87 L62.70,21.95 L63.20,23.06 L63.65,24.18 L64.07,25.31 L64.44,26.46 L64.77,27.62 L65.06,28.80 L65.30,29.98 L65.50,31.17 L65.66,32.37 L65.77,33.58 L65.83,34.80 L65.86,36.02 L63.11,36.02 L63.11,36.02 L32.94,36.02 L32.94,36.02 L30.19,36.02 L30.22,37.44 L30.31,38.86 L30.47,40.27 L30.68,41.66 L30.95,43.05 L31.28,44.42 L31.67,45.77 L32.12,47.11 L32.62,48.42 L33.18,49.71 L33.79,50.98 L34.46,52.22 L35.18,53.44 L35.95,54.62 L36.78,55.78 L37.66,56.90 L38.59,57.98 L39.56,59.02 L40.57,60.01 L41.62,60.95 L42.71,61.85 L43.84,62.70 L44.99,63.50 L46.19,64.25 L47.41,64.95 L48.66,65.59 L49.94,66.18 L51.24,66.72 L52.57,67.20 L53.92,67.62 L55.29,67.99 L56.69,68.30 L58.09,68.55 L59.50,68.73 L60.91,68.86 L62.32,68.92 L63.73,68.93 L65.14,68.87 L66.54,68.75 L67.94,68.58 L69.32,68.34 L70.70,68.04 L72.06,67.69 L73.41,67.28 L74.75,66.81 L76.06,66.28 L77.35,65.69 L78.62,65.05 L79.87,64.35 L81.07,63.60 L82.24,62.80 L83.37,61.95 L84.47,61.06 L85.52,60.12 L86.53,59.14 L87.50,58.12 L88.42,57.06 L89.30,55.96 L90.12,54.82 L90.91,53.64 L91.64,52.43 L92.32,51.19 L92.94,49.92 L93.52,48.61 L94.03,47.29 L94.49,45.94 L94.89,44.58 L95.23,43.21 L95.51,41.83 L95.73,40.43 L95.88,39.04 L95.98,37.63 L96.02,36.23 L96.00,34.82 L95.92,33.41 L95.78,32.01 L95.58,30.61 L95.31,29.22 L94.99,27.83 L94.61,26.46 Z" fill="#163697" stroke="#1e1e1e" stroke-width="1" stroke-linejoin="round" opacity="0.6"/><path d="M35.41,23.41 L36.08,22.78 L36.77,22.18 L37.48,21.63 L38.21,21.12 L38.96,20.65 L39.73,20.23 L40.51,19.84 L41.31,19.49 L42.12,19.19 L42.94,18.92 L43.77,18.70 L44.61,18.51 L45.46,18.37 L46.31,18.27 L47.16,18.21 L48.02,18.19 L48.87,18.21 L49.73,18.27 L50.58,18.37 L51.42,18.51 L52.26,18.70 L53.10,18.92 L53.92,19.19 L54.73,19.49 L55.53,19.84 L56.31,20.23 L57.08,20.65 L57.83,21.12 L58.56,21.63 L59.27,22.18 L59.96,22.78 L60.63,23.41 L61.26,24.07 L61.85,24.76 L62.40,25.47 L62.91,26.21 L63.38,26.96 L63.81,27.72 L64.20,28.51 L64.54,29.31 L64.85,30.12 L65.11,30.94 L65.34,31.77 L65.52,32.61 L65.67,33.46 L65.77,34.31 L65.83,35.16 L65.85,36.02 L65.83,36.87 L65.77,37.72 L65.67,38.58 L65.52,39.42 L65.34,40.26 L65.11,41.09 L64.85,41.91 L64.54,42.73 L64.20,43.52 L63.81,44.31 L63.38,45.08 L62.91,45.83 L62.40,46.56 L61.85,47.27 L61.26,47.96 L60.63,48.62 L59.96,49.26 L59.27,49.85 L58.56,50.40 L57.83,50.91 L57.08,51.38 L56.31,51.81 L55.53,52.19 L54.73,52.54 L53.92,52.85 L53.10,53.11 L52.26,53.34 L51.42,53.52 L50.58,53.66 L49.73,53.76 L48.87,53.83 L48.02,53.85 L47.16,53.83 L46.31,53.76 L45.46,53.66 L44.61,53.52 L43.77,53.34 L42.94,53.11 L42.12,52.85 L41.31,52.54 L40.51,52.19 L39.73,51.81 L38.96,51.38 L38.21,50.91 L37.48,50.40 L36.77,49.85 L36.08,49.26 L35.41,48.62 L34.78,47.96 L34.19,47.27 L33.64,46.56 L33.13,45.83 L32.66,45.08 L32.23,44.31 L31.84,43.52 L31.50,42.73 L31.19,41.91 L30.92,41.09 L30.70,40.26 L30.52,39.42 L30.37,38.58 L30.27,37.72 L30.21,36.87 L30.19,36.02 L30.21,35.16 L30.27,34.31 L30.37,33.46 L30.52,32.61 L30.70,31.77 L30.92,30.94 L31.19,30.12 L31.50,29.31 L31.84,28.51 L32.23,27.72 L32.66,26.96 L33.13,26.21 L33.64,25.47 L34.19,24.76 L34.78,24.07 L35.41,23.41 Z" fill="#60def8" stroke="#1e1e1e" stroke-width="1" stroke-linejoin="round"/></svg>