<svg xmlns="http://www.w3.org/2000/svg" viewBox="36.47 -1.74 465.10 515.51"><path d="M205.33,188.07 L207.10,186.48 L208.98,185.09 L210.97,183.92 L213.03,182.95 L215.16,182.21 L217.35,181.67 L219.56,181.35 L221.79,181.25 L224.03,181.35 L226.24,181.67 L228.42,182.20 L230.56,182.95 L232.62,183.91 L234.61,185.08 L236.49,186.46 L238.26,188.06 L419.83,369.50 L316.93,472.40 L311.92,477.17 L306.73,481.62 L301.37,485.78 L295.85,489.62 L290.19,493.16 L284.41,496.38 L278.50,499.31 L272.48,501.92 L266.37,504.23 L260.17,506.23 L253.91,507.92 L247.58,509.30 L241.21,510.38 L234.80,511.15 L228.36,511.61 L221.91,511.76 L215.47,511.61 L209.03,511.15 L202.62,510.38 L196.25,509.31 L189.92,507.92 L183.65,506.23 L177.46,504.24 L171.35,501.93 L165.33,499.32 L159.42,496.40 L153.63,493.17 L147.97,489.64 L142.45,485.79 L137.09,481.64 L131.90,477.19 L126.89,472.42 L48.71,394.28 L46.31,391.63 L44.23,388.81 L42.47,385.83 L41.03,382.74 L39.92,379.54 L39.11,376.27 L38.63,372.94 L38.47,369.60 L38.63,366.25 L39.11,362.93 L39.91,359.65 L41.02,356.46 L42.46,353.36 L44.22,350.38 L46.29,347.55 L48.69,344.90 L205.33,188.07 Z" fill="#6444d2" stroke="#1e1e1e" stroke-width="1" stroke-linejoin="round"/><path d="M205.33,188.07 L207.10,186.48 L208.98,185.09 L210.97,183.92 L213.03,182.95 L215.16,182.21 L217.35,181.67 L219.56,181.35 L221.79,181.25 L224.03,181.35 L226.24,181.67 L228.42,182.20 L230.56,182.95 L232.62,183.91 L234.61,185.08 L236.49,186.46 L238.26,188.06 L419.83,369.50 L316.93,472.40 L311.92,477.17 L306.73,481.62 L301.37,485.78 L295.85,489.62 L290.19,493.16 L284.41,496.38 L278.50,499.31 L272.48,501.92 L266.37,504.23 L260.17,506.23 L253.91,507.92 L247.58,509.30 L241.21,510.38 L234.80,511.15 L228.36,511.61 L221.91,511.76 L215.47,511.61 L209.03,511.15 L202.62,510.38 L196.25,509.31 L189.92,507.92 L183.65,506.23 L177.46,504.24 L171.35,501.93 L165.33,499.32 L159.42,496.40 L153.63,493.17 L147.97,489.64 L142.45,485.79 L137.09,481.64 L131.90,477.19 L126.89,472.42 L48.71,394.28 L46.31,391.63 L44.23,388.81 L42.47,385.83 L41.03,382.74 L39.92,379.54 L39.11,376.27 L38.63,372.94 L38.47,369.60 L38.63,366.25 L39.11,362.93 L39.91,359.65 L41.02,356.46 L42.46,353.36 L44.22,350.38 L46.29,347.55 L48.69,344.90 L205.33,188.07 Z" fill="#3d35b1" stroke="#1e1e1e" stroke-width="1" stroke-linejoin="round"/><path d="M205.33,188.07 L207.10,186.48 L208.98,185.09 L210.97,183.92 L213.03,182.95 L215.16,182.21 L217.35,181.67 L219.56,181.35 L221.79,181.25 L224.03,181.35 L226.24,181.67 L228.42,182.20 L230.56,182.95 L232.62,183.91 L234.61,185.08 L236.49,186.46 L238.26,188.06 L419.83,369.50 L316.93,472.40 L311.92,477.17 L306.73,481.62 L301.37,485.78 L295.85,489.62 L290.19,493.16 L284.41,496.38 L278.50,499.31 L272.48,501.92 L266.37,504.23 L260.17,506.23 L253.91,507.92 L247.58,509.30 L241.21,510.38 L234.80,511.15 L228.36,511.61 L221.91,511.76 L215.47,511.61 L209.03,511.15 L202.62,510.38 L196.25,509.31 L189.92,507.92 L183.65,506.23 L177.46,504.24 L171.35,501.93 L165.33,499.32 L159.42,496.40 L153.63,493.17 L147.97,489.64 L142.45,485.79 L137.09,481.64 L131.90,477.19 L126.89,472.42 L48.71,394.28 L46.31,391.63 L44.23,388.81 L42.47,385.83 L41.03,382.74 L39.92,379.54 L39.11,376.27 L38.63,372.94 L38.47,369.60 L38.63,366.25 L39.11,362.93 L39.91,359.65 L41.02,356.46 L42.46,353.36 L44.22,350.38 L46.29,347.55 L48.69,344.90 L205.33,188.07 Z" fill="#3d35b1" stroke="#1e1e1e" stroke-width="1" stroke-linejoin="round"/><path d="M419.83,142.49 L475.71,198.38 L478.60,201.42 L481.30,204.57 L483.82,207.82 L486.15,211.16 L488.30,214.60 L490.25,218.11 L492.03,221.69 L493.61,225.34 L495.01,229.04 L496.22,232.80 L497.25,236.60 L498.09,240.44 L498.74,244.30 L499.20,248.19 L499.48,252.09 L499.58,256.00 L499.48,259.91 L499.20,263.81 L498.74,267.70 L498.08,271.57 L497.25,275.40 L496.22,279.20 L495.01,282.96 L493.61,286.67 L492.02,290.32 L490.25,293.90 L488.29,297.41 L486.15,300.84 L483.82,304.19 L481.30,307.44 L478.60,310.58 L475.71,313.62 L358.71,430.62 L362.20,427.13 L365.09,424.09 L367.80,420.94 L370.31,417.69 L372.64,414.34 L374.79,410.91 L376.75,407.40 L378.52,403.82 L380.10,400.17 L381.50,396.46 L382.71,392.71 L383.74,388.90 L384.58,385.07 L385.23,381.20 L385.70,377.31 L385.98,373.41 L386.07,369.50 L385.98,365.59 L385.70,361.69 L385.23,357.80 L384.58,353.94 L383.74,350.10 L382.71,346.30 L381.50,342.54 L380.10,338.84 L378.52,335.19 L376.74,331.61 L374.79,328.09 L372.64,324.66 L370.31,321.32 L367.79,318.07 L365.09,314.92 L362.20,311.88 L306.32,256.00 L419.83,142.49 Z" fill="#9360ee" stroke="#1e1e1e" stroke-width="1" stroke-linejoin="round"/><path d="M419.83,142.49 L475.71,198.38 L478.60,201.42 L481.30,204.57 L483.82,207.82 L486.15,211.16 L488.30,214.60 L490.25,218.11 L492.03,221.69 L493.61,225.34 L495.01,229.04 L496.22,232.80 L497.25,236.60 L498.09,240.44 L498.74,244.30 L499.20,248.19 L499.48,252.09 L499.58,256.00 L499.48,259.91 L499.20,263.81 L498.74,267.70 L498.08,271.57 L497.25,275.40 L496.22,279.20 L495.01,282.96 L493.61,286.67 L492.02,290.32 L490.25,293.90 L488.29,297.41 L486.15,300.84 L483.82,304.19 L481.30,307.44 L478.60,310.58 L475.71,313.62 L358.71,430.62 L362.20,427.13 L365.09,424.09 L367.80,420.94 L370.31,417.69 L372.64,414.34 L374.79,410.91 L376.75,407.40 L378.52,403.82 L380.10,400.17 L381.50,396.46 L382.71,392.71 L383.74,388.90 L384.58,385.07 L385.23,381.20 L385.70,377.31 L385.98,373.41 L386.07,369.50 L385.98,365.59 L385.70,361.69 L385.23,357.80 L384.58,353.94 L383.74,350.10 L382.71,346.30 L381.50,342.54 L380.10,338.84 L378.52,335.19 L376.74,331.61 L374.79,328.09 L372.64,324.66 L370.31,321.32 L367.79,318.07 L365.09,314.92 L362.20,311.88 L306.32,256.00 L419.83,142.49 Z" fill="#8b52f4" stroke="#1e1e1e" stroke-width="1" stroke-linejoin="round"/><path d="M126.88,39.62 L131.90,34.85 L137.09,30.39 L142.45,26.24 L147.97,22.40 L153.63,18.86 L159.42,15.63 L165.33,12.71 L171.34,10.10 L177.46,7.79 L183.65,5.79 L189.92,4.10 L196.25,2.72 L202.62,1.64 L209.04,0.87 L215.47,0.41 L221.92,0.26 L228.37,0.41 L234.80,0.87 L241.21,1.64 L247.59,2.72 L253.92,4.10 L260.18,5.79 L266.38,7.79 L272.49,10.10 L278.51,12.71 L284.42,15.63 L290.21,18.86 L295.87,22.40 L301.39,26.24 L306.75,30.39 L311.94,34.85 L316.95,39.62 L486.76,209.43 L477.45,200.12 L474.41,197.22 L471.26,194.52 L468.01,192.00 L464.66,189.67 L461.23,187.53 L457.72,185.57 L454.14,183.80 L450.49,182.21 L446.78,180.82 L443.03,179.60 L439.23,178.58 L435.39,177.74 L431.52,177.09 L427.64,176.62 L423.73,176.34 L419.82,176.25 L415.92,176.34 L412.01,176.62 L408.13,177.09 L404.26,177.74 L400.42,178.58 L396.62,179.60 L392.87,180.82 L389.16,182.21 L385.51,183.80 L381.93,185.57 L378.42,187.53 L374.99,189.67 L371.64,192.00 L368.39,194.52 L365.24,197.22 L362.20,200.12 L246.61,315.70 L243.96,318.10 L241.14,320.18 L238.16,321.94 L235.06,323.38 L231.86,324.49 L228.59,325.29 L225.27,325.77 L221.92,325.93 L218.57,325.77 L215.25,325.29 L211.97,324.49 L208.78,323.38 L205.68,321.94 L202.70,320.18 L199.88,318.10 L197.22,315.70 L48.71,167.19 L46.31,164.54 L44.23,161.71 L42.47,158.73 L41.04,155.63 L39.92,152.44 L39.12,149.16 L38.64,145.84 L38.48,142.49 L38.64,139.14 L39.12,135.82 L39.92,132.55 L41.04,129.35 L42.47,126.25 L44.23,123.28 L46.31,120.45 L48.71,117.80 L126.88,39.62 Z" fill="#d4aefc" stroke="#1e1e1e" stroke-width="1" stroke-linejoin="round"/><path d="M126.88,39.62 L131.90,34.85 L137.09,30.39 L142.45,26.24 L147.97,22.40 L153.63,18.86 L159.42,15.63 L165.33,12.71 L171.34,10.10 L177.46,7.79 L183.65,5.79 L189.92,4.10 L196.25,2.72 L202.62,1.64 L209.04,0.87 L215.47,0.41 L221.92,0.26 L228.37,0.41 L234.80,0.87 L241.21,1.64 L247.59,2.72 L253.92,4.10 L260.18,5.79 L266.38,7.79 L272.49,10.10 L278.51,12.71 L284.42,15.63 L290.21,18.86 L295.87,22.40 L301.39,26.24 L306.75,30.39 L311.94,34.85 L316.95,39.62 L486.76,209.43 L477.45,200.12 L474.41,197.22 L471.26,194.52 L468.01,192.00 L464.66,189.67 L461.23,187.53 L457.72,185.57 L454.14,183.80 L450.49,182.21 L446.78,180.82 L443.03,179.60 L439.23,178.58 L435.39,177.74 L431.52,177.09 L427.64,176.62 L423.73,176.34 L419.82,176.25 L415.92,176.34 L412.01,176.62 L408.13,177.09 L404.26,177.74 L400.42,178.58 L396.62,179.60 L392.87,180.82 L389.16,182.21 L385.51,183.80 L381.93,185.57 L378.42,187.53 L374.99,189.67 L371.64,192.00 L368.39,194.52 L365.24,197.22 L362.20,200.12 L246.61,315.70 L243.96,318.10 L241.14,320.18 L238.16,321.94 L235.06,323.38 L231.86,324.49 L228.59,325.29 L225.27,325.77 L221.92,325.93 L218.57,325.77 L215.25,325.29 L211.97,324.49 L208.78,323.38 L205.68,321.94 L202.70,320.18 L199.88,318.10 L197.22,315.70 L48.71,167.19 L46.31,164.54 L44.23,161.71 L42.47,158.73 L41.04,155.63 L39.92,152.44 L39.12,149.16 L38.64,145.84 L38.48,142.49 L38.64,139.14 L39.12,135.82 L39.92,132.55 L41.04,129.35 L42.47,126.25 L44.23,123.28 L46.31,120.45 L48.71,117.80 L126.88,39.62 Z" fill="#e6bef2" stroke="#1e1e1e" stroke-width="1" stroke-linejoin="round"/><path d="M197.22,196.29 L199.87,193.90 L202.70,191.82 L205.68,190.06 L208.78,188.62 L211.97,187.50 L215.25,186.70 L218.57,186.22 L221.92,186.06 L225.27,186.22 L228.59,186.70 L231.86,187.50 L235.06,188.62 L238.16,190.06 L241.14,191.82 L243.96,193.90 L246.61,196.29 L306.32,256.00 L246.61,315.71 L243.96,318.10 L241.13,320.18 L238.16,321.94 L235.06,323.38 L231.86,324.50 L228.59,325.30 L225.27,325.78 L221.92,325.94 L218.57,325.78 L215.25,325.30 L211.98,324.50 L208.78,323.38 L205.68,321.94 L202.70,320.18 L199.88,318.10 L197.22,315.71 L137.52,256.00 L197.22,196.29 Z" fill="#ac81fe" stroke="#1e1e1e" stroke-width="1" stroke-linejoin="round"/></svg>