<svg xmlns="http://www.w3.org/2000/svg" viewBox="5.22 -1.95 90.54 100.00"><path d="M38.54,35.30 L38.87,35.00 L39.22,34.74 L39.59,34.52 L39.98,34.34 L40.38,34.20 L40.79,34.10 L41.21,34.04 L41.63,34.02 L42.05,34.04 L42.46,34.10 L42.87,34.20 L43.27,34.34 L43.66,34.52 L44.03,34.74 L44.39,35.00 L44.72,35.30 L78.79,69.35 L59.48,88.66 L58.54,89.55 L57.57,90.39 L56.56,91.17 L55.53,91.89 L54.46,92.56 L53.38,93.16 L52.27,93.71 L51.14,94.20 L49.99,94.63 L48.83,95.01 L47.65,95.33 L46.47,95.59 L45.27,95.79 L44.07,95.93 L42.86,96.02 L41.65,96.05 L40.44,96.02 L39.23,95.93 L38.03,95.79 L36.83,95.59 L35.64,95.33 L34.47,95.01 L33.31,94.64 L32.16,94.20 L31.03,93.71 L29.92,93.16 L28.83,92.56 L27.77,91.90 L26.74,91.17 L25.73,90.40 L24.76,89.56 L23.81,88.66 L9.14,74.00 L8.69,73.50 L8.30,72.97 L7.97,72.41 L7.70,71.83 L7.49,71.23 L7.34,70.62 L7.25,69.99 L7.22,69.37 L7.25,68.74 L7.34,68.11 L7.49,67.50 L7.70,66.90 L7.97,66.32 L8.30,65.76 L8.69,65.23 L9.14,64.73 L38.54,35.30 Z" fill="#6444d2" stroke="#1e1e1e" stroke-width="1" stroke-linejoin="round"/><path d="M38.54,35.30 L38.87,35.00 L39.22,34.74 L39.59,34.52 L39.98,34.34 L40.38,34.20 L40.79,34.10 L41.21,34.04 L41.63,34.02 L42.05,34.04 L42.46,34.10 L42.87,34.20 L43.27,34.34 L43.66,34.52 L44.03,34.74 L44.39,35.00 L44.72,35.30 L78.79,69.35 L59.48,88.66 L58.54,89.55 L57.57,90.39 L56.56,91.17 L55.53,91.89 L54.46,92.56 L53.38,93.16 L52.27,93.71 L51.14,94.20 L49.99,94.63 L48.83,95.01 L47.65,95.33 L46.47,95.59 L45.27,95.79 L44.07,95.93 L42.86,96.02 L41.65,96.05 L40.44,96.02 L39.23,95.93 L38.03,95.79 L36.83,95.59 L35.64,95.33 L34.47,95.01 L33.31,94.64 L32.16,94.20 L31.03,93.71 L29.92,93.16 L28.83,92.56 L27.77,91.90 L26.74,91.17 L25.73,90.40 L24.76,89.56 L23.81,88.66 L9.14,74.00 L8.69,73.50 L8.30,72.97 L7.97,72.41 L7.70,71.83 L7.49,71.23 L7.34,70.62 L7.25,69.99 L7.22,69.37 L7.25,68.74 L7.34,68.11 L7.49,67.50 L7.70,66.90 L7.97,66.32 L8.30,65.76 L8.69,65.23 L9.14,64.73 L38.54,35.30 Z" fill="#3d35b1" stroke="#1e1e1e" stroke-width="1" stroke-linejoin="round" opacity="0.83"/><path d="M38.54,35.30 L38.87,35.00 L39.22,34.74 L39.59,34.52 L39.98,34.34 L40.38,34.20 L40.79,34.10 L41.21,34.04 L41.63,34.02 L42.05,34.04 L42.46,34.10 L42.87,34.20 L43.27,34.34 L43.66,34.52 L44.03,34.74 L44.39,35.00 L44.72,35.30 L78.79,69.35 L59.48,88.66 L58.54,89.55 L57.57,90.39 L56.56,91.17 L55.53,91.89 L54.46,92.56 L53.38,93.16 L52.27,93.71 L51.14,94.20 L49.99,94.63 L48.83,95.01 L47.65,95.33 L46.47,95.59 L45.27,95.79 L44.07,95.93 L42.86,96.02 L41.65,96.05 L40.44,96.02 L39.23,95.93 L38.03,95.79 L36.83,95.59 L35.64,95.33 L34.47,95.01 L33.31,94.64 L32.16,94.20 L31.03,93.71 L29.92,93.16 L28.83,92.56 L27.77,91.90 L26.74,91.17 L25.73,90.40 L24.76,89.56 L23.81,88.66 L9.14,74.00 L8.69,73.50 L8.30,72.97 L7.97,72.41 L7.70,71.83 L7.49,71.23 L7.34,70.62 L7.25,69.99 L7.22,69.37 L7.25,68.74 L7.34,68.11 L7.49,67.50 L7.70,66.90 L7.97,66.32 L8.30,65.76 L8.69,65.23 L9.14,64.73 L38.54,35.30 Z" fill="#3d35b1" stroke="#1e1e1e" stroke-width="1" stroke-linejoin="round" opacity="0.5"/><path d="M78.79,26.74 L89.28,37.23 L89.82,37.80 L90.33,38.39 L90.80,39.00 L91.24,39.63 L91.64,40.28 L92.01,40.93 L92.34,41.61 L92.64,42.29 L92.90,42.99 L93.13,43.69 L93.32,44.41 L93.48,45.13 L93.60,45.85 L93.69,46.58 L93.74,47.31 L93.76,48.05 L93.74,48.78 L93.69,49.51 L93.60,50.24 L93.48,50.97 L93.32,51.69 L93.13,52.40 L92.90,53.11 L92.64,53.80 L92.34,54.49 L92.01,55.16 L91.64,55.82 L91.24,56.46 L90.80,57.09 L90.33,57.70 L89.82,58.29 L89.28,58.86 L67.32,80.82 L67.98,80.16 L68.52,79.59 L69.03,79.00 L69.50,78.39 L69.94,77.76 L70.34,77.12 L70.71,76.46 L71.04,75.79 L71.34,75.10 L71.60,74.41 L71.83,73.70 L72.02,72.99 L72.18,72.27 L72.30,71.54 L72.39,70.81 L72.44,70.08 L72.46,69.35 L72.44,68.61 L72.39,67.88 L72.30,67.15 L72.18,66.43 L72.02,65.71 L71.83,64.99 L71.60,64.29 L71.34,63.59 L71.04,62.91 L70.71,62.24 L70.34,61.58 L69.94,60.93 L69.50,60.31 L69.03,59.70 L68.52,59.10 L67.98,58.53 L57.49,48.05 L78.79,26.74 Z" fill="#9360ee" stroke="#1e1e1e" stroke-width="1" stroke-linejoin="round"/><path d="M78.79,26.74 L89.28,37.23 L89.82,37.80 L90.33,38.39 L90.80,39.00 L91.24,39.63 L91.64,40.28 L92.01,40.93 L92.34,41.61 L92.64,42.29 L92.90,42.99 L93.13,43.69 L93.32,44.41 L93.48,45.13 L93.60,45.85 L93.69,46.58 L93.74,47.31 L93.76,48.05 L93.74,48.78 L93.69,49.51 L93.60,50.24 L93.48,50.97 L93.32,51.69 L93.13,52.40 L92.90,53.11 L92.64,53.80 L92.34,54.49 L92.01,55.16 L91.64,55.82 L91.24,56.46 L90.80,57.09 L90.33,57.70 L89.82,58.29 L89.28,58.86 L67.32,80.82 L67.98,80.16 L68.52,79.59 L69.03,79.00 L69.50,78.39 L69.94,77.76 L70.34,77.12 L70.71,76.46 L71.04,75.79 L71.34,75.10 L71.60,74.41 L71.83,73.70 L72.02,72.99 L72.18,72.27 L72.30,71.54 L72.39,70.81 L72.44,70.08 L72.46,69.35 L72.44,68.61 L72.39,67.88 L72.30,67.15 L72.18,66.43 L72.02,65.71 L71.83,64.99 L71.60,64.29 L71.34,63.59 L71.04,62.91 L70.71,62.24 L70.34,61.58 L69.94,60.93 L69.50,60.31 L69.03,59.70 L68.52,59.10 L67.98,58.53 L57.49,48.05 L78.79,26.74 Z" fill="#8b52f4" stroke="#1e1e1e" stroke-width="1" stroke-linejoin="round" opacity="0"/><path d="M23.81,7.44 L24.75,6.54 L25.73,5.70 L26.74,4.93 L27.77,4.20 L28.83,3.54 L29.92,2.93 L31.03,2.39 L32.16,1.90 L33.31,1.46 L34.47,1.09 L35.64,0.77 L36.83,0.51 L38.03,0.31 L39.23,0.16 L40.44,0.08 L41.65,0.05 L42.86,0.08 L44.07,0.16 L45.27,0.31 L46.47,0.51 L47.66,0.77 L48.83,1.09 L49.99,1.46 L51.14,1.90 L52.27,2.39 L53.38,2.93 L54.47,3.54 L55.53,4.20 L56.56,4.93 L57.57,5.70 L58.54,6.54 L59.49,7.44 L91.36,39.31 L89.61,37.56 L89.04,37.02 L88.45,36.51 L87.84,36.04 L87.21,35.60 L86.56,35.20 L85.91,34.83 L85.23,34.50 L84.55,34.20 L83.85,33.94 L83.15,33.71 L82.43,33.52 L81.71,33.36 L80.99,33.24 L80.26,33.15 L79.53,33.10 L78.79,33.08 L78.06,33.10 L77.33,33.15 L76.60,33.24 L75.87,33.36 L75.15,33.52 L74.44,33.71 L73.73,33.94 L73.04,34.20 L72.35,34.50 L71.68,34.83 L71.02,35.20 L70.38,35.60 L69.75,36.04 L69.14,36.51 L68.55,37.02 L67.98,37.56 L46.28,59.25 L45.79,59.70 L45.26,60.09 L44.70,60.42 L44.12,60.69 L43.52,60.90 L42.90,61.05 L42.28,61.14 L41.65,61.17 L41.02,61.14 L40.40,61.05 L39.78,60.90 L39.18,60.69 L38.60,60.42 L38.04,60.09 L37.51,59.70 L37.01,59.25 L9.14,31.38 L8.69,30.88 L8.30,30.35 L7.97,29.79 L7.70,29.21 L7.49,28.61 L7.34,27.99 L7.25,27.37 L7.22,26.74 L7.25,26.11 L7.34,25.49 L7.49,24.88 L7.70,24.28 L7.97,23.69 L8.30,23.14 L8.69,22.61 L9.14,22.11 L23.81,7.44 Z" fill="#d4aefc" stroke="#1e1e1e" stroke-width="1" stroke-linejoin="round"/><path d="M23.81,7.44 L24.75,6.54 L25.73,5.70 L26.74,4.93 L27.77,4.20 L28.83,3.54 L29.92,2.93 L31.03,2.39 L32.16,1.90 L33.31,1.46 L34.47,1.09 L35.64,0.77 L36.83,0.51 L38.03,0.31 L39.23,0.16 L40.44,0.08 L41.65,0.05 L42.86,0.08 L44.07,0.16 L45.27,0.31 L46.47,0.51 L47.66,0.77 L48.83,1.09 L49.99,1.46 L51.14,1.90 L52.27,2.39 L53.38,2.93 L54.47,3.54 L55.53,4.20 L56.56,4.93 L57.57,5.70 L58.54,6.54 L59.49,7.44 L91.36,39.31 L89.61,37.56 L89.04,37.02 L88.45,36.51 L87.84,36.04 L87.21,35.60 L86.56,35.20 L85.91,34.83 L85.23,34.50 L84.55,34.20 L83.85,33.94 L83.15,33.71 L82.43,33.52 L81.71,33.36 L80.99,33.24 L80.26,33.15 L79.53,33.10 L78.79,33.08 L78.06,33.10 L77.33,33.15 L76.60,33.24 L75.87,33.36 L75.15,33.52 L74.44,33.71 L73.73,33.94 L73.04,34.20 L72.35,34.50 L71.68,34.83 L71.02,35.20 L70.38,35.60 L69.75,36.04 L69.14,36.51 L68.55,37.02 L67.98,37.56 L46.28,59.25 L45.79,59.70 L45.26,60.09 L44.70,60.42 L44.12,60.69 L43.52,60.90 L42.90,61.05 L42.28,61.14 L41.65,61.17 L41.02,61.14 L40.40,61.05 L39.78,60.90 L39.18,60.69 L38.60,60.42 L38.04,60.09 L37.51,59.70 L37.01,59.25 L9.14,31.38 L8.69,30.88 L8.30,30.35 L7.97,29.79 L7.70,29.21 L7.49,28.61 L7.34,27.99 L7.25,27.37 L7.22,26.74 L7.25,26.11 L7.34,25.49 L7.49,24.88 L7.70,24.28 L7.97,23.69 L8.30,23.14 L8.69,22.61 L9.14,22.11 L23.81,7.44 Z" fill="#e6bef2" stroke="#1e1e1e" stroke-width="1" stroke-linejoin="round" opacity="0.5"/><path d="M37.01,36.84 L37.51,36.39 L38.04,36.00 L38.60,35.67 L39.18,35.40 L39.78,35.19 L40.40,35.04 L41.02,34.95 L41.65,34.92 L42.28,34.95 L42.90,35.04 L43.52,35.19 L44.12,35.40 L44.70,35.67 L45.26,36.00 L45.79,36.39 L46.28,36.84 L57.49,48.05 L46.28,59.25 L45.79,59.70 L45.26,60.09 L44.70,60.42 L44.12,60.69 L43.52,60.90 L42.90,61.05 L42.28,61.14 L41.65,61.17 L41.02,61.14 L40.40,61.05 L39.78,60.90 L39.18,60.69 L38.60,60.42 L38.04,60.09 L37.51,59.70 L37.02,59.25 L25.81,48.05 L37.01,36.84 Z" fill="#ac81fe" stroke="#1e1e1e" stroke-width="1" stroke-linejoin="round"/></svg>