<svg xmlns="http://www.w3.org/2000/svg" viewBox="19.33 22.00 473.33 470.67"><path d="M330.67,34.67 L334.30,32.17 L338.08,30.00 L341.99,28.17 L346.00,26.67 L350.09,25.50 L354.25,24.67 L358.45,24.17 L362.67,24.00 L366.89,24.17 L371.08,24.67 L375.24,25.50 L379.33,26.67 L383.34,28.17 L387.25,30.00 L391.03,32.17 L394.67,34.67 L469.33,90.67 L471.79,92.62 L474.11,94.70 L476.29,96.91 L478.33,99.22 L480.23,101.64 L481.99,104.17 L483.59,106.78 L485.04,109.48 L486.33,112.26 L487.46,115.11 L488.42,118.03 L489.22,121.00 L489.85,124.03 L490.30,127.09 L490.57,130.20 L490.67,133.33 L490.67,405.33 L21.33,405.33 L21.33,293.33 L21.43,290.20 L21.70,287.09 L22.15,284.03 L22.78,281.00 L23.58,278.03 L24.54,275.11 L25.67,272.26 L26.96,269.48 L28.41,266.78 L30.01,264.17 L31.77,261.64 L33.67,259.22 L35.71,256.91 L37.89,254.70 L40.21,252.62 L42.67,250.67 L330.67,34.67 Z" fill="#21836d" stroke="#1e1e1e" stroke-width="1" stroke-linejoin="round"/><path d="M330.67,34.67 L334.30,32.17 L338.08,30.00 L341.99,28.17 L346.00,26.67 L350.09,25.50 L354.25,24.67 L358.45,24.17 L362.67,24.00 L366.89,24.17 L371.08,24.67 L375.24,25.50 L379.33,26.67 L383.34,28.17 L387.25,30.00 L391.03,32.17 L394.67,34.67 L469.33,90.67 L471.79,92.62 L474.11,94.70 L476.29,96.91 L478.33,99.22 L480.23,101.64 L481.99,104.17 L483.59,106.78 L485.04,109.48 L486.33,112.26 L487.46,115.11 L488.42,118.03 L489.22,121.00 L489.85,124.03 L490.30,127.09 L490.57,130.20 L490.67,133.33 L490.67,405.33 L21.33,405.33 L21.33,293.33 L21.43,290.20 L21.70,287.09 L22.15,284.03 L22.78,281.00 L23.58,278.03 L24.54,275.11 L25.67,272.26 L26.96,269.48 L28.41,266.78 L30.01,264.17 L31.77,261.64 L33.67,259.22 L35.71,256.91 L37.89,254.70 L40.21,252.62 L42.67,250.67 L330.67,34.67 Z" fill="#10687c" stroke="#1e1e1e" stroke-width="1" stroke-linejoin="round" opacity="0.5"/><path d="M330.67,226.67 L334.30,229.17 L338.08,231.33 L341.99,233.17 L346.00,234.67 L350.09,235.83 L354.25,236.67 L358.45,237.17 L362.67,237.33 L366.89,237.17 L371.08,236.67 L375.24,235.83 L379.33,234.67 L383.34,233.17 L387.25,231.33 L391.03,229.17 L394.67,226.67 L469.33,170.67 L471.79,168.71 L474.11,166.63 L476.29,164.43 L478.33,162.11 L480.23,159.69 L481.99,157.17 L483.59,154.55 L485.04,151.85 L486.33,149.07 L487.46,146.22 L488.42,143.31 L489.22,140.33 L489.85,137.31 L490.30,134.24 L490.57,131.13 L490.67,128.00 L490.67,106.67 L490.67,437.33 L490.39,442.79 L489.58,448.08 L488.27,453.19 L486.48,458.09 L484.23,462.76 L481.56,467.15 L478.49,471.26 L475.05,475.05 L471.26,478.49 L467.15,481.56 L462.76,484.23 L458.09,486.48 L453.19,488.27 L448.08,489.58 L442.79,490.39 L437.33,490.67 L106.67,490.67 L102.28,490.56 L97.94,490.23 L93.67,489.68 L89.47,488.93 L85.34,487.98 L81.29,486.83 L77.33,485.49 L73.45,483.96 L69.67,482.25 L65.99,480.37 L62.42,478.31 L58.96,476.09 L55.61,473.71 L52.39,471.18 L49.29,468.50 L46.33,465.67 L43.50,462.71 L40.82,459.61 L38.29,456.39 L35.91,453.04 L33.69,449.58 L31.63,446.01 L29.75,442.33 L28.04,438.55 L26.51,434.67 L25.17,430.71 L24.02,426.66 L23.07,422.53 L22.32,418.33 L21.77,414.06 L21.44,409.72 L21.33,405.33 L21.48,400.32 L21.92,395.35 L22.64,390.44 L23.64,385.60 L24.92,380.84 L26.47,376.18 L28.28,371.62 L30.34,367.17 L32.66,362.85 L35.22,358.67 L38.03,354.63 L41.07,350.75 L44.34,347.05 L47.83,343.53 L51.54,340.19 L55.47,337.07 L234.67,202.67 L238.30,200.17 L242.08,198.00 L245.99,196.17 L250.00,194.67 L254.09,193.50 L258.25,192.67 L262.45,192.17 L266.67,192.00 L270.89,192.17 L275.08,192.67 L279.24,193.50 L283.33,194.67 L287.34,196.17 L291.25,198.00 L295.03,200.17 L298.67,202.67 L330.67,226.67 Z" fill="#48bb6e" stroke="#1e1e1e" stroke-width="1" stroke-linejoin="round"/><path d="M330.67,226.67 L334.30,229.17 L338.08,231.33 L341.99,233.17 L346.00,234.67 L350.09,235.83 L354.25,236.67 L358.45,237.17 L362.67,237.33 L366.89,237.17 L371.08,236.67 L375.24,235.83 L379.33,234.67 L383.34,233.17 L387.25,231.33 L391.03,229.17 L394.67,226.67 L469.33,170.67 L471.79,168.71 L474.11,166.63 L476.29,164.43 L478.33,162.11 L480.23,159.69 L481.99,157.17 L483.59,154.55 L485.04,151.85 L486.33,149.07 L487.46,146.22 L488.42,143.31 L489.22,140.33 L489.85,137.31 L490.30,134.24 L490.57,131.13 L490.67,128.00 L490.67,106.67 L490.67,437.33 L490.39,442.79 L489.58,448.08 L488.27,453.19 L486.48,458.09 L484.23,462.76 L481.56,467.15 L478.49,471.26 L475.05,475.05 L471.26,478.49 L467.15,481.56 L462.76,484.23 L458.09,486.48 L453.19,488.27 L448.08,489.58 L442.79,490.39 L437.33,490.67 L106.67,490.67 L102.28,490.56 L97.94,490.23 L93.67,489.68 L89.47,488.93 L85.34,487.98 L81.29,486.83 L77.33,485.49 L73.45,483.96 L69.67,482.25 L65.99,480.37 L62.42,478.31 L58.96,476.09 L55.61,473.71 L52.39,471.18 L49.29,468.50 L46.33,465.67 L43.50,462.71 L40.82,459.61 L38.29,456.39 L35.91,453.04 L33.69,449.58 L31.63,446.01 L29.75,442.33 L28.04,438.55 L26.51,434.67 L25.17,430.71 L24.02,426.66 L23.07,422.53 L22.32,418.33 L21.77,414.06 L21.44,409.72 L21.33,405.33 L21.48,400.32 L21.92,395.35 L22.64,390.44 L23.64,385.60 L24.92,380.84 L26.47,376.18 L28.28,371.62 L30.34,367.17 L32.66,362.85 L35.22,358.67 L38.03,354.63 L41.07,350.75 L44.34,347.05 L47.83,343.53 L51.54,340.19 L55.47,337.07 L234.67,202.67 L238.30,200.17 L242.08,198.00 L245.99,196.17 L250.00,194.67 L254.09,193.50 L258.25,192.67 L262.45,192.17 L266.67,192.00 L270.89,192.17 L275.08,192.67 L279.24,193.50 L283.33,194.67 L287.34,196.17 L291.25,198.00 L295.03,200.17 L298.67,202.67 L330.67,226.67 Z" fill="#6cd273" stroke="#1e1e1e" stroke-width="1" stroke-linejoin="round" opacity="0.5"/><path d="M330.67,226.67 L334.30,229.17 L338.08,231.33 L341.99,233.17 L346.00,234.67 L350.09,235.83 L354.25,236.67 L358.45,237.17 L362.67,237.33 L366.89,237.17 L371.08,236.67 L375.24,235.83 L379.33,234.67 L383.34,233.17 L387.25,231.33 L391.03,229.17 L394.67,226.67 L469.33,170.67 L471.79,168.71 L474.11,166.63 L476.29,164.43 L478.33,162.11 L480.23,159.69 L481.99,157.17 L483.59,154.55 L485.04,151.85 L486.33,149.07 L487.46,146.22 L488.42,143.31 L489.22,140.33 L489.85,137.31 L490.30,134.24 L490.57,131.13 L490.67,128.00 L490.67,106.67 L490.67,437.33 L490.39,442.79 L489.58,448.08 L488.27,453.19 L486.48,458.09 L484.23,462.76 L481.56,467.15 L478.49,471.26 L475.05,475.05 L471.26,478.49 L467.15,481.56 L462.76,484.23 L458.09,486.48 L453.19,488.27 L448.08,489.58 L442.79,490.39 L437.33,490.67 L106.67,490.67 L102.28,490.56 L97.94,490.23 L93.67,489.68 L89.47,488.93 L85.34,487.98 L81.29,486.83 L77.33,485.49 L73.45,483.96 L69.67,482.25 L65.99,480.37 L62.42,478.31 L58.96,476.09 L55.61,473.71 L52.39,471.18 L49.29,468.50 L46.33,465.67 L43.50,462.71 L40.82,459.61 L38.29,456.39 L35.91,453.04 L33.69,449.58 L31.63,446.01 L29.75,442.33 L28.04,438.55 L26.51,434.67 L25.17,430.71 L24.02,426.66 L23.07,422.53 L22.32,418.33 L21.77,414.06 L21.44,409.72 L21.33,405.33 L21.48,400.32 L21.92,395.35 L22.64,390.44 L23.64,385.60 L24.92,380.84 L26.47,376.18 L28.28,371.62 L30.34,367.17 L32.66,362.85 L35.22,358.67 L38.03,354.63 L41.07,350.75 L44.34,347.05 L47.83,343.53 L51.54,340.19 L55.47,337.07 L234.67,202.67 L238.30,200.17 L242.08,198.00 L245.99,196.17 L250.00,194.67 L254.09,193.50 L258.25,192.67 L262.45,192.17 L266.67,192.00 L270.89,192.17 L275.08,192.67 L279.24,193.50 L283.33,194.67 L287.34,196.17 L291.25,198.00 L295.03,200.17 L298.67,202.67 L330.67,226.67 Z" fill="#279688" stroke="#1e1e1e" stroke-width="1" stroke-linejoin="round" opacity="0.5"/><path d="M490.67,437.33 L490.67,334.97 L490.58,331.94 L490.33,328.94 L489.90,325.97 L489.32,323.05 L488.57,320.17 L487.67,317.34 L486.61,314.57 L485.40,311.86 L484.05,309.23 L482.54,306.67 L480.90,304.20 L479.12,301.82 L477.20,299.53 L475.14,297.35 L472.96,295.28 L470.65,293.32 L469.60,292.48 L465.95,289.80 L462.14,287.47 L458.18,285.49 L454.11,283.86 L449.95,282.57 L445.71,281.63 L441.43,281.04 L437.11,280.80 L432.79,280.90 L428.49,281.36 L424.23,282.17 L420.02,283.32 L415.91,284.83 L411.89,286.69 L408.01,288.90 L404.28,291.46 L161.42,473.60 L155.74,477.51 L149.79,480.94 L143.60,483.87 L137.21,486.29 L130.64,488.19 L123.93,489.56 L117.12,490.39 L110.22,490.67 L437.33,490.67 L442.79,490.39 L448.08,489.58 L453.19,488.27 L458.09,486.48 L462.76,484.23 L467.15,481.56 L471.26,478.49 L475.05,475.05 L478.49,471.26 L481.56,467.15 L484.23,462.76 L486.48,458.09 L488.27,453.19 L489.58,448.08 L490.39,442.79 L490.67,437.33 Z" fill="#97eb78" stroke="#1e1e1e" stroke-width="1" stroke-linejoin="round"/><path d="M490.67,437.33 L490.67,334.97 L490.58,331.94 L490.33,328.94 L489.90,325.97 L489.32,323.05 L488.57,320.17 L487.67,317.34 L486.61,314.57 L485.40,311.86 L484.05,309.23 L482.54,306.67 L480.90,304.20 L479.12,301.82 L477.20,299.53 L475.14,297.35 L472.96,295.28 L470.65,293.32 L469.60,292.48 L465.95,289.80 L462.14,287.47 L458.18,285.49 L454.11,283.86 L449.95,282.57 L445.71,281.63 L441.43,281.04 L437.11,280.80 L432.79,280.90 L428.49,281.36 L424.23,282.17 L420.02,283.32 L415.91,284.83 L411.89,286.69 L408.01,288.90 L404.28,291.46 L161.42,473.60 L155.74,477.51 L149.79,480.94 L143.60,483.87 L137.21,486.29 L130.64,488.19 L123.93,489.56 L117.12,490.39 L110.22,490.67 L437.33,490.67 L442.79,490.39 L448.08,489.58 L453.19,488.27 L458.09,486.48 L462.76,484.23 L467.15,481.56 L471.26,478.49 L475.05,475.05 L478.49,471.26 L481.56,467.15 L484.23,462.76 L486.48,458.09 L488.27,453.19 L489.58,448.08 L490.39,442.79 L490.67,437.33 Z" fill="#b6e47c" stroke="#1e1e1e" stroke-width="1" stroke-linejoin="round" opacity="0.39"/></svg>