<svg xmlns="http://www.w3.org/2000/svg" viewBox="-1.02 0.04 100.00 97.48"><path d="M72.48,2.04 L73.06,2.06 L73.63,2.12 L74.18,2.22 L74.73,2.36 L75.27,2.53 L75.79,2.74 L76.29,2.98 L76.77,3.26 L77.24,3.57 L77.68,3.91 L78.10,4.28 L78.49,4.68 L78.86,5.11 L79.20,5.56 L79.51,6.05 L79.78,6.55 L96.12,39.22 L96.49,40.10 L96.76,41.00 L96.92,41.92 L96.98,42.85 L96.93,43.78 L96.77,44.70 L96.51,45.60 L96.14,46.48 L85.11,68.89 L84.83,69.40 L84.53,69.88 L84.19,70.34 L83.82,70.77 L83.43,71.18 L83.01,71.55 L82.56,71.90 L82.10,72.21 L81.61,72.49 L81.11,72.74 L80.58,72.95 L80.05,73.12 L79.50,73.26 L78.94,73.36 L78.36,73.42 L77.78,73.44 L31.64,73.44 L31.40,2.04 L72.48,2.04 Z" fill="#bd5e02" stroke="#1e1e1e" stroke-width="1" stroke-linejoin="round"/><path d="M72.48,2.04 L73.06,2.06 L73.63,2.12 L74.18,2.22 L74.73,2.36 L75.27,2.53 L75.79,2.74 L76.29,2.98 L76.77,3.26 L77.24,3.57 L77.68,3.91 L78.10,4.28 L78.49,4.68 L78.86,5.11 L79.20,5.56 L79.51,6.05 L79.78,6.55 L96.12,39.22 L96.49,40.10 L96.76,41.00 L96.92,41.92 L96.98,42.85 L96.93,43.78 L96.77,44.70 L96.51,45.60 L96.14,46.48 L85.11,68.89 L84.83,69.40 L84.53,69.88 L84.19,70.34 L83.82,70.77 L83.43,71.18 L83.01,71.55 L82.56,71.90 L82.10,72.21 L81.61,72.49 L81.11,72.74 L80.58,72.95 L80.05,73.12 L79.50,73.26 L78.94,73.36 L78.36,73.42 L77.78,73.44 L31.64,73.44 L31.40,2.04 L72.48,2.04 Z" fill="#741c06" stroke="#1e1e1e" stroke-width="1" stroke-linejoin="round"/><path d="M72.48,2.04 L73.06,2.06 L73.63,2.12 L74.18,2.22 L74.73,2.36 L75.27,2.53 L75.79,2.74 L76.29,2.98 L76.77,3.26 L77.24,3.57 L77.68,3.91 L78.10,4.28 L78.49,4.68 L78.86,5.11 L79.20,5.56 L79.51,6.05 L79.78,6.55 L96.12,39.22 L96.49,40.10 L96.76,41.00 L96.92,41.92 L96.98,42.85 L96.93,43.78 L96.77,44.70 L96.51,45.60 L96.14,46.48 L85.11,68.89 L84.83,69.40 L84.53,69.88 L84.19,70.34 L83.82,70.77 L83.43,71.18 L83.01,71.55 L82.56,71.90 L82.10,72.21 L81.61,72.49 L81.11,72.74 L80.58,72.95 L80.05,73.12 L79.50,73.26 L78.94,73.36 L78.36,73.42 L77.78,73.44 L31.64,73.44 L31.40,2.04 L72.48,2.04 Z" fill="#843103" stroke="#1e1e1e" stroke-width="1" stroke-linejoin="round" opacity="0.5"/><path d="M22.85,29.79 L22.13,31.34 L21.50,32.93 L20.97,34.54 L20.54,36.18 L20.20,37.83 L19.96,39.49 L19.82,41.17 L19.77,42.84 L19.82,44.52 L19.96,46.19 L20.20,47.86 L20.54,49.51 L20.97,51.14 L21.50,52.76 L22.13,54.34 L22.85,55.90 L39.84,89.88 L40.21,90.56 L40.62,91.20 L41.07,91.80 L41.55,92.35 L42.06,92.85 L42.60,93.32 L43.16,93.73 L43.75,94.11 L44.36,94.44 L44.98,94.73 L45.62,94.97 L46.27,95.17 L46.94,95.32 L47.61,95.43 L48.28,95.50 L48.96,95.52 L49.64,95.50 L50.32,95.43 L50.99,95.32 L51.65,95.17 L52.31,94.97 L52.95,94.73 L53.57,94.44 L54.18,94.11 L54.77,93.73 L55.33,93.32 L55.87,92.85 L56.38,92.35 L56.86,91.80 L57.30,91.20 L57.71,90.56 L58.09,89.88 L75.08,55.90 L75.80,54.34 L76.43,52.75 L76.96,51.14 L77.39,49.51 L77.73,47.86 L77.97,46.19 L78.11,44.52 L78.16,42.84 L78.11,41.17 L77.97,39.49 L77.73,37.83 L77.39,36.18 L76.96,34.54 L76.43,32.93 L75.80,31.34 L75.08,29.79 L74.56,28.79 L74.01,27.83 L73.44,26.90 L72.84,26.00 L72.21,25.14 L71.56,24.30 L70.88,23.50 L70.19,22.72 L69.47,21.98 L68.72,21.27 L67.96,20.60 L67.18,19.95 L66.39,19.34 L65.57,18.75 L64.74,18.20 L63.89,17.68 L63.03,17.19 L62.15,16.74 L61.26,16.31 L60.36,15.92 L59.45,15.55 L58.53,15.22 L57.60,14.92 L56.66,14.66 L55.71,14.42 L54.76,14.21 L53.80,14.04 L52.84,13.90 L51.88,13.79 L50.91,13.71 L49.94,13.66 L48.96,13.65 L47.99,13.66 L47.02,13.71 L46.05,13.79 L45.09,13.90 L44.12,14.04 L43.16,14.21 L42.21,14.42 L41.27,14.66 L40.33,14.92 L39.40,15.22 L38.47,15.55 L37.56,15.92 L36.66,16.31 L35.77,16.74 L34.90,17.19 L34.04,17.68 L33.19,18.20 L32.36,18.75 L31.54,19.34 L30.74,19.95 L29.96,20.60 L29.20,21.28 L28.46,21.98 L27.74,22.73 L27.04,23.50 L26.37,24.30 L25.72,25.14 L25.09,26.00 L24.49,26.90 L23.92,27.83 L23.37,28.79 L22.85,29.79 Z" fill="#f59126" stroke="#1e1e1e" stroke-width="1" stroke-linejoin="round"/><path d="M66.30,42.79 L66.29,43.68 L66.22,44.56 L66.11,45.43 L65.96,46.28 L65.77,47.12 L65.54,47.94 L65.27,48.75 L64.96,49.54 L64.62,50.31 L64.24,51.06 L63.82,51.79 L63.38,52.49 L62.89,53.17 L62.38,53.83 L61.84,54.46 L61.27,55.06 L60.67,55.64 L60.04,56.19 L59.39,56.70 L58.71,57.19 L58.00,57.64 L57.28,58.06 L56.53,58.45 L55.77,58.80 L54.98,59.11 L54.18,59.39 L53.35,59.62 L52.51,59.82 L51.66,59.98 L50.79,60.09 L49.91,60.16 L49.02,60.18 L48.13,60.16 L47.25,60.10 L46.38,59.99 L45.53,59.84 L44.69,59.65 L43.86,59.42 L43.06,59.15 L42.27,58.84 L41.50,58.50 L40.75,58.12 L40.02,57.70 L39.32,57.25 L38.63,56.77 L37.98,56.26 L37.35,55.72 L36.74,55.15 L36.17,54.55 L35.62,53.92 L35.10,53.26 L34.62,52.59 L34.16,51.88 L33.74,51.16 L33.36,50.41 L33.01,49.65 L32.69,48.86 L32.42,48.06 L32.18,47.23 L31.99,46.39 L31.83,45.54 L31.72,44.67 L31.65,43.79 L31.62,42.90 L31.64,42.01 L31.71,41.13 L31.81,40.26 L31.96,39.40 L32.15,38.57 L32.38,37.74 L32.65,36.93 L32.96,36.15 L33.31,35.38 L33.69,34.63 L34.10,33.90 L34.55,33.20 L35.03,32.51 L35.55,31.86 L36.09,31.23 L36.66,30.62 L37.26,30.05 L37.89,29.50 L38.54,28.98 L39.22,28.50 L39.92,28.04 L40.65,27.62 L41.39,27.24 L42.16,26.89 L42.95,26.57 L43.75,26.30 L44.57,26.06 L45.41,25.87 L46.27,25.71 L47.13,25.60 L48.01,25.53 L48.91,25.50 L49.80,25.52 L50.68,25.59 L51.55,25.69 L52.40,25.84 L53.24,26.03 L54.06,26.26 L54.87,26.53 L55.66,26.84 L56.43,27.19 L57.18,27.57 L57.91,27.98 L58.61,28.43 L59.29,28.91 L59.95,29.42 L60.58,29.97 L61.18,30.54 L61.76,31.14 L62.31,31.77 L62.82,32.42 L63.31,33.10 L63.76,33.80 L64.18,34.53 L64.57,35.27 L64.92,36.04 L65.23,36.83 L65.51,37.63 L65.74,38.45 L65.94,39.29 L66.10,40.14 L66.21,41.01 L66.28,41.89 L66.30,42.79 Z" fill="#cd3e1d" stroke="#1e1e1e" stroke-width="1" stroke-linejoin="round" opacity="0.3"/><path d="M22.85,29.79 L22.13,31.34 L21.50,32.93 L20.97,34.54 L20.54,36.18 L20.20,37.83 L19.96,39.49 L19.82,41.17 L19.77,42.84 L19.82,44.52 L19.96,46.19 L20.20,47.86 L20.54,49.51 L20.97,51.14 L21.50,52.76 L22.13,54.34 L22.85,55.90 L39.84,89.88 L40.21,90.56 L40.62,91.20 L41.07,91.80 L41.55,92.35 L42.06,92.85 L42.60,93.32 L43.16,93.73 L43.75,94.11 L44.36,94.44 L44.98,94.73 L45.62,94.97 L46.27,95.17 L46.94,95.32 L47.61,95.43 L48.28,95.50 L48.96,95.52 L49.64,95.50 L50.32,95.43 L50.99,95.32 L51.65,95.17 L52.31,94.97 L52.95,94.73 L53.57,94.44 L54.18,94.11 L54.77,93.73 L55.33,93.32 L55.87,92.85 L56.38,92.35 L56.86,91.80 L57.30,91.20 L57.71,90.56 L58.09,89.88 L75.08,55.90 L75.80,54.34 L76.43,52.75 L76.96,51.14 L77.39,49.51 L77.73,47.86 L77.97,46.19 L78.11,44.52 L78.16,42.84 L78.11,41.17 L77.97,39.49 L77.73,37.83 L77.39,36.18 L76.96,34.54 L76.43,32.93 L75.80,31.34 L75.08,29.79 L74.56,28.79 L74.01,27.83 L73.44,26.90 L72.84,26.00 L72.21,25.14 L71.56,24.30 L70.88,23.50 L70.19,22.72 L69.47,21.98 L68.72,21.27 L67.96,20.60 L67.18,19.95 L66.39,19.34 L65.57,18.75 L64.74,18.20 L63.89,17.68 L63.03,17.19 L62.15,16.74 L61.26,16.31 L60.36,15.92 L59.45,15.55 L58.53,15.22 L57.60,14.92 L56.66,14.66 L55.71,14.42 L54.76,14.21 L53.80,14.04 L52.84,13.90 L51.88,13.79 L50.91,13.71 L49.94,13.66 L48.96,13.65 L47.99,13.66 L47.02,13.71 L46.05,13.79 L45.09,13.90 L44.12,14.04 L43.16,14.21 L42.21,14.42 L41.27,14.66 L40.33,14.92 L39.40,15.22 L38.47,15.55 L37.56,15.92 L36.66,16.31 L35.77,16.74 L34.90,17.19 L34.04,17.68 L33.19,18.20 L32.36,18.75 L31.54,19.34 L30.74,19.95 L29.96,20.60 L29.20,21.28 L28.46,21.98 L27.74,22.73 L27.04,23.50 L26.37,24.30 L25.72,25.14 L25.09,26.00 L24.49,26.90 L23.92,27.83 L23.37,28.79 L22.85,29.79 Z" fill="#bd5e02" stroke="#1e1e1e" stroke-width="1" stroke-linejoin="round" opacity="0.5"/><path d="M25.45,2.04 L24.88,2.06 L24.31,2.12 L23.75,2.22 L23.20,2.36 L22.67,2.53 L22.15,2.74 L21.65,2.98 L21.16,3.26 L20.70,3.57 L20.26,3.91 L19.84,4.28 L19.44,4.68 L19.08,5.11 L18.74,5.56 L18.43,6.04 L18.15,6.55 L1.84,39.16 L1.46,40.05 L1.19,40.96 L1.03,41.90 L0.98,42.84 L1.04,43.78 L1.20,44.71 L1.48,45.63 L1.86,46.51 L13.27,68.98 L13.55,69.48 L13.86,69.96 L14.20,70.41 L14.56,70.83 L14.96,71.23 L15.37,71.60 L15.82,71.93 L16.28,72.24 L16.76,72.51 L17.26,72.75 L17.78,72.96 L18.31,73.13 L18.85,73.27 L19.41,73.37 L19.97,73.43 L20.55,73.45 L31.63,73.45 L65.07,6.55 L65.34,6.05 L65.65,5.56 L65.99,5.11 L66.36,4.68 L66.75,4.28 L67.17,3.91 L67.61,3.57 L68.08,3.26 L68.56,2.98 L69.06,2.74 L69.58,2.53 L70.12,2.36 L70.67,2.22 L71.22,2.12 L71.79,2.06 L72.37,2.04 L72.93,2.04 L25.45,2.04 Z" fill="#ffbc22" stroke="#1e1e1e" stroke-width="1" stroke-linejoin="round"/><path d="M22.85,29.79 L23.57,28.43 L24.34,27.13 L25.17,25.89 L26.04,24.71 L26.96,23.59 L27.92,22.53 L28.93,21.53 L29.97,20.59 L31.04,19.71 L32.16,18.89 L33.30,18.13 L34.47,17.43 L35.67,16.79 L36.90,16.21 L38.14,15.68 L39.41,15.22 L40.69,14.82 L41.99,14.47 L43.30,14.19 L44.62,13.96 L45.94,13.80 L47.28,13.69 L48.61,13.65 L49.95,13.66 L51.29,13.74 L52.62,13.87 L53.94,14.06 L55.26,14.32 L56.56,14.63 L57.85,15.00 L59.13,15.43 L60.38,15.92 L31.63,73.45 L31.62,73.44 L22.85,55.90 L22.13,54.34 L21.50,52.76 L20.97,51.14 L20.54,49.51 L20.20,47.86 L19.96,46.19 L19.82,44.52 L19.77,42.84 L19.82,41.17 L19.96,39.49 L20.20,37.83 L20.54,36.18 L20.97,34.54 L21.50,32.93 L22.13,31.34 L22.85,29.79 Z" fill="#ffaa12" stroke="#1e1e1e" stroke-width="1" stroke-linejoin="round"/></svg>