<svg xmlns="http://www.w3.org/2000/svg" viewBox="2.36 2.36 100.00 100.00"><path d="M4.36,15.27 L4.42,14.16 L4.59,13.07 L4.85,12.03 L5.22,11.03 L5.68,10.07 L6.23,9.17 L6.85,8.33 L7.56,7.56 L8.33,6.85 L9.17,6.23 L10.07,5.68 L11.03,5.22 L12.03,4.85 L13.07,4.59 L14.16,4.42 L15.27,4.36 L80.73,4.36 L81.74,4.39 L82.73,4.47 L83.72,4.59 L84.68,4.76 L85.63,4.98 L86.57,5.25 L87.48,5.56 L88.37,5.91 L89.24,6.30 L90.09,6.73 L90.91,7.21 L91.71,7.72 L92.48,8.26 L93.22,8.85 L93.93,9.46 L94.61,10.12 L95.26,10.80 L95.88,11.51 L96.46,12.25 L97.01,13.02 L97.52,13.82 L97.99,14.64 L98.43,15.49 L98.82,16.36 L99.17,17.25 L99.48,18.16 L99.75,19.09 L99.96,20.04 L100.14,21.01 L100.26,21.99 L100.34,22.99 L100.36,24.00 L100.36,89.45 L100.31,90.57 L100.14,91.65 L99.87,92.70 L99.51,93.70 L99.05,94.65 L98.50,95.55 L97.87,96.39 L97.17,97.17 L96.39,97.87 L95.55,98.50 L94.65,99.05 L93.70,99.51 L92.70,99.87 L91.65,100.14 L90.57,100.31 L89.45,100.36 L65.45,100.36 L65.45,26.18 L4.36,26.18 L4.36,15.27 Z" fill="#5f36bf" stroke="#1e1e1e" stroke-width="1" stroke-linejoin="round"/><path d="M4.36,15.27 L4.42,14.16 L4.59,13.07 L4.85,12.03 L5.22,11.03 L5.68,10.07 L6.23,9.17 L6.85,8.33 L7.56,7.56 L8.33,6.85 L9.17,6.23 L10.07,5.68 L11.03,5.22 L12.03,4.85 L13.07,4.59 L14.16,4.42 L15.27,4.36 L80.73,4.36 L81.74,4.39 L82.73,4.47 L83.72,4.59 L84.68,4.76 L85.63,4.98 L86.57,5.25 L87.48,5.56 L88.37,5.91 L89.24,6.30 L90.09,6.73 L90.91,7.21 L91.71,7.72 L92.48,8.26 L93.22,8.85 L93.93,9.46 L94.61,10.12 L95.26,10.80 L95.88,11.51 L96.46,12.25 L97.01,13.02 L97.52,13.82 L97.99,14.64 L98.43,15.49 L98.82,16.36 L99.17,17.25 L99.48,18.16 L99.75,19.09 L99.96,20.04 L100.14,21.01 L100.26,21.99 L100.34,22.99 L100.36,24.00 L100.36,89.45 L100.31,90.57 L100.14,91.65 L99.87,92.70 L99.51,93.70 L99.05,94.65 L98.50,95.55 L97.87,96.39 L97.17,97.17 L96.39,97.87 L95.55,98.50 L94.65,99.05 L93.70,99.51 L92.70,99.87 L91.65,100.14 L90.57,100.31 L89.45,100.36 L65.45,100.36 L65.45,26.18 L4.36,26.18 L4.36,15.27 Z" fill="#4b20a0" stroke="#1e1e1e" stroke-width="1" stroke-linejoin="round" opacity="0.5"/><path d="M4.36,15.27 L4.42,14.16 L4.59,13.07 L4.85,12.03 L5.22,11.03 L5.68,10.07 L6.23,9.17 L6.85,8.33 L7.56,7.56 L8.33,6.85 L9.17,6.23 L10.07,5.68 L11.03,5.22 L12.03,4.85 L13.07,4.59 L14.16,4.42 L15.27,4.36 L80.73,4.36 L81.74,4.39 L82.73,4.47 L83.72,4.59 L84.68,4.76 L85.63,4.98 L86.57,5.25 L87.48,5.56 L88.37,5.91 L89.24,6.30 L90.09,6.73 L90.91,7.21 L91.71,7.72 L92.48,8.26 L93.22,8.85 L93.93,9.46 L94.61,10.12 L95.26,10.80 L95.88,11.51 L96.46,12.25 L97.01,13.02 L97.52,13.82 L97.99,14.64 L98.43,15.49 L98.82,16.36 L99.17,17.25 L99.48,18.16 L99.75,19.09 L99.96,20.04 L100.14,21.01 L100.26,21.99 L100.34,22.99 L100.36,24.00 L100.36,89.45 L100.31,90.57 L100.14,91.65 L99.87,92.70 L99.51,93.70 L99.05,94.65 L98.50,95.55 L97.87,96.39 L97.17,97.17 L96.39,97.87 L95.55,98.50 L94.65,99.05 L93.70,99.51 L92.70,99.87 L91.65,100.14 L90.57,100.31 L89.45,100.36 L65.45,100.36 L65.45,26.18 L4.36,26.18 L4.36,15.27 Z" fill="#261d82" stroke="#1e1e1e" stroke-width="1" stroke-linejoin="round" opacity="0.5"/><path d="M4.36,15.27 L4.42,14.16 L4.59,13.07 L4.85,12.03 L5.22,11.03 L5.68,10.07 L6.23,9.17 L6.85,8.33 L7.56,7.56 L8.33,6.85 L9.17,6.23 L10.07,5.68 L11.03,5.22 L12.03,4.85 L13.07,4.59 L14.16,4.42 L15.27,4.36 L80.73,4.36 L81.74,4.39 L82.73,4.47 L83.72,4.59 L84.68,4.76 L85.63,4.98 L86.57,5.25 L87.48,5.56 L88.37,5.91 L89.24,6.30 L90.09,6.73 L90.91,7.21 L91.71,7.72 L92.48,8.26 L93.22,8.85 L93.93,9.46 L94.61,10.12 L95.26,10.80 L95.88,11.51 L96.46,12.25 L97.01,13.02 L97.52,13.82 L97.99,14.64 L98.43,15.49 L98.82,16.36 L99.17,17.25 L99.48,18.16 L99.75,19.09 L99.96,20.04 L100.14,21.01 L100.26,21.99 L100.34,22.99 L100.36,24.00 L100.36,89.45 L100.31,90.57 L100.14,91.65 L99.87,92.70 L99.51,93.70 L99.05,94.65 L98.50,95.55 L97.87,96.39 L97.17,97.17 L96.39,97.87 L95.55,98.50 L94.65,99.05 L93.70,99.51 L92.70,99.87 L91.65,100.14 L90.57,100.31 L89.45,100.36 L65.45,100.36 L65.45,26.18 L4.36,26.18 L4.36,15.27 Z" fill="#4a2aa8" stroke="#1e1e1e" stroke-width="1" stroke-linejoin="round" opacity="0.5"/><path d="M4.36,15.27 L4.42,16.39 L4.59,17.47 L4.85,18.52 L5.22,19.52 L5.68,20.47 L6.23,21.37 L6.85,22.21 L7.56,22.99 L8.33,23.69 L9.17,24.32 L10.07,24.87 L11.03,25.32 L12.03,25.69 L13.07,25.96 L14.16,26.13 L15.27,26.18 L67.64,26.18 L68.75,26.24 L69.83,26.40 L70.88,26.67 L71.88,27.04 L72.84,27.50 L73.74,28.04 L74.58,28.67 L75.35,29.38 L76.05,30.15 L76.68,30.99 L77.23,31.89 L77.69,32.84 L78.05,33.85 L78.32,34.89 L78.49,35.98 L78.55,37.09 L78.55,89.45 L78.49,90.57 L78.32,91.65 L78.05,92.70 L77.69,93.70 L77.23,94.65 L76.68,95.55 L76.05,96.39 L75.35,97.17 L74.58,97.87 L73.74,98.50 L72.84,99.05 L71.88,99.51 L70.88,99.87 L69.83,100.14 L68.75,100.31 L67.64,100.36 L30.55,100.36 L31.89,100.33 L33.22,100.23 L34.53,100.06 L35.82,99.83 L37.09,99.54 L38.33,99.19 L39.55,98.77 L40.74,98.31 L41.90,97.78 L43.03,97.20 L44.12,96.57 L45.18,95.89 L46.21,95.16 L47.20,94.38 L48.15,93.56 L49.06,92.70 L49.93,91.79 L50.75,90.84 L51.53,89.85 L52.26,88.82 L52.94,87.76 L53.57,86.66 L54.15,85.53 L54.67,84.37 L55.14,83.18 L55.55,81.97 L55.90,80.73 L56.20,79.46 L56.43,78.17 L56.59,76.86 L56.69,75.53 L56.73,74.18 L56.69,72.83 L56.59,71.50 L56.43,70.19 L56.20,68.91 L55.90,67.64 L55.55,66.40 L55.14,65.18 L54.67,63.99 L54.15,62.83 L53.57,61.70 L52.94,60.61 L52.26,59.54 L51.53,58.52 L50.75,57.53 L49.93,56.58 L49.06,55.67 L48.15,54.80 L47.20,53.98 L46.21,53.20 L45.18,52.47 L44.12,51.79 L43.03,51.16 L41.90,50.58 L40.74,50.06 L39.55,49.59 L38.33,49.18 L37.09,48.82 L35.82,48.53 L34.53,48.30 L33.22,48.14 L31.89,48.03 L30.55,48.00 L15.27,48.00 L14.16,47.94 L13.07,47.78 L12.03,47.51 L11.03,47.14 L10.07,46.68 L9.17,46.14 L8.33,45.51 L7.56,44.80 L6.85,44.03 L6.23,43.19 L5.68,42.29 L5.22,41.34 L4.85,40.33 L4.59,39.29 L4.42,38.21 L4.36,37.09 L4.36,10.91 L4.36,15.27 Z" fill="#9c6cee" stroke="#1e1e1e" stroke-width="1" stroke-linejoin="round"/><path d="M4.36,15.27 L4.42,16.39 L4.59,17.47 L4.85,18.52 L5.22,19.52 L5.68,20.47 L6.23,21.37 L6.85,22.21 L7.56,22.99 L8.33,23.69 L9.17,24.32 L10.07,24.87 L11.03,25.32 L12.03,25.69 L13.07,25.96 L14.16,26.13 L15.27,26.18 L67.64,26.18 L68.75,26.24 L69.83,26.40 L70.88,26.67 L71.88,27.04 L72.84,27.50 L73.74,28.04 L74.58,28.67 L75.35,29.38 L76.05,30.15 L76.68,30.99 L77.23,31.89 L77.69,32.84 L78.05,33.85 L78.32,34.89 L78.49,35.98 L78.55,37.09 L78.55,89.45 L78.49,90.57 L78.32,91.65 L78.05,92.70 L77.69,93.70 L77.23,94.65 L76.68,95.55 L76.05,96.39 L75.35,97.17 L74.58,97.87 L73.74,98.50 L72.84,99.05 L71.88,99.51 L70.88,99.87 L69.83,100.14 L68.75,100.31 L67.64,100.36 L30.55,100.36 L31.89,100.33 L33.22,100.23 L34.53,100.06 L35.82,99.83 L37.09,99.54 L38.33,99.19 L39.55,98.77 L40.74,98.31 L41.90,97.78 L43.03,97.20 L44.12,96.57 L45.18,95.89 L46.21,95.16 L47.20,94.38 L48.15,93.56 L49.06,92.70 L49.93,91.79 L50.75,90.84 L51.53,89.85 L52.26,88.82 L52.94,87.76 L53.57,86.66 L54.15,85.53 L54.67,84.37 L55.14,83.18 L55.55,81.97 L55.90,80.73 L56.20,79.46 L56.43,78.17 L56.59,76.86 L56.69,75.53 L56.73,74.18 L56.69,72.83 L56.59,71.50 L56.43,70.19 L56.20,68.91 L55.90,67.64 L55.55,66.40 L55.14,65.18 L54.67,63.99 L54.15,62.83 L53.57,61.70 L52.94,60.61 L52.26,59.54 L51.53,58.52 L50.75,57.53 L49.93,56.58 L49.06,55.67 L48.15,54.80 L47.20,53.98 L46.21,53.20 L45.18,52.47 L44.12,51.79 L43.03,51.16 L41.90,50.58 L40.74,50.06 L39.55,49.59 L38.33,49.18 L37.09,48.82 L35.82,48.53 L34.53,48.30 L33.22,48.14 L31.89,48.03 L30.55,48.00 L15.27,48.00 L14.16,47.94 L13.07,47.78 L12.03,47.51 L11.03,47.14 L10.07,46.68 L9.17,46.14 L8.33,45.51 L7.56,44.80 L6.85,44.03 L6.23,43.19 L5.68,42.29 L5.22,41.34 L4.85,40.33 L4.59,39.29 L4.42,38.21 L4.36,37.09 L4.36,10.91 L4.36,15.27 Z" fill="#c08afe" stroke="#1e1e1e" stroke-width="1" stroke-linejoin="round" opacity="0.4"/><path d="M4.36,15.27 L4.42,16.39 L4.59,17.47 L4.85,18.52 L5.22,19.52 L5.68,20.47 L6.23,21.37 L6.85,22.21 L7.56,22.99 L8.33,23.69 L9.17,24.32 L10.07,24.87 L11.03,25.32 L12.03,25.69 L13.07,25.96 L14.16,26.13 L15.27,26.18 L67.64,26.18 L68.75,26.24 L69.83,26.40 L70.88,26.67 L71.88,27.04 L72.84,27.50 L73.74,28.04 L74.58,28.67 L75.35,29.38 L76.05,30.15 L76.68,30.99 L77.23,31.89 L77.69,32.84 L78.05,33.85 L78.32,34.89 L78.49,35.98 L78.55,37.09 L78.55,89.45 L78.49,90.57 L78.32,91.65 L78.05,92.70 L77.69,93.70 L77.23,94.65 L76.68,95.55 L76.05,96.39 L75.35,97.17 L74.58,97.87 L73.74,98.50 L72.84,99.05 L71.88,99.51 L70.88,99.87 L69.83,100.14 L68.75,100.31 L67.64,100.36 L30.55,100.36 L31.89,100.33 L33.22,100.23 L34.53,100.06 L35.82,99.83 L37.09,99.54 L38.33,99.19 L39.55,98.77 L40.74,98.31 L41.90,97.78 L43.03,97.20 L44.12,96.57 L45.18,95.89 L46.21,95.16 L47.20,94.38 L48.15,93.56 L49.06,92.70 L49.93,91.79 L50.75,90.84 L51.53,89.85 L52.26,88.82 L52.94,87.76 L53.57,86.66 L54.15,85.53 L54.67,84.37 L55.14,83.18 L55.55,81.97 L55.90,80.73 L56.20,79.46 L56.43,78.17 L56.59,76.86 L56.69,75.53 L56.73,74.18 L56.69,72.83 L56.59,71.50 L56.43,70.19 L56.20,68.91 L55.90,67.64 L55.55,66.40 L55.14,65.18 L54.67,63.99 L54.15,62.83 L53.57,61.70 L52.94,60.61 L52.26,59.54 L51.53,58.52 L50.75,57.53 L49.93,56.58 L49.06,55.67 L48.15,54.80 L47.20,53.98 L46.21,53.20 L45.18,52.47 L44.12,51.79 L43.03,51.16 L41.90,50.58 L40.74,50.06 L39.55,49.59 L38.33,49.18 L37.09,48.82 L35.82,48.53 L34.53,48.30 L33.22,48.14 L31.89,48.03 L30.55,48.00 L15.27,48.00 L14.16,47.94 L13.07,47.78 L12.03,47.51 L11.03,47.14 L10.07,46.68 L9.17,46.14 L8.33,45.51 L7.56,44.80 L6.85,44.03 L6.23,43.19 L5.68,42.29 L5.22,41.34 L4.85,40.33 L4.59,39.29 L4.42,38.21 L4.36,37.09 L4.36,10.91 L4.36,15.27 Z" fill="#5b2ab5" stroke="#1e1e1e" stroke-width="1" stroke-linejoin="round"/><ellipse cx="30.55" cy="74.18" rx="26.18" ry="26.18" fill="#e7abfa" stroke="#1e1e1e" stroke-width="1"/></svg>