<svg xmlns="http://www.w3.org/2000/svg" viewBox="-1.76 30.00 510.31 452.00"><path d="M506.06,89.85 L506.45,87.37 L506.55,84.93 L506.37,82.53 L505.93,80.21 L505.24,77.97 L504.32,75.83 L503.17,73.82 L501.82,71.94 L500.27,70.22 L498.55,68.68 L496.66,67.32 L494.61,66.17 L492.43,65.25 L490.13,64.57 L487.72,64.14 L485.21,64.00 L10.33,64.00 L44.34,245.33 L455.14,245.33 L457.01,245.25 L458.83,245.01 L462.34,244.09 L465.59,242.60 L468.53,240.61 L471.11,238.15 L473.25,235.29 L474.90,232.06 L475.52,230.33 L475.99,228.52 L506.06,89.85 Z" fill="#ffb052" stroke="#1e1e1e" stroke-width="1" stroke-linejoin="round"/><path d="M429.20,413.09 L430.19,407.58 L430.87,402.09 L431.21,396.64 L431.25,391.25 L430.98,385.91 L430.41,380.64 L429.56,375.44 L428.42,370.34 L427.00,365.33 L425.32,360.43 L423.38,355.64 L421.19,350.98 L418.75,346.45 L416.08,342.06 L413.18,337.83 L410.05,333.77 L406.72,329.87 L403.18,326.16 L399.44,322.64 L395.52,319.32 L391.41,316.22 L387.12,313.33 L382.67,310.67 L378.06,308.25 L373.30,306.08 L368.40,304.17 L363.36,302.53 L358.19,301.16 L352.90,300.09 L347.50,299.30 L341.99,298.83 L336.39,298.67 L78.88,298.67 L76.43,298.81 L74.06,299.21 L71.80,299.86 L69.66,300.75 L67.64,301.86 L65.77,303.17 L64.05,304.66 L62.51,306.33 L61.15,308.14 L59.98,310.10 L59.03,312.17 L58.30,314.35 L57.81,316.62 L57.57,318.97 L57.59,321.37 L57.89,323.81 L73.50,409.89 L74.27,413.66 L75.20,417.37 L76.29,421.00 L77.53,424.56 L78.92,428.04 L80.45,431.43 L82.12,434.75 L83.92,437.97 L87.93,444.14 L92.42,449.91 L97.38,455.26 L102.77,460.17 L108.56,464.60 L114.71,468.52 L121.19,471.92 L127.98,474.75 L131.47,475.96 L135.03,477.01 L138.64,477.91 L142.31,478.65 L146.04,479.24 L149.80,479.66 L153.61,479.91 L157.46,480.00 L346.70,480.00 L350.42,479.92 L354.11,479.68 L361.35,478.72 L368.41,477.17 L375.25,475.03 L381.84,472.34 L388.15,469.11 L394.15,465.38 L399.81,461.17 L405.10,456.50 L409.99,451.40 L414.45,445.89 L418.44,440.00 L421.94,433.75 L424.92,427.16 L427.35,420.27 L428.35,416.72 L429.20,413.09 Z" fill="#cb6507" stroke="#1e1e1e" stroke-width="1" stroke-linejoin="round"/><path d="M21.57,32.00 L19.08,32.14 L16.69,32.56 L14.41,33.22 L12.25,34.13 L10.22,35.26 L8.33,36.60 L6.61,38.12 L5.07,39.81 L3.71,41.66 L2.56,43.65 L1.62,45.76 L0.91,47.97 L0.44,50.27 L0.24,52.64 L0.30,55.06 L0.65,57.53 L71.59,411.44 L72.42,415.14 L73.40,418.78 L74.53,422.34 L75.81,425.83 L77.23,429.24 L78.80,432.57 L82.32,438.97 L86.35,445.01 L90.85,450.65 L95.81,455.88 L101.17,460.67 L106.92,464.99 L113.02,468.82 L119.45,472.13 L126.16,474.89 L133.12,477.09 L136.69,477.97 L140.32,478.69 L143.99,479.26 L147.71,479.67 L151.46,479.92 L155.26,480.00 L394.67,480.00 L342.61,480.00 L338.79,479.92 L335.01,479.66 L331.26,479.25 L327.56,478.67 L323.92,477.94 L320.32,477.05 L313.31,474.82 L306.56,472.02 L300.11,468.66 L293.98,464.79 L288.21,460.41 L282.83,455.56 L277.88,450.27 L273.37,444.56 L269.36,438.45 L265.86,431.98 L264.31,428.62 L262.91,425.17 L261.65,421.64 L260.54,418.05 L259.59,414.37 L258.79,410.63 L189.97,49.34 L189.53,47.49 L188.94,45.71 L188.20,44.00 L187.33,42.39 L185.20,39.43 L182.61,36.90 L179.64,34.83 L176.34,33.29 L174.59,32.74 L172.78,32.33 L170.92,32.08 L169.01,32.00 L21.57,32.00 Z" fill="#fbbe16" stroke="#1e1e1e" stroke-width="1" stroke-linejoin="round"/></svg>