<svg xmlns="http://www.w3.org/2000/svg" viewBox="-1.77 1.92 100.00 92.62"><path d="M73.57,89.39 L74.11,89.51 L74.66,89.56 L75.20,89.56 L75.74,89.50 L76.27,89.37 L76.78,89.19 L77.27,88.94 L77.73,88.63 L79.52,87.18 L81.25,85.65 L82.90,84.03 L84.47,82.33 L85.96,80.55 L87.37,78.69 L88.68,76.76 L89.91,74.75 L91.03,72.70 L92.04,70.60 L92.95,68.46 L93.74,66.28 L94.43,64.07 L95.01,61.84 L95.48,59.58 L95.83,57.31 L96.08,55.02 L96.21,52.71 L96.23,50.41 L96.14,48.10 L95.93,45.79 L95.61,43.49 L95.18,41.20 L94.63,38.92 L93.96,36.67 L93.19,34.47 L92.32,32.32 L91.35,30.22 L90.27,28.17 L89.10,26.18 L87.83,24.25 L86.48,22.39 L85.03,20.60 L83.50,18.88 L81.88,17.23 L80.18,15.66 L78.40,14.18 L76.55,12.78 L74.62,11.46 L72.62,10.24 L70.84,9.27 L69.03,8.37 L67.19,7.56 L65.32,6.82 L63.43,6.17 L61.51,5.60 L59.57,5.11 L57.62,4.71 L55.65,4.39 L53.67,4.15 L51.68,3.99 L49.69,3.92 L47.69,3.93 L45.69,4.03 L43.69,4.22 L41.70,4.49 L41.20,4.59 L40.73,4.75 L40.29,4.96 L39.88,5.21 L39.50,5.50 L39.16,5.83 L38.86,6.20 L38.60,6.59 L38.37,7.01 L38.19,7.45 L38.06,7.91 L37.96,8.39 L37.92,8.88 L37.92,9.37 L37.98,9.88 L38.09,10.38 L39.39,15.23 L40.65,14.93 L41.91,14.69 L43.19,14.51 L44.46,14.40 L45.74,14.34 L47.02,14.36 L48.29,14.43 L49.56,14.56 L50.82,14.76 L52.07,15.02 L53.30,15.34 L54.52,15.72 L55.73,16.16 L56.91,16.66 L58.07,17.22 L59.21,17.84 L60.32,18.52 L61.38,19.24 L62.41,20.02 L63.39,20.84 L64.33,21.71 L65.23,22.62 L66.08,23.57 L66.88,24.56 L67.63,25.59 L68.33,26.66 L68.97,27.76 L69.57,28.89 L70.11,30.05 L70.59,31.24 L71.02,32.46 L71.38,33.70 L71.69,34.96 L71.93,36.23 L72.11,37.50 L72.22,38.78 L72.27,40.06 L72.26,41.34 L72.19,42.61 L72.05,43.88 L71.85,45.13 L71.59,46.38 L71.28,47.62 L70.90,48.84 L70.45,50.04 L69.95,51.23 L69.39,52.39 L68.77,53.53 L68.27,54.37 L67.73,55.19 L67.17,55.98 L66.58,56.75 L65.96,57.50 L65.31,58.22 L64.64,58.92 L63.95,59.59 L63.23,60.23 L62.49,60.85 L61.73,61.44 L60.94,62.00 L60.14,62.53 L59.31,63.03 L58.47,63.50 L57.61,63.94 L57.15,64.19 L56.72,64.47 L56.31,64.78 L55.93,65.11 L55.57,65.48 L55.25,65.86 L54.96,66.27 L54.71,66.70 L54.49,67.14 L54.31,67.60 L54.18,68.08 L54.09,68.56 L54.04,69.05 L54.05,69.55 L54.10,70.05 L54.21,70.55 L58.11,85.11 L73.57,89.39 Z" fill="#146c6c" stroke="#1e1e1e" stroke-width="1" stroke-linejoin="round"/><path d="M73.57,89.39 L74.11,89.51 L74.66,89.56 L75.20,89.56 L75.74,89.50 L76.27,89.37 L76.78,89.19 L77.27,88.94 L77.73,88.63 L79.52,87.18 L81.25,85.65 L82.90,84.03 L84.47,82.33 L85.96,80.55 L87.37,78.69 L88.68,76.76 L89.91,74.75 L91.03,72.70 L92.04,70.60 L92.95,68.46 L93.74,66.28 L94.43,64.07 L95.01,61.84 L95.48,59.58 L95.83,57.31 L96.08,55.02 L96.21,52.71 L96.23,50.41 L96.14,48.10 L95.93,45.79 L95.61,43.49 L95.18,41.20 L94.63,38.92 L93.96,36.67 L93.19,34.47 L92.32,32.32 L91.35,30.22 L90.27,28.17 L89.10,26.18 L87.83,24.25 L86.48,22.39 L85.03,20.60 L83.50,18.88 L81.88,17.23 L80.18,15.66 L78.40,14.18 L76.55,12.78 L74.62,11.46 L72.62,10.24 L70.84,9.27 L69.03,8.37 L67.19,7.56 L65.32,6.82 L63.43,6.17 L61.51,5.60 L59.57,5.11 L57.62,4.71 L55.65,4.39 L53.67,4.15 L51.68,3.99 L49.69,3.92 L47.69,3.93 L45.69,4.03 L43.69,4.22 L41.70,4.49 L41.20,4.59 L40.73,4.75 L40.29,4.96 L39.88,5.21 L39.50,5.50 L39.16,5.83 L38.86,6.20 L38.60,6.59 L38.37,7.01 L38.19,7.45 L38.06,7.91 L37.96,8.39 L37.92,8.88 L37.92,9.37 L37.98,9.88 L38.09,10.38 L39.39,15.23 L40.65,14.93 L41.91,14.69 L43.19,14.51 L44.46,14.40 L45.74,14.34 L47.02,14.36 L48.29,14.43 L49.56,14.56 L50.82,14.76 L52.07,15.02 L53.30,15.34 L54.52,15.72 L55.73,16.16 L56.91,16.66 L58.07,17.22 L59.21,17.84 L60.32,18.52 L61.38,19.24 L62.41,20.02 L63.39,20.84 L64.33,21.71 L65.23,22.62 L66.08,23.57 L66.88,24.56 L67.63,25.59 L68.33,26.66 L68.97,27.76 L69.57,28.89 L70.11,30.05 L70.59,31.24 L71.02,32.46 L71.38,33.70 L71.69,34.96 L71.93,36.23 L72.11,37.50 L72.22,38.78 L72.27,40.06 L72.26,41.34 L72.19,42.61 L72.05,43.88 L71.85,45.13 L71.59,46.38 L71.28,47.62 L70.90,48.84 L70.45,50.04 L69.95,51.23 L69.39,52.39 L68.77,53.53 L68.27,54.37 L67.73,55.19 L67.17,55.98 L66.58,56.75 L65.96,57.50 L65.31,58.22 L64.64,58.92 L63.95,59.59 L63.23,60.23 L62.49,60.85 L61.73,61.44 L60.94,62.00 L60.14,62.53 L59.31,63.03 L58.47,63.50 L57.61,63.94 L57.15,64.19 L56.72,64.47 L56.31,64.78 L55.93,65.11 L55.57,65.48 L55.25,65.86 L54.96,66.27 L54.71,66.70 L54.49,67.14 L54.31,67.60 L54.18,68.08 L54.09,68.56 L54.04,69.05 L54.05,69.55 L54.10,70.05 L54.21,70.55 L58.11,85.11 L73.57,89.39 Z" fill="#0e687d" stroke="#1e1e1e" stroke-width="1" stroke-linejoin="round" opacity="0.5"/><path d="M73.57,89.39 L74.11,89.51 L74.66,89.56 L75.20,89.56 L75.74,89.50 L76.27,89.37 L76.78,89.19 L77.27,88.94 L77.73,88.63 L79.52,87.18 L81.25,85.65 L82.90,84.03 L84.47,82.33 L85.96,80.55 L87.37,78.69 L88.68,76.76 L89.91,74.75 L91.03,72.70 L92.04,70.60 L92.95,68.46 L93.74,66.28 L94.43,64.07 L95.01,61.84 L95.48,59.58 L95.83,57.31 L96.08,55.02 L96.21,52.71 L96.23,50.41 L96.14,48.10 L95.93,45.79 L95.61,43.49 L95.18,41.20 L94.63,38.92 L93.96,36.67 L93.19,34.47 L92.32,32.32 L91.35,30.22 L90.27,28.17 L89.10,26.18 L87.83,24.25 L86.48,22.39 L85.03,20.60 L83.50,18.88 L81.88,17.23 L80.18,15.66 L78.40,14.18 L76.55,12.78 L74.62,11.46 L72.62,10.24 L70.84,9.27 L69.03,8.37 L67.19,7.56 L65.32,6.82 L63.43,6.17 L61.51,5.60 L59.57,5.11 L57.62,4.71 L55.65,4.39 L53.67,4.15 L51.68,3.99 L49.69,3.92 L47.69,3.93 L45.69,4.03 L43.69,4.22 L41.70,4.49 L41.20,4.59 L40.73,4.75 L40.29,4.96 L39.88,5.21 L39.50,5.50 L39.16,5.83 L38.86,6.20 L38.60,6.59 L38.37,7.01 L38.19,7.45 L38.06,7.91 L37.96,8.39 L37.92,8.88 L37.92,9.37 L37.98,9.88 L38.09,10.38 L39.39,15.23 L40.65,14.93 L41.91,14.69 L43.19,14.51 L44.46,14.40 L45.74,14.34 L47.02,14.36 L48.29,14.43 L49.56,14.56 L50.82,14.76 L52.07,15.02 L53.30,15.34 L54.52,15.72 L55.73,16.16 L56.91,16.66 L58.07,17.22 L59.21,17.84 L60.32,18.52 L61.38,19.24 L62.41,20.02 L63.39,20.84 L64.33,21.71 L65.23,22.62 L66.08,23.57 L66.88,24.56 L67.63,25.59 L68.33,26.66 L68.97,27.76 L69.57,28.89 L70.11,30.05 L70.59,31.24 L71.02,32.46 L71.38,33.70 L71.69,34.96 L71.93,36.23 L72.11,37.50 L72.22,38.78 L72.27,40.06 L72.26,41.34 L72.19,42.61 L72.05,43.88 L71.85,45.13 L71.59,46.38 L71.28,47.62 L70.90,48.84 L70.45,50.04 L69.95,51.23 L69.39,52.39 L68.77,53.53 L68.27,54.37 L67.73,55.19 L67.17,55.98 L66.58,56.75 L65.96,57.50 L65.31,58.22 L64.64,58.92 L63.95,59.59 L63.23,60.23 L62.49,60.85 L61.73,61.44 L60.94,62.00 L60.14,62.53 L59.31,63.03 L58.47,63.50 L57.61,63.94 L57.15,64.19 L56.72,64.47 L56.31,64.78 L55.93,65.11 L55.57,65.48 L55.25,65.86 L54.96,66.27 L54.71,66.70 L54.49,67.14 L54.31,67.60 L54.18,68.08 L54.09,68.56 L54.04,69.05 L54.05,69.55 L54.10,70.05 L54.21,70.55 L58.11,85.11 L73.57,89.39 Z" fill="#024169" stroke="#1e1e1e" stroke-width="1" stroke-linejoin="round"/><path d="M38.09,10.38 L38.25,10.87 L38.45,11.33 L38.69,11.76 L38.98,12.17 L39.30,12.54 L39.65,12.88 L40.03,13.19 L40.44,13.47 L40.88,13.71 L41.33,13.92 L41.80,14.10 L42.29,14.23 L42.79,14.33 L43.30,14.40 L43.82,14.42 L44.34,14.40 L45.30,14.35 L46.27,14.34 L47.23,14.36 L48.20,14.42 L49.16,14.51 L50.11,14.64 L51.06,14.81 L52.00,15.01 L52.94,15.24 L53.87,15.51 L54.79,15.81 L55.70,16.15 L56.60,16.52 L57.48,16.93 L58.35,17.37 L59.21,17.84 L60.32,18.52 L61.38,19.24 L62.41,20.02 L63.39,20.84 L64.33,21.71 L65.23,22.62 L66.08,23.57 L66.88,24.56 L67.63,25.59 L68.33,26.66 L68.97,27.76 L69.57,28.89 L70.11,30.05 L70.59,31.24 L71.02,32.46 L71.38,33.70 L71.69,34.96 L71.93,36.23 L72.11,37.50 L72.22,38.78 L72.27,40.06 L72.26,41.34 L72.19,42.61 L72.05,43.88 L71.85,45.13 L71.60,46.38 L71.28,47.62 L70.90,48.84 L70.45,50.04 L69.95,51.23 L69.39,52.39 L68.77,53.53 L68.27,54.37 L67.73,55.19 L67.17,55.98 L66.58,56.75 L65.96,57.50 L65.31,58.22 L64.64,58.92 L63.95,59.59 L63.23,60.23 L62.49,60.85 L61.73,61.44 L60.94,62.00 L60.14,62.53 L59.31,63.03 L58.47,63.50 L57.61,63.94 L57.15,64.19 L56.72,64.47 L56.31,64.77 L55.93,65.11 L55.57,65.47 L55.25,65.86 L54.96,66.27 L54.71,66.69 L54.49,67.14 L54.32,67.60 L54.18,68.07 L54.09,68.55 L54.04,69.04 L54.05,69.54 L54.10,70.04 L54.21,70.54 L57.07,81.23 L55.81,81.53 L54.55,81.77 L53.27,81.95 L52.00,82.07 L50.72,82.12 L49.44,82.10 L48.17,82.03 L46.90,81.90 L45.64,81.70 L44.39,81.44 L43.16,81.12 L41.94,80.74 L40.73,80.30 L39.55,79.80 L38.39,79.24 L37.25,78.62 L36.14,77.94 L35.08,77.22 L34.05,76.44 L33.07,75.62 L32.13,74.75 L31.23,73.84 L30.38,72.89 L29.58,71.90 L28.83,70.87 L28.13,69.80 L27.49,68.70 L26.89,67.57 L26.35,66.41 L25.87,65.22 L25.44,64.00 L25.08,62.76 L24.77,61.50 L24.53,60.23 L24.35,58.96 L24.24,57.68 L24.19,56.40 L24.20,55.12 L24.27,53.85 L24.41,52.58 L24.61,51.33 L24.87,50.08 L25.18,48.84 L25.56,47.62 L26.01,46.42 L26.51,45.23 L27.07,44.07 L27.69,42.93 L28.19,42.09 L28.73,41.27 L29.29,40.48 L29.88,39.71 L30.50,38.96 L31.15,38.24 L31.82,37.54 L32.51,36.87 L33.23,36.23 L33.97,35.61 L34.73,35.02 L35.52,34.46 L36.32,33.93 L37.15,33.43 L37.99,32.96 L38.85,32.52 L39.35,32.25 L39.82,31.94 L40.26,31.59 L40.67,31.21 L37.70,8.92 L38.09,10.38 Z" fill="#20b1a0" stroke="#1e1e1e" stroke-width="1" stroke-linejoin="round"/><path d="M42.25,25.91 L42.36,26.41 L42.41,26.91 L42.42,27.41 L42.37,27.90 L42.28,28.38 L42.15,28.86 L41.97,29.32 L41.75,29.76 L41.50,30.19 L41.21,30.60 L40.89,30.98 L40.53,31.35 L40.15,31.68 L39.74,31.99 L39.31,32.27 L38.85,32.52 L37.99,32.96 L37.15,33.43 L36.32,33.93 L35.52,34.46 L34.73,35.02 L33.97,35.61 L33.23,36.23 L32.51,36.87 L31.82,37.54 L31.15,38.24 L30.50,38.96 L29.88,39.71 L29.29,40.48 L28.73,41.27 L28.19,42.09 L27.69,42.93 L27.07,44.07 L26.51,45.23 L26.00,46.42 L25.56,47.62 L25.18,48.84 L24.86,50.08 L24.61,51.33 L24.41,52.58 L24.27,53.85 L24.20,55.12 L24.19,56.40 L24.24,57.68 L24.35,58.96 L24.53,60.23 L24.77,61.50 L25.08,62.76 L25.44,64.00 L25.87,65.22 L26.35,66.41 L26.89,67.57 L27.49,68.70 L28.13,69.80 L28.83,70.87 L29.58,71.90 L30.38,72.89 L31.23,73.84 L32.13,74.75 L33.07,75.62 L34.05,76.44 L35.08,77.22 L36.14,77.94 L37.25,78.62 L38.39,79.24 L39.55,79.80 L40.73,80.30 L41.94,80.74 L43.16,81.12 L44.39,81.44 L45.64,81.70 L46.90,81.90 L48.17,82.03 L49.44,82.10 L50.72,82.12 L52.00,82.06 L53.27,81.95 L54.54,81.77 L55.81,81.53 L57.07,81.23 L50.31,55.99 L40.95,21.05 L42.25,25.91 Z" fill="#1da59e" stroke="#1e1e1e" stroke-width="1" stroke-linejoin="round" opacity="0.13"/><path d="M54.21,70.55 L54.10,70.05 L54.05,69.55 L54.04,69.05 L54.09,68.56 L54.18,68.08 L54.31,67.60 L54.49,67.14 L54.71,66.70 L54.96,66.27 L55.25,65.86 L55.57,65.48 L55.93,65.11 L56.31,64.77 L56.72,64.47 L57.15,64.19 L57.61,63.94 L58.47,63.50 L59.31,63.03 L60.14,62.53 L60.94,62.00 L61.73,61.44 L62.49,60.85 L63.23,60.23 L63.95,59.59 L64.64,58.92 L65.31,58.22 L65.96,57.50 L66.58,56.75 L67.17,55.98 L67.73,55.19 L68.27,54.37 L68.77,53.53 L69.39,52.39 L69.95,51.23 L70.46,50.04 L70.90,48.84 L71.28,47.62 L71.60,46.38 L71.85,45.13 L72.05,43.88 L72.19,42.61 L72.26,41.34 L72.27,40.06 L72.22,38.78 L72.11,37.50 L71.93,36.23 L71.69,34.96 L71.38,33.70 L71.02,32.46 L70.59,31.24 L70.11,30.05 L69.57,28.89 L68.98,27.76 L68.33,26.66 L67.63,25.59 L66.88,24.56 L66.08,23.57 L65.23,22.62 L64.33,21.71 L63.39,20.84 L62.41,20.02 L61.38,19.24 L60.32,18.52 L59.21,17.84 L58.35,17.37 L57.48,16.93 L56.60,16.52 L55.70,16.15 L54.79,15.81 L53.87,15.51 L52.94,15.24 L52.00,15.01 L51.06,14.81 L50.11,14.64 L49.16,14.51 L48.20,14.42 L47.23,14.36 L46.27,14.34 L45.30,14.35 L44.34,14.40 L43.82,14.42 L43.30,14.40 L42.79,14.33 L42.29,14.23 L41.80,14.10 L41.33,13.92 L40.88,13.71 L40.44,13.47 L40.03,13.19 L39.65,12.88 L39.30,12.54 L38.98,12.16 L38.69,11.76 L38.45,11.33 L38.25,10.87 L38.09,10.38 L37.70,8.92 L46.15,40.47 L55.77,76.38 L54.21,70.55 Z" fill="#20ac9d" stroke="#1e1e1e" stroke-width="1" stroke-linejoin="round" opacity="0"/><path d="M18.73,7.83 L19.19,7.52 L19.68,7.27 L20.19,7.09 L20.72,6.96 L21.26,6.90 L21.80,6.90 L22.35,6.95 L22.89,7.07 L38.35,11.35 L42.25,25.91 L42.36,26.41 L42.41,26.91 L42.42,27.41 L42.37,27.90 L42.28,28.38 L42.15,28.86 L41.97,29.32 L41.75,29.76 L41.50,30.19 L41.21,30.60 L40.89,30.98 L40.53,31.35 L40.15,31.69 L39.74,31.99 L39.31,32.27 L38.85,32.52 L37.99,32.96 L37.15,33.43 L36.32,33.93 L35.52,34.46 L34.73,35.02 L33.97,35.61 L33.23,36.23 L32.51,36.87 L31.82,37.54 L31.15,38.24 L30.50,38.96 L29.88,39.71 L29.29,40.48 L28.73,41.27 L28.19,42.09 L27.69,42.93 L27.07,44.07 L26.51,45.23 L26.00,46.42 L25.56,47.62 L25.18,48.84 L24.86,50.08 L24.61,51.33 L24.41,52.58 L24.27,53.85 L24.20,55.12 L24.19,56.40 L24.24,57.68 L24.35,58.96 L24.53,60.23 L24.77,61.50 L25.08,62.76 L25.44,64.00 L25.87,65.22 L26.35,66.41 L26.89,67.57 L27.48,68.70 L28.13,69.80 L28.83,70.87 L29.58,71.90 L30.38,72.89 L31.23,73.84 L32.13,74.75 L33.07,75.62 L34.05,76.44 L35.08,77.22 L36.14,77.94 L37.25,78.62 L38.11,79.09 L38.98,79.53 L39.86,79.94 L40.76,80.31 L41.67,80.65 L42.59,80.95 L43.52,81.22 L44.46,81.45 L45.40,81.65 L46.35,81.82 L47.30,81.95 L48.26,82.04 L49.23,82.10 L50.19,82.12 L51.16,82.11 L52.12,82.06 L52.63,81.99 L53.10,81.87 L53.55,81.69 L53.96,81.46 L54.34,81.19 L54.68,80.88 L54.99,80.53 L55.26,80.15 L55.48,79.74 L55.66,79.30 L55.80,78.84 L55.89,78.37 L55.94,77.88 L55.93,77.38 L55.88,76.88 L55.77,76.38 L55.25,74.44 L58.37,86.08 L58.48,86.59 L58.54,87.09 L58.54,87.58 L58.50,88.07 L58.40,88.55 L58.27,89.01 L58.09,89.45 L57.86,89.87 L57.60,90.27 L57.30,90.63 L56.96,90.96 L56.58,91.25 L56.17,91.50 L55.73,91.71 L55.26,91.87 L54.76,91.97 L52.77,92.24 L50.77,92.43 L48.77,92.53 L46.77,92.54 L44.78,92.47 L42.79,92.31 L40.81,92.07 L38.84,91.75 L36.89,91.35 L34.95,90.86 L33.03,90.29 L31.14,89.64 L29.27,88.90 L27.43,88.09 L25.61,87.19 L23.84,86.22 L21.84,85.00 L19.91,83.68 L18.06,82.28 L16.28,80.80 L14.58,79.23 L12.96,77.58 L11.43,75.86 L9.98,74.07 L8.63,72.21 L7.36,70.28 L6.19,68.29 L5.11,66.25 L4.14,64.14 L3.26,61.99 L2.50,59.79 L1.83,57.54 L1.28,55.26 L0.85,52.97 L0.53,50.67 L0.32,48.36 L0.23,46.05 L0.25,43.75 L0.38,41.44 L0.63,39.15 L0.98,36.88 L1.45,34.62 L2.03,32.39 L2.72,30.18 L3.51,28.00 L4.42,25.86 L5.43,23.76 L6.55,21.71 L7.78,19.70 L9.09,17.77 L10.50,15.91 L11.99,14.13 L13.56,12.43 L15.21,10.81 L16.94,9.28 L18.73,7.83 Z" fill="#41e4c9" stroke="#1e1e1e" stroke-width="1" stroke-linejoin="round"/><path d="M18.73,7.83 L19.19,7.52 L19.68,7.27 L20.19,7.09 L20.72,6.96 L21.26,6.90 L21.80,6.90 L22.35,6.95 L22.89,7.07 L38.35,11.35 L42.25,25.91 L42.36,26.41 L42.41,26.91 L42.42,27.41 L42.37,27.90 L42.28,28.38 L42.15,28.86 L41.97,29.32 L41.75,29.76 L41.50,30.19 L41.21,30.60 L40.89,30.98 L40.53,31.35 L40.15,31.69 L39.74,31.99 L39.31,32.27 L38.85,32.52 L37.99,32.96 L37.15,33.43 L36.32,33.93 L35.52,34.46 L34.73,35.02 L33.97,35.61 L33.23,36.23 L32.51,36.87 L31.82,37.54 L31.15,38.24 L30.50,38.96 L29.88,39.71 L29.29,40.48 L28.73,41.27 L28.19,42.09 L27.69,42.93 L27.07,44.07 L26.51,45.23 L26.00,46.42 L25.56,47.62 L25.18,48.84 L24.86,50.08 L24.61,51.33 L24.41,52.58 L24.27,53.85 L24.20,55.12 L24.19,56.40 L24.24,57.68 L24.35,58.96 L24.53,60.23 L24.77,61.50 L25.08,62.76 L25.44,64.00 L25.87,65.22 L26.35,66.41 L26.89,67.57 L27.48,68.70 L28.13,69.80 L28.83,70.87 L29.58,71.90 L30.38,72.89 L31.23,73.84 L32.13,74.75 L33.07,75.62 L34.05,76.44 L35.08,77.22 L36.14,77.94 L37.25,78.62 L38.11,79.09 L38.98,79.53 L39.86,79.94 L40.76,80.31 L41.67,80.65 L42.59,80.95 L43.52,81.22 L44.46,81.45 L45.40,81.65 L46.35,81.82 L47.30,81.95 L48.26,82.04 L49.23,82.10 L50.19,82.12 L51.16,82.11 L52.12,82.06 L52.63,81.99 L53.10,81.87 L53.55,81.69 L53.96,81.46 L54.34,81.19 L54.68,80.88 L54.99,80.53 L55.26,80.15 L55.48,79.74 L55.66,79.30 L55.80,78.84 L55.89,78.37 L55.94,77.88 L55.93,77.38 L55.88,76.88 L55.77,76.38 L55.25,74.44 L58.37,86.08 L58.48,86.59 L58.54,87.09 L58.54,87.58 L58.50,88.07 L58.40,88.55 L58.27,89.01 L58.09,89.45 L57.86,89.87 L57.60,90.27 L57.30,90.63 L56.96,90.96 L56.58,91.25 L56.17,91.50 L55.73,91.71 L55.26,91.87 L54.76,91.97 L52.77,92.24 L50.77,92.43 L48.77,92.53 L46.77,92.54 L44.78,92.47 L42.79,92.31 L40.81,92.07 L38.84,91.75 L36.89,91.35 L34.95,90.86 L33.03,90.29 L31.14,89.64 L29.27,88.90 L27.43,88.09 L25.61,87.19 L23.84,86.22 L21.84,85.00 L19.91,83.68 L18.06,82.28 L16.28,80.80 L14.58,79.23 L12.96,77.58 L11.43,75.86 L9.98,74.07 L8.63,72.21 L7.36,70.28 L6.19,68.29 L5.11,66.25 L4.14,64.14 L3.26,61.99 L2.50,59.79 L1.83,57.54 L1.28,55.26 L0.85,52.97 L0.53,50.67 L0.32,48.36 L0.23,46.05 L0.25,43.75 L0.38,41.44 L0.63,39.15 L0.98,36.88 L1.45,34.62 L2.03,32.39 L2.72,30.18 L3.51,28.00 L4.42,25.86 L5.43,23.76 L6.55,21.71 L7.78,19.70 L9.09,17.77 L10.50,15.91 L11.99,14.13 L13.56,12.43 L15.21,10.81 L16.94,9.28 L18.73,7.83 Z" fill="#48dac4" stroke="#1e1e1e" stroke-width="1" stroke-linejoin="round" opacity="0.5"/></svg>