<svg xmlns="http://www.w3.org/2000/svg" viewBox="-2.00 -2.00 100.00 100.00"><path d="M0.00,64.00 L32.00,64.00 L32.00,96.00 L16.00,96.00 L15.18,95.98 L14.36,95.92 L13.56,95.82 L12.78,95.67 L12.00,95.50 L11.24,95.28 L10.50,95.03 L9.77,94.74 L9.06,94.42 L8.37,94.07 L7.70,93.68 L7.05,93.27 L6.43,92.82 L5.82,92.35 L5.24,91.84 L4.69,91.31 L4.16,90.76 L3.65,90.18 L3.18,89.57 L2.73,88.95 L2.32,88.30 L1.93,87.63 L1.58,86.94 L1.26,86.23 L0.97,85.50 L0.72,84.76 L0.50,84.00 L0.33,83.22 L0.18,82.44 L0.08,81.64 L0.02,80.82 L0.00,80.00 L0.00,64.00 Z" fill="#881332" stroke="#1e1e1e" stroke-width="1" stroke-linejoin="round"/><path d="M64.00,0.00 L80.00,0.00 L80.82,0.02 L81.64,0.08 L82.44,0.18 L83.22,0.33 L84.00,0.50 L84.76,0.72 L85.50,0.97 L86.23,1.26 L86.94,1.58 L87.63,1.93 L88.30,2.32 L88.95,2.73 L89.57,3.18 L90.18,3.65 L90.76,4.16 L91.31,4.69 L91.84,5.24 L92.35,5.82 L92.82,6.43 L93.27,7.05 L93.68,7.70 L94.07,8.37 L94.42,9.06 L94.74,9.77 L95.03,10.50 L95.28,11.24 L95.50,12.00 L95.67,12.78 L95.82,13.56 L95.92,14.36 L95.98,15.18 L96.00,16.00 L96.00,32.00 L64.00,32.00 L64.00,0.00 Z" fill="#a6163e" stroke="#1e1e1e" stroke-width="1" stroke-linejoin="round"/><path d="M40.00,96.00 L41.24,95.97 L42.45,95.88 L43.66,95.72 L44.84,95.51 L46.00,95.24 L47.14,94.92 L48.25,94.54 L49.34,94.11 L50.41,93.63 L51.44,93.10 L52.44,92.53 L53.42,91.90 L54.36,91.23 L55.27,90.52 L56.14,89.77 L56.97,88.97 L57.77,88.14 L58.52,87.27 L59.23,86.36 L59.90,85.42 L60.53,84.44 L61.10,83.44 L61.63,82.40 L62.11,81.34 L62.54,80.25 L62.92,79.14 L63.24,78.00 L63.51,76.84 L63.72,75.65 L63.88,74.45 L63.97,73.24 L64.00,72.00 L64.00,16.00 L64.02,15.18 L64.08,14.36 L64.18,13.56 L64.33,12.78 L64.50,12.00 L64.72,11.24 L64.97,10.50 L65.26,9.77 L65.58,9.06 L65.93,8.37 L66.32,7.70 L66.73,7.05 L67.18,6.43 L67.65,5.82 L68.16,5.24 L68.69,4.69 L69.24,4.16 L69.82,3.65 L70.43,3.18 L71.05,2.73 L71.70,2.32 L72.37,1.93 L73.06,1.58 L73.77,1.26 L74.50,0.97 L75.24,0.72 L76.00,0.50 L76.78,0.33 L77.56,0.18 L78.36,0.08 L79.18,0.02 L80.00,0.00 L56.00,-0.00 L54.77,0.03 L53.55,0.12 L52.35,0.28 L51.16,0.49 L50.00,0.76 L48.86,1.08 L47.75,1.46 L46.66,1.89 L45.60,2.37 L44.56,2.90 L43.56,3.47 L42.58,4.10 L41.64,4.77 L40.73,5.48 L39.86,6.23 L39.03,7.03 L38.23,7.86 L37.48,8.73 L36.77,9.64 L36.10,10.58 L35.47,11.56 L34.90,12.56 L34.37,13.60 L33.89,14.66 L33.46,15.75 L33.08,16.86 L32.76,18.00 L32.49,19.16 L32.28,20.35 L32.12,21.55 L32.03,22.76 L32.00,24.00 L32.00,80.00 L31.98,80.82 L31.92,81.64 L31.82,82.44 L31.68,83.22 L31.50,84.00 L31.28,84.76 L31.03,85.50 L30.74,86.23 L30.42,86.94 L30.07,87.63 L29.68,88.30 L29.27,88.95 L28.82,89.57 L28.35,90.18 L27.84,90.76 L27.31,91.31 L26.76,91.84 L26.18,92.35 L25.57,92.82 L24.95,93.27 L24.30,93.68 L23.63,94.07 L22.94,94.42 L22.23,94.74 L21.50,95.03 L20.76,95.28 L20.00,95.50 L19.22,95.67 L18.44,95.82 L17.64,95.92 L16.82,95.98 L16.00,96.00 L40.00,96.00 Z" fill="#e23d35" stroke="#1e1e1e" stroke-width="1" stroke-linejoin="round"/><path d="M40.00,96.00 L41.24,95.97 L42.45,95.88 L43.66,95.72 L44.84,95.51 L46.00,95.24 L47.14,94.92 L48.25,94.54 L49.34,94.11 L50.41,93.63 L51.44,93.10 L52.44,92.53 L53.42,91.90 L54.36,91.23 L55.27,90.52 L56.14,89.77 L56.97,88.97 L57.77,88.14 L58.52,87.27 L59.23,86.36 L59.90,85.42 L60.53,84.44 L61.10,83.44 L61.63,82.40 L62.11,81.34 L62.54,80.25 L62.92,79.14 L63.24,78.00 L63.51,76.84 L63.72,75.65 L63.88,74.45 L63.97,73.24 L64.00,72.00 L64.00,16.00 L64.02,15.18 L64.08,14.36 L64.18,13.56 L64.33,12.78 L64.50,12.00 L64.72,11.24 L64.97,10.50 L65.26,9.77 L65.58,9.06 L65.93,8.37 L66.32,7.70 L66.73,7.05 L67.18,6.43 L67.65,5.82 L68.16,5.24 L68.69,4.69 L69.24,4.16 L69.82,3.65 L70.43,3.18 L71.05,2.73 L71.70,2.32 L72.37,1.93 L73.06,1.58 L73.77,1.26 L74.50,0.97 L75.24,0.72 L76.00,0.50 L76.78,0.33 L77.56,0.18 L78.36,0.08 L79.18,0.02 L80.00,0.00 L56.00,-0.00 L54.77,0.03 L53.55,0.12 L52.35,0.28 L51.16,0.49 L50.00,0.76 L48.86,1.08 L47.75,1.46 L46.66,1.89 L45.60,2.37 L44.56,2.90 L43.56,3.47 L42.58,4.10 L41.64,4.77 L40.73,5.48 L39.86,6.23 L39.03,7.03 L38.23,7.86 L37.48,8.73 L36.77,9.64 L36.10,10.58 L35.47,11.56 L34.90,12.56 L34.37,13.60 L33.89,14.66 L33.46,15.75 L33.08,16.86 L32.76,18.00 L32.49,19.16 L32.28,20.35 L32.12,21.55 L32.03,22.76 L32.00,24.00 L32.00,80.00 L31.98,80.82 L31.92,81.64 L31.82,82.44 L31.68,83.22 L31.50,84.00 L31.28,84.76 L31.03,85.50 L30.74,86.23 L30.42,86.94 L30.07,87.63 L29.68,88.30 L29.27,88.95 L28.82,89.57 L28.35,90.18 L27.84,90.76 L27.31,91.31 L26.76,91.84 L26.18,92.35 L25.57,92.82 L24.95,93.27 L24.30,93.68 L23.63,94.07 L22.94,94.42 L22.23,94.74 L21.50,95.03 L20.76,95.28 L20.00,95.50 L19.22,95.67 L18.44,95.82 L17.64,95.92 L16.82,95.98 L16.00,96.00 L40.00,96.00 Z" fill="#aa1d2d" stroke="#1e1e1e" stroke-width="1" stroke-linejoin="round"/><path d="M0.00,56.00 L0.03,54.76 L0.12,53.55 L0.28,52.35 L0.49,51.16 L0.76,50.00 L1.08,48.86 L1.46,47.75 L1.89,46.66 L2.37,45.60 L2.90,44.56 L3.47,43.56 L4.10,42.58 L4.77,41.64 L5.48,40.73 L6.23,39.86 L7.03,39.03 L7.86,38.23 L8.73,37.48 L9.64,36.77 L10.58,36.10 L11.56,35.47 L12.56,34.90 L13.60,34.37 L14.66,33.89 L15.75,33.46 L16.86,33.08 L18.00,32.76 L19.16,32.49 L20.35,32.28 L21.55,32.12 L22.76,32.03 L24.00,32.00 L80.00,32.00 L80.82,31.98 L81.64,31.92 L82.44,31.82 L83.22,31.67 L84.00,31.50 L84.76,31.28 L85.50,31.03 L86.23,30.74 L86.94,30.42 L87.63,30.07 L88.30,29.68 L88.95,29.27 L89.57,28.82 L90.18,28.35 L90.76,27.84 L91.31,27.31 L91.84,26.76 L92.35,26.18 L92.82,25.57 L93.27,24.95 L93.68,24.30 L94.07,23.63 L94.42,22.94 L94.74,22.23 L95.03,21.50 L95.28,20.76 L95.50,20.00 L95.67,19.22 L95.82,18.44 L95.92,17.64 L95.98,16.82 L96.00,16.00 L96.00,40.00 L95.97,41.24 L95.88,42.45 L95.72,43.65 L95.51,44.84 L95.24,46.00 L94.92,47.14 L94.54,48.25 L94.11,49.34 L93.63,50.40 L93.10,51.44 L92.53,52.44 L91.90,53.42 L91.23,54.36 L90.52,55.27 L89.77,56.14 L88.97,56.97 L88.14,57.77 L87.27,58.52 L86.36,59.23 L85.42,59.90 L84.44,60.53 L83.44,61.10 L82.40,61.63 L81.34,62.11 L80.25,62.54 L79.14,62.92 L78.00,63.24 L76.84,63.51 L75.65,63.72 L74.45,63.88 L73.24,63.97 L72.00,64.00 L16.00,64.00 L15.18,64.02 L14.36,64.08 L13.56,64.18 L12.78,64.33 L12.00,64.50 L11.24,64.72 L10.50,64.97 L9.77,65.26 L9.06,65.58 L8.37,65.93 L7.70,66.32 L7.05,66.73 L6.43,67.18 L5.82,67.65 L5.24,68.16 L4.69,68.69 L4.16,69.24 L3.65,69.82 L3.18,70.43 L2.73,71.05 L2.32,71.70 L1.93,72.37 L1.58,73.06 L1.26,73.77 L0.97,74.50 L0.72,75.24 L0.50,76.00 L0.33,76.78 L0.18,77.56 L0.08,78.36 L0.02,79.18 L0.00,80.00 L0.00,56.00 Z" fill="#ff845a" stroke="#1e1e1e" stroke-width="1" stroke-linejoin="round"/></svg>