<svg xmlns="http://www.w3.org/2000/svg" viewBox="2.36 2.91 100.00 99.45"><path d="M67.64,7.09 L68.38,6.58 L69.15,6.14 L69.95,5.76 L70.77,5.45 L71.61,5.22 L72.46,5.05 L73.32,4.94 L74.18,4.91 L75.04,4.94 L75.90,5.05 L76.75,5.22 L77.59,5.45 L78.41,5.76 L79.21,6.14 L79.98,6.58 L80.73,7.09 L96.00,18.55 L96.50,18.95 L96.98,19.37 L97.42,19.82 L97.84,20.30 L98.23,20.79 L98.59,21.31 L98.92,21.84 L99.21,22.39 L99.48,22.96 L99.71,23.55 L99.90,24.14 L100.07,24.75 L100.20,25.37 L100.29,26.00 L100.34,26.63 L100.36,27.27 L100.36,82.91 L4.36,82.91 L4.36,60.00 L4.38,59.36 L4.44,58.72 L4.53,58.10 L4.66,57.48 L4.82,56.87 L5.02,56.27 L5.25,55.69 L5.52,55.12 L5.81,54.57 L6.14,54.03 L6.50,53.52 L6.89,53.02 L7.30,52.55 L7.75,52.10 L8.23,51.67 L8.73,51.27 L67.64,7.09 Z" fill="#21836d" stroke="#1e1e1e" stroke-width="1" stroke-linejoin="round"/><path d="M67.64,7.09 L68.38,6.58 L69.15,6.14 L69.95,5.76 L70.77,5.45 L71.61,5.22 L72.46,5.05 L73.32,4.94 L74.18,4.91 L75.04,4.94 L75.90,5.05 L76.75,5.22 L77.59,5.45 L78.41,5.76 L79.21,6.14 L79.98,6.58 L80.73,7.09 L96.00,18.55 L96.50,18.95 L96.98,19.37 L97.42,19.82 L97.84,20.30 L98.23,20.79 L98.59,21.31 L98.92,21.84 L99.21,22.39 L99.48,22.96 L99.71,23.55 L99.90,24.14 L100.07,24.75 L100.20,25.37 L100.29,26.00 L100.34,26.63 L100.36,27.27 L100.36,82.91 L4.36,82.91 L4.36,60.00 L4.38,59.36 L4.44,58.72 L4.53,58.10 L4.66,57.48 L4.82,56.87 L5.02,56.27 L5.25,55.69 L5.52,55.12 L5.81,54.57 L6.14,54.03 L6.50,53.52 L6.89,53.02 L7.30,52.55 L7.75,52.10 L8.23,51.67 L8.73,51.27 L67.64,7.09 Z" fill="#10687c" stroke="#1e1e1e" stroke-width="1" stroke-linejoin="round" opacity="0.5"/><path d="M67.64,46.36 L68.38,46.87 L69.15,47.32 L69.95,47.69 L70.77,48.00 L71.61,48.24 L72.46,48.41 L73.32,48.51 L74.18,48.55 L75.04,48.51 L75.90,48.41 L76.75,48.24 L77.59,48.00 L78.41,47.69 L79.21,47.32 L79.98,46.87 L80.73,46.36 L96.00,34.91 L96.50,34.51 L96.98,34.08 L97.42,33.63 L97.84,33.16 L98.23,32.66 L98.59,32.15 L98.92,31.61 L99.21,31.06 L99.48,30.49 L99.71,29.91 L99.90,29.31 L100.07,28.70 L100.20,28.09 L100.29,27.46 L100.34,26.82 L100.36,26.18 L100.36,21.82 L100.36,89.45 L100.31,90.57 L100.14,91.65 L99.87,92.70 L99.51,93.70 L99.05,94.65 L98.50,95.55 L97.87,96.39 L97.17,97.17 L96.39,97.87 L95.55,98.50 L94.65,99.05 L93.70,99.51 L92.70,99.87 L91.65,100.14 L90.57,100.31 L89.45,100.36 L21.82,100.36 L20.92,100.34 L20.03,100.27 L19.16,100.16 L18.30,100.01 L17.46,99.81 L16.63,99.58 L15.82,99.30 L15.02,98.99 L14.25,98.64 L13.50,98.26 L12.77,97.84 L12.06,97.38 L11.37,96.90 L10.72,96.38 L10.08,95.83 L9.48,95.25 L8.90,94.65 L8.35,94.01 L7.83,93.35 L7.34,92.67 L6.89,91.96 L6.47,91.23 L6.08,90.48 L5.74,89.70 L5.42,88.91 L5.15,88.10 L4.91,87.27 L4.72,86.43 L4.56,85.57 L4.45,84.69 L4.39,83.81 L4.36,82.91 L4.39,81.88 L4.48,80.87 L4.63,79.86 L4.84,78.87 L5.10,77.90 L5.41,76.95 L5.78,76.01 L6.21,75.10 L6.68,74.22 L7.20,73.36 L7.78,72.54 L8.40,71.75 L9.07,70.99 L9.78,70.27 L10.54,69.59 L11.35,68.95 L48.00,41.45 L48.74,40.94 L49.52,40.50 L50.32,40.12 L51.14,39.82 L51.97,39.58 L52.82,39.41 L53.68,39.31 L54.55,39.27 L55.41,39.31 L56.27,39.41 L57.12,39.58 L57.95,39.82 L58.77,40.12 L59.57,40.50 L60.35,40.94 L61.09,41.45 L67.64,46.36 Z" fill="#48bb6e" stroke="#1e1e1e" stroke-width="1" stroke-linejoin="round"/><path d="M67.64,46.36 L68.38,46.87 L69.15,47.32 L69.95,47.69 L70.77,48.00 L71.61,48.24 L72.46,48.41 L73.32,48.51 L74.18,48.55 L75.04,48.51 L75.90,48.41 L76.75,48.24 L77.59,48.00 L78.41,47.69 L79.21,47.32 L79.98,46.87 L80.73,46.36 L96.00,34.91 L96.50,34.51 L96.98,34.08 L97.42,33.63 L97.84,33.16 L98.23,32.66 L98.59,32.15 L98.92,31.61 L99.21,31.06 L99.48,30.49 L99.71,29.91 L99.90,29.31 L100.07,28.70 L100.20,28.09 L100.29,27.46 L100.34,26.82 L100.36,26.18 L100.36,21.82 L100.36,89.45 L100.31,90.57 L100.14,91.65 L99.87,92.70 L99.51,93.70 L99.05,94.65 L98.50,95.55 L97.87,96.39 L97.17,97.17 L96.39,97.87 L95.55,98.50 L94.65,99.05 L93.70,99.51 L92.70,99.87 L91.65,100.14 L90.57,100.31 L89.45,100.36 L21.82,100.36 L20.92,100.34 L20.03,100.27 L19.16,100.16 L18.30,100.01 L17.46,99.81 L16.63,99.58 L15.82,99.30 L15.02,98.99 L14.25,98.64 L13.50,98.26 L12.77,97.84 L12.06,97.38 L11.37,96.90 L10.72,96.38 L10.08,95.83 L9.48,95.25 L8.90,94.65 L8.35,94.01 L7.83,93.35 L7.34,92.67 L6.89,91.96 L6.47,91.23 L6.08,90.48 L5.74,89.70 L5.42,88.91 L5.15,88.10 L4.91,87.27 L4.72,86.43 L4.56,85.57 L4.45,84.69 L4.39,83.81 L4.36,82.91 L4.39,81.88 L4.48,80.87 L4.63,79.86 L4.84,78.87 L5.10,77.90 L5.41,76.95 L5.78,76.01 L6.21,75.10 L6.68,74.22 L7.20,73.36 L7.78,72.54 L8.40,71.75 L9.07,70.99 L9.78,70.27 L10.54,69.59 L11.35,68.95 L48.00,41.45 L48.74,40.94 L49.52,40.50 L50.32,40.12 L51.14,39.82 L51.97,39.58 L52.82,39.41 L53.68,39.31 L54.55,39.27 L55.41,39.31 L56.27,39.41 L57.12,39.58 L57.95,39.82 L58.77,40.12 L59.57,40.50 L60.35,40.94 L61.09,41.45 L67.64,46.36 Z" fill="#6cd273" stroke="#1e1e1e" stroke-width="1" stroke-linejoin="round" opacity="0.5"/><path d="M67.64,46.36 L68.38,46.87 L69.15,47.32 L69.95,47.69 L70.77,48.00 L71.61,48.24 L72.46,48.41 L73.32,48.51 L74.18,48.55 L75.04,48.51 L75.90,48.41 L76.75,48.24 L77.59,48.00 L78.41,47.69 L79.21,47.32 L79.98,46.87 L80.73,46.36 L96.00,34.91 L96.50,34.51 L96.98,34.08 L97.42,33.63 L97.84,33.16 L98.23,32.66 L98.59,32.15 L98.92,31.61 L99.21,31.06 L99.48,30.49 L99.71,29.91 L99.90,29.31 L100.07,28.70 L100.20,28.09 L100.29,27.46 L100.34,26.82 L100.36,26.18 L100.36,21.82 L100.36,89.45 L100.31,90.57 L100.14,91.65 L99.87,92.70 L99.51,93.70 L99.05,94.65 L98.50,95.55 L97.87,96.39 L97.17,97.17 L96.39,97.87 L95.55,98.50 L94.65,99.05 L93.70,99.51 L92.70,99.87 L91.65,100.14 L90.57,100.31 L89.45,100.36 L21.82,100.36 L20.92,100.34 L20.03,100.27 L19.16,100.16 L18.30,100.01 L17.46,99.81 L16.63,99.58 L15.82,99.30 L15.02,98.99 L14.25,98.64 L13.50,98.26 L12.77,97.84 L12.06,97.38 L11.37,96.90 L10.72,96.38 L10.08,95.83 L9.48,95.25 L8.90,94.65 L8.35,94.01 L7.83,93.35 L7.34,92.67 L6.89,91.96 L6.47,91.23 L6.08,90.48 L5.74,89.70 L5.42,88.91 L5.15,88.10 L4.91,87.27 L4.72,86.43 L4.56,85.57 L4.45,84.69 L4.39,83.81 L4.36,82.91 L4.39,81.88 L4.48,80.87 L4.63,79.86 L4.84,78.87 L5.10,77.90 L5.41,76.95 L5.78,76.01 L6.21,75.10 L6.68,74.22 L7.20,73.36 L7.78,72.54 L8.40,71.75 L9.07,70.99 L9.78,70.27 L10.54,69.59 L11.35,68.95 L48.00,41.45 L48.74,40.94 L49.52,40.50 L50.32,40.12 L51.14,39.82 L51.97,39.58 L52.82,39.41 L53.68,39.31 L54.55,39.27 L55.41,39.31 L56.27,39.41 L57.12,39.58 L57.95,39.82 L58.77,40.12 L59.57,40.50 L60.35,40.94 L61.09,41.45 L67.64,46.36 Z" fill="#279688" stroke="#1e1e1e" stroke-width="1" stroke-linejoin="round" opacity="0.5"/><path d="M100.36,89.45 L100.36,68.52 L100.35,67.90 L100.29,67.28 L100.21,66.68 L100.09,66.08 L99.94,65.49 L99.75,64.91 L99.53,64.34 L99.29,63.79 L99.01,63.25 L98.70,62.73 L98.37,62.22 L98.00,61.74 L97.61,61.27 L97.19,60.82 L96.74,60.40 L96.27,60.00 L96.05,59.82 L95.31,59.28 L94.53,58.80 L93.72,58.40 L92.89,58.06 L92.04,57.80 L91.17,57.61 L90.29,57.49 L89.41,57.44 L88.53,57.46 L87.65,57.55 L86.77,57.72 L85.91,57.95 L85.07,58.26 L84.25,58.64 L83.46,59.09 L82.69,59.62 L33.02,96.87 L31.86,97.67 L30.64,98.37 L29.37,98.97 L28.07,99.47 L26.72,99.86 L25.35,100.14 L23.96,100.31 L22.55,100.36 L89.45,100.36 L90.57,100.31 L91.65,100.14 L92.70,99.87 L93.70,99.51 L94.65,99.05 L95.55,98.50 L96.39,97.87 L97.17,97.17 L97.87,96.39 L98.50,95.55 L99.05,94.65 L99.51,93.70 L99.87,92.70 L100.14,91.65 L100.31,90.57 L100.36,89.45 Z" fill="#97eb78" stroke="#1e1e1e" stroke-width="1" stroke-linejoin="round"/><path d="M100.36,89.45 L100.36,68.52 L100.35,67.90 L100.29,67.28 L100.21,66.68 L100.09,66.08 L99.94,65.49 L99.75,64.91 L99.53,64.34 L99.29,63.79 L99.01,63.25 L98.70,62.73 L98.37,62.22 L98.00,61.74 L97.61,61.27 L97.19,60.82 L96.74,60.40 L96.27,60.00 L96.05,59.82 L95.31,59.28 L94.53,58.80 L93.72,58.40 L92.89,58.06 L92.04,57.80 L91.17,57.61 L90.29,57.49 L89.41,57.44 L88.53,57.46 L87.65,57.55 L86.77,57.72 L85.91,57.95 L85.07,58.26 L84.25,58.64 L83.46,59.09 L82.69,59.62 L33.02,96.87 L31.86,97.67 L30.64,98.37 L29.37,98.97 L28.07,99.47 L26.72,99.86 L25.35,100.14 L23.96,100.31 L22.55,100.36 L89.45,100.36 L90.57,100.31 L91.65,100.14 L92.70,99.87 L93.70,99.51 L94.65,99.05 L95.55,98.50 L96.39,97.87 L97.17,97.17 L97.87,96.39 L98.50,95.55 L99.05,94.65 L99.51,93.70 L99.87,92.70 L100.14,91.65 L100.31,90.57 L100.36,89.45 Z" fill="#b6e47c" stroke="#1e1e1e" stroke-width="1" stroke-linejoin="round" opacity="0.39"/></svg>