<svg xmlns="http://www.w3.org/2000/svg" viewBox="-2.00 -2.00 516.00 516.00"><path d="M0.00,341.33 L170.67,341.33 L170.67,512.00 L85.33,512.00 L80.94,511.89 L76.61,511.56 L72.34,511.02 L68.14,510.27 L64.01,509.31 L59.96,508.16 L55.99,506.82 L52.12,505.29 L48.34,503.59 L44.66,501.70 L41.08,499.65 L37.62,497.43 L34.28,495.05 L31.05,492.51 L27.96,489.83 L24.99,487.01 L22.17,484.04 L19.49,480.95 L16.95,477.72 L14.57,474.38 L12.35,470.92 L10.30,467.34 L8.41,463.66 L6.71,459.88 L5.18,456.01 L3.84,452.04 L2.69,447.99 L1.73,443.86 L0.98,439.66 L0.44,435.39 L0.11,431.06 L0.00,426.67 L0.00,341.33 Z" fill="#881332" stroke="#1e1e1e" stroke-width="1" stroke-linejoin="round"/><path d="M341.33,0.00 L426.67,0.00 L431.06,0.11 L435.39,0.44 L439.66,0.98 L443.86,1.73 L447.99,2.69 L452.04,3.84 L456.01,5.18 L459.88,6.71 L463.66,8.41 L467.34,10.30 L470.92,12.35 L474.38,14.57 L477.72,16.95 L480.95,19.49 L484.04,22.17 L487.01,24.99 L489.83,27.96 L492.51,31.05 L495.05,34.28 L497.43,37.62 L499.65,41.08 L501.70,44.66 L503.59,48.34 L505.29,52.12 L506.82,55.99 L508.16,59.96 L509.31,64.01 L510.27,68.14 L511.02,72.34 L511.56,76.61 L511.89,80.94 L512.00,85.33 L512.00,170.67 L341.33,170.67 L341.33,0.00 Z" fill="#a6163e" stroke="#1e1e1e" stroke-width="1" stroke-linejoin="round"/><path d="M213.33,512.00 L219.92,511.83 L226.42,511.34 L232.83,510.53 L239.13,509.40 L245.32,507.97 L251.40,506.25 L257.34,504.23 L263.16,501.94 L268.83,499.38 L274.35,496.55 L279.71,493.47 L284.90,490.14 L289.92,486.57 L294.75,482.77 L299.40,478.75 L303.84,474.51 L308.08,470.06 L312.10,465.42 L315.90,460.58 L319.47,455.57 L322.80,450.37 L325.88,445.01 L328.71,439.49 L331.27,433.82 L333.57,428.01 L335.58,422.06 L337.30,415.99 L338.73,409.80 L339.86,403.49 L340.67,397.09 L341.17,390.59 L341.33,384.00 L341.33,85.33 L341.44,80.94 L341.77,76.61 L342.32,72.34 L343.07,68.14 L344.02,64.01 L345.17,59.96 L346.51,55.99 L348.04,52.12 L349.75,48.34 L351.63,44.66 L353.69,41.08 L355.91,37.62 L358.29,34.28 L360.82,31.05 L363.50,27.96 L366.33,24.99 L369.29,22.17 L372.39,19.49 L375.61,16.95 L378.96,14.57 L382.42,12.35 L385.99,10.30 L389.67,8.41 L393.45,6.71 L397.33,5.18 L401.29,3.84 L405.34,2.69 L409.47,1.73 L413.67,0.98 L417.94,0.44 L422.28,0.11 L426.67,0.00 L298.67,-0.00 L292.08,0.17 L285.58,0.66 L279.17,1.47 L272.87,2.60 L266.68,4.03 L260.60,5.75 L254.66,7.77 L248.84,10.06 L243.17,12.62 L237.65,15.45 L232.29,18.53 L227.10,21.86 L222.08,25.43 L217.25,29.23 L212.60,33.25 L208.16,37.49 L203.92,41.94 L199.90,46.58 L196.10,51.42 L192.53,56.43 L189.20,61.63 L186.12,66.99 L183.29,72.51 L180.73,78.18 L178.43,83.99 L176.42,89.94 L174.70,96.01 L173.27,102.20 L172.14,108.51 L171.33,114.91 L170.83,121.41 L170.67,128.00 L170.67,426.67 L170.56,431.06 L170.23,435.39 L169.68,439.66 L168.93,443.86 L167.98,447.99 L166.83,452.04 L165.49,456.01 L163.96,459.88 L162.25,463.66 L160.37,467.34 L158.31,470.92 L156.09,474.38 L153.71,477.72 L151.18,480.95 L148.50,484.04 L145.67,487.01 L142.71,489.83 L139.61,492.51 L136.39,495.05 L133.04,497.43 L129.58,499.65 L126.01,501.70 L122.33,503.59 L118.55,505.29 L114.67,506.82 L110.71,508.16 L106.66,509.31 L102.53,510.27 L98.33,511.02 L94.06,511.56 L89.73,511.89 L85.33,512.00 L213.33,512.00 Z" fill="#e23d35" stroke="#1e1e1e" stroke-width="1" stroke-linejoin="round"/><path d="M213.33,512.00 L219.92,511.83 L226.42,511.34 L232.83,510.53 L239.13,509.40 L245.32,507.97 L251.40,506.25 L257.34,504.23 L263.16,501.94 L268.83,499.38 L274.35,496.55 L279.71,493.47 L284.90,490.14 L289.92,486.57 L294.75,482.77 L299.40,478.75 L303.84,474.51 L308.08,470.06 L312.10,465.42 L315.90,460.58 L319.47,455.57 L322.80,450.37 L325.88,445.01 L328.71,439.49 L331.27,433.82 L333.57,428.01 L335.58,422.06 L337.30,415.99 L338.73,409.80 L339.86,403.49 L340.67,397.09 L341.17,390.59 L341.33,384.00 L341.33,85.33 L341.44,80.94 L341.77,76.61 L342.32,72.34 L343.07,68.14 L344.02,64.01 L345.17,59.96 L346.51,55.99 L348.04,52.12 L349.75,48.34 L351.63,44.66 L353.69,41.08 L355.91,37.62 L358.29,34.28 L360.82,31.05 L363.50,27.96 L366.33,24.99 L369.29,22.17 L372.39,19.49 L375.61,16.95 L378.96,14.57 L382.42,12.35 L385.99,10.30 L389.67,8.41 L393.45,6.71 L397.33,5.18 L401.29,3.84 L405.34,2.69 L409.47,1.73 L413.67,0.98 L417.94,0.44 L422.28,0.11 L426.67,0.00 L298.67,-0.00 L292.08,0.17 L285.58,0.66 L279.17,1.47 L272.87,2.60 L266.68,4.03 L260.60,5.75 L254.66,7.77 L248.84,10.06 L243.17,12.62 L237.65,15.45 L232.29,18.53 L227.10,21.86 L222.08,25.43 L217.25,29.23 L212.60,33.25 L208.16,37.49 L203.92,41.94 L199.90,46.58 L196.10,51.42 L192.53,56.43 L189.20,61.63 L186.12,66.99 L183.29,72.51 L180.73,78.18 L178.43,83.99 L176.42,89.94 L174.70,96.01 L173.27,102.20 L172.14,108.51 L171.33,114.91 L170.83,121.41 L170.67,128.00 L170.67,426.67 L170.56,431.06 L170.23,435.39 L169.68,439.66 L168.93,443.86 L167.98,447.99 L166.83,452.04 L165.49,456.01 L163.96,459.88 L162.25,463.66 L160.37,467.34 L158.31,470.92 L156.09,474.38 L153.71,477.72 L151.18,480.95 L148.50,484.04 L145.67,487.01 L142.71,489.83 L139.61,492.51 L136.39,495.05 L133.04,497.43 L129.58,499.65 L126.01,501.70 L122.33,503.59 L118.55,505.29 L114.67,506.82 L110.71,508.16 L106.66,509.31 L102.53,510.27 L98.33,511.02 L94.06,511.56 L89.73,511.89 L85.33,512.00 L213.33,512.00 Z" fill="#aa1d2d" stroke="#1e1e1e" stroke-width="1" stroke-linejoin="round"/><path d="M0.00,298.67 L0.17,292.08 L0.66,285.58 L1.47,279.17 L2.60,272.87 L4.03,266.68 L5.75,260.60 L7.77,254.66 L10.06,248.84 L12.62,243.17 L15.45,237.65 L18.53,232.29 L21.86,227.10 L25.43,222.08 L29.23,217.25 L33.25,212.60 L37.49,208.16 L41.94,203.92 L46.58,199.90 L51.42,196.10 L56.43,192.53 L61.63,189.20 L66.99,186.12 L72.51,183.29 L78.18,180.73 L83.99,178.43 L89.94,176.42 L96.01,174.70 L102.20,173.27 L108.51,172.14 L114.91,171.33 L121.41,170.83 L128.00,170.67 L426.67,170.67 L431.06,170.56 L435.39,170.23 L439.66,169.68 L443.86,168.93 L447.99,167.98 L452.04,166.83 L456.01,165.49 L459.88,163.96 L463.66,162.25 L467.34,160.37 L470.92,158.31 L474.38,156.09 L477.72,153.71 L480.95,151.18 L484.04,148.50 L487.01,145.67 L489.83,142.71 L492.51,139.61 L495.05,136.39 L497.43,133.04 L499.65,129.58 L501.70,126.01 L503.59,122.33 L505.29,118.55 L506.82,114.67 L508.16,110.71 L509.31,106.66 L510.27,102.53 L511.02,98.33 L511.56,94.06 L511.89,89.72 L512.00,85.33 L512.00,213.33 L511.83,219.92 L511.34,226.42 L510.53,232.83 L509.40,239.13 L507.97,245.32 L506.25,251.40 L504.23,257.34 L501.94,263.16 L499.38,268.83 L496.55,274.35 L493.47,279.71 L490.14,284.90 L486.57,289.92 L482.77,294.75 L478.75,299.40 L474.51,303.84 L470.06,308.08 L465.42,312.10 L460.58,315.90 L455.57,319.47 L450.37,322.80 L445.01,325.88 L439.49,328.71 L433.82,331.27 L428.01,333.57 L422.06,335.58 L415.99,337.30 L409.80,338.73 L403.49,339.86 L397.09,340.67 L390.59,341.17 L384.00,341.33 L85.33,341.33 L80.94,341.44 L76.61,341.77 L72.34,342.32 L68.14,343.07 L64.01,344.02 L59.96,345.17 L55.99,346.51 L52.12,348.04 L48.34,349.75 L44.66,351.63 L41.08,353.69 L37.62,355.91 L34.28,358.29 L31.05,360.82 L27.96,363.50 L24.99,366.33 L22.17,369.29 L19.49,372.39 L16.95,375.61 L14.57,378.96 L12.35,382.42 L10.30,385.99 L8.41,389.67 L6.71,393.45 L5.18,397.33 L3.84,401.29 L2.69,405.34 L1.73,409.47 L0.98,413.67 L0.44,417.94 L0.11,422.28 L0.00,426.67 L0.00,298.67 Z" fill="#ff845a" stroke="#1e1e1e" stroke-width="1" stroke-linejoin="round"/></svg>