<svg xmlns="http://www.w3.org/2000/svg" viewBox="-2.00 -2.00 100.00 100.00"><path d="M0.00,48.00 L0.02,47.38 L0.06,46.77 L0.14,46.17 L0.24,45.58 L0.54,44.43 L0.94,43.33 L1.45,42.28 L2.05,41.29 L2.74,40.37 L3.51,39.51 L4.37,38.74 L5.29,38.05 L6.28,37.45 L7.33,36.94 L8.43,36.54 L9.58,36.24 L10.17,36.14 L10.77,36.06 L11.38,36.02 L12.00,36.00 L16.00,36.00 L16.00,60.00 L12.00,60.00 L11.38,59.98 L10.77,59.94 L10.17,59.86 L9.58,59.76 L8.43,59.46 L7.33,59.06 L6.28,58.55 L5.29,57.95 L4.37,57.26 L3.51,56.49 L2.74,55.63 L2.05,54.71 L1.45,53.72 L0.94,52.67 L0.54,51.57 L0.24,50.42 L0.14,49.83 L0.06,49.23 L0.02,48.62 L0.00,48.00 Z" fill="#16369a" stroke="#1e1e1e" stroke-width="1" stroke-linejoin="round"/><path d="M0.00,48.00 L0.02,47.38 L0.06,46.77 L0.14,46.17 L0.24,45.58 L0.54,44.43 L0.94,43.33 L1.45,42.28 L2.05,41.29 L2.74,40.37 L3.51,39.51 L4.37,38.74 L5.29,38.05 L6.28,37.45 L7.33,36.94 L8.43,36.54 L9.58,36.24 L10.17,36.14 L10.77,36.06 L11.38,36.02 L12.00,36.00 L16.00,36.00 L16.00,60.00 L12.00,60.00 L11.38,59.98 L10.77,59.94 L10.17,59.86 L9.58,59.76 L8.43,59.46 L7.33,59.06 L6.28,58.55 L5.29,57.95 L4.37,57.26 L3.51,56.49 L2.74,55.63 L2.05,54.71 L1.45,53.72 L0.94,52.67 L0.54,51.57 L0.24,50.42 L0.14,49.83 L0.06,49.23 L0.02,48.62 L0.00,48.00 Z" fill="#102784" stroke="#1e1e1e" stroke-width="1" stroke-linejoin="round" opacity="0"/><path d="M16.00,30.00 L16.02,29.38 L16.06,28.77 L16.14,28.17 L16.24,27.58 L16.54,26.43 L16.94,25.33 L17.45,24.28 L18.05,23.29 L18.74,22.37 L19.51,21.51 L20.37,20.74 L21.29,20.05 L22.28,19.45 L23.33,18.94 L24.43,18.54 L25.58,18.24 L26.17,18.14 L26.77,18.06 L27.38,18.02 L28.00,18.00 L32.00,18.00 L32.00,60.00 L16.00,60.00 L16.00,30.00 Z" fill="#1569d8" stroke="#1e1e1e" stroke-width="1" stroke-linejoin="round"/><path d="M16.00,30.00 L16.02,29.38 L16.06,28.77 L16.14,28.17 L16.24,27.58 L16.54,26.43 L16.94,25.33 L17.45,24.28 L18.05,23.29 L18.74,22.37 L19.51,21.51 L20.37,20.74 L21.29,20.05 L22.28,19.45 L23.33,18.94 L24.43,18.54 L25.58,18.24 L26.17,18.14 L26.77,18.06 L27.38,18.02 L28.00,18.00 L32.00,18.00 L32.00,60.00 L16.00,60.00 L16.00,30.00 Z" fill="#1065d0" stroke="#1e1e1e" stroke-width="1" stroke-linejoin="round" opacity="0.3"/><path d="M32.00,12.00 L32.02,11.38 L32.06,10.77 L32.14,10.17 L32.24,9.58 L32.54,8.43 L32.94,7.33 L33.45,6.28 L34.05,5.29 L34.74,4.37 L35.51,3.51 L36.37,2.74 L37.29,2.05 L38.28,1.45 L39.33,0.94 L40.43,0.54 L41.58,0.24 L42.17,0.14 L42.77,0.06 L43.38,0.02 L44.00,0.00 L48.00,0.00 L49.29,0.02 L50.53,0.07 L52.83,0.24 L54.87,0.49 L56.62,0.77 L58.05,1.06 L59.11,1.31 L60.00,1.55 L60.00,54.00 L59.97,54.61 L59.88,55.21 L59.73,55.78 L59.53,56.34 L59.28,56.86 L58.98,57.35 L58.63,57.82 L58.24,58.24 L57.82,58.63 L57.35,58.98 L56.86,59.28 L56.34,59.53 L55.78,59.73 L55.21,59.88 L54.61,59.97 L54.00,60.00 L32.00,60.00 L32.00,12.00 Z" fill="#18a3fc" stroke="#1e1e1e" stroke-width="1" stroke-linejoin="round"/><path d="M32.00,12.00 L32.02,11.38 L32.06,10.77 L32.14,10.17 L32.24,9.58 L32.54,8.43 L32.94,7.33 L33.45,6.28 L34.05,5.29 L34.74,4.37 L35.51,3.51 L36.37,2.74 L37.29,2.05 L38.28,1.45 L39.33,0.94 L40.43,0.54 L41.58,0.24 L42.17,0.14 L42.77,0.06 L43.38,0.02 L44.00,0.00 L48.00,0.00 L49.29,0.02 L50.53,0.07 L52.83,0.24 L54.87,0.49 L56.62,0.77 L58.05,1.06 L59.11,1.31 L60.00,1.55 L60.00,54.00 L59.97,54.61 L59.88,55.21 L59.73,55.78 L59.53,56.34 L59.28,56.86 L58.98,57.35 L58.63,57.82 L58.24,58.24 L57.82,58.63 L57.35,58.98 L56.86,59.28 L56.34,59.53 L55.78,59.73 L55.21,59.88 L54.61,59.97 L54.00,60.00 L32.00,60.00 L32.00,12.00 Z" fill="#147cec" stroke="#1e1e1e" stroke-width="1" stroke-linejoin="round" opacity="0.25"/><path d="M48.00,6.00 L48.03,5.39 L48.12,4.79 L48.27,4.22 L48.47,3.67 L48.73,3.14 L49.03,2.66 L49.37,2.20 L49.76,1.79 L50.18,1.42 L50.65,1.10 L51.14,0.83 L51.66,0.61 L52.21,0.46 L52.78,0.36 L53.38,0.33 L53.98,0.37 L55.36,0.57 L56.73,0.80 L58.10,1.07 L59.45,1.39 L60.79,1.74 L62.13,2.13 L63.45,2.55 L64.76,3.02 L66.05,3.52 L67.33,4.06 L68.60,4.64 L69.85,5.26 L71.08,5.91 L72.29,6.60 L73.49,7.33 L74.67,8.09 L76.13,9.10 L77.54,10.17 L78.92,11.28 L80.25,12.45 L81.53,13.66 L82.77,14.91 L83.96,16.21 L85.10,17.55 L86.20,18.93 L87.24,20.35 L88.23,21.81 L89.16,23.31 L90.04,24.84 L90.87,26.40 L91.64,28.00 L92.35,29.63 L93.00,31.29 L93.58,32.96 L94.11,34.65 L94.57,36.36 L94.96,38.07 L95.30,39.81 L95.56,41.55 L95.77,43.30 L95.91,45.05 L95.99,46.81 L96.00,48.57 L95.94,50.34 L95.83,52.10 L95.64,53.86 L95.39,55.61 L95.08,57.36 L94.70,59.10 L94.26,60.82 L93.75,62.51 L93.19,64.19 L92.56,65.84 L91.88,67.46 L91.13,69.06 L90.33,70.63 L89.47,72.16 L88.56,73.67 L87.59,75.14 L86.57,76.58 L85.49,77.98 L84.36,79.34 L83.17,80.66 L81.94,81.94 L80.66,83.17 L79.34,84.36 L77.98,85.49 L76.58,86.56 L75.14,87.59 L73.67,88.56 L72.16,89.47 L70.63,90.33 L69.06,91.13 L67.46,91.88 L65.84,92.56 L64.19,93.19 L62.51,93.75 L60.82,94.26 L59.10,94.70 L57.36,95.08 L55.61,95.39 L53.86,95.64 L52.10,95.82 L50.34,95.94 L48.57,96.00 L46.81,95.98 L45.05,95.91 L43.29,95.77 L41.55,95.56 L39.81,95.30 L38.07,94.96 L36.36,94.57 L34.65,94.11 L32.96,93.58 L31.29,93.00 L29.63,92.35 L28.00,91.64 L26.40,90.87 L24.84,90.04 L23.31,89.16 L21.81,88.23 L20.35,87.24 L18.93,86.20 L17.55,85.10 L16.21,83.96 L14.91,82.77 L13.66,81.53 L12.45,80.25 L11.28,78.92 L10.17,77.54 L9.10,76.13 L8.09,74.67 L7.13,73.17 L6.23,71.64 L5.38,70.09 L4.60,68.51 L3.88,66.90 L3.21,65.26 L2.61,63.61 L2.07,61.93 L1.59,60.24 L1.17,58.53 L0.81,56.80 L0.52,55.06 L0.29,53.31 L0.13,51.55 L0.03,49.78 L0.00,48.00 L0.02,48.62 L0.06,49.23 L0.14,49.83 L0.24,50.42 L0.54,51.57 L0.94,52.67 L1.45,53.72 L2.05,54.71 L2.74,55.63 L3.51,56.49 L4.37,57.26 L5.29,57.95 L6.28,58.55 L7.33,59.06 L8.43,59.46 L9.58,59.76 L10.17,59.86 L10.77,59.94 L11.38,59.98 L12.00,60.00 L42.00,60.00 L42.61,59.97 L43.21,59.88 L43.78,59.73 L44.34,59.53 L44.86,59.28 L45.35,58.98 L45.82,58.63 L46.24,58.24 L46.63,57.82 L46.98,57.35 L47.28,56.86 L47.53,56.34 L47.73,55.78 L47.88,55.21 L47.97,54.61 L48.00,54.00 L48.00,6.00 Z" fill="#1bb2f7" stroke="#1e1e1e" stroke-width="1" stroke-linejoin="round"/><path d="M48.00,6.00 L48.03,5.39 L48.12,4.79 L48.27,4.22 L48.47,3.67 L48.73,3.14 L49.03,2.66 L49.37,2.20 L49.76,1.79 L50.18,1.42 L50.65,1.10 L51.14,0.83 L51.66,0.61 L52.21,0.46 L52.78,0.36 L53.38,0.33 L53.98,0.37 L55.36,0.57 L56.73,0.80 L58.10,1.07 L59.45,1.39 L60.79,1.74 L62.13,2.13 L63.45,2.55 L64.76,3.02 L66.05,3.52 L67.33,4.06 L68.60,4.64 L69.85,5.26 L71.08,5.91 L72.29,6.60 L73.49,7.33 L74.67,8.09 L76.13,9.10 L77.54,10.17 L78.92,11.28 L80.25,12.45 L81.53,13.66 L82.77,14.91 L83.96,16.21 L85.10,17.55 L86.20,18.93 L87.24,20.35 L88.23,21.81 L89.16,23.31 L90.04,24.84 L90.87,26.40 L91.64,28.00 L92.35,29.63 L93.00,31.29 L93.58,32.96 L94.11,34.65 L94.57,36.36 L94.96,38.07 L95.30,39.81 L95.56,41.55 L95.77,43.30 L95.91,45.05 L95.99,46.81 L96.00,48.57 L95.94,50.34 L95.83,52.10 L95.64,53.86 L95.39,55.61 L95.08,57.36 L94.70,59.10 L94.26,60.82 L93.75,62.51 L93.19,64.19 L92.56,65.84 L91.88,67.46 L91.13,69.06 L90.33,70.63 L89.47,72.16 L88.56,73.67 L87.59,75.14 L86.57,76.58 L85.49,77.98 L84.36,79.34 L83.17,80.66 L81.94,81.94 L80.66,83.17 L79.34,84.36 L77.98,85.49 L76.58,86.56 L75.14,87.59 L73.67,88.56 L72.16,89.47 L70.63,90.33 L69.06,91.13 L67.46,91.88 L65.84,92.56 L64.19,93.19 L62.51,93.75 L60.82,94.26 L59.10,94.70 L57.36,95.08 L55.61,95.39 L53.86,95.64 L52.10,95.82 L50.34,95.94 L48.57,96.00 L46.81,95.98 L45.05,95.91 L43.29,95.77 L41.55,95.56 L39.81,95.30 L38.07,94.96 L36.36,94.57 L34.65,94.11 L32.96,93.58 L31.29,93.00 L29.63,92.35 L28.00,91.64 L26.40,90.87 L24.84,90.04 L23.31,89.16 L21.81,88.23 L20.35,87.24 L18.93,86.20 L17.55,85.10 L16.21,83.96 L14.91,82.77 L13.66,81.53 L12.45,80.25 L11.28,78.92 L10.17,77.54 L9.10,76.13 L8.09,74.67 L7.13,73.17 L6.23,71.64 L5.38,70.09 L4.60,68.51 L3.88,66.90 L3.21,65.26 L2.61,63.61 L2.07,61.93 L1.59,60.24 L1.17,58.53 L0.81,56.80 L0.52,55.06 L0.29,53.31 L0.13,51.55 L0.03,49.78 L0.00,48.00 L0.02,48.62 L0.06,49.23 L0.14,49.83 L0.24,50.42 L0.54,51.57 L0.94,52.67 L1.45,53.72 L2.05,54.71 L2.74,55.63 L3.51,56.49 L4.37,57.26 L5.29,57.95 L6.28,58.55 L7.33,59.06 L8.43,59.46 L9.58,59.76 L10.17,59.86 L10.77,59.94 L11.38,59.98 L12.00,60.00 L42.00,60.00 L42.61,59.97 L43.21,59.88 L43.78,59.73 L44.34,59.53 L44.86,59.28 L45.35,58.98 L45.82,58.63 L46.24,58.24 L46.63,57.82 L46.98,57.35 L47.28,56.86 L47.53,56.34 L47.73,55.78 L47.88,55.21 L47.97,54.61 L48.00,54.00 L48.00,6.00 Z" fill="#29c3ff" stroke="#1e1e1e" stroke-width="1" stroke-linejoin="round" opacity="0"/><path d="M96.00,48.00 L95.98,47.38 L95.94,46.77 L95.86,46.17 L95.76,45.58 L95.46,44.43 L95.06,43.33 L94.55,42.28 L93.95,41.29 L93.26,40.37 L92.49,39.51 L91.63,38.74 L90.71,38.05 L89.72,37.45 L88.67,36.94 L87.57,36.54 L86.42,36.24 L85.83,36.14 L85.23,36.06 L84.62,36.02 L84.00,36.00 L48.00,36.00 L48.00,54.00 L47.97,54.61 L47.88,55.21 L47.73,55.78 L47.53,56.34 L47.28,56.86 L46.98,57.35 L46.63,57.82 L46.24,58.24 L45.82,58.63 L45.35,58.98 L44.86,59.28 L44.34,59.53 L43.78,59.73 L43.21,59.88 L42.61,59.97 L42.00,60.00 L40.00,60.00 L84.00,60.00 L84.62,59.98 L85.23,59.94 L85.83,59.86 L86.42,59.76 L87.57,59.46 L88.67,59.06 L89.72,58.55 L90.71,57.95 L91.63,57.26 L92.49,56.49 L93.26,55.63 L93.95,54.71 L94.55,53.72 L95.06,52.67 L95.46,51.57 L95.76,50.42 L95.86,49.83 L95.94,49.23 L95.98,48.62 L96.00,48.00 Z" fill="#3bd5ff" stroke="#1e1e1e" stroke-width="1" stroke-linejoin="round" opacity="0.55"/></svg>