<svg xmlns="http://www.w3.org/2000/svg" viewBox="0.79 0.84 100.00 100.00"><path d="M48.51,3.79 L49.18,3.27 L49.96,2.95 L50.79,2.84 L51.63,2.95 L52.40,3.27 L53.07,3.79 L97.85,48.57 L98.36,49.23 L98.68,50.01 L98.79,50.84 L98.68,51.68 L98.36,52.45 L97.85,53.12 L53.07,97.90 L52.40,98.41 L51.63,98.73 L50.79,98.84 L49.96,98.73 L49.18,98.41 L48.51,97.90 L3.73,53.12 L3.22,52.45 L2.90,51.68 L2.79,50.84 L2.90,50.01 L3.22,49.23 L3.73,48.57 L48.51,3.79 Z" fill="#6cab29" stroke="#1e1e1e" stroke-width="1" stroke-linejoin="round"/><path d="M61.52,59.37 L77.56,59.37 L77.97,59.17 L78.13,58.75 L78.13,42.77 L77.98,42.31 L77.53,42.14 L77.11,42.37 L72.71,46.78 L72.71,47.06 L72.31,47.22 L71.92,47.06 L52.31,27.74 L51.92,27.58 L51.52,27.74 L46.55,32.71 L46.38,33.13 L46.55,33.56 L65.81,52.82 L65.98,53.24 L65.81,53.67 L65.53,53.95 L61.13,58.36 L61.02,58.98 L61.52,59.37 L61.52,59.37 Z" fill="#ffffff" stroke="#1e1e1e" stroke-width="1" stroke-linejoin="round"/><path d="M39.09,59.37 L23.05,59.37 L22.72,59.14 L22.60,58.75 L22.60,42.77 L22.95,42.25 L23.56,42.37 L28.02,46.78 L28.02,47.06 L28.42,47.22 L28.81,47.06 L48.30,27.74 L48.70,27.58 L49.09,27.74 L54.06,32.71 L54.23,33.13 L54.06,33.56 L34.80,52.82 L34.63,53.24 L34.80,53.67 L34.80,53.95 L39.21,58.36 L39.42,58.90 L39.09,59.37 Z" fill="#ffffff" stroke="#1e1e1e" stroke-width="1" stroke-linejoin="round"/><path d="M38.53,73.84 L49.83,85.13 L50.22,85.30 L50.62,85.13 L61.92,73.84 L62.04,73.23 L61.52,72.88 L54.91,72.88 L54.53,72.70 L54.35,72.31 L54.35,45.19 L54.20,44.76 L53.78,44.57 L46.78,44.57 L46.34,44.75 L46.15,45.19 L46.15,72.31 L45.99,72.71 L45.59,72.88 L38.92,72.88 L38.41,73.23 L38.53,73.84 L38.53,73.84 Z" fill="#ffffff" stroke="#1e1e1e" stroke-width="1" stroke-linejoin="round"/><path d="M60.16,43.95 L57.01,45.70 L53.53,46.67 L49.92,46.79 L46.39,46.07 L43.12,44.53 L40.30,42.28 L38.09,39.43 L36.61,36.14 L35.93,32.59 L36.11,28.99 L37.13,25.52 L38.93,22.39 L41.41,19.77 L41.41,19.77 L44.57,18.09 L48.04,17.18 L51.62,17.11 L55.12,17.87 L58.35,19.42 L61.13,21.68 L63.31,24.53 L64.76,27.80 L65.42,31.33 L65.24,34.91 L64.23,38.34 L62.45,41.45 L60.00,44.06 L60.16,43.95 Z" fill="#0078d4" stroke="#1e1e1e" stroke-width="1" stroke-linejoin="round"/><ellipse cx="42.54" cy="31.35" rx="4.91" ry="4.91" fill="#eeeeee" stroke="#eeeeee" stroke-width="1"/><path d="M37.68,39.54 L38.75,41.24 L39.54,42.37 L40.35,39.22 L41.47,36.16 L40.10,35.70 L38.92,34.86 L38.23,37.18 L37.68,39.54 L37.68,39.54 Z" fill="#f2f2f2" stroke="#f2f2f2" stroke-width="1" stroke-linejoin="round" opacity="0.55"/><path d="M40.90,26.72 L40.06,24.13 L39.54,21.47 L38.51,22.71 L37.62,24.07 L38.07,26.19 L38.75,28.25 L39.74,27.36 L40.90,26.72 Z" fill="#f2f2f2" stroke="#f2f2f2" stroke-width="1" stroke-linejoin="round" opacity="0.55"/><path d="M46.15,34.69 L44.92,35.64 L43.44,36.16 L44.70,37.36 L46.04,38.47 L47.83,39.66 L49.71,40.67 L49.71,40.28 L50.03,39.02 L50.84,38.02 L48.38,36.52 L46.15,34.69 L46.15,34.69 Z" fill="#f2f2f2" stroke="#f2f2f2" stroke-width="1" stroke-linejoin="round" opacity="0.55"/><path d="M60.96,40.67 L58.48,40.52 L56.04,40.11 L56.04,40.11 L55.81,41.30 L55.14,42.31 L58.17,42.76 L61.24,42.77 L62.34,41.63 L63.33,40.39 L60.96,40.67 Z" fill="#f2f2f2" stroke="#f2f2f2" stroke-width="1" stroke-linejoin="round" opacity="0.55"/><ellipse cx="52.88" cy="40.28" rx="3.16" ry="3.16" fill="#eeeeee" stroke="#eeeeee" stroke-width="1"/><ellipse cx="60.11" cy="32.43" rx="3.39" ry="3.39" fill="#f2f2f2" stroke="#f2f2f2" stroke-width="1"/><path d="M52.03,24.97 L55.44,23.65 L59.00,22.85 L62.65,22.60 L61.42,21.23 L60.00,20.05 L55.70,20.68 L51.58,22.03 L50.76,22.38 L49.94,22.94 L49.94,22.94 L48.03,20.39 L46.38,17.68 L44.46,18.42 L46.14,21.34 L48.13,24.07 L46.15,25.51 L44.35,27.17 L45.72,27.96 L46.78,29.15 L48.42,27.69 L50.22,26.44 L53.41,29.40 L56.83,32.09 L57.24,31.09 L57.96,30.28 L54.88,27.75 L52.03,24.97 L52.03,24.97 Z" fill="#f2f2f2" stroke="#f2f2f2" stroke-width="1" stroke-linejoin="round" opacity="0.55"/><path d="M65.25,34.40 L65.25,34.40 L64.68,34.40 L64.68,34.40 L64.23,34.40 L64.23,34.40 L63.67,34.07 L63.23,35.00 L62.54,35.76 L63.22,36.16 L63.22,36.16 L63.84,36.49 L63.84,36.49 L65.42,37.29 L65.42,37.29 L65.70,36.30 L65.93,35.31 L65.25,34.40 Z" fill="#f2f2f2" stroke="#f2f2f2" stroke-width="1" stroke-linejoin="round" opacity="0.55"/><ellipse cx="42.54" cy="31.35" rx="4.91" ry="4.91" fill="#f2f2f2" stroke="#f2f2f2" stroke-width="1"/><ellipse cx="52.88" cy="40.28" rx="3.16" ry="3.16" fill="#f2f2f2" stroke="#f2f2f2" stroke-width="1"/></svg>