<svg xmlns="http://www.w3.org/2000/svg" viewBox="-0.62 -0.57 97.15 97.15"><path d="M1.38,48.00 L47.95,1.43 L94.53,48.00 L47.95,94.57 L1.38,48.00 Z" fill="#6cab29" stroke="#1e1e1e" stroke-width="1" stroke-linejoin="round"/><path d="M58.08,56.05 L73.23,56.05 L73.61,55.86 L73.76,55.47 L73.76,40.37 L73.61,39.95 L73.20,39.78 L72.80,40.00 L68.64,44.16 L68.64,44.43 L68.27,44.58 L67.89,44.43 L49.39,26.19 L49.01,26.03 L48.64,26.19 L43.95,30.88 L43.79,31.28 L43.95,31.68 L62.13,49.87 L62.29,50.27 L62.13,50.67 L61.87,50.93 L57.71,55.09 L57.61,55.68 L58.08,56.05 L58.08,56.05 Z" fill="#ffffff" stroke="#1e1e1e" stroke-width="1" stroke-linejoin="round"/><path d="M36.91,56.05 L21.76,56.05 L21.45,55.83 L21.33,55.47 L21.33,40.37 L21.66,39.89 L22.24,40.00 L26.45,44.16 L26.45,44.43 L26.83,44.58 L27.20,44.43 L45.60,26.19 L45.97,26.03 L46.35,26.19 L51.04,30.88 L51.20,31.28 L51.04,31.68 L32.85,49.87 L32.70,50.27 L32.85,50.67 L32.85,50.93 L37.01,55.09 L37.21,55.60 L36.91,56.05 Z" fill="#ffffff" stroke="#1e1e1e" stroke-width="1" stroke-linejoin="round"/><path d="M36.37,69.71 L47.04,80.37 L47.41,80.53 L47.79,80.37 L58.45,69.71 L58.57,69.13 L58.08,68.80 L51.84,68.80 L51.48,68.63 L51.31,68.27 L51.31,42.67 L51.17,42.25 L50.77,42.08 L44.16,42.08 L43.75,42.25 L43.57,42.67 L43.57,68.27 L43.42,68.64 L43.04,68.80 L36.75,68.80 L36.26,69.13 L36.37,69.71 L36.37,69.71 Z" fill="#ffffff" stroke="#1e1e1e" stroke-width="1" stroke-linejoin="round"/><path d="M56.80,41.49 L53.82,43.15 L50.54,44.06 L47.13,44.17 L43.79,43.49 L40.71,42.04 L38.05,39.91 L35.96,37.22 L34.56,34.12 L33.93,30.77 L34.09,27.36 L35.05,24.10 L36.75,21.14 L39.09,18.67 L39.09,18.67 L42.08,17.08 L45.35,16.22 L48.73,16.15 L52.04,16.87 L55.09,18.34 L57.71,20.47 L59.77,23.16 L61.14,26.25 L61.76,29.57 L61.59,32.95 L60.64,36.20 L58.96,39.14 L56.64,41.60 L56.80,41.49 Z" fill="#0078d4" stroke="#1e1e1e" stroke-width="1" stroke-linejoin="round"/><ellipse cx="40.16" cy="29.60" rx="4.64" ry="4.64" fill="#eeeeee" stroke="#eeeeee" stroke-width="1"/><path d="M35.57,37.33 L36.59,38.93 L37.33,40.00 L38.10,37.02 L39.15,34.13 L37.85,33.70 L36.75,32.91 L36.09,35.10 L35.57,37.33 L35.57,37.33 Z" fill="#f2f2f2" stroke="#f2f2f2" stroke-width="1" stroke-linejoin="round" opacity="0.55"/><path d="M38.61,25.23 L37.82,22.79 L37.33,20.27 L36.36,21.44 L35.52,22.72 L35.95,24.72 L36.59,26.67 L37.51,25.83 L38.61,25.23 Z" fill="#f2f2f2" stroke="#f2f2f2" stroke-width="1" stroke-linejoin="round" opacity="0.55"/><path d="M43.57,32.75 L42.40,33.65 L41.01,34.13 L42.20,35.27 L43.47,36.32 L45.15,37.44 L46.93,38.40 L46.93,38.03 L47.23,36.84 L48.00,35.89 L45.67,34.48 L43.57,32.75 L43.57,32.75 Z" fill="#f2f2f2" stroke="#f2f2f2" stroke-width="1" stroke-linejoin="round" opacity="0.55"/><path d="M57.55,38.40 L55.21,38.26 L52.91,37.87 L52.91,37.87 L52.69,38.99 L52.05,39.95 L54.92,40.36 L57.81,40.37 L58.85,39.30 L59.79,38.13 L57.55,38.40 Z" fill="#f2f2f2" stroke="#f2f2f2" stroke-width="1" stroke-linejoin="round" opacity="0.55"/><ellipse cx="49.92" cy="38.03" rx="2.99" ry="2.99" fill="#eeeeee" stroke="#eeeeee" stroke-width="1"/><ellipse cx="56.75" cy="30.61" rx="3.20" ry="3.20" fill="#f2f2f2" stroke="#f2f2f2" stroke-width="1"/><path d="M49.12,23.57 L52.34,22.32 L55.70,21.57 L59.15,21.33 L57.98,20.04 L56.64,18.93 L52.59,19.53 L48.69,20.80 L47.92,21.13 L47.15,21.65 L47.15,21.65 L45.35,19.25 L43.79,16.69 L41.97,17.39 L43.56,20.15 L45.44,22.72 L43.57,24.09 L41.87,25.65 L43.17,26.40 L44.16,27.52 L45.71,26.14 L47.41,24.96 L50.42,27.76 L53.65,30.29 L54.04,29.35 L54.72,28.59 L51.82,26.20 L49.12,23.57 L49.12,23.57 Z" fill="#f2f2f2" stroke="#f2f2f2" stroke-width="1" stroke-linejoin="round" opacity="0.55"/><path d="M61.60,32.48 L61.60,32.48 L61.07,32.48 L61.07,32.48 L60.64,32.48 L60.64,32.48 L60.11,32.16 L59.69,33.04 L59.04,33.76 L59.68,34.13 L59.68,34.13 L60.27,34.45 L60.27,34.45 L61.76,35.20 L61.76,35.20 L62.02,34.27 L62.24,33.33 L61.60,32.48 Z" fill="#f2f2f2" stroke="#f2f2f2" stroke-width="1" stroke-linejoin="round" opacity="0.55"/><ellipse cx="40.16" cy="29.60" rx="4.64" ry="4.64" fill="#f2f2f2" stroke="#f2f2f2" stroke-width="1"/><ellipse cx="49.92" cy="38.03" rx="2.99" ry="2.99" fill="#f2f2f2" stroke="#f2f2f2" stroke-width="1"/></svg>