<svg xmlns="http://www.w3.org/2000/svg" viewBox="-2.09 -2.00 100.09 100.00"><rect x="48.52" y="0.00" width="47.48" height="12.98" fill="#9cebff" stroke="#1e1e1e" stroke-width="1"/><rect x="88.62" y="2.27" width="3.55" height="3.55" fill="#ffffff" stroke="#ffffff" stroke-width="1"/><rect x="88.62" y="7.16" width="3.55" height="3.55" fill="#ffffff" stroke="#ffffff" stroke-width="1" opacity="0.6"/><rect x="48.52" y="15.39" width="47.48" height="12.98" fill="#41d2ee" stroke="#1e1e1e" stroke-width="1"/><rect x="88.62" y="17.65" width="3.55" height="3.55" fill="#ffffff" stroke="#ffffff" stroke-width="1"/><rect x="88.62" y="22.54" width="3.55" height="3.55" fill="#ffffff" stroke="#ffffff" stroke-width="1" opacity="0.6"/><rect x="48.52" y="30.77" width="47.48" height="12.98" fill="#198ab3" stroke="#1e1e1e" stroke-width="1"/><rect x="88.62" y="33.03" width="3.55" height="3.55" fill="#ffffff" stroke="#ffffff" stroke-width="1"/><rect x="88.62" y="37.93" width="3.55" height="3.55" fill="#ffffff" stroke="#ffffff" stroke-width="1" opacity="0.6"/><rect x="-0.09" y="52.26" width="47.47" height="12.98" fill="#83b9f9" stroke="#1e1e1e" stroke-width="1"/><rect x="40.01" y="54.53" width="3.55" height="3.55" fill="#ffffff" stroke="#ffffff" stroke-width="1"/><rect x="40.01" y="59.42" width="3.55" height="3.55" fill="#ffffff" stroke="#ffffff" stroke-width="1" opacity="0.6"/><rect x="-0.09" y="67.64" width="47.47" height="12.98" fill="#2e8ce1" stroke="#1e1e1e" stroke-width="1"/><rect x="40.01" y="69.91" width="3.55" height="3.55" fill="#ffffff" stroke="#ffffff" stroke-width="1"/><rect x="40.01" y="74.80" width="3.55" height="3.55" fill="#ffffff" stroke="#ffffff" stroke-width="1" opacity="0.6"/><rect x="-0.09" y="83.02" width="47.47" height="12.98" fill="#005ba1" stroke="#1e1e1e" stroke-width="1"/><rect x="40.01" y="85.29" width="3.55" height="3.55" fill="#ffffff" stroke="#ffffff" stroke-width="1"/><rect x="40.01" y="90.18" width="3.55" height="3.55" fill="#ffffff" stroke="#ffffff" stroke-width="1" opacity="0.6"/><path d="M57.89,21.87 L37.40,21.87 L36.73,22.01 L36.16,22.40 L21.71,36.85 L21.32,37.42 L21.18,38.09 L21.18,58.58 L21.32,59.25 L21.71,59.82 L36.16,74.27 L36.73,74.66 L37.40,74.79 L57.89,74.79 L58.56,74.66 L59.13,74.27 L73.58,59.82 L73.97,59.25 L74.11,58.58 L74.11,38.09 L73.97,37.42 L73.58,36.85 L59.13,22.40 L58.56,22.01 L57.89,21.87 L57.89,21.87 Z" fill="#815cbe" stroke="#1e1e1e" stroke-width="1" stroke-linejoin="round"/><path d="M70.00,38.71 L57.27,25.98 L56.65,25.73 L38.65,25.73 L38.03,25.98 L25.29,38.71 L25.04,39.34 L25.04,57.33 L25.29,57.96 L38.03,70.69 L38.65,70.94 L56.65,70.94 L57.27,70.69 L70.00,57.96 L70.25,57.33 L70.25,39.34 L70.00,38.71 L70.00,38.71 Z" fill="#f2f2f2" stroke="#1e1e1e" stroke-width="1" stroke-linejoin="round"/><path d="M68.88,55.68 L59.07,45.87 L61.44,43.48 L61.61,43.14 L61.48,42.77 L61.44,42.73 L61.10,42.73 L52.66,42.51 L52.30,42.66 L52.13,43.01 L52.35,51.45 L52.50,51.80 L52.85,51.95 L52.88,51.95 L53.25,51.95 L55.90,49.33 L66.33,59.61 L58.42,67.51 L47.65,56.77 L50.14,54.57 L50.31,54.22 L50.18,53.86 L50.14,53.82 L49.80,53.66 L41.42,53.29 L41.06,53.43 L40.90,53.79 L41.11,62.22 L41.26,62.58 L41.61,62.73 L41.64,62.73 L42.02,62.57 L44.54,59.99 L54.13,69.58 L38.84,69.58 L26.39,57.13 L26.39,39.54 L30.31,35.64 L38.31,43.49 L38.43,43.80 L38.31,44.11 L38.10,44.33 L34.98,47.45 L34.88,47.76 L35.03,48.06 L35.30,48.16 L47.13,48.16 L47.43,48.03 L47.56,47.72 L47.56,36.05 L47.47,35.66 L47.13,35.46 L46.74,35.55 L46.53,35.89 L43.42,39.01 L43.20,39.23 L42.89,39.35 L42.58,39.23 L34.58,31.35 L38.84,27.08 L56.46,27.08 L68.92,39.54 L68.89,55.70 L68.88,55.68 Z" fill="#815cbe" stroke="#1e1e1e" stroke-width="1" stroke-linejoin="round"/></svg>