<svg xmlns="http://www.w3.org/2000/svg" viewBox="4.40 -0.55 76.57 86.38"><ellipse cx="42.46" cy="9.20" rx="7.47" ry="7.75" fill="#3acebc" stroke="#3acebc" stroke-width="1"/><path d="M51.70,9.74 L51.42,11.62 L50.78,13.41 L55.38,15.08 L59.68,17.39 L63.60,20.30 L67.06,23.75 L69.99,27.66 L72.32,31.96 L74.01,36.54 L75.01,41.32 L75.32,46.20 L75.01,50.78 L74.11,55.28 L72.62,59.62 L70.56,63.73 L72.19,64.64 L73.61,65.86 L75.92,61.26 L77.61,56.40 L78.63,51.35 L78.97,46.21 L78.64,40.78 L77.53,35.46 L75.66,30.36 L73.07,25.59 L69.81,21.23 L65.96,17.40 L61.60,14.16 L56.81,11.59 L51.70,9.74 L51.70,9.74 Z" fill="#37c2b1" stroke="#1e1e1e" stroke-width="1" stroke-linejoin="round"/><ellipse cx="67.00" cy="72.64" rx="7.47" ry="7.75" fill="#3acebc" stroke="#3acebc" stroke-width="1"/><ellipse cx="16.62" cy="72.64" rx="7.47" ry="7.75" fill="#3acebc" stroke="#3acebc" stroke-width="1"/><path d="M58.30,75.94 L53.86,78.04 L49.15,79.42 L44.28,80.05 L39.37,79.91 L34.54,79.01 L29.91,77.37 L25.60,75.02 L24.97,76.82 L24.00,78.46 L28.81,81.01 L33.95,82.77 L39.30,83.72 L44.73,83.83 L50.12,83.09 L55.33,81.53 L60.23,79.18 L59.11,77.65 L58.30,75.94 L58.30,75.94 Z" fill="#37c2b1" stroke="#1e1e1e" stroke-width="1" stroke-linejoin="round"/><path d="M14.51,63.26 L12.57,59.25 L11.16,55.02 L10.31,50.64 L10.03,46.19 L10.33,41.36 L11.31,36.62 L12.97,32.07 L15.26,27.80 L18.14,23.91 L21.55,20.47 L25.41,17.55 L29.65,15.21 L34.19,13.51 L33.53,11.72 L33.23,9.85 L28.19,11.74 L23.47,14.34 L19.18,17.58 L15.39,21.41 L12.20,25.74 L9.65,30.49 L7.82,35.55 L6.72,40.82 L6.40,46.20 L6.70,51.05 L7.62,55.84 L9.12,60.46 L11.20,64.86 L12.77,63.89 L14.51,63.26 Z" fill="#37c2b1" stroke="#1e1e1e" stroke-width="1" stroke-linejoin="round"/><path d="M57.81,64.06 L61.06,63.52 L64.07,62.19 L66.66,60.15 L68.65,57.53 L69.92,54.49 L70.40,51.23 L70.04,48.25 L68.99,45.43 L67.31,42.94 L65.10,40.90 L62.48,39.43 L59.59,38.61 L59.14,35.16 L57.97,31.89 L56.12,28.94 L53.69,26.45 L50.78,24.54 L47.54,23.30 L44.10,22.78 L40.63,23.00 L37.28,23.96 L34.22,25.61 L31.58,27.88 L29.49,30.65 L28.04,33.81 L24.61,34.70 L21.48,36.36 L18.82,38.70 L16.77,41.59 L15.44,44.87 L14.92,48.37 L15.21,51.90 L16.32,55.27 L18.18,58.29 L20.68,60.79 L23.69,62.65 L27.06,63.76 L30.59,64.06 L57.81,64.06 Z" fill="#8960e0" stroke="#1e1e1e" stroke-width="1" stroke-linejoin="round"/><path d="M54.79,45.80 L54.79,42.92 L54.64,42.78 L51.81,41.79 L51.08,39.81 L52.49,36.80 L52.63,36.46 L51.73,35.53 L50.67,34.42 L50.30,34.61 L47.53,36.09 L45.62,35.53 L44.41,32.33 L41.68,32.33 L41.54,32.47 L40.59,35.41 L38.65,36.17 L35.45,34.57 L33.49,36.58 L33.68,36.96 L35.10,39.83 L34.30,41.81 L30.93,43.05 L30.93,45.93 L31.33,46.05 L34.28,47.06 L35.08,49.05 L33.60,52.37 L35.56,54.43 L35.93,54.24 L38.70,52.77 L40.60,53.59 L41.82,57.06 L44.59,57.06 L44.70,56.65 L45.68,53.58 L47.56,52.76 L50.80,54.34 L52.76,52.30 L52.57,51.91 L51.14,49.07 L51.67,47.06 L54.79,45.80 Z" fill="#ffffff" stroke="#ffffff" stroke-width="1" stroke-linejoin="round"/><path d="M43.13,48.47 L41.42,48.17 L40.00,47.19 L39.12,45.70 L38.94,43.98 L39.50,42.34 L40.70,41.09 L42.30,40.45 L44.03,40.54 L45.56,41.35 L46.61,42.72 L46.99,44.41 L46.99,44.43 L46.72,45.94 L45.89,47.24 L44.63,48.12 L43.13,48.46 L43.13,48.47 Z" fill="#8960e0" stroke="#8960e0" stroke-width="1" stroke-linejoin="round"/></svg>