<svg xmlns="http://www.w3.org/2000/svg" viewBox="-0.67 3.45 97.34 89.10"><path d="M23.21,11.09 L20.46,15.21 L18.25,19.63 L16.61,24.30 L8.48,24.30 L11.29,20.13 L14.75,16.48 L18.75,13.44 L23.21,11.09 L23.21,11.09 Z" fill="#8960e0" stroke="#8960e0" stroke-width="1" stroke-linejoin="round"/><path d="M6.59,49.96 L16.03,49.96 L14.87,44.62 L14.43,39.18 L14.77,33.33 L15.75,27.55 L6.90,27.55 L5.46,31.91 L4.70,36.43 L4.64,41.02 L5.28,45.56 L6.59,49.96 L6.59,49.96 Z" fill="#8960e0" stroke="#8960e0" stroke-width="1" stroke-linejoin="round"/><path d="M25.32,68.03 L21.96,63.45 L19.19,58.48 L17.07,53.22 L8.04,53.22 L10.50,57.17 L13.54,60.71 L17.08,63.74 L21.03,66.20 L25.32,68.03 L25.32,68.03 Z" fill="#8960e0" stroke="#8960e0" stroke-width="1" stroke-linejoin="round"/><path d="M20.52,53.22 L22.39,57.90 L24.96,62.24 L28.16,66.14 L31.92,69.50 L32.81,69.54 L32.75,69.27 L32.75,56.96 L32.97,55.72 L33.55,54.61 L33.55,53.22 L20.52,53.22 Z" fill="#8960e0" stroke="#8960e0" stroke-width="1" stroke-linejoin="round"/><path d="M17.70,39.18 L18.19,44.63 L19.45,49.96 L33.60,49.96 L33.60,27.56 L19.06,27.56 L18.04,33.33 L17.70,39.18 L17.70,39.18 Z" fill="#8960e0" stroke="#8960e0" stroke-width="1" stroke-linejoin="round"/><path d="M19.96,24.30 L33.60,24.30 L33.60,8.76 L30.67,9.05 L27.64,11.37 L25.00,14.12 L22.81,17.25 L21.11,20.67 L19.96,24.30 L19.96,24.30 Z" fill="#8960e0" stroke="#8960e0" stroke-width="1" stroke-linejoin="round"/><path d="M38.81,8.95 L36.83,8.78 L36.83,24.30 L49.71,24.30 L48.56,20.61 L46.85,17.15 L44.61,14.00 L41.91,11.25 L38.81,8.95 Z" fill="#8960e0" stroke="#8960e0" stroke-width="1" stroke-linejoin="round"/><path d="M36.83,49.96 L50.22,49.96 L51.49,44.63 L51.98,39.18 L51.64,33.32 L50.61,27.55 L36.83,27.55 L36.83,49.96 Z" fill="#8960e0" stroke="#8960e0" stroke-width="1" stroke-linejoin="round"/><path d="M46.27,10.86 L49.11,15.03 L51.39,19.54 L53.07,24.30 L61.64,24.30 L59.36,20.82 L56.63,17.69 L53.49,14.95 L50.02,12.66 L46.27,10.86 L46.27,10.86 Z" fill="#8960e0" stroke="#8960e0" stroke-width="1" stroke-linejoin="round"/><path d="M53.91,27.55 L54.89,33.32 L55.23,39.17 L54.78,44.62 L53.63,49.96 L63.51,49.96 L64.83,45.56 L65.46,41.02 L65.40,36.44 L64.64,31.91 L63.21,27.56 L53.91,27.55 Z" fill="#8960e0" stroke="#8960e0" stroke-width="1" stroke-linejoin="round"/><path d="M92.67,74.25 L93.19,74.32 L93.67,74.52 L94.08,74.83 L94.40,75.25 L94.60,75.73 L94.67,76.25 L94.67,88.55 L94.60,89.07 L94.40,89.55 L94.08,89.97 L93.67,90.28 L93.19,90.48 L92.67,90.55 L37.05,90.55 L36.53,90.48 L36.05,90.28 L35.64,89.97 L35.32,89.55 L35.12,89.07 L35.06,88.55 L35.06,76.25 L35.12,75.73 L35.32,75.25 L35.64,74.83 L36.05,74.52 L36.53,74.32 L37.05,74.25 L92.67,74.25 Z" fill="#3acbba" stroke="#1e1e1e" stroke-width="1" stroke-linejoin="round"/><path d="M88.86,77.10 L89.12,77.14 L89.36,77.24 L89.57,77.40 L89.73,77.60 L89.83,77.84 L89.86,78.10 L89.86,80.56 L89.83,80.82 L89.73,81.06 L89.57,81.27 L89.36,81.42 L89.12,81.52 L88.86,81.56 L86.41,81.56 L86.15,81.52 L85.91,81.42 L85.70,81.27 L85.54,81.06 L85.44,80.82 L85.41,80.56 L85.41,78.10 L85.44,77.84 L85.54,77.60 L85.70,77.40 L85.91,77.24 L86.15,77.14 L86.41,77.10 L88.86,77.10 Z" fill="#ffffff" stroke="#ffffff" stroke-width="1" stroke-linejoin="round"/><path d="M88.86,83.24 L89.12,83.28 L89.36,83.38 L89.57,83.53 L89.73,83.74 L89.83,83.98 L89.86,84.24 L89.86,86.70 L89.83,86.96 L89.73,87.20 L89.57,87.40 L89.36,87.56 L89.12,87.66 L88.86,87.70 L86.41,87.70 L86.15,87.66 L85.91,87.56 L85.70,87.40 L85.54,87.20 L85.44,86.96 L85.41,86.70 L85.41,84.24 L85.44,83.98 L85.54,83.74 L85.70,83.53 L85.91,83.38 L86.15,83.28 L86.41,83.24 L88.86,83.24 Z" fill="#ffffff" stroke="#ffffff" stroke-width="1" stroke-linejoin="round" opacity="0.6"/><path d="M32.82,69.54 L31.94,69.50 L28.18,66.14 L24.97,62.24 L22.41,57.90 L20.53,53.22 L33.57,53.22 L33.57,54.61 L34.49,53.59 L35.70,52.92 L37.05,52.68 L65.85,52.68 L67.51,48.21 L68.50,43.54 L68.80,38.78 L68.41,34.03 L67.34,29.39 L65.61,24.94 L65.30,24.29 L62.93,20.23 L60.02,16.54 L56.62,13.29 L52.81,10.54 L48.65,8.35 L44.23,6.76 L39.63,5.80 L38.85,5.66 L38.05,5.61 L35.06,5.45 L31.62,5.62 L30.70,5.72 L29.79,5.90 L24.58,7.17 L19.64,9.25 L15.09,12.08 L11.04,15.59 L7.60,19.70 L4.85,24.30 L4.80,24.30 L4.80,24.37 L2.82,29.33 L1.66,34.54 L1.33,39.87 L1.85,45.18 L3.20,50.34 L5.36,55.22 L8.26,59.70 L11.83,63.67 L15.99,67.01 L20.62,69.66 L25.62,71.54 L30.85,72.61 L30.97,72.64 L31.10,72.65 L33.00,72.83 L34.91,72.90 L33.85,72.03 L33.13,70.87 L32.82,69.54 L32.82,69.54 Z" fill="#b796f9" stroke="#b796f9" stroke-width="1" stroke-linejoin="round"/><path d="M63.53,49.96 L53.64,49.96 L54.80,44.62 L55.24,39.17 L54.91,33.32 L53.93,27.55 L63.24,27.55 L64.67,31.91 L65.43,36.43 L65.49,41.02 L64.85,45.56 L63.53,49.96 L63.53,49.96 Z" fill="#8960e0" stroke="#8960e0" stroke-width="1" stroke-linejoin="round"/><path d="M61.64,24.30 L53.07,24.30 L51.39,19.54 L49.11,15.03 L46.27,10.86 L50.02,12.66 L53.49,14.95 L56.63,17.69 L59.36,20.82 L61.64,24.30 L61.64,24.30 Z" fill="#8960e0" stroke="#8960e0" stroke-width="1" stroke-linejoin="round"/><path d="M36.83,8.78 L38.81,8.95 L41.91,11.25 L44.61,14.00 L46.85,17.15 L48.56,20.61 L49.71,24.30 L36.83,24.30 L36.83,8.78 Z" fill="#8960e0" stroke="#8960e0" stroke-width="1" stroke-linejoin="round"/><path d="M36.83,27.55 L50.61,27.55 L51.64,33.32 L51.98,39.18 L51.49,44.63 L50.22,49.96 L36.83,49.96 L36.83,27.55 Z" fill="#8960e0" stroke="#8960e0" stroke-width="1" stroke-linejoin="round"/><path d="M33.60,49.96 L19.45,49.96 L18.19,44.63 L17.70,39.18 L18.03,33.32 L19.06,27.55 L33.60,27.55 L33.60,49.96 Z" fill="#8960e0" stroke="#8960e0" stroke-width="1" stroke-linejoin="round"/><path d="M30.65,9.07 L33.58,8.78 L33.58,24.30 L19.96,24.30 L21.11,20.67 L22.80,17.26 L24.99,14.14 L27.62,11.39 L30.65,9.07 L30.65,9.07 Z" fill="#8960e0" stroke="#8960e0" stroke-width="1" stroke-linejoin="round"/><path d="M23.18,11.11 L20.44,15.22 L18.24,19.64 L16.61,24.30 L8.48,24.30 L11.29,20.13 L14.75,16.48 L18.75,13.44 L23.21,11.09 L23.18,11.11 Z" fill="#8960e0" stroke="#8960e0" stroke-width="1" stroke-linejoin="round"/><path d="M6.90,27.55 L15.77,27.55 L14.78,33.33 L14.45,39.18 L14.89,44.62 L16.05,49.96 L6.59,49.96 L5.28,45.56 L4.64,41.02 L4.70,36.43 L5.46,31.91 L6.90,27.55 L6.90,27.55 Z" fill="#8960e0" stroke="#8960e0" stroke-width="1" stroke-linejoin="round"/><path d="M8.04,53.22 L17.07,53.22 L19.20,58.49 L21.97,63.45 L25.34,68.03 L21.05,66.20 L17.09,63.74 L13.55,60.71 L10.51,57.17 L8.04,53.22 L8.04,53.22 Z" fill="#8960e0" stroke="#8960e0" stroke-width="1" stroke-linejoin="round"/><path d="M92.67,54.97 L93.19,55.04 L93.67,55.24 L94.08,55.55 L94.40,55.97 L94.60,56.45 L94.67,56.97 L94.67,69.27 L94.60,69.79 L94.40,70.27 L94.08,70.69 L93.67,71.00 L93.19,71.20 L92.67,71.27 L37.05,71.27 L36.53,71.20 L36.05,71.00 L35.64,70.69 L35.32,70.27 L35.12,69.79 L35.06,69.27 L35.06,56.97 L35.12,56.45 L35.32,55.97 L35.64,55.55 L36.05,55.24 L36.53,55.04 L37.05,54.97 L92.67,54.97 Z" fill="#3acbba" stroke="#1e1e1e" stroke-width="1" stroke-linejoin="round"/><path d="M88.86,57.82 L89.12,57.85 L89.36,57.95 L89.57,58.11 L89.73,58.32 L89.83,58.56 L89.86,58.82 L89.86,61.27 L89.83,61.53 L89.73,61.77 L89.57,61.98 L89.36,62.14 L89.12,62.24 L88.86,62.27 L86.41,62.27 L86.15,62.24 L85.91,62.14 L85.70,61.98 L85.54,61.77 L85.44,61.53 L85.41,61.27 L85.41,58.82 L85.44,58.56 L85.54,58.32 L85.70,58.11 L85.91,57.95 L86.15,57.85 L86.41,57.82 L88.86,57.82 Z" fill="#ffffff" stroke="#ffffff" stroke-width="1" stroke-linejoin="round"/><path d="M88.86,63.96 L89.12,64.00 L89.36,64.10 L89.57,64.25 L89.73,64.46 L89.83,64.70 L89.86,64.96 L89.86,67.42 L89.83,67.68 L89.73,67.92 L89.57,68.12 L89.36,68.28 L89.12,68.38 L88.86,68.42 L86.41,68.42 L86.15,68.38 L85.91,68.28 L85.70,68.12 L85.54,67.92 L85.44,67.68 L85.41,67.42 L85.41,64.96 L85.44,64.70 L85.54,64.46 L85.70,64.25 L85.91,64.10 L86.15,64.00 L86.41,63.96 L88.86,63.96 Z" fill="#ffffff" stroke="#ffffff" stroke-width="1" stroke-linejoin="round" opacity="0.6"/></svg>