<svg xmlns="http://www.w3.org/2000/svg" viewBox="-0.67 3.45 97.34 89.10"><path d="M23.21,11.09 L20.46,15.21 L18.25,19.63 L16.61,24.30 L8.48,24.30 L11.29,20.13 L14.75,16.48 L18.75,13.44 L23.21,11.09 L23.21,11.09 Z" fill="#8960e0" stroke="#8960e0" stroke-width="1" stroke-linejoin="round"/><path d="M6.59,49.96 L16.03,49.96 L14.87,44.62 L14.43,39.18 L14.77,33.33 L15.75,27.55 L6.90,27.55 L5.46,31.91 L4.70,36.43 L4.64,41.02 L5.28,45.56 L6.59,49.96 L6.59,49.96 Z" fill="#8960e0" stroke="#8960e0" stroke-width="1" stroke-linejoin="round"/><path d="M25.32,68.03 L21.96,63.45 L19.19,58.48 L17.07,53.22 L8.04,53.22 L10.50,57.17 L13.54,60.71 L17.08,63.74 L21.03,66.20 L25.32,68.03 L25.32,68.03 Z" fill="#8960e0" stroke="#8960e0" stroke-width="1" stroke-linejoin="round"/><path d="M20.52,53.22 L22.39,57.90 L24.96,62.24 L28.16,66.14 L31.92,69.50 L32.81,69.54 L32.75,69.27 L32.75,56.96 L32.97,55.72 L33.55,54.61 L33.55,53.22 L20.52,53.22 Z" fill="#8960e0" stroke="#8960e0" stroke-width="1" stroke-linejoin="round"/><path d="M17.70,39.18 L18.19,44.63 L19.45,49.96 L33.60,49.96 L33.60,27.56 L19.06,27.56 L18.04,33.33 L17.70,39.18 L17.70,39.18 Z" fill="#8960e0" stroke="#8960e0" stroke-width="1" stroke-linejoin="round"/><path d="M19.96,24.30 L33.60,24.30 L33.60,8.76 L30.67,9.05 L27.64,11.37 L25.00,14.12 L22.81,17.25 L21.11,20.67 L19.96,24.30 L19.96,24.30 Z" fill="#8960e0" stroke="#8960e0" stroke-width="1" stroke-linejoin="round"/><path d="M38.81,8.95 L36.83,8.78 L36.83,24.30 L49.71,24.30 L48.56,20.61 L46.85,17.15 L44.61,14.00 L41.91,11.25 L38.81,8.95 Z" fill="#8960e0" stroke="#8960e0" stroke-width="1" stroke-linejoin="round"/><path d="M36.83,49.96 L50.22,49.96 L51.49,44.63 L51.98,39.18 L51.64,33.32 L50.61,27.55 L36.83,27.55 L36.83,49.96 Z" fill="#8960e0" stroke="#8960e0" stroke-width="1" stroke-linejoin="round"/><path d="M46.27,10.86 L49.11,15.03 L51.39,19.54 L53.07,24.30 L61.64,24.30 L59.36,20.82 L56.63,17.69 L53.49,14.95 L50.02,12.66 L46.27,10.86 L46.27,10.86 Z" fill="#8960e0" stroke="#8960e0" stroke-width="1" stroke-linejoin="round"/><path d="M53.91,27.55 L54.89,33.32 L55.23,39.17 L54.78,44.62 L53.63,49.96 L63.51,49.96 L64.83,45.56 L65.46,41.02 L65.40,36.44 L64.64,31.91 L63.21,27.56 L53.91,27.55 Z" fill="#8960e0" stroke="#8960e0" stroke-width="1" stroke-linejoin="round"/><rect x="35.06" y="74.25" width="59.61" height="16.30" fill="#3acbba" stroke="#1e1e1e" stroke-width="1"/><rect x="85.41" y="77.10" width="4.45" height="4.45" fill="#ffffff" stroke="#ffffff" stroke-width="1"/><rect x="85.41" y="83.24" width="4.45" height="4.45" fill="#ffffff" stroke="#ffffff" stroke-width="1" opacity="0.6"/><path d="M32.82,69.54 L31.94,69.50 L28.18,66.14 L24.97,62.24 L22.41,57.90 L20.53,53.22 L33.57,53.22 L33.57,54.61 L34.49,53.59 L35.70,52.92 L37.05,52.68 L65.85,52.68 L67.51,48.21 L68.50,43.54 L68.80,38.78 L68.41,34.03 L67.34,29.39 L65.61,24.94 L65.30,24.29 L62.93,20.23 L60.02,16.54 L56.62,13.29 L52.81,10.54 L48.65,8.35 L44.23,6.76 L39.63,5.80 L38.85,5.66 L38.05,5.61 L35.06,5.45 L31.62,5.62 L30.70,5.72 L29.79,5.90 L24.58,7.17 L19.64,9.25 L15.09,12.08 L11.04,15.59 L7.60,19.70 L4.85,24.30 L4.80,24.30 L4.80,24.37 L2.82,29.33 L1.66,34.54 L1.33,39.87 L1.85,45.18 L3.20,50.34 L5.36,55.22 L8.26,59.70 L11.83,63.67 L15.99,67.01 L20.62,69.66 L25.62,71.54 L30.85,72.61 L30.97,72.64 L31.10,72.65 L33.00,72.83 L34.91,72.90 L33.85,72.03 L33.13,70.87 L32.82,69.54 L32.82,69.54 Z" fill="#b796f9" stroke="#b796f9" stroke-width="1" stroke-linejoin="round"/><path d="M63.53,49.96 L53.64,49.96 L54.80,44.62 L55.24,39.17 L54.91,33.32 L53.93,27.55 L63.24,27.55 L64.67,31.91 L65.43,36.43 L65.49,41.02 L64.85,45.56 L63.53,49.96 L63.53,49.96 Z" fill="#8960e0" stroke="#8960e0" stroke-width="1" stroke-linejoin="round"/><path d="M61.64,24.30 L53.07,24.30 L51.39,19.54 L49.11,15.03 L46.27,10.86 L50.02,12.66 L53.49,14.95 L56.63,17.69 L59.36,20.82 L61.64,24.30 L61.64,24.30 Z" fill="#8960e0" stroke="#8960e0" stroke-width="1" stroke-linejoin="round"/><path d="M36.83,8.78 L38.81,8.95 L41.91,11.25 L44.61,14.00 L46.85,17.15 L48.56,20.61 L49.71,24.30 L36.83,24.30 L36.83,8.78 Z" fill="#8960e0" stroke="#8960e0" stroke-width="1" stroke-linejoin="round"/><path d="M36.83,27.55 L50.61,27.55 L51.64,33.32 L51.98,39.18 L51.49,44.63 L50.22,49.96 L36.83,49.96 L36.83,27.55 Z" fill="#8960e0" stroke="#8960e0" stroke-width="1" stroke-linejoin="round"/><path d="M33.60,49.96 L19.45,49.96 L18.19,44.63 L17.70,39.18 L18.03,33.32 L19.06,27.55 L33.60,27.55 L33.60,49.96 Z" fill="#8960e0" stroke="#8960e0" stroke-width="1" stroke-linejoin="round"/><path d="M30.65,9.07 L33.58,8.78 L33.58,24.30 L19.96,24.30 L21.11,20.67 L22.80,17.26 L24.99,14.14 L27.62,11.39 L30.65,9.07 L30.65,9.07 Z" fill="#8960e0" stroke="#8960e0" stroke-width="1" stroke-linejoin="round"/><path d="M23.18,11.11 L20.44,15.22 L18.24,19.64 L16.61,24.30 L8.48,24.30 L11.29,20.13 L14.75,16.48 L18.75,13.44 L23.21,11.09 L23.18,11.11 Z" fill="#8960e0" stroke="#8960e0" stroke-width="1" stroke-linejoin="round"/><path d="M6.90,27.55 L15.77,27.55 L14.78,33.33 L14.45,39.18 L14.89,44.62 L16.05,49.96 L6.59,49.96 L5.28,45.56 L4.64,41.02 L4.70,36.43 L5.46,31.91 L6.90,27.55 L6.90,27.55 Z" fill="#8960e0" stroke="#8960e0" stroke-width="1" stroke-linejoin="round"/><path d="M8.04,53.22 L17.07,53.22 L19.20,58.49 L21.97,63.45 L25.34,68.03 L21.05,66.20 L17.09,63.74 L13.55,60.71 L10.51,57.17 L8.04,53.22 L8.04,53.22 Z" fill="#8960e0" stroke="#8960e0" stroke-width="1" stroke-linejoin="round"/><rect x="35.06" y="54.97" width="59.61" height="16.30" fill="#3acbba" stroke="#1e1e1e" stroke-width="1"/><rect x="85.41" y="57.82" width="4.45" height="4.45" fill="#ffffff" stroke="#ffffff" stroke-width="1"/><rect x="85.41" y="63.96" width="4.45" height="4.45" fill="#ffffff" stroke="#ffffff" stroke-width="1" opacity="0.6"/></svg>