<svg xmlns="http://www.w3.org/2000/svg" viewBox="0.61 1.63 94.56 92.71"><path d="M41.65,80.21 L28.69,80.21 L26.93,80.12 L25.21,79.86 L23.55,79.44 L21.97,78.86 L20.46,78.13 L19.03,77.26 L16.47,75.15 L14.36,72.60 L13.50,71.17 L12.77,69.66 L12.19,68.07 L11.76,66.42 L11.50,64.70 L11.41,62.93 L11.41,25.97 L15.89,25.97 L15.89,62.93 L16.15,65.50 L16.89,67.89 L18.07,70.06 L19.63,71.95 L21.51,73.50 L23.68,74.68 L26.07,75.42 L28.64,75.68 L41.60,75.68 L41.60,80.16 L41.65,80.21 Z" fill="#bfbfbf" stroke="#1e1e1e" stroke-width="1" stroke-linejoin="round"/><path d="M67.95,80.75 L54.99,80.75 L54.99,76.27 L67.95,76.27 L70.52,76.01 L72.91,75.27 L75.07,74.09 L76.96,72.53 L78.52,70.65 L79.69,68.48 L80.43,66.09 L80.69,63.52 L80.69,48.59 L85.17,48.59 L85.17,63.52 L85.08,65.29 L84.82,67.00 L84.40,68.66 L83.82,70.25 L83.09,71.76 L82.22,73.18 L80.11,75.74 L77.56,77.85 L76.13,78.72 L74.62,79.44 L73.03,80.02 L71.38,80.45 L69.66,80.71 L67.89,80.80 L67.95,80.75 Z" fill="#bfbfbf" stroke="#1e1e1e" stroke-width="1" stroke-linejoin="round"/><path d="M47.04,46.88 L47.76,46.59 L48.48,46.51 L49.22,46.59 L49.92,46.88 L53.97,49.17 L56.61,48.67 L59.06,47.72 L61.28,46.37 L63.21,44.65 L64.81,42.62 L66.04,40.32 L66.85,37.80 L67.20,35.09 L66.89,32.50 L66.13,30.05 L64.98,27.81 L63.47,25.81 L61.63,24.09 L59.52,22.71 L57.17,21.71 L54.61,21.12 L54.44,19.27 L54.09,17.48 L53.57,15.75 L52.89,14.11 L52.07,12.56 L51.10,11.09 L50.00,9.74 L48.78,8.49 L47.45,7.37 L46.01,6.38 L44.49,5.52 L42.88,4.81 L41.19,4.26 L39.44,3.88 L37.64,3.66 L35.79,3.63 L32.85,3.80 L30.02,4.42 L27.36,5.45 L24.89,6.87 L22.66,8.65 L20.72,10.76 L19.11,13.16 L17.87,15.84 L14.79,16.50 L11.94,17.67 L9.38,19.30 L7.16,21.35 L5.32,23.75 L3.92,26.44 L3.00,29.39 L2.61,32.53 L2.77,34.32 L3.11,36.04 L3.60,37.71 L4.26,39.29 L5.05,40.79 L5.99,42.21 L7.05,43.52 L8.23,44.72 L9.51,45.80 L10.90,46.76 L12.38,47.59 L13.94,48.27 L15.57,48.80 L17.26,49.17 L19.01,49.36 L20.80,49.39 L22.40,49.33 L42.56,49.33 L46.99,46.88 L47.04,46.88 Z" fill="#3990e4" stroke="#1e1e1e" stroke-width="1" stroke-linejoin="round"/><path d="M80.75,34.08 L80.57,32.23 L80.22,30.44 L79.71,28.71 L79.03,27.07 L78.20,25.52 L77.23,24.05 L76.13,22.70 L74.91,21.45 L73.58,20.33 L72.15,19.34 L70.62,18.48 L69.01,17.77 L67.32,17.22 L65.57,16.84 L63.77,16.62 L61.92,16.59 L58.98,16.76 L56.16,17.38 L53.49,18.41 L51.02,19.83 L48.79,21.61 L46.85,23.72 L45.24,26.12 L44.00,28.80 L40.92,29.46 L38.08,30.63 L35.52,32.26 L33.29,34.31 L31.45,36.71 L30.05,39.41 L29.13,42.35 L28.75,45.49 L29.06,48.16 L29.75,50.69 L30.79,53.05 L32.16,55.20 L47.04,46.88 L47.76,46.59 L48.48,46.51 L49.22,46.59 L49.92,46.88 L69.07,57.60 L69.07,57.60 L69.07,57.60 L69.23,57.71 L69.39,57.81 L69.55,57.92 L69.71,58.03 L69.81,58.19 L69.92,58.35 L70.03,58.51 L70.13,58.67 L70.24,58.83 L70.35,58.99 L70.40,59.15 L70.45,59.36 L70.45,59.57 L70.45,59.79 L70.45,60.00 L70.45,60.21 L70.45,60.21 L70.45,60.21 L70.45,62.29 L77.81,62.29 L78.61,62.19 L81.48,61.89 L84.16,61.06 L86.60,59.76 L88.73,58.04 L90.52,55.96 L91.89,53.56 L92.79,50.91 L93.17,48.05 L92.86,45.46 L92.11,43.01 L90.95,40.77 L89.44,38.77 L87.61,37.05 L85.49,35.67 L83.14,34.67 L80.59,34.08 L80.75,34.08 Z" fill="#2dd0e6" stroke="#1e1e1e" stroke-width="1" stroke-linejoin="round"/><path d="M31.15,78.24 L47.63,68.69 L48.69,68.41 L49.76,68.69 L67.36,78.83 L67.83,79.18 L68.17,79.63 L68.44,80.67 L68.17,81.71 L67.83,82.15 L67.36,82.51 L50.88,92.05 L49.81,92.33 L48.75,92.05 L31.15,81.92 L30.67,81.56 L30.34,81.12 L30.07,80.08 L30.34,79.04 L30.67,78.59 L31.15,78.24 L31.15,78.24 Z" fill="#a67af4" stroke="#1e1e1e" stroke-width="1" stroke-linejoin="round" opacity="0.9"/><path d="M50.88,82.45 L62.67,75.63 L49.76,68.16 L48.69,67.88 L47.63,68.16 L35.84,74.99 L48.75,82.45 L49.81,82.73 L50.88,82.45 L50.88,82.45 Z" fill="#ffffff" stroke="#1e1e1e" stroke-width="1" stroke-linejoin="round"/><path d="M31.15,68.64 L47.63,59.09 L48.69,58.81 L49.76,59.09 L67.36,69.23 L67.83,69.58 L68.17,70.03 L68.44,71.07 L68.17,72.11 L67.83,72.55 L67.36,72.91 L50.88,82.45 L49.81,82.73 L48.75,82.45 L31.15,72.32 L30.67,71.96 L30.34,71.52 L30.07,70.48 L30.34,69.44 L30.67,68.99 L31.15,68.64 L31.15,68.64 Z" fill="#76bc2d" stroke="#1e1e1e" stroke-width="1" stroke-linejoin="round" opacity="0.7"/><path d="M50.88,73.39 L62.67,66.56 L49.76,59.09 L48.69,58.81 L47.63,59.09 L35.84,65.92 L48.75,73.39 L49.81,73.67 L50.88,73.39 L50.88,73.39 Z" fill="#ffffff" stroke="#1e1e1e" stroke-width="1" stroke-linejoin="round"/><path d="M31.15,59.52 L47.63,49.97 L48.69,49.69 L49.76,49.97 L67.36,60.11 L67.83,60.46 L68.17,60.91 L68.44,61.95 L68.17,62.99 L67.83,63.43 L67.36,63.79 L50.88,73.33 L49.81,73.61 L48.75,73.33 L31.15,63.20 L30.67,62.84 L30.34,62.40 L30.07,61.36 L30.34,60.32 L30.67,59.88 L31.15,59.52 L31.15,59.52 Z" fill="#f78d1e" stroke="#1e1e1e" stroke-width="1" stroke-linejoin="round" opacity="0.5"/></svg>