<svg xmlns="http://www.w3.org/2000/svg" viewBox="-2.00 11.17 100.00 73.65"><path d="M32.00,56.43 L32.00,46.03 L87.20,46.03 L87.20,16.59 L86.94,15.28 L86.20,14.17 L85.09,13.43 L83.79,13.17 L3.41,13.17 L2.11,13.43 L1.00,14.17 L0.26,15.28 L-0.00,16.59 L0.00,57.92 L0.26,59.23 L1.00,60.33 L2.11,61.07 L3.41,61.33 L48.00,61.33 L48.00,56.43 L32.00,56.43 Z" fill="#821010" stroke="#821010" stroke-width="1" stroke-linejoin="round"/><path d="M41.87,42.67 L18.24,42.67 L18.24,32.00 L41.87,32.00 L41.87,42.67 Z" fill="#ffffff" stroke="#ffffff" stroke-width="1" stroke-linejoin="round"/><path d="M69.33,42.67 L45.49,42.67 L45.49,32.00 L69.33,32.00 L69.33,42.67 Z" fill="#ffffff" stroke="#ffffff" stroke-width="1" stroke-linejoin="round"/><path d="M83.15,42.67 L73.12,42.67 L73.12,32.00 L82.93,32.00 L83.15,42.67 Z" fill="#ffffff" stroke="#ffffff" stroke-width="1" stroke-linejoin="round"/><path d="M59.31,17.97 L82.93,17.97 L82.93,28.64 L59.31,28.64 L59.31,17.97 Z" fill="#ffffff" stroke="#ffffff" stroke-width="1" stroke-linejoin="round"/><path d="M32.00,17.97 L55.63,17.97 L55.63,28.64 L32.00,28.64 L32.00,17.97 Z" fill="#ffffff" stroke="#ffffff" stroke-width="1" stroke-linejoin="round"/><path d="M4.80,17.97 L28.48,17.97 L28.48,28.64 L4.80,28.64 L4.80,17.97 Z" fill="#ffffff" stroke="#ffffff" stroke-width="1" stroke-linejoin="round"/><path d="M4.80,32.00 L14.67,32.00 L14.67,42.67 L4.80,42.67 L4.80,32.00 Z" fill="#ffffff" stroke="#ffffff" stroke-width="1" stroke-linejoin="round"/><path d="M28.48,56.43 L4.80,56.43 L4.80,46.03 L28.48,46.03 L28.48,56.43 Z" fill="#ffffff" stroke="#ffffff" stroke-width="1" stroke-linejoin="round"/><rect x="4.80" y="17.97" width="23.63" height="10.45" fill="#e62323" stroke="#e62323" stroke-width="1"/><rect x="32.05" y="17.97" width="23.63" height="10.45" fill="#ff7381" stroke="#ff7381" stroke-width="1"/><rect x="59.31" y="17.97" width="23.63" height="10.45" fill="#e62323" stroke="#e62323" stroke-width="1"/><rect x="4.80" y="32.00" width="9.81" height="10.45" fill="#e62323" stroke="#e62323" stroke-width="1"/><rect x="73.12" y="32.00" width="9.81" height="10.45" fill="#ff7381" stroke="#ff7381" stroke-width="1"/><rect x="18.24" y="32.00" width="23.63" height="10.45" fill="#ff7381" stroke="#ff7381" stroke-width="1"/><rect x="45.49" y="32.00" width="23.63" height="10.45" fill="#e62323" stroke="#e62323" stroke-width="1"/><rect x="4.80" y="46.03" width="23.63" height="10.45" fill="#e62323" stroke="#e62323" stroke-width="1"/><path d="M48.00,47.31 L48.43,46.38 L49.39,46.03 L32.00,46.03 L32.00,56.43 L48.00,56.43 L48.00,47.36 L48.00,47.31 Z" fill="#ff7381" stroke="#ff7381" stroke-width="1" stroke-linejoin="round"/><path d="M96.00,47.36 L96.00,52.43 L48.00,52.43 L48.00,81.44 L48.22,82.15 L48.77,82.66 L49.49,82.83 L94.35,82.83 L95.09,82.66 L95.65,82.16 L95.89,81.44 L95.89,47.36 L96.00,47.36 Z" fill="#e6e6e6" stroke="#e6e6e6" stroke-width="1" stroke-linejoin="round"/><path d="M51.84,59.79 L52.17,58.69 L53.06,57.96 L54.20,57.85 L55.21,58.39 L55.75,59.40 L55.64,60.54 L54.91,61.43 L53.81,61.76 L52.84,61.48 L52.12,60.76 L51.84,59.79 Z" fill="#ffffff" stroke="#ffffff" stroke-width="1" stroke-linejoin="round"/><path d="M53.81,77.71 L52.72,77.37 L51.99,76.49 L51.88,75.35 L52.42,74.34 L53.43,73.80 L54.57,73.91 L55.45,74.64 L55.79,75.73 L55.51,76.71 L54.79,77.43 L53.81,77.71 L53.81,77.71 Z" fill="#ffffff" stroke="#ffffff" stroke-width="1" stroke-linejoin="round"/><path d="M53.81,69.28 L52.84,69.00 L52.12,68.28 L51.84,67.31 L52.22,66.15 L53.20,65.43 L54.42,65.43 L55.41,66.15 L55.79,67.31 L55.52,68.30 L54.80,69.04 L53.81,69.33 L53.81,69.28 Z" fill="#ffffff" stroke="#ffffff" stroke-width="1" stroke-linejoin="round"/><path d="M90.67,76.53 L90.57,76.80 L90.32,77.02 L89.49,77.23 L59.89,77.23 L59.07,77.02 L58.81,76.80 L58.72,76.53 L58.72,74.67 L59.07,74.23 L59.89,74.03 L89.49,74.03 L90.32,74.23 L90.67,74.67 L90.67,76.53 Z" fill="#ffffff" stroke="#ffffff" stroke-width="1" stroke-linejoin="round"/><path d="M90.67,68.11 L90.57,68.37 L90.32,68.59 L89.49,68.80 L59.89,68.80 L59.07,68.59 L58.81,68.37 L58.72,68.11 L58.72,66.45 L58.81,66.20 L59.07,65.99 L59.89,65.81 L89.49,65.81 L90.32,65.99 L90.57,66.20 L90.67,66.45 L90.67,68.11 Z" fill="#ffffff" stroke="#ffffff" stroke-width="1" stroke-linejoin="round"/><path d="M90.67,60.59 L90.57,60.85 L90.32,61.07 L89.49,61.28 L59.89,61.28 L59.07,61.07 L58.81,60.85 L58.72,60.59 L58.72,58.93 L59.07,58.49 L59.89,58.29 L89.49,58.29 L90.32,58.49 L90.67,58.93 L90.67,60.59 Z" fill="#ffffff" stroke="#ffffff" stroke-width="1" stroke-linejoin="round"/><path d="M49.55,45.97 L49.55,45.97 L48.79,46.07 L48.21,46.57 L48.00,47.31 L48.00,47.31 L48.00,52.37 L96.00,52.37 L96.00,47.36 L96.00,47.36 L95.54,46.43 L94.56,46.08 L49.55,46.08 L49.55,45.97 Z" fill="#666666" stroke="#666666" stroke-width="1" stroke-linejoin="round"/><path d="M89.49,65.81 L59.89,65.81 L59.07,65.99 L58.81,66.20 L58.72,66.45 L58.72,68.11 L58.81,68.37 L59.07,68.59 L59.89,68.80 L89.49,68.80 L90.32,68.59 L90.57,68.37 L90.67,68.11 L90.67,66.45 L90.57,66.20 L90.32,65.99 L89.49,65.81 Z" fill="#666666" stroke="#666666" stroke-width="1" stroke-linejoin="round"/><path d="M89.49,58.29 L59.89,58.29 L59.07,58.49 L58.72,58.93 L58.72,60.59 L58.81,60.85 L59.07,61.07 L59.89,61.28 L89.49,61.28 L90.32,61.07 L90.57,60.85 L90.67,60.59 L90.67,58.93 L90.32,58.51 L89.49,58.29 Z" fill="#666666" stroke="#666666" stroke-width="1" stroke-linejoin="round"/><path d="M89.49,74.24 L59.89,74.24 L59.07,74.44 L58.72,74.88 L58.72,76.53 L58.81,76.80 L59.07,77.02 L59.89,77.23 L89.49,77.23 L90.32,77.02 L90.57,76.80 L90.67,76.53 L90.67,74.67 L90.32,74.45 L89.49,74.24 Z" fill="#666666" stroke="#666666" stroke-width="1" stroke-linejoin="round"/><ellipse cx="53.81" cy="59.79" rx="1.97" ry="1.97" fill="#666666" stroke="#666666" stroke-width="1"/><ellipse cx="53.81" cy="67.31" rx="1.97" ry="1.97" fill="#666666" stroke="#666666" stroke-width="1"/><ellipse cx="53.81" cy="75.73" rx="1.97" ry="1.97" fill="#666666" stroke="#666666" stroke-width="1"/></svg>