<svg xmlns="http://www.w3.org/2000/svg" viewBox="-1.52 -1.63 99.78 100.00"><path d="M49.41,94.79 L48.26,94.43 L47.43,93.56 L47.13,92.40 L47.43,91.24 L48.26,90.37 L49.41,90.01 L55.26,89.55 L60.99,88.28 L66.50,86.24 L71.67,83.45 L76.41,79.98 L80.62,75.89 L84.23,71.25 L87.16,66.16 L89.36,60.72 L90.79,55.02 L91.42,49.19 L91.24,43.32 L90.25,37.53 L88.48,31.93 L85.94,26.63 L82.70,21.73 L78.82,17.33 L74.35,13.52 L69.40,10.36 L64.06,7.91 L58.43,6.23 L52.63,5.33 L46.76,5.25 L40.93,5.98 L35.26,7.50 L29.85,9.79 L24.81,12.81 L20.24,16.49 L16.21,20.77 L12.82,25.56 L10.12,30.78 L8.17,36.32 L6.99,42.07 L6.63,47.93 L6.36,49.18 L5.48,50.11 L4.26,50.46 L3.03,50.13 L2.14,49.21 L1.85,47.97 L2.20,41.81 L3.36,35.74 L5.29,29.87 L7.98,24.31 L11.37,19.15 L15.40,14.47 L20.01,10.36 L25.12,6.89 L30.63,4.11 L36.46,2.08 L42.51,0.83 L48.67,0.37 L54.83,0.72 L60.90,1.88 L66.76,3.81 L72.33,6.50 L77.49,9.89 L82.17,13.92 L86.28,18.53 L89.75,23.64 L92.53,29.15 L94.56,34.98 L95.81,41.03 L96.27,47.19 L95.92,53.36 L94.76,59.42 L92.82,65.29 L90.14,70.85 L86.75,76.01 L82.72,80.69 L78.11,84.80 L73.00,88.27 L67.49,91.05 L61.65,93.08 L55.61,94.34 L49.45,94.79 L49.41,94.79 Z" fill="#e6e6e6" stroke="#1e1e1e" stroke-width="1" stroke-linejoin="round"/><path d="M22.64,96.37 L18.69,95.92 L14.89,94.78 L11.33,93.01 L8.14,90.64 L5.41,87.76 L3.22,84.45 L1.63,80.81 L0.70,76.95 L0.53,75.26 L0.48,73.57 L0.64,72.56 L1.03,71.79 L1.64,71.31 L2.43,71.13 L3.27,71.28 L3.95,71.75 L4.42,72.52 L4.58,73.55 L4.70,76.18 L5.21,78.76 L6.10,81.24 L7.97,84.63 L10.53,87.54 L13.64,89.85 L17.17,91.44 L20.96,92.25 L23.58,92.46 L24.51,92.61 L25.18,92.98 L25.59,93.57 L25.73,94.37 L25.59,95.19 L25.19,95.80 L24.53,96.20 L23.64,96.37 L22.64,96.37 Z" fill="#b3b3b3" stroke="#1e1e1e" stroke-width="1" stroke-linejoin="round" opacity="0.51"/><path d="M22.83,88.86 L19.48,88.41 L16.31,87.22 L13.48,85.36 L11.14,82.91 L9.41,80.00 L8.36,76.78 L8.06,73.41 L8.13,72.66 L8.29,71.93 L8.97,70.97 L10.09,70.64 L11.23,70.92 L11.95,71.85 L12.16,72.83 L12.16,73.83 L12.56,76.65 L13.66,79.27 L15.40,81.52 L17.66,83.25 L20.29,84.35 L23.11,84.73 L23.74,84.73 L24.36,84.77 L25.36,85.16 L26.04,85.99 L26.22,87.05 L25.92,88.00 L25.19,88.66 L24.21,88.86 L22.83,88.86 Z" fill="#b3b3b3" stroke="#1e1e1e" stroke-width="1" stroke-linejoin="round" opacity="0.51"/><path d="M85.99,62.04 L86.41,62.59 L86.67,63.22 L86.76,63.91 L86.67,64.59 L86.41,65.22 L85.99,65.77 L76.25,75.50 L75.71,75.92 L75.07,76.18 L74.39,76.27 L73.71,76.18 L73.08,75.92 L72.53,75.50 L21.71,24.68 L21.29,24.13 L21.02,23.49 L20.93,22.81 L21.02,22.13 L21.29,21.50 L21.71,20.95 L31.44,11.22 L31.98,10.80 L32.62,10.54 L33.30,10.45 L33.98,10.54 L34.62,10.80 L35.16,11.22 L85.99,62.04 Z" fill="#0070c6" stroke="#1e1e1e" stroke-width="1" stroke-linejoin="round"/><path d="M31.58,61.91 L35.00,65.34 L27.83,72.51 L24.40,69.08 L31.58,61.91 Z" fill="#005ba1" stroke="#005ba1" stroke-width="1" stroke-linejoin="round"/><ellipse cx="22.59" cy="74.33" rx="6.10" ry="6.10" fill="#76e8ff" stroke="#76e8ff" stroke-width="1"/><path d="M38.08,41.04 L55.89,58.84 L52.36,62.37 L34.55,44.56 L38.08,41.04 Z" fill="#005ba1" stroke="#1e1e1e" stroke-width="1" stroke-linejoin="round"/><path d="M65.05,22.51 L74.42,31.87 L74.78,32.75 L74.42,33.62 L69.01,39.02 L69.01,39.02 L57.90,27.91 L57.90,27.91 L63.31,22.51 L64.18,22.15 L65.05,22.51 Z" fill="#005ba1" stroke="#005ba1" stroke-width="1" stroke-linejoin="round"/><path d="M56.72,26.73 L70.19,40.20 L70.99,41.58 L70.99,43.19 L70.19,44.57 L55.88,58.89 L55.88,58.89 L38.01,41.02 L38.01,41.02 L52.33,26.71 L53.72,25.91 L55.33,25.91 L56.72,26.73 L56.72,26.73 Z" fill="#50e6ff" stroke="#1e1e1e" stroke-width="1" stroke-linejoin="round"/><path d="M41.52,76.73 L20.17,55.44 L19.25,54.00 L18.98,52.30 L19.40,50.64 L20.45,49.28 L21.95,48.45 L34.85,44.33 L52.72,62.20 L48.48,74.97 L47.64,76.46 L46.29,77.49 L44.64,77.90 L42.96,77.64 L41.52,76.73 L41.52,76.73 Z" fill="#2f8ce2" stroke="#1e1e1e" stroke-width="1" stroke-linejoin="round"/></svg>