<svg xmlns="http://www.w3.org/2000/svg" viewBox="-0.63 3.61 100.00 91.53"><path d="M23.87,11.41 L21.04,15.64 L18.77,20.19 L17.09,25.00 L8.72,25.00 L11.61,20.71 L15.17,16.95 L19.29,13.82 L23.87,11.41 L23.87,11.41 Z" fill="#8960e0" stroke="#8960e0" stroke-width="1" stroke-linejoin="round"/><path d="M6.78,51.38 L16.49,51.38 L15.30,45.89 L14.84,40.30 L15.19,34.28 L16.20,28.34 L7.09,28.34 L5.62,32.82 L4.84,37.47 L4.77,42.19 L5.43,46.86 L6.78,51.38 L6.78,51.38 Z" fill="#8960e0" stroke="#8960e0" stroke-width="1" stroke-linejoin="round"/><path d="M26.04,69.97 L22.58,65.26 L19.74,60.15 L17.55,54.73 L8.27,54.73 L10.80,58.80 L13.92,62.44 L17.56,65.56 L21.63,68.09 L26.04,69.97 L26.04,69.97 Z" fill="#8960e0" stroke="#8960e0" stroke-width="1" stroke-linejoin="round"/><path d="M21.10,54.73 L23.03,59.55 L25.67,64.02 L28.96,68.02 L32.83,71.48 L33.74,71.53 L33.69,71.25 L33.69,58.59 L33.91,57.31 L34.51,56.17 L34.51,54.73 L21.10,54.73 Z" fill="#8960e0" stroke="#8960e0" stroke-width="1" stroke-linejoin="round"/><path d="M18.20,40.30 L18.71,45.90 L20.01,51.38 L34.56,51.38 L34.56,28.34 L19.61,28.34 L18.55,34.28 L18.20,40.30 L18.20,40.30 Z" fill="#8960e0" stroke="#8960e0" stroke-width="1" stroke-linejoin="round"/><path d="M20.53,25.00 L34.56,25.00 L34.56,9.01 L31.54,9.30 L28.43,11.69 L25.71,14.52 L23.46,17.74 L21.72,21.26 L20.53,25.00 L20.53,25.00 Z" fill="#8960e0" stroke="#8960e0" stroke-width="1" stroke-linejoin="round"/><path d="M39.91,9.20 L37.88,9.03 L37.88,24.99 L51.13,24.99 L49.95,21.20 L48.19,17.64 L45.89,14.40 L43.10,11.57 L39.91,9.20 Z" fill="#8960e0" stroke="#8960e0" stroke-width="1" stroke-linejoin="round"/><path d="M37.88,51.38 L51.66,51.38 L52.96,45.90 L53.47,40.30 L53.12,34.28 L52.06,28.34 L37.88,28.34 L37.88,51.38 Z" fill="#8960e0" stroke="#8960e0" stroke-width="1" stroke-linejoin="round"/><path d="M47.59,11.17 L50.51,15.46 L52.86,20.10 L54.58,25.00 L63.40,25.00 L61.05,21.42 L58.24,18.19 L55.02,15.37 L51.45,13.02 L47.59,11.17 L47.59,11.17 Z" fill="#8960e0" stroke="#8960e0" stroke-width="1" stroke-linejoin="round"/><path d="M55.45,28.34 L56.46,34.27 L56.80,40.29 L56.35,45.89 L55.16,51.38 L65.33,51.38 L66.68,46.86 L67.33,42.19 L67.27,37.48 L66.49,32.82 L65.01,28.34 L55.45,28.34 Z" fill="#8960e0" stroke="#8960e0" stroke-width="1" stroke-linejoin="round"/><path d="M95.32,76.37 L95.85,76.44 L96.34,76.64 L96.77,76.97 L97.09,77.39 L97.30,77.89 L97.37,78.42 L97.37,91.08 L97.30,91.61 L97.09,92.11 L96.77,92.53 L96.34,92.86 L95.85,93.06 L95.32,93.13 L38.11,93.13 L37.58,93.06 L37.08,92.86 L36.66,92.53 L36.33,92.11 L36.13,91.61 L36.06,91.08 L36.06,78.42 L36.13,77.89 L36.33,77.39 L36.66,76.97 L37.08,76.64 L37.58,76.44 L38.11,76.37 L95.32,76.37 Z" fill="#3acbba" stroke="#1e1e1e" stroke-width="1" stroke-linejoin="round"/><path d="M91.40,79.30 L91.66,79.34 L91.91,79.44 L92.12,79.60 L92.29,79.82 L92.39,80.06 L92.43,80.33 L92.43,82.86 L92.39,83.12 L92.29,83.37 L92.12,83.58 L91.91,83.75 L91.66,83.85 L91.40,83.88 L88.87,83.88 L88.61,83.85 L88.36,83.75 L88.15,83.58 L87.98,83.37 L87.88,83.12 L87.84,82.86 L87.84,80.33 L87.88,80.06 L87.98,79.82 L88.15,79.60 L88.36,79.44 L88.61,79.34 L88.87,79.30 L91.40,79.30 Z" fill="#ffffff" stroke="#ffffff" stroke-width="1" stroke-linejoin="round"/><path d="M91.40,85.62 L91.66,85.65 L91.91,85.76 L92.12,85.92 L92.29,86.13 L92.39,86.38 L92.43,86.64 L92.43,89.17 L92.39,89.44 L92.29,89.69 L92.12,89.90 L91.91,90.06 L91.66,90.16 L91.40,90.20 L88.87,90.20 L88.61,90.16 L88.36,90.06 L88.15,89.90 L87.98,89.69 L87.88,89.44 L87.84,89.17 L87.84,86.64 L87.88,86.38 L87.98,86.13 L88.15,85.92 L88.36,85.76 L88.61,85.65 L88.87,85.62 L91.40,85.62 Z" fill="#ffffff" stroke="#ffffff" stroke-width="1" stroke-linejoin="round" opacity="0.6"/><path d="M33.76,71.53 L32.85,71.48 L28.98,68.02 L25.69,64.02 L23.05,59.55 L21.12,54.73 L34.53,54.73 L34.53,56.17 L35.48,55.12 L36.71,54.43 L38.11,54.18 L67.73,54.18 L69.43,49.58 L70.45,44.78 L70.76,39.89 L70.37,35.00 L69.26,30.22 L67.48,25.66 L67.16,24.99 L64.73,20.81 L61.73,17.01 L58.24,13.67 L54.32,10.84 L50.04,8.59 L45.49,6.95 L40.76,5.96 L39.95,5.82 L39.14,5.77 L36.06,5.61 L32.52,5.78 L31.57,5.88 L30.64,6.07 L25.28,7.38 L20.20,9.51 L15.52,12.42 L11.36,16.04 L7.82,20.26 L4.99,25.00 L4.94,25.00 L4.94,25.07 L2.90,30.17 L1.70,35.52 L1.37,41.00 L1.90,46.47 L3.30,51.78 L5.51,56.80 L8.50,61.40 L12.17,65.48 L16.45,68.93 L21.21,71.65 L26.35,73.58 L31.73,74.68 L31.86,74.71 L31.99,74.72 L33.94,74.91 L35.90,74.98 L34.82,74.09 L34.08,72.89 L33.76,71.53 L33.76,71.53 Z" fill="#b796f9" stroke="#b796f9" stroke-width="1" stroke-linejoin="round"/><path d="M65.34,51.38 L55.17,51.38 L56.36,45.89 L56.82,40.29 L56.47,34.27 L55.46,28.34 L65.05,28.34 L66.52,32.82 L67.29,37.47 L67.36,42.19 L66.70,46.86 L65.34,51.38 L65.34,51.38 Z" fill="#8960e0" stroke="#8960e0" stroke-width="1" stroke-linejoin="round"/><path d="M63.40,25.00 L54.58,25.00 L52.86,20.10 L50.51,15.46 L47.59,11.17 L51.45,13.02 L55.02,15.37 L58.24,18.19 L61.05,21.42 L63.40,25.00 L63.40,25.00 Z" fill="#8960e0" stroke="#8960e0" stroke-width="1" stroke-linejoin="round"/><path d="M37.88,9.03 L39.91,9.20 L43.10,11.57 L45.89,14.40 L48.19,17.64 L49.95,21.20 L51.13,24.99 L37.88,24.99 L37.88,9.03 Z" fill="#8960e0" stroke="#8960e0" stroke-width="1" stroke-linejoin="round"/><path d="M37.88,28.34 L52.06,28.34 L53.12,34.28 L53.47,40.30 L52.96,45.90 L51.66,51.38 L37.88,51.38 L37.88,28.34 Z" fill="#8960e0" stroke="#8960e0" stroke-width="1" stroke-linejoin="round"/><path d="M34.56,51.38 L20.01,51.38 L18.71,45.90 L18.20,40.30 L18.55,34.28 L19.61,28.34 L34.56,28.34 L34.56,51.38 Z" fill="#8960e0" stroke="#8960e0" stroke-width="1" stroke-linejoin="round"/><path d="M31.52,9.33 L34.54,9.03 L34.54,25.00 L20.53,25.00 L21.72,21.26 L23.45,17.75 L25.70,14.54 L28.41,11.71 L31.52,9.33 L31.52,9.33 Z" fill="#8960e0" stroke="#8960e0" stroke-width="1" stroke-linejoin="round"/><path d="M23.84,11.43 L21.02,15.66 L18.76,20.20 L17.09,25.00 L8.72,25.00 L11.61,20.71 L15.17,16.95 L19.29,13.82 L23.87,11.41 L23.84,11.43 Z" fill="#8960e0" stroke="#8960e0" stroke-width="1" stroke-linejoin="round"/><path d="M7.09,28.34 L16.22,28.34 L15.20,34.28 L14.86,40.30 L15.31,45.89 L16.51,51.38 L6.78,51.38 L5.43,46.86 L4.77,42.19 L4.84,37.47 L5.62,32.82 L7.09,28.34 L7.09,28.34 Z" fill="#8960e0" stroke="#8960e0" stroke-width="1" stroke-linejoin="round"/><path d="M8.27,54.73 L17.55,54.73 L19.75,60.15 L22.60,65.26 L26.06,69.97 L21.65,68.09 L17.58,65.56 L13.93,62.44 L10.80,58.80 L8.27,54.73 L8.27,54.73 Z" fill="#8960e0" stroke="#8960e0" stroke-width="1" stroke-linejoin="round"/><path d="M95.32,56.54 L95.85,56.61 L96.34,56.81 L96.77,57.14 L97.09,57.56 L97.30,58.06 L97.37,58.59 L97.37,71.25 L97.30,71.78 L97.09,72.28 L96.77,72.70 L96.34,73.03 L95.85,73.23 L95.32,73.30 L38.11,73.30 L37.58,73.23 L37.08,73.03 L36.66,72.70 L36.33,72.28 L36.13,71.78 L36.06,71.25 L36.06,58.59 L36.13,58.06 L36.33,57.56 L36.66,57.14 L37.08,56.81 L37.58,56.61 L38.11,56.54 L95.32,56.54 Z" fill="#3acbba" stroke="#1e1e1e" stroke-width="1" stroke-linejoin="round"/><path d="M91.40,59.47 L91.66,59.50 L91.91,59.61 L92.12,59.77 L92.29,59.98 L92.39,60.23 L92.43,60.49 L92.43,63.02 L92.39,63.29 L92.29,63.54 L92.12,63.75 L91.91,63.91 L91.66,64.01 L91.40,64.05 L88.87,64.05 L88.61,64.01 L88.36,63.91 L88.15,63.75 L87.98,63.54 L87.88,63.29 L87.84,63.02 L87.84,60.49 L87.88,60.23 L87.98,59.98 L88.15,59.77 L88.36,59.61 L88.61,59.50 L88.87,59.47 L91.40,59.47 Z" fill="#ffffff" stroke="#ffffff" stroke-width="1" stroke-linejoin="round"/><path d="M91.40,65.79 L91.66,65.82 L91.91,65.92 L92.12,66.09 L92.29,66.30 L92.39,66.55 L92.43,66.81 L92.43,69.34 L92.39,69.61 L92.29,69.86 L92.12,70.07 L91.91,70.23 L91.66,70.33 L91.40,70.37 L88.87,70.37 L88.61,70.33 L88.36,70.23 L88.15,70.07 L87.98,69.86 L87.88,69.61 L87.84,69.34 L87.84,66.81 L87.88,66.55 L87.98,66.30 L88.15,66.09 L88.36,65.92 L88.61,65.82 L88.87,65.79 L91.40,65.79 Z" fill="#ffffff" stroke="#ffffff" stroke-width="1" stroke-linejoin="round" opacity="0.6"/></svg>