<svg xmlns="http://www.w3.org/2000/svg" viewBox="5.46 -0.32 88.57 100.00"><ellipse cx="49.48" cy="10.72" rx="8.70" ry="9.04" fill="#3acebc" stroke="#1e1e1e" stroke-width="1"/><path d="M60.25,11.35 L59.92,13.54 L59.18,15.63 L64.53,17.57 L69.54,20.27 L74.11,23.66 L78.15,27.68 L81.56,32.23 L84.28,37.24 L86.24,42.58 L87.41,48.15 L87.77,53.83 L87.41,59.17 L86.36,64.42 L84.62,69.48 L82.22,74.26 L84.12,75.32 L85.77,76.75 L88.47,71.39 L90.44,65.72 L91.63,59.83 L92.02,53.85 L91.64,47.52 L90.34,41.33 L88.16,35.38 L85.14,29.81 L81.35,24.74 L76.87,20.27 L71.78,16.50 L66.20,13.51 L60.25,11.35 L60.25,11.35 Z" fill="#37c2b1" stroke="#1e1e1e" stroke-width="1" stroke-linejoin="round"/><ellipse cx="78.07" cy="84.65" rx="8.70" ry="9.04" fill="#3acebc" stroke="#1e1e1e" stroke-width="1"/><ellipse cx="19.37" cy="84.65" rx="8.70" ry="9.04" fill="#3acebc" stroke="#1e1e1e" stroke-width="1"/><path d="M67.93,88.49 L62.76,90.93 L57.27,92.54 L51.60,93.28 L45.88,93.12 L40.25,92.07 L34.86,90.16 L29.83,87.42 L29.10,89.52 L27.97,91.43 L33.57,94.39 L39.56,96.45 L45.79,97.56 L52.13,97.68 L58.40,96.83 L64.47,95.01 L70.18,92.27 L68.87,90.49 L67.93,88.49 L67.93,88.49 Z" fill="#37c2b1" stroke="#1e1e1e" stroke-width="1" stroke-linejoin="round"/><path d="M16.91,73.71 L14.65,69.04 L13.01,64.11 L12.01,59.01 L11.68,53.83 L12.03,48.19 L13.18,42.67 L15.11,37.37 L17.78,32.40 L21.14,27.86 L25.11,23.85 L29.61,20.45 L34.55,17.73 L39.84,15.74 L39.07,13.66 L38.72,11.47 L32.85,13.68 L27.35,16.71 L22.35,20.49 L17.94,24.95 L14.21,30.00 L11.25,35.53 L9.11,41.43 L7.84,47.57 L7.46,53.83 L7.81,59.49 L8.87,65.06 L10.63,70.46 L13.05,75.58 L14.88,74.45 L16.91,73.71 Z" fill="#37c2b1" stroke="#1e1e1e" stroke-width="1" stroke-linejoin="round"/><path d="M67.37,74.65 L71.15,74.02 L74.66,72.47 L77.67,70.09 L79.99,67.03 L81.48,63.50 L82.04,59.70 L81.61,56.22 L80.39,52.94 L78.44,50.03 L75.86,47.66 L72.81,45.95 L69.44,45.00 L68.92,40.98 L67.55,37.16 L65.40,33.72 L62.57,30.83 L59.18,28.60 L55.39,27.15 L51.39,26.54 L47.34,26.80 L43.45,27.92 L39.88,29.84 L36.80,32.48 L34.36,35.72 L32.67,39.40 L28.68,40.44 L25.03,42.37 L21.93,45.09 L19.54,48.46 L18.00,52.29 L17.38,56.37 L17.73,60.48 L19.02,64.40 L21.18,67.92 L24.10,70.84 L27.61,73.01 L31.53,74.30 L35.64,74.65 L67.37,74.65 Z" fill="#8960e0" stroke="#1e1e1e" stroke-width="1" stroke-linejoin="round"/><path d="M63.84,53.37 L63.84,50.02 L63.67,49.85 L60.37,48.69 L59.53,46.39 L61.16,42.88 L61.33,42.49 L60.28,41.40 L59.04,40.10 L58.61,40.33 L55.39,42.05 L53.16,41.40 L51.75,37.67 L48.57,37.67 L48.41,37.84 L47.29,41.26 L45.04,42.14 L41.31,40.28 L39.03,42.63 L39.25,43.07 L40.90,46.42 L39.97,48.72 L36.05,50.16 L36.05,53.52 L36.51,53.66 L39.95,54.84 L40.87,57.15 L39.15,61.03 L41.43,63.43 L41.86,63.20 L45.09,61.49 L47.31,62.45 L48.73,66.49 L51.96,66.49 L52.09,66.01 L53.23,62.44 L55.42,61.48 L59.20,63.32 L61.48,60.95 L61.26,60.50 L59.59,57.18 L60.21,54.83 L63.84,53.37 Z" fill="#ffffff" stroke="#ffffff" stroke-width="1" stroke-linejoin="round"/><path d="M50.25,56.48 L48.27,56.13 L46.61,54.99 L45.59,53.25 L45.38,51.25 L46.03,49.34 L47.42,47.88 L49.30,47.14 L51.31,47.25 L53.09,48.19 L54.32,49.79 L54.76,51.75 L54.76,51.77 L54.44,53.53 L53.47,55.04 L52.00,56.07 L50.25,56.47 L50.25,56.48 Z" fill="#8960e0" stroke="#8960e0" stroke-width="1" stroke-linejoin="round"/></svg>