<svg xmlns="http://www.w3.org/2000/svg" viewBox="-2.00 6.11 100.00 86.07"><path d="M74.40,84.32 L74.45,84.32 L74.45,84.32 L74.40,84.32 Z" fill="#6bb9f2" stroke="#6bb9f2" stroke-width="1" stroke-linejoin="round"/><path d="M77.01,8.11 L3.25,8.11 L2.01,8.30 L0.94,8.97 L0.23,10.01 L0.00,11.25 L0.00,49.17 L0.24,50.37 L0.92,51.38 L1.95,52.05 L3.15,52.27 L44.00,52.27 L44.00,37.33 L44.22,36.26 L44.86,35.37 L45.81,34.83 L46.51,34.83 L51.11,34.44 L55.57,33.26 L59.75,31.30 L63.52,28.64 L65.31,27.83 L67.20,27.31 L69.42,26.87 L71.68,26.67 L73.93,26.76 L76.16,27.09 L78.19,27.65 L80.11,28.53 L80.11,11.25 L79.89,10.05 L79.22,9.03 L78.21,8.35 L77.01,8.11 Z" fill="#821010" stroke="#821010" stroke-width="1" stroke-linejoin="round"/><path d="M54.51,38.19 L54.51,48.00 L76.16,48.00 L76.16,38.19 L54.51,38.19 Z" fill="#821010" stroke="#821010" stroke-width="1" stroke-linejoin="round"/><rect x="4.53" y="12.48" width="21.71" height="9.60" fill="#e62323" stroke="#e62323" stroke-width="1"/><rect x="29.49" y="12.48" width="21.71" height="9.60" fill="#ff7381" stroke="#ff7381" stroke-width="1"/><rect x="54.51" y="12.48" width="21.71" height="9.60" fill="#e62323" stroke="#e62323" stroke-width="1"/><rect x="4.53" y="25.33" width="9.01" height="9.60" fill="#e62323" stroke="#e62323" stroke-width="1"/><path d="M76.16,25.33 L76.16,27.25 L73.94,26.84 L71.68,26.67 L69.43,26.76 L67.20,27.09 L67.20,25.33 L76.16,25.33 Z" fill="#ff7381" stroke="#ff7381" stroke-width="1" stroke-linejoin="round"/><rect x="16.85" y="25.33" width="21.71" height="9.60" fill="#ff7381" stroke="#ff7381" stroke-width="1"/><path d="M63.52,25.33 L63.52,28.59 L59.75,31.25 L55.57,33.20 L51.11,34.39 L46.51,34.77 L45.81,34.77 L41.81,34.77 L41.81,25.33 L63.52,25.33 Z" fill="#e62323" stroke="#e62323" stroke-width="1" stroke-linejoin="round"/><rect x="4.53" y="38.24" width="21.71" height="9.60" fill="#e62323" stroke="#e62323" stroke-width="1"/><rect x="29.49" y="38.19" width="14.51" height="9.60" fill="#ff7381" stroke="#ff7381" stroke-width="1"/><path d="M96.00,58.67 L95.78,61.63 L95.17,64.50 L94.20,67.27 L92.94,69.94 L91.42,72.49 L89.71,74.91 L87.84,77.20 L85.88,79.34 L81.86,83.14 L78.05,86.23 L74.84,88.53 L72.64,89.97 L71.84,90.17 L71.04,89.97 L68.79,88.55 L65.54,86.25 L61.70,83.16 L57.66,79.36 L55.69,77.22 L53.82,74.93 L52.10,72.50 L50.59,69.95 L49.32,67.28 L48.35,64.50 L47.74,61.63 L47.52,58.67 L47.52,39.63 L47.72,38.87 L48.26,38.30 L49.01,38.08 L51.61,37.94 L53.82,37.67 L55.69,37.30 L57.28,36.84 L59.79,35.72 L61.75,34.47 L63.52,33.24 L65.51,32.18 L68.10,31.43 L69.74,31.22 L71.68,31.15 L73.62,31.22 L75.26,31.43 L77.85,32.18 L79.84,33.24 L81.61,34.47 L83.57,35.72 L86.08,36.84 L87.67,37.30 L89.54,37.67 L91.75,37.94 L94.35,38.08 L95.10,38.30 L95.64,38.87 L95.84,39.63 L96.00,58.67 Z" fill="#dfa500" stroke="#1e1e1e" stroke-width="1" stroke-linejoin="round"/><path d="M71.68,60.69 L71.68,33.60 L74.97,33.86 L77.34,34.55 L79.17,35.53 L80.80,36.66 L82.59,37.81 L84.89,38.84 L88.07,39.62 L92.48,40.00 L93.46,40.41 L93.87,41.39 L93.87,58.67 L93.87,60.48 L71.68,60.69 Z" fill="#feb218" stroke="#1e1e1e" stroke-width="1" stroke-linejoin="round"/><path d="M71.68,60.69 L49.60,60.69 L50.02,63.23 L50.75,65.69 L51.75,68.07 L52.99,70.35 L54.41,72.53 L55.98,74.61 L59.41,78.39 L62.94,81.62 L66.26,84.24 L69.03,86.18 L70.93,87.36 L71.57,87.36 L71.57,87.36 L71.68,60.69 Z" fill="#feb218" stroke="#1e1e1e" stroke-width="1" stroke-linejoin="round"/><path d="M50.88,40.00 L55.29,39.62 L58.49,38.84 L60.81,37.81 L62.62,36.66 L64.26,35.53 L66.08,34.55 L68.44,33.86 L71.68,33.60 L71.68,60.69 L49.60,60.69 L49.60,58.88 L49.60,41.39 L49.97,40.44 L50.88,40.00 L50.88,40.00 Z" fill="#ffd400" stroke="#1e1e1e" stroke-width="1" stroke-linejoin="round"/><path d="M93.76,60.69 L71.68,60.69 L71.68,87.79 L71.68,87.79 L72.27,87.79 L77.06,84.48 L80.40,81.82 L83.95,78.56 L87.39,74.76 L88.96,72.67 L90.38,70.48 L91.61,68.17 L92.61,65.77 L93.34,63.27 L93.76,60.69 Z" fill="#ffd400" stroke="#1e1e1e" stroke-width="1" stroke-linejoin="round"/></svg>