<svg xmlns="http://www.w3.org/2000/svg" viewBox="-2.00 -2.00 100.00 100.00"><path d="M56.55,50.99 L56.55,45.08 L56.30,43.61 L56.26,42.12 L39.10,42.12 L39.07,43.61 L38.81,45.08 L38.81,50.99 L39.07,52.46 L39.10,53.95 L56.26,53.95 L56.30,52.46 L56.55,50.99 Z" fill="#32bedd" stroke="#32bedd" stroke-width="1" stroke-linejoin="round"/><path d="M58.03,36.49 L58.43,37.79 L58.62,39.15 L66.33,39.17 L65.37,37.35 L64.26,35.62 L61.60,32.66 L58.03,30.30 L54.49,28.51 L55.96,30.88 L57.15,33.54 L58.03,36.50 L58.03,36.49 Z" fill="#32bedd" stroke="#32bedd" stroke-width="1" stroke-linejoin="round"/><path d="M58.03,65.78 L61.58,63.41 L64.23,60.45 L65.36,58.73 L66.33,56.91 L58.62,56.91 L58.44,58.26 L58.03,59.56 L57.15,62.52 L55.96,65.17 L54.49,67.55 L56.34,66.84 L58.03,65.78 L58.03,65.78 Z" fill="#32bedd" stroke="#32bedd" stroke-width="1" stroke-linejoin="round"/><path d="M74.82,41.50 L77.88,38.42 L76.35,34.51 L74.34,30.88 L71.88,27.56 L69.03,24.60 L65.81,22.02 L62.26,19.88 L58.43,18.20 L54.36,17.04 L54.36,20.92 L58.04,22.10 L61.48,23.76 L64.63,25.86 L67.47,28.35 L69.94,31.20 L72.02,34.36 L73.65,37.81 L74.82,41.50 Z" fill="#32bedd" stroke="#32bedd" stroke-width="1" stroke-linejoin="round"/><path d="M26.99,48.04 L27.20,51.03 L27.88,53.95 L36.15,53.95 L36.12,52.46 L35.86,50.99 L35.86,45.08 L36.12,43.61 L36.15,42.12 L27.88,42.12 L27.20,45.04 L26.99,48.03 L26.99,48.04 Z" fill="#32bedd" stroke="#32bedd" stroke-width="1" stroke-linejoin="round"/><path d="M37.34,36.51 L38.22,33.55 L39.41,30.90 L40.89,28.51 L39.03,29.22 L37.34,30.28 L33.80,32.66 L31.14,35.62 L30.02,37.35 L29.06,39.17 L36.75,39.17 L36.94,37.82 L37.34,36.51 L37.34,36.51 Z" fill="#32bedd" stroke="#32bedd" stroke-width="1" stroke-linejoin="round"/><path d="M33.79,63.41 L37.34,65.78 L39.03,66.84 L40.89,67.55 L39.40,65.18 L38.22,62.53 L37.33,59.57 L36.93,58.27 L36.74,56.92 L29.05,56.91 L30.01,58.73 L31.13,60.45 L33.79,63.41 L33.79,63.41 Z" fill="#32bedd" stroke="#32bedd" stroke-width="1" stroke-linejoin="round"/><path d="M55.67,56.92 L39.70,56.92 L39.92,57.97 L40.29,58.99 L41.18,61.64 L41.68,63.01 L42.36,64.30 L43.84,66.37 L45.62,68.14 L47.69,68.74 L49.75,68.14 L51.53,66.37 L53.00,64.30 L53.68,63.01 L54.19,61.64 L55.07,58.99 L55.44,57.97 L55.66,56.92 L55.67,56.92 Z" fill="#32bedd" stroke="#32bedd" stroke-width="1" stroke-linejoin="round"/><path d="M20.68,55.01 L17.66,58.05 L19.26,61.94 L21.33,65.55 L23.85,68.84 L26.77,71.77 L30.04,74.30 L33.64,76.39 L37.52,78.00 L41.64,79.09 L41.64,75.25 L37.91,74.15 L34.42,72.55 L31.21,70.51 L28.31,68.07 L25.77,65.25 L23.63,62.11 L21.92,58.69 L20.68,55.01 L20.68,55.01 Z" fill="#32bedd" stroke="#32bedd" stroke-width="1" stroke-linejoin="round"/><path d="M54.36,75.09 L54.36,78.97 L58.43,77.80 L62.26,76.13 L65.80,73.99 L69.02,71.41 L71.88,68.44 L74.33,65.13 L76.35,61.50 L77.88,57.59 L74.81,54.51 L73.65,58.20 L72.01,61.65 L69.93,64.81 L67.46,67.66 L64.62,70.15 L61.47,72.25 L58.03,73.91 L54.36,75.09 L54.36,75.09 Z" fill="#32bedd" stroke="#32bedd" stroke-width="1" stroke-linejoin="round"/><path d="M41.64,20.75 L41.64,16.91 L37.52,18.00 L33.64,19.61 L30.04,21.71 L26.77,24.24 L23.85,27.17 L21.33,30.46 L19.26,34.06 L17.66,37.95 L20.68,40.99 L21.92,37.32 L23.63,33.89 L25.77,30.75 L28.31,27.94 L31.21,25.49 L34.42,23.45 L37.91,21.86 L41.64,20.75 Z" fill="#32bedd" stroke="#32bedd" stroke-width="1" stroke-linejoin="round"/><path d="M68.38,48.04 L68.17,45.04 L67.49,42.12 L59.22,42.12 L59.25,43.61 L59.51,45.08 L59.51,51.00 L59.25,52.47 L59.22,53.96 L67.49,53.96 L68.17,51.03 L68.38,48.04 L68.38,48.04 Z" fill="#32bedd" stroke="#32bedd" stroke-width="1" stroke-linejoin="round"/><path d="M40.30,37.09 L39.93,38.10 L39.71,39.16 L55.67,39.16 L55.45,38.10 L55.08,37.09 L54.20,34.43 L53.70,33.06 L53.01,31.78 L51.54,29.71 L49.77,27.94 L47.70,27.34 L45.63,27.94 L43.85,29.71 L42.37,31.78 L41.69,33.06 L41.19,34.43 L40.30,37.09 L40.30,37.09 Z" fill="#32bedd" stroke="#32bedd" stroke-width="1" stroke-linejoin="round"/><path d="M36.69,12.38 L43.31,12.38 L43.72,12.55 L43.89,12.97 L43.89,23.63 L44.06,24.05 L44.48,24.22 L51.52,24.22 L51.94,24.05 L52.11,23.63 L52.11,12.97 L52.28,12.55 L52.69,12.38 L59.31,12.38 L59.71,12.32 L59.95,11.99 L59.93,11.67 L59.73,11.42 L48.43,0.17 L48.00,0.00 L47.57,0.17 L36.27,11.42 L36.04,11.76 L36.12,12.16 L36.37,12.36 L36.69,12.38 Z" fill="#0078d4" stroke="#1e1e1e" stroke-width="1" stroke-linejoin="round"/><path d="M59.31,83.62 L52.69,83.62 L52.28,83.45 L52.11,83.03 L52.11,72.37 L51.94,71.95 L51.52,71.78 L44.48,71.78 L44.06,71.95 L43.89,72.37 L43.89,83.03 L43.72,83.45 L43.31,83.62 L36.69,83.62 L36.37,83.64 L36.12,83.84 L36.04,84.24 L36.27,84.58 L47.57,95.83 L48.00,96.00 L48.43,95.83 L59.73,84.58 L59.93,84.33 L59.95,84.01 L59.71,83.68 L59.31,83.62 L59.31,83.62 Z" fill="#0078d4" stroke="#1e1e1e" stroke-width="1" stroke-linejoin="round"/><path d="M95.41,43.89 L84.75,43.89 L84.33,43.72 L84.16,43.31 L84.16,36.69 L84.10,36.29 L83.77,36.05 L83.45,36.07 L83.20,36.27 L71.95,47.57 L71.78,48.00 L71.95,48.43 L83.20,59.73 L83.54,59.96 L83.94,59.88 L84.14,59.63 L84.16,59.31 L84.16,52.69 L84.33,52.28 L84.75,52.11 L95.41,52.11 L95.83,51.94 L96.00,51.52 L96.00,44.48 L95.83,44.06 L95.41,43.89 L95.41,43.89 Z" fill="#86d633" stroke="#1e1e1e" stroke-width="1" stroke-linejoin="round"/><path d="M12.80,36.27 L12.55,36.07 L12.23,36.05 L11.90,36.29 L11.84,36.69 L11.84,43.31 L11.67,43.72 L11.25,43.89 L0.59,43.89 L0.17,44.06 L0.00,44.48 L0.00,51.52 L0.17,51.94 L0.59,52.11 L11.25,52.11 L11.67,52.28 L11.84,52.69 L11.84,59.31 L11.86,59.63 L12.06,59.88 L12.46,59.96 L12.80,59.73 L24.05,48.43 L24.22,48.00 L24.05,47.57 L12.80,36.27 L12.80,36.27 Z" fill="#86d633" stroke="#1e1e1e" stroke-width="1" stroke-linejoin="round"/></svg>