<svg xmlns="http://www.w3.org/2000/svg" viewBox="-1.52 -1.63 99.05 99.26"><path d="M49.02,94.06 L47.89,93.70 L47.06,92.84 L46.76,91.69 L47.06,90.53 L47.89,89.67 L49.02,89.32 L54.83,88.86 L60.52,87.60 L65.99,85.57 L71.12,82.81 L75.82,79.36 L80.00,75.30 L83.58,70.70 L86.49,65.65 L88.67,60.25 L90.09,54.60 L90.72,48.81 L90.54,42.98 L89.56,37.24 L87.79,31.68 L85.28,26.43 L82.06,21.56 L78.21,17.19 L73.77,13.41 L68.86,10.28 L63.56,7.85 L57.98,6.18 L52.22,5.29 L46.40,5.21 L40.61,5.93 L34.99,7.44 L29.62,9.72 L24.62,12.71 L20.08,16.36 L16.09,20.61 L12.72,25.37 L10.04,30.54 L8.10,36.04 L6.94,41.75 L6.58,47.56 L6.31,48.80 L5.44,49.72 L4.22,50.07 L3.00,49.74 L2.12,48.83 L1.83,47.60 L2.19,41.48 L3.33,35.46 L5.25,29.64 L7.92,24.13 L11.28,19.00 L15.28,14.36 L19.86,10.28 L24.92,6.84 L30.40,4.08 L36.18,2.06 L42.18,0.82 L48.29,0.37 L54.41,0.72 L60.43,1.86 L66.25,3.79 L71.77,6.45 L76.89,9.81 L81.53,13.81 L85.61,18.39 L89.06,23.45 L91.81,28.93 L93.83,34.71 L95.07,40.71 L95.53,46.83 L95.17,52.94 L94.03,58.96 L92.11,64.78 L89.44,70.30 L86.08,75.42 L82.08,80.06 L77.50,84.14 L72.44,87.59 L66.96,90.34 L61.18,92.36 L55.18,93.61 L49.07,94.06 L49.02,94.06 Z" fill="#e6e6e6" stroke="#1e1e1e" stroke-width="1" stroke-linejoin="round"/><path d="M22.46,95.63 L18.55,95.17 L14.77,94.05 L11.25,92.29 L8.08,89.94 L5.37,87.08 L3.19,83.80 L1.62,80.18 L0.70,76.35 L0.52,74.68 L0.48,73.00 L0.63,72.00 L1.02,71.24 L1.62,70.76 L2.42,70.58 L3.24,70.73 L3.92,71.20 L4.38,71.96 L4.55,72.99 L4.66,75.59 L5.17,78.16 L6.05,80.61 L7.91,83.98 L10.45,86.87 L13.54,89.16 L17.04,90.74 L20.80,91.54 L23.40,91.74 L24.32,91.90 L24.99,92.27 L25.39,92.85 L25.53,93.64 L25.39,94.45 L24.99,95.06 L24.34,95.45 L23.46,95.63 L22.46,95.63 Z" fill="#b3b3b3" stroke="#1e1e1e" stroke-width="1" stroke-linejoin="round" opacity="0.51"/><path d="M22.66,88.18 L19.33,87.73 L16.18,86.55 L13.38,84.70 L11.05,82.27 L9.33,79.39 L8.30,76.19 L8.00,72.84 L8.07,72.10 L8.23,71.38 L8.90,70.43 L10.02,70.10 L11.14,70.38 L11.86,71.29 L12.06,72.26 L12.06,73.26 L12.46,76.06 L13.56,78.66 L15.29,80.89 L17.53,82.61 L20.13,83.70 L22.93,84.08 L23.56,84.08 L24.18,84.11 L25.17,84.50 L25.84,85.33 L26.02,86.38 L25.72,87.32 L24.99,87.98 L24.03,88.17 L22.66,88.18 Z" fill="#b3b3b3" stroke="#1e1e1e" stroke-width="1" stroke-linejoin="round" opacity="0.51"/><path d="M33.04,9.28 L87.17,63.41 L73.82,76.77 L19.69,22.64 L33.04,9.28 Z" fill="#0070c6" stroke="#1e1e1e" stroke-width="1" stroke-linejoin="round"/><path d="M31.33,61.43 L34.73,64.84 L27.62,71.95 L24.22,68.55 L31.33,61.43 Z" fill="#005ba1" stroke="#005ba1" stroke-width="1" stroke-linejoin="round"/><ellipse cx="22.41" cy="73.76" rx="6.05" ry="6.05" fill="#76e8ff" stroke="#76e8ff" stroke-width="1"/><path d="M37.78,40.72 L55.46,58.39 L51.96,61.89 L34.28,44.22 L37.78,40.72 Z" fill="#005ba1" stroke="#1e1e1e" stroke-width="1" stroke-linejoin="round"/><path d="M64.54,22.33 L73.84,31.63 L74.20,32.49 L73.84,33.36 L68.48,38.72 L68.48,38.72 L57.45,27.70 L57.45,27.70 L62.82,22.33 L63.68,21.97 L64.54,22.33 Z" fill="#005ba1" stroke="#005ba1" stroke-width="1" stroke-linejoin="round"/><path d="M56.29,26.52 L69.65,39.88 L70.44,41.26 L70.44,42.85 L69.65,44.23 L55.45,58.43 L55.45,58.43 L37.72,40.71 L37.72,40.71 L51.92,26.50 L53.31,25.71 L54.91,25.71 L56.29,26.52 L56.29,26.52 Z" fill="#50e6ff" stroke="#1e1e1e" stroke-width="1" stroke-linejoin="round"/><path d="M41.20,76.13 L20.02,55.01 L19.10,53.58 L18.83,51.90 L19.25,50.25 L20.29,48.90 L21.78,48.08 L34.58,43.99 L52.31,61.72 L48.11,74.39 L47.28,75.87 L45.93,76.89 L44.30,77.30 L42.63,77.04 L41.20,76.13 L41.20,76.13 Z" fill="#2f8ce2" stroke="#1e1e1e" stroke-width="1" stroke-linejoin="round"/></svg>