<svg xmlns="http://www.w3.org/2000/svg" viewBox="4.77 -1.94 86.58 100.00"><path d="M88.85,64.66 L84.57,68.95 L83.70,69.46 L82.70,69.46 L81.83,68.96 L50.13,37.35 L49.28,36.09 L48.99,34.61 L49.28,33.12 L50.12,31.86 L54.40,27.56 L54.40,27.56 L88.85,61.91 L89.35,62.78 L89.35,63.79 L88.85,64.66 L88.85,64.66 Z" fill="#83b9f9" stroke="#1e1e1e" stroke-width="1" stroke-linejoin="round"/><path d="M83.93,0.56 L88.23,4.85 L88.73,5.72 L88.73,6.72 L88.23,7.59 L54.38,41.53 L54.38,41.53 L50.09,37.25 L49.24,35.99 L48.94,34.51 L49.24,33.02 L50.08,31.76 L81.18,0.57 L82.05,0.07 L83.05,0.06 L83.92,0.56 L83.93,0.56 Z" fill="#2f8ce2" stroke="#1e1e1e" stroke-width="1" stroke-linejoin="round"/><path d="M41.72,54.17 L46.01,58.47 L46.85,59.73 L47.14,61.21 L46.84,62.70 L46.00,63.96 L14.30,95.56 L13.43,96.06 L12.43,96.06 L11.56,95.56 L7.27,91.26 L6.77,90.39 L6.77,89.39 L7.28,88.52 L41.72,54.17 L41.72,54.17 Z" fill="#83b9f9" stroke="#1e1e1e" stroke-width="1" stroke-linejoin="round"/><path d="M46.04,63.85 L41.74,68.14 L41.74,68.14 L7.90,34.20 L7.40,33.33 L7.40,32.33 L7.90,31.46 L12.20,27.18 L13.07,26.67 L14.07,26.68 L14.94,27.18 L46.04,58.37 L46.88,59.63 L47.18,61.12 L46.88,62.60 L46.04,63.86 L46.04,63.85 Z" fill="#2f8ce2" stroke="#1e1e1e" stroke-width="1" stroke-linejoin="round"/></svg>