<svg xmlns="http://www.w3.org/2000/svg" viewBox="4.76 -1.94 86.47 99.87"><path d="M88.73,64.57 L84.45,68.86 L83.59,69.36 L82.59,69.37 L81.72,68.87 L50.06,37.30 L49.22,36.04 L48.92,34.56 L49.22,33.08 L50.05,31.82 L54.33,27.53 L54.33,27.53 L88.73,61.83 L89.24,62.70 L89.24,63.70 L88.73,64.57 L88.73,64.57 Z" fill="#83b9f9" stroke="#1e1e1e" stroke-width="1" stroke-linejoin="round"/><path d="M83.82,0.56 L88.11,4.84 L88.61,5.71 L88.61,6.71 L88.11,7.58 L54.31,41.48 L54.31,41.48 L50.02,37.20 L49.18,35.94 L48.88,34.46 L49.17,32.98 L50.01,31.72 L81.07,0.57 L81.94,0.07 L82.94,0.06 L83.81,0.56 L83.82,0.56 Z" fill="#2f8ce2" stroke="#1e1e1e" stroke-width="1" stroke-linejoin="round"/><path d="M41.67,54.10 L45.95,58.39 L46.78,59.65 L47.08,61.13 L46.78,62.61 L45.94,63.87 L14.28,95.44 L13.41,95.94 L12.41,95.94 L11.55,95.43 L7.26,91.14 L6.76,90.27 L6.77,89.27 L7.27,88.40 L41.67,54.10 L41.67,54.10 Z" fill="#83b9f9" stroke="#1e1e1e" stroke-width="1" stroke-linejoin="round"/><path d="M45.98,63.77 L41.69,68.05 L41.69,68.05 L7.89,34.16 L7.39,33.29 L7.39,32.28 L7.89,31.42 L12.18,27.14 L13.05,26.64 L14.06,26.64 L14.92,27.14 L45.98,58.29 L46.82,59.55 L47.12,61.04 L46.82,62.52 L45.98,63.78 L45.98,63.77 Z" fill="#2f8ce2" stroke="#1e1e1e" stroke-width="1" stroke-linejoin="round"/></svg>