<svg xmlns="http://www.w3.org/2000/svg" viewBox="-2.00 18.37 100.00 59.79"><path d="M8.85,42.93 L8.95,42.22 L9.22,41.55 L9.67,40.97 L10.24,40.53 L10.91,40.25 L11.63,40.16 L34.13,40.16 L34.85,40.25 L35.52,40.53 L36.09,40.97 L36.54,41.55 L36.81,42.22 L36.91,42.93 L36.91,43.68 L36.81,44.40 L36.54,45.07 L36.09,45.64 L35.52,46.08 L34.85,46.36 L34.13,46.45 L11.63,46.45 L10.91,46.36 L10.24,46.08 L9.67,45.64 L9.22,45.07 L8.95,44.40 L8.85,43.68 L8.85,42.93 Z" fill="#b3b3b3" stroke="#b3b3b3" stroke-width="1" stroke-linejoin="round"/><path d="M0.00,55.68 L0.09,54.96 L0.37,54.29 L0.81,53.72 L1.39,53.28 L2.06,53.00 L2.77,52.91 L25.28,52.91 L26.00,53.00 L26.67,53.28 L27.24,53.72 L27.68,54.29 L27.96,54.96 L28.05,55.68 L28.05,56.43 L27.96,57.14 L27.68,57.81 L27.24,58.39 L26.67,58.83 L26.00,59.11 L25.28,59.20 L2.77,59.20 L2.06,59.11 L1.39,58.83 L0.81,58.39 L0.37,57.81 L0.09,57.14 L0.00,56.43 L0.00,55.68 Z" fill="#a3a3a3" stroke="#a3a3a3" stroke-width="1" stroke-linejoin="round"/><path d="M8.85,68.43 L8.95,67.71 L9.22,67.04 L9.67,66.47 L10.24,66.02 L10.91,65.75 L11.63,65.65 L34.13,65.65 L34.85,65.75 L35.52,66.02 L36.09,66.47 L36.54,67.04 L36.81,67.71 L36.91,68.43 L36.91,69.17 L36.81,69.89 L36.54,70.56 L36.09,71.13 L35.52,71.58 L34.85,71.85 L34.13,71.95 L11.63,71.95 L10.91,71.85 L10.24,71.58 L9.67,71.13 L9.22,70.56 L8.95,69.89 L8.85,69.17 L8.85,68.43 Z" fill="#7a7a7a" stroke="#7a7a7a" stroke-width="1" stroke-linejoin="round"/><path d="M96.00,58.67 L95.58,55.18 L94.47,51.85 L92.72,48.81 L90.39,46.18 L87.59,44.07 L84.42,42.55 L81.01,41.71 L80.46,37.46 L79.10,33.39 L76.97,29.67 L74.17,26.43 L70.79,23.79 L66.96,21.86 L62.83,20.71 L58.56,20.37 L54.61,20.70 L50.79,21.72 L47.19,23.39 L43.95,25.66 L41.15,28.46 L38.89,31.71 L37.23,35.31 L33.63,36.11 L30.22,37.55 L27.13,39.56 L24.44,42.09 L22.25,45.05 L20.61,48.36 L19.58,51.90 L19.20,55.57 L19.74,59.67 L21.07,63.58 L23.12,67.17 L25.82,70.29 L29.08,72.83 L32.76,74.70 L36.74,75.82 L40.85,76.16 L42.77,76.16 L77.87,76.16 L78.77,76.16 L82.61,75.63 L86.23,74.29 L89.48,72.19 L92.19,69.43 L94.24,66.15 L95.53,62.51 L96.00,58.67 L96.00,58.67 Z" fill="#3990e4" stroke="#1e1e1e" stroke-width="1" stroke-linejoin="round"/></svg>