<svg xmlns="http://www.w3.org/2000/svg" viewBox="-0.57 8.43 100.00 81.99"><ellipse cx="70.63" cy="69.44" rx="26.80" ry="6.30" fill="#32bedd" stroke="#1e1e1e" stroke-width="1"/><path d="M97.43,81.83 L97.43,69.42 L97.43,69.42 L97.29,70.06 L96.88,70.69 L96.22,71.29 L95.32,71.87 L92.85,72.94 L89.58,73.88 L85.62,74.65 L81.06,75.23 L76.03,75.60 L70.63,75.72 L65.23,75.60 L60.20,75.23 L55.65,74.65 L51.69,73.88 L48.42,72.94 L45.95,71.87 L45.05,71.29 L44.39,70.69 L43.98,70.06 L43.84,69.42 L43.84,82.12 L43.98,82.77 L44.39,83.39 L45.05,84.00 L45.95,84.58 L48.42,85.65 L51.69,86.58 L55.65,87.35 L60.20,87.93 L65.23,88.30 L70.63,88.43 L75.92,88.30 L80.86,87.95 L85.34,87.39 L89.27,86.65 L92.54,85.75 L95.05,84.71 L96.71,83.57 L97.18,82.96 L97.41,82.34 L97.41,82.34 L97.41,82.26 L97.41,82.19 L97.41,82.12 L97.41,82.01 L97.41,81.83 L97.43,81.83 Z" fill="#0078d4" stroke="#1e1e1e" stroke-width="1" stroke-linejoin="round"/><path d="M41.79,46.39 L41.97,45.41 L42.50,44.51 L43.34,43.68 L44.47,42.93 L47.45,41.63 L51.21,40.60 L55.52,39.81 L60.12,39.25 L64.77,38.90 L69.25,38.76 L67.68,35.86 L65.56,33.34 L62.96,31.31 L60.01,29.86 L56.81,29.04 L56.28,25.30 L55.03,21.72 L53.11,18.46 L50.60,15.63 L47.59,13.34 L44.19,11.67 L40.53,10.69 L36.76,10.43 L32.67,10.78 L28.74,11.95 L25.14,13.89 L22.00,16.54 L19.47,19.76 L17.65,23.43 L14.01,24.26 L10.60,25.80 L7.58,27.99 L5.06,30.75 L3.15,33.96 L1.92,37.49 L1.43,41.19 L1.93,44.82 L3.12,48.28 L4.97,51.45 L7.40,54.19 L10.32,56.41 L13.61,58.02 L17.15,58.95 L20.81,59.18 L22.51,59.11 L41.79,59.11 L41.79,46.39 Z" fill="#3990e4" stroke="#1e1e1e" stroke-width="1" stroke-linejoin="round"/><path d="M44.09,46.39 L44.09,59.11 L53.89,59.11 L54.31,59.08 L54.72,58.98 L58.10,58.59 L61.32,57.48 L64.22,55.69 L66.66,53.32 L68.54,50.48 L69.75,47.30 L70.25,43.94 L70.17,42.50 L69.95,41.09 L63.97,41.25 L58.75,41.68 L54.31,42.30 L50.66,43.06 L47.80,43.91 L45.74,44.79 L44.51,45.63 L44.19,46.02 L44.09,46.39 Z" fill="#3990e4" stroke="#1e1e1e" stroke-width="1" stroke-linejoin="round"/><path d="M70.56,53.31 L65.21,53.18 L60.23,52.82 L55.72,52.25 L51.78,51.50 L48.51,50.59 L46.02,49.54 L44.41,48.37 L43.97,47.75 L43.79,47.12 L43.79,47.12 L43.79,59.70 L43.93,60.35 L44.33,60.97 L44.99,61.58 L45.89,62.16 L48.36,63.23 L51.64,64.16 L55.60,64.93 L60.15,65.51 L65.18,65.88 L70.58,66.01 L75.87,65.89 L80.81,65.53 L85.29,64.97 L89.22,64.23 L92.49,63.33 L95.00,62.30 L96.65,61.15 L97.13,60.54 L97.35,59.92 L97.35,59.92 L97.35,59.86 L97.35,59.73 L97.35,59.60 L97.35,59.43 L97.35,59.43 L97.35,47.00 L97.21,47.65 L96.80,48.27 L96.14,48.88 L95.24,49.45 L92.77,50.53 L89.50,51.46 L85.53,52.23 L80.98,52.81 L75.95,53.18 L70.56,53.31 Z" fill="#5ea0ef" stroke="#1e1e1e" stroke-width="1" stroke-linejoin="round"/><ellipse cx="70.56" cy="47.14" rx="26.80" ry="6.30" fill="#9cebff" stroke="#1e1e1e" stroke-width="1"/><path d="M70.59,69.08 L59.99,79.40 L59.20,79.95 L58.53,79.94 L58.07,79.39 L57.90,78.30 L57.90,73.73 L57.50,72.78 L56.55,72.41 L53.48,72.32 L49.62,71.79 L47.51,71.27 L45.34,70.55 L43.16,69.58 L41.00,68.34 L38.91,66.79 L36.94,64.90 L35.14,62.65 L33.53,59.99 L32.18,56.90 L31.13,53.34 L30.41,49.28 L30.09,44.69 L30.46,43.73 L31.41,43.33 L38.12,43.33 L38.82,43.52 L39.31,44.06 L39.44,44.77 L39.08,48.08 L39.41,51.38 L40.42,54.55 L42.07,57.44 L44.28,59.92 L46.96,61.89 L49.99,63.26 L53.24,63.97 L56.56,63.99 L57.50,63.61 L57.90,62.67 L57.90,58.43 L58.02,57.15 L58.40,56.54 L59.05,56.60 L59.99,57.33 L70.59,66.89 L71.11,67.56 L71.11,68.41 L70.59,69.08 Z" fill="#f3f3f3" stroke="#1e1e1e" stroke-width="1" stroke-linejoin="round"/></svg>