<svg xmlns="http://www.w3.org/2000/svg" viewBox="-0.61 8.13 97.23 79.74"><ellipse cx="68.59" cy="67.43" rx="26.02" ry="6.12" fill="#32bedd" stroke="#1e1e1e" stroke-width="1"/><path d="M94.61,79.47 L94.61,67.41 L94.61,67.41 L94.48,68.04 L94.08,68.65 L93.44,69.23 L92.57,69.80 L90.17,70.84 L86.99,71.74 L83.14,72.49 L78.72,73.05 L73.84,73.41 L68.59,73.54 L63.35,73.41 L58.46,73.05 L54.04,72.49 L50.19,71.74 L47.02,70.84 L44.62,69.80 L43.75,69.23 L43.10,68.65 L42.71,68.04 L42.58,67.41 L42.58,79.75 L42.71,80.38 L43.10,80.98 L43.75,81.57 L44.62,82.13 L47.02,83.17 L50.20,84.08 L54.05,84.83 L58.47,85.39 L63.35,85.75 L68.59,85.87 L73.73,85.75 L78.52,85.41 L82.88,84.87 L86.69,84.15 L89.87,83.27 L92.31,82.27 L93.92,81.15 L94.38,80.57 L94.59,79.96 L94.59,79.96 L94.59,79.88 L94.59,79.82 L94.59,79.75 L94.59,79.64 L94.59,79.47 L94.61,79.47 Z" fill="#0078d4" stroke="#1e1e1e" stroke-width="1" stroke-linejoin="round"/><path d="M40.58,45.05 L40.76,44.10 L41.27,43.22 L42.09,42.42 L43.18,41.69 L46.08,40.43 L49.73,39.42 L53.91,38.66 L58.38,38.11 L62.90,37.78 L67.25,37.64 L65.73,34.82 L63.66,32.38 L61.14,30.41 L58.27,29.00 L55.17,28.20 L54.65,24.56 L53.44,21.10 L51.58,17.93 L49.14,15.18 L46.21,12.95 L42.91,11.33 L39.36,10.38 L35.70,10.13 L31.73,10.47 L27.91,11.60 L24.41,13.49 L21.37,16.06 L18.91,19.19 L17.14,22.76 L13.60,23.56 L10.30,25.05 L7.36,27.18 L4.91,29.86 L3.06,32.98 L1.86,36.40 L1.39,40.00 L1.87,43.53 L3.03,46.89 L4.83,49.96 L7.19,52.63 L10.02,54.78 L13.22,56.34 L16.66,57.25 L20.21,57.47 L21.86,57.40 L40.58,57.40 L40.58,45.05 Z" fill="#3990e4" stroke="#1e1e1e" stroke-width="1" stroke-linejoin="round"/><path d="M42.82,45.05 L42.82,57.40 L52.34,57.40 L52.74,57.37 L53.14,57.28 L56.42,56.90 L59.55,55.82 L62.36,54.08 L64.74,51.78 L66.56,49.02 L67.73,45.94 L68.22,42.67 L68.14,41.28 L67.93,39.90 L62.12,40.06 L57.05,40.47 L52.74,41.08 L49.19,41.82 L46.42,42.64 L44.42,43.49 L43.22,44.31 L42.92,44.69 L42.82,45.05 Z" fill="#3990e4" stroke="#1e1e1e" stroke-width="1" stroke-linejoin="round"/><path d="M68.52,51.77 L63.33,51.64 L58.49,51.30 L54.11,50.75 L50.28,50.01 L47.11,49.13 L44.69,48.10 L43.13,46.97 L42.70,46.37 L42.52,45.75 L42.52,45.75 L42.52,57.98 L42.66,58.60 L43.05,59.21 L43.69,59.80 L44.57,60.36 L46.97,61.40 L50.14,62.31 L53.99,63.06 L58.41,63.62 L63.30,63.98 L68.54,64.10 L73.68,63.98 L78.47,63.64 L82.83,63.10 L86.64,62.38 L89.81,61.50 L92.26,60.50 L93.86,59.38 L94.32,58.79 L94.54,58.19 L94.54,58.19 L94.54,58.13 L94.54,58.00 L94.54,57.88 L94.54,57.72 L94.54,57.72 L94.54,45.64 L94.40,46.27 L94.01,46.88 L93.37,47.46 L92.49,48.03 L90.09,49.07 L86.91,49.97 L83.06,50.72 L78.64,51.28 L73.76,51.64 L68.52,51.77 Z" fill="#5ea0ef" stroke="#1e1e1e" stroke-width="1" stroke-linejoin="round"/><ellipse cx="68.52" cy="45.78" rx="26.02" ry="6.12" fill="#9cebff" stroke="#1e1e1e" stroke-width="1"/><path d="M68.55,67.08 L58.26,77.11 L57.49,77.64 L56.84,77.63 L56.39,77.10 L56.22,76.04 L56.22,71.60 L55.84,70.68 L54.92,70.31 L51.93,70.23 L48.19,69.72 L46.14,69.21 L44.03,68.51 L41.91,67.57 L39.81,66.36 L37.79,64.86 L35.88,63.03 L34.12,60.84 L32.57,58.26 L31.25,55.25 L30.23,51.80 L29.54,47.86 L29.22,43.40 L29.58,42.47 L30.50,42.07 L37.02,42.07 L37.70,42.27 L38.17,42.79 L38.30,43.48 L37.95,46.69 L38.27,49.90 L39.26,52.97 L40.86,55.78 L43.00,58.19 L45.60,60.10 L48.55,61.43 L51.70,62.12 L54.93,62.14 L55.84,61.77 L56.22,60.86 L56.22,56.74 L56.34,55.50 L56.71,54.91 L57.35,54.97 L58.26,55.67 L68.55,64.96 L69.05,65.61 L69.05,66.43 L68.55,67.08 Z" fill="#f3f3f3" stroke="#1e1e1e" stroke-width="1" stroke-linejoin="round"/></svg>