<svg xmlns="http://www.w3.org/2000/svg" viewBox="-1.96 -2.00 99.91 100.00"><path d="M74.70,2.51 L74.70,48.26 L74.45,48.26 L74.30,48.26 L71.14,48.29 L70.93,48.29 L70.82,48.28 L70.71,48.29 L66.52,49.07 L62.51,50.55 L58.82,52.68 L55.54,55.42 L52.77,58.67 L52.35,59.26 L52.27,59.36 L52.21,59.47 L52.14,59.58 L52.09,59.69 L52.09,59.69 L52.03,59.81 L51.96,60.02 L48.35,60.02 L48.30,59.02 L47.94,58.09 L47.50,57.43 L46.97,56.84 L38.23,47.33 L37.70,46.78 L37.07,46.36 L36.29,46.08 L35.47,45.98 L33.95,46.33 L32.73,47.30 L23.34,57.00 L22.36,58.36 L22.11,60.03 L2.54,60.03 L1.29,59.69 L0.38,58.77 L0.04,57.52 L0.04,2.46 L0.39,1.23 L1.31,0.33 L2.54,-0.00 L72.19,0.00 L73.44,0.34 L74.36,1.25 L74.70,2.51 L74.70,2.51 Z" fill="#005ba1" stroke="#1e1e1e" stroke-width="1" stroke-linejoin="round"/><path d="M81.70,24.15 L81.70,49.69 L77.62,48.59 L73.41,48.19 L69.19,48.50 L65.09,49.51 L61.22,51.20 L57.68,53.52 L54.59,56.40 L52.02,59.76 L50.05,63.50 L48.74,67.51 L10.79,67.51 L9.57,67.19 L8.67,66.29 L8.34,65.06 L8.34,24.15 L81.70,24.15 Z" fill="#3a91e5" stroke="#1e1e1e" stroke-width="1" stroke-linejoin="round"/><path d="M10.80,8.53 L79.23,8.53 L80.46,8.86 L81.37,9.76 L81.70,10.99 L81.70,24.15 L8.34,24.15 L8.34,10.95 L8.68,9.74 L9.58,8.85 L10.80,8.53 L10.80,8.53 Z" fill="#0078d4" stroke="#1e1e1e" stroke-width="1" stroke-linejoin="round"/><path d="M63.40,35.15 L65.42,35.52 L67.18,36.58 L68.45,38.20 L69.06,40.16 L68.93,42.21 L68.09,44.08 L66.64,45.54 L64.77,46.38 L62.72,46.50 L60.76,45.89 L59.14,44.63 L58.08,42.87 L57.71,40.85 L57.99,39.09 L58.79,37.50 L60.05,36.24 L61.64,35.43 L63.40,35.15 L63.40,35.15 Z" fill="#ffffff" stroke="#ffffff" stroke-width="1" stroke-linejoin="round"/><path d="M39.57,40.85 L39.94,42.87 L41.00,44.63 L42.62,45.89 L44.58,46.50 L46.63,46.38 L48.50,45.54 L49.95,44.08 L50.79,42.21 L50.92,40.16 L50.31,38.20 L49.04,36.58 L47.28,35.52 L45.26,35.15 L43.50,35.43 L41.91,36.24 L40.65,37.50 L39.85,39.09 L39.57,40.85 L39.57,40.85 Z" fill="#ffffff" stroke="#ffffff" stroke-width="1" stroke-linejoin="round"/><path d="M20.94,40.85 L21.31,42.87 L22.37,44.63 L23.99,45.89 L25.95,46.50 L28.00,46.38 L29.87,45.53 L31.32,44.08 L32.17,42.21 L32.29,40.16 L31.68,38.20 L30.41,36.58 L28.65,35.52 L26.63,35.15 L24.87,35.43 L23.28,36.24 L22.02,37.50 L21.22,39.09 L20.94,40.85 L20.94,40.85 Z" fill="#ffffff" stroke="#ffffff" stroke-width="1" stroke-linejoin="round"/><path d="M85.11,84.27 L93.16,84.27 L94.63,81.03 L95.56,77.61 L95.96,74.09 L87.14,74.09 L86.89,77.55 L86.21,80.97 L85.11,84.27 L85.11,84.27 Z" fill="#50e6ff" stroke="#50e6ff" stroke-width="1" stroke-linejoin="round"/><path d="M87.14,72.47 L95.96,72.47 L95.57,68.95 L94.63,65.53 L93.17,62.29 L84.98,62.29 L86.15,65.58 L86.87,68.98 L87.14,72.46 L87.14,72.47 Z" fill="#50e6ff" stroke="#50e6ff" stroke-width="1" stroke-linejoin="round"/><path d="M75.17,96.00 L79.20,95.27 L83.03,93.84 L86.55,91.75 L89.63,89.06 L92.19,85.87 L84.32,85.87 L81.86,89.75 L78.78,93.16 L75.17,96.00 L75.17,96.00 Z" fill="#50e6ff" stroke="#50e6ff" stroke-width="1" stroke-linejoin="round"/><path d="M84.17,60.67 L92.17,60.67 L89.55,57.40 L86.37,54.68 L82.75,52.58 L78.80,51.17 L74.67,50.51 L74.31,50.51 L74.67,50.71 L78.37,53.50 L81.57,56.84 L84.18,60.67 L84.17,60.67 Z" fill="#50e6ff" stroke="#50e6ff" stroke-width="1" stroke-linejoin="round"/><path d="M73.47,60.67 L82.42,60.67 L81.21,58.91 L78.20,55.49 L74.67,52.61 L73.48,51.84 L73.47,60.67 Z" fill="#50e6ff" stroke="#50e6ff" stroke-width="1" stroke-linejoin="round"/><path d="M73.47,72.46 L85.53,72.46 L85.25,68.97 L84.48,65.55 L83.22,62.28 L73.47,62.28 L73.47,72.46 Z" fill="#50e6ff" stroke="#50e6ff" stroke-width="1" stroke-linejoin="round"/><path d="M73.47,84.25 L83.31,84.25 L84.50,80.97 L85.25,77.55 L85.53,74.07 L73.47,74.07 L73.47,84.25 Z" fill="#50e6ff" stroke="#50e6ff" stroke-width="1" stroke-linejoin="round"/><path d="M82.54,85.85 L73.47,85.85 L73.47,95.19 L76.99,92.60 L80.04,89.46 L82.53,85.87 L82.54,85.85 Z" fill="#50e6ff" stroke="#50e6ff" stroke-width="1" stroke-linejoin="round"/><path d="M71.87,85.85 L63.47,85.85 L65.79,89.25 L68.62,92.25 L71.88,94.77 L71.87,85.85 Z" fill="#50e6ff" stroke="#50e6ff" stroke-width="1" stroke-linejoin="round"/><path d="M71.87,51.82 L68.75,54.11 L66.01,56.86 L63.73,59.98 L63.33,60.65 L71.86,60.65 L71.87,51.82 Z" fill="#50e6ff" stroke="#50e6ff" stroke-width="1" stroke-linejoin="round"/><path d="M71.87,74.05 L60.46,74.05 L60.73,77.53 L61.48,80.95 L62.67,84.23 L71.87,84.23 L71.87,74.05 Z" fill="#50e6ff" stroke="#50e6ff" stroke-width="1" stroke-linejoin="round"/><path d="M71.87,62.26 L62.57,62.26 L61.77,64.36 L61.16,66.52 L60.63,69.47 L60.45,72.46 L71.86,72.46 L71.87,62.26 Z" fill="#50e6ff" stroke="#50e6ff" stroke-width="1" stroke-linejoin="round"/><path d="M70.75,96.00 L67.16,93.15 L64.10,89.74 L61.65,85.87 L54.13,85.87 L54.37,86.20 L55.27,87.44 L56.27,88.62 L59.32,91.43 L62.83,93.64 L66.68,95.18 L70.75,96.00 L70.75,96.00 Z" fill="#50e6ff" stroke="#50e6ff" stroke-width="1" stroke-linejoin="round"/><path d="M70.93,50.52 L67.10,51.23 L63.44,52.59 L60.07,54.54 L57.08,57.04 L54.55,60.01 L54.10,60.65 L61.57,60.65 L61.92,60.01 L64.38,56.36 L67.42,53.17 L70.93,50.52 L70.93,50.52 Z" fill="#50e6ff" stroke="#50e6ff" stroke-width="1" stroke-linejoin="round"/><path d="M54.09,60.66 L54.09,60.66 L54.09,60.66 Z" fill="#50e6ff" stroke="#50e6ff" stroke-width="1" stroke-linejoin="round"/><path d="M50.31,72.45 L58.84,72.45 L59.02,69.46 L59.51,66.51 L60.08,64.36 L60.81,62.27 L53.13,62.27 L52.12,64.35 L51.33,66.53 L50.63,69.46 L50.33,72.46 L50.31,72.45 Z" fill="#50e6ff" stroke="#50e6ff" stroke-width="1" stroke-linejoin="round"/><path d="M53.13,84.27 L60.85,84.27 L60.59,83.56 L59.47,79.77 L58.91,75.87 L58.84,74.09 L50.30,74.09 L50.37,75.20 L50.51,76.43 L50.72,77.65 L51.67,81.05 L53.13,84.27 L53.13,84.27 Z" fill="#50e6ff" stroke="#50e6ff" stroke-width="1" stroke-linejoin="round"/><path d="M51.32,85.60 L47.10,84.75 L43.12,83.11 L39.53,80.73 L36.46,77.71 L34.03,74.16 L32.32,70.21 L31.40,66.00 L31.31,61.70 L31.30,61.46 L31.23,61.23 L31.00,60.84 L30.62,60.57 L30.39,60.50 L30.16,60.47 L25.89,60.47 L24.90,60.32 L24.40,59.90 L24.41,59.27 L24.93,58.51 L34.41,48.76 L34.60,48.53 L34.85,48.36 L35.42,48.23 L35.98,48.36 L36.23,48.53 L36.43,48.76 L45.19,58.29 L45.54,58.68 L45.84,59.10 L45.96,59.73 L45.51,60.11 L44.88,60.24 L44.23,60.27 L40.30,60.27 L39.44,60.62 L39.08,61.49 L39.07,64.68 L39.76,67.80 L41.11,70.69 L43.05,73.22 L45.49,75.27 L48.32,76.75 L48.94,79.81 L49.95,82.77 L51.32,85.58 L51.32,85.60 Z" fill="#50e6ff" stroke="#50e6ff" stroke-width="1" stroke-linejoin="round"/></svg>