<svg xmlns="http://www.w3.org/2000/svg" viewBox="-1.31 0.31 98.65 95.33"><path d="M68.69,44.21 L65.33,47.57 L63.31,48.27 L50.88,52.64 L50.40,52.80 L49.87,52.80 L49.81,52.80 L49.81,52.80 L48.84,52.70 L47.92,52.42 L47.09,51.97 L46.35,51.37 L45.74,50.65 L45.28,49.83 L44.97,48.92 L44.85,47.95 L44.85,47.95 L44.85,47.31 L45.01,46.77 L49.39,34.35 L50.13,32.21 L53.44,28.91 L62.13,20.21 L57.63,18.71 L53.17,16.70 L48.73,14.18 L44.32,11.15 L43.51,10.73 L42.64,10.59 L41.77,10.73 L40.96,11.15 L37.39,13.64 L33.81,15.80 L30.21,17.62 L26.59,19.11 L22.95,20.27 L19.28,21.10 L15.60,21.59 L11.89,21.76 L10.81,21.98 L9.93,22.57 L9.34,23.45 L9.12,24.53 L9.12,44.11 L9.25,47.54 L9.64,50.86 L10.28,54.06 L11.18,57.14 L12.33,60.11 L13.74,62.96 L15.41,65.69 L17.32,68.31 L19.49,70.80 L21.90,73.18 L24.57,75.44 L27.48,77.57 L30.64,79.59 L34.05,81.48 L37.70,83.26 L41.60,84.91 L42.61,85.11 L43.63,84.91 L47.53,83.26 L51.19,81.48 L54.61,79.59 L57.77,77.58 L60.68,75.45 L63.35,73.19 L65.76,70.82 L67.93,68.33 L69.84,65.71 L71.50,62.98 L72.90,60.13 L74.05,57.16 L74.95,54.08 L75.59,50.87 L75.98,47.55 L76.11,44.11 L76.11,36.75 L68.69,44.16 L68.69,44.21 Z" fill="#0078d4" stroke="#1e1e1e" stroke-width="1" stroke-linejoin="round"/><path d="M65.33,47.57 L63.31,48.27 L50.88,52.64 L50.40,52.80 L49.87,52.80 L49.81,52.80 L49.81,52.80 L48.84,52.70 L47.92,52.42 L47.09,51.97 L46.35,51.37 L45.74,50.65 L45.28,49.83 L44.97,48.92 L44.85,47.95 L44.85,47.95 L44.85,47.31 L45.01,46.77 L49.39,34.35 L50.13,32.21 L53.44,28.91 L53.60,28.75 L49.13,27.25 L44.69,25.23 L40.27,22.71 L35.89,19.68 L35.08,19.26 L34.21,19.12 L33.34,19.26 L32.53,19.68 L28.97,22.17 L25.38,24.33 L21.78,26.16 L18.16,27.65 L14.52,28.81 L10.86,29.63 L7.17,30.13 L3.47,30.29 L2.38,30.51 L1.50,31.10 L0.91,31.98 L0.69,33.07 L0.69,52.64 L0.82,56.07 L1.21,59.39 L1.85,62.59 L2.75,65.68 L3.91,68.64 L5.32,71.49 L6.98,74.23 L8.89,76.84 L11.06,79.34 L13.47,81.71 L16.14,83.97 L19.05,86.10 L22.21,88.12 L25.62,90.02 L29.28,91.79 L33.17,93.44 L34.19,93.64 L35.20,93.44 L39.11,91.79 L42.77,90.02 L46.18,88.13 L49.34,86.11 L52.26,83.98 L54.92,81.73 L57.34,79.35 L59.50,76.86 L61.41,74.25 L63.07,71.52 L64.48,68.67 L65.63,65.70 L66.52,62.61 L67.17,59.40 L67.55,56.08 L67.68,52.64 L67.68,45.12 L65.28,47.52 L65.33,47.57 Z" fill="#2f8ce2" stroke="#1e1e1e" stroke-width="1" stroke-linejoin="round"/><path d="M83.36,14.24 L77.97,8.85 L52.80,34.03 L53.81,35.68 L56.91,40.69 L56.91,40.69 L52.80,34.03 L47.95,47.84 L47.95,47.84 L48.10,48.57 L48.49,49.15 L49.07,49.52 L49.76,49.65 L63.57,44.80 L56.91,40.69 L56.91,40.69 L61.97,43.73 L63.63,44.75 L88.80,19.57 L83.41,14.13 L83.41,14.13 L83.36,14.24 Z" fill="#f2f2f2" stroke="#1e1e1e" stroke-width="1" stroke-linejoin="round"/><path d="M94.83,11.09 L90.72,6.99 L90.72,6.99 L86.61,2.88 L86.03,2.49 L85.35,2.36 L84.67,2.49 L84.05,2.88 L79.63,7.31 L85.01,12.69 L85.01,12.69 L90.40,18.08 L94.83,13.65 L95.22,13.06 L95.35,12.37 L95.22,11.69 L94.83,11.09 L94.83,11.09 Z" fill="#f2f2f2" stroke="#f2f2f2" stroke-width="1" stroke-linejoin="round"/><path d="M77.97,8.85 L52.85,33.97 L53.81,35.68 L56.96,40.69 L83.41,14.24 L77.97,8.85 Z" fill="#86d633" stroke="#1e1e1e" stroke-width="1" stroke-linejoin="round"/><path d="M85.01,12.64 L90.72,6.93 L86.61,2.83 L86.03,2.44 L85.35,2.31 L84.67,2.44 L84.05,2.83 L79.63,7.25 L85.01,12.64 L85.01,12.64 Z" fill="#86d633" stroke="#86d633" stroke-width="1" stroke-linejoin="round"/><path d="M88.80,19.68 L63.63,44.80 L61.97,43.79 L56.91,40.69 L83.41,14.24 L88.80,19.68 Z" fill="#76bc2d" stroke="#1e1e1e" stroke-width="1" stroke-linejoin="round"/><path d="M84.96,12.64 L90.67,6.93 L94.77,11.04 L95.16,11.63 L95.29,12.32 L95.16,13.00 L94.77,13.60 L90.35,18.03 L84.96,12.64 L84.96,12.64 Z" fill="#76bc2d" stroke="#76bc2d" stroke-width="1" stroke-linejoin="round"/><path d="M18.29,41.87 L35.95,41.87 L37.01,42.08 L37.89,42.67 L38.50,43.55 L38.72,44.64 L38.72,44.64 L38.50,45.70 L37.91,46.59 L37.03,47.19 L35.95,47.41 L18.29,47.41 L17.23,47.20 L16.35,46.61 L15.74,45.73 L15.52,44.64 L15.52,44.64 L15.74,43.58 L16.33,42.69 L17.21,42.09 L18.29,41.87 Z" fill="#f2f2f2" stroke="#f2f2f2" stroke-width="1" stroke-linejoin="round"/><path d="M18.29,52.48 L41.39,52.48 L42.45,52.70 L43.33,53.29 L43.94,54.17 L44.16,55.25 L44.16,55.25 L43.94,56.32 L43.35,57.20 L42.47,57.80 L41.39,58.03 L18.29,58.03 L17.23,57.81 L16.35,57.22 L15.74,56.34 L15.52,55.25 L15.52,55.25 L15.74,54.19 L16.33,53.31 L17.21,52.70 L18.29,52.48 Z" fill="#f2f2f2" stroke="#f2f2f2" stroke-width="1" stroke-linejoin="round"/><path d="M18.29,63.04 L50.08,63.04 L51.14,63.26 L52.03,63.85 L52.63,64.73 L52.85,65.81 L52.85,65.81 L52.64,66.88 L52.05,67.76 L51.17,68.36 L50.08,68.59 L18.29,68.59 L17.23,68.37 L16.35,67.78 L15.74,66.90 L15.52,65.81 L15.52,65.81 L15.74,64.75 L16.33,63.87 L17.21,63.26 L18.29,63.04 Z" fill="#f2f2f2" stroke="#f2f2f2" stroke-width="1" stroke-linejoin="round"/></svg>