<svg xmlns="http://www.w3.org/2000/svg" viewBox="6.75 -2.00 82.51 99.99"><path d="M87.25,44.80 L87.16,47.20 L86.90,49.58 L85.90,54.22 L84.33,58.71 L82.27,63.04 L79.81,67.18 L77.02,71.11 L74.00,74.83 L70.81,78.31 L67.54,81.54 L64.27,84.50 L58.07,89.54 L52.86,93.29 L49.28,95.63 L48.00,95.99 L46.72,95.63 L43.14,93.29 L37.93,89.54 L31.73,84.50 L28.46,81.54 L25.19,78.31 L22.00,74.83 L18.98,71.11 L16.19,67.18 L13.73,63.04 L11.67,58.71 L10.10,54.22 L9.10,49.58 L8.84,47.20 L8.75,44.80 L8.75,13.76 L9.07,12.55 L9.94,11.65 L11.15,11.31 L15.36,11.07 L18.95,10.64 L22.00,10.03 L24.58,9.27 L26.78,8.40 L28.68,7.45 L31.85,5.41 L34.75,3.41 L36.28,2.49 L37.98,1.68 L39.93,0.99 L42.19,0.46 L44.86,0.12 L48.00,0.00 L51.14,0.12 L53.81,0.46 L56.07,0.99 L58.02,1.68 L59.72,2.49 L61.25,3.41 L64.15,5.41 L67.32,7.45 L69.22,8.40 L71.41,9.27 L74.00,10.03 L77.05,10.64 L80.64,11.07 L84.85,11.31 L86.06,11.65 L86.93,12.55 L87.25,13.76 L87.25,44.80 Z" fill="#0078d4" stroke="#1e1e1e" stroke-width="1" stroke-linejoin="round"/><path d="M84.00,45.07 L83.92,47.27 L83.68,49.45 L82.76,53.71 L81.32,57.82 L79.44,61.78 L77.18,65.58 L74.63,69.18 L71.85,72.59 L68.93,75.77 L65.93,78.73 L62.93,81.44 L57.25,86.06 L52.46,89.52 L49.17,91.68 L48.00,92.00 L46.83,91.68 L43.54,89.55 L38.75,86.11 L33.07,81.49 L30.07,78.77 L27.07,75.81 L24.15,72.62 L21.37,69.21 L18.82,65.60 L16.56,61.80 L14.68,57.83 L13.24,53.71 L12.32,49.45 L12.08,47.27 L12.00,45.07 L12.00,16.59 L12.29,15.48 L13.09,14.66 L14.19,14.35 L18.05,14.13 L21.34,13.73 L24.14,13.17 L26.50,12.48 L28.52,11.69 L30.26,10.82 L33.17,8.95 L35.83,7.12 L37.24,6.28 L38.80,5.53 L40.59,4.90 L42.67,4.42 L45.11,4.11 L48.00,4.00 L50.89,4.11 L53.33,4.42 L55.41,4.90 L57.20,5.53 L58.76,6.28 L60.17,7.12 L62.83,8.95 L65.74,10.82 L67.48,11.69 L69.49,12.48 L71.86,13.17 L74.66,13.73 L77.95,14.13 L81.81,14.35 L82.91,14.66 L83.71,15.48 L84.00,16.59 L84.00,45.07 Z" fill="#3990e4" stroke="#1e1e1e" stroke-width="1" stroke-linejoin="round"/><path d="M62.93,66.77 L62.59,68.05 L61.65,68.99 L60.37,69.33 L35.63,69.33 L34.35,68.99 L33.41,68.05 L33.07,66.77 L33.07,21.01 L33.39,19.71 L34.33,18.75 L35.63,18.40 L60.37,18.40 L61.67,18.75 L62.61,19.71 L62.93,21.01 L62.93,66.77 Z" fill="#e6e6e6" stroke="#1e1e1e" stroke-width="1" stroke-linejoin="round"/><path d="M37.33,26.67 L37.58,25.44 L38.27,24.40 L39.31,23.71 L40.53,23.47 L55.47,23.47 L56.69,23.71 L57.73,24.40 L58.42,25.44 L58.67,26.67 L58.67,26.67 L58.44,27.91 L57.75,28.96 L56.70,29.67 L55.47,29.92 L40.53,29.92 L39.30,29.67 L38.25,28.96 L37.56,27.91 L37.33,26.67 Z" fill="#003067" stroke="#003067" stroke-width="1" stroke-linejoin="round"/><ellipse cx="40.69" cy="26.61" rx="2.19" ry="2.19" fill="#50e6ff" stroke="#50e6ff" stroke-width="1"/><path d="M37.33,36.80 L37.58,35.57 L38.27,34.52 L39.30,33.81 L40.53,33.55 L55.47,33.55 L56.70,33.81 L57.73,34.52 L58.42,35.57 L58.67,36.80 L58.67,36.80 L58.44,38.04 L57.75,39.10 L56.70,39.80 L55.47,40.05 L40.53,40.05 L39.30,39.80 L38.25,39.10 L37.56,38.04 L37.33,36.80 Z" fill="#003067" stroke="#003067" stroke-width="1" stroke-linejoin="round"/><ellipse cx="40.69" cy="36.80" rx="2.19" ry="2.19" fill="#50e6ff" stroke="#50e6ff" stroke-width="1"/></svg>