<svg xmlns="http://www.w3.org/2000/svg" viewBox="0.86 1.04 99.93 100.00"><path d="M80.42,88.96 L74.96,92.62 L69.06,95.51 L62.83,97.56 L56.37,98.75 L49.80,99.04 L43.26,98.44 L36.87,96.95 L30.73,94.61 L24.97,91.45 L19.70,87.54 L15.00,82.94 L10.98,77.75 L7.70,72.06 L5.23,65.98 L3.60,59.62 L2.86,53.09 L3.01,46.52 L4.06,40.04 L5.98,33.76 L8.74,27.80 L12.28,22.27 L16.54,17.27 L21.45,12.90 L21.96,12.56 L27.43,9.03 L33.33,6.27 L39.55,4.33 L45.98,3.24 L52.49,3.04 L58.97,3.72 L65.30,5.27 L71.36,7.66 L77.04,10.84 L82.24,14.77 L86.87,19.36 L90.83,24.53 L94.05,30.20 L96.48,36.24 L98.07,42.56 L98.79,49.04 L98.63,55.55 L97.59,61.98 L95.69,68.22 L92.97,74.13 L89.47,79.63 L85.26,84.60 L80.42,88.96 L80.42,88.96 Z" fill="#3990e4" stroke="#1e1e1e" stroke-width="1" stroke-linejoin="round"/><path d="M50.93,7.41 L44.74,7.86 L38.67,9.18 L32.85,11.35 L27.40,14.32 L22.43,18.04 L18.04,22.43 L14.32,27.40 L11.35,32.85 L9.18,38.67 L7.86,44.74 L7.41,50.93 L7.86,57.13 L9.18,63.19 L11.35,69.01 L14.32,74.46 L18.04,79.43 L22.43,83.82 L27.40,87.54 L32.85,90.52 L38.67,92.69 L44.74,94.01 L50.93,94.45 L57.13,94.01 L63.19,92.69 L69.01,90.52 L74.46,87.54 L79.43,83.82 L83.82,79.43 L87.54,74.46 L90.52,69.01 L92.69,63.19 L94.01,57.13 L94.45,50.93 L94.00,44.74 L92.68,38.68 L90.50,32.86 L87.53,27.42 L83.81,22.45 L79.42,18.06 L74.45,14.34 L69.00,11.36 L63.19,9.19 L57.12,7.86 L50.93,7.41 L50.93,7.41 Z" fill="#5ea0ef" stroke="#5ea0ef" stroke-width="1" stroke-linejoin="round"/><path d="M80.08,22.07 L76.19,24.00 L72.12,25.52 L67.91,26.60 L66.13,21.25 L63.77,16.13 L60.84,11.32 L66.16,12.99 L71.20,15.37 L75.87,18.42 L80.08,22.07 L80.08,22.07 Z" fill="#3990e4" stroke="#3990e4" stroke-width="1" stroke-linejoin="round"/><path d="M50.93,9.85 L54.03,9.97 L57.10,10.36 L57.10,10.36 L59.98,14.20 L62.40,18.35 L64.33,22.75 L65.76,27.33 L58.08,28.38 L50.34,28.74 L42.60,28.38 L34.92,27.33 L36.33,22.84 L38.25,18.53 L40.63,14.47 L43.46,10.70 L43.46,10.70 L47.18,10.10 L50.93,9.85 L50.93,9.85 Z" fill="#3990e4" stroke="#3990e4" stroke-width="1" stroke-linejoin="round"/><path d="M39.61,11.32 L36.65,16.09 L34.24,21.17 L32.43,26.49 L28.67,25.48 L25.07,24.02 L21.67,22.13 L25.61,18.59 L29.95,15.58 L34.65,13.14 L39.61,11.32 L39.61,11.32 Z" fill="#3990e4" stroke="#3990e4" stroke-width="1" stroke-linejoin="round"/><path d="M21.05,79.23 L24.22,77.38 L27.60,75.94 L31.13,74.93 L32.92,80.41 L35.49,85.58 L38.77,90.32 L33.84,88.43 L29.19,85.92 L24.91,82.84 L21.05,79.23 Z" fill="#3990e4" stroke="#3990e4" stroke-width="1" stroke-linejoin="round"/><path d="M57.33,91.68 L54.14,91.98 L50.93,92.02 L46.84,91.81 L42.78,91.17 L42.78,91.17 L39.52,87.49 L36.82,83.37 L34.74,78.91 L33.33,74.19 L41.61,72.94 L49.97,72.52 L58.33,72.94 L66.61,74.19 L65.17,78.92 L63.07,83.38 L60.34,87.50 L57.04,91.17 L57.33,91.68 Z" fill="#3990e4" stroke="#3990e4" stroke-width="1" stroke-linejoin="round"/><path d="M61.46,90.77 L64.83,85.90 L67.45,80.58 L69.27,74.93 L73.20,76.08 L76.99,77.65 L80.59,79.63 L76.42,83.33 L71.78,86.42 L66.76,88.84 L61.46,90.55 L61.46,90.77 Z" fill="#3990e4" stroke="#3990e4" stroke-width="1" stroke-linejoin="round"/><path d="M69.83,72.55 L70.97,66.21 L68.36,66.84 L67.40,71.99 L58.83,70.68 L50.17,70.25 L41.51,70.68 L32.94,71.99 L31.97,67.12 L31.95,66.86 L31.97,66.61 L29.37,65.87 L29.35,66.67 L29.37,67.46 L29.47,68.80 L29.73,70.10 L30.33,72.61 L26.37,73.74 L22.58,75.35 L19.01,77.42 L15.63,72.72 L12.95,67.60 L11.01,62.15 L9.86,56.48 L9.52,50.71 L9.99,44.94 L11.28,39.30 L13.34,33.89 L16.15,28.84 L19.64,24.22 L23.36,26.31 L27.30,27.94 L31.41,29.09 L30.39,33.39 L30.23,34.73 L29.94,35.48 L32.60,34.86 L32.60,33.90 L33.67,29.65 L42.27,30.78 L50.93,31.01 L58.83,30.64 L66.67,29.54 L67.80,34.35 L70.40,34.97 L69.04,29.31 L73.56,28.07 L77.91,26.34 L82.06,24.16 L85.61,28.82 L88.46,33.93 L90.55,39.40 L91.84,45.12 L92.29,50.95 L91.91,56.80 L90.70,62.52 L88.68,68.02 L85.89,73.17 L82.40,77.87 L78.42,75.58 L74.22,73.74 L69.83,72.38 L69.83,72.55 Z" fill="#3990e4" stroke="#3990e4" stroke-width="1" stroke-linejoin="round"/><path d="M20.88,39.61 L24.16,39.27 L27.45,39.16 L30.89,39.32 L34.18,40.32 L37.12,42.10 L38.98,44.52 L40.12,47.34 L40.46,50.37 L40.33,52.90 L39.70,55.36 L38.57,57.64 L37.01,59.65 L34.68,61.26 L32.09,62.40 L29.32,63.02 L26.49,63.10 L23.65,63.04 L20.83,62.82 L20.88,39.61 Z" fill="#ffffff" stroke="#ffffff" stroke-width="1" stroke-linejoin="round"/><path d="M24.00,60.72 L25.55,60.78 L27.11,60.72 L29.86,60.62 L32.45,59.70 L34.66,58.06 L36.28,55.84 L37.16,53.23 L37.24,50.48 L37.09,47.94 L36.19,45.56 L34.62,43.55 L32.53,42.10 L30.11,41.33 L27.56,41.31 L25.78,41.22 L24.00,41.31 L24.00,60.72 Z" fill="#3990e4" stroke="#3990e4" stroke-width="1" stroke-linejoin="round"/><path d="M44.48,62.87 L44.48,39.05 L47.82,39.05 L55.46,50.93 L57.74,54.74 L59.76,58.69 L59.76,58.69 L59.49,54.00 L59.42,48.90 L59.42,39.05 L62.25,39.05 L62.25,62.87 L59.14,62.87 L51.67,50.93 L49.28,46.82 L47.20,43.01 L47.20,43.01 L47.20,52.86 L47.20,63.04 L44.48,62.87 Z" fill="#ffffff" stroke="#1e1e1e" stroke-width="1" stroke-linejoin="round"/><path d="M67.29,59.14 L70.02,60.28 L72.95,60.67 L75.06,60.37 L75.92,60.02 L76.63,59.54 L77.19,58.95 L77.59,58.26 L77.84,57.47 L77.93,56.59 L77.68,55.00 L76.90,53.78 L75.52,52.79 L73.46,51.90 L71.11,50.81 L69.08,49.33 L68.27,48.43 L67.66,47.43 L67.26,46.32 L67.12,45.10 L67.61,42.91 L68.79,40.99 L70.52,39.55 L72.62,38.74 L74.87,38.65 L77.57,38.90 L80.13,39.78 L79.23,42.33 L77.04,41.47 L74.70,41.20 L73.56,41.28 L72.61,41.53 L71.83,41.89 L71.21,42.37 L70.42,43.51 L70.17,44.76 L70.46,46.00 L71.32,47.20 L72.80,48.34 L74.93,49.35 L77.27,50.48 L79.21,52.01 L79.97,52.93 L80.55,53.96 L80.91,55.11 L81.04,56.37 L80.91,57.67 L80.53,58.92 L79.88,60.07 L78.97,61.11 L77.80,61.97 L76.36,62.64 L74.65,63.06 L72.66,63.21 L69.54,62.84 L66.61,61.69 L67.29,59.14 Z" fill="#ffffff" stroke="#1e1e1e" stroke-width="1" stroke-linejoin="round"/></svg>