<svg xmlns="http://www.w3.org/2000/svg" viewBox="-1.98 3.80 100.00 88.46"><path d="M87.72,47.84 L87.32,53.45 L86.12,58.95 L84.16,64.21 L81.46,69.15 L78.09,73.65 L74.11,77.63 L69.61,81.00 L64.67,83.70 L59.40,85.66 L53.91,86.86 L48.30,87.26 L45.73,87.18 L43.18,86.94 L37.94,85.91 L32.89,84.15 L28.13,81.71 L27.71,78.57 L27.23,74.83 L26.91,72.54 L26.47,71.34 L25.68,70.35 L24.22,69.71 L22.63,69.81 L21.25,70.62 L20.13,71.74 L18.37,73.50 L15.18,69.25 L12.59,64.62 L10.66,59.67 L9.41,54.51 L8.88,49.23 L8.83,48.53 L8.82,47.84 L9.23,42.22 L10.42,36.72 L12.39,31.44 L15.09,26.50 L18.47,21.99 L22.45,18.01 L26.96,14.63 L31.90,11.93 L37.18,9.96 L42.68,8.77 L48.30,8.36 L53.53,8.71 L58.67,9.75 L63.61,11.49 L68.28,13.87 L68.71,17.07 L69.24,20.75 L69.62,23.47 L69.92,24.50 L70.52,25.39 L71.60,26.10 L72.87,26.35 L74.14,26.11 L75.22,25.39 L78.26,22.35 L81.58,26.80 L84.23,31.67 L86.17,36.88 L87.34,42.30 L87.72,47.84 Z" fill="#006aba" stroke="#1e1e1e" stroke-width="1" stroke-linejoin="round"/><path d="M77.43,25.07 L77.02,24.55 L76.57,24.06 L75.24,25.39 L74.16,26.11 L72.89,26.35 L71.63,26.10 L70.54,25.39 L67.51,26.36 L64.41,27.10 L63.82,27.21 L63.61,26.62 L61.82,21.47 L59.39,16.59 L58.49,15.04 L60.19,15.68 L64.93,17.86 L69.26,20.75 L68.73,17.07 L64.52,14.65 L60.04,12.79 L55.35,11.53 L50.54,10.88 L48.30,10.83 L46.06,10.88 L43.65,11.12 L41.26,11.52 L36.54,12.77 L32.03,14.62 L27.80,17.04 L23.92,19.99 L20.45,23.42 L19.12,25.07 L16.35,29.12 L14.15,33.51 L12.55,38.14 L11.59,42.95 L11.28,47.85 L11.29,49.03 L11.38,50.20 L12.12,55.69 L13.68,61.01 L16.03,66.03 L19.12,70.63 L20.13,71.75 L21.25,70.63 L22.63,69.82 L24.22,69.72 L25.68,70.36 L28.91,69.38 L32.19,68.60 L32.78,68.44 L32.94,69.03 L34.73,74.18 L37.15,79.06 L38.11,80.66 L36.35,80.02 L31.59,77.79 L27.23,74.84 L27.71,78.58 L31.97,81.03 L36.51,82.91 L41.26,84.18 L42.43,84.39 L46.06,84.77 L48.30,84.87 L50.54,84.77 L52.95,84.55 L55.34,84.18 L60.04,82.93 L64.55,81.08 L68.77,78.66 L72.64,75.71 L76.09,72.28 L77.48,70.63 L80.23,66.58 L82.42,62.19 L84.01,57.55 L84.96,52.74 L85.27,47.85 L84.97,42.95 L84.01,38.14 L82.41,33.50 L80.20,29.12 L77.43,25.07 L77.43,25.07 Z" fill="#5ea0ef" stroke="#5ea0ef" stroke-width="1" stroke-linejoin="round"/><path d="M42.32,14.19 L42.48,14.03 L42.68,13.97 L45.44,13.65 L48.22,13.54 L51.06,13.65 L53.88,13.97 L54.09,14.02 L54.20,14.18 L57.08,18.09 L59.33,22.39 L60.92,26.98 L61.13,27.68 L60.39,27.78 L54.35,28.47 L48.28,28.69 L42.18,28.46 L36.11,27.78 L35.42,27.68 L35.63,26.98 L37.20,22.39 L39.45,18.09 L42.32,14.18 L42.32,14.19 Z" fill="#006aba" stroke="#006aba" stroke-width="1" stroke-linejoin="round"/><path d="M31.28,61.77 L31.39,61.77 L31.39,62.36 L31.98,65.24 L32.08,65.88 L31.44,65.99 L26.61,67.26 L21.89,68.92 L21.41,69.14 L21.09,68.76 L18.52,64.90 L16.49,60.72 L15.05,56.31 L14.21,51.75 L14.04,49.80 L14.00,47.85 L14.30,43.37 L15.17,38.96 L16.62,34.71 L18.60,30.68 L21.09,26.94 L21.41,26.51 L21.89,26.73 L26.60,28.40 L31.44,29.66 L32.08,29.82 L31.98,30.46 L30.92,36.21 L30.30,42.01 L30.11,47.85 L30.39,54.83 L31.28,61.76 L31.28,61.77 Z" fill="#006aba" stroke="#006aba" stroke-width="1" stroke-linejoin="round"/><path d="M32.19,27.10 L28.14,26.10 L24.19,24.75 L23.23,24.43 L23.92,23.69 L27.66,20.43 L31.84,17.74 L36.35,15.68 L38.11,15.04 L37.15,16.59 L34.74,21.48 L32.94,26.62 L32.78,27.21 L32.19,27.10 Z" fill="#006aba" stroke="#006aba" stroke-width="1" stroke-linejoin="round"/><path d="M34.75,65.40 L34.59,64.76 L33.59,59.17 L33.00,53.53 L32.83,47.85 L33.00,42.16 L33.59,36.49 L34.59,30.89 L34.75,30.30 L35.34,30.41 L41.80,31.16 L48.30,31.42 L54.80,31.16 L61.26,30.41 L61.85,30.30 L61.96,30.89 L62.99,36.49 L63.60,42.16 L63.77,47.85 L63.60,53.53 L62.99,59.18 L61.96,64.76 L61.85,65.40 L61.26,65.29 L54.80,64.52 L48.30,64.28 L41.80,64.52 L35.34,65.29 L34.75,65.40 Z" fill="#006aba" stroke="#006aba" stroke-width="1" stroke-linejoin="round"/><path d="M54.22,81.51 L54.11,81.67 L53.88,81.67 L51.09,82.03 L48.28,82.15 L45.47,82.03 L42.68,81.66 L42.46,81.61 L42.30,81.45 L40.98,79.92 L39.85,78.25 L37.87,74.65 L36.33,70.83 L35.95,69.78 L35.63,68.70 L35.42,67.95 L36.11,67.84 L42.18,67.19 L48.28,66.99 L54.35,67.19 L60.39,67.84 L61.13,67.95 L60.92,68.70 L59.35,73.29 L57.10,77.59 L54.22,81.50 L54.22,81.51 Z" fill="#006aba" stroke="#006aba" stroke-width="1" stroke-linejoin="round"/><path d="M72.62,71.96 L68.89,75.24 L64.71,77.95 L60.19,80.02 L58.49,80.66 L59.39,79.06 L61.84,74.18 L63.61,69.03 L63.82,68.44 L64.41,68.60 L68.45,69.60 L72.41,70.90 L73.32,71.27 L72.62,71.96 Z" fill="#006aba" stroke="#006aba" stroke-width="1" stroke-linejoin="round"/><path d="M75.45,68.76 L75.18,69.14 L74.70,68.92 L69.97,67.25 L65.10,65.99 L64.46,65.88 L64.62,65.24 L65.67,59.50 L66.29,53.69 L66.49,47.85 L66.29,42.01 L65.67,36.21 L64.62,30.46 L64.46,29.82 L65.10,29.66 L69.97,28.40 L74.70,26.73 L75.13,26.51 L75.45,26.94 L78.22,31.10 L80.34,35.62 L81.78,40.41 L82.51,45.35 L82.51,50.35 L81.78,55.29 L80.34,60.08 L78.22,64.60 L75.45,68.76 L75.45,68.76 Z" fill="#006aba" stroke="#006aba" stroke-width="1" stroke-linejoin="round"/><path d="M52.50,59.06 L48.28,59.06 L44.06,59.06 L43.26,58.81 L42.76,58.14 L42.76,57.29 L45.75,47.32 L44.09,46.02 L43.02,44.20 L42.71,42.11 L43.21,40.05 L44.43,38.33 L46.21,37.18 L48.28,36.78 L50.36,37.18 L52.14,38.33 L53.36,40.05 L53.85,42.11 L53.54,44.20 L52.48,46.02 L50.81,47.32 L53.81,57.29 L53.80,58.14 L53.30,58.81 L52.50,59.06 Z" fill="#003067" stroke="#003067" stroke-width="1" stroke-linejoin="round"/><path d="M96.02,47.79 L95.62,54.05 L94.40,60.21 L92.38,66.16 L89.59,71.79 L86.09,77.00 L81.94,81.71 L80.96,82.38 L79.80,82.62 L78.65,82.38 L77.67,81.71 L76.89,80.36 L76.89,78.80 L77.67,77.45 L81.29,73.32 L84.34,68.76 L86.76,63.84 L88.52,58.64 L89.59,53.26 L89.94,47.79 L89.62,42.50 L88.63,37.30 L86.99,32.26 L84.71,27.48 L81.84,23.03 L78.42,18.98 L73.62,23.78 L72.93,24.05 L72.24,23.82 L71.86,23.19 L69.62,6.98 L69.71,6.35 L70.16,5.90 L70.79,5.80 L87.01,7.99 L87.67,8.37 L87.91,9.10 L87.59,9.80 L82.74,14.66 L86.68,19.31 L89.99,24.43 L92.61,29.93 L94.51,35.72 L95.65,41.70 L96.02,47.79 Z" fill="#50e6ff" stroke="#1e1e1e" stroke-width="1" stroke-linejoin="round"/><path d="M24.59,72.86 L24.23,72.21 L23.53,71.95 L22.83,72.22 L17.98,77.07 L14.14,72.54 L10.98,67.52 L8.56,62.10 L6.94,56.39 L6.13,50.50 L6.17,44.57 L7.04,38.70 L8.73,33.01 L11.21,27.61 L14.43,22.62 L18.32,18.14 L19.00,17.15 L19.24,15.98 L19.00,14.80 L18.32,13.82 L16.97,13.04 L15.40,13.04 L14.05,13.82 L9.94,18.51 L6.48,23.70 L3.71,29.30 L1.69,35.20 L0.46,41.32 L0.02,47.55 L0.40,53.77 L1.58,59.90 L3.54,65.83 L6.25,71.45 L9.67,76.67 L13.73,81.41 L8.88,86.26 L8.56,86.95 L8.80,87.66 L9.46,88.02 L25.68,90.26 L26.31,90.14 L26.76,89.67 L26.85,89.03 L24.59,72.86 Z" fill="#50e6ff" stroke="#1e1e1e" stroke-width="1" stroke-linejoin="round"/></svg>