<svg xmlns="http://www.w3.org/2000/svg" viewBox="-2.00 -2.00 100.00 100.00"><path d="M50.16,0.00 L94.42,0.00 L95.03,0.12 L95.54,0.46 L95.88,0.97 L96.00,1.58 L96.00,11.38 L95.88,11.99 L95.54,12.50 L95.03,12.84 L94.42,12.96 L50.16,12.96 L49.54,12.84 L49.04,12.50 L48.70,11.99 L48.58,11.38 L48.58,1.59 L48.70,0.97 L49.04,0.46 L49.54,0.12 L50.16,0.00 Z" fill="#9cebff" stroke="#1e1e1e" stroke-width="1" stroke-linejoin="round"/><path d="M50.16,15.37 L94.42,15.37 L95.03,15.50 L95.54,15.83 L95.88,16.34 L96.00,16.95 L96.00,26.75 L95.88,27.36 L95.54,27.87 L95.03,28.21 L94.41,28.34 L50.15,28.34 L49.54,28.21 L49.03,27.87 L48.70,27.37 L48.57,26.75 L48.57,16.96 L48.70,16.34 L49.03,15.84 L49.54,15.50 L50.15,15.38 L50.16,15.37 Z" fill="#41d2ee" stroke="#1e1e1e" stroke-width="1" stroke-linejoin="round"/><rect x="48.57" y="30.74" width="47.43" height="12.97" fill="#198ab3" stroke="#1e1e1e" stroke-width="1"/><rect x="88.62" y="2.27" width="3.55" height="3.55" fill="#ffffff" stroke="#ffffff" stroke-width="1"/><rect x="88.62" y="7.16" width="3.55" height="3.55" fill="#e2f2f2" stroke="#e2f2f2" stroke-width="1"/><rect x="88.62" y="17.64" width="3.55" height="3.55" fill="#ffffff" stroke="#ffffff" stroke-width="1"/><rect x="88.62" y="22.52" width="3.55" height="3.55" fill="#bdedef" stroke="#bdedef" stroke-width="1"/><rect x="88.62" y="33.00" width="3.55" height="3.55" fill="#ffffff" stroke="#ffffff" stroke-width="1"/><rect x="88.62" y="37.89" width="3.55" height="3.55" fill="#bdedef" stroke="#bdedef" stroke-width="1"/><rect x="0.00" y="52.30" width="47.42" height="12.97" fill="#83b9f9" stroke="#1e1e1e" stroke-width="1"/><rect x="0.00" y="67.67" width="47.42" height="12.97" fill="#2e8ce1" stroke="#1e1e1e" stroke-width="1"/><rect x="0.00" y="83.03" width="47.42" height="12.97" fill="#005ba1" stroke="#1e1e1e" stroke-width="1"/><rect x="40.62" y="74.82" width="3.54" height="3.54" fill="#68abdd" stroke="#68abdd" stroke-width="1"/><rect x="40.62" y="85.30" width="3.54" height="3.54" fill="#ffffff" stroke="#ffffff" stroke-width="1"/><rect x="40.62" y="90.19" width="3.54" height="3.54" fill="#97bddd" stroke="#97bddd" stroke-width="1"/><path d="M64.29,69.17 L62.07,70.72 L59.74,72.01 L57.34,73.05 L54.87,73.84 L52.35,74.38 L49.81,74.67 L47.27,74.71 L44.73,74.51 L42.23,74.07 L39.77,73.40 L37.39,72.48 L35.08,71.34 L32.89,69.96 L30.82,68.35 L28.89,66.52 L27.12,64.46 L25.57,62.24 L24.27,59.91 L23.23,57.51 L22.45,55.04 L21.91,52.53 L21.62,49.99 L21.58,47.44 L21.77,44.91 L22.21,42.40 L22.89,39.95 L23.80,37.56 L24.95,35.26 L26.33,33.07 L27.93,31.00 L29.77,29.07 L31.82,27.30 L32.11,27.11 L34.36,25.60 L36.71,24.35 L39.13,23.36 L41.61,22.62 L44.14,22.13 L46.68,21.88 L49.23,21.88 L51.76,22.13 L54.25,22.61 L56.69,23.34 L59.06,24.29 L61.34,25.48 L63.51,26.90 L65.55,28.54 L67.44,30.41 L69.17,32.50 L70.66,34.71 L71.90,37.02 L72.89,39.40 L73.63,41.84 L74.13,44.32 L74.39,46.82 L74.42,49.33 L74.20,51.83 L73.76,54.29 L73.08,56.71 L72.17,59.05 L71.04,61.32 L69.68,63.48 L68.11,65.52 L66.31,67.43 L64.29,69.17 L64.29,69.17 Z" fill="#0078d4" stroke="#1e1e1e" stroke-width="1" stroke-linejoin="round"/><path d="M48.06,24.28 L45.61,24.40 L43.23,24.76 L40.93,25.35 L38.73,26.16 L36.64,27.17 L34.66,28.37 L32.82,29.75 L31.12,31.29 L29.57,33.00 L28.19,34.84 L26.99,36.81 L25.98,38.91 L25.17,41.11 L24.58,43.41 L24.22,45.79 L24.10,48.23 L24.22,50.68 L24.58,53.06 L25.17,55.36 L25.98,57.56 L26.99,59.65 L28.19,61.63 L29.57,63.47 L31.12,65.18 L32.82,66.72 L34.66,68.10 L36.64,69.30 L38.73,70.31 L40.93,71.11 L43.23,71.71 L45.61,72.07 L48.06,72.19 L50.51,72.07 L52.89,71.71 L55.18,71.11 L57.39,70.31 L59.48,69.30 L61.46,68.10 L63.30,66.72 L65.00,65.18 L66.55,63.47 L67.93,61.63 L69.13,59.65 L70.14,57.56 L70.94,55.36 L71.53,53.06 L71.90,50.68 L72.02,48.23 L71.89,45.79 L71.53,43.41 L70.94,41.12 L70.13,38.92 L69.12,36.82 L67.92,34.85 L66.54,33.00 L64.99,31.30 L63.29,29.76 L61.45,28.38 L59.47,27.18 L57.38,26.17 L55.18,25.36 L52.89,24.77 L50.51,24.40 L48.06,24.28 L48.06,24.28 Z" fill="#5ea0ef" stroke="#5ea0ef" stroke-width="1" stroke-linejoin="round"/><path d="M64.11,32.35 L60.85,33.85 L57.41,34.84 L56.71,32.62 L55.82,30.47 L54.75,28.40 L53.51,26.43 L56.45,27.35 L59.22,28.65 L61.78,30.33 L64.11,32.35 Z" fill="#0078d4" stroke="#0078d4" stroke-width="1" stroke-linejoin="round"/><path d="M48.06,25.62 L51.46,25.90 L51.46,25.90 L53.04,28.02 L54.37,30.30 L55.44,32.72 L56.22,35.24 L51.99,35.82 L47.73,36.01 L43.47,35.82 L39.24,35.24 L40.02,32.76 L41.07,30.40 L42.39,28.16 L43.95,26.09 L43.95,26.09 L45.99,25.76 L48.06,25.62 L48.06,25.62 Z" fill="#0078d4" stroke="#0078d4" stroke-width="1" stroke-linejoin="round"/><path d="M41.83,26.43 L40.57,28.38 L39.49,30.43 L38.59,32.57 L37.87,34.77 L34.80,33.85 L31.95,32.37 L34.12,30.42 L36.51,28.77 L39.09,27.43 L41.83,26.42 L41.83,26.43 Z" fill="#0078d4" stroke="#0078d4" stroke-width="1" stroke-linejoin="round"/><path d="M31.61,63.81 L34.27,62.37 L37.16,61.44 L37.86,63.72 L38.80,65.90 L39.97,67.97 L41.37,69.91 L38.65,68.87 L36.09,67.49 L33.74,65.80 L31.61,63.81 Z" fill="#0078d4" stroke="#0078d4" stroke-width="1" stroke-linejoin="round"/><path d="M48.06,70.85 L45.81,70.73 L43.58,70.38 L43.58,70.38 L41.78,68.34 L40.29,66.08 L39.15,63.64 L38.37,61.03 L42.94,60.34 L47.53,60.11 L52.13,60.34 L56.69,61.03 L55.90,63.68 L54.75,66.22 L53.26,68.57 L51.45,70.63 L48.06,70.85 Z" fill="#0078d4" stroke="#0078d4" stroke-width="1" stroke-linejoin="round"/><path d="M58.16,61.44 L61.38,62.48 L64.39,64.03 L62.09,66.07 L59.54,67.77 L56.78,69.10 L53.86,70.04 L55.72,66.93 L57.16,64.13 L58.15,61.44 L58.16,61.44 Z" fill="#0078d4" stroke="#0078d4" stroke-width="1" stroke-linejoin="round"/><path d="M58.47,60.13 L59.09,56.65 L57.66,56.99 L57.13,59.82 L52.40,59.11 L47.64,58.87 L42.88,59.11 L38.15,59.82 L37.80,58.27 L37.63,56.86 L36.19,56.46 L36.36,58.31 L36.72,60.17 L33.48,61.20 L30.49,62.81 L29.24,61.17 L28.17,59.45 L27.26,57.66 L26.52,55.82 L25.95,53.93 L25.55,52.00 L25.32,50.06 L25.26,48.11 L25.37,46.15 L25.64,44.22 L26.09,42.30 L26.70,40.43 L27.48,38.60 L28.43,36.83 L29.55,35.14 L30.83,33.53 L33.95,35.16 L37.31,36.20 L36.88,37.93 L36.70,39.67 L37.97,39.38 L38.56,36.52 L43.29,37.14 L48.06,37.26 L52.41,37.06 L56.73,36.45 L57.35,39.10 L58.78,39.44 L58.04,36.33 L61.74,35.20 L65.21,33.49 L66.51,35.11 L67.65,36.83 L68.61,38.61 L69.40,40.46 L70.02,42.36 L70.47,44.30 L70.74,46.26 L70.84,48.23 L70.76,50.21 L70.52,52.17 L70.10,54.12 L69.50,56.02 L68.74,57.88 L67.79,59.68 L66.68,61.41 L65.39,63.05 L62.06,61.25 L58.47,60.03 L58.47,60.12 L58.47,60.13 Z" fill="#0078d4" stroke="#0078d4" stroke-width="1" stroke-linejoin="round"/><path d="M35.13,41.75 L31.51,42.01 L31.48,54.78 L34.60,54.93 L36.17,54.89 L37.68,54.55 L39.11,53.93 L40.39,53.03 L41.26,51.92 L41.87,50.68 L42.22,49.33 L42.29,47.93 L42.19,46.67 L41.84,45.46 L41.26,44.35 L40.45,43.38 L39.25,42.60 L37.94,42.06 L36.55,41.78 L35.13,41.75 L35.13,41.75 Z" fill="#ffffff" stroke="#ffffff" stroke-width="1" stroke-linejoin="round"/><path d="M40.53,49.18 L40.31,50.18 L39.91,51.09 L39.35,51.89 L38.66,52.56 L37.84,53.09 L36.94,53.45 L35.97,53.64 L34.94,53.63 L33.23,53.63 L33.23,42.94 L35.19,42.94 L36.29,42.91 L37.22,43.09 L38.07,43.44 L38.82,43.94 L39.46,44.57 L39.97,45.32 L40.32,46.14 L40.52,47.04 L40.53,47.99 L40.53,49.18 L40.53,49.18 Z" fill="#0078d4" stroke="#0078d4" stroke-width="1" stroke-linejoin="round"/><path d="M52.74,47.11 L52.92,52.51 L50.55,48.24 L46.35,41.70 L44.51,41.70 L44.51,54.81 L46.00,54.91 L46.00,43.88 L48.46,48.24 L52.58,54.81 L54.29,54.81 L54.29,41.70 L52.73,41.70 L52.73,47.11 L52.74,47.11 Z" fill="#ffffff" stroke="#ffffff" stroke-width="1" stroke-linejoin="round"/><path d="M61.27,47.37 L60.10,46.81 L59.29,46.19 L58.81,45.52 L58.66,44.84 L58.79,44.16 L59.23,43.52 L60.00,43.06 L61.15,42.88 L62.43,43.03 L63.64,43.50 L64.14,42.10 L62.73,41.62 L61.24,41.48 L60.99,41.46 L59.49,41.67 L58.24,42.41 L57.36,43.57 L56.97,45.03 L57.27,46.31 L58.05,47.35 L59.16,48.17 L60.46,48.77 L61.59,49.26 L62.36,49.81 L62.79,50.48 L62.92,51.35 L62.74,52.27 L62.21,52.98 L61.35,53.44 L60.18,53.60 L58.57,53.38 L57.07,52.76 L56.69,54.16 L58.31,54.80 L60.03,55.00 L61.12,54.92 L62.06,54.69 L62.86,54.32 L63.50,53.84 L64.00,53.27 L64.36,52.64 L64.64,51.23 L64.37,49.91 L63.64,48.83 L62.56,47.99 L61.27,47.37 L61.27,47.37 Z" fill="#ffffff" stroke="#ffffff" stroke-width="1" stroke-linejoin="round"/></svg>