<svg xmlns="http://www.w3.org/2000/svg" viewBox="-1.90 -1.96 99.82 99.96"><path d="M50.84,68.70 L50.84,52.12 L51.14,50.69 L51.92,49.52 L53.08,48.72 L54.49,48.41 L58.46,48.08 L61.23,47.40 L63.22,46.48 L64.83,45.42 L66.09,44.57 L67.56,43.76 L69.34,43.07 L71.58,42.58 L72.05,38.98 L72.16,35.35 L71.90,31.71 L71.27,28.10 L70.27,24.55 L68.90,21.08 L67.14,17.72 L64.99,14.51 L62.63,11.66 L60.05,9.11 L57.27,6.87 L54.31,4.94 L51.20,3.32 L47.97,2.02 L44.64,1.04 L41.24,0.38 L37.79,0.04 L34.32,0.04 L30.86,0.37 L27.42,1.04 L24.03,2.05 L20.73,3.41 L17.53,5.11 L14.46,7.17 L14.07,7.43 L11.27,9.84 L8.77,12.47 L6.58,15.29 L4.71,18.29 L3.14,21.42 L1.90,24.68 L0.97,28.03 L0.38,31.44 L0.10,34.90 L0.17,38.37 L0.56,41.83 L1.29,45.26 L2.37,48.62 L3.78,51.90 L5.55,55.07 L7.66,58.11 L9.70,60.51 L11.90,62.69 L14.24,64.66 L16.71,66.39 L19.30,67.90 L21.99,69.18 L24.76,70.23 L27.59,71.05 L30.48,71.64 L33.41,71.98 L36.36,72.09 L39.31,71.96 L42.25,71.59 L45.16,70.97 L48.04,70.10 L50.85,68.99 L50.84,68.70 Z" fill="#3990e4" stroke="#1e1e1e" stroke-width="1" stroke-linejoin="round"/><path d="M13.65,27.48 L16.11,27.22 L18.58,27.14 L20.53,27.16 L22.42,27.55 L24.21,28.28 L25.85,29.34 L26.94,30.68 L27.73,32.19 L28.21,33.83 L28.35,35.55 L28.25,37.46 L27.78,39.30 L26.94,41.00 L25.76,42.51 L24.00,43.73 L22.06,44.58 L20.00,45.04 L17.86,45.10 L13.62,44.89 L13.66,27.48 L13.65,27.48 Z" fill="#ffffff" stroke="#ffffff" stroke-width="1" stroke-linejoin="round"/><path d="M15.99,43.32 L18.33,43.32 L19.72,43.34 L21.05,43.09 L22.28,42.59 L23.39,41.87 L24.34,40.95 L25.10,39.86 L25.64,38.62 L25.94,37.26 L25.93,35.63 L25.91,34.34 L25.65,33.12 L25.16,31.99 L24.47,30.98 L23.60,30.12 L22.58,29.43 L21.42,28.95 L20.15,28.71 L18.66,28.75 L15.98,28.75 L15.98,43.32 L15.99,43.32 Z" fill="#3990e4" stroke="#3990e4" stroke-width="1" stroke-linejoin="round"/><path d="M31.37,44.94 L31.37,27.06 L33.87,27.06 L39.61,35.98 L41.31,38.84 L42.83,41.80 L42.83,41.80 L42.62,38.28 L42.58,34.45 L42.58,27.06 L44.70,27.06 L44.70,44.94 L42.36,44.94 L36.76,35.97 L33.40,30.03 L33.40,30.03 L33.40,45.06 L31.37,44.93 L31.37,44.94 Z" fill="#ffffff" stroke="#ffffff" stroke-width="1" stroke-linejoin="round"/><path d="M48.49,42.13 L50.53,42.99 L52.73,43.28 L54.32,43.06 L55.49,42.44 L56.22,41.47 L56.47,40.22 L56.29,39.03 L55.70,38.11 L54.66,37.37 L53.11,36.70 L51.35,35.88 L49.83,34.77 L49.22,34.10 L48.76,33.35 L48.46,32.51 L48.36,31.60 L48.52,30.56 L48.88,29.61 L49.41,28.76 L50.08,28.03 L50.89,27.44 L51.79,27.02 L52.78,26.77 L53.83,26.73 L54.18,26.76 L56.20,26.94 L58.13,27.61 L57.45,29.51 L55.81,28.87 L54.05,28.67 L52.48,28.91 L51.43,29.54 L50.84,30.41 L50.66,31.34 L50.87,32.27 L51.52,33.18 L52.63,34.03 L54.22,34.78 L55.98,35.63 L57.44,36.78 L58.01,37.47 L58.44,38.25 L58.71,39.11 L58.81,40.05 L58.71,41.03 L58.43,41.97 L57.94,42.84 L57.26,43.61 L56.38,44.26 L55.30,44.76 L54.01,45.08 L52.52,45.19 L50.17,44.92 L47.98,44.05 L48.49,42.14 L48.49,42.13 Z" fill="#ffffff" stroke="#ffffff" stroke-width="1" stroke-linejoin="round"/><path d="M50.84,63.14 L47.64,64.59 L44.27,65.66 L46.16,62.98 L47.75,60.13 L49.03,57.12 L49.97,53.98 L50.84,54.21 L50.84,52.20 L50.42,52.08 L51.25,47.45 L49.30,47.91 L48.58,51.78 L45.36,51.21 L42.13,50.80 L38.89,50.56 L35.64,50.47 L32.39,50.56 L29.15,50.80 L25.92,51.21 L22.71,51.78 L21.99,48.13 L21.99,47.74 L20.04,47.19 L20.04,48.38 L20.30,50.36 L20.76,52.25 L18.52,52.85 L16.34,53.66 L14.25,54.66 L12.26,55.86 L10.56,53.62 L9.09,51.27 L7.86,48.83 L6.85,46.32 L6.08,43.74 L5.53,41.12 L5.22,38.47 L5.13,35.80 L5.28,33.14 L5.66,30.50 L6.26,27.89 L7.10,25.33 L8.16,22.84 L9.46,20.43 L10.98,18.12 L12.73,15.93 L14.81,17.13 L16.99,18.15 L19.24,18.97 L21.57,19.58 L20.81,22.81 L20.68,23.81 L20.46,24.38 L22.46,23.91 L22.46,23.19 L23.26,20.01 L26.48,20.51 L29.72,20.85 L32.96,21.02 L36.22,21.02 L42.15,20.75 L48.03,19.92 L48.87,23.53 L50.83,24.00 L49.81,19.75 L52.36,19.09 L54.85,18.22 L57.26,17.15 L59.58,15.89 L62.01,19.03 L63.99,22.39 L65.50,25.93 L66.54,29.59 L67.12,33.33 L67.24,37.11 L66.90,40.88 L66.09,44.59 L67.98,43.57 L68.65,39.84 L68.88,35.98 L68.71,32.64 L68.21,29.40 L67.40,26.27 L66.30,23.27 L64.93,20.42 L63.29,17.73 L61.41,15.21 L59.30,12.89 L56.98,10.79 L54.47,8.91 L51.78,7.27 L48.92,5.89 L45.92,4.79 L42.79,3.98 L39.55,3.49 L36.21,3.31 L32.87,3.48 L29.63,3.97 L26.50,4.78 L23.49,5.88 L20.64,7.25 L17.94,8.89 L15.43,10.77 L13.11,12.87 L11.00,15.19 L9.12,17.71 L7.48,20.40 L6.11,23.26 L5.01,26.26 L4.20,29.39 L3.71,32.63 L3.54,35.97 L3.71,39.31 L4.20,42.56 L5.01,45.69 L6.11,48.69 L7.48,51.54 L9.12,54.24 L11.00,56.75 L13.11,59.07 L15.43,61.18 L17.94,63.06 L20.64,64.70 L23.49,66.07 L26.49,67.17 L29.62,67.98 L32.87,68.47 L36.21,68.64 L40.10,68.41 L43.85,67.74 L47.44,66.65 L50.84,65.18 L50.84,63.15 L50.84,63.14 Z" fill="#5ea0ef" stroke="#5ea0ef" stroke-width="1" stroke-linejoin="round"/><path d="M58.09,14.31 L55.91,15.42 L53.65,16.36 L51.33,17.13 L48.95,17.71 L48.00,14.68 L46.79,11.75 L45.33,8.93 L43.64,6.24 L47.65,7.50 L51.42,9.28 L54.92,11.56 L58.09,14.31 Z" fill="#3990e4" stroke="#3990e4" stroke-width="1" stroke-linejoin="round"/><path d="M36.21,5.14 L38.53,5.23 L40.84,5.52 L43.00,8.41 L44.81,11.52 L46.27,14.81 L47.34,18.26 L41.57,19.05 L35.76,19.31 L29.96,19.05 L24.19,18.26 L25.25,14.88 L26.69,11.65 L28.48,8.61 L30.60,5.77 L33.39,5.32 L36.21,5.14 L36.21,5.14 Z" fill="#3990e4" stroke="#3990e4" stroke-width="1" stroke-linejoin="round"/><path d="M27.71,6.24 L26.00,8.91 L24.53,11.70 L23.30,14.61 L22.32,17.62 L20.20,17.09 L18.13,16.36 L16.15,15.45 L14.25,14.35 L17.21,11.69 L20.46,9.43 L23.98,7.61 L27.72,6.24 L27.71,6.24 Z" fill="#3990e4" stroke="#3990e4" stroke-width="1" stroke-linejoin="round"/><path d="M13.78,57.21 L15.55,56.14 L17.41,55.25 L19.35,54.52 L21.34,53.98 L22.30,57.09 L23.58,60.07 L25.18,62.89 L27.08,65.54 L23.37,64.11 L19.89,62.24 L16.68,59.93 L13.78,57.21 L13.78,57.21 Z" fill="#3990e4" stroke="#3990e4" stroke-width="1" stroke-linejoin="round"/><path d="M36.21,66.81 L33.13,66.65 L30.09,66.18 L27.63,63.40 L25.61,60.32 L24.06,56.98 L23.00,53.43 L29.22,52.49 L35.49,52.17 L41.75,52.49 L47.97,53.43 L46.89,56.99 L45.32,60.33 L43.27,63.41 L40.79,66.18 L41.01,66.56 L38.61,66.78 L36.21,66.82 L36.21,66.81 Z" fill="#3990e4" stroke="#3990e4" stroke-width="1" stroke-linejoin="round"/><path d="M65.27,17.21 L65.70,17.48 L65.46,17.35 L65.27,17.21 Z" fill="#0078d4" stroke="#0078d4" stroke-width="1" stroke-linejoin="round"/><path d="M95.91,68.70 L95.72,71.25 L95.18,73.72 L94.33,76.12 L93.21,78.42 L91.87,80.63 L90.36,82.73 L86.98,86.57 L83.43,89.87 L80.06,92.55 L77.23,94.56 L75.29,95.81 L74.58,96.00 L73.88,95.81 L71.94,94.56 L69.10,92.56 L65.74,89.87 L62.19,86.58 L58.81,82.74 L57.30,80.64 L55.96,78.43 L54.84,76.12 L53.99,73.73 L53.44,71.25 L53.25,68.70 L53.25,52.13 L53.36,51.62 L53.64,51.21 L54.05,50.92 L54.56,50.82 L58.80,50.46 L61.86,49.73 L64.09,48.76 L65.81,47.68 L67.39,46.61 L69.14,45.69 L71.43,45.04 L74.59,44.79 L77.74,45.04 L80.03,45.69 L81.79,46.61 L83.36,47.68 L85.09,48.76 L87.31,49.73 L90.37,50.46 L94.61,50.82 L95.12,50.92 L95.53,51.21 L95.81,51.62 L95.92,52.13 L95.92,68.70 L95.91,68.70 Z" fill="#76bc2d" stroke="#1e1e1e" stroke-width="1" stroke-linejoin="round"/><path d="M94.15,68.84 L93.98,71.17 L93.48,73.45 L92.70,75.64 L91.67,77.76 L90.45,79.78 L89.06,81.70 L85.96,85.22 L82.71,88.25 L79.62,90.71 L75.23,93.69 L74.59,93.87 L73.94,93.69 L69.55,90.71 L66.46,88.25 L63.20,85.22 L60.10,81.70 L58.71,79.78 L57.48,77.76 L56.45,75.64 L55.67,73.45 L55.17,71.17 L55.00,68.84 L55.00,53.64 L55.09,53.17 L55.35,52.79 L55.73,52.53 L56.20,52.44 L56.20,52.44 L60.09,52.11 L62.90,51.44 L64.94,50.55 L66.53,49.55 L67.97,48.57 L69.58,47.73 L71.68,47.13 L74.58,46.91 L77.47,47.13 L79.57,47.73 L81.18,48.57 L82.62,49.55 L84.21,50.55 L86.25,51.44 L89.06,52.11 L92.95,52.44 L93.42,52.53 L93.80,52.79 L94.06,53.17 L94.15,53.64 L94.15,68.83 L94.15,68.84 Z" fill="#68a528" stroke="#1e1e1e" stroke-width="1" stroke-linejoin="round"/><path d="M83.17,66.35 L81.95,66.35 L81.95,62.09 L81.81,60.59 L81.41,59.16 L80.75,57.83 L79.84,56.63 L78.77,55.67 L77.56,54.97 L76.27,54.52 L74.92,54.33 L73.56,54.40 L72.23,54.72 L70.96,55.32 L69.81,56.18 L69.35,56.63 L68.44,57.83 L67.77,59.16 L67.37,60.59 L67.24,62.08 L67.24,66.35 L65.99,66.35 L65.31,66.63 L65.01,67.32 L65.01,78.41 L65.31,79.09 L65.99,79.37 L83.18,79.37 L83.86,79.09 L84.16,78.41 L84.16,67.32 L83.87,66.64 L83.18,66.35 L83.17,66.35 Z" fill="#ffffff" stroke="#ffffff" stroke-width="1" stroke-linejoin="round"/><path d="M78.51,66.35 L70.66,66.35 L70.66,62.01 L70.99,60.40 L71.38,59.67 L71.90,59.03 L73.05,58.17 L74.39,57.83 L75.76,58.02 L77.00,58.75 L77.29,59.03 L77.74,59.63 L77.74,59.63 L78.31,60.77 L78.52,62.02 L78.51,66.35 L78.51,66.35 Z" fill="#68a528" stroke="#68a528" stroke-width="1" stroke-linejoin="round"/><path d="M65.99,66.35 L83.17,66.35 L83.81,66.59 L65.36,79.12 L65.10,78.80 L65.01,78.39 L65.01,67.31 L65.30,66.63 L65.99,66.35 L65.99,66.35 Z" fill="#b3b3b3" stroke="#b3b3b3" stroke-width="1" stroke-linejoin="round" opacity="0.15"/><path d="M83.17,66.35 L65.99,66.35 L65.36,66.59 L83.80,79.12 L84.06,78.80 L84.15,78.39 L84.15,67.31 L83.86,66.63 L83.17,66.35 L83.17,66.35 Z" fill="#a3a3a3" stroke="#a3a3a3" stroke-width="1" stroke-linejoin="round" opacity="0.09"/></svg>