<svg xmlns="http://www.w3.org/2000/svg" viewBox="-1.98 3.80 99.98 88.44"><path d="M87.70,47.83 L87.30,53.44 L86.10,58.93 L84.14,64.20 L81.44,69.14 L78.07,73.64 L74.10,77.61 L69.59,80.98 L64.66,83.68 L59.39,85.64 L53.90,86.84 L48.29,87.24 L45.72,87.16 L43.17,86.92 L37.93,85.89 L32.88,84.13 L28.13,81.70 L27.70,78.55 L27.22,74.82 L26.90,72.52 L26.47,71.33 L25.67,70.34 L24.21,69.70 L22.62,69.79 L21.25,70.60 L20.13,71.72 L18.37,73.48 L15.18,69.24 L12.59,64.60 L10.66,59.66 L9.41,54.50 L8.87,49.22 L8.83,48.52 L8.82,47.83 L9.22,42.21 L10.42,36.71 L12.39,31.43 L15.09,26.49 L18.46,21.98 L22.44,18.00 L26.95,14.63 L31.89,11.93 L37.17,9.96 L42.67,8.76 L48.29,8.36 L53.52,8.71 L58.65,9.75 L63.60,11.48 L68.27,13.87 L68.69,17.07 L69.23,20.75 L69.60,23.47 L69.91,24.50 L70.51,25.39 L71.59,26.09 L72.85,26.35 L74.13,26.11 L75.20,25.39 L78.24,22.35 L81.56,26.79 L84.22,31.67 L86.15,36.87 L87.32,42.29 L87.70,47.83 Z" fill="#006aba" stroke="#1e1e1e" stroke-width="1" stroke-linejoin="round"/><path d="M77.41,25.07 L77.00,24.54 L76.55,24.05 L75.22,25.39 L74.15,26.11 L72.87,26.35 L71.61,26.09 L70.53,25.39 L67.49,26.35 L64.39,27.09 L63.81,27.20 L63.59,26.61 L61.80,21.47 L59.38,16.59 L58.47,15.04 L60.18,15.68 L64.91,17.86 L69.25,20.75 L68.71,17.07 L64.51,14.64 L60.03,12.78 L55.34,11.52 L50.53,10.88 L48.29,10.83 L46.05,10.88 L43.64,11.12 L41.25,11.52 L36.54,12.77 L32.03,14.62 L27.79,17.04 L23.91,19.98 L20.45,23.41 L19.11,25.07 L16.35,29.12 L14.14,33.50 L12.55,38.14 L11.59,42.95 L11.27,47.84 L11.29,49.02 L11.38,50.19 L12.12,55.68 L13.68,60.99 L16.03,66.01 L19.11,70.61 L20.13,71.73 L21.25,70.61 L22.62,69.80 L24.21,69.71 L25.67,70.35 L28.90,69.37 L32.18,68.59 L32.77,68.43 L32.93,69.01 L34.72,74.16 L37.14,79.04 L38.10,80.64 L36.34,80.00 L31.58,77.77 L27.22,74.83 L27.70,78.56 L31.96,81.02 L36.50,82.89 L41.25,84.16 L42.42,84.37 L46.05,84.75 L48.29,84.85 L50.53,84.75 L52.94,84.53 L55.33,84.16 L60.03,82.91 L64.53,81.06 L68.75,78.64 L72.62,75.69 L76.07,72.27 L77.46,70.61 L80.22,66.56 L82.41,62.18 L83.99,57.54 L84.94,52.73 L85.25,47.84 L84.95,42.94 L83.99,38.13 L82.39,33.49 L80.19,29.11 L77.41,25.07 L77.41,25.07 Z" fill="#5ea0ef" stroke="#5ea0ef" stroke-width="1" stroke-linejoin="round"/><path d="M42.31,14.19 L42.47,14.03 L42.67,13.96 L45.43,13.65 L48.21,13.54 L51.05,13.65 L53.87,13.96 L54.08,14.02 L54.19,14.18 L57.06,18.09 L59.32,22.39 L60.91,26.98 L61.12,27.67 L60.37,27.78 L54.34,28.46 L48.27,28.68 L42.17,28.46 L36.11,27.78 L35.41,27.67 L35.63,26.98 L37.19,22.38 L39.44,18.08 L42.31,14.18 L42.31,14.19 Z" fill="#006aba" stroke="#006aba" stroke-width="1" stroke-linejoin="round"/><path d="M31.27,61.76 L31.38,61.76 L31.38,62.35 L31.97,65.23 L32.07,65.87 L31.43,65.97 L26.60,67.24 L21.89,68.91 L21.41,69.12 L21.09,68.75 L18.52,64.88 L16.49,60.71 L15.05,56.30 L14.21,51.73 L14.04,49.79 L13.99,47.84 L14.29,43.36 L15.17,38.95 L16.61,34.70 L18.60,30.67 L21.09,26.93 L21.41,26.51 L21.89,26.72 L26.60,28.40 L31.43,29.65 L32.07,29.81 L31.97,30.45 L30.92,36.20 L30.29,42.00 L30.10,47.84 L30.38,54.82 L31.27,61.75 L31.27,61.76 Z" fill="#006aba" stroke="#006aba" stroke-width="1" stroke-linejoin="round"/><path d="M32.18,27.09 L28.13,26.09 L24.18,24.75 L23.22,24.43 L23.91,23.68 L27.66,20.43 L31.83,17.74 L36.34,15.68 L38.10,15.04 L37.14,16.59 L34.73,21.47 L32.93,26.61 L32.77,27.20 L32.18,27.09 Z" fill="#006aba" stroke="#006aba" stroke-width="1" stroke-linejoin="round"/><path d="M34.74,65.39 L34.58,64.75 L33.58,59.16 L32.99,53.51 L32.82,47.84 L32.99,42.15 L33.58,36.49 L34.58,30.88 L34.74,30.29 L35.33,30.40 L41.79,31.15 L48.29,31.41 L54.79,31.15 L61.25,30.40 L61.83,30.29 L61.94,30.88 L62.98,36.48 L63.58,42.15 L63.75,47.84 L63.58,53.52 L62.98,59.16 L61.94,64.75 L61.83,65.39 L61.25,65.28 L54.79,64.51 L48.29,64.27 L41.79,64.50 L35.33,65.28 L34.74,65.39 Z" fill="#006aba" stroke="#006aba" stroke-width="1" stroke-linejoin="round"/><path d="M54.21,81.49 L54.10,81.65 L53.87,81.65 L51.08,82.01 L48.27,82.13 L45.46,82.01 L42.67,81.64 L42.45,81.59 L42.29,81.43 L40.97,79.90 L39.84,78.23 L37.86,74.63 L36.32,70.82 L35.94,69.76 L35.63,68.68 L35.41,67.94 L36.11,67.83 L42.17,67.18 L48.27,66.98 L54.34,67.17 L60.37,67.83 L61.12,67.94 L60.91,68.68 L59.33,73.27 L57.08,77.57 L54.21,81.48 L54.21,81.49 Z" fill="#006aba" stroke="#006aba" stroke-width="1" stroke-linejoin="round"/><path d="M72.61,71.95 L68.87,75.23 L64.70,77.93 L60.18,80.00 L58.47,80.64 L59.38,79.04 L61.82,74.17 L63.59,69.01 L63.81,68.43 L64.39,68.59 L68.44,69.58 L72.39,70.88 L73.30,71.25 L72.61,71.95 Z" fill="#006aba" stroke="#006aba" stroke-width="1" stroke-linejoin="round"/><path d="M75.43,68.75 L75.17,69.12 L74.69,68.91 L69.95,67.23 L65.09,65.97 L64.45,65.87 L64.61,65.23 L65.65,59.48 L66.28,53.68 L66.47,47.84 L66.28,42.00 L65.66,36.20 L64.61,30.45 L64.45,29.81 L65.09,29.65 L69.95,28.39 L74.69,26.72 L75.11,26.51 L75.43,26.93 L78.20,31.10 L80.32,35.62 L81.77,40.40 L82.50,45.34 L82.50,50.34 L81.77,55.28 L80.32,60.06 L78.20,64.58 L75.43,68.75 L75.43,68.75 Z" fill="#006aba" stroke="#006aba" stroke-width="1" stroke-linejoin="round"/><path d="M52.49,59.05 L48.27,59.05 L44.05,59.05 L43.25,58.80 L42.75,58.12 L42.75,57.28 L45.74,47.31 L44.08,46.01 L43.01,44.19 L42.70,42.10 L43.20,40.04 L44.42,38.32 L46.20,37.17 L48.27,36.77 L50.35,37.17 L52.12,38.32 L53.35,40.04 L53.84,42.10 L53.53,44.19 L52.47,46.01 L50.80,47.31 L53.80,57.28 L53.79,58.12 L53.29,58.80 L52.49,59.05 Z" fill="#003067" stroke="#003067" stroke-width="1" stroke-linejoin="round"/><path d="M96.00,47.78 L95.60,54.04 L94.38,60.20 L92.36,66.15 L89.57,71.77 L86.07,76.99 L81.92,81.70 L80.94,82.36 L79.79,82.60 L78.63,82.36 L77.65,81.70 L76.88,80.34 L76.88,78.78 L77.65,77.43 L81.27,73.31 L84.32,68.75 L86.75,63.83 L88.50,58.63 L89.57,53.25 L89.92,47.78 L89.60,42.49 L88.61,37.29 L86.97,32.25 L84.69,27.47 L81.82,23.02 L78.40,18.98 L73.60,23.78 L72.92,24.05 L72.22,23.82 L71.84,23.19 L69.60,6.98 L69.70,6.35 L70.15,5.90 L70.77,5.80 L86.99,7.99 L87.65,8.37 L87.89,9.10 L87.57,9.80 L82.72,14.66 L86.66,19.31 L89.96,24.42 L92.59,29.92 L94.49,35.71 L95.63,41.69 L96.00,47.78 Z" fill="#50e6ff" stroke="#1e1e1e" stroke-width="1" stroke-linejoin="round"/><path d="M24.59,72.84 L24.22,72.19 L23.52,71.94 L22.83,72.20 L17.97,77.06 L14.14,72.53 L10.98,67.50 L8.56,62.08 L6.94,56.37 L6.13,50.49 L6.17,44.56 L7.04,38.69 L8.73,33.00 L11.21,27.61 L14.43,22.62 L18.31,18.13 L18.99,17.15 L19.23,15.97 L18.99,14.80 L18.31,13.81 L16.96,13.04 L15.40,13.04 L14.05,13.81 L9.94,18.51 L6.47,23.70 L3.71,29.29 L1.69,35.19 L0.46,41.31 L0.02,47.53 L0.40,53.76 L1.58,59.89 L3.54,65.81 L6.25,71.43 L9.66,76.65 L13.73,81.39 L8.87,86.24 L8.56,86.93 L8.80,87.64 L9.46,88.00 L25.67,90.24 L26.31,90.12 L26.75,89.65 L26.85,89.01 L24.59,72.84 Z" fill="#50e6ff" stroke="#1e1e1e" stroke-width="1" stroke-linejoin="round"/></svg>