<svg xmlns="http://www.w3.org/2000/svg" viewBox="-1.31 8.40 100.00 80.59"><path d="M69.19,63.83 L72.45,67.13 L79.45,74.55 L83.06,78.64 L86.03,82.36 L87.86,85.24 L88.18,86.22 L88.02,86.82 L87.37,86.98 L86.32,86.71 L83.25,85.15 L79.30,82.59 L74.98,79.47 L67.13,73.41 L63.64,70.58 L69.19,63.83 Z" fill="#e06500" stroke="#1e1e1e" stroke-width="1" stroke-linejoin="round"/><path d="M52.63,25.79 L52.86,23.41 L53.59,18.17 L54.16,15.38 L54.89,12.95 L55.78,11.26 L56.28,10.80 L56.83,10.66 L57.39,10.84 L57.91,11.32 L58.83,12.98 L59.61,15.30 L60.24,17.94 L61.08,22.88 L61.35,25.11 L52.63,25.79 Z" fill="#e06500" stroke="#e06500" stroke-width="1" stroke-linejoin="round"/><path d="M14.66,68.80 L12.81,70.61 L8.59,74.41 L6.21,76.30 L3.98,77.79 L2.16,78.56 L1.47,78.58 L0.98,78.31 L0.72,77.77 L0.69,77.01 L1.19,75.00 L2.26,72.55 L3.67,69.93 L6.53,65.28 L7.90,63.25 L14.66,68.80 Z" fill="#e06500" stroke="#e06500" stroke-width="1" stroke-linejoin="round"/><path d="M96.49,61.74 L96.33,59.83 L96.01,57.98 L95.53,56.18 L94.90,54.45 L93.21,51.21 L91.00,48.33 L88.32,45.88 L85.25,43.92 L83.58,43.13 L81.83,42.50 L80.00,42.02 L78.12,41.70 L77.89,38.98 L77.40,36.35 L76.66,33.82 L75.69,31.41 L74.49,29.12 L73.09,26.96 L71.49,24.96 L69.71,23.12 L67.77,21.47 L65.67,20.00 L63.44,18.73 L61.07,17.68 L58.60,16.86 L56.03,16.29 L53.37,15.96 L50.65,15.91 L48.48,15.95 L46.35,16.16 L44.26,16.54 L42.22,17.07 L38.33,18.58 L34.72,20.66 L31.47,23.26 L28.64,26.33 L27.41,28.04 L26.29,29.84 L25.32,31.75 L24.49,33.75 L22.20,34.14 L20.00,34.72 L17.88,35.49 L15.86,36.43 L13.94,37.54 L12.13,38.81 L10.45,40.23 L8.90,41.78 L7.49,43.47 L6.23,45.27 L5.13,47.18 L4.19,49.19 L3.43,51.29 L2.86,53.47 L2.48,55.72 L2.30,58.02 L2.53,60.63 L3.01,63.16 L3.74,65.59 L4.69,67.90 L5.85,70.10 L7.21,72.16 L8.75,74.08 L10.47,75.83 L12.35,77.42 L14.37,78.82 L16.53,80.02 L18.80,81.02 L21.18,81.79 L23.66,82.34 L26.21,82.63 L28.83,82.67 L74.09,82.67 L75.24,82.67 L77.38,82.55 L79.47,82.22 L81.48,81.70 L83.41,81.00 L85.25,80.11 L86.98,79.07 L88.61,77.86 L90.11,76.52 L91.48,75.03 L92.70,73.43 L93.78,71.71 L94.69,69.88 L95.42,67.96 L95.97,65.96 L96.33,63.88 L96.49,61.74 Z" fill="#3990e4" stroke="#1e1e1e" stroke-width="1" stroke-linejoin="round"/><path d="M36.57,47.50 L62.02,47.50 L62.02,82.71 L36.57,82.71 L36.57,47.50 L36.57,47.50 Z" fill="#f2f2f2" stroke="#1e1e1e" stroke-width="1" stroke-linejoin="round"/><path d="M49.48,42.18 L60.31,31.33 L57.34,31.33 L57.34,31.34 L55.21,31.35 L55.01,27.49 L54.94,20.41 L55.08,16.76 L55.42,13.62 L56.01,11.44 L56.42,10.84 L56.91,10.65 L57.07,10.68 L55.88,10.43 L53.75,10.40 L45.91,10.41 L44.89,10.61 L44.06,11.17 L43.50,12.01 L43.30,13.02 L43.36,31.35 L38.63,31.35 L49.48,42.18 Z" fill="#f89529" stroke="#1e1e1e" stroke-width="1" stroke-linejoin="round"/><path d="M28.47,61.22 L13.14,61.23 L15.24,63.33 L15.24,63.33 L16.76,64.83 L14.17,67.70 L9.21,72.77 L6.53,75.25 L4.07,77.22 L2.11,78.35 L1.40,78.48 L0.92,78.27 L0.82,78.13 L1.49,79.16 L2.97,80.68 L8.52,86.22 L9.38,86.79 L10.37,86.98 L11.35,86.79 L12.21,86.22 L25.13,73.21 L28.48,76.55 L28.46,61.22 L28.47,61.22 Z" fill="#f89529" stroke="#1e1e1e" stroke-width="1" stroke-linejoin="round"/><path d="M70.92,59.33 L70.94,74.66 L73.03,72.56 L73.03,72.56 L74.53,71.04 L77.41,73.63 L82.47,78.59 L84.95,81.27 L86.93,83.73 L88.05,85.69 L88.18,86.40 L87.97,86.88 L87.84,86.98 L88.86,86.31 L90.38,84.83 L95.92,79.28 L96.50,78.42 L96.69,77.43 L96.50,76.45 L95.92,75.59 L82.92,62.67 L86.25,59.32 L70.92,59.34 L70.92,59.33 Z" fill="#f89529" stroke="#1e1e1e" stroke-width="1" stroke-linejoin="round"/></svg>