<svg xmlns="http://www.w3.org/2000/svg" viewBox="-1.32 8.25 98.66 79.52"><path d="M68.22,62.94 L71.44,66.20 L78.35,73.51 L81.90,77.55 L84.83,81.21 L86.63,84.05 L86.95,85.02 L86.79,85.61 L86.15,85.76 L85.11,85.50 L82.09,83.96 L78.20,81.44 L73.93,78.37 L66.19,72.39 L62.75,69.60 L68.22,62.94 Z" fill="#e06500" stroke="#1e1e1e" stroke-width="1" stroke-linejoin="round"/><path d="M51.90,25.43 L52.12,23.08 L52.84,17.91 L53.40,15.16 L54.12,12.77 L55.00,11.10 L55.50,10.65 L56.04,10.51 L56.59,10.69 L57.10,11.16 L58.01,12.80 L58.78,15.09 L59.40,17.69 L60.22,22.56 L60.50,24.76 L51.90,25.43 Z" fill="#e06500" stroke="#e06500" stroke-width="1" stroke-linejoin="round"/><path d="M14.45,67.85 L12.63,69.63 L8.47,73.37 L6.12,75.24 L3.93,76.70 L2.13,77.46 L1.45,77.49 L0.97,77.22 L0.71,76.69 L0.68,75.94 L1.18,73.96 L2.23,71.54 L3.62,68.95 L6.44,64.37 L7.79,62.37 L14.45,67.85 Z" fill="#e06500" stroke="#e06500" stroke-width="1" stroke-linejoin="round"/><path d="M95.14,60.88 L94.99,59.00 L94.67,57.17 L94.20,55.40 L93.58,53.69 L91.91,50.50 L89.73,47.66 L87.09,45.24 L84.06,43.30 L82.41,42.53 L80.69,41.91 L78.89,41.43 L77.03,41.12 L76.81,38.44 L76.32,35.85 L75.60,33.35 L74.64,30.97 L73.46,28.71 L72.07,26.59 L70.50,24.61 L68.74,22.80 L66.83,21.17 L64.76,19.72 L62.55,18.47 L60.22,17.44 L57.78,16.63 L55.25,16.06 L52.63,15.74 L49.94,15.69 L47.81,15.73 L45.70,15.94 L43.64,16.31 L41.63,16.83 L37.79,18.32 L34.24,20.37 L31.04,22.93 L28.25,25.96 L27.02,27.65 L25.93,29.43 L24.97,31.31 L24.14,33.28 L21.89,33.66 L19.72,34.23 L17.63,34.99 L15.64,35.92 L13.74,37.02 L11.97,38.27 L10.31,39.67 L8.78,41.20 L7.39,42.86 L6.15,44.64 L5.06,46.52 L4.14,48.50 L3.39,50.57 L2.82,52.72 L2.44,54.94 L2.27,57.22 L2.50,59.79 L2.97,62.28 L3.69,64.67 L4.62,66.96 L5.77,69.12 L7.11,71.15 L8.63,73.04 L10.32,74.77 L12.18,76.34 L14.17,77.72 L16.30,78.91 L18.54,79.89 L20.89,80.65 L23.33,81.19 L25.84,81.48 L28.43,81.52 L73.06,81.52 L74.19,81.52 L76.31,81.40 L78.36,81.08 L80.34,80.56 L82.25,79.87 L84.06,79.00 L85.77,77.96 L87.37,76.78 L88.85,75.45 L90.20,73.99 L91.41,72.41 L92.47,70.71 L93.37,68.91 L94.09,67.02 L94.64,65.04 L94.99,62.99 L95.14,60.88 Z" fill="#3990e4" stroke="#1e1e1e" stroke-width="1" stroke-linejoin="round"/><path d="M36.06,46.84 L61.15,46.84 L61.15,81.56 L36.06,81.56 L36.06,46.84 L36.06,46.84 Z" fill="#f2f2f2" stroke="#1e1e1e" stroke-width="1" stroke-linejoin="round"/><path d="M48.79,41.59 L59.47,30.90 L56.54,30.90 L56.54,30.90 L54.44,30.92 L54.25,27.11 L54.17,20.12 L54.31,16.52 L54.65,13.43 L55.23,11.28 L55.63,10.69 L56.12,10.50 L56.28,10.53 L55.10,10.28 L53.00,10.25 L45.27,10.26 L44.27,10.46 L43.45,11.02 L42.90,11.84 L42.69,12.84 L42.76,30.92 L38.10,30.92 L48.79,41.59 Z" fill="#f89529" stroke="#1e1e1e" stroke-width="1" stroke-linejoin="round"/><path d="M28.07,60.36 L12.95,60.38 L15.03,62.45 L15.03,62.45 L16.53,63.93 L13.97,66.76 L9.09,71.75 L6.44,74.20 L4.02,76.15 L2.08,77.26 L1.38,77.39 L0.91,77.18 L0.81,77.05 L1.47,78.05 L2.93,79.56 L8.40,85.02 L9.25,85.58 L10.22,85.77 L11.19,85.58 L12.04,85.02 L24.78,72.19 L28.08,75.48 L28.06,60.37 L28.07,60.36 Z" fill="#f89529" stroke="#1e1e1e" stroke-width="1" stroke-linejoin="round"/><path d="M69.93,58.51 L69.95,73.62 L72.02,71.55 L72.02,71.55 L73.49,70.05 L76.33,72.61 L81.32,77.49 L83.77,80.14 L85.71,82.56 L86.82,84.49 L86.95,85.19 L86.75,85.67 L86.61,85.77 L87.62,85.10 L89.13,83.65 L94.59,78.18 L95.15,77.32 L95.34,76.35 L95.15,75.38 L94.59,74.53 L81.76,61.80 L85.05,58.50 L69.94,58.52 L69.93,58.51 Z" fill="#f89529" stroke="#1e1e1e" stroke-width="1" stroke-linejoin="round"/></svg>