<svg xmlns="http://www.w3.org/2000/svg" viewBox="8.19 1.60 81.53 94.67"><path d="M50.98,3.60 L13.11,3.60 L11.65,3.99 L10.58,5.05 L10.19,6.51 L10.19,88.23 L10.58,89.69 L11.65,90.76 L13.11,91.15 L78.87,91.15 L80.34,90.77 L81.41,89.70 L81.80,88.24 L81.80,88.24 L81.80,34.21 L81.32,32.82 L80.23,31.83 L78.81,31.48 L56.94,31.48 L55.45,31.08 L54.36,30.00 L53.95,28.51 L53.95,6.59 L53.55,5.09 L52.46,4.00 L50.97,3.60 L50.98,3.60 Z" fill="#8e5ae8" stroke="#1e1e1e" stroke-width="1" stroke-linejoin="round"/><path d="M80.75,32.18 L52.97,4.33 L52.97,26.73 L53.36,28.70 L54.48,30.38 L56.15,31.49 L58.12,31.88 L58.12,31.88 L80.75,32.18 Z" fill="#773adc" stroke="#1e1e1e" stroke-width="1" stroke-linejoin="round"/><path d="M21.97,70.61 L38.46,42.05 L44.42,45.49 L27.93,74.05 L21.97,70.61 Z" fill="#6536c1" stroke="#1e1e1e" stroke-width="1" stroke-linejoin="round"/><path d="M44.45,46.02 L50.40,42.58 L66.89,71.14 L60.93,74.58 L44.45,46.02 Z" fill="#6536c1" stroke="#1e1e1e" stroke-width="1" stroke-linejoin="round"/><rect x="27.67" y="74.55" width="32.98" height="6.87" fill="#6536c1" stroke="#6536c1" stroke-width="1"/><ellipse cx="44.78" cy="37.83" rx="8.37" ry="8.37" fill="#7ec930" stroke="#7ec930" stroke-width="1"/><ellipse cx="21.66" cy="78.51" rx="8.37" ry="8.37" fill="#7ec930" stroke="#7ec930" stroke-width="1"/><ellipse cx="70.58" cy="77.12" rx="17.15" ry="17.15" fill="#7ec930" stroke="#1e1e1e" stroke-width="1"/><path d="M72.53,66.60 L82.23,76.30 L82.57,77.12 L82.23,77.94 L72.53,87.64 L72.17,87.78 L71.80,87.64 L71.69,87.47 L71.65,87.27 L71.65,81.31 L71.50,80.93 L71.12,80.77 L59.01,80.77 L58.71,80.65 L58.59,80.35 L58.59,73.85 L58.71,73.55 L59.01,73.43 L71.13,73.43 L71.51,73.27 L71.66,72.90 L71.66,72.90 L71.66,66.97 L71.99,66.51 L72.54,66.60 L72.53,66.60 Z" fill="#ffffff" stroke="#1e1e1e" stroke-width="1" stroke-linejoin="round"/></svg>