<svg xmlns="http://www.w3.org/2000/svg" viewBox="-2.00 3.46 100.00 89.09"><path d="M26.10,18.49 L32.27,22.05 L15.16,51.68 L9.00,48.12 L26.10,18.49 Z" fill="#773adc" stroke="#1e1e1e" stroke-width="1" stroke-linejoin="round"/><path d="M32.31,22.62 L38.48,19.06 L55.58,48.69 L49.42,52.25 L32.31,22.62 Z" fill="#773adc" stroke="#1e1e1e" stroke-width="1" stroke-linejoin="round"/><path d="M49.13,52.27 L49.13,59.39 L14.92,59.39 L14.92,52.27 L49.13,52.27 Z" fill="#773adc" stroke="#773adc" stroke-width="1" stroke-linejoin="round"/><ellipse cx="32.66" cy="14.13" rx="8.67" ry="8.67" fill="#86d633" stroke="#1e1e1e" stroke-width="1"/><ellipse cx="8.67" cy="56.34" rx="8.67" ry="8.67" fill="#86d633" stroke="#1e1e1e" stroke-width="1"/><ellipse cx="65.51" cy="60.52" rx="28.40" ry="28.40" fill="#ffffff" stroke="#1e1e1e" stroke-width="1"/><path d="M52.55,67.87 L51.66,67.60 L51.07,66.88 L50.98,65.95 L51.42,65.14 L57.43,59.13 L58.32,58.62 L59.34,58.75 L60.07,59.47 L60.20,60.49 L59.70,61.38 L53.68,67.40 L53.16,67.74 L52.55,67.87 Z" fill="#773adc" stroke="#773adc" stroke-width="1" stroke-linejoin="round"/><path d="M56.99,72.31 L56.10,72.04 L55.52,71.32 L55.42,70.40 L55.86,69.58 L61.87,63.57 L62.75,63.08 L63.75,63.23 L64.47,63.94 L64.61,64.94 L64.13,65.83 L58.13,71.85 L57.61,72.19 L56.99,72.31 L56.99,72.31 Z" fill="#773adc" stroke="#773adc" stroke-width="1" stroke-linejoin="round"/><path d="M61.39,76.71 L60.51,76.44 L59.92,75.72 L59.83,74.80 L60.26,73.98 L66.27,67.97 L67.15,67.52 L68.13,67.67 L68.83,68.37 L68.99,69.35 L68.54,70.23 L62.53,76.27 L62.00,76.60 L61.39,76.71 Z" fill="#773adc" stroke="#773adc" stroke-width="1" stroke-linejoin="round"/><path d="M63.59,56.82 L62.71,56.55 L62.12,55.83 L62.03,54.91 L62.46,54.10 L68.48,48.08 L69.35,47.67 L70.31,47.83 L70.99,48.51 L71.16,49.47 L70.74,50.34 L64.73,56.35 L64.21,56.70 L63.59,56.82 Z" fill="#773adc" stroke="#773adc" stroke-width="1" stroke-linejoin="round"/><path d="M68.04,61.26 L67.15,60.99 L66.57,60.28 L66.47,59.36 L66.91,58.54 L72.92,52.52 L73.80,52.07 L74.78,52.23 L75.48,52.92 L75.63,53.90 L75.18,54.78 L69.17,60.80 L68.65,61.15 L68.04,61.26 Z" fill="#773adc" stroke="#773adc" stroke-width="1" stroke-linejoin="round"/><path d="M72.44,65.66 L71.55,65.39 L70.96,64.68 L70.87,63.75 L71.31,62.93 L77.33,56.92 L78.22,56.47 L79.19,56.63 L79.89,57.33 L80.04,58.30 L79.59,59.18 L73.58,65.20 L73.05,65.55 L72.44,65.66 Z" fill="#773adc" stroke="#773adc" stroke-width="1" stroke-linejoin="round"/><path d="M51.31,64.12 L50.59,63.70 L49.76,63.70 L49.04,64.12 L38.77,74.38 L41.05,78.03 L43.83,81.32 L47.03,84.19 L50.61,86.57 L54.49,88.43 L63.93,79.00 L64.34,78.28 L64.34,77.45 L63.93,76.73 L51.31,64.12 Z" fill="#a67af4" stroke="#1e1e1e" stroke-width="1" stroke-linejoin="round"/><path d="M79.86,33.33 L68.16,45.02 L67.74,45.74 L67.74,46.57 L68.16,47.29 L80.78,59.91 L81.50,60.33 L82.33,60.33 L83.05,59.91 L93.90,49.07 L92.04,45.18 L89.66,41.60 L86.79,38.39 L83.50,35.61 L79.86,33.33 L79.86,33.33 Z" fill="#b796f9" stroke="#1e1e1e" stroke-width="1" stroke-linejoin="round"/><path d="M65.60,29.79 L60.68,30.19 L55.89,31.38 L51.36,33.33 L47.20,35.99 L43.53,39.28 L40.44,43.13 L38.01,47.42 L36.31,52.05 L35.38,56.90 L35.24,61.83 L35.91,66.72 L37.36,71.44 L39.55,75.86 L42.43,79.87 L45.92,83.36 L49.93,86.24 L54.35,88.43 L59.06,89.88 L63.95,90.54 L68.89,90.41 L73.73,89.48 L78.36,87.78 L82.66,85.35 L86.51,82.26 L89.80,78.58 L92.46,74.43 L94.41,69.89 L95.60,65.10 L96.00,60.19 L95.63,55.43 L94.51,50.79 L92.69,46.39 L90.19,42.32 L87.10,38.69 L83.47,35.59 L79.40,33.10 L74.99,31.27 L70.36,30.16 L65.60,29.79 Z" fill="#8e5ae8" stroke="#1e1e1e" stroke-width="1" stroke-linejoin="round"/><path d="M65.60,33.79 L70.18,34.19 L74.62,35.38 L78.79,37.32 L82.56,39.96 L85.81,43.21 L88.44,46.98 L90.39,51.14 L91.58,55.58 L91.98,60.17 L91.58,64.75 L90.39,69.19 L88.44,73.35 L85.81,77.12 L82.56,80.37 L78.79,83.01 L74.62,84.95 L70.18,86.14 L65.60,86.54 L61.02,86.14 L56.58,84.95 L52.41,83.01 L48.64,80.37 L45.39,77.12 L42.76,73.35 L40.81,69.19 L39.62,64.75 L39.22,60.17 L39.63,55.59 L40.82,51.15 L42.77,46.98 L45.40,43.22 L48.65,39.97 L52.42,37.33 L56.58,35.39 L61.02,34.19 L65.60,33.79 L65.60,33.79 Z" fill="#ffffff" stroke="#1e1e1e" stroke-width="1" stroke-linejoin="round"/><path d="M52.55,67.87 L51.66,67.60 L51.07,66.88 L50.98,65.95 L51.42,65.14 L57.43,59.13 L58.32,58.62 L59.34,58.75 L60.07,59.47 L60.20,60.49 L59.70,61.38 L53.68,67.40 L53.16,67.74 L52.55,67.87 Z" fill="#773adc" stroke="#773adc" stroke-width="1" stroke-linejoin="round"/><path d="M56.99,72.31 L56.10,72.04 L55.52,71.32 L55.42,70.40 L55.86,69.58 L61.87,63.57 L62.75,63.08 L63.75,63.23 L64.47,63.94 L64.61,64.94 L64.13,65.83 L58.13,71.85 L57.61,72.19 L56.99,72.31 L56.99,72.31 Z" fill="#773adc" stroke="#773adc" stroke-width="1" stroke-linejoin="round"/><path d="M61.39,76.71 L60.51,76.44 L59.92,75.72 L59.83,74.80 L60.26,73.98 L66.27,67.97 L67.15,67.52 L68.13,67.67 L68.83,68.37 L68.99,69.35 L68.54,70.23 L62.53,76.27 L62.00,76.60 L61.39,76.71 Z" fill="#773adc" stroke="#773adc" stroke-width="1" stroke-linejoin="round"/><path d="M63.59,56.82 L62.71,56.55 L62.12,55.83 L62.03,54.91 L62.46,54.10 L68.48,48.08 L69.35,47.67 L70.31,47.83 L70.99,48.51 L71.16,49.47 L70.74,50.34 L64.73,56.35 L64.21,56.70 L63.59,56.82 Z" fill="#773adc" stroke="#773adc" stroke-width="1" stroke-linejoin="round"/><path d="M68.04,61.26 L67.15,60.99 L66.57,60.28 L66.47,59.36 L66.91,58.54 L72.92,52.52 L73.80,52.07 L74.78,52.23 L75.48,52.92 L75.63,53.90 L75.18,54.78 L69.17,60.80 L68.65,61.15 L68.04,61.26 Z" fill="#773adc" stroke="#773adc" stroke-width="1" stroke-linejoin="round"/><path d="M72.44,65.66 L71.55,65.39 L70.96,64.68 L70.87,63.75 L71.31,62.93 L77.33,56.92 L78.22,56.47 L79.19,56.63 L79.89,57.33 L80.04,58.30 L79.59,59.18 L73.58,65.20 L73.05,65.55 L72.44,65.66 Z" fill="#773adc" stroke="#773adc" stroke-width="1" stroke-linejoin="round"/></svg>