<svg xmlns="http://www.w3.org/2000/svg" viewBox="8.79 1.81 86.09 100.00"><path d="M53.98,3.81 L13.89,3.81 L12.34,4.22 L11.21,5.35 L10.79,6.90 L10.79,93.42 L11.21,94.97 L12.34,96.10 L13.88,96.51 L83.51,96.51 L85.06,96.10 L86.19,94.98 L86.61,93.43 L86.61,93.43 L86.61,36.22 L86.10,34.75 L84.95,33.70 L83.45,33.33 L60.29,33.33 L58.72,32.91 L57.56,31.76 L57.13,30.19 L57.13,6.97 L56.70,5.39 L55.54,4.24 L53.96,3.81 L53.98,3.81 Z" fill="#8e5ae8" stroke="#1e1e1e" stroke-width="1" stroke-linejoin="round"/><path d="M85.50,34.07 L56.09,4.59 L56.09,28.30 L56.50,30.39 L57.68,32.16 L59.45,33.34 L61.54,33.76 L61.54,33.76 L85.50,34.07 Z" fill="#773adc" stroke="#1e1e1e" stroke-width="1" stroke-linejoin="round"/><path d="M23.27,74.76 L40.72,44.53 L47.03,48.17 L29.57,78.40 L23.27,74.76 Z" fill="#6536c1" stroke="#1e1e1e" stroke-width="1" stroke-linejoin="round"/><path d="M47.06,48.73 L53.36,45.09 L70.82,75.33 L64.52,78.97 L47.06,48.73 Z" fill="#6536c1" stroke="#1e1e1e" stroke-width="1" stroke-linejoin="round"/><rect x="29.30" y="78.94" width="34.92" height="7.28" fill="#6536c1" stroke="#6536c1" stroke-width="1"/><ellipse cx="47.41" cy="40.06" rx="8.86" ry="8.86" fill="#7ec930" stroke="#1e1e1e" stroke-width="1"/><ellipse cx="22.94" cy="83.13" rx="8.86" ry="8.86" fill="#7ec930" stroke="#1e1e1e" stroke-width="1"/><ellipse cx="74.73" cy="81.66" rx="18.16" ry="18.16" fill="#7ec930" stroke="#1e1e1e" stroke-width="1"/><path d="M76.80,70.52 L87.07,80.79 L87.43,81.65 L87.07,82.52 L76.80,92.79 L76.41,92.95 L76.03,92.79 L75.91,92.61 L75.87,92.40 L75.87,86.09 L75.70,85.69 L75.30,85.52 L62.48,85.52 L62.16,85.39 L62.03,85.08 L62.03,78.19 L62.16,77.88 L62.48,77.75 L75.31,77.75 L75.71,77.58 L75.88,77.18 L75.88,77.18 L75.88,70.90 L76.23,70.43 L76.81,70.52 L76.80,70.52 Z" fill="#ffffff" stroke="#1e1e1e" stroke-width="1" stroke-linejoin="round"/></svg>