<svg xmlns="http://www.w3.org/2000/svg" viewBox="-2.00 5.36 100.00 85.17"><path d="M96.00,54.08 L95.54,50.32 L94.44,46.69 L92.72,43.31 L90.43,40.28 L87.66,37.70 L84.47,35.64 L80.98,34.17 L77.28,33.33 L76.67,28.68 L75.26,24.19 L73.10,20.02 L70.26,16.28 L66.81,13.08 L62.87,10.53 L58.55,8.69 L53.97,7.62 L49.28,7.36 L44.99,7.61 L40.79,8.52 L36.78,10.06 L33.05,12.20 L29.69,14.89 L26.79,18.06 L24.41,21.64 L22.61,25.55 L18.15,26.49 L13.93,28.21 L10.08,30.65 L6.72,33.73 L3.95,37.35 L1.87,41.41 L0.54,45.77 L-0.00,50.29 L0.57,54.81 L1.91,59.15 L3.98,63.20 L6.73,66.82 L10.06,69.92 L13.88,72.39 L18.07,74.16 L22.50,75.18 L27.04,75.41 L29.39,75.41 L73.17,75.41 L73.76,75.44 L74.35,75.41 L78.52,74.97 L82.53,73.74 L86.23,71.77 L89.49,69.12 L92.18,65.91 L94.21,62.24 L95.50,58.24 L96.00,54.08 Z" fill="#3990e4" stroke="#1e1e1e" stroke-width="1" stroke-linejoin="round"/><path d="M76.21,59.68 L75.90,58.58 L75.08,57.78 L73.97,57.49 L22.03,57.49 L20.92,57.78 L20.10,58.58 L19.79,59.68 L19.79,86.35 L20.10,87.44 L20.92,88.24 L22.03,88.53 L73.97,88.53 L75.08,88.24 L75.90,87.44 L76.21,86.35 L76.21,59.68 L76.21,59.68 Z" fill="#821010" stroke="#1e1e1e" stroke-width="1" stroke-linejoin="round"/><rect x="22.93" y="60.59" width="15.31" height="6.77" fill="#e62323" stroke="#e62323" stroke-width="1"/><rect x="40.53" y="60.59" width="15.31" height="6.77" fill="#ff7381" stroke="#ff7381" stroke-width="1"/><rect x="58.13" y="60.59" width="15.31" height="6.77" fill="#e62323" stroke="#e62323" stroke-width="1"/><rect x="22.93" y="69.65" width="6.35" height="6.77" fill="#e62323" stroke="#e62323" stroke-width="1"/><rect x="67.09" y="69.65" width="6.35" height="6.77" fill="#ff7381" stroke="#ff7381" stroke-width="1"/><rect x="31.57" y="69.65" width="15.31" height="6.77" fill="#ff7381" stroke="#ff7381" stroke-width="1"/><rect x="49.23" y="69.65" width="15.31" height="6.77" fill="#e62323" stroke="#e62323" stroke-width="1"/><rect x="22.93" y="78.72" width="15.31" height="6.77" fill="#e62323" stroke="#e62323" stroke-width="1"/><rect x="40.53" y="78.72" width="15.31" height="6.77" fill="#ff7381" stroke="#ff7381" stroke-width="1"/><rect x="58.13" y="78.72" width="15.31" height="6.77" fill="#e62323" stroke="#e62323" stroke-width="1"/></svg>