<svg xmlns="http://www.w3.org/2000/svg" viewBox="-2.00 3.71 100.00 88.59"><path d="M96.00,52.43 L95.54,48.69 L94.42,45.09 L92.70,41.75 L90.41,38.76 L87.63,36.22 L84.45,34.21 L80.96,32.79 L77.28,32.00 L76.71,27.30 L75.34,22.77 L73.20,18.55 L70.37,14.76 L66.92,11.52 L62.96,8.93 L58.61,7.06 L54.00,5.98 L49.28,5.71 L44.99,5.96 L40.79,6.87 L36.78,8.41 L33.05,10.55 L29.69,13.24 L26.79,16.41 L24.41,19.99 L22.61,23.89 L18.16,24.85 L13.94,26.57 L10.09,29.01 L6.73,32.09 L3.97,35.71 L1.88,39.76 L0.55,44.12 L-0.00,48.64 L0.57,53.15 L1.91,57.50 L3.98,61.54 L6.73,65.17 L10.06,68.26 L13.88,70.73 L18.07,72.51 L22.50,73.53 L27.04,73.76 L29.39,73.76 L73.17,73.76 L73.76,73.80 L74.35,73.76 L78.52,73.33 L82.54,72.10 L86.24,70.13 L89.50,67.49 L92.19,64.27 L94.22,60.59 L95.50,56.59 L96.00,52.43 L96.00,52.43 Z" fill="#3990e4" stroke="#1e1e1e" stroke-width="1" stroke-linejoin="round"/><path d="M35.36,36.37 L62.35,36.37 L62.35,73.71 L35.36,73.71 L35.36,36.37 Z" fill="#f2f2f2" stroke="#1e1e1e" stroke-width="1" stroke-linejoin="round"/><path d="M67.25,33.97 L48.64,23.31 L47.65,23.38 L46.99,24.11 L46.99,24.53 L46.99,88.96 L47.36,89.88 L48.27,90.29 L48.69,90.29 L67.31,79.31 L67.95,78.84 L68.21,78.08 L68.21,35.41 L67.99,34.53 L67.25,33.97 Z" fill="#50e6ff" stroke="#1e1e1e" stroke-width="1" stroke-linejoin="round"/></svg>