<svg xmlns="http://www.w3.org/2000/svg" viewBox="-0.87 1.76 97.74 92.51"><path d="M91.59,47.79 L91.06,43.75 L89.72,39.89 L87.65,36.37 L84.91,33.34 L81.63,30.92 L77.92,29.21 L73.95,28.27 L73.38,23.87 L72.06,19.64 L70.03,15.70 L67.36,12.17 L64.11,9.15 L60.39,6.74 L56.31,5.01 L51.99,4.00 L47.57,3.76 L42.96,4.08 L38.47,5.21 L34.25,7.10 L30.43,9.71 L27.13,12.94 L24.44,16.71 L22.46,20.89 L18.25,21.78 L14.27,23.40 L10.64,25.69 L7.47,28.60 L4.86,32.02 L2.89,35.84 L1.64,39.95 L1.13,44.22 L1.66,48.47 L2.93,52.56 L4.88,56.37 L7.47,59.78 L10.60,62.70 L14.20,65.03 L18.15,66.69 L22.32,67.65 L26.60,67.87 L28.84,67.78 L70.09,67.78 L70.62,67.73 L71.15,67.61 L75.06,67.22 L78.82,66.09 L82.29,64.26 L85.36,61.81 L87.90,58.82 L89.83,55.40 L91.07,51.68 L91.59,47.79 Z" fill="#4b98ea" stroke="#1e1e1e" stroke-width="1" stroke-linejoin="round"/><ellipse cx="48.54" cy="34.02" rx="7.03" ry="7.03" fill="#ffffff" stroke="#ffffff" stroke-width="1"/><ellipse cx="67.70" cy="41.06" rx="5.64" ry="5.66" fill="#ffffff" stroke="#ffffff" stroke-width="1"/><ellipse cx="55.57" cy="19.28" rx="3.94" ry="3.94" fill="#ffffff" stroke="#ffffff" stroke-width="1"/><path d="M93.02,92.27 L46.62,92.27 L46.10,92.16 L45.65,91.88 L45.00,90.93 L44.79,89.76 L44.88,89.19 L45.11,88.69 L61.11,65.39 L61.36,64.88 L61.44,64.32 L61.44,48.92 L61.17,48.27 L60.51,48.00 L59.65,48.00 L58.74,47.75 L58.06,47.08 L57.82,46.17 L57.82,45.33 L58.06,44.42 L58.74,43.74 L59.65,43.50 L80.00,43.50 L80.92,43.74 L81.59,44.42 L81.83,45.33 L81.83,46.16 L81.59,47.08 L80.92,47.75 L80.00,48.00 L79.14,48.00 L78.49,48.27 L78.22,48.92 L78.22,64.36 L78.30,64.92 L78.55,65.42 L94.55,88.69 L94.78,89.18 L94.87,89.75 L94.65,90.92 L94.00,91.87 L93.55,92.16 L93.02,92.27 Z" fill="#50e6ff" stroke="#1e1e1e" stroke-width="1" stroke-linejoin="round"/><path d="M51.98,86.02 L64.12,68.31 L64.70,67.11 L64.90,65.80 L64.90,58.67 L65.09,57.96 L65.61,57.44 L66.31,57.25 L73.21,57.25 L73.91,57.44 L74.43,57.96 L74.62,58.67 L74.62,66.28 L74.76,67.17 L75.15,67.97 L87.55,86.02 L87.72,86.74 L87.38,87.40 L86.68,87.67 L52.85,87.67 L52.15,87.40 L51.81,86.74 L51.98,86.02 Z" fill="#ffffff" stroke="#1e1e1e" stroke-width="1" stroke-linejoin="round"/><path d="M63.73,80.18 L66.20,85.90 L66.54,86.12 L66.86,85.87 L69.44,78.22 L69.75,77.97 L70.09,78.17 L72.19,82.17 L72.50,82.35 L72.81,82.17 L75.62,77.43 L75.75,77.30 L75.93,77.25 L81.56,77.25 L80.42,75.59 L80.29,75.48 L80.12,75.44 L74.89,75.44 L74.71,75.48 L74.58,75.61 L72.91,78.45 L72.60,78.63 L72.29,78.45 L69.72,73.57 L69.38,73.38 L69.07,73.62 L66.67,80.81 L66.35,81.06 L66.01,80.84 L63.94,76.04 L63.62,75.84 L63.31,76.04 L60.38,81.37 L60.25,81.50 L60.06,81.55 L55.26,81.55 L55.10,81.59 L54.97,81.71 L53.83,83.37 L61.12,83.37 L61.30,83.32 L61.43,83.18 L63.09,80.17 L63.41,79.98 L63.73,80.18 L63.73,80.18 Z" fill="#86d633" stroke="#1e1e1e" stroke-width="1" stroke-linejoin="round"/></svg>