<svg xmlns="http://www.w3.org/2000/svg" viewBox="-0.85 1.85 100.00 94.64"><path d="M93.80,48.94 L93.25,44.80 L91.88,40.85 L89.76,37.25 L86.96,34.15 L83.59,31.67 L79.80,29.91 L75.73,28.95 L75.15,24.45 L73.80,20.11 L71.72,16.08 L68.98,12.46 L65.65,9.37 L61.84,6.90 L57.67,5.13 L53.25,4.10 L48.71,3.85 L43.99,4.18 L39.40,5.33 L35.08,7.28 L31.17,9.94 L27.78,13.26 L25.03,17.11 L23.00,21.39 L18.69,22.30 L14.61,23.96 L10.89,26.31 L7.65,29.29 L4.98,32.79 L2.96,36.70 L1.68,40.91 L1.15,45.28 L1.70,49.64 L3.00,53.83 L5.00,57.73 L7.65,61.22 L10.86,64.21 L14.54,66.59 L18.58,68.30 L22.86,69.28 L27.24,69.51 L29.53,69.41 L71.77,69.41 L72.33,69.36 L72.87,69.24 L76.86,68.83 L80.71,67.68 L84.27,65.81 L87.41,63.30 L90.02,60.24 L91.99,56.74 L93.27,52.93 L93.80,48.94 Z" fill="#4b98ea" stroke="#1e1e1e" stroke-width="1" stroke-linejoin="round"/><ellipse cx="49.71" cy="34.84" rx="7.20" ry="7.20" fill="#ffffff" stroke="#ffffff" stroke-width="1"/><ellipse cx="69.33" cy="42.04" rx="5.77" ry="5.80" fill="#ffffff" stroke="#ffffff" stroke-width="1"/><ellipse cx="56.91" cy="19.74" rx="4.03" ry="4.03" fill="#ffffff" stroke="#ffffff" stroke-width="1"/><path d="M95.26,94.49 L47.75,94.49 L47.21,94.38 L46.75,94.09 L46.09,93.12 L45.87,91.92 L45.96,91.34 L46.20,90.82 L62.59,66.96 L62.84,66.44 L62.92,65.87 L62.92,50.10 L62.64,49.43 L61.97,49.16 L61.09,49.16 L60.15,48.90 L59.46,48.22 L59.21,47.28 L59.21,46.43 L59.46,45.49 L60.15,44.80 L61.09,44.55 L81.93,44.55 L82.87,44.80 L83.55,45.49 L83.81,46.43 L83.81,47.27 L83.56,48.21 L82.87,48.90 L81.93,49.16 L81.05,49.16 L80.38,49.43 L80.11,50.10 L80.11,65.91 L80.19,66.48 L80.44,67.00 L96.83,90.82 L97.06,91.33 L97.15,91.91 L96.93,93.11 L96.27,94.09 L95.80,94.38 L95.26,94.49 Z" fill="#50e6ff" stroke="#1e1e1e" stroke-width="1" stroke-linejoin="round"/><path d="M53.23,88.09 L65.67,69.95 L66.26,68.73 L66.46,67.38 L66.46,60.08 L66.66,59.36 L67.19,58.83 L67.91,58.63 L74.97,58.63 L75.69,58.83 L76.22,59.36 L76.42,60.08 L76.42,67.88 L76.56,68.79 L76.96,69.61 L89.66,88.09 L89.84,88.83 L89.48,89.51 L88.77,89.79 L54.12,89.79 L53.41,89.51 L53.06,88.83 L53.23,88.09 Z" fill="#ffffff" stroke="#1e1e1e" stroke-width="1" stroke-linejoin="round"/><path d="M65.26,82.11 L67.79,87.97 L68.14,88.19 L68.47,87.94 L71.11,80.10 L71.43,79.85 L71.78,80.05 L73.93,84.15 L74.25,84.33 L74.56,84.15 L77.44,79.29 L77.57,79.16 L77.75,79.11 L83.53,79.11 L82.35,77.42 L82.22,77.30 L82.05,77.26 L76.69,77.26 L76.51,77.30 L76.38,77.43 L74.66,80.34 L74.35,80.53 L74.03,80.34 L71.40,75.34 L71.05,75.14 L70.74,75.39 L68.27,82.76 L67.94,83.01 L67.60,82.78 L65.48,77.87 L65.16,77.66 L64.83,77.87 L61.83,83.33 L61.70,83.47 L61.51,83.52 L56.60,83.52 L56.43,83.56 L56.29,83.67 L55.13,85.37 L62.59,85.37 L62.78,85.32 L62.91,85.19 L64.61,82.10 L64.94,81.90 L65.26,82.11 L65.26,82.11 Z" fill="#86d633" stroke="#1e1e1e" stroke-width="1" stroke-linejoin="round"/></svg>