<svg xmlns="http://www.w3.org/2000/svg" viewBox="-2.00 3.67 100.00 88.67"><path d="M53.50,67.94 L53.50,66.19 L55.16,65.66 L59.60,64.23 L60.04,62.86 L58.53,58.87 L58.28,58.42 L57.40,56.84 L58.68,55.56 L61.89,52.35 L63.09,51.15 L64.62,51.87 L68.87,53.89 L70.00,53.43 L71.14,49.98 L71.14,47.30 L79.96,47.30 L80.53,48.88 L82.18,53.43 L83.25,53.88 L83.44,53.78 L83.44,23.44 L0.00,23.44 L0.00,69.97 L0.22,71.06 L0.82,71.95 L1.71,72.54 L2.79,72.76 L53.50,72.76 L53.50,67.94 L53.50,67.94 Z" fill="#32d2f3" stroke="#1e1e1e" stroke-width="1" stroke-linejoin="round"/><path d="M2.81,5.67 L80.66,5.67 L81.75,5.89 L82.64,6.49 L83.24,7.37 L83.46,8.46 L83.46,8.46 L83.46,23.44 L0.01,23.44 L0.01,8.42 L0.24,7.34 L0.84,6.47 L1.72,5.88 L2.80,5.67 L2.81,5.67 Z" fill="#0078d4" stroke="#1e1e1e" stroke-width="1" stroke-linejoin="round"/><path d="M62.65,35.95 L63.95,36.08 L65.17,36.46 L66.27,37.06 L67.23,37.85 L68.02,38.81 L68.62,39.91 L68.99,41.13 L69.13,42.43 L68.99,43.74 L68.62,44.95 L68.02,46.05 L67.23,47.01 L66.27,47.81 L65.17,48.40 L63.95,48.78 L62.65,48.91 L61.34,48.78 L60.12,48.40 L59.02,47.81 L58.06,47.01 L57.27,46.05 L56.67,44.95 L56.30,43.74 L56.17,42.43 L56.17,42.43 L56.30,41.13 L56.67,39.91 L57.27,38.81 L58.06,37.85 L59.02,37.06 L60.12,36.46 L61.34,36.08 L62.65,35.95 Z" fill="#0078d4" stroke="#0078d4" stroke-width="1" stroke-linejoin="round"/><path d="M35.53,42.43 L35.66,43.74 L36.04,44.95 L36.64,46.05 L37.43,47.01 L38.39,47.81 L39.49,48.40 L40.70,48.78 L42.01,48.91 L43.32,48.78 L44.53,48.40 L45.63,47.81 L46.59,47.01 L47.38,46.05 L47.98,44.95 L48.36,43.74 L48.49,42.43 L48.36,41.13 L47.98,39.91 L47.38,38.81 L46.59,37.85 L45.63,37.06 L44.53,36.46 L43.32,36.08 L42.01,35.95 L40.71,36.08 L39.49,36.46 L38.39,37.06 L37.43,37.84 L36.64,38.80 L36.04,39.90 L35.66,41.12 L35.53,42.42 L35.53,42.43 Z" fill="#0078d4" stroke="#0078d4" stroke-width="1" stroke-linejoin="round"/><path d="M14.34,42.43 L14.47,43.74 L14.85,44.95 L15.44,46.05 L16.23,47.01 L17.19,47.81 L18.29,48.40 L19.51,48.78 L20.82,48.91 L22.12,48.78 L23.34,48.40 L24.44,47.81 L25.40,47.01 L26.19,46.05 L26.79,44.95 L27.16,43.74 L27.30,42.43 L27.16,41.13 L26.79,39.91 L26.19,38.81 L25.40,37.85 L24.44,37.06 L23.34,36.46 L22.12,36.08 L20.82,35.95 L20.81,35.95 L19.51,36.08 L18.29,36.46 L17.19,37.06 L16.23,37.85 L15.44,38.81 L14.85,39.91 L14.47,41.12 L14.34,42.43 L14.34,42.43 L14.34,42.43 Z" fill="#0078d4" stroke="#0078d4" stroke-width="1" stroke-linejoin="round"/><path d="M96.00,72.22 L96.00,67.67 L95.40,67.67 L90.45,66.14 L89.32,62.73 L91.79,57.39 L88.58,54.18 L87.98,54.18 L83.37,56.52 L80.29,55.25 L78.29,49.70 L73.55,49.70 L73.55,50.37 L71.94,55.25 L68.80,56.52 L63.60,54.04 L60.39,57.25 L60.73,57.86 L62.58,62.80 L61.51,66.14 L55.90,67.95 L55.90,72.83 L56.57,72.83 L61.44,74.43 L62.58,77.43 L60.10,82.78 L63.45,86.19 L64.11,85.86 L68.66,83.52 L71.80,84.79 L73.81,90.34 L78.35,90.34 L78.35,89.67 L79.96,84.79 L83.10,83.53 L88.38,85.99 L91.59,82.79 L91.25,82.19 L89.31,77.36 L90.58,74.22 L95.99,72.23 L96.00,72.22 Z" fill="#2f8ce2" stroke="#1e1e1e" stroke-width="1" stroke-linejoin="round"/><path d="M76.09,78.91 L75.95,78.91 L74.18,78.72 L72.54,78.19 L71.06,77.37 L69.77,76.29 L68.72,74.99 L67.92,73.50 L67.42,71.85 L67.26,70.09 L67.45,68.32 L67.97,66.68 L68.79,65.20 L69.87,63.91 L71.18,62.85 L72.67,62.06 L74.32,61.56 L76.08,61.40 L77.84,61.59 L79.48,62.11 L80.96,62.93 L82.25,64.01 L83.31,65.31 L84.11,66.81 L84.60,68.45 L84.77,70.22 L84.58,71.96 L84.07,73.59 L83.26,75.06 L82.20,76.34 L80.92,77.40 L79.45,78.21 L77.83,78.72 L76.08,78.91 L76.09,78.91 Z" fill="#ffffff" stroke="#1e1e1e" stroke-width="1" stroke-linejoin="round"/></svg>