<svg xmlns="http://www.w3.org/2000/svg" viewBox="0.67 10.74 94.67 74.52"><path d="M2.67,23.62 L53.59,23.62 L53.59,52.03 L53.36,52.89 L52.73,53.51 L51.88,53.74 L4.38,53.74 L3.52,53.51 L2.90,52.89 L2.67,52.03 L2.67,52.03 L2.67,23.62 Z" fill="#83b9f9" stroke="#1e1e1e" stroke-width="1" stroke-linejoin="round"/><path d="M4.38,12.74 L51.88,12.74 L52.73,12.97 L53.36,13.60 L53.59,14.45 L53.59,14.45 L53.59,23.62 L2.67,23.62 L2.67,14.45 L2.90,13.60 L3.52,12.97 L4.38,12.74 Z" fill="#1f56a3" stroke="#1e1e1e" stroke-width="1" stroke-linejoin="round"/><rect x="9.51" y="16.02" width="37.22" height="4.38" fill="#f2f2f2" stroke="#f2f2f2" stroke-width="1"/><path d="M22.51,38.33 L73.49,38.33 L73.49,66.74 L73.26,67.59 L72.63,68.22 L71.78,68.45 L24.22,68.45 L23.37,68.22 L22.74,67.59 L22.51,66.74 L22.51,66.74 L22.51,38.33 Z" fill="#83b9f9" stroke="#1e1e1e" stroke-width="1" stroke-linejoin="round"/><path d="M24.22,27.50 L71.72,27.50 L72.58,27.73 L73.21,28.35 L73.43,29.21 L73.43,29.21 L73.43,38.33 L22.57,38.33 L22.57,29.21 L22.79,28.37 L23.39,27.75 L24.22,27.50 L24.22,27.50 Z" fill="#1f56a3" stroke="#1e1e1e" stroke-width="1" stroke-linejoin="round"/><rect x="29.37" y="30.77" width="37.22" height="4.38" fill="#f2f2f2" stroke="#f2f2f2" stroke-width="1"/><path d="M42.41,53.14 L93.33,53.14 L93.33,81.55 L93.10,82.40 L92.48,83.03 L91.62,83.26 L44.12,83.26 L43.27,83.03 L42.64,82.40 L42.41,81.55 L42.41,81.55 L42.41,53.14 Z" fill="#32d2f3" stroke="#1e1e1e" stroke-width="1" stroke-linejoin="round"/><path d="M44.12,42.26 L91.62,42.26 L92.48,42.49 L93.10,43.11 L93.33,43.97 L93.33,53.14 L42.41,53.14 L42.41,43.97 L42.64,43.11 L43.27,42.49 L44.12,42.26 L44.12,42.26 Z" fill="#0078d4" stroke="#1e1e1e" stroke-width="1" stroke-linejoin="round"/><ellipse cx="79.33" cy="66.34" rx="4.13" ry="4.13" fill="#0078d4" stroke="#0078d4" stroke-width="1"/><ellipse cx="68.05" cy="66.34" rx="4.13" ry="4.13" fill="#0078d4" stroke="#0078d4" stroke-width="1"/><ellipse cx="56.41" cy="66.34" rx="4.13" ry="4.13" fill="#0078d4" stroke="#0078d4" stroke-width="1"/><rect x="49.26" y="45.53" width="37.22" height="4.38" fill="#f2f2f2" stroke="#f2f2f2" stroke-width="1"/></svg>