<svg xmlns="http://www.w3.org/2000/svg" viewBox="0.67 10.74 94.67 74.52"><path d="M2.67,23.62 L53.59,23.62 L53.59,52.03 L53.36,52.89 L52.73,53.51 L51.88,53.74 L4.38,53.74 L3.52,53.51 L2.90,52.89 L2.67,52.03 L2.67,52.03 L2.67,23.62 Z" fill="#83b9f9" stroke="#1e1e1e" stroke-width="1" stroke-linejoin="round"/><path d="M4.38,12.74 L51.88,12.74 L52.73,12.97 L53.36,13.60 L53.59,14.45 L53.59,14.45 L53.59,23.62 L2.67,23.62 L2.67,14.45 L2.90,13.60 L3.52,12.97 L4.38,12.74 Z" fill="#1f56a3" stroke="#1e1e1e" stroke-width="1" stroke-linejoin="round"/><path d="M45.88,16.02 L46.10,16.05 L46.31,16.13 L46.48,16.27 L46.62,16.45 L46.71,16.65 L46.74,16.87 L46.74,19.54 L46.71,19.76 L46.62,19.97 L46.48,20.15 L46.31,20.28 L46.10,20.37 L45.88,20.40 L10.37,20.40 L10.15,20.37 L9.94,20.28 L9.77,20.15 L9.63,19.97 L9.54,19.76 L9.51,19.54 L9.51,16.87 L9.54,16.65 L9.63,16.45 L9.77,16.27 L9.94,16.13 L10.15,16.05 L10.37,16.02 L45.88,16.02 Z" fill="#f2f2f2" stroke="#f2f2f2" stroke-width="1" stroke-linejoin="round"/><path d="M22.51,38.33 L73.49,38.33 L73.49,66.74 L73.26,67.59 L72.63,68.22 L71.78,68.45 L24.22,68.45 L23.37,68.22 L22.74,67.59 L22.51,66.74 L22.51,66.74 L22.51,38.33 Z" fill="#83b9f9" stroke="#1e1e1e" stroke-width="1" stroke-linejoin="round"/><path d="M24.22,27.50 L71.72,27.50 L72.58,27.73 L73.21,28.35 L73.43,29.21 L73.43,29.21 L73.43,38.33 L22.57,38.33 L22.57,29.21 L22.79,28.37 L23.39,27.75 L24.22,27.50 L24.22,27.50 Z" fill="#1f56a3" stroke="#1e1e1e" stroke-width="1" stroke-linejoin="round"/><path d="M65.73,30.77 L65.95,30.80 L66.16,30.89 L66.34,31.02 L66.47,31.20 L66.56,31.41 L66.59,31.63 L66.59,34.30 L66.56,34.52 L66.47,34.73 L66.34,34.91 L66.16,35.04 L65.95,35.13 L65.73,35.16 L30.22,35.16 L30.00,35.13 L29.79,35.04 L29.62,34.91 L29.48,34.73 L29.39,34.52 L29.37,34.30 L29.37,31.63 L29.39,31.41 L29.48,31.20 L29.62,31.02 L29.79,30.89 L30.00,30.80 L30.22,30.77 L65.73,30.77 Z" fill="#f2f2f2" stroke="#f2f2f2" stroke-width="1" stroke-linejoin="round"/><path d="M42.41,53.14 L93.33,53.14 L93.33,81.55 L93.10,82.40 L92.48,83.03 L91.62,83.26 L44.12,83.26 L43.27,83.03 L42.64,82.40 L42.41,81.55 L42.41,81.55 L42.41,53.14 Z" fill="#32d2f3" stroke="#1e1e1e" stroke-width="1" stroke-linejoin="round"/><path d="M44.12,42.26 L91.62,42.26 L92.48,42.49 L93.10,43.11 L93.33,43.97 L93.33,53.14 L42.41,53.14 L42.41,43.97 L42.64,43.11 L43.27,42.49 L44.12,42.26 L44.12,42.26 Z" fill="#0078d4" stroke="#1e1e1e" stroke-width="1" stroke-linejoin="round"/><ellipse cx="79.33" cy="66.34" rx="4.13" ry="4.13" fill="#0078d4" stroke="#0078d4" stroke-width="1"/><ellipse cx="68.05" cy="66.34" rx="4.13" ry="4.13" fill="#0078d4" stroke="#0078d4" stroke-width="1"/><ellipse cx="56.41" cy="66.34" rx="4.13" ry="4.13" fill="#0078d4" stroke="#0078d4" stroke-width="1"/><path d="M85.62,45.53 L85.84,45.56 L86.05,45.65 L86.23,45.78 L86.36,45.96 L86.45,46.17 L86.48,46.39 L86.48,49.06 L86.45,49.28 L86.36,49.49 L86.23,49.66 L86.05,49.80 L85.84,49.89 L85.62,49.91 L50.12,49.91 L49.90,49.89 L49.69,49.80 L49.51,49.66 L49.37,49.49 L49.29,49.28 L49.26,49.06 L49.26,46.39 L49.29,46.17 L49.37,45.96 L49.51,45.78 L49.69,45.65 L49.90,45.56 L50.12,45.53 L85.62,45.53 Z" fill="#f2f2f2" stroke="#f2f2f2" stroke-width="1" stroke-linejoin="round"/></svg>