<svg xmlns="http://www.w3.org/2000/svg" viewBox="7.87 -2.00 80.26 100.00"><path d="M31.61,77.18 L19.85,77.18 L19.40,77.37 L19.21,77.82 L19.21,95.62 L19.30,95.85 L19.53,95.94 L19.63,95.92 L19.73,95.87 L25.54,91.32 L25.60,91.29 L25.66,91.26 L25.66,91.26 L32.27,86.12 L32.27,77.82 L32.07,77.36 L31.61,77.18 L31.61,77.18 Z" fill="#85d432" stroke="#85d432" stroke-width="1" stroke-linejoin="round"/><path d="M25.64,91.25 L32.25,86.10 L32.25,95.70 L32.15,95.91 L31.93,96.00 L31.83,95.98 L31.73,95.94 L25.64,91.25 Z" fill="#76bc2d" stroke="#76bc2d" stroke-width="1" stroke-linejoin="round"/><path d="M9.98,8.70 L16.49,1.12 L17.57,0.29 L18.91,0.00 L81.35,0.00 L83.04,0.16 L84.54,0.96 L85.62,2.28 L86.12,3.90 L86.12,3.90 L86.13,4.17 L86.12,4.44 L86.12,76.20 L85.84,77.47 L85.05,78.51 L78.06,84.91 L14.23,84.91 L9.87,83.14 L9.98,8.70 Z" fill="#0078d4" stroke="#1e1e1e" stroke-width="1" stroke-linejoin="round"/><path d="M15.25,8.68 L19.23,4.13 L20.07,3.45 L21.11,3.16 L79.69,3.16 L81.08,3.54 L82.10,4.56 L82.48,5.96 L82.48,5.96 L82.48,73.80 L82.25,74.95 L81.57,75.90 L75.33,81.55 L15.25,8.68 Z" fill="#ffffff" stroke="#1e1e1e" stroke-width="1" stroke-linejoin="round"/><path d="M74.90,8.59 L10.34,8.59 L10.11,8.69 L10.02,8.92 L10.02,8.92 L10.02,83.33 L10.32,84.35 L11.08,85.09 L12.12,85.37 L74.90,85.37 L75.91,85.09 L76.66,84.35 L76.93,83.33 L76.93,10.71 L76.66,9.68 L75.92,8.91 L74.90,8.59 L74.90,8.59 Z" fill="#4298e6" stroke="#1e1e1e" stroke-width="1" stroke-linejoin="round"/><path d="M43.50,75.32 L40.98,74.95 L38.68,73.86 L36.80,72.15 L35.49,69.97 L34.87,67.50 L35.00,64.96 L35.86,62.57 L37.37,60.52 L39.42,59.01 L41.81,58.15 L44.36,58.03 L46.82,58.65 L49.00,59.96 L50.71,61.85 L51.80,64.15 L52.17,66.67 L51.74,69.34 L50.50,71.75 L48.59,73.67 L46.17,74.90 L43.50,75.32 L43.50,75.32 Z" fill="#ffffff" stroke="#ffffff" stroke-width="1" stroke-linejoin="round" opacity="0.9"/><path d="M43.50,61.66 L41.59,62.05 L39.98,63.14 L38.90,64.77 L38.53,66.68 L38.92,68.59 L40.00,70.21 L41.63,71.29 L43.54,71.66 L45.45,71.28 L47.07,70.20 L48.15,68.58 L48.53,66.67 L48.15,64.74 L47.06,63.11 L45.42,62.03 L43.50,61.66 L43.50,61.66 Z" fill="#4298e6" stroke="#4298e6" stroke-width="1" stroke-linejoin="round" opacity="0.9"/><path d="M63.70,35.93 L52.83,35.93 L52.47,36.16 L52.56,36.58 L55.66,39.69 L55.79,40.00 L55.66,40.31 L47.25,48.73 L46.25,49.94 L46.25,27.47 L46.36,27.20 L46.63,27.08 L51.17,27.08 L51.52,26.84 L51.44,26.43 L43.73,18.75 L43.47,18.64 L43.20,18.75 L35.53,26.43 L35.45,26.84 L35.80,27.08 L40.30,27.08 L40.56,27.21 L40.68,27.47 L40.68,49.92 L39.70,48.73 L31.29,40.31 L31.15,40.00 L31.29,39.69 L34.38,36.58 L34.49,36.31 L34.38,36.05 L34.26,35.97 L34.12,35.94 L23.25,35.94 L22.98,36.05 L22.87,36.32 L22.87,47.18 L22.98,47.45 L23.25,47.56 L23.40,47.53 L23.52,47.45 L26.77,44.20 L27.09,44.07 L27.40,44.20 L35.81,52.61 L37.42,54.51 L38.72,56.63 L39.69,58.92 L42.16,58.10 L44.77,58.09 L47.26,58.89 L48.83,55.53 L51.13,52.61 L59.55,44.20 L59.86,44.07 L60.18,44.20 L63.43,47.45 L63.55,47.53 L63.69,47.56 L63.96,47.45 L64.08,47.18 L64.08,36.31 L63.97,36.04 L63.70,35.93 Z" fill="#ffffff" stroke="#1e1e1e" stroke-width="1" stroke-linejoin="round" opacity="0.85"/></svg>