<svg xmlns="http://www.w3.org/2000/svg" viewBox="-2.01 -2.01 100.02 99.91"><path d="M0.96,45.71 L45.71,0.96 L46.76,0.24 L48.00,-0.01 L49.24,0.24 L50.29,0.96 L95.04,45.71 L95.76,46.76 L96.01,48.00 L95.76,49.24 L95.04,50.29 L50.24,95.09 L48.82,95.90 L47.18,95.90 L45.76,95.09 L0.96,50.29 L0.24,49.24 L-0.01,48.00 L0.24,46.76 L0.96,45.71 L0.96,45.71 Z" fill="#6aa928" stroke="#1e1e1e" stroke-width="1" stroke-linejoin="round"/><path d="M59.73,21.33 L48.43,10.08 L48.00,9.92 L47.57,10.08 L36.27,21.33 L36.03,21.75 L36.23,22.19 L36.69,22.29 L43.31,22.29 L43.72,22.47 L43.89,22.88 L43.89,33.55 L44.07,33.96 L44.48,34.13 L51.52,34.13 L51.93,33.96 L52.11,33.55 L52.11,22.88 L52.28,22.47 L52.69,22.29 L59.31,22.29 L59.77,22.19 L59.97,21.75 L59.73,21.33 L59.73,21.33 Z" fill="#b4ec36" stroke="#1e1e1e" stroke-width="1" stroke-linejoin="round"/><path d="M21.33,35.25 L10.13,46.61 L9.98,47.01 L10.13,47.41 L21.33,58.67 L21.99,58.81 L22.35,58.24 L22.35,51.68 L22.52,51.27 L22.93,51.09 L33.60,51.09 L34.00,50.92 L34.13,50.51 L34.13,43.47 L34.16,42.97 L33.76,42.67 L23.09,42.67 L22.68,42.53 L22.51,42.13 L22.51,35.68 L22.40,35.07 L21.81,34.85 L21.33,35.25 L21.33,35.25 Z" fill="#b4ec36" stroke="#1e1e1e" stroke-width="1" stroke-linejoin="round"/><path d="M75.09,58.67 L86.45,47.36 L86.61,46.96 L86.45,46.56 L75.09,35.25 L74.48,35.17 L74.13,35.68 L74.13,42.35 L73.96,42.74 L73.55,42.88 L62.88,42.88 L62.48,43.05 L62.35,43.47 L62.35,50.51 L62.48,50.92 L62.88,51.09 L73.55,51.09 L73.96,51.27 L74.13,51.68 L74.13,58.29 L74.50,58.76 L75.09,58.67 Z" fill="#b4ec36" stroke="#1e1e1e" stroke-width="1" stroke-linejoin="round"/><path d="M62.88,48.00 L62.50,44.55 L61.32,41.28 L59.42,38.37 L56.90,35.98 L53.89,34.24 L50.56,33.25 L47.09,33.06 L43.67,33.67 L40.49,35.06 L37.71,37.16 L35.50,39.83 L33.97,42.95 L33.20,46.34 L33.24,49.81 L34.09,53.18 L35.69,56.27 L37.96,58.89 L40.79,60.92 L44.00,62.24 L44.00,67.31 L41.82,68.88 L40.19,71.02 L39.26,73.55 L39.10,76.23 L39.74,78.85 L41.11,81.16 L43.10,82.98 L45.53,84.13 L48.19,84.53 L50.85,84.13 L53.28,82.98 L55.26,81.16 L56.63,78.85 L57.27,76.23 L57.11,73.55 L56.18,71.02 L54.56,68.88 L52.37,67.31 L52.37,61.97 L55.24,60.77 L57.79,58.98 L59.92,56.71 L61.51,54.04 L62.52,51.09 L62.88,48.00 L62.88,48.00 Z" fill="#ffffff" stroke="#1e1e1e" stroke-width="1" stroke-linejoin="round"/><ellipse cx="48.05" cy="47.95" rx="8.64" ry="8.64" fill="#5ea0ef" stroke="#5ea0ef" stroke-width="1"/></svg>