<svg xmlns="http://www.w3.org/2000/svg" viewBox="-2.01 -2.01 100.00 99.89"><path d="M0.96,45.70 L45.70,0.96 L46.75,0.24 L47.99,-0.01 L49.24,0.24 L50.28,0.96 L95.02,45.70 L95.74,46.75 L95.99,47.99 L95.74,49.24 L95.02,50.28 L50.23,95.08 L48.81,95.89 L47.17,95.89 L45.75,95.08 L0.96,50.28 L0.24,49.24 L-0.01,47.99 L0.24,46.75 L0.96,45.70 L0.96,45.70 Z" fill="#6aa928" stroke="#1e1e1e" stroke-width="1" stroke-linejoin="round"/><path d="M59.72,21.33 L48.42,10.08 L47.99,9.92 L47.57,10.08 L36.26,21.33 L36.03,21.75 L36.22,22.18 L36.69,22.29 L43.30,22.29 L43.71,22.46 L43.89,22.88 L43.89,33.54 L44.06,33.96 L44.47,34.13 L51.51,34.13 L51.93,33.96 L52.10,33.54 L52.10,22.88 L52.27,22.46 L52.68,22.29 L59.30,22.29 L59.76,22.18 L59.96,21.75 L59.72,21.33 L59.72,21.33 Z" fill="#b4ec36" stroke="#1e1e1e" stroke-width="1" stroke-linejoin="round"/><path d="M21.33,35.25 L10.13,46.61 L9.97,47.01 L10.13,47.41 L21.33,58.66 L21.98,58.80 L22.34,58.23 L22.34,51.67 L22.51,51.26 L22.93,51.08 L33.59,51.08 L33.99,50.91 L34.13,50.50 L34.13,43.46 L34.15,42.96 L33.75,42.66 L23.09,42.66 L22.68,42.52 L22.50,42.13 L22.50,35.67 L22.39,35.06 L21.81,34.85 L21.33,35.25 L21.33,35.25 Z" fill="#b4ec36" stroke="#1e1e1e" stroke-width="1" stroke-linejoin="round"/><path d="M75.08,58.66 L86.44,47.35 L86.60,46.95 L86.44,46.55 L75.08,35.25 L74.47,35.16 L74.12,35.67 L74.12,42.34 L73.95,42.74 L73.53,42.87 L62.87,42.87 L62.47,43.05 L62.34,43.46 L62.34,50.50 L62.47,50.91 L62.87,51.08 L73.53,51.08 L73.95,51.26 L74.12,51.67 L74.12,58.28 L74.49,58.75 L75.08,58.66 Z" fill="#b4ec36" stroke="#1e1e1e" stroke-width="1" stroke-linejoin="round"/><path d="M62.87,47.99 L62.49,44.54 L61.31,41.27 L59.41,38.36 L56.89,35.97 L53.88,34.24 L50.55,33.24 L47.08,33.05 L43.66,33.67 L40.48,35.06 L37.71,37.15 L35.50,39.83 L33.96,42.94 L33.20,46.33 L33.24,49.81 L34.08,53.18 L35.68,56.26 L37.96,58.88 L40.78,60.91 L43.99,62.23 L43.99,67.30 L41.81,68.87 L40.18,71.01 L39.25,73.53 L39.10,76.22 L39.73,78.83 L41.10,81.15 L43.09,82.96 L45.52,84.12 L48.18,84.51 L50.84,84.12 L53.27,82.96 L55.25,81.15 L56.62,78.83 L57.26,76.22 L57.10,73.53 L56.17,71.01 L54.55,68.87 L52.36,67.30 L52.36,61.96 L55.23,60.76 L57.78,58.97 L59.91,56.70 L61.50,54.03 L62.51,51.08 L62.87,47.99 L62.87,47.99 Z" fill="#ffffff" stroke="#1e1e1e" stroke-width="1" stroke-linejoin="round"/><ellipse cx="48.05" cy="47.94" rx="8.64" ry="8.64" fill="#5ea0ef" stroke="#5ea0ef" stroke-width="1"/></svg>