<svg xmlns="http://www.w3.org/2000/svg" viewBox="0.64 0.68 94.63 94.63"><path d="M45.80,3.57 L46.43,3.09 L47.16,2.79 L47.95,2.68 L48.74,2.79 L49.47,3.09 L50.10,3.57 L92.38,45.85 L92.86,46.48 L93.16,47.21 L93.27,48.00 L93.16,48.79 L92.86,49.52 L92.38,50.15 L50.10,92.43 L49.47,92.91 L48.74,93.21 L47.95,93.32 L47.16,93.21 L46.43,92.91 L45.80,92.43 L3.53,50.15 L3.04,49.52 L2.74,48.79 L2.64,48.00 L2.74,47.21 L3.04,46.48 L3.53,45.85 L45.80,3.57 Z" fill="#4ea99d" stroke="#1e1e1e" stroke-width="1" stroke-linejoin="round"/><path d="M37.60,24.96 L47.63,14.93 L48.00,14.78 L48.37,14.93 L58.67,24.96 L58.81,25.53 L58.29,25.81 L52.16,25.81 L51.78,25.97 L51.63,26.35 L51.63,39.31 L51.49,39.65 L51.15,39.79 L44.91,39.79 L44.53,39.67 L44.37,39.31 L44.37,26.35 L44.24,25.99 L43.89,25.81 L37.97,25.81 L37.54,25.50 L37.60,24.96 Z" fill="#ffffff" stroke="#1e1e1e" stroke-width="1" stroke-linejoin="round"/><path d="M58.67,71.04 L48.37,81.07 L48.00,81.22 L47.63,81.07 L37.60,71.04 L37.54,70.50 L37.97,70.19 L43.89,70.19 L44.24,70.01 L44.37,69.65 L44.37,56.69 L44.53,56.33 L44.91,56.21 L51.15,56.21 L51.49,56.35 L51.63,56.69 L51.63,69.65 L51.78,70.03 L52.16,70.19 L58.03,70.19 L58.56,70.12 L58.88,70.55 L58.67,71.04 L58.67,71.04 Z" fill="#ffffff" stroke="#1e1e1e" stroke-width="1" stroke-linejoin="round"/><path d="M28.48,57.81 L28.48,51.95 L28.31,51.58 L27.95,51.41 L14.99,51.41 L14.63,51.28 L14.45,50.93 L14.45,44.69 L14.62,44.33 L14.99,44.16 L27.95,44.16 L28.31,44.02 L28.48,43.68 L28.48,37.76 L28.54,37.32 L28.94,37.11 L29.33,37.33 L39.36,47.47 L39.51,47.81 L39.36,48.16 L29.33,58.19 L28.76,58.33 L28.48,57.81 Z" fill="#ffffff" stroke="#1e1e1e" stroke-width="1" stroke-linejoin="round"/><path d="M67.52,37.76 L67.52,43.68 L67.69,44.02 L68.05,44.16 L81.01,44.16 L81.38,44.33 L81.55,44.69 L81.55,50.93 L81.37,51.28 L81.01,51.41 L68.05,51.41 L67.69,51.58 L67.52,51.95 L67.52,57.81 L67.24,58.33 L66.67,58.19 L56.64,48.00 L56.49,47.65 L56.64,47.31 L66.67,37.33 L67.06,37.11 L67.46,37.32 L67.52,37.76 Z" fill="#ffffff" stroke="#1e1e1e" stroke-width="1" stroke-linejoin="round"/></svg>