<svg xmlns="http://www.w3.org/2000/svg" viewBox="0.79 0.84 100.00 100.00"><path d="M48.51,3.79 L49.18,3.27 L49.96,2.95 L50.79,2.84 L51.63,2.95 L52.40,3.27 L53.07,3.79 L97.85,48.57 L98.36,49.23 L98.68,50.01 L98.79,50.84 L98.68,51.68 L98.36,52.45 L97.85,53.12 L53.07,97.90 L52.40,98.41 L51.63,98.73 L50.79,98.84 L49.96,98.73 L49.18,98.41 L48.51,97.90 L3.73,53.12 L3.22,52.45 L2.90,51.68 L2.79,50.84 L2.90,50.01 L3.22,49.23 L3.73,48.57 L48.51,3.79 Z" fill="#4ea99d" stroke="#1e1e1e" stroke-width="1" stroke-linejoin="round"/><path d="M39.83,26.44 L50.45,15.82 L50.84,15.66 L51.24,15.82 L62.14,26.44 L62.30,27.04 L61.75,27.34 L55.25,27.34 L54.85,27.51 L54.68,27.91 L54.68,41.64 L54.54,41.99 L54.18,42.14 L47.57,42.14 L47.17,42.02 L47.00,41.64 L47.00,27.91 L46.86,27.53 L46.49,27.34 L40.22,27.34 L39.76,27.01 L39.83,26.44 Z" fill="#ffffff" stroke="#1e1e1e" stroke-width="1" stroke-linejoin="round"/><path d="M62.14,75.25 L51.24,85.87 L50.84,86.03 L50.45,85.87 L39.83,75.25 L39.76,74.68 L40.22,74.34 L46.49,74.34 L46.86,74.16 L47.00,73.78 L47.00,60.05 L47.17,59.67 L47.57,59.54 L54.18,59.54 L54.54,59.69 L54.68,60.05 L54.68,73.78 L54.85,74.18 L55.25,74.34 L61.46,74.34 L62.02,74.28 L62.36,74.73 L62.14,75.25 L62.14,75.25 Z" fill="#ffffff" stroke="#1e1e1e" stroke-width="1" stroke-linejoin="round"/><path d="M30.17,61.24 L30.17,55.02 L29.99,54.64 L29.60,54.46 L15.87,54.46 L15.49,54.31 L15.31,53.95 L15.31,47.34 L15.49,46.96 L15.87,46.78 L29.60,46.78 L29.98,46.63 L30.17,46.27 L30.17,40.00 L30.23,39.53 L30.66,39.31 L31.07,39.54 L41.69,50.28 L41.85,50.65 L41.69,51.01 L31.07,61.63 L30.46,61.79 L30.17,61.24 Z" fill="#ffffff" stroke="#1e1e1e" stroke-width="1" stroke-linejoin="round"/><path d="M71.52,40.00 L71.52,46.27 L71.70,46.63 L72.08,46.78 L85.81,46.78 L86.20,46.96 L86.38,47.34 L86.38,53.95 L86.19,54.31 L85.81,54.46 L72.08,54.46 L71.70,54.64 L71.52,55.02 L71.52,61.24 L71.22,61.79 L70.62,61.63 L60.00,50.84 L59.84,50.48 L60.00,50.11 L70.62,39.54 L71.03,39.31 L71.46,39.53 L71.52,40.00 Z" fill="#ffffff" stroke="#1e1e1e" stroke-width="1" stroke-linejoin="round"/></svg>