<svg xmlns="http://www.w3.org/2000/svg" viewBox="-2.00 11.98 100.00 72.04"><path d="M74.36,81.73 L78.50,81.31 L82.48,80.10 L86.16,78.16 L89.40,75.56 L92.09,72.39 L94.14,68.77 L95.45,64.83 L96.00,60.70 L95.55,56.94 L94.45,53.31 L92.73,49.94 L90.44,46.91 L87.66,44.33 L84.47,42.28 L80.97,40.82 L77.27,40.00 L76.67,35.34 L75.26,30.85 L73.11,26.67 L70.27,22.92 L66.82,19.72 L62.88,17.16 L58.55,15.32 L53.97,14.25 L49.28,13.98 L44.99,14.23 L40.79,15.14 L36.78,16.68 L33.05,18.82 L29.70,21.51 L26.80,24.68 L24.42,28.25 L22.61,32.15 L18.16,33.11 L13.93,34.83 L10.08,37.27 L6.72,40.35 L3.96,43.97 L1.88,48.03 L0.54,52.39 L-0.00,56.91 L0.57,61.42 L1.92,65.76 L3.99,69.81 L6.74,73.43 L10.07,76.52 L13.88,78.99 L18.07,80.76 L22.50,81.78 L27.04,82.01 L74.36,81.73 Z" fill="#0073ca" stroke="#1e1e1e" stroke-width="1" stroke-linejoin="round"/><path d="M50.52,82.03 L50.52,56.56 L50.52,56.56 L50.01,52.22 L48.75,48.03 L46.79,44.12 L44.19,40.61 L41.02,37.60 L37.38,35.17 L33.38,33.41 L29.13,32.37 L24.77,32.07 L20.44,32.56 L16.25,33.79 L12.34,35.71 L8.81,38.28 L5.76,41.40 L3.30,45.00 L1.49,48.97 L0.38,53.19 L0.00,57.54 L0.61,61.78 L1.90,65.87 L3.85,69.69 L6.40,73.14 L9.48,76.12 L13.00,78.56 L16.88,80.39 L21.01,81.55 L25.27,82.03 L50.52,82.03 Z" fill="#41d2ee" stroke="#1e1e1e" stroke-width="1" stroke-linejoin="round"/><path d="M23.43,42.61 L26.44,38.04 L30.10,33.98 L34.33,30.51 L39.03,27.72 L44.10,25.67 L49.42,24.41 L54.87,23.96 L60.33,24.34 L65.66,25.54 L65.90,25.80 L65.82,26.14 L57.82,34.95 L57.65,35.05 L57.45,35.04 L52.53,33.71 L47.82,33.00 L45.54,32.90 L43.31,32.95 L41.14,33.18 L39.02,33.57 L36.95,34.13 L34.94,34.87 L32.98,35.78 L31.09,36.87 L29.25,38.14 L27.46,39.59 L25.74,41.22 L24.07,43.04 L23.73,43.20 L23.41,42.99 L23.43,42.61 L23.43,42.61 Z" fill="#86d633" stroke="#1e1e1e" stroke-width="1" stroke-linejoin="round"/><path d="M49.99,44.20 L55.47,38.17 L55.53,37.91 L55.36,37.71 L51.25,36.27 L46.96,35.56 L42.61,35.61 L38.33,36.41 L34.25,37.93 L30.50,40.15 L27.20,42.97 L24.43,46.33 L24.48,46.73 L24.88,46.74 L27.65,44.62 L30.53,43.09 L33.51,42.11 L36.58,41.66 L39.74,41.68 L42.97,42.15 L46.29,43.02 L49.67,44.26 L49.84,44.28 L49.99,44.20 Z" fill="#86d633" stroke="#1e1e1e" stroke-width="1" stroke-linejoin="round"/><path d="M44.66,50.64 L47.93,47.07 L48.02,46.72 L47.80,46.44 L44.39,45.04 L40.77,44.33 L37.08,44.33 L33.46,45.05 L30.04,46.45 L26.96,48.48 L24.34,51.07 L24.20,51.46 L24.47,51.77 L24.87,51.70 L27.79,50.04 L30.98,48.95 L34.31,48.47 L37.67,48.62 L40.94,49.39 L44.02,50.76 L44.36,50.81 L44.66,50.64 Z" fill="#86d633" stroke="#86d633" stroke-width="1" stroke-linejoin="round"/><path d="M67.83,25.29 L67.28,24.27 L66.29,23.64 L62.64,22.63 L58.91,22.03 L55.13,21.83 L50.07,22.22 L45.10,23.27 L40.31,24.96 L35.78,27.25 L31.59,30.12 L27.81,33.50 L24.50,37.35 L21.72,41.60 L21.37,42.79 L21.69,43.99 L22.21,44.62 L22.92,45.03 L22.84,45.13 L22.38,46.30 L22.61,47.54 L23.19,48.28 L24.02,48.73 L23.57,49.17 L22.96,50.42 L23.14,51.80 L24.05,52.84 L25.38,53.22 L26.70,52.79 L29.18,51.41 L31.91,50.62 L34.75,50.48 L37.64,50.76 L40.46,51.47 L43.15,52.58 L44.20,52.83 L45.26,52.62 L46.14,52.00 L46.25,51.87 L49.40,48.42 L49.93,47.47 L49.98,46.38 L49.95,46.27 L50.78,46.05 L51.47,45.55 L53.19,43.66 L56.97,39.52 L57.54,38.33 L57.34,37.02 L57.55,37.06 L58.50,36.86 L59.29,36.29 L62.69,32.55 L67.30,27.49 L67.85,26.46 L67.83,25.29 Z" fill="#ffffff" stroke="#ffffff" stroke-width="1" stroke-linejoin="round"/><path d="M47.93,47.07 L44.66,50.64 L44.48,50.77 L44.26,50.82 L44.12,50.80 L44.00,50.76 L41.04,49.54 L37.93,48.77 L34.75,48.47 L31.25,48.85 L27.90,49.94 L24.85,51.70 L24.74,51.75 L24.62,51.78 L24.25,51.52 L24.34,51.07 L26.71,48.75 L29.43,46.86 L32.43,45.45 L35.63,44.56 L38.93,44.22 L42.00,44.49 L44.99,45.23 L47.82,46.44 L48.02,46.73 L47.93,47.07 Z" fill="#86d633" stroke="#86d633" stroke-width="1" stroke-linejoin="round"/><path d="M55.47,38.17 L49.99,44.20 L49.90,44.27 L49.79,44.29 L49.73,44.28 L49.67,44.27 L45.90,42.87 L41.98,41.98 L37.97,41.60 L34.39,41.92 L30.94,42.91 L27.73,44.53 L24.89,46.73 L24.79,46.79 L24.68,46.81 L24.41,46.64 L24.43,46.32 L26.99,43.23 L30.01,40.58 L33.40,38.43 L37.08,36.84 L40.97,35.84 L44.97,35.46 L48.53,35.73 L52.02,36.48 L55.38,37.70 L55.55,37.91 L55.47,38.17 Z" fill="#86d633" stroke="#86d633" stroke-width="1" stroke-linejoin="round"/><path d="M65.82,26.13 L57.82,34.94 L57.70,35.03 L57.56,35.06 L57.50,35.06 L57.45,35.06 L53.44,33.91 L49.34,33.20 L45.18,32.92 L41.15,33.21 L37.21,34.09 L33.45,35.56 L29.95,37.57 L26.80,40.09 L24.06,43.06 L23.54,43.12 L23.43,42.61 L26.50,38.05 L30.21,33.98 L34.48,30.51 L39.21,27.71 L44.31,25.63 L49.65,24.33 L55.13,23.83 L58.70,24.02 L62.22,24.59 L65.66,25.54 L65.90,25.80 L65.82,26.13 L65.82,26.13 Z" fill="#86d633" stroke="#86d633" stroke-width="1" stroke-linejoin="round"/><path d="M11.20,70.61 L11.20,67.23 L13.12,68.07 L15.21,68.35 L16.52,68.20 L17.71,67.61 L18.40,66.70 L18.61,65.58 L18.55,64.96 L18.37,64.42 L18.07,63.96 L17.65,63.58 L17.10,63.29 L16.44,63.08 L14.76,62.92 L13.12,62.98 L11.48,63.13 L12.18,53.10 L21.87,53.10 L21.87,56.34 L15.26,56.34 L15.01,59.94 L16.71,59.86 L18.29,59.96 L19.80,60.46 L21.14,61.31 L22.04,62.44 L22.59,63.78 L22.74,65.22 L22.55,66.87 L21.89,68.39 L20.83,69.66 L19.27,70.67 L17.51,71.25 L15.66,71.39 L13.39,71.22 L11.20,70.61 L11.20,70.61 Z" fill="#ffffff" stroke="#ffffff" stroke-width="1" stroke-linejoin="round"/><path d="M39.96,69.87 L37.83,70.75 L35.59,71.26 L33.29,71.38 L30.78,71.20 L28.40,70.38 L26.31,68.98 L24.85,67.06 L23.97,64.81 L23.75,62.40 L24.01,59.85 L24.97,57.48 L26.54,55.47 L28.75,53.93 L31.28,53.02 L33.96,52.80 L36.57,52.97 L39.10,53.59 L39.10,57.39 L36.59,56.44 L33.91,56.18 L32.38,56.33 L30.95,56.89 L29.72,57.82 L28.80,59.11 L28.25,60.60 L28.12,62.18 L28.23,63.71 L28.73,65.17 L29.58,66.45 L30.73,67.32 L32.07,67.83 L33.50,67.96 L34.70,67.88 L35.85,67.55 L35.85,64.04 L32.16,64.04 L32.16,60.81 L39.96,60.81 L39.96,69.87 Z" fill="#ffffff" stroke="#1e1e1e" stroke-width="1" stroke-linejoin="round"/></svg>