<svg xmlns="http://www.w3.org/2000/svg" viewBox="-2.63 -2.62 101.25 101.25"><path d="M-0.63,48.00 L48.00,-0.62 L96.62,48.00 L48.00,96.62 L-0.63,48.00 Z" fill="#37c0e1" stroke="#1e1e1e" stroke-width="1" stroke-linejoin="round"/><path d="M75.16,53.69 L73.25,51.78 L73.25,44.43 L58.01,44.43 L58.01,52.53 L64.84,52.53 L47.68,69.70 L30.51,52.53 L37.46,52.53 L37.46,44.43 L20.72,44.43 L20.72,52.53 L21.35,52.53 L20.20,53.69 L44.19,77.68 L47.68,74.20 L51.16,77.68 L75.16,53.69 Z" fill="#9cebff" stroke="#1e1e1e" stroke-width="1" stroke-linejoin="round"/><path d="M27.14,42.52 L27.70,43.13 L28.20,43.80 L28.63,44.51 L28.98,45.26 L29.26,46.04 L29.47,46.84 L29.59,47.66 L29.64,48.48 L29.60,49.31 L29.48,50.13 L29.29,50.93 L29.01,51.71 L28.66,52.46 L28.24,53.17 L27.75,53.83 L27.20,54.44 L26.59,55.00 L25.92,55.49 L25.22,55.92 L24.47,56.27 L23.69,56.55 L22.89,56.75 L22.07,56.87 L21.25,56.91 L20.42,56.87 L19.60,56.75 L18.80,56.55 L18.02,56.27 L17.27,55.91 L16.56,55.49 L15.89,55.00 L15.27,54.44 L14.71,53.83 L14.22,53.16 L13.79,52.45 L13.43,51.70 L13.15,50.92 L12.94,50.12 L12.82,49.30 L12.78,48.48 L12.81,47.65 L12.93,46.83 L13.13,46.03 L13.40,45.25 L13.75,44.50 L14.17,43.79 L14.66,43.13 L15.22,42.51 L15.83,41.96 L16.49,41.47 L17.20,41.04 L17.94,40.69 L18.72,40.41 L19.52,40.21 L20.34,40.09 L21.17,40.05 L21.99,40.09 L22.81,40.21 L23.62,40.41 L24.40,40.69 L25.15,41.04 L25.86,41.47 L26.53,41.96 L27.14,42.52 Z" fill="#ffffff" stroke="#ffffff" stroke-width="1" stroke-linejoin="round"/><path d="M24.58,45.10 L24.90,45.45 L25.19,45.83 L25.43,46.23 L25.63,46.66 L25.80,47.10 L25.91,47.56 L25.99,48.03 L26.01,48.50 L25.99,48.97 L25.92,49.43 L25.81,49.89 L25.66,50.33 L25.46,50.76 L25.22,51.16 L24.94,51.54 L24.63,51.89 L24.28,52.20 L23.90,52.48 L23.50,52.72 L23.07,52.92 L22.63,53.08 L22.17,53.19 L21.71,53.26 L21.24,53.28 L20.77,53.26 L20.30,53.18 L19.84,53.07 L19.40,52.91 L18.97,52.70 L18.56,52.46 L18.18,52.18 L17.83,51.86 L17.51,51.51 L17.23,51.13 L16.99,50.73 L16.78,50.30 L16.62,49.85 L16.50,49.40 L16.43,48.93 L16.41,48.46 L16.43,47.99 L16.49,47.52 L16.60,47.07 L16.76,46.62 L16.96,46.20 L17.20,45.79 L17.48,45.42 L17.79,45.07 L18.14,44.75 L18.52,44.47 L18.92,44.23 L19.34,44.03 L19.79,43.88 L20.24,43.76 L20.71,43.70 L21.18,43.68 L21.65,43.70 L22.12,43.77 L22.57,43.89 L23.02,44.05 L23.45,44.25 L23.85,44.50 L24.23,44.78 L24.58,45.10 Z" fill="#86d633" stroke="#86d633" stroke-width="1" stroke-linejoin="round"/><path d="M80.67,42.52 L81.23,43.14 L81.73,43.80 L82.16,44.51 L82.51,45.26 L82.80,46.04 L83.00,46.84 L83.13,47.66 L83.17,48.49 L83.13,49.31 L83.02,50.13 L82.82,50.93 L82.54,51.71 L82.19,52.46 L81.77,53.17 L81.28,53.84 L80.73,54.45 L80.12,55.00 L79.46,55.50 L78.75,55.92 L78.00,56.28 L77.22,56.55 L76.42,56.75 L75.60,56.88 L74.78,56.92 L73.95,56.87 L73.13,56.75 L72.33,56.55 L71.55,56.27 L70.80,55.92 L70.09,55.49 L69.42,55.00 L68.80,54.44 L68.25,53.83 L67.75,53.17 L67.32,52.46 L66.96,51.71 L66.68,50.93 L66.48,50.13 L66.35,49.31 L66.31,48.48 L66.34,47.65 L66.46,46.84 L66.66,46.03 L66.93,45.25 L67.28,44.51 L67.71,43.80 L68.20,43.13 L68.75,42.52 L69.36,41.96 L70.02,41.47 L70.73,41.05 L71.48,40.69 L72.25,40.41 L73.06,40.21 L73.87,40.09 L74.70,40.05 L75.53,40.09 L76.35,40.21 L77.15,40.42 L77.93,40.70 L78.68,41.05 L79.39,41.47 L80.06,41.97 L80.67,42.52 Z" fill="#ffffff" stroke="#ffffff" stroke-width="1" stroke-linejoin="round"/><path d="M78.12,45.10 L78.44,45.45 L78.72,45.83 L78.96,46.24 L79.17,46.66 L79.33,47.11 L79.45,47.57 L79.52,48.03 L79.55,48.50 L79.53,48.97 L79.46,49.44 L79.35,49.90 L79.19,50.34 L78.99,50.76 L78.75,51.17 L78.47,51.55 L78.16,51.89 L77.81,52.21 L77.44,52.49 L77.03,52.73 L76.61,52.93 L76.16,53.09 L75.71,53.20 L75.24,53.27 L74.77,53.29 L74.30,53.26 L73.83,53.19 L73.38,53.07 L72.93,52.91 L72.50,52.71 L72.10,52.47 L71.72,52.18 L71.37,51.87 L71.05,51.52 L70.77,51.14 L70.52,50.73 L70.32,50.30 L70.16,49.86 L70.04,49.40 L69.97,48.94 L69.94,48.47 L69.96,47.99 L70.03,47.53 L70.14,47.07 L70.29,46.63 L70.49,46.20 L70.73,45.80 L71.01,45.42 L71.33,45.08 L71.67,44.76 L72.05,44.48 L72.45,44.24 L72.88,44.04 L73.32,43.88 L73.78,43.77 L74.24,43.70 L74.71,43.68 L75.18,43.71 L75.65,43.78 L76.11,43.89 L76.55,44.05 L76.98,44.26 L77.39,44.50 L77.77,44.78 L78.12,45.10 Z" fill="#86d633" stroke="#86d633" stroke-width="1" stroke-linejoin="round"/><path d="M58.88,25.63 L48.21,14.97 L47.65,14.73 L47.08,14.97 L36.41,25.63 L36.17,26.20 L36.41,26.77 L36.98,27.00 L43.03,27.00 L43.43,27.17 L43.60,27.57 L43.60,82.31 L51.73,82.31 L51.73,27.57 L51.89,27.18 L52.27,27.00 L58.30,27.00 L58.88,26.78 L59.12,26.20 L58.88,25.63 Z" fill="#ffffff" stroke="#1e1e1e" stroke-width="1" stroke-linejoin="round"/><path d="M53.59,69.45 L54.15,70.06 L54.65,70.73 L55.07,71.44 L55.43,72.19 L55.71,72.97 L55.92,73.77 L56.04,74.59 L56.09,75.41 L56.05,76.24 L55.93,77.06 L55.74,77.86 L55.46,78.64 L55.11,79.39 L54.69,80.10 L54.20,80.76 L53.65,81.37 L53.04,81.93 L52.37,82.42 L51.67,82.85 L50.92,83.20 L50.14,83.48 L49.34,83.68 L48.52,83.80 L47.70,83.84 L46.87,83.80 L46.05,83.68 L45.25,83.48 L44.47,83.20 L43.72,82.84 L43.00,82.42 L42.34,81.93 L41.72,81.37 L41.16,80.76 L40.67,80.09 L40.24,79.38 L39.88,78.63 L39.60,77.85 L39.39,77.05 L39.27,76.23 L39.22,75.41 L39.26,74.58 L39.38,73.76 L39.58,72.96 L39.85,72.18 L40.20,71.43 L40.62,70.72 L41.11,70.06 L41.67,69.44 L42.28,68.89 L42.94,68.40 L43.65,67.97 L44.39,67.62 L45.17,67.34 L45.97,67.14 L46.79,67.02 L47.62,66.98 L48.44,67.02 L49.26,67.14 L50.07,67.34 L50.85,67.62 L51.60,67.98 L52.31,68.40 L52.98,68.89 L53.59,69.45 Z" fill="#ffffff" stroke="#ffffff" stroke-width="1" stroke-linejoin="round"/><path d="M51.03,72.03 L51.35,72.38 L51.63,72.76 L51.88,73.16 L52.08,73.59 L52.24,74.03 L52.36,74.49 L52.43,74.96 L52.46,75.43 L52.44,75.90 L52.37,76.37 L52.26,76.82 L52.11,77.27 L51.91,77.69 L51.67,78.09 L51.39,78.47 L51.07,78.82 L50.73,79.13 L50.35,79.41 L49.95,79.65 L49.52,79.85 L49.08,80.01 L48.62,80.12 L48.16,80.19 L47.69,80.21 L47.22,80.19 L46.75,80.12 L46.29,80.00 L45.85,79.84 L45.42,79.64 L45.01,79.39 L44.63,79.11 L44.28,78.79 L43.96,78.44 L43.68,78.06 L43.44,77.66 L43.23,77.23 L43.07,76.79 L42.95,76.33 L42.88,75.86 L42.85,75.39 L42.87,74.92 L42.94,74.45 L43.05,74.00 L43.21,73.55 L43.41,73.13 L43.65,72.73 L43.93,72.35 L44.24,72.00 L44.59,71.69 L44.96,71.41 L45.37,71.17 L45.79,70.97 L46.24,70.81 L46.69,70.70 L47.16,70.63 L47.63,70.61 L48.10,70.63 L48.57,70.70 L49.02,70.82 L49.47,70.98 L49.90,71.18 L50.30,71.43 L50.68,71.71 L51.03,72.03 Z" fill="#86d633" stroke="#86d633" stroke-width="1" stroke-linejoin="round"/></svg>