<svg xmlns="http://www.w3.org/2000/svg" viewBox="-1.31 -1.31 100.00 100.00"><path d="M46.43,1.63 L47.09,1.12 L47.86,0.80 L48.69,0.69 L49.52,0.80 L50.29,1.12 L50.95,1.63 L95.75,46.43 L96.26,47.09 L96.58,47.87 L96.69,48.69 L96.58,49.52 L96.26,50.29 L95.75,50.95 L50.95,95.76 L50.29,96.26 L49.52,96.58 L48.69,96.69 L47.86,96.58 L47.09,96.26 L46.43,95.76 L1.63,50.95 L1.12,50.29 L0.80,49.52 L0.69,48.69 L0.80,47.87 L1.12,47.09 L1.63,46.43 L46.43,1.63 Z" fill="#37c0e1" stroke="#1e1e1e" stroke-width="1" stroke-linejoin="round"/><path d="M76.24,54.47 L74.31,52.53 L74.31,45.07 L58.85,45.07 L58.85,53.29 L65.78,53.29 L48.37,70.71 L30.95,53.29 L38.00,53.29 L38.00,45.07 L21.02,45.07 L21.02,53.29 L21.66,53.29 L20.49,54.47 L44.83,78.80 L48.37,75.27 L51.90,78.80 L76.24,54.47 Z" fill="#9cebff" stroke="#1e1e1e" stroke-width="1" stroke-linejoin="round"/><path d="M27.53,43.13 L28.10,43.76 L28.60,44.43 L29.04,45.15 L29.40,45.91 L29.69,46.70 L29.90,47.51 L30.02,48.34 L30.07,49.18 L30.03,50.02 L29.91,50.85 L29.71,51.67 L29.43,52.46 L29.08,53.21 L28.65,53.93 L28.15,54.61 L27.59,55.23 L26.97,55.79 L26.30,56.29 L25.58,56.72 L24.82,57.08 L24.03,57.37 L23.22,57.57 L22.39,57.69 L21.55,57.73 L20.71,57.69 L19.88,57.57 L19.07,57.36 L18.28,57.08 L17.52,56.72 L16.79,56.29 L16.12,55.79 L15.49,55.23 L14.93,54.60 L14.42,53.93 L13.99,53.21 L13.63,52.45 L13.34,51.66 L13.13,50.84 L13.00,50.01 L12.96,49.18 L13.00,48.34 L13.12,47.51 L13.32,46.69 L13.60,45.90 L13.95,45.14 L14.38,44.42 L14.88,43.75 L15.44,43.13 L16.06,42.57 L16.73,42.07 L17.45,41.63 L18.20,41.28 L18.99,40.99 L19.81,40.79 L20.64,40.67 L21.47,40.63 L22.31,40.67 L23.14,40.79 L23.96,41.00 L24.75,41.28 L25.51,41.64 L26.23,42.07 L26.91,42.57 L27.53,43.13 Z" fill="#ffffff" stroke="#ffffff" stroke-width="1" stroke-linejoin="round"/><path d="M24.94,45.75 L25.26,46.10 L25.55,46.49 L25.80,46.90 L26.00,47.33 L26.17,47.78 L26.29,48.25 L26.36,48.72 L26.39,49.20 L26.37,49.67 L26.30,50.15 L26.19,50.61 L26.03,51.06 L25.83,51.49 L25.58,51.90 L25.30,52.28 L24.98,52.64 L24.63,52.96 L24.25,53.24 L23.84,53.48 L23.41,53.69 L22.96,53.85 L22.49,53.96 L22.02,54.03 L21.54,54.05 L21.07,54.02 L20.59,53.95 L20.13,53.83 L19.68,53.67 L19.24,53.47 L18.83,53.22 L18.45,52.93 L18.09,52.61 L17.77,52.25 L17.48,51.87 L17.23,51.46 L17.02,51.02 L16.86,50.57 L16.74,50.11 L16.67,49.64 L16.64,49.16 L16.66,48.68 L16.73,48.21 L16.84,47.75 L17.00,47.30 L17.20,46.86 L17.45,46.46 L17.73,46.07 L18.05,45.72 L18.40,45.40 L18.78,45.12 L19.19,44.87 L19.62,44.67 L20.07,44.51 L20.54,44.40 L21.01,44.33 L21.49,44.31 L21.96,44.33 L22.44,44.40 L22.90,44.52 L23.35,44.68 L23.79,44.89 L24.20,45.14 L24.58,45.42 L24.94,45.75 Z" fill="#86d633" stroke="#86d633" stroke-width="1" stroke-linejoin="round"/><path d="M81.84,43.14 L82.41,43.76 L82.91,44.43 L83.34,45.15 L83.71,45.91 L83.99,46.70 L84.20,47.52 L84.33,48.35 L84.37,49.19 L84.33,50.03 L84.22,50.86 L84.02,51.67 L83.74,52.46 L83.38,53.22 L82.95,53.94 L82.46,54.61 L81.89,55.23 L81.28,55.80 L80.60,56.30 L79.89,56.73 L79.13,57.09 L78.34,57.37 L77.53,57.57 L76.70,57.70 L75.86,57.74 L75.02,57.70 L74.19,57.57 L73.37,57.37 L72.58,57.08 L71.82,56.73 L71.10,56.29 L70.42,55.79 L69.80,55.23 L69.23,54.61 L68.73,53.93 L68.29,53.21 L67.93,52.45 L67.64,51.66 L67.44,50.85 L67.31,50.02 L67.26,49.18 L67.30,48.34 L67.42,47.51 L67.62,46.70 L67.90,45.91 L68.26,45.15 L68.68,44.43 L69.18,43.75 L69.74,43.13 L70.36,42.57 L71.03,42.07 L71.75,41.64 L72.51,41.28 L73.30,41.00 L74.11,40.79 L74.94,40.67 L75.78,40.63 L76.62,40.67 L77.45,40.80 L78.26,41.00 L79.05,41.28 L79.82,41.64 L80.54,42.07 L81.21,42.57 L81.84,43.14 Z" fill="#ffffff" stroke="#ffffff" stroke-width="1" stroke-linejoin="round"/><path d="M79.25,45.75 L79.57,46.11 L79.86,46.49 L80.10,46.90 L80.31,47.34 L80.48,47.79 L80.59,48.25 L80.67,48.73 L80.69,49.20 L80.67,49.68 L80.61,50.15 L80.49,50.62 L80.33,51.07 L80.13,51.50 L79.89,51.91 L79.61,52.29 L79.29,52.64 L78.94,52.96 L78.55,53.25 L78.14,53.49 L77.71,53.69 L77.26,53.85 L76.80,53.97 L76.33,54.03 L75.85,54.06 L75.37,54.03 L74.90,53.96 L74.44,53.84 L73.98,53.68 L73.55,53.47 L73.14,53.22 L72.75,52.94 L72.40,52.62 L72.07,52.26 L71.79,51.88 L71.54,51.46 L71.33,51.03 L71.17,50.58 L71.05,50.12 L70.98,49.64 L70.95,49.17 L70.97,48.69 L71.04,48.21 L71.15,47.75 L71.31,47.30 L71.51,46.87 L71.75,46.46 L72.04,46.08 L72.36,45.73 L72.71,45.41 L73.09,45.12 L73.50,44.88 L73.93,44.68 L74.38,44.52 L74.84,44.40 L75.31,44.33 L75.79,44.31 L76.27,44.34 L76.74,44.41 L77.21,44.53 L77.66,44.69 L78.09,44.90 L78.50,45.14 L78.89,45.43 L79.25,45.75 Z" fill="#86d633" stroke="#86d633" stroke-width="1" stroke-linejoin="round"/><path d="M59.73,26.00 L48.91,15.18 L48.33,14.94 L47.76,15.18 L36.94,26.00 L36.69,26.58 L36.93,27.16 L37.51,27.39 L43.65,27.39 L44.06,27.56 L44.23,27.97 L44.23,83.50 L52.48,83.50 L52.48,27.97 L52.64,27.57 L53.02,27.39 L59.14,27.39 L59.73,27.16 L59.97,26.58 L59.73,26.00 Z" fill="#ffffff" stroke="#1e1e1e" stroke-width="1" stroke-linejoin="round"/><path d="M54.36,70.45 L54.93,71.07 L55.43,71.75 L55.87,72.47 L56.23,73.23 L56.52,74.02 L56.73,74.83 L56.85,75.66 L56.90,76.50 L56.86,77.34 L56.74,78.17 L56.54,78.98 L56.26,79.77 L55.91,80.53 L55.48,81.25 L54.98,81.93 L54.42,82.55 L53.80,83.11 L53.13,83.61 L52.41,84.04 L51.65,84.40 L50.87,84.68 L50.05,84.89 L49.22,85.01 L48.38,85.05 L47.55,85.01 L46.71,84.89 L45.90,84.68 L45.11,84.40 L44.35,84.04 L43.62,83.61 L42.95,83.11 L42.32,82.54 L41.76,81.92 L41.25,81.25 L40.82,80.53 L40.46,79.77 L40.17,78.98 L39.96,78.16 L39.84,77.33 L39.79,76.49 L39.83,75.66 L39.95,74.83 L40.15,74.01 L40.43,73.22 L40.78,72.46 L41.21,71.74 L41.71,71.07 L42.27,70.45 L42.89,69.88 L43.56,69.38 L44.28,68.95 L45.03,68.59 L45.82,68.31 L46.64,68.11 L47.47,67.99 L48.30,67.94 L49.14,67.99 L49.97,68.11 L50.79,68.31 L51.58,68.60 L52.34,68.96 L53.06,69.39 L53.74,69.89 L54.36,70.45 Z" fill="#ffffff" stroke="#ffffff" stroke-width="1" stroke-linejoin="round"/><path d="M51.77,73.07 L52.09,73.42 L52.38,73.81 L52.63,74.22 L52.83,74.65 L53.00,75.10 L53.12,75.57 L53.19,76.04 L53.22,76.52 L53.20,77.00 L53.13,77.47 L53.02,77.93 L52.86,78.38 L52.66,78.81 L52.41,79.22 L52.13,79.60 L51.81,79.96 L51.46,80.28 L51.08,80.56 L50.67,80.80 L50.24,81.01 L49.79,81.17 L49.32,81.28 L48.85,81.35 L48.37,81.37 L47.90,81.35 L47.42,81.27 L46.96,81.16 L46.51,80.99 L46.07,80.79 L45.66,80.54 L45.28,80.25 L44.92,79.93 L44.60,79.57 L44.31,79.19 L44.06,78.78 L43.86,78.35 L43.69,77.89 L43.57,77.43 L43.50,76.96 L43.47,76.48 L43.49,76.00 L43.56,75.53 L43.67,75.07 L43.83,74.62 L44.03,74.19 L44.28,73.78 L44.56,73.39 L44.88,73.04 L45.23,72.72 L45.61,72.44 L46.02,72.19 L46.45,71.99 L46.90,71.83 L47.37,71.72 L47.84,71.65 L48.32,71.63 L48.79,71.65 L49.27,71.72 L49.73,71.84 L50.18,72.01 L50.62,72.21 L51.03,72.46 L51.41,72.74 L51.77,73.07 Z" fill="#86d633" stroke="#86d633" stroke-width="1" stroke-linejoin="round"/></svg>