<svg xmlns="http://www.w3.org/2000/svg" viewBox="2.38 -1.33 92.60 100.00"><path d="M48.67,96.66 L46.71,96.46 L44.82,95.84 L37.19,92.45 L31.52,89.63 L26.15,86.34 L21.08,82.58 L16.34,78.38 L13.64,75.48 L11.26,72.35 L9.21,69.00 L7.51,65.47 L6.16,61.78 L5.18,57.98 L4.58,54.09 L4.38,50.14 L4.38,17.80 L4.46,16.99 L4.69,16.23 L5.56,14.95 L6.84,14.09 L7.59,13.85 L8.40,13.77 L13.50,13.77 L16.20,13.68 L18.87,13.41 L21.52,12.96 L24.12,12.34 L26.68,11.55 L29.19,10.59 L31.63,9.46 L33.99,8.17 L44.93,1.70 L46.10,1.15 L47.37,0.80 L48.63,0.67 L49.76,0.76 L50.97,1.06 L51.99,1.46 L54.80,3.12 L63.36,8.17 L65.72,9.46 L68.16,10.59 L70.67,11.55 L73.23,12.34 L75.83,12.96 L78.48,13.41 L81.15,13.68 L83.85,13.77 L88.95,13.77 L89.76,13.85 L90.51,14.09 L91.79,14.95 L92.66,16.23 L92.89,16.99 L92.97,17.80 L92.97,50.14 L92.77,54.09 L92.17,57.99 L91.19,61.79 L89.84,65.47 L88.14,69.00 L86.09,72.35 L83.71,75.49 L81.01,78.38 L76.27,82.58 L71.20,86.34 L65.83,89.63 L60.16,92.46 L52.52,95.85 L50.64,96.46 L48.67,96.67 L48.67,96.67 L48.67,96.66 Z" fill="#1b8af3" stroke="#1e1e1e" stroke-width="1" stroke-linejoin="round"/><path d="M48.67,96.66 L46.71,96.46 L44.82,95.84 L37.19,92.45 L31.52,89.63 L26.15,86.34 L21.08,82.58 L16.34,78.38 L13.64,75.48 L11.26,72.35 L9.21,69.00 L7.51,65.47 L6.16,61.78 L5.18,57.98 L4.58,54.09 L4.38,50.14 L4.38,17.80 L4.46,16.99 L4.69,16.23 L5.56,14.95 L6.84,14.09 L7.59,13.85 L8.40,13.77 L13.50,13.77 L16.20,13.68 L18.87,13.41 L21.52,12.96 L24.12,12.34 L26.68,11.55 L29.19,10.59 L31.63,9.46 L33.99,8.17 L44.93,1.70 L46.10,1.15 L47.37,0.80 L48.63,0.67 L49.76,0.76 L50.97,1.06 L51.99,1.46 L54.80,3.12 L63.36,8.17 L65.72,9.46 L68.16,10.59 L70.67,11.55 L73.23,12.34 L75.83,12.96 L78.48,13.41 L81.15,13.68 L83.85,13.77 L88.95,13.77 L89.76,13.85 L90.51,14.09 L91.79,14.95 L92.66,16.23 L92.89,16.99 L92.97,17.80 L92.97,50.14 L92.77,54.09 L92.17,57.99 L91.19,61.79 L89.84,65.47 L88.14,69.00 L86.09,72.35 L83.71,75.49 L81.01,78.38 L76.27,82.58 L71.20,86.34 L65.83,89.63 L60.16,92.46 L52.52,95.85 L50.64,96.46 L48.67,96.67 L48.67,96.67 L48.67,96.66 Z" fill="#1073de" stroke="#1e1e1e" stroke-width="1" stroke-linejoin="round"/><path d="M9.91,19.31 L9.91,50.14 L10.09,53.54 L10.60,56.88 L11.44,60.15 L12.60,63.31 L14.07,66.34 L15.83,69.22 L17.88,71.92 L20.19,74.40 L24.57,78.28 L29.25,81.75 L34.21,84.79 L39.45,87.39 L47.07,90.78 L47.86,91.03 L48.68,91.12 L49.49,91.03 L50.29,90.78 L57.91,87.39 L63.15,84.78 L68.11,81.74 L72.79,78.28 L77.16,74.40 L79.48,71.92 L81.52,69.22 L83.28,66.34 L84.75,63.31 L85.91,60.15 L86.75,56.88 L87.27,53.54 L87.44,50.14 L87.44,19.31 L83.86,19.31 L80.79,19.20 L77.75,18.90 L74.74,18.39 L71.77,17.69 L68.86,16.78 L66.01,15.69 L63.24,14.41 L60.55,12.94 L49.62,6.48 L49.61,6.48 L48.69,6.23 L47.76,6.48 L36.82,12.94 L34.13,14.41 L31.35,15.69 L28.51,16.79 L25.59,17.69 L22.63,18.39 L19.62,18.90 L16.58,19.21 L13.52,19.31 L9.91,19.31 L9.91,19.31 Z" fill="#1b8af3" stroke="#1e1e1e" stroke-width="1" stroke-linejoin="round"/><path d="M51.88,60.67 L51.88,39.07 L87.43,39.07 L87.43,32.68 L75.87,32.68 L75.87,18.52 L72.64,17.82 L69.47,16.89 L69.47,32.68 L27.88,32.68 L27.88,16.89 L24.72,17.82 L21.49,18.52 L21.49,32.68 L9.91,32.68 L9.91,39.07 L45.48,39.07 L45.48,60.67 L11.64,60.67 L12.91,63.95 L14.52,67.07 L21.48,67.07 L21.48,75.54 L24.61,78.24 L27.88,80.73 L27.88,67.07 L69.47,67.07 L69.47,80.73 L72.74,78.24 L75.87,75.54 L75.87,67.07 L82.83,67.07 L84.43,63.94 L85.71,60.67 L51.87,60.67 L51.88,60.67 L51.88,60.67 Z" fill="#a1d4ff" stroke="#1e1e1e" stroke-width="1" stroke-linejoin="round"/></svg>