<svg xmlns="http://www.w3.org/2000/svg" viewBox="4.14 4.14 87.71 87.71"><path d="M6.14,78.86 L6.14,17.14 L6.36,14.98 L6.98,12.93 L7.99,11.04 L9.36,9.36 L11.04,7.99 L12.93,6.98 L14.98,6.36 L17.14,6.14 L78.86,6.14 L81.02,6.36 L83.07,6.98 L84.96,7.99 L86.64,9.36 L88.01,11.04 L89.02,12.93 L89.64,14.98 L89.86,17.14 L89.86,78.86 L89.64,81.02 L89.02,83.07 L88.01,84.96 L86.64,86.64 L84.96,88.01 L83.07,89.02 L81.02,89.64 L78.86,89.86 L17.14,89.86 L14.98,89.64 L12.93,89.02 L11.04,88.01 L9.36,86.64 L7.99,84.96 L6.98,83.07 L6.36,81.02 L6.14,78.86 Z" fill="#ff0000" stroke="#1e1e1e" stroke-width="1" stroke-linejoin="round"/><path d="M6.14,78.86 L6.14,17.14 L6.36,14.98 L6.98,12.93 L7.99,11.04 L9.36,9.36 L11.04,7.99 L12.93,6.98 L14.98,6.36 L17.14,6.14 L78.86,6.14 L81.02,6.36 L83.07,6.98 L84.96,7.99 L86.64,9.36 L88.01,11.04 L89.02,12.93 L89.64,14.98 L89.86,17.14 L89.86,78.86 L89.64,81.02 L89.02,83.07 L88.01,84.96 L86.64,86.64 L84.96,88.01 L83.07,89.02 L81.02,89.64 L78.86,89.86 L17.14,89.86 L14.98,89.64 L12.93,89.02 L11.04,88.01 L9.36,86.64 L7.99,84.96 L6.98,83.07 L6.36,81.02 L6.14,78.86 Z" fill="#1b8af3" stroke="#1e1e1e" stroke-width="1" stroke-linejoin="round"/><path d="M47.91,15.43 L51.25,15.60 L54.49,16.10 L57.62,16.90 L60.62,18.00 L63.48,19.37 L66.17,21.01 L68.68,22.89 L71.00,25.00 L73.11,27.32 L74.99,29.83 L76.63,32.52 L78.00,35.38 L79.10,38.38 L79.90,41.51 L80.40,44.75 L80.57,48.09 L80.40,51.43 L79.90,54.67 L79.10,57.80 L78.00,60.81 L76.63,63.66 L74.99,66.35 L73.11,68.87 L71.00,71.19 L68.68,73.29 L66.17,75.17 L63.48,76.81 L60.62,78.19 L57.62,79.28 L54.49,80.09 L51.25,80.58 L47.91,80.75 L44.57,80.58 L41.33,80.09 L38.20,79.28 L35.20,78.19 L32.34,76.81 L29.65,75.17 L27.13,73.29 L24.81,71.19 L22.71,68.87 L20.83,66.35 L19.19,63.66 L17.81,60.81 L16.72,57.80 L15.91,54.67 L15.42,51.43 L15.25,48.09 L15.42,44.75 L15.91,41.51 L16.72,38.38 L17.81,35.38 L19.19,32.52 L20.83,29.83 L22.71,27.32 L24.81,25.00 L27.13,22.89 L29.65,21.01 L32.34,19.37 L35.20,18.00 L38.20,16.90 L41.33,16.10 L44.57,15.60 L47.91,15.43 Z" fill="#d8f7ff" stroke="#d8f7ff" stroke-width="1" stroke-linejoin="round" opacity="0.75"/><path d="M47.91,75.31 L49.14,75.03 L50.75,74.03 L51.65,73.17 L52.61,72.03 L53.59,70.56 L54.59,68.75 L56.13,65.07 L57.38,60.79 L38.44,60.79 L39.68,65.07 L41.23,68.75 L42.23,70.56 L43.21,72.03 L44.16,73.17 L45.07,74.03 L46.68,75.03 L47.91,75.31 Z" fill="#1b8af3" stroke="#1b8af3" stroke-width="1" stroke-linejoin="round" opacity="0.75"/><path d="M37.46,55.35 L37.14,51.81 L37.02,48.09 L37.14,44.38 L37.46,40.83 L58.35,40.83 L58.68,44.38 L58.80,48.09 L58.68,51.81 L58.35,55.35 L37.46,55.35 Z" fill="#1b8af3" stroke="#1b8af3" stroke-width="1" stroke-linejoin="round" opacity="0.75"/><path d="M62.96,60.79 L62.08,64.32 L61.01,67.60 L59.75,70.58 L58.33,73.24 L60.48,72.24 L62.52,71.06 L64.45,69.71 L66.25,68.20 L67.92,66.54 L69.43,64.75 L70.79,62.83 L71.99,60.79 L62.96,60.79 Z" fill="#1b8af3" stroke="#1b8af3" stroke-width="1" stroke-linejoin="round" opacity="0.75"/><path d="M74.15,55.35 L63.83,55.35 L64.14,51.78 L64.24,48.09 L64.14,44.40 L63.83,40.83 L74.15,40.83 L74.87,44.39 L75.12,48.09 L74.87,51.80 L74.15,55.35 Z" fill="#1b8af3" stroke="#1b8af3" stroke-width="1" stroke-linejoin="round" opacity="0.75"/><path d="M31.98,55.35 L21.67,55.35 L20.94,51.80 L20.69,48.09 L20.94,44.39 L21.67,40.83 L31.98,40.83 L31.68,44.40 L31.58,48.09 L31.68,51.78 L31.98,55.35 Z" fill="#1b8af3" stroke="#1b8af3" stroke-width="1" stroke-linejoin="round" opacity="0.75"/><path d="M23.83,60.79 L32.86,60.79 L33.73,64.32 L34.81,67.60 L36.07,70.58 L37.49,73.24 L35.34,72.24 L33.29,71.06 L31.37,69.71 L29.56,68.20 L27.90,66.54 L26.38,64.75 L25.02,62.83 L23.83,60.79 Z" fill="#1b8af3" stroke="#1b8af3" stroke-width="1" stroke-linejoin="round" opacity="0.75"/><path d="M38.44,35.39 L57.38,35.39 L56.13,31.11 L54.59,27.43 L53.59,25.62 L52.61,24.16 L51.65,23.01 L50.75,22.15 L49.14,21.15 L47.91,20.88 L46.68,21.15 L45.07,22.15 L44.16,23.01 L43.21,24.16 L42.23,25.62 L41.23,27.43 L39.68,31.11 L38.44,35.39 Z" fill="#1b8af3" stroke="#1b8af3" stroke-width="1" stroke-linejoin="round" opacity="0.75"/><path d="M62.96,35.39 L71.99,35.39 L70.79,33.35 L69.43,31.43 L67.92,29.64 L66.25,27.99 L64.45,26.48 L62.52,25.13 L60.48,23.95 L58.33,22.94 L59.75,25.60 L61.01,28.59 L62.08,31.86 L62.96,35.39 Z" fill="#1b8af3" stroke="#1b8af3" stroke-width="1" stroke-linejoin="round" opacity="0.75"/><path d="M37.49,22.94 L36.07,25.60 L34.81,28.59 L33.73,31.86 L32.86,35.39 L23.83,35.39 L25.02,33.35 L26.38,31.43 L27.90,29.64 L29.56,27.99 L31.37,26.48 L33.29,25.13 L35.34,23.95 L37.49,22.94 Z" fill="#1b8af3" stroke="#1b8af3" stroke-width="1" stroke-linejoin="round" opacity="0.75"/></svg>