<svg xmlns="http://www.w3.org/2000/svg" viewBox="2.31 -1.34 91.37 98.67"><path d="M48.00,95.32 L46.06,95.12 L44.20,94.52 L36.68,91.17 L31.09,88.39 L25.78,85.14 L20.79,81.44 L16.11,77.29 L13.45,74.44 L11.11,71.35 L9.08,68.04 L7.40,64.56 L6.07,60.93 L5.10,57.18 L4.51,53.34 L4.31,49.45 L4.31,17.55 L4.40,16.75 L4.63,16.01 L5.48,14.74 L6.74,13.89 L7.49,13.66 L8.29,13.58 L13.32,13.58 L15.97,13.49 L18.61,13.22 L21.22,12.78 L23.79,12.17 L26.31,11.39 L28.78,10.44 L31.19,9.33 L33.52,8.05 L44.30,1.68 L45.46,1.14 L46.72,0.79 L47.96,0.66 L49.07,0.75 L50.27,1.05 L51.27,1.44 L54.04,3.07 L62.48,8.05 L64.81,9.33 L67.22,10.44 L69.69,11.39 L72.21,12.17 L74.78,12.78 L77.39,13.22 L80.03,13.49 L82.69,13.58 L87.72,13.58 L88.52,13.66 L89.26,13.89 L90.52,14.74 L91.37,16.01 L91.60,16.75 L91.69,17.55 L91.69,49.45 L91.49,53.35 L90.90,57.18 L89.93,60.93 L88.60,64.57 L86.92,68.05 L84.89,71.35 L82.55,74.44 L79.89,77.30 L75.21,81.44 L70.22,85.14 L64.92,88.39 L59.32,91.18 L51.80,94.52 L49.94,95.13 L48.00,95.33 L48.00,95.33 L48.00,95.32 Z" fill="#1b8af3" stroke="#1e1e1e" stroke-width="1" stroke-linejoin="round"/><path d="M48.00,95.32 L46.06,95.12 L44.20,94.52 L36.68,91.17 L31.09,88.39 L25.78,85.14 L20.79,81.44 L16.11,77.29 L13.45,74.44 L11.11,71.35 L9.08,68.04 L7.40,64.56 L6.07,60.93 L5.10,57.18 L4.51,53.34 L4.31,49.45 L4.31,17.55 L4.40,16.75 L4.63,16.01 L5.48,14.74 L6.74,13.89 L7.49,13.66 L8.29,13.58 L13.32,13.58 L15.97,13.49 L18.61,13.22 L21.22,12.78 L23.79,12.17 L26.31,11.39 L28.78,10.44 L31.19,9.33 L33.52,8.05 L44.30,1.68 L45.46,1.14 L46.72,0.79 L47.96,0.66 L49.07,0.75 L50.27,1.05 L51.27,1.44 L54.04,3.07 L62.48,8.05 L64.81,9.33 L67.22,10.44 L69.69,11.39 L72.21,12.17 L74.78,12.78 L77.39,13.22 L80.03,13.49 L82.69,13.58 L87.72,13.58 L88.52,13.66 L89.26,13.89 L90.52,14.74 L91.37,16.01 L91.60,16.75 L91.69,17.55 L91.69,49.45 L91.49,53.35 L90.90,57.18 L89.93,60.93 L88.60,64.57 L86.92,68.05 L84.89,71.35 L82.55,74.44 L79.89,77.30 L75.21,81.44 L70.22,85.14 L64.92,88.39 L59.32,91.18 L51.80,94.52 L49.94,95.13 L48.00,95.33 L48.00,95.33 L48.00,95.32 Z" fill="#1073de" stroke="#1e1e1e" stroke-width="1" stroke-linejoin="round"/><path d="M9.78,19.04 L9.78,49.45 L9.95,52.80 L10.45,56.09 L11.29,59.32 L12.43,62.43 L13.88,65.43 L15.61,68.26 L17.63,70.92 L19.91,73.37 L24.23,77.20 L28.84,80.61 L33.74,83.61 L38.90,86.18 L46.42,89.53 L47.20,89.77 L48.00,89.86 L48.81,89.77 L49.59,89.53 L57.11,86.18 L62.27,83.61 L67.17,80.61 L71.78,77.19 L76.10,73.37 L78.38,70.92 L80.40,68.26 L82.13,65.43 L83.58,62.43 L84.72,59.32 L85.55,56.09 L86.06,52.80 L86.23,49.45 L86.23,19.04 L82.70,19.04 L79.67,18.94 L76.67,18.64 L73.71,18.14 L70.78,17.44 L67.91,16.55 L65.10,15.47 L62.36,14.21 L59.71,12.76 L48.93,6.39 L48.93,6.39 L48.01,6.14 L47.10,6.39 L36.31,12.76 L33.66,14.21 L30.92,15.48 L28.11,16.56 L25.24,17.44 L22.32,18.14 L19.35,18.64 L16.35,18.94 L13.33,19.05 L9.78,19.05 L9.78,19.04 Z" fill="#1b8af3" stroke="#1e1e1e" stroke-width="1" stroke-linejoin="round"/><path d="M51.16,59.83 L51.16,38.53 L86.22,38.53 L86.22,32.22 L74.82,32.22 L74.82,18.26 L71.64,17.57 L68.51,16.66 L68.51,32.22 L27.50,32.22 L27.50,16.66 L24.37,17.57 L21.19,18.26 L21.19,32.22 L9.78,32.22 L9.78,38.53 L44.85,38.53 L44.85,59.83 L11.48,59.83 L12.73,63.06 L14.31,66.14 L21.18,66.14 L21.18,74.50 L24.26,77.16 L27.49,79.62 L27.49,66.14 L68.51,66.14 L68.51,79.62 L71.74,77.16 L74.82,74.50 L74.82,66.14 L81.69,66.14 L83.27,63.06 L84.52,59.83 L51.15,59.83 L51.16,59.83 L51.16,59.83 Z" fill="#a1d4ff" stroke="#1e1e1e" stroke-width="1" stroke-linejoin="round"/></svg>