<svg xmlns="http://www.w3.org/2000/svg" viewBox="0.67 6.00 94.67 84.00"><path d="M84.75,15.52 L91.52,15.52 L92.43,15.76 L93.09,16.43 L93.33,17.33 L93.33,36.00 L93.09,36.91 L92.43,37.57 L91.52,37.81 L84.75,37.81 L84.75,37.81 L84.75,15.52 L84.75,15.52 Z" fill="#ffca00" stroke="#ffca00" stroke-width="1" stroke-linejoin="round"/><path d="M84.75,48.00 L91.52,48.00 L92.43,48.24 L93.09,48.91 L93.33,49.81 L93.33,81.07 L93.09,81.97 L92.43,82.64 L91.52,82.88 L84.75,82.88 L84.75,82.88 L84.75,48.00 L84.75,48.00 Z" fill="#ffca00" stroke="#ffca00" stroke-width="1" stroke-linejoin="round"/><path d="M81.07,8.00 L82.02,8.13 L82.91,8.49 L83.67,9.08 L84.25,9.84 L84.62,10.73 L84.75,11.68 L84.75,84.32 L84.62,85.27 L84.25,86.16 L83.67,86.92 L82.91,87.51 L82.02,87.87 L81.07,88.00 L15.04,88.00 L14.09,87.87 L13.20,87.51 L12.44,86.92 L11.85,86.16 L11.49,85.27 L11.36,84.32 L11.36,11.68 L11.49,10.73 L11.85,9.84 L12.44,9.08 L13.20,8.49 L14.09,8.13 L15.04,8.00 L81.07,8.00 Z" fill="#6fb042" stroke="#1e1e1e" stroke-width="1" stroke-linejoin="round"/><path d="M31.47,68.80 L27.68,68.80 L26.94,68.45 L26.67,67.68 L26.67,23.15 L26.94,22.40 L27.68,22.08 L37.97,22.08 L38.71,22.40 L38.99,23.15 L38.71,23.92 L37.97,24.27 L28.69,24.27 L28.69,66.56 L31.47,66.56 L32.21,66.91 L32.48,67.68 L32.19,68.44 L31.47,68.80 L31.47,68.80 Z" fill="#b4ec36" stroke="#1e1e1e" stroke-width="1" stroke-linejoin="round"/><path d="M32.00,74.24 L23.47,74.24 L22.73,73.89 L22.45,73.12 L21.76,18.03 L21.84,17.59 L22.08,17.23 L22.39,16.98 L22.77,16.91 L37.97,16.91 L37.97,19.09 L23.84,19.09 L24.48,72.00 L32.00,72.00 L32.00,74.24 Z" fill="#b4ec36" stroke="#1e1e1e" stroke-width="1" stroke-linejoin="round"/><path d="M64.00,69.33 L55.52,69.33 L55.11,69.23 L54.77,68.96 L54.53,68.62 L54.45,68.21 L54.45,42.13 L54.73,41.38 L55.47,41.07 L60.32,41.07 L60.32,29.07 L62.35,29.07 L62.35,42.08 L62.09,42.83 L61.39,43.20 L56.53,43.20 L56.53,66.77 L64.00,66.77 L64.00,69.33 Z" fill="#b4ec36" stroke="#1e1e1e" stroke-width="1" stroke-linejoin="round"/><path d="M69.07,12.21 L69.43,12.26 L69.76,12.40 L70.05,12.62 L70.27,12.91 L70.41,13.24 L70.45,13.60 L70.45,27.41 L70.41,27.77 L70.27,28.11 L70.05,28.39 L69.76,28.61 L69.43,28.75 L69.07,28.80 L39.09,28.80 L38.73,28.75 L38.40,28.61 L38.11,28.39 L37.89,28.11 L37.75,27.77 L37.71,27.41 L37.71,13.60 L37.75,13.24 L37.89,12.91 L38.11,12.62 L38.40,12.40 L38.73,12.26 L39.09,12.21 L69.07,12.21 Z" fill="#365615" stroke="#1e1e1e" stroke-width="1" stroke-linejoin="round"/><path d="M47.20,82.29 L47.15,82.65 L47.01,82.99 L46.79,83.27 L46.51,83.49 L46.17,83.63 L45.81,83.68 L42.77,83.68 L42.41,83.63 L42.08,83.49 L41.79,83.27 L41.57,82.99 L41.43,82.65 L41.39,82.29 L41.39,58.93 L41.43,58.57 L41.57,58.24 L41.79,57.95 L42.08,57.73 L42.41,57.59 L42.77,57.55 L45.81,57.55 L46.17,57.59 L46.51,57.73 L46.79,57.95 L47.01,58.24 L47.15,58.57 L47.20,58.93 L47.20,82.29 Z" fill="#365615" stroke="#365615" stroke-width="1" stroke-linejoin="round"/><path d="M37.28,82.40 L37.23,82.76 L37.09,83.09 L36.87,83.38 L36.59,83.60 L36.25,83.74 L35.89,83.79 L32.85,83.79 L32.49,83.74 L32.16,83.60 L31.87,83.38 L31.65,83.09 L31.51,82.76 L31.47,82.40 L31.47,59.04 L31.51,58.68 L31.65,58.35 L31.87,58.06 L32.16,57.84 L32.49,57.70 L32.85,57.65 L35.89,57.65 L36.25,57.70 L36.59,57.84 L36.87,58.06 L37.09,58.35 L37.23,58.68 L37.28,59.04 L37.28,82.40 Z" fill="#365615" stroke="#365615" stroke-width="1" stroke-linejoin="round"/><path d="M69.17,82.40 L69.13,82.76 L68.99,83.09 L68.77,83.38 L68.48,83.60 L68.15,83.74 L67.79,83.79 L64.75,83.79 L64.39,83.74 L64.05,83.60 L63.77,83.38 L63.55,83.09 L63.41,82.76 L63.36,82.40 L63.36,59.04 L63.41,58.68 L63.55,58.35 L63.77,58.06 L64.05,57.84 L64.39,57.70 L64.75,57.65 L67.79,57.65 L68.15,57.70 L68.48,57.84 L68.77,58.06 L68.99,58.35 L69.13,58.68 L69.17,59.04 L69.17,82.40 Z" fill="#f2f2f2" stroke="#f2f2f2" stroke-width="1" stroke-linejoin="round"/><ellipse cx="43.25" cy="42.99" rx="5.55" ry="5.97" fill="#f2f2f2" stroke="#f2f2f2" stroke-width="1"/><path d="M11.25,65.33 L4.48,65.33 L3.63,65.13 L2.98,64.55 L2.67,63.73 L2.67,32.48 L2.91,31.57 L3.57,30.91 L4.48,30.67 L11.25,30.67 L11.25,30.67 L11.25,65.33 L11.25,65.33 Z" fill="#3b3b3b" stroke="#3b3b3b" stroke-width="1" stroke-linejoin="round"/></svg>