<svg xmlns="http://www.w3.org/2000/svg" viewBox="0.55 -1.98 94.99 99.98"><ellipse cx="55.87" cy="22.56" rx="4.86" ry="4.86" fill="#76bc2d" stroke="#76bc2d" stroke-width="1"/><ellipse cx="40.36" cy="22.60" rx="4.86" ry="4.86" fill="#76bc2d" stroke="#76bc2d" stroke-width="1"/><ellipse cx="24.85" cy="22.60" rx="4.86" ry="4.86" fill="#76bc2d" stroke="#76bc2d" stroke-width="1"/><path d="M28.38,42.04 L25.60,44.80 L24.71,45.17 L23.82,44.80 L23.82,44.80 L3.23,24.29 L2.58,23.16 L2.58,21.86 L3.23,20.74 L3.23,20.74 L6.01,17.95 L6.01,17.95 L28.41,40.26 L28.77,41.15 L28.41,42.04 L28.38,42.04 Z" fill="#50e6ff" stroke="#1e1e1e" stroke-width="1" stroke-linejoin="round"/><path d="M25.18,0.43 L27.97,3.20 L28.34,4.09 L27.97,4.98 L5.98,27.03 L5.98,27.03 L3.20,24.25 L2.55,23.12 L2.55,21.82 L3.20,20.69 L3.20,20.69 L23.40,0.43 L24.29,0.06 L25.18,0.43 L25.18,0.43 Z" fill="#1490df" stroke="#1e1e1e" stroke-width="1" stroke-linejoin="round"/><path d="M61.30,33.89 L67.48,33.89 L77.15,24.25 L77.80,23.12 L77.80,21.82 L77.15,20.70 L74.37,17.91 L58.34,33.91 L61.30,33.89 Z" fill="#50e6ff" stroke="#1e1e1e" stroke-width="1" stroke-linejoin="round"/><path d="M77.15,24.22 L74.36,27.00 L74.36,27.00 L52.37,4.95 L52.02,4.08 L52.37,3.20 L52.37,3.20 L55.19,0.39 L56.08,0.02 L56.97,0.39 L56.97,0.39 L77.18,20.66 L77.83,21.78 L77.83,23.09 L77.18,24.21 L77.18,24.21 L77.15,24.22 Z" fill="#1490df" stroke="#1e1e1e" stroke-width="1" stroke-linejoin="round"/><path d="M93.54,69.99 L93.54,63.47 L92.68,63.47 L85.58,61.26 L83.95,56.37 L87.50,48.69 L82.89,44.09 L82.03,44.09 L75.41,47.45 L70.99,45.62 L68.11,37.65 L61.30,37.65 L61.30,38.61 L59.00,45.62 L54.49,47.45 L47.02,43.89 L42.41,48.50 L42.89,49.37 L45.56,56.46 L44.02,61.26 L35.96,63.85 L35.96,70.86 L36.92,70.86 L43.93,73.16 L45.56,77.48 L42.01,85.16 L46.81,90.05 L47.77,89.57 L54.29,86.21 L58.80,88.04 L61.69,96.00 L68.21,96.00 L68.21,95.04 L70.51,88.04 L75.02,86.21 L82.60,89.76 L87.21,85.16 L86.73,84.29 L83.95,77.36 L85.77,72.85 L93.54,69.99 Z" fill="#2f8ce2" stroke="#1e1e1e" stroke-width="1" stroke-linejoin="round"/><path d="M64.95,79.59 L64.75,79.59 L61.64,79.18 L58.72,78.00 L56.19,76.14 L54.20,73.70 L52.88,70.85 L52.30,67.76 L52.51,64.63 L53.49,61.64 L55.18,58.99 L57.48,56.84 L60.23,55.33 L63.28,54.55 L66.42,54.55 L69.47,55.33 L72.22,56.84 L74.52,58.99 L76.21,61.64 L77.19,64.63 L77.40,67.76 L76.82,70.85 L75.50,73.70 L73.51,76.14 L70.98,78.00 L68.06,79.18 L64.95,79.59 Z" fill="#ffffff" stroke="#1e1e1e" stroke-width="1" stroke-linejoin="round"/></svg>