<svg xmlns="http://www.w3.org/2000/svg" viewBox="6.75 -2.00 82.51 99.99"><path d="M87.25,44.80 L87.16,47.20 L86.90,49.58 L85.90,54.22 L84.33,58.71 L82.27,63.04 L79.81,67.18 L77.02,71.11 L74.00,74.83 L70.81,78.31 L67.54,81.54 L64.27,84.50 L58.07,89.54 L52.86,93.29 L49.28,95.63 L48.00,95.99 L46.72,95.63 L43.14,93.29 L37.93,89.54 L31.73,84.50 L28.46,81.54 L25.19,78.31 L22.00,74.83 L18.98,71.11 L16.19,67.18 L13.73,63.04 L11.67,58.71 L10.10,54.22 L9.10,49.58 L8.84,47.20 L8.75,44.80 L8.75,13.76 L9.07,12.55 L9.94,11.65 L11.15,11.31 L15.36,11.07 L18.95,10.64 L22.00,10.03 L24.58,9.27 L26.78,8.40 L28.68,7.45 L31.85,5.41 L34.75,3.41 L36.28,2.49 L37.98,1.68 L39.93,0.99 L42.19,0.46 L44.86,0.12 L48.00,0.00 L51.14,0.12 L53.81,0.46 L56.07,0.99 L58.02,1.68 L59.72,2.49 L61.25,3.41 L64.15,5.41 L67.32,7.45 L69.22,8.40 L71.41,9.27 L74.00,10.03 L77.05,10.64 L80.64,11.07 L84.85,11.31 L86.06,11.65 L86.93,12.55 L87.25,13.76 L87.25,44.80 Z" fill="#0078d4" stroke="#1e1e1e" stroke-width="1" stroke-linejoin="round"/><path d="M84.00,45.07 L83.92,47.27 L83.68,49.45 L82.76,53.71 L81.32,57.82 L79.44,61.78 L77.18,65.58 L74.63,69.18 L71.85,72.59 L68.93,75.77 L65.93,78.73 L62.93,81.44 L57.25,86.06 L52.46,89.52 L49.17,91.68 L48.00,92.00 L46.83,91.68 L43.54,89.55 L38.75,86.11 L33.07,81.49 L30.07,78.77 L27.07,75.81 L24.15,72.62 L21.37,69.21 L18.82,65.60 L16.56,61.80 L14.68,57.83 L13.24,53.71 L12.32,49.45 L12.08,47.27 L12.00,45.07 L12.00,16.59 L12.29,15.48 L13.09,14.66 L14.19,14.35 L18.05,14.13 L21.34,13.73 L24.14,13.17 L26.50,12.48 L28.52,11.69 L30.26,10.82 L33.17,8.95 L35.83,7.12 L37.24,6.28 L38.80,5.53 L40.59,4.90 L42.67,4.42 L45.11,4.11 L48.00,4.00 L50.89,4.11 L53.33,4.42 L55.41,4.90 L57.20,5.53 L58.76,6.28 L60.17,7.12 L62.83,8.95 L65.74,10.82 L67.48,11.69 L69.49,12.48 L71.86,13.17 L74.66,13.73 L77.95,14.13 L81.81,14.35 L82.91,14.66 L83.71,15.48 L84.00,16.59 L84.00,45.07 Z" fill="#6bb9f2" stroke="#1e1e1e" stroke-width="1" stroke-linejoin="round"/><path d="M48.00,48.00 L48.00,4.00 L50.89,4.11 L53.33,4.42 L55.41,4.90 L57.20,5.53 L58.76,6.28 L60.17,7.12 L62.83,8.95 L65.74,10.82 L67.48,11.69 L69.49,12.48 L71.86,13.17 L74.66,13.73 L77.95,14.13 L81.81,14.35 L82.92,14.69 L83.71,15.52 L84.00,16.64 L84.00,45.12 L84.04,46.56 L84.00,48.00 L48.00,48.00 Z" fill="#3990e4" stroke="#1e1e1e" stroke-width="1" stroke-linejoin="round"/><path d="M48.00,48.00 L12.16,48.00 L12.84,52.12 L14.02,56.13 L15.64,59.99 L17.64,63.71 L19.94,67.27 L22.49,70.65 L25.22,73.84 L28.05,76.82 L30.93,79.59 L33.80,82.12 L39.19,86.44 L43.71,89.66 L46.83,91.68 L47.29,91.90 L47.79,92.00 L48.00,92.00 L48.00,48.00 Z" fill="#3990e4" stroke="#1e1e1e" stroke-width="1" stroke-linejoin="round"/><path d="M14.19,14.35 L18.05,14.13 L21.34,13.73 L24.14,13.17 L26.50,12.48 L28.52,11.69 L30.26,10.82 L33.17,8.95 L35.83,7.12 L37.24,6.28 L38.80,5.53 L40.59,4.90 L42.67,4.42 L45.11,4.11 L48.00,4.00 L48.00,48.00 L12.16,48.00 L12.12,46.56 L12.16,45.12 L12.16,16.64 L12.42,15.56 L13.15,14.74 L14.19,14.35 L14.19,14.35 Z" fill="#50e6ff" stroke="#1e1e1e" stroke-width="1" stroke-linejoin="round"/><path d="M83.84,48.00 L48.00,48.00 L48.00,92.00 L48.00,92.00 L48.50,91.90 L48.96,91.68 L52.15,89.66 L56.72,86.44 L62.15,82.12 L65.03,79.59 L67.92,76.82 L70.77,73.84 L73.50,70.65 L76.05,67.27 L78.36,63.71 L80.36,59.99 L81.98,56.13 L83.16,52.12 L83.84,48.00 Z" fill="#50e6ff" stroke="#1e1e1e" stroke-width="1" stroke-linejoin="round"/></svg>