<svg xmlns="http://www.w3.org/2000/svg" viewBox="5.05 5.05 100.00 100.00"><path d="M7.05,90.44 L7.05,19.65 L7.29,17.18 L8.01,14.83 L9.16,12.66 L10.74,10.74 L12.66,9.16 L14.83,8.01 L17.18,7.29 L19.65,7.05 L90.44,7.05 L92.91,7.29 L95.26,8.01 L97.43,9.16 L99.35,10.74 L100.93,12.66 L102.09,14.83 L102.80,17.18 L103.05,19.65 L103.05,90.44 L102.80,92.91 L102.09,95.26 L100.93,97.43 L99.35,99.35 L97.43,100.93 L95.26,102.09 L92.91,102.80 L90.44,103.05 L19.65,103.05 L17.18,102.80 L14.83,102.09 L12.66,100.93 L10.74,99.35 L9.16,97.43 L8.01,95.26 L7.29,92.91 L7.05,90.44 Z" fill="#ff0000" stroke="#1e1e1e" stroke-width="1" stroke-linejoin="round"/><path d="M7.05,90.44 L7.05,19.65 L7.29,17.18 L8.01,14.83 L9.16,12.66 L10.74,10.74 L12.66,9.16 L14.83,8.01 L17.18,7.29 L19.65,7.05 L90.44,7.05 L92.91,7.29 L95.26,8.01 L97.43,9.16 L99.35,10.74 L100.93,12.66 L102.09,14.83 L102.80,17.18 L103.05,19.65 L103.05,90.44 L102.80,92.91 L102.09,95.26 L100.93,97.43 L99.35,99.35 L97.43,100.93 L95.26,102.09 L92.91,102.80 L90.44,103.05 L19.65,103.05 L17.18,102.80 L14.83,102.09 L12.66,100.93 L10.74,99.35 L9.16,97.43 L8.01,95.26 L7.29,92.91 L7.05,90.44 Z" fill="#1b8af3" stroke="#1e1e1e" stroke-width="1" stroke-linejoin="round"/><path d="M54.94,17.70 L58.77,17.89 L62.49,18.46 L66.08,19.38 L69.52,20.64 L72.79,22.22 L75.88,24.09 L78.77,26.25 L81.43,28.67 L83.84,31.33 L86.00,34.21 L87.87,37.30 L89.45,40.57 L90.71,44.01 L91.63,47.60 L92.20,51.32 L92.40,55.15 L92.20,58.98 L91.63,62.70 L90.71,66.29 L89.45,69.73 L87.87,73.00 L86.00,76.09 L83.84,78.98 L81.43,81.64 L78.77,84.05 L75.88,86.21 L72.79,88.09 L69.52,89.66 L66.08,90.92 L62.49,91.85 L58.77,92.41 L54.94,92.61 L51.11,92.41 L47.39,91.85 L43.80,90.92 L40.36,89.66 L37.09,88.09 L34.00,86.21 L31.12,84.05 L28.46,81.64 L26.04,78.98 L23.88,76.09 L22.01,73.00 L20.43,69.73 L19.17,66.29 L18.25,62.70 L17.68,58.98 L17.49,55.15 L17.68,51.32 L18.25,47.60 L19.17,44.01 L20.43,40.57 L22.01,37.30 L23.88,34.21 L26.04,31.33 L28.46,28.67 L31.12,26.25 L34.00,24.09 L37.09,22.22 L40.36,20.64 L43.80,19.38 L47.39,18.46 L51.11,17.89 L54.94,17.70 Z" fill="#d8f7ff" stroke="#d8f7ff" stroke-width="1" stroke-linejoin="round" opacity="0.75"/><path d="M54.94,86.36 L56.35,86.05 L58.20,84.90 L59.24,83.91 L60.33,82.60 L61.46,80.92 L62.60,78.84 L64.37,74.63 L65.80,69.72 L44.08,69.72 L45.51,74.63 L47.28,78.84 L48.43,80.92 L49.55,82.60 L50.64,83.91 L51.68,84.90 L53.53,86.05 L54.94,86.36 Z" fill="#1b8af3" stroke="#1b8af3" stroke-width="1" stroke-linejoin="round" opacity="0.75"/><path d="M42.96,63.47 L42.59,59.41 L42.46,55.15 L42.59,50.89 L42.96,46.83 L66.92,46.83 L67.30,50.89 L67.43,55.15 L67.30,59.41 L66.92,63.47 L42.96,63.47 Z" fill="#1b8af3" stroke="#1b8af3" stroke-width="1" stroke-linejoin="round" opacity="0.75"/><path d="M72.20,69.72 L71.19,73.77 L69.96,77.52 L68.52,80.94 L66.89,84.00 L69.36,82.84 L71.70,81.49 L73.91,79.94 L75.98,78.21 L77.88,76.31 L79.62,74.26 L81.18,72.05 L82.55,69.72 L72.20,69.72 Z" fill="#1b8af3" stroke="#1b8af3" stroke-width="1" stroke-linejoin="round" opacity="0.75"/><path d="M85.03,63.47 L73.20,63.47 L73.55,59.38 L73.67,55.15 L73.55,50.92 L73.20,46.83 L85.03,46.83 L85.87,50.90 L86.15,55.15 L85.87,59.40 L85.03,63.47 Z" fill="#1b8af3" stroke="#1b8af3" stroke-width="1" stroke-linejoin="round" opacity="0.75"/><path d="M36.68,63.47 L24.85,63.47 L24.02,59.40 L23.73,55.15 L24.02,50.90 L24.85,46.83 L36.68,46.83 L36.33,50.92 L36.21,55.15 L36.33,59.38 L36.68,63.47 Z" fill="#1b8af3" stroke="#1b8af3" stroke-width="1" stroke-linejoin="round" opacity="0.75"/><path d="M27.33,69.72 L37.68,69.72 L38.69,73.77 L39.92,77.52 L41.36,80.94 L42.99,84.00 L40.53,82.84 L38.18,81.49 L35.97,79.94 L33.90,78.21 L32.00,76.31 L30.26,74.26 L28.70,72.05 L27.33,69.72 Z" fill="#1b8af3" stroke="#1b8af3" stroke-width="1" stroke-linejoin="round" opacity="0.75"/><path d="M44.08,40.59 L65.80,40.59 L64.37,35.68 L62.60,31.46 L61.46,29.38 L60.33,27.71 L59.24,26.39 L58.20,25.41 L56.35,24.26 L54.94,23.94 L53.53,24.26 L51.68,25.41 L50.64,26.39 L49.55,27.71 L48.43,29.38 L47.28,31.46 L45.51,35.68 L44.08,40.59 Z" fill="#1b8af3" stroke="#1b8af3" stroke-width="1" stroke-linejoin="round" opacity="0.75"/><path d="M72.20,40.59 L82.55,40.59 L81.18,38.25 L79.62,36.05 L77.88,33.99 L75.98,32.09 L73.91,30.37 L71.70,28.82 L69.36,27.46 L66.89,26.31 L68.52,29.36 L69.96,32.78 L71.19,36.54 L72.20,40.59 Z" fill="#1b8af3" stroke="#1b8af3" stroke-width="1" stroke-linejoin="round" opacity="0.75"/><path d="M42.99,26.31 L41.36,29.36 L39.92,32.78 L38.69,36.54 L37.68,40.59 L27.33,40.59 L28.70,38.25 L30.26,36.05 L32.00,33.99 L33.90,32.09 L35.97,30.37 L38.18,28.82 L40.53,27.46 L42.99,26.31 Z" fill="#1b8af3" stroke="#1b8af3" stroke-width="1" stroke-linejoin="round" opacity="0.75"/></svg>