<svg xmlns="http://www.w3.org/2000/svg" viewBox="6.75 -2.00 82.52 100.00"><path d="M87.27,44.81 L87.18,47.21 L86.91,49.59 L85.91,54.23 L84.34,58.72 L82.28,63.05 L79.82,67.19 L77.03,71.12 L74.01,74.84 L70.82,78.32 L67.55,81.55 L64.28,84.51 L58.08,89.55 L52.86,93.30 L49.29,95.64 L48.01,96.00 L46.73,95.64 L43.15,93.30 L37.93,89.55 L31.73,84.51 L28.47,81.55 L25.20,78.32 L22.01,74.84 L18.98,71.12 L16.19,67.19 L13.73,63.05 L11.67,58.72 L10.10,54.23 L9.10,49.59 L8.84,47.21 L8.75,44.81 L8.75,13.76 L9.07,12.55 L9.94,11.65 L11.15,11.31 L15.36,11.08 L18.95,10.64 L22.00,10.03 L24.59,9.27 L26.79,8.40 L28.68,7.45 L31.86,5.41 L34.75,3.41 L36.29,2.49 L37.99,1.68 L39.93,0.99 L42.20,0.46 L44.86,0.12 L48.01,0.00 L51.15,0.12 L53.82,0.46 L56.08,0.99 L58.03,1.68 L59.73,2.49 L61.26,3.41 L64.16,5.41 L67.33,7.45 L69.23,8.40 L71.42,9.27 L74.01,10.03 L77.06,10.64 L80.65,11.08 L84.86,11.31 L86.07,11.65 L86.95,12.55 L87.27,13.76 L87.27,44.81 Z" fill="#0078d4" stroke="#1e1e1e" stroke-width="1" stroke-linejoin="round"/><path d="M84.01,45.07 L83.93,47.28 L83.69,49.46 L82.77,53.71 L81.33,57.83 L79.45,61.79 L77.19,65.58 L74.64,69.19 L71.86,72.60 L68.94,75.78 L65.94,78.74 L62.94,81.45 L57.26,86.07 L52.47,89.53 L49.18,91.69 L48.01,92.02 L46.83,91.69 L43.54,89.56 L38.76,86.12 L33.07,81.50 L30.07,78.79 L27.08,75.82 L24.15,72.63 L21.38,69.22 L18.82,65.61 L16.57,61.81 L14.68,57.84 L13.24,53.72 L12.32,49.46 L12.08,47.28 L12.00,45.07 L12.00,16.59 L12.29,15.48 L13.09,14.67 L14.19,14.35 L18.05,14.14 L21.34,13.74 L24.14,13.18 L26.51,12.48 L28.53,11.69 L30.26,10.82 L33.18,8.95 L35.83,7.12 L37.24,6.28 L38.81,5.53 L40.59,4.91 L42.67,4.42 L45.12,4.11 L48.01,4.00 L50.89,4.11 L53.34,4.42 L55.42,4.91 L57.21,5.53 L58.77,6.28 L60.18,7.12 L62.84,8.95 L65.75,10.82 L67.49,11.69 L69.50,12.48 L71.87,13.18 L74.67,13.74 L77.96,14.14 L81.82,14.35 L82.92,14.67 L83.72,15.48 L84.01,16.59 L84.01,45.07 Z" fill="#6bb9f2" stroke="#1e1e1e" stroke-width="1" stroke-linejoin="round"/><path d="M48.01,48.01 L48.01,4.00 L50.89,4.11 L53.34,4.42 L55.42,4.91 L57.21,5.53 L58.77,6.28 L60.18,7.12 L62.84,8.95 L65.75,10.82 L67.49,11.69 L69.50,12.48 L71.87,13.18 L74.67,13.74 L77.96,14.14 L81.82,14.35 L82.93,14.69 L83.72,15.53 L84.01,16.64 L84.01,45.13 L84.05,46.57 L84.01,48.01 L48.01,48.01 Z" fill="#3990e4" stroke="#1e1e1e" stroke-width="1" stroke-linejoin="round"/><path d="M48.01,48.01 L12.16,48.01 L12.84,52.13 L14.02,56.13 L15.64,60.00 L17.64,63.72 L19.95,67.28 L22.49,70.66 L25.22,73.85 L28.06,76.83 L30.94,79.60 L33.80,82.13 L39.20,86.45 L43.72,89.67 L46.83,91.69 L47.29,91.91 L47.79,92.01 L48.01,92.01 L48.01,48.01 Z" fill="#3990e4" stroke="#1e1e1e" stroke-width="1" stroke-linejoin="round"/><path d="M14.19,14.35 L18.05,14.14 L21.34,13.74 L24.14,13.18 L26.51,12.48 L28.53,11.69 L30.26,10.82 L33.18,8.95 L35.83,7.12 L37.24,6.28 L38.81,5.53 L40.59,4.91 L42.67,4.42 L45.12,4.11 L48.01,4.00 L48.01,48.01 L12.16,48.01 L12.12,46.57 L12.16,45.13 L12.16,16.64 L12.42,15.57 L13.15,14.74 L14.19,14.35 L14.19,14.35 Z" fill="#50e6ff" stroke="#1e1e1e" stroke-width="1" stroke-linejoin="round"/><path d="M83.85,48.01 L48.01,48.01 L48.01,92.01 L48.01,92.01 L48.51,91.91 L48.97,91.69 L52.15,89.67 L56.73,86.45 L62.16,82.13 L65.04,79.60 L67.93,76.83 L70.77,73.85 L73.51,70.66 L76.06,67.28 L78.37,63.72 L80.37,60.00 L81.99,56.13 L83.18,52.13 L83.85,48.01 Z" fill="#50e6ff" stroke="#1e1e1e" stroke-width="1" stroke-linejoin="round"/></svg>