<svg xmlns="http://www.w3.org/2000/svg" viewBox="0.67 6.00 94.67 84.00"><path d="M84.75,15.52 L91.52,15.52 L92.43,15.76 L93.09,16.43 L93.33,17.33 L93.33,36.00 L93.09,36.91 L92.43,37.57 L91.52,37.81 L84.75,37.81 L84.75,37.81 L84.75,15.52 L84.75,15.52 Z" fill="#ffca00" stroke="#ffca00" stroke-width="1" stroke-linejoin="round"/><path d="M84.75,48.00 L91.52,48.00 L92.43,48.24 L93.09,48.91 L93.33,49.81 L93.33,81.07 L93.09,81.97 L92.43,82.64 L91.52,82.88 L84.75,82.88 L84.75,82.88 L84.75,48.00 L84.75,48.00 Z" fill="#ffca00" stroke="#ffca00" stroke-width="1" stroke-linejoin="round"/><rect x="11.36" y="8.00" width="73.39" height="80.00" fill="#6fb042" stroke="#1e1e1e" stroke-width="1"/><path d="M31.47,68.80 L27.68,68.80 L26.94,68.45 L26.67,67.68 L26.67,23.15 L26.94,22.40 L27.68,22.08 L37.97,22.08 L38.71,22.40 L38.99,23.15 L38.71,23.92 L37.97,24.27 L28.69,24.27 L28.69,66.56 L31.47,66.56 L32.21,66.91 L32.48,67.68 L32.19,68.44 L31.47,68.80 L31.47,68.80 Z" fill="#b4ec36" stroke="#1e1e1e" stroke-width="1" stroke-linejoin="round"/><path d="M32.00,74.24 L23.47,74.24 L22.73,73.89 L22.45,73.12 L21.76,18.03 L21.84,17.59 L22.08,17.23 L22.39,16.98 L22.77,16.91 L37.97,16.91 L37.97,19.09 L23.84,19.09 L24.48,72.00 L32.00,72.00 L32.00,74.24 Z" fill="#b4ec36" stroke="#1e1e1e" stroke-width="1" stroke-linejoin="round"/><path d="M64.00,69.33 L55.52,69.33 L55.11,69.23 L54.77,68.96 L54.53,68.62 L54.45,68.21 L54.45,42.13 L54.73,41.38 L55.47,41.07 L60.32,41.07 L60.32,29.07 L62.35,29.07 L62.35,42.08 L62.09,42.83 L61.39,43.20 L56.53,43.20 L56.53,66.77 L64.00,66.77 L64.00,69.33 Z" fill="#b4ec36" stroke="#1e1e1e" stroke-width="1" stroke-linejoin="round"/><rect x="37.71" y="12.21" width="32.75" height="16.59" fill="#365615" stroke="#1e1e1e" stroke-width="1"/><path d="M47.20,57.55 L47.20,83.68 L41.39,83.68 L41.39,57.55 L47.20,57.55 Z" fill="#365615" stroke="#365615" stroke-width="1" stroke-linejoin="round"/><path d="M37.28,57.65 L37.28,83.79 L31.47,83.79 L31.47,57.65 L37.28,57.65 Z" fill="#365615" stroke="#365615" stroke-width="1" stroke-linejoin="round"/><path d="M69.17,57.65 L69.17,83.79 L63.36,83.79 L63.36,57.65 L69.17,57.65 Z" fill="#f2f2f2" stroke="#f2f2f2" stroke-width="1" stroke-linejoin="round"/><ellipse cx="43.25" cy="42.99" rx="5.55" ry="5.97" fill="#f2f2f2" stroke="#f2f2f2" stroke-width="1"/><path d="M11.25,65.33 L4.48,65.33 L3.63,65.13 L2.98,64.55 L2.67,63.73 L2.67,32.48 L2.91,31.57 L3.57,30.91 L4.48,30.67 L11.25,30.67 L11.25,30.67 L11.25,65.33 L11.25,65.33 Z" fill="#3b3b3b" stroke="#3b3b3b" stroke-width="1" stroke-linejoin="round"/></svg>