<svg xmlns="http://www.w3.org/2000/svg" viewBox="-0.56 -1.29 100.00 99.95"><path d="M86.23,24.89 L86.23,41.91 L85.86,42.56 L85.11,42.56 L82.53,41.35 L79.79,40.61 L76.96,40.36 L76.53,40.36 L75.72,40.38 L74.92,40.44 L74.35,40.24 L74.11,39.69 L74.11,16.96 L74.43,15.85 L75.30,15.07 L76.44,14.87 L77.52,15.32 L77.57,15.37 L77.63,15.42 L85.62,23.41 L85.69,23.49 L85.75,23.57 L85.91,23.78 L86.04,24.02 L86.04,24.02 L86.18,24.45 L86.23,24.89 Z" fill="#0078d4" stroke="#1e1e1e" stroke-width="1" stroke-linejoin="round"/><path d="M25.62,11.87 L40.61,11.87 L41.45,12.12 L42.00,12.79 L42.09,13.66 L41.67,14.43 L32.34,23.76 L32.09,23.92 L31.79,23.98 L17.68,23.98 L16.52,23.62 L15.76,22.69 L15.64,21.48 L16.21,20.41 L24.15,12.48 L24.82,12.03 L25.62,11.87 L25.62,11.87 Z" fill="#0078d4" stroke="#1e1e1e" stroke-width="1" stroke-linejoin="round"/><path d="M24.75,11.87 L24.75,39.39 L25.00,39.99 L25.60,40.24 L35.02,40.24 L35.37,40.30 L35.67,40.51 L35.90,41.11 L35.64,41.70 L19.46,57.79 L18.88,58.02 L18.31,57.79 L1.98,41.71 L1.47,41.24 L1.44,40.55 L1.90,40.04 L2.60,40.01 L11.95,40.01 L12.46,39.72 L12.62,39.16 L12.62,24.77 L12.76,24.05 L13.17,23.43 L24.75,11.87 Z" fill="#44d6f1" stroke="#1e1e1e" stroke-width="1" stroke-linejoin="round"/><path d="M12.59,72.48 L12.59,57.48 L12.84,56.65 L13.52,56.10 L14.39,56.01 L15.16,56.42 L24.49,65.75 L24.66,66.01 L24.71,66.30 L24.71,80.43 L24.35,81.59 L23.42,82.36 L22.21,82.48 L21.14,81.91 L13.20,73.96 L12.75,73.28 L12.59,72.48 L12.59,72.48 Z" fill="#0078d4" stroke="#1e1e1e" stroke-width="1" stroke-linejoin="round"/><path d="M12.59,73.34 L35.94,73.34 L36.53,73.09 L36.77,72.50 L36.77,63.08 L36.83,62.73 L37.04,62.43 L37.64,62.20 L38.23,62.46 L54.33,78.64 L54.56,79.21 L54.33,79.79 L38.24,96.12 L37.77,96.63 L37.08,96.65 L36.58,96.18 L36.55,95.50 L36.55,86.17 L36.27,85.65 L35.71,85.48 L25.50,85.48 L24.77,85.34 L24.15,84.94 L12.59,73.34 Z" fill="#44d6f2" stroke="#1e1e1e" stroke-width="1" stroke-linejoin="round"/><path d="M86.22,24.03 L58.69,24.03 L58.52,24.03 L58.30,24.11 L58.11,24.26 L57.91,24.53 L57.85,24.86 L57.85,34.30 L57.79,34.65 L57.58,34.95 L57.52,35.00 L57.45,35.05 L56.90,35.17 L56.40,34.91 L56.40,34.91 L40.29,18.74 L40.07,18.16 L40.29,17.58 L56.39,1.26 L56.74,0.92 L57.11,0.73 L57.54,0.71 L57.83,0.87 L57.99,1.14 L58.09,1.86 L58.09,11.19 L58.12,11.33 L58.17,11.46 L58.17,11.46 L58.48,11.79 L58.92,11.87 L73.32,11.87 L73.59,11.89 L73.87,11.95 L74.05,12.01 L74.05,12.01 L74.37,12.19 L74.66,12.43 L85.75,23.52 L86.22,24.03 Z" fill="#44d6f1" stroke="#1e1e1e" stroke-width="1" stroke-linejoin="round"/><path d="M96.70,69.04 L96.66,69.04 L96.56,68.95 L96.45,68.87 L96.31,68.78 L96.16,68.71 L96.07,68.67 L95.97,68.64 L95.97,68.64 L95.88,68.60 L95.79,68.58 L95.73,68.58 L95.67,68.58 L95.57,68.58 L95.49,68.58 L95.35,68.58 L92.43,68.58 L92.43,59.20 L92.15,55.97 L91.28,52.85 L89.86,49.94 L87.93,47.34 L85.23,44.95 L82.04,43.27 L78.54,42.41 L74.94,42.41 L71.44,43.27 L68.24,44.95 L65.55,47.34 L63.60,49.93 L62.17,52.84 L61.31,55.96 L61.04,59.20 L61.04,68.49 L58.61,68.49 L58.47,68.49 L58.26,68.53 L57.91,68.62 L57.57,68.77 L57.42,68.87 L57.32,68.94 L57.23,69.01 L57.18,69.06 L57.13,69.11 L57.02,69.23 L56.91,69.37 L56.81,69.51 L56.73,69.67 L56.65,69.84 L56.62,69.93 L56.60,70.01 L56.57,70.10 L56.56,70.19 L56.52,70.38 L56.52,70.58 L56.52,94.57 L56.57,94.99 L56.71,95.39 L56.74,95.48 L56.79,95.56 L57.05,95.93 L57.37,96.24 L57.41,96.24 L57.99,96.53 L58.63,96.64 L95.35,96.64 L96.02,96.52 L96.61,96.19 L97.22,95.46 L97.44,94.54 L97.44,70.58 L97.23,69.73 L96.70,69.04 Z" fill="#ffbd02" stroke="#1e1e1e" stroke-width="1" stroke-linejoin="round"/><path d="M68.30,59.04 L68.62,56.68 L69.51,54.47 L70.92,52.54 L72.71,51.02 L74.88,50.13 L77.23,49.95 L79.51,50.50 L81.51,51.74 L81.93,52.12 L82.32,52.54 L82.84,53.18 L83.31,53.85 L84.06,55.03 L84.62,56.30 L84.98,57.66 L85.12,59.05 L85.12,68.50 L68.30,68.50 L68.30,59.04 Z" fill="#ffffff" stroke="#1e1e1e" stroke-width="1" stroke-linejoin="round"/><path d="M97.40,70.58 L97.40,94.58 L97.18,95.50 L96.58,96.23 L77.01,82.69 L76.97,82.69 L57.28,69.06 L57.28,69.06 L57.73,68.75 L58.25,68.58 L58.46,68.55 L58.60,68.55 L95.41,68.55 L95.52,68.55 L95.55,68.55 L95.65,68.55 L95.71,68.55 L95.77,68.55 L95.87,68.57 L95.96,68.60 L95.96,68.60 L96.05,68.64 L96.15,68.68 L96.30,68.75 L96.43,68.84 L96.55,68.92 L96.65,69.01 L96.68,69.01 L97.21,69.72 L97.40,70.58 L97.40,70.58 Z" fill="#ffe452" stroke="#1e1e1e" stroke-width="1" stroke-linejoin="round" opacity="0.4"/><path d="M96.66,69.02 L96.66,69.02 L96.63,69.02 L76.98,82.63 L76.94,82.63 L57.34,96.20 L57.31,96.20 L56.95,95.89 L56.68,95.50 L56.64,95.42 L56.61,95.34 L56.52,95.01 L56.49,94.67 L56.49,70.52 L56.49,70.32 L56.52,70.13 L56.54,70.04 L56.57,69.95 L56.59,69.87 L56.62,69.78 L56.69,69.61 L56.78,69.45 L56.88,69.31 L56.99,69.17 L57.08,69.15 L57.13,69.10 L57.18,69.05 L57.27,68.97 L57.37,68.90 L57.52,68.81 L57.82,68.66 L58.14,68.56 L58.35,68.53 L58.53,68.53 L95.30,68.53 L95.43,68.53 L95.51,68.53 L95.61,68.53 L95.68,68.53 L95.74,68.53 L95.83,68.55 L95.92,68.59 L95.92,68.59 L96.02,68.62 L96.11,68.66 L96.26,68.73 L96.40,68.82 L96.54,68.91 L96.66,69.02 Z" fill="#ffe452" stroke="#1e1e1e" stroke-width="1" stroke-linejoin="round" opacity="0.4"/></svg>