<svg xmlns="http://www.w3.org/2000/svg" viewBox="-1.93 1.52 100.00 85.85"><path d="M96.07,40.03 L95.66,36.66 L94.58,33.44 L92.87,30.50 L90.61,27.97 L87.88,25.94 L84.80,24.51 L81.50,23.72 L80.92,19.66 L79.57,15.78 L77.50,12.24 L74.78,9.17 L71.51,6.68 L67.83,4.87 L63.87,3.80 L59.78,3.52 L55.95,3.80 L52.23,4.74 L48.73,6.33 L45.57,8.51 L42.84,11.20 L40.62,14.34 L38.99,17.82 L35.03,18.71 L31.33,20.38 L28.05,22.76 L25.31,25.76 L23.23,29.25 L21.91,33.09 L21.38,37.12 L21.88,41.07 L23.13,44.85 L25.10,48.32 L27.71,51.33 L30.85,53.78 L34.42,55.56 L38.26,56.62 L42.23,56.91 L79.22,56.91 L82.96,56.45 L86.51,55.19 L89.69,53.17 L92.35,50.51 L94.36,47.32 L95.62,43.77 L96.07,40.03 Z" fill="#8e5ae8" stroke="#1e1e1e" stroke-width="1" stroke-linejoin="round"/><path d="M76.45,25.48 L66.50,15.80 L65.73,15.27 L65.09,15.26 L64.65,15.77 L64.49,16.79 L64.49,21.13 L64.14,21.98 L63.30,22.33 L63.24,22.33 L60.35,22.45 L56.73,22.98 L54.74,23.47 L52.70,24.16 L50.64,25.07 L48.61,26.23 L46.64,27.69 L44.78,29.46 L43.07,31.58 L41.56,34.08 L40.28,36.99 L39.29,40.34 L38.61,44.16 L38.29,48.48 L38.65,49.37 L39.54,49.74 L45.90,49.74 L46.79,49.37 L47.16,48.49 L47.16,48.38 L46.82,44.85 L47.32,41.34 L48.63,38.04 L50.67,35.15 L53.33,32.81 L56.47,31.16 L59.91,30.30 L63.46,30.26 L64.34,30.63 L64.70,31.52 L64.70,35.54 L64.83,36.73 L65.20,37.29 L65.83,37.22 L66.72,36.52 L76.45,27.55 L76.97,26.75 L76.78,25.81 L76.63,25.63 L76.45,25.48 Z" fill="#ffffff" stroke="#1e1e1e" stroke-width="1" stroke-linejoin="round"/><ellipse cx="29.37" cy="56.03" rx="28.71" ry="28.71" fill="#0078d4" stroke="#1e1e1e" stroke-width="1"/><path d="M58.71,55.06 L58.66,55.06 L58.09,50.17 L56.70,45.44 L54.54,41.01 L51.68,37.00 L48.18,33.53 L44.15,30.69 L39.71,28.57 L34.97,27.22 L30.07,26.68 L25.15,26.97 L20.35,28.08 L15.80,29.97 L11.64,32.60 L7.97,35.89 L4.90,39.74 L2.52,44.06 L0.90,48.71 L0.07,53.56 L0.07,58.49 L0.90,63.35 L2.52,68.00 L4.90,72.31 L7.97,76.17 L11.64,79.46 L15.80,82.09 L20.35,83.98 L25.15,85.09 L30.07,85.37 L34.97,84.84 L39.71,83.49 L44.15,81.36 L48.18,78.53 L51.68,75.05 L54.54,71.05 L56.70,66.62 L58.09,61.89 L58.66,57.00 L58.71,57.00 L58.71,55.06 Z" fill="#83b9f9" stroke="#83b9f9" stroke-width="1" stroke-linejoin="round"/><path d="M46.53,55.06 L46.25,50.90 L45.46,46.80 L44.17,42.84 L53.24,42.84 L55.03,46.71 L56.19,50.82 L56.68,55.06 L46.53,55.06 Z" fill="#0078d4" stroke="#0078d4" stroke-width="1" stroke-linejoin="round"/><path d="M2.02,57.00 L12.57,57.00 L12.87,61.16 L13.68,65.26 L15.00,69.23 L5.47,69.23 L3.68,65.35 L2.53,61.24 L2.03,57.00 L2.02,57.00 Z" fill="#0078d4" stroke="#0078d4" stroke-width="1" stroke-linejoin="round"/><path d="M41.17,40.91 L30.33,40.91 L30.33,29.93 L33.54,32.13 L36.45,34.73 L39.00,37.67 L41.17,40.91 L41.17,40.91 Z" fill="#0078d4" stroke="#0078d4" stroke-width="1" stroke-linejoin="round"/><path d="M28.39,40.91 L18.25,40.91 L21.12,37.01 L24.52,33.59 L28.39,30.70 L28.39,40.91 Z" fill="#0078d4" stroke="#0078d4" stroke-width="1" stroke-linejoin="round"/><path d="M28.39,42.84 L28.39,55.06 L14.52,55.06 L14.85,50.87 L15.78,46.76 L17.29,42.84 L28.39,42.84 Z" fill="#0078d4" stroke="#0078d4" stroke-width="1" stroke-linejoin="round"/><path d="M12.57,55.06 L2.03,55.06 L2.53,50.82 L3.68,46.71 L5.47,42.84 L15.15,42.84 L13.75,46.78 L12.89,50.88 L12.57,55.06 L12.57,55.06 Z" fill="#0078d4" stroke="#0078d4" stroke-width="1" stroke-linejoin="round"/><path d="M14.51,57.00 L28.38,57.00 L28.38,69.23 L17.18,69.23 L15.74,65.29 L14.84,61.18 L14.51,57.00 L14.51,57.00 Z" fill="#0078d4" stroke="#0078d4" stroke-width="1" stroke-linejoin="round"/><path d="M28.38,71.16 L28.38,82.01 L24.39,78.95 L20.94,75.31 L18.10,71.16 L28.38,71.16 Z" fill="#0078d4" stroke="#0078d4" stroke-width="1" stroke-linejoin="round"/><path d="M30.32,71.16 L41.00,71.16 L38.06,75.43 L34.47,79.16 L30.32,82.27 L30.32,71.16 Z" fill="#0078d4" stroke="#0078d4" stroke-width="1" stroke-linejoin="round"/><path d="M30.32,69.23 L30.32,57.00 L44.61,57.00 L44.28,61.18 L43.38,65.29 L41.95,69.23 L30.32,69.23 Z" fill="#0078d4" stroke="#0078d4" stroke-width="1" stroke-linejoin="round"/><path d="M30.32,55.06 L30.32,42.84 L42.06,42.84 L43.45,46.79 L44.30,50.88 L44.59,55.06 L30.32,55.06 Z" fill="#0078d4" stroke="#0078d4" stroke-width="1" stroke-linejoin="round"/><path d="M52.20,40.91 L43.26,40.91 L41.12,37.39 L38.53,34.18 L35.56,31.33 L32.24,28.89 L36.96,29.80 L41.45,31.52 L45.57,33.99 L49.20,37.16 L52.21,40.91 L52.20,40.91 Z" fill="#0078d4" stroke="#0078d4" stroke-width="1" stroke-linejoin="round"/><path d="M27.83,28.75 L24.36,31.22 L21.22,34.10 L18.46,37.34 L16.12,40.91 L6.52,40.91 L9.13,37.57 L12.23,34.68 L15.74,32.31 L19.57,30.50 L23.63,29.30 L27.83,28.75 L27.83,28.75 Z" fill="#0078d4" stroke="#0078d4" stroke-width="1" stroke-linejoin="round"/><path d="M6.52,71.16 L15.94,71.16 L18.04,74.65 L20.56,77.85 L23.46,80.71 L26.69,83.19 L22.70,82.52 L18.86,81.26 L15.25,79.45 L11.94,77.13 L9.01,74.35 L6.52,71.16 L6.52,71.16 Z" fill="#0078d4" stroke="#0078d4" stroke-width="1" stroke-linejoin="round"/><path d="M32.48,83.14 L35.69,80.67 L38.58,77.82 L41.09,74.64 L43.18,71.16 L52.21,71.16 L49.23,74.87 L45.65,78.01 L41.58,80.48 L37.15,82.21 L32.48,83.14 L32.48,83.14 Z" fill="#0078d4" stroke="#0078d4" stroke-width="1" stroke-linejoin="round"/><path d="M53.26,69.23 L44.12,69.23 L45.44,65.26 L46.25,61.17 L46.55,57.00 L56.69,57.00 L56.19,61.24 L55.04,65.35 L53.26,69.23 L53.26,69.23 Z" fill="#0078d4" stroke="#0078d4" stroke-width="1" stroke-linejoin="round"/></svg>