<svg xmlns="http://www.w3.org/2000/svg" viewBox="-1.93 1.52 99.93 85.79"><path d="M96.00,40.00 L95.59,36.63 L94.51,33.41 L92.80,30.48 L90.54,27.95 L87.82,25.92 L84.74,24.49 L81.44,23.70 L80.86,19.64 L79.51,15.77 L77.44,12.23 L74.72,9.16 L71.46,6.68 L67.78,4.87 L63.82,3.80 L59.73,3.52 L55.91,3.80 L52.19,4.74 L48.70,6.33 L45.53,8.50 L42.81,11.19 L40.59,14.33 L38.97,17.80 L35.01,18.69 L31.31,20.36 L28.02,22.74 L25.29,25.74 L23.22,29.23 L21.89,33.06 L21.37,37.09 L21.86,41.04 L23.11,44.82 L25.08,48.28 L27.69,51.29 L30.83,53.74 L34.39,55.52 L38.23,56.58 L42.20,56.86 L79.16,56.86 L82.90,56.41 L86.45,55.15 L89.63,53.13 L92.29,50.47 L94.29,47.29 L95.55,43.74 L96.00,40.00 L96.00,40.00 Z" fill="#8e5ae8" stroke="#1e1e1e" stroke-width="1" stroke-linejoin="round"/><path d="M76.39,25.46 L66.45,15.79 L65.68,15.26 L65.05,15.25 L64.61,15.76 L64.44,16.77 L64.44,21.11 L64.09,21.96 L63.25,22.31 L63.19,22.31 L60.31,22.43 L56.69,22.96 L54.70,23.45 L52.66,24.14 L50.60,25.05 L48.57,26.21 L46.60,27.67 L44.75,29.44 L43.04,31.55 L41.53,34.05 L40.25,36.96 L39.26,40.31 L38.58,44.13 L38.26,48.45 L38.62,49.33 L39.51,49.70 L45.87,49.70 L46.75,49.34 L47.13,48.45 L47.13,48.34 L46.79,44.82 L47.28,41.31 L48.59,38.02 L50.63,35.12 L53.29,32.79 L56.43,31.14 L59.87,30.28 L63.41,30.24 L64.29,30.61 L64.66,31.49 L64.66,35.51 L64.78,36.70 L65.15,37.26 L65.78,37.19 L66.67,36.49 L76.39,27.53 L76.91,26.73 L76.72,25.79 L76.57,25.61 L76.39,25.46 Z" fill="#ffffff" stroke="#1e1e1e" stroke-width="1" stroke-linejoin="round"/><ellipse cx="29.34" cy="55.99" rx="28.69" ry="28.69" fill="#0078d4" stroke="#1e1e1e" stroke-width="1"/><path d="M58.67,55.02 L58.62,55.02 L58.04,50.13 L56.66,45.40 L54.50,40.98 L51.64,36.97 L48.15,33.51 L44.12,30.67 L39.68,28.55 L34.94,27.20 L30.05,26.66 L25.13,26.95 L20.34,28.06 L15.79,29.95 L11.63,32.58 L7.96,35.86 L4.90,39.71 L2.52,44.02 L0.89,48.67 L0.07,53.53 L0.07,58.45 L0.89,63.30 L2.52,67.95 L4.90,72.26 L7.96,76.11 L11.63,79.40 L15.79,82.02 L20.34,83.92 L25.13,85.02 L30.05,85.31 L34.94,84.77 L39.68,83.42 L44.12,81.30 L48.15,78.47 L51.64,75.00 L54.50,70.99 L56.66,66.57 L58.04,61.84 L58.62,56.95 L58.67,56.95 L58.67,55.02 Z" fill="#83b9f9" stroke="#83b9f9" stroke-width="1" stroke-linejoin="round"/><path d="M46.50,55.02 L46.22,50.86 L45.43,46.77 L44.14,42.81 L53.21,42.81 L54.99,46.68 L56.15,50.78 L56.64,55.02 L46.50,55.02 Z" fill="#0078d4" stroke="#0078d4" stroke-width="1" stroke-linejoin="round"/><path d="M2.02,56.95 L12.57,56.95 L12.86,61.12 L13.67,65.21 L14.99,69.18 L5.47,69.18 L3.68,65.30 L2.53,61.19 L2.03,56.95 L2.02,56.95 Z" fill="#0078d4" stroke="#0078d4" stroke-width="1" stroke-linejoin="round"/><path d="M41.14,40.87 L30.31,40.87 L30.31,29.90 L33.52,32.11 L36.42,34.70 L38.97,37.64 L41.14,40.87 L41.14,40.87 Z" fill="#0078d4" stroke="#0078d4" stroke-width="1" stroke-linejoin="round"/><path d="M28.37,40.87 L18.24,40.87 L21.10,36.99 L24.50,33.56 L28.37,30.68 L28.37,40.87 Z" fill="#0078d4" stroke="#0078d4" stroke-width="1" stroke-linejoin="round"/><path d="M28.37,42.81 L28.37,55.02 L14.51,55.02 L14.84,50.83 L15.77,46.73 L17.27,42.81 L28.37,42.81 Z" fill="#0078d4" stroke="#0078d4" stroke-width="1" stroke-linejoin="round"/><path d="M12.56,55.02 L2.03,55.02 L2.53,50.78 L3.68,46.68 L5.46,42.81 L15.14,42.81 L13.74,46.75 L12.88,50.85 L12.56,55.02 L12.56,55.02 Z" fill="#0078d4" stroke="#0078d4" stroke-width="1" stroke-linejoin="round"/><path d="M14.50,56.95 L28.36,56.95 L28.36,69.18 L17.16,69.18 L15.73,65.24 L14.83,61.14 L14.50,56.95 L14.50,56.95 Z" fill="#0078d4" stroke="#0078d4" stroke-width="1" stroke-linejoin="round"/><path d="M28.36,71.11 L28.36,81.95 L24.38,78.90 L20.92,75.25 L18.09,71.11 L28.36,71.11 Z" fill="#0078d4" stroke="#0078d4" stroke-width="1" stroke-linejoin="round"/><path d="M30.30,71.11 L40.97,71.11 L38.03,75.37 L34.44,79.10 L30.30,82.21 L30.30,71.11 Z" fill="#0078d4" stroke="#0078d4" stroke-width="1" stroke-linejoin="round"/><path d="M30.30,69.18 L30.30,56.95 L44.58,56.95 L44.25,61.14 L43.35,65.24 L41.91,69.18 L30.30,69.18 Z" fill="#0078d4" stroke="#0078d4" stroke-width="1" stroke-linejoin="round"/><path d="M30.30,55.02 L30.30,42.81 L42.03,42.81 L43.42,46.75 L44.26,50.85 L44.56,55.02 L30.30,55.02 Z" fill="#0078d4" stroke="#0078d4" stroke-width="1" stroke-linejoin="round"/><path d="M52.17,40.87 L43.23,40.87 L41.09,37.36 L38.50,34.15 L35.53,31.31 L32.21,28.87 L36.93,29.77 L41.42,31.49 L45.54,33.97 L49.16,37.13 L52.17,40.87 L52.17,40.87 Z" fill="#0078d4" stroke="#0078d4" stroke-width="1" stroke-linejoin="round"/><path d="M27.81,28.73 L24.34,31.20 L21.21,34.07 L18.45,37.32 L16.11,40.87 L6.51,40.87 L9.12,37.54 L12.22,34.66 L15.73,32.28 L19.55,30.48 L23.62,29.28 L27.81,28.73 L27.81,28.73 Z" fill="#0078d4" stroke="#0078d4" stroke-width="1" stroke-linejoin="round"/><path d="M6.52,71.11 L15.93,71.11 L18.03,74.59 L20.54,77.79 L23.44,80.65 L26.67,83.13 L22.69,82.45 L18.85,81.20 L15.24,79.39 L11.93,77.07 L9.00,74.29 L6.52,71.11 L6.52,71.11 Z" fill="#0078d4" stroke="#0078d4" stroke-width="1" stroke-linejoin="round"/><path d="M32.45,83.08 L35.67,80.61 L38.55,77.76 L41.06,74.58 L43.15,71.11 L52.17,71.11 L49.19,74.82 L45.61,77.95 L41.55,80.42 L37.12,82.15 L32.45,83.08 L32.45,83.08 Z" fill="#0078d4" stroke="#0078d4" stroke-width="1" stroke-linejoin="round"/><path d="M53.22,69.18 L44.09,69.18 L45.40,65.22 L46.22,61.12 L46.51,56.95 L56.65,56.95 L56.15,61.19 L55.00,65.30 L53.22,69.18 L53.22,69.18 Z" fill="#0078d4" stroke="#0078d4" stroke-width="1" stroke-linejoin="round"/></svg>