<svg xmlns="http://www.w3.org/2000/svg" viewBox="-1.82 0.52 100.00 95.28"><path d="M42.03,71.43 L44.16,73.05 L46.66,73.99 L49.33,74.18 L51.94,73.60 L54.28,72.31 L56.16,70.40 L57.41,68.04 L57.94,65.41 L57.71,62.75 L56.72,60.26 L55.07,58.16 L53.51,56.94 L51.72,56.08 L51.72,16.11 L45.76,16.11 L45.76,55.96 L43.30,57.14 L41.29,58.98 L39.90,61.33 L39.26,63.98 L39.42,66.71 L40.36,69.27 L42.02,71.44 L42.03,71.43 Z" fill="#b3b3b3" stroke="#1e1e1e" stroke-width="1" stroke-linejoin="round"/><ellipse cx="48.63" cy="11.83" rx="9.30" ry="9.30" fill="#41d2ee" stroke="#1e1e1e" stroke-width="1"/><path d="M33.16,89.82 L29.62,93.38 L28.90,93.79 L28.07,93.79 L27.35,93.38 L1.16,67.26 L0.46,66.22 L0.21,64.99 L0.46,63.76 L1.15,62.72 L4.69,59.17 L4.69,59.17 L33.16,87.55 L33.58,88.27 L33.58,89.10 L33.16,89.82 L33.16,89.82 Z" fill="#50e6ff" stroke="#1e1e1e" stroke-width="1" stroke-linejoin="round"/><path d="M29.10,36.87 L32.65,40.41 L33.07,41.13 L33.07,41.96 L32.66,42.68 L4.68,70.73 L4.68,70.73 L1.12,67.19 L0.43,66.15 L0.18,64.92 L0.42,63.69 L1.12,62.64 L26.82,36.87 L27.55,36.45 L28.38,36.45 L29.10,36.87 L29.10,36.87 Z" fill="#1490df" stroke="#1e1e1e" stroke-width="1" stroke-linejoin="round"/><path d="M91.67,59.17 L95.21,62.72 L95.90,63.77 L96.15,65.00 L95.90,66.22 L95.20,67.27 L69.01,93.38 L68.29,93.80 L67.46,93.80 L66.74,93.38 L63.20,89.83 L62.78,89.11 L62.78,88.28 L63.20,87.56 L91.67,59.17 L91.67,59.17 L91.67,59.17 Z" fill="#50e6ff" stroke="#1e1e1e" stroke-width="1" stroke-linejoin="round"/><path d="M95.24,67.18 L91.68,70.72 L91.68,70.72 L63.71,42.66 L63.29,41.94 L63.30,41.11 L63.71,40.39 L67.26,36.85 L67.99,36.44 L68.82,36.44 L69.54,36.85 L95.24,62.63 L95.94,63.68 L96.18,64.91 L95.93,66.13 L95.24,67.18 Z" fill="#1490df" stroke="#1e1e1e" stroke-width="1" stroke-linejoin="round"/><ellipse cx="48.53" cy="64.81" rx="9.30" ry="9.30" fill="#71b42b" stroke="#1e1e1e" stroke-width="1"/></svg>