<svg xmlns="http://www.w3.org/2000/svg" viewBox="-1.92 1.47 99.82 93.06"><path d="M44.01,13.45 L49.99,13.45 L49.99,51.17 L44.01,51.17 L44.01,13.45 Z" fill="#7a7a7a" stroke="#7a7a7a" stroke-width="1" stroke-linejoin="round"/><path d="M55.78,12.27 L55.40,14.82 L54.29,17.14 L52.56,19.05 L50.35,20.37 L47.85,20.99 L45.27,20.86 L42.85,19.99 L40.78,18.45 L39.25,16.38 L38.38,13.96 L38.26,11.38 L38.89,8.88 L40.21,6.67 L42.12,4.94 L44.45,3.84 L47.00,3.47 L47.00,3.47 L49.28,3.77 L51.40,4.65 L53.22,6.05 L54.61,7.87 L55.49,9.99 L55.78,12.27 Z" fill="#1490df" stroke="#1e1e1e" stroke-width="1" stroke-linejoin="round"/><path d="M45.80,49.17 L36.20,49.17 L33.28,49.57 L30.54,50.67 L28.15,52.40 L26.25,54.67 L24.97,57.33 L24.38,60.22 L24.52,63.17 L25.37,66.00 L26.89,68.53 L28.98,70.61 L31.52,72.12 L34.35,72.97 L34.21,70.73 L34.46,68.51 L32.20,67.59 L30.35,65.99 L29.11,63.88 L28.60,61.49 L28.88,59.06 L29.93,56.85 L31.62,55.09 L33.79,53.96 L36.20,53.58 L45.80,53.58 L48.15,53.95 L50.26,55.03 L51.94,56.70 L53.02,58.82 L53.39,61.16 L53.02,63.51 L51.94,65.62 L50.26,67.30 L48.15,68.38 L45.80,68.75 L43.17,68.75 L42.77,69.92 L42.63,71.15 L42.73,72.16 L43.01,73.14 L45.82,73.14 L48.97,72.79 L51.92,71.62 L54.46,69.72 L56.41,67.23 L57.64,64.31 L58.06,61.17 L57.64,58.02 L56.41,55.10 L54.46,52.61 L51.92,50.71 L48.97,49.54 L45.82,49.19 L45.80,49.17 Z" fill="#4c98ea" stroke="#1e1e1e" stroke-width="1" stroke-linejoin="round"/><path d="M59.64,59.31 L59.74,60.23 L59.78,61.15 L59.72,62.46 L59.51,63.77 L61.78,64.69 L63.63,66.29 L64.87,68.39 L65.38,70.78 L65.09,73.21 L64.05,75.42 L62.36,77.18 L60.20,78.32 L57.78,78.70 L48.18,78.70 L45.88,78.28 L43.82,77.18 L42.20,75.51 L41.15,73.42 L40.79,71.11 L41.15,68.81 L42.20,66.72 L43.82,65.04 L45.88,63.95 L48.18,63.53 L50.82,63.53 L51.22,62.36 L51.35,61.13 L51.25,60.12 L50.97,59.14 L48.20,59.14 L45.15,59.60 L42.32,60.82 L39.89,62.73 L38.03,65.20 L36.87,68.05 L36.47,71.11 L36.87,74.17 L38.03,77.03 L39.89,79.49 L42.32,81.40 L45.15,82.63 L48.20,83.09 L57.80,83.09 L60.72,82.69 L63.46,81.60 L65.85,79.86 L67.75,77.59 L69.03,74.93 L69.62,72.04 L69.48,69.09 L68.63,66.27 L67.11,63.73 L65.02,61.65 L62.48,60.14 L59.65,59.30 L59.64,59.31 Z" fill="#378fe4" stroke="#1e1e1e" stroke-width="1" stroke-linejoin="round"/><path d="M29.76,88.13 L27.56,90.35 L26.89,90.74 L26.10,90.74 L25.43,90.35 L0.86,65.81 L0.08,64.46 L0.08,62.90 L0.86,61.55 L3.08,59.35 L29.74,85.97 L30.13,86.63 L30.13,87.40 L29.74,88.06 L29.74,88.06 L29.76,88.13 Z" fill="#50e6ff" stroke="#1e1e1e" stroke-width="1" stroke-linejoin="round"/><path d="M27.10,37.44 L29.56,39.89 L29.95,40.57 L29.95,41.35 L29.56,42.03 L3.33,68.31 L0.87,65.88 L0.09,64.52 L0.09,62.96 L0.87,61.61 L24.99,37.44 L25.66,37.05 L26.43,37.05 L27.10,37.44 Z" fill="#1490df" stroke="#1e1e1e" stroke-width="1" stroke-linejoin="round"/><path d="M66.22,89.87 L65.83,89.21 L65.82,88.45 L66.19,87.78 L66.19,87.78 L66.22,87.78 L92.89,61.17 L95.11,63.39 L95.89,64.74 L95.89,66.31 L95.11,67.66 L70.52,92.13 L69.86,92.52 L69.10,92.53 L68.43,92.16 L68.43,92.16 L68.40,92.13 L66.22,89.87 Z" fill="#50e6ff" stroke="#1e1e1e" stroke-width="1" stroke-linejoin="round"/><path d="M70.99,39.19 L95.13,63.39 L95.90,64.73 L95.90,66.27 L95.13,67.62 L92.67,70.07 L66.42,43.77 L66.04,43.09 L66.04,42.31 L66.42,41.63 L68.87,39.20 L69.55,38.81 L70.32,38.81 L70.99,39.19 Z" fill="#1490df" stroke="#1e1e1e" stroke-width="1" stroke-linejoin="round"/></svg>