<svg xmlns="http://www.w3.org/2000/svg" viewBox="-1.91 18.29 99.80 59.48"><path d="M45.80,32.41 L36.20,32.41 L33.28,32.80 L30.54,33.90 L28.15,35.63 L26.25,37.90 L24.97,40.56 L24.38,43.45 L24.52,46.40 L25.37,49.23 L26.89,51.76 L28.98,53.84 L31.52,55.35 L34.35,56.20 L34.22,53.96 L34.49,51.73 L32.22,50.81 L30.37,49.21 L29.13,47.10 L28.62,44.71 L28.91,42.29 L29.95,40.07 L31.64,38.31 L33.81,37.18 L36.22,36.80 L45.82,36.80 L48.17,37.17 L50.28,38.25 L51.96,39.93 L53.04,42.04 L53.41,44.38 L53.04,46.73 L51.96,48.84 L50.28,50.52 L48.17,51.60 L45.82,51.97 L43.17,51.97 L42.77,53.14 L42.63,54.36 L42.73,55.38 L43.01,56.36 L45.82,56.36 L48.97,56.00 L51.92,54.84 L54.46,52.94 L56.41,50.44 L57.64,47.52 L58.06,44.38 L57.64,41.24 L56.41,38.32 L54.46,35.82 L51.92,33.92 L48.97,32.76 L45.82,32.41 L45.80,32.41 Z" fill="#4193e7" stroke="#1e1e1e" stroke-width="1" stroke-linejoin="round"/><path d="M59.64,42.54 L59.74,43.46 L59.78,44.38 L59.72,45.70 L59.51,47.00 L61.78,47.92 L63.63,49.52 L64.87,51.62 L65.38,54.01 L65.09,56.44 L64.05,58.65 L62.36,60.42 L60.20,61.55 L57.78,61.93 L48.18,61.93 L45.84,61.56 L43.72,60.48 L42.05,58.80 L40.97,56.69 L40.60,54.35 L40.97,52.00 L42.05,49.89 L43.72,48.21 L45.84,47.13 L48.18,46.76 L50.82,46.76 L51.22,45.60 L51.35,44.37 L51.25,43.35 L50.97,42.37 L48.20,42.37 L45.15,42.83 L42.32,44.06 L39.89,45.96 L38.03,48.43 L36.87,51.28 L36.47,54.34 L36.87,57.40 L38.03,60.26 L39.89,62.72 L42.32,64.63 L45.15,65.86 L48.20,66.32 L57.80,66.32 L60.72,65.93 L63.46,64.83 L65.85,63.09 L67.75,60.83 L69.03,58.17 L69.62,55.27 L69.48,52.32 L68.63,49.50 L67.11,46.96 L65.02,44.88 L62.48,43.37 L59.65,42.53 L59.64,42.54 Z" fill="#368fe3" stroke="#1e1e1e" stroke-width="1" stroke-linejoin="round"/><path d="M29.76,71.37 L27.56,73.58 L26.89,73.98 L26.11,73.98 L25.43,73.58 L0.87,49.07 L0.09,47.71 L0.09,46.15 L0.87,44.80 L3.09,42.62 L29.76,69.25 L30.14,69.91 L30.14,70.68 L29.76,71.34 L29.76,71.34 L29.76,71.37 Z" fill="#50e6ff" stroke="#1e1e1e" stroke-width="1" stroke-linejoin="round"/><path d="M27.10,20.67 L29.56,23.13 L29.95,23.80 L29.95,24.58 L29.56,25.26 L3.33,51.55 L0.87,49.11 L0.09,47.76 L0.09,46.20 L0.87,44.85 L24.99,20.67 L25.66,20.29 L26.43,20.29 L27.10,20.67 Z" fill="#1490df" stroke="#1e1e1e" stroke-width="1" stroke-linejoin="round"/><path d="M66.22,73.10 L65.83,72.45 L65.82,71.69 L66.19,71.02 L66.19,71.02 L66.22,71.02 L92.89,44.42 L95.11,46.63 L95.89,47.98 L95.89,49.54 L95.11,50.90 L70.52,75.37 L69.86,75.76 L69.10,75.77 L68.43,75.40 L68.43,75.40 L68.40,75.37 L66.22,73.10 Z" fill="#50e6ff" stroke="#1e1e1e" stroke-width="1" stroke-linejoin="round"/><path d="M70.99,22.43 L95.13,46.62 L95.90,47.96 L95.90,49.51 L95.13,50.85 L92.67,53.30 L66.42,27.00 L66.04,26.32 L66.04,25.54 L66.42,24.86 L68.87,22.43 L69.55,22.04 L70.32,22.04 L70.99,22.43 Z" fill="#1490df" stroke="#1e1e1e" stroke-width="1" stroke-linejoin="round"/></svg>