<svg xmlns="http://www.w3.org/2000/svg" viewBox="-1.82 0.51 99.63 94.93"><path d="M41.87,71.16 L43.99,72.77 L46.49,73.70 L49.14,73.89 L51.75,73.32 L54.08,72.03 L55.94,70.13 L57.19,67.78 L57.72,65.16 L57.49,62.51 L56.50,60.03 L54.86,57.94 L53.30,56.72 L51.52,55.86 L51.52,16.05 L45.59,16.05 L45.59,55.75 L43.14,56.92 L41.13,58.76 L39.75,61.10 L39.11,63.74 L39.27,66.45 L40.21,69.00 L41.86,71.17 L41.87,71.16 Z" fill="#b3b3b3" stroke="#1e1e1e" stroke-width="1" stroke-linejoin="round"/><ellipse cx="48.45" cy="11.78" rx="9.27" ry="9.27" fill="#41d2ee" stroke="#1e1e1e" stroke-width="1"/><path d="M33.04,89.48 L29.51,93.02 L28.79,93.43 L27.96,93.44 L27.25,93.02 L1.15,67.00 L0.46,65.97 L0.21,64.74 L0.46,63.52 L1.15,62.48 L4.68,58.94 L4.68,58.94 L33.03,87.22 L33.45,87.93 L33.45,88.76 L33.04,89.48 L33.04,89.48 Z" fill="#50e6ff" stroke="#1e1e1e" stroke-width="1" stroke-linejoin="round"/><path d="M28.99,36.73 L32.53,40.25 L32.94,40.97 L32.94,41.80 L32.53,42.52 L4.66,70.46 L4.66,70.46 L1.12,66.93 L0.42,65.89 L0.18,64.67 L0.42,63.44 L1.11,62.41 L26.72,36.72 L27.44,36.31 L28.27,36.31 L28.99,36.73 L28.99,36.73 Z" fill="#1490df" stroke="#1e1e1e" stroke-width="1" stroke-linejoin="round"/><path d="M91.32,58.94 L94.84,62.48 L95.54,63.52 L95.78,64.75 L95.53,65.97 L94.84,67.01 L68.75,93.03 L68.03,93.44 L67.20,93.44 L66.48,93.02 L62.95,89.49 L62.54,88.77 L62.54,87.94 L62.96,87.22 L91.32,58.94 L91.32,58.94 L91.32,58.94 Z" fill="#50e6ff" stroke="#1e1e1e" stroke-width="1" stroke-linejoin="round"/><path d="M94.87,66.92 L91.33,70.45 L91.33,70.45 L63.47,42.50 L63.05,41.78 L63.05,40.95 L63.47,40.24 L67.01,36.71 L67.73,36.30 L68.55,36.30 L69.27,36.71 L94.88,62.39 L95.57,63.43 L95.81,64.66 L95.57,65.88 L94.87,66.92 Z" fill="#1490df" stroke="#1e1e1e" stroke-width="1" stroke-linejoin="round"/><ellipse cx="48.35" cy="64.57" rx="9.27" ry="9.27" fill="#71b42b" stroke="#1e1e1e" stroke-width="1"/></svg>