<svg xmlns="http://www.w3.org/2000/svg" viewBox="-1.91 18.33 100.00 59.60"><path d="M45.90,32.47 L36.28,32.47 L33.35,32.87 L30.60,33.97 L28.21,35.71 L26.31,37.98 L25.03,40.64 L24.43,43.54 L24.57,46.50 L25.42,49.33 L26.94,51.87 L29.04,53.96 L31.58,55.47 L34.42,56.31 L34.29,54.07 L34.56,51.84 L32.29,50.91 L30.44,49.31 L29.19,47.20 L28.68,44.81 L28.97,42.37 L30.01,40.16 L31.71,38.39 L33.88,37.26 L36.30,36.88 L45.92,36.88 L48.27,37.25 L50.39,38.33 L52.07,40.01 L53.15,42.13 L53.52,44.48 L53.15,46.82 L52.07,48.94 L50.39,50.62 L48.27,51.70 L45.92,52.08 L43.26,52.08 L42.86,53.25 L42.72,54.48 L42.82,55.49 L43.10,56.47 L45.92,56.47 L49.08,56.12 L52.03,54.95 L54.57,53.05 L56.53,50.55 L57.76,47.62 L58.18,44.47 L57.76,41.33 L56.53,38.40 L54.57,35.90 L52.03,33.99 L49.08,32.83 L45.92,32.47 L45.90,32.47 Z" fill="#4193e7" stroke="#1e1e1e" stroke-width="1" stroke-linejoin="round"/><path d="M59.76,42.63 L59.86,43.55 L59.90,44.48 L59.84,45.79 L59.64,47.10 L61.91,48.02 L63.76,49.62 L65.00,51.73 L65.51,54.13 L65.23,56.56 L64.19,58.78 L62.49,60.54 L60.32,61.68 L57.90,62.06 L48.28,62.06 L45.93,61.69 L43.81,60.61 L42.13,58.93 L41.05,56.81 L40.68,54.46 L41.05,52.11 L42.13,49.99 L43.81,48.31 L45.93,47.23 L48.28,46.86 L50.92,46.86 L51.32,45.69 L51.46,44.46 L51.36,43.44 L51.08,42.46 L48.30,42.46 L45.24,42.92 L42.40,44.15 L39.97,46.06 L38.11,48.53 L36.95,51.39 L36.55,54.46 L36.95,57.52 L38.11,60.39 L39.97,62.85 L42.40,64.77 L45.24,66.00 L48.30,66.46 L57.92,66.46 L60.85,66.06 L63.60,64.96 L65.99,63.22 L67.89,60.95 L69.17,58.29 L69.76,55.39 L69.63,52.43 L68.77,49.60 L67.25,47.06 L65.16,44.97 L62.61,43.46 L59.78,42.62 L59.76,42.63 Z" fill="#368fe3" stroke="#1e1e1e" stroke-width="1" stroke-linejoin="round"/><path d="M29.82,71.51 L27.62,73.74 L26.94,74.13 L26.16,74.13 L25.48,73.74 L0.88,49.17 L0.09,47.81 L0.09,46.25 L0.88,44.89 L3.10,42.71 L29.82,69.40 L30.21,70.06 L30.21,70.82 L29.82,71.49 L29.82,71.49 L29.82,71.51 Z" fill="#50e6ff" stroke="#1e1e1e" stroke-width="1" stroke-linejoin="round"/><path d="M27.16,20.72 L29.62,23.17 L30.01,23.85 L30.01,24.63 L29.62,25.31 L3.34,51.65 L0.88,49.22 L0.09,47.86 L0.09,46.30 L0.88,44.94 L25.04,20.72 L25.71,20.33 L26.49,20.33 L27.16,20.72 Z" fill="#1490df" stroke="#1e1e1e" stroke-width="1" stroke-linejoin="round"/><path d="M66.36,73.26 L65.97,72.60 L65.96,71.83 L66.33,71.17 L66.33,71.17 L66.36,71.17 L93.08,44.51 L95.31,46.73 L96.09,48.08 L96.09,49.65 L95.31,51.00 L70.66,75.52 L70.01,75.92 L69.24,75.93 L68.57,75.55 L68.57,75.55 L68.54,75.53 L66.36,73.26 Z" fill="#50e6ff" stroke="#1e1e1e" stroke-width="1" stroke-linejoin="round"/><path d="M71.14,22.47 L95.32,46.72 L96.09,48.06 L96.09,49.61 L95.32,50.95 L92.86,53.41 L66.56,27.05 L66.18,26.37 L66.18,25.59 L66.56,24.92 L69.02,22.47 L69.69,22.09 L70.47,22.09 L71.14,22.47 Z" fill="#1490df" stroke="#1e1e1e" stroke-width="1" stroke-linejoin="round"/></svg>