<svg xmlns="http://www.w3.org/2000/svg" viewBox="-1.92 1.47 100.00 93.23"><path d="M44.09,13.47 L50.09,13.47 L50.09,51.27 L44.09,51.27 L44.09,13.47 Z" fill="#7a7a7a" stroke="#7a7a7a" stroke-width="1" stroke-linejoin="round"/><path d="M55.89,12.29 L55.50,14.84 L54.40,17.18 L52.66,19.09 L50.44,20.41 L47.94,21.03 L45.36,20.90 L42.93,20.03 L40.86,18.49 L39.32,16.41 L38.45,13.98 L38.33,11.40 L38.96,8.90 L40.29,6.69 L42.20,4.95 L44.54,3.85 L47.09,3.47 L47.09,3.47 L49.37,3.77 L51.50,4.66 L53.32,6.06 L54.72,7.88 L55.59,10.01 L55.89,12.29 Z" fill="#1490df" stroke="#1e1e1e" stroke-width="1" stroke-linejoin="round"/><path d="M45.89,49.27 L36.27,49.27 L33.34,49.66 L30.59,50.76 L28.20,52.50 L26.30,54.77 L25.02,57.44 L24.43,60.34 L24.57,63.29 L25.42,66.12 L26.94,68.66 L29.04,70.75 L31.58,72.26 L34.41,73.10 L34.28,70.87 L34.53,68.64 L32.26,67.72 L30.41,66.11 L29.16,64.01 L28.66,61.61 L28.94,59.18 L29.98,56.96 L31.68,55.20 L33.85,54.06 L36.27,53.68 L45.89,53.68 L48.24,54.05 L50.36,55.13 L52.04,56.81 L53.12,58.93 L53.49,61.28 L53.12,63.63 L52.04,65.75 L50.36,67.43 L48.24,68.51 L45.89,68.88 L43.25,68.88 L42.85,70.05 L42.72,71.28 L42.81,72.30 L43.10,73.28 L45.91,73.28 L49.07,72.93 L52.02,71.76 L54.56,69.86 L56.52,67.36 L57.75,64.43 L58.17,61.28 L57.75,58.14 L56.52,55.21 L54.56,52.71 L52.02,50.81 L49.07,49.64 L45.91,49.28 L45.89,49.27 Z" fill="#4c98ea" stroke="#1e1e1e" stroke-width="1" stroke-linejoin="round"/><path d="M59.75,59.43 L59.85,60.34 L59.89,61.26 L59.83,62.58 L59.63,63.89 L61.90,64.81 L63.75,66.41 L64.99,68.52 L65.50,70.92 L65.22,73.35 L64.18,75.57 L62.48,77.33 L60.31,78.47 L57.89,78.85 L48.27,78.85 L45.97,78.43 L43.91,77.33 L42.28,75.65 L41.23,73.56 L40.87,71.25 L41.23,68.94 L42.28,66.84 L43.91,65.17 L45.97,64.07 L48.27,63.65 L50.91,63.65 L51.31,62.48 L51.45,61.25 L51.35,60.23 L51.07,59.25 L48.29,59.25 L45.23,59.71 L42.40,60.94 L39.97,62.85 L38.11,65.32 L36.94,68.18 L36.54,71.25 L36.94,74.31 L38.11,77.18 L39.97,79.64 L42.40,81.56 L45.23,82.78 L48.29,83.25 L57.91,83.25 L60.84,82.85 L63.59,81.75 L65.98,80.01 L67.87,77.74 L69.16,75.08 L69.75,72.18 L69.61,69.22 L68.76,66.39 L67.24,63.85 L65.14,61.77 L62.60,60.25 L59.77,59.41 L59.75,59.43 Z" fill="#378fe4" stroke="#1e1e1e" stroke-width="1" stroke-linejoin="round"/><path d="M29.82,88.30 L27.62,90.52 L26.94,90.92 L26.15,90.92 L25.48,90.52 L0.86,65.94 L0.08,64.58 L0.08,63.02 L0.86,61.66 L3.08,59.46 L29.80,86.14 L30.18,86.80 L30.18,87.57 L29.80,88.23 L29.80,88.23 L29.82,88.30 Z" fill="#50e6ff" stroke="#1e1e1e" stroke-width="1" stroke-linejoin="round"/><path d="M27.16,37.51 L29.61,39.97 L30.01,40.65 L30.01,41.43 L29.61,42.11 L3.34,68.45 L0.88,66.00 L0.09,64.65 L0.09,63.08 L0.88,61.73 L25.03,37.51 L25.71,37.12 L26.48,37.12 L27.16,37.51 Z" fill="#1490df" stroke="#1e1e1e" stroke-width="1" stroke-linejoin="round"/><path d="M66.35,90.04 L65.96,89.39 L65.95,88.62 L66.32,87.95 L66.32,87.95 L66.35,87.95 L93.07,61.29 L95.29,63.51 L96.07,64.87 L96.07,66.43 L95.29,67.79 L70.65,92.30 L70.00,92.70 L69.23,92.71 L68.56,92.34 L68.56,92.34 L68.53,92.31 L66.35,90.04 Z" fill="#50e6ff" stroke="#1e1e1e" stroke-width="1" stroke-linejoin="round"/><path d="M71.13,39.27 L95.31,63.51 L96.08,64.85 L96.08,66.40 L95.31,67.75 L92.84,70.20 L66.55,43.85 L66.17,43.17 L66.17,42.39 L66.55,41.71 L69.01,39.28 L69.68,38.89 L70.45,38.89 L71.13,39.27 Z" fill="#1490df" stroke="#1e1e1e" stroke-width="1" stroke-linejoin="round"/></svg>