<svg xmlns="http://www.w3.org/2000/svg" viewBox="-2.11 -0.34 100.00 96.33"><path d="M0.00,82.98 L0.12,83.45 L0.48,83.78 L6.97,87.50 L17.98,93.89 L18.68,93.98 L19.26,93.57 L22.98,87.08 L23.21,86.49 L22.98,85.91 L9.68,78.35 L9.37,78.01 L9.26,77.56 L9.26,18.19 L9.37,17.74 L9.68,17.39 L22.61,9.95 L23.04,9.44 L22.98,8.78 L19.26,2.13 L18.68,1.71 L17.98,1.81 L7.34,8.09 L0.43,11.97 L0.07,12.30 L-0.05,12.77 L0.00,82.98 Z" fill="#949494" stroke="#1e1e1e" stroke-width="1" stroke-linejoin="round"/><path d="M22.87,8.67 L19.26,2.13 L18.84,1.77 L18.30,1.70 L18.09,1.66 L17.87,1.70 L7.23,7.98 L0.32,11.97 L0.00,12.23 L0.00,12.66 L9.26,17.98 L9.37,17.53 L9.68,17.18 L22.61,9.73 L23.04,9.23 L22.98,8.56 L22.87,8.67 Z" fill="#a3a3a3" stroke="#1e1e1e" stroke-width="1" stroke-linejoin="round"/><path d="M22.87,87.08 L19.15,93.57 L18.73,93.92 L18.19,93.99 L17.77,93.99 L7.13,87.72 L0.21,83.73 L-0.11,83.41 L-0.11,82.98 L9.15,77.66 L9.26,78.11 L9.57,78.46 L22.50,85.91 L22.88,86.40 L22.82,87.02 L22.87,87.08 Z" fill="#a3a3a3" stroke="#1e1e1e" stroke-width="1" stroke-linejoin="round"/><path d="M95.75,12.77 L95.63,12.30 L95.27,11.97 L88.78,8.24 L77.77,1.86 L77.07,1.77 L76.49,2.18 L72.77,8.67 L72.64,9.32 L73.03,9.84 L85.96,17.29 L86.27,17.63 L86.39,18.09 L86.39,77.50 L86.27,77.95 L85.96,78.30 L73.03,85.75 L72.60,86.25 L72.66,86.92 L76.38,93.41 L76.96,93.82 L77.66,93.73 L88.30,87.45 L95.00,83.57 L95.36,83.24 L95.48,82.77 L95.48,12.77 L95.75,12.77 Z" fill="#949494" stroke="#1e1e1e" stroke-width="1" stroke-linejoin="round"/><path d="M72.87,87.08 L76.60,93.57 L77.01,93.92 L77.56,93.99 L77.98,93.99 L88.62,87.72 L95.32,83.83 L95.85,83.51 L95.89,83.30 L95.85,83.09 L86.60,77.77 L86.49,78.22 L86.17,78.57 L73.25,86.01 L72.92,86.47 L72.93,87.02 L72.87,87.08 Z" fill="#a3a3a3" stroke="#1e1e1e" stroke-width="1" stroke-linejoin="round"/><path d="M72.87,8.67 L76.60,2.13 L77.01,1.77 L77.56,1.70 L77.77,1.66 L77.98,1.70 L88.62,7.98 L95.32,11.86 L95.85,12.18 L95.89,12.39 L95.85,12.61 L86.60,17.93 L86.49,17.47 L86.17,17.13 L73.25,9.84 L72.81,9.33 L72.87,8.67 L72.87,8.67 Z" fill="#a3a3a3" stroke="#1e1e1e" stroke-width="1" stroke-linejoin="round"/><path d="M45.32,68.62 L45.10,69.42 L44.49,69.99 L43.67,70.16 L17.93,70.16 L17.11,70.00 L16.49,69.46 L16.22,68.67 L16.22,26.92 L16.46,26.12 L17.07,25.56 L17.87,25.37 L43.62,25.37 L44.43,25.54 L45.04,26.11 L45.27,26.92 L45.32,68.62 Z" fill="#999999" stroke="#1e1e1e" stroke-width="1" stroke-linejoin="round"/><path d="M20.53,44.52 L20.72,43.25 L21.38,42.14 L22.42,41.38 L23.67,41.06 L38.14,41.06 L39.40,41.38 L40.44,42.14 L41.12,43.24 L41.33,44.52 L41.14,45.82 L40.46,46.94 L39.41,47.72 L38.14,48.03 L23.67,48.03 L22.43,47.71 L21.40,46.94 L20.74,45.84 L20.53,44.58 L20.53,44.52 Z" fill="#003067" stroke="#003067" stroke-width="1" stroke-linejoin="round"/><path d="M20.53,34.20 L20.72,32.92 L21.38,31.80 L22.42,31.02 L23.67,30.69 L38.14,30.69 L39.41,31.01 L40.46,31.79 L41.14,32.91 L41.33,34.20 L41.12,35.48 L40.44,36.59 L39.40,37.35 L38.14,37.66 L23.67,37.66 L22.43,37.34 L21.40,36.57 L20.74,35.47 L20.53,34.20 L20.53,34.20 Z" fill="#003067" stroke="#003067" stroke-width="1" stroke-linejoin="round"/><ellipse cx="24.58" cy="34.20" rx="2.34" ry="2.34" fill="#50e6ff" stroke="#50e6ff" stroke-width="1"/><ellipse cx="24.58" cy="44.52" rx="2.34" ry="2.34" fill="#50e6ff" stroke="#50e6ff" stroke-width="1"/><path d="M80.21,68.62 L79.99,69.42 L79.38,69.99 L78.57,70.16 L52.82,70.16 L52.01,70.00 L51.38,69.46 L51.12,68.67 L51.12,26.92 L51.36,26.12 L51.96,25.56 L52.77,25.37 L78.51,25.37 L79.33,25.53 L79.95,26.08 L80.21,26.86 L80.21,68.62 Z" fill="#999999" stroke="#1e1e1e" stroke-width="1" stroke-linejoin="round"/><path d="M55.32,44.52 L55.54,43.25 L56.22,42.15 L57.26,41.39 L58.51,41.06 L72.98,41.06 L74.24,41.38 L75.29,42.14 L75.96,43.24 L76.17,44.52 L75.98,45.82 L75.30,46.94 L74.25,47.72 L72.98,48.03 L58.51,48.03 L57.24,47.72 L56.19,46.94 L55.51,45.82 L55.32,44.52 Z" fill="#003067" stroke="#003067" stroke-width="1" stroke-linejoin="round"/><path d="M55.32,34.20 L55.53,32.92 L56.20,31.80 L57.25,31.02 L58.51,30.69 L72.98,30.69 L74.25,31.01 L75.30,31.79 L75.98,32.91 L76.17,34.20 L75.96,35.48 L75.29,36.59 L74.24,37.35 L72.98,37.66 L58.51,37.66 L57.26,37.34 L56.22,36.57 L55.54,35.47 L55.32,34.20 L55.32,34.20 Z" fill="#003067" stroke="#003067" stroke-width="1" stroke-linejoin="round"/><ellipse cx="59.47" cy="34.20" rx="2.34" ry="2.34" fill="#50e6ff" stroke="#50e6ff" stroke-width="1"/><ellipse cx="59.47" cy="44.52" rx="2.34" ry="2.34" fill="#50e6ff" stroke="#50e6ff" stroke-width="1"/></svg>