<svg xmlns="http://www.w3.org/2000/svg" viewBox="0.67 9.57 94.67 76.91"><path d="M2.67,30.88 L93.33,30.88 L93.33,30.88 L93.33,81.44 L92.93,82.96 L91.81,84.07 L90.29,84.48 L5.71,84.48 L4.19,84.07 L3.07,82.96 L2.67,81.44 L2.67,30.88 L2.67,30.88 Z" fill="#32d2f3" stroke="#1e1e1e" stroke-width="1" stroke-linejoin="round"/><path d="M5.71,11.57 L90.29,11.57 L91.81,11.98 L92.93,13.09 L93.33,14.61 L93.33,30.88 L93.33,30.88 L2.67,30.88 L2.67,30.88 L2.67,14.56 L3.09,13.06 L4.20,11.97 L5.71,11.57 L5.71,11.57 Z" fill="#767676" stroke="#1e1e1e" stroke-width="1" stroke-linejoin="round"/><ellipse cx="68.37" cy="54.35" rx="7.36" ry="7.36" fill="#f2f2f2" stroke="#f2f2f2" stroke-width="1"/><ellipse cx="48.32" cy="54.35" rx="7.36" ry="7.36" fill="#f2f2f2" stroke="#f2f2f2" stroke-width="1"/><ellipse cx="27.63" cy="54.35" rx="7.36" ry="7.36" fill="#f2f2f2" stroke="#f2f2f2" stroke-width="1"/><rect x="14.88" y="17.33" width="66.29" height="7.79" fill="#f2f2f2" stroke="#f2f2f2" stroke-width="1"/></svg>