<svg xmlns="http://www.w3.org/2000/svg" viewBox="0.67 9.57 94.67 76.91"><path d="M2.67,30.88 L93.33,30.88 L93.33,30.88 L93.33,81.44 L92.93,82.96 L91.81,84.07 L90.29,84.48 L5.71,84.48 L4.19,84.07 L3.07,82.96 L2.67,81.44 L2.67,30.88 L2.67,30.88 Z" fill="#32d2f3" stroke="#1e1e1e" stroke-width="1" stroke-linejoin="round"/><path d="M5.71,11.57 L90.29,11.57 L91.81,11.98 L92.93,13.09 L93.33,14.61 L93.33,30.88 L93.33,30.88 L2.67,30.88 L2.67,30.88 L2.67,14.56 L3.09,13.06 L4.20,11.97 L5.71,11.57 L5.71,11.57 Z" fill="#767676" stroke="#1e1e1e" stroke-width="1" stroke-linejoin="round"/><ellipse cx="68.37" cy="54.35" rx="7.36" ry="7.36" fill="#f2f2f2" stroke="#f2f2f2" stroke-width="1"/><ellipse cx="48.32" cy="54.35" rx="7.36" ry="7.36" fill="#f2f2f2" stroke="#f2f2f2" stroke-width="1"/><ellipse cx="27.63" cy="54.35" rx="7.36" ry="7.36" fill="#f2f2f2" stroke="#f2f2f2" stroke-width="1"/><path d="M79.68,17.33 L80.07,17.38 L80.43,17.53 L80.74,17.77 L80.97,18.08 L81.12,18.44 L81.17,18.83 L81.17,23.63 L81.12,24.01 L80.97,24.37 L80.74,24.68 L80.43,24.92 L80.07,25.07 L79.68,25.12 L16.37,25.12 L15.99,25.07 L15.63,24.92 L15.32,24.68 L15.08,24.37 L14.93,24.01 L14.88,23.63 L14.88,18.83 L14.93,18.44 L15.08,18.08 L15.32,17.77 L15.63,17.53 L15.99,17.38 L16.37,17.33 L79.68,17.33 Z" fill="#f2f2f2" stroke="#f2f2f2" stroke-width="1" stroke-linejoin="round"/></svg>