<svg xmlns="http://www.w3.org/2000/svg" viewBox="-2.00 8.67 100.00 78.67"><path d="M0.00,22.19 L53.92,22.19 L53.92,52.27 L53.68,53.17 L53.01,53.84 L52.11,54.08 L1.81,54.08 L0.91,53.84 L0.24,53.17 L0.00,52.27 L0.00,52.27 L0.00,22.19 Z" fill="#32d2f3" stroke="#1e1e1e" stroke-width="1" stroke-linejoin="round"/><path d="M1.81,10.67 L52.11,10.67 L53.01,10.91 L53.68,11.57 L53.92,12.48 L53.92,12.48 L53.92,22.19 L0.00,22.19 L0.00,12.48 L0.24,11.57 L0.91,10.91 L1.81,10.67 L1.81,10.67 Z" fill="#767676" stroke="#1e1e1e" stroke-width="1" stroke-linejoin="round"/><path d="M45.76,14.13 L45.99,14.16 L46.21,14.25 L46.40,14.40 L46.55,14.59 L46.64,14.81 L46.67,15.04 L46.67,17.87 L46.64,18.10 L46.55,18.32 L46.40,18.51 L46.21,18.65 L45.99,18.74 L45.76,18.77 L8.16,18.77 L7.93,18.74 L7.71,18.65 L7.52,18.51 L7.37,18.32 L7.28,18.10 L7.25,17.87 L7.25,15.04 L7.28,14.81 L7.37,14.59 L7.52,14.40 L7.71,14.25 L7.93,14.16 L8.16,14.13 L45.76,14.13 Z" fill="#f2f2f2" stroke="#f2f2f2" stroke-width="1" stroke-linejoin="round"/><path d="M21.01,37.76 L74.99,37.76 L74.99,67.84 L74.74,68.75 L74.08,69.41 L73.17,69.65 L22.83,69.65 L21.92,69.41 L21.26,68.75 L21.01,67.84 L21.01,67.84 L21.01,37.76 Z" fill="#32d2f3" stroke="#1e1e1e" stroke-width="1" stroke-linejoin="round"/><path d="M22.83,26.29 L73.12,26.29 L74.03,26.54 L74.69,27.20 L74.93,28.11 L74.93,28.11 L74.93,37.76 L21.07,37.76 L21.07,28.11 L21.30,27.22 L21.94,26.55 L22.83,26.29 L22.83,26.29 Z" fill="#767676" stroke="#1e1e1e" stroke-width="1" stroke-linejoin="round"/><path d="M66.77,29.76 L67.01,29.79 L67.23,29.88 L67.41,30.03 L67.56,30.21 L67.65,30.43 L67.68,30.67 L67.68,33.49 L67.65,33.73 L67.56,33.95 L67.41,34.13 L67.23,34.28 L67.01,34.37 L66.77,34.40 L29.17,34.40 L28.94,34.37 L28.72,34.28 L28.53,34.13 L28.39,33.95 L28.30,33.73 L28.27,33.49 L28.27,30.67 L28.30,30.43 L28.39,30.21 L28.53,30.03 L28.72,29.88 L28.94,29.79 L29.17,29.76 L66.77,29.76 Z" fill="#f2f2f2" stroke="#f2f2f2" stroke-width="1" stroke-linejoin="round"/><path d="M42.08,53.44 L96.00,53.44 L96.00,83.52 L95.76,84.43 L95.09,85.09 L94.19,85.33 L43.89,85.33 L42.99,85.09 L42.32,84.43 L42.08,83.52 L42.08,83.52 L42.08,53.44 Z" fill="#32d2f3" stroke="#1e1e1e" stroke-width="1" stroke-linejoin="round"/><path d="M43.89,41.92 L94.19,41.92 L95.09,42.16 L95.76,42.83 L96.00,43.73 L96.00,53.44 L42.08,53.44 L42.08,43.73 L42.32,42.83 L42.99,42.16 L43.89,41.92 L43.89,41.92 Z" fill="#767676" stroke="#1e1e1e" stroke-width="1" stroke-linejoin="round"/><ellipse cx="81.17" cy="67.41" rx="4.37" ry="4.37" fill="#f2f2f2" stroke="#f2f2f2" stroke-width="1"/><ellipse cx="69.23" cy="67.41" rx="4.37" ry="4.37" fill="#f2f2f2" stroke="#f2f2f2" stroke-width="1"/><ellipse cx="56.91" cy="67.41" rx="4.37" ry="4.37" fill="#f2f2f2" stroke="#f2f2f2" stroke-width="1"/><path d="M87.84,45.39 L88.07,45.42 L88.29,45.51 L88.48,45.65 L88.63,45.84 L88.72,46.06 L88.75,46.29 L88.75,49.12 L88.72,49.35 L88.63,49.57 L88.48,49.76 L88.29,49.91 L88.07,50.00 L87.84,50.03 L50.24,50.03 L50.01,50.00 L49.79,49.91 L49.60,49.76 L49.45,49.57 L49.36,49.35 L49.33,49.12 L49.33,46.29 L49.36,46.06 L49.45,45.84 L49.60,45.65 L49.79,45.51 L50.01,45.42 L50.24,45.39 L87.84,45.39 Z" fill="#f2f2f2" stroke="#f2f2f2" stroke-width="1" stroke-linejoin="round"/></svg>