<svg xmlns="http://www.w3.org/2000/svg" viewBox="-2.00 8.67 100.00 78.67"><path d="M0.00,22.19 L53.92,22.19 L53.92,52.27 L53.68,53.17 L53.01,53.84 L52.11,54.08 L1.81,54.08 L0.91,53.84 L0.24,53.17 L0.00,52.27 L0.00,52.27 L0.00,22.19 Z" fill="#32d2f3" stroke="#1e1e1e" stroke-width="1" stroke-linejoin="round"/><path d="M1.81,10.67 L52.11,10.67 L53.01,10.91 L53.68,11.57 L53.92,12.48 L53.92,12.48 L53.92,22.19 L0.00,22.19 L0.00,12.48 L0.24,11.57 L0.91,10.91 L1.81,10.67 L1.81,10.67 Z" fill="#767676" stroke="#1e1e1e" stroke-width="1" stroke-linejoin="round"/><rect x="7.25" y="14.13" width="39.41" height="4.64" fill="#f2f2f2" stroke="#f2f2f2" stroke-width="1"/><path d="M21.01,37.76 L74.99,37.76 L74.99,67.84 L74.74,68.75 L74.08,69.41 L73.17,69.65 L22.83,69.65 L21.92,69.41 L21.26,68.75 L21.01,67.84 L21.01,67.84 L21.01,37.76 Z" fill="#32d2f3" stroke="#1e1e1e" stroke-width="1" stroke-linejoin="round"/><path d="M22.83,26.29 L73.12,26.29 L74.03,26.54 L74.69,27.20 L74.93,28.11 L74.93,28.11 L74.93,37.76 L21.07,37.76 L21.07,28.11 L21.30,27.22 L21.94,26.55 L22.83,26.29 L22.83,26.29 Z" fill="#767676" stroke="#1e1e1e" stroke-width="1" stroke-linejoin="round"/><rect x="28.27" y="29.76" width="39.41" height="4.64" fill="#f2f2f2" stroke="#f2f2f2" stroke-width="1"/><path d="M42.08,53.44 L96.00,53.44 L96.00,83.52 L95.76,84.43 L95.09,85.09 L94.19,85.33 L43.89,85.33 L42.99,85.09 L42.32,84.43 L42.08,83.52 L42.08,83.52 L42.08,53.44 Z" fill="#32d2f3" stroke="#1e1e1e" stroke-width="1" stroke-linejoin="round"/><path d="M43.89,41.92 L94.19,41.92 L95.09,42.16 L95.76,42.83 L96.00,43.73 L96.00,53.44 L42.08,53.44 L42.08,43.73 L42.32,42.83 L42.99,42.16 L43.89,41.92 L43.89,41.92 Z" fill="#767676" stroke="#1e1e1e" stroke-width="1" stroke-linejoin="round"/><ellipse cx="81.17" cy="67.41" rx="4.37" ry="4.37" fill="#f2f2f2" stroke="#f2f2f2" stroke-width="1"/><ellipse cx="69.23" cy="67.41" rx="4.37" ry="4.37" fill="#f2f2f2" stroke="#f2f2f2" stroke-width="1"/><ellipse cx="56.91" cy="67.41" rx="4.37" ry="4.37" fill="#f2f2f2" stroke="#f2f2f2" stroke-width="1"/><rect x="49.33" y="45.39" width="39.41" height="4.64" fill="#f2f2f2" stroke="#f2f2f2" stroke-width="1"/></svg>