<svg xmlns="http://www.w3.org/2000/svg" viewBox="-0.48 8.63 96.96 78.74"><path d="M1.52,30.44 L94.48,30.44 L94.48,30.44 L94.48,84.20 L94.14,85.03 L93.31,85.37 L2.69,85.37 L1.86,85.03 L1.52,84.20 L1.52,30.44 L1.52,30.44 Z" fill="#32d2f3" stroke="#1e1e1e" stroke-width="1" stroke-linejoin="round"/><path d="M2.71,10.63 L93.29,10.63 L94.12,10.97 L94.46,11.80 L94.46,30.44 L94.46,30.44 L1.54,30.44 L1.54,30.44 L1.54,11.80 L1.88,10.97 L2.71,10.63 Z" fill="#0078d4" stroke="#1e1e1e" stroke-width="1" stroke-linejoin="round"/><ellipse cx="68.89" cy="54.50" rx="7.55" ry="7.55" fill="#0078d4" stroke="#0078d4" stroke-width="1"/><ellipse cx="48.31" cy="54.50" rx="7.55" ry="7.55" fill="#0078d4" stroke="#0078d4" stroke-width="1"/><ellipse cx="27.11" cy="54.50" rx="7.55" ry="7.55" fill="#0078d4" stroke="#0078d4" stroke-width="1"/><rect x="14.03" y="16.54" width="67.94" height="7.98" fill="#f2f2f2" stroke="#f2f2f2" stroke-width="1"/></svg>