<svg xmlns="http://www.w3.org/2000/svg" viewBox="-0.48 8.63 96.96 78.74"><path d="M1.52,30.44 L94.48,30.44 L94.48,30.44 L94.48,84.20 L94.14,85.03 L93.31,85.37 L2.69,85.37 L1.86,85.03 L1.52,84.20 L1.52,30.44 L1.52,30.44 Z" fill="#32d2f3" stroke="#1e1e1e" stroke-width="1" stroke-linejoin="round"/><path d="M2.71,10.63 L93.29,10.63 L94.12,10.97 L94.46,11.80 L94.46,30.44 L94.46,30.44 L1.54,30.44 L1.54,30.44 L1.54,11.80 L1.88,10.97 L2.71,10.63 Z" fill="#0078d4" stroke="#1e1e1e" stroke-width="1" stroke-linejoin="round"/><ellipse cx="68.89" cy="54.50" rx="7.55" ry="7.55" fill="#0078d4" stroke="#0078d4" stroke-width="1"/><ellipse cx="48.31" cy="54.50" rx="7.55" ry="7.55" fill="#0078d4" stroke="#0078d4" stroke-width="1"/><ellipse cx="27.11" cy="54.50" rx="7.55" ry="7.55" fill="#0078d4" stroke="#0078d4" stroke-width="1"/><path d="M81.38,16.54 L81.53,16.56 L81.67,16.62 L81.80,16.72 L81.89,16.84 L81.95,16.98 L81.97,17.13 L81.97,23.94 L81.95,24.09 L81.89,24.23 L81.80,24.35 L81.67,24.44 L81.53,24.50 L81.38,24.52 L14.61,24.52 L14.46,24.50 L14.32,24.44 L14.20,24.35 L14.11,24.23 L14.05,24.09 L14.03,23.94 L14.03,17.13 L14.05,16.98 L14.11,16.84 L14.20,16.72 L14.32,16.62 L14.46,16.56 L14.61,16.54 L81.38,16.54 Z" fill="#f2f2f2" stroke="#f2f2f2" stroke-width="1" stroke-linejoin="round"/></svg>