<svg xmlns="http://www.w3.org/2000/svg" viewBox="-0.43 8.98 100.00 81.19"><path d="M1.57,31.43 L97.57,31.43 L97.57,31.43 L97.57,86.95 L97.21,87.81 L96.36,88.16 L2.78,88.16 L1.92,87.81 L1.57,86.95 L1.57,31.43 L1.57,31.43 Z" fill="#32d2f3" stroke="#1e1e1e" stroke-width="1" stroke-linejoin="round"/><path d="M2.80,10.98 L96.34,10.98 L97.19,11.33 L97.55,12.19 L97.55,31.43 L97.55,31.43 L1.59,31.43 L1.59,31.43 L1.59,12.19 L1.95,11.33 L2.80,10.98 Z" fill="#0078d4" stroke="#1e1e1e" stroke-width="1" stroke-linejoin="round"/><ellipse cx="71.14" cy="56.28" rx="7.80" ry="7.80" fill="#0078d4" stroke="#0078d4" stroke-width="1"/><ellipse cx="49.89" cy="56.28" rx="7.80" ry="7.80" fill="#0078d4" stroke="#0078d4" stroke-width="1"/><ellipse cx="28.00" cy="56.28" rx="7.80" ry="7.80" fill="#0078d4" stroke="#0078d4" stroke-width="1"/><path d="M84.04,17.09 L84.20,17.11 L84.35,17.17 L84.47,17.26 L84.57,17.39 L84.63,17.53 L84.65,17.69 L84.65,24.72 L84.63,24.88 L84.57,25.02 L84.47,25.15 L84.35,25.24 L84.20,25.30 L84.04,25.32 L15.09,25.32 L14.93,25.30 L14.79,25.24 L14.66,25.15 L14.57,25.02 L14.51,24.88 L14.49,24.72 L14.49,17.69 L14.51,17.53 L14.57,17.39 L14.66,17.26 L14.79,17.17 L14.93,17.11 L15.09,17.09 L84.04,17.09 Z" fill="#f2f2f2" stroke="#1e1e1e" stroke-width="1" stroke-linejoin="round"/></svg>