<svg xmlns="http://www.w3.org/2000/svg" viewBox="-1.93 -0.33 99.88 96.65"><path d="M25.85,55.98 L47.91,43.17 L69.93,55.98 L47.91,68.80 L25.85,55.98 Z" fill="#9cebff" stroke="#1e1e1e" stroke-width="1" stroke-linejoin="round"/><path d="M70.01,55.93 L70.01,81.47 L47.88,94.33 L47.88,68.74 L70.01,55.93 Z" fill="#32bedd" stroke="#1e1e1e" stroke-width="1" stroke-linejoin="round"/><path d="M47.88,68.78 L47.88,94.33 L25.79,81.47 L25.79,55.93 L47.88,68.78 Z" fill="#50e6ff" stroke="#1e1e1e" stroke-width="1" stroke-linejoin="round"/><path d="M21.33,86.13 L19.76,87.73 L19.00,88.05 L18.24,87.73 L0.64,70.16 L0.08,69.20 L0.08,68.08 L0.64,67.11 L2.24,65.54 L21.33,84.61 L21.64,85.36 L21.33,86.11 L21.33,86.11 L21.33,86.13 Z" fill="#50e6ff" stroke="#1e1e1e" stroke-width="1" stroke-linejoin="round"/><path d="M19.42,49.80 L21.18,51.56 L21.50,52.31 L21.18,53.07 L2.39,71.93 L0.63,70.18 L0.07,69.21 L0.07,68.10 L0.63,67.13 L17.91,49.80 L18.67,49.48 L19.42,49.80 L19.42,49.80 Z" fill="#1490df" stroke="#1e1e1e" stroke-width="1" stroke-linejoin="round"/><path d="M74.79,86.03 L74.49,85.29 L74.79,84.54 L74.79,84.54 L74.79,84.54 L93.80,65.59 L95.40,67.19 L95.95,68.15 L95.95,69.26 L95.40,70.22 L77.87,87.61 L77.12,87.91 L76.38,87.61 L76.38,87.61 L76.38,87.61 L74.79,86.03 Z" fill="#50e6ff" stroke="#1e1e1e" stroke-width="1" stroke-linejoin="round"/><path d="M78.19,49.93 L95.38,67.16 L95.93,68.12 L95.93,69.22 L95.38,70.18 L93.63,71.93 L74.96,53.19 L74.65,52.43 L74.96,51.66 L76.70,49.93 L77.45,49.63 L78.19,49.93 Z" fill="#1490df" stroke="#1e1e1e" stroke-width="1" stroke-linejoin="round"/><path d="M45.46,39.02 L47.06,38.44 L48.77,38.44 L50.37,39.02 L51.08,39.43 L51.08,11.66 L45.09,11.66 L45.09,39.24 L45.46,39.02 Z" fill="#9e9e9e" stroke="#9e9e9e" stroke-width="1" stroke-linejoin="round"/><path d="M56.87,10.46 L56.49,13.01 L55.39,15.34 L53.66,17.25 L51.45,18.57 L48.95,19.20 L46.37,19.07 L43.94,18.21 L41.87,16.67 L40.34,14.60 L39.47,12.17 L39.34,9.60 L39.97,7.10 L41.30,4.89 L43.21,3.16 L45.54,2.05 L48.09,1.67 L48.09,1.67 L50.36,1.98 L52.48,2.85 L54.29,4.25 L55.69,6.07 L56.57,8.19 L56.87,10.46 L56.87,10.46 Z" fill="#1490df" stroke="#1e1e1e" stroke-width="1" stroke-linejoin="round"/></svg>