<svg xmlns="http://www.w3.org/2000/svg" viewBox="-1.93 -0.32 100.00 96.77"><path d="M25.88,56.05 L47.97,43.23 L70.02,56.05 L47.97,68.89 L25.88,56.05 Z" fill="#9cebff" stroke="#1e1e1e" stroke-width="1" stroke-linejoin="round"/><path d="M70.09,56.00 L70.09,81.57 L47.94,94.44 L47.94,68.83 L70.09,56.00 Z" fill="#32bedd" stroke="#1e1e1e" stroke-width="1" stroke-linejoin="round"/><path d="M47.94,68.87 L47.94,94.44 L25.82,81.57 L25.82,56.00 L47.94,68.87 Z" fill="#50e6ff" stroke="#1e1e1e" stroke-width="1" stroke-linejoin="round"/><path d="M21.36,86.23 L19.78,87.84 L19.02,88.16 L18.26,87.84 L0.64,70.25 L0.08,69.28 L0.08,68.16 L0.64,67.20 L2.24,65.62 L21.36,84.72 L21.67,85.47 L21.36,86.21 L21.36,86.21 L21.36,86.23 Z" fill="#50e6ff" stroke="#1e1e1e" stroke-width="1" stroke-linejoin="round"/><path d="M19.45,49.86 L21.21,51.62 L21.53,52.38 L21.21,53.14 L2.39,72.01 L0.63,70.27 L0.07,69.30 L0.07,68.18 L0.63,67.21 L17.93,49.86 L18.69,49.54 L19.45,49.86 L19.45,49.86 Z" fill="#1490df" stroke="#1e1e1e" stroke-width="1" stroke-linejoin="round"/><path d="M74.88,86.13 L74.58,85.39 L74.88,84.65 L74.88,84.65 L74.88,84.65 L93.91,65.67 L95.52,67.27 L96.07,68.23 L96.07,69.34 L95.52,70.31 L77.96,87.71 L77.22,88.02 L76.47,87.71 L76.47,87.71 L76.47,87.71 L74.88,86.13 Z" fill="#50e6ff" stroke="#1e1e1e" stroke-width="1" stroke-linejoin="round"/><path d="M78.28,49.99 L95.49,67.25 L96.05,68.20 L96.05,69.31 L95.49,70.26 L93.74,72.01 L75.05,53.26 L74.74,52.49 L75.05,51.73 L76.80,49.99 L77.54,49.69 L78.28,49.99 Z" fill="#1490df" stroke="#1e1e1e" stroke-width="1" stroke-linejoin="round"/><path d="M45.52,39.07 L47.12,38.48 L48.83,38.48 L50.44,39.07 L51.14,39.48 L51.14,11.67 L45.15,11.67 L45.15,39.29 L45.52,39.07 Z" fill="#9e9e9e" stroke="#9e9e9e" stroke-width="1" stroke-linejoin="round"/><path d="M56.94,10.47 L56.56,13.02 L55.46,15.36 L53.72,17.27 L51.51,18.60 L49.01,19.22 L46.43,19.10 L44.00,18.23 L41.93,16.69 L40.39,14.62 L39.52,12.19 L39.39,9.61 L40.02,7.11 L41.35,4.89 L43.26,3.16 L45.59,2.06 L48.15,1.68 L48.15,1.68 L50.42,1.98 L52.54,2.86 L54.36,4.25 L55.76,6.08 L56.64,8.20 L56.94,10.47 L56.94,10.47 Z" fill="#1490df" stroke="#1e1e1e" stroke-width="1" stroke-linejoin="round"/></svg>