<svg xmlns="http://www.w3.org/2000/svg" viewBox="1.04 2.71 100.00 96.69"><path d="M92.06,97.39 L94.17,97.10 L96.08,96.18 L97.62,94.71 L98.64,92.85 L99.04,90.76 L99.04,89.62 L98.40,85.57 L97.54,81.63 L96.44,77.83 L95.11,74.18 L93.54,70.71 L91.73,67.44 L89.68,64.38 L87.39,61.56 L84.85,58.99 L82.06,56.71 L79.02,54.72 L75.72,53.04 L72.17,51.70 L68.36,50.72 L64.29,50.12 L59.96,49.92 L55.62,50.09 L51.53,50.61 L47.70,51.47 L44.12,52.66 L40.80,54.17 L37.73,55.99 L34.91,58.12 L32.34,60.54 L30.02,63.25 L27.95,66.24 L26.13,69.51 L24.56,73.03 L23.24,76.82 L22.17,80.85 L21.34,85.12 L20.76,89.62 L20.88,91.81 L21.67,93.86 L23.05,95.57 L24.88,96.76 L27.00,97.34 L92.06,97.34 L92.06,97.39 Z" fill="#29b9dd" stroke="#1e1e1e" stroke-width="1" stroke-linejoin="round"/><path d="M59.96,55.08 L55.79,54.70 L51.77,53.53 L48.04,51.62 L59.84,82.36 L71.53,51.79 L67.90,53.60 L64.00,54.71 L59.96,55.08 Z" fill="#ffffff" stroke="#1e1e1e" stroke-width="1" stroke-linejoin="round" opacity="0.8"/><ellipse cx="59.96" cy="33.13" rx="21.95" ry="21.95" fill="#29b9dd" stroke="#1e1e1e" stroke-width="1"/><path d="M34.03,33.35 L34.03,5.67 L33.79,4.99 L33.13,4.71 L25.92,4.71 L25.20,4.97 L24.90,5.67 L24.90,32.39 L24.60,33.06 L23.94,33.35 L17.58,33.35 L17.17,33.12 L17.02,32.67 L17.02,25.24 L16.64,24.64 L15.94,24.79 L3.35,37.27 L3.04,37.95 L3.35,38.63 L15.83,51.05 L16.30,51.47 L16.89,51.27 L17.02,50.65 L17.02,43.17 L17.18,42.74 L17.58,42.54 L33.13,42.54 L33.77,42.24 L34.03,41.58 L34.03,33.35 Z" fill="#0078d4" stroke="#1e1e1e" stroke-width="1" stroke-linejoin="round"/></svg>