<svg xmlns="http://www.w3.org/2000/svg" viewBox="-2.00 16.19 100.21 63.63"><path d="M96.00,48.85 L84.69,60.16 L84.28,60.39 L83.84,60.20 L83.73,59.73 L83.73,53.33 L83.54,52.95 L83.15,52.80 L64.48,52.80 L76.11,64.00 L76.43,64.12 L76.75,64.00 L76.75,64.00 L80.00,60.69 L80.49,60.58 L80.75,61.01 L80.75,72.69 L80.56,73.15 L80.11,73.33 L68.64,73.33 L68.21,73.08 L68.32,72.59 L71.63,69.33 L71.63,69.33 L71.75,69.01 L71.63,68.69 L62.08,58.67 L62.08,38.24 L71.84,28.53 L71.96,28.24 L71.84,27.95 L71.84,27.95 L68.53,24.69 L68.42,24.20 L68.85,23.95 L80.53,23.95 L80.99,24.17 L81.17,24.64 L81.17,36.00 L80.92,36.43 L80.43,36.32 L77.17,33.07 L77.17,33.07 L76.85,32.94 L76.53,33.07 L64.64,44.32 L82.93,44.32 L83.35,44.15 L83.52,43.73 L83.52,37.33 L83.63,36.87 L84.06,36.67 L84.48,36.91 L96.00,48.00 L96.21,48.43 L96.00,48.85 Z" fill="#0078d4" stroke="#1e1e1e" stroke-width="1" stroke-linejoin="round"/><path d="M58.99,18.19 L59.79,18.29 L60.53,18.60 L61.17,19.09 L61.67,19.73 L61.97,20.48 L62.08,21.28 L62.08,74.72 L61.97,75.52 L61.67,76.27 L61.17,76.91 L60.53,77.40 L59.79,77.71 L58.99,77.81 L3.09,77.81 L2.29,77.71 L1.55,77.40 L0.91,76.91 L0.41,76.27 L0.11,75.52 L0.00,74.72 L0.00,21.28 L0.11,20.48 L0.41,19.73 L0.91,19.09 L1.55,18.60 L2.29,18.29 L3.09,18.19 L58.99,18.19 Z" fill="#6fb12a" stroke="#1e1e1e" stroke-width="1" stroke-linejoin="round"/><path d="M25.12,25.49 L25.52,25.55 L25.89,25.70 L26.21,25.95 L26.46,26.27 L26.61,26.64 L26.67,27.04 L26.67,37.87 L26.61,38.27 L26.46,38.64 L26.21,38.96 L25.89,39.21 L25.52,39.36 L25.12,39.41 L13.65,39.41 L13.25,39.36 L12.88,39.21 L12.56,38.96 L12.31,38.64 L12.16,38.27 L12.11,37.87 L12.11,27.04 L12.16,26.64 L12.31,26.27 L12.56,25.95 L12.88,25.70 L13.25,25.55 L13.65,25.49 L25.12,25.49 Z" fill="#ffffff" stroke="#ffffff" stroke-width="1" stroke-linejoin="round"/><path d="M49.92,41.44 L50.32,41.49 L50.69,41.65 L51.01,41.89 L51.26,42.21 L51.41,42.59 L51.47,42.99 L51.47,53.81 L51.41,54.21 L51.26,54.59 L51.01,54.91 L50.69,55.15 L50.32,55.31 L49.92,55.36 L38.45,55.36 L38.05,55.31 L37.68,55.15 L37.36,54.91 L37.11,54.59 L36.96,54.21 L36.91,53.81 L36.91,42.99 L36.96,42.59 L37.11,42.21 L37.36,41.89 L37.68,41.65 L38.05,41.49 L38.45,41.44 L49.92,41.44 Z" fill="#ffffff" stroke="#ffffff" stroke-width="1" stroke-linejoin="round"/><path d="M25.12,56.59 L25.52,56.64 L25.89,56.79 L26.21,57.04 L26.46,57.36 L26.61,57.73 L26.67,58.13 L26.67,68.96 L26.61,69.36 L26.46,69.73 L26.21,70.05 L25.89,70.30 L25.52,70.45 L25.12,70.51 L13.65,70.51 L13.25,70.45 L12.88,70.30 L12.56,70.05 L12.31,69.73 L12.16,69.36 L12.11,68.96 L12.11,58.13 L12.16,57.73 L12.31,57.36 L12.56,57.04 L12.88,56.79 L13.25,56.64 L13.65,56.59 L25.12,56.59 Z" fill="#ffffff" stroke="#ffffff" stroke-width="1" stroke-linejoin="round"/></svg>