<svg xmlns="http://www.w3.org/2000/svg" viewBox="-2.00 16.19 100.21 63.63"><path d="M96.00,48.85 L84.69,60.16 L84.28,60.39 L83.84,60.20 L83.73,59.73 L83.73,53.33 L83.54,52.95 L83.15,52.80 L64.48,52.80 L76.11,64.00 L76.43,64.12 L76.75,64.00 L76.75,64.00 L80.00,60.69 L80.49,60.58 L80.75,61.01 L80.75,72.69 L80.56,73.15 L80.11,73.33 L68.64,73.33 L68.21,73.08 L68.32,72.59 L71.63,69.33 L71.63,69.33 L71.75,69.01 L71.63,68.69 L62.08,58.67 L62.08,38.24 L71.84,28.53 L71.96,28.24 L71.84,27.95 L71.84,27.95 L68.53,24.69 L68.42,24.20 L68.85,23.95 L80.53,23.95 L80.99,24.17 L81.17,24.64 L81.17,36.00 L80.92,36.43 L80.43,36.32 L77.17,33.07 L77.17,33.07 L76.85,32.94 L76.53,33.07 L64.64,44.32 L82.93,44.32 L83.35,44.15 L83.52,43.73 L83.52,37.33 L83.63,36.87 L84.06,36.67 L84.48,36.91 L96.00,48.00 L96.21,48.43 L96.00,48.85 Z" fill="#0078d4" stroke="#1e1e1e" stroke-width="1" stroke-linejoin="round"/><rect x="0.00" y="18.19" width="62.08" height="59.63" fill="#6fb12a" stroke="#1e1e1e" stroke-width="1"/><rect x="12.11" y="25.49" width="14.56" height="13.92" fill="#ffffff" stroke="#ffffff" stroke-width="1"/><rect x="36.91" y="41.44" width="14.56" height="13.92" fill="#ffffff" stroke="#ffffff" stroke-width="1"/><rect x="12.11" y="56.59" width="14.56" height="13.92" fill="#ffffff" stroke="#ffffff" stroke-width="1"/></svg>