<svg xmlns="http://www.w3.org/2000/svg" viewBox="2.17 0.71 91.78 94.57"><path d="M71.20,15.36 L71.61,12.17 L72.82,9.19 L74.77,6.63 L77.31,4.66 L80.28,3.42 L83.47,2.99 L83.47,2.99 L86.21,3.80 L88.60,5.37 L90.45,7.55 L91.59,10.17 L91.95,13.01 L91.71,15.26 L90.97,17.40 L89.76,19.31 L88.45,20.33 L86.83,20.69 L70.83,20.69 L71.20,15.36 Z" fill="#0078d4" stroke="#1e1e1e" stroke-width="1" stroke-linejoin="round"/><path d="M72.32,2.72 L24.32,2.72 L21.18,3.16 L18.26,4.39 L15.75,6.33 L13.83,8.86 L12.62,11.79 L12.21,14.93 L12.21,93.28 L12.21,93.28 L60.21,93.28 L63.37,92.86 L66.32,91.64 L68.85,89.70 L70.79,87.17 L72.01,84.23 L72.43,81.07 L72.43,68.11 L72.43,28.21 L72.19,20.21 L72.43,12.21 L72.89,10.37 L73.55,8.79 L74.38,7.47 L75.33,6.37 L76.38,5.48 L77.51,4.78 L79.84,3.86 L82.08,3.44 L83.99,3.34 L85.81,3.47 L79.09,2.71 L72.32,2.72 L72.32,2.72 Z" fill="#3990e4" stroke="#1e1e1e" stroke-width="1" stroke-linejoin="round"/><path d="M42.67,62.08 L42.67,37.01 L43.72,35.98 L44.11,34.56 L43.72,33.12 L42.67,32.07 L41.23,31.68 L39.84,32.10 L38.83,33.15 L38.46,34.56 L38.83,35.97 L39.84,37.01 L39.84,62.08 L38.79,63.14 L38.40,64.59 L38.55,65.97 L39.33,67.12 L40.56,67.77 L41.95,67.77 L43.18,67.12 L43.96,65.97 L44.11,64.59 L43.72,63.14 L42.67,62.08 L42.67,62.08 Z" fill="#f2f2f2" stroke="#f2f2f2" stroke-width="1" stroke-linejoin="round"/><path d="M61.07,92.96 L61.07,92.96 L58.38,92.14 L56.03,90.59 L54.22,88.44 L53.09,85.86 L52.74,83.07 L53.20,80.29 L54.43,77.76 L56.32,75.68 L56.78,74.80 L56.44,73.87 L55.52,73.49 L13.81,73.49 L12.27,73.49 L12.27,73.49 L9.67,74.35 L7.41,75.89 L5.66,77.99 L4.55,80.49 L4.17,83.20 L4.55,85.91 L5.66,88.41 L7.41,90.51 L9.67,92.05 L12.27,92.91 L12.27,92.91 L13.04,92.95 L13.81,92.91 L61.07,92.96 Z" fill="#5ea0ef" stroke="#1e1e1e" stroke-width="1" stroke-linejoin="round"/><ellipse cx="50.35" cy="34.61" rx="2.93" ry="2.93" fill="#f2f2f2" stroke="#f2f2f2" stroke-width="1"/><ellipse cx="41.01" cy="34.61" rx="2.93" ry="2.93" fill="#f2f2f2" stroke="#f2f2f2" stroke-width="1"/><ellipse cx="31.73" cy="34.61" rx="2.93" ry="2.93" fill="#f2f2f2" stroke="#f2f2f2" stroke-width="1"/><path d="M32.00,48.00 L33.71,46.29 L33.91,45.76 L33.71,45.23 L20.43,32.00 L18.72,33.71 L18.32,34.38 L18.32,35.16 L18.72,35.84 L31.09,48.00 L31.55,48.14 L32.00,48.00 Z" fill="#b3b3b3" stroke="#b3b3b3" stroke-width="1" stroke-linejoin="round"/><path d="M33.60,22.93 L32.00,21.33 L31.47,21.13 L30.93,21.33 L18.72,33.44 L18.32,34.12 L18.32,34.90 L18.72,35.57 L20.37,37.33 L33.60,24.00 L33.85,23.47 L33.60,22.93 L33.60,22.93 Z" fill="#f2f2f2" stroke="#f2f2f2" stroke-width="1" stroke-linejoin="round"/><path d="M49.71,48.00 L48.00,46.24 L47.75,45.71 L48.00,45.17 L61.49,32.00 L63.15,33.71 L63.54,34.38 L63.54,35.16 L63.15,35.84 L50.77,48.00 L50.24,48.20 L49.71,48.00 Z" fill="#b3b3b3" stroke="#b3b3b3" stroke-width="1" stroke-linejoin="round"/><path d="M48.27,22.93 L49.97,21.33 L50.51,21.13 L51.04,21.33 L63.15,33.49 L63.54,34.17 L63.54,34.95 L63.15,35.63 L61.49,37.33 L48.27,24.00 L48.06,23.47 L48.27,22.93 L48.27,22.93 Z" fill="#f2f2f2" stroke="#f2f2f2" stroke-width="1" stroke-linejoin="round"/></svg>