<svg xmlns="http://www.w3.org/2000/svg" viewBox="2.42 0.87 97.04 100.00"><path d="M75.47,16.28 L75.90,12.90 L77.19,9.74 L79.25,7.03 L81.95,4.94 L85.09,3.63 L88.47,3.17 L88.47,3.17 L91.37,4.03 L93.91,5.69 L95.87,8.01 L97.08,10.78 L97.46,13.79 L97.20,16.18 L96.42,18.44 L95.14,20.46 L93.75,21.55 L92.03,21.93 L75.07,21.93 L75.47,16.28 Z" fill="#0078d4" stroke="#1e1e1e" stroke-width="1" stroke-linejoin="round"/><path d="M76.65,2.88 L25.78,2.88 L22.45,3.35 L19.35,4.65 L16.70,6.71 L14.66,9.39 L13.38,12.50 L12.95,15.83 L12.95,98.87 L12.95,98.87 L63.82,98.87 L67.17,98.43 L70.29,97.14 L72.98,95.08 L75.03,92.40 L76.33,89.28 L76.77,85.93 L76.77,72.19 L76.77,29.90 L76.52,21.42 L76.77,12.95 L77.26,10.99 L77.96,9.32 L78.83,7.91 L79.84,6.75 L80.96,5.81 L82.15,5.07 L84.62,4.09 L87.00,3.64 L89.03,3.54 L90.96,3.67 L83.83,2.87 L76.65,2.88 L76.65,2.88 Z" fill="#3990e4" stroke="#1e1e1e" stroke-width="1" stroke-linejoin="round"/><path d="M45.22,65.80 L45.22,39.23 L46.34,38.14 L46.75,36.63 L46.34,35.10 L45.22,33.99 L43.70,33.58 L42.22,34.03 L41.16,35.14 L40.77,36.63 L41.16,38.12 L42.23,39.23 L42.23,65.80 L41.11,66.93 L40.70,68.46 L40.86,69.92 L41.69,71.14 L42.99,71.83 L44.46,71.83 L45.76,71.14 L46.59,69.92 L46.75,68.46 L46.34,66.93 L45.22,65.80 L45.22,65.80 Z" fill="#f2f2f2" stroke="#f2f2f2" stroke-width="1" stroke-linejoin="round"/><path d="M64.73,98.53 L64.73,98.53 L61.87,97.66 L59.39,96.02 L57.47,93.74 L56.27,91.00 L55.90,88.05 L56.39,85.10 L57.69,82.42 L59.70,80.22 L60.18,79.28 L59.82,78.29 L58.85,77.90 L14.64,77.90 L13.00,77.90 L13.00,77.90 L10.25,78.81 L7.85,80.44 L6.00,82.66 L4.82,85.32 L4.42,88.19 L4.82,91.06 L6.00,93.71 L7.85,95.93 L10.25,97.56 L13.00,98.47 L13.00,98.47 L13.82,98.52 L14.64,98.47 L64.73,98.53 Z" fill="#5ea0ef" stroke="#1e1e1e" stroke-width="1" stroke-linejoin="round"/><ellipse cx="53.36" cy="36.69" rx="3.11" ry="3.11" fill="#f2f2f2" stroke="#f2f2f2" stroke-width="1"/><ellipse cx="43.47" cy="36.69" rx="3.11" ry="3.11" fill="#f2f2f2" stroke="#f2f2f2" stroke-width="1"/><ellipse cx="33.64" cy="36.69" rx="3.11" ry="3.11" fill="#f2f2f2" stroke="#f2f2f2" stroke-width="1"/><path d="M33.92,50.88 L35.73,49.07 L35.94,48.50 L35.73,47.94 L21.65,33.92 L19.84,35.73 L19.42,36.44 L19.42,37.27 L19.84,37.99 L32.96,50.88 L33.44,51.03 L33.92,50.88 Z" fill="#b3b3b3" stroke="#b3b3b3" stroke-width="1" stroke-linejoin="round"/><path d="M35.61,24.31 L33.92,22.61 L33.35,22.40 L32.79,22.61 L19.84,35.44 L19.42,36.16 L19.42,36.99 L19.84,37.71 L21.59,39.57 L35.61,25.44 L35.88,24.87 L35.61,24.31 L35.61,24.31 Z" fill="#f2f2f2" stroke="#f2f2f2" stroke-width="1" stroke-linejoin="round"/><path d="M52.69,50.88 L50.88,49.01 L50.61,48.45 L50.88,47.88 L65.18,33.92 L66.93,35.73 L67.35,36.44 L67.35,37.27 L66.93,37.99 L53.82,50.88 L53.25,51.09 L52.69,50.88 Z" fill="#b3b3b3" stroke="#b3b3b3" stroke-width="1" stroke-linejoin="round"/><path d="M51.16,24.31 L52.97,22.61 L53.53,22.40 L54.10,22.61 L66.93,35.50 L67.35,36.22 L67.35,37.05 L66.93,37.76 L65.18,39.57 L51.16,25.44 L50.94,24.87 L51.16,24.31 L51.16,24.31 Z" fill="#f2f2f2" stroke="#f2f2f2" stroke-width="1" stroke-linejoin="round"/></svg>