<svg xmlns="http://www.w3.org/2000/svg" viewBox="1.83 -2.00 92.33 100.00"><path d="M91.01,65.36 L51.01,88.63 L49.13,89.20 L47.16,89.20 L45.29,88.63 L5.13,65.37 L4.26,64.75 L3.93,63.74 L4.26,62.73 L5.13,62.11 L45.05,38.85 L46.93,38.23 L48.90,38.23 L50.77,38.85 L90.94,62.10 L91.84,62.88 L92.15,63.75 L91.87,64.62 L91.01,65.36 Z" fill="#e6e6e6" stroke="#1e1e1e" stroke-width="1" stroke-linejoin="round"/><path d="M45.97,88.94 L25.52,77.18 L5.13,65.38 L4.31,64.71 L3.96,63.71 L3.83,70.40 L3.87,70.85 L4.10,71.27 L4.95,72.04 L6.91,73.17 L26.33,84.41 L45.79,95.57 L45.87,95.57 L46.23,95.71 L46.61,95.82 L47.29,95.94 L47.34,95.94 L47.88,96.00 L48.06,96.00 L48.06,89.31 L47.01,89.19 L45.97,88.94 Z" fill="#b3b3b3" stroke="#1e1e1e" stroke-width="1" stroke-linejoin="round"/><path d="M92.05,64.14 L92.05,64.21 L91.87,64.58 L91.49,65.04 L91.01,65.38 L51.01,88.64 L50.05,89.02 L49.04,89.26 L48.64,89.31 L48.24,89.32 L48.07,89.32 L48.07,96.00 L48.44,95.99 L48.81,95.94 L49.48,95.82 L50.13,95.63 L50.51,95.50 L50.87,95.32 L80.09,78.34 L82.76,76.81 L90.88,72.06 L91.13,71.89 L91.37,71.70 L91.68,71.39 L91.68,71.33 L91.73,71.33 L91.73,71.27 L91.92,70.96 L91.92,70.90 L91.98,70.84 L92.04,70.47 L92.17,63.79 L92.13,63.97 L92.05,64.14 L92.05,64.14 Z" fill="#999999" stroke="#1e1e1e" stroke-width="1" stroke-linejoin="round"/><path d="M67.43,57.48 L67.43,57.54 L67.39,57.87 L67.27,58.18 L67.06,58.39 L66.95,58.50 L66.79,58.60 L48.82,69.00 L15.65,49.86 L15.85,49.58 L16.13,49.38 L28.61,42.13 L32.93,44.64 L26.05,48.59 L25.45,49.28 L25.45,50.19 L26.05,50.88 L48.71,63.99 L49.38,64.15 L50.05,63.99 L63.06,56.47 L63.53,56.03 L63.70,55.41 L63.70,45.11 L67.38,42.98 L67.43,57.48 Z" fill="#41d2ee" stroke="#1e1e1e" stroke-width="1" stroke-linejoin="round"/><path d="M46.28,52.33 L37.41,57.45 L24.84,50.19 L24.58,49.74 L24.84,49.29 L32.91,44.62 L46.28,52.33 Z" fill="#005ba1" stroke="#005ba1" stroke-width="1" stroke-linejoin="round"/><path d="M53.09,3.04 L53.09,16.91 L52.92,17.58 L52.45,18.08 L39.27,25.65 L37.30,26.77 L24.93,19.62 L23.97,19.09 L24.87,18.55 L24.93,18.51 L52.87,2.40 L53.05,2.70 L53.09,3.04 L53.09,3.04 Z" fill="#005ba1" stroke="#1e1e1e" stroke-width="1" stroke-linejoin="round"/><path d="M80.39,20.05 L78.84,20.95 L50.58,37.27 L50.00,37.64 L49.40,37.97 L48.71,38.34 L48.38,38.17 L48.07,37.97 L15.55,19.20 L15.76,18.93 L16.03,18.72 L48.13,0.16 L48.34,0.11 L48.57,0.02 L48.82,0.00 L49.04,0.04 L49.25,0.11 L49.36,0.11 L49.46,0.16 L52.39,1.92 L52.67,2.12 L52.87,2.40 L24.93,18.51 L24.87,18.55 L24.60,19.10 L24.93,19.62 L37.30,26.77 L39.33,27.94 L46.15,31.89 L49.03,33.54 L49.30,33.62 L49.57,33.54 L51.97,32.15 L76.39,18.08 L77.03,17.92 L77.67,18.08 L80.07,19.46 L80.34,19.64 L80.55,19.89 L80.39,20.05 Z" fill="#50e6ff" stroke="#1e1e1e" stroke-width="1" stroke-linejoin="round"/><path d="M80.87,65.16 L80.70,65.81 L80.23,66.28 L50.58,83.40 L49.51,84.04 L49.18,84.16 L48.82,84.20 L48.82,69.00 L66.79,58.60 L66.95,58.50 L67.06,58.39 L67.27,58.18 L67.39,57.87 L67.43,57.54 L67.43,57.48 L67.38,43.89 L67.13,43.46 L66.63,43.46 L62.04,46.13 L61.72,46.29 L48.98,53.59 L48.77,53.65 L48.71,53.65 L48.71,38.13 L49.07,38.09 L49.41,37.97 L50.01,37.64 L50.58,37.27 L78.85,20.95 L80.39,20.05 L80.55,19.89 L80.68,20.14 L80.71,20.42 L80.87,65.16 Z" fill="#004684" stroke="#1e1e1e" stroke-width="1" stroke-linejoin="round"/><path d="M15.65,49.86 L15.53,50.17 L15.49,50.50 L15.44,64.79 L15.52,65.10 L15.76,65.32 L48.18,84.04 L48.49,84.16 L48.82,84.20 L48.82,69.00 L15.65,49.86 Z" fill="#0078d4" stroke="#1e1e1e" stroke-width="1" stroke-linejoin="round"/><path d="M48.77,53.65 L48.71,53.65 L48.60,53.64 L48.50,53.59 L16.03,34.82 L15.53,34.36 L15.33,33.70 L15.39,19.83 L15.42,19.50 L15.55,19.19 L48.08,37.97 L48.39,38.09 L48.72,38.13 L48.72,38.34 L48.77,53.65 Z" fill="#0078d4" stroke="#1e1e1e" stroke-width="1" stroke-linejoin="round"/></svg>