<svg xmlns="http://www.w3.org/2000/svg" viewBox="0.32 3.95 100.00 92.73"><path d="M95.26,5.95 L96.05,6.06 L96.79,6.36 L97.42,6.85 L97.91,7.49 L98.22,8.23 L98.32,9.02 L98.32,66.89 L98.22,67.68 L97.91,68.42 L97.42,69.06 L96.79,69.54 L96.05,69.85 L95.26,69.95 L5.38,69.95 L4.59,69.85 L3.85,69.54 L3.22,69.06 L2.73,68.42 L2.42,67.68 L2.32,66.89 L2.32,9.02 L2.42,8.23 L2.73,7.49 L3.22,6.85 L3.85,6.36 L4.59,6.06 L5.38,5.95 L95.26,5.95 Z" fill="#3a90e5" stroke="#1e1e1e" stroke-width="1" stroke-linejoin="round"/><path d="M69.57,89.31 L67.89,88.97 L66.41,88.51 L65.13,87.92 L64.02,87.21 L63.07,86.39 L62.27,85.44 L61.07,83.21 L60.33,80.54 L59.92,77.42 L59.76,73.89 L59.73,69.95 L40.90,69.95 L40.87,73.89 L40.70,77.42 L40.29,80.54 L39.54,83.22 L38.35,85.45 L37.55,86.39 L36.61,87.22 L35.50,87.93 L34.21,88.51 L32.74,88.97 L31.06,89.31 L29.23,89.94 L27.73,91.14 L26.72,92.79 L26.33,94.68 L74.36,94.68 L73.96,92.78 L72.94,91.12 L71.41,89.92 L69.57,89.31 L69.57,89.31 Z" fill="#a6a6a6" stroke="#1e1e1e" stroke-width="1" stroke-linejoin="round"/><ellipse cx="50.48" cy="37.37" rx="22.61" ry="22.61" fill="#006aba" stroke="#1e1e1e" stroke-width="1"/><path d="M63.79,30.01 L63.79,45.43 L50.46,53.19 L50.46,37.73 L63.79,30.01 Z" fill="#50e6ff" stroke="#1e1e1e" stroke-width="1" stroke-linejoin="round"/><path d="M63.79,30.01 L50.46,37.75 L37.13,30.01 L50.46,22.25 L63.79,30.01 Z" fill="#c3f1ff" stroke="#1e1e1e" stroke-width="1" stroke-linejoin="round"/><path d="M50.49,37.81 L50.36,53.24 L37.10,45.38 L37.23,29.94 L50.49,37.81 Z" fill="#9cebff" stroke="#1e1e1e" stroke-width="1" stroke-linejoin="round"/><path d="M68.38,20.03 L68.38,20.03 L67.56,19.56 L66.62,19.56 L65.81,20.03 L65.81,20.03 L65.33,20.86 L65.33,21.82 L65.81,22.66 L65.81,22.66 L68.56,26.04 L70.57,29.90 L71.77,34.09 L72.11,38.44 L71.56,42.76 L70.16,46.89 L67.96,50.65 L65.05,53.89 L61.55,56.49 L57.60,58.33 L53.36,59.33 L49.01,59.47 L44.71,58.73 L40.65,57.15 L36.99,54.78 L33.89,51.72 L31.45,48.11 L29.80,44.08 L28.98,39.80 L29.04,35.44 L29.97,31.19 L31.74,27.20 L34.27,23.66 L37.46,20.69 L41.18,18.42 L45.28,16.95 L49.60,16.33 L49.33,17.74 L49.57,18.40 L50.26,18.52 L57.23,15.87 L57.71,15.45 L57.81,14.82 L57.47,14.28 L51.66,9.68 L50.97,9.58 L50.54,10.13 L50.18,12.62 L45.60,13.10 L41.17,14.40 L37.06,16.49 L33.39,19.29 L30.30,22.71 L27.88,26.64 L26.21,30.94 L25.35,35.47 L25.33,40.08 L26.15,44.62 L27.78,48.93 L30.17,52.88 L33.24,56.33 L36.88,59.16 L40.97,61.28 L45.39,62.62 L49.97,63.14 L54.57,62.82 L59.04,61.66 L63.22,59.71 L66.97,57.04 L70.18,53.72 L72.73,49.88 L74.55,45.64 L75.55,41.14 L75.73,36.53 L75.06,31.96 L73.58,27.60 L71.32,23.57 L68.38,20.03 L68.38,20.03 Z" fill="#ffffff" stroke="#1e1e1e" stroke-width="1" stroke-linejoin="round"/></svg>