<svg xmlns="http://www.w3.org/2000/svg" viewBox="0.19 2.82 95.63 90.36"><path d="M71.05,4.82 L71.67,4.90 L72.25,5.14 L72.74,5.52 L73.12,6.02 L73.36,6.60 L73.45,7.22 L73.45,50.00 L73.36,50.62 L73.12,51.20 L72.74,51.69 L72.25,52.07 L71.67,52.31 L71.05,52.39 L4.58,52.39 L3.96,52.31 L3.38,52.07 L2.89,51.69 L2.51,51.20 L2.27,50.62 L2.19,50.00 L2.19,7.22 L2.27,6.60 L2.51,6.02 L2.89,5.52 L3.38,5.14 L3.96,4.90 L4.58,4.82 L71.05,4.82 Z" fill="#005ba1" stroke="#1e1e1e" stroke-width="1" stroke-linejoin="round"/><path d="M81.95,14.51 L82.57,14.59 L83.14,14.83 L83.64,15.21 L84.02,15.70 L84.26,16.28 L84.34,16.90 L84.34,59.69 L84.26,60.31 L84.02,60.88 L83.64,61.38 L83.14,61.76 L82.57,62.00 L81.95,62.08 L15.48,62.08 L14.86,62.00 L14.28,61.76 L13.78,61.38 L13.40,60.88 L13.16,60.31 L13.08,59.69 L13.08,16.90 L13.16,16.28 L13.40,15.70 L13.78,15.21 L14.28,14.83 L14.86,14.59 L15.48,14.51 L81.95,14.51 Z" fill="#0078d4" stroke="#1e1e1e" stroke-width="1" stroke-linejoin="round"/><path d="M91.42,25.57 L92.04,25.65 L92.62,25.89 L93.12,26.27 L93.50,26.77 L93.74,27.34 L93.82,27.96 L93.82,70.75 L93.74,71.37 L93.50,71.94 L93.12,72.44 L92.62,72.82 L92.04,73.06 L91.42,73.14 L24.95,73.14 L24.33,73.06 L23.76,72.82 L23.26,72.44 L22.88,71.94 L22.64,71.37 L22.56,70.75 L22.56,27.96 L22.64,27.34 L22.88,26.77 L23.26,26.27 L23.76,25.89 L24.33,25.65 L24.95,25.57 L91.42,25.57 Z" fill="#3a90e5" stroke="#1e1e1e" stroke-width="1" stroke-linejoin="round"/><path d="M72.28,87.16 L69.96,86.56 L68.21,85.60 L66.95,84.29 L66.11,82.65 L65.60,80.70 L65.34,78.44 L65.23,73.07 L51.14,73.07 L51.03,78.60 L50.76,80.90 L50.26,82.86 L49.42,84.49 L48.16,85.75 L46.42,86.65 L44.09,87.16 L42.72,87.63 L41.60,88.53 L40.85,89.76 L40.57,91.18 L75.81,91.18 L75.53,89.76 L74.78,88.53 L73.65,87.63 L72.28,87.16 Z" fill="#a6a6a6" stroke="#1e1e1e" stroke-width="1" stroke-linejoin="round"/><ellipse cx="57.34" cy="48.67" rx="16.10" ry="16.10" fill="#006aba" stroke="#1e1e1e" stroke-width="1"/><path d="M66.82,43.43 L66.82,54.41 L57.33,59.93 L57.33,48.93 L66.82,43.43 Z" fill="#50e6ff" stroke="#50e6ff" stroke-width="1" stroke-linejoin="round"/><path d="M66.82,43.43 L57.33,48.94 L47.84,43.42 L57.33,37.91 L66.82,43.43 Z" fill="#c3f1ff" stroke="#c3f1ff" stroke-width="1" stroke-linejoin="round"/><path d="M57.35,48.99 L57.26,59.97 L47.81,54.37 L47.91,43.39 L57.35,48.99 Z" fill="#9cebff" stroke="#9cebff" stroke-width="1" stroke-linejoin="round"/><path d="M70.08,36.33 L70.08,36.33 L69.17,35.95 L68.26,36.33 L68.26,36.33 L67.87,37.26 L68.26,38.20 L68.26,38.20 L70.42,40.93 L71.92,44.08 L72.66,47.48 L72.62,50.97 L71.80,54.36 L70.23,57.47 L68.00,60.16 L65.23,62.27 L62.05,63.70 L58.63,64.38 L55.15,64.27 L51.78,63.38 L48.69,61.75 L46.06,59.47 L44.00,56.65 L42.63,53.45 L42.02,50.01 L42.20,46.53 L43.16,43.18 L44.84,40.13 L47.18,37.54 L50.03,35.54 L53.27,34.23 L56.71,33.69 L56.52,34.70 L56.70,35.16 L57.18,35.23 L62.14,33.35 L62.56,32.84 L62.32,32.22 L58.13,28.98 L57.64,28.91 L57.34,29.30 L57.09,31.07 L53.33,31.52 L49.75,32.75 L46.50,34.71 L43.74,37.30 L41.58,40.41 L40.12,43.90 L39.42,47.63 L39.52,51.41 L40.41,55.09 L42.05,58.51 L44.37,61.50 L47.26,63.94 L50.60,65.73 L54.24,66.77 L58.02,67.03 L61.77,66.49 L65.32,65.18 L68.52,63.16 L71.23,60.51 L73.32,57.35 L74.70,53.83 L75.32,50.09 L75.14,46.31 L74.17,42.65 L72.45,39.27 L70.07,36.33 L70.08,36.33 Z" fill="#ffffff" stroke="#1e1e1e" stroke-width="1" stroke-linejoin="round"/></svg>