<svg xmlns="http://www.w3.org/2000/svg" viewBox="0.19 2.82 95.63 90.36"><rect x="2.19" y="4.82" width="71.26" height="47.57" fill="#005ba1" stroke="#1e1e1e" stroke-width="1"/><rect x="13.08" y="14.51" width="71.26" height="47.57" fill="#0078d4" stroke="#1e1e1e" stroke-width="1"/><rect x="22.56" y="25.57" width="71.26" height="47.57" fill="#3a90e5" stroke="#1e1e1e" stroke-width="1"/><path d="M72.28,87.16 L69.96,86.56 L68.21,85.60 L66.95,84.29 L66.11,82.65 L65.60,80.70 L65.34,78.44 L65.23,73.07 L51.14,73.07 L51.03,78.60 L50.76,80.90 L50.26,82.86 L49.42,84.49 L48.16,85.75 L46.42,86.65 L44.09,87.16 L42.72,87.63 L41.60,88.53 L40.85,89.76 L40.57,91.18 L75.81,91.18 L75.53,89.76 L74.78,88.53 L73.65,87.63 L72.28,87.16 Z" fill="#a6a6a6" stroke="#1e1e1e" stroke-width="1" stroke-linejoin="round"/><ellipse cx="57.34" cy="48.67" rx="16.10" ry="16.10" fill="#006aba" stroke="#1e1e1e" stroke-width="1"/><path d="M66.82,43.43 L66.82,54.41 L57.33,59.93 L57.33,48.93 L66.82,43.43 Z" fill="#50e6ff" stroke="#50e6ff" stroke-width="1" stroke-linejoin="round"/><path d="M66.82,43.43 L57.33,48.94 L47.84,43.42 L57.33,37.91 L66.82,43.43 Z" fill="#c3f1ff" stroke="#c3f1ff" stroke-width="1" stroke-linejoin="round"/><path d="M57.35,48.99 L57.26,59.97 L47.81,54.37 L47.91,43.39 L57.35,48.99 Z" fill="#9cebff" stroke="#9cebff" stroke-width="1" stroke-linejoin="round"/><path d="M70.08,36.33 L70.08,36.33 L69.17,35.95 L68.26,36.33 L68.26,36.33 L67.87,37.26 L68.26,38.20 L68.26,38.20 L70.42,40.93 L71.92,44.08 L72.66,47.48 L72.62,50.97 L71.80,54.36 L70.23,57.47 L68.00,60.16 L65.23,62.27 L62.05,63.70 L58.63,64.38 L55.15,64.27 L51.78,63.38 L48.69,61.75 L46.06,59.47 L44.00,56.65 L42.63,53.45 L42.02,50.01 L42.20,46.53 L43.16,43.18 L44.84,40.13 L47.18,37.54 L50.03,35.54 L53.27,34.23 L56.71,33.69 L56.52,34.70 L56.70,35.16 L57.18,35.23 L62.14,33.35 L62.56,32.84 L62.32,32.22 L58.13,28.98 L57.64,28.91 L57.34,29.30 L57.09,31.07 L53.33,31.52 L49.75,32.75 L46.50,34.71 L43.74,37.30 L41.58,40.41 L40.12,43.90 L39.42,47.63 L39.52,51.41 L40.41,55.09 L42.05,58.51 L44.37,61.50 L47.26,63.94 L50.60,65.73 L54.24,66.77 L58.02,67.03 L61.77,66.49 L65.32,65.18 L68.52,63.16 L71.23,60.51 L73.32,57.35 L74.70,53.83 L75.32,50.09 L75.14,46.31 L74.17,42.65 L72.45,39.27 L70.07,36.33 L70.08,36.33 Z" fill="#ffffff" stroke="#1e1e1e" stroke-width="1" stroke-linejoin="round"/></svg>