<svg xmlns="http://www.w3.org/2000/svg" viewBox="0.29 3.05 100.00 94.47"><path d="M74.44,5.05 L75.09,5.14 L75.69,5.39 L76.21,5.79 L76.61,6.31 L76.86,6.91 L76.95,7.56 L76.95,52.38 L76.86,53.03 L76.61,53.64 L76.21,54.16 L75.69,54.56 L75.09,54.81 L74.44,54.89 L4.80,54.89 L4.15,54.81 L3.55,54.56 L3.03,54.16 L2.63,53.64 L2.38,53.03 L2.29,52.38 L2.29,7.56 L2.38,6.91 L2.63,6.31 L3.03,5.79 L3.55,5.39 L4.15,5.14 L4.80,5.05 L74.44,5.05 Z" fill="#005ba1" stroke="#1e1e1e" stroke-width="1" stroke-linejoin="round"/><path d="M85.85,15.20 L86.50,15.28 L87.11,15.53 L87.63,15.93 L88.03,16.45 L88.28,17.06 L88.36,17.71 L88.36,62.53 L88.28,63.18 L88.03,63.78 L87.63,64.30 L87.11,64.70 L86.50,64.95 L85.85,65.04 L16.22,65.04 L15.57,64.95 L14.96,64.70 L14.44,64.30 L14.04,63.78 L13.79,63.18 L13.71,62.53 L13.71,17.71 L13.79,17.06 L14.04,16.45 L14.44,15.93 L14.96,15.53 L15.57,15.28 L16.22,15.20 L85.85,15.20 Z" fill="#0078d4" stroke="#1e1e1e" stroke-width="1" stroke-linejoin="round"/><path d="M95.78,26.79 L96.43,26.87 L97.04,27.12 L97.56,27.52 L97.95,28.04 L98.21,28.65 L98.29,29.30 L98.29,74.12 L98.21,74.77 L97.95,75.37 L97.56,75.89 L97.04,76.29 L96.43,76.54 L95.78,76.63 L26.14,76.63 L25.49,76.54 L24.89,76.29 L24.37,75.89 L23.97,75.37 L23.72,74.77 L23.64,74.12 L23.64,29.30 L23.72,28.65 L23.97,28.04 L24.37,27.52 L24.89,27.12 L25.49,26.87 L26.14,26.79 L95.78,26.79 Z" fill="#3a90e5" stroke="#1e1e1e" stroke-width="1" stroke-linejoin="round"/><path d="M75.73,91.32 L73.29,90.68 L71.46,89.68 L70.14,88.31 L69.26,86.59 L68.73,84.55 L68.46,82.18 L68.34,76.55 L53.57,76.55 L53.46,82.35 L53.18,84.75 L52.65,86.81 L51.77,88.51 L50.46,89.84 L48.63,90.78 L46.19,91.32 L44.76,91.80 L43.58,92.75 L42.80,94.04 L42.50,95.53 L79.42,95.53 L79.13,94.04 L78.34,92.75 L77.16,91.80 L75.73,91.32 Z" fill="#a6a6a6" stroke="#1e1e1e" stroke-width="1" stroke-linejoin="round"/><ellipse cx="60.08" cy="50.99" rx="16.86" ry="16.86" fill="#006aba" stroke="#1e1e1e" stroke-width="1"/><path d="M70.00,45.50 L70.00,57.00 L60.06,62.78 L60.06,51.26 L70.00,45.50 Z" fill="#50e6ff" stroke="#50e6ff" stroke-width="1" stroke-linejoin="round"/><path d="M70.00,45.50 L60.06,51.28 L50.12,45.49 L60.06,39.72 L70.00,45.50 Z" fill="#c3f1ff" stroke="#c3f1ff" stroke-width="1" stroke-linejoin="round"/><path d="M60.09,51.32 L59.99,62.83 L50.09,56.96 L50.19,45.45 L60.09,51.32 Z" fill="#9cebff" stroke="#9cebff" stroke-width="1" stroke-linejoin="round"/><path d="M73.42,38.06 L73.42,38.06 L72.47,37.66 L71.51,38.06 L71.51,38.06 L71.11,39.04 L71.51,40.02 L71.51,40.02 L73.78,42.88 L75.34,46.18 L76.13,49.75 L76.08,53.40 L75.22,56.95 L73.58,60.21 L71.25,63.02 L68.34,65.23 L65.01,66.73 L61.43,67.45 L57.78,67.33 L54.24,66.40 L51.01,64.69 L48.25,62.30 L46.10,59.35 L44.66,55.99 L44.02,52.40 L44.21,48.75 L45.21,45.24 L46.98,42.04 L49.43,39.33 L52.42,37.23 L55.80,35.87 L59.41,35.30 L59.22,36.35 L59.40,36.83 L59.91,36.91 L65.11,34.94 L65.54,34.40 L65.29,33.76 L60.90,30.36 L60.39,30.29 L60.07,30.70 L59.81,32.55 L55.87,33.02 L52.12,34.31 L48.72,36.36 L45.83,39.08 L43.56,42.33 L42.03,46.00 L41.30,49.90 L41.41,53.86 L42.34,57.72 L44.06,61.29 L46.48,64.43 L49.52,66.99 L53.02,68.86 L56.83,69.95 L60.79,70.23 L64.71,69.66 L68.44,68.29 L71.79,66.17 L74.62,63.39 L76.81,60.08 L78.26,56.39 L78.91,52.48 L78.72,48.51 L77.70,44.68 L75.91,41.14 L73.41,38.06 L73.42,38.06 Z" fill="#ffffff" stroke="#1e1e1e" stroke-width="1" stroke-linejoin="round"/></svg>