<svg xmlns="http://www.w3.org/2000/svg" viewBox="0.82 0.82 100.00 100.00"><path d="M69.40,2.82 L32.24,2.82 L31.02,3.08 L29.99,3.78 L3.78,29.99 L3.08,31.02 L2.82,32.24 L2.82,69.40 L3.08,70.63 L3.78,71.66 L29.99,97.86 L31.02,98.57 L32.24,98.82 L69.40,98.82 L70.63,98.57 L71.66,97.86 L97.86,71.66 L98.57,70.63 L98.82,69.40 L98.82,32.24 L98.57,31.02 L97.86,29.99 L71.66,3.78 L70.63,3.08 L69.40,2.82 L69.40,2.82 Z" fill="#815cbe" stroke="#1e1e1e" stroke-width="1" stroke-linejoin="round"/><path d="M33.88,43.14 L33.49,43.54 L27.84,49.19 L27.65,49.73 L27.88,50.25 L28.40,50.48 L49.86,50.48 L50.42,50.25 L50.65,49.69 L50.65,28.52 L50.48,27.82 L49.86,27.44 L49.16,27.62 L48.79,28.24 L43.14,33.88 L42.75,34.28 L42.18,34.49 L41.62,34.28 L27.11,19.99 L19.37,27.78 L33.88,42.01 L34.10,42.58 L33.88,43.14 Z" fill="#f2f2f2" stroke="#1e1e1e" stroke-width="1" stroke-linejoin="round"/><path d="M91.37,33.37 L68.27,10.28 L67.75,9.94 L67.14,9.83 L34.50,9.83 L33.89,9.94 L33.37,10.28 L10.28,33.37 L9.94,33.89 L9.83,34.50 L9.83,67.14 L9.95,67.75 L10.28,68.27 L33.37,91.37 L33.89,91.71 L34.50,91.82 L67.14,91.82 L67.75,91.71 L68.27,91.37 L91.37,68.27 L91.70,67.75 L91.82,67.14 L91.82,34.50 L91.71,33.89 L91.37,33.37 Z" fill="#f2f2f2" stroke="#1e1e1e" stroke-width="1" stroke-linejoin="round"/><path d="M89.34,64.15 L71.55,46.36 L75.84,42.01 L76.15,41.34 L75.84,40.66 L75.53,40.60 L75.22,40.66 L59.92,40.26 L59.26,40.52 L58.96,41.17 L58.96,41.17 L59.35,56.47 L59.63,57.13 L60.31,57.37 L60.31,57.37 L60.65,57.46 L60.99,57.37 L65.79,52.63 L84.71,71.27 L70.36,85.61 L50.82,66.13 L55.34,62.12 L55.65,61.44 L55.34,60.76 L55.06,60.56 L54.72,60.48 L39.53,59.80 L38.87,60.06 L38.57,60.71 L38.57,60.71 L38.96,76.01 L39.25,76.67 L39.92,76.91 L39.92,76.91 L40.29,76.84 L40.60,76.63 L45.18,71.94 L62.57,89.34 L34.84,89.34 L12.25,66.75 L12.25,34.84 L19.37,27.78 L27.11,19.99 L34.84,12.25 L66.80,12.25 L89.39,34.84 L89.34,64.15 Z" fill="#815cbe" stroke="#1e1e1e" stroke-width="1" stroke-linejoin="round"/><path d="M33.88,43.14 L33.49,43.54 L27.84,49.19 L27.65,49.73 L27.88,50.25 L28.40,50.48 L49.86,50.48 L50.42,50.25 L50.65,49.69 L50.65,28.52 L50.48,27.82 L49.86,27.44 L49.16,27.62 L48.79,28.24 L43.14,33.88 L42.75,34.28 L42.18,34.49 L41.62,34.28 L27.11,19.99 L19.37,27.78 L33.88,42.01 L34.10,42.58 L33.88,43.14 Z" fill="#f2f2f2" stroke="#1e1e1e" stroke-width="1" stroke-linejoin="round"/></svg>