<svg xmlns="http://www.w3.org/2000/svg" viewBox="0.67 0.67 94.67 94.67"><path d="M65.55,2.67 L30.45,2.67 L29.30,2.90 L28.32,3.57 L3.57,28.32 L2.90,29.30 L2.67,30.45 L2.67,65.55 L2.90,66.70 L3.57,67.68 L28.32,92.43 L29.30,93.10 L30.45,93.33 L65.55,93.33 L66.70,93.10 L67.68,92.43 L92.43,67.68 L93.10,66.70 L93.33,65.55 L93.33,30.45 L93.10,29.30 L92.43,28.32 L67.68,3.57 L66.70,2.90 L65.55,2.67 Z" fill="#815cbe" stroke="#1e1e1e" stroke-width="1" stroke-linejoin="round"/><path d="M32.00,40.75 L31.63,41.12 L26.29,46.45 L26.12,46.96 L26.33,47.46 L26.83,47.68 L47.09,47.68 L47.62,47.46 L47.84,46.93 L47.84,26.93 L47.68,26.27 L47.09,25.92 L46.43,26.08 L46.08,26.67 L40.75,32.00 L40.37,32.37 L39.84,32.58 L39.31,32.37 L25.60,18.88 L18.29,26.24 L32.00,39.68 L32.20,40.21 L32.00,40.75 Z" fill="#f2f2f2" stroke="#1e1e1e" stroke-width="1" stroke-linejoin="round"/><path d="M86.29,31.52 L64.48,9.71 L63.99,9.39 L63.41,9.28 L32.59,9.28 L32.01,9.39 L31.52,9.71 L9.71,31.52 L9.39,32.01 L9.28,32.59 L9.28,63.41 L9.39,63.99 L9.71,64.48 L31.52,86.29 L32.01,86.61 L32.59,86.72 L63.41,86.72 L63.99,86.61 L64.48,86.29 L86.29,64.48 L86.61,63.99 L86.72,63.41 L86.72,32.59 L86.61,32.01 L86.29,31.52 L86.29,31.52 Z" fill="#f2f2f2" stroke="#1e1e1e" stroke-width="1" stroke-linejoin="round"/><path d="M84.37,60.59 L67.57,43.79 L71.63,39.68 L71.92,39.04 L71.63,38.40 L71.33,38.35 L71.04,38.40 L56.59,38.03 L55.96,38.27 L55.68,38.88 L55.68,38.88 L56.05,53.33 L56.32,53.96 L56.96,54.19 L56.96,54.19 L57.28,54.26 L57.60,54.19 L62.13,49.71 L80.00,67.31 L66.45,80.85 L48.00,62.45 L52.27,58.67 L52.56,58.03 L52.27,57.39 L52.00,57.20 L51.68,57.12 L37.33,56.48 L36.71,56.73 L36.43,57.33 L36.43,57.33 L36.80,71.79 L37.07,72.41 L37.71,72.64 L37.71,72.64 L38.05,72.57 L38.35,72.37 L42.67,67.95 L59.09,84.37 L32.91,84.37 L11.57,63.04 L11.57,32.91 L18.29,26.24 L25.60,18.88 L32.91,11.57 L63.09,11.57 L84.43,32.91 L84.37,60.59 Z" fill="#815cbe" stroke="#1e1e1e" stroke-width="1" stroke-linejoin="round"/></svg>