<svg xmlns="http://www.w3.org/2000/svg" viewBox="0.67 1.20 94.67 93.50"><path d="M93.33,47.47 L92.80,43.40 L91.48,39.53 L89.41,35.99 L86.69,32.93 L83.41,30.48 L79.71,28.72 L75.73,27.73 L75.11,23.33 L73.74,19.09 L71.67,15.15 L68.96,11.63 L65.68,8.61 L61.94,6.20 L57.84,4.47 L53.51,3.46 L49.07,3.20 L44.48,3.57 L40.03,4.72 L35.84,6.62 L32.03,9.21 L28.73,12.41 L26.03,16.14 L24.00,20.27 L19.83,21.26 L15.88,22.94 L12.29,25.28 L9.14,28.19 L6.54,31.60 L4.56,35.40 L3.25,39.49 L2.67,43.73 L3.15,48.04 L4.38,52.20 L6.32,56.07 L8.92,59.55 L12.08,62.51 L15.72,64.88 L19.71,66.57 L23.94,67.53 L28.27,67.73 L73.07,67.73 L77.02,67.34 L80.82,66.19 L84.33,64.32 L87.40,61.80 L89.92,58.73 L91.79,55.22 L92.94,51.42 L93.33,47.47 Z" fill="#30d0f2" stroke="#1e1e1e" stroke-width="1" stroke-linejoin="round"/><ellipse cx="48.00" cy="68.80" rx="23.47" ry="23.47" fill="#f2f2f2" stroke="#1e1e1e" stroke-width="1"/><path d="M67.73,53.87 L64.88,50.73 L61.52,48.13 L57.77,46.15 L53.74,44.85 L49.54,44.26 L45.30,44.40 L41.15,45.27 L37.21,46.84 L33.60,49.07 L33.60,49.07 L30.27,52.12 L27.56,55.75 L25.57,59.81 L24.37,64.16 L23.99,68.67 L24.45,73.17 L25.74,77.50 L27.81,81.52 L30.58,85.09 L33.97,88.09 L37.86,90.40 L42.10,91.96 L46.56,92.70 L51.08,92.60 L55.51,91.67 L59.68,89.94 L63.47,87.47 L63.47,87.47 L66.48,84.60 L68.97,81.27 L70.85,77.56 L72.07,73.58 L72.59,69.46 L72.40,65.30 L71.51,61.24 L69.94,57.39 L67.73,53.87 Z" fill="#0078d4" stroke="#0078d4" stroke-width="1" stroke-linejoin="round"/><path d="M27.20,67.20 L27.89,62.84 L29.33,58.67 L35.20,58.67 L34.44,62.91 L34.13,67.20 L27.20,67.20 Z" fill="#f2f2f2" stroke="#f2f2f2" stroke-width="1" stroke-linejoin="round"/><path d="M38.40,58.67 L46.40,58.67 L46.40,67.20 L37.33,67.20 L37.64,62.91 L38.40,58.67 L38.40,58.67 Z" fill="#f2f2f2" stroke="#f2f2f2" stroke-width="1" stroke-linejoin="round"/><path d="M49.60,58.67 L57.60,58.67 L58.36,62.91 L58.67,67.20 L49.60,67.20 L49.60,58.67 Z" fill="#f2f2f2" stroke="#f2f2f2" stroke-width="1" stroke-linejoin="round"/><path d="M46.93,69.87 L46.93,78.40 L38.40,78.40 L36.80,70.40 L46.93,69.87 Z" fill="#f2f2f2" stroke="#f2f2f2" stroke-width="1" stroke-linejoin="round"/><path d="M49.60,69.87 L59.20,69.87 L58.84,74.15 L58.13,78.40 L49.60,78.40 L49.60,69.87 Z" fill="#f2f2f2" stroke="#f2f2f2" stroke-width="1" stroke-linejoin="round"/><path d="M62.40,69.87 L69.33,69.87 L68.64,74.23 L67.20,78.40 L61.33,78.40 L62.09,74.16 L62.40,69.87 L62.40,69.87 Z" fill="#f2f2f2" stroke="#f2f2f2" stroke-width="1" stroke-linejoin="round"/><path d="M62.40,67.20 L62.04,62.91 L61.33,58.67 L67.20,58.67 L68.29,61.41 L69.00,64.27 L69.33,67.20 L62.40,67.20 Z" fill="#f2f2f2" stroke="#f2f2f2" stroke-width="1" stroke-linejoin="round"/><path d="M65.07,55.47 L60.27,55.47 L58.91,52.15 L57.07,49.07 L60.04,50.80 L62.72,52.95 L65.07,55.47 Z" fill="#f2f2f2" stroke="#f2f2f2" stroke-width="1" stroke-linejoin="round"/><path d="M57.07,55.47 L49.60,55.47 L49.60,48.00 L52.09,49.14 L54.23,50.83 L55.93,52.98 L57.07,55.47 L57.07,55.47 Z" fill="#f2f2f2" stroke="#f2f2f2" stroke-width="1" stroke-linejoin="round"/><path d="M46.93,48.00 L46.93,56.00 L39.47,56.00 L40.50,53.35 L42.17,51.04 L44.36,49.21 L46.93,48.00 Z" fill="#f2f2f2" stroke="#f2f2f2" stroke-width="1" stroke-linejoin="round"/><path d="M35.20,51.73 L35.20,51.73 L37.28,50.31 L39.47,49.07 L38.04,51.20 L36.97,53.53 L36.27,56.00 L31.47,56.00 L33.12,53.68 L35.20,51.73 L35.20,51.73 Z" fill="#f2f2f2" stroke="#f2f2f2" stroke-width="1" stroke-linejoin="round"/><path d="M27.20,70.40 L34.13,70.40 L34.49,74.69 L35.20,78.93 L29.33,78.93 L27.94,74.75 L27.20,70.40 L27.20,70.40 Z" fill="#f2f2f2" stroke="#f2f2f2" stroke-width="1" stroke-linejoin="round"/><path d="M31.47,81.60 L36.27,81.60 L39.47,88.00 L36.42,86.38 L33.72,84.22 L31.47,81.60 L31.47,81.60 Z" fill="#f2f2f2" stroke="#f2f2f2" stroke-width="1" stroke-linejoin="round"/><path d="M39.47,81.60 L46.40,81.60 L46.40,89.60 L44.07,88.20 L42.08,86.34 L40.52,84.11 L39.47,81.60 L39.47,81.60 Z" fill="#f2f2f2" stroke="#f2f2f2" stroke-width="1" stroke-linejoin="round"/><path d="M49.60,89.60 L49.60,81.60 L56.53,81.60 L55.67,84.23 L54.15,86.54 L52.08,88.37 L49.60,89.60 L49.60,89.60 Z" fill="#f2f2f2" stroke="#f2f2f2" stroke-width="1" stroke-linejoin="round"/><path d="M61.33,85.33 L61.33,85.33 L59.07,86.90 L56.53,88.00 L58.45,84.96 L59.73,81.60 L64.53,81.60 L63.77,83.08 L62.68,84.35 L61.33,85.33 L61.33,85.33 Z" fill="#f2f2f2" stroke="#f2f2f2" stroke-width="1" stroke-linejoin="round"/><path d="M27.20,60.80 L23.76,58.71 L20.78,56.01 L18.34,52.81 L16.55,49.21 L15.47,45.33 L15.85,41.75 L16.88,38.29 L18.54,35.09 L20.76,32.25 L23.47,29.87 L26.67,27.20 L29.33,30.40 L26.13,33.07 L23.91,34.76 L22.10,36.89 L20.76,39.34 L19.96,42.02 L19.73,44.80 L20.57,47.93 L22.02,50.84 L24.02,53.39 L26.49,55.50 L29.33,57.07 L27.20,60.80 Z" fill="#e6e6e6" stroke="#1e1e1e" stroke-width="1" stroke-linejoin="round"/><ellipse cx="28.27" cy="28.80" rx="5.87" ry="5.87" fill="#f2f2f2" stroke="#f2f2f2" stroke-width="1"/><path d="M67.73,60.80 L65.60,57.07 L68.37,55.42 L70.80,53.29 L72.79,50.75 L74.27,47.89 L75.20,44.80 L74.70,41.37 L73.42,38.16 L71.41,35.34 L68.80,33.07 L65.60,30.93 L68.27,27.73 L71.47,29.87 L74.39,32.07 L76.76,34.87 L78.44,38.12 L79.36,41.67 L79.47,45.33 L78.38,49.21 L76.59,52.81 L74.16,56.01 L71.17,58.71 L67.73,60.80 Z" fill="#e6e6e6" stroke="#1e1e1e" stroke-width="1" stroke-linejoin="round"/><ellipse cx="67.20" cy="28.80" rx="5.87" ry="5.87" fill="#f2f2f2" stroke="#f2f2f2" stroke-width="1"/><ellipse cx="28.27" cy="59.20" rx="5.87" ry="5.87" fill="#ce74b6" stroke="#ce74b6" stroke-width="1"/><ellipse cx="67.20" cy="59.20" rx="5.87" ry="5.87" fill="#ce74b6" stroke="#ce74b6" stroke-width="1"/></svg>