<svg xmlns="http://www.w3.org/2000/svg" viewBox="-2.02 17.29 100.00 61.39"><ellipse cx="67.92" cy="47.93" rx="6.18" ry="6.18" fill="#72b62c" stroke="#72b62c" stroke-width="1"/><ellipse cx="48.20" cy="47.98" rx="6.18" ry="6.18" fill="#72b62c" stroke="#72b62c" stroke-width="1"/><ellipse cx="28.47" cy="47.98" rx="6.18" ry="6.18" fill="#72b62c" stroke="#72b62c" stroke-width="1"/><path d="M32.96,72.71 L29.42,76.26 L28.70,76.67 L27.88,76.67 L27.16,76.26 L0.96,50.13 L0.26,49.10 L0.02,47.87 L0.26,46.65 L0.95,45.61 L4.49,42.06 L4.49,42.06 L32.96,70.45 L33.37,71.16 L33.37,71.99 L32.96,72.71 L32.96,72.71 Z" fill="#50e6ff" stroke="#1e1e1e" stroke-width="1" stroke-linejoin="round"/><path d="M28.89,19.77 L32.43,23.31 L32.85,24.03 L32.85,24.85 L32.44,25.57 L4.47,53.62 L4.47,53.62 L0.92,50.08 L0.22,49.05 L-0.02,47.82 L0.22,46.60 L0.91,45.56 L26.62,19.77 L27.34,19.36 L28.17,19.36 L28.89,19.77 L28.89,19.77 Z" fill="#1490df" stroke="#1e1e1e" stroke-width="1" stroke-linejoin="round"/><path d="M91.47,42.01 L95.01,45.56 L95.70,46.60 L95.94,47.82 L95.70,49.05 L95.00,50.09 L68.80,76.21 L68.09,76.63 L67.26,76.62 L66.54,76.21 L63.00,72.66 L62.59,71.94 L62.59,71.12 L63.01,70.40 L91.47,42.01 L91.47,42.01 L91.47,42.01 Z" fill="#50e6ff" stroke="#1e1e1e" stroke-width="1" stroke-linejoin="round"/><path d="M95.00,50.05 L91.45,53.59 L91.45,53.59 L63.48,25.54 L63.07,24.82 L63.07,23.99 L63.48,23.27 L67.07,19.70 L67.79,19.29 L68.61,19.29 L69.33,19.70 L95.04,45.49 L95.74,46.52 L95.98,47.75 L95.73,48.97 L95.04,50.01 L95.00,50.05 Z" fill="#1490df" stroke="#1e1e1e" stroke-width="1" stroke-linejoin="round"/></svg>