<svg xmlns="http://www.w3.org/2000/svg" viewBox="1.87 1.87 100.00 100.00"><ellipse cx="51.87" cy="51.87" rx="48.00" ry="48.00" fill="#0070c6" stroke="#1e1e1e" stroke-width="1"/><path d="M38.04,23.85 L51.29,10.59 L52.00,10.18 L52.81,10.18 L53.52,10.59 L66.78,23.85 L66.99,24.35 L66.78,24.85 L66.28,25.05 L58.13,25.05 L57.63,25.26 L57.42,25.76 L57.42,42.32 L57.25,42.73 L56.85,42.89 L47.95,42.89 L47.55,42.73 L47.38,42.32 L47.38,25.76 L47.18,25.26 L46.68,25.05 L38.54,25.05 L38.04,24.84 L37.83,24.35 L38.04,23.85 Z" fill="#9cebff" stroke="#1e1e1e" stroke-width="1" stroke-linejoin="round"/><path d="M66.77,79.89 L53.52,93.14 L52.81,93.55 L51.99,93.55 L51.28,93.14 L38.03,79.89 L37.83,79.39 L38.03,78.89 L38.53,78.68 L46.68,78.68 L47.18,78.47 L47.38,77.97 L47.38,61.42 L47.55,61.01 L47.96,60.84 L56.86,60.84 L57.27,61.01 L57.43,61.42 L57.43,77.97 L57.64,78.47 L58.14,78.68 L66.27,78.68 L66.77,78.89 L66.98,79.39 L66.77,79.89 Z" fill="#9cebff" stroke="#1e1e1e" stroke-width="1" stroke-linejoin="round"/><path d="M74.25,66.35 L61.00,53.09 L60.59,52.39 L60.59,51.57 L61.00,50.86 L74.25,37.61 L74.75,37.40 L75.25,37.60 L75.45,38.10 L75.45,46.26 L75.66,46.76 L76.16,46.97 L92.72,46.97 L93.13,47.14 L93.30,47.54 L93.30,56.43 L93.13,56.84 L92.72,57.01 L76.16,57.01 L75.66,57.21 L75.45,57.71 L75.45,65.86 L75.24,66.35 L74.75,66.55 L74.25,66.35 L74.25,66.35 Z" fill="#f2f2f2" stroke="#1e1e1e" stroke-width="1" stroke-linejoin="round"/><path d="M29.48,37.62 L42.74,50.87 L43.15,51.58 L43.15,52.39 L42.74,53.10 L29.48,66.36 L28.98,66.56 L28.49,66.35 L28.28,65.85 L28.28,57.70 L28.07,57.20 L27.58,57.00 L11.01,57.00 L10.61,56.83 L10.44,56.42 L10.44,47.53 L10.61,47.12 L11.01,46.95 L27.58,46.95 L28.07,46.74 L28.28,46.24 L28.28,38.11 L28.49,37.61 L28.99,37.40 L29.48,37.62 L29.48,37.62 Z" fill="#f2f2f2" stroke="#1e1e1e" stroke-width="1" stroke-linejoin="round"/></svg>