<svg xmlns="http://www.w3.org/2000/svg" viewBox="0.82 1.39 100.00 98.76"><path d="M98.82,50.26 L98.26,45.96 L96.86,41.85 L94.67,38.11 L91.79,34.87 L88.32,32.27 L84.40,30.41 L80.19,29.36 L79.53,24.70 L78.08,20.22 L75.88,16.05 L73.01,12.31 L69.54,9.12 L65.58,6.57 L61.25,4.73 L56.66,3.66 L51.95,3.39 L47.10,3.78 L42.38,5.00 L37.94,7.01 L33.92,9.75 L30.42,13.14 L27.56,17.08 L25.41,21.46 L20.99,22.51 L16.82,24.29 L13.01,26.76 L9.68,29.85 L6.93,33.46 L4.83,37.48 L3.45,41.81 L2.82,46.31 L3.34,50.87 L4.64,55.27 L6.70,59.37 L9.44,63.05 L12.79,66.19 L16.64,68.69 L20.87,70.48 L25.34,71.50 L29.93,71.72 L77.36,71.72 L81.55,71.31 L85.58,70.08 L89.29,68.10 L92.54,65.43 L95.21,62.18 L97.19,58.47 L98.41,54.45 L98.82,50.26 Z" fill="#30d0f2" stroke="#1e1e1e" stroke-width="1" stroke-linejoin="round"/><ellipse cx="50.82" cy="72.85" rx="24.85" ry="24.85" fill="#f2f2f2" stroke="#1e1e1e" stroke-width="1"/><path d="M71.72,57.04 L68.69,53.72 L65.14,50.97 L61.17,48.87 L56.90,47.49 L52.45,46.86 L47.96,47.01 L43.57,47.93 L39.40,49.60 L35.58,51.95 L35.58,51.95 L32.05,55.19 L29.18,59.02 L27.08,63.32 L25.80,67.94 L25.40,72.71 L25.89,77.47 L27.25,82.06 L29.44,86.32 L32.38,90.10 L35.97,93.27 L40.08,95.72 L44.58,97.37 L49.30,98.15 L54.09,98.05 L58.77,97.07 L63.19,95.23 L67.20,92.61 L67.20,92.61 L70.39,89.58 L73.02,86.05 L75.01,82.12 L76.31,77.91 L76.86,73.54 L76.66,69.15 L75.72,64.84 L74.05,60.77 L71.72,57.04 Z" fill="#0078d4" stroke="#0078d4" stroke-width="1" stroke-linejoin="round"/><path d="M28.80,71.15 L29.53,66.54 L31.06,62.12 L37.27,62.12 L36.47,66.61 L36.14,71.15 L28.80,71.15 Z" fill="#f2f2f2" stroke="#f2f2f2" stroke-width="1" stroke-linejoin="round"/><path d="M40.66,62.12 L49.13,62.12 L49.13,71.15 L39.53,71.15 L39.86,66.61 L40.66,62.12 L40.66,62.12 Z" fill="#f2f2f2" stroke="#f2f2f2" stroke-width="1" stroke-linejoin="round"/><path d="M52.52,62.12 L60.99,62.12 L61.79,66.61 L62.12,71.15 L52.52,71.15 L52.52,62.12 Z" fill="#f2f2f2" stroke="#f2f2f2" stroke-width="1" stroke-linejoin="round"/><path d="M49.69,73.98 L49.69,83.01 L40.66,83.01 L38.96,74.54 L49.69,73.98 Z" fill="#f2f2f2" stroke="#f2f2f2" stroke-width="1" stroke-linejoin="round"/><path d="M52.52,73.98 L62.68,73.98 L62.30,78.52 L61.55,83.01 L52.52,83.01 L52.52,73.98 Z" fill="#f2f2f2" stroke="#f2f2f2" stroke-width="1" stroke-linejoin="round"/><path d="M66.07,73.98 L73.41,73.98 L72.68,78.59 L71.15,83.01 L64.94,83.01 L65.74,78.52 L66.07,73.98 L66.07,73.98 Z" fill="#f2f2f2" stroke="#f2f2f2" stroke-width="1" stroke-linejoin="round"/><path d="M66.07,71.15 L65.69,66.61 L64.94,62.12 L71.15,62.12 L72.30,65.02 L73.06,68.05 L73.41,71.15 L66.07,71.15 Z" fill="#f2f2f2" stroke="#f2f2f2" stroke-width="1" stroke-linejoin="round"/><path d="M68.89,58.73 L63.81,58.73 L62.37,55.21 L60.42,51.95 L63.57,53.79 L66.41,56.07 L68.89,58.73 Z" fill="#f2f2f2" stroke="#f2f2f2" stroke-width="1" stroke-linejoin="round"/><path d="M60.42,58.73 L52.52,58.73 L52.52,50.82 L55.15,52.03 L57.42,53.82 L59.22,56.10 L60.42,58.73 L60.42,58.73 Z" fill="#f2f2f2" stroke="#f2f2f2" stroke-width="1" stroke-linejoin="round"/><path d="M49.69,50.82 L49.69,59.29 L41.79,59.29 L42.88,56.48 L44.65,54.04 L46.97,52.11 L49.69,50.82 Z" fill="#f2f2f2" stroke="#f2f2f2" stroke-width="1" stroke-linejoin="round"/><path d="M37.27,54.78 L37.27,54.78 L39.47,53.27 L41.79,51.95 L40.28,54.21 L39.14,56.68 L38.40,59.29 L33.32,59.29 L35.07,56.84 L37.27,54.78 L37.27,54.78 Z" fill="#f2f2f2" stroke="#f2f2f2" stroke-width="1" stroke-linejoin="round"/><path d="M28.80,74.54 L36.14,74.54 L36.52,79.08 L37.27,83.58 L31.06,83.58 L29.58,79.15 L28.80,74.54 L28.80,74.54 Z" fill="#f2f2f2" stroke="#f2f2f2" stroke-width="1" stroke-linejoin="round"/><path d="M33.32,86.40 L38.40,86.40 L41.79,93.18 L38.56,91.46 L35.70,89.17 L33.32,86.40 L33.32,86.40 Z" fill="#f2f2f2" stroke="#f2f2f2" stroke-width="1" stroke-linejoin="round"/><path d="M41.79,86.40 L49.13,86.40 L49.13,94.87 L46.66,93.39 L44.56,91.42 L42.91,89.05 L41.79,86.40 L41.79,86.40 Z" fill="#f2f2f2" stroke="#f2f2f2" stroke-width="1" stroke-linejoin="round"/><path d="M52.52,94.87 L52.52,86.40 L59.86,86.40 L58.94,89.18 L57.33,91.63 L55.14,93.57 L52.52,94.87 L52.52,94.87 Z" fill="#f2f2f2" stroke="#f2f2f2" stroke-width="1" stroke-linejoin="round"/><path d="M64.94,90.35 L64.94,90.35 L62.54,92.02 L59.86,93.18 L61.89,89.96 L63.25,86.40 L68.33,86.40 L67.52,87.97 L66.37,89.31 L64.94,90.35 L64.94,90.35 Z" fill="#f2f2f2" stroke="#f2f2f2" stroke-width="1" stroke-linejoin="round"/><path d="M28.80,64.38 L25.16,62.16 L22.00,59.31 L19.42,55.92 L17.53,52.10 L16.38,48.00 L16.78,44.20 L17.88,40.55 L19.63,37.16 L21.98,34.15 L24.85,31.62 L28.24,28.80 L31.06,32.19 L27.67,35.01 L25.32,36.81 L23.40,39.06 L21.98,41.65 L21.13,44.49 L20.89,47.44 L21.78,50.75 L23.32,53.83 L25.44,56.53 L28.05,58.76 L31.06,60.42 L28.80,64.38 Z" fill="#e6e6e6" stroke="#1e1e1e" stroke-width="1" stroke-linejoin="round"/><ellipse cx="29.93" cy="30.49" rx="6.21" ry="6.21" fill="#f2f2f2" stroke="#f2f2f2" stroke-width="1"/><path d="M71.72,64.38 L69.46,60.42 L72.40,58.68 L74.96,56.43 L77.07,53.74 L78.64,50.71 L79.62,47.44 L79.10,43.81 L77.73,40.41 L75.61,37.42 L72.85,35.01 L69.46,32.75 L72.28,29.36 L75.67,31.62 L78.77,33.96 L81.27,36.92 L83.06,40.37 L84.03,44.12 L84.14,48.00 L82.99,52.10 L81.09,55.92 L78.52,59.31 L75.36,62.16 L71.72,64.38 Z" fill="#e6e6e6" stroke="#1e1e1e" stroke-width="1" stroke-linejoin="round"/><ellipse cx="71.15" cy="30.49" rx="6.21" ry="6.21" fill="#f2f2f2" stroke="#f2f2f2" stroke-width="1"/><ellipse cx="29.93" cy="62.68" rx="6.21" ry="6.21" fill="#ce74b6" stroke="#ce74b6" stroke-width="1"/><ellipse cx="71.15" cy="62.68" rx="6.21" ry="6.21" fill="#ce74b6" stroke="#ce74b6" stroke-width="1"/></svg>