<svg xmlns="http://www.w3.org/2000/svg" viewBox="-1.96 -1.87 99.96 99.71"><path d="M76.20,50.42 L76.20,50.45 L90.63,50.12 L90.53,45.62 L76.19,45.95 L76.19,45.86 L64.22,44.49 L64.22,31.46 L64.19,31.40 L72.66,9.74 L68.46,8.13 L59.93,29.94 L59.94,29.94 L50.78,40.52 L36.35,29.85 L36.16,29.70 L27.72,8.13 L23.52,9.74 L32.05,31.55 L32.17,31.51 L39.90,48.44 L21.31,45.86 L21.22,46.01 L21.22,45.95 L6.95,45.62 L6.85,50.12 L21.11,50.45 L21.15,48.91 L30.58,51.91 L32.45,58.26 L32.27,65.55 L23.73,87.36 L27.94,88.98 L36.47,67.16 L35.78,66.90 L42.50,60.37 L60.02,64.51 L62.21,66.37 L60.14,67.16 L68.67,88.98 L72.87,87.36 L64.35,65.55 L64.19,65.61 L65.45,56.54 L76.20,50.42 Z" fill="#9cebff" stroke="#1e1e1e" stroke-width="1" stroke-linejoin="round"/><path d="M96.00,48.20 L95.61,50.48 L94.49,52.50 L92.77,54.04 L90.63,54.93 L88.33,55.06 L86.10,54.42 L84.22,53.08 L82.88,51.19 L82.24,48.97 L82.37,46.66 L83.26,44.53 L84.80,42.80 L86.82,41.68 L89.10,41.30 L91.23,41.63 L93.16,42.61 L94.68,44.14 L95.66,46.06 L96.00,48.20 L96.00,48.20 Z" fill="#86d633" stroke="#86d633" stroke-width="1" stroke-linejoin="round"/><path d="M6.90,41.30 L4.62,41.68 L2.60,42.80 L1.06,44.53 L0.17,46.66 L0.04,48.97 L0.68,51.19 L2.02,53.08 L3.91,54.42 L6.13,55.06 L8.44,54.93 L10.57,54.04 L12.30,52.50 L13.42,50.48 L13.80,48.20 L13.46,46.06 L12.48,44.14 L10.96,42.61 L9.03,41.63 L6.90,41.30 L6.90,41.30 Z" fill="#86d633" stroke="#86d633" stroke-width="1" stroke-linejoin="round"/><path d="M25.46,82.07 L23.18,82.46 L21.15,83.58 L19.61,85.30 L18.72,87.44 L18.59,89.75 L19.23,91.97 L20.57,93.85 L22.45,95.19 L24.68,95.83 L26.98,95.70 L29.12,94.82 L30.85,93.28 L31.96,91.26 L32.35,88.98 L32.01,86.84 L31.04,84.92 L29.51,83.39 L27.59,82.41 L25.46,82.07 L25.46,82.07 Z" fill="#86d633" stroke="#86d633" stroke-width="1" stroke-linejoin="round"/><path d="M71.75,82.07 L69.47,82.46 L67.44,83.58 L65.90,85.30 L65.02,87.44 L64.89,89.75 L65.52,91.97 L66.86,93.85 L68.75,95.19 L70.97,95.83 L73.28,95.70 L75.41,94.82 L77.14,93.28 L78.26,91.26 L78.65,88.98 L78.31,86.84 L77.33,84.92 L75.80,83.39 L73.88,82.41 L71.75,82.07 L71.75,82.07 Z" fill="#86d633" stroke="#86d633" stroke-width="1" stroke-linejoin="round"/><path d="M24.70,0.13 L22.42,0.52 L20.40,1.63 L18.86,3.36 L17.98,5.50 L17.85,7.80 L18.49,10.03 L19.83,11.91 L21.71,13.25 L23.93,13.89 L26.24,13.76 L28.38,12.87 L30.10,11.33 L31.22,9.30 L31.61,7.02 L31.27,4.89 L30.29,2.97 L28.76,1.44 L26.84,0.46 L24.70,0.13 L24.70,0.13 Z" fill="#86d633" stroke="#86d633" stroke-width="1" stroke-linejoin="round"/><path d="M72.26,0.13 L69.98,0.51 L67.95,1.63 L66.41,3.36 L65.52,5.49 L65.39,7.80 L66.03,10.02 L67.37,11.91 L69.26,13.25 L71.48,13.89 L73.79,13.76 L75.92,12.87 L77.65,11.33 L78.77,9.30 L79.15,7.02 L78.81,4.89 L77.83,2.97 L76.31,1.45 L74.39,0.47 L72.26,0.13 L72.26,0.13 Z" fill="#86d633" stroke="#86d633" stroke-width="1" stroke-linejoin="round"/><path d="M18.84,37.43 L77.16,37.43 L77.16,37.43 L77.16,69.97 L76.90,70.94 L76.18,71.65 L75.21,71.91 L20.80,71.91 L19.83,71.65 L19.11,70.94 L18.85,69.97 L18.85,37.43 L18.84,37.43 Z" fill="#3d92e5" stroke="#1e1e1e" stroke-width="1" stroke-linejoin="round"/><path d="M20.80,25.01 L75.20,25.01 L76.17,25.27 L76.89,25.98 L77.15,26.95 L77.15,37.43 L77.15,37.43 L18.85,37.43 L18.85,37.43 L18.85,26.95 L19.11,25.98 L19.83,25.27 L20.80,25.01 L20.80,25.01 Z" fill="#0078d4" stroke="#1e1e1e" stroke-width="1" stroke-linejoin="round"/><path d="M56.37,50.75 L57.67,51.09 L58.62,52.05 L58.97,53.34 L58.62,54.64 L57.67,55.59 L56.37,55.94 L55.07,55.59 L54.12,54.64 L53.78,53.34 L54.12,52.05 L55.07,51.09 L56.37,50.75 L56.37,50.75 Z" fill="#ffffff" stroke="#ffffff" stroke-width="1" stroke-linejoin="round" opacity="0.8"/><path d="M45.50,53.37 L45.85,54.66 L46.80,55.62 L48.10,55.96 L49.40,55.61 L50.35,54.66 L50.69,53.36 L50.34,52.06 L49.39,51.11 L48.09,50.77 L46.79,51.12 L45.85,52.07 L45.50,53.37 Z" fill="#ffffff" stroke="#ffffff" stroke-width="1" stroke-linejoin="round" opacity="0.8"/><path d="M37.22,53.37 L37.56,54.66 L38.51,55.61 L39.81,55.96 L41.11,55.61 L42.06,54.66 L42.41,53.37 L42.06,52.07 L41.11,51.12 L39.81,50.77 L38.51,51.12 L37.56,52.07 L37.22,53.37 L37.22,53.37 Z" fill="#ffffff" stroke="#ffffff" stroke-width="1" stroke-linejoin="round" opacity="0.8"/><path d="M41.70,63.74 L40.21,65.23 L39.74,65.43 L39.26,65.23 L39.26,65.23 L28.27,54.27 L27.87,53.32 L28.27,52.37 L28.27,52.37 L29.75,50.88 L29.75,50.88 L41.70,62.79 L41.89,63.27 L41.70,63.74 L41.70,63.74 Z" fill="#ffffff" stroke="#ffffff" stroke-width="1" stroke-linejoin="round"/><path d="M66.26,50.86 L54.31,62.77 L54.31,62.77 L54.11,63.25 L54.31,63.72 L55.80,65.21 L55.80,65.21 L56.27,65.41 L56.75,65.21 L67.73,54.25 L67.73,54.25 L68.13,53.30 L67.73,52.35 L66.25,50.86 L66.26,50.86 Z" fill="#ffffff" stroke="#ffffff" stroke-width="1" stroke-linejoin="round"/><path d="M40.00,41.53 L41.49,43.01 L41.68,43.48 L41.49,43.96 L29.75,55.73 L29.75,55.73 L28.27,54.25 L27.87,53.30 L28.27,52.35 L28.27,52.35 L39.04,41.53 L39.52,41.32 L40.00,41.53 Z" fill="#ffffff" stroke="#ffffff" stroke-width="1" stroke-linejoin="round" opacity="0.8"/><path d="M67.73,54.21 L67.73,54.21 L68.13,53.26 L67.73,52.31 L56.96,41.49 L56.96,41.49 L56.49,41.30 L56.01,41.49 L54.51,43.00 L54.51,43.00 L54.31,43.47 L54.51,43.95 L66.24,55.72 L66.24,55.72 L67.73,54.23 L67.73,54.21 Z" fill="#ffffff" stroke="#ffffff" stroke-width="1" stroke-linejoin="round" opacity="0.8"/></svg>