<svg xmlns="http://www.w3.org/2000/svg" viewBox="9.81 -2.00 76.12 100.00"><path d="M80.10,46.11 L74.78,46.11 L74.78,29.73 L74.47,25.18 L73.49,20.73 L71.87,16.47 L69.64,12.49 L66.85,8.88 L63.70,5.80 L60.07,3.30 L56.05,1.47 L51.78,0.36 L47.39,0.00 L42.95,0.33 L38.63,1.43 L34.57,3.26 L30.89,5.77 L27.71,8.88 L24.90,12.48 L22.66,16.45 L21.04,20.72 L20.07,25.18 L19.79,29.73 L19.79,46.11 L15.48,46.11 L14.08,46.41 L12.90,47.20 L12.10,48.39 L11.81,49.78 L11.81,92.33 L12.10,93.73 L12.90,94.91 L14.08,95.71 L15.48,96.00 L80.10,96.00 L81.50,95.71 L82.70,94.91 L83.51,93.73 L83.82,92.33 L83.82,49.78 L83.51,48.38 L82.70,47.20 L81.50,46.40 L80.10,46.11 Z" fill="#30d0f2" stroke="#1e1e1e" stroke-width="1" stroke-linejoin="round"/><path d="M62.17,46.11 L32.60,46.11 L32.60,29.46 L32.93,26.33 L33.84,23.31 L35.29,20.51 L37.23,18.03 L39.30,16.11 L41.74,14.67 L44.42,13.77 L47.23,13.46 L50.05,13.77 L52.74,14.67 L55.19,16.11 L57.28,18.03 L58.18,19.14 L58.98,20.32 L58.98,20.32 L60.68,23.10 L61.78,26.18 L62.23,29.41 L62.17,46.11 Z" fill="#ffffff" stroke="#1e1e1e" stroke-width="1" stroke-linejoin="round"/><path d="M80.26,46.11 L15.53,46.11 L14.28,46.35 L13.19,47.02 L82.60,94.88 L83.58,93.65 L83.93,92.12 L83.93,49.57 L83.56,48.25 L82.75,47.14 L81.60,46.39 L80.26,46.11 Z" fill="#50e6ff" stroke="#1e1e1e" stroke-width="1" stroke-linejoin="round"/><path d="M15.64,46.11 L80.31,46.11 L81.59,46.35 L82.70,47.02 L13.24,94.88 L12.28,93.64 L11.91,92.12 L11.91,49.57 L12.29,48.24 L13.12,47.13 L14.28,46.39 L15.64,46.11 L15.64,46.11 Z" fill="#ffffff" stroke="#1e1e1e" stroke-width="1" stroke-linejoin="round" opacity="0.2"/><path d="M41.48,56.38 L47.87,49.99 L48.11,49.91 L48.35,49.99 L54.67,56.38 L54.82,56.64 L54.67,56.91 L50.95,56.91 L50.73,57.00 L50.63,57.23 L50.63,65.42 L50.54,65.64 L50.31,65.74 L46.11,65.74 L45.86,65.67 L45.79,65.42 L45.79,57.23 L45.67,57.00 L45.42,56.91 L41.70,56.91 L41.43,56.71 L41.48,56.38 Z" fill="#ffffff" stroke="#ffffff" stroke-width="1" stroke-linejoin="round"/><path d="M54.62,85.52 L48.29,91.85 L48.05,91.96 L47.81,91.85 L41.48,85.52 L41.34,85.26 L41.48,84.99 L45.21,84.99 L45.45,84.90 L45.58,84.67 L45.58,76.43 L45.67,76.20 L45.90,76.11 L49.83,76.11 L50.06,76.20 L50.15,76.43 L50.15,84.67 L50.25,84.90 L50.47,84.99 L54.20,84.99 L54.67,85.04 L54.62,85.52 L54.62,85.52 Z" fill="#ffffff" stroke="#ffffff" stroke-width="1" stroke-linejoin="round"/><path d="M29.62,77.28 L29.62,73.56 L29.53,73.33 L29.31,73.24 L21.27,73.24 L21.05,73.14 L20.96,72.92 L20.96,69.14 L20.96,68.80 L21.27,68.66 L29.31,68.66 L29.53,68.57 L29.62,68.34 L29.62,64.62 L29.84,64.32 L30.21,64.35 L36.54,70.74 L36.62,70.95 L36.54,71.16 L30.21,77.54 L29.84,77.58 L29.62,77.28 L29.62,77.28 Z" fill="#ffffff" stroke="#ffffff" stroke-width="1" stroke-linejoin="round"/><path d="M66.48,64.62 L66.48,68.34 L66.58,68.57 L66.80,68.66 L74.99,68.66 L75.18,68.70 L75.36,68.98 L75.36,72.92 L75.24,73.15 L74.99,73.24 L66.80,73.24 L66.58,73.33 L66.48,73.56 L66.48,77.28 L66.31,77.59 L65.95,77.54 L59.62,71.16 L59.62,70.74 L65.95,64.35 L66.22,64.37 L66.40,64.44 L66.48,64.62 L66.48,64.62 Z" fill="#ffffff" stroke="#ffffff" stroke-width="1" stroke-linejoin="round"/></svg>