<svg xmlns="http://www.w3.org/2000/svg" viewBox="9.84 -2.00 76.32 100.27"><path d="M80.32,46.24 L74.99,46.24 L74.99,29.81 L74.68,25.25 L73.70,20.79 L72.07,16.51 L69.84,12.52 L67.04,8.91 L63.88,5.81 L60.23,3.31 L56.21,1.47 L51.93,0.36 L47.52,0.00 L43.07,0.33 L38.74,1.43 L34.67,3.27 L30.98,5.79 L27.79,8.91 L24.97,12.51 L22.72,16.50 L21.10,20.78 L20.13,25.25 L19.84,29.81 L19.84,46.24 L15.52,46.24 L14.12,46.53 L12.93,47.33 L12.13,48.52 L11.84,49.92 L11.84,92.59 L12.13,93.99 L12.93,95.17 L14.12,95.97 L15.52,96.27 L80.32,96.27 L81.73,95.97 L82.93,95.18 L83.74,93.99 L84.05,92.59 L84.05,49.92 L83.74,48.52 L82.93,47.33 L81.73,46.53 L80.32,46.24 Z" fill="#30d0f2" stroke="#1e1e1e" stroke-width="1" stroke-linejoin="round"/><path d="M62.35,46.24 L32.69,46.24 L32.69,29.55 L33.02,26.40 L33.93,23.38 L35.38,20.57 L37.33,18.08 L39.41,16.15 L41.85,14.71 L44.54,13.81 L47.36,13.49 L50.19,13.81 L52.89,14.71 L55.34,16.15 L57.44,18.08 L58.34,19.19 L59.15,20.37 L59.15,20.37 L60.85,23.17 L61.95,26.25 L62.40,29.49 L62.35,46.24 Z" fill="#ffffff" stroke="#1e1e1e" stroke-width="1" stroke-linejoin="round"/><path d="M80.48,46.24 L15.57,46.24 L14.32,46.48 L13.23,47.15 L82.83,95.15 L83.81,93.91 L84.16,92.37 L84.16,49.71 L83.80,48.38 L82.98,47.27 L81.83,46.52 L80.48,46.24 L80.48,46.24 Z" fill="#50e6ff" stroke="#1e1e1e" stroke-width="1" stroke-linejoin="round"/><path d="M15.68,46.24 L80.53,46.24 L81.81,46.48 L82.93,47.15 L13.28,95.15 L12.31,93.90 L11.95,92.37 L11.95,49.71 L12.33,48.38 L13.16,47.27 L14.32,46.52 L15.68,46.24 L15.68,46.24 Z" fill="#ffffff" stroke="#1e1e1e" stroke-width="1" stroke-linejoin="round" opacity="0.2"/><path d="M41.60,56.53 L48.00,50.13 L48.24,50.05 L48.48,50.13 L54.83,56.53 L54.97,56.80 L54.83,57.07 L51.09,57.07 L50.87,57.16 L50.77,57.39 L50.77,65.60 L50.68,65.83 L50.45,65.92 L46.24,65.92 L45.99,65.85 L45.92,65.60 L45.92,57.39 L45.79,57.16 L45.55,57.07 L41.81,57.07 L41.54,56.87 L41.60,56.53 Z" fill="#ffffff" stroke="#ffffff" stroke-width="1" stroke-linejoin="round"/><path d="M54.77,85.76 L48.43,92.11 L48.19,92.22 L47.95,92.11 L41.60,85.76 L41.46,85.49 L41.60,85.23 L45.33,85.23 L45.58,85.14 L45.71,84.91 L45.71,76.64 L45.80,76.41 L46.03,76.32 L49.97,76.32 L50.20,76.41 L50.29,76.64 L50.29,84.91 L50.39,85.13 L50.61,85.23 L54.35,85.23 L54.83,85.28 L54.77,85.76 L54.77,85.76 Z" fill="#ffffff" stroke="#ffffff" stroke-width="1" stroke-linejoin="round"/><path d="M29.71,77.49 L29.71,73.76 L29.61,73.53 L29.39,73.44 L21.33,73.44 L21.11,73.35 L21.01,73.12 L21.01,69.33 L21.02,68.99 L21.33,68.85 L29.39,68.85 L29.61,68.76 L29.71,68.53 L29.71,64.80 L29.92,64.50 L30.29,64.53 L36.64,70.93 L36.72,71.15 L36.64,71.36 L30.29,77.76 L29.92,77.79 L29.71,77.49 L29.71,77.49 Z" fill="#ffffff" stroke="#ffffff" stroke-width="1" stroke-linejoin="round"/><path d="M66.67,64.80 L66.67,68.53 L66.76,68.76 L66.99,68.85 L75.20,68.85 L75.39,68.89 L75.57,69.17 L75.57,73.12 L75.45,73.35 L75.20,73.44 L66.99,73.44 L66.76,73.53 L66.67,73.76 L66.67,77.49 L66.49,77.81 L66.13,77.76 L59.79,71.36 L59.79,70.93 L66.13,64.53 L66.40,64.55 L66.58,64.62 L66.67,64.80 L66.67,64.80 Z" fill="#ffffff" stroke="#ffffff" stroke-width="1" stroke-linejoin="round"/></svg>