<svg xmlns="http://www.w3.org/2000/svg" viewBox="-1.96 -1.87 100.00 99.75"><path d="M76.24,50.44 L76.24,50.47 L90.67,50.14 L90.57,45.64 L76.23,45.97 L76.23,45.88 L64.25,44.51 L64.25,31.48 L64.22,31.42 L72.69,9.74 L68.49,8.13 L59.96,29.95 L59.97,29.95 L50.80,40.54 L36.36,29.86 L36.18,29.71 L27.74,8.13 L23.53,9.74 L32.07,31.57 L32.18,31.52 L39.92,48.46 L21.32,45.88 L21.23,46.03 L21.23,45.97 L6.96,45.64 L6.85,50.14 L21.12,50.47 L21.16,48.93 L30.59,51.93 L32.46,58.28 L32.28,65.58 L23.74,87.40 L27.95,89.02 L36.49,67.19 L35.79,66.93 L42.52,60.40 L60.05,64.54 L62.24,66.40 L60.17,67.19 L68.70,89.02 L72.91,87.40 L64.38,65.58 L64.22,65.64 L65.47,56.56 L76.24,50.44 Z" fill="#9cebff" stroke="#1e1e1e" stroke-width="1" stroke-linejoin="round"/><path d="M96.04,48.22 L95.66,50.50 L94.54,52.52 L92.81,54.07 L90.68,54.95 L88.37,55.08 L86.14,54.44 L84.26,53.10 L82.92,51.21 L82.28,48.99 L82.41,46.68 L83.29,44.55 L84.83,42.82 L86.86,41.70 L89.14,41.31 L91.27,41.65 L93.20,42.63 L94.72,44.16 L95.71,46.09 L96.04,48.22 L96.04,48.22 Z" fill="#86d633" stroke="#86d633" stroke-width="1" stroke-linejoin="round"/><path d="M6.90,41.31 L4.62,41.70 L2.60,42.82 L1.06,44.55 L0.17,46.68 L0.04,48.99 L0.68,51.21 L2.02,53.10 L3.91,54.44 L6.13,55.08 L8.44,54.95 L10.58,54.07 L12.30,52.52 L13.42,50.50 L13.81,48.22 L13.47,46.09 L12.49,44.16 L10.96,42.63 L9.04,41.65 L6.90,41.31 L6.90,41.31 Z" fill="#86d633" stroke="#86d633" stroke-width="1" stroke-linejoin="round"/><path d="M25.47,82.11 L23.19,82.50 L21.16,83.62 L19.62,85.34 L18.73,87.48 L18.60,89.79 L19.24,92.01 L20.58,93.90 L22.46,95.24 L24.69,95.88 L27.00,95.75 L29.13,94.86 L30.86,93.32 L31.98,91.30 L32.37,89.02 L32.03,86.88 L31.05,84.96 L29.52,83.43 L27.60,82.45 L25.47,82.11 L25.47,82.11 Z" fill="#86d633" stroke="#86d633" stroke-width="1" stroke-linejoin="round"/><path d="M71.78,82.11 L69.50,82.50 L67.48,83.62 L65.93,85.34 L65.05,87.48 L64.92,89.79 L65.55,92.01 L66.89,93.90 L68.78,95.24 L71.00,95.88 L73.31,95.75 L75.45,94.86 L77.17,93.32 L78.29,91.30 L78.68,89.02 L78.34,86.88 L77.36,84.96 L75.84,83.43 L73.91,82.45 L71.78,82.11 L71.78,82.11 Z" fill="#86d633" stroke="#86d633" stroke-width="1" stroke-linejoin="round"/><path d="M24.72,0.13 L22.43,0.52 L20.41,1.63 L18.87,3.36 L17.98,5.50 L17.85,7.81 L18.50,10.03 L19.83,11.92 L21.72,13.25 L23.95,13.89 L26.26,13.76 L28.39,12.88 L30.12,11.33 L31.23,9.31 L31.62,7.03 L31.28,4.89 L30.30,2.97 L28.77,1.44 L26.85,0.46 L24.72,0.13 L24.72,0.13 Z" fill="#86d633" stroke="#86d633" stroke-width="1" stroke-linejoin="round"/><path d="M72.29,0.13 L70.01,0.51 L67.98,1.63 L66.44,3.36 L65.55,5.49 L65.42,7.80 L66.06,10.03 L67.40,11.91 L69.29,13.25 L71.51,13.89 L73.82,13.76 L75.96,12.88 L77.68,11.33 L78.80,9.31 L79.19,7.03 L78.85,4.90 L77.87,2.97 L76.34,1.45 L74.42,0.47 L72.29,0.13 L72.29,0.13 Z" fill="#86d633" stroke="#86d633" stroke-width="1" stroke-linejoin="round"/><path d="M18.85,37.45 L77.19,37.45 L77.19,37.45 L77.19,70.00 L76.93,70.97 L76.22,71.69 L75.24,71.95 L20.81,71.95 L19.84,71.69 L19.12,70.97 L18.86,70.00 L18.86,37.45 L18.85,37.45 Z" fill="#3d92e5" stroke="#1e1e1e" stroke-width="1" stroke-linejoin="round"/><path d="M20.81,25.02 L75.23,25.02 L76.21,25.28 L76.92,25.99 L77.18,26.97 L77.18,37.45 L77.18,37.45 L18.86,37.45 L18.86,37.45 L18.86,26.97 L19.12,25.99 L19.84,25.28 L20.81,25.02 L20.81,25.02 Z" fill="#0078d4" stroke="#1e1e1e" stroke-width="1" stroke-linejoin="round"/><path d="M56.40,50.77 L57.70,51.12 L58.65,52.07 L59.00,53.37 L58.65,54.67 L57.70,55.62 L56.40,55.97 L55.10,55.62 L54.15,54.67 L53.80,53.37 L54.15,52.07 L55.10,51.12 L56.40,50.77 L56.40,50.77 Z" fill="#ffffff" stroke="#ffffff" stroke-width="1" stroke-linejoin="round" opacity="0.8"/><path d="M45.52,53.39 L45.87,54.69 L46.82,55.64 L48.12,55.99 L49.42,55.64 L50.37,54.69 L50.72,53.39 L50.37,52.09 L49.41,51.14 L48.11,50.79 L46.82,51.14 L45.87,52.09 L45.52,53.39 Z" fill="#ffffff" stroke="#ffffff" stroke-width="1" stroke-linejoin="round" opacity="0.8"/><path d="M37.23,53.39 L37.58,54.69 L38.53,55.64 L39.83,55.99 L41.13,55.64 L42.08,54.69 L42.43,53.39 L42.08,52.09 L41.13,51.14 L39.83,50.79 L38.53,51.14 L37.58,52.09 L37.23,53.39 L37.23,53.39 Z" fill="#ffffff" stroke="#ffffff" stroke-width="1" stroke-linejoin="round" opacity="0.8"/><path d="M41.71,63.77 L40.23,65.26 L39.76,65.46 L39.28,65.26 L39.28,65.26 L28.28,54.29 L27.88,53.34 L28.28,52.39 L28.28,52.39 L29.76,50.90 L29.76,50.90 L41.71,62.82 L41.91,63.30 L41.71,63.77 L41.71,63.77 Z" fill="#ffffff" stroke="#ffffff" stroke-width="1" stroke-linejoin="round"/><path d="M66.29,50.88 L54.33,62.80 L54.33,62.80 L54.14,63.28 L54.33,63.75 L55.82,65.24 L55.82,65.24 L56.30,65.44 L56.77,65.24 L67.76,54.27 L67.76,54.27 L68.16,53.32 L67.76,52.37 L66.28,50.88 L66.29,50.88 Z" fill="#ffffff" stroke="#ffffff" stroke-width="1" stroke-linejoin="round"/><path d="M40.02,41.54 L41.51,43.03 L41.70,43.50 L41.51,43.98 L29.77,55.76 L29.77,55.76 L28.28,54.27 L27.88,53.32 L28.28,52.37 L28.28,52.37 L39.06,41.54 L39.54,41.34 L40.02,41.54 Z" fill="#ffffff" stroke="#ffffff" stroke-width="1" stroke-linejoin="round" opacity="0.8"/><path d="M67.76,54.24 L67.76,54.24 L68.16,53.29 L67.76,52.34 L56.99,41.51 L56.99,41.51 L56.51,41.32 L56.04,41.51 L54.53,43.02 L54.53,43.02 L54.33,43.49 L54.53,43.97 L66.27,55.74 L66.27,55.74 L67.76,54.25 L67.76,54.24 Z" fill="#ffffff" stroke="#ffffff" stroke-width="1" stroke-linejoin="round" opacity="0.8"/></svg>