<svg xmlns="http://www.w3.org/2000/svg" viewBox="-2.02 17.29 100.03 61.41"><ellipse cx="67.95" cy="47.95" rx="6.19" ry="6.19" fill="#72b62c" stroke="#72b62c" stroke-width="1"/><ellipse cx="48.21" cy="48.00" rx="6.19" ry="6.19" fill="#72b62c" stroke="#72b62c" stroke-width="1"/><ellipse cx="28.48" cy="48.00" rx="6.19" ry="6.19" fill="#72b62c" stroke="#72b62c" stroke-width="1"/><path d="M32.97,72.73 L29.43,76.28 L28.71,76.70 L27.89,76.70 L27.17,76.29 L0.96,50.15 L0.26,49.11 L0.02,47.89 L0.26,46.66 L0.95,45.63 L4.49,42.08 L4.49,42.08 L32.97,70.47 L33.38,71.19 L33.38,72.02 L32.97,72.73 L32.97,72.73 Z" fill="#50e6ff" stroke="#1e1e1e" stroke-width="1" stroke-linejoin="round"/><path d="M28.90,19.78 L32.45,23.32 L32.86,24.03 L32.86,24.86 L32.45,25.58 L4.47,53.64 L4.47,53.64 L0.92,50.10 L0.22,49.06 L-0.02,47.84 L0.22,46.61 L0.91,45.57 L26.63,19.78 L27.35,19.37 L28.18,19.36 L28.90,19.78 L28.90,19.78 Z" fill="#1490df" stroke="#1e1e1e" stroke-width="1" stroke-linejoin="round"/><path d="M91.50,42.03 L95.04,45.58 L95.73,46.62 L95.98,47.84 L95.73,49.07 L95.04,50.10 L68.83,76.24 L68.11,76.65 L67.28,76.65 L66.56,76.24 L63.02,72.69 L62.61,71.97 L62.61,71.14 L63.03,70.42 L91.50,42.03 L91.50,42.03 L91.50,42.03 Z" fill="#50e6ff" stroke="#1e1e1e" stroke-width="1" stroke-linejoin="round"/><path d="M95.03,50.06 L91.48,53.60 L91.48,53.60 L63.50,25.54 L63.09,24.83 L63.09,24.00 L63.50,23.28 L67.09,19.70 L67.81,19.29 L68.64,19.29 L69.35,19.71 L95.08,45.50 L95.77,46.54 L96.01,47.77 L95.76,48.99 L95.07,50.03 L95.03,50.06 Z" fill="#1490df" stroke="#1e1e1e" stroke-width="1" stroke-linejoin="round"/></svg>