<svg xmlns="http://www.w3.org/2000/svg" viewBox="-1.35 -1.35 99.95 100.00"><path d="M81.58,64.02 L81.14,64.18 L76.07,69.26 L75.71,69.36 L75.43,69.37 L75.20,69.26 L59.70,53.75 L59.24,53.45 L58.72,53.35 L58.21,53.45 L57.75,53.75 L53.43,58.08 L53.13,58.53 L53.02,59.05 L53.13,59.56 L53.43,60.02 L68.93,75.53 L69.04,75.88 L69.05,76.16 L68.93,76.39 L68.61,76.71 L63.80,81.52 L63.70,81.87 L63.69,82.16 L63.80,82.39 L64.23,82.55 L81.63,82.55 L81.63,82.55 L82.07,82.35 L82.22,81.90 L82.22,64.56 L82.05,64.13 L81.63,63.91 L81.58,64.02 Z" fill="#62be55" stroke="#1e1e1e" stroke-width="1" stroke-linejoin="round"/><path d="M57.43,44.19 L57.88,44.50 L58.40,44.60 L58.92,44.50 L59.37,44.19 L74.88,28.69 L75.23,28.59 L75.51,28.57 L75.74,28.69 L76.07,29.01 L80.87,33.82 L81.22,33.92 L81.51,33.93 L81.74,33.82 L81.90,33.39 L81.90,15.99 L81.90,15.99 L81.70,15.55 L81.25,15.40 L63.91,15.40 L63.48,15.57 L63.26,15.99 L63.42,16.42 L68.50,21.50 L68.50,21.50 L68.60,21.85 L68.62,22.14 L68.50,22.37 L53.00,37.87 L52.69,38.33 L52.59,38.84 L52.69,39.36 L53.00,39.82 L57.32,44.14 L57.43,44.19 Z" fill="#62be55" stroke="#1e1e1e" stroke-width="1" stroke-linejoin="round"/><path d="M39.60,53.81 L39.14,53.50 L38.63,53.40 L38.11,53.50 L37.65,53.81 L22.15,69.31 L21.80,69.39 L21.29,69.31 L16.21,64.23 L15.77,64.07 L15.35,64.25 L15.13,64.72 L15.13,82.06 L15.30,82.51 L15.72,82.71 L15.72,82.71 L33.12,82.71 L33.55,82.55 L33.71,82.10 L33.55,81.68 L28.74,76.88 L28.42,76.55 L28.32,76.20 L28.30,75.91 L28.42,75.69 L43.92,60.18 L44.23,59.73 L44.33,59.21 L44.23,58.69 L43.92,58.24 L39.60,53.92 L39.60,53.81 Z" fill="#62be55" stroke="#1e1e1e" stroke-width="1" stroke-linejoin="round"/><path d="M28.58,22.37 L28.50,22.01 L28.58,21.50 L33.66,16.42 L33.82,15.99 L33.64,15.57 L33.17,15.34 L15.83,15.34 L15.38,15.52 L15.18,15.94 L15.18,15.94 L15.18,33.33 L15.34,33.76 L15.80,33.93 L16.21,33.76 L21.02,28.96 L21.34,28.63 L21.69,28.53 L21.98,28.52 L22.20,28.63 L37.71,44.14 L38.16,44.44 L38.68,44.54 L39.20,44.44 L39.65,44.14 L43.98,39.82 L44.28,39.36 L44.38,38.84 L44.28,38.33 L43.98,37.87 L28.47,22.37 L28.58,22.37 Z" fill="#62be55" stroke="#1e1e1e" stroke-width="1" stroke-linejoin="round"/><path d="M67.91,69.26 L29.33,69.26 L28.80,69.14 L28.38,68.80 L28.09,68.30 L27.98,67.69 L27.98,29.60 L28.09,29.00 L28.38,28.50 L28.80,28.16 L29.33,28.04 L67.91,28.04 L68.44,28.16 L68.87,28.50 L69.15,29.00 L69.26,29.60 L69.26,67.69 L69.15,68.30 L68.87,68.80 L68.44,69.14 L67.91,69.26 Z" fill="#0078d4" stroke="#1e1e1e" stroke-width="1" stroke-linejoin="round"/><path d="M43.22,47.00 L42.32,47.26 L41.71,47.97 L41.62,48.98 L42.05,49.78 L42.84,50.22 L43.81,50.13 L44.37,49.78 L44.73,49.22 L44.81,48.39 L44.52,47.68 L43.96,47.19 L43.22,47.00 L43.22,47.00 Z" fill="#ffffff" stroke="#ffffff" stroke-width="1" stroke-linejoin="round"/><path d="M48.46,47.00 L47.65,47.00 L47.10,47.63 L46.83,48.27 L46.81,48.88 L46.99,49.42 L47.35,49.85 L47.84,50.15 L48.42,50.25 L49.05,50.13 L49.61,49.78 L49.97,49.22 L50.05,48.39 L49.76,47.68 L49.20,47.19 L48.46,47.00 Z" fill="#ffffff" stroke="#ffffff" stroke-width="1" stroke-linejoin="round"/><path d="M44.35,42.73 L44.41,42.50 L44.35,42.14 L43.44,41.22 L43.44,41.22 L43.14,41.10 L42.84,41.22 L36.09,48.03 L36.09,48.03 L35.96,48.24 L35.87,48.62 L35.93,48.94 L36.14,49.22 L43.06,56.08 L43.29,56.14 L43.65,56.08 L44.57,55.16 L44.63,54.92 L44.57,54.56 L38.57,48.62 L44.41,42.73 L44.35,42.73 Z" fill="#ffffff" stroke="#ffffff" stroke-width="1" stroke-linejoin="round"/><path d="M54.40,50.08 L54.81,49.79 L55.10,49.38 L55.26,48.50 L55.00,47.74 L54.43,47.20 L53.65,47.00 L53.00,47.13 L52.49,47.49 L52.15,48.00 L52.02,48.62 L52.23,49.40 L52.77,49.98 L53.53,50.24 L54.40,50.08 Z" fill="#ffffff" stroke="#ffffff" stroke-width="1" stroke-linejoin="round"/><path d="M60.83,47.97 L60.83,47.97 L54.08,41.17 L53.78,41.04 L53.48,41.17 L52.56,42.08 L52.50,42.32 L52.56,42.68 L58.40,48.57 L52.40,54.51 L52.34,54.75 L52.40,55.10 L52.40,55.10 L53.32,56.02 L53.62,56.14 L53.92,56.02 L53.92,56.02 L60.83,49.11 L61.10,48.51 L60.88,47.92 L60.83,47.97 Z" fill="#ffffff" stroke="#ffffff" stroke-width="1" stroke-linejoin="round"/><path d="M69.37,91.79 L66.88,91.79 L66.42,91.88 L66.04,92.14 L65.79,92.52 L65.69,92.97 L65.69,95.46 L65.79,95.92 L66.04,96.30 L66.42,96.55 L66.88,96.65 L69.37,96.65 L69.83,96.55 L70.20,96.30 L70.46,95.92 L70.55,95.46 L70.55,92.97 L70.46,92.52 L70.20,92.14 L69.83,91.88 L69.37,91.79 Z" fill="#0078d4" stroke="#0078d4" stroke-width="1" stroke-linejoin="round"/><path d="M56.40,91.79 L53.86,91.79 L53.40,91.88 L53.02,92.14 L52.77,92.52 L52.67,92.97 L52.67,95.46 L52.77,95.92 L53.02,96.30 L53.40,96.55 L53.86,96.65 L56.40,96.65 L56.86,96.55 L57.24,96.30 L57.49,95.94 L57.59,95.51 L57.59,93.03 L57.59,93.03 L57.49,92.57 L57.24,92.19 L56.86,91.93 L56.40,91.84 L56.40,91.79 Z" fill="#0078d4" stroke="#0078d4" stroke-width="1" stroke-linejoin="round"/><path d="M43.38,91.79 L40.84,91.79 L40.38,91.88 L40.00,92.14 L39.75,92.52 L39.65,92.97 L39.65,95.46 L39.75,95.92 L40.00,96.30 L40.38,96.55 L40.84,96.65 L43.38,96.65 L43.84,96.55 L44.22,96.30 L44.47,95.92 L44.57,95.46 L44.57,92.97 L44.47,92.52 L44.22,92.14 L43.84,91.88 L43.38,91.79 Z" fill="#0078d4" stroke="#0078d4" stroke-width="1" stroke-linejoin="round"/><path d="M82.44,91.79 L79.90,91.79 L79.44,91.88 L79.06,92.14 L78.81,92.52 L78.71,92.97 L78.71,95.46 L78.81,95.92 L79.06,96.30 L79.44,96.55 L79.90,96.65 L82.44,96.65 L82.90,96.55 L83.28,96.30 L83.53,95.94 L83.63,95.51 L83.63,93.03 L83.63,93.03 L83.53,92.57 L83.28,92.19 L82.90,91.93 L82.44,91.84 L82.44,91.79 Z" fill="#0078d4" stroke="#0078d4" stroke-width="1" stroke-linejoin="round"/><path d="M30.36,91.79 L27.77,91.79 L27.31,91.88 L26.93,92.14 L26.67,92.52 L26.58,92.97 L26.58,95.46 L26.67,95.92 L26.93,96.30 L27.31,96.55 L27.77,96.65 L30.36,96.65 L30.81,96.55 L31.17,96.30 L31.41,95.94 L31.50,95.51 L31.50,93.03 L31.40,92.57 L31.14,92.19 L30.77,91.93 L30.31,91.84 L30.36,91.79 Z" fill="#0078d4" stroke="#0078d4" stroke-width="1" stroke-linejoin="round"/><path d="M17.34,91.79 L14.80,91.79 L14.34,91.88 L13.97,92.14 L13.71,92.52 L13.61,92.97 L13.61,95.46 L13.71,95.92 L13.97,96.30 L14.34,96.55 L14.80,96.65 L17.34,96.65 L17.80,96.55 L18.18,96.30 L18.44,95.92 L18.53,95.46 L18.53,92.97 L18.44,92.52 L18.18,92.14 L17.80,91.88 L17.34,91.79 Z" fill="#0078d4" stroke="#0078d4" stroke-width="1" stroke-linejoin="round"/><path d="M4.32,91.79 L1.84,91.79 L1.38,91.88 L1.00,92.14 L0.74,92.52 L0.65,92.97 L0.65,95.46 L0.74,95.92 L1.00,96.30 L1.38,96.55 L1.84,96.65 L4.32,96.65 L4.78,96.55 L5.16,96.30 L5.42,95.92 L5.51,95.46 L5.51,92.97 L5.42,92.52 L5.16,92.14 L4.78,91.88 L4.32,91.79 Z" fill="#0078d4" stroke="#0078d4" stroke-width="1" stroke-linejoin="round"/><path d="M79.90,5.51 L82.39,5.51 L82.85,5.42 L83.22,5.16 L83.48,4.78 L83.57,4.32 L83.57,1.84 L83.48,1.38 L83.22,1.00 L82.85,0.74 L82.39,0.65 L79.90,0.65 L79.44,0.74 L79.06,1.00 L78.81,1.38 L78.71,1.84 L78.71,4.32 L78.81,4.78 L79.06,5.16 L79.44,5.42 L79.90,5.51 Z" fill="#0078d4" stroke="#0078d4" stroke-width="1" stroke-linejoin="round"/><path d="M69.42,0.70 L66.88,0.70 L66.42,0.80 L66.04,1.05 L65.79,1.43 L65.69,1.89 L65.69,4.38 L65.79,4.84 L66.04,5.21 L66.42,5.47 L66.88,5.56 L69.42,5.56 L69.88,5.47 L70.26,5.22 L70.51,4.86 L70.61,4.43 L70.61,1.94 L70.61,1.94 L70.51,1.49 L70.26,1.11 L69.88,0.85 L69.42,0.76 L69.42,0.70 Z" fill="#0078d4" stroke="#0078d4" stroke-width="1" stroke-linejoin="round"/><path d="M56.40,0.70 L53.86,0.70 L53.40,0.80 L53.02,1.05 L52.77,1.43 L52.67,1.89 L52.67,4.38 L52.77,4.84 L53.02,5.21 L53.40,5.47 L53.86,5.56 L56.40,5.56 L56.86,5.47 L57.24,5.21 L57.49,4.84 L57.59,4.38 L57.59,1.89 L57.49,1.43 L57.24,1.05 L56.86,0.80 L56.40,0.70 L56.40,0.70 Z" fill="#0078d4" stroke="#0078d4" stroke-width="1" stroke-linejoin="round"/><path d="M92.92,5.51 L95.41,5.51 L95.86,5.42 L96.24,5.16 L96.50,4.78 L96.59,4.32 L96.59,1.84 L96.50,1.38 L96.24,1.00 L95.86,0.74 L95.41,0.65 L92.92,0.65 L92.46,0.74 L92.08,1.00 L91.83,1.38 L91.73,1.84 L91.73,4.32 L91.83,4.78 L92.08,5.16 L92.46,5.42 L92.92,5.51 Z" fill="#0078d4" stroke="#0078d4" stroke-width="1" stroke-linejoin="round"/><path d="M43.38,0.70 L40.79,0.70 L40.33,0.80 L39.95,1.05 L39.69,1.43 L39.60,1.89 L39.60,4.38 L39.69,4.84 L39.95,5.21 L40.33,5.47 L40.79,5.56 L43.38,5.56 L43.83,5.47 L44.19,5.22 L44.43,4.86 L44.52,4.43 L44.52,1.94 L44.42,1.49 L44.16,1.11 L43.79,0.85 L43.33,0.76 L43.38,0.70 Z" fill="#0078d4" stroke="#0078d4" stroke-width="1" stroke-linejoin="round"/><path d="M27.82,5.51 L30.36,5.51 L30.82,5.42 L31.20,5.16 L31.46,4.78 L31.55,4.32 L31.55,1.84 L31.46,1.38 L31.20,1.00 L30.82,0.74 L30.36,0.65 L27.82,0.65 L27.36,0.74 L26.98,1.00 L26.73,1.38 L26.63,1.84 L26.63,4.32 L26.73,4.78 L26.98,5.16 L27.36,5.42 L27.82,5.51 Z" fill="#0078d4" stroke="#0078d4" stroke-width="1" stroke-linejoin="round"/><path d="M17.40,0.70 L14.80,0.70 L14.34,0.80 L13.97,1.05 L13.71,1.43 L13.61,1.89 L13.61,4.38 L13.71,4.84 L13.97,5.21 L14.34,5.47 L14.80,5.56 L17.40,5.56 L17.85,5.47 L18.21,5.22 L18.44,4.86 L18.53,4.43 L18.53,1.94 L18.44,1.49 L18.18,1.11 L17.80,0.85 L17.34,0.76 L17.40,0.70 Z" fill="#0078d4" stroke="#0078d4" stroke-width="1" stroke-linejoin="round"/><path d="M4.32,65.75 L1.84,65.75 L1.38,65.84 L1.00,66.10 L0.74,66.48 L0.65,66.94 L0.65,69.42 L0.74,69.88 L1.00,70.26 L1.38,70.51 L1.84,70.61 L4.32,70.61 L4.78,70.51 L5.16,70.26 L5.42,69.88 L5.51,69.42 L5.51,66.94 L5.42,66.48 L5.16,66.10 L4.78,65.84 L4.32,65.75 Z" fill="#0078d4" stroke="#0078d4" stroke-width="1" stroke-linejoin="round"/><path d="M4.32,52.67 L1.84,52.67 L1.38,52.77 L1.00,53.02 L0.74,53.40 L0.65,53.86 L0.65,56.40 L0.74,56.86 L0.99,57.24 L1.35,57.49 L1.78,57.59 L4.27,57.59 L4.73,57.49 L5.11,57.24 L5.36,56.86 L5.46,56.40 L5.46,53.86 L5.36,53.40 L5.11,53.02 L4.73,52.77 L4.27,52.67 L4.32,52.67 Z" fill="#0078d4" stroke="#0078d4" stroke-width="1" stroke-linejoin="round"/><path d="M4.32,39.65 L1.84,39.65 L1.38,39.75 L1.00,40.00 L0.74,40.38 L0.65,40.84 L0.65,43.38 L0.74,43.84 L1.00,44.22 L1.38,44.47 L1.84,44.57 L4.32,44.57 L4.78,44.47 L5.16,44.22 L5.42,43.84 L5.51,43.38 L5.51,40.84 L5.42,40.38 L5.16,40.00 L4.78,39.75 L4.32,39.65 Z" fill="#0078d4" stroke="#0078d4" stroke-width="1" stroke-linejoin="round"/><path d="M4.32,78.71 L1.84,78.71 L1.38,78.81 L1.00,79.06 L0.74,79.44 L0.65,79.90 L0.65,82.44 L0.74,82.89 L0.99,83.26 L1.78,83.63 L4.27,83.63 L4.73,83.53 L5.11,83.28 L5.36,82.90 L5.46,82.44 L5.46,79.90 L5.36,79.44 L5.11,79.06 L4.73,78.81 L4.27,78.71 L4.32,78.71 Z" fill="#0078d4" stroke="#0078d4" stroke-width="1" stroke-linejoin="round"/><path d="M4.32,26.63 L1.84,26.63 L1.38,26.73 L1.00,26.98 L0.74,27.36 L0.65,27.82 L0.65,30.36 L0.65,30.36 L0.74,30.82 L0.99,31.20 L1.35,31.46 L1.78,31.55 L4.27,31.55 L4.73,31.46 L5.11,31.20 L5.36,30.82 L5.46,30.36 L5.46,27.77 L5.36,27.31 L5.11,26.93 L4.73,26.67 L4.27,26.58 L4.32,26.63 Z" fill="#0078d4" stroke="#0078d4" stroke-width="1" stroke-linejoin="round"/><path d="M4.32,13.67 L1.84,13.67 L1.38,13.76 L1.00,14.02 L0.74,14.40 L0.65,14.86 L0.65,17.40 L0.74,17.85 L1.00,18.23 L1.38,18.49 L1.84,18.58 L4.32,18.58 L4.78,18.49 L5.16,18.23 L5.42,17.85 L5.51,17.40 L5.51,14.86 L5.42,14.40 L5.16,14.02 L4.78,13.76 L4.32,13.67 Z" fill="#0078d4" stroke="#0078d4" stroke-width="1" stroke-linejoin="round"/><path d="M4.32,0.65 L1.84,0.65 L1.38,0.74 L1.00,1.00 L0.74,1.38 L0.65,1.84 L0.65,4.32 L0.74,4.78 L1.00,5.16 L1.38,5.42 L1.84,5.51 L4.32,5.51 L4.78,5.42 L5.16,5.16 L5.42,4.78 L5.51,4.32 L5.51,1.84 L5.42,1.38 L5.16,1.00 L4.78,0.74 L4.32,0.65 L4.32,0.65 Z" fill="#0078d4" stroke="#0078d4" stroke-width="1" stroke-linejoin="round"/><path d="M95.41,78.77 L92.92,78.77 L92.46,78.86 L92.08,79.12 L91.83,79.50 L91.73,79.95 L91.73,82.44 L91.83,82.90 L92.08,83.28 L92.46,83.53 L92.92,83.63 L95.41,83.63 L95.86,83.53 L96.24,83.28 L96.50,82.90 L96.59,82.44 L96.59,79.95 L96.50,79.50 L96.24,79.12 L95.86,78.86 L95.41,78.77 Z" fill="#0078d4" stroke="#0078d4" stroke-width="1" stroke-linejoin="round"/><path d="M95.41,65.69 L92.92,65.69 L92.46,65.79 L92.08,66.04 L91.83,66.42 L91.73,66.88 L91.73,69.42 L91.83,69.88 L92.08,70.26 L92.44,70.51 L92.87,70.61 L95.35,70.61 L95.81,70.51 L96.19,70.26 L96.45,69.88 L96.54,69.42 L96.54,66.88 L96.45,66.42 L96.19,66.04 L95.81,65.79 L95.35,65.69 L95.41,65.69 Z" fill="#0078d4" stroke="#0078d4" stroke-width="1" stroke-linejoin="round"/><path d="M95.41,52.67 L92.92,52.67 L92.46,52.77 L92.08,53.02 L91.83,53.40 L91.73,53.86 L91.73,56.40 L91.83,56.86 L92.08,57.24 L92.46,57.49 L92.92,57.59 L95.41,57.59 L95.86,57.49 L96.24,57.24 L96.50,56.86 L96.59,56.40 L96.59,53.86 L96.59,53.86 L96.50,53.40 L96.24,53.02 L95.86,52.77 L95.41,52.67 Z" fill="#0078d4" stroke="#0078d4" stroke-width="1" stroke-linejoin="round"/><path d="M95.41,39.65 L92.92,39.65 L92.46,39.75 L92.08,40.00 L91.83,40.38 L91.73,40.84 L91.73,43.38 L91.73,43.38 L91.83,43.84 L92.08,44.22 L92.44,44.47 L92.87,44.57 L95.35,44.57 L95.81,44.47 L96.19,44.22 L96.45,43.84 L96.54,43.38 L96.54,40.79 L96.45,40.33 L96.19,39.95 L95.81,39.69 L95.35,39.60 L95.41,39.65 Z" fill="#0078d4" stroke="#0078d4" stroke-width="1" stroke-linejoin="round"/><path d="M95.41,26.69 L92.92,26.69 L92.46,26.78 L92.08,27.04 L91.83,27.42 L91.73,27.88 L91.73,30.42 L91.83,30.87 L92.08,31.25 L92.46,31.51 L92.92,31.60 L95.41,31.60 L95.86,31.51 L96.24,31.25 L96.50,30.87 L96.59,30.42 L96.59,27.88 L96.50,27.42 L96.24,27.04 L95.86,26.78 L95.41,26.69 Z" fill="#0078d4" stroke="#0078d4" stroke-width="1" stroke-linejoin="round"/><path d="M95.41,13.67 L92.92,13.67 L92.46,13.76 L92.08,14.02 L91.83,14.40 L91.73,14.86 L91.73,17.40 L91.73,17.40 L91.83,17.85 L92.08,18.23 L92.44,18.49 L92.87,18.58 L95.35,18.58 L95.81,18.49 L96.19,18.23 L96.45,17.85 L96.54,17.40 L96.54,14.80 L96.45,14.34 L96.19,13.97 L95.81,13.71 L95.35,13.61 L95.41,13.67 Z" fill="#0078d4" stroke="#0078d4" stroke-width="1" stroke-linejoin="round"/><path d="M95.41,91.79 L92.92,91.79 L92.46,91.88 L92.08,92.14 L91.83,92.52 L91.73,92.97 L91.73,95.46 L91.83,95.92 L92.08,96.30 L92.46,96.55 L92.92,96.65 L95.41,96.65 L95.86,96.55 L96.24,96.30 L96.50,95.92 L96.59,95.46 L96.59,92.97 L96.50,92.52 L96.24,92.14 L95.86,91.88 L95.41,91.79 Z" fill="#0078d4" stroke="#0078d4" stroke-width="1" stroke-linejoin="round"/></svg>