<svg xmlns="http://www.w3.org/2000/svg" viewBox="4.21 -2.00 87.57 100.00"><path d="M6.21,12.10 L6.21,39.66 L6.30,42.79 L6.58,45.89 L7.04,48.96 L7.68,51.97 L8.49,54.93 L9.47,57.84 L10.62,60.67 L11.94,63.43 L13.41,66.11 L15.04,68.70 L16.82,71.19 L18.75,73.58 L20.83,75.86 L23.05,78.02 L25.40,80.05 L27.89,81.95 L46.68,95.48 L47.21,95.86 L47.82,96.00 L48.43,95.90 L48.99,95.56 L49.07,95.48 L67.86,81.95 L70.37,80.06 L72.74,78.03 L74.97,75.88 L77.07,73.61 L79.02,71.22 L80.82,68.73 L82.46,66.14 L83.95,63.47 L85.28,60.70 L86.45,57.87 L87.45,54.96 L88.27,52.00 L88.92,48.98 L89.39,45.91 L89.68,42.80 L89.79,39.66 L89.79,12.10 L87.41,12.10 L84.60,12.01 L81.81,11.72 L79.06,11.22 L76.36,10.53 L73.71,9.64 L71.14,8.56 L68.64,7.29 L66.23,5.83 L66.23,5.83 L64.18,4.51 L62.05,3.35 L59.84,2.35 L57.56,1.53 L55.23,0.88 L52.85,0.41 L50.44,0.12 L48.00,0.01 L48.00,0.01 L45.57,0.09 L43.16,0.36 L40.79,0.81 L38.46,1.44 L36.18,2.24 L33.97,3.21 L31.83,4.34 L29.77,5.64 L29.77,5.64 L27.37,7.10 L24.87,8.37 L22.29,9.45 L19.65,10.34 L16.94,11.04 L14.19,11.53 L11.41,11.82 L8.60,11.91 L6.22,12.10 L6.21,12.10 Z" fill="#ba141a" stroke="#1e1e1e" stroke-width="1" stroke-linejoin="round"/><path d="M66.23,5.64 L66.23,5.64 L64.13,4.32 L61.96,3.17 L59.73,2.20 L57.44,1.41 L55.12,0.79 L52.76,0.35 L50.39,0.09 L48.00,-0.00 L45.61,0.09 L43.24,0.35 L40.88,0.79 L38.56,1.41 L36.27,2.20 L34.04,3.17 L31.87,4.32 L29.77,5.64 L29.77,5.64 L27.37,7.10 L24.87,8.37 L22.29,9.45 L19.65,10.34 L16.94,11.04 L14.19,11.53 L11.41,11.82 L8.60,11.91 L6.22,11.91 L6.22,39.66 L6.30,42.61 L6.55,45.53 L6.95,48.42 L7.52,51.27 L8.24,54.08 L9.12,56.83 L10.14,59.53 L11.32,62.17 L12.63,64.74 L14.09,67.23 L15.69,69.64 L17.42,71.96 L19.28,74.19 L21.27,76.32 L23.39,78.35 L25.64,80.26 L66.23,5.64 Z" fill="#ffffff" stroke="#1e1e1e" stroke-width="1" stroke-linejoin="round" opacity="0.15"/><path d="M37.85,22.25 L48.19,11.85 L58.46,22.25 L51.19,22.25 L51.19,38.78 L44.99,38.78 L44.99,22.25 L37.85,22.25 Z" fill="#ffffff" stroke="#1e1e1e" stroke-width="1" stroke-linejoin="round"/><path d="M58.46,69.92 L48.19,80.32 L37.85,69.92 L45.18,69.92 L45.18,53.32 L51.38,53.32 L51.38,69.92 L58.46,69.92 Z" fill="#ffffff" stroke="#1e1e1e" stroke-width="1" stroke-linejoin="round"/><path d="M66.04,55.95 L55.77,45.55 L66.04,35.09 L66.04,42.48 L82.39,42.48 L82.39,48.81 L66.04,48.81 L66.04,55.95 Z" fill="#ffffff" stroke="#1e1e1e" stroke-width="1" stroke-linejoin="round"/><path d="M29.96,35.09 L40.23,45.55 L29.96,55.95 L29.96,48.62 L13.61,48.62 L13.61,42.29 L29.96,42.29 L29.96,35.09 Z" fill="#ffffff" stroke="#1e1e1e" stroke-width="1" stroke-linejoin="round"/></svg>