<svg xmlns="http://www.w3.org/2000/svg" viewBox="-1.01 -0.50 100.00 99.48"><path d="M75.74,84.46 L70.50,87.98 L64.83,90.75 L58.84,92.74 L52.64,93.89 L46.33,94.18 L40.05,93.62 L33.89,92.21 L27.99,89.98 L22.45,86.97 L17.36,83.23 L12.83,78.84 L8.94,73.87 L5.75,68.42 L3.34,62.59 L1.74,56.48 L0.99,50.22 L1.09,43.91 L2.05,37.67 L3.84,31.62 L6.45,25.87 L9.80,20.52 L13.85,15.69 L18.53,11.44 L19.07,10.90 L24.34,7.44 L30.03,4.73 L36.04,2.82 L42.25,1.74 L48.55,1.50 L54.82,2.13 L60.95,3.60 L66.83,5.88 L72.34,8.94 L77.39,12.72 L81.87,17.14 L85.72,22.14 L88.86,27.61 L91.22,33.45 L92.77,39.56 L93.48,45.82 L93.34,52.12 L92.34,58.35 L90.51,64.38 L87.88,70.11 L84.50,75.43 L80.42,80.24 L75.74,84.46 L75.74,84.46 Z" fill="#3a90e5" stroke="#1e1e1e" stroke-width="1" stroke-linejoin="round"/><path d="M11.44,57.21 L9.08,64.24 L7.08,71.38 L10.35,76.28 L13.62,79.55 L15.07,73.03 L17.07,66.66 L19.62,60.48 L16.67,60.00 L13.91,58.89 L11.44,57.21 L11.44,57.21 Z" fill="#83b9f9" stroke="#83b9f9" stroke-width="1" stroke-linejoin="round"/><path d="M16.89,32.15 L15.24,26.98 L13.96,21.70 L13.08,16.35 L9.85,19.98 L7.08,23.97 L8.33,30.61 L10.35,37.05 L12.21,35.02 L14.42,33.37 L16.89,32.15 L16.89,32.15 Z" fill="#83b9f9" stroke="#83b9f9" stroke-width="1" stroke-linejoin="round"/><ellipse cx="21.80" cy="46.31" rx="14.71" ry="14.71" fill="#eeeeee" stroke="#1e1e1e" stroke-width="1"/><path d="M43.59,73.56 L43.96,71.01 L44.88,68.61 L46.31,66.48 L41.39,63.55 L36.83,60.09 L32.69,56.12 L30.29,58.14 L27.53,59.61 L24.52,60.48 L28.50,64.40 L32.69,68.11 L36.11,70.63 L39.75,72.82 L43.59,74.65 L43.59,73.56 Z" fill="#83b9f9" stroke="#1e1e1e" stroke-width="1" stroke-linejoin="round"/><path d="M77.92,74.65 L70.25,74.23 L62.66,73.01 L62.66,73.56 L62.36,75.96 L61.43,78.19 L59.94,80.10 L66.07,81.00 L72.26,81.37 L78.46,81.19 L81.73,77.65 L85.00,74.10 L81.48,74.60 L77.92,74.65 L77.92,74.65 Z" fill="#83b9f9" stroke="#83b9f9" stroke-width="1" stroke-linejoin="round"/><path d="M50.67,26.70 L56.77,24.01 L63.09,21.89 L69.57,20.36 L76.17,19.41 L82.82,19.07 L79.03,14.94 L74.65,11.44 L68.09,12.18 L61.61,13.43 L55.24,15.18 L49.04,17.44 L46.27,18.72 L43.59,20.16 L39.63,15.13 L35.99,9.85 L32.69,4.36 L30.14,4.87 L27.79,5.99 L31.27,11.85 L35.09,17.48 L39.23,22.88 L34.95,25.59 L30.94,28.69 L27.24,32.15 L30.00,33.65 L32.39,35.68 L34.33,38.14 L37.53,35.11 L40.99,32.38 L44.68,29.97 L50.97,36.27 L57.70,42.09 L64.84,47.40 L65.58,45.39 L66.68,43.55 L68.11,41.96 L62.04,37.17 L56.22,32.08 L50.67,26.70 L50.67,26.70 Z" fill="#83b9f9" stroke="#1e1e1e" stroke-width="1" stroke-linejoin="round"/><ellipse cx="75.19" cy="49.58" rx="10.35" ry="10.35" fill="#f2f2f2" stroke="#1e1e1e" stroke-width="1"/><path d="M92.63,56.67 L91.81,56.12 L90.99,55.58 L90.99,55.58 L90.18,55.03 L89.36,54.49 L88.82,54.49 L87.18,53.40 L86.64,53.40 L85.00,52.31 L84.34,54.20 L83.23,55.87 L81.73,57.21 L82.62,57.76 L83.91,58.30 L84.46,58.30 L85.27,58.85 L86.09,59.39 L86.09,59.39 L88.54,60.75 L90.99,62.12 L90.99,62.12 L92.63,56.67 Z" fill="#83b9f9" stroke="#83b9f9" stroke-width="1" stroke-linejoin="round"/><ellipse cx="21.80" cy="46.31" rx="14.71" ry="14.71" fill="#f2f2f2" stroke="#1e1e1e" stroke-width="1"/><ellipse cx="53.40" cy="73.56" rx="9.81" ry="9.81" fill="#f2f2f2" stroke="#1e1e1e" stroke-width="1"/><path d="M28.33,57.21 L94.26,57.21 L95.15,57.40 L96.03,57.89 L96.72,58.59 L96.99,59.39 L96.99,94.26 L96.57,95.59 L95.59,96.57 L94.26,96.99 L28.33,96.99 L27.15,96.52 L26.36,95.52 L26.15,94.26 L26.15,59.94 L26.36,58.68 L27.15,57.68 L28.33,57.21 Z" fill="#821010" stroke="#1e1e1e" stroke-width="1" stroke-linejoin="round"/><rect x="28.88" y="61.57" width="19.62" height="8.72" fill="#e62323" stroke="#e62323" stroke-width="1"/><rect x="51.76" y="61.57" width="19.62" height="8.72" fill="#ff7381" stroke="#ff7381" stroke-width="1"/><rect x="74.10" y="61.57" width="19.62" height="8.72" fill="#e62323" stroke="#e62323" stroke-width="1"/><rect x="28.88" y="73.01" width="8.17" height="8.72" fill="#e62323" stroke="#e62323" stroke-width="1"/><rect x="85.55" y="73.01" width="8.17" height="8.72" fill="#ff7381" stroke="#ff7381" stroke-width="1"/><rect x="40.32" y="73.01" width="19.62" height="8.72" fill="#ff7381" stroke="#ff7381" stroke-width="1"/><rect x="62.66" y="73.01" width="19.62" height="8.72" fill="#e62323" stroke="#e62323" stroke-width="1"/><rect x="28.88" y="84.46" width="19.62" height="8.72" fill="#e62323" stroke="#e62323" stroke-width="1"/><rect x="51.76" y="84.46" width="19.62" height="8.72" fill="#ff7381" stroke="#ff7381" stroke-width="1"/><rect x="74.10" y="84.46" width="19.62" height="8.72" fill="#e62323" stroke="#e62323" stroke-width="1"/></svg>