<svg xmlns="http://www.w3.org/2000/svg" viewBox="11.81 0.67 82.74 94.67"><path d="M48.00,27.41 L41.11,27.17 L34.69,26.47 L28.89,25.35 L23.83,23.87 L21.62,23.00 L19.65,22.05 L17.94,21.03 L16.50,19.94 L15.35,18.80 L14.51,17.59 L13.99,16.34 L13.81,15.04 L13.81,80.96 L13.99,82.21 L14.50,83.43 L15.32,84.61 L16.45,85.74 L17.87,86.81 L19.56,87.82 L21.49,88.77 L23.67,89.65 L28.65,91.16 L34.38,92.31 L40.71,93.05 L47.52,93.33 L48.00,93.33 L54.89,93.09 L61.31,92.39 L67.11,91.27 L72.17,89.79 L74.38,88.92 L76.35,87.97 L78.06,86.95 L79.50,85.86 L80.65,84.72 L81.49,83.51 L82.01,82.26 L82.19,80.96 L82.19,15.04 L82.01,16.30 L81.49,17.53 L80.65,18.72 L79.50,19.85 L78.06,20.93 L76.35,21.95 L74.38,22.91 L72.17,23.79 L67.11,25.30 L61.31,26.44 L54.89,27.16 L48.00,27.41 Z" fill="#0077d2" stroke="#1e1e1e" stroke-width="1" stroke-linejoin="round"/><path d="M82.19,15.04 L82.01,16.30 L81.49,17.53 L80.65,18.72 L79.50,19.85 L78.06,20.93 L76.35,21.95 L74.38,22.91 L72.17,23.79 L67.11,25.30 L61.31,26.44 L54.89,27.16 L48.00,27.41 L41.11,27.17 L34.69,26.47 L28.89,25.35 L23.83,23.87 L21.62,23.00 L19.65,22.05 L17.94,21.03 L16.50,19.94 L15.35,18.80 L14.51,17.59 L13.99,16.34 L13.81,15.04 L13.99,13.74 L14.51,12.49 L15.35,11.28 L16.50,10.14 L17.94,9.05 L19.65,8.03 L21.62,7.08 L23.83,6.21 L28.89,4.73 L34.69,3.61 L41.11,2.91 L48.00,2.67 L54.89,2.91 L61.31,3.61 L67.11,4.73 L72.17,6.21 L74.38,7.08 L76.35,8.03 L78.06,9.05 L79.50,10.14 L80.65,11.28 L81.49,12.49 L82.01,13.74 L82.19,15.04 Z" fill="#e8e8e8" stroke="#1e1e1e" stroke-width="1" stroke-linejoin="round"/><path d="M74.19,14.03 L74.05,14.84 L73.65,15.62 L73.01,16.38 L72.13,17.10 L69.71,18.45 L66.51,19.61 L62.64,20.58 L58.19,21.30 L53.27,21.76 L48.00,21.92 L42.72,21.76 L37.80,21.30 L33.35,20.58 L29.46,19.62 L26.25,18.46 L23.83,17.13 L22.94,16.41 L22.29,15.66 L21.90,14.88 L21.76,14.08 L21.90,13.28 L22.29,12.50 L22.94,11.75 L23.82,11.02 L26.24,9.68 L29.44,8.51 L33.32,7.55 L37.78,6.81 L42.71,6.35 L48.00,6.19 L53.29,6.35 L58.21,6.80 L62.66,7.53 L66.53,8.49 L69.73,9.65 L72.13,10.98 L73.01,11.70 L73.66,12.45 L74.05,13.23 L74.19,14.03 Z" fill="#50e6ff" stroke="#1e1e1e" stroke-width="1" stroke-linejoin="round"/><path d="M48.00,16.00 L40.97,16.22 L34.00,17.24 L27.20,19.04 L34.01,20.79 L40.97,21.76 L48.00,21.92 L55.02,21.69 L61.97,20.65 L68.75,18.83 L61.95,17.12 L55.01,16.18 L48.00,16.00 L48.00,16.00 Z" fill="#198ab3" stroke="#198ab3" stroke-width="1" stroke-linejoin="round"/><path d="M64.82,47.95 L64.53,50.20 L64.28,51.88 L64.14,53.56 L64.39,56.06 L64.60,57.95 L64.25,60.35 L63.23,62.55 L63.05,62.93 L63.58,63.57 L65.85,59.49 L67.77,55.23 L69.33,50.83 L69.33,50.83 L70.23,47.30 L70.61,44.38 L70.48,42.11 L70.22,41.24 L69.82,40.56 L67.51,38.33 L64.74,36.69 L61.68,35.72 L58.47,35.46 L55.30,35.95 L57.91,37.55 L60.23,39.56 L62.00,41.26 L63.39,43.29 L64.34,45.55 L64.82,47.95 L64.82,47.95 Z" fill="#ffffff" stroke="#ffffff" stroke-width="1" stroke-linejoin="round"/><path d="M63.15,48.39 L60.97,48.25 L58.88,48.86 L58.38,49.27 L58.05,49.77 L57.83,51.00 L58.07,52.51 L58.60,54.25 L59.46,56.56 L60.46,58.81 L60.95,59.70 L60.95,59.70 L61.54,60.76 L61.97,61.45 L62.70,59.79 L62.97,58.01 L62.77,56.23 L62.50,53.56 L62.64,51.73 L62.91,49.90 L63.15,48.39 Z" fill="#ffffff" stroke="#ffffff" stroke-width="1" stroke-linejoin="round"/><path d="M61.49,50.56 L61.05,50.91 L60.52,51.09 L60.33,51.09 L59.55,50.86 L59.01,50.25 L59.01,50.21 L59.09,49.92 L59.39,49.67 L60.35,49.37 L60.84,49.33 L61.33,49.37 L61.70,49.53 L61.87,49.79 L61.76,50.21 L61.49,50.56 Z" fill="#0077d2" stroke="#0077d2" stroke-width="1" stroke-linejoin="round"/><path d="M36.02,55.36 L36.10,54.45 L36.06,53.50 L36.03,50.95 L36.22,48.41 L36.71,45.38 L37.51,42.42 L38.79,39.85 L40.59,37.62 L36.97,36.70 L33.26,36.32 L31.18,36.44 L29.17,36.98 L27.31,37.92 L25.52,39.94 L24.31,42.35 L23.75,44.99 L23.88,47.69 L24.92,53.74 L26.51,59.66 L27.96,63.80 L29.44,66.97 L30.91,69.10 L31.63,69.76 L32.34,70.13 L32.34,70.13 L32.96,70.22 L33.59,70.06 L34.23,69.65 L34.88,69.00 L38.66,64.73 L37.11,62.72 L36.11,60.39 L35.74,57.87 L36.02,55.35 L36.02,55.36 Z" fill="#ffffff" stroke="#ffffff" stroke-width="1" stroke-linejoin="round"/><path d="M37.47,57.49 L37.51,58.99 L37.78,60.46 L38.36,61.72 L39.21,62.84 L40.08,63.60 L41.10,64.17 L42.15,64.49 L43.24,64.60 L43.80,62.99 L44.45,61.40 L45.08,59.85 L45.62,58.26 L45.82,55.30 L45.77,52.33 L45.46,50.69 L45.25,49.91 L44.80,49.24 L44.73,49.17 L44.66,49.11 L43.92,48.74 L43.11,48.58 L42.46,48.54 L41.81,48.58 L40.48,48.86 L39.21,49.35 L38.44,49.78 L37.72,50.29 L37.72,50.90 L37.77,54.15 L37.77,54.40 L37.76,54.82 L37.72,55.23 L37.54,57.32 L37.54,57.32 L37.47,57.49 Z" fill="#ffffff" stroke="#ffffff" stroke-width="1" stroke-linejoin="round"/><path d="M41.07,50.31 L41.13,50.21 L41.21,50.13 L41.95,49.89 L42.73,49.92 L43.26,50.03 L43.76,50.24 L44.20,50.64 L44.25,50.95 L44.25,51.03 L43.63,51.74 L42.74,52.00 L42.52,52.00 L41.90,51.78 L41.40,51.38 L41.08,50.92 L41.00,50.51 L41.02,50.41 L41.07,50.31 L41.07,50.31 Z" fill="#0077d2" stroke="#0077d2" stroke-width="1" stroke-linejoin="round"/><path d="M45.06,66.23 L44.67,66.36 L44.34,66.60 L43.60,67.48 L42.97,68.21 L42.27,68.74 L41.24,69.15 L39.62,69.54 L38.90,69.71 L38.24,70.04 L38.86,70.44 L39.55,70.68 L41.48,70.98 L43.41,70.68 L44.42,70.25 L45.33,69.65 L46.00,68.91 L46.40,67.99 L46.30,67.20 L45.87,66.53 L45.49,66.29 L45.05,66.23 L45.06,66.23 Z" fill="#ffffff" stroke="#ffffff" stroke-width="1" stroke-linejoin="round"/><path d="M70.13,66.23 L68.08,66.66 L65.99,66.61 L63.96,66.09 L63.58,66.06 L63.20,66.12 L62.69,66.40 L62.31,66.85 L62.15,67.69 L62.12,68.54 L64.15,68.77 L66.17,68.59 L68.12,68.01 L69.52,67.24 L70.71,66.18 L70.40,66.19 L70.10,66.22 L70.13,66.23 Z" fill="#ffffff" stroke="#ffffff" stroke-width="1" stroke-linejoin="round"/><path d="M57.07,54.77 L56.51,52.94 L56.22,50.94 L56.29,49.96 L56.59,49.03 L57.16,48.19 L58.04,47.47 L60.40,46.67 L62.89,46.69 L61.34,43.57 L59.19,40.83 L58.66,40.29 L58.31,39.98 L58.27,39.94 L57.90,39.62 L57.66,39.42 L57.51,39.30 L54.77,37.61 L51.73,36.56 L48.53,36.20 L46.62,36.29 L44.77,36.77 L43.05,37.61 L41.37,39.11 L40.02,40.91 L39.05,42.94 L38.34,45.51 L37.90,48.15 L39.58,47.37 L41.39,46.95 L43.24,46.91 L44.94,47.38 L46.33,48.48 L47.19,50.03 L47.37,51.79 L47.44,55.19 L47.19,58.59 L46.63,60.30 L45.95,61.98 L44.93,64.59 L46.07,64.73 L47.02,65.35 L47.84,66.63 L48.03,68.14 L48.03,68.14 L47.94,69.43 L47.81,73.83 L48.23,78.21 L49.21,82.50 L49.79,83.17 L50.54,83.65 L51.36,84.03 L52.24,84.19 L54.15,84.07 L55.95,83.46 L57.54,82.39 L58.64,80.76 L59.09,78.85 L59.88,73.19 L60.43,68.32 L60.43,68.32 L60.48,67.08 L60.93,65.93 L61.56,65.18 L62.38,64.66 L60.18,61.61 L58.40,58.29 L57.07,54.77 L57.07,54.77 Z" fill="#ffffff" stroke="#ffffff" stroke-width="1" stroke-linejoin="round"/><path d="M90.40,68.66 L91.09,69.61 L91.66,70.65 L92.09,71.77 L92.39,72.96 L92.54,74.22 L92.56,75.52 L92.43,76.86 L92.16,78.23 L91.75,79.60 L91.21,80.97 L90.54,82.33 L89.75,83.66 L88.84,84.94 L87.83,86.17 L86.72,87.33 L85.52,88.42 L84.25,89.41 L82.92,90.31 L81.53,91.11 L80.12,91.79 L78.68,92.35 L77.23,92.78 L75.78,93.09 L74.36,93.26 L72.97,93.29 L71.63,93.19 L70.34,92.96 L69.13,92.60 L68.00,92.11 L66.97,91.49 L66.04,90.76 L65.22,89.91 L64.53,88.97 L63.96,87.93 L63.53,86.80 L63.23,85.61 L63.08,84.35 L63.06,83.05 L63.19,81.71 L63.46,80.34 L63.87,78.97 L64.41,77.60 L65.08,76.24 L65.87,74.92 L66.78,73.63 L67.79,72.40 L68.90,71.24 L70.10,70.15 L71.37,69.16 L72.70,68.26 L74.09,67.46 L75.50,66.78 L76.94,66.22 L78.39,65.79 L79.84,65.49 L81.26,65.32 L82.65,65.28 L83.99,65.38 L85.28,65.61 L86.49,65.97 L87.62,66.47 L88.65,67.08 L89.58,67.82 L90.40,68.66 Z" fill="#76bc2d" stroke="#1e1e1e" stroke-width="1" stroke-linejoin="round"/><path d="M73.83,84.49 L72.43,83.16 L71.53,81.45 L71.26,79.53 L71.63,77.63 L72.60,75.96 L74.07,74.71 L76.12,73.52 L77.62,73.16 L78.18,73.22 L78.60,73.42 L78.89,73.73 L79.05,74.13 L78.97,75.07 L78.38,76.08 L77.28,76.94 L75.67,77.48 L75.95,78.22 L76.72,78.69 L77.85,78.86 L79.24,78.71 L80.75,78.22 L82.28,77.35 L83.69,76.08 L84.89,74.38 L85.33,73.32 L85.50,72.34 L85.43,71.43 L85.13,70.61 L84.62,69.91 L83.93,69.33 L83.06,68.89 L82.04,68.60 L80.90,68.48 L79.64,68.55 L78.30,68.82 L76.88,69.31 L75.42,70.02 L73.92,70.98 L72.42,72.21 L70.92,73.70 L69.25,75.88 L68.04,78.16 L67.28,80.44 L66.98,82.63 L67.12,84.64 L67.71,86.38 L68.74,87.74 L69.42,88.25 L70.20,88.63 L73.45,89.19 L76.73,88.94 L79.85,87.91 L82.63,86.15 L84.91,83.78 L86.55,80.93 L87.45,77.76 L87.56,74.47 L85.89,77.83 L84.10,80.45 L82.24,82.41 L80.37,83.76 L78.54,84.58 L76.81,84.93 L75.22,84.87 L73.83,84.49 Z" fill="#ffffff" stroke="#1e1e1e" stroke-width="1" stroke-linejoin="round"/></svg>