<svg xmlns="http://www.w3.org/2000/svg" viewBox="12.63 0.82 76.40 100.00"><path d="M50.82,29.03 L43.53,28.77 L36.73,28.03 L30.59,26.85 L25.23,25.27 L22.89,24.35 L20.81,23.35 L18.99,22.27 L17.47,21.12 L16.25,19.90 L15.36,18.63 L14.81,17.30 L14.63,15.92 L14.63,85.72 L14.81,87.05 L15.35,88.34 L16.23,89.58 L17.42,90.78 L18.92,91.92 L20.71,92.99 L22.76,93.99 L25.06,94.92 L30.34,96.52 L36.40,97.74 L43.11,98.52 L50.32,98.82 L50.82,98.82 L58.12,98.57 L64.91,97.82 L71.06,96.64 L76.42,95.07 L78.76,94.15 L80.84,93.14 L82.65,92.06 L84.18,90.91 L85.39,89.70 L86.29,88.43 L86.83,87.10 L87.02,85.72 L87.02,15.92 L86.83,17.27 L86.29,18.58 L85.39,19.84 L84.18,21.05 L82.65,22.19 L80.84,23.27 L78.76,24.28 L76.42,25.21 L71.06,26.80 L64.91,28.00 L58.12,28.76 L50.82,29.03 Z" fill="#0077d2" stroke="#1e1e1e" stroke-width="1" stroke-linejoin="round"/><path d="M87.02,15.92 L86.83,17.27 L86.29,18.58 L85.39,19.84 L84.18,21.05 L82.65,22.19 L80.84,23.27 L78.76,24.28 L76.42,25.21 L71.06,26.80 L64.91,28.00 L58.12,28.76 L50.82,29.03 L43.53,28.77 L36.73,28.03 L30.59,26.85 L25.23,25.27 L22.89,24.35 L20.81,23.35 L18.99,22.27 L17.47,21.12 L16.25,19.90 L15.36,18.63 L14.81,17.30 L14.63,15.92 L14.81,14.55 L15.36,13.22 L16.25,11.95 L17.47,10.73 L18.99,9.58 L20.81,8.50 L22.89,7.50 L25.23,6.58 L30.59,5.00 L36.73,3.82 L43.53,3.08 L50.82,2.82 L58.12,3.08 L64.91,3.82 L71.06,5.00 L76.42,6.58 L78.76,7.50 L80.84,8.50 L82.65,9.58 L84.18,10.73 L85.39,11.95 L86.29,13.22 L86.83,14.55 L87.02,15.92 Z" fill="#e8e8e8" stroke="#1e1e1e" stroke-width="1" stroke-linejoin="round"/><path d="M78.61,14.85 L78.46,15.71 L78.04,16.54 L77.35,17.34 L76.42,18.11 L73.85,19.53 L70.45,20.77 L66.34,21.79 L61.62,22.55 L56.41,23.04 L50.82,23.21 L45.24,23.04 L40.03,22.55 L35.31,21.79 L31.19,20.77 L27.80,19.53 L25.23,18.11 L24.29,17.34 L23.61,16.54 L23.18,15.71 L23.04,14.85 L23.18,14.00 L23.61,13.17 L24.29,12.37 L25.23,11.60 L27.80,10.19 L31.19,8.96 L35.31,7.96 L40.03,7.20 L45.24,6.72 L50.82,6.55 L56.41,6.72 L61.62,7.20 L66.34,7.97 L70.45,8.99 L73.85,10.22 L76.42,11.62 L77.35,12.39 L78.04,13.18 L78.46,14.00 L78.61,14.85 Z" fill="#50e6ff" stroke="#1e1e1e" stroke-width="1" stroke-linejoin="round"/><path d="M50.82,16.94 L43.39,17.18 L36.04,18.25 L28.86,20.16 L36.05,22.02 L43.40,23.04 L50.82,23.21 L58.26,22.99 L65.61,21.89 L72.79,19.93 L65.59,18.12 L58.24,17.12 L50.82,16.94 L50.82,16.94 Z" fill="#198ab3" stroke="#198ab3" stroke-width="1" stroke-linejoin="round"/><path d="M71.38,50.82 L71.38,60.03 L65.73,60.03 L64.83,59.81 L64.09,59.24 L64.09,50.82 L56.47,50.82 L56.47,60.88 L56.95,62.92 L58.21,64.61 L60.03,65.66 L62.12,65.90 L70.53,65.90 L72.00,65.17 L71.58,66.34 L71.12,67.17 L70.53,67.60 L57.09,67.60 L57.09,73.24 L72.11,73.24 L74.32,72.92 L76.30,71.90 L77.85,70.30 L78.81,68.29 L79.06,66.07 L79.06,50.82 L71.38,50.82 Z" fill="#f2f2f2" stroke="#1e1e1e" stroke-width="1" stroke-linejoin="round"/><path d="M53.82,50.82 L53.82,50.82 L53.82,48.06 L53.66,46.22 L52.68,44.66 L51.11,43.71 L49.71,43.38 L48.28,43.26 L46.16,43.60 L44.35,44.75 L43.14,46.53 L38.74,57.26 L33.09,46.53 L31.96,44.81 L30.25,43.66 L28.24,43.26 L26.77,43.38 L25.36,43.76 L24.14,44.36 L23.40,45.23 L23.03,46.40 L22.93,47.89 L22.93,66.58 L29.53,66.58 L29.53,53.99 L33.09,62.85 L34.02,64.38 L35.35,65.57 L36.97,66.33 L38.74,66.58 L40.35,66.31 L41.55,65.56 L42.47,64.39 L43.26,62.85 L47.04,54.32 L47.04,66.47 L53.70,66.47 L53.70,50.82 L53.70,50.82 L53.82,50.82 Z" fill="#f2f2f2" stroke="#1e1e1e" stroke-width="1" stroke-linejoin="round"/></svg>