<svg xmlns="http://www.w3.org/2000/svg" viewBox="11.81 0.67 72.37 94.67"><path d="M48.00,27.41 L41.11,27.17 L34.69,26.47 L28.89,25.35 L23.83,23.87 L21.62,23.00 L19.65,22.05 L17.94,21.03 L16.50,19.94 L15.35,18.80 L14.51,17.59 L13.99,16.34 L13.81,15.04 L13.81,80.96 L13.99,82.21 L14.50,83.43 L15.32,84.61 L16.45,85.74 L17.87,86.81 L19.56,87.82 L21.49,88.77 L23.67,89.65 L28.65,91.16 L34.38,92.31 L40.71,93.05 L47.52,93.33 L48.00,93.33 L54.89,93.09 L61.31,92.39 L67.11,91.27 L72.17,89.79 L74.38,88.92 L76.35,87.97 L78.06,86.95 L79.50,85.86 L80.65,84.72 L81.49,83.51 L82.01,82.26 L82.19,80.96 L82.19,15.04 L82.01,16.31 L81.49,17.55 L80.65,18.74 L79.50,19.88 L78.06,20.96 L76.35,21.98 L74.38,22.93 L72.17,23.81 L67.11,25.31 L61.31,26.45 L54.89,27.16 L48.00,27.41 Z" fill="#0077d2" stroke="#1e1e1e" stroke-width="1" stroke-linejoin="round"/><path d="M82.19,15.04 L82.01,16.31 L81.49,17.55 L80.65,18.74 L79.50,19.88 L78.06,20.96 L76.35,21.98 L74.38,22.93 L72.17,23.81 L67.11,25.31 L61.31,26.45 L54.89,27.16 L48.00,27.41 L41.11,27.17 L34.69,26.47 L28.89,25.35 L23.83,23.87 L21.62,23.00 L19.65,22.05 L17.94,21.03 L16.50,19.94 L15.35,18.80 L14.51,17.59 L13.99,16.34 L13.81,15.04 L13.99,13.74 L14.51,12.49 L15.35,11.28 L16.50,10.14 L17.94,9.05 L19.65,8.03 L21.62,7.08 L23.83,6.21 L28.89,4.73 L34.69,3.61 L41.11,2.91 L48.00,2.67 L54.89,2.91 L61.31,3.61 L67.11,4.73 L72.17,6.21 L74.38,7.08 L76.35,8.03 L78.06,9.05 L79.50,10.14 L80.65,11.28 L81.49,12.49 L82.01,13.74 L82.19,15.04 Z" fill="#e8e8e8" stroke="#1e1e1e" stroke-width="1" stroke-linejoin="round"/><path d="M74.24,14.03 L74.10,14.84 L73.71,15.62 L73.06,16.38 L72.17,17.10 L69.75,18.45 L66.54,19.61 L62.65,20.58 L58.20,21.30 L53.28,21.76 L48.00,21.92 L42.72,21.76 L37.80,21.30 L33.35,20.58 L29.46,19.61 L26.25,18.45 L23.83,17.11 L22.94,16.38 L22.29,15.62 L21.90,14.84 L21.76,14.03 L21.90,13.22 L22.29,12.43 L22.94,11.68 L23.83,10.96 L26.25,9.62 L29.46,8.47 L33.35,7.51 L37.80,6.80 L42.72,6.34 L48.00,6.19 L53.28,6.35 L58.20,6.80 L62.65,7.53 L66.54,8.49 L69.75,9.65 L72.17,10.98 L73.06,11.70 L73.71,12.45 L74.10,13.23 L74.24,14.03 Z" fill="#50e6ff" stroke="#1e1e1e" stroke-width="1" stroke-linejoin="round"/><path d="M48.00,16.00 L40.98,16.22 L34.04,17.24 L27.25,19.04 L34.04,20.80 L40.99,21.76 L48.00,21.92 L55.02,21.71 L61.97,20.67 L68.75,18.83 L61.95,17.12 L55.01,16.17 L48.00,16.00 L48.00,16.00 Z" fill="#198ab3" stroke="#198ab3" stroke-width="1" stroke-linejoin="round"/><path d="M67.41,48.00 L67.41,56.69 L62.08,56.69 L61.23,56.49 L60.53,55.95 L60.53,48.00 L53.33,48.00 L53.33,57.49 L53.79,59.42 L54.98,61.02 L56.70,62.01 L58.67,62.24 L66.61,62.24 L68.00,61.55 L67.61,62.65 L67.17,63.44 L66.61,63.84 L53.92,63.84 L53.92,69.17 L68.11,69.17 L70.19,68.87 L72.06,67.91 L73.53,66.39 L74.43,64.49 L74.67,62.40 L74.67,48.00 L67.41,48.00 Z" fill="#f2f2f2" stroke="#1e1e1e" stroke-width="1" stroke-linejoin="round"/><path d="M50.83,48.00 L50.83,48.00 L50.83,45.39 L50.67,43.65 L49.76,42.18 L48.27,41.28 L46.95,40.97 L45.60,40.85 L43.60,41.18 L41.89,42.27 L40.75,43.95 L36.59,54.08 L31.25,43.95 L30.18,42.32 L28.57,41.24 L26.67,40.85 L25.28,40.97 L23.95,41.33 L22.80,41.90 L22.10,42.72 L21.75,43.82 L21.65,45.23 L21.65,62.88 L27.89,62.88 L27.89,50.99 L31.25,59.36 L32.13,60.80 L33.39,61.93 L34.92,62.64 L36.59,62.88 L38.11,62.63 L39.24,61.92 L40.11,60.81 L40.85,59.36 L44.43,51.31 L44.43,62.77 L50.72,62.77 L50.72,48.00 L50.72,48.00 L50.83,48.00 Z" fill="#f2f2f2" stroke="#1e1e1e" stroke-width="1" stroke-linejoin="round"/></svg>