<svg xmlns="http://www.w3.org/2000/svg" viewBox="0.82 0.82 100.00 99.86"><path d="M8.29,8.29 L93.18,93.18 L94.47,94.08 L96.03,94.26 L97.49,93.67 L98.50,92.47 L98.82,90.92 L98.82,6.03 L98.56,4.76 L97.82,3.70 L96.71,3.01 L95.43,2.82 L10.54,2.82 L9.10,3.18 L7.97,4.15 L7.40,5.53 L7.52,7.01 L8.29,8.29 L8.29,8.29 Z" fill="#3a9de6" stroke="#1e1e1e" stroke-width="1" stroke-linejoin="round"/><path d="M31.17,31.17 L70.29,70.29 L98.48,42.11 L98.48,6.03 L98.08,4.47 L96.97,3.30 L95.43,2.82 L59.53,2.82 L31.17,31.17 Z" fill="#50e6ff" stroke="#1e1e1e" stroke-width="1" stroke-linejoin="round"/><path d="M38.46,56.26 L38.77,56.02 L39.14,55.86 L39.53,55.81 L39.93,55.86 L40.29,56.02 L40.61,56.26 L45.23,60.88 L45.47,61.20 L45.63,61.56 L45.68,61.96 L45.63,62.35 L45.47,62.72 L45.23,63.03 L10.04,98.23 L9.72,98.47 L9.35,98.62 L8.96,98.68 L8.57,98.62 L8.20,98.47 L7.88,98.23 L3.26,93.61 L3.02,93.29 L2.87,92.92 L2.82,92.53 L2.87,92.14 L3.02,91.77 L3.26,91.45 L38.46,56.26 Z" fill="#a5a4a5" stroke="#1e1e1e" stroke-width="1" stroke-linejoin="round"/><path d="M25.01,42.54 L25.32,42.30 L25.69,42.15 L26.08,42.10 L26.48,42.15 L26.84,42.30 L27.16,42.54 L31.78,47.17 L32.02,47.48 L32.18,47.85 L32.23,48.24 L32.18,48.64 L32.02,49.00 L31.78,49.32 L10.06,71.04 L9.74,71.28 L9.38,71.44 L8.98,71.49 L8.59,71.44 L8.22,71.28 L7.91,71.04 L3.28,66.42 L3.04,66.10 L2.89,65.74 L2.84,65.34 L2.89,64.95 L3.04,64.58 L3.28,64.27 L25.01,42.54 Z" fill="#a5a4a5" stroke="#1e1e1e" stroke-width="1" stroke-linejoin="round"/><path d="M51.92,69.65 L52.23,69.40 L52.60,69.25 L52.99,69.20 L53.39,69.25 L53.75,69.40 L54.07,69.65 L58.69,74.27 L58.94,74.59 L59.09,74.95 L59.14,75.35 L59.09,75.74 L58.94,76.11 L58.69,76.42 L36.97,98.15 L36.65,98.39 L36.29,98.54 L35.89,98.59 L35.50,98.54 L35.13,98.39 L34.82,98.15 L30.19,93.52 L29.95,93.21 L29.80,92.84 L29.75,92.45 L29.80,92.05 L29.95,91.68 L30.19,91.37 L51.92,69.65 Z" fill="#a5a4a5" stroke="#1e1e1e" stroke-width="1" stroke-linejoin="round"/><path d="M55.08,26.31 L55.52,25.97 L56.04,25.75 L56.59,25.68 L57.14,25.75 L57.66,25.97 L58.10,26.31 L61.85,30.05 L62.19,30.50 L62.41,31.01 L62.48,31.57 L62.41,32.12 L62.19,32.64 L61.85,33.08 L58.10,36.83 L57.66,37.17 L57.14,37.39 L56.59,37.46 L56.04,37.39 L55.52,37.17 L55.08,36.83 L51.33,33.08 L50.99,32.64 L50.77,32.12 L50.70,31.57 L50.77,31.01 L50.99,30.50 L51.33,30.05 L55.08,26.31 Z" fill="#ffffff" stroke="#ffffff" stroke-width="1" stroke-linejoin="round"/><path d="M68.60,12.76 L69.05,12.42 L69.56,12.20 L70.12,12.13 L70.67,12.20 L71.19,12.42 L71.63,12.76 L75.38,16.50 L75.72,16.95 L75.93,17.46 L76.01,18.02 L75.93,18.57 L75.72,19.09 L75.38,19.53 L71.63,23.28 L71.19,23.62 L70.67,23.83 L70.12,23.91 L69.56,23.83 L69.05,23.62 L68.60,23.28 L64.86,19.53 L64.52,19.09 L64.30,18.57 L64.23,18.02 L64.30,17.46 L64.52,16.95 L64.86,16.50 L68.60,12.76 Z" fill="#ffffff" stroke="#ffffff" stroke-width="1" stroke-linejoin="round"/><path d="M68.63,39.84 L69.07,39.50 L69.59,39.28 L70.14,39.21 L70.70,39.28 L71.21,39.50 L71.66,39.84 L75.40,43.58 L75.74,44.03 L75.96,44.54 L76.03,45.10 L75.96,45.65 L75.74,46.17 L75.40,46.61 L71.66,50.36 L71.21,50.70 L70.70,50.91 L70.14,50.99 L69.59,50.91 L69.07,50.70 L68.63,50.36 L64.88,46.61 L64.54,46.17 L64.33,45.65 L64.25,45.10 L64.33,44.54 L64.54,44.03 L64.88,43.58 L68.63,39.84 Z" fill="#ffffff" stroke="#ffffff" stroke-width="1" stroke-linejoin="round"/><path d="M78.41,30.04 L82.13,26.32 L83.09,25.76 L84.21,25.76 L85.17,26.32 L88.89,30.04 L89.46,31.01 L89.46,32.12 L88.89,33.09 L85.17,36.81 L84.21,37.37 L83.09,37.37 L82.13,36.81 L78.41,33.09 L77.85,32.12 L77.85,31.01 L78.41,30.04 Z" fill="#ffffff" stroke="#ffffff" stroke-width="1" stroke-linejoin="round"/></svg>