<svg xmlns="http://www.w3.org/2000/svg" viewBox="10.80 -0.67 74.40 97.33"><path d="M48.00,26.83 L40.91,26.58 L34.31,25.86 L28.33,24.71 L23.12,23.17 L20.85,22.28 L18.82,21.30 L17.05,20.25 L15.57,19.13 L14.38,17.95 L13.52,16.71 L12.98,15.42 L12.80,14.08 L12.80,81.92 L12.98,83.21 L13.50,84.47 L14.35,85.68 L15.52,86.84 L16.97,87.95 L18.71,89.00 L20.70,89.97 L22.94,90.87 L28.07,92.43 L33.97,93.61 L40.50,94.37 L47.52,94.67 L48.00,94.67 L55.09,94.42 L61.69,93.70 L67.67,92.55 L72.88,91.01 L75.15,90.12 L77.18,89.14 L78.95,88.09 L80.43,86.97 L81.62,85.79 L82.48,84.55 L83.02,83.26 L83.20,81.92 L83.20,14.08 L83.02,15.39 L82.48,16.66 L81.62,17.89 L80.43,19.06 L78.95,20.18 L77.18,21.23 L75.15,22.21 L72.88,23.11 L67.67,24.66 L61.69,25.83 L55.09,26.57 L48.00,26.83 L48.00,26.83 Z" fill="#2f76bb" stroke="#1e1e1e" stroke-width="1" stroke-linejoin="round"/><path d="M83.20,14.08 L83.02,15.39 L82.48,16.66 L81.62,17.89 L80.43,19.06 L78.95,20.18 L77.18,21.23 L75.15,22.21 L72.88,23.11 L67.67,24.66 L61.69,25.83 L55.09,26.57 L48.00,26.83 L40.91,26.58 L34.31,25.86 L28.33,24.71 L23.12,23.17 L20.85,22.28 L18.82,21.30 L17.05,20.25 L15.57,19.13 L14.38,17.95 L13.52,16.71 L12.98,15.42 L12.80,14.08 L12.98,12.74 L13.52,11.45 L14.38,10.21 L15.57,9.03 L17.05,7.91 L18.82,6.86 L20.85,5.88 L23.12,4.99 L28.33,3.45 L34.31,2.31 L40.91,1.58 L48.00,1.33 L55.09,1.58 L61.69,2.31 L67.67,3.45 L72.88,4.99 L75.15,5.88 L77.18,6.86 L78.95,7.91 L80.43,9.03 L81.62,10.21 L82.48,11.45 L83.02,12.74 L83.20,14.08 Z" fill="#e2e2e2" stroke="#1e1e1e" stroke-width="1" stroke-linejoin="round"/><path d="M75.04,13.01 L74.90,13.84 L74.49,14.65 L73.82,15.43 L72.91,16.17 L70.41,17.55 L67.10,18.75 L63.09,19.74 L58.50,20.48 L53.43,20.96 L48.00,21.12 L42.57,20.96 L37.50,20.48 L32.91,19.74 L28.90,18.75 L25.59,17.55 L23.09,16.17 L22.18,15.43 L21.51,14.65 L21.10,13.84 L20.96,13.01 L21.10,12.18 L21.51,11.38 L22.18,10.61 L23.09,9.87 L25.59,8.50 L28.90,7.31 L32.91,6.33 L37.50,5.59 L42.57,5.12 L48.00,4.96 L53.43,5.12 L58.50,5.60 L63.09,6.34 L67.10,7.33 L70.41,8.52 L72.91,9.89 L73.82,10.63 L74.49,11.40 L74.90,12.19 L75.04,13.01 Z" fill="#8ec8e7" stroke="#1e1e1e" stroke-width="1" stroke-linejoin="round"/><path d="M69.39,17.97 L64.16,16.58 L58.84,15.63 L53.46,15.11 L48.05,15.04 L42.70,15.14 L37.38,15.68 L32.13,16.66 L26.99,18.08 L31.18,19.34 L36.20,20.30 L41.88,20.91 L48.05,21.12 L54.33,20.89 L60.05,20.27 L64.76,19.29 L69.39,17.92 L69.39,17.92 L69.39,17.97 Z" fill="#1e89b2" stroke="#1e89b2" stroke-width="1" stroke-linejoin="round"/><path d="M40.43,76.53 L38.34,76.43 L36.55,76.13 L35.06,75.61 L33.87,74.88 L32.96,73.89 L32.33,72.59 L31.96,70.96 L31.84,69.01 L31.84,64.05 L31.64,62.40 L31.05,61.22 L30.06,60.51 L28.69,60.27 L28.69,56.48 L30.06,56.23 L31.05,55.49 L31.64,54.25 L31.84,52.53 L31.84,47.95 L31.97,45.99 L32.35,44.34 L32.99,43.00 L33.87,41.97 L35.03,41.21 L36.51,40.68 L38.31,40.37 L40.43,40.27 L40.43,44.11 L38.99,44.33 L37.95,44.99 L37.33,46.11 L37.12,47.68 L37.12,52.05 L36.92,54.30 L36.32,56.09 L35.32,57.42 L33.92,58.29 L33.92,58.40 L35.32,59.28 L36.32,60.63 L36.92,62.46 L37.12,64.75 L37.12,68.96 L37.31,70.68 L37.87,71.84 L38.88,72.49 L40.37,72.69 L40.37,76.53 L40.37,76.53 L40.43,76.53 Z" fill="#f3f3f3" stroke="#1e1e1e" stroke-width="1" stroke-linejoin="round"/><path d="M67.31,60.27 L65.94,60.51 L64.95,61.23 L64.36,62.43 L64.16,64.11 L64.16,68.85 L64.03,70.85 L63.65,72.53 L63.01,73.87 L62.13,74.88 L60.97,75.61 L59.50,76.13 L57.72,76.43 L55.63,76.53 L55.63,72.69 L57.12,72.49 L58.13,71.84 L58.48,71.36 L58.73,70.73 L58.93,69.01 L58.93,64.64 L59.13,62.40 L59.73,60.63 L60.71,59.32 L62.08,58.45 L62.08,58.35 L60.71,57.46 L59.73,56.08 L59.13,54.22 L58.93,51.89 L58.93,47.68 L58.72,46.11 L58.10,44.99 L57.07,44.33 L55.63,44.11 L55.63,40.27 L57.72,40.38 L59.50,40.70 L60.97,41.23 L62.13,41.97 L63.01,43.00 L63.65,44.31 L64.03,45.92 L64.16,47.84 L64.16,52.53 L64.36,54.24 L64.95,55.46 L65.94,56.19 L67.31,56.43 L67.31,60.21 L67.31,60.21 L67.31,60.27 Z" fill="#f3f3f3" stroke="#1e1e1e" stroke-width="1" stroke-linejoin="round"/></svg>