<svg xmlns="http://www.w3.org/2000/svg" viewBox="-2.00 9.54 100.00 73.60"><path d="M77.28,38.13 L76.72,33.41 L75.36,28.86 L73.23,24.61 L70.40,20.79 L66.95,17.52 L62.99,14.89 L58.64,12.98 L54.02,11.86 L49.28,11.54 L44.94,11.83 L40.70,12.78 L36.66,14.37 L32.91,16.56 L29.54,19.31 L26.64,22.54 L24.27,26.19 L22.49,30.15 L18.00,31.17 L13.76,32.96 L9.90,35.48 L6.55,38.64 L3.81,42.34 L1.76,46.47 L0.48,50.89 L0.00,55.47 L0.52,60.03 L1.83,64.44 L3.87,68.55 L6.61,72.24 L9.94,75.41 L13.77,77.94 L17.98,79.78 L22.44,80.86 L27.03,81.14 L73.71,81.14 L77.96,80.63 L82.04,79.35 L85.81,77.32 L89.14,74.62 L91.91,71.36 L94.02,67.63 L95.40,63.58 L96.00,59.34 L95.58,55.53 L94.51,51.84 L92.80,48.40 L90.53,45.31 L87.74,42.66 L84.54,40.55 L81.02,39.02 L77.28,38.13 L77.28,38.13 Z" fill="#338ee3" stroke="#1e1e1e" stroke-width="1" stroke-linejoin="round"/><path d="M68.80,60.80 L68.80,42.67 L64.00,42.67 L64.00,64.69 L77.12,64.69 L77.12,60.80 L68.80,60.80 Z" fill="#f2f2f2" stroke="#f2f2f2" stroke-width="1" stroke-linejoin="round"/><path d="M30.72,51.89 L29.29,51.18 L28.00,50.24 L27.51,49.45 L27.36,48.53 L27.55,47.63 L28.16,46.93 L29.23,46.43 L30.40,46.29 L32.28,46.41 L34.08,46.94 L35.73,47.84 L35.73,43.25 L33.11,42.56 L30.40,42.40 L28.34,42.54 L26.36,43.15 L24.59,44.21 L23.35,45.53 L22.57,47.17 L22.35,48.96 L22.43,49.95 L22.67,50.89 L23.08,51.78 L23.65,52.61 L25.32,54.11 L27.68,55.41 L29.39,56.27 L30.99,57.33 L31.58,58.10 L31.79,59.04 L31.56,59.97 L30.93,60.69 L29.78,61.16 L28.53,61.28 L26.43,61.01 L24.46,60.25 L22.72,59.04 L22.72,64.00 L25.49,65.01 L28.43,65.28 L30.64,65.17 L32.77,64.57 L34.72,63.52 L35.81,62.11 L36.41,60.44 L36.48,58.67 L36.16,56.68 L35.15,54.93 L33.09,53.18 L30.72,51.89 Z" fill="#f2f2f2" stroke="#f2f2f2" stroke-width="1" stroke-linejoin="round"/><path d="M58.67,60.37 L59.79,58.03 L60.37,55.49 L60.37,52.89 L59.79,50.35 L58.67,48.00 L57.09,45.73 L54.93,44.00 L52.36,42.96 L49.60,42.61 L46.62,42.95 L43.84,44.05 L41.61,45.75 L39.95,48.00 L38.89,50.96 L38.56,54.08 L38.89,56.82 L39.84,59.41 L41.39,61.66 L43.52,63.36 L46.08,64.50 L48.85,64.96 L53.44,70.29 L59.89,70.29 L53.33,64.43 L55.42,63.52 L57.23,62.14 L58.67,60.37 L58.67,60.37 Z" fill="#f2f2f2" stroke="#f2f2f2" stroke-width="1" stroke-linejoin="round"/><path d="M53.33,59.04 L52.20,60.07 L50.80,60.72 L49.28,60.91 L47.75,60.71 L46.35,60.05 L45.23,58.99 L44.30,57.35 L43.77,55.54 L43.68,53.65 L43.78,51.77 L44.30,49.96 L45.23,48.32 L46.39,47.25 L47.82,46.58 L49.39,46.35 L50.92,46.54 L52.30,47.22 L53.39,48.32 L54.25,49.98 L54.74,51.78 L54.83,53.65 L54.78,55.55 L54.27,57.39 L53.33,59.04 L53.33,59.04 Z" fill="#338ee3" stroke="#338ee3" stroke-width="1" stroke-linejoin="round"/></svg>