<svg xmlns="http://www.w3.org/2000/svg" viewBox="1.07 4.70 100.00 93.07"><path d="M95.89,6.70 L96.71,6.81 L97.48,7.12 L98.13,7.63 L98.64,8.29 L98.96,9.06 L99.07,9.88 L99.07,67.50 L98.96,68.32 L98.64,69.09 L98.13,69.75 L97.48,70.25 L96.71,70.57 L95.89,70.68 L6.24,70.68 L5.42,70.57 L4.66,70.25 L4.00,69.75 L3.49,69.09 L3.17,68.32 L3.07,67.50 L3.07,9.88 L3.17,9.06 L3.49,8.29 L4.00,7.63 L4.66,7.12 L5.42,6.81 L6.24,6.70 L95.89,6.70 Z" fill="#3990e4" stroke="#1e1e1e" stroke-width="1" stroke-linejoin="round"/><path d="M70.34,90.10 L68.67,89.76 L67.19,89.29 L65.91,88.70 L64.80,88.00 L63.85,87.17 L63.05,86.23 L61.85,83.99 L61.10,81.31 L60.70,78.20 L60.53,74.67 L60.52,70.74 L41.67,70.74 L41.64,74.67 L41.47,78.20 L41.06,81.31 L40.31,83.99 L39.12,86.23 L38.33,87.17 L37.38,88.00 L36.28,88.70 L34.99,89.29 L33.52,89.76 L31.85,90.10 L29.95,90.76 L28.41,92.05 L27.41,93.79 L27.08,95.77 L75.11,95.77 L74.78,93.79 L73.78,92.05 L72.23,90.76 L70.34,90.10 Z" fill="#a6a6a6" stroke="#1e1e1e" stroke-width="1" stroke-linejoin="round"/><path d="M74.20,44.79 L74.20,25.04 L68.52,25.04 L68.52,49.16 L82.89,49.16 L82.89,44.79 L74.20,44.79 Z" fill="#efefef" stroke="#efefef" stroke-width="1" stroke-linejoin="round"/><path d="M32.53,35.03 L30.99,34.26 L29.58,33.27 L29.00,32.38 L28.84,31.34 L29.07,30.34 L29.75,29.58 L30.92,29.06 L32.19,28.95 L34.18,29.09 L36.11,29.65 L37.87,30.60 L37.87,25.60 L35.07,24.86 L32.19,24.64 L29.91,24.79 L27.74,25.47 L25.77,26.63 L24.44,28.09 L23.62,29.88 L23.39,31.85 L23.80,34.09 L24.83,36.12 L26.40,37.76 L28.39,38.89 L30.25,39.81 L31.96,40.99 L32.64,41.82 L32.87,42.86 L32.63,43.88 L31.96,44.68 L30.82,45.22 L29.58,45.42 L27.28,45.11 L25.11,44.26 L23.22,42.92 L23.22,48.60 L26.26,49.67 L29.46,49.96 L31.90,49.72 L34.22,48.97 L36.33,47.74 L37.73,46.27 L38.59,44.43 L38.83,42.41 L38.50,40.22 L37.36,38.32 L35.11,36.43 L32.53,35.03 Z" fill="#efefef" stroke="#efefef" stroke-width="1" stroke-linejoin="round"/><path d="M62.85,44.34 L63.95,42.02 L64.60,39.53 L64.78,36.96 L64.42,33.66 L63.30,30.54 L61.57,28.06 L59.21,26.17 L56.47,25.04 L53.54,24.64 L50.28,25.02 L47.23,26.23 L45.50,27.45 L44.05,28.98 L42.92,30.77 L41.62,34.01 L41.16,37.47 L41.49,40.61 L42.52,43.60 L44.24,46.04 L46.55,47.91 L49.28,49.13 L52.23,49.62 L57.23,55.30 L64.26,55.30 L57.40,48.71 L59.54,47.70 L61.39,46.21 L62.85,44.34 Z" fill="#efefef" stroke="#efefef" stroke-width="1" stroke-linejoin="round"/><path d="M57.17,42.86 L55.94,44.01 L54.41,44.71 L52.74,44.91 L51.06,44.71 L49.53,43.98 L48.31,42.81 L47.31,41.06 L46.73,39.14 L46.61,37.13 L46.74,35.12 L47.32,33.20 L48.31,31.45 L49.59,30.29 L51.15,29.57 L52.85,29.35 L54.52,29.55 L56.03,30.27 L57.23,31.45 L58.16,33.22 L58.70,35.14 L58.81,37.13 L58.80,39.13 L58.32,41.08 L57.40,42.86 L57.17,42.86 Z" fill="#3990e4" stroke="#3990e4" stroke-width="1" stroke-linejoin="round"/></svg>