<svg xmlns="http://www.w3.org/2000/svg" viewBox="12.63 0.82 87.38 100.00"><path d="M50.82,29.03 L43.53,28.77 L36.73,28.03 L30.59,26.85 L25.23,25.27 L22.89,24.35 L20.81,23.35 L18.99,22.27 L17.47,21.12 L16.25,19.90 L15.36,18.63 L14.81,17.30 L14.63,15.92 L14.63,85.72 L14.81,87.05 L15.35,88.34 L16.23,89.58 L17.42,90.78 L18.92,91.92 L20.71,92.99 L22.76,93.99 L25.06,94.92 L30.34,96.52 L36.40,97.74 L43.11,98.52 L50.32,98.82 L50.82,98.82 L58.12,98.57 L64.91,97.82 L71.06,96.64 L76.42,95.07 L78.76,94.15 L80.84,93.14 L82.65,92.06 L84.18,90.91 L85.39,89.70 L86.29,88.43 L86.83,87.10 L87.02,85.72 L87.02,15.92 L86.83,17.26 L86.29,18.56 L85.39,19.82 L84.18,21.02 L82.65,22.17 L80.84,23.25 L78.76,24.26 L76.42,25.19 L71.06,26.79 L64.91,28.00 L58.12,28.76 L50.82,29.03 Z" fill="#0077d2" stroke="#1e1e1e" stroke-width="1" stroke-linejoin="round"/><path d="M87.02,15.92 L86.83,17.26 L86.29,18.56 L85.39,19.82 L84.18,21.02 L82.65,22.17 L80.84,23.25 L78.76,24.26 L76.42,25.19 L71.06,26.79 L64.91,28.00 L58.12,28.76 L50.82,29.03 L43.53,28.77 L36.73,28.03 L30.59,26.85 L25.23,25.27 L22.89,24.35 L20.81,23.35 L18.99,22.27 L17.47,21.12 L16.25,19.90 L15.36,18.63 L14.81,17.30 L14.63,15.92 L14.81,14.55 L15.36,13.22 L16.25,11.95 L17.47,10.73 L18.99,9.58 L20.81,8.50 L22.89,7.50 L25.23,6.58 L30.59,5.00 L36.73,3.82 L43.53,3.08 L50.82,2.82 L58.12,3.08 L64.91,3.82 L71.06,5.00 L76.42,6.58 L78.76,7.50 L80.84,8.50 L82.65,9.58 L84.18,10.73 L85.39,11.95 L86.29,13.22 L86.83,14.55 L87.02,15.92 Z" fill="#e8e8e8" stroke="#1e1e1e" stroke-width="1" stroke-linejoin="round"/><path d="M78.55,14.85 L78.41,15.71 L77.99,16.54 L77.30,17.34 L76.37,18.11 L73.81,19.53 L70.43,20.77 L66.32,21.79 L61.61,22.55 L56.41,23.04 L50.82,23.21 L45.24,23.04 L40.03,22.56 L35.31,21.79 L31.19,20.77 L27.80,19.54 L25.23,18.13 L24.29,17.37 L23.61,16.58 L23.18,15.76 L23.04,14.91 L23.18,14.06 L23.60,13.24 L24.29,12.44 L25.22,11.67 L27.78,10.25 L31.17,9.01 L35.28,7.99 L40.00,7.21 L45.22,6.72 L50.82,6.55 L56.42,6.72 L61.64,7.20 L66.35,7.97 L70.45,8.99 L73.83,10.22 L76.38,11.62 L77.31,12.39 L77.99,13.18 L78.41,14.00 L78.55,14.85 Z" fill="#50e6ff" stroke="#1e1e1e" stroke-width="1" stroke-linejoin="round"/><path d="M50.82,16.94 L43.38,17.18 L36.00,18.26 L28.80,20.16 L36.01,22.02 L43.38,23.04 L50.82,23.21 L58.26,22.96 L65.61,21.87 L72.79,19.93 L65.59,18.13 L58.24,17.13 L50.82,16.94 L50.82,16.94 Z" fill="#198ab3" stroke="#198ab3" stroke-width="1" stroke-linejoin="round"/><path d="M68.63,50.77 L68.33,53.16 L68.06,54.93 L67.91,56.71 L68.18,59.36 L68.40,61.36 L68.03,63.90 L66.95,66.23 L66.75,66.63 L67.32,67.31 L69.72,62.98 L71.76,58.48 L73.41,53.82 L73.41,53.82 L74.36,50.09 L74.77,46.99 L74.63,44.58 L74.35,43.66 L73.93,42.95 L71.48,40.59 L68.55,38.85 L65.31,37.82 L61.91,37.55 L58.55,38.06 L61.32,39.76 L63.78,41.89 L65.65,43.69 L67.12,45.83 L68.13,48.22 L68.63,50.77 L68.63,50.77 Z" fill="#ffffff" stroke="#ffffff" stroke-width="1" stroke-linejoin="round"/><path d="M66.86,51.24 L64.56,51.08 L62.34,51.73 L61.81,52.17 L61.46,52.70 L61.24,54.00 L61.49,55.60 L62.05,57.44 L62.95,59.89 L64.02,62.27 L64.54,63.21 L64.54,63.21 L65.16,64.34 L65.62,65.07 L66.39,63.31 L66.67,61.42 L66.46,59.54 L66.18,56.71 L66.33,54.77 L66.61,52.84 L66.86,51.24 Z" fill="#ffffff" stroke="#ffffff" stroke-width="1" stroke-linejoin="round"/><path d="M65.11,53.53 L64.64,53.90 L64.08,54.10 L63.88,54.10 L63.05,53.86 L62.48,53.21 L62.48,53.16 L62.57,52.85 L62.88,52.59 L63.90,52.27 L64.42,52.23 L64.94,52.27 L65.33,52.45 L65.51,52.72 L65.39,53.16 L65.11,53.53 Z" fill="#0077d2" stroke="#0077d2" stroke-width="1" stroke-linejoin="round"/><path d="M38.13,58.62 L38.22,57.65 L38.19,56.65 L38.15,53.95 L38.35,51.25 L38.86,48.04 L39.72,44.91 L41.07,42.19 L42.97,39.83 L39.15,38.86 L35.22,38.46 L33.02,38.59 L30.89,39.16 L28.92,40.15 L27.03,42.29 L25.74,44.84 L25.15,47.64 L25.28,50.49 L26.38,56.90 L28.07,63.17 L29.60,67.55 L31.17,70.91 L32.73,73.17 L33.49,73.86 L34.24,74.26 L34.24,74.26 L34.90,74.35 L35.57,74.18 L36.24,73.75 L36.93,73.06 L40.94,68.54 L39.29,66.41 L38.24,63.94 L37.84,61.28 L38.13,58.61 L38.13,58.62 Z" fill="#ffffff" stroke="#ffffff" stroke-width="1" stroke-linejoin="round"/><path d="M39.68,60.88 L39.72,62.46 L40.00,64.02 L40.62,65.35 L41.51,66.53 L42.44,67.34 L43.52,67.94 L44.63,68.28 L45.78,68.40 L46.38,66.69 L47.06,65.01 L47.73,63.37 L48.30,61.69 L48.52,58.55 L48.46,55.40 L48.14,53.67 L47.91,52.84 L47.44,52.13 L47.36,52.06 L47.28,52.00 L46.50,51.60 L45.65,51.43 L44.96,51.40 L44.27,51.43 L42.86,51.73 L41.51,52.25 L40.70,52.71 L39.94,53.25 L39.94,53.90 L39.99,57.33 L39.99,57.60 L39.98,58.04 L39.94,58.48 L39.74,60.69 L39.74,60.69 L39.68,60.88 Z" fill="#ffffff" stroke="#ffffff" stroke-width="1" stroke-linejoin="round"/><path d="M43.48,53.27 L43.55,53.17 L43.63,53.08 L44.42,52.83 L45.24,52.86 L45.80,52.98 L46.33,53.20 L46.80,53.62 L46.85,53.95 L46.85,54.04 L46.20,54.78 L45.25,55.06 L45.02,55.06 L44.37,54.83 L43.84,54.41 L43.50,53.92 L43.41,53.48 L43.43,53.37 L43.48,53.27 L43.48,53.27 Z" fill="#0077d2" stroke="#0077d2" stroke-width="1" stroke-linejoin="round"/><path d="M47.71,70.13 L47.30,70.26 L46.94,70.51 L46.16,71.45 L45.50,72.23 L44.76,72.78 L43.67,73.22 L41.95,73.63 L41.19,73.81 L40.49,74.16 L41.14,74.58 L41.87,74.83 L43.92,75.15 L45.96,74.83 L47.03,74.38 L48.00,73.75 L48.70,72.96 L49.13,71.99 L49.02,71.16 L48.56,70.45 L48.17,70.19 L47.70,70.13 L47.71,70.13 Z" fill="#ffffff" stroke="#ffffff" stroke-width="1" stroke-linejoin="round"/><path d="M74.25,70.13 L72.08,70.58 L69.87,70.53 L67.73,69.98 L67.32,69.94 L66.92,70.01 L66.38,70.31 L65.98,70.79 L65.80,71.67 L65.78,72.58 L67.92,72.82 L70.07,72.63 L72.13,72.01 L73.61,71.19 L74.87,70.07 L74.55,70.08 L74.22,70.12 L74.25,70.13 Z" fill="#ffffff" stroke="#ffffff" stroke-width="1" stroke-linejoin="round"/><path d="M60.42,57.99 L59.83,56.05 L59.52,53.94 L59.61,52.90 L59.92,51.92 L60.52,51.03 L61.45,50.26 L63.95,49.41 L66.59,49.44 L64.95,46.13 L62.67,43.23 L62.11,42.66 L61.74,42.33 L61.69,42.29 L61.31,41.95 L61.05,41.74 L60.90,41.61 L58.00,39.82 L54.77,38.71 L51.39,38.33 L49.37,38.42 L47.40,38.93 L45.58,39.82 L43.80,41.41 L42.37,43.31 L41.34,45.46 L40.60,48.19 L40.13,50.98 L41.91,50.16 L43.82,49.72 L45.78,49.67 L47.59,50.17 L49.06,51.33 L49.96,52.97 L50.16,54.83 L50.23,58.44 L49.97,62.03 L49.37,63.85 L48.65,65.62 L47.58,68.39 L48.78,68.54 L49.79,69.19 L50.66,70.55 L50.86,72.15 L50.86,72.15 L50.76,73.51 L50.62,78.17 L51.07,82.81 L52.10,87.35 L52.72,88.07 L53.52,88.57 L54.38,88.97 L55.31,89.14 L57.33,89.01 L59.24,88.37 L60.92,87.24 L62.09,85.51 L62.57,83.49 L63.40,77.50 L63.98,72.34 L63.98,72.34 L64.04,71.03 L64.51,69.80 L65.18,69.02 L66.05,68.46 L63.72,65.23 L61.83,61.72 L60.42,57.99 L60.42,57.99 Z" fill="#ffffff" stroke="#ffffff" stroke-width="1" stroke-linejoin="round"/><path d="M95.71,72.70 L96.45,73.70 L97.05,74.80 L97.51,75.99 L97.82,77.26 L97.99,78.58 L98.00,79.97 L97.87,81.39 L97.58,82.83 L97.15,84.29 L96.58,85.74 L95.87,87.17 L95.03,88.58 L94.07,89.94 L92.99,91.24 L91.82,92.47 L90.55,93.62 L89.20,94.67 L87.79,95.63 L86.33,96.47 L84.83,97.19 L83.30,97.78 L81.77,98.24 L80.24,98.56 L78.74,98.74 L77.26,98.78 L75.84,98.68 L74.48,98.43 L73.20,98.04 L72.00,97.52 L70.91,96.87 L69.92,96.09 L69.06,95.20 L68.32,94.20 L67.72,93.10 L67.26,91.91 L66.95,90.64 L66.79,89.31 L66.77,87.93 L66.91,86.51 L67.19,85.07 L67.62,83.61 L68.20,82.16 L68.91,80.73 L69.75,79.32 L70.71,77.96 L71.78,76.66 L72.96,75.43 L74.22,74.28 L75.57,73.23 L76.98,72.27 L78.44,71.43 L79.95,70.71 L81.47,70.12 L83.00,69.66 L84.53,69.34 L86.04,69.16 L87.51,69.12 L88.93,69.22 L90.29,69.47 L91.58,69.86 L92.77,70.38 L93.87,71.03 L94.85,71.81 L95.71,72.70 Z" fill="#76bc2d" stroke="#1e1e1e" stroke-width="1" stroke-linejoin="round"/><path d="M78.18,89.46 L76.69,88.05 L75.74,86.24 L75.45,84.21 L75.84,82.20 L76.87,80.43 L78.43,79.10 L80.59,77.85 L82.19,77.46 L82.78,77.53 L83.22,77.74 L83.53,78.07 L83.70,78.49 L83.62,79.49 L82.99,80.55 L81.82,81.47 L80.12,82.04 L80.42,82.82 L81.23,83.31 L82.43,83.50 L83.90,83.34 L85.50,82.82 L87.12,81.90 L88.62,80.55 L89.88,78.75 L90.35,77.64 L90.53,76.59 L90.46,75.63 L90.14,74.76 L89.60,74.02 L88.86,73.40 L87.94,72.94 L86.87,72.64 L85.66,72.51 L84.33,72.59 L82.90,72.87 L81.41,73.39 L79.85,74.14 L78.27,75.16 L76.68,76.45 L75.09,78.04 L73.32,80.34 L72.04,82.76 L71.24,85.17 L70.92,87.49 L71.07,89.62 L71.69,91.46 L72.78,92.90 L73.50,93.44 L74.33,93.85 L77.77,94.43 L81.24,94.17 L84.55,93.08 L87.50,91.22 L89.91,88.71 L91.64,85.69 L92.60,82.34 L92.71,78.86 L90.94,82.41 L89.05,85.19 L87.08,87.25 L85.10,88.69 L83.16,89.55 L81.33,89.92 L79.65,89.87 L78.18,89.46 Z" fill="#ffffff" stroke="#1e1e1e" stroke-width="1" stroke-linejoin="round"/></svg>