<svg xmlns="http://www.w3.org/2000/svg" viewBox="0.66 0.67 94.83 94.69"><path d="M7.84,7.84 L88.16,88.16 L89.38,89.01 L90.86,89.18 L92.24,88.63 L93.20,87.49 L93.49,86.03 L93.49,5.71 L93.25,4.51 L92.55,3.50 L91.51,2.85 L90.29,2.67 L9.97,2.67 L8.61,3.01 L7.54,3.93 L7.00,5.23 L7.11,6.63 L7.84,7.84 L7.84,7.84 Z" fill="#3a9de6" stroke="#1e1e1e" stroke-width="1" stroke-linejoin="round"/><path d="M29.49,29.49 L66.51,66.51 L93.17,39.84 L93.17,5.71 L92.79,4.23 L91.75,3.13 L90.29,2.67 L56.32,2.67 L29.49,29.49 Z" fill="#50e6ff" stroke="#1e1e1e" stroke-width="1" stroke-linejoin="round"/><path d="M36.39,53.23 L36.68,53.00 L37.03,52.86 L37.40,52.81 L37.78,52.86 L38.12,53.00 L38.42,53.23 L42.80,57.60 L43.03,57.90 L43.17,58.25 L43.22,58.62 L43.17,58.99 L43.03,59.34 L42.80,59.64 L9.50,92.94 L9.20,93.17 L8.85,93.31 L8.48,93.36 L8.11,93.31 L7.76,93.17 L7.46,92.94 L3.09,88.57 L2.86,88.27 L2.71,87.92 L2.66,87.55 L2.71,87.17 L2.86,86.83 L3.09,86.53 L36.39,53.23 Z" fill="#a5a4a5" stroke="#1e1e1e" stroke-width="1" stroke-linejoin="round"/><path d="M23.66,40.25 L23.96,40.02 L24.30,39.88 L24.68,39.83 L25.05,39.88 L25.40,40.02 L25.70,40.25 L30.07,44.63 L30.30,44.92 L30.44,45.27 L30.49,45.64 L30.44,46.02 L30.30,46.36 L30.07,46.66 L9.52,67.22 L9.22,67.44 L8.87,67.59 L8.50,67.64 L8.13,67.59 L7.78,67.44 L7.48,67.22 L3.11,62.84 L2.88,62.54 L2.73,62.20 L2.68,61.82 L2.73,61.45 L2.88,61.10 L3.11,60.80 L23.66,40.25 Z" fill="#a5a4a5" stroke="#1e1e1e" stroke-width="1" stroke-linejoin="round"/><path d="M49.12,65.90 L49.42,65.67 L49.77,65.52 L50.14,65.47 L50.51,65.52 L50.86,65.67 L51.16,65.90 L55.53,70.27 L55.76,70.57 L55.90,70.92 L55.95,71.29 L55.90,71.66 L55.76,72.01 L55.53,72.31 L34.98,92.86 L34.68,93.09 L34.33,93.23 L33.96,93.28 L33.59,93.23 L33.24,93.09 L32.94,92.86 L28.57,88.49 L28.34,88.19 L28.20,87.84 L28.15,87.47 L28.20,87.09 L28.34,86.75 L28.57,86.45 L49.12,65.90 Z" fill="#a5a4a5" stroke="#1e1e1e" stroke-width="1" stroke-linejoin="round"/><path d="M52.11,24.89 L52.53,24.57 L53.02,24.37 L53.54,24.30 L54.07,24.37 L54.56,24.57 L54.98,24.89 L58.52,28.44 L58.84,28.86 L59.04,29.34 L59.11,29.87 L59.04,30.39 L58.84,30.88 L58.52,31.30 L54.98,34.85 L54.56,35.17 L54.07,35.37 L53.54,35.44 L53.02,35.37 L52.53,35.17 L52.11,34.85 L48.56,31.30 L48.24,30.88 L48.04,30.39 L47.97,29.87 L48.04,29.34 L48.24,28.86 L48.56,28.44 L52.11,24.89 Z" fill="#ffffff" stroke="#ffffff" stroke-width="1" stroke-linejoin="round"/><path d="M64.91,12.07 L65.33,11.75 L65.82,11.54 L66.34,11.48 L66.87,11.54 L67.36,11.75 L67.78,12.07 L71.32,15.61 L71.64,16.03 L71.84,16.52 L71.91,17.05 L71.84,17.57 L71.64,18.06 L71.32,18.48 L67.78,22.03 L67.36,22.35 L66.87,22.55 L66.34,22.62 L65.82,22.55 L65.33,22.35 L64.91,22.03 L61.36,18.48 L61.04,18.06 L60.84,17.57 L60.77,17.05 L60.84,16.52 L61.04,16.03 L61.36,15.61 L64.91,12.07 Z" fill="#ffffff" stroke="#ffffff" stroke-width="1" stroke-linejoin="round"/><path d="M64.93,37.69 L65.35,37.37 L65.84,37.17 L66.36,37.10 L66.89,37.17 L67.38,37.37 L67.80,37.69 L71.34,41.24 L71.66,41.66 L71.87,42.14 L71.94,42.67 L71.87,43.19 L71.66,43.68 L71.34,44.10 L67.80,47.65 L67.38,47.97 L66.89,48.17 L66.36,48.24 L65.84,48.17 L65.35,47.97 L64.93,47.65 L61.39,44.10 L61.06,43.68 L60.86,43.19 L60.79,42.67 L60.86,42.14 L61.06,41.66 L61.39,41.24 L64.93,37.69 Z" fill="#ffffff" stroke="#ffffff" stroke-width="1" stroke-linejoin="round"/><path d="M74.19,28.43 L77.71,24.91 L78.62,24.38 L79.67,24.38 L80.59,24.91 L84.11,28.43 L84.64,29.34 L84.64,30.39 L84.11,31.31 L80.59,34.83 L79.67,35.36 L78.62,35.36 L77.71,34.83 L74.19,31.31 L73.66,30.39 L73.66,29.34 L74.19,28.43 Z" fill="#ffffff" stroke="#ffffff" stroke-width="1" stroke-linejoin="round"/></svg>