<svg xmlns="http://www.w3.org/2000/svg" viewBox="0.88 4.29 94.19 87.68"><rect x="2.88" y="6.29" width="90.19" height="60.11" fill="#3990e4" stroke="#1e1e1e" stroke-width="1"/><path d="M66.08,84.64 L64.51,84.32 L63.12,83.88 L61.92,83.33 L60.87,82.67 L59.98,81.89 L59.23,81.00 L58.11,78.91 L57.40,76.39 L57.02,73.46 L56.87,70.15 L56.85,66.45 L39.15,66.45 L39.12,70.15 L38.96,73.46 L38.58,76.39 L37.87,78.91 L36.75,81.00 L36.01,81.89 L35.12,82.67 L34.08,83.33 L32.87,83.88 L31.49,84.32 L29.92,84.64 L28.14,85.27 L26.69,86.47 L25.75,88.11 L25.44,89.97 L70.56,89.97 L70.25,88.11 L69.31,86.47 L67.86,85.27 L66.08,84.64 L66.08,84.64 Z" fill="#a6a6a6" stroke="#1e1e1e" stroke-width="1" stroke-linejoin="round"/><path d="M69.71,42.08 L69.71,23.52 L64.37,23.52 L64.37,46.19 L77.87,46.19 L77.87,42.08 L69.71,42.08 Z" fill="#efefef" stroke="#efefef" stroke-width="1" stroke-linejoin="round"/><path d="M30.56,32.91 L29.11,32.19 L27.79,31.25 L27.25,30.42 L27.09,29.44 L27.31,28.50 L27.95,27.79 L29.04,27.30 L30.24,27.20 L32.11,27.33 L33.92,27.85 L35.57,28.75 L35.57,24.05 L32.95,23.35 L30.24,23.15 L28.10,23.29 L26.06,23.93 L24.21,25.01 L22.96,26.38 L22.19,28.07 L21.97,29.92 L22.36,32.03 L23.33,33.93 L24.81,35.48 L26.67,36.53 L28.42,37.40 L30.03,38.51 L30.66,39.29 L30.88,40.27 L30.65,41.22 L30.03,41.97 L28.96,42.49 L27.79,42.67 L25.62,42.38 L23.59,41.58 L21.81,40.32 L21.81,45.65 L24.67,46.66 L27.68,46.93 L29.96,46.71 L32.15,46.01 L34.13,44.85 L35.45,43.47 L36.26,41.74 L36.48,39.84 L36.17,37.78 L35.09,36.00 L32.98,34.22 L30.56,32.91 Z" fill="#efefef" stroke="#efefef" stroke-width="1" stroke-linejoin="round"/><path d="M59.04,41.65 L60.08,39.47 L60.69,37.13 L60.85,34.72 L60.52,31.62 L59.47,28.69 L57.85,26.36 L55.63,24.59 L53.05,23.52 L50.29,23.15 L47.24,23.51 L44.37,24.64 L42.75,25.78 L41.38,27.23 L40.32,28.91 L39.10,31.95 L38.67,35.20 L38.98,38.15 L39.95,40.96 L41.56,43.25 L43.73,45.01 L46.30,46.16 L49.07,46.61 L53.76,51.95 L60.37,51.95 L53.92,45.76 L55.94,44.81 L57.67,43.41 L59.04,41.65 Z" fill="#efefef" stroke="#efefef" stroke-width="1" stroke-linejoin="round"/><path d="M53.71,40.27 L52.55,41.34 L51.12,42.00 L49.55,42.19 L47.97,42.00 L46.53,41.32 L45.39,40.21 L44.45,38.57 L43.90,36.77 L43.79,34.88 L43.91,33.00 L44.45,31.19 L45.39,29.55 L46.58,28.46 L48.05,27.78 L49.65,27.57 L51.22,27.76 L52.64,28.44 L53.76,29.55 L54.64,31.20 L55.14,33.01 L55.25,34.88 L55.24,36.76 L54.79,38.59 L53.92,40.27 L53.71,40.27 Z" fill="#3990e4" stroke="#3990e4" stroke-width="1" stroke-linejoin="round"/></svg>