<svg xmlns="http://www.w3.org/2000/svg" viewBox="11.17 -0.63 76.41 100.00"><path d="M49.37,27.59 L42.08,27.34 L35.29,26.59 L29.14,25.41 L23.78,23.84 L21.44,22.91 L19.36,21.91 L17.54,20.83 L16.01,19.68 L14.80,18.46 L13.90,17.19 L13.35,15.86 L13.17,14.48 L13.17,84.26 L13.35,85.59 L13.89,86.88 L14.76,88.13 L15.96,89.33 L17.46,90.46 L19.24,91.54 L21.29,92.54 L23.60,93.47 L28.88,95.07 L34.94,96.29 L41.66,97.07 L48.88,97.37 L49.37,97.37 L56.66,97.11 L63.45,96.37 L69.60,95.19 L74.96,93.61 L77.30,92.69 L79.39,91.69 L81.20,90.61 L82.73,89.46 L83.95,88.24 L84.84,86.97 L85.39,85.64 L85.58,84.26 L85.58,14.48 L85.39,15.83 L84.84,17.14 L83.95,18.40 L82.73,19.61 L81.20,20.76 L79.39,21.84 L77.30,22.84 L74.96,23.77 L69.60,25.37 L63.45,26.57 L56.66,27.33 L49.37,27.59 L49.37,27.59 Z" fill="#2f76bb" stroke="#1e1e1e" stroke-width="1" stroke-linejoin="round"/><path d="M85.58,14.48 L85.39,15.83 L84.84,17.14 L83.95,18.40 L82.73,19.61 L81.20,20.76 L79.39,21.84 L77.30,22.84 L74.96,23.77 L69.60,25.37 L63.45,26.57 L56.66,27.33 L49.37,27.59 L42.08,27.34 L35.29,26.59 L29.14,25.41 L23.78,23.84 L21.44,22.91 L19.36,21.91 L17.54,20.83 L16.01,19.68 L14.80,18.46 L13.90,17.19 L13.35,15.86 L13.17,14.48 L13.35,13.11 L13.90,11.78 L14.80,10.50 L16.01,9.29 L17.54,8.14 L19.36,7.06 L21.44,6.05 L23.78,5.13 L29.14,3.55 L35.29,2.37 L42.08,1.63 L49.37,1.37 L56.66,1.63 L63.45,2.37 L69.60,3.55 L74.96,5.13 L77.30,6.05 L79.39,7.06 L81.20,8.14 L82.73,9.29 L83.95,10.50 L84.84,11.78 L85.39,13.11 L85.58,14.48 Z" fill="#e2e2e2" stroke="#1e1e1e" stroke-width="1" stroke-linejoin="round"/><path d="M77.18,13.39 L77.04,14.24 L76.62,15.07 L75.93,15.87 L74.99,16.63 L72.42,18.05 L69.02,19.28 L64.90,20.30 L60.17,21.07 L54.96,21.55 L49.37,21.72 L43.78,21.55 L38.57,21.07 L33.85,20.30 L29.73,19.28 L26.32,18.05 L23.75,16.63 L22.81,15.87 L22.13,15.07 L21.70,14.24 L21.56,13.39 L21.70,12.53 L22.13,11.71 L22.81,10.91 L23.75,10.15 L26.32,8.74 L29.73,7.52 L33.85,6.51 L38.57,5.75 L43.78,5.27 L49.37,5.10 L54.96,5.27 L60.17,5.76 L64.90,6.52 L69.02,7.54 L72.42,8.76 L74.99,10.17 L75.93,10.93 L76.62,11.72 L77.04,12.54 L77.18,13.39 Z" fill="#8ec8e7" stroke="#1e1e1e" stroke-width="1" stroke-linejoin="round"/><path d="M71.37,18.49 L66.00,17.06 L60.52,16.07 L54.98,15.54 L49.43,15.47 L43.92,15.57 L38.45,16.13 L33.05,17.14 L27.76,18.60 L32.07,19.90 L37.23,20.88 L43.08,21.50 L49.43,21.72 L55.89,21.49 L61.77,20.85 L66.61,19.84 L71.37,18.43 L71.37,18.43 L71.37,18.49 Z" fill="#1e89b2" stroke="#1e89b2" stroke-width="1" stroke-linejoin="round"/><path d="M41.58,78.72 L39.43,78.62 L37.59,78.30 L36.06,77.77 L34.83,77.02 L33.91,76.00 L33.26,74.66 L32.87,72.99 L32.75,70.99 L32.75,65.88 L32.54,64.19 L31.93,62.97 L30.92,62.23 L29.51,61.99 L29.51,58.09 L30.92,57.84 L31.93,57.07 L32.54,55.80 L32.75,54.03 L32.75,49.32 L32.88,47.30 L33.28,45.61 L33.93,44.23 L34.83,43.17 L36.03,42.39 L37.55,41.84 L39.40,41.52 L41.58,41.42 L41.58,45.37 L40.10,45.59 L39.04,46.28 L38.40,47.43 L38.18,49.04 L38.18,53.54 L37.97,55.85 L37.36,57.70 L36.33,59.06 L34.89,59.96 L34.89,60.07 L36.33,60.97 L37.36,62.37 L37.97,64.24 L38.18,66.60 L38.18,70.93 L38.38,72.70 L38.95,73.89 L39.99,74.56 L41.53,74.77 L41.53,78.72 L41.53,78.72 L41.58,78.72 Z" fill="#f3f3f3" stroke="#1e1e1e" stroke-width="1" stroke-linejoin="round"/><path d="M69.23,61.99 L67.82,62.24 L66.81,62.98 L66.20,64.21 L65.99,65.94 L65.99,70.82 L65.86,72.88 L65.47,74.60 L64.81,75.98 L63.91,77.02 L62.72,77.77 L61.20,78.30 L59.36,78.62 L57.22,78.72 L57.22,74.77 L58.75,74.56 L59.79,73.89 L60.15,73.40 L60.41,72.75 L60.62,70.99 L60.62,66.49 L60.82,64.18 L61.43,62.36 L62.45,61.01 L63.85,60.12 L63.85,60.01 L62.45,59.10 L61.43,57.68 L60.82,55.77 L60.62,53.38 L60.62,49.04 L60.40,47.43 L59.76,46.28 L58.70,45.59 L57.22,45.37 L57.22,41.42 L59.36,41.53 L61.20,41.86 L62.72,42.41 L63.91,43.17 L64.81,44.22 L65.47,45.57 L65.86,47.23 L65.99,49.21 L65.99,54.03 L66.20,55.79 L66.81,57.04 L67.82,57.79 L69.23,58.04 L69.23,61.93 L69.23,61.93 L69.23,61.99 Z" fill="#f3f3f3" stroke="#1e1e1e" stroke-width="1" stroke-linejoin="round"/></svg>