<svg xmlns="http://www.w3.org/2000/svg" viewBox="-0.55 -0.57 97.10 97.14"><path d="M69.40,8.85 L65.41,8.56 L63.67,8.21 L62.15,7.76 L60.90,7.21 L59.96,6.57 L59.36,5.87 L59.15,5.11 L59.15,24.85 L59.36,25.59 L59.94,26.28 L60.87,26.91 L62.10,27.46 L65.31,28.26 L69.25,28.58 L69.40,28.58 L73.38,28.29 L75.12,27.95 L76.64,27.49 L77.89,26.94 L78.84,26.31 L79.43,25.60 L79.64,24.85 L79.64,5.14 L79.43,5.89 L78.83,6.58 L77.88,7.21 L76.63,7.76 L75.12,8.21 L73.38,8.56 L69.40,8.85 Z" fill="#0077d2" stroke="#1e1e1e" stroke-width="1" stroke-linejoin="round"/><path d="M79.63,5.14 L79.42,5.89 L78.82,6.59 L77.88,7.22 L76.63,7.77 L75.11,8.23 L73.37,8.57 L69.38,8.87 L65.39,8.58 L63.66,8.24 L62.14,7.78 L60.90,7.23 L59.95,6.59 L59.36,5.89 L59.15,5.14 L59.36,4.38 L59.96,3.68 L60.90,3.05 L62.15,2.50 L63.67,2.06 L65.41,1.72 L69.40,1.43 L73.39,1.72 L75.13,2.06 L76.64,2.52 L77.89,3.07 L78.84,3.71 L79.43,4.41 L79.64,5.16 L79.63,5.14 Z" fill="#e8e8e8" stroke="#e8e8e8" stroke-width="1" stroke-linejoin="round"/><path d="M77.24,4.84 L77.08,5.31 L76.62,5.76 L74.94,6.51 L72.44,7.01 L69.39,7.19 L66.33,7.01 L63.84,6.50 L62.16,5.75 L61.70,5.31 L61.54,4.84 L61.70,4.37 L62.16,3.92 L63.85,3.17 L66.34,2.67 L69.40,2.48 L72.45,2.67 L74.94,3.17 L76.63,3.92 L77.08,4.37 L77.24,4.84 L77.24,4.84 Z" fill="#50e6ff" stroke="#50e6ff" stroke-width="1" stroke-linejoin="round"/><path d="M69.40,5.38 L66.25,5.57 L63.18,6.28 L66.25,7.01 L69.40,7.21 L72.54,7.01 L75.61,6.28 L72.54,5.57 L69.40,5.38 L69.40,5.38 Z" fill="#198ab3" stroke="#198ab3" stroke-width="1" stroke-linejoin="round"/><path d="M93.98,53.09 L93.49,49.36 L92.27,45.81 L90.36,42.57 L87.84,39.78 L84.81,37.55 L81.40,35.97 L77.74,35.10 L77.22,31.05 L76.00,27.16 L74.13,23.53 L71.66,20.28 L68.67,17.51 L65.25,15.29 L61.49,13.69 L57.52,12.77 L53.45,12.54 L49.20,12.84 L45.07,13.88 L41.18,15.62 L37.66,18.02 L34.62,21.00 L32.15,24.47 L30.32,28.31 L26.45,29.13 L22.78,30.63 L19.43,32.74 L16.51,35.42 L14.11,38.56 L12.30,42.08 L11.14,45.87 L10.67,49.80 L11.16,53.72 L12.33,57.49 L14.13,61.00 L16.51,64.14 L19.40,66.82 L22.71,68.97 L26.35,70.50 L30.19,71.38 L34.13,71.58 L36.20,71.49 L74.18,71.49 L74.68,71.45 L75.18,71.34 L78.77,70.98 L82.23,69.93 L85.43,68.25 L88.25,65.99 L90.59,63.24 L92.36,60.09 L93.51,56.67 L93.98,53.09 Z" fill="#2fcbec" stroke="#1e1e1e" stroke-width="1" stroke-linejoin="round"/><path d="M92.18,16.94 L90.11,14.96 L87.65,13.49 L84.93,12.61 L84.93,18.39 L86.48,19.17 L87.76,20.34 L88.49,21.66 L88.90,23.28 L88.99,25.19 L88.76,27.37 L88.20,29.78 L87.31,32.41 L86.09,35.23 L84.52,38.23 L82.61,41.38 L80.35,44.65 L77.74,48.03 L74.78,51.49 L71.45,55.01 L67.76,58.57 L63.70,62.14 L59.27,65.70 L54.69,69.07 L50.19,72.07 L45.81,74.72 L41.56,77.03 L37.46,79.00 L33.53,80.65 L29.80,81.99 L26.27,83.02 L22.98,83.76 L19.95,84.21 L17.19,84.39 L14.72,84.30 L12.57,83.96 L10.76,83.37 L9.30,82.55 L8.22,81.50 L7.51,80.21 L7.11,78.62 L7.01,76.75 L7.23,74.63 L7.76,72.27 L8.61,69.71 L9.79,66.95 L11.29,64.03 L9.60,61.20 L8.31,58.17 L5.96,62.20 L4.07,66.10 L2.68,69.84 L1.80,73.39 L1.45,76.70 L1.65,79.74 L1.97,81.15 L2.43,82.47 L3.04,83.72 L3.80,84.87 L5.53,86.66 L7.66,88.05 L10.15,89.06 L12.98,89.68 L16.13,89.93 L19.55,89.82 L23.22,89.34 L27.12,88.51 L31.20,87.34 L35.45,85.83 L39.82,83.99 L44.30,81.83 L48.86,79.36 L53.45,76.58 L58.06,73.49 L62.66,70.12 L67.10,66.54 L71.26,62.88 L75.14,59.15 L78.70,55.38 L81.95,51.61 L84.85,47.85 L87.41,44.13 L89.60,40.47 L91.41,36.92 L92.83,33.49 L93.83,30.20 L94.41,27.09 L94.55,24.19 L94.23,21.51 L93.45,19.08 L92.18,16.94 Z" fill="#0072c6" stroke="#1e1e1e" stroke-width="1" stroke-linejoin="round"/><path d="M45.14,60.73 L41.60,60.60 L38.31,60.23 L35.32,59.64 L32.72,58.87 L30.58,57.93 L28.96,56.85 L27.94,55.65 L27.67,55.02 L27.58,54.37 L27.58,88.21 L27.67,88.85 L27.93,89.48 L28.94,90.66 L30.53,91.74 L32.64,92.68 L35.21,93.45 L38.15,94.05 L41.40,94.43 L44.90,94.57 L45.14,94.57 L48.68,94.44 L51.98,94.07 L54.96,93.48 L57.56,92.71 L59.71,91.77 L61.32,90.68 L62.35,89.49 L62.61,88.86 L62.70,88.21 L62.70,54.40 L62.61,55.05 L62.35,55.67 L61.32,56.86 L59.71,57.93 L57.56,58.87 L54.96,59.65 L51.98,60.23 L48.68,60.60 L45.14,60.73 Z" fill="#0077d2" stroke="#1e1e1e" stroke-width="1" stroke-linejoin="round"/><path d="M62.70,54.40 L62.61,55.05 L62.35,55.68 L61.32,56.87 L59.71,57.95 L57.56,58.89 L54.96,59.67 L51.98,60.26 L48.68,60.63 L45.14,60.76 L41.60,60.63 L38.30,60.25 L35.32,59.66 L32.72,58.88 L30.58,57.94 L28.96,56.86 L27.94,55.67 L27.67,55.05 L27.58,54.40 L27.67,53.75 L27.94,53.13 L28.96,51.93 L30.58,50.84 L32.72,49.89 L35.32,49.11 L38.31,48.51 L41.60,48.13 L45.14,48.00 L48.68,48.13 L51.98,48.50 L54.96,49.09 L57.56,49.86 L59.70,50.80 L61.32,51.89 L62.35,53.08 L62.61,53.71 L62.70,54.36 L62.70,54.40 Z" fill="#e8e8e8" stroke="#1e1e1e" stroke-width="1" stroke-linejoin="round"/><path d="M58.60,53.87 L58.33,54.68 L57.54,55.44 L56.30,56.13 L54.66,56.73 L52.67,57.22 L50.38,57.60 L47.85,57.83 L45.14,57.91 L42.43,57.83 L39.90,57.59 L37.61,57.22 L35.62,56.72 L33.98,56.12 L32.74,55.44 L31.95,54.68 L31.68,53.87 L31.95,53.05 L32.74,52.30 L33.98,51.61 L35.62,51.01 L37.61,50.51 L39.90,50.13 L42.43,49.90 L45.14,49.81 L47.85,49.90 L50.38,50.13 L52.67,50.50 L54.66,51.00 L56.30,51.60 L57.54,52.28 L58.33,53.04 L58.60,53.86 L58.60,53.87 Z" fill="#50e6ff" stroke="#50e6ff" stroke-width="1" stroke-linejoin="round"/><path d="M45.14,54.79 L41.54,54.90 L37.97,55.42 L34.47,56.33 L37.96,57.27 L41.53,57.80 L45.14,57.93 L48.75,57.80 L52.32,57.27 L55.81,56.33 L52.32,55.42 L48.75,54.90 L45.14,54.79 L45.14,54.79 Z" fill="#198ab3" stroke="#198ab3" stroke-width="1" stroke-linejoin="round"/><path d="M55.82,77.87 L55.82,68.61 L53.27,68.61 L53.27,79.93 L60.01,79.93 L60.01,77.87 L55.82,77.87 Z" fill="#efefef" stroke="#efefef" stroke-width="1" stroke-linejoin="round"/><path d="M36.27,73.30 L35.53,72.93 L34.86,72.45 L34.59,72.04 L34.51,71.57 L34.62,71.10 L34.94,70.74 L35.49,70.49 L36.10,70.42 L37.46,70.61 L38.70,71.21 L38.70,68.85 L37.35,68.51 L35.96,68.42 L34.39,68.61 L32.98,69.33 L32.12,70.42 L31.85,71.78 L32.23,73.20 L33.14,74.37 L34.43,75.09 L35.31,75.52 L36.12,76.07 L36.43,76.47 L36.53,76.96 L36.43,77.43 L36.10,77.80 L35.52,78.05 L34.89,78.12 L33.28,77.81 L31.89,76.96 L31.89,79.49 L33.32,79.98 L34.82,80.12 L36.51,79.94 L38.05,79.24 L38.94,78.13 L39.22,76.74 L39.06,75.72 L38.54,74.82 L37.48,73.94 L36.27,73.30 Z" fill="#efefef" stroke="#efefef" stroke-width="1" stroke-linejoin="round"/><path d="M50.47,77.65 L51.25,75.56 L51.33,73.32 L50.70,71.18 L49.89,70.02 L48.78,69.13 L47.43,68.58 L45.98,68.41 L44.45,68.59 L43.01,69.16 L41.85,70.08 L41.00,71.29 L40.45,72.81 L40.29,74.43 L40.45,75.91 L40.95,77.31 L41.74,78.45 L42.81,79.34 L44.12,79.92 L45.53,80.13 L47.88,82.77 L51.20,82.77 L47.92,79.73 L49.39,78.92 L50.49,77.65 L50.47,77.65 Z" fill="#efefef" stroke="#efefef" stroke-width="1" stroke-linejoin="round"/><path d="M47.92,76.96 L46.99,77.69 L45.83,77.92 L44.67,77.68 L43.75,76.93 L43.05,75.20 L43.05,73.33 L43.75,71.59 L44.70,70.84 L45.89,70.59 L47.04,70.83 L47.94,71.59 L48.53,72.89 L48.68,74.31 L48.54,75.70 L47.94,76.96 L47.92,76.96 Z" fill="#0077d2" stroke="#0077d2" stroke-width="1" stroke-linejoin="round"/></svg>