<svg xmlns="http://www.w3.org/2000/svg" viewBox="1.47 -2.00 93.07 100.00"><path d="M92.53,43.36 L92.01,39.38 L90.71,35.58 L88.67,32.13 L85.98,29.15 L82.75,26.77 L79.11,25.08 L75.20,24.16 L74.63,19.83 L73.33,15.66 L71.32,11.78 L68.68,8.30 L65.48,5.32 L61.81,2.95 L57.79,1.24 L53.54,0.24 L49.17,0.00 L44.63,0.32 L40.22,1.44 L36.06,3.30 L32.30,5.87 L29.04,9.05 L26.39,12.75 L24.43,16.85 L20.29,17.74 L16.38,19.34 L12.81,21.61 L9.69,24.47 L7.13,27.83 L5.20,31.60 L3.97,35.64 L3.47,39.84 L3.99,44.03 L5.23,48.06 L7.15,51.81 L9.69,55.18 L12.78,58.05 L16.32,60.34 L20.21,61.99 L24.32,62.93 L28.53,63.15 L71.20,63.15 L71.73,63.17 L72.27,63.15 L76.16,62.76 L79.91,61.64 L83.37,59.82 L86.42,57.37 L88.94,54.38 L90.84,50.96 L92.05,47.24 L92.53,43.36 L92.53,43.36 Z" fill="#3990e4" stroke="#1e1e1e" stroke-width="1" stroke-linejoin="round"/><path d="M48.27,55.95 L43.50,55.79 L39.06,55.36 L35.05,54.66 L31.55,53.75 L28.67,52.63 L26.49,51.36 L25.70,50.67 L25.12,49.94 L24.76,49.20 L24.64,48.43 L24.64,88.48 L24.76,89.24 L25.12,89.98 L25.71,90.69 L26.50,91.38 L28.68,92.65 L31.55,93.76 L35.02,94.68 L38.97,95.38 L43.32,95.83 L47.95,96.00 L48.27,96.00 L53.02,95.85 L57.44,95.41 L61.44,94.72 L64.93,93.80 L67.81,92.69 L69.99,91.41 L70.78,90.72 L71.36,90.00 L71.72,89.25 L71.84,88.48 L71.84,48.43 L71.72,49.20 L71.36,49.94 L70.78,50.67 L69.99,51.36 L67.81,52.63 L64.93,53.75 L61.44,54.66 L57.44,55.36 L53.02,55.79 L48.27,55.95 Z" fill="#50e6ff" stroke="#1e1e1e" stroke-width="1" stroke-linejoin="round"/><path d="M71.84,48.43 L71.72,49.20 L71.36,49.94 L70.77,50.67 L69.97,51.36 L67.78,52.63 L64.89,53.75 L61.40,54.66 L57.39,55.36 L52.99,55.79 L48.27,55.95 L43.55,55.79 L39.13,55.36 L35.12,54.66 L31.61,53.75 L28.71,52.63 L26.52,51.36 L25.71,50.67 L25.13,49.94 L24.76,49.20 L24.64,48.43 L24.76,47.66 L25.12,46.91 L25.71,46.19 L26.51,45.50 L28.70,44.22 L31.59,43.11 L35.10,42.19 L39.11,41.50 L43.53,41.06 L48.27,40.91 L53.00,41.06 L57.42,41.50 L61.42,42.19 L64.91,43.11 L67.80,44.22 L69.98,45.50 L70.78,46.19 L71.36,46.91 L71.72,47.66 L71.84,48.43 Z" fill="#e8e8e8" stroke="#1e1e1e" stroke-width="1" stroke-linejoin="round"/><path d="M66.35,48.00 L66.25,48.48 L65.98,48.96 L64.92,49.85 L63.26,50.67 L61.05,51.38 L58.37,51.97 L55.30,52.42 L51.91,52.70 L48.27,52.80 L44.62,52.70 L41.23,52.42 L38.15,51.97 L35.46,51.38 L33.24,50.67 L31.56,49.85 L30.50,48.96 L30.23,48.48 L30.13,48.00 L30.23,47.52 L30.50,47.04 L31.56,46.15 L33.23,45.33 L35.44,44.62 L38.12,44.03 L41.20,43.58 L44.61,43.30 L48.27,43.20 L51.92,43.30 L55.32,43.57 L58.39,44.02 L61.07,44.60 L63.27,45.31 L64.93,46.12 L65.98,47.03 L66.25,47.51 L66.35,48.00 Z" fill="#50e6ff" stroke="#1e1e1e" stroke-width="1" stroke-linejoin="round"/><path d="M48.27,48.96 L43.43,49.09 L38.63,49.69 L33.92,50.77 L38.63,51.88 L43.43,52.50 L48.27,52.64 L53.10,52.50 L57.90,51.87 L62.61,50.77 L57.90,49.70 L53.10,49.09 L48.27,48.96 L48.27,48.96 Z" fill="#32bedd" stroke="#32bedd" stroke-width="1" stroke-linejoin="round"/><path d="M33.55,26.67 L47.36,12.69 L48.09,12.27 L48.93,12.27 L49.65,12.69 L63.47,26.67 L63.73,27.19 L63.49,27.73 L62.93,27.89 L54.45,27.89 L53.93,28.11 L53.71,28.64 L53.71,45.76 L53.55,46.19 L53.12,46.35 L43.84,46.35 L43.43,46.17 L43.25,45.76 L43.25,28.48 L43.11,27.99 L42.67,27.73 L34.03,27.73 L33.49,27.33 L33.55,26.67 Z" fill="#f2f2f2" stroke="#1e1e1e" stroke-width="1" stroke-linejoin="round"/></svg>