<svg xmlns="http://www.w3.org/2000/svg" viewBox="0.67 0.67 94.67 94.67"><path d="M48.00,2.67 L49.04,2.88 L49.89,3.45 L50.46,4.30 L50.67,5.33 L50.67,10.67 L61.33,10.67 L61.33,5.33 L61.54,4.30 L62.11,3.45 L62.96,2.88 L64.00,2.67 L65.04,2.88 L65.89,3.45 L66.46,4.30 L66.67,5.33 L66.67,10.67 L74.67,10.67 L76.82,10.88 L78.82,11.50 L80.63,12.49 L82.21,13.79 L83.51,15.37 L84.50,17.18 L85.12,19.18 L85.33,21.33 L85.33,29.33 L90.67,29.33 L91.70,29.54 L92.55,30.11 L93.12,30.96 L93.33,32.00 L93.12,33.04 L92.55,33.89 L91.70,34.46 L90.67,34.67 L85.33,34.67 L85.33,45.33 L90.67,45.33 L91.70,45.54 L92.55,46.11 L93.12,46.96 L93.33,48.00 L93.12,49.04 L92.55,49.89 L91.70,50.46 L90.67,50.67 L85.33,50.67 L85.33,61.33 L90.67,61.33 L91.70,61.54 L92.55,62.11 L93.12,62.96 L93.33,64.00 L93.12,65.04 L92.55,65.89 L91.70,66.46 L90.67,66.67 L85.33,66.67 L85.33,74.67 L85.12,76.82 L84.50,78.82 L83.51,80.63 L82.21,82.21 L80.63,83.51 L78.82,84.50 L76.82,85.12 L74.67,85.33 L66.67,85.33 L66.67,90.67 L66.46,91.70 L65.89,92.55 L65.04,93.12 L64.00,93.33 L62.96,93.12 L62.11,92.55 L61.54,91.70 L61.33,90.67 L61.33,85.33 L50.67,85.33 L50.67,90.67 L50.46,91.70 L49.89,92.55 L49.04,93.12 L48.00,93.33 L46.96,93.12 L46.11,92.55 L45.54,91.70 L45.33,90.67 L45.33,85.33 L34.67,85.33 L34.67,90.67 L34.46,91.70 L33.89,92.55 L33.04,93.12 L32.00,93.33 L30.96,93.12 L30.11,92.55 L29.54,91.70 L29.33,90.67 L29.33,85.33 L21.33,85.33 L19.18,85.12 L17.18,84.50 L15.37,83.51 L13.79,82.21 L12.49,80.63 L11.50,78.82 L10.88,76.82 L10.67,74.67 L10.67,66.67 L5.33,66.67 L4.30,66.46 L3.45,65.89 L2.88,65.04 L2.67,64.00 L2.88,62.96 L3.45,62.11 L4.30,61.54 L5.33,61.33 L10.67,61.33 L10.67,50.67 L5.33,50.67 L4.30,50.46 L3.45,49.89 L2.88,49.04 L2.67,48.00 L2.88,46.96 L3.45,46.11 L4.30,45.54 L5.33,45.33 L10.67,45.33 L10.67,34.67 L5.33,34.67 L4.30,34.46 L3.45,33.89 L2.88,33.04 L2.67,32.00 L2.88,30.96 L3.45,30.11 L4.30,29.54 L5.33,29.33 L10.67,29.33 L10.67,21.33 L10.88,19.18 L11.50,17.18 L12.49,15.37 L13.79,13.79 L15.37,12.49 L17.18,11.50 L19.18,10.88 L21.33,10.67 L29.33,10.67 L29.33,5.33 L29.54,4.30 L30.11,3.45 L30.96,2.88 L32.00,2.67 L33.04,2.88 L33.89,3.45 L34.46,4.30 L34.67,5.33 L34.67,10.67 L45.33,10.67 L45.33,5.33 L45.54,4.30 L46.11,3.45 L46.96,2.88 L48.00,2.67 Z" fill="#959595" stroke="#1e1e1e" stroke-width="1" stroke-linejoin="round"/><path d="M47.91,16.00 L32.09,16.00 L32.00,16.00 L31.91,16.00 L21.33,16.00 L20.26,16.11 L19.26,16.42 L18.35,16.91 L17.56,17.56 L16.91,18.35 L16.42,19.26 L16.11,20.26 L16.00,21.33 L16.00,74.67 L16.11,75.74 L16.42,76.74 L16.91,77.65 L17.56,78.44 L18.35,79.09 L19.26,79.58 L20.26,79.89 L21.33,80.00 L31.91,80.00 L32.00,80.00 L32.09,80.00 L47.91,80.00 L48.00,80.00 L48.09,80.00 L63.91,80.00 L64.00,80.00 L64.09,80.00 L74.67,80.00 L75.74,79.89 L76.74,79.58 L77.65,79.09 L78.44,78.44 L79.09,77.65 L79.58,76.74 L79.89,75.74 L80.00,74.67 L80.00,64.12 L80.00,64.00 L80.00,63.88 L80.00,48.12 L80.00,48.01 L80.00,47.89 L80.00,32.13 L80.00,32.01 L80.00,31.89 L80.00,21.34 L79.89,20.27 L79.58,19.27 L79.09,18.36 L78.44,17.57 L77.65,16.92 L76.74,16.43 L75.74,16.12 L74.67,16.01 L64.09,16.01 L64.00,16.01 L63.91,16.01 L48.09,16.01 L48.00,16.01 L47.91,16.01 L47.91,16.00 Z" fill="#ffffff" stroke="#1e1e1e" stroke-width="1" stroke-linejoin="round"/><path d="M72.00,21.33 L72.69,21.42 L73.33,21.69 L73.89,22.11 L74.31,22.67 L74.58,23.31 L74.67,24.00 L74.67,72.00 L74.58,72.69 L74.31,73.33 L73.89,73.89 L73.33,74.31 L72.69,74.58 L72.00,74.67 L24.00,74.67 L23.31,74.58 L22.67,74.31 L22.11,73.89 L21.69,73.33 L21.42,72.69 L21.33,72.00 L21.33,24.00 L21.42,23.31 L21.69,22.67 L22.11,22.11 L22.67,21.69 L23.31,21.42 L24.00,21.33 L72.00,21.33 Z" fill="#006aba" stroke="#1e1e1e" stroke-width="1" stroke-linejoin="round"/><path d="M64.66,49.65 L62.65,51.94 L61.53,53.03 L60.31,54.02 L58.95,54.88 L57.41,55.54 L55.68,55.97 L53.71,56.13 L51.99,55.95 L50.54,55.44 L49.35,54.66 L48.41,53.67 L47.69,52.53 L47.19,51.29 L46.87,50.00 L46.74,48.73 L47.76,50.24 L49.18,51.47 L51.02,52.27 L52.10,52.48 L53.30,52.53 L55.60,52.23 L57.68,51.51 L59.53,50.43 L61.10,49.07 L62.36,47.48 L63.30,45.75 L63.89,43.92 L64.09,42.07 L63.87,39.96 L63.23,38.03 L62.17,36.32 L60.72,34.84 L58.89,33.65 L56.68,32.75 L54.13,32.19 L51.23,32.00 L48.99,32.10 L46.65,32.37 L44.28,32.82 L41.92,33.44 L39.60,34.21 L37.38,35.12 L35.30,36.16 L33.41,37.32 L33.48,38.62 L33.71,39.94 L34.47,42.38 L35.37,44.11 L35.78,44.53 L36.10,44.57 L39.04,42.68 L41.73,41.16 L44.25,39.99 L46.66,39.16 L36.75,49.30 L31.96,54.29 L29.33,57.28 L29.82,59.10 L30.83,61.32 L32.03,63.20 L32.61,63.78 L33.10,63.99 L33.62,63.86 L34.14,63.47 L38.80,58.40 L42.76,53.69 L42.99,55.41 L43.43,57.14 L44.12,58.82 L45.08,60.36 L46.33,61.69 L47.90,62.73 L49.82,63.41 L52.11,63.66 L54.33,63.47 L56.51,62.90 L58.61,61.93 L60.59,60.55 L62.42,58.75 L64.06,56.51 L65.47,53.84 L66.62,50.70 L66.56,49.94 L66.07,49.42 L65.36,49.27 L64.66,49.65 L64.66,49.65 Z" fill="#ffffff" stroke="#ffffff" stroke-width="1" stroke-linejoin="round"/><path d="M57.89,42.41 L57.76,43.41 L57.38,44.27 L56.80,44.99 L56.05,45.58 L55.18,46.04 L54.21,46.37 L52.16,46.63 L50.21,46.40 L48.68,45.81 L53.67,38.63 L55.63,39.18 L56.93,40.06 L57.66,41.16 L57.89,42.41 L57.89,42.41 Z" fill="#006aba" stroke="#006aba" stroke-width="1" stroke-linejoin="round"/></svg>