<svg xmlns="http://www.w3.org/2000/svg" viewBox="11.81 0.67 72.37 94.67"><path d="M48.00,27.41 L41.11,27.17 L34.69,26.47 L28.89,25.35 L23.83,23.87 L21.62,23.00 L19.65,22.05 L17.94,21.03 L16.50,19.94 L15.35,18.80 L14.51,17.59 L13.99,16.34 L13.81,15.04 L13.81,80.96 L13.99,82.21 L14.50,83.43 L15.32,84.61 L16.45,85.74 L17.87,86.81 L19.56,87.82 L21.49,88.77 L23.67,89.65 L28.65,91.16 L34.38,92.31 L40.71,93.05 L47.52,93.33 L48.00,93.33 L54.89,93.09 L61.31,92.39 L67.11,91.27 L72.17,89.79 L74.38,88.92 L76.35,87.97 L78.06,86.95 L79.50,85.86 L80.65,84.72 L81.49,83.51 L82.01,82.26 L82.19,80.96 L82.19,15.04 L82.01,16.30 L81.49,17.53 L80.65,18.72 L79.50,19.85 L78.06,20.93 L76.35,21.95 L74.38,22.91 L72.17,23.79 L67.11,25.30 L61.31,26.44 L54.89,27.16 L48.00,27.41 Z" fill="#0077d2" stroke="#1e1e1e" stroke-width="1" stroke-linejoin="round"/><path d="M82.19,15.04 L82.01,16.30 L81.49,17.53 L80.65,18.72 L79.50,19.85 L78.06,20.93 L76.35,21.95 L74.38,22.91 L72.17,23.79 L67.11,25.30 L61.31,26.44 L54.89,27.16 L48.00,27.41 L41.11,27.17 L34.69,26.47 L28.89,25.35 L23.83,23.87 L21.62,23.00 L19.65,22.05 L17.94,21.03 L16.50,19.94 L15.35,18.80 L14.51,17.59 L13.99,16.34 L13.81,15.04 L13.99,13.74 L14.51,12.49 L15.35,11.28 L16.50,10.14 L17.94,9.05 L19.65,8.03 L21.62,7.08 L23.83,6.21 L28.89,4.73 L34.69,3.61 L41.11,2.91 L48.00,2.67 L54.89,2.91 L61.31,3.61 L67.11,4.73 L72.17,6.21 L74.38,7.08 L76.35,8.03 L78.06,9.05 L79.50,10.14 L80.65,11.28 L81.49,12.49 L82.01,13.74 L82.19,15.04 Z" fill="#e8e8e8" stroke="#1e1e1e" stroke-width="1" stroke-linejoin="round"/><path d="M74.19,14.03 L74.05,14.84 L73.65,15.62 L73.01,16.38 L72.13,17.10 L69.71,18.45 L66.51,19.61 L62.64,20.58 L58.19,21.30 L53.27,21.76 L48.00,21.92 L42.72,21.76 L37.80,21.30 L33.35,20.58 L29.46,19.62 L26.25,18.46 L23.83,17.13 L22.94,16.41 L22.29,15.66 L21.90,14.88 L21.76,14.08 L21.90,13.28 L22.29,12.50 L22.94,11.75 L23.82,11.02 L26.24,9.68 L29.44,8.51 L33.32,7.55 L37.78,6.81 L42.71,6.35 L48.00,6.19 L53.29,6.35 L58.21,6.80 L62.66,7.53 L66.53,8.49 L69.73,9.65 L72.13,10.98 L73.01,11.70 L73.66,12.45 L74.05,13.23 L74.19,14.03 Z" fill="#50e6ff" stroke="#1e1e1e" stroke-width="1" stroke-linejoin="round"/><path d="M48.00,16.00 L40.97,16.22 L34.00,17.24 L27.20,19.04 L34.01,20.79 L40.97,21.76 L48.00,21.92 L55.02,21.69 L61.97,20.65 L68.75,18.83 L61.95,17.12 L55.01,16.18 L48.00,16.00 L48.00,16.00 Z" fill="#198ab3" stroke="#198ab3" stroke-width="1" stroke-linejoin="round"/><path d="M64.00,48.00 L64.00,50.24 L63.73,51.91 L63.57,53.60 L63.61,54.75 L63.84,56.05 L63.94,57.15 L63.84,57.97 L63.48,60.36 L62.51,62.56 L62.50,62.75 L62.51,62.93 L63.04,63.57 L65.27,59.50 L67.16,55.26 L68.69,50.88 L68.69,50.88 L69.56,47.36 L69.93,44.44 L69.80,42.18 L69.55,41.32 L69.17,40.64 L66.90,38.43 L64.19,36.80 L61.17,35.83 L58.01,35.58 L54.88,36.05 L57.46,37.63 L59.73,39.63 L61.89,42.00 L63.34,44.86 L64.00,48.00 Z" fill="#f2f2f2" stroke="#f2f2f2" stroke-width="1" stroke-linejoin="round"/><path d="M62.35,48.43 L60.20,48.29 L58.13,48.91 L57.65,49.31 L57.33,49.81 L57.15,51.03 L57.47,52.53 L58.13,54.24 L59.00,56.53 L60.00,58.77 L60.48,59.63 L60.48,59.63 L61.07,60.69 L61.49,61.39 L62.21,59.72 L62.45,57.92 L62.48,57.04 L62.45,56.16 L62.42,54.77 L62.19,53.55 L62.35,51.70 L62.61,49.87 L62.51,49.01 L62.56,48.27 L62.35,48.43 Z" fill="#f2f2f2" stroke="#f2f2f2" stroke-width="1" stroke-linejoin="round"/><path d="M60.75,50.61 L60.30,50.94 L59.79,51.15 L59.79,51.15 L59.41,51.19 L59.04,51.15 L58.74,50.68 L58.67,50.13 L58.67,50.13 L58.77,49.87 L59.05,49.63 L59.95,49.33 L60.96,49.33 L61.20,49.39 L61.36,49.51 L61.44,49.76 L61.27,50.16 L60.96,50.45 L60.75,50.61 Z" fill="#0077d2" stroke="#0077d2" stroke-width="1" stroke-linejoin="round"/><path d="M35.73,55.36 L35.73,54.45 L35.75,54.00 L35.73,53.55 L35.61,50.88 L35.73,48.21 L36.37,45.24 L37.33,42.35 L38.59,39.66 L40.43,37.33 L36.86,36.54 L33.23,36.27 L31.17,36.39 L29.19,36.93 L27.36,37.87 L25.62,39.89 L24.43,42.29 L23.88,44.90 L24.00,47.57 L25.05,53.61 L26.67,59.52 L28.07,63.63 L29.52,66.78 L30.97,68.90 L31.68,69.55 L32.37,69.92 L32.37,69.92 L32.98,70.01 L33.61,69.88 L34.24,69.48 L34.88,68.80 L38.56,64.53 L37.03,62.53 L36.05,60.20 L35.68,57.71 L35.95,55.20 L35.73,55.36 Z" fill="#f2f2f2" stroke="#f2f2f2" stroke-width="1" stroke-linejoin="round"/><path d="M37.12,57.49 L37.18,59.00 L37.44,60.48 L38.03,61.71 L38.83,62.83 L39.69,63.59 L40.69,64.16 L41.71,64.47 L42.77,64.59 L42.90,63.87 L43.21,63.09 L44.00,61.39 L44.62,59.83 L45.12,58.24 L45.24,55.28 L45.12,52.32 L45.08,51.56 L44.80,50.72 L44.60,49.95 L44.16,49.28 L44.16,49.28 L43.47,48.76 L42.67,48.43 L41.60,48.43 L40.29,48.70 L39.04,49.17 L38.16,49.64 L37.33,50.19 L37.33,50.77 L37.33,54.03 L37.33,54.03 L37.35,54.43 L37.33,54.83 L37.33,56.91 L37.33,56.91 L37.12,57.49 Z" fill="#f2f2f2" stroke="#f2f2f2" stroke-width="1" stroke-linejoin="round"/><path d="M40.64,50.35 L40.64,50.35 L41.39,50.23 L42.13,50.35 L42.65,50.46 L43.15,50.67 L43.43,50.76 L43.59,50.98 L43.63,51.41 L43.63,51.41 L43.35,51.80 L42.99,52.11 L42.82,52.01 L42.67,51.89 L42.67,51.89 L41.68,51.39 L41.17,50.40 L40.64,50.35 Z" fill="#0077d2" stroke="#0077d2" stroke-width="1" stroke-linejoin="round"/><path d="M44.59,66.35 L44.21,66.45 L43.89,66.67 L43.15,67.57 L42.52,68.29 L41.84,68.81 L40.84,69.22 L39.25,69.60 L38.52,69.77 L37.87,70.13 L38.47,70.50 L39.15,70.72 L41.07,71.02 L42.99,70.72 L44.07,70.10 L45.07,69.33 L45.73,68.59 L46.13,67.68 L46.03,66.88 L45.60,66.19 L45.21,66.03 L44.80,66.08 L44.59,66.35 Z" fill="#f2f2f2" stroke="#f2f2f2" stroke-width="1" stroke-linejoin="round"/><path d="M69.17,66.35 L67.18,66.83 L65.14,66.83 L63.15,66.35 L62.77,66.29 L62.40,66.35 L61.88,66.63 L61.49,67.09 L61.43,67.92 L61.49,68.75 L63.47,68.98 L65.46,68.80 L67.36,68.21 L68.74,67.45 L69.92,66.40 L69.17,66.35 Z" fill="#f2f2f2" stroke="#f2f2f2" stroke-width="1" stroke-linejoin="round"/><path d="M56.37,54.93 L55.82,53.15 L55.53,51.21 L55.61,50.24 L55.91,49.32 L56.47,48.45 L57.33,47.68 L59.64,46.87 L62.08,46.88 L60.69,43.63 L58.67,40.75 L58.13,40.21 L57.81,39.89 L57.81,39.89 L57.66,39.72 L57.49,39.57 L57.49,39.57 L57.49,39.57 L55.80,38.30 L53.92,37.33 L51.02,36.42 L48.00,36.16 L46.10,36.23 L44.27,36.75 L43.45,37.00 L42.67,37.33 L41.00,38.83 L39.67,40.64 L38.72,42.67 L38.04,45.31 L37.60,48.00 L39.28,47.22 L41.08,46.80 L42.93,46.77 L44.62,47.25 L46.00,48.35 L46.85,49.88 L47.04,51.63 L47.19,55.01 L47.04,58.40 L46.50,60.11 L45.81,61.76 L44.85,64.37 L45.95,64.53 L46.88,65.12 L47.70,66.42 L47.89,67.95 L48.00,67.95 L48.00,69.23 L47.88,73.61 L48.31,77.97 L49.28,82.24 L49.84,82.90 L50.56,83.36 L51.35,83.74 L52.21,83.89 L54.14,83.80 L55.96,83.18 L57.55,82.08 L58.63,80.46 L59.09,78.56 L60.37,67.89 L60.37,67.89 L60.43,66.68 L60.85,65.55 L61.48,64.80 L62.29,64.27 L59.97,61.31 L58.06,58.07 L56.59,54.61 L56.37,54.93 Z" fill="#f2f2f2" stroke="#f2f2f2" stroke-width="1" stroke-linejoin="round"/></svg>