<svg xmlns="http://www.w3.org/2000/svg" viewBox="0.07 0.67 95.43 95.29"><path d="M7.84,7.84 L88.16,88.16 L89.38,89.01 L90.86,89.18 L92.24,88.63 L93.20,87.49 L93.49,86.03 L93.49,5.71 L93.25,4.51 L92.55,3.50 L91.51,2.85 L90.29,2.67 L9.97,2.67 L8.61,3.01 L7.54,3.93 L7.00,5.23 L7.11,6.63 L7.84,7.84 L7.84,7.84 Z" fill="#3a9de6" stroke="#1e1e1e" stroke-width="1" stroke-linejoin="round"/><path d="M29.49,29.49 L66.51,66.51 L93.17,39.84 L93.17,5.71 L92.79,4.23 L91.75,3.13 L90.29,2.67 L56.32,2.67 L29.49,29.49 Z" fill="#50e6ff" stroke="#1e1e1e" stroke-width="1" stroke-linejoin="round"/><path d="M2.07,87.55 L37.40,52.21 L43.81,58.62 L8.48,93.96 L2.07,87.55 Z" fill="#a5a4a5" stroke="#1e1e1e" stroke-width="1" stroke-linejoin="round"/><path d="M2.09,61.82 L24.68,39.23 L31.09,45.64 L8.50,68.23 L2.09,61.82 Z" fill="#a5a4a5" stroke="#1e1e1e" stroke-width="1" stroke-linejoin="round"/><path d="M27.55,87.47 L50.14,64.88 L56.55,71.29 L33.96,93.88 L27.55,87.47 Z" fill="#a5a4a5" stroke="#1e1e1e" stroke-width="1" stroke-linejoin="round"/><path d="M47.13,29.87 L53.54,23.46 L59.95,29.87 L53.54,36.28 L47.13,29.87 Z" fill="#ffffff" stroke="#ffffff" stroke-width="1" stroke-linejoin="round"/><path d="M59.93,17.05 L66.34,10.64 L72.75,17.05 L66.34,23.46 L59.93,17.05 Z" fill="#ffffff" stroke="#ffffff" stroke-width="1" stroke-linejoin="round"/><path d="M59.95,42.67 L66.36,36.26 L72.78,42.67 L66.36,49.08 L59.95,42.67 Z" fill="#ffffff" stroke="#ffffff" stroke-width="1" stroke-linejoin="round"/><path d="M74.19,28.43 L77.71,24.91 L78.62,24.38 L79.67,24.38 L80.59,24.91 L84.11,28.43 L84.64,29.34 L84.64,30.39 L84.11,31.31 L80.59,34.83 L79.67,35.36 L78.62,35.36 L77.71,34.83 L74.19,31.31 L73.66,30.39 L73.66,29.34 L74.19,28.43 Z" fill="#ffffff" stroke="#ffffff" stroke-width="1" stroke-linejoin="round"/></svg>