<svg xmlns="http://www.w3.org/2000/svg" viewBox="11.81 0.67 72.37 94.67"><path d="M48.00,27.41 L41.11,27.17 L34.69,26.47 L28.89,25.35 L23.83,23.87 L21.62,23.00 L19.65,22.05 L17.94,21.03 L16.50,19.94 L15.35,18.80 L14.51,17.59 L13.99,16.34 L13.81,15.04 L13.81,80.96 L13.99,82.21 L14.50,83.43 L15.32,84.61 L16.45,85.74 L17.87,86.81 L19.56,87.82 L21.49,88.77 L23.67,89.65 L28.65,91.16 L34.38,92.31 L40.71,93.05 L47.52,93.33 L48.00,93.33 L54.89,93.09 L61.31,92.39 L67.11,91.27 L72.17,89.79 L74.38,88.92 L76.35,87.97 L78.06,86.95 L79.50,85.86 L80.65,84.72 L81.49,83.51 L82.01,82.26 L82.19,80.96 L82.19,15.04 L82.01,16.31 L81.49,17.55 L80.65,18.74 L79.50,19.88 L78.06,20.96 L76.35,21.98 L74.38,22.93 L72.17,23.81 L67.11,25.31 L61.31,26.45 L54.89,27.16 L48.00,27.41 Z" fill="#0077d2" stroke="#1e1e1e" stroke-width="1" stroke-linejoin="round"/><path d="M82.19,15.04 L82.01,16.31 L81.49,17.55 L80.65,18.74 L79.50,19.88 L78.06,20.96 L76.35,21.98 L74.38,22.93 L72.17,23.81 L67.11,25.31 L61.31,26.45 L54.89,27.16 L48.00,27.41 L41.11,27.17 L34.69,26.47 L28.89,25.35 L23.83,23.87 L21.62,23.00 L19.65,22.05 L17.94,21.03 L16.50,19.94 L15.35,18.80 L14.51,17.59 L13.99,16.34 L13.81,15.04 L13.99,13.74 L14.51,12.49 L15.35,11.28 L16.50,10.14 L17.94,9.05 L19.65,8.03 L21.62,7.08 L23.83,6.21 L28.89,4.73 L34.69,3.61 L41.11,2.91 L48.00,2.67 L54.89,2.91 L61.31,3.61 L67.11,4.73 L72.17,6.21 L74.38,7.08 L76.35,8.03 L78.06,9.05 L79.50,10.14 L80.65,11.28 L81.49,12.49 L82.01,13.74 L82.19,15.04 Z" fill="#e8e8e8" stroke="#1e1e1e" stroke-width="1" stroke-linejoin="round"/><path d="M74.24,14.03 L74.10,14.84 L73.71,15.62 L73.06,16.38 L72.17,17.10 L69.75,18.45 L66.54,19.61 L62.65,20.58 L58.20,21.30 L53.28,21.76 L48.00,21.92 L42.72,21.76 L37.80,21.30 L33.35,20.58 L29.46,19.61 L26.25,18.45 L23.83,17.11 L22.94,16.38 L22.29,15.62 L21.90,14.84 L21.76,14.03 L21.90,13.22 L22.29,12.43 L22.94,11.68 L23.83,10.96 L26.25,9.62 L29.46,8.47 L33.35,7.51 L37.80,6.80 L42.72,6.34 L48.00,6.19 L53.28,6.35 L58.20,6.80 L62.65,7.53 L66.54,8.49 L69.75,9.65 L72.17,10.98 L73.06,11.70 L73.71,12.45 L74.10,13.23 L74.24,14.03 Z" fill="#50e6ff" stroke="#1e1e1e" stroke-width="1" stroke-linejoin="round"/><path d="M48.00,16.00 L40.98,16.22 L34.04,17.24 L27.25,19.04 L34.04,20.80 L40.99,21.76 L48.00,21.92 L55.02,21.71 L61.97,20.67 L68.75,18.83 L61.95,17.12 L55.01,16.17 L48.00,16.00 L48.00,16.00 Z" fill="#198ab3" stroke="#198ab3" stroke-width="1" stroke-linejoin="round"/><path d="M76.00,33.71 L75.50,33.76 L75.21,33.92 L74.72,34.41 L74.23,34.68 L73.39,34.94 L70.08,35.31 L67.92,35.68 L66.07,36.54 L64.46,37.82 L63.02,39.41 L60.38,43.24 L57.60,47.36 L54.15,50.25 L50.25,52.51 L46.03,54.06 L41.60,54.88 L38.67,56.10 L35.98,57.77 L33.59,59.85 L31.57,62.29 L30.65,63.63 L29.34,64.59 L27.79,65.07 L24.95,65.28 L23.20,65.49 L21.27,66.03 L19.41,66.77 L19.71,67.32 L20.21,67.67 L21.55,67.94 L22.80,67.88 L23.36,67.79 L22.02,69.09 L20.59,70.29 L23.24,70.67 L25.92,70.56 L26.76,70.46 L27.59,70.18 L29.33,69.18 L31.44,67.75 L34.19,66.08 L36.00,65.42 L38.16,65.11 L40.52,65.07 L42.92,65.22 L47.18,65.76 L49.65,66.08 L50.26,65.90 L50.91,65.43 L52.22,63.89 L53.34,62.12 L54.03,60.75 L53.96,62.03 L53.52,63.63 L52.00,67.16 L50.40,70.15 L49.65,71.41 L52.29,70.92 L54.73,69.82 L56.84,68.18 L58.51,66.08 L59.57,64.26 L60.12,63.33 L60.43,63.04 L60.95,63.63 L61.28,63.89 L61.55,63.95 L62.25,63.26 L62.88,62.51 L65.44,58.35 L67.47,53.92 L68.96,49.28 L69.23,47.79 L69.69,45.60 L70.09,44.43 L70.68,43.29 L71.48,42.28 L72.53,41.44 L74.45,40.05 L75.55,38.86 L76.04,38.00 L76.16,37.60 L76.16,37.33 L75.04,36.48 L74.08,35.47 L74.00,35.17 L74.08,34.88 L75.15,36.16 L76.64,36.91 L76.64,36.91 L76.79,36.41 L76.98,35.31 L76.84,34.21 L76.53,33.84 L76.00,33.71 Z" fill="#f2f2f2" stroke="#f2f2f2" stroke-width="1" stroke-linejoin="round"/><path d="M69.33,39.36 L69.01,39.36 L68.16,39.33 L67.41,38.93 L68.06,37.99 L69.05,37.42 L70.19,37.33 L70.27,38.13 L69.96,38.87 L69.33,39.36 Z" fill="#0077d2" stroke="#0077d2" stroke-width="1" stroke-linejoin="round"/><path d="M72.32,39.36 L72.32,39.36 L73.11,37.76 L74.08,36.27 L74.08,36.27 L73.05,37.87 L72.21,39.57 L72.32,39.36 Z" fill="#0077d2" stroke="#0077d2" stroke-width="1" stroke-linejoin="round"/><path d="M74.24,36.64 L74.24,36.64 L74.24,36.64 L73.93,37.98 L73.81,39.36 L73.81,39.36 L73.76,38.35 L73.81,37.33 L73.31,38.34 L72.96,39.41 L72.96,39.41 L73.42,38.07 L74.13,36.85 L74.24,36.64 Z" fill="#0077d2" stroke="#0077d2" stroke-width="1" stroke-linejoin="round"/><path d="M65.12,61.44 L63.80,62.77 L62.87,63.87 L62.40,64.75 L62.50,65.08 L62.83,65.44 L64.03,66.10 L65.60,66.51 L67.15,66.45 L66.05,63.98 L65.12,61.44 Z" fill="#f2f2f2" stroke="#f2f2f2" stroke-width="1" stroke-linejoin="round"/></svg>