<svg xmlns="http://www.w3.org/2000/svg" viewBox="-0.51 -0.53 99.96 100.00"><path d="M71.53,9.12 L67.42,8.82 L65.63,8.47 L64.06,8.00 L62.77,7.43 L61.80,6.77 L61.18,6.05 L60.97,5.27 L60.97,25.61 L61.18,26.38 L61.78,27.09 L62.74,27.73 L64.01,28.30 L67.32,29.13 L71.37,29.46 L71.53,29.46 L75.64,29.16 L77.43,28.80 L78.99,28.34 L80.28,27.77 L81.26,27.11 L81.87,26.39 L82.09,25.61 L82.09,5.29 L81.87,6.07 L81.25,6.78 L80.27,7.43 L78.98,8.00 L77.42,8.47 L75.63,8.82 L71.53,9.12 Z" fill="#0077d2" stroke="#1e1e1e" stroke-width="1" stroke-linejoin="round"/><path d="M82.07,5.29 L81.86,6.07 L81.24,6.79 L80.27,7.44 L78.98,8.01 L77.42,8.48 L75.62,8.84 L71.51,9.14 L67.40,8.84 L65.61,8.49 L64.05,8.02 L62.76,7.45 L61.79,6.80 L61.18,6.07 L60.97,5.29 L61.18,4.52 L61.80,3.79 L62.77,3.15 L64.06,2.58 L65.62,2.12 L67.41,1.77 L71.53,1.47 L75.64,1.77 L77.43,2.13 L79.00,2.60 L80.29,3.17 L81.26,3.82 L81.87,4.54 L82.09,5.32 L82.07,5.29 Z" fill="#e8e8e8" stroke="#e8e8e8" stroke-width="1" stroke-linejoin="round"/><path d="M79.61,4.99 L79.44,5.48 L78.97,5.93 L77.24,6.71 L74.67,7.23 L71.52,7.42 L68.37,7.22 L65.80,6.70 L64.07,5.93 L63.59,5.47 L63.43,4.99 L63.59,4.50 L64.07,4.04 L65.80,3.27 L68.38,2.75 L71.53,2.56 L74.67,2.75 L77.24,3.27 L78.98,4.04 L79.45,4.50 L79.61,4.99 L79.61,4.99 Z" fill="#50e6ff" stroke="#50e6ff" stroke-width="1" stroke-linejoin="round"/><path d="M71.53,5.55 L68.28,5.74 L65.12,6.47 L68.28,7.23 L71.53,7.43 L74.77,7.22 L77.93,6.47 L74.76,5.74 L71.53,5.55 L71.53,5.55 Z" fill="#198ab3" stroke="#198ab3" stroke-width="1" stroke-linejoin="round"/><path d="M96.87,54.72 L96.36,50.88 L95.10,47.21 L93.13,43.87 L90.54,41.00 L87.42,38.70 L83.90,37.07 L80.13,36.18 L79.59,32.01 L78.33,27.99 L76.40,24.26 L73.86,20.91 L70.78,18.05 L67.25,15.76 L63.38,14.11 L59.28,13.16 L55.09,12.93 L50.71,13.24 L46.45,14.30 L42.45,16.10 L38.82,18.58 L35.68,21.65 L33.13,25.22 L31.25,29.18 L27.26,30.03 L23.48,31.57 L20.03,33.75 L17.02,36.50 L14.54,39.75 L12.68,43.38 L11.48,47.28 L10.99,51.33 L11.50,55.37 L12.70,59.25 L14.56,62.87 L17.02,66.11 L20.00,68.88 L23.41,71.08 L27.16,72.66 L31.12,73.57 L35.18,73.78 L37.31,73.69 L76.46,73.69 L76.98,73.64 L77.49,73.53 L81.19,73.15 L84.75,72.08 L88.05,70.35 L90.96,68.02 L93.37,65.18 L95.20,61.94 L96.38,58.41 L96.87,54.72 Z" fill="#2fcbec" stroke="#1e1e1e" stroke-width="1" stroke-linejoin="round"/><path d="M95.01,17.46 L92.88,15.42 L90.34,13.90 L87.53,12.99 L87.53,18.96 L89.13,19.76 L90.45,20.96 L91.20,22.32 L91.63,24.00 L91.72,25.97 L91.48,28.21 L90.91,30.69 L89.99,33.40 L88.73,36.32 L87.11,39.40 L85.15,42.65 L82.82,46.02 L80.13,49.50 L77.07,53.07 L73.64,56.70 L69.84,60.36 L65.66,64.04 L61.09,67.72 L56.37,71.19 L51.74,74.28 L47.22,77.02 L42.84,79.40 L38.61,81.43 L34.56,83.13 L30.71,84.51 L27.08,85.57 L23.69,86.33 L20.56,86.80 L17.71,86.98 L15.17,86.89 L12.96,86.54 L11.09,85.93 L9.59,85.08 L8.48,84.00 L7.74,82.67 L7.32,81.03 L7.23,79.10 L7.45,76.92 L8.00,74.49 L8.88,71.85 L10.09,69.01 L11.63,66.00 L9.90,63.08 L8.56,59.95 L6.14,64.10 L4.20,68.13 L2.76,71.99 L1.85,75.64 L1.49,79.05 L1.70,82.18 L2.03,83.64 L2.50,85.00 L3.13,86.29 L3.92,87.47 L5.70,89.32 L7.89,90.76 L10.46,91.79 L13.38,92.44 L16.62,92.69 L20.15,92.57 L23.93,92.08 L27.95,91.23 L32.16,90.02 L36.53,88.47 L41.05,86.57 L45.66,84.34 L50.36,81.79 L55.09,78.93 L59.84,75.75 L64.58,72.27 L69.16,68.59 L73.45,64.81 L77.44,60.97 L81.12,57.08 L84.46,53.19 L87.46,49.31 L90.09,45.48 L92.35,41.72 L94.22,38.05 L95.68,34.51 L96.71,31.13 L97.31,27.92 L97.45,24.93 L97.12,22.17 L96.31,19.67 L95.01,17.46 Z" fill="#0072c6" stroke="#1e1e1e" stroke-width="1" stroke-linejoin="round"/><path d="M46.53,62.59 L42.88,62.46 L39.48,62.08 L36.41,61.48 L33.73,60.67 L31.52,59.70 L29.85,58.59 L28.79,57.36 L28.52,56.71 L28.43,56.04 L28.43,90.92 L28.52,91.58 L28.79,92.23 L29.82,93.45 L31.47,94.55 L33.65,95.52 L36.29,96.32 L39.32,96.93 L42.67,97.32 L46.28,97.47 L46.53,97.47 L50.18,97.34 L53.57,96.96 L56.65,96.35 L59.33,95.55 L61.54,94.58 L63.21,93.47 L64.26,92.24 L64.54,91.59 L64.63,90.92 L64.63,56.07 L64.54,56.73 L64.26,57.38 L63.21,58.60 L61.54,59.71 L59.33,60.68 L56.65,61.48 L53.57,62.08 L50.18,62.46 L46.53,62.59 Z" fill="#0077d2" stroke="#1e1e1e" stroke-width="1" stroke-linejoin="round"/><path d="M64.63,56.07 L64.54,56.74 L64.26,57.39 L63.21,58.62 L61.54,59.73 L59.33,60.70 L56.65,61.50 L53.57,62.11 L50.18,62.49 L46.53,62.62 L42.88,62.49 L39.48,62.10 L36.41,61.50 L33.73,60.69 L31.52,59.72 L29.85,58.61 L28.79,57.38 L28.52,56.73 L28.43,56.07 L28.52,55.40 L28.79,54.76 L29.85,53.52 L31.52,52.41 L33.73,51.43 L36.41,50.61 L39.48,50.00 L42.88,49.61 L46.53,49.47 L50.17,49.61 L53.57,49.99 L56.65,50.59 L59.33,51.39 L61.54,52.36 L63.21,53.48 L64.26,54.71 L64.53,55.36 L64.63,56.03 L64.63,56.07 Z" fill="#e8e8e8" stroke="#1e1e1e" stroke-width="1" stroke-linejoin="round"/><path d="M60.40,55.52 L60.12,56.36 L59.31,57.14 L58.03,57.85 L56.34,58.47 L54.28,58.98 L51.93,59.36 L49.32,59.61 L46.53,59.69 L43.73,59.61 L41.13,59.36 L38.77,58.98 L36.72,58.47 L35.02,57.85 L33.74,57.14 L32.93,56.36 L32.65,55.52 L32.93,54.68 L33.74,53.90 L35.02,53.19 L36.72,52.57 L38.77,52.06 L41.13,51.67 L43.73,51.43 L46.53,51.34 L49.32,51.43 L51.93,51.67 L54.28,52.05 L56.34,52.56 L58.03,53.18 L59.31,53.89 L60.12,54.67 L60.40,55.51 L60.40,55.52 Z" fill="#50e6ff" stroke="#50e6ff" stroke-width="1" stroke-linejoin="round"/><path d="M46.53,56.47 L42.81,56.59 L39.13,57.12 L35.53,58.05 L39.13,59.02 L42.81,59.58 L46.53,59.70 L50.25,59.58 L53.93,59.02 L57.52,58.05 L53.92,57.12 L50.24,56.59 L46.53,56.47 L46.53,56.47 Z" fill="#198ab3" stroke="#198ab3" stroke-width="1" stroke-linejoin="round"/><path d="M57.53,80.26 L57.53,70.71 L54.90,70.71 L54.90,82.38 L61.85,82.38 L61.85,80.26 L57.53,80.26 Z" fill="#efefef" stroke="#efefef" stroke-width="1" stroke-linejoin="round"/><path d="M37.38,75.55 L36.62,75.16 L35.93,74.67 L35.66,74.26 L35.57,73.76 L35.68,73.28 L36.01,72.91 L36.58,72.65 L37.20,72.58 L38.61,72.78 L39.89,73.40 L39.89,70.97 L38.50,70.61 L37.06,70.52 L35.44,70.72 L33.99,71.46 L33.11,72.58 L32.82,73.98 L33.22,75.45 L34.16,76.65 L35.49,77.39 L36.39,77.84 L37.23,78.40 L37.54,78.82 L37.65,79.32 L37.54,79.81 L37.21,80.19 L36.61,80.45 L35.96,80.51 L34.31,80.20 L32.87,79.32 L32.87,81.93 L34.34,82.44 L35.89,82.58 L37.63,82.40 L39.22,81.67 L40.14,80.53 L40.42,79.10 L40.26,78.04 L39.73,77.11 L38.63,76.21 L37.38,75.55 L37.38,75.55 Z" fill="#efefef" stroke="#efefef" stroke-width="1" stroke-linejoin="round"/><path d="M52.02,80.04 L52.82,77.88 L52.90,75.57 L52.25,73.36 L51.42,72.16 L50.28,71.25 L48.89,70.69 L47.40,70.51 L45.81,70.69 L44.33,71.28 L43.14,72.23 L42.26,73.48 L41.69,75.05 L41.52,76.71 L41.69,78.24 L42.21,79.68 L43.02,80.86 L44.12,81.77 L45.47,82.37 L46.93,82.59 L49.35,85.31 L52.77,85.31 L49.39,82.17 L50.90,81.34 L52.03,80.04 L52.02,80.04 Z" fill="#efefef" stroke="#efefef" stroke-width="1" stroke-linejoin="round"/><path d="M49.39,79.32 L48.43,80.07 L47.24,80.31 L46.04,80.06 L45.10,79.29 L44.37,77.50 L44.37,75.58 L45.10,73.79 L46.07,73.01 L47.30,72.76 L48.48,73.01 L49.41,73.79 L50.02,75.13 L50.18,76.59 L50.03,78.02 L49.41,79.32 L49.39,79.32 Z" fill="#0077d2" stroke="#0077d2" stroke-width="1" stroke-linejoin="round"/></svg>