<svg xmlns="http://www.w3.org/2000/svg" viewBox="12.63 0.82 76.40 100.00"><path d="M50.82,29.03 L43.53,28.77 L36.73,28.03 L30.59,26.85 L25.23,25.27 L22.89,24.35 L20.81,23.35 L18.99,22.27 L17.47,21.12 L16.25,19.90 L15.36,18.63 L14.81,17.30 L14.63,15.92 L14.63,85.72 L14.81,87.05 L15.35,88.34 L16.23,89.58 L17.42,90.78 L18.92,91.92 L20.71,92.99 L22.76,93.99 L25.06,94.92 L30.34,96.52 L36.40,97.74 L43.11,98.52 L50.32,98.82 L50.82,98.82 L58.12,98.57 L64.91,97.82 L71.06,96.64 L76.42,95.07 L78.76,94.15 L80.84,93.14 L82.65,92.06 L84.18,90.91 L85.39,89.70 L86.29,88.43 L86.83,87.10 L87.02,85.72 L87.02,15.92 L86.83,17.27 L86.29,18.58 L85.39,19.84 L84.18,21.05 L82.65,22.19 L80.84,23.27 L78.76,24.28 L76.42,25.21 L71.06,26.80 L64.91,28.00 L58.12,28.76 L50.82,29.03 Z" fill="#0077d2" stroke="#1e1e1e" stroke-width="1" stroke-linejoin="round"/><path d="M87.02,15.92 L86.83,17.27 L86.29,18.58 L85.39,19.84 L84.18,21.05 L82.65,22.19 L80.84,23.27 L78.76,24.28 L76.42,25.21 L71.06,26.80 L64.91,28.00 L58.12,28.76 L50.82,29.03 L43.53,28.77 L36.73,28.03 L30.59,26.85 L25.23,25.27 L22.89,24.35 L20.81,23.35 L18.99,22.27 L17.47,21.12 L16.25,19.90 L15.36,18.63 L14.81,17.30 L14.63,15.92 L14.81,14.55 L15.36,13.22 L16.25,11.95 L17.47,10.73 L18.99,9.58 L20.81,8.50 L22.89,7.50 L25.23,6.58 L30.59,5.00 L36.73,3.82 L43.53,3.08 L50.82,2.82 L58.12,3.08 L64.91,3.82 L71.06,5.00 L76.42,6.58 L78.76,7.50 L80.84,8.50 L82.65,9.58 L84.18,10.73 L85.39,11.95 L86.29,13.22 L86.83,14.55 L87.02,15.92 Z" fill="#e8e8e8" stroke="#1e1e1e" stroke-width="1" stroke-linejoin="round"/><path d="M78.61,14.85 L78.46,15.71 L78.04,16.54 L77.35,17.34 L76.42,18.11 L73.85,19.53 L70.45,20.77 L66.34,21.79 L61.62,22.55 L56.41,23.04 L50.82,23.21 L45.24,23.04 L40.03,22.55 L35.31,21.79 L31.19,20.77 L27.80,19.53 L25.23,18.11 L24.29,17.34 L23.61,16.54 L23.18,15.71 L23.04,14.85 L23.18,14.00 L23.61,13.17 L24.29,12.37 L25.23,11.60 L27.80,10.19 L31.19,8.96 L35.31,7.96 L40.03,7.20 L45.24,6.72 L50.82,6.55 L56.41,6.72 L61.62,7.20 L66.34,7.97 L70.45,8.99 L73.85,10.22 L76.42,11.62 L77.35,12.39 L78.04,13.18 L78.46,14.00 L78.61,14.85 Z" fill="#50e6ff" stroke="#1e1e1e" stroke-width="1" stroke-linejoin="round"/><path d="M50.82,16.94 L43.39,17.18 L36.04,18.25 L28.86,20.16 L36.05,22.02 L43.40,23.04 L50.82,23.21 L58.26,22.99 L65.61,21.89 L72.79,19.93 L65.59,18.12 L58.24,17.12 L50.82,16.94 L50.82,16.94 Z" fill="#198ab3" stroke="#198ab3" stroke-width="1" stroke-linejoin="round"/><path d="M80.47,35.69 L79.94,35.75 L79.63,35.91 L79.12,36.43 L78.60,36.72 L77.71,37.00 L74.20,37.38 L71.91,37.78 L69.95,38.69 L68.25,40.04 L66.73,41.73 L63.93,45.79 L60.99,50.15 L57.33,53.20 L53.21,55.59 L48.74,57.24 L44.05,58.11 L40.95,59.39 L38.10,61.16 L35.57,63.37 L33.43,65.96 L32.45,67.37 L31.06,68.39 L29.42,68.89 L26.42,69.12 L24.56,69.35 L22.52,69.91 L20.56,70.70 L20.86,71.28 L21.40,71.66 L22.81,71.94 L24.14,71.87 L24.73,71.77 L23.31,73.15 L21.80,74.43 L24.61,74.82 L27.44,74.71 L28.34,74.61 L29.21,74.31 L31.06,73.25 L33.29,71.73 L36.20,69.97 L38.12,69.27 L40.41,68.94 L42.91,68.90 L45.44,69.06 L49.95,69.63 L52.57,69.97 L53.22,69.78 L53.91,69.28 L55.29,67.65 L56.47,65.77 L57.20,64.32 L57.14,65.68 L56.67,67.37 L55.06,71.11 L53.36,74.28 L52.57,75.61 L55.36,75.09 L57.95,73.93 L60.19,72.19 L61.95,69.97 L63.07,68.04 L63.66,67.05 L63.98,66.75 L64.53,67.38 L64.89,67.65 L65.17,67.71 L65.91,66.98 L66.58,66.18 L69.28,61.79 L71.44,57.10 L73.02,52.18 L73.30,50.60 L73.79,48.28 L74.22,47.04 L74.84,45.84 L75.68,44.76 L76.80,43.88 L78.83,42.41 L79.99,41.15 L80.52,40.23 L80.64,39.81 L80.64,39.53 L79.46,38.63 L78.44,37.55 L78.35,37.24 L78.44,36.93 L79.57,38.29 L81.15,39.08 L81.15,39.08 L81.30,38.55 L81.51,37.38 L81.36,36.22 L81.03,35.84 L80.47,35.69 Z" fill="#f2f2f2" stroke="#f2f2f2" stroke-width="1" stroke-linejoin="round"/><path d="M73.41,41.68 L73.07,41.68 L72.17,41.64 L71.38,41.22 L72.06,40.22 L73.11,39.62 L74.32,39.53 L74.41,40.37 L74.08,41.15 L73.41,41.68 Z" fill="#0077d2" stroke="#0077d2" stroke-width="1" stroke-linejoin="round"/><path d="M76.57,41.68 L76.57,41.68 L77.41,39.98 L78.44,38.40 L78.44,38.40 L77.35,40.09 L76.46,41.90 L76.57,41.68 Z" fill="#0077d2" stroke="#0077d2" stroke-width="1" stroke-linejoin="round"/><path d="M78.61,38.80 L78.61,38.80 L78.61,38.80 L78.28,40.22 L78.16,41.68 L78.16,41.68 L78.09,40.60 L78.16,39.53 L77.62,40.60 L77.25,41.73 L77.25,41.73 L77.74,40.31 L78.49,39.02 L78.61,38.80 Z" fill="#0077d2" stroke="#0077d2" stroke-width="1" stroke-linejoin="round"/><path d="M68.95,65.05 L67.55,66.47 L66.57,67.63 L66.07,68.56 L66.17,68.91 L66.53,69.29 L67.80,69.99 L69.46,70.42 L71.10,70.36 L69.93,67.74 L68.95,65.05 Z" fill="#f2f2f2" stroke="#f2f2f2" stroke-width="1" stroke-linejoin="round"/></svg>