<svg xmlns="http://www.w3.org/2000/svg" viewBox="0.82 9.69 100.00 82.27"><path d="M76.24,26.09 L71.68,25.94 L67.44,25.52 L63.60,24.86 L60.26,23.98 L57.50,22.91 L55.42,21.68 L54.11,20.32 L53.76,19.60 L53.65,18.86 L53.65,57.20 L53.76,57.93 L54.10,58.63 L55.39,59.96 L57.44,61.17 L60.16,62.23 L63.46,63.11 L67.25,63.78 L71.44,64.21 L75.95,64.38 L76.24,64.38 L80.79,64.23 L85.03,63.81 L88.87,63.15 L92.21,62.27 L94.97,61.21 L97.05,59.99 L98.36,58.65 L98.71,57.94 L98.82,57.20 L98.82,18.86 L98.71,19.60 L98.36,20.32 L97.05,21.68 L94.97,22.91 L92.21,23.98 L88.87,24.86 L85.03,25.52 L80.79,25.94 L76.24,26.09 Z" fill="#0077d2" stroke="#1e1e1e" stroke-width="1" stroke-linejoin="round"/><path d="M98.82,18.86 L98.71,19.60 L98.36,20.32 L97.05,21.68 L94.97,22.91 L92.21,23.98 L88.87,24.86 L85.03,25.52 L80.79,25.94 L76.24,26.09 L71.68,25.94 L67.44,25.52 L63.60,24.86 L60.26,23.98 L57.50,22.91 L55.42,21.68 L54.11,20.32 L53.76,19.60 L53.65,18.86 L53.76,18.12 L54.11,17.40 L55.42,16.05 L57.50,14.83 L60.26,13.77 L63.60,12.90 L67.44,12.25 L71.68,11.83 L76.24,11.69 L80.79,11.84 L85.03,12.25 L88.87,12.92 L92.21,13.79 L94.97,14.85 L97.05,16.07 L98.36,17.42 L98.71,18.13 L98.82,18.86 Z" fill="#e8e8e8" stroke="#1e1e1e" stroke-width="1" stroke-linejoin="round"/><path d="M93.57,18.30 L93.48,18.77 L93.22,19.22 L92.21,20.08 L90.60,20.86 L88.48,21.54 L85.91,22.09 L82.97,22.51 L79.72,22.78 L76.24,22.87 L72.75,22.78 L69.50,22.51 L66.56,22.09 L63.99,21.54 L61.87,20.86 L60.27,20.08 L59.25,19.22 L58.99,18.77 L58.90,18.30 L58.99,17.83 L59.25,17.37 L60.27,16.51 L61.87,15.73 L63.99,15.06 L66.56,14.50 L69.50,14.08 L72.75,13.81 L76.24,13.72 L79.72,13.81 L82.97,14.08 L85.91,14.50 L88.48,15.06 L90.60,15.73 L92.21,16.51 L93.22,17.37 L93.48,17.83 L93.57,18.30 Z" fill="#50e6ff" stroke="#1e1e1e" stroke-width="1" stroke-linejoin="round"/><path d="M76.24,19.37 L71.61,19.50 L67.03,20.07 L62.51,21.06 L67.02,22.15 L71.61,22.75 L76.24,22.87 L80.86,22.75 L85.46,22.15 L89.96,21.06 L85.44,20.07 L80.86,19.50 L76.24,19.37 L76.24,19.37 Z" fill="#32bedd" stroke="#32bedd" stroke-width="1" stroke-linejoin="round"/><path d="M25.41,26.09 L20.86,25.94 L16.62,25.52 L12.78,24.86 L9.44,23.98 L6.68,22.91 L4.60,21.68 L3.28,20.32 L2.94,19.60 L2.82,18.86 L2.82,57.20 L2.94,57.93 L3.28,58.63 L4.57,59.96 L6.64,61.17 L9.37,62.23 L12.71,63.11 L16.55,63.78 L20.81,64.21 L25.41,64.38 L25.41,64.38 L29.97,64.23 L34.21,63.81 L38.04,63.15 L41.39,62.27 L44.14,61.21 L46.23,59.99 L47.54,58.65 L47.88,57.94 L48.00,57.20 L48.00,18.86 L47.88,19.60 L47.54,20.32 L46.23,21.68 L44.14,22.91 L41.39,23.98 L38.04,24.86 L34.21,25.52 L29.97,25.94 L25.41,26.09 Z" fill="#0077d2" stroke="#1e1e1e" stroke-width="1" stroke-linejoin="round"/><path d="M48.00,18.86 L47.88,19.60 L47.54,20.32 L46.23,21.68 L44.14,22.91 L41.39,23.98 L38.04,24.86 L34.21,25.52 L29.97,25.94 L25.41,26.09 L20.86,25.94 L16.62,25.52 L12.78,24.86 L9.44,23.98 L6.68,22.91 L4.60,21.68 L3.28,20.32 L2.94,19.60 L2.82,18.86 L2.94,18.12 L3.28,17.40 L4.60,16.05 L6.68,14.83 L9.44,13.77 L12.78,12.90 L16.62,12.25 L20.86,11.83 L25.41,11.69 L29.97,11.84 L34.21,12.25 L38.04,12.92 L41.39,13.79 L44.14,14.85 L46.23,16.07 L47.54,17.42 L47.88,18.13 L48.00,18.86 Z" fill="#e8e8e8" stroke="#1e1e1e" stroke-width="1" stroke-linejoin="round"/><path d="M42.75,18.30 L42.66,18.77 L42.39,19.22 L41.38,20.08 L39.78,20.86 L37.66,21.54 L35.09,22.09 L32.15,22.51 L28.90,22.78 L25.41,22.87 L21.93,22.78 L18.68,22.51 L15.73,22.09 L13.16,21.54 L11.04,20.86 L9.44,20.08 L8.43,19.22 L8.17,18.77 L8.08,18.30 L8.17,17.83 L8.43,17.37 L9.44,16.51 L11.04,15.73 L13.16,15.06 L15.73,14.50 L18.68,14.08 L21.93,13.81 L25.41,13.72 L28.90,13.81 L32.15,14.08 L35.09,14.50 L37.66,15.06 L39.78,15.73 L41.38,16.51 L42.39,17.37 L42.66,17.83 L42.75,18.30 Z" fill="#50e6ff" stroke="#1e1e1e" stroke-width="1" stroke-linejoin="round"/><path d="M25.41,19.37 L20.79,19.50 L16.20,20.07 L11.69,21.06 L16.19,22.15 L20.78,22.75 L25.41,22.87 L30.04,22.75 L34.63,22.15 L39.13,21.06 L34.62,20.07 L30.03,19.50 L25.41,19.37 L25.41,19.37 Z" fill="#32bedd" stroke="#32bedd" stroke-width="1" stroke-linejoin="round"/><path d="M50.82,51.67 L46.27,51.52 L42.03,51.10 L38.19,50.44 L34.85,49.56 L32.09,48.49 L30.01,47.26 L28.69,45.90 L28.35,45.18 L28.24,44.44 L28.24,82.79 L28.35,83.52 L28.69,84.23 L29.98,85.57 L32.03,86.78 L34.75,87.83 L38.05,88.71 L41.84,89.37 L46.03,89.80 L50.54,89.96 L50.82,89.96 L55.38,89.81 L59.62,89.39 L63.45,88.73 L66.80,87.85 L69.56,86.79 L71.64,85.57 L72.95,84.23 L73.30,83.52 L73.41,82.79 L73.41,44.44 L73.30,45.18 L72.95,45.90 L71.64,47.26 L69.56,48.49 L66.80,49.56 L63.45,50.44 L59.62,51.10 L55.38,51.52 L50.82,51.67 Z" fill="#0077d2" stroke="#1e1e1e" stroke-width="1" stroke-linejoin="round"/><path d="M73.41,44.44 L73.30,45.18 L72.95,45.90 L71.64,47.26 L69.56,48.49 L66.80,49.56 L63.45,50.44 L59.62,51.10 L55.38,51.52 L50.82,51.67 L46.27,51.52 L42.03,51.10 L38.19,50.44 L34.85,49.56 L32.09,48.49 L30.01,47.26 L28.69,45.90 L28.35,45.18 L28.24,44.44 L28.35,43.70 L28.69,42.98 L30.01,41.63 L32.09,40.41 L34.85,39.35 L38.19,38.48 L42.03,37.83 L46.27,37.41 L50.82,37.27 L55.38,37.42 L59.62,37.84 L63.45,38.50 L66.80,39.37 L69.56,40.44 L71.64,41.65 L72.95,43.00 L73.30,43.71 L73.41,44.44 L73.41,44.44 Z" fill="#e8e8e8" stroke="#1e1e1e" stroke-width="1" stroke-linejoin="round"/><path d="M68.16,43.88 L68.07,44.35 L67.81,44.80 L66.79,45.66 L65.19,46.44 L63.07,47.12 L60.50,47.67 L57.56,48.09 L54.31,48.36 L50.82,48.45 L47.34,48.36 L44.09,48.09 L41.14,47.67 L38.58,47.12 L36.46,46.44 L34.85,45.66 L33.84,44.80 L33.58,44.35 L33.49,43.88 L33.58,43.41 L33.84,42.96 L34.85,42.13 L36.46,41.39 L38.58,40.75 L41.14,40.24 L44.09,39.85 L47.34,39.61 L50.82,39.53 L54.31,39.62 L57.56,39.89 L60.50,40.31 L63.07,40.86 L65.19,41.54 L66.79,42.32 L67.81,43.18 L68.07,43.63 L68.16,44.10 L68.16,43.88 Z" fill="#50e6ff" stroke="#1e1e1e" stroke-width="1" stroke-linejoin="round"/><path d="M50.82,45.18 L46.20,45.31 L41.61,45.87 L37.10,46.87 L41.61,47.88 L46.20,48.41 L50.82,48.45 L55.45,48.33 L60.04,47.73 L64.55,46.64 L60.02,45.72 L55.44,45.23 L50.82,45.18 L50.82,45.18 Z" fill="#32bedd" stroke="#32bedd" stroke-width="1" stroke-linejoin="round"/></svg>