<svg xmlns="http://www.w3.org/2000/svg" viewBox="0.67 9.04 94.67 77.92"><path d="M72.00,24.64 L67.70,24.50 L63.69,24.11 L60.07,23.48 L56.91,22.65 L54.31,21.64 L52.34,20.48 L51.10,19.19 L50.78,18.51 L50.67,17.81 L50.67,54.03 L50.77,54.71 L51.09,55.37 L52.32,56.63 L54.25,57.77 L56.82,58.77 L59.93,59.60 L63.51,60.24 L67.47,60.64 L71.73,60.80 L72.00,60.80 L76.30,60.66 L80.31,60.27 L83.93,59.64 L87.09,58.81 L89.69,57.81 L91.66,56.66 L92.90,55.39 L93.22,54.72 L93.33,54.03 L93.33,17.81 L93.22,18.51 L92.90,19.19 L91.66,20.48 L89.69,21.64 L87.09,22.65 L83.93,23.48 L80.31,24.11 L76.30,24.50 L72.00,24.64 Z" fill="#0077d2" stroke="#1e1e1e" stroke-width="1" stroke-linejoin="round"/><path d="M93.33,17.81 L93.22,18.51 L92.90,19.19 L91.66,20.48 L89.69,21.64 L87.09,22.65 L83.93,23.48 L80.31,24.11 L76.30,24.50 L72.00,24.64 L67.70,24.50 L63.69,24.11 L60.07,23.48 L56.91,22.65 L54.31,21.64 L52.34,20.48 L51.10,19.19 L50.78,18.51 L50.67,17.81 L50.78,17.11 L51.10,16.44 L52.34,15.16 L54.31,14.01 L56.91,13.01 L60.07,12.18 L63.69,11.57 L67.70,11.18 L72.00,11.04 L76.30,11.18 L80.31,11.57 L83.93,12.20 L87.09,13.03 L89.69,14.03 L91.66,15.18 L92.90,16.45 L93.22,17.12 L93.33,17.81 Z" fill="#e8e8e8" stroke="#1e1e1e" stroke-width="1" stroke-linejoin="round"/><path d="M88.37,17.28 L88.29,17.72 L88.04,18.15 L87.08,18.97 L85.57,19.70 L83.57,20.34 L81.14,20.87 L78.36,21.26 L75.29,21.51 L72.00,21.60 L68.71,21.51 L65.64,21.26 L62.86,20.87 L60.43,20.34 L58.43,19.70 L56.92,18.97 L55.96,18.15 L55.71,17.72 L55.63,17.28 L55.71,16.84 L55.96,16.41 L56.92,15.59 L58.43,14.86 L60.43,14.22 L62.86,13.69 L65.64,13.30 L68.71,13.05 L72.00,12.96 L75.29,13.05 L78.36,13.30 L81.14,13.69 L83.57,14.22 L85.57,14.86 L87.08,15.59 L88.04,16.41 L88.29,16.84 L88.37,17.28 Z" fill="#50e6ff" stroke="#50e6ff" stroke-width="1" stroke-linejoin="round"/><path d="M72.00,18.29 L67.64,18.42 L63.30,18.95 L59.04,19.89 L63.29,20.92 L67.63,21.49 L72.00,21.60 L76.37,21.49 L80.71,20.92 L84.96,19.89 L80.70,18.95 L76.36,18.42 L72.00,18.29 L72.00,18.29 Z" fill="#32bedd" stroke="#32bedd" stroke-width="1" stroke-linejoin="round"/><path d="M24.00,24.64 L19.70,24.50 L15.69,24.11 L12.07,23.48 L8.91,22.65 L6.31,21.64 L4.34,20.48 L3.10,19.19 L2.78,18.51 L2.67,17.81 L2.67,54.03 L2.77,54.71 L3.09,55.37 L4.32,56.63 L6.27,57.77 L8.85,58.77 L12.00,59.60 L15.63,60.24 L19.65,60.64 L24.00,60.80 L24.00,60.80 L28.30,60.66 L32.31,60.27 L35.93,59.64 L39.09,58.81 L41.69,57.81 L43.66,56.66 L44.90,55.39 L45.22,54.72 L45.33,54.03 L45.33,17.81 L45.22,18.51 L44.90,19.19 L43.66,20.48 L41.69,21.64 L39.09,22.65 L35.93,23.48 L32.31,24.11 L28.30,24.50 L24.00,24.64 Z" fill="#0077d2" stroke="#1e1e1e" stroke-width="1" stroke-linejoin="round"/><path d="M45.33,17.81 L45.22,18.51 L44.90,19.19 L43.66,20.48 L41.69,21.64 L39.09,22.65 L35.93,23.48 L32.31,24.11 L28.30,24.50 L24.00,24.64 L19.70,24.50 L15.69,24.11 L12.07,23.48 L8.91,22.65 L6.31,21.64 L4.34,20.48 L3.10,19.19 L2.78,18.51 L2.67,17.81 L2.78,17.11 L3.10,16.44 L4.34,15.16 L6.31,14.01 L8.91,13.01 L12.07,12.18 L15.69,11.57 L19.70,11.18 L24.00,11.04 L28.30,11.18 L32.31,11.57 L35.93,12.20 L39.09,13.03 L41.69,14.03 L43.66,15.18 L44.90,16.45 L45.22,17.12 L45.33,17.81 Z" fill="#e8e8e8" stroke="#1e1e1e" stroke-width="1" stroke-linejoin="round"/><path d="M40.37,17.28 L40.29,17.72 L40.04,18.15 L39.08,18.97 L37.57,19.70 L35.57,20.34 L33.14,20.87 L30.36,21.26 L27.29,21.51 L24.00,21.60 L20.71,21.51 L17.64,21.26 L14.86,20.87 L12.43,20.34 L10.43,19.70 L8.92,18.97 L7.96,18.15 L7.71,17.72 L7.63,17.28 L7.71,16.84 L7.96,16.41 L8.92,15.59 L10.43,14.86 L12.43,14.22 L14.86,13.69 L17.64,13.30 L20.71,13.05 L24.00,12.96 L27.29,13.05 L30.36,13.30 L33.14,13.69 L35.57,14.22 L37.57,14.86 L39.08,15.59 L40.04,16.41 L40.29,16.84 L40.37,17.28 Z" fill="#50e6ff" stroke="#50e6ff" stroke-width="1" stroke-linejoin="round"/><path d="M24.00,18.29 L19.64,18.42 L15.30,18.95 L11.04,19.89 L15.29,20.92 L19.63,21.49 L24.00,21.60 L28.37,21.49 L32.71,20.92 L36.96,19.89 L32.70,18.95 L28.36,18.42 L24.00,18.29 L24.00,18.29 Z" fill="#32bedd" stroke="#32bedd" stroke-width="1" stroke-linejoin="round"/><path d="M48.00,48.80 L43.70,48.66 L39.69,48.27 L36.07,47.64 L32.91,46.81 L30.31,45.80 L28.34,44.64 L27.10,43.35 L26.78,42.67 L26.67,41.97 L26.67,78.19 L26.77,78.88 L27.09,79.55 L28.32,80.81 L30.25,81.96 L32.82,82.95 L35.93,83.78 L39.51,84.40 L43.47,84.81 L47.73,84.96 L48.00,84.96 L52.30,84.82 L56.31,84.43 L59.93,83.80 L63.09,82.97 L65.69,81.97 L67.66,80.82 L68.90,79.55 L69.22,78.88 L69.33,78.19 L69.33,41.97 L69.22,42.67 L68.90,43.35 L67.66,44.64 L65.69,45.80 L63.09,46.81 L59.93,47.64 L56.31,48.27 L52.30,48.66 L48.00,48.80 Z" fill="#0077d2" stroke="#1e1e1e" stroke-width="1" stroke-linejoin="round"/><path d="M69.33,41.97 L69.22,42.67 L68.90,43.35 L67.66,44.64 L65.69,45.80 L63.09,46.81 L59.93,47.64 L56.31,48.27 L52.30,48.66 L48.00,48.80 L43.70,48.66 L39.69,48.27 L36.07,47.64 L32.91,46.81 L30.31,45.80 L28.34,44.64 L27.10,43.35 L26.78,42.67 L26.67,41.97 L26.78,41.27 L27.10,40.60 L28.34,39.32 L30.31,38.17 L32.91,37.17 L36.07,36.34 L39.69,35.73 L43.70,35.34 L48.00,35.20 L52.30,35.34 L56.31,35.73 L59.93,36.36 L63.09,37.19 L65.69,38.19 L67.66,39.34 L68.90,40.61 L69.22,41.28 L69.33,41.97 Z" fill="#e8e8e8" stroke="#1e1e1e" stroke-width="1" stroke-linejoin="round"/><path d="M64.37,41.44 L64.29,41.88 L64.04,42.31 L63.08,43.13 L61.57,43.86 L59.57,44.50 L57.14,45.03 L54.36,45.42 L51.29,45.67 L48.00,45.76 L44.71,45.67 L41.64,45.42 L38.86,45.03 L36.43,44.50 L34.43,43.86 L32.92,43.13 L31.96,42.31 L31.71,41.88 L31.63,41.44 L31.71,41.00 L31.96,40.57 L32.92,39.79 L34.43,39.09 L36.43,38.49 L38.86,38.00 L41.64,37.64 L44.71,37.41 L48.00,37.33 L51.29,37.42 L54.36,37.67 L57.14,38.07 L59.57,38.59 L61.57,39.23 L63.08,39.97 L64.04,40.78 L64.29,41.21 L64.37,41.65" fill="none" stroke="#50e6ff" stroke-width="1" stroke-linejoin="round"/><path d="M48.00,42.67 L43.64,42.79 L39.30,43.32 L35.04,44.27 L39.30,45.22 L43.64,45.72 L48.00,45.76 L52.37,45.65 L56.71,45.08 L60.96,44.05 L56.69,43.18 L52.36,42.72 L48.00,42.67 L48.00,42.67 Z" fill="#32bedd" stroke="#32bedd" stroke-width="1" stroke-linejoin="round"/></svg>