<svg xmlns="http://www.w3.org/2000/svg" viewBox="0.94 0.88 100.00 99.15"><path d="M50.88,29.12 L43.58,28.86 L36.79,28.12 L30.64,26.93 L25.29,25.36 L22.95,24.43 L20.87,23.43 L19.06,22.35 L17.54,21.20 L16.32,19.98 L15.43,18.71 L14.89,17.38 L14.70,16.00 L14.70,63.38 L14.88,64.71 L15.42,66.00 L16.30,67.25 L17.50,68.45 L19.00,69.59 L20.79,70.67 L22.84,71.68 L25.14,72.61 L30.43,74.21 L36.50,75.43 L43.21,76.21 L50.43,76.49 L50.88,76.49 L58.19,76.24 L64.99,75.49 L71.15,74.31 L76.51,72.73 L78.85,71.81 L80.93,70.81 L82.75,69.73 L84.28,68.58 L85.49,67.36 L86.39,66.08 L86.94,64.76 L87.12,63.38 L87.12,16.00 L86.93,17.34 L86.37,18.64 L85.47,19.90 L84.24,21.10 L82.71,22.25 L80.89,23.33 L78.81,24.34 L76.47,25.27 L71.11,26.87 L64.96,28.08 L58.17,28.85 L50.88,29.12 Z" fill="#0077d2" stroke="#1e1e1e" stroke-width="1" stroke-linejoin="round"/><path d="M87.07,16.00 L86.88,17.34 L86.33,18.64 L85.44,19.90 L84.22,21.10 L82.69,22.25 L80.88,23.33 L78.79,24.34 L76.45,25.27 L71.09,26.87 L64.93,28.08 L58.13,28.85 L50.83,29.12 L43.53,28.86 L36.73,28.12 L30.58,26.93 L25.23,25.36 L22.90,24.43 L20.81,23.43 L19.00,22.35 L17.48,21.20 L16.27,19.98 L15.38,18.71 L14.83,17.38 L14.64,16.00 L14.83,14.62 L15.38,13.29 L16.27,12.02 L17.48,10.80 L19.01,9.65 L20.82,8.57 L22.90,7.57 L25.24,6.64 L30.60,5.07 L36.75,3.88 L43.56,3.14 L50.88,2.88 L58.20,3.14 L65.01,3.88 L71.17,5.07 L76.53,6.64 L78.87,7.57 L80.95,8.57 L82.76,9.65 L84.28,10.80 L85.50,12.02 L86.39,13.29 L86.94,14.62 L87.12,16.00 L87.07,16.00 Z" fill="#eaeaea" stroke="#1e1e1e" stroke-width="1" stroke-linejoin="round"/><path d="M78.64,14.93 L78.50,15.78 L78.08,16.62 L77.39,17.42 L76.46,18.19 L73.90,19.61 L70.50,20.85 L66.39,21.87 L61.66,22.64 L56.44,23.12 L50.83,23.29 L45.22,23.12 L40.00,22.64 L35.29,21.87 L31.18,20.85 L27.80,19.61 L25.24,18.19 L24.31,17.42 L23.63,16.62 L23.21,15.78 L23.07,14.93 L23.21,14.07 L23.63,13.24 L24.32,12.44 L25.25,11.67 L27.81,10.26 L31.21,9.03 L35.32,8.02 L40.05,7.26 L45.27,6.78 L50.88,6.61 L56.49,6.78 L61.72,7.27 L66.44,8.04 L70.56,9.05 L73.95,10.28 L76.52,11.70 L77.45,12.46 L78.14,13.25 L78.56,14.08 L78.70,14.93 L78.64,14.93 Z" fill="#50e6ff" stroke="#1e1e1e" stroke-width="1" stroke-linejoin="round"/><path d="M50.88,16.96 L43.45,17.20 L36.09,18.26 L28.89,20.13 L36.08,22.02 L43.45,23.08 L50.88,23.29 L58.32,23.05 L65.69,21.95 L72.88,20.01 L65.67,18.18 L58.31,17.16 L50.88,16.96 L50.88,16.96 Z" fill="#198ab3" stroke="#198ab3" stroke-width="1" stroke-linejoin="round"/><ellipse cx="76.49" cy="28.78" rx="22.45" ry="22.16" fill="#32bedd" stroke="#1e1e1e" stroke-width="1"/><ellipse cx="76.49" cy="28.72" rx="17.24" ry="17.24" fill="#ffffff" stroke="#1e1e1e" stroke-width="1"/><path d="M76.49,30.36 L76.49,30.36 L75.71,30.13 L75.14,29.56 L74.91,28.78 L74.91,16.00 L75.48,15.04 L76.52,14.66 L77.57,15.04 L78.13,16.00 L78.13,28.78 L77.90,29.57 L77.30,30.15 L76.49,30.36 Z" fill="#9f9f9f" stroke="#9f9f9f" stroke-width="1" stroke-linejoin="round"/><path d="M84.13,36.35 L83.80,36.60 L83.42,36.76 L83.01,36.81 L82.60,36.76 L82.22,36.60 L81.89,36.35 L76.09,30.55 L75.84,30.22 L75.68,29.84 L75.63,29.43 L75.68,29.02 L75.84,28.64 L76.09,28.31 L76.09,28.31 L76.42,28.06 L76.80,27.90 L77.21,27.85 L77.62,27.90 L78.00,28.06 L78.33,28.31 L84.13,34.11 L84.38,34.44 L84.54,34.82 L84.59,35.23 L84.54,35.64 L84.38,36.02 L84.13,36.35 L84.13,36.35 Z" fill="#9f9f9f" stroke="#9f9f9f" stroke-width="1" stroke-linejoin="round"/><ellipse cx="76.49" cy="28.72" rx="3.34" ry="3.34" fill="#5e5e5e" stroke="#5e5e5e" stroke-width="1"/><path d="M65.92,83.67 L52.01,97.58 L51.28,98.03 L50.43,98.03 L49.70,97.58 L35.79,83.67 L35.58,83.16 L35.79,82.65 L36.30,82.43 L44.83,82.43 L45.35,82.22 L45.57,81.70 L45.57,64.28 L45.77,63.88 L46.19,63.72 L55.52,63.72 L55.92,63.88 L56.08,64.28 L56.08,81.70 L56.32,82.24 L56.88,82.43 L65.41,82.43 L65.92,82.65 L66.13,83.16 L65.92,83.67 Z" fill="#50e6ff" stroke="#1e1e1e" stroke-width="1" stroke-linejoin="round"/><path d="M24.25,85.99 L4.58,85.99 L3.76,85.77 L3.16,85.17 L2.94,84.35 L2.94,64.68 L3.16,64.17 L3.67,63.96 L4.18,64.17 L9.84,69.82 L10.18,70.22 L10.71,70.43 L11.25,70.22 L23.52,57.89 L23.94,57.73 L24.37,57.89 L30.98,64.51 L31.15,64.93 L30.98,65.36 L18.77,77.63 L18.51,78.16 L18.77,78.70 L19.11,79.10 L24.76,84.75 L24.97,85.26 L24.76,85.77 L24.25,85.99 Z" fill="#50e6ff" stroke="#1e1e1e" stroke-width="1" stroke-linejoin="round"/><path d="M76.89,84.81 L82.54,79.15 L82.88,78.76 L83.09,78.22 L82.88,77.68 L70.67,65.36 L70.50,64.93 L70.67,64.51 L77.29,57.89 L77.68,57.73 L78.08,57.89 L90.46,70.22 L90.97,70.42 L91.48,70.22 L91.87,69.82 L97.53,64.17 L98.06,63.90 L98.62,64.12 L98.83,64.68 L98.83,84.35 L98.60,85.19 L97.97,85.79 L97.13,85.99 L77.40,85.99 L76.79,85.55 L76.89,84.81 Z" fill="#50e6ff" stroke="#1e1e1e" stroke-width="1" stroke-linejoin="round"/></svg>