<svg xmlns="http://www.w3.org/2000/svg" viewBox="0.67 1.25 94.67 93.49"><path d="M76.37,68.05 L75.94,69.55 L74.83,70.66 L73.33,71.09 L27.04,71.09 L25.52,70.69 L24.41,69.57 L24.00,68.05 L24.00,6.29 L24.36,4.78 L25.44,3.66 L26.93,3.25 L73.33,3.25 L74.85,3.66 L75.97,4.77 L76.37,6.29 L76.37,68.05 Z" fill="#777777" stroke="#1e1e1e" stroke-width="1" stroke-linejoin="round"/><path d="M65.71,78.72 L65.27,80.22 L64.17,81.32 L62.67,81.76 L16.37,81.76 L14.85,81.35 L13.74,80.24 L13.33,78.72 L13.33,16.96 L13.69,15.45 L14.77,14.33 L16.27,13.92 L62.67,13.92 L64.19,14.33 L65.30,15.44 L65.71,16.96 L65.71,78.72 Z" fill="#999999" stroke="#1e1e1e" stroke-width="1" stroke-linejoin="round"/><path d="M55.04,89.39 L54.60,90.89 L53.50,91.99 L52.00,92.43 L5.71,92.43 L4.20,92.00 L3.09,90.90 L2.67,89.39 L2.67,27.63 L3.02,26.11 L4.10,25.00 L5.60,24.59 L52.00,24.59 L53.52,24.99 L54.63,26.11 L55.04,27.63 L55.04,89.39 Z" fill="#a1a1a1" stroke="#1e1e1e" stroke-width="1" stroke-linejoin="round"/><path d="M10.35,38.99 L10.61,37.23 L11.41,35.64 L12.66,34.37 L14.24,33.56 L16.00,33.28 L42.13,33.28 L44.28,33.63 L46.14,34.76 L47.45,36.51 L48.00,38.61 L48.00,38.61 L48.00,38.61 L47.79,40.46 L47.00,42.14 L45.71,43.48 L44.07,44.34 L42.24,44.64 L16.00,44.64 L13.85,44.18 L12.03,42.95 L10.80,41.13 L10.35,38.99 L10.35,38.99 Z" fill="#003067" stroke="#1e1e1e" stroke-width="1" stroke-linejoin="round"/><ellipse cx="16.32" cy="38.99" rx="3.84" ry="3.84" fill="#50e6ff" stroke="#50e6ff" stroke-width="1"/><path d="M93.33,75.09 L92.86,71.53 L91.69,68.14 L89.87,65.05 L87.46,62.38 L84.57,60.25 L81.31,58.75 L77.81,57.92 L77.18,53.61 L75.72,49.50 L73.49,45.75 L70.59,42.50 L67.10,39.87 L63.18,37.97 L58.96,36.86 L54.61,36.59 L50.57,36.84 L46.64,37.80 L42.94,39.43 L39.58,41.68 L36.67,44.49 L34.30,47.77 L32.53,51.41 L28.83,52.20 L25.33,53.62 L22.13,55.64 L19.34,58.20 L17.04,61.21 L15.32,64.57 L14.21,68.19 L13.76,71.95 L14.34,76.14 L15.72,80.15 L17.86,83.80 L20.66,86.97 L24.03,89.54 L27.84,91.40 L31.93,92.48 L36.16,92.75 L75.57,92.75 L79.01,92.37 L82.31,91.34 L85.35,89.70 L88.02,87.51 L90.22,84.85 L91.88,81.82 L92.93,78.52 L93.33,75.09 L93.33,75.09 Z" fill="#3990e4" stroke="#1e1e1e" stroke-width="1" stroke-linejoin="round"/><path d="M72.59,77.07 L72.59,59.15 L67.63,59.15 L67.63,81.12 L80.69,81.12 L80.69,77.07 L72.59,77.07 Z" fill="#f2f2f2" stroke="#f2f2f2" stroke-width="1" stroke-linejoin="round"/><path d="M34.72,68.27 L33.31,67.52 L32.00,66.61 L31.52,65.82 L31.36,64.91 L31.53,63.99 L32.16,63.31 L33.22,62.79 L34.40,62.67 L36.27,62.80 L38.08,63.33 L39.73,64.21 L39.73,59.63 L37.10,58.99 L34.40,58.83 L32.34,58.96 L30.37,59.56 L28.59,60.59 L27.37,61.91 L26.61,63.55 L26.40,65.33 L26.86,67.44 L27.92,69.31 L29.48,70.79 L31.41,71.73 L33.11,72.58 L34.67,73.65 L35.25,74.42 L35.47,75.36 L35.29,76.27 L34.67,76.96 L33.52,77.46 L32.27,77.60 L30.24,77.31 L28.33,76.55 L26.67,75.36 L26.67,80.27 L29.26,81.18 L32.00,81.49 L34.13,81.43 L36.21,80.92 L38.13,80.00 L39.43,78.67 L40.22,76.99 L40.43,75.15 L40.12,73.15 L39.09,71.41 L37.08,69.59 L34.72,68.27 L34.72,68.27 Z" fill="#f2f2f2" stroke="#f2f2f2" stroke-width="1" stroke-linejoin="round"/><path d="M62.24,76.69 L63.25,74.58 L63.84,72.31 L64.00,69.97 L63.72,66.90 L62.67,64.00 L61.13,61.75 L58.99,60.05 L57.21,59.22 L55.30,58.75 L53.33,58.67 L50.57,59.10 L48.00,60.21 L45.76,61.98 L44.11,64.32 L43.02,67.27 L42.67,70.40 L42.97,73.28 L43.95,76.00 L45.49,78.22 L47.57,79.95 L50.14,81.06 L52.91,81.49 L57.44,86.83 L64.00,86.83 L57.65,80.96 L59.48,79.89 L61.04,78.44 L62.24,76.69 L62.24,76.69 Z" fill="#f2f2f2" stroke="#f2f2f2" stroke-width="1" stroke-linejoin="round"/><path d="M57.28,75.36 L56.15,76.40 L54.75,77.04 L53.23,77.23 L51.71,77.02 L50.33,76.36 L49.23,75.31 L48.31,73.66 L47.80,71.85 L47.73,69.97 L47.80,68.08 L48.32,66.27 L49.28,64.64 L50.41,63.55 L51.83,62.87 L53.39,62.67 L54.90,62.87 L56.26,63.55 L57.33,64.64 L58.26,66.28 L58.76,68.09 L58.83,69.97 L58.76,71.88 L58.23,73.71 L57.28,75.36 Z" fill="#3990e4" stroke="#3990e4" stroke-width="1" stroke-linejoin="round"/></svg>