<svg xmlns="http://www.w3.org/2000/svg" viewBox="0.82 1.44 100.00 98.76"><path d="M80.87,72.06 L80.40,73.64 L79.23,74.81 L77.65,75.28 L28.63,75.28 L27.02,74.84 L25.84,73.67 L25.41,72.06 L25.41,6.66 L25.79,5.06 L26.93,3.88 L28.52,3.44 L77.65,3.44 L79.26,3.88 L80.43,5.05 L80.87,6.66 L80.87,72.06 Z" fill="#777777" stroke="#1e1e1e" stroke-width="1" stroke-linejoin="round"/><path d="M69.57,83.35 L69.11,84.94 L67.94,86.11 L66.35,86.57 L17.34,86.57 L15.73,86.14 L14.55,84.96 L14.12,83.35 L14.12,17.96 L14.50,16.36 L15.64,15.17 L17.22,14.74 L66.35,14.74 L67.96,15.17 L69.14,16.35 L69.57,17.96 L69.57,83.35 Z" fill="#999999" stroke="#1e1e1e" stroke-width="1" stroke-linejoin="round"/><path d="M58.28,94.64 L57.81,96.23 L56.65,97.40 L55.06,97.86 L6.04,97.86 L4.44,97.42 L3.27,96.24 L2.82,94.64 L2.82,29.25 L3.20,27.65 L4.34,26.47 L5.93,26.03 L55.06,26.03 L56.67,26.46 L57.85,27.64 L58.28,29.25 L58.28,94.64 Z" fill="#a1a1a1" stroke="#1e1e1e" stroke-width="1" stroke-linejoin="round"/><path d="M10.96,41.28 L11.23,39.42 L12.08,37.73 L13.40,36.39 L15.08,35.53 L16.94,35.24 L44.61,35.24 L46.89,35.61 L48.86,36.81 L50.24,38.65 L50.82,40.88 L50.82,40.88 L50.82,40.88 L50.60,42.84 L49.76,44.62 L48.40,46.04 L46.66,46.95 L44.72,47.27 L16.94,47.27 L14.67,46.78 L12.74,45.48 L11.44,43.55 L10.96,41.28 L10.96,41.28 Z" fill="#003067" stroke="#1e1e1e" stroke-width="1" stroke-linejoin="round"/><ellipse cx="17.28" cy="41.28" rx="4.07" ry="4.07" fill="#50e6ff" stroke="#50e6ff" stroke-width="1"/><path d="M98.82,79.51 L98.33,75.74 L97.09,72.15 L95.15,68.87 L92.60,66.05 L89.54,63.80 L86.09,62.20 L82.39,61.33 L81.72,56.76 L80.17,52.41 L77.82,48.44 L74.74,45.00 L71.05,42.22 L66.90,40.20 L62.43,39.03 L57.83,38.74 L53.55,39.01 L49.39,40.02 L45.47,41.75 L41.91,44.14 L38.83,47.11 L36.31,50.58 L34.45,54.44 L30.53,55.27 L26.82,56.78 L23.43,58.92 L20.48,61.62 L18.05,64.81 L16.22,68.37 L15.05,72.20 L14.57,76.18 L15.18,80.62 L16.65,84.86 L18.91,88.73 L21.88,92.09 L25.45,94.81 L29.48,96.77 L33.81,97.92 L38.29,98.20 L80.02,98.20 L83.65,97.80 L87.15,96.71 L90.37,94.97 L93.20,92.65 L95.53,89.84 L97.29,86.63 L98.40,83.14 L98.82,79.51 L98.82,79.51 Z" fill="#3990e4" stroke="#1e1e1e" stroke-width="1" stroke-linejoin="round"/><path d="M76.86,81.60 L76.86,62.63 L71.60,62.63 L71.60,85.89 L85.44,85.89 L85.44,81.60 L76.86,81.60 Z" fill="#f2f2f2" stroke="#f2f2f2" stroke-width="1" stroke-linejoin="round"/><path d="M36.76,72.28 L35.27,71.49 L33.88,70.53 L33.37,69.69 L33.20,68.72 L33.39,67.76 L34.05,67.03 L35.18,66.48 L36.42,66.35 L38.41,66.50 L40.32,67.05 L42.07,67.99 L42.07,63.13 L39.29,62.46 L36.42,62.29 L34.25,62.43 L32.16,63.06 L30.27,64.15 L28.97,65.55 L28.18,67.28 L27.95,69.18 L28.44,71.40 L29.56,73.39 L31.22,74.95 L33.26,75.95 L35.06,76.85 L36.71,77.99 L37.33,78.80 L37.55,79.79 L37.36,80.76 L36.71,81.49 L35.49,82.02 L34.16,82.16 L32.02,81.86 L30.00,81.05 L28.24,79.79 L28.24,84.99 L30.98,85.96 L33.88,86.29 L36.14,86.22 L38.34,85.68 L40.38,84.71 L41.75,83.30 L42.59,81.52 L42.80,79.57 L42.48,77.45 L41.39,75.61 L39.27,73.69 L36.76,72.28 L36.76,72.28 Z" fill="#f2f2f2" stroke="#f2f2f2" stroke-width="1" stroke-linejoin="round"/><path d="M65.90,81.20 L66.97,78.97 L67.60,76.56 L67.76,74.09 L67.47,70.84 L66.35,67.76 L64.72,65.38 L62.46,63.59 L60.57,62.71 L58.55,62.21 L56.47,62.12 L53.54,62.58 L50.82,63.76 L48.45,65.63 L46.70,68.10 L45.55,71.23 L45.18,74.54 L45.50,77.59 L46.53,80.47 L48.16,82.82 L50.37,84.65 L53.09,85.83 L56.02,86.29 L60.82,91.93 L67.76,91.93 L61.04,85.72 L62.98,84.59 L64.63,83.06 L65.90,81.20 Z" fill="#f2f2f2" stroke="#f2f2f2" stroke-width="1" stroke-linejoin="round"/><path d="M60.65,79.79 L59.45,80.89 L57.97,81.57 L56.36,81.77 L54.75,81.55 L53.30,80.85 L52.12,79.74 L51.15,78.00 L50.62,76.08 L50.54,74.09 L50.61,72.09 L51.17,70.17 L52.18,68.44 L53.38,67.29 L54.88,66.57 L56.53,66.35 L58.13,66.57 L59.57,67.29 L60.71,68.44 L61.68,70.18 L62.22,72.10 L62.29,74.09 L62.21,76.11 L61.66,78.05 L60.65,79.79 Z" fill="#3990e4" stroke="#3990e4" stroke-width="1" stroke-linejoin="round"/></svg>