<svg xmlns="http://www.w3.org/2000/svg" viewBox="0.42 3.64 100.00 94.19"><path d="M36.47,29.88 L29.68,29.62 L23.34,28.89 L17.60,27.75 L12.58,26.24 L8.45,24.43 L6.75,23.42 L5.32,22.36 L4.18,21.25 L3.34,20.10 L2.82,18.91 L2.65,17.70 L2.65,82.47 L2.82,83.70 L3.32,84.90 L4.14,86.06 L5.25,87.17 L6.65,88.23 L8.31,89.23 L12.35,91.03 L17.26,92.52 L22.89,93.66 L29.11,94.38 L35.80,94.65 L36.30,94.65 L43.08,94.39 L49.41,93.66 L55.15,92.52 L60.17,91.01 L64.31,89.20 L66.02,88.19 L67.45,87.13 L68.59,86.02 L69.43,84.87 L69.95,83.69 L70.13,82.47 L70.13,17.70 L69.94,18.94 L69.42,20.15 L68.59,21.32 L67.45,22.43 L66.03,23.50 L64.34,24.50 L60.23,26.30 L55.26,27.79 L49.55,28.92 L43.24,29.63 L36.47,29.88 Z" fill="#0077d2" stroke="#1e1e1e" stroke-width="1" stroke-linejoin="round"/><path d="M70.07,17.70 L69.90,18.94 L69.39,20.15 L68.56,21.32 L67.42,22.43 L66.01,23.50 L64.32,24.50 L60.20,26.30 L55.20,27.79 L49.45,28.92 L43.09,29.63 L36.25,29.88 L29.40,29.62 L23.04,28.89 L17.30,27.75 L12.30,26.24 L8.18,24.43 L6.49,23.42 L5.07,22.36 L3.94,21.25 L3.11,20.10 L2.60,18.91 L2.42,17.70 L2.60,16.49 L3.12,15.30 L3.97,14.16 L5.13,13.06 L6.57,12.01 L8.29,11.01 L12.47,9.22 L17.52,7.73 L23.30,6.60 L29.67,5.89 L36.47,5.64 L43.27,5.89 L49.60,6.62 L55.35,7.77 L60.36,9.28 L64.50,11.10 L66.20,12.11 L67.63,13.18 L68.77,14.29 L69.60,15.45 L70.12,16.65 L70.29,17.87 L70.07,17.70 Z" fill="#eaeaea" stroke="#1e1e1e" stroke-width="1" stroke-linejoin="round"/><path d="M62.01,16.91 L61.88,17.70 L61.50,18.47 L60.87,19.21 L60.02,19.93 L57.68,21.24 L54.56,22.38 L50.76,23.32 L46.38,24.03 L41.51,24.48 L36.25,24.63 L30.99,24.47 L26.14,24.00 L21.78,23.26 L18.02,22.29 L14.93,21.14 L12.62,19.83 L11.77,19.13 L11.16,18.41 L10.78,17.67 L10.65,16.91 L10.79,16.15 L11.18,15.40 L11.81,14.67 L12.68,13.96 L15.06,12.61 L18.21,11.42 L22.04,10.41 L26.42,9.63 L31.27,9.14 L36.47,8.96 L41.66,9.12 L46.48,9.57 L50.82,10.29 L54.59,11.25 L57.69,12.41 L60.02,13.77 L60.87,14.50 L61.50,15.28 L61.88,16.08 L62.01,16.91 Z" fill="#50e6ff" stroke="#1e1e1e" stroke-width="1" stroke-linejoin="round"/><path d="M36.47,18.49 L29.56,18.70 L22.71,19.68 L16.01,21.42 L22.70,23.19 L29.55,24.19 L36.47,24.41 L43.37,24.18 L50.20,23.18 L56.88,21.42 L50.20,19.69 L43.37,18.71 L36.47,18.49 L36.47,18.49 Z" fill="#198ab3" stroke="#198ab3" stroke-width="1" stroke-linejoin="round"/><path d="M94.42,71.82 L91.91,69.89 L89.08,68.48 L86.02,67.65 L85.53,64.12 L84.36,60.77 L82.56,57.70 L80.20,55.04 L77.37,52.88 L74.18,51.32 L70.74,50.40 L67.19,50.17 L63.34,50.49 L59.64,51.59 L56.23,53.42 L53.27,55.91 L50.88,58.94 L49.16,62.40 L45.73,63.14 L42.53,64.56 L39.68,66.59 L37.29,69.16 L35.48,72.15 L34.30,75.45 L33.82,78.92 L34.41,82.80 L35.84,86.46 L38.05,89.70 L40.92,92.38 L44.31,94.35 L48.06,95.52 L51.97,95.83 L53.61,95.83 L83.09,95.83 L83.82,95.83 L87.00,95.46 L90.03,94.41 L92.75,92.73 L95.05,90.51 L96.81,87.84 L97.95,84.85 L98.42,81.68 L98.12,78.96 L97.29,76.35 L95.97,73.96 L94.20,71.87 L94.42,71.82 Z" fill="#30d0f2" stroke="#1e1e1e" stroke-width="1" stroke-linejoin="round"/><path d="M80.61,89.07 L75.31,89.07 L75.31,74.80 L75.31,69.73 L75.31,69.73 L75.22,70.72 L75.01,71.58 L74.58,72.89 L68.94,89.07 L64.54,89.07 L58.91,73.00 L58.49,71.38 L58.17,69.73 L58.17,69.73 L58.17,75.88 L58.17,89.07 L53.44,89.07 L53.44,65.22 L61.33,65.22 L66.18,79.37 L66.68,81.04 L67.03,82.75 L67.03,82.75 L67.93,79.31 L72.83,65.22 L80.61,65.22 L80.61,89.07 Z" fill="#ffffff" stroke="#1e1e1e" stroke-width="1" stroke-linejoin="round"/></svg>