<svg xmlns="http://www.w3.org/2000/svg" viewBox="-0.19 -0.63 99.22 100.00"><path d="M29.98,21.86 L32.53,17.12 L62.43,33.21 L59.89,37.95 L29.98,21.86 Z" fill="#003067" stroke="#1e1e1e" stroke-width="1" stroke-linejoin="round"/><path d="M38.89,23.07 L38.89,8.24 L1.81,8.24 L1.81,23.07 L1.81,23.07 L1.81,23.07 L1.91,23.79 L2.19,24.50 L3.27,25.84 L4.98,27.05 L7.24,28.11 L9.99,28.98 L13.14,29.64 L16.62,30.06 L20.35,30.21 L24.09,30.06 L27.57,29.65 L30.72,28.99 L33.46,28.12 L35.73,27.06 L37.44,25.85 L38.52,24.51 L38.80,23.80 L38.89,23.07 L38.89,23.07 Z" fill="#2f8ce2" stroke="#1e1e1e" stroke-width="1" stroke-linejoin="round"/><ellipse cx="20.36" cy="8.49" rx="18.54" ry="7.12" fill="#83b9f9" stroke="#1e1e1e" stroke-width="1"/><path d="M88.50,47.32 L88.50,32.49 L51.43,32.49 L51.43,47.32 L51.43,47.32 L51.43,47.32 L51.53,48.05 L51.81,48.75 L52.89,50.09 L54.60,51.31 L56.86,52.36 L59.61,53.24 L62.76,53.90 L66.24,54.31 L69.97,54.46 L73.71,54.31 L77.19,53.90 L80.34,53.24 L83.09,52.37 L85.35,51.32 L87.06,50.10 L88.14,48.76 L88.42,48.05 L88.51,47.32 L88.50,47.32 Z" fill="#2f8ce2" stroke="#1e1e1e" stroke-width="1" stroke-linejoin="round"/><ellipse cx="69.97" cy="32.73" rx="18.54" ry="7.12" fill="#83b9f9" stroke="#1e1e1e" stroke-width="1"/><rect x="17.68" y="22.89" width="5.38" height="43.73" fill="#003067" stroke="#003067" stroke-width="1"/><ellipse cx="20.60" cy="18.33" rx="6.35" ry="6.35" fill="#c3f1ff" stroke="#c3f1ff" stroke-width="1"/><path d="M38.89,70.43 L38.89,55.60 L1.81,55.60 L1.81,70.43 L1.81,70.43 L1.81,70.43 L1.91,71.16 L2.19,71.87 L3.27,73.20 L4.98,74.42 L7.24,75.47 L9.99,76.35 L13.14,77.01 L16.62,77.42 L20.35,77.57 L24.09,77.42 L27.57,77.01 L30.72,76.35 L33.46,75.48 L35.73,74.43 L37.44,73.21 L38.52,71.87 L38.80,71.16 L38.89,70.43 L38.89,70.43 Z" fill="#2f8ce2" stroke="#1e1e1e" stroke-width="1" stroke-linejoin="round"/><ellipse cx="20.36" cy="55.84" rx="18.54" ry="7.12" fill="#83b9f9" stroke="#1e1e1e" stroke-width="1"/><path d="M21.91,62.39 L69.94,38.82 L72.31,43.65 L24.28,67.22 L21.91,62.39 Z" fill="#003067" stroke="#1e1e1e" stroke-width="1" stroke-linejoin="round"/><ellipse cx="20.33" cy="65.57" rx="6.35" ry="6.35" fill="#c3f1ff" stroke="#c3f1ff" stroke-width="1"/><ellipse cx="69.98" cy="41.45" rx="6.35" ry="6.35" fill="#c3f1ff" stroke="#c3f1ff" stroke-width="1"/><path d="M94.28,85.13 L94.28,85.13 L94.11,84.56 L93.73,84.11 L89.71,80.38 L85.47,76.89 L82.21,74.86 L78.61,73.51 L74.82,72.88 L70.98,73.01 L66.73,74.16 L62.69,75.91 L58.94,78.22 L55.57,81.06 L52.65,84.36 L52.42,84.71 L52.33,85.13 L52.33,85.13 L52.33,85.13 L52.33,85.13 L52.49,85.70 L52.88,86.15 L56.91,89.88 L61.15,93.37 L64.42,95.40 L68.01,96.75 L71.80,97.37 L75.64,97.25 L79.89,96.10 L83.93,94.35 L87.68,92.03 L91.05,89.20 L93.97,85.90 L94.20,85.54 L94.30,85.13 L94.30,85.13 L94.28,85.13 Z" fill="#003067" stroke="#1e1e1e" stroke-width="1" stroke-linejoin="round"/><ellipse cx="73.49" cy="85.13" rx="10.14" ry="10.14" fill="#c3f1ff" stroke="#1e1e1e" stroke-width="1"/><path d="M73.53,79.51 L73.13,79.58 L72.74,79.67 L73.13,80.43 L73.29,81.28 L72.88,82.81 L71.75,83.93 L70.22,84.34 L69.14,84.13 L68.20,83.54 L67.97,84.35 L67.86,85.19 L68.29,87.37 L69.53,89.23 L71.37,90.46 L73.56,90.90 L75.74,90.47 L77.59,89.23 L78.83,87.38 L79.26,85.20 L78.83,83.02 L77.59,81.17 L75.74,79.93 L73.56,79.50 L73.53,79.51 Z" fill="#003067" stroke="#003067" stroke-width="1" stroke-linejoin="round"/><path d="M96.27,73.99 L93.01,71.33 L89.46,69.06 L85.68,67.23 L88.08,62.97 L88.38,62.06 L88.32,61.10 L87.57,59.91 L86.30,59.34 L84.92,59.56 L83.89,60.52 L80.95,65.74 L78.46,65.25 L75.93,64.96 L75.93,59.60 L75.57,58.44 L74.69,57.60 L73.51,57.29 L72.33,57.60 L71.45,58.44 L71.08,59.60 L71.08,64.95 L68.50,65.25 L65.95,65.74 L63.01,60.52 L62.12,59.64 L60.92,59.33 L59.71,59.65 L58.85,60.54 L58.54,61.74 L58.84,62.94 L61.24,67.21 L57.45,69.04 L53.90,71.30 L50.64,73.97 L50.02,74.80 L49.87,75.68 L50.09,76.52 L50.61,77.24 L51.34,77.77 L52.22,78.02 L53.15,77.93 L54.06,77.39 L57.79,74.46 L61.95,72.19 L66.43,70.64 L71.10,69.85 L75.84,69.85 L80.51,70.64 L84.99,72.19 L89.15,74.46 L92.88,77.39 L93.77,77.94 L94.69,78.05 L95.56,77.80 L96.30,77.27 L96.81,76.54 L97.04,75.70 L96.88,74.82 L96.27,73.99 Z" fill="#003067" stroke="#1e1e1e" stroke-width="1" stroke-linejoin="round"/></svg>