<svg xmlns="http://www.w3.org/2000/svg" viewBox="-1.94 -1.99 99.87 100.38"><path d="M63.25,79.89 L56.66,79.74 L50.52,79.33 L44.97,78.68 L40.13,77.81 L36.14,76.76 L33.13,75.56 L32.03,74.91 L31.22,74.23 L30.73,73.52 L30.56,72.80 L30.56,89.30 L30.73,90.03 L31.22,90.73 L32.03,91.41 L33.13,92.06 L36.14,93.26 L40.13,94.31 L44.97,95.18 L50.52,95.83 L56.66,96.25 L63.25,96.39 L69.84,96.25 L75.97,95.83 L81.52,95.18 L86.36,94.31 L90.35,93.26 L93.37,92.06 L94.47,91.41 L95.27,90.73 L95.77,90.03 L95.94,89.30 L95.94,72.80 L95.77,73.52 L95.27,74.23 L94.47,74.91 L93.37,75.56 L90.35,76.76 L86.36,77.81 L81.52,78.68 L75.97,79.33 L69.84,79.74 L63.25,79.89 L63.25,79.89 Z" fill="#db897d" stroke="#db897d" stroke-width="1" stroke-linejoin="round"/><path d="M90.75,83.25 L86.99,84.39 L83.15,85.25 L78.51,85.88 L73.82,86.10 L73.82,86.10 L73.29,85.99 L72.86,85.70 L72.57,85.27 L72.46,84.74 L72.57,84.21 L72.86,83.77 L73.29,83.48 L73.82,83.38 L78.26,83.17 L82.66,82.57 L86.30,81.76 L89.86,80.68 L90.40,80.60 L90.90,80.74 L91.32,81.05 L91.60,81.52 L91.67,82.06 L91.54,82.56 L91.22,82.98 L90.76,83.25 L90.75,83.25 Z" fill="#ffffff" stroke="#ffffff" stroke-width="1" stroke-linejoin="round"/><path d="M63.25,58.67 L56.66,58.52 L50.52,58.11 L44.97,57.46 L40.13,56.59 L36.14,55.54 L33.13,54.34 L32.03,53.69 L31.22,53.01 L30.73,52.30 L30.56,51.58 L30.56,68.95 L30.73,69.68 L31.22,70.38 L32.03,71.06 L33.13,71.71 L36.14,72.92 L40.13,73.96 L44.97,74.83 L50.52,75.48 L56.66,75.89 L63.25,76.04 L69.84,75.89 L75.97,75.48 L81.52,74.83 L86.36,73.96 L90.35,72.91 L93.37,71.71 L94.47,71.06 L95.27,70.38 L95.77,69.67 L95.94,68.95 L95.94,51.57 L95.77,52.30 L95.27,53.00 L94.47,53.68 L93.37,54.33 L90.35,55.54 L86.36,56.59 L81.52,57.45 L75.97,58.10 L69.84,58.52 L63.25,58.66 L63.25,58.67 Z" fill="#db897d" stroke="#db897d" stroke-width="1" stroke-linejoin="round"/><path d="M90.75,62.60 L86.99,63.74 L83.15,64.60 L78.51,65.24 L73.82,65.45 L73.82,65.45 L73.29,65.34 L72.86,65.05 L72.57,64.62 L72.46,64.09 L72.57,63.56 L72.86,63.13 L73.29,62.84 L73.82,62.73 L78.26,62.53 L82.66,61.93 L86.30,61.11 L89.86,60.03 L90.40,59.96 L90.90,60.09 L91.32,60.41 L91.60,60.87 L91.67,61.41 L91.54,61.92 L91.23,62.33 L90.76,62.61 L90.75,62.60 Z" fill="#ffffff" stroke="#ffffff" stroke-width="1" stroke-linejoin="round"/><path d="M63.25,24.82 L56.66,24.96 L50.52,25.39 L44.97,26.08 L40.13,27.03 L36.14,28.23 L34.51,28.91 L33.13,29.65 L32.03,30.45 L31.22,31.29 L30.73,32.19 L30.56,33.14 L30.56,47.74 L30.73,48.46 L31.22,49.17 L32.03,49.85 L33.13,50.50 L36.14,51.70 L40.13,52.75 L44.97,53.61 L50.52,54.27 L56.66,54.68 L63.25,54.82 L69.84,54.68 L75.97,54.26 L81.52,53.61 L86.36,52.75 L90.35,51.70 L93.37,50.49 L94.47,49.84 L95.27,49.16 L95.77,48.46 L95.94,47.73 L95.94,33.67 L95.77,32.63 L95.27,31.65 L94.47,30.73 L93.37,29.87 L91.99,29.08 L90.35,28.35 L86.36,27.09 L81.52,26.10 L75.97,25.39 L69.84,24.96 L63.25,24.81 L63.25,24.82 Z" fill="#db897d" stroke="#db897d" stroke-width="1" stroke-linejoin="round"/><path d="M90.75,42.55 L86.99,43.69 L83.15,44.55 L78.51,45.18 L73.82,45.40 L73.82,45.40 L73.29,45.29 L72.86,45.00 L72.57,44.57 L72.46,44.04 L72.57,43.51 L72.86,43.08 L73.29,42.78 L73.82,42.68 L78.26,42.47 L82.66,41.87 L86.30,41.06 L89.86,39.98 L90.40,39.91 L90.90,40.04 L91.32,40.35 L91.60,40.82 L91.67,41.36 L91.54,41.86 L91.22,42.28 L90.76,42.55 L90.75,42.55 Z" fill="#ffffff" stroke="#ffffff" stroke-width="1" stroke-linejoin="round"/><path d="M63.25,37.72 L57.31,37.59 L51.79,37.23 L46.79,36.69 L42.43,36.02 L38.84,35.27 L36.12,34.48 L34.41,33.71 L33.96,33.35 L33.81,33.01 L33.96,32.59 L34.41,32.15 L36.12,31.24 L38.84,30.33 L42.43,29.46 L46.79,28.69 L51.79,28.08 L57.31,27.67 L63.25,27.53 L69.18,27.68 L74.71,28.10 L79.71,28.73 L84.07,29.51 L87.66,30.38 L90.37,31.30 L92.09,32.19 L92.54,32.61 L92.69,33.01 L92.54,33.36 L92.09,33.74 L90.37,34.52 L87.66,35.31 L84.07,36.05 L79.71,36.71 L74.71,37.24 L69.18,37.60 L63.25,37.72 L63.25,37.72 Z" fill="#ffffff" stroke="#ffffff" stroke-width="1" stroke-linejoin="round"/><path d="M30.56,33.00 L30.56,32.75 L30.71,31.87 L31.14,31.02 L31.84,30.23 L32.81,29.47 L35.45,28.11 L38.97,26.95 L43.26,25.99 L48.21,25.25 L53.71,24.74 L59.66,24.47 L58.86,22.94 L57.88,21.53 L56.74,20.26 L55.44,19.13 L54.01,18.18 L52.45,17.41 L50.78,16.83 L49.02,16.48 L48.86,14.74 L48.53,13.05 L48.04,11.44 L47.40,9.89 L46.62,8.43 L45.71,7.05 L43.53,4.60 L40.93,2.61 L39.49,1.80 L37.97,1.13 L36.38,0.61 L34.73,0.25 L33.03,0.04 L31.28,0.01 L28.51,0.18 L25.85,0.76 L23.33,1.74 L21.01,3.08 L18.91,4.75 L17.09,6.74 L15.57,9.00 L14.40,11.52 L11.50,12.14 L8.82,13.25 L6.41,14.79 L4.32,16.71 L2.59,18.97 L1.28,21.50 L0.42,24.27 L0.06,27.22 L0.22,28.90 L0.53,30.53 L1.00,32.10 L1.61,33.59 L3.24,36.34 L5.34,38.70 L7.86,40.62 L10.72,42.04 L12.26,42.54 L13.85,42.89 L15.50,43.08 L17.19,43.10 L18.69,43.04 L30.55,43.04 L30.55,33.00 L30.56,33.00 Z" fill="#41d2ee" stroke="#1e1e1e" stroke-width="1" stroke-linejoin="round"/></svg>