<svg xmlns="http://www.w3.org/2000/svg" viewBox="-1.94 -1.99 99.50 100.00"><path d="M63.00,79.57 L56.44,79.43 L50.33,79.02 L44.80,78.37 L39.98,77.51 L36.00,76.46 L33.00,75.26 L31.90,74.61 L31.10,73.94 L30.61,73.24 L30.44,72.51 L30.44,88.95 L30.61,89.67 L31.10,90.37 L31.90,91.05 L33.00,91.70 L36.00,92.90 L39.98,93.94 L44.80,94.80 L50.33,95.46 L56.44,95.87 L63.00,96.01 L69.56,95.87 L75.67,95.46 L81.20,94.80 L86.02,93.94 L90.00,92.90 L93.00,91.70 L94.10,91.05 L94.90,90.37 L95.39,89.67 L95.56,88.95 L95.56,72.51 L95.39,73.24 L94.90,73.94 L94.10,74.61 L93.00,75.26 L90.00,76.46 L86.02,77.51 L81.20,78.37 L75.67,79.02 L69.56,79.43 L63.00,79.57 L63.00,79.57 Z" fill="#db897d" stroke="#db897d" stroke-width="1" stroke-linejoin="round"/><path d="M90.40,82.92 L86.65,84.06 L82.83,84.91 L78.20,85.54 L73.53,85.76 L73.53,85.76 L73.01,85.65 L72.57,85.36 L72.28,84.93 L72.17,84.40 L72.28,83.88 L72.57,83.44 L73.00,83.15 L73.53,83.05 L77.96,82.85 L82.34,82.25 L85.96,81.44 L89.51,80.36 L90.04,80.29 L90.55,80.42 L90.96,80.73 L91.24,81.20 L91.31,81.73 L91.18,82.24 L90.87,82.65 L90.40,82.93 L90.40,82.92 Z" fill="#ffffff" stroke="#ffffff" stroke-width="1" stroke-linejoin="round"/><path d="M63.00,58.44 L56.44,58.29 L50.33,57.88 L44.80,57.23 L39.98,56.37 L36.00,55.32 L33.00,54.12 L31.90,53.48 L31.10,52.80 L30.61,52.10 L30.44,51.38 L30.44,68.68 L30.61,69.41 L31.10,70.11 L31.90,70.78 L33.00,71.43 L36.00,72.63 L39.98,73.67 L44.80,74.53 L50.33,75.18 L56.44,75.60 L63.00,75.74 L69.56,75.60 L75.67,75.18 L81.20,74.53 L86.02,73.67 L90.00,72.63 L93.00,71.43 L94.10,70.78 L94.90,70.10 L95.39,69.40 L95.56,68.68 L95.56,51.37 L95.39,52.09 L94.90,52.79 L94.10,53.47 L93.00,54.12 L90.00,55.32 L86.02,56.36 L81.20,57.23 L75.67,57.88 L69.56,58.29 L63.00,58.43 L63.00,58.44 Z" fill="#db897d" stroke="#db897d" stroke-width="1" stroke-linejoin="round"/><path d="M90.40,62.36 L86.65,63.49 L82.83,64.35 L78.20,64.98 L73.53,65.19 L73.53,65.19 L73.01,65.09 L72.57,64.80 L72.28,64.37 L72.17,63.84 L72.28,63.31 L72.57,62.88 L73.00,62.59 L73.53,62.48 L77.96,62.28 L82.34,61.68 L85.96,60.87 L89.51,59.80 L90.04,59.72 L90.55,59.86 L90.96,60.17 L91.24,60.64 L91.31,61.17 L91.18,61.67 L90.87,62.09 L90.40,62.36 L90.40,62.36 Z" fill="#ffffff" stroke="#ffffff" stroke-width="1" stroke-linejoin="round"/><path d="M63.00,24.72 L56.44,24.86 L50.33,25.29 L44.80,25.98 L39.98,26.93 L36.00,28.12 L34.37,28.80 L33.00,29.53 L31.90,30.33 L31.10,31.17 L30.61,32.07 L30.44,33.01 L30.44,47.55 L30.61,48.27 L31.10,48.97 L31.90,49.65 L33.00,50.30 L36.00,51.50 L39.98,52.54 L44.80,53.40 L50.33,54.05 L56.44,54.46 L63.00,54.61 L69.56,54.46 L75.67,54.05 L81.20,53.40 L86.02,52.54 L90.00,51.49 L93.00,50.29 L94.10,49.65 L94.90,48.97 L95.39,48.27 L95.56,47.55 L95.56,33.54 L95.39,32.50 L94.90,31.52 L94.10,30.61 L93.00,29.75 L91.63,28.96 L90.00,28.24 L86.02,26.99 L81.20,26.00 L75.67,25.29 L69.56,24.86 L63.00,24.71 L63.00,24.72 Z" fill="#db897d" stroke="#db897d" stroke-width="1" stroke-linejoin="round"/><path d="M90.40,42.38 L86.65,43.52 L82.83,44.37 L78.20,45.01 L73.53,45.22 L73.53,45.22 L73.01,45.11 L72.57,44.82 L72.28,44.39 L72.17,43.86 L72.28,43.34 L72.57,42.91 L73.00,42.62 L73.53,42.51 L77.96,42.31 L82.34,41.71 L85.96,40.90 L89.51,39.82 L90.04,39.75 L90.55,39.88 L90.96,40.20 L91.24,40.66 L91.31,41.19 L91.18,41.70 L90.87,42.11 L90.40,42.39 L90.40,42.38 Z" fill="#ffffff" stroke="#ffffff" stroke-width="1" stroke-linejoin="round"/><path d="M63.00,37.57 L57.09,37.44 L51.58,37.09 L46.60,36.55 L42.26,35.88 L38.68,35.13 L35.98,34.35 L34.27,33.58 L33.83,33.22 L33.68,32.88 L33.83,32.46 L34.27,32.03 L35.98,31.12 L38.68,30.21 L42.26,29.34 L46.60,28.58 L51.58,27.97 L57.09,27.56 L63.00,27.42 L68.91,27.57 L74.41,27.99 L79.40,28.61 L83.74,29.39 L87.32,30.27 L90.02,31.18 L91.73,32.07 L92.17,32.49 L92.32,32.88 L92.17,33.23 L91.73,33.60 L90.02,34.38 L87.32,35.17 L83.74,35.91 L79.40,36.57 L74.41,37.10 L68.91,37.45 L63.00,37.57 L63.00,37.57 Z" fill="#ffffff" stroke="#ffffff" stroke-width="1" stroke-linejoin="round"/><path d="M30.44,32.87 L30.44,32.62 L30.59,31.74 L31.02,30.90 L31.72,30.11 L32.68,29.36 L35.31,28.00 L38.82,26.84 L43.09,25.89 L48.02,25.15 L53.50,24.65 L59.43,24.38 L58.63,22.85 L57.66,21.45 L56.52,20.18 L55.23,19.06 L53.80,18.11 L52.25,17.34 L50.58,16.77 L48.83,16.42 L48.66,14.68 L48.33,13.00 L47.85,11.39 L47.21,9.85 L46.44,8.39 L45.53,7.02 L43.36,4.58 L40.76,2.60 L39.33,1.80 L37.82,1.13 L36.24,0.61 L34.59,0.25 L32.90,0.04 L31.16,0.01 L28.40,0.18 L25.74,0.76 L23.24,1.73 L20.93,3.07 L18.84,4.74 L17.02,6.71 L15.51,8.97 L14.34,11.47 L11.45,12.09 L8.78,13.20 L6.38,14.73 L4.30,16.65 L2.58,18.89 L1.27,21.42 L0.42,24.18 L0.06,27.11 L0.21,28.79 L0.53,30.41 L0.99,31.97 L1.60,33.46 L3.22,36.19 L5.32,38.55 L7.83,40.46 L10.68,41.88 L12.21,42.37 L13.80,42.72 L15.44,42.91 L17.12,42.93 L18.62,42.87 L30.43,42.87 L30.43,32.87 L30.44,32.87 Z" fill="#41d2ee" stroke="#1e1e1e" stroke-width="1" stroke-linejoin="round"/></svg>