<svg xmlns="http://www.w3.org/2000/svg" viewBox="0.67 1.25 94.67 93.49"><path d="M55.04,89.39 L54.62,90.90 L53.51,92.00 L52.00,92.43 L5.71,92.43 L4.19,92.02 L3.07,90.91 L2.67,89.39 L2.67,6.29 L3.06,4.76 L4.18,3.64 L5.71,3.25 L52.00,3.25 L53.52,3.66 L54.63,4.77 L55.04,6.29 L55.04,89.39 Z" fill="#a1a1a1" stroke="#1e1e1e" stroke-width="1" stroke-linejoin="round"/><path d="M10.35,34.51 L10.64,32.77 L11.44,31.20 L12.69,29.95 L14.26,29.14 L16.00,28.85 L42.13,28.85 L43.92,29.09 L45.55,29.87 L46.85,31.13 L47.70,32.73 L48.00,34.51 L48.00,34.51 L47.71,36.30 L46.87,37.91 L45.57,39.18 L43.94,39.97 L42.13,40.21 L16.00,40.21 L14.25,39.92 L12.67,39.10 L11.42,37.84 L10.62,36.26 L10.35,34.51 Z" fill="#003067" stroke="#1e1e1e" stroke-width="1" stroke-linejoin="round"/><path d="M10.35,17.65 L10.62,15.90 L11.42,14.32 L12.67,13.06 L14.25,12.24 L16.00,11.95 L42.13,11.95 L43.94,12.19 L45.57,12.98 L46.87,14.25 L47.71,15.86 L48.00,17.65 L48.00,17.65 L47.70,19.43 L46.85,21.03 L45.55,22.29 L43.92,23.07 L42.13,23.31 L16.00,23.31 L14.26,23.02 L12.69,22.21 L11.44,20.96 L10.64,19.39 L10.35,17.65 L10.35,17.65 Z" fill="#003067" stroke="#1e1e1e" stroke-width="1" stroke-linejoin="round"/><ellipse cx="16.32" cy="17.65" rx="3.84" ry="3.84" fill="#50e6ff" stroke="#50e6ff" stroke-width="1"/><ellipse cx="16.32" cy="34.51" rx="3.84" ry="3.84" fill="#50e6ff" stroke="#50e6ff" stroke-width="1"/><path d="M93.33,75.09 L92.86,71.54 L91.68,68.15 L89.85,65.06 L87.45,62.39 L84.56,60.26 L81.30,58.75 L77.81,57.92 L77.17,53.61 L75.70,49.51 L73.48,45.76 L70.57,42.51 L67.09,39.89 L63.17,37.98 L58.96,36.87 L54.61,36.59 L50.58,36.85 L46.65,37.81 L42.95,39.44 L39.59,41.69 L36.68,44.50 L34.30,47.77 L32.53,51.41 L28.83,52.20 L25.33,53.62 L22.13,55.64 L19.34,58.20 L17.04,61.21 L15.32,64.57 L14.21,68.19 L13.76,71.95 L14.34,76.14 L15.72,80.15 L17.86,83.80 L20.66,86.97 L24.03,89.54 L27.84,91.40 L31.93,92.48 L36.16,92.75 L38.13,92.75 L74.67,92.75 L75.57,92.75 L79.00,92.36 L82.30,91.32 L85.33,89.68 L88.00,87.49 L90.21,84.84 L91.87,81.81 L92.92,78.52 L93.33,75.09 Z" fill="#3990e4" stroke="#1e1e1e" stroke-width="1" stroke-linejoin="round"/><path d="M72.59,77.07 L72.59,59.15 L67.63,59.15 L67.63,81.12 L80.69,81.12 L80.69,77.07 L72.59,77.07 Z" fill="#f2f2f2" stroke="#f2f2f2" stroke-width="1" stroke-linejoin="round"/><path d="M34.72,68.27 L33.30,67.53 L32.00,66.61 L31.51,65.82 L31.36,64.91 L31.55,64.00 L32.16,63.31 L33.23,62.80 L34.40,62.67 L36.27,62.80 L38.08,63.32 L39.73,64.21 L39.73,59.63 L37.10,58.99 L34.40,58.83 L32.34,58.96 L30.37,59.56 L28.59,60.59 L27.37,61.92 L26.62,63.55 L26.40,65.33 L26.85,67.44 L27.91,69.32 L29.48,70.79 L31.41,71.73 L33.11,72.58 L34.67,73.65 L35.25,74.42 L35.47,75.36 L35.28,76.27 L34.67,76.96 L33.52,77.47 L32.27,77.60 L30.18,77.33 L28.22,76.57 L26.51,75.36 L26.51,80.27 L29.18,81.21 L32.00,81.49 L34.13,81.43 L36.21,80.93 L38.13,80.00 L39.42,78.67 L40.21,76.99 L40.43,75.15 L40.12,73.15 L39.09,71.41 L37.08,69.60 L34.72,68.27 L34.72,68.27 Z" fill="#f2f2f2" stroke="#f2f2f2" stroke-width="1" stroke-linejoin="round"/><path d="M62.24,76.69 L63.24,74.58 L63.83,72.31 L64.00,69.97 L63.72,66.90 L62.67,64.00 L61.11,61.76 L58.99,60.05 L56.26,58.95 L53.33,58.67 L50.57,59.12 L48.00,60.21 L45.76,61.98 L44.11,64.32 L43.03,67.28 L42.67,70.40 L42.97,73.28 L43.95,76.00 L45.49,78.22 L47.57,79.95 L50.14,81.07 L52.91,81.49 L57.44,86.83 L63.84,86.83 L57.49,80.96 L59.38,79.91 L60.99,78.46 L62.24,76.69 Z" fill="#f2f2f2" stroke="#f2f2f2" stroke-width="1" stroke-linejoin="round"/><path d="M57.28,75.36 L56.15,76.40 L54.75,77.05 L53.23,77.23 L51.71,77.03 L50.33,76.36 L49.23,75.31 L48.31,73.66 L47.80,71.85 L47.73,69.97 L47.81,68.09 L48.33,66.27 L49.28,64.64 L50.41,63.55 L51.83,62.86 L53.39,62.67 L54.90,62.86 L56.27,63.55 L57.33,64.64 L58.24,66.29 L58.74,68.10 L58.83,69.97 L58.76,71.88 L58.23,73.71 L57.28,75.36 Z" fill="#3990e4" stroke="#3990e4" stroke-width="1" stroke-linejoin="round"/></svg>