<svg xmlns="http://www.w3.org/2000/svg" viewBox="7.38 -1.33 81.25 98.67"><path d="M45.07,36.05 L44.97,36.71 L44.70,37.36 L43.66,38.57 L42.02,39.67 L39.84,40.62 L37.20,41.41 L34.17,42.00 L30.82,42.38 L27.22,42.51 L23.62,42.38 L20.27,42.01 L17.24,41.43 L14.60,40.66 L12.42,39.71 L10.78,38.61 L9.74,37.38 L9.47,36.73 L9.38,36.05 L9.47,35.37 L9.74,34.72 L10.78,33.49 L12.42,32.39 L14.60,31.44 L17.24,30.66 L20.27,30.08 L23.62,29.72 L27.22,29.59 L30.82,29.72 L34.17,30.08 L37.20,30.66 L39.84,31.44 L42.02,32.39 L43.66,33.49 L44.70,34.72 L44.97,35.37 L45.07,36.05 Z" fill="#e8e8e8" stroke="#1e1e1e" stroke-width="1" stroke-linejoin="round"/><path d="M40.92,35.51 L40.64,36.35 L39.84,37.12 L38.57,37.82 L36.90,38.43 L34.87,38.93 L32.54,39.31 L29.97,39.55 L27.22,39.64 L24.46,39.55 L21.89,39.31 L19.56,38.93 L17.54,38.43 L15.86,37.82 L14.59,37.12 L13.79,36.35 L13.51,35.51 L13.79,34.68 L14.59,33.91 L15.86,33.22 L17.54,32.61 L19.56,32.12 L21.89,31.74 L24.46,31.51 L27.22,31.42 L29.97,31.51 L32.54,31.75 L34.87,32.12 L36.90,32.63 L38.57,33.23 L39.84,33.93 L40.64,34.69 L40.92,35.51 Z" fill="#50e6ff" stroke="#50e6ff" stroke-width="1" stroke-linejoin="round"/><path d="M27.22,36.54 L24.47,36.59 L21.74,36.87 L19.04,37.39 L16.39,38.13 L19.04,38.86 L21.74,39.36 L24.47,39.61 L27.22,39.64 L29.98,39.60 L32.71,39.31 L35.41,38.79 L38.05,38.02 L35.40,37.31 L32.70,36.83 L29.97,36.57 L27.22,36.54 L27.22,36.54 Z" fill="#198ab3" stroke="#198ab3" stroke-width="1" stroke-linejoin="round"/><path d="M27.78,54.46 L27.88,53.47 L28.16,52.54 L28.62,51.67 L29.25,50.86 L30.93,49.42 L33.13,48.23 L35.73,47.26 L38.66,46.52 L41.80,46.01 L45.07,45.71 L45.07,36.04 L44.97,36.71 L44.70,37.35 L43.66,38.57 L42.02,39.66 L39.84,40.62 L37.20,41.40 L34.17,42.00 L30.82,42.37 L27.22,42.50 L23.62,42.37 L20.27,42.01 L17.24,41.43 L14.60,40.65 L12.42,39.70 L10.78,38.60 L9.74,37.38 L9.47,36.72 L9.38,36.04 L9.38,70.46 L9.47,71.11 L9.73,71.75 L10.75,72.95 L12.37,74.04 L14.52,74.99 L17.12,75.78 L20.11,76.38 L23.42,76.77 L26.97,76.92 L27.22,76.92 L27.79,76.92 L27.79,54.46 L27.78,54.46 Z" fill="#0077d2" stroke="#1e1e1e" stroke-width="1" stroke-linejoin="round"/><path d="M86.63,36.05 L86.54,36.71 L86.27,37.36 L85.23,38.57 L83.58,39.67 L81.40,40.62 L78.76,41.41 L75.73,42.00 L72.38,42.38 L68.78,42.51 L65.19,42.38 L61.84,42.01 L58.81,41.43 L56.17,40.66 L53.99,39.71 L52.34,38.61 L51.30,37.38 L51.03,36.73 L50.94,36.05 L51.03,35.37 L51.30,34.72 L52.34,33.49 L53.99,32.39 L56.17,31.44 L58.81,30.66 L61.84,30.08 L65.19,29.72 L68.78,29.59 L72.38,29.72 L75.73,30.08 L78.76,30.66 L81.40,31.44 L83.58,32.39 L85.23,33.49 L86.27,34.72 L86.54,35.37 L86.63,36.05 Z" fill="#e8e8e8" stroke="#1e1e1e" stroke-width="1" stroke-linejoin="round"/><path d="M82.48,35.51 L82.20,36.35 L81.40,37.12 L80.13,37.82 L78.46,38.43 L76.43,38.93 L74.10,39.31 L71.53,39.55 L68.78,39.64 L66.02,39.55 L63.45,39.31 L61.13,38.93 L59.10,38.43 L57.42,37.82 L56.16,37.12 L55.36,36.35 L55.08,35.51 L55.36,34.68 L56.16,33.91 L57.42,33.22 L59.10,32.61 L61.13,32.12 L63.45,31.74 L66.02,31.51 L68.78,31.42 L71.53,31.51 L74.10,31.75 L76.43,32.12 L78.46,32.63 L80.13,33.23 L81.40,33.93 L82.20,34.69 L82.48,35.51 Z" fill="#50e6ff" stroke="#50e6ff" stroke-width="1" stroke-linejoin="round"/><path d="M68.78,36.54 L66.03,36.59 L63.29,36.87 L60.60,37.39 L57.95,38.13 L60.60,38.86 L63.30,39.36 L66.03,39.61 L68.78,39.64 L71.53,39.60 L74.27,39.31 L76.96,38.79 L79.61,38.02 L76.96,37.31 L74.26,36.83 L71.53,36.57 L68.78,36.54 Z" fill="#198ab3" stroke="#198ab3" stroke-width="1" stroke-linejoin="round"/><path d="M68.78,42.51 L65.18,42.38 L61.83,42.01 L58.80,41.43 L56.16,40.66 L53.98,39.71 L52.34,38.61 L51.30,37.38 L51.03,36.73 L50.93,36.05 L50.93,45.72 L54.20,46.01 L57.34,46.53 L60.27,47.27 L62.87,48.23 L65.07,49.43 L66.75,50.86 L67.38,51.67 L67.84,52.54 L68.12,53.47 L68.22,54.46 L68.22,76.92 L68.53,76.92 L68.78,76.92 L72.38,76.79 L75.73,76.42 L78.76,75.84 L81.40,75.07 L83.58,74.12 L85.23,73.02 L86.27,71.79 L86.54,71.14 L86.63,70.46 L86.63,36.04 L86.54,36.71 L86.27,37.35 L85.23,38.57 L83.58,39.66 L81.40,40.62 L78.76,41.40 L75.73,42.00 L72.38,42.37 L68.78,42.50 L68.78,42.51 Z" fill="#0077d2" stroke="#1e1e1e" stroke-width="1" stroke-linejoin="round"/><path d="M48.00,60.92 L44.40,60.79 L41.05,60.42 L38.02,59.84 L35.38,59.07 L33.20,58.12 L31.56,57.02 L30.52,55.79 L30.25,55.14 L30.15,54.46 L30.15,88.87 L30.25,89.53 L30.51,90.17 L31.53,91.37 L33.15,92.46 L35.30,93.41 L37.90,94.20 L40.89,94.80 L44.20,95.19 L47.75,95.33 L48.00,95.33 L51.60,95.21 L54.95,94.84 L57.98,94.26 L60.62,93.48 L62.80,92.53 L64.44,91.43 L65.48,90.21 L65.75,89.55 L65.85,88.87 L65.85,54.46 L65.75,55.12 L65.48,55.77 L64.44,56.98 L62.80,58.08 L60.62,59.03 L57.98,59.82 L54.95,60.41 L51.60,60.79 L48.00,60.92 L48.00,60.92 Z" fill="#0077d2" stroke="#1e1e1e" stroke-width="1" stroke-linejoin="round"/><path d="M65.85,54.46 L65.75,55.12 L65.48,55.77 L64.44,56.98 L62.80,58.08 L60.62,59.03 L57.98,59.82 L54.95,60.41 L51.60,60.79 L48.00,60.92 L44.40,60.79 L41.05,60.42 L38.02,59.84 L35.38,59.07 L33.20,58.12 L31.56,57.02 L30.52,55.79 L30.25,55.14 L30.15,54.46 L30.25,53.78 L30.52,53.13 L31.56,51.90 L33.20,50.80 L35.38,49.85 L38.02,49.07 L41.05,48.49 L44.40,48.13 L48.00,48.00 L51.60,48.13 L54.95,48.49 L57.98,49.07 L60.62,49.85 L62.80,50.80 L64.44,51.90 L65.48,53.13 L65.75,53.78 L65.85,54.46 Z" fill="#e8e8e8" stroke="#1e1e1e" stroke-width="1" stroke-linejoin="round"/><path d="M61.70,53.93 L61.42,54.76 L60.62,55.54 L59.36,56.24 L57.68,56.85 L55.65,57.35 L53.32,57.73 L50.76,57.97 L48.00,58.05 L45.24,57.97 L42.68,57.73 L40.35,57.35 L38.32,56.85 L36.64,56.24 L35.38,55.54 L34.58,54.76 L34.30,53.93 L34.58,53.10 L35.38,52.33 L36.64,51.63 L38.32,51.03 L40.35,50.53 L42.68,50.16 L45.24,49.92 L48.00,49.84 L50.76,49.92 L53.32,50.16 L55.65,50.54 L57.68,51.04 L59.36,51.65 L60.62,52.34 L61.42,53.11 L61.70,53.93" fill="none" stroke="#50e6ff" stroke-width="1" stroke-linejoin="round"/><path d="M48.00,54.96 L45.25,55.01 L42.52,55.29 L39.82,55.80 L37.17,56.55 L39.82,57.28 L42.52,57.77 L45.25,58.03 L48.00,58.05 L50.75,58.01 L53.49,57.73 L56.19,57.20 L58.83,56.44 L56.18,55.73 L53.48,55.25 L50.75,54.99 L48.00,54.96 Z" fill="#198ab3" stroke="#198ab3" stroke-width="1" stroke-linejoin="round"/><path d="M23.77,22.28 L23.77,27.33 L27.22,27.22 L32.75,27.52 L35.43,27.90 L37.98,28.43 L37.53,26.71 L37.37,24.90 L37.59,22.75 L38.21,20.76 L39.19,18.95 L40.49,17.38 L42.06,16.08 L43.87,15.10 L45.86,14.48 L48.01,14.26 L50.15,14.48 L52.14,15.10 L53.95,16.08 L55.52,17.38 L56.82,18.95 L57.80,20.76 L58.42,22.75 L58.64,24.90 L58.48,26.71 L58.03,28.43 L60.58,27.90 L63.26,27.52 L68.78,27.22 L72.23,27.33 L72.23,21.99 L71.46,21.70 L65.54,19.76 L63.98,15.99 L66.99,9.59 L63.11,5.72 L62.34,6.11 L56.82,8.91 L53.05,7.35 L50.62,0.67 L45.09,0.67 L44.80,1.44 L42.86,7.37 L39.09,8.92 L32.78,5.90 L28.91,9.78 L29.30,10.55 L32.12,16.08 L30.57,19.85 L23.77,22.28 L23.77,22.28 Z" fill="#32d3f4" stroke="#1e1e1e" stroke-width="1" stroke-linejoin="round"/></svg>