<svg xmlns="http://www.w3.org/2000/svg" viewBox="0.67 0.61 95.20 94.88"><path d="M36.48,27.15 L29.67,26.90 L23.32,26.20 L17.58,25.09 L12.57,23.61 L10.39,22.75 L8.44,21.81 L6.75,20.80 L5.32,19.72 L4.19,18.59 L3.35,17.40 L2.84,16.16 L2.67,14.88 L2.67,80.00 L2.84,81.24 L3.34,82.45 L4.16,83.62 L5.28,84.74 L6.68,85.80 L8.35,86.81 L10.26,87.75 L12.41,88.61 L17.34,90.11 L23.01,91.25 L29.27,91.98 L36.00,92.27 L36.48,92.27 L43.29,92.02 L49.64,91.33 L55.38,90.21 L60.39,88.73 L62.57,87.87 L64.52,86.93 L66.21,85.92 L67.63,84.84 L68.77,83.71 L69.61,82.52 L70.12,81.28 L70.29,80.00 L70.29,14.88 L70.12,16.13 L69.61,17.35 L68.77,18.53 L67.63,19.65 L66.21,20.73 L64.52,21.74 L62.57,22.68 L60.39,23.55 L55.38,25.05 L49.64,26.18 L43.29,26.90 L36.48,27.15 Z" fill="#0077d2" stroke="#1e1e1e" stroke-width="1" stroke-linejoin="round"/><path d="M70.29,14.88 L70.12,16.13 L69.61,17.35 L68.77,18.53 L67.63,19.65 L66.21,20.73 L64.52,21.74 L62.57,22.68 L60.39,23.55 L55.38,25.05 L49.64,26.18 L43.29,26.90 L36.48,27.15 L29.67,26.90 L23.32,26.18 L17.58,25.05 L12.57,23.55 L10.39,22.68 L8.44,21.74 L6.75,20.73 L5.32,19.65 L4.19,18.53 L3.35,17.35 L2.84,16.13 L2.67,14.88 L2.84,13.63 L3.35,12.41 L4.19,11.23 L5.32,10.11 L6.75,9.03 L8.44,8.02 L10.39,7.08 L12.57,6.21 L17.58,4.71 L23.32,3.58 L29.67,2.86 L36.48,2.61 L43.29,2.86 L49.64,3.55 L55.38,4.67 L60.39,6.15 L62.57,7.01 L64.52,7.95 L66.21,8.96 L67.63,10.04 L68.77,11.17 L69.61,12.36 L70.12,13.60 L70.29,14.88 Z" fill="#e8e8e8" stroke="#1e1e1e" stroke-width="1" stroke-linejoin="round"/><path d="M62.40,13.87 L62.27,14.67 L61.87,15.44 L61.23,16.19 L60.36,16.91 L57.97,18.23 L54.80,19.38 L50.96,20.33 L46.56,21.04 L41.70,21.50 L36.48,21.65 L31.27,21.50 L26.42,21.04 L22.03,20.33 L18.21,19.38 L15.07,18.23 L12.69,16.91 L11.82,16.19 L11.19,15.44 L10.80,14.67 L10.67,13.87 L10.80,13.07 L11.19,12.29 L11.82,11.54 L12.69,10.83 L15.07,9.50 L18.21,8.35 L22.03,7.40 L26.42,6.69 L31.27,6.24 L36.48,6.08 L41.70,6.24 L46.56,6.70 L50.96,7.42 L54.80,8.37 L57.97,9.53 L60.36,10.85 L61.23,11.56 L61.87,12.31 L62.27,13.08 L62.40,13.87 Z" fill="#50e6ff" stroke="#1e1e1e" stroke-width="1" stroke-linejoin="round"/><path d="M36.48,15.68 L29.56,15.92 L22.71,16.90 L16.00,18.61 L22.71,20.42 L29.59,21.44 L36.53,21.65 L43.48,21.44 L50.36,20.42 L57.07,18.61 L50.32,16.89 L43.44,15.91 L36.48,15.68 L36.48,15.68 Z" fill="#198ab3" stroke="#198ab3" stroke-width="1" stroke-linejoin="round"/><path d="M57.28,59.20 L57.28,41.17 L52.32,41.17 L52.32,63.25 L65.44,63.25 L65.44,59.20 L57.28,59.20 Z" fill="#f2f2f2" stroke="#f2f2f2" stroke-width="1" stroke-linejoin="round"/><path d="M19.15,50.29 L17.72,49.57 L16.43,48.64 L16.05,47.83 L16.00,46.93 L16.23,46.00 L16.85,45.28 L17.93,44.81 L19.09,44.69 L20.97,44.83 L22.77,45.35 L24.43,46.24 L24.43,41.65 L21.80,40.97 L19.09,40.80 L16.83,40.89 L14.65,41.52 L12.69,42.67 L11.49,44.02 L10.73,45.67 L10.51,47.47 L10.59,48.46 L10.83,49.40 L11.24,50.28 L11.81,51.11 L13.48,52.62 L15.84,53.92 L17.53,54.78 L19.09,55.84 L19.72,56.59 L19.95,57.55 L19.72,58.48 L19.09,59.20 L17.94,59.71 L16.69,59.84 L14.50,59.58 L12.44,58.76 L10.67,57.44 L10.67,62.40 L13.45,63.36 L16.37,63.63 L18.57,63.50 L20.70,62.92 L22.67,61.92 L23.95,60.56 L24.74,58.87 L24.96,57.01 L24.65,55.02 L23.63,53.28 L21.54,51.55 L19.15,50.29 Z" fill="#f2f2f2" stroke="#f2f2f2" stroke-width="1" stroke-linejoin="round"/><path d="M46.88,58.67 L47.88,56.53 L48.48,54.25 L48.64,51.89 L48.34,48.88 L47.31,46.03 L45.73,43.76 L43.57,42.03 L41.00,40.98 L38.24,40.64 L35.24,40.98 L32.43,42.08 L30.18,43.85 L28.53,46.19 L27.46,49.17 L27.15,52.32 L27.45,55.20 L28.43,57.92 L29.96,60.18 L32.05,61.92 L34.62,63.05 L37.39,63.47 L41.92,68.80 L48.27,68.80 L41.87,62.88 L43.85,61.88 L45.55,60.45 L46.88,58.67 L46.88,58.67 Z" fill="#f2f2f2" stroke="#f2f2f2" stroke-width="1" stroke-linejoin="round"/><path d="M41.92,57.28 L40.50,58.47 L38.76,59.10 L36.92,59.10 L35.18,58.47 L33.76,57.28 L32.85,55.64 L32.34,53.83 L32.27,51.95 L32.35,50.06 L32.87,48.25 L33.81,46.61 L34.96,45.51 L36.39,44.83 L37.97,44.64 L39.50,44.84 L40.88,45.52 L41.97,46.61 L42.84,48.27 L43.33,50.08 L43.41,51.95 L43.38,53.88 L42.87,55.75 L41.92,57.44 L41.92,57.28 Z" fill="#0077d2" stroke="#0077d2" stroke-width="1" stroke-linejoin="round"/><path d="M78.99,93.28 L80.27,89.07 L82.77,87.63 L87.09,89.55 L89.87,86.72 L89.87,86.40 L87.89,82.61 L89.07,79.95 L93.39,78.40 L93.87,78.40 L93.87,74.51 L93.33,74.51 L89.07,73.23 L87.68,70.77 L89.55,66.40 L86.72,63.68 L86.40,63.68 L82.61,65.60 L80.00,64.00 L78.29,59.25 L74.35,59.25 L74.35,59.84 L73.07,64.05 L70.35,65.23 L65.71,63.09 L62.99,65.92 L63.25,66.45 L65.28,70.40 L64.21,73.12 L59.20,74.67 L59.20,78.61 L59.79,78.61 L64.00,79.89 L65.17,82.61 L63.09,87.20 L65.92,89.97 L66.40,89.71 L70.35,87.68 L73.07,88.75 L74.88,93.49 L78.77,93.49 L78.99,93.28 Z" fill="#949494" stroke="#949494" stroke-width="1" stroke-linejoin="round"/><path d="M72.59,80.69 L71.44,79.09 L70.91,77.19 L71.06,75.23 L71.88,73.43 L73.26,72.02 L75.04,71.17 L77.00,70.98 L78.91,71.47 L80.53,72.59 L81.68,74.19 L82.21,76.09 L82.06,78.05 L81.24,79.85 L79.86,81.26 L78.08,82.11 L76.12,82.30 L74.21,81.81 L72.59,80.69 L72.59,80.69 Z" fill="#ffffff" stroke="#ffffff" stroke-width="1" stroke-linejoin="round"/></svg>