<svg xmlns="http://www.w3.org/2000/svg" viewBox="1.63 0.67 92.96 94.67"><path d="M39.31,2.67 L3.63,23.36 L3.63,28.48 L10.19,28.48 L10.19,67.31 L16.64,67.31 L16.64,28.48 L61.97,28.48 L61.97,70.56 L68.43,70.56 L68.43,28.48 L74.99,28.48 L74.99,23.36 L39.31,2.67 Z" fill="#abaaab" stroke="#1e1e1e" stroke-width="1" stroke-linejoin="round"/><path d="M23.09,67.31 L36.05,67.31 L36.05,54.40 L23.09,54.40 L23.09,67.31 Z" fill="#50e6ff" stroke="#50e6ff" stroke-width="1" stroke-linejoin="round"/><path d="M42.51,67.31 L55.47,67.31 L55.47,54.40 L42.67,54.40 L42.51,67.31 Z" fill="#50e6ff" stroke="#50e6ff" stroke-width="1" stroke-linejoin="round"/><path d="M23.09,48.00 L36.05,48.00 L36.05,34.93 L23.09,34.93 L23.09,48.00 Z" fill="#50e6ff" stroke="#50e6ff" stroke-width="1" stroke-linejoin="round"/><path d="M42.67,34.93 L42.67,48.00 L55.47,48.00 L55.47,34.93 L42.67,34.93 Z" fill="#50e6ff" stroke="#50e6ff" stroke-width="1" stroke-linejoin="round"/><path d="M70.08,55.52 L65.59,55.37 L61.43,54.96 L57.68,54.30 L54.42,53.43 L51.74,52.38 L49.72,51.18 L48.98,50.53 L48.44,49.85 L48.11,49.15 L48.00,48.43 L48.00,86.24 L48.11,86.96 L48.45,87.66 L48.99,88.34 L49.72,88.98 L51.75,90.18 L54.43,91.23 L57.68,92.09 L61.41,92.75 L65.54,93.17 L69.97,93.33 L70.29,93.33 L74.79,93.19 L78.97,92.77 L82.76,92.12 L86.06,91.25 L88.78,90.20 L90.84,88.99 L91.59,88.34 L92.13,87.66 L92.47,86.96 L92.59,86.24 L92.59,48.43 L92.43,49.15 L92.06,49.85 L90.71,51.18 L88.62,52.38 L85.87,53.43 L82.56,54.30 L78.76,54.96 L74.58,55.37 L70.08,55.52 Z" fill="#0077d2" stroke="#1e1e1e" stroke-width="1" stroke-linejoin="round"/><path d="M92.37,48.43 L92.26,49.15 L91.92,49.85 L91.37,50.53 L90.62,51.18 L88.57,52.38 L85.85,53.43 L82.55,54.30 L78.76,54.96 L74.58,55.37 L70.08,55.52 L65.59,55.37 L61.43,54.96 L57.68,54.30 L54.42,53.43 L51.74,52.38 L49.72,51.18 L48.98,50.53 L48.44,49.85 L48.11,49.15 L48.00,48.43 L48.12,47.71 L48.45,47.00 L49.00,46.33 L49.75,45.68 L51.81,44.47 L54.53,43.42 L57.83,42.55 L61.61,41.89 L65.80,41.48 L70.29,41.33 L74.79,41.48 L78.97,41.89 L82.76,42.54 L86.06,43.40 L88.78,44.45 L90.84,45.65 L91.59,46.31 L92.13,46.99 L92.47,47.70 L92.59,48.43" fill="none" stroke="#1e1e1e" stroke-width="1" stroke-linejoin="round"/><path d="M87.20,48.00 L87.11,48.46 L86.85,48.91 L85.85,49.77 L84.27,50.54 L82.18,51.21 L79.65,51.76 L76.74,52.18 L73.53,52.44 L70.08,52.53 L66.64,52.43 L63.43,52.15 L60.53,51.72 L58.01,51.15 L55.92,50.47 L54.35,49.70 L53.36,48.87 L53.10,48.44 L53.01,48.00 L53.10,47.56 L53.36,47.13 L54.35,46.30 L55.92,45.53 L58.01,44.85 L60.53,44.28 L63.43,43.85 L66.64,43.57 L70.08,43.47 L73.53,43.56 L76.74,43.82 L79.65,44.24 L82.18,44.79 L84.27,45.46 L85.85,46.23 L86.85,47.09 L87.11,47.54 L87.20,48.00 Z" fill="#50e6ff" stroke="#1e1e1e" stroke-width="1" stroke-linejoin="round"/><path d="M70.08,48.91 L65.52,49.02 L60.98,49.59 L56.53,50.61 L60.98,51.66 L65.51,52.24 L70.08,52.37 L74.65,52.24 L79.18,51.66 L83.63,50.61 L79.18,49.59 L74.64,49.02 L70.08,48.91 L70.08,48.91 Z" fill="#32bedd" stroke="#32bedd" stroke-width="1" stroke-linejoin="round"/></svg>