<svg xmlns="http://www.w3.org/2000/svg" viewBox="7.51 -1.32 82.34 100.00"><path d="M45.70,36.56 L45.61,37.23 L45.33,37.88 L44.28,39.11 L42.61,40.23 L40.40,41.20 L37.72,41.99 L34.65,42.59 L31.25,42.97 L27.60,43.11 L23.96,42.98 L20.56,42.61 L17.49,42.02 L14.81,41.23 L12.60,40.27 L10.93,39.15 L9.88,37.91 L9.60,37.24 L9.51,36.56 L9.60,35.87 L9.88,35.20 L10.93,33.96 L12.60,32.85 L14.81,31.88 L17.49,31.10 L20.56,30.51 L23.96,30.13 L27.60,30.01 L31.25,30.13 L34.65,30.51 L37.72,31.10 L40.40,31.88 L42.61,32.85 L44.28,33.96 L45.33,35.20 L45.61,35.87 L45.70,36.56 Z" fill="#e8e8e8" stroke="#1e1e1e" stroke-width="1" stroke-linejoin="round"/><path d="M41.49,36.01 L41.21,36.86 L40.40,37.64 L39.12,38.35 L37.42,38.97 L35.36,39.48 L33.00,39.87 L30.39,40.11 L27.60,40.20 L24.81,40.11 L22.20,39.87 L19.84,39.48 L17.78,38.97 L16.08,38.35 L14.80,37.64 L13.99,36.86 L13.71,36.01 L13.99,35.17 L14.80,34.39 L16.08,33.69 L17.78,33.07 L19.84,32.57 L22.20,32.19 L24.81,31.95 L27.60,31.87 L30.39,31.95 L33.00,32.19 L35.36,32.58 L37.42,33.08 L39.12,33.70 L40.40,34.40 L41.21,35.18 L41.49,36.01 Z" fill="#50e6ff" stroke="#50e6ff" stroke-width="1" stroke-linejoin="round"/><path d="M27.60,37.06 L24.81,37.11 L22.04,37.39 L19.31,37.91 L16.62,38.67 L19.31,39.41 L22.05,39.91 L24.82,40.17 L27.60,40.20 L30.40,40.15 L33.17,39.87 L35.91,39.33 L38.59,38.56 L35.90,37.84 L33.16,37.35 L30.39,37.09 L27.60,37.06 L27.60,37.06 Z" fill="#198ab3" stroke="#198ab3" stroke-width="1" stroke-linejoin="round"/><path d="M28.17,55.23 L28.27,54.22 L28.56,53.28 L29.03,52.39 L29.66,51.58 L31.37,50.12 L33.59,48.91 L36.24,47.93 L39.20,47.18 L42.39,46.66 L45.70,46.36 L45.70,36.55 L45.61,37.22 L45.33,37.88 L44.28,39.11 L42.61,40.22 L40.40,41.19 L37.72,41.99 L34.65,42.59 L31.25,42.97 L27.60,43.10 L23.96,42.97 L20.56,42.60 L17.49,42.01 L14.81,41.22 L12.60,40.26 L10.93,39.15 L9.88,37.90 L9.60,37.24 L9.51,36.55 L9.51,71.45 L9.60,72.11 L9.87,72.76 L10.91,73.98 L12.55,75.08 L14.72,76.05 L17.36,76.85 L20.39,77.46 L23.75,77.85 L27.35,78.00 L27.60,78.00 L28.18,78.00 L28.18,55.23 L28.17,55.23 Z" fill="#0077d2" stroke="#1e1e1e" stroke-width="1" stroke-linejoin="round"/><path d="M87.85,36.56 L87.76,37.23 L87.48,37.88 L86.43,39.11 L84.76,40.23 L82.55,41.20 L79.87,41.99 L76.80,42.59 L73.40,42.97 L69.75,43.11 L66.11,42.98 L62.71,42.61 L59.63,42.02 L56.96,41.23 L54.75,40.27 L53.08,39.15 L52.02,37.91 L51.75,37.24 L51.66,36.56 L51.75,35.87 L52.02,35.20 L53.08,33.96 L54.75,32.85 L56.96,31.88 L59.63,31.10 L62.71,30.51 L66.11,30.13 L69.75,30.01 L73.40,30.13 L76.80,30.51 L79.87,31.10 L82.55,31.88 L84.76,32.85 L86.43,33.96 L87.48,35.20 L87.76,35.87 L87.85,36.56 Z" fill="#e8e8e8" stroke="#1e1e1e" stroke-width="1" stroke-linejoin="round"/><path d="M83.64,36.01 L83.36,36.86 L82.55,37.64 L81.26,38.35 L79.56,38.97 L77.51,39.48 L75.15,39.87 L72.54,40.11 L69.75,40.20 L66.95,40.11 L64.35,39.87 L61.99,39.48 L59.93,38.97 L58.23,38.35 L56.95,37.64 L56.14,36.86 L55.85,36.01 L56.14,35.17 L56.95,34.39 L58.23,33.69 L59.93,33.07 L61.99,32.57 L64.35,32.19 L66.95,31.95 L69.75,31.87 L72.54,31.95 L75.15,32.19 L77.51,32.58 L79.56,33.08 L81.26,33.70 L82.55,34.40 L83.36,35.18 L83.64,36.01 Z" fill="#50e6ff" stroke="#50e6ff" stroke-width="1" stroke-linejoin="round"/><path d="M69.75,37.06 L66.96,37.11 L64.19,37.39 L61.45,37.91 L58.76,38.67 L61.45,39.41 L64.19,39.91 L66.96,40.17 L69.75,40.20 L72.54,40.15 L75.31,39.87 L78.05,39.33 L80.73,38.56 L78.04,37.84 L75.30,37.35 L72.53,37.09 L69.75,37.06 Z" fill="#198ab3" stroke="#198ab3" stroke-width="1" stroke-linejoin="round"/><path d="M69.75,43.11 L66.10,42.98 L62.70,42.61 L59.63,42.02 L56.95,41.23 L54.74,40.27 L53.07,39.15 L52.02,37.91 L51.74,37.24 L51.65,36.56 L51.65,46.36 L54.96,46.66 L58.15,47.18 L61.12,47.93 L63.76,48.91 L65.98,50.12 L67.69,51.58 L68.33,52.40 L68.79,53.28 L69.08,54.22 L69.18,55.23 L69.18,78.00 L69.50,78.00 L69.75,78.00 L73.40,77.87 L76.80,77.50 L79.87,76.91 L82.55,76.12 L84.76,75.16 L86.43,74.05 L87.48,72.80 L87.76,72.14 L87.85,71.45 L87.85,36.55 L87.76,37.22 L87.48,37.88 L86.43,39.11 L84.76,40.22 L82.55,41.19 L79.87,41.99 L76.80,42.59 L73.40,42.97 L69.75,43.10 L69.75,43.11 Z" fill="#0077d2" stroke="#1e1e1e" stroke-width="1" stroke-linejoin="round"/><path d="M48.68,61.78 L45.03,61.65 L41.63,61.28 L38.56,60.69 L35.88,59.90 L33.67,58.94 L32.00,57.82 L30.95,56.58 L30.67,55.91 L30.58,55.23 L30.58,90.13 L30.67,90.79 L30.94,91.44 L31.98,92.65 L33.62,93.76 L35.80,94.73 L38.43,95.53 L41.47,96.13 L44.82,96.53 L48.42,96.68 L48.68,96.68 L52.32,96.55 L55.72,96.18 L58.79,95.59 L61.47,94.80 L63.68,93.84 L65.35,92.72 L66.41,91.48 L66.68,90.81 L66.77,90.13 L66.77,55.23 L66.68,55.90 L66.41,56.55 L65.35,57.78 L63.68,58.90 L61.47,59.87 L58.79,60.66 L55.72,61.26 L52.32,61.64 L48.68,61.78 L48.68,61.78 Z" fill="#0077d2" stroke="#1e1e1e" stroke-width="1" stroke-linejoin="round"/><path d="M66.77,55.23 L66.68,55.90 L66.41,56.55 L65.35,57.78 L63.68,58.90 L61.47,59.87 L58.79,60.66 L55.72,61.26 L52.32,61.64 L48.68,61.78 L45.03,61.65 L41.63,61.28 L38.56,60.69 L35.88,59.90 L33.67,58.94 L32.00,57.82 L30.95,56.58 L30.67,55.91 L30.58,55.23 L30.67,54.54 L30.95,53.87 L32.00,52.63 L33.67,51.52 L35.88,50.55 L38.56,49.77 L41.63,49.18 L45.03,48.80 L48.68,48.68 L52.32,48.80 L55.72,49.18 L58.79,49.77 L61.47,50.55 L63.68,51.52 L65.35,52.63 L66.41,53.87 L66.68,54.54 L66.77,55.23 Z" fill="#e8e8e8" stroke="#1e1e1e" stroke-width="1" stroke-linejoin="round"/><path d="M62.57,54.69 L62.29,55.53 L61.48,56.32 L60.19,57.03 L58.49,57.65 L56.44,58.16 L54.08,58.54 L51.47,58.79 L48.68,58.87 L45.88,58.79 L43.28,58.54 L40.92,58.16 L38.86,57.65 L37.16,57.03 L35.88,56.32 L35.06,55.53 L34.78,54.69 L35.06,53.85 L35.88,53.07 L37.16,52.36 L38.86,51.75 L40.92,51.24 L43.28,50.86 L45.88,50.63 L48.68,50.54 L51.47,50.63 L54.08,50.87 L56.44,51.25 L58.49,51.76 L60.19,52.37 L61.48,53.08 L62.29,53.86 L62.57,54.69 L62.57,54.69 Z" fill="#50e6ff" stroke="#50e6ff" stroke-width="1" stroke-linejoin="round"/><path d="M48.68,55.73 L45.89,55.78 L43.11,56.07 L40.38,56.59 L37.69,57.35 L40.38,58.08 L43.12,58.59 L45.89,58.85 L48.68,58.87 L51.47,58.83 L54.24,58.54 L56.98,58.01 L59.66,57.23 L56.97,56.51 L54.23,56.02 L51.46,55.76 L48.68,55.73 Z" fill="#198ab3" stroke="#198ab3" stroke-width="1" stroke-linejoin="round"/><path d="M24.11,22.59 L24.11,27.72 L27.60,27.60 L33.21,27.90 L35.93,28.29 L38.52,28.83 L38.06,27.09 L37.90,25.25 L38.12,23.07 L38.74,21.05 L39.74,19.22 L41.06,17.62 L42.65,16.30 L44.48,15.31 L46.51,14.68 L48.68,14.46 L50.85,14.68 L52.88,15.31 L54.71,16.30 L56.31,17.62 L57.62,19.22 L58.62,21.05 L59.25,23.07 L59.47,25.25 L59.30,27.09 L58.84,28.83 L61.43,28.29 L64.15,27.90 L69.75,27.60 L73.25,27.72 L73.25,22.30 L72.47,22.00 L66.46,20.04 L64.89,16.21 L67.93,9.73 L64.00,5.80 L63.21,6.19 L57.62,9.03 L53.80,7.46 L51.33,0.68 L45.73,0.68 L45.43,1.46 L43.47,7.47 L39.64,9.04 L33.25,5.99 L29.31,9.92 L29.71,10.70 L32.57,16.31 L31.00,20.13 L24.11,22.60 L24.11,22.59 Z" fill="#32d3f4" stroke="#1e1e1e" stroke-width="1" stroke-linejoin="round"/></svg>