<svg xmlns="http://www.w3.org/2000/svg" viewBox="0.81 0.75 100.00 99.66"><path d="M38.40,28.58 L31.23,28.32 L24.55,27.58 L18.50,26.41 L13.24,24.86 L10.94,23.95 L8.89,22.96 L7.10,21.89 L5.61,20.76 L4.41,19.56 L3.53,18.31 L2.99,17.01 L2.81,15.66 L2.81,84.21 L2.99,85.52 L3.52,86.79 L4.38,88.02 L5.56,89.20 L7.03,90.32 L8.79,91.38 L10.80,92.36 L13.07,93.28 L18.26,94.85 L24.22,96.05 L30.81,96.83 L37.89,97.12 L38.40,97.12 L45.57,96.87 L52.25,96.13 L58.30,94.96 L63.56,93.40 L65.86,92.49 L67.91,91.50 L69.70,90.44 L71.19,89.31 L72.39,88.11 L73.27,86.86 L73.81,85.56 L73.99,84.21 L73.99,15.66 L73.81,16.98 L73.27,18.27 L72.39,19.50 L71.19,20.69 L69.70,21.82 L67.91,22.88 L65.86,23.88 L63.56,24.79 L58.30,26.37 L52.25,27.56 L45.57,28.31 L38.40,28.58 Z" fill="#0077d2" stroke="#1e1e1e" stroke-width="1" stroke-linejoin="round"/><path d="M73.99,15.66 L73.81,16.98 L73.27,18.27 L72.39,19.50 L71.19,20.69 L69.70,21.82 L67.91,22.88 L65.86,23.88 L63.56,24.79 L58.30,26.37 L52.25,27.56 L45.57,28.31 L38.40,28.58 L31.23,28.31 L24.55,27.56 L18.50,26.37 L13.24,24.79 L10.94,23.88 L8.89,22.88 L7.10,21.82 L5.61,20.69 L4.41,19.50 L3.53,18.27 L2.99,16.98 L2.81,15.66 L2.99,14.34 L3.53,13.06 L4.41,11.82 L5.61,10.64 L7.10,9.51 L8.89,8.44 L10.94,7.45 L13.24,6.53 L18.50,4.96 L24.55,3.77 L31.23,3.01 L38.40,2.75 L45.57,3.01 L52.25,3.74 L58.30,4.91 L63.56,6.47 L65.86,7.38 L67.91,8.37 L69.70,9.43 L71.19,10.57 L72.39,11.76 L73.27,13.01 L73.81,14.32 L73.99,15.66 Z" fill="#e8e8e8" stroke="#1e1e1e" stroke-width="1" stroke-linejoin="round"/><path d="M65.68,14.60 L65.54,15.44 L65.13,16.25 L64.46,17.04 L63.54,17.80 L61.02,19.19 L57.68,20.40 L53.64,21.40 L49.01,22.15 L43.89,22.63 L38.40,22.79 L32.91,22.63 L27.81,22.15 L23.19,21.40 L19.17,20.40 L15.86,19.19 L13.36,17.80 L12.45,17.04 L11.78,16.25 L11.37,15.44 L11.23,14.60 L11.37,13.76 L11.78,12.94 L12.45,12.15 L13.36,11.40 L15.86,10.00 L19.17,8.79 L23.19,7.79 L27.81,7.04 L32.91,6.57 L38.40,6.40 L43.89,6.57 L49.01,7.05 L53.64,7.81 L57.68,8.81 L61.02,10.03 L63.54,11.42 L64.46,12.17 L65.13,12.95 L65.54,13.76 L65.68,14.60 Z" fill="#50e6ff" stroke="#1e1e1e" stroke-width="1" stroke-linejoin="round"/><path d="M38.40,16.51 L31.12,16.75 L23.90,17.79 L16.84,19.59 L23.91,21.49 L31.14,22.57 L38.46,22.79 L45.77,22.57 L53.01,21.49 L60.07,19.59 L52.97,17.78 L45.72,16.75 L38.40,16.51 L38.40,16.51 Z" fill="#198ab3" stroke="#198ab3" stroke-width="1" stroke-linejoin="round"/><path d="M60.29,62.32 L60.29,43.34 L55.07,43.34 L55.07,66.58 L68.88,66.58 L68.88,62.32 L60.29,62.32 Z" fill="#f2f2f2" stroke="#f2f2f2" stroke-width="1" stroke-linejoin="round"/><path d="M20.15,52.94 L18.65,52.18 L17.29,51.20 L16.89,50.35 L16.84,49.40 L17.08,48.42 L17.74,47.66 L18.87,47.17 L20.10,47.05 L22.07,47.19 L23.97,47.74 L25.71,48.67 L25.71,43.85 L22.95,43.13 L20.10,42.95 L17.71,43.04 L15.42,43.71 L13.36,44.91 L12.09,46.34 L11.30,48.07 L11.06,49.96 L11.14,51.01 L11.40,52.00 L11.83,52.93 L12.44,53.80 L14.19,55.39 L16.67,56.76 L18.45,57.66 L20.10,58.78 L20.76,59.57 L21.00,60.58 L20.76,61.55 L20.10,62.32 L18.89,62.85 L17.57,62.99 L15.26,62.71 L13.10,61.85 L11.23,60.46 L11.23,65.68 L14.15,66.69 L17.24,66.98 L19.55,66.84 L21.79,66.23 L23.86,65.18 L25.21,63.75 L26.04,61.97 L26.27,60.01 L25.95,57.91 L24.87,56.08 L22.68,54.26 L20.15,52.94 Z" fill="#f2f2f2" stroke="#f2f2f2" stroke-width="1" stroke-linejoin="round"/><path d="M49.35,61.75 L50.40,59.51 L51.03,57.10 L51.20,54.62 L50.88,51.45 L49.80,48.45 L48.14,46.06 L45.87,44.24 L43.16,43.14 L40.25,42.78 L37.09,43.14 L34.13,44.29 L31.77,46.16 L30.04,48.62 L28.90,51.75 L28.58,55.07 L28.89,58.10 L29.92,60.97 L31.53,63.34 L33.74,65.18 L36.44,66.36 L39.35,66.81 L44.13,72.42 L50.81,72.42 L44.07,66.19 L46.16,65.13 L47.95,63.63 L49.35,61.75 L49.35,61.75 Z" fill="#f2f2f2" stroke="#f2f2f2" stroke-width="1" stroke-linejoin="round"/><path d="M44.13,60.29 L42.63,61.54 L40.80,62.21 L38.86,62.21 L37.03,61.54 L35.54,60.29 L34.58,58.56 L34.04,56.66 L33.96,54.68 L34.05,52.70 L34.60,50.79 L35.59,49.07 L36.80,47.90 L38.31,47.19 L39.97,46.99 L41.58,47.20 L43.03,47.92 L44.18,49.07 L45.09,50.81 L45.61,52.71 L45.70,54.68 L45.67,56.72 L45.13,58.69 L44.13,60.46 L44.13,60.29 Z" fill="#0077d2" stroke="#0077d2" stroke-width="1" stroke-linejoin="round"/><path d="M83.14,98.19 L84.49,93.75 L87.13,92.24 L91.68,94.26 L94.60,91.28 L94.60,90.95 L92.52,86.96 L93.75,84.15 L98.30,82.53 L98.81,82.53 L98.81,78.43 L98.25,78.43 L93.75,77.08 L92.29,74.50 L94.26,69.89 L91.28,67.03 L90.95,67.03 L86.96,69.05 L84.21,67.37 L82.41,62.37 L78.26,62.37 L78.26,62.99 L76.91,67.42 L74.05,68.66 L69.16,66.41 L66.30,69.39 L66.58,69.95 L68.72,74.11 L67.59,76.97 L62.32,78.60 L62.32,82.75 L62.93,82.75 L67.37,84.10 L68.60,86.96 L66.41,91.79 L69.39,94.71 L69.89,94.43 L74.05,92.29 L76.91,93.42 L78.82,98.41 L82.92,98.41 L83.14,98.19 Z" fill="#949494" stroke="#949494" stroke-width="1" stroke-linejoin="round"/><path d="M76.41,84.94 L75.20,83.25 L74.64,81.25 L74.80,79.18 L75.66,77.30 L77.11,75.81 L78.99,74.92 L81.05,74.72 L83.06,75.23 L84.77,76.41 L85.98,78.09 L86.54,80.09 L86.38,82.16 L85.52,84.05 L84.07,85.53 L82.19,86.43 L80.13,86.63 L78.12,86.11 L76.41,84.94 L76.41,84.94 Z" fill="#ffffff" stroke="#ffffff" stroke-width="1" stroke-linejoin="round"/></svg>