<svg xmlns="http://www.w3.org/2000/svg" viewBox="11.81 0.67 72.37 94.67"><path d="M48.00,27.41 L41.11,27.17 L34.69,26.47 L28.89,25.35 L23.83,23.87 L21.62,23.00 L19.65,22.05 L17.94,21.03 L16.50,19.94 L15.35,18.80 L14.51,17.59 L13.99,16.34 L13.81,15.04 L13.81,80.96 L13.99,82.21 L14.50,83.43 L15.32,84.61 L16.45,85.74 L17.87,86.81 L19.56,87.82 L21.49,88.77 L23.67,89.65 L28.65,91.16 L34.38,92.31 L40.71,93.05 L47.52,93.33 L48.00,93.33 L54.89,93.09 L61.31,92.39 L67.11,91.27 L72.17,89.79 L74.38,88.92 L76.35,87.97 L78.06,86.95 L79.50,85.86 L80.65,84.72 L81.49,83.51 L82.01,82.26 L82.19,80.96 L82.19,15.04 L82.01,16.31 L81.49,17.55 L80.65,18.74 L79.50,19.88 L78.06,20.96 L76.35,21.98 L74.38,22.93 L72.17,23.81 L67.11,25.31 L61.31,26.45 L54.89,27.16 L48.00,27.41 Z" fill="#0077d2" stroke="#1e1e1e" stroke-width="1" stroke-linejoin="round"/><path d="M82.19,15.04 L82.01,16.31 L81.49,17.55 L80.65,18.74 L79.50,19.88 L78.06,20.96 L76.35,21.98 L74.38,22.93 L72.17,23.81 L67.11,25.31 L61.31,26.45 L54.89,27.16 L48.00,27.41 L41.11,27.17 L34.69,26.47 L28.89,25.35 L23.83,23.87 L21.62,23.00 L19.65,22.05 L17.94,21.03 L16.50,19.94 L15.35,18.80 L14.51,17.59 L13.99,16.34 L13.81,15.04 L13.99,13.74 L14.51,12.49 L15.35,11.28 L16.50,10.14 L17.94,9.05 L19.65,8.03 L21.62,7.08 L23.83,6.21 L28.89,4.73 L34.69,3.61 L41.11,2.91 L48.00,2.67 L54.89,2.91 L61.31,3.61 L67.11,4.73 L72.17,6.21 L74.38,7.08 L76.35,8.03 L78.06,9.05 L79.50,10.14 L80.65,11.28 L81.49,12.49 L82.01,13.74 L82.19,15.04 Z" fill="#e8e8e8" stroke="#1e1e1e" stroke-width="1" stroke-linejoin="round"/><path d="M74.24,14.03 L74.10,14.84 L73.71,15.62 L73.06,16.38 L72.17,17.10 L69.75,18.45 L66.54,19.61 L62.65,20.58 L58.20,21.30 L53.28,21.76 L48.00,21.92 L42.72,21.76 L37.80,21.30 L33.35,20.58 L29.46,19.61 L26.25,18.45 L23.83,17.11 L22.94,16.38 L22.29,15.62 L21.90,14.84 L21.76,14.03 L21.90,13.22 L22.29,12.43 L22.94,11.68 L23.83,10.96 L26.25,9.62 L29.46,8.47 L33.35,7.51 L37.80,6.80 L42.72,6.34 L48.00,6.19 L53.28,6.35 L58.20,6.80 L62.65,7.53 L66.54,8.49 L69.75,9.65 L72.17,10.98 L73.06,11.70 L73.71,12.45 L74.10,13.23 L74.24,14.03 Z" fill="#50e6ff" stroke="#1e1e1e" stroke-width="1" stroke-linejoin="round"/><path d="M48.00,16.00 L40.98,16.22 L34.04,17.24 L27.25,19.04 L34.04,20.80 L40.99,21.76 L48.00,21.92 L55.02,21.71 L61.97,20.67 L68.75,18.83 L61.95,17.12 L55.01,16.17 L48.00,16.00 L48.00,16.00 Z" fill="#198ab3" stroke="#198ab3" stroke-width="1" stroke-linejoin="round"/><path d="M68.80,60.80 L68.80,42.67 L64.00,42.67 L64.00,64.69 L77.12,64.69 L77.12,60.80 L68.80,60.80 Z" fill="#efefef" stroke="#efefef" stroke-width="1" stroke-linejoin="round"/><path d="M30.72,51.89 L29.29,51.18 L28.00,50.24 L27.51,49.45 L27.36,48.53 L27.55,47.63 L28.16,46.93 L29.23,46.43 L30.40,46.29 L32.28,46.41 L34.08,46.94 L35.73,47.84 L35.73,43.25 L33.11,42.56 L30.40,42.40 L28.34,42.54 L26.36,43.15 L24.59,44.21 L23.35,45.53 L22.57,47.17 L22.35,48.96 L22.43,49.95 L22.67,50.89 L23.08,51.78 L23.65,52.61 L25.32,54.11 L27.68,55.41 L29.39,56.27 L30.99,57.33 L31.57,58.10 L31.79,59.04 L31.56,59.97 L30.93,60.69 L29.78,61.16 L28.53,61.28 L26.43,61.01 L24.46,60.25 L22.72,59.04 L22.72,64.00 L25.49,65.01 L28.43,65.28 L30.64,65.17 L32.77,64.57 L34.72,63.52 L35.81,62.11 L36.41,60.44 L36.48,58.67 L36.15,56.68 L35.15,54.93 L33.09,53.18 L30.72,51.89 Z" fill="#efefef" stroke="#efefef" stroke-width="1" stroke-linejoin="round"/><path d="M58.67,60.37 L59.67,58.26 L60.27,55.99 L60.43,53.65 L59.89,50.72 L58.67,48.00 L57.09,45.73 L54.93,44.00 L52.36,42.96 L49.60,42.61 L46.62,42.95 L43.84,44.05 L41.61,45.75 L39.95,48.00 L38.89,50.96 L38.56,54.08 L38.89,56.82 L39.84,59.41 L41.39,61.66 L43.52,63.36 L46.08,64.50 L48.85,64.96 L53.44,70.29 L59.89,70.29 L53.33,64.43 L55.42,63.52 L57.23,62.14 L58.67,60.37 L58.67,60.37 Z" fill="#efefef" stroke="#efefef" stroke-width="1" stroke-linejoin="round"/><path d="M53.33,59.04 L52.20,60.07 L50.80,60.72 L49.28,60.91 L47.75,60.71 L46.35,60.05 L45.23,58.99 L44.30,57.35 L43.77,55.54 L43.68,53.65 L43.78,51.77 L44.30,49.96 L45.23,48.32 L46.39,47.25 L47.82,46.58 L49.39,46.35 L50.92,46.54 L52.30,47.22 L53.39,48.32 L54.25,49.98 L54.74,51.78 L54.83,53.65 L54.78,55.55 L54.27,57.39 L53.33,59.04 Z" fill="#0077d2" stroke="#0077d2" stroke-width="1" stroke-linejoin="round"/></svg>