<svg xmlns="http://www.w3.org/2000/svg" viewBox="0.13 4.61 95.57 86.77"><path d="M33.39,29.23 L27.05,29.00 L21.17,28.34 L15.86,27.29 L11.24,25.91 L7.44,24.24 L5.88,23.31 L4.57,22.32 L3.53,21.28 L2.76,20.20 L2.29,19.08 L2.13,17.92 L2.13,78.08 L2.29,79.23 L2.76,80.34 L3.52,81.42 L4.56,82.45 L5.87,83.43 L7.42,84.36 L11.19,86.03 L15.75,87.42 L20.99,88.47 L26.77,89.14 L32.96,89.39 L33.39,89.39 L39.67,89.15 L45.53,88.46 L50.83,87.38 L55.45,85.97 L59.26,84.28 L60.82,83.35 L62.13,82.37 L63.18,81.34 L63.95,80.28 L64.43,79.19 L64.59,78.08 L64.59,17.92 L64.43,19.08 L63.95,20.20 L63.18,21.28 L62.13,22.32 L60.82,23.31 L59.26,24.24 L55.45,25.91 L50.83,27.29 L45.53,28.34 L39.67,29.00 L33.39,29.23 Z" fill="#0077d2" stroke="#1e1e1e" stroke-width="1" stroke-linejoin="round"/><path d="M64.59,17.92 L64.43,19.08 L63.95,20.20 L63.18,21.28 L62.13,22.32 L60.82,23.31 L59.26,24.24 L55.45,25.91 L50.83,27.29 L45.53,28.34 L39.67,29.00 L33.39,29.23 L27.10,29.00 L21.24,28.34 L15.93,27.29 L11.30,25.91 L7.48,24.24 L5.91,23.31 L4.59,22.32 L3.54,21.28 L2.77,20.20 L2.30,19.08 L2.13,17.92 L2.29,16.76 L2.76,15.64 L3.53,14.56 L4.57,13.52 L5.88,12.53 L7.44,11.60 L11.24,9.93 L15.86,8.55 L21.17,7.50 L27.05,6.84 L33.39,6.61 L39.72,6.85 L45.60,7.54 L50.90,8.62 L55.51,10.03 L59.30,11.72 L60.85,12.65 L62.16,13.63 L63.20,14.66 L63.96,15.72 L64.43,16.81 L64.59,17.92 L64.59,17.92 Z" fill="#e8e8e8" stroke="#1e1e1e" stroke-width="1" stroke-linejoin="round"/><path d="M57.33,17.01 L57.21,17.74 L56.85,18.46 L56.26,19.14 L55.46,19.80 L53.26,21.03 L50.34,22.09 L46.80,22.98 L42.73,23.64 L38.23,24.07 L33.39,24.21 L28.54,24.07 L24.04,23.64 L19.97,22.98 L16.43,22.09 L13.52,21.03 L11.31,19.80 L10.51,19.14 L9.92,18.46 L9.56,17.74 L9.44,17.01 L9.56,16.28 L9.92,15.57 L10.51,14.88 L11.31,14.22 L13.52,13.00 L16.43,11.93 L19.97,11.05 L24.04,10.38 L28.54,9.96 L33.39,9.81 L38.23,9.96 L42.73,10.38 L46.80,11.04 L50.34,11.91 L53.26,12.98 L55.46,14.20 L56.26,14.86 L56.85,15.56 L57.21,16.27 L57.33,17.01 Z" fill="#50e6ff" stroke="#1e1e1e" stroke-width="1" stroke-linejoin="round"/><path d="M33.39,18.67 L26.97,18.86 L20.62,19.75 L14.40,21.33 L20.61,23.00 L26.96,23.95 L33.39,24.16 L39.79,23.95 L46.13,23.00 L52.32,21.33 L46.12,19.75 L39.78,18.85 L33.39,18.67 Z" fill="#198ab3" stroke="#198ab3" stroke-width="1" stroke-linejoin="round"/><path d="M52.37,59.68 L52.37,43.25 L48.00,43.25 L48.00,63.36 L59.95,63.36 L59.95,59.68 L52.37,59.68 Z" fill="#efefef" stroke="#efefef" stroke-width="1" stroke-linejoin="round"/><path d="M17.60,51.57 L16.30,50.90 L15.09,50.08 L14.65,49.34 L14.51,48.48 L14.70,47.65 L15.25,46.99 L16.25,46.55 L17.33,46.45 L19.77,46.88 L21.97,48.00 L21.97,43.68 L19.57,42.94 L17.07,42.67 L15.17,42.79 L13.36,43.35 L11.73,44.32 L10.62,45.52 L9.92,47.01 L9.71,48.64 L10.12,50.59 L11.10,52.32 L12.55,53.69 L14.35,54.56 L15.89,55.32 L17.33,56.27 L17.87,56.99 L18.08,57.87 L17.88,58.72 L17.28,59.36 L16.26,59.83 L15.15,59.95 L13.21,59.70 L11.40,59.00 L9.81,57.87 L9.81,62.35 L12.40,63.28 L15.15,63.52 L17.15,63.41 L19.08,62.87 L20.85,61.92 L22.01,60.69 L22.73,59.17 L22.93,57.49 L22.67,55.67 L21.76,54.08 L19.81,52.61 L17.60,51.57 L17.60,51.57 Z" fill="#efefef" stroke="#efefef" stroke-width="1" stroke-linejoin="round"/><path d="M42.67,59.31 L43.64,57.44 L44.25,55.43 L44.48,53.33 L44.20,50.59 L43.25,48.00 L41.83,45.95 L39.89,44.37 L37.50,43.18 L34.88,42.67 L32.12,42.97 L29.55,44.00 L27.48,45.73 L26.03,48.00 L25.15,50.60 L24.85,53.33 L25.15,56.06 L26.03,58.67 L27.46,60.71 L29.39,62.29 L31.66,63.43 L34.13,64.00 L38.29,68.64 L44.16,68.64 L38.35,63.31 L40.09,62.32 L41.55,60.97 L42.67,59.31 L42.67,59.31 Z" fill="#efefef" stroke="#efefef" stroke-width="1" stroke-linejoin="round"/><path d="M38.13,58.08 L37.09,59.04 L35.80,59.62 L34.40,59.79 L33.00,59.61 L31.73,59.00 L30.72,58.03 L29.74,55.78 L29.55,53.33 L29.65,51.65 L30.14,50.04 L30.99,48.59 L32.01,47.58 L33.30,46.95 L34.72,46.77 L36.13,46.95 L37.40,47.58 L38.40,48.59 L39.47,50.88 L39.73,53.39 L39.64,55.04 L39.17,56.64 L38.35,58.08 L38.13,58.08 Z" fill="#0077d2" stroke="#0077d2" stroke-width="1" stroke-linejoin="round"/><path d="M77.76,7.15 L58.29,7.15 L57.52,7.35 L56.95,7.92 L56.75,8.69 L56.75,50.67 L56.95,51.44 L57.52,52.01 L58.29,52.21 L92.05,52.21 L92.83,52.01 L93.39,51.44 L93.60,50.67 L93.60,22.88 L93.39,22.11 L92.83,21.54 L92.05,21.33 L80.85,21.33 L80.08,21.13 L79.51,20.56 L79.31,19.79 L79.31,8.69 L79.10,7.92 L78.53,7.35 L77.76,7.15 L77.76,7.15 Z" fill="#ffffff" stroke="#1e1e1e" stroke-width="1" stroke-linejoin="round"/><path d="M77.65,6.83 L57.92,6.83 L57.12,7.02 L56.54,7.58 L56.32,8.37 L56.32,51.04 L56.54,51.83 L57.12,52.40 L57.92,52.59 L92.16,52.59 L92.93,52.38 L93.50,51.81 L93.71,51.04 L93.71,22.77 L93.28,21.80 L92.32,21.33 L80.91,21.33 L80.13,21.13 L79.57,20.56 L79.36,19.79 L79.36,8.37 L79.15,7.60 L78.59,7.03 L77.81,6.83 L77.65,6.83 Z" fill="#50e6ff" stroke="#1e1e1e" stroke-width="1" stroke-linejoin="round"/><path d="M77.07,9.12 L77.07,19.79 L77.36,21.26 L78.19,22.50 L79.44,23.33 L80.91,23.63 L91.57,23.63 L91.57,50.29 L58.67,50.29 L58.67,9.12 L76.91,9.12 L77.07,9.12 Z" fill="#ffffff" stroke="#1e1e1e" stroke-width="1" stroke-linejoin="round"/><path d="M93.28,21.33 L78.83,6.93 L78.83,18.67 L79.17,19.98 L80.13,20.96 L81.44,21.33 L93.28,21.33 Z" fill="#32bedd" stroke="#32bedd" stroke-width="1" stroke-linejoin="round"/><path d="M84.59,31.36 L84.96,31.41 L85.31,31.55 L85.60,31.78 L85.83,32.08 L85.98,32.43 L86.03,32.80 L86.03,32.80 L85.98,33.17 L85.83,33.52 L85.60,33.82 L85.31,34.05 L84.96,34.19 L84.59,34.24 L65.71,34.24 L65.33,34.19 L64.99,34.05 L64.69,33.82 L64.46,33.52 L64.32,33.17 L64.27,32.80 L64.27,32.80 L64.32,32.43 L64.46,32.08 L64.69,31.78 L64.99,31.55 L65.33,31.41 L65.71,31.36 L84.59,31.36 Z" fill="#32bedd" stroke="#32bedd" stroke-width="1" stroke-linejoin="round"/><path d="M84.59,36.21 L84.96,36.26 L85.31,36.41 L85.60,36.64 L85.83,36.93 L85.98,37.28 L86.03,37.65 L86.03,37.65 L85.98,38.03 L85.83,38.37 L85.60,38.67 L85.31,38.90 L84.96,39.04 L84.59,39.09 L65.71,39.09 L65.33,39.04 L64.99,38.90 L64.69,38.67 L64.46,38.37 L64.32,38.03 L64.27,37.65 L64.27,37.65 L64.32,37.28 L64.46,36.93 L64.69,36.64 L64.99,36.41 L65.33,36.26 L65.71,36.21 L84.59,36.21 Z" fill="#32bedd" stroke="#32bedd" stroke-width="1" stroke-linejoin="round"/><path d="M74.61,41.17 L74.96,41.22 L75.28,41.35 L75.56,41.56 L75.77,41.84 L75.90,42.16 L75.95,42.51 L75.95,42.51 L75.90,42.85 L75.77,43.17 L75.56,43.45 L75.28,43.66 L74.96,43.79 L74.61,43.84 L65.60,43.84 L65.25,43.79 L64.93,43.66 L64.66,43.45 L64.45,43.17 L64.31,42.85 L64.27,42.51 L64.27,42.51 L64.31,42.16 L64.45,41.84 L64.66,41.56 L64.93,41.35 L65.25,41.22 L65.60,41.17 L74.61,41.17 Z" fill="#32bedd" stroke="#32bedd" stroke-width="1" stroke-linejoin="round"/></svg>