<svg xmlns="http://www.w3.org/2000/svg" viewBox="0.82 1.44 100.00 98.76"><path d="M58.28,94.64 L57.83,96.24 L56.66,97.42 L55.06,97.86 L6.04,97.86 L4.43,97.43 L3.25,96.25 L2.82,94.64 L2.82,6.66 L3.24,5.04 L4.42,3.86 L6.04,3.44 L55.06,3.44 L56.67,3.88 L57.85,5.05 L58.28,6.66 L58.28,94.64 Z" fill="#a1a1a1" stroke="#1e1e1e" stroke-width="1" stroke-linejoin="round"/><path d="M10.96,36.54 L11.26,34.69 L12.12,33.03 L13.44,31.71 L15.10,30.86 L16.94,30.55 L44.61,30.55 L46.51,30.80 L48.23,31.63 L49.61,32.96 L50.50,34.65 L50.82,36.54 L50.82,36.54 L50.52,38.44 L49.63,40.14 L48.25,41.49 L46.52,42.33 L44.61,42.58 L16.94,42.58 L15.09,42.27 L13.42,41.41 L12.10,40.07 L11.25,38.39 L10.96,36.54 Z" fill="#003067" stroke="#1e1e1e" stroke-width="1" stroke-linejoin="round"/><path d="M10.96,18.69 L11.25,16.84 L12.10,15.16 L13.42,13.82 L15.09,12.96 L16.94,12.65 L44.61,12.65 L46.52,12.90 L48.25,13.74 L49.63,15.08 L50.52,16.79 L50.82,18.69 L50.82,18.69 L50.50,20.58 L49.61,22.27 L48.23,23.60 L46.51,24.43 L44.61,24.68 L16.94,24.68 L15.10,24.37 L13.44,23.52 L12.12,22.20 L11.26,20.53 L10.96,18.69 L10.96,18.69 Z" fill="#003067" stroke="#1e1e1e" stroke-width="1" stroke-linejoin="round"/><ellipse cx="17.28" cy="18.69" rx="4.07" ry="4.07" fill="#50e6ff" stroke="#50e6ff" stroke-width="1"/><ellipse cx="17.28" cy="36.54" rx="4.07" ry="4.07" fill="#50e6ff" stroke="#50e6ff" stroke-width="1"/><path d="M98.82,79.51 L98.32,75.74 L97.07,72.15 L95.14,68.88 L92.59,66.06 L89.53,63.81 L86.09,62.21 L82.39,61.33 L81.71,56.76 L80.16,52.42 L77.80,48.45 L74.72,45.02 L71.04,42.24 L66.89,40.22 L62.43,39.04 L57.83,38.74 L53.55,39.01 L49.39,40.03 L45.47,41.76 L41.92,44.15 L38.83,47.12 L36.32,50.59 L34.45,54.44 L30.53,55.27 L26.82,56.78 L23.43,58.92 L20.48,61.62 L18.05,64.81 L16.22,68.37 L15.05,72.20 L14.57,76.18 L15.18,80.62 L16.65,84.86 L18.91,88.73 L21.88,92.09 L25.45,94.81 L29.48,96.77 L33.81,97.92 L38.29,98.20 L40.38,98.20 L79.06,98.20 L80.02,98.20 L83.65,97.79 L87.14,96.69 L90.35,94.96 L93.18,92.64 L95.52,89.83 L97.27,86.62 L98.39,83.14 L98.82,79.51 Z" fill="#3990e4" stroke="#1e1e1e" stroke-width="1" stroke-linejoin="round"/><path d="M76.86,81.60 L76.86,62.63 L71.60,62.63 L71.60,85.89 L85.44,85.89 L85.44,81.60 L76.86,81.60 Z" fill="#f2f2f2" stroke="#f2f2f2" stroke-width="1" stroke-linejoin="round"/><path d="M36.76,72.28 L35.26,71.50 L33.88,70.53 L33.36,69.70 L33.20,68.72 L33.40,67.77 L34.05,67.03 L35.18,66.49 L36.42,66.35 L38.41,66.49 L40.32,67.05 L42.07,67.99 L42.07,63.13 L39.28,62.46 L36.42,62.29 L34.25,62.43 L32.16,63.06 L30.27,64.15 L28.99,65.56 L28.19,67.29 L27.95,69.18 L28.43,71.41 L29.55,73.39 L31.21,74.96 L33.26,75.95 L35.06,76.85 L36.71,77.99 L37.33,78.80 L37.55,79.79 L37.35,80.75 L36.71,81.49 L35.49,82.03 L34.16,82.16 L31.96,81.88 L29.89,81.07 L28.07,79.79 L28.07,84.99 L30.90,85.98 L33.88,86.29 L36.14,86.22 L38.34,85.69 L40.38,84.71 L41.74,83.29 L42.58,81.52 L42.80,79.57 L42.48,77.45 L41.39,75.61 L39.26,73.70 L36.76,72.28 L36.76,72.28 Z" fill="#f2f2f2" stroke="#f2f2f2" stroke-width="1" stroke-linejoin="round"/><path d="M65.90,81.20 L66.96,78.96 L67.59,76.56 L67.76,74.09 L67.46,70.84 L66.35,67.76 L64.71,65.39 L62.46,63.59 L59.57,62.42 L56.47,62.12 L53.55,62.60 L50.82,63.76 L48.45,65.63 L46.70,68.10 L45.56,71.23 L45.18,74.54 L45.50,77.59 L46.53,80.47 L48.17,82.82 L50.37,84.65 L53.09,85.84 L56.02,86.29 L60.82,91.93 L67.60,91.93 L60.88,85.72 L62.88,84.61 L64.58,83.08 L65.90,81.20 Z" fill="#f2f2f2" stroke="#f2f2f2" stroke-width="1" stroke-linejoin="round"/><path d="M60.65,79.79 L59.45,80.90 L57.97,81.58 L56.36,81.77 L54.75,81.56 L53.29,80.86 L52.12,79.74 L51.15,78.00 L50.62,76.08 L50.54,74.09 L50.62,72.09 L51.18,70.17 L52.18,68.44 L53.37,67.28 L54.88,66.56 L56.53,66.35 L58.13,66.56 L59.58,67.28 L60.71,68.44 L61.66,70.19 L62.20,72.10 L62.29,74.09 L62.21,76.11 L61.66,78.05 L60.65,79.79 Z" fill="#3990e4" stroke="#3990e4" stroke-width="1" stroke-linejoin="round"/></svg>