<svg xmlns="http://www.w3.org/2000/svg" viewBox="-3.34 -3.33 102.66 102.66"><path d="M-1.34,48.00 L47.99,-1.33 L97.32,48.00 L47.99,97.33 L-1.34,48.00 Z" fill="#0070c7" stroke="#1e1e1e" stroke-width="1" stroke-linejoin="round"/><path d="M48.00,18.19 L44.44,17.96 L41.54,17.34 L40.43,16.91 L39.59,16.41 L39.06,15.85 L38.88,15.25 L38.88,30.77 L39.06,31.34 L39.58,31.88 L40.41,32.36 L41.50,32.79 L44.35,33.42 L47.84,33.65 L48.00,33.65 L51.54,33.43 L54.44,32.81 L55.56,32.39 L56.40,31.90 L56.93,31.36 L57.12,30.77 L57.12,15.25 L56.96,15.85 L56.47,16.41 L55.66,16.91 L54.58,17.34 L51.68,17.96 L48.00,18.19 Z" fill="#50e6ff" stroke="#1e1e1e" stroke-width="1" stroke-linejoin="round"/><path d="M57.17,15.25 L56.99,15.85 L56.45,16.41 L55.61,16.91 L54.49,17.34 L51.59,17.96 L48.05,18.19 L44.51,17.96 L41.61,17.34 L40.50,16.91 L39.65,16.41 L39.12,15.85 L38.93,15.25 L39.12,14.65 L39.64,14.11 L40.48,13.62 L41.59,13.19 L44.47,12.59 L48.00,12.37 L51.54,12.60 L54.44,13.21 L55.56,13.64 L56.40,14.13 L56.93,14.67 L57.12,15.25 L57.17,15.25 Z" fill="#eaeaea" stroke="#eaeaea" stroke-width="1" stroke-linejoin="round"/><path d="M55.04,15.04 L54.90,15.41 L54.49,15.76 L52.99,16.35 L50.77,16.76 L48.05,16.91 L45.34,16.75 L43.12,16.33 L41.62,15.74 L41.21,15.40 L41.07,15.04 L41.21,14.68 L41.61,14.34 L43.09,13.75 L45.30,13.33 L48.00,13.17 L50.71,13.32 L52.93,13.73 L54.44,14.32 L54.84,14.67 L54.99,15.04 L55.04,15.04 Z" fill="#50e6ff" stroke="#50e6ff" stroke-width="1" stroke-linejoin="round"/><path d="M48.00,15.47 L45.31,15.54 L42.67,16.00 L45.31,16.57 L48.00,16.75 L50.69,16.57 L53.33,16.00 L50.69,15.55 L48.00,15.47 L48.00,15.47 Z" fill="#32bedd" stroke="#32bedd" stroke-width="1" stroke-linejoin="round"/><path d="M48.00,68.37 L44.44,68.15 L41.54,67.53 L40.43,67.09 L39.59,66.60 L39.06,66.04 L38.88,65.44 L38.88,80.96 L39.06,81.53 L39.58,82.06 L40.41,82.55 L41.50,82.98 L44.35,83.61 L47.84,83.84 L48.00,83.84 L51.54,83.61 L54.44,83.00 L55.56,82.57 L56.40,82.08 L56.93,81.54 L57.12,80.96 L57.12,65.44 L56.96,66.04 L56.47,66.60 L55.66,67.09 L54.58,67.53 L51.68,68.15 L48.00,68.37 Z" fill="#50e6ff" stroke="#1e1e1e" stroke-width="1" stroke-linejoin="round"/><path d="M57.17,65.44 L56.99,66.04 L56.45,66.60 L55.61,67.09 L54.49,67.53 L51.59,68.15 L48.05,68.37 L44.51,68.15 L41.61,67.53 L40.50,67.09 L39.65,66.60 L39.12,66.04 L38.93,65.44 L39.12,64.84 L39.65,64.29 L40.48,63.80 L41.59,63.38 L44.49,62.78 L48.05,62.56 L51.62,62.79 L54.51,63.40 L55.62,63.83 L56.46,64.31 L56.99,64.86 L57.17,65.44 L57.17,65.44 Z" fill="#eaeaea" stroke="#eaeaea" stroke-width="1" stroke-linejoin="round"/><path d="M55.04,65.23 L54.90,65.60 L54.49,65.95 L52.99,66.54 L50.77,66.94 L48.05,67.09 L45.34,66.94 L43.12,66.54 L41.62,65.95 L41.21,65.60 L41.07,65.23 L41.21,64.86 L41.61,64.51 L43.10,63.91 L45.32,63.51 L48.05,63.36 L50.79,63.51 L53.01,63.91 L54.50,64.51 L54.90,64.86 L55.04,65.23 Z" fill="#50e6ff" stroke="#50e6ff" stroke-width="1" stroke-linejoin="round"/><path d="M48.00,65.65 L45.31,65.81 L42.67,66.35 L45.31,66.91 L48.00,67.09 L50.69,66.91 L53.33,66.35 L50.69,65.81 L48.00,65.65 L48.00,65.65 Z" fill="#32bedd" stroke="#32bedd" stroke-width="1" stroke-linejoin="round"/><path d="M70.51,43.15 L66.83,42.92 L63.95,42.31 L62.87,41.88 L62.06,41.39 L61.56,40.85 L61.39,40.27 L61.39,55.73 L61.57,56.32 L62.09,56.86 L62.92,57.35 L64.01,57.78 L66.88,58.41 L70.40,58.67 L70.40,58.67 L73.94,58.43 L76.84,57.80 L77.96,57.36 L78.80,56.87 L79.33,56.32 L79.52,55.73 L79.52,40.27 L79.37,40.85 L78.86,41.39 L78.04,41.88 L76.93,42.31 L74.04,42.92 L70.51,43.15 Z" fill="#50e6ff" stroke="#1e1e1e" stroke-width="1" stroke-linejoin="round"/><path d="M79.63,40.27 L79.44,40.85 L78.91,41.39 L78.06,41.88 L76.95,42.31 L74.05,42.92 L70.51,43.15 L66.97,42.92 L64.07,42.31 L62.95,41.88 L62.11,41.39 L61.57,40.85 L61.39,40.27 L61.57,39.68 L62.10,39.13 L62.94,38.64 L64.05,38.20 L66.94,37.57 L70.51,37.33 L74.07,37.57 L76.97,38.20 L78.08,38.64 L78.91,39.13 L79.44,39.68 L79.63,40.27 Z" fill="#eaeaea" stroke="#eaeaea" stroke-width="1" stroke-linejoin="round"/><path d="M77.49,40.00 L77.35,40.39 L76.94,40.74 L75.44,41.33 L73.22,41.72 L70.51,41.87 L67.79,41.72 L65.57,41.33 L64.07,40.74 L63.66,40.39 L63.52,40.00 L63.66,39.62 L64.06,39.27 L65.55,38.69 L67.77,38.32 L70.51,38.19 L73.24,38.33 L75.46,38.71 L76.95,39.29 L77.35,39.63 L77.49,40.00 Z" fill="#50e6ff" stroke="#50e6ff" stroke-width="1" stroke-linejoin="round"/><path d="M70.51,40.43 L67.81,40.61 L65.17,41.17 L67.82,41.71 L70.51,41.87 L73.20,41.71 L75.84,41.17 L73.20,40.61 L70.51,40.43 L70.51,40.43 Z" fill="#32bedd" stroke="#32bedd" stroke-width="1" stroke-linejoin="round"/><path d="M26.24,43.15 L22.68,42.92 L19.78,42.31 L18.67,41.88 L17.83,41.39 L17.30,40.85 L17.12,40.27 L17.12,55.73 L17.30,56.32 L17.82,56.86 L18.65,57.35 L19.74,57.78 L22.59,58.41 L26.08,58.67 L26.08,58.67 L29.62,58.43 L32.52,57.80 L33.64,57.36 L34.48,56.87 L35.01,56.32 L35.20,55.73 L35.20,40.27 L35.07,40.85 L34.57,41.39 L33.76,41.88 L32.66,42.31 L29.78,42.92 L26.24,43.15 Z" fill="#50e6ff" stroke="#1e1e1e" stroke-width="1" stroke-linejoin="round"/><path d="M35.36,40.27 L35.17,40.85 L34.64,41.39 L33.80,41.88 L32.68,42.31 L29.78,42.92 L26.24,43.15 L22.70,42.92 L19.80,42.31 L18.68,41.88 L17.84,41.39 L17.31,40.85 L17.12,40.27 L17.31,39.68 L17.85,39.13 L18.71,38.64 L19.84,38.20 L22.74,37.57 L26.24,37.33 L29.73,37.57 L32.64,38.20 L33.77,38.64 L34.62,39.13 L35.17,39.68 L35.36,40.27 Z" fill="#eaeaea" stroke="#eaeaea" stroke-width="1" stroke-linejoin="round"/><path d="M33.23,40.00 L33.08,40.39 L32.67,40.74 L31.17,41.33 L28.95,41.72 L26.24,41.87 L23.53,41.72 L21.31,41.33 L19.80,40.74 L19.40,40.39 L19.25,40.00 L19.39,39.62 L19.80,39.27 L21.29,38.69 L23.51,38.32 L26.24,38.19 L28.97,38.33 L31.19,38.71 L32.68,39.29 L33.09,39.63 L33.23,40.00 Z" fill="#50e6ff" stroke="#50e6ff" stroke-width="1" stroke-linejoin="round"/><path d="M26.24,40.43 L23.55,40.61 L20.91,41.17 L23.55,41.71 L26.24,41.87 L28.93,41.71 L31.57,41.17 L28.93,40.61 L26.24,40.43 L26.24,40.43 Z" fill="#32bedd" stroke="#32bedd" stroke-width="1" stroke-linejoin="round"/></svg>