<svg xmlns="http://www.w3.org/2000/svg" viewBox="0.24 4.93 100.00 90.77"><path d="M35.00,30.64 L28.36,30.40 L22.19,29.71 L16.62,28.61 L11.78,27.17 L7.80,25.41 L6.16,24.43 L4.79,23.40 L3.70,22.31 L2.90,21.17 L2.40,20.00 L2.24,18.79 L2.24,81.85 L2.40,83.06 L2.90,84.22 L3.70,85.35 L4.79,86.43 L6.15,87.47 L7.77,88.44 L11.73,90.19 L16.51,91.64 L22.00,92.74 L28.06,93.45 L34.55,93.71 L35.00,93.71 L41.59,93.46 L47.73,92.74 L53.29,91.61 L58.13,90.13 L62.12,88.36 L63.76,87.38 L65.14,86.35 L66.24,85.27 L67.04,84.16 L67.54,83.02 L67.71,81.85 L67.71,18.79 L67.54,20.00 L67.04,21.17 L66.24,22.31 L65.14,23.40 L63.76,24.43 L62.12,25.41 L58.13,27.17 L53.29,28.61 L47.73,29.71 L41.59,30.40 L35.00,30.64 Z" fill="#0077d2" stroke="#1e1e1e" stroke-width="1" stroke-linejoin="round"/><path d="M67.71,18.79 L67.54,20.00 L67.04,21.17 L66.24,22.31 L65.14,23.40 L63.76,24.43 L62.12,25.41 L58.13,27.17 L53.29,28.61 L47.73,29.71 L41.59,30.40 L35.00,30.64 L28.41,30.40 L22.26,29.71 L16.70,28.61 L11.85,27.17 L7.84,25.41 L6.20,24.43 L4.82,23.40 L3.71,22.31 L2.90,21.17 L2.41,20.00 L2.24,18.79 L2.40,17.58 L2.90,16.40 L3.70,15.26 L4.79,14.17 L6.16,13.14 L7.80,12.16 L11.78,10.41 L16.62,8.96 L22.19,7.87 L28.36,7.17 L35.00,6.93 L41.64,7.19 L47.80,7.90 L53.36,9.03 L58.19,10.51 L62.17,12.28 L63.79,13.26 L65.16,14.29 L66.25,15.37 L67.05,16.48 L67.54,17.62 L67.71,18.79 Z" fill="#e8e8e8" stroke="#1e1e1e" stroke-width="1" stroke-linejoin="round"/><path d="M60.10,17.84 L59.98,18.60 L59.60,19.35 L58.98,20.07 L58.14,20.76 L55.83,22.04 L52.77,23.16 L49.06,24.09 L44.80,24.79 L40.08,25.23 L35.00,25.38 L29.92,25.23 L25.20,24.79 L20.94,24.09 L17.23,23.16 L14.17,22.04 L11.86,20.76 L11.02,20.07 L10.40,19.35 L10.03,18.60 L9.90,17.84 L10.03,17.07 L10.40,16.32 L11.02,15.60 L11.86,14.91 L14.17,13.63 L17.23,12.51 L20.94,11.59 L25.20,10.89 L29.92,10.44 L35.00,10.29 L40.08,10.44 L44.80,10.88 L49.06,11.57 L52.77,12.49 L55.83,13.60 L58.14,14.89 L58.98,15.58 L59.60,16.31 L59.98,17.06 L60.10,17.84 Z" fill="#50e6ff" stroke="#1e1e1e" stroke-width="1" stroke-linejoin="round"/><path d="M35.00,19.57 L28.28,19.77 L21.61,20.70 L15.10,22.36 L21.60,24.12 L28.27,25.11 L35.00,25.33 L41.72,25.11 L48.36,24.12 L54.85,22.36 L48.35,20.70 L41.71,19.77 L35.00,19.57 Z" fill="#198ab3" stroke="#198ab3" stroke-width="1" stroke-linejoin="round"/><path d="M54.91,62.56 L54.91,45.34 L50.32,45.34 L50.32,66.42 L62.84,66.42 L62.84,62.56 L54.91,62.56 Z" fill="#efefef" stroke="#efefef" stroke-width="1" stroke-linejoin="round"/><path d="M18.45,54.07 L17.09,53.36 L15.82,52.50 L15.36,51.72 L15.21,50.82 L15.41,49.95 L15.99,49.26 L17.04,48.80 L18.17,48.70 L20.73,49.14 L23.04,50.32 L23.04,45.79 L20.51,45.01 L17.89,44.73 L15.91,44.85 L14.01,45.44 L12.30,46.46 L11.13,47.72 L10.40,49.28 L10.18,50.99 L10.61,53.03 L11.64,54.85 L13.16,56.28 L15.04,57.20 L16.66,57.99 L18.17,58.99 L18.73,59.74 L18.95,60.66 L18.74,61.56 L18.12,62.23 L17.05,62.72 L15.88,62.84 L13.85,62.59 L11.95,61.85 L10.29,60.66 L10.29,65.36 L13.00,66.34 L15.88,66.59 L17.98,66.48 L20.01,65.91 L21.86,64.91 L23.08,63.63 L23.83,62.03 L24.04,60.27 L23.77,58.37 L22.81,56.69 L20.77,55.15 L18.45,54.07 L18.45,54.07 Z" fill="#efefef" stroke="#efefef" stroke-width="1" stroke-linejoin="round"/><path d="M44.73,62.17 L45.75,60.22 L46.39,58.10 L46.63,55.91 L46.34,53.04 L45.34,50.32 L43.85,48.17 L41.82,46.52 L39.32,45.26 L36.57,44.73 L33.67,45.05 L30.97,46.13 L28.80,47.94 L27.28,50.32 L26.36,53.05 L26.05,55.91 L26.36,58.77 L27.28,61.50 L28.79,63.65 L30.81,65.30 L33.19,66.50 L35.78,67.09 L40.14,71.96 L46.29,71.96 L40.20,66.37 L42.03,65.34 L43.56,63.91 L44.73,62.17 L44.73,62.17 Z" fill="#efefef" stroke="#efefef" stroke-width="1" stroke-linejoin="round"/><path d="M39.98,60.89 L38.88,61.89 L37.54,62.51 L36.06,62.68 L34.60,62.49 L33.27,61.85 L32.21,60.83 L31.18,58.47 L30.97,55.91 L31.09,54.15 L31.60,52.46 L32.48,50.94 L33.56,49.88 L34.91,49.22 L36.40,49.03 L37.87,49.22 L39.21,49.88 L40.26,50.94 L41.37,53.33 L41.65,55.97 L41.55,57.71 L41.06,59.37 L40.20,60.89 L39.98,60.89 Z" fill="#0077d2" stroke="#0077d2" stroke-width="1" stroke-linejoin="round"/><path d="M81.52,7.49 L61.11,7.49 L60.30,7.71 L59.71,8.30 L59.49,9.11 L59.49,53.12 L59.71,53.93 L60.30,54.52 L61.11,54.74 L96.50,54.74 L97.31,54.52 L97.91,53.93 L98.12,53.12 L98.12,23.99 L97.91,23.18 L97.31,22.58 L96.50,22.36 L84.76,22.36 L83.95,22.15 L83.36,21.55 L83.14,20.74 L83.14,9.11 L82.92,8.30 L82.33,7.71 L81.52,7.49 L81.52,7.49 Z" fill="#ffffff" stroke="#1e1e1e" stroke-width="1" stroke-linejoin="round"/><path d="M81.41,7.16 L60.72,7.16 L59.89,7.35 L59.27,7.95 L59.04,8.78 L59.04,53.51 L59.27,54.33 L59.89,54.93 L60.72,55.13 L96.62,55.13 L97.43,54.91 L98.02,54.32 L98.24,53.51 L98.24,23.87 L97.79,22.85 L96.78,22.36 L84.82,22.36 L84.01,22.15 L83.41,21.55 L83.20,20.74 L83.20,8.78 L82.98,7.97 L82.39,7.37 L81.57,7.16 L81.41,7.16 Z" fill="#50e6ff" stroke="#1e1e1e" stroke-width="1" stroke-linejoin="round"/><path d="M80.79,9.56 L80.79,20.74 L81.10,22.28 L81.97,23.59 L83.28,24.46 L84.82,24.77 L96.00,24.77 L96.00,52.72 L61.50,52.72 L61.50,9.56 L80.62,9.56 L80.79,9.56 Z" fill="#ffffff" stroke="#1e1e1e" stroke-width="1" stroke-linejoin="round"/><path d="M97.79,22.36 L82.64,7.27 L82.64,19.57 L83.00,20.95 L84.00,21.97 L85.38,22.36 L97.79,22.36 Z" fill="#32bedd" stroke="#32bedd" stroke-width="1" stroke-linejoin="round"/><path d="M88.68,32.88 L89.07,32.93 L89.43,33.08 L89.74,33.32 L89.98,33.63 L90.13,33.99 L90.19,34.39 L90.19,34.39 L90.13,34.78 L89.98,35.14 L89.74,35.45 L89.43,35.69 L89.07,35.84 L88.68,35.90 L68.88,35.90 L68.49,35.84 L68.13,35.69 L67.82,35.45 L67.58,35.14 L67.42,34.78 L67.37,34.39 L67.37,34.39 L67.42,33.99 L67.58,33.63 L67.82,33.32 L68.13,33.08 L68.49,32.93 L68.88,32.88 L88.68,32.88 Z" fill="#32bedd" stroke="#32bedd" stroke-width="1" stroke-linejoin="round"/><path d="M88.68,37.96 L89.07,38.02 L89.43,38.17 L89.74,38.41 L89.98,38.72 L90.13,39.08 L90.19,39.47 L90.19,39.47 L90.13,39.86 L89.98,40.23 L89.74,40.54 L89.43,40.78 L89.07,40.93 L88.68,40.98 L68.88,40.98 L68.49,40.93 L68.13,40.78 L67.82,40.54 L67.58,40.23 L67.42,39.86 L67.37,39.47 L67.37,39.47 L67.42,39.08 L67.58,38.72 L67.82,38.41 L68.13,38.17 L68.49,38.02 L68.88,37.96 L88.68,37.96 Z" fill="#32bedd" stroke="#32bedd" stroke-width="1" stroke-linejoin="round"/><path d="M78.22,43.16 L78.58,43.21 L78.92,43.35 L79.21,43.57 L79.43,43.86 L79.57,44.20 L79.62,44.56 L79.62,44.56 L79.57,44.92 L79.43,45.26 L79.21,45.55 L78.92,45.77 L78.58,45.91 L78.22,45.96 L68.77,45.96 L68.41,45.91 L68.07,45.77 L67.78,45.55 L67.56,45.26 L67.42,44.92 L67.37,44.56 L67.37,44.56 L67.42,44.20 L67.56,43.86 L67.78,43.57 L68.07,43.35 L68.41,43.21 L68.77,43.16 L78.22,43.16 Z" fill="#32bedd" stroke="#32bedd" stroke-width="1" stroke-linejoin="round"/></svg>