<svg xmlns="http://www.w3.org/2000/svg" viewBox="1.84 0.82 98.19 100.00"><path d="M41.62,2.82 L3.84,24.73 L3.84,30.16 L10.79,30.16 L10.79,71.27 L17.62,71.27 L17.62,30.16 L65.62,30.16 L65.62,74.71 L72.45,74.71 L72.45,30.16 L79.40,30.16 L79.40,24.73 L41.62,2.82 Z" fill="#abaaab" stroke="#1e1e1e" stroke-width="1" stroke-linejoin="round"/><path d="M24.45,71.27 L38.17,71.27 L38.17,57.60 L24.45,57.60 L24.45,71.27 Z" fill="#50e6ff" stroke="#50e6ff" stroke-width="1" stroke-linejoin="round"/><path d="M45.01,71.27 L58.73,71.27 L58.73,57.60 L45.18,57.60 L45.01,71.27 Z" fill="#50e6ff" stroke="#50e6ff" stroke-width="1" stroke-linejoin="round"/><path d="M24.45,50.82 L38.17,50.82 L38.17,36.99 L24.45,36.99 L24.45,50.82 Z" fill="#50e6ff" stroke="#50e6ff" stroke-width="1" stroke-linejoin="round"/><path d="M45.18,36.99 L45.18,50.82 L58.73,50.82 L58.73,36.99 L45.18,36.99 Z" fill="#50e6ff" stroke="#50e6ff" stroke-width="1" stroke-linejoin="round"/><path d="M74.20,58.79 L69.45,58.63 L65.05,58.19 L61.07,57.50 L57.62,56.58 L54.78,55.46 L52.64,54.19 L51.86,53.50 L51.29,52.78 L50.94,52.04 L50.82,51.28 L50.82,91.31 L50.94,92.08 L51.30,92.82 L51.87,93.53 L52.65,94.22 L54.79,95.49 L57.63,96.59 L61.07,97.51 L65.02,98.21 L69.39,98.65 L74.09,98.82 L74.43,98.82 L79.19,98.67 L83.62,98.23 L87.63,97.53 L91.12,96.61 L94.00,95.50 L96.18,94.23 L96.97,93.54 L97.55,92.82 L97.91,92.08 L98.03,91.31 L98.03,51.28 L97.87,52.04 L97.48,52.78 L96.05,54.19 L93.83,55.46 L90.92,56.58 L87.42,57.50 L83.40,58.19 L78.96,58.63 L74.20,58.79 Z" fill="#0077d2" stroke="#1e1e1e" stroke-width="1" stroke-linejoin="round"/><path d="M97.81,51.28 L97.69,52.04 L97.33,52.78 L96.75,53.50 L95.95,54.19 L93.78,55.46 L90.90,56.58 L87.40,57.50 L83.39,58.19 L78.96,58.63 L74.20,58.79 L69.45,58.63 L65.05,58.19 L61.07,57.50 L57.62,56.58 L54.78,55.46 L52.64,54.19 L51.86,53.50 L51.29,52.78 L50.94,52.04 L50.82,51.28 L50.95,50.51 L51.30,49.77 L51.88,49.05 L52.68,48.36 L54.85,47.09 L57.73,45.97 L61.23,45.05 L65.24,44.36 L69.67,43.92 L74.43,43.76 L79.19,43.92 L83.62,44.35 L87.63,45.04 L91.12,45.95 L94.00,47.06 L96.18,48.34 L96.97,49.03 L97.55,49.75 L97.91,50.50 L98.03,51.28 L97.81,51.28 Z" fill="#e8e8e8" stroke="#1e1e1e" stroke-width="1" stroke-linejoin="round"/><path d="M92.33,50.82 L92.24,51.31 L91.96,51.79 L90.90,52.69 L89.23,53.51 L87.01,54.22 L84.33,54.80 L81.25,55.25 L77.85,55.53 L74.20,55.62 L70.56,55.52 L67.16,55.22 L64.09,54.76 L61.42,54.16 L59.21,53.43 L57.55,52.62 L56.50,51.74 L56.22,51.29 L56.13,50.82 L56.22,50.36 L56.50,49.90 L57.55,49.03 L59.21,48.21 L61.42,47.49 L64.09,46.89 L67.16,46.42 L70.56,46.13 L74.20,46.02 L77.85,46.12 L81.25,46.40 L84.33,46.84 L87.01,47.43 L89.23,48.14 L90.90,48.95 L91.96,49.86 L92.24,50.33 L92.33,50.82 Z" fill="#50e6ff" stroke="#1e1e1e" stroke-width="1" stroke-linejoin="round"/><path d="M74.20,51.78 L69.37,51.91 L64.57,52.51 L59.86,53.59 L64.57,54.69 L69.37,55.32 L74.20,55.45 L79.04,55.32 L83.84,54.69 L88.55,53.59 L83.83,52.51 L79.04,51.91 L74.20,51.78 L74.20,51.78 Z" fill="#32bedd" stroke="#32bedd" stroke-width="1" stroke-linejoin="round"/></svg>