<svg xmlns="http://www.w3.org/2000/svg" viewBox="24.48 -0.23 484.27 533.79"><path d="M226.27,146.37 L215.99,146.28 L205.84,146.01 L195.84,145.57 L186.01,144.95 L176.34,144.17 L166.86,143.23 L157.58,142.12 L148.51,140.86 L139.66,139.45 L131.05,137.89 L122.68,136.19 L114.58,134.34 L106.74,132.36 L99.20,130.25 L91.95,128.01 L85.01,125.65 L78.40,123.16 L72.12,120.56 L66.19,117.85 L60.62,115.03 L55.42,112.10 L50.61,109.07 L46.20,105.94 L42.20,102.72 L38.62,99.41 L35.48,96.02 L32.79,92.54 L30.56,88.99 L28.80,85.36 L27.53,81.66 L26.76,77.90 L26.50,74.07 L26.50,459.26 L26.76,462.95 L27.51,466.59 L28.76,470.18 L30.49,473.71 L32.68,477.18 L35.33,480.58 L38.42,483.91 L41.94,487.17 L45.87,490.35 L50.21,493.44 L54.95,496.45 L60.06,499.37 L65.54,502.19 L71.38,504.91 L77.56,507.52 L84.08,510.02 L90.91,512.41 L98.05,514.68 L105.49,516.83 L113.21,518.85 L121.20,520.74 L129.45,522.49 L137.94,524.10 L146.67,525.57 L155.62,526.89 L164.78,528.05 L174.14,529.06 L183.68,529.90 L193.40,530.58 L203.27,531.08 L213.30,531.41 L223.46,531.56 L226.27,531.56 L236.54,531.47 L246.69,531.20 L256.68,530.76 L266.52,530.14 L276.18,529.36 L285.66,528.42 L294.94,527.31 L304.01,526.05 L312.85,524.64 L321.47,523.08 L329.83,521.38 L337.93,519.53 L345.77,517.55 L353.31,515.44 L360.56,513.20 L367.50,510.84 L374.11,508.35 L380.39,505.75 L386.32,503.04 L391.89,500.22 L397.08,497.29 L401.89,494.26 L406.30,491.13 L410.30,487.91 L413.88,484.61 L417.02,481.21 L419.71,477.74 L421.94,474.18 L423.70,470.55 L424.97,466.85 L425.74,463.09 L426.00,459.26 L426.00,74.07 L425.74,77.81 L424.97,81.51 L423.70,85.14 L421.94,88.72 L419.71,92.23 L417.02,95.67 L413.88,99.04 L410.30,102.33 L406.30,105.53 L401.89,108.65 L397.08,111.68 L391.89,114.61 L386.32,117.45 L380.39,120.17 L374.11,122.79 L367.50,125.30 L360.56,127.68 L353.31,129.95 L345.77,132.09 L337.93,134.10 L329.83,135.97 L321.47,137.70 L312.85,139.29 L304.01,140.73 L294.94,142.02 L285.66,143.15 L276.18,144.11 L266.52,144.92 L256.68,145.55 L246.69,146.00 L236.54,146.28 L226.27,146.37 Z" fill="#0077d2" stroke="#1e1e1e" stroke-width="1" stroke-linejoin="round"/><path d="M426.00,74.07 L425.74,77.81 L424.97,81.51 L423.70,85.14 L421.94,88.72 L419.71,92.23 L417.02,95.67 L413.88,99.04 L410.30,102.33 L406.30,105.53 L401.89,108.65 L397.08,111.68 L391.89,114.61 L386.32,117.45 L380.39,120.17 L374.11,122.79 L367.50,125.30 L360.56,127.68 L353.31,129.95 L345.77,132.09 L337.93,134.10 L329.83,135.97 L321.47,137.70 L312.85,139.29 L304.01,140.73 L294.94,142.02 L285.66,143.15 L276.18,144.11 L266.52,144.92 L256.68,145.55 L246.69,146.00 L236.54,146.28 L226.27,146.37 L215.99,146.28 L205.85,146.01 L195.85,145.57 L186.01,144.95 L176.35,144.17 L166.87,143.23 L157.59,142.12 L148.52,140.86 L139.67,139.45 L131.05,137.89 L122.69,136.18 L114.58,134.34 L106.75,132.36 L99.20,130.25 L91.95,128.01 L85.01,125.65 L78.40,123.16 L72.11,120.56 L66.18,117.84 L60.61,115.02 L55.41,112.09 L50.60,109.06 L46.19,105.94 L42.19,102.72 L38.61,99.41 L35.47,96.02 L32.77,92.54 L30.54,88.99 L28.78,85.36 L27.51,81.66 L26.74,77.90 L26.48,74.07 L26.74,70.24 L27.51,66.48 L28.78,62.78 L30.54,59.15 L32.77,55.60 L35.46,52.12 L38.60,48.73 L42.18,45.42 L46.18,42.20 L50.59,39.08 L55.40,36.05 L60.60,33.12 L66.17,30.30 L72.10,27.58 L78.38,24.98 L84.99,22.50 L91.93,20.13 L99.18,17.89 L106.73,15.78 L114.56,13.80 L122.67,11.96 L131.03,10.25 L139.65,8.70 L148.50,7.28 L157.57,6.02 L166.85,4.92 L176.33,3.97 L186.00,3.19 L195.84,2.58 L205.84,2.13 L215.99,1.86 L226.27,1.77 L236.55,1.86 L246.69,2.13 L256.69,2.57 L266.53,3.19 L276.20,3.97 L285.67,4.92 L294.96,6.02 L304.03,7.28 L312.88,8.69 L321.49,10.25 L329.85,11.96 L337.96,13.80 L345.79,15.78 L353.33,17.89 L360.58,20.13 L367.51,22.49 L374.13,24.98 L380.40,27.58 L386.33,30.29 L391.90,33.12 L397.09,36.04 L401.90,39.07 L406.31,42.20 L410.31,45.42 L413.88,48.73 L417.02,52.12 L419.71,55.60 L421.94,59.15 L423.70,62.78 L424.97,66.48 L425.74,70.24 L426.00,74.07 Z" fill="#e8e8e8" stroke="#1e1e1e" stroke-width="1" stroke-linejoin="round"/><path d="M379.57,68.14 L379.37,70.53 L378.78,72.87 L377.80,75.19 L376.45,77.47 L374.73,79.70 L372.66,81.89 L370.24,84.04 L367.49,86.14 L364.41,88.18 L361.02,90.17 L357.32,92.10 L353.33,93.97 L349.05,95.78 L344.49,97.52 L334.58,100.79 L323.68,103.77 L311.87,106.42 L299.23,108.72 L285.83,110.66 L271.76,112.21 L257.08,113.34 L241.88,114.03 L226.25,114.27 L210.61,114.03 L195.41,113.34 L180.73,112.21 L166.66,110.66 L153.26,108.72 L140.62,106.42 L128.81,103.77 L117.91,100.79 L108.00,97.52 L103.45,95.78 L99.16,93.97 L95.17,92.10 L91.47,90.17 L88.08,88.18 L85.00,86.14 L82.25,84.04 L79.83,81.89 L77.76,79.70 L76.04,77.47 L74.69,75.19 L73.71,72.87 L73.12,70.53 L72.92,68.14 L73.12,65.76 L73.71,63.42 L74.69,61.11 L76.04,58.84 L77.76,56.61 L79.83,54.42 L82.25,52.29 L85.00,50.20 L88.08,48.17 L91.47,46.19 L95.17,44.27 L99.16,42.42 L103.45,40.62 L108.00,38.90 L117.91,35.65 L128.81,32.71 L140.62,30.09 L153.26,27.81 L166.66,25.90 L180.73,24.37 L195.41,23.26 L210.61,22.57 L226.25,22.34 L241.88,22.57 L257.08,23.27 L271.76,24.40 L285.83,25.94 L299.23,27.88 L311.87,30.18 L323.68,32.82 L334.58,35.78 L344.49,39.03 L349.05,40.76 L353.33,42.56 L357.32,44.42 L361.02,46.34 L364.41,48.31 L367.49,50.34 L370.24,52.42 L372.66,54.55 L374.73,56.72 L376.45,58.93 L377.80,61.18 L378.78,63.47 L379.37,65.79 L379.57,68.14 Z" fill="#50e6ff" stroke="#1e1e1e" stroke-width="1" stroke-linejoin="round"/><path d="M226.27,78.68 L208.70,78.87 L191.16,79.85 L173.67,81.62 L156.29,84.17 L139.04,87.49 L121.95,91.59 L105.07,96.44 L110.37,98.28 L116.26,100.09 L122.67,101.87 L129.56,103.60 L144.51,106.83 L160.61,109.66 L168.94,110.89 L177.39,111.97 L185.89,112.88 L194.37,113.62 L202.79,114.16 L211.08,114.49 L219.17,114.59 L227.02,114.45 L242.43,114.51 L257.82,113.90 L273.18,112.60 L288.46,110.63 L303.64,107.98 L318.69,104.66 L333.57,100.68 L348.27,96.04 L331.24,91.31 L314.03,87.32 L296.66,84.07 L279.16,81.58 L261.58,79.85 L243.94,78.88 L226.27,78.68 L226.27,78.68 Z" fill="#198ab3" stroke="#1e1e1e" stroke-width="1" stroke-linejoin="round"/><path d="M388.75,513.16 L398.05,512.75 L407.27,511.51 L416.35,509.46 L425.21,506.61 L433.78,502.98 L442.00,498.61 L449.80,493.53 L457.11,487.77 L463.88,481.39 L470.06,474.43 L475.60,466.94 L480.45,459.00 L484.58,450.66 L487.95,441.98 L490.54,433.04 L492.32,423.90 L493.28,414.65 L493.42,405.34 L492.73,396.06 L491.22,386.87 L488.90,377.86 L485.79,369.09 L481.91,360.62 L477.30,352.54 L471.98,344.90 L466.01,337.76 L459.43,331.18 L452.29,325.21 L444.65,319.89 L436.56,315.28 L428.10,311.40 L419.33,308.29 L410.32,305.97 L401.13,304.46 L391.85,303.77 L382.54,303.91 L373.29,304.87 L364.15,306.65 L355.21,309.24 L346.53,312.61 L338.19,316.74 L330.25,321.59 L322.76,327.13 L315.80,333.31 L309.42,340.08 L303.66,347.39 L298.58,355.19 L294.21,363.41 L290.58,371.98 L287.73,380.84 L285.68,389.92 L284.44,399.14 L284.03,408.44 L284.43,417.57 L285.62,426.63 L287.59,435.55 L290.34,444.26 L293.84,452.70 L298.06,460.80 L302.97,468.51 L308.53,475.76 L314.70,482.49 L321.43,488.66 L328.68,494.22 L336.39,499.13 L344.49,503.35 L352.93,506.85 L361.64,509.59 L370.56,511.57 L379.62,512.76 L388.75,513.16 Z" fill="#ffffff" stroke="#1e1e1e" stroke-width="1" stroke-linejoin="round"/><path d="M386.25,287.83 L376.20,288.23 L366.21,289.47 L356.37,291.54 L346.73,294.42 L337.37,298.09 L328.34,302.53 L319.72,307.70 L311.55,313.57 L303.91,320.10 L296.83,327.25 L290.37,334.96 L284.58,343.18 L279.49,351.86 L275.13,360.92 L271.55,370.32 L268.77,379.99 L266.80,389.85 L265.65,399.84 L265.34,409.89 L265.87,419.94 L267.23,429.90 L269.42,439.72 L272.42,449.32 L276.20,458.64 L280.75,467.61 L286.03,476.17 L292.00,484.26 L298.63,491.83 L305.86,498.82 L313.65,505.18 L321.94,510.88 L330.67,515.86 L339.79,520.10 L349.24,523.56 L358.93,526.23 L368.82,528.08 L378.82,529.10 L388.88,529.29 L398.92,528.64 L408.86,527.15 L418.65,524.85 L428.22,521.73 L437.49,517.83 L446.40,513.18 L454.90,507.79 L462.92,501.72 L470.40,495.00 L477.30,487.69 L483.57,479.82 L489.16,471.46 L494.04,462.66 L498.16,453.49 L501.51,444.01 L504.06,434.28 L505.79,424.37 L506.69,414.35 L506.75,404.29 L505.98,394.27 L504.37,384.34 L501.94,374.58 L498.71,365.05 L494.70,355.83 L489.93,346.97 L484.45,338.55 L478.28,330.60 L471.47,323.20 L464.52,316.77 L457.09,310.90 L449.22,305.64 L440.97,301.01 L432.37,297.04 L423.49,293.76 L414.39,291.18 L405.10,289.33 L395.70,288.21 L386.25,287.83 L386.25,287.83 Z" fill="#003067" stroke="#1e1e1e" stroke-width="1" stroke-linejoin="round"/><path d="M386.25,319.62 L394.81,320.03 L403.29,321.26 L411.61,323.30 L419.70,326.14 L427.48,329.74 L434.87,334.08 L441.81,339.11 L448.23,344.79 L454.08,351.06 L459.29,357.86 L463.83,365.13 L467.64,372.81 L470.69,380.82 L472.96,389.08 L474.42,397.53 L475.06,406.08 L474.87,414.65 L473.86,423.16 L472.03,431.53 L469.40,439.69 L466.00,447.56 L461.85,455.06 L457.01,462.13 L451.50,468.70 L445.38,474.70 L438.72,480.09 L431.56,484.81 L423.99,488.82 L416.06,492.08 L407.85,494.56 L399.45,496.24 L390.92,497.10 L382.35,497.13 L373.81,496.33 L365.39,494.72 L357.17,492.31 L349.22,489.11 L341.61,485.16 L334.42,480.49 L327.71,475.15 L321.55,469.20 L315.99,462.67 L311.09,455.64 L306.89,448.17 L303.43,440.33 L300.73,432.19 L298.84,423.83 L297.76,415.33 L297.51,406.76 L298.08,398.21 L299.48,389.75 L301.68,381.47 L304.67,373.44 L308.42,365.73 L312.90,358.42 L318.06,351.58 L323.86,345.27 L330.24,339.54 L337.14,334.46 L344.50,330.06 L352.25,326.40 L358.79,323.98 L365.51,322.08 L372.35,320.72 L379.27,319.89 L386.25,319.62 L386.25,319.62 Z" fill="#ffffff" stroke="#1e1e1e" stroke-width="1" stroke-linejoin="round"/><path d="M330.42,436.50 L330.79,439.67 L331.86,442.68 L333.57,445.37 L335.83,447.62 L338.54,449.32 L341.55,450.37 L344.72,450.74 L344.82,450.74 L392.77,450.32 L392.77,420.17 L361.83,420.17 L361.83,364.63 L344.23,364.74 L340.89,365.15 L337.73,366.34 L334.94,368.23 L332.67,370.72 L331.05,373.68 L330.24,376.38 L329.98,379.18 L330.12,400.35 L311.11,400.35 L311.11,414.55 L330.22,414.55 L330.42,436.50 Z" fill="#76bc2d" stroke="#1e1e1e" stroke-width="1" stroke-linejoin="round"/><path d="M445.40,378.42 L445.02,375.25 L443.95,372.25 L442.25,369.55 L439.98,367.30 L437.28,365.61 L434.27,364.55 L431.10,364.19 L431.00,364.19 L384.00,364.58 L384.00,398.03 L414.93,398.03 L414.93,450.30 L431.58,450.19 L434.76,449.82 L437.78,448.74 L440.49,447.02 L442.74,444.74 L444.43,442.01 L445.47,438.98 L445.81,435.79 L445.67,414.60 L464.71,414.60 L464.71,400.35 L445.58,400.35 L445.40,378.42 Z" fill="#76bc2d" stroke="#1e1e1e" stroke-width="1" stroke-linejoin="round"/></svg>