<svg xmlns="http://www.w3.org/2000/svg" viewBox="2.80 -1.68 91.03 100.00"><path d="M41.00,26.52 L39.14,26.51 L37.30,26.46 L35.49,26.38 L33.71,26.27 L31.95,26.12 L30.24,25.95 L28.55,25.75 L26.91,25.52 L25.31,25.27 L23.75,24.99 L22.23,24.68 L20.76,24.34 L19.34,23.98 L17.98,23.60 L16.66,23.20 L15.40,22.77 L14.21,22.32 L13.07,21.85 L11.99,21.35 L10.98,20.84 L10.04,20.31 L9.17,19.76 L8.37,19.20 L7.65,18.61 L7.00,18.01 L6.43,17.40 L5.94,16.77 L5.54,16.12 L5.22,15.47 L4.99,14.80 L4.85,14.12 L4.80,13.42 L4.80,83.22 L4.85,83.89 L4.99,84.55 L5.21,85.20 L5.52,85.84 L5.92,86.47 L6.40,87.08 L6.96,87.69 L7.60,88.28 L8.31,88.85 L9.10,89.41 L9.96,89.96 L10.88,90.49 L11.88,91.00 L12.93,91.49 L14.05,91.96 L15.24,92.42 L16.47,92.85 L17.77,93.26 L19.11,93.65 L20.51,94.02 L21.96,94.36 L23.46,94.68 L25.00,94.97 L26.58,95.23 L28.20,95.47 L29.86,95.68 L31.55,95.87 L33.28,96.02 L35.04,96.14 L36.83,96.23 L38.65,96.29 L40.49,96.32 L41.00,96.32 L42.86,96.30 L44.70,96.26 L46.51,96.18 L48.29,96.06 L50.04,95.92 L51.76,95.75 L53.44,95.55 L55.09,95.32 L56.69,95.07 L58.25,94.78 L59.77,94.48 L61.23,94.14 L62.65,93.78 L64.02,93.40 L65.33,92.99 L66.59,92.57 L67.79,92.12 L68.93,91.64 L70.00,91.15 L71.01,90.64 L71.95,90.11 L72.82,89.56 L73.62,89.00 L74.35,88.41 L75.00,87.81 L75.57,87.20 L76.05,86.57 L76.46,85.92 L76.78,85.27 L77.01,84.60 L77.15,83.91 L77.19,83.22 L77.19,13.42 L77.15,14.10 L77.01,14.77 L76.78,15.43 L76.46,16.08 L76.05,16.71 L75.57,17.34 L75.00,17.95 L74.35,18.54 L73.62,19.12 L72.82,19.69 L71.95,20.24 L71.01,20.77 L70.00,21.28 L68.93,21.78 L67.79,22.25 L66.59,22.70 L65.33,23.14 L64.02,23.55 L62.65,23.93 L61.23,24.30 L59.77,24.64 L58.25,24.95 L56.69,25.24 L55.09,25.50 L53.44,25.73 L51.76,25.94 L50.04,26.11 L48.29,26.26 L46.51,26.37 L44.70,26.46 L42.86,26.51 L41.00,26.52 Z" fill="#0077d2" stroke="#1e1e1e" stroke-width="1" stroke-linejoin="round"/><path d="M77.19,13.42 L77.15,14.10 L77.01,14.77 L76.78,15.43 L76.46,16.08 L76.05,16.71 L75.57,17.34 L75.00,17.95 L74.35,18.54 L73.62,19.12 L72.82,19.69 L71.95,20.24 L71.01,20.77 L70.00,21.28 L68.93,21.78 L67.79,22.25 L66.59,22.70 L65.33,23.14 L64.02,23.55 L62.65,23.93 L61.23,24.30 L59.77,24.64 L58.25,24.95 L56.69,25.24 L55.09,25.50 L53.44,25.73 L51.76,25.94 L50.04,26.11 L48.29,26.26 L46.51,26.37 L44.70,26.46 L42.86,26.51 L41.00,26.52 L39.14,26.51 L37.30,26.46 L35.49,26.38 L33.71,26.27 L31.96,26.12 L30.24,25.95 L28.56,25.75 L26.91,25.52 L25.31,25.27 L23.75,24.99 L22.23,24.68 L20.76,24.34 L19.34,23.98 L17.98,23.60 L16.66,23.20 L15.40,22.77 L14.21,22.32 L13.07,21.85 L11.99,21.35 L10.98,20.84 L10.04,20.31 L9.17,19.76 L8.37,19.20 L7.64,18.61 L7.00,18.01 L6.43,17.40 L5.94,16.77 L5.53,16.12 L5.22,15.47 L4.99,14.80 L4.85,14.11 L4.80,13.42 L4.85,12.73 L4.99,12.05 L5.22,11.38 L5.53,10.72 L5.94,10.07 L6.43,9.45 L6.99,8.83 L7.64,8.23 L8.37,7.65 L9.17,7.08 L10.04,6.53 L10.98,6.00 L11.99,5.49 L13.06,5.00 L14.20,4.53 L15.40,4.08 L16.66,3.65 L17.97,3.24 L19.34,2.86 L20.76,2.50 L22.23,2.17 L23.74,1.86 L25.30,1.58 L26.91,1.32 L28.55,1.09 L30.23,0.89 L31.95,0.72 L33.70,0.58 L35.49,0.47 L37.30,0.39 L39.14,0.34 L41.00,0.32 L42.86,0.34 L44.70,0.39 L46.51,0.47 L48.30,0.58 L50.05,0.72 L51.77,0.89 L53.45,1.09 L55.09,1.32 L56.69,1.58 L58.25,1.86 L59.77,2.17 L61.24,2.50 L62.66,2.86 L64.02,3.24 L65.34,3.65 L66.59,4.08 L67.79,4.53 L68.93,5.00 L70.00,5.49 L71.01,6.00 L71.95,6.53 L72.83,7.08 L73.62,7.65 L74.35,8.23 L75.00,8.83 L75.57,9.44 L76.05,10.07 L76.46,10.72 L76.78,11.38 L77.01,12.05 L77.15,12.73 L77.19,13.42 Z" fill="#e8e8e8" stroke="#1e1e1e" stroke-width="1" stroke-linejoin="round"/><path d="M68.78,12.35 L68.74,12.78 L68.64,13.21 L68.46,13.62 L68.21,14.04 L67.90,14.44 L67.53,14.84 L67.09,15.23 L66.59,15.61 L66.03,15.98 L65.42,16.34 L64.75,16.69 L64.02,17.03 L63.25,17.36 L62.42,17.67 L60.63,18.26 L58.65,18.80 L56.51,19.28 L54.22,19.70 L51.79,20.05 L49.24,20.33 L46.58,20.54 L43.83,20.66 L41.00,20.71 L38.16,20.66 L35.41,20.54 L32.75,20.33 L30.20,20.05 L27.77,19.70 L25.48,19.28 L23.34,18.80 L21.37,18.26 L19.57,17.67 L18.74,17.36 L17.97,17.03 L17.24,16.69 L16.57,16.34 L15.96,15.98 L15.40,15.61 L14.90,15.23 L14.47,14.84 L14.09,14.44 L13.78,14.04 L13.53,13.62 L13.36,13.21 L13.25,12.78 L13.21,12.35 L13.25,11.92 L13.36,11.49 L13.53,11.07 L13.78,10.66 L14.09,10.26 L14.47,9.86 L14.90,9.47 L15.40,9.10 L15.96,8.73 L16.57,8.37 L17.24,8.02 L17.97,7.69 L18.74,7.36 L19.57,7.05 L21.37,6.46 L23.34,5.93 L25.48,5.45 L27.77,5.04 L30.20,4.69 L32.75,4.42 L35.41,4.21 L38.16,4.09 L41.00,4.05 L43.83,4.09 L46.58,4.22 L49.24,4.42 L51.79,4.70 L54.22,5.05 L56.51,5.47 L58.65,5.95 L60.63,6.48 L62.42,7.07 L63.25,7.39 L64.02,7.71 L64.75,8.05 L65.42,8.40 L66.03,8.75 L66.59,9.12 L67.09,9.50 L67.53,9.88 L67.90,10.28 L68.21,10.68 L68.46,11.09 L68.64,11.50 L68.74,11.92 L68.78,12.35 Z" fill="#50e6ff" stroke="#1e1e1e" stroke-width="1" stroke-linejoin="round"/><path d="M41.00,14.26 L37.82,14.29 L34.64,14.47 L31.47,14.79 L28.32,15.25 L25.19,15.85 L22.10,16.60 L19.04,17.48 L20.00,17.81 L21.07,18.14 L22.23,18.46 L23.48,18.77 L26.18,19.36 L29.10,19.87 L30.61,20.09 L32.14,20.29 L33.68,20.45 L35.22,20.59 L36.75,20.69 L38.25,20.75 L39.71,20.76 L41.14,20.74 L43.93,20.75 L46.72,20.64 L49.50,20.40 L52.27,20.05 L55.02,19.57 L57.75,18.96 L60.44,18.24 L63.11,17.40 L60.02,16.55 L56.90,15.82 L53.76,15.23 L50.59,14.78 L47.40,14.47 L44.20,14.29 L41.00,14.26 L41.00,14.26 Z" fill="#198ab3" stroke="#198ab3" stroke-width="1" stroke-linejoin="round"/><path d="M70.44,92.99 L72.13,92.91 L73.80,92.69 L75.44,92.32 L77.05,91.80 L78.60,91.14 L80.09,90.35 L81.50,89.43 L82.83,88.39 L84.06,87.23 L85.18,85.97 L86.18,84.61 L87.06,83.17 L87.81,81.66 L88.42,80.09 L88.89,78.47 L89.21,76.81 L89.38,75.14 L89.41,73.45 L89.28,71.77 L89.01,70.10 L88.59,68.47 L88.03,66.88 L87.32,65.35 L86.49,63.88 L85.52,62.50 L84.44,61.20 L83.25,60.01 L81.96,58.93 L80.57,57.97 L79.11,57.13 L77.57,56.43 L75.98,55.86 L74.35,55.44 L72.69,55.17 L71.00,55.04 L69.32,55.07 L67.64,55.24 L65.99,55.57 L64.36,56.04 L62.79,56.65 L61.28,57.39 L59.84,58.27 L58.49,59.28 L57.22,60.40 L56.07,61.62 L55.02,62.95 L54.10,64.36 L53.31,65.85 L52.65,67.40 L52.14,69.01 L51.77,70.65 L51.54,72.33 L51.47,74.01 L51.54,75.66 L51.75,77.31 L52.11,78.92 L52.61,80.50 L53.24,82.03 L54.01,83.50 L54.90,84.90 L55.91,86.21 L57.02,87.43 L58.24,88.55 L59.56,89.56 L60.95,90.44 L62.42,91.21 L63.95,91.84 L65.53,92.34 L67.15,92.70 L68.79,92.91 L70.44,92.99 Z" fill="#ffffff" stroke="#1e1e1e" stroke-width="1" stroke-linejoin="round"/><path d="M69.99,52.16 L68.17,52.23 L66.36,52.45 L64.58,52.83 L62.83,53.35 L61.13,54.01 L59.50,54.82 L57.93,55.76 L56.45,56.82 L55.07,58.00 L53.79,59.30 L52.62,60.70 L51.57,62.19 L50.64,63.76 L49.86,65.40 L49.21,67.10 L48.70,68.85 L48.34,70.64 L48.14,72.45 L48.08,74.27 L48.18,76.09 L48.42,77.90 L48.82,79.68 L49.36,81.42 L50.05,83.11 L50.87,84.73 L51.83,86.28 L52.91,87.75 L54.11,89.12 L55.42,90.39 L56.83,91.54 L58.34,92.57 L59.92,93.48 L61.57,94.24 L63.28,94.87 L65.04,95.35 L66.83,95.69 L68.64,95.88 L70.47,95.91 L72.29,95.79 L74.09,95.52 L75.86,95.10 L77.59,94.54 L79.27,93.83 L80.89,92.99 L82.43,92.01 L83.88,90.91 L85.24,89.70 L86.49,88.37 L87.62,86.94 L88.64,85.43 L89.52,83.84 L90.27,82.17 L90.88,80.46 L91.34,78.69 L91.65,76.90 L91.81,75.08 L91.83,73.26 L91.68,71.44 L91.39,69.64 L90.95,67.87 L90.37,66.15 L89.64,64.48 L88.78,62.87 L87.78,61.35 L86.67,59.91 L85.43,58.56 L84.17,57.40 L82.83,56.34 L81.40,55.38 L79.90,54.54 L78.35,53.82 L76.74,53.23 L75.09,52.76 L73.41,52.43 L71.70,52.22 L69.99,52.16 L69.99,52.16 Z" fill="#003067" stroke="#1e1e1e" stroke-width="1" stroke-linejoin="round"/><path d="M69.99,57.92 L71.54,57.99 L73.08,58.21 L74.59,58.58 L76.05,59.10 L77.46,59.75 L78.80,60.54 L80.06,61.45 L81.22,62.48 L82.28,63.61 L83.23,64.85 L84.05,66.16 L84.74,67.55 L85.29,69.01 L85.70,70.50 L85.97,72.03 L86.08,73.58 L86.05,75.14 L85.86,76.68 L85.53,78.20 L85.06,79.67 L84.44,81.10 L83.69,82.46 L82.81,83.74 L81.81,84.93 L80.70,86.02 L79.50,86.99 L78.20,87.85 L76.83,88.58 L75.39,89.17 L73.90,89.62 L72.38,89.92 L70.84,90.08 L69.28,90.08 L67.74,89.94 L66.21,89.65 L64.72,89.21 L63.28,88.63 L61.90,87.91 L60.60,87.07 L59.38,86.10 L58.27,85.02 L57.26,83.84 L56.37,82.56 L55.61,81.21 L54.98,79.79 L54.49,78.31 L54.15,76.80 L53.96,75.26 L53.91,73.71 L54.01,72.16 L54.27,70.62 L54.67,69.12 L55.21,67.67 L55.89,66.27 L56.70,64.95 L57.63,63.71 L58.68,62.56 L59.84,61.53 L61.09,60.60 L62.42,59.81 L63.83,59.14 L65.01,58.71 L66.23,58.36 L67.47,58.12 L68.73,57.97 L69.99,57.92 L69.99,57.92 Z" fill="#ffffff" stroke="#1e1e1e" stroke-width="1" stroke-linejoin="round"/><path d="M59.87,79.10 L59.94,79.67 L60.13,80.21 L60.44,80.70 L60.85,81.11 L61.34,81.42 L61.89,81.61 L62.46,81.67 L62.48,81.67 L71.17,81.60 L71.17,76.14 L65.57,76.14 L65.57,66.07 L62.38,66.09 L61.77,66.17 L61.20,66.38 L60.69,66.72 L60.28,67.18 L59.99,67.71 L59.84,68.20 L59.79,68.71 L59.82,72.55 L56.37,72.55 L56.37,75.12 L59.84,75.12 L59.87,79.10 Z" fill="#76bc2d" stroke="#76bc2d" stroke-width="1" stroke-linejoin="round"/><path d="M80.71,68.57 L80.64,68.00 L80.45,67.45 L80.14,66.96 L79.73,66.56 L79.24,66.25 L78.69,66.06 L78.12,65.99 L78.10,65.99 L69.58,66.06 L69.58,72.12 L75.19,72.12 L75.19,81.60 L78.20,81.58 L78.78,81.51 L79.33,81.31 L79.82,81.00 L80.23,80.59 L80.53,80.09 L80.72,79.54 L80.78,78.97 L80.76,75.13 L84.21,75.13 L84.21,72.55 L80.74,72.55 L80.71,68.57 Z" fill="#76bc2d" stroke="#76bc2d" stroke-width="1" stroke-linejoin="round"/></svg>