<svg xmlns="http://www.w3.org/2000/svg" viewBox="0.67 2.32 94.67 91.36"><path d="M41.44,56.96 L41.05,57.93 L40.23,58.60 L39.20,58.77 L4.91,58.77 L3.87,58.60 L3.06,57.93 L2.67,56.96 L2.67,6.40 L3.06,5.43 L3.87,4.76 L4.91,4.59 L39.20,4.59 L40.23,4.76 L41.05,5.43 L41.44,6.40 L41.44,56.96 Z" fill="#949494" stroke="#1e1e1e" stroke-width="1" stroke-linejoin="round"/><path d="M8.37,27.73 L8.69,26.12 L9.61,24.75 L10.97,23.84 L12.59,23.52 L32.00,23.52 L33.61,23.84 L34.98,24.75 L35.89,26.12 L36.21,27.73 L36.21,27.73 L35.91,29.36 L35.00,30.75 L33.62,31.67 L32.00,32.00 L12.59,32.00 L10.97,31.68 L9.61,30.77 L8.69,29.40 L8.37,27.79 L8.37,27.73 Z" fill="#003067" stroke="#003067" stroke-width="1" stroke-linejoin="round"/><path d="M8.37,15.25 L8.68,13.62 L9.59,12.24 L10.96,11.31 L12.59,10.99 L32.00,10.99 L33.62,11.31 L35.00,12.24 L35.91,13.62 L36.21,15.25 L36.21,15.25 L35.89,16.87 L34.98,18.23 L33.61,19.15 L32.00,19.47 L12.59,19.47 L10.97,19.15 L9.61,18.23 L8.69,16.87 L8.37,15.25 L8.37,15.25 Z" fill="#003067" stroke="#003067" stroke-width="1" stroke-linejoin="round"/><ellipse cx="12.75" cy="15.25" rx="2.83" ry="2.83" fill="#50e6ff" stroke="#50e6ff" stroke-width="1"/><ellipse cx="12.75" cy="27.73" rx="2.83" ry="2.83" fill="#50e6ff" stroke="#50e6ff" stroke-width="1"/><path d="M84.21,56.69 L83.84,57.69 L83.02,58.37 L81.97,58.56 L47.68,58.56 L46.63,58.37 L45.81,57.69 L45.44,56.69 L45.44,6.19 L45.81,5.19 L46.63,4.51 L47.68,4.32 L81.97,4.32 L83.02,4.51 L83.84,5.19 L84.21,6.19 L84.21,56.69 Z" fill="#949494" stroke="#1e1e1e" stroke-width="1" stroke-linejoin="round"/><path d="M51.15,27.52 L51.47,25.91 L52.38,24.54 L53.75,23.63 L55.36,23.31 L74.67,23.31 L76.28,23.63 L77.65,24.54 L78.56,25.91 L78.88,27.52 L78.88,27.52 L78.64,29.21 L77.74,30.67 L76.34,31.66 L74.67,32.00 L55.36,32.00 L53.75,31.68 L52.38,30.77 L51.47,29.40 L51.15,27.79 L51.15,27.52 Z" fill="#003067" stroke="#003067" stroke-width="1" stroke-linejoin="round"/><path d="M51.15,14.99 L51.44,13.34 L52.34,11.94 L53.72,11.00 L55.36,10.67 L74.67,10.67 L76.27,11.00 L77.63,11.92 L78.55,13.28 L78.88,14.88 L78.88,14.88 L78.59,16.53 L77.68,17.93 L76.30,18.87 L74.67,19.20 L55.36,19.20 L53.75,18.88 L52.38,17.97 L51.47,16.60 L51.15,14.99 Z" fill="#003067" stroke="#003067" stroke-width="1" stroke-linejoin="round"/><ellipse cx="55.52" cy="14.99" rx="2.83" ry="2.83" fill="#50e6ff" stroke="#50e6ff" stroke-width="1"/><ellipse cx="55.52" cy="27.52" rx="2.83" ry="2.83" fill="#50e6ff" stroke="#50e6ff" stroke-width="1"/><path d="M48.00,89.81 L47.63,90.81 L46.81,91.49 L45.76,91.68 L11.41,91.68 L10.36,91.49 L9.55,90.81 L9.17,89.81 L9.17,39.31 L9.51,38.26 L10.34,37.54 L11.41,37.33 L45.71,37.33 L46.81,37.52 L47.65,38.25 L48.00,39.31 L48.00,89.81 Z" fill="#abaaab" stroke="#1e1e1e" stroke-width="1" stroke-linejoin="round"/><path d="M14.88,60.64 L15.20,59.03 L16.11,57.66 L17.48,56.75 L19.09,56.43 L38.40,56.43 L40.01,56.75 L41.38,57.66 L42.29,59.03 L42.61,60.64 L42.67,60.64 L42.33,62.24 L41.42,63.60 L40.06,64.52 L38.45,64.85 L19.09,64.85 L17.48,64.53 L16.11,63.62 L15.20,62.25 L14.88,60.64 L14.88,60.64 Z" fill="#003067" stroke="#003067" stroke-width="1" stroke-linejoin="round"/><path d="M14.88,48.00 L15.20,46.39 L16.11,45.02 L17.48,44.11 L19.09,43.79 L38.40,43.79 L40.03,44.09 L41.41,45.00 L42.34,46.38 L42.67,48.00 L42.67,48.00 L42.33,49.60 L41.42,50.96 L40.06,51.88 L38.45,52.21 L19.09,52.21 L17.48,51.89 L16.11,50.98 L15.20,49.61 L14.88,48.00 Z" fill="#003067" stroke="#003067" stroke-width="1" stroke-linejoin="round"/><ellipse cx="19.25" cy="48.11" rx="2.83" ry="2.83" fill="#50e6ff" stroke="#50e6ff" stroke-width="1"/><ellipse cx="19.25" cy="60.64" rx="2.83" ry="2.83" fill="#50e6ff" stroke="#50e6ff" stroke-width="1"/><path d="M93.33,69.33 L92.82,65.91 L91.52,62.70 L89.52,59.88 L86.91,57.60 L83.84,55.99 L80.48,55.15 L79.98,51.56 L78.79,48.15 L76.96,45.02 L74.56,42.31 L71.69,40.12 L68.44,38.52 L64.94,37.58 L61.33,37.33 L57.42,37.65 L53.66,38.77 L50.20,40.63 L47.20,43.16 L44.78,46.24 L43.04,49.76 L39.56,50.55 L36.30,52.02 L33.41,54.11 L31.00,56.75 L29.17,59.81 L27.99,63.18 L27.52,66.72 L28.00,70.19 L29.15,73.51 L30.93,76.53 L33.25,79.16 L36.04,81.28 L39.19,82.82 L42.58,83.72 L46.08,83.95 L77.71,83.95 L78.11,83.98 L78.51,83.95 L81.77,83.56 L84.87,82.48 L87.65,80.74 L89.99,78.43 L91.77,75.67 L92.90,72.59 L93.33,69.33 L93.33,69.33 Z" fill="#3990e4" stroke="#1e1e1e" stroke-width="1" stroke-linejoin="round"/></svg>