<svg xmlns="http://www.w3.org/2000/svg" viewBox="19.33 40.67 217.33 174.67"><path d="M45.33,42.67 L42.88,42.79 L40.50,43.15 L38.20,43.75 L35.99,44.55 L33.89,45.56 L31.91,46.77 L30.07,48.15 L28.36,49.70 L26.81,51.40 L25.43,53.25 L24.23,55.23 L23.22,57.32 L22.41,59.53 L21.82,61.83 L21.46,64.21 L21.33,66.67 L21.33,93.33 L21.46,95.79 L21.82,98.17 L22.41,100.47 L23.22,102.68 L24.23,104.77 L25.43,106.75 L26.81,108.60 L28.36,110.30 L30.07,111.85 L31.91,113.23 L33.89,114.44 L35.99,115.45 L38.20,116.25 L40.50,116.85 L42.88,117.21 L45.33,117.33 L72.00,117.33 L74.45,117.21 L76.84,116.85 L79.14,116.25 L81.34,115.45 L83.44,114.44 L85.42,113.23 L87.27,111.85 L88.97,110.30 L90.52,108.60 L91.90,106.75 L93.10,104.77 L94.11,102.68 L94.92,100.47 L95.51,98.17 L95.88,95.79 L96.00,93.33 L96.00,66.67 L95.88,64.21 L95.51,61.83 L94.92,59.53 L94.11,57.32 L93.10,55.23 L91.90,53.25 L90.52,51.40 L88.97,49.70 L87.27,48.15 L85.42,46.77 L83.44,45.56 L81.34,44.55 L79.14,43.75 L76.84,43.15 L74.45,42.79 L72.00,42.67 L45.33,42.67 Z" fill="#0078d4" stroke="#1e1e1e" stroke-width="1" stroke-linejoin="round"/><path d="M120.00,53.33 L118.39,53.50 L116.89,53.96 L115.53,54.70 L114.34,55.68 L113.37,56.86 L112.63,58.22 L112.16,59.72 L112.00,61.33 L112.16,62.95 L112.63,64.45 L113.37,65.81 L114.34,66.99 L115.53,67.97 L116.89,68.70 L118.39,69.17 L120.00,69.33 L226.67,69.33 L228.28,69.17 L229.78,68.70 L231.14,67.97 L232.32,66.99 L233.30,65.81 L234.04,64.45 L234.50,62.95 L234.67,61.33 L234.50,59.72 L234.04,58.22 L233.30,56.86 L232.32,55.68 L231.14,54.70 L229.78,53.96 L228.28,53.50 L226.67,53.33 L120.00,53.33 Z" fill="#0078d4" stroke="#1e1e1e" stroke-width="1" stroke-linejoin="round"/><path d="M120.00,85.33 L118.39,85.50 L116.89,85.96 L115.53,86.70 L114.34,87.68 L113.37,88.86 L112.63,90.22 L112.16,91.72 L112.00,93.33 L112.16,94.95 L112.63,96.45 L113.37,97.81 L114.34,98.99 L115.53,99.97 L116.89,100.70 L118.39,101.17 L120.00,101.33 L194.67,101.33 L196.28,101.17 L197.78,100.70 L199.14,99.97 L200.32,98.99 L201.30,97.81 L202.04,96.45 L202.50,94.95 L202.67,93.33 L202.50,91.72 L202.04,90.22 L201.30,88.86 L200.32,87.68 L199.14,86.70 L197.78,85.96 L196.28,85.50 L194.67,85.33 L120.00,85.33 Z" fill="#0078d4" stroke="#1e1e1e" stroke-width="1" stroke-linejoin="round"/><path d="M45.33,138.67 L42.88,138.79 L40.50,139.15 L38.20,139.75 L35.99,140.55 L33.89,141.56 L31.91,142.77 L30.07,144.15 L28.36,145.70 L26.81,147.40 L25.43,149.25 L24.23,151.23 L23.22,153.32 L22.41,155.53 L21.82,157.83 L21.46,160.21 L21.33,162.67 L21.33,189.33 L21.46,191.79 L21.82,194.17 L22.41,196.47 L23.22,198.68 L24.23,200.77 L25.43,202.75 L26.81,204.60 L28.36,206.30 L30.07,207.85 L31.91,209.23 L33.89,210.44 L35.99,211.45 L38.20,212.25 L40.50,212.85 L42.88,213.21 L45.33,213.33 L72.00,213.33 L74.45,213.21 L76.84,212.85 L79.14,212.25 L81.34,211.45 L83.44,210.44 L85.42,209.23 L87.27,207.85 L88.97,206.30 L90.52,204.60 L91.90,202.75 L93.10,200.77 L94.11,198.68 L94.92,196.47 L95.51,194.17 L95.88,191.79 L96.00,189.33 L96.00,162.67 L95.88,160.21 L95.51,157.83 L94.92,155.53 L94.11,153.32 L93.10,151.23 L91.90,149.25 L90.52,147.40 L88.97,145.70 L87.27,144.15 L85.42,142.77 L83.44,141.56 L81.34,140.55 L79.14,139.75 L76.84,139.15 L74.45,138.79 L72.00,138.67 L45.33,138.67 Z" fill="#0078d4" stroke="#1e1e1e" stroke-width="1" stroke-linejoin="round"/><path d="M120.00,149.33 L118.39,149.50 L116.89,149.96 L115.53,150.70 L114.34,151.68 L113.37,152.86 L112.63,154.22 L112.16,155.72 L112.00,157.33 L112.16,158.95 L112.63,160.45 L113.37,161.81 L114.34,162.99 L115.53,163.97 L116.89,164.70 L118.39,165.17 L120.00,165.33 L226.67,165.33 L228.28,165.17 L229.78,164.70 L231.14,163.97 L232.32,162.99 L233.30,161.81 L234.04,160.45 L234.50,158.95 L234.67,157.33 L234.50,155.72 L234.04,154.22 L233.30,152.86 L232.32,151.68 L231.14,150.70 L229.78,149.96 L228.28,149.50 L226.67,149.33 L120.00,149.33 Z" fill="#0078d4" stroke="#1e1e1e" stroke-width="1" stroke-linejoin="round"/><path d="M120.00,181.33 L118.39,181.50 L116.89,181.96 L115.53,182.70 L114.34,183.68 L113.37,184.86 L112.63,186.22 L112.16,187.72 L112.00,189.33 L112.16,190.95 L112.63,192.45 L113.37,193.81 L114.34,194.99 L115.53,195.97 L116.89,196.70 L118.39,197.17 L120.00,197.33 L194.67,197.33 L196.28,197.17 L197.78,196.70 L199.14,195.97 L200.32,194.99 L201.30,193.81 L202.04,192.45 L202.50,190.95 L202.67,189.33 L202.50,187.72 L202.04,186.22 L201.30,184.86 L200.32,183.68 L199.14,182.70 L197.78,181.96 L196.28,181.50 L194.67,181.33 L120.00,181.33 Z" fill="#0078d4" stroke="#1e1e1e" stroke-width="1" stroke-linejoin="round"/></svg>