<svg xmlns="http://www.w3.org/2000/svg" viewBox="7.60 17.20 100.00 80.80"><path d="M20.40,19.20 L19.30,19.26 L18.22,19.42 L17.19,19.69 L16.20,20.05 L15.25,20.50 L14.36,21.04 L13.53,21.67 L12.76,22.36 L12.07,23.13 L11.44,23.96 L10.90,24.85 L10.45,25.80 L10.09,26.79 L9.82,27.82 L9.66,28.90 L9.60,30.00 L9.60,42.00 L9.66,43.10 L9.82,44.18 L10.09,45.21 L10.45,46.20 L10.90,47.15 L11.44,48.04 L12.07,48.87 L12.76,49.64 L13.53,50.33 L14.36,50.96 L15.25,51.50 L16.20,51.95 L17.19,52.31 L18.22,52.58 L19.30,52.74 L20.40,52.80 L32.40,52.80 L33.50,52.74 L34.58,52.58 L35.61,52.31 L36.60,51.95 L37.55,51.50 L38.44,50.96 L39.27,50.33 L40.04,49.64 L40.73,48.87 L41.36,48.04 L41.90,47.15 L42.35,46.20 L42.71,45.21 L42.98,44.18 L43.14,43.10 L43.20,42.00 L43.20,30.00 L43.14,28.90 L42.98,27.82 L42.71,26.79 L42.35,25.80 L41.90,24.85 L41.36,23.96 L40.73,23.13 L40.04,22.36 L39.27,21.67 L38.44,21.04 L37.55,20.50 L36.60,20.05 L35.61,19.69 L34.58,19.42 L33.50,19.26 L32.40,19.20 L20.40,19.20 Z" fill="#0078d4" stroke="#0078d4" stroke-width="1" stroke-linejoin="round"/><path d="M54.00,24.00 L53.27,24.07 L52.60,24.28 L51.99,24.61 L51.45,25.05 L51.01,25.59 L50.68,26.20 L50.47,26.87 L50.40,27.60 L50.47,28.33 L50.68,29.00 L51.01,29.61 L51.45,30.15 L51.99,30.59 L52.60,30.92 L53.27,31.13 L54.00,31.20 L102.00,31.20 L102.73,31.13 L103.40,30.92 L104.01,30.59 L104.55,30.15 L104.99,29.61 L105.32,29.00 L105.53,28.33 L105.60,27.60 L105.53,26.87 L105.32,26.20 L104.99,25.59 L104.55,25.05 L104.01,24.61 L103.40,24.28 L102.73,24.07 L102.00,24.00 L54.00,24.00 Z" fill="#0078d4" stroke="#0078d4" stroke-width="1" stroke-linejoin="round"/><path d="M54.00,38.40 L53.27,38.47 L52.60,38.68 L51.99,39.01 L51.45,39.45 L51.01,39.99 L50.68,40.60 L50.47,41.27 L50.40,42.00 L50.47,42.73 L50.68,43.40 L51.01,44.01 L51.45,44.55 L51.99,44.99 L52.60,45.32 L53.27,45.53 L54.00,45.60 L87.60,45.60 L88.33,45.53 L89.00,45.32 L89.61,44.99 L90.15,44.55 L90.59,44.01 L90.92,43.40 L91.13,42.73 L91.20,42.00 L91.13,41.27 L90.92,40.60 L90.59,39.99 L90.15,39.45 L89.61,39.01 L89.00,38.68 L88.33,38.47 L87.60,38.40 L54.00,38.40 Z" fill="#0078d4" stroke="#0078d4" stroke-width="1" stroke-linejoin="round"/><path d="M20.40,62.40 L19.30,62.46 L18.22,62.62 L17.19,62.89 L16.20,63.25 L15.25,63.70 L14.36,64.24 L13.53,64.87 L12.76,65.56 L12.07,66.33 L11.44,67.16 L10.90,68.05 L10.45,69.00 L10.09,69.99 L9.82,71.02 L9.66,72.10 L9.60,73.20 L9.60,85.20 L9.66,86.30 L9.82,87.38 L10.09,88.41 L10.45,89.40 L10.90,90.35 L11.44,91.24 L12.07,92.07 L12.76,92.84 L13.53,93.53 L14.36,94.16 L15.25,94.70 L16.20,95.15 L17.19,95.51 L18.22,95.78 L19.30,95.94 L20.40,96.00 L32.40,96.00 L33.50,95.94 L34.58,95.78 L35.61,95.51 L36.60,95.15 L37.55,94.70 L38.44,94.16 L39.27,93.53 L40.04,92.84 L40.73,92.07 L41.36,91.24 L41.90,90.35 L42.35,89.40 L42.71,88.41 L42.98,87.38 L43.14,86.30 L43.20,85.20 L43.20,73.20 L43.14,72.10 L42.98,71.02 L42.71,69.99 L42.35,69.00 L41.90,68.05 L41.36,67.16 L40.73,66.33 L40.04,65.56 L39.27,64.87 L38.44,64.24 L37.55,63.70 L36.60,63.25 L35.61,62.89 L34.58,62.62 L33.50,62.46 L32.40,62.40 L20.40,62.40 Z" fill="#0078d4" stroke="#0078d4" stroke-width="1" stroke-linejoin="round"/><path d="M54.00,67.20 L53.27,67.27 L52.60,67.48 L51.99,67.81 L51.45,68.25 L51.01,68.79 L50.68,69.40 L50.47,70.07 L50.40,70.80 L50.47,71.53 L50.68,72.20 L51.01,72.81 L51.45,73.35 L51.99,73.79 L52.60,74.12 L53.27,74.33 L54.00,74.40 L102.00,74.40 L102.73,74.33 L103.40,74.12 L104.01,73.79 L104.55,73.35 L104.99,72.81 L105.32,72.20 L105.53,71.53 L105.60,70.80 L105.53,70.07 L105.32,69.40 L104.99,68.79 L104.55,68.25 L104.01,67.81 L103.40,67.48 L102.73,67.27 L102.00,67.20 L54.00,67.20 Z" fill="#0078d4" stroke="#0078d4" stroke-width="1" stroke-linejoin="round"/><path d="M54.00,81.60 L53.27,81.67 L52.60,81.88 L51.99,82.21 L51.45,82.65 L51.01,83.19 L50.68,83.80 L50.47,84.47 L50.40,85.20 L50.47,85.93 L50.68,86.60 L51.01,87.21 L51.45,87.75 L51.99,88.19 L52.60,88.52 L53.27,88.73 L54.00,88.80 L87.60,88.80 L88.33,88.73 L89.00,88.52 L89.61,88.19 L90.15,87.75 L90.59,87.21 L90.92,86.60 L91.13,85.93 L91.20,85.20 L91.13,84.47 L90.92,83.80 L90.59,83.19 L90.15,82.65 L89.61,82.21 L89.00,81.88 L88.33,81.67 L87.60,81.60 L54.00,81.60 Z" fill="#0078d4" stroke="#0078d4" stroke-width="1" stroke-linejoin="round"/></svg>