<svg xmlns="http://www.w3.org/2000/svg" viewBox="13.16 8.11 100.00 100.00"><path d="M76.41,13.25 L63.16,26.50 L63.16,25.89 L63.10,24.80 L62.94,23.73 L62.68,22.70 L62.31,21.72 L61.86,20.78 L61.32,19.89 L60.71,19.07 L60.01,18.30 L59.25,17.61 L58.42,16.99 L57.54,16.45 L56.60,16.00 L55.61,15.64 L54.59,15.38 L53.52,15.21 L52.42,15.16 L25.89,15.16 L24.80,15.21 L23.73,15.38 L22.70,15.64 L21.72,16.00 L20.78,16.45 L19.89,16.99 L19.07,17.61 L18.30,18.30 L17.61,19.07 L16.99,19.89 L16.45,20.78 L16.00,21.72 L15.64,22.70 L15.38,23.73 L15.21,24.80 L15.16,25.89 L15.16,95.37 L15.21,96.47 L15.38,97.53 L15.64,98.56 L16.00,99.55 L16.45,100.49 L16.99,101.37 L17.61,102.20 L18.30,102.96 L19.07,103.65 L19.89,104.27 L20.78,104.81 L21.72,105.26 L22.70,105.62 L23.73,105.89 L24.80,106.05 L25.89,106.11 L95.37,106.11 L96.47,106.05 L97.53,105.89 L98.56,105.62 L99.55,105.26 L100.49,104.81 L101.37,104.27 L102.20,103.65 L102.96,102.96 L103.65,102.20 L104.27,101.37 L104.81,100.49 L105.26,99.55 L105.62,98.56 L105.89,97.53 L106.05,96.47 L106.11,95.37 L106.11,68.84 L106.05,67.74 L105.89,66.68 L105.62,65.65 L105.26,64.66 L104.81,63.72 L104.27,62.84 L103.65,62.01 L102.96,61.25 L102.20,60.56 L101.37,59.94 L100.49,59.40 L99.55,58.95 L98.56,58.59 L97.53,58.32 L96.47,58.16 L95.37,58.11 L94.76,58.11 L108.01,44.86 L108.75,44.04 L109.39,43.17 L109.93,42.26 L110.37,41.30 L110.72,40.32 L110.96,39.32 L111.11,38.29 L111.16,37.26 L111.11,36.24 L110.96,35.21 L110.72,34.21 L110.37,33.22 L109.93,32.27 L109.39,31.36 L108.75,30.49 L108.01,29.67 L91.59,13.25 L90.78,12.51 L89.91,11.88 L88.99,11.34 L88.04,10.89 L87.06,10.55 L86.05,10.30 L85.03,10.16 L84.00,10.11 L82.97,10.16 L81.95,10.30 L80.94,10.55 L79.96,10.89 L79.01,11.34 L78.09,11.88 L77.22,12.51 L76.41,13.25 Z" fill="#0078d4" stroke="#0078d4" stroke-width="1" stroke-linejoin="round"/><path d="M63.16,48.03 L73.24,58.11 L63.16,58.11 L63.16,48.03 Z" fill="#ffffff" stroke="#ffffff" stroke-width="1" stroke-linejoin="round"/><path d="M84.11,64.42 L95.37,64.42 L96.26,64.51 L97.09,64.77 L97.84,65.18 L98.49,65.72 L99.03,66.37 L99.44,67.12 L99.70,67.95 L99.79,68.84 L99.79,95.37 L99.70,96.26 L99.44,97.09 L99.03,97.84 L98.49,98.49 L97.84,99.03 L97.09,99.44 L96.26,99.70 L95.37,99.79 L63.16,99.79 L63.16,64.42 L83.89,64.42 L84.11,64.42 Z" fill="#ffffff" stroke="#ffffff" stroke-width="1" stroke-linejoin="round"/><path d="M25.89,21.47 L52.42,21.47 L53.31,21.56 L54.14,21.82 L54.89,22.23 L55.55,22.77 L56.09,23.42 L56.49,24.17 L56.75,25.00 L56.84,25.89 L56.84,58.11 L21.47,58.11 L21.47,25.89 L21.56,25.00 L21.82,24.17 L22.23,23.42 L22.77,22.77 L23.42,22.23 L24.17,21.82 L25.00,21.56 L25.89,21.47 Z" fill="#ffffff" stroke="#ffffff" stroke-width="1" stroke-linejoin="round"/><path d="M56.84,64.42 L56.84,99.79 L25.89,99.79 L25.00,99.70 L24.17,99.44 L23.42,99.03 L22.77,98.49 L22.23,97.84 L21.82,97.09 L21.56,96.26 L21.47,95.37 L21.47,64.42 L56.84,64.42 Z" fill="#ffffff" stroke="#ffffff" stroke-width="1" stroke-linejoin="round"/></svg>