<svg xmlns="http://www.w3.org/2000/svg" viewBox="10.52 0.09 79.13 100.00"><path d="M67.00,20.99 L66.56,21.71 L66.27,22.48 L66.15,23.28 L66.18,24.08 L66.36,24.86 L66.69,25.59 L67.17,26.26 L67.79,26.84 L69.10,27.90 L70.35,29.04 L71.53,30.23 L72.63,31.49 L73.65,32.81 L74.60,34.17 L75.46,35.59 L76.25,37.06 L76.95,38.57 L77.56,40.12 L78.08,41.71 L78.52,43.33 L78.86,44.98 L79.11,46.66 L79.25,48.36 L79.30,50.09 L79.18,52.79 L78.82,55.43 L78.22,57.99 L77.41,60.45 L76.39,62.81 L75.18,65.06 L73.78,67.19 L72.20,69.18 L70.46,71.03 L68.57,72.72 L66.54,74.24 L64.37,75.58 L62.08,76.74 L59.69,77.69 L57.19,78.43 L54.61,78.96 L57.57,75.99 L58.11,75.34 L58.49,74.61 L58.72,73.84 L58.79,73.04 L58.72,72.25 L58.49,71.47 L58.11,70.75 L57.57,70.09 L56.92,69.56 L56.19,69.18 L55.42,68.95 L54.62,68.87 L53.82,68.95 L53.05,69.18 L52.32,69.56 L51.67,70.09 L41.23,80.53 L40.70,81.18 L40.32,81.91 L40.09,82.68 L40.01,83.48 L40.09,84.28 L40.32,85.05 L40.70,85.77 L41.23,86.43 L51.67,96.86 L52.32,97.40 L53.05,97.78 L53.82,98.01 L54.62,98.09 L55.42,98.01 L56.19,97.78 L56.92,97.40 L57.57,96.86 L58.11,96.21 L58.49,95.48 L58.72,94.71 L58.79,93.91 L58.72,93.12 L58.49,92.34 L58.11,91.62 L57.57,90.96 L54.05,87.45 L55.81,87.22 L57.54,86.91 L59.24,86.53 L60.92,86.07 L62.56,85.53 L64.16,84.93 L65.73,84.25 L67.27,83.50 L68.76,82.69 L70.21,81.81 L71.62,80.87 L72.98,79.87 L74.30,78.81 L75.56,77.70 L76.77,76.53 L77.93,75.30 L79.04,74.03 L80.08,72.70 L81.07,71.33 L82.00,69.91 L82.86,68.45 L83.66,66.95 L84.39,65.41 L85.06,63.83 L85.65,62.22 L86.17,60.57 L86.61,58.89 L86.98,57.18 L87.27,55.45 L87.48,53.68 L87.61,51.90 L87.65,50.09 L87.59,47.87 L87.40,45.68 L87.08,43.53 L86.64,41.40 L86.08,39.32 L85.41,37.28 L84.62,35.28 L83.72,33.34 L82.71,31.45 L81.60,29.63 L80.38,27.87 L79.07,26.18 L77.65,24.56 L76.14,23.03 L74.54,21.57 L72.85,20.20 L72.13,19.76 L71.36,19.48 L70.56,19.35 L69.76,19.38 L68.98,19.57 L68.24,19.90 L67.58,20.37 L67.00,20.99 Z" fill="#0078d4" stroke="#1e1e1e" stroke-width="1" stroke-linejoin="round"/><path d="M58.94,13.74 L48.51,3.31 L47.85,2.77 L47.13,2.39 L46.35,2.16 L45.55,2.09 L44.76,2.16 L43.98,2.39 L43.26,2.77 L42.60,3.31 L42.10,3.91 L41.74,4.57 L41.50,5.28 L41.39,6.01 L41.41,6.75 L41.56,7.48 L41.84,8.17 L42.26,8.82 L42.60,9.21 L46.12,12.73 L44.37,12.95 L42.63,13.26 L40.93,13.65 L39.26,14.11 L37.62,14.64 L36.01,15.25 L34.44,15.93 L32.91,16.67 L31.41,17.48 L29.96,18.36 L28.55,19.30 L27.19,20.30 L25.88,21.36 L24.61,22.48 L23.40,23.65 L22.24,24.87 L21.14,26.15 L20.09,27.47 L19.10,28.84 L18.17,30.26 L17.31,31.72 L16.51,33.22 L15.78,34.76 L15.12,36.34 L14.52,37.95 L14.00,39.60 L13.56,41.28 L13.19,42.99 L12.90,44.73 L12.69,46.49 L12.56,48.28 L12.52,50.09 L12.58,52.21 L12.76,54.30 L13.05,56.37 L13.45,58.41 L13.96,60.41 L14.58,62.37 L15.30,64.30 L16.13,66.17 L17.06,68.00 L18.08,69.77 L19.21,71.49 L20.42,73.14 L21.73,74.73 L23.13,76.25 L24.61,77.69 L26.18,79.06 L26.88,79.53 L27.64,79.84 L28.43,80.00 L29.23,80.00 L30.02,79.85 L30.77,79.55 L31.45,79.10 L32.05,78.50 L32.52,77.80 L32.84,77.04 L32.99,76.25 L32.99,75.45 L32.84,74.66 L32.54,73.91 L32.09,73.23 L31.49,72.63 L30.27,71.56 L29.12,70.43 L28.03,69.25 L27.01,68.02 L26.07,66.73 L25.19,65.40 L24.40,64.02 L23.68,62.60 L23.03,61.14 L22.47,59.65 L21.99,58.12 L21.59,56.56 L21.28,54.97 L21.05,53.37 L20.92,51.74 L20.87,50.09 L20.99,47.38 L21.36,44.74 L21.95,42.19 L22.76,39.72 L23.78,37.36 L24.99,35.11 L26.40,32.99 L27.97,30.99 L29.71,29.15 L31.60,27.46 L33.64,25.94 L35.80,24.59 L38.09,23.44 L40.49,22.48 L42.98,21.74 L45.56,21.22 L42.60,24.18 L42.07,24.83 L41.69,25.56 L41.46,26.33 L41.38,27.13 L41.46,27.93 L41.69,28.70 L42.07,29.43 L42.60,30.08 L43.21,30.58 L43.87,30.95 L44.58,31.19 L45.31,31.30 L46.05,31.28 L46.77,31.12 L47.47,30.84 L48.11,30.43 L48.51,30.08 L58.94,19.65 L59.44,19.05 L59.81,18.38 L60.05,17.67 L60.16,16.94 L60.13,16.20 L59.98,15.48 L59.70,14.78 L59.29,14.14 L58.94,13.74 Z" fill="#0078d4" stroke="#1e1e1e" stroke-width="1" stroke-linejoin="round"/></svg>