<svg xmlns="http://www.w3.org/2000/svg" viewBox="7.60 7.60 100.00 100.00"><path d="M76.80,9.60 L78.28,9.64 L79.74,9.75 L81.18,9.93 L82.60,10.18 L85.36,10.89 L88.01,11.86 L90.52,13.08 L92.90,14.52 L95.12,16.18 L97.16,18.03 L99.02,20.08 L100.68,22.30 L102.12,24.67 L103.33,27.19 L104.30,29.83 L105.01,32.59 L105.26,34.01 L105.45,35.45 L105.56,36.92 L105.60,38.40 L105.47,41.14 L105.08,43.83 L104.45,46.45 L103.59,48.99 L102.49,51.42 L101.17,53.75 L99.64,55.94 L97.90,58.00 L96.99,58.93 L55.10,100.82 L54.84,101.06 L54.57,101.27 L53.33,102.25 L52.01,103.12 L50.62,103.86 L49.17,104.47 L47.67,104.96 L46.12,105.31 L44.54,105.52 L42.92,105.60 L41.10,105.50 L39.32,105.23 L37.61,104.79 L35.97,104.19 L34.41,103.44 L32.94,102.54 L31.56,101.52 L30.29,100.36 L29.14,99.10 L28.11,97.72 L27.22,96.25 L26.47,94.69 L25.87,93.05 L25.43,91.33 L25.16,89.56 L25.06,87.73 L25.14,86.12 L25.35,84.54 L25.70,83.00 L26.18,81.50 L26.79,80.06 L27.53,78.67 L28.39,77.35 L29.36,76.11 L30.07,75.33 L30.15,75.27 L65.14,40.22 L65.89,39.60 L66.73,39.16 L67.62,38.90 L68.53,38.81 L69.45,38.89 L70.34,39.16 L71.18,39.60 L71.93,40.21 L72.55,40.96 L72.99,41.80 L73.25,42.69 L73.34,43.60 L73.25,44.52 L72.99,45.41 L72.55,46.24 L71.94,47.00 L36.94,82.05 L36.89,82.10 L36.38,82.69 L35.94,83.32 L35.56,83.99 L35.24,84.69 L34.99,85.42 L34.81,86.17 L34.70,86.94 L34.66,87.73 L34.71,88.58 L34.83,89.40 L35.03,90.19 L35.31,90.95 L35.66,91.67 L36.07,92.35 L36.55,92.99 L37.08,93.58 L37.67,94.11 L38.31,94.58 L38.99,95.00 L39.71,95.35 L40.47,95.62 L41.26,95.83 L42.08,95.95 L42.92,96.00 L44.27,95.89 L45.55,95.57 L46.76,95.05 L47.87,94.35 L48.46,93.87 L48.46,93.87 L90.23,52.11 L90.99,51.32 L92.13,49.96 L93.12,48.51 L93.98,46.98 L94.69,45.37 L95.25,43.70 L95.66,41.98 L95.91,40.21 L96.00,38.40 L95.90,36.44 L95.61,34.53 L95.13,32.69 L94.49,30.93 L93.68,29.25 L92.72,27.66 L91.61,26.19 L90.37,24.82 L89.01,23.58 L87.53,22.48 L85.95,21.52 L84.27,20.71 L82.51,20.06 L80.67,19.59 L78.76,19.30 L76.80,19.20 L74.90,19.29 L73.05,19.56 L71.25,20.01 L69.51,20.63 L67.84,21.41 L66.26,22.34 L64.77,23.43 L63.38,24.66 L62.64,25.43 L62.55,25.49 L17.79,70.27 L17.04,70.89 L16.20,71.32 L15.31,71.59 L14.40,71.68 L13.48,71.59 L12.59,71.33 L11.75,70.89 L11.00,70.27 L10.39,69.52 L9.95,68.68 L9.68,67.79 L9.60,66.88 L9.68,65.96 L9.95,65.07 L10.39,64.24 L11.00,63.48 L55.68,18.78 L55.90,18.58 L56.94,17.54 L58.02,16.56 L59.15,15.64 L60.32,14.78 L61.53,13.98 L62.77,13.24 L64.06,12.56 L65.37,11.96 L66.72,11.41 L68.09,10.94 L69.49,10.54 L70.91,10.20 L72.36,9.94 L73.82,9.75 L75.30,9.64 L76.80,9.60 Z" fill="#0078d4" stroke="#1e1e1e" stroke-width="1" stroke-linejoin="round"/></svg>