<svg xmlns="http://www.w3.org/2000/svg" viewBox="19.32 19.33 217.34 217.33"><path d="M170.67,21.33 L173.96,21.42 L177.21,21.66 L180.41,22.07 L183.56,22.63 L189.70,24.21 L195.58,26.36 L201.17,29.06 L206.45,32.26 L211.38,35.95 L215.92,40.08 L220.05,44.62 L223.74,49.55 L226.94,54.83 L229.64,60.42 L231.79,66.30 L233.37,72.44 L233.93,75.59 L234.34,78.79 L234.58,82.04 L234.67,85.33 L234.38,91.43 L233.53,97.41 L232.13,103.23 L230.20,108.86 L227.76,114.28 L224.83,119.44 L221.42,124.33 L217.56,128.89 L215.53,130.97 L122.44,224.06 L121.88,224.58 L121.28,225.06 L118.52,227.24 L115.58,229.16 L112.49,230.80 L109.27,232.17 L105.93,233.25 L102.50,234.03 L98.98,234.51 L95.39,234.67 L91.33,234.46 L87.39,233.86 L83.59,232.88 L79.94,231.55 L76.47,229.88 L73.20,227.89 L70.14,225.60 L67.33,223.04 L64.76,220.22 L62.48,217.17 L60.49,213.89 L58.82,210.42 L57.48,206.78 L56.51,202.97 L55.90,199.03 L55.70,194.97 L55.86,191.40 L56.33,187.88 L57.11,184.45 L58.19,181.12 L59.55,177.91 L61.18,174.83 L63.09,171.91 L65.25,169.15 L66.83,167.41 L67.00,167.28 L144.77,89.37 L146.44,88.01 L148.29,87.03 L150.27,86.44 L152.31,86.24 L154.34,86.44 L156.32,87.02 L158.18,88.00 L159.85,89.36 L161.22,91.03 L162.20,92.89 L162.78,94.86 L162.98,96.90 L162.79,98.94 L162.20,100.91 L161.23,102.77 L159.86,104.45 L82.09,182.35 L81.98,182.44 L80.86,183.76 L79.87,185.16 L79.02,186.65 L78.32,188.20 L77.76,189.82 L77.36,191.50 L77.12,193.22 L77.03,194.97 L77.13,196.85 L77.41,198.67 L77.86,200.43 L78.48,202.12 L79.25,203.73 L80.17,205.24 L81.23,206.65 L82.41,207.96 L83.71,209.14 L85.13,210.20 L86.64,211.12 L88.25,211.89 L89.93,212.51 L91.69,212.96 L93.51,213.24 L95.39,213.33 L98.37,213.09 L101.23,212.39 L103.92,211.24 L106.39,209.68 L107.69,208.60 L107.70,208.62 L200.53,115.81 L202.22,114.05 L204.73,111.03 L206.95,107.80 L208.85,104.39 L210.44,100.83 L211.69,97.11 L212.59,93.28 L213.15,89.35 L213.33,85.33 L213.11,80.97 L212.47,76.73 L211.42,72.65 L209.98,68.73 L208.18,65.00 L206.05,61.48 L203.59,58.19 L200.84,55.16 L197.81,52.41 L194.52,49.95 L191.00,47.82 L187.27,46.02 L183.35,44.58 L179.27,43.53 L175.03,42.89 L170.67,42.67 L166.46,42.87 L162.34,43.48 L158.34,44.47 L154.47,45.84 L150.77,47.58 L147.25,49.66 L143.94,52.07 L140.85,54.81 L139.20,56.52 L139.00,56.65 L39.53,156.16 L37.86,157.53 L36.01,158.51 L34.03,159.09 L31.99,159.29 L29.96,159.09 L27.98,158.51 L26.12,157.53 L24.45,156.17 L23.08,154.49 L22.11,152.64 L21.52,150.66 L21.32,148.62 L21.52,146.59 L22.10,144.61 L23.08,142.75 L24.45,141.08 L123.74,41.74 L124.24,41.28 L126.54,38.98 L128.95,36.80 L131.45,34.75 L134.05,32.84 L136.74,31.06 L139.51,29.42 L142.35,27.92 L145.28,26.57 L148.26,25.37 L151.32,24.31 L154.43,23.42 L157.59,22.67 L160.80,22.09 L164.05,21.67 L167.34,21.42 L170.67,21.33 Z" fill="#0078d4" stroke="#1e1e1e" stroke-width="1" stroke-linejoin="round"/></svg>