<svg xmlns="http://www.w3.org/2000/svg" viewBox="17.22 7.60 80.80 100.00"><path d="M85.21,67.20 L86.32,67.25 L87.39,67.42 L88.42,67.68 L89.42,68.05 L90.36,68.50 L91.25,69.04 L92.08,69.66 L92.85,70.36 L93.55,71.13 L94.17,71.96 L94.71,72.85 L95.16,73.79 L95.53,74.79 L95.79,75.82 L95.96,76.89 L96.01,78.00 L96.01,82.34 L95.91,84.30 L95.59,86.21 L95.08,88.07 L94.37,89.86 L93.47,91.56 L92.40,93.16 L91.15,94.65 L89.74,96.00 L88.29,97.17 L86.77,98.26 L85.17,99.28 L83.50,100.22 L81.75,101.08 L79.92,101.87 L78.03,102.58 L76.05,103.22 L74.00,103.78 L71.88,104.26 L69.69,104.67 L67.42,105.01 L65.07,105.27 L62.65,105.45 L60.16,105.57 L57.60,105.60 L55.03,105.57 L52.54,105.45 L50.13,105.27 L47.78,105.01 L45.51,104.67 L43.32,104.26 L41.20,103.78 L39.15,103.22 L37.18,102.58 L35.28,101.87 L33.46,101.09 L31.71,100.22 L30.04,99.28 L28.45,98.27 L26.93,97.17 L25.48,96.00 L24.07,94.65 L22.82,93.16 L21.75,91.56 L20.86,89.86 L20.15,88.07 L19.64,86.22 L19.32,84.30 L19.22,82.35 L19.22,78.00 L19.27,76.89 L19.44,75.82 L19.70,74.79 L20.07,73.79 L20.52,72.85 L21.06,71.96 L21.68,71.13 L22.38,70.36 L23.15,69.66 L23.98,69.04 L24.87,68.50 L25.81,68.05 L26.80,67.68 L27.84,67.42 L28.91,67.25 L30.02,67.20 L85.21,67.20 Z" fill="#5b5fc7" stroke="#5b5fc7" stroke-width="1" stroke-linejoin="round"/><path d="M57.11,9.63 L57.60,9.60 L58.27,9.66 L58.89,9.84 L59.47,10.12 L59.98,10.50 L60.41,10.96 L60.77,11.49 L61.02,12.08 L61.17,12.71 L61.20,13.20 L61.20,16.80 L78.00,16.80 L79.10,16.86 L80.17,17.02 L81.21,17.29 L82.20,17.65 L83.15,18.10 L84.04,18.64 L84.87,19.27 L85.63,19.96 L86.33,20.73 L86.95,21.56 L87.49,22.45 L87.95,23.40 L88.31,24.39 L88.58,25.42 L88.74,26.50 L88.80,27.60 L88.80,49.22 L88.74,50.32 L88.58,51.40 L88.31,52.43 L87.95,53.42 L87.49,54.37 L86.95,55.26 L86.33,56.09 L85.63,56.86 L84.87,57.55 L84.04,58.18 L83.15,58.72 L82.20,59.17 L81.21,59.53 L80.17,59.80 L79.10,59.96 L78.00,60.02 L37.20,60.02 L36.09,59.96 L35.02,59.80 L33.99,59.53 L33.00,59.17 L32.05,58.72 L31.16,58.18 L30.33,57.55 L29.56,56.86 L28.87,56.09 L28.24,55.26 L27.70,54.37 L27.25,53.42 L26.88,52.43 L26.62,51.40 L26.46,50.32 L26.40,49.22 L26.40,27.60 L26.46,26.50 L26.62,25.42 L26.88,24.39 L27.25,23.40 L27.70,22.45 L28.24,21.56 L28.87,20.73 L29.56,19.96 L30.33,19.27 L31.16,18.64 L32.05,18.10 L33.00,17.65 L33.99,17.29 L35.02,17.02 L36.09,16.86 L37.20,16.80 L54.00,16.80 L54.00,13.20 L54.06,12.54 L54.24,11.91 L54.52,11.34 L54.90,10.82 L55.35,10.39 L55.88,10.04 L56.47,9.78 L57.11,9.63 L57.60,9.60 L57.11,9.63 Z" fill="#5b5fc7" stroke="#5b5fc7" stroke-width="1" stroke-linejoin="round"/><path d="M46.80,31.20 L45.59,31.32 L44.46,31.67 L43.44,32.22 L42.56,32.96 L41.82,33.84 L41.27,34.86 L40.92,35.99 L40.80,37.20 L40.92,38.40 L41.27,39.53 L41.82,40.55 L42.56,41.44 L43.44,42.17 L44.46,42.72 L45.59,43.07 L46.80,43.19 L48.00,43.07 L49.13,42.72 L50.15,42.17 L51.04,41.44 L51.77,40.55 L52.32,39.53 L52.67,38.40 L52.79,37.20 L52.67,35.99 L52.32,34.86 L51.77,33.84 L51.04,32.96 L50.15,32.22 L49.13,31.67 L48.00,31.32 L46.80,31.20 Z" fill="#ffffff" stroke="#ffffff" stroke-width="1" stroke-linejoin="round"/><path d="M68.36,31.20 L67.15,31.32 L66.03,31.67 L65.01,32.22 L64.12,32.96 L63.39,33.84 L62.83,34.86 L62.49,35.99 L62.36,37.20 L62.49,38.40 L62.83,39.53 L63.39,40.55 L64.12,41.44 L65.01,42.17 L66.03,42.72 L67.15,43.07 L68.36,43.19 L69.57,43.07 L70.69,42.72 L71.71,42.17 L72.60,41.44 L73.33,40.55 L73.88,39.53 L74.23,38.40 L74.36,37.20 L74.23,35.99 L73.88,34.86 L73.33,33.84 L72.60,32.96 L71.71,32.22 L70.69,31.67 L69.57,31.32 L68.36,31.20 Z" fill="#ffffff" stroke="#ffffff" stroke-width="1" stroke-linejoin="round"/></svg>