<svg xmlns="http://www.w3.org/2000/svg" viewBox="40.70 19.34 174.66 217.34"><path d="M189.37,149.33 L191.82,149.46 L194.20,149.82 L196.50,150.41 L198.71,151.22 L200.81,152.23 L202.78,153.43 L204.63,154.81 L206.34,156.36 L207.89,158.07 L209.27,159.91 L210.47,161.89 L211.48,163.99 L212.29,166.20 L212.88,168.50 L213.24,170.88 L213.37,173.33 L213.37,182.99 L213.13,187.33 L212.43,191.58 L211.29,195.71 L209.71,199.69 L207.72,203.47 L205.33,207.03 L202.56,210.33 L199.42,213.34 L196.21,215.94 L192.82,218.37 L189.27,220.63 L185.55,222.72 L181.67,224.64 L177.61,226.39 L173.39,227.97 L169.01,229.38 L164.46,230.63 L159.74,231.71 L154.86,232.62 L149.82,233.36 L144.61,233.94 L139.23,234.35 L133.70,234.60 L128.00,234.68 L122.30,234.60 L116.77,234.35 L111.40,233.94 L106.19,233.36 L101.15,232.62 L96.27,231.71 L91.56,230.63 L87.01,229.38 L82.63,227.97 L78.41,226.39 L74.36,224.64 L70.48,222.72 L66.76,220.63 L63.22,218.37 L59.84,215.94 L56.63,213.34 L53.49,210.33 L50.72,207.04 L48.34,203.48 L46.35,199.70 L44.78,195.73 L43.64,191.60 L42.94,187.35 L42.70,183.01 L42.70,173.33 L42.83,170.88 L43.19,168.50 L43.78,166.20 L44.59,163.99 L45.60,161.89 L46.80,159.91 L48.18,158.07 L49.73,156.36 L51.44,154.81 L53.29,153.43 L55.26,152.23 L57.36,151.22 L59.57,150.41 L61.87,149.82 L64.25,149.46 L66.70,149.33 L189.37,149.33 Z" fill="#5b5fc7" stroke="#1e1e1e" stroke-width="1" stroke-linejoin="round"/><path d="M126.92,21.41 L128.00,21.34 L129.49,21.48 L130.88,21.87 L132.15,22.50 L133.29,23.33 L134.26,24.35 L135.04,25.53 L135.60,26.83 L135.93,28.25 L136.00,29.34 L136.00,37.33 L173.33,37.33 L175.79,37.46 L178.17,37.82 L180.47,38.41 L182.68,39.22 L184.77,40.23 L186.75,41.43 L188.60,42.81 L190.30,44.36 L191.85,46.07 L193.23,47.91 L194.44,49.89 L195.45,51.99 L196.25,54.20 L196.85,56.50 L197.21,58.88 L197.33,61.33 L197.33,109.38 L197.21,111.84 L196.85,114.22 L196.25,116.52 L195.45,118.72 L194.44,120.82 L193.23,122.80 L191.85,124.65 L190.30,126.35 L188.60,127.90 L186.75,129.28 L184.77,130.49 L182.68,131.50 L180.47,132.30 L178.17,132.89 L175.79,133.26 L173.33,133.38 L82.67,133.38 L80.21,133.26 L77.83,132.89 L75.53,132.30 L73.32,131.50 L71.23,130.49 L69.25,129.28 L67.40,127.90 L65.70,126.35 L64.15,124.65 L62.77,122.80 L61.56,120.82 L60.55,118.72 L59.75,116.52 L59.15,114.22 L58.79,111.84 L58.67,109.38 L58.67,61.33 L58.79,58.88 L59.15,56.50 L59.75,54.20 L60.55,51.99 L61.56,49.89 L62.77,47.91 L64.15,46.07 L65.70,44.36 L67.40,42.81 L69.25,41.43 L71.23,40.23 L73.32,39.22 L75.53,38.41 L77.83,37.82 L80.21,37.46 L82.67,37.33 L120.00,37.33 L120.00,29.34 L120.14,27.86 L120.53,26.47 L121.16,25.19 L122.00,24.05 L123.01,23.08 L124.19,22.30 L125.50,21.74 L126.92,21.41 L128.00,21.34 L126.92,21.41 Z" fill="#5b5fc7" stroke="#1e1e1e" stroke-width="1" stroke-linejoin="round"/><path d="M103.99,69.33 L101.31,69.60 L98.81,70.38 L96.54,71.61 L94.57,73.24 L92.94,75.21 L91.71,77.47 L90.94,79.97 L90.67,82.66 L90.94,85.34 L91.71,87.85 L92.94,90.11 L94.57,92.08 L96.54,93.71 L98.81,94.94 L101.31,95.71 L103.99,95.98 L106.68,95.71 L109.18,94.94 L111.44,93.71 L113.42,92.08 L115.04,90.11 L116.27,87.85 L117.05,85.34 L117.32,82.66 L117.05,79.97 L116.27,77.47 L115.04,75.21 L113.42,73.24 L111.44,71.61 L109.18,70.38 L106.68,69.60 L103.99,69.33 Z" fill="#ffffff" stroke="#1e1e1e" stroke-width="1" stroke-linejoin="round"/><path d="M151.91,69.33 L149.23,69.60 L146.73,70.38 L144.46,71.61 L142.49,73.24 L140.87,75.21 L139.64,77.47 L138.86,79.97 L138.59,82.66 L138.86,85.34 L139.64,87.85 L140.87,90.11 L142.49,92.08 L144.46,93.71 L146.73,94.94 L149.23,95.71 L151.91,95.98 L154.60,95.71 L157.10,94.94 L159.37,93.71 L161.34,92.08 L162.96,90.11 L164.19,87.85 L164.97,85.34 L165.24,82.66 L164.97,79.97 L164.19,77.47 L162.96,75.21 L161.34,73.24 L159.37,71.61 L157.10,70.38 L154.60,69.60 L151.91,69.33 Z" fill="#ffffff" stroke="#1e1e1e" stroke-width="1" stroke-linejoin="round"/></svg>