<svg xmlns="http://www.w3.org/2000/svg" viewBox="30.00 19.33 196.00 212.00"><path d="M149.33,45.33 L149.33,53.33 L200.00,53.33 L202.45,53.46 L204.84,53.82 L207.14,54.41 L209.34,55.22 L211.44,56.23 L213.42,57.43 L215.27,58.81 L216.97,60.36 L218.52,62.07 L219.90,63.91 L221.10,65.89 L222.11,67.99 L222.92,70.20 L223.51,72.50 L223.88,74.88 L224.00,77.33 L224.00,221.33 L223.84,222.95 L223.37,224.45 L222.63,225.81 L221.66,226.99 L220.47,227.97 L219.11,228.70 L217.61,229.17 L216.00,229.33 L184.00,229.33 L184.00,200.00 L183.89,198.93 L183.58,197.92 L183.09,197.02 L182.44,196.23 L181.65,195.58 L180.74,195.09 L179.74,194.78 L178.67,194.67 L152.00,194.67 L150.93,194.78 L149.92,195.09 L149.02,195.58 L148.23,196.23 L147.58,197.02 L147.09,197.92 L146.78,198.93 L146.67,200.00 L146.67,229.33 L40.00,229.33 L38.39,229.17 L36.89,228.70 L35.53,227.97 L34.34,226.99 L33.37,225.81 L32.63,224.45 L32.16,222.95 L32.00,221.33 L32.00,45.33 L32.12,42.88 L32.49,40.50 L33.08,38.20 L33.89,35.99 L34.90,33.89 L36.10,31.91 L37.48,30.07 L39.03,28.36 L40.73,26.81 L42.58,25.43 L44.56,24.23 L46.66,23.22 L48.86,22.41 L51.16,21.82 L53.55,21.46 L56.00,21.33 L125.33,21.33 L127.79,21.46 L130.17,21.82 L132.47,22.41 L134.68,23.22 L136.77,24.23 L138.75,25.43 L140.60,26.81 L142.30,28.36 L143.85,30.07 L145.23,31.91 L146.44,33.89 L147.45,35.99 L148.25,38.20 L148.85,40.50 L149.21,42.88 L149.33,45.33 Z" fill="#0078d4" stroke="#1e1e1e" stroke-width="1" stroke-linejoin="round"/><path d="M48.00,45.33 L48.16,43.72 L48.63,42.22 L49.37,40.86 L50.34,39.68 L51.53,38.70 L52.89,37.96 L54.39,37.50 L56.00,37.33 L125.33,37.33 L126.95,37.50 L128.45,37.96 L129.81,38.70 L130.99,39.68 L131.97,40.86 L132.70,42.22 L133.17,43.72 L133.33,45.33 L133.33,53.33 L130.67,53.33 L128.21,53.46 L125.83,53.82 L123.53,54.41 L121.32,55.22 L119.23,56.23 L117.25,57.43 L115.40,58.81 L113.70,60.36 L112.15,62.07 L110.77,63.91 L109.56,65.89 L108.55,67.99 L107.75,70.20 L107.15,72.50 L106.79,74.88 L106.67,77.33 L106.67,213.33 L48.00,213.33 L48.00,45.33 Z" fill="#ffffff" stroke="#1e1e1e" stroke-width="1" stroke-linejoin="round"/><path d="M181.33,149.33 L183.48,149.55 L185.49,150.17 L187.30,151.15 L188.88,152.46 L190.18,154.04 L191.16,155.85 L191.78,157.85 L192.00,160.00 L191.78,162.15 L191.16,164.15 L190.18,165.96 L188.88,167.54 L187.30,168.85 L185.49,169.83 L183.48,170.45 L181.33,170.67 L179.18,170.45 L177.18,169.83 L175.37,168.85 L173.79,167.54 L172.49,165.96 L171.50,164.15 L170.88,162.15 L170.67,160.00 L170.88,157.85 L171.50,155.85 L172.49,154.04 L173.79,152.46 L175.37,151.15 L177.18,150.17 L179.18,149.55 L181.33,149.33 Z" fill="#ffffff" stroke="#1e1e1e" stroke-width="1" stroke-linejoin="round"/><path d="M160.00,160.00 L159.78,162.15 L159.16,164.15 L158.18,165.96 L156.88,167.54 L155.30,168.85 L153.49,169.83 L151.48,170.45 L149.33,170.67 L147.18,170.45 L145.18,169.83 L143.37,168.85 L141.79,167.54 L140.49,165.96 L139.50,164.15 L138.88,162.15 L138.67,160.00 L138.88,157.85 L139.50,155.85 L140.49,154.04 L141.79,152.46 L143.37,151.15 L145.18,150.17 L147.18,149.55 L149.33,149.33 L151.48,149.55 L153.49,150.17 L155.30,151.15 L156.88,152.46 L158.18,154.04 L159.16,155.85 L159.78,157.85 L160.00,160.00 Z" fill="#ffffff" stroke="#1e1e1e" stroke-width="1" stroke-linejoin="round"/><path d="M181.33,117.33 L183.48,117.55 L185.49,118.17 L187.30,119.15 L188.88,120.46 L190.18,122.04 L191.16,123.85 L191.78,125.85 L192.00,128.00 L191.78,130.15 L191.16,132.15 L190.18,133.96 L188.88,135.54 L187.30,136.85 L185.49,137.83 L183.48,138.45 L181.33,138.67 L179.18,138.45 L177.18,137.83 L175.37,136.85 L173.79,135.54 L172.49,133.96 L171.50,132.15 L170.88,130.15 L170.67,128.00 L170.88,125.85 L171.50,123.85 L172.49,122.04 L173.79,120.46 L175.37,119.15 L177.18,118.17 L179.18,117.55 L181.33,117.33 Z" fill="#ffffff" stroke="#1e1e1e" stroke-width="1" stroke-linejoin="round"/><path d="M160.00,128.00 L159.78,130.15 L159.16,132.15 L158.18,133.96 L156.88,135.54 L155.30,136.85 L153.49,137.83 L151.48,138.45 L149.33,138.67 L147.18,138.45 L145.18,137.83 L143.37,136.85 L141.79,135.54 L140.49,133.96 L139.50,132.15 L138.88,130.15 L138.67,128.00 L138.88,125.85 L139.50,123.85 L140.49,122.04 L141.79,120.46 L143.37,119.15 L145.18,118.17 L147.18,117.55 L149.33,117.33 L151.48,117.55 L153.49,118.17 L155.30,119.15 L156.88,120.46 L158.18,122.04 L159.16,123.85 L159.78,125.85 L160.00,128.00 Z" fill="#ffffff" stroke="#1e1e1e" stroke-width="1" stroke-linejoin="round"/><path d="M181.33,85.33 L183.48,85.55 L185.49,86.17 L187.30,87.15 L188.88,88.46 L190.18,90.04 L191.16,91.85 L191.78,93.85 L192.00,96.00 L191.78,98.15 L191.16,100.15 L190.18,101.96 L188.88,103.54 L187.30,104.85 L185.49,105.83 L183.48,106.45 L181.33,106.67 L179.18,106.45 L177.18,105.83 L175.37,104.85 L173.79,103.54 L172.49,101.96 L171.50,100.15 L170.88,98.15 L170.67,96.00 L170.88,93.85 L171.50,91.85 L172.49,90.04 L173.79,88.46 L175.37,87.15 L177.18,86.17 L179.18,85.55 L181.33,85.33 Z" fill="#ffffff" stroke="#1e1e1e" stroke-width="1" stroke-linejoin="round"/><path d="M160.00,96.00 L159.78,98.15 L159.16,100.15 L158.18,101.96 L156.88,103.54 L155.30,104.85 L153.49,105.83 L151.48,106.45 L149.33,106.67 L147.18,106.45 L145.18,105.83 L143.37,104.85 L141.79,103.54 L140.49,101.96 L139.50,100.15 L138.88,98.15 L138.67,96.00 L138.88,93.85 L139.50,91.85 L140.49,90.04 L141.79,88.46 L143.37,87.15 L145.18,86.17 L147.18,85.55 L149.33,85.33 L151.48,85.55 L153.49,86.17 L155.30,87.15 L156.88,88.46 L158.18,90.04 L159.16,91.85 L159.78,93.85 L160.00,96.00 Z" fill="#ffffff" stroke="#1e1e1e" stroke-width="1" stroke-linejoin="round"/><path d="M74.67,74.67 L76.82,74.45 L78.82,73.83 L80.63,72.85 L82.21,71.54 L83.51,69.96 L84.50,68.15 L85.12,66.15 L85.33,64.00 L85.12,61.85 L84.50,59.85 L83.51,58.04 L82.21,56.46 L80.63,55.15 L78.82,54.17 L76.82,53.55 L74.67,53.33 L72.52,53.55 L70.51,54.17 L68.70,55.15 L67.12,56.46 L65.82,58.04 L64.84,59.85 L64.22,61.85 L64.00,64.00 L64.22,66.15 L64.84,68.15 L65.82,69.96 L67.12,71.54 L68.70,72.85 L70.51,73.83 L72.52,74.45 L74.67,74.67 Z" fill="#8dc8e8" stroke="#1e1e1e" stroke-width="1" stroke-linejoin="round"/><path d="M85.33,96.00 L85.12,98.15 L84.50,100.15 L83.51,101.96 L82.21,103.54 L80.63,104.85 L78.82,105.83 L76.82,106.45 L74.67,106.67 L72.52,106.45 L70.51,105.83 L68.70,104.85 L67.12,103.54 L65.82,101.96 L64.84,100.15 L64.22,98.15 L64.00,96.00 L64.22,93.85 L64.84,91.85 L65.82,90.04 L67.12,88.46 L68.70,87.15 L70.51,86.17 L72.52,85.55 L74.67,85.33 L76.82,85.55 L78.82,86.17 L80.63,87.15 L82.21,88.46 L83.51,90.04 L84.50,91.85 L85.12,93.85 L85.33,96.00 Z" fill="#8dc8e8" stroke="#1e1e1e" stroke-width="1" stroke-linejoin="round"/><path d="M74.67,138.67 L76.82,138.45 L78.82,137.83 L80.63,136.85 L82.21,135.54 L83.51,133.96 L84.50,132.15 L85.12,130.15 L85.33,128.00 L85.12,125.85 L84.50,123.85 L83.51,122.04 L82.21,120.46 L80.63,119.15 L78.82,118.17 L76.82,117.55 L74.67,117.33 L72.52,117.55 L70.51,118.17 L68.70,119.15 L67.12,120.46 L65.82,122.04 L64.84,123.85 L64.22,125.85 L64.00,128.00 L64.22,130.15 L64.84,132.15 L65.82,133.96 L67.12,135.54 L68.70,136.85 L70.51,137.83 L72.52,138.45 L74.67,138.67 Z" fill="#8dc8e8" stroke="#1e1e1e" stroke-width="1" stroke-linejoin="round"/><path d="M74.67,170.67 L76.82,170.45 L78.82,169.83 L80.63,168.85 L82.21,167.54 L83.51,165.96 L84.50,164.15 L85.12,162.15 L85.33,160.00 L85.12,157.85 L84.50,155.85 L83.51,154.04 L82.21,152.46 L80.63,151.15 L78.82,150.17 L76.82,149.55 L74.67,149.33 L72.52,149.55 L70.51,150.17 L68.70,151.15 L67.12,152.46 L65.82,154.04 L64.84,155.85 L64.22,157.85 L64.00,160.00 L64.22,162.15 L64.84,164.15 L65.82,165.96 L67.12,167.54 L68.70,168.85 L70.51,169.83 L72.52,170.45 L74.67,170.67 Z" fill="#8dc8e8" stroke="#1e1e1e" stroke-width="1" stroke-linejoin="round"/><path d="M85.33,192.00 L85.12,194.15 L84.50,196.15 L83.51,197.96 L82.21,199.54 L80.63,200.85 L78.82,201.83 L76.82,202.45 L74.67,202.67 L72.52,202.45 L70.51,201.83 L68.70,200.85 L67.12,199.54 L65.82,197.96 L64.84,196.15 L64.22,194.15 L64.00,192.00 L64.22,189.85 L64.84,187.85 L65.82,186.04 L67.12,184.46 L68.70,183.15 L70.51,182.17 L72.52,181.55 L74.67,181.33 L76.82,181.55 L78.82,182.17 L80.63,183.15 L82.21,184.46 L83.51,186.04 L84.50,187.85 L85.12,189.85 L85.33,192.00 Z" fill="#8dc8e8" stroke="#1e1e1e" stroke-width="1" stroke-linejoin="round"/></svg>