<svg xmlns="http://www.w3.org/2000/svg" viewBox="19.33 19.33 217.33 217.33"><path d="M150.67,115.70 L146.12,115.89 L141.68,116.47 L137.36,117.41 L133.19,118.70 L129.17,120.32 L125.33,122.26 L121.67,124.50 L118.23,127.02 L115.00,129.81 L112.02,132.85 L109.29,136.12 L106.83,139.62 L104.65,143.31 L102.78,147.20 L101.23,151.25 L100.02,155.46 L96.52,156.19 L93.15,157.23 L89.91,158.55 L86.82,160.13 L83.90,161.97 L81.15,164.05 L78.60,166.35 L76.25,168.87 L74.12,171.58 L72.23,174.47 L70.59,177.53 L69.22,180.73 L68.12,184.08 L67.32,187.55 L66.83,191.13 L66.67,194.80 L66.87,198.87 L67.48,202.83 L68.46,206.65 L69.80,210.32 L71.48,213.80 L73.48,217.09 L75.77,220.16 L78.34,222.99 L81.18,225.56 L84.25,227.86 L87.53,229.85 L91.02,231.53 L94.68,232.87 L98.50,233.86 L102.46,234.46 L106.54,234.67 L194.80,234.67 L198.87,234.46 L202.83,233.86 L206.65,232.87 L210.32,231.53 L213.80,229.85 L217.09,227.86 L220.16,225.56 L222.99,222.99 L225.56,220.16 L227.86,217.09 L229.85,213.80 L231.53,210.32 L232.87,206.65 L233.86,202.83 L234.46,198.87 L234.67,194.80 L234.50,191.13 L234.01,187.55 L233.21,184.08 L232.12,180.73 L230.74,177.53 L229.10,174.47 L227.21,171.58 L225.09,168.87 L222.74,166.35 L220.18,164.05 L217.43,161.97 L214.51,160.13 L211.42,158.55 L208.18,157.23 L204.81,156.19 L201.32,155.46 L200.10,151.25 L198.55,147.20 L196.68,143.31 L194.51,139.62 L192.05,136.12 L189.32,132.85 L186.33,129.81 L183.11,127.02 L179.66,124.50 L176.01,122.26 L172.16,120.32 L168.15,118.70 L163.97,117.41 L159.66,116.47 L155.22,115.89 L150.67,115.70 Z" fill="#8dc8e8" stroke="#1e1e1e" stroke-width="1" stroke-linejoin="round"/><path d="M150.67,131.70 L147.22,131.86 L143.87,132.34 L140.62,133.11 L137.49,134.18 L134.50,135.51 L131.66,137.10 L128.99,138.93 L126.49,140.98 L124.19,143.25 L122.09,145.71 L120.23,148.36 L118.60,151.17 L117.22,154.14 L116.11,157.24 L115.29,160.47 L114.76,163.80 L113.97,170.96 L106.54,170.92 L106.52,170.92 L104.08,171.05 L101.71,171.41 L99.43,172.00 L97.24,172.80 L95.15,173.81 L93.18,175.01 L91.35,176.38 L89.65,177.92 L88.11,179.62 L86.74,181.45 L85.55,183.42 L84.54,185.51 L83.74,187.70 L83.15,189.99 L82.79,192.36 L82.67,194.80 L82.79,197.24 L83.15,199.61 L83.74,201.89 L84.54,204.09 L85.55,206.17 L86.74,208.14 L88.12,209.98 L89.66,211.68 L91.35,213.22 L93.19,214.59 L95.16,215.79 L97.25,216.79 L99.44,217.59 L101.73,218.18 L104.10,218.54 L106.54,218.67 L194.80,218.67 L197.24,218.54 L199.61,218.18 L201.89,217.59 L204.09,216.79 L206.17,215.79 L208.14,214.59 L209.98,213.22 L211.67,211.68 L213.22,209.98 L214.59,208.14 L215.79,206.17 L216.79,204.09 L217.59,201.89 L218.18,199.61 L218.54,197.24 L218.67,194.80 L218.54,192.36 L218.18,189.99 L217.59,187.70 L216.79,185.51 L215.79,183.42 L214.59,181.45 L213.22,179.62 L211.68,177.92 L209.99,176.38 L208.15,175.01 L206.18,173.81 L204.10,172.81 L201.91,172.00 L199.62,171.41 L197.25,171.05 L194.81,170.92 L194.80,170.92 L187.37,170.96 L186.57,163.80 L186.05,160.47 L185.22,157.24 L184.11,154.14 L182.74,151.17 L181.11,148.36 L179.24,145.71 L177.15,143.25 L174.84,140.98 L172.35,138.93 L169.67,137.10 L166.83,135.51 L163.84,134.18 L160.71,133.11 L157.47,132.34 L154.11,131.86 L150.67,131.70 Z" fill="#ffffff" stroke="#1e1e1e" stroke-width="1" stroke-linejoin="round"/><path d="M40.00,192.00 L56.08,192.00 L56.45,188.02 L57.13,184.13 L58.09,180.35 L59.34,176.69 L60.85,173.16 L62.62,169.78 L64.62,166.55 L66.86,163.49 L69.31,160.61 L71.98,157.93 L74.83,155.44 L77.87,153.18 L81.07,151.14 L84.44,149.34 L87.94,147.79 L91.59,146.51 L93.36,142.13 L95.44,137.92 L97.82,133.90 L100.49,130.07 L103.42,126.46 L106.61,123.08 L110.04,119.94 L113.69,117.06 L117.56,114.46 L121.62,112.14 L125.87,110.12 L130.28,108.41 L134.85,107.04 L139.56,106.01 L144.39,105.34 L149.33,105.05 L149.33,93.33 L149.24,91.42 L148.95,89.57 L148.49,87.78 L147.87,86.07 L147.08,84.44 L146.15,82.90 L145.07,81.46 L143.87,80.13 L142.54,78.93 L141.10,77.85 L139.56,76.92 L137.93,76.13 L136.22,75.51 L134.43,75.05 L132.58,74.76 L130.67,74.67 L120.00,74.67 L118.96,74.46 L118.11,73.89 L117.54,73.04 L117.33,72.00 L117.33,40.00 L117.24,38.09 L116.95,36.24 L116.49,34.45 L115.87,32.73 L115.08,31.10 L114.15,29.56 L113.07,28.13 L111.87,26.80 L110.54,25.60 L109.10,24.52 L107.56,23.59 L105.93,22.80 L104.22,22.17 L102.43,21.71 L100.58,21.43 L98.67,21.33 L40.00,21.33 L38.09,21.43 L36.24,21.71 L34.45,22.17 L32.73,22.80 L31.10,23.59 L29.56,24.52 L28.13,25.60 L26.80,26.80 L25.60,28.13 L24.52,29.56 L23.59,31.10 L22.80,32.73 L22.17,34.45 L21.71,36.24 L21.43,38.09 L21.33,40.00 L21.33,173.33 L21.43,175.24 L21.71,177.10 L22.17,178.88 L22.80,180.60 L23.59,182.23 L24.52,183.77 L25.60,185.21 L26.80,186.53 L28.13,187.74 L29.56,188.81 L31.10,189.75 L32.73,190.53 L34.45,191.16 L36.24,191.62 L38.09,191.90 L40.00,192.00 Z" fill="#0078d4" stroke="#0078d4" stroke-width="1" stroke-linejoin="round"/><path d="M56.00,101.33 L57.61,101.17 L59.11,100.70 L60.47,99.97 L61.66,98.99 L62.63,97.81 L63.37,96.45 L63.84,94.95 L64.00,93.33 L63.84,91.72 L63.37,90.22 L62.63,88.86 L61.66,87.68 L60.47,86.70 L59.11,85.96 L57.61,85.50 L56.00,85.33 L54.39,85.50 L52.89,85.96 L51.53,86.70 L50.34,87.68 L49.37,88.86 L48.63,90.22 L48.16,91.72 L48.00,93.33 L48.16,94.95 L48.63,96.45 L49.37,97.81 L50.34,98.99 L51.53,99.97 L52.89,100.70 L54.39,101.17 L56.00,101.33 Z" fill="#ffffff" stroke="#ffffff" stroke-width="1" stroke-linejoin="round"/><path d="M82.67,69.33 L84.28,69.17 L85.78,68.70 L87.14,67.97 L88.32,66.99 L89.30,65.81 L90.04,64.45 L90.50,62.95 L90.67,61.33 L90.50,59.72 L90.04,58.22 L89.30,56.86 L88.32,55.68 L87.14,54.70 L85.78,53.96 L84.28,53.50 L82.67,53.33 L81.05,53.50 L79.55,53.96 L78.19,54.70 L77.01,55.68 L76.03,56.86 L75.30,58.22 L74.83,59.72 L74.67,61.33 L74.83,62.95 L75.30,64.45 L76.03,65.81 L77.01,66.99 L78.19,67.97 L79.55,68.70 L81.05,69.17 L82.67,69.33 Z" fill="#ffffff" stroke="#ffffff" stroke-width="1" stroke-linejoin="round"/><path d="M74.67,93.33 L74.83,94.95 L75.30,96.45 L76.03,97.81 L77.01,98.99 L78.19,99.97 L79.55,100.70 L81.05,101.17 L82.67,101.33 L84.28,101.17 L85.78,100.70 L87.14,99.97 L88.32,98.99 L89.30,97.81 L90.04,96.45 L90.50,94.95 L90.67,93.33 L90.50,91.72 L90.04,90.22 L89.30,88.86 L88.32,87.68 L87.14,86.70 L85.78,85.96 L84.28,85.50 L82.67,85.33 L81.05,85.50 L79.55,85.96 L78.19,86.70 L77.01,87.68 L76.03,88.86 L75.30,90.22 L74.83,91.72 L74.67,93.33 Z" fill="#ffffff" stroke="#ffffff" stroke-width="1" stroke-linejoin="round"/><path d="M82.67,133.33 L84.28,133.17 L85.78,132.70 L87.14,131.97 L88.32,130.99 L89.30,129.81 L90.04,128.45 L90.50,126.95 L90.67,125.33 L90.50,123.72 L90.04,122.22 L89.30,120.86 L88.32,119.68 L87.14,118.70 L85.78,117.96 L84.28,117.50 L82.67,117.33 L81.05,117.50 L79.55,117.96 L78.19,118.70 L77.01,119.68 L76.03,120.86 L75.30,122.22 L74.83,123.72 L74.67,125.33 L74.83,126.95 L75.30,128.45 L76.03,129.81 L77.01,130.99 L78.19,131.97 L79.55,132.70 L81.05,133.17 L82.67,133.33 Z" fill="#ffffff" stroke="#ffffff" stroke-width="1" stroke-linejoin="round"/><path d="M56.00,133.33 L57.61,133.17 L59.11,132.70 L60.47,131.97 L61.66,130.99 L62.63,129.81 L63.37,128.45 L63.84,126.95 L64.00,125.33 L63.84,123.72 L63.37,122.22 L62.63,120.86 L61.66,119.68 L60.47,118.70 L59.11,117.96 L57.61,117.50 L56.00,117.33 L54.39,117.50 L52.89,117.96 L51.53,118.70 L50.34,119.68 L49.37,120.86 L48.63,122.22 L48.16,123.72 L48.00,125.33 L48.16,126.95 L48.63,128.45 L49.37,129.81 L50.34,130.99 L51.53,131.97 L52.89,132.70 L54.39,133.17 L56.00,133.33 Z" fill="#ffffff" stroke="#ffffff" stroke-width="1" stroke-linejoin="round"/><path d="M48.00,61.33 L48.16,62.95 L48.63,64.45 L49.37,65.81 L50.34,66.99 L51.53,67.97 L52.89,68.70 L54.39,69.17 L56.00,69.33 L57.61,69.17 L59.11,68.70 L60.47,67.97 L61.66,66.99 L62.63,65.81 L63.37,64.45 L63.84,62.95 L64.00,61.33 L63.84,59.72 L63.37,58.22 L62.63,56.86 L61.66,55.68 L60.47,54.70 L59.11,53.96 L57.61,53.50 L56.00,53.33 L54.39,53.50 L52.89,53.96 L51.53,54.70 L50.34,55.68 L49.37,56.86 L48.63,58.22 L48.16,59.72 L48.00,61.33 Z" fill="#ffffff" stroke="#ffffff" stroke-width="1" stroke-linejoin="round"/></svg>