<svg xmlns="http://www.w3.org/2000/svg" viewBox="40.67 19.33 206.71 228.00"><path d="M208.00,212.00 L207.86,215.11 L207.45,218.20 L206.76,221.24 L205.77,224.21 L204.48,227.09 L202.88,229.84 L200.96,232.45 L198.71,234.89 L196.13,237.14 L193.21,239.16 L189.94,240.95 L186.30,242.46 L182.30,243.68 L177.92,244.58 L173.16,245.14 L168.00,245.33 L162.84,245.14 L158.08,244.58 L153.70,243.69 L149.70,242.47 L146.06,240.96 L142.79,239.18 L139.87,237.16 L137.29,234.92 L135.04,232.48 L133.12,229.87 L131.52,227.12 L130.23,224.24 L129.24,221.26 L128.55,218.22 L128.14,215.12 L128.00,212.00 L128.09,209.96 L128.35,207.97 L128.77,206.05 L129.35,204.22 L130.07,202.47 L130.93,200.82 L131.91,199.28 L133.02,197.86 L134.24,196.57 L135.56,195.42 L136.97,194.41 L138.47,193.57 L140.05,192.90 L141.69,192.41 L143.39,192.10 L145.14,192.00 L190.86,192.00 L192.61,192.10 L194.31,192.41 L195.95,192.90 L197.53,193.57 L199.03,194.41 L200.44,195.42 L201.76,196.57 L202.98,197.86 L204.09,199.28 L205.07,200.82 L205.93,202.47 L206.65,204.22 L207.23,206.05 L207.65,207.97 L207.91,209.96 L208.00,212.00 Z" fill="#8dc8e8" stroke="#1e1e1e" stroke-width="1" stroke-linejoin="round"/><path d="M192.00,157.33 L191.88,159.79 L191.51,162.17 L190.92,164.47 L190.11,166.68 L189.10,168.77 L187.90,170.75 L186.52,172.60 L184.97,174.30 L183.27,175.85 L181.42,177.23 L179.44,178.44 L177.34,179.45 L175.14,180.25 L172.84,180.85 L170.45,181.21 L168.00,181.33 L165.55,181.21 L163.16,180.85 L160.86,180.25 L158.66,179.45 L156.56,178.44 L154.58,177.23 L152.73,175.85 L151.03,174.30 L149.48,172.60 L148.10,170.75 L146.90,168.77 L145.89,166.68 L145.08,164.47 L144.49,162.17 L144.12,159.79 L144.00,157.33 L144.12,154.88 L144.49,152.50 L145.08,150.20 L145.89,147.99 L146.90,145.89 L148.10,143.91 L149.48,142.07 L151.03,140.36 L152.73,138.81 L154.58,137.43 L156.56,136.23 L158.66,135.22 L160.86,134.41 L163.16,133.82 L165.55,133.46 L168.00,133.33 L170.45,133.46 L172.84,133.82 L175.14,134.41 L177.34,135.22 L179.44,136.23 L181.42,137.43 L183.27,138.81 L184.97,140.36 L186.52,142.07 L187.90,143.91 L189.10,145.89 L190.11,147.99 L190.92,150.20 L191.51,152.50 L191.88,154.88 L192.00,157.33 Z" fill="#8dc8e8" stroke="#1e1e1e" stroke-width="1" stroke-linejoin="round"/><path d="M221.33,186.67 L223.24,186.57 L225.10,186.29 L226.88,185.83 L228.60,185.20 L230.23,184.41 L231.77,183.48 L233.21,182.40 L234.53,181.20 L235.74,179.87 L236.81,178.44 L237.75,176.90 L238.53,175.27 L239.16,173.55 L239.62,171.76 L239.90,169.91 L240.00,168.00 L239.90,166.09 L239.62,164.24 L239.16,162.45 L238.53,160.73 L237.75,159.10 L236.81,157.56 L235.74,156.13 L234.53,154.80 L233.21,153.60 L231.77,152.52 L230.23,151.59 L228.60,150.80 L226.88,150.17 L225.10,149.71 L223.24,149.43 L221.33,149.33 L219.42,149.43 L217.57,149.71 L215.78,150.17 L214.07,150.80 L212.44,151.59 L210.90,152.52 L209.46,153.60 L208.13,154.80 L206.93,156.13 L205.85,157.56 L204.92,159.10 L204.13,160.73 L203.51,162.45 L203.05,164.24 L202.76,166.09 L202.67,168.00 L202.76,169.91 L203.05,171.76 L203.51,173.55 L204.13,175.27 L204.92,176.90 L205.85,178.44 L206.93,179.87 L208.13,181.20 L209.46,182.40 L210.90,183.48 L212.44,184.41 L214.07,185.20 L215.78,185.83 L217.57,186.29 L219.42,186.57 L221.33,186.67 Z" fill="#8dc8e8" stroke="#1e1e1e" stroke-width="1" stroke-linejoin="round"/><path d="M218.65,212.00 L218.56,214.89 L218.28,217.79 L217.82,220.69 L217.16,223.57 L216.30,226.42 L215.23,229.23 L213.94,231.98 L212.44,234.66 L213.38,234.67 L217.50,234.53 L221.32,234.14 L224.82,233.51 L228.02,232.66 L230.93,231.60 L233.55,230.35 L235.89,228.93 L237.95,227.36 L239.75,225.65 L241.28,223.82 L242.56,221.89 L243.59,219.88 L244.38,217.80 L244.94,215.67 L245.27,213.51 L245.38,211.33 L245.10,208.51 L244.30,205.88 L243.04,203.51 L241.36,201.43 L239.33,199.72 L237.00,198.43 L234.43,197.62 L231.66,197.33 L215.23,197.33 L216.70,200.82 L217.77,204.46 L218.43,208.20 L218.65,212.00 Z" fill="#8dc8e8" stroke="#1e1e1e" stroke-width="1" stroke-linejoin="round"/><path d="M42.67,45.33 L42.79,42.88 L43.15,40.50 L43.75,38.20 L44.55,35.99 L45.56,33.89 L46.77,31.91 L48.15,30.07 L49.70,28.36 L51.40,26.81 L53.25,25.43 L55.23,24.23 L57.32,23.22 L59.53,22.41 L61.83,21.82 L64.21,21.46 L66.67,21.33 L152.00,21.33 L154.45,21.46 L156.84,21.82 L159.14,22.41 L161.34,23.22 L163.44,24.23 L165.42,25.43 L167.27,26.81 L168.97,28.36 L170.52,30.07 L171.90,31.91 L173.10,33.89 L174.11,35.99 L174.92,38.20 L175.51,40.50 L175.88,42.88 L176.00,45.33 L176.00,101.33 L189.36,101.33 L191.82,101.45 L194.20,101.81 L196.50,102.40 L198.71,103.21 L200.80,104.22 L202.78,105.42 L204.63,106.81 L206.33,108.36 L207.88,110.06 L209.26,111.91 L210.47,113.89 L211.48,115.98 L212.28,118.19 L212.88,120.49 L213.24,122.87 L213.36,125.33 L213.36,139.76 L209.94,140.96 L206.73,142.56 L203.75,144.52 L201.04,146.82 L199.45,142.72 L197.36,138.90 L197.36,125.33 L197.20,123.71 L196.73,122.21 L196.00,120.85 L195.02,119.67 L193.84,118.69 L192.48,117.95 L190.98,117.49 L189.36,117.33 L168.00,117.33 L166.39,117.16 L164.89,116.70 L163.53,115.96 L162.34,114.98 L161.37,113.80 L160.63,112.44 L160.16,110.94 L160.00,109.33 L160.00,45.33 L159.84,43.72 L159.37,42.22 L158.63,40.86 L157.66,39.68 L156.47,38.70 L155.11,37.96 L153.61,37.50 L152.00,37.33 L66.67,37.33 L65.05,37.50 L63.55,37.96 L62.19,38.70 L61.01,39.68 L60.03,40.86 L59.30,42.22 L58.83,43.72 L58.67,45.33 L58.67,213.33 L117.35,213.33 L117.65,217.37 L118.31,221.41 L119.35,225.41 L120.79,229.33 L50.67,229.33 L49.05,229.17 L47.55,228.70 L46.19,227.97 L45.01,226.99 L44.03,225.81 L43.30,224.45 L42.83,222.95 L42.67,221.33 L42.67,45.33 Z" fill="#0078d4" stroke="#1e1e1e" stroke-width="1" stroke-linejoin="round"/><path d="M117.33,106.67 L117.55,104.52 L118.17,102.51 L119.15,100.70 L120.46,99.12 L122.04,97.82 L123.85,96.84 L125.85,96.22 L128.00,96.00 L130.15,96.22 L132.15,96.84 L133.96,97.82 L135.54,99.12 L136.85,100.70 L137.83,102.51 L138.45,104.52 L138.67,106.67 L138.45,108.82 L137.83,110.82 L136.85,112.63 L135.54,114.21 L133.96,115.51 L132.15,116.50 L130.15,117.12 L128.00,117.33 L125.85,117.12 L123.85,116.50 L122.04,115.51 L120.46,114.21 L119.15,112.63 L118.17,110.82 L117.55,108.82 L117.33,106.67 Z" fill="#0078d4" stroke="#1e1e1e" stroke-width="1" stroke-linejoin="round"/><path d="M128.00,58.67 L125.85,58.88 L123.85,59.50 L122.04,60.49 L120.46,61.79 L119.15,63.37 L118.17,65.18 L117.55,67.18 L117.33,69.33 L117.55,71.48 L118.17,73.49 L119.15,75.30 L120.46,76.88 L122.04,78.18 L123.85,79.16 L125.85,79.78 L128.00,80.00 L130.15,79.78 L132.15,79.16 L133.96,78.18 L135.54,76.88 L136.85,75.30 L137.83,73.49 L138.45,71.48 L138.67,69.33 L138.45,67.18 L137.83,65.18 L136.85,63.37 L135.54,61.79 L133.96,60.49 L132.15,59.50 L130.15,58.88 L128.00,58.67 Z" fill="#0078d4" stroke="#1e1e1e" stroke-width="1" stroke-linejoin="round"/><path d="M80.00,69.33 L80.22,67.18 L80.84,65.18 L81.82,63.37 L83.12,61.79 L84.70,60.49 L86.51,59.50 L88.52,58.88 L90.67,58.67 L92.82,58.88 L94.82,59.50 L96.63,60.49 L98.21,61.79 L99.51,63.37 L100.50,65.18 L101.12,67.18 L101.33,69.33 L101.12,71.48 L100.50,73.49 L99.51,75.30 L98.21,76.88 L96.63,78.18 L94.82,79.16 L92.82,79.78 L90.67,80.00 L88.52,79.78 L86.51,79.16 L84.70,78.18 L83.12,76.88 L81.82,75.30 L80.84,73.49 L80.22,71.48 L80.00,69.33 Z" fill="#0078d4" stroke="#1e1e1e" stroke-width="1" stroke-linejoin="round"/><path d="M80.00,106.67 L80.22,104.52 L80.84,102.51 L81.82,100.70 L83.12,99.12 L84.70,97.82 L86.51,96.84 L88.52,96.22 L90.67,96.00 L92.82,96.22 L94.82,96.84 L96.63,97.82 L98.21,99.12 L99.51,100.70 L100.50,102.51 L101.12,104.52 L101.33,106.67 L101.12,108.82 L100.50,110.82 L99.51,112.63 L98.21,114.21 L96.63,115.51 L94.82,116.50 L92.82,117.12 L90.67,117.33 L88.52,117.12 L86.51,116.50 L84.70,115.51 L83.12,114.21 L81.82,112.63 L80.84,110.82 L80.22,108.82 L80.00,106.67 Z" fill="#0078d4" stroke="#1e1e1e" stroke-width="1" stroke-linejoin="round"/><path d="M90.67,133.33 L88.52,133.55 L86.51,134.17 L84.70,135.15 L83.12,136.46 L81.82,138.04 L80.84,139.85 L80.22,141.85 L80.00,144.00 L80.22,146.15 L80.84,148.15 L81.82,149.96 L83.12,151.54 L84.70,152.85 L86.51,153.83 L88.52,154.45 L90.67,154.67 L92.82,154.45 L94.82,153.83 L96.63,152.85 L98.21,151.54 L99.51,149.96 L100.50,148.15 L101.12,146.15 L101.33,144.00 L101.12,141.85 L100.50,139.85 L99.51,138.04 L98.21,136.46 L96.63,135.15 L94.82,134.17 L92.82,133.55 L90.67,133.33 Z" fill="#0078d4" stroke="#1e1e1e" stroke-width="1" stroke-linejoin="round"/></svg>