<svg xmlns="http://www.w3.org/2000/svg" viewBox="7.60 12.40 100.00 90.40"><path d="M36.00,55.20 L36.00,45.60 L79.20,45.60 L79.20,55.20 L36.00,55.20 Z" fill="#8dc8e8" stroke="#1e1e1e" stroke-width="1" stroke-linejoin="round"/><path d="M48.00,79.20 L48.00,100.80 L36.00,100.80 L36.00,79.20 L48.00,79.20 Z" fill="#8dc8e8" stroke="#8dc8e8" stroke-width="1" stroke-linejoin="round"/><path d="M19.20,14.40 L18.22,14.45 L17.27,14.60 L16.35,14.83 L15.46,15.15 L14.62,15.56 L13.83,16.04 L13.09,16.59 L12.41,17.21 L11.79,17.89 L11.24,18.63 L10.76,19.42 L10.35,20.26 L10.03,21.15 L9.80,22.07 L9.65,23.02 L9.60,24.00 L9.69,25.31 L9.95,26.57 L10.36,27.76 L10.92,28.87 L11.62,29.89 L12.44,30.82 L13.37,31.63 L14.40,32.32 L14.40,97.20 L14.47,97.93 L14.68,98.60 L15.01,99.21 L15.45,99.75 L15.99,100.19 L16.60,100.52 L17.27,100.73 L18.00,100.80 L28.80,100.80 L28.80,75.60 L28.87,74.87 L29.08,74.20 L29.41,73.59 L29.85,73.05 L30.39,72.61 L31.00,72.28 L31.67,72.07 L32.40,72.00 L51.60,72.00 L52.33,72.07 L53.00,72.28 L53.61,72.61 L54.15,73.05 L54.59,73.59 L54.92,74.20 L55.13,74.87 L55.20,75.60 L55.20,100.80 L97.20,100.80 L97.93,100.73 L98.60,100.52 L99.21,100.19 L99.75,99.75 L100.19,99.21 L100.52,98.60 L100.73,97.93 L100.80,97.20 L100.80,32.32 L101.83,31.63 L102.76,30.82 L103.58,29.89 L104.28,28.87 L104.84,27.76 L105.25,26.57 L105.51,25.31 L105.60,24.00 L105.55,23.02 L105.40,22.07 L105.17,21.15 L104.85,20.26 L104.44,19.42 L103.96,18.63 L103.41,17.89 L102.79,17.21 L102.11,16.59 L101.37,16.04 L100.58,15.56 L99.74,15.15 L98.85,14.83 L97.93,14.60 L96.98,14.45 L96.00,14.40 L19.20,14.40 Z" fill="#0078d4" stroke="#0078d4" stroke-width="1" stroke-linejoin="round"/><path d="M19.20,21.60 L18.72,21.65 L18.27,21.79 L17.86,22.01 L17.50,22.30 L17.21,22.66 L16.99,23.07 L16.85,23.52 L16.80,24.00 L16.85,24.48 L16.99,24.93 L17.21,25.34 L17.50,25.70 L17.86,25.99 L18.27,26.21 L18.72,26.35 L19.20,26.40 L96.00,26.40 L96.48,26.35 L96.93,26.21 L97.34,25.99 L97.70,25.70 L97.99,25.34 L98.21,24.93 L98.35,24.48 L98.40,24.00 L98.35,23.52 L98.21,23.07 L97.99,22.66 L97.70,22.30 L97.34,22.01 L96.93,21.79 L96.48,21.65 L96.00,21.60 L19.20,21.60 Z" fill="#ffffff" stroke="#ffffff" stroke-width="1" stroke-linejoin="round"/><path d="M82.80,38.40 L32.40,38.40 L31.67,38.47 L31.00,38.68 L30.39,39.01 L29.85,39.45 L29.41,39.99 L29.08,40.60 L28.87,41.27 L28.80,42.00 L28.80,58.80 L28.87,59.53 L29.08,60.20 L29.41,60.81 L29.85,61.35 L30.39,61.79 L31.00,62.12 L31.67,62.33 L32.40,62.40 L82.80,62.40 L83.53,62.33 L84.20,62.12 L84.81,61.79 L85.35,61.35 L85.79,60.81 L86.12,60.20 L86.33,59.53 L86.40,58.80 L86.40,42.00 L86.33,41.27 L86.12,40.60 L85.79,39.99 L85.35,39.45 L84.81,39.01 L84.20,38.68 L83.53,38.47 L82.80,38.40 Z" fill="#ffffff" stroke="#ffffff" stroke-width="1" stroke-linejoin="round"/><path d="M36.00,55.20 L36.00,45.60 L79.20,45.60 L79.20,55.20 L36.00,55.20 Z" fill="#8dc8e8" stroke="#1e1e1e" stroke-width="1" stroke-linejoin="round"/><path d="M82.80,72.00 L70.80,72.00 L70.07,72.07 L69.40,72.28 L68.79,72.61 L68.25,73.05 L67.81,73.59 L67.48,74.20 L67.27,74.87 L67.20,75.60 L67.20,87.60 L67.27,88.33 L67.48,89.00 L67.81,89.61 L68.25,90.15 L68.79,90.59 L69.40,90.92 L70.07,91.13 L70.80,91.20 L82.80,91.20 L83.53,91.13 L84.20,90.92 L84.81,90.59 L85.35,90.15 L85.79,89.61 L86.12,89.00 L86.33,88.33 L86.40,87.60 L86.40,75.60 L86.33,74.87 L86.12,74.20 L85.79,73.59 L85.35,73.05 L84.81,72.61 L84.20,72.28 L83.53,72.07 L82.80,72.00 Z" fill="#ffffff" stroke="#ffffff" stroke-width="1" stroke-linejoin="round"/></svg>