<svg xmlns="http://www.w3.org/2000/svg" viewBox="40.67 19.33 174.67 217.33"><path d="M121.33,234.67 L88.00,234.67 L88.00,200.00 L121.33,200.00 L121.33,234.67 Z" fill="#8dc8e8" stroke="#1e1e1e" stroke-width="1" stroke-linejoin="round"/><path d="M168.00,234.67 L134.67,234.67 L134.67,200.00 L168.00,200.00 L168.00,234.67 Z" fill="#8dc8e8" stroke="#1e1e1e" stroke-width="1" stroke-linejoin="round"/><path d="M42.67,44.00 L42.78,41.68 L43.13,39.43 L43.69,37.26 L44.45,35.18 L45.40,33.20 L46.54,31.33 L47.84,29.58 L49.31,27.97 L50.92,26.51 L52.66,25.20 L54.53,24.07 L56.51,23.11 L58.59,22.35 L60.77,21.79 L63.02,21.45 L65.33,21.33 L148.00,21.33 L150.32,21.45 L152.57,21.79 L154.74,22.35 L156.82,23.11 L158.80,24.07 L160.67,25.20 L162.42,26.51 L164.03,27.97 L165.49,29.58 L166.80,31.33 L167.93,33.20 L168.89,35.18 L169.65,37.26 L170.21,39.43 L170.55,41.68 L170.67,44.00 L170.67,101.33 L190.67,101.33 L192.98,101.45 L195.23,101.79 L197.41,102.35 L199.49,103.11 L201.47,104.07 L203.34,105.20 L205.08,106.51 L206.69,107.97 L208.16,109.58 L209.46,111.33 L210.60,113.20 L211.55,115.18 L212.31,117.26 L212.87,119.43 L213.22,121.68 L213.33,124.00 L213.33,228.00 L213.20,229.34 L212.81,230.60 L212.19,231.73 L211.38,232.71 L210.39,233.53 L209.26,234.14 L208.01,234.53 L206.67,234.67 L181.33,234.67 L181.33,198.67 L181.09,196.25 L180.39,194.00 L179.28,191.96 L177.82,190.18 L176.04,188.72 L174.00,187.61 L171.75,186.91 L169.33,186.67 L86.67,186.67 L84.25,186.91 L82.00,187.61 L79.96,188.72 L78.18,190.18 L76.72,191.96 L75.61,194.00 L74.91,196.25 L74.67,198.67 L74.67,234.67 L49.33,234.67 L47.99,234.53 L46.74,234.14 L45.61,233.53 L44.62,232.71 L43.81,231.73 L43.19,230.60 L42.80,229.34 L42.67,228.00 L42.67,44.00 Z" fill="#0078d4" stroke="#1e1e1e" stroke-width="1" stroke-linejoin="round"/><path d="M85.33,64.00 L87.48,64.22 L89.49,64.84 L91.30,65.82 L92.88,67.12 L94.18,68.70 L95.16,70.51 L95.78,72.52 L96.00,74.67 L95.78,76.82 L95.16,78.82 L94.18,80.63 L92.88,82.21 L91.30,83.51 L89.49,84.50 L87.48,85.12 L85.33,85.33 L83.18,85.12 L81.18,84.50 L79.37,83.51 L77.79,82.21 L76.49,80.63 L75.50,78.82 L74.88,76.82 L74.67,74.67 L74.88,72.52 L75.50,70.51 L76.49,68.70 L77.79,67.12 L79.37,65.82 L81.18,64.84 L83.18,64.22 L85.33,64.00 Z" fill="#ffffff" stroke="#1e1e1e" stroke-width="1" stroke-linejoin="round"/><path d="M96.00,112.00 L95.78,114.15 L95.16,116.15 L94.18,117.96 L92.88,119.54 L91.30,120.85 L89.49,121.83 L87.48,122.45 L85.33,122.67 L83.18,122.45 L81.18,121.83 L79.37,120.85 L77.79,119.54 L76.49,117.96 L75.50,116.15 L74.88,114.15 L74.67,112.00 L74.88,109.85 L75.50,107.85 L76.49,106.04 L77.79,104.46 L79.37,103.15 L81.18,102.17 L83.18,101.55 L85.33,101.33 L87.48,101.55 L89.49,102.17 L91.30,103.15 L92.88,104.46 L94.18,106.04 L95.16,107.85 L95.78,109.85 L96.00,112.00 Z" fill="#ffffff" stroke="#1e1e1e" stroke-width="1" stroke-linejoin="round"/><path d="M85.33,138.67 L87.48,138.88 L89.49,139.50 L91.30,140.49 L92.88,141.79 L94.18,143.37 L95.16,145.18 L95.78,147.18 L96.00,149.33 L95.78,151.48 L95.16,153.49 L94.18,155.30 L92.88,156.88 L91.30,158.18 L89.49,159.16 L87.48,159.78 L85.33,160.00 L83.18,159.78 L81.18,159.16 L79.37,158.18 L77.79,156.88 L76.49,155.30 L75.50,153.49 L74.88,151.48 L74.67,149.33 L74.88,147.18 L75.50,145.18 L76.49,143.37 L77.79,141.79 L79.37,140.49 L81.18,139.50 L83.18,138.88 L85.33,138.67 Z" fill="#ffffff" stroke="#1e1e1e" stroke-width="1" stroke-linejoin="round"/><path d="M138.67,74.67 L138.45,76.82 L137.83,78.82 L136.85,80.63 L135.54,82.21 L133.96,83.51 L132.15,84.50 L130.15,85.12 L128.00,85.33 L125.85,85.12 L123.85,84.50 L122.04,83.51 L120.46,82.21 L119.15,80.63 L118.17,78.82 L117.55,76.82 L117.33,74.67 L117.55,72.52 L118.17,70.51 L119.15,68.70 L120.46,67.12 L122.04,65.82 L123.85,64.84 L125.85,64.22 L128.00,64.00 L130.15,64.22 L132.15,64.84 L133.96,65.82 L135.54,67.12 L136.85,68.70 L137.83,70.51 L138.45,72.52 L138.67,74.67 Z" fill="#ffffff" stroke="#1e1e1e" stroke-width="1" stroke-linejoin="round"/><path d="M128.00,101.33 L130.15,101.55 L132.15,102.17 L133.96,103.15 L135.54,104.46 L136.85,106.04 L137.83,107.85 L138.45,109.85 L138.67,112.00 L138.45,114.15 L137.83,116.15 L136.85,117.96 L135.54,119.54 L133.96,120.85 L132.15,121.83 L130.15,122.45 L128.00,122.67 L125.85,122.45 L123.85,121.83 L122.04,120.85 L120.46,119.54 L119.15,117.96 L118.17,116.15 L117.55,114.15 L117.33,112.00 L117.55,109.85 L118.17,107.85 L119.15,106.04 L120.46,104.46 L122.04,103.15 L123.85,102.17 L125.85,101.55 L128.00,101.33 Z" fill="#ffffff" stroke="#1e1e1e" stroke-width="1" stroke-linejoin="round"/><path d="M138.67,149.33 L138.45,151.48 L137.83,153.49 L136.85,155.30 L135.54,156.88 L133.96,158.18 L132.15,159.16 L130.15,159.78 L128.00,160.00 L125.85,159.78 L123.85,159.16 L122.04,158.18 L120.46,156.88 L119.15,155.30 L118.17,153.49 L117.55,151.48 L117.33,149.33 L117.55,147.18 L118.17,145.18 L119.15,143.37 L120.46,141.79 L122.04,140.49 L123.85,139.50 L125.85,138.88 L128.00,138.67 L130.15,138.88 L132.15,139.50 L133.96,140.49 L135.54,141.79 L136.85,143.37 L137.83,145.18 L138.45,147.18 L138.67,149.33 Z" fill="#ffffff" stroke="#1e1e1e" stroke-width="1" stroke-linejoin="round"/><path d="M170.67,138.67 L172.82,138.88 L174.82,139.50 L176.63,140.49 L178.21,141.79 L179.51,143.37 L180.50,145.18 L181.12,147.18 L181.33,149.33 L181.12,151.48 L180.50,153.49 L179.51,155.30 L178.21,156.88 L176.63,158.18 L174.82,159.16 L172.82,159.78 L170.67,160.00 L168.52,159.78 L166.51,159.16 L164.70,158.18 L163.12,156.88 L161.82,155.30 L160.84,153.49 L160.22,151.48 L160.00,149.33 L160.22,147.18 L160.84,145.18 L161.82,143.37 L163.12,141.79 L164.70,140.49 L166.51,139.50 L168.52,138.88 L170.67,138.67 Z" fill="#ffffff" stroke="#1e1e1e" stroke-width="1" stroke-linejoin="round"/></svg>