<svg xmlns="http://www.w3.org/2000/svg" viewBox="40.67 19.33 174.67 217.33"><path d="M42.67,56.00 L42.85,52.46 L43.37,49.01 L44.23,45.69 L45.39,42.51 L46.85,39.48 L48.59,36.62 L50.58,33.95 L52.82,31.49 L55.28,29.25 L57.95,27.25 L60.81,25.52 L63.84,24.06 L67.02,22.89 L70.35,22.04 L73.79,21.51 L77.33,21.33 L178.67,21.33 L182.21,21.51 L185.65,22.04 L188.98,22.89 L192.16,24.06 L195.19,25.52 L198.05,27.25 L200.72,29.25 L203.18,31.49 L205.42,33.95 L207.41,36.62 L209.15,39.48 L210.61,42.51 L211.77,45.69 L212.63,49.01 L213.15,52.46 L213.33,56.00 L213.33,200.00 L213.15,203.54 L212.63,206.99 L211.77,210.31 L210.61,213.49 L209.15,216.52 L207.41,219.38 L205.42,222.05 L203.18,224.51 L200.72,226.75 L198.05,228.75 L195.19,230.48 L192.16,231.94 L188.98,233.11 L185.65,233.96 L182.21,234.49 L178.67,234.67 L77.33,234.67 L73.79,234.49 L70.35,233.96 L67.02,233.11 L63.84,231.94 L60.81,230.48 L57.95,228.75 L55.28,226.75 L52.82,224.51 L50.58,222.05 L48.59,219.38 L46.85,216.52 L45.39,213.49 L44.23,210.31 L43.37,206.99 L42.85,203.54 L42.67,200.00 L42.67,56.00 Z" fill="#0078d4" stroke="#1e1e1e" stroke-width="1" stroke-linejoin="round"/><path d="M96.00,53.33 L93.82,53.44 L91.70,53.77 L89.66,54.29 L87.70,55.01 L85.83,55.91 L84.07,56.98 L82.43,58.20 L80.92,59.58 L79.54,61.10 L78.31,62.74 L77.24,64.50 L76.34,66.36 L75.63,68.32 L75.10,70.37 L74.78,72.49 L74.67,74.67 L74.67,85.33 L74.78,87.51 L75.10,89.63 L75.63,91.68 L76.34,93.64 L77.24,95.50 L78.31,97.26 L79.54,98.90 L80.92,100.42 L82.43,101.80 L84.07,103.02 L85.83,104.09 L87.70,104.99 L89.66,105.71 L91.70,106.23 L93.82,106.56 L96.00,106.67 L160.00,106.67 L162.18,106.56 L164.30,106.23 L166.34,105.71 L168.30,104.99 L170.17,104.09 L171.93,103.02 L173.57,101.80 L175.08,100.42 L176.46,98.90 L177.69,97.26 L178.76,95.50 L179.66,93.64 L180.37,91.68 L180.90,89.63 L181.22,87.51 L181.33,85.33 L181.33,74.67 L181.22,72.49 L180.90,70.37 L180.37,68.32 L179.66,66.36 L178.76,64.50 L177.69,62.74 L176.46,61.10 L175.08,59.58 L173.57,58.20 L171.93,56.98 L170.17,55.91 L168.30,55.01 L166.34,54.29 L164.30,53.77 L162.18,53.44 L160.00,53.33 L96.00,53.33 Z" fill="#ffffff" stroke="#1e1e1e" stroke-width="1" stroke-linejoin="round"/><path d="M101.33,141.33 L101.06,138.65 L100.29,136.14 L99.06,133.88 L97.43,131.91 L95.45,130.28 L93.19,129.05 L90.69,128.27 L88.00,128.00 L85.31,128.27 L82.81,129.05 L80.55,130.28 L78.57,131.91 L76.94,133.88 L75.71,136.14 L74.94,138.65 L74.67,141.33 L74.94,144.02 L75.71,146.52 L76.94,148.79 L78.57,150.76 L80.55,152.39 L82.81,153.62 L85.31,154.40 L88.00,154.67 L90.69,154.40 L93.19,153.62 L95.45,152.39 L97.43,150.76 L99.06,148.79 L100.29,146.52 L101.06,144.02 L101.33,141.33 Z" fill="#ffffff" stroke="#1e1e1e" stroke-width="1" stroke-linejoin="round"/><path d="M88.00,197.33 L90.69,197.06 L93.19,196.29 L95.45,195.06 L97.43,193.43 L99.06,191.45 L100.29,189.19 L101.06,186.69 L101.33,184.00 L101.06,181.31 L100.29,178.81 L99.06,176.55 L97.43,174.57 L95.45,172.94 L93.19,171.71 L90.69,170.94 L88.00,170.67 L85.31,170.94 L82.81,171.71 L80.55,172.94 L78.57,174.57 L76.94,176.55 L75.71,178.81 L74.94,181.31 L74.67,184.00 L74.94,186.69 L75.71,189.19 L76.94,191.45 L78.57,193.43 L80.55,195.06 L82.81,196.29 L85.31,197.06 L88.00,197.33 Z" fill="#ffffff" stroke="#1e1e1e" stroke-width="1" stroke-linejoin="round"/><path d="M181.33,141.33 L181.06,138.65 L180.29,136.14 L179.06,133.88 L177.43,131.91 L175.45,130.28 L173.19,129.05 L170.69,128.27 L168.00,128.00 L165.31,128.27 L162.81,129.05 L160.55,130.28 L158.57,131.91 L156.94,133.88 L155.71,136.14 L154.94,138.65 L154.67,141.33 L154.94,144.02 L155.71,146.52 L156.94,148.79 L158.57,150.76 L160.55,152.39 L162.81,153.62 L165.31,154.40 L168.00,154.67 L170.69,154.40 L173.19,153.62 L175.45,152.39 L177.43,150.76 L179.06,148.79 L180.29,146.52 L181.06,144.02 L181.33,141.33 Z" fill="#ffffff" stroke="#1e1e1e" stroke-width="1" stroke-linejoin="round"/><path d="M168.00,197.33 L170.69,197.06 L173.19,196.29 L175.45,195.06 L177.43,193.43 L179.06,191.45 L180.29,189.19 L181.06,186.69 L181.33,184.00 L181.06,181.31 L180.29,178.81 L179.06,176.55 L177.43,174.57 L175.45,172.94 L173.19,171.71 L170.69,170.94 L168.00,170.67 L165.31,170.94 L162.81,171.71 L160.55,172.94 L158.57,174.57 L156.94,176.55 L155.71,178.81 L154.94,181.31 L154.67,184.00 L154.94,186.69 L155.71,189.19 L156.94,191.45 L158.57,193.43 L160.55,195.06 L162.81,196.29 L165.31,197.06 L168.00,197.33 Z" fill="#ffffff" stroke="#1e1e1e" stroke-width="1" stroke-linejoin="round"/><path d="M141.33,141.33 L141.06,138.65 L140.29,136.14 L139.06,133.88 L137.43,131.91 L135.45,130.28 L133.19,129.05 L130.69,128.27 L128.00,128.00 L125.31,128.27 L122.81,129.05 L120.55,130.28 L118.57,131.91 L116.94,133.88 L115.71,136.14 L114.94,138.65 L114.67,141.33 L114.94,144.02 L115.71,146.52 L116.94,148.79 L118.57,150.76 L120.55,152.39 L122.81,153.62 L125.31,154.40 L128.00,154.67 L130.69,154.40 L133.19,153.62 L135.45,152.39 L137.43,150.76 L139.06,148.79 L140.29,146.52 L141.06,144.02 L141.33,141.33 Z" fill="#ffffff" stroke="#1e1e1e" stroke-width="1" stroke-linejoin="round"/><path d="M128.00,197.33 L130.69,197.06 L133.19,196.29 L135.45,195.06 L137.43,193.43 L139.06,191.45 L140.29,189.19 L141.06,186.69 L141.33,184.00 L141.06,181.31 L140.29,178.81 L139.06,176.55 L137.43,174.57 L135.45,172.94 L133.19,171.71 L130.69,170.94 L128.00,170.67 L125.31,170.94 L122.81,171.71 L120.55,172.94 L118.57,174.57 L116.94,176.55 L115.71,178.81 L114.94,181.31 L114.67,184.00 L114.94,186.69 L115.71,189.19 L116.94,191.45 L118.57,193.43 L120.55,195.06 L122.81,196.29 L125.31,197.06 L128.00,197.33 Z" fill="#ffffff" stroke="#1e1e1e" stroke-width="1" stroke-linejoin="round"/></svg>