<svg xmlns="http://www.w3.org/2000/svg" viewBox="17.20 7.60 80.80 100.00"><path d="M19.20,25.20 L19.28,23.60 L19.52,22.06 L19.90,20.56 L20.43,19.13 L21.08,17.76 L21.86,16.48 L22.76,15.28 L23.77,14.17 L24.88,13.16 L26.08,12.26 L27.36,11.48 L28.73,10.83 L30.16,10.30 L31.66,9.92 L33.20,9.68 L34.80,9.60 L80.40,9.60 L82.00,9.68 L83.54,9.92 L85.04,10.30 L86.47,10.83 L87.84,11.48 L89.12,12.26 L90.32,13.16 L91.43,14.17 L92.44,15.28 L93.34,16.48 L94.12,17.76 L94.77,19.13 L95.30,20.56 L95.68,22.06 L95.92,23.60 L96.00,25.20 L96.00,90.00 L95.92,91.60 L95.68,93.14 L95.30,94.64 L94.77,96.07 L94.12,97.44 L93.34,98.72 L92.44,99.92 L91.43,101.03 L90.32,102.04 L89.12,102.94 L87.84,103.72 L86.47,104.37 L85.04,104.90 L83.54,105.28 L81.99,105.52 L80.40,105.60 L34.80,105.60 L33.20,105.52 L31.66,105.28 L30.16,104.90 L28.73,104.37 L27.36,103.72 L26.08,102.94 L24.88,102.04 L23.77,101.03 L22.76,99.92 L21.86,98.72 L21.08,97.44 L20.43,96.07 L19.90,94.64 L19.52,93.14 L19.28,91.60 L19.20,90.00 L19.20,25.20 Z" fill="#0078d4" stroke="#0078d4" stroke-width="1" stroke-linejoin="round"/><path d="M43.20,24.00 L42.22,24.05 L41.27,24.20 L40.35,24.43 L39.46,24.75 L38.62,25.16 L37.83,25.64 L37.09,26.19 L36.41,26.81 L35.79,27.49 L35.24,28.23 L34.76,29.02 L34.35,29.86 L34.03,30.75 L33.80,31.67 L33.65,32.62 L33.60,33.60 L33.60,38.40 L33.65,39.38 L33.80,40.33 L34.03,41.25 L34.35,42.14 L34.76,42.98 L35.24,43.77 L35.79,44.51 L36.41,45.19 L37.09,45.81 L37.83,46.36 L38.62,46.84 L39.46,47.25 L40.35,47.57 L41.27,47.80 L42.22,47.95 L43.20,48.00 L72.00,48.00 L72.98,47.95 L73.93,47.80 L74.85,47.57 L75.74,47.25 L76.58,46.84 L77.37,46.36 L78.11,45.81 L78.79,45.19 L79.41,44.51 L79.96,43.77 L80.44,42.98 L80.85,42.14 L81.17,41.25 L81.40,40.33 L81.55,39.38 L81.60,38.40 L81.60,33.60 L81.55,32.62 L81.40,31.67 L81.17,30.75 L80.85,29.86 L80.44,29.02 L79.96,28.23 L79.41,27.49 L78.79,26.81 L78.11,26.19 L77.37,25.64 L76.58,25.16 L75.74,24.75 L74.85,24.43 L73.93,24.20 L72.98,24.05 L72.00,24.00 L43.20,24.00 Z" fill="#ffffff" stroke="#ffffff" stroke-width="1" stroke-linejoin="round"/><path d="M45.60,63.60 L45.48,62.39 L45.13,61.26 L44.58,60.25 L43.84,59.36 L42.95,58.62 L41.94,58.07 L40.81,57.72 L39.60,57.60 L38.39,57.72 L37.26,58.07 L36.25,58.62 L35.36,59.36 L34.62,60.25 L34.07,61.26 L33.72,62.39 L33.60,63.60 L33.72,64.81 L34.07,65.94 L34.62,66.95 L35.36,67.84 L36.25,68.58 L37.26,69.13 L38.39,69.48 L39.60,69.60 L40.81,69.48 L41.94,69.13 L42.95,68.58 L43.84,67.84 L44.58,66.95 L45.13,65.94 L45.48,64.81 L45.60,63.60 Z" fill="#ffffff" stroke="#ffffff" stroke-width="1" stroke-linejoin="round"/><path d="M39.60,88.80 L40.81,88.68 L41.94,88.33 L42.95,87.78 L43.84,87.04 L44.58,86.15 L45.13,85.14 L45.48,84.01 L45.60,82.80 L45.48,81.59 L45.13,80.46 L44.58,79.45 L43.84,78.56 L42.95,77.82 L41.94,77.27 L40.81,76.92 L39.60,76.80 L38.39,76.92 L37.26,77.27 L36.25,77.82 L35.36,78.56 L34.62,79.45 L34.07,80.46 L33.72,81.59 L33.60,82.80 L33.72,84.01 L34.07,85.14 L34.62,86.15 L35.36,87.04 L36.25,87.78 L37.26,88.33 L38.39,88.68 L39.60,88.80 Z" fill="#ffffff" stroke="#ffffff" stroke-width="1" stroke-linejoin="round"/><path d="M81.60,63.60 L81.48,62.39 L81.13,61.26 L80.58,60.25 L79.84,59.36 L78.95,58.62 L77.94,58.07 L76.81,57.72 L75.60,57.60 L74.39,57.72 L73.26,58.07 L72.25,58.62 L71.36,59.36 L70.62,60.25 L70.07,61.26 L69.72,62.39 L69.60,63.60 L69.72,64.81 L70.07,65.94 L70.62,66.95 L71.36,67.84 L72.25,68.58 L73.26,69.13 L74.39,69.48 L75.60,69.60 L76.81,69.48 L77.94,69.13 L78.95,68.58 L79.84,67.84 L80.58,66.95 L81.13,65.94 L81.48,64.81 L81.60,63.60 Z" fill="#ffffff" stroke="#ffffff" stroke-width="1" stroke-linejoin="round"/><path d="M75.60,88.80 L76.81,88.68 L77.94,88.33 L78.95,87.78 L79.84,87.04 L80.58,86.15 L81.13,85.14 L81.48,84.01 L81.60,82.80 L81.48,81.59 L81.13,80.46 L80.58,79.45 L79.84,78.56 L78.95,77.82 L77.94,77.27 L76.81,76.92 L75.60,76.80 L74.39,76.92 L73.26,77.27 L72.25,77.82 L71.36,78.56 L70.62,79.45 L70.07,80.46 L69.72,81.59 L69.60,82.80 L69.72,84.01 L70.07,85.14 L70.62,86.15 L71.36,87.04 L72.25,87.78 L73.26,88.33 L74.39,88.68 L75.60,88.80 Z" fill="#ffffff" stroke="#ffffff" stroke-width="1" stroke-linejoin="round"/><path d="M63.60,63.60 L63.48,62.39 L63.13,61.26 L62.58,60.25 L61.84,59.36 L60.95,58.62 L59.94,58.07 L58.81,57.72 L57.60,57.60 L56.39,57.72 L55.26,58.07 L54.25,58.62 L53.36,59.36 L52.62,60.25 L52.07,61.26 L51.72,62.39 L51.60,63.60 L51.72,64.81 L52.07,65.94 L52.62,66.95 L53.36,67.84 L54.25,68.58 L55.26,69.13 L56.39,69.48 L57.60,69.60 L58.81,69.48 L59.94,69.13 L60.95,68.58 L61.84,67.84 L62.58,66.95 L63.13,65.94 L63.48,64.81 L63.60,63.60 Z" fill="#ffffff" stroke="#ffffff" stroke-width="1" stroke-linejoin="round"/><path d="M57.60,88.80 L58.81,88.68 L59.94,88.33 L60.95,87.78 L61.84,87.04 L62.58,86.15 L63.13,85.14 L63.48,84.01 L63.60,82.80 L63.48,81.59 L63.13,80.46 L62.58,79.45 L61.84,78.56 L60.95,77.82 L59.94,77.27 L58.81,76.92 L57.60,76.80 L56.39,76.92 L55.26,77.27 L54.25,77.82 L53.36,78.56 L52.62,79.45 L52.07,80.46 L51.72,81.59 L51.60,82.80 L51.72,84.01 L52.07,85.14 L52.62,86.15 L53.36,87.04 L54.25,87.78 L55.26,88.33 L56.39,88.68 L57.60,88.80 Z" fill="#ffffff" stroke="#ffffff" stroke-width="1" stroke-linejoin="round"/></svg>