<svg xmlns="http://www.w3.org/2000/svg" viewBox="21.11 8.36 75.32 100.00"><path d="M53.58,16.72 L52.78,15.34 L51.79,14.06 L50.64,12.92 L49.34,11.95 L47.90,11.18 L46.34,10.65 L45.51,10.48 L44.66,10.38 L43.78,10.36 L42.88,10.42 L41.16,10.66 L39.29,11.04 L37.33,11.58 L35.31,12.31 L33.29,13.28 L31.31,14.49 L30.36,15.21 L29.43,16.00 L28.54,16.86 L27.69,17.81 L26.88,18.87 L26.14,20.00 L25.47,21.20 L24.88,22.48 L24.36,23.84 L23.93,25.28 L23.59,26.80 L23.34,28.41 L23.18,30.09 L23.11,31.87 L23.15,33.73 L23.29,35.69 L23.54,37.74 L23.90,39.88 L24.37,42.11 L24.96,44.45 L26.43,49.52 L28.07,54.54 L29.86,59.49 L31.80,64.34 L33.89,69.06 L36.12,73.62 L38.49,78.00 L40.99,82.16 L43.61,86.07 L46.36,89.74 L47.80,91.47 L49.26,93.13 L50.76,94.72 L52.30,96.22 L53.86,97.63 L55.46,98.96 L57.09,100.19 L58.75,101.31 L60.45,102.33 L62.17,103.24 L63.92,104.04 L65.70,104.72 L67.27,105.21 L68.79,105.62 L70.26,105.93 L71.69,106.16 L73.07,106.30 L74.41,106.36 L75.70,106.35 L76.95,106.26 L78.15,106.09 L79.31,105.86 L81.50,105.21 L83.53,104.32 L85.38,103.22 L87.00,102.00 L88.43,100.67 L89.69,99.26 L90.78,97.81 L91.73,96.36 L92.53,94.93 L93.20,93.57 L93.74,92.31 L94.17,90.96 L94.40,89.60 L94.43,88.27 L94.29,86.95 L94.00,85.68 L93.56,84.46 L93.00,83.30 L92.34,82.23 L85.36,72.08 L84.74,71.25 L84.06,70.48 L83.33,69.77 L82.55,69.13 L81.72,68.56 L80.86,68.06 L79.96,67.62 L79.03,67.26 L78.08,66.97 L77.11,66.76 L76.11,66.62 L75.11,66.56 L74.10,66.58 L73.09,66.69 L72.08,66.87 L71.08,67.14 L61.44,70.15 L60.92,70.24 L60.44,70.18 L60.02,69.99 L59.68,69.70 L58.06,67.73 L56.43,65.59 L54.85,63.31 L53.36,60.91 L52.01,58.41 L50.85,55.84 L49.92,53.22 L49.56,51.90 L49.27,50.57 L49.27,50.25 L49.35,50.01 L50.59,48.17 L52.12,46.28 L53.83,44.39 L55.64,42.56 L56.38,41.78 L57.06,40.95 L57.68,40.08 L58.22,39.16 L58.70,38.21 L59.10,37.23 L59.43,36.22 L59.68,35.19 L59.85,34.15 L59.94,33.09 L59.95,32.02 L59.86,30.95 L59.69,29.89 L59.42,28.83 L59.06,27.79 L58.60,26.76 L53.58,16.72 Z" fill="#5b5fc7" stroke="#1e1e1e" stroke-width="1" stroke-linejoin="round"/></svg>