<svg xmlns="http://www.w3.org/2000/svg" viewBox="16.29 20.88 223.43 209.69"><path d="M154.98,22.88 L157.62,23.05 L160.17,23.55 L162.63,24.36 L164.96,25.47 L167.13,26.86 L169.12,28.51 L170.90,30.42 L172.43,32.57 L186.34,54.86 L208.00,54.86 L211.04,55.01 L213.99,55.46 L216.84,56.19 L219.57,57.19 L222.16,58.44 L224.61,59.93 L226.90,61.64 L229.01,63.56 L230.93,65.67 L232.64,67.96 L234.13,70.41 L235.38,73.01 L236.38,75.74 L237.11,78.58 L237.56,81.53 L237.71,84.57 L237.71,198.86 L237.56,201.90 L237.11,204.85 L236.38,207.69 L235.38,210.42 L234.13,213.02 L232.64,215.47 L230.93,217.76 L229.01,219.87 L226.90,221.79 L224.61,223.50 L222.16,224.98 L219.57,226.24 L216.84,227.24 L213.99,227.97 L211.04,228.42 L208.00,228.57 L48.00,228.57 L44.96,228.42 L42.01,227.97 L39.16,227.24 L36.43,226.24 L33.84,224.98 L31.39,223.50 L29.10,221.79 L26.99,219.87 L25.07,217.76 L23.36,215.47 L21.87,213.02 L20.62,210.42 L19.62,207.69 L18.89,204.85 L18.44,201.90 L18.29,198.86 L18.29,84.57 L18.44,81.53 L18.89,78.58 L19.62,75.74 L20.62,73.01 L21.87,70.41 L23.36,67.96 L25.07,65.67 L26.99,63.56 L29.10,61.64 L31.39,59.93 L33.84,58.44 L36.43,57.19 L39.16,56.19 L42.01,55.46 L44.96,55.01 L48.00,54.86 L71.48,54.86 L84.12,33.12 L85.65,30.86 L87.43,28.85 L89.44,27.10 L91.65,25.63 L94.03,24.45 L96.56,23.59 L99.19,23.06 L101.91,22.88 L154.98,22.88 Z" fill="#5b5fc7" stroke="#1e1e1e" stroke-width="1" stroke-linejoin="round"/><path d="M77.71,137.17 L77.97,132.03 L78.74,127.03 L79.97,122.21 L81.67,117.59 L83.78,113.20 L86.30,109.05 L89.20,105.18 L92.44,101.61 L96.01,98.36 L99.88,95.47 L104.03,92.95 L108.43,90.83 L113.05,89.14 L117.87,87.90 L122.86,87.14 L128.00,86.88 L133.14,87.14 L138.13,87.90 L142.95,89.14 L147.57,90.83 L151.97,92.95 L156.12,95.47 L159.99,98.36 L163.56,101.61 L166.80,105.18 L169.70,109.05 L172.22,113.20 L174.33,117.59 L176.03,122.21 L177.26,127.03 L178.03,132.03 L178.29,137.17 L178.03,142.31 L177.26,147.30 L176.03,152.12 L174.33,156.74 L172.22,161.14 L169.70,165.28 L166.80,169.15 L163.56,172.72 L159.99,175.97 L156.12,178.86 L151.97,181.38 L147.57,183.50 L142.95,185.19 L138.13,186.43 L133.14,187.19 L128.00,187.45 L122.86,187.19 L117.87,186.43 L113.05,185.19 L108.43,183.50 L104.03,181.38 L99.88,178.86 L96.01,175.97 L92.44,172.72 L89.20,169.15 L86.30,165.28 L83.78,161.14 L81.67,156.74 L79.97,152.12 L78.74,147.30 L77.97,142.31 L77.71,137.17 Z" fill="#ffffff" stroke="#1e1e1e" stroke-width="1" stroke-linejoin="round"/><path d="M128.00,100.60 L131.74,100.78 L135.37,101.34 L138.88,102.24 L142.24,103.47 L145.43,105.01 L148.45,106.84 L151.26,108.95 L153.86,111.31 L156.22,113.90 L158.33,116.72 L160.16,119.73 L161.70,122.93 L162.93,126.29 L163.83,129.80 L164.38,133.43 L164.57,137.17 L164.38,140.91 L163.83,144.54 L162.93,148.04 L161.70,151.40 L160.16,154.60 L158.33,157.61 L156.22,160.43 L153.86,163.03 L151.26,165.39 L148.45,167.49 L145.43,169.32 L142.24,170.86 L138.88,172.09 L135.37,173.00 L131.74,173.55 L128.00,173.74 L124.26,173.55 L120.63,173.00 L117.12,172.09 L113.76,170.86 L110.57,169.32 L107.55,167.49 L104.74,165.39 L102.14,163.03 L99.78,160.43 L97.67,157.61 L95.84,154.60 L94.30,151.40 L93.07,148.04 L92.17,144.54 L91.62,140.91 L91.43,137.17 L91.62,133.43 L92.17,129.80 L93.07,126.29 L94.30,122.93 L95.84,119.73 L97.67,116.72 L99.78,113.90 L102.14,111.31 L104.74,108.95 L107.55,106.84 L110.57,105.01 L113.76,103.47 L117.12,102.24 L120.63,101.34 L124.26,100.78 L128.00,100.60 Z" fill="#5b5fc7" stroke="#1e1e1e" stroke-width="1" stroke-linejoin="round"/></svg>