<svg xmlns="http://www.w3.org/2000/svg" viewBox="6.00 8.01 100.00 93.99"><path d="M67.80,10.01 L68.96,10.09 L70.08,10.30 L71.15,10.66 L72.17,11.14 L73.12,11.75 L73.99,12.47 L74.77,13.31 L75.44,14.25 L81.52,24.00 L91.00,24.00 L92.33,24.07 L93.62,24.26 L94.87,24.58 L96.06,25.02 L97.20,25.57 L98.27,26.22 L99.27,26.97 L100.19,27.81 L101.03,28.73 L101.78,29.73 L102.43,30.80 L102.98,31.94 L103.42,33.13 L103.74,34.38 L103.93,35.67 L104.00,37.00 L104.00,87.00 L103.93,88.33 L103.74,89.62 L103.42,90.87 L102.98,92.06 L102.43,93.20 L101.78,94.27 L101.03,95.27 L100.19,96.19 L99.27,97.03 L98.27,97.78 L97.20,98.43 L96.06,98.98 L94.87,99.42 L93.62,99.74 L92.33,99.93 L91.00,100.00 L21.00,100.00 L19.67,99.93 L18.38,99.74 L17.13,99.42 L15.94,98.98 L14.80,98.43 L13.73,97.78 L12.73,97.03 L11.81,96.19 L10.97,95.27 L10.22,94.27 L9.57,93.20 L9.02,92.06 L8.58,90.87 L8.26,89.62 L8.07,88.33 L8.00,87.00 L8.00,37.00 L8.07,35.67 L8.26,34.38 L8.58,33.13 L9.02,31.94 L9.57,30.80 L10.22,29.73 L10.97,28.73 L11.81,27.81 L12.73,26.97 L13.73,26.22 L14.80,25.57 L15.94,25.02 L17.13,24.58 L18.38,24.26 L19.67,24.07 L21.00,24.00 L31.27,24.00 L36.80,14.49 L37.47,13.50 L38.25,12.62 L39.13,11.85 L40.10,11.21 L41.14,10.70 L42.24,10.32 L43.40,10.09 L44.58,10.01 L67.80,10.01 Z" fill="#5b5fc7" stroke="#1e1e1e" stroke-width="1" stroke-linejoin="round"/><path d="M34.00,60.01 L34.11,57.76 L34.45,55.58 L34.99,53.47 L35.73,51.45 L36.66,49.52 L37.76,47.71 L39.02,46.02 L40.44,44.45 L42.01,43.03 L43.70,41.77 L45.51,40.67 L47.44,39.74 L49.46,39.00 L51.57,38.46 L53.75,38.12 L56.00,38.01 L58.25,38.12 L60.43,38.46 L62.54,39.00 L64.56,39.74 L66.49,40.67 L68.30,41.77 L69.99,43.03 L71.56,44.45 L72.98,46.02 L74.24,47.71 L75.34,49.52 L76.27,51.45 L77.01,53.47 L77.55,55.58 L77.89,57.76 L78.00,60.01 L77.89,62.26 L77.55,64.44 L77.01,66.55 L76.27,68.57 L75.34,70.50 L74.24,72.31 L72.98,74.00 L71.56,75.57 L69.99,76.99 L68.30,78.25 L66.49,79.36 L64.56,80.28 L62.54,81.02 L60.43,81.56 L58.25,81.90 L56.00,82.01 L53.75,81.90 L51.57,81.56 L49.46,81.02 L47.44,80.28 L45.51,79.36 L43.70,78.25 L42.01,76.99 L40.44,75.57 L39.02,74.00 L37.76,72.31 L36.66,70.50 L35.73,68.57 L34.99,66.55 L34.45,64.44 L34.11,62.26 L34.00,60.01 Z" fill="#ffffff" stroke="#1e1e1e" stroke-width="1" stroke-linejoin="round"/><path d="M56.00,44.01 L57.64,44.09 L59.22,44.34 L60.76,44.73 L62.23,45.27 L63.63,45.94 L64.95,46.74 L66.18,47.66 L67.31,48.70 L68.35,49.83 L69.27,51.06 L70.07,52.38 L70.74,53.78 L71.28,55.25 L71.67,56.79 L71.92,58.37 L72.00,60.01 L71.92,61.65 L71.67,63.24 L71.28,64.77 L70.74,66.24 L70.07,67.64 L69.27,68.96 L68.35,70.19 L67.31,71.32 L66.18,72.36 L64.95,73.28 L63.63,74.08 L62.23,74.75 L60.76,75.29 L59.22,75.69 L57.64,75.93 L56.00,76.01 L54.36,75.93 L52.78,75.69 L51.24,75.29 L49.77,74.75 L48.37,74.08 L47.05,73.28 L45.82,72.36 L44.69,71.32 L43.65,70.19 L42.73,68.96 L41.93,67.64 L41.26,66.24 L40.72,64.77 L40.33,63.24 L40.08,61.65 L40.00,60.01 L40.08,58.37 L40.33,56.79 L40.72,55.25 L41.26,53.78 L41.93,52.38 L42.73,51.06 L43.65,49.83 L44.69,48.70 L45.82,47.66 L47.05,46.74 L48.37,45.94 L49.77,45.27 L51.24,44.73 L52.78,44.34 L54.36,44.09 L56.00,44.01 Z" fill="#5b5fc7" stroke="#1e1e1e" stroke-width="1" stroke-linejoin="round"/></svg>