<svg xmlns="http://www.w3.org/2000/svg" viewBox="11.71 17.20 99.99 100.00"><path d="M13.71,23.31 L13.80,22.49 L14.04,21.71 L14.42,21.01 L14.92,20.41 L15.53,19.90 L16.23,19.52 L17.00,19.28 L17.83,19.20 L20.89,19.20 L22.75,19.36 L24.42,19.80 L25.91,20.48 L27.24,21.36 L28.40,22.39 L29.41,23.53 L30.28,24.74 L31.01,25.96 L31.85,27.65 L32.57,29.41 L33.74,32.94 L34.29,32.91 L102.85,32.91 L103.69,32.96 L104.49,33.11 L105.25,33.35 L105.97,33.66 L106.65,34.06 L107.26,34.52 L107.82,35.05 L108.32,35.64 L108.75,36.28 L109.10,36.96 L109.38,37.68 L109.58,38.44 L109.69,39.22 L109.70,40.02 L109.62,40.83 L109.44,41.65 L99.41,76.81 L99.02,78.00 L98.54,79.14 L97.97,80.23 L97.32,81.26 L96.59,82.22 L95.79,83.12 L94.92,83.95 L93.99,84.71 L93.01,85.40 L91.97,86.00 L90.89,86.52 L89.76,86.96 L88.59,87.30 L87.39,87.55 L86.16,87.71 L84.91,87.76 L52.28,87.76 L51.01,87.71 L49.78,87.55 L48.57,87.30 L47.39,86.95 L46.26,86.51 L45.16,85.98 L44.12,85.36 L43.13,84.67 L42.20,83.90 L41.33,83.06 L40.53,82.14 L39.81,81.16 L39.16,80.12 L38.59,79.02 L38.11,77.87 L37.73,76.67 L33.56,61.46 L26.65,38.16 L26.64,38.12 L25.35,33.66 L24.62,31.68 L23.80,29.92 L22.97,28.64 L22.22,27.88 L21.53,27.52 L20.89,27.43 L17.83,27.43 L17.00,27.34 L16.23,27.11 L15.53,26.73 L14.92,26.22 L14.42,25.61 L14.04,24.92 L13.80,24.14 L13.71,23.31 Z" fill="#0078d4" stroke="#1e1e1e" stroke-width="1" stroke-linejoin="round"/><path d="M49.37,115.20 L50.49,115.14 L51.58,114.98 L52.63,114.71 L53.64,114.34 L54.60,113.88 L55.51,113.33 L56.35,112.69 L57.13,111.99 L57.84,111.21 L58.47,110.36 L59.02,109.46 L59.48,108.50 L59.85,107.49 L60.12,106.44 L60.29,105.35 L60.34,104.23 L60.29,103.11 L60.12,102.02 L59.85,100.97 L59.48,99.96 L59.02,99.00 L58.47,98.09 L57.84,97.25 L57.13,96.47 L56.35,95.76 L55.51,95.13 L54.60,94.58 L53.64,94.12 L52.63,93.75 L51.58,93.48 L50.49,93.31 L49.37,93.26 L48.25,93.31 L47.16,93.48 L46.11,93.75 L45.10,94.12 L44.14,94.58 L43.24,95.13 L42.39,95.76 L41.61,96.47 L40.91,97.25 L40.27,98.09 L39.72,99.00 L39.26,99.96 L38.89,100.97 L38.62,102.02 L38.46,103.11 L38.40,104.23 L38.46,105.35 L38.62,106.44 L38.89,107.49 L39.26,108.50 L39.72,109.46 L40.27,110.36 L40.91,111.21 L41.61,111.99 L42.39,112.69 L43.24,113.33 L44.14,113.88 L45.10,114.34 L46.11,114.71 L47.16,114.98 L48.25,115.14 L49.37,115.20 Z" fill="#0078d4" stroke="#1e1e1e" stroke-width="1" stroke-linejoin="round"/><path d="M87.77,115.20 L88.89,115.14 L89.98,114.98 L91.03,114.71 L92.04,114.34 L93.00,113.88 L93.91,113.33 L94.75,112.69 L95.53,111.99 L96.24,111.21 L96.87,110.36 L97.42,109.46 L97.88,108.50 L98.25,107.49 L98.52,106.44 L98.69,105.35 L98.74,104.23 L98.69,103.11 L98.52,102.02 L98.25,100.97 L97.88,99.96 L97.42,99.00 L96.87,98.09 L96.24,97.25 L95.53,96.47 L94.75,95.76 L93.91,95.13 L93.00,94.58 L92.04,94.12 L91.03,93.75 L89.98,93.48 L88.89,93.31 L87.77,93.26 L86.65,93.31 L85.56,93.48 L84.51,93.75 L83.50,94.12 L82.54,94.58 L81.64,95.13 L80.79,95.76 L80.01,96.47 L79.31,97.25 L78.67,98.09 L78.12,99.00 L77.66,99.96 L77.29,100.97 L77.02,102.02 L76.86,103.11 L76.80,104.23 L76.86,105.35 L77.02,106.44 L77.29,107.49 L77.66,108.50 L78.12,109.46 L78.67,110.36 L79.31,111.21 L80.01,111.99 L80.79,112.69 L81.64,113.33 L82.54,113.88 L83.50,114.34 L84.51,114.71 L85.56,114.98 L86.65,115.14 L87.77,115.20 Z" fill="#0078d4" stroke="#1e1e1e" stroke-width="1" stroke-linejoin="round"/></svg>