<svg xmlns="http://www.w3.org/2000/svg" viewBox="24.67 35.33 190.64 190.67"><path d="M26.67,45.33 L26.83,43.72 L27.30,42.22 L28.03,40.86 L29.01,39.68 L30.19,38.70 L31.55,37.96 L33.05,37.50 L34.67,37.33 L40.62,37.33 L44.24,37.64 L47.49,38.50 L50.39,39.82 L52.96,41.53 L55.22,43.54 L57.19,45.76 L58.87,48.10 L60.30,50.49 L61.92,53.76 L63.33,57.18 L65.60,64.04 L66.68,64.00 L199.98,64.00 L201.61,64.10 L203.17,64.38 L204.66,64.84 L206.06,65.46 L207.37,66.23 L208.57,67.13 L209.66,68.16 L210.62,69.30 L211.46,70.54 L212.15,71.87 L212.69,73.28 L213.07,74.74 L213.28,76.26 L213.31,77.81 L213.16,79.40 L212.80,80.99 L193.31,149.35 L192.54,151.67 L191.60,153.89 L190.49,156.00 L189.23,158.00 L187.81,159.87 L186.26,161.63 L184.57,163.25 L182.77,164.72 L180.85,166.05 L178.83,167.23 L176.72,168.24 L174.53,169.09 L172.26,169.76 L169.92,170.24 L167.53,170.54 L165.10,170.64 L101.65,170.64 L99.19,170.54 L96.79,170.24 L94.43,169.74 L92.15,169.06 L89.94,168.21 L87.82,167.18 L85.79,165.98 L83.86,164.64 L82.05,163.14 L80.37,161.50 L78.81,159.72 L77.40,157.82 L76.14,155.79 L75.04,153.66 L74.11,151.41 L73.36,149.07 L65.25,119.52 L51.83,74.20 L51.80,74.12 L49.28,65.46 L47.88,61.60 L46.27,58.17 L44.66,55.68 L43.20,54.21 L41.86,53.51 L40.62,53.33 L34.67,53.33 L33.05,53.17 L31.55,52.70 L30.19,51.97 L29.01,50.99 L28.03,49.81 L27.30,48.45 L26.83,46.95 L26.67,45.33 Z" fill="#0078d4" stroke="#1e1e1e" stroke-width="1" stroke-linejoin="round"/><path d="M96.00,224.00 L98.18,223.89 L100.30,223.57 L102.34,223.04 L104.30,222.32 L106.17,221.43 L107.93,220.36 L109.57,219.13 L111.08,217.75 L112.46,216.24 L113.69,214.59 L114.76,212.84 L115.66,210.97 L116.37,209.01 L116.90,206.97 L117.22,204.85 L117.33,202.67 L117.22,200.49 L116.90,198.37 L116.37,196.32 L115.66,194.36 L114.76,192.50 L113.69,190.74 L112.46,189.10 L111.08,187.58 L109.57,186.20 L107.93,184.98 L106.17,183.91 L104.30,183.01 L102.34,182.29 L100.30,181.77 L98.18,181.44 L96.00,181.33 L93.82,181.44 L91.70,181.77 L89.66,182.29 L87.70,183.01 L85.83,183.91 L84.07,184.98 L82.43,186.20 L80.92,187.58 L79.54,189.10 L78.31,190.74 L77.24,192.50 L76.34,194.36 L75.63,196.32 L75.10,198.37 L74.78,200.49 L74.67,202.67 L74.78,204.85 L75.10,206.97 L75.63,209.01 L76.34,210.97 L77.24,212.84 L78.31,214.59 L79.54,216.24 L80.92,217.75 L82.43,219.13 L84.07,220.36 L85.83,221.43 L87.70,222.32 L89.66,223.04 L91.70,223.57 L93.82,223.89 L96.00,224.00 Z" fill="#0078d4" stroke="#1e1e1e" stroke-width="1" stroke-linejoin="round"/><path d="M170.67,224.00 L172.85,223.89 L174.97,223.57 L177.01,223.04 L178.97,222.32 L180.84,221.43 L182.59,220.36 L184.24,219.13 L185.75,217.75 L187.13,216.24 L188.36,214.59 L189.43,212.84 L190.32,210.97 L191.04,209.01 L191.57,206.97 L191.89,204.85 L192.00,202.67 L191.89,200.49 L191.57,198.37 L191.04,196.32 L190.32,194.36 L189.43,192.50 L188.36,190.74 L187.13,189.10 L185.75,187.58 L184.24,186.20 L182.59,184.98 L180.84,183.91 L178.97,183.01 L177.01,182.29 L174.97,181.77 L172.85,181.44 L170.67,181.33 L168.49,181.44 L166.37,181.77 L164.32,182.29 L162.36,183.01 L160.50,183.91 L158.74,184.98 L157.10,186.20 L155.58,187.58 L154.20,189.10 L152.98,190.74 L151.91,192.50 L151.01,194.36 L150.29,196.32 L149.77,198.37 L149.44,200.49 L149.33,202.67 L149.44,204.85 L149.77,206.97 L150.29,209.01 L151.01,210.97 L151.91,212.84 L152.98,214.59 L154.20,216.24 L155.58,217.75 L157.10,219.13 L158.74,220.36 L160.50,221.43 L162.36,222.32 L164.32,223.04 L166.37,223.57 L168.49,223.89 L170.67,224.00 Z" fill="#0078d4" stroke="#1e1e1e" stroke-width="1" stroke-linejoin="round"/></svg>