<svg xmlns="http://www.w3.org/2000/svg" viewBox="7.59 12.40 100.00 95.19"><path d="M22.80,14.40 L21.45,14.47 L20.14,14.67 L18.87,14.99 L17.66,15.44 L16.51,15.99 L15.42,16.65 L14.40,17.41 L13.47,18.27 L12.61,19.20 L11.85,20.22 L11.19,21.31 L10.64,22.46 L10.19,23.67 L9.87,24.94 L9.67,26.25 L9.60,27.60 L9.60,52.80 L10.45,51.73 L11.36,50.71 L12.32,49.75 L13.34,48.84 L14.41,47.99 L15.53,47.20 L16.69,46.47 L17.90,45.81 L19.14,45.22 L20.43,44.70 L21.75,44.25 L23.10,43.88 L24.49,43.58 L25.90,43.37 L27.34,43.24 L28.80,43.20 L31.25,43.32 L33.64,43.69 L35.94,44.28 L38.14,45.08 L40.24,46.09 L42.22,47.30 L44.06,48.68 L45.77,50.23 L47.32,51.93 L48.70,53.78 L49.90,55.76 L50.91,57.86 L51.72,60.06 L52.31,62.36 L52.67,64.74 L52.80,67.20 L52.71,69.20 L52.47,71.16 L52.07,73.07 L51.53,74.92 L50.84,76.70 L50.02,78.42 L49.07,80.05 L48.00,81.60 L48.00,86.40 L92.40,86.40 L93.75,86.33 L95.06,86.13 L96.32,85.80 L97.53,85.36 L98.69,84.80 L99.78,84.14 L100.79,83.38 L101.73,82.53 L102.58,81.59 L103.34,80.58 L104.00,79.49 L104.56,78.33 L105.00,77.12 L105.33,75.86 L105.53,74.55 L105.59,73.20 L105.59,27.60 L105.53,26.25 L105.33,24.94 L105.00,23.67 L104.56,22.46 L104.00,21.31 L103.34,20.22 L102.58,19.20 L101.73,18.27 L100.79,17.41 L99.78,16.65 L98.69,15.99 L97.53,15.44 L96.32,14.99 L95.06,14.67 L93.75,14.47 L92.40,14.40 L22.80,14.40 Z" fill="#0078d4" stroke="#0078d4" stroke-width="1" stroke-linejoin="round"/><path d="M32.40,33.60 L82.80,33.60 L83.52,33.67 L84.20,33.88 L84.81,34.21 L85.34,34.65 L85.78,35.19 L86.11,35.80 L86.32,36.47 L86.40,37.20 L86.32,37.92 L86.11,38.60 L85.78,39.21 L85.34,39.74 L84.81,40.18 L84.20,40.52 L83.52,40.72 L82.80,40.80 L32.40,40.80 L31.67,40.72 L31.00,40.52 L30.39,40.18 L29.85,39.74 L29.41,39.21 L29.08,38.60 L28.87,37.92 L28.80,37.20 L28.87,36.47 L29.08,35.80 L29.41,35.19 L29.85,34.65 L30.39,34.21 L31.00,33.88 L31.67,33.67 L32.40,33.60 Z" fill="#ffffff" stroke="#ffffff" stroke-width="1" stroke-linejoin="round"/><path d="M57.60,61.20 L57.67,60.47 L57.88,59.80 L58.21,59.18 L58.65,58.65 L59.18,58.21 L59.80,57.88 L60.47,57.67 L61.20,57.60 L82.80,57.60 L83.52,57.67 L84.20,57.88 L84.81,58.21 L85.34,58.65 L85.78,59.18 L86.11,59.80 L86.32,60.47 L86.40,61.20 L86.32,61.92 L86.11,62.60 L85.78,63.21 L85.34,63.74 L84.81,64.18 L84.20,64.51 L83.52,64.72 L82.80,64.80 L61.20,64.80 L60.47,64.72 L59.80,64.51 L59.18,64.18 L58.65,63.74 L58.21,63.21 L57.88,62.60 L57.67,61.92 L57.60,61.20 Z" fill="#ffffff" stroke="#ffffff" stroke-width="1" stroke-linejoin="round"/><path d="M28.80,48.00 L26.83,48.10 L24.93,48.39 L23.09,48.86 L21.32,49.51 L19.64,50.32 L18.06,51.28 L16.58,52.38 L15.22,53.62 L13.98,54.99 L12.87,56.46 L11.91,58.05 L11.10,59.73 L10.46,61.49 L9.98,63.33 L9.69,65.24 L9.59,67.20 L9.69,69.16 L9.98,71.07 L10.46,72.91 L11.10,74.67 L11.91,76.35 L12.87,77.94 L13.98,79.41 L15.22,80.78 L16.58,82.02 L18.06,83.12 L19.64,84.08 L21.32,84.89 L23.09,85.54 L24.93,86.01 L26.83,86.30 L28.80,86.40 L30.76,86.30 L32.67,86.01 L34.51,85.54 L36.27,84.89 L37.95,84.08 L39.53,83.12 L41.01,82.02 L42.37,80.78 L43.61,79.41 L44.72,77.94 L45.68,76.35 L46.49,74.67 L47.14,72.91 L47.61,71.07 L47.90,69.16 L48.00,67.20 L47.90,65.24 L47.61,63.33 L47.14,61.49 L46.49,59.73 L45.68,58.05 L44.72,56.46 L43.61,54.99 L42.37,53.62 L41.01,52.38 L39.53,51.28 L37.95,50.32 L36.27,49.51 L34.51,48.86 L32.67,48.39 L30.76,48.10 L28.80,48.00 Z" fill="#8dc8e8" stroke="#1e1e1e" stroke-width="1" stroke-linejoin="round"/><path d="M43.20,86.40 L41.65,87.47 L40.02,88.42 L38.31,89.24 L36.52,89.93 L34.67,90.48 L32.76,90.88 L30.80,91.12 L28.80,91.20 L26.79,91.12 L24.83,90.88 L22.93,90.48 L21.08,89.93 L19.30,89.25 L17.58,88.43 L15.95,87.48 L14.40,86.41 L14.40,101.99 L14.53,102.96 L14.89,103.82 L15.44,104.53 L16.14,105.07 L16.95,105.43 L17.83,105.59 L18.74,105.52 L19.63,105.20 L20.06,104.94 L28.80,98.83 L37.53,104.94 L38.40,105.39 L39.31,105.58 L40.21,105.54 L41.06,105.28 L41.82,104.82 L42.45,104.19 L42.91,103.41 L43.16,102.49 L43.19,101.99 L43.20,86.40 Z" fill="#0078d4" stroke="#1e1e1e" stroke-width="1" stroke-linejoin="round"/></svg>