<svg xmlns="http://www.w3.org/2000/svg" viewBox="19.33 19.36 228.00 227.97"><path d="M210.29,125.33 L208.61,127.22 L207.11,129.25 L205.81,131.43 L204.71,133.74 L203.84,136.17 L203.19,138.69 L202.80,141.31 L202.67,144.00 L202.67,154.66 L200.95,153.47 L199.13,152.42 L197.23,151.50 L195.25,150.74 L193.19,150.13 L191.07,149.69 L188.89,149.42 L186.67,149.33 L183.94,149.47 L181.29,149.87 L178.74,150.53 L176.29,151.43 L173.96,152.55 L171.76,153.88 L169.70,155.42 L167.81,157.14 L166.09,159.03 L164.55,161.09 L163.22,163.29 L162.10,165.62 L161.20,168.07 L160.54,170.62 L160.14,173.27 L160.00,176.00 L160.00,186.66 L158.28,185.47 L156.46,184.42 L154.56,183.50 L152.58,182.74 L150.53,182.13 L148.41,181.69 L146.23,181.42 L144.00,181.33 L141.27,181.47 L138.63,181.87 L136.07,182.53 L133.62,183.43 L131.29,184.55 L129.09,185.88 L127.04,187.42 L125.14,189.14 L123.42,191.03 L121.89,193.09 L120.55,195.29 L119.43,197.62 L118.53,200.07 L117.88,202.62 L117.47,205.27 L117.33,208.00 L117.33,223.86 L112.35,223.48 L107.44,222.86 L102.61,222.01 L97.85,220.94 L93.19,219.64 L88.61,218.13 L84.14,216.42 L79.77,214.50 L75.51,212.38 L71.37,210.07 L67.35,207.58 L63.45,204.91 L59.69,202.06 L56.07,199.05 L52.60,195.87 L49.28,192.54 L46.11,189.05 L43.10,185.43 L40.27,181.66 L37.61,177.76 L35.12,173.73 L32.83,169.58 L30.72,165.32 L28.81,160.94 L27.11,156.46 L25.61,151.88 L24.33,147.21 L23.26,142.45 L22.43,137.61 L21.82,132.70 L21.46,127.71 L21.33,122.66 L21.46,117.53 L21.84,112.47 L22.46,107.47 L23.33,102.56 L24.42,97.73 L25.75,92.99 L27.29,88.34 L29.05,83.80 L31.02,79.37 L33.19,75.05 L35.56,70.85 L38.12,66.78 L40.86,62.85 L43.79,59.05 L46.88,55.39 L50.14,51.89 L53.56,48.55 L57.14,45.37 L60.86,42.35 L64.73,39.52 L68.73,36.86 L72.86,34.39 L77.12,32.12 L81.49,30.04 L85.98,28.18 L90.57,26.52 L95.26,25.08 L100.05,23.86 L104.92,22.88 L109.87,22.13 L114.90,21.62 L120.00,21.36 L120.00,106.66 L120.10,108.57 L120.38,110.43 L120.84,112.21 L121.47,113.93 L122.25,115.56 L123.19,117.10 L124.26,118.54 L125.47,119.86 L126.79,121.07 L128.23,122.14 L129.77,123.08 L131.40,123.86 L133.12,124.49 L134.90,124.95 L136.76,125.23 L138.67,125.33 L210.29,125.33 Z" fill="#0078d4" stroke="#1e1e1e" stroke-width="1" stroke-linejoin="round"/><path d="M136.00,106.66 L136.00,22.20 L140.22,22.84 L144.38,23.66 L148.48,24.65 L152.51,25.79 L156.47,27.10 L160.35,28.57 L164.16,30.19 L167.89,31.96 L171.53,33.87 L175.08,35.92 L178.54,38.11 L181.91,40.44 L185.17,42.90 L188.33,45.48 L191.38,48.19 L194.32,51.01 L197.14,53.95 L199.85,57.00 L202.43,60.16 L204.89,63.42 L207.22,66.79 L209.41,70.25 L211.46,73.80 L213.37,77.44 L215.14,81.17 L216.76,84.98 L218.23,88.86 L219.54,92.82 L220.68,96.85 L221.67,100.95 L222.49,105.11 L223.13,109.33 L138.67,109.33 L137.63,109.12 L136.78,108.55 L136.21,107.70 L136.00,106.66 Z" fill="#0078d4" stroke="#1e1e1e" stroke-width="1" stroke-linejoin="round"/><path d="M229.33,128.00 L227.70,128.08 L226.11,128.33 L223.11,129.26 L220.39,130.73 L218.02,132.69 L216.07,135.05 L214.59,137.77 L213.66,140.78 L213.42,142.36 L213.33,144.00 L213.33,229.33 L213.42,230.97 L213.66,232.56 L214.59,235.56 L216.07,238.28 L218.02,240.65 L220.39,242.60 L223.11,244.08 L226.11,245.01 L227.70,245.25 L229.33,245.33 L230.97,245.25 L232.56,245.01 L235.56,244.08 L238.28,242.60 L240.65,240.65 L242.60,238.28 L244.08,235.56 L245.01,232.56 L245.25,230.97 L245.33,229.33 L245.33,144.00 L245.25,142.36 L245.01,140.78 L244.08,137.77 L242.60,135.05 L240.65,132.69 L238.28,130.73 L235.56,129.26 L232.56,128.33 L230.97,128.08 L229.33,128.00 Z" fill="#8dc8e8" stroke="#1e1e1e" stroke-width="1" stroke-linejoin="round"/><path d="M170.67,176.00 L170.75,174.36 L170.99,172.78 L171.92,169.77 L173.40,167.05 L175.35,164.69 L177.72,162.73 L180.44,161.26 L183.44,160.33 L185.03,160.08 L186.67,160.00 L188.30,160.08 L189.89,160.33 L192.89,161.26 L195.61,162.73 L197.98,164.69 L199.93,167.05 L201.41,169.77 L202.34,172.78 L202.58,174.36 L202.67,176.00 L202.67,229.33 L202.58,230.97 L202.34,232.56 L201.41,235.56 L199.93,238.28 L197.98,240.65 L195.61,242.60 L192.89,244.08 L189.89,245.01 L188.30,245.25 L186.67,245.33 L185.03,245.25 L183.44,245.01 L180.44,244.08 L177.72,242.60 L175.35,240.65 L173.40,238.28 L171.92,235.56 L170.99,232.56 L170.75,230.97 L170.67,229.33 L170.67,176.00 Z" fill="#8dc8e8" stroke="#1e1e1e" stroke-width="1" stroke-linejoin="round"/><path d="M144.00,192.00 L142.36,192.08 L140.78,192.33 L137.77,193.26 L135.05,194.73 L132.69,196.69 L130.73,199.05 L129.26,201.77 L128.33,204.78 L128.08,206.36 L128.00,208.00 L128.00,229.33 L128.08,230.97 L128.33,232.56 L129.26,235.56 L130.73,238.28 L132.69,240.65 L135.05,242.60 L137.77,244.08 L140.78,245.01 L142.36,245.25 L144.00,245.33 L145.64,245.25 L147.22,245.01 L150.23,244.08 L152.95,242.60 L155.31,240.65 L157.27,238.28 L158.74,235.56 L159.67,232.56 L159.92,230.97 L160.00,229.33 L160.00,208.00 L159.92,206.36 L159.67,204.78 L158.74,201.77 L157.27,199.05 L155.31,196.69 L152.95,194.73 L150.23,193.26 L147.22,192.33 L145.64,192.08 L144.00,192.00 Z" fill="#8dc8e8" stroke="#1e1e1e" stroke-width="1" stroke-linejoin="round"/></svg>