<svg xmlns="http://www.w3.org/2000/svg" viewBox="4.86 8.29 100.00 93.14"><path d="M6.86,46.29 L6.90,44.43 L7.04,42.61 L7.27,40.80 L7.59,39.03 L7.99,37.29 L8.48,35.58 L9.04,33.91 L9.69,32.27 L10.41,30.68 L11.20,29.13 L12.07,27.62 L13.01,26.16 L14.01,24.75 L15.08,23.39 L16.21,22.08 L17.40,20.83 L18.65,19.64 L19.96,18.51 L21.32,17.44 L22.73,16.43 L24.19,15.50 L25.70,14.63 L27.25,13.84 L28.84,13.11 L30.48,12.47 L32.15,11.90 L33.86,11.42 L35.60,11.02 L37.38,10.70 L39.18,10.47 L41.00,10.33 L42.86,10.29 L44.71,10.33 L46.54,10.47 L48.34,10.70 L50.11,11.02 L51.85,11.42 L53.56,11.90 L55.24,12.47 L56.87,13.11 L58.47,13.84 L60.02,14.63 L61.52,15.50 L62.99,16.43 L64.40,17.44 L65.76,18.51 L67.06,19.64 L68.31,20.83 L69.51,22.08 L70.64,23.39 L71.71,24.75 L72.71,26.16 L73.65,27.62 L74.51,29.13 L75.31,30.68 L76.03,32.27 L76.67,33.91 L77.24,35.58 L77.72,37.29 L78.13,39.03 L78.44,40.80 L78.67,42.61 L78.81,44.43 L78.86,46.29 L78.81,48.14 L78.67,49.97 L78.44,51.77 L78.13,53.54 L77.72,55.28 L77.24,56.99 L76.67,58.66 L76.03,60.30 L75.31,61.89 L74.51,63.45 L73.65,64.95 L72.71,66.41 L71.71,67.83 L70.64,69.19 L69.51,70.49 L68.31,71.74 L67.06,72.93 L65.76,74.07 L64.40,75.13 L62.99,76.14 L61.52,77.07 L60.02,77.94 L58.47,78.74 L56.87,79.46 L55.24,80.10 L53.56,80.67 L51.85,81.15 L50.11,81.55 L48.34,81.87 L46.54,82.10 L44.71,82.24 L42.86,82.29 L40.70,82.22 L38.59,82.03 L36.50,81.73 L34.46,81.30 L32.46,80.76 L30.51,80.11 L28.61,79.35 L26.76,78.49 L13.34,82.09 L12.62,82.23 L11.93,82.27 L11.25,82.22 L10.60,82.08 L9.97,81.85 L9.39,81.56 L8.86,81.19 L8.37,80.76 L7.94,80.27 L7.57,79.74 L7.27,79.15 L7.05,78.53 L6.91,77.88 L6.86,77.20 L6.90,76.50 L7.04,75.79 L10.64,62.36 L9.85,60.68 L9.15,58.95 L8.63,57.46 L8.17,55.93 L7.77,54.39 L7.45,52.81 L7.19,51.21 L7.01,49.59 L6.90,47.95 L6.86,46.29 Z" fill="#5b5fc7" stroke="#1e1e1e" stroke-width="1" stroke-linejoin="round"/><path d="M42.86,87.43 L44.56,87.39 L46.25,87.29 L49.56,86.89 L51.43,88.16 L53.39,89.28 L55.45,90.26 L57.59,91.07 L59.81,91.72 L62.10,92.19 L64.45,92.47 L66.86,92.57 L68.75,92.51 L70.62,92.33 L72.44,92.04 L74.23,91.63 L75.97,91.12 L77.66,90.50 L79.31,89.79 L80.89,88.98 L81.50,88.71 L82.14,88.58 L82.79,88.56 L83.44,88.67 L95.28,91.84 L92.11,79.98 L92.00,79.34 L92.02,78.69 L92.16,78.05 L92.41,77.45 L93.22,75.86 L93.94,74.22 L94.55,72.53 L95.06,70.79 L95.47,69.00 L95.76,67.18 L95.94,65.32 L96.00,63.43 L95.94,61.58 L95.77,59.76 L95.49,57.98 L95.10,56.23 L94.62,54.53 L94.03,52.87 L93.34,51.25 L92.57,49.69 L91.70,48.18 L90.75,46.74 L89.71,45.35 L88.60,44.03 L87.41,42.77 L86.16,41.59 L84.83,40.49 L83.44,39.46 L82.96,37.06 L82.35,34.72 L81.61,32.43 L80.74,30.20 L83.13,31.31 L85.42,32.58 L87.60,34.00 L89.67,35.58 L91.62,37.30 L93.45,39.16 L95.13,41.14 L96.67,43.24 L98.06,45.46 L99.28,47.77 L100.34,50.19 L101.23,52.69 L101.93,55.27 L102.44,57.93 L102.75,60.65 L102.86,63.43 L102.82,65.09 L102.71,66.73 L102.52,68.35 L102.27,69.95 L101.94,71.53 L101.55,73.08 L101.09,74.60 L100.57,76.09 L99.86,77.82 L99.08,79.50 L102.68,92.94 L102.82,93.65 L102.86,94.35 L102.80,95.02 L102.66,95.68 L102.44,96.30 L102.14,96.88 L101.78,97.42 L101.35,97.90 L100.86,98.33 L100.32,98.70 L99.74,99.00 L99.12,99.22 L98.47,99.36 L97.79,99.41 L97.09,99.37 L96.38,99.23 L82.96,95.64 L81.11,96.50 L79.21,97.25 L77.26,97.90 L75.26,98.44 L73.21,98.87 L71.13,99.18 L69.01,99.37 L66.86,99.43 L64.86,99.38 L62.90,99.21 L60.96,98.95 L59.06,98.58 L57.19,98.12 L55.37,97.56 L53.59,96.90 L51.85,96.16 L50.16,95.33 L48.53,94.42 L46.94,93.42 L45.42,92.35 L43.95,91.20 L42.54,89.98 L41.20,88.69 L39.93,87.33 L42.86,87.43 Z" fill="#aab1fa" stroke="#1e1e1e" stroke-width="1" stroke-linejoin="round"/></svg>