<svg xmlns="http://www.w3.org/2000/svg" viewBox="19.33 19.33 217.33 217.33"><path d="M21.33,128.00 L21.47,122.51 L21.88,117.09 L22.56,111.76 L23.50,106.50 L24.69,101.34 L26.13,96.28 L27.81,91.32 L29.72,86.48 L31.85,81.76 L34.21,77.16 L36.78,72.69 L39.55,68.36 L42.52,64.18 L45.69,60.15 L49.04,56.28 L52.58,52.58 L56.28,49.04 L60.15,45.69 L64.18,42.52 L68.36,39.55 L72.69,36.78 L77.16,34.21 L81.76,31.85 L86.48,29.72 L91.32,27.81 L96.28,26.13 L101.34,24.69 L106.50,23.50 L111.76,22.56 L117.09,21.88 L122.51,21.47 L128.00,21.33 L133.49,21.47 L138.91,21.88 L144.24,22.56 L149.50,23.50 L154.66,24.69 L159.72,26.13 L164.68,27.81 L169.52,29.72 L174.24,31.85 L178.84,34.21 L183.31,36.78 L187.64,39.55 L191.82,42.52 L195.85,45.69 L199.72,49.04 L203.42,52.58 L206.96,56.28 L210.31,60.15 L213.48,64.18 L216.45,68.36 L219.22,72.69 L221.79,77.16 L224.15,81.76 L226.28,86.48 L228.19,91.32 L229.87,96.28 L231.31,101.34 L232.50,106.50 L233.44,111.76 L234.12,117.09 L234.53,122.51 L234.67,128.00 L234.53,133.49 L234.12,138.91 L233.44,144.24 L232.50,149.50 L231.31,154.66 L229.87,159.72 L228.19,164.68 L226.28,169.52 L224.15,174.24 L221.79,178.84 L219.22,183.31 L216.45,187.64 L213.48,191.82 L210.31,195.85 L206.96,199.72 L203.42,203.42 L199.72,206.96 L195.85,210.31 L191.82,213.48 L187.64,216.45 L183.31,219.22 L178.84,221.79 L174.24,224.15 L169.52,226.28 L164.68,228.19 L159.72,229.87 L154.66,231.31 L149.50,232.50 L144.24,233.44 L138.91,234.12 L133.49,234.53 L128.00,234.67 L121.15,234.45 L114.42,233.81 L107.81,232.76 L101.35,231.31 L95.04,229.47 L88.89,227.27 L82.93,224.70 L77.15,221.79 L33.23,234.28 L31.92,234.56 L30.63,234.65 L29.38,234.56 L28.18,234.31 L25.97,233.37 L24.08,231.90 L22.62,230.02 L21.67,227.80 L21.42,226.60 L21.33,225.35 L21.42,224.06 L21.70,222.75 L34.19,178.82 L31.29,173.05 L28.72,167.09 L26.52,160.94 L24.69,154.64 L23.24,148.17 L22.19,141.57 L21.55,134.84 L21.33,128.00 Z" fill="#5b5fc7" stroke="#1e1e1e" stroke-width="1" stroke-linejoin="round"/><path d="M85.33,108.00 L85.47,109.34 L85.86,110.60 L86.47,111.73 L87.29,112.71 L88.27,113.53 L89.40,114.14 L90.66,114.53 L92.00,114.67 L164.00,114.67 L165.34,114.53 L166.60,114.14 L167.73,113.53 L168.71,112.71 L169.53,111.73 L170.14,110.60 L170.53,109.34 L170.67,108.00 L170.53,106.66 L170.14,105.40 L169.53,104.27 L168.71,103.29 L167.73,102.47 L166.60,101.86 L165.34,101.47 L164.00,101.33 L92.00,101.33 L90.66,101.47 L89.40,101.86 L88.27,102.47 L87.29,103.29 L86.47,104.27 L85.86,105.40 L85.47,106.66 L85.33,108.00 Z" fill="#ffffff" stroke="#1e1e1e" stroke-width="1" stroke-linejoin="round"/><path d="M92.00,141.33 L90.66,141.47 L89.40,141.86 L88.27,142.47 L87.29,143.29 L86.47,144.27 L85.86,145.40 L85.47,146.66 L85.33,148.00 L85.47,149.34 L85.86,150.60 L86.47,151.73 L87.29,152.71 L88.27,153.53 L89.40,154.14 L90.66,154.53 L92.00,154.67 L142.67,154.67 L144.01,154.53 L145.26,154.14 L146.39,153.53 L147.38,152.71 L148.19,151.73 L148.81,150.60 L149.20,149.34 L149.33,148.00 L149.20,146.66 L148.81,145.40 L148.19,144.27 L147.38,143.29 L146.39,142.47 L145.26,141.86 L144.01,141.47 L142.67,141.33 L92.00,141.33 Z" fill="#ffffff" stroke="#1e1e1e" stroke-width="1" stroke-linejoin="round"/></svg>