<svg xmlns="http://www.w3.org/2000/svg" viewBox="14.00 22.00 228.00 212.00"><path d="M16.00,108.00 L16.11,103.68 L16.43,99.41 L16.97,95.21 L17.71,91.07 L18.64,87.01 L19.78,83.02 L21.10,79.12 L22.60,75.30 L24.28,71.58 L26.14,67.96 L28.16,64.44 L30.35,61.03 L32.69,57.74 L35.18,54.57 L37.82,51.52 L40.60,48.60 L43.52,45.82 L46.57,43.18 L49.74,40.69 L53.04,38.35 L56.44,36.16 L59.96,34.14 L63.58,32.28 L67.30,30.60 L71.12,29.10 L75.02,27.78 L79.01,26.64 L83.07,25.71 L87.21,24.97 L91.41,24.43 L95.68,24.11 L100.00,24.00 L104.32,24.11 L108.59,24.43 L112.79,24.97 L116.93,25.71 L120.99,26.64 L124.98,27.78 L128.88,29.10 L132.70,30.60 L136.42,32.28 L140.04,34.14 L143.56,36.16 L146.97,38.35 L150.26,40.69 L153.43,43.18 L156.48,45.82 L159.40,48.60 L162.18,51.52 L164.82,54.57 L167.31,57.74 L169.65,61.03 L171.84,64.44 L173.86,67.96 L175.72,71.58 L177.40,75.30 L178.90,79.12 L180.22,83.02 L181.36,87.01 L182.29,91.07 L183.03,95.21 L183.57,99.41 L183.89,103.68 L184.00,108.00 L183.89,112.32 L183.57,116.59 L183.03,120.79 L182.29,124.93 L181.36,128.99 L180.22,132.98 L178.90,136.88 L177.40,140.70 L175.72,144.42 L173.86,148.04 L171.84,151.56 L169.65,154.97 L167.31,158.26 L164.82,161.43 L162.18,164.48 L159.40,167.40 L156.48,170.18 L153.43,172.82 L150.26,175.31 L146.97,177.65 L143.56,179.84 L140.04,181.86 L136.42,183.72 L132.70,185.40 L128.88,186.90 L124.98,188.22 L120.99,189.36 L116.93,190.29 L112.79,191.03 L108.59,191.57 L104.32,191.89 L100.00,192.00 L94.98,191.85 L90.03,191.41 L85.17,190.69 L80.40,189.70 L75.74,188.44 L71.18,186.92 L66.75,185.16 L62.44,183.15 L31.12,191.54 L29.46,191.87 L27.83,191.96 L26.24,191.84 L24.72,191.51 L23.27,190.99 L21.92,190.30 L20.66,189.44 L19.53,188.44 L18.52,187.30 L17.67,186.05 L16.97,184.69 L16.45,183.24 L16.13,181.72 L16.00,180.14 L16.09,178.51 L16.42,176.85 L24.82,145.51 L22.98,141.58 L21.35,137.55 L20.13,134.07 L19.05,130.51 L18.14,126.90 L17.38,123.22 L16.78,119.49 L16.35,115.71 L16.09,111.88 L16.00,108.00 Z" fill="#5b5fc7" stroke="#1e1e1e" stroke-width="1" stroke-linejoin="round"/><path d="M100.00,204.00 L103.97,203.92 L107.91,203.68 L115.64,202.73 L119.99,205.70 L124.58,208.32 L129.39,210.60 L134.39,212.49 L139.56,214.00 L144.91,215.10 L150.39,215.77 L156.00,216.00 L160.42,215.86 L164.77,215.44 L169.03,214.76 L173.20,213.81 L177.26,212.61 L181.21,211.18 L185.05,209.50 L188.75,207.61 L190.16,207.00 L191.65,206.67 L193.17,206.64 L194.68,206.89 L222.33,214.30 L214.92,186.63 L214.66,185.12 L214.70,183.60 L215.03,182.12 L215.63,180.71 L217.52,177.00 L219.19,173.18 L220.62,169.23 L221.82,165.17 L222.76,161.01 L223.44,156.76 L223.86,152.42 L224.00,148.00 L223.86,143.69 L223.47,139.45 L222.81,135.28 L221.91,131.21 L220.77,127.23 L219.39,123.35 L217.80,119.59 L215.98,115.94 L213.96,112.43 L211.74,109.05 L209.33,105.81 L206.74,102.73 L203.97,99.80 L201.03,97.05 L197.93,94.47 L194.68,92.07 L193.58,86.48 L192.15,81.01 L190.42,75.67 L188.39,70.47 L193.96,73.05 L199.31,76.01 L204.41,79.34 L209.24,83.03 L213.79,87.04 L218.04,91.37 L221.97,95.99 L225.56,100.90 L228.80,106.06 L231.66,111.47 L234.13,117.10 L236.20,122.94 L237.83,128.97 L239.03,135.17 L239.75,141.52 L240.00,148.00 L239.91,151.88 L239.65,155.71 L239.22,159.49 L238.62,163.22 L237.86,166.90 L236.95,170.52 L235.87,174.07 L234.65,177.55 L233.02,181.58 L231.18,185.51 L239.58,216.85 L239.91,218.51 L240.00,220.14 L239.87,221.72 L239.55,223.24 L239.03,224.69 L238.33,226.05 L237.48,227.30 L236.47,228.44 L235.34,229.44 L234.08,230.30 L232.73,230.99 L231.28,231.51 L229.76,231.84 L228.17,231.97 L226.54,231.87 L224.88,231.55 L193.56,223.15 L189.25,225.16 L184.82,226.92 L180.26,228.44 L175.60,229.70 L170.83,230.69 L165.97,231.41 L161.02,231.85 L156.00,232.00 L151.34,231.87 L146.76,231.50 L142.24,230.88 L137.80,230.02 L133.45,228.94 L129.20,227.63 L125.04,226.11 L120.99,224.38 L117.05,222.44 L113.23,220.31 L109.53,217.99 L105.97,215.48 L102.55,212.80 L99.27,209.95 L96.14,206.93 L93.18,203.76 L100.00,204.00 Z" fill="#aab1fa" stroke="#1e1e1e" stroke-width="1" stroke-linejoin="round"/></svg>