<svg xmlns="http://www.w3.org/2000/svg" viewBox="40.67 19.33 174.67 217.33"><path d="M146.67,21.33 L109.33,21.33 L107.04,21.44 L104.82,21.76 L102.66,22.27 L100.58,22.98 L98.60,23.86 L96.71,24.92 L94.93,26.13 L93.27,27.50 L91.74,29.00 L90.36,30.64 L89.11,32.40 L88.03,34.27 L87.12,36.24 L86.38,38.30 L85.83,40.44 L85.48,42.66 L66.67,42.67 L64.21,42.79 L61.83,43.15 L59.53,43.75 L57.32,44.55 L55.23,45.56 L53.25,46.77 L51.40,48.15 L49.70,49.70 L48.15,51.40 L46.77,53.25 L45.56,55.23 L44.55,57.32 L43.75,59.53 L43.15,61.83 L42.79,64.21 L42.67,66.67 L42.67,210.67 L42.79,213.12 L43.15,215.50 L43.75,217.80 L44.55,220.01 L45.56,222.11 L46.77,224.09 L48.15,225.93 L49.70,227.64 L51.40,229.19 L53.25,230.57 L55.23,231.77 L57.32,232.78 L59.53,233.59 L61.83,234.18 L64.21,234.54 L66.67,234.67 L189.33,234.67 L191.79,234.54 L194.17,234.18 L196.47,233.59 L198.68,232.78 L200.77,231.77 L202.75,230.57 L204.60,229.19 L206.30,227.64 L207.85,225.93 L209.23,224.09 L210.44,222.11 L211.45,220.01 L212.25,217.80 L212.85,215.50 L213.21,213.12 L213.33,210.67 L213.33,66.67 L213.21,64.21 L212.85,61.83 L212.25,59.53 L211.45,57.32 L210.44,55.23 L209.23,53.25 L207.85,51.40 L206.30,49.70 L204.60,48.15 L202.75,46.77 L200.77,45.56 L198.68,44.55 L196.47,43.75 L194.17,43.15 L191.79,42.79 L189.33,42.67 L170.52,42.66 L170.17,40.44 L169.62,38.30 L168.88,36.24 L167.97,34.27 L166.89,32.40 L165.64,30.64 L164.26,29.00 L162.73,27.50 L161.07,26.13 L159.29,24.92 L157.40,23.86 L155.42,22.98 L153.34,22.27 L151.18,21.76 L148.96,21.44 L146.67,21.33 Z" fill="#107c41" stroke="#1e1e1e" stroke-width="1" stroke-linejoin="round"/><path d="M109.33,37.33 L146.67,37.33 L148.28,37.50 L149.78,37.96 L151.14,38.70 L152.32,39.68 L153.30,40.86 L154.04,42.22 L154.50,43.72 L154.67,45.33 L154.50,46.95 L154.04,48.45 L153.30,49.81 L152.32,50.99 L151.14,51.97 L149.78,52.70 L148.28,53.17 L146.67,53.33 L109.33,53.33 L107.72,53.17 L106.22,52.70 L104.86,51.97 L103.68,50.99 L102.70,49.81 L101.96,48.45 L101.50,46.95 L101.33,45.33 L101.50,43.72 L101.96,42.22 L102.70,40.86 L103.68,39.68 L104.86,38.70 L106.22,37.96 L107.72,37.50 L109.33,37.33 Z" fill="#ffffff" stroke="#1e1e1e" stroke-width="1" stroke-linejoin="round"/><path d="M133.33,109.33 L133.50,107.72 L133.96,106.22 L134.70,104.86 L135.68,103.68 L136.86,102.70 L138.22,101.96 L139.72,101.50 L141.33,101.33 L178.67,101.33 L180.28,101.50 L181.78,101.96 L183.14,102.70 L184.32,103.68 L185.30,104.86 L186.04,106.22 L186.50,107.72 L186.67,109.33 L186.50,110.95 L186.04,112.45 L185.30,113.81 L184.32,114.99 L183.14,115.97 L181.78,116.70 L180.28,117.17 L178.67,117.33 L141.33,117.33 L139.72,117.17 L138.22,116.70 L136.86,115.97 L135.68,114.99 L134.70,113.81 L133.96,112.45 L133.50,110.95 L133.33,109.33 Z" fill="#ffffff" stroke="#1e1e1e" stroke-width="1" stroke-linejoin="round"/><path d="M141.33,160.00 L178.67,160.00 L180.28,160.16 L181.78,160.63 L183.14,161.37 L184.32,162.34 L185.30,163.53 L186.04,164.89 L186.50,166.39 L186.67,168.00 L186.50,169.61 L186.04,171.11 L185.30,172.47 L184.32,173.66 L183.14,174.63 L181.78,175.37 L180.28,175.84 L178.67,176.00 L141.33,176.00 L139.72,175.84 L138.22,175.37 L136.86,174.63 L135.68,173.66 L134.70,172.47 L133.96,171.11 L133.50,169.61 L133.33,168.00 L133.50,166.39 L133.96,164.89 L134.70,163.53 L135.68,162.34 L136.86,161.37 L138.22,160.63 L139.72,160.16 L141.33,160.00 Z" fill="#ffffff" stroke="#1e1e1e" stroke-width="1" stroke-linejoin="round"/><path d="M114.99,104.32 L93.66,125.66 L92.40,126.68 L91.01,127.41 L89.53,127.85 L88.00,128.00 L86.47,127.85 L84.99,127.41 L83.60,126.68 L82.34,125.66 L71.68,114.99 L70.65,113.74 L69.92,112.34 L69.48,110.86 L69.33,109.33 L69.48,107.81 L69.92,106.32 L70.65,104.93 L71.68,103.68 L72.93,102.65 L74.32,101.92 L75.81,101.48 L77.33,101.33 L78.86,101.48 L80.34,101.92 L81.74,102.65 L82.99,103.68 L88.00,108.69 L103.68,93.01 L104.93,91.98 L106.32,91.25 L107.81,90.81 L109.33,90.67 L110.86,90.81 L112.34,91.25 L113.74,91.98 L114.99,93.01 L116.02,94.26 L116.75,95.66 L117.19,97.14 L117.33,98.67 L117.19,100.19 L116.75,101.68 L116.02,103.07 L114.99,104.32 Z" fill="#ffffff" stroke="#1e1e1e" stroke-width="1" stroke-linejoin="round"/><path d="M114.99,151.68 L116.02,152.93 L116.75,154.32 L117.19,155.81 L117.33,157.33 L117.19,158.86 L116.75,160.34 L116.02,161.74 L114.99,162.99 L93.66,184.32 L92.40,185.35 L91.01,186.08 L89.53,186.52 L88.00,186.67 L86.47,186.52 L84.99,186.08 L83.60,185.35 L82.34,184.32 L71.68,173.66 L70.65,172.40 L69.92,171.01 L69.48,169.53 L69.33,168.00 L69.48,166.47 L69.92,164.99 L70.65,163.60 L71.68,162.34 L72.93,161.32 L74.32,160.59 L75.81,160.15 L77.33,160.00 L78.86,160.15 L80.34,160.59 L81.74,161.32 L82.99,162.34 L88.00,167.35 L103.68,151.68 L104.93,150.65 L106.32,149.92 L107.81,149.48 L109.33,149.33 L110.86,149.48 L112.34,149.92 L113.74,150.65 L114.99,151.68 Z" fill="#ffffff" stroke="#1e1e1e" stroke-width="1" stroke-linejoin="round"/></svg>