<svg xmlns="http://www.w3.org/2000/svg" viewBox="24.67 24.67 206.67 206.67"><path d="M128.00,26.67 L133.21,26.80 L138.36,27.19 L143.43,27.83 L148.42,28.73 L153.32,29.86 L158.13,31.22 L162.84,32.82 L167.44,34.63 L171.93,36.66 L176.30,38.90 L180.54,41.34 L184.66,43.97 L188.63,46.80 L192.46,49.81 L196.13,52.99 L199.65,56.35 L203.01,59.87 L206.19,63.54 L209.20,67.37 L212.03,71.34 L214.66,75.46 L217.10,79.70 L219.34,84.07 L221.37,88.56 L223.18,93.16 L224.78,97.87 L226.14,102.68 L227.27,107.58 L228.17,112.57 L228.81,117.64 L229.20,122.79 L229.33,128.00 L229.20,133.21 L228.81,138.36 L228.17,143.43 L227.27,148.42 L226.14,153.32 L224.78,158.13 L223.18,162.84 L221.37,167.44 L219.34,171.93 L217.10,176.30 L214.66,180.54 L212.03,184.66 L209.20,188.63 L206.19,192.46 L203.01,196.13 L199.65,199.65 L196.13,203.01 L192.46,206.19 L188.63,209.20 L184.66,212.03 L180.54,214.66 L176.30,217.10 L171.93,219.34 L167.44,221.37 L162.84,223.18 L158.13,224.78 L153.32,226.14 L148.42,227.27 L143.43,228.17 L138.36,228.81 L133.21,229.20 L128.00,229.33 L122.79,229.20 L117.64,228.81 L112.57,228.17 L107.58,227.27 L102.68,226.14 L97.87,224.78 L93.16,223.18 L88.56,221.37 L84.07,219.34 L79.70,217.10 L75.46,214.66 L71.34,212.03 L67.37,209.20 L63.54,206.19 L59.87,203.01 L56.35,199.65 L52.99,196.13 L49.81,192.46 L46.80,188.63 L43.97,184.66 L41.34,180.54 L38.90,176.30 L36.66,171.93 L34.63,167.44 L32.82,162.84 L31.22,158.13 L29.86,153.32 L28.73,148.42 L27.83,143.43 L27.19,138.36 L26.80,133.21 L26.67,128.00 L26.80,122.79 L27.19,117.64 L27.83,112.57 L28.73,107.58 L29.86,102.68 L31.22,97.87 L32.82,93.16 L34.63,88.56 L36.66,84.07 L38.90,79.70 L41.34,75.46 L43.97,71.34 L46.80,67.37 L49.81,63.54 L52.99,59.87 L56.35,56.35 L59.87,52.99 L63.54,49.81 L67.37,46.80 L71.34,43.97 L75.46,41.34 L79.70,38.90 L84.07,36.66 L88.56,34.63 L93.16,32.82 L97.87,31.22 L102.68,29.86 L107.58,28.73 L112.57,27.83 L117.64,27.19 L122.79,26.80 L128.00,26.67 Z" fill="#107c41" stroke="#1e1e1e" stroke-width="1" stroke-linejoin="round"/><path d="M121.33,64.00 L119.99,64.14 L118.74,64.52 L117.61,65.14 L116.62,65.95 L115.81,66.94 L115.19,68.07 L114.80,69.32 L114.67,70.67 L114.67,134.67 L114.80,136.01 L115.19,137.26 L115.81,138.39 L116.62,139.38 L117.61,140.19 L118.74,140.81 L119.99,141.20 L121.33,141.33 L164.00,141.33 L165.34,141.20 L166.60,140.81 L167.73,140.19 L168.71,139.38 L169.53,138.39 L170.14,137.26 L170.53,136.01 L170.67,134.67 L170.53,133.32 L170.14,132.07 L169.53,130.94 L168.71,129.95 L167.73,129.14 L166.60,128.52 L165.34,128.14 L164.00,128.00 L128.00,128.00 L128.00,70.67 L127.86,69.32 L127.48,68.07 L126.86,66.94 L126.05,65.95 L125.06,65.14 L123.93,64.52 L122.68,64.14 L121.33,64.00 Z" fill="#ffffff" stroke="#1e1e1e" stroke-width="1" stroke-linejoin="round"/></svg>