<svg xmlns="http://www.w3.org/2000/svg" viewBox="22.00 22.00 212.00 204.00"><path d="M64.00,24.00 L68.50,24.25 L72.86,24.98 L77.05,26.18 L81.03,27.80 L84.79,29.82 L88.29,32.22 L91.51,34.96 L94.43,38.03 L98.39,36.65 L102.42,35.45 L106.53,34.41 L110.70,33.55 L114.94,32.88 L119.24,32.39 L123.60,32.10 L128.00,32.00 L132.40,32.10 L136.76,32.39 L141.06,32.88 L145.30,33.55 L149.47,34.41 L153.58,35.45 L157.61,36.65 L161.57,38.03 L164.49,34.97 L167.71,32.22 L171.21,29.82 L174.97,27.80 L178.95,26.18 L183.14,24.98 L187.50,24.25 L192.00,24.00 L196.09,24.21 L200.06,24.81 L203.89,25.80 L207.57,27.14 L211.07,28.83 L214.36,30.83 L217.44,33.13 L220.28,35.72 L222.87,38.56 L225.17,41.64 L227.17,44.93 L228.86,48.43 L230.20,52.11 L231.19,55.94 L231.79,59.91 L232.00,64.00 L231.75,68.50 L231.02,72.86 L229.82,77.05 L228.20,81.03 L226.18,84.79 L223.78,88.29 L221.03,91.51 L217.97,94.43 L219.35,98.39 L220.55,102.42 L221.59,106.53 L222.45,110.70 L223.12,114.94 L223.61,119.24 L223.90,123.60 L224.00,128.00 L223.90,132.41 L223.61,136.76 L223.12,141.06 L222.44,145.30 L221.59,149.48 L220.55,153.59 L219.34,157.62 L217.96,161.58 L216.42,165.46 L214.71,169.26 L212.84,172.96 L210.82,176.57 L208.66,180.08 L206.34,183.49 L203.89,186.80 L201.30,189.99 L221.66,210.34 L222.68,211.60 L223.41,212.99 L223.85,214.47 L224.00,216.00 L223.85,217.53 L223.41,219.01 L222.68,220.40 L221.66,221.66 L220.40,222.68 L219.01,223.41 L217.53,223.85 L216.00,224.00 L214.47,223.85 L212.99,223.41 L211.60,222.68 L210.34,221.66 L189.99,201.30 L186.80,203.89 L183.49,206.34 L180.08,208.66 L176.57,210.82 L172.96,212.84 L169.26,214.71 L165.46,216.42 L161.58,217.96 L157.62,219.34 L153.59,220.55 L149.48,221.59 L145.30,222.44 L141.06,223.12 L136.76,223.61 L132.41,223.90 L128.00,224.00 L123.59,223.90 L119.24,223.61 L114.94,223.12 L110.70,222.44 L106.52,221.59 L102.41,220.55 L98.38,219.34 L94.42,217.96 L90.54,216.42 L86.74,214.71 L83.04,212.84 L79.43,210.82 L75.92,208.66 L72.51,206.34 L69.20,203.89 L66.01,201.30 L45.66,221.66 L44.40,222.68 L43.01,223.41 L41.53,223.85 L40.00,224.00 L38.47,223.85 L36.99,223.41 L35.60,222.68 L34.34,221.66 L33.32,220.40 L32.59,219.01 L32.15,217.53 L32.00,216.00 L32.15,214.47 L32.59,212.99 L33.32,211.60 L34.34,210.34 L54.70,189.99 L52.11,186.80 L49.66,183.49 L47.34,180.08 L45.18,176.57 L43.16,172.96 L41.29,169.26 L39.58,165.46 L38.04,161.58 L36.66,157.62 L35.45,153.59 L34.41,149.48 L33.56,145.30 L32.88,141.06 L32.39,136.76 L32.10,132.41 L32.00,128.00 L32.10,123.60 L32.39,119.24 L32.88,114.94 L33.55,110.70 L34.41,106.53 L35.45,102.42 L36.65,98.39 L38.03,94.43 L34.96,91.51 L32.22,88.29 L29.82,84.79 L27.80,81.03 L26.18,77.05 L24.98,72.86 L24.25,68.50 L24.00,64.00 L24.21,59.91 L24.81,55.94 L25.80,52.11 L27.14,48.43 L28.83,44.93 L30.83,41.64 L33.13,38.56 L35.72,35.72 L38.56,33.13 L41.64,30.83 L44.93,28.83 L48.43,27.14 L52.11,25.80 L55.94,24.81 L59.91,24.21 L64.00,24.00 Z" fill="#0078d4" stroke="#1e1e1e" stroke-width="1" stroke-linejoin="round"/><path d="M45.36,79.12 L48.60,74.02 L52.15,69.14 L56.00,64.50 L60.12,60.12 L64.50,56.00 L69.14,52.15 L74.02,48.60 L79.12,45.36 L77.52,44.17 L75.82,43.11 L74.03,42.19 L72.16,41.42 L70.21,40.81 L68.20,40.37 L66.13,40.09 L64.00,40.00 L61.55,40.12 L59.16,40.49 L56.86,41.08 L54.66,41.89 L52.56,42.90 L50.58,44.10 L48.73,45.48 L47.03,47.03 L45.48,48.73 L44.10,50.58 L42.90,52.56 L41.89,54.66 L41.08,56.86 L40.49,59.16 L40.12,61.55 L40.00,64.00 L40.09,66.13 L40.37,68.20 L40.81,70.21 L41.42,72.16 L42.19,74.03 L43.11,75.82 L44.17,77.52 L45.36,79.12 Z" fill="#ffffff" stroke="#1e1e1e" stroke-width="1" stroke-linejoin="round"/><path d="M176.88,45.36 L181.98,48.60 L186.86,52.15 L191.50,56.00 L195.88,60.12 L200.00,64.50 L203.85,69.14 L207.40,74.02 L210.64,79.12 L211.83,77.52 L212.89,75.82 L213.81,74.03 L214.58,72.16 L215.19,70.21 L215.63,68.20 L215.91,66.13 L216.00,64.00 L215.88,61.55 L215.51,59.16 L214.92,56.86 L214.11,54.66 L213.10,52.56 L211.90,50.58 L210.52,48.73 L208.97,47.03 L207.27,45.48 L205.42,44.10 L203.44,42.90 L201.34,41.89 L199.14,41.08 L196.84,40.49 L194.45,40.12 L192.00,40.00 L189.87,40.09 L187.80,40.37 L185.79,40.81 L183.84,41.42 L181.97,42.19 L180.18,43.11 L178.48,44.17 L176.88,45.36 Z" fill="#ffffff" stroke="#1e1e1e" stroke-width="1" stroke-linejoin="round"/><path d="M128.00,80.00 L127.84,78.39 L127.37,76.89 L126.63,75.53 L125.66,74.34 L124.47,73.37 L123.11,72.63 L121.61,72.16 L120.00,72.00 L118.39,72.16 L116.89,72.63 L115.53,73.37 L114.34,74.34 L113.37,75.53 L112.63,76.89 L112.16,78.39 L112.00,80.00 L112.00,136.00 L112.16,137.61 L112.63,139.11 L113.37,140.47 L114.34,141.66 L115.53,142.63 L116.89,143.37 L118.39,143.84 L120.00,144.00 L160.00,144.00 L161.61,143.84 L163.11,143.37 L164.47,142.63 L165.66,141.66 L166.63,140.47 L167.37,139.11 L167.84,137.61 L168.00,136.00 L167.84,134.39 L167.37,132.89 L166.63,131.53 L165.66,130.34 L164.47,129.37 L163.11,128.63 L161.61,128.16 L160.00,128.00 L128.00,128.00 L128.00,80.00 Z" fill="#ffffff" stroke="#1e1e1e" stroke-width="1" stroke-linejoin="round"/></svg>