<svg xmlns="http://www.w3.org/2000/svg" viewBox="10.63 10.63 100.00 100.00"><path d="M60.63,12.63 L63.10,12.69 L65.54,12.88 L67.94,13.18 L70.31,13.61 L72.63,14.14 L74.91,14.79 L77.14,15.54 L79.32,16.40 L81.44,17.36 L83.51,18.42 L85.52,19.58 L87.47,20.83 L89.35,22.17 L91.16,23.59 L92.91,25.10 L94.57,26.69 L96.16,28.36 L97.67,30.10 L99.10,31.91 L100.43,33.79 L101.68,35.74 L102.84,37.75 L103.90,39.82 L104.86,41.95 L105.72,44.13 L106.47,46.36 L107.12,48.64 L107.66,50.96 L108.08,53.32 L108.38,55.72 L108.57,58.16 L108.63,60.63 L108.57,63.10 L108.38,65.54 L108.08,67.94 L107.66,70.31 L107.12,72.63 L106.47,74.91 L105.72,77.14 L104.86,79.32 L103.90,81.44 L102.84,83.51 L101.68,85.52 L100.43,87.47 L99.10,89.35 L97.67,91.16 L96.16,92.91 L94.57,94.57 L92.91,96.16 L91.16,97.67 L89.35,99.10 L87.47,100.43 L85.52,101.68 L83.51,102.84 L81.44,103.90 L79.32,104.86 L77.14,105.72 L74.91,106.47 L72.63,107.12 L70.31,107.66 L67.94,108.08 L65.54,108.38 L63.10,108.57 L60.63,108.63 L58.16,108.57 L55.72,108.38 L53.32,108.08 L50.96,107.66 L48.64,107.12 L46.36,106.47 L44.13,105.72 L41.95,104.86 L39.82,103.90 L37.75,102.84 L35.74,101.68 L33.79,100.43 L31.91,99.10 L30.10,97.67 L28.36,96.16 L26.69,94.57 L25.10,92.91 L23.59,91.16 L22.17,89.35 L20.83,87.47 L19.58,85.52 L18.42,83.51 L17.36,81.44 L16.40,79.32 L15.54,77.14 L14.79,74.91 L14.14,72.63 L13.61,70.31 L13.18,67.94 L12.88,65.54 L12.69,63.10 L12.63,60.63 L12.69,58.16 L12.88,55.72 L13.18,53.32 L13.61,50.96 L14.14,48.64 L14.79,46.36 L15.54,44.13 L16.40,41.95 L17.36,39.82 L18.42,37.75 L19.58,35.74 L20.83,33.79 L22.17,31.91 L23.59,30.10 L25.10,28.36 L26.69,26.69 L28.36,25.10 L30.10,23.59 L31.91,22.17 L33.79,20.83 L35.74,19.58 L37.75,18.42 L39.82,17.36 L41.95,16.40 L44.13,15.54 L46.36,14.79 L48.64,14.14 L50.96,13.61 L53.32,13.18 L55.72,12.88 L58.16,12.69 L60.63,12.63 Z" fill="#107c41" stroke="#1e1e1e" stroke-width="1" stroke-linejoin="round"/><path d="M57.47,30.32 L56.84,30.38 L56.24,30.56 L55.71,30.86 L55.24,31.24 L54.86,31.71 L54.56,32.24 L54.38,32.84 L54.32,33.47 L54.32,63.79 L54.38,64.43 L54.56,65.02 L54.86,65.56 L55.24,66.02 L55.71,66.41 L56.24,66.70 L56.84,66.88 L57.47,66.95 L77.68,66.95 L78.32,66.88 L78.91,66.70 L79.45,66.41 L79.92,66.02 L80.30,65.56 L80.59,65.02 L80.78,64.43 L80.84,63.79 L80.78,63.15 L80.59,62.56 L80.30,62.02 L79.92,61.56 L79.45,61.17 L78.91,60.88 L78.32,60.70 L77.68,60.63 L60.63,60.63 L60.63,33.47 L60.57,32.84 L60.38,32.24 L60.09,31.71 L59.71,31.24 L59.24,30.86 L58.70,30.56 L58.11,30.38 L57.47,30.32 Z" fill="#ffffff" stroke="#1e1e1e" stroke-width="1" stroke-linejoin="round"/></svg>