<svg xmlns="http://www.w3.org/2000/svg" viewBox="10.00 16.00 100.00 100.00"><path d="M104.83,85.69 L102.94,86.68 L100.92,87.54 L98.80,88.28 L96.58,88.89 L94.28,89.37 L91.91,89.72 L89.48,89.93 L87.00,90.00 L84.52,89.93 L82.09,89.72 L79.72,89.37 L77.42,88.89 L75.20,88.28 L73.07,87.54 L71.06,86.68 L69.17,85.69 L67.56,84.69 L66.00,83.52 L66.00,102.00 L66.11,103.23 L66.43,104.42 L66.94,105.57 L67.65,106.67 L68.53,107.72 L69.59,108.71 L70.80,109.63 L72.15,110.49 L73.64,111.26 L75.26,111.95 L76.99,112.55 L78.83,113.06 L80.76,113.46 L82.77,113.76 L84.85,113.94 L87.00,114.00 L89.15,113.94 L91.23,113.76 L93.24,113.46 L95.17,113.06 L97.01,112.55 L98.74,111.95 L100.36,111.26 L101.85,110.49 L103.20,109.63 L104.41,108.71 L105.47,107.72 L106.35,106.67 L107.06,105.57 L107.57,104.42 L107.89,103.23 L108.00,102.00 L108.00,83.52 L106.44,84.69 L104.83,85.69 Z" fill="#8dc8e8" stroke="#1e1e1e" stroke-width="1" stroke-linejoin="round"/><path d="M60.00,18.00 L63.08,18.13 L65.99,18.52 L68.73,19.16 L71.29,20.02 L73.67,21.10 L75.88,22.39 L77.91,23.86 L79.76,25.51 L81.42,27.33 L82.90,29.29 L84.20,31.39 L85.31,33.62 L86.24,35.95 L86.98,38.38 L87.52,40.89 L87.88,43.48 L88.31,43.48 L90.02,43.55 L91.68,43.77 L93.30,44.13 L94.87,44.63 L96.38,45.25 L97.83,46.00 L99.20,46.86 L100.50,47.82 L101.71,48.90 L102.84,50.06 L103.87,51.32 L104.80,52.67 L105.63,54.09 L106.34,55.58 L106.93,57.14 L107.40,58.76 L105.83,57.88 L104.21,57.12 L102.38,56.41 L100.44,55.78 L98.39,55.25 L96.24,54.80 L94.02,54.46 L91.73,54.20 L89.39,54.05 L87.00,54.00 L84.61,54.05 L82.27,54.20 L79.98,54.46 L77.76,54.80 L75.61,55.25 L73.56,55.78 L71.62,56.41 L69.79,57.12 L68.05,57.94 L66.37,58.90 L64.80,60.01 L63.38,61.28 L62.72,62.01 L62.09,62.80 L61.52,63.67 L61.01,64.60 L60.59,65.60 L60.27,66.67 L60.07,67.80 L60.00,69.00 L60.00,84.00 L31.69,84.00 L29.68,83.90 L27.72,83.59 L25.84,83.09 L24.03,82.41 L22.31,81.55 L20.68,80.54 L19.17,79.37 L17.77,78.07 L16.50,76.63 L15.36,75.07 L14.38,73.40 L13.55,71.62 L12.89,69.76 L12.40,67.82 L12.10,65.81 L12.00,63.74 L12.10,61.67 L12.40,59.65 L12.89,57.71 L13.55,55.85 L14.38,54.08 L15.36,52.41 L16.50,50.85 L17.77,49.41 L19.17,48.10 L20.68,46.94 L22.31,45.92 L24.03,45.07 L25.84,44.39 L27.72,43.89 L29.68,43.58 L31.69,43.48 L32.12,43.48 L32.48,40.88 L33.03,38.35 L33.76,35.92 L34.69,33.58 L35.80,31.35 L37.10,29.25 L38.58,27.29 L40.25,25.48 L42.09,23.83 L44.12,22.36 L46.33,21.08 L48.71,20.01 L51.27,19.15 L54.01,18.52 L56.92,18.13 L60.00,18.00 Z" fill="#0078d4" stroke="#1e1e1e" stroke-width="1" stroke-linejoin="round"/><path d="M87.00,60.00 L84.85,60.06 L82.77,60.24 L80.76,60.54 L78.83,60.94 L76.99,61.45 L75.26,62.05 L73.64,62.74 L72.15,63.51 L70.80,64.37 L69.59,65.29 L68.53,66.28 L67.65,67.33 L66.94,68.43 L66.43,69.58 L66.11,70.77 L66.00,72.00 L66.11,73.23 L66.43,74.42 L66.94,75.57 L67.65,76.67 L68.53,77.72 L69.59,78.71 L70.80,79.63 L72.15,80.49 L73.64,81.26 L75.26,81.95 L76.99,82.55 L78.83,83.06 L80.76,83.46 L82.77,83.76 L84.85,83.94 L87.00,84.00 L89.15,83.94 L91.23,83.76 L93.24,83.46 L95.17,83.06 L97.01,82.55 L98.74,81.95 L100.36,81.26 L101.85,80.49 L103.20,79.63 L104.41,78.71 L105.47,77.72 L106.35,76.67 L107.06,75.57 L107.57,74.42 L107.89,73.23 L108.00,72.00 L107.89,70.77 L107.57,69.58 L107.06,68.43 L106.35,67.33 L105.47,66.28 L104.41,65.29 L103.20,64.37 L101.85,63.51 L100.36,62.74 L98.74,62.05 L97.01,61.45 L95.17,60.94 L93.24,60.54 L91.23,60.24 L89.15,60.06 L87.00,60.00 Z" fill="#8dc8e8" stroke="#1e1e1e" stroke-width="1" stroke-linejoin="round"/></svg>