<svg xmlns="http://www.w3.org/2000/svg" viewBox="23.60 36.40 208.80 208.80"><path d="M223.63,182.82 L219.60,184.91 L215.31,186.75 L210.78,188.33 L206.05,189.63 L201.13,190.66 L196.07,191.40 L190.88,191.85 L185.60,192.00 L180.32,191.85 L175.13,191.40 L170.07,190.66 L165.15,189.63 L160.42,188.33 L155.89,186.75 L151.60,184.91 L147.57,182.82 L144.12,180.66 L140.80,178.18 L140.80,217.60 L141.03,220.22 L141.71,222.76 L142.81,225.21 L144.32,227.56 L146.21,229.80 L148.45,231.91 L151.03,233.88 L153.92,235.70 L157.10,237.35 L160.55,238.83 L164.25,240.11 L168.16,241.19 L172.28,242.05 L176.57,242.68 L181.02,243.07 L185.60,243.20 L190.18,243.07 L194.63,242.68 L198.92,242.05 L203.04,241.19 L206.95,240.11 L210.65,238.83 L214.10,237.35 L217.28,235.70 L220.17,233.88 L222.75,231.91 L224.99,229.80 L226.88,227.56 L228.39,225.21 L229.49,222.76 L230.17,220.22 L230.40,217.60 L230.40,178.18 L227.07,180.66 L223.63,182.82 Z" fill="#8dc8e8" stroke="#1e1e1e" stroke-width="1" stroke-linejoin="round"/><path d="M128.00,38.40 L134.58,38.68 L140.78,39.52 L146.62,40.87 L152.09,42.71 L157.17,45.02 L161.88,47.76 L166.20,50.90 L170.14,54.43 L173.70,58.30 L176.86,62.49 L179.63,66.97 L182.00,71.71 L183.98,76.69 L185.55,81.88 L186.72,87.24 L187.48,92.75 L188.39,92.75 L192.03,92.91 L195.59,93.38 L199.05,94.15 L202.39,95.21 L205.61,96.54 L208.70,98.12 L211.63,99.96 L214.40,102.02 L216.99,104.31 L219.39,106.80 L221.59,109.49 L223.58,112.35 L225.34,115.39 L226.86,118.57 L228.12,121.90 L229.12,125.35 L225.78,123.48 L222.32,121.86 L218.42,120.34 L214.27,119.00 L209.89,117.86 L205.32,116.91 L200.58,116.17 L195.70,115.63 L190.69,115.31 L185.60,115.20 L180.51,115.31 L175.50,115.63 L170.62,116.17 L165.88,116.91 L161.31,117.86 L156.93,119.00 L152.78,120.34 L148.88,121.86 L145.17,123.61 L141.59,125.66 L138.25,128.02 L135.21,130.74 L133.79,132.28 L132.46,133.97 L131.23,135.82 L130.16,137.82 L129.26,139.95 L128.58,142.23 L128.15,144.65 L128.00,147.20 L128.00,179.20 L67.61,179.20 L63.31,178.98 L59.14,178.32 L55.12,177.26 L51.26,175.80 L47.59,173.98 L44.12,171.82 L40.89,169.33 L37.90,166.54 L35.19,163.47 L32.77,160.14 L30.67,156.58 L28.90,152.80 L27.49,148.83 L26.45,144.69 L25.82,140.39 L25.60,135.97 L25.82,131.55 L26.45,127.26 L27.49,123.12 L28.90,119.15 L30.67,115.37 L32.77,111.81 L35.19,108.48 L37.90,105.41 L40.89,102.62 L44.12,100.13 L47.59,97.97 L51.26,96.15 L55.12,94.69 L59.14,93.63 L63.32,92.97 L67.61,92.75 L68.52,92.75 L69.28,87.21 L70.46,81.82 L72.03,76.62 L74.01,71.63 L76.38,66.88 L79.15,62.40 L82.31,58.22 L85.86,54.35 L89.80,50.84 L94.13,47.71 L98.83,44.98 L103.92,42.68 L109.38,40.85 L115.22,39.51 L121.42,38.68 L128.00,38.40 Z" fill="#0078d4" stroke="#1e1e1e" stroke-width="1" stroke-linejoin="round"/><path d="M185.60,128.00 L181.02,128.13 L176.57,128.52 L172.28,129.15 L168.16,130.01 L164.25,131.09 L160.55,132.37 L157.10,133.85 L153.92,135.50 L151.03,137.32 L148.45,139.29 L146.21,141.40 L144.32,143.64 L142.81,145.99 L141.71,148.44 L141.03,150.98 L140.80,153.60 L141.03,156.22 L141.71,158.76 L142.81,161.21 L144.32,163.56 L146.21,165.80 L148.45,167.91 L151.03,169.88 L153.92,171.70 L157.10,173.35 L160.55,174.83 L164.25,176.11 L168.16,177.19 L172.28,178.05 L176.57,178.68 L181.02,179.07 L185.60,179.20 L190.18,179.07 L194.63,178.68 L198.92,178.05 L203.04,177.19 L206.95,176.11 L210.65,174.83 L214.10,173.35 L217.28,171.70 L220.17,169.88 L222.75,167.91 L224.99,165.80 L226.88,163.56 L228.39,161.21 L229.49,158.76 L230.17,156.22 L230.40,153.60 L230.17,150.98 L229.49,148.44 L228.39,145.99 L226.88,143.64 L224.99,141.40 L222.75,139.29 L220.17,137.32 L217.28,135.50 L214.10,133.85 L210.65,132.37 L206.95,131.09 L203.04,130.01 L198.92,129.15 L194.63,128.52 L190.18,128.13 L185.60,128.00 Z" fill="#8dc8e8" stroke="#1e1e1e" stroke-width="1" stroke-linejoin="round"/></svg>