<svg xmlns="http://www.w3.org/2000/svg" viewBox="23.60 49.20 221.60 196.00"><path d="M187.48,105.55 L186.72,100.04 L185.55,94.68 L183.98,89.49 L182.00,84.51 L179.63,79.77 L176.86,75.29 L173.70,71.10 L170.14,67.23 L166.20,63.70 L161.88,60.56 L157.17,57.82 L152.09,55.51 L146.62,53.67 L140.78,52.32 L134.58,51.48 L128.00,51.20 L121.42,51.48 L115.22,52.31 L109.38,53.65 L103.92,55.48 L98.83,57.78 L94.13,60.51 L89.80,63.64 L85.86,67.15 L82.31,71.02 L79.15,75.20 L76.38,79.68 L74.01,84.43 L72.03,89.42 L70.46,94.62 L69.28,100.01 L68.52,105.55 L67.61,105.55 L63.32,105.77 L59.14,106.43 L55.12,107.49 L51.26,108.95 L47.59,110.77 L44.12,112.93 L40.89,115.42 L37.90,118.21 L35.19,121.28 L32.77,124.61 L30.67,128.17 L28.90,131.95 L27.49,135.92 L26.45,140.06 L25.82,144.35 L25.60,148.77 L25.82,153.19 L26.45,157.49 L27.49,161.63 L28.90,165.60 L30.67,169.38 L32.77,172.94 L35.19,176.27 L37.90,179.34 L40.89,182.13 L44.12,184.62 L47.59,186.78 L51.26,188.60 L55.12,190.06 L59.14,191.12 L63.31,191.78 L67.61,192.00 L115.20,192.00 L115.20,153.60 L115.33,150.98 L115.72,148.44 L116.35,145.99 L117.21,143.64 L118.29,141.40 L119.57,139.29 L121.05,137.32 L122.70,135.50 L124.52,133.85 L126.49,132.37 L128.60,131.09 L130.84,130.01 L133.19,129.15 L135.64,128.52 L138.18,128.13 L140.80,128.00 L225.24,128.00 L223.82,125.54 L222.26,123.19 L220.55,120.96 L218.70,118.85 L216.73,116.86 L214.63,115.02 L212.42,113.31 L210.09,111.76 L207.67,110.36 L205.15,109.12 L202.54,108.06 L199.84,107.18 L197.08,106.47 L194.24,105.96 L191.34,105.65 L188.39,105.55 L187.48,105.55 Z" fill="#0078d4" stroke="#1e1e1e" stroke-width="1" stroke-linejoin="round"/><path d="M128.00,153.60 L128.26,151.02 L129.01,148.62 L130.19,146.44 L131.75,144.55 L133.64,142.99 L135.82,141.81 L138.22,141.06 L140.80,140.80 L230.40,140.80 L232.98,141.06 L235.38,141.81 L237.56,142.99 L239.45,144.55 L241.01,146.44 L242.19,148.62 L242.94,151.02 L243.20,153.60 L243.20,204.80 L242.94,207.38 L242.19,209.78 L241.01,211.96 L239.45,213.85 L237.56,215.41 L235.38,216.59 L232.98,217.34 L230.40,217.60 L204.80,217.60 L204.80,230.40 L211.20,230.40 L212.49,230.53 L213.69,230.90 L214.78,231.49 L215.73,232.27 L216.51,233.22 L217.10,234.31 L217.47,235.51 L217.60,236.80 L217.47,238.09 L217.10,239.29 L216.51,240.38 L215.73,241.33 L214.78,242.11 L213.69,242.70 L212.49,243.07 L211.20,243.20 L160.00,243.20 L158.71,243.07 L157.51,242.70 L156.42,242.11 L155.47,241.33 L154.69,240.38 L154.10,239.29 L153.73,238.09 L153.60,236.80 L153.73,235.51 L154.10,234.31 L154.69,233.22 L155.47,232.27 L156.42,231.49 L157.51,230.90 L158.71,230.53 L160.00,230.40 L166.40,230.40 L166.40,217.60 L140.80,217.60 L138.22,217.34 L135.82,216.59 L133.64,215.41 L131.75,213.85 L130.19,211.96 L129.01,209.78 L128.26,207.38 L128.00,204.80 L128.00,153.60 Z" fill="#8dc8e8" stroke="#1e1e1e" stroke-width="1" stroke-linejoin="round"/></svg>