<svg xmlns="http://www.w3.org/2000/svg" viewBox="24.67 51.33 206.67 140.00"><path d="M128.00,53.33 L122.33,53.60 L116.81,54.40 L111.47,55.69 L106.34,57.46 L101.43,59.68 L96.78,62.32 L92.40,65.37 L88.32,68.79 L84.57,72.56 L81.17,76.65 L78.15,81.05 L75.54,85.72 L73.34,90.64 L71.60,95.79 L70.34,101.14 L69.57,106.67 L68.00,106.67 L63.77,106.88 L59.67,107.51 L55.71,108.52 L51.91,109.91 L48.30,111.66 L44.89,113.73 L41.71,116.11 L38.77,118.77 L36.11,121.71 L33.73,124.89 L31.66,128.30 L29.91,131.91 L28.52,135.71 L27.51,139.67 L26.88,143.77 L26.67,148.00 L26.88,152.23 L27.51,156.33 L28.52,160.29 L29.91,164.09 L31.66,167.70 L33.73,171.11 L36.11,174.29 L38.77,177.23 L41.71,179.89 L44.89,182.27 L48.30,184.34 L51.91,186.09 L55.71,187.48 L59.67,188.49 L63.77,189.12 L68.00,189.33 L188.00,189.33 L192.23,189.12 L196.33,188.49 L200.29,187.48 L204.09,186.09 L207.70,184.34 L211.11,182.27 L214.29,179.89 L217.23,177.23 L219.89,174.29 L222.27,171.11 L224.34,167.70 L226.09,164.09 L227.48,160.29 L228.49,156.33 L229.12,152.23 L229.33,148.00 L229.12,143.77 L228.49,139.67 L227.48,135.71 L226.09,131.91 L224.34,128.30 L222.27,124.89 L219.89,121.71 L217.23,118.77 L214.29,116.11 L211.11,113.73 L207.70,111.66 L204.09,109.91 L200.29,108.52 L196.33,107.51 L192.23,106.88 L188.00,106.67 L186.43,106.67 L185.66,101.14 L184.40,95.79 L182.66,90.64 L180.46,85.72 L177.85,81.05 L174.83,76.65 L171.43,72.56 L167.68,68.79 L163.60,65.37 L159.22,62.32 L154.57,59.68 L149.66,57.46 L144.53,55.69 L139.19,54.40 L133.67,53.60 L128.00,53.33 Z" fill="#0078d4" stroke="#1e1e1e" stroke-width="1" stroke-linejoin="round"/></svg>