<svg xmlns="http://www.w3.org/2000/svg" viewBox="9.29 20.59 100.00 88.71"><path d="M82.71,46.57 L82.38,44.13 L81.86,41.77 L81.17,39.48 L80.29,37.29 L79.25,35.19 L78.03,33.21 L76.63,31.37 L75.06,29.66 L73.33,28.10 L71.42,26.72 L69.34,25.51 L67.10,24.49 L64.69,23.68 L62.11,23.08 L59.37,22.71 L56.47,22.59 L53.57,22.71 L50.83,23.08 L48.26,23.67 L45.85,24.48 L43.60,25.49 L41.53,26.69 L39.62,28.08 L37.88,29.63 L36.31,31.33 L34.92,33.18 L33.70,35.15 L32.65,37.25 L31.78,39.45 L31.08,41.74 L30.57,44.12 L30.23,46.57 L29.83,46.57 L27.93,46.66 L26.09,46.95 L24.32,47.42 L22.61,48.06 L20.99,48.87 L19.47,49.82 L18.04,50.92 L16.72,52.15 L15.53,53.51 L14.46,54.97 L13.53,56.55 L12.75,58.21 L12.13,59.96 L11.67,61.79 L11.39,63.69 L11.29,65.64 L11.39,67.59 L11.67,69.48 L12.13,71.31 L12.75,73.06 L13.53,74.73 L14.46,76.30 L15.53,77.77 L16.72,79.12 L18.04,80.35 L19.47,81.45 L20.99,82.40 L22.61,83.21 L24.32,83.85 L26.09,84.32 L27.93,84.61 L29.83,84.71 L50.82,84.71 L50.82,67.76 L50.88,66.61 L51.05,65.49 L51.33,64.41 L51.71,63.37 L52.19,62.38 L52.75,61.45 L53.40,60.58 L54.13,59.78 L54.93,59.05 L55.80,58.40 L56.73,57.83 L57.72,57.36 L58.76,56.98 L59.84,56.70 L60.96,56.53 L62.12,56.47 L99.37,56.47 L98.75,55.39 L98.05,54.35 L97.30,53.36 L96.49,52.43 L95.62,51.56 L94.69,50.74 L93.71,49.99 L92.69,49.30 L91.62,48.69 L90.51,48.14 L89.35,47.67 L88.17,47.28 L86.95,46.97 L85.69,46.75 L84.42,46.61 L83.11,46.57 L82.71,46.57 Z" fill="#0078d4" stroke="#1e1e1e" stroke-width="1" stroke-linejoin="round"/><path d="M56.47,67.76 L56.59,66.63 L56.91,65.57 L57.43,64.61 L58.12,63.77 L58.96,63.08 L59.92,62.56 L60.98,62.23 L62.12,62.12 L101.65,62.12 L102.79,62.23 L103.85,62.56 L104.80,63.08 L105.64,63.77 L106.33,64.61 L106.85,65.57 L107.18,66.63 L107.29,67.76 L107.29,90.35 L107.18,91.49 L106.85,92.55 L106.33,93.51 L105.64,94.35 L104.80,95.04 L103.85,95.56 L102.79,95.89 L101.65,96.00 L90.35,96.00 L90.35,101.65 L93.18,101.65 L93.75,101.70 L94.28,101.87 L94.76,102.13 L95.17,102.47 L95.52,102.89 L95.78,103.37 L95.94,103.90 L96.00,104.47 L95.94,105.04 L95.78,105.57 L95.52,106.05 L95.17,106.47 L94.76,106.81 L94.28,107.07 L93.75,107.24 L93.18,107.29 L70.59,107.29 L70.02,107.24 L69.49,107.07 L69.01,106.81 L68.59,106.47 L68.25,106.05 L67.99,105.57 L67.82,105.04 L67.76,104.47 L67.82,103.90 L67.99,103.37 L68.25,102.89 L68.59,102.47 L69.01,102.13 L69.49,101.87 L70.02,101.70 L70.59,101.65 L73.41,101.65 L73.41,96.00 L62.12,96.00 L60.98,95.89 L59.92,95.56 L58.96,95.04 L58.12,94.35 L57.43,93.51 L56.91,92.55 L56.59,91.49 L56.47,90.35 L56.47,67.76 Z" fill="#8dc8e8" stroke="#1e1e1e" stroke-width="1" stroke-linejoin="round"/></svg>