<svg xmlns="http://www.w3.org/2000/svg" viewBox="24.67 51.33 217.33 185.32"><path d="M128.00,53.33 L122.33,53.60 L116.81,54.40 L111.47,55.69 L106.34,57.46 L101.43,59.68 L96.78,62.32 L92.40,65.37 L88.32,68.79 L84.57,72.56 L81.17,76.65 L78.15,81.05 L75.54,85.72 L73.34,90.64 L71.60,95.79 L70.34,101.14 L69.57,106.67 L68.00,106.67 L63.77,106.88 L59.67,107.51 L55.71,108.52 L51.91,109.91 L48.30,111.66 L44.89,113.73 L41.71,116.11 L38.77,118.77 L36.11,121.71 L33.73,124.89 L31.66,128.30 L29.91,131.91 L28.52,135.71 L27.51,139.67 L26.88,143.77 L26.67,148.00 L26.88,152.23 L27.51,156.33 L28.52,160.29 L29.91,164.09 L31.66,167.70 L33.73,171.11 L36.11,174.29 L38.77,177.23 L41.71,179.89 L44.89,182.27 L48.30,184.34 L51.91,186.09 L55.71,187.48 L59.67,188.49 L63.77,189.12 L68.00,189.33 L122.67,189.33 L122.67,151.04 L122.94,147.23 L123.74,143.55 L125.03,140.06 L126.80,136.79 L128.99,133.80 L131.60,131.13 L134.58,128.83 L137.90,126.95 L175.24,109.24 L178.00,108.11 L180.84,107.31 L183.74,106.83 L186.67,106.67 L186.43,106.67 L185.66,101.14 L184.40,95.79 L182.66,90.64 L180.46,85.72 L177.85,81.05 L174.83,76.65 L171.43,72.56 L167.68,68.79 L163.60,65.37 L159.22,62.32 L154.57,59.68 L149.66,57.46 L144.53,55.69 L139.19,54.40 L133.67,53.60 L128.00,53.33 Z" fill="#0078d4" stroke="#1e1e1e" stroke-width="1" stroke-linejoin="round"/><path d="M240.00,200.94 L240.00,151.04 L239.84,148.76 L239.36,146.55 L238.58,144.45 L237.52,142.49 L236.20,140.69 L234.64,139.09 L232.85,137.71 L230.86,136.59 L193.52,118.88 L191.87,118.20 L190.16,117.72 L188.42,117.43 L186.67,117.33 L184.91,117.43 L183.17,117.72 L181.47,118.20 L179.81,118.88 L142.48,136.59 L140.48,137.71 L138.69,139.09 L137.13,140.69 L135.81,142.49 L134.75,144.45 L133.98,146.55 L133.50,148.76 L133.33,151.04 L133.33,200.94 L133.50,203.23 L133.98,205.44 L134.75,207.54 L135.81,209.50 L137.13,211.29 L138.69,212.89 L140.48,214.27 L142.48,215.40 L179.81,233.11 L181.47,233.79 L183.17,234.27 L184.91,234.56 L186.67,234.65 L188.42,234.56 L190.16,234.27 L191.87,233.79 L193.52,233.11 L230.86,215.40 L232.85,214.27 L234.64,212.89 L236.20,211.29 L237.52,209.50 L238.58,207.54 L239.36,205.44 L239.84,203.23 L240.00,200.94 Z" fill="#8dc8e8" stroke="#1e1e1e" stroke-width="1" stroke-linejoin="round"/><path d="M156.95,149.85 L155.93,149.48 L154.90,149.34 L153.87,149.39 L152.88,149.64 L151.95,150.08 L151.12,150.68 L150.41,151.46 L149.85,152.38 L149.49,153.40 L149.34,154.44 L149.39,155.46 L149.64,156.46 L150.08,157.38 L150.68,158.22 L151.46,158.93 L152.38,159.48 L181.33,173.22 L181.33,208.00 L181.44,209.07 L181.75,210.07 L182.24,210.98 L182.90,211.77 L183.68,212.42 L184.59,212.91 L185.59,213.22 L186.67,213.33 L187.74,213.22 L188.74,212.91 L189.65,212.42 L190.44,211.77 L191.09,210.98 L191.58,210.07 L191.89,209.07 L192.00,208.00 L192.00,173.22 L220.95,159.48 L221.88,158.93 L222.65,158.22 L223.26,157.38 L223.69,156.46 L223.94,155.46 L224.00,154.44 L223.85,153.40 L223.49,152.38 L222.93,151.46 L222.22,150.68 L221.38,150.08 L220.46,149.64 L219.47,149.39 L218.44,149.34 L217.40,149.48 L216.38,149.85 L186.67,163.94 L156.95,149.85 Z" fill="#ffffff" stroke="#1e1e1e" stroke-width="1" stroke-linejoin="round"/></svg>