<svg xmlns="http://www.w3.org/2000/svg" viewBox="10.63 23.26 100.00 68.42"><path d="M60.63,25.26 L57.95,25.39 L55.33,25.77 L52.80,26.38 L50.37,27.22 L48.05,28.27 L45.84,29.52 L43.77,30.96 L41.84,32.58 L40.06,34.37 L38.45,36.31 L37.02,38.39 L35.78,40.60 L34.74,42.94 L33.92,45.37 L33.32,47.91 L32.96,50.53 L32.21,50.53 L30.21,50.63 L28.26,50.92 L26.39,51.41 L24.59,52.06 L22.88,52.89 L21.26,53.87 L19.76,55.00 L18.37,56.26 L17.10,57.65 L15.98,59.16 L14.99,60.77 L14.17,62.48 L13.51,64.28 L13.03,66.16 L12.73,68.10 L12.63,70.11 L12.73,72.11 L13.03,74.05 L13.51,75.93 L14.17,77.73 L14.99,79.44 L15.98,81.05 L17.10,82.56 L18.37,83.95 L19.76,85.21 L21.26,86.34 L22.88,87.32 L24.59,88.15 L26.39,88.80 L28.26,89.29 L30.21,89.58 L32.21,89.68 L89.05,89.68 L91.05,89.58 L93.00,89.29 L94.87,88.80 L96.67,88.15 L98.39,87.32 L100.00,86.34 L101.51,85.21 L102.90,83.95 L104.16,82.56 L105.29,81.05 L106.27,79.44 L107.09,77.73 L107.75,75.93 L108.23,74.05 L108.53,72.11 L108.63,70.11 L108.53,68.10 L108.23,66.16 L107.75,64.28 L107.09,62.48 L106.27,60.77 L105.29,59.16 L104.16,57.65 L102.90,56.26 L101.51,55.00 L100.00,53.87 L98.39,52.89 L96.67,52.06 L94.87,51.41 L93.00,50.92 L91.05,50.63 L89.05,50.53 L88.31,50.53 L87.95,47.91 L87.35,45.37 L86.52,42.94 L85.48,40.60 L84.24,38.39 L82.81,36.31 L81.20,34.37 L79.43,32.58 L77.50,30.96 L75.42,29.52 L73.22,28.27 L70.89,27.22 L68.46,26.38 L65.93,25.77 L63.32,25.39 L60.63,25.26 Z" fill="#0078d4" stroke="#1e1e1e" stroke-width="1" stroke-linejoin="round"/></svg>