<svg xmlns="http://www.w3.org/2000/svg" viewBox="10.00 22.00 100.00 85.59"><path d="M57.60,24.00 L55.05,24.12 L52.57,24.48 L50.16,25.06 L47.85,25.86 L45.64,26.86 L43.55,28.05 L41.58,29.42 L39.74,30.95 L38.06,32.65 L36.53,34.49 L35.17,36.47 L33.99,38.57 L33.00,40.79 L32.22,43.11 L31.65,45.51 L31.31,48.00 L30.60,48.00 L28.70,48.10 L26.85,48.38 L25.07,48.84 L23.36,49.46 L21.73,50.24 L20.20,51.18 L18.77,52.25 L17.45,53.45 L16.25,54.77 L15.18,56.20 L14.24,57.73 L13.46,59.36 L12.84,61.07 L12.38,62.85 L12.10,64.70 L12.00,66.60 L12.10,68.50 L12.38,70.35 L12.84,72.13 L13.46,73.84 L14.24,75.47 L15.18,77.00 L16.25,78.43 L17.45,79.75 L18.77,80.95 L20.20,82.02 L21.73,82.96 L23.36,83.74 L25.07,84.36 L26.85,84.82 L28.70,85.10 L30.60,85.20 L55.20,85.20 L55.20,67.97 L55.32,66.25 L55.68,64.60 L56.27,63.03 L57.06,61.55 L58.05,60.21 L59.22,59.01 L60.56,57.97 L62.06,57.13 L78.86,49.16 L80.10,48.65 L81.38,48.29 L82.68,48.07 L84.00,48.00 L83.89,48.00 L83.55,45.51 L82.98,43.11 L82.20,40.79 L81.21,38.57 L80.03,36.47 L78.67,34.49 L77.14,32.65 L75.46,30.95 L73.62,29.42 L71.65,28.05 L69.56,26.86 L67.35,25.86 L65.04,25.06 L62.63,24.48 L60.15,24.12 L57.60,24.00 Z" fill="#0078d4" stroke="#1e1e1e" stroke-width="1" stroke-linejoin="round"/><path d="M108.00,90.43 L108.00,67.97 L107.93,66.94 L107.71,65.95 L107.36,65.00 L106.89,64.12 L106.29,63.31 L105.59,62.59 L104.78,61.97 L103.89,61.46 L87.09,53.49 L86.34,53.19 L85.57,52.97 L84.79,52.84 L84.00,52.80 L83.21,52.84 L82.43,52.97 L81.66,53.19 L80.91,53.49 L64.11,61.46 L63.22,61.97 L62.41,62.59 L61.71,63.31 L61.11,64.12 L60.64,65.00 L60.29,65.95 L60.07,66.94 L60.00,67.97 L60.00,90.43 L60.07,91.45 L60.29,92.45 L60.64,93.39 L61.11,94.27 L61.71,95.08 L62.41,95.80 L63.22,96.42 L64.11,96.93 L80.91,104.90 L81.66,105.20 L82.43,105.42 L83.21,105.55 L84.00,105.59 L84.79,105.55 L85.57,105.42 L86.34,105.20 L87.09,104.90 L103.89,96.93 L104.78,96.42 L105.59,95.80 L106.29,95.08 L106.89,94.27 L107.36,93.39 L107.71,92.45 L107.93,91.45 L108.00,90.43 Z" fill="#8dc8e8" stroke="#1e1e1e" stroke-width="1" stroke-linejoin="round"/><path d="M70.63,67.43 L70.17,67.27 L69.70,67.20 L69.24,67.23 L68.79,67.34 L68.38,67.53 L68.00,67.81 L67.68,68.15 L67.43,68.57 L67.27,69.03 L67.20,69.50 L67.23,69.96 L67.34,70.41 L67.53,70.82 L67.81,71.20 L68.16,71.52 L68.57,71.77 L81.60,77.95 L81.60,93.60 L81.65,94.08 L81.79,94.53 L82.01,94.94 L82.30,95.30 L82.66,95.59 L83.07,95.81 L83.52,95.95 L84.00,96.00 L84.48,95.95 L84.93,95.81 L85.34,95.59 L85.70,95.30 L85.99,94.94 L86.21,94.53 L86.35,94.08 L86.40,93.60 L86.40,77.95 L99.43,71.77 L99.84,71.52 L100.19,71.20 L100.47,70.82 L100.66,70.41 L100.77,69.96 L100.80,69.50 L100.73,69.03 L100.57,68.57 L100.32,68.15 L100.00,67.81 L99.62,67.53 L99.21,67.34 L98.76,67.23 L98.30,67.20 L97.83,67.27 L97.37,67.43 L84.00,73.77 L70.63,67.43 Z" fill="#ffffff" stroke="#1e1e1e" stroke-width="1" stroke-linejoin="round"/></svg>