<svg xmlns="http://www.w3.org/2000/svg" viewBox="7.61 17.20 100.00 80.84"><path d="M38.82,89.35 L67.60,22.11 L68.07,21.26 L68.69,20.55 L69.41,19.97 L70.23,19.55 L71.12,19.29 L72.04,19.20 L72.98,19.30 L73.91,19.59 L74.70,20.02 L75.38,20.58 L75.94,21.24 L76.37,21.98 L76.66,22.78 L76.80,23.63 L76.79,24.50 L76.62,25.37 L76.43,25.89 L47.64,93.13 L47.17,93.98 L46.56,94.70 L45.83,95.27 L45.02,95.69 L44.13,95.95 L43.21,96.04 L42.27,95.94 L41.34,95.65 L40.55,95.22 L39.87,94.66 L39.31,94.01 L38.88,93.26 L38.59,92.46 L38.44,91.61 L38.45,90.75 L38.63,89.88 L38.82,89.35 L67.60,22.11 L38.82,89.35 Z" fill="#0078d4" stroke="#1e1e1e" stroke-width="1" stroke-linejoin="round"/><path d="M11.01,54.22 L30.21,35.01 L30.96,34.40 L31.80,33.96 L32.69,33.69 L33.61,33.61 L34.52,33.69 L35.41,33.96 L36.25,34.40 L37.00,35.01 L37.57,35.70 L38.00,36.47 L38.27,37.28 L38.40,38.12 L38.37,38.97 L38.20,39.81 L37.87,40.61 L37.40,41.35 L37.00,41.80 L21.19,57.61 L37.00,73.42 L37.62,74.17 L38.06,75.01 L38.32,75.90 L38.41,76.81 L38.32,77.73 L38.06,78.62 L37.62,79.45 L37.00,80.21 L36.31,80.78 L35.55,81.21 L34.73,81.48 L33.89,81.61 L33.04,81.58 L32.20,81.41 L31.41,81.08 L30.66,80.61 L30.21,80.21 L11.01,61.00 L10.43,60.31 L10.01,59.55 L9.73,58.74 L9.61,57.89 L9.63,57.04 L9.81,56.21 L10.13,55.41 L10.61,54.67 L11.01,54.22 L30.21,35.01 L11.01,54.22 Z" fill="#0078d4" stroke="#1e1e1e" stroke-width="1" stroke-linejoin="round"/><path d="M78.22,35.01 L78.91,34.43 L79.67,34.01 L80.48,33.73 L81.33,33.61 L82.18,33.63 L83.01,33.81 L83.81,34.13 L84.55,34.61 L85.00,35.01 L104.21,54.22 L104.79,54.91 L105.21,55.67 L105.49,56.49 L105.61,57.33 L105.58,58.18 L105.41,59.01 L105.08,59.81 L104.61,60.55 L104.21,61.01 L85.00,80.19 L84.25,80.80 L83.41,81.24 L82.52,81.51 L81.61,81.59 L80.69,81.50 L79.80,81.24 L78.97,80.80 L78.21,80.18 L77.64,79.49 L77.22,78.73 L76.94,77.91 L76.82,77.07 L76.84,76.22 L77.02,75.39 L77.34,74.59 L77.82,73.85 L78.22,73.39 L94.03,57.61 L78.22,41.80 L77.60,41.04 L77.16,40.21 L76.90,39.32 L76.81,38.40 L76.90,37.48 L77.16,36.59 L77.60,35.76 L78.22,35.01 Z" fill="#0078d4" stroke="#1e1e1e" stroke-width="1" stroke-linejoin="round"/></svg>