<svg xmlns="http://www.w3.org/2000/svg" viewBox="19.35 40.66 217.30 174.72"><path d="M86.25,198.52 L150.20,49.13 L151.25,47.24 L152.61,45.65 L154.23,44.37 L156.05,43.43 L158.01,42.85 L160.06,42.66 L162.15,42.88 L164.21,43.53 L165.97,44.49 L167.49,45.72 L168.73,47.18 L169.68,48.83 L170.33,50.62 L170.65,52.50 L170.62,54.43 L170.24,56.36 L169.82,57.53 L105.86,206.91 L104.81,208.80 L103.45,210.40 L101.83,211.68 L100.02,212.62 L98.05,213.19 L96.00,213.38 L93.91,213.17 L91.85,212.52 L90.09,211.56 L88.57,210.33 L87.33,208.86 L86.38,207.22 L85.74,205.43 L85.42,203.55 L85.44,201.62 L85.82,199.69 L86.25,198.52 L150.20,49.13 L86.25,198.52 Z" fill="#0078d4" stroke="#1e1e1e" stroke-width="1" stroke-linejoin="round"/><path d="M24.46,120.46 L67.12,77.79 L68.80,76.42 L70.65,75.45 L72.63,74.86 L74.67,74.67 L76.70,74.86 L78.68,75.45 L80.54,76.42 L82.21,77.79 L83.48,79.33 L84.43,81.02 L85.04,82.83 L85.31,84.70 L85.26,86.59 L84.87,88.45 L84.15,90.22 L83.10,91.87 L82.21,92.88 L47.08,128.00 L82.21,163.12 L83.58,164.80 L84.55,166.65 L85.14,168.63 L85.33,170.67 L85.14,172.70 L84.55,174.68 L83.58,176.54 L82.21,178.21 L80.67,179.48 L78.98,180.43 L77.17,181.04 L75.30,181.31 L73.41,181.26 L71.55,180.87 L69.78,180.15 L68.13,179.10 L67.12,178.21 L24.46,135.54 L23.18,134.00 L22.24,132.31 L21.63,130.50 L21.35,128.63 L21.41,126.74 L21.80,124.89 L22.52,123.11 L23.57,121.46 L24.46,120.46 L67.12,77.79 L24.46,120.46 Z" fill="#0078d4" stroke="#1e1e1e" stroke-width="1" stroke-linejoin="round"/><path d="M173.78,77.78 L175.32,76.50 L177.02,75.56 L178.82,74.95 L180.70,74.67 L182.58,74.73 L184.44,75.12 L186.21,75.84 L187.86,76.89 L188.87,77.78 L231.54,120.46 L232.82,122.00 L233.76,123.69 L234.37,125.50 L234.65,127.37 L234.59,129.26 L234.20,131.12 L233.48,132.89 L232.43,134.54 L231.54,135.55 L188.86,178.17 L187.19,179.53 L185.33,180.51 L183.35,181.09 L181.32,181.29 L179.28,181.09 L177.30,180.50 L175.45,179.52 L173.78,178.16 L172.50,176.62 L171.56,174.92 L170.95,173.11 L170.68,171.24 L170.73,169.35 L171.12,167.50 L171.84,165.72 L172.90,164.08 L173.79,163.07 L208.91,127.99 L173.78,92.86 L172.41,91.19 L171.44,89.33 L170.85,87.36 L170.66,85.32 L170.85,83.28 L171.44,81.31 L172.42,79.45 L173.78,77.78 Z" fill="#0078d4" stroke="#1e1e1e" stroke-width="1" stroke-linejoin="round"/></svg>