<svg xmlns="http://www.w3.org/2000/svg" viewBox="22.00 22.00 212.00 219.98"><path d="M24.00,92.00 L24.19,88.32 L24.73,84.74 L25.62,81.29 L26.83,77.99 L28.35,74.84 L30.15,71.87 L32.22,69.10 L34.54,66.54 L37.10,64.22 L39.87,62.15 L42.84,60.35 L45.99,58.83 L49.29,57.62 L52.74,56.73 L56.32,56.19 L60.00,56.00 L164.00,56.00 L167.68,56.19 L171.26,56.73 L174.71,57.62 L178.01,58.83 L181.16,60.35 L184.13,62.15 L186.90,64.22 L189.46,66.54 L191.78,69.10 L193.85,71.87 L195.65,74.84 L197.17,77.99 L198.38,81.29 L199.27,84.74 L199.81,88.32 L200.00,92.00 L200.00,172.00 L199.81,175.68 L199.27,179.26 L198.38,182.71 L197.17,186.01 L195.65,189.16 L193.85,192.13 L191.78,194.90 L189.46,197.46 L186.90,199.78 L184.13,201.85 L181.16,203.65 L178.01,205.17 L174.71,206.38 L171.26,207.27 L167.68,207.81 L164.00,208.00 L118.88,208.00 L83.66,237.21 L82.15,238.28 L80.57,239.09 L78.94,239.63 L77.29,239.93 L75.63,239.98 L74.00,239.81 L72.41,239.42 L70.90,238.83 L69.47,238.04 L68.16,237.07 L66.98,235.92 L65.97,234.61 L65.14,233.15 L64.52,231.55 L64.13,229.82 L64.00,227.97 L64.00,208.00 L56.00,208.00 L52.73,207.83 L49.55,207.35 L46.48,206.56 L43.54,205.49 L40.75,204.14 L38.11,202.53 L35.65,200.69 L33.37,198.63 L31.31,196.35 L29.47,193.89 L27.86,191.25 L26.51,188.46 L25.44,185.52 L24.65,182.45 L24.17,179.27 L24.00,176.00 L24.00,92.00 Z" fill="#5b5fc7" stroke="#1e1e1e" stroke-width="1" stroke-linejoin="round"/><path d="M84.00,24.00 L81.48,24.10 L79.02,24.39 L76.61,24.86 L74.28,25.50 L72.01,26.32 L69.84,27.30 L67.75,28.43 L65.76,29.71 L63.87,31.13 L62.09,32.68 L60.43,34.35 L58.90,36.14 L57.51,38.05 L56.25,40.05 L55.14,42.16 L54.19,44.35 L57.07,44.09 L60.00,44.00 L164.00,44.00 L168.91,44.25 L173.67,44.98 L178.27,46.16 L182.68,47.77 L186.88,49.79 L190.84,52.20 L194.53,54.96 L197.94,58.06 L201.04,61.47 L203.80,65.16 L206.21,69.12 L208.23,73.32 L209.84,77.73 L211.02,82.33 L211.75,87.09 L212.00,92.00 L212.00,165.67 L214.16,164.71 L216.23,163.59 L218.20,162.32 L220.07,160.92 L221.84,159.39 L223.48,157.74 L225.00,155.97 L226.40,154.09 L227.65,152.11 L228.76,150.04 L229.72,147.88 L230.52,145.63 L231.16,143.32 L231.62,140.94 L231.90,138.49 L232.00,136.00 L232.00,76.00 L231.73,70.68 L230.94,65.52 L229.66,60.54 L227.91,55.76 L225.72,51.21 L223.12,46.93 L220.13,42.92 L216.77,39.23 L213.08,35.87 L209.07,32.88 L204.79,30.28 L200.24,28.09 L195.46,26.34 L190.48,25.06 L185.32,24.27 L180.00,24.00 L84.00,24.00 Z" fill="#aab1fa" stroke="#1e1e1e" stroke-width="1" stroke-linejoin="round"/></svg>