<svg xmlns="http://www.w3.org/2000/svg" viewBox="7.60 12.40 100.00 95.37"><path d="M9.60,31.80 L9.69,30.02 L9.95,28.29 L10.38,26.63 L10.97,25.03 L11.70,23.51 L12.57,22.07 L13.57,20.73 L14.70,19.50 L15.93,18.37 L17.27,17.37 L18.71,16.50 L20.23,15.77 L21.83,15.18 L23.49,14.75 L25.22,14.49 L27.00,14.40 L88.20,14.40 L89.98,14.49 L91.71,14.75 L93.37,15.18 L94.97,15.77 L96.49,16.50 L97.93,17.37 L99.27,18.37 L100.50,19.50 L101.63,20.73 L102.63,22.07 L103.50,23.51 L104.23,25.03 L104.82,26.63 L105.25,28.29 L105.51,30.02 L105.60,31.80 L105.60,69.00 L105.51,70.78 L105.25,72.51 L104.82,74.17 L104.23,75.77 L103.50,77.29 L102.63,78.73 L101.63,80.07 L100.50,81.30 L99.27,82.43 L97.93,83.43 L96.49,84.30 L94.97,85.03 L93.37,85.62 L91.71,86.05 L89.98,86.31 L88.20,86.40 L63.35,86.40 L37.31,104.78 L36.63,105.19 L35.92,105.49 L35.20,105.69 L34.47,105.77 L33.75,105.76 L33.05,105.65 L32.37,105.45 L31.72,105.16 L31.11,104.80 L30.55,104.35 L30.05,103.84 L29.63,103.26 L29.28,102.62 L29.02,101.92 L28.86,101.17 L28.80,100.37 L28.80,86.40 L27.00,86.40 L25.22,86.31 L23.49,86.05 L21.83,85.62 L20.23,85.03 L18.71,84.30 L17.27,83.43 L15.93,82.43 L14.70,81.30 L13.57,80.07 L12.57,78.73 L11.70,77.29 L10.97,75.77 L10.38,74.17 L9.95,72.51 L9.69,70.78 L9.60,69.00 L9.60,31.80 Z" fill="#5b5fc7" stroke="#1e1e1e" stroke-width="1" stroke-linejoin="round"/></svg>