<svg xmlns="http://www.w3.org/2000/svg" viewBox="30.00 29.96 196.00 196.00"><path d="M194.67,31.96 L197.67,32.11 L200.58,32.55 L203.39,33.28 L206.08,34.26 L208.65,35.50 L211.07,36.97 L213.33,38.66 L215.41,40.55 L217.30,42.63 L218.99,44.89 L220.46,47.31 L221.69,49.87 L222.68,52.57 L223.40,55.38 L223.85,58.29 L224.00,61.29 L224.00,194.63 L223.85,197.62 L223.40,200.54 L222.68,203.35 L221.69,206.04 L220.46,208.61 L218.99,211.03 L217.30,213.28 L215.41,215.37 L213.33,217.26 L211.07,218.95 L208.65,220.42 L206.08,221.65 L203.39,222.64 L200.58,223.36 L197.67,223.81 L194.67,223.96 L61.33,223.96 L58.33,223.81 L55.42,223.36 L52.61,222.64 L49.92,221.65 L47.35,220.42 L44.93,218.95 L42.67,217.26 L40.59,215.37 L38.70,213.28 L37.01,211.03 L35.54,208.61 L34.31,206.04 L33.32,203.35 L32.60,200.54 L32.15,197.62 L32.00,194.63 L32.00,61.29 L32.15,58.29 L32.60,55.38 L33.32,52.57 L34.31,49.87 L35.54,47.31 L37.01,44.89 L38.70,42.63 L40.59,40.55 L42.67,38.66 L44.93,36.97 L47.35,35.50 L49.92,34.26 L52.61,33.28 L55.42,32.55 L58.33,32.11 L61.33,31.96 L194.67,31.96 Z" fill="#0078d4" stroke="#1e1e1e" stroke-width="1" stroke-linejoin="round"/><path d="M82.67,95.99 L81.05,96.16 L79.55,96.62 L78.19,97.35 L77.01,98.33 L76.03,99.51 L75.30,100.86 L74.83,102.35 L74.67,103.96 L74.67,173.36 L74.83,174.97 L75.30,176.46 L76.03,177.81 L77.01,178.99 L78.19,179.97 L79.55,180.70 L81.05,181.17 L82.67,181.33 L84.28,181.17 L85.78,180.70 L87.14,179.97 L88.32,178.99 L89.30,177.81 L90.04,176.46 L90.50,174.97 L90.67,173.36 L90.67,103.96 L90.50,102.35 L90.04,100.86 L89.30,99.51 L88.32,98.33 L87.14,97.35 L85.78,96.62 L84.28,96.16 L82.67,95.99 Z" fill="#ffffff" stroke="#1e1e1e" stroke-width="1" stroke-linejoin="round"/><path d="M173.33,74.66 L171.72,74.82 L170.22,75.27 L168.86,75.99 L167.68,76.94 L166.70,78.09 L165.96,79.41 L165.50,80.87 L165.33,82.44 L165.33,173.55 L165.50,175.11 L165.96,176.58 L166.70,177.90 L167.68,179.05 L168.86,180.00 L170.22,180.72 L171.72,181.17 L173.33,181.33 L174.95,181.17 L176.45,180.72 L177.81,180.00 L178.99,179.05 L179.97,177.90 L180.70,176.58 L181.17,175.11 L181.33,173.55 L181.33,82.44 L181.17,80.87 L180.70,79.41 L179.97,78.09 L178.99,76.94 L177.81,75.99 L176.45,75.27 L174.95,74.82 L173.33,74.66 Z" fill="#ffffff" stroke="#1e1e1e" stroke-width="1" stroke-linejoin="round"/><path d="M127.73,127.96 L126.16,128.13 L124.70,128.60 L123.38,129.32 L122.23,130.28 L121.29,131.44 L120.58,132.76 L120.14,134.22 L120.00,135.78 L120.38,173.62 L120.55,175.18 L121.02,176.63 L121.75,177.94 L122.72,179.08 L123.89,180.01 L125.22,180.71 L126.69,181.15 L128.27,181.29 L129.84,181.12 L131.30,180.65 L132.62,179.93 L133.77,178.97 L134.71,177.81 L135.42,176.49 L135.86,175.03 L136.00,173.47 L135.62,135.63 L135.45,134.07 L134.98,132.62 L134.25,131.31 L133.28,130.17 L132.11,129.24 L130.78,128.54 L129.31,128.10 L127.73,127.96 Z" fill="#ffffff" stroke="#1e1e1e" stroke-width="1" stroke-linejoin="round"/></svg>