<svg xmlns="http://www.w3.org/2000/svg" viewBox="30.00 30.00 196.00 196.00"><path d="M40.00,32.00 L41.61,32.16 L43.11,32.63 L44.47,33.37 L45.66,34.34 L46.63,35.53 L47.37,36.89 L47.84,38.39 L48.00,40.00 L48.00,189.33 L48.10,191.24 L48.38,193.10 L48.84,194.88 L49.47,196.60 L50.25,198.23 L51.19,199.77 L52.26,201.21 L53.47,202.53 L54.79,203.74 L56.23,204.81 L57.77,205.75 L59.40,206.53 L61.12,207.16 L62.90,207.62 L64.76,207.90 L66.67,208.00 L216.00,208.00 L217.61,208.16 L219.11,208.63 L220.47,209.37 L221.66,210.34 L222.63,211.53 L223.37,212.89 L223.84,214.39 L224.00,216.00 L223.84,217.61 L223.37,219.11 L222.63,220.47 L221.66,221.66 L220.47,222.63 L219.11,223.37 L217.61,223.84 L216.00,224.00 L66.67,224.00 L63.12,223.82 L59.68,223.30 L56.36,222.44 L53.17,221.28 L50.14,219.82 L47.28,218.08 L44.62,216.08 L42.15,213.85 L39.92,211.38 L37.92,208.72 L36.18,205.86 L34.72,202.83 L33.56,199.64 L32.70,196.32 L32.18,192.88 L32.00,189.33 L32.00,40.00 L32.16,38.39 L32.63,36.89 L33.37,35.53 L34.34,34.34 L35.53,33.37 L36.89,32.63 L38.39,32.16 L40.00,32.00 Z" fill="#0078d4" stroke="#1e1e1e" stroke-width="1" stroke-linejoin="round"/><path d="M202.67,91.31 L202.67,125.33 L202.83,126.95 L203.30,128.45 L204.03,129.81 L205.01,130.99 L206.19,131.97 L207.55,132.70 L209.05,133.17 L210.67,133.33 L212.28,133.17 L213.78,132.70 L215.14,131.97 L216.32,130.99 L217.30,129.81 L218.04,128.45 L218.50,126.95 L218.67,125.33 L218.67,72.00 L218.51,70.43 L218.06,68.94 L217.32,67.56 L216.32,66.34 L215.11,65.34 L213.73,64.61 L212.23,64.16 L210.67,64.00 L157.33,64.00 L155.72,64.16 L154.22,64.63 L152.86,65.37 L151.68,66.34 L150.70,67.53 L149.96,68.89 L149.50,70.39 L149.33,72.00 L149.50,73.61 L149.96,75.11 L150.70,76.47 L151.68,77.66 L152.86,78.63 L154.22,79.37 L155.72,79.84 L157.33,80.00 L191.35,80.00 L146.40,124.95 L122.71,103.41 L121.49,102.49 L120.14,101.84 L118.72,101.45 L117.26,101.33 L115.81,101.48 L114.40,101.89 L113.06,102.57 L111.85,103.51 L66.52,146.17 L65.45,147.40 L64.68,148.77 L64.20,150.23 L64.00,151.76 L64.10,153.29 L64.50,154.78 L65.19,156.20 L66.17,157.48 L67.40,158.55 L68.77,159.32 L70.23,159.80 L71.76,160.00 L73.29,159.90 L74.78,159.50 L76.20,158.81 L77.48,157.83 L117.43,120.23 L141.29,141.92 L142.54,142.86 L143.92,143.51 L145.37,143.89 L146.86,144.00 L148.34,143.82 L149.77,143.38 L151.11,142.65 L152.32,141.66 L202.67,91.31 Z" fill="#0078d4" stroke="#1e1e1e" stroke-width="1" stroke-linejoin="round"/></svg>