<svg xmlns="http://www.w3.org/2000/svg" viewBox="18.00 14.00 92.00 100.00"><path d="M20.00,28.00 L20.06,26.77 L20.24,25.58 L20.54,24.43 L20.94,23.33 L21.45,22.28 L22.05,21.29 L22.74,20.37 L23.51,19.51 L24.37,18.74 L25.29,18.05 L26.28,17.45 L27.33,16.94 L28.43,16.54 L29.58,16.24 L30.77,16.06 L32.00,16.00 L33.23,16.06 L34.42,16.24 L35.57,16.54 L36.67,16.94 L37.72,17.45 L38.71,18.05 L39.63,18.74 L40.49,19.51 L41.26,20.37 L41.95,21.29 L42.55,22.28 L43.06,23.33 L43.46,24.43 L43.76,25.58 L43.94,26.77 L44.00,28.00 L44.00,100.00 L43.94,101.23 L43.76,102.42 L43.46,103.57 L43.06,104.67 L42.55,105.72 L41.95,106.71 L41.26,107.63 L40.49,108.49 L39.63,109.26 L38.71,109.95 L37.72,110.55 L36.67,111.06 L35.57,111.46 L34.42,111.76 L33.23,111.94 L32.00,112.00 L30.77,111.94 L29.58,111.76 L28.43,111.46 L27.33,111.06 L26.28,110.55 L25.29,109.95 L24.37,109.26 L23.51,108.49 L22.74,107.63 L22.05,106.71 L21.45,105.72 L20.94,104.67 L20.54,103.57 L20.24,102.42 L20.06,101.23 L20.00,100.00 L20.00,28.00 Z" fill="#0078d4" stroke="#1e1e1e" stroke-width="1" stroke-linejoin="round"/><path d="M52.00,52.00 L52.06,50.77 L52.24,49.58 L52.54,48.43 L52.94,47.33 L53.45,46.28 L54.05,45.29 L54.74,44.37 L55.51,43.51 L56.37,42.74 L57.29,42.05 L58.28,41.45 L59.33,40.94 L60.43,40.54 L61.58,40.24 L62.77,40.06 L64.00,40.00 L65.23,40.06 L66.42,40.24 L67.57,40.54 L68.67,40.94 L69.72,41.45 L70.71,42.05 L71.63,42.74 L72.49,43.51 L73.26,44.37 L73.95,45.29 L74.55,46.28 L75.06,47.33 L75.46,48.43 L75.76,49.58 L75.94,50.77 L76.00,52.00 L76.00,100.00 L75.94,101.23 L75.76,102.42 L75.46,103.57 L75.06,104.67 L74.55,105.72 L73.95,106.71 L73.26,107.63 L72.49,108.49 L71.63,109.26 L70.71,109.95 L69.72,110.55 L68.67,111.06 L67.57,111.46 L66.42,111.76 L65.23,111.94 L64.00,112.00 L62.77,111.94 L61.58,111.76 L60.43,111.46 L59.33,111.06 L58.28,110.55 L57.29,109.95 L56.37,109.26 L55.51,108.49 L54.74,107.63 L54.05,106.71 L53.45,105.72 L52.94,104.67 L52.54,103.57 L52.24,102.42 L52.06,101.23 L52.00,100.00 L52.00,52.00 Z" fill="#0078d4" stroke="#1e1e1e" stroke-width="1" stroke-linejoin="round"/><path d="M96.00,64.00 L94.77,64.06 L93.58,64.24 L92.43,64.54 L91.33,64.94 L90.28,65.45 L89.29,66.05 L88.37,66.74 L87.51,67.51 L86.74,68.37 L86.05,69.29 L85.45,70.28 L84.94,71.33 L84.54,72.43 L84.24,73.58 L84.06,74.77 L84.00,76.00 L84.00,100.00 L84.06,101.23 L84.24,102.42 L84.54,103.57 L84.94,104.67 L85.45,105.72 L86.05,106.71 L86.74,107.63 L87.51,108.49 L88.37,109.26 L89.29,109.95 L90.28,110.55 L91.33,111.06 L92.43,111.46 L93.58,111.76 L94.77,111.94 L96.00,112.00 L97.23,111.94 L98.42,111.76 L99.57,111.46 L100.67,111.06 L101.72,110.55 L102.71,109.95 L103.63,109.26 L104.49,108.49 L105.26,107.63 L105.95,106.71 L106.55,105.72 L107.06,104.67 L107.46,103.57 L107.76,102.42 L107.94,101.23 L108.00,100.00 L108.00,76.00 L107.94,74.77 L107.76,73.58 L107.46,72.43 L107.06,71.33 L106.55,70.28 L105.95,69.29 L105.26,68.37 L104.49,67.51 L103.63,66.74 L102.71,66.05 L101.72,65.45 L100.67,64.94 L99.57,64.54 L98.42,64.24 L97.23,64.06 L96.00,64.00 Z" fill="#0078d4" stroke="#1e1e1e" stroke-width="1" stroke-linejoin="round"/></svg>