<svg xmlns="http://www.w3.org/2000/svg" viewBox="14.00 14.00 100.00 100.00"><path d="M16.00,20.00 L16.08,19.19 L16.31,18.44 L16.68,17.76 L17.17,17.17 L17.76,16.68 L18.44,16.31 L19.19,16.08 L20.00,16.00 L20.81,16.08 L21.56,16.31 L22.24,16.68 L22.83,17.17 L23.32,17.76 L23.69,18.44 L23.92,19.19 L24.00,20.00 L24.00,104.00 L108.00,104.00 L108.81,104.08 L109.56,104.31 L110.24,104.68 L110.83,105.17 L111.32,105.76 L111.69,106.44 L111.92,107.19 L112.00,108.00 L111.92,108.81 L111.69,109.56 L111.32,110.24 L110.83,110.83 L110.24,111.32 L109.56,111.69 L108.81,111.92 L108.00,112.00 L20.00,112.00 L19.19,111.92 L18.44,111.69 L17.76,111.32 L17.17,110.83 L16.68,110.24 L16.31,109.56 L16.08,108.81 L16.00,108.00 L16.00,20.00 Z" fill="#0078d4" stroke="#1e1e1e" stroke-width="1" stroke-linejoin="round"/><path d="M104.00,36.00 L103.85,34.90 L103.40,33.90 L102.71,33.05 L101.79,32.42 L100.73,32.07 L99.64,32.02 L98.58,32.26 L97.60,32.80 L67.73,55.20 L47.36,43.22 L46.44,42.82 L45.47,42.67 L44.49,42.76 L43.54,43.09 L29.33,50.19 L29.33,98.67 L104.00,98.67 L104.00,36.00 Z" fill="#0078d4" stroke="#1e1e1e" stroke-width="1" stroke-linejoin="round"/></svg>