<svg xmlns="http://www.w3.org/2000/svg" viewBox="14.00 13.98 100.00 100.00"><path d="M97.33,15.98 L98.83,16.05 L100.29,16.28 L101.69,16.64 L103.04,17.13 L104.32,17.75 L105.53,18.48 L106.66,19.33 L107.70,20.27 L108.65,21.32 L109.50,22.45 L110.23,23.65 L110.85,24.94 L111.34,26.28 L111.70,27.69 L111.92,29.15 L112.00,30.65 L112.00,97.31 L111.92,98.81 L111.70,100.27 L111.34,101.67 L110.85,103.02 L110.23,104.30 L109.50,105.51 L108.65,106.64 L107.70,107.68 L106.66,108.63 L105.53,109.47 L104.32,110.21 L103.04,110.83 L101.69,111.32 L100.29,111.68 L98.83,111.90 L97.33,111.98 L30.67,111.98 L29.17,111.90 L27.71,111.68 L26.31,111.32 L24.96,110.83 L23.68,110.21 L22.47,109.47 L21.34,108.63 L20.30,107.68 L19.35,106.64 L18.50,105.51 L17.77,104.30 L17.15,103.02 L16.66,101.67 L16.30,100.27 L16.08,98.81 L16.00,97.31 L16.00,30.65 L16.08,29.15 L16.30,27.69 L16.66,26.28 L17.15,24.94 L17.77,23.65 L18.50,22.45 L19.35,21.32 L20.30,20.27 L21.34,19.33 L22.47,18.48 L23.68,17.75 L24.96,17.13 L26.31,16.64 L27.71,16.28 L29.17,16.05 L30.67,15.98 L97.33,15.98 Z" fill="#0078d4" stroke="#0078d4" stroke-width="1" stroke-linejoin="round"/><path d="M41.33,48.00 L40.53,48.08 L39.78,48.31 L39.10,48.68 L38.50,49.16 L38.02,49.75 L37.65,50.43 L37.41,51.18 L37.33,51.98 L37.33,86.68 L37.41,87.48 L37.65,88.23 L38.02,88.91 L38.50,89.50 L39.10,89.98 L39.78,90.35 L40.53,90.58 L41.33,90.66 L42.14,90.58 L42.89,90.35 L43.57,89.98 L44.16,89.50 L44.65,88.91 L45.02,88.23 L45.25,87.48 L45.33,86.68 L45.33,51.98 L45.25,51.18 L45.02,50.43 L44.65,49.75 L44.16,49.16 L43.57,48.68 L42.89,48.31 L42.14,48.08 L41.33,48.00 Z" fill="#ffffff" stroke="#ffffff" stroke-width="1" stroke-linejoin="round"/><path d="M86.67,37.33 L85.86,37.41 L85.11,37.64 L84.43,37.99 L83.84,38.47 L83.35,39.05 L82.98,39.71 L82.75,40.44 L82.67,41.22 L82.67,86.77 L82.75,87.56 L82.98,88.29 L83.35,88.95 L83.84,89.52 L84.43,90.00 L85.11,90.36 L85.86,90.58 L86.67,90.66 L87.47,90.58 L88.22,90.36 L88.90,90.00 L89.50,89.52 L89.98,88.95 L90.35,88.29 L90.59,87.56 L90.67,86.77 L90.67,41.22 L90.59,40.44 L90.35,39.71 L89.98,39.05 L89.50,38.47 L88.90,37.99 L88.22,37.64 L87.47,37.41 L86.67,37.33 Z" fill="#ffffff" stroke="#ffffff" stroke-width="1" stroke-linejoin="round"/><path d="M63.87,63.98 L63.08,64.07 L62.35,64.30 L61.69,64.66 L61.12,65.14 L60.65,65.72 L60.29,66.38 L60.07,67.11 L60.00,67.89 L60.19,86.81 L60.28,87.59 L60.51,88.32 L60.88,88.97 L61.36,89.54 L61.94,90.01 L62.61,90.36 L63.34,90.58 L64.13,90.65 L64.92,90.56 L65.65,90.33 L66.31,89.96 L66.88,89.48 L67.35,88.91 L67.71,88.24 L67.93,87.52 L68.00,86.73 L67.81,67.81 L67.72,67.03 L67.49,66.31 L67.12,65.66 L66.64,65.09 L66.06,64.62 L65.39,64.27 L64.66,64.05 L63.87,63.98 Z" fill="#ffffff" stroke="#ffffff" stroke-width="1" stroke-linejoin="round"/></svg>