<svg xmlns="http://www.w3.org/2000/svg" viewBox="14.00 14.00 100.00 100.00"><path d="M20.00,16.00 L20.81,16.08 L21.56,16.31 L22.24,16.68 L22.83,17.17 L23.32,17.76 L23.69,18.44 L23.92,19.19 L24.00,20.00 L24.00,94.67 L24.05,95.62 L24.19,96.55 L24.42,97.44 L24.73,98.30 L25.13,99.12 L25.59,99.89 L26.13,100.60 L26.73,101.27 L27.40,101.87 L28.11,102.41 L28.88,102.87 L29.70,103.27 L30.56,103.58 L31.45,103.81 L32.38,103.95 L33.33,104.00 L108.00,104.00 L108.81,104.08 L109.56,104.31 L110.24,104.68 L110.83,105.17 L111.32,105.76 L111.69,106.44 L111.92,107.19 L112.00,108.00 L111.92,108.81 L111.69,109.56 L111.32,110.24 L110.83,110.83 L110.24,111.32 L109.56,111.69 L108.81,111.92 L108.00,112.00 L33.33,112.00 L31.56,111.91 L29.84,111.65 L28.18,111.22 L26.59,110.64 L25.07,109.91 L23.64,109.04 L22.31,108.04 L21.08,106.92 L19.96,105.69 L18.96,104.36 L18.09,102.93 L17.36,101.41 L16.78,99.82 L16.35,98.16 L16.09,96.44 L16.00,94.67 L16.00,20.00 L16.08,19.19 L16.31,18.44 L16.68,17.76 L17.17,17.17 L17.76,16.68 L18.44,16.31 L19.19,16.08 L20.00,16.00 Z" fill="#0078d4" stroke="#1e1e1e" stroke-width="1" stroke-linejoin="round"/><path d="M101.33,45.66 L101.33,62.67 L101.41,63.47 L101.65,64.22 L102.02,64.90 L102.50,65.50 L103.10,65.98 L103.78,66.35 L104.53,66.59 L105.33,66.67 L106.14,66.59 L106.89,66.35 L107.57,65.98 L108.16,65.50 L108.65,64.90 L109.02,64.22 L109.25,63.47 L109.33,62.67 L109.33,36.00 L109.26,35.22 L109.03,34.47 L108.66,33.78 L108.16,33.17 L107.55,32.67 L106.86,32.30 L106.12,32.08 L105.33,32.00 L78.67,32.00 L77.86,32.08 L77.11,32.31 L76.43,32.68 L75.84,33.17 L75.35,33.76 L74.98,34.44 L74.75,35.19 L74.67,36.00 L74.75,36.81 L74.98,37.56 L75.35,38.24 L75.84,38.83 L76.43,39.32 L77.11,39.69 L77.86,39.92 L78.67,40.00 L95.68,40.00 L73.20,62.47 L61.36,51.71 L60.74,51.25 L60.07,50.92 L59.36,50.73 L58.63,50.67 L57.90,50.74 L57.20,50.95 L56.53,51.28 L55.93,51.75 L33.26,73.09 L32.73,73.70 L32.34,74.38 L32.10,75.12 L32.00,75.88 L32.05,76.64 L32.25,77.39 L32.59,78.10 L33.09,78.74 L33.70,79.27 L34.38,79.66 L35.12,79.90 L35.88,80.00 L36.64,79.95 L37.39,79.75 L38.10,79.41 L38.74,78.91 L58.71,60.12 L70.64,70.96 L71.27,71.43 L71.96,71.76 L72.69,71.95 L73.43,72.00 L74.17,71.91 L74.88,71.69 L75.56,71.33 L76.16,70.83 L101.33,45.66 Z" fill="#0078d4" stroke="#1e1e1e" stroke-width="1" stroke-linejoin="round"/></svg>