<svg xmlns="http://www.w3.org/2000/svg" viewBox="40.67 19.33 174.67 217.33"><path d="M128.00,21.33 L119.67,21.53 L111.55,22.09 L103.68,23.02 L96.11,24.28 L88.88,25.88 L82.02,27.79 L75.58,29.99 L69.60,32.48 L64.22,35.19 L59.19,38.26 L54.62,41.68 L52.54,43.53 L50.62,45.46 L48.87,47.48 L47.31,49.59 L45.95,51.78 L44.81,54.06 L43.89,56.42 L43.22,58.86 L42.81,61.39 L42.67,64.00 L42.81,66.61 L43.22,69.14 L43.89,71.58 L44.81,73.94 L45.95,76.22 L47.31,78.41 L48.87,80.52 L50.62,82.54 L52.54,84.47 L54.62,86.32 L59.19,89.74 L64.22,92.81 L69.60,95.52 L75.58,98.01 L82.02,100.21 L88.88,102.12 L96.11,103.72 L103.68,104.98 L111.55,105.91 L119.67,106.47 L128.00,106.67 L136.33,106.47 L144.45,105.91 L152.32,104.98 L159.89,103.72 L167.12,102.12 L173.98,100.21 L180.42,98.01 L186.40,95.52 L191.78,92.81 L196.81,89.74 L201.38,86.32 L203.46,84.47 L205.38,82.54 L207.13,80.52 L208.69,78.41 L210.05,76.22 L211.19,73.94 L212.11,71.58 L212.78,69.14 L213.19,66.61 L213.33,64.00 L213.19,61.39 L212.78,58.86 L212.11,56.42 L211.19,54.06 L210.05,51.78 L208.69,49.59 L207.13,47.48 L205.38,45.46 L203.46,43.53 L201.38,41.68 L196.81,38.26 L191.78,35.19 L186.40,32.48 L180.42,29.99 L173.98,27.79 L167.12,25.88 L159.89,24.28 L152.32,23.02 L144.45,22.09 L136.33,21.53 L128.00,21.33 Z" fill="#0078d4" stroke="#1e1e1e" stroke-width="1" stroke-linejoin="round"/><path d="M42.67,93.46 L45.14,95.74 L47.72,97.86 L53.11,101.68 L58.62,104.93 L64.05,107.64 L70.81,110.46 L78.02,112.93 L85.62,115.05 L93.58,116.81 L101.84,118.19 L110.36,119.19 L119.10,119.80 L128.00,120.00 L136.90,119.80 L145.64,119.19 L154.16,118.19 L162.42,116.81 L170.38,115.05 L177.98,112.93 L185.19,110.46 L191.95,107.64 L197.38,104.93 L202.89,101.68 L208.28,97.86 L210.86,95.74 L213.33,93.46 L213.33,193.33 L213.30,193.33 L213.03,195.82 L212.51,198.23 L211.76,200.57 L210.78,202.82 L209.60,204.99 L208.22,207.09 L206.65,209.10 L204.91,211.04 L203.01,212.89 L200.97,214.66 L196.51,217.95 L191.61,220.90 L186.40,223.52 L180.42,226.01 L173.98,228.21 L167.12,230.12 L159.89,231.72 L152.32,232.98 L144.45,233.91 L136.33,234.47 L128.00,234.67 L119.67,234.47 L111.55,233.91 L103.68,232.98 L96.11,231.72 L88.88,230.12 L82.02,228.21 L75.58,226.01 L69.60,223.52 L64.39,220.90 L59.49,217.95 L55.03,214.66 L52.99,212.89 L51.09,211.04 L49.35,209.10 L47.78,207.09 L46.40,204.99 L45.22,202.82 L44.24,200.57 L43.49,198.23 L42.97,195.82 L42.70,193.33 L42.67,193.33 L42.67,93.46 Z" fill="#0078d4" stroke="#1e1e1e" stroke-width="1" stroke-linejoin="round"/></svg>