<svg xmlns="http://www.w3.org/2000/svg" viewBox="38.00 30.00 180.00 196.00"><path d="M40.00,56.00 L40.12,53.55 L40.49,51.16 L41.08,48.86 L41.89,46.66 L42.90,44.56 L44.10,42.58 L45.48,40.73 L47.03,39.03 L48.73,37.48 L50.58,36.10 L52.56,34.90 L54.66,33.89 L56.86,33.08 L59.16,32.49 L61.55,32.12 L64.00,32.00 L66.45,32.12 L68.84,32.49 L71.14,33.08 L73.34,33.89 L75.44,34.90 L77.42,36.10 L79.27,37.48 L80.97,39.03 L82.52,40.73 L83.90,42.58 L85.10,44.56 L86.11,46.66 L86.92,48.86 L87.51,51.16 L87.88,53.55 L88.00,56.00 L88.00,200.00 L87.88,202.45 L87.51,204.84 L86.92,207.14 L86.11,209.34 L85.10,211.44 L83.90,213.42 L82.52,215.27 L80.97,216.97 L79.27,218.52 L77.42,219.90 L75.44,221.10 L73.34,222.11 L71.14,222.92 L68.84,223.51 L66.45,223.88 L64.00,224.00 L61.55,223.88 L59.16,223.51 L56.86,222.92 L54.66,222.11 L52.56,221.10 L50.58,219.90 L48.73,218.52 L47.03,216.97 L45.48,215.27 L44.10,213.42 L42.90,211.44 L41.89,209.34 L41.08,207.14 L40.49,204.84 L40.12,202.45 L40.00,200.00 L40.00,56.00 Z" fill="#0078d4" stroke="#1e1e1e" stroke-width="1" stroke-linejoin="round"/><path d="M104.00,104.00 L104.12,101.55 L104.49,99.16 L105.08,96.86 L105.89,94.66 L106.90,92.56 L108.10,90.58 L109.48,88.73 L111.03,87.03 L112.73,85.48 L114.58,84.10 L116.56,82.90 L118.66,81.89 L120.86,81.08 L123.16,80.49 L125.55,80.12 L128.00,80.00 L130.45,80.12 L132.84,80.49 L135.14,81.08 L137.34,81.89 L139.44,82.90 L141.42,84.10 L143.27,85.48 L144.97,87.03 L146.52,88.73 L147.90,90.58 L149.10,92.56 L150.11,94.66 L150.92,96.86 L151.51,99.16 L151.88,101.55 L152.00,104.00 L152.00,200.00 L151.88,202.45 L151.51,204.84 L150.92,207.14 L150.11,209.34 L149.10,211.44 L147.90,213.42 L146.52,215.27 L144.97,216.97 L143.27,218.52 L141.42,219.90 L139.44,221.10 L137.34,222.11 L135.14,222.92 L132.84,223.51 L130.45,223.88 L128.00,224.00 L125.55,223.88 L123.16,223.51 L120.86,222.92 L118.66,222.11 L116.56,221.10 L114.58,219.90 L112.73,218.52 L111.03,216.97 L109.48,215.27 L108.10,213.42 L106.90,211.44 L105.89,209.34 L105.08,207.14 L104.49,204.84 L104.12,202.45 L104.00,200.00 L104.00,104.00 Z" fill="#0078d4" stroke="#1e1e1e" stroke-width="1" stroke-linejoin="round"/><path d="M192.00,128.00 L189.55,128.12 L187.16,128.49 L184.86,129.08 L182.66,129.89 L180.56,130.90 L178.58,132.10 L176.73,133.48 L175.03,135.03 L173.48,136.73 L172.10,138.58 L170.90,140.56 L169.89,142.66 L169.08,144.86 L168.49,147.16 L168.12,149.55 L168.00,152.00 L168.00,200.00 L168.12,202.45 L168.49,204.84 L169.08,207.14 L169.89,209.34 L170.90,211.44 L172.10,213.42 L173.48,215.27 L175.03,216.97 L176.73,218.52 L178.58,219.90 L180.56,221.10 L182.66,222.11 L184.86,222.92 L187.16,223.51 L189.55,223.88 L192.00,224.00 L194.45,223.88 L196.84,223.51 L199.14,222.92 L201.34,222.11 L203.44,221.10 L205.42,219.90 L207.27,218.52 L208.97,216.97 L210.52,215.27 L211.90,213.42 L213.10,211.44 L214.11,209.34 L214.92,207.14 L215.51,204.84 L215.88,202.45 L216.00,200.00 L216.00,152.00 L215.88,149.55 L215.51,147.16 L214.92,144.86 L214.11,142.66 L213.10,140.56 L211.90,138.58 L210.52,136.73 L208.97,135.03 L207.27,133.48 L205.42,132.10 L203.44,130.90 L201.34,129.89 L199.14,129.08 L196.84,128.49 L194.45,128.12 L192.00,128.00 Z" fill="#0078d4" stroke="#1e1e1e" stroke-width="1" stroke-linejoin="round"/></svg>