<svg xmlns="http://www.w3.org/2000/svg" viewBox="16.67 16.67 222.67 222.67"><path d="M117.33,53.33 L117.17,51.72 L116.70,50.22 L115.97,48.86 L114.99,47.68 L113.81,46.70 L112.45,45.96 L110.95,45.50 L109.33,45.33 L104.41,45.46 L99.58,45.83 L94.85,46.44 L90.22,47.28 L85.69,48.36 L81.28,49.65 L76.98,51.16 L72.80,52.88 L68.74,54.80 L64.81,56.92 L61.01,59.23 L57.35,61.73 L53.82,64.41 L50.44,67.26 L47.20,70.27 L44.12,73.45 L41.19,76.79 L38.42,80.27 L35.81,83.90 L33.37,87.66 L31.11,91.55 L29.02,95.57 L27.11,99.71 L25.38,103.97 L23.84,108.33 L22.49,112.79 L21.34,117.34 L20.39,121.99 L19.64,126.71 L19.10,131.52 L18.78,136.39 L18.67,141.33 L18.79,146.27 L19.16,151.15 L19.77,155.95 L20.62,160.68 L21.69,165.33 L22.98,169.88 L24.49,174.34 L26.21,178.70 L28.13,182.95 L30.25,187.09 L32.56,191.11 L35.06,195.01 L37.74,198.77 L40.59,202.40 L43.61,205.88 L46.78,209.22 L50.12,212.39 L53.60,215.41 L57.23,218.26 L60.99,220.94 L64.89,223.44 L68.91,225.75 L73.05,227.87 L77.30,229.79 L81.66,231.51 L86.12,233.02 L90.67,234.31 L95.32,235.38 L100.05,236.23 L104.85,236.84 L109.73,237.21 L114.67,237.33 L119.61,237.22 L124.48,236.90 L129.29,236.36 L134.01,235.61 L138.66,234.66 L143.21,233.51 L147.67,232.16 L152.03,230.62 L156.29,228.89 L160.43,226.98 L164.45,224.89 L168.34,222.63 L172.10,220.19 L175.73,217.58 L179.21,214.81 L182.55,211.88 L185.73,208.80 L188.74,205.56 L191.59,202.18 L194.27,198.65 L196.77,194.99 L199.08,191.19 L201.20,187.26 L203.12,183.20 L204.84,179.02 L206.35,174.72 L207.64,170.31 L208.72,165.78 L209.56,161.15 L210.17,156.42 L210.54,151.59 L210.67,146.67 L210.59,145.58 L210.27,144.16 L209.70,142.85 L208.92,141.68 L207.95,140.66 L206.82,139.82 L205.54,139.20 L204.15,138.80 L202.67,138.67 L117.33,138.67 L117.33,53.33 Z" fill="#0078d4" stroke="#1e1e1e" stroke-width="1" stroke-linejoin="round"/><path d="M141.33,18.67 L146.27,18.79 L151.15,19.16 L155.95,19.77 L160.68,20.62 L165.33,21.69 L169.88,22.98 L174.34,24.49 L178.70,26.21 L182.95,28.13 L187.09,30.25 L191.11,32.56 L195.01,35.06 L198.77,37.74 L202.40,40.59 L205.88,43.61 L209.22,46.78 L212.39,50.12 L215.41,53.60 L218.26,57.23 L220.94,60.99 L223.44,64.89 L225.75,68.91 L227.87,73.05 L229.79,77.30 L231.51,81.66 L233.02,86.12 L234.31,90.67 L235.38,95.32 L236.23,100.05 L236.84,104.85 L237.21,109.73 L237.33,114.67 L237.17,116.28 L236.70,117.78 L235.97,119.14 L234.99,120.32 L233.81,121.30 L232.45,122.04 L230.95,122.50 L229.33,122.67 L141.33,122.67 L139.72,122.50 L138.22,122.04 L136.86,121.30 L135.68,120.32 L134.70,119.14 L133.96,117.78 L133.50,116.28 L133.33,114.67 L133.33,26.67 L133.50,25.05 L133.96,23.55 L134.70,22.19 L135.68,21.01 L136.86,20.03 L138.22,19.30 L139.72,18.83 L141.33,18.67 Z" fill="#8dc8e8" stroke="#1e1e1e" stroke-width="1" stroke-linejoin="round"/></svg>