<svg xmlns="http://www.w3.org/2000/svg" viewBox="17.20 7.60 80.80 100.00"><path d="M57.60,9.60 L53.85,9.69 L50.20,9.94 L46.66,10.36 L43.25,10.93 L39.99,11.65 L36.91,12.50 L34.01,13.50 L31.32,14.62 L28.90,15.83 L26.63,17.22 L24.58,18.76 L23.64,19.59 L22.78,20.46 L21.99,21.37 L21.29,22.31 L20.68,23.30 L20.16,24.33 L19.75,25.39 L19.45,26.49 L19.26,27.63 L19.20,28.80 L19.26,29.97 L19.45,31.11 L19.75,32.21 L20.16,33.27 L20.68,34.30 L21.29,35.29 L21.99,36.23 L22.78,37.14 L23.64,38.01 L24.58,38.84 L26.63,40.38 L28.90,41.77 L31.32,42.98 L34.01,44.10 L36.91,45.10 L39.99,45.95 L43.25,46.67 L46.66,47.24 L50.20,47.66 L53.85,47.91 L57.60,48.00 L61.35,47.91 L65.00,47.66 L68.54,47.24 L71.95,46.67 L75.21,45.95 L78.29,45.10 L81.19,44.10 L83.88,42.98 L86.30,41.77 L88.57,40.38 L90.62,38.84 L91.56,38.01 L92.42,37.14 L93.21,36.23 L93.91,35.29 L94.52,34.30 L95.04,33.27 L95.45,32.21 L95.75,31.11 L95.94,29.97 L96.00,28.80 L95.94,27.63 L95.75,26.49 L95.45,25.39 L95.04,24.33 L94.52,23.30 L93.91,22.31 L93.21,21.37 L92.42,20.46 L91.56,19.59 L90.62,18.76 L88.57,17.22 L86.30,15.83 L83.88,14.62 L81.19,13.50 L78.29,12.50 L75.21,11.65 L71.95,10.93 L68.54,10.36 L65.00,9.94 L61.35,9.69 L57.60,9.60 Z" fill="#0078d4" stroke="#1e1e1e" stroke-width="1" stroke-linejoin="round"/><path d="M19.20,42.06 L20.31,43.08 L21.48,44.04 L23.90,45.76 L26.38,47.22 L28.82,48.44 L31.87,49.71 L35.11,50.82 L38.53,51.77 L42.11,52.56 L45.83,53.19 L49.66,53.63 L53.59,53.91 L57.60,54.00 L61.61,53.91 L65.54,53.63 L69.37,53.19 L73.09,52.56 L76.67,51.77 L80.09,50.82 L83.33,49.71 L86.38,48.44 L88.82,47.22 L91.30,45.76 L93.72,44.04 L94.89,43.08 L96.00,42.06 L96.00,87.00 L95.98,87.00 L95.86,88.12 L95.63,89.20 L95.29,90.25 L94.85,91.27 L94.32,92.25 L93.70,93.19 L92.99,94.10 L92.21,94.97 L91.36,95.80 L90.44,96.60 L88.43,98.08 L86.23,99.41 L83.88,100.58 L81.19,101.70 L78.29,102.70 L75.21,103.55 L71.95,104.27 L68.54,104.84 L65.00,105.26 L61.35,105.51 L57.60,105.60 L53.85,105.51 L50.20,105.26 L46.66,104.84 L43.25,104.27 L39.99,103.55 L36.91,102.70 L34.01,101.70 L31.32,100.58 L28.97,99.41 L26.77,98.08 L24.76,96.60 L23.84,95.80 L22.99,94.97 L22.21,94.10 L21.50,93.19 L20.88,92.25 L20.35,91.27 L19.91,90.25 L19.57,89.20 L19.34,88.12 L19.22,87.00 L19.20,87.00 L19.20,42.06 Z" fill="#0078d4" stroke="#1e1e1e" stroke-width="1" stroke-linejoin="round"/></svg>