<svg xmlns="http://www.w3.org/2000/svg" viewBox="30.00 30.00 196.00 196.00"><path d="M65.33,32.00 L61.93,32.17 L58.62,32.68 L55.42,33.50 L52.36,34.62 L49.44,36.02 L46.70,37.69 L44.13,39.61 L41.76,41.76 L39.61,44.13 L37.69,46.70 L36.02,49.44 L34.62,52.36 L33.50,55.42 L32.68,58.62 L32.17,61.93 L32.00,65.33 L32.00,105.33 L32.14,106.68 L32.52,107.93 L33.14,109.06 L33.95,110.05 L34.94,110.86 L36.07,111.48 L37.32,111.86 L38.67,112.00 L40.01,111.86 L41.26,111.48 L42.39,110.86 L43.38,110.05 L44.19,109.06 L44.81,107.93 L45.20,106.68 L45.33,105.33 L45.33,65.33 L45.44,63.29 L45.74,61.30 L46.23,59.39 L46.91,57.55 L47.75,55.80 L48.75,54.15 L49.90,52.61 L51.19,51.19 L52.61,49.90 L54.15,48.75 L55.80,47.75 L57.55,46.91 L59.39,46.23 L61.30,45.74 L63.29,45.44 L65.33,45.33 L128.00,45.33 L128.00,100.00 L128.14,102.86 L128.57,105.64 L129.26,108.33 L130.20,110.90 L131.38,113.35 L132.78,115.66 L134.39,117.81 L136.20,119.80 L138.19,121.61 L140.34,123.22 L142.65,124.62 L145.10,125.80 L147.67,126.74 L150.36,127.43 L153.14,127.86 L156.00,128.00 L210.67,128.00 L210.67,190.67 L210.56,192.71 L210.26,194.70 L209.77,196.61 L209.09,198.45 L208.25,200.20 L207.25,201.85 L206.10,203.39 L204.81,204.81 L203.39,206.10 L201.85,207.25 L200.20,208.25 L198.45,209.09 L196.61,209.77 L194.70,210.26 L192.71,210.56 L190.67,210.67 L150.67,210.67 L149.32,210.80 L148.07,211.19 L146.94,211.81 L145.95,212.62 L145.14,213.61 L144.52,214.74 L144.14,215.99 L144.00,217.33 L144.14,218.68 L144.52,219.93 L145.14,221.06 L145.95,222.05 L146.94,222.86 L148.07,223.48 L149.32,223.86 L150.67,224.00 L190.67,224.00 L194.07,223.83 L197.38,223.32 L200.58,222.50 L203.64,221.38 L206.56,219.98 L209.30,218.31 L211.87,216.39 L214.24,214.24 L216.39,211.87 L218.31,209.30 L219.98,206.56 L221.38,203.64 L222.50,200.58 L223.32,197.38 L223.83,194.07 L224.00,190.67 L224.00,65.33 L223.83,61.93 L223.32,58.62 L222.50,55.42 L221.38,52.36 L219.98,49.44 L218.31,46.70 L216.39,44.13 L214.24,41.76 L211.87,39.61 L209.30,37.69 L206.56,36.02 L203.64,34.62 L200.58,33.50 L197.38,32.68 L194.07,32.17 L190.67,32.00 L65.33,32.00 Z" fill="#0078d4" stroke="#1e1e1e" stroke-width="1" stroke-linejoin="round"/><path d="M38.67,157.33 L37.32,157.20 L36.07,156.81 L34.94,156.19 L33.95,155.38 L33.14,154.39 L32.52,153.26 L32.14,152.01 L32.00,150.67 L32.14,149.32 L32.52,148.07 L33.14,146.94 L33.95,145.95 L34.94,145.14 L36.07,144.52 L37.32,144.14 L38.67,144.00 L105.33,144.00 L106.68,144.14 L107.93,144.52 L109.06,145.14 L110.05,145.95 L110.86,146.94 L111.48,148.07 L111.86,149.32 L112.00,150.67 L112.00,217.33 L111.86,218.68 L111.48,219.93 L110.86,221.06 L110.05,222.05 L109.06,222.86 L107.93,223.48 L106.68,223.86 L105.33,224.00 L103.99,223.86 L102.74,223.48 L101.61,222.86 L100.62,222.05 L99.81,221.06 L99.19,219.93 L98.80,218.68 L98.67,217.33 L98.67,166.76 L43.38,222.05 L42.33,222.90 L41.18,223.51 L39.94,223.88 L38.67,224.00 L37.39,223.88 L36.16,223.51 L35.00,222.90 L33.95,222.05 L33.10,221.00 L32.49,219.84 L32.12,218.61 L32.00,217.33 L32.12,216.06 L32.49,214.82 L33.10,213.67 L33.95,212.62 L89.24,157.33 L38.67,157.33 Z" fill="#8dc8e8" stroke="#1e1e1e" stroke-width="1" stroke-linejoin="round"/></svg>