<svg xmlns="http://www.w3.org/2000/svg" viewBox="14.00 14.00 100.00 100.00"><path d="M32.67,16.00 L30.96,16.09 L29.31,16.34 L27.71,16.75 L26.18,17.31 L24.72,18.01 L23.35,18.85 L22.07,19.81 L20.88,20.88 L19.81,22.07 L18.85,23.35 L18.01,24.72 L17.31,26.18 L16.75,27.71 L16.34,29.31 L16.09,30.96 L16.00,32.67 L16.00,52.67 L16.07,53.34 L16.26,53.96 L16.57,54.53 L16.98,55.02 L17.47,55.43 L18.04,55.74 L18.66,55.93 L19.33,56.00 L20.01,55.93 L20.63,55.74 L21.20,55.43 L21.69,55.02 L22.10,54.53 L22.40,53.96 L22.60,53.34 L22.67,52.67 L22.67,32.67 L22.72,31.64 L22.87,30.65 L23.12,29.69 L23.45,28.77 L23.87,27.90 L24.37,27.08 L24.95,26.31 L25.60,25.60 L26.31,24.95 L27.08,24.37 L27.90,23.87 L28.77,23.45 L29.69,23.12 L30.65,22.87 L31.64,22.72 L32.67,22.67 L64.00,22.67 L64.00,50.00 L64.07,51.43 L64.28,52.82 L64.63,54.16 L65.10,55.45 L65.69,56.67 L66.39,57.83 L67.20,58.91 L68.10,59.90 L69.09,60.80 L70.17,61.61 L71.33,62.31 L72.55,62.90 L73.84,63.37 L75.18,63.72 L76.57,63.93 L78.00,64.00 L105.33,64.00 L105.33,95.33 L105.28,96.36 L105.13,97.35 L104.88,98.31 L104.55,99.23 L104.13,100.10 L103.63,100.92 L103.05,101.69 L102.40,102.40 L101.69,103.05 L100.92,103.63 L100.10,104.13 L99.23,104.55 L98.31,104.88 L97.35,105.13 L96.36,105.28 L95.33,105.33 L75.33,105.33 L74.66,105.40 L74.04,105.60 L73.47,105.90 L72.98,106.31 L72.57,106.80 L72.26,107.37 L72.07,107.99 L72.00,108.67 L72.07,109.34 L72.26,109.96 L72.57,110.53 L72.98,111.02 L73.47,111.43 L74.04,111.74 L74.66,111.93 L75.33,112.00 L95.33,112.00 L97.04,111.91 L98.69,111.66 L100.29,111.25 L101.82,110.69 L103.28,109.99 L104.65,109.15 L105.93,108.19 L107.12,107.12 L108.19,105.93 L109.15,104.65 L109.99,103.28 L110.69,101.82 L111.25,100.29 L111.66,98.69 L111.91,97.04 L112.00,95.33 L112.00,32.67 L111.91,30.96 L111.66,29.31 L111.25,27.71 L110.69,26.18 L109.99,24.72 L109.15,23.35 L108.19,22.07 L107.12,20.88 L105.93,19.81 L104.65,18.85 L103.28,18.01 L101.82,17.31 L100.29,16.75 L98.69,16.34 L97.04,16.09 L95.33,16.00 L32.67,16.00 Z" fill="#0078d4" stroke="#1e1e1e" stroke-width="1" stroke-linejoin="round"/><path d="M19.33,78.67 L18.66,78.60 L18.04,78.40 L17.47,78.10 L16.98,77.69 L16.57,77.20 L16.26,76.63 L16.07,76.01 L16.00,75.33 L16.07,74.66 L16.26,74.04 L16.57,73.47 L16.98,72.98 L17.47,72.57 L18.04,72.26 L18.66,72.07 L19.33,72.00 L52.67,72.00 L53.34,72.07 L53.96,72.26 L54.53,72.57 L55.02,72.98 L55.43,73.47 L55.74,74.04 L55.93,74.66 L56.00,75.33 L56.00,108.67 L55.93,109.34 L55.74,109.96 L55.43,110.53 L55.02,111.02 L54.53,111.43 L53.96,111.74 L53.34,111.93 L52.67,112.00 L51.99,111.93 L51.37,111.74 L50.80,111.43 L50.31,111.02 L49.90,110.53 L49.60,109.96 L49.40,109.34 L49.33,108.67 L49.33,83.38 L21.69,111.02 L21.17,111.45 L20.59,111.76 L19.97,111.94 L19.33,112.00 L18.70,111.94 L18.08,111.76 L17.50,111.45 L16.98,111.02 L16.55,110.50 L16.24,109.92 L16.06,109.30 L16.00,108.67 L16.06,108.03 L16.24,107.41 L16.55,106.83 L16.98,106.31 L44.62,78.67 L19.33,78.67 Z" fill="#8dc8e8" stroke="#1e1e1e" stroke-width="1" stroke-linejoin="round"/></svg>