<svg xmlns="http://www.w3.org/2000/svg" viewBox="7.60 7.60 100.00 100.00"><path d="M20.40,9.60 L19.30,9.66 L18.22,9.82 L17.19,10.09 L16.20,10.45 L15.25,10.90 L14.36,11.44 L13.53,12.07 L12.76,12.76 L12.07,13.53 L11.44,14.36 L10.90,15.25 L10.45,16.20 L10.09,17.19 L9.82,18.22 L9.66,19.30 L9.60,20.40 L9.60,94.80 L9.66,95.90 L9.82,96.98 L10.09,98.01 L10.45,99.00 L10.90,99.95 L11.44,100.84 L12.07,101.67 L12.76,102.44 L13.53,103.13 L14.36,103.76 L15.25,104.30 L16.20,104.75 L17.19,105.11 L18.22,105.38 L19.30,105.54 L20.40,105.60 L41.61,105.60 L41.26,104.76 L41.01,103.87 L40.85,102.95 L40.80,102.00 L40.84,101.14 L40.97,100.31 L41.18,99.50 L41.46,98.73 L41.81,98.00 L42.23,97.30 L42.72,96.66 L43.26,96.06 L43.86,95.52 L44.50,95.03 L45.20,94.61 L45.93,94.26 L46.70,93.98 L47.51,93.77 L48.34,93.64 L49.20,93.60 L50.40,93.60 L50.40,91.20 L44.40,91.20 L42.80,91.12 L41.26,90.88 L39.76,90.50 L38.33,89.97 L36.96,89.32 L35.68,88.54 L34.48,87.64 L33.37,86.63 L32.36,85.52 L31.46,84.32 L30.68,83.04 L30.03,81.67 L29.50,80.24 L29.12,78.74 L28.88,77.20 L28.80,75.60 L28.80,44.40 L28.88,42.80 L29.12,41.26 L29.50,39.76 L30.03,38.33 L30.68,36.96 L31.46,35.68 L32.36,34.48 L33.37,33.37 L34.48,32.36 L35.68,31.46 L36.96,30.68 L38.33,30.03 L39.76,29.50 L41.26,29.12 L42.80,28.88 L44.40,28.80 L57.60,28.80 L57.60,20.40 L57.54,19.30 L57.38,18.22 L57.11,17.19 L56.75,16.20 L56.30,15.25 L55.76,14.36 L55.13,13.53 L54.44,12.76 L53.67,12.07 L52.84,11.44 L51.95,10.90 L51.00,10.45 L50.01,10.09 L48.98,9.82 L47.90,9.66 L46.80,9.60 L20.40,9.60 Z" fill="#0078d4" stroke="#1e1e1e" stroke-width="1" stroke-linejoin="round"/><path d="M44.40,33.60 L43.30,33.66 L42.22,33.82 L41.19,34.09 L40.20,34.45 L39.25,34.90 L38.36,35.44 L37.53,36.07 L36.76,36.76 L36.07,37.53 L35.44,38.36 L34.90,39.25 L34.45,40.20 L34.09,41.19 L33.82,42.22 L33.66,43.30 L33.60,44.40 L33.60,75.60 L33.66,76.70 L33.82,77.78 L34.09,78.81 L34.45,79.80 L34.90,80.75 L35.44,81.64 L36.07,82.47 L36.76,83.24 L37.53,83.93 L38.36,84.56 L39.25,85.10 L40.20,85.55 L41.19,85.91 L42.22,86.18 L43.30,86.34 L44.40,86.40 L55.20,86.40 L55.20,98.40 L49.20,98.40 L48.47,98.47 L47.80,98.68 L47.19,99.01 L46.65,99.45 L46.21,99.99 L45.88,100.60 L45.67,101.27 L45.60,102.00 L45.67,102.73 L45.88,103.40 L46.21,104.01 L46.65,104.55 L47.19,104.99 L47.80,105.32 L48.47,105.53 L49.20,105.60 L90.00,105.60 L90.73,105.53 L91.40,105.32 L92.01,104.99 L92.55,104.55 L92.99,104.01 L93.32,103.40 L93.53,102.73 L93.60,102.00 L93.53,101.27 L93.32,100.60 L92.99,99.99 L92.55,99.45 L92.01,99.01 L91.40,98.68 L90.73,98.47 L90.00,98.40 L84.00,98.40 L84.00,86.40 L94.80,86.40 L95.90,86.34 L96.98,86.18 L98.01,85.91 L99.00,85.55 L99.95,85.10 L100.84,84.56 L101.67,83.93 L102.44,83.24 L103.13,82.47 L103.76,81.64 L104.30,80.75 L104.75,79.80 L105.11,78.81 L105.38,77.78 L105.54,76.70 L105.60,75.60 L105.60,44.40 L105.54,43.30 L105.38,42.22 L105.11,41.19 L104.75,40.20 L104.30,39.25 L103.76,38.36 L103.13,37.53 L102.44,36.76 L101.67,36.07 L100.84,35.44 L99.95,34.90 L99.00,34.45 L98.01,34.09 L96.98,33.82 L95.90,33.66 L94.80,33.60 L44.40,33.60 Z" fill="#8dc8e8" stroke="#8dc8e8" stroke-width="1" stroke-linejoin="round"/><path d="M76.80,98.40 L76.80,86.40 L62.40,86.40 L62.40,98.40 L76.80,98.40 Z" fill="#ffffff" stroke="#ffffff" stroke-width="1" stroke-linejoin="round"/></svg>