<svg xmlns="http://www.w3.org/2000/svg" viewBox="19.33 19.33 217.33 217.33"><path d="M45.33,21.33 L42.88,21.46 L40.50,21.82 L38.20,22.41 L35.99,23.22 L33.89,24.23 L31.91,25.43 L30.07,26.81 L28.36,28.36 L26.81,30.07 L25.43,31.91 L24.23,33.89 L23.22,35.99 L22.41,38.20 L21.82,40.50 L21.46,42.88 L21.33,45.33 L21.33,210.67 L21.46,213.12 L21.82,215.50 L22.41,217.80 L23.22,220.01 L24.23,222.11 L25.43,224.09 L26.81,225.93 L28.36,227.64 L30.07,229.19 L31.91,230.57 L33.89,231.77 L35.99,232.78 L38.20,233.59 L40.50,234.18 L42.88,234.54 L45.33,234.67 L92.46,234.67 L91.70,232.80 L91.13,230.83 L90.79,228.78 L90.67,226.67 L90.76,224.76 L91.05,222.90 L91.51,221.12 L92.13,219.40 L92.92,217.77 L93.85,216.23 L94.93,214.79 L96.13,213.47 L97.46,212.26 L98.90,211.19 L100.44,210.25 L102.07,209.47 L103.78,208.84 L105.57,208.38 L107.42,208.10 L109.33,208.00 L112.00,208.00 L112.00,202.67 L98.67,202.67 L95.12,202.49 L91.68,201.96 L88.36,201.11 L85.17,199.94 L82.14,198.48 L79.28,196.75 L76.62,194.75 L74.15,192.51 L71.92,190.05 L69.92,187.38 L68.18,184.52 L66.72,181.49 L65.56,178.31 L64.70,174.99 L64.18,171.54 L64.00,168.00 L64.00,98.67 L64.18,95.12 L64.70,91.68 L65.56,88.36 L66.72,85.17 L68.18,82.14 L69.92,79.28 L71.92,76.62 L74.15,74.15 L76.62,71.92 L79.28,69.92 L82.14,68.18 L85.17,66.72 L88.36,65.56 L91.68,64.70 L95.12,64.18 L98.67,64.00 L128.00,64.00 L128.00,45.33 L127.88,42.88 L127.51,40.50 L126.92,38.20 L126.11,35.99 L125.10,33.89 L123.90,31.91 L122.52,30.07 L120.97,28.36 L119.27,26.81 L117.42,25.43 L115.44,24.23 L113.34,23.22 L111.14,22.41 L108.84,21.82 L106.45,21.46 L104.00,21.33 L45.33,21.33 Z" fill="#0078d4" stroke="#1e1e1e" stroke-width="1" stroke-linejoin="round"/><path d="M98.67,74.67 L96.21,74.79 L93.83,75.15 L91.53,75.75 L89.32,76.55 L87.23,77.56 L85.25,78.77 L83.40,80.15 L81.70,81.70 L80.15,83.40 L78.77,85.25 L77.56,87.23 L76.55,89.32 L75.75,91.53 L75.15,93.83 L74.79,96.21 L74.67,98.67 L74.67,168.00 L74.79,170.45 L75.15,172.84 L75.75,175.14 L76.55,177.34 L77.56,179.44 L78.77,181.42 L80.15,183.27 L81.70,184.97 L83.40,186.52 L85.25,187.90 L87.23,189.10 L89.32,190.11 L91.53,190.92 L93.83,191.51 L96.21,191.88 L98.67,192.00 L122.67,192.00 L122.67,218.67 L109.33,218.67 L107.72,218.83 L106.22,219.30 L104.86,220.03 L103.68,221.01 L102.70,222.19 L101.96,223.55 L101.50,225.05 L101.33,226.67 L101.50,228.28 L101.96,229.78 L102.70,231.14 L103.68,232.32 L104.86,233.30 L106.22,234.04 L107.72,234.50 L109.33,234.67 L200.00,234.67 L201.61,234.50 L203.11,234.04 L204.47,233.30 L205.66,232.32 L206.63,231.14 L207.37,229.78 L207.84,228.28 L208.00,226.67 L207.84,225.05 L207.37,223.55 L206.63,222.19 L205.66,221.01 L204.47,220.03 L203.11,219.30 L201.61,218.83 L200.00,218.67 L186.67,218.67 L186.67,192.00 L210.67,192.00 L213.12,191.88 L215.50,191.51 L217.80,190.92 L220.01,190.11 L222.11,189.10 L224.09,187.90 L225.93,186.52 L227.64,184.97 L229.19,183.27 L230.57,181.42 L231.77,179.44 L232.78,177.34 L233.59,175.14 L234.18,172.84 L234.54,170.45 L234.67,168.00 L234.67,98.67 L234.54,96.21 L234.18,93.83 L233.59,91.53 L232.78,89.32 L231.77,87.23 L230.57,85.25 L229.19,83.40 L227.64,81.70 L225.93,80.15 L224.09,78.77 L222.11,77.56 L220.01,76.55 L217.80,75.75 L215.50,75.15 L213.12,74.79 L210.67,74.67 L98.67,74.67 Z" fill="#8dc8e8" stroke="#1e1e1e" stroke-width="1" stroke-linejoin="round"/><path d="M170.67,218.67 L170.67,192.00 L138.67,192.00 L138.67,218.67 L170.67,218.67 Z" fill="#ffffff" stroke="#1e1e1e" stroke-width="1" stroke-linejoin="round"/></svg>