<svg xmlns="http://www.w3.org/2000/svg" viewBox="17.20 7.60 80.80 100.00"><path d="M57.60,38.40 L57.60,9.60 L28.80,9.60 L27.82,9.65 L26.87,9.80 L25.95,10.03 L25.06,10.35 L24.22,10.76 L23.43,11.24 L22.69,11.79 L22.01,12.41 L21.39,13.09 L20.84,13.83 L20.36,14.62 L19.95,15.46 L19.63,16.35 L19.40,17.27 L19.25,18.22 L19.20,19.20 L19.20,96.00 L19.25,96.98 L19.40,97.93 L19.63,98.85 L19.95,99.74 L20.36,100.58 L20.84,101.37 L21.39,102.11 L22.01,102.79 L22.69,103.41 L23.43,103.96 L24.22,104.44 L25.06,104.85 L25.95,105.17 L26.87,105.40 L27.82,105.55 L28.80,105.60 L86.40,105.60 L87.38,105.55 L88.33,105.40 L89.25,105.17 L90.14,104.85 L90.98,104.44 L91.77,103.96 L92.51,103.41 L93.19,102.79 L93.81,102.11 L94.36,101.37 L94.84,100.58 L95.25,99.74 L95.57,98.85 L95.80,97.93 L95.95,96.98 L96.00,96.00 L96.00,48.00 L67.20,48.00 L66.22,47.95 L65.27,47.80 L64.35,47.57 L63.46,47.25 L62.62,46.84 L61.83,46.36 L61.09,45.81 L60.41,45.19 L59.79,44.51 L59.24,43.77 L58.76,42.98 L58.35,42.14 L58.03,41.25 L57.80,40.33 L57.65,39.38 L57.60,38.40 Z" fill="#0078d4" stroke="#0078d4" stroke-width="1" stroke-linejoin="round"/><path d="M39.60,55.20 L75.60,55.20 L76.33,55.27 L77.00,55.48 L77.61,55.81 L78.15,56.25 L78.59,56.79 L78.92,57.40 L79.13,58.07 L79.20,58.80 L79.13,59.53 L78.92,60.20 L78.59,60.81 L78.15,61.35 L77.61,61.79 L77.00,62.12 L76.33,62.33 L75.60,62.40 L39.60,62.40 L38.87,62.33 L38.20,62.12 L37.59,61.79 L37.05,61.35 L36.61,60.81 L36.28,60.20 L36.07,59.53 L36.00,58.80 L36.07,58.07 L36.28,57.40 L36.61,56.79 L37.05,56.25 L37.59,55.81 L38.20,55.48 L38.87,55.27 L39.60,55.20 Z" fill="#ffffff" stroke="#ffffff" stroke-width="1" stroke-linejoin="round"/><path d="M39.60,68.40 L75.60,68.40 L76.33,68.47 L77.00,68.68 L77.61,69.01 L78.15,69.45 L78.59,69.99 L78.92,70.60 L79.13,71.27 L79.20,72.00 L79.13,72.73 L78.92,73.40 L78.59,74.01 L78.15,74.55 L77.61,74.99 L77.00,75.32 L76.33,75.53 L75.60,75.60 L39.60,75.60 L38.87,75.53 L38.20,75.32 L37.59,74.99 L37.05,74.55 L36.61,74.01 L36.28,73.40 L36.07,72.73 L36.00,72.00 L36.07,71.27 L36.28,70.60 L36.61,69.99 L37.05,69.45 L37.59,69.01 L38.20,68.68 L38.87,68.47 L39.60,68.40 Z" fill="#ffffff" stroke="#ffffff" stroke-width="1" stroke-linejoin="round"/><path d="M39.60,81.60 L75.60,81.60 L76.33,81.67 L77.00,81.88 L77.61,82.21 L78.15,82.65 L78.59,83.19 L78.92,83.80 L79.13,84.47 L79.20,85.20 L79.13,85.93 L78.92,86.60 L78.59,87.21 L78.15,87.75 L77.61,88.19 L77.00,88.52 L76.33,88.73 L75.60,88.80 L39.60,88.80 L38.87,88.73 L38.20,88.52 L37.59,88.19 L37.05,87.75 L36.61,87.21 L36.28,86.60 L36.07,85.93 L36.00,85.20 L36.07,84.47 L36.28,83.80 L36.61,83.19 L37.05,82.65 L37.59,82.21 L38.20,81.88 L38.87,81.67 L39.60,81.60 Z" fill="#ffffff" stroke="#ffffff" stroke-width="1" stroke-linejoin="round"/><path d="M64.80,38.40 L64.80,12.00 L93.60,40.80 L67.20,40.80 L66.72,40.75 L66.27,40.61 L65.86,40.39 L65.50,40.10 L65.21,39.74 L64.99,39.33 L64.85,38.88 L64.80,38.40 Z" fill="#0078d4" stroke="#0078d4" stroke-width="1" stroke-linejoin="round"/></svg>