<svg xmlns="http://www.w3.org/2000/svg" viewBox="40.67 19.33 174.68 217.33"><path d="M42.67,45.33 L42.79,42.88 L43.15,40.50 L43.75,38.20 L44.55,35.99 L45.56,33.89 L46.77,31.91 L48.15,30.07 L49.70,28.36 L51.40,26.81 L53.25,25.43 L55.23,24.23 L57.32,23.22 L59.53,22.41 L61.83,21.82 L64.21,21.46 L66.67,21.33 L112.04,21.33 L112.04,71.97 L112.17,74.43 L112.53,76.81 L113.12,79.11 L113.93,81.32 L114.94,83.41 L116.14,85.39 L117.52,87.24 L119.07,88.94 L120.78,90.49 L122.62,91.87 L124.60,93.08 L126.70,94.09 L128.90,94.89 L131.20,95.49 L133.59,95.85 L136.04,95.97 L186.67,95.97 L186.67,184.00 L186.54,186.45 L186.18,188.84 L185.59,191.14 L184.78,193.34 L183.77,195.44 L182.57,197.42 L181.19,199.27 L179.64,200.97 L177.93,202.52 L176.09,203.90 L174.11,205.10 L172.01,206.11 L169.80,206.92 L167.50,207.51 L165.12,207.88 L162.67,208.00 L66.67,208.00 L64.21,207.88 L61.83,207.51 L59.53,206.92 L57.32,206.11 L55.23,205.10 L53.25,203.90 L51.40,202.52 L49.70,200.97 L48.15,199.27 L46.77,197.42 L45.56,195.44 L44.55,193.34 L43.75,191.14 L43.15,188.84 L42.79,186.45 L42.67,184.00 L42.67,45.33 Z" fill="#0078d4" stroke="#1e1e1e" stroke-width="1" stroke-linejoin="round"/><path d="M128.04,71.97 L128.04,26.32 L130.37,28.36 L179.64,77.63 L181.69,79.97 L136.04,79.97 L134.43,79.81 L132.93,79.35 L131.57,78.61 L130.38,77.63 L129.41,76.45 L128.67,75.09 L128.20,73.59 L128.04,71.97 Z" fill="#0078d4" stroke="#1e1e1e" stroke-width="1" stroke-linejoin="round"/><path d="M70.71,218.67 L72.20,222.03 L74.17,225.10 L76.56,227.83 L79.34,230.16 L82.46,232.06 L85.86,233.48 L89.51,234.36 L93.34,234.67 L162.68,234.67 L167.86,234.41 L172.89,233.64 L177.74,232.39 L182.40,230.69 L186.83,228.55 L191.00,226.01 L194.90,223.10 L198.50,219.83 L201.77,216.23 L204.69,212.33 L207.23,208.15 L209.36,203.72 L211.07,199.07 L212.31,194.21 L213.08,189.18 L213.34,184.00 L213.34,121.27 L213.23,118.90 L212.88,116.56 L212.31,114.29 L211.52,112.08 L210.52,109.97 L209.31,107.95 L207.91,106.06 L206.31,104.30 L197.34,95.33 L197.34,184.00 L197.16,187.54 L196.64,190.99 L195.78,194.31 L194.62,197.49 L193.16,200.52 L191.42,203.38 L189.43,206.05 L187.19,208.51 L184.73,210.75 L182.06,212.75 L179.20,214.48 L176.17,215.94 L172.98,217.11 L169.66,217.96 L166.22,218.49 L162.68,218.67 L70.71,218.67 Z" fill="#8dc8e8" stroke="#1e1e1e" stroke-width="1" stroke-linejoin="round"/></svg>