<svg xmlns="http://www.w3.org/2000/svg" viewBox="17.20 7.60 80.80 100.00"><path d="M30.00,9.60 L28.90,9.66 L27.82,9.82 L26.79,10.09 L25.80,10.45 L24.85,10.90 L23.96,11.44 L23.13,12.07 L22.36,12.76 L21.67,13.53 L21.04,14.36 L20.50,15.25 L20.05,16.20 L19.69,17.19 L19.42,18.22 L19.26,19.30 L19.20,20.40 L19.20,82.80 L19.26,83.90 L19.42,84.98 L19.69,86.01 L20.05,87.00 L20.50,87.95 L21.04,88.84 L21.67,89.67 L22.36,90.44 L23.13,91.13 L23.96,91.76 L24.85,92.30 L25.80,92.75 L26.79,93.11 L27.82,93.38 L28.90,93.54 L30.00,93.60 L73.20,93.60 L74.30,93.54 L75.38,93.38 L76.41,93.11 L77.40,92.75 L78.35,92.30 L79.24,91.76 L80.07,91.13 L80.84,90.44 L81.53,89.67 L82.16,88.84 L82.70,87.95 L83.15,87.00 L83.51,86.01 L83.78,84.98 L83.94,83.90 L84.00,82.80 L84.00,43.19 L61.22,43.19 L60.11,43.13 L59.04,42.97 L58.01,42.70 L57.01,42.34 L56.07,41.88 L55.18,41.34 L54.35,40.72 L53.58,40.02 L52.88,39.26 L52.26,38.43 L51.72,37.54 L51.27,36.59 L50.90,35.60 L50.64,34.56 L50.47,33.49 L50.42,32.39 L50.42,9.60 L30.00,9.60 Z" fill="#0078d4" stroke="#0078d4" stroke-width="1" stroke-linejoin="round"/><path d="M33.60,58.80 L33.67,58.07 L33.88,57.40 L34.21,56.79 L34.65,56.25 L35.19,55.81 L35.80,55.48 L36.47,55.27 L37.20,55.20 L37.93,55.27 L38.60,55.48 L39.21,55.81 L39.75,56.25 L40.19,56.79 L40.52,57.40 L40.73,58.07 L40.80,58.80 L40.73,59.53 L40.52,60.20 L40.19,60.81 L39.75,61.35 L39.21,61.79 L38.60,62.12 L37.93,62.33 L37.20,62.40 L36.47,62.33 L35.80,62.12 L35.19,61.79 L34.65,61.35 L34.21,60.81 L33.88,60.20 L33.67,59.53 L33.60,58.80 Z" fill="#ffffff" stroke="#ffffff" stroke-width="1" stroke-linejoin="round"/><path d="M37.20,76.80 L36.47,76.73 L35.80,76.52 L35.19,76.19 L34.65,75.75 L34.21,75.21 L33.88,74.60 L33.67,73.93 L33.60,73.20 L33.67,72.47 L33.88,71.80 L34.21,71.19 L34.65,70.65 L35.19,70.21 L35.80,69.88 L36.47,69.67 L37.20,69.60 L37.93,69.67 L38.60,69.88 L39.21,70.21 L39.75,70.65 L40.19,71.19 L40.52,71.80 L40.73,72.47 L40.80,73.20 L40.73,73.93 L40.52,74.60 L40.19,75.21 L39.75,75.75 L39.21,76.19 L38.60,76.52 L37.93,76.73 L37.20,76.80 Z" fill="#ffffff" stroke="#ffffff" stroke-width="1" stroke-linejoin="round"/><path d="M51.60,62.40 L50.87,62.33 L50.20,62.12 L49.59,61.79 L49.05,61.35 L48.61,60.81 L48.28,60.20 L48.07,59.53 L48.00,58.80 L48.07,58.07 L48.28,57.40 L48.61,56.79 L49.05,56.25 L49.59,55.81 L50.20,55.48 L50.87,55.27 L51.60,55.20 L66.26,55.20 L66.98,55.27 L67.66,55.48 L68.27,55.81 L68.80,56.25 L69.24,56.79 L69.58,57.40 L69.78,58.07 L69.86,58.80 L69.78,59.53 L69.58,60.20 L69.24,60.81 L68.80,61.35 L68.27,61.79 L67.66,62.12 L66.98,62.33 L66.26,62.40 L51.60,62.40 Z" fill="#ffffff" stroke="#ffffff" stroke-width="1" stroke-linejoin="round"/><path d="M48.00,73.20 L48.07,72.47 L48.28,71.80 L48.61,71.19 L49.05,70.65 L49.59,70.21 L50.20,69.88 L50.87,69.67 L51.60,69.60 L66.26,69.60 L66.98,69.67 L67.66,69.88 L68.27,70.21 L68.80,70.65 L69.24,71.19 L69.58,71.80 L69.78,72.47 L69.86,73.20 L69.78,73.93 L69.58,74.60 L69.24,75.21 L68.80,75.75 L68.27,76.19 L67.66,76.52 L66.98,76.73 L66.26,76.80 L51.60,76.80 L50.87,76.73 L50.20,76.52 L49.59,76.19 L49.05,75.75 L48.61,75.21 L48.28,74.60 L48.07,73.93 L48.00,73.20 Z" fill="#ffffff" stroke="#ffffff" stroke-width="1" stroke-linejoin="round"/><path d="M57.62,11.84 L57.62,32.39 L57.69,33.11 L57.90,33.79 L58.23,34.40 L58.67,34.93 L59.21,35.37 L59.82,35.71 L60.49,35.92 L61.22,35.99 L81.76,35.99 L80.84,34.93 L58.67,12.76 L57.62,11.84 Z" fill="#0078d4" stroke="#0078d4" stroke-width="1" stroke-linejoin="round"/><path d="M31.82,98.40 L32.49,99.91 L33.37,101.29 L34.45,102.52 L35.70,103.57 L37.11,104.43 L38.64,105.06 L40.28,105.46 L42.00,105.60 L73.20,105.60 L75.54,105.48 L77.80,105.14 L79.98,104.57 L82.08,103.81 L84.07,102.85 L85.95,101.71 L87.71,100.39 L89.33,98.92 L90.80,97.30 L92.11,95.55 L93.25,93.67 L94.21,91.67 L94.98,89.58 L95.54,87.39 L95.89,85.13 L96.00,82.80 L96.00,54.57 L95.95,53.50 L95.79,52.45 L95.54,51.43 L95.18,50.44 L94.73,49.49 L94.19,48.58 L93.56,47.73 L92.84,46.93 L88.80,42.90 L88.80,82.80 L88.72,84.40 L88.49,85.94 L88.10,87.44 L87.58,88.87 L86.92,90.24 L86.14,91.52 L85.24,92.72 L84.24,93.83 L83.13,94.84 L81.93,95.74 L80.64,96.52 L79.28,97.17 L77.84,97.70 L76.35,98.08 L74.80,98.32 L73.20,98.40 L31.82,98.40 Z" fill="#8dc8e8" stroke="#1e1e1e" stroke-width="1" stroke-linejoin="round"/></svg>