<svg xmlns="http://www.w3.org/2000/svg" viewBox="7.14 7.14 86.29 100.00"><path d="M54.86,34.86 L54.86,9.14 L25.14,9.14 L24.44,9.18 L23.76,9.28 L22.47,9.68 L21.31,10.31 L20.29,11.15 L19.46,12.17 L18.82,13.33 L18.43,14.62 L18.32,15.30 L18.29,16.00 L18.29,55.09 L19.43,54.03 L20.67,53.09 L22.00,52.27 L23.41,51.58 L24.90,51.02 L26.45,50.62 L28.06,50.37 L29.71,50.29 L31.22,50.36 L32.69,50.56 L34.11,50.90 L35.48,51.36 L36.79,51.93 L38.04,52.62 L39.21,53.41 L40.31,54.30 L41.33,55.28 L42.25,56.35 L43.09,57.49 L43.81,58.72 L44.43,60.00 L44.94,61.35 L45.32,62.75 L45.58,64.20 L46.55,64.43 L47.50,64.74 L48.40,65.13 L49.26,65.60 L50.07,66.13 L50.84,66.73 L51.55,67.39 L52.20,68.10 L52.79,68.87 L53.31,69.69 L53.77,70.56 L54.15,71.46 L54.45,72.41 L54.68,73.39 L54.81,74.39 L54.86,75.43 L54.86,98.29 L84.57,98.29 L85.27,98.25 L85.95,98.15 L87.24,97.75 L88.41,97.11 L89.42,96.28 L90.26,95.26 L90.89,94.10 L91.29,92.81 L91.39,92.13 L91.43,91.43 L91.43,43.43 L63.43,43.43 L62.55,43.38 L61.70,43.25 L60.88,43.04 L60.09,42.75 L59.34,42.39 L58.64,41.96 L57.98,41.47 L57.37,40.92 L56.81,40.31 L56.32,39.65 L55.89,38.94 L55.53,38.19 L55.24,37.41 L55.03,36.58 L54.90,35.73 L54.86,34.86 Z" fill="#0078d4" stroke="#1e1e1e" stroke-width="1" stroke-linejoin="round"/><path d="M60.57,34.86 L60.57,10.20 L90.20,37.71 L63.43,37.71 L62.85,37.66 L62.32,37.49 L61.83,37.23 L61.41,36.88 L61.06,36.45 L60.80,35.97 L60.63,35.43 L60.57,34.86 Z" fill="#0078d4" stroke="#1e1e1e" stroke-width="1" stroke-linejoin="round"/><path d="M18.29,68.57 L16.00,68.57 L15.30,68.61 L14.62,68.71 L13.33,69.11 L12.17,69.74 L11.15,70.58 L10.31,71.59 L9.68,72.76 L9.28,74.05 L9.18,74.73 L9.14,75.43 L9.14,98.29 L9.18,98.99 L9.28,99.67 L9.68,100.95 L10.31,102.12 L11.15,103.13 L12.17,103.97 L13.33,104.60 L14.62,105.00 L15.30,105.11 L16.00,105.14 L43.43,105.14 L44.13,105.11 L44.81,105.00 L46.10,104.60 L47.26,103.97 L48.28,103.13 L49.11,102.12 L49.75,100.95 L50.15,99.67 L50.25,98.99 L50.29,98.29 L50.29,75.43 L50.25,74.73 L50.15,74.05 L49.75,72.76 L49.11,71.59 L48.28,70.58 L47.26,69.74 L46.10,69.11 L44.81,68.71 L44.13,68.61 L43.43,68.57 L41.14,68.57 L41.14,66.29 L41.08,65.12 L40.91,63.98 L40.63,62.89 L40.24,61.84 L39.76,60.84 L39.19,59.90 L38.53,59.02 L37.80,58.20 L36.98,57.47 L36.10,56.81 L35.16,56.24 L34.16,55.76 L33.11,55.37 L32.02,55.09 L30.88,54.92 L29.71,54.86 L28.55,54.92 L27.41,55.09 L26.32,55.37 L25.27,55.76 L24.27,56.24 L23.32,56.81 L22.44,57.47 L21.63,58.20 L20.90,59.02 L20.24,59.90 L19.67,60.84 L19.18,61.84 L18.80,62.89 L18.52,63.98 L18.34,65.12 L18.29,66.29 L18.29,68.57 Z" fill="#8dc8e8" stroke="#8dc8e8" stroke-width="1" stroke-linejoin="round"/><path d="M29.71,60.57 L28.56,60.69 L27.49,61.02 L26.52,61.55 L25.67,62.25 L24.98,63.09 L24.45,64.06 L24.12,65.13 L24.00,66.29 L24.00,68.57 L35.43,68.57 L35.43,66.29 L35.31,65.13 L34.98,64.06 L34.45,63.09 L33.75,62.25 L32.91,61.55 L31.94,61.02 L30.87,60.69 L29.71,60.57 Z" fill="#ffffff" stroke="#ffffff" stroke-width="1" stroke-linejoin="round"/><path d="M29.71,93.71 L30.42,93.68 L31.10,93.57 L32.38,93.18 L33.55,92.54 L34.56,91.71 L35.40,90.69 L36.03,89.53 L36.43,88.24 L36.54,87.56 L36.57,86.86 L36.54,86.16 L36.43,85.48 L36.03,84.19 L35.40,83.02 L34.56,82.01 L33.55,81.17 L32.38,80.54 L31.10,80.14 L30.42,80.04 L29.71,80.00 L29.01,80.04 L28.33,80.14 L27.05,80.54 L25.88,81.17 L24.87,82.01 L24.03,83.02 L23.40,84.19 L23.00,85.48 L22.89,86.16 L22.86,86.86 L22.89,87.56 L23.00,88.24 L23.40,89.53 L24.03,90.69 L24.87,91.71 L25.88,92.54 L27.05,93.18 L28.33,93.57 L29.01,93.68 L29.71,93.71 Z" fill="#ffffff" stroke="#ffffff" stroke-width="1" stroke-linejoin="round"/></svg>