<svg xmlns="http://www.w3.org/2000/svg" viewBox="49.20 23.60 196.00 221.60"><path d="M128.00,83.20 L128.00,25.60 L70.40,25.60 L68.44,25.70 L66.53,25.99 L64.69,26.46 L62.93,27.11 L61.25,27.92 L59.67,28.88 L58.19,29.98 L56.82,31.22 L55.58,32.59 L54.48,34.07 L53.52,35.65 L52.71,37.33 L52.06,39.09 L51.59,40.93 L51.30,42.84 L51.20,44.80 L51.20,211.20 L51.30,213.16 L51.59,215.07 L52.06,216.91 L52.71,218.67 L53.52,220.35 L54.48,221.93 L55.58,223.41 L56.82,224.78 L58.19,226.02 L59.67,227.12 L61.25,228.08 L62.93,228.89 L64.69,229.54 L66.53,230.01 L68.44,230.30 L70.40,230.40 L115.20,230.40 L115.20,217.60 L115.30,215.66 L115.58,213.77 L116.04,211.95 L116.68,210.20 L117.49,208.52 L118.46,206.94 L119.58,205.44 L120.85,204.05 L153.87,171.03 L153.60,165.60 L153.86,160.44 L154.65,155.39 L155.98,150.47 L157.85,145.69 L160.07,141.35 L162.66,137.26 L165.62,133.43 L168.94,129.86 L172.62,126.58 L176.58,123.70 L180.81,121.21 L185.29,119.14 L189.92,117.51 L194.67,116.31 L199.52,115.54 L204.47,115.20 L204.64,115.20 L204.80,115.20 L204.80,102.40 L147.20,102.40 L145.24,102.30 L143.33,102.01 L141.49,101.54 L139.73,100.89 L138.05,100.08 L136.46,99.12 L134.99,98.02 L133.62,96.78 L132.38,95.41 L131.28,93.93 L130.32,92.35 L129.51,90.67 L128.86,88.91 L128.39,87.07 L128.10,85.16 L128.00,83.20 Z" fill="#0078d4" stroke="#1e1e1e" stroke-width="1" stroke-linejoin="round"/><path d="M140.80,83.20 L140.80,28.80 L201.60,89.60 L147.20,89.60 L145.91,89.47 L144.71,89.10 L143.62,88.51 L142.67,87.73 L141.89,86.78 L141.30,85.69 L140.93,84.49 L140.80,83.20 Z" fill="#0078d4" stroke="#1e1e1e" stroke-width="1" stroke-linejoin="round"/><path d="M129.90,241.30 L130.89,242.13 L131.97,242.72 L133.14,243.08 L134.40,243.20 L160.00,243.20 L161.97,242.92 L163.50,242.30 L164.62,241.35 L165.40,240.10 L165.90,238.65 L166.20,237.10 L166.40,233.80 L166.40,230.40 L173.60,230.10 L174.82,229.93 L175.87,229.62 L176.77,229.18 L177.50,228.60 L178.08,227.88 L178.52,227.00 L178.83,225.97 L179.00,224.80 L179.20,217.60 L185.60,217.60 L187.50,217.37 L189.00,216.70 L190.15,215.70 L191.00,214.50 L191.57,213.10 L191.90,211.50 L192.10,208.00 L192.00,205.10 L192.00,202.60 L195.32,203.62 L198.70,204.30 L202.12,204.67 L205.60,204.80 L209.52,204.57 L213.27,203.97 L216.87,203.02 L220.30,201.70 L223.56,200.05 L226.62,198.10 L229.51,195.85 L232.20,193.30 L234.66,190.51 L236.82,187.52 L238.71,184.36 L240.30,181.00 L241.57,177.50 L242.47,173.90 L243.02,170.20 L243.20,166.40 L243.01,162.46 L242.45,158.65 L241.51,154.96 L240.20,151.40 L238.56,148.01 L236.65,144.85 L234.46,141.91 L232.00,139.20 L229.29,136.74 L226.35,134.55 L223.19,132.64 L219.80,131.00 L216.24,129.69 L212.55,128.75 L208.74,128.19 L204.80,128.00 L200.96,128.26 L197.22,128.85 L193.61,129.76 L190.10,131.00 L186.75,132.55 L183.60,134.40 L180.65,136.55 L177.90,139.00 L175.39,141.70 L173.15,144.60 L171.19,147.70 L169.50,151.00 L168.14,154.46 L167.17,158.05 L166.59,161.76 L166.40,165.60 L166.67,170.42 L167.50,175.50 L129.90,213.10 L129.07,214.09 L128.47,215.17 L128.12,216.34 L128.00,217.60 L128.00,236.80 L128.12,238.06 L128.47,239.22 L129.07,240.31 L129.90,241.30 Z" fill="#8dc8e8" stroke="#1e1e1e" stroke-width="1" stroke-linejoin="round"/><path d="M224.00,156.80 L223.82,154.88 L223.30,153.10 L222.43,151.47 L221.20,150.00 L219.72,148.77 L218.10,147.90 L216.32,147.38 L214.40,147.20 L212.48,147.38 L210.70,147.90 L209.07,148.77 L207.60,150.00 L206.38,151.47 L205.50,153.10 L204.97,154.88 L204.80,156.80 L204.97,158.72 L205.50,160.50 L206.38,162.12 L207.60,163.60 L209.07,164.82 L210.70,165.70 L212.48,166.22 L214.40,166.40 L216.32,166.22 L218.10,165.70 L219.72,164.82 L221.20,163.60 L222.43,162.12 L223.30,160.50 L223.82,158.72 L224.00,156.80 Z" fill="#ffffff" stroke="#1e1e1e" stroke-width="1" stroke-linejoin="round"/></svg>