<svg xmlns="http://www.w3.org/2000/svg" viewBox="40.67 19.33 174.67 212.00"><path d="M128.00,21.33 L128.00,81.33 L128.10,83.38 L128.41,85.36 L128.90,87.28 L129.57,89.12 L130.41,90.87 L131.42,92.52 L132.57,94.06 L133.86,95.48 L135.28,96.77 L136.82,97.92 L138.47,98.92 L140.22,99.76 L142.05,100.43 L143.97,100.93 L145.96,101.23 L148.00,101.33 L213.33,101.33 L213.33,213.33 L213.25,214.97 L213.01,216.56 L212.08,219.56 L210.60,222.28 L208.65,224.65 L206.28,226.60 L203.56,228.08 L200.56,229.01 L198.97,229.25 L197.33,229.33 L58.67,229.33 L57.03,229.25 L55.44,229.01 L52.44,228.08 L49.72,226.60 L47.35,224.65 L45.40,222.28 L43.92,219.56 L42.99,216.56 L42.75,214.97 L42.67,213.33 L42.67,37.33 L42.75,35.70 L42.99,34.11 L43.92,31.11 L45.40,28.39 L47.35,26.02 L49.72,24.07 L52.44,22.59 L55.44,21.66 L57.03,21.42 L58.67,21.33 L128.00,21.33 Z" fill="#0078d4" stroke="#1e1e1e" stroke-width="1" stroke-linejoin="round"/><path d="M141.33,23.81 L141.33,81.33 L141.47,82.68 L141.86,83.93 L142.47,85.06 L143.29,86.05 L144.27,86.86 L145.40,87.48 L146.66,87.86 L148.00,88.00 L210.46,88.00 L141.33,23.81 Z" fill="#0078d4" stroke="#1e1e1e" stroke-width="1" stroke-linejoin="round"/></svg>