<svg xmlns="http://www.w3.org/2000/svg" viewBox="40.67 19.33 174.67 217.33"><path d="M128.00,85.33 L128.00,21.33 L64.00,21.33 L61.82,21.44 L59.70,21.77 L57.66,22.29 L55.70,23.01 L53.83,23.91 L52.07,24.98 L50.43,26.20 L48.92,27.58 L47.54,29.10 L46.31,30.74 L45.24,32.50 L44.34,34.36 L43.63,36.32 L43.10,38.37 L42.78,40.49 L42.67,42.67 L42.67,213.33 L42.78,215.51 L43.10,217.63 L43.63,219.68 L44.34,221.64 L45.24,223.50 L46.31,225.26 L47.54,226.90 L48.92,228.42 L50.43,229.80 L52.07,231.02 L53.83,232.09 L55.70,232.99 L57.66,233.71 L59.70,234.23 L61.82,234.56 L64.00,234.67 L192.00,234.67 L194.18,234.56 L196.30,234.23 L198.34,233.71 L200.30,232.99 L202.17,232.09 L203.93,231.02 L205.57,229.80 L207.08,228.42 L208.46,226.90 L209.69,225.26 L210.76,223.50 L211.66,221.64 L212.37,219.68 L212.90,217.63 L213.22,215.51 L213.33,213.33 L213.33,106.67 L149.33,106.67 L147.15,106.56 L145.03,106.23 L142.99,105.71 L141.03,104.99 L139.16,104.09 L137.41,103.02 L135.76,101.80 L134.25,100.42 L132.87,98.90 L131.64,97.26 L130.57,95.50 L129.68,93.64 L128.96,91.68 L128.43,89.63 L128.11,87.51 L128.00,85.33 Z" fill="#0078d4" stroke="#1e1e1e" stroke-width="1" stroke-linejoin="round"/><path d="M88.00,122.67 L168.00,122.67 L169.61,122.83 L171.11,123.30 L172.47,124.03 L173.66,125.01 L174.63,126.19 L175.37,127.55 L175.84,129.05 L176.00,130.67 L175.84,132.28 L175.37,133.78 L174.63,135.14 L173.66,136.32 L172.47,137.30 L171.11,138.04 L169.61,138.50 L168.00,138.67 L88.00,138.67 L86.39,138.50 L84.89,138.04 L83.53,137.30 L82.34,136.32 L81.37,135.14 L80.63,133.78 L80.16,132.28 L80.00,130.67 L80.16,129.05 L80.63,127.55 L81.37,126.19 L82.34,125.01 L83.53,124.03 L84.89,123.30 L86.39,122.83 L88.00,122.67 Z" fill="#ffffff" stroke="#1e1e1e" stroke-width="1" stroke-linejoin="round"/><path d="M88.00,152.00 L168.00,152.00 L169.61,152.16 L171.11,152.63 L172.47,153.37 L173.66,154.34 L174.63,155.53 L175.37,156.89 L175.84,158.39 L176.00,160.00 L175.84,161.61 L175.37,163.11 L174.63,164.47 L173.66,165.66 L172.47,166.63 L171.11,167.37 L169.61,167.84 L168.00,168.00 L88.00,168.00 L86.39,167.84 L84.89,167.37 L83.53,166.63 L82.34,165.66 L81.37,164.47 L80.63,163.11 L80.16,161.61 L80.00,160.00 L80.16,158.39 L80.63,156.89 L81.37,155.53 L82.34,154.34 L83.53,153.37 L84.89,152.63 L86.39,152.16 L88.00,152.00 Z" fill="#ffffff" stroke="#1e1e1e" stroke-width="1" stroke-linejoin="round"/><path d="M88.00,181.33 L168.00,181.33 L169.61,181.50 L171.11,181.96 L172.47,182.70 L173.66,183.68 L174.63,184.86 L175.37,186.22 L175.84,187.72 L176.00,189.33 L175.84,190.95 L175.37,192.45 L174.63,193.81 L173.66,194.99 L172.47,195.97 L171.11,196.70 L169.61,197.17 L168.00,197.33 L88.00,197.33 L86.39,197.17 L84.89,196.70 L83.53,195.97 L82.34,194.99 L81.37,193.81 L80.63,192.45 L80.16,190.95 L80.00,189.33 L80.16,187.72 L80.63,186.22 L81.37,184.86 L82.34,183.68 L83.53,182.70 L84.89,181.96 L86.39,181.50 L88.00,181.33 Z" fill="#ffffff" stroke="#1e1e1e" stroke-width="1" stroke-linejoin="round"/><path d="M144.00,85.33 L144.00,26.67 L208.00,90.67 L149.33,90.67 L148.26,90.56 L147.26,90.25 L146.35,89.76 L145.56,89.10 L144.91,88.32 L144.42,87.41 L144.11,86.41 L144.00,85.33 Z" fill="#0078d4" stroke="#1e1e1e" stroke-width="1" stroke-linejoin="round"/></svg>