<svg xmlns="http://www.w3.org/2000/svg" viewBox="17.69 7.85 82.77 100.00"><path d="M59.08,9.85 L59.08,37.54 L59.12,38.48 L59.26,39.40 L59.49,40.28 L59.80,41.13 L60.19,41.94 L60.65,42.70 L61.18,43.41 L61.78,44.07 L62.44,44.66 L63.15,45.19 L63.91,45.66 L64.71,46.04 L65.56,46.35 L66.45,46.58 L67.36,46.72 L68.31,46.77 L98.46,46.77 L98.46,98.46 L98.42,99.22 L98.31,99.95 L97.88,101.34 L97.20,102.59 L96.30,103.68 L95.21,104.59 L93.95,105.27 L92.57,105.70 L91.83,105.81 L91.08,105.85 L27.08,105.85 L26.32,105.81 L25.59,105.70 L24.20,105.27 L22.95,104.59 L21.86,103.68 L20.95,102.59 L20.27,101.34 L19.84,99.95 L19.73,99.22 L19.69,98.46 L19.69,17.23 L19.73,16.48 L19.84,15.74 L20.27,14.36 L20.95,13.10 L21.86,12.01 L22.95,11.11 L24.20,10.43 L25.59,10.00 L26.32,9.88 L27.08,9.85 L59.08,9.85 Z" fill="#0078d4" stroke="#1e1e1e" stroke-width="1" stroke-linejoin="round"/><path d="M65.23,10.99 L65.23,37.54 L65.29,38.16 L65.47,38.74 L65.76,39.26 L66.13,39.71 L66.59,40.09 L67.11,40.37 L67.69,40.55 L68.31,40.62 L97.14,40.62 L65.23,10.99 Z" fill="#0078d4" stroke="#1e1e1e" stroke-width="1" stroke-linejoin="round"/></svg>