<svg xmlns="http://www.w3.org/2000/svg" viewBox="19.33 19.33 196.00 228.00"><path d="M128.00,81.33 L128.00,21.33 L58.67,21.33 L57.03,21.42 L55.44,21.66 L52.44,22.59 L49.72,24.07 L47.35,26.02 L45.40,28.39 L43.92,31.11 L42.99,34.11 L42.75,35.70 L42.67,37.33 L42.67,128.54 L45.33,126.07 L48.22,123.87 L51.33,121.95 L54.62,120.34 L58.09,119.06 L61.71,118.11 L65.47,117.53 L69.33,117.33 L72.85,117.50 L76.27,117.98 L79.59,118.76 L82.79,119.83 L85.85,121.17 L88.76,122.78 L91.50,124.62 L94.06,126.70 L96.43,128.99 L98.59,131.48 L100.53,134.15 L102.23,137.00 L103.68,140.00 L104.86,143.15 L105.75,146.42 L106.35,149.80 L108.63,150.34 L110.82,151.07 L112.93,151.98 L114.94,153.06 L116.84,154.30 L118.62,155.69 L120.28,157.23 L121.80,158.90 L123.18,160.70 L124.40,162.61 L125.46,164.63 L126.35,166.75 L127.06,168.95 L127.58,171.23 L127.89,173.59 L128.00,176.00 L128.00,229.33 L197.33,229.33 L198.97,229.25 L200.56,229.01 L203.56,228.08 L206.28,226.60 L208.65,224.65 L210.60,222.28 L212.08,219.56 L213.01,216.56 L213.25,214.97 L213.33,213.33 L213.33,101.33 L148.00,101.33 L145.96,101.23 L143.97,100.93 L142.05,100.43 L140.22,99.76 L138.47,98.92 L136.82,97.92 L135.28,96.77 L133.86,95.48 L132.57,94.06 L131.42,92.52 L130.41,90.87 L129.57,89.12 L128.90,87.28 L128.41,85.36 L128.10,83.38 L128.00,81.33 Z" fill="#0078d4" stroke="#1e1e1e" stroke-width="1" stroke-linejoin="round"/><path d="M141.33,81.33 L141.33,23.81 L210.46,88.00 L148.00,88.00 L146.66,87.86 L145.40,87.48 L144.27,86.86 L143.29,86.05 L142.47,85.06 L141.86,83.93 L141.47,82.68 L141.33,81.33 Z" fill="#0078d4" stroke="#1e1e1e" stroke-width="1" stroke-linejoin="round"/><path d="M42.67,160.00 L37.33,160.00 L35.70,160.08 L34.11,160.33 L31.11,161.26 L28.39,162.73 L26.02,164.69 L24.07,167.05 L22.59,169.77 L21.66,172.78 L21.42,174.36 L21.33,176.00 L21.33,229.33 L21.42,230.97 L21.66,232.56 L22.59,235.56 L24.07,238.28 L26.02,240.65 L28.39,242.60 L31.11,244.08 L34.11,245.01 L35.70,245.25 L37.33,245.33 L101.33,245.33 L102.97,245.25 L104.56,245.01 L107.56,244.08 L110.28,242.60 L112.65,240.65 L114.60,238.28 L116.08,235.56 L117.01,232.56 L117.25,230.97 L117.33,229.33 L117.33,176.00 L117.25,174.36 L117.01,172.78 L116.08,169.77 L114.60,167.05 L112.65,164.69 L110.28,162.73 L107.56,161.26 L104.56,160.33 L102.97,160.08 L101.33,160.00 L96.00,160.00 L96.00,154.67 L95.86,151.94 L95.46,149.29 L94.80,146.74 L93.90,144.29 L92.78,141.96 L91.45,139.76 L89.91,137.70 L88.19,135.81 L86.30,134.09 L84.24,132.55 L82.04,131.22 L79.71,130.10 L77.26,129.20 L74.71,128.54 L72.06,128.14 L69.33,128.00 L66.61,128.14 L63.96,128.54 L61.40,129.20 L58.95,130.10 L56.62,131.22 L54.42,132.55 L52.37,134.09 L50.48,135.81 L48.76,137.70 L47.22,139.76 L45.89,141.96 L44.76,144.29 L43.87,146.74 L43.21,149.29 L42.80,151.94 L42.67,154.67 L42.67,160.00 Z" fill="#8dc8e8" stroke="#1e1e1e" stroke-width="1" stroke-linejoin="round"/><path d="M69.33,141.33 L66.65,141.60 L64.14,142.38 L61.88,143.61 L59.91,145.24 L58.28,147.21 L57.05,149.48 L56.27,151.98 L56.00,154.67 L56.00,160.00 L82.67,160.00 L82.67,154.67 L82.40,151.98 L81.62,149.48 L80.39,147.21 L78.76,145.24 L76.79,143.61 L74.52,142.38 L72.02,141.60 L69.33,141.33 Z" fill="#ffffff" stroke="#1e1e1e" stroke-width="1" stroke-linejoin="round"/><path d="M69.33,218.67 L70.97,218.58 L72.56,218.34 L75.56,217.41 L78.28,215.93 L80.65,213.98 L82.60,211.61 L84.08,208.89 L85.01,205.89 L85.25,204.30 L85.33,202.67 L85.25,201.03 L85.01,199.44 L84.08,196.44 L82.60,193.72 L80.65,191.35 L78.28,189.40 L75.56,187.92 L72.56,186.99 L70.97,186.75 L69.33,186.67 L67.70,186.75 L66.11,186.99 L63.11,187.92 L60.39,189.40 L58.02,191.35 L56.07,193.72 L54.59,196.44 L53.66,199.44 L53.42,201.03 L53.33,202.67 L53.42,204.30 L53.66,205.89 L54.59,208.89 L56.07,211.61 L58.02,213.98 L60.39,215.93 L63.11,217.41 L66.11,218.34 L67.70,218.58 L69.33,218.67 Z" fill="#ffffff" stroke="#1e1e1e" stroke-width="1" stroke-linejoin="round"/></svg>