<svg xmlns="http://www.w3.org/2000/svg" viewBox="20.59 9.29 88.71 100.00"><path d="M56.47,36.71 L56.47,11.29 L31.06,11.29 L30.19,11.34 L29.35,11.47 L28.54,11.67 L27.76,11.96 L27.02,12.32 L26.32,12.74 L25.67,13.23 L25.07,13.78 L24.52,14.38 L24.03,15.03 L23.61,15.73 L23.25,16.47 L22.97,17.25 L22.76,18.06 L22.63,18.90 L22.59,19.76 L22.59,93.18 L22.63,94.04 L22.76,94.88 L22.97,95.70 L23.25,96.47 L23.61,97.21 L24.03,97.91 L24.52,98.56 L25.07,99.17 L25.67,99.71 L26.32,100.20 L27.02,100.62 L27.76,100.98 L28.54,101.27 L29.35,101.47 L30.19,101.60 L31.06,101.65 L50.82,101.65 L50.82,96.00 L50.87,95.14 L50.99,94.31 L51.20,93.51 L51.48,92.73 L51.83,92.00 L52.26,91.30 L52.76,90.64 L53.32,90.02 L67.88,75.45 L67.76,73.06 L67.88,70.78 L68.23,68.56 L68.82,66.38 L69.64,64.28 L70.62,62.36 L71.76,60.56 L73.07,58.87 L74.53,57.29 L76.16,55.84 L77.90,54.57 L79.77,53.48 L81.74,52.56 L83.79,51.84 L85.88,51.31 L88.02,50.97 L90.21,50.83 L90.28,50.82 L90.35,50.82 L90.35,45.18 L64.94,45.18 L64.08,45.13 L63.23,45.00 L62.42,44.80 L61.64,44.51 L60.90,44.15 L60.21,43.73 L59.55,43.24 L58.95,42.70 L58.40,42.09 L57.92,41.44 L57.49,40.74 L57.14,40.00 L56.85,39.22 L56.64,38.41 L56.51,37.57 L56.47,36.71 Z" fill="#0078d4" stroke="#1e1e1e" stroke-width="1" stroke-linejoin="round"/><path d="M62.12,36.71 L62.12,12.71 L88.94,39.53 L64.94,39.53 L64.37,39.47 L63.84,39.31 L63.36,39.05 L62.94,38.70 L62.60,38.28 L62.34,37.80 L62.17,37.27 L62.12,36.71 Z" fill="#0078d4" stroke="#1e1e1e" stroke-width="1" stroke-linejoin="round"/><path d="M57.31,106.46 L57.75,106.82 L58.22,107.08 L58.74,107.24 L59.29,107.29 L70.59,107.29 L71.46,107.17 L72.13,106.90 L72.63,106.48 L72.97,105.93 L73.19,105.29 L73.32,104.60 L73.41,103.15 L73.41,101.65 L76.59,101.51 L77.13,101.44 L77.59,101.31 L77.99,101.11 L78.31,100.85 L78.57,100.53 L78.76,100.15 L78.90,99.69 L78.97,99.18 L79.06,96.00 L81.88,96.00 L82.72,95.90 L83.38,95.60 L83.89,95.16 L84.26,94.63 L84.52,94.01 L84.66,93.31 L84.75,91.76 L84.71,90.49 L84.71,89.38 L86.17,89.83 L87.66,90.13 L89.17,90.30 L90.71,90.35 L92.43,90.25 L94.09,89.99 L95.68,89.57 L97.19,88.99 L98.63,88.26 L99.98,87.40 L101.25,86.40 L102.44,85.28 L103.52,84.05 L104.48,82.73 L105.31,81.33 L106.01,79.85 L106.57,78.31 L106.97,76.72 L107.21,75.09 L107.29,73.41 L107.21,71.67 L106.96,69.99 L106.55,68.37 L105.97,66.79 L105.25,65.30 L104.40,63.90 L103.44,62.61 L102.35,61.41 L101.16,60.33 L99.86,59.36 L98.47,58.52 L96.97,57.79 L95.40,57.22 L93.77,56.80 L92.09,56.55 L90.35,56.47 L88.66,56.59 L87.01,56.85 L85.41,57.25 L83.87,57.79 L82.39,58.48 L81.00,59.29 L79.70,60.24 L78.49,61.32 L77.38,62.51 L76.39,63.79 L75.52,65.16 L74.78,66.62 L74.18,68.15 L73.75,69.73 L73.50,71.37 L73.41,73.06 L73.53,75.19 L73.90,77.43 L57.31,94.01 L56.94,94.45 L56.68,94.93 L56.52,95.45 L56.47,96.00 L56.47,104.47 L56.52,105.02 L56.68,105.54 L56.94,106.02 L57.31,106.46 Z" fill="#8dc8e8" stroke="#8dc8e8" stroke-width="1" stroke-linejoin="round"/><path d="M98.82,69.18 L98.75,68.33 L98.51,67.54 L98.13,66.83 L97.59,66.18 L96.94,65.64 L96.22,65.25 L95.44,65.02 L94.59,64.94 L93.74,65.02 L92.96,65.25 L92.24,65.64 L91.59,66.18 L91.05,66.83 L90.66,67.54 L90.43,68.33 L90.35,69.18 L90.43,70.03 L90.66,70.81 L91.05,71.53 L91.59,72.18 L92.24,72.72 L92.96,73.10 L93.74,73.33 L94.59,73.41 L95.44,73.33 L96.22,73.10 L96.94,72.72 L97.59,72.18 L98.13,71.53 L98.51,70.81 L98.75,70.03 L98.82,69.18 Z" fill="#ffffff" stroke="#ffffff" stroke-width="1" stroke-linejoin="round"/></svg>