<svg xmlns="http://www.w3.org/2000/svg" viewBox="40.67 19.33 174.68 217.33"><path d="M66.67,21.33 L64.21,21.46 L61.83,21.82 L59.53,22.41 L57.32,23.22 L55.23,24.23 L53.25,25.43 L51.40,26.81 L49.70,28.36 L48.15,30.07 L46.77,31.91 L45.56,33.89 L44.55,35.99 L43.75,38.20 L43.15,40.50 L42.79,42.88 L42.67,45.33 L42.67,184.00 L42.79,186.45 L43.15,188.84 L43.75,191.14 L44.55,193.34 L45.56,195.44 L46.77,197.42 L48.15,199.27 L49.70,200.97 L51.40,202.52 L53.25,203.90 L55.23,205.10 L57.32,206.11 L59.53,206.92 L61.83,207.51 L64.21,207.88 L66.67,208.00 L162.67,208.00 L165.12,207.88 L167.50,207.51 L169.80,206.92 L172.01,206.11 L174.11,205.10 L176.09,203.90 L177.93,202.52 L179.64,200.97 L181.19,199.27 L182.57,197.42 L183.77,195.44 L184.78,193.34 L185.59,191.14 L186.18,188.84 L186.54,186.45 L186.67,184.00 L186.67,95.97 L136.04,95.97 L133.59,95.85 L131.20,95.49 L128.90,94.89 L126.70,94.09 L124.60,93.08 L122.62,91.87 L120.78,90.49 L119.07,88.94 L117.52,87.24 L116.14,85.39 L114.94,83.41 L113.93,81.32 L113.12,79.11 L112.53,76.81 L112.17,74.43 L112.04,71.97 L112.04,21.33 L66.67,21.33 Z" fill="#0078d4" stroke="#0078d4" stroke-width="1" stroke-linejoin="round"/><path d="M74.67,130.67 L74.83,129.05 L75.30,127.55 L76.03,126.19 L77.01,125.01 L78.19,124.03 L79.55,123.30 L81.05,122.83 L82.67,122.67 L84.28,122.83 L85.78,123.30 L87.14,124.03 L88.32,125.01 L89.30,126.19 L90.04,127.55 L90.50,129.05 L90.67,130.67 L90.50,132.28 L90.04,133.78 L89.30,135.14 L88.32,136.32 L87.14,137.30 L85.78,138.04 L84.28,138.50 L82.67,138.67 L81.05,138.50 L79.55,138.04 L78.19,137.30 L77.01,136.32 L76.03,135.14 L75.30,133.78 L74.83,132.28 L74.67,130.67 Z" fill="#ffffff" stroke="#ffffff" stroke-width="1" stroke-linejoin="round"/><path d="M82.67,170.67 L81.05,170.50 L79.55,170.04 L78.19,169.30 L77.01,168.32 L76.03,167.14 L75.30,165.78 L74.83,164.28 L74.67,162.67 L74.83,161.05 L75.30,159.55 L76.03,158.19 L77.01,157.01 L78.19,156.03 L79.55,155.30 L81.05,154.83 L82.67,154.67 L84.28,154.83 L85.78,155.30 L87.14,156.03 L88.32,157.01 L89.30,158.19 L90.04,159.55 L90.50,161.05 L90.67,162.67 L90.50,164.28 L90.04,165.78 L89.30,167.14 L88.32,168.32 L87.14,169.30 L85.78,170.04 L84.28,170.50 L82.67,170.67 Z" fill="#ffffff" stroke="#ffffff" stroke-width="1" stroke-linejoin="round"/><path d="M114.67,138.67 L113.05,138.50 L111.55,138.04 L110.19,137.30 L109.01,136.32 L108.03,135.14 L107.30,133.78 L106.83,132.28 L106.67,130.67 L106.83,129.05 L107.30,127.55 L108.03,126.19 L109.01,125.01 L110.19,124.03 L111.55,123.30 L113.05,122.83 L114.67,122.67 L147.24,122.67 L148.85,122.83 L150.35,123.30 L151.71,124.03 L152.90,125.01 L153.87,126.19 L154.61,127.55 L155.08,129.05 L155.24,130.67 L155.08,132.28 L154.61,133.78 L153.87,135.14 L152.90,136.32 L151.71,137.30 L150.35,138.04 L148.85,138.50 L147.24,138.67 L114.67,138.67 Z" fill="#ffffff" stroke="#ffffff" stroke-width="1" stroke-linejoin="round"/><path d="M106.67,162.67 L106.83,161.05 L107.30,159.55 L108.03,158.19 L109.01,157.01 L110.19,156.03 L111.55,155.30 L113.05,154.83 L114.67,154.67 L147.24,154.67 L148.85,154.83 L150.35,155.30 L151.71,156.03 L152.90,157.01 L153.87,158.19 L154.61,159.55 L155.08,161.05 L155.24,162.67 L155.08,164.28 L154.61,165.78 L153.87,167.14 L152.90,168.32 L151.71,169.30 L150.35,170.04 L148.85,170.50 L147.24,170.67 L114.67,170.67 L113.05,170.50 L111.55,170.04 L110.19,169.30 L109.01,168.32 L108.03,167.14 L107.30,165.78 L106.83,164.28 L106.67,162.67 Z" fill="#ffffff" stroke="#ffffff" stroke-width="1" stroke-linejoin="round"/><path d="M128.04,26.32 L128.04,71.97 L128.20,73.59 L128.67,75.09 L129.41,76.45 L130.38,77.63 L131.57,78.61 L132.93,79.35 L134.43,79.81 L136.04,79.97 L181.69,79.97 L179.64,77.63 L130.37,28.36 L128.04,26.32 Z" fill="#0078d4" stroke="#0078d4" stroke-width="1" stroke-linejoin="round"/><path d="M70.71,218.67 L72.20,222.03 L74.17,225.10 L76.56,227.83 L79.34,230.16 L82.46,232.06 L85.86,233.48 L89.51,234.36 L93.34,234.67 L162.68,234.67 L167.86,234.41 L172.89,233.64 L177.74,232.39 L182.40,230.69 L186.83,228.55 L191.00,226.01 L194.90,223.10 L198.50,219.83 L201.77,216.23 L204.69,212.33 L207.23,208.15 L209.36,203.72 L211.07,199.07 L212.31,194.21 L213.08,189.18 L213.34,184.00 L213.34,121.27 L213.23,118.90 L212.88,116.56 L212.31,114.29 L211.52,112.08 L210.52,109.97 L209.31,107.95 L207.91,106.06 L206.31,104.30 L197.34,95.33 L197.34,184.00 L197.16,187.54 L196.64,190.99 L195.78,194.31 L194.62,197.49 L193.16,200.52 L191.42,203.38 L189.43,206.05 L187.19,208.51 L184.73,210.75 L182.06,212.75 L179.20,214.48 L176.17,215.94 L172.98,217.11 L169.66,217.96 L166.22,218.49 L162.68,218.67 L70.71,218.67 Z" fill="#8dc8e8" stroke="#1e1e1e" stroke-width="1" stroke-linejoin="round"/></svg>