<svg xmlns="http://www.w3.org/2000/svg" viewBox="40.67 19.33 174.67 217.33"><path d="M128.00,85.33 L128.00,21.33 L64.00,21.33 L61.82,21.44 L59.70,21.77 L57.66,22.29 L55.70,23.01 L53.83,23.91 L52.07,24.98 L50.43,26.20 L48.92,27.58 L47.54,29.10 L46.31,30.74 L45.24,32.50 L44.34,34.36 L43.63,36.32 L43.10,38.37 L42.78,40.49 L42.67,42.67 L42.67,213.33 L42.78,215.51 L43.10,217.63 L43.63,219.68 L44.34,221.64 L45.24,223.50 L46.31,225.26 L47.54,226.90 L48.92,228.42 L50.43,229.80 L52.07,231.02 L53.83,232.09 L55.70,232.99 L57.66,233.71 L59.70,234.23 L61.82,234.56 L64.00,234.67 L192.00,234.67 L194.18,234.56 L196.30,234.23 L198.34,233.71 L200.30,232.99 L202.17,232.09 L203.93,231.02 L205.57,229.80 L207.08,228.42 L208.46,226.90 L209.69,225.26 L210.76,223.50 L211.66,221.64 L212.37,219.68 L212.90,217.63 L213.22,215.51 L213.33,213.33 L213.33,106.67 L149.33,106.67 L147.15,106.56 L145.03,106.23 L142.99,105.71 L141.03,104.99 L139.16,104.09 L137.41,103.02 L135.76,101.80 L134.25,100.42 L132.87,98.90 L131.64,97.26 L130.57,95.50 L129.68,93.64 L128.96,91.68 L128.43,89.63 L128.11,87.51 L128.00,85.33 Z" fill="#0078d4" stroke="#0078d4" stroke-width="1" stroke-linejoin="round"/><path d="M74.67,130.67 L74.83,129.05 L75.30,127.55 L76.03,126.19 L77.01,125.01 L78.19,124.03 L79.55,123.30 L81.05,122.83 L82.67,122.67 L84.28,122.83 L85.78,123.30 L87.14,124.03 L88.32,125.01 L89.30,126.19 L90.04,127.55 L90.50,129.05 L90.67,130.67 L90.50,132.28 L90.04,133.78 L89.30,135.14 L88.32,136.32 L87.14,137.30 L85.78,138.04 L84.28,138.50 L82.67,138.67 L81.05,138.50 L79.55,138.04 L78.19,137.30 L77.01,136.32 L76.03,135.14 L75.30,133.78 L74.83,132.28 L74.67,130.67 Z" fill="#ffffff" stroke="#ffffff" stroke-width="1" stroke-linejoin="round"/><path d="M74.67,162.67 L74.83,161.05 L75.30,159.55 L76.03,158.19 L77.01,157.01 L78.19,156.03 L79.55,155.30 L81.05,154.83 L82.67,154.67 L84.28,154.83 L85.78,155.30 L87.14,156.03 L88.32,157.01 L89.30,158.19 L90.04,159.55 L90.50,161.05 L90.67,162.67 L90.50,164.28 L90.04,165.78 L89.30,167.14 L88.32,168.32 L87.14,169.30 L85.78,170.04 L84.28,170.50 L82.67,170.67 L81.05,170.50 L79.55,170.04 L78.19,169.30 L77.01,168.32 L76.03,167.14 L75.30,165.78 L74.83,164.28 L74.67,162.67 Z" fill="#ffffff" stroke="#ffffff" stroke-width="1" stroke-linejoin="round"/><path d="M74.67,194.67 L74.83,193.05 L75.30,191.55 L76.03,190.19 L77.01,189.01 L78.19,188.03 L79.55,187.30 L81.05,186.83 L82.67,186.67 L84.28,186.83 L85.78,187.30 L87.14,188.03 L88.32,189.01 L89.30,190.19 L90.04,191.55 L90.50,193.05 L90.67,194.67 L90.50,196.28 L90.04,197.78 L89.30,199.14 L88.32,200.32 L87.14,201.30 L85.78,202.04 L84.28,202.50 L82.67,202.67 L81.05,202.50 L79.55,202.04 L78.19,201.30 L77.01,200.32 L76.03,199.14 L75.30,197.78 L74.83,196.28 L74.67,194.67 Z" fill="#ffffff" stroke="#ffffff" stroke-width="1" stroke-linejoin="round"/><path d="M106.67,130.67 L106.83,129.05 L107.30,127.55 L108.03,126.19 L109.01,125.01 L110.19,124.03 L111.55,123.30 L113.05,122.83 L114.67,122.67 L173.33,122.67 L174.95,122.83 L176.45,123.30 L177.81,124.03 L178.99,125.01 L179.97,126.19 L180.70,127.55 L181.17,129.05 L181.33,130.67 L181.17,132.28 L180.70,133.78 L179.97,135.14 L178.99,136.32 L177.81,137.30 L176.45,138.04 L174.95,138.50 L173.33,138.67 L114.67,138.67 L113.05,138.50 L111.55,138.04 L110.19,137.30 L109.01,136.32 L108.03,135.14 L107.30,133.78 L106.83,132.28 L106.67,130.67 Z" fill="#ffffff" stroke="#ffffff" stroke-width="1" stroke-linejoin="round"/><path d="M106.67,162.67 L106.83,161.05 L107.30,159.55 L108.03,158.19 L109.01,157.01 L110.19,156.03 L111.55,155.30 L113.05,154.83 L114.67,154.67 L173.33,154.67 L174.95,154.83 L176.45,155.30 L177.81,156.03 L178.99,157.01 L179.97,158.19 L180.70,159.55 L181.17,161.05 L181.33,162.67 L181.17,164.28 L180.70,165.78 L179.97,167.14 L178.99,168.32 L177.81,169.30 L176.45,170.04 L174.95,170.50 L173.33,170.67 L114.67,170.67 L113.05,170.50 L111.55,170.04 L110.19,169.30 L109.01,168.32 L108.03,167.14 L107.30,165.78 L106.83,164.28 L106.67,162.67 Z" fill="#ffffff" stroke="#ffffff" stroke-width="1" stroke-linejoin="round"/><path d="M106.67,194.67 L106.83,193.05 L107.30,191.55 L108.03,190.19 L109.01,189.01 L110.19,188.03 L111.55,187.30 L113.05,186.83 L114.67,186.67 L173.33,186.67 L174.95,186.83 L176.45,187.30 L177.81,188.03 L178.99,189.01 L179.97,190.19 L180.70,191.55 L181.17,193.05 L181.33,194.67 L181.17,196.28 L180.70,197.78 L179.97,199.14 L178.99,200.32 L177.81,201.30 L176.45,202.04 L174.95,202.50 L173.33,202.67 L114.67,202.67 L113.05,202.50 L111.55,202.04 L110.19,201.30 L109.01,200.32 L108.03,199.14 L107.30,197.78 L106.83,196.28 L106.67,194.67 Z" fill="#ffffff" stroke="#ffffff" stroke-width="1" stroke-linejoin="round"/><path d="M144.00,85.33 L144.00,26.67 L208.00,90.67 L149.33,90.67 L148.26,90.56 L147.26,90.25 L146.35,89.76 L145.56,89.10 L144.91,88.32 L144.42,87.41 L144.11,86.41 L144.00,85.33 Z" fill="#0078d4" stroke="#0078d4" stroke-width="1" stroke-linejoin="round"/></svg>