<svg xmlns="http://www.w3.org/2000/svg" viewBox="19.33 19.35 217.32 217.32"><path d="M171.77,32.14 L174.56,29.61 L177.54,27.42 L180.68,25.56 L183.95,24.04 L187.33,22.86 L190.78,22.02 L194.28,21.51 L197.81,21.35 L201.34,21.51 L204.85,22.02 L208.30,22.86 L211.68,24.04 L214.94,25.56 L218.08,27.41 L221.06,29.61 L223.86,32.14 L226.39,34.93 L228.58,37.91 L230.44,41.05 L231.95,44.32 L233.13,47.69 L233.98,51.15 L234.48,54.65 L234.65,58.18 L234.48,61.71 L233.98,65.22 L233.13,68.67 L231.95,72.04 L230.44,75.31 L228.58,78.45 L226.39,81.43 L223.86,84.23 L212.10,95.99 L160.00,43.90 L171.77,32.14 Z" fill="#0078d4" stroke="#1e1e1e" stroke-width="1" stroke-linejoin="round"/><path d="M150.58,53.33 L42.87,161.05 L40.04,164.28 L37.69,167.84 L35.82,171.69 L34.49,175.76 L21.54,226.35 L21.33,228.07 L21.57,229.76 L22.23,231.34 L23.29,232.71 L24.66,233.77 L26.24,234.43 L27.93,234.67 L29.65,234.46 L80.24,221.53 L84.32,220.19 L88.17,218.33 L91.73,215.97 L94.97,213.14 L202.67,105.42 L150.58,53.33 Z" fill="#0078d4" stroke="#1e1e1e" stroke-width="1" stroke-linejoin="round"/></svg>