<svg xmlns="http://www.w3.org/2000/svg" viewBox="4.86 11.71 100.00 86.29"><path d="M22.29,13.71 L20.71,13.79 L19.18,14.03 L17.70,14.41 L16.28,14.93 L14.93,15.58 L13.66,16.35 L12.47,17.24 L11.38,18.23 L10.38,19.33 L9.49,20.52 L8.72,21.79 L8.07,23.14 L7.55,24.55 L7.17,26.03 L6.94,27.57 L6.86,29.14 L6.86,80.57 L6.94,82.15 L7.17,83.68 L7.55,85.16 L8.07,86.58 L8.72,87.93 L9.49,89.20 L10.38,90.39 L11.38,91.48 L12.47,92.48 L13.66,93.37 L14.93,94.14 L16.28,94.79 L17.70,95.31 L19.18,95.69 L20.71,95.92 L22.29,96.00 L87.43,96.00 L89.01,95.92 L90.54,95.69 L92.02,95.31 L93.43,94.79 L94.78,94.14 L96.05,93.37 L97.24,92.48 L98.34,91.48 L99.33,90.39 L100.22,89.20 L100.99,87.93 L101.64,86.58 L102.16,85.16 L102.54,83.68 L102.78,82.15 L102.86,80.57 L102.86,29.14 L102.78,27.57 L102.54,26.03 L102.16,24.55 L101.64,23.14 L100.99,21.79 L100.22,20.52 L99.33,19.33 L98.34,18.23 L97.24,17.24 L96.05,16.35 L94.78,15.58 L93.43,14.93 L92.02,14.41 L90.54,14.03 L89.01,13.79 L87.43,13.71 L22.29,13.71 Z" fill="#0078d4" stroke="#0078d4" stroke-width="1" stroke-linejoin="round"/><path d="M89.14,27.43 L89.83,27.50 L90.48,27.70 L91.06,28.01 L91.57,28.43 L91.99,28.94 L92.30,29.52 L92.50,30.17 L92.57,30.86 L92.57,37.71 L92.50,38.41 L92.30,39.05 L91.99,39.63 L91.57,40.14 L91.06,40.56 L90.48,40.87 L89.83,41.07 L89.14,41.14 L88.45,41.07 L87.81,40.87 L87.23,40.56 L86.72,40.14 L86.30,39.63 L85.98,39.05 L85.78,38.41 L85.71,37.71 L85.71,30.86 L85.78,30.17 L85.98,29.52 L86.30,28.94 L86.72,28.43 L87.23,28.01 L87.81,27.70 L88.45,27.50 L89.14,27.43 Z" fill="#ffffff" stroke="#ffffff" stroke-width="1" stroke-linejoin="round"/><path d="M85.71,51.43 L85.78,50.74 L85.98,50.09 L86.30,49.51 L86.72,49.00 L87.23,48.59 L87.81,48.27 L88.45,48.07 L89.14,48.00 L89.83,48.07 L90.48,48.27 L91.06,48.59 L91.57,49.00 L91.99,49.51 L92.30,50.09 L92.50,50.74 L92.57,51.43 L92.57,58.29 L92.50,58.98 L92.30,59.62 L91.99,60.20 L91.57,60.71 L91.06,61.13 L90.48,61.44 L89.83,61.64 L89.14,61.71 L88.45,61.64 L87.81,61.44 L87.23,61.13 L86.72,60.71 L86.30,60.20 L85.98,59.62 L85.78,58.98 L85.71,58.29 L85.71,51.43 Z" fill="#ffffff" stroke="#ffffff" stroke-width="1" stroke-linejoin="round"/><path d="M89.14,68.57 L89.83,68.64 L90.48,68.84 L91.06,69.16 L91.57,69.58 L91.99,70.08 L92.30,70.67 L92.50,71.31 L92.57,72.00 L92.57,78.86 L92.50,79.55 L92.30,80.19 L91.99,80.77 L91.57,81.28 L91.06,81.70 L90.48,82.02 L89.83,82.22 L89.14,82.29 L88.45,82.22 L87.81,82.02 L87.23,81.70 L86.72,81.28 L86.30,80.77 L85.98,80.19 L85.78,79.55 L85.71,78.86 L85.71,72.00 L85.78,71.31 L85.98,70.67 L86.30,70.08 L86.72,69.58 L87.23,69.16 L87.81,68.84 L88.45,68.64 L89.14,68.57 Z" fill="#ffffff" stroke="#ffffff" stroke-width="1" stroke-linejoin="round"/><path d="M17.14,30.86 L17.21,30.17 L17.41,29.52 L17.73,28.94 L18.15,28.43 L18.65,28.01 L19.24,27.70 L19.88,27.50 L20.57,27.43 L21.26,27.50 L21.91,27.70 L22.49,28.01 L23.00,28.43 L23.41,28.94 L23.73,29.52 L23.93,30.17 L24.00,30.86 L24.00,37.71 L23.93,38.41 L23.73,39.05 L23.41,39.63 L23.00,40.14 L22.49,40.56 L21.91,40.87 L21.26,41.07 L20.57,41.14 L19.88,41.07 L19.24,40.87 L18.65,40.56 L18.15,40.14 L17.73,39.63 L17.41,39.05 L17.21,38.41 L17.14,37.71 L17.14,30.86 Z" fill="#ffffff" stroke="#ffffff" stroke-width="1" stroke-linejoin="round"/><path d="M20.57,48.00 L21.26,48.07 L21.91,48.27 L22.49,48.59 L23.00,49.00 L23.41,49.51 L23.73,50.09 L23.93,50.74 L24.00,51.43 L24.00,58.29 L23.93,58.98 L23.73,59.62 L23.41,60.20 L23.00,60.71 L22.49,61.13 L21.91,61.44 L21.26,61.64 L20.57,61.71 L19.88,61.64 L19.24,61.44 L18.65,61.13 L18.15,60.71 L17.73,60.20 L17.41,59.62 L17.21,58.98 L17.14,58.29 L17.14,51.43 L17.21,50.74 L17.41,50.09 L17.73,49.51 L18.15,49.00 L18.65,48.59 L19.24,48.27 L19.88,48.07 L20.57,48.00 Z" fill="#ffffff" stroke="#ffffff" stroke-width="1" stroke-linejoin="round"/><path d="M17.14,72.00 L17.21,71.31 L17.41,70.67 L17.73,70.08 L18.15,69.58 L18.65,69.16 L19.24,68.84 L19.88,68.64 L20.57,68.57 L21.26,68.64 L21.91,68.84 L22.49,69.16 L23.00,69.58 L23.41,70.08 L23.73,70.67 L23.93,71.31 L24.00,72.00 L24.00,78.86 L23.93,79.55 L23.73,80.19 L23.41,80.77 L23.00,81.28 L22.49,81.70 L21.91,82.02 L21.26,82.22 L20.57,82.29 L19.88,82.22 L19.24,82.02 L18.65,81.70 L18.15,81.28 L17.73,80.77 L17.41,80.19 L17.21,79.55 L17.14,78.86 L17.14,72.00 Z" fill="#ffffff" stroke="#ffffff" stroke-width="1" stroke-linejoin="round"/><path d="M44.57,44.74 L44.61,44.23 L44.71,43.75 L45.08,42.89 L45.65,42.17 L46.38,41.62 L47.21,41.27 L48.12,41.14 L49.06,41.26 L49.52,41.41 L49.98,41.64 L69.17,52.86 L69.84,53.38 L70.31,54.02 L70.60,54.74 L70.69,55.51 L70.60,56.27 L70.31,57.00 L69.84,57.64 L69.17,58.16 L49.98,69.38 L49.52,69.60 L49.06,69.76 L48.12,69.87 L47.21,69.74 L46.38,69.39 L45.65,68.85 L45.08,68.13 L44.71,67.26 L44.61,66.78 L44.57,66.28 L44.57,44.74 Z" fill="#ffffff" stroke="#ffffff" stroke-width="1" stroke-linejoin="round"/></svg>