<svg xmlns="http://www.w3.org/2000/svg" viewBox="14.00 30.00 228.00 196.00"><path d="M52.00,32.00 L48.32,32.19 L44.74,32.73 L41.29,33.62 L37.99,34.83 L34.84,36.35 L31.87,38.15 L29.10,40.22 L26.54,42.54 L24.22,45.10 L22.15,47.87 L20.35,50.84 L18.83,53.99 L17.62,57.29 L16.73,60.74 L16.19,64.32 L16.00,68.00 L16.00,188.00 L16.19,191.68 L16.73,195.26 L17.62,198.71 L18.83,202.01 L20.35,205.16 L22.15,208.13 L24.22,210.90 L26.54,213.46 L29.10,215.78 L31.87,217.85 L34.84,219.65 L37.99,221.17 L41.29,222.38 L44.74,223.27 L48.32,223.81 L52.00,224.00 L204.00,224.00 L207.68,223.81 L211.26,223.27 L214.71,222.38 L218.01,221.17 L221.16,219.65 L224.13,217.85 L226.90,215.78 L229.46,213.46 L231.78,210.90 L233.85,208.13 L235.65,205.16 L237.17,202.01 L238.38,198.71 L239.27,195.26 L239.81,191.68 L240.00,188.00 L240.00,68.00 L239.81,64.32 L239.27,60.74 L238.38,57.29 L237.17,53.99 L235.65,50.84 L233.85,47.87 L231.78,45.10 L229.46,42.54 L226.90,40.22 L224.13,38.15 L221.16,36.35 L218.01,34.83 L214.71,33.62 L211.26,32.73 L207.68,32.19 L204.00,32.00 L52.00,32.00 Z" fill="#0078d4" stroke="#1e1e1e" stroke-width="1" stroke-linejoin="round"/><path d="M208.00,64.00 L209.61,64.16 L211.11,64.63 L212.47,65.37 L213.66,66.34 L214.63,67.53 L215.37,68.89 L215.84,70.39 L216.00,72.00 L216.00,88.00 L215.84,89.61 L215.37,91.11 L214.63,92.47 L213.66,93.66 L212.47,94.63 L211.11,95.37 L209.61,95.84 L208.00,96.00 L206.39,95.84 L204.89,95.37 L203.53,94.63 L202.34,93.66 L201.37,92.47 L200.63,91.11 L200.16,89.61 L200.00,88.00 L200.00,72.00 L200.16,70.39 L200.63,68.89 L201.37,67.53 L202.34,66.34 L203.53,65.37 L204.89,64.63 L206.39,64.16 L208.00,64.00 Z" fill="#ffffff" stroke="#1e1e1e" stroke-width="1" stroke-linejoin="round"/><path d="M200.00,120.00 L200.16,118.39 L200.63,116.89 L201.37,115.53 L202.34,114.34 L203.53,113.37 L204.89,112.63 L206.39,112.16 L208.00,112.00 L209.61,112.16 L211.11,112.63 L212.47,113.37 L213.66,114.34 L214.63,115.53 L215.37,116.89 L215.84,118.39 L216.00,120.00 L216.00,136.00 L215.84,137.61 L215.37,139.11 L214.63,140.47 L213.66,141.66 L212.47,142.63 L211.11,143.37 L209.61,143.84 L208.00,144.00 L206.39,143.84 L204.89,143.37 L203.53,142.63 L202.34,141.66 L201.37,140.47 L200.63,139.11 L200.16,137.61 L200.00,136.00 L200.00,120.00 Z" fill="#ffffff" stroke="#1e1e1e" stroke-width="1" stroke-linejoin="round"/><path d="M208.00,160.00 L209.61,160.16 L211.11,160.63 L212.47,161.37 L213.66,162.34 L214.63,163.53 L215.37,164.89 L215.84,166.39 L216.00,168.00 L216.00,184.00 L215.84,185.61 L215.37,187.11 L214.63,188.47 L213.66,189.66 L212.47,190.63 L211.11,191.37 L209.61,191.84 L208.00,192.00 L206.39,191.84 L204.89,191.37 L203.53,190.63 L202.34,189.66 L201.37,188.47 L200.63,187.11 L200.16,185.61 L200.00,184.00 L200.00,168.00 L200.16,166.39 L200.63,164.89 L201.37,163.53 L202.34,162.34 L203.53,161.37 L204.89,160.63 L206.39,160.16 L208.00,160.00 Z" fill="#ffffff" stroke="#1e1e1e" stroke-width="1" stroke-linejoin="round"/><path d="M40.00,72.00 L40.16,70.39 L40.63,68.89 L41.37,67.53 L42.34,66.34 L43.53,65.37 L44.89,64.63 L46.39,64.16 L48.00,64.00 L49.61,64.16 L51.11,64.63 L52.47,65.37 L53.66,66.34 L54.63,67.53 L55.37,68.89 L55.84,70.39 L56.00,72.00 L56.00,88.00 L55.84,89.61 L55.37,91.11 L54.63,92.47 L53.66,93.66 L52.47,94.63 L51.11,95.37 L49.61,95.84 L48.00,96.00 L46.39,95.84 L44.89,95.37 L43.53,94.63 L42.34,93.66 L41.37,92.47 L40.63,91.11 L40.16,89.61 L40.00,88.00 L40.00,72.00 Z" fill="#ffffff" stroke="#1e1e1e" stroke-width="1" stroke-linejoin="round"/><path d="M48.00,112.00 L49.61,112.16 L51.11,112.63 L52.47,113.37 L53.66,114.34 L54.63,115.53 L55.37,116.89 L55.84,118.39 L56.00,120.00 L56.00,136.00 L55.84,137.61 L55.37,139.11 L54.63,140.47 L53.66,141.66 L52.47,142.63 L51.11,143.37 L49.61,143.84 L48.00,144.00 L46.39,143.84 L44.89,143.37 L43.53,142.63 L42.34,141.66 L41.37,140.47 L40.63,139.11 L40.16,137.61 L40.00,136.00 L40.00,120.00 L40.16,118.39 L40.63,116.89 L41.37,115.53 L42.34,114.34 L43.53,113.37 L44.89,112.63 L46.39,112.16 L48.00,112.00 Z" fill="#ffffff" stroke="#1e1e1e" stroke-width="1" stroke-linejoin="round"/><path d="M40.00,168.00 L40.16,166.39 L40.63,164.89 L41.37,163.53 L42.34,162.34 L43.53,161.37 L44.89,160.63 L46.39,160.16 L48.00,160.00 L49.61,160.16 L51.11,160.63 L52.47,161.37 L53.66,162.34 L54.63,163.53 L55.37,164.89 L55.84,166.39 L56.00,168.00 L56.00,184.00 L55.84,185.61 L55.37,187.11 L54.63,188.47 L53.66,189.66 L52.47,190.63 L51.11,191.37 L49.61,191.84 L48.00,192.00 L46.39,191.84 L44.89,191.37 L43.53,190.63 L42.34,189.66 L41.37,188.47 L40.63,187.11 L40.16,185.61 L40.00,184.00 L40.00,168.00 Z" fill="#ffffff" stroke="#1e1e1e" stroke-width="1" stroke-linejoin="round"/><path d="M104.00,104.39 L104.08,103.21 L104.31,102.09 L105.18,100.07 L106.52,98.40 L108.21,97.12 L110.16,96.31 L112.28,96.00 L114.46,96.27 L115.55,96.63 L116.61,97.16 L161.40,123.34 L162.95,124.55 L164.06,126.05 L164.73,127.73 L164.95,129.52 L164.73,131.30 L164.06,132.99 L162.95,134.49 L161.40,135.70 L116.61,161.88 L115.55,162.41 L114.46,162.77 L112.28,163.04 L110.16,162.73 L108.21,161.91 L106.52,160.64 L105.18,158.96 L104.31,156.95 L104.08,155.83 L104.00,154.64 L104.00,104.39 Z" fill="#ffffff" stroke="#1e1e1e" stroke-width="1" stroke-linejoin="round"/></svg>