<svg xmlns="http://www.w3.org/2000/svg" viewBox="26.75 24.71 200.39 206.60"><path d="M81.32,52.81 L86.19,50.30 L91.49,48.13 L97.17,46.31 L103.18,44.84 L109.46,43.75 L115.97,43.03 L122.65,42.71 L129.46,42.78 L136.29,43.25 L143.06,44.13 L149.72,45.41 L156.21,47.08 L162.49,49.15 L168.51,51.61 L174.21,54.46 L179.55,57.70 L180.98,58.46 L182.48,58.91 L184.02,59.05 L185.55,58.90 L187.02,58.46 L188.39,57.74 L189.61,56.75 L190.64,55.50 L191.40,54.07 L191.85,52.56 L191.99,51.02 L191.84,49.49 L191.40,48.02 L190.68,46.66 L189.69,45.43 L188.44,44.40 L185.26,42.38 L181.99,40.48 L175.17,37.06 L168.06,34.15 L160.70,31.72 L153.17,29.78 L145.52,28.32 L137.81,27.33 L130.10,26.79 L122.43,26.71 L114.81,27.08 L107.28,27.90 L99.92,29.18 L92.78,30.92 L85.93,33.13 L79.42,35.80 L73.33,38.95 L72.01,39.90 L70.94,41.05 L70.13,42.37 L69.60,43.81 L69.34,45.32 L69.38,46.87 L69.73,48.40 L70.39,49.88 L71.34,51.19 L72.50,52.26 L73.81,53.07 L75.25,53.61 L76.76,53.86 L78.31,53.82 L79.84,53.47 L81.32,52.81 Z" fill="#0078d4" stroke="#1e1e1e" stroke-width="1" stroke-linejoin="round"/><path d="M137.11,57.57 L135.49,57.51 L133.94,57.76 L132.49,58.30 L131.18,59.10 L130.05,60.14 L129.13,61.38 L128.46,62.81 L128.07,64.38 L128.01,66.00 L128.26,67.55 L128.80,69.00 L129.61,70.31 L130.64,71.44 L131.89,72.36 L133.31,73.03 L134.88,73.42 L140.43,74.36 L145.70,75.60 L150.69,77.10 L155.41,78.85 L159.88,80.83 L164.10,83.02 L168.07,85.41 L171.81,87.97 L175.31,90.69 L178.60,93.55 L181.68,96.53 L184.54,99.61 L187.21,102.77 L189.69,106.01 L191.99,109.28 L194.11,112.59 L197.88,119.28 L201.00,125.84 L203.53,132.09 L205.52,137.89 L207.03,143.06 L208.11,147.45 L209.24,153.25 L209.65,154.82 L210.34,156.23 L211.28,157.46 L212.43,158.48 L213.75,159.26 L215.21,159.78 L216.76,160.01 L218.38,159.92 L219.95,159.51 L221.36,158.81 L222.59,157.87 L223.61,156.73 L224.39,155.41 L224.91,153.95 L225.14,152.39 L225.05,150.77 L223.74,144.01 L222.50,138.97 L220.77,133.07 L218.50,126.46 L215.62,119.34 L212.06,111.87 L210.00,108.06 L207.74,104.22 L205.26,100.35 L202.55,96.49 L199.62,92.68 L196.45,88.93 L193.03,85.27 L189.37,81.72 L185.44,78.30 L181.25,75.05 L176.78,71.98 L172.02,69.12 L166.98,66.48 L161.64,64.10 L155.98,61.99 L150.02,60.19 L143.73,58.71 L137.11,57.57 Z" fill="#0078d4" stroke="#1e1e1e" stroke-width="1" stroke-linejoin="round"/><path d="M100.42,113.59 L96.86,116.75 L93.53,120.32 L90.45,124.30 L87.67,128.68 L85.22,133.43 L83.14,138.54 L81.47,144.02 L80.23,149.83 L79.47,155.98 L79.23,162.44 L79.53,169.21 L80.42,176.27 L81.93,183.61 L84.10,191.22 L86.96,199.08 L90.56,207.19 L91.11,208.71 L91.34,210.27 L91.27,211.81 L90.90,213.31 L90.26,214.70 L89.36,215.95 L88.21,217.03 L86.83,217.87 L85.31,218.43 L83.75,218.66 L82.21,218.59 L80.72,218.22 L79.32,217.58 L78.07,216.68 L76.99,215.53 L76.15,214.15 L74.03,209.56 L72.11,205.01 L70.39,200.51 L68.86,196.06 L67.53,191.65 L66.39,187.30 L65.42,183.00 L64.64,178.76 L64.04,174.57 L63.61,170.45 L63.35,166.40 L63.25,162.41 L63.32,158.50 L63.54,154.66 L63.92,150.89 L64.45,147.20 L65.94,140.08 L68.00,133.30 L70.58,126.89 L73.66,120.87 L77.21,115.26 L81.20,110.09 L85.61,105.37 L90.39,101.13 L95.46,97.43 L100.81,94.28 L106.42,91.68 L112.23,89.67 L118.22,88.27 L121.27,87.80 L124.34,87.50 L127.44,87.35 L130.56,87.38 L133.70,87.57 L136.84,87.93 L140.00,88.47 L143.13,89.19 L146.25,90.08 L149.34,91.14 L152.40,92.39 L155.43,93.81 L158.41,95.41 L161.36,97.18 L164.26,99.14 L167.11,101.28 L169.90,103.61 L172.63,106.11 L175.30,108.80 L177.90,111.67 L180.42,114.73 L182.87,117.98 L183.69,119.38 L184.19,120.87 L184.38,122.41 L184.28,123.94 L183.90,125.42 L183.23,126.82 L182.28,128.07 L181.07,129.15 L179.67,129.96 L178.17,130.46 L176.64,130.66 L175.11,130.56 L173.62,130.17 L172.23,129.50 L170.97,128.55 L169.90,127.34 L165.82,122.16 L161.57,117.67 L157.21,113.85 L152.74,110.67 L148.22,108.09 L143.66,106.10 L139.10,104.67 L134.57,103.77 L130.04,103.37 L125.53,103.45 L121.07,104.01 L116.68,105.04 L112.39,106.52 L108.24,108.45 L104.24,110.81 L100.42,113.59 Z" fill="#0078d4" stroke="#1e1e1e" stroke-width="1" stroke-linejoin="round"/><path d="M125.21,217.81 L120.70,207.86 L117.03,198.37 L114.17,189.37 L112.07,180.91 L110.72,173.03 L110.06,165.77 L109.98,162.38 L110.06,159.17 L110.30,156.12 L110.70,153.26 L111.22,150.63 L111.88,148.23 L112.64,146.06 L113.51,144.10 L114.46,142.35 L115.50,140.81 L116.61,139.47 L117.78,138.31 L118.98,137.36 L120.30,136.52 L121.75,135.81 L123.35,135.24 L125.08,134.83 L126.97,134.58 L129.03,134.51 L131.25,134.63 L134.14,135.01 L136.64,135.55 L138.78,136.22 L140.60,137.02 L142.14,137.91 L143.43,138.90 L144.51,139.94 L145.42,141.04 L146.37,142.45 L147.23,144.01 L148.72,147.67 L150.04,152.10 L151.31,157.42 L151.95,160.32 L153.21,165.96 L154.73,171.96 L156.71,178.21 L157.91,181.39 L159.29,184.60 L160.86,187.81 L162.65,191.02 L164.68,194.21 L166.97,197.36 L169.54,200.46 L172.41,203.51 L175.60,206.47 L179.14,209.35 L180.52,210.20 L182.00,210.74 L183.53,210.98 L185.06,210.92 L186.55,210.56 L187.96,209.93 L189.24,209.02 L190.35,207.83 L191.20,206.45 L191.74,204.97 L191.97,203.45 L191.91,201.91 L191.56,200.42 L190.93,199.01 L190.01,197.73 L188.83,196.62 L186.15,194.45 L183.73,192.21 L181.56,189.92 L179.61,187.57 L177.87,185.18 L176.32,182.73 L174.95,180.24 L173.73,177.71 L171.69,172.54 L170.06,167.25 L168.70,161.86 L167.47,156.40 L167.47,156.39 L166.93,153.94 L165.58,148.26 L163.84,142.43 L162.75,139.55 L161.46,136.73 L159.96,134.01 L158.21,131.42 L156.02,128.83 L153.57,126.51 L150.84,124.48 L147.83,122.74 L144.52,121.29 L140.92,120.13 L137.00,119.27 L132.76,118.70 L129.10,118.51 L125.55,118.65 L122.11,119.11 L118.81,119.90 L115.66,121.02 L112.66,122.46 L109.82,124.23 L107.17,126.34 L104.79,128.68 L102.66,131.26 L100.79,134.05 L99.15,137.03 L97.75,140.20 L96.59,143.52 L95.64,147.00 L94.92,150.60 L94.41,154.30 L94.09,158.17 L93.98,162.17 L94.07,166.32 L94.35,170.61 L94.84,175.02 L95.53,179.56 L96.42,184.21 L97.51,188.97 L98.80,193.83 L100.30,198.79 L102.00,203.84 L103.90,208.97 L106.00,214.18 L108.31,219.47 L110.83,224.81 L111.68,226.19 L112.75,227.34 L114.01,228.24 L115.41,228.87 L116.90,229.24 L118.44,229.30 L120.00,229.07 L121.52,228.51 L122.90,227.66 L124.04,226.58 L124.94,225.32 L125.58,223.93 L125.94,222.43 L126.01,220.89 L125.77,219.33 L125.21,217.81 Z" fill="#0078d4" stroke="#1e1e1e" stroke-width="1" stroke-linejoin="round"/><path d="M61.91,58.45 L62.88,59.75 L63.55,61.17 L63.92,62.67 L64.00,64.20 L63.79,65.72 L63.29,67.18 L62.49,68.54 L61.41,69.75 L57.92,73.14 L54.79,76.53 L52.01,79.83 L49.59,82.96 L45.87,88.34 L43.68,91.95 L42.75,93.27 L41.60,94.35 L40.29,95.17 L38.86,95.72 L37.35,95.98 L35.80,95.95 L34.26,95.62 L32.78,94.96 L31.46,94.03 L30.38,92.88 L29.56,91.57 L29.01,90.14 L28.75,88.63 L28.78,87.08 L29.11,85.54 L29.77,84.06 L32.37,79.75 L36.74,73.44 L39.56,69.77 L42.82,65.91 L46.50,61.93 L50.61,57.95 L51.91,56.98 L53.33,56.31 L54.83,55.94 L56.36,55.86 L57.88,56.07 L59.34,56.58 L60.70,57.37 L61.91,58.45 Z" fill="#0078d4" stroke="#1e1e1e" stroke-width="1" stroke-linejoin="round"/><path d="M194.53,151.85 L194.07,150.30 L193.34,148.91 L192.36,147.71 L191.18,146.73 L189.84,145.99 L188.36,145.51 L186.80,145.33 L185.19,145.47 L183.63,145.93 L182.24,146.67 L181.04,147.64 L180.06,148.82 L179.32,150.17 L178.85,151.64 L178.67,153.20 L178.81,154.81 L180.13,160.63 L181.88,166.17 L184.08,171.41 L186.75,176.32 L189.90,180.88 L191.66,183.02 L193.55,185.06 L195.58,186.99 L197.74,188.82 L200.03,190.54 L202.46,192.14 L203.92,192.85 L205.44,193.24 L206.99,193.33 L208.51,193.12 L209.96,192.62 L211.30,191.86 L212.49,190.82 L213.47,189.54 L214.18,188.08 L214.58,186.56 L214.66,185.01 L214.45,183.49 L213.96,182.04 L213.19,180.70 L212.16,179.51 L210.87,178.53 L207.81,176.38 L205.04,173.91 L202.57,171.11 L200.39,167.96 L198.49,164.47 L196.89,160.62 L195.57,156.42 L194.53,151.85 Z" fill="#0078d4" stroke="#1e1e1e" stroke-width="1" stroke-linejoin="round"/><path d="M128.76,152.01 L130.38,152.03 L131.92,152.37 L133.34,152.99 L134.60,153.87 L135.67,154.97 L136.52,156.26 L137.11,157.72 L137.40,159.31 L137.99,164.58 L138.83,169.59 L139.87,174.35 L141.10,178.84 L142.48,183.07 L143.98,187.03 L145.55,190.71 L147.18,194.11 L150.46,200.06 L153.54,204.83 L156.18,208.39 L158.09,210.70 L159.04,212.02 L159.68,213.45 L160.02,214.96 L160.07,216.49 L159.82,218.01 L159.29,219.46 L158.47,220.80 L157.37,221.99 L156.05,222.93 L154.61,223.57 L153.10,223.91 L151.57,223.96 L150.05,223.72 L148.60,223.18 L147.26,222.36 L146.08,221.26 L143.66,218.35 L140.45,214.03 L136.77,208.33 L134.83,204.99 L132.89,201.31 L130.98,197.31 L129.13,192.99 L127.38,188.36 L125.77,183.41 L124.33,178.17 L123.11,172.62 L122.14,166.78 L121.46,160.65 L121.49,159.03 L121.83,157.49 L122.45,156.08 L123.32,154.81 L124.42,153.74 L125.71,152.89 L127.17,152.30 L128.76,152.01 Z" fill="#0078d4" stroke="#1e1e1e" stroke-width="1" stroke-linejoin="round"/><path d="M107.17,75.91 L108.58,75.12 L109.78,74.10 L110.73,72.88 L111.43,71.51 L111.85,70.04 L111.99,68.50 L111.82,66.93 L111.33,65.39 L110.54,63.98 L109.51,62.78 L108.29,61.83 L106.93,61.13 L105.45,60.71 L103.91,60.57 L102.35,60.74 L100.80,61.23 L94.17,64.34 L87.98,67.69 L82.23,71.25 L76.90,75.02 L71.98,78.97 L67.44,83.08 L63.28,87.33 L59.48,91.70 L56.02,96.16 L52.89,100.71 L50.07,105.32 L47.56,109.96 L45.32,114.62 L43.36,119.28 L41.65,123.92 L40.17,128.51 L38.94,132.99 L37.90,137.39 L36.38,145.86 L35.47,153.78 L35.06,160.99 L35.02,167.35 L35.22,172.69 L35.88,179.74 L36.25,181.32 L36.91,182.74 L37.82,183.99 L38.94,185.04 L40.24,185.85 L41.69,186.41 L43.24,186.67 L44.86,186.62 L46.43,186.25 L47.86,185.59 L49.11,184.68 L50.16,183.56 L50.97,182.26 L51.52,180.81 L51.79,179.26 L51.74,177.64 L51.19,171.65 L51.01,167.02 L51.05,161.47 L51.41,155.17 L52.20,148.24 L53.53,140.83 L55.51,133.07 L56.76,129.17 L58.21,125.23 L59.87,121.28 L61.75,117.33 L63.88,113.39 L66.26,109.49 L68.91,105.63 L71.84,101.85 L75.07,98.14 L78.61,94.54 L82.48,91.05 L86.68,87.69 L91.24,84.49 L96.16,81.44 L101.47,78.58 L107.17,75.91 Z" fill="#0078d4" stroke="#1e1e1e" stroke-width="1" stroke-linejoin="round"/></svg>