<svg xmlns="http://www.w3.org/2000/svg" viewBox="11.62 10.66 97.06 100.00"><path d="M38.53,25.02 L40.84,23.83 L43.35,22.81 L46.04,21.94 L48.89,21.25 L51.87,20.73 L54.95,20.39 L58.12,20.24 L61.35,20.27 L64.58,20.50 L67.79,20.91 L70.94,21.52 L74.02,22.31 L77.00,23.29 L79.85,24.45 L82.55,25.81 L85.08,27.34 L85.76,27.70 L86.47,27.91 L87.20,27.98 L87.92,27.91 L88.62,27.70 L89.27,27.36 L89.85,26.89 L90.34,26.30 L90.70,25.62 L90.91,24.91 L90.98,24.18 L90.90,23.45 L90.69,22.76 L90.35,22.11 L89.89,21.53 L89.29,21.04 L87.79,20.08 L86.23,19.18 L83.01,17.56 L79.63,16.18 L76.15,15.03 L72.58,14.11 L68.95,13.42 L65.30,12.95 L61.65,12.70 L58.02,12.66 L54.40,12.83 L50.83,13.22 L47.35,13.83 L43.96,14.65 L40.72,15.70 L37.63,16.96 L34.75,18.46 L34.12,18.91 L33.62,19.45 L33.23,20.08 L32.98,20.76 L32.86,21.48 L32.88,22.21 L33.04,22.93 L33.36,23.63 L33.81,24.26 L34.35,24.76 L34.98,25.15 L35.66,25.40 L36.38,25.52 L37.11,25.50 L37.83,25.34 L38.53,25.02 Z" fill="#0078d4" stroke="#1e1e1e" stroke-width="1" stroke-linejoin="round"/><path d="M64.97,27.28 L64.20,27.25 L63.47,27.37 L62.78,27.63 L62.16,28.01 L61.62,28.50 L61.19,29.09 L60.87,29.76 L60.69,30.51 L60.66,31.27 L60.78,32.01 L61.03,32.70 L61.41,33.32 L61.91,33.85 L62.49,34.29 L63.17,34.61 L63.91,34.79 L66.54,35.24 L69.04,35.82 L71.40,36.53 L73.64,37.36 L75.76,38.30 L77.76,39.34 L79.64,40.47 L81.41,41.68 L83.07,42.97 L84.63,44.33 L86.09,45.74 L87.45,47.20 L88.71,48.70 L89.89,50.23 L90.97,51.78 L91.98,53.35 L93.76,56.52 L95.24,59.63 L96.44,62.59 L97.38,65.34 L98.10,67.79 L98.61,69.87 L99.15,72.62 L99.34,73.36 L99.67,74.03 L100.12,74.61 L100.66,75.09 L101.29,75.46 L101.98,75.71 L102.71,75.82 L103.48,75.78 L104.22,75.58 L104.89,75.25 L105.47,74.81 L105.96,74.26 L106.33,73.64 L106.57,72.95 L106.68,72.21 L106.64,71.44 L106.02,68.24 L105.43,65.85 L104.61,63.05 L103.54,59.93 L102.17,56.55 L100.48,53.01 L99.51,51.20 L98.44,49.39 L97.26,47.55 L95.98,45.72 L94.59,43.92 L93.09,42.14 L91.47,40.40 L89.73,38.72 L87.87,37.10 L85.88,35.56 L83.77,34.11 L81.51,32.75 L79.12,31.50 L76.59,30.37 L73.91,29.38 L71.09,28.52 L68.11,27.82 L64.97,27.28 Z" fill="#0078d4" stroke="#1e1e1e" stroke-width="1" stroke-linejoin="round"/><path d="M47.59,53.82 L45.90,55.32 L44.32,57.02 L42.86,58.90 L41.54,60.97 L40.38,63.22 L39.40,65.65 L38.60,68.24 L38.02,71.00 L37.66,73.91 L37.54,76.97 L37.69,80.18 L38.11,83.52 L38.82,87.00 L39.85,90.61 L41.21,94.34 L42.91,98.18 L43.17,98.90 L43.28,99.64 L43.25,100.37 L43.08,101.07 L42.77,101.74 L42.34,102.33 L41.80,102.84 L41.14,103.24 L40.42,103.50 L39.69,103.61 L38.95,103.58 L38.25,103.40 L37.59,103.10 L36.99,102.67 L36.48,102.13 L36.08,101.47 L35.08,99.30 L34.17,97.15 L33.35,95.01 L32.63,92.90 L32.00,90.81 L31.46,88.75 L31.00,86.71 L30.63,84.70 L30.35,82.72 L30.14,80.77 L30.02,78.85 L29.97,76.96 L30.00,75.10 L30.11,73.28 L30.29,71.50 L30.54,69.75 L31.25,66.38 L32.22,63.16 L33.44,60.13 L34.90,57.27 L36.59,54.62 L38.48,52.17 L40.56,49.93 L42.83,47.92 L45.23,46.17 L47.77,44.67 L50.43,43.44 L53.18,42.49 L56.02,41.83 L57.46,41.61 L58.92,41.46 L60.39,41.39 L61.87,41.40 L63.35,41.49 L64.84,41.67 L66.34,41.92 L67.82,42.26 L69.30,42.68 L70.76,43.19 L72.21,43.78 L73.65,44.45 L75.06,45.21 L76.46,46.05 L77.83,46.98 L79.18,47.99 L80.51,49.09 L81.80,50.28 L83.07,51.56 L84.30,52.92 L85.49,54.37 L86.65,55.90 L87.04,56.57 L87.28,57.28 L87.37,58.00 L87.32,58.73 L87.14,59.43 L86.82,60.09 L86.37,60.69 L85.80,61.20 L85.13,61.58 L84.43,61.82 L83.70,61.91 L82.98,61.86 L82.27,61.68 L81.61,61.36 L81.02,60.92 L80.51,60.34 L78.57,57.89 L76.56,55.76 L74.49,53.95 L72.38,52.44 L70.23,51.22 L68.07,50.28 L65.91,49.60 L63.77,49.17 L61.62,48.98 L59.48,49.02 L57.37,49.29 L55.29,49.77 L53.26,50.48 L51.29,51.39 L49.39,52.51 L47.59,53.82 Z" fill="#0078d4" stroke="#1e1e1e" stroke-width="1" stroke-linejoin="round"/><path d="M59.33,103.21 L57.19,98.50 L55.46,94.00 L54.10,89.73 L53.11,85.73 L52.46,81.99 L52.15,78.55 L52.11,76.95 L52.15,75.42 L52.27,73.98 L52.45,72.62 L52.70,71.38 L53.01,70.24 L53.37,69.21 L53.78,68.28 L54.24,67.45 L54.73,66.72 L55.26,66.09 L55.81,65.54 L56.38,65.09 L57.00,64.69 L57.69,64.35 L58.45,64.09 L59.27,63.89 L60.17,63.77 L61.14,63.74 L62.19,63.79 L63.56,63.97 L64.75,64.23 L65.76,64.55 L66.62,64.93 L67.35,65.35 L67.96,65.82 L68.47,66.31 L68.91,66.83 L69.36,67.50 L69.76,68.24 L70.47,69.97 L71.10,72.07 L71.70,74.59 L72.00,75.97 L72.60,78.64 L73.32,81.48 L74.26,84.44 L74.83,85.95 L75.48,87.47 L76.22,88.99 L77.07,90.51 L78.03,92.02 L79.12,93.52 L80.34,94.99 L81.70,96.43 L83.21,97.84 L84.88,99.20 L85.54,99.60 L86.24,99.86 L86.96,99.97 L87.69,99.94 L88.40,99.78 L89.07,99.48 L89.67,99.04 L90.20,98.48 L90.60,97.83 L90.85,97.13 L90.97,96.40 L90.94,95.68 L90.77,94.97 L90.47,94.30 L90.04,93.69 L89.48,93.17 L88.21,92.14 L87.06,91.08 L86.03,89.99 L85.11,88.88 L84.28,87.75 L83.55,86.59 L82.90,85.41 L82.32,84.21 L81.35,81.76 L80.58,79.25 L79.94,76.70 L79.36,74.11 L79.36,74.10 L79.10,72.94 L78.46,70.25 L77.64,67.49 L77.12,66.13 L76.51,64.79 L75.80,63.50 L74.97,62.27 L73.93,61.04 L72.77,59.95 L71.48,58.99 L70.05,58.16 L68.48,57.47 L66.77,56.93 L64.92,56.52 L62.91,56.25 L61.17,56.16 L59.49,56.22 L57.86,56.44 L56.30,56.81 L54.80,57.34 L53.38,58.03 L52.04,58.87 L50.78,59.87 L49.65,60.98 L48.65,62.20 L47.76,63.52 L46.98,64.93 L46.32,66.43 L45.77,68.01 L45.32,69.65 L44.98,71.36 L44.73,73.12 L44.59,74.95 L44.53,76.85 L44.57,78.81 L44.71,80.84 L44.94,82.93 L45.27,85.08 L45.69,87.29 L46.20,89.54 L46.82,91.85 L47.53,94.20 L48.33,96.59 L49.23,99.02 L50.23,101.49 L51.32,103.99 L52.51,106.53 L52.92,107.18 L53.43,107.72 L54.02,108.15 L54.69,108.45 L55.39,108.62 L56.12,108.66 L56.86,108.54 L57.58,108.28 L58.24,107.87 L58.78,107.36 L59.20,106.77 L59.51,106.11 L59.68,105.40 L59.71,104.67 L59.60,103.93 L59.33,103.21 Z" fill="#0078d4" stroke="#1e1e1e" stroke-width="1" stroke-linejoin="round"/><path d="M29.34,27.70 L29.80,28.31 L30.11,28.99 L30.29,29.70 L30.33,30.42 L30.23,31.14 L29.99,31.84 L29.61,32.48 L29.10,33.05 L27.45,34.66 L25.96,36.26 L24.64,37.83 L23.50,39.31 L21.74,41.86 L20.70,43.57 L20.26,44.20 L19.71,44.71 L19.09,45.10 L18.41,45.36 L17.70,45.48 L16.96,45.47 L16.24,45.31 L15.53,45.00 L14.91,44.56 L14.40,44.01 L14.01,43.39 L13.75,42.71 L13.62,42.00 L13.64,41.26 L13.79,40.53 L14.10,39.83 L15.34,37.79 L17.41,34.80 L18.75,33.06 L20.29,31.23 L22.04,29.35 L23.98,27.46 L24.60,27.00 L25.27,26.68 L25.98,26.51 L26.71,26.47 L27.43,26.57 L28.12,26.81 L28.76,27.18 L29.34,27.70 Z" fill="#0078d4" stroke="#1e1e1e" stroke-width="1" stroke-linejoin="round"/><path d="M92.18,71.96 L91.96,71.22 L91.61,70.56 L91.15,69.99 L90.59,69.53 L89.95,69.18 L89.26,68.95 L88.52,68.87 L87.75,68.93 L87.01,69.15 L86.36,69.50 L85.79,69.96 L85.32,70.52 L84.97,71.16 L84.75,71.85 L84.66,72.59 L84.73,73.36 L85.36,76.11 L86.19,78.74 L87.23,81.22 L88.49,83.55 L89.98,85.71 L90.82,86.72 L91.72,87.69 L92.68,88.61 L93.70,89.47 L94.78,90.29 L95.94,91.05 L96.63,91.38 L97.35,91.57 L98.08,91.61 L98.80,91.51 L99.49,91.28 L100.13,90.91 L100.69,90.42 L101.15,89.81 L101.49,89.12 L101.68,88.40 L101.72,87.67 L101.62,86.95 L101.38,86.26 L101.02,85.62 L100.53,85.06 L99.92,84.60 L98.47,83.58 L97.16,82.41 L95.99,81.08 L94.95,79.59 L94.06,77.93 L93.30,76.11 L92.67,74.12 L92.18,71.96 Z" fill="#0078d4" stroke="#1e1e1e" stroke-width="1" stroke-linejoin="round"/><path d="M61.01,72.03 L61.78,72.04 L62.51,72.20 L63.18,72.50 L63.78,72.91 L64.29,73.43 L64.69,74.04 L64.97,74.73 L65.11,75.49 L65.39,77.98 L65.78,80.36 L66.28,82.61 L66.86,84.74 L67.51,86.75 L68.22,88.62 L68.97,90.37 L69.74,91.98 L71.29,94.80 L72.76,97.06 L74.00,98.74 L74.91,99.84 L75.36,100.46 L75.66,101.14 L75.83,101.86 L75.85,102.59 L75.73,103.30 L75.48,103.99 L75.09,104.63 L74.57,105.19 L73.94,105.64 L73.26,105.94 L72.55,106.10 L71.82,106.12 L71.10,106.01 L70.42,105.76 L69.78,105.37 L69.22,104.84 L68.07,103.46 L66.55,101.42 L64.81,98.72 L63.89,97.13 L62.97,95.39 L62.06,93.50 L61.19,91.45 L60.36,89.25 L59.60,86.91 L58.92,84.42 L58.34,81.80 L57.88,79.03 L57.55,76.12 L57.57,75.35 L57.73,74.63 L58.02,73.96 L58.44,73.36 L58.96,72.85 L59.57,72.45 L60.26,72.17 L61.01,72.03 Z" fill="#0078d4" stroke="#1e1e1e" stroke-width="1" stroke-linejoin="round"/><path d="M50.78,35.97 L51.45,35.60 L52.02,35.11 L52.47,34.53 L52.80,33.89 L53.00,33.19 L53.07,32.46 L52.99,31.72 L52.75,30.99 L52.38,30.32 L51.89,29.75 L51.31,29.30 L50.67,28.97 L49.97,28.77 L49.24,28.70 L48.50,28.78 L47.77,29.02 L44.62,30.49 L41.69,32.07 L38.97,33.76 L36.44,35.55 L34.11,37.42 L31.96,39.37 L29.98,41.38 L28.18,43.45 L26.54,45.57 L25.06,47.72 L23.73,49.90 L22.53,52.10 L21.48,54.31 L20.55,56.52 L19.73,58.72 L19.04,60.90 L18.45,63.02 L17.96,65.10 L17.24,69.12 L16.81,72.87 L16.61,76.29 L16.59,79.30 L16.69,81.83 L17.00,85.17 L17.18,85.92 L17.49,86.59 L17.92,87.19 L18.45,87.68 L19.07,88.07 L19.75,88.33 L20.49,88.45 L21.26,88.43 L22.00,88.25 L22.68,87.94 L23.27,87.51 L23.77,86.98 L24.15,86.36 L24.41,85.68 L24.54,84.94 L24.52,84.18 L24.26,81.34 L24.17,79.14 L24.19,76.51 L24.36,73.53 L24.73,70.24 L25.36,66.73 L26.30,63.06 L26.90,61.21 L27.58,59.34 L28.37,57.47 L29.26,55.59 L30.27,53.73 L31.40,51.88 L32.65,50.06 L34.04,48.26 L35.57,46.51 L37.25,44.80 L39.08,43.14 L41.07,41.55 L43.23,40.03 L45.57,38.59 L48.08,37.23 L50.78,35.97 Z" fill="#0078d4" stroke="#1e1e1e" stroke-width="1" stroke-linejoin="round"/></svg>