<svg xmlns="http://www.w3.org/2000/svg" viewBox="38.00 30.00 190.64 206.67"><path d="M46.67,32.00 L45.32,32.14 L44.07,32.52 L42.94,33.14 L41.95,33.95 L41.14,34.94 L40.52,36.07 L40.14,37.32 L40.00,38.67 L40.00,228.00 L40.14,229.34 L40.52,230.60 L41.14,231.73 L41.95,232.71 L42.94,233.53 L44.07,234.14 L45.32,234.53 L46.67,234.67 L48.01,234.53 L49.26,234.14 L50.39,233.53 L51.38,232.71 L52.19,231.73 L52.81,230.60 L53.20,229.34 L53.33,228.00 L53.33,176.00 L220.00,176.00 L221.83,175.74 L223.49,175.01 L224.89,173.86 L225.95,172.34 L226.55,170.60 L226.64,168.78 L226.25,167.01 L225.37,165.39 L180.27,104.00 L225.37,42.61 L226.25,40.99 L226.64,39.22 L226.55,37.40 L225.95,35.66 L224.89,34.14 L223.49,32.99 L221.83,32.26 L220.00,32.00 L46.67,32.00 Z" fill="#0078d4" stroke="#1e1e1e" stroke-width="1" stroke-linejoin="round"/></svg>