<svg xmlns="http://www.w3.org/2000/svg" viewBox="16.95 13.16 92.41 100.00"><path d="M22.11,15.16 L21.47,15.22 L20.88,15.41 L20.34,15.70 L19.87,16.08 L19.49,16.55 L19.20,17.09 L19.01,17.68 L18.95,18.32 L18.95,108.00 L19.01,108.64 L19.20,109.23 L19.49,109.77 L19.87,110.23 L20.34,110.62 L20.88,110.91 L21.47,111.09 L22.11,111.16 L22.74,111.09 L23.33,110.91 L23.87,110.62 L24.34,110.23 L24.72,109.77 L25.01,109.23 L25.20,108.64 L25.26,108.00 L25.26,83.37 L104.21,83.37 L105.08,83.25 L105.86,82.90 L106.53,82.36 L107.03,81.64 L107.31,80.81 L107.36,79.95 L107.17,79.11 L106.76,78.34 L85.39,49.26 L106.76,20.19 L107.17,19.42 L107.36,18.58 L107.31,17.72 L107.03,16.89 L106.53,16.17 L105.86,15.63 L105.08,15.28 L104.21,15.16 L22.11,15.16 Z" fill="#0078d4" stroke="#1e1e1e" stroke-width="1" stroke-linejoin="round"/></svg>