<svg xmlns="http://www.w3.org/2000/svg" viewBox="19.33 40.67 228.04 206.67"><path d="M147.42,69.33 L210.67,69.33 L212.91,69.44 L215.10,69.74 L217.22,70.24 L219.27,70.92 L221.23,71.78 L223.09,72.79 L224.85,73.97 L226.49,75.29 L228.01,76.75 L229.40,78.33 L230.65,80.03 L231.74,81.85 L232.68,83.76 L233.45,85.76 L234.04,87.85 L234.44,90.00 L234.61,91.69 L234.67,93.33 L234.67,141.87 L231.57,140.50 L228.30,139.50 L224.88,138.88 L221.33,138.67 L218.42,138.81 L215.58,139.23 L212.84,139.91 L210.21,140.85 L207.70,142.02 L205.33,143.41 L203.10,145.02 L201.04,146.82 L200.11,144.24 L198.98,141.76 L197.67,139.39 L196.18,137.14 L194.52,135.01 L192.71,133.02 L190.75,131.18 L188.66,129.49 L186.43,127.97 L184.08,126.62 L181.63,125.45 L179.07,124.47 L176.42,123.70 L173.68,123.13 L170.87,122.78 L168.00,122.67 L164.46,122.85 L161.01,123.37 L157.69,124.23 L154.51,125.39 L151.48,126.85 L148.62,128.59 L145.95,130.58 L143.49,132.82 L141.25,135.28 L139.25,137.95 L137.52,140.81 L136.06,143.84 L134.89,147.02 L134.04,150.35 L133.51,153.79 L133.33,157.33 L133.51,160.81 L134.01,164.20 L134.84,167.47 L135.96,170.60 L137.37,173.59 L139.05,176.42 L140.98,179.06 L143.15,181.51 L140.35,181.96 L137.67,182.68 L135.12,183.66 L132.70,184.87 L130.42,186.30 L128.30,187.94 L126.33,189.76 L124.54,191.76 L122.92,193.91 L121.49,196.20 L120.26,198.62 L119.23,201.14 L118.41,203.76 L117.82,206.45 L117.46,209.20 L117.33,212.00 L117.35,213.33 L45.33,213.33 L42.98,213.22 L40.69,212.88 L38.48,212.34 L36.35,211.60 L34.32,210.66 L32.40,209.55 L30.59,208.27 L28.91,206.84 L27.38,205.26 L25.99,203.54 L24.76,201.70 L23.70,199.74 L22.82,197.68 L22.14,195.52 L21.66,193.29 L21.39,190.98 L21.33,189.33 L21.33,111.99 L87.54,112.00 L89.64,111.91 L92.72,111.43 L95.71,110.57 L98.56,109.32 L101.24,107.71 L102.91,106.44 L147.42,69.33 Z" fill="#5b5fc7" stroke="#1e1e1e" stroke-width="1" stroke-linejoin="round"/><path d="M87.54,42.67 L91.19,42.95 L94.73,43.77 L98.10,45.11 L101.24,46.96 L102.91,48.23 L125.33,66.91 L92.66,94.15 L91.76,94.80 L90.26,95.52 L88.65,95.92 L87.54,96.00 L21.33,95.99 L21.33,66.67 L21.45,64.31 L21.78,62.03 L22.33,59.81 L23.07,57.69 L24.00,55.65 L25.11,53.73 L26.39,51.93 L27.83,50.25 L29.41,48.71 L31.13,47.32 L32.97,46.09 L34.93,45.03 L36.99,44.16 L39.14,43.47 L41.38,42.99 L43.69,42.72 L45.33,42.67 L87.54,42.67 Z" fill="#5b5fc7" stroke="#1e1e1e" stroke-width="1" stroke-linejoin="round"/><path d="M192.00,157.33 L191.88,159.79 L191.51,162.17 L190.92,164.47 L190.11,166.68 L189.10,168.77 L187.90,170.75 L186.52,172.60 L184.97,174.30 L183.27,175.85 L181.42,177.23 L179.44,178.44 L177.34,179.45 L175.14,180.25 L172.84,180.85 L170.45,181.21 L168.00,181.33 L165.55,181.21 L163.16,180.85 L160.86,180.25 L158.66,179.45 L156.56,178.44 L154.58,177.23 L152.73,175.85 L151.03,174.30 L149.48,172.60 L148.10,170.75 L146.90,168.77 L145.89,166.68 L145.08,164.47 L144.49,162.17 L144.12,159.79 L144.00,157.33 L144.12,154.88 L144.49,152.50 L145.08,150.20 L145.89,147.99 L146.90,145.89 L148.10,143.91 L149.48,142.07 L151.03,140.36 L152.73,138.81 L154.58,137.43 L156.56,136.23 L158.66,135.22 L160.86,134.41 L163.16,133.82 L165.55,133.46 L168.00,133.33 L170.45,133.46 L172.84,133.82 L175.14,134.41 L177.34,135.22 L179.44,136.23 L181.42,137.43 L183.27,138.81 L184.97,140.36 L186.52,142.07 L187.90,143.91 L189.10,145.89 L190.11,147.99 L190.92,150.20 L191.51,152.50 L191.88,154.88 L192.00,157.33 Z" fill="#aab1fa" stroke="#1e1e1e" stroke-width="1" stroke-linejoin="round"/><path d="M208.00,212.00 L207.86,215.11 L207.45,218.20 L206.76,221.24 L205.77,224.21 L204.48,227.09 L202.88,229.84 L200.96,232.45 L198.71,234.89 L196.13,237.14 L193.21,239.16 L189.94,240.95 L186.30,242.46 L182.30,243.68 L177.92,244.58 L173.16,245.14 L168.00,245.33 L162.84,245.14 L158.08,244.58 L153.70,243.69 L149.70,242.47 L146.06,240.96 L142.79,239.18 L139.87,237.16 L137.29,234.92 L135.04,232.48 L133.12,229.87 L131.52,227.12 L130.23,224.24 L129.24,221.26 L128.55,218.22 L128.14,215.12 L128.00,212.00 L128.09,209.96 L128.35,207.97 L128.77,206.05 L129.35,204.22 L130.07,202.47 L130.93,200.82 L131.91,199.28 L133.02,197.86 L134.24,196.57 L135.56,195.42 L136.97,194.41 L138.47,193.57 L140.05,192.90 L141.69,192.41 L143.39,192.10 L145.14,192.00 L190.86,192.00 L192.61,192.10 L194.31,192.41 L195.95,192.90 L197.53,193.57 L199.03,194.41 L200.44,195.42 L201.76,196.57 L202.98,197.86 L204.09,199.28 L205.07,200.82 L205.93,202.47 L206.65,204.22 L207.23,206.05 L207.65,207.97 L207.91,209.96 L208.00,212.00 Z" fill="#aab1fa" stroke="#1e1e1e" stroke-width="1" stroke-linejoin="round"/><path d="M221.33,186.67 L223.24,186.57 L225.10,186.29 L226.88,185.83 L228.60,185.20 L230.23,184.41 L231.77,183.48 L233.21,182.40 L234.53,181.20 L235.74,179.87 L236.81,178.44 L237.75,176.90 L238.53,175.27 L239.16,173.55 L239.62,171.76 L239.90,169.91 L240.00,168.00 L239.90,166.09 L239.62,164.24 L239.16,162.45 L238.53,160.73 L237.75,159.10 L236.81,157.56 L235.74,156.13 L234.53,154.80 L233.21,153.60 L231.77,152.52 L230.23,151.59 L228.60,150.80 L226.88,150.17 L225.10,149.71 L223.24,149.43 L221.33,149.33 L219.42,149.43 L217.57,149.71 L215.78,150.17 L214.07,150.80 L212.44,151.59 L210.90,152.52 L209.46,153.60 L208.13,154.80 L206.93,156.13 L205.85,157.56 L204.92,159.10 L204.13,160.73 L203.51,162.45 L203.05,164.24 L202.76,166.09 L202.67,168.00 L202.76,169.91 L203.05,171.76 L203.51,173.55 L204.13,175.27 L204.92,176.90 L205.85,178.44 L206.93,179.87 L208.13,181.20 L209.46,182.40 L210.90,183.48 L212.44,184.41 L214.07,185.20 L215.78,185.83 L217.57,186.29 L219.42,186.57 L221.33,186.67 Z" fill="#aab1fa" stroke="#1e1e1e" stroke-width="1" stroke-linejoin="round"/><path d="M218.65,212.00 L218.56,214.89 L218.28,217.79 L217.82,220.69 L217.16,223.57 L216.30,226.42 L215.23,229.23 L213.94,231.98 L212.44,234.66 L213.38,234.67 L217.50,234.53 L221.32,234.14 L224.82,233.51 L228.02,232.66 L230.93,231.60 L233.55,230.35 L235.89,228.93 L237.95,227.36 L239.75,225.65 L241.28,223.82 L242.56,221.89 L243.59,219.88 L244.38,217.80 L244.94,215.67 L245.27,213.51 L245.38,211.33 L245.10,208.51 L244.30,205.88 L243.04,203.51 L241.36,201.43 L239.33,199.72 L237.00,198.43 L234.43,197.62 L231.66,197.33 L215.23,197.33 L216.70,200.82 L217.77,204.46 L218.43,208.20 L218.65,212.00 Z" fill="#aab1fa" stroke="#1e1e1e" stroke-width="1" stroke-linejoin="round"/></svg>