<svg xmlns="http://www.w3.org/2000/svg" viewBox="7.14 16.28 100.00 90.84"><path d="M63.17,29.71 L90.27,29.71 L91.23,29.75 L92.17,29.88 L93.08,30.10 L93.95,30.39 L94.79,30.75 L95.59,31.19 L96.34,31.69 L97.05,32.26 L97.70,32.88 L98.30,33.56 L98.83,34.29 L99.30,35.07 L99.70,35.89 L100.03,36.75 L100.28,37.64 L100.45,38.57 L100.53,39.29 L100.55,39.99 L100.55,60.79 L99.22,60.20 L97.82,59.77 L96.36,59.51 L94.84,59.42 L93.59,59.48 L92.37,59.66 L91.20,59.95 L90.07,60.35 L89.00,60.85 L87.98,61.45 L87.03,62.14 L86.14,62.91 L85.74,61.80 L85.26,60.74 L84.70,59.73 L84.06,58.76 L83.35,57.85 L82.57,57.00 L81.74,56.21 L80.84,55.48 L79.88,54.83 L78.88,54.25 L77.82,53.75 L76.73,53.33 L75.59,53.00 L74.42,52.76 L73.22,52.61 L71.99,52.56 L70.47,52.64 L68.99,52.86 L67.57,53.23 L66.20,53.73 L64.91,54.35 L63.68,55.10 L62.54,55.95 L61.48,56.91 L60.52,57.97 L59.67,59.11 L58.92,60.33 L58.30,61.63 L57.80,63.00 L57.43,64.42 L57.21,65.90 L57.13,67.42 L57.21,68.91 L57.42,70.36 L57.78,71.76 L58.26,73.10 L58.86,74.38 L59.58,75.59 L60.41,76.72 L61.34,77.77 L60.14,77.97 L58.99,78.28 L57.90,78.70 L56.86,79.21 L55.88,79.83 L54.97,80.53 L54.13,81.31 L53.36,82.16 L52.67,83.09 L52.06,84.07 L51.53,85.10 L51.09,86.19 L50.74,87.31 L50.48,88.46 L50.33,89.64 L50.28,90.84 L50.28,91.41 L19.42,91.41 L18.42,91.36 L17.44,91.22 L16.49,90.98 L15.58,90.67 L14.71,90.27 L13.88,89.79 L13.11,89.24 L12.39,88.63 L11.73,87.95 L11.13,87.21 L10.61,86.42 L10.16,85.59 L9.78,84.70 L9.49,83.78 L9.28,82.82 L9.16,81.83 L9.14,81.13 L9.14,47.99 L37.51,47.99 L38.41,47.95 L39.73,47.75 L41.01,47.38 L42.23,46.84 L43.38,46.15 L44.09,45.61 L63.17,29.71 Z" fill="#5b5fc7" stroke="#1e1e1e" stroke-width="1" stroke-linejoin="round"/><path d="M37.51,18.28 L39.07,18.40 L40.59,18.75 L42.03,19.33 L43.38,20.12 L44.09,20.67 L53.70,28.67 L39.70,40.34 L39.32,40.62 L38.68,40.93 L37.99,41.10 L37.51,41.13 L9.14,41.13 L9.14,28.57 L9.19,27.56 L9.33,26.58 L9.57,25.63 L9.89,24.72 L10.29,23.85 L10.76,23.02 L11.31,22.25 L11.92,21.53 L12.60,20.87 L13.34,20.28 L14.13,19.75 L14.97,19.30 L15.85,18.92 L16.77,18.63 L17.73,18.42 L18.72,18.31 L19.42,18.28 L37.51,18.28 Z" fill="#5b5fc7" stroke="#1e1e1e" stroke-width="1" stroke-linejoin="round"/><path d="M82.27,67.42 L82.22,68.47 L82.06,69.49 L81.81,70.47 L81.46,71.42 L81.03,72.32 L80.51,73.16 L79.92,73.96 L79.26,74.69 L78.53,75.35 L77.74,75.94 L76.89,76.46 L75.99,76.89 L75.04,77.24 L74.06,77.49 L73.04,77.65 L71.99,77.70 L70.93,77.65 L69.91,77.49 L68.93,77.24 L67.98,76.89 L67.08,76.46 L66.24,75.94 L65.44,75.35 L64.71,74.69 L64.05,73.96 L63.46,73.16 L62.94,72.32 L62.51,71.42 L62.16,70.47 L61.91,69.49 L61.76,68.47 L61.70,67.42 L61.76,66.36 L61.91,65.34 L62.16,64.36 L62.51,63.41 L62.94,62.51 L63.46,61.67 L64.05,60.87 L64.71,60.14 L65.44,59.48 L66.24,58.89 L67.08,58.37 L67.98,57.94 L68.93,57.59 L69.91,57.34 L70.93,57.18 L71.99,57.13 L73.04,57.18 L74.06,57.34 L75.04,57.59 L75.99,57.94 L76.89,58.37 L77.74,58.89 L78.53,59.48 L79.26,60.14 L79.92,60.87 L80.51,61.67 L81.03,62.51 L81.46,63.41 L81.81,64.36 L82.06,65.34 L82.22,66.36 L82.27,67.42 Z" fill="#aab1fa" stroke="#1e1e1e" stroke-width="1" stroke-linejoin="round"/><path d="M89.13,90.84 L89.07,92.17 L88.89,93.50 L88.59,94.80 L88.17,96.07 L87.62,97.30 L86.93,98.48 L86.11,99.60 L85.15,100.65 L84.04,101.61 L82.79,102.48 L81.39,103.24 L79.83,103.89 L78.11,104.41 L76.24,104.80 L74.20,105.04 L71.99,105.12 L69.78,105.04 L67.73,104.80 L65.86,104.42 L64.14,103.89 L62.59,103.25 L61.18,102.49 L59.93,101.62 L58.83,100.66 L57.86,99.61 L57.04,98.50 L56.36,97.32 L55.80,96.08 L55.38,94.81 L55.08,93.50 L54.90,92.18 L54.85,90.84 L54.88,89.96 L55.00,89.11 L55.18,88.29 L55.42,87.50 L55.73,86.75 L56.10,86.05 L56.52,85.39 L57.00,84.78 L57.52,84.23 L58.08,83.73 L58.69,83.30 L59.33,82.94 L60.01,82.65 L60.71,82.44 L61.44,82.31 L62.19,82.27 L81.78,82.27 L82.53,82.31 L83.26,82.44 L83.96,82.65 L84.64,82.94 L85.28,83.30 L85.89,83.73 L86.45,84.23 L86.97,84.78 L87.45,85.39 L87.87,86.05 L88.24,86.75 L88.55,87.50 L88.79,88.29 L88.98,89.11 L89.09,89.96 L89.13,90.84 Z" fill="#aab1fa" stroke="#1e1e1e" stroke-width="1" stroke-linejoin="round"/><path d="M94.84,79.98 L95.66,79.94 L96.45,79.82 L97.22,79.62 L97.95,79.36 L98.65,79.02 L99.31,78.62 L99.93,78.16 L100.49,77.64 L101.01,77.07 L101.47,76.46 L101.87,75.80 L102.21,75.10 L102.48,74.36 L102.67,73.60 L102.80,72.80 L102.84,71.99 L102.80,71.17 L102.67,70.37 L102.48,69.61 L102.21,68.87 L101.87,68.17 L101.47,67.51 L101.01,66.90 L100.49,66.33 L99.93,65.81 L99.31,65.35 L98.65,64.95 L97.95,64.62 L97.22,64.35 L96.45,64.15 L95.66,64.03 L94.84,63.99 L94.02,64.03 L93.23,64.15 L92.46,64.35 L91.72,64.62 L91.03,64.95 L90.37,65.35 L89.75,65.81 L89.18,66.33 L88.67,66.90 L88.21,67.51 L87.81,68.17 L87.47,68.87 L87.20,69.61 L87.00,70.37 L86.88,71.17 L86.84,71.99 L86.88,72.80 L87.00,73.60 L87.20,74.36 L87.47,75.10 L87.81,75.80 L88.21,76.46 L88.67,77.07 L89.18,77.64 L89.75,78.16 L90.37,78.62 L91.03,79.02 L91.72,79.36 L92.46,79.62 L93.23,79.82 L94.02,79.94 L94.84,79.98 Z" fill="#aab1fa" stroke="#aab1fa" stroke-width="1" stroke-linejoin="round"/><path d="M93.69,90.84 L93.65,92.08 L93.53,93.32 L93.33,94.56 L93.05,95.80 L92.68,97.02 L92.22,98.22 L91.67,99.40 L91.03,100.55 L91.43,100.55 L93.20,100.49 L94.83,100.33 L96.33,100.06 L97.70,99.69 L98.95,99.24 L100.07,98.70 L101.07,98.09 L101.96,97.42 L102.73,96.69 L103.38,95.91 L103.93,95.08 L104.38,94.22 L104.71,93.33 L104.95,92.41 L105.09,91.49 L105.14,90.55 L105.02,89.34 L104.68,88.22 L104.14,87.20 L103.42,86.31 L102.55,85.58 L101.55,85.03 L100.45,84.68 L99.26,84.55 L92.22,84.55 L92.85,86.05 L93.31,87.61 L93.59,89.21 L93.69,90.84 Z" fill="#aab1fa" stroke="#aab1fa" stroke-width="1" stroke-linejoin="round"/></svg>