<svg xmlns="http://www.w3.org/2000/svg" viewBox="4.86 11.71 100.00 86.29"><path d="M42.56,20.57 L42.34,20.57 L34.71,14.47 L34.23,14.15 L33.70,13.91 L33.15,13.76 L32.57,13.71 L20.57,13.71 L19.17,13.79 L17.81,13.99 L16.49,14.33 L15.23,14.79 L14.03,15.37 L12.90,16.06 L11.85,16.84 L10.87,17.73 L9.99,18.70 L9.20,19.76 L8.51,20.89 L7.93,22.09 L7.47,23.35 L7.14,24.66 L6.93,26.03 L6.86,27.43 L6.86,30.86 L31.25,30.86 L42.56,20.57 Z" fill="#0078d4" stroke="#1e1e1e" stroke-width="1" stroke-linejoin="round"/><path d="M75.43,20.57 L52.75,20.57 L34.88,36.82 L34.37,37.20 L33.81,37.48 L33.20,37.65 L32.57,37.71 L6.86,37.71 L6.86,68.57 L6.93,69.97 L7.14,71.34 L7.47,72.65 L7.93,73.91 L8.51,75.11 L9.20,76.24 L9.99,77.30 L10.87,78.27 L11.85,79.15 L12.90,79.94 L14.03,80.63 L15.23,81.21 L16.49,81.67 L17.81,82.01 L19.17,82.21 L20.57,82.29 L75.43,82.29 L76.83,82.21 L78.19,82.01 L79.51,81.67 L80.77,81.21 L81.97,80.63 L83.10,79.94 L84.15,79.15 L85.13,78.27 L86.01,77.30 L86.80,76.24 L87.49,75.11 L88.07,73.91 L88.53,72.65 L88.86,71.34 L89.07,69.97 L89.14,68.57 L89.14,34.29 L89.07,32.88 L88.86,31.52 L88.53,30.21 L88.07,28.95 L87.49,27.75 L86.80,26.62 L86.01,25.56 L85.13,24.59 L84.15,23.70 L83.10,22.91 L81.97,22.23 L80.77,21.65 L79.51,21.19 L78.19,20.85 L76.83,20.64 L75.43,20.57 Z" fill="#0078d4" stroke="#1e1e1e" stroke-width="1" stroke-linejoin="round"/><path d="M96.00,68.57 L96.00,36.14 L97.48,37.13 L98.81,38.29 L99.98,39.61 L100.97,41.07 L101.77,42.65 L102.36,44.34 L102.73,46.13 L102.86,48.00 L102.86,68.57 L102.82,69.98 L102.72,71.38 L102.54,72.75 L102.30,74.10 L101.62,76.73 L100.70,79.25 L99.55,81.65 L98.17,83.91 L96.60,86.02 L94.83,87.97 L92.88,89.74 L90.77,91.32 L88.51,92.69 L86.11,93.85 L83.59,94.77 L80.96,95.44 L79.61,95.68 L78.23,95.86 L76.84,95.96 L75.43,96.00 L34.29,96.00 L32.42,95.87 L30.63,95.51 L28.94,94.92 L27.35,94.11 L25.89,93.12 L24.58,91.95 L23.41,90.62 L22.42,89.14 L75.43,89.14 L77.52,89.04 L79.56,88.72 L81.53,88.21 L83.42,87.52 L85.21,86.65 L86.91,85.62 L88.49,84.43 L89.96,83.10 L91.29,81.64 L92.47,80.05 L93.51,78.36 L94.38,76.56 L95.07,74.67 L95.58,72.70 L95.89,70.67 L96.00,68.57 Z" fill="#8dc8e8" stroke="#1e1e1e" stroke-width="1" stroke-linejoin="round"/></svg>