<svg xmlns="http://www.w3.org/2000/svg" viewBox="7.61 17.25 100.00 80.99"><path d="M9.62,30.07 L9.68,28.97 L9.85,27.89 L10.11,26.85 L10.48,25.86 L10.93,24.91 L11.47,24.02 L12.10,23.19 L12.80,22.42 L13.57,21.72 L14.40,21.10 L15.29,20.55 L16.24,20.10 L17.23,19.73 L18.27,19.47 L19.34,19.30 L20.45,19.25 L39.49,19.25 L40.43,19.29 L41.36,19.41 L42.27,19.61 L43.17,19.89 L44.03,20.25 L44.86,20.68 L45.66,21.18 L46.41,21.75 L57.87,31.28 L85.42,31.28 L86.52,31.33 L87.60,31.50 L88.64,31.76 L89.63,32.13 L90.58,32.58 L91.47,33.13 L92.30,33.75 L93.07,34.45 L93.77,35.22 L94.39,36.05 L94.94,36.94 L95.39,37.89 L95.76,38.89 L96.02,39.92 L96.19,41.00 L96.24,42.11 L96.24,45.72 L30.90,45.72 L29.98,45.76 L29.07,45.88 L28.19,46.07 L27.33,46.33 L26.50,46.66 L25.71,47.05 L24.24,48.02 L22.94,49.21 L22.36,49.89 L21.85,50.61 L21.39,51.38 L20.99,52.19 L20.66,53.04 L20.40,53.93 L11.15,90.99 L11.22,90.68 L11.15,90.99 L10.49,89.71 L10.01,88.35 L9.71,86.91 L9.61,85.41 L9.62,30.07 Z" fill="#0078d4" stroke="#1e1e1e" stroke-width="1" stroke-linejoin="round"/><path d="M18.02,93.25 L17.95,93.82 L18.01,94.36 L18.18,94.87 L18.46,95.32 L18.83,95.70 L19.28,95.99 L19.79,96.18 L20.36,96.24 L88.88,96.24 L90.30,96.12 L91.65,95.77 L92.91,95.21 L94.06,94.46 L95.07,93.53 L95.92,92.44 L96.59,91.21 L97.05,89.86 L105.53,55.93 L105.61,55.37 L105.55,54.82 L105.37,54.32 L105.09,53.87 L104.72,53.49 L104.28,53.20 L103.76,53.01 L103.20,52.94 L30.90,52.94 L30.29,52.99 L29.71,53.14 L29.17,53.38 L28.68,53.71 L28.25,54.11 L27.88,54.57 L27.60,55.10 L27.40,55.68 L18.02,93.25 Z" fill="#0078d4" stroke="#1e1e1e" stroke-width="1" stroke-linejoin="round"/></svg>