<svg xmlns="http://www.w3.org/2000/svg" viewBox="4.86 4.86 100.00 100.00"><path d="M37.71,54.86 L37.76,51.31 L37.91,47.84 L38.15,44.45 L38.48,41.14 L71.24,41.14 L71.57,44.45 L71.80,47.84 L71.95,51.31 L72.00,54.86 L71.95,58.40 L71.80,61.88 L71.57,65.27 L71.24,68.57 L38.48,68.57 L38.15,65.27 L37.91,61.88 L37.76,58.40 L37.71,54.86 Z" fill="#0078d4" stroke="#1e1e1e" stroke-width="1" stroke-linejoin="round"/><path d="M31.58,68.57 L31.27,65.24 L31.04,61.84 L30.90,58.38 L30.86,54.86 L30.90,51.34 L31.04,47.87 L31.27,44.47 L31.58,41.14 L8.84,41.14 L7.99,44.45 L7.37,47.84 L6.99,51.31 L6.86,54.86 L6.99,58.40 L7.37,61.87 L7.99,65.27 L8.84,68.57 L31.58,68.57 Z" fill="#0078d4" stroke="#1e1e1e" stroke-width="1" stroke-linejoin="round"/><path d="M11.48,75.43 L32.52,75.43 L33.42,80.10 L34.49,84.51 L35.73,88.66 L37.13,92.50 L38.11,94.81 L39.17,97.00 L40.29,99.06 L41.49,100.97 L39.03,100.19 L36.63,99.28 L34.29,98.24 L32.02,97.09 L29.82,95.82 L27.70,94.44 L25.66,92.96 L23.70,91.37 L21.82,89.68 L20.04,87.90 L18.35,86.02 L16.76,84.06 L15.28,82.02 L13.90,79.90 L12.63,77.70 L11.48,75.43 Z" fill="#0078d4" stroke="#1e1e1e" stroke-width="1" stroke-linejoin="round"/><path d="M39.48,75.43 L70.23,75.43 L69.42,79.43 L68.47,83.20 L67.40,86.71 L66.22,89.95 L64.85,93.06 L63.41,95.76 L61.91,98.04 L61.14,99.02 L60.37,99.89 L59.61,100.64 L58.87,101.27 L58.14,101.78 L57.44,102.19 L56.76,102.49 L56.10,102.70 L55.47,102.82 L54.86,102.86 L54.25,102.82 L53.61,102.70 L52.95,102.49 L52.27,102.19 L51.57,101.78 L50.85,101.27 L50.10,100.64 L49.34,99.89 L48.57,99.02 L47.80,98.04 L46.31,95.76 L44.86,93.06 L43.49,89.95 L42.31,86.71 L41.24,83.20 L40.29,79.43 L39.48,75.43 Z" fill="#0078d4" stroke="#1e1e1e" stroke-width="1" stroke-linejoin="round"/><path d="M77.20,75.43 L76.30,80.10 L75.22,84.51 L73.98,88.66 L72.59,92.50 L71.60,94.81 L70.55,97.00 L69.42,99.06 L68.22,100.97 L70.68,100.19 L73.09,99.28 L75.42,98.24 L77.69,97.09 L79.89,95.82 L82.01,94.44 L84.06,92.96 L86.02,91.37 L87.89,89.68 L89.68,87.90 L91.36,86.02 L92.95,84.06 L94.44,82.02 L95.82,79.90 L97.08,77.70 L98.24,75.43 L77.20,75.43 Z" fill="#0078d4" stroke="#1e1e1e" stroke-width="1" stroke-linejoin="round"/><path d="M100.87,68.57 L101.73,65.27 L102.35,61.87 L102.73,58.40 L102.86,54.86 L102.73,51.31 L102.35,47.84 L101.73,44.45 L100.87,41.14 L78.14,41.14 L78.45,44.47 L78.67,47.87 L78.81,51.34 L78.86,54.86 L78.81,58.38 L78.67,61.84 L78.45,65.24 L78.14,68.57 L100.87,68.57 Z" fill="#0078d4" stroke="#1e1e1e" stroke-width="1" stroke-linejoin="round"/><path d="M66.22,19.76 L67.40,23.00 L68.47,26.52 L69.42,30.28 L70.23,34.29 L39.48,34.29 L40.29,30.28 L41.24,26.52 L42.31,23.00 L43.49,19.76 L44.86,16.66 L46.31,13.96 L47.80,11.68 L48.57,10.70 L49.34,9.83 L50.10,9.08 L50.84,8.45 L51.56,7.94 L52.26,7.53 L52.94,7.23 L53.60,7.02 L54.23,6.90 L54.84,6.86 L54.86,6.86 L54.87,6.86 L55.48,6.90 L56.11,7.02 L56.77,7.23 L57.45,7.53 L58.15,7.93 L58.87,8.45 L59.61,9.08 L60.37,9.83 L61.14,10.70 L61.91,11.68 L63.41,13.96 L64.85,16.66 L66.22,19.76 Z" fill="#0078d4" stroke="#1e1e1e" stroke-width="1" stroke-linejoin="round"/><path d="M77.20,34.29 L98.24,34.29 L97.08,32.02 L95.82,29.82 L94.44,27.69 L92.95,25.65 L91.36,23.69 L89.68,21.82 L87.89,20.03 L86.02,18.35 L84.06,16.76 L82.01,15.27 L79.89,13.89 L77.69,12.63 L75.42,11.47 L73.09,10.44 L70.68,9.53 L68.22,8.74 L69.42,10.66 L70.55,12.71 L71.60,14.91 L72.59,17.22 L73.98,21.06 L75.22,25.20 L76.30,29.62 L77.20,34.29 Z" fill="#0078d4" stroke="#1e1e1e" stroke-width="1" stroke-linejoin="round"/><path d="M11.48,34.29 L32.52,34.29 L33.42,29.62 L34.49,25.20 L35.73,21.06 L37.13,17.22 L38.11,14.91 L39.17,12.71 L40.29,10.66 L41.49,8.74 L39.03,9.53 L36.63,10.44 L34.29,11.47 L32.02,12.63 L29.82,13.89 L27.70,15.27 L25.66,16.76 L23.70,18.35 L21.82,20.03 L20.04,21.82 L18.35,23.69 L16.76,25.65 L15.28,27.69 L13.90,29.82 L12.63,32.02 L11.48,34.29 Z" fill="#0078d4" stroke="#1e1e1e" stroke-width="1" stroke-linejoin="round"/></svg>