<svg xmlns="http://www.w3.org/2000/svg" viewBox="11.09 11.09 100.00 100.00"><path d="M34.91,56.73 L37.14,56.61 L39.31,56.28 L41.40,55.75 L43.40,55.01 L45.31,54.09 L47.11,53.00 L48.79,51.75 L50.34,50.34 L51.75,48.79 L53.00,47.11 L54.09,45.31 L55.01,43.40 L55.75,41.40 L56.28,39.31 L56.61,37.14 L56.73,34.91 L56.61,32.68 L56.28,30.51 L55.75,28.42 L55.01,26.42 L54.09,24.51 L53.00,22.71 L51.75,21.03 L50.34,19.48 L48.79,18.07 L47.11,16.82 L45.31,15.72 L43.40,14.81 L41.40,14.07 L39.31,13.53 L37.14,13.20 L34.91,13.09 L32.68,13.20 L30.51,13.53 L28.42,14.07 L26.42,14.81 L24.51,15.72 L22.71,16.82 L21.03,18.07 L19.48,19.48 L18.07,21.03 L16.82,22.71 L15.72,24.51 L14.81,26.42 L14.07,28.42 L13.53,30.51 L13.20,32.68 L13.09,34.91 L13.20,37.14 L13.53,39.31 L14.07,41.40 L14.81,43.40 L15.72,45.31 L16.82,47.11 L18.07,48.79 L19.48,50.34 L21.03,51.75 L22.71,53.00 L24.51,54.09 L26.42,55.01 L28.42,55.75 L30.51,56.28 L32.68,56.61 L34.91,56.73 Z" fill="#0078d4" stroke="#1e1e1e" stroke-width="1" stroke-linejoin="round"/><path d="M87.27,56.73 L89.50,56.61 L91.67,56.28 L93.76,55.75 L95.77,55.01 L97.67,54.09 L99.47,53.00 L101.15,51.75 L102.70,50.34 L104.11,48.79 L105.36,47.11 L106.46,45.31 L107.38,43.40 L108.11,41.40 L108.65,39.31 L108.98,37.14 L109.09,34.91 L108.98,32.68 L108.65,30.51 L108.11,28.42 L107.38,26.42 L106.46,24.51 L105.36,22.71 L104.11,21.03 L102.70,19.48 L101.15,18.07 L99.47,16.82 L97.67,15.72 L95.77,14.81 L93.76,14.07 L91.67,13.53 L89.50,13.20 L87.27,13.09 L85.04,13.20 L82.88,13.53 L80.78,14.07 L78.78,14.81 L76.87,15.72 L75.07,16.82 L73.39,18.07 L71.84,19.48 L70.44,21.03 L69.18,22.71 L68.09,24.51 L67.17,26.42 L66.44,28.42 L65.90,30.51 L65.57,32.68 L65.45,34.91 L65.57,37.14 L65.90,39.31 L66.44,41.40 L67.17,43.40 L68.09,45.31 L69.18,47.11 L70.44,48.79 L71.84,50.34 L73.39,51.75 L75.07,53.00 L76.87,54.09 L78.78,55.01 L80.78,55.75 L82.88,56.28 L85.04,56.61 L87.27,56.73 Z" fill="#0078d4" stroke="#1e1e1e" stroke-width="1" stroke-linejoin="round"/><path d="M56.73,87.27 L56.61,89.50 L56.28,91.67 L55.75,93.76 L55.01,95.77 L54.09,97.67 L53.00,99.47 L51.75,101.15 L50.34,102.70 L48.79,104.11 L47.11,105.36 L45.31,106.46 L43.40,107.38 L41.40,108.11 L39.31,108.65 L37.14,108.98 L34.91,109.09 L32.68,108.98 L30.51,108.65 L28.42,108.11 L26.42,107.38 L24.51,106.46 L22.71,105.36 L21.03,104.11 L19.48,102.70 L18.07,101.15 L16.82,99.47 L15.72,97.67 L14.81,95.77 L14.07,93.76 L13.53,91.67 L13.20,89.50 L13.09,87.27 L13.20,85.04 L13.53,82.88 L14.07,80.78 L14.81,78.78 L15.72,76.87 L16.82,75.07 L18.07,73.39 L19.48,71.84 L21.03,70.44 L22.71,69.18 L24.51,68.09 L26.42,67.17 L28.42,66.44 L30.51,65.90 L32.68,65.57 L34.91,65.45 L37.14,65.57 L39.31,65.90 L41.40,66.44 L43.40,67.17 L45.31,68.09 L47.11,69.18 L48.79,70.44 L50.34,71.84 L51.75,73.39 L53.00,75.07 L54.09,76.87 L55.01,78.78 L55.75,80.78 L56.28,82.88 L56.61,85.04 L56.73,87.27 Z" fill="#0078d4" stroke="#1e1e1e" stroke-width="1" stroke-linejoin="round"/><path d="M87.27,109.09 L89.50,108.98 L91.67,108.65 L93.76,108.11 L95.77,107.38 L97.67,106.46 L99.47,105.36 L101.15,104.11 L102.70,102.70 L104.11,101.15 L105.36,99.47 L106.46,97.67 L107.38,95.77 L108.11,93.76 L108.65,91.67 L108.98,89.50 L109.09,87.27 L108.98,85.04 L108.65,82.88 L108.11,80.78 L107.38,78.78 L106.46,76.87 L105.36,75.07 L104.11,73.39 L102.70,71.84 L101.15,70.44 L99.47,69.18 L97.67,68.09 L95.77,67.17 L93.76,66.44 L91.67,65.90 L89.50,65.57 L87.27,65.45 L85.04,65.57 L82.88,65.90 L80.78,66.44 L78.78,67.17 L76.87,68.09 L75.07,69.18 L73.39,70.44 L71.84,71.84 L70.44,73.39 L69.18,75.07 L68.09,76.87 L67.17,78.78 L66.44,80.78 L65.90,82.88 L65.57,85.04 L65.45,87.27 L65.57,89.50 L65.90,91.67 L66.44,93.76 L67.17,95.77 L68.09,97.67 L69.18,99.47 L70.44,101.15 L71.84,102.70 L73.39,104.11 L75.07,105.36 L76.87,106.46 L78.78,107.38 L80.78,108.11 L82.88,108.65 L85.04,108.98 L87.27,109.09 Z" fill="#0078d4" stroke="#1e1e1e" stroke-width="1" stroke-linejoin="round"/></svg>