<svg xmlns="http://www.w3.org/2000/svg" viewBox="25.43 25.43 205.14 205.14"><path d="M73.14,118.86 L77.82,118.62 L82.36,117.93 L86.74,116.80 L90.94,115.26 L94.93,113.34 L98.70,111.05 L102.22,108.42 L105.47,105.47 L108.42,102.22 L111.05,98.70 L113.34,94.93 L115.26,90.94 L116.80,86.74 L117.93,82.36 L118.62,77.82 L118.86,73.14 L118.62,68.47 L117.93,63.93 L116.80,59.55 L115.26,55.35 L113.34,51.35 L111.05,47.58 L108.42,44.06 L105.47,40.82 L102.22,37.87 L98.70,35.24 L94.93,32.95 L90.94,31.02 L86.74,29.48 L82.36,28.36 L77.82,27.66 L73.14,27.43 L68.47,27.66 L63.93,28.36 L59.55,29.48 L55.35,31.02 L51.35,32.95 L47.58,35.24 L44.06,37.87 L40.82,40.82 L37.87,44.06 L35.24,47.58 L32.95,51.35 L31.02,55.35 L29.48,59.55 L28.36,63.93 L27.66,68.47 L27.43,73.14 L27.66,77.82 L28.36,82.36 L29.48,86.74 L31.02,90.94 L32.95,94.93 L35.24,98.70 L37.87,102.22 L40.82,105.47 L44.06,108.42 L47.58,111.05 L51.35,113.34 L55.35,115.26 L59.55,116.80 L63.93,117.93 L68.47,118.62 L73.14,118.86 Z" fill="#0078d4" stroke="#1e1e1e" stroke-width="1" stroke-linejoin="round"/><path d="M182.86,118.86 L187.53,118.62 L192.07,117.93 L196.45,116.80 L200.65,115.26 L204.65,113.34 L208.42,111.05 L211.94,108.42 L215.18,105.47 L218.13,102.22 L220.76,98.70 L223.05,94.93 L224.98,90.94 L226.52,86.74 L227.64,82.36 L228.34,77.82 L228.57,73.14 L228.34,68.47 L227.64,63.93 L226.52,59.55 L224.98,55.35 L223.05,51.35 L220.76,47.58 L218.13,44.06 L215.18,40.82 L211.94,37.87 L208.42,35.24 L204.65,32.95 L200.65,31.02 L196.45,29.48 L192.07,28.36 L187.53,27.66 L182.86,27.43 L178.18,27.66 L173.64,28.36 L169.26,29.48 L165.06,31.02 L161.07,32.95 L157.30,35.24 L153.78,37.87 L150.53,40.82 L147.58,44.06 L144.95,47.58 L142.66,51.35 L140.74,55.35 L139.20,59.55 L138.07,63.93 L137.38,68.47 L137.14,73.14 L137.38,77.82 L138.07,82.36 L139.20,86.74 L140.74,90.94 L142.66,94.93 L144.95,98.70 L147.58,102.22 L150.53,105.47 L153.78,108.42 L157.30,111.05 L161.07,113.34 L165.06,115.26 L169.26,116.80 L173.64,117.93 L178.18,118.62 L182.86,118.86 Z" fill="#0078d4" stroke="#1e1e1e" stroke-width="1" stroke-linejoin="round"/><path d="M118.86,182.86 L118.62,187.53 L117.93,192.07 L116.80,196.45 L115.26,200.65 L113.34,204.65 L111.05,208.42 L108.42,211.94 L105.47,215.18 L102.22,218.13 L98.70,220.76 L94.93,223.05 L90.94,224.98 L86.74,226.52 L82.36,227.64 L77.82,228.34 L73.14,228.57 L68.47,228.34 L63.93,227.64 L59.55,226.52 L55.35,224.98 L51.35,223.05 L47.58,220.76 L44.06,218.13 L40.82,215.18 L37.87,211.94 L35.24,208.42 L32.95,204.65 L31.02,200.65 L29.48,196.45 L28.36,192.07 L27.66,187.53 L27.43,182.86 L27.66,178.18 L28.36,173.64 L29.48,169.26 L31.02,165.06 L32.95,161.07 L35.24,157.30 L37.87,153.78 L40.82,150.53 L44.06,147.58 L47.58,144.95 L51.35,142.66 L55.35,140.74 L59.55,139.20 L63.93,138.07 L68.47,137.38 L73.14,137.14 L77.82,137.38 L82.36,138.07 L86.74,139.20 L90.94,140.74 L94.93,142.66 L98.70,144.95 L102.22,147.58 L105.47,150.53 L108.42,153.78 L111.05,157.30 L113.34,161.07 L115.26,165.06 L116.80,169.26 L117.93,173.64 L118.62,178.18 L118.86,182.86 Z" fill="#0078d4" stroke="#1e1e1e" stroke-width="1" stroke-linejoin="round"/><path d="M182.86,228.57 L187.53,228.34 L192.07,227.64 L196.45,226.52 L200.65,224.98 L204.65,223.05 L208.42,220.76 L211.94,218.13 L215.18,215.18 L218.13,211.94 L220.76,208.42 L223.05,204.65 L224.98,200.65 L226.52,196.45 L227.64,192.07 L228.34,187.53 L228.57,182.86 L228.34,178.18 L227.64,173.64 L226.52,169.26 L224.98,165.06 L223.05,161.07 L220.76,157.30 L218.13,153.78 L215.18,150.53 L211.94,147.58 L208.42,144.95 L204.65,142.66 L200.65,140.74 L196.45,139.20 L192.07,138.07 L187.53,137.38 L182.86,137.14 L178.18,137.38 L173.64,138.07 L169.26,139.20 L165.06,140.74 L161.07,142.66 L157.30,144.95 L153.78,147.58 L150.53,150.53 L147.58,153.78 L144.95,157.30 L142.66,161.07 L140.74,165.06 L139.20,169.26 L138.07,173.64 L137.38,178.18 L137.14,182.86 L137.38,187.53 L138.07,192.07 L139.20,196.45 L140.74,200.65 L142.66,204.65 L144.95,208.42 L147.58,211.94 L150.53,215.18 L153.78,218.13 L157.30,220.76 L161.07,223.05 L165.06,224.98 L169.26,226.52 L173.64,227.64 L178.18,228.34 L182.86,228.57 Z" fill="#0078d4" stroke="#1e1e1e" stroke-width="1" stroke-linejoin="round"/></svg>