<svg xmlns="http://www.w3.org/2000/svg" viewBox="4.86 12.11 100.00 85.89"><path d="M22.86,81.14 L22.86,63.93 L41.42,76.05 L42.98,76.99 L44.58,77.81 L46.23,78.49 L47.91,79.06 L49.63,79.49 L51.36,79.81 L53.10,79.99 L54.86,80.06 L56.61,79.99 L58.36,79.81 L60.09,79.49 L61.80,79.06 L63.48,78.49 L65.13,77.81 L66.74,76.99 L68.30,76.05 L86.86,63.93 L86.86,81.14 L86.81,81.69 L86.68,82.23 L86.47,82.73 L86.17,83.20 L86.17,83.21 L86.16,83.21 L86.15,83.23 L86.11,83.28 L86.05,83.35 L85.99,83.43 L85.60,83.89 L84.15,85.40 L83.08,86.38 L81.78,87.46 L80.23,88.60 L78.44,89.78 L76.39,90.95 L74.09,92.08 L71.54,93.13 L68.73,94.07 L65.66,94.86 L62.33,95.47 L58.73,95.86 L56.83,95.96 L54.86,96.00 L52.89,95.96 L50.98,95.86 L47.38,95.47 L44.05,94.86 L40.98,94.07 L38.17,93.13 L35.62,92.08 L33.32,90.95 L31.27,89.78 L29.48,88.60 L27.94,87.46 L26.63,86.38 L25.56,85.40 L24.11,83.89 L23.72,83.43 L23.61,83.28 L23.57,83.23 L23.55,83.21 L23.55,83.21 L23.25,82.74 L23.04,82.23 L22.90,81.69 L22.86,81.14 Z" fill="#0078d4" stroke="#1e1e1e" stroke-width="1" stroke-linejoin="round"/><path d="M101.30,46.30 L64.55,70.31 L63.42,70.99 L62.26,71.58 L61.08,72.07 L59.86,72.48 L58.63,72.79 L57.38,73.02 L56.12,73.15 L54.86,73.20 L53.59,73.15 L52.33,73.02 L51.09,72.79 L49.85,72.48 L48.64,72.07 L47.45,71.58 L46.29,70.99 L45.17,70.31 L13.71,49.76 L13.71,74.29 L13.64,74.98 L13.44,75.62 L13.13,76.20 L12.71,76.71 L12.20,77.13 L11.62,77.44 L10.98,77.64 L10.29,77.71 L9.59,77.64 L8.95,77.44 L8.37,77.13 L7.86,76.71 L7.44,76.20 L7.13,75.62 L6.93,74.98 L6.86,74.29 L6.86,45.71 L6.91,45.13 L7.05,44.57 L6.91,44.00 L6.86,43.41 L6.97,42.56 L7.28,41.78 L7.78,41.09 L8.44,40.54 L45.30,16.91 L46.41,16.26 L47.55,15.69 L48.73,15.21 L49.92,14.81 L51.14,14.51 L52.37,14.29 L53.61,14.16 L54.86,14.11 L56.10,14.16 L57.34,14.29 L58.57,14.51 L59.79,14.81 L60.99,15.21 L62.16,15.69 L63.31,16.26 L64.42,16.91 L101.28,40.54 L101.94,41.09 L102.43,41.78 L102.75,42.56 L102.86,43.41 L102.78,44.16 L102.54,44.86 L102.16,45.50 L101.65,46.04 L101.30,46.30 Z" fill="#0078d4" stroke="#1e1e1e" stroke-width="1" stroke-linejoin="round"/></svg>