<svg xmlns="http://www.w3.org/2000/svg" viewBox="11.34 29.07 230.66 204.93"><path d="M120.26,48.95 L115.71,44.83 L110.86,41.24 L105.75,38.20 L100.43,35.69 L94.94,33.72 L89.31,32.30 L83.60,31.42 L77.84,31.07 L72.07,31.28 L66.34,32.02 L60.68,33.31 L55.14,35.14 L49.76,37.51 L44.58,40.43 L39.65,43.90 L34.99,47.91 L31.61,51.40 L28.55,55.08 L25.83,58.94 L23.44,62.96 L21.39,67.11 L19.66,71.38 L18.27,75.75 L17.22,80.19 L16.50,84.68 L16.11,89.21 L16.07,93.76 L16.36,98.30 L16.98,102.81 L17.95,107.28 L19.25,111.68 L20.89,116.00 L61.54,116.00 L78.63,86.08 L80.15,83.80 L81.94,81.77 L83.97,80.02 L86.20,78.56 L88.61,77.42 L91.16,76.59 L93.82,76.12 L96.55,76.01 L99.28,76.27 L101.91,76.89 L104.41,77.85 L106.75,79.13 L108.90,80.71 L110.82,82.57 L112.50,84.69 L113.89,87.06 L131.17,121.63 L143.83,104.24 L145.12,102.63 L146.57,101.18 L148.14,99.89 L149.84,98.77 L151.64,97.83 L153.53,97.07 L155.50,96.51 L157.53,96.15 L159.59,96.00 L161.64,96.07 L163.66,96.34 L165.63,96.81 L167.55,97.48 L169.40,98.34 L171.15,99.40 L172.80,100.64 L191.24,116.00 L235.65,116.00 L237.15,111.76 L238.33,107.45 L239.19,103.07 L239.73,98.66 L239.95,94.22 L239.86,89.79 L239.44,85.36 L238.71,80.98 L237.66,76.64 L236.29,72.38 L234.61,68.21 L232.61,64.14 L230.30,60.21 L227.67,56.42 L224.72,52.79 L221.46,49.35 L216.78,45.20 L211.80,41.61 L206.56,38.58 L201.11,36.11 L195.50,34.19 L189.76,32.83 L183.94,32.03 L178.07,31.78 L172.21,32.09 L166.40,32.96 L160.67,34.38 L155.08,36.35 L149.66,38.89 L144.46,41.97 L139.51,45.61 L134.87,49.81 L128.00,56.69 L120.26,48.95 Z" fill="#0078d4" stroke="#1e1e1e" stroke-width="1" stroke-linejoin="round"/><path d="M122.16,229.47 L53.30,156.00 L73.14,156.00 L75.80,155.82 L78.38,155.30 L80.85,154.45 L83.18,153.30 L85.34,151.85 L87.30,150.13 L89.03,148.14 L90.51,145.92 L94.82,138.37 L110.11,168.94 L111.42,171.19 L112.99,173.22 L114.79,175.01 L116.79,176.56 L118.98,177.85 L121.32,178.85 L123.78,179.55 L126.35,179.93 L128.95,179.98 L131.49,179.69 L133.97,179.09 L136.33,178.18 L138.56,176.98 L140.64,175.50 L142.51,173.76 L144.17,171.76 L163.61,145.04 L171.20,151.36 L174.06,153.35 L177.19,154.81 L180.53,155.70 L184.00,156.00 L203.75,156.00 L133.79,229.52 L132.55,230.58 L131.14,231.36 L129.59,231.84 L127.97,232.00 L126.34,231.83 L124.80,231.33 L123.39,230.54 L122.16,229.47 Z" fill="#0078d4" stroke="#1e1e1e" stroke-width="1" stroke-linejoin="round"/><path d="M103.16,92.42 L101.94,90.65 L100.34,89.28 L98.42,88.38 L96.31,88.01 L94.17,88.21 L92.19,88.96 L90.48,90.21 L89.14,91.88 L67.47,128.00 L21.34,128.00 L19.72,128.16 L18.22,128.63 L16.86,129.37 L15.68,130.34 L14.70,131.53 L13.96,132.89 L13.50,134.39 L13.34,136.00 L13.50,137.61 L13.96,139.11 L14.70,140.47 L15.68,141.66 L16.86,142.63 L18.22,143.37 L19.72,143.84 L21.34,144.00 L72.00,144.00 L74.05,143.73 L75.94,142.96 L77.57,141.74 L78.86,140.12 L95.36,112.61 L120.85,163.58 L122.00,165.29 L123.52,166.63 L125.33,167.54 L127.34,167.97 L129.40,167.88 L131.34,167.27 L133.06,166.20 L134.47,164.71 L161.44,127.62 L178.88,142.15 L180.02,142.94 L181.28,143.52 L182.61,143.88 L184.00,144.00 L232.00,144.00 L233.61,143.84 L235.11,143.37 L236.47,142.63 L237.66,141.66 L238.63,140.47 L239.37,139.11 L239.84,137.61 L240.00,136.00 L239.84,134.39 L239.37,132.89 L238.63,131.53 L237.66,130.34 L236.47,129.37 L235.11,128.63 L233.61,128.16 L232.00,128.00 L186.90,128.00 L165.12,109.85 L163.76,108.94 L162.25,108.32 L160.66,108.03 L159.01,108.06 L157.41,108.43 L155.94,109.11 L154.63,110.07 L153.53,111.29 L129.27,144.65 L103.16,92.42 Z" fill="#8dc8e8" stroke="#1e1e1e" stroke-width="1" stroke-linejoin="round"/></svg>