<svg xmlns="http://www.w3.org/2000/svg" viewBox="30.00 30.00 196.00 196.00"><path d="M32.00,65.33 L32.17,61.93 L32.68,58.62 L33.50,55.42 L34.62,52.36 L36.02,49.44 L37.69,46.70 L39.61,44.13 L41.76,41.76 L44.13,39.61 L46.70,37.69 L49.44,36.02 L52.36,34.62 L55.42,33.50 L58.62,32.68 L61.93,32.17 L65.33,32.00 L190.67,32.00 L194.07,32.17 L197.38,32.68 L200.58,33.50 L203.64,34.62 L206.56,36.02 L209.30,37.69 L211.87,39.61 L214.24,41.76 L216.39,44.13 L218.31,46.70 L219.98,49.44 L221.38,52.36 L222.50,55.42 L223.32,58.62 L223.83,61.93 L224.00,65.33 L224.00,190.67 L223.89,193.35 L223.58,195.98 L223.07,198.54 L222.36,201.02 L221.47,203.43 L220.41,205.74 L219.18,207.95 L217.79,210.05 L141.20,133.47 L139.78,132.19 L138.27,131.08 L136.68,130.14 L135.02,129.37 L133.32,128.77 L131.57,128.34 L129.79,128.09 L128.00,128.00 L126.21,128.09 L124.44,128.34 L122.69,128.77 L120.98,129.37 L119.32,130.14 L117.73,131.08 L116.22,132.19 L114.80,133.47 L38.21,210.05 L36.82,207.95 L35.59,205.74 L34.53,203.43 L33.64,201.02 L32.93,198.54 L32.42,195.98 L32.11,193.35 L32.00,190.67 L32.00,65.33 Z" fill="#0078d4" stroke="#1e1e1e" stroke-width="1" stroke-linejoin="round"/><path d="M162.67,114.67 L164.85,114.56 L166.97,114.23 L169.01,113.71 L170.97,112.99 L172.84,112.09 L174.59,111.02 L176.24,109.80 L177.75,108.42 L179.13,106.90 L180.36,105.26 L181.43,103.50 L182.32,101.64 L183.04,99.68 L183.57,97.63 L183.89,95.51 L184.00,93.33 L183.89,91.15 L183.57,89.03 L183.04,86.99 L182.32,85.03 L181.43,83.16 L180.36,81.41 L179.13,79.76 L177.75,78.25 L176.24,76.87 L174.59,75.64 L172.84,74.57 L170.97,73.68 L169.01,72.96 L166.97,72.43 L164.85,72.11 L162.67,72.00 L160.49,72.11 L158.37,72.43 L156.32,72.96 L154.36,73.68 L152.50,74.57 L150.74,75.64 L149.10,76.87 L147.58,78.25 L146.20,79.76 L144.98,81.41 L143.91,83.16 L143.01,85.03 L142.29,86.99 L141.77,89.03 L141.44,91.15 L141.33,93.33 L141.44,95.51 L141.77,97.63 L142.29,99.68 L143.01,101.64 L143.91,103.50 L144.98,105.26 L146.20,106.90 L147.58,108.42 L149.10,109.80 L150.74,111.02 L152.50,112.09 L154.36,112.99 L156.32,113.71 L158.37,114.23 L160.49,114.56 L162.67,114.67 Z" fill="#ffffff" stroke="#1e1e1e" stroke-width="1" stroke-linejoin="round"/><path d="M208.01,219.14 L131.77,142.90 L130.94,142.21 L130.01,141.72 L129.02,141.43 L128.00,141.33 L126.98,141.43 L125.99,141.72 L125.07,142.21 L124.23,142.90 L47.99,219.14 L51.94,221.20 L56.17,222.73 L60.65,223.67 L62.97,223.92 L65.33,224.00 L190.67,224.00 L193.03,223.92 L195.35,223.67 L199.83,222.73 L204.06,221.20 L208.01,219.14 Z" fill="#8dc8e8" stroke="#1e1e1e" stroke-width="1" stroke-linejoin="round"/></svg>