<svg xmlns="http://www.w3.org/2000/svg" viewBox="14.00 14.00 100.00 100.00"><path d="M16.00,32.67 L16.09,30.96 L16.34,29.31 L16.75,27.71 L17.31,26.18 L18.01,24.72 L18.85,23.35 L19.81,22.07 L20.88,20.88 L22.07,19.81 L23.35,18.85 L24.72,18.01 L26.18,17.31 L27.71,16.75 L29.31,16.34 L30.96,16.09 L32.67,16.00 L95.33,16.00 L97.04,16.09 L98.69,16.34 L100.29,16.75 L101.82,17.31 L103.28,18.01 L104.65,18.85 L105.93,19.81 L107.12,20.88 L108.19,22.07 L109.15,23.35 L109.99,24.72 L110.69,26.18 L111.25,27.71 L111.66,29.31 L111.91,30.96 L112.00,32.67 L112.00,95.33 L111.95,96.68 L111.79,97.99 L111.53,99.27 L111.18,100.51 L110.74,101.71 L110.20,102.87 L109.59,103.97 L108.89,105.03 L70.60,66.73 L69.89,66.09 L69.14,65.54 L68.34,65.07 L67.51,64.68 L66.66,64.38 L65.78,64.17 L64.89,64.04 L64.00,64.00 L63.11,64.04 L62.22,64.17 L61.34,64.38 L60.49,64.68 L59.66,65.07 L58.86,65.54 L58.11,66.09 L57.40,66.73 L19.11,105.03 L18.41,103.97 L17.80,102.87 L17.26,101.71 L16.82,100.51 L16.47,99.27 L16.21,97.99 L16.05,96.68 L16.00,95.33 L16.00,32.67 Z" fill="#0078d4" stroke="#1e1e1e" stroke-width="1" stroke-linejoin="round"/><path d="M81.33,57.33 L82.42,57.28 L83.48,57.12 L84.51,56.85 L85.49,56.50 L86.42,56.05 L87.30,55.51 L88.12,54.90 L88.88,54.21 L89.56,53.45 L90.18,52.63 L90.71,51.75 L91.16,50.82 L91.52,49.84 L91.78,48.82 L91.94,47.76 L92.00,46.67 L91.94,45.58 L91.78,44.52 L91.52,43.49 L91.16,42.51 L90.71,41.58 L90.18,40.70 L89.56,39.88 L88.88,39.12 L88.12,38.44 L87.30,37.82 L86.42,37.29 L85.49,36.84 L84.51,36.48 L83.48,36.22 L82.42,36.06 L81.33,36.00 L80.24,36.06 L79.18,36.22 L78.16,36.48 L77.18,36.84 L76.25,37.29 L75.37,37.82 L74.55,38.44 L73.79,39.12 L73.10,39.88 L72.49,40.70 L71.95,41.58 L71.50,42.51 L71.15,43.49 L70.88,44.52 L70.72,45.58 L70.67,46.67 L70.72,47.76 L70.88,48.82 L71.15,49.84 L71.50,50.82 L71.95,51.75 L72.49,52.63 L73.10,53.45 L73.79,54.21 L74.55,54.90 L75.37,55.51 L76.25,56.05 L77.18,56.50 L78.16,56.85 L79.18,57.12 L80.24,57.28 L81.33,57.33 Z" fill="#ffffff" stroke="#1e1e1e" stroke-width="1" stroke-linejoin="round"/><path d="M104.01,109.57 L65.89,71.45 L65.47,71.11 L65.00,70.86 L64.51,70.72 L64.00,70.67 L63.49,70.72 L63.00,70.86 L62.53,71.11 L62.11,71.45 L23.99,109.57 L25.97,110.60 L28.09,111.36 L30.33,111.84 L31.49,111.96 L32.67,112.00 L95.33,112.00 L96.51,111.96 L97.67,111.84 L99.91,111.36 L102.03,110.60 L104.01,109.57 Z" fill="#8dc8e8" stroke="#1e1e1e" stroke-width="1" stroke-linejoin="round"/></svg>