<svg xmlns="http://www.w3.org/2000/svg" viewBox="30.00 30.00 196.00 196.00"><path d="M120.00,184.00 L120.00,192.00 L119.84,193.61 L119.37,195.11 L118.63,196.47 L117.66,197.66 L116.47,198.63 L115.11,199.37 L113.61,199.84 L112.00,200.00 L96.00,200.00 L96.00,208.00 L95.92,209.64 L95.67,211.22 L94.74,214.23 L93.27,216.95 L91.31,219.31 L88.95,221.27 L86.23,222.74 L83.22,223.67 L81.64,223.92 L80.00,224.00 L48.00,224.00 L46.36,223.92 L44.78,223.67 L41.77,222.74 L39.05,221.27 L36.69,219.31 L34.73,216.95 L33.26,214.23 L32.33,211.22 L32.08,209.64 L32.00,208.00 L32.00,187.31 L32.31,184.18 L33.22,181.19 L34.69,178.44 L36.69,176.00 L98.60,114.09 L97.48,109.72 L96.66,105.24 L96.17,100.67 L96.00,96.00 L96.08,92.71 L96.33,89.46 L96.74,86.25 L97.30,83.10 L98.88,76.97 L101.03,71.09 L103.72,65.49 L106.93,60.22 L110.61,55.29 L114.75,50.75 L119.29,46.61 L124.22,42.93 L129.49,39.72 L135.09,37.03 L140.97,34.88 L147.10,33.30 L150.25,32.74 L153.46,32.33 L156.71,32.08 L160.00,32.00 L163.29,32.08 L166.54,32.33 L169.75,32.74 L172.90,33.30 L179.03,34.88 L184.91,37.03 L190.51,39.72 L195.78,42.93 L200.71,46.61 L205.25,50.75 L209.39,55.29 L213.07,60.22 L216.28,65.49 L218.97,71.09 L221.12,76.97 L222.70,83.10 L223.26,86.25 L223.67,89.46 L223.92,92.71 L224.00,96.00 L223.92,99.29 L223.67,102.54 L223.26,105.75 L222.70,108.90 L221.12,115.03 L218.97,120.91 L216.28,126.51 L213.07,131.78 L209.39,136.71 L205.25,141.25 L200.71,145.39 L195.78,149.07 L190.51,152.28 L184.91,154.97 L179.03,157.12 L172.90,158.70 L169.75,159.26 L166.54,159.67 L163.29,159.92 L160.00,160.00 L144.00,160.00 L144.00,176.00 L143.84,177.61 L143.37,179.11 L142.63,180.47 L141.66,181.66 L140.47,182.63 L139.11,183.37 L137.61,183.84 L136.00,184.00 L120.00,184.00 Z" fill="#0078d4" stroke="#1e1e1e" stroke-width="1" stroke-linejoin="round"/><path d="M176.00,96.00 L177.64,95.92 L179.22,95.67 L182.23,94.74 L184.95,93.27 L187.31,91.31 L189.27,88.95 L190.74,86.23 L191.67,83.22 L191.92,81.64 L192.00,80.00 L191.92,78.36 L191.67,76.78 L190.74,73.77 L189.27,71.05 L187.31,68.69 L184.95,66.73 L182.23,65.26 L179.22,64.33 L177.64,64.08 L176.00,64.00 L174.36,64.08 L172.78,64.33 L169.77,65.26 L167.05,66.73 L164.69,68.69 L162.73,71.05 L161.26,73.77 L160.33,76.78 L160.08,78.36 L160.00,80.00 L160.08,81.64 L160.33,83.22 L161.26,86.23 L162.73,88.95 L164.69,91.31 L167.05,93.27 L169.77,94.74 L172.78,95.67 L174.36,95.92 L176.00,96.00 Z" fill="#ffffff" stroke="#1e1e1e" stroke-width="1" stroke-linejoin="round"/></svg>