<svg xmlns="http://www.w3.org/2000/svg" viewBox="14.00 14.00 100.00 100.00"><path d="M60.00,92.00 L60.00,96.00 L59.92,96.81 L59.69,97.56 L59.32,98.24 L58.83,98.83 L58.24,99.32 L57.56,99.69 L56.81,99.92 L56.00,100.00 L48.00,100.00 L48.00,104.00 L47.96,104.82 L47.84,105.61 L47.37,107.11 L46.63,108.47 L45.66,109.66 L44.47,110.63 L43.11,111.37 L41.61,111.84 L40.82,111.96 L40.00,112.00 L24.00,112.00 L23.18,111.96 L22.39,111.84 L20.89,111.37 L19.53,110.63 L18.34,109.66 L17.37,108.47 L16.63,107.11 L16.16,105.61 L16.04,104.82 L16.00,104.00 L16.00,93.66 L16.16,92.09 L16.61,90.60 L17.34,89.22 L18.34,88.00 L49.30,57.05 L48.74,54.86 L48.33,52.62 L48.08,50.33 L48.00,48.00 L48.04,46.35 L48.17,44.73 L48.37,43.13 L48.65,41.55 L49.44,38.48 L50.51,35.54 L51.86,32.75 L53.47,30.11 L55.31,27.65 L57.37,25.37 L59.65,23.31 L62.11,21.47 L64.75,19.86 L67.54,18.51 L70.48,17.44 L73.55,16.65 L75.13,16.37 L76.73,16.17 L78.35,16.04 L80.00,16.00 L81.65,16.04 L83.27,16.17 L84.87,16.37 L86.45,16.65 L89.52,17.44 L92.46,18.51 L95.25,19.86 L97.89,21.47 L100.35,23.31 L102.63,25.37 L104.69,27.65 L106.53,30.11 L108.14,32.75 L109.49,35.54 L110.56,38.48 L111.35,41.55 L111.63,43.13 L111.83,44.73 L111.96,46.35 L112.00,48.00 L111.96,49.65 L111.83,51.27 L111.63,52.87 L111.35,54.45 L110.56,57.52 L109.49,60.46 L108.14,63.25 L106.53,65.89 L104.69,68.35 L102.63,70.63 L100.35,72.69 L97.89,74.53 L95.25,76.14 L92.46,77.49 L89.52,78.56 L86.45,79.35 L84.87,79.63 L83.27,79.83 L81.65,79.96 L80.00,80.00 L72.00,80.00 L72.00,88.00 L71.92,88.81 L71.69,89.56 L71.32,90.24 L70.83,90.83 L70.24,91.32 L69.56,91.69 L68.81,91.92 L68.00,92.00 L60.00,92.00 Z" fill="#0078d4" stroke="#0078d4" stroke-width="1" stroke-linejoin="round"/><path d="M88.00,48.00 L88.82,47.96 L89.61,47.84 L91.11,47.37 L92.47,46.63 L93.66,45.66 L94.63,44.47 L95.37,43.11 L95.84,41.61 L95.96,40.82 L96.00,40.00 L95.96,39.18 L95.84,38.39 L95.37,36.89 L94.63,35.53 L93.66,34.34 L92.47,33.37 L91.11,32.63 L89.61,32.16 L88.82,32.04 L88.00,32.00 L87.18,32.04 L86.39,32.16 L84.89,32.63 L83.53,33.37 L82.34,34.34 L81.37,35.53 L80.63,36.89 L80.16,38.39 L80.04,39.18 L80.00,40.00 L80.04,40.82 L80.16,41.61 L80.63,43.11 L81.37,44.47 L82.34,45.66 L83.53,46.63 L84.89,47.37 L86.39,47.84 L87.18,47.96 L88.00,48.00 Z" fill="#ffffff" stroke="#ffffff" stroke-width="1" stroke-linejoin="round"/></svg>