<svg xmlns="http://www.w3.org/2000/svg" viewBox="16.29 52.86 223.43 150.29"><path d="M36.57,75.43 L36.67,73.33 L36.99,71.28 L37.49,69.31 L38.18,67.42 L39.05,65.62 L40.08,63.93 L41.27,62.34 L42.59,60.88 L44.05,59.55 L45.64,58.37 L47.33,57.34 L49.13,56.47 L51.02,55.78 L52.99,55.28 L55.04,54.96 L57.14,54.86 L198.86,54.86 L200.96,54.96 L203.01,55.28 L204.98,55.78 L206.87,56.47 L208.67,57.34 L210.36,58.37 L211.95,59.55 L213.41,60.88 L214.74,62.34 L215.92,63.93 L216.95,65.62 L217.82,67.42 L218.51,69.31 L219.01,71.28 L219.33,73.33 L219.43,75.43 L219.43,157.71 L219.33,159.82 L219.01,161.86 L218.51,163.83 L217.82,165.72 L216.95,167.52 L215.92,169.22 L214.74,170.80 L213.41,172.26 L211.95,173.59 L210.36,174.77 L208.67,175.80 L206.87,176.67 L204.98,177.36 L203.01,177.87 L200.96,178.18 L198.86,178.29 L57.14,178.29 L55.04,178.18 L52.99,177.87 L51.02,177.36 L49.13,176.67 L47.33,175.80 L45.64,174.77 L44.05,173.59 L42.59,172.26 L41.27,170.80 L40.08,169.22 L39.05,167.52 L38.18,165.72 L37.49,163.83 L36.99,161.86 L36.67,159.82 L36.57,157.71 L36.57,75.43 Z" fill="#0078d4" stroke="#1e1e1e" stroke-width="1" stroke-linejoin="round"/><path d="M25.14,187.43 L23.76,187.57 L22.47,187.97 L21.31,188.60 L20.29,189.44 L19.46,190.45 L18.82,191.62 L18.43,192.90 L18.29,194.29 L18.43,195.67 L18.82,196.96 L19.46,198.12 L20.29,199.13 L21.31,199.97 L22.47,200.60 L23.76,201.00 L25.14,201.14 L230.86,201.14 L232.24,201.00 L233.53,200.60 L234.69,199.97 L235.71,199.13 L236.54,198.12 L237.18,196.96 L237.57,195.67 L237.71,194.29 L237.57,192.90 L237.18,191.62 L236.54,190.45 L235.71,189.44 L234.69,188.60 L233.53,187.97 L232.24,187.57 L230.86,187.43 L25.14,187.43 Z" fill="#0078d4" stroke="#1e1e1e" stroke-width="1" stroke-linejoin="round"/></svg>