<svg xmlns="http://www.w3.org/2000/svg" viewBox="6.00 22.00 100.00 68.00"><path d="M16.00,33.00 L16.05,32.08 L16.18,31.19 L16.40,30.32 L16.71,29.50 L17.08,28.71 L17.54,27.97 L18.05,27.28 L18.63,26.64 L19.27,26.06 L19.97,25.54 L20.71,25.09 L21.50,24.71 L22.32,24.40 L23.18,24.18 L24.08,24.05 L25.00,24.00 L87.00,24.00 L87.92,24.05 L88.82,24.18 L89.68,24.40 L90.51,24.71 L91.29,25.09 L92.03,25.54 L92.73,26.06 L93.37,26.64 L93.95,27.28 L94.46,27.97 L94.92,28.71 L95.29,29.50 L95.60,30.32 L95.82,31.19 L95.96,32.08 L96.00,33.00 L96.00,69.00 L95.96,69.92 L95.82,70.81 L95.60,71.68 L95.29,72.50 L94.92,73.29 L94.46,74.03 L93.95,74.72 L93.37,75.36 L92.73,75.94 L92.03,76.46 L91.29,76.91 L90.51,77.29 L89.68,77.60 L88.82,77.82 L87.92,77.95 L87.00,78.00 L25.00,78.00 L24.08,77.95 L23.18,77.82 L22.32,77.60 L21.50,77.29 L20.71,76.91 L19.97,76.46 L19.27,75.94 L18.63,75.36 L18.05,74.72 L17.54,74.03 L17.08,73.29 L16.71,72.50 L16.40,71.68 L16.18,70.81 L16.05,69.92 L16.00,69.00 L16.00,33.00 Z" fill="#0078d4" stroke="#0078d4" stroke-width="1" stroke-linejoin="round"/><path d="M11.00,82.00 L10.40,82.06 L9.83,82.24 L9.32,82.51 L8.88,82.88 L8.51,83.32 L8.24,83.83 L8.06,84.40 L8.00,85.00 L8.06,85.60 L8.24,86.17 L8.51,86.68 L8.88,87.12 L9.32,87.49 L9.83,87.76 L10.40,87.94 L11.00,88.00 L101.00,88.00 L101.60,87.94 L102.17,87.76 L102.68,87.49 L103.12,87.12 L103.49,86.68 L103.76,86.17 L103.94,85.60 L104.00,85.00 L103.94,84.40 L103.76,83.83 L103.49,83.32 L103.12,82.88 L102.68,82.51 L102.17,82.24 L101.60,82.06 L101.00,82.00 L11.00,82.00 Z" fill="#0078d4" stroke="#0078d4" stroke-width="1" stroke-linejoin="round"/></svg>