<svg xmlns="http://www.w3.org/2000/svg" viewBox="10.00 10.00 99.99 100.00"><path d="M56.68,12.64 L57.75,12.28 L58.83,12.07 L59.91,12.00 L60.96,12.05 L61.99,12.22 L62.99,12.52 L63.94,12.92 L64.84,13.42 L65.67,14.02 L66.43,14.72 L67.11,15.50 L67.70,16.35 L68.19,17.28 L68.57,18.28 L68.84,19.33 L68.97,20.44 L32.53,34.88 L31.58,35.29 L30.68,35.78 L29.83,36.32 L29.02,36.92 L27.56,38.29 L26.33,39.84 L25.34,41.56 L24.61,43.42 L24.34,44.39 L24.15,45.38 L24.04,46.40 L24.00,47.43 L24.00,83.46 L22.90,83.77 L21.81,83.94 L20.73,83.98 L19.67,83.88 L18.64,83.66 L17.64,83.33 L16.70,82.88 L15.82,82.33 L15.00,81.69 L14.26,80.95 L13.61,80.12 L13.06,79.22 L12.61,78.25 L12.28,77.22 L12.07,76.12 L12.00,74.97 L12.00,40.52 L12.04,39.38 L12.17,38.25 L12.38,37.15 L12.67,36.07 L13.04,35.02 L13.49,34.00 L14.01,33.03 L14.59,32.09 L15.24,31.20 L15.96,30.36 L16.74,29.58 L17.58,28.85 L18.48,28.18 L19.42,27.58 L20.43,27.04 L21.47,26.58 L56.68,12.64 Z" fill="#0078d4" stroke="#1e1e1e" stroke-width="1" stroke-linejoin="round"/><path d="M74.67,24.64 L75.78,24.28 L76.90,24.07 L78.00,24.00 L79.09,24.07 L80.15,24.26 L81.16,24.58 L82.13,25.02 L83.04,25.56 L83.89,26.21 L84.65,26.95 L85.32,27.78 L85.89,28.69 L86.36,29.67 L86.70,30.73 L86.91,31.84 L86.99,33.00 L86.99,33.62 L55.57,46.06 L53.94,46.86 L52.46,47.88 L51.17,49.09 L50.07,50.47 L49.19,52.00 L48.54,53.65 L48.13,55.40 L47.99,57.22 L47.99,93.09 L42.31,95.34 L41.20,95.70 L40.09,95.92 L38.98,95.98 L37.90,95.92 L36.84,95.72 L35.82,95.40 L34.85,94.96 L33.94,94.42 L33.10,93.77 L32.34,93.03 L31.66,92.20 L31.09,91.29 L30.63,90.31 L30.28,89.26 L30.07,88.14 L30.00,86.98 L30.00,50.49 L30.13,48.67 L30.54,46.92 L31.19,45.27 L32.07,43.74 L33.17,42.36 L34.46,41.15 L35.94,40.13 L37.58,39.33 L74.67,24.64 Z" fill="#0078d4" stroke="#1e1e1e" stroke-width="1" stroke-linejoin="round"/><path d="M107.99,45.00 L107.99,84.73 L107.88,86.10 L107.58,87.40 L107.09,88.64 L106.43,89.79 L105.61,90.83 L104.64,91.74 L103.53,92.50 L102.30,93.10 L66.31,107.36 L65.19,107.72 L64.08,107.93 L62.98,108.00 L61.89,107.93 L60.83,107.73 L59.81,107.41 L58.85,106.98 L57.93,106.43 L57.09,105.79 L56.33,105.04 L55.66,104.22 L55.09,103.30 L54.62,102.32 L54.28,101.27 L54.07,100.15 L53.99,98.99 L53.99,59.25 L54.10,57.89 L54.40,56.58 L54.89,55.34 L55.55,54.20 L56.37,53.16 L57.34,52.25 L58.45,51.49 L59.68,50.89 L95.67,36.63 L96.79,36.27 L97.90,36.06 L99.00,35.99 L100.09,36.06 L101.15,36.26 L102.17,36.57 L103.14,37.01 L104.05,37.55 L104.89,38.20 L105.65,38.94 L106.32,39.77 L106.89,40.68 L107.36,41.67 L107.70,42.72 L107.91,43.83 L107.99,45.00 Z" fill="#0078d4" stroke="#1e1e1e" stroke-width="1" stroke-linejoin="round"/></svg>