<svg xmlns="http://www.w3.org/2000/svg" viewBox="48.67 19.33 158.67 217.33"><path d="M128.00,21.33 L124.02,21.43 L120.09,21.73 L116.22,22.22 L112.41,22.90 L108.67,23.77 L105.00,24.81 L101.41,26.03 L97.90,27.41 L94.47,28.96 L91.14,30.67 L87.90,32.53 L84.76,34.54 L81.73,36.70 L78.81,38.99 L76.00,41.42 L73.32,43.98 L70.76,46.67 L68.33,49.48 L66.03,52.40 L63.87,55.43 L61.86,58.57 L60.00,61.81 L58.29,65.14 L56.74,68.57 L55.36,72.08 L54.14,75.67 L53.10,79.34 L52.24,83.08 L51.56,86.89 L51.07,90.76 L50.77,94.69 L50.67,98.67 L50.78,102.87 L51.11,107.02 L51.66,111.11 L52.42,115.12 L53.38,119.06 L54.55,122.91 L55.90,126.68 L57.44,130.36 L59.16,133.94 L61.06,137.41 L63.12,140.77 L65.35,144.01 L67.74,147.13 L70.28,150.13 L72.96,152.99 L75.78,155.71 L77.43,157.40 L78.76,159.18 L79.76,161.02 L80.43,162.90 L87.20,189.33 L168.80,189.33 L175.57,162.90 L176.24,161.02 L177.24,159.18 L178.57,157.40 L180.22,155.71 L183.04,152.99 L185.72,150.13 L188.26,147.13 L190.65,144.01 L192.88,140.77 L194.94,137.41 L196.84,133.94 L198.56,130.36 L200.10,126.68 L201.45,122.91 L202.62,119.06 L203.58,115.12 L204.34,111.11 L204.89,107.02 L205.22,102.87 L205.33,98.67 L205.23,94.69 L204.93,90.76 L204.44,86.89 L203.76,83.08 L202.90,79.34 L201.86,75.67 L200.64,72.08 L199.26,68.57 L197.71,65.14 L196.00,61.81 L194.14,58.57 L192.13,55.43 L189.97,52.40 L187.67,49.48 L185.24,46.67 L182.68,43.98 L180.00,41.42 L177.19,38.99 L174.27,36.70 L171.24,34.54 L168.10,32.53 L164.86,30.67 L161.53,28.96 L158.10,27.41 L154.59,26.03 L151.00,24.81 L147.33,23.77 L143.59,22.90 L139.78,22.22 L135.91,21.73 L131.98,21.43 L128.00,21.33 Z" fill="#8dc8e8" stroke="#1e1e1e" stroke-width="1" stroke-linejoin="round"/><path d="M165.38,202.67 L90.62,202.67 L93.94,215.63 L94.57,217.69 L95.35,219.66 L96.28,221.54 L97.36,223.33 L98.58,225.01 L99.92,226.57 L101.38,228.02 L102.95,229.35 L104.63,230.54 L106.39,231.60 L108.25,232.51 L110.17,233.27 L112.17,233.87 L114.23,234.31 L116.33,234.58 L118.48,234.67 L137.52,234.67 L139.67,234.58 L141.77,234.31 L143.83,233.87 L145.83,233.27 L147.75,232.51 L149.61,231.60 L151.37,230.54 L153.05,229.35 L154.62,228.02 L156.08,226.57 L157.42,225.01 L158.64,223.33 L159.72,221.54 L160.65,219.66 L161.43,217.69 L162.06,215.63 L165.38,202.67 Z" fill="#0078d4" stroke="#1e1e1e" stroke-width="1" stroke-linejoin="round"/></svg>