<svg xmlns="http://www.w3.org/2000/svg" viewBox="38.00 14.00 180.00 228.00"><path d="M80.00,64.00 L80.00,80.00 L68.00,80.00 L65.14,80.14 L62.36,80.57 L59.67,81.26 L57.10,82.20 L54.65,83.38 L52.34,84.78 L50.19,86.39 L48.20,88.20 L46.39,90.19 L44.78,92.34 L43.38,94.65 L42.20,97.10 L41.26,99.67 L40.57,102.36 L40.14,105.14 L40.00,108.00 L40.00,212.00 L40.14,214.86 L40.57,217.64 L41.26,220.33 L42.20,222.90 L43.38,225.35 L44.78,227.66 L46.39,229.81 L48.20,231.80 L50.19,233.61 L52.34,235.22 L54.65,236.62 L57.10,237.80 L59.67,238.74 L62.36,239.43 L65.14,239.86 L68.00,240.00 L188.00,240.00 L190.86,239.86 L193.64,239.43 L196.33,238.74 L198.90,237.80 L201.35,236.62 L203.66,235.22 L205.81,233.61 L207.80,231.80 L209.61,229.81 L211.22,227.66 L212.62,225.35 L213.80,222.90 L214.74,220.33 L215.43,217.64 L215.86,214.86 L216.00,212.00 L216.00,108.00 L215.86,105.14 L215.43,102.36 L214.74,99.67 L213.80,97.10 L212.62,94.65 L211.22,92.34 L209.61,90.19 L207.80,88.20 L205.81,86.39 L203.66,84.78 L201.35,83.38 L198.90,82.20 L196.33,81.26 L193.64,80.57 L190.86,80.14 L188.00,80.00 L176.00,80.00 L176.00,64.00 L175.75,59.09 L175.02,54.33 L173.84,49.73 L172.23,45.32 L170.21,41.12 L167.80,37.16 L165.04,33.47 L161.94,30.06 L158.53,26.96 L154.84,24.20 L150.88,21.79 L146.68,19.77 L142.27,18.16 L137.67,16.98 L132.91,16.25 L128.00,16.00 L123.09,16.25 L118.33,16.98 L113.73,18.16 L109.32,19.77 L105.12,21.79 L101.16,24.20 L97.47,26.96 L94.06,30.06 L90.96,33.47 L88.20,37.16 L85.79,41.12 L83.77,45.32 L82.16,49.73 L80.98,54.33 L80.25,59.09 L80.00,64.00 Z" fill="#0078d4" stroke="#1e1e1e" stroke-width="1" stroke-linejoin="round"/><path d="M128.00,32.00 L131.27,32.17 L134.45,32.65 L137.52,33.44 L140.46,34.51 L143.25,35.86 L145.89,37.47 L148.35,39.31 L150.63,41.37 L152.69,43.65 L154.53,46.11 L156.14,48.75 L157.49,51.54 L158.56,54.48 L159.35,57.55 L159.83,60.73 L160.00,64.00 L160.00,80.00 L96.00,80.00 L96.00,64.00 L96.17,60.73 L96.65,57.55 L97.44,54.48 L98.51,51.54 L99.86,48.75 L101.47,46.11 L103.31,43.65 L105.37,41.37 L107.65,39.31 L110.11,37.47 L112.75,35.86 L115.54,34.51 L118.48,33.44 L121.55,32.65 L124.73,32.17 L128.00,32.00 Z" fill="#ffffff" stroke="#1e1e1e" stroke-width="1" stroke-linejoin="round"/><path d="M128.00,176.00 L126.36,175.92 L124.78,175.67 L121.77,174.74 L119.05,173.27 L116.69,171.31 L114.73,168.95 L113.26,166.23 L112.33,163.22 L112.08,161.64 L112.00,160.00 L112.08,158.36 L112.33,156.78 L113.26,153.77 L114.73,151.05 L116.69,148.69 L119.05,146.73 L121.77,145.26 L124.78,144.33 L126.36,144.08 L128.00,144.00 L129.64,144.08 L131.22,144.33 L134.23,145.26 L136.95,146.73 L139.31,148.69 L141.27,151.05 L142.74,153.77 L143.67,156.78 L143.92,158.36 L144.00,160.00 L143.92,161.64 L143.67,163.22 L142.74,166.23 L141.27,168.95 L139.31,171.31 L136.95,173.27 L134.23,174.74 L131.22,175.67 L129.64,175.92 L128.00,176.00 Z" fill="#ffffff" stroke="#1e1e1e" stroke-width="1" stroke-linejoin="round"/></svg>