<svg xmlns="http://www.w3.org/2000/svg" viewBox="19.33 22.00 217.33 214.77"><path d="M64.00,85.33 L64.00,66.67 L64.22,62.30 L64.87,58.07 L65.92,53.98 L67.35,50.06 L69.15,46.33 L71.29,42.81 L73.74,39.53 L76.50,36.50 L79.53,33.74 L82.81,31.29 L86.33,29.15 L90.06,27.35 L93.98,25.92 L98.07,24.87 L102.30,24.22 L106.67,24.00 L111.03,24.22 L115.27,24.87 L119.35,25.92 L123.27,27.35 L127.00,29.15 L130.52,31.29 L133.81,33.74 L136.84,36.50 L139.59,39.53 L142.05,42.81 L144.18,46.33 L145.98,50.06 L147.42,53.98 L148.47,58.07 L149.11,62.30 L149.33,66.67 L149.33,85.33 L166.67,85.33 L169.26,85.46 L171.77,85.85 L174.20,86.47 L176.53,87.32 L178.74,88.39 L180.83,89.66 L182.78,91.12 L184.58,92.75 L186.22,94.55 L187.67,96.50 L188.94,98.59 L190.01,100.81 L190.86,103.13 L191.49,105.56 L191.87,108.08 L192.00,110.67 L192.00,117.33 L189.21,117.57 L186.50,118.34 L183.96,119.64 L181.65,121.47 L181.61,121.51 L181.38,121.73 L180.42,122.61 L177.04,125.56 L172.84,128.80 L169.81,130.65 L167.97,131.33 L165.56,131.98 L159.50,133.09 L154.41,133.68 L152.94,133.80 L152.58,133.82 L152.52,133.83 L149.70,134.26 L147.08,135.20 L144.72,136.60 L142.68,138.39 L141.00,140.53 L139.74,142.96 L138.94,145.63 L138.67,148.48 L138.67,177.33 L138.81,181.79 L139.23,186.09 L139.91,190.21 L140.82,194.17 L141.95,197.96 L143.27,201.58 L144.77,205.04 L146.42,208.34 L148.21,211.47 L150.11,214.44 L152.10,217.25 L154.17,219.90 L158.45,224.72 L162.79,228.90 L166.26,231.87 L169.65,234.49 L166.67,234.67 L46.67,234.67 L44.08,234.54 L41.56,234.15 L39.13,233.53 L36.81,232.68 L34.59,231.61 L32.50,230.34 L30.55,228.88 L28.75,227.25 L27.12,225.45 L25.66,223.50 L24.39,221.41 L23.32,219.19 L22.47,216.87 L21.85,214.44 L21.46,211.92 L21.33,209.33 L21.33,110.67 L21.46,108.08 L21.85,105.56 L22.47,103.13 L23.32,100.81 L24.39,98.59 L25.66,96.50 L27.12,94.55 L28.75,92.75 L30.55,91.12 L32.50,89.66 L34.59,88.39 L36.81,87.32 L39.13,86.47 L41.56,85.85 L44.08,85.46 L46.67,85.33 L64.00,85.33 Z" fill="#0078d4" stroke="#1e1e1e" stroke-width="1" stroke-linejoin="round"/><path d="M136.00,66.67 L135.85,63.67 L135.40,60.75 L134.68,57.94 L133.69,55.25 L132.46,52.68 L130.99,50.27 L129.30,48.01 L127.41,45.92 L125.33,44.03 L123.07,42.34 L120.65,40.87 L118.08,39.64 L115.39,38.65 L112.58,37.93 L109.67,37.48 L106.67,37.33 L103.67,37.48 L100.75,37.93 L97.94,38.65 L95.25,39.64 L92.68,40.87 L90.27,42.34 L88.01,44.03 L85.92,45.92 L84.03,48.01 L82.34,50.27 L80.87,52.68 L79.64,55.25 L78.65,57.94 L77.93,60.75 L77.48,63.67 L77.33,66.67 L77.33,85.33 L136.00,85.33 L136.00,66.67 Z" fill="#ffffff" stroke="#1e1e1e" stroke-width="1" stroke-linejoin="round"/><path d="M106.67,176.00 L108.30,175.92 L109.89,175.67 L112.89,174.74 L115.61,173.27 L117.98,171.31 L119.93,168.95 L121.41,166.23 L122.34,163.22 L122.58,161.64 L122.67,160.00 L122.58,158.36 L122.34,156.78 L121.41,153.77 L119.93,151.05 L117.98,148.69 L115.61,146.73 L112.89,145.26 L109.89,144.33 L108.30,144.08 L106.67,144.00 L105.03,144.08 L103.44,144.33 L100.44,145.26 L97.72,146.73 L95.35,148.69 L93.40,151.05 L91.92,153.77 L90.99,156.78 L90.75,158.36 L90.67,160.00 L90.75,161.64 L90.99,163.22 L91.92,166.23 L93.40,168.95 L95.35,171.31 L97.72,173.27 L100.44,174.74 L103.44,175.67 L105.03,175.92 L106.67,176.00 Z" fill="#ffffff" stroke="#1e1e1e" stroke-width="1" stroke-linejoin="round"/><path d="M149.33,148.05 L149.33,178.67 L149.43,181.86 L149.71,184.95 L150.17,187.95 L150.80,190.85 L151.57,193.65 L152.49,196.35 L154.71,201.47 L157.37,206.21 L160.38,210.58 L163.66,214.57 L167.11,218.20 L170.65,221.46 L174.19,224.36 L177.64,226.91 L180.92,229.10 L186.59,232.45 L190.52,234.43 L191.25,234.69 L191.99,234.77 L192.74,234.69 L193.47,234.44 L197.39,232.46 L203.07,229.15 L206.35,226.98 L209.80,224.47 L213.34,221.61 L216.88,218.40 L220.34,214.84 L223.61,210.92 L226.62,206.65 L229.29,202.01 L231.51,197.01 L232.43,194.38 L233.20,191.65 L233.83,188.82 L234.29,185.91 L234.57,182.90 L234.67,179.80 L234.67,148.05 L234.58,147.24 L234.35,146.48 L233.48,145.19 L232.19,144.30 L230.61,143.94 L226.17,143.70 L220.94,143.17 L215.56,142.24 L213.01,141.59 L210.66,140.80 L208.55,139.84 L206.41,138.61 L202.17,135.62 L198.28,132.36 L195.06,129.36 L194.39,128.82 L193.63,128.44 L192.00,128.13 L190.37,128.44 L189.61,128.82 L188.93,129.36 L185.72,132.36 L181.82,135.62 L177.58,138.61 L175.44,139.84 L173.33,140.80 L170.98,141.59 L168.43,142.25 L163.06,143.18 L157.83,143.70 L153.39,143.94 L151.81,144.30 L150.52,145.19 L149.65,146.48 L149.42,147.24 L149.33,148.05 Z" fill="#8dc8e8" stroke="#1e1e1e" stroke-width="1" stroke-linejoin="round"/></svg>