<svg xmlns="http://www.w3.org/2000/svg" viewBox="15.14 4.86 79.43 100.00"><path d="M34.29,27.43 L34.29,34.29 L29.14,34.29 L27.92,34.35 L26.72,34.53 L25.57,34.83 L24.47,35.23 L23.42,35.73 L22.43,36.34 L21.51,37.03 L20.66,37.80 L19.88,38.65 L19.19,39.58 L18.59,40.57 L18.09,41.61 L17.68,42.72 L17.39,43.87 L17.20,45.06 L17.14,46.29 L17.14,90.86 L17.20,92.08 L17.39,93.28 L17.68,94.43 L18.09,95.53 L18.59,96.58 L19.19,97.57 L19.88,98.49 L20.66,99.34 L21.51,100.12 L22.43,100.81 L23.42,101.41 L24.47,101.91 L25.57,102.32 L26.72,102.61 L27.92,102.80 L29.14,102.86 L80.57,102.86 L81.80,102.80 L82.99,102.61 L84.14,102.32 L85.24,101.91 L86.29,101.41 L87.28,100.81 L88.20,100.12 L89.06,99.34 L89.83,98.49 L90.52,97.57 L91.12,96.58 L91.63,95.53 L92.03,94.43 L92.33,93.28 L92.51,92.08 L92.57,90.86 L92.57,46.29 L92.51,45.06 L92.33,43.87 L92.03,42.72 L91.63,41.61 L91.12,40.57 L90.52,39.58 L89.83,38.65 L89.06,37.80 L88.20,37.03 L87.28,36.34 L86.29,35.73 L85.24,35.23 L84.14,34.83 L82.99,34.53 L81.80,34.35 L80.57,34.29 L75.43,34.29 L75.43,27.43 L75.32,25.33 L75.01,23.28 L74.50,21.31 L73.81,19.42 L72.95,17.62 L71.92,15.93 L70.73,14.34 L69.40,12.88 L67.94,11.55 L66.36,10.37 L64.66,9.34 L62.86,8.47 L60.97,7.78 L59.00,7.28 L56.96,6.96 L54.86,6.86 L52.75,6.96 L50.71,7.28 L48.74,7.78 L46.85,8.47 L45.05,9.34 L43.36,10.37 L41.77,11.55 L40.31,12.88 L38.98,14.34 L37.80,15.93 L36.77,17.62 L35.90,19.42 L35.21,21.31 L34.70,23.28 L34.39,25.33 L34.29,27.43 Z" fill="#0078d4" stroke="#0078d4" stroke-width="1" stroke-linejoin="round"/><path d="M54.86,13.71 L56.26,13.79 L57.62,13.99 L58.94,14.33 L60.20,14.79 L61.39,15.37 L62.52,16.06 L63.58,16.85 L64.55,17.73 L65.44,18.71 L66.23,19.76 L66.92,20.89 L67.49,22.09 L67.95,23.35 L68.29,24.66 L68.50,26.03 L68.57,27.43 L68.57,34.29 L41.14,34.29 L41.14,27.43 L41.21,26.03 L41.42,24.66 L41.76,23.35 L42.22,22.09 L42.80,20.89 L43.49,19.76 L44.27,18.71 L45.16,17.73 L46.13,16.85 L47.19,16.06 L48.32,15.37 L49.52,14.79 L50.78,14.33 L52.09,13.99 L53.45,13.79 L54.86,13.71 Z" fill="#ffffff" stroke="#ffffff" stroke-width="1" stroke-linejoin="round"/><path d="M54.86,75.43 L54.16,75.39 L53.48,75.29 L52.19,74.89 L51.02,74.26 L50.01,73.42 L49.17,72.41 L48.54,71.24 L48.14,69.95 L48.04,69.27 L48.00,68.57 L48.04,67.87 L48.14,67.19 L48.54,65.90 L49.17,64.74 L50.01,63.72 L51.02,62.89 L52.19,62.25 L53.48,61.85 L54.16,61.75 L54.86,61.71 L55.56,61.75 L56.24,61.85 L57.53,62.25 L58.69,62.89 L59.71,63.72 L60.54,64.74 L61.18,65.90 L61.57,67.19 L61.68,67.87 L61.71,68.57 L61.68,69.27 L61.57,69.95 L61.18,71.24 L60.54,72.41 L59.71,73.42 L58.69,74.26 L57.53,74.89 L56.24,75.29 L55.56,75.39 L54.86,75.43 Z" fill="#ffffff" stroke="#ffffff" stroke-width="1" stroke-linejoin="round"/></svg>