<svg xmlns="http://www.w3.org/2000/svg" viewBox="7.60 8.80 100.00 98.85"><path d="M28.80,38.40 L28.80,30.00 L28.90,28.04 L29.19,26.13 L29.66,24.29 L30.31,22.53 L31.12,20.85 L32.08,19.27 L33.18,17.79 L34.42,16.42 L35.79,15.18 L37.27,14.08 L38.85,13.12 L40.53,12.31 L42.29,11.66 L44.13,11.19 L46.04,10.90 L48.00,10.80 L49.96,10.90 L51.87,11.19 L53.71,11.66 L55.47,12.31 L57.15,13.12 L58.73,14.08 L60.21,15.18 L61.58,16.42 L62.82,17.79 L63.92,19.27 L64.88,20.85 L65.69,22.53 L66.34,24.29 L66.81,26.13 L67.10,28.04 L67.20,30.00 L67.20,38.40 L75.00,38.40 L76.17,38.46 L77.30,38.63 L78.39,38.91 L79.44,39.30 L80.43,39.78 L81.37,40.35 L82.25,41.00 L83.06,41.74 L83.80,42.55 L84.45,43.43 L85.02,44.37 L85.50,45.36 L85.89,46.41 L86.17,47.50 L86.34,48.63 L86.40,49.80 L86.40,52.80 L85.15,52.91 L83.93,53.25 L82.78,53.84 L81.74,54.66 L81.72,54.68 L81.62,54.78 L81.19,55.18 L79.67,56.50 L77.78,57.96 L76.42,58.79 L75.59,59.10 L74.50,59.39 L71.78,59.89 L69.49,60.16 L68.82,60.21 L68.66,60.22 L68.63,60.22 L67.36,60.42 L66.19,60.84 L65.13,61.47 L64.21,62.28 L63.45,63.24 L62.88,64.33 L62.52,65.53 L62.40,66.81 L62.40,79.80 L62.47,81.81 L62.65,83.74 L62.96,85.59 L63.37,87.38 L63.88,89.08 L64.47,90.71 L65.15,92.27 L65.89,93.75 L66.69,95.16 L67.55,96.50 L68.45,97.76 L69.38,98.95 L71.30,101.12 L73.25,103.01 L74.82,104.34 L76.34,105.52 L75.00,105.60 L21.00,105.60 L19.83,105.54 L18.70,105.37 L17.61,105.09 L16.56,104.70 L15.57,104.22 L14.63,103.65 L13.75,103.00 L12.94,102.26 L12.20,101.45 L11.55,100.57 L10.98,99.63 L10.50,98.64 L10.11,97.59 L9.83,96.50 L9.66,95.37 L9.60,94.20 L9.60,49.80 L9.66,48.63 L9.83,47.50 L10.11,46.41 L10.50,45.36 L10.98,44.37 L11.55,43.43 L12.20,42.55 L12.94,41.74 L13.75,41.00 L14.63,40.35 L15.57,39.78 L16.56,39.30 L17.61,38.91 L18.70,38.63 L19.83,38.46 L21.00,38.40 L28.80,38.40 Z" fill="#0078d4" stroke="#0078d4" stroke-width="1" stroke-linejoin="round"/><path d="M61.20,30.00 L61.13,28.65 L60.93,27.34 L60.61,26.07 L60.16,24.86 L59.61,23.71 L58.95,22.62 L58.19,21.60 L57.33,20.67 L56.40,19.81 L55.38,19.05 L54.29,18.39 L53.14,17.84 L51.93,17.39 L50.66,17.07 L49.35,16.87 L48.00,16.80 L46.65,16.87 L45.34,17.07 L44.07,17.39 L42.86,17.84 L41.71,18.39 L40.62,19.05 L39.60,19.81 L38.67,20.67 L37.81,21.60 L37.05,22.62 L36.39,23.71 L35.84,24.86 L35.39,26.07 L35.07,27.34 L34.87,28.65 L34.80,30.00 L34.80,38.40 L61.20,38.40 L61.20,30.00 Z" fill="#ffffff" stroke="#ffffff" stroke-width="1" stroke-linejoin="round"/><path d="M48.00,79.20 L48.74,79.16 L49.45,79.05 L50.80,78.63 L52.03,77.97 L53.09,77.09 L53.97,76.03 L54.63,74.80 L55.05,73.45 L55.16,72.74 L55.20,72.00 L55.16,71.26 L55.05,70.55 L54.63,69.20 L53.97,67.97 L53.09,66.91 L52.03,66.03 L50.80,65.37 L49.45,64.95 L48.74,64.84 L48.00,64.80 L47.26,64.84 L46.55,64.95 L45.20,65.37 L43.97,66.03 L42.91,66.91 L42.03,67.97 L41.37,69.20 L40.95,70.55 L40.84,71.26 L40.80,72.00 L40.84,72.74 L40.95,73.45 L41.37,74.80 L42.03,76.03 L42.91,77.09 L43.97,77.97 L45.20,78.63 L46.55,79.05 L47.26,79.16 L48.00,79.20 Z" fill="#ffffff" stroke="#ffffff" stroke-width="1" stroke-linejoin="round"/><path d="M67.20,66.62 L67.20,80.40 L67.24,81.84 L67.37,83.23 L67.58,84.58 L67.86,85.88 L68.21,87.14 L68.62,88.36 L69.62,90.66 L70.82,92.80 L72.17,94.76 L73.65,96.56 L75.20,98.19 L76.79,99.66 L78.38,100.96 L79.94,102.11 L81.41,103.10 L83.97,104.60 L85.73,105.50 L86.06,105.61 L86.40,105.65 L86.73,105.61 L87.06,105.50 L88.83,104.61 L91.38,103.12 L92.86,102.14 L94.41,101.01 L96.01,99.72 L97.60,98.28 L99.15,96.68 L100.63,94.92 L101.98,92.99 L103.18,90.91 L104.18,88.66 L104.59,87.47 L104.94,86.24 L105.22,84.97 L105.43,83.66 L105.56,82.31 L105.60,80.91 L105.60,66.62 L105.56,66.26 L105.46,65.92 L105.06,65.33 L104.48,64.94 L103.78,64.77 L101.77,64.67 L99.42,64.43 L97.00,64.01 L95.86,63.72 L94.80,63.36 L93.85,62.93 L92.88,62.37 L90.98,61.03 L89.23,59.56 L87.78,58.21 L87.47,57.97 L87.13,57.80 L86.40,57.66 L85.66,57.80 L85.33,57.97 L85.02,58.21 L83.57,59.56 L81.82,61.03 L79.91,62.37 L78.95,62.93 L78.00,63.36 L76.94,63.72 L75.80,64.01 L73.38,64.43 L71.03,64.67 L69.02,64.77 L68.32,64.94 L67.74,65.33 L67.34,65.92 L67.24,66.26 L67.20,66.62 Z" fill="#8dc8e8" stroke="#1e1e1e" stroke-width="1" stroke-linejoin="round"/></svg>