<svg xmlns="http://www.w3.org/2000/svg" viewBox="25.43 7.14 223.38 205.14"><path d="M146.27,50.29 L146.48,46.08 L147.10,41.99 L148.12,38.05 L149.50,34.27 L151.23,30.67 L153.30,27.28 L155.66,24.12 L158.32,21.19 L161.24,18.54 L164.41,16.17 L167.80,14.11 L171.40,12.38 L175.18,10.99 L179.12,9.98 L183.21,9.36 L187.41,9.14 L191.62,9.36 L195.70,9.98 L199.65,10.99 L203.43,12.38 L207.02,14.11 L210.42,16.17 L213.58,18.54 L216.50,21.19 L219.16,24.12 L221.53,27.28 L223.59,30.67 L225.32,34.27 L226.70,38.05 L227.72,41.99 L228.34,46.08 L228.55,50.29 L228.55,73.14 L243.36,90.29 L245.62,92.99 L246.26,93.90 L246.61,94.64 L246.79,95.48 L246.81,96.32 L246.40,97.90 L245.47,99.24 L244.83,99.78 L244.07,100.19 L243.29,100.41 L242.17,100.52 L238.65,100.57 L136.17,100.57 L132.65,100.52 L131.54,100.41 L130.75,100.19 L130.00,99.78 L129.35,99.24 L128.42,97.90 L128.01,96.32 L128.03,95.48 L128.21,94.64 L128.56,93.90 L129.20,92.99 L131.46,90.29 L146.27,73.14 L146.27,50.29 Z" fill="#8dc8e8" stroke="#1e1e1e" stroke-width="1" stroke-linejoin="round"/><path d="M122.00,87.40 L120.76,89.18 L120.09,90.45 L119.51,91.93 L118.98,94.45 L118.93,96.96 L119.32,99.39 L120.14,101.71 L121.36,103.84 L122.94,105.73 L124.88,107.33 L127.13,108.57 L128.63,109.11 L130.03,109.42 L132.18,109.65 L136.01,109.71 L160.02,109.71 L160.18,112.68 L128.00,129.41 L27.43,77.11 L27.43,75.43 L27.57,72.49 L27.99,69.64 L28.68,66.88 L29.61,64.23 L30.78,61.70 L32.18,59.31 L33.78,57.06 L35.58,54.98 L37.57,53.07 L39.72,51.35 L42.03,49.84 L44.49,48.54 L47.07,47.47 L49.77,46.64 L52.57,46.06 L55.46,45.76 L57.14,45.71 L137.37,45.71 L137.16,50.29 L137.16,69.74 L124.45,84.46 L122.00,87.40 Z" fill="#0078d4" stroke="#1e1e1e" stroke-width="1" stroke-linejoin="round"/><path d="M165.08,125.59 L167.09,128.09 L169.37,130.34 L171.91,132.32 L174.67,133.99 L177.62,135.33 L180.76,136.32 L184.04,136.93 L187.45,137.14 L190.25,137.00 L192.98,136.59 L195.61,135.91 L198.13,134.99 L200.52,133.83 L202.78,132.46 L204.90,130.88 L206.84,129.11 L208.61,127.16 L210.19,125.05 L211.57,122.79 L212.72,120.39 L213.64,117.87 L214.32,115.24 L214.74,112.52 L214.88,109.71 L228.57,109.71 L228.57,180.57 L228.43,183.51 L228.01,186.36 L227.33,189.12 L226.39,191.77 L225.22,194.30 L223.82,196.69 L222.22,198.94 L220.42,201.02 L218.43,202.93 L216.28,204.65 L213.97,206.16 L211.52,207.46 L208.93,208.53 L206.24,209.36 L203.43,209.94 L200.55,210.24 L198.86,210.29 L57.14,210.29 L54.21,210.14 L51.36,209.72 L48.60,209.04 L45.95,208.10 L43.42,206.93 L41.02,205.54 L38.78,203.93 L36.70,202.13 L34.79,200.15 L33.07,197.99 L31.55,195.68 L30.25,193.23 L29.18,190.65 L28.35,187.95 L27.78,185.15 L27.48,182.26 L27.43,180.57 L27.43,92.56 L124.84,143.23 L126.38,143.81 L128.00,144.00 L129.62,143.81 L131.17,143.23 L165.08,125.59 Z" fill="#0078d4" stroke="#1e1e1e" stroke-width="1" stroke-linejoin="round"/><path d="M187.41,128.00 L189.28,127.91 L191.10,127.63 L192.85,127.18 L194.53,126.56 L196.13,125.79 L197.64,124.88 L199.04,123.82 L200.34,122.64 L201.52,121.35 L202.57,119.94 L203.49,118.43 L204.26,116.83 L204.88,115.15 L205.33,113.40 L205.60,111.58 L205.70,109.71 L169.13,109.71 L169.22,111.58 L169.50,113.40 L169.95,115.15 L170.56,116.83 L171.33,118.43 L172.25,119.94 L173.30,121.35 L174.48,122.64 L175.78,123.82 L177.19,124.88 L178.70,125.79 L180.29,126.56 L181.97,127.18 L183.73,127.63 L185.54,127.91 L187.41,128.00 Z" fill="#8dc8e8" stroke="#1e1e1e" stroke-width="1" stroke-linejoin="round"/></svg>