<svg xmlns="http://www.w3.org/2000/svg" viewBox="19.33 8.67 228.00 206.67"><path d="M122.65,42.67 L56.00,42.67 L54.02,42.72 L50.86,43.05 L47.79,43.64 L44.82,44.51 L41.97,45.62 L39.25,46.97 L36.67,48.55 L34.25,50.34 L31.99,52.32 L29.92,54.50 L28.03,56.85 L26.35,59.35 L24.90,62.01 L23.67,64.80 L22.69,67.71 L21.96,70.73 L21.51,73.85 L128.00,129.64 L141.95,122.33 L139.20,119.87 L136.57,117.27 L134.09,114.53 L131.75,111.67 L129.57,108.68 L127.55,105.57 L125.69,102.35 L124.00,99.03 L122.48,95.61 L121.15,92.09 L120.01,88.48 L119.06,84.79 L118.32,81.03 L117.77,77.19 L117.44,73.29 L117.33,69.33 L117.42,65.81 L117.68,62.33 L118.11,58.91 L118.71,55.53 L119.46,52.22 L120.37,48.97 L121.44,45.78 L122.65,42.67 Z" fill="#0078d4" stroke="#1e1e1e" stroke-width="1" stroke-linejoin="round"/><path d="M186.67,138.67 L190.14,138.58 L193.57,138.33 L196.95,137.91 L200.27,137.33 L203.55,136.60 L206.76,135.71 L212.98,133.50 L218.92,130.73 L224.53,127.42 L229.79,123.63 L234.67,119.36 L234.67,178.67 L234.50,182.09 L234.01,185.42 L233.21,188.64 L232.12,191.73 L230.75,194.68 L229.13,197.47 L227.25,200.09 L225.15,202.52 L222.84,204.75 L220.32,206.75 L217.63,208.52 L214.77,210.04 L211.75,211.29 L208.61,212.26 L205.34,212.93 L201.97,213.28 L200.00,213.33 L56.00,213.33 L52.58,213.17 L49.25,212.68 L46.03,211.88 L42.94,210.79 L39.99,209.42 L37.19,207.79 L34.57,205.92 L32.14,203.82 L29.92,201.50 L27.91,198.99 L26.14,196.30 L24.63,193.43 L23.38,190.42 L22.41,187.27 L21.74,184.01 L21.39,180.63 L21.33,178.67 L21.33,91.82 L124.29,145.75 L126.10,146.44 L128.00,146.67 L129.90,146.44 L131.71,145.75 L157.49,132.25 L160.86,133.71 L164.33,134.99 L167.87,136.09 L171.50,137.00 L175.19,137.72 L178.96,138.24 L182.78,138.56 L186.67,138.67 Z" fill="#0078d4" stroke="#1e1e1e" stroke-width="1" stroke-linejoin="round"/><path d="M186.67,128.00 L192.66,127.70 L198.49,126.81 L204.11,125.36 L209.50,123.39 L214.63,120.92 L219.47,117.98 L223.98,114.60 L228.15,110.82 L231.94,106.65 L235.31,102.13 L238.25,97.30 L240.72,92.17 L242.70,86.78 L244.14,81.16 L245.03,75.33 L245.33,69.33 L245.03,63.34 L244.14,57.51 L242.70,51.89 L240.72,46.50 L238.25,41.37 L235.31,36.53 L231.94,32.02 L228.15,27.85 L223.98,24.06 L219.47,20.69 L214.63,17.75 L209.50,15.28 L204.11,13.30 L198.49,11.86 L192.66,10.97 L186.67,10.67 L180.67,10.97 L174.84,11.86 L169.22,13.30 L163.83,15.28 L158.70,17.75 L153.87,20.69 L149.35,24.06 L145.18,27.85 L141.40,32.02 L138.02,36.53 L135.08,41.37 L132.61,46.50 L130.64,51.89 L129.19,57.51 L128.30,63.34 L128.00,69.33 L128.30,75.33 L129.19,81.16 L130.64,86.78 L132.61,92.17 L135.08,97.30 L138.02,102.13 L141.40,106.65 L145.18,110.82 L149.35,114.60 L153.87,117.98 L158.70,120.92 L163.83,123.39 L169.22,125.36 L174.84,126.81 L180.67,127.70 L186.67,128.00 Z" fill="#8dc8e8" stroke="#8dc8e8" stroke-width="1" stroke-linejoin="round"/><path d="M186.67,32.00 L185.59,32.11 L184.59,32.42 L183.68,32.91 L182.90,33.56 L182.24,34.35 L181.75,35.26 L181.44,36.26 L181.33,37.33 L181.33,80.00 L181.44,81.07 L181.75,82.08 L182.24,82.98 L182.90,83.77 L183.68,84.42 L184.59,84.91 L185.59,85.22 L186.67,85.33 L187.74,85.22 L188.74,84.91 L189.65,84.42 L190.44,83.77 L191.09,82.98 L191.58,82.08 L191.89,81.07 L192.00,80.00 L192.00,37.33 L191.89,36.26 L191.58,35.26 L191.09,34.35 L190.44,33.56 L189.65,32.91 L188.74,32.42 L187.74,32.11 L186.67,32.00 Z" fill="#ffffff" stroke="#ffffff" stroke-width="1" stroke-linejoin="round"/><path d="M193.33,101.33 L193.20,102.68 L192.81,103.93 L192.19,105.06 L191.38,106.05 L190.39,106.86 L189.26,107.48 L188.01,107.86 L186.67,108.00 L185.32,107.86 L184.07,107.48 L182.94,106.86 L181.95,106.05 L181.14,105.06 L180.52,103.93 L180.14,102.68 L180.00,101.33 L180.14,99.99 L180.52,98.74 L181.14,97.61 L181.95,96.62 L182.94,95.81 L184.07,95.19 L185.32,94.80 L186.67,94.67 L188.01,94.80 L189.26,95.19 L190.39,95.81 L191.38,96.62 L192.19,97.61 L192.81,98.74 L193.20,99.99 L193.33,101.33 Z" fill="#ffffff" stroke="#ffffff" stroke-width="1" stroke-linejoin="round"/></svg>