<svg xmlns="http://www.w3.org/2000/svg" viewBox="30.00 30.00 196.00 180.00"><path d="M32.27,99.06 L124.60,153.74 L126.25,154.43 L128.00,154.67 L129.75,154.43 L131.40,153.74 L223.73,99.06 L224.00,102.93 L224.00,185.33 L223.88,187.65 L223.54,189.90 L222.98,192.07 L222.22,194.16 L221.26,196.14 L220.13,198.01 L218.82,199.75 L217.36,201.36 L215.75,202.82 L214.01,204.13 L212.14,205.26 L210.16,206.22 L208.07,206.98 L205.90,207.54 L203.65,207.88 L201.33,208.00 L54.67,208.00 L52.35,207.88 L50.10,207.54 L47.93,206.98 L45.84,206.22 L43.86,205.26 L41.99,204.13 L40.25,202.82 L38.64,201.36 L37.18,199.75 L35.87,198.01 L34.74,196.14 L33.78,194.16 L33.02,192.07 L32.46,189.90 L32.12,187.65 L32.00,185.33 L32.00,102.93 L32.27,99.06 Z" fill="#0078d4" stroke="#1e1e1e" stroke-width="1" stroke-linejoin="round"/><path d="M131.35,32.91 L210.09,78.73 L212.57,80.36 L214.84,82.22 L216.89,84.29 L218.70,86.54 L128.00,140.25 L37.30,86.54 L39.11,84.29 L41.16,82.22 L43.43,80.36 L45.91,78.73 L124.65,32.91 L126.28,32.23 L128.00,32.00 L129.72,32.23 L131.35,32.91 Z" fill="#0078d4" stroke="#1e1e1e" stroke-width="1" stroke-linejoin="round"/></svg>