<svg xmlns="http://www.w3.org/2000/svg" viewBox="25.43 16.22 223.43 196.00"><path d="M186.58,137.76 L228.51,95.76 L228.51,180.51 L228.37,183.45 L227.95,186.30 L227.26,189.06 L226.33,191.70 L225.16,194.23 L223.76,196.63 L222.16,198.87 L220.36,200.95 L218.37,202.86 L216.22,204.58 L213.91,206.09 L211.46,207.39 L208.88,208.46 L206.18,209.29 L203.38,209.86 L200.49,210.17 L198.80,210.21 L57.13,210.21 L54.20,210.07 L51.35,209.65 L48.59,208.97 L45.94,208.03 L43.41,206.86 L41.02,205.47 L38.78,203.86 L36.69,202.06 L34.79,200.08 L33.07,197.93 L31.55,195.62 L30.25,193.16 L29.18,190.58 L28.35,187.89 L27.78,185.09 L27.48,182.20 L27.43,180.51 L27.43,92.53 L124.81,143.18 L126.35,143.76 L127.97,143.95 L129.59,143.76 L131.13,143.18 L144.25,136.36 L145.57,137.77 L147.78,139.76 L150.12,141.48 L152.59,142.94 L155.17,144.13 L157.82,145.06 L160.54,145.72 L163.30,146.12 L166.08,146.25 L168.86,146.12 L171.62,145.72 L174.34,145.06 L176.99,144.13 L179.57,142.93 L182.04,141.47 L184.38,139.75 L186.58,137.76 Z" fill="#0078d4" stroke="#1e1e1e" stroke-width="1" stroke-linejoin="round"/><path d="M57.13,45.70 L160.19,45.70 L132.65,73.24 L131.55,74.45 L130.60,75.75 L129.14,78.53 L128.26,81.49 L127.97,84.55 L128.26,87.60 L129.14,90.57 L130.60,93.35 L131.55,94.64 L132.65,95.86 L134.83,97.68 L137.23,99.06 L139.79,99.99 L142.44,100.47 L140.74,103.17 L139.36,106.00 L138.30,108.93 L137.57,111.94 L137.17,115.01 L137.09,118.09 L137.34,121.16 L137.92,124.20 L127.97,129.37 L27.43,77.09 L27.43,75.41 L27.57,72.47 L27.99,69.62 L28.68,66.86 L29.61,64.21 L30.78,61.69 L32.18,59.29 L33.78,57.05 L35.58,54.97 L37.56,53.06 L39.72,51.34 L42.03,49.83 L44.48,48.53 L47.06,47.46 L49.76,46.63 L52.56,46.05 L55.45,45.75 L57.13,45.70 Z" fill="#0078d4" stroke="#1e1e1e" stroke-width="1" stroke-linejoin="round"/><path d="M200.72,37.49 L202.17,36.18 L203.70,35.05 L205.32,34.10 L207.01,33.32 L208.75,32.71 L210.53,32.27 L212.33,32.01 L214.16,31.92 L215.98,32.01 L217.78,32.27 L219.56,32.71 L221.30,33.32 L222.99,34.10 L224.61,35.05 L226.14,36.18 L227.59,37.49 L228.89,38.93 L230.02,40.47 L230.98,42.08 L231.76,43.77 L232.37,45.51 L232.80,47.29 L233.06,49.10 L233.15,50.92 L233.06,52.74 L232.80,54.54 L232.37,56.32 L231.76,58.06 L230.98,59.75 L230.02,61.37 L228.89,62.91 L227.59,64.35 L170.42,121.61 L169.46,122.40 L168.39,122.96 L167.25,123.30 L166.08,123.41 L164.90,123.30 L163.77,122.96 L162.70,122.40 L161.74,121.61 L160.95,120.65 L160.39,119.58 L160.05,118.44 L159.94,117.27 L160.05,116.10 L160.39,114.96 L160.95,113.89 L161.73,112.93 L208.22,66.55 L209.10,65.48 L209.72,64.28 L210.10,63.02 L210.23,61.71 L210.11,60.40 L209.73,59.13 L209.10,57.93 L208.23,56.86 L207.15,55.98 L205.96,55.35 L204.69,54.97 L203.38,54.84 L202.07,54.97 L200.80,55.34 L199.61,55.97 L198.53,56.85 L152.05,103.23 L150.68,104.73 L149.50,106.34 L148.50,108.03 L147.68,109.79 L147.05,111.61 L146.59,113.47 L146.32,115.36 L146.23,117.27 L146.32,119.17 L146.59,121.06 L147.05,122.92 L147.68,124.74 L148.50,126.50 L149.50,128.19 L150.68,129.80 L152.04,131.30 L153.55,132.67 L155.16,133.85 L156.85,134.85 L158.61,135.66 L160.43,136.30 L162.29,136.75 L164.17,137.03 L166.08,137.12 L167.98,137.03 L169.87,136.75 L171.73,136.30 L173.55,135.66 L175.31,134.85 L177.00,133.85 L178.61,132.67 L180.11,131.30 L237.28,74.04 L239.52,71.56 L241.47,68.91 L243.12,66.13 L244.46,63.22 L245.51,60.23 L246.26,57.16 L246.71,54.05 L246.86,50.92 L246.71,47.78 L246.26,44.67 L245.51,41.61 L244.46,38.61 L243.12,35.71 L241.47,32.92 L239.53,30.28 L237.28,27.79 L234.80,25.55 L232.15,23.60 L229.36,21.96 L226.46,20.61 L223.47,19.56 L220.40,18.81 L217.29,18.36 L214.16,18.22 L211.02,18.36 L207.91,18.81 L204.84,19.56 L201.85,20.61 L198.95,21.96 L196.16,23.60 L193.51,25.55 L191.03,27.79 L139.12,79.70 L138.24,80.78 L137.61,81.97 L137.24,83.24 L137.11,84.55 L137.24,85.86 L137.61,87.13 L138.24,88.32 L139.12,89.39 L140.19,90.27 L141.39,90.90 L142.66,91.28 L143.97,91.40 L145.28,91.28 L146.55,90.90 L147.74,90.27 L148.81,89.39 L200.72,37.49 Z" fill="#8dc8e8" stroke="#1e1e1e" stroke-width="1" stroke-linejoin="round"/></svg>