<svg xmlns="http://www.w3.org/2000/svg" viewBox="10.63 20.74 100.00 79.79"><path d="M108.63,42.89 L108.63,85.26 L108.56,86.62 L108.36,87.94 L108.03,89.21 L107.59,90.43 L107.03,91.58 L106.37,92.68 L105.60,93.70 L104.75,94.64 L103.80,95.50 L102.78,96.26 L101.69,96.92 L100.53,97.48 L99.31,97.93 L98.04,98.26 L96.72,98.46 L95.37,98.53 L25.89,98.53 L24.54,98.46 L23.22,98.26 L21.95,97.93 L20.73,97.48 L19.57,96.92 L18.48,96.26 L17.46,95.50 L16.52,94.64 L15.66,93.70 L14.90,92.68 L14.23,91.58 L13.67,90.43 L13.23,89.21 L12.90,87.94 L12.70,86.62 L12.63,85.26 L12.63,42.89 L59.11,68.45 L59.85,68.74 L60.63,68.84 L61.41,68.74 L62.15,68.45 L108.63,42.89 Z" fill="#0078d4" stroke="#1e1e1e" stroke-width="1" stroke-linejoin="round"/><path d="M95.37,22.74 L96.70,22.80 L98.00,23.00 L99.26,23.32 L100.46,23.75 L101.61,24.29 L102.69,24.94 L103.70,25.68 L104.64,26.52 L105.50,27.44 L106.26,28.43 L106.93,29.50 L107.50,30.63 L107.96,31.82 L108.30,33.06 L108.53,34.35 L108.63,35.68 L60.63,62.08 L12.64,35.68 L12.64,35.45 L12.76,34.14 L13.00,32.88 L13.36,31.65 L13.83,30.48 L14.40,29.37 L15.08,28.32 L15.84,27.34 L16.70,26.44 L17.63,25.62 L18.64,24.90 L19.71,24.26 L20.85,23.73 L22.04,23.30 L23.29,22.99 L24.57,22.80 L25.89,22.74 L95.37,22.74 Z" fill="#0078d4" stroke="#1e1e1e" stroke-width="1" stroke-linejoin="round"/></svg>