<svg xmlns="http://www.w3.org/2000/svg" viewBox="10.00 5.97 100.00 88.00"><path d="M81.63,60.27 L99.97,41.90 L99.97,78.97 L99.91,80.26 L99.73,81.51 L99.43,82.71 L99.02,83.87 L98.51,84.98 L97.90,86.02 L97.19,87.01 L96.41,87.92 L95.54,88.75 L94.60,89.50 L93.59,90.17 L92.51,90.73 L91.38,91.20 L90.20,91.57 L88.98,91.82 L87.71,91.95 L86.98,91.97 L25.00,91.97 L23.71,91.91 L22.46,91.72 L21.26,91.42 L20.10,91.01 L18.99,90.50 L17.95,89.89 L16.96,89.19 L16.05,88.40 L15.22,87.53 L14.47,86.59 L13.80,85.58 L13.24,84.51 L12.77,83.38 L12.40,82.20 L12.15,80.98 L12.02,79.71 L12.00,78.97 L12.00,40.48 L54.60,62.64 L55.28,62.90 L55.99,62.98 L56.69,62.90 L57.37,62.64 L63.11,59.66 L63.69,60.27 L64.65,61.14 L65.68,61.90 L66.76,62.54 L67.89,63.06 L69.05,63.46 L70.24,63.75 L71.44,63.93 L72.66,63.99 L73.88,63.93 L75.08,63.75 L76.27,63.46 L77.43,63.05 L78.56,62.53 L79.64,61.89 L80.67,61.14 L81.63,60.27 Z" fill="#0078d4" stroke="#1e1e1e" stroke-width="1" stroke-linejoin="round"/><path d="M25.00,20.00 L70.08,20.00 L58.04,32.04 L57.56,32.57 L57.14,33.14 L56.50,34.36 L56.11,35.65 L55.99,36.99 L56.11,38.33 L56.50,39.62 L57.14,40.84 L57.55,41.41 L58.04,41.94 L58.99,42.74 L60.04,43.34 L61.16,43.75 L62.32,43.96 L61.57,45.14 L60.97,46.37 L60.51,47.66 L60.19,48.98 L60.01,50.31 L59.98,51.66 L60.09,53.01 L60.34,54.34 L55.99,56.60 L12.00,33.73 L12.00,32.99 L12.06,31.71 L12.25,30.46 L12.55,29.25 L12.95,28.09 L13.47,26.99 L14.08,25.94 L14.78,24.96 L15.57,24.05 L16.43,23.21 L17.38,22.46 L18.39,21.80 L19.46,21.23 L20.59,20.76 L21.77,20.40 L23.00,20.15 L24.26,20.02 L25.00,20.00 Z" fill="#0078d4" stroke="#1e1e1e" stroke-width="1" stroke-linejoin="round"/><path d="M87.82,16.40 L88.45,15.83 L89.12,15.34 L89.83,14.92 L90.57,14.58 L91.33,14.31 L92.11,14.12 L92.90,14.00 L93.69,13.97 L94.49,14.00 L95.28,14.12 L96.06,14.31 L96.82,14.58 L97.56,14.92 L98.27,15.34 L98.94,15.83 L99.57,16.40 L100.14,17.03 L100.63,17.70 L101.05,18.41 L101.39,19.15 L101.66,19.91 L101.85,20.69 L101.96,21.48 L102.00,22.28 L101.96,23.07 L101.85,23.86 L101.66,24.64 L101.39,25.40 L101.05,26.14 L100.63,26.85 L100.14,27.52 L99.57,28.15 L74.56,53.20 L74.14,53.55 L73.67,53.79 L73.17,53.94 L72.66,53.99 L72.15,53.94 L71.65,53.79 L71.18,53.55 L70.76,53.20 L70.41,52.78 L70.17,52.32 L70.02,51.82 L69.97,51.31 L70.02,50.79 L70.17,50.29 L70.41,49.83 L70.76,49.41 L91.09,29.12 L91.48,28.65 L91.75,28.12 L91.92,27.57 L91.98,27.00 L91.92,26.42 L91.76,25.87 L91.48,25.35 L91.10,24.87 L90.63,24.49 L90.11,24.22 L89.55,24.05 L88.98,23.99 L88.41,24.05 L87.85,24.21 L87.33,24.49 L86.86,24.87 L66.52,45.16 L65.92,45.82 L65.41,46.52 L64.97,47.26 L64.61,48.03 L64.33,48.83 L64.13,49.64 L64.02,50.47 L63.98,51.30 L64.01,52.14 L64.13,52.96 L64.33,53.78 L64.61,54.57 L64.97,55.34 L65.41,56.08 L65.92,56.79 L66.52,57.45 L67.18,58.04 L67.88,58.56 L68.62,59.00 L69.39,59.35 L70.19,59.63 L71.00,59.83 L71.83,59.95 L72.66,59.99 L73.49,59.95 L74.32,59.83 L75.13,59.63 L75.93,59.35 L76.70,59.00 L77.44,58.56 L78.14,58.04 L78.80,57.45 L103.81,32.39 L104.79,31.31 L105.64,30.15 L106.36,28.93 L106.95,27.66 L107.41,26.35 L107.74,25.01 L107.93,23.65 L108.00,22.28 L107.93,20.90 L107.74,19.54 L107.41,18.20 L106.95,16.89 L106.36,15.62 L105.64,14.40 L104.79,13.25 L103.81,12.16 L102.72,11.18 L101.57,10.33 L100.35,9.61 L99.08,9.02 L97.77,8.56 L96.43,8.23 L95.06,8.03 L93.69,7.97 L92.32,8.03 L90.96,8.23 L89.62,8.56 L88.31,9.02 L87.04,9.61 L85.82,10.33 L84.66,11.18 L83.58,12.16 L60.86,34.87 L60.48,35.34 L60.21,35.86 L60.04,36.42 L59.99,36.99 L60.04,37.56 L60.21,38.12 L60.48,38.64 L60.86,39.11 L61.34,39.49 L61.86,39.77 L62.41,39.93 L62.99,39.99 L63.56,39.93 L64.11,39.77 L64.64,39.49 L65.11,39.11 L87.82,16.40 Z" fill="#8dc8e8" stroke="#1e1e1e" stroke-width="1" stroke-linejoin="round"/></svg>