<svg xmlns="http://www.w3.org/2000/svg" viewBox="10.00 2.00 100.00 92.02"><path d="M64.01,22.00 L64.10,20.16 L64.37,18.38 L64.82,16.65 L65.42,15.00 L66.18,13.42 L67.08,11.94 L68.12,10.55 L69.28,9.27 L70.56,8.11 L71.94,7.08 L73.43,6.17 L75.00,5.42 L76.66,4.81 L78.38,4.37 L80.17,4.09 L82.01,4.00 L83.85,4.09 L85.64,4.37 L87.36,4.81 L89.02,5.42 L90.59,6.17 L92.08,7.08 L93.46,8.11 L94.74,9.27 L95.90,10.55 L96.94,11.94 L97.84,13.42 L98.60,15.00 L99.21,16.65 L99.65,18.38 L99.92,20.16 L100.01,22.00 L100.01,32.01 L106.49,39.51 L107.48,40.69 L107.76,41.09 L107.92,41.42 L107.99,41.78 L108.00,42.15 L107.83,42.84 L107.42,43.43 L107.13,43.66 L106.81,43.84 L106.46,43.94 L105.97,43.99 L104.43,44.01 L59.59,44.01 L58.05,43.99 L57.56,43.94 L57.21,43.84 L56.89,43.66 L56.60,43.43 L56.19,42.84 L56.02,42.15 L56.03,41.78 L56.10,41.42 L56.26,41.09 L56.54,40.69 L57.53,39.51 L64.01,32.01 L64.01,22.00 Z" fill="#8dc8e8" stroke="#1e1e1e" stroke-width="1" stroke-linejoin="round"/><path d="M53.39,38.25 L52.85,39.03 L52.55,39.58 L52.30,40.23 L52.07,41.33 L52.04,42.43 L52.21,43.49 L52.57,44.51 L53.10,45.44 L53.80,46.27 L54.65,46.97 L55.63,47.51 L56.29,47.74 L56.90,47.88 L57.84,47.98 L59.52,48.01 L70.02,48.01 L70.09,49.31 L56.01,56.63 L12.00,33.74 L12.00,33.01 L12.07,31.72 L12.25,30.47 L12.55,29.27 L12.96,28.11 L13.47,27.00 L14.08,25.95 L14.78,24.97 L15.57,24.06 L16.44,23.22 L17.38,22.47 L18.39,21.81 L19.47,21.24 L20.60,20.77 L21.78,20.41 L23.00,20.16 L24.27,20.02 L25.01,20.00 L60.11,20.00 L60.02,22.00 L60.02,30.52 L54.46,36.96 L53.39,38.25 Z" fill="#0078d4" stroke="#1e1e1e" stroke-width="1" stroke-linejoin="round"/><path d="M72.24,54.96 L73.12,56.05 L74.12,57.04 L75.23,57.90 L76.43,58.63 L77.73,59.22 L79.10,59.65 L80.54,59.92 L82.03,60.01 L83.25,59.95 L84.45,59.77 L85.60,59.47 L86.70,59.07 L87.75,58.56 L88.74,57.96 L89.66,57.27 L90.51,56.50 L91.29,55.65 L91.98,54.72 L92.58,53.73 L93.09,52.68 L93.49,51.58 L93.79,50.43 L93.97,49.24 L94.03,48.01 L100.02,48.01 L100.02,79.02 L99.96,80.30 L99.78,81.55 L99.48,82.76 L99.07,83.92 L98.56,85.02 L97.94,86.07 L97.24,87.05 L96.45,87.97 L95.59,88.80 L94.64,89.55 L93.63,90.22 L92.56,90.78 L91.43,91.25 L90.25,91.62 L89.02,91.87 L87.76,92.00 L87.02,92.02 L25.01,92.02 L23.72,91.96 L22.47,91.77 L21.27,91.47 L20.11,91.07 L19.00,90.55 L17.95,89.94 L16.97,89.24 L16.06,88.45 L15.22,87.58 L14.47,86.64 L13.81,85.63 L13.24,84.56 L12.77,83.43 L12.41,82.25 L12.16,81.02 L12.02,79.76 L12.00,79.02 L12.00,40.50 L54.63,62.68 L55.31,62.93 L56.01,63.01 L56.72,62.93 L57.40,62.68 L72.24,54.96 Z" fill="#0078d4" stroke="#1e1e1e" stroke-width="1" stroke-linejoin="round"/><path d="M82.01,56.01 L82.83,55.97 L83.62,55.85 L84.39,55.65 L85.13,55.38 L85.82,55.05 L86.48,54.65 L87.10,54.19 L87.67,53.67 L88.19,53.10 L88.65,52.48 L89.05,51.82 L89.38,51.13 L89.65,50.39 L89.85,49.62 L89.97,48.83 L90.01,48.01 L74.01,48.01 L74.05,48.83 L74.17,49.62 L74.37,50.39 L74.64,51.13 L74.97,51.82 L75.38,52.48 L75.84,53.10 L76.35,53.67 L76.92,54.19 L77.54,54.65 L78.20,55.05 L78.90,55.38 L79.63,55.65 L80.40,55.85 L81.19,55.97 L82.01,56.01 Z" fill="#8dc8e8" stroke="#8dc8e8" stroke-width="1" stroke-linejoin="round"/></svg>