<svg xmlns="http://www.w3.org/2000/svg" viewBox="24.67 46.00 206.67 164.00"><path d="M229.33,90.54 L229.33,180.00 L229.19,182.86 L228.76,185.64 L228.07,188.33 L227.13,190.90 L225.95,193.35 L224.55,195.66 L222.94,197.81 L221.13,199.80 L219.14,201.61 L216.99,203.22 L214.68,204.62 L212.23,205.80 L209.66,206.74 L206.98,207.43 L204.20,207.86 L201.33,208.00 L54.67,208.00 L51.80,207.86 L49.02,207.43 L46.34,206.74 L43.77,205.80 L41.32,204.62 L39.01,203.22 L36.86,201.61 L34.87,199.80 L33.06,197.81 L31.45,195.66 L30.05,193.35 L28.87,190.90 L27.92,188.33 L27.23,185.64 L26.81,182.86 L26.67,180.00 L26.67,90.54 L124.79,144.51 L126.35,145.13 L128.00,145.33 L129.65,145.13 L131.21,144.51 L229.33,90.54 Z" fill="#0078d4" stroke="#1e1e1e" stroke-width="1" stroke-linejoin="round"/><path d="M201.33,48.00 L204.16,48.14 L206.90,48.55 L209.54,49.22 L212.09,50.14 L214.51,51.29 L216.79,52.65 L218.93,54.22 L220.91,55.98 L222.71,57.92 L224.33,60.02 L225.74,62.28 L226.94,64.67 L227.92,67.18 L228.65,69.80 L229.12,72.52 L229.33,75.33 L128.00,131.06 L26.68,75.33 L26.69,74.85 L26.94,72.08 L27.45,69.41 L28.20,66.82 L29.20,64.35 L30.41,62.00 L31.83,59.79 L33.45,57.73 L35.25,55.82 L37.22,54.10 L39.35,52.56 L41.62,51.22 L44.02,50.10 L46.54,49.20 L49.16,48.54 L51.87,48.14 L54.67,48.00 L201.33,48.00 Z" fill="#0078d4" stroke="#1e1e1e" stroke-width="1" stroke-linejoin="round"/></svg>