<svg xmlns="http://www.w3.org/2000/svg" viewBox="29.99 40.70 196.03 174.60"><path d="M90.67,179.44 L90.67,46.48 L35.39,85.35 L34.53,86.05 L33.45,87.28 L32.65,88.70 L32.16,90.25 L31.99,91.90 L31.99,205.31 L32.06,206.42 L32.62,208.46 L33.65,210.21 L35.05,211.61 L36.75,212.62 L38.64,213.20 L40.64,213.30 L42.65,212.87 L44.59,211.85 L90.67,179.44 Z" fill="#0078d4" stroke="#1e1e1e" stroke-width="1" stroke-linejoin="round"/><path d="M224.01,50.69 L223.94,49.58 L223.38,47.54 L222.35,45.79 L220.95,44.39 L219.25,43.38 L217.36,42.80 L215.36,42.70 L213.35,43.13 L211.41,44.15 L165.33,76.52 L165.33,209.49 L220.61,170.65 L221.47,169.95 L222.55,168.72 L223.35,167.30 L223.84,165.75 L224.01,164.10 L224.01,50.69 Z" fill="#0078d4" stroke="#1e1e1e" stroke-width="1" stroke-linejoin="round"/><path d="M106.67,46.50 L149.33,76.49 L149.33,209.47 L106.67,179.45 L106.67,46.50 Z" fill="#8dc8e8" stroke="#1e1e1e" stroke-width="1" stroke-linejoin="round"/></svg>