<svg xmlns="http://www.w3.org/2000/svg" viewBox="7.98 1.81 97.16 100.00"><path d="M66.67,15.81 L66.55,16.47 L66.56,17.12 L66.70,17.75 L66.96,18.34 L67.32,18.86 L67.78,19.31 L68.33,19.67 L68.95,19.92 L69.61,20.04 L70.27,20.03 L70.90,19.89 L71.48,19.63 L72.01,19.27 L72.46,18.81 L72.82,18.27 L73.07,17.64 L75.82,8.05 L75.94,7.38 L75.92,6.73 L75.78,6.10 L75.53,5.52 L75.17,4.99 L74.71,4.54 L74.16,4.18 L73.54,3.93 L72.87,3.81 L72.22,3.83 L71.59,3.97 L71.01,4.22 L70.48,4.58 L70.03,5.04 L69.67,5.59 L69.42,6.21 L66.67,15.81 Z" fill="#33c481" stroke="#33c481" stroke-width="1" stroke-linejoin="round"/><path d="M95.51,15.66 L95.94,15.14 L96.24,14.56 L96.42,13.94 L96.49,13.31 L96.42,12.67 L96.24,12.06 L95.94,11.48 L95.51,10.96 L94.99,10.53 L94.41,10.22 L93.79,10.04 L93.16,9.98 L92.52,10.04 L91.91,10.22 L91.33,10.53 L90.81,10.96 L80.82,20.94 L80.40,21.46 L80.09,22.04 L79.91,22.65 L79.85,23.29 L79.91,23.93 L80.09,24.54 L80.40,25.12 L80.82,25.64 L81.35,26.07 L81.92,26.37 L82.54,26.56 L83.18,26.62 L83.81,26.56 L84.43,26.37 L85.01,26.07 L85.53,25.64 L95.51,15.66 Z" fill="#33c481" stroke="#33c481" stroke-width="1" stroke-linejoin="round"/><path d="M89.83,33.28 L89.16,33.35 L88.54,33.54 L87.97,33.85 L87.48,34.25 L87.07,34.74 L86.77,35.31 L86.57,35.93 L86.50,36.60 L86.57,37.28 L86.77,37.90 L87.07,38.46 L87.48,38.96 L87.97,39.36 L88.54,39.67 L89.16,39.86 L89.83,39.93 L99.81,39.93 L100.48,39.86 L101.11,39.67 L101.67,39.36 L102.17,38.96 L102.57,38.46 L102.88,37.90 L103.07,37.28 L103.14,36.60 L103.07,35.93 L102.88,35.31 L102.57,34.74 L102.17,34.25 L101.67,33.85 L101.11,33.54 L100.48,33.35 L99.81,33.28 L89.83,33.28 Z" fill="#33c481" stroke="#33c481" stroke-width="1" stroke-linejoin="round"/><path d="M71.84,74.59 L87.64,66.69 L88.73,66.06 L89.70,65.32 L90.56,64.49 L91.29,63.58 L91.91,62.60 L92.41,61.56 L92.78,60.48 L93.03,59.36 L93.15,58.22 L93.14,57.07 L93.00,55.93 L92.72,54.80 L92.31,53.70 L91.76,52.65 L91.07,51.64 L90.24,50.70 L55.77,16.23 L54.83,15.40 L53.82,14.71 L52.76,14.16 L51.67,13.75 L50.54,13.47 L49.40,13.33 L48.25,13.32 L47.11,13.44 L45.99,13.69 L44.91,14.06 L43.87,14.56 L42.89,15.17 L41.98,15.91 L41.15,16.77 L40.41,17.74 L39.78,18.83 L11.04,76.32 L10.44,77.79 L10.09,79.31 L9.98,80.85 L10.11,82.38 L10.47,83.87 L11.06,85.30 L11.88,86.63 L12.91,87.84 L18.63,93.56 L19.84,94.59 L21.17,95.41 L22.60,95.99 L24.09,96.36 L25.62,96.48 L27.16,96.38 L28.68,96.03 L30.15,95.43 L39.19,90.91 L39.82,91.89 L40.51,92.82 L41.26,93.71 L42.06,94.55 L42.91,95.34 L43.81,96.07 L44.75,96.75 L45.74,97.36 L46.77,97.91 L47.84,98.40 L48.94,98.82 L50.08,99.17 L51.24,99.45 L52.44,99.65 L53.66,99.77 L54.90,99.81 L56.77,99.72 L58.58,99.44 L60.34,98.99 L62.02,98.37 L63.62,97.60 L65.13,96.69 L66.54,95.63 L67.84,94.45 L69.02,93.15 L70.07,91.74 L70.99,90.24 L71.76,88.64 L72.37,86.96 L72.82,85.20 L73.10,83.38 L73.20,81.51 L73.11,79.70 L72.85,77.93 L72.42,76.23 L71.84,74.59 Z" fill="#107c41" stroke="#1e1e1e" stroke-width="1" stroke-linejoin="round"/><path d="M66.54,81.51 L66.50,80.49 L66.37,79.49 L66.15,78.52 L65.86,77.58 L45.17,87.92 L46.02,89.05 L47.00,90.07 L48.09,90.96 L49.29,91.72 L50.58,92.33 L51.96,92.78 L53.40,93.06 L54.90,93.16 L56.09,93.10 L57.24,92.92 L58.36,92.63 L59.43,92.24 L60.45,91.75 L61.41,91.17 L62.30,90.50 L63.13,89.75 L63.88,88.92 L64.55,88.02 L65.14,87.06 L65.63,86.05 L66.02,84.98 L66.31,83.86 L66.48,82.70 L66.54,81.51 Z" fill="#ffffff" stroke="#1e1e1e" stroke-width="1" stroke-linejoin="round"/></svg>