<svg xmlns="http://www.w3.org/2000/svg" viewBox="13.16 28.32 100.00 64.63"><path d="M15.16,35.37 L15.26,34.35 L15.55,33.40 L16.02,32.54 L16.64,31.80 L17.39,31.18 L18.24,30.71 L19.19,30.42 L20.21,30.32 L34.14,30.32 L36.14,30.41 L38.10,30.71 L40.02,31.19 L41.88,31.85 L43.66,32.70 L45.36,33.71 L46.95,34.89 L48.43,36.24 L63.34,51.14 L64.45,52.15 L65.65,53.03 L66.92,53.79 L68.26,54.43 L69.65,54.92 L71.08,55.29 L72.56,55.50 L74.06,55.58 L93.90,55.58 L77.27,38.96 L76.62,38.17 L76.16,37.29 L75.88,36.35 L75.79,35.39 L75.88,34.42 L76.16,33.49 L76.62,32.61 L77.27,31.82 L78.06,31.17 L78.94,30.71 L79.88,30.43 L80.84,30.34 L81.81,30.43 L82.74,30.70 L83.62,31.17 L84.41,31.81 L109.68,57.06 L110.31,57.83 L110.77,58.70 L111.06,59.64 L111.16,60.63 L111.06,61.62 L110.77,62.57 L110.31,63.44 L109.68,64.21 L84.41,89.47 L83.62,90.12 L82.74,90.58 L81.81,90.86 L80.84,90.95 L79.88,90.86 L78.94,90.58 L78.06,90.12 L77.27,89.47 L76.62,88.68 L76.16,87.80 L75.88,86.86 L75.79,85.90 L75.88,84.93 L76.16,83.99 L76.62,83.12 L77.27,82.32 L93.91,65.69 L73.86,65.69 L72.39,65.78 L70.94,66.01 L69.53,66.38 L68.16,66.88 L66.85,67.50 L65.61,68.26 L64.43,69.13 L63.34,70.12 L48.43,85.03 L46.95,86.37 L45.36,87.55 L43.66,88.57 L41.88,89.41 L40.02,90.07 L38.10,90.56 L36.14,90.85 L34.14,90.95 L20.21,90.95 L19.19,90.84 L18.24,90.55 L17.39,90.08 L16.64,89.47 L16.02,88.72 L15.55,87.86 L15.26,86.91 L15.16,85.89 L15.26,84.88 L15.55,83.93 L16.02,83.07 L16.64,82.32 L17.39,81.70 L18.24,81.24 L19.19,80.94 L20.21,80.84 L34.14,80.84 L35.14,80.79 L36.12,80.65 L37.08,80.41 L38.01,80.07 L38.90,79.65 L39.75,79.14 L40.55,78.55 L41.29,77.88 L56.19,62.98 L57.51,61.75 L58.90,60.63 L57.51,59.51 L56.19,58.28 L41.29,43.38 L40.55,42.71 L39.75,42.12 L38.90,41.61 L38.01,41.19 L37.08,40.86 L36.12,40.62 L35.14,40.47 L34.14,40.42 L20.21,40.42 L19.19,40.32 L18.24,40.02 L17.39,39.56 L16.64,38.94 L16.02,38.19 L15.55,37.34 L15.26,36.39 L15.16,35.37 Z" fill="#0078d4" stroke="#1e1e1e" stroke-width="1" stroke-linejoin="round"/></svg>