<svg xmlns="http://www.w3.org/2000/svg" viewBox="30.00 62.00 206.67 132.00"><path d="M32.00,74.67 L32.22,72.52 L32.84,70.51 L33.82,68.70 L35.12,67.12 L36.70,65.82 L38.51,64.84 L40.52,64.22 L42.67,64.00 L72.08,64.00 L76.30,64.21 L80.44,64.83 L84.49,65.84 L88.41,67.25 L92.17,69.03 L95.75,71.17 L99.12,73.66 L102.25,76.50 L133.71,107.96 L136.06,110.09 L138.59,111.96 L141.27,113.56 L144.09,114.90 L147.03,115.95 L150.07,116.71 L153.18,117.18 L156.34,117.33 L198.23,117.33 L163.13,82.25 L161.76,80.58 L160.78,78.73 L160.20,76.75 L160.00,74.71 L160.19,72.67 L160.78,70.70 L161.76,68.84 L163.12,67.17 L164.79,65.80 L166.65,64.82 L168.63,64.24 L170.66,64.04 L172.70,64.24 L174.68,64.82 L176.53,65.80 L178.21,67.16 L231.54,120.46 L232.87,122.08 L233.85,123.92 L234.46,125.91 L234.67,128.00 L234.46,130.09 L233.86,132.08 L232.87,133.92 L231.54,135.55 L178.21,188.88 L176.54,190.25 L174.68,191.22 L172.70,191.81 L170.67,192.00 L168.63,191.81 L166.65,191.22 L164.80,190.25 L163.12,188.88 L161.76,187.21 L160.78,185.35 L160.20,183.37 L160.00,181.34 L160.20,179.30 L160.78,177.32 L161.76,175.47 L163.12,173.79 L198.25,138.67 L155.92,138.67 L152.81,138.86 L149.76,139.35 L146.79,140.13 L143.90,141.18 L141.13,142.51 L138.50,144.10 L136.02,145.95 L133.71,148.04 L102.25,179.50 L99.12,182.34 L95.75,184.83 L92.17,186.97 L88.41,188.75 L84.49,190.16 L80.44,191.17 L76.30,191.79 L72.08,192.00 L42.67,192.00 L40.52,191.78 L38.51,191.16 L36.70,190.18 L35.12,188.88 L33.82,187.30 L32.84,185.49 L32.22,183.48 L32.00,181.33 L32.22,179.18 L32.84,177.18 L33.82,175.37 L35.12,173.79 L36.70,172.49 L38.51,171.50 L40.52,170.88 L42.67,170.67 L72.08,170.67 L74.19,170.56 L76.26,170.25 L78.28,169.74 L80.24,169.04 L82.12,168.15 L83.91,167.08 L85.60,165.84 L87.16,164.42 L118.63,132.95 L121.40,130.37 L124.34,128.00 L121.40,125.63 L118.63,123.05 L87.16,91.58 L85.60,90.16 L83.91,88.92 L82.12,87.85 L80.24,86.96 L78.28,86.26 L76.26,85.75 L74.19,85.44 L72.08,85.33 L42.67,85.33 L40.52,85.12 L38.51,84.50 L36.70,83.51 L35.12,82.21 L33.82,80.63 L32.84,78.82 L32.22,76.82 L32.00,74.67 Z" fill="#0078d4" stroke="#1e1e1e" stroke-width="1" stroke-linejoin="round"/></svg>