<svg xmlns="http://www.w3.org/2000/svg" viewBox="11.71 4.86 93.14 100.00"><path d="M24.86,6.86 L23.72,6.91 L22.61,7.08 L21.54,7.36 L20.52,7.73 L19.55,8.20 L18.63,8.76 L17.77,9.40 L16.98,10.12 L16.26,10.91 L15.62,11.77 L15.06,12.69 L14.59,13.66 L14.22,14.69 L13.94,15.75 L13.77,16.86 L13.71,18.00 L13.71,91.71 L13.77,92.85 L13.94,93.96 L14.22,95.03 L14.59,96.05 L15.06,97.03 L15.62,97.94 L16.26,98.80 L16.98,99.59 L17.77,100.31 L18.63,100.95 L19.55,101.51 L20.52,101.98 L21.54,102.36 L22.61,102.63 L23.72,102.80 L24.86,102.86 L81.43,102.86 L82.57,102.80 L83.67,102.63 L84.74,102.36 L85.77,101.98 L86.74,101.51 L87.66,100.95 L88.52,100.31 L89.31,99.59 L90.03,98.80 L90.67,97.94 L91.23,97.03 L91.70,96.05 L92.07,95.03 L92.35,93.96 L92.51,92.85 L92.57,91.71 L92.57,18.00 L92.51,16.86 L92.35,15.75 L92.07,14.69 L91.70,13.66 L91.23,12.69 L90.67,11.77 L90.03,10.91 L89.31,10.12 L88.52,9.40 L87.66,8.76 L86.74,8.20 L85.77,7.73 L84.74,7.36 L83.67,7.08 L82.57,6.91 L81.43,6.86 L24.86,6.86 Z" fill="#0078d4" stroke="#0078d4" stroke-width="1" stroke-linejoin="round"/><path d="M34.29,24.00 L72.00,24.00 L72.69,24.07 L73.33,24.27 L73.92,24.59 L74.42,25.00 L74.84,25.51 L75.16,26.09 L75.36,26.74 L75.43,27.43 L75.43,34.29 L75.36,34.98 L75.16,35.62 L74.84,36.20 L74.42,36.71 L73.92,37.13 L73.33,37.44 L72.69,37.64 L72.00,37.71 L34.29,37.71 L33.59,37.64 L32.95,37.44 L32.37,37.13 L31.86,36.71 L31.44,36.20 L31.13,35.62 L30.93,34.98 L30.86,34.29 L30.86,27.43 L30.93,26.74 L31.13,26.09 L31.44,25.51 L31.86,25.00 L32.37,24.59 L32.95,24.27 L33.59,24.07 L34.29,24.00 Z" fill="#ffffff" stroke="#ffffff" stroke-width="1" stroke-linejoin="round"/><path d="M96.00,27.43 L100.29,27.43 L100.80,27.48 L101.29,27.63 L101.72,27.87 L102.10,28.18 L102.42,28.56 L102.66,29.00 L102.80,29.48 L102.86,30.00 L102.86,38.57 L102.80,39.09 L102.66,39.57 L102.42,40.01 L102.10,40.39 L101.72,40.70 L101.29,40.94 L100.80,41.09 L100.29,41.14 L96.00,41.14 L96.00,27.43 Z" fill="#0078d4" stroke="#0078d4" stroke-width="1" stroke-linejoin="round"/><path d="M100.29,48.00 L96.00,48.00 L96.00,61.71 L100.29,61.71 L100.80,61.66 L101.29,61.51 L101.72,61.28 L102.10,60.96 L102.42,60.58 L102.66,60.14 L102.80,59.66 L102.86,59.14 L102.86,50.57 L102.80,50.05 L102.66,49.57 L102.42,49.13 L102.10,48.75 L101.72,48.44 L101.29,48.20 L100.80,48.05 L100.29,48.00 Z" fill="#0078d4" stroke="#0078d4" stroke-width="1" stroke-linejoin="round"/><path d="M96.00,68.57 L100.29,68.57 L100.80,68.62 L101.29,68.77 L101.72,69.01 L102.10,69.32 L102.42,69.71 L102.66,70.14 L102.80,70.62 L102.86,71.14 L102.86,79.71 L102.80,80.23 L102.66,80.72 L102.42,81.15 L102.10,81.53 L101.72,81.85 L101.29,82.08 L100.80,82.23 L100.29,82.29 L96.00,82.29 L96.00,68.57 Z" fill="#0078d4" stroke="#0078d4" stroke-width="1" stroke-linejoin="round"/></svg>