<svg xmlns="http://www.w3.org/2000/svg" viewBox="30.00 14.00 212.00 228.00"><path d="M58.00,16.00 L55.34,16.13 L52.76,16.53 L50.27,17.17 L47.88,18.04 L45.61,19.14 L43.46,20.44 L41.46,21.94 L39.62,23.62 L37.94,25.46 L36.44,27.46 L35.14,29.61 L34.04,31.88 L33.17,34.27 L32.53,36.76 L32.13,39.34 L32.00,42.00 L32.00,214.00 L32.13,216.66 L32.53,219.24 L33.17,221.73 L34.04,224.12 L35.14,226.39 L36.44,228.54 L37.94,230.54 L39.62,232.38 L41.46,234.06 L43.46,235.56 L45.61,236.86 L47.88,237.96 L50.27,238.83 L52.76,239.47 L55.34,239.87 L58.00,240.00 L190.00,240.00 L192.66,239.87 L195.24,239.47 L197.73,238.83 L200.12,237.96 L202.39,236.86 L204.54,235.56 L206.54,234.06 L208.38,232.38 L210.06,230.54 L211.56,228.54 L212.86,226.39 L213.96,224.12 L214.83,221.73 L215.47,219.24 L215.87,216.66 L216.00,214.00 L216.00,42.00 L215.87,39.34 L215.47,36.76 L214.83,34.27 L213.96,31.88 L212.86,29.61 L211.56,27.46 L210.06,25.46 L208.38,23.62 L206.54,21.94 L204.54,20.44 L202.39,19.14 L200.12,18.04 L197.73,17.17 L195.24,16.53 L192.66,16.13 L190.00,16.00 L58.00,16.00 Z" fill="#0078d4" stroke="#1e1e1e" stroke-width="1" stroke-linejoin="round"/><path d="M80.00,56.00 L168.00,56.00 L169.61,56.16 L171.11,56.63 L172.47,57.37 L173.66,58.34 L174.63,59.53 L175.37,60.89 L175.84,62.39 L176.00,64.00 L176.00,80.00 L175.84,81.61 L175.37,83.11 L174.63,84.47 L173.66,85.66 L172.47,86.63 L171.11,87.37 L169.61,87.84 L168.00,88.00 L80.00,88.00 L78.39,87.84 L76.89,87.37 L75.53,86.63 L74.34,85.66 L73.37,84.47 L72.63,83.11 L72.16,81.61 L72.00,80.00 L72.00,64.00 L72.16,62.39 L72.63,60.89 L73.37,59.53 L74.34,58.34 L75.53,57.37 L76.89,56.63 L78.39,56.16 L80.00,56.00 Z" fill="#ffffff" stroke="#1e1e1e" stroke-width="1" stroke-linejoin="round"/><path d="M224.00,64.00 L234.00,64.00 L235.21,64.12 L236.34,64.47 L237.35,65.02 L238.24,65.76 L238.98,66.65 L239.53,67.66 L239.88,68.79 L240.00,70.00 L240.00,90.00 L239.88,91.21 L239.53,92.34 L238.98,93.35 L238.24,94.24 L237.35,94.98 L236.34,95.53 L235.21,95.88 L234.00,96.00 L224.00,96.00 L224.00,64.00 Z" fill="#0078d4" stroke="#1e1e1e" stroke-width="1" stroke-linejoin="round"/><path d="M234.00,112.00 L224.00,112.00 L224.00,144.00 L234.00,144.00 L235.21,143.88 L236.34,143.53 L237.35,142.98 L238.24,142.24 L238.98,141.35 L239.53,140.34 L239.88,139.21 L240.00,138.00 L240.00,118.00 L239.88,116.79 L239.53,115.66 L238.98,114.65 L238.24,113.76 L237.35,113.02 L236.34,112.47 L235.21,112.12 L234.00,112.00 Z" fill="#0078d4" stroke="#1e1e1e" stroke-width="1" stroke-linejoin="round"/><path d="M224.00,160.00 L234.00,160.00 L235.21,160.12 L236.34,160.47 L237.35,161.02 L238.24,161.76 L238.98,162.65 L239.53,163.66 L239.88,164.79 L240.00,166.00 L240.00,186.00 L239.88,187.21 L239.53,188.34 L238.98,189.35 L238.24,190.24 L237.35,190.98 L236.34,191.53 L235.21,191.88 L234.00,192.00 L224.00,192.00 L224.00,160.00 Z" fill="#0078d4" stroke="#1e1e1e" stroke-width="1" stroke-linejoin="round"/></svg>