<svg xmlns="http://www.w3.org/2000/svg" viewBox="23.60 29.97 208.82 196.02"><path d="M64.01,166.40 L60.08,166.20 L56.27,165.62 L52.59,164.67 L49.06,163.38 L45.70,161.77 L42.53,159.84 L39.58,157.63 L36.85,155.15 L34.37,152.42 L32.16,149.47 L30.24,146.30 L28.62,142.94 L27.33,139.41 L26.38,135.73 L25.80,131.92 L25.60,127.99 L25.80,124.07 L26.38,120.25 L27.33,116.57 L28.62,113.04 L30.24,109.68 L32.16,106.52 L34.37,103.56 L36.85,100.83 L39.58,98.36 L42.53,96.14 L45.70,94.22 L49.06,92.60 L52.59,91.31 L56.27,90.36 L60.08,89.78 L64.01,89.58 L67.54,89.74 L70.98,90.21 L74.31,90.98 L77.53,92.03 L80.61,93.35 L83.55,94.92 L86.33,96.74 L88.94,98.78 L91.36,101.03 L93.58,103.48 L95.58,106.12 L97.36,108.93 L98.89,111.89 L100.16,115.00 L101.17,118.24 L101.89,121.59 L121.60,121.59 L121.60,83.19 L121.70,81.23 L121.99,79.32 L122.46,77.48 L123.11,75.72 L123.92,74.04 L124.88,72.46 L125.98,70.98 L127.22,69.62 L128.59,68.38 L130.07,67.27 L131.65,66.31 L133.33,65.50 L135.09,64.86 L136.93,64.38 L138.84,64.09 L140.80,63.99 L154.13,63.99 L154.85,60.64 L155.85,57.40 L157.12,54.29 L158.66,51.32 L160.43,48.51 L162.43,45.88 L164.65,43.42 L167.07,41.17 L169.68,39.13 L172.46,37.31 L175.40,35.74 L178.49,34.42 L181.71,33.37 L185.04,32.61 L188.48,32.13 L192.01,31.97 L195.94,32.17 L199.75,32.76 L203.43,33.70 L206.96,34.99 L210.32,36.61 L213.48,38.53 L216.44,40.75 L219.17,43.22 L221.65,45.95 L223.86,48.91 L225.78,52.08 L227.40,55.43 L228.69,58.96 L229.64,62.64 L230.22,66.46 L230.42,70.38 L230.22,74.31 L229.64,78.12 L228.69,81.80 L227.40,85.33 L225.78,88.69 L223.86,91.86 L221.65,94.81 L219.17,97.54 L216.44,100.02 L213.48,102.23 L210.32,104.16 L206.96,105.77 L203.43,107.07 L199.75,108.01 L195.94,108.59 L192.01,108.79 L188.48,108.63 L185.04,108.16 L181.71,107.40 L178.49,106.35 L175.41,105.03 L172.47,103.46 L169.69,101.64 L167.08,99.60 L164.66,97.35 L162.44,94.90 L160.44,92.26 L158.66,89.45 L157.13,86.49 L155.85,83.38 L154.85,80.14 L154.13,76.79 L140.80,76.79 L139.51,76.92 L138.31,77.29 L137.22,77.88 L136.27,78.67 L135.49,79.61 L134.90,80.70 L134.53,81.90 L134.40,83.19 L134.40,172.79 L134.53,174.08 L134.90,175.28 L135.49,176.37 L136.27,177.32 L137.22,178.10 L138.31,178.69 L139.51,179.06 L140.80,179.19 L154.13,179.19 L154.85,175.84 L155.85,172.60 L157.12,169.49 L158.66,166.52 L160.43,163.71 L162.43,161.08 L164.65,158.62 L167.07,156.37 L169.68,154.33 L172.46,152.51 L175.40,150.94 L178.49,149.62 L181.71,148.57 L185.04,147.81 L188.48,147.33 L192.01,147.17 L195.94,147.37 L199.75,147.96 L203.43,148.90 L206.96,150.19 L210.32,151.81 L213.48,153.73 L216.44,155.95 L219.17,158.42 L221.65,161.15 L223.86,164.11 L225.78,167.28 L227.40,170.63 L228.69,174.16 L229.64,177.84 L230.22,181.66 L230.42,185.58 L230.22,189.51 L229.64,193.32 L228.69,197.00 L227.40,200.53 L225.78,203.89 L223.86,207.06 L221.65,210.01 L219.17,212.74 L216.44,215.22 L213.48,217.43 L210.32,219.36 L206.96,220.97 L203.43,222.27 L199.75,223.21 L195.94,223.79 L192.01,223.99 L188.48,223.83 L185.04,223.36 L181.71,222.60 L178.49,221.55 L175.41,220.23 L172.47,218.66 L169.69,216.84 L167.08,214.80 L164.66,212.55 L162.44,210.10 L160.44,207.46 L158.66,204.65 L157.13,201.69 L155.85,198.58 L154.85,195.34 L154.13,191.99 L140.80,191.99 L138.84,191.89 L136.93,191.60 L135.09,191.13 L133.33,190.48 L131.65,189.67 L130.07,188.71 L128.59,187.61 L127.22,186.37 L125.98,185.00 L124.88,183.53 L123.92,181.94 L123.11,180.27 L122.46,178.50 L121.99,176.66 L121.70,174.76 L121.60,172.79 L121.60,134.39 L101.89,134.39 L101.17,137.75 L100.16,140.98 L98.89,144.09 L97.36,147.06 L95.58,149.87 L93.58,152.50 L91.36,154.96 L88.94,157.21 L86.33,159.25 L83.55,161.06 L80.61,162.64 L77.53,163.95 L74.31,165.00 L70.98,165.77 L67.54,166.24 L64.01,166.40 Z" fill="#0078d4" stroke="#1e1e1e" stroke-width="1" stroke-linejoin="round"/></svg>