<svg xmlns="http://www.w3.org/2000/svg" viewBox="10.00 12.99 100.00 94.00"><path d="M30.00,77.99 L28.16,77.90 L26.37,77.63 L24.65,77.18 L22.99,76.58 L21.42,75.82 L19.94,74.92 L18.55,73.88 L17.27,72.72 L16.11,71.44 L15.07,70.06 L14.17,68.57 L13.41,67.00 L12.81,65.35 L12.36,63.62 L12.09,61.83 L12.00,59.99 L12.09,58.15 L12.36,56.36 L12.81,54.64 L13.41,52.98 L14.17,51.41 L15.07,49.93 L16.11,48.54 L17.27,47.26 L18.55,46.10 L19.94,45.06 L21.42,44.16 L22.99,43.40 L24.65,42.80 L26.37,42.36 L28.16,42.08 L30.00,41.99 L31.66,42.06 L33.27,42.28 L34.83,42.64 L36.34,43.14 L37.78,43.75 L39.16,44.49 L40.47,45.34 L41.69,46.30 L42.82,47.35 L43.86,48.50 L44.80,49.74 L45.63,51.06 L46.35,52.45 L46.95,53.90 L47.42,55.42 L47.76,56.99 L57.00,56.99 L57.00,38.99 L57.04,38.07 L57.18,37.18 L57.40,36.32 L57.70,35.49 L58.08,34.70 L58.53,33.96 L59.05,33.27 L59.63,32.63 L60.27,32.05 L60.96,31.53 L61.71,31.08 L62.49,30.70 L63.32,30.40 L64.18,30.18 L65.07,30.04 L65.99,29.99 L72.24,29.99 L72.58,28.42 L73.05,26.90 L73.65,25.45 L74.36,24.06 L75.20,22.74 L76.13,21.50 L77.17,20.35 L78.31,19.30 L79.53,18.34 L80.83,17.49 L82.21,16.75 L83.66,16.13 L85.17,15.64 L86.73,15.28 L88.34,15.06 L90.00,14.99 L91.84,15.08 L93.62,15.35 L95.35,15.80 L97.00,16.40 L98.58,17.16 L100.06,18.06 L101.45,19.10 L102.73,20.26 L103.89,21.54 L104.92,22.92 L105.83,24.41 L106.58,25.98 L107.19,27.64 L107.63,29.36 L107.91,31.15 L108.00,32.99 L107.91,34.83 L107.63,36.62 L107.19,38.34 L106.58,40.00 L105.83,41.57 L104.92,43.05 L103.89,44.44 L102.73,45.72 L101.45,46.88 L100.06,47.92 L98.58,48.82 L97.00,49.58 L95.35,50.18 L93.62,50.63 L91.84,50.90 L90.00,50.99 L88.34,50.92 L86.73,50.70 L85.17,50.34 L83.66,49.85 L82.21,49.23 L80.84,48.49 L79.53,47.64 L78.31,46.68 L77.18,45.63 L76.14,44.48 L75.20,43.24 L74.37,41.93 L73.65,40.54 L73.05,39.08 L72.58,37.56 L72.24,35.99 L65.99,35.99 L65.39,36.05 L64.83,36.23 L64.32,36.51 L63.87,36.87 L63.51,37.32 L63.23,37.83 L63.06,38.39 L62.99,38.99 L62.99,80.99 L63.06,81.59 L63.23,82.16 L63.51,82.67 L63.87,83.11 L64.32,83.48 L64.83,83.75 L65.39,83.93 L65.99,83.99 L72.24,83.99 L72.58,82.42 L73.05,80.90 L73.65,79.44 L74.36,78.05 L75.20,76.74 L76.13,75.50 L77.17,74.35 L78.31,73.29 L79.53,72.34 L80.83,71.49 L82.21,70.75 L83.66,70.13 L85.17,69.64 L86.73,69.28 L88.34,69.06 L90.00,68.98 L91.84,69.08 L93.62,69.35 L95.35,69.79 L97.00,70.40 L98.58,71.16 L100.06,72.06 L101.45,73.09 L102.73,74.26 L103.89,75.53 L104.92,76.92 L105.83,78.40 L106.58,79.98 L107.19,81.63 L107.63,83.36 L107.91,85.14 L108.00,86.99 L107.91,88.83 L107.63,90.61 L107.19,92.34 L106.58,93.99 L105.83,95.57 L104.92,97.05 L103.89,98.44 L102.73,99.71 L101.45,100.88 L100.06,101.91 L98.58,102.81 L97.00,103.57 L95.35,104.18 L93.62,104.62 L91.84,104.89 L90.00,104.99 L88.34,104.91 L86.73,104.69 L85.17,104.33 L83.66,103.84 L82.21,103.22 L80.84,102.49 L79.53,101.64 L78.31,100.68 L77.18,99.62 L76.14,98.48 L75.20,97.24 L74.37,95.92 L73.65,94.53 L73.05,93.08 L72.58,91.56 L72.24,89.99 L65.99,89.99 L65.07,89.94 L64.18,89.81 L63.32,89.58 L62.49,89.28 L61.71,88.90 L60.96,88.45 L60.27,87.93 L59.63,87.35 L59.05,86.71 L58.53,86.02 L58.08,85.28 L57.70,84.49 L57.40,83.67 L57.18,82.80 L57.04,81.91 L57.00,80.99 L57.00,62.99 L47.76,62.99 L47.42,64.56 L46.95,66.08 L46.35,67.54 L45.63,68.93 L44.80,70.24 L43.86,71.48 L42.82,72.63 L41.69,73.69 L40.47,74.64 L39.16,75.49 L37.78,76.23 L36.34,76.85 L34.83,77.34 L33.27,77.70 L31.66,77.92 L30.00,77.99 Z" fill="#0078d4" stroke="#1e1e1e" stroke-width="1" stroke-linejoin="round"/></svg>