<svg xmlns="http://www.w3.org/2000/svg" viewBox="19.33 35.33 217.33 185.33"><path d="M21.33,70.67 L21.51,67.26 L22.01,63.95 L22.83,60.75 L23.95,57.69 L25.36,54.78 L27.03,52.03 L28.95,49.46 L31.10,47.10 L33.46,44.95 L36.03,43.03 L38.78,41.36 L41.69,39.95 L44.75,38.83 L47.95,38.01 L51.26,37.51 L54.67,37.33 L201.33,37.33 L204.74,37.51 L208.05,38.01 L211.25,38.83 L214.31,39.95 L217.22,41.36 L219.97,43.03 L222.54,44.95 L224.90,47.10 L227.05,49.46 L228.97,52.03 L230.64,54.78 L232.05,57.69 L233.17,60.75 L233.99,63.95 L234.49,67.26 L234.67,70.67 L234.67,185.33 L234.49,188.74 L233.99,192.05 L233.17,195.25 L232.05,198.31 L230.64,201.22 L228.97,203.97 L227.05,206.54 L224.90,208.90 L222.54,211.05 L219.97,212.97 L217.22,214.64 L214.31,216.05 L211.25,217.17 L208.05,217.99 L204.74,218.49 L201.33,218.67 L54.67,218.67 L51.26,218.49 L47.95,217.99 L44.75,217.17 L41.69,216.05 L38.78,214.64 L36.03,212.97 L33.46,211.05 L31.10,208.90 L28.95,206.54 L27.03,203.97 L25.36,201.22 L23.95,198.31 L22.83,195.25 L22.01,192.05 L21.51,188.74 L21.33,185.33 L21.33,70.67 Z" fill="#0078d4" stroke="#1e1e1e" stroke-width="1" stroke-linejoin="round"/><path d="M201.33,205.33 L203.38,205.23 L205.36,204.93 L207.28,204.43 L209.12,203.76 L210.87,202.92 L212.52,201.92 L214.06,200.77 L215.48,199.48 L216.77,198.06 L217.92,196.52 L218.92,194.87 L219.76,193.12 L220.43,191.28 L220.93,189.36 L221.23,187.38 L221.33,185.33 L221.33,70.67 L221.23,68.62 L220.93,66.64 L220.43,64.72 L219.76,62.88 L218.92,61.13 L217.92,59.48 L216.77,57.94 L215.48,56.52 L214.06,55.23 L212.52,54.08 L210.87,53.08 L209.12,52.24 L207.28,51.57 L205.36,51.07 L203.38,50.77 L201.33,50.67 L97.33,50.67 L97.33,205.33 L201.33,205.33 Z" fill="#ffffff" stroke="#1e1e1e" stroke-width="1" stroke-linejoin="round"/><path d="M224.00,109.33 L90.67,109.33 L90.67,96.00 L224.00,96.00 L224.00,109.33 Z" fill="#0078d4" stroke="#1e1e1e" stroke-width="1" stroke-linejoin="round"/></svg>