<svg xmlns="http://www.w3.org/2000/svg" viewBox="7.60 19.60 100.00 76.00"><path d="M24.60,21.60 L23.07,21.68 L21.58,21.90 L20.14,22.27 L18.76,22.78 L17.45,23.41 L16.21,24.16 L15.06,25.03 L13.99,25.99 L13.03,27.06 L12.16,28.21 L11.41,29.45 L10.78,30.76 L10.27,32.14 L9.90,33.58 L9.68,35.07 L9.60,36.60 L9.60,44.40 L105.60,44.40 L105.60,36.60 L105.52,35.07 L105.30,33.58 L104.93,32.14 L104.42,30.76 L103.79,29.45 L103.04,28.21 L102.17,27.06 L101.21,25.99 L100.14,25.03 L98.99,24.16 L97.75,23.41 L96.44,22.78 L95.06,22.27 L93.62,21.90 L92.13,21.68 L90.60,21.60 L24.60,21.60 Z" fill="#0078d4" stroke="#0078d4" stroke-width="1" stroke-linejoin="round"/><path d="M9.60,78.60 L9.60,50.40 L105.60,50.40 L105.60,78.60 L105.52,80.13 L105.30,81.62 L104.93,83.06 L104.42,84.44 L103.79,85.75 L103.04,86.99 L102.17,88.14 L101.21,89.21 L100.14,90.17 L98.99,91.04 L97.75,91.79 L96.44,92.42 L95.06,92.93 L93.62,93.30 L92.13,93.52 L90.60,93.60 L24.60,93.60 L23.07,93.52 L21.58,93.30 L20.14,92.93 L18.76,92.42 L17.45,91.79 L16.21,91.04 L15.06,90.17 L13.99,89.21 L13.03,88.14 L12.16,86.99 L11.41,85.75 L10.78,84.44 L10.27,83.06 L9.90,81.62 L9.68,80.13 L9.60,78.60 Z" fill="#0078d4" stroke="#0078d4" stroke-width="1" stroke-linejoin="round"/><path d="M75.00,70.80 L74.40,70.86 L73.83,71.04 L73.32,71.31 L72.88,71.68 L72.51,72.12 L72.24,72.63 L72.06,73.20 L72.00,73.80 L72.06,74.40 L72.24,74.97 L72.51,75.48 L72.88,75.92 L73.32,76.29 L73.83,76.56 L74.40,76.74 L75.00,76.80 L88.20,76.80 L88.80,76.74 L89.37,76.56 L89.88,76.29 L90.32,75.92 L90.69,75.48 L90.96,74.97 L91.14,74.40 L91.20,73.80 L91.14,73.20 L90.96,72.63 L90.69,72.12 L90.32,71.68 L89.88,71.31 L89.37,71.04 L88.80,70.86 L88.20,70.80 L75.00,70.80 Z" fill="#ffffff" stroke="#ffffff" stroke-width="1" stroke-linejoin="round"/></svg>