<svg xmlns="http://www.w3.org/2000/svg" viewBox="19.33 46.00 217.33 164.00"><path d="M54.67,48.00 L51.26,48.17 L47.95,48.68 L44.75,49.50 L41.69,50.62 L38.78,52.02 L36.03,53.69 L33.46,55.61 L31.10,57.76 L28.95,60.13 L27.03,62.70 L25.36,65.44 L23.95,68.36 L22.83,71.42 L22.01,74.62 L21.51,77.93 L21.33,81.33 L21.33,98.67 L234.67,98.67 L234.67,81.33 L234.49,77.93 L233.99,74.62 L233.17,71.42 L232.05,68.36 L230.64,65.44 L228.97,62.70 L227.05,60.13 L224.90,57.76 L222.54,55.61 L219.97,53.69 L217.22,52.02 L214.31,50.62 L211.25,49.50 L208.05,48.68 L204.74,48.17 L201.33,48.00 L54.67,48.00 Z" fill="#0078d4" stroke="#1e1e1e" stroke-width="1" stroke-linejoin="round"/><path d="M21.33,174.67 L21.33,112.00 L234.67,112.00 L234.67,174.67 L234.49,178.07 L233.99,181.38 L233.17,184.58 L232.05,187.64 L230.64,190.56 L228.97,193.30 L227.05,195.87 L224.90,198.24 L222.54,200.39 L219.97,202.31 L217.22,203.98 L214.31,205.38 L211.25,206.50 L208.05,207.32 L204.74,207.83 L201.33,208.00 L54.67,208.00 L51.26,207.83 L47.95,207.32 L44.75,206.50 L41.69,205.38 L38.78,203.98 L36.03,202.31 L33.46,200.39 L31.10,198.24 L28.95,195.87 L27.03,193.30 L25.36,190.56 L23.95,187.64 L22.83,184.58 L22.01,181.38 L21.51,178.07 L21.33,174.67 Z" fill="#0078d4" stroke="#1e1e1e" stroke-width="1" stroke-linejoin="round"/><path d="M166.67,157.33 L165.32,157.47 L164.07,157.86 L162.94,158.47 L161.95,159.29 L161.14,160.27 L160.52,161.40 L160.14,162.66 L160.00,164.00 L160.14,165.34 L160.52,166.60 L161.14,167.73 L161.95,168.71 L162.94,169.53 L164.07,170.14 L165.32,170.53 L166.67,170.67 L196.00,170.67 L197.34,170.53 L198.60,170.14 L199.73,169.53 L200.71,168.71 L201.53,167.73 L202.14,166.60 L202.53,165.34 L202.67,164.00 L202.53,162.66 L202.14,161.40 L201.53,160.27 L200.71,159.29 L199.73,158.47 L198.60,157.86 L197.34,157.47 L196.00,157.33 L166.67,157.33 Z" fill="#ffffff" stroke="#1e1e1e" stroke-width="1" stroke-linejoin="round"/></svg>