<svg xmlns="http://www.w3.org/2000/svg" viewBox="19.33 24.67 217.33 212.00"><path d="M69.33,183.71 L69.43,181.83 L69.71,180.01 L70.16,178.25 L70.78,176.56 L71.55,174.95 L72.47,173.44 L73.53,172.02 L74.72,170.72 L76.02,169.53 L77.44,168.47 L78.95,167.55 L80.56,166.78 L82.25,166.16 L84.01,165.71 L85.83,165.43 L87.71,165.33 L168.29,165.33 L170.17,165.43 L171.99,165.71 L173.75,166.16 L175.44,166.78 L177.05,167.55 L178.56,168.47 L179.98,169.53 L181.28,170.72 L182.47,172.02 L183.53,173.44 L184.45,174.95 L185.22,176.56 L185.84,178.25 L186.29,180.01 L186.57,181.83 L186.67,183.71 L186.67,186.01 L186.55,189.30 L186.27,192.05 L185.72,195.37 L184.82,199.13 L183.47,203.23 L181.60,207.54 L179.10,211.93 L177.53,214.20 L175.78,216.42 L173.84,218.57 L171.70,220.65 L169.36,222.63 L166.81,224.50 L164.04,226.26 L161.05,227.89 L157.82,229.37 L154.35,230.70 L150.62,231.86 L146.65,232.84 L142.40,233.62 L137.88,234.19 L133.09,234.55 L128.00,234.67 L122.91,234.55 L118.12,234.19 L113.60,233.62 L109.35,232.84 L105.38,231.86 L101.65,230.70 L98.18,229.37 L94.95,227.89 L91.96,226.26 L89.19,224.50 L86.64,222.63 L84.30,220.65 L82.16,218.57 L80.22,216.42 L78.47,214.20 L76.90,211.93 L74.40,207.54 L72.53,203.23 L71.18,199.13 L70.28,195.37 L69.73,192.05 L69.45,189.30 L69.33,186.01 L69.33,183.71 Z" fill="#0078d4" stroke="#1e1e1e" stroke-width="1" stroke-linejoin="round"/><path d="M168.29,154.67 L172.23,154.93 L176.02,155.71 L179.61,156.96 L182.97,158.64 L186.06,160.74 L188.85,163.20 L191.31,166.00 L193.39,169.09 L199.52,167.60 L205.05,165.69 L210.01,163.40 L214.41,160.78 L218.29,157.87 L221.68,154.73 L224.61,151.40 L227.10,147.93 L229.60,143.54 L231.47,139.23 L232.82,135.13 L233.72,131.37 L234.27,128.05 L234.55,125.30 L234.67,122.01 L234.67,119.71 L234.57,117.83 L234.29,116.01 L233.84,114.25 L233.22,112.56 L232.45,110.95 L231.53,109.44 L230.47,108.02 L229.28,106.72 L227.98,105.53 L226.56,104.47 L225.05,103.55 L223.44,102.78 L221.75,102.16 L219.99,101.71 L218.17,101.43 L216.29,101.33 L164.96,101.33 L166.25,103.73 L167.38,106.22 L168.36,108.79 L169.17,111.44 L169.82,114.16 L170.29,116.94 L170.57,119.78 L170.67,122.67 L170.41,127.38 L169.66,131.94 L168.43,136.33 L166.77,140.51 L164.69,144.47 L162.22,148.16 L159.39,151.57 L156.22,154.67 L168.29,154.67 Z" fill="#0078d4" stroke="#1e1e1e" stroke-width="1" stroke-linejoin="round"/><path d="M176.00,90.67 L179.27,90.50 L182.45,90.02 L185.52,89.23 L188.46,88.15 L191.25,86.80 L193.89,85.20 L196.35,83.36 L198.63,81.29 L200.69,79.02 L202.53,76.56 L204.14,73.92 L205.49,71.12 L206.56,68.18 L207.35,65.12 L207.83,61.94 L208.00,58.67 L207.83,55.39 L207.35,52.22 L206.56,49.15 L205.49,46.21 L204.14,43.41 L202.53,40.78 L200.69,38.31 L198.63,36.04 L196.35,33.97 L193.89,32.13 L191.25,30.53 L188.46,29.18 L185.52,28.11 L182.45,27.32 L179.27,26.83 L176.00,26.67 L172.73,26.83 L169.55,27.32 L166.48,28.11 L163.54,29.18 L160.75,30.53 L158.11,32.13 L155.65,33.97 L153.37,36.04 L151.31,38.31 L149.47,40.78 L147.86,43.41 L146.51,46.21 L145.44,49.15 L144.65,52.22 L144.17,55.39 L144.00,58.67 L144.17,61.94 L144.65,65.12 L145.44,68.18 L146.51,71.12 L147.86,73.92 L149.47,76.56 L151.31,79.02 L153.37,81.29 L155.65,83.36 L158.11,85.20 L160.75,86.80 L163.54,88.15 L166.48,89.23 L169.55,90.02 L172.73,90.50 L176.00,90.67 Z" fill="#0078d4" stroke="#1e1e1e" stroke-width="1" stroke-linejoin="round"/><path d="M80.00,90.67 L83.27,90.50 L86.45,90.02 L89.52,89.23 L92.46,88.15 L95.25,86.80 L97.89,85.20 L100.35,83.36 L102.63,81.29 L104.69,79.02 L106.53,76.56 L108.14,73.92 L109.49,71.12 L110.56,68.18 L111.35,65.12 L111.83,61.94 L112.00,58.67 L111.83,55.39 L111.35,52.22 L110.56,49.15 L109.49,46.21 L108.14,43.41 L106.53,40.78 L104.69,38.31 L102.63,36.04 L100.35,33.97 L97.89,32.13 L95.25,30.53 L92.46,29.18 L89.52,28.11 L86.45,27.32 L83.27,26.83 L80.00,26.67 L76.73,26.83 L73.55,27.32 L70.48,28.11 L67.54,29.18 L64.75,30.53 L62.11,32.13 L59.65,33.97 L57.37,36.04 L55.31,38.31 L53.47,40.78 L51.86,43.41 L50.51,46.21 L49.44,49.15 L48.65,52.22 L48.17,55.39 L48.00,58.67 L48.17,61.94 L48.65,65.12 L49.44,68.18 L50.51,71.12 L51.86,73.92 L53.47,76.56 L55.31,79.02 L57.37,81.29 L59.65,83.36 L62.11,85.20 L64.75,86.80 L67.54,88.15 L70.48,89.23 L73.55,90.02 L76.73,90.50 L80.00,90.67 Z" fill="#0078d4" stroke="#1e1e1e" stroke-width="1" stroke-linejoin="round"/><path d="M21.33,119.71 L21.43,117.83 L21.71,116.01 L22.16,114.25 L22.78,112.56 L23.55,110.95 L24.47,109.44 L25.53,108.02 L26.72,106.72 L28.02,105.53 L29.44,104.47 L30.95,103.55 L32.56,102.78 L34.25,102.16 L36.01,101.71 L37.83,101.43 L39.71,101.33 L91.04,101.33 L89.75,103.73 L88.62,106.22 L87.64,108.79 L86.83,111.44 L86.18,114.16 L85.71,116.94 L85.43,119.78 L85.33,122.67 L85.59,127.38 L86.34,131.94 L87.57,136.33 L89.23,140.51 L91.31,144.47 L93.78,148.16 L96.61,151.57 L99.78,154.67 L87.71,154.67 L83.77,154.93 L79.98,155.71 L76.39,156.96 L73.03,158.64 L69.94,160.74 L67.15,163.20 L64.69,166.00 L62.61,169.09 L56.48,167.60 L50.95,165.69 L45.99,163.40 L41.59,160.78 L37.71,157.87 L34.32,154.73 L31.39,151.40 L28.90,147.93 L26.40,143.54 L24.53,139.23 L23.18,135.13 L22.28,131.37 L21.73,128.05 L21.45,125.30 L21.33,122.01 L21.33,119.71 Z" fill="#0078d4" stroke="#1e1e1e" stroke-width="1" stroke-linejoin="round"/><path d="M160.00,122.67 L159.83,125.94 L159.35,129.12 L158.56,132.18 L157.49,135.12 L156.14,137.92 L154.53,140.56 L152.69,143.02 L150.63,145.29 L148.35,147.36 L145.89,149.20 L143.25,150.80 L140.46,152.15 L137.52,153.23 L134.45,154.02 L131.27,154.50 L128.00,154.67 L124.73,154.50 L121.55,154.02 L118.48,153.23 L115.54,152.15 L112.75,150.80 L110.11,149.20 L107.65,147.36 L105.37,145.29 L103.31,143.02 L101.47,140.56 L99.86,137.92 L98.51,135.12 L97.44,132.18 L96.65,129.12 L96.17,125.94 L96.00,122.67 L96.17,119.39 L96.65,116.22 L97.44,113.15 L98.51,110.21 L99.86,107.41 L101.47,104.78 L103.31,102.31 L105.37,100.04 L107.65,97.97 L110.11,96.13 L112.75,94.53 L115.54,93.18 L118.48,92.11 L121.55,91.32 L124.73,90.83 L128.00,90.67 L131.27,90.83 L134.45,91.32 L137.52,92.11 L140.46,93.18 L143.25,94.53 L145.89,96.13 L148.35,97.97 L150.63,100.04 L152.69,102.31 L154.53,104.78 L156.14,107.41 L157.49,110.21 L158.56,113.15 L159.35,116.22 L159.83,119.39 L160.00,122.67 Z" fill="#0078d4" stroke="#1e1e1e" stroke-width="1" stroke-linejoin="round"/></svg>