<svg xmlns="http://www.w3.org/2000/svg" viewBox="19.33 24.67 217.33 206.67"><path d="M96.00,58.67 L96.17,55.39 L96.65,52.22 L97.44,49.15 L98.51,46.21 L99.86,43.41 L101.47,40.78 L103.31,38.31 L105.37,36.04 L107.65,33.97 L110.11,32.13 L112.75,30.53 L115.54,29.18 L118.48,28.11 L121.55,27.32 L124.73,26.83 L128.00,26.67 L131.27,26.83 L134.45,27.32 L137.52,28.11 L140.46,29.18 L143.25,30.53 L145.89,32.13 L148.35,33.97 L150.63,36.04 L152.69,38.31 L154.53,40.78 L156.14,43.41 L157.49,46.21 L158.56,49.15 L159.35,52.22 L159.83,55.39 L160.00,58.67 L159.83,61.94 L159.35,65.12 L158.56,68.18 L157.49,71.12 L156.14,73.92 L154.53,76.56 L152.69,79.02 L150.63,81.29 L148.35,83.36 L145.89,85.20 L143.25,86.80 L140.46,88.15 L137.52,89.23 L134.45,90.02 L131.27,90.50 L128.00,90.67 L124.73,90.50 L121.55,90.02 L118.48,89.23 L115.54,88.15 L112.75,86.80 L110.11,85.20 L107.65,83.36 L105.37,81.29 L103.31,79.02 L101.47,76.56 L99.86,73.92 L98.51,71.12 L97.44,68.18 L96.65,65.12 L96.17,61.94 L96.00,58.67 Z" fill="#5b5fc7" stroke="#1e1e1e" stroke-width="1" stroke-linejoin="round"/><path d="M197.33,37.33 L194.61,37.47 L191.96,37.88 L189.40,38.53 L186.95,39.43 L184.62,40.55 L182.42,41.89 L180.37,43.42 L178.48,45.14 L176.76,47.04 L175.22,49.09 L173.89,51.29 L172.76,53.62 L171.87,56.07 L171.21,58.63 L170.80,61.27 L170.67,64.00 L170.80,66.73 L171.21,69.37 L171.87,71.93 L172.76,74.38 L173.89,76.71 L175.22,78.91 L176.76,80.96 L178.48,82.86 L180.37,84.58 L182.42,86.11 L184.62,87.45 L186.95,88.57 L189.40,89.47 L191.96,90.12 L194.61,90.53 L197.33,90.67 L200.06,90.53 L202.71,90.12 L205.26,89.47 L207.71,88.57 L210.04,87.45 L212.24,86.11 L214.30,84.58 L216.19,82.86 L217.91,80.96 L219.45,78.91 L220.78,76.71 L221.90,74.38 L222.80,71.93 L223.46,69.37 L223.86,66.73 L224.00,64.00 L223.86,61.27 L223.46,58.63 L222.80,56.07 L221.90,53.62 L220.78,51.29 L219.45,49.09 L217.91,47.04 L216.19,45.14 L214.30,43.42 L212.24,41.89 L210.04,40.55 L207.71,39.43 L205.26,38.53 L202.71,37.88 L200.06,37.47 L197.33,37.33 Z" fill="#5b5fc7" stroke="#1e1e1e" stroke-width="1" stroke-linejoin="round"/><path d="M58.67,37.33 L55.94,37.47 L53.29,37.88 L50.74,38.53 L48.29,39.43 L45.96,40.55 L43.76,41.89 L41.70,43.42 L39.81,45.14 L38.09,47.04 L36.55,49.09 L35.22,51.29 L34.10,53.62 L33.20,56.07 L32.54,58.63 L32.14,61.27 L32.00,64.00 L32.14,66.73 L32.54,69.37 L33.20,71.93 L34.10,74.38 L35.22,76.71 L36.55,78.91 L38.09,80.96 L39.81,82.86 L41.70,84.58 L43.76,86.11 L45.96,87.45 L48.29,88.57 L50.74,89.47 L53.29,90.12 L55.94,90.53 L58.67,90.67 L61.39,90.53 L64.04,90.12 L66.60,89.47 L69.05,88.57 L71.38,87.45 L73.58,86.11 L75.63,84.58 L77.52,82.86 L79.24,80.96 L80.78,78.91 L82.11,76.71 L83.24,74.38 L84.13,71.93 L84.79,69.37 L85.20,66.73 L85.33,64.00 L85.20,61.27 L84.79,58.63 L84.13,56.07 L83.24,53.62 L82.11,51.29 L80.78,49.09 L79.24,47.04 L77.52,45.14 L75.63,43.42 L73.58,41.89 L71.38,40.55 L69.05,39.43 L66.60,38.53 L64.04,37.88 L61.39,37.47 L58.67,37.33 Z" fill="#5b5fc7" stroke="#1e1e1e" stroke-width="1" stroke-linejoin="round"/><path d="M102.67,101.33 L100.35,101.45 L98.10,101.79 L95.93,102.35 L93.84,103.11 L91.86,104.07 L89.99,105.20 L88.25,106.51 L86.64,107.97 L85.18,109.58 L83.87,111.33 L82.74,113.20 L81.78,115.18 L81.02,117.26 L80.46,119.43 L80.12,121.68 L80.00,124.00 L80.00,181.33 L80.25,186.24 L80.98,191.01 L82.16,195.61 L83.77,200.02 L85.79,204.21 L88.20,208.17 L90.96,211.87 L94.06,215.27 L97.47,218.37 L101.16,221.14 L105.12,223.54 L109.32,225.56 L113.73,227.18 L118.33,228.36 L123.09,229.09 L128.00,229.33 L132.91,229.09 L137.67,228.36 L142.27,227.18 L146.68,225.56 L150.88,223.54 L154.84,221.14 L158.53,218.37 L161.94,215.27 L165.04,211.87 L167.80,208.17 L170.21,204.21 L172.23,200.02 L173.84,195.61 L175.02,191.01 L175.75,186.24 L176.00,181.33 L176.00,124.00 L175.88,121.68 L175.54,119.43 L174.98,117.26 L174.22,115.18 L173.26,113.20 L172.13,111.33 L170.82,109.58 L169.36,107.97 L167.75,106.51 L166.01,105.20 L164.14,104.07 L162.16,103.11 L160.07,102.35 L157.90,101.79 L155.65,101.45 L153.33,101.33 L102.67,101.33 Z" fill="#5b5fc7" stroke="#1e1e1e" stroke-width="1" stroke-linejoin="round"/><path d="M69.33,124.00 L69.48,120.84 L69.92,117.76 L70.63,114.77 L71.60,111.90 L72.82,109.15 L74.27,106.54 L75.94,104.08 L77.82,101.78 L75.61,101.45 L73.33,101.33 L44.00,101.33 L41.68,101.45 L39.43,101.79 L37.26,102.35 L35.18,103.11 L33.20,104.07 L31.33,105.20 L29.58,106.51 L27.97,107.97 L26.51,109.58 L25.20,111.33 L24.07,113.20 L23.11,115.18 L22.35,117.26 L21.79,119.43 L21.45,121.68 L21.33,124.00 L21.33,176.00 L21.53,179.82 L22.09,183.52 L23.01,187.10 L24.27,190.53 L25.84,193.80 L27.71,196.87 L29.86,199.75 L32.27,202.40 L34.92,204.81 L37.79,206.96 L40.87,208.83 L44.13,210.40 L47.56,211.65 L51.14,212.57 L54.85,213.14 L58.67,213.33 L63.35,213.04 L67.87,212.19 L72.17,210.82 L76.23,208.95 L74.67,205.81 L73.29,202.57 L72.11,199.23 L71.13,195.80 L70.35,192.29 L69.79,188.70 L69.45,185.05 L69.33,181.33 L69.33,124.00 Z" fill="#5b5fc7" stroke="#1e1e1e" stroke-width="1" stroke-linejoin="round"/><path d="M186.67,181.33 L186.55,185.05 L186.21,188.70 L185.65,192.29 L184.87,195.80 L183.89,199.23 L182.71,202.57 L181.33,205.81 L179.77,208.95 L183.83,210.82 L188.13,212.19 L192.65,213.04 L197.33,213.33 L201.15,213.14 L204.86,212.57 L208.44,211.65 L211.87,210.40 L215.13,208.83 L218.21,206.96 L221.08,204.81 L223.73,202.40 L226.14,199.75 L228.29,196.87 L230.16,193.80 L231.73,190.53 L232.99,187.10 L233.91,183.52 L234.47,179.82 L234.67,176.00 L234.67,124.00 L234.55,121.68 L234.21,119.43 L233.65,117.26 L232.89,115.18 L231.93,113.20 L230.80,111.33 L229.49,109.58 L228.03,107.97 L226.42,106.51 L224.67,105.20 L222.80,104.07 L220.82,103.11 L218.74,102.35 L216.57,101.79 L214.32,101.45 L212.00,101.33 L182.67,101.33 L180.39,101.45 L178.18,101.78 L180.06,104.08 L181.73,106.54 L183.18,109.15 L184.40,111.90 L185.37,114.77 L186.08,117.76 L186.52,120.84 L186.67,124.00 L186.67,181.33 Z" fill="#5b5fc7" stroke="#1e1e1e" stroke-width="1" stroke-linejoin="round"/></svg>