<svg xmlns="http://www.w3.org/2000/svg" viewBox="16.29 34.57 230.29 210.19"><path d="M128.00,77.71 L127.79,81.92 L127.16,86.01 L126.15,89.95 L124.77,93.73 L123.03,97.33 L120.97,100.72 L118.60,103.88 L115.95,106.81 L113.03,109.46 L109.86,111.83 L106.47,113.89 L102.87,115.62 L99.09,117.01 L95.15,118.02 L91.06,118.64 L86.86,118.86 L82.65,118.64 L78.57,118.02 L74.62,117.01 L70.84,115.62 L67.25,113.89 L63.85,111.83 L60.69,109.46 L57.76,106.81 L55.11,103.88 L52.74,100.72 L50.68,97.33 L48.95,93.73 L47.56,89.95 L46.55,86.01 L45.93,81.92 L45.71,77.71 L45.93,73.51 L46.55,69.42 L47.56,65.48 L48.95,61.70 L50.68,58.10 L52.74,54.71 L55.11,51.54 L57.76,48.62 L60.69,45.97 L63.85,43.60 L67.25,41.54 L70.84,39.80 L74.62,38.42 L78.57,37.41 L82.65,36.78 L86.86,36.57 L91.06,36.78 L95.15,37.41 L99.09,38.42 L102.87,39.80 L106.47,41.54 L109.86,43.60 L113.03,45.97 L115.95,48.62 L118.60,51.54 L120.97,54.71 L123.03,58.10 L124.77,61.70 L126.15,65.48 L127.16,69.42 L127.79,73.51 L128.00,77.71 Z" fill="#0078d4" stroke="#1e1e1e" stroke-width="1" stroke-linejoin="round"/><path d="M182.86,118.86 L186.13,118.69 L189.31,118.21 L192.37,117.42 L195.31,116.34 L198.11,114.99 L200.75,113.39 L203.21,111.55 L205.48,109.48 L207.55,107.21 L209.39,104.75 L210.99,102.11 L212.34,99.31 L213.42,96.37 L214.21,93.31 L214.69,90.13 L214.86,86.86 L214.69,83.59 L214.21,80.41 L213.42,77.34 L212.34,74.40 L210.99,71.60 L209.39,68.97 L207.55,66.50 L205.48,64.23 L203.21,62.16 L200.75,60.32 L198.11,58.72 L195.31,57.37 L192.37,56.30 L189.31,55.51 L186.13,55.02 L182.86,54.86 L179.59,55.02 L176.41,55.51 L173.34,56.30 L170.40,57.37 L167.60,58.72 L164.97,60.32 L162.50,62.16 L160.23,64.23 L158.16,66.50 L156.32,68.97 L154.72,71.60 L153.37,74.40 L152.30,77.34 L151.51,80.41 L151.02,83.59 L150.86,86.86 L151.02,90.13 L151.51,93.31 L152.30,96.37 L153.37,99.31 L154.72,102.11 L156.32,104.75 L158.16,107.21 L160.23,109.48 L162.50,111.55 L164.97,113.39 L167.60,114.99 L170.40,116.34 L173.34,117.42 L176.41,118.21 L179.59,118.69 L182.86,118.86 Z" fill="#0078d4" stroke="#1e1e1e" stroke-width="1" stroke-linejoin="round"/><path d="M38.86,137.14 L36.75,137.25 L34.71,137.56 L32.74,138.07 L30.85,138.76 L29.05,139.63 L27.36,140.66 L25.77,141.84 L24.31,143.17 L22.98,144.63 L21.80,146.21 L20.77,147.91 L19.90,149.71 L19.21,151.60 L18.70,153.57 L18.39,155.61 L18.29,157.71 L18.29,162.29 L18.42,164.35 L18.74,166.72 L19.36,169.79 L20.38,173.42 L21.90,177.47 L24.03,181.81 L26.86,186.29 L28.57,188.53 L30.49,190.76 L32.64,192.96 L35.03,195.10 L37.67,197.17 L40.57,199.15 L43.75,201.03 L47.21,202.79 L50.98,204.40 L55.07,205.86 L59.48,207.14 L64.22,208.22 L69.32,209.10 L74.79,209.75 L80.63,210.15 L86.86,210.29 L92.02,210.19 L96.92,209.92 L101.57,209.47 L105.96,208.86 L110.10,208.10 L114.00,207.20 L117.68,206.16 L121.13,205.00 L120.15,200.75 L119.44,196.39 L119.00,191.95 L118.86,187.43 L118.95,183.79 L119.23,180.21 L119.70,176.67 L120.34,173.20 L121.15,169.79 L122.13,166.45 L123.27,163.18 L124.57,159.99 L126.02,156.88 L127.62,153.86 L129.37,150.92 L131.26,148.09 L133.28,145.36 L135.42,142.73 L137.70,140.22 L140.09,137.82 L137.53,137.31 L134.86,137.14 L38.86,137.14 Z" fill="#0078d4" stroke="#1e1e1e" stroke-width="1" stroke-linejoin="round"/><path d="M153.57,152.67 L154.00,154.54 L154.24,156.41 L154.28,158.27 L154.14,160.09 L153.81,161.88 L153.32,163.62 L152.65,165.29 L151.83,166.89 L150.86,168.40 L149.74,169.81 L148.49,171.10 L147.10,172.28 L145.59,173.32 L143.96,174.21 L142.23,174.94 L140.39,175.49 L131.03,177.81 L130.47,182.57 L130.29,187.43 L130.49,192.52 L131.10,197.49 L140.02,199.63 L141.88,200.19 L143.63,200.91 L145.27,201.80 L146.80,202.84 L148.20,204.02 L149.47,205.33 L150.59,206.75 L151.57,208.27 L152.40,209.88 L153.07,211.56 L153.56,213.31 L153.88,215.11 L154.02,216.95 L153.97,218.82 L153.73,220.70 L153.28,222.59 L150.32,232.62 L153.99,235.63 L157.90,238.32 L162.02,240.68 L166.35,242.68 L174.05,234.58 L175.46,233.25 L176.96,232.09 L178.56,231.12 L180.22,230.32 L181.94,229.70 L183.71,229.25 L185.50,228.98 L187.30,228.90 L189.11,228.99 L190.90,229.25 L192.67,229.70 L194.39,230.32 L196.05,231.12 L197.64,232.10 L199.15,233.25 L200.56,234.59 L208.33,242.76 L212.64,240.78 L216.76,238.44 L220.66,235.78 L224.34,232.80 L221.28,222.20 L220.84,220.32 L220.61,218.46 L220.56,216.60 L220.71,214.77 L221.03,212.99 L221.53,211.25 L222.19,209.58 L223.01,207.98 L223.98,206.47 L225.10,205.06 L226.36,203.76 L227.74,202.59 L229.25,201.55 L230.88,200.66 L232.62,199.93 L234.45,199.37 L243.83,197.05 L244.38,192.30 L244.57,187.43 L244.37,182.35 L243.76,177.38 L234.82,175.23 L232.97,174.68 L231.21,173.96 L229.57,173.07 L228.04,172.02 L226.65,170.85 L225.38,169.54 L224.25,168.12 L223.27,166.60 L222.44,164.99 L221.78,163.31 L221.28,161.56 L220.96,159.76 L220.82,157.91 L220.87,156.05 L221.12,154.16 L221.57,152.28 L224.53,142.23 L220.86,139.23 L216.95,136.54 L212.83,134.18 L208.51,132.18 L200.79,140.29 L199.39,141.62 L197.88,142.77 L196.29,143.75 L194.62,144.55 L192.90,145.17 L191.14,145.62 L189.35,145.88 L187.54,145.97 L185.73,145.88 L183.94,145.62 L182.18,145.17 L180.46,144.55 L178.79,143.75 L177.20,142.77 L175.69,141.62 L174.29,140.28 L166.52,132.11 L162.20,134.09 L158.09,136.43 L154.18,139.09 L150.51,142.07 L153.57,152.67 Z" fill="#8dc8e8" stroke="#1e1e1e" stroke-width="1" stroke-linejoin="round"/><path d="M173.71,187.43 L173.99,190.19 L174.79,192.77 L176.06,195.10 L177.73,197.13 L179.76,198.80 L182.09,200.07 L184.66,200.87 L187.43,201.15 L190.19,200.87 L192.77,200.07 L195.10,198.80 L197.13,197.13 L198.80,195.10 L200.07,192.77 L200.86,190.19 L201.14,187.43 L200.86,184.67 L200.07,182.09 L198.80,179.76 L197.13,177.73 L195.10,176.06 L192.77,174.79 L190.19,174.00 L187.43,173.72 L184.66,174.00 L182.09,174.79 L179.76,176.06 L177.73,177.73 L176.06,179.76 L174.79,182.09 L173.99,184.67 L173.71,187.43 Z" fill="#ffffff" stroke="#1e1e1e" stroke-width="1" stroke-linejoin="round"/></svg>