<svg xmlns="http://www.w3.org/2000/svg" viewBox="19.33 30.00 217.33 206.67"><path d="M197.33,42.67 L200.06,42.80 L202.71,43.21 L205.26,43.87 L207.71,44.76 L210.04,45.89 L212.24,47.22 L214.30,48.76 L216.19,50.48 L217.91,52.37 L219.45,54.42 L220.78,56.62 L221.90,58.95 L222.80,61.40 L223.46,63.96 L223.86,66.61 L224.00,69.33 L223.86,72.06 L223.46,74.71 L222.80,77.26 L221.90,79.71 L220.78,82.04 L219.45,84.24 L217.91,86.30 L216.19,88.19 L214.30,89.91 L212.24,91.45 L210.04,92.78 L207.71,93.90 L205.26,94.80 L202.71,95.46 L200.06,95.86 L197.33,96.00 L194.61,95.86 L191.96,95.46 L189.40,94.80 L186.95,93.90 L184.62,92.78 L182.42,91.45 L180.37,89.91 L178.48,88.19 L176.76,86.30 L175.22,84.24 L173.89,82.04 L172.76,79.71 L171.87,77.26 L171.21,74.71 L170.80,72.06 L170.67,69.33 L170.80,66.61 L171.21,63.96 L171.87,61.40 L172.76,58.95 L173.89,56.62 L175.22,54.42 L176.76,52.37 L178.48,50.48 L180.37,48.76 L182.42,47.22 L184.62,45.89 L186.95,44.76 L189.40,43.87 L191.96,43.21 L194.61,42.80 L197.33,42.67 Z" fill="#aab1fa" stroke="#1e1e1e" stroke-width="1" stroke-linejoin="round"/><path d="M128.00,32.00 L131.27,32.17 L134.45,32.65 L137.52,33.44 L140.46,34.51 L143.25,35.86 L145.89,37.47 L148.35,39.31 L150.63,41.37 L152.69,43.65 L154.53,46.11 L156.14,48.75 L157.49,51.54 L158.56,54.48 L159.35,57.55 L159.83,60.73 L160.00,64.00 L159.83,67.27 L159.35,70.45 L158.56,73.52 L157.49,76.46 L156.14,79.25 L154.53,81.89 L152.69,84.35 L150.63,86.63 L148.35,88.69 L145.89,90.53 L143.25,92.14 L140.46,93.49 L137.52,94.56 L134.45,95.35 L131.27,95.83 L128.00,96.00 L124.73,95.83 L121.55,95.35 L118.48,94.56 L115.54,93.49 L112.75,92.14 L110.11,90.53 L107.65,88.69 L105.37,86.63 L103.31,84.35 L101.47,81.89 L99.86,79.25 L98.51,76.46 L97.44,73.52 L96.65,70.45 L96.17,67.27 L96.00,64.00 L96.17,60.73 L96.65,57.55 L97.44,54.48 L98.51,51.54 L99.86,48.75 L101.47,46.11 L103.31,43.65 L105.37,41.37 L107.65,39.31 L110.11,37.47 L112.75,35.86 L115.54,34.51 L118.48,33.44 L121.55,32.65 L124.73,32.17 L128.00,32.00 Z" fill="#aab1fa" stroke="#1e1e1e" stroke-width="1" stroke-linejoin="round"/><path d="M234.67,125.33 L234.57,123.42 L234.29,121.57 L233.83,119.78 L233.20,118.07 L232.41,116.44 L231.48,114.90 L230.40,113.46 L229.20,112.13 L227.87,110.93 L226.44,109.85 L224.90,108.92 L223.27,108.13 L221.55,107.51 L219.76,107.05 L217.91,106.76 L216.00,106.67 L180.00,106.66 L181.49,108.62 L182.81,110.72 L183.96,112.92 L184.93,115.24 L185.69,117.64 L186.25,120.13 L186.59,122.70 L186.71,125.33 L186.71,138.67 L186.67,138.67 L186.67,170.67 L226.67,170.67 L228.28,170.50 L229.78,170.04 L231.14,169.30 L232.32,168.32 L233.30,167.14 L234.04,165.78 L234.50,164.28 L234.67,162.67 L234.67,125.33 Z" fill="#aab1fa" stroke="#1e1e1e" stroke-width="1" stroke-linejoin="round"/><path d="M157.38,106.67 L159.28,106.76 L161.14,107.05 L162.93,107.51 L164.64,108.13 L166.27,108.92 L167.81,109.85 L169.25,110.93 L170.58,112.13 L171.78,113.46 L172.85,114.90 L173.79,116.44 L174.58,118.07 L175.20,119.78 L175.66,121.57 L175.95,123.42 L176.04,125.33 L176.04,160.00 L176.00,160.00 L176.00,170.67 L80.00,170.67 L80.00,138.67 L80.02,138.67 L80.02,125.33 L80.12,123.42 L80.40,121.57 L80.86,119.78 L81.49,118.07 L82.27,116.44 L83.21,114.90 L84.28,113.46 L85.49,112.13 L86.81,110.93 L88.25,109.85 L89.79,108.92 L91.42,108.13 L93.14,107.51 L94.93,107.05 L96.78,106.76 L98.69,106.67 L157.38,106.67 Z" fill="#aab1fa" stroke="#1e1e1e" stroke-width="1" stroke-linejoin="round"/><path d="M69.33,160.00 L69.35,160.00 L69.35,125.33 L69.45,122.99 L69.72,120.70 L70.16,118.46 L70.77,116.29 L71.54,114.20 L72.46,112.18 L73.53,110.24 L74.73,108.40 L76.07,106.66 L40.00,106.67 L38.47,106.73 L36.70,106.96 L34.98,107.35 L33.33,107.90 L31.74,108.59 L28.83,110.38 L26.30,112.65 L24.23,115.35 L22.66,118.40 L22.09,120.05 L21.68,121.75 L21.42,123.52 L21.33,125.33 L21.33,162.67 L21.50,164.28 L21.96,165.78 L22.70,167.14 L23.68,168.32 L24.86,169.30 L26.22,170.04 L27.72,170.50 L29.33,170.67 L69.33,170.67 L69.33,160.00 Z" fill="#aab1fa" stroke="#1e1e1e" stroke-width="1" stroke-linejoin="round"/><path d="M58.67,42.67 L61.39,42.80 L64.04,43.21 L66.60,43.87 L69.05,44.76 L71.38,45.89 L73.58,47.22 L75.63,48.76 L77.52,50.48 L79.24,52.37 L80.78,54.42 L82.11,56.62 L83.24,58.95 L84.13,61.40 L84.79,63.96 L85.20,66.61 L85.33,69.33 L85.20,72.06 L84.79,74.71 L84.13,77.26 L83.24,79.71 L82.11,82.04 L80.78,84.24 L79.24,86.30 L77.52,88.19 L75.63,89.91 L73.58,91.45 L71.38,92.78 L69.05,93.90 L66.60,94.80 L64.04,95.46 L61.39,95.86 L58.67,96.00 L55.94,95.86 L53.29,95.46 L50.74,94.80 L48.29,93.90 L45.96,92.78 L43.76,91.45 L41.70,89.91 L39.81,88.19 L38.09,86.30 L36.55,84.24 L35.22,82.04 L34.10,79.71 L33.20,77.26 L32.54,74.71 L32.14,72.06 L32.00,69.33 L32.14,66.61 L32.54,63.96 L33.20,61.40 L34.10,58.95 L35.22,56.62 L36.55,54.42 L38.09,52.37 L39.81,50.48 L41.70,48.76 L43.76,47.22 L45.96,45.89 L48.29,44.76 L50.74,43.87 L53.29,43.21 L55.94,42.80 L58.67,42.67 Z" fill="#aab1fa" stroke="#1e1e1e" stroke-width="1" stroke-linejoin="round"/><path d="M21.33,189.33 L21.50,187.72 L21.96,186.22 L22.70,184.86 L23.68,183.68 L24.86,182.70 L26.22,181.96 L27.72,181.50 L29.33,181.33 L226.67,181.33 L228.28,181.50 L229.78,181.96 L231.14,182.70 L232.32,183.68 L233.30,184.86 L234.04,186.22 L234.50,187.72 L234.67,189.33 L234.67,194.67 L234.46,198.76 L233.85,202.73 L232.87,206.56 L231.52,210.24 L229.84,213.73 L227.84,217.03 L225.53,220.11 L222.95,222.95 L220.11,225.53 L217.03,227.84 L213.73,229.84 L210.24,231.52 L206.56,232.87 L202.73,233.85 L198.76,234.46 L194.67,234.67 L61.33,234.67 L57.24,234.46 L53.27,233.85 L49.44,232.87 L45.76,231.52 L42.27,229.84 L38.97,227.84 L35.89,225.53 L33.05,222.95 L30.47,220.11 L28.16,217.03 L26.16,213.73 L24.48,210.24 L23.13,206.56 L22.15,202.73 L21.54,198.76 L21.33,194.67 L21.33,189.33 Z" fill="#5b5fc7" stroke="#1e1e1e" stroke-width="1" stroke-linejoin="round"/></svg>