<svg xmlns="http://www.w3.org/2000/svg" viewBox="7.60 12.40 100.00 95.20"><path d="M88.80,19.20 L90.03,19.26 L91.22,19.44 L92.37,19.74 L93.47,20.14 L94.52,20.65 L95.51,21.25 L96.43,21.94 L97.29,22.71 L98.06,23.57 L98.75,24.49 L99.35,25.48 L99.86,26.53 L100.26,27.63 L100.56,28.78 L100.74,29.97 L100.80,31.20 L100.74,32.43 L100.56,33.62 L100.26,34.77 L99.86,35.87 L99.35,36.92 L98.75,37.91 L98.06,38.83 L97.29,39.69 L96.43,40.46 L95.51,41.15 L94.52,41.75 L93.47,42.26 L92.37,42.66 L91.22,42.96 L90.03,43.14 L88.80,43.20 L87.57,43.14 L86.38,42.96 L85.23,42.66 L84.13,42.26 L83.08,41.75 L82.09,41.15 L81.17,40.46 L80.31,39.69 L79.54,38.83 L78.85,37.91 L78.25,36.92 L77.74,35.87 L77.34,34.77 L77.04,33.62 L76.86,32.43 L76.80,31.20 L76.86,29.97 L77.04,28.78 L77.34,27.63 L77.74,26.53 L78.25,25.48 L78.85,24.49 L79.54,23.57 L80.31,22.71 L81.17,21.94 L82.09,21.25 L83.08,20.65 L84.13,20.14 L85.23,19.74 L86.38,19.44 L87.57,19.26 L88.80,19.20 Z" fill="#aab1fa" stroke="#1e1e1e" stroke-width="1" stroke-linejoin="round"/><path d="M57.60,14.40 L59.07,14.47 L60.50,14.69 L61.88,15.05 L63.21,15.53 L64.46,16.14 L65.65,16.86 L66.76,17.69 L67.78,18.62 L68.71,19.64 L69.54,20.75 L70.26,21.94 L70.87,23.19 L71.35,24.52 L71.71,25.90 L71.93,27.33 L72.00,28.80 L71.93,30.27 L71.71,31.70 L71.35,33.08 L70.87,34.41 L70.26,35.66 L69.54,36.85 L68.71,37.96 L67.78,38.98 L66.76,39.91 L65.65,40.74 L64.46,41.46 L63.21,42.07 L61.88,42.55 L60.50,42.91 L59.07,43.13 L57.60,43.20 L56.13,43.13 L54.70,42.91 L53.32,42.55 L51.99,42.07 L50.74,41.46 L49.55,40.74 L48.44,39.91 L47.42,38.98 L46.49,37.96 L45.66,36.85 L44.94,35.66 L44.33,34.41 L43.85,33.08 L43.49,31.70 L43.27,30.27 L43.20,28.80 L43.27,27.33 L43.49,25.90 L43.85,24.52 L44.33,23.19 L44.94,21.94 L45.66,20.75 L46.49,19.64 L47.42,18.62 L48.44,17.69 L49.55,16.86 L50.74,16.14 L51.99,15.53 L53.32,15.05 L54.70,14.69 L56.13,14.47 L57.60,14.40 Z" fill="#aab1fa" stroke="#1e1e1e" stroke-width="1" stroke-linejoin="round"/><path d="M105.60,56.40 L105.56,55.54 L105.43,54.71 L105.22,53.90 L104.94,53.13 L104.59,52.40 L104.17,51.70 L103.68,51.06 L103.14,50.46 L102.54,49.92 L101.90,49.43 L101.20,49.01 L100.47,48.66 L99.70,48.38 L98.89,48.17 L98.06,48.04 L97.20,48.00 L81.00,48.00 L81.67,48.88 L82.27,49.82 L82.78,50.82 L83.22,51.86 L83.56,52.94 L83.81,54.06 L83.97,55.22 L84.02,56.40 L84.02,62.40 L84.00,62.40 L84.00,76.80 L102.00,76.80 L102.73,76.73 L103.40,76.52 L104.01,76.19 L104.55,75.75 L104.99,75.21 L105.32,74.60 L105.53,73.93 L105.60,73.20 L105.60,56.40 Z" fill="#aab1fa" stroke="#1e1e1e" stroke-width="1" stroke-linejoin="round"/><path d="M70.82,48.00 L71.68,48.04 L72.51,48.17 L73.32,48.38 L74.09,48.66 L74.82,49.01 L75.52,49.43 L76.16,49.92 L76.76,50.46 L77.30,51.06 L77.78,51.70 L78.21,52.40 L78.56,53.13 L78.84,53.90 L79.05,54.71 L79.18,55.54 L79.22,56.40 L79.22,72.00 L79.20,72.00 L79.20,76.80 L36.00,76.80 L36.00,62.40 L36.01,62.40 L36.01,56.40 L36.05,55.54 L36.18,54.71 L36.39,53.90 L36.67,53.13 L37.02,52.40 L37.44,51.70 L37.93,51.06 L38.47,50.46 L39.07,49.92 L39.71,49.43 L40.41,49.01 L41.14,48.66 L41.91,48.38 L42.72,48.17 L43.55,48.04 L44.41,48.00 L70.82,48.00 Z" fill="#aab1fa" stroke="#1e1e1e" stroke-width="1" stroke-linejoin="round"/><path d="M31.20,72.00 L31.21,72.00 L31.21,56.40 L31.25,55.35 L31.37,54.31 L31.57,53.31 L31.85,52.33 L32.19,51.39 L32.61,50.48 L33.09,49.61 L33.63,48.78 L34.23,48.00 L18.00,48.00 L17.31,48.03 L16.51,48.13 L15.74,48.31 L15.00,48.55 L14.29,48.86 L12.97,49.67 L11.84,50.69 L10.90,51.91 L10.20,53.28 L9.94,54.02 L9.75,54.79 L9.64,55.58 L9.60,56.40 L9.60,73.20 L9.67,73.93 L9.88,74.60 L10.21,75.21 L10.65,75.75 L11.19,76.19 L11.80,76.52 L12.47,76.73 L13.20,76.80 L31.20,76.80 L31.20,72.00 Z" fill="#aab1fa" stroke="#1e1e1e" stroke-width="1" stroke-linejoin="round"/><path d="M26.40,19.20 L27.63,19.26 L28.82,19.44 L29.97,19.74 L31.07,20.14 L32.12,20.65 L33.11,21.25 L34.03,21.94 L34.89,22.71 L35.66,23.57 L36.35,24.49 L36.95,25.48 L37.46,26.53 L37.86,27.63 L38.16,28.78 L38.34,29.97 L38.40,31.20 L38.34,32.43 L38.16,33.62 L37.86,34.77 L37.46,35.87 L36.95,36.92 L36.35,37.91 L35.66,38.83 L34.89,39.69 L34.03,40.46 L33.11,41.15 L32.12,41.75 L31.07,42.26 L29.97,42.66 L28.82,42.96 L27.63,43.14 L26.40,43.20 L25.17,43.14 L23.98,42.96 L22.83,42.66 L21.73,42.26 L20.68,41.75 L19.69,41.15 L18.77,40.46 L17.91,39.69 L17.14,38.83 L16.45,37.91 L15.85,36.92 L15.34,35.87 L14.94,34.77 L14.64,33.62 L14.46,32.43 L14.40,31.20 L14.46,29.97 L14.64,28.78 L14.94,27.63 L15.34,26.53 L15.85,25.48 L16.45,24.49 L17.14,23.57 L17.91,22.71 L18.77,21.94 L19.69,21.25 L20.68,20.65 L21.73,20.14 L22.83,19.74 L23.98,19.44 L25.17,19.26 L26.40,19.20 Z" fill="#aab1fa" stroke="#1e1e1e" stroke-width="1" stroke-linejoin="round"/><path d="M9.60,85.20 L9.67,84.47 L9.88,83.80 L10.21,83.19 L10.65,82.65 L11.19,82.21 L11.80,81.88 L12.47,81.67 L13.20,81.60 L102.00,81.60 L102.73,81.67 L103.40,81.88 L104.01,82.21 L104.55,82.65 L104.99,83.19 L105.32,83.80 L105.53,84.47 L105.60,85.20 L105.60,87.60 L105.51,89.44 L105.23,91.23 L104.79,92.95 L104.19,94.61 L103.43,96.18 L102.53,97.66 L101.49,99.05 L100.33,100.33 L99.05,101.49 L97.66,102.53 L96.18,103.43 L94.61,104.19 L92.95,104.79 L91.23,105.23 L89.44,105.51 L87.60,105.60 L27.60,105.60 L25.76,105.51 L23.97,105.23 L22.25,104.79 L20.59,104.19 L19.02,103.43 L17.54,102.53 L16.15,101.49 L14.87,100.33 L13.71,99.05 L12.67,97.66 L11.77,96.18 L11.01,94.61 L10.41,92.95 L9.97,91.23 L9.69,89.44 L9.60,87.60 L9.60,85.20 Z" fill="#5b5fc7" stroke="#1e1e1e" stroke-width="1" stroke-linejoin="round"/></svg>