<svg xmlns="http://www.w3.org/2000/svg" viewBox="23.60 23.60 219.67 216.63"><path d="M136.13,178.17 L138.67,177.38 L141.07,176.36 L143.32,175.11 L145.41,173.66 L147.33,172.03 L149.07,170.22 L150.61,168.27 L151.96,166.17 L153.10,163.96 L154.03,161.64 L154.72,159.23 L155.18,156.75 L155.39,154.22 L155.34,151.65 L155.03,149.05 L154.44,146.46 L152.44,139.33 L154.93,137.52 L157.52,135.86 L160.20,134.33 L162.96,132.96 L167.28,137.54 L169.25,139.43 L171.37,141.06 L173.60,142.44 L175.94,143.57 L178.36,144.45 L180.84,145.08 L183.36,145.46 L185.90,145.59 L188.44,145.46 L190.96,145.09 L193.44,144.46 L195.86,143.58 L198.20,142.46 L200.43,141.08 L202.55,139.45 L204.52,137.56 L208.68,133.16 L211.49,134.59 L214.22,136.18 L216.84,137.91 L219.36,139.79 L217.75,145.20 L217.11,147.85 L216.75,150.50 L216.68,153.12 L216.87,155.71 L217.32,158.25 L218.02,160.71 L218.95,163.08 L220.11,165.34 L221.49,167.48 L223.08,169.47 L224.87,171.30 L226.84,172.96 L228.98,174.42 L231.30,175.66 L233.77,176.68 L236.39,177.44 L240.85,178.50 L241.17,182.02 L241.27,185.60 L240.98,191.51 L235.09,193.02 L232.54,193.81 L230.14,194.83 L227.89,196.08 L225.81,197.53 L223.89,199.16 L222.15,200.97 L220.60,202.93 L219.25,205.02 L218.11,207.24 L217.19,209.56 L216.50,211.96 L216.04,214.44 L215.83,216.98 L215.88,219.55 L216.19,222.14 L216.78,224.74 L218.77,231.86 L216.28,233.67 L213.70,235.34 L211.02,236.86 L208.25,238.23 L203.94,233.65 L201.96,231.77 L199.85,230.13 L197.62,228.75 L195.28,227.62 L192.86,226.74 L190.38,226.11 L187.86,225.73 L185.32,225.61 L182.78,225.73 L180.26,226.11 L177.78,226.73 L175.36,227.61 L173.02,228.74 L170.78,230.12 L168.67,231.75 L166.69,233.63 L162.53,238.03 L159.72,236.61 L157.00,235.02 L154.37,233.29 L151.85,231.41 L153.47,225.99 L154.11,223.34 L154.47,220.70 L154.54,218.07 L154.35,215.48 L153.90,212.95 L153.20,210.49 L152.27,208.11 L151.10,205.85 L149.72,203.72 L148.14,201.72 L146.35,199.89 L144.38,198.23 L142.23,196.78 L139.92,195.53 L137.45,194.52 L134.83,193.75 L130.36,192.69 L130.04,189.17 L129.94,185.60 L130.23,179.68 L136.13,178.17 Z" fill="#8dc8e8" stroke="#1e1e1e" stroke-width="1" stroke-linejoin="round"/><path d="M185.61,172.80 L188.19,173.06 L190.59,173.80 L192.76,174.98 L194.66,176.55 L196.22,178.44 L197.40,180.62 L198.15,183.02 L198.41,185.60 L198.15,188.18 L197.40,190.58 L196.22,192.75 L194.66,194.65 L192.76,196.21 L190.59,197.39 L188.19,198.14 L185.61,198.40 L183.03,198.14 L180.62,197.39 L178.45,196.21 L176.55,194.65 L174.99,192.75 L173.81,190.58 L173.07,188.18 L172.81,185.60 L173.07,183.02 L173.81,180.62 L174.99,178.44 L176.55,176.55 L178.45,174.98 L180.62,173.80 L183.03,173.06 L185.61,172.80 Z" fill="#ffffff" stroke="#1e1e1e" stroke-width="1" stroke-linejoin="round"/><path d="M51.31,140.80 L48.69,140.93 L46.14,141.32 L43.68,141.94 L41.32,142.80 L39.08,143.87 L36.96,145.14 L34.98,146.61 L33.15,148.26 L31.49,150.07 L30.00,152.04 L28.71,154.15 L27.63,156.39 L26.76,158.75 L26.12,161.21 L25.73,163.76 L25.60,166.40 L25.72,170.40 L26.09,174.27 L26.69,178.01 L27.53,181.63 L28.58,185.12 L29.85,188.49 L31.33,191.72 L33.01,194.83 L34.89,197.81 L36.96,200.66 L39.20,203.38 L41.63,205.96 L44.22,208.42 L46.97,210.74 L49.87,212.94 L52.93,215.00 L56.07,216.89 L59.34,218.66 L62.73,220.30 L66.24,221.82 L73.58,224.47 L81.32,226.62 L89.39,228.28 L97.76,229.46 L106.38,230.17 L115.20,230.40 L123.02,230.22 L130.69,229.67 L127.25,224.99 L124.18,220.04 L121.53,214.82 L119.31,209.36 L117.55,203.69 L116.26,197.83 L115.47,191.79 L115.20,185.60 L115.48,179.29 L116.30,173.13 L117.64,167.16 L119.48,161.38 L121.78,155.84 L124.54,150.54 L127.71,145.52 L131.29,140.80 L51.31,140.80 Z" fill="#0078d4" stroke="#1e1e1e" stroke-width="1" stroke-linejoin="round"/><path d="M115.20,25.60 L109.97,25.86 L104.88,26.64 L99.97,27.90 L95.27,29.62 L90.80,31.78 L86.57,34.34 L82.63,37.29 L79.00,40.60 L75.69,44.23 L72.74,48.17 L70.18,52.40 L68.02,56.87 L66.30,61.57 L65.04,66.48 L64.26,71.57 L64.00,76.80 L64.26,82.03 L65.04,87.12 L66.30,92.03 L68.02,96.73 L70.18,101.20 L72.74,105.43 L75.69,109.37 L79.00,113.00 L82.63,116.31 L86.57,119.26 L90.80,121.82 L95.27,123.98 L99.97,125.70 L104.88,126.96 L109.97,127.74 L115.20,128.00 L120.43,127.74 L125.52,126.96 L130.43,125.70 L135.13,123.98 L139.61,121.82 L143.83,119.26 L147.77,116.31 L151.40,113.00 L154.71,109.37 L157.66,105.43 L160.22,101.20 L162.38,96.73 L164.10,92.03 L165.36,87.12 L166.14,82.03 L166.40,76.80 L166.14,71.57 L165.36,66.48 L164.10,61.57 L162.38,56.87 L160.22,52.40 L157.66,48.17 L154.71,44.23 L151.40,40.60 L147.77,37.29 L143.83,34.34 L139.61,31.78 L135.13,29.62 L130.43,27.90 L125.52,26.64 L120.43,25.86 L115.20,25.60 Z" fill="#0078d4" stroke="#1e1e1e" stroke-width="1" stroke-linejoin="round"/></svg>