<svg xmlns="http://www.w3.org/2000/svg" viewBox="19.37 19.39 227.96 227.95"><path d="M138.67,149.34 L138.67,149.87 L136.42,150.43 L134.26,151.17 L132.18,152.09 L130.20,153.18 L128.33,154.43 L126.57,155.82 L124.93,157.36 L123.44,159.03 L122.08,160.81 L120.87,162.72 L119.83,164.72 L118.96,166.82 L118.26,169.01 L117.75,171.28 L117.44,173.61 L117.33,176.00 L117.33,229.34 L117.45,231.85 L117.80,234.31 L112.31,234.59 L106.67,234.68 L99.94,234.55 L93.44,234.14 L87.16,233.47 L81.11,232.53 L75.29,231.32 L69.71,229.84 L64.35,228.10 L59.23,226.08 L54.34,223.79 L49.69,221.23 L45.28,218.40 L41.10,215.29 L37.17,211.92 L33.48,208.27 L30.03,204.35 L26.82,200.16 L25.57,198.25 L24.47,196.26 L23.54,194.20 L22.77,192.07 L22.16,189.89 L21.73,187.67 L21.46,185.42 L21.37,183.14 L21.37,173.32 L21.50,170.87 L21.86,168.49 L22.45,166.19 L23.26,163.99 L24.27,161.89 L25.47,159.91 L26.85,158.06 L28.40,156.36 L30.10,154.81 L31.95,153.43 L33.93,152.23 L36.03,151.22 L38.23,150.41 L40.53,149.82 L42.91,149.46 L45.36,149.34 L138.67,149.34 Z" fill="#0078d4" stroke="#1e1e1e" stroke-width="1" stroke-linejoin="round"/><path d="M160.00,74.72 L159.73,69.27 L158.92,63.97 L157.61,58.86 L155.81,53.96 L153.57,49.30 L150.90,44.90 L147.83,40.79 L144.38,37.01 L140.60,33.56 L136.49,30.49 L132.09,27.82 L127.43,25.58 L122.53,23.78 L117.42,22.47 L112.12,21.66 L106.67,21.39 L101.22,21.66 L95.92,22.47 L90.81,23.78 L85.91,25.58 L81.25,27.82 L76.85,30.49 L72.75,33.56 L68.96,37.01 L65.52,40.79 L62.45,44.90 L59.77,49.30 L57.53,53.96 L55.73,58.86 L54.42,63.97 L53.61,69.27 L53.34,74.72 L53.61,80.17 L54.42,85.47 L55.73,90.58 L57.53,95.48 L59.77,100.14 L62.45,104.54 L65.52,108.64 L68.96,112.43 L72.75,115.87 L76.85,118.94 L81.25,121.62 L85.91,123.86 L90.81,125.65 L95.92,126.97 L101.22,127.78 L106.67,128.05 L112.12,127.78 L117.42,126.97 L122.53,125.65 L127.43,123.86 L132.09,121.62 L136.49,118.94 L140.60,115.87 L144.38,112.43 L147.83,108.64 L150.90,104.54 L153.57,100.14 L155.81,95.48 L157.61,90.58 L158.92,85.47 L159.73,80.17 L160.00,74.72 Z" fill="#0078d4" stroke="#1e1e1e" stroke-width="1" stroke-linejoin="round"/><path d="M149.33,160.00 L144.00,160.00 L142.36,160.09 L140.78,160.33 L137.77,161.26 L135.05,162.74 L132.69,164.69 L130.73,167.06 L129.26,169.78 L128.33,172.78 L128.08,174.37 L128.00,176.00 L128.00,229.34 L128.08,230.97 L128.33,232.56 L129.26,235.56 L130.73,238.28 L132.69,240.65 L135.05,242.60 L137.77,244.08 L140.78,245.01 L142.36,245.25 L144.00,245.34 L229.33,245.34 L230.97,245.25 L232.56,245.01 L235.56,244.08 L238.28,242.60 L240.65,240.65 L242.60,238.28 L244.08,235.56 L245.01,232.56 L245.25,230.97 L245.33,229.34 L245.33,176.00 L245.25,174.37 L245.01,172.78 L244.08,169.78 L242.60,167.06 L240.65,164.69 L238.28,162.74 L235.56,161.26 L232.56,160.33 L230.97,160.09 L229.33,160.00 L224.00,160.00 L224.00,146.67 L223.90,144.76 L223.62,142.91 L223.16,141.12 L222.53,139.40 L221.75,137.77 L220.81,136.23 L219.74,134.80 L218.53,133.47 L217.21,132.27 L215.77,131.19 L214.23,130.26 L212.60,129.47 L210.88,128.84 L209.10,128.38 L207.24,128.10 L205.33,128.00 L168.00,128.00 L166.09,128.10 L164.24,128.38 L162.45,128.84 L160.73,129.47 L159.10,130.26 L157.56,131.19 L156.13,132.27 L154.80,133.47 L153.60,134.80 L152.52,136.23 L151.59,137.77 L150.80,139.40 L150.17,141.12 L149.71,142.91 L149.43,144.76 L149.33,146.67 L149.33,160.00 Z" fill="#8dc8e8" stroke="#1e1e1e" stroke-width="1" stroke-linejoin="round"/><path d="M168.00,144.00 L166.96,144.21 L166.11,144.78 L165.54,145.63 L165.33,146.67 L165.33,160.00 L208.00,160.00 L208.00,146.67 L207.79,145.63 L207.22,144.78 L206.37,144.21 L205.33,144.00 L168.00,144.00 Z" fill="#ffffff" stroke="#1e1e1e" stroke-width="1" stroke-linejoin="round"/></svg>