<svg xmlns="http://www.w3.org/2000/svg" viewBox="14.94 9.29 94.35 100.00"><path d="M33.88,33.88 L34.00,31.57 L34.34,29.33 L34.90,27.17 L35.66,25.09 L36.61,23.12 L37.74,21.25 L39.04,19.51 L40.50,17.91 L42.10,16.45 L43.84,15.15 L45.70,14.02 L47.68,13.07 L49.75,12.31 L51.92,11.75 L54.16,11.41 L56.47,11.29 L58.78,11.41 L61.02,11.75 L63.19,12.31 L65.26,13.07 L67.24,14.02 L69.10,15.15 L70.84,16.45 L72.44,17.91 L73.90,19.51 L75.20,21.25 L76.33,23.12 L77.28,25.09 L78.04,27.17 L78.60,29.33 L78.94,31.57 L79.06,33.88 L78.94,36.19 L78.60,38.43 L78.04,40.60 L77.28,42.67 L76.33,44.65 L75.20,46.51 L73.90,48.25 L72.44,49.85 L70.84,51.31 L69.10,52.61 L67.24,53.74 L65.26,54.70 L63.19,55.46 L61.02,56.01 L58.78,56.35 L56.47,56.47 L54.16,56.35 L51.92,56.01 L49.75,55.46 L47.68,54.70 L45.70,53.74 L43.84,52.61 L42.10,51.31 L40.50,49.85 L39.04,48.25 L37.74,46.51 L36.61,44.65 L35.66,42.67 L34.90,40.60 L34.34,38.43 L34.00,36.19 L33.88,33.88 Z" fill="#0078d4" stroke="#1e1e1e" stroke-width="1" stroke-linejoin="round"/><path d="M16.94,73.41 L17.00,72.25 L17.17,71.12 L17.45,70.04 L17.84,69.00 L18.31,68.01 L18.88,67.08 L19.54,66.21 L20.27,65.41 L21.08,64.68 L21.95,64.03 L22.89,63.47 L23.88,63.00 L24.92,62.62 L26.00,62.35 L27.13,62.18 L28.28,62.12 L52.33,62.12 L51.69,63.41 L51.22,64.79 L50.92,66.25 L50.82,67.76 L50.82,90.35 L50.87,91.41 L51.02,92.44 L51.25,93.43 L51.57,94.39 L51.97,95.31 L52.45,96.19 L53.00,97.02 L53.62,97.79 L54.30,98.51 L55.05,99.16 L55.84,99.75 L56.70,100.26 L57.59,100.70 L58.53,101.07 L59.51,101.34 L60.52,101.54 L56.47,101.65 L52.58,101.54 L48.78,101.23 L45.08,100.71 L41.52,99.98 L38.11,99.03 L34.87,97.86 L33.32,97.19 L31.83,96.47 L30.38,95.69 L29.00,94.85 L27.65,93.94 L26.37,92.98 L25.15,91.95 L24.01,90.87 L22.94,89.72 L21.95,88.53 L21.04,87.27 L20.21,85.95 L19.47,84.58 L18.82,83.16 L18.26,81.67 L17.79,80.13 L17.42,78.53 L17.16,76.88 L17.00,75.17 L16.94,73.41 Z" fill="#0078d4" stroke="#1e1e1e" stroke-width="1" stroke-linejoin="round"/><path d="M56.47,67.76 L56.59,66.63 L56.91,65.57 L57.43,64.61 L58.12,63.77 L58.96,63.08 L59.92,62.56 L60.98,62.23 L62.12,62.12 L101.65,62.12 L102.79,62.23 L103.85,62.56 L104.80,63.08 L105.64,63.77 L106.33,64.61 L106.85,65.57 L107.18,66.63 L107.29,67.76 L107.29,90.35 L107.18,91.49 L106.85,92.55 L106.33,93.51 L105.64,94.35 L104.80,95.04 L103.85,95.56 L102.79,95.89 L101.65,96.00 L90.35,96.00 L90.35,101.65 L93.18,101.65 L93.75,101.70 L94.28,101.87 L94.76,102.13 L95.17,102.47 L95.52,102.89 L95.78,103.37 L95.94,103.90 L96.00,104.47 L95.94,105.04 L95.78,105.57 L95.52,106.05 L95.17,106.47 L94.76,106.81 L94.28,107.07 L93.75,107.24 L93.18,107.29 L70.59,107.29 L70.02,107.24 L69.49,107.07 L69.01,106.81 L68.59,106.47 L68.25,106.05 L67.99,105.57 L67.82,105.04 L67.76,104.47 L67.82,103.90 L67.99,103.37 L68.25,102.89 L68.59,102.47 L69.01,102.13 L69.49,101.87 L70.02,101.70 L70.59,101.65 L73.41,101.65 L73.41,96.00 L62.12,96.00 L60.98,95.89 L59.92,95.56 L58.96,95.04 L58.12,94.35 L57.43,93.51 L56.91,92.55 L56.59,91.49 L56.47,90.35 L56.47,67.76 Z" fill="#8dc8e8" stroke="#1e1e1e" stroke-width="1" stroke-linejoin="round"/></svg>