<svg xmlns="http://www.w3.org/2000/svg" viewBox="17.20 7.60 80.80 100.00"><path d="M57.60,9.60 L55.15,9.72 L52.76,10.09 L50.46,10.68 L48.26,11.49 L46.16,12.50 L44.18,13.70 L42.33,15.08 L40.63,16.63 L39.08,18.33 L37.70,20.18 L36.50,22.16 L35.49,24.26 L34.68,26.46 L34.09,28.76 L33.72,31.15 L33.60,33.60 L33.72,36.05 L34.09,38.44 L34.68,40.74 L35.49,42.94 L36.50,45.04 L37.70,47.02 L39.08,48.87 L40.63,50.57 L42.33,52.12 L44.18,53.50 L46.16,54.70 L48.26,55.71 L50.46,56.52 L52.76,57.11 L55.15,57.48 L57.60,57.60 L60.05,57.48 L62.44,57.11 L64.74,56.52 L66.94,55.71 L69.04,54.70 L71.02,53.50 L72.87,52.12 L74.57,50.57 L76.12,48.87 L77.50,47.02 L78.70,45.04 L79.71,42.94 L80.52,40.74 L81.11,38.44 L81.48,36.05 L81.60,33.60 L81.48,31.15 L81.11,28.76 L80.52,26.46 L79.71,24.26 L78.70,22.16 L77.50,20.18 L76.12,18.33 L74.57,16.63 L72.87,15.08 L71.02,13.70 L69.04,12.50 L66.94,11.49 L64.74,10.68 L62.44,10.09 L60.05,9.72 L57.60,9.60 Z" fill="#0078d4" stroke="#1e1e1e" stroke-width="1" stroke-linejoin="round"/><path d="M29.40,67.20 L28.36,67.25 L27.34,67.41 L26.37,67.66 L25.43,68.00 L24.54,68.43 L23.70,68.94 L22.91,69.53 L22.19,70.19 L21.53,70.91 L20.94,71.69 L20.43,72.54 L20.00,73.43 L19.66,74.36 L19.41,75.34 L19.25,76.35 L19.20,77.40 L19.20,79.20 L19.25,80.86 L19.41,82.47 L19.68,84.03 L20.04,85.53 L20.50,86.98 L21.05,88.38 L21.69,89.72 L22.42,91.00 L23.24,92.24 L24.13,93.41 L25.10,94.53 L26.15,95.60 L27.26,96.61 L28.45,97.57 L29.70,98.47 L31.01,99.31 L32.35,100.09 L33.75,100.81 L36.71,102.10 L39.84,103.18 L43.15,104.06 L46.60,104.74 L50.17,105.22 L53.84,105.51 L57.60,105.60 L61.36,105.51 L65.03,105.22 L68.60,104.74 L72.05,104.06 L75.36,103.18 L78.49,102.10 L81.45,100.81 L82.85,100.09 L84.19,99.31 L85.50,98.47 L86.75,97.57 L87.94,96.61 L89.05,95.60 L90.10,94.53 L91.07,93.41 L91.96,92.24 L92.78,91.00 L93.51,89.72 L94.15,88.38 L94.70,86.98 L95.16,85.53 L95.52,84.03 L95.79,82.47 L95.95,80.86 L96.00,79.20 L96.00,77.40 L95.95,76.35 L95.79,75.34 L95.54,74.36 L95.20,73.43 L94.77,72.54 L94.26,71.69 L93.67,70.91 L93.01,70.19 L92.29,69.53 L91.50,68.94 L90.66,68.43 L89.77,68.00 L88.83,67.66 L87.86,67.41 L86.84,67.25 L85.80,67.20 L29.40,67.20 Z" fill="#0078d4" stroke="#1e1e1e" stroke-width="1" stroke-linejoin="round"/></svg>