<svg xmlns="http://www.w3.org/2000/svg" viewBox="7.16 7.17 100.00 100.00"><path d="M59.44,64.01 L59.44,64.24 L58.48,64.48 L57.55,64.80 L56.66,65.20 L55.81,65.66 L55.01,66.20 L54.25,66.79 L53.55,67.45 L52.91,68.17 L52.33,68.93 L51.81,69.75 L51.37,70.61 L50.99,71.51 L50.69,72.45 L50.47,73.42 L50.34,74.42 L50.30,75.44 L50.30,98.31 L50.35,99.38 L50.49,100.44 L48.14,100.56 L45.72,100.60 L42.84,100.54 L40.05,100.37 L37.36,100.08 L34.77,99.68 L32.27,99.16 L29.88,98.52 L27.58,97.77 L25.39,96.91 L23.29,95.93 L21.30,94.83 L19.41,93.62 L17.62,92.29 L15.93,90.84 L14.35,89.28 L12.87,87.60 L11.50,85.80 L10.96,84.98 L10.49,84.13 L10.09,83.24 L9.76,82.33 L9.50,81.40 L9.31,80.45 L9.20,79.48 L9.16,78.50 L9.16,74.30 L9.22,73.24 L9.37,72.22 L9.62,71.24 L9.97,70.29 L10.40,69.39 L10.92,68.55 L11.51,67.75 L12.17,67.02 L12.90,66.36 L13.70,65.77 L14.54,65.25 L15.44,64.82 L16.39,64.48 L17.37,64.22 L18.39,64.07 L19.44,64.01 L59.44,64.01 Z" fill="#0078d4" stroke="#1e1e1e" stroke-width="1" stroke-linejoin="round"/><path d="M68.59,32.03 L68.47,29.69 L68.12,27.42 L67.56,25.23 L66.79,23.13 L65.83,21.13 L64.68,19.25 L63.37,17.49 L61.89,15.86 L60.27,14.39 L58.51,13.07 L56.62,11.93 L54.62,10.96 L52.52,10.19 L50.33,9.63 L48.06,9.28 L45.72,9.17 L43.39,9.28 L41.12,9.63 L38.93,10.19 L36.83,10.96 L34.83,11.93 L32.94,13.07 L31.18,14.39 L29.56,15.86 L28.08,17.49 L26.77,19.25 L25.62,21.13 L24.66,23.13 L23.89,25.23 L23.33,27.42 L22.98,29.69 L22.86,32.03 L22.98,34.37 L23.33,36.64 L23.89,38.83 L24.66,40.93 L25.62,42.93 L26.77,44.81 L28.08,46.57 L29.56,48.19 L31.18,49.67 L32.94,50.99 L34.83,52.13 L36.83,53.09 L38.93,53.86 L41.12,54.43 L43.39,54.77 L45.72,54.89 L48.06,54.77 L50.33,54.43 L52.52,53.86 L54.62,53.09 L56.62,52.13 L58.51,50.99 L60.27,49.67 L61.89,48.19 L63.37,46.57 L64.68,44.81 L65.83,42.93 L66.79,40.93 L67.56,38.83 L68.12,36.64 L68.47,34.37 L68.59,32.03 Z" fill="#0078d4" stroke="#1e1e1e" stroke-width="1" stroke-linejoin="round"/><path d="M64.01,68.59 L61.73,68.59 L61.02,68.62 L60.34,68.72 L59.06,69.12 L57.89,69.76 L56.88,70.59 L56.04,71.61 L55.41,72.77 L55.01,74.06 L54.90,74.74 L54.87,75.44 L54.87,98.31 L54.90,99.01 L55.01,99.69 L55.41,100.97 L56.04,102.14 L56.88,103.15 L57.89,103.99 L59.06,104.62 L60.34,105.02 L61.02,105.13 L61.73,105.16 L98.30,105.16 L99.01,105.13 L99.69,105.02 L100.97,104.62 L102.14,103.99 L103.15,103.15 L103.99,102.14 L104.62,100.97 L105.02,99.69 L105.13,99.01 L105.16,98.31 L105.16,75.44 L105.13,74.74 L105.02,74.06 L104.62,72.77 L103.99,71.61 L103.15,70.59 L102.14,69.76 L100.97,69.12 L99.69,68.72 L99.01,68.62 L98.30,68.59 L96.02,68.59 L96.02,62.87 L95.98,62.05 L95.86,61.26 L95.66,60.49 L95.39,59.76 L95.05,59.06 L94.65,58.40 L94.19,57.78 L93.67,57.21 L93.11,56.70 L92.49,56.24 L91.83,55.83 L91.13,55.50 L90.40,55.23 L89.63,55.03 L88.83,54.91 L88.02,54.87 L72.01,54.87 L71.20,54.91 L70.40,55.03 L69.63,55.23 L68.90,55.50 L68.20,55.83 L67.54,56.24 L66.92,56.70 L66.36,57.21 L65.84,57.78 L65.38,58.40 L64.98,59.06 L64.64,59.76 L64.37,60.49 L64.17,61.26 L64.05,62.05 L64.01,62.87 L64.01,68.59 Z" fill="#8dc8e8" stroke="#8dc8e8" stroke-width="1" stroke-linejoin="round"/><path d="M72.01,61.73 L71.57,61.82 L71.21,62.06 L70.96,62.42 L70.87,62.87 L70.87,68.59 L89.16,68.59 L89.16,62.87 L89.07,62.42 L88.82,62.06 L88.46,61.82 L88.02,61.73 L72.01,61.73 Z" fill="#ffffff" stroke="#ffffff" stroke-width="1" stroke-linejoin="round"/></svg>