<svg xmlns="http://www.w3.org/2000/svg" viewBox="40.67 19.33 174.67 217.33"><path d="M128.00,21.33 L122.55,21.61 L117.25,22.42 L112.14,23.73 L107.24,25.52 L102.58,27.77 L98.18,30.44 L94.08,33.51 L90.29,36.95 L86.85,40.74 L83.78,44.85 L81.10,49.24 L78.86,53.91 L77.06,58.81 L75.75,63.92 L74.94,69.21 L74.67,74.67 L74.94,80.12 L75.75,85.42 L77.06,90.53 L78.86,95.43 L81.10,100.09 L83.78,104.49 L86.85,108.59 L90.29,112.38 L94.08,115.82 L98.18,118.89 L102.58,121.56 L107.24,123.81 L112.14,125.60 L117.25,126.92 L122.55,127.72 L128.00,128.00 L133.45,127.72 L138.75,126.92 L143.86,125.60 L148.76,123.81 L153.42,121.56 L157.82,118.89 L161.92,115.82 L165.71,112.38 L169.15,108.59 L172.22,104.49 L174.90,100.09 L177.14,95.43 L178.94,90.53 L180.25,85.42 L181.06,80.12 L181.33,74.67 L181.06,69.21 L180.25,63.92 L178.94,58.81 L177.14,53.91 L174.90,49.24 L172.22,44.85 L169.15,40.74 L165.71,36.95 L161.92,33.51 L157.82,30.44 L153.42,27.77 L148.76,25.52 L143.86,23.73 L138.75,22.42 L133.45,21.61 L128.00,21.33 Z" fill="#0078d4" stroke="#1e1e1e" stroke-width="1" stroke-linejoin="round"/><path d="M65.33,149.33 L63.02,149.45 L60.77,149.79 L58.59,150.35 L56.51,151.11 L54.53,152.07 L52.66,153.20 L50.92,154.51 L49.31,155.97 L47.84,157.58 L46.54,159.32 L45.40,161.19 L44.45,163.17 L43.69,165.25 L43.13,167.43 L42.78,169.68 L42.67,171.99 L42.67,176.00 L42.79,179.70 L43.14,183.27 L43.73,186.73 L44.53,190.07 L45.55,193.29 L46.78,196.39 L48.21,199.37 L49.83,202.23 L51.64,204.97 L53.62,207.58 L55.78,210.08 L58.11,212.45 L60.59,214.69 L63.22,216.82 L66.00,218.82 L68.91,220.69 L71.90,222.42 L75.01,224.03 L81.57,226.89 L88.54,229.29 L95.88,231.25 L103.55,232.75 L111.48,233.82 L119.65,234.46 L128.00,234.67 L136.35,234.46 L144.52,233.82 L152.45,232.75 L160.12,231.25 L167.46,229.29 L174.43,226.89 L180.99,224.03 L184.10,222.42 L187.09,220.69 L190.00,218.82 L192.78,216.82 L195.41,214.69 L197.89,212.45 L200.22,210.08 L202.38,207.58 L204.36,204.97 L206.17,202.23 L207.79,199.37 L209.22,196.39 L210.45,193.29 L211.47,190.07 L212.27,186.73 L212.86,183.27 L213.21,179.70 L213.33,176.00 L213.33,171.99 L213.22,169.68 L212.87,167.42 L212.31,165.25 L211.55,163.17 L210.60,161.19 L209.46,159.32 L208.16,157.58 L206.69,155.97 L205.08,154.51 L203.34,153.20 L201.47,152.07 L199.49,151.11 L197.41,150.35 L195.23,149.79 L192.98,149.45 L190.67,149.33 L65.33,149.33 Z" fill="#0078d4" stroke="#1e1e1e" stroke-width="1" stroke-linejoin="round"/></svg>