<svg xmlns="http://www.w3.org/2000/svg" viewBox="14.00 14.00 100.00 100.00"><path d="M16.00,33.33 L16.00,94.67 L16.09,96.44 L16.35,98.16 L16.78,99.82 L17.36,101.41 L18.09,102.93 L18.96,104.36 L19.96,105.69 L21.08,106.92 L22.31,108.04 L23.64,109.04 L25.07,109.91 L26.59,110.64 L28.18,111.22 L29.84,111.65 L31.56,111.91 L33.33,112.00 L94.67,112.00 L96.44,111.91 L98.16,111.65 L99.82,111.22 L101.41,110.64 L102.93,109.91 L104.36,109.04 L105.69,108.04 L106.92,106.92 L108.04,105.69 L109.04,104.36 L109.91,102.93 L110.64,101.41 L111.22,99.82 L111.65,98.16 L111.91,96.44 L112.00,94.67 L112.00,33.33 L111.91,31.56 L111.65,29.84 L111.22,28.18 L110.64,26.59 L109.91,25.07 L109.04,23.64 L108.04,22.31 L106.92,21.08 L105.69,19.96 L104.36,18.96 L102.93,18.09 L101.41,17.36 L99.82,16.78 L98.16,16.35 L96.44,16.09 L94.67,16.00 L33.33,16.00 L31.56,16.09 L29.84,16.35 L28.18,16.78 L26.59,17.36 L25.07,18.09 L23.64,18.96 L22.31,19.96 L21.08,21.08 L19.96,22.31 L18.96,23.64 L18.09,25.07 L17.36,26.59 L16.78,28.18 L16.35,29.84 L16.09,31.56 L16.00,33.33 Z" fill="#0078d4" stroke="#1e1e1e" stroke-width="1" stroke-linejoin="round"/><path d="M82.67,64.00 L83.48,64.04 L84.28,64.16 L85.78,64.63 L87.14,65.37 L88.32,66.34 L89.30,67.53 L90.04,68.89 L90.50,70.39 L90.63,71.18 L90.67,72.00 L90.67,74.67 L90.55,76.64 L90.21,78.60 L89.64,80.54 L88.86,82.44 L87.86,84.27 L86.65,86.04 L85.23,87.71 L83.61,89.28 L81.80,90.72 L79.80,92.02 L77.61,93.17 L75.23,94.15 L72.68,94.93 L69.95,95.51 L67.06,95.88 L64.00,96.00 L60.94,95.88 L58.05,95.51 L55.32,94.93 L52.77,94.15 L50.39,93.17 L48.20,92.02 L46.20,90.72 L44.39,89.28 L42.77,87.71 L41.35,86.04 L40.14,84.27 L39.14,82.44 L38.36,80.54 L37.79,78.60 L37.45,76.64 L37.33,74.67 L37.33,72.00 L37.37,71.18 L37.50,70.39 L37.96,68.89 L38.70,67.53 L39.68,66.34 L40.86,65.37 L42.22,64.63 L43.72,64.16 L44.52,64.04 L45.33,64.00 L82.67,64.00 Z" fill="#ffffff" stroke="#1e1e1e" stroke-width="1" stroke-linejoin="round"/><path d="M64.00,29.33 L65.50,29.41 L66.96,29.63 L68.36,29.99 L69.71,30.49 L70.99,31.10 L72.20,31.84 L73.33,32.68 L74.37,33.63 L75.32,34.67 L76.16,35.80 L76.90,37.01 L77.51,38.29 L78.01,39.64 L78.37,41.04 L78.59,42.50 L78.67,44.00 L78.59,45.50 L78.37,46.96 L78.01,48.36 L77.51,49.71 L76.90,50.99 L76.16,52.20 L75.32,53.33 L74.37,54.37 L73.33,55.32 L72.20,56.16 L70.99,56.90 L69.71,57.51 L68.36,58.01 L66.96,58.37 L65.50,58.59 L64.00,58.67 L62.50,58.59 L61.04,58.37 L59.64,58.01 L58.29,57.51 L57.01,56.90 L55.80,56.16 L54.67,55.32 L53.63,54.37 L52.68,53.33 L51.84,52.20 L51.10,50.99 L50.49,49.71 L49.99,48.36 L49.63,46.96 L49.41,45.50 L49.33,44.00 L49.41,42.50 L49.63,41.04 L49.99,39.64 L50.49,38.29 L51.10,37.01 L51.84,35.80 L52.68,34.67 L53.63,33.63 L54.67,32.68 L55.80,31.84 L57.01,31.10 L58.29,30.49 L59.64,29.99 L61.04,29.63 L62.50,29.41 L64.00,29.33 Z" fill="#ffffff" stroke="#1e1e1e" stroke-width="1" stroke-linejoin="round"/></svg>