<svg xmlns="http://www.w3.org/2000/svg" viewBox="36.40 23.60 208.80 221.60"><path d="M128.00,25.60 L122.77,25.86 L117.68,26.64 L112.77,27.90 L108.07,29.62 L103.59,31.78 L99.37,34.34 L95.43,37.29 L91.80,40.60 L88.49,44.23 L85.54,48.17 L82.98,52.39 L80.82,56.87 L79.10,61.57 L77.84,66.48 L77.06,71.57 L76.80,76.80 L77.06,82.03 L77.84,87.12 L79.10,92.03 L80.82,96.73 L82.98,101.20 L85.54,105.43 L88.49,109.37 L91.80,113.00 L95.43,116.31 L99.37,119.26 L103.59,121.82 L108.07,123.98 L112.77,125.70 L117.68,126.96 L122.77,127.74 L128.00,128.00 L132.53,127.80 L136.96,127.22 L141.26,126.27 L145.41,124.96 L149.40,123.32 L153.22,121.37 L156.84,119.11 L160.25,116.56 L161.67,115.37 L165.51,111.65 L168.94,107.55 L171.94,103.10 L174.46,98.34 L176.49,93.29 L177.97,88.00 L178.89,82.49 L179.20,76.80 L178.94,71.57 L178.16,66.48 L176.90,61.57 L175.18,56.87 L173.02,52.39 L170.46,48.17 L167.51,44.23 L164.20,40.60 L160.57,37.29 L156.63,34.34 L152.40,31.78 L147.93,29.62 L143.23,27.90 L138.32,26.64 L133.23,25.86 L128.00,25.60 Z" fill="#0078d4" stroke="#1e1e1e" stroke-width="1" stroke-linejoin="round"/><path d="M64.11,140.80 L143.69,140.80 L142.51,144.54 L141.58,148.34 L140.91,152.18 L140.50,156.06 L140.35,159.94 L140.46,163.83 L140.83,167.70 L141.46,171.55 L111.80,201.21 L109.23,204.11 L107.07,207.22 L105.31,210.52 L103.97,213.96 L103.04,217.50 L102.52,221.11 L102.41,224.74 L102.71,228.37 L97.55,227.40 L92.52,226.23 L87.63,224.86 L82.89,223.29 L78.32,221.52 L73.93,219.55 L69.73,217.38 L65.73,215.00 L62.67,212.94 L59.77,210.74 L57.02,208.42 L54.43,205.96 L52.00,203.38 L49.76,200.66 L47.69,197.81 L45.81,194.83 L44.13,191.72 L42.65,188.49 L41.38,185.12 L40.33,181.63 L39.49,178.01 L38.89,174.27 L38.52,170.40 L38.40,166.40 L38.53,163.76 L38.92,161.21 L39.56,158.75 L40.43,156.39 L41.51,154.15 L42.80,152.04 L44.29,150.07 L45.95,148.26 L47.78,146.61 L49.76,145.14 L51.88,143.87 L54.12,142.80 L56.48,141.94 L58.94,141.32 L61.49,140.93 L64.11,140.80 Z" fill="#0078d4" stroke="#1e1e1e" stroke-width="1" stroke-linejoin="round"/><path d="M203.41,115.50 L205.01,115.93 L206.28,116.75 L207.21,117.87 L207.77,119.21 L207.96,120.67 L207.76,122.19 L207.14,123.66 L206.11,125.00 L193.63,137.48 L192.30,138.95 L191.15,140.51 L190.18,142.16 L189.39,143.87 L188.77,145.64 L188.33,147.44 L188.06,149.28 L187.97,151.13 L188.06,152.98 L188.33,154.81 L188.77,156.62 L189.39,158.39 L190.18,160.10 L191.15,161.75 L192.30,163.31 L193.63,164.77 L195.09,166.10 L196.65,167.25 L198.30,168.22 L200.01,169.01 L201.78,169.63 L203.58,170.07 L205.42,170.34 L207.27,170.43 L209.12,170.34 L210.96,170.07 L212.76,169.63 L214.53,169.01 L216.24,168.22 L217.89,167.25 L219.45,166.10 L220.92,164.77 L233.40,152.29 L234.74,151.26 L236.21,150.64 L237.73,150.44 L239.19,150.63 L240.53,151.19 L241.65,152.12 L242.47,153.39 L242.90,154.99 L243.20,159.96 L242.96,164.93 L242.16,169.85 L240.83,174.68 L238.94,179.36 L236.51,183.86 L233.54,188.11 L230.01,192.06 L227.57,194.34 L225.00,196.40 L222.32,198.24 L219.55,199.87 L216.69,201.28 L213.75,202.48 L210.76,203.47 L207.71,204.24 L204.63,204.79 L201.53,205.13 L198.41,205.25 L195.29,205.16 L192.18,204.85 L189.10,204.33 L186.05,203.60 L183.04,202.65 L148.14,237.55 L146.68,238.87 L145.11,240.02 L143.47,240.99 L141.76,241.79 L139.99,242.40 L138.18,242.85 L136.35,243.11 L134.50,243.20 L132.65,243.11 L130.81,242.85 L129.00,242.40 L127.24,241.79 L125.52,240.99 L123.88,240.02 L122.32,238.87 L120.85,237.55 L119.53,236.08 L118.38,234.52 L117.41,232.88 L116.61,231.16 L115.99,229.40 L115.55,227.59 L115.29,225.75 L115.20,223.90 L115.29,222.05 L115.55,220.22 L115.99,218.41 L116.61,216.64 L117.41,214.93 L118.38,213.29 L119.53,211.72 L120.85,210.26 L155.75,175.36 L154.80,172.35 L154.07,169.30 L153.55,166.22 L153.24,163.11 L153.15,159.99 L153.27,156.87 L153.61,153.77 L154.16,150.68 L154.93,147.64 L155.92,144.65 L157.12,141.71 L158.53,138.85 L160.16,136.08 L162.00,133.40 L164.06,130.83 L166.34,128.39 L170.29,124.86 L174.54,121.89 L179.04,119.46 L183.72,117.57 L188.55,116.23 L193.47,115.44 L198.44,115.20 L203.41,115.50 Z" fill="#8dc8e8" stroke="#1e1e1e" stroke-width="1" stroke-linejoin="round"/></svg>