<svg xmlns="http://www.w3.org/2000/svg" viewBox="30.00 30.00 196.00 196.00"><path d="M32.00,66.67 L32.00,189.33 L32.18,192.88 L32.70,196.32 L33.56,199.64 L34.72,202.83 L36.18,205.86 L37.92,208.72 L39.92,211.38 L42.15,213.85 L44.62,216.08 L47.28,218.08 L50.14,219.82 L53.17,221.28 L56.36,222.44 L59.68,223.30 L63.12,223.82 L66.67,224.00 L189.33,224.00 L192.88,223.82 L196.32,223.30 L199.64,222.44 L202.83,221.28 L205.86,219.82 L208.72,218.08 L211.38,216.08 L213.85,213.85 L216.08,211.38 L218.08,208.72 L219.82,205.86 L221.28,202.83 L222.44,199.64 L223.30,196.32 L223.82,192.88 L224.00,189.33 L224.00,66.67 L223.82,63.12 L223.30,59.68 L222.44,56.36 L221.28,53.17 L219.82,50.14 L218.08,47.28 L216.08,44.62 L213.85,42.15 L211.38,39.92 L208.72,37.92 L205.86,36.18 L202.83,34.72 L199.64,33.56 L196.32,32.70 L192.88,32.18 L189.33,32.00 L66.67,32.00 L63.12,32.18 L59.68,32.70 L56.36,33.56 L53.17,34.72 L50.14,36.18 L47.28,37.92 L44.62,39.92 L42.15,42.15 L39.92,44.62 L37.92,47.28 L36.18,50.14 L34.72,53.17 L33.56,56.36 L32.70,59.68 L32.18,63.12 L32.00,66.67 Z" fill="#0078d4" stroke="#1e1e1e" stroke-width="1" stroke-linejoin="round"/><path d="M165.33,128.00 L166.97,128.08 L168.56,128.33 L171.56,129.26 L174.28,130.73 L176.65,132.69 L178.60,135.05 L180.08,137.77 L181.01,140.78 L181.25,142.36 L181.33,144.00 L181.33,149.33 L181.10,153.28 L180.42,157.20 L179.28,161.08 L177.71,164.87 L175.71,168.55 L173.29,172.07 L170.46,175.42 L167.23,178.55 L163.60,181.44 L159.60,184.04 L155.21,186.34 L150.47,188.29 L145.36,189.86 L139.91,191.03 L134.12,191.75 L128.00,192.00 L121.88,191.75 L116.09,191.03 L110.64,189.86 L105.53,188.29 L100.79,186.34 L96.40,184.04 L92.40,181.44 L88.77,178.55 L85.54,175.42 L82.71,172.07 L80.29,168.55 L78.29,164.87 L76.72,161.08 L75.58,157.20 L74.90,153.28 L74.67,149.33 L74.67,144.00 L74.75,142.36 L74.99,140.78 L75.92,137.77 L77.40,135.05 L79.35,132.69 L81.72,130.73 L84.44,129.26 L87.44,128.33 L89.03,128.08 L90.67,128.00 L165.33,128.00 Z" fill="#ffffff" stroke="#1e1e1e" stroke-width="1" stroke-linejoin="round"/><path d="M128.00,58.67 L131.00,58.82 L133.91,59.26 L136.72,59.99 L139.42,60.97 L141.98,62.21 L144.40,63.68 L146.66,65.36 L148.74,67.26 L150.64,69.34 L152.32,71.60 L153.79,74.02 L155.03,76.58 L156.01,79.28 L156.74,82.09 L157.18,85.00 L157.33,88.00 L157.18,91.00 L156.74,93.91 L156.01,96.72 L155.03,99.42 L153.79,101.98 L152.32,104.40 L150.64,106.66 L148.74,108.74 L146.66,110.64 L144.40,112.32 L141.98,113.79 L139.42,115.03 L136.72,116.01 L133.91,116.74 L131.00,117.18 L128.00,117.33 L125.00,117.18 L122.09,116.74 L119.28,116.01 L116.58,115.03 L114.02,113.79 L111.60,112.32 L109.34,110.64 L107.26,108.74 L105.36,106.66 L103.68,104.40 L102.21,101.98 L100.97,99.42 L99.99,96.72 L99.26,93.91 L98.82,91.00 L98.67,88.00 L98.82,85.00 L99.26,82.09 L99.99,79.28 L100.97,76.58 L102.21,74.02 L103.68,71.60 L105.36,69.34 L107.26,67.26 L109.34,65.36 L111.60,63.68 L114.02,62.21 L116.58,60.97 L119.28,59.99 L122.09,59.26 L125.00,58.82 L128.00,58.67 Z" fill="#ffffff" stroke="#1e1e1e" stroke-width="1" stroke-linejoin="round"/></svg>