<svg xmlns="http://www.w3.org/2000/svg" viewBox="9.40 9.40 100.00 98.65"><path d="M60.59,79.31 L61.73,78.96 L62.79,78.50 L63.80,77.95 L64.73,77.30 L65.58,76.57 L66.35,75.77 L67.04,74.90 L67.64,73.97 L68.15,72.98 L68.56,71.95 L68.87,70.88 L69.07,69.77 L69.17,68.65 L69.15,67.50 L69.01,66.35 L68.75,65.19 L67.86,62.02 L68.96,61.21 L70.11,60.47 L71.31,59.79 L72.54,59.18 L74.46,61.22 L75.34,62.06 L76.28,62.79 L77.27,63.40 L78.31,63.91 L79.39,64.30 L80.49,64.58 L81.62,64.75 L82.75,64.80 L83.88,64.75 L85.00,64.58 L86.10,64.30 L87.18,63.91 L88.22,63.41 L89.22,62.80 L90.16,62.07 L91.04,61.23 L92.89,59.27 L94.14,59.91 L95.35,60.62 L96.52,61.39 L97.64,62.23 L96.92,64.63 L96.64,65.81 L96.48,66.99 L96.45,68.16 L96.53,69.31 L96.73,70.44 L97.04,71.53 L97.46,72.59 L97.98,73.60 L98.59,74.55 L99.30,75.44 L100.09,76.25 L100.97,76.99 L101.93,77.64 L102.96,78.19 L104.06,78.64 L105.22,78.98 L107.21,79.45 L107.35,81.02 L107.40,82.61 L107.27,85.25 L104.64,85.92 L103.51,86.27 L102.44,86.72 L101.44,87.28 L100.51,87.92 L99.66,88.65 L98.88,89.46 L98.19,90.33 L97.59,91.26 L97.09,92.25 L96.68,93.28 L96.37,94.35 L96.16,95.45 L96.07,96.58 L96.09,97.72 L96.23,98.88 L96.49,100.03 L97.38,103.21 L96.27,104.01 L95.12,104.75 L93.93,105.43 L92.70,106.04 L90.78,104.00 L89.90,103.16 L88.96,102.44 L87.96,101.82 L86.92,101.32 L85.85,100.93 L84.74,100.65 L83.62,100.48 L82.49,100.42 L81.36,100.48 L80.24,100.64 L79.13,100.92 L78.06,101.31 L77.01,101.82 L76.02,102.43 L75.08,103.16 L74.20,103.99 L72.35,105.95 L71.09,105.32 L69.88,104.61 L68.71,103.84 L67.59,103.00 L68.31,100.59 L68.60,99.41 L68.76,98.24 L68.79,97.07 L68.70,95.91 L68.50,94.79 L68.19,93.69 L67.78,92.64 L67.26,91.63 L66.64,90.68 L65.94,89.79 L65.14,88.97 L64.27,88.24 L63.31,87.59 L62.28,87.03 L61.18,86.58 L60.02,86.24 L58.02,85.77 L57.88,84.21 L57.84,82.61 L57.97,79.98 L60.59,79.31 Z" fill="#8dc8e8" stroke="#8dc8e8" stroke-width="1" stroke-linejoin="round"/><path d="M82.62,76.92 L83.76,77.03 L84.83,77.36 L85.80,77.89 L86.65,78.58 L87.34,79.43 L87.87,80.40 L88.20,81.47 L88.31,82.61 L88.20,83.76 L87.87,84.83 L87.34,85.80 L86.65,86.64 L85.80,87.34 L84.83,87.86 L83.76,88.20 L82.62,88.31 L81.47,88.20 L80.40,87.86 L79.43,87.34 L78.59,86.64 L77.89,85.80 L77.37,84.83 L77.03,83.76 L76.92,82.61 L77.03,81.47 L77.37,80.40 L77.89,79.43 L78.59,78.58 L79.43,77.89 L80.40,77.36 L81.47,77.03 L82.62,76.92 Z" fill="#ffffff" stroke="#ffffff" stroke-width="1" stroke-linejoin="round"/><path d="M22.84,62.67 L21.67,62.73 L20.54,62.90 L19.44,63.18 L18.39,63.56 L17.39,64.04 L16.45,64.61 L15.57,65.26 L14.76,65.99 L14.02,66.80 L13.36,67.68 L12.78,68.61 L12.30,69.61 L11.91,70.66 L11.63,71.76 L11.45,72.89 L11.40,74.07 L11.45,75.85 L11.61,77.57 L11.88,79.24 L12.25,80.85 L12.72,82.40 L13.29,83.90 L13.95,85.34 L14.70,86.72 L15.53,88.05 L16.45,89.32 L17.45,90.53 L18.53,91.68 L19.68,92.77 L20.91,93.81 L22.20,94.78 L23.56,95.70 L24.96,96.54 L26.41,97.33 L27.92,98.06 L29.49,98.74 L32.75,99.92 L36.19,100.87 L39.79,101.61 L43.52,102.14 L47.35,102.45 L51.28,102.56 L54.76,102.47 L58.17,102.23 L56.64,100.15 L55.28,97.94 L54.10,95.62 L53.11,93.19 L52.32,90.67 L51.75,88.06 L51.40,85.37 L51.28,82.61 L51.40,79.80 L51.77,77.06 L52.36,74.40 L53.18,71.83 L54.21,69.37 L55.43,67.01 L56.85,64.77 L58.44,62.67 L22.84,62.67 Z" fill="#0078d4" stroke="#1e1e1e" stroke-width="1" stroke-linejoin="round"/><path d="M51.28,11.40 L48.95,11.51 L46.68,11.86 L44.50,12.42 L42.41,13.19 L40.41,14.15 L38.54,15.29 L36.78,16.60 L35.16,18.07 L33.69,19.69 L32.38,21.44 L31.24,23.32 L30.28,25.31 L29.51,27.41 L28.95,29.59 L28.61,31.86 L28.49,34.19 L28.61,36.52 L28.95,38.78 L29.51,40.96 L30.28,43.06 L31.24,45.05 L32.38,46.93 L33.69,48.68 L35.16,50.30 L36.78,51.77 L38.54,53.08 L40.41,54.22 L42.41,55.18 L44.50,55.95 L46.68,56.51 L48.95,56.86 L51.28,56.98 L53.61,56.86 L55.87,56.51 L58.05,55.95 L60.15,55.18 L62.14,54.22 L64.02,53.08 L65.77,51.77 L67.39,50.30 L68.86,48.68 L70.18,46.93 L71.32,45.05 L72.28,43.06 L73.04,40.96 L73.61,38.78 L73.95,36.52 L74.07,34.19 L73.95,31.86 L73.61,29.59 L73.04,27.41 L72.28,25.31 L71.32,23.32 L70.18,21.44 L68.86,19.69 L67.39,18.07 L65.77,16.60 L64.02,15.29 L62.14,14.15 L60.15,13.19 L58.05,12.42 L55.87,11.86 L53.61,11.51 L51.28,11.40 Z" fill="#0078d4" stroke="#1e1e1e" stroke-width="1" stroke-linejoin="round"/></svg>