<svg xmlns="http://www.w3.org/2000/svg" viewBox="8.67 15.78 100.00 85.78"><path d="M32.00,17.78 L30.91,17.83 L29.85,17.99 L28.83,18.26 L27.85,18.62 L26.92,19.07 L26.04,19.60 L25.22,20.21 L24.46,20.90 L23.77,21.66 L23.16,22.48 L22.62,23.36 L22.17,24.29 L21.81,25.27 L21.55,26.30 L21.39,27.35 L21.33,28.44 L21.33,28.89 L23.08,28.56 L24.89,28.44 L42.67,28.44 L44.49,28.54 L46.25,28.81 L47.95,29.24 L49.59,29.84 L51.14,30.59 L52.61,31.48 L53.98,32.50 L55.24,33.65 L56.39,34.91 L57.41,36.28 L58.30,37.75 L59.05,39.30 L59.65,40.94 L60.08,42.64 L60.35,44.41 L60.45,46.22 L60.45,74.67 L88.89,74.67 L89.98,74.61 L91.04,74.45 L92.06,74.19 L93.04,73.83 L93.97,73.38 L94.85,72.85 L95.68,72.23 L96.43,71.54 L97.12,70.79 L97.74,69.97 L98.27,69.09 L98.72,68.15 L99.08,67.17 L99.34,66.15 L99.50,65.09 L99.56,64.00 L99.56,28.44 L99.50,27.35 L99.34,26.30 L99.08,25.27 L98.72,24.29 L98.27,23.36 L97.74,22.48 L97.12,21.66 L96.43,20.90 L95.68,20.21 L94.85,19.60 L93.97,19.07 L93.04,18.62 L92.06,18.26 L91.04,17.99 L89.98,17.83 L88.89,17.78 L32.00,17.78 Z" fill="#0078d4" stroke="#0078d4" stroke-width="1" stroke-linejoin="round"/><path d="M60.44,88.89 L103.11,88.89 L103.83,88.82 L104.50,88.61 L105.10,88.28 L105.63,87.85 L106.06,87.32 L106.39,86.72 L106.59,86.05 L106.67,85.33 L106.59,84.62 L106.39,83.95 L106.06,83.35 L105.63,82.82 L105.10,82.39 L104.50,82.06 L103.83,81.85 L103.11,81.78 L60.44,81.78 L60.44,88.89 Z" fill="#0078d4" stroke="#0078d4" stroke-width="1" stroke-linejoin="round"/><path d="M21.33,35.56 L20.24,35.61 L19.18,35.77 L18.16,36.04 L17.18,36.39 L16.25,36.84 L15.37,37.38 L14.55,37.99 L13.79,38.68 L13.10,39.44 L12.49,40.26 L11.95,41.14 L11.51,42.07 L11.15,43.05 L10.88,44.07 L10.72,45.13 L10.67,46.22 L10.67,88.89 L10.72,89.98 L10.88,91.04 L11.15,92.06 L11.51,93.04 L11.95,93.97 L12.49,94.85 L13.10,95.68 L13.79,96.43 L14.55,97.12 L15.37,97.74 L16.25,98.27 L17.18,98.72 L18.16,99.08 L19.18,99.34 L20.24,99.50 L21.33,99.56 L42.67,99.56 L43.76,99.50 L44.82,99.34 L45.84,99.08 L46.82,98.72 L47.75,98.27 L48.63,97.74 L49.45,97.12 L50.21,96.43 L50.90,95.68 L51.51,94.85 L52.05,93.97 L52.50,93.04 L52.85,92.06 L53.12,91.04 L53.28,89.98 L53.33,88.89 L53.33,46.22 L53.28,45.13 L53.12,44.07 L52.85,43.05 L52.50,42.07 L52.05,41.14 L51.51,40.26 L50.90,39.44 L50.21,38.68 L49.45,37.99 L48.63,37.38 L47.75,36.84 L46.82,36.39 L45.84,36.04 L44.82,35.77 L43.76,35.61 L42.67,35.56 L21.33,35.56 Z" fill="#8dc8e8" stroke="#8dc8e8" stroke-width="1" stroke-linejoin="round"/><path d="M28.44,85.33 L28.52,86.05 L28.72,86.72 L29.05,87.32 L29.49,87.85 L30.01,88.28 L30.62,88.61 L31.28,88.82 L32.00,88.89 L32.72,88.82 L33.38,88.61 L33.99,88.28 L34.51,87.85 L34.95,87.32 L35.28,86.72 L35.48,86.05 L35.56,85.33 L35.48,84.62 L35.28,83.95 L34.95,83.35 L34.51,82.82 L33.99,82.39 L33.38,82.06 L32.72,81.85 L32.00,81.78 L31.28,81.85 L30.62,82.06 L30.01,82.39 L29.49,82.82 L29.05,83.35 L28.72,83.95 L28.52,84.62 L28.44,85.33 Z" fill="#ffffff" stroke="#ffffff" stroke-width="1" stroke-linejoin="round"/></svg>