<svg xmlns="http://www.w3.org/2000/svg" viewBox="26.80 7.60 61.60 100.00"><path d="M39.00,9.60 L37.96,9.65 L36.94,9.81 L35.97,10.06 L35.03,10.40 L34.14,10.83 L33.30,11.34 L32.51,11.93 L31.79,12.59 L31.13,13.31 L30.54,14.10 L30.03,14.94 L29.60,15.83 L29.26,16.77 L29.01,17.74 L28.85,18.76 L28.80,19.80 L28.80,95.40 L28.85,96.44 L29.01,97.46 L29.26,98.43 L29.60,99.37 L30.03,100.26 L30.54,101.10 L31.13,101.89 L31.79,102.61 L32.51,103.27 L33.30,103.86 L34.14,104.37 L35.03,104.80 L35.97,105.14 L36.94,105.39 L37.96,105.55 L39.00,105.60 L76.20,105.60 L77.24,105.55 L78.26,105.39 L79.23,105.14 L80.17,104.80 L81.06,104.37 L81.90,103.86 L82.69,103.27 L83.41,102.61 L84.07,101.89 L84.66,101.10 L85.17,100.26 L85.60,99.37 L85.94,98.43 L86.19,97.46 L86.35,96.44 L86.40,95.40 L86.40,19.80 L86.35,18.76 L86.19,17.74 L85.94,16.77 L85.60,15.83 L85.17,14.94 L84.66,14.10 L84.07,13.31 L83.41,12.59 L82.69,11.93 L81.90,11.34 L81.06,10.83 L80.17,10.40 L79.23,10.06 L78.26,9.81 L77.24,9.65 L76.20,9.60 L39.00,9.60 Z" fill="#0078d4" stroke="#0078d4" stroke-width="1" stroke-linejoin="round"/><path d="M51.00,85.20 L64.20,85.20 L64.80,85.26 L65.37,85.44 L65.88,85.71 L66.32,86.08 L66.69,86.52 L66.96,87.03 L67.14,87.60 L67.20,88.20 L67.14,88.80 L66.96,89.37 L66.69,89.88 L66.32,90.32 L65.88,90.69 L65.37,90.96 L64.80,91.14 L64.20,91.20 L51.00,91.20 L50.40,91.14 L49.83,90.96 L49.32,90.69 L48.88,90.32 L48.51,89.88 L48.24,89.37 L48.06,88.80 L48.00,88.20 L48.06,87.60 L48.24,87.03 L48.51,86.52 L48.88,86.08 L49.32,85.71 L49.83,85.44 L50.40,85.26 L51.00,85.20 Z" fill="#ffffff" stroke="#ffffff" stroke-width="1" stroke-linejoin="round"/></svg>