<svg xmlns="http://www.w3.org/2000/svg" viewBox="7.60 17.20 100.00 80.80"><path d="M105.58,29.26 L105.46,28.22 L105.24,27.22 L104.93,26.25 L104.54,25.32 L104.06,24.44 L103.51,23.61 L102.88,22.84 L102.19,22.12 L101.44,21.48 L100.62,20.90 L99.76,20.40 L98.84,19.98 L97.89,19.65 L96.89,19.40 L95.86,19.25 L94.80,19.20 L39.60,19.20 L38.81,19.23 L37.85,19.34 L36.92,19.54 L36.01,19.81 L35.15,20.16 L34.32,20.58 L33.53,21.07 L32.79,21.62 L32.10,22.23 L31.47,22.89 L30.89,23.61 L30.38,24.38 L29.93,25.19 L29.55,26.04 L29.24,26.93 L29.01,27.85 L28.87,28.80 L40.80,28.80 L41.59,28.83 L42.75,28.96 L43.87,29.20 L44.95,29.54 L45.98,29.97 L46.96,30.50 L47.89,31.12 L48.75,31.81 L49.54,32.58 L50.26,33.42 L50.90,34.32 L51.46,35.29 L51.93,36.30 L52.30,37.37 L52.58,38.48 L52.74,39.62 L52.80,40.80 L52.80,81.60 L94.80,81.60 L95.54,81.58 L96.58,81.46 L97.59,81.24 L98.56,80.93 L99.49,80.54 L100.37,80.06 L101.20,79.51 L101.97,78.88 L102.68,78.19 L103.33,77.44 L103.90,76.62 L104.40,75.76 L104.82,74.84 L105.16,73.89 L105.40,72.89 L105.55,71.86 L105.60,70.80 L105.60,30.00 L105.58,29.26 Z" fill="#0078d4" stroke="#0078d4" stroke-width="1" stroke-linejoin="round"/><path d="M61.20,64.80 L73.20,64.80 L73.69,64.83 L74.33,64.98 L74.92,65.24 L75.45,65.59 L75.91,66.02 L76.28,66.54 L76.56,67.11 L76.74,67.74 L76.80,68.40 L76.73,69.13 L76.52,69.80 L76.19,70.41 L75.75,70.95 L75.22,71.39 L74.60,71.72 L73.93,71.93 L73.20,72.00 L61.20,72.00 L60.71,71.97 L60.08,71.82 L59.49,71.57 L58.96,71.22 L58.50,70.78 L58.12,70.27 L57.84,69.69 L57.66,69.07 L57.60,68.40 L57.67,67.68 L57.88,67.00 L58.22,66.39 L58.66,65.86 L59.19,65.42 L59.80,65.08 L60.48,64.88 L61.20,64.80 Z" fill="#ffffff" stroke="#ffffff" stroke-width="1" stroke-linejoin="round"/><path d="M39.63,33.60 L40.48,33.64 L41.32,33.77 L42.12,33.98 L42.90,34.26 L43.63,34.61 L44.32,35.03 L44.97,35.52 L45.57,36.06 L46.11,36.66 L46.59,37.30 L47.01,38.00 L47.37,38.73 L47.65,39.50 L47.86,40.31 L47.98,41.14 L48.03,42.00 L48.03,87.60 L47.98,88.46 L47.86,89.30 L47.65,90.10 L47.37,90.87 L47.01,91.61 L46.59,92.30 L46.11,92.95 L45.57,93.54 L44.97,94.08 L44.32,94.57 L43.63,94.99 L42.90,95.34 L42.12,95.63 L41.32,95.83 L40.48,95.96 L39.63,96.00 L18.00,96.00 L17.14,95.96 L16.31,95.83 L15.51,95.63 L14.73,95.34 L14.00,94.99 L13.31,94.57 L12.66,94.08 L12.06,93.54 L11.52,92.95 L11.04,92.30 L10.62,91.61 L10.26,90.87 L9.98,90.10 L9.77,89.30 L9.65,88.46 L9.60,87.60 L9.60,42.00 L9.65,41.14 L9.77,40.31 L9.98,39.50 L10.26,38.73 L10.62,38.00 L11.04,37.30 L11.52,36.66 L12.06,36.06 L12.66,35.52 L13.31,35.03 L14.00,34.61 L14.73,34.26 L15.51,33.98 L16.31,33.77 L17.14,33.64 L18.00,33.60 L39.63,33.60 Z" fill="#8dc8e8" stroke="#8dc8e8" stroke-width="1" stroke-linejoin="round"/><path d="M27.61,79.18 L30.01,79.18 L30.50,79.21 L31.14,79.36 L31.73,79.61 L32.26,79.96 L32.72,80.40 L33.09,80.91 L33.38,81.49 L33.55,82.11 L33.61,82.78 L33.55,83.45 L33.38,84.07 L33.09,84.65 L32.72,85.16 L32.26,85.59 L31.73,85.94 L31.14,86.20 L30.50,86.35 L30.01,86.38 L27.61,86.38 L27.13,86.35 L26.49,86.20 L25.90,85.94 L25.37,85.59 L24.91,85.16 L24.54,84.65 L24.25,84.07 L24.08,83.45 L24.01,82.78 L24.08,82.11 L24.25,81.49 L24.54,80.91 L24.91,80.40 L25.37,79.96 L25.90,79.61 L26.49,79.36 L27.13,79.21 L27.61,79.18 Z" fill="#ffffff" stroke="#ffffff" stroke-width="1" stroke-linejoin="round"/></svg>