<svg xmlns="http://www.w3.org/2000/svg" viewBox="22.00 38.00 220.00 188.00"><path d="M72.00,40.00 L69.55,40.12 L67.16,40.49 L64.86,41.08 L62.66,41.89 L60.56,42.90 L58.58,44.10 L56.73,45.48 L55.03,47.03 L53.48,48.73 L52.10,50.58 L50.90,52.56 L49.89,54.66 L49.08,56.86 L48.49,59.16 L48.12,61.55 L48.00,64.00 L48.00,65.01 L51.92,64.26 L56.00,64.00 L96.00,64.00 L100.09,64.21 L104.06,64.81 L107.89,65.80 L111.57,67.14 L115.07,68.83 L118.36,70.83 L121.44,73.13 L124.28,75.72 L126.87,78.56 L129.17,81.64 L131.17,84.93 L132.86,88.43 L134.20,92.11 L135.19,95.94 L135.79,99.91 L136.00,104.00 L136.00,168.00 L200.00,168.00 L202.45,167.88 L204.84,167.51 L207.14,166.92 L209.34,166.11 L211.44,165.10 L213.42,163.90 L215.27,162.52 L216.97,160.97 L218.52,159.27 L219.90,157.42 L221.10,155.44 L222.11,153.34 L222.92,151.14 L223.51,148.84 L223.88,146.45 L224.00,144.00 L224.00,64.00 L223.88,61.55 L223.51,59.16 L222.92,56.86 L222.11,54.66 L221.10,52.56 L219.90,50.58 L218.52,48.73 L216.97,47.03 L215.27,45.48 L213.42,44.10 L211.44,42.90 L209.34,41.89 L207.14,41.08 L204.84,40.49 L202.45,40.12 L200.00,40.00 L72.00,40.00 Z" fill="#0078d4" stroke="#1e1e1e" stroke-width="1" stroke-linejoin="round"/><path d="M136.00,200.00 L232.00,200.00 L233.61,199.84 L235.11,199.37 L236.47,198.63 L237.65,197.66 L238.63,196.47 L239.37,195.11 L239.83,193.61 L240.00,192.00 L239.83,190.39 L239.37,188.89 L238.63,187.53 L237.65,186.34 L236.47,185.37 L235.11,184.63 L233.61,184.16 L232.00,184.00 L136.00,184.00 L136.00,200.00 Z" fill="#0078d4" stroke="#1e1e1e" stroke-width="1" stroke-linejoin="round"/><path d="M48.00,80.00 L45.55,80.12 L43.16,80.49 L40.86,81.08 L38.66,81.89 L36.56,82.90 L34.58,84.10 L32.73,85.48 L31.03,87.03 L29.48,88.73 L28.10,90.58 L26.90,92.56 L25.89,94.66 L25.08,96.86 L24.49,99.16 L24.12,101.55 L24.00,104.00 L24.00,200.00 L24.12,202.45 L24.49,204.84 L25.08,207.14 L25.89,209.34 L26.90,211.44 L28.10,213.42 L29.48,215.27 L31.03,216.97 L32.73,218.52 L34.58,219.90 L36.56,221.10 L38.66,222.11 L40.86,222.92 L43.16,223.51 L45.55,223.88 L48.00,224.00 L96.00,224.00 L98.45,223.88 L100.84,223.51 L103.14,222.92 L105.34,222.11 L107.44,221.10 L109.42,219.90 L111.27,218.52 L112.97,216.97 L114.52,215.27 L115.90,213.42 L117.10,211.44 L118.11,209.34 L118.92,207.14 L119.51,204.84 L119.88,202.45 L120.00,200.00 L120.00,104.00 L119.88,101.55 L119.51,99.16 L118.92,96.86 L118.11,94.66 L117.10,92.56 L115.90,90.58 L114.52,88.73 L112.97,87.03 L111.27,85.48 L109.42,84.10 L107.44,82.90 L105.34,81.89 L103.14,81.08 L100.84,80.49 L98.45,80.12 L96.00,80.00 L48.00,80.00 Z" fill="#8dc8e8" stroke="#8dc8e8" stroke-width="1" stroke-linejoin="round"/><path d="M64.00,192.00 L64.16,193.61 L64.63,195.11 L65.37,196.47 L66.34,197.66 L67.53,198.63 L68.89,199.37 L70.39,199.84 L72.00,200.00 L73.61,199.84 L75.11,199.37 L76.47,198.63 L77.66,197.66 L78.63,196.47 L79.37,195.11 L79.84,193.61 L80.00,192.00 L79.84,190.39 L79.37,188.89 L78.63,187.53 L77.66,186.34 L76.47,185.37 L75.11,184.63 L73.61,184.16 L72.00,184.00 L70.39,184.16 L68.89,184.63 L67.53,185.37 L66.34,186.34 L65.37,187.53 L64.63,188.89 L64.16,190.39 L64.00,192.00 Z" fill="#ffffff" stroke="#ffffff" stroke-width="1" stroke-linejoin="round"/></svg>