<svg xmlns="http://www.w3.org/2000/svg" viewBox="7.60 7.60 100.00 100.00"><path d="M21.60,19.80 L21.65,18.76 L21.81,17.74 L22.06,16.77 L22.40,15.83 L22.83,14.94 L23.34,14.10 L23.93,13.31 L24.59,12.59 L25.31,11.93 L26.10,11.34 L26.94,10.83 L27.83,10.40 L28.77,10.06 L29.74,9.81 L30.76,9.65 L31.80,9.60 L95.40,9.60 L96.44,9.65 L97.46,9.81 L98.43,10.06 L99.37,10.40 L100.26,10.83 L101.10,11.34 L101.89,11.93 L102.61,12.59 L103.27,13.31 L103.86,14.10 L104.37,14.94 L104.80,15.83 L105.14,16.77 L105.39,17.74 L105.55,18.76 L105.60,19.80 L105.60,61.80 L105.55,62.84 L105.39,63.86 L105.14,64.83 L104.80,65.77 L104.37,66.66 L103.86,67.50 L103.27,68.29 L102.61,69.01 L101.89,69.67 L101.10,70.26 L100.26,70.77 L99.37,71.20 L98.43,71.54 L97.46,71.79 L96.44,71.95 L95.40,72.00 L76.80,72.00 L76.80,84.00 L83.40,84.00 L84.00,84.06 L84.57,84.24 L85.08,84.51 L85.52,84.88 L85.89,85.32 L86.16,85.83 L86.34,86.40 L86.40,87.00 L86.34,87.60 L86.16,88.17 L85.89,88.68 L85.52,89.12 L85.08,89.49 L84.57,89.76 L84.00,89.94 L83.40,90.00 L52.80,90.00 L52.80,84.00 L70.80,84.00 L70.80,72.00 L52.80,72.00 L52.80,51.00 L52.72,49.47 L52.50,47.98 L52.13,46.54 L51.62,45.16 L50.99,43.85 L50.24,42.61 L49.37,41.46 L48.41,40.39 L47.34,39.43 L46.19,38.56 L44.95,37.81 L43.64,37.18 L42.26,36.67 L40.82,36.30 L39.33,36.08 L37.80,36.00 L21.60,36.00 L21.60,19.80 Z" fill="#0078d4" stroke="#1e1e1e" stroke-width="1" stroke-linejoin="round"/><path d="M9.60,51.00 L9.65,49.96 L9.81,48.94 L10.06,47.97 L10.40,47.03 L10.83,46.14 L11.34,45.30 L11.93,44.51 L12.59,43.79 L13.31,43.13 L14.10,42.54 L14.94,42.03 L15.83,41.60 L16.77,41.26 L17.74,41.01 L18.76,40.85 L19.80,40.80 L37.80,40.80 L38.84,40.85 L39.86,41.01 L40.83,41.26 L41.77,41.60 L42.66,42.03 L43.50,42.54 L44.29,43.13 L45.01,43.79 L45.67,44.51 L46.26,45.30 L46.77,46.14 L47.20,47.03 L47.54,47.97 L47.79,48.94 L47.95,49.96 L48.00,51.00 L48.00,95.40 L47.95,96.44 L47.79,97.46 L47.54,98.43 L47.20,99.37 L46.77,100.26 L46.26,101.10 L45.67,101.89 L45.01,102.61 L44.29,103.27 L43.50,103.86 L42.66,104.37 L41.77,104.80 L40.83,105.14 L39.86,105.39 L38.84,105.55 L37.80,105.60 L19.80,105.60 L18.76,105.55 L17.74,105.39 L16.77,105.14 L15.83,104.80 L14.94,104.37 L14.10,103.86 L13.31,103.27 L12.59,102.61 L11.93,101.89 L11.34,101.10 L10.83,100.26 L10.40,99.37 L10.06,98.43 L9.81,97.46 L9.65,96.44 L9.60,95.40 L9.60,51.00 Z" fill="#8dc8e8" stroke="#8dc8e8" stroke-width="1" stroke-linejoin="round"/><path d="M25.80,94.80 L25.20,94.74 L24.63,94.56 L24.12,94.29 L23.68,93.92 L23.31,93.48 L23.04,92.97 L22.86,92.40 L22.80,91.80 L22.86,91.20 L23.04,90.63 L23.31,90.12 L23.68,89.68 L24.12,89.31 L24.63,89.04 L25.20,88.86 L25.80,88.80 L31.80,88.80 L32.40,88.86 L32.97,89.04 L33.48,89.31 L33.92,89.68 L34.29,90.12 L34.56,90.63 L34.74,91.20 L34.80,91.80 L34.74,92.40 L34.56,92.97 L34.29,93.48 L33.92,93.92 L33.48,94.29 L32.97,94.56 L32.40,94.74 L31.80,94.80 L25.80,94.80 Z" fill="#ffffff" stroke="#ffffff" stroke-width="1" stroke-linejoin="round"/></svg>