<svg xmlns="http://www.w3.org/2000/svg" viewBox="62.00 19.33 132.00 217.33"><path d="M86.67,21.33 L84.35,21.45 L82.10,21.79 L79.93,22.35 L77.84,23.11 L75.86,24.07 L73.99,25.20 L72.25,26.51 L70.64,27.97 L69.18,29.58 L67.87,31.33 L66.74,33.20 L65.78,35.18 L65.02,37.26 L64.46,39.43 L64.12,41.68 L64.00,44.00 L64.00,212.00 L64.12,214.32 L64.46,216.57 L65.02,218.74 L65.78,220.82 L66.74,222.80 L67.87,224.67 L69.18,226.42 L70.64,228.03 L72.25,229.49 L73.99,230.80 L75.86,231.93 L77.84,232.89 L79.93,233.65 L82.10,234.21 L84.35,234.55 L86.67,234.67 L169.33,234.67 L171.65,234.55 L173.90,234.21 L176.07,233.65 L178.16,232.89 L180.14,231.93 L182.01,230.80 L183.75,229.49 L185.36,228.03 L186.82,226.42 L188.13,224.67 L189.26,222.80 L190.22,220.82 L190.98,218.74 L191.54,216.57 L191.88,214.32 L192.00,212.00 L192.00,44.00 L191.88,41.68 L191.54,39.43 L190.98,37.26 L190.22,35.18 L189.26,33.20 L188.13,31.33 L186.82,29.58 L185.36,27.97 L183.75,26.51 L182.01,25.20 L180.14,24.07 L178.16,23.11 L176.07,22.35 L173.90,21.79 L171.65,21.45 L169.33,21.33 L86.67,21.33 Z" fill="#0078d4" stroke="#1e1e1e" stroke-width="1" stroke-linejoin="round"/><path d="M113.33,189.33 L142.67,189.33 L144.01,189.47 L145.26,189.86 L146.39,190.47 L147.38,191.29 L148.19,192.27 L148.81,193.40 L149.20,194.66 L149.33,196.00 L149.20,197.34 L148.81,198.60 L148.19,199.73 L147.38,200.71 L146.39,201.53 L145.26,202.14 L144.01,202.53 L142.67,202.67 L113.33,202.67 L111.99,202.53 L110.74,202.14 L109.61,201.53 L108.62,200.71 L107.81,199.73 L107.19,198.60 L106.80,197.34 L106.67,196.00 L106.80,194.66 L107.19,193.40 L107.81,192.27 L108.62,191.29 L109.61,190.47 L110.74,189.86 L111.99,189.47 L113.33,189.33 Z" fill="#ffffff" stroke="#1e1e1e" stroke-width="1" stroke-linejoin="round"/></svg>