<svg xmlns="http://www.w3.org/2000/svg" viewBox="19.34 40.67 217.33 174.67"><path d="M234.61,65.02 L234.34,62.71 L233.86,60.48 L233.18,58.32 L232.30,56.26 L231.24,54.30 L230.01,52.46 L228.62,50.74 L227.09,49.16 L225.41,47.73 L223.60,46.45 L221.68,45.34 L219.65,44.40 L217.52,43.66 L215.31,43.12 L213.02,42.78 L210.67,42.67 L88.00,42.67 L86.25,42.73 L84.11,42.98 L82.03,43.41 L80.03,44.02 L78.10,44.80 L76.26,45.73 L74.51,46.81 L72.87,48.04 L71.34,49.39 L69.93,50.87 L68.65,52.47 L67.50,54.17 L66.51,55.98 L65.66,57.87 L64.98,59.84 L64.47,61.89 L64.15,64.00 L90.67,64.00 L92.42,64.06 L94.99,64.35 L97.48,64.88 L99.88,65.64 L102.18,66.61 L104.36,67.78 L106.42,69.14 L108.33,70.69 L110.09,72.40 L111.69,74.26 L113.12,76.27 L114.36,78.41 L115.40,80.67 L116.23,83.04 L116.83,85.50 L117.21,88.05 L117.33,90.67 L117.33,181.33 L210.67,181.33 L212.31,181.28 L214.62,181.01 L216.86,180.53 L219.01,179.84 L221.07,178.97 L223.03,177.91 L224.87,176.68 L226.59,175.29 L228.17,173.75 L229.61,172.07 L230.89,170.27 L232.00,168.35 L232.93,166.31 L233.67,164.19 L234.22,161.97 L234.55,159.69 L234.67,157.33 L234.67,66.67 L234.61,65.02 Z" fill="#0078d4" stroke="#1e1e1e" stroke-width="1" stroke-linejoin="round"/><path d="M136.00,144.00 L162.67,144.00 L163.75,144.07 L165.17,144.40 L166.48,144.97 L167.66,145.75 L168.67,146.72 L169.51,147.85 L170.14,149.13 L170.53,150.52 L170.67,152.00 L170.50,153.61 L170.04,155.11 L169.30,156.47 L168.32,157.66 L167.14,158.63 L165.78,159.37 L164.28,159.84 L162.67,160.00 L136.00,160.00 L134.91,159.93 L133.50,159.60 L132.19,159.03 L131.01,158.25 L129.99,157.28 L129.16,156.15 L128.53,154.87 L128.14,153.48 L128.00,152.00 L128.16,150.39 L128.63,148.89 L129.37,147.53 L130.34,146.34 L131.53,145.37 L132.89,144.63 L134.39,144.16 L136.00,144.00 Z" fill="#ffffff" stroke="#1e1e1e" stroke-width="1" stroke-linejoin="round"/><path d="M88.05,74.67 L89.96,74.76 L91.82,75.04 L93.60,75.50 L95.32,76.13 L96.95,76.92 L98.49,77.85 L99.93,78.93 L101.25,80.13 L102.46,81.46 L103.53,82.90 L104.47,84.43 L105.25,86.07 L105.88,87.78 L106.34,89.57 L106.62,91.42 L106.72,93.33 L106.72,194.67 L106.62,196.58 L106.34,198.43 L105.88,200.22 L105.25,201.93 L104.47,203.56 L103.53,205.10 L102.46,206.54 L101.25,207.87 L99.93,209.07 L98.49,210.15 L96.95,211.08 L95.32,211.87 L93.60,212.49 L91.82,212.95 L89.96,213.24 L88.05,213.33 L40.01,213.33 L38.10,213.24 L36.24,212.95 L34.46,212.49 L32.74,211.87 L31.11,211.08 L29.57,210.15 L28.13,209.07 L26.81,207.87 L25.60,206.54 L24.53,205.10 L23.59,203.56 L22.81,201.93 L22.18,200.22 L21.72,198.43 L21.44,196.58 L21.34,194.67 L21.34,93.33 L21.44,91.42 L21.72,89.57 L22.18,87.78 L22.81,86.07 L23.59,84.43 L24.53,82.90 L25.60,81.46 L26.81,80.13 L28.13,78.93 L29.57,77.85 L31.11,76.92 L32.74,76.13 L34.46,75.50 L36.24,75.04 L38.10,74.76 L40.01,74.67 L88.05,74.67 Z" fill="#8dc8e8" stroke="#1e1e1e" stroke-width="1" stroke-linejoin="round"/><path d="M61.36,175.95 L66.70,175.95 L67.78,176.02 L69.20,176.35 L70.51,176.91 L71.69,177.69 L72.70,178.66 L73.54,179.80 L74.17,181.08 L74.56,182.47 L74.70,183.95 L74.56,185.43 L74.17,186.82 L73.54,188.10 L72.70,189.23 L71.69,190.20 L70.51,190.98 L69.20,191.55 L67.78,191.88 L66.70,191.95 L61.36,191.95 L60.28,191.88 L58.86,191.55 L57.55,190.98 L56.37,190.20 L55.36,189.23 L54.52,188.10 L53.89,186.82 L53.50,185.43 L53.36,183.95 L53.50,182.47 L53.89,181.08 L54.52,179.80 L55.36,178.66 L56.37,177.69 L57.55,176.91 L58.86,176.35 L60.28,176.02 L61.36,175.95 Z" fill="#ffffff" stroke="#1e1e1e" stroke-width="1" stroke-linejoin="round"/></svg>