<svg xmlns="http://www.w3.org/2000/svg" viewBox="29.99 19.33 195.96 217.38"><path d="M215.95,138.63 L217.31,138.74 L218.57,139.05 L219.72,139.54 L220.75,140.19 L221.64,140.98 L222.41,141.89 L223.03,142.90 L223.49,143.98 L223.80,145.12 L223.95,146.29 L223.92,147.48 L223.72,148.66 L223.32,149.81 L222.74,150.91 L221.95,151.94 L220.95,152.88 L170.62,193.17 L170.62,210.71 L170.50,213.16 L170.13,215.55 L169.54,217.85 L168.74,220.05 L167.73,222.15 L166.52,224.13 L165.14,225.98 L163.59,227.68 L161.89,229.23 L160.04,230.61 L158.06,231.81 L155.96,232.82 L153.76,233.63 L151.46,234.22 L149.08,234.59 L146.62,234.71 L109.34,234.71 L106.88,234.59 L104.50,234.22 L102.20,233.63 L100.00,232.82 L97.90,231.81 L95.92,230.61 L94.07,229.23 L92.37,227.68 L90.82,225.98 L89.44,224.13 L88.23,222.15 L87.22,220.05 L86.42,217.85 L85.83,215.55 L85.46,213.16 L85.34,210.71 L85.34,193.17 L35.00,152.88 L34.00,151.94 L33.21,150.91 L32.62,149.81 L32.22,148.66 L32.02,147.48 L31.99,146.29 L32.14,145.12 L32.45,143.98 L32.91,142.90 L33.53,141.89 L34.30,140.98 L35.19,140.19 L36.22,139.54 L37.37,139.05 L38.63,138.74 L39.99,138.63 L215.95,138.63 Z" fill="#5b5fc7" stroke="#1e1e1e" stroke-width="1" stroke-linejoin="round"/><path d="M93.34,96.00 L162.61,96.00 L164.43,96.08 L166.19,96.34 L167.90,96.75 L169.54,97.32 L172.60,98.89 L175.30,100.97 L177.57,103.49 L179.36,106.41 L180.05,107.99 L180.60,109.64 L180.99,111.36 L181.22,113.13 L181.28,114.66 L181.28,128.00 L74.67,128.00 L74.67,114.66 L74.76,112.85 L75.01,111.08 L75.43,109.37 L76.00,107.73 L77.56,104.68 L79.64,101.98 L82.17,99.70 L85.08,97.92 L86.66,97.22 L88.32,96.68 L90.03,96.29 L91.81,96.06 L93.34,96.00 Z" fill="#aab1fa" stroke="#1e1e1e" stroke-width="1" stroke-linejoin="round"/><path d="M128.00,21.33 L131.28,21.50 L134.45,21.98 L137.52,22.77 L140.46,23.85 L143.26,25.20 L145.90,26.80 L148.36,28.64 L150.63,30.71 L152.70,32.98 L154.54,35.44 L156.14,38.08 L157.49,40.88 L158.57,43.82 L159.35,46.88 L159.84,50.06 L160.00,53.33 L159.84,56.61 L159.35,59.78 L158.57,62.85 L157.49,65.79 L156.14,68.59 L154.54,71.22 L152.70,73.69 L150.63,75.96 L148.36,78.03 L145.90,79.87 L143.26,81.47 L140.46,82.82 L137.52,83.89 L134.45,84.68 L131.28,85.17 L128.00,85.33 L124.73,85.17 L121.56,84.68 L118.49,83.89 L115.55,82.82 L112.75,81.47 L110.11,79.87 L107.65,78.03 L105.38,75.96 L103.31,73.69 L101.47,71.22 L99.87,68.59 L98.52,65.79 L97.44,62.85 L96.65,59.78 L96.17,56.61 L96.00,53.33 L96.17,50.06 L96.65,46.88 L97.44,43.82 L98.52,40.88 L99.87,38.08 L101.47,35.44 L103.31,32.98 L105.38,30.71 L107.65,28.64 L110.11,26.80 L112.75,25.20 L115.55,23.85 L118.49,22.77 L121.56,21.98 L124.73,21.50 L128.00,21.33 Z" fill="#aab1fa" stroke="#1e1e1e" stroke-width="1" stroke-linejoin="round"/></svg>