<svg xmlns="http://www.w3.org/2000/svg" viewBox="12.39 7.60 90.36 100.00"><path d="M97.16,62.37 L97.77,62.42 L98.34,62.56 L98.85,62.78 L99.32,63.07 L99.72,63.43 L100.06,63.84 L100.34,64.29 L100.55,64.78 L100.69,65.29 L100.76,65.82 L100.74,66.35 L100.65,66.88 L100.47,67.40 L100.21,67.89 L99.85,68.36 L99.40,68.78 L76.76,86.91 L76.76,94.80 L76.71,95.90 L76.54,96.98 L76.28,98.01 L75.92,99.00 L75.46,99.95 L74.92,100.84 L74.30,101.67 L73.60,102.44 L72.83,103.13 L72.00,103.75 L71.11,104.29 L70.17,104.75 L69.18,105.11 L68.14,105.38 L67.07,105.54 L65.97,105.60 L49.19,105.60 L48.09,105.54 L47.02,105.38 L45.98,105.11 L44.99,104.75 L44.05,104.29 L43.15,103.75 L42.32,103.13 L41.56,102.44 L40.86,101.67 L40.24,100.84 L39.70,99.95 L39.24,99.00 L38.88,98.01 L38.61,96.98 L38.45,95.90 L38.39,94.80 L38.39,86.91 L15.74,68.78 L15.30,68.36 L14.94,67.89 L14.67,67.40 L14.50,66.88 L14.40,66.35 L14.39,65.82 L14.46,65.29 L14.60,64.78 L14.81,64.29 L15.09,63.84 L15.43,63.43 L15.83,63.07 L16.30,62.78 L16.81,62.56 L17.38,62.42 L17.99,62.37 L97.16,62.37 Z" fill="#5b5fc7" stroke="#1e1e1e" stroke-width="1" stroke-linejoin="round"/><path d="M41.99,43.19 L73.16,43.19 L73.98,43.23 L74.77,43.34 L75.54,43.53 L76.28,43.79 L77.65,44.49 L78.87,45.43 L79.89,46.56 L80.70,47.87 L81.01,48.58 L81.25,49.33 L81.43,50.10 L81.53,50.90 L81.56,51.59 L81.56,57.59 L33.60,57.59 L33.60,51.59 L33.63,50.77 L33.75,49.98 L33.94,49.21 L34.19,48.47 L34.90,47.09 L35.83,45.88 L36.97,44.86 L38.28,44.05 L38.99,43.74 L39.73,43.50 L40.51,43.32 L41.30,43.22 L41.99,43.19 Z" fill="#aab1fa" stroke="#1e1e1e" stroke-width="1" stroke-linejoin="round"/><path d="M57.59,9.60 L59.06,9.67 L60.49,9.89 L61.87,10.25 L63.19,10.73 L64.45,11.34 L65.64,12.06 L66.75,12.89 L67.77,13.81 L68.70,14.84 L69.53,15.95 L70.25,17.13 L70.86,18.39 L71.34,19.71 L71.69,21.09 L71.91,22.52 L71.99,24.00 L71.91,25.47 L71.69,26.90 L71.34,28.28 L70.86,29.60 L70.25,30.86 L69.53,32.04 L68.70,33.15 L67.77,34.18 L66.75,35.10 L65.64,35.93 L64.45,36.65 L63.19,37.26 L61.87,37.74 L60.49,38.10 L59.06,38.32 L57.59,38.39 L56.12,38.32 L54.69,38.10 L53.31,37.74 L51.99,37.26 L50.73,36.65 L49.54,35.93 L48.43,35.10 L47.41,34.18 L46.48,33.15 L45.65,32.04 L44.93,30.86 L44.32,29.60 L43.84,28.28 L43.49,26.90 L43.27,25.47 L43.19,24.00 L43.27,22.52 L43.49,21.09 L43.84,19.71 L44.32,18.39 L44.93,17.13 L45.65,15.95 L46.48,14.84 L47.41,13.81 L48.43,12.89 L49.54,12.06 L50.73,11.34 L51.99,10.73 L53.31,10.25 L54.69,9.89 L56.12,9.67 L57.59,9.60 Z" fill="#aab1fa" stroke="#1e1e1e" stroke-width="1" stroke-linejoin="round"/></svg>