<svg xmlns="http://www.w3.org/2000/svg" viewBox="7.60 7.60 100.00 100.00"><path d="M57.60,9.60 L60.07,9.66 L62.51,9.85 L64.91,10.15 L67.27,10.58 L69.60,11.11 L71.87,11.76 L74.10,12.51 L76.28,13.37 L78.41,14.33 L80.48,15.39 L82.49,16.55 L84.44,17.80 L86.32,19.14 L88.13,20.56 L89.87,22.07 L91.54,23.66 L93.13,25.33 L94.64,27.07 L96.06,28.88 L97.40,30.76 L98.65,32.71 L99.81,34.72 L100.87,36.79 L101.83,38.92 L102.69,41.10 L103.44,43.33 L104.09,45.60 L104.62,47.93 L105.05,50.29 L105.35,52.69 L105.54,55.13 L105.60,57.60 L105.54,60.07 L105.35,62.51 L105.05,64.91 L104.62,67.27 L104.09,69.60 L103.44,71.87 L102.69,74.10 L101.83,76.28 L100.87,78.41 L99.81,80.48 L98.65,82.49 L97.40,84.44 L96.06,86.32 L94.64,88.13 L93.13,89.87 L91.54,91.54 L89.87,93.13 L88.13,94.64 L86.32,96.06 L84.44,97.40 L82.49,98.65 L80.48,99.81 L78.41,100.87 L76.28,101.83 L74.10,102.69 L71.87,103.44 L69.60,104.09 L67.27,104.62 L64.91,105.05 L62.51,105.35 L60.07,105.54 L57.60,105.60 L55.13,105.54 L52.69,105.35 L50.29,105.05 L47.93,104.62 L45.60,104.09 L43.33,103.44 L41.10,102.69 L38.92,101.83 L36.79,100.87 L34.72,99.81 L32.71,98.65 L30.76,97.40 L28.88,96.06 L27.07,94.64 L25.33,93.13 L23.66,91.54 L22.07,89.87 L20.56,88.13 L19.14,86.32 L17.80,84.44 L16.55,82.49 L15.39,80.48 L14.33,78.41 L13.37,76.28 L12.51,74.10 L11.76,71.87 L11.11,69.60 L10.58,67.27 L10.15,64.91 L9.85,62.51 L9.66,60.07 L9.60,57.60 L9.66,55.13 L9.85,52.69 L10.15,50.29 L10.58,47.93 L11.11,45.60 L11.76,43.33 L12.51,41.10 L13.37,38.92 L14.33,36.79 L15.39,34.72 L16.55,32.71 L17.80,30.76 L19.14,28.88 L20.56,27.07 L22.07,25.33 L23.66,23.66 L25.33,22.07 L27.07,20.56 L28.88,19.14 L30.76,17.80 L32.71,16.55 L34.72,15.39 L36.79,14.33 L38.92,13.37 L41.10,12.51 L43.33,11.76 L45.60,11.11 L47.93,10.58 L50.29,10.15 L52.69,9.85 L55.13,9.66 L57.60,9.60 Z" fill="#0078d4" stroke="#0078d4" stroke-width="1" stroke-linejoin="round"/><path d="M58.20,76.80 L57.47,76.87 L56.80,77.08 L56.19,77.41 L55.65,77.85 L55.21,78.39 L54.88,79.00 L54.67,79.67 L54.60,80.40 L54.67,81.13 L54.88,81.80 L55.21,82.41 L55.65,82.95 L56.19,83.39 L56.80,83.72 L57.47,83.93 L58.20,84.00 L58.93,83.93 L59.60,83.72 L60.21,83.39 L60.75,82.95 L61.19,82.41 L61.52,81.80 L61.73,81.13 L61.80,80.40 L61.73,79.67 L61.52,79.00 L61.19,78.39 L60.75,77.85 L60.21,77.41 L59.60,77.08 L58.93,76.87 L58.20,76.80 Z" fill="#ffffff" stroke="#ffffff" stroke-width="1" stroke-linejoin="round"/><path d="M58.20,31.20 L56.70,31.28 L55.24,31.51 L53.82,31.89 L52.45,32.41 L51.14,33.05 L49.91,33.82 L48.75,34.69 L47.67,35.67 L46.69,36.74 L45.82,37.90 L45.05,39.14 L44.41,40.45 L43.89,41.82 L43.51,43.24 L43.28,44.70 L43.20,46.20 L43.26,46.80 L43.44,47.37 L43.71,47.88 L44.08,48.32 L44.52,48.69 L45.03,48.96 L45.60,49.14 L46.20,49.20 L46.73,49.15 L47.23,49.02 L47.69,48.80 L48.11,48.51 L48.47,48.16 L48.77,47.76 L48.99,47.30 L49.14,46.80 L49.18,46.51 L49.21,45.74 L49.31,44.89 L49.49,44.06 L49.74,43.25 L50.08,42.48 L50.49,41.73 L50.96,41.03 L51.49,40.37 L52.08,39.76 L52.72,39.20 L53.40,38.70 L54.13,38.26 L54.89,37.89 L55.68,37.60 L56.50,37.38 L57.34,37.25 L58.20,37.20 L59.09,37.25 L59.95,37.39 L60.80,37.62 L61.62,37.94 L62.40,38.33 L63.14,38.79 L63.84,39.32 L64.49,39.91 L65.08,40.56 L65.61,41.26 L66.07,42.00 L66.46,42.78 L66.78,43.60 L67.01,44.44 L67.15,45.31 L67.20,46.20 L67.15,47.23 L67.00,48.22 L66.73,49.17 L66.34,50.12 L65.81,51.09 L65.13,52.10 L64.31,53.18 L63.31,54.35 L62.82,54.90 L60.35,57.54 L58.99,59.08 L57.83,60.52 L56.87,61.91 L56.10,63.27 L55.52,64.62 L55.11,66.01 L54.88,67.47 L54.81,69.02 L54.88,69.63 L55.06,70.19 L55.34,70.70 L55.70,71.14 L56.15,71.50 L56.66,71.77 L57.23,71.94 L57.83,72.00 L58.33,71.96 L58.79,71.84 L59.23,71.65 L59.62,71.39 L59.97,71.08 L60.27,70.72 L60.51,70.31 L60.68,69.87 L60.75,69.58 L60.80,69.29 L60.81,68.98 L60.82,68.59 L60.89,67.88 L61.04,67.18 L61.27,66.49 L61.59,65.78 L62.53,64.28 L63.89,62.57 L64.34,62.07 L66.77,59.47 L68.36,57.69 L69.71,56.02 L70.82,54.44 L71.71,52.89 L72.38,51.33 L72.84,49.72 L73.11,48.03 L73.20,46.20 L73.12,44.70 L72.89,43.23 L72.51,41.81 L71.99,40.45 L71.35,39.14 L70.58,37.90 L69.71,36.74 L68.73,35.67 L67.65,34.69 L66.49,33.81 L65.26,33.05 L63.95,32.41 L62.58,31.89 L61.16,31.51 L59.70,31.28 L58.20,31.20 Z" fill="#ffffff" stroke="#ffffff" stroke-width="1" stroke-linejoin="round"/></svg>