<svg xmlns="http://www.w3.org/2000/svg" viewBox="10.00 10.01 100.00 99.99"><path d="M79.14,26.01 L85.70,19.45 L83.94,18.38 L82.15,17.40 L80.33,16.50 L78.47,15.68 L76.60,14.95 L74.69,14.29 L72.77,13.72 L70.83,13.23 L68.87,12.82 L66.91,12.50 L64.93,12.25 L62.94,12.09 L60.96,12.01 L58.97,12.01 L56.98,12.09 L54.99,12.26 L53.02,12.51 L51.05,12.84 L49.09,13.25 L47.15,13.74 L45.23,14.32 L43.33,14.98 L41.45,15.71 L39.60,16.54 L37.78,17.44 L35.99,18.42 L34.23,19.49 L32.51,20.64 L30.83,21.87 L29.19,23.19 L27.60,24.58 L26.06,26.06 L24.36,27.85 L22.76,29.70 L21.28,31.62 L19.91,33.59 L18.64,35.61 L17.49,37.68 L16.45,39.79 L15.51,41.94 L14.69,44.12 L13.98,46.33 L13.37,48.57 L12.88,50.83 L12.49,53.11 L12.22,55.40 L12.05,57.70 L12.00,60.00 L12.05,62.30 L12.22,64.60 L12.49,66.89 L12.88,69.17 L13.37,71.43 L13.98,73.67 L14.69,75.88 L15.51,78.06 L16.45,80.21 L17.49,82.32 L18.64,84.39 L19.91,86.41 L21.28,88.38 L22.76,90.30 L24.36,92.15 L26.06,93.94 L27.85,95.64 L29.70,97.24 L31.62,98.72 L33.59,100.09 L35.61,101.35 L37.68,102.51 L39.79,103.55 L41.94,104.49 L44.12,105.31 L46.33,106.02 L48.57,106.63 L50.83,107.12 L53.11,107.51 L55.40,107.78 L57.70,107.94 L60.00,108.00 L62.30,107.94 L64.60,107.78 L66.89,107.51 L69.17,107.12 L71.43,106.63 L73.67,106.02 L75.88,105.31 L78.06,104.49 L80.21,103.55 L82.32,102.51 L84.39,101.35 L86.41,100.09 L88.38,98.72 L90.30,97.24 L92.15,95.64 L93.94,93.94 L94.52,93.24 L94.93,92.45 L95.18,91.62 L95.26,90.76 L95.18,89.90 L94.93,89.07 L94.52,88.28 L93.94,87.58 L93.24,87.00 L92.45,86.59 L91.62,86.34 L90.76,86.26 L89.90,86.34 L89.07,86.59 L88.28,87.00 L87.58,87.58 L86.12,88.96 L84.62,90.25 L83.06,91.46 L81.46,92.57 L79.82,93.60 L78.14,94.54 L76.42,95.39 L74.68,96.14 L72.90,96.81 L71.10,97.39 L69.28,97.88 L67.45,98.29 L65.60,98.60 L63.74,98.82 L61.87,98.96 L60.00,99.00 L58.13,98.96 L56.26,98.82 L54.40,98.60 L52.55,98.29 L50.71,97.88 L48.90,97.39 L47.10,96.81 L45.32,96.14 L43.58,95.39 L41.86,94.54 L40.18,93.60 L38.54,92.57 L36.94,91.46 L35.38,90.25 L33.88,88.96 L32.42,87.58 L31.04,86.12 L29.75,84.62 L28.54,83.06 L27.43,81.46 L26.40,79.82 L25.46,78.14 L24.61,76.42 L23.86,74.68 L23.19,72.90 L22.61,71.10 L22.12,69.28 L21.71,67.45 L21.40,65.60 L21.18,63.74 L21.04,61.87 L21.00,60.00 L21.04,58.13 L21.18,56.26 L21.40,54.40 L21.71,52.55 L22.12,50.71 L22.61,48.90 L23.19,47.10 L23.86,45.32 L24.61,43.58 L25.46,41.86 L26.40,40.18 L27.43,38.54 L28.54,36.94 L29.75,35.38 L31.04,33.88 L32.42,32.42 L34.87,30.17 L37.45,28.17 L40.16,26.41 L42.97,24.90 L45.87,23.64 L48.85,22.62 L51.88,21.85 L54.95,21.33 L58.05,21.05 L61.16,21.02 L64.27,21.23 L67.35,21.69 L70.39,22.40 L73.39,23.36 L76.31,24.56 L79.14,26.01 Z" fill="#0078d4" stroke="#1e1e1e" stroke-width="1" stroke-linejoin="round"/><path d="M103.50,40.50 L103.41,41.41 L103.15,42.25 L102.73,43.02 L102.18,43.68 L101.52,44.23 L100.75,44.65 L99.91,44.91 L99.00,45.00 L98.09,44.91 L97.25,44.65 L96.48,44.23 L95.82,43.68 L95.27,43.02 L94.85,42.25 L94.59,41.41 L94.50,40.50 L94.59,39.59 L94.85,38.75 L95.27,37.98 L95.82,37.32 L96.48,36.77 L97.25,36.35 L98.09,36.09 L99.00,36.00 L99.91,36.09 L100.75,36.35 L101.52,36.77 L102.18,37.32 L102.73,37.98 L103.15,38.75 L103.41,39.59 L103.50,40.50 Z" fill="#0078d4" stroke="#0078d4" stroke-width="1" stroke-linejoin="round"/><path d="M103.50,72.00 L104.41,71.91 L105.25,71.65 L106.02,71.23 L106.68,70.68 L107.23,70.02 L107.65,69.25 L107.91,68.41 L108.00,67.50 L107.91,66.59 L107.65,65.75 L107.23,64.98 L106.68,64.32 L106.02,63.77 L105.25,63.35 L104.41,63.09 L103.50,63.00 L102.59,63.09 L101.75,63.35 L100.98,63.77 L100.32,64.32 L99.77,64.98 L99.35,65.75 L99.09,66.59 L99.00,67.50 L99.09,68.41 L99.35,69.25 L99.77,70.02 L100.32,70.68 L100.98,71.23 L101.75,71.65 L102.59,71.91 L103.50,72.00 Z" fill="#0078d4" stroke="#0078d4" stroke-width="1" stroke-linejoin="round"/><path d="M108.00,52.50 L107.91,53.41 L107.65,54.25 L107.23,55.02 L106.68,55.68 L106.02,56.23 L105.25,56.65 L104.41,56.91 L103.50,57.00 L102.59,56.91 L101.75,56.65 L100.98,56.23 L100.32,55.68 L99.77,55.02 L99.35,54.25 L99.09,53.41 L99.00,52.50 L99.09,51.59 L99.35,50.75 L99.77,49.98 L100.32,49.32 L100.98,48.77 L101.75,48.35 L102.59,48.09 L103.50,48.00 L104.41,48.09 L105.25,48.35 L106.02,48.77 L106.68,49.32 L107.23,49.98 L107.65,50.75 L107.91,51.59 L108.00,52.50 Z" fill="#0078d4" stroke="#0078d4" stroke-width="1" stroke-linejoin="round"/><path d="M103.50,79.50 L103.41,80.41 L103.15,81.25 L102.73,82.02 L102.18,82.68 L101.52,83.23 L100.75,83.65 L99.91,83.91 L99.00,84.00 L98.09,83.91 L97.25,83.65 L96.48,83.23 L95.82,82.68 L95.27,82.02 L94.85,81.25 L94.59,80.41 L94.50,79.50 L94.59,78.59 L94.85,77.75 L95.27,76.98 L95.82,76.32 L96.48,75.77 L97.25,75.35 L98.09,75.09 L99.00,75.00 L99.91,75.09 L100.75,75.35 L101.52,75.77 L102.18,76.32 L102.73,76.98 L103.15,77.75 L103.41,78.59 L103.50,79.50 Z" fill="#0078d4" stroke="#0078d4" stroke-width="1" stroke-linejoin="round"/><path d="M94.68,25.32 L95.26,26.02 L95.67,26.81 L95.92,27.64 L96.00,28.50 L95.92,29.36 L95.67,30.19 L95.26,30.98 L94.68,31.68 L68.70,57.67 L68.92,58.81 L69.00,60.00 L68.95,60.92 L68.82,61.81 L68.60,62.68 L68.29,63.50 L67.91,64.29 L67.46,65.03 L66.94,65.72 L66.36,66.36 L65.72,66.94 L65.03,67.46 L64.29,67.91 L63.50,68.29 L62.68,68.60 L61.81,68.82 L60.92,68.95 L60.00,69.00 L59.08,68.95 L58.19,68.82 L57.32,68.60 L56.50,68.29 L55.71,67.91 L54.97,67.46 L54.28,66.94 L53.64,66.36 L53.06,65.72 L52.54,65.03 L52.09,64.29 L51.71,63.50 L51.40,62.68 L51.18,61.81 L51.05,60.92 L51.00,60.00 L51.05,59.08 L51.18,58.19 L51.40,57.32 L51.71,56.50 L52.09,55.71 L52.54,54.97 L53.06,54.28 L53.64,53.64 L54.28,53.06 L54.97,52.54 L55.71,52.09 L56.50,51.71 L57.32,51.40 L58.19,51.18 L59.08,51.05 L60.00,51.00 L61.19,51.08 L62.33,51.30 L88.32,25.32 L89.02,24.74 L89.81,24.33 L90.64,24.08 L91.50,24.00 L92.36,24.08 L93.19,24.33 L93.98,24.74 L94.68,25.32 Z" fill="#8dc8e8" stroke="#1e1e1e" stroke-width="1" stroke-linejoin="round"/><path d="M65.93,39.22 L72.91,32.25 L70.75,31.34 L68.55,30.61 L66.31,30.05 L64.05,29.67 L61.76,29.45 L59.46,29.40 L57.17,29.53 L54.89,29.83 L52.63,30.29 L50.41,30.93 L48.23,31.74 L46.11,32.73 L44.05,33.88 L42.06,35.20 L40.17,36.70 L38.36,38.36 L37.28,39.50 L36.26,40.69 L35.32,41.91 L34.44,43.16 L33.64,44.45 L32.90,45.77 L31.64,48.49 L30.66,51.29 L29.96,54.16 L29.54,57.07 L29.40,60.00 L29.54,62.93 L29.96,65.84 L30.66,68.71 L31.64,71.51 L32.90,74.23 L33.64,75.55 L34.44,76.84 L35.32,78.09 L36.26,79.31 L37.28,80.50 L38.36,81.64 L39.50,82.72 L40.69,83.74 L41.91,84.68 L43.16,85.56 L44.45,86.36 L45.77,87.10 L48.49,88.36 L51.29,89.34 L54.16,90.04 L57.07,90.46 L60.00,90.60 L62.93,90.46 L65.84,90.04 L68.71,89.34 L71.51,88.36 L74.23,87.10 L75.55,86.36 L76.84,85.56 L78.09,84.68 L79.31,83.74 L80.50,82.72 L81.64,81.64 L82.21,80.93 L82.63,80.15 L82.87,79.31 L82.96,78.46 L82.87,77.60 L82.63,76.76 L82.21,75.98 L81.64,75.27 L80.93,74.70 L80.15,74.28 L79.31,74.04 L78.46,73.96 L77.60,74.04 L76.76,74.28 L75.98,74.70 L75.27,75.27 L73.63,76.76 L71.89,78.04 L70.04,79.13 L68.13,80.02 L66.15,80.71 L64.13,81.20 L62.07,81.50 L60.00,81.60 L57.93,81.50 L55.87,81.20 L53.85,80.71 L51.87,80.02 L49.95,79.13 L48.11,78.04 L46.37,76.76 L44.73,75.27 L43.24,73.63 L41.96,71.89 L40.87,70.04 L39.98,68.13 L39.29,66.15 L38.80,64.13 L38.50,62.07 L38.40,60.00 L38.50,57.93 L38.80,55.87 L39.29,53.85 L39.98,51.87 L40.87,49.95 L41.96,48.11 L43.24,46.37 L44.73,44.73 L45.83,43.70 L46.99,42.76 L48.19,41.91 L49.44,41.15 L50.72,40.49 L52.03,39.92 L53.38,39.44 L54.74,39.05 L56.13,38.75 L57.53,38.54 L58.93,38.43 L60.34,38.40 L61.75,38.47 L63.16,38.63 L64.55,38.88 L65.93,39.22 Z" fill="#8dc8e8" stroke="#1e1e1e" stroke-width="1" stroke-linejoin="round"/><path d="M85.50,57.00 L86.41,56.91 L87.25,56.65 L88.02,56.23 L88.68,55.68 L89.23,55.02 L89.65,54.25 L89.91,53.41 L90.00,52.50 L89.91,51.59 L89.65,50.75 L89.23,49.98 L88.68,49.32 L88.02,48.77 L87.25,48.35 L86.41,48.09 L85.50,48.00 L84.59,48.09 L83.75,48.35 L82.98,48.77 L82.32,49.32 L81.77,49.98 L81.35,50.75 L81.09,51.59 L81.00,52.50 L81.09,53.41 L81.35,54.25 L81.77,55.02 L82.32,55.68 L82.98,56.23 L83.75,56.65 L84.59,56.91 L85.50,57.00 Z" fill="#8dc8e8" stroke="#8dc8e8" stroke-width="1" stroke-linejoin="round"/><path d="M90.00,67.50 L89.91,68.41 L89.65,69.25 L89.23,70.02 L88.68,70.68 L88.02,71.23 L87.25,71.65 L86.41,71.91 L85.50,72.00 L84.59,71.91 L83.75,71.65 L82.98,71.23 L82.32,70.68 L81.77,70.02 L81.35,69.25 L81.09,68.41 L81.00,67.50 L81.09,66.59 L81.35,65.75 L81.77,64.98 L82.32,64.32 L82.98,63.77 L83.75,63.35 L84.59,63.09 L85.50,63.00 L86.41,63.09 L87.25,63.35 L88.02,63.77 L88.68,64.32 L89.23,64.98 L89.65,65.75 L89.91,66.59 L90.00,67.50 Z" fill="#8dc8e8" stroke="#8dc8e8" stroke-width="1" stroke-linejoin="round"/></svg>