<svg xmlns="http://www.w3.org/2000/svg" viewBox="23.60 23.62 208.80 208.78"><path d="M168.84,55.49 L182.83,41.49 L179.08,39.22 L175.26,37.13 L171.37,35.20 L167.41,33.46 L163.40,31.89 L159.35,30.49 L155.24,29.27 L151.10,28.23 L146.93,27.36 L142.73,26.66 L138.51,26.14 L134.28,25.79 L130.04,25.62 L125.79,25.62 L121.55,25.80 L117.32,26.16 L113.10,26.68 L108.90,27.39 L104.73,28.26 L100.59,29.32 L96.49,30.54 L92.44,31.95 L88.43,33.52 L84.48,35.28 L80.59,37.20 L76.77,39.31 L73.02,41.58 L69.35,44.04 L65.77,46.66 L62.28,49.46 L58.88,52.44 L55.59,55.59 L51.96,59.41 L48.56,63.37 L45.40,67.45 L42.47,71.66 L39.78,75.97 L37.32,80.38 L35.09,84.88 L33.10,89.47 L31.34,94.12 L29.82,98.85 L28.53,103.62 L27.47,108.44 L26.65,113.30 L26.07,118.18 L25.72,123.09 L25.60,128.00 L25.72,132.91 L26.07,137.82 L26.65,142.70 L27.47,147.56 L28.53,152.38 L29.82,157.15 L31.34,161.88 L33.10,166.53 L35.09,171.12 L37.32,175.62 L39.78,180.03 L42.47,184.34 L45.40,188.55 L48.56,192.63 L51.96,196.59 L55.59,200.41 L59.41,204.04 L63.37,207.44 L67.45,210.60 L71.66,213.53 L75.97,216.22 L80.38,218.68 L84.88,220.91 L89.47,222.90 L94.12,224.66 L98.85,226.18 L103.62,227.47 L108.44,228.53 L113.30,229.35 L118.18,229.93 L123.09,230.28 L128.00,230.40 L132.91,230.28 L137.82,229.93 L142.70,229.35 L147.56,228.53 L152.38,227.47 L157.15,226.18 L161.88,224.66 L166.53,222.90 L171.12,220.91 L175.62,218.68 L180.03,216.22 L184.34,213.53 L188.55,210.60 L192.63,207.44 L196.59,204.04 L200.41,200.41 L201.64,198.90 L202.52,197.23 L203.04,195.45 L203.22,193.62 L203.04,191.79 L202.52,190.01 L201.64,188.34 L200.41,186.83 L198.90,185.60 L197.23,184.72 L195.45,184.20 L193.62,184.02 L191.79,184.20 L190.01,184.72 L188.34,185.60 L186.83,186.83 L183.73,189.78 L180.51,192.54 L177.19,195.11 L173.78,197.49 L170.28,199.68 L166.69,201.68 L163.03,203.49 L159.31,205.11 L155.52,206.54 L151.69,207.77 L147.81,208.82 L143.89,209.68 L139.94,210.34 L135.97,210.82 L131.99,211.10 L128.00,211.20 L124.01,211.10 L120.03,210.82 L116.06,210.34 L112.11,209.68 L108.19,208.82 L104.31,207.77 L100.48,206.54 L96.69,205.11 L92.97,203.49 L89.31,201.68 L85.72,199.68 L82.22,197.49 L78.81,195.11 L75.49,192.54 L72.27,189.78 L69.17,186.83 L66.22,183.73 L63.46,180.51 L60.89,177.19 L58.51,173.78 L56.32,170.28 L54.32,166.69 L52.51,163.03 L50.89,159.31 L49.46,155.52 L48.23,151.69 L47.18,147.81 L46.32,143.89 L45.66,139.94 L45.18,135.97 L44.90,131.99 L44.80,128.00 L44.90,124.01 L45.18,120.03 L45.66,116.06 L46.32,112.11 L47.18,108.19 L48.23,104.31 L49.46,100.48 L50.89,96.69 L52.51,92.97 L54.32,89.31 L56.32,85.72 L58.51,82.22 L60.89,78.81 L63.46,75.49 L66.22,72.27 L69.17,69.17 L74.39,64.37 L79.90,60.09 L85.68,56.35 L91.67,53.12 L97.86,50.43 L104.21,48.26 L110.68,46.61 L117.24,45.50 L123.85,44.90 L130.48,44.84 L137.11,45.30 L143.68,46.28 L150.17,47.79 L156.55,49.83 L162.79,52.40 L168.84,55.49 Z" fill="#0078d4" stroke="#1e1e1e" stroke-width="1" stroke-linejoin="round"/><path d="M220.80,86.40 L220.60,88.33 L220.05,90.14 L219.16,91.77 L217.99,93.19 L216.57,94.36 L214.94,95.25 L213.13,95.80 L211.20,96.00 L209.27,95.80 L207.46,95.25 L205.83,94.36 L204.41,93.19 L203.24,91.77 L202.35,90.14 L201.80,88.33 L201.60,86.40 L201.80,84.47 L202.35,82.66 L203.24,81.03 L204.41,79.61 L205.83,78.44 L207.46,77.55 L209.27,77.00 L211.20,76.80 L213.13,77.00 L214.94,77.55 L216.57,78.44 L217.99,79.61 L219.16,81.03 L220.05,82.66 L220.60,84.47 L220.80,86.40 Z" fill="#0078d4" stroke="#1e1e1e" stroke-width="1" stroke-linejoin="round"/><path d="M220.80,153.60 L222.73,153.40 L224.54,152.85 L226.17,151.96 L227.59,150.79 L228.76,149.37 L229.65,147.74 L230.20,145.93 L230.40,144.00 L230.20,142.07 L229.65,140.26 L228.76,138.63 L227.59,137.21 L226.17,136.04 L224.54,135.15 L222.73,134.60 L220.80,134.40 L218.87,134.60 L217.06,135.15 L215.43,136.04 L214.01,137.21 L212.84,138.63 L211.95,140.26 L211.40,142.07 L211.20,144.00 L211.40,145.93 L211.95,147.74 L212.84,149.37 L214.01,150.79 L215.43,151.96 L217.06,152.85 L218.87,153.40 L220.80,153.60 Z" fill="#0078d4" stroke="#1e1e1e" stroke-width="1" stroke-linejoin="round"/><path d="M230.40,112.00 L230.20,113.93 L229.65,115.74 L228.76,117.37 L227.59,118.79 L226.17,119.96 L224.54,120.85 L222.73,121.40 L220.80,121.60 L218.87,121.40 L217.06,120.85 L215.43,119.96 L214.01,118.79 L212.84,117.37 L211.95,115.74 L211.40,113.93 L211.20,112.00 L211.40,110.07 L211.95,108.26 L212.84,106.63 L214.01,105.21 L215.43,104.04 L217.06,103.15 L218.87,102.60 L220.80,102.40 L222.73,102.60 L224.54,103.15 L226.17,104.04 L227.59,105.21 L228.76,106.63 L229.65,108.26 L230.20,110.07 L230.40,112.00 Z" fill="#0078d4" stroke="#1e1e1e" stroke-width="1" stroke-linejoin="round"/><path d="M220.80,169.60 L220.60,171.53 L220.05,173.34 L219.16,174.97 L217.99,176.39 L216.57,177.56 L214.94,178.45 L213.13,179.00 L211.20,179.20 L209.27,179.00 L207.46,178.45 L205.83,177.56 L204.41,176.39 L203.24,174.97 L202.35,173.34 L201.80,171.53 L201.60,169.60 L201.80,167.67 L202.35,165.86 L203.24,164.23 L204.41,162.81 L205.83,161.64 L207.46,160.75 L209.27,160.20 L211.20,160.00 L213.13,160.20 L214.94,160.75 L216.57,161.64 L217.99,162.81 L219.16,164.23 L220.05,165.86 L220.60,167.67 L220.80,169.60 Z" fill="#0078d4" stroke="#1e1e1e" stroke-width="1" stroke-linejoin="round"/><path d="M201.99,54.01 L203.22,55.52 L204.10,57.19 L204.62,58.97 L204.80,60.80 L204.62,62.63 L204.10,64.41 L203.22,66.08 L201.99,67.59 L146.55,123.03 L147.03,125.46 L147.20,128.00 L147.10,129.96 L146.81,131.87 L146.34,133.71 L145.69,135.47 L144.88,137.15 L143.92,138.73 L142.82,140.21 L141.58,141.58 L140.21,142.82 L138.73,143.92 L137.15,144.88 L135.47,145.69 L133.71,146.34 L131.87,146.81 L129.96,147.10 L128.00,147.20 L126.04,147.10 L124.13,146.81 L122.29,146.34 L120.53,145.69 L118.85,144.88 L117.27,143.92 L115.79,142.82 L114.42,141.58 L113.18,140.21 L112.08,138.73 L111.12,137.15 L110.31,135.47 L109.66,133.71 L109.19,131.87 L108.90,129.96 L108.80,128.00 L108.90,126.04 L109.19,124.13 L109.66,122.29 L110.31,120.53 L111.12,118.85 L112.08,117.27 L113.18,115.79 L114.42,114.42 L115.79,113.18 L117.27,112.08 L118.85,111.12 L120.53,110.31 L122.29,109.66 L124.13,109.19 L126.04,108.90 L128.00,108.80 L130.54,108.97 L132.97,109.45 L188.41,54.01 L189.92,52.78 L191.59,51.90 L193.37,51.38 L195.20,51.20 L197.03,51.38 L198.81,51.90 L200.48,52.78 L201.99,54.01 Z" fill="#8dc8e8" stroke="#1e1e1e" stroke-width="1" stroke-linejoin="round"/><path d="M140.64,83.68 L155.53,68.79 L150.94,66.87 L146.25,65.31 L141.47,64.12 L136.63,63.29 L131.75,62.83 L126.85,62.73 L121.96,63.00 L117.10,63.63 L112.29,64.63 L107.55,65.99 L102.90,67.72 L98.37,69.81 L93.97,72.27 L89.74,75.10 L85.69,78.29 L81.84,81.84 L79.52,84.28 L77.36,86.80 L75.34,89.40 L73.47,92.08 L71.76,94.83 L70.19,97.64 L67.50,103.44 L65.41,109.41 L63.91,115.53 L63.02,121.74 L62.72,128.00 L63.02,134.26 L63.91,140.47 L65.41,146.59 L67.50,152.56 L70.19,158.36 L71.76,161.17 L73.47,163.92 L75.34,166.60 L77.36,169.20 L79.52,171.72 L81.84,174.16 L84.28,176.48 L86.80,178.64 L89.40,180.66 L92.08,182.53 L94.83,184.24 L97.64,185.81 L103.44,188.50 L109.41,190.59 L115.53,192.08 L121.74,192.98 L128.00,193.28 L134.26,192.98 L140.47,192.08 L146.59,190.59 L152.56,188.50 L158.36,185.81 L161.17,184.24 L163.92,182.53 L166.60,180.66 L169.20,178.64 L171.72,176.48 L174.16,174.16 L175.39,172.65 L176.27,170.98 L176.80,169.21 L176.97,167.37 L176.80,165.54 L176.27,163.76 L175.39,162.09 L174.16,160.58 L172.65,159.35 L170.98,158.47 L169.21,157.95 L167.37,157.77 L165.54,157.95 L163.76,158.47 L162.09,159.35 L160.58,160.58 L157.08,163.75 L153.35,166.49 L149.43,168.81 L145.34,170.71 L141.12,172.18 L136.80,173.24 L132.42,173.87 L128.00,174.08 L123.58,173.87 L119.20,173.24 L114.88,172.18 L110.66,170.71 L106.57,168.81 L102.65,166.49 L98.92,163.75 L95.42,160.58 L92.25,157.08 L89.51,153.35 L87.19,149.43 L85.29,145.34 L83.82,141.12 L82.76,136.80 L82.13,132.42 L81.92,128.00 L82.13,123.58 L82.76,119.20 L83.82,114.88 L85.29,110.66 L87.19,106.57 L89.51,102.65 L92.25,98.92 L95.42,95.42 L97.77,93.22 L100.24,91.21 L102.80,89.41 L105.46,87.79 L108.20,86.38 L111.01,85.16 L113.87,84.13 L116.79,83.30 L119.74,82.66 L122.73,82.22 L125.73,81.98 L128.74,81.93 L131.74,82.07 L134.74,82.41 L137.71,82.95 L140.64,83.68 Z" fill="#8dc8e8" stroke="#1e1e1e" stroke-width="1" stroke-linejoin="round"/><path d="M182.40,121.60 L184.33,121.40 L186.14,120.85 L187.77,119.96 L189.19,118.79 L190.36,117.37 L191.25,115.74 L191.80,113.93 L192.00,112.00 L191.80,110.07 L191.25,108.26 L190.36,106.63 L189.19,105.21 L187.77,104.04 L186.14,103.15 L184.33,102.60 L182.40,102.40 L180.47,102.60 L178.66,103.15 L177.03,104.04 L175.61,105.21 L174.44,106.63 L173.55,108.26 L173.00,110.07 L172.80,112.00 L173.00,113.93 L173.55,115.74 L174.44,117.37 L175.61,118.79 L177.03,119.96 L178.66,120.85 L180.47,121.40 L182.40,121.60 Z" fill="#8dc8e8" stroke="#1e1e1e" stroke-width="1" stroke-linejoin="round"/><path d="M192.00,144.00 L191.80,145.93 L191.25,147.74 L190.36,149.37 L189.19,150.79 L187.77,151.96 L186.14,152.85 L184.33,153.40 L182.40,153.60 L180.47,153.40 L178.66,152.85 L177.03,151.96 L175.61,150.79 L174.44,149.37 L173.55,147.74 L173.00,145.93 L172.80,144.00 L173.00,142.07 L173.55,140.26 L174.44,138.63 L175.61,137.21 L177.03,136.04 L178.66,135.15 L180.47,134.60 L182.40,134.40 L184.33,134.60 L186.14,135.15 L187.77,136.04 L189.19,137.21 L190.36,138.63 L191.25,140.26 L191.80,142.07 L192.00,144.00 Z" fill="#8dc8e8" stroke="#1e1e1e" stroke-width="1" stroke-linejoin="round"/></svg>