<svg xmlns="http://www.w3.org/2000/svg" viewBox="22.00 22.00 212.00 212.00"><path d="M24.00,50.00 L24.13,47.34 L24.53,44.76 L25.17,42.27 L26.04,39.88 L27.14,37.61 L28.44,35.46 L29.94,33.46 L31.62,31.62 L33.46,29.94 L35.46,28.44 L37.61,27.14 L39.88,26.04 L42.27,25.17 L44.76,24.53 L47.34,24.13 L50.00,24.00 L158.00,24.00 L160.66,24.13 L163.24,24.53 L165.73,25.17 L168.12,26.04 L170.39,27.14 L172.54,28.44 L174.54,29.94 L176.38,31.62 L178.06,33.46 L179.56,35.46 L180.86,37.61 L181.96,39.88 L182.83,42.27 L183.47,44.76 L183.87,47.34 L184.00,50.00 L184.00,152.00 L232.00,152.00 L232.00,196.00 L231.81,199.68 L231.27,203.26 L230.38,206.71 L229.17,210.01 L227.65,213.16 L225.85,216.13 L223.78,218.90 L221.46,221.46 L218.90,223.78 L216.13,225.85 L213.16,227.65 L210.01,229.17 L206.71,230.38 L203.26,231.27 L199.68,231.81 L196.00,232.00 L60.00,232.00 L56.32,231.81 L52.74,231.27 L49.29,230.38 L45.99,229.17 L42.84,227.65 L39.87,225.85 L37.10,223.78 L34.54,221.46 L32.22,218.90 L30.15,216.13 L28.35,213.16 L26.83,210.01 L25.62,206.71 L24.73,203.26 L24.19,199.68 L24.00,196.00 L24.00,50.00 Z" fill="#0078d4" stroke="#1e1e1e" stroke-width="1" stroke-linejoin="round"/><path d="M184.00,216.00 L196.00,216.00 L198.04,215.90 L200.03,215.59 L201.95,215.10 L203.78,214.43 L205.53,213.59 L207.18,212.58 L208.72,211.43 L210.14,210.14 L211.43,208.72 L212.58,207.18 L213.59,205.53 L214.43,203.78 L215.10,201.95 L215.59,200.03 L215.90,198.04 L216.00,196.00 L216.00,168.00 L184.00,168.00 L184.00,216.00 Z" fill="#ffffff" stroke="#1e1e1e" stroke-width="1" stroke-linejoin="round"/><path d="M64.00,80.00 L64.16,81.61 L64.63,83.11 L65.37,84.47 L66.34,85.66 L67.53,86.63 L68.89,87.37 L70.39,87.84 L72.00,88.00 L136.00,88.00 L137.61,87.84 L139.11,87.37 L140.47,86.63 L141.66,85.66 L142.63,84.47 L143.37,83.11 L143.84,81.61 L144.00,80.00 L143.84,78.39 L143.37,76.89 L142.63,75.53 L141.66,74.34 L140.47,73.37 L139.11,72.63 L137.61,72.16 L136.00,72.00 L72.00,72.00 L70.39,72.16 L68.89,72.63 L67.53,73.37 L66.34,74.34 L65.37,75.53 L64.63,76.89 L64.16,78.39 L64.00,80.00 Z" fill="#ffffff" stroke="#1e1e1e" stroke-width="1" stroke-linejoin="round"/><path d="M72.00,120.00 L70.39,120.16 L68.89,120.63 L67.53,121.37 L66.34,122.34 L65.37,123.53 L64.63,124.89 L64.16,126.39 L64.00,128.00 L64.16,129.61 L64.63,131.11 L65.37,132.47 L66.34,133.66 L67.53,134.63 L68.89,135.37 L70.39,135.84 L72.00,136.00 L136.00,136.00 L137.61,135.84 L139.11,135.37 L140.47,134.63 L141.66,133.66 L142.63,132.47 L143.37,131.11 L143.84,129.61 L144.00,128.00 L143.84,126.39 L143.37,124.89 L142.63,123.53 L141.66,122.34 L140.47,121.37 L139.11,120.63 L137.61,120.16 L136.00,120.00 L72.00,120.00 Z" fill="#ffffff" stroke="#1e1e1e" stroke-width="1" stroke-linejoin="round"/><path d="M64.00,176.00 L64.16,177.61 L64.63,179.11 L65.37,180.47 L66.34,181.66 L67.53,182.63 L68.89,183.37 L70.39,183.84 L72.00,184.00 L104.00,184.00 L105.61,183.84 L107.11,183.37 L108.47,182.63 L109.66,181.66 L110.63,180.47 L111.37,179.11 L111.84,177.61 L112.00,176.00 L111.84,174.39 L111.37,172.89 L110.63,171.53 L109.66,170.34 L108.47,169.37 L107.11,168.63 L105.61,168.16 L104.00,168.00 L72.00,168.00 L70.39,168.16 L68.89,168.63 L67.53,169.37 L66.34,170.34 L65.37,171.53 L64.63,172.89 L64.16,174.39 L64.00,176.00 Z" fill="#ffffff" stroke="#1e1e1e" stroke-width="1" stroke-linejoin="round"/></svg>