<svg xmlns="http://www.w3.org/2000/svg" viewBox="22.01 7.60 71.21 100.00"><path d="M81.63,73.19 L81.62,102.00 L81.58,102.53 L81.48,103.03 L81.07,103.93 L80.46,104.66 L79.68,105.20 L78.79,105.52 L77.84,105.60 L76.88,105.42 L76.41,105.22 L75.95,104.94 L57.62,92.04 L39.29,104.94 L38.84,105.22 L38.36,105.42 L37.40,105.60 L36.45,105.52 L35.56,105.20 L34.79,104.66 L34.17,103.93 L33.77,103.03 L33.66,102.53 L33.62,102.00 L33.61,73.20 L36.16,75.07 L38.86,76.74 L41.70,78.18 L44.67,79.38 L47.76,80.34 L50.96,81.04 L54.24,81.47 L55.92,81.58 L57.61,81.62 L59.31,81.58 L60.98,81.47 L62.64,81.29 L64.27,81.04 L67.47,80.34 L70.56,79.38 L73.53,78.17 L76.38,76.73 L79.08,75.06 L81.63,73.19 Z" fill="#0078d4" stroke="#1e1e1e" stroke-width="1" stroke-linejoin="round"/><path d="M57.61,9.60 L59.34,9.65 L61.05,9.78 L62.73,9.99 L64.39,10.28 L66.01,10.66 L67.61,11.11 L69.17,11.64 L70.69,12.24 L72.18,12.92 L73.63,13.66 L75.04,14.47 L76.40,15.34 L77.72,16.28 L78.99,17.28 L80.21,18.33 L81.38,19.45 L82.49,20.61 L83.55,21.83 L84.54,23.10 L85.48,24.42 L86.35,25.78 L87.16,27.19 L87.91,28.64 L88.58,30.13 L89.18,31.65 L89.71,33.22 L90.16,34.81 L90.54,36.44 L90.83,38.09 L91.05,39.77 L91.18,41.48 L91.22,43.21 L91.18,44.94 L91.05,46.65 L90.83,48.33 L90.54,49.98 L90.16,51.61 L89.71,53.20 L89.18,54.76 L88.58,56.29 L87.91,57.78 L87.16,59.23 L86.35,60.64 L85.48,62.00 L84.54,63.32 L83.55,64.59 L82.49,65.81 L81.38,66.97 L80.21,68.09 L78.99,69.14 L77.72,70.14 L76.40,71.08 L75.04,71.95 L73.63,72.76 L72.18,73.50 L70.69,74.18 L69.17,74.78 L67.61,75.31 L66.01,75.76 L64.39,76.13 L62.73,76.43 L61.05,76.64 L59.34,76.77 L57.61,76.82 L55.88,76.77 L54.18,76.64 L52.49,76.43 L50.84,76.13 L49.21,75.76 L47.62,75.31 L46.06,74.78 L44.53,74.18 L43.04,73.50 L41.59,72.76 L40.19,71.95 L38.82,71.08 L37.50,70.14 L36.24,69.14 L35.02,68.09 L33.85,66.97 L32.74,65.81 L31.68,64.59 L30.68,63.32 L29.74,62.00 L28.87,60.64 L28.06,59.23 L27.32,57.78 L26.65,56.29 L26.04,54.76 L25.52,53.20 L25.06,51.61 L24.69,49.98 L24.39,48.33 L24.18,46.65 L24.05,44.94 L24.01,43.21 L24.05,41.48 L24.18,39.77 L24.39,38.09 L24.69,36.44 L25.06,34.81 L25.52,33.22 L26.04,31.65 L26.65,30.13 L27.32,28.64 L28.06,27.19 L28.87,25.78 L29.74,24.42 L30.68,23.10 L31.68,21.83 L32.74,20.61 L33.85,19.45 L35.02,18.33 L36.24,17.28 L37.50,16.28 L38.82,15.34 L40.19,14.47 L41.59,13.66 L43.04,12.92 L44.53,12.24 L46.06,11.64 L47.62,11.11 L49.21,10.66 L50.84,10.28 L52.49,9.99 L54.18,9.78 L55.88,9.65 L57.61,9.60 Z" fill="#8dc8e8" stroke="#1e1e1e" stroke-width="1" stroke-linejoin="round"/></svg>