<svg xmlns="http://www.w3.org/2000/svg" viewBox="51.33 19.33 153.33 217.29"><path d="M181.35,162.60 L181.34,226.61 L181.26,227.80 L181.02,228.91 L180.12,230.90 L178.75,232.52 L177.03,233.72 L175.06,234.44 L172.94,234.62 L170.80,234.21 L169.75,233.77 L168.74,233.16 L128.01,204.49 L87.30,233.16 L86.28,233.77 L85.24,234.21 L83.09,234.62 L80.98,234.44 L79.01,233.72 L77.28,232.52 L75.92,230.90 L75.02,228.91 L74.78,227.80 L74.69,226.61 L74.67,162.62 L80.33,166.79 L86.33,170.49 L92.65,173.69 L99.25,176.37 L106.11,178.50 L113.21,180.06 L120.51,181.01 L124.24,181.25 L128.00,181.33 L131.77,181.25 L135.49,181.01 L139.17,180.61 L142.80,180.05 L149.90,178.50 L156.77,176.36 L163.37,173.68 L169.69,170.47 L175.69,166.77 L181.35,162.60 Z" fill="#0078d4" stroke="#1e1e1e" stroke-width="1" stroke-linejoin="round"/><path d="M128.00,21.33 L131.84,21.43 L135.63,21.72 L139.37,22.19 L143.05,22.85 L146.66,23.68 L150.20,24.69 L153.67,25.86 L157.06,27.20 L160.37,28.70 L163.59,30.35 L166.72,32.14 L169.75,34.09 L172.67,36.17 L175.49,38.38 L178.20,40.73 L180.80,43.20 L183.27,45.80 L185.62,48.51 L187.83,51.33 L189.91,54.25 L191.86,57.28 L193.65,60.41 L195.30,63.63 L196.80,66.94 L198.14,70.33 L199.31,73.80 L200.32,77.34 L201.15,80.95 L201.81,84.63 L202.28,88.37 L202.57,92.16 L202.67,96.00 L202.57,99.84 L202.28,103.63 L201.81,107.37 L201.15,111.05 L200.32,114.66 L199.31,118.20 L198.14,121.67 L196.80,125.06 L195.30,128.37 L193.65,131.59 L191.86,134.72 L189.91,137.75 L187.83,140.67 L185.62,143.49 L183.27,146.20 L180.80,148.80 L178.20,151.27 L175.49,153.62 L172.67,155.83 L169.75,157.91 L166.72,159.86 L163.59,161.65 L160.37,163.30 L157.06,164.80 L153.67,166.14 L150.20,167.31 L146.66,168.32 L143.05,169.15 L139.37,169.81 L135.63,170.28 L131.84,170.57 L128.00,170.67 L124.16,170.57 L120.37,170.28 L116.63,169.81 L112.95,169.15 L109.34,168.32 L105.80,167.31 L102.33,166.14 L98.94,164.80 L95.63,163.30 L92.41,161.65 L89.28,159.86 L86.25,157.91 L83.33,155.83 L80.51,153.62 L77.80,151.27 L75.20,148.80 L72.73,146.20 L70.38,143.49 L68.17,140.67 L66.09,137.75 L64.14,134.72 L62.35,131.59 L60.70,128.37 L59.20,125.06 L57.86,121.67 L56.69,118.20 L55.68,114.66 L54.85,111.05 L54.19,107.37 L53.72,103.63 L53.43,99.84 L53.33,96.00 L53.43,92.16 L53.72,88.37 L54.19,84.63 L54.85,80.95 L55.68,77.34 L56.69,73.80 L57.86,70.33 L59.20,66.94 L60.70,63.63 L62.35,60.41 L64.14,57.28 L66.09,54.25 L68.17,51.33 L70.38,48.51 L72.73,45.80 L75.20,43.20 L77.80,40.73 L80.51,38.38 L83.33,36.17 L86.25,34.09 L89.28,32.14 L92.41,30.35 L95.63,28.70 L98.94,27.20 L102.33,25.86 L105.80,24.69 L109.34,23.68 L112.95,22.85 L116.63,22.19 L120.37,21.72 L124.16,21.43 L128.00,21.33 Z" fill="#8dc8e8" stroke="#1e1e1e" stroke-width="1" stroke-linejoin="round"/></svg>