<svg xmlns="http://www.w3.org/2000/svg" viewBox="51.33 19.33 153.33 217.29"><path d="M181.34,226.61 L181.35,162.60 L175.69,166.77 L169.69,170.47 L163.37,173.68 L156.77,176.36 L149.90,178.50 L142.80,180.05 L139.17,180.61 L135.49,181.01 L131.77,181.25 L128.00,181.33 L124.24,181.25 L120.51,181.01 L113.21,180.06 L106.11,178.50 L99.25,176.37 L92.65,173.69 L86.33,170.49 L80.33,166.79 L74.67,162.62 L74.69,226.61 L74.78,227.80 L75.02,228.91 L75.92,230.90 L77.28,232.52 L79.01,233.72 L80.98,234.44 L83.09,234.62 L85.24,234.21 L86.28,233.77 L87.30,233.16 L128.01,204.49 L168.74,233.16 L169.75,233.77 L170.80,234.21 L172.94,234.62 L175.06,234.44 L177.03,233.72 L178.75,232.52 L180.12,230.90 L181.02,228.91 L181.26,227.80 L181.34,226.61 Z" fill="#0078d4" stroke="#1e1e1e" stroke-width="1" stroke-linejoin="round"/><path d="M202.67,96.00 L202.57,92.16 L202.28,88.37 L201.81,84.63 L201.15,80.95 L200.32,77.34 L199.31,73.80 L198.14,70.33 L196.80,66.94 L195.30,63.63 L193.65,60.41 L191.86,57.28 L189.91,54.25 L187.83,51.33 L185.62,48.51 L183.27,45.80 L180.80,43.20 L178.20,40.73 L175.49,38.38 L172.67,36.17 L169.75,34.09 L166.72,32.14 L163.59,30.35 L160.37,28.70 L157.06,27.20 L153.67,25.86 L150.20,24.69 L146.66,23.68 L143.05,22.85 L139.37,22.19 L135.63,21.72 L131.84,21.43 L128.00,21.33 L124.16,21.43 L120.37,21.72 L116.63,22.19 L112.95,22.85 L109.34,23.68 L105.80,24.69 L102.33,25.86 L98.94,27.20 L95.63,28.70 L92.41,30.35 L89.28,32.14 L86.25,34.09 L83.33,36.17 L80.51,38.38 L77.80,40.73 L75.20,43.20 L72.73,45.80 L70.38,48.51 L68.17,51.33 L66.09,54.25 L64.14,57.28 L62.35,60.41 L60.70,63.63 L59.20,66.94 L57.86,70.33 L56.69,73.80 L55.68,77.34 L54.85,80.95 L54.19,84.63 L53.72,88.37 L53.43,92.16 L53.33,96.00 L53.43,99.84 L53.72,103.63 L54.19,107.37 L54.85,111.05 L55.68,114.66 L56.69,118.20 L57.86,121.67 L59.20,125.06 L60.70,128.37 L62.35,131.59 L64.14,134.72 L66.09,137.75 L68.17,140.67 L70.38,143.49 L72.73,146.20 L75.20,148.80 L77.80,151.27 L80.51,153.62 L83.33,155.83 L86.25,157.91 L89.28,159.86 L92.41,161.65 L95.63,163.30 L98.94,164.80 L102.33,166.14 L105.80,167.31 L109.34,168.32 L112.95,169.15 L116.63,169.81 L120.37,170.28 L124.16,170.57 L128.00,170.67 L131.84,170.57 L135.63,170.28 L139.37,169.81 L143.05,169.15 L146.66,168.32 L150.20,167.31 L153.67,166.14 L157.06,164.80 L160.37,163.30 L163.59,161.65 L166.72,159.86 L169.75,157.91 L172.67,155.83 L175.49,153.62 L178.20,151.27 L180.80,148.80 L183.27,146.20 L185.62,143.49 L187.83,140.67 L189.91,137.75 L191.86,134.72 L193.65,131.59 L195.30,128.37 L196.80,125.06 L198.14,121.67 L199.31,118.20 L200.32,114.66 L201.15,111.05 L201.81,107.37 L202.28,103.63 L202.57,99.84 L202.67,96.00 Z" fill="#8dc8e8" stroke="#1e1e1e" stroke-width="1" stroke-linejoin="round"/><path d="M140.17,79.95 L130.44,60.19 L129.99,59.52 L129.40,59.05 L128.72,58.76 L128.00,58.67 L127.28,58.76 L126.60,59.05 L126.02,59.52 L125.56,60.19 L115.83,79.95 L94.02,83.10 L93.25,83.32 L92.62,83.74 L92.14,84.29 L91.83,84.95 L91.69,85.66 L91.76,86.40 L92.03,87.10 L92.52,87.74 L108.30,103.10 L104.56,124.81 L104.54,125.62 L104.74,126.35 L105.12,126.97 L105.64,127.47 L106.28,127.82 L107.00,127.99 L107.75,127.95 L108.51,127.68 L128.00,117.41 L147.49,127.68 L148.25,127.95 L149.00,127.99 L149.72,127.82 L150.36,127.48 L150.88,126.98 L151.26,126.35 L151.46,125.62 L151.44,124.81 L147.72,103.10 L163.49,87.74 L163.98,87.10 L164.25,86.39 L164.31,85.66 L164.17,84.95 L163.86,84.29 L163.38,83.74 L162.75,83.32 L161.98,83.10 L140.17,79.95 Z" fill="#ffffff" stroke="#1e1e1e" stroke-width="1" stroke-linejoin="round"/></svg>