<svg xmlns="http://www.w3.org/2000/svg" viewBox="4.86 4.86 99.98 100.00"><path d="M89.12,6.86 L90.83,6.99 L91.71,7.14 L92.54,7.34 L91.53,7.64 L90.56,8.02 L89.62,8.47 L88.72,8.99 L87.87,9.56 L87.07,10.20 L86.32,10.90 L85.62,11.65 L84.98,12.45 L84.40,13.29 L83.89,14.18 L83.44,15.12 L83.07,16.09 L82.77,17.09 L82.54,18.13 L82.40,19.20 L82.28,20.19 L82.27,20.30 L82.27,92.55 L82.21,93.60 L82.06,94.62 L81.80,95.61 L81.46,96.55 L81.02,97.45 L80.51,98.30 L79.92,99.09 L79.25,99.82 L78.52,100.49 L77.73,101.08 L76.88,101.59 L75.98,102.03 L75.04,102.37 L74.05,102.63 L73.03,102.78 L71.98,102.84 L70.93,102.78 L69.91,102.63 L68.93,102.37 L67.99,102.03 L67.09,101.59 L66.24,101.08 L65.45,100.48 L64.72,99.82 L64.05,99.09 L63.46,98.30 L62.94,97.45 L62.51,96.55 L62.16,95.61 L61.91,94.62 L61.75,93.60 L61.70,92.55 L61.70,82.27 L61.67,81.57 L61.56,80.89 L61.16,79.60 L60.53,78.44 L59.69,77.42 L58.68,76.58 L57.51,75.95 L56.23,75.55 L55.55,75.45 L54.85,75.41 L20.57,75.41 L20.57,23.99 L20.66,22.24 L20.92,20.54 L21.34,18.90 L21.91,17.32 L22.64,15.82 L23.49,14.41 L24.48,13.09 L25.59,11.87 L26.80,10.77 L28.12,9.78 L29.54,8.92 L31.03,8.20 L32.61,7.63 L34.25,7.20 L35.95,6.94 L37.71,6.86 L89.12,6.86 Z" fill="#0078d4" stroke="#0078d4" stroke-width="1" stroke-linejoin="round"/><path d="M54.85,82.27 L54.85,92.55 L54.91,93.99 L55.09,95.39 L55.39,96.75 L55.79,98.07 L56.29,99.34 L56.90,100.56 L57.59,101.73 L58.36,102.84 L56.75,102.84 L35.46,102.85 L38.05,102.86 L20.91,102.84 L20.57,102.84 L19.16,102.76 L17.80,102.56 L16.49,102.22 L15.23,101.76 L14.03,101.18 L12.90,100.49 L11.84,99.71 L10.87,98.82 L9.99,97.85 L9.20,96.79 L8.51,95.66 L7.93,94.46 L7.47,93.20 L7.13,91.89 L6.93,90.53 L6.86,89.12 L6.86,85.70 L6.93,85.01 L7.13,84.36 L7.44,83.78 L7.86,83.27 L8.37,82.85 L8.95,82.54 L9.59,82.34 L10.28,82.27 L54.85,82.27 Z" fill="#0078d4" stroke="#0078d4" stroke-width="1" stroke-linejoin="round"/><path d="M95.98,13.71 L95.07,13.77 L94.19,13.96 L93.35,14.26 L92.55,14.67 L91.81,15.16 L91.15,15.73 L90.56,16.38 L90.07,17.10 L89.67,17.89 L89.37,18.74 L89.19,19.63 L89.12,20.57 L89.12,34.28 L95.98,34.28 L96.68,34.24 L97.36,34.14 L98.64,33.74 L99.81,33.10 L100.82,32.26 L101.66,31.25 L102.29,30.08 L102.70,28.80 L102.80,28.12 L102.84,27.42 L102.84,20.57 L102.80,19.87 L102.70,19.19 L102.29,17.91 L101.66,16.74 L100.82,15.73 L99.81,14.89 L98.64,14.25 L97.36,13.85 L96.68,13.75 L95.98,13.71 Z" fill="#0078d4" stroke="#0078d4" stroke-width="1" stroke-linejoin="round"/></svg>