<svg xmlns="http://www.w3.org/2000/svg" viewBox="14.00 14.00 228.00 228.05"><path d="M207.98,16.00 L211.98,16.32 L214.04,16.66 L215.98,17.12 L213.62,17.84 L211.34,18.72 L209.16,19.77 L207.06,20.97 L205.08,22.32 L203.20,23.81 L201.45,25.43 L199.82,27.18 L198.33,29.05 L196.98,31.02 L195.79,33.10 L194.74,35.28 L193.87,37.54 L193.16,39.89 L192.64,42.31 L192.30,44.80 L192.03,47.11 L192.00,47.38 L192.00,216.00 L191.88,218.45 L191.51,220.83 L190.92,223.13 L190.11,225.34 L189.10,227.44 L187.90,229.42 L186.51,231.26 L184.96,232.97 L183.26,234.52 L181.41,235.90 L179.43,237.10 L177.33,238.11 L175.13,238.92 L172.83,239.51 L170.45,239.88 L168.00,240.00 L165.55,239.88 L163.17,239.51 L160.87,238.92 L158.67,238.11 L156.57,237.10 L154.59,235.90 L152.74,234.51 L151.04,232.96 L149.49,231.26 L148.10,229.41 L146.90,227.43 L145.89,225.33 L145.08,223.13 L144.49,220.83 L144.12,218.45 L144.00,216.00 L144.00,192.00 L143.92,190.36 L143.67,188.78 L142.74,185.77 L141.27,183.06 L139.31,180.69 L136.94,178.73 L134.23,177.26 L131.22,176.33 L129.64,176.08 L128.00,176.00 L48.00,176.00 L48.00,56.00 L48.21,51.91 L48.81,47.94 L49.80,44.10 L51.14,40.43 L52.83,36.93 L54.83,33.63 L57.13,30.55 L59.71,27.71 L62.55,25.13 L65.63,22.83 L68.93,20.83 L72.43,19.14 L76.10,17.80 L79.94,16.81 L83.91,16.21 L88.00,16.00 L207.98,16.00 Z" fill="#0078d4" stroke="#1e1e1e" stroke-width="1" stroke-linejoin="round"/><path d="M128.00,192.00 L128.00,216.00 L128.14,219.35 L128.57,222.62 L129.26,225.80 L130.20,228.88 L131.38,231.84 L132.79,234.69 L134.40,237.41 L136.21,240.00 L132.45,240.00 L82.75,240.04 L88.80,240.05 L48.80,240.00 L48.00,240.00 L44.73,239.83 L41.55,239.35 L38.48,238.56 L35.54,237.49 L32.74,236.14 L30.11,234.54 L27.64,232.69 L25.37,230.63 L23.31,228.36 L21.46,225.89 L19.86,223.26 L18.51,220.46 L17.44,217.52 L16.65,214.45 L16.17,211.27 L16.00,208.00 L16.00,200.00 L16.16,198.39 L16.63,196.89 L17.37,195.53 L18.34,194.34 L19.53,193.37 L20.89,192.63 L22.39,192.16 L24.00,192.00 L128.00,192.00 Z" fill="#0078d4" stroke="#1e1e1e" stroke-width="1" stroke-linejoin="round"/><path d="M224.00,32.00 L221.87,32.15 L219.82,32.58 L217.86,33.28 L216.00,34.24 L214.28,35.37 L212.72,36.70 L211.36,38.23 L210.20,39.92 L209.27,41.76 L208.57,43.73 L208.15,45.82 L208.00,48.00 L208.00,80.00 L224.00,80.00 L225.63,79.92 L227.21,79.67 L230.21,78.74 L232.93,77.26 L235.30,75.30 L237.26,72.93 L238.74,70.21 L239.67,67.21 L239.92,65.63 L240.00,64.00 L240.00,48.00 L239.92,46.37 L239.67,44.79 L238.74,41.79 L237.26,39.07 L235.30,36.70 L232.93,34.74 L230.21,33.26 L227.21,32.33 L225.63,32.08 L224.00,32.00 Z" fill="#0078d4" stroke="#1e1e1e" stroke-width="1" stroke-linejoin="round"/></svg>