<svg xmlns="http://www.w3.org/2000/svg" viewBox="19.33 19.33 217.33 217.33"><path d="M218.63,60.02 L222.00,61.50 L225.07,63.47 L227.81,65.87 L230.15,68.65 L232.05,71.77 L233.47,75.17 L234.36,78.82 L234.67,82.67 L234.67,189.33 L234.43,193.97 L233.75,198.47 L232.63,202.81 L231.10,206.98 L229.20,210.94 L226.92,214.68 L224.31,218.17 L221.39,221.39 L218.17,224.31 L214.68,226.92 L210.94,229.20 L206.98,231.10 L202.81,232.63 L198.47,233.75 L193.97,234.43 L189.33,234.67 L82.67,234.67 L78.82,234.36 L75.17,233.47 L71.77,232.05 L68.65,230.15 L65.87,227.81 L63.47,225.07 L61.50,222.00 L60.02,218.63 L82.39,218.66 L189.33,218.67 L192.33,218.52 L195.25,218.07 L198.06,217.35 L200.75,216.36 L203.32,215.13 L205.73,213.66 L207.99,211.97 L210.08,210.08 L211.97,207.99 L213.66,205.73 L215.13,203.32 L216.36,200.75 L217.35,198.06 L218.07,195.25 L218.52,192.33 L218.67,189.33 L218.67,82.67 L218.62,82.12 L218.63,60.02 Z" fill="#8dc8e8" stroke="#1e1e1e" stroke-width="1" stroke-linejoin="round"/><path d="M183.97,21.33 L186.42,21.46 L188.80,21.82 L191.10,22.41 L193.31,23.22 L195.41,24.23 L197.38,25.43 L199.23,26.81 L200.94,28.36 L202.49,30.07 L203.87,31.91 L205.07,33.89 L206.08,35.99 L206.89,38.20 L207.48,40.50 L207.84,42.88 L207.97,45.33 L207.97,183.97 L207.84,186.42 L207.48,188.80 L206.89,191.10 L206.08,193.31 L205.07,195.41 L203.87,197.38 L202.49,199.23 L200.94,200.94 L199.23,202.49 L197.38,203.87 L195.41,205.07 L193.31,206.08 L191.10,206.89 L188.80,207.48 L186.42,207.84 L183.97,207.97 L45.33,207.97 L42.88,207.84 L40.50,207.48 L38.20,206.89 L35.99,206.08 L33.89,205.07 L31.91,203.87 L30.07,202.49 L28.36,200.94 L26.81,199.23 L25.43,197.38 L24.23,195.41 L23.22,193.31 L22.41,191.10 L21.82,188.80 L21.46,186.42 L21.33,183.97 L21.33,45.33 L21.46,42.88 L21.82,40.50 L22.41,38.20 L23.22,35.99 L24.23,33.89 L25.43,31.91 L26.81,30.07 L28.36,28.36 L30.07,26.81 L31.91,25.43 L33.89,24.23 L35.99,23.22 L38.20,22.41 L40.50,21.82 L42.88,21.46 L45.33,21.33 L183.97,21.33 Z" fill="#0078d4" stroke="#1e1e1e" stroke-width="1" stroke-linejoin="round"/><path d="M102.20,121.15 L143.68,79.68 L144.93,78.65 L146.32,77.92 L147.81,77.48 L149.33,77.33 L150.86,77.48 L152.34,77.92 L153.74,78.65 L154.99,79.68 L156.02,80.93 L156.75,82.32 L157.19,83.81 L157.33,85.33 L157.19,86.86 L156.75,88.34 L156.02,89.74 L154.99,90.99 L106.99,138.99 L105.60,140.10 L104.06,140.86 L102.43,141.26 L100.77,141.31 L99.12,141.02 L97.57,140.39 L96.15,139.43 L94.93,138.13 L78.93,116.80 L78.10,115.41 L77.57,113.93 L77.34,112.40 L77.41,110.87 L77.77,109.38 L78.42,107.97 L79.34,106.70 L80.53,105.60 L81.92,104.76 L83.40,104.23 L84.93,104.01 L86.46,104.08 L87.96,104.44 L89.36,105.09 L90.64,106.01 L91.73,107.20 L102.20,121.15 Z" fill="#ffffff" stroke="#1e1e1e" stroke-width="1" stroke-linejoin="round"/></svg>