<svg xmlns="http://www.w3.org/2000/svg" viewBox="7.60 7.60 100.00 100.00"><path d="M98.38,27.01 L99.90,27.68 L101.28,28.56 L102.51,29.64 L103.57,30.89 L104.42,32.30 L105.06,33.83 L105.46,35.47 L105.60,37.20 L105.60,85.20 L105.49,87.29 L105.19,89.31 L104.68,91.27 L104.00,93.14 L103.14,94.92 L102.12,96.61 L100.94,98.18 L99.62,99.62 L98.18,100.94 L96.61,102.12 L94.92,103.14 L93.14,104.00 L91.27,104.68 L89.31,105.19 L87.29,105.49 L85.20,105.60 L37.20,105.60 L35.47,105.46 L33.83,105.06 L32.30,104.42 L30.89,103.57 L29.64,102.51 L28.56,101.28 L27.68,99.90 L27.01,98.38 L37.07,98.40 L85.20,98.40 L86.55,98.33 L87.86,98.13 L89.13,97.81 L90.34,97.36 L91.49,96.81 L92.58,96.15 L93.60,95.39 L94.53,94.53 L95.39,93.60 L96.15,92.58 L96.81,91.49 L97.36,90.34 L97.81,89.13 L98.13,87.86 L98.33,86.55 L98.40,85.20 L98.40,37.20 L98.38,36.96 L98.38,27.01 Z" fill="#8dc8e8" stroke="#1e1e1e" stroke-width="1" stroke-linejoin="round"/><path d="M82.78,9.60 L83.89,9.66 L84.96,9.82 L86.00,10.09 L86.99,10.45 L87.93,10.90 L88.82,11.44 L89.65,12.07 L90.42,12.76 L91.12,13.53 L91.74,14.36 L92.28,15.25 L92.74,16.20 L93.10,17.19 L93.37,18.22 L93.53,19.30 L93.58,20.40 L93.58,82.78 L93.53,83.89 L93.37,84.96 L93.10,86.00 L92.74,86.99 L92.28,87.93 L91.74,88.82 L91.12,89.65 L90.42,90.42 L89.65,91.12 L88.82,91.74 L87.93,92.28 L86.99,92.74 L86.00,93.10 L84.96,93.37 L83.89,93.53 L82.78,93.58 L20.40,93.58 L19.30,93.53 L18.22,93.37 L17.19,93.10 L16.20,92.74 L15.25,92.28 L14.36,91.74 L13.53,91.12 L12.76,90.42 L12.07,89.65 L11.44,88.82 L10.90,87.93 L10.45,86.99 L10.09,86.00 L9.82,84.96 L9.66,83.89 L9.60,82.78 L9.60,20.40 L9.66,19.30 L9.82,18.22 L10.09,17.19 L10.45,16.20 L10.90,15.25 L11.44,14.36 L12.07,13.53 L12.76,12.76 L13.53,12.07 L14.36,11.44 L15.25,10.90 L16.20,10.45 L17.19,10.09 L18.22,9.82 L19.30,9.66 L20.40,9.60 L82.78,9.60 Z" fill="#0078d4" stroke="#1e1e1e" stroke-width="1" stroke-linejoin="round"/><path d="M45.99,54.52 L64.65,35.85 L65.22,35.39 L65.85,35.06 L66.51,34.87 L67.20,34.80 L67.89,34.87 L68.55,35.06 L69.18,35.39 L69.75,35.85 L70.21,36.42 L70.54,37.05 L70.73,37.71 L70.80,38.40 L70.73,39.09 L70.54,39.75 L70.21,40.38 L69.75,40.95 L48.15,62.55 L47.52,63.05 L46.83,63.39 L46.09,63.57 L45.34,63.59 L44.61,63.46 L43.90,63.18 L43.27,62.74 L42.72,62.16 L35.52,52.56 L35.14,51.94 L34.91,51.27 L34.80,50.58 L34.84,49.89 L35.00,49.22 L35.29,48.59 L35.70,48.01 L36.24,47.52 L36.86,47.14 L37.53,46.91 L38.22,46.80 L38.91,46.84 L39.58,47.00 L40.21,47.29 L40.79,47.70 L41.28,48.24 L45.99,54.52 Z" fill="#ffffff" stroke="#1e1e1e" stroke-width="1" stroke-linejoin="round"/></svg>