<svg xmlns="http://www.w3.org/2000/svg" viewBox="10.80 17.19 100.00 93.58"><path d="M73.61,19.19 L72.16,19.26 L70.74,19.45 L69.37,19.76 L68.05,20.19 L66.78,20.72 L65.57,21.36 L64.42,22.10 L63.34,22.92 L62.34,23.84 L61.41,24.84 L60.58,25.91 L59.83,27.05 L59.19,28.26 L58.64,29.52 L58.21,30.84 L57.89,32.21 L59.18,33.26 L60.41,34.36 L61.58,35.54 L62.69,36.76 L63.74,38.05 L64.72,39.39 L65.63,40.78 L66.47,42.22 L67.23,43.71 L67.92,45.24 L68.53,46.81 L69.06,48.42 L69.50,50.07 L69.86,51.75 L70.13,53.46 L70.30,55.21 L71.40,54.07 L72.61,53.11 L73.90,52.32 L75.26,51.69 L76.67,51.23 L78.13,50.93 L79.60,50.81 L81.08,50.85 L82.54,51.06 L83.98,51.43 L85.37,51.97 L86.70,52.68 L87.95,53.56 L89.10,54.61 L90.14,55.82 L91.06,57.20 L98.14,69.47 L99.28,69.01 L100.38,68.47 L101.43,67.86 L102.42,67.16 L103.36,66.40 L104.24,65.56 L105.05,64.67 L105.80,63.71 L106.47,62.70 L107.06,61.64 L107.58,60.52 L108.00,59.37 L108.34,58.17 L108.59,56.94 L108.74,55.68 L108.80,54.38 L108.80,35.19 L108.71,33.55 L108.47,31.97 L108.08,30.43 L107.54,28.96 L106.87,27.57 L106.06,26.25 L105.14,25.02 L104.11,23.88 L102.98,22.85 L101.74,21.93 L100.43,21.12 L99.03,20.45 L97.56,19.91 L96.02,19.52 L94.44,19.28 L92.80,19.19 L73.61,19.19 Z" fill="#2a446f" stroke="#1e1e1e" stroke-width="1" stroke-linejoin="round"/><path d="M85.52,60.40 L85.01,59.65 L84.43,59.00 L83.79,58.45 L83.09,58.00 L82.35,57.65 L81.58,57.40 L80.78,57.25 L79.98,57.20 L79.17,57.25 L78.37,57.40 L77.60,57.65 L76.86,58.00 L76.16,58.45 L75.52,59.00 L74.94,59.65 L74.43,60.40 L52.05,99.17 L51.65,99.98 L51.38,100.81 L51.22,101.64 L51.18,102.47 L51.25,103.29 L51.42,104.08 L51.69,104.85 L52.05,105.57 L52.49,106.24 L53.02,106.86 L53.62,107.40 L54.30,107.87 L55.04,108.25 L55.84,108.53 L56.69,108.71 L57.59,108.77 L102.36,108.77 L103.26,108.71 L104.12,108.53 L104.91,108.25 L105.65,107.87 L106.33,107.40 L106.93,106.86 L107.46,106.24 L107.90,105.57 L108.26,104.85 L108.53,104.08 L108.70,103.29 L108.77,102.47 L108.73,101.64 L108.57,100.81 L108.30,99.98 L107.90,99.17 L85.52,60.40 Z" fill="#8dc8e8" stroke="#1e1e1e" stroke-width="1" stroke-linejoin="round"/><path d="M38.39,83.18 L41.01,83.04 L43.55,82.66 L46.00,82.03 L48.35,81.16 L50.59,80.09 L52.70,78.81 L54.67,77.33 L56.49,75.68 L58.14,73.86 L59.61,71.89 L60.89,69.78 L61.97,67.55 L62.83,65.19 L63.46,62.74 L63.85,60.20 L63.98,57.58 L63.85,54.97 L63.46,52.43 L62.83,49.97 L61.97,47.62 L60.89,45.38 L59.61,43.27 L58.14,41.30 L56.49,39.49 L54.67,37.83 L52.70,36.36 L50.59,35.08 L48.35,34.00 L46.00,33.14 L43.55,32.51 L41.01,32.12 L38.39,31.99 L35.77,32.12 L33.23,32.51 L30.78,33.14 L28.43,34.00 L26.19,35.08 L24.08,36.36 L22.11,37.83 L20.29,39.49 L18.64,41.30 L17.17,43.27 L15.89,45.38 L14.81,47.62 L13.95,49.97 L13.32,52.43 L12.93,54.97 L12.80,57.58 L12.93,60.20 L13.32,62.74 L13.95,65.19 L14.81,67.55 L15.89,69.78 L17.17,71.89 L18.64,73.86 L20.29,75.68 L22.11,77.33 L24.08,78.81 L26.19,80.09 L28.43,81.16 L30.78,82.03 L33.23,82.66 L35.77,83.04 L38.39,83.18 Z" fill="#0078d4" stroke="#1e1e1e" stroke-width="1" stroke-linejoin="round"/></svg>