<svg xmlns="http://www.w3.org/2000/svg" viewBox="30.00 32.71 206.67 193.29"><path d="M168.56,36.47 L166.96,35.36 L165.14,34.77 L163.23,34.71 L161.35,35.22 L159.69,36.24 L158.43,37.67 L157.62,39.40 L157.33,41.33 L157.33,70.52 L150.72,70.90 L144.07,71.74 L136.57,73.24 L132.56,74.29 L128.44,75.58 L124.21,77.12 L119.92,78.93 L115.51,81.07 L111.12,83.54 L106.77,86.34 L102.49,89.49 L98.30,93.02 L94.24,96.94 L90.33,101.27 L86.61,106.04 L83.09,111.25 L79.81,116.93 L76.80,123.10 L74.08,129.77 L71.69,136.97 L69.64,144.72 L67.97,153.02 L66.71,161.91 L66.79,163.93 L67.45,165.80 L68.63,167.39 L70.26,168.58 L72.18,169.23 L74.16,169.28 L76.06,168.75 L77.76,167.65 L82.08,163.93 L86.36,160.48 L90.59,157.28 L94.76,154.32 L102.92,149.11 L110.79,144.77 L118.30,141.21 L125.42,138.36 L132.07,136.14 L138.22,134.48 L143.83,133.29 L148.83,132.51 L153.18,132.04 L156.82,131.83 L157.33,131.81 L157.33,161.33 L157.62,163.26 L158.43,164.99 L159.69,166.42 L161.35,167.45 L163.23,167.96 L165.14,167.90 L166.96,167.31 L168.56,166.20 L232.56,106.20 L233.46,105.16 L234.12,103.98 L234.53,102.69 L234.67,101.33 L234.53,99.97 L234.12,98.68 L233.46,97.50 L232.56,96.47 L168.56,36.47 Z" fill="#0078d4" stroke="#1e1e1e" stroke-width="1" stroke-linejoin="round"/><path d="M32.00,76.00 L32.17,72.59 L32.68,69.28 L33.50,66.09 L34.62,63.03 L36.02,60.11 L37.69,57.36 L39.61,54.80 L41.76,52.43 L44.13,50.28 L46.70,48.36 L49.44,46.69 L52.36,45.29 L55.42,44.17 L58.62,43.34 L61.93,42.84 L65.33,42.67 L109.33,42.67 L110.68,42.80 L111.93,43.19 L113.06,43.81 L114.05,44.62 L114.86,45.61 L115.48,46.74 L115.86,47.99 L116.00,49.33 L115.86,50.68 L115.48,51.93 L114.86,53.06 L114.05,54.05 L113.06,54.86 L111.93,55.48 L110.68,55.86 L109.33,56.00 L65.33,56.00 L63.29,56.10 L61.30,56.41 L59.39,56.90 L57.55,57.57 L55.80,58.41 L54.15,59.42 L52.61,60.57 L51.19,61.86 L49.90,63.28 L48.75,64.82 L47.75,66.47 L46.91,68.22 L46.23,70.05 L45.74,71.97 L45.44,73.96 L45.33,76.00 L45.33,190.67 L45.44,192.71 L45.74,194.70 L46.23,196.61 L46.91,198.45 L47.75,200.20 L48.75,201.85 L49.90,203.39 L51.19,204.81 L52.61,206.10 L54.15,207.25 L55.80,208.25 L57.55,209.09 L59.39,209.77 L61.30,210.26 L63.29,210.56 L65.33,210.67 L180.00,210.67 L182.04,210.56 L184.03,210.26 L185.95,209.77 L187.78,209.09 L189.53,208.25 L191.18,207.25 L192.72,206.10 L194.14,204.81 L195.43,203.39 L196.58,201.85 L197.59,200.20 L198.43,198.45 L199.10,196.61 L199.59,194.70 L199.90,192.71 L200.00,190.67 L200.00,178.67 L200.14,177.32 L200.52,176.07 L201.14,174.94 L201.95,173.95 L202.94,173.14 L204.07,172.52 L205.32,172.14 L206.67,172.00 L208.01,172.14 L209.26,172.52 L210.39,173.14 L211.38,173.95 L212.19,174.94 L212.81,176.07 L213.20,177.32 L213.33,178.67 L213.33,190.67 L213.16,194.07 L212.66,197.38 L211.83,200.58 L210.71,203.64 L209.31,206.56 L207.64,209.30 L205.72,211.87 L203.57,214.24 L201.20,216.39 L198.64,218.31 L195.89,219.98 L192.97,221.38 L189.91,222.50 L186.72,223.32 L183.41,223.83 L180.00,224.00 L65.33,224.00 L61.93,223.83 L58.62,223.32 L55.42,222.50 L52.36,221.38 L49.44,219.98 L46.70,218.31 L44.13,216.39 L41.76,214.24 L39.61,211.87 L37.69,209.30 L36.02,206.56 L34.62,203.64 L33.50,200.58 L32.68,197.38 L32.17,194.07 L32.00,190.67 L32.00,76.00 Z" fill="#0078d4" stroke="#1e1e1e" stroke-width="1" stroke-linejoin="round"/></svg>