<svg xmlns="http://www.w3.org/2000/svg" viewBox="13.16 14.44 100.00 93.66"><path d="M79.84,17.28 L79.09,16.75 L78.23,16.47 L77.32,16.44 L76.43,16.68 L75.64,17.17 L75.04,17.85 L74.66,18.67 L74.53,19.58 L74.53,33.40 L71.39,33.59 L68.24,33.98 L64.69,34.69 L62.79,35.19 L60.84,35.80 L58.84,36.53 L56.80,37.39 L54.72,38.40 L52.64,39.57 L50.57,40.90 L48.55,42.39 L46.56,44.06 L44.64,45.92 L42.79,47.97 L41.03,50.23 L39.36,52.70 L37.81,55.39 L36.38,58.31 L35.09,61.47 L33.96,64.88 L32.99,68.55 L32.20,72.48 L31.60,76.69 L31.64,77.65 L31.95,78.54 L32.51,79.29 L33.28,79.86 L34.19,80.16 L35.13,80.19 L36.03,79.93 L36.83,79.41 L38.88,77.65 L40.91,76.02 L42.91,74.50 L44.89,73.10 L48.75,70.63 L52.48,68.57 L56.04,66.89 L59.41,65.54 L62.56,64.49 L65.47,63.70 L68.13,63.14 L70.50,62.77 L72.56,62.55 L74.28,62.45 L74.53,62.44 L74.53,76.42 L74.66,77.33 L75.04,78.15 L75.64,78.83 L76.43,79.32 L77.32,79.56 L78.23,79.53 L79.09,79.25 L79.84,78.72 L110.16,50.30 L110.58,49.81 L110.90,49.26 L111.09,48.64 L111.16,48.00 L111.09,47.36 L110.90,46.74 L110.58,46.19 L110.16,45.70 L79.84,17.28 Z" fill="#0078d4" stroke="#1e1e1e" stroke-width="1" stroke-linejoin="round"/><path d="M15.16,36.00 L15.24,34.39 L15.48,32.82 L15.87,31.30 L16.40,29.85 L17.06,28.47 L17.85,27.17 L18.76,25.96 L19.78,24.84 L20.90,23.82 L22.12,22.91 L23.42,22.12 L24.80,21.45 L26.25,20.92 L27.77,20.53 L29.33,20.29 L30.95,20.21 L51.79,20.21 L52.43,20.27 L53.02,20.46 L53.56,20.75 L54.02,21.14 L54.41,21.60 L54.70,22.14 L54.88,22.73 L54.95,23.37 L54.88,24.00 L54.70,24.60 L54.41,25.13 L54.02,25.60 L53.56,25.99 L53.02,26.28 L52.43,26.46 L51.79,26.53 L30.95,26.53 L29.98,26.58 L29.04,26.72 L28.13,26.95 L27.26,27.27 L26.43,27.67 L25.65,28.14 L24.92,28.69 L24.25,29.30 L23.64,29.97 L23.09,30.70 L22.62,31.48 L22.22,32.31 L21.90,33.18 L21.67,34.09 L21.52,35.03 L21.47,36.00 L21.47,90.32 L21.52,91.28 L21.67,92.23 L21.90,93.13 L22.22,94.00 L22.62,94.83 L23.09,95.61 L23.64,96.34 L24.25,97.01 L24.92,97.63 L25.65,98.17 L26.43,98.65 L27.26,99.04 L28.13,99.36 L29.04,99.60 L29.98,99.74 L30.95,99.79 L85.26,99.79 L86.23,99.74 L87.17,99.60 L88.08,99.36 L88.95,99.04 L89.78,98.65 L90.56,98.17 L91.29,97.63 L91.96,97.01 L92.57,96.34 L93.12,95.61 L93.59,94.83 L93.99,94.00 L94.31,93.13 L94.54,92.23 L94.69,91.28 L94.74,90.32 L94.74,84.63 L94.80,84.00 L94.98,83.40 L95.28,82.87 L95.66,82.40 L96.13,82.01 L96.67,81.72 L97.26,81.54 L97.89,81.47 L98.53,81.54 L99.12,81.72 L99.66,82.01 L100.13,82.40 L100.51,82.87 L100.80,83.40 L100.99,84.00 L101.05,84.63 L101.05,90.32 L100.97,91.93 L100.73,93.50 L100.34,95.01 L99.81,96.46 L99.15,97.84 L98.36,99.14 L97.45,100.36 L96.43,101.48 L95.31,102.50 L94.09,103.41 L92.79,104.20 L91.41,104.86 L89.96,105.40 L88.45,105.78 L86.88,106.02 L85.26,106.11 L30.95,106.11 L29.33,106.02 L27.77,105.78 L26.25,105.40 L24.80,104.86 L23.42,104.20 L22.12,103.41 L20.90,102.50 L19.78,101.48 L18.76,100.36 L17.85,99.14 L17.06,97.84 L16.40,96.46 L15.87,95.01 L15.48,93.50 L15.24,91.93 L15.16,90.32 L15.16,36.00 Z" fill="#0078d4" stroke="#1e1e1e" stroke-width="1" stroke-linejoin="round"/></svg>