<svg xmlns="http://www.w3.org/2000/svg" viewBox="12.40 7.60 90.40 100.00"><path d="M97.20,24.00 L94.81,23.95 L92.42,23.79 L90.04,23.52 L87.67,23.15 L85.31,22.67 L82.95,22.08 L80.60,21.39 L78.26,20.59 L75.93,19.68 L73.60,18.67 L71.28,17.55 L68.96,16.32 L66.65,14.98 L64.35,13.54 L62.05,11.98 L59.76,10.32 L59.26,10.00 L58.73,9.78 L58.17,9.64 L57.60,9.60 L57.03,9.64 L56.47,9.78 L55.94,10.00 L55.44,10.32 L53.15,11.98 L50.85,13.54 L48.55,14.98 L46.24,16.32 L43.92,17.55 L41.60,18.67 L39.27,19.68 L36.94,20.59 L34.60,21.39 L32.25,22.08 L29.89,22.67 L27.53,23.15 L25.16,23.52 L22.78,23.79 L20.39,23.95 L18.00,24.00 L17.27,24.07 L16.60,24.28 L15.99,24.61 L15.45,25.05 L15.01,25.59 L14.68,26.20 L14.47,26.87 L14.40,27.60 L14.40,52.80 L14.44,55.03 L14.57,57.23 L14.77,59.38 L15.06,61.50 L15.44,63.58 L15.89,65.63 L16.43,67.64 L17.05,69.60 L17.75,71.54 L18.54,73.43 L19.40,75.28 L20.35,77.10 L21.38,78.88 L22.49,80.62 L23.68,82.32 L24.96,83.99 L26.31,85.61 L27.75,87.20 L29.27,88.75 L30.86,90.26 L32.54,91.73 L34.30,93.16 L36.14,94.56 L38.06,95.91 L40.06,97.23 L42.14,98.51 L44.29,99.75 L46.53,100.94 L51.25,103.23 L56.28,105.35 L56.93,105.54 L57.60,105.60 L58.27,105.54 L58.92,105.35 L63.95,103.23 L68.67,100.94 L70.91,99.75 L73.06,98.51 L75.14,97.23 L77.14,95.91 L79.06,94.56 L80.90,93.16 L82.66,91.73 L84.34,90.26 L85.93,88.75 L87.45,87.20 L88.89,85.61 L90.24,83.99 L91.52,82.32 L92.71,80.62 L93.82,78.88 L94.85,77.10 L95.80,75.28 L96.66,73.43 L97.45,71.54 L98.15,69.60 L98.77,67.64 L99.31,65.63 L99.76,63.58 L100.14,61.50 L100.43,59.38 L100.63,57.23 L100.76,55.03 L100.80,52.80 L100.80,27.60 L100.73,26.87 L100.52,26.20 L100.19,25.59 L99.75,25.05 L99.21,24.61 L98.60,24.28 L97.93,24.07 L97.20,24.00 Z" fill="#0078d4" stroke="#0078d4" stroke-width="1" stroke-linejoin="round"/><path d="M54.03,36.63 L54.18,35.99 L54.43,35.40 L54.79,34.87 L55.22,34.41 L55.73,34.04 L56.31,33.75 L56.93,33.58 L57.60,33.51 L58.27,33.58 L58.89,33.75 L59.47,34.04 L59.98,34.41 L60.41,34.87 L60.77,35.40 L61.02,35.99 L61.17,36.63 L61.20,37.11 L61.20,68.31 L61.17,68.80 L61.02,69.44 L60.77,70.03 L60.41,70.56 L59.98,71.02 L59.47,71.39 L58.89,71.68 L58.27,71.85 L57.60,71.91 L56.93,71.85 L56.31,71.68 L55.73,71.39 L55.22,71.02 L54.79,70.56 L54.43,70.03 L54.18,69.44 L54.03,68.80 L54.00,68.31 L54.00,37.11 L54.03,36.63 Z" fill="#ffffff" stroke="#ffffff" stroke-width="1" stroke-linejoin="round"/><path d="M57.60,86.40 L56.63,86.30 L55.73,86.02 L54.92,85.58 L54.21,84.99 L53.62,84.28 L53.18,83.47 L52.90,82.57 L52.80,81.60 L52.90,80.63 L53.18,79.73 L53.62,78.92 L54.21,78.21 L54.92,77.62 L55.73,77.18 L56.63,76.90 L57.60,76.80 L58.57,76.90 L59.47,77.18 L60.28,77.62 L60.99,78.21 L61.58,78.92 L62.02,79.73 L62.30,80.63 L62.40,81.60 L62.30,82.57 L62.02,83.47 L61.58,84.28 L60.99,84.99 L60.28,85.58 L59.47,86.02 L58.57,86.30 L57.60,86.40 Z" fill="#ffffff" stroke="#ffffff" stroke-width="1" stroke-linejoin="round"/></svg>