<svg xmlns="http://www.w3.org/2000/svg" viewBox="30.00 19.33 196.00 217.33"><path d="M216.00,53.33 L210.68,53.22 L205.38,52.86 L200.10,52.27 L194.83,51.44 L189.58,50.38 L184.34,49.08 L179.12,47.54 L173.91,45.76 L168.72,43.74 L163.55,41.49 L158.39,39.00 L153.24,36.26 L148.11,33.29 L142.99,30.08 L137.89,26.63 L132.80,22.93 L131.69,22.23 L130.50,21.73 L129.26,21.43 L128.00,21.33 L126.74,21.43 L125.50,21.73 L124.31,22.23 L123.20,22.93 L118.11,26.63 L113.01,30.08 L107.89,33.29 L102.76,36.26 L97.61,39.00 L92.45,41.49 L87.28,43.74 L82.09,45.76 L76.88,47.54 L71.66,49.08 L66.42,50.38 L61.17,51.44 L55.90,52.27 L50.62,52.86 L45.32,53.22 L40.00,53.33 L38.39,53.50 L36.89,53.96 L35.53,54.70 L34.34,55.68 L33.37,56.86 L32.63,58.22 L32.16,59.72 L32.00,61.33 L32.00,117.33 L32.09,122.29 L32.37,127.17 L32.83,131.96 L33.48,136.67 L34.30,141.30 L35.32,145.84 L36.51,150.30 L37.89,154.68 L39.45,158.97 L41.19,163.17 L43.12,167.30 L45.23,171.34 L47.51,175.29 L49.98,179.16 L52.63,182.94 L55.46,186.64 L58.47,190.25 L61.67,193.78 L65.04,197.22 L68.59,200.58 L72.31,203.85 L76.22,207.03 L80.31,210.13 L84.57,213.14 L89.01,216.07 L93.63,218.91 L98.43,221.66 L103.41,224.32 L113.88,229.39 L125.07,234.11 L126.51,234.53 L128.00,234.67 L129.49,234.53 L130.93,234.11 L142.12,229.39 L152.59,224.32 L157.57,221.66 L162.37,218.91 L166.99,216.07 L171.43,213.14 L175.69,210.13 L179.78,207.03 L183.69,203.85 L187.41,200.58 L190.96,197.22 L194.33,193.78 L197.53,190.25 L200.54,186.64 L203.37,182.94 L206.02,179.16 L208.49,175.29 L210.77,171.34 L212.88,167.30 L214.81,163.17 L216.55,158.97 L218.11,154.68 L219.49,150.30 L220.68,145.84 L221.70,141.30 L222.52,136.67 L223.17,131.96 L223.63,127.17 L223.91,122.29 L224.00,117.33 L224.00,61.33 L223.84,59.72 L223.37,58.22 L222.63,56.86 L221.66,55.68 L220.47,54.70 L219.11,53.96 L217.61,53.50 L216.00,53.33 Z" fill="#0078d4" stroke="#1e1e1e" stroke-width="1" stroke-linejoin="round"/><path d="M120.07,81.39 L120.40,79.97 L120.97,78.66 L121.75,77.49 L122.72,76.47 L123.85,75.63 L125.13,75.01 L126.52,74.61 L128.00,74.48 L129.48,74.61 L130.87,75.01 L132.15,75.63 L133.28,76.47 L134.25,77.49 L135.03,78.66 L135.60,79.97 L135.93,81.39 L136.00,82.48 L136.00,151.81 L135.93,152.89 L135.60,154.31 L135.03,155.62 L134.25,156.80 L133.28,157.82 L132.15,158.65 L130.87,159.28 L129.48,159.67 L128.00,159.81 L126.52,159.67 L125.13,159.28 L123.85,158.65 L122.72,157.82 L121.75,156.80 L120.97,155.62 L120.40,154.31 L120.07,152.89 L120.00,151.81 L120.00,82.48 L120.07,81.39 Z" fill="#ffffff" stroke="#1e1e1e" stroke-width="1" stroke-linejoin="round"/><path d="M128.00,192.00 L125.85,191.78 L123.85,191.16 L122.04,190.18 L120.46,188.88 L119.15,187.30 L118.17,185.49 L117.55,183.48 L117.33,181.33 L117.55,179.18 L118.17,177.18 L119.15,175.37 L120.46,173.79 L122.04,172.49 L123.85,171.50 L125.85,170.88 L128.00,170.67 L130.15,170.88 L132.15,171.50 L133.96,172.49 L135.54,173.79 L136.85,175.37 L137.83,177.18 L138.45,179.18 L138.67,181.33 L138.45,183.48 L137.83,185.49 L136.85,187.30 L135.54,188.88 L133.96,190.18 L132.15,191.16 L130.15,191.78 L128.00,192.00 Z" fill="#ffffff" stroke="#1e1e1e" stroke-width="1" stroke-linejoin="round"/></svg>