<svg xmlns="http://www.w3.org/2000/svg" viewBox="7.63 7.91 100.00 100.00"><path d="M53.48,19.49 L54.44,19.29 L55.30,18.91 L56.07,18.38 L56.71,17.72 L57.22,16.94 L57.57,16.08 L57.75,15.15 L57.74,14.18 L57.53,13.22 L57.16,12.36 L56.62,11.59 L55.96,10.95 L55.19,10.44 L54.33,10.09 L53.40,9.91 L52.42,9.92 L50.18,10.22 L47.98,10.63 L45.80,11.13 L43.67,11.73 L41.58,12.42 L39.53,13.20 L37.53,14.08 L35.58,15.04 L33.68,16.08 L31.83,17.21 L30.04,18.41 L28.30,19.70 L26.63,21.06 L25.02,22.49 L23.47,23.98 L22.00,25.55 L20.59,27.18 L19.26,28.88 L18.00,30.63 L16.82,32.44 L15.72,34.31 L14.71,36.23 L13.77,38.20 L12.93,40.21 L12.18,42.28 L11.51,44.38 L10.95,46.53 L10.48,48.71 L10.11,50.93 L9.84,53.18 L9.68,55.46 L9.63,57.77 L9.69,60.25 L9.88,62.69 L10.18,65.10 L10.61,67.47 L11.14,69.80 L11.79,72.09 L12.55,74.32 L13.41,76.51 L14.38,78.64 L15.44,80.72 L16.60,82.73 L17.85,84.69 L19.19,86.57 L20.62,88.39 L22.13,90.14 L23.73,91.81 L25.40,93.41 L27.15,94.92 L28.97,96.35 L30.85,97.69 L32.81,98.94 L34.82,100.10 L36.90,101.17 L39.03,102.13 L41.22,102.99 L43.45,103.75 L45.74,104.40 L48.07,104.93 L50.44,105.36 L52.85,105.66 L55.29,105.85 L57.77,105.91 L60.08,105.86 L62.36,105.70 L64.61,105.43 L66.83,105.06 L69.01,104.59 L71.16,104.03 L73.26,103.37 L75.32,102.61 L77.34,101.77 L79.31,100.84 L81.23,99.82 L83.09,98.72 L84.90,97.54 L86.66,96.29 L88.35,94.95 L89.98,93.55 L91.55,92.07 L93.05,90.53 L94.48,88.92 L95.84,87.25 L97.12,85.51 L98.33,83.72 L99.45,81.87 L100.50,79.97 L101.46,78.02 L102.33,76.02 L103.12,73.97 L103.81,71.88 L104.41,69.75 L104.91,67.58 L105.31,65.38 L105.62,63.14 L105.63,62.16 L105.45,61.23 L105.10,60.37 L104.59,59.60 L103.95,58.93 L103.18,58.40 L102.32,58.03 L101.36,57.82 L100.39,57.81 L99.46,57.99 L98.60,58.34 L97.82,58.85 L97.16,59.49 L96.63,60.25 L96.25,61.12 L96.05,62.07 L95.81,63.87 L95.48,65.63 L95.08,67.36 L94.60,69.07 L94.05,70.74 L93.42,72.38 L92.72,73.98 L91.95,75.54 L91.12,77.06 L90.21,78.54 L89.25,79.97 L88.22,81.35 L87.14,82.69 L85.99,83.98 L84.79,85.21 L83.54,86.40 L82.23,87.52 L80.88,88.58 L79.47,89.59 L78.03,90.53 L76.53,91.41 L75.00,92.23 L73.42,92.97 L71.81,93.64 L70.16,94.25 L68.48,94.78 L66.76,95.23 L65.02,95.60 L63.24,95.90 L61.44,96.11 L59.62,96.24 L57.77,96.28 L55.79,96.23 L53.83,96.09 L51.91,95.84 L50.01,95.50 L48.15,95.07 L46.32,94.55 L44.53,93.95 L42.78,93.26 L41.07,92.49 L39.41,91.64 L37.80,90.71 L36.24,89.71 L34.73,88.63 L33.27,87.49 L31.87,86.28 L30.54,85.00 L29.26,83.67 L28.05,82.27 L26.91,80.81 L25.83,79.30 L24.83,77.74 L23.91,76.13 L23.05,74.47 L22.28,72.76 L21.59,71.01 L20.99,69.22 L20.47,67.40 L20.04,65.53 L19.70,63.64 L19.46,61.71 L19.31,59.75 L19.26,57.77 L19.30,55.92 L19.43,54.10 L19.64,52.30 L19.94,50.52 L20.31,48.78 L20.77,47.06 L21.29,45.38 L21.90,43.73 L22.57,42.11 L23.32,40.54 L24.13,39.00 L25.01,37.51 L25.95,36.06 L26.96,34.66 L28.03,33.30 L29.15,32.00 L30.33,30.74 L31.57,29.54 L32.86,28.40 L34.19,27.31 L35.58,26.29 L37.01,25.32 L38.49,24.42 L40.01,23.58 L41.57,22.82 L43.18,22.12 L44.81,21.49 L46.48,20.94 L48.19,20.46 L49.93,20.06 L51.69,19.73 L53.48,19.49 Z" fill="#0078d4" stroke="#0078d4" stroke-width="1" stroke-linejoin="round"/><path d="M71.09,11.51 L70.13,11.34 L69.19,11.37 L68.28,11.57 L67.43,11.95 L66.68,12.47 L66.03,13.14 L65.51,13.94 L65.16,14.84 L64.99,15.80 L65.01,16.75 L65.22,17.66 L65.59,18.50 L66.12,19.26 L66.79,19.91 L67.58,20.42 L68.49,20.78 L70.54,21.42 L72.55,22.17 L73.48,22.45 L74.42,22.53 L75.35,22.43 L76.23,22.16 L77.04,21.72 L77.77,21.13 L78.37,20.40 L78.82,19.54 L79.10,18.60 L79.18,17.66 L79.08,16.74 L78.81,15.85 L78.37,15.04 L77.78,14.32 L77.05,13.72 L76.19,13.26 L73.67,12.32 L71.09,11.51 Z" fill="#0078d4" stroke="#0078d4" stroke-width="1" stroke-linejoin="round"/><path d="M83.52,22.59 L84.25,21.94 L85.07,21.46 L85.95,21.16 L86.86,21.03 L87.79,21.08 L88.69,21.31 L89.54,21.71 L90.33,22.29 L91.82,23.73 L93.26,25.22 L93.84,26.00 L94.24,26.86 L94.47,27.76 L94.52,28.69 L94.39,29.60 L94.09,30.48 L93.61,31.30 L92.96,32.03 L92.18,32.61 L91.32,33.01 L90.42,33.24 L89.50,33.29 L88.58,33.16 L87.70,32.86 L86.89,32.38 L86.16,31.73 L83.82,29.39 L83.17,28.66 L82.69,27.84 L82.39,26.96 L82.26,26.05 L82.31,25.13 L82.54,24.22 L82.94,23.37 L83.52,22.59 Z" fill="#0078d4" stroke="#0078d4" stroke-width="1" stroke-linejoin="round"/><path d="M52.96,28.89 L53.93,28.98 L54.83,29.26 L55.65,29.71 L56.36,30.30 L56.95,31.01 L57.39,31.83 L57.67,32.73 L57.77,33.70 L57.77,57.77 L72.21,57.77 L73.18,57.87 L74.09,58.15 L74.91,58.59 L75.62,59.18 L76.21,59.89 L76.65,60.71 L76.93,61.61 L77.03,62.58 L76.93,63.56 L76.65,64.46 L76.21,65.28 L75.62,65.99 L74.91,66.58 L74.09,67.02 L73.18,67.30 L72.21,67.40 L52.96,67.40 L51.99,67.30 L51.08,67.02 L50.26,66.58 L49.55,65.99 L48.96,65.28 L48.52,64.46 L48.24,63.56 L48.14,62.58 L48.14,33.70 L48.24,32.73 L48.52,31.83 L48.96,31.01 L49.55,30.30 L50.26,29.71 L51.08,29.26 L51.99,28.98 L52.96,28.89 Z" fill="#0078d4" stroke="#0078d4" stroke-width="1" stroke-linejoin="round"/><path d="M95.99,36.70 L96.93,36.42 L97.87,36.34 L98.80,36.44 L99.68,36.71 L100.49,37.15 L101.21,37.74 L101.81,38.47 L102.27,39.33 L103.01,41.25 L103.66,43.20 L104.03,44.45 L104.20,45.41 L104.17,46.36 L103.97,47.26 L103.59,48.11 L103.07,48.87 L102.40,49.52 L101.61,50.03 L100.70,50.39 L99.74,50.55 L98.79,50.53 L97.88,50.32 L97.04,49.95 L96.28,49.42 L95.63,48.75 L95.12,47.96 L94.76,47.05 L94.47,46.06 L93.36,42.98 L93.08,42.04 L93.00,41.10 L93.10,40.17 L93.38,39.29 L93.81,38.48 L94.40,37.76 L95.13,37.16 L95.99,36.70 Z" fill="#0078d4" stroke="#0078d4" stroke-width="1" stroke-linejoin="round"/></svg>