<svg xmlns="http://www.w3.org/2000/svg" viewBox="17.20 7.60 80.80 100.00"><path d="M33.60,33.60 L33.60,24.00 L33.67,22.53 L33.89,21.10 L34.25,19.72 L34.73,18.39 L35.34,17.14 L36.06,15.95 L36.89,14.84 L37.82,13.82 L38.84,12.89 L39.95,12.06 L41.14,11.34 L42.39,10.73 L43.72,10.25 L45.10,9.89 L46.53,9.67 L48.00,9.60 L49.37,9.66 L50.70,9.85 L51.99,10.16 L53.23,10.58 L54.42,11.10 L55.54,11.73 L56.61,12.45 L57.60,13.27 L58.59,12.45 L59.66,11.73 L60.78,11.10 L61.97,10.58 L63.21,10.16 L64.50,9.85 L65.83,9.66 L67.20,9.60 L68.67,9.67 L70.10,9.89 L71.48,10.25 L72.81,10.73 L74.06,11.34 L75.25,12.06 L76.36,12.89 L77.38,13.82 L78.31,14.84 L79.14,15.95 L79.86,17.14 L80.47,18.39 L80.95,19.72 L81.31,21.10 L81.53,22.53 L81.60,24.00 L81.60,33.60 L88.80,33.60 L89.54,33.64 L90.25,33.75 L91.60,34.17 L92.83,34.83 L93.89,35.71 L94.77,36.77 L95.43,38.00 L95.85,39.35 L95.96,40.06 L96.00,40.80 L96.00,86.40 L95.96,87.66 L95.84,88.89 L95.64,90.10 L95.37,91.29 L95.03,92.44 L94.62,93.56 L94.14,94.65 L93.60,95.71 L92.99,96.72 L92.33,97.69 L90.83,99.50 L89.13,101.12 L87.24,102.51 L84.62,102.05 L83.23,101.74 L81.83,101.31 L80.45,100.76 L79.09,100.09 L77.78,99.32 L76.51,98.45 L75.31,97.48 L74.18,96.43 L73.16,95.30 L72.25,94.13 L71.47,92.91 L70.81,91.65 L70.29,90.37 L69.91,89.06 L69.68,87.73 L69.60,86.40 L69.60,33.60 L74.40,33.60 L74.40,24.00 L74.36,23.26 L74.25,22.55 L73.83,21.20 L73.17,19.97 L72.29,18.91 L71.23,18.03 L70.00,17.37 L68.65,16.95 L67.94,16.84 L67.20,16.80 L66.38,16.85 L65.58,16.98 L64.81,17.21 L64.08,17.51 L63.40,17.88 L62.76,18.33 L62.18,18.84 L61.65,19.41 L61.97,20.51 L62.21,21.64 L62.35,22.81 L62.40,24.00 L62.40,86.40 L62.53,88.58 L62.90,90.69 L63.49,92.73 L64.28,94.68 L65.25,96.54 L66.39,98.30 L67.66,99.95 L69.06,101.48 L70.25,102.62 L71.52,103.69 L72.85,104.69 L74.24,105.60 L38.40,105.60 L36.44,105.50 L34.53,105.21 L32.69,104.74 L30.93,104.09 L29.25,103.28 L27.67,102.32 L26.19,101.22 L24.82,99.98 L23.58,98.61 L22.48,97.13 L21.52,95.55 L20.71,93.87 L20.06,92.11 L19.59,90.27 L19.30,88.36 L19.20,86.40 L19.20,40.80 L19.24,40.06 L19.35,39.35 L19.77,38.00 L20.43,36.77 L21.31,35.71 L22.37,34.83 L23.60,34.17 L24.95,33.75 L25.66,33.64 L26.40,33.60 L33.60,33.60 Z" fill="#0078d4" stroke="#0078d4" stroke-width="1" stroke-linejoin="round"/><path d="M40.80,24.00 L40.80,33.60 L55.20,33.60 L55.20,24.00 L55.16,23.26 L55.05,22.55 L54.63,21.20 L53.97,19.97 L53.09,18.91 L52.03,18.03 L50.80,17.37 L49.45,16.95 L48.74,16.84 L48.00,16.80 L47.26,16.84 L46.55,16.95 L45.20,17.37 L43.97,18.03 L42.91,18.91 L42.03,19.97 L41.37,21.20 L40.95,22.55 L40.84,23.26 L40.80,24.00 Z" fill="#ffffff" stroke="#ffffff" stroke-width="1" stroke-linejoin="round"/></svg>