<svg xmlns="http://www.w3.org/2000/svg" viewBox="40.67 19.33 174.67 217.33"><path d="M74.67,74.67 L74.67,53.33 L74.83,50.06 L75.32,46.88 L76.11,43.82 L77.18,40.88 L78.53,38.08 L80.13,35.44 L81.97,32.98 L84.04,30.71 L86.31,28.64 L88.78,26.80 L91.41,25.20 L94.21,23.85 L97.15,22.77 L100.22,21.98 L103.39,21.50 L106.67,21.33 L109.70,21.48 L112.66,21.89 L115.53,22.58 L118.28,23.51 L120.92,24.68 L123.43,26.07 L125.79,27.68 L128.00,29.48 L130.21,27.68 L132.57,26.07 L135.08,24.68 L137.72,23.51 L140.47,22.58 L143.34,21.89 L146.30,21.48 L149.33,21.33 L152.61,21.50 L155.78,21.98 L158.85,22.77 L161.79,23.85 L164.59,25.20 L167.22,26.80 L169.69,28.64 L171.96,30.71 L174.03,32.98 L175.87,35.44 L177.47,38.08 L178.82,40.88 L179.89,43.82 L180.68,46.88 L181.17,50.06 L181.33,53.33 L181.33,74.67 L197.33,74.67 L198.97,74.75 L200.56,74.99 L203.56,75.92 L206.28,77.40 L208.65,79.35 L210.60,81.72 L212.08,84.44 L213.01,87.44 L213.25,89.03 L213.33,90.67 L213.33,192.00 L213.24,194.79 L212.98,197.54 L212.54,200.23 L211.94,202.86 L211.18,205.42 L210.26,207.92 L209.20,210.34 L208.00,212.68 L206.65,214.93 L205.18,217.09 L201.85,221.12 L198.07,224.70 L193.87,227.81 L188.05,226.79 L184.95,226.10 L181.84,225.14 L178.77,223.91 L175.76,222.43 L172.83,220.71 L170.02,218.77 L167.35,216.63 L164.85,214.28 L162.58,211.78 L160.56,209.17 L158.82,206.47 L157.36,203.68 L156.20,200.82 L155.36,197.91 L154.84,194.97 L154.67,192.00 L154.67,74.67 L165.33,74.67 L165.33,53.33 L165.25,51.70 L165.01,50.11 L164.08,47.11 L162.60,44.39 L160.65,42.02 L158.28,40.07 L155.56,38.59 L152.56,37.66 L150.97,37.42 L149.33,37.33 L147.50,37.44 L145.73,37.74 L144.03,38.23 L142.41,38.90 L140.89,39.74 L139.47,40.73 L138.18,41.87 L137.01,43.13 L137.72,45.58 L138.24,48.10 L138.56,50.69 L138.67,53.33 L138.67,192.00 L138.95,196.85 L139.77,201.54 L141.08,206.07 L142.84,210.41 L145.01,214.54 L147.53,218.45 L150.36,222.12 L153.46,225.52 L156.12,228.05 L158.93,230.43 L161.89,232.64 L164.97,234.67 L85.33,234.67 L80.97,234.45 L76.73,233.80 L72.65,232.75 L68.73,231.31 L65.00,229.52 L61.48,227.38 L58.19,224.92 L55.16,222.17 L52.41,219.14 L49.95,215.86 L47.82,212.34 L46.02,208.61 L44.58,204.69 L43.53,200.60 L42.89,196.36 L42.67,192.00 L42.67,90.67 L42.75,89.03 L42.99,87.44 L43.92,84.44 L45.40,81.72 L47.35,79.35 L49.72,77.40 L52.44,75.92 L55.44,74.99 L57.03,74.75 L58.67,74.67 L74.67,74.67 Z" fill="#0078d4" stroke="#1e1e1e" stroke-width="1" stroke-linejoin="round"/><path d="M90.67,53.33 L90.67,74.67 L122.67,74.67 L122.67,53.33 L122.58,51.70 L122.34,50.11 L121.41,47.11 L119.93,44.39 L117.98,42.02 L115.61,40.07 L112.89,38.59 L109.89,37.66 L108.30,37.42 L106.67,37.33 L105.03,37.42 L103.44,37.66 L100.44,38.59 L97.72,40.07 L95.35,42.02 L93.40,44.39 L91.92,47.11 L90.99,50.11 L90.75,51.70 L90.67,53.33 Z" fill="#ffffff" stroke="#1e1e1e" stroke-width="1" stroke-linejoin="round"/></svg>