<svg xmlns="http://www.w3.org/2000/svg" viewBox="5.98 5.85 99.76 100.00"><path d="M90.89,37.04 L92.06,35.74 L93.08,34.36 L93.94,32.90 L94.64,31.38 L95.19,29.82 L95.58,28.22 L95.82,26.59 L95.90,24.95 L95.82,23.31 L95.58,21.68 L95.19,20.08 L94.64,18.51 L93.94,17.00 L93.08,15.54 L92.06,14.16 L90.89,12.86 L89.59,11.68 L88.20,10.67 L86.75,9.80 L85.23,9.10 L83.66,8.55 L82.06,8.16 L80.43,7.93 L78.79,7.85 L77.16,7.93 L75.53,8.16 L73.93,8.55 L72.36,9.10 L70.84,9.81 L69.39,10.67 L68.00,11.68 L66.70,12.86 L16.06,63.51 L15.23,64.45 L14.55,65.50 L14.02,66.64 L13.66,67.84 L8.06,92.10 L7.98,92.89 L8.11,93.64 L8.41,94.31 L8.86,94.89 L9.43,95.34 L10.11,95.64 L10.85,95.77 L11.65,95.69 L35.91,90.09 L37.11,89.72 L38.24,89.19 L39.29,88.51 L40.24,87.69 L82.51,45.42 L83.27,46.51 L83.79,47.55 L84.09,48.54 L84.19,49.48 L84.09,50.37 L83.79,51.21 L83.32,52.00 L82.67,52.75 L70.71,64.72 L70.32,65.19 L70.05,65.71 L69.88,66.26 L69.83,66.84 L69.88,67.41 L70.05,67.96 L70.32,68.48 L70.71,68.95 L71.17,69.34 L71.69,69.61 L72.25,69.77 L72.82,69.83 L73.39,69.78 L73.95,69.61 L74.47,69.34 L74.94,68.95 L86.91,56.98 L87.67,56.16 L88.32,55.30 L88.88,54.41 L89.34,53.49 L89.70,52.54 L89.95,51.57 L90.11,50.58 L90.16,49.57 L90.11,48.54 L89.95,47.50 L89.69,46.45 L89.32,45.40 L88.84,44.34 L88.26,43.28 L87.56,42.23 L86.75,41.17 L90.89,37.04 Z" fill="#0078d4" stroke="#1e1e1e" stroke-width="1" stroke-linejoin="round"/><path d="M65.76,83.80 L66.84,83.80 L68.56,83.89 L70.10,84.19 L71.49,84.69 L72.77,85.40 L73.97,86.34 L75.12,87.52 L76.26,88.93 L77.42,90.60 L78.99,93.02 L79.83,94.20 L80.57,95.04 L81.25,95.62 L81.94,95.99 L82.58,96.21 L83.25,96.31 L83.98,96.29 L84.83,96.12 L85.84,95.81 L87.07,95.33 L90.36,93.82 L91.96,93.04 L94.26,91.95 L96.28,91.09 L98.16,90.41 L100.03,89.87 L100.63,89.78 L101.22,89.82 L101.78,89.96 L102.29,90.21 L102.76,90.55 L103.15,90.97 L103.45,91.48 L103.66,92.05 L103.74,92.65 L103.71,93.24 L103.57,93.80 L103.32,94.31 L102.98,94.78 L102.55,95.17 L102.05,95.47 L101.48,95.68 L99.10,96.42 L96.42,97.55 L91.80,99.77 L89.63,100.76 L87.79,101.51 L86.20,102.03 L84.79,102.34 L83.50,102.43 L82.26,102.32 L81.01,102.02 L79.66,101.53 L78.77,101.12 L77.97,100.65 L77.22,100.11 L76.51,99.49 L75.82,98.76 L75.14,97.92 L73.67,95.84 L72.90,94.63 L71.28,92.27 L70.57,91.43 L69.89,90.78 L69.20,90.32 L68.48,90.01 L67.70,89.83 L66.84,89.78 L66.20,89.80 L65.57,89.88 L64.91,90.07 L64.15,90.42 L63.20,90.98 L60.41,92.90 L55.90,96.23 L53.37,98.03 L50.95,99.59 L48.61,100.90 L46.32,101.97 L44.05,102.80 L41.74,103.38 L39.37,103.73 L36.90,103.85 L33.84,103.78 L30.83,103.57 L27.86,103.21 L24.93,102.72 L22.05,102.08 L19.22,101.30 L16.43,100.38 L13.69,99.32 L25.19,96.66 L28.04,97.19 L30.95,97.56 L33.90,97.79 L36.90,97.86 L38.80,97.77 L40.64,97.48 L42.46,97.00 L44.30,96.31 L46.17,95.42 L48.11,94.31 L50.16,92.98 L52.33,91.42 L56.96,88.00 L60.11,85.80 L61.29,85.07 L62.29,84.54 L63.17,84.18 L64.00,83.96 L64.84,83.85 L65.76,83.80 Z" fill="#8dc8e8" stroke="#1e1e1e" stroke-width="1" stroke-linejoin="round"/></svg>