<svg xmlns="http://www.w3.org/2000/svg" viewBox="10.00 16.00 100.00 88.00"><path d="M30.00,30.00 L30.06,28.77 L30.24,27.58 L30.54,26.43 L30.94,25.33 L31.45,24.28 L32.05,23.29 L32.74,22.37 L33.51,21.51 L34.37,20.74 L35.29,20.05 L36.28,19.45 L37.33,18.94 L38.43,18.54 L39.58,18.24 L40.77,18.06 L42.00,18.00 L90.00,18.00 L91.23,18.06 L92.42,18.24 L93.57,18.54 L94.67,18.94 L95.72,19.45 L96.71,20.05 L97.63,20.74 L98.49,21.51 L99.26,22.37 L99.95,23.29 L100.55,24.28 L101.06,25.33 L101.46,26.43 L101.76,27.58 L101.94,28.77 L102.00,30.00 L102.00,60.00 L101.94,61.23 L101.76,62.42 L101.46,63.57 L101.06,64.67 L100.55,65.72 L99.95,66.71 L99.26,67.63 L98.49,68.49 L97.63,69.26 L96.71,69.95 L95.72,70.55 L94.67,71.06 L93.57,71.46 L92.42,71.76 L91.23,71.94 L90.00,72.00 L84.00,72.00 L84.00,66.00 L83.91,64.16 L83.63,62.37 L83.19,60.65 L82.59,58.99 L81.83,57.42 L80.93,55.94 L79.89,54.55 L78.73,53.27 L77.45,52.11 L76.06,51.07 L74.58,50.17 L73.01,49.41 L71.35,48.81 L69.63,48.37 L67.84,48.09 L66.00,48.00 L30.00,48.00 L30.00,30.00 Z" fill="#0078d4" stroke="#0078d4" stroke-width="1" stroke-linejoin="round"/><path d="M84.00,84.00 L105.00,84.00 L105.60,83.94 L106.17,83.76 L106.68,83.49 L107.12,83.12 L107.49,82.68 L107.76,82.17 L107.94,81.60 L108.00,81.00 L107.94,80.40 L107.76,79.83 L107.49,79.32 L107.12,78.88 L106.68,78.51 L106.17,78.24 L105.60,78.06 L105.00,78.00 L84.00,78.00 L84.00,84.00 Z" fill="#0078d4" stroke="#0078d4" stroke-width="1" stroke-linejoin="round"/><path d="M12.00,66.00 L12.06,64.77 L12.24,63.58 L12.54,62.43 L12.94,61.33 L13.45,60.28 L14.05,59.29 L14.74,58.37 L15.51,57.51 L16.37,56.74 L17.29,56.05 L18.28,55.45 L19.33,54.94 L20.43,54.54 L21.58,54.24 L22.77,54.06 L24.00,54.00 L66.00,54.00 L67.23,54.06 L68.42,54.24 L69.57,54.54 L70.67,54.94 L71.72,55.45 L72.71,56.05 L73.63,56.74 L74.49,57.51 L75.26,58.37 L75.95,59.29 L76.55,60.28 L77.06,61.33 L77.46,62.43 L77.76,63.58 L77.94,64.77 L78.00,66.00 L78.00,90.00 L77.94,91.23 L77.76,92.42 L77.46,93.57 L77.06,94.67 L76.55,95.72 L75.95,96.71 L75.26,97.63 L74.49,98.49 L73.63,99.26 L72.71,99.95 L71.72,100.55 L70.67,101.06 L69.57,101.46 L68.42,101.76 L67.23,101.94 L66.00,102.00 L24.00,102.00 L22.77,101.94 L21.58,101.76 L20.43,101.46 L19.33,101.06 L18.28,100.55 L17.29,99.95 L16.37,99.26 L15.51,98.49 L14.74,97.63 L14.05,96.71 L13.45,95.72 L12.94,94.67 L12.54,93.57 L12.24,92.42 L12.06,91.23 L12.00,90.00 L12.00,66.00 Z" fill="#8dc8e8" stroke="#8dc8e8" stroke-width="1" stroke-linejoin="round"/><path d="M36.00,87.00 L36.06,86.40 L36.24,85.83 L36.51,85.32 L36.88,84.88 L37.32,84.51 L37.83,84.24 L38.40,84.06 L39.00,84.00 L51.00,84.00 L51.60,84.06 L52.17,84.24 L52.68,84.51 L53.12,84.88 L53.49,85.32 L53.76,85.83 L53.94,86.40 L54.00,87.00 L53.94,87.60 L53.76,88.17 L53.49,88.68 L53.12,89.12 L52.68,89.49 L52.17,89.76 L51.60,89.94 L51.00,90.00 L39.00,90.00 L38.40,89.94 L37.83,89.76 L37.32,89.49 L36.88,89.12 L36.51,88.68 L36.24,88.17 L36.06,87.60 L36.00,87.00 Z" fill="#ffffff" stroke="#ffffff" stroke-width="1" stroke-linejoin="round"/></svg>