<svg xmlns="http://www.w3.org/2000/svg" viewBox="19.33 40.67 217.33 174.67"><path d="M21.33,65.33 L21.45,63.02 L21.79,60.77 L22.35,58.59 L23.11,56.51 L24.07,54.53 L25.20,52.66 L26.51,50.92 L27.97,49.31 L29.58,47.84 L31.33,46.54 L33.20,45.40 L35.18,44.45 L37.26,43.69 L39.43,43.13 L41.68,42.78 L44.00,42.67 L212.00,42.67 L214.32,42.78 L216.57,43.13 L218.74,43.69 L220.82,44.45 L222.80,45.40 L224.67,46.54 L226.42,47.84 L228.03,49.31 L229.49,50.92 L230.80,52.66 L231.93,54.53 L232.89,56.51 L233.65,58.59 L234.21,60.77 L234.55,63.02 L234.67,65.33 L234.67,190.67 L234.55,192.98 L234.21,195.23 L233.65,197.41 L232.89,199.49 L231.93,201.47 L230.80,203.34 L229.49,205.08 L228.03,206.69 L226.42,208.16 L224.67,209.46 L222.80,210.60 L220.82,211.55 L218.74,212.31 L216.57,212.87 L214.32,213.22 L212.00,213.33 L44.00,213.33 L41.68,213.22 L39.43,212.87 L37.26,212.31 L35.18,211.55 L33.20,210.60 L31.33,209.46 L29.58,208.16 L27.97,206.69 L26.51,205.08 L25.20,203.34 L24.07,201.47 L23.11,199.49 L22.35,197.41 L21.79,195.23 L21.45,192.98 L21.33,190.67 L21.33,65.33 Z" fill="#0078d4" stroke="#1e1e1e" stroke-width="1" stroke-linejoin="round"/><path d="M106.67,165.33 L105.32,165.47 L104.07,165.86 L102.94,166.47 L101.95,167.29 L101.14,168.27 L100.52,169.40 L100.14,170.66 L100.00,172.00 L100.14,173.34 L100.52,174.60 L101.14,175.73 L101.95,176.71 L102.94,177.53 L104.07,178.14 L105.32,178.53 L106.67,178.67 L149.33,178.67 L150.68,178.53 L151.93,178.14 L153.06,177.53 L154.05,176.71 L154.86,175.73 L155.48,174.60 L155.86,173.34 L156.00,172.00 L155.86,170.66 L155.48,169.40 L154.86,168.27 L154.05,167.29 L153.06,166.47 L151.93,165.86 L150.68,165.47 L149.33,165.33 L106.67,165.33 Z" fill="#ffffff" stroke="#1e1e1e" stroke-width="1" stroke-linejoin="round"/></svg>