<svg xmlns="http://www.w3.org/2000/svg" viewBox="7.60 17.20 100.00 80.80"><path d="M9.60,29.40 L9.65,28.36 L9.81,27.34 L10.06,26.37 L10.40,25.43 L10.83,24.54 L11.34,23.70 L11.93,22.91 L12.59,22.19 L13.31,21.53 L14.10,20.94 L14.94,20.43 L15.83,20.00 L16.77,19.66 L17.74,19.41 L18.76,19.25 L19.80,19.20 L95.40,19.20 L96.44,19.25 L97.46,19.41 L98.43,19.66 L99.37,20.00 L100.26,20.43 L101.10,20.94 L101.89,21.53 L102.61,22.19 L103.27,22.91 L103.86,23.70 L104.37,24.54 L104.80,25.43 L105.14,26.37 L105.39,27.34 L105.55,28.36 L105.60,29.40 L105.60,85.80 L105.55,86.84 L105.39,87.86 L105.14,88.83 L104.80,89.77 L104.37,90.66 L103.86,91.50 L103.27,92.29 L102.61,93.01 L101.89,93.67 L101.10,94.26 L100.26,94.77 L99.37,95.20 L98.43,95.54 L97.46,95.79 L96.44,95.95 L95.40,96.00 L19.80,96.00 L18.76,95.95 L17.74,95.79 L16.77,95.54 L15.83,95.20 L14.94,94.77 L14.10,94.26 L13.31,93.67 L12.59,93.01 L11.93,92.29 L11.34,91.50 L10.83,90.66 L10.40,89.77 L10.06,88.83 L9.81,87.86 L9.65,86.84 L9.60,85.80 L9.60,29.40 Z" fill="#0078d4" stroke="#0078d4" stroke-width="1" stroke-linejoin="round"/><path d="M48.00,74.40 L47.40,74.46 L46.83,74.64 L46.32,74.91 L45.88,75.28 L45.51,75.72 L45.24,76.23 L45.06,76.80 L45.00,77.40 L45.06,78.00 L45.24,78.57 L45.51,79.08 L45.88,79.52 L46.32,79.89 L46.83,80.16 L47.40,80.34 L48.00,80.40 L67.20,80.40 L67.80,80.34 L68.37,80.16 L68.88,79.89 L69.32,79.52 L69.69,79.08 L69.96,78.57 L70.14,78.00 L70.20,77.40 L70.14,76.80 L69.96,76.23 L69.69,75.72 L69.32,75.28 L68.88,74.91 L68.37,74.64 L67.80,74.46 L67.20,74.40 L48.00,74.40 Z" fill="#ffffff" stroke="#ffffff" stroke-width="1" stroke-linejoin="round"/></svg>