<svg xmlns="http://www.w3.org/2000/svg" viewBox="23.60 36.40 208.80 183.20"><path d="M64.00,64.00 L64.13,61.38 L64.52,58.84 L65.15,56.39 L66.01,54.04 L67.09,51.80 L68.37,49.69 L69.85,47.72 L71.50,45.90 L73.32,44.25 L75.29,42.77 L77.40,41.49 L79.64,40.41 L81.99,39.55 L84.44,38.92 L86.98,38.53 L89.60,38.40 L192.00,38.40 L194.62,38.53 L197.16,38.92 L199.61,39.55 L201.96,40.41 L204.20,41.49 L206.31,42.77 L208.28,44.25 L210.10,45.90 L211.75,47.72 L213.23,49.69 L214.51,51.80 L215.59,54.04 L216.45,56.39 L217.08,58.84 L217.47,61.38 L217.60,64.00 L217.60,128.00 L217.47,130.62 L217.08,133.16 L216.45,135.61 L215.59,137.96 L214.51,140.20 L213.23,142.31 L211.75,144.28 L210.10,146.10 L208.28,147.75 L206.31,149.23 L204.20,150.51 L201.96,151.59 L199.61,152.45 L197.16,153.08 L194.62,153.47 L192.00,153.60 L179.20,153.60 L179.20,140.80 L179.00,136.87 L178.42,133.06 L177.47,129.38 L176.18,125.85 L174.57,122.50 L172.64,119.33 L170.43,116.37 L167.95,113.65 L165.23,111.17 L162.27,108.96 L159.10,107.03 L155.75,105.42 L152.22,104.13 L148.54,103.18 L144.73,102.60 L140.80,102.40 L64.00,102.40 L64.00,64.00 Z" fill="#0078d4" stroke="#1e1e1e" stroke-width="1" stroke-linejoin="round"/><path d="M179.20,179.20 L224.00,179.20 L225.29,179.07 L226.49,178.70 L227.58,178.11 L228.53,177.33 L229.31,176.38 L229.90,175.29 L230.27,174.09 L230.40,172.80 L230.27,171.51 L229.90,170.31 L229.31,169.22 L228.53,168.27 L227.58,167.49 L226.49,166.90 L225.29,166.53 L224.00,166.40 L179.20,166.40 L179.20,179.20 Z" fill="#0078d4" stroke="#1e1e1e" stroke-width="1" stroke-linejoin="round"/><path d="M25.60,140.80 L25.73,138.18 L26.12,135.64 L26.75,133.19 L27.61,130.84 L28.69,128.60 L29.97,126.49 L31.45,124.52 L33.10,122.70 L34.92,121.05 L36.89,119.57 L39.00,118.29 L41.24,117.21 L43.59,116.35 L46.04,115.72 L48.58,115.33 L51.20,115.20 L140.80,115.20 L143.42,115.33 L145.96,115.72 L148.41,116.35 L150.76,117.21 L153.00,118.29 L155.11,119.57 L157.08,121.05 L158.90,122.70 L160.55,124.52 L162.03,126.49 L163.31,128.60 L164.39,130.84 L165.25,133.19 L165.88,135.64 L166.27,138.18 L166.40,140.80 L166.40,192.00 L166.27,194.62 L165.88,197.16 L165.25,199.61 L164.39,201.96 L163.31,204.20 L162.03,206.31 L160.55,208.28 L158.90,210.10 L157.08,211.75 L155.11,213.23 L153.00,214.51 L150.76,215.59 L148.41,216.45 L145.96,217.08 L143.42,217.47 L140.80,217.60 L51.20,217.60 L48.58,217.47 L46.04,217.08 L43.59,216.45 L41.24,215.59 L39.00,214.51 L36.89,213.23 L34.92,211.75 L33.10,210.10 L31.45,208.28 L29.97,206.31 L28.69,204.20 L27.61,201.96 L26.75,199.61 L26.12,197.16 L25.73,194.62 L25.60,192.00 L25.60,140.80 Z" fill="#8dc8e8" stroke="#1e1e1e" stroke-width="1" stroke-linejoin="round"/><path d="M76.80,185.60 L76.93,184.31 L77.30,183.11 L77.89,182.02 L78.67,181.07 L79.62,180.29 L80.71,179.70 L81.91,179.33 L83.20,179.20 L108.80,179.20 L110.09,179.33 L111.29,179.70 L112.38,180.29 L113.33,181.07 L114.11,182.02 L114.70,183.11 L115.07,184.31 L115.20,185.60 L115.07,186.89 L114.70,188.09 L114.11,189.18 L113.33,190.13 L112.38,190.91 L111.29,191.50 L110.09,191.87 L108.80,192.00 L83.20,192.00 L81.91,191.87 L80.71,191.50 L79.62,190.91 L78.67,190.13 L77.89,189.18 L77.30,188.09 L76.93,186.89 L76.80,185.60 Z" fill="#ffffff" stroke="#1e1e1e" stroke-width="1" stroke-linejoin="round"/></svg>