<svg xmlns="http://www.w3.org/2000/svg" viewBox="51.32 24.67 153.31 201.29"><path d="M125.33,40.00 L120.43,40.25 L115.66,40.98 L111.06,42.16 L106.65,43.77 L102.45,45.79 L98.50,48.20 L94.80,50.96 L91.39,54.06 L88.29,57.47 L85.53,61.16 L83.13,65.12 L81.11,69.32 L79.49,73.73 L78.31,78.33 L77.58,83.09 L77.33,88.00 L77.57,92.77 L78.26,97.41 L79.37,101.89 L80.90,106.20 L82.82,110.31 L85.10,114.19 L87.72,117.83 L90.67,121.20 L90.67,123.48 L86.69,122.73 L82.72,122.41 L78.79,122.48 L74.93,122.95 L72.48,119.14 L70.31,115.13 L68.44,110.96 L66.88,106.63 L65.64,102.15 L64.74,97.55 L64.19,92.82 L64.00,88.00 L64.08,84.84 L64.32,81.73 L65.25,75.64 L66.76,69.76 L68.82,64.13 L71.40,58.76 L74.47,53.71 L78.01,48.99 L81.96,44.63 L86.32,40.67 L91.04,37.14 L96.10,34.07 L101.46,31.49 L107.09,29.42 L112.97,27.91 L119.06,26.98 L122.18,26.75 L125.33,26.67 L128.49,26.75 L131.60,26.98 L137.69,27.91 L143.57,29.42 L149.21,31.49 L154.57,34.07 L159.63,37.14 L164.35,40.67 L168.70,44.63 L172.66,48.99 L176.19,53.71 L179.26,58.76 L181.85,64.13 L183.91,69.76 L185.42,75.64 L186.35,81.73 L186.59,84.84 L186.67,88.00 L186.38,93.97 L185.54,99.78 L184.16,105.40 L182.29,110.81 L180.67,110.43 L169.01,107.93 L170.86,103.25 L172.21,98.35 L173.05,93.26 L173.33,88.00 L173.09,83.09 L172.36,78.33 L171.18,73.73 L169.56,69.32 L167.54,65.12 L165.14,61.16 L162.37,57.47 L159.27,54.06 L155.87,50.96 L152.17,48.20 L148.21,45.79 L144.02,43.77 L139.61,42.16 L135.01,40.98 L130.24,40.25 L125.33,40.00 Z" fill="#8dc8e8" stroke="#1e1e1e" stroke-width="1" stroke-linejoin="round"/><path d="M125.33,64.00 L122.88,64.12 L120.50,64.49 L118.20,65.08 L115.99,65.89 L113.89,66.90 L111.92,68.10 L110.07,69.48 L108.36,71.03 L106.81,72.73 L105.43,74.58 L104.23,76.56 L103.22,78.66 L102.41,80.86 L101.82,83.16 L101.46,85.55 L101.33,88.00 L101.33,138.50 L91.36,134.83 L88.21,133.87 L85.05,133.28 L81.90,133.06 L78.79,133.19 L75.75,133.66 L72.79,134.44 L69.95,135.54 L67.24,136.92 L64.70,138.59 L62.34,140.52 L60.19,142.69 L58.27,145.11 L56.62,147.74 L55.25,150.59 L54.19,153.62 L53.47,156.83 L53.32,158.58 L53.47,160.29 L53.90,161.92 L54.58,163.44 L55.49,164.84 L56.61,166.08 L57.93,167.12 L59.43,167.95 L66.46,171.23 L72.99,174.47 L79.03,177.68 L84.59,180.86 L89.70,183.99 L94.37,187.07 L98.61,190.10 L102.46,193.07 L105.91,195.99 L108.99,198.84 L111.72,201.62 L114.11,204.32 L116.18,206.95 L117.94,209.49 L119.42,211.94 L120.63,214.30 L121.77,216.35 L123.20,218.28 L124.92,220.02 L126.88,221.52 L129.08,222.72 L131.48,223.55 L134.06,223.96 L136.81,223.89 L170.10,219.99 L173.46,219.34 L176.63,218.21 L179.57,216.64 L182.23,214.67 L184.58,212.34 L186.58,209.67 L188.17,206.71 L189.32,203.49 L201.56,158.97 L202.26,155.78 L202.61,152.61 L202.64,149.46 L202.34,146.37 L201.74,143.35 L200.84,140.42 L199.66,137.61 L198.21,134.93 L196.50,132.41 L194.55,130.06 L192.37,127.91 L189.97,125.98 L187.36,124.29 L184.56,122.86 L181.58,121.71 L178.43,120.86 L149.33,114.61 L149.33,88.00 L149.21,85.55 L148.85,83.16 L148.26,80.86 L147.45,78.66 L146.44,76.56 L145.24,74.58 L143.85,72.73 L142.30,71.03 L140.60,69.48 L138.75,68.10 L136.77,66.90 L134.68,65.89 L132.47,65.08 L130.17,64.49 L127.79,64.12 L125.33,64.00 Z" fill="#0078d4" stroke="#1e1e1e" stroke-width="1" stroke-linejoin="round"/></svg>