<svg xmlns="http://www.w3.org/2000/svg" viewBox="7.60 14.80 100.00 85.60"><path d="M32.55,22.95 L33.01,22.38 L33.34,21.75 L33.53,21.09 L33.60,20.40 L33.53,19.71 L33.34,19.05 L33.01,18.42 L32.55,17.85 L31.98,17.39 L31.35,17.06 L30.69,16.87 L30.00,16.80 L29.31,16.87 L28.65,17.06 L28.02,17.39 L27.45,17.85 L18.00,27.31 L15.75,25.05 L15.18,24.59 L14.55,24.26 L13.89,24.07 L13.20,24.00 L12.51,24.07 L11.85,24.26 L11.22,24.59 L10.65,25.05 L10.19,25.62 L9.86,26.25 L9.67,26.91 L9.60,27.60 L9.67,28.29 L9.86,28.95 L10.19,29.58 L10.65,30.15 L15.45,34.95 L16.02,35.41 L16.65,35.74 L17.31,35.93 L18.00,36.00 L18.69,35.93 L19.35,35.74 L19.98,35.41 L20.55,34.95 L32.55,22.95 Z" fill="#107c41" stroke="#107c41" stroke-width="1" stroke-linejoin="round"/><path d="M102.00,86.43 L46.80,86.43 L46.31,86.47 L45.67,86.61 L45.08,86.87 L44.55,87.22 L44.10,87.66 L43.72,88.17 L43.44,88.74 L43.26,89.37 L43.20,90.03 L43.27,90.76 L43.48,91.43 L43.81,92.05 L44.25,92.58 L44.79,93.02 L45.40,93.35 L46.07,93.56 L46.80,93.63 L102.00,93.63 L102.49,93.60 L103.13,93.45 L103.72,93.20 L104.25,92.85 L104.70,92.41 L105.08,91.90 L105.36,91.33 L105.54,90.70 L105.60,90.03 L105.53,89.31 L105.32,88.63 L104.99,88.02 L104.55,87.49 L104.01,87.05 L103.40,86.72 L102.73,86.51 L102.00,86.43 Z" fill="#107c41" stroke="#107c41" stroke-width="1" stroke-linejoin="round"/><path d="M102.00,55.20 L46.80,55.20 L46.31,55.23 L45.67,55.38 L45.08,55.63 L44.55,55.99 L44.10,56.42 L43.72,56.93 L43.44,57.51 L43.26,58.13 L43.20,58.80 L43.27,59.53 L43.48,60.20 L43.81,60.81 L44.25,61.35 L44.79,61.79 L45.40,62.12 L46.07,62.33 L46.80,62.40 L102.00,62.40 L102.49,62.37 L103.13,62.22 L103.72,61.97 L104.25,61.61 L104.70,61.18 L105.08,60.67 L105.36,60.09 L105.54,59.47 L105.60,58.80 L105.53,58.07 L105.32,57.40 L104.99,56.79 L104.55,56.25 L104.01,55.81 L103.40,55.48 L102.73,55.27 L102.00,55.20 Z" fill="#107c41" stroke="#107c41" stroke-width="1" stroke-linejoin="round"/><path d="M102.00,24.00 L46.80,24.00 L46.31,24.03 L45.67,24.18 L45.08,24.43 L44.55,24.79 L44.10,25.22 L43.72,25.73 L43.44,26.31 L43.26,26.93 L43.20,27.60 L43.27,28.33 L43.48,29.00 L43.81,29.61 L44.25,30.15 L44.79,30.59 L45.40,30.92 L46.07,31.13 L46.80,31.20 L102.00,31.20 L102.49,31.17 L103.13,31.02 L103.72,30.77 L104.25,30.41 L104.70,29.98 L105.08,29.47 L105.36,28.89 L105.54,28.27 L105.60,27.60 L105.53,26.87 L105.32,26.20 L104.99,25.59 L104.55,25.05 L104.01,24.61 L103.40,24.28 L102.73,24.07 L102.00,24.00 Z" fill="#107c41" stroke="#107c41" stroke-width="1" stroke-linejoin="round"/><path d="M32.55,85.35 L33.01,84.78 L33.34,84.15 L33.53,83.49 L33.60,82.80 L33.53,82.11 L33.34,81.45 L33.01,80.82 L32.55,80.25 L31.98,79.79 L31.35,79.46 L30.69,79.27 L30.00,79.20 L29.31,79.27 L28.65,79.46 L28.02,79.79 L27.45,80.25 L18.00,89.71 L15.75,87.45 L15.18,86.99 L14.55,86.66 L13.89,86.47 L13.20,86.40 L12.51,86.47 L11.85,86.66 L11.22,86.99 L10.65,87.45 L10.19,88.02 L9.86,88.65 L9.67,89.31 L9.60,90.00 L9.67,90.69 L9.86,91.35 L10.19,91.98 L10.65,92.55 L15.45,97.35 L16.02,97.81 L16.65,98.14 L17.31,98.33 L18.00,98.40 L18.69,98.33 L19.35,98.14 L19.98,97.81 L20.55,97.35 L32.55,85.35 Z" fill="#107c41" stroke="#107c41" stroke-width="1" stroke-linejoin="round"/><path d="M32.55,49.05 L33.01,49.62 L33.34,50.25 L33.53,50.91 L33.60,51.60 L33.53,52.29 L33.34,52.95 L33.01,53.58 L32.55,54.15 L20.55,66.15 L19.98,66.61 L19.35,66.94 L18.69,67.13 L18.00,67.20 L17.31,67.13 L16.65,66.94 L16.02,66.61 L15.45,66.15 L10.65,61.35 L10.19,60.78 L9.86,60.15 L9.67,59.49 L9.60,58.80 L9.67,58.11 L9.86,57.45 L10.19,56.82 L10.65,56.25 L11.22,55.79 L11.85,55.46 L12.51,55.27 L13.20,55.20 L13.89,55.27 L14.55,55.46 L15.18,55.79 L15.75,56.25 L18.00,58.51 L27.45,49.05 L28.02,48.59 L28.65,48.26 L29.31,48.07 L30.00,48.00 L30.69,48.07 L31.35,48.26 L31.98,48.59 L32.55,49.05 Z" fill="#107c41" stroke="#107c41" stroke-width="1" stroke-linejoin="round"/></svg>