<svg xmlns="http://www.w3.org/2000/svg" viewBox="30.00 30.00 196.00 196.00"><path d="M32.00,66.67 L32.18,63.12 L32.70,59.68 L33.56,56.36 L34.72,53.17 L36.18,50.14 L37.92,47.28 L39.92,44.62 L42.15,42.15 L44.62,39.92 L47.28,37.92 L50.14,36.18 L53.17,34.72 L56.36,33.56 L59.68,32.70 L63.12,32.18 L66.67,32.00 L189.33,32.00 L192.88,32.18 L196.32,32.70 L199.64,33.56 L202.83,34.72 L205.86,36.18 L208.72,37.92 L211.38,39.92 L213.85,42.15 L216.08,44.62 L218.08,47.28 L219.82,50.14 L221.28,53.17 L222.44,56.36 L223.30,59.68 L223.82,63.12 L224.00,66.67 L224.00,189.33 L223.82,192.88 L223.30,196.32 L222.44,199.64 L221.28,202.83 L219.82,205.86 L218.08,208.72 L216.08,211.38 L213.85,213.85 L211.38,216.08 L208.72,218.08 L205.86,219.82 L202.83,221.28 L199.64,222.44 L196.32,223.30 L192.88,223.82 L189.33,224.00 L66.67,224.00 L63.12,223.82 L59.68,223.30 L56.36,222.44 L53.17,221.28 L50.14,219.82 L47.28,218.08 L44.62,216.08 L42.15,213.85 L39.92,211.38 L37.92,208.72 L36.18,205.86 L34.72,202.83 L33.56,199.64 L32.70,196.32 L32.18,192.88 L32.00,189.33 L32.00,66.67 Z" fill="#107c41" stroke="#1e1e1e" stroke-width="1" stroke-linejoin="round"/><path d="M133.33,98.67 L133.50,100.28 L133.96,101.78 L134.70,103.14 L135.68,104.32 L136.86,105.30 L138.22,106.04 L139.72,106.50 L141.33,106.67 L178.67,106.67 L180.28,106.50 L181.78,106.04 L183.14,105.30 L184.32,104.32 L185.30,103.14 L186.04,101.78 L186.50,100.28 L186.67,98.67 L186.50,97.05 L186.04,95.55 L185.30,94.19 L184.32,93.01 L183.14,92.03 L181.78,91.30 L180.28,90.83 L178.67,90.67 L141.33,90.67 L139.72,90.83 L138.22,91.30 L136.86,92.03 L135.68,93.01 L134.70,94.19 L133.96,95.55 L133.50,97.05 L133.33,98.67 Z" fill="#ffffff" stroke="#1e1e1e" stroke-width="1" stroke-linejoin="round"/><path d="M141.33,149.33 L139.72,149.50 L138.22,149.96 L136.86,150.70 L135.68,151.68 L134.70,152.86 L133.96,154.22 L133.50,155.72 L133.33,157.33 L133.50,158.95 L133.96,160.45 L134.70,161.81 L135.68,162.99 L136.86,163.97 L138.22,164.70 L139.72,165.17 L141.33,165.33 L178.67,165.33 L180.28,165.17 L181.78,164.70 L183.14,163.97 L184.32,162.99 L185.30,161.81 L186.04,160.45 L186.50,158.95 L186.67,157.33 L186.50,155.72 L186.04,154.22 L185.30,152.86 L184.32,151.68 L183.14,150.70 L181.78,149.96 L180.28,149.50 L178.67,149.33 L141.33,149.33 Z" fill="#ffffff" stroke="#1e1e1e" stroke-width="1" stroke-linejoin="round"/><path d="M114.99,93.66 L116.02,92.40 L116.75,91.01 L117.19,89.53 L117.33,88.00 L117.19,86.47 L116.75,84.99 L116.02,83.60 L114.99,82.34 L113.74,81.32 L112.34,80.59 L110.86,80.15 L109.33,80.00 L107.81,80.15 L106.32,80.59 L104.93,81.32 L103.68,82.34 L88.00,98.02 L82.99,93.01 L81.74,91.98 L80.34,91.25 L78.86,90.81 L77.33,90.67 L75.81,90.81 L74.32,91.25 L72.93,91.98 L71.68,93.01 L70.65,94.26 L69.92,95.66 L69.48,97.14 L69.33,98.67 L69.48,100.19 L69.92,101.68 L70.65,103.07 L71.68,104.32 L82.34,114.99 L83.60,116.02 L84.99,116.75 L86.47,117.19 L88.00,117.33 L89.53,117.19 L91.01,116.75 L92.40,116.02 L93.66,114.99 L114.99,93.66 Z" fill="#ffffff" stroke="#1e1e1e" stroke-width="1" stroke-linejoin="round"/><path d="M114.99,141.01 L113.74,139.98 L112.34,139.25 L110.86,138.81 L109.33,138.67 L107.81,138.81 L106.32,139.25 L104.93,139.98 L103.68,141.01 L88.00,156.69 L82.99,151.68 L81.74,150.65 L80.34,149.92 L78.86,149.48 L77.33,149.33 L75.81,149.48 L74.32,149.92 L72.93,150.65 L71.68,151.68 L70.65,152.93 L69.92,154.32 L69.48,155.81 L69.33,157.33 L69.48,158.86 L69.92,160.34 L70.65,161.74 L71.68,162.99 L82.34,173.66 L83.60,174.68 L84.99,175.41 L86.47,175.85 L88.00,176.00 L89.53,175.85 L91.01,175.41 L92.40,174.68 L93.66,173.66 L114.99,152.32 L116.02,151.07 L116.75,149.68 L117.19,148.19 L117.33,146.67 L117.19,145.14 L116.75,143.66 L116.02,142.26 L114.99,141.01 Z" fill="#ffffff" stroke="#1e1e1e" stroke-width="1" stroke-linejoin="round"/></svg>