<svg xmlns="http://www.w3.org/2000/svg" viewBox="30.00 30.00 196.00 196.00"><path d="M32.00,66.67 L32.18,63.12 L32.70,59.68 L33.56,56.36 L34.72,53.17 L36.18,50.14 L37.92,47.28 L39.92,44.62 L42.15,42.15 L44.62,39.92 L47.28,37.92 L50.14,36.18 L53.17,34.72 L56.36,33.56 L59.68,32.70 L63.12,32.18 L66.67,32.00 L189.33,32.00 L192.88,32.18 L196.32,32.70 L199.64,33.56 L202.83,34.72 L205.86,36.18 L208.72,37.92 L211.38,39.92 L213.85,42.15 L216.08,44.62 L218.08,47.28 L219.82,50.14 L221.28,53.17 L222.44,56.36 L223.30,59.68 L223.82,63.12 L224.00,66.67 L224.00,189.33 L223.82,192.88 L223.30,196.32 L222.44,199.64 L221.28,202.83 L219.82,205.86 L218.08,208.72 L216.08,211.38 L213.85,213.85 L211.38,216.08 L208.72,218.08 L205.86,219.82 L202.83,221.28 L199.64,222.44 L196.32,223.30 L192.88,223.82 L189.33,224.00 L66.67,224.00 L63.12,223.82 L59.68,223.30 L56.36,222.44 L53.17,221.28 L50.14,219.82 L47.28,218.08 L44.62,216.08 L42.15,213.85 L39.92,211.38 L37.92,208.72 L36.18,205.86 L34.72,202.83 L33.56,199.64 L32.70,196.32 L32.18,192.88 L32.00,189.33 L32.00,66.67 Z" fill="#107c41" stroke="#1e1e1e" stroke-width="1" stroke-linejoin="round"/><path d="M82.67,98.67 L84.82,98.45 L86.82,97.83 L88.63,96.85 L90.21,95.54 L91.51,93.96 L92.50,92.15 L93.12,90.15 L93.33,88.00 L93.12,85.85 L92.50,83.85 L91.51,82.04 L90.21,80.46 L88.63,79.15 L86.82,78.17 L84.82,77.55 L82.67,77.33 L80.52,77.55 L78.51,78.17 L76.70,79.15 L75.12,80.46 L73.82,82.04 L72.84,83.85 L72.22,85.85 L72.00,88.00 L72.22,90.15 L72.84,92.15 L73.82,93.96 L75.12,95.54 L76.70,96.85 L78.51,97.83 L80.52,98.45 L82.67,98.67 Z" fill="#ffffff" stroke="#1e1e1e" stroke-width="1" stroke-linejoin="round"/><path d="M120.00,80.00 L118.39,80.16 L116.89,80.63 L115.53,81.37 L114.34,82.34 L113.37,83.53 L112.63,84.89 L112.16,86.39 L112.00,88.00 L112.16,89.61 L112.63,91.11 L113.37,92.47 L114.34,93.66 L115.53,94.63 L116.89,95.37 L118.39,95.84 L120.00,96.00 L178.67,96.00 L180.28,95.84 L181.78,95.37 L183.14,94.63 L184.32,93.66 L185.30,92.47 L186.04,91.11 L186.50,89.61 L186.67,88.00 L186.50,86.39 L186.04,84.89 L185.30,83.53 L184.32,82.34 L183.14,81.37 L181.78,80.63 L180.28,80.16 L178.67,80.00 L120.00,80.00 Z" fill="#ffffff" stroke="#1e1e1e" stroke-width="1" stroke-linejoin="round"/><path d="M120.00,120.00 L118.39,120.16 L116.89,120.63 L115.53,121.37 L114.34,122.34 L113.37,123.53 L112.63,124.89 L112.16,126.39 L112.00,128.00 L112.16,129.61 L112.63,131.11 L113.37,132.47 L114.34,133.66 L115.53,134.63 L116.89,135.37 L118.39,135.84 L120.00,136.00 L178.67,136.00 L180.28,135.84 L181.78,135.37 L183.14,134.63 L184.32,133.66 L185.30,132.47 L186.04,131.11 L186.50,129.61 L186.67,128.00 L186.50,126.39 L186.04,124.89 L185.30,123.53 L184.32,122.34 L183.14,121.37 L181.78,120.63 L180.28,120.16 L178.67,120.00 L120.00,120.00 Z" fill="#ffffff" stroke="#1e1e1e" stroke-width="1" stroke-linejoin="round"/><path d="M112.00,168.00 L112.16,169.61 L112.63,171.11 L113.37,172.47 L114.34,173.66 L115.53,174.63 L116.89,175.37 L118.39,175.84 L120.00,176.00 L178.67,176.00 L180.28,175.84 L181.78,175.37 L183.14,174.63 L184.32,173.66 L185.30,172.47 L186.04,171.11 L186.50,169.61 L186.67,168.00 L186.50,166.39 L186.04,164.89 L185.30,163.53 L184.32,162.34 L183.14,161.37 L181.78,160.63 L180.28,160.16 L178.67,160.00 L120.00,160.00 L118.39,160.16 L116.89,160.63 L115.53,161.37 L114.34,162.34 L113.37,163.53 L112.63,164.89 L112.16,166.39 L112.00,168.00 Z" fill="#ffffff" stroke="#1e1e1e" stroke-width="1" stroke-linejoin="round"/><path d="M93.33,128.00 L93.12,125.85 L92.50,123.85 L91.51,122.04 L90.21,120.46 L88.63,119.15 L86.82,118.17 L84.82,117.55 L82.67,117.33 L80.52,117.55 L78.51,118.17 L76.70,119.15 L75.12,120.46 L73.82,122.04 L72.84,123.85 L72.22,125.85 L72.00,128.00 L72.22,130.15 L72.84,132.15 L73.82,133.96 L75.12,135.54 L76.70,136.85 L78.51,137.83 L80.52,138.45 L82.67,138.67 L84.82,138.45 L86.82,137.83 L88.63,136.85 L90.21,135.54 L91.51,133.96 L92.50,132.15 L93.12,130.15 L93.33,128.00 Z" fill="#ffffff" stroke="#1e1e1e" stroke-width="1" stroke-linejoin="round"/><path d="M82.67,178.67 L84.82,178.45 L86.82,177.83 L88.63,176.85 L90.21,175.54 L91.51,173.96 L92.50,172.15 L93.12,170.15 L93.33,168.00 L93.12,165.85 L92.50,163.85 L91.51,162.04 L90.21,160.46 L88.63,159.15 L86.82,158.17 L84.82,157.55 L82.67,157.33 L80.52,157.55 L78.51,158.17 L76.70,159.15 L75.12,160.46 L73.82,162.04 L72.84,163.85 L72.22,165.85 L72.00,168.00 L72.22,170.15 L72.84,172.15 L73.82,173.96 L75.12,175.54 L76.70,176.85 L78.51,177.83 L80.52,178.45 L82.67,178.67 Z" fill="#ffffff" stroke="#1e1e1e" stroke-width="1" stroke-linejoin="round"/></svg>