<svg xmlns="http://www.w3.org/2000/svg" viewBox="7.60 19.60 100.00 78.39"><path d="M15.60,84.00 L16.81,84.12 L17.93,84.47 L18.95,85.02 L19.84,85.76 L20.57,86.64 L21.12,87.66 L21.47,88.79 L21.59,90.00 L21.47,91.21 L21.12,92.33 L20.57,93.35 L19.84,94.24 L18.95,94.97 L17.93,95.52 L16.81,95.87 L15.60,95.99 L14.39,95.87 L13.26,95.52 L12.24,94.97 L11.36,94.24 L10.62,93.35 L10.07,92.33 L9.72,91.21 L9.60,90.00 L9.72,88.79 L10.07,87.66 L10.62,86.64 L11.36,85.76 L12.24,85.02 L13.26,84.47 L14.39,84.12 L15.60,84.00 Z" fill="#107c41" stroke="#107c41" stroke-width="1" stroke-linejoin="round"/><path d="M32.40,86.40 L102.00,86.40 L102.73,86.47 L103.40,86.68 L104.01,87.01 L104.55,87.45 L104.99,87.99 L105.32,88.60 L105.53,89.27 L105.60,90.00 L105.54,90.67 L105.36,91.29 L105.08,91.87 L104.70,92.38 L104.25,92.81 L103.72,93.17 L103.13,93.42 L102.49,93.57 L102.00,93.60 L32.40,93.60 L31.67,93.53 L31.00,93.32 L30.39,92.99 L29.85,92.55 L29.41,92.01 L29.08,91.40 L28.87,90.73 L28.80,90.00 L28.86,89.33 L29.04,88.71 L29.32,88.13 L29.70,87.62 L30.15,87.19 L30.68,86.83 L31.27,86.58 L31.91,86.43 L32.40,86.40 Z" fill="#107c41" stroke="#107c41" stroke-width="1" stroke-linejoin="round"/><path d="M15.60,52.80 L16.81,52.92 L17.93,53.27 L18.95,53.82 L19.84,54.56 L20.57,55.44 L21.12,56.46 L21.47,57.59 L21.59,58.80 L21.47,60.01 L21.12,61.13 L20.57,62.15 L19.84,63.04 L18.95,63.77 L17.93,64.32 L16.81,64.67 L15.60,64.79 L14.39,64.67 L13.26,64.32 L12.24,63.77 L11.36,63.04 L10.62,62.15 L10.07,61.13 L9.72,60.01 L9.60,58.80 L9.72,57.59 L10.07,56.46 L10.62,55.44 L11.36,54.56 L12.24,53.82 L13.26,53.27 L14.39,52.92 L15.60,52.80 Z" fill="#107c41" stroke="#107c41" stroke-width="1" stroke-linejoin="round"/><path d="M32.40,55.20 L102.00,55.20 L102.73,55.27 L103.40,55.48 L104.01,55.81 L104.55,56.25 L104.99,56.79 L105.32,57.40 L105.53,58.07 L105.60,58.80 L105.54,59.47 L105.36,60.09 L105.08,60.67 L104.70,61.18 L104.25,61.61 L103.72,61.97 L103.13,62.22 L102.49,62.37 L102.00,62.40 L32.40,62.40 L31.67,62.33 L31.00,62.12 L30.39,61.79 L29.85,61.35 L29.41,60.81 L29.08,60.20 L28.87,59.53 L28.80,58.80 L28.86,58.13 L29.04,57.51 L29.32,56.93 L29.70,56.42 L30.15,55.99 L30.68,55.63 L31.27,55.38 L31.91,55.23 L32.40,55.20 Z" fill="#107c41" stroke="#107c41" stroke-width="1" stroke-linejoin="round"/><path d="M15.60,21.60 L16.81,21.72 L17.93,22.07 L18.95,22.62 L19.84,23.36 L20.57,24.24 L21.12,25.26 L21.47,26.39 L21.59,27.60 L21.47,28.81 L21.12,29.93 L20.57,30.95 L19.84,31.84 L18.95,32.57 L17.93,33.12 L16.81,33.47 L15.60,33.59 L14.39,33.47 L13.26,33.12 L12.24,32.57 L11.36,31.84 L10.62,30.95 L10.07,29.93 L9.72,28.81 L9.60,27.60 L9.72,26.39 L10.07,25.26 L10.62,24.24 L11.36,23.36 L12.24,22.62 L13.26,22.07 L14.39,21.72 L15.60,21.60 Z" fill="#107c41" stroke="#107c41" stroke-width="1" stroke-linejoin="round"/><path d="M32.40,24.00 L102.00,24.00 L102.73,24.07 L103.40,24.28 L104.01,24.61 L104.55,25.05 L104.99,25.59 L105.32,26.20 L105.53,26.87 L105.60,27.60 L105.54,28.27 L105.36,28.89 L105.08,29.47 L104.70,29.98 L104.25,30.41 L103.72,30.77 L103.13,31.02 L102.49,31.17 L102.00,31.20 L32.40,31.20 L31.67,31.13 L31.00,30.92 L30.39,30.59 L29.85,30.15 L29.41,29.61 L29.08,29.00 L28.87,28.33 L28.80,27.60 L28.86,26.93 L29.04,26.31 L29.32,25.73 L29.70,25.22 L30.15,24.79 L30.68,24.43 L31.27,24.18 L31.91,24.03 L32.40,24.00 Z" fill="#107c41" stroke="#107c41" stroke-width="1" stroke-linejoin="round"/></svg>