<svg xmlns="http://www.w3.org/2000/svg" viewBox="14.00 14.00 100.00 100.00"><path d="M16.00,33.33 L16.09,31.56 L16.35,29.84 L16.78,28.18 L17.36,26.59 L18.09,25.07 L18.96,23.64 L19.96,22.31 L21.08,21.08 L22.31,19.96 L23.64,18.96 L25.07,18.09 L26.59,17.36 L28.18,16.78 L29.84,16.35 L31.56,16.09 L33.33,16.00 L94.67,16.00 L96.44,16.09 L98.16,16.35 L99.82,16.78 L101.41,17.36 L102.93,18.09 L104.36,18.96 L105.69,19.96 L106.92,21.08 L108.04,22.31 L109.04,23.64 L109.91,25.07 L110.64,26.59 L111.22,28.18 L111.65,29.84 L111.91,31.56 L112.00,33.33 L112.00,94.67 L111.91,96.44 L111.65,98.16 L111.22,99.82 L110.64,101.41 L109.91,102.93 L109.04,104.36 L108.04,105.69 L106.92,106.92 L105.69,108.04 L104.36,109.04 L102.93,109.91 L101.41,110.64 L99.82,111.22 L98.16,111.65 L96.44,111.91 L94.67,112.00 L33.33,112.00 L31.56,111.91 L29.84,111.65 L28.18,111.22 L26.59,110.64 L25.07,109.91 L23.64,109.04 L22.31,108.04 L21.08,106.92 L19.96,105.69 L18.96,104.36 L18.09,102.93 L17.36,101.41 L16.78,99.82 L16.35,98.16 L16.09,96.44 L16.00,94.67 L16.00,33.33 Z" fill="#107c41" stroke="#107c41" stroke-width="1" stroke-linejoin="round"/><path d="M41.33,49.33 L42.41,49.22 L43.41,48.91 L44.32,48.42 L45.10,47.77 L45.76,46.98 L46.25,46.08 L46.56,45.07 L46.67,44.00 L46.56,42.93 L46.25,41.92 L45.76,41.02 L45.10,40.23 L44.32,39.58 L43.41,39.09 L42.41,38.78 L41.33,38.67 L40.26,38.78 L39.26,39.09 L38.35,39.58 L37.56,40.23 L36.91,41.02 L36.42,41.92 L36.11,42.93 L36.00,44.00 L36.11,45.07 L36.42,46.08 L36.91,46.98 L37.56,47.77 L38.35,48.42 L39.26,48.91 L40.26,49.22 L41.33,49.33 Z" fill="#ffffff" stroke="#ffffff" stroke-width="1" stroke-linejoin="round"/><path d="M60.00,40.00 L59.19,40.08 L58.44,40.31 L57.76,40.68 L57.17,41.17 L56.68,41.76 L56.31,42.44 L56.08,43.19 L56.00,44.00 L56.08,44.81 L56.31,45.56 L56.68,46.24 L57.17,46.83 L57.76,47.32 L58.44,47.69 L59.19,47.92 L60.00,48.00 L89.33,48.00 L90.14,47.92 L90.89,47.69 L91.57,47.32 L92.16,46.83 L92.65,46.24 L93.02,45.56 L93.25,44.81 L93.33,44.00 L93.25,43.19 L93.02,42.44 L92.65,41.76 L92.16,41.17 L91.57,40.68 L90.89,40.31 L90.14,40.08 L89.33,40.00 L60.00,40.00 Z" fill="#ffffff" stroke="#ffffff" stroke-width="1" stroke-linejoin="round"/><path d="M60.00,60.00 L59.19,60.08 L58.44,60.31 L57.76,60.68 L57.17,61.17 L56.68,61.76 L56.31,62.44 L56.08,63.19 L56.00,64.00 L56.08,64.81 L56.31,65.56 L56.68,66.24 L57.17,66.83 L57.76,67.32 L58.44,67.69 L59.19,67.92 L60.00,68.00 L89.33,68.00 L90.14,67.92 L90.89,67.69 L91.57,67.32 L92.16,66.83 L92.65,66.24 L93.02,65.56 L93.25,64.81 L93.33,64.00 L93.25,63.19 L93.02,62.44 L92.65,61.76 L92.16,61.17 L91.57,60.68 L90.89,60.31 L90.14,60.08 L89.33,60.00 L60.00,60.00 Z" fill="#ffffff" stroke="#ffffff" stroke-width="1" stroke-linejoin="round"/><path d="M56.00,84.00 L56.08,84.81 L56.31,85.56 L56.68,86.24 L57.17,86.83 L57.76,87.32 L58.44,87.69 L59.19,87.92 L60.00,88.00 L89.33,88.00 L90.14,87.92 L90.89,87.69 L91.57,87.32 L92.16,86.83 L92.65,86.24 L93.02,85.56 L93.25,84.81 L93.33,84.00 L93.25,83.19 L93.02,82.44 L92.65,81.76 L92.16,81.17 L91.57,80.68 L90.89,80.31 L90.14,80.08 L89.33,80.00 L60.00,80.00 L59.19,80.08 L58.44,80.31 L57.76,80.68 L57.17,81.17 L56.68,81.76 L56.31,82.44 L56.08,83.19 L56.00,84.00 Z" fill="#ffffff" stroke="#ffffff" stroke-width="1" stroke-linejoin="round"/><path d="M46.67,64.00 L46.56,62.93 L46.25,61.92 L45.76,61.02 L45.10,60.23 L44.32,59.58 L43.41,59.09 L42.41,58.78 L41.33,58.67 L40.26,58.78 L39.26,59.09 L38.35,59.58 L37.56,60.23 L36.91,61.02 L36.42,61.92 L36.11,62.93 L36.00,64.00 L36.11,65.07 L36.42,66.08 L36.91,66.98 L37.56,67.77 L38.35,68.42 L39.26,68.91 L40.26,69.22 L41.33,69.33 L42.41,69.22 L43.41,68.91 L44.32,68.42 L45.10,67.77 L45.76,66.98 L46.25,66.08 L46.56,65.07 L46.67,64.00 Z" fill="#ffffff" stroke="#ffffff" stroke-width="1" stroke-linejoin="round"/><path d="M41.33,89.33 L42.41,89.22 L43.41,88.91 L44.32,88.42 L45.10,87.77 L45.76,86.98 L46.25,86.08 L46.56,85.07 L46.67,84.00 L46.56,82.93 L46.25,81.92 L45.76,81.02 L45.10,80.23 L44.32,79.58 L43.41,79.09 L42.41,78.78 L41.33,78.67 L40.26,78.78 L39.26,79.09 L38.35,79.58 L37.56,80.23 L36.91,81.02 L36.42,81.92 L36.11,82.93 L36.00,84.00 L36.11,85.07 L36.42,86.08 L36.91,86.98 L37.56,87.77 L38.35,88.42 L39.26,88.91 L40.26,89.22 L41.33,89.33 Z" fill="#ffffff" stroke="#ffffff" stroke-width="1" stroke-linejoin="round"/></svg>