<svg xmlns="http://www.w3.org/2000/svg" viewBox="16.27 34.55 223.46 186.84"><path d="M73.15,57.12 L73.15,73.10 L38.84,73.10 L36.74,73.21 L34.70,73.52 L32.72,74.03 L30.83,74.72 L29.04,75.59 L27.34,76.62 L25.76,77.80 L24.30,79.13 L22.97,80.59 L21.78,82.17 L20.75,83.87 L19.89,85.67 L19.20,87.56 L18.69,89.53 L18.38,91.57 L18.27,93.68 L18.27,128.00 L68.61,128.00 L68.61,116.57 L68.75,115.19 L69.15,113.90 L69.78,112.74 L70.62,111.72 L71.63,110.89 L72.80,110.25 L74.09,109.85 L75.47,109.71 L76.85,109.85 L78.14,110.25 L79.30,110.89 L80.32,111.72 L81.15,112.74 L81.79,113.90 L82.19,115.19 L82.33,116.57 L82.33,128.00 L173.75,128.00 L173.75,116.57 L173.89,115.19 L174.29,113.90 L174.93,112.74 L175.76,111.72 L176.78,110.89 L177.94,110.25 L179.23,109.85 L180.61,109.71 L181.99,109.85 L183.28,110.25 L184.45,110.89 L185.46,111.72 L186.30,112.74 L186.93,113.90 L187.33,115.19 L187.47,116.57 L187.47,128.00 L237.73,128.00 L237.73,93.68 L237.62,91.57 L237.31,89.53 L236.81,87.56 L236.11,85.67 L235.25,83.87 L234.22,82.17 L233.03,80.59 L231.71,79.13 L230.24,77.80 L228.66,76.62 L226.96,75.59 L225.17,74.72 L223.28,74.03 L221.31,73.52 L219.26,73.21 L217.16,73.10 L182.87,73.10 L182.87,57.12 L182.77,55.02 L182.46,52.97 L181.95,51.00 L181.26,49.11 L180.39,47.31 L179.36,45.62 L178.18,44.03 L176.85,42.57 L175.39,41.25 L173.80,40.06 L172.11,39.03 L170.31,38.17 L168.42,37.47 L166.45,36.97 L164.41,36.65 L162.30,36.55 L93.72,36.55 L91.62,36.65 L89.57,36.97 L87.60,37.47 L85.71,38.17 L83.91,39.03 L82.22,40.06 L80.63,41.25 L79.17,42.57 L77.84,44.03 L76.66,45.62 L75.63,47.31 L74.76,49.11 L74.07,51.00 L73.57,52.97 L73.25,55.02 L73.15,57.12 Z" fill="#0078d4" stroke="#1e1e1e" stroke-width="1" stroke-linejoin="round"/><path d="M93.72,50.26 L162.30,50.26 L163.68,50.40 L164.97,50.80 L166.14,51.43 L167.15,52.27 L167.99,53.29 L168.62,54.45 L169.02,55.74 L169.16,57.12 L169.16,73.10 L86.86,73.10 L86.86,57.12 L87.00,55.74 L87.40,54.45 L88.03,53.29 L88.87,52.27 L89.89,51.43 L91.05,50.80 L92.34,50.40 L93.72,50.26 Z" fill="#ffffff" stroke="#1e1e1e" stroke-width="1" stroke-linejoin="round"/><path d="M237.73,141.71 L187.47,141.71 L187.47,153.14 L187.33,154.52 L186.93,155.81 L186.30,156.98 L185.46,157.99 L184.45,158.83 L183.28,159.46 L181.99,159.86 L180.61,160.00 L179.23,159.86 L177.94,159.46 L176.78,158.83 L175.76,157.99 L174.93,156.98 L174.29,155.81 L173.89,154.52 L173.75,153.14 L173.75,141.71 L82.33,141.71 L82.33,153.14 L82.19,154.52 L81.79,155.81 L81.15,156.98 L80.32,157.99 L79.30,158.83 L78.14,159.46 L76.85,159.86 L75.47,160.00 L74.09,159.86 L72.80,159.46 L71.63,158.83 L70.62,157.99 L69.78,156.98 L69.15,155.81 L68.75,154.52 L68.61,153.14 L68.61,141.71 L18.27,141.71 L18.27,198.82 L18.38,200.92 L18.69,202.96 L19.20,204.94 L19.89,206.83 L20.75,208.62 L21.78,210.32 L22.97,211.90 L24.30,213.36 L25.76,214.69 L27.34,215.88 L29.04,216.91 L30.83,217.77 L32.72,218.46 L34.70,218.97 L36.74,219.28 L38.84,219.39 L217.16,219.39 L219.26,219.28 L221.31,218.97 L223.28,218.46 L225.17,217.77 L226.96,216.91 L228.66,215.88 L230.24,214.69 L231.71,213.36 L233.03,211.90 L234.22,210.32 L235.25,208.62 L236.11,206.83 L236.81,204.94 L237.31,202.96 L237.62,200.92 L237.73,198.82 L237.73,141.71 Z" fill="#0078d4" stroke="#1e1e1e" stroke-width="1" stroke-linejoin="round"/></svg>