<svg xmlns="http://www.w3.org/2000/svg" viewBox="30.00 30.00 196.00 196.00"><path d="M32.00,65.33 L32.17,61.93 L32.68,58.62 L33.50,55.42 L34.62,52.36 L36.02,49.44 L37.69,46.70 L39.61,44.13 L41.76,41.76 L44.13,39.61 L46.70,37.69 L49.44,36.02 L52.36,34.62 L55.42,33.50 L58.62,32.68 L61.93,32.17 L65.33,32.00 L190.67,32.00 L194.07,32.17 L197.38,32.68 L200.58,33.50 L203.64,34.62 L206.56,36.02 L209.30,37.69 L211.87,39.61 L214.24,41.76 L216.39,44.13 L218.31,46.70 L219.98,49.44 L221.38,52.36 L222.50,55.42 L223.32,58.62 L223.83,61.93 L224.00,65.33 L224.00,190.67 L223.83,194.07 L223.32,197.38 L222.50,200.58 L221.38,203.64 L219.98,206.56 L218.31,209.30 L216.39,211.87 L214.24,214.24 L211.87,216.39 L209.30,218.31 L206.56,219.98 L203.64,221.38 L200.58,222.50 L197.38,223.32 L194.07,223.83 L190.67,224.00 L65.33,224.00 L61.93,223.83 L58.62,223.32 L55.42,222.50 L52.36,221.38 L49.44,219.98 L46.70,218.31 L44.13,216.39 L41.76,214.24 L39.61,211.87 L37.69,209.30 L36.02,206.56 L34.62,203.64 L33.50,200.58 L32.68,197.38 L32.17,194.07 L32.00,190.67 L32.00,65.33 Z" fill="#0078d4" stroke="#1e1e1e" stroke-width="1" stroke-linejoin="round"/><path d="M45.33,190.67 L45.44,192.71 L45.74,194.70 L46.23,196.61 L46.91,198.45 L47.75,200.20 L48.75,201.85 L49.90,203.39 L51.19,204.81 L52.61,206.10 L54.15,207.25 L55.80,208.25 L57.55,209.09 L59.39,209.77 L61.30,210.26 L63.29,210.56 L65.33,210.67 L190.67,210.67 L192.71,210.56 L194.70,210.26 L196.61,209.77 L198.45,209.09 L200.20,208.25 L201.85,207.25 L203.39,206.10 L204.81,204.81 L206.10,203.39 L207.25,201.85 L208.25,200.20 L209.09,198.45 L209.77,196.61 L210.26,194.70 L210.56,192.71 L210.67,190.67 L210.67,88.00 L45.33,88.00 L45.33,190.67 Z" fill="#ffffff" stroke="#1e1e1e" stroke-width="1" stroke-linejoin="round"/></svg>