<svg xmlns="http://www.w3.org/2000/svg" viewBox="16.00 16.00 100.00 100.00"><path d="M36.00,18.00 L34.16,18.09 L32.37,18.36 L30.64,18.81 L28.99,19.41 L27.42,20.17 L25.93,21.07 L24.55,22.11 L23.27,23.27 L22.11,24.55 L21.07,25.93 L20.17,27.42 L19.41,28.99 L18.81,30.64 L18.36,32.37 L18.09,34.16 L18.00,36.00 L18.00,83.99 L18.09,85.83 L18.36,87.62 L18.81,89.34 L19.41,91.00 L20.17,92.57 L21.07,94.05 L22.11,95.44 L23.27,96.72 L24.55,97.88 L25.93,98.91 L27.42,99.82 L28.99,100.57 L30.64,101.18 L32.37,101.62 L34.16,101.90 L36.00,101.99 L55.32,101.99 L56.58,96.92 L56.84,95.99 L36.00,95.99 L34.77,95.93 L33.58,95.75 L32.43,95.45 L31.33,95.05 L30.28,94.54 L29.29,93.94 L28.36,93.25 L27.51,92.48 L26.74,91.62 L26.05,90.70 L25.45,89.71 L24.94,88.66 L24.54,87.56 L24.24,86.41 L24.06,85.22 L24.00,83.99 L24.00,42.00 L95.99,42.00 L95.99,55.38 L97.45,54.84 L98.94,54.43 L100.46,54.15 L101.99,54.01 L101.99,36.00 L101.90,34.16 L101.62,32.37 L101.18,30.64 L100.57,28.99 L99.82,27.42 L98.91,25.93 L97.88,24.55 L96.72,23.27 L95.44,22.11 L94.05,21.07 L92.57,20.17 L91.00,19.41 L89.34,18.81 L87.62,18.36 L85.83,18.09 L83.99,18.00 L36.00,18.00 Z" fill="#0078d4" stroke="#1e1e1e" stroke-width="1" stroke-linejoin="round"/><path d="M65.87,92.25 L94.84,63.28 L95.70,62.51 L96.60,61.84 L97.56,61.28 L98.56,60.81 L99.58,60.46 L100.64,60.20 L101.70,60.04 L102.78,59.99 L103.85,60.04 L104.92,60.20 L105.97,60.46 L107.00,60.81 L108.00,61.28 L108.95,61.84 L109.86,62.51 L110.71,63.28 L111.48,64.13 L112.15,65.04 L112.71,66.00 L113.18,66.99 L113.54,68.02 L113.79,69.07 L113.95,70.14 L114.00,71.21 L113.95,72.29 L113.79,73.36 L113.54,74.41 L113.18,75.44 L112.71,76.43 L112.15,77.39 L111.48,78.29 L110.71,79.15 L81.74,108.12 L80.39,109.29 L78.91,110.27 L77.31,111.04 L75.61,111.59 L66.63,113.83 L65.90,113.97 L65.19,114.00 L64.50,113.93 L63.83,113.78 L63.20,113.55 L62.61,113.25 L62.06,112.87 L61.56,112.43 L61.12,111.93 L60.75,111.39 L60.44,110.79 L60.21,110.16 L60.06,109.49 L59.99,108.80 L60.03,108.09 L60.16,107.36 L62.40,98.38 L62.95,96.68 L63.72,95.08 L64.70,93.60 L65.87,92.25 Z" fill="#8dc8e8" stroke="#1e1e1e" stroke-width="1" stroke-linejoin="round"/></svg>