<svg xmlns="http://www.w3.org/2000/svg" viewBox="14.00 14.00 100.00 100.00"><path d="M16.00,32.67 L16.09,30.96 L16.34,29.31 L16.75,27.71 L17.31,26.18 L18.01,24.72 L18.85,23.35 L19.81,22.07 L20.88,20.88 L22.07,19.81 L23.35,18.85 L24.72,18.01 L26.18,17.31 L27.71,16.75 L29.31,16.34 L30.96,16.09 L32.67,16.00 L95.33,16.00 L97.04,16.09 L98.69,16.34 L100.29,16.75 L101.82,17.31 L103.28,18.01 L104.65,18.85 L105.93,19.81 L107.12,20.88 L108.19,22.07 L109.15,23.35 L109.99,24.72 L110.69,26.18 L111.25,27.71 L111.66,29.31 L111.91,30.96 L112.00,32.67 L112.00,95.33 L111.91,97.04 L111.66,98.69 L111.25,100.29 L110.69,101.82 L109.99,103.28 L109.15,104.65 L108.19,105.93 L107.12,107.12 L105.93,108.19 L104.65,109.15 L103.28,109.99 L101.82,110.69 L100.29,111.25 L98.69,111.66 L97.04,111.91 L95.33,112.00 L32.67,112.00 L30.96,111.91 L29.31,111.66 L27.71,111.25 L26.18,110.69 L24.72,109.99 L23.35,109.15 L22.07,108.19 L20.88,107.12 L19.81,105.93 L18.85,104.65 L18.01,103.28 L17.31,101.82 L16.75,100.29 L16.34,98.69 L16.09,97.04 L16.00,95.33 L16.00,32.67 Z" fill="#0078d4" stroke="#1e1e1e" stroke-width="1" stroke-linejoin="round"/><path d="M22.67,95.33 L22.72,96.36 L22.87,97.35 L23.12,98.31 L23.45,99.23 L23.87,100.10 L24.37,100.92 L24.95,101.69 L25.60,102.40 L26.31,103.05 L27.08,103.63 L27.90,104.13 L28.77,104.55 L29.69,104.88 L30.65,105.13 L31.64,105.28 L32.67,105.33 L95.33,105.33 L96.36,105.28 L97.35,105.13 L98.31,104.88 L99.23,104.55 L100.10,104.13 L100.92,103.63 L101.69,103.05 L102.40,102.40 L103.05,101.69 L103.63,100.92 L104.13,100.10 L104.55,99.23 L104.88,98.31 L105.13,97.35 L105.28,96.36 L105.33,95.33 L105.33,44.00 L22.67,44.00 L22.67,95.33 Z" fill="#ffffff" stroke="#1e1e1e" stroke-width="1" stroke-linejoin="round"/></svg>