<svg xmlns="http://www.w3.org/2000/svg" viewBox="19.55 19.35 217.12 219.37"><path d="M178.67,21.35 L172.94,21.64 L167.38,22.49 L162.01,23.87 L156.87,25.75 L151.97,28.11 L147.36,30.91 L143.05,34.14 L139.07,37.75 L135.45,41.73 L132.23,46.04 L129.43,50.66 L127.07,55.55 L125.18,60.70 L123.80,66.06 L122.96,71.62 L122.67,77.35 L122.84,81.73 L123.34,86.02 L124.15,90.22 L125.28,94.29 L28.56,194.35 L26.77,196.41 L25.25,198.60 L23.99,200.90 L22.99,203.29 L22.25,205.75 L21.77,208.25 L21.55,210.78 L21.59,213.32 L21.87,215.84 L22.42,218.32 L23.21,220.74 L24.26,223.09 L25.55,225.33 L27.09,227.45 L28.88,229.43 L30.92,231.25 L32.86,232.65 L34.88,233.85 L36.99,234.83 L39.15,235.61 L41.37,236.19 L43.61,236.55 L45.87,236.71 L48.13,236.67 L50.38,236.43 L52.60,235.98 L54.77,235.33 L56.89,234.48 L58.94,233.43 L60.90,232.18 L62.77,230.74 L64.51,229.10 L160.11,130.20 L164.55,131.55 L169.13,132.54 L173.85,133.14 L178.67,133.35 L184.39,133.06 L189.95,132.21 L195.32,130.83 L200.46,128.95 L205.36,126.59 L209.98,123.78 L214.29,120.56 L218.26,116.95 L221.88,112.97 L225.10,108.66 L227.91,104.04 L230.27,99.15 L232.15,94.00 L233.53,88.63 L234.38,83.07 L234.67,77.35 L234.53,73.36 L234.11,69.44 L233.43,65.60 L232.50,61.86 L231.66,59.95 L230.39,58.34 L228.74,57.10 L226.81,56.32 L224.74,56.07 L222.70,56.35 L220.81,57.14 L219.15,58.41 L185.19,92.37 L163.21,70.39 L196.92,36.68 L198.20,35.01 L198.99,33.10 L199.27,31.05 L199.00,28.96 L198.19,27.02 L196.94,25.38 L195.30,24.11 L193.36,23.30 L189.80,22.46 L186.16,21.85 L182.44,21.47 L178.67,21.35 Z" fill="#0078d4" stroke="#1e1e1e" stroke-width="1" stroke-linejoin="round"/></svg>