<svg xmlns="http://www.w3.org/2000/svg" viewBox="15.25 0.82 71.14 100.00"><path d="M57.77,98.20 L62.34,93.29 L62.34,80.19 L39.53,80.19 L39.53,93.29 L44.10,98.20 L44.59,98.61 L45.18,98.82 L56.47,98.82 L57.18,98.65 L57.77,98.20 Z" fill="#cecece" stroke="#1e1e1e" stroke-width="1" stroke-linejoin="round"/><path d="M50.82,2.82 L45.71,3.17 L40.71,4.29 L35.94,6.17 L31.52,8.76 L27.55,12.00 L24.12,15.81 L21.32,20.10 L19.21,24.77 L17.84,29.71 L17.25,34.80 L17.45,39.92 L17.87,42.46 L18.53,44.84 L19.41,47.11 L20.46,49.28 L23.00,53.45 L25.89,57.59 L28.89,61.89 L31.74,66.59 L33.04,69.16 L34.21,71.90 L35.21,74.85 L36.03,78.04 L36.55,79.14 L37.50,79.90 L38.68,80.19 L62.96,80.19 L64.15,79.90 L65.09,79.14 L65.62,78.04 L66.43,74.85 L67.44,71.90 L68.60,69.16 L69.89,66.59 L72.73,61.89 L75.71,57.59 L78.60,53.45 L81.14,49.28 L82.20,47.11 L83.08,44.84 L83.76,42.46 L84.20,39.92 L84.40,34.80 L83.80,29.71 L82.44,24.77 L80.33,20.10 L77.53,15.81 L74.10,12.00 L70.13,8.76 L65.71,6.17 L60.94,4.29 L55.94,3.17 L50.82,2.82 L50.82,2.82 Z" fill="#a06eea" stroke="#1e1e1e" stroke-width="1" stroke-linejoin="round"/><path d="M64.72,21.40 L62.30,21.87 L60.14,23.06 L58.45,24.86 L57.40,27.09 L57.09,29.53 L57.09,33.88 L45.18,33.88 L45.18,29.53 L44.83,27.03 L43.72,24.77 L41.95,22.96 L39.71,21.80 L37.21,21.40 L34.80,21.87 L32.64,23.06 L30.95,24.86 L29.90,27.09 L29.59,29.53 L29.90,31.99 L30.95,34.22 L32.63,36.03 L34.79,37.24 L37.21,37.72 L40.83,37.72 L40.83,71.60 L41.22,72.80 L42.23,73.54 L43.49,73.54 L44.51,72.80 L44.89,71.60 L44.89,37.72 L57.09,37.72 L57.09,71.60 L57.48,72.80 L58.50,73.54 L59.75,73.54 L60.77,72.80 L61.16,71.60 L61.16,37.72 L64.72,37.72 L67.15,37.25 L69.31,36.05 L71.00,34.24 L72.04,31.99 L72.34,29.53 L72.03,27.09 L70.98,24.86 L69.29,23.06 L67.13,21.87 L64.72,21.40 L64.72,21.40 Z" fill="#e5e3f0" stroke="#e5e3f0" stroke-width="1" stroke-linejoin="round" opacity="0.87"/><path d="M40.83,33.88 L36.99,33.88 L35.45,33.45 L34.19,32.48 L33.38,31.11 L33.15,29.53 L33.38,27.96 L34.19,26.59 L35.45,25.61 L36.99,25.19 L38.52,25.61 L39.79,26.59 L40.59,27.96 L40.83,29.53 L40.83,33.88 Z" fill="#a06eea" stroke="#a06eea" stroke-width="1" stroke-linejoin="round" opacity="0.87"/><path d="M65.00,33.88 L61.16,33.88 L61.16,29.31 L61.38,27.48 L62.42,25.97 L64.05,25.12 L65.89,25.12 L67.52,25.97 L68.56,27.48 L68.78,29.31 L68.64,30.95 L67.86,32.40 L66.58,33.43 L65.00,33.88 L65.00,33.88 Z" fill="#a06eea" stroke="#a06eea" stroke-width="1" stroke-linejoin="round" opacity="0.87"/><path d="M39.30,89.22 L62.34,84.76 L62.34,82.22 L39.30,86.74 L39.30,89.22 Z" fill="#999999" stroke="#999999" stroke-width="1" stroke-linejoin="round"/><path d="M62.34,90.97 L62.34,88.49 L39.30,93.06 L39.30,93.29 L41.05,95.21 L62.34,90.97 Z" fill="#999999" stroke="#999999" stroke-width="1" stroke-linejoin="round"/></svg>