<svg xmlns="http://www.w3.org/2000/svg" viewBox="14.29 0.67 67.41 94.67"><path d="M54.56,92.75 L58.88,88.11 L58.88,75.73 L37.33,75.73 L37.33,88.11 L41.65,92.75 L42.11,93.13 L42.67,93.33 L53.33,93.33 L54.01,93.17 L54.56,92.75 Z" fill="#cecece" stroke="#1e1e1e" stroke-width="1" stroke-linejoin="round"/><path d="M48.00,2.67 L43.17,2.99 L38.45,4.05 L33.94,5.83 L29.77,8.27 L26.02,11.33 L22.78,14.93 L20.13,18.98 L18.14,23.40 L16.85,28.06 L16.29,32.87 L16.48,37.71 L16.88,40.10 L17.50,42.35 L18.33,44.49 L19.33,46.54 L21.72,50.48 L24.45,54.39 L27.28,58.45 L29.98,62.89 L31.20,65.31 L32.31,67.91 L33.26,70.70 L34.03,73.71 L34.52,74.74 L35.42,75.46 L36.53,75.73 L59.47,75.73 L60.58,75.46 L61.48,74.74 L61.97,73.71 L62.74,70.70 L63.69,67.91 L64.79,65.31 L66.00,62.89 L68.69,58.45 L71.51,54.39 L74.23,50.48 L76.63,46.54 L77.63,44.49 L78.47,42.35 L79.11,40.10 L79.52,37.71 L79.71,32.87 L79.15,28.06 L77.86,23.40 L75.87,18.98 L73.22,14.93 L69.98,11.33 L66.23,8.27 L62.06,5.83 L57.55,4.05 L52.83,2.99 L48.00,2.67 L48.00,2.67 Z" fill="#a06eea" stroke="#1e1e1e" stroke-width="1" stroke-linejoin="round"/><path d="M61.12,20.21 L58.84,20.66 L56.80,21.78 L55.21,23.48 L54.22,25.59 L53.92,27.89 L53.92,32.00 L42.67,32.00 L42.67,27.89 L42.34,25.53 L41.29,23.39 L39.62,21.69 L37.50,20.59 L35.15,20.21 L32.86,20.66 L30.83,21.78 L29.23,23.48 L28.24,25.59 L27.95,27.89 L28.24,30.21 L29.23,32.32 L30.82,34.03 L32.86,35.17 L35.15,35.63 L38.56,35.63 L38.56,67.63 L38.93,68.76 L39.89,69.45 L41.07,69.45 L42.03,68.76 L42.40,67.63 L42.40,35.63 L53.92,35.63 L53.92,67.63 L54.29,68.76 L55.25,69.45 L56.43,69.45 L57.39,68.76 L57.76,67.63 L57.76,35.63 L61.12,35.63 L63.41,35.18 L65.46,34.05 L67.05,32.33 L68.04,30.21 L68.32,27.89 L68.02,25.59 L67.03,23.48 L65.44,21.78 L63.40,20.66 L61.12,20.21 L61.12,20.21 Z" fill="#e5e3f0" stroke="#e5e3f0" stroke-width="1" stroke-linejoin="round" opacity="0.87"/><path d="M38.56,32.00 L34.93,32.00 L33.48,31.60 L32.29,30.68 L31.53,29.38 L31.31,27.89 L31.53,26.41 L32.29,25.11 L33.48,24.19 L34.93,23.79 L36.38,24.19 L37.58,25.11 L38.34,26.41 L38.56,27.89 L38.56,32.00 Z" fill="#a06eea" stroke="#a06eea" stroke-width="1" stroke-linejoin="round" opacity="0.87"/><path d="M61.39,32.00 L57.76,32.00 L57.76,27.68 L57.97,25.96 L58.95,24.53 L60.49,23.72 L62.23,23.72 L63.77,24.53 L64.75,25.96 L64.96,27.68 L64.82,29.23 L64.09,30.60 L62.88,31.58 L61.39,32.00 L61.39,32.00 Z" fill="#a06eea" stroke="#a06eea" stroke-width="1" stroke-linejoin="round" opacity="0.87"/><path d="M37.12,84.27 L58.88,80.05 L58.88,77.65 L37.12,81.92 L37.12,84.27 Z" fill="#999999" stroke="#999999" stroke-width="1" stroke-linejoin="round"/><path d="M58.88,85.92 L58.88,83.57 L37.12,87.89 L37.12,88.11 L38.77,89.92 L58.88,85.92 Z" fill="#999999" stroke="#999999" stroke-width="1" stroke-linejoin="round"/></svg>