<svg xmlns="http://www.w3.org/2000/svg" viewBox="-2.00 0.18 100.00 96.13"><path d="M96.00,88.99 L0.00,88.99 L17.77,72.20 L18.76,71.57 L19.90,71.34 L78.29,71.34 L79.57,71.63 L80.63,72.41 L96.00,88.99 Z" fill="#39cbb9" stroke="#1e1e1e" stroke-width="1" stroke-linejoin="round"/><path d="M0.00,88.99 L96.00,88.99 L96.00,91.18 L95.76,92.37 L95.08,93.39 L94.07,94.06 L92.87,94.30 L3.13,94.30 L1.93,94.07 L0.92,93.39 L0.24,92.37 L0.00,91.18 L0.00,88.99 Z" fill="#3cd4c2" stroke="#3cd4c2" stroke-width="1" stroke-linejoin="round"/><path d="M92.96,45.96 L92.54,42.42 L91.52,39.03 L89.91,35.87 L87.77,33.02 L85.15,30.60 L82.17,28.69 L78.90,27.32 L75.41,26.55 L75.19,24.06 L74.72,21.62 L74.02,19.24 L73.10,16.96 L71.96,14.77 L70.61,12.69 L69.06,10.76 L67.31,8.97 L65.39,7.35 L63.34,5.95 L61.18,4.75 L58.91,3.78 L56.56,3.03 L54.14,2.50 L51.67,2.22 L49.17,2.18 L45.15,2.42 L41.23,3.27 L37.49,4.71 L33.99,6.72 L30.85,9.24 L28.14,12.20 L25.91,15.53 L24.21,19.19 L22.08,19.53 L20.00,20.06 L17.98,20.77 L16.03,21.66 L14.18,22.71 L12.42,23.92 L10.76,25.30 L9.23,26.82 L7.84,28.48 L6.61,30.24 L5.55,32.10 L4.66,34.04 L3.94,36.05 L3.40,38.12 L3.04,40.24 L2.88,42.39 L3.07,44.81 L3.50,47.19 L4.16,49.52 L5.05,51.78 L6.16,53.93 L7.47,55.97 L8.98,57.86 L10.67,59.60 L12.52,61.17 L14.51,62.54 L16.63,63.70 L18.86,64.66 L21.18,65.39 L23.55,65.89 L25.95,66.15 L28.38,66.18 L72.69,66.18 L74.69,66.06 L76.64,65.75 L78.55,65.26 L80.40,64.58 L82.18,63.73 L83.87,62.72 L85.46,61.54 L86.94,60.20 L88.29,58.72 L89.47,57.13 L90.49,55.44 L91.35,53.67 L92.02,51.82 L92.52,49.91 L92.84,47.96 L92.96,45.96 Z" fill="#3990e4" stroke="#1e1e1e" stroke-width="1" stroke-linejoin="round"/><path d="M33.92,36.63 L48.00,22.82 L48.52,22.46 L49.15,22.33 L49.77,22.46 L50.29,22.82 L64.00,36.63 L64.24,37.00 L64.20,37.45 L63.90,37.78 L63.47,37.86 L54.83,37.86 L54.31,38.09 L54.08,38.60 L53.97,65.65 L53.80,66.07 L53.38,66.24 L44.10,66.24 L43.69,66.07 L43.51,65.65 L43.63,38.60 L43.43,38.09 L42.93,37.86 L34.40,37.86 L33.99,37.75 L33.72,37.42 L33.69,36.99 L33.92,36.63 L33.92,36.63 Z" fill="#f2f2f2" stroke="#1e1e1e" stroke-width="1" stroke-linejoin="round"/></svg>