<svg xmlns="http://www.w3.org/2000/svg" viewBox="-2.00 -2.00 100.00 100.00"><path d="M54.29,48.00 L54.29,17.71 L0.00,72.00 L0.00,21.33 L0.91,17.37 L2.42,13.60 L4.50,10.11 L7.09,6.99 L10.45,4.17 L14.28,2.02 L18.43,0.61 L22.77,0.00 L72.00,0.00 L96.00,24.00 L72.00,48.00 L54.29,48.00 Z" fill="#db2524" stroke="#1e1e1e" stroke-width="1" stroke-linejoin="round"/><path d="M41.71,48.00 L41.71,78.29 L96.00,24.00 L96.00,74.67 L95.10,78.65 L93.59,82.45 L91.51,85.97 L88.91,89.12 L85.53,91.89 L81.70,94.01 L77.56,95.39 L73.23,96.00 L24.00,96.00 L0.00,72.00 L24.00,48.00 L41.71,48.00 Z" fill="#9b0804" stroke="#1e1e1e" stroke-width="1" stroke-linejoin="round"/><path d="M41.71,78.29 L96.00,24.00 L96.00,74.67 L95.10,78.65 L93.59,82.45 L91.51,85.97 L88.91,89.12 L85.53,91.89 L81.70,94.01 L77.56,95.39 L73.23,96.00 L41.71,78.29 Z" fill="#a30402" stroke="#1e1e1e" stroke-width="1" stroke-linejoin="round"/></svg>