<svg xmlns="http://www.w3.org/2000/svg" viewBox="4.40 -2.00 87.20 100.00"><path d="M89.60,40.49 L89.11,36.77 L87.89,33.22 L85.98,29.99 L83.47,27.20 L80.44,24.98 L77.04,23.40 L73.39,22.54 L72.86,18.49 L71.65,14.60 L69.79,10.98 L67.32,7.73 L64.33,4.95 L60.91,2.74 L57.16,1.14 L53.19,0.22 L49.11,0.00 L44.87,0.30 L40.75,1.34 L36.87,3.08 L33.36,5.48 L30.32,8.45 L27.86,11.91 L26.03,15.75 L22.16,16.57 L18.50,18.06 L15.16,20.17 L12.24,22.84 L9.84,25.98 L8.03,29.49 L6.87,33.27 L6.40,37.20 L6.89,41.11 L8.05,44.87 L9.85,48.37 L12.23,51.51 L15.11,54.19 L18.42,56.33 L22.04,57.86 L25.88,58.74 L29.81,58.94 L31.87,58.86 L69.79,58.86 L70.29,58.81 L70.77,58.70 L74.36,58.35 L77.83,57.31 L81.03,55.64 L83.85,53.39 L86.20,50.64 L87.98,47.49 L89.12,44.07 L89.60,40.49 Z" fill="#2f8ce2" stroke="#1e1e1e" stroke-width="1" stroke-linejoin="round"/><path d="M74.77,96.00 L9.60,96.00 L8.86,95.85 L8.22,95.46 L7.69,94.86 L7.30,94.12 L7.06,93.31 L6.99,92.47 L7.11,91.65 L7.43,90.93 L29.87,54.30 L30.25,53.59 L30.36,52.80 L30.36,35.10 L29.97,34.21 L29.08,33.82 L27.86,33.82 L26.58,33.47 L25.64,32.53 L25.30,31.25 L25.30,31.25 L25.30,30.10 L25.64,28.82 L26.58,27.88 L27.86,27.53 L56.45,27.53 L57.74,27.88 L58.68,28.82 L59.02,30.10 L59.02,30.10 L59.02,31.25 L58.68,32.53 L57.74,33.47 L56.45,33.82 L55.24,33.82 L54.33,34.20 L53.95,35.10 L53.95,52.88 L54.07,53.66 L54.43,54.37 L76.86,90.93 L77.19,91.63 L77.31,92.44 L77.24,93.28 L77.01,94.10 L76.63,94.84 L76.11,95.45 L75.49,95.85 L74.77,96.00 Z" fill="#76e8ff" stroke="#1e1e1e" stroke-width="1" stroke-linejoin="round"/><path d="M14.11,89.49 L33.19,57.71 L34.25,55.85 L34.70,53.77 L34.70,46.49 L34.99,45.38 L35.79,44.57 L36.90,44.27 L47.80,44.27 L48.90,44.56 L49.70,45.37 L49.99,46.46 L49.99,54.51 L50.20,55.90 L50.83,57.17 L70.36,89.48 L70.61,90.63 L70.08,91.68 L69.00,92.15 L16.00,92.15 L14.88,92.24 L13.96,91.59 L13.65,90.51 L14.11,89.48 L14.11,89.49 Z" fill="#005ba1" stroke="#1e1e1e" stroke-width="1" stroke-linejoin="round"/><path d="M55.37,78.36 L53.79,76.54 L51.70,75.36 L49.33,74.95 L49.15,75.03 L49.00,73.77 L48.61,72.55 L50.22,71.94 L51.61,70.92 L52.67,69.57 L52.77,68.82 L52.31,68.22 L51.56,68.12 L50.96,68.58 L50.03,69.68 L48.80,70.43 L47.39,70.74 L46.31,69.77 L45.06,69.05 L46.00,67.97 L46.36,66.59 L45.95,65.03 L44.81,63.89 L43.25,63.47 L41.49,63.47 L39.94,63.88 L38.80,65.02 L38.38,66.57 L38.74,67.96 L39.69,69.03 L38.30,69.87 L37.16,71.02 L35.74,70.72 L34.50,69.97 L33.58,68.85 L32.98,68.39 L32.22,68.49 L31.76,69.09 L31.86,69.84 L32.95,71.22 L34.38,72.25 L36.03,72.85 L35.68,74.02 L35.55,75.23 L35.55,75.32 L35.43,75.27 L33.06,75.67 L30.97,76.85 L29.40,78.67 L29.28,79.42 L29.73,80.03 L29.98,80.14 L30.26,80.18 L30.75,80.05 L31.10,79.70 L32.24,78.39 L33.74,77.54 L35.45,77.25 L35.57,77.20 L35.57,79.57 L35.68,80.44 L35.91,81.29 L33.99,82.23 L32.45,83.71 L31.42,85.58 L31.45,86.34 L32.00,86.86 L32.16,86.90 L32.33,86.92 L32.90,86.74 L33.26,86.26 L34.04,84.86 L35.22,83.77 L36.68,83.11 L38.14,84.80 L40.07,85.91 L42.27,86.31 L42.46,86.31 L44.78,85.87 L46.80,84.64 L48.26,82.78 L49.72,83.44 L50.90,84.53 L51.68,85.93 L52.04,86.41 L52.61,86.59 L52.78,86.57 L52.94,86.53 L53.51,86.02 L53.55,85.26 L52.49,83.35 L50.89,81.85 L48.91,80.92 L49.08,80.26 L49.18,79.58 L49.18,76.87 L49.32,76.93 L51.03,77.23 L52.53,78.07 L53.66,79.38 L54.02,79.73 L54.51,79.86 L54.78,79.83 L55.04,79.72 L55.48,79.10 L55.37,78.36 Z" fill="#c3f1ff" stroke="#1e1e1e" stroke-width="1" stroke-linejoin="round"/></svg>