<svg xmlns="http://www.w3.org/2000/svg" viewBox="-1.32 1.63 98.66 92.73"><path d="M95.20,51.79 L93.92,55.43 L92.30,58.48 L90.37,61.04 L88.18,63.17 L85.77,64.96 L83.18,66.49 L80.45,67.83 L77.64,69.06 L75.82,69.56 L73.94,69.70 L41.14,69.70 L21.16,69.55 L18.76,69.29 L16.49,68.48 L12.45,66.25 L8.85,63.35 L5.81,59.87 L3.41,55.92 L1.73,51.62 L0.82,47.09 L0.68,45.11 L0.78,42.27 L1.41,38.80 L2.01,36.92 L2.86,34.98 L3.98,33.02 L5.41,31.06 L7.20,29.14 L9.37,27.29 L11.95,25.54 L15.00,23.92 L18.54,22.47 L22.61,21.21 L24.85,16.86 L27.81,12.97 L31.40,9.64 L35.50,6.97 L39.99,5.04 L44.75,3.92 L49.64,3.63 L54.15,3.98 L58.53,5.08 L62.68,6.90 L66.45,9.39 L69.76,12.48 L72.50,16.07 L74.60,20.08 L76.01,24.38 L76.67,28.85 L79.74,29.72 L83.04,31.15 L86.33,33.16 L87.91,34.38 L89.41,35.74 L90.80,37.24 L92.05,38.89 L93.14,40.68 L94.04,42.62 L94.73,44.69 L95.16,46.91 L95.33,49.28 L95.20,51.79 Z" fill="#3cb8f0" stroke="#1e1e1e" stroke-width="1" stroke-linejoin="round"/><path d="M89.41,63.29 L89.00,68.16 L87.78,72.89 L85.78,77.36 L83.06,81.42 L79.70,84.97 L75.80,87.91 L71.45,90.16 L66.79,91.64 L61.95,92.33 L57.06,92.19 L52.27,91.24 L47.70,89.49 L43.49,87.01 L39.75,83.85 L36.60,80.12 L34.11,75.91 L32.37,71.34 L31.41,66.54 L31.28,61.65 L31.96,56.81 L33.45,52.15 L35.69,47.81 L38.63,43.90 L42.18,40.54 L46.25,37.83 L50.71,35.83 L55.45,34.61 L60.32,34.20 L64.87,34.56 L69.31,35.62 L73.53,37.37 L77.42,39.75 L80.89,42.72 L83.85,46.19 L86.24,50.08 L87.98,54.30 L89.05,58.73 L89.41,63.29 Z" fill="#ffffff" stroke="#1e1e1e" stroke-width="1" stroke-linejoin="round"/><path d="M60.32,92.36 L65.19,91.95 L69.93,90.73 L74.39,88.73 L78.46,86.01 L82.01,82.65 L84.95,78.75 L87.20,74.40 L88.68,69.74 L89.37,64.90 L89.23,60.01 L88.28,55.22 L86.53,50.65 L84.05,46.44 L80.89,42.70 L77.16,39.55 L72.95,37.06 L68.38,35.32 L63.58,34.36 L58.69,34.23 L53.85,34.91 L49.19,36.40 L44.85,38.64 L40.94,41.58 L37.58,45.14 L34.86,49.20 L32.87,53.67 L31.65,58.40 L31.24,63.27 L31.60,67.82 L32.66,72.26 L34.41,76.48 L36.79,80.37 L39.76,83.84 L43.23,86.80 L47.12,89.19 L51.33,90.93 L55.77,92.00 L60.32,92.36 Z" fill="#9a72ce" stroke="#1e1e1e" stroke-width="1" stroke-linejoin="round"/><path d="M60.32,88.53 L64.87,88.12 L69.28,86.89 L73.39,84.89 L77.07,82.18 L80.20,78.85 L82.69,75.01 L84.43,70.79 L85.39,66.32 L85.53,61.75 L84.84,57.23 L83.35,52.91 L81.11,48.93 L78.18,45.41 L74.67,42.49 L70.69,40.24 L66.36,38.75 L61.85,38.06 L57.28,38.20 L52.81,39.16 L48.58,40.91 L44.74,43.39 L41.41,46.53 L38.70,50.21 L36.70,54.32 L35.48,58.72 L35.06,63.27 L35.45,67.66 L36.58,71.91 L38.45,75.90 L40.97,79.51 L44.08,82.62 L47.69,85.15 L51.68,87.01 L55.93,88.15 L60.32,88.53 Z" fill="#ffffff" stroke="#1e1e1e" stroke-width="1" stroke-linejoin="round"/><path d="M71.10,58.13 L69.25,58.43 L67.58,59.29 L66.25,60.62 L65.40,62.30 L65.11,64.15 L64.72,67.25 L63.59,70.16 L61.79,72.70 L59.43,74.74 L56.64,76.13 L53.60,76.81 L50.48,76.74 L47.48,75.90 L44.77,74.36 L42.51,72.21 L40.84,69.58 L39.86,66.62 L39.63,63.51 L40.16,60.44 L41.42,57.59 L43.34,55.13 L45.54,53.35 L48.08,52.10 L50.83,51.45 L50.83,54.49 L48.17,55.30 L45.85,56.82 L44.04,58.94 L42.91,61.48 L42.53,64.23 L42.95,66.98 L44.12,69.50 L45.95,71.59 L48.30,73.09 L50.97,73.86 L53.75,73.85 L56.41,73.05 L58.75,71.54 L60.56,69.44 L61.71,66.91 L62.11,64.15 L62.53,61.45 L63.74,58.99 L65.64,57.02 L68.04,55.70 L70.73,55.17 L73.45,55.47 L75.96,56.58 L78.01,58.39 L79.43,60.74 L80.07,63.40 L77.06,63.40 L76.41,61.34 L75.08,59.64 L73.23,58.53 L71.10,58.13 L71.10,58.13 Z" fill="#417be9" stroke="#1e1e1e" stroke-width="1" stroke-linejoin="round"/><path d="M51.16,51.08 L51.28,51.25 L51.33,51.46 L51.33,54.50 L51.21,54.82 L50.91,54.98 L48.29,55.82 L46.03,57.40 L44.33,59.57 L43.34,62.14 L43.15,64.88 L43.77,67.57 L45.15,69.95 L47.16,71.82 L49.64,73.03 L52.36,73.45 L54.59,73.19 L56.68,72.38 L58.72,70.92 L60.29,68.96 L61.28,66.65 L61.62,64.17 L61.98,61.56 L63.04,59.15 L64.72,57.13 L66.90,55.64 L69.40,54.82 L72.02,54.71 L74.58,55.32 L76.87,56.62 L78.72,58.49 L79.98,60.80 L80.56,63.37 L80.45,63.73 L80.11,63.90 L77.06,63.90 L76.73,63.78 L76.57,63.47 L75.93,61.51 L74.61,59.92 L72.81,58.92 L70.76,58.66 L68.76,59.18 L67.09,60.39 L65.98,62.14 L65.60,64.17 L65.20,67.38 L64.02,70.39 L62.15,73.04 L59.70,75.15 L56.80,76.60 L53.65,77.30 L50.41,77.22 L47.29,76.36 L44.47,74.76 L42.13,72.53 L40.40,69.79 L39.38,66.72 L39.14,63.49 L39.69,60.30 L41.00,57.34 L42.99,54.78 L45.27,52.94 L47.91,51.65 L50.77,50.97 L50.98,50.99 L51.16,51.09 L51.16,51.08 Z" fill="#417be9" stroke="#1e1e1e" stroke-width="1" stroke-linejoin="round"/><path d="M63.87,69.66 L62.07,72.41 L59.62,74.61 L56.70,76.11 L53.48,76.82 L50.20,76.67 L47.05,75.69 L44.27,73.94 L42.02,71.54 L40.47,68.64 L39.71,65.44 L39.79,62.15 L40.71,58.99 L42.41,56.17 L44.77,53.88 L47.65,52.28 L50.83,51.46 L50.83,54.50 L48.17,55.30 L45.85,56.83 L44.04,58.95 L42.91,61.48 L42.53,64.24 L42.95,66.99 L44.12,69.51 L45.95,71.60 L48.30,73.09 L50.97,73.86 L53.75,73.85 L56.41,73.06 L58.75,71.55 L60.56,69.44 L61.71,66.91 L62.11,64.16 L62.31,62.24 L62.92,60.40 L63.91,58.74 L65.79,56.88 L68.13,55.66 L70.73,55.16 L73.36,55.45 L75.79,56.48 L77.82,58.18 L79.26,60.40 L80.00,62.93 L80.05,63.43 L77.04,63.43 L76.47,61.50 L75.30,59.87 L73.65,58.72 L71.72,58.18 L69.71,58.31 L67.86,59.09 L66.38,60.44 L65.42,62.20 L65.09,64.18 L64.78,67.00 L63.86,69.68 L63.87,69.66 Z" fill="#417be9" stroke="#1e1e1e" stroke-width="1" stroke-linejoin="round"/><path d="M71.02,73.44 L68.89,73.18 L66.88,72.42 L68.41,69.66 L69.68,70.12 L71.02,70.27 L73.03,69.91 L74.80,68.92 L76.16,67.40 L76.94,65.53 L80.07,65.53 L79.33,68.02 L77.92,70.22 L75.96,71.94 L73.60,73.04 L71.02,73.44 Z" fill="#1453c8" stroke="#1453c8" stroke-width="1" stroke-linejoin="round"/><path d="M66.41,72.53 L66.39,72.34 L66.45,72.15 L67.98,69.41 L68.26,69.17 L68.63,69.20 L69.80,69.62 L71.03,69.76 L72.87,69.43 L74.50,68.51 L75.75,67.11 L76.47,65.39 L76.64,65.11 L76.95,65.01 L80.07,65.01 L80.42,65.15 L80.57,65.50 L80.57,65.54 L80.57,65.58 L79.78,68.21 L78.30,70.52 L76.24,72.33 L73.75,73.49 L71.04,73.91 L68.79,73.64 L66.66,72.84 L66.50,72.71 L66.41,72.53 Z" fill="#1453c8" stroke="#1453c8" stroke-width="1" stroke-linejoin="round"/><path d="M80.00,66.02 L79.18,68.39 L77.75,70.45 L75.82,72.05 L73.53,73.07 L71.06,73.44 L68.92,73.18 L66.91,72.42 L68.44,69.66 L69.71,70.12 L71.06,70.27 L73.06,69.91 L74.83,68.92 L76.19,67.40 L76.98,65.53 L80.10,65.53 L80.00,66.02 Z" fill="#1453c8" stroke="#1453c8" stroke-width="1" stroke-linejoin="round"/><path d="M60.27,58.49 L59.38,57.47 L58.37,56.58 L56.66,55.52 L54.78,54.81 L52.80,54.48 L52.80,51.46 L56.00,52.02 L58.97,53.32 L60.85,54.68 L62.47,56.34 L60.27,58.49 Z" fill="#88aef1" stroke="#88aef1" stroke-width="1" stroke-linejoin="round"/><path d="M60.21,58.98 L60.01,58.92 L59.86,58.79 L59.02,57.82 L58.05,56.97 L55.56,55.58 L52.77,54.98 L52.45,54.82 L52.31,54.48 L52.31,51.46 L52.46,51.11 L52.80,50.96 L52.83,50.96 L56.15,51.54 L59.23,52.90 L61.19,54.31 L62.86,56.03 L62.98,56.37 L62.82,56.70 L60.59,58.83 L60.41,58.94 L60.21,58.97 L60.21,58.98 Z" fill="#88aef1" stroke="#88aef1" stroke-width="1" stroke-linejoin="round"/><path d="M59.94,58.10 L60.25,58.49 L62.48,56.36 L60.50,54.39 L58.16,52.88 L55.56,51.88 L52.80,51.46 L52.80,54.48 L55.48,55.03 L57.91,56.26 L59.93,58.10 L59.94,58.10 Z" fill="#88aef1" stroke="#88aef1" stroke-width="1" stroke-linejoin="round"/></svg>