<svg xmlns="http://www.w3.org/2000/svg" viewBox="0.56 2.27 94.77 91.47"><path d="M93.33,48.43 L92.80,44.37 L91.46,40.50 L89.38,36.97 L86.63,33.94 L83.33,31.51 L79.61,29.79 L75.63,28.85 L75.06,24.45 L73.74,20.21 L71.72,16.26 L69.04,12.72 L65.79,9.69 L62.07,7.27 L57.98,5.53 L53.66,4.52 L49.23,4.27 L44.60,4.59 L40.09,5.71 L35.86,7.60 L32.01,10.19 L28.67,13.41 L25.93,17.17 L23.89,21.33 L19.68,22.22 L15.68,23.85 L12.04,26.15 L8.87,29.07 L6.26,32.50 L4.30,36.34 L3.06,40.47 L2.56,44.75 L3.10,49.01 L4.37,53.11 L6.33,56.93 L8.92,60.35 L12.07,63.27 L15.68,65.59 L19.63,67.26 L23.82,68.21 L28.11,68.43 L29.23,68.47 L30.35,68.43 L71.68,68.43 L72.21,68.47 L72.75,68.43 L76.69,68.05 L80.49,66.92 L84.00,65.08 L87.10,62.61 L89.66,59.58 L91.60,56.12 L92.84,52.36 L93.33,48.43 L93.33,48.43 Z" fill="#3990e4" stroke="#1e1e1e" stroke-width="1" stroke-linejoin="round"/><path d="M78.99,91.73 L27.57,91.73 L26.99,91.62 L26.48,91.30 L25.76,90.25 L25.52,88.94 L25.61,88.30 L25.87,87.73 L43.57,61.92 L43.86,61.37 L43.95,60.75 L43.95,43.68 L43.64,42.98 L42.93,42.67 L41.97,42.67 L40.96,42.40 L40.22,41.65 L39.95,40.64 L39.95,39.73 L40.22,38.72 L40.96,37.98 L41.97,37.71 L64.53,37.71 L65.55,37.98 L66.29,38.72 L66.56,39.73 L66.56,40.64 L66.29,41.65 L65.55,42.40 L64.53,42.67 L63.57,42.67 L62.86,42.96 L62.56,43.68 L62.56,60.80 L62.65,61.42 L62.93,61.97 L80.64,87.73 L80.89,88.29 L80.99,88.92 L80.75,90.23 L80.05,91.30 L79.55,91.62 L78.99,91.73 Z" fill="#2ecaec" stroke="#1e1e1e" stroke-width="1" stroke-linejoin="round"/><path d="M33.49,84.80 L46.93,65.17 L47.68,63.87 L48.00,62.40 L48.00,54.51 L48.21,53.73 L48.77,53.17 L49.55,52.96 L57.23,52.96 L58.00,53.17 L58.57,53.73 L58.77,54.51 L58.77,62.93 L58.92,63.91 L59.36,64.80 L73.12,84.80 L73.29,85.61 L72.91,86.34 L72.16,86.67 L34.83,86.67 L34.05,86.72 L33.41,86.27 L33.19,85.52 L33.49,84.80 L33.49,84.80 Z" fill="#ffffff" stroke="#1e1e1e" stroke-width="1" stroke-linejoin="round"/></svg>