<svg xmlns="http://www.w3.org/2000/svg" viewBox="3.07 1.20 89.79 93.58"><path d="M61.75,66.13 L51.16,55.60 L50.87,55.32 L49.41,53.33 L48.52,51.03 L48.24,48.57 L48.62,46.13 L49.61,43.86 L51.15,41.93 L55.05,38.03 L52.03,33.64 L51.70,32.95 L51.58,32.19 L51.58,10.71 L51.96,9.81 L52.86,9.43 L54.05,9.43 L55.33,9.09 L56.27,8.16 L56.61,6.88 L56.61,5.73 L56.26,4.46 L55.32,3.54 L54.05,3.20 L25.74,3.20 L24.47,3.54 L23.53,4.48 L23.19,5.75 L23.19,6.88 L23.53,8.16 L24.47,9.09 L25.74,9.43 L26.94,9.43 L27.84,9.81 L28.22,10.71 L28.22,32.14 L28.10,32.89 L27.77,33.58 L5.52,66.01 L5.19,66.71 L5.07,67.50 L5.14,68.33 L5.37,69.14 L5.76,69.86 L6.28,70.45 L6.92,70.85 L7.65,70.99 L61.75,70.99 L61.75,66.13 Z" fill="#2f8ce2" stroke="#1e1e1e" stroke-width="1" stroke-linejoin="round"/><path d="M88.70,53.99 L90.07,52.19 L90.81,50.05 L90.86,47.79 L90.21,45.62 L88.92,43.77 L88.70,43.54 L75.83,30.82 L74.02,29.45 L71.88,28.71 L69.62,28.67 L67.45,29.33 L65.60,30.63 L65.41,30.82 L52.73,43.54 L51.36,45.34 L50.61,47.48 L50.56,49.74 L51.22,51.90 L52.51,53.76 L52.73,53.99 L63.40,64.58 L63.85,65.24 L64.00,66.03 L64.00,85.73 L64.19,86.68 L64.72,87.50 L69.52,92.30 L70.23,92.75 L71.07,92.78 L71.82,92.39 L71.90,92.30 L76.57,87.64 L79.32,84.89 L79.58,84.20 L79.32,83.51 L77.33,81.53 L77.03,80.79 L77.33,80.05 L79.32,78.06 L79.58,77.37 L79.32,76.68 L77.33,74.69 L77.03,73.95 L77.33,73.22 L79.32,71.23 L79.58,70.56 L79.32,69.89 L76.57,67.10 L76.57,66.09 L88.70,53.99 Z" fill="#ffc801" stroke="#ffc801" stroke-width="1" stroke-linejoin="round"/><path d="M70.62,42.26 L68.85,41.81 L67.43,40.66 L66.64,39.01 L66.63,37.18 L67.39,35.52 L68.78,34.34 L70.55,33.87 L70.62,33.87 L72.39,34.33 L73.80,35.49 L74.57,37.15 L74.57,38.97 L73.80,40.63 L72.39,41.80 L70.62,42.26 L70.62,42.26 Z" fill="#ffffff" stroke="#ffffff" stroke-width="1" stroke-linejoin="round"/><path d="M67.33,86.02 L67.33,86.02 L67.98,86.25 L68.60,85.97 L68.85,85.33 L68.85,69.42 L68.74,68.97 L68.42,68.63 L68.42,68.63 L67.80,68.51 L67.25,68.83 L67.05,69.42 L67.05,85.33 L67.11,85.71 L67.33,86.02 Z" fill="#faa21d" stroke="#faa21d" stroke-width="1" stroke-linejoin="round"/><path d="M80.20,47.77 L80.49,47.81 L80.76,47.92 L80.99,48.10 L81.17,48.33 L81.28,48.60 L81.32,48.89 L81.32,49.11 L81.28,49.40 L81.17,49.67 L80.99,49.90 L80.76,50.08 L80.49,50.19 L80.20,50.23 L61.58,50.23 L61.29,50.19 L61.02,50.08 L60.79,49.90 L60.61,49.67 L60.50,49.40 L60.46,49.11 L60.46,48.89 L60.50,48.60 L60.61,48.33 L60.79,48.10 L61.02,47.92 L61.29,47.81 L61.58,47.77 L80.20,47.77 Z" fill="#faa21d" stroke="#faa21d" stroke-width="1" stroke-linejoin="round"/><path d="M80.20,51.78 L80.49,51.82 L80.76,51.93 L80.99,52.11 L81.17,52.34 L81.28,52.61 L81.32,52.90 L81.32,53.12 L81.28,53.41 L81.17,53.68 L80.99,53.91 L80.76,54.09 L80.49,54.20 L80.20,54.24 L61.58,54.24 L61.29,54.20 L61.02,54.09 L60.79,53.91 L60.61,53.68 L60.50,53.41 L60.46,53.12 L60.46,52.90 L60.50,52.61 L60.61,52.34 L60.79,52.11 L61.02,51.93 L61.29,51.82 L61.58,51.78 L80.20,51.78 Z" fill="#faa21d" stroke="#faa21d" stroke-width="1" stroke-linejoin="round"/><path d="M51.40,55.37 L51.12,55.09 L49.54,52.85 L48.69,50.25 L48.67,47.51 L49.46,44.88 L51.00,42.62 L47.27,37.23 L46.73,36.10 L46.54,34.87 L46.54,24.27 L46.28,23.29 L45.56,22.57 L44.58,22.31 L34.98,22.31 L33.99,22.57 L33.27,23.29 L33.01,24.27 L33.01,34.20 L32.74,36.03 L31.94,37.70 L15.04,62.34 L14.79,63.35 L15.28,64.27 L16.25,64.64 L60.71,64.64 L51.40,55.37 Z" fill="#ffffff" stroke="#1e1e1e" stroke-width="1" stroke-linejoin="round"/></svg>