<svg xmlns="http://www.w3.org/2000/svg" viewBox="-2.00 -0.25 100.00 96.49"><path d="M9.72,78.57 L9.38,78.24 L9.26,77.78 L9.26,18.25 L9.38,17.79 L9.72,17.46 L22.67,9.94 L23.09,9.38 L23.01,8.69 L19.28,2.21 L18.73,1.78 L18.04,1.86 L7.19,8.16 L0.46,12.07 L0.12,12.41 L0.00,12.86 L0.00,83.13 L0.12,83.59 L0.46,83.93 L6.97,87.70 L18.04,94.10 L18.72,94.20 L19.27,93.78 L19.27,93.78 L23.00,87.30 L23.09,86.60 L22.67,86.04 L9.72,78.57 L9.72,78.57 Z" fill="#949494" stroke="#1e1e1e" stroke-width="1" stroke-linejoin="round"/><path d="M95.54,12.07 L89.02,8.29 L77.95,1.87 L77.27,1.78 L76.72,2.19 L76.72,2.20 L72.98,8.68 L72.90,9.37 L73.32,9.94 L86.26,17.44 L86.60,17.78 L86.72,18.24 L86.72,77.75 L86.59,78.21 L86.26,78.54 L73.32,86.05 L72.90,86.61 L72.98,87.31 L76.72,93.79 L77.27,94.22 L77.96,94.13 L88.80,87.84 L95.54,83.93 L95.88,83.59 L96.00,83.13 L96.00,12.87 L95.88,12.41 L95.54,12.07 L95.54,12.07 Z" fill="#949494" stroke="#1e1e1e" stroke-width="1" stroke-linejoin="round"/><path d="M9.27,18.25 L9.39,17.79 L9.73,17.46 L22.67,9.94 L23.09,9.38 L23.01,8.69 L19.28,2.21 L18.89,1.84 L18.36,1.76 L17.90,1.87 L7.06,8.16 L0.33,12.07 L0.00,12.39 L0.11,12.45 L0.00,12.86 L9.27,18.25 L9.27,18.25 Z" fill="#a3a3a3" stroke="#1e1e1e" stroke-width="1" stroke-linejoin="round"/><path d="M9.73,78.54 L9.39,78.21 L9.27,77.75 L0.00,83.13 L0.11,83.55 L0.00,83.61 L0.33,83.93 L7.05,87.84 L17.89,94.13 L18.35,94.24 L18.88,94.16 L19.27,93.79 L23.01,87.31 L23.09,86.62 L22.67,86.05 L9.73,78.54 L9.73,78.54 Z" fill="#a3a3a3" stroke="#1e1e1e" stroke-width="1" stroke-linejoin="round"/><path d="M86.72,77.75 L86.60,78.21 L86.26,78.54 L73.32,86.05 L72.89,86.61 L72.98,87.31 L76.71,93.79 L77.10,94.15 L77.64,94.23 L78.10,94.12 L88.93,87.84 L95.67,83.93 L95.99,83.61 L95.89,83.54 L95.99,83.13 L86.72,77.75 L86.72,77.75 Z" fill="#a3a3a3" stroke="#1e1e1e" stroke-width="1" stroke-linejoin="round"/><path d="M95.99,12.39 L95.67,12.06 L88.93,8.16 L78.10,1.87 L77.64,1.75 L77.10,1.84 L76.71,2.20 L72.98,8.68 L72.89,9.38 L73.31,9.94 L86.25,17.45 L86.59,17.78 L86.71,18.24 L95.99,12.86 L95.89,12.45 L95.99,12.39 L95.99,12.39 Z" fill="#a3a3a3" stroke="#1e1e1e" stroke-width="1" stroke-linejoin="round"/><path d="M55.20,65.95 L54.85,65.92 L54.71,66.24 L54.69,71.83 L54.92,73.32 L55.56,74.79 L56.52,76.09 L57.70,77.04 L62.57,79.85 L64.28,80.84 L64.63,80.87 L64.77,80.56 L64.63,80.07 L64.28,79.71 L62.57,78.72 L57.70,75.91 L56.90,75.26 L56.26,74.39 L55.82,73.39 L55.67,72.39 L55.68,66.79 L55.54,66.31 L55.19,65.94 L55.20,65.95 Z" fill="#f4f3f5" stroke="#f4f3f5" stroke-width="1" stroke-linejoin="round"/><path d="M55.20,65.95 L54.85,65.92 L54.71,66.24 L54.69,71.83 L54.92,73.32 L55.56,74.79 L56.52,76.09 L57.70,77.04 L62.57,79.85 L64.28,80.84 L64.63,80.87 L64.77,80.56 L64.63,80.07 L64.28,79.71 L62.57,78.72 L57.70,75.91 L56.90,75.26 L56.26,74.39 L55.82,73.39 L55.67,72.39 L55.68,66.79 L55.54,66.31 L55.19,65.94 L55.20,65.95 Z" fill="#bebfbe" stroke="#bebfbe" stroke-width="1" stroke-linejoin="round"/><path d="M74.01,74.07 L72.30,73.08 L68.66,71.03 L66.80,69.72 L66.13,69.01 L65.74,68.26 L65.44,66.89 L65.38,64.77 L65.41,61.16 L65.16,60.51 L64.89,60.29 L64.57,60.28 L54.83,65.94 L55.18,65.98 L55.45,66.24 L55.61,66.85 L55.70,68.75 L55.65,72.42 L55.81,73.56 L56.35,74.57 L57.19,75.47 L58.24,76.26 L60.55,77.62 L62.55,78.75 L64.06,79.61 L64.68,80.20 L64.76,80.54 L64.61,80.90 L74.35,75.23 L74.49,74.95 L74.44,74.61 L74.01,74.07 L74.01,74.07 Z" fill="#d9d9d6" stroke="#1e1e1e" stroke-width="1" stroke-linejoin="round"/><path d="M54.65,13.64 L54.29,13.51 L53.89,13.54 L53.38,13.76 L16.66,34.97 L16.32,35.20 L16.22,35.29 L16.06,35.43 L15.99,35.51 L15.94,35.57 L15.87,35.65 L15.72,35.82 L15.67,35.89 L15.65,35.92 L15.60,35.98 L15.50,36.14 L15.41,36.29 L15.40,36.30 L15.40,36.31 L15.33,36.44 L15.25,36.59 L15.18,36.73 L15.18,36.74 L15.18,36.75 L15.12,36.91 L15.06,37.08 L15.03,37.17 L15.02,37.20 L15.00,37.27 L14.95,37.47 L14.93,37.59 L14.92,37.66 L14.91,37.72 L14.89,38.06 L14.96,64.82 L15.11,65.54 L15.49,65.97 L17.27,67.00 L17.66,67.08 L18.07,67.06 L18.54,66.88 L26.27,62.42 L26.29,70.04 L26.43,70.76 L26.81,71.19 L28.60,72.23 L28.95,72.28 L29.38,72.27 L29.87,72.10 L37.60,67.64 L37.62,75.91 L37.76,76.62 L38.14,77.05 L39.92,78.09 L40.31,78.17 L40.72,78.14 L41.20,77.96 L77.93,56.76 L78.62,56.20 L79.19,55.43 L79.57,54.55 L79.71,53.67 L79.63,26.91 L79.49,26.19 L79.10,25.76 L79.10,25.76 L79.10,25.76 L79.10,25.76 L77.32,24.73 L76.96,24.61 L76.56,24.63 L76.05,24.86 L68.33,29.32 L68.31,21.05 L68.16,20.34 L67.78,19.91 L67.78,19.91 L66.00,18.87 L65.60,18.72 L65.23,18.76 L64.72,19.00 L56.99,23.46 L56.97,15.83 L56.83,15.12 L56.44,14.69 L56.44,14.69 L54.66,13.65 L54.65,13.64 Z" fill="#0078d4" stroke="#1e1e1e" stroke-width="1" stroke-linejoin="round"/><path d="M68.44,47.38 L68.44,55.29 L61.66,59.28 L61.66,51.34 L68.44,47.38 Z" fill="#50e6ff" stroke="#50e6ff" stroke-width="1" stroke-linejoin="round"/><path d="M68.44,47.38 L61.66,51.37 L54.84,47.38 L61.66,43.39 L68.44,47.38 Z" fill="#c3f1ff" stroke="#c3f1ff" stroke-width="1" stroke-linejoin="round"/><path d="M61.66,51.37 L61.66,59.28 L54.84,55.29 L54.84,47.38 L61.66,51.37 Z" fill="#9cebff" stroke="#9cebff" stroke-width="1" stroke-linejoin="round"/><path d="M55.50,14.64 L55.98,14.55 L56.44,14.67 L55.12,13.87 L54.37,13.56 L53.71,13.61 L16.66,34.97 L16.22,35.29 L15.26,36.54 L14.98,37.28 L14.87,38.06 L14.95,64.82 L14.97,65.26 L15.14,65.62 L15.78,66.18 L17.25,67.00 L16.87,66.57 L16.73,65.86 L16.66,39.10 L16.80,38.19 L17.18,37.34 L17.73,36.59 L18.44,36.01 L55.49,14.66 L55.50,14.64 Z" fill="#155ea1" stroke="#1e1e1e" stroke-width="1" stroke-linejoin="round"/><path d="M66.82,19.87 L67.30,19.77 L67.76,19.89 L66.40,19.08 L65.64,18.77 L64.96,18.86 L27.65,40.42 L27.07,41.00 L26.62,41.70 L26.32,42.46 L26.20,43.28 L26.28,70.04 L26.30,70.48 L26.47,70.84 L27.10,71.40 L28.58,72.22 L28.20,71.79 L28.06,71.07 L27.98,44.31 L28.13,43.40 L28.51,42.55 L29.05,41.81 L29.76,41.22 L66.82,19.87 L66.82,19.87 Z" fill="#155ea1" stroke="#1e1e1e" stroke-width="1" stroke-linejoin="round"/><path d="M77.31,24.71 L76.66,24.61 L76.03,24.84 L39.30,46.04 L38.29,46.98 L37.74,48.00 L37.52,49.13 L37.59,75.89 L37.62,76.33 L37.78,76.69 L38.42,77.25 L39.90,78.07 L39.52,77.64 L39.37,76.92 L39.30,50.16 L39.45,49.26 L39.82,48.40 L40.37,47.66 L41.08,47.07 L78.13,25.72 L78.82,25.65 L78.98,25.68 L78.39,25.34 L77.30,24.71 L77.31,24.71 Z" fill="#155ea1" stroke="#1e1e1e" stroke-width="1" stroke-linejoin="round"/></svg>