<svg xmlns="http://www.w3.org/2000/svg" viewBox="-0.63 -1.93 97.26 99.86"><ellipse cx="48.14" cy="48.15" rx="10.62" ry="10.62" fill="#f1bc6e" stroke="#1e1e1e" stroke-width="1"/><rect x="43.78" y="0.07" width="8.71" height="24.84" fill="#82bbff" stroke="#82bbff" stroke-width="1"/><rect x="43.78" y="71.09" width="8.71" height="24.84" fill="#82bbff" stroke="#82bbff" stroke-width="1"/><path d="M94.63,43.79 L94.63,52.51 L69.79,52.51 L69.79,43.79 L94.63,43.79 Z" fill="#82bbff" stroke="#82bbff" stroke-width="1" stroke-linejoin="round"/><path d="M26.21,43.79 L26.21,52.51 L1.37,52.51 L1.37,43.79 L26.21,43.79 Z" fill="#82bbff" stroke="#82bbff" stroke-width="1" stroke-linejoin="round"/><path d="M48.14,77.41 L43.24,77.00 L38.47,75.77 L33.98,73.76 L29.89,71.03 L26.32,67.65 L23.36,63.72 L21.10,59.35 L19.61,54.66 L18.92,49.79 L19.06,44.87 L20.02,40.05 L21.77,35.45 L24.27,31.22 L27.45,27.46 L31.20,24.28 L35.44,21.78 L40.04,20.03 L44.86,19.07 L49.78,18.93 L54.65,19.62 L59.34,21.11 L63.71,23.37 L67.64,26.33 L71.02,29.90 L73.75,33.99 L75.76,38.48 L76.99,43.25 L77.40,48.15 L77.04,52.73 L75.96,57.19 L74.20,61.43 L71.80,65.34 L68.82,68.83 L65.33,71.81 L61.42,74.21 L57.18,75.97 L52.71,77.05 L48.14,77.41 L48.14,77.41 Z" fill="#2f8ce2" stroke="#1e1e1e" stroke-width="1" stroke-linejoin="round"/><path d="M48.14,26.46 L43.91,26.88 L39.84,28.11 L36.09,30.12 L32.80,32.82 L30.11,36.10 L28.10,39.85 L26.87,43.92 L26.45,48.15 L26.87,52.38 L28.10,56.45 L30.11,60.20 L32.80,63.48 L36.09,66.18 L39.84,68.18 L43.91,69.42 L48.14,69.83 L52.37,69.42 L56.44,68.18 L60.19,66.18 L63.47,63.48 L66.17,60.20 L68.17,56.45 L69.41,52.38 L69.82,48.15 L69.40,43.92 L68.17,39.85 L66.16,36.11 L63.46,32.82 L60.18,30.13 L56.43,28.12 L52.37,26.89 L48.14,26.46 L48.14,26.46 Z" fill="#f1bc6e" stroke="#1e1e1e" stroke-width="1" stroke-linejoin="round"/></svg>