<svg xmlns="http://www.w3.org/2000/svg" viewBox="-2.00 5.26 100.01 85.46"><path d="M65.83,58.78 L67.57,57.45 L69.59,56.61 L71.76,56.32 L73.93,56.61 L75.95,57.45 L77.69,58.78 L77.84,58.93 L79.17,60.67 L80.01,62.69 L80.30,64.86 L80.01,67.03 L79.17,69.05 L77.84,70.79 L77.69,70.94 L75.95,72.27 L73.93,73.11 L71.76,73.39 L69.59,73.11 L67.57,72.27 L65.83,70.94 L65.68,70.79 L64.35,69.05 L63.51,67.03 L63.23,64.86 L63.51,62.69 L64.35,60.67 L65.68,58.93 L65.83,58.78 Z" fill="#9a72ce" stroke="#9a72ce" stroke-width="1" stroke-linejoin="round"/><path d="M78.68,76.42 L76.27,77.67 L73.75,78.40 L71.17,78.62 L68.62,78.34 L66.17,77.58 L63.89,76.36 L61.85,74.69 L60.14,72.59 L59.18,70.87 L58.50,69.05 L58.08,67.17 L57.94,65.27 L58.07,63.36 L58.48,61.48 L59.16,59.66 L60.11,57.93 L60.47,57.09 L60.49,56.21 L60.16,55.39 L59.53,54.73 L58.69,54.37 L57.81,54.36 L56.99,54.68 L56.33,55.31 L56.27,55.41 L54.91,57.90 L53.98,60.53 L53.47,63.23 L53.37,65.97 L53.69,68.69 L54.42,71.34 L55.56,73.88 L57.10,76.26 L54.20,79.16 L52.93,78.97 L51.67,79.12 L50.49,79.59 L49.47,80.38 L49.39,80.46 L48.77,81.21 L48.34,82.05 L48.07,82.93 L47.98,83.85 L48.07,84.76 L48.33,85.65 L48.77,86.48 L49.38,87.24 L49.46,87.32 L50.21,87.94 L51.05,88.38 L51.94,88.64 L52.85,88.73 L53.77,88.64 L54.66,88.38 L55.49,87.94 L56.25,87.32 L56.33,87.24 L57.13,86.18 L57.60,84.97 L57.72,83.68 L57.49,82.38 L60.37,79.50 L62.75,81.04 L65.29,82.17 L67.95,82.89 L70.67,83.20 L73.41,83.09 L76.11,82.57 L78.73,81.62 L81.22,80.26 L81.86,79.62 L82.20,78.80 L82.21,77.92 L81.87,77.07 L81.23,76.42 L80.41,76.08 L79.53,76.07 L78.68,76.42 L78.68,76.42 Z" fill="#4298e6" stroke="#1e1e1e" stroke-width="1" stroke-linejoin="round"/><path d="M94.60,42.19 L94.60,42.18 L94.51,42.10 L93.76,41.48 L92.93,41.04 L92.04,40.78 L91.12,40.69 L90.20,40.78 L89.31,41.04 L88.48,41.48 L87.73,42.10 L87.64,42.18 L86.86,43.21 L86.39,44.39 L86.24,45.65 L86.43,46.93 L83.53,49.83 L81.16,48.28 L78.62,47.14 L75.97,46.41 L73.25,46.09 L70.51,46.19 L67.81,46.70 L65.18,47.64 L62.69,48.99 L62.06,49.65 L61.74,50.47 L61.75,51.35 L62.11,52.19 L62.74,52.80 L63.53,53.13 L64.39,53.15 L65.22,52.84 L67.62,51.59 L70.15,50.88 L72.73,50.67 L75.28,50.96 L77.73,51.72 L80.01,52.95 L82.03,54.63 L83.73,56.74 L84.69,58.47 L85.37,60.29 L85.77,62.17 L85.90,64.08 L85.76,65.98 L85.35,67.86 L84.66,69.68 L83.70,71.40 L83.36,72.25 L83.37,73.13 L83.70,73.95 L84.35,74.59 L85.20,74.93 L86.08,74.93 L86.90,74.59 L87.54,73.94 L88.90,71.46 L89.84,68.84 L90.36,66.14 L90.47,63.40 L90.16,60.68 L89.44,58.03 L88.31,55.49 L86.77,53.11 L89.65,50.22 L90.95,50.45 L92.24,50.33 L93.46,49.86 L94.51,49.06 L94.60,48.98 L95.21,48.22 L95.65,47.39 L95.92,46.50 L96.01,45.59 L95.92,44.67 L95.66,43.78 L95.23,42.95 L94.61,42.19 L94.60,42.19 Z" fill="#4298e6" stroke="#1e1e1e" stroke-width="1" stroke-linejoin="round"/><path d="M49.39,64.14 L26.50,64.14 L26.29,64.16 L24.54,64.23 L24.37,64.23 L23.67,64.25 L21.80,64.16 L19.98,63.89 L18.21,63.46 L16.52,62.86 L14.91,62.11 L13.38,61.22 L11.95,60.20 L10.63,59.04 L9.41,57.77 L8.32,56.39 L7.36,54.91 L6.54,53.33 L5.86,51.67 L5.35,49.93 L4.99,48.12 L4.81,46.26 L5.24,42.91 L6.22,39.77 L7.72,36.91 L9.67,34.37 L12.04,32.21 L14.77,30.49 L17.82,29.25 L21.13,28.54 L24.03,28.19 L25.05,25.45 L26.38,22.58 L28.11,19.98 L30.19,17.70 L32.58,15.76 L35.23,14.20 L38.09,13.04 L41.12,12.32 L44.27,12.08 L44.65,12.08 L44.76,12.08 L44.88,12.08 L45.51,12.07 L47.48,12.17 L49.40,12.45 L51.26,12.91 L53.04,13.54 L54.74,14.33 L56.35,15.27 L57.86,16.36 L59.25,17.58 L60.53,18.92 L61.68,20.38 L62.69,21.95 L63.55,23.61 L64.26,25.37 L64.80,27.20 L65.17,29.11 L65.35,31.08 L65.53,35.11 L69.52,35.64 L71.37,36.00 L73.11,36.58 L74.75,37.36 L76.26,38.32 L77.64,39.45 L78.86,40.74 L79.92,42.17 L80.81,43.72 L82.32,44.36 L82.56,43.20 L82.97,42.09 L84.22,40.04 L83.00,38.28 L81.60,36.67 L80.03,35.21 L78.31,33.93 L76.45,32.84 L74.46,31.96 L72.36,31.30 L70.15,30.87 L69.92,28.43 L69.47,26.06 L68.79,23.78 L67.91,21.60 L66.83,19.53 L65.57,17.59 L64.14,15.77 L62.55,14.11 L60.81,12.59 L58.94,11.24 L56.94,10.07 L54.83,9.09 L52.62,8.31 L50.33,7.74 L47.95,7.38 L45.51,7.26 L44.74,7.27 L44.28,7.27 L40.38,7.58 L36.63,8.46 L33.10,9.88 L29.84,11.80 L26.90,14.19 L24.33,17.01 L22.20,20.21 L20.55,23.78 L18.44,24.13 L16.39,24.67 L14.42,25.38 L12.55,26.26 L10.77,27.29 L9.09,28.46 L7.54,29.78 L6.10,31.22 L4.79,32.78 L3.63,34.45 L2.61,36.23 L1.74,38.09 L1.04,40.04 L0.51,42.06 L0.16,44.14 L0.00,46.28 L0.21,48.64 L0.64,50.92 L1.29,53.12 L2.13,55.22 L3.16,57.22 L4.37,59.09 L5.75,60.84 L7.27,62.45 L8.95,63.91 L10.75,65.21 L12.67,66.34 L14.70,67.29 L16.83,68.05 L19.04,68.60 L21.32,68.94 L23.67,69.06 L24.54,69.04 L26.69,68.95 L49.70,68.95 L49.41,66.55 L49.39,64.14 L49.39,64.14 Z" fill="#2fccee" stroke="#1e1e1e" stroke-width="1" stroke-linejoin="round"/></svg>