<svg xmlns="http://www.w3.org/2000/svg" viewBox="-2.00 5.26 100.00 85.45"><path d="M65.83,58.77 L67.56,57.44 L69.58,56.60 L71.75,56.32 L73.92,56.60 L75.95,57.44 L77.68,58.77 L77.83,58.92 L79.17,60.66 L80.00,62.68 L80.29,64.85 L80.00,67.02 L79.17,69.04 L77.83,70.78 L77.68,70.93 L75.95,72.26 L73.92,73.10 L71.75,73.39 L69.58,73.10 L67.56,72.26 L65.83,70.93 L65.68,70.78 L64.34,69.04 L63.51,67.02 L63.22,64.85 L63.51,62.68 L64.34,60.66 L65.68,58.92 L65.83,58.77 Z" fill="#9a72ce" stroke="#9a72ce" stroke-width="1" stroke-linejoin="round"/><path d="M78.67,76.41 L76.27,77.66 L73.74,78.39 L71.16,78.61 L68.61,78.33 L66.16,77.58 L63.88,76.36 L61.85,74.69 L60.14,72.58 L59.18,70.86 L58.49,69.04 L58.08,67.17 L57.94,65.26 L58.07,63.35 L58.47,61.47 L59.15,59.65 L60.11,57.93 L60.47,57.09 L60.48,56.20 L60.16,55.38 L59.52,54.73 L58.69,54.36 L57.80,54.35 L56.98,54.67 L56.33,55.31 L56.26,55.41 L54.91,57.90 L53.98,60.52 L53.46,63.22 L53.36,65.96 L53.68,68.68 L54.41,71.34 L55.55,73.88 L57.10,76.25 L54.20,79.15 L52.92,78.96 L51.66,79.11 L50.49,79.59 L49.47,80.37 L49.38,80.46 L48.77,81.21 L48.33,82.04 L48.07,82.92 L47.98,83.84 L48.06,84.75 L48.33,85.64 L48.76,86.48 L49.37,87.23 L49.46,87.31 L50.21,87.93 L51.04,88.37 L51.93,88.63 L52.85,88.72 L53.76,88.63 L54.65,88.37 L55.49,87.93 L56.24,87.31 L56.33,87.23 L57.12,86.17 L57.59,84.96 L57.72,83.67 L57.49,82.37 L60.36,79.50 L62.74,81.04 L65.29,82.17 L67.94,82.89 L70.67,83.19 L73.40,83.08 L76.10,82.56 L78.72,81.62 L81.21,80.25 L81.86,79.61 L82.20,78.80 L82.21,77.91 L81.86,77.06 L81.22,76.42 L80.41,76.08 L79.52,76.07 L78.68,76.41 L78.67,76.41 Z" fill="#4298e6" stroke="#1e1e1e" stroke-width="1" stroke-linejoin="round"/><path d="M94.59,42.18 L94.59,42.18 L94.50,42.09 L93.75,41.48 L92.92,41.04 L92.03,40.78 L91.11,40.69 L90.19,40.78 L89.31,41.04 L88.47,41.48 L87.72,42.09 L87.63,42.18 L86.85,43.21 L86.38,44.38 L86.23,45.65 L86.42,46.92 L83.52,49.82 L81.15,48.28 L78.61,47.14 L75.96,46.41 L73.24,46.09 L70.50,46.19 L67.80,46.70 L65.18,47.63 L62.69,48.98 L62.05,49.64 L61.73,50.46 L61.74,51.34 L62.11,52.18 L62.74,52.80 L63.53,53.12 L64.38,53.14 L65.21,52.83 L67.62,51.59 L70.15,50.87 L72.72,50.66 L75.28,50.95 L77.73,51.72 L80.00,52.95 L82.02,54.63 L83.73,56.74 L84.68,58.46 L85.36,60.28 L85.76,62.16 L85.89,64.07 L85.75,65.98 L85.34,67.86 L84.65,69.67 L83.69,71.40 L83.35,72.24 L83.36,73.13 L83.70,73.94 L84.34,74.58 L85.19,74.93 L86.07,74.92 L86.89,74.58 L87.53,73.93 L88.89,71.45 L89.83,68.83 L90.35,66.13 L90.46,63.40 L90.15,60.68 L89.43,58.02 L88.30,55.48 L86.76,53.10 L89.64,50.22 L90.94,50.45 L92.24,50.32 L93.45,49.85 L94.50,49.06 L94.59,48.97 L95.20,48.22 L95.65,47.39 L95.91,46.50 L96.00,45.58 L95.91,44.67 L95.65,43.78 L95.22,42.94 L94.60,42.19 L94.59,42.18 Z" fill="#4298e6" stroke="#1e1e1e" stroke-width="1" stroke-linejoin="round"/><path d="M49.39,64.14 L26.49,64.14 L26.29,64.15 L24.54,64.23 L24.37,64.23 L23.67,64.24 L21.80,64.15 L19.97,63.89 L18.21,63.45 L16.52,62.85 L14.91,62.11 L13.38,61.22 L11.95,60.19 L10.63,59.04 L9.41,57.77 L8.32,56.39 L7.36,54.90 L6.54,53.33 L5.86,51.66 L5.34,49.93 L4.99,48.12 L4.81,46.25 L5.24,42.90 L6.22,39.77 L7.72,36.91 L9.67,34.37 L12.04,32.21 L14.77,30.48 L17.82,29.24 L21.12,28.54 L24.03,28.19 L25.05,25.44 L26.38,22.57 L28.11,19.98 L30.19,17.70 L32.57,15.76 L35.22,14.20 L38.08,13.04 L41.12,12.32 L44.27,12.08 L44.64,12.08 L44.76,12.08 L44.88,12.08 L45.50,12.07 L47.48,12.16 L49.40,12.45 L51.25,12.91 L53.04,13.54 L54.74,14.33 L56.34,15.27 L57.85,16.36 L59.25,17.58 L60.52,18.92 L61.67,20.38 L62.68,21.95 L63.55,23.61 L64.25,25.37 L64.79,27.20 L65.16,29.11 L65.34,31.08 L65.52,35.11 L69.51,35.63 L71.36,36.00 L73.11,36.57 L74.74,37.35 L76.25,38.32 L77.63,39.45 L78.85,40.74 L79.92,42.17 L80.80,43.72 L82.31,44.36 L82.56,43.20 L82.96,42.08 L84.21,40.04 L82.99,38.28 L81.59,36.66 L80.03,35.21 L78.31,33.93 L76.44,32.84 L74.45,31.95 L72.35,31.29 L70.14,30.87 L69.92,28.43 L69.46,26.06 L68.78,23.78 L67.90,21.60 L66.83,19.53 L65.57,17.59 L64.14,15.77 L62.55,14.10 L60.81,12.59 L58.94,11.24 L56.94,10.07 L54.83,9.09 L52.62,8.31 L50.32,7.73 L47.95,7.38 L45.51,7.26 L44.74,7.27 L44.27,7.27 L40.37,7.58 L36.63,8.45 L33.10,9.87 L29.84,11.80 L26.89,14.19 L24.33,17.00 L22.20,20.21 L20.55,23.77 L18.43,24.13 L16.39,24.67 L14.42,25.38 L12.55,26.25 L10.77,27.28 L9.09,28.46 L7.54,29.78 L6.10,31.22 L4.79,32.78 L3.63,34.45 L2.61,36.22 L1.74,38.09 L1.04,40.03 L0.51,42.05 L0.16,44.14 L0.00,46.28 L0.21,48.64 L0.64,50.92 L1.29,53.12 L2.13,55.22 L3.16,57.21 L4.37,59.09 L5.75,60.84 L7.27,62.45 L8.95,63.91 L10.75,65.21 L12.67,66.34 L14.70,67.29 L16.82,68.04 L19.04,68.59 L21.32,68.93 L23.67,69.05 L24.54,69.03 L26.69,68.94 L49.70,68.94 L49.41,66.55 L49.38,64.14 L49.39,64.14 Z" fill="#2fccee" stroke="#1e1e1e" stroke-width="1" stroke-linejoin="round"/></svg>