<svg xmlns="http://www.w3.org/2000/svg" viewBox="26.00 19.33 204.00 217.33"><path d="M87.98,61.34 L88.19,57.25 L88.80,53.28 L89.78,49.44 L91.13,45.77 L92.81,42.27 L94.82,38.97 L97.12,35.89 L99.70,33.05 L102.54,30.47 L105.62,28.17 L108.92,26.16 L112.42,24.48 L116.09,23.13 L119.93,22.15 L123.90,21.54 L127.99,21.33 L132.08,21.54 L136.05,22.15 L139.89,23.13 L143.56,24.48 L147.06,26.16 L150.36,28.17 L153.44,30.47 L156.28,33.05 L158.86,35.89 L161.16,38.97 L163.17,42.27 L164.85,45.77 L166.20,49.44 L167.18,53.28 L167.79,57.25 L168.00,61.34 L167.83,65.01 L167.34,68.60 L166.54,72.07 L165.45,75.42 L164.07,78.63 L162.44,81.70 L160.55,84.59 L158.42,87.31 L156.08,89.83 L153.52,92.14 L150.77,94.23 L147.85,96.08 L144.76,97.67 L141.52,99.00 L138.15,100.04 L134.66,100.79 L134.66,122.67 L174.65,122.67 L176.70,122.77 L178.68,123.07 L180.60,123.57 L182.44,124.24 L184.19,125.08 L185.84,126.08 L187.37,127.23 L188.79,128.52 L190.09,129.94 L191.24,131.48 L192.24,133.13 L193.08,134.88 L193.75,136.72 L194.25,138.63 L194.55,140.62 L194.65,142.67 L194.65,155.21 L198.15,155.95 L201.52,157.00 L204.76,158.33 L207.85,159.92 L210.77,161.77 L213.52,163.86 L216.08,166.17 L218.42,168.69 L220.55,171.40 L222.44,174.30 L224.08,177.36 L225.45,180.58 L226.55,183.93 L227.34,187.40 L227.83,190.99 L228.00,194.66 L227.79,198.75 L227.19,202.72 L226.20,206.56 L224.86,210.23 L223.17,213.73 L221.17,217.03 L218.87,220.11 L216.28,222.95 L213.44,225.53 L210.36,227.83 L207.06,229.84 L203.57,231.52 L199.89,232.87 L196.06,233.85 L192.09,234.46 L188.00,234.67 L183.90,234.46 L179.93,233.85 L176.10,232.87 L172.42,231.52 L168.93,229.84 L165.63,227.83 L162.55,225.53 L159.71,222.95 L157.12,220.11 L154.82,217.03 L152.82,213.73 L151.13,210.23 L149.79,206.56 L148.80,202.72 L148.20,198.75 L147.99,194.66 L148.16,190.99 L148.65,187.41 L149.44,183.93 L150.54,180.58 L151.91,177.37 L153.55,174.31 L155.44,171.41 L157.56,168.69 L159.91,166.17 L162.46,163.86 L165.21,161.78 L168.13,159.93 L171.22,158.33 L174.46,157.00 L177.83,155.96 L181.32,155.21 L181.32,142.67 L181.18,141.32 L180.80,140.07 L180.18,138.94 L179.37,137.95 L178.38,137.14 L177.25,136.52 L176.00,136.13 L174.65,136.00 L81.33,136.00 L79.98,136.13 L78.73,136.52 L77.60,137.14 L76.62,137.95 L75.80,138.94 L75.19,140.07 L74.80,141.32 L74.66,142.67 L74.66,155.21 L78.16,155.95 L81.53,157.00 L84.77,158.33 L87.86,159.92 L90.78,161.77 L93.53,163.86 L96.09,166.17 L98.43,168.69 L100.56,171.40 L102.45,174.30 L104.09,177.36 L105.46,180.58 L106.56,183.93 L107.36,187.40 L107.85,190.99 L108.01,194.66 L107.81,198.75 L107.20,202.72 L106.21,206.56 L104.87,210.23 L103.18,213.73 L101.18,217.03 L98.88,220.11 L96.29,222.95 L93.45,225.53 L90.37,227.83 L87.07,229.84 L83.58,231.52 L79.90,232.87 L76.07,233.85 L72.10,234.46 L68.01,234.67 L63.92,234.46 L59.94,233.85 L56.11,232.87 L52.43,231.52 L48.94,229.84 L45.64,227.83 L42.56,225.53 L39.72,222.95 L37.14,220.11 L34.83,217.03 L32.83,213.73 L31.14,210.23 L29.80,206.56 L28.81,202.72 L28.21,198.75 L28.00,194.66 L28.17,190.99 L28.66,187.41 L29.45,183.93 L30.55,180.58 L31.92,177.37 L33.56,174.31 L35.45,171.41 L37.57,168.69 L39.92,166.17 L42.47,163.86 L45.22,161.78 L48.14,159.93 L51.23,158.33 L54.47,157.00 L57.84,155.96 L61.33,155.21 L61.33,142.67 L61.43,140.62 L61.74,138.63 L62.23,136.72 L62.90,134.88 L63.74,133.13 L64.75,131.48 L65.90,129.94 L67.19,128.52 L68.61,127.23 L70.15,126.08 L71.80,125.08 L73.54,124.24 L75.38,123.57 L77.30,123.07 L79.28,122.77 L81.33,122.67 L121.32,122.67 L121.32,100.79 L117.83,100.04 L114.46,99.00 L111.22,97.67 L108.13,96.08 L105.21,94.23 L102.46,92.14 L99.91,89.83 L97.56,87.31 L95.43,84.59 L93.54,81.70 L91.91,78.63 L90.53,75.42 L89.44,72.07 L88.64,68.60 L88.15,65.01 L87.98,61.34 Z" fill="#0c757d" stroke="#1e1e1e" stroke-width="1" stroke-linejoin="round"/></svg>