<svg xmlns="http://www.w3.org/2000/svg" viewBox="-2.00 19.52 100.00 56.96"><path d="M47.76,35.28 L51.02,35.71 L54.06,36.97 L56.68,38.97 L58.68,41.58 L59.94,44.62 L60.37,47.89 L60.37,48.21 L59.94,51.47 L58.68,54.51 L56.68,57.12 L54.06,59.13 L51.02,60.39 L47.76,60.82 L47.44,60.82 L44.18,60.39 L41.14,59.13 L38.52,57.12 L36.52,54.51 L35.26,51.47 L34.83,48.21 L34.83,47.89 L35.26,44.62 L36.52,41.58 L38.52,38.97 L41.14,36.97 L44.18,35.71 L47.44,35.28 L47.76,35.28 Z" fill="#2ea294" stroke="#1e1e1e" stroke-width="1" stroke-linejoin="round"/><path d="M42.67,67.70 L38.92,66.53 L35.48,64.67 L32.46,62.17 L29.98,59.14 L28.14,55.68 L27.00,51.93 L26.61,48.03 L26.99,44.13 L28.11,40.38 L29.94,36.91 L32.40,33.86 L35.41,31.36 L38.85,29.48 L42.59,28.30 L44.02,27.68 L45.04,26.49 L45.43,24.97 L45.11,23.44 L44.14,22.20 L42.73,21.52 L41.17,21.53 L36.61,22.92 L32.36,25.10 L28.56,27.99 L25.32,31.49 L22.75,35.51 L20.92,39.92 L19.89,44.58 L13.73,44.58 L12.59,43.04 L11.07,41.85 L9.30,41.10 L7.40,40.85 L7.22,40.85 L4.99,41.20 L2.98,42.22 L1.39,43.81 L0.36,45.81 L0.00,48.04 L0.00,48.22 L0.35,50.45 L1.38,52.46 L2.97,54.06 L4.99,55.08 L7.22,55.43 L7.40,55.43 L9.35,55.16 L11.15,54.37 L12.67,53.12 L13.80,51.50 L19.91,51.50 L20.95,56.16 L22.80,60.56 L25.38,64.57 L28.63,68.07 L32.45,70.94 L36.70,73.10 L41.27,74.48 L42.81,74.45 L44.18,73.75 L45.12,72.52 L45.43,71.01 L45.06,69.52 L44.07,68.34 L42.67,67.70 L42.67,67.70 Z" fill="#3cd4c2" stroke="#1e1e1e" stroke-width="1" stroke-linejoin="round"/><path d="M88.78,40.82 L88.60,40.82 L86.69,41.08 L84.92,41.83 L83.41,43.03 L82.27,44.58 L76.11,44.58 L75.08,39.92 L73.25,35.52 L70.68,31.50 L67.45,27.99 L63.65,25.10 L59.40,22.93 L54.84,21.53 L53.33,21.59 L51.99,22.29 L51.07,23.50 L50.76,24.98 L51.11,26.45 L52.06,27.64 L53.42,28.30 L57.16,29.48 L60.60,31.36 L63.61,33.87 L66.07,36.91 L67.90,40.38 L69.02,44.13 L69.39,48.03 L69.00,51.93 L67.86,55.68 L66.02,59.14 L63.54,62.17 L60.52,64.67 L57.08,66.53 L53.33,67.70 L51.93,68.33 L50.94,69.52 L50.57,71.01 L50.87,72.52 L51.81,73.74 L53.18,74.44 L54.72,74.48 L59.28,73.10 L63.54,70.93 L67.34,68.06 L70.59,64.57 L73.17,60.56 L75.01,56.16 L76.05,51.50 L82.19,51.50 L83.31,53.12 L84.83,54.37 L86.64,55.16 L88.59,55.43 L88.77,55.43 L91.00,55.09 L93.02,54.06 L94.62,52.47 L95.65,50.45 L96.00,48.22 L96.00,48.04 L95.65,45.81 L94.62,43.80 L93.03,42.20 L91.01,41.17 L88.78,40.82 L88.78,40.82 Z" fill="#3cd4c2" stroke="#1e1e1e" stroke-width="1" stroke-linejoin="round"/></svg>