<svg xmlns="http://www.w3.org/2000/svg" viewBox="1.57 1.00 98.87 100.00"><path d="M32.13,60.13 L56.67,60.13 L56.67,84.61 L32.13,84.61 L32.13,60.13 Z" fill="#3f93e6" stroke="#1e1e1e" stroke-width="1" stroke-linejoin="round"/><path d="M3.80,27.49 L28.34,27.49 L28.34,3.00 L6.97,3.00 L5.67,3.26 L4.57,4.00 L3.83,5.10 L3.57,6.40 L3.80,27.49 Z" fill="#3f93e6" stroke="#1e1e1e" stroke-width="1" stroke-linejoin="round"/><path d="M7.20,84.61 L28.34,84.61 L28.34,60.13 L3.57,60.13 L3.57,81.21 L3.83,82.51 L4.57,83.61 L5.67,84.35 L6.97,84.61 L7.20,84.61 Z" fill="#3f93e6" stroke="#1e1e1e" stroke-width="1" stroke-linejoin="round"/><path d="M3.80,56.27 L28.34,56.27 L28.34,31.57 L3.57,31.57 L3.80,56.27 Z" fill="#3f93e6" stroke="#1e1e1e" stroke-width="1" stroke-linejoin="round"/><path d="M60.92,84.61 L82.00,84.61 L83.30,84.35 L84.41,83.61 L85.14,82.51 L85.40,81.21 L85.40,60.13 L60.69,60.13 L60.92,84.61 Z" fill="#3f93e6" stroke="#1e1e1e" stroke-width="1" stroke-linejoin="round"/><path d="M32.59,56.27 L56.67,56.27 L56.67,31.57 L32.13,31.57 L32.59,56.27 Z" fill="#3f93e6" stroke="#1e1e1e" stroke-width="1" stroke-linejoin="round"/><path d="M60.92,56.27 L85.01,56.27 L85.01,31.57 L60.69,31.57 L60.92,56.27 Z" fill="#3f93e6" stroke="#1e1e1e" stroke-width="1" stroke-linejoin="round"/><path d="M60.92,3.23 L60.92,27.49 L85.01,27.49 L85.01,6.40 L84.75,5.10 L84.01,4.00 L82.91,3.26 L81.61,3.00 L60.92,3.23 Z" fill="#3f93e6" stroke="#1e1e1e" stroke-width="1" stroke-linejoin="round"/><path d="M32.59,27.71 L56.67,27.71 L56.67,3.00 L32.13,3.00 L32.59,27.71 Z" fill="#3f93e6" stroke="#1e1e1e" stroke-width="1" stroke-linejoin="round"/><path d="M98.44,60.64 L98.44,86.20 L76.51,99.00 L76.51,73.45 L98.44,60.64 Z" fill="#32bedd" stroke="#1e1e1e" stroke-width="1" stroke-linejoin="round"/><path d="M98.44,60.64 L76.51,73.50 L54.57,60.64 L76.51,47.83 L98.44,60.64 Z" fill="#9cebff" stroke="#1e1e1e" stroke-width="1" stroke-linejoin="round"/><path d="M76.51,73.50 L76.51,99.00 L54.57,86.20 L54.57,60.64 L76.51,73.50 Z" fill="#50e6ff" stroke="#1e1e1e" stroke-width="1" stroke-linejoin="round"/><path d="M54.57,86.20 L76.51,73.45 L76.51,99.00 L54.57,86.20 Z" fill="#9cebff" stroke="#1e1e1e" stroke-width="1" stroke-linejoin="round"/><path d="M98.44,86.20 L76.51,73.45 L76.51,99.00 L98.44,86.20 Z" fill="#50e6ff" stroke="#1e1e1e" stroke-width="1" stroke-linejoin="round"/></svg>