<svg xmlns="http://www.w3.org/2000/svg" viewBox="1.36 0.83 93.28 94.35"><path d="M30.24,56.59 L53.33,56.59 L53.33,79.63 L30.24,79.63 L30.24,56.59 Z" fill="#3f93e6" stroke="#1e1e1e" stroke-width="1" stroke-linejoin="round"/><path d="M3.57,25.87 L26.67,25.87 L26.67,2.83 L6.56,2.83 L5.34,3.07 L4.30,3.76 L3.60,4.80 L3.36,6.03 L3.57,25.87 Z" fill="#3f93e6" stroke="#1e1e1e" stroke-width="1" stroke-linejoin="round"/><path d="M6.77,79.63 L26.67,79.63 L26.67,56.59 L3.36,56.59 L3.36,76.43 L3.60,77.65 L4.30,78.69 L5.34,79.38 L6.56,79.63 L6.77,79.63 Z" fill="#3f93e6" stroke="#1e1e1e" stroke-width="1" stroke-linejoin="round"/><path d="M3.57,52.96 L26.67,52.96 L26.67,29.71 L3.36,29.71 L3.57,52.96 Z" fill="#3f93e6" stroke="#1e1e1e" stroke-width="1" stroke-linejoin="round"/><path d="M57.33,79.63 L77.17,79.63 L78.40,79.38 L79.44,78.69 L80.13,77.65 L80.37,76.43 L80.37,56.59 L57.12,56.59 L57.33,79.63 Z" fill="#3f93e6" stroke="#1e1e1e" stroke-width="1" stroke-linejoin="round"/><path d="M30.67,52.96 L53.33,52.96 L53.33,29.71 L30.24,29.71 L30.67,52.96 Z" fill="#3f93e6" stroke="#1e1e1e" stroke-width="1" stroke-linejoin="round"/><path d="M57.33,52.96 L80.00,52.96 L80.00,29.71 L57.12,29.71 L57.33,52.96 Z" fill="#3f93e6" stroke="#1e1e1e" stroke-width="1" stroke-linejoin="round"/><path d="M57.33,3.04 L57.33,25.87 L80.00,25.87 L80.00,6.03 L79.76,4.80 L79.06,3.76 L78.02,3.07 L76.80,2.83 L57.33,3.04 Z" fill="#3f93e6" stroke="#1e1e1e" stroke-width="1" stroke-linejoin="round"/><path d="M30.67,26.08 L53.33,26.08 L53.33,2.83 L30.24,2.83 L30.67,26.08 Z" fill="#3f93e6" stroke="#1e1e1e" stroke-width="1" stroke-linejoin="round"/><path d="M92.64,57.07 L92.64,81.12 L72.00,93.17 L72.00,69.12 L92.64,57.07 Z" fill="#32bedd" stroke="#1e1e1e" stroke-width="1" stroke-linejoin="round"/><path d="M92.64,57.07 L72.00,69.17 L51.36,57.07 L72.00,45.01 L92.64,57.07 Z" fill="#9cebff" stroke="#1e1e1e" stroke-width="1" stroke-linejoin="round"/><path d="M72.00,69.17 L72.00,93.17 L51.36,81.12 L51.36,57.07 L72.00,69.17 Z" fill="#50e6ff" stroke="#1e1e1e" stroke-width="1" stroke-linejoin="round"/><path d="M51.36,81.12 L72.00,69.12 L72.00,93.17 L51.36,81.12 Z" fill="#9cebff" stroke="#1e1e1e" stroke-width="1" stroke-linejoin="round"/><path d="M92.64,81.12 L72.00,69.12 L72.00,93.17 L92.64,81.12 Z" fill="#50e6ff" stroke="#1e1e1e" stroke-width="1" stroke-linejoin="round"/></svg>