<svg xmlns="http://www.w3.org/2000/svg" viewBox="-1.99 3.11 99.97 89.77"><path d="M94.12,52.94 L54.12,7.82 L52.81,6.64 L51.31,5.79 L49.69,5.28 L48.00,5.11 L46.32,5.28 L44.70,5.79 L43.20,6.64 L41.88,7.82 L1.88,52.94 L0.91,54.32 L0.29,55.82 L0.01,57.37 L0.08,58.94 L0.49,60.45 L1.21,61.87 L2.25,63.14 L3.61,64.20 L43.60,89.20 L44.63,89.75 L45.72,90.14 L47.99,90.45 L50.27,90.14 L51.36,89.75 L52.39,89.20 L92.38,64.20 L93.73,63.14 L94.78,61.87 L95.50,60.46 L95.91,58.94 L95.97,57.37 L95.70,55.82 L95.08,54.32 L94.11,52.94 L94.11,52.94 L94.12,52.94 Z" fill="#1152a6" stroke="#1e1e1e" stroke-width="1" stroke-linejoin="round"/><path d="M24.73,54.18 L25.00,54.35 L48.01,68.73 L48.01,68.73 L71.28,54.18 L71.29,54.18 L71.28,54.18 L48.01,27.91 L24.73,54.18 Z" fill="#88eafc" stroke="#1e1e1e" stroke-width="1" stroke-linejoin="round"/><path d="M54.12,7.82 L52.81,6.64 L51.31,5.79 L49.69,5.28 L48.01,5.11 L46.32,5.28 L44.70,5.79 L43.20,6.64 L41.89,7.82 L1.89,52.94 L0.91,54.32 L0.29,55.82 L0.02,57.37 L0.09,58.94 L0.49,60.45 L1.22,61.87 L2.26,63.14 L3.61,64.20 L20.28,74.62 L22.07,75.59 L24.27,76.47 L26.76,77.10 L29.43,77.34 L31.86,77.17 L34.18,76.66 L36.36,75.84 L38.37,74.75 L38.38,74.74 L48.00,68.73 L24.73,54.18 L48.59,27.26 L49.75,26.06 L51.05,24.99 L52.46,24.06 L53.98,23.27 L55.58,22.64 L57.28,22.17 L59.04,21.88 L60.86,21.79 L62.72,21.89 L64.52,22.20 L66.24,22.68 L67.87,23.34 L54.12,7.83 L54.12,7.82 L54.12,7.82 Z" fill="#34b8f2" stroke="#1e1e1e" stroke-width="1" stroke-linejoin="round"/><path d="M48.01,90.45 L50.28,90.14 L51.37,89.75 L52.40,89.21 L92.39,64.20 L93.75,63.14 L94.79,61.88 L95.51,60.46 L95.92,58.94 L95.99,57.38 L95.71,55.82 L95.09,54.33 L94.12,52.94 L54.12,7.82 L52.81,6.64 L51.31,5.79 L49.69,5.28 L48.01,5.11 L48.01,90.45 Z" fill="#041642" stroke="#1e1e1e" stroke-width="1" stroke-linejoin="round" opacity="0.16"/><path d="M93.63,83.52 L94.55,83.34 L95.29,82.83 L95.79,82.09 L95.98,81.17 L95.98,81.17 L95.71,78.52 L94.96,76.04 L93.76,73.80 L92.16,71.83 L90.23,70.20 L88.01,68.95 L85.55,68.15 L82.90,67.83 L80.02,68.06 L77.51,68.75 L75.35,69.87 L73.55,71.40 L72.09,73.32 L70.97,75.60 L70.18,78.22 L69.72,81.17 L69.81,82.10 L70.23,82.90 L70.91,83.49 L71.80,83.79 L93.63,83.79 L93.63,83.52 L93.63,83.52 Z" fill="#773adc" stroke="#1e1e1e" stroke-width="1" stroke-linejoin="round"/><path d="M82.90,69.54 L80.81,69.25 L78.90,68.36 L82.85,78.67 L86.75,68.42 L84.90,69.24 L82.90,69.54 Z" fill="#ffffff" stroke="#ffffff" stroke-width="1" stroke-linejoin="round" opacity="0.8"/><ellipse cx="82.90" cy="62.17" rx="7.37" ry="7.37" fill="#773adc" stroke="#773adc" stroke-width="1"/><path d="M78.85,90.89 L80.20,90.63 L81.32,89.91 L82.08,88.82 L82.37,87.47 L82.37,87.37 L82.37,86.94 L81.62,82.94 L80.41,79.21 L78.72,75.83 L77.69,74.30 L76.54,72.88 L75.27,71.59 L73.87,70.44 L72.35,69.44 L70.69,68.60 L68.91,67.93 L67.00,67.44 L64.96,67.13 L62.78,67.03 L60.61,67.12 L58.56,67.38 L56.64,67.81 L54.84,68.41 L53.18,69.17 L51.64,70.08 L50.23,71.15 L48.95,72.37 L47.79,73.73 L46.76,75.23 L45.85,76.87 L45.07,78.65 L43.88,82.58 L43.19,86.99 L43.31,88.36 L43.93,89.54 L44.94,90.41 L46.25,90.83 L46.29,90.83 L78.91,90.83 L78.85,90.89 L78.85,90.89 Z" fill="#a67af4" stroke="#1e1e1e" stroke-width="1" stroke-linejoin="round"/><path d="M62.94,69.64 L61.37,69.53 L59.85,69.20 L58.39,68.65 L57.01,67.88 L62.89,83.52 L68.76,68.20 L67.39,68.87 L65.95,69.34 L64.46,69.60 L62.94,69.64 Z" fill="#ffffff" stroke="#ffffff" stroke-width="1" stroke-linejoin="round" opacity="0.8"/><ellipse cx="62.89" cy="58.65" rx="11.00" ry="11.00" fill="#a67af4" stroke="#1e1e1e" stroke-width="1"/></svg>