<svg xmlns="http://www.w3.org/2000/svg" viewBox="1.21 1.21 100.00 98.82"><path d="M31.55,59.89 L55.90,59.89 L55.90,84.36 L31.55,84.36 L31.55,59.89 Z" fill="#3f93e6" stroke="#1e1e1e" stroke-width="1" stroke-linejoin="round"/><path d="M3.43,27.50 L27.50,27.50 L27.50,3.21 L6.58,3.21 L5.29,3.46 L4.19,4.19 L3.46,5.29 L3.21,6.58 L3.43,27.50 Z" fill="#3f93e6" stroke="#1e1e1e" stroke-width="1" stroke-linejoin="round"/><path d="M6.58,84.36 L27.50,84.36 L27.50,59.89 L3.21,59.89 L3.21,80.82 L3.41,82.16 L4.13,83.31 L5.25,84.09 L6.58,84.36 L6.58,84.36 Z" fill="#3f93e6" stroke="#1e1e1e" stroke-width="1" stroke-linejoin="round"/><path d="M3.21,56.24 L27.50,56.24 L27.50,31.55 L3.21,31.55 L3.21,56.24 Z" fill="#3f93e6" stroke="#1e1e1e" stroke-width="1" stroke-linejoin="round"/><path d="M59.95,84.36 L80.87,84.36 L82.16,84.10 L83.26,83.37 L83.99,82.28 L84.25,80.98 L84.25,59.89 L59.95,59.89 L59.95,84.36 Z" fill="#3f93e6" stroke="#1e1e1e" stroke-width="1" stroke-linejoin="round"/><path d="M31.83,56.24 L55.90,56.24 L55.90,31.55 L31.55,31.55 L31.83,56.24 Z" fill="#3f93e6" stroke="#1e1e1e" stroke-width="1" stroke-linejoin="round"/><path d="M60.23,56.24 L84.36,56.24 L84.36,31.55 L59.95,31.55 L60.23,56.24 Z" fill="#3f93e6" stroke="#1e1e1e" stroke-width="1" stroke-linejoin="round"/><path d="M60.23,3.60 L60.23,27.50 L84.36,27.50 L84.36,6.58 L84.10,5.29 L83.37,4.19 L82.28,3.46 L80.98,3.21 L60.23,3.60 Z" fill="#3f93e6" stroke="#1e1e1e" stroke-width="1" stroke-linejoin="round"/><path d="M32.11,27.89 L55.90,27.89 L55.90,3.21 L31.55,3.21 L32.11,27.89 Z" fill="#3f93e6" stroke="#1e1e1e" stroke-width="1" stroke-linejoin="round"/><path d="M59.95,84.36 L83.29,84.36 L82.66,83.62 L82.28,82.73 L59.78,82.73 L59.95,84.36 Z" fill="#0b3e6f" stroke="#0b3e6f" stroke-width="1" stroke-linejoin="round" opacity="0.3"/><ellipse cx="74.57" cy="74.63" rx="23.40" ry="23.40" fill="#32bedd" stroke="#1e1e1e" stroke-width="1"/><path d="M95.94,78.00 L94.99,78.32 L93.97,78.45 L93.03,78.59 L92.29,78.90 L90.25,80.50 L88.75,82.62 L88.70,83.18 L88.35,83.63 L87.22,84.46 L86.37,85.42 L86.14,85.99 L86.09,86.62 L86.25,87.35 L86.66,88.18 L85.76,87.94 L85.37,87.37 L85.15,86.71 L84.75,86.21 L82.89,85.85 L81.05,86.32 L79.59,87.53 L78.79,89.25 L78.90,90.44 L79.69,91.33 L80.46,91.51 L81.21,91.26 L81.72,90.66 L82.37,90.16 L83.18,90.32 L82.97,91.10 L82.71,91.93 L82.73,92.30 L82.94,92.61 L83.40,92.82 L84.19,92.91 L84.55,93.04 L84.67,93.36 L84.53,94.20 L84.52,94.63 L84.72,95.11 L85.10,95.55 L85.60,95.89 L85.87,96.05 L85.70,96.05 L85.60,96.17 L85.60,96.27 L85.60,96.17 L84.89,96.06 L84.29,95.77 L83.30,94.87 L82.31,93.91 L81.73,93.56 L81.04,93.36 L79.82,93.00 L78.62,92.57 L77.47,92.20 L76.38,91.70 L75.51,90.88 L75.21,90.29 L75.02,89.53 L74.29,87.95 L73.00,86.78 L72.13,85.90 L71.25,84.98 L70.74,83.90 L70.02,82.95 L69.22,81.44 L68.95,79.75 L69.23,78.06 L69.83,74.90 L69.64,71.68 L68.67,68.61 L67.87,65.96 L67.17,64.78 L65.97,63.78 L64.84,63.38 L64.27,63.62 L63.93,64.01 L63.74,64.11 L63.49,64.06 L62.96,64.01 L62.55,64.29 L62.03,64.90 L60.84,65.38 L59.64,65.97 L58.36,66.43 L56.91,66.53 L58.88,65.57 L59.36,65.29 L59.75,64.89 L59.82,64.29 L59.28,63.44 L58.89,62.90 L58.68,62.33 L58.66,61.72 L58.83,61.10 L59.22,60.48 L59.84,59.88 L60.69,59.30 L61.81,58.77 L61.34,58.32 L60.66,57.98 L60.20,57.52 L60.19,57.17 L60.40,56.69 L61.04,55.97 L61.63,55.87 L62.21,56.17 L62.82,56.69 L62.97,55.85 L62.81,55.00 L62.73,54.24 L62.84,53.92 L63.10,53.65 L65.07,52.70 L67.15,52.02 L68.24,51.93 L69.06,52.64 L69.98,53.62 L71.09,54.36 L72.19,55.09 L73.11,56.07 L73.37,56.28 L73.69,56.26 L74.35,56.07 L75.18,55.88 L75.95,55.86 L77.35,56.26 L78.66,57.03 L79.97,57.93 L80.99,58.72 L81.59,59.30 L82.12,59.63 L82.95,59.67 L83.54,59.61 L84.13,59.67 L84.80,59.92 L85.43,60.01 L86.02,59.84 L86.55,59.33 L87.49,58.92 L88.01,58.04 L88.50,57.27 L88.84,57.07 L89.36,57.14 L89.17,58.75 L89.38,60.36 L89.98,61.86 L90.51,61.46 L90.88,61.04 L90.96,60.48 L90.60,59.67 L90.30,58.37 L90.84,57.16 L92.01,56.52 L93.35,56.39 L94.61,56.85 L95.55,57.81 L96.24,59.29 L96.81,60.77 L97.41,62.19 L98.19,63.44 L98.36,63.77 L98.34,64.04 L98.19,64.56 L98.03,64.72 L97.62,64.67 L96.62,64.22 L97.01,66.64 L95.31,66.95 L93.65,66.44 L92.40,65.24 L92.49,64.46 L93.08,63.94 L93.86,63.42 L94.07,63.07 L94.14,62.59 L94.05,61.94 L93.58,61.47 L93.03,61.53 L92.74,61.98 L92.41,62.43 L91.80,63.07 L91.28,63.90 L91.16,64.96 L91.10,65.81 L90.64,66.11 L89.97,66.03 L89.31,65.74 L88.66,65.50 L88.12,65.47 L87.25,65.86 L86.58,66.61 L85.99,67.37 L85.67,68.06 L85.81,68.75 L86.26,69.40 L86.89,69.96 L88.14,70.94 L88.63,71.50 L88.97,72.21 L90.10,70.74 L90.60,68.95 L90.68,68.14 L90.97,67.34 L91.53,66.70 L92.40,66.36 L93.43,66.50 L94.31,67.06 L94.88,67.94 L95.42,68.51 L96.17,68.67 L97.88,72.87 L99.21,77.22 L97.12,76.93 L96.89,76.10 L96.32,75.83 L95.61,75.80 L94.93,75.70 L95.00,76.34 L95.37,76.85 L95.78,77.36 L95.94,78.00 Z" fill="#b4ec36" stroke="#1e1e1e" stroke-width="1" stroke-linejoin="round"/><path d="M87.85,57.76 L87.32,57.26 L86.96,56.74 L86.96,56.17 L87.51,55.51 L88.58,54.54 L88.86,54.69 L89.20,55.51 L89.11,56.44 L88.63,57.25 L87.85,57.76 Z" fill="#b4ec36" stroke="#b4ec36" stroke-width="1" stroke-linejoin="round"/><path d="M89.59,55.51 L90.07,55.17 L90.54,55.07 L90.91,55.18 L91.11,55.51 L91.03,55.92 L90.69,56.28 L89.64,56.80 L89.26,56.80 L89.17,56.51 L89.59,55.51 Z" fill="#b4ec36" stroke="#b4ec36" stroke-width="1" stroke-linejoin="round"/><path d="M85.26,50.28 L83.29,50.62 L83.52,49.79 L84.11,49.36 L84.88,49.23 L85.65,49.32 L86.03,49.53 L85.92,49.78 L85.26,50.28 Z" fill="#b4ec36" stroke="#b4ec36" stroke-width="1" stroke-linejoin="round"/></svg>