<svg xmlns="http://www.w3.org/2000/svg" viewBox="-2.00 -2.00 100.00 100.00"><ellipse cx="48.00" cy="48.00" rx="48.00" ry="48.00" fill="#43d9f7" stroke="#1e1e1e" stroke-width="1"/><path d="M48.00,0.00 L52.91,0.25 L57.67,0.98 L62.27,2.16 L66.68,3.77 L70.88,5.79 L74.84,8.20 L78.53,10.96 L81.94,14.06 L85.04,17.47 L87.80,21.16 L90.21,25.12 L92.23,29.32 L93.84,33.73 L95.02,38.33 L95.75,43.09 L96.00,48.00 L95.75,52.91 L95.02,57.67 L93.84,62.27 L92.23,66.68 L90.21,70.88 L87.80,74.84 L85.04,78.53 L81.94,81.94 L78.53,85.04 L74.84,87.80 L70.88,90.21 L66.68,92.23 L62.27,93.84 L57.67,95.02 L52.91,95.75 L48.00,96.00 L43.09,95.75 L38.33,95.02 L33.73,93.84 L29.32,92.23 L25.12,90.21 L21.16,87.80 L17.47,85.04 L14.06,81.94 L10.96,78.53 L8.20,74.84 L5.79,70.88 L3.77,66.68 L2.16,62.27 L0.98,57.67 L0.25,52.91 L0.00,48.00 L0.25,43.09 L0.98,38.33 L2.16,33.73 L3.77,29.32 L5.79,25.12 L8.20,21.16 L10.96,17.47 L14.06,14.06 L17.47,10.96 L21.16,8.20 L25.12,5.79 L29.32,3.77 L33.73,2.16 L38.33,0.98 L43.09,0.25 L48.00,0.00 Z" fill="#1152a6" stroke="#1e1e1e" stroke-width="1" stroke-linejoin="round"/><path d="M62.11,69.59 L33.90,69.59 L35.18,73.75 L36.65,77.48 L38.28,80.76 L40.05,83.54 L41.93,85.78 L43.91,87.43 L45.94,88.45 L46.97,88.71 L48.01,88.80 L49.04,88.71 L50.07,88.45 L52.10,87.43 L54.08,85.78 L55.96,83.54 L57.73,80.76 L59.37,77.48 L60.83,73.75 L62.11,69.59 L62.11,69.59 Z" fill="#43d9f7" stroke="#1e1e1e" stroke-width="1" stroke-linejoin="round"/><path d="M26.44,69.59 L13.38,69.59 L15.21,72.28 L17.24,74.80 L19.46,77.15 L21.86,79.33 L24.43,81.30 L27.15,83.08 L30.02,84.63 L33.02,85.96 L31.23,82.83 L29.61,79.36 L28.17,75.57 L26.93,71.49 L26.44,69.59 L26.44,69.59 Z" fill="#43d9f7" stroke="#1e1e1e" stroke-width="1" stroke-linejoin="round"/><path d="M82.62,69.59 L69.56,69.59 L68.27,74.24 L66.73,78.54 L64.96,82.46 L62.97,85.96 L65.79,84.72 L68.49,83.29 L71.07,81.65 L73.51,79.84 L75.81,77.85 L77.95,75.70 L79.93,73.40 L81.74,70.95 L82.63,69.59 L82.62,69.59 Z" fill="#43d9f7" stroke="#1e1e1e" stroke-width="1" stroke-linejoin="round"/><path d="M24.45,38.40 L8.34,38.40 L8.31,38.49 L7.48,43.16 L7.20,48.01 L7.37,51.76 L7.87,55.43 L8.69,58.98 L9.81,62.41 L25.04,62.41 L24.26,55.37 L23.99,48.01 L24.11,43.14 L24.45,38.41 L24.45,38.40 Z" fill="#43d9f7" stroke="#1e1e1e" stroke-width="1" stroke-linejoin="round"/><path d="M64.30,38.40 L31.70,38.40 L31.32,43.11 L31.19,48.00 L31.49,55.43 L32.35,62.40 L63.65,62.40 L64.51,55.43 L64.81,48.00 L64.68,43.11 L64.30,38.40 Z" fill="#43d9f7" stroke="#1e1e1e" stroke-width="1" stroke-linejoin="round"/><path d="M87.66,38.40 L71.55,38.40 L71.89,43.14 L72.00,48.01 L71.73,55.37 L70.95,62.40 L86.18,62.40 L87.30,58.98 L88.12,55.42 L88.62,51.76 L88.79,48.01 L88.50,43.12 L87.66,38.40 L87.66,38.40 Z" fill="#43d9f7" stroke="#1e1e1e" stroke-width="1" stroke-linejoin="round"/><path d="M33.03,10.03 L32.92,10.07 L29.32,11.71 L25.93,13.67 L22.75,15.95 L19.80,18.50 L17.12,21.33 L14.71,24.40 L12.60,27.70 L10.80,31.20 L25.43,31.20 L26.76,25.11 L28.49,19.50 L30.59,14.45 L33.02,10.03 L33.03,10.03 Z" fill="#43d9f7" stroke="#1e1e1e" stroke-width="1" stroke-linejoin="round"/><path d="M48.00,7.19 L47.45,7.22 L46.31,7.43 L45.18,7.84 L44.07,8.46 L42.97,9.26 L40.85,11.41 L38.86,14.24 L37.02,17.69 L35.37,21.70 L33.94,26.23 L32.78,31.20 L63.22,31.20 L62.06,26.24 L60.64,21.73 L58.99,17.72 L57.16,14.28 L55.17,11.45 L53.06,9.29 L51.97,8.48 L50.86,7.87 L49.73,7.44 L48.60,7.23 L47.99,7.19 L48.00,7.19 Z" fill="#43d9f7" stroke="#1e1e1e" stroke-width="1" stroke-linejoin="round"/><path d="M62.98,10.03 L63.49,10.87 L65.75,15.18 L67.69,20.04 L69.31,25.41 L70.57,31.21 L85.19,31.21 L83.49,27.85 L81.49,24.69 L79.22,21.73 L76.69,18.99 L73.92,16.49 L70.94,14.25 L67.75,12.29 L64.37,10.62 L62.98,10.04 L62.98,10.03 Z" fill="#43d9f7" stroke="#1e1e1e" stroke-width="1" stroke-linejoin="round"/><path d="M48.00,0.00 L49.40,4.31 L50.80,9.15 L52.14,14.49 L53.37,20.32 L54.42,26.60 L55.25,33.32 L55.78,40.46 L55.97,48.00 L55.78,55.54 L55.25,62.68 L54.42,69.40 L53.37,75.68 L52.14,81.51 L50.80,86.85 L49.40,91.69 L48.00,96.00 L52.88,95.75 L57.62,95.02 L62.21,93.83 L66.61,92.20 L70.80,90.17 L74.76,87.76 L78.46,84.98 L81.87,81.87 L84.98,78.46 L87.76,74.76 L90.17,70.80 L92.20,66.61 L93.83,62.21 L95.02,57.62 L95.75,52.88 L96.00,48.00 L95.75,43.09 L95.02,38.33 L93.84,33.73 L92.23,29.32 L90.21,25.12 L87.80,21.16 L85.04,17.47 L81.94,14.06 L78.53,10.96 L74.84,8.20 L70.88,5.79 L66.68,3.77 L62.27,2.16 L57.67,0.98 L52.91,0.25 L48.00,0.00 Z" fill="#0393e3" stroke="#1e1e1e" stroke-width="1" stroke-linejoin="round"/></svg>