<svg xmlns="http://www.w3.org/2000/svg" viewBox="-1.99 3.15 99.97 89.70"><path d="M94.12,52.98 L54.12,7.86 L52.81,6.67 L51.31,5.83 L49.69,5.32 L48.00,5.15 L46.32,5.32 L44.70,5.83 L43.20,6.67 L41.88,7.86 L1.88,52.98 L0.91,54.36 L0.29,55.85 L0.01,57.41 L0.08,58.97 L0.49,60.49 L1.21,61.91 L2.25,63.17 L3.61,64.23 L43.60,89.24 L44.63,89.79 L45.72,90.18 L47.99,90.49 L50.27,90.18 L51.36,89.79 L52.39,89.24 L92.38,64.23 L93.73,63.18 L94.78,61.91 L95.50,60.49 L95.91,58.98 L95.97,57.41 L95.70,55.85 L95.08,54.36 L94.11,52.98 L94.11,52.98 L94.12,52.98 Z" fill="#1152a6" stroke="#1e1e1e" stroke-width="1" stroke-linejoin="round"/><path d="M24.73,54.21 L25.00,54.38 L48.01,68.76 L48.01,68.76 L71.28,54.21 L71.29,54.21 L71.28,54.21 L48.01,27.95 L24.73,54.21 Z" fill="#88eafc" stroke="#1e1e1e" stroke-width="1" stroke-linejoin="round"/><path d="M54.12,7.86 L52.81,6.67 L51.31,5.83 L49.69,5.32 L48.01,5.15 L46.32,5.32 L44.70,5.83 L43.20,6.67 L41.89,7.86 L1.89,52.98 L0.91,54.36 L0.29,55.85 L0.02,57.41 L0.09,58.97 L0.49,60.49 L1.22,61.91 L2.26,63.17 L3.61,64.23 L20.28,74.66 L22.07,75.63 L24.27,76.50 L26.76,77.14 L29.43,77.38 L31.86,77.21 L34.18,76.70 L36.36,75.88 L38.37,74.78 L38.38,74.78 L48.00,68.76 L24.73,54.21 L48.59,27.30 L49.75,26.10 L51.05,25.03 L52.46,24.10 L53.98,23.31 L55.58,22.67 L57.28,22.21 L59.04,21.92 L60.86,21.82 L62.72,21.93 L64.52,22.23 L66.24,22.72 L67.87,23.38 L54.12,7.87 L54.12,7.86 L54.12,7.86 Z" fill="#34b8f2" stroke="#1e1e1e" stroke-width="1" stroke-linejoin="round"/><path d="M48.01,90.49 L50.28,90.18 L51.37,89.79 L52.40,89.24 L92.39,64.24 L93.75,63.18 L94.79,61.92 L95.51,60.50 L95.92,58.98 L95.99,57.42 L95.71,55.86 L95.09,54.36 L94.12,52.98 L54.12,7.86 L52.81,6.67 L51.31,5.83 L49.69,5.32 L48.01,5.15 L48.01,90.49 L48.01,90.49 Z" fill="#041642" stroke="#1e1e1e" stroke-width="1" stroke-linejoin="round" opacity="0.16"/><path d="M72.11,90.85 L72.11,90.85 L76.22,87.80 L79.83,84.91 L82.98,82.19 L85.68,79.64 L87.99,77.25 L89.92,75.03 L91.51,72.96 L92.79,71.07 L94.58,67.75 L95.53,65.07 L95.91,63.02 L95.98,61.59 L95.94,59.71 L95.74,57.39 L95.26,54.83 L94.37,52.24 L93.74,51.00 L92.97,49.83 L92.03,48.74 L90.92,47.78 L89.62,46.96 L88.11,46.31 L86.38,45.85 L84.42,45.61 L82.38,45.62 L80.41,45.95 L78.55,46.60 L76.82,47.54 L75.27,48.74 L73.93,50.18 L72.83,51.85 L72.00,53.71 L71.21,51.83 L70.14,50.15 L68.83,48.68 L67.30,47.45 L65.60,46.48 L63.74,45.80 L61.78,45.44 L59.74,45.40 L57.78,45.66 L56.04,46.15 L54.53,46.82 L53.21,47.67 L52.09,48.65 L51.14,49.75 L50.35,50.94 L49.71,52.20 L48.79,54.81 L48.29,57.38 L48.07,59.71 L48.02,61.59 L48.10,63.02 L48.49,65.07 L49.46,67.74 L51.26,71.05 L54.14,74.99 L56.07,77.20 L58.36,79.57 L61.05,82.11 L64.18,84.80 L67.76,87.66 L71.84,90.69 L72.11,90.85 Z" fill="#eb3136" stroke="#1e1e1e" stroke-width="1" stroke-linejoin="round"/><path d="M95.98,59.89 L85.32,59.89 L84.90,60.01 L84.58,60.31 L81.22,66.02 L80.97,66.22 L80.64,66.18 L80.47,66.02 L75.41,56.85 L74.97,56.37 L74.32,56.35 L73.82,56.85 L69.34,70.71 L69.12,70.95 L68.79,70.96 L68.54,70.71 L64.50,61.39 L64.02,60.95 L63.37,60.98 L62.95,61.39 L57.63,71.08 L57.30,71.44 L56.83,71.56 L51.71,71.56 L54.27,75.02 L58.69,75.02 L59.13,74.88 L59.44,74.54 L63.22,67.51 L68.55,79.18 L68.99,79.66 L69.64,79.68 L70.14,79.18 L75.47,63.57 L80.00,72.42 L80.51,72.82 L81.16,72.75 L81.49,72.42 L86.82,63.78 L87.14,63.48 L87.56,63.35 L95.98,63.35 L95.98,59.89 Z" fill="#ffffff" stroke="#1e1e1e" stroke-width="1" stroke-linejoin="round"/></svg>