<svg xmlns="http://www.w3.org/2000/svg" viewBox="-2.00 -2.00 100.00 100.00"><path d="M50.71,68.63 L50.91,66.35 L51.49,64.19 L52.41,62.20 L53.64,60.41 L55.15,58.85 L56.89,57.56 L58.84,56.57 L60.97,55.91 L61.57,53.26 L62.62,50.81 L64.08,48.61 L65.89,46.70 L68.01,45.14 L70.39,43.97 L72.99,43.23 L75.76,42.97 L77.87,43.12 L79.89,43.56 L80.06,40.01 L79.86,35.92 L79.25,31.95 L78.26,28.11 L76.92,24.44 L75.23,20.94 L73.23,17.64 L70.92,14.56 L68.34,11.72 L65.50,9.14 L62.41,6.83 L59.11,4.83 L55.61,3.14 L51.94,1.80 L48.10,0.81 L44.12,0.21 L40.03,0.00 L35.94,0.21 L31.96,0.81 L28.13,1.80 L24.45,3.14 L20.95,4.83 L17.65,6.83 L14.57,9.14 L11.73,11.72 L9.14,14.56 L6.84,17.64 L4.83,20.94 L3.15,24.44 L1.80,28.11 L0.81,31.95 L0.21,35.92 L0.00,40.01 L0.21,44.10 L0.81,48.07 L1.80,51.91 L3.15,55.58 L4.83,59.08 L6.84,62.38 L9.14,65.46 L11.72,68.30 L14.57,70.88 L17.65,73.19 L20.95,75.19 L24.45,76.88 L28.13,78.22 L31.96,79.21 L35.94,79.81 L40.03,80.02 L42.78,79.93 L45.49,79.65 L48.13,79.19 L50.71,78.57 L50.71,68.63 L50.71,68.63 Z" fill="#43d9f7" stroke="#1e1e1e" stroke-width="1" stroke-linejoin="round"/><path d="M50.71,68.63 L50.91,66.35 L51.49,64.19 L52.41,62.20 L53.64,60.41 L55.15,58.85 L56.89,57.56 L58.84,56.57 L60.97,55.91 L61.37,53.91 L62.04,52.01 L59.18,52.01 L59.83,46.15 L60.05,40.01 L59.95,35.95 L59.67,32.01 L73.11,32.01 L73.82,35.93 L74.06,40.01 L73.91,43.10 L75.75,42.97 L77.87,43.12 L79.89,43.56 L80.06,40.01 L79.85,35.92 L79.25,31.95 L78.26,28.11 L76.92,24.44 L75.23,20.94 L73.23,17.64 L70.92,14.56 L68.34,11.72 L65.49,9.14 L62.41,6.83 L59.11,4.83 L55.61,3.14 L51.94,1.80 L48.10,0.81 L44.12,0.21 L40.03,0.00 L35.94,0.21 L31.96,0.81 L28.13,1.80 L24.45,3.14 L20.95,4.83 L17.65,6.83 L14.57,9.14 L11.73,11.72 L9.14,14.56 L6.84,17.64 L4.83,20.94 L3.15,24.44 L1.80,28.11 L0.81,31.95 L0.21,35.92 L0.00,40.01 L0.21,44.10 L0.81,48.07 L1.80,51.91 L3.15,55.58 L4.83,59.08 L6.84,62.38 L9.14,65.46 L11.72,68.30 L14.57,70.88 L17.65,73.19 L20.95,75.19 L24.45,76.88 L28.13,78.22 L31.96,79.21 L35.94,79.81 L40.03,80.02 L42.78,79.93 L45.49,79.65 L48.13,79.19 L50.71,78.57 L50.71,68.63 L50.71,68.63 Z" fill="#1152a6" stroke="#1152a6" stroke-width="1" stroke-linejoin="round"/><path d="M53.09,52.01 L26.98,52.01 L26.27,46.20 L26.02,40.01 L26.12,35.93 L26.44,32.00 L53.63,32.00 L53.94,35.93 L54.05,40.01 L53.80,46.20 L53.09,52.01 L53.09,52.01 Z" fill="#43d9f7" stroke="#43d9f7" stroke-width="1" stroke-linejoin="round"/><path d="M53.69,8.84 L56.50,10.24 L59.16,11.87 L61.65,13.74 L63.96,15.82 L66.06,18.10 L67.96,20.57 L69.63,23.21 L71.05,26.00 L58.85,26.00 L57.80,21.17 L56.45,16.70 L54.83,12.64 L52.94,9.05 L52.52,8.35 L53.69,8.84 L53.69,8.84 Z" fill="#43d9f7" stroke="#43d9f7" stroke-width="1" stroke-linejoin="round"/><path d="M39.57,6.02 L40.03,5.99 L40.54,6.02 L41.48,6.20 L42.42,6.55 L44.25,7.74 L46.02,9.54 L47.68,11.89 L49.21,14.77 L50.58,18.11 L51.76,21.87 L52.73,26.00 L27.34,26.00 L28.31,21.85 L29.50,18.09 L30.87,14.74 L32.41,11.86 L34.07,9.51 L35.84,7.72 L37.68,6.54 L38.62,6.19 L39.57,6.02 L39.57,6.02 Z" fill="#43d9f7" stroke="#43d9f7" stroke-width="1" stroke-linejoin="round"/><path d="M27.46,8.39 L27.55,8.36 L25.51,12.04 L23.76,16.25 L22.32,20.92 L21.21,26.00 L9.01,26.00 L10.51,23.08 L12.27,20.33 L14.28,17.77 L16.52,15.42 L18.98,13.28 L21.63,11.39 L24.46,9.75 L27.46,8.39 L27.46,8.39 Z" fill="#43d9f7" stroke="#43d9f7" stroke-width="1" stroke-linejoin="round"/><path d="M6.01,40.01 L6.24,35.97 L6.94,32.07 L6.96,32.01 L20.40,32.01 L20.12,35.95 L20.02,40.01 L20.24,46.15 L20.89,52.01 L8.18,52.01 L7.25,49.16 L6.56,46.20 L6.14,43.14 L6.00,40.01 L6.01,40.01 Z" fill="#43d9f7" stroke="#43d9f7" stroke-width="1" stroke-linejoin="round"/><path d="M11.16,58.01 L22.05,58.01 L22.46,59.59 L23.49,62.99 L24.69,66.15 L26.04,69.04 L27.54,71.65 L25.04,70.55 L22.64,69.25 L20.37,67.77 L18.23,66.12 L16.23,64.31 L14.37,62.35 L12.68,60.25 L11.15,58.01 L11.16,58.01 Z" fill="#43d9f7" stroke="#43d9f7" stroke-width="1" stroke-linejoin="round"/><path d="M28.27,58.01 L51.79,58.01 L50.73,61.47 L49.50,64.59 L48.14,67.32 L46.66,69.64 L45.09,71.50 L43.45,72.88 L41.75,73.73 L40.03,74.02 L38.30,73.73 L36.61,72.88 L34.96,71.50 L33.39,69.64 L31.91,67.32 L30.55,64.59 L29.33,61.47 L28.26,58.01 L28.27,58.01 Z" fill="#43d9f7" stroke="#43d9f7" stroke-width="1" stroke-linejoin="round"/><path d="M50.71,78.54 L50.71,68.63 L50.91,66.35 L51.49,64.19 L52.41,62.20 L53.64,60.41 L55.15,58.85 L56.89,57.56 L58.84,56.57 L60.97,55.91 L61.57,53.26 L62.62,50.81 L64.08,48.61 L65.89,46.70 L68.01,45.14 L70.39,43.97 L72.99,43.23 L75.76,42.97 L77.87,43.12 L79.89,43.55 L80.06,40.01 L79.86,35.92 L79.25,31.95 L78.26,28.11 L76.92,24.44 L75.23,20.94 L73.23,17.64 L70.92,14.56 L68.34,11.72 L65.50,9.14 L62.41,6.83 L59.11,4.83 L55.61,3.14 L51.94,1.80 L48.10,0.81 L44.12,0.21 L40.03,0.00 L42.37,7.63 L43.49,12.08 L44.51,16.93 L45.39,22.17 L46.08,27.78 L46.52,33.73 L46.68,40.01 L46.52,46.29 L46.08,52.25 L45.39,57.85 L44.51,63.09 L43.49,67.94 L42.37,72.39 L40.03,80.02 L42.78,79.93 L45.48,79.64 L48.13,79.18 L50.71,78.54 L50.71,78.54 Z" fill="#0393e3" stroke="#1e1e1e" stroke-width="1" stroke-linejoin="round"/><path d="M85.88,58.07 L85.88,60.60 L87.78,60.60 L89.43,60.76 L90.98,61.24 L92.37,62.00 L93.59,63.00 L94.59,64.22 L95.35,65.62 L95.83,67.16 L96.00,68.82 L96.00,87.78 L95.83,89.44 L95.35,90.98 L94.60,92.38 L93.59,93.59 L92.38,94.60 L90.98,95.35 L89.43,95.83 L87.78,96.00 L63.74,96.00 L62.08,95.83 L60.54,95.35 L59.14,94.60 L57.92,93.59 L56.92,92.38 L56.16,90.98 L55.68,89.44 L55.51,87.78 L55.51,68.82 L55.68,67.16 L56.16,65.62 L56.92,64.22 L57.92,63.00 L59.14,62.00 L60.54,61.24 L62.08,60.76 L63.74,60.60 L65.64,60.60 L65.64,58.07 L65.84,56.03 L66.43,54.13 L67.37,52.41 L68.60,50.92 L70.10,49.68 L71.82,48.75 L73.72,48.16 L75.76,47.95 L77.80,48.16 L79.70,48.75 L81.42,49.68 L82.92,50.91 L84.15,52.41 L85.09,54.13 L85.68,56.03 L85.88,58.07 L85.88,58.07 Z" fill="#72b62c" stroke="#72b62c" stroke-width="1" stroke-linejoin="round"/><path d="M69.43,58.07 L69.43,60.60 L82.08,60.60 L82.08,58.07 L81.95,56.79 L81.58,55.61 L81.00,54.53 L80.23,53.60 L79.29,52.83 L78.22,52.25 L77.03,51.88 L75.75,51.75 L74.48,51.88 L73.29,52.25 L72.22,52.83 L71.28,53.60 L70.51,54.54 L69.93,55.61 L69.56,56.80 L69.43,58.07 Z" fill="#ffffff" stroke="#ffffff" stroke-width="1" stroke-linejoin="round"/><path d="M75.75,82.09 L77.23,81.79 L78.44,80.98 L79.25,79.78 L79.55,78.30 L79.25,76.82 L78.44,75.62 L77.23,74.80 L75.75,74.51 L74.28,74.80 L73.07,75.62 L72.26,76.82 L71.96,78.30 L72.26,79.78 L73.07,80.98 L74.28,81.79 L75.75,82.09 Z" fill="#ffffff" stroke="#ffffff" stroke-width="1" stroke-linejoin="round"/></svg>