<svg xmlns="http://www.w3.org/2000/svg" viewBox="-1.93 -1.99 99.85 99.99"><path d="M95.93,46.67 L95.78,44.71 L95.46,42.81 L94.98,40.96 L94.34,39.18 L93.56,37.47 L92.63,35.85 L91.57,34.32 L90.39,32.88 L89.08,31.56 L87.66,30.35 L86.14,29.26 L84.53,28.31 L82.82,27.49 L81.03,26.83 L79.17,26.32 L77.24,25.97 L76.98,23.23 L76.46,20.58 L75.69,18.02 L74.69,15.59 L73.46,13.28 L72.02,11.11 L70.40,9.10 L68.59,7.25 L66.61,5.58 L64.48,4.11 L62.22,2.84 L59.82,1.79 L57.32,0.96 L54.72,0.39 L52.03,0.06 L49.28,0.01 L47.08,0.06 L44.91,0.27 L42.79,0.66 L40.72,1.20 L38.70,1.89 L36.75,2.74 L34.88,3.72 L33.09,4.85 L31.39,6.10 L29.79,7.49 L28.29,8.99 L26.91,10.61 L25.65,12.35 L24.52,14.18 L23.52,16.12 L22.68,18.15 L20.35,18.55 L18.10,19.14 L15.94,19.92 L13.87,20.88 L11.92,22.02 L10.08,23.31 L8.36,24.76 L6.78,26.34 L5.35,28.06 L4.06,29.90 L2.94,31.85 L1.99,33.90 L1.22,36.04 L0.64,38.26 L0.25,40.56 L0.07,42.91 L0.31,45.56 L0.81,48.13 L1.55,50.60 L2.51,52.95 L3.69,55.18 L5.08,57.28 L6.65,59.22 L8.40,61.01 L10.31,62.62 L12.37,64.04 L14.56,65.26 L16.88,66.27 L19.30,67.06 L21.81,67.61 L24.41,67.91 L27.07,67.95 L29.45,67.85 L73.15,67.85 L74.30,67.67 L76.47,67.55 L78.57,67.23 L80.60,66.71 L82.55,66.00 L84.40,65.12 L86.16,64.07 L87.81,62.86 L89.33,61.52 L90.73,60.03 L91.98,58.42 L93.07,56.69 L94.01,54.86 L94.77,52.93 L95.35,50.92 L95.74,48.83 L95.93,46.67 L95.93,46.67 Z" fill="#34b8f2" stroke="#1e1e1e" stroke-width="1" stroke-linejoin="round"/><path d="M52.54,93.72 L52.30,94.64 L51.75,95.38 L50.96,95.85 L50.02,95.99 L11.41,95.99 L10.47,95.85 L9.68,95.38 L9.13,94.64 L8.89,93.72 L8.89,31.05 L9.13,30.12 L9.68,29.39 L10.47,28.91 L11.41,28.77 L50.02,28.77 L50.96,28.91 L51.75,29.39 L52.30,30.12 L52.54,31.05 L52.54,93.72 L52.54,93.72 Z" fill="#abaaab" stroke="#1e1e1e" stroke-width="1" stroke-linejoin="round"/><path d="M15.31,57.53 L15.36,56.52 L15.61,55.57 L16.02,54.70 L16.60,53.93 L17.30,53.29 L18.13,52.79 L19.05,52.45 L20.05,52.30 L41.77,52.30 L42.77,52.45 L43.69,52.79 L44.51,53.29 L45.22,53.93 L45.79,54.70 L46.21,55.57 L46.46,56.52 L46.51,57.53 L46.51,57.53 L46.46,58.53 L46.21,59.48 L45.79,60.35 L45.22,61.12 L44.51,61.76 L43.69,62.26 L42.77,62.60 L41.77,62.75 L20.05,62.75 L19.05,62.60 L18.13,62.26 L17.30,61.76 L16.60,61.12 L16.02,60.35 L15.60,59.48 L15.36,58.53 L15.31,57.53 Z" fill="#003067" stroke="#1e1e1e" stroke-width="1" stroke-linejoin="round"/><path d="M15.31,41.98 L15.36,40.97 L15.61,40.02 L16.02,39.15 L16.60,38.39 L17.30,37.74 L18.13,37.24 L19.05,36.90 L20.05,36.75 L41.77,36.75 L42.77,36.90 L43.69,37.24 L44.51,37.74 L45.22,38.39 L45.79,39.15 L46.21,40.02 L46.46,40.97 L46.51,41.98 L46.51,41.98 L46.46,42.99 L46.21,43.94 L45.79,44.81 L45.22,45.57 L44.51,46.22 L43.69,46.72 L42.77,47.05 L41.77,47.21 L20.05,47.21 L19.05,47.05 L18.13,46.72 L17.30,46.22 L16.60,45.57 L16.02,44.81 L15.60,43.94 L15.36,42.99 L15.31,41.98 Z" fill="#003067" stroke="#1e1e1e" stroke-width="1" stroke-linejoin="round"/><ellipse cx="21.41" cy="41.98" rx="3.51" ry="3.51" fill="#50e6ff" stroke="#50e6ff" stroke-width="1"/><ellipse cx="21.41" cy="57.51" rx="3.51" ry="3.51" fill="#50e6ff" stroke="#50e6ff" stroke-width="1"/><ellipse cx="71.96" cy="72.04" rx="23.96" ry="23.96" fill="#935fea" stroke="#1e1e1e" stroke-width="1"/><path d="M81.37,68.82 L77.72,68.82 L76.88,69.00 L76.20,69.47 L75.75,70.16 L75.59,71.01 L75.77,71.83 L76.23,72.50 L76.90,72.96 L77.72,73.13 L85.63,73.13 L86.47,72.96 L87.15,72.50 L87.61,71.81 L87.78,70.98 L87.78,61.63 L87.63,60.79 L87.17,60.10 L86.50,59.62 L85.66,59.44 L84.82,59.60 L84.12,60.05 L83.65,60.73 L83.47,61.56 L83.47,61.63 L83.47,63.79 L82.38,62.50 L81.16,61.36 L79.83,60.37 L78.39,59.55 L76.88,58.90 L75.29,58.42 L73.65,58.13 L71.96,58.04 L70.38,58.11 L68.83,58.36 L67.33,58.77 L65.89,59.34 L64.51,60.07 L63.23,60.95 L62.04,61.97 L60.96,63.13 L60.56,63.89 L60.49,64.71 L60.73,65.50 L61.28,66.17 L62.02,66.56 L62.83,66.64 L63.62,66.41 L64.28,65.89 L65.86,64.37 L67.72,63.25 L69.78,62.57 L71.96,62.35 L73.50,62.47 L74.98,62.81 L76.38,63.37 L77.67,64.12 L78.84,65.06 L79.86,66.17 L80.71,67.42 L81.37,68.82 L81.37,68.82 Z" fill="#ffffff" stroke="#1e1e1e" stroke-width="1" stroke-linejoin="round"/><path d="M60.46,83.19 L60.46,81.04 L62.44,83.19 L64.74,84.84 L67.27,86.00 L69.96,86.65 L72.72,86.77 L75.48,86.37 L78.14,85.41 L80.64,83.90 L81.86,82.87 L82.95,81.72 L83.37,80.97 L83.46,80.15 L83.24,79.36 L82.71,78.68 L81.96,78.27 L81.14,78.18 L80.34,78.40 L79.67,78.93 L79.67,78.93 L78.19,80.34 L76.52,81.41 L74.70,82.11 L72.79,82.45 L70.85,82.42 L68.94,82.01 L67.12,81.23 L65.43,80.07 L63.97,78.53 L62.87,76.73 L66.21,76.73 L67.05,76.57 L67.75,76.12 L68.22,75.44 L68.41,74.60 L68.25,73.76 L67.80,73.07 L67.12,72.59 L66.28,72.41 L66.21,72.41 L58.30,72.41 L57.47,72.58 L56.78,73.04 L56.32,73.73 L56.15,74.57 L56.15,74.57 L56.15,83.19 L56.30,84.04 L56.76,84.73 L57.44,85.20 L58.27,85.39 L59.11,85.23 L59.81,84.78 L60.28,84.10 L60.46,83.26 L60.46,83.19 L60.46,83.19 L60.46,83.19 Z" fill="#ffffff" stroke="#1e1e1e" stroke-width="1" stroke-linejoin="round"/></svg>