<svg xmlns="http://www.w3.org/2000/svg" viewBox="-1.40 -1.47 99.89 100.00"><path d="M76.79,92.87 L79.06,92.54 L81.12,91.53 L82.77,89.93 L83.85,87.90 L84.24,85.64 L84.24,85.47 L84.26,85.02 L84.24,84.56 L83.57,80.22 L82.65,76.01 L81.48,71.94 L80.06,68.03 L78.39,64.32 L76.46,60.82 L74.27,57.54 L71.82,54.52 L69.10,51.78 L66.12,49.33 L62.86,47.20 L59.34,45.41 L55.54,43.98 L51.46,42.93 L47.10,42.28 L42.45,42.06 L37.80,42.25 L33.44,42.81 L29.35,43.73 L25.53,45.00 L21.99,46.62 L18.72,48.57 L15.72,50.86 L12.99,53.45 L10.53,56.36 L8.33,59.57 L6.40,63.07 L4.72,66.86 L3.31,70.92 L2.15,75.25 L1.25,79.83 L0.60,84.66 L0.74,87.01 L1.60,89.20 L3.08,91.03 L5.06,92.30 L7.33,92.91 L76.79,92.87 Z" fill="#89c12d" stroke="#1e1e1e" stroke-width="1" stroke-linejoin="round"/><path d="M42.90,47.57 L38.44,47.16 L34.13,45.90 L30.14,43.85 L42.45,76.77 L55.01,44.07 L51.20,45.96 L47.13,47.14 L42.90,47.57 L42.90,47.57 Z" fill="#ffffff" stroke="#1e1e1e" stroke-width="1" stroke-linejoin="round" opacity="0.8"/><ellipse cx="42.62" cy="24.08" rx="23.55" ry="23.55" fill="#89c12d" stroke="#1e1e1e" stroke-width="1"/><path d="M96.50,60.56 L96.50,84.51 L75.94,96.53 L75.94,72.59 L96.50,60.56 Z" fill="#ef7100" stroke="#1e1e1e" stroke-width="1" stroke-linejoin="round"/><path d="M96.50,60.56 L75.94,72.59 L55.38,60.56 L75.94,48.53 L96.50,60.56 Z" fill="#f78d1e" stroke="#1e1e1e" stroke-width="1" stroke-linejoin="round"/><path d="M75.94,72.59 L75.94,96.53 L55.38,84.51 L55.38,60.56 L75.94,72.59 Z" fill="#faa21d" stroke="#1e1e1e" stroke-width="1" stroke-linejoin="round"/><path d="M55.38,84.51 L75.94,72.59 L75.94,96.53 L55.38,84.51 Z" fill="#ffb34d" stroke="#1e1e1e" stroke-width="1" stroke-linejoin="round"/><path d="M96.50,84.51 L75.94,72.59 L75.94,96.53 L96.50,84.51 Z" fill="#f78d1e" stroke="#1e1e1e" stroke-width="1" stroke-linejoin="round"/></svg>