<svg xmlns="http://www.w3.org/2000/svg" viewBox="0.02 -1.62 96.78 100.00"><path d="M76.84,90.87 L79.10,90.53 L81.14,89.50 L82.76,87.89 L83.81,85.85 L84.17,83.59 L84.16,83.15 L84.13,82.71 L83.47,78.46 L82.57,74.33 L81.42,70.34 L80.03,66.51 L78.38,62.87 L76.49,59.43 L74.34,56.22 L71.93,53.26 L69.27,50.57 L66.34,48.16 L63.15,46.07 L59.69,44.32 L55.96,42.91 L51.96,41.88 L47.69,41.25 L43.14,41.03 L38.52,41.22 L34.18,41.76 L30.12,42.67 L26.34,43.91 L22.85,45.50 L19.62,47.41 L16.68,49.65 L14.00,52.19 L11.59,55.04 L9.45,58.18 L7.57,61.62 L5.95,65.32 L4.58,69.30 L3.48,73.54 L2.63,78.03 L2.02,82.77 L2.15,85.07 L2.97,87.21 L4.42,89.00 L6.35,90.25 L8.58,90.84 L9.31,90.87 L76.84,90.87 Z" fill="#30d0f2" stroke="#1e1e1e" stroke-width="1" stroke-linejoin="round"/><path d="M43.14,46.48 L38.77,46.07 L34.55,44.83 L30.65,42.81 L43.02,75.07 L55.28,43.02 L51.48,44.92 L47.38,46.09 L43.14,46.48 L43.14,46.48 Z" fill="#ffffff" stroke="#1e1e1e" stroke-width="1" stroke-linejoin="round" opacity="0.8"/><ellipse cx="43.14" cy="23.43" rx="23.05" ry="23.05" fill="#30d0f2" stroke="#1e1e1e" stroke-width="1"/><path d="M86.99,70.24 L84.54,72.02 L81.77,73.25 L78.80,73.88 L75.77,73.88 L72.81,73.25 L70.04,72.02 L67.59,70.24 L66.38,94.33 L66.66,95.43 L67.52,96.18 L68.65,96.31 L69.66,95.77 L77.18,91.00 L84.65,95.84 L85.65,96.38 L86.78,96.26 L87.64,95.52 L87.93,94.42 L86.99,70.24 Z" fill="#8e5ae8" stroke="#1e1e1e" stroke-width="1" stroke-linejoin="round"/><ellipse cx="77.49" cy="57.90" rx="17.32" ry="17.38" fill="#a67af4" stroke="#1e1e1e" stroke-width="1"/><ellipse cx="77.49" cy="57.90" rx="13.14" ry="13.18" fill="#ffe452" stroke="#1e1e1e" stroke-width="1"/></svg>