<svg xmlns="http://www.w3.org/2000/svg" viewBox="-1.40 -1.47 98.84 98.94"><path d="M75.94,91.85 L78.19,91.52 L80.23,90.52 L81.86,88.94 L82.93,86.93 L83.32,84.69 L83.32,84.53 L83.34,84.08 L83.32,83.63 L82.65,79.34 L81.74,75.17 L80.59,71.15 L79.18,67.29 L77.53,63.61 L75.62,60.15 L73.45,56.91 L71.03,53.92 L68.34,51.21 L65.39,48.79 L62.17,46.68 L58.69,44.91 L54.92,43.49 L50.89,42.46 L46.58,41.82 L41.98,41.60 L37.39,41.79 L33.07,42.34 L29.02,43.25 L25.25,44.51 L21.75,46.11 L18.52,48.04 L15.55,50.30 L12.85,52.87 L10.41,55.74 L8.24,58.92 L6.33,62.38 L4.67,66.12 L3.27,70.14 L2.13,74.42 L1.24,78.95 L0.60,83.73 L0.73,86.06 L1.58,88.22 L3.05,90.02 L5.00,91.29 L7.25,91.89 L75.94,91.85 Z" fill="#89c12d" stroke="#1e1e1e" stroke-width="1" stroke-linejoin="round"/><path d="M42.43,47.05 L38.01,46.64 L33.75,45.39 L29.81,43.37 L41.98,75.93 L54.40,43.59 L50.64,45.46 L46.61,46.62 L42.43,47.05 L42.43,47.05 Z" fill="#ffffff" stroke="#1e1e1e" stroke-width="1" stroke-linejoin="round" opacity="0.8"/><ellipse cx="42.15" cy="23.82" rx="23.29" ry="23.29" fill="#89c12d" stroke="#1e1e1e" stroke-width="1"/><path d="M95.43,59.90 L95.43,83.58 L75.10,95.47 L75.10,71.79 L95.43,59.90 Z" fill="#ef7100" stroke="#1e1e1e" stroke-width="1" stroke-linejoin="round"/><path d="M95.43,59.90 L75.10,71.79 L54.77,59.90 L75.10,48.00 L95.43,59.90 Z" fill="#f78d1e" stroke="#1e1e1e" stroke-width="1" stroke-linejoin="round"/><path d="M75.10,71.79 L75.10,95.47 L54.77,83.58 L54.77,59.90 L75.10,71.79 Z" fill="#faa21d" stroke="#1e1e1e" stroke-width="1" stroke-linejoin="round"/><path d="M54.77,83.58 L75.10,71.79 L75.10,95.47 L54.77,83.58 Z" fill="#ffb34d" stroke="#1e1e1e" stroke-width="1" stroke-linejoin="round"/><path d="M95.43,83.58 L75.10,71.79 L75.10,95.47 L95.43,83.58 Z" fill="#f78d1e" stroke="#1e1e1e" stroke-width="1" stroke-linejoin="round"/></svg>