<svg xmlns="http://www.w3.org/2000/svg" viewBox="-2.00 -2.00 100.01 99.99"><path d="M47.75,69.99 L49.42,68.40 L51.26,67.02 L53.25,65.88 L55.37,64.99 L56.54,63.36 L57.88,61.85 L59.36,60.48 L60.98,59.26 L63.56,57.79 L66.31,56.72 L69.19,56.07 L72.17,55.86 L72.33,55.86 L72.77,55.86 L75.11,56.00 L77.39,56.42 L78.81,52.64 L79.86,48.69 L80.51,44.58 L80.73,40.36 L80.52,36.23 L79.91,32.22 L78.91,28.36 L77.55,24.65 L75.85,21.12 L73.83,17.79 L71.51,14.69 L68.90,11.82 L66.04,9.22 L62.93,6.89 L59.60,4.87 L56.07,3.17 L52.37,1.81 L48.50,0.82 L44.49,0.21 L40.36,0.00 L36.24,0.21 L32.23,0.82 L28.36,1.81 L24.65,3.17 L21.12,4.87 L17.79,6.89 L14.69,9.22 L11.82,11.82 L9.22,14.69 L6.89,17.79 L4.87,21.12 L3.17,24.65 L1.81,28.35 L0.82,32.22 L0.21,36.23 L0.00,40.35 L0.21,44.48 L0.82,48.48 L1.81,52.35 L3.17,56.06 L4.87,59.58 L6.89,62.91 L9.22,66.02 L11.82,68.88 L14.69,71.49 L17.79,73.81 L21.12,75.83 L24.65,77.53 L28.36,78.89 L32.23,79.88 L36.24,80.50 L40.36,80.70 L42.90,80.62 L43.46,77.71 L44.47,74.93 L45.91,72.34 L47.75,69.99 L47.75,69.99 Z" fill="#43d9f7" stroke="#1e1e1e" stroke-width="1" stroke-linejoin="round"/><path d="M47.75,69.99 L49.42,68.40 L51.26,67.02 L53.25,65.88 L55.37,64.99 L57.40,62.39 L58.49,58.51 L62.19,58.51 L64.53,57.36 L66.99,56.53 L69.55,56.03 L72.17,55.86 L72.33,55.86 L72.77,55.86 L75.11,56.00 L77.39,56.42 L78.81,52.64 L79.86,48.69 L80.51,44.58 L80.73,40.36 L80.52,36.23 L79.91,32.22 L78.91,28.36 L77.55,24.65 L75.85,21.12 L73.83,17.79 L71.51,14.69 L68.90,11.82 L66.04,9.22 L62.93,6.89 L59.60,4.87 L56.07,3.17 L52.37,1.81 L48.50,0.82 L44.49,0.21 L40.36,0.00 L36.24,0.21 L32.23,0.82 L28.36,1.81 L24.65,3.17 L21.12,4.87 L17.79,6.89 L14.69,9.22 L11.82,11.82 L9.22,14.69 L6.89,17.79 L4.87,21.12 L3.17,24.65 L1.81,28.35 L0.82,32.22 L0.21,36.23 L0.00,40.35 L0.21,44.48 L0.82,48.48 L1.81,52.35 L3.17,56.06 L4.87,59.58 L6.89,62.91 L9.22,66.02 L11.82,68.88 L14.69,71.49 L17.79,73.81 L21.12,75.83 L24.65,77.53 L28.36,78.89 L32.23,79.88 L36.24,80.50 L40.36,80.70 L42.90,80.62 L43.46,77.71 L44.47,74.93 L45.91,72.34 L47.75,69.99 L47.75,69.99 Z" fill="#1152a6" stroke="#1152a6" stroke-width="1" stroke-linejoin="round"/><path d="M53.53,52.46 L27.20,52.46 L26.49,46.60 L26.23,40.35 L26.34,36.24 L26.66,32.28 L54.07,32.28 L54.39,36.24 L54.50,40.35 L54.25,46.60 L53.53,52.46 L53.53,52.46 Z" fill="#43d9f7" stroke="#43d9f7" stroke-width="1" stroke-linejoin="round"/><path d="M74.67,40.35 L74.53,43.51 L74.11,46.59 L73.42,49.58 L72.47,52.46 L59.67,52.46 L60.33,46.55 L60.55,40.35 L60.45,36.26 L60.17,32.28 L73.72,32.28 L74.43,36.24 L74.67,40.35 Z" fill="#43d9f7" stroke="#43d9f7" stroke-width="1" stroke-linejoin="round"/><path d="M54.13,8.92 L56.97,10.33 L59.65,11.98 L62.16,13.86 L64.48,15.96 L66.61,18.26 L68.52,20.75 L70.20,23.41 L71.64,26.23 L59.34,26.23 L58.28,21.36 L56.92,16.85 L55.29,12.76 L53.39,9.14 L52.95,8.43 L54.13,8.92 L54.13,8.92 Z" fill="#43d9f7" stroke="#43d9f7" stroke-width="1" stroke-linejoin="round"/><path d="M39.89,6.07 L40.36,6.05 L40.87,6.07 L41.83,6.26 L42.77,6.61 L44.62,7.81 L46.40,9.62 L48.07,12.00 L49.61,14.90 L51.00,18.26 L52.19,22.06 L53.16,26.23 L27.57,26.23 L28.55,22.05 L29.74,18.25 L31.13,14.87 L32.68,11.97 L34.36,9.59 L36.14,7.78 L38.00,6.59 L38.94,6.25 L39.90,6.07 L39.89,6.07 Z" fill="#43d9f7" stroke="#43d9f7" stroke-width="1" stroke-linejoin="round"/><path d="M27.68,8.46 L27.77,8.43 L25.72,12.14 L23.96,16.39 L22.50,21.10 L21.38,26.22 L9.09,26.22 L10.60,23.28 L12.37,20.51 L14.40,17.92 L16.66,15.55 L19.13,13.40 L21.81,11.49 L24.66,9.84 L27.69,8.46 L27.68,8.46 Z" fill="#43d9f7" stroke="#43d9f7" stroke-width="1" stroke-linejoin="round"/><path d="M6.05,40.35 L6.29,36.28 L6.99,32.35 L7.01,32.28 L20.57,32.28 L20.28,36.26 L20.18,40.36 L20.41,46.55 L21.06,52.46 L8.25,52.46 L7.31,49.58 L6.62,46.59 L6.20,43.52 L6.05,40.36 L6.05,40.35 Z" fill="#43d9f7" stroke="#43d9f7" stroke-width="1" stroke-linejoin="round"/><path d="M11.25,58.51 L22.23,58.51 L22.65,60.10 L23.69,63.53 L24.90,66.71 L26.26,69.63 L27.77,72.27 L25.25,71.15 L22.83,69.84 L20.54,68.35 L18.38,66.69 L16.36,64.86 L14.49,62.89 L12.79,60.76 L11.25,58.51 L11.25,58.51 Z" fill="#43d9f7" stroke="#43d9f7" stroke-width="1" stroke-linejoin="round"/><path d="M28.50,58.51 L52.22,58.51 L51.15,62.00 L49.92,65.14 L48.54,67.89 L47.05,70.23 L45.47,72.11 L43.81,73.50 L42.10,74.36 L40.36,74.65 L38.62,74.36 L36.92,73.50 L35.26,72.11 L33.67,70.23 L32.18,67.89 L30.81,65.14 L29.58,62.00 L28.50,58.51 Z" fill="#43d9f7" stroke="#43d9f7" stroke-width="1" stroke-linejoin="round"/><path d="M42.90,80.62 L43.46,77.71 L44.47,74.93 L45.91,72.34 L47.75,69.99 L49.42,68.39 L51.26,67.02 L53.25,65.88 L55.37,64.99 L56.54,63.35 L57.88,61.84 L59.36,60.47 L60.98,59.26 L63.56,57.79 L66.31,56.72 L69.19,56.07 L72.17,55.85 L72.33,55.85 L72.77,55.85 L75.08,56.00 L77.34,56.41 L78.79,52.62 L79.85,48.67 L80.51,44.57 L80.73,40.35 L80.52,36.23 L79.91,32.22 L78.91,28.35 L77.56,24.65 L75.86,21.12 L73.83,17.79 L71.51,14.69 L68.90,11.82 L66.04,9.22 L62.93,6.89 L59.60,4.87 L56.07,3.17 L52.37,1.81 L48.50,0.82 L44.49,0.21 L40.36,0.00 L42.72,7.69 L43.85,12.18 L44.88,17.08 L45.77,22.36 L46.46,28.01 L46.91,34.02 L47.07,40.35 L46.91,46.69 L46.46,52.69 L45.77,58.34 L44.88,63.63 L43.85,68.52 L42.72,73.01 L40.36,80.70 L42.90,80.62 L42.90,80.62 Z" fill="#0393e3" stroke="#1e1e1e" stroke-width="1" stroke-linejoin="round"/><path d="M96.00,84.12 L96.00,84.04 L96.00,83.96 L95.75,81.84 L95.12,79.81 L94.15,77.93 L92.85,76.22 L91.65,75.08 L90.31,74.11 L88.86,73.34 L87.31,72.76 L86.70,70.47 L85.74,68.32 L84.43,66.34 L82.81,64.59 L80.52,62.87 L77.98,61.64 L75.24,60.90 L72.38,60.70 L70.08,60.85 L67.84,61.33 L65.70,62.15 L63.70,63.29 L62.14,64.48 L60.77,65.86 L59.59,67.41 L58.62,69.10 L56.57,69.72 L54.65,70.63 L52.89,71.83 L51.32,73.29 L49.80,75.26 L48.66,77.45 L47.93,79.81 L47.63,82.28 L47.63,82.37 L47.63,82.45 L48.02,85.21 L48.93,87.80 L50.34,90.18 L52.20,92.25 L54.42,93.92 L56.91,95.11 L59.58,95.82 L62.36,95.99 L63.49,95.95 L83.29,95.95 L84.06,95.87 L86.32,95.59 L88.48,94.91 L90.48,93.86 L92.27,92.44 L93.80,90.66 L94.95,88.64 L95.69,86.44 L96.01,84.12 L96.00,84.12 Z" fill="#3072c4" stroke="#1e1e1e" stroke-width="1" stroke-linejoin="round"/></svg>