<svg xmlns="http://www.w3.org/2000/svg" viewBox="-1.99 3.15 100.00 89.72"><path d="M94.15,52.99 L54.13,7.86 L52.82,6.68 L51.32,5.83 L49.70,5.32 L48.02,5.15 L46.33,5.32 L44.71,5.83 L43.21,6.68 L41.90,7.86 L1.88,52.99 L0.91,54.37 L0.29,55.87 L0.01,57.43 L0.08,58.99 L0.49,60.51 L1.21,61.93 L2.26,63.19 L3.61,64.25 L43.61,89.26 L44.65,89.81 L45.74,90.20 L48.01,90.52 L50.28,90.20 L51.37,89.81 L52.41,89.26 L92.41,64.25 L93.76,63.20 L94.81,61.93 L95.53,60.51 L95.93,58.99 L96.00,57.43 L95.73,55.87 L95.11,54.38 L94.14,52.99 L94.14,52.99 L94.15,52.99 Z" fill="#1152a6" stroke="#1e1e1e" stroke-width="1" stroke-linejoin="round"/><path d="M24.73,54.23 L25.01,54.40 L48.02,68.78 L48.02,68.78 L71.30,54.23 L71.31,54.23 L71.30,54.23 L48.02,27.96 L24.73,54.23 Z" fill="#88eafc" stroke="#1e1e1e" stroke-width="1" stroke-linejoin="round"/><path d="M54.14,7.86 L52.83,6.68 L51.33,5.83 L49.71,5.32 L48.02,5.15 L46.34,5.32 L44.71,5.83 L43.21,6.68 L41.90,7.86 L1.89,52.99 L0.91,54.37 L0.29,55.87 L0.02,57.43 L0.09,58.99 L0.49,60.51 L1.22,61.93 L2.26,63.19 L3.61,64.25 L20.29,74.68 L22.08,75.65 L24.28,76.53 L26.76,77.16 L29.44,77.40 L31.87,77.23 L34.19,76.72 L36.37,75.90 L38.38,74.81 L38.39,74.80 L48.01,68.78 L24.73,54.23 L48.60,27.30 L49.77,26.11 L51.06,25.04 L52.48,24.10 L53.99,23.31 L55.60,22.68 L57.29,22.22 L59.06,21.93 L60.88,21.83 L62.74,21.94 L64.54,22.24 L66.26,22.73 L67.89,23.39 L54.13,7.87 L54.13,7.86 L54.14,7.86 Z" fill="#34b8f2" stroke="#1e1e1e" stroke-width="1" stroke-linejoin="round"/><path d="M48.02,90.52 L50.29,90.21 L51.38,89.82 L52.42,89.27 L92.42,64.26 L93.77,63.20 L94.82,61.93 L95.54,60.52 L95.95,59.00 L96.01,57.43 L95.74,55.88 L95.12,54.38 L94.15,53.00 L54.14,7.86 L52.83,6.68 L51.33,5.83 L49.71,5.32 L48.02,5.15 L48.02,90.52 L48.02,90.52 Z" fill="#041642" stroke="#1e1e1e" stroke-width="1" stroke-linejoin="round" opacity="0.16"/><path d="M72.13,90.88 L72.13,90.88 L76.24,87.82 L79.86,84.94 L83.00,82.22 L85.71,79.66 L88.01,77.27 L89.94,75.05 L91.54,72.99 L92.82,71.09 L94.61,67.77 L95.56,65.09 L95.94,63.04 L96.01,61.61 L95.97,59.73 L95.77,57.41 L95.29,54.85 L94.40,52.26 L93.77,51.02 L93.00,49.84 L92.06,48.76 L90.95,47.79 L89.65,46.97 L88.14,46.32 L86.41,45.86 L84.44,45.62 L82.40,45.63 L80.43,45.97 L78.57,46.62 L76.85,47.55 L75.29,48.75 L73.95,50.20 L72.85,51.86 L72.02,53.73 L71.23,51.85 L70.17,50.16 L68.85,48.69 L67.32,47.46 L65.62,46.50 L63.76,45.82 L61.80,45.45 L59.76,45.41 L57.79,45.68 L56.06,46.16 L54.54,46.84 L53.23,47.68 L52.11,48.67 L51.16,49.77 L50.37,50.96 L49.72,52.21 L48.81,54.82 L48.30,57.40 L48.08,59.73 L48.04,61.61 L48.11,63.04 L48.51,65.09 L49.48,67.76 L51.27,71.07 L54.16,75.01 L56.09,77.22 L58.38,79.60 L61.07,82.13 L64.20,84.83 L67.78,87.69 L71.86,90.72 L72.13,90.88 Z" fill="#eb3136" stroke="#1e1e1e" stroke-width="1" stroke-linejoin="round"/><path d="M96.01,59.91 L85.35,59.91 L84.92,60.02 L84.60,60.33 L81.25,66.04 L80.99,66.24 L80.66,66.20 L80.50,66.04 L75.44,56.87 L74.99,56.39 L74.34,56.37 L73.84,56.87 L69.37,70.73 L69.14,70.97 L68.82,70.98 L68.56,70.73 L64.52,61.41 L64.04,60.96 L63.38,60.99 L62.97,61.41 L57.64,71.10 L57.32,71.46 L56.84,71.58 L51.73,71.58 L54.29,75.05 L58.71,75.05 L59.15,74.90 L59.46,74.57 L63.24,67.53 L68.57,79.20 L69.01,79.68 L69.66,79.70 L70.17,79.20 L75.49,63.59 L80.02,72.44 L80.54,72.84 L81.18,72.77 L81.51,72.44 L86.84,63.80 L87.16,63.50 L87.59,63.37 L96.01,63.37 L96.01,59.91 Z" fill="#ffffff" stroke="#1e1e1e" stroke-width="1" stroke-linejoin="round"/></svg>