<svg xmlns="http://www.w3.org/2000/svg" viewBox="-1.98 0.76 100.00 94.51"><path d="M93.79,50.41 L53.93,5.45 L52.62,4.27 L51.13,3.43 L49.51,2.92 L47.83,2.76 L46.16,2.92 L44.54,3.43 L43.04,4.27 L41.74,5.45 L1.88,50.41 L0.90,51.79 L0.29,53.28 L0.02,54.83 L0.09,56.39 L0.49,57.90 L1.21,59.32 L2.25,60.58 L3.60,61.63 L43.45,86.55 L44.48,87.09 L45.57,87.48 L47.83,87.80 L50.10,87.48 L51.18,87.09 L52.21,86.55 L92.07,61.63 L93.41,60.58 L94.45,59.32 L95.18,57.90 L95.58,56.39 L95.65,54.83 L95.38,53.28 L94.76,51.79 L93.79,50.41 L93.79,50.41 L93.79,50.41 Z" fill="#1152a6" stroke="#1e1e1e" stroke-width="1" stroke-linejoin="round"/><path d="M53.93,5.45 L52.63,4.27 L51.13,3.43 L49.52,2.92 L47.84,2.76 L46.16,2.92 L44.54,3.43 L43.05,4.27 L41.74,5.45 L1.88,50.41 L0.91,51.79 L0.29,53.28 L0.02,54.83 L0.09,56.39 L0.49,57.90 L1.22,59.32 L2.26,60.58 L3.60,61.63 L20.22,72.02 L22.00,72.98 L24.19,73.86 L26.67,74.49 L29.33,74.73 L31.76,74.56 L34.07,74.05 L36.24,73.24 L38.24,72.15 L38.25,72.15 L47.84,66.15 L24.65,51.65 L48.43,24.83 L49.59,23.63 L50.88,22.57 L52.29,21.64 L53.80,20.85 L55.40,20.22 L57.09,19.76 L58.85,19.47 L60.67,19.37 L62.52,19.48 L64.31,19.78 L66.02,20.27 L67.65,20.93 L53.94,5.46 L53.94,5.45 L53.93,5.45 Z" fill="#34b8f2" stroke="#1e1e1e" stroke-width="1" stroke-linejoin="round"/><path d="M24.64,51.65 L24.92,51.82 L47.84,66.15 L47.84,66.15 L71.03,51.65 L71.04,51.65 L71.03,51.65 L47.84,25.48 L24.64,51.65 Z" fill="#88eafc" stroke="#1e1e1e" stroke-width="1" stroke-linejoin="round"/><path d="M47.84,87.80 L50.10,87.49 L51.19,87.10 L52.22,86.55 L92.07,61.64 L93.42,60.58 L94.46,59.32 L95.18,57.91 L95.58,56.40 L95.65,54.84 L95.38,53.29 L94.77,51.80 L93.79,50.42 L53.93,5.45 L52.63,4.27 L51.13,3.43 L49.52,2.93 L47.84,2.76 L47.84,87.80 L47.84,87.80 Z" fill="#041642" stroke="#1e1e1e" stroke-width="1" stroke-linejoin="round" opacity="0.16"/><ellipse cx="71.93" cy="69.17" rx="24.09" ry="24.09" fill="#935fea" stroke="#1e1e1e" stroke-width="1"/><path d="M81.38,65.93 L77.71,65.93 L76.87,66.12 L76.19,66.59 L75.73,67.29 L75.58,68.13 L75.75,68.96 L76.21,69.63 L76.89,70.09 L77.71,70.27 L85.66,70.27 L86.50,70.10 L87.19,69.63 L87.65,68.94 L87.82,68.10 L87.82,58.70 L87.67,57.86 L87.21,57.16 L86.53,56.69 L85.69,56.50 L84.84,56.66 L84.15,57.11 L83.67,57.79 L83.49,58.63 L83.49,58.70 L83.49,60.87 L82.39,59.57 L81.17,58.43 L79.83,57.44 L78.39,56.61 L76.86,55.96 L75.26,55.48 L73.61,55.19 L71.92,55.09 L70.33,55.16 L68.78,55.41 L67.27,55.82 L65.81,56.40 L64.43,57.13 L63.14,58.02 L61.94,59.04 L60.86,60.21 L60.46,60.97 L60.39,61.80 L60.63,62.60 L61.18,63.26 L61.93,63.65 L62.74,63.73 L63.53,63.50 L64.19,62.98 L65.79,61.45 L67.65,60.33 L69.72,59.64 L71.92,59.43 L73.47,59.55 L74.96,59.89 L76.36,60.45 L77.66,61.21 L78.84,62.15 L79.86,63.26 L80.71,64.53 L81.38,65.93 L81.38,65.93 Z" fill="#ffffff" stroke="#1e1e1e" stroke-width="1" stroke-linejoin="round"/><path d="M60.37,80.39 L60.37,78.22 L62.36,80.38 L64.67,82.04 L67.21,83.21 L69.91,83.86 L72.69,83.99 L75.46,83.57 L78.14,82.62 L80.65,81.10 L81.88,80.07 L82.98,78.91 L83.40,78.16 L83.49,77.33 L83.27,76.53 L82.73,75.85 L81.98,75.44 L81.15,75.34 L80.35,75.57 L79.68,76.10 L79.68,76.10 L78.20,77.52 L76.51,78.59 L74.68,79.29 L72.76,79.63 L70.82,79.60 L68.90,79.20 L67.06,78.41 L65.37,77.25 L63.90,75.70 L62.79,73.88 L66.15,73.88 L67.00,73.73 L67.69,73.27 L68.17,72.59 L68.35,71.75 L68.20,70.91 L67.74,70.21 L67.06,69.73 L66.22,69.55 L66.15,69.55 L58.20,69.55 L57.35,69.72 L56.67,70.18 L56.20,70.87 L56.03,71.71 L56.03,71.71 L56.03,80.39 L56.19,81.23 L56.64,81.93 L57.32,82.40 L58.16,82.59 L59.01,82.43 L59.71,81.98 L60.18,81.30 L60.37,80.46 L60.37,80.39 L60.37,80.39 L60.37,80.39 Z" fill="#ffffff" stroke="#1e1e1e" stroke-width="1" stroke-linejoin="round"/></svg>