<svg xmlns="http://www.w3.org/2000/svg" viewBox="-2.00 -2.00 100.00 100.00"><ellipse cx="48.00" cy="48.00" rx="48.00" ry="48.00" fill="#9461eb" stroke="#1e1e1e" stroke-width="1"/><path d="M83.49,51.56 L52.70,16.83 L51.69,15.92 L50.54,15.27 L49.29,14.88 L48.00,14.75 L46.70,14.88 L45.45,15.27 L44.30,15.92 L43.29,16.83 L12.50,51.56 L11.74,52.62 L11.27,53.77 L11.06,54.97 L11.11,56.17 L11.42,57.34 L11.98,58.43 L12.78,59.41 L13.82,60.22 L44.61,79.47 L46.25,80.19 L48.00,80.44 L49.75,80.19 L51.38,79.47 L82.17,60.22 L83.21,59.41 L84.01,58.43 L84.57,57.34 L84.88,56.17 L84.93,54.97 L84.73,53.77 L84.25,52.62 L83.50,51.56 L83.50,51.56 L83.49,51.56 Z" fill="#1152a6" stroke="#1e1e1e" stroke-width="1" stroke-linejoin="round"/><path d="M30.08,52.51 L30.29,52.64 L48.00,63.71 L48.00,63.71 L65.91,52.51 L65.92,52.51 L65.91,52.51 L48.00,32.29 L30.08,52.51 Z" fill="#88eafc" stroke="#1e1e1e" stroke-width="1" stroke-linejoin="round"/><path d="M52.71,16.82 L51.70,15.91 L50.55,15.26 L49.30,14.87 L48.00,14.74 L46.71,14.87 L45.46,15.26 L44.30,15.91 L43.29,16.82 L12.50,51.55 L11.75,52.62 L11.27,53.77 L11.06,54.96 L11.12,56.17 L11.43,57.34 L11.99,58.43 L12.79,59.40 L13.83,60.22 L26.66,68.24 L28.04,68.99 L29.73,69.66 L31.64,70.15 L33.70,70.34 L35.58,70.20 L37.36,69.81 L39.03,69.18 L40.58,68.34 L40.59,68.34 L48.00,63.71 L30.09,52.51 L48.45,31.79 L50.35,30.04 L52.60,28.71 L55.14,27.87 L57.90,27.57 L59.33,27.65 L60.72,27.89 L63.30,28.77 L52.71,16.83 L52.71,16.82 L52.71,16.82 Z" fill="#34b8f2" stroke="#1e1e1e" stroke-width="1" stroke-linejoin="round"/><path d="M48.00,80.43 L49.75,80.19 L51.38,79.47 L82.17,60.22 L83.21,59.41 L84.01,58.43 L84.57,57.34 L84.88,56.17 L84.93,54.97 L84.73,53.77 L84.25,52.62 L83.50,51.56 L52.71,16.83 L51.70,15.92 L50.54,15.27 L49.30,14.88 L48.00,14.75 L48.00,80.44 L48.00,80.43 Z" fill="#041642" stroke="#1e1e1e" stroke-width="1" stroke-linejoin="round" opacity="0.16"/></svg>