<svg xmlns="http://www.w3.org/2000/svg" viewBox="-2.00 2.46 100.01 91.01"><path d="M63.73,58.26 L63.82,56.49 L64.09,54.76 L64.51,53.10 L65.10,51.50 L65.83,49.98 L66.70,48.55 L68.82,45.97 L71.38,43.85 L72.81,42.98 L74.33,42.24 L75.92,41.66 L77.58,41.23 L79.30,40.96 L81.07,40.87 L83.37,41.03 L85.58,41.47 L87.68,42.19 L89.65,43.16 L91.47,44.36 L93.12,45.78 L94.58,47.39 L95.84,49.17 L95.84,7.66 L95.59,6.42 L94.90,5.40 L93.89,4.72 L92.64,4.46 L3.20,4.46 L1.96,4.71 L0.94,5.40 L0.25,6.42 L0.00,7.66 L0.00,68.35 L0.25,69.60 L0.94,70.61 L1.95,71.30 L3.20,71.55 L69.91,71.55 L68.53,70.25 L67.31,68.81 L66.25,67.25 L65.36,65.60 L64.66,63.86 L64.15,62.04 L63.84,60.17 L63.73,58.26 Z" fill="#0055c5" stroke="#1e1e1e" stroke-width="1" stroke-linejoin="round"/><path d="M35.29,54.00 L36.27,53.84 L37.08,53.33 L37.65,52.56 L37.88,51.59 L37.88,51.51 L37.88,51.21 L37.32,48.22 L36.42,45.45 L35.16,42.94 L33.55,40.75 L31.57,38.95 L29.21,37.59 L26.48,36.73 L23.35,36.43 L20.22,36.69 L17.46,37.45 L15.08,38.68 L13.07,40.37 L11.42,42.49 L10.15,45.01 L9.24,47.90 L8.70,51.14 L8.80,52.17 L9.28,53.05 L10.05,53.69 L11.03,53.99 L35.28,53.99 L35.29,54.00 Z" fill="#66ddff" stroke="#1e1e1e" stroke-width="1" stroke-linejoin="round"/><path d="M23.46,38.37 L22.31,38.27 L21.20,38.02 L20.13,37.62 L19.13,37.07 L23.46,48.51 L27.83,37.15 L25.73,38.06 L23.46,38.37 L23.46,38.37 Z" fill="#f2f2f2" stroke="#f2f2f2" stroke-width="1" stroke-linejoin="round"/><ellipse cx="23.40" cy="30.19" rx="8.18" ry="8.18" fill="#66ddff" stroke="#66ddff" stroke-width="1"/><rect x="41.75" y="22.02" width="40.70" height="7.91" fill="#66ddff" stroke="#66ddff" stroke-width="1"/><path d="M70.76,41.72 L45.71,41.72 L44.91,41.80 L44.17,42.03 L42.91,42.88 L42.07,44.14 L41.84,44.88 L41.75,45.67 L41.84,46.47 L42.07,47.21 L42.91,48.47 L44.17,49.32 L44.91,49.55 L45.71,49.63 L62.83,49.63 L64.13,47.31 L65.81,45.17 L67.99,43.27 L69.29,42.45 L70.76,41.72 L70.76,41.72 Z" fill="#66ddff" stroke="#66ddff" stroke-width="1" stroke-linejoin="round"/><path d="M96.00,58.26 L95.70,55.24 L94.83,52.43 L93.45,49.88 L91.63,47.66 L89.42,45.83 L86.88,44.45 L84.08,43.58 L81.07,43.27 L78.06,43.58 L75.25,44.45 L72.72,45.83 L70.51,47.66 L68.68,49.88 L67.31,52.43 L66.44,55.24 L66.13,58.26 L66.25,60.13 L66.58,61.92 L67.13,63.64 L67.86,65.25 L68.78,66.76 L69.85,68.15 L71.09,69.39 L72.45,70.49 L71.49,89.68 L71.59,90.33 L71.92,90.87 L72.42,91.25 L73.06,91.41 L73.74,91.30 L74.31,90.92 L80.81,86.81 L87.25,90.98 L87.79,91.35 L88.41,91.48 L89.03,91.36 L89.58,91.01 L89.96,90.44 L90.08,89.76 L89.34,70.74 L90.78,69.65 L92.07,68.39 L93.21,66.99 L94.18,65.45 L94.95,63.79 L95.53,62.03 L95.88,60.19 L96.01,58.27 L96.00,58.26 Z" fill="#4ac8f7" stroke="#1e1e1e" stroke-width="1" stroke-linejoin="round"/><path d="M78.14,65.34 L77.46,65.20 L76.88,64.82 L71.70,59.64 L71.33,59.03 L71.23,58.36 L71.39,57.69 L71.80,57.12 L72.37,56.77 L73.01,56.65 L73.65,56.77 L74.22,57.12 L78.14,61.05 L87.74,51.45 L88.34,51.08 L89.02,50.98 L89.68,51.13 L90.26,51.55 L90.61,52.12 L90.73,52.75 L90.61,53.39 L90.26,53.96 L79.40,64.82 L78.82,65.20 L78.14,65.33 L78.14,65.34 Z" fill="#ffffff" stroke="#ffffff" stroke-width="1" stroke-linejoin="round"/></svg>