<svg xmlns="http://www.w3.org/2000/svg" viewBox="-1.99 3.33 100.00 89.37"><path d="M94.15,53.17 L54.13,8.03 L52.82,6.85 L51.32,6.01 L49.70,5.50 L48.02,5.33 L46.33,5.50 L44.71,6.01 L43.21,6.85 L41.90,8.03 L1.88,53.17 L0.91,54.56 L0.29,56.05 L0.01,57.61 L0.08,59.17 L0.49,60.69 L1.21,62.11 L2.26,63.37 L3.61,64.44 L43.61,89.45 L44.65,89.99 L45.74,90.39 L48.01,90.70 L50.28,90.39 L51.37,89.99 L52.41,89.45 L92.41,64.44 L93.76,63.38 L94.81,62.11 L95.53,60.69 L95.93,59.17 L96.00,57.61 L95.73,56.05 L95.11,54.56 L94.14,53.17 L94.14,53.17 L94.15,53.17 Z" fill="#1152a6" stroke="#1e1e1e" stroke-width="1" stroke-linejoin="round"/><path d="M54.14,8.03 L52.83,6.85 L51.33,6.01 L49.71,5.50 L48.02,5.33 L46.34,5.50 L44.71,6.01 L43.21,6.85 L41.90,8.03 L1.89,53.17 L0.91,54.56 L0.29,56.05 L0.02,57.61 L0.09,59.17 L0.49,60.69 L1.22,62.11 L2.26,63.37 L3.61,64.44 L20.29,74.86 L22.08,75.83 L24.28,76.71 L26.76,77.34 L29.44,77.59 L31.87,77.41 L34.19,76.90 L36.37,76.09 L38.38,74.99 L38.39,74.98 L48.01,68.96 L24.73,54.41 L48.60,27.49 L49.77,26.29 L51.06,25.22 L52.48,24.28 L53.99,23.49 L55.60,22.86 L57.29,22.40 L59.06,22.11 L60.88,22.01 L62.74,22.12 L64.54,22.42 L66.26,22.91 L67.89,23.57 L54.13,8.05 L54.13,8.04 L54.14,8.03 Z" fill="#34b8f2" stroke="#1e1e1e" stroke-width="1" stroke-linejoin="round"/><path d="M24.73,54.41 L25.01,54.58 L48.02,68.96 L48.02,68.96 L71.30,54.41 L71.31,54.41 L71.30,54.41 L48.02,28.14 L24.73,54.41 Z" fill="#88eafc" stroke="#1e1e1e" stroke-width="1" stroke-linejoin="round"/><path d="M48.02,90.69 L50.29,90.38 L51.38,89.99 L52.42,89.45 L92.42,64.44 L93.77,63.38 L94.82,62.11 L95.54,60.69 L95.95,59.17 L96.01,57.61 L95.74,56.05 L95.12,54.56 L94.15,53.17 L54.14,8.03 L52.83,6.85 L51.33,6.01 L49.71,5.50 L48.02,5.33 L48.02,90.69 Z" fill="#041642" stroke="#1e1e1e" stroke-width="1" stroke-linejoin="round" opacity="0.16"/><path d="M68.95,46.69 L44.65,80.72 L68.95,90.61 L93.26,80.72 L68.95,46.69 Z" fill="#773adc" stroke="#1e1e1e" stroke-width="1" stroke-linejoin="round"/><path d="M68.95,46.69 L44.65,80.72 L68.95,90.61 L68.95,46.69 Z" fill="#f9f9f9" stroke="#1e1e1e" stroke-width="1" stroke-linejoin="round" opacity="0.5"/></svg>