<svg xmlns="http://www.w3.org/2000/svg" viewBox="-1.99 2.20 100.00 91.61"><path d="M24.73,53.26 L25.00,53.43 L48.00,67.81 L48.01,67.81 L48.01,67.81 L48.01,27.00 L48.00,26.99 L24.73,53.26 Z" fill="#ffb34d" stroke="#1e1e1e" stroke-width="1" stroke-linejoin="round" opacity="0.9"/><path d="M54.11,6.90 L52.80,5.72 L51.31,4.87 L49.69,4.37 L48.01,4.20 L48.01,4.20 L46.32,4.36 L44.70,4.87 L43.20,5.71 L41.89,6.90 L41.88,6.90 L1.88,52.02 L0.91,53.40 L0.29,54.90 L0.01,56.45 L0.08,58.02 L0.49,59.54 L1.21,60.95 L2.25,62.22 L3.61,63.28 L20.28,73.70 L22.07,74.67 L24.26,75.55 L26.75,76.18 L29.43,76.42 L31.86,76.25 L34.18,75.74 L36.36,74.92 L38.36,73.83 L38.37,73.83 L48.00,67.81 L24.73,53.26 L48.01,27.00 L48.59,26.34 L49.76,25.15 L51.05,24.08 L52.46,23.14 L53.98,22.35 L55.59,21.72 L57.28,21.25 L59.04,20.97 L60.87,20.87 L62.72,20.97 L64.52,21.28 L66.24,21.77 L67.87,22.42 L54.11,6.91 L54.11,6.90 Z" fill="#faa21d" stroke="#1e1e1e" stroke-width="1" stroke-linejoin="round"/><path d="M71.28,53.26 L71.28,53.26 L71.28,53.26 L48.01,27.00 L48.01,67.80 L71.28,53.26 Z" fill="#f78d1e" stroke="#1e1e1e" stroke-width="1" stroke-linejoin="round"/><path d="M94.12,52.02 L67.87,22.41 L66.24,21.75 L64.52,21.27 L62.73,20.96 L60.87,20.86 L59.05,20.96 L57.28,21.24 L55.59,21.71 L53.98,22.34 L52.47,23.13 L51.06,24.07 L49.76,25.14 L48.59,26.33 L48.01,26.99 L71.29,53.25 L48.54,67.47 L48.01,67.80 L48.01,67.82 L48.00,67.81 L38.37,73.82 L38.36,73.82 L36.36,74.92 L34.18,75.73 L31.86,76.24 L29.43,76.42 L26.75,76.17 L24.26,75.54 L22.07,74.66 L20.28,73.69 L43.61,88.28 L44.64,88.82 L45.73,89.21 L48.00,89.52 L48.00,89.52 L48.01,89.52 L50.28,89.21 L51.36,88.82 L52.40,88.28 L61.62,82.51 L61.62,82.51 L92.40,63.27 L92.40,63.27 L93.75,62.21 L94.79,60.95 L95.52,59.53 L95.92,58.02 L95.99,56.45 L95.72,54.90 L95.10,53.40 L94.12,52.02 L94.12,52.02 Z" fill="#f37e0e" stroke="#1e1e1e" stroke-width="1" stroke-linejoin="round"/><path d="M96.00,67.85 L95.84,70.08 L95.37,72.26 L94.63,74.36 L93.67,76.38 L92.52,78.32 L91.21,80.16 L88.30,83.53 L85.24,86.42 L82.33,88.78 L78.20,91.64 L77.60,91.81 L77.01,91.64 L72.88,88.80 L69.97,86.44 L66.91,83.55 L63.99,80.18 L62.69,78.34 L61.53,76.40 L60.57,74.37 L59.84,72.27 L59.37,70.09 L59.20,67.85 L59.20,53.31 L59.29,52.87 L59.53,52.50 L59.88,52.25 L60.32,52.15 L63.98,51.84 L66.63,51.20 L68.54,50.35 L70.04,49.40 L71.39,48.46 L72.91,47.65 L74.88,47.08 L77.61,46.87 L80.33,47.08 L82.31,47.65 L83.82,48.46 L85.18,49.40 L86.67,50.35 L88.59,51.20 L91.23,51.84 L94.89,52.15 L95.33,52.25 L95.69,52.50 L95.93,52.87 L96.01,53.31 L96.01,67.85 L96.00,67.85 Z" fill="#0078d4" stroke="#1e1e1e" stroke-width="1" stroke-linejoin="round"/><path d="M94.49,67.95 L94.34,70.01 L93.91,72.00 L93.24,73.93 L92.35,75.79 L91.29,77.57 L90.10,79.26 L87.42,82.34 L84.61,85.00 L81.94,87.15 L78.15,89.76 L77.60,89.91 L77.05,89.76 L73.26,87.15 L70.59,85.00 L67.78,82.34 L65.10,79.26 L63.91,77.57 L62.85,75.79 L61.96,73.93 L61.29,72.00 L60.86,70.01 L60.71,67.95 L60.71,54.74 L60.72,54.31 L60.89,53.93 L61.18,53.64 L61.58,53.48 L61.75,53.47 L65.11,53.21 L67.54,52.65 L69.30,51.89 L70.67,51.03 L71.91,50.19 L73.31,49.45 L75.11,48.93 L77.60,48.74 L80.09,48.93 L81.90,49.45 L83.29,50.19 L84.54,51.03 L85.91,51.89 L87.67,52.65 L90.10,53.21 L93.46,53.47 L93.86,53.56 L94.19,53.79 L94.50,54.52 L94.50,67.95 L94.49,67.95 Z" fill="#3f93e6" stroke="#1e1e1e" stroke-width="1" stroke-linejoin="round"/></svg>