<svg xmlns="http://www.w3.org/2000/svg" viewBox="19.33 0.67 57.33 94.67"><path d="M74.67,5.71 L74.67,90.29 L74.28,91.81 L73.19,92.92 L71.68,93.33 L24.37,93.33 L22.84,92.94 L21.72,91.82 L21.33,90.29 L21.33,5.71 L21.72,4.18 L22.84,3.06 L24.37,2.67 L71.63,2.67 L73.16,3.06 L74.28,4.18 L74.67,5.71 Z" fill="#3990e4" stroke="#1e1e1e" stroke-width="1" stroke-linejoin="round"/><path d="M28.43,12.11 L37.33,12.11 L37.86,12.33 L38.08,12.85 L38.08,24.05 L37.86,24.58 L37.33,24.80 L28.43,24.80 L27.88,24.58 L27.63,24.05 L27.63,12.85 L27.88,12.32 L28.43,12.11 L28.43,12.11 Z" fill="#f2f2f2" stroke="#f2f2f2" stroke-width="1" stroke-linejoin="round"/><path d="M43.68,12.11 L52.32,12.11 L52.85,12.33 L53.07,12.85 L53.07,24.05 L52.85,24.58 L52.32,24.80 L43.68,24.80 L43.15,24.58 L42.93,24.05 L42.93,12.85 L43.15,12.33 L43.68,12.11 L43.68,12.11 Z" fill="#f2f2f2" stroke="#f2f2f2" stroke-width="1" stroke-linejoin="round"/><path d="M58.93,12.11 L67.57,12.11 L68.12,12.32 L68.37,12.85 L68.37,24.05 L68.12,24.58 L67.57,24.80 L58.93,24.80 L58.41,24.58 L58.19,24.05 L58.19,12.85 L58.41,12.33 L58.93,12.11 L58.93,12.11 Z" fill="#f2f2f2" stroke="#f2f2f2" stroke-width="1" stroke-linejoin="round"/><path d="M28.43,32.43 L37.33,32.43 L37.86,32.65 L38.08,33.17 L38.08,44.37 L37.86,44.92 L37.33,45.17 L28.43,45.17 L27.86,44.94 L27.63,44.37 L27.63,33.17 L27.88,32.64 L28.43,32.43 L28.43,32.43 Z" fill="#f2f2f2" stroke="#f2f2f2" stroke-width="1" stroke-linejoin="round"/><path d="M43.68,32.43 L52.32,32.43 L52.85,32.65 L53.07,33.17 L53.07,44.37 L52.85,44.92 L52.32,45.17 L43.68,45.17 L43.15,44.92 L42.93,44.37 L42.93,33.17 L43.15,32.65 L43.68,32.43 L43.68,32.43 Z" fill="#f2f2f2" stroke="#f2f2f2" stroke-width="1" stroke-linejoin="round"/><path d="M58.93,32.43 L67.57,32.43 L68.12,32.64 L68.37,33.17 L68.37,44.37 L68.14,44.94 L67.57,45.17 L58.93,45.17 L58.40,44.92 L58.19,44.37 L58.19,33.17 L58.41,32.65 L58.93,32.43 L58.93,32.43 Z" fill="#f2f2f2" stroke="#f2f2f2" stroke-width="1" stroke-linejoin="round"/><path d="M28.43,52.80 L37.33,52.80 L37.86,53.02 L38.08,53.55 L38.08,64.75 L37.86,65.27 L37.33,65.49 L28.43,65.49 L27.88,65.28 L27.63,64.75 L27.63,53.33 L27.94,52.93 L28.43,52.80 Z" fill="#f2f2f2" stroke="#f2f2f2" stroke-width="1" stroke-linejoin="round"/><path d="M43.68,52.80 L52.32,52.80 L52.95,52.83 L53.33,53.33 L53.33,64.53 L53.11,65.06 L52.59,65.28 L43.68,65.28 L43.15,65.06 L42.93,64.53 L42.93,53.33 L43.22,52.94 L43.68,52.80 Z" fill="#f2f2f2" stroke="#f2f2f2" stroke-width="1" stroke-linejoin="round"/><path d="M43.68,73.12 L52.32,73.12 L52.85,73.34 L53.07,73.87 L53.07,90.67 L52.85,91.19 L52.32,91.41 L43.68,91.41 L43.15,91.19 L42.93,90.67 L42.93,73.87 L43.15,73.34 L43.68,73.12 Z" fill="#f2f2f2" stroke="#f2f2f2" stroke-width="1" stroke-linejoin="round"/><path d="M58.93,52.80 L67.57,52.80 L68.12,53.02 L68.37,53.55 L68.37,64.75 L68.12,65.28 L67.57,65.49 L58.93,65.49 L58.41,65.27 L58.19,64.75 L58.19,53.33 L58.47,52.94 L58.93,52.80 Z" fill="#f2f2f2" stroke="#f2f2f2" stroke-width="1" stroke-linejoin="round"/></svg>