<svg xmlns="http://www.w3.org/2000/svg" viewBox="-1.98 -2.00 283.96 283.65"><path d="M123.82,238.32 L125.79,235.04 L127.94,231.95 L130.26,229.07 L132.76,226.40 L135.43,223.95 L138.27,221.71 L141.27,219.69 L144.44,217.89 L142.82,215.58 L141.39,213.14 L140.17,210.61 L139.15,207.97 L138.35,205.26 L137.77,202.47 L137.42,199.63 L137.30,196.74 L137.48,193.17 L138.01,189.72 L138.87,186.38 L140.04,183.17 L141.51,180.12 L143.26,177.25 L145.27,174.56 L147.52,172.08 L149.99,169.83 L152.68,167.82 L155.55,166.07 L158.60,164.60 L161.80,163.43 L165.13,162.57 L168.59,162.04 L172.15,161.86 L175.39,162.01 L178.56,162.45 L181.62,163.17 L184.58,164.15 L187.41,165.38 L190.11,166.85 L192.66,168.55 L195.04,170.45 L195.43,167.10 L196.13,163.85 L197.12,160.72 L198.40,157.72 L199.93,154.88 L201.72,152.20 L203.74,149.70 L205.98,147.39 L208.41,145.31 L211.04,143.44 L213.83,141.83 L216.78,140.47 L219.87,139.38 L223.08,138.59 L226.40,138.10 L229.82,137.94 L232.78,138.06 L235.68,138.43 L238.49,139.03 L241.22,139.86 L243.85,140.89 L246.37,142.13 L248.77,143.57 L251.04,145.18 L253.17,146.97 L255.16,148.92 L256.98,151.02 L258.64,153.27 L260.11,155.64 L261.40,158.14 L262.48,160.74 L263.36,163.45 L264.67,161.95 L265.83,160.35 L266.82,158.68 L267.64,156.94 L268.30,155.14 L268.79,153.30 L269.11,151.43 L269.26,149.54 L269.23,147.63 L269.03,145.74 L268.64,143.85 L268.08,142.00 L267.34,140.18 L266.41,138.42 L265.30,136.72 L263.99,135.09 L151.80,7.64 L150.03,5.85 L148.12,4.29 L146.07,2.98 L143.91,1.91 L141.67,1.07 L139.36,0.47 L137.01,0.12 L134.64,-0.00 L132.27,0.12 L129.92,0.47 L127.61,1.07 L125.37,1.91 L123.21,2.98 L121.16,4.29 L119.25,5.85 L117.48,7.64 L5.29,135.09 L3.79,137.00 L2.54,139.00 L1.55,141.08 L0.80,143.22 L0.30,145.41 L0.04,147.62 L0.02,149.83 L0.24,152.03 L0.69,154.20 L1.37,156.32 L2.27,158.37 L3.40,160.33 L4.76,162.18 L6.33,163.90 L8.12,165.48 L10.12,166.90 L122.31,237.51 L123.82,238.31 L123.82,238.32 Z" fill="#1152a6" stroke="#1e1e1e" stroke-width="1" stroke-linejoin="round"/><path d="M151.81,7.64 L150.04,5.85 L148.13,4.29 L146.08,2.98 L143.92,1.91 L141.68,1.07 L139.37,0.47 L137.02,0.12 L134.65,-0.00 L132.28,0.12 L129.93,0.47 L127.62,1.07 L125.38,1.91 L123.22,2.98 L121.17,4.29 L119.26,5.85 L117.49,7.64 L5.29,135.09 L3.79,137.00 L2.55,139.00 L1.56,141.08 L0.81,143.22 L0.31,145.41 L0.05,147.62 L0.03,149.83 L0.24,152.03 L0.69,154.20 L1.37,156.32 L2.28,158.37 L3.41,160.33 L4.76,162.18 L6.33,163.90 L8.12,165.48 L10.12,166.90 L56.89,196.33 L59.24,197.71 L61.91,199.08 L64.86,200.37 L68.07,201.55 L71.47,202.56 L75.05,203.35 L78.75,203.86 L82.54,204.04 L85.99,203.91 L89.37,203.54 L92.66,202.94 L95.87,202.11 L98.98,201.06 L101.98,199.80 L104.86,198.34 L107.61,196.70 L107.64,196.68 L134.63,179.69 L69.35,138.59 L136.29,62.54 L139.56,59.17 L143.20,56.14 L147.16,53.50 L151.41,51.27 L155.92,49.48 L160.67,48.17 L165.61,47.36 L170.73,47.08 L175.94,47.38 L180.98,48.23 L185.80,49.61 L190.38,51.48 L151.81,7.64 Z" fill="#34b8f2" stroke="#1e1e1e" stroke-width="1" stroke-linejoin="round"/><path d="M134.65,179.69 L149.30,170.47 L151.44,168.74 L153.71,167.17 L156.11,165.78 L158.63,164.59 L199.94,138.59 L199.94,138.59 L199.94,138.59 L134.65,64.42 L69.35,138.59 L70.13,139.08 L134.65,179.69 L134.65,179.69 L134.65,179.69 Z" fill="#88eafc" stroke="#1e1e1e" stroke-width="1" stroke-linejoin="round"/><path d="M144.44,217.89 L142.82,215.58 L141.39,213.15 L140.17,210.61 L139.15,207.98 L138.35,205.26 L137.77,202.47 L137.42,199.63 L137.30,196.74 L137.48,193.18 L138.01,189.72 L138.87,186.38 L140.04,183.18 L141.51,180.13 L143.26,177.25 L145.27,174.57 L147.52,172.09 L149.99,169.84 L152.68,167.83 L155.55,166.08 L158.60,164.61 L161.80,163.43 L165.13,162.57 L168.59,162.04 L172.15,161.86 L175.39,162.01 L178.56,162.45 L181.62,163.17 L184.58,164.15 L187.41,165.39 L190.11,166.86 L192.66,168.55 L195.04,170.46 L195.43,167.11 L196.13,163.86 L197.12,160.72 L198.40,157.73 L199.93,154.88 L201.72,152.20 L203.74,149.70 L205.98,147.40 L208.41,145.31 L211.04,143.45 L213.83,141.83 L216.78,140.47 L219.87,139.39 L223.08,138.59 L226.40,138.11 L229.82,137.94 L232.78,138.07 L235.68,138.44 L238.50,139.04 L241.23,139.86 L243.85,140.90 L246.37,142.14 L248.78,143.58 L251.05,145.19 L253.18,146.98 L255.16,148.93 L256.99,151.04 L258.64,153.28 L260.12,155.66 L261.40,158.15 L262.49,160.76 L263.37,163.47 L264.68,161.97 L265.84,160.37 L266.83,158.70 L267.66,156.96 L268.32,155.16 L268.81,153.32 L269.13,151.45 L269.28,149.55 L269.25,147.65 L269.05,145.75 L268.66,143.87 L268.10,142.01 L267.36,140.19 L266.43,138.43 L265.31,136.73 L264.01,135.10 L151.82,7.64 L150.05,5.85 L148.14,4.30 L146.09,2.98 L143.93,1.91 L141.69,1.07 L139.38,0.48 L137.03,0.12 L134.66,0.00 L134.66,224.66 L136.93,222.75 L139.32,220.98 L141.82,219.36 L144.44,217.89 L144.44,217.89 Z" fill="#041642" stroke="#1e1e1e" stroke-width="1" stroke-linejoin="round" opacity="0.25"/><path d="M190.21,255.11 L207.63,237.63 L208.58,236.85 L209.65,236.28 L210.81,235.92 L212.04,235.80 L213.26,235.92 L214.42,236.27 L215.48,236.84 L216.43,237.62 L217.21,238.57 L217.79,239.65 L218.14,240.82 L218.26,242.03 L218.26,248.38 L218.41,248.38 L255.07,248.34 L255.07,242.00 L255.19,240.75 L255.55,239.58 L256.12,238.52 L256.88,237.59 L257.80,236.83 L258.85,236.25 L260.02,235.89 L261.27,235.75 L261.29,235.75 L262.52,235.87 L263.67,236.23 L264.74,236.80 L265.69,237.58 L279.02,250.90 L279.71,249.07 L279.98,247.07 L279.98,246.79 L279.98,245.70 L279.16,240.48 L278.05,235.40 L276.64,230.50 L274.92,225.79 L272.90,221.31 L270.57,217.08 L267.93,213.13 L264.97,209.48 L261.69,206.17 L258.09,203.21 L254.17,200.63 L249.92,198.46 L245.33,196.73 L240.41,195.46 L235.16,194.68 L229.56,194.41 L223.95,194.64 L218.68,195.31 L213.74,196.42 L209.12,197.96 L204.84,199.91 L200.88,202.27 L197.25,205.02 L193.94,208.16 L190.96,211.67 L188.30,215.55 L185.97,219.77 L183.96,224.34 L182.27,229.24 L180.91,234.47 L179.86,240.00 L179.14,245.83 L179.11,247.65 L179.44,249.37 L180.09,250.97 L181.02,252.41 L182.21,253.64 L183.63,254.63 L185.23,255.34 L187.00,255.72 L187.10,255.73 L189.72,255.73 L190.22,255.11 L190.21,255.11 Z" fill="#1152a6" stroke="#1e1e1e" stroke-width="1" stroke-linejoin="round"/><path d="M229.96,201.15 L225.93,200.87 L222.00,200.01 L218.24,198.58 L214.71,196.61 L229.83,236.90 L244.94,197.43 L241.43,199.16 L237.72,200.36 L233.88,201.03 L229.97,201.15 L229.96,201.15 Z" fill="#ffffff" stroke="#1e1e1e" stroke-width="1" stroke-linejoin="round" opacity="0.8"/><ellipse cx="229.82" cy="172.82" rx="28.30" ry="28.33" fill="#1152a6" stroke="#1e1e1e" stroke-width="1"/><path d="M190.20,265.51 L189.27,264.36 L188.61,263.08 L188.21,261.72 L188.08,260.31 L188.21,258.91 L188.61,257.54 L189.28,256.26 L190.21,255.11 L207.63,237.63 L208.57,236.85 L209.63,236.28 L206.29,232.36 L202.57,228.85 L198.45,225.78 L193.95,223.19 L191.54,222.09 L189.04,221.11 L186.44,220.28 L183.73,219.59 L180.92,219.04 L178.01,218.64 L175.00,218.40 L171.88,218.32 L166.27,218.55 L161.00,219.22 L156.06,220.33 L151.44,221.87 L147.16,223.82 L143.20,226.18 L139.57,228.93 L136.26,232.07 L133.28,235.58 L130.62,239.46 L128.29,243.68 L126.28,248.25 L124.59,253.15 L123.23,258.38 L122.18,263.91 L121.46,269.74 L121.43,271.55 L121.76,273.28 L122.41,274.88 L123.34,276.32 L124.53,277.55 L125.95,278.54 L127.55,279.25 L129.32,279.63 L129.42,279.64 L204.31,279.64 L190.20,265.50 L190.20,265.51 Z" fill="#34b8f2" stroke="#1e1e1e" stroke-width="1" stroke-linejoin="round"/><path d="M172.29,225.06 L168.26,224.78 L164.33,223.92 L160.57,222.50 L157.05,220.52 L172.16,260.81 L187.27,221.35 L183.76,223.08 L180.05,224.28 L176.21,224.95 L172.30,225.06 L172.29,225.06 Z" fill="#ffffff" stroke="#1e1e1e" stroke-width="1" stroke-linejoin="round" opacity="0.8"/><ellipse cx="172.15" cy="196.74" rx="28.30" ry="28.33" fill="#34b8f2" stroke="#1e1e1e" stroke-width="1"/><path d="M279.38,258.76 L261.94,241.32 L261.94,241.32 L261.28,241.05 L260.62,241.33 L260.35,241.98 L260.35,252.70 L260.35,252.70 L260.08,253.35 L259.42,253.63 L218.41,253.67 L218.30,253.70 L213.89,253.70 L213.24,253.42 L212.97,252.77 L212.97,242.03 L212.69,241.37 L212.03,241.10 L211.38,241.37 L193.96,258.85 L193.50,259.53 L193.35,260.31 L193.50,261.09 L193.96,261.78 L211.38,279.23 L211.38,279.23 L211.70,279.46 L212.07,279.53 L212.73,279.24 L212.99,278.58 L212.99,267.81 L213.26,267.16 L213.91,266.89 L218.26,266.89 L218.41,266.92 L259.42,266.87 L259.42,266.87 L260.07,267.14 L260.35,267.80 L260.35,278.49 L260.62,279.15 L261.28,279.42 L261.94,279.15 L279.38,261.69 L279.83,261.01 L279.98,260.23 L279.83,259.45 L279.38,258.76 L279.38,258.76 Z" fill="#66ddff" stroke="#1e1e1e" stroke-width="1" stroke-linejoin="round"/></svg>