<svg xmlns="http://www.w3.org/2000/svg" viewBox="4.72 0.82 92.23 100.00"><path d="M94.95,73.56 L94.66,75.09 L93.81,76.39 L92.52,77.26 L91.00,77.56 L63.70,77.56 L62.17,77.28 L60.87,76.42 L60.00,75.13 L59.70,73.61 L59.70,28.69 L59.98,27.16 L60.83,25.86 L62.12,24.99 L63.65,24.69 L90.81,24.69 L92.33,24.97 L93.63,25.81 L94.50,27.09 L94.82,28.61 L94.82,73.56 L94.95,73.56 Z" fill="#59b4d9" stroke="#1e1e1e" stroke-width="1" stroke-linejoin="round"/><path d="M66.10,32.70 L75.70,32.70 L75.70,43.92 L66.10,43.92 L66.10,32.70 Z" fill="#ffffff" stroke="#ffffff" stroke-width="1" stroke-linejoin="round"/><path d="M78.92,32.70 L88.52,32.70 L88.52,43.92 L78.92,43.92 L78.92,32.70 Z" fill="#ffffff" stroke="#ffffff" stroke-width="1" stroke-linejoin="round"/><path d="M66.10,50.33 L75.70,50.33 L75.70,61.55 L66.10,61.55 L66.10,50.33 Z" fill="#ffffff" stroke="#ffffff" stroke-width="1" stroke-linejoin="round"/><path d="M78.92,50.33 L88.52,50.33 L88.52,61.55 L78.92,61.55 L78.92,50.33 Z" fill="#ffffff" stroke="#ffffff" stroke-width="1" stroke-linejoin="round"/><path d="M41.95,73.56 L41.67,75.09 L40.81,76.39 L39.52,77.26 L38.00,77.56 L10.73,77.56 L9.21,77.28 L7.91,76.44 L7.04,75.16 L6.72,73.64 L6.72,28.69 L7.01,27.16 L7.86,25.86 L9.15,24.99 L10.67,24.69 L37.78,24.69 L39.31,24.97 L40.60,25.81 L41.48,27.09 L41.79,28.61 L41.79,28.69 L41.95,73.56 Z" fill="#0072c6" stroke="#1e1e1e" stroke-width="1" stroke-linejoin="round"/><path d="M13.11,32.70 L22.71,32.70 L22.71,43.92 L13.11,43.92 L13.11,32.70 Z" fill="#59b4d9" stroke="#59b4d9" stroke-width="1" stroke-linejoin="round"/><path d="M25.93,32.70 L35.53,32.70 L35.53,43.92 L25.93,43.92 L25.93,32.70 Z" fill="#59b4d9" stroke="#59b4d9" stroke-width="1" stroke-linejoin="round"/><path d="M13.11,50.33 L22.71,50.33 L22.71,61.55 L13.11,61.55 L13.11,50.33 Z" fill="#59b4d9" stroke="#59b4d9" stroke-width="1" stroke-linejoin="round"/><path d="M25.93,50.33 L35.53,50.33 L35.53,61.55 L25.93,61.55 L25.93,50.33 Z" fill="#59b4d9" stroke="#59b4d9" stroke-width="1" stroke-linejoin="round"/><path d="M51.63,98.82 L55.78,98.37 L59.74,97.07 L63.35,94.96 L66.43,92.15 L68.86,88.75 L70.53,84.93 L71.36,80.84 L65.44,80.84 L64.64,84.07 L63.09,87.01 L60.88,89.51 L58.15,91.40 L55.04,92.59 L51.73,93.00 L48.66,92.66 L45.75,91.61 L43.16,89.92 L41.03,87.69 L47.54,80.75 L31.06,80.75 L31.06,98.32 L37.01,91.98 L39.36,94.34 L42.08,96.26 L45.10,97.67 L48.31,98.53 L51.63,98.82 L51.63,98.82 Z" fill="#ff8c00" stroke="#1e1e1e" stroke-width="1" stroke-linejoin="round"/><path d="M50.76,8.65 L53.83,8.99 L56.74,10.04 L59.32,11.73 L61.45,13.97 L54.95,20.89 L71.46,20.89 L71.46,3.33 L65.51,9.66 L63.15,7.29 L60.42,5.38 L57.40,3.97 L54.18,3.11 L50.86,2.82 L46.70,3.28 L42.72,4.59 L39.11,6.71 L36.03,9.53 L33.60,12.95 L31.95,16.79 L31.13,20.89 L37.03,20.89 L37.82,17.64 L39.37,14.68 L41.57,12.17 L44.32,10.26 L47.44,9.06 L50.76,8.65 L50.76,8.65 Z" fill="#ff8c00" stroke="#1e1e1e" stroke-width="1" stroke-linejoin="round"/></svg>