<svg xmlns="http://www.w3.org/2000/svg" viewBox="-1.99 -2.00 100.00 99.89"><path d="M42.46,81.72 L43.13,80.60 L43.87,79.54 L44.67,78.55 L45.52,77.64 L46.44,76.79 L47.41,76.02 L48.44,75.33 L49.53,74.72 L48.97,73.92 L48.48,73.09 L48.06,72.22 L47.72,71.32 L47.44,70.38 L47.24,69.43 L47.12,68.45 L47.08,67.46 L47.14,66.24 L47.32,65.06 L47.62,63.91 L48.02,62.81 L48.52,61.77 L49.12,60.78 L49.81,59.86 L50.58,59.01 L51.43,58.24 L52.35,57.55 L53.34,56.95 L54.38,56.44 L55.48,56.04 L56.63,55.75 L57.81,55.56 L59.03,55.50 L60.14,55.55 L61.23,55.70 L62.28,55.95 L63.29,56.29 L64.27,56.71 L65.19,57.22 L66.06,57.80 L66.88,58.45 L67.01,57.30 L67.25,56.19 L67.59,55.11 L68.03,54.08 L68.56,53.11 L69.17,52.19 L69.86,51.33 L70.63,50.54 L71.47,49.83 L72.37,49.19 L73.32,48.63 L74.34,48.17 L75.40,47.80 L76.50,47.52 L77.64,47.36 L78.81,47.30 L79.82,47.34 L80.82,47.47 L81.78,47.68 L82.72,47.96 L83.62,48.31 L84.48,48.74 L85.31,49.23 L86.08,49.78 L86.82,50.40 L87.50,51.07 L88.12,51.79 L88.69,52.56 L89.19,53.37 L89.64,54.23 L90.01,55.12 L90.31,56.05 L90.76,55.53 L91.15,54.99 L91.49,54.41 L91.78,53.82 L92.00,53.20 L92.17,52.57 L92.28,51.93 L92.33,51.28 L92.32,50.62 L92.25,49.97 L92.12,49.33 L91.93,48.69 L91.67,48.07 L91.35,47.46 L90.97,46.88 L90.53,46.32 L52.05,2.62 L51.45,2.00 L50.79,1.47 L50.09,1.02 L49.35,0.65 L48.58,0.37 L47.79,0.16 L46.98,0.04 L46.17,-0.00 L45.36,0.04 L44.55,0.16 L43.76,0.37 L42.99,0.65 L42.25,1.02 L41.55,1.47 L40.89,2.00 L40.29,2.62 L1.81,46.32 L1.30,46.98 L0.87,47.66 L0.53,48.38 L0.28,49.11 L0.10,49.86 L0.01,50.62 L0.01,51.38 L0.08,52.13 L0.24,52.88 L0.47,53.60 L0.78,54.31 L1.17,54.98 L1.63,55.61 L2.17,56.20 L2.78,56.75 L3.47,57.23 L41.94,81.45 L42.46,81.72 L42.46,81.72 Z" fill="#1152a6" stroke="#1e1e1e" stroke-width="1" stroke-linejoin="round"/><path d="M52.06,2.62 L51.45,2.00 L50.79,1.47 L50.09,1.02 L49.35,0.65 L48.58,0.37 L47.79,0.16 L46.99,0.04 L46.17,-0.00 L45.36,0.04 L44.55,0.16 L43.76,0.37 L42.99,0.65 L42.25,1.02 L41.55,1.47 L40.89,2.00 L40.29,2.62 L1.81,46.32 L1.30,46.98 L0.87,47.66 L0.53,48.38 L0.28,49.11 L0.11,49.86 L0.02,50.62 L0.01,51.38 L0.08,52.13 L0.24,52.88 L0.47,53.60 L0.78,54.31 L1.17,54.98 L1.63,55.61 L2.17,56.20 L2.78,56.75 L3.47,57.23 L19.51,67.32 L20.31,67.80 L21.23,68.26 L22.24,68.71 L23.34,69.11 L24.51,69.46 L25.73,69.73 L27.00,69.90 L28.30,69.97 L29.49,69.92 L30.64,69.80 L31.78,69.59 L32.88,69.30 L33.94,68.94 L34.97,68.51 L35.96,68.01 L36.90,67.45 L36.91,67.44 L46.17,61.62 L23.78,47.52 L46.73,21.45 L47.86,20.29 L49.10,19.25 L50.46,18.35 L51.92,17.58 L53.47,16.97 L55.09,16.52 L56.79,16.24 L58.54,16.15 L60.33,16.25 L62.06,16.54 L63.71,17.01 L65.28,17.65 L52.06,2.62 Z" fill="#34b8f2" stroke="#1e1e1e" stroke-width="1" stroke-linejoin="round"/><path d="M46.17,61.62 L51.19,58.46 L51.93,57.86 L52.71,57.32 L53.53,56.85 L54.40,56.44 L68.56,47.52 L68.56,47.52 L68.56,47.52 L46.17,22.09 L23.78,47.52 L24.05,47.69 L46.17,61.62 L46.17,61.62 L46.17,61.62 Z" fill="#88eafc" stroke="#1e1e1e" stroke-width="1" stroke-linejoin="round"/><path d="M49.53,74.72 L48.97,73.92 L48.48,73.09 L48.06,72.22 L47.72,71.32 L47.44,70.39 L47.24,69.43 L47.12,68.46 L47.08,67.46 L47.14,66.24 L47.32,65.06 L47.62,63.91 L48.02,62.81 L48.52,61.77 L49.12,60.78 L49.81,59.86 L50.58,59.01 L51.43,58.24 L52.35,57.55 L53.34,56.95 L54.38,56.45 L55.48,56.04 L56.63,55.75 L57.81,55.57 L59.03,55.50 L60.14,55.56 L61.23,55.71 L62.28,55.95 L63.29,56.29 L64.27,56.71 L65.19,57.22 L66.06,57.80 L66.88,58.45 L67.01,57.30 L67.25,56.19 L67.59,55.11 L68.03,54.09 L68.56,53.11 L69.17,52.19 L69.86,51.33 L70.63,50.54 L71.47,49.83 L72.37,49.19 L73.32,48.64 L74.34,48.17 L75.40,47.80 L76.50,47.53 L77.64,47.36 L78.81,47.30 L79.82,47.34 L80.82,47.47 L81.78,47.68 L82.72,47.96 L83.62,48.32 L84.48,48.74 L85.31,49.23 L86.09,49.79 L86.82,50.40 L87.50,51.07 L88.12,51.79 L88.69,52.56 L89.20,53.38 L89.64,54.23 L90.01,55.13 L90.31,56.06 L90.76,55.54 L91.16,54.99 L91.50,54.42 L91.78,53.82 L92.01,53.21 L92.18,52.57 L92.29,51.93 L92.34,51.28 L92.33,50.63 L92.26,49.98 L92.13,49.33 L91.93,48.70 L91.68,48.07 L91.36,47.47 L90.98,46.88 L90.53,46.33 L52.06,2.62 L51.45,2.00 L50.80,1.47 L50.10,1.02 L49.36,0.65 L48.59,0.37 L47.80,0.16 L46.99,0.04 L46.17,0.00 L46.17,77.04 L46.96,76.38 L47.77,75.77 L48.63,75.22 L49.53,74.72 L49.53,74.72 Z" fill="#041642" stroke="#1e1e1e" stroke-width="1" stroke-linejoin="round" opacity="0.16"/><path d="M65.23,87.48 L71.20,81.49 L71.52,81.22 L71.89,81.02 L72.29,80.90 L72.71,80.86 L73.13,80.90 L73.53,81.02 L73.89,81.22 L74.22,81.48 L74.48,81.81 L74.68,82.18 L74.80,82.58 L74.84,82.99 L74.84,85.17 L74.89,85.17 L87.46,85.16 L87.46,82.98 L87.51,82.55 L87.63,82.15 L87.83,81.79 L88.09,81.47 L88.40,81.21 L88.76,81.01 L89.16,80.89 L89.59,80.84 L89.60,80.84 L90.02,80.88 L90.42,81.00 L90.78,81.20 L91.11,81.47 L95.68,86.04 L95.91,85.41 L96.01,84.72 L96.01,84.63 L96.01,84.25 L95.73,82.46 L95.35,80.72 L94.86,79.04 L94.27,77.43 L93.58,75.89 L92.78,74.44 L91.87,73.08 L90.86,71.83 L89.74,70.70 L88.50,69.68 L87.16,68.80 L85.70,68.05 L84.13,67.46 L82.44,67.02 L80.64,66.76 L78.72,66.67 L76.80,66.74 L74.99,66.97 L73.29,67.36 L71.71,67.88 L70.24,68.55 L68.88,69.36 L67.64,70.30 L66.50,71.38 L65.48,72.58 L64.57,73.91 L63.77,75.36 L63.08,76.93 L62.50,78.61 L62.04,80.40 L61.68,82.30 L61.43,84.30 L61.42,84.92 L61.53,85.51 L61.75,86.06 L62.07,86.55 L62.48,86.98 L62.97,87.32 L63.52,87.56 L64.12,87.69 L64.16,87.69 L65.06,87.69 L65.23,87.48 L65.23,87.48 Z" fill="#1152a6" stroke="#1e1e1e" stroke-width="1" stroke-linejoin="round"/><path d="M78.86,68.97 L77.47,68.88 L76.13,68.58 L74.84,68.10 L73.63,67.42 L78.81,81.23 L83.99,67.70 L82.79,68.29 L81.52,68.71 L80.20,68.94 L78.86,68.97 L78.86,68.97 Z" fill="#ffffff" stroke="#ffffff" stroke-width="1" stroke-linejoin="round" opacity="0.8"/><ellipse cx="78.81" cy="59.26" rx="9.70" ry="9.71" fill="#1152a6" stroke="#1e1e1e" stroke-width="1"/><path d="M65.22,91.05 L64.90,90.65 L64.67,90.21 L64.54,89.75 L64.49,89.26 L64.54,88.78 L64.68,88.31 L64.91,87.88 L65.23,87.48 L71.20,81.49 L71.52,81.22 L71.88,81.02 L70.74,79.68 L69.46,78.48 L68.05,77.42 L66.51,76.53 L65.68,76.16 L64.82,75.82 L63.93,75.54 L63.00,75.30 L62.04,75.11 L61.04,74.97 L60.01,74.89 L58.94,74.86 L57.02,74.94 L55.21,75.17 L53.51,75.55 L51.93,76.08 L50.46,76.75 L49.10,77.56 L47.86,78.50 L46.72,79.58 L45.70,80.78 L44.79,82.11 L43.99,83.56 L43.30,85.13 L42.72,86.81 L42.26,88.60 L41.90,90.50 L41.65,92.50 L41.64,93.12 L41.75,93.71 L41.98,94.26 L42.30,94.75 L42.70,95.18 L43.19,95.51 L43.74,95.76 L44.35,95.89 L44.38,95.89 L70.06,95.89 L65.22,91.04 L65.22,91.05 Z" fill="#34b8f2" stroke="#1e1e1e" stroke-width="1" stroke-linejoin="round"/><path d="M59.08,77.18 L57.70,77.08 L56.35,76.78 L55.06,76.30 L53.85,75.62 L59.04,89.43 L64.22,75.90 L63.01,76.49 L61.74,76.91 L60.42,77.14 L59.08,77.18 L59.08,77.18 Z" fill="#ffffff" stroke="#ffffff" stroke-width="1" stroke-linejoin="round" opacity="0.8"/><ellipse cx="59.03" cy="67.46" rx="9.70" ry="9.71" fill="#34b8f2" stroke="#1e1e1e" stroke-width="1"/><path d="M95.80,88.73 L89.82,82.75 L89.82,82.75 L89.60,82.66 L89.37,82.75 L89.28,82.98 L89.28,86.65 L89.28,86.65 L89.18,86.88 L88.96,86.97 L74.89,86.99 L74.86,86.99 L73.35,86.99 L73.12,86.90 L73.03,86.68 L73.03,82.99 L72.93,82.77 L72.71,82.67 L72.48,82.77 L66.51,88.76 L66.35,89.00 L66.30,89.26 L66.35,89.53 L66.51,89.77 L72.48,95.75 L72.48,95.75 L72.59,95.83 L72.72,95.85 L72.95,95.76 L73.03,95.53 L73.03,91.84 L73.13,91.61 L73.35,91.52 L74.84,91.52 L74.89,91.53 L88.96,91.51 L88.96,91.51 L89.18,91.61 L89.28,91.83 L89.28,95.49 L89.37,95.72 L89.59,95.82 L89.82,95.72 L95.80,89.74 L95.96,89.50 L96.01,89.23 L95.96,88.97 L95.80,88.73 L95.80,88.73 Z" fill="#66ddff" stroke="#1e1e1e" stroke-width="1" stroke-linejoin="round"/></svg>