<svg xmlns="http://www.w3.org/2000/svg" viewBox="-2.00 6.75 100.11 82.51"><path d="M91.84,74.24 L93.47,73.93 L94.85,73.02 L95.78,71.65 L96.11,70.03 L96.09,69.67 L96.00,69.33 L95.10,64.46 L94.43,62.15 L93.63,59.92 L92.67,57.81 L91.57,55.81 L90.32,53.95 L88.93,52.23 L87.38,50.66 L85.68,49.27 L83.83,48.05 L81.82,47.03 L79.65,46.21 L77.33,45.61 L74.85,45.25 L72.21,45.12 L69.57,45.23 L67.09,45.55 L64.75,46.08 L62.58,46.82 L60.56,47.75 L58.69,48.87 L56.97,50.18 L55.41,51.67 L54.00,53.33 L52.75,55.16 L51.64,57.15 L50.69,59.29 L49.88,61.59 L49.23,64.04 L48.73,66.62 L48.37,69.33 L48.54,70.99 L49.33,72.47 L50.62,73.53 L52.21,74.03 L91.84,74.03 L91.84,74.24 Z" fill="#0078d4" stroke="#1e1e1e" stroke-width="1" stroke-linejoin="round"/><path d="M72.27,48.48 L69.72,48.25 L67.27,47.53 L65.01,46.35 L72.21,65.12 L79.31,46.51 L77.09,47.59 L74.72,48.26 L72.27,48.48 Z" fill="#ffffff" stroke="#ffffff" stroke-width="1" stroke-linejoin="round" opacity="0.8"/><ellipse cx="72.27" cy="35.09" rx="13.39" ry="13.39" fill="#0078d4" stroke="#1e1e1e" stroke-width="1"/><path d="M65.01,87.25 L66.97,86.94 L68.74,86.04 L70.15,84.64 L71.05,82.87 L71.36,80.91 L71.38,80.53 L71.36,80.16 L70.79,76.47 L70.00,72.88 L69.01,69.42 L67.80,66.09 L66.37,62.93 L64.73,59.95 L62.87,57.17 L60.78,54.60 L58.47,52.26 L55.93,50.18 L53.17,48.37 L50.17,46.84 L46.94,45.63 L43.48,44.74 L39.78,44.19 L35.84,44.00 L31.89,44.16 L28.18,44.63 L24.69,45.42 L21.43,46.50 L18.41,47.87 L15.60,49.53 L13.03,51.46 L10.68,53.66 L8.56,56.12 L6.66,58.84 L4.99,61.80 L3.54,64.99 L2.32,68.42 L1.33,72.07 L0.55,75.93 L0.00,80.00 L0.12,81.99 L0.84,83.85 L2.10,85.39 L3.78,86.47 L5.71,86.99 L64.91,86.99 L65.01,87.25 Z" fill="#29b9dd" stroke="#1e1e1e" stroke-width="1" stroke-linejoin="round"/><path d="M36.11,48.75 L32.37,48.36 L28.77,47.29 L25.44,45.55 L36.11,73.55 L46.77,45.76 L43.42,47.41 L39.83,48.41 L36.11,48.75 Z" fill="#ffffff" stroke="#1e1e1e" stroke-width="1" stroke-linejoin="round" opacity="0.8"/><ellipse cx="35.95" cy="28.75" rx="20.00" ry="20.00" fill="#29b9dd" stroke="#1e1e1e" stroke-width="1"/></svg>