<svg xmlns="http://www.w3.org/2000/svg" viewBox="1.22 1.04 93.56 93.96"><path d="M11.47,62.67 L9.90,57.85 L8.96,52.87 L8.68,47.81 L9.05,42.76 L10.07,37.80 L11.72,33.01 L13.98,28.47 L16.80,24.27 L14.62,22.32 L13.07,19.84 L9.61,24.83 L6.86,30.24 L4.85,35.97 L3.63,41.91 L3.22,47.97 L3.62,54.03 L4.83,59.97 L6.83,65.71 L9.02,63.99 L11.47,62.67 L11.47,62.67 Z" fill="#0078d4" stroke="#1e1e1e" stroke-width="1" stroke-linejoin="round"/><path d="M31.68,6.08 L33.54,8.34 L34.99,10.88 L39.23,9.64 L43.59,8.87 L48.00,8.59 L52.92,8.87 L57.77,9.78 L62.46,11.28 L66.93,13.37 L71.09,16.00 L72.37,14.01 L74.03,12.32 L74.03,12.32 L74.67,11.84 L69.92,8.78 L64.82,6.33 L59.46,4.54 L53.91,3.44 L48.27,3.04 L42.63,3.36 L37.07,4.37 L31.68,6.08 L31.68,6.08 Z" fill="#0078d4" stroke="#1e1e1e" stroke-width="1" stroke-linejoin="round"/><path d="M84.53,33.39 L86.10,38.20 L87.04,43.17 L87.33,48.22 L86.95,53.27 L85.93,58.22 L84.28,63.01 L82.02,67.53 L79.20,71.73 L80.43,72.72 L81.49,73.87 L82.29,74.97 L82.93,76.16 L86.39,71.17 L89.14,65.76 L91.15,60.03 L92.37,54.09 L92.78,48.03 L92.38,41.97 L91.17,36.03 L89.17,30.29 L86.98,32.04 L84.53,33.39 L84.53,33.39 Z" fill="#0078d4" stroke="#1e1e1e" stroke-width="1" stroke-linejoin="round"/><path d="M61.01,85.33 L56.76,86.52 L52.41,87.22 L48.00,87.41 L48.00,87.41 L43.08,87.13 L38.23,86.22 L33.54,84.72 L29.07,82.63 L24.91,80.00 L23.64,82.00 L21.97,83.68 L21.97,83.68 L21.33,84.16 L26.10,87.24 L31.21,89.69 L36.60,91.49 L42.16,92.60 L47.82,93.00 L53.49,92.70 L59.07,91.68 L64.48,89.97 L62.54,87.80 L61.01,85.33 L61.01,85.33 Z" fill="#0078d4" stroke="#1e1e1e" stroke-width="1" stroke-linejoin="round"/><path d="M27.63,9.97 L29.44,12.44 L30.51,15.31 L30.76,18.36 L30.17,21.36 L28.78,24.09 L26.71,26.34 L24.10,27.94 L21.16,28.78 L18.10,28.78 L15.15,27.94 L12.54,26.34 L10.47,24.09 L9.09,21.36 L8.50,18.36 L8.75,15.31 L9.82,12.44 L11.63,9.97 L13.96,8.14 L16.69,6.98 L19.63,6.59 L22.57,6.98 L25.30,8.14 L27.63,9.97 L27.63,9.97 Z" fill="#32bedd" stroke="#1e1e1e" stroke-width="1" stroke-linejoin="round"/><path d="M23.57,21.71 L24.61,20.33 L25.16,18.70 L25.16,16.98 L24.61,15.35 L23.57,13.97 L21.84,12.81 L19.79,12.40 L17.74,12.81 L16.00,13.97 L14.96,15.35 L14.41,16.98 L14.41,18.70 L14.96,20.33 L16.00,21.71 L16.00,21.71 L17.37,22.73 L18.99,23.27 L20.69,23.27 L22.31,22.73 L23.68,21.71 L23.57,21.71 Z" fill="#ffffff" stroke="#ffffff" stroke-width="1" stroke-linejoin="round"/><path d="M70.29,9.97 L72.76,8.16 L75.63,7.09 L78.68,6.84 L81.68,7.43 L84.41,8.82 L86.66,10.89 L88.26,13.50 L89.10,16.44 L89.10,19.50 L88.26,22.45 L86.66,25.06 L84.41,27.13 L81.68,28.51 L78.68,29.10 L75.63,28.85 L72.76,27.78 L70.29,25.97 L68.53,23.67 L67.42,20.98 L67.04,18.11 L67.42,15.23 L68.53,12.55 L70.29,10.24 L70.29,9.97 Z" fill="#32bedd" stroke="#1e1e1e" stroke-width="1" stroke-linejoin="round"/><path d="M82.03,13.97 L80.29,12.87 L78.26,12.51 L76.25,12.94 L74.55,14.10 L73.42,15.82 L73.02,17.84 L73.42,19.86 L74.55,21.58 L76.25,22.74 L78.26,23.17 L80.29,22.81 L82.03,21.71 L82.03,21.71 L83.07,20.33 L83.62,18.70 L83.62,16.98 L83.07,15.35 L82.03,13.97 Z" fill="#ffffff" stroke="#ffffff" stroke-width="1" stroke-linejoin="round"/><path d="M68.37,86.03 L66.56,83.56 L65.49,80.69 L65.24,77.64 L65.83,74.64 L67.22,71.91 L69.29,69.66 L71.90,68.06 L74.84,67.22 L77.90,67.22 L80.85,68.06 L83.46,69.66 L85.53,71.91 L86.91,74.64 L87.50,77.64 L87.25,80.69 L86.18,83.56 L84.37,86.03 L82.04,87.86 L79.31,89.02 L76.37,89.41 L73.43,89.02 L70.70,87.86 L68.37,86.03 Z" fill="#32bedd" stroke="#1e1e1e" stroke-width="1" stroke-linejoin="round"/><path d="M72.43,74.29 L71.39,75.67 L70.84,77.30 L70.84,79.02 L71.39,80.65 L72.43,82.03 L73.79,83.05 L75.41,83.59 L77.12,83.59 L78.74,83.05 L80.11,82.03 L81.15,80.65 L81.70,79.02 L81.70,77.30 L81.15,75.67 L80.11,74.29 L80.11,74.29 L78.74,73.27 L77.12,72.73 L75.41,72.73 L73.79,73.27 L72.43,74.29 L72.43,74.29 Z" fill="#ffffff" stroke="#ffffff" stroke-width="1" stroke-linejoin="round"/><path d="M25.71,86.03 L23.40,87.80 L20.71,88.92 L17.82,89.31 L14.94,88.93 L12.24,87.82 L9.93,86.05 L8.16,83.74 L7.04,81.05 L6.66,78.16 L7.04,75.27 L8.16,72.58 L9.93,70.27 L12.24,68.50 L14.94,67.39 L17.82,67.01 L20.71,67.40 L23.40,68.52 L25.71,70.29 L27.47,72.60 L28.58,75.28 L28.96,78.16 L28.58,81.04 L27.47,83.72 L25.71,86.03 Z" fill="#32bedd" stroke="#1e1e1e" stroke-width="1" stroke-linejoin="round"/><path d="M13.97,82.03 L15.71,83.13 L17.74,83.49 L19.75,83.06 L21.45,81.90 L22.58,80.18 L22.98,78.16 L22.58,76.14 L21.45,74.42 L19.75,73.26 L17.74,72.83 L15.71,73.19 L13.97,74.29 L13.97,74.29 L12.93,75.67 L12.38,77.30 L12.38,79.02 L12.93,80.65 L13.97,82.03 L13.97,82.03 Z" fill="#ffffff" stroke="#ffffff" stroke-width="1" stroke-linejoin="round"/><path d="M66.72,68.91 L68.27,68.60 L69.59,67.72 L70.46,66.40 L70.77,64.85 L70.77,64.37 L69.95,59.74 L69.33,57.53 L68.56,55.41 L67.66,53.39 L66.61,51.49 L65.41,49.71 L64.07,48.07 L62.58,46.57 L60.94,45.24 L59.16,44.08 L57.23,43.10 L55.15,42.32 L52.92,41.75 L50.53,41.40 L48.00,41.28 L45.47,41.38 L43.08,41.69 L40.85,42.19 L38.77,42.88 L36.84,43.76 L35.06,44.82 L33.43,46.06 L31.94,47.47 L30.60,49.05 L29.41,50.80 L28.36,52.70 L27.46,54.76 L26.70,56.96 L26.08,59.31 L25.61,61.80 L25.28,64.43 L25.42,66.01 L26.16,67.42 L27.38,68.44 L28.91,68.91 L66.72,68.91 Z" fill="#7e54c6" stroke="#1e1e1e" stroke-width="1" stroke-linejoin="round"/><path d="M48.00,44.32 L45.57,44.09 L43.23,43.41 L41.07,42.29 L48.00,60.16 L54.77,42.67 L52.63,43.64 L50.35,44.20 L48.00,44.32 L48.00,44.32 Z" fill="#ffffff" stroke="#ffffff" stroke-width="1" stroke-linejoin="round" opacity="0.8"/><ellipse cx="48.05" cy="31.57" rx="12.75" ry="12.75" fill="#7e54c6" stroke="#1e1e1e" stroke-width="1"/></svg>