<svg xmlns="http://www.w3.org/2000/svg" viewBox="-1.19 3.42 100.00 96.16"><path d="M6.24,55.43 L48.43,82.82 L91.39,55.38 L96.81,61.61 L48.43,92.80 L0.81,61.67 L6.24,55.43 Z" fill="#50e6ff" stroke="#1e1e1e" stroke-width="1" stroke-linejoin="round"/><path d="M9.38,51.96 L48.43,5.42 L88.30,52.01 L48.43,77.18 L9.38,51.96 Z" fill="#ffffff" stroke="#1e1e1e" stroke-width="1" stroke-linejoin="round"/><path d="M48.43,5.42 L48.43,77.18 L9.38,51.96 L48.43,5.42 Z" fill="#50e6ff" stroke="#1e1e1e" stroke-width="1" stroke-linejoin="round"/><path d="M48.43,5.42 L48.43,77.18 L88.30,52.01 L48.43,5.42 Z" fill="#3a9de6" stroke="#1e1e1e" stroke-width="1" stroke-linejoin="round"/><path d="M48.43,42.47 L88.30,52.01 L48.43,77.18 L48.43,42.47 Z" fill="#53b1e0" stroke="#1e1e1e" stroke-width="1" stroke-linejoin="round"/><path d="M48.43,77.18 L9.38,51.96 L48.43,42.47 L48.43,77.18 Z" fill="#9cebff" stroke="#1e1e1e" stroke-width="1" stroke-linejoin="round"/><path d="M48.43,92.80 L96.81,61.61 L91.39,55.38 L48.43,82.82 L48.43,92.80 Z" fill="#42a2e9" stroke="#1e1e1e" stroke-width="1" stroke-linejoin="round"/><path d="M88.52,64.43 L89.69,62.84 L90.31,60.95 L90.31,58.97 L89.69,57.08 L88.52,55.48 L88.52,55.48 L77.67,44.64 L76.08,43.48 L74.20,42.87 L72.24,42.87 L70.37,43.48 L68.77,44.64 L68.77,44.64 L57.93,55.48 L56.78,57.09 L56.18,58.97 L56.18,60.95 L56.78,62.83 L57.93,64.43 L66.98,73.49 L67.35,74.07 L67.47,74.74 L67.47,91.55 L67.63,92.38 L68.12,93.07 L72.24,97.19 L72.88,97.59 L73.62,97.59 L74.25,97.19 L78.21,93.23 L78.21,93.23 L80.60,90.85 L80.83,90.28 L80.60,89.71 L78.92,88.03 L78.62,87.38 L78.92,86.73 L80.60,85.04 L80.83,84.45 L80.60,83.85 L78.92,82.17 L78.62,81.55 L78.92,80.92 L80.60,79.19 L80.83,78.62 L80.60,78.05 L78.21,75.66 L78.21,74.79 L88.52,64.43 Z" fill="#ffca00" stroke="#ffca00" stroke-width="1" stroke-linejoin="round"/><path d="M73.22,47.24 L74.85,47.63 L76.12,48.72 L76.76,50.26 L76.62,51.93 L75.75,53.35 L74.33,54.22 L72.66,54.36 L71.12,53.72 L70.03,52.45 L69.64,50.82 L69.91,49.45 L70.69,48.29 L71.85,47.51 L73.22,47.24 Z" fill="#53b1e0" stroke="#53b1e0" stroke-width="1" stroke-linejoin="round"/><path d="M70.51,92.20 L70.51,92.20 L71.07,92.43 L71.62,92.18 L71.81,91.61 L71.81,77.72 L71.73,77.33 L71.48,77.02 L71.48,77.02 L70.93,76.89 L70.44,77.17 L70.29,77.72 L70.29,91.34 L70.27,91.80 L70.51,92.20 L70.51,92.20 Z" fill="#ff9300" stroke="#ff9300" stroke-width="1" stroke-linejoin="round" opacity="0.75"/><path d="M81.41,59.12 L81.66,59.15 L81.90,59.25 L82.10,59.40 L82.26,59.61 L82.35,59.84 L82.39,60.09 L82.39,60.26 L82.35,60.51 L82.26,60.75 L82.10,60.95 L81.90,61.10 L81.66,61.20 L81.41,61.23 L65.52,61.23 L65.27,61.20 L65.03,61.10 L64.83,60.95 L64.67,60.75 L64.58,60.51 L64.54,60.26 L64.54,60.09 L64.58,59.84 L64.67,59.61 L64.83,59.40 L65.03,59.25 L65.27,59.15 L65.52,59.12 L81.41,59.12 Z" fill="#ff9300" stroke="#ff9300" stroke-width="1" stroke-linejoin="round" opacity="0.75"/><path d="M81.41,62.54 L81.66,62.57 L81.90,62.67 L82.10,62.82 L82.26,63.02 L82.35,63.26 L82.39,63.51 L82.39,63.67 L82.35,63.93 L82.26,64.16 L82.10,64.36 L81.90,64.52 L81.66,64.62 L81.41,64.65 L65.52,64.65 L65.27,64.62 L65.03,64.52 L64.83,64.36 L64.67,64.16 L64.58,63.93 L64.54,63.67 L64.54,63.51 L64.58,63.26 L64.67,63.02 L64.83,62.82 L65.03,62.67 L65.27,62.57 L65.52,62.54 L81.41,62.54 Z" fill="#ff9300" stroke="#ff9300" stroke-width="1" stroke-linejoin="round" opacity="0.75"/></svg>