<svg xmlns="http://www.w3.org/2000/svg" viewBox="-1.97 0.33 100.00 95.38"><path d="M87.03,63.73 L88.54,63.44 L89.82,62.58 L90.68,61.31 L90.98,59.80 L90.99,59.56 L90.98,59.32 L90.13,54.79 L88.75,50.57 L87.86,48.60 L86.84,46.74 L85.68,45.01 L84.38,43.41 L82.93,41.96 L81.35,40.66 L79.63,39.53 L77.76,38.58 L75.75,37.83 L73.59,37.27 L71.28,36.93 L68.82,36.81 L66.32,36.91 L63.98,37.21 L61.78,37.69 L59.74,38.37 L57.85,39.23 L56.11,40.26 L54.52,41.47 L53.07,42.84 L51.77,44.38 L50.61,46.08 L49.59,47.94 L48.72,49.94 L47.98,52.09 L47.38,54.38 L46.60,59.37 L46.74,60.91 L47.47,62.28 L48.66,63.27 L50.14,63.73 L50.34,63.73 L50.54,63.73 L87.03,63.73 Z" fill="#773adc" stroke="#1e1e1e" stroke-width="1" stroke-linejoin="round"/><ellipse cx="68.81" cy="27.28" rx="12.46" ry="12.46" fill="#773adc" stroke="#1e1e1e" stroke-width="1"/><path d="M60.58,75.56 L62.41,75.27 L64.06,74.44 L65.37,73.13 L66.22,71.49 L66.51,69.66 L66.50,69.30 L66.47,68.95 L65.94,65.50 L65.21,62.16 L64.28,58.93 L63.16,55.83 L61.83,52.89 L60.29,50.10 L58.55,47.51 L56.61,45.11 L54.45,42.93 L52.08,40.98 L49.50,39.29 L46.70,37.87 L43.68,36.73 L40.45,35.90 L36.99,35.39 L33.31,35.21 L29.56,35.36 L26.05,35.80 L22.77,36.53 L19.72,37.54 L16.89,38.82 L14.28,40.37 L11.89,42.18 L9.73,44.24 L7.78,46.54 L6.04,49.09 L4.52,51.86 L3.21,54.87 L2.11,58.09 L1.21,61.52 L0.52,65.16 L0.03,69.00 L0.13,70.86 L0.80,72.59 L1.98,74.03 L3.54,75.04 L5.34,75.52 L5.63,75.55 L5.93,75.56 L60.58,75.56 Z" fill="#9563ec" stroke="#1e1e1e" stroke-width="1" stroke-linejoin="round"/><path d="M33.61,39.63 L30.08,39.29 L26.68,38.29 L23.53,36.66 L33.53,62.77 L43.45,36.81 L40.37,38.36 L37.05,39.31 L33.61,39.63 L33.61,39.63 Z" fill="#ffffff" stroke="#1e1e1e" stroke-width="1" stroke-linejoin="round" opacity="0.8"/><ellipse cx="33.49" cy="20.98" rx="18.65" ry="18.65" fill="#9563eb" stroke="#1e1e1e" stroke-width="1"/><path d="M72.37,50.90 L48.70,84.03 L72.37,93.71 L96.03,84.03 L72.37,50.90 Z" fill="#3a9de6" stroke="#1e1e1e" stroke-width="1" stroke-linejoin="round"/><path d="M72.37,50.90 L48.70,84.03 L72.37,93.71 L72.37,50.90 Z" fill="#50e6ff" stroke="#1e1e1e" stroke-width="1" stroke-linejoin="round"/></svg>