<svg xmlns="http://www.w3.org/2000/svg" viewBox="-1.97 0.33 99.97 95.35"><path d="M87.00,63.71 L88.51,63.42 L89.79,62.56 L90.65,61.29 L90.95,59.78 L90.96,59.54 L90.95,59.30 L90.10,54.77 L88.73,50.55 L87.84,48.58 L86.81,46.73 L85.65,45.00 L84.35,43.40 L82.91,41.94 L81.33,40.65 L79.60,39.52 L77.73,38.57 L75.72,37.81 L73.56,37.26 L71.26,36.92 L68.80,36.80 L66.30,36.90 L63.96,37.20 L61.76,37.68 L59.72,38.36 L57.83,39.21 L56.09,40.25 L54.50,41.45 L53.05,42.83 L51.75,44.37 L50.59,46.07 L49.58,47.92 L48.70,49.92 L47.97,52.07 L47.37,54.36 L46.58,59.35 L46.73,60.89 L47.45,62.26 L48.64,63.25 L50.12,63.71 L50.32,63.71 L50.52,63.71 L87.00,63.71 Z" fill="#773adc" stroke="#1e1e1e" stroke-width="1" stroke-linejoin="round"/><ellipse cx="68.79" cy="27.27" rx="12.45" ry="12.45" fill="#773adc" stroke="#1e1e1e" stroke-width="1"/><path d="M60.56,75.53 L62.39,75.25 L64.04,74.41 L65.35,73.11 L66.19,71.46 L66.49,69.64 L66.48,69.28 L66.45,68.92 L65.92,65.48 L65.19,62.14 L64.26,58.91 L63.13,55.81 L61.81,52.87 L60.27,50.09 L58.53,47.49 L56.59,45.09 L54.43,42.91 L52.06,40.97 L49.48,39.28 L46.68,37.86 L43.67,36.72 L40.43,35.89 L36.98,35.37 L33.30,35.20 L29.55,35.35 L26.04,35.79 L22.76,36.52 L19.71,37.53 L16.88,38.81 L14.27,40.36 L11.89,42.16 L9.72,44.22 L7.78,46.53 L6.04,49.07 L4.52,51.85 L3.21,54.85 L2.11,58.07 L1.21,61.50 L0.52,65.14 L0.03,68.98 L0.13,70.83 L0.80,72.57 L1.98,74.01 L3.54,75.02 L5.33,75.50 L5.63,75.52 L5.93,75.53 L60.56,75.53 Z" fill="#9563ec" stroke="#1e1e1e" stroke-width="1" stroke-linejoin="round"/><path d="M33.60,39.62 L30.07,39.28 L26.67,38.28 L23.52,36.65 L33.51,62.75 L43.43,36.80 L40.35,38.35 L37.04,39.30 L33.60,39.62 L33.60,39.62 Z" fill="#ffffff" stroke="#1e1e1e" stroke-width="1" stroke-linejoin="round" opacity="0.8"/><ellipse cx="33.48" cy="20.97" rx="18.65" ry="18.65" fill="#9563eb" stroke="#1e1e1e" stroke-width="1"/><path d="M72.34,50.88 L48.68,84.01 L72.34,93.67 L96.00,84.01 L72.34,50.88 Z" fill="#3a9de6" stroke="#1e1e1e" stroke-width="1" stroke-linejoin="round"/><path d="M72.34,50.88 L48.68,84.01 L72.34,93.67 L72.34,50.88 Z" fill="#50e6ff" stroke="#1e1e1e" stroke-width="1" stroke-linejoin="round"/></svg>