<svg xmlns="http://www.w3.org/2000/svg" viewBox="-2.00 -1.89 100.00 99.78"><rect x="0.00" y="0.11" width="88.96" height="63.31" fill="#0078d4" stroke="#1e1e1e" stroke-width="1"/><rect x="5.17" y="4.54" width="78.61" height="53.87" fill="#e1f5fe" stroke="#1e1e1e" stroke-width="1" opacity="0.9"/><rect x="54.93" y="27.35" width="41.07" height="68.53" fill="#4495e7" stroke="#1e1e1e" stroke-width="1"/><rect x="70.77" y="29.65" width="9.44" height="1.28" fill="#f2f2f2" stroke="#f2f2f2" stroke-width="1"/><rect x="39.89" y="2.09" width="9.44" height="1.28" fill="#f2f2f2" stroke="#f2f2f2" stroke-width="1"/><rect x="73.17" y="90.50" width="4.59" height="3.89" fill="#f2f2f2" stroke="#f2f2f2" stroke-width="1"/><rect x="58.83" y="33.11" width="33.33" height="55.09" fill="#e1f5fe" stroke="#1e1e1e" stroke-width="1" opacity="0.9"/><ellipse cx="44.61" cy="63.49" rx="22.87" ry="22.87" fill="#86d633" stroke="#1e1e1e" stroke-width="1"/><path d="M42.27,71.15 L40.17,73.25 L39.52,73.52 L38.87,73.25 L38.87,73.25 L30.53,64.91 L30.26,64.26 L30.53,63.61 L30.53,63.61 L31.98,62.16 L32.63,61.89 L33.27,62.16 L33.27,62.16 L42.27,71.15 L42.27,71.15 L42.27,71.15 Z" fill="#ffffff" stroke="#ffffff" stroke-width="1" stroke-linejoin="round"/><path d="M38.91,73.27 L36.81,71.17 L36.81,71.17 L56.00,51.98 L56.65,51.72 L57.30,51.98 L57.30,51.98 L58.75,53.43 L59.01,54.08 L58.75,54.73 L58.75,54.73 L40.20,73.27 L39.55,73.54 L38.91,73.27 L38.91,73.27 L38.91,73.27 Z" fill="#f0f0f0" stroke="#1e1e1e" stroke-width="1" stroke-linejoin="round"/></svg>