<svg xmlns="http://www.w3.org/2000/svg" viewBox="-2.00 -1.89 100.00 99.78"><path d="M85.76,0.11 L86.59,0.22 L87.36,0.54 L88.02,1.05 L88.53,1.71 L88.85,2.48 L88.96,3.31 L88.96,60.22 L88.85,61.05 L88.53,61.82 L88.02,62.48 L87.36,62.99 L86.59,63.31 L85.76,63.42 L3.20,63.42 L2.37,63.31 L1.60,62.99 L0.94,62.48 L0.43,61.82 L0.11,61.05 L0.00,60.22 L0.00,3.31 L0.11,2.48 L0.43,1.71 L0.94,1.05 L1.60,0.54 L2.37,0.22 L3.20,0.11 L85.76,0.11 Z" fill="#0078d4" stroke="#1e1e1e" stroke-width="1" stroke-linejoin="round"/><path d="M82.19,4.54 L82.60,4.59 L82.99,4.75 L83.32,5.01 L83.57,5.34 L83.73,5.72 L83.79,6.14 L83.79,56.81 L83.73,57.22 L83.57,57.61 L83.32,57.94 L82.99,58.19 L82.60,58.35 L82.19,58.41 L6.77,58.41 L6.36,58.35 L5.97,58.19 L5.64,57.94 L5.39,57.61 L5.23,57.22 L5.17,56.81 L5.17,6.14 L5.23,5.72 L5.39,5.34 L5.64,5.01 L5.97,4.75 L6.36,4.59 L6.77,4.54 L82.19,4.54 Z" fill="#e1f5fe" stroke="#1e1e1e" stroke-width="1" stroke-linejoin="round" opacity="0.9"/><path d="M94.40,27.35 L94.81,27.41 L95.20,27.57 L95.53,27.82 L95.79,28.15 L95.95,28.54 L96.00,28.95 L96.00,94.29 L95.95,94.70 L95.79,95.09 L95.53,95.42 L95.20,95.67 L94.81,95.83 L94.40,95.89 L56.53,95.89 L56.12,95.83 L55.73,95.67 L55.40,95.42 L55.15,95.09 L54.99,94.70 L54.93,94.29 L54.93,28.95 L54.99,28.54 L55.15,28.15 L55.40,27.82 L55.73,27.57 L56.12,27.41 L56.53,27.35 L94.40,27.35 Z" fill="#4495e7" stroke="#1e1e1e" stroke-width="1" stroke-linejoin="round"/><path d="M79.63,29.65 L79.78,29.67 L79.92,29.73 L80.04,29.82 L80.13,29.94 L80.19,30.08 L80.21,30.23 L80.21,30.34 L80.19,30.49 L80.13,30.63 L80.04,30.76 L79.92,30.85 L79.78,30.91 L79.63,30.93 L71.36,30.93 L71.21,30.91 L71.07,30.85 L70.95,30.76 L70.85,30.63 L70.79,30.49 L70.77,30.34 L70.77,30.23 L70.79,30.08 L70.85,29.94 L70.95,29.82 L71.07,29.73 L71.21,29.67 L71.36,29.65 L79.63,29.65 Z" fill="#f2f2f2" stroke="#f2f2f2" stroke-width="1" stroke-linejoin="round"/><path d="M48.75,2.09 L48.90,2.11 L49.04,2.16 L49.16,2.26 L49.25,2.38 L49.31,2.52 L49.33,2.67 L49.33,2.78 L49.31,2.93 L49.25,3.07 L49.16,3.19 L49.04,3.29 L48.90,3.35 L48.75,3.37 L40.48,3.37 L40.33,3.35 L40.19,3.29 L40.07,3.19 L39.97,3.07 L39.91,2.93 L39.89,2.78 L39.89,2.67 L39.91,2.52 L39.97,2.38 L40.07,2.26 L40.19,2.16 L40.33,2.11 L40.48,2.09 L48.75,2.09 Z" fill="#f2f2f2" stroke="#f2f2f2" stroke-width="1" stroke-linejoin="round"/><path d="M76.69,90.50 L76.97,90.54 L77.23,90.64 L77.45,90.81 L77.62,91.03 L77.72,91.29 L77.76,91.57 L77.76,93.33 L77.72,93.60 L77.62,93.86 L77.45,94.08 L77.23,94.25 L76.97,94.36 L76.69,94.39 L74.24,94.39 L73.96,94.36 L73.71,94.25 L73.49,94.08 L73.32,93.86 L73.21,93.60 L73.17,93.33 L73.17,91.57 L73.21,91.29 L73.32,91.03 L73.49,90.81 L73.71,90.64 L73.96,90.54 L74.24,90.50 L76.69,90.50 Z" fill="#f2f2f2" stroke="#f2f2f2" stroke-width="1" stroke-linejoin="round"/><path d="M91.41,33.11 L91.61,33.14 L91.79,33.21 L91.94,33.33 L92.06,33.49 L92.13,33.67 L92.16,33.86 L92.16,87.46 L92.13,87.65 L92.06,87.83 L91.94,87.99 L91.79,88.11 L91.61,88.18 L91.41,88.21 L59.57,88.21 L59.38,88.18 L59.20,88.11 L59.05,87.99 L58.93,87.83 L58.85,87.65 L58.83,87.46 L58.83,33.86 L58.85,33.67 L58.93,33.49 L59.05,33.33 L59.20,33.21 L59.38,33.14 L59.57,33.11 L91.41,33.11 Z" fill="#e1f5fe" stroke="#1e1e1e" stroke-width="1" stroke-linejoin="round" opacity="0.9"/><ellipse cx="44.61" cy="63.49" rx="22.87" ry="22.87" fill="#86d633" stroke="#1e1e1e" stroke-width="1"/><path d="M42.27,71.15 L40.17,73.25 L39.52,73.52 L38.87,73.25 L38.87,73.25 L30.53,64.91 L30.26,64.26 L30.53,63.61 L30.53,63.61 L31.98,62.16 L32.63,61.89 L33.27,62.16 L33.27,62.16 L42.27,71.15 L42.27,71.15 L42.27,71.15 Z" fill="#ffffff" stroke="#ffffff" stroke-width="1" stroke-linejoin="round"/><path d="M38.91,73.27 L36.81,71.17 L36.81,71.17 L56.00,51.98 L56.65,51.72 L57.30,51.98 L57.30,51.98 L58.75,53.43 L59.01,54.08 L58.75,54.73 L58.75,54.73 L40.20,73.27 L39.55,73.54 L38.91,73.27 L38.91,73.27 L38.91,73.27 Z" fill="#f0f0f0" stroke="#1e1e1e" stroke-width="1" stroke-linejoin="round"/></svg>