<svg xmlns="http://www.w3.org/2000/svg" viewBox="13.39 5.42 84.05 100.00"><path d="M95.45,52.25 L95.09,57.03 L94.07,61.67 L92.47,66.16 L90.37,70.48 L87.87,74.62 L85.03,78.55 L81.94,82.27 L78.70,85.75 L75.37,88.97 L72.04,91.93 L65.72,96.97 L60.41,100.72 L56.76,103.05 L55.44,103.42 L54.13,103.05 L50.47,100.72 L45.15,96.97 L38.82,91.93 L35.49,88.97 L32.16,85.75 L28.91,82.27 L25.82,78.55 L22.98,74.62 L20.47,70.48 L18.37,66.16 L16.77,61.67 L15.75,57.03 L15.39,52.25 L15.39,21.19 L15.72,19.96 L16.63,19.06 L17.86,18.73 L22.15,18.49 L25.81,18.05 L28.92,17.44 L31.55,16.68 L33.80,15.81 L35.73,14.86 L38.97,12.83 L41.92,10.83 L43.48,9.91 L45.21,9.09 L47.19,8.41 L49.50,7.88 L52.22,7.54 L55.42,7.42 L58.62,7.54 L61.34,7.88 L63.65,8.41 L65.63,9.10 L67.36,9.91 L68.92,10.83 L71.87,12.83 L75.11,14.86 L77.04,15.82 L79.29,16.69 L81.92,17.44 L85.03,18.06 L88.69,18.50 L92.98,18.73 L94.21,19.06 L95.12,19.96 L95.45,21.20 L95.45,52.25 Z" fill="#3e93e6" stroke="#1e1e1e" stroke-width="1" stroke-linejoin="round"/></svg>