<svg xmlns="http://www.w3.org/2000/svg" viewBox="11.33 4.43 73.33 87.15"><path d="M82.67,45.25 L82.36,49.39 L81.47,53.41 L80.09,57.30 L78.27,61.05 L76.10,64.63 L73.64,68.04 L70.97,71.25 L68.16,74.27 L65.28,77.06 L62.39,79.62 L56.92,83.98 L52.32,87.23 L49.16,89.25 L48.02,89.57 L46.88,89.25 L43.71,87.23 L39.10,83.98 L33.63,79.62 L30.74,77.06 L27.85,74.27 L25.04,71.25 L22.36,68.04 L19.90,64.63 L17.73,61.05 L15.91,57.30 L14.53,53.41 L13.64,49.39 L13.33,45.25 L13.33,18.35 L13.62,17.29 L14.40,16.50 L15.47,16.22 L19.19,16.02 L22.36,15.64 L25.05,15.11 L27.33,14.45 L29.27,13.70 L30.94,12.87 L33.75,11.11 L36.30,9.38 L37.66,8.58 L39.16,7.88 L40.88,7.28 L42.87,6.82 L45.23,6.53 L48.00,6.43 L50.77,6.53 L53.13,6.82 L55.12,7.28 L56.84,7.88 L58.34,8.58 L59.70,9.38 L62.25,11.11 L65.06,12.87 L66.73,13.70 L68.67,14.45 L70.95,15.11 L73.64,15.64 L76.81,16.02 L80.53,16.22 L81.60,16.51 L82.38,17.29 L82.67,18.36 L82.67,45.25 Z" fill="#3e93e6" stroke="#1e1e1e" stroke-width="1" stroke-linejoin="round"/></svg>