<svg xmlns="http://www.w3.org/2000/svg" viewBox="-1.87 12.13 99.73 71.75"><path d="M95.87,49.20 L95.87,44.10 L95.58,43.21 L94.84,42.62 L94.84,42.62 L87.72,40.29 L87.14,39.94 L86.75,39.39 L85.24,35.73 L85.13,35.10 L85.27,34.46 L88.47,27.64 L88.60,26.70 L88.16,25.86 L84.63,22.32 L83.76,21.88 L82.81,22.03 L82.81,22.03 L76.15,25.41 L75.50,25.58 L74.84,25.47 L71.16,23.96 L70.62,23.59 L70.27,23.03 L67.69,15.90 L67.11,15.15 L66.20,14.86 L61.10,14.86 L60.21,15.14 L59.63,15.88 L59.63,15.88 L57.29,23.00 L56.94,23.58 L56.39,23.97 L52.72,25.48 L52.08,25.59 L51.44,25.44 L44.75,22.24 L43.81,22.12 L42.96,22.55 L39.43,26.08 L38.99,26.94 L39.13,27.90 L39.13,27.90 L42.52,34.55 L42.69,35.21 L42.57,35.87 L41.07,39.54 L40.70,40.08 L40.14,40.43 L32.89,43.02 L32.12,43.60 L31.82,44.51 L31.82,49.60 L32.11,50.50 L32.85,51.08 L32.85,51.08 L39.96,53.41 L40.55,53.75 L40.93,54.31 L42.44,57.99 L42.56,58.63 L42.41,59.26 L39.21,66.08 L39.09,67.02 L39.53,67.87 L43.06,71.40 L43.92,71.84 L44.88,71.70 L44.88,71.70 L51.53,68.31 L52.18,68.14 L52.85,68.26 L56.52,69.77 L57.07,70.13 L57.41,70.69 L59.99,77.82 L60.57,78.59 L61.48,78.89 L66.58,78.89 L67.48,78.61 L68.06,77.87 L68.06,77.87 L70.40,70.72 L70.74,70.14 L71.30,69.75 L74.98,68.25 L75.62,68.13 L76.25,68.28 L83.07,71.48 L84.01,71.60 L84.86,71.17 L88.39,67.63 L88.83,66.77 L88.69,65.81 L88.69,65.81 L85.33,59.15 L85.16,58.50 L85.28,57.83 L86.78,54.15 L87.15,53.62 L87.71,53.27 L94.83,50.67 L95.57,50.09 L95.87,49.20 L95.87,49.20 Z" fill="#32cced" stroke="#1e1e1e" stroke-width="1" stroke-linejoin="round"/><path d="M65.28,60.83 L61.84,60.76 L58.51,59.85 L55.51,58.16 L53.01,55.79 L51.16,52.88 L50.07,49.61 L49.82,46.17 L50.40,42.78 L51.80,39.63 L53.92,36.91 L56.64,34.79 L59.79,33.40 L63.18,32.81 L66.62,33.07 L69.89,34.16 L72.80,36.01 L75.17,38.51 L76.85,41.51 L77.76,44.84 L77.83,48.28 L77.15,51.40 L75.78,54.29 L73.79,56.79 L71.29,58.78 L68.40,60.15 L65.28,60.83 L65.28,60.83 Z" fill="#ffffff" stroke="#1e1e1e" stroke-width="1" stroke-linejoin="round"/><path d="M0.26,20.53 L5.09,14.93 L5.89,14.34 L6.86,14.13 L53.14,14.13 L54.49,14.29 L55.66,14.99 L56.43,16.10 L56.68,17.44 L56.68,74.89 L56.57,75.42 L56.24,75.86 L49.50,81.69 L3.39,81.69 L0.19,80.34 L0.26,20.53 Z" fill="#005ba1" stroke="#1e1e1e" stroke-width="1" stroke-linejoin="round"/><path d="M4.14,20.51 L7.10,17.14 L7.81,16.61 L8.67,16.43 L51.87,16.43 L52.91,16.71 L53.67,17.47 L53.95,18.51 L53.95,73.44 L53.78,74.28 L53.27,74.98 L48.66,79.18 L4.14,20.51 Z" fill="#ffffff" stroke="#1e1e1e" stroke-width="1" stroke-linejoin="round"/><path d="M48.74,20.47 L0.53,20.47 L0.29,20.56 L0.19,20.80 L0.19,80.69 L0.54,81.53 L1.38,81.88 L48.74,81.88 L49.58,81.53 L49.93,80.69 L49.93,21.66 L49.58,20.82 L48.74,20.47 L48.74,20.47 Z" fill="#3a9de6" stroke="#1e1e1e" stroke-width="1" stroke-linejoin="round"/><path d="M0.38,20.47 L13.83,20.47 L13.83,20.47 L13.83,81.85 L13.83,81.85 L1.14,81.85 L0.43,81.55 L0.13,80.84 L0.13,20.72 L0.21,20.55 L0.38,20.47 L0.38,20.47 Z" fill="#006aba" stroke="#1e1e1e" stroke-width="1" stroke-linejoin="round"/></svg>