<svg xmlns="http://www.w3.org/2000/svg" viewBox="-1.87 12.17 100.00 71.94"><path d="M96.13,49.34 L96.13,44.22 L95.85,43.33 L95.11,42.74 L95.11,42.74 L87.97,40.40 L87.38,40.05 L86.99,39.50 L85.48,35.83 L85.36,35.19 L85.51,34.56 L88.72,27.72 L88.84,26.77 L88.41,25.93 L84.87,22.38 L84.00,21.94 L83.04,22.09 L83.04,22.09 L76.36,25.48 L75.71,25.66 L75.05,25.54 L71.36,24.02 L70.82,23.65 L70.47,23.10 L67.87,15.94 L67.29,15.19 L66.39,14.90 L61.27,14.90 L60.38,15.19 L59.79,15.93 L59.79,15.93 L57.45,23.07 L57.10,23.65 L56.55,24.03 L52.87,25.55 L52.22,25.66 L51.58,25.51 L44.88,22.30 L43.93,22.18 L43.08,22.61 L39.54,26.15 L39.10,27.02 L39.24,27.98 L39.24,27.98 L42.64,34.65 L42.80,35.31 L42.69,35.97 L41.18,39.65 L40.81,40.19 L40.25,40.54 L32.98,43.14 L32.21,43.72 L31.91,44.63 L31.91,49.74 L32.20,50.64 L32.94,51.22 L32.94,51.22 L40.07,53.56 L40.66,53.90 L41.05,54.46 L42.56,58.15 L42.68,58.79 L42.53,59.42 L39.32,66.26 L39.20,67.21 L39.64,68.06 L43.18,71.60 L44.05,72.04 L45.01,71.90 L45.01,71.90 L51.67,68.50 L52.33,68.33 L53.00,68.45 L56.68,69.96 L57.22,70.33 L57.57,70.88 L60.16,78.04 L60.74,78.81 L61.65,79.11 L66.76,79.11 L67.66,78.83 L68.25,78.08 L68.25,78.08 L70.60,70.92 L70.94,70.33 L71.50,69.95 L75.19,68.44 L75.83,68.31 L76.46,68.47 L83.30,71.68 L84.25,71.80 L85.10,71.37 L88.64,67.82 L89.08,66.95 L88.94,65.99 L88.94,65.99 L85.57,59.31 L85.40,58.66 L85.52,58.00 L87.03,54.31 L87.40,53.77 L87.95,53.42 L95.09,50.81 L95.84,50.23 L96.13,49.34 L96.13,49.34 Z" fill="#32cced" stroke="#1e1e1e" stroke-width="1" stroke-linejoin="round"/><path d="M65.46,61.00 L62.01,60.93 L58.67,60.02 L55.66,58.32 L53.16,55.94 L51.30,53.03 L50.21,49.75 L49.96,46.30 L50.54,42.90 L51.94,39.74 L54.07,37.01 L56.79,34.89 L59.95,33.49 L63.36,32.91 L66.80,33.16 L70.08,34.25 L73.00,36.11 L75.37,38.62 L77.07,41.63 L77.98,44.96 L78.05,48.42 L77.36,51.55 L75.99,54.44 L74.00,56.95 L71.49,58.94 L68.59,60.32 L65.46,61.00 L65.46,61.00 Z" fill="#ffffff" stroke="#1e1e1e" stroke-width="1" stroke-linejoin="round"/><path d="M0.26,20.59 L5.10,14.97 L5.90,14.38 L6.88,14.17 L53.29,14.17 L54.64,14.33 L55.81,15.03 L56.59,16.15 L56.84,17.49 L56.84,75.09 L56.72,75.63 L56.40,76.07 L49.64,81.91 L3.40,81.91 L0.19,80.57 L0.26,20.59 Z" fill="#005ba1" stroke="#1e1e1e" stroke-width="1" stroke-linejoin="round"/><path d="M4.16,20.57 L7.12,17.18 L7.83,16.66 L8.70,16.47 L52.02,16.47 L53.06,16.75 L53.82,17.52 L54.10,18.56 L54.10,73.64 L53.93,74.49 L53.42,75.19 L48.79,79.40 L4.16,20.57 Z" fill="#ffffff" stroke="#1e1e1e" stroke-width="1" stroke-linejoin="round"/><path d="M48.88,20.53 L0.53,20.53 L0.29,20.62 L0.19,20.86 L0.19,80.92 L0.54,81.76 L1.38,82.11 L48.88,82.11 L49.72,81.76 L50.07,80.92 L50.07,21.72 L49.72,20.88 L48.88,20.53 L48.88,20.53 Z" fill="#3a9de6" stroke="#1e1e1e" stroke-width="1" stroke-linejoin="round"/><path d="M0.38,20.53 L13.87,20.53 L13.87,20.53 L13.87,82.07 L13.87,82.07 L1.14,82.07 L0.43,81.78 L0.13,81.07 L0.13,20.78 L0.21,20.60 L0.38,20.53 L0.38,20.53 Z" fill="#006aba" stroke="#1e1e1e" stroke-width="1" stroke-linejoin="round"/></svg>