<svg xmlns="http://www.w3.org/2000/svg" viewBox="0.13 1.15 95.67 93.46"><path d="M74.93,91.25 L77.13,90.91 L79.12,89.90 L80.70,88.33 L81.72,86.36 L82.08,84.16 L82.10,83.73 L82.08,83.31 L81.43,79.16 L80.55,75.13 L79.43,71.24 L78.07,67.51 L76.47,63.96 L74.62,60.60 L72.53,57.47 L70.19,54.59 L67.59,51.96 L64.74,49.62 L61.63,47.58 L58.26,45.87 L54.63,44.50 L50.73,43.49 L46.57,42.88 L42.13,42.67 L37.69,42.85 L33.52,43.38 L29.60,44.26 L25.95,45.48 L22.55,47.02 L19.41,48.89 L16.53,51.07 L13.91,53.55 L11.55,56.33 L9.44,59.40 L7.59,62.74 L5.99,66.36 L4.65,70.24 L3.56,74.37 L2.72,78.75 L2.13,83.36 L2.25,85.59 L3.05,87.67 L4.46,89.40 L6.33,90.62 L8.48,91.20 L74.93,91.20 L74.93,91.25 Z" fill="#29b9dd" stroke="#1e1e1e" stroke-width="1" stroke-linejoin="round"/><path d="M42.13,48.00 L37.89,47.61 L33.80,46.40 L30.03,44.43 L42.03,75.84 L53.97,44.64 L50.26,46.50 L46.27,47.63 L42.13,48.00 L42.13,48.00 Z" fill="#ffffff" stroke="#1e1e1e" stroke-width="1" stroke-linejoin="round" opacity="0.8"/><ellipse cx="42.13" cy="25.60" rx="22.45" ry="22.45" fill="#29b9dd" stroke="#1e1e1e" stroke-width="1"/><path d="M92.11,61.07 L93.22,59.54 L93.80,57.74 L93.80,55.86 L93.22,54.06 L92.11,52.53 L92.11,52.53 L81.76,41.87 L80.24,40.74 L78.44,40.15 L76.55,40.15 L74.75,40.74 L73.23,41.87 L73.23,41.87 L62.56,52.21 L61.45,53.75 L60.86,55.56 L60.86,57.46 L61.45,59.26 L62.56,60.80 L71.15,69.55 L71.50,70.09 L71.63,70.72 L71.63,86.72 L71.78,87.54 L72.27,88.21 L76.16,92.21 L77.15,92.60 L78.13,92.21 L81.97,88.37 L81.97,88.37 L84.21,86.08 L84.44,85.55 L84.21,85.01 L82.56,83.36 L82.32,82.75 L82.56,82.13 L84.21,80.48 L84.46,79.95 L84.21,79.41 L82.61,77.76 L82.37,77.15 L82.61,76.53 L84.27,74.88 L84.49,74.35 L84.27,73.81 L82.03,71.52 L82.03,70.93 L92.11,61.07 Z" fill="#ffc613" stroke="#ffc613" stroke-width="1" stroke-linejoin="round"/><path d="M77.55,44.48 L78.85,44.77 L79.95,45.53 L80.69,46.64 L80.96,47.95 L80.71,49.27 L79.96,50.40 L78.82,51.13 L77.49,51.36 L75.95,50.77 L74.85,49.53 L74.46,47.92 L74.85,46.31 L75.95,45.07 L77.49,44.48 L77.55,44.48 Z" fill="#ffffff" stroke="#ffffff" stroke-width="1" stroke-linejoin="round"/><path d="M74.67,87.36 L74.67,87.36 L75.20,87.58 L75.73,87.36 L75.95,86.83 L75.95,73.76 L75.87,73.38 L75.63,73.07 L75.63,73.07 L75.10,72.94 L74.63,73.20 L74.45,73.71 L74.45,86.83 L74.50,87.12 L74.67,87.36 Z" fill="#ff9300" stroke="#ff9300" stroke-width="1" stroke-linejoin="round" opacity="0.75"/><path d="M69.11,57.84 L69.12,55.82 L86.24,55.92 L86.23,57.95 L69.11,57.84 Z" fill="#ff9300" stroke="#ff9300" stroke-width="1" stroke-linejoin="round" opacity="0.75"/><path d="M69.05,61.17 L69.07,59.14 L86.19,59.25 L86.17,61.27 L69.05,61.17 Z" fill="#ff9300" stroke="#ff9300" stroke-width="1" stroke-linejoin="round" opacity="0.75"/></svg>