<svg xmlns="http://www.w3.org/2000/svg" viewBox="-1.84 5.91 99.72 84.17"><path d="M95.88,49.07 L95.88,41.54 L94.81,41.14 L86.75,38.47 L84.62,33.32 L88.71,24.61 L83.43,19.32 L82.36,19.86 L74.83,23.69 L69.68,21.55 L66.38,12.44 L58.89,12.44 L58.49,13.50 L55.82,21.56 L50.67,23.70 L42.13,19.61 L36.85,24.89 L37.38,25.96 L41.21,33.49 L39.08,38.64 L29.83,41.94 L29.83,49.46 L30.90,49.86 L38.95,52.52 L41.09,57.67 L36.96,66.37 L42.24,71.65 L43.31,71.12 L50.84,67.29 L55.99,69.42 L59.29,78.54 L66.82,78.54 L67.22,77.47 L69.86,69.41 L75.01,67.28 L83.73,71.38 L89.02,66.09 L88.49,65.02 L84.66,57.49 L86.79,52.34 L95.88,49.07 Z" fill="#0078d4" stroke="#1e1e1e" stroke-width="1" stroke-linejoin="round"/><path d="M62.85,59.99 L59.46,59.60 L56.26,58.42 L53.43,56.53 L51.11,54.03 L49.45,51.05 L48.52,47.77 L48.39,44.37 L49.05,41.03 L50.47,37.93 L52.58,35.25 L55.26,33.14 L58.35,31.71 L61.70,31.05 L65.10,31.18 L68.38,32.11 L71.36,33.77 L73.86,36.08 L75.75,38.92 L76.93,42.11 L77.33,45.50 L76.97,48.72 L75.90,51.79 L74.18,54.54 L71.88,56.83 L69.14,58.56 L66.07,59.63 L62.85,59.99 L62.85,59.99 Z" fill="#ffffff" stroke="#1e1e1e" stroke-width="1" stroke-linejoin="round"/><path d="M66.45,88.09 L68.45,87.77 L70.26,86.86 L71.69,85.43 L72.62,83.63 L72.94,81.63 L72.93,81.24 L72.90,80.85 L72.32,77.08 L71.52,73.42 L70.50,69.89 L69.27,66.50 L67.81,63.27 L66.13,60.23 L64.23,57.38 L62.10,54.76 L59.74,52.37 L57.14,50.25 L54.31,48.40 L51.25,46.84 L47.95,45.59 L44.41,44.68 L40.62,44.12 L36.59,43.93 L32.49,44.09 L28.65,44.58 L25.05,45.38 L21.71,46.48 L18.61,47.89 L15.76,49.58 L13.15,51.56 L10.77,53.81 L8.64,56.34 L6.74,59.12 L5.07,62.16 L3.64,65.45 L2.43,68.97 L1.45,72.73 L0.70,76.71 L0.16,80.91 L0.27,82.94 L1.00,84.84 L2.29,86.42 L4.00,87.53 L5.97,88.05 L6.29,88.08 L6.62,88.09 L66.45,88.09 Z" fill="#30cef0" stroke="#1e1e1e" stroke-width="1" stroke-linejoin="round"/><path d="M36.94,48.75 L33.07,48.39 L29.34,47.29 L25.88,45.50 L36.83,74.09 L47.70,45.69 L44.32,47.38 L40.69,48.41 L36.94,48.75 L36.94,48.75 Z" fill="#ffffff" stroke="#1e1e1e" stroke-width="1" stroke-linejoin="round" opacity="0.8"/><ellipse cx="36.79" cy="28.34" rx="20.42" ry="20.42" fill="#30cef0" stroke="#1e1e1e" stroke-width="1"/></svg>