<svg xmlns="http://www.w3.org/2000/svg" viewBox="0.23 1.30 100.00 97.68"><path d="M78.47,95.56 L80.78,95.20 L82.85,94.15 L84.51,92.51 L85.58,90.44 L85.96,88.14 L85.98,87.69 L85.96,87.24 L85.28,82.90 L84.36,78.68 L83.19,74.60 L81.76,70.70 L80.08,66.98 L78.15,63.47 L75.96,60.19 L73.50,57.17 L70.78,54.42 L67.80,51.96 L64.54,49.83 L61.01,48.03 L57.21,46.60 L53.13,45.55 L48.77,44.90 L44.12,44.68 L39.48,44.87 L35.10,45.43 L31.00,46.35 L27.17,47.63 L23.62,49.25 L20.33,51.20 L17.32,53.48 L14.57,56.08 L12.09,58.99 L9.89,62.20 L7.95,65.71 L6.27,69.49 L4.87,73.56 L3.72,77.88 L2.85,82.47 L2.23,87.30 L2.36,89.63 L3.20,91.81 L4.67,93.63 L6.63,94.90 L8.88,95.51 L78.47,95.51 L78.47,95.56 Z" fill="#29b9dd" stroke="#1e1e1e" stroke-width="1" stroke-linejoin="round"/><path d="M44.12,50.27 L39.68,49.86 L35.40,48.60 L31.45,46.53 L44.01,79.42 L56.52,46.75 L52.63,48.69 L48.45,49.88 L44.12,50.27 L44.12,50.27 Z" fill="#ffffff" stroke="#1e1e1e" stroke-width="1" stroke-linejoin="round" opacity="0.8"/><ellipse cx="44.12" cy="26.81" rx="23.51" ry="23.51" fill="#29b9dd" stroke="#1e1e1e" stroke-width="1"/><path d="M96.46,63.95 L97.62,62.35 L98.23,60.47 L98.23,58.49 L97.62,56.61 L96.46,55.02 L96.46,55.02 L85.62,43.84 L84.03,42.67 L82.15,42.05 L80.16,42.05 L78.28,42.67 L76.69,43.84 L76.69,43.84 L65.52,54.68 L64.35,56.29 L63.73,58.18 L63.73,60.17 L64.35,62.06 L65.52,63.67 L74.51,72.83 L74.88,73.40 L75.01,74.06 L75.01,90.82 L75.17,91.67 L75.68,92.38 L79.76,96.57 L80.79,96.98 L81.82,96.57 L85.85,92.55 L85.85,92.55 L88.19,90.15 L88.43,89.59 L88.19,89.03 L86.46,87.30 L86.21,86.66 L86.46,86.01 L88.19,84.28 L88.45,83.72 L88.19,83.17 L86.52,81.43 L86.27,80.79 L86.52,80.15 L88.25,78.42 L88.48,77.86 L88.25,77.30 L85.90,74.90 L85.90,74.28 L96.46,63.95 Z" fill="#ffc613" stroke="#ffc613" stroke-width="1" stroke-linejoin="round"/><path d="M81.21,46.58 L82.57,46.89 L83.73,47.68 L84.50,48.84 L84.78,50.21 L84.52,51.60 L83.74,52.78 L82.55,53.55 L81.15,53.79 L79.53,53.17 L78.39,51.87 L77.97,50.18 L78.39,48.50 L79.53,47.20 L81.15,46.58 L81.21,46.58 Z" fill="#ffffff" stroke="#ffffff" stroke-width="1" stroke-linejoin="round"/><path d="M78.19,91.49 L78.19,91.49 L78.75,91.72 L79.31,91.49 L79.53,90.93 L79.53,77.24 L79.45,76.84 L79.20,76.52 L79.20,76.52 L78.65,76.38 L78.16,76.65 L77.97,77.19 L77.97,90.93 L78.02,91.23 L78.19,91.49 Z" fill="#ff9300" stroke="#ff9300" stroke-width="1" stroke-linejoin="round" opacity="0.75"/><path d="M72.38,59.40 L72.41,59.16 L72.51,58.93 L72.66,58.73 L72.86,58.58 L73.09,58.49 L73.33,58.46 L89.36,58.56 L89.61,58.59 L89.84,58.69 L90.03,58.84 L90.18,59.04 L90.28,59.27 L90.31,59.51 L90.31,59.74 L90.27,59.98 L90.18,60.21 L90.02,60.41 L89.83,60.56 L89.60,60.65 L89.35,60.68 L73.32,60.58 L73.08,60.55 L72.85,60.45 L72.65,60.30 L72.50,60.10 L72.41,59.87 L72.38,59.63 L72.38,59.40 Z" fill="#ff9300" stroke="#ff9300" stroke-width="1" stroke-linejoin="round" opacity="0.75"/><path d="M72.32,62.89 L72.36,62.64 L72.45,62.41 L72.61,62.22 L72.80,62.07 L73.03,61.97 L73.28,61.94 L89.31,62.04 L89.55,62.08 L89.78,62.17 L89.98,62.32 L90.13,62.52 L90.22,62.75 L90.25,63.00 L90.25,63.22 L90.22,63.47 L90.12,63.69 L89.97,63.89 L89.77,64.04 L89.54,64.13 L89.30,64.16 L73.27,64.07 L73.02,64.03 L72.79,63.94 L72.60,63.78 L72.45,63.59 L72.35,63.36 L72.32,63.11 L72.32,62.89 Z" fill="#ff9300" stroke="#ff9300" stroke-width="1" stroke-linejoin="round" opacity="0.75"/></svg>