<svg xmlns="http://www.w3.org/2000/svg" viewBox="-0.10 -0.66 96.20 97.29"><path d="M63.31,1.34 L64.11,1.45 L64.87,1.76 L65.51,2.26 L66.01,2.90 L66.32,3.66 L66.43,4.46 L66.43,88.89 L66.32,89.70 L66.01,90.45 L65.51,91.10 L64.87,91.59 L64.11,91.90 L63.31,92.01 L5.02,92.01 L4.21,91.90 L3.46,91.59 L2.81,91.10 L2.32,90.45 L2.00,89.70 L1.90,88.89 L1.90,4.46 L2.00,3.66 L2.32,2.90 L2.81,2.26 L3.46,1.76 L4.21,1.45 L5.02,1.34 L63.31,1.34 Z" fill="#b796f9" stroke="#1e1e1e" stroke-width="1" stroke-linejoin="round"/><path d="M51.08,69.26 L51.51,69.32 L51.90,69.48 L52.24,69.74 L52.50,70.08 L52.66,70.47 L52.71,70.90 L52.71,74.25 L52.66,74.67 L52.50,75.06 L52.24,75.40 L51.90,75.66 L51.51,75.82 L51.08,75.88 L17.24,75.88 L16.82,75.82 L16.43,75.66 L16.09,75.40 L15.83,75.06 L15.67,74.67 L15.61,74.25 L15.61,70.90 L15.67,70.47 L15.83,70.08 L16.09,69.74 L16.43,69.48 L16.82,69.32 L17.24,69.26 L51.08,69.26 Z" fill="#773adc" stroke="#773adc" stroke-width="1" stroke-linejoin="round"/><path d="M51.08,56.44 L51.51,56.49 L51.90,56.66 L52.24,56.92 L52.50,57.25 L52.66,57.65 L52.71,58.07 L52.71,61.42 L52.66,61.84 L52.50,62.23 L52.24,62.57 L51.90,62.83 L51.51,63.00 L51.08,63.05 L17.24,63.05 L16.82,63.00 L16.43,62.83 L16.09,62.57 L15.83,62.23 L15.67,61.84 L15.61,61.42 L15.61,58.07 L15.67,57.65 L15.83,57.25 L16.09,56.92 L16.43,56.66 L16.82,56.49 L17.24,56.44 L51.08,56.44 Z" fill="#773adc" stroke="#773adc" stroke-width="1" stroke-linejoin="round"/><path d="M47.47,48.93 L48.87,48.61 L49.92,47.64 L50.34,46.27 L50.34,46.18 L50.35,46.01 L50.34,45.83 L49.72,42.53 L48.72,39.45 L47.33,36.66 L45.54,34.23 L43.34,32.23 L42.09,31.41 L40.73,30.72 L39.26,30.17 L37.69,29.77 L36.02,29.52 L34.23,29.43 L30.76,29.72 L27.70,30.57 L26.32,31.19 L25.05,31.94 L23.89,32.82 L22.82,33.82 L21.00,36.16 L19.59,38.96 L18.58,42.17 L17.98,45.77 L18.22,47.24 L19.17,48.40 L20.57,48.93 L47.47,48.93 Z" fill="#7a51c2" stroke="#1e1e1e" stroke-width="1" stroke-linejoin="round"/><path d="M34.35,31.59 L31.84,31.21 L29.55,30.14 L34.35,42.84 L39.20,30.23 L36.87,31.25 L34.35,31.59 Z" fill="#f2f2f2" stroke="#f2f2f2" stroke-width="1" stroke-linejoin="round"/><ellipse cx="34.29" cy="22.52" rx="9.07" ry="9.07" fill="#7a51c2" stroke="#1e1e1e" stroke-width="1"/><path d="M72.98,48.81 L75.65,50.53 L76.75,51.04 L77.95,51.21 L81.15,51.21 L82.74,51.52 L84.09,52.39 L85.03,53.71 L86.36,56.61 L87.01,57.63 L87.93,58.42 L90.60,60.14 L91.76,61.26 L92.43,62.72 L92.51,64.34 L92.06,67.49 L92.06,68.71 L92.40,69.87 L93.72,72.77 L94.10,74.34 L93.87,75.94 L93.07,77.33 L90.98,79.74 L90.32,80.76 L89.98,81.93 L89.53,85.09 L89.00,86.61 L87.94,87.83 L86.51,88.57 L83.45,89.47 L82.35,89.97 L81.43,90.77 L79.34,93.18 L78.07,94.18 L76.52,94.63 L74.92,94.48 L71.86,93.58 L70.66,93.41 L69.46,93.58 L66.39,94.48 L64.79,94.63 L63.24,94.18 L61.97,93.18 L59.88,90.77 L58.96,89.98 L57.86,89.47 L54.80,88.57 L53.37,87.83 L52.31,86.61 L51.79,85.09 L51.33,81.93 L50.99,80.77 L50.33,79.74 L48.25,77.33 L47.44,75.94 L47.21,74.34 L47.59,72.77 L48.91,69.87 L49.25,68.71 L49.25,67.49 L48.80,64.34 L48.88,62.72 L49.55,61.26 L50.71,60.14 L53.38,58.42 L54.30,57.63 L54.95,56.61 L56.28,53.71 L57.22,52.39 L58.57,51.51 L60.16,51.20 L63.36,51.20 L64.56,51.03 L65.66,50.52 L68.33,48.80 L69.84,48.19 L71.47,48.20 L72.98,48.81 Z" fill="#7fca30" stroke="#1e1e1e" stroke-width="1" stroke-linejoin="round"/><path d="M70.16,55.81 L66.60,56.21 L63.22,57.40 L60.18,59.30 L57.65,61.84 L55.74,64.87 L54.56,68.25 L54.16,71.81 L54.56,75.37 L55.74,78.76 L57.65,81.79 L60.18,84.32 L63.22,86.23 L66.60,87.41 L70.16,87.81 L73.72,87.41 L77.10,86.23 L80.14,84.32 L82.67,81.79 L84.58,78.76 L85.76,75.37 L86.16,71.81 L86.16,71.81 L85.76,68.25 L84.58,64.87 L82.67,61.84 L80.14,59.30 L77.10,57.40 L73.72,56.21 L70.16,55.81 Z" fill="#b4ec36" stroke="#1e1e1e" stroke-width="1" stroke-linejoin="round"/></svg>