<svg xmlns="http://www.w3.org/2000/svg" viewBox="-0.05 -0.62 98.88 100.00"><path d="M65.15,1.38 L65.98,1.49 L66.75,1.81 L67.42,2.32 L67.93,2.99 L68.25,3.76 L68.36,4.59 L68.36,91.48 L68.25,92.31 L67.93,93.08 L67.42,93.75 L66.75,94.26 L65.98,94.58 L65.15,94.69 L5.16,94.69 L4.33,94.58 L3.56,94.26 L2.89,93.75 L2.38,93.08 L2.06,92.31 L1.95,91.48 L1.95,4.59 L2.06,3.76 L2.38,2.99 L2.89,2.32 L3.56,1.81 L4.33,1.49 L5.16,1.38 L65.15,1.38 Z" fill="#b796f9" stroke="#1e1e1e" stroke-width="1" stroke-linejoin="round"/><path d="M52.57,71.28 L53.00,71.34 L53.41,71.50 L53.76,71.77 L54.02,72.12 L54.19,72.52 L54.25,72.96 L54.25,76.40 L54.19,76.84 L54.02,77.24 L53.76,77.59 L53.41,77.86 L53.00,78.03 L52.57,78.08 L17.74,78.08 L17.31,78.03 L16.90,77.86 L16.56,77.59 L16.29,77.24 L16.12,76.84 L16.06,76.40 L16.06,72.96 L16.12,72.52 L16.29,72.12 L16.56,71.77 L16.90,71.50 L17.31,71.34 L17.74,71.28 L52.57,71.28 Z" fill="#773adc" stroke="#773adc" stroke-width="1" stroke-linejoin="round"/><path d="M52.57,58.08 L53.00,58.14 L53.41,58.30 L53.76,58.57 L54.02,58.92 L54.19,59.32 L54.25,59.76 L54.25,63.20 L54.19,63.64 L54.02,64.04 L53.76,64.39 L53.41,64.66 L53.00,64.83 L52.57,64.88 L17.74,64.88 L17.31,64.83 L16.90,64.66 L16.56,64.39 L16.29,64.04 L16.12,63.64 L16.06,63.20 L16.06,59.76 L16.12,59.32 L16.29,58.92 L16.56,58.57 L16.90,58.30 L17.31,58.14 L17.74,58.08 L52.57,58.08 Z" fill="#773adc" stroke="#773adc" stroke-width="1" stroke-linejoin="round"/><path d="M48.85,50.36 L50.29,50.03 L51.37,49.02 L51.81,47.61 L51.81,47.52 L51.81,47.34 L51.81,47.17 L51.17,43.76 L50.14,40.59 L48.71,37.73 L46.86,35.23 L44.60,33.17 L43.31,32.33 L41.91,31.62 L40.41,31.05 L38.79,30.63 L37.06,30.38 L35.22,30.29 L31.65,30.59 L28.50,31.46 L27.09,32.10 L25.78,32.87 L24.58,33.77 L23.49,34.80 L21.61,37.22 L20.16,40.09 L19.12,43.39 L18.50,47.10 L18.75,48.62 L19.73,49.81 L21.17,50.36 L48.85,50.36 Z" fill="#7a51c2" stroke="#1e1e1e" stroke-width="1" stroke-linejoin="round"/><path d="M35.35,32.51 L32.77,32.12 L30.41,31.02 L35.35,44.08 L40.34,31.11 L37.94,32.16 L35.35,32.51 Z" fill="#f2f2f2" stroke="#f2f2f2" stroke-width="1" stroke-linejoin="round"/><ellipse cx="35.28" cy="23.17" rx="9.34" ry="9.34" fill="#7a51c2" stroke="#1e1e1e" stroke-width="1"/><path d="M75.10,50.23 L77.85,52.00 L78.98,52.52 L80.22,52.70 L83.51,52.70 L85.14,53.02 L86.54,53.91 L87.50,55.27 L88.87,58.25 L89.54,59.31 L90.49,60.12 L93.23,61.89 L94.43,63.04 L95.12,64.55 L95.20,66.21 L94.74,69.46 L94.73,70.71 L95.09,71.90 L96.45,74.89 L96.84,76.50 L96.60,78.14 L95.77,79.58 L93.63,82.06 L92.95,83.11 L92.60,84.31 L92.13,87.56 L91.58,89.13 L90.50,90.38 L89.02,91.15 L85.88,92.07 L84.74,92.59 L83.80,93.41 L81.65,95.89 L80.34,96.91 L78.75,97.38 L77.10,97.23 L73.95,96.30 L72.71,96.12 L71.48,96.30 L68.33,97.23 L66.67,97.38 L65.08,96.91 L63.78,95.89 L61.62,93.41 L60.68,92.59 L59.54,92.07 L56.39,91.15 L54.92,90.38 L53.83,89.13 L53.29,87.56 L52.82,84.31 L52.47,83.11 L51.79,82.06 L49.65,79.58 L48.82,78.14 L48.58,76.50 L48.97,74.89 L50.33,71.90 L50.69,70.70 L50.69,69.46 L50.22,66.21 L50.30,64.55 L50.99,63.04 L52.19,61.89 L54.93,60.12 L55.88,59.30 L56.55,58.25 L57.92,55.27 L58.88,53.91 L60.28,53.01 L61.91,52.69 L65.20,52.69 L66.44,52.51 L67.57,51.99 L70.32,50.22 L71.87,49.59 L73.55,49.60 L75.10,50.23 Z" fill="#7fca30" stroke="#1e1e1e" stroke-width="1" stroke-linejoin="round"/><path d="M72.20,57.44 L68.54,57.85 L65.06,59.07 L61.93,61.03 L59.33,63.64 L57.37,66.76 L56.15,70.24 L55.73,73.90 L56.15,77.57 L57.37,81.05 L59.33,84.17 L61.93,86.77 L65.06,88.74 L68.54,89.95 L72.20,90.37 L75.86,89.95 L79.34,88.74 L82.47,86.77 L85.07,84.17 L87.03,81.05 L88.25,77.57 L88.67,73.90 L88.67,73.90 L88.25,70.24 L87.03,66.76 L85.07,63.64 L82.47,61.03 L79.34,59.07 L75.86,57.85 L72.20,57.44 Z" fill="#b4ec36" stroke="#1e1e1e" stroke-width="1" stroke-linejoin="round"/></svg>