<svg xmlns="http://www.w3.org/2000/svg" viewBox="-2.00 -2.00 100.00 100.00"><path d="M65.02,0.00 L65.88,0.11 L66.67,0.44 L67.36,0.97 L67.88,1.65 L68.21,2.45 L68.33,3.30 L68.33,92.70 L68.21,93.55 L67.88,94.35 L67.36,95.03 L66.67,95.56 L65.88,95.89 L65.02,96.00 L3.30,96.00 L2.45,95.89 L1.65,95.56 L0.97,95.03 L0.44,94.35 L0.11,93.55 L0.00,92.70 L0.00,3.30 L0.11,2.45 L0.44,1.65 L0.97,0.97 L1.65,0.44 L2.45,0.11 L3.30,0.00 L65.02,0.00 Z" fill="#2f8be0" stroke="#1e1e1e" stroke-width="1" stroke-linejoin="round"/><path d="M52.07,71.91 L52.52,71.97 L52.94,72.15 L53.30,72.42 L53.57,72.78 L53.74,73.20 L53.80,73.64 L53.80,77.19 L53.74,77.64 L53.57,78.05 L53.30,78.41 L52.94,78.69 L52.52,78.86 L52.07,78.92 L16.25,78.92 L15.80,78.86 L15.38,78.69 L15.02,78.41 L14.75,78.05 L14.58,77.64 L14.52,77.19 L14.52,73.64 L14.58,73.20 L14.75,72.78 L15.02,72.42 L15.38,72.15 L15.80,71.97 L16.25,71.91 L52.07,71.91 Z" fill="#8ec1fa" stroke="#8ec1fa" stroke-width="1" stroke-linejoin="round"/><path d="M52.07,58.34 L52.52,58.39 L52.94,58.57 L53.30,58.84 L53.57,59.20 L53.74,59.62 L53.80,60.06 L53.80,63.61 L53.74,64.06 L53.57,64.47 L53.30,64.83 L52.94,65.11 L52.52,65.28 L52.07,65.34 L16.25,65.34 L15.80,65.28 L15.38,65.11 L15.02,64.83 L14.75,64.47 L14.58,64.06 L14.52,63.61 L14.52,60.06 L14.58,59.62 L14.75,59.20 L15.02,58.84 L15.38,58.57 L15.80,58.39 L16.25,58.34 L52.07,58.34 Z" fill="#8ec1fa" stroke="#8ec1fa" stroke-width="1" stroke-linejoin="round"/><path d="M48.26,50.39 L49.41,50.20 L50.36,49.60 L51.03,48.69 L51.30,47.56 L51.30,47.47 L51.30,47.11 L50.65,43.61 L49.59,40.35 L48.11,37.40 L46.22,34.83 L45.11,33.71 L43.89,32.71 L42.56,31.84 L41.12,31.11 L39.57,30.52 L37.91,30.10 L36.13,29.83 L34.24,29.74 L32.35,29.82 L30.56,30.05 L28.89,30.42 L27.32,30.94 L25.87,31.60 L24.52,32.40 L23.28,33.33 L22.15,34.38 L21.13,35.57 L20.22,36.87 L18.73,39.83 L17.66,43.22 L17.02,47.03 L17.15,48.25 L17.70,49.28 L18.61,50.03 L19.77,50.39 L48.26,50.39 L48.26,50.39 Z" fill="#7fe9ff" stroke="#1e1e1e" stroke-width="1" stroke-linejoin="round"/><path d="M34.36,32.03 L33.02,31.92 L31.71,31.62 L30.45,31.15 L29.27,30.50 L34.36,43.94 L39.50,30.59 L38.30,31.22 L37.03,31.67 L35.71,31.94 L34.36,32.03 Z" fill="#f2f2f2" stroke="#f2f2f2" stroke-width="1" stroke-linejoin="round"/><ellipse cx="34.29" cy="22.42" rx="9.61" ry="9.61" fill="#7fe9ff" stroke="#1e1e1e" stroke-width="1"/><ellipse cx="75.23" cy="48.00" rx="20.77" ry="20.77" fill="#86d633" stroke="#1e1e1e" stroke-width="1"/><path d="M73.10,54.96 L71.19,56.87 L70.60,57.11 L70.01,56.87 L70.01,56.87 L62.43,49.29 L62.19,48.70 L62.43,48.11 L62.43,48.11 L63.75,46.79 L64.34,46.55 L64.93,46.79 L64.93,46.79 L73.10,54.97 L73.10,54.97 L73.10,54.96 Z" fill="#ffffff" stroke="#ffffff" stroke-width="1" stroke-linejoin="round"/><path d="M70.05,56.89 L68.14,54.98 L68.14,54.98 L85.57,37.54 L86.16,37.30 L86.75,37.54 L86.75,37.54 L88.07,38.86 L88.31,39.45 L88.07,40.04 L88.07,40.04 L71.22,56.89 L70.63,57.13 L70.04,56.89 L70.04,56.89 L70.05,56.89 Z" fill="#f0f0f0" stroke="#1e1e1e" stroke-width="1" stroke-linejoin="round"/></svg>