<svg xmlns="http://www.w3.org/2000/svg" viewBox="-2.00 -2.00 100.00 100.00"><rect x="0.00" y="0.00" width="68.33" height="96.00" fill="#2f8be0" stroke="#1e1e1e" stroke-width="1"/><rect x="14.52" y="71.91" width="39.29" height="7.00" fill="#8ec1fa" stroke="#8ec1fa" stroke-width="1"/><rect x="14.52" y="58.34" width="39.29" height="7.00" fill="#8ec1fa" stroke="#8ec1fa" stroke-width="1"/><path d="M48.26,50.39 L49.41,50.20 L50.36,49.60 L51.03,48.69 L51.30,47.56 L51.30,47.47 L51.30,47.11 L50.65,43.61 L49.59,40.35 L48.11,37.40 L46.22,34.83 L45.11,33.71 L43.89,32.71 L42.56,31.84 L41.12,31.11 L39.57,30.52 L37.91,30.10 L36.13,29.83 L34.24,29.74 L32.35,29.82 L30.56,30.05 L28.89,30.42 L27.32,30.94 L25.87,31.60 L24.52,32.40 L23.28,33.33 L22.15,34.38 L21.13,35.57 L20.22,36.87 L18.73,39.83 L17.66,43.22 L17.02,47.03 L17.15,48.25 L17.70,49.28 L18.61,50.03 L19.77,50.39 L48.26,50.39 L48.26,50.39 Z" fill="#7fe9ff" stroke="#1e1e1e" stroke-width="1" stroke-linejoin="round"/><path d="M34.36,32.03 L33.02,31.92 L31.71,31.62 L30.45,31.15 L29.27,30.50 L34.36,43.94 L39.50,30.59 L38.30,31.22 L37.03,31.67 L35.71,31.94 L34.36,32.03 Z" fill="#f2f2f2" stroke="#f2f2f2" stroke-width="1" stroke-linejoin="round"/><ellipse cx="34.29" cy="22.42" rx="9.61" ry="9.61" fill="#7fe9ff" stroke="#1e1e1e" stroke-width="1"/><ellipse cx="75.23" cy="48.00" rx="20.77" ry="20.77" fill="#86d633" stroke="#1e1e1e" stroke-width="1"/><path d="M73.10,54.96 L71.19,56.87 L70.60,57.11 L70.01,56.87 L70.01,56.87 L62.43,49.29 L62.19,48.70 L62.43,48.11 L62.43,48.11 L63.75,46.79 L64.34,46.55 L64.93,46.79 L64.93,46.79 L73.10,54.97 L73.10,54.97 L73.10,54.96 Z" fill="#ffffff" stroke="#ffffff" stroke-width="1" stroke-linejoin="round"/><path d="M70.05,56.89 L68.14,54.98 L68.14,54.98 L85.57,37.54 L86.16,37.30 L86.75,37.54 L86.75,37.54 L88.07,38.86 L88.31,39.45 L88.07,40.04 L88.07,40.04 L71.22,56.89 L70.63,57.13 L70.04,56.89 L70.04,56.89 L70.05,56.89 Z" fill="#f0f0f0" stroke="#1e1e1e" stroke-width="1" stroke-linejoin="round"/></svg>