<svg xmlns="http://www.w3.org/2000/svg" viewBox="-1.97 -2.00 100.00 100.00"><path d="M49.52,0.00 L43.53,0.19 L37.61,1.13 L31.85,2.80 L26.35,5.17 L21.18,8.22 L20.26,9.16 L19.79,10.39 L19.86,11.70 L20.45,12.88 L24.65,18.18 L29.30,15.07 L34.35,12.68 L39.70,11.06 L45.23,10.24 L50.82,10.24 L56.35,11.07 L61.69,12.69 L66.74,15.09 L71.38,18.21 L75.52,21.97 L79.05,26.30 L81.91,31.10 L84.03,36.27 L85.37,41.70 L85.90,47.27 L85.60,52.85 L84.48,58.32 L82.57,63.58 L79.91,68.49 L76.56,72.96 L72.58,76.89 L68.07,80.19 L63.12,82.80 L57.85,84.64 L52.36,85.69 L46.77,85.92 L41.21,85.33 L35.80,83.92 L30.66,81.74 L25.89,78.82 L21.60,75.23 L17.89,71.06 L14.83,66.38 L12.50,61.30 L10.93,55.93 L10.17,50.39 L10.24,44.80 L11.13,39.29 L11.08,37.70 L10.28,36.33 L8.93,35.51 L5.42,34.44 L4.12,34.32 L2.88,34.72 L1.90,35.58 L1.35,36.76 L0.26,43.05 L0.03,49.43 L0.64,55.78 L2.08,62.00 L4.34,67.97 L7.37,73.58 L11.12,78.75 L15.52,83.37 L20.49,87.38 L25.95,90.68 L31.80,93.24 L37.93,94.99 L44.25,95.92 L50.63,96.00 L56.96,95.24 L63.14,93.64 L69.06,91.24 L74.60,88.07 L79.67,84.20 L84.19,79.69 L88.06,74.62 L91.24,69.08 L93.65,63.17 L95.25,57.00 L96.03,50.66 L95.95,44.28 L95.03,37.96 L93.29,31.83 L90.74,25.97 L87.44,20.51 L83.45,15.53 L78.83,11.13 L73.67,7.37 L68.05,4.34 L62.09,2.07 L55.87,0.62 L49.52,0.00 L49.52,0.00 Z" fill="#2f8ce2" stroke="#1e1e1e" stroke-width="1" stroke-linejoin="round"/><ellipse cx="73.08" cy="40.91" rx="7.67" ry="7.67" fill="#f78d1e" stroke="#f78d1e" stroke-width="1"/><ellipse cx="42.15" cy="73.66" rx="7.67" ry="7.67" fill="#f78d1e" stroke="#f78d1e" stroke-width="1"/><path d="M32.70,33.05 L26.65,24.87 L30.50,21.84 L34.77,19.44 L39.36,17.73 L44.16,16.75 L49.05,16.53 L53.92,17.07 L58.65,18.36 L63.12,20.36 L67.22,23.04 L70.86,26.32 L73.95,30.12 L73.08,30.03 L70.60,30.33 L68.26,31.18 L66.17,32.56 L64.45,34.37 L61.65,31.54 L58.37,29.27 L54.73,27.66 L50.86,26.76 L46.88,26.59 L42.94,27.17 L39.18,28.48 L35.72,30.46 L32.70,33.05 L32.70,33.05 Z" fill="#41d2ee" stroke="#1e1e1e" stroke-width="1" stroke-linejoin="round"/><path d="M31.28,73.67 L31.56,71.28 L32.36,69.01 L33.64,66.97 L35.34,65.26 L32.20,62.46 L29.68,59.11 L27.85,55.32 L26.81,51.25 L26.58,47.67 L26.94,44.11 L26.86,42.56 L26.07,41.23 L24.75,40.43 L21.23,39.33 L19.91,39.21 L18.66,39.63 L17.68,40.52 L17.14,41.73 L16.54,46.47 L16.66,51.25 L17.51,55.95 L19.06,60.47 L21.29,64.71 L24.13,68.55 L27.52,71.92 L31.38,74.74 L31.28,73.67 Z" fill="#41d2ee" stroke="#1e1e1e" stroke-width="1" stroke-linejoin="round"/><path d="M73.08,51.78 L71.12,51.59 L69.23,51.05 L68.36,54.74 L66.85,58.23 L64.75,61.40 L62.12,64.14 L59.05,66.38 L55.63,68.04 L51.97,69.07 L52.83,71.62 L53.01,74.30 L52.51,76.94 L51.37,79.37 L56.24,78.47 L60.91,76.82 L65.26,74.45 L69.18,71.43 L72.59,67.83 L75.39,63.75 L77.51,59.27 L78.91,54.52 L79.54,49.61 L77.56,50.79 L75.38,51.53 L73.08,51.78 Z" fill="#41d2ee" stroke="#1e1e1e" stroke-width="1" stroke-linejoin="round"/><path d="M49.40,37.87 L47.15,37.82 L44.94,38.27 L21.21,8.04 L18.06,10.52 L17.25,11.47 L16.86,12.66 L16.96,13.90 L17.53,15.02 L39.29,42.71 L38.31,44.82 L37.84,47.10 L37.90,49.43 L38.67,52.17 L40.16,54.59 L42.26,56.51 L44.81,57.78 L47.61,58.31 L50.44,58.04 L53.09,57.01 L55.36,55.29 L57.06,53.01 L58.08,50.36 L58.33,47.52 L57.79,44.73 L56.50,42.19 L54.57,40.10 L52.14,38.62 L49.40,37.87 L49.40,37.87 Z" fill="#318de2" stroke="#1e1e1e" stroke-width="1" stroke-linejoin="round"/></svg>