<svg xmlns="http://www.w3.org/2000/svg" viewBox="-1.37 12.59 100.00 72.08"><path d="M96.63,61.33 L96.18,57.57 L95.08,53.94 L93.36,50.56 L91.08,47.53 L88.30,44.95 L85.11,42.89 L81.61,41.43 L77.91,40.60 L77.30,35.94 L75.90,31.45 L73.75,27.27 L70.90,23.52 L67.46,20.32 L63.51,17.76 L59.18,15.92 L54.60,14.85 L49.91,14.59 L45.61,14.84 L41.41,15.75 L37.40,17.29 L33.67,19.43 L30.31,22.12 L27.41,25.29 L25.03,28.88 L23.23,32.78 L18.77,33.73 L14.55,35.46 L10.70,37.90 L7.34,40.98 L4.58,44.60 L2.50,48.66 L1.17,53.02 L0.63,57.55 L1.20,62.05 L2.54,66.39 L4.61,70.44 L7.35,74.06 L10.68,77.15 L14.49,79.62 L18.68,81.39 L23.10,82.41 L27.64,82.64 L30.02,82.54 L73.79,82.54 L74.37,82.49 L74.94,82.37 L79.09,81.95 L83.07,80.75 L86.76,78.81 L90.01,76.21 L92.71,73.04 L94.76,69.41 L96.08,65.46 L96.63,61.33 Z" fill="#3a90e5" stroke="#1e1e1e" stroke-width="1" stroke-linejoin="round"/><path d="M51.14,56.91 L50.64,52.39 L49.34,48.03 L47.27,43.97 L44.51,40.35 L41.15,37.28 L37.29,34.87 L33.05,33.19 L28.59,32.29 L24.04,32.22 L19.54,32.96 L15.26,34.49 L11.32,36.77 L7.85,39.72 L4.97,43.25 L2.77,47.23 L1.31,51.55 L0.66,56.06 L0.83,60.61 L1.81,65.05 L3.57,69.25 L6.06,73.06 L9.20,76.37 L12.87,79.05 L16.97,81.04 L21.36,82.26 L25.89,82.67 L26.73,82.67 L51.15,82.67 L51.15,56.91 L51.14,56.91 Z" fill="#005ba1" stroke="#1e1e1e" stroke-width="1" stroke-linejoin="round"/><path d="M41.35,49.56 L41.35,67.45 L25.89,76.44 L25.89,58.52 L41.35,49.56 Z" fill="#32bedd" stroke="#1e1e1e" stroke-width="1" stroke-linejoin="round"/><path d="M41.35,49.56 L25.89,58.54 L10.42,49.55 L25.89,40.56 L41.35,49.56 Z" fill="#9cebff" stroke="#1e1e1e" stroke-width="1" stroke-linejoin="round"/><path d="M25.89,58.54 L25.89,76.44 L10.42,67.45 L10.42,49.55 L25.89,58.54 Z" fill="#50e6ff" stroke="#1e1e1e" stroke-width="1" stroke-linejoin="round"/></svg>