<svg xmlns="http://www.w3.org/2000/svg" viewBox="-1.95 -1.18 99.91 98.33"><path d="M76.95,35.28 L75.62,34.95 L74.61,34.03 L60.54,12.88 L58.57,10.46 L56.11,8.53 L53.30,7.19 L50.25,6.51 L47.13,6.51 L44.09,7.19 L41.27,8.53 L38.81,10.46 L36.84,12.88 L28.96,25.07 L27.88,26.04 L26.47,26.34 L25.09,25.90 L24.12,24.82 L23.81,23.41 L24.26,22.03 L32.14,9.81 L34.59,6.75 L37.59,4.23 L41.03,2.36 L44.77,1.21 L48.67,0.82 L52.57,1.21 L56.31,2.36 L59.76,4.23 L62.76,6.75 L65.21,9.81 L79.28,30.93 L79.75,32.35 L79.42,33.81 L78.39,34.89 L76.95,35.29 L76.95,35.28 Z" fill="#0078d4" stroke="#1e1e1e" stroke-width="1" stroke-linejoin="round"/><path d="M76.27,82.87 L59.37,82.87 L58.01,82.45 L57.04,81.43 L56.68,80.07 L57.04,78.70 L58.01,77.68 L59.37,77.26 L76.27,77.26 L79.59,76.86 L82.73,75.69 L85.50,73.81 L87.76,71.33 L89.36,68.39 L90.22,65.15 L90.29,61.80 L89.58,58.53 L88.11,55.51 L81.82,45.77 L81.38,44.38 L81.69,42.97 L82.66,41.89 L84.04,41.45 L85.46,41.76 L86.53,42.73 L92.80,52.48 L94.56,55.89 L95.62,59.57 L95.96,63.39 L95.54,67.20 L94.40,70.86 L92.57,74.23 L90.12,77.18 L87.14,79.60 L83.75,81.40 L80.08,82.50 L76.27,82.88 L76.27,82.87 Z" fill="#37c2b1" stroke="#1e1e1e" stroke-width="1" stroke-linejoin="round"/><path d="M38.77,82.87 L23.05,82.87 L19.23,82.49 L15.56,81.39 L12.18,79.59 L9.20,77.17 L6.75,74.22 L4.92,70.85 L3.77,67.19 L3.36,63.38 L3.69,59.56 L4.76,55.88 L6.52,52.47 L16.89,36.60 L17.97,35.64 L19.39,35.34 L20.76,35.79 L21.73,36.87 L22.03,38.29 L21.57,39.67 L11.20,55.53 L9.73,58.54 L9.02,61.81 L9.09,65.16 L9.96,68.40 L11.56,71.34 L13.81,73.82 L16.58,75.69 L19.72,76.87 L23.05,77.26 L38.77,77.26 L40.12,77.68 L41.10,78.70 L41.45,80.07 L41.10,81.43 L40.12,82.45 L38.77,82.87 L38.77,82.87 Z" fill="#a67af4" stroke="#1e1e1e" stroke-width="1" stroke-linejoin="round"/><ellipse cx="71.46" cy="24.52" rx="15.20" ry="15.20" fill="#2f8ce2" stroke="#1e1e1e" stroke-width="1"/><path d="M15.19,28.70 L11.65,29.13 L8.29,30.36 L5.32,32.35 L2.90,34.97 L1.15,38.09 L0.19,41.53 L0.05,45.10 L0.75,48.61 L2.24,51.85 L4.46,54.66 L7.26,56.87 L10.51,58.36 L14.01,59.06 L17.58,58.92 L21.02,57.94 L24.14,56.20 L26.76,53.77 L28.75,50.80 L29.98,47.45 L30.40,43.90 L30.02,40.52 L28.89,37.30 L27.08,34.42 L24.67,32.02 L21.79,30.21 L18.58,29.08 L15.19,28.70 L15.19,28.70 Z" fill="#8e5ae8" stroke="#1e1e1e" stroke-width="1" stroke-linejoin="round"/><path d="M63.08,64.79 L59.53,65.22 L56.18,66.45 L53.21,68.44 L50.79,71.06 L49.04,74.18 L48.07,77.62 L47.93,81.19 L48.63,84.69 L50.13,87.94 L52.34,90.74 L55.15,92.95 L58.39,94.45 L61.89,95.15 L65.46,95.01 L68.90,94.04 L72.02,92.29 L74.64,89.87 L76.63,86.90 L77.87,83.55 L78.29,80.00 L77.91,76.62 L76.78,73.40 L74.97,70.52 L72.56,68.11 L69.68,66.30 L66.47,65.18 L63.08,64.79 L63.08,64.79 Z" fill="#30ab9c" stroke="#1e1e1e" stroke-width="1" stroke-linejoin="round"/></svg>