<svg xmlns="http://www.w3.org/2000/svg" viewBox="-2.00 -2.00 100.00 100.00"><path d="M57.82,91.33 L55.13,90.63 L54.04,90.12 L53.10,89.51 L52.31,88.80 L51.65,88.00 L50.68,86.10 L50.09,83.84 L49.79,81.22 L49.66,74.99 L33.32,74.99 L33.20,81.40 L32.89,84.06 L32.30,86.34 L31.33,88.23 L30.67,89.01 L29.88,89.69 L28.94,90.27 L27.85,90.73 L25.16,91.33 L23.57,91.86 L22.26,92.91 L21.39,94.35 L21.07,96.00 L61.91,96.00 L61.59,94.35 L60.72,92.91 L59.41,91.86 L57.82,91.33 L57.82,91.33 Z" fill="#a6a6a6" stroke="#1e1e1e" stroke-width="1" stroke-linejoin="round"/><path d="M79.79,20.39 L80.51,20.48 L81.18,20.76 L81.76,21.20 L82.20,21.78 L82.48,22.45 L82.57,23.17 L82.57,72.74 L82.48,73.46 L82.20,74.13 L81.76,74.71 L81.18,75.15 L80.51,75.43 L79.79,75.52 L2.78,75.52 L2.06,75.43 L1.39,75.15 L0.81,74.71 L0.37,74.13 L0.09,73.46 L0.00,72.74 L0.00,23.17 L0.09,22.45 L0.37,21.78 L0.81,21.20 L1.39,20.76 L2.06,20.48 L2.78,20.39 L79.79,20.39 Z" fill="#3990e4" stroke="#1e1e1e" stroke-width="1" stroke-linejoin="round"/><path d="M27.82,3.46 L27.82,44.61 L28.19,45.93 L29.00,47.03 L30.17,47.75 L31.51,48.00 L56.47,48.00 L56.67,48.04 L56.85,48.12 L61.91,51.50 L67.48,55.19 L69.48,56.50 L69.78,56.67 L70.11,56.75 L71.09,56.46 L71.61,55.57 L71.61,48.63 L71.79,48.22 L72.23,48.07 L92.27,48.07 L93.62,47.80 L94.79,47.07 L95.62,45.96 L96.00,44.63 L96.00,3.46 L95.62,2.13 L94.79,1.02 L93.62,0.28 L92.27,0.00 L31.51,0.00 L30.17,0.28 L29.01,1.02 L28.19,2.13 L27.82,3.46 L27.82,3.46 Z" fill="#fdad3b" stroke="#1e1e1e" stroke-width="1" stroke-linejoin="round"/><path d="M63.37,21.96 L42.13,21.96 L40.96,21.49 L40.14,20.54 L39.84,19.32 L40.14,18.09 L40.96,17.14 L42.13,16.68 L63.40,16.68 L64.57,17.14 L65.39,18.09 L65.69,19.32 L65.39,20.54 L64.57,21.49 L63.40,21.96 L63.37,21.96 Z" fill="#ffffff" stroke="#ffffff" stroke-width="1" stroke-linejoin="round"/><path d="M79.21,29.39 L78.85,28.06 L77.88,27.08 L76.54,26.73 L42.13,26.73 L40.96,27.19 L40.14,28.14 L39.84,29.37 L40.14,30.59 L40.96,31.54 L42.13,32.01 L76.60,32.01 L77.89,31.64 L78.85,30.69 L79.21,29.39 Z" fill="#ffffff" stroke="#ffffff" stroke-width="1" stroke-linejoin="round"/></svg>