<svg xmlns="http://www.w3.org/2000/svg" viewBox="8.77 0.82 83.93 100.00"><path d="M10.88,11.89 L17.70,3.95 L18.85,3.10 L20.24,2.82 L85.68,2.82 L87.60,3.04 L89.25,4.02 L90.35,5.60 L90.70,7.50 L90.70,89.24 L90.40,90.57 L89.57,91.66 L82.25,98.37 L15.33,98.37 L10.77,96.51 L10.88,11.89 Z" fill="#005ba1" stroke="#1e1e1e" stroke-width="1" stroke-linejoin="round"/><path d="M16.40,11.84 L20.58,7.10 L21.46,6.39 L22.55,6.09 L83.94,6.09 L85.40,6.48 L86.48,7.55 L86.87,9.02 L86.87,86.70 L86.62,87.90 L85.91,88.90 L79.37,94.82 L16.40,11.84 Z" fill="#ffffff" stroke="#1e1e1e" stroke-width="1" stroke-linejoin="round"/><path d="M78.92,11.78 L11.27,11.78 L11.04,11.88 L10.94,12.12 L10.94,96.68 L11.25,97.75 L12.05,98.53 L13.13,98.82 L78.92,98.82 L79.99,98.53 L80.77,97.75 L81.06,96.68 L81.06,13.98 L80.78,12.90 L80.00,12.09 L78.92,11.78 L78.92,11.78 Z" fill="#3a9de6" stroke="#1e1e1e" stroke-width="1" stroke-linejoin="round"/><path d="M62.12,34.95 L62.53,35.00 L62.91,35.16 L63.24,35.41 L63.49,35.74 L63.65,36.12 L63.70,36.53 L63.70,46.79 L63.65,47.20 L63.49,47.58 L63.24,47.90 L62.91,48.15 L62.53,48.31 L62.12,48.37 L28.19,48.37 L27.78,48.31 L27.40,48.15 L27.07,47.90 L26.82,47.58 L26.66,47.20 L26.61,46.79 L26.61,36.53 L26.66,36.12 L26.82,35.74 L27.07,35.41 L27.40,35.16 L27.78,35.00 L28.19,34.95 L62.12,34.95 Z" fill="#ffffff" stroke="#1e1e1e" stroke-width="1" stroke-linejoin="round"/></svg>