<svg xmlns="http://www.w3.org/2000/svg" viewBox="4.12 4.00 99.76 100.00"><path d="M101.88,36.35 L101.88,7.06 L101.56,6.30 L100.80,6.00 L71.53,6.00 L70.78,6.31 L70.47,7.05 L70.79,7.80 L78.85,15.87 L79.39,16.40 L79.70,17.15 L79.39,17.90 L44.07,53.21 L43.76,53.96 L44.07,54.71 L53.17,63.81 L53.92,64.12 L54.67,63.81 L90.00,28.49 L90.75,28.18 L91.49,28.49 L92.03,29.02 L100.08,37.09 L100.83,37.41 L101.57,37.10 L101.88,36.35 L101.88,36.35 Z" fill="#43a6ee" stroke="#1e1e1e" stroke-width="1" stroke-linejoin="round"/><path d="M80.36,56.26 L80.36,77.70 L80.03,78.93 L79.13,79.83 L77.90,80.17 L28.96,80.17 L27.72,79.84 L26.82,78.93 L26.50,77.70 L26.50,31.50 L26.83,30.27 L27.73,29.37 L28.96,29.04 L53.48,29.04 L54.44,28.64 L54.83,27.69 L54.83,22.54 L54.44,21.58 L53.48,21.19 L21.08,21.19 L19.85,21.52 L18.95,22.42 L18.62,23.65 L18.62,85.55 L18.95,86.78 L19.85,87.68 L21.08,88.01 L85.75,88.01 L86.98,87.68 L87.88,86.78 L88.21,85.55 L88.21,56.26 L87.81,55.31 L86.86,54.91 L81.71,54.91 L80.76,55.31 L80.36,56.26 L80.36,56.26 Z" fill="#b3b3b3" stroke="#1e1e1e" stroke-width="1" stroke-linejoin="round"/><rect x="94.18" y="95.82" width="6.18" height="6.18" fill="#76bc2d" stroke="#76bc2d" stroke-width="1"/><path d="M87.88,102.00 L81.60,102.00 L81.60,95.82 L87.90,95.82 L87.88,102.00 Z" fill="#76bc2d" stroke="#76bc2d" stroke-width="1" stroke-linejoin="round"/><path d="M75.28,102.00 L69.00,102.00 L69.00,95.82 L75.29,95.82 L75.28,102.00 Z" fill="#76bc2d" stroke="#76bc2d" stroke-width="1" stroke-linejoin="round"/><path d="M62.68,102.00 L56.40,102.00 L56.40,95.82 L62.70,95.82 L62.68,102.00 Z" fill="#76bc2d" stroke="#76bc2d" stroke-width="1" stroke-linejoin="round"/><path d="M50.08,102.00 L43.80,102.00 L43.80,95.82 L50.09,95.82 L50.08,102.00 Z" fill="#76bc2d" stroke="#76bc2d" stroke-width="1" stroke-linejoin="round"/><path d="M37.48,102.00 L31.20,102.00 L31.20,95.82 L37.50,95.82 L37.48,102.00 Z" fill="#76bc2d" stroke="#76bc2d" stroke-width="1" stroke-linejoin="round"/><path d="M24.88,102.00 L18.60,102.00 L18.60,95.82 L24.89,95.82 L24.88,102.00 Z" fill="#76bc2d" stroke="#76bc2d" stroke-width="1" stroke-linejoin="round"/><rect x="6.12" y="95.82" width="6.18" height="6.18" fill="#76bc2d" stroke="#76bc2d" stroke-width="1"/><path d="M12.30,89.52 L6.12,89.52 L6.12,83.23 L12.30,83.23 L12.30,89.52 Z" fill="#76bc2d" stroke="#76bc2d" stroke-width="1" stroke-linejoin="round"/><path d="M12.30,76.92 L6.12,76.92 L6.12,70.62 L12.30,70.62 L12.30,76.92 Z" fill="#76bc2d" stroke="#76bc2d" stroke-width="1" stroke-linejoin="round"/><path d="M12.30,64.32 L6.12,64.32 L6.12,58.03 L12.30,58.03 L12.30,64.32 Z" fill="#76bc2d" stroke="#76bc2d" stroke-width="1" stroke-linejoin="round"/><path d="M12.30,51.72 L6.12,51.72 L6.12,45.43 L12.30,45.43 L12.30,51.72 Z" fill="#76bc2d" stroke="#76bc2d" stroke-width="1" stroke-linejoin="round"/><path d="M12.30,39.12 L6.12,39.12 L6.12,32.84 L12.30,32.84 L12.30,39.12 Z" fill="#76bc2d" stroke="#76bc2d" stroke-width="1" stroke-linejoin="round"/><path d="M12.30,26.52 L6.12,26.52 L6.12,20.24 L12.30,20.24 L12.30,26.52 Z" fill="#76bc2d" stroke="#76bc2d" stroke-width="1" stroke-linejoin="round"/><rect x="6.12" y="7.76" width="6.18" height="6.18" fill="#76bc2d" stroke="#76bc2d" stroke-width="1"/><path d="M50.09,13.94 L43.80,13.94 L43.80,7.76 L50.09,7.76 L50.09,13.94 Z" fill="#76bc2d" stroke="#76bc2d" stroke-width="1" stroke-linejoin="round"/><path d="M37.49,13.94 L31.20,13.94 L31.20,7.76 L37.50,7.76 L37.49,13.94 Z" fill="#76bc2d" stroke="#76bc2d" stroke-width="1" stroke-linejoin="round"/><path d="M24.89,13.94 L18.60,13.94 L18.60,7.76 L24.89,7.76 L24.89,13.94 Z" fill="#76bc2d" stroke="#76bc2d" stroke-width="1" stroke-linejoin="round"/><path d="M100.36,89.52 L94.20,89.52 L94.20,83.23 L100.37,83.23 L100.36,89.52 Z" fill="#76bc2d" stroke="#76bc2d" stroke-width="1" stroke-linejoin="round"/><path d="M100.36,76.92 L94.20,76.92 L94.20,70.62 L100.37,70.62 L100.36,76.92 Z" fill="#76bc2d" stroke="#76bc2d" stroke-width="1" stroke-linejoin="round"/><path d="M100.36,64.32 L94.20,64.32 L94.20,58.03 L100.37,58.03 L100.36,64.32 Z" fill="#76bc2d" stroke="#76bc2d" stroke-width="1" stroke-linejoin="round"/></svg>