<svg xmlns="http://www.w3.org/2000/svg" viewBox="3.44 3.33 89.12 89.33"><path d="M90.56,32.31 L90.56,6.27 L90.28,5.60 L89.60,5.33 L63.58,5.33 L62.92,5.61 L62.64,6.27 L62.92,6.93 L70.09,14.11 L70.57,14.58 L70.84,15.25 L70.57,15.91 L39.17,47.30 L38.90,47.97 L39.17,48.63 L47.26,56.72 L47.93,56.99 L48.59,56.72 L80.00,25.32 L80.66,25.05 L81.33,25.32 L81.80,25.80 L88.96,32.97 L89.62,33.25 L90.29,32.98 L90.56,32.31 L90.56,32.31 Z" fill="#43a6ee" stroke="#1e1e1e" stroke-width="1" stroke-linejoin="round"/><path d="M71.43,50.01 L71.43,69.07 L71.14,70.16 L70.34,70.96 L69.25,71.26 L25.74,71.26 L24.64,70.96 L23.84,70.16 L23.55,69.07 L23.55,28.00 L23.84,26.91 L24.65,26.11 L25.74,25.81 L47.54,25.81 L48.39,25.46 L48.74,24.61 L48.74,20.03 L48.39,19.18 L47.54,18.83 L18.74,18.83 L17.65,19.13 L16.85,19.93 L16.55,21.02 L16.55,76.04 L16.85,77.14 L17.65,77.94 L18.74,78.23 L76.22,78.23 L77.31,77.94 L78.12,77.14 L78.41,76.04 L78.41,50.01 L78.06,49.16 L77.21,48.81 L72.63,48.81 L71.79,49.16 L71.43,50.01 L71.43,50.01 Z" fill="#b3b3b3" stroke="#1e1e1e" stroke-width="1" stroke-linejoin="round"/><rect x="83.72" y="85.17" width="5.49" height="5.49" fill="#76bc2d" stroke="#76bc2d" stroke-width="1"/><path d="M78.12,90.67 L72.53,90.67 L72.53,85.17 L78.13,85.17 L78.12,90.67 Z" fill="#76bc2d" stroke="#76bc2d" stroke-width="1" stroke-linejoin="round"/><path d="M66.92,90.67 L61.33,90.67 L61.33,85.17 L66.93,85.17 L66.92,90.67 Z" fill="#76bc2d" stroke="#76bc2d" stroke-width="1" stroke-linejoin="round"/><path d="M55.72,90.67 L50.13,90.67 L50.13,85.17 L55.73,85.17 L55.72,90.67 Z" fill="#76bc2d" stroke="#76bc2d" stroke-width="1" stroke-linejoin="round"/><path d="M44.52,90.67 L38.93,90.67 L38.93,85.17 L44.52,85.17 L44.52,90.67 Z" fill="#76bc2d" stroke="#76bc2d" stroke-width="1" stroke-linejoin="round"/><path d="M33.32,90.67 L27.73,90.67 L27.73,85.17 L33.33,85.17 L33.32,90.67 Z" fill="#76bc2d" stroke="#76bc2d" stroke-width="1" stroke-linejoin="round"/><path d="M22.12,90.67 L16.53,90.67 L16.53,85.17 L22.13,85.17 L22.12,90.67 Z" fill="#76bc2d" stroke="#76bc2d" stroke-width="1" stroke-linejoin="round"/><rect x="5.44" y="85.17" width="5.49" height="5.49" fill="#76bc2d" stroke="#76bc2d" stroke-width="1"/><path d="M10.93,79.57 L5.44,79.57 L5.44,73.98 L10.93,73.98 L10.93,79.57 Z" fill="#76bc2d" stroke="#76bc2d" stroke-width="1" stroke-linejoin="round"/><path d="M10.93,68.37 L5.44,68.37 L5.44,62.77 L10.93,62.77 L10.93,68.37 Z" fill="#76bc2d" stroke="#76bc2d" stroke-width="1" stroke-linejoin="round"/><path d="M10.93,57.17 L5.44,57.17 L5.44,51.58 L10.93,51.58 L10.93,57.17 Z" fill="#76bc2d" stroke="#76bc2d" stroke-width="1" stroke-linejoin="round"/><path d="M10.93,45.97 L5.44,45.97 L5.44,40.38 L10.93,40.38 L10.93,45.97 Z" fill="#76bc2d" stroke="#76bc2d" stroke-width="1" stroke-linejoin="round"/><path d="M10.93,34.77 L5.44,34.77 L5.44,29.19 L10.93,29.19 L10.93,34.77 Z" fill="#76bc2d" stroke="#76bc2d" stroke-width="1" stroke-linejoin="round"/><path d="M10.93,23.57 L5.44,23.57 L5.44,17.99 L10.93,17.99 L10.93,23.57 Z" fill="#76bc2d" stroke="#76bc2d" stroke-width="1" stroke-linejoin="round"/><rect x="5.44" y="6.90" width="5.49" height="5.49" fill="#76bc2d" stroke="#76bc2d" stroke-width="1"/><path d="M44.52,12.39 L38.93,12.39 L38.93,6.90 L44.52,6.90 L44.52,12.39 Z" fill="#76bc2d" stroke="#76bc2d" stroke-width="1" stroke-linejoin="round"/><path d="M33.32,12.39 L27.73,12.39 L27.73,6.90 L33.33,6.90 L33.32,12.39 Z" fill="#76bc2d" stroke="#76bc2d" stroke-width="1" stroke-linejoin="round"/><path d="M22.12,12.39 L16.53,12.39 L16.53,6.90 L22.13,6.90 L22.12,12.39 Z" fill="#76bc2d" stroke="#76bc2d" stroke-width="1" stroke-linejoin="round"/><path d="M89.21,79.57 L83.73,79.57 L83.73,73.98 L89.22,73.98 L89.21,79.57 Z" fill="#76bc2d" stroke="#76bc2d" stroke-width="1" stroke-linejoin="round"/><path d="M89.21,68.37 L83.73,68.37 L83.73,62.77 L89.22,62.77 L89.21,68.37 Z" fill="#76bc2d" stroke="#76bc2d" stroke-width="1" stroke-linejoin="round"/><path d="M89.21,57.17 L83.73,57.17 L83.73,51.58 L89.22,51.58 L89.21,57.17 Z" fill="#76bc2d" stroke="#76bc2d" stroke-width="1" stroke-linejoin="round"/></svg>