<svg xmlns="http://www.w3.org/2000/svg" viewBox="-2.00 8.67 100.00 78.67"><rect x="0.00" y="10.67" width="96.00" height="74.67" fill="#3990e4" stroke="#1e1e1e" stroke-width="1"/><path d="M44.36,25.65 L44.31,25.88 L40.95,27.13 L37.85,28.94 L34.99,28.18 L32.04,27.99 L29.11,28.38 L26.31,29.33 L26.29,32.29 L26.79,35.20 L27.80,37.97 L29.29,40.52 L28.38,43.65 L27.83,46.87 L25.45,48.41 L23.41,50.37 L21.78,52.69 L20.61,55.26 L22.68,57.37 L25.11,59.05 L27.80,60.26 L30.68,60.94 L30.69,60.93 L32.32,63.45 L34.26,65.75 L33.61,68.70 L33.69,71.72 L34.50,74.63 L37.78,74.41 L40.93,73.45 L43.79,71.80 L47.96,72.78 L52.25,72.98 L54.12,74.88 L56.42,76.23 L58.98,76.96 L60.64,74.89 L61.73,72.48 L62.21,69.87 L62.21,69.87 L62.20,69.72 L62.20,69.72 L62.19,69.58 L65.10,67.07 L67.44,64.02 L69.56,63.81 L71.56,63.09 L73.32,61.89 L72.79,59.76 L71.75,57.83 L70.27,56.20 L70.27,56.20 L70.19,56.14 L70.19,56.14 L70.11,56.09 L70.17,52.89 L69.53,49.74 L68.24,46.80 L66.36,44.20 L63.96,42.07 L61.17,40.49 L58.10,39.55 L54.90,39.28 L52.27,39.48 L50.01,40.23 L48.14,41.43 L46.65,43.01 L45.53,44.86 L44.78,46.90 L44.39,49.04 L44.36,51.19 L44.68,53.26 L45.36,55.16 L46.37,56.81 L47.72,58.10 L49.41,58.96 L51.42,59.29 L53.76,59.00 L56.42,58.01 L56.57,57.38 L56.39,57.08 L55.96,57.05 L55.36,57.18 L53.97,57.59 L53.35,57.71 L52.89,57.64 L51.01,57.20 L49.36,56.22 L48.08,54.77 L47.31,53.01 L47.12,51.09 L47.66,48.88 L48.82,46.91 L50.49,45.36 L52.55,44.36 L54.80,43.99 L57.06,44.29 L59.14,45.23 L60.83,46.39 L62.13,47.75 L63.07,49.27 L63.66,50.91 L63.94,52.63 L63.91,54.38 L63.60,56.14 L63.03,57.87 L62.22,59.51 L61.19,61.05 L59.96,62.42 L58.55,63.61 L56.98,64.56 L55.27,65.24 L53.45,65.62 L51.52,65.64 L51.51,65.64 L47.96,65.15 L44.59,63.90 L41.57,61.95 L39.06,59.38 L37.17,56.33 L35.98,52.94 L35.57,49.38 L35.79,45.92 L36.69,42.58 L38.22,39.48 L40.32,36.74 L42.92,34.46 L45.92,32.73 L49.19,31.62 L52.62,31.17 L54.51,31.09 L56.34,31.22 L58.10,31.54 L59.79,32.04 L61.41,32.70 L62.96,33.52 L65.81,35.55 L68.33,38.03 L70.47,40.85 L72.21,43.91 L73.52,47.10 L73.57,43.60 L72.96,40.16 L71.70,36.89 L69.85,33.93 L67.47,31.37 L67.65,29.29 L67.31,27.23 L66.48,25.32 L64.44,25.36 L62.46,25.87 L60.64,26.82 L57.78,25.81 L54.81,25.20 L53.60,22.72 L51.81,20.62 L49.55,19.04 L47.28,20.79 L45.52,23.04 L44.36,25.65 L44.36,25.65 Z" fill="#f2f2f2" stroke="#1e1e1e" stroke-width="1" stroke-linejoin="round"/></svg>