<svg xmlns="http://www.w3.org/2000/svg" viewBox="-2.00 1.25 100.00 93.44"><rect x="0.00" y="3.25" width="86.84" height="72.95" fill="#2f8ce2" stroke="#1e1e1e" stroke-width="1"/><ellipse cx="34.79" cy="28.42" rx="6.03" ry="6.06" fill="#ffffff" stroke="#ffffff" stroke-width="1"/><ellipse cx="51.51" cy="39.79" rx="6.03" ry="6.06" fill="#ffffff" stroke="#ffffff" stroke-width="1"/><ellipse cx="67.71" cy="18.25" rx="6.03" ry="6.06" fill="#ffffff" stroke="#ffffff" stroke-width="1"/><ellipse cx="19.13" cy="50.73" rx="6.03" ry="6.06" fill="#ffffff" stroke="#ffffff" stroke-width="1"/><path d="M21.31,52.26 L16.94,49.19 L34.12,24.75 L50.91,36.15 L65.58,16.65 L69.84,19.86 L52.12,43.42 L35.47,32.11 L21.31,52.26 Z" fill="#ffffff" stroke="#1e1e1e" stroke-width="1" stroke-linejoin="round"/><path d="M36.97,91.16 L35.04,90.85 L33.31,89.97 L31.93,88.59 L31.04,86.86 L30.74,84.93 L31.07,81.13 L31.66,77.52 L32.50,74.10 L33.59,70.88 L34.91,67.87 L36.46,65.08 L38.22,62.52 L40.20,60.19 L42.37,58.10 L44.75,56.27 L47.30,54.69 L50.04,53.39 L52.95,52.36 L56.01,51.61 L59.23,51.16 L62.60,51.00 L65.96,51.16 L69.19,51.61 L72.26,52.35 L75.17,53.38 L77.91,54.68 L80.47,56.25 L82.85,58.08 L85.03,60.15 L87.01,62.46 L88.78,65.00 L90.32,67.77 L91.64,70.74 L92.72,73.92 L93.56,77.30 L94.14,80.86 L94.46,84.60 L94.25,86.54 L93.45,88.33 L92.14,89.77 L90.45,90.75 L88.53,91.15 L36.96,91.15 L36.97,91.16 Z" fill="#ffffff" stroke="#1e1e1e" stroke-width="1" stroke-linejoin="round"/><path d="M62.60,49.47 L59.07,49.63 L55.69,50.10 L52.48,50.88 L49.43,51.95 L46.56,53.31 L43.88,54.95 L41.39,56.85 L39.11,59.01 L37.04,61.42 L35.19,64.08 L33.56,66.96 L32.18,70.07 L31.05,73.38 L30.17,76.91 L29.55,80.62 L29.21,84.53 L29.21,84.93 L29.60,87.33 L30.70,89.49 L32.42,91.20 L34.58,92.31 L36.98,92.69 L88.31,92.69 L88.63,92.69 L91.01,92.19 L93.12,90.98 L94.75,89.17 L95.74,86.95 L96.00,84.53 L95.67,80.68 L95.05,77.01 L94.17,73.51 L93.02,70.21 L91.63,67.11 L89.99,64.22 L88.13,61.56 L86.04,59.14 L83.74,56.96 L81.24,55.03 L78.55,53.38 L75.68,52.00 L72.65,50.91 L69.45,50.11 L66.10,49.63 L62.61,49.47 L62.60,49.47 Z" fill="#0078d4" stroke="#1e1e1e" stroke-width="1" stroke-linejoin="round"/><path d="M62.60,52.53 L65.94,52.69 L69.11,53.15 L72.11,53.91 L74.92,54.95 L77.55,56.25 L79.99,57.81 L82.24,59.62 L84.28,61.65 L86.13,63.90 L87.76,66.36 L89.18,69.01 L90.38,71.83 L91.36,74.83 L92.12,77.98 L92.64,81.27 L92.93,84.69 L92.66,86.50 L91.72,88.08 L90.25,89.17 L88.47,89.62 L36.97,89.62 L35.17,89.26 L33.64,88.24 L32.62,86.72 L32.27,84.92 L32.27,84.68 L32.56,81.26 L33.09,77.97 L33.85,74.82 L34.84,71.83 L36.04,69.00 L37.47,66.36 L39.10,63.90 L40.94,61.65 L42.99,59.62 L45.23,57.81 L47.67,56.25 L50.29,54.95 L53.10,53.91 L56.09,53.15 L59.26,52.69 L62.60,52.53 Z" fill="#ffffff" stroke="#1e1e1e" stroke-width="1" stroke-linejoin="round"/><path d="M76.63,65.45 L73.83,63.33 L70.73,61.69 L67.39,60.58 L63.93,60.04 L63.93,69.91 L66.03,70.39 L68.02,71.24 L69.82,72.43 L76.63,65.45 Z" fill="#50e6ff" stroke="#50e6ff" stroke-width="1" stroke-linejoin="round"/><path d="M48.23,65.45 L55.04,72.43 L56.84,71.24 L58.83,70.39 L60.94,69.91 L60.94,60.04 L57.47,60.58 L54.14,61.69 L51.03,63.33 L48.23,65.45 Z" fill="#50e6ff" stroke="#50e6ff" stroke-width="1" stroke-linejoin="round"/><path d="M72.00,74.63 L73.17,76.49 L74.00,78.53 L74.46,80.69 L84.06,80.69 L83.54,77.15 L82.47,73.75 L80.88,70.55 L78.80,67.65 L72.00,74.63 Z" fill="#32bedd" stroke="#32bedd" stroke-width="1" stroke-linejoin="round"/><path d="M52.89,74.63 L46.09,67.65 L44.01,70.55 L42.41,73.75 L41.34,77.15 L40.83,80.69 L50.43,80.69 L50.89,78.53 L51.72,76.49 L52.89,74.63 L52.89,74.63 Z" fill="#50e6ff" stroke="#50e6ff" stroke-width="1" stroke-linejoin="round"/><path d="M78.79,72.14 L78.00,71.23 L76.85,70.90 L76.40,70.95 L75.96,71.10 L61.18,78.03 L62.96,81.90 L77.76,74.97 L78.60,74.26 L78.98,73.22 L78.79,72.14 Z" fill="#e62323" stroke="#e62323" stroke-width="1" stroke-linejoin="round"/><ellipse cx="62.60" cy="79.80" rx="5.09" ry="5.09" fill="#4f4f4f" stroke="#4f4f4f" stroke-width="1"/></svg>