<svg xmlns="http://www.w3.org/2000/svg" viewBox="-2.00 8.00 100.00 80.02"><path d="M96.00,56.73 L95.55,52.96 L94.45,49.33 L92.73,45.95 L90.45,42.93 L87.67,40.34 L84.48,38.29 L80.98,36.83 L77.28,36.00 L76.67,31.34 L75.27,26.85 L73.11,22.67 L70.27,18.93 L66.82,15.73 L62.88,13.17 L58.55,11.33 L53.97,10.26 L49.28,10.00 L44.99,10.25 L40.79,11.16 L36.78,12.70 L33.05,14.84 L29.70,17.53 L26.80,20.70 L24.42,24.27 L22.61,28.18 L18.15,29.13 L13.93,30.85 L10.08,33.29 L6.72,36.37 L3.95,40.00 L1.87,44.06 L0.54,48.42 L0.00,52.94 L0.57,57.45 L1.91,61.79 L3.99,65.84 L6.73,69.46 L10.06,72.55 L13.88,75.02 L18.06,76.79 L22.49,77.81 L27.03,78.04 L29.41,77.94 L73.18,77.94 L73.77,77.89 L74.34,77.77 L78.48,77.34 L82.46,76.14 L86.15,74.20 L89.39,71.60 L92.09,68.43 L94.13,64.80 L95.45,60.86 L96.00,56.73 Z" fill="#2f8ce2" stroke="#1e1e1e" stroke-width="1" stroke-linejoin="round"/><path d="M61.02,44.19 L64.79,44.37 L68.37,44.89 L71.74,45.74 L74.91,46.91 L77.88,48.39 L80.63,50.15 L83.16,52.18 L85.46,54.47 L87.54,57.01 L89.38,59.78 L90.98,62.77 L92.34,65.96 L93.45,69.34 L94.30,72.89 L94.89,76.60 L95.21,80.46 L95.02,82.16 L94.30,83.71 L93.12,84.95 L91.61,85.74 L89.92,86.02 L32.14,86.02 L30.46,85.74 L28.95,84.93 L27.77,83.70 L27.05,82.15 L26.85,80.45 L27.18,76.60 L27.77,72.89 L28.62,69.33 L29.73,65.96 L31.09,62.77 L32.69,59.78 L34.54,57.01 L36.61,54.47 L38.92,52.18 L41.45,50.15 L44.19,48.39 L47.15,46.91 L50.32,45.74 L53.69,44.89 L57.26,44.37 L61.02,44.19 Z" fill="#50e6ff" stroke="#1e1e1e" stroke-width="1" stroke-linejoin="round"/><path d="M32.14,82.47 L31.45,82.34 L30.86,81.94 L30.48,81.33 L30.37,80.62 L30.71,76.96 L31.32,73.47 L32.21,70.16 L33.34,67.04 L34.72,64.13 L36.32,61.43 L38.12,58.94 L40.11,56.68 L42.28,54.65 L44.60,52.87 L47.07,51.34 L49.67,50.06 L52.38,49.06 L55.19,48.33 L58.07,47.89 L61.02,47.74 L63.98,47.89 L66.86,48.33 L69.67,49.06 L72.38,50.06 L74.98,51.34 L77.45,52.87 L79.78,54.65 L81.95,56.68 L83.95,58.94 L85.75,61.43 L87.35,64.13 L88.72,67.04 L89.86,70.16 L90.74,73.47 L91.36,76.96 L91.69,80.62 L91.58,81.33 L91.19,81.94 L90.61,82.34 L89.92,82.47 L32.14,82.47 Z" fill="#f8f8f8" stroke="#1e1e1e" stroke-width="1" stroke-linejoin="round"/><path d="M77.60,58.77 L74.34,56.29 L70.72,54.38 L66.84,53.09 L62.79,52.45 L62.79,64.00 L65.25,64.55 L67.57,65.54 L69.67,66.94 L77.60,58.77 Z" fill="#9cebff" stroke="#9cebff" stroke-width="1" stroke-linejoin="round"/><path d="M44.45,58.77 L52.38,66.92 L54.48,65.53 L56.80,64.55 L59.26,64.00 L59.26,52.45 L55.22,53.09 L51.33,54.38 L47.71,56.29 L44.45,58.77 L44.45,58.77 Z" fill="#50e6ff" stroke="#50e6ff" stroke-width="1" stroke-linejoin="round"/><path d="M72.17,69.49 L73.53,71.67 L74.49,74.05 L75.02,76.57 L86.22,76.57 L85.62,72.44 L84.38,68.46 L82.52,64.73 L80.10,61.33 L72.17,69.49 Z" fill="#9cebff" stroke="#9cebff" stroke-width="1" stroke-linejoin="round"/><path d="M49.89,69.49 L41.96,61.33 L39.53,64.72 L37.66,68.45 L36.41,72.43 L35.81,76.56 L47.01,76.56 L47.55,74.05 L48.52,71.66 L49.89,69.49 L49.89,69.49 Z" fill="#32bedd" stroke="#32bedd" stroke-width="1" stroke-linejoin="round"/><path d="M81.65,66.96 L81.11,66.23 L80.28,65.86 L79.37,65.96 L62.84,72.55 L64.12,75.83 L80.66,69.25 L81.39,68.70 L81.75,67.87 L81.65,66.96 Z" fill="#32bedd" stroke="#32bedd" stroke-width="1" stroke-linejoin="round"/><ellipse cx="61.02" cy="74.93" rx="4.82" ry="4.82" fill="#767676" stroke="#767676" stroke-width="1"/></svg>