<svg xmlns="http://www.w3.org/2000/svg" viewBox="-1.00 -2.00 98.01 100.00"><rect x="16.60" y="0.00" width="78.40" height="96.00" fill="#2f8ce2" stroke="#1e1e1e" stroke-width="1"/><rect x="1.00" y="9.96" width="74.59" height="38.89" fill="#41d2ee" stroke="#1e1e1e" stroke-width="1"/><path d="M63.40,23.59 L27.03,23.59 L26.57,23.41 L26.37,22.95 L26.37,20.80 L26.57,20.34 L27.03,20.14 L63.39,20.14 L63.86,20.34 L64.05,20.80 L64.05,22.93 L63.86,23.40 L63.40,23.59 L63.40,23.59 Z" fill="#ffffff" stroke="#ffffff" stroke-width="1" stroke-linejoin="round"/><path d="M21.26,25.14 L21.26,18.60 L20.93,17.80 L20.13,17.47 L13.58,17.47 L12.79,17.80 L12.45,18.60 L12.45,18.60 L12.45,25.14 L12.78,25.94 L13.58,26.27 L20.12,26.27 L20.92,25.94 L21.25,25.14 L21.26,25.14 Z" fill="#ffffff" stroke="#ffffff" stroke-width="1" stroke-linejoin="round"/><path d="M63.39,37.46 L27.03,37.46 L26.57,37.26 L26.37,36.80 L26.37,36.80 L26.37,34.63 L26.57,34.17 L27.03,33.97 L63.39,33.97 L63.85,34.17 L64.05,34.63 L64.05,36.77 L63.86,37.24 L63.39,37.43 L63.39,37.46 Z" fill="#ffffff" stroke="#ffffff" stroke-width="1" stroke-linejoin="round" opacity="0.8"/><path d="M20.20,31.32 L21.00,31.66 L21.33,32.46 L21.33,39.04 L21.00,39.84 L20.19,40.18 L13.60,40.18 L12.80,39.84 L12.46,39.04 L12.46,32.44 L12.80,31.64 L13.60,31.31 L20.20,31.32 Z" fill="#ffffff" stroke="#ffffff" stroke-width="1" stroke-linejoin="round" opacity="0.8"/><path d="M19.63,33.03 L14.17,33.03 L14.17,38.47 L19.63,38.47 L19.63,33.03 Z" fill="#41d2ee" stroke="#41d2ee" stroke-width="1" stroke-linejoin="round" opacity="0.8"/><path d="M71.37,59.24 L71.16,59.11 L70.92,59.06 L70.48,59.24 L70.30,59.69 L70.30,66.97 L70.30,66.97 L70.30,67.62 L16.60,67.62 L16.60,77.08 L70.30,77.08 L70.30,84.46 L70.68,85.04 L71.37,84.91 L83.76,72.53 L83.76,72.53 L83.94,72.09 L83.76,71.65 L71.37,59.24 Z" fill="#83b9f9" stroke="#1e1e1e" stroke-width="1" stroke-linejoin="round"/></svg>