<svg xmlns="http://www.w3.org/2000/svg" viewBox="8.29 0.67 79.73 94.83"><path d="M81.07,2.67 L19.15,2.67 L17.85,2.94 L16.80,3.73 L10.29,11.25 L81.65,83.57 L70.99,93.33 L76.32,93.33 L77.63,93.10 L78.77,92.43 L85.01,86.72 L85.76,85.68 L86.03,84.43 L86.03,7.09 L85.68,5.24 L84.59,3.72 L82.94,2.80 L81.07,2.67 Z" fill="#5e9624" stroke="#1e1e1e" stroke-width="1" stroke-linejoin="round"/><path d="M15.52,11.20 L19.47,6.72 L20.30,6.05 L21.33,5.76 L79.36,5.76 L80.75,6.13 L81.76,7.15 L82.13,8.53 L82.13,82.03 L81.89,83.13 L81.23,84.05 L75.09,89.71" fill="none" stroke="#1e1e1e" stroke-width="1" stroke-linejoin="round"/><path d="M74.67,11.15 L10.67,11.15 L10.47,11.26 L10.40,11.47 L10.40,91.47 L10.67,92.48 L11.41,93.22 L12.43,93.49 L74.67,93.49 L75.68,93.22 L76.42,92.48 L76.69,91.47 L76.69,13.23 L76.44,12.19 L75.70,11.43 L74.67,11.15 L74.67,11.15 Z" fill="#72b62b" stroke="#1e1e1e" stroke-width="1" stroke-linejoin="round"/><path d="M66.67,41.71 L66.44,40.67 L65.71,39.91 L64.69,39.63 L54.83,39.63 L54.36,39.75 L54.03,40.11 L49.92,47.47 L43.20,33.87 L36.96,53.33 L31.63,39.47 L24.59,52.48 L24.26,52.85 L23.79,53.01 L20.59,53.01 L19.66,53.24 L18.94,53.88 L18.61,54.77 L18.61,54.77 L18.80,55.85 L19.53,56.66 L20.59,56.96 L25.92,56.96 L26.42,56.81 L26.77,56.43 L30.93,48.59 L37.39,64.59 L43.95,44.00 L49.71,55.68 L56.16,44.11 L56.49,43.75 L56.96,43.63 L64.69,43.63 L65.66,43.37 L66.38,42.67 L66.67,41.71 L66.67,41.71 Z" fill="#ffffff" stroke="#1e1e1e" stroke-width="1" stroke-linejoin="round"/></svg>