<svg xmlns="http://www.w3.org/2000/svg" viewBox="-2.00 -1.95 100.00 99.91"><path d="M93.82,2.23 L92.27,1.04 L90.47,0.30 L88.53,0.05 L34.90,0.05 L32.60,0.42 L30.52,1.49 L28.87,3.14 L27.81,5.21 L27.43,7.51 L27.43,61.19 L27.81,63.50 L28.87,65.57 L30.52,67.22 L32.60,68.29 L34.90,68.66 L88.53,68.66 L90.84,68.30 L92.92,67.24 L94.57,65.58 L95.63,63.50 L96.00,61.19 L96.00,7.50 L95.75,5.57 L95.00,3.77 L93.82,2.23 L93.82,2.23 Z" fill="#773adc" stroke="#1e1e1e" stroke-width="1" stroke-linejoin="round"/><path d="M79.39,16.66 L77.85,15.47 L76.05,14.73 L74.12,14.47 L20.47,14.47 L18.17,14.85 L16.10,15.91 L14.45,17.56 L13.38,19.64 L13.01,21.94 L13.01,75.62 L13.38,77.92 L14.45,80.00 L16.10,81.65 L18.17,82.71 L20.47,83.09 L74.13,83.09 L76.44,82.72 L78.52,81.66 L80.17,80.01 L81.23,77.93 L81.60,75.62 L81.60,21.93 L81.34,20.00 L80.59,18.20 L79.39,16.66 L79.39,16.66 Z" fill="#9b6eec" stroke="#1e1e1e" stroke-width="1" stroke-linejoin="round"/><path d="M61.10,95.95 L7.47,95.95 L5.16,95.58 L3.09,94.51 L1.44,92.86 L0.37,90.79 L-0.00,88.49 L0.00,34.81 L0.37,32.50 L1.44,30.43 L3.09,28.78 L5.16,27.71 L7.47,27.34 L61.10,27.34 L63.41,27.70 L65.49,28.76 L67.14,30.42 L68.20,32.50 L68.57,34.81 L68.57,88.50 L68.20,90.80 L67.14,92.88 L65.49,94.54 L63.41,95.60 L61.10,95.96 L61.10,95.95 Z" fill="#9c6fed" stroke="#1e1e1e" stroke-width="1" stroke-linejoin="round"/><path d="M23.89,72.73 L23.01,72.99 L22.38,73.65 L22.16,74.54 L22.16,78.17 L22.37,79.07 L23.01,79.74 L23.89,80.00 L56.75,80.00 L57.63,79.74 L58.26,79.08 L58.48,78.19 L58.48,74.56 L58.26,73.67 L57.63,73.01 L56.75,72.75 L23.89,72.73 Z" fill="#ffffff" stroke="#ffffff" stroke-width="1" stroke-linejoin="round"/><path d="M10.07,74.50 L10.31,73.61 L10.95,72.97 L11.83,72.73 L15.57,72.73 L16.45,72.97 L17.10,73.61 L17.33,74.50 L17.33,78.23 L17.10,79.12 L16.45,79.76 L15.56,80.00 L11.83,80.00 L10.95,79.76 L10.30,79.12 L10.07,78.23 L10.07,74.50 Z" fill="#ffffff" stroke="#ffffff" stroke-width="1" stroke-linejoin="round"/><path d="M23.89,58.02 L23.01,58.28 L22.38,58.94 L22.16,59.83 L22.16,63.46 L22.38,64.35 L23.01,65.02 L23.89,65.27 L56.75,65.27 L57.63,65.02 L58.26,64.35 L58.48,63.46 L58.48,59.83 L58.26,58.94 L57.63,58.28 L56.75,58.02 L23.89,58.02 Z" fill="#ffffff" stroke="#ffffff" stroke-width="1" stroke-linejoin="round"/><path d="M10.07,59.79 L10.31,58.91 L10.95,58.26 L11.83,58.02 L15.57,58.02 L16.45,58.26 L17.10,58.90 L17.33,59.79 L17.33,63.52 L17.10,64.40 L16.45,65.04 L15.57,65.28 L11.83,65.28 L10.95,65.04 L10.31,64.40 L10.07,63.52 L10.07,59.79 Z" fill="#ffffff" stroke="#ffffff" stroke-width="1" stroke-linejoin="round"/><path d="M23.89,43.32 L23.01,43.58 L22.38,44.24 L22.16,45.13 L22.16,48.76 L22.38,49.65 L23.01,50.31 L23.89,50.57 L56.75,50.57 L57.63,50.31 L58.26,49.65 L58.48,48.76 L58.48,45.13 L58.26,44.24 L57.63,43.58 L56.75,43.32 L23.89,43.32 Z" fill="#ffffff" stroke="#ffffff" stroke-width="1" stroke-linejoin="round"/><path d="M10.07,45.08 L10.31,44.20 L10.95,43.55 L11.83,43.32 L15.57,43.32 L16.45,43.55 L17.10,44.20 L17.33,45.08 L17.33,48.81 L17.10,49.69 L16.45,50.34 L15.57,50.58 L11.83,50.58 L10.95,50.34 L10.31,49.69 L10.07,48.81 L10.07,45.08 Z" fill="#ffffff" stroke="#ffffff" stroke-width="1" stroke-linejoin="round"/></svg>