<svg xmlns="http://www.w3.org/2000/svg" viewBox="-1.97 -1.94 100.00 99.96"><path d="M51.21,73.24 L51.32,72.11 L51.65,71.06 L52.17,70.11 L52.85,69.28 L53.68,68.59 L54.63,68.08 L55.69,67.75 L56.82,67.63 L60.89,67.63 L64.81,64.08 L63.86,62.74 L63.16,61.24 L62.72,59.62 L62.57,57.90 L62.77,55.97 L63.33,54.16 L64.22,52.53 L65.39,51.11 L66.81,49.93 L68.45,49.05 L70.25,48.49 L72.19,48.29 L73.67,48.40 L75.08,48.74 L76.40,49.27 L77.62,49.98 L80.29,46.09 L82.34,42.56 L83.85,39.41 L84.90,36.61 L85.59,34.19 L85.98,32.12 L86.23,29.09 L86.23,25.72 L85.90,21.56 L85.03,16.97 L84.33,14.63 L83.41,12.31 L82.25,10.06 L80.82,7.93 L79.10,5.96 L77.06,4.19 L74.68,2.67 L71.92,1.45 L68.76,0.57 L65.18,0.06 L61.56,0.10 L58.07,0.72 L54.76,1.88 L51.71,3.55 L48.96,5.69 L46.58,8.26 L44.63,11.21 L43.16,14.52 L41.66,11.19 L39.68,8.22 L37.27,5.64 L34.48,3.50 L31.39,1.83 L28.06,0.67 L24.53,0.08 L20.88,0.07 L17.34,0.57 L14.22,1.46 L11.49,2.68 L9.13,4.20 L7.11,5.97 L5.41,7.94 L3.99,10.07 L2.84,12.32 L1.93,14.64 L1.23,16.98 L0.36,21.57 L0.03,25.72 L0.03,29.09 L0.18,31.69 L0.45,33.41 L0.93,35.41 L1.67,37.69 L2.73,40.25 L4.16,43.10 L6.03,46.23 L8.38,49.65 L11.27,53.35 L14.76,57.34 L18.91,61.62 L23.76,66.18 L29.39,71.03 L35.83,76.17 L43.15,81.60 L51.21,75.60 L51.21,73.24 Z" fill="#3399e3" stroke="#1e1e1e" stroke-width="1" stroke-linejoin="round"/><path d="M86.23,26.10 L65.93,26.10 L65.56,26.20 L65.27,26.46 L59.13,37.06 L58.62,37.42 L58.01,37.31 L57.76,37.06 L48.98,20.37 L48.61,19.87 L48.09,19.56 L47.49,19.47 L46.89,19.62 L46.45,19.93 L46.14,20.37 L37.72,45.48 L37.26,45.90 L36.64,45.88 L36.24,45.48 L29.04,28.79 L28.65,28.31 L28.12,28.02 L27.52,27.95 L26.92,28.13 L26.25,28.79 L16.41,46.50 L16.13,46.78 L15.75,46.90 L6.41,46.90 L8.60,50.06 L10.98,53.09 L19.50,53.09 L19.90,53.00 L20.17,52.69 L26.31,41.37 L26.79,40.98 L27.41,41.06 L27.73,41.37 L36.15,60.96 L36.48,61.48 L36.97,61.83 L37.56,61.97 L38.18,61.87 L38.73,61.51 L39.09,60.96 L47.97,34.57 L48.37,34.15 L48.95,34.14 L49.39,34.57 L56.80,48.63 L57.18,49.09 L57.70,49.37 L58.28,49.43 L58.86,49.26 L59.49,48.63 L68.93,32.75 L69.20,32.46 L69.59,32.34 L85.98,32.34 L86.23,26.10 Z" fill="#ffffff" stroke="#1e1e1e" stroke-width="1" stroke-linejoin="round"/><path d="M87.21,70.04 L73.78,70.04 L73.78,56.47 L70.57,56.47 L70.57,70.04 L56.82,70.04 L55.57,70.29 L54.55,70.98 L53.86,72.00 L53.61,73.25 L53.61,88.82 L56.82,88.82 L56.82,73.25 L70.57,73.25 L70.57,88.82 L73.78,88.82 L73.78,73.25 L87.21,73.25 L87.21,88.54 L90.42,88.54 L90.42,73.25 L90.17,72.00 L89.48,70.98 L88.46,70.29 L87.21,70.04 L87.21,70.04 Z" fill="#c9c9c8" stroke="#1e1e1e" stroke-width="1" stroke-linejoin="round"/><path d="M55.22,81.61 L53.76,81.76 L52.41,82.18 L51.19,82.84 L50.12,83.72 L49.24,84.79 L48.57,86.01 L48.15,87.37 L48.01,88.82 L48.15,90.27 L48.57,91.62 L49.24,92.85 L50.12,93.92 L51.19,94.80 L52.41,95.46 L53.76,95.88 L55.22,96.03 L56.67,95.88 L58.02,95.46 L59.24,94.80 L60.31,93.92 L61.19,92.85 L61.86,91.62 L62.28,90.27 L62.42,88.82 L62.28,87.37 L61.86,86.01 L61.19,84.79 L60.31,83.72 L59.24,82.84 L58.02,82.18 L56.67,81.76 L55.22,81.61 L55.22,81.61 Z" fill="#6cc85c" stroke="#6cc85c" stroke-width="1" stroke-linejoin="round"/><path d="M88.82,81.61 L87.37,81.76 L86.01,82.18 L84.79,82.84 L83.72,83.72 L82.84,84.79 L82.18,86.01 L81.76,87.37 L81.61,88.82 L81.76,90.27 L82.18,91.62 L82.84,92.85 L83.72,93.92 L84.79,94.80 L86.01,95.46 L87.37,95.88 L88.82,96.03 L90.27,95.88 L91.62,95.46 L92.85,94.80 L93.92,93.92 L94.80,92.85 L95.46,91.62 L95.88,90.27 L96.03,88.82 L95.88,87.37 L95.46,86.01 L94.80,84.79 L93.92,83.72 L92.85,82.84 L91.62,82.18 L90.27,81.76 L88.82,81.61 L88.82,81.61 Z" fill="#6cc85c" stroke="#6cc85c" stroke-width="1" stroke-linejoin="round"/><path d="M72.18,81.61 L70.73,81.76 L69.37,82.18 L68.15,82.84 L67.08,83.72 L66.20,84.79 L65.54,86.01 L65.12,87.37 L64.97,88.82 L65.12,90.27 L65.54,91.62 L66.20,92.85 L67.08,93.92 L68.15,94.80 L69.37,95.46 L70.73,95.88 L72.18,96.03 L73.63,95.88 L74.99,95.46 L76.21,94.80 L77.28,93.92 L78.16,92.85 L78.82,91.62 L79.24,90.27 L79.39,88.82 L79.24,87.37 L78.82,86.01 L78.16,84.79 L77.28,83.72 L76.21,82.84 L74.99,82.18 L73.63,81.76 L72.18,81.61 L72.18,81.61 Z" fill="#6cc85c" stroke="#6cc85c" stroke-width="1" stroke-linejoin="round"/><ellipse cx="72.18" cy="57.91" rx="7.21" ry="7.21" fill="#6cc85c" stroke="#6cc85c" stroke-width="1"/></svg>