<svg xmlns="http://www.w3.org/2000/svg" viewBox="0.67 0.83 94.67 94.35"><ellipse cx="48.00" cy="48.00" rx="45.33" ry="45.17" fill="#5c9fee" stroke="#1e1e1e" stroke-width="1"/><ellipse cx="48.00" cy="48.00" rx="39.47" ry="39.31" fill="#ffffff" stroke="#1e1e1e" stroke-width="1"/><path d="M14.51,50.35 L15.17,55.09 L16.51,59.68 L18.49,64.04 L21.08,68.07 L24.21,71.68 L34.88,61.01 L32.92,58.71 L31.35,56.11 L30.21,53.30 L29.55,50.35 L14.51,50.35 Z" fill="#9cebff" stroke="#1e1e1e" stroke-width="1" stroke-linejoin="round"/><path d="M70.03,22.77 L66.59,20.14 L62.83,17.97 L58.83,16.31 L54.64,15.19 L50.35,14.61 L50.35,29.49 L53.60,30.17 L56.67,31.43 L59.47,33.23 L70.03,22.77 Z" fill="#32bedd" stroke="#1e1e1e" stroke-width="1" stroke-linejoin="round"/><path d="M25.97,22.77 L36.64,33.44 L39.43,31.64 L42.51,30.38 L45.76,29.71 L45.76,14.61 L41.44,15.18 L37.23,16.30 L33.21,17.96 L29.43,20.13 L25.97,22.77 L25.97,22.77 Z" fill="#32bedd" stroke="#1e1e1e" stroke-width="1" stroke-linejoin="round"/><path d="M62.83,36.53 L64.61,39.34 L65.89,42.41 L66.61,45.65 L81.49,45.65 L80.92,41.38 L79.80,37.21 L78.14,33.23 L75.97,29.49 L73.33,26.08 L62.83,36.53 Z" fill="#32bedd" stroke="#1e1e1e" stroke-width="1" stroke-linejoin="round"/><path d="M33.17,36.53 L22.51,25.87 L19.88,29.33 L17.74,33.11 L16.11,37.13 L15.02,41.34 L14.51,45.65 L29.39,45.65 L30.11,42.41 L31.39,39.34 L33.17,36.53 Z" fill="#50e6ff" stroke="#1e1e1e" stroke-width="1" stroke-linejoin="round"/><path d="M75.41,37.33 L74.68,36.37 L73.58,35.88 L72.37,36.00 L50.40,44.85 L52.11,49.17 L74.08,40.48 L75.10,39.74 L75.59,38.58 L75.41,37.33 Z" fill="#f04049" stroke="#1e1e1e" stroke-width="1" stroke-linejoin="round"/><ellipse cx="48.00" cy="48.00" rx="6.40" ry="6.40" fill="#77797a" stroke="#77797a" stroke-width="1"/></svg>