<svg xmlns="http://www.w3.org/2000/svg" viewBox="-1.97 -1.94 99.97 99.94"><path d="M51.19,73.22 L51.31,72.09 L51.64,71.04 L52.15,70.09 L52.84,69.26 L53.67,68.57 L54.62,68.06 L55.67,67.73 L56.80,67.62 L60.87,67.62 L64.79,64.06 L63.85,62.72 L63.14,61.22 L62.71,59.60 L62.55,57.89 L62.75,55.95 L63.31,54.15 L64.20,52.52 L65.37,51.09 L66.79,49.92 L68.43,49.03 L70.23,48.47 L72.17,48.28 L73.65,48.39 L75.06,48.72 L76.38,49.25 L77.59,49.97 L80.27,46.08 L82.31,42.55 L83.82,39.40 L84.88,36.60 L85.56,34.18 L85.95,32.12 L86.21,29.08 L86.21,25.71 L85.88,21.55 L85.01,16.97 L84.31,14.62 L83.39,12.31 L82.23,10.06 L80.80,7.93 L79.08,5.96 L77.04,4.19 L74.66,2.67 L71.90,1.45 L68.74,0.57 L65.16,0.06 L61.54,0.10 L58.05,0.72 L54.75,1.88 L51.69,3.55 L48.95,5.69 L46.57,8.26 L44.61,11.21 L43.15,14.52 L41.65,11.19 L39.67,8.22 L37.26,5.64 L34.47,3.50 L31.38,1.83 L28.05,0.67 L24.52,0.08 L20.87,0.07 L17.34,0.57 L14.22,1.46 L11.49,2.68 L9.13,4.20 L7.11,5.96 L5.41,7.94 L3.99,10.07 L2.84,12.31 L1.93,14.63 L1.23,16.98 L0.36,21.56 L0.03,25.72 L0.03,29.08 L0.18,31.68 L0.45,33.40 L0.93,35.40 L1.67,37.68 L2.73,40.24 L4.16,43.09 L6.03,46.22 L8.38,49.64 L11.27,53.34 L14.76,57.33 L18.90,61.60 L23.76,66.16 L29.38,71.01 L35.82,76.15 L43.14,81.58 L51.19,75.58 L51.19,73.22 Z" fill="#3399e3" stroke="#1e1e1e" stroke-width="1" stroke-linejoin="round"/><path d="M86.20,26.09 L65.91,26.09 L65.54,26.19 L65.25,26.45 L59.11,37.05 L58.61,37.41 L57.99,37.30 L57.74,37.05 L48.97,20.36 L48.60,19.86 L48.08,19.56 L47.48,19.46 L46.87,19.62 L46.44,19.92 L46.13,20.36 L37.71,45.47 L37.25,45.89 L36.63,45.87 L36.23,45.47 L29.03,28.78 L28.64,28.30 L28.11,28.01 L27.51,27.94 L26.91,28.12 L26.25,28.78 L16.41,46.49 L16.13,46.77 L15.74,46.89 L6.41,46.89 L8.60,50.05 L10.98,53.08 L19.50,53.08 L19.89,52.98 L20.16,52.67 L26.30,41.36 L26.78,40.97 L27.40,41.05 L27.72,41.36 L36.14,60.94 L36.47,61.47 L36.96,61.82 L37.55,61.95 L38.17,61.86 L38.72,61.50 L39.08,60.94 L47.96,34.57 L48.36,34.14 L48.94,34.13 L49.38,34.57 L56.78,48.61 L57.17,49.08 L57.68,49.35 L58.26,49.42 L58.84,49.24 L59.47,48.61 L68.91,32.74 L69.19,32.45 L69.57,32.33 L85.95,32.33 L86.20,26.09 Z" fill="#ffffff" stroke="#1e1e1e" stroke-width="1" stroke-linejoin="round"/><path d="M87.19,70.02 L73.76,70.02 L73.76,56.45 L70.55,56.45 L70.55,70.02 L56.80,70.02 L55.55,70.27 L54.54,70.96 L53.85,71.98 L53.59,73.23 L53.59,88.80 L56.80,88.80 L56.80,73.23 L70.55,73.23 L70.55,88.80 L73.76,88.80 L73.76,73.23 L87.19,73.23 L87.19,88.51 L90.39,88.51 L90.39,73.23 L90.14,71.98 L89.46,70.96 L88.44,70.27 L87.19,70.02 L87.19,70.02 Z" fill="#c9c9c8" stroke="#1e1e1e" stroke-width="1" stroke-linejoin="round"/><path d="M55.20,81.59 L53.75,81.74 L52.40,82.16 L51.17,82.82 L50.11,83.70 L49.23,84.77 L48.56,85.99 L48.14,87.34 L47.99,88.79 L48.14,90.25 L48.56,91.60 L49.23,92.82 L50.11,93.89 L51.17,94.77 L52.40,95.43 L53.75,95.85 L55.20,96.00 L56.65,95.85 L58.00,95.43 L59.23,94.77 L60.29,93.89 L61.17,92.82 L61.84,91.60 L62.26,90.25 L62.41,88.79 L62.26,87.34 L61.84,85.99 L61.17,84.77 L60.29,83.70 L59.23,82.82 L58.00,82.16 L56.65,81.74 L55.20,81.59 L55.20,81.59 Z" fill="#6cc85c" stroke="#6cc85c" stroke-width="1" stroke-linejoin="round"/><path d="M88.79,81.59 L87.34,81.74 L85.99,82.16 L84.77,82.82 L83.70,83.70 L82.82,84.77 L82.16,85.99 L81.74,87.34 L81.59,88.79 L81.74,90.25 L82.16,91.60 L82.82,92.82 L83.70,93.89 L84.77,94.77 L85.99,95.43 L87.34,95.85 L88.79,96.00 L90.25,95.85 L91.60,95.43 L92.82,94.77 L93.89,93.89 L94.77,92.82 L95.43,91.60 L95.85,90.25 L96.00,88.79 L95.85,87.34 L95.43,85.99 L94.77,84.77 L93.89,83.70 L92.82,82.82 L91.60,82.16 L90.25,81.74 L88.79,81.59 L88.79,81.59 Z" fill="#6cc85c" stroke="#6cc85c" stroke-width="1" stroke-linejoin="round"/><path d="M72.16,81.59 L70.71,81.74 L69.36,82.16 L68.13,82.82 L67.07,83.70 L66.19,84.77 L65.52,85.99 L65.10,87.34 L64.95,88.79 L65.10,90.25 L65.52,91.60 L66.19,92.82 L67.07,93.89 L68.13,94.77 L69.36,95.43 L70.71,95.85 L72.16,96.00 L73.61,95.85 L74.96,95.43 L76.19,94.77 L77.25,93.89 L78.13,92.82 L78.80,91.60 L79.22,90.25 L79.37,88.79 L79.22,87.34 L78.80,85.99 L78.13,84.77 L77.25,83.70 L76.19,82.82 L74.96,82.16 L73.61,81.74 L72.16,81.59 L72.16,81.59 Z" fill="#6cc85c" stroke="#6cc85c" stroke-width="1" stroke-linejoin="round"/><ellipse cx="72.16" cy="57.89" rx="7.21" ry="7.21" fill="#6cc85c" stroke="#6cc85c" stroke-width="1"/></svg>