<svg xmlns="http://www.w3.org/2000/svg" viewBox="0.66 0.71 94.15 94.61"><path d="M21.11,69.82 L21.80,69.28 L22.61,68.95 L23.48,68.83 L24.35,68.95 L25.16,69.28 L25.86,69.82 L26.16,70.12 L26.69,70.82 L27.03,71.63 L27.14,72.50 L27.03,73.37 L26.69,74.18 L26.16,74.87 L8.70,92.33 L8.00,92.87 L7.19,93.20 L6.32,93.32 L5.45,93.20 L4.64,92.87 L3.95,92.33 L3.65,92.03 L3.11,91.34 L2.78,90.52 L2.66,89.66 L2.78,88.79 L3.11,87.98 L3.65,87.28 L21.11,69.82 Z" fill="#198ab3" stroke="#1e1e1e" stroke-width="1" stroke-linejoin="round"/><path d="M90.67,23.20 L88.88,19.48 L86.67,16.00 L83.21,12.08 L79.19,8.75 L74.69,6.09 L69.83,4.17 L64.73,3.04 L59.52,2.71 L54.32,3.20 L49.26,4.51 L44.46,6.58 L40.05,9.39 L39.73,9.65 L36.48,12.52 L33.62,15.79 L31.22,19.40 L29.32,23.30 L27.95,27.41 L27.66,29.17 L27.25,30.93 L26.89,35.49 L27.16,40.06 L28.05,44.54 L29.55,48.86 L31.62,52.94 L34.23,56.69 L37.33,60.05 L37.33,60.05 L37.90,60.61 L38.51,61.12 L38.51,61.12 L39.68,62.08 L39.68,62.08 L42.11,63.80 L44.69,65.28 L45.23,65.60 L46.13,65.97 L46.88,66.35 L47.68,66.67 L48.53,66.99 L49.28,67.25 L50.35,67.57 L50.93,67.57 L52.48,68.00 L52.48,68.00 L54.19,68.37 L54.61,68.37 L55.28,68.40 L55.95,68.37 L56.48,68.37 L62.19,68.37 L63.41,68.37 L63.41,68.37 L64.05,68.37 L66.10,68.05 L68.11,67.57 L68.11,67.57 L72.29,66.15 L76.24,64.18 L79.89,61.71 L83.10,58.88 L85.92,55.68 L88.62,51.60 L90.70,47.16 L92.10,42.47 L92.81,37.63 L92.80,32.73 L92.08,27.89 L90.67,23.20 Z" fill="#4f9aeb" stroke="#4f9aeb" stroke-width="1" stroke-linejoin="round"/><path d="M82.93,18.24 L76.43,18.24 L74.43,13.63 L71.73,9.39 L76.01,11.67 L79.83,14.65 L83.09,18.24 L82.93,18.24 Z" fill="#ffffff" stroke="#ffffff" stroke-width="1" stroke-linejoin="round"/><path d="M62.08,7.57 L65.28,9.41 L68.03,11.87 L70.19,14.86 L71.68,18.24 L62.08,18.24 L62.08,7.57 Z" fill="#ffffff" stroke="#ffffff" stroke-width="1" stroke-linejoin="round"/><path d="M62.08,22.72 L73.12,22.72 L74.33,28.30 L74.88,33.97 L62.08,33.97 L62.08,22.72 Z" fill="#ffffff" stroke="#ffffff" stroke-width="1" stroke-linejoin="round"/><path d="M62.08,38.24 L74.88,38.24 L74.33,43.94 L73.12,49.55 L62.24,49.55 L62.24,38.03 L62.08,38.24 Z" fill="#ffffff" stroke="#ffffff" stroke-width="1" stroke-linejoin="round"/><path d="M45.44,30.61 L46.01,26.53 L46.93,22.51 L57.97,22.51 L57.97,33.76 L45.23,33.76 L45.44,30.61 Z" fill="#ffffff" stroke="#ffffff" stroke-width="1" stroke-linejoin="round"/><path d="M57.97,7.36 L57.97,18.03 L48.43,18.03 L49.89,14.65 L52.04,11.65 L54.78,9.19 L57.97,7.36 L57.97,7.36 Z" fill="#ffffff" stroke="#ffffff" stroke-width="1" stroke-linejoin="round"/><path d="M42.35,13.01 L42.35,13.01 L45.19,11.15 L48.21,9.60 L45.52,13.87 L43.52,18.51 L37.33,18.51 L39.67,15.61 L42.35,13.01 L42.35,13.01 Z" fill="#ffffff" stroke="#ffffff" stroke-width="1" stroke-linejoin="round"/><path d="M34.40,22.51 L42.67,22.51 L41.89,26.06 L41.39,29.65 L41.12,33.76 L31.20,33.76 L31.54,31.75 L32.00,29.76 L32.98,26.06 L34.40,22.51 L34.40,22.51 Z" fill="#ffffff" stroke="#ffffff" stroke-width="1" stroke-linejoin="round"/><path d="M31.20,38.03 L40.96,38.03 L41.49,43.73 L42.67,49.33 L34.40,49.33 L32.81,45.72 L31.74,41.93 L31.20,38.03 L31.20,38.03 Z" fill="#ffffff" stroke="#ffffff" stroke-width="1" stroke-linejoin="round"/><path d="M37.33,53.71 L37.33,53.71 L43.79,53.71 L45.78,58.32 L48.48,62.56 L44.28,60.26 L40.53,57.28 L37.33,53.71 L37.33,53.71 Z" fill="#ffffff" stroke="#ffffff" stroke-width="1" stroke-linejoin="round"/><path d="M58.08,64.37 L54.88,62.54 L52.15,60.08 L50.00,57.09 L48.53,53.71 L58.08,53.71 L58.08,64.37 Z" fill="#ffffff" stroke="#ffffff" stroke-width="1" stroke-linejoin="round"/><path d="M58.08,49.23 L46.93,49.23 L45.75,43.62 L45.23,37.92 L57.97,37.92 L57.97,49.33 L58.08,49.23 Z" fill="#ffffff" stroke="#ffffff" stroke-width="1" stroke-linejoin="round"/><path d="M66.24,62.13 L64.41,63.46 L62.35,64.37 L62.35,53.71 L71.95,53.71 L70.43,56.83 L68.48,59.69 L66.13,62.24 L66.24,62.13 Z" fill="#ffffff" stroke="#ffffff" stroke-width="1" stroke-linejoin="round"/><path d="M77.87,58.67 L77.87,58.67 L74.92,60.68 L71.73,62.29 L74.43,58.05 L76.43,53.44 L83.09,53.44 L80.65,56.22 L77.87,58.67 L77.87,58.67 Z" fill="#ffffff" stroke="#ffffff" stroke-width="1" stroke-linejoin="round"/><path d="M85.76,49.17 L77.76,49.17 L78.82,43.56 L79.31,37.87 L88.96,37.87 L88.44,41.83 L87.37,45.68 L85.76,49.33 L85.76,49.17 Z" fill="#ffffff" stroke="#ffffff" stroke-width="1" stroke-linejoin="round"/><path d="M79.31,33.76 L78.82,28.09 L77.76,22.51 L85.81,22.51 L87.38,26.10 L88.45,29.88 L89.01,33.76 L79.31,33.76 Z" fill="#ffffff" stroke="#ffffff" stroke-width="1" stroke-linejoin="round"/><ellipse cx="33.92" cy="58.35" rx="21.55" ry="21.55" fill="#50e6ff" stroke="#1e1e1e" stroke-width="1"/><ellipse cx="33.87" cy="57.97" rx="16.91" ry="16.91" fill="#ffffff" stroke="#1e1e1e" stroke-width="1"/><path d="M25.17,58.35 L29.44,68.27 L33.76,55.52 L37.33,62.77 L41.76,55.31 L48.64,55.31 L48.36,54.04 L48.00,52.80 L40.59,52.80 L37.71,57.65 L33.28,49.23 L29.17,61.33 L25.44,52.75 L20.85,61.12 L18.40,61.12 L18.74,62.39 L19.20,63.63 L22.29,63.63 L25.17,58.35 Z" fill="#76bc2d" stroke="#1e1e1e" stroke-width="1" stroke-linejoin="round"/></svg>