<svg xmlns="http://www.w3.org/2000/svg" viewBox="0.82 0.87 99.51 100.00"><path d="M22.36,73.97 L23.10,73.41 L23.96,73.05 L24.88,72.93 L25.80,73.05 L26.66,73.41 L27.40,73.97 L27.72,74.29 L28.28,75.03 L28.64,75.89 L28.76,76.81 L28.64,77.73 L28.28,78.59 L27.72,79.33 L9.22,97.83 L8.48,98.39 L7.62,98.75 L6.70,98.87 L5.78,98.75 L4.92,98.39 L4.18,97.83 L3.86,97.51 L3.30,96.77 L2.94,95.91 L2.82,94.99 L2.94,94.07 L3.30,93.21 L3.86,92.47 L22.36,73.97 Z" fill="#198ab3" stroke="#1e1e1e" stroke-width="1" stroke-linejoin="round"/><path d="M96.06,24.58 L94.17,20.64 L91.82,16.95 L88.16,12.80 L83.90,9.27 L79.13,6.46 L73.99,4.42 L68.58,3.22 L63.06,2.87 L57.55,3.39 L52.19,4.77 L47.11,6.98 L42.44,9.95 L42.10,10.23 L38.65,13.26 L35.62,16.73 L33.08,20.56 L31.07,24.69 L29.61,29.04 L29.31,30.91 L28.88,32.77 L28.49,37.60 L28.78,42.44 L29.72,47.19 L31.31,51.77 L33.50,56.09 L36.27,60.07 L39.56,63.63 L39.56,63.63 L40.16,64.21 L40.80,64.76 L40.80,64.76 L42.04,65.77 L42.04,65.77 L44.62,67.60 L47.35,69.17 L47.92,69.50 L48.88,69.90 L49.67,70.30 L50.52,70.63 L51.42,70.97 L52.21,71.26 L53.34,71.60 L53.96,71.60 L55.60,72.05 L55.60,72.05 L57.41,72.44 L57.86,72.44 L58.57,72.47 L59.28,72.44 L59.84,72.44 L65.89,72.44 L67.19,72.44 L67.19,72.44 L67.87,72.44 L70.03,72.10 L72.16,71.60 L72.16,71.60 L76.59,70.09 L80.78,68.00 L84.65,65.38 L88.04,62.39 L91.03,58.99 L93.89,54.67 L96.09,49.97 L97.58,45.00 L98.33,39.87 L98.33,34.68 L97.57,29.55 L96.06,24.58 Z" fill="#4f9aeb" stroke="#4f9aeb" stroke-width="1" stroke-linejoin="round"/><path d="M87.87,19.33 L80.98,19.33 L78.86,14.44 L76.00,9.95 L80.53,12.37 L84.58,15.53 L88.04,19.33 L87.87,19.33 Z" fill="#ffffff" stroke="#ffffff" stroke-width="1" stroke-linejoin="round"/><path d="M65.77,8.02 L69.17,9.97 L72.08,12.58 L74.37,15.75 L75.95,19.33 L65.77,19.33 L65.77,8.02 Z" fill="#ffffff" stroke="#ffffff" stroke-width="1" stroke-linejoin="round"/><path d="M65.77,24.07 L77.47,24.07 L78.75,29.98 L79.34,36.00 L65.77,36.00 L65.77,24.07 Z" fill="#ffffff" stroke="#ffffff" stroke-width="1" stroke-linejoin="round"/><path d="M65.77,40.52 L79.34,40.52 L78.75,46.56 L77.47,52.50 L65.94,52.50 L65.94,40.29 L65.77,40.52 Z" fill="#ffffff" stroke="#ffffff" stroke-width="1" stroke-linejoin="round"/><path d="M48.14,32.44 L48.75,28.11 L49.73,23.85 L61.42,23.85 L61.42,35.77 L47.92,35.77 L48.14,32.44 Z" fill="#ffffff" stroke="#ffffff" stroke-width="1" stroke-linejoin="round"/><path d="M61.42,7.80 L61.42,19.10 L51.31,19.10 L52.86,15.52 L55.14,12.35 L58.04,9.74 L61.42,7.80 L61.42,7.80 Z" fill="#ffffff" stroke="#ffffff" stroke-width="1" stroke-linejoin="round"/><path d="M44.87,13.79 L44.87,13.79 L47.88,11.81 L51.08,10.17 L48.23,14.70 L46.11,19.61 L39.56,19.61 L42.03,16.53 L44.87,13.79 L44.87,13.79 Z" fill="#ffffff" stroke="#ffffff" stroke-width="1" stroke-linejoin="round"/><path d="M36.45,23.85 L45.21,23.85 L44.39,27.61 L43.85,31.42 L43.57,35.77 L33.06,35.77 L33.42,33.64 L33.90,31.53 L34.95,27.61 L36.45,23.85 L36.45,23.85 Z" fill="#ffffff" stroke="#ffffff" stroke-width="1" stroke-linejoin="round"/><path d="M33.06,40.29 L43.40,40.29 L43.96,46.33 L45.21,52.27 L36.45,52.27 L34.77,48.45 L33.63,44.43 L33.06,40.29 L33.06,40.29 Z" fill="#ffffff" stroke="#ffffff" stroke-width="1" stroke-linejoin="round"/><path d="M39.56,56.90 L39.56,56.90 L46.39,56.90 L48.50,61.79 L51.37,66.28 L46.92,63.84 L42.94,60.68 L39.56,56.90 L39.56,56.90 Z" fill="#ffffff" stroke="#ffffff" stroke-width="1" stroke-linejoin="round"/><path d="M61.54,68.20 L58.15,66.27 L55.25,63.65 L52.97,60.48 L51.42,56.90 L61.54,56.90 L61.54,68.20 Z" fill="#ffffff" stroke="#ffffff" stroke-width="1" stroke-linejoin="round"/><path d="M61.54,52.16 L49.73,52.16 L48.47,46.22 L47.92,40.18 L61.42,40.18 L61.42,52.27 L61.54,52.16 Z" fill="#ffffff" stroke="#ffffff" stroke-width="1" stroke-linejoin="round"/><path d="M70.18,65.83 L68.25,67.24 L66.06,68.20 L66.06,56.90 L76.23,56.90 L74.63,60.21 L72.56,63.24 L70.07,65.94 L70.18,65.83 Z" fill="#ffffff" stroke="#ffffff" stroke-width="1" stroke-linejoin="round"/><path d="M82.50,62.16 L82.50,62.16 L79.38,64.29 L76.00,66.00 L78.86,61.51 L80.98,56.62 L88.04,56.62 L85.45,59.57 L82.50,62.16 L82.50,62.16 Z" fill="#ffffff" stroke="#ffffff" stroke-width="1" stroke-linejoin="round"/><path d="M90.86,52.10 L82.39,52.10 L83.51,46.15 L84.03,40.12 L94.25,40.12 L93.71,44.32 L92.57,48.39 L90.86,52.27 L90.86,52.10 Z" fill="#ffffff" stroke="#ffffff" stroke-width="1" stroke-linejoin="round"/><path d="M84.03,35.77 L83.51,29.77 L82.39,23.85 L90.92,23.85 L92.58,27.66 L93.71,31.66 L94.31,35.77 L84.03,35.77 Z" fill="#ffffff" stroke="#ffffff" stroke-width="1" stroke-linejoin="round"/><ellipse cx="35.94" cy="61.82" rx="22.83" ry="22.83" fill="#50e6ff" stroke="#1e1e1e" stroke-width="1"/><ellipse cx="35.88" cy="61.42" rx="17.91" ry="17.91" fill="#ffffff" stroke="#1e1e1e" stroke-width="1"/><path d="M26.67,61.82 L31.19,72.33 L35.77,58.82 L39.56,66.51 L44.25,58.60 L51.53,58.60 L51.24,57.26 L50.86,55.94 L43.00,55.94 L39.95,61.08 L35.26,52.16 L30.91,64.98 L26.95,55.89 L22.09,64.76 L19.50,64.76 L19.86,66.11 L20.34,67.41 L23.62,67.41 L26.67,61.82 Z" fill="#76bc2d" stroke="#1e1e1e" stroke-width="1" stroke-linejoin="round"/></svg>