<svg xmlns="http://www.w3.org/2000/svg" viewBox="-2.00 -2.00 100.00 100.00"><path d="M48.00,0.00 L43.09,0.25 L38.33,0.98 L33.73,2.16 L29.32,3.77 L25.12,5.79 L21.16,8.20 L17.47,10.96 L14.06,14.06 L10.96,17.47 L8.20,21.16 L5.79,25.12 L3.77,29.32 L2.16,33.73 L0.98,38.33 L0.25,43.09 L0.00,48.00 L0.25,52.91 L0.98,57.67 L2.16,62.27 L3.77,66.68 L5.79,70.88 L8.20,74.84 L10.96,78.53 L14.06,81.94 L17.47,85.04 L21.16,87.80 L25.12,90.21 L29.32,92.23 L33.73,93.84 L38.33,95.02 L43.09,95.75 L48.00,96.00 L52.91,95.75 L57.67,95.02 L62.27,93.84 L66.68,92.23 L70.88,90.21 L74.84,87.80 L78.53,85.04 L81.94,81.94 L85.04,78.53 L87.80,74.84 L90.21,70.88 L92.23,66.68 L93.84,62.27 L95.02,57.67 L95.75,52.91 L96.00,48.00 L95.75,43.09 L95.02,38.33 L93.84,33.73 L92.23,29.32 L90.21,25.12 L87.80,21.16 L85.04,17.47 L81.94,14.06 L78.53,10.96 L74.84,8.20 L70.88,5.79 L66.68,3.77 L62.27,2.16 L57.67,0.98 L52.91,0.25 L48.00,0.00 Z" fill="#e6522c" stroke="#1e1e1e" stroke-width="1" stroke-linejoin="round"/><path d="M47.99,89.84 L45.24,89.61 L42.68,88.96 L40.36,87.92 L38.34,86.54 L36.67,84.88 L35.41,82.97 L34.62,80.85 L34.34,78.59 L61.65,78.59 L61.38,80.85 L60.58,82.97 L59.32,84.88 L57.65,86.54 L55.63,87.92 L53.31,88.96 L50.75,89.61 L47.99,89.84 Z" fill="#ffffff" stroke="#1e1e1e" stroke-width="1" stroke-linejoin="round"/><path d="M70.55,74.86 L25.44,74.86 L25.44,66.68 L70.55,66.68 L70.55,74.86 Z" fill="#ffffff" stroke="#1e1e1e" stroke-width="1" stroke-linejoin="round"/><path d="M70.39,62.46 L70.39,62.46 L70.39,62.47 L25.56,62.47 L25.11,61.96 L22.26,58.21 L20.40,55.21 L19.20,52.71 L18.35,50.44 L27.94,52.48 L32.98,53.50 L31.05,50.81 L29.61,47.86 L28.71,44.71 L28.39,41.46 L28.71,37.91 L29.51,34.47 L30.59,31.16 L31.75,27.98 L32.79,24.93 L33.50,22.02 L33.67,20.62 L33.68,19.25 L33.50,17.92 L33.11,16.63 L34.09,16.94 L35.05,17.70 L35.96,18.89 L36.79,20.47 L37.51,22.43 L38.08,24.74 L38.48,27.38 L38.67,30.32 L39.63,28.76 L40.44,26.97 L41.12,25.02 L41.66,22.98 L42.35,18.91 L42.58,15.30 L42.71,13.62 L43.08,11.94 L43.65,10.33 L44.40,8.85 L45.28,7.57 L46.26,6.56 L47.31,5.87 L48.39,5.58 L47.69,7.17 L47.45,8.77 L47.62,10.45 L48.12,12.29 L49.82,16.71 L51.97,22.61 L52.59,25.54 L52.96,28.92 L53.28,32.35 L53.76,35.41 L54.20,29.25 L54.63,25.99 L55.25,22.79 L56.08,19.76 L57.16,17.03 L58.50,14.73 L59.28,13.78 L60.14,12.99 L59.55,14.83 L59.32,16.75 L59.40,18.67 L59.71,20.55 L60.20,22.35 L60.81,24.00 L62.12,26.68 L63.92,30.03 L65.28,33.36 L65.77,35.14 L66.13,37.06 L66.35,39.18 L66.43,41.55 L66.12,44.84 L65.25,47.98 L63.85,50.90 L61.98,53.53 L67.34,52.40 L77.64,50.39 L77.31,51.44 L76.17,54.20 L75.21,56.04 L73.95,58.08 L72.36,60.24 L70.39,62.46 L70.39,62.46 Z" fill="#ffffff" stroke="#1e1e1e" stroke-width="1" stroke-linejoin="round"/></svg>