<svg xmlns="http://www.w3.org/2000/svg" viewBox="-2.00 -2.00 100.00 100.01"><path d="M39.77,3.24 L36.06,1.86 L32.21,1.02 L28.27,0.74 L24.31,1.02 L24.64,1.43 L24.75,1.97 L24.31,9.47 L26.08,9.18 L27.88,9.06 L29.68,9.11 L31.49,9.33 L33.28,9.72 L35.04,10.29 L36.77,11.04 L38.44,11.97 L40.99,13.86 L43.20,16.13 L43.53,16.50 L45.31,18.65 L45.17,19.09 L45.15,19.11 L44.87,19.37 L40.79,23.00 L40.63,23.35 L40.76,23.72 L41.10,23.88 L47.01,24.23 L54.49,24.67 L55.02,24.56 L55.44,24.22 L55.67,23.60 L56.46,10.20 L56.33,9.83 L55.98,9.66 L55.62,9.79 L51.55,13.43 L51.55,13.45 L49.73,10.95 L47.55,8.56 L45.14,6.48 L42.53,4.70 L39.77,3.25 L39.77,3.24 Z" fill="#0078d4" stroke="#1e1e1e" stroke-width="1" stroke-linejoin="round"/><path d="M23.69,0.78 L10.30,0.00 L9.94,0.13 L9.77,0.48 L9.90,0.84 L13.53,4.93 L13.55,4.93 L11.12,6.69 L8.75,8.85 L6.68,11.23 L4.92,13.79 L3.46,16.52 L2.04,20.27 L1.17,24.18 L0.87,28.18 L1.15,32.21 L1.56,31.88 L2.10,31.77 L9.58,32.21 L9.29,30.43 L9.17,28.63 L9.22,26.82 L9.44,25.02 L9.83,23.22 L10.40,21.46 L11.14,19.73 L12.07,18.05 L13.96,15.50 L16.23,13.29 L16.62,12.94 L18.75,11.17 L19.19,11.31 L19.21,11.33 L19.47,11.61 L23.09,15.69 L23.44,15.86 L23.80,15.73 L23.97,15.39 L24.31,9.47 L24.75,1.98 L24.64,1.44 L24.31,1.02 L23.69,0.79 L23.69,0.78 Z" fill="#46a0de" stroke="#1e1e1e" stroke-width="1" stroke-linejoin="round"/><path d="M55.53,29.93 L55.58,27.01 L55.32,24.09 L54.90,24.42 L54.36,24.52 L46.89,24.09 L47.26,27.09 L55.53,29.92 L55.53,29.93 Z" fill="#155ea1" stroke="#155ea1" stroke-width="1" stroke-linejoin="round"/><path d="M19.07,51.22 L20.52,50.96 L30.36,49.13 L29.75,48.32 L29.53,47.32 L29.53,47.18 L26.59,47.16 L23.65,46.69 L20.78,45.75 L18.02,44.33 L15.47,42.44 L13.26,40.16 L12.93,39.79 L11.15,37.65 L11.29,37.20 L11.31,37.18 L11.58,36.92 L15.66,33.29 L15.83,32.94 L15.70,32.58 L15.35,32.41 L9.45,32.06 L1.97,31.63 L1.43,31.73 L1.02,32.07 L0.78,32.69 L0.00,46.11 L0.13,46.47 L0.47,46.64 L0.84,46.51 L4.91,42.87 L4.91,42.86 L6.73,45.35 L8.91,47.74 L11.32,49.83 L13.93,51.60 L16.69,53.06 L17.12,53.23 L17.35,52.52 L17.77,51.92 L18.35,51.48 L19.07,51.23 L19.07,51.22 Z" fill="#8dc8e8" stroke="#1e1e1e" stroke-width="1" stroke-linejoin="round"/><path d="M43.95,28.50 L31.83,30.75 L31.83,47.31 L43.95,49.89 L56.12,45.01 L56.12,32.66 L43.95,28.50 Z" fill="#8661c5" stroke="#1e1e1e" stroke-width="1" stroke-linejoin="round"/><path d="M31.83,30.75 L31.83,47.31 L44.08,49.90 L44.08,28.67 L31.83,30.75 L31.83,30.75 Z" fill="#56407f" stroke="#56407f" stroke-width="1" stroke-linejoin="round"/><path d="M37.00,46.03 L33.57,45.35 L33.57,32.62 L37.00,32.07 L37.00,46.04 L37.00,46.03 Z" fill="#8661c5" stroke="#8661c5" stroke-width="1" stroke-linejoin="round"/><path d="M42.34,47.01 L38.40,46.37 L38.40,31.81 L42.34,31.14 L42.34,47.01 L42.34,47.01 Z" fill="#8661c5" stroke="#8661c5" stroke-width="1" stroke-linejoin="round"/><path d="M70.19,28.71 L58.06,30.96 L58.06,47.51 L70.19,50.11 L82.31,45.18 L82.31,32.87 L70.19,28.71 Z" fill="#8661c5" stroke="#1e1e1e" stroke-width="1" stroke-linejoin="round"/><path d="M58.06,30.96 L58.06,47.52 L70.23,50.11 L70.23,28.89 L58.06,30.97 L58.06,30.96 Z" fill="#56407f" stroke="#56407f" stroke-width="1" stroke-linejoin="round"/><path d="M63.19,46.24 L59.76,45.56 L59.76,32.83 L63.19,32.28 L63.19,46.25 L63.19,46.24 Z" fill="#8661c5" stroke="#8661c5" stroke-width="1" stroke-linejoin="round"/><path d="M68.53,47.22 L64.59,46.59 L64.59,32.03 L68.53,31.31 L68.53,47.23 L68.53,47.22 Z" fill="#8661c5" stroke="#8661c5" stroke-width="1" stroke-linejoin="round"/><path d="M31.53,51.34 L19.41,53.59 L19.41,70.14 L31.53,72.74 L43.70,67.85 L43.70,55.50 L31.53,51.34 Z" fill="#8661c5" stroke="#1e1e1e" stroke-width="1" stroke-linejoin="round"/><path d="M19.37,53.59 L19.37,70.02 L31.62,72.61 L31.62,51.39 L19.37,53.59 L19.37,53.59 Z" fill="#56407f" stroke="#56407f" stroke-width="1" stroke-linejoin="round"/><path d="M24.50,68.91 L21.06,68.19 L21.06,55.46 L24.50,54.86 L24.50,68.92 L24.50,68.91 Z" fill="#8661c5" stroke="#8661c5" stroke-width="1" stroke-linejoin="round"/><path d="M29.88,70.02 L25.94,69.38 L25.94,54.65 L29.88,53.97 L29.88,70.02 L29.88,70.02 Z" fill="#8661c5" stroke="#8661c5" stroke-width="1" stroke-linejoin="round"/><path d="M57.69,51.17 L45.56,53.42 L45.56,69.97 L57.69,72.61 L69.81,67.68 L69.81,55.33 L57.69,51.17 Z" fill="#8661c5" stroke="#1e1e1e" stroke-width="1" stroke-linejoin="round"/><path d="M45.56,53.42 L45.56,70.02 L57.77,72.61 L57.77,51.38 L45.56,53.42 Z" fill="#56407f" stroke="#56407f" stroke-width="1" stroke-linejoin="round"/><path d="M50.69,68.74 L47.25,68.02 L47.25,55.29 L50.69,54.69 L50.69,68.75 L50.69,68.74 Z" fill="#8661c5" stroke="#8661c5" stroke-width="1" stroke-linejoin="round"/><path d="M56.03,69.68 L52.09,69.05 L52.09,54.49 L56.03,53.81 L56.03,69.69 L56.03,69.68 Z" fill="#8661c5" stroke="#8661c5" stroke-width="1" stroke-linejoin="round"/><path d="M83.83,51.38 L71.71,53.63 L71.71,70.19 L83.83,72.78 L96.00,67.89 L96.00,55.54 L83.83,51.38 Z" fill="#8661c5" stroke="#1e1e1e" stroke-width="1" stroke-linejoin="round"/><path d="M71.71,53.63 L71.71,70.02 L83.96,72.61 L83.96,51.39 L71.71,53.64 L71.71,53.63 Z" fill="#56407f" stroke="#56407f" stroke-width="1" stroke-linejoin="round"/><path d="M76.89,68.95 L73.45,68.23 L73.45,55.50 L76.89,54.91 L76.89,68.96 L76.89,68.95 Z" fill="#8661c5" stroke="#8661c5" stroke-width="1" stroke-linejoin="round"/><path d="M82.22,69.89 L78.28,69.25 L78.28,54.69 L82.22,54.02 L82.22,69.89 L82.22,69.89 Z" fill="#8661c5" stroke="#8661c5" stroke-width="1" stroke-linejoin="round"/><path d="M43.65,74.43 L31.53,76.64 L31.53,93.20 L43.65,95.83 L55.82,90.91 L55.82,78.59 L43.65,74.43 Z" fill="#8661c5" stroke="#1e1e1e" stroke-width="1" stroke-linejoin="round"/><path d="M31.53,76.64 L31.53,93.20 L43.78,95.83 L43.78,74.27 L31.53,76.65 L31.53,76.64 Z" fill="#56407f" stroke="#56407f" stroke-width="1" stroke-linejoin="round"/><path d="M36.70,91.97 L33.27,91.25 L33.27,78.51 L36.70,77.92 L36.70,91.97 L36.70,91.97 Z" fill="#8661c5" stroke="#8661c5" stroke-width="1" stroke-linejoin="round"/><path d="M42.04,92.94 L38.10,92.31 L38.10,77.71 L42.04,77.03 L42.04,92.95 L42.04,92.94 Z" fill="#8661c5" stroke="#8661c5" stroke-width="1" stroke-linejoin="round"/><path d="M69.85,74.60 L57.73,76.85 L57.73,93.41 L69.85,96.00 L82.01,91.12 L82.01,78.76 L69.85,74.60 Z" fill="#8661c5" stroke="#1e1e1e" stroke-width="1" stroke-linejoin="round"/><path d="M57.73,76.85 L57.73,93.41 L69.98,96.01 L69.98,74.78 L57.73,76.86 L57.73,76.85 Z" fill="#56407f" stroke="#56407f" stroke-width="1" stroke-linejoin="round"/><path d="M62.90,92.18 L59.46,91.46 L59.46,78.73 L62.90,78.13 L62.90,92.19 L62.90,92.18 Z" fill="#8661c5" stroke="#8661c5" stroke-width="1" stroke-linejoin="round"/><path d="M68.24,93.11 L64.30,92.48 L64.30,77.92 L68.24,77.24 L68.24,93.12 L68.24,93.11 Z" fill="#8661c5" stroke="#8661c5" stroke-width="1" stroke-linejoin="round"/></svg>