<svg xmlns="http://www.w3.org/2000/svg" viewBox="-2.00 -2.00 99.99 100.00"><path d="M39.76,3.24 L36.06,1.86 L32.21,1.02 L28.27,0.74 L24.31,1.02 L24.64,1.43 L24.75,1.97 L24.31,9.47 L26.08,9.18 L27.88,9.06 L29.68,9.11 L31.49,9.33 L33.28,9.72 L35.04,10.29 L36.77,11.04 L38.44,11.97 L40.99,13.86 L43.20,16.13 L43.52,16.50 L45.30,18.64 L45.17,19.09 L45.15,19.11 L44.87,19.37 L40.79,23.00 L40.63,23.35 L40.76,23.72 L41.10,23.88 L47.01,24.23 L54.48,24.67 L55.02,24.56 L55.44,24.22 L55.67,23.60 L56.46,10.20 L56.33,9.83 L55.98,9.66 L55.62,9.79 L51.54,13.43 L51.54,13.44 L49.73,10.95 L47.54,8.56 L45.13,6.47 L42.53,4.70 L39.76,3.25 L39.76,3.24 Z" fill="#0078d4" stroke="#1e1e1e" stroke-width="1" stroke-linejoin="round"/><path d="M23.68,0.78 L10.30,0.00 L9.94,0.13 L9.77,0.48 L9.90,0.84 L13.53,4.93 L13.55,4.93 L11.12,6.69 L8.75,8.85 L6.68,11.22 L4.92,13.79 L3.46,16.52 L2.04,20.27 L1.17,24.18 L0.87,28.18 L1.15,32.21 L1.56,31.87 L2.10,31.77 L9.58,32.21 L9.29,30.43 L9.17,28.63 L9.22,26.82 L9.44,25.01 L9.83,23.22 L10.40,21.45 L11.14,19.73 L12.07,18.05 L13.96,15.50 L16.23,13.28 L16.62,12.94 L18.75,11.17 L19.19,11.31 L19.21,11.33 L19.47,11.60 L23.09,15.69 L23.44,15.86 L23.80,15.73 L23.97,15.39 L24.31,9.47 L24.75,1.98 L24.64,1.44 L24.31,1.02 L23.68,0.79 L23.68,0.78 Z" fill="#46a0de" stroke="#1e1e1e" stroke-width="1" stroke-linejoin="round"/><path d="M55.52,29.92 L55.57,27.01 L55.31,24.08 L54.90,24.42 L54.36,24.52 L46.88,24.08 L47.26,27.09 L55.53,29.92 L55.52,29.92 Z" fill="#155ea1" stroke="#155ea1" stroke-width="1" stroke-linejoin="round"/><path d="M19.07,51.22 L20.52,50.96 L30.36,49.13 L29.75,48.32 L29.53,47.31 L29.53,47.18 L26.58,47.16 L23.65,46.69 L20.78,45.75 L18.01,44.32 L15.47,42.43 L13.26,40.16 L12.93,39.79 L11.15,37.65 L11.29,37.20 L11.31,37.18 L11.58,36.92 L15.66,33.29 L15.83,32.94 L15.70,32.57 L15.35,32.41 L9.45,32.06 L1.97,31.62 L1.43,31.73 L1.02,32.07 L0.78,32.69 L0.00,46.10 L0.13,46.47 L0.47,46.64 L0.84,46.51 L4.91,42.87 L4.91,42.86 L6.72,45.35 L8.91,47.74 L11.32,49.83 L13.92,51.60 L16.69,53.05 L17.12,53.23 L17.34,52.52 L17.77,51.92 L18.35,51.47 L19.07,51.22 L19.07,51.22 Z" fill="#8dc8e8" stroke="#1e1e1e" stroke-width="1" stroke-linejoin="round"/><path d="M43.95,28.49 L31.83,30.74 L31.83,47.30 L43.95,49.89 L56.11,45.01 L56.11,32.65 L43.95,28.49 Z" fill="#8661c5" stroke="#1e1e1e" stroke-width="1" stroke-linejoin="round"/><path d="M31.83,30.74 L31.83,47.30 L44.08,49.90 L44.08,28.67 L31.83,30.75 L31.83,30.74 Z" fill="#56407f" stroke="#56407f" stroke-width="1" stroke-linejoin="round"/><path d="M37.00,46.03 L33.57,45.35 L33.57,32.62 L37.00,32.07 L37.00,46.03 L37.00,46.03 Z" fill="#8661c5" stroke="#8661c5" stroke-width="1" stroke-linejoin="round"/><path d="M42.34,47.01 L38.40,46.37 L38.40,31.81 L42.34,31.13 L42.34,47.01 L42.34,47.01 Z" fill="#8661c5" stroke="#8661c5" stroke-width="1" stroke-linejoin="round"/><path d="M70.18,28.71 L58.06,30.96 L58.06,47.51 L70.18,50.10 L82.30,45.18 L82.30,32.87 L70.18,28.71 Z" fill="#8661c5" stroke="#1e1e1e" stroke-width="1" stroke-linejoin="round"/><path d="M58.06,30.96 L58.06,47.52 L70.23,50.11 L70.23,28.88 L58.06,30.96 L58.06,30.96 Z" fill="#56407f" stroke="#56407f" stroke-width="1" stroke-linejoin="round"/><path d="M63.19,46.24 L59.76,45.56 L59.76,32.82 L63.19,32.28 L63.19,46.24 L63.19,46.24 Z" fill="#8661c5" stroke="#8661c5" stroke-width="1" stroke-linejoin="round"/><path d="M68.53,47.22 L64.59,46.58 L64.59,32.02 L68.53,31.30 L68.53,47.22 L68.53,47.22 Z" fill="#8661c5" stroke="#8661c5" stroke-width="1" stroke-linejoin="round"/><path d="M31.53,51.34 L19.41,53.59 L19.41,70.14 L31.53,72.73 L43.69,67.85 L43.69,55.50 L31.53,51.34 Z" fill="#8661c5" stroke="#1e1e1e" stroke-width="1" stroke-linejoin="round"/><path d="M19.37,53.59 L19.37,70.02 L31.62,72.61 L31.62,51.38 L19.37,53.59 L19.37,53.59 Z" fill="#56407f" stroke="#56407f" stroke-width="1" stroke-linejoin="round"/><path d="M24.49,68.91 L21.06,68.19 L21.06,55.45 L24.49,54.86 L24.49,68.91 L24.49,68.91 Z" fill="#8661c5" stroke="#8661c5" stroke-width="1" stroke-linejoin="round"/><path d="M29.88,70.01 L25.93,69.38 L25.93,54.65 L29.88,53.97 L29.88,70.02 L29.88,70.01 Z" fill="#8661c5" stroke="#8661c5" stroke-width="1" stroke-linejoin="round"/><path d="M57.68,51.17 L45.56,53.42 L45.56,69.97 L57.68,72.60 L69.80,67.68 L69.80,55.32 L57.68,51.17 Z" fill="#8661c5" stroke="#1e1e1e" stroke-width="1" stroke-linejoin="round"/><path d="M45.56,53.42 L45.56,70.01 L57.77,72.60 L57.77,51.38 L45.56,53.42 Z" fill="#56407f" stroke="#56407f" stroke-width="1" stroke-linejoin="round"/><path d="M50.69,68.74 L47.25,68.02 L47.25,55.28 L50.69,54.69 L50.69,68.74 L50.69,68.74 Z" fill="#8661c5" stroke="#8661c5" stroke-width="1" stroke-linejoin="round"/><path d="M56.03,69.68 L52.09,69.04 L52.09,54.48 L56.03,53.81 L56.03,69.68 L56.03,69.68 Z" fill="#8661c5" stroke="#8661c5" stroke-width="1" stroke-linejoin="round"/><path d="M83.83,51.38 L71.71,53.63 L71.71,70.18 L83.83,72.77 L95.99,67.89 L95.99,55.54 L83.83,51.38 Z" fill="#8661c5" stroke="#1e1e1e" stroke-width="1" stroke-linejoin="round"/><path d="M71.71,53.63 L71.71,70.02 L83.96,72.61 L83.96,51.38 L71.71,53.63 L71.71,53.63 Z" fill="#56407f" stroke="#56407f" stroke-width="1" stroke-linejoin="round"/><path d="M76.88,68.95 L73.45,68.23 L73.45,55.50 L76.88,54.90 L76.88,68.96 L76.88,68.95 Z" fill="#8661c5" stroke="#8661c5" stroke-width="1" stroke-linejoin="round"/><path d="M82.22,69.88 L78.28,69.25 L78.28,54.69 L82.22,54.01 L82.22,69.89 L82.22,69.88 Z" fill="#8661c5" stroke="#8661c5" stroke-width="1" stroke-linejoin="round"/><path d="M43.65,74.43 L31.53,76.64 L31.53,93.19 L43.65,95.82 L55.82,90.90 L55.82,78.59 L43.65,74.43 Z" fill="#8661c5" stroke="#1e1e1e" stroke-width="1" stroke-linejoin="round"/><path d="M31.53,76.64 L31.53,93.19 L43.78,95.83 L43.78,74.26 L31.53,76.64 L31.53,76.64 Z" fill="#56407f" stroke="#56407f" stroke-width="1" stroke-linejoin="round"/><path d="M36.70,91.96 L33.27,91.24 L33.27,78.51 L36.70,77.92 L36.70,91.97 L36.70,91.96 Z" fill="#8661c5" stroke="#8661c5" stroke-width="1" stroke-linejoin="round"/><path d="M42.04,92.94 L38.10,92.30 L38.10,77.70 L42.04,77.03 L42.04,92.94 L42.04,92.94 Z" fill="#8661c5" stroke="#8661c5" stroke-width="1" stroke-linejoin="round"/><path d="M69.85,74.60 L57.72,76.85 L57.72,93.40 L69.85,95.99 L82.01,91.11 L82.01,78.76 L69.85,74.60 Z" fill="#8661c5" stroke="#1e1e1e" stroke-width="1" stroke-linejoin="round"/><path d="M57.72,76.85 L57.72,93.41 L69.97,96.00 L69.97,74.77 L57.72,76.85 L57.72,76.85 Z" fill="#56407f" stroke="#56407f" stroke-width="1" stroke-linejoin="round"/><path d="M62.89,92.18 L59.46,91.46 L59.46,78.72 L62.89,78.13 L62.89,92.18 L62.89,92.18 Z" fill="#8661c5" stroke="#8661c5" stroke-width="1" stroke-linejoin="round"/><path d="M68.24,93.11 L64.30,92.47 L64.30,77.92 L68.24,77.24 L68.24,93.11 L68.24,93.11 Z" fill="#8661c5" stroke="#8661c5" stroke-width="1" stroke-linejoin="round"/></svg>