<svg xmlns="http://www.w3.org/2000/svg" viewBox="0.82 0.82 100.00 100.00"><ellipse cx="50.82" cy="50.82" rx="48.00" ry="48.00" fill="#006fc5" stroke="#1e1e1e" stroke-width="1"/><path d="M43.91,60.04 L57.74,60.04 L57.74,73.86 L43.91,73.86 L43.91,60.04 Z" fill="#ffffff" stroke="#ffffff" stroke-width="1" stroke-linejoin="round"/><path d="M27.78,41.61 L41.61,41.61 L41.61,27.78 L29.71,27.78 L28.75,28.04 L28.04,28.75 L27.78,29.71 L27.78,41.61 Z" fill="#ffffff" stroke="#ffffff" stroke-width="1" stroke-linejoin="round"/><path d="M29.71,73.86 L41.61,73.86 L41.61,60.04 L27.78,60.04 L27.78,71.93 L28.04,72.90 L28.75,73.61 L29.71,73.86 L29.71,73.86 Z" fill="#ffffff" stroke="#ffffff" stroke-width="1" stroke-linejoin="round"/><path d="M27.78,57.74 L41.61,57.74 L41.61,43.91 L27.78,43.91 L27.78,57.74 Z" fill="#ffffff" stroke="#ffffff" stroke-width="1" stroke-linejoin="round"/><path d="M60.04,73.86 L71.93,73.86 L72.90,73.61 L73.61,72.90 L73.86,71.93 L73.86,60.04 L60.04,60.04 L60.04,73.86 Z" fill="#ffffff" stroke="#ffffff" stroke-width="1" stroke-linejoin="round"/><path d="M43.91,57.74 L57.74,57.74 L57.74,43.91 L43.91,43.91 L43.91,57.74 Z" fill="#ffffff" stroke="#ffffff" stroke-width="1" stroke-linejoin="round"/><path d="M60.04,57.74 L73.86,57.74 L73.86,43.91 L60.04,43.91 L60.04,57.74 Z" fill="#ffffff" stroke="#ffffff" stroke-width="1" stroke-linejoin="round"/><path d="M60.04,27.81 L60.04,41.61 L73.86,41.61 L73.86,29.71 L73.61,28.75 L72.90,28.04 L71.93,27.78 L60.04,27.81 Z" fill="#ffffff" stroke="#ffffff" stroke-width="1" stroke-linejoin="round"/><path d="M43.91,41.61 L57.74,41.61 L57.74,27.78 L43.91,27.78 L43.91,41.61 Z" fill="#ffffff" stroke="#ffffff" stroke-width="1" stroke-linejoin="round"/></svg>