<svg xmlns="http://www.w3.org/2000/svg" viewBox="0.67 0.67 94.67 94.67"><ellipse cx="48.00" cy="48.00" rx="45.33" ry="45.33" fill="#006fc5" stroke="#1e1e1e" stroke-width="1"/><path d="M41.47,56.70 L54.53,56.70 L54.53,69.76 L41.47,69.76 L41.47,56.70 Z" fill="#ffffff" stroke="#ffffff" stroke-width="1" stroke-linejoin="round"/><path d="M26.24,39.30 L39.30,39.30 L39.30,26.24 L28.06,26.24 L27.15,26.48 L26.48,27.15 L26.24,28.06 L26.24,39.30 Z" fill="#ffffff" stroke="#ffffff" stroke-width="1" stroke-linejoin="round"/><path d="M28.06,69.76 L39.30,69.76 L39.30,56.70 L26.24,56.70 L26.24,67.94 L26.48,68.85 L27.15,69.52 L28.06,69.76 L28.06,69.76 Z" fill="#ffffff" stroke="#ffffff" stroke-width="1" stroke-linejoin="round"/><path d="M26.24,54.53 L39.30,54.53 L39.30,41.47 L26.24,41.47 L26.24,54.53 Z" fill="#ffffff" stroke="#ffffff" stroke-width="1" stroke-linejoin="round"/><path d="M56.70,69.76 L67.94,69.76 L68.85,69.52 L69.52,68.85 L69.76,67.94 L69.76,56.70 L56.70,56.70 L56.70,69.76 Z" fill="#ffffff" stroke="#ffffff" stroke-width="1" stroke-linejoin="round"/><path d="M41.47,54.53 L54.53,54.53 L54.53,41.47 L41.47,41.47 L41.47,54.53 Z" fill="#ffffff" stroke="#ffffff" stroke-width="1" stroke-linejoin="round"/><path d="M56.70,54.53 L69.76,54.53 L69.76,41.47 L56.70,41.47 L56.70,54.53 Z" fill="#ffffff" stroke="#ffffff" stroke-width="1" stroke-linejoin="round"/><path d="M56.70,26.26 L56.70,39.30 L69.76,39.30 L69.76,28.06 L69.52,27.15 L68.85,26.48 L67.94,26.24 L56.70,26.26 Z" fill="#ffffff" stroke="#ffffff" stroke-width="1" stroke-linejoin="round"/><path d="M41.47,39.30 L54.53,39.30 L54.53,26.24 L41.47,26.24 L41.47,39.30 Z" fill="#ffffff" stroke="#ffffff" stroke-width="1" stroke-linejoin="round"/></svg>