<svg xmlns="http://www.w3.org/2000/svg" viewBox="0.82 0.82 100.00 100.00"><rect x="11.97" y="2.82" width="11.12" height="3.22" fill="#0078d4" stroke="#0078d4" stroke-width="1"/><path d="M93.91,6.04 L95.72,6.04 L95.72,7.79 L98.82,7.79 L98.82,2.82 L93.91,2.82 L93.91,6.04 Z" fill="#0078d4" stroke="#0078d4" stroke-width="1" stroke-linejoin="round"/><path d="M7.96,95.38 L6.38,95.38 L6.38,93.57 L2.82,93.57 L2.82,98.82 L7.96,98.82 L7.96,95.38 Z" fill="#0078d4" stroke="#0078d4" stroke-width="1" stroke-linejoin="round"/><path d="M95.72,93.74 L95.72,95.38 L93.91,95.38 L93.91,98.82 L98.82,98.82 L98.82,93.74 L95.72,93.74 Z" fill="#0078d4" stroke="#0078d4" stroke-width="1" stroke-linejoin="round"/><path d="M6.38,7.68 L6.38,6.04 L7.96,6.04 L7.96,2.82 L2.82,2.82 L2.82,7.68 L6.38,7.68 Z" fill="#0078d4" stroke="#0078d4" stroke-width="1" stroke-linejoin="round"/><path d="M67.03,20.05 L67.45,20.10 L67.85,20.27 L68.19,20.53 L68.45,20.87 L68.61,21.26 L68.67,21.68 L68.67,51.61 L68.61,52.04 L68.45,52.43 L68.19,52.77 L67.85,53.03 L67.45,53.20 L67.03,53.25 L20.67,53.25 L20.24,53.20 L19.85,53.03 L19.51,52.77 L19.25,52.43 L19.09,52.04 L19.03,51.61 L19.03,21.68 L19.09,21.26 L19.25,20.87 L19.51,20.53 L19.85,20.27 L20.24,20.10 L20.67,20.05 L67.03,20.05 Z" fill="#0078d4" stroke="#1e1e1e" stroke-width="1" stroke-linejoin="round"/><path d="M52.12,31.85 L52.12,41.51 L43.88,46.36 L43.88,36.65 L52.12,31.85 Z" fill="#50e6ff" stroke="#50e6ff" stroke-width="1" stroke-linejoin="round"/><path d="M52.12,31.85 L43.88,36.71 L35.58,31.85 L43.88,26.99 L52.12,31.85 Z" fill="#c3f1ff" stroke="#c3f1ff" stroke-width="1" stroke-linejoin="round"/><path d="M43.88,36.71 L43.88,46.36 L35.58,41.51 L35.58,31.85 L43.88,36.71 Z" fill="#9cebff" stroke="#9cebff" stroke-width="1" stroke-linejoin="round"/><path d="M81.37,38.57 L81.80,38.63 L82.19,38.79 L82.53,39.05 L82.79,39.39 L82.96,39.78 L83.01,40.21 L83.01,70.14 L82.96,70.56 L82.79,70.96 L82.53,71.29 L82.19,71.55 L81.80,71.72 L81.37,71.77 L35.01,71.77 L34.59,71.72 L34.19,71.55 L33.85,71.29 L33.59,70.96 L33.43,70.56 L33.37,70.14 L33.37,40.21 L33.43,39.78 L33.59,39.39 L33.85,39.05 L34.19,38.79 L34.59,38.63 L35.01,38.57 L81.37,38.57 Z" fill="#3990e4" stroke="#1e1e1e" stroke-width="1" stroke-linejoin="round"/><path d="M66.47,50.32 L66.47,59.97 L58.22,64.83 L58.22,55.17 L66.47,50.32 Z" fill="#50e6ff" stroke="#50e6ff" stroke-width="1" stroke-linejoin="round"/><path d="M66.47,50.32 L58.22,55.17 L49.92,50.32 L58.22,45.46 L66.47,50.32 Z" fill="#c3f1ff" stroke="#c3f1ff" stroke-width="1" stroke-linejoin="round"/><path d="M58.22,55.17 L58.22,64.83 L49.92,59.97 L49.92,50.32 L58.22,55.17 Z" fill="#9cebff" stroke="#9cebff" stroke-width="1" stroke-linejoin="round"/><path d="M49.92,59.97 L58.22,55.17 L58.22,64.83 L49.92,59.97 Z" fill="#c3f1ff" stroke="#c3f1ff" stroke-width="1" stroke-linejoin="round"/><path d="M66.47,59.97 L58.22,55.17 L58.22,64.83 L66.47,59.97 Z" fill="#9cebff" stroke="#9cebff" stroke-width="1" stroke-linejoin="round"/><path d="M68.16,81.77 L66.53,81.34 L65.29,80.67 L64.39,79.75 L63.78,78.59 L63.39,77.20 L63.18,75.58 L63.08,71.72 L53.31,71.72 L53.23,75.56 L53.04,77.17 L52.67,78.56 L52.07,79.73 L51.16,80.66 L49.90,81.34 L48.23,81.77 L47.00,82.27 L46.13,83.26 L45.80,84.54 L70.64,84.54 L70.30,83.25 L69.40,82.25 L68.16,81.77 L68.16,81.77 Z" fill="#a6a6a6" stroke="#1e1e1e" stroke-width="1" stroke-linejoin="round"/><rect x="28.63" y="2.82" width="11.12" height="3.22" fill="#0078d4" stroke="#0078d4" stroke-width="1"/><rect x="45.23" y="2.82" width="11.12" height="3.22" fill="#0078d4" stroke="#0078d4" stroke-width="1"/><rect x="61.89" y="2.82" width="11.12" height="3.22" fill="#0078d4" stroke="#0078d4" stroke-width="1"/><rect x="78.55" y="2.82" width="11.12" height="3.22" fill="#0078d4" stroke="#0078d4" stroke-width="1"/><rect x="12.08" y="95.38" width="11.12" height="3.22" fill="#0078d4" stroke="#0078d4" stroke-width="1"/><rect x="28.69" y="95.38" width="11.12" height="3.22" fill="#0078d4" stroke="#0078d4" stroke-width="1"/><rect x="45.35" y="95.38" width="11.12" height="3.22" fill="#0078d4" stroke="#0078d4" stroke-width="1"/><rect x="62.00" y="95.38" width="11.12" height="3.22" fill="#0078d4" stroke="#0078d4" stroke-width="1"/><rect x="78.61" y="95.38" width="11.12" height="3.22" fill="#0078d4" stroke="#0078d4" stroke-width="1"/><rect x="95.60" y="11.58" width="3.22" height="11.12" fill="#0078d4" stroke="#0078d4" stroke-width="1"/><rect x="95.60" y="28.18" width="3.22" height="11.12" fill="#0078d4" stroke="#0078d4" stroke-width="1"/><rect x="95.60" y="44.84" width="3.22" height="11.12" fill="#0078d4" stroke="#0078d4" stroke-width="1"/><rect x="95.60" y="61.44" width="3.22" height="11.12" fill="#0078d4" stroke="#0078d4" stroke-width="1"/><rect x="95.60" y="78.10" width="3.22" height="11.12" fill="#0078d4" stroke="#0078d4" stroke-width="1"/><rect x="2.82" y="11.46" width="3.22" height="11.12" fill="#0078d4" stroke="#0078d4" stroke-width="1"/><rect x="2.82" y="28.12" width="3.22" height="11.12" fill="#0078d4" stroke="#0078d4" stroke-width="1"/><rect x="2.82" y="44.72" width="3.22" height="11.12" fill="#0078d4" stroke="#0078d4" stroke-width="1"/><rect x="2.82" y="61.38" width="3.22" height="11.12" fill="#0078d4" stroke="#0078d4" stroke-width="1"/><rect x="2.82" y="77.99" width="3.22" height="11.12" fill="#0078d4" stroke="#0078d4" stroke-width="1"/></svg>