<svg xmlns="http://www.w3.org/2000/svg" viewBox="0.67 0.67 94.67 94.67"><rect x="11.31" y="2.67" width="10.51" height="3.04" fill="#0078d4" stroke="#0078d4" stroke-width="1"/><path d="M88.69,5.71 L90.40,5.71 L90.40,7.36 L93.33,7.36 L93.33,2.67 L88.69,2.67 L88.69,5.71 Z" fill="#0078d4" stroke="#0078d4" stroke-width="1" stroke-linejoin="round"/><path d="M7.52,90.08 L6.03,90.08 L6.03,88.37 L2.67,88.37 L2.67,93.33 L7.52,93.33 L7.52,90.08 Z" fill="#0078d4" stroke="#0078d4" stroke-width="1" stroke-linejoin="round"/><path d="M90.40,88.53 L90.40,90.08 L88.69,90.08 L88.69,93.33 L93.33,93.33 L93.33,88.53 L90.40,88.53 Z" fill="#0078d4" stroke="#0078d4" stroke-width="1" stroke-linejoin="round"/><path d="M6.03,7.25 L6.03,5.71 L7.52,5.71 L7.52,2.67 L2.67,2.67 L2.67,7.25 L6.03,7.25 Z" fill="#0078d4" stroke="#0078d4" stroke-width="1" stroke-linejoin="round"/><rect x="17.97" y="18.93" width="46.88" height="31.36" fill="#0078d4" stroke="#1e1e1e" stroke-width="1"/><path d="M49.23,30.08 L49.23,39.20 L41.44,43.79 L41.44,34.61 L49.23,30.08 Z" fill="#50e6ff" stroke="#50e6ff" stroke-width="1" stroke-linejoin="round"/><path d="M49.23,30.08 L41.44,34.67 L33.60,30.08 L41.44,25.49 L49.23,30.08 Z" fill="#c3f1ff" stroke="#c3f1ff" stroke-width="1" stroke-linejoin="round"/><path d="M41.44,34.67 L41.44,43.79 L33.60,39.20 L33.60,30.08 L41.44,34.67 Z" fill="#9cebff" stroke="#9cebff" stroke-width="1" stroke-linejoin="round"/><rect x="31.52" y="36.43" width="46.88" height="31.36" fill="#3990e4" stroke="#1e1e1e" stroke-width="1"/><path d="M62.77,47.52 L62.77,56.64 L54.99,61.23 L54.99,52.11 L62.77,47.52 Z" fill="#50e6ff" stroke="#50e6ff" stroke-width="1" stroke-linejoin="round"/><path d="M62.77,47.52 L54.99,52.11 L47.15,47.52 L54.99,42.93 L62.77,47.52 Z" fill="#c3f1ff" stroke="#c3f1ff" stroke-width="1" stroke-linejoin="round"/><path d="M54.99,52.11 L54.99,61.23 L47.15,56.64 L47.15,47.52 L54.99,52.11 Z" fill="#9cebff" stroke="#9cebff" stroke-width="1" stroke-linejoin="round"/><path d="M47.15,56.64 L54.99,52.11 L54.99,61.23 L47.15,56.64 Z" fill="#c3f1ff" stroke="#c3f1ff" stroke-width="1" stroke-linejoin="round"/><path d="M62.77,56.64 L54.99,52.11 L54.99,61.23 L62.77,56.64 Z" fill="#9cebff" stroke="#9cebff" stroke-width="1" stroke-linejoin="round"/><path d="M64.37,77.23 L62.83,76.83 L61.67,76.19 L60.82,75.32 L60.23,74.22 L59.87,72.91 L59.67,71.38 L59.57,67.73 L50.35,67.73 L50.27,71.36 L50.09,72.88 L49.75,74.20 L49.17,75.30 L48.32,76.18 L47.13,76.82 L45.55,77.23 L44.39,77.70 L43.57,78.64 L43.25,79.84 L66.72,79.84 L66.39,78.62 L65.55,77.68 L64.37,77.23 L64.37,77.23 Z" fill="#a6a6a6" stroke="#a6a6a6" stroke-width="1" stroke-linejoin="round"/><rect x="27.04" y="2.67" width="10.51" height="3.04" fill="#0078d4" stroke="#0078d4" stroke-width="1"/><rect x="42.72" y="2.67" width="10.51" height="3.04" fill="#0078d4" stroke="#0078d4" stroke-width="1"/><rect x="58.45" y="2.67" width="10.51" height="3.04" fill="#0078d4" stroke="#0078d4" stroke-width="1"/><rect x="74.19" y="2.67" width="10.51" height="3.04" fill="#0078d4" stroke="#0078d4" stroke-width="1"/><rect x="11.41" y="90.08" width="10.51" height="3.04" fill="#0078d4" stroke="#0078d4" stroke-width="1"/><rect x="27.09" y="90.08" width="10.51" height="3.04" fill="#0078d4" stroke="#0078d4" stroke-width="1"/><rect x="42.83" y="90.08" width="10.51" height="3.04" fill="#0078d4" stroke="#0078d4" stroke-width="1"/><rect x="58.56" y="90.08" width="10.51" height="3.04" fill="#0078d4" stroke="#0078d4" stroke-width="1"/><rect x="74.24" y="90.08" width="10.51" height="3.04" fill="#0078d4" stroke="#0078d4" stroke-width="1"/><rect x="90.29" y="10.93" width="3.04" height="10.51" fill="#0078d4" stroke="#0078d4" stroke-width="1"/><rect x="90.29" y="26.61" width="3.04" height="10.51" fill="#0078d4" stroke="#0078d4" stroke-width="1"/><rect x="90.29" y="42.35" width="3.04" height="10.51" fill="#0078d4" stroke="#0078d4" stroke-width="1"/><rect x="90.29" y="58.03" width="3.04" height="10.51" fill="#0078d4" stroke="#0078d4" stroke-width="1"/><rect x="90.29" y="73.76" width="3.04" height="10.51" fill="#0078d4" stroke="#0078d4" stroke-width="1"/><rect x="2.67" y="10.83" width="3.04" height="10.51" fill="#0078d4" stroke="#0078d4" stroke-width="1"/><rect x="2.67" y="26.56" width="3.04" height="10.51" fill="#0078d4" stroke="#0078d4" stroke-width="1"/><rect x="2.67" y="42.24" width="3.04" height="10.51" fill="#0078d4" stroke="#0078d4" stroke-width="1"/><rect x="2.67" y="57.97" width="3.04" height="10.51" fill="#0078d4" stroke="#0078d4" stroke-width="1"/><rect x="2.67" y="73.65" width="3.04" height="10.51" fill="#0078d4" stroke="#0078d4" stroke-width="1"/></svg>