<svg xmlns="http://www.w3.org/2000/svg" viewBox="-2.00 2.26 100.00 92.73"><path d="M92.79,4.26 L93.62,4.37 L94.40,4.69 L95.06,5.19 L95.57,5.86 L95.89,6.63 L96.00,7.46 L96.00,65.05 L95.89,65.88 L95.57,66.65 L95.06,67.32 L94.40,67.83 L93.62,68.15 L92.79,68.26 L3.21,68.26 L2.38,68.15 L1.60,67.83 L0.94,67.32 L0.43,66.65 L0.11,65.88 L0.00,65.05 L0.00,7.46 L0.11,6.63 L0.43,5.86 L0.94,5.19 L1.60,4.69 L2.38,4.37 L3.21,4.26 L92.79,4.26 Z" fill="#80cc31" stroke="#1e1e1e" stroke-width="1" stroke-linejoin="round"/><path d="M64.00,26.95 L48.00,36.30 L32.00,26.94 L48.00,17.59 L64.00,26.95 Z" fill="#ffffff" stroke="#1e1e1e" stroke-width="1" stroke-linejoin="round"/><path d="M32.00,26.94 L32.00,45.57 L47.98,36.29 L32.00,26.94 Z" fill="#ffffff" stroke="#ffffff" stroke-width="1" stroke-linejoin="round" opacity="0.8"/><path d="M31.99,45.56 L47.99,54.92 L47.99,36.29 L47.97,36.28 L31.99,45.56 Z" fill="#ffffff" stroke="#ffffff" stroke-width="1" stroke-linejoin="round"/><path d="M48.00,36.28 L64.00,45.57 L64.00,26.95 L48.00,36.28 Z" fill="#ffffff" stroke="#ffffff" stroke-width="1" stroke-linejoin="round" opacity="0.6"/><path d="M48.00,54.92 L64.00,45.57 L48.00,36.28 L48.00,54.92 Z" fill="#ffffff" stroke="#ffffff" stroke-width="1" stroke-linejoin="round" opacity="0.8"/><path d="M67.24,87.62 L65.56,87.28 L64.09,86.81 L62.80,86.22 L61.69,85.52 L60.74,84.69 L59.95,83.75 L59.28,82.69 L58.75,81.52 L58.00,78.84 L57.59,75.73 L57.43,72.19 L57.40,68.26 L38.57,68.26 L38.54,72.19 L38.37,75.73 L37.96,78.84 L37.21,81.52 L36.68,82.69 L36.02,83.75 L35.22,84.69 L34.28,85.52 L33.17,86.22 L31.88,86.81 L30.41,87.28 L28.74,87.62 L26.91,88.24 L25.40,89.44 L24.39,91.09 L24.00,92.98 L72.00,92.98 L71.60,91.09 L70.59,89.44 L69.07,88.23 L67.24,87.62 Z" fill="#a6a6a6" stroke="#1e1e1e" stroke-width="1" stroke-linejoin="round"/></svg>