<svg xmlns="http://www.w3.org/2000/svg" viewBox="-0.25 -1.33 96.49 98.67"><path d="M77.09,63.81 L76.34,61.85 L75.44,59.96 L73.24,56.44 L70.54,53.32 L67.41,50.64 L65.69,49.48 L63.88,48.46 L61.99,47.57 L60.02,46.83 L57.98,46.25 L55.88,45.82 L53.72,45.56 L51.51,45.47 L49.21,45.57 L46.95,45.86 L46.93,45.86 L43.34,46.73 L39.95,48.07 L36.80,49.84 L33.93,51.99 L31.37,54.51 L29.17,57.34 L27.35,60.45 L25.95,63.81 L25.96,63.81 L18.10,86.79 L17.31,88.63 L16.25,90.29 L14.97,91.75 L13.49,92.98 L11.84,93.98 L10.04,94.72 L8.13,95.18 L6.14,95.34 L80.49,95.34 L82.29,95.15 L84.00,94.59 L85.55,93.69 L86.89,92.47 L77.09,63.81 L77.09,63.81 L77.09,63.81 Z" fill="#ffffff" stroke="#1e1e1e" stroke-width="1" stroke-linejoin="round"/><path d="M94.19,73.88 L93.72,69.88 L93.16,67.31 L92.42,64.87 L91.54,62.54 L90.52,60.33 L88.17,56.17 L85.54,52.29 L83.55,49.58 L80.57,45.61 L77.81,41.64 L75.47,37.53 L74.38,35.02 L73.55,32.40 L73.03,29.63 L72.84,26.70 L73.01,23.87 L73.49,21.25 L74.21,18.85 L75.11,16.66 L76.14,14.69 L77.23,12.96 L79.38,10.22 L80.73,8.81 L81.24,8.33 L81.83,7.82 L67.02,7.82 L64.54,7.94 L62.12,8.31 L59.79,8.91 L57.56,9.73 L55.43,10.75 L53.43,11.97 L51.56,13.37 L49.83,14.94 L48.26,16.66 L46.86,18.54 L45.64,20.54 L44.62,22.67 L43.80,24.90 L43.20,27.23 L42.83,29.65 L42.71,32.13 L42.99,35.86 L43.81,39.40 L45.13,42.73 L46.91,45.80 L46.94,45.85 L49.20,45.56 L51.50,45.46 L53.71,45.54 L55.87,45.81 L57.97,46.24 L60.01,46.82 L61.98,47.56 L63.87,48.45 L65.68,49.47 L67.39,50.63 L70.53,53.31 L73.23,56.43 L75.43,59.95 L76.33,61.83 L77.08,63.80 L77.08,63.80 L86.87,92.45 L89.35,89.58 L90.59,87.82 L91.74,85.84 L92.74,83.66 L93.53,81.29 L94.05,78.73 L94.24,75.99 L94.18,73.87 L94.19,73.88 Z" fill="#036cc0" stroke="#1e1e1e" stroke-width="1" stroke-linejoin="round"/><path d="M28.49,17.10 L28.50,17.10 L29.99,13.66 L31.70,10.88 L33.76,8.37 L36.13,6.15 L38.78,4.26 L41.67,2.74 L44.78,1.61 L48.08,0.91 L51.51,0.67 L53.85,0.78 L56.12,1.10 L58.32,1.63 L60.43,2.35 L62.46,3.26 L64.38,4.34 L66.18,5.58 L67.87,6.98 L68.80,7.83 L67.03,7.83 L64.55,7.95 L62.13,8.32 L59.80,8.92 L57.57,9.74 L55.44,10.76 L53.44,11.98 L51.57,13.38 L49.84,14.95 L48.27,16.68 L46.87,18.55 L45.65,20.55 L44.63,22.68 L43.81,24.91 L43.21,27.24 L42.85,29.66 L42.72,32.14 L43.00,35.87 L43.83,39.41 L45.15,42.74 L46.92,45.81 L46.95,45.86 L46.93,45.86 L43.34,46.73 L39.95,48.07 L36.80,49.84 L33.93,51.99 L31.37,54.51 L29.17,57.34 L27.35,60.45 L25.95,63.81 L25.96,63.81 L18.10,86.79 L17.31,88.63 L16.25,90.29 L14.97,91.75 L13.49,92.98 L11.84,93.98 L10.04,94.72 L8.13,95.18 L6.14,95.34 L1.75,95.34 L2.07,94.39 L3.16,91.23 L3.96,88.87 L28.49,17.10 Z" fill="#28a9e8" stroke="#1e1e1e" stroke-width="1" stroke-linejoin="round"/></svg>