<svg xmlns="http://www.w3.org/2000/svg" viewBox="-2.00 -2.00 100.00 100.00"><path d="M41.89,13.47 L38.65,13.47 L37.51,13.17 L36.67,12.34 L36.35,11.20 L36.35,2.30 L36.66,1.15 L37.50,0.31 L38.65,-0.00 L41.89,0.00 L43.04,0.31 L43.88,1.15 L44.19,2.30 L44.19,11.20 L43.87,12.34 L43.03,13.17 L41.89,13.47 L41.89,13.47 Z" fill="#773adc" stroke="#773adc" stroke-width="1" stroke-linejoin="round"/><path d="M58.55,11.20 L58.55,2.30 L58.25,1.15 L57.41,0.31 L56.26,-0.00 L53.02,0.00 L51.87,0.31 L51.03,1.15 L50.72,2.30 L50.72,11.20 L51.03,12.35 L51.87,13.19 L53.02,13.50 L56.26,13.50 L57.41,13.19 L58.25,12.35 L58.55,11.20 Z" fill="#773adc" stroke="#773adc" stroke-width="1" stroke-linejoin="round"/><path d="M44.19,93.93 L44.19,87.14 L43.91,86.11 L43.16,85.35 L42.13,85.07 L38.40,85.07 L37.37,85.34 L36.61,86.10 L36.33,87.14 L36.33,93.93 L36.61,94.97 L37.37,95.72 L38.40,96.00 L42.13,96.00 L43.16,95.72 L43.91,94.96 L44.19,93.93 L44.19,93.93 Z" fill="#773adc" stroke="#773adc" stroke-width="1" stroke-linejoin="round"/><path d="M58.55,93.93 L58.55,87.14 L58.28,86.10 L57.52,85.34 L56.49,85.07 L52.80,85.07 L51.77,85.34 L51.01,86.10 L50.73,87.14 L50.73,93.93 L51.01,94.97 L51.77,95.72 L52.80,96.00 L56.50,96.00 L57.53,95.72 L58.28,94.96 L58.55,93.93 Z" fill="#773adc" stroke="#773adc" stroke-width="1" stroke-linejoin="round"/><path d="M84.15,45.32 L93.63,45.32 L94.82,45.00 L95.68,44.13 L96.00,42.95 L96.00,39.79 L95.68,38.60 L94.81,37.73 L93.63,37.41 L84.15,37.41 L82.96,37.73 L82.09,38.60 L81.78,39.79 L81.78,42.95 L82.09,44.14 L82.96,45.01 L84.15,45.33 L84.15,45.32 Z" fill="#773adc" stroke="#773adc" stroke-width="1" stroke-linejoin="round"/><path d="M84.15,59.82 L93.63,59.82 L94.82,59.50 L95.68,58.64 L96.00,57.45 L96.00,54.28 L95.68,53.10 L94.81,52.23 L93.63,51.91 L84.15,51.91 L82.96,52.23 L82.09,53.10 L81.78,54.28 L81.78,57.45 L82.09,58.64 L82.96,59.51 L84.15,59.82 L84.15,59.82 Z" fill="#773adc" stroke="#773adc" stroke-width="1" stroke-linejoin="round"/><path d="M2.05,45.33 L8.61,45.33 L9.64,45.06 L10.40,44.30 L10.67,43.27 L10.67,39.47 L10.39,38.44 L9.64,37.69 L8.61,37.41 L2.05,37.41 L1.03,37.69 L0.28,38.44 L-0.00,39.47 L0.00,43.27 L0.27,44.30 L1.02,45.06 L2.05,45.33 L2.05,45.33 Z" fill="#773adc" stroke="#773adc" stroke-width="1" stroke-linejoin="round"/><path d="M2.05,59.83 L8.61,59.83 L9.64,59.56 L10.40,58.80 L10.67,57.77 L10.67,53.97 L10.39,52.94 L9.64,52.19 L8.61,51.91 L2.05,51.91 L1.03,52.19 L0.28,52.94 L0.00,53.97 L0.00,57.77 L0.28,58.80 L1.03,59.55 L2.05,59.82 L2.05,59.83 Z" fill="#773adc" stroke="#773adc" stroke-width="1" stroke-linejoin="round"/><path d="M80.97,10.06 L82.18,10.22 L83.31,10.69 L84.28,11.44 L85.03,12.41 L85.50,13.54 L85.66,14.76 L85.66,82.48 L85.50,83.69 L85.03,84.83 L84.28,85.80 L83.31,86.54 L82.18,87.01 L80.97,87.17 L13.94,87.17 L12.73,87.01 L11.59,86.54 L10.62,85.80 L9.88,84.83 L9.41,83.69 L9.25,82.48 L9.25,14.76 L9.41,13.54 L9.88,12.41 L10.62,11.44 L11.59,10.69 L12.73,10.22 L13.94,10.06 L80.97,10.06 Z" fill="#8e5ae8" stroke="#1e1e1e" stroke-width="1" stroke-linejoin="round"/><path d="M64.52,38.39 L64.52,57.61 L48.02,67.26 L48.02,48.00 L64.52,38.39 Z" fill="#50e6ff" stroke="#1e1e1e" stroke-width="1" stroke-linejoin="round"/><path d="M64.52,38.39 L48.02,48.04 L31.48,38.39 L48.02,28.74 L64.52,38.39 Z" fill="#c3f1ff" stroke="#1e1e1e" stroke-width="1" stroke-linejoin="round"/><path d="M48.02,48.04 L48.02,67.26 L31.48,57.61 L31.48,38.39 L48.02,48.04 Z" fill="#9cebff" stroke="#1e1e1e" stroke-width="1" stroke-linejoin="round"/><path d="M31.48,57.61 L48.02,48.00 L48.02,67.26 L31.48,57.61 Z" fill="#c3f1ff" stroke="#1e1e1e" stroke-width="1" stroke-linejoin="round"/><path d="M64.52,57.61 L48.02,48.00 L48.02,67.26 L64.52,57.61 Z" fill="#9cebff" stroke="#1e1e1e" stroke-width="1" stroke-linejoin="round"/></svg>