<svg xmlns="http://www.w3.org/2000/svg" viewBox="7.43 -1.14 81.14 98.27"><path d="M86.57,44.89 L86.48,47.25 L86.22,49.58 L85.24,54.14 L83.70,58.55 L81.68,62.79 L79.26,66.85 L76.52,70.72 L73.55,74.36 L70.42,77.78 L67.21,80.95 L64.00,83.85 L57.91,88.80 L52.78,92.48 L49.27,94.77 L48.00,95.14 L46.73,94.77 L43.22,92.48 L38.09,88.80 L32.00,83.86 L28.79,80.95 L25.58,77.79 L22.45,74.37 L19.48,70.72 L16.74,66.86 L14.32,62.79 L12.30,58.55 L10.76,54.14 L9.78,49.58 L9.52,47.25 L9.43,44.89 L9.43,14.40 L9.75,13.21 L10.61,12.33 L11.80,11.98 L15.93,11.75 L19.46,11.32 L22.46,10.71 L25.00,9.97 L27.16,9.11 L29.01,8.17 L32.14,6.18 L34.98,4.21 L36.49,3.31 L38.16,2.51 L40.07,1.83 L42.29,1.31 L44.91,0.98 L48.00,0.86 L51.09,0.98 L53.71,1.31 L55.93,1.83 L57.84,2.51 L59.51,3.31 L61.02,4.21 L63.86,6.17 L66.99,8.17 L68.84,9.11 L71.00,9.96 L73.54,10.70 L76.54,11.31 L80.07,11.74 L84.20,11.97 L85.39,12.31 L86.25,13.19 L86.57,14.38 L86.57,44.89 Z" fill="#1b93eb" stroke="#1e1e1e" stroke-width="1" stroke-linejoin="round"/><path d="M83.37,45.14 L83.29,47.31 L83.05,49.44 L82.15,53.63 L80.74,57.67 L78.89,61.56 L76.67,65.29 L74.16,68.83 L71.43,72.18 L68.56,75.31 L65.61,78.22 L62.67,80.88 L57.09,85.41 L52.39,88.79 L49.16,90.90 L48.00,91.23 L46.84,90.90 L43.61,88.79 L38.91,85.41 L33.33,80.88 L30.39,78.22 L27.44,75.31 L24.57,72.18 L21.84,68.83 L19.33,65.29 L17.11,61.56 L15.26,57.67 L13.85,53.63 L12.95,49.44 L12.71,47.31 L12.63,45.14 L12.63,17.17 L12.91,16.07 L13.71,15.25 L14.80,14.93 L18.59,14.73 L21.83,14.33 L24.57,13.79 L26.90,13.11 L28.88,12.33 L30.59,11.48 L33.45,9.65 L36.06,7.86 L37.44,7.04 L38.98,6.30 L40.73,5.69 L42.77,5.21 L45.17,4.91 L48.00,4.80 L50.83,4.91 L53.23,5.21 L55.27,5.69 L57.02,6.31 L58.56,7.04 L59.94,7.87 L62.55,9.67 L65.41,11.50 L67.12,12.36 L69.10,13.15 L71.43,13.83 L74.17,14.38 L77.41,14.77 L81.20,14.98 L82.29,15.30 L83.08,16.11 L83.37,17.20 L83.37,45.14 Z" fill="#43a6ee" stroke="#1e1e1e" stroke-width="1" stroke-linejoin="round"/><path d="M58.57,25.29 L54.68,23.69 L54.27,23.41 L54.01,22.99 L51.62,16.37 L51.18,15.79 L50.49,15.57 L45.48,15.57 L44.76,15.82 L44.33,16.44 L42.45,22.93 L42.19,23.40 L41.75,23.71 L38.30,25.07 L37.82,25.17 L37.33,25.07 L30.74,21.92 L30.02,21.82 L29.38,22.15 L25.83,25.66 L25.50,26.31 L25.59,27.02 L28.76,33.81 L28.86,34.24 L28.80,34.67 L27.61,38.40 L27.31,38.88 L26.83,39.18 L20.26,41.31 L19.66,41.75 L19.42,42.45 L19.42,47.63 L19.67,48.35 L20.29,48.78 L26.75,50.65 L27.23,50.92 L27.54,51.37 L28.77,54.62 L28.84,55.09 L28.73,55.55 L25.77,61.95 L25.68,62.66 L26.00,63.30 L29.57,66.93 L30.23,67.28 L30.96,67.17 L31.13,67.08 L37.14,64.00 L37.63,63.87 L38.13,63.96 L41.60,65.36 L42.02,65.64 L42.28,66.06 L44.67,72.67 L45.11,73.24 L45.80,73.46 L50.52,73.46 L51.24,73.22 L51.67,72.59 L53.55,66.12 L53.81,65.65 L54.25,65.34 L57.70,63.95 L58.18,63.86 L58.66,63.97 L64.94,66.91 L65.66,67.01 L66.30,66.68 L69.63,63.34 L69.97,62.66 L69.83,61.91 L69.83,61.91 L69.77,61.78 L67.20,55.43 L67.11,54.98 L67.20,54.53 L68.63,51.00 L68.91,50.58 L69.33,50.32 L75.77,47.94 L76.33,47.50 L76.55,46.82 L76.55,42.09 L76.30,41.36 L75.67,40.93 L69.27,39.16 L68.76,38.87 L68.45,38.38 L67.20,34.59 L67.14,34.14 L67.25,33.70 L70.22,27.30 L70.31,26.59 L69.98,25.95 L66.74,22.70 L65.95,22.29 L65.07,22.40 L58.57,25.29 Z" fill="#f2f2f2" stroke="#1e1e1e" stroke-width="1" stroke-linejoin="round"/><path d="M64.06,52.36 L63.63,49.95 L62.51,47.76 L60.81,46.00 L58.67,44.80 L59.97,43.49 L60.61,41.76 L60.48,39.92 L59.60,38.30 L58.13,37.19 L56.33,36.79 L54.52,37.16 L53.04,38.25 L52.13,39.86 L51.97,41.70 L52.59,43.43 L53.87,44.76 L51.66,45.90 L49.93,47.67 L48.85,49.90 L48.53,52.36 L48.84,53.38 L49.77,53.89 L49.91,53.89 L62.71,53.89 L63.69,53.48 L64.10,52.51 L64.08,52.43 L64.06,52.36 Z" fill="#198ab3" stroke="#198ab3" stroke-width="1" stroke-linejoin="round"/><path d="M53.87,56.53 L54.90,56.26 L55.66,55.51 L55.94,54.47 L55.94,54.23 L55.54,51.21 L54.39,48.39 L52.55,45.97 L50.16,44.09 L47.36,42.89 L44.35,42.44 L41.81,42.65 L39.60,43.26 L37.70,44.25 L36.11,45.60 L34.82,47.29 L33.83,49.31 L33.14,51.64 L32.73,54.25 L32.90,55.31 L33.57,56.14 L34.58,56.52 L34.78,56.52 L53.87,56.53 Z" fill="#30d0f2" stroke="#1e1e1e" stroke-width="1" stroke-linejoin="round"/><path d="M44.46,44.01 L42.62,43.73 L40.93,42.94 L44.42,52.06 L47.89,43.00 L46.25,43.74 L44.46,44.01 L44.46,44.01 Z" fill="#ffffff" stroke="#ffffff" stroke-width="1" stroke-linejoin="round" opacity="0.8"/><ellipse cx="44.41" cy="37.49" rx="6.52" ry="6.52" fill="#30d0f2" stroke="#30d0f2" stroke-width="1"/></svg>