<svg xmlns="http://www.w3.org/2000/svg" viewBox="-0.23 -1.32 97.79 100.00"><path d="M78.17,64.70 L77.41,62.71 L76.50,60.80 L74.27,57.24 L71.53,54.07 L68.35,51.35 L66.61,50.18 L64.77,49.14 L62.86,48.24 L60.86,47.49 L58.79,46.89 L56.66,46.46 L54.47,46.19 L52.24,46.10 L49.90,46.20 L47.61,46.50 L47.59,46.50 L43.95,47.39 L40.51,48.75 L37.32,50.54 L34.41,52.72 L31.81,55.27 L29.58,58.14 L27.73,61.30 L26.32,64.71 L26.32,64.71 L18.36,88.01 L17.55,89.87 L16.48,91.55 L15.18,93.03 L13.68,94.29 L12.00,95.30 L10.18,96.05 L8.25,96.52 L6.22,96.68 L81.62,96.68 L83.45,96.48 L85.17,95.91 L86.75,95.00 L88.10,93.77 L78.17,64.71 L78.17,64.71 L78.17,64.70 Z" fill="#ffffff" stroke="#1e1e1e" stroke-width="1" stroke-linejoin="round"/><path d="M95.51,74.91 L95.03,70.86 L94.46,68.25 L93.72,65.78 L92.82,63.42 L91.79,61.18 L89.41,56.96 L86.74,53.02 L84.72,50.27 L81.70,46.25 L78.90,42.22 L76.53,38.06 L75.43,35.51 L74.59,32.85 L74.05,30.05 L73.86,27.07 L74.04,24.21 L74.52,21.55 L75.25,19.11 L76.16,16.89 L77.21,14.90 L78.32,13.14 L80.49,10.36 L81.86,8.93 L82.38,8.44 L82.98,7.93 L67.96,7.93 L65.44,8.06 L62.99,8.43 L60.63,9.04 L58.37,9.87 L56.21,10.90 L54.18,12.14 L52.28,13.56 L50.53,15.15 L48.94,16.90 L47.52,18.80 L46.28,20.83 L45.25,22.98 L44.42,25.25 L43.81,27.61 L43.44,30.06 L43.31,32.58 L43.60,36.36 L44.43,39.96 L45.77,43.33 L47.57,46.44 L47.60,46.49 L49.89,46.20 L52.23,46.09 L54.46,46.18 L56.65,46.45 L58.78,46.88 L60.85,47.48 L62.85,48.23 L64.76,49.13 L66.60,50.17 L68.34,51.34 L71.52,54.06 L74.26,57.23 L76.49,60.79 L77.40,62.70 L78.16,64.69 L78.16,64.69 L88.09,93.75 L90.61,90.84 L91.86,89.05 L93.02,87.04 L94.04,84.83 L94.84,82.43 L95.37,79.83 L95.56,77.06 L95.50,74.90 L95.51,74.91 Z" fill="#036cc0" stroke="#1e1e1e" stroke-width="1" stroke-linejoin="round"/><path d="M28.88,17.34 L28.90,17.34 L30.41,13.85 L32.15,11.03 L34.23,8.49 L36.64,6.24 L39.32,4.32 L42.26,2.78 L45.41,1.63 L48.75,0.92 L52.24,0.68 L54.60,0.79 L56.91,1.12 L59.14,1.65 L61.28,2.38 L63.33,3.30 L65.28,4.40 L67.11,5.66 L68.82,7.08 L69.77,7.94 L67.97,7.94 L65.45,8.07 L63.01,8.44 L60.64,9.05 L58.38,9.88 L56.22,10.91 L54.19,12.15 L52.29,13.57 L50.54,15.16 L48.95,16.91 L47.53,18.81 L46.29,20.84 L45.26,23.00 L44.43,25.26 L43.82,27.62 L43.45,30.07 L43.32,32.59 L43.61,36.37 L44.44,39.97 L45.78,43.34 L47.58,46.45 L47.61,46.50 L47.59,46.50 L43.95,47.39 L40.51,48.75 L37.32,50.54 L34.41,52.72 L31.81,55.27 L29.58,58.14 L27.73,61.30 L26.32,64.71 L26.32,64.71 L18.36,88.01 L17.55,89.87 L16.48,91.55 L15.18,93.03 L13.68,94.29 L12.00,95.30 L10.18,96.05 L8.25,96.52 L6.22,96.68 L1.77,96.68 L2.10,95.71 L3.20,92.51 L4.02,90.12 L28.88,17.34 Z" fill="#28a9e8" stroke="#1e1e1e" stroke-width="1" stroke-linejoin="round"/></svg>