<svg xmlns="http://www.w3.org/2000/svg" viewBox="0.82 0.82 100.00 100.00"><ellipse cx="50.82" cy="50.82" rx="48.00" ry="48.00" fill="#1b91b9" stroke="#1e1e1e" stroke-width="1"/><ellipse cx="50.82" cy="50.82" rx="41.34" ry="41.34" fill="#005ba1" stroke="#1e1e1e" stroke-width="1"/><path d="M51.39,56.11 L35.38,40.24 L34.11,39.51 L32.65,39.51 L31.38,40.24 L29.36,42.24 L28.77,43.11 L28.56,44.14 L28.76,45.18 L29.35,46.06 L41.39,58.04 L29.09,70.26 L28.38,71.46 L28.38,72.86 L29.09,74.07 L31.13,76.08 L32.40,76.80 L33.86,76.80 L35.14,76.08 L51.39,59.93 L51.98,59.05 L52.18,58.02 L51.98,56.99 L51.39,56.11 L51.39,56.11 Z" fill="#f2f2f2" stroke="#1e1e1e" stroke-width="1" stroke-linejoin="round"/><path d="M49.44,43.36 L49.65,44.39 L50.24,45.27 L66.50,61.41 L67.77,62.13 L69.23,62.13 L70.50,61.41 L72.54,59.40 L73.14,58.53 L73.35,57.50 L73.14,56.46 L72.55,55.59 L60.28,43.38 L72.32,31.39 L72.91,30.52 L73.11,29.48 L72.90,28.45 L72.30,27.58 L70.27,25.57 L69.00,24.85 L67.53,24.85 L66.26,25.57 L50.26,41.45 L49.66,42.32 L49.44,43.36 Z" fill="#f2f2f2" stroke="#1e1e1e" stroke-width="1" stroke-linejoin="round"/></svg>