<svg xmlns="http://www.w3.org/2000/svg" viewBox="0.67 0.67 94.67 94.67"><ellipse cx="48.00" cy="48.00" rx="45.33" ry="45.33" fill="#1b91b9" stroke="#1e1e1e" stroke-width="1"/><ellipse cx="48.00" cy="48.00" rx="39.05" ry="39.05" fill="#005ba1" stroke="#1e1e1e" stroke-width="1"/><path d="M48.53,53.00 L33.42,38.00 L32.22,37.32 L30.84,37.32 L29.64,38.00 L27.73,39.89 L27.17,40.71 L26.97,41.69 L27.17,42.67 L27.72,43.50 L39.09,54.82 L27.48,66.35 L26.81,67.49 L26.81,68.82 L27.48,69.96 L29.40,71.85 L30.60,72.53 L31.98,72.53 L33.18,71.85 L48.53,56.60 L49.09,55.77 L49.29,54.79 L49.09,53.82 L48.53,53.00 L48.53,53.00 Z" fill="#f2f2f2" stroke="#1e1e1e" stroke-width="1" stroke-linejoin="round"/><path d="M46.69,40.95 L46.89,41.93 L47.45,42.75 L62.81,58.00 L64.01,58.68 L65.39,58.68 L66.59,58.00 L68.51,56.10 L69.08,55.28 L69.27,54.30 L69.08,53.33 L68.52,52.50 L56.93,40.97 L68.30,29.65 L68.86,28.82 L69.05,27.85 L68.85,26.87 L68.29,26.05 L66.36,24.15 L65.16,23.47 L63.78,23.47 L62.58,24.15 L47.47,39.15 L46.90,39.97 L46.69,40.95 Z" fill="#f2f2f2" stroke="#1e1e1e" stroke-width="1" stroke-linejoin="round"/></svg>