<svg xmlns="http://www.w3.org/2000/svg" viewBox="7.60 -1.12 82.55 100.00"><path d="M88.16,45.71 L88.07,48.11 L87.80,50.48 L86.80,55.13 L85.23,59.62 L83.17,63.94 L80.71,68.08 L77.93,72.01 L74.90,75.73 L71.71,79.21 L68.44,82.43 L65.17,85.39 L58.97,90.42 L53.75,94.17 L50.17,96.51 L48.88,96.88 L47.59,96.51 L44.01,94.18 L38.79,90.42 L32.59,85.39 L29.32,82.44 L26.05,79.21 L22.86,75.73 L19.83,72.02 L17.05,68.08 L14.58,63.94 L12.53,59.62 L10.96,55.13 L9.95,50.49 L9.69,48.11 L9.60,45.71 L9.60,14.66 L9.92,13.45 L10.81,12.55 L12.01,12.20 L16.23,11.97 L19.82,11.52 L22.87,10.91 L25.45,10.15 L27.65,9.28 L29.55,8.32 L32.73,6.29 L35.62,4.29 L37.16,3.37 L38.86,2.55 L40.80,1.87 L43.07,1.34 L45.73,1.00 L48.88,0.88 L52.02,1.00 L54.69,1.34 L56.96,1.87 L58.90,2.55 L60.60,3.37 L62.14,4.28 L65.03,6.29 L68.21,8.32 L70.11,9.27 L72.31,10.14 L74.89,10.90 L77.94,11.51 L81.53,11.95 L85.74,12.19 L86.95,12.53 L87.83,13.43 L88.16,14.65 L88.16,45.71 Z" fill="#1b93eb" stroke="#1e1e1e" stroke-width="1" stroke-linejoin="round"/><path d="M84.90,45.97 L84.82,48.17 L84.57,50.35 L83.66,54.61 L82.22,58.73 L80.33,62.69 L78.07,66.49 L75.52,70.09 L72.74,73.50 L69.81,76.69 L66.82,79.65 L63.82,82.36 L58.13,86.98 L53.35,90.42 L50.06,92.56 L48.88,92.90 L47.70,92.56 L44.41,90.42 L39.63,86.98 L33.94,82.36 L30.94,79.65 L27.94,76.69 L25.02,73.50 L22.24,70.09 L19.69,66.49 L17.43,62.69 L15.54,58.73 L14.10,54.61 L13.18,50.35 L12.94,48.17 L12.86,45.97 L12.86,17.49 L13.15,16.36 L13.96,15.53 L15.07,15.21 L18.93,15.00 L22.23,14.60 L25.02,14.04 L27.40,13.35 L29.41,12.56 L31.15,11.69 L34.06,9.83 L36.72,8.00 L38.13,7.16 L39.69,6.42 L41.47,5.79 L43.55,5.31 L46.00,5.00 L48.88,4.89 L51.76,5.00 L54.21,5.31 L56.29,5.79 L58.07,6.42 L59.63,7.17 L61.04,8.01 L63.69,9.85 L66.61,11.72 L68.35,12.59 L70.36,13.39 L72.73,14.08 L75.53,14.64 L78.82,15.04 L82.69,15.26 L83.80,15.58 L84.60,16.40 L84.90,17.52 L84.90,45.97 Z" fill="#43a6ee" stroke="#1e1e1e" stroke-width="1" stroke-linejoin="round"/><path d="M59.64,25.75 L55.68,24.12 L55.26,23.84 L54.99,23.41 L52.56,16.67 L52.12,16.08 L51.42,15.86 L46.31,15.86 L45.58,16.11 L45.14,16.74 L43.23,23.35 L42.96,23.83 L42.51,24.15 L39.01,25.53 L38.51,25.63 L38.02,25.53 L31.30,22.32 L30.57,22.22 L29.91,22.56 L26.31,26.13 L25.96,26.79 L26.06,27.52 L29.29,34.43 L29.39,34.86 L29.33,35.30 L28.12,39.10 L27.81,39.59 L27.32,39.90 L20.63,42.07 L20.02,42.51 L19.78,43.23 L19.78,48.50 L20.03,49.23 L20.66,49.67 L27.24,51.57 L27.73,51.85 L28.04,52.31 L29.29,55.62 L29.37,56.10 L29.26,56.57 L26.24,63.09 L26.15,63.81 L26.48,64.46 L30.11,68.16 L30.78,68.51 L31.53,68.40 L31.70,68.31 L37.82,65.17 L38.32,65.04 L38.83,65.13 L42.36,66.56 L42.79,66.84 L43.06,67.27 L45.48,74.00 L45.93,74.58 L46.64,74.80 L51.45,74.80 L52.18,74.56 L52.62,73.92 L54.53,67.33 L54.80,66.85 L55.24,66.54 L58.76,65.12 L59.25,65.03 L59.73,65.14 L66.13,68.14 L66.86,68.24 L67.51,67.90 L70.91,64.50 L71.25,63.81 L71.11,63.04 L71.11,63.04 L71.04,62.91 L68.43,56.44 L68.34,55.99 L68.43,55.53 L69.89,51.93 L70.17,51.51 L70.60,51.24 L77.15,48.82 L77.73,48.37 L77.95,47.67 L77.95,42.86 L77.70,42.12 L77.06,41.68 L70.54,39.87 L70.02,39.59 L69.71,39.09 L68.43,35.22 L68.37,34.76 L68.49,34.32 L71.50,27.80 L71.60,27.07 L71.26,26.42 L67.96,23.12 L67.16,22.70 L66.26,22.81 L59.64,25.75 Z" fill="#f2f2f2" stroke="#1e1e1e" stroke-width="1" stroke-linejoin="round"/><path d="M65.23,53.32 L64.79,50.86 L63.66,48.64 L61.92,46.84 L59.74,45.62 L61.06,44.29 L61.72,42.53 L61.59,40.66 L60.69,39.01 L59.19,37.87 L57.36,37.46 L55.52,37.84 L54.01,38.95 L53.09,40.59 L52.92,42.46 L53.55,44.23 L54.85,45.58 L52.61,46.74 L50.85,48.55 L49.75,50.82 L49.42,53.32 L49.73,54.36 L50.68,54.87 L50.82,54.87 L63.86,54.87 L64.85,54.46 L65.27,53.47 L65.25,53.39 L65.23,53.32 Z" fill="#198ab3" stroke="#198ab3" stroke-width="1" stroke-linejoin="round"/><path d="M54.85,57.57 L55.90,57.29 L56.68,56.52 L56.96,55.47 L56.96,55.22 L56.56,52.15 L55.38,49.28 L53.51,46.81 L51.07,44.90 L48.23,43.67 L45.16,43.22 L42.58,43.43 L40.32,44.05 L38.39,45.06 L36.77,46.43 L35.46,48.16 L34.45,50.22 L33.74,52.58 L33.32,55.24 L33.50,56.32 L34.19,57.17 L35.21,57.56 L35.42,57.56 L54.85,57.57 Z" fill="#30d0f2" stroke="#1e1e1e" stroke-width="1" stroke-linejoin="round"/><path d="M45.27,44.81 L43.40,44.53 L41.68,43.73 L45.23,53.02 L48.77,43.78 L47.09,44.54 L45.27,44.81 L45.27,44.81 Z" fill="#ffffff" stroke="#ffffff" stroke-width="1" stroke-linejoin="round" opacity="0.8"/><ellipse cx="45.22" cy="38.17" rx="6.64" ry="6.64" fill="#30d0f2" stroke="#30d0f2" stroke-width="1"/></svg>