<svg xmlns="http://www.w3.org/2000/svg" viewBox="-2.23 6.48 100.00 80.53"><path d="M95.77,55.21 L95.32,51.44 L94.22,47.81 L92.50,44.43 L90.21,41.40 L87.44,38.82 L84.25,36.77 L80.75,35.30 L77.05,34.47 L76.43,29.82 L75.03,25.33 L72.88,21.16 L70.04,17.41 L66.60,14.22 L62.65,11.66 L58.33,9.82 L53.76,8.75 L49.07,8.48 L44.78,8.73 L40.57,9.64 L36.56,11.18 L32.83,13.32 L29.48,16.01 L26.58,19.18 L24.20,22.76 L22.40,26.67 L17.94,27.61 L13.72,29.33 L9.86,31.77 L6.50,34.85 L3.73,38.48 L1.65,42.53 L0.31,46.89 L-0.23,51.42 L0.34,55.93 L1.68,60.27 L3.75,64.31 L6.50,67.93 L9.83,71.02 L13.64,73.49 L17.83,75.26 L22.26,76.28 L26.79,76.52 L29.18,76.42 L72.95,76.42 L73.55,76.38 L74.13,76.27 L78.27,75.84 L82.25,74.63 L85.93,72.69 L89.18,70.08 L91.87,66.91 L93.91,63.28 L95.22,59.34 L95.77,55.21 Z" fill="#2f8ce2" stroke="#1e1e1e" stroke-width="1" stroke-linejoin="round"/><path d="M61.62,42.01 L61.22,38.69 L60.03,35.58 L58.11,32.86 L55.57,30.69 L52.59,29.20 L49.33,28.49 L46.00,28.60 L42.79,29.53 L39.91,31.21 L37.53,33.54 L35.80,36.39 L34.81,39.58 L34.64,42.91 L35.28,46.18 L36.71,49.19 L38.83,51.76 L41.52,53.74 L41.52,71.23 L54.49,71.23 L54.49,53.87 L56.88,52.23 L58.88,50.13 L60.37,47.64 L61.30,44.89 L61.62,42.01 L61.62,42.01 Z" fill="#ffffff" stroke="#ffffff" stroke-width="1" stroke-linejoin="round"/><path d="M50.49,67.20 L45.52,67.20 L45.52,55.25 L46.81,55.45 L48.11,55.51 L49.30,55.45 L50.49,55.27 L50.49,67.20 Z" fill="#2f8ce2" stroke="#2f8ce2" stroke-width="1" stroke-linejoin="round"/><path d="M50.49,51.17 L49.31,51.41 L48.11,51.50 L46.80,51.39 L45.52,51.10 L50.49,51.17 Z" fill="#2f8ce2" stroke="#2f8ce2" stroke-width="1" stroke-linejoin="round"/><path d="M54.49,49.03 L41.52,48.84 L39.79,46.59 L38.79,43.94 L38.62,41.11 L39.29,38.35 L40.74,35.92 L42.85,34.02 L45.42,32.82 L48.23,32.44 L51.03,32.90 L53.57,34.17 L55.62,36.12 L57.01,38.60 L57.60,41.37 L57.35,44.20 L56.28,46.82 L54.49,49.02 L54.49,49.03 Z" fill="#2f8ce2" stroke="#2f8ce2" stroke-width="1" stroke-linejoin="round"/><path d="M78.46,67.21 L79.02,67.28 L79.55,67.50 L80.00,67.85 L80.34,68.30 L80.56,68.82 L80.63,69.39 L80.63,82.84 L80.56,83.40 L80.34,83.93 L80.00,84.38 L79.55,84.72 L79.02,84.94 L78.46,85.01 L17.69,85.01 L17.12,84.94 L16.60,84.72 L16.15,84.38 L15.80,83.93 L15.58,83.40 L15.51,82.84 L15.51,69.39 L15.58,68.82 L15.80,68.30 L16.15,67.85 L16.60,67.50 L17.12,67.28 L17.69,67.21 L78.46,67.21 Z" fill="#80cc31" stroke="#1e1e1e" stroke-width="1" stroke-linejoin="round"/><path d="M74.54,70.33 L74.83,70.36 L75.09,70.47 L75.31,70.64 L75.49,70.87 L75.59,71.13 L75.63,71.41 L75.63,74.10 L75.59,74.38 L75.49,74.65 L75.31,74.87 L75.09,75.04 L74.83,75.15 L74.54,75.19 L71.86,75.19 L71.57,75.15 L71.31,75.04 L71.09,74.87 L70.91,74.65 L70.81,74.38 L70.77,74.10 L70.77,71.41 L70.81,71.13 L70.91,70.87 L71.09,70.64 L71.31,70.47 L71.57,70.36 L71.86,70.33 L74.54,70.33 Z" fill="#ffffff" stroke="#ffffff" stroke-width="1" stroke-linejoin="round"/><path d="M74.54,77.03 L74.83,77.07 L75.09,77.18 L75.31,77.35 L75.49,77.58 L75.59,77.84 L75.63,78.12 L75.63,80.81 L75.59,81.09 L75.49,81.35 L75.31,81.58 L75.09,81.75 L74.83,81.86 L74.54,81.90 L71.86,81.90 L71.57,81.86 L71.31,81.75 L71.09,81.58 L70.91,81.35 L70.81,81.09 L70.77,80.81 L70.77,78.12 L70.81,77.84 L70.91,77.58 L71.09,77.35 L71.31,77.18 L71.57,77.07 L71.86,77.03 L74.54,77.03 Z" fill="#ffffff" stroke="#ffffff" stroke-width="1" stroke-linejoin="round" opacity="0.6"/><path d="M57.60,42.01 L57.20,39.23 L56.01,36.69 L54.12,34.60 L51.72,33.16 L48.99,32.49 L46.19,32.64 L43.55,33.60 L41.31,35.29 L39.66,37.56 L38.74,40.21 L38.64,43.02 L39.36,45.73 L40.85,48.11 L42.96,49.96 L45.52,51.11 L45.52,67.20 L50.49,67.20 L50.49,51.20 L52.80,50.26 L54.79,48.76 L56.31,46.78 L57.27,44.48 L57.60,42.01 L57.60,42.01 Z" fill="#76bc2d" stroke="#1e1e1e" stroke-width="1" stroke-linejoin="round"/></svg>