<svg xmlns="http://www.w3.org/2000/svg" viewBox="0.82 3.75 100.00 94.14"><path d="M94.16,91.12 L10.64,91.12 L9.30,90.76 L8.32,89.78 L7.96,88.44 L8.32,87.11 L9.30,86.13 L10.64,85.77 L94.16,85.77 L95.50,86.13 L96.48,87.11 L96.84,88.44 L96.48,89.78 L95.50,90.76 L94.16,91.12 Z" fill="#76bc2d" stroke="#76bc2d" stroke-width="1" stroke-linejoin="round"/><rect x="50.22" y="71.74" width="6.38" height="16.91" fill="#76bc2d" stroke="#76bc2d" stroke-width="1"/><path d="M98.82,25.47 L98.71,26.30 L98.39,27.07 L97.89,27.73 L97.22,28.24 L96.45,28.56 L95.62,28.67 L6.03,28.67 L5.20,28.56 L4.42,28.24 L3.76,27.73 L3.25,27.07 L2.93,26.30 L2.82,25.47 L2.82,8.96 L2.93,8.13 L3.25,7.36 L3.76,6.69 L4.42,6.18 L5.20,5.86 L6.03,5.75 L95.62,5.75 L96.45,5.86 L97.22,6.18 L97.89,6.69 L98.39,7.36 L98.71,8.13 L98.82,8.96 L98.82,25.47 Z" fill="#5ea0ef" stroke="#1e1e1e" stroke-width="1" stroke-linejoin="round"/><path d="M98.82,47.90 L98.71,48.73 L98.39,49.50 L97.89,50.17 L97.22,50.68 L96.45,51.00 L95.62,51.11 L6.03,51.11 L5.20,51.00 L4.42,50.68 L3.76,50.17 L3.25,49.50 L2.93,48.73 L2.82,47.90 L2.82,31.39 L2.93,30.56 L3.25,29.79 L3.76,29.13 L4.42,28.62 L5.20,28.30 L6.03,28.19 L95.62,28.19 L96.45,28.30 L97.22,28.62 L97.89,29.13 L98.39,29.79 L98.71,30.56 L98.82,31.39 L98.82,47.90 Z" fill="#0078d4" stroke="#1e1e1e" stroke-width="1" stroke-linejoin="round"/><path d="M98.82,70.66 L98.71,71.49 L98.39,72.26 L97.89,72.93 L97.22,73.43 L96.45,73.75 L95.62,73.86 L6.03,73.86 L5.20,73.75 L4.42,73.43 L3.76,72.93 L3.25,72.26 L2.93,71.49 L2.82,70.66 L2.82,54.15 L2.93,53.32 L3.25,52.55 L3.76,51.89 L4.42,51.38 L5.20,51.06 L6.03,50.95 L95.62,50.95 L96.45,51.06 L97.22,51.38 L97.89,51.89 L98.39,52.55 L98.71,53.32 L98.82,54.15 L98.82,70.66 Z" fill="#005ba1" stroke="#1e1e1e" stroke-width="1" stroke-linejoin="round"/><path d="M98.82,25.47 L98.82,8.96 L98.39,7.36 L97.22,6.18 L95.62,5.75 L6.03,5.75 L4.42,6.18 L3.25,7.36 L2.82,8.96 L2.82,25.47 L3.07,26.70 L3.77,27.74 L4.81,28.43 L3.77,29.12 L3.07,30.16 L2.82,31.39 L2.82,47.91 L3.14,49.30 L4.04,50.41 L5.33,51.03 L4.04,51.64 L3.14,52.76 L2.82,54.15 L2.82,70.66 L3.25,72.26 L4.42,73.43 L6.03,73.86 L95.62,73.86 L97.22,73.43 L98.39,72.26 L98.82,70.66 L98.82,54.15 L98.50,52.76 L97.61,51.64 L96.32,51.03 L97.61,50.41 L98.50,49.30 L98.82,47.91 L98.82,31.39 L98.58,30.16 L97.88,29.12 L96.84,28.43 L97.88,27.74 L98.58,26.70 L98.82,25.47 Z" fill="#0069ba" stroke="#1e1e1e" stroke-width="1" stroke-linejoin="round" opacity="0.51"/><ellipse cx="18.16" cy="16.60" rx="5.27" ry="5.27" fill="#f2f2f2" stroke="#f2f2f2" stroke-width="1"/><ellipse cx="34.38" cy="16.60" rx="5.27" ry="5.27" fill="#f2f2f2" stroke="#f2f2f2" stroke-width="1"/><ellipse cx="18.16" cy="38.54" rx="5.27" ry="5.27" fill="#83b9f9" stroke="#83b9f9" stroke-width="1"/><ellipse cx="34.38" cy="38.54" rx="5.27" ry="5.27" fill="#83b9f9" stroke="#83b9f9" stroke-width="1"/><ellipse cx="18.16" cy="60.27" rx="5.27" ry="5.27" fill="#83b9f9" stroke="#83b9f9" stroke-width="1"/><ellipse cx="34.38" cy="60.27" rx="5.27" ry="5.27" fill="#83b9f9" stroke="#83b9f9" stroke-width="1"/><path d="M59.64,79.59 L61.75,79.87 L63.71,80.68 L65.40,81.98 L66.70,83.66 L67.51,85.63 L67.79,87.74 L67.79,87.74 L67.51,89.85 L66.70,91.82 L65.40,93.51 L63.71,94.80 L61.75,95.62 L59.64,95.89 L47.01,95.89 L44.90,95.62 L42.94,94.80 L41.25,93.51 L39.95,91.82 L39.14,89.85 L38.86,87.74 L38.86,87.74 L39.14,85.63 L39.95,83.66 L41.25,81.98 L42.94,80.68 L44.90,79.87 L47.01,79.59 L59.64,79.59 Z" fill="#0070c6" stroke="#1e1e1e" stroke-width="1" stroke-linejoin="round"/></svg>