<svg xmlns="http://www.w3.org/2000/svg" viewBox="2.63 -0.08 100.00 94.92"><path d="M89.11,50.20 L99.67,39.53 L100.10,38.89 L100.11,38.37 L99.72,38.02 L98.94,37.89 L93.68,37.89 L92.75,37.49 L92.39,36.54 L92.26,33.54 L91.72,29.77 L91.22,27.71 L90.51,25.59 L89.57,23.45 L88.36,21.34 L86.86,19.30 L85.02,17.37 L82.83,15.60 L80.24,14.04 L77.22,12.72 L73.74,11.69 L69.77,10.99 L65.28,10.67 L64.32,11.03 L63.92,11.97 L63.92,18.41 L64.34,19.37 L65.34,19.71 L69.01,19.34 L72.66,19.85 L76.09,21.20 L79.11,23.33 L81.54,26.11 L83.24,29.38 L84.13,32.96 L84.14,36.65 L83.78,37.60 L82.84,38.00 L77.93,38.00 L77.15,38.13 L76.76,38.49 L76.77,39.03 L77.20,39.70 L87.02,50.43 L87.72,50.80 L88.51,50.71 L89.11,50.20 Z" fill="#949494" stroke="#1e1e1e" stroke-width="1" stroke-linejoin="round"/><path d="M71.77,1.92 L72.61,2.03 L73.38,2.35 L74.05,2.86 L74.56,3.53 L74.88,4.31 L74.99,5.14 L74.99,47.49 L74.88,48.32 L74.56,49.10 L74.05,49.77 L73.38,50.28 L72.61,50.60 L71.77,50.71 L7.85,50.71 L7.02,50.60 L6.24,50.28 L5.57,49.77 L5.06,49.10 L4.74,48.32 L4.63,47.49 L4.63,5.14 L4.74,4.31 L5.06,3.53 L5.57,2.86 L6.24,2.35 L7.02,2.03 L7.85,1.92 L71.77,1.92 Z" fill="#2f8ce2" stroke="#1e1e1e" stroke-width="1" stroke-linejoin="round"/><path d="M7.79,1.92 L72.68,1.92 L73.84,2.23 L74.68,3.08 L74.99,4.24 L74.99,13.55 L74.99,13.55 L4.63,13.55 L4.63,13.55 L4.63,5.14 L5.05,3.55 L6.21,2.37 L7.79,1.92 L7.79,1.92 Z" fill="#83b9f9" stroke="#1e1e1e" stroke-width="1" stroke-linejoin="round"/><rect x="4.63" y="13.55" width="70.36" height="7.79" fill="#1653a1" stroke="#1653a1" stroke-width="1" opacity="0.1"/><path d="M98.60,61.84 L99.12,61.90 L99.61,62.11 L100.04,62.43 L100.36,62.85 L100.56,63.34 L100.63,63.87 L100.63,90.80 L100.56,91.33 L100.36,91.82 L100.04,92.24 L99.61,92.57 L99.12,92.77 L98.60,92.84 L57.94,92.84 L57.41,92.77 L56.92,92.57 L56.50,92.24 L56.18,91.82 L55.98,91.33 L55.91,90.80 L55.91,63.87 L55.98,63.34 L56.18,62.85 L56.50,62.43 L56.92,62.11 L57.41,61.90 L57.94,61.84 L98.60,61.84 Z" fill="#005ba1" stroke="#1e1e1e" stroke-width="1" stroke-linejoin="round"/><path d="M14.74,18.01 L64.83,18.01 L65.57,18.31 L65.90,19.03 L65.90,24.28 L65.55,24.97 L64.83,25.24 L14.74,25.24 L14.00,24.99 L13.67,24.28 L13.67,19.03 L13.98,18.29 L14.74,18.01 L14.74,18.01 Z" fill="#ffffff" stroke="#ffffff" stroke-width="1" stroke-linejoin="round"/><path d="M14.74,28.24 L64.88,28.24 L65.60,28.50 L65.90,29.20 L65.90,34.45 L65.60,35.17 L64.88,35.46 L14.74,35.46 L14.02,35.17 L13.72,34.45 L13.72,29.42 L13.93,28.57 L14.74,28.24 L14.74,28.24 Z" fill="#ffffff" stroke="#ffffff" stroke-width="1" stroke-linejoin="round"/><path d="M14.74,38.91 L64.88,38.91 L65.60,39.21 L65.90,39.92 L65.90,45.18 L65.58,45.86 L64.88,46.14 L14.74,46.14 L14.04,45.86 L13.72,45.18 L13.72,39.92 L14.02,39.21 L14.74,38.91 L14.74,38.91 Z" fill="#ffffff" stroke="#ffffff" stroke-width="1" stroke-linejoin="round"/><path d="M91.20,55.17 L91.73,55.24 L92.22,55.44 L92.64,55.77 L92.96,56.19 L93.16,56.68 L93.23,57.20 L93.23,84.14 L93.16,84.67 L92.96,85.16 L92.64,85.58 L92.22,85.90 L91.73,86.10 L91.20,86.17 L50.54,86.17 L50.02,86.10 L49.52,85.90 L49.10,85.58 L48.78,85.16 L48.58,84.67 L48.51,84.14 L48.51,57.20 L48.58,56.68 L48.78,56.19 L49.10,55.77 L49.52,55.44 L50.02,55.24 L50.54,55.17 L91.20,55.17 Z" fill="#0078d4" stroke="#1e1e1e" stroke-width="1" stroke-linejoin="round"/><path d="M50.82,55.17 L92.05,55.17 L93.09,55.60 L93.52,56.64 L93.52,62.29 L93.52,62.29 L48.51,62.29 L48.51,62.29 L48.51,56.92 L48.92,55.94 L49.77,55.30 L50.82,55.17 L50.82,55.17 Z" fill="#83b9f9" stroke="#83b9f9" stroke-width="1" stroke-linejoin="round"/><path d="M54.95,65.45 L86.80,65.45 L87.26,65.63 L87.47,66.07 L87.47,69.40 L87.26,69.85 L86.80,70.02 L54.95,70.02 L54.47,69.86 L54.27,69.40 L54.27,66.07 L54.47,65.61 L54.95,65.45 L54.95,65.45 Z" fill="#ffffff" stroke="#ffffff" stroke-width="1" stroke-linejoin="round"/><path d="M54.95,72.06 L86.80,72.06 L87.27,72.22 L87.47,72.68 L87.47,76.01 L87.27,76.47 L86.80,76.63 L54.95,76.63 L54.49,76.45 L54.27,76.01 L54.27,72.68 L54.49,72.23 L54.95,72.06 L54.95,72.06 Z" fill="#ffffff" stroke="#ffffff" stroke-width="1" stroke-linejoin="round"/><path d="M54.95,78.72 L86.80,78.72 L87.27,78.88 L87.47,79.34 L87.47,82.67 L87.27,83.13 L86.80,83.29 L54.95,83.29 L54.49,83.12 L54.27,82.67 L54.27,79.34 L54.49,78.90 L54.95,78.72 L54.95,78.72 Z" fill="#ffffff" stroke="#ffffff" stroke-width="1" stroke-linejoin="round"/></svg>