<svg xmlns="http://www.w3.org/2000/svg" viewBox="2.37 -0.19 94.67 89.87"><path d="M84.16,47.41 L94.13,37.33 L94.53,36.73 L94.55,36.24 L94.18,35.91 L93.44,35.79 L88.48,35.79 L87.59,35.41 L87.25,34.51 L87.14,31.67 L86.63,28.12 L86.15,26.17 L85.48,24.17 L84.59,22.15 L83.45,20.15 L82.03,18.23 L80.30,16.41 L78.23,14.74 L75.78,13.26 L72.93,12.01 L69.64,11.04 L65.90,10.38 L61.65,10.08 L60.75,10.42 L60.37,11.31 L60.37,17.39 L60.77,18.29 L61.71,18.61 L65.17,18.26 L68.63,18.74 L71.87,20.02 L74.71,22.03 L77.01,24.66 L78.62,27.75 L79.45,31.13 L79.47,34.61 L79.13,35.52 L78.24,35.89 L73.60,35.89 L72.86,36.02 L72.49,36.35 L72.50,36.86 L72.91,37.49 L82.19,47.63 L82.85,47.97 L83.59,47.89 L84.16,47.41 L84.16,47.41 Z" fill="#949494" stroke="#1e1e1e" stroke-width="1" stroke-linejoin="round"/><path d="M67.79,1.81 L68.57,1.92 L69.31,2.22 L69.94,2.70 L70.42,3.33 L70.72,4.07 L70.83,4.85 L70.83,44.85 L70.72,45.64 L70.42,46.37 L69.94,47.00 L69.31,47.49 L68.57,47.79 L67.79,47.89 L7.41,47.89 L6.63,47.79 L5.89,47.49 L5.26,47.00 L4.78,46.37 L4.48,45.64 L4.37,44.85 L4.37,4.85 L4.48,4.07 L4.78,3.33 L5.26,2.70 L5.89,2.22 L6.63,1.92 L7.41,1.81 L67.79,1.81 Z" fill="#2f8ce2" stroke="#1e1e1e" stroke-width="1" stroke-linejoin="round"/><path d="M7.36,1.81 L68.64,1.81 L69.73,2.11 L70.53,2.91 L70.83,4.00 L70.83,12.80 L70.83,12.80 L4.37,12.80 L4.37,12.80 L4.37,4.85 L4.77,3.35 L5.86,2.24 L7.36,1.81 L7.36,1.81 Z" fill="#83b9f9" stroke="#1e1e1e" stroke-width="1" stroke-linejoin="round"/><rect x="4.37" y="12.80" width="66.45" height="7.36" fill="#1653a1" stroke="#1653a1" stroke-width="1" opacity="0.1"/><path d="M93.12,58.40 L93.62,58.47 L94.08,58.66 L94.48,58.96 L94.78,59.36 L94.97,59.82 L95.04,60.32 L95.04,85.76 L94.97,86.26 L94.78,86.72 L94.48,87.12 L94.08,87.42 L93.62,87.61 L93.12,87.68 L54.72,87.68 L54.22,87.61 L53.76,87.42 L53.36,87.12 L53.06,86.72 L52.87,86.26 L52.80,85.76 L52.80,60.32 L52.87,59.82 L53.06,59.36 L53.36,58.96 L53.76,58.66 L54.22,58.47 L54.72,58.40 L93.12,58.40 Z" fill="#005ba1" stroke="#1e1e1e" stroke-width="1" stroke-linejoin="round"/><path d="M13.92,17.01 L61.23,17.01 L61.92,17.29 L62.24,17.97 L62.24,22.93 L61.91,23.58 L61.23,23.84 L13.92,23.84 L13.23,23.60 L12.91,22.93 L12.91,17.97 L13.21,17.27 L13.92,17.01 L13.92,17.01 Z" fill="#ffffff" stroke="#ffffff" stroke-width="1" stroke-linejoin="round"/><path d="M13.92,26.67 L61.28,26.67 L61.96,26.91 L62.24,27.57 L62.24,32.53 L61.96,33.21 L61.28,33.49 L13.92,33.49 L13.24,33.21 L12.96,32.53 L12.96,27.79 L13.15,26.98 L13.92,26.67 L13.92,26.67 Z" fill="#ffffff" stroke="#ffffff" stroke-width="1" stroke-linejoin="round"/><path d="M13.92,36.75 L61.28,36.75 L61.96,37.03 L62.24,37.71 L62.24,42.67 L61.94,43.31 L61.28,43.57 L13.92,43.57 L13.26,43.31 L12.96,42.67 L12.96,37.71 L13.24,37.03 L13.92,36.75 L13.92,36.75 Z" fill="#ffffff" stroke="#ffffff" stroke-width="1" stroke-linejoin="round"/><path d="M86.13,52.11 L86.63,52.17 L87.09,52.36 L87.49,52.67 L87.80,53.07 L87.99,53.53 L88.05,54.03 L88.05,79.47 L87.99,79.96 L87.80,80.43 L87.49,80.82 L87.09,81.13 L86.63,81.32 L86.13,81.39 L47.73,81.39 L47.24,81.32 L46.77,81.13 L46.38,80.82 L46.07,80.43 L45.88,79.96 L45.81,79.47 L45.81,54.03 L45.88,53.53 L46.07,53.07 L46.38,52.67 L46.77,52.36 L47.24,52.17 L47.73,52.11 L86.13,52.11 Z" fill="#0078d4" stroke="#1e1e1e" stroke-width="1" stroke-linejoin="round"/><path d="M48.00,52.11 L86.93,52.11 L87.91,52.51 L88.32,53.49 L88.32,58.83 L88.32,58.83 L45.81,58.83 L45.81,58.83 L45.81,53.76 L46.20,52.83 L47.00,52.22 L48.00,52.11 L48.00,52.11 Z" fill="#83b9f9" stroke="#83b9f9" stroke-width="1" stroke-linejoin="round"/><path d="M51.89,61.81 L81.97,61.81 L82.41,61.98 L82.61,62.40 L82.61,65.55 L82.41,65.97 L81.97,66.13 L51.89,66.13 L51.44,65.98 L51.25,65.55 L51.25,62.40 L51.44,61.97 L51.89,61.81 L51.89,61.81 Z" fill="#ffffff" stroke="#ffffff" stroke-width="1" stroke-linejoin="round"/><path d="M51.89,68.05 L81.97,68.05 L82.42,68.21 L82.61,68.64 L82.61,71.79 L82.42,72.22 L81.97,72.37 L51.89,72.37 L51.46,72.21 L51.25,71.79 L51.25,68.64 L51.46,68.22 L51.89,68.05 L51.89,68.05 Z" fill="#ffffff" stroke="#ffffff" stroke-width="1" stroke-linejoin="round"/><path d="M51.89,74.35 L81.97,74.35 L82.42,74.50 L82.61,74.93 L82.61,78.08 L82.42,78.51 L81.97,78.67 L51.89,78.67 L51.46,78.50 L51.25,78.08 L51.25,74.93 L51.46,74.51 L51.89,74.35 L51.89,74.35 Z" fill="#ffffff" stroke="#ffffff" stroke-width="1" stroke-linejoin="round"/></svg>