<svg xmlns="http://www.w3.org/2000/svg" viewBox="4.64 -2.01 86.71 100.00"><path d="M82.31,52.25 L73.19,57.64 L64.02,62.97 L47.96,72.41 L31.97,62.97 L22.85,57.64 L13.67,52.25 L20.87,48.04 L47.96,63.93 L75.11,48.04 L82.31,52.25 Z" fill="#a33a85" stroke="#1e1e1e" stroke-width="1" stroke-linejoin="round"/><path d="M82.31,52.25 L82.31,61.42 L47.96,81.58 L13.67,61.42 L13.67,52.25 L22.85,57.64 L31.97,62.97 L47.96,72.41 L64.02,62.97 L73.19,57.64 L82.31,52.25 Z" fill="#59285f" stroke="#1e1e1e" stroke-width="1" stroke-linejoin="round"/><path d="M82.31,34.60 L73.19,39.93 L67.27,43.40 L64.02,45.32 L47.96,54.70 L31.97,45.32 L28.71,43.40 L22.85,39.93 L13.67,34.60 L47.96,14.39 L82.31,34.60 Z" fill="#a33a85" stroke="#1e1e1e" stroke-width="1" stroke-linejoin="round"/><path d="M82.31,34.60 L82.31,43.77 L75.11,48.04 L47.96,63.93 L20.87,48.04 L13.67,43.77 L13.67,34.60 L22.85,39.93 L28.71,43.40 L31.97,45.32 L47.96,54.70 L64.02,45.32 L67.27,43.40 L73.19,39.93 L82.31,34.60 Z" fill="#59285f" stroke="#1e1e1e" stroke-width="1" stroke-linejoin="round"/><path d="M89.35,25.57 L89.35,70.45 L88.95,71.95 L87.85,73.06 L49.53,95.58 L48.79,95.89 L48.00,95.99 L48.00,48.11 L88.95,24.06 L89.25,24.79 L89.35,25.57 L89.35,25.57 Z" fill="#a33a85" stroke="#1e1e1e" stroke-width="1" stroke-linejoin="round" opacity="0.6"/><path d="M88.95,24.06 L48.00,48.05 L48.00,48.11 L7.04,24.06 L7.51,23.42 L8.14,22.93 L46.49,0.40 L48.01,-0.01 L49.53,0.40 L87.87,22.94 L88.48,23.43 L88.95,24.06 L88.95,24.06 Z" fill="#dc92bf" stroke="#1e1e1e" stroke-width="1" stroke-linejoin="round" opacity="0.6"/><path d="M48.00,48.11 L48.00,95.99 L47.21,95.89 L46.48,95.58 L8.14,73.06 L7.04,71.95 L6.64,70.45 L6.64,25.55 L6.74,24.78 L7.04,24.06 L48.00,48.11 Z" fill="#ce74b6" stroke="#1e1e1e" stroke-width="1" stroke-linejoin="round" opacity="0.6"/></svg>