<svg xmlns="http://www.w3.org/2000/svg" viewBox="4.64 -2.01 86.72 100.01"><path d="M82.31,52.26 L73.19,57.64 L64.02,62.98 L47.97,72.42 L31.97,62.98 L22.85,57.64 L13.67,52.26 L20.87,48.04 L47.97,63.94 L75.11,48.04 L82.31,52.26 Z" fill="#a33a85" stroke="#1e1e1e" stroke-width="1" stroke-linejoin="round"/><path d="M82.31,52.26 L82.31,61.43 L47.97,81.59 L13.67,61.43 L13.67,52.26 L22.85,57.64 L31.97,62.98 L47.97,72.42 L64.02,62.98 L73.19,57.64 L82.31,52.26 Z" fill="#59285f" stroke="#1e1e1e" stroke-width="1" stroke-linejoin="round"/><path d="M82.31,34.60 L73.19,39.94 L67.27,43.40 L64.02,45.32 L47.97,54.71 L31.97,45.32 L28.71,43.40 L22.85,39.94 L13.67,34.60 L47.97,14.39 L82.31,34.60 Z" fill="#a33a85" stroke="#1e1e1e" stroke-width="1" stroke-linejoin="round"/><path d="M82.31,34.60 L82.31,43.78 L75.11,48.04 L47.97,63.94 L20.87,48.04 L13.67,43.78 L13.67,34.60 L22.85,39.94 L28.71,43.40 L31.97,45.32 L47.97,54.71 L64.02,45.32 L67.27,43.40 L73.19,39.94 L82.31,34.60 Z" fill="#59285f" stroke="#1e1e1e" stroke-width="1" stroke-linejoin="round"/><path d="M89.36,25.57 L89.36,70.45 L88.96,71.96 L87.86,73.07 L49.54,95.58 L48.80,95.90 L48.00,96.00 L48.00,48.12 L88.95,24.06 L89.26,24.79 L89.36,25.57 L89.36,25.57 Z" fill="#a33a85" stroke="#1e1e1e" stroke-width="1" stroke-linejoin="round" opacity="0.6"/><path d="M88.96,24.06 L48.00,48.06 L48.00,48.12 L7.04,24.06 L7.51,23.42 L8.14,22.93 L46.50,0.40 L48.02,-0.01 L49.54,0.40 L87.88,22.94 L88.49,23.43 L88.96,24.06 L88.96,24.06 Z" fill="#dc92bf" stroke="#1e1e1e" stroke-width="1" stroke-linejoin="round" opacity="0.6"/><path d="M48.00,48.12 L48.00,96.00 L47.21,95.90 L46.49,95.59 L8.14,73.07 L7.04,71.96 L6.64,70.45 L6.64,25.55 L6.74,24.78 L7.04,24.06 L48.00,48.12 Z" fill="#ce74b6" stroke="#1e1e1e" stroke-width="1" stroke-linejoin="round" opacity="0.6"/></svg>