<svg xmlns="http://www.w3.org/2000/svg" viewBox="-2.00 20.87 99.95 54.26"><path d="M3.25,73.13 L49.45,73.13 L50.70,72.88 L51.75,72.17 L95.06,28.40 L95.84,27.11 L95.95,25.60 L95.37,24.20 L94.22,23.22 L92.75,22.87 L3.25,22.87 L2.00,23.12 L0.94,23.82 L0.24,24.88 L0.00,26.13 L0.00,69.87 L0.24,71.12 L0.94,72.18 L2.00,72.88 L3.25,73.13 L3.25,73.13 Z" fill="#006aba" stroke="#1e1e1e" stroke-width="1" stroke-linejoin="round"/><path d="M44.42,41.42 L44.42,53.41 L34.07,59.43 L34.07,47.43 L44.42,41.42 Z" fill="#ffffff" stroke="#ffffff" stroke-width="1" stroke-linejoin="round" opacity="0.6"/><path d="M44.42,41.42 L34.07,47.45 L23.70,41.41 L34.07,35.39 L44.42,41.42 Z" fill="#ffffff" stroke="#ffffff" stroke-width="1" stroke-linejoin="round" opacity="0.9"/><path d="M34.07,47.45 L34.07,59.43 L23.70,53.41 L23.70,41.41 L34.07,47.45 Z" fill="#ffffff" stroke="#ffffff" stroke-width="1" stroke-linejoin="round" opacity="0.75"/><path d="M35.55,27.29 L36.86,28.01 L37.39,28.30 L37.74,28.91 L37.39,29.52 L36.86,29.83 L35.26,30.78 L38.89,31.44 L42.30,32.85 L45.33,34.96 L47.84,37.66 L49.72,40.83 L50.88,44.33 L51.27,48.00 L50.87,51.67 L49.70,55.17 L47.81,58.34 L47.77,58.39 L47.75,58.45 L47.09,60.90 L47.28,61.60 L48.00,61.75 L49.95,61.22 L50.05,61.17 L50.13,61.10 L52.40,57.67 L53.96,53.86 L54.73,49.83 L54.69,45.71 L53.83,41.69 L52.21,37.91 L49.86,34.53 L46.90,31.68 L43.43,29.47 L39.60,27.99 L35.55,27.29 L35.55,27.29 Z" fill="#00ffff" stroke="#1e1e1e" stroke-width="1" stroke-linejoin="round" opacity="0.75"/><path d="M47.10,63.09 L46.52,63.24 L45.84,63.06 L45.66,62.38 L45.82,61.80 L46.25,60.20 L43.43,62.49 L40.19,64.13 L36.68,65.06 L33.06,65.23 L29.47,64.64 L26.09,63.31 L23.07,61.29 L21.27,59.56 L19.73,57.59 L19.67,57.52 L19.60,57.48 L17.90,56.60 L17.20,56.64 L16.88,57.26 L17.00,59.71 L17.02,59.81 L17.07,59.90 L18.45,61.67 L20.01,63.27 L23.17,65.67 L26.72,67.42 L30.54,68.47 L34.50,68.76 L38.43,68.30 L42.21,67.10 L45.69,65.20 L48.74,62.67 L47.10,63.09 Z" fill="#00ffff" stroke="#1e1e1e" stroke-width="1" stroke-linejoin="round" opacity="0.5"/><path d="M15.77,56.09 L15.73,55.47 L16.05,54.84 L16.75,54.81 L17.29,55.08 L18.69,55.80 L17.37,52.34 L16.83,48.68 L17.07,44.99 L18.10,41.44 L19.86,38.19 L22.28,35.38 L25.24,33.16 L28.60,31.63 L30.89,31.03 L33.24,30.76 L33.33,30.74 L33.40,30.71 L35.31,29.56 L35.65,28.94 L35.29,28.35 L33.39,27.28 L33.30,27.24 L33.20,27.24 L30.85,27.47 L28.53,27.97 L24.66,29.46 L21.17,31.70 L18.19,34.59 L15.85,38.01 L14.23,41.83 L13.41,45.89 L13.41,50.04 L14.24,54.11 L15.86,57.93 L15.77,56.09 Z" fill="#00ffff" stroke="#1e1e1e" stroke-width="1" stroke-linejoin="round"/></svg>