<svg xmlns="http://www.w3.org/2000/svg" viewBox="-2.00 20.88 100.00 54.29"><path d="M3.25,73.17 L49.48,73.17 L50.73,72.92 L51.78,72.20 L95.10,28.41 L95.89,27.12 L96.00,25.61 L95.42,24.21 L94.26,23.23 L92.79,22.88 L3.25,22.88 L2.00,23.13 L0.94,23.84 L0.24,24.90 L0.00,26.15 L0.00,69.90 L0.24,71.15 L0.94,72.21 L2.00,72.92 L3.25,73.17 L3.25,73.17 Z" fill="#006aba" stroke="#1e1e1e" stroke-width="1" stroke-linejoin="round"/><path d="M44.44,41.44 L44.44,53.43 L34.09,59.46 L34.09,47.45 L44.44,41.44 Z" fill="#ffffff" stroke="#ffffff" stroke-width="1" stroke-linejoin="round" opacity="0.6"/><path d="M44.44,41.44 L34.09,47.47 L23.71,41.43 L34.09,35.40 L44.44,41.44 Z" fill="#ffffff" stroke="#ffffff" stroke-width="1" stroke-linejoin="round" opacity="0.9"/><path d="M34.09,47.47 L34.09,59.46 L23.71,53.43 L23.71,41.43 L34.09,47.47 Z" fill="#ffffff" stroke="#ffffff" stroke-width="1" stroke-linejoin="round" opacity="0.75"/><path d="M35.56,27.30 L36.88,28.02 L37.41,28.32 L37.76,28.93 L37.41,29.53 L36.88,29.85 L35.28,30.80 L38.91,31.45 L42.32,32.87 L45.35,34.97 L47.86,37.68 L49.74,40.85 L50.90,44.36 L51.29,48.03 L50.89,51.70 L49.72,55.20 L47.83,58.37 L47.80,58.42 L47.77,58.48 L47.12,60.93 L47.31,61.64 L48.02,61.79 L49.97,61.25 L50.07,61.21 L50.15,61.13 L52.43,57.70 L53.98,53.89 L54.75,49.85 L54.71,45.74 L53.86,41.71 L52.23,37.93 L49.89,34.55 L46.93,31.70 L43.46,29.49 L39.62,28.00 L35.56,27.30 L35.56,27.30 Z" fill="#00ffff" stroke="#1e1e1e" stroke-width="1" stroke-linejoin="round" opacity="0.75"/><path d="M47.13,63.12 L46.54,63.27 L45.86,63.09 L45.68,62.42 L45.84,61.83 L46.27,60.23 L43.45,62.52 L40.21,64.17 L36.70,65.10 L33.07,65.27 L29.49,64.67 L26.11,63.34 L23.08,61.32 L21.28,59.59 L19.74,57.62 L19.68,57.55 L19.61,57.51 L17.91,56.63 L17.21,56.67 L16.89,57.29 L17.01,59.74 L17.03,59.84 L17.08,59.93 L18.46,61.70 L20.02,63.30 L23.18,65.70 L26.73,67.46 L30.56,68.50 L34.51,68.80 L38.45,68.34 L42.23,67.13 L45.71,65.23 L48.77,62.70 L47.13,63.12 Z" fill="#00ffff" stroke="#1e1e1e" stroke-width="1" stroke-linejoin="round" opacity="0.5"/><path d="M15.77,56.11 L15.74,55.49 L16.06,54.87 L16.76,54.83 L17.29,55.11 L18.70,55.83 L17.38,52.37 L16.83,48.71 L17.08,45.01 L18.11,41.46 L19.87,38.20 L22.29,35.40 L25.25,33.18 L28.62,31.64 L30.91,31.05 L33.26,30.77 L33.34,30.76 L33.42,30.72 L35.33,29.57 L35.67,28.96 L35.30,28.36 L33.40,27.29 L33.31,27.26 L33.22,27.25 L30.86,27.48 L28.55,27.98 L24.68,29.48 L21.18,31.72 L18.20,34.60 L15.86,38.03 L14.24,41.85 L13.42,45.92 L13.42,50.07 L14.25,54.13 L15.87,57.95 L15.77,56.11 Z" fill="#00ffff" stroke="#1e1e1e" stroke-width="1" stroke-linejoin="round"/></svg>