<svg xmlns="http://www.w3.org/2000/svg" viewBox="-0.66 -0.67 97.33 97.32"><path d="M61.66,74.55 L61.20,74.51 L61.00,74.93 L60.98,82.46 L61.30,84.46 L62.17,86.45 L63.46,88.19 L65.03,89.47 L73.91,94.58 L74.25,94.66 L74.45,94.57 L74.55,94.08 L74.32,93.46 L73.91,93.07 L71.60,91.73 L68.87,90.19 L65.79,88.41 L64.40,87.36 L63.28,86.17 L62.54,84.80 L62.30,83.22 L62.32,75.70 L62.13,75.05 L61.66,74.56 L61.66,74.55 Z" fill="#bebfbe" stroke="#bebfbe" stroke-width="1" stroke-linejoin="round"/><path d="M87.04,85.45 L78.17,80.34 L77.47,79.84 L76.85,79.19 L75.89,77.64 L75.64,76.90 L75.49,75.78 L75.40,72.93 L75.45,68.08 L75.11,67.21 L74.74,66.92 L74.32,66.90 L61.19,74.51 L61.66,74.56 L62.13,75.05 L62.31,75.70 L62.29,83.22 L62.55,84.81 L63.29,86.19 L64.40,87.38 L65.78,88.42 L68.85,90.17 L71.59,91.73 L73.63,92.89 L74.46,93.70 L74.57,94.15 L74.37,94.62 L87.50,87.01 L87.69,86.63 L87.61,86.17 L87.03,85.45 L87.04,85.45 Z" fill="#d9d9d6" stroke="#1e1e1e" stroke-width="1" stroke-linejoin="round"/><path d="M1.41,60.90 L1.44,63.83 L3.77,63.46 L3.77,60.90 L1.41,60.90 L1.41,60.90 Z" fill="#0078d4" stroke="#0078d4" stroke-width="1" stroke-linejoin="round"/><path d="M11.37,22.52 L12.54,24.55 L14.99,23.15 L13.81,21.11 L11.37,22.52 Z" fill="#0078d4" stroke="#0078d4" stroke-width="1" stroke-linejoin="round"/><path d="M4.25,29.76 L5.21,28.78 L4.01,26.76 L2.93,27.65 L2.10,28.77 L1.77,29.45 L3.92,30.38 L4.25,29.76 L4.25,29.76 Z" fill="#0078d4" stroke="#0078d4" stroke-width="1" stroke-linejoin="round"/><path d="M6.47,25.34 L7.64,27.37 L10.09,25.96 L8.92,23.94 L6.47,25.34 Z" fill="#0078d4" stroke="#0078d4" stroke-width="1" stroke-linejoin="round"/><path d="M3.69,32.69 L1.34,32.69 L1.34,35.51 L3.69,35.51 L3.69,32.69 Z" fill="#0078d4" stroke="#0078d4" stroke-width="1" stroke-linejoin="round"/><path d="M3.72,43.97 L1.37,43.97 L1.38,46.80 L3.72,46.80 L3.72,43.97 Z" fill="#0078d4" stroke="#0078d4" stroke-width="1" stroke-linejoin="round"/><path d="M3.70,38.33 L1.35,38.33 L1.35,41.16 L3.70,41.16 L3.70,38.33 L3.70,38.33 Z" fill="#0078d4" stroke="#0078d4" stroke-width="1" stroke-linejoin="round"/><path d="M3.75,55.25 L1.40,55.25 L1.40,58.08 L3.75,58.08 L3.74,55.25 L3.75,55.25 Z" fill="#0078d4" stroke="#0078d4" stroke-width="1" stroke-linejoin="round"/><path d="M3.73,49.61 L1.39,49.61 L1.39,52.44 L3.74,52.44 L3.73,49.61 Z" fill="#0078d4" stroke="#0078d4" stroke-width="1" stroke-linejoin="round"/><path d="M5.97,65.06 L5.12,64.57 L4.10,66.32 L3.94,66.60 L4.73,67.06 L5.58,67.33 L6.46,67.33 L7.34,67.00 L6.23,64.93 L5.97,65.06 L5.97,65.06 Z" fill="#0078d4" stroke="#0078d4" stroke-width="1" stroke-linejoin="round"/><path d="M16.26,19.71 L17.43,21.74 L19.88,20.33 L18.71,18.30 L16.26,19.71 L16.26,19.71 Z" fill="#0078d4" stroke="#0078d4" stroke-width="1" stroke-linejoin="round"/><path d="M40.74,5.60 L41.91,7.63 L44.36,6.22 L43.19,4.19 L40.74,5.60 L40.74,5.60 Z" fill="#0078d4" stroke="#0078d4" stroke-width="1" stroke-linejoin="round"/><path d="M52.91,2.46 L51.85,1.85 L50.66,3.87 L51.46,4.32 L51.71,4.53 L51.77,4.85 L54.12,4.84 L54.04,4.08 L53.80,3.42 L53.42,2.87 L52.91,2.46 L52.91,2.46 Z" fill="#0078d4" stroke="#0078d4" stroke-width="1" stroke-linejoin="round"/><path d="M54.13,7.49 L51.78,7.49 L51.78,10.32 L54.13,10.32 L54.12,7.49 L54.13,7.49 Z" fill="#0078d4" stroke="#0078d4" stroke-width="1" stroke-linejoin="round"/><path d="M48.14,1.33 L45.63,2.78 L46.81,4.81 L49.24,3.41 L49.49,3.22 L48.70,2.36 L48.14,1.34 L48.14,1.33 Z" fill="#0078d4" stroke="#0078d4" stroke-width="1" stroke-linejoin="round"/><path d="M26.05,14.06 L27.23,16.09 L29.67,14.68 L28.50,12.65 L26.05,14.06 Z" fill="#0078d4" stroke="#0078d4" stroke-width="1" stroke-linejoin="round"/><path d="M21.16,16.88 L22.33,18.91 L24.78,17.50 L23.61,15.48 L21.16,16.89 L21.16,16.88 Z" fill="#0078d4" stroke="#0078d4" stroke-width="1" stroke-linejoin="round"/><path d="M35.85,8.42 L37.02,10.45 L39.47,9.04 L38.29,7.01 L35.85,8.42 Z" fill="#0078d4" stroke="#0078d4" stroke-width="1" stroke-linejoin="round"/><path d="M30.95,11.24 L32.12,13.27 L34.57,11.86 L33.40,9.83 L30.95,11.24 L30.95,11.24 Z" fill="#0078d4" stroke="#0078d4" stroke-width="1" stroke-linejoin="round"/><path d="M62.50,6.67 L63.44,6.35 L64.21,6.50 L64.73,7.08 L64.92,8.05 L65.02,44.14 L64.83,45.33 L64.32,46.51 L63.55,47.54 L62.61,48.30 L12.99,76.90 L12.05,77.22 L11.28,77.07 L10.76,76.49 L10.57,75.52 L10.46,39.43 L10.65,38.25 L11.17,37.07 L11.94,36.03 L12.87,35.27 L62.50,6.67 Z" fill="#155ea1" stroke="#1e1e1e" stroke-width="1" stroke-linejoin="round"/><path d="M63.42,6.35 L64.22,6.51 L62.20,5.30 L61.17,4.98 L60.64,5.03 L60.10,5.28 L10.47,33.87 L9.67,34.50 L9.03,35.26 L8.53,36.12 L8.20,37.05 L8.06,38.04 L8.17,74.12 L8.21,74.71 L8.44,75.20 L9.29,75.95 L11.27,77.07 L10.76,76.48 L10.57,75.52 L10.47,39.43 L10.67,38.21 L11.17,37.06 L11.91,36.06 L12.87,35.27 L62.50,6.68 L63.42,6.36 L63.42,6.35 Z" fill="#2a446f" stroke="#1e1e1e" stroke-width="1" stroke-linejoin="round"/><path d="M77.32,14.75 L78.26,14.43 L79.03,14.58 L79.55,15.16 L79.74,16.13 L79.85,52.22 L79.66,53.41 L79.14,54.59 L78.37,55.62 L77.43,56.38 L27.81,84.98 L26.87,85.30 L26.10,85.15 L25.58,84.56 L25.39,83.59 L25.29,47.51 L25.47,46.32 L25.99,45.14 L26.76,44.10 L27.70,43.34 L77.32,14.75 Z" fill="#238cd9" stroke="#1e1e1e" stroke-width="1" stroke-linejoin="round"/><path d="M78.25,14.43 L79.04,14.59 L77.02,13.38 L75.99,13.06 L75.46,13.11 L74.92,13.36 L25.30,41.95 L24.49,42.58 L23.85,43.34 L23.35,44.20 L23.02,45.13 L22.89,46.12 L22.99,82.20 L23.03,82.79 L23.26,83.28 L24.11,84.03 L26.10,85.15 L25.58,84.56 L25.39,83.60 L25.29,47.51 L25.49,46.29 L25.99,45.14 L26.74,44.14 L27.70,43.35 L77.32,14.76 L78.25,14.44 L78.25,14.43 Z" fill="#0078d4" stroke="#1e1e1e" stroke-width="1" stroke-linejoin="round"/><path d="M92.14,20.34 L93.08,20.02 L93.85,20.17 L94.37,20.75 L94.57,21.72 L94.67,57.81 L94.48,59.00 L93.96,60.18 L93.20,61.21 L92.26,61.97 L42.63,90.57 L41.69,90.89 L40.92,90.74 L40.40,90.15 L40.21,89.18 L40.11,53.10 L40.30,51.91 L40.81,50.73 L41.58,49.69 L42.52,48.93 L92.14,20.34 L92.14,20.34 Z" fill="#8dc8e8" stroke="#1e1e1e" stroke-width="1" stroke-linejoin="round"/><path d="M93.07,20.02 L93.86,20.18 L91.84,18.97 L90.81,18.64 L90.28,18.70 L89.74,18.95 L40.12,47.54 L39.16,48.33 L38.41,49.33 L37.91,50.48 L37.71,51.71 L37.81,87.79 L37.85,88.38 L38.08,88.87 L38.93,89.62 L40.92,90.74 L40.40,90.15 L40.21,89.19 L40.11,53.10 L40.31,51.88 L40.82,50.73 L41.56,49.73 L42.52,48.94 L92.14,20.35 L93.07,20.03 L93.07,20.02 Z" fill="#46a0de" stroke="#1e1e1e" stroke-width="1" stroke-linejoin="round"/><path d="M76.09,41.74 L76.00,42.42 L76.25,42.84 L77.01,43.38 L77.65,44.01 L78.60,45.57 L79.12,47.44 L79.24,49.54 L79.00,51.82 L78.43,54.20 L77.57,56.60 L76.44,58.96 L75.08,61.21 L73.52,63.26 L71.80,65.06 L69.95,66.53 L67.99,67.60 L65.97,68.19 L63.91,68.24 L62.88,68.03 L61.86,67.67 L60.70,66.84 L59.85,65.74 L59.27,64.42 L58.95,62.91 L58.88,61.24 L59.02,59.47 L59.37,57.62 L59.90,55.74 L61.45,52.00 L63.51,48.57 L64.69,47.07 L65.94,45.75 L67.24,44.66 L68.58,43.83 L68.48,44.64 L68.56,44.94 L68.90,44.82 L72.18,41.49 L72.76,41.35 L74.46,41.31 L76.09,41.74 L76.09,41.74 Z" fill="#006aba" stroke="#1e1e1e" stroke-width="1" stroke-linejoin="round"/><path d="M62.79,54.56 L69.05,55.21 L69.02,63.59 L62.75,62.94 L62.79,54.56 Z" fill="#9cebff" stroke="#9cebff" stroke-width="1" stroke-linejoin="round"/><path d="M75.32,47.37 L75.34,55.72 L69.07,63.54 L69.05,58.01 L69.07,55.22 L75.32,47.37 Z" fill="#50e6ff" stroke="#50e6ff" stroke-width="1" stroke-linejoin="round"/><path d="M69.02,46.81 L75.32,47.37 L69.04,55.19 L67.71,55.07 L62.79,54.56 L69.02,46.81 Z" fill="#c3f1ff" stroke="#c3f1ff" stroke-width="1" stroke-linejoin="round"/><path d="M69.33,39.74 L69.53,39.70 L71.06,40.16 L72.45,40.70 L72.43,41.04 L72.11,41.54 L70.93,42.82 L68.92,44.82 L68.58,44.94 L68.49,44.64 L68.60,43.83 L66.72,45.21 L64.94,46.91 L63.30,48.90 L61.85,51.13 L60.86,52.93 L60.08,54.76 L59.49,56.58 L59.10,58.37 L58.91,60.10 L58.91,61.74 L59.11,63.26 L59.49,64.64 L60.06,65.84 L60.81,66.84 L61.75,67.60 L62.87,68.11 L64.17,68.32 L65.64,68.22 L67.29,67.77 L69.10,66.95 L70.47,66.16 L71.81,65.10 L73.11,63.80 L74.33,62.30 L76.49,58.86 L78.13,55.09 L78.70,53.18 L79.08,51.29 L79.26,49.48 L79.20,47.78 L78.89,46.23 L78.32,44.86 L77.45,43.72 L76.27,42.84 L76.06,42.60 L76.02,42.23 L76.27,41.42 L76.80,40.83 L77.13,40.68 L77.48,40.73 L78.95,41.92 L80.04,43.60 L80.73,45.71 L80.99,48.19 L80.79,51.07 L80.14,54.03 L79.08,56.99 L77.65,59.86 L75.91,62.56 L73.91,65.02 L71.68,67.14 L69.28,68.84 L66.91,69.98 L64.67,70.52 L62.62,70.48 L60.82,69.88 L59.32,68.74 L58.16,67.09 L57.42,64.95 L57.14,62.34 L57.34,59.46 L57.99,56.50 L59.06,53.54 L60.48,50.67 L62.22,47.97 L64.22,45.51 L66.45,43.39 L68.85,41.69 L68.96,40.65 L69.08,40.07 L69.34,39.74 L69.33,39.74 Z" fill="#ffffff" stroke="#1e1e1e" stroke-width="1" stroke-linejoin="round"/></svg>