<svg xmlns="http://www.w3.org/2000/svg" viewBox="-0.62 -0.63 100.00 99.99"><path d="M63.43,76.69 L62.95,76.64 L62.75,77.08 L62.73,84.82 L63.05,86.88 L63.95,88.92 L65.27,90.72 L66.90,92.03 L76.03,97.29 L76.37,97.37 L76.59,97.28 L76.68,96.77 L76.45,96.14 L76.03,95.73 L73.65,94.36 L70.85,92.77 L67.67,90.94 L66.24,89.87 L65.09,88.64 L64.33,87.23 L64.08,85.60 L64.10,77.86 L63.91,77.20 L63.43,76.69 L63.43,76.69 Z" fill="#bebfbe" stroke="#bebfbe" stroke-width="1" stroke-linejoin="round"/><path d="M89.53,87.90 L80.40,82.64 L79.69,82.12 L79.05,81.46 L78.07,79.86 L77.81,79.10 L77.65,77.95 L77.56,75.02 L77.61,70.03 L77.26,69.13 L76.88,68.83 L76.45,68.81 L62.94,76.65 L63.42,76.69 L63.91,77.20 L64.10,77.86 L64.08,85.60 L64.34,87.24 L65.10,88.66 L66.25,89.88 L67.66,90.95 L70.82,92.75 L73.64,94.36 L75.74,95.55 L76.59,96.38 L76.70,96.84 L76.50,97.33 L90.00,89.50 L90.20,89.11 L90.12,88.64 L89.53,87.89 L89.53,87.90 Z" fill="#d9d9d6" stroke="#1e1e1e" stroke-width="1" stroke-linejoin="round"/><path d="M1.45,62.64 L1.48,65.66 L3.88,65.27 L3.88,62.64 L1.45,62.64 L1.45,62.64 Z" fill="#0078d4" stroke="#0078d4" stroke-width="1" stroke-linejoin="round"/><path d="M11.69,23.17 L12.90,25.26 L15.42,23.81 L14.21,21.72 L11.69,23.17 Z" fill="#0078d4" stroke="#0078d4" stroke-width="1" stroke-linejoin="round"/><path d="M4.37,30.61 L5.35,29.60 L4.13,27.52 L3.02,28.44 L2.16,29.60 L1.82,30.29 L4.03,31.25 L4.37,30.61 L4.37,30.61 Z" fill="#0078d4" stroke="#0078d4" stroke-width="1" stroke-linejoin="round"/><path d="M6.65,26.07 L7.86,28.15 L10.38,26.71 L9.17,24.62 L6.65,26.07 Z" fill="#0078d4" stroke="#0078d4" stroke-width="1" stroke-linejoin="round"/><path d="M3.79,33.62 L1.38,33.62 L1.38,36.53 L3.80,36.53 L3.79,33.62 Z" fill="#0078d4" stroke="#0078d4" stroke-width="1" stroke-linejoin="round"/><path d="M3.82,45.23 L1.41,45.23 L1.42,48.14 L3.83,48.14 L3.82,45.23 Z" fill="#0078d4" stroke="#0078d4" stroke-width="1" stroke-linejoin="round"/><path d="M3.81,39.43 L1.39,39.43 L1.39,42.34 L3.81,42.34 L3.80,39.43 L3.81,39.43 Z" fill="#0078d4" stroke="#0078d4" stroke-width="1" stroke-linejoin="round"/><path d="M3.86,56.84 L1.44,56.84 L1.44,59.74 L3.86,59.74 L3.85,56.84 L3.86,56.84 Z" fill="#0078d4" stroke="#0078d4" stroke-width="1" stroke-linejoin="round"/><path d="M3.84,51.03 L1.43,51.03 L1.43,53.94 L3.85,53.94 L3.84,51.03 Z" fill="#0078d4" stroke="#0078d4" stroke-width="1" stroke-linejoin="round"/><path d="M6.14,66.92 L5.27,66.42 L4.21,68.22 L4.05,68.50 L4.86,68.98 L5.74,69.26 L6.65,69.26 L7.55,68.92 L6.41,66.79 L6.14,66.92 L6.14,66.92 Z" fill="#0078d4" stroke="#0078d4" stroke-width="1" stroke-linejoin="round"/><path d="M16.73,20.27 L17.93,22.36 L20.45,20.91 L19.24,18.82 L16.73,20.27 L16.73,20.27 Z" fill="#0078d4" stroke="#0078d4" stroke-width="1" stroke-linejoin="round"/><path d="M41.91,5.76 L43.11,7.85 L45.63,6.40 L44.43,4.31 L41.91,5.76 L41.91,5.76 Z" fill="#0078d4" stroke="#0078d4" stroke-width="1" stroke-linejoin="round"/><path d="M54.42,2.53 L53.33,1.90 L52.11,3.98 L52.94,4.44 L53.19,4.66 L53.25,4.99 L55.67,4.98 L55.58,4.20 L55.34,3.51 L54.95,2.95 L54.42,2.53 L54.42,2.53 Z" fill="#0078d4" stroke="#0078d4" stroke-width="1" stroke-linejoin="round"/><path d="M55.68,7.71 L53.26,7.71 L53.26,10.62 L55.68,10.62 L55.67,7.71 L55.68,7.71 Z" fill="#0078d4" stroke="#0078d4" stroke-width="1" stroke-linejoin="round"/><path d="M49.52,1.37 L46.94,2.86 L48.15,4.95 L50.65,3.51 L50.90,3.31 L50.09,2.43 L49.52,1.38 L49.52,1.37 Z" fill="#0078d4" stroke="#0078d4" stroke-width="1" stroke-linejoin="round"/><path d="M26.80,14.47 L28.01,16.55 L30.52,15.10 L29.32,13.01 L26.80,14.47 Z" fill="#0078d4" stroke="#0078d4" stroke-width="1" stroke-linejoin="round"/><path d="M21.76,17.36 L22.97,19.45 L25.49,18.01 L24.28,15.92 L21.76,17.37 L21.76,17.36 Z" fill="#0078d4" stroke="#0078d4" stroke-width="1" stroke-linejoin="round"/><path d="M36.87,8.66 L38.08,10.75 L40.60,9.30 L39.39,7.21 L36.87,8.66 Z" fill="#0078d4" stroke="#0078d4" stroke-width="1" stroke-linejoin="round"/><path d="M31.84,11.56 L33.04,13.65 L35.56,12.20 L34.35,10.11 L31.84,11.56 L31.84,11.56 Z" fill="#0078d4" stroke="#0078d4" stroke-width="1" stroke-linejoin="round"/><path d="M64.29,6.86 L65.25,6.53 L66.05,6.69 L66.58,7.29 L66.78,8.28 L66.89,45.40 L66.69,46.62 L66.16,47.84 L65.37,48.91 L64.41,49.69 L13.36,79.10 L12.40,79.44 L11.60,79.28 L11.07,78.68 L10.87,77.68 L10.76,40.56 L10.96,39.34 L11.49,38.13 L12.28,37.06 L13.24,36.28 L64.29,6.86 Z" fill="#155ea1" stroke="#1e1e1e" stroke-width="1" stroke-linejoin="round"/><path d="M65.24,6.53 L66.06,6.69 L63.98,5.45 L62.92,5.12 L62.37,5.17 L61.82,5.43 L10.77,34.84 L9.95,35.48 L9.29,36.27 L8.77,37.15 L8.43,38.12 L8.29,39.13 L8.40,76.24 L8.44,76.85 L8.68,77.35 L9.56,78.13 L11.60,79.27 L11.07,78.67 L10.87,77.68 L10.77,40.56 L10.98,39.30 L11.49,38.12 L12.26,37.09 L13.24,36.28 L64.29,6.87 L65.24,6.54 L65.24,6.53 Z" fill="#2a446f" stroke="#1e1e1e" stroke-width="1" stroke-linejoin="round"/><path d="M79.53,15.17 L80.50,14.84 L81.29,15.00 L81.83,15.60 L82.03,16.60 L82.13,53.71 L81.94,54.94 L81.41,56.15 L80.62,57.22 L79.65,58.00 L28.61,87.41 L27.64,87.74 L26.85,87.59 L26.31,86.99 L26.11,85.99 L26.01,48.87 L26.20,47.65 L26.73,46.43 L27.52,45.37 L28.49,44.58 L79.53,15.17 Z" fill="#238cd9" stroke="#1e1e1e" stroke-width="1" stroke-linejoin="round"/><path d="M80.49,14.85 L81.30,15.00 L79.23,13.76 L78.16,13.43 L77.62,13.48 L77.06,13.74 L26.02,43.15 L25.19,43.79 L24.54,44.58 L24.02,45.46 L23.68,46.43 L23.54,47.44 L23.64,84.56 L23.69,85.16 L23.93,85.66 L24.80,86.44 L26.84,87.58 L26.31,86.98 L26.12,85.99 L26.01,48.88 L26.22,47.61 L26.74,46.43 L27.50,45.40 L28.49,44.59 L79.53,15.18 L80.49,14.85 L80.49,14.85 Z" fill="#0078d4" stroke="#1e1e1e" stroke-width="1" stroke-linejoin="round"/><path d="M94.78,20.92 L95.74,20.59 L96.54,20.75 L97.07,21.35 L97.27,22.34 L97.38,59.46 L97.18,60.69 L96.65,61.90 L95.86,62.97 L94.90,63.75 L43.86,93.16 L42.89,93.49 L42.09,93.33 L41.56,92.73 L41.36,91.74 L41.25,54.62 L41.45,53.40 L41.98,52.18 L42.77,51.12 L43.73,50.33 L94.78,20.92 L94.78,20.92 Z" fill="#8dc8e8" stroke="#1e1e1e" stroke-width="1" stroke-linejoin="round"/><path d="M95.73,20.59 L96.55,20.75 L94.47,19.51 L93.41,19.18 L92.86,19.23 L92.31,19.49 L41.27,48.90 L40.28,49.71 L39.51,50.74 L38.99,51.93 L38.79,53.19 L38.89,90.31 L38.93,90.91 L39.17,91.41 L40.05,92.19 L42.09,93.33 L41.56,92.73 L41.36,91.74 L41.26,54.62 L41.47,53.36 L41.98,52.18 L42.75,51.15 L43.73,50.34 L94.78,20.93 L95.73,20.60 L95.73,20.59 Z" fill="#46a0de" stroke="#1e1e1e" stroke-width="1" stroke-linejoin="round"/><path d="M78.27,42.94 L78.17,43.63 L78.43,44.07 L79.21,44.62 L79.88,45.27 L80.85,46.87 L81.38,48.79 L81.51,50.96 L81.26,53.31 L80.68,55.75 L79.79,58.23 L78.63,60.65 L77.23,62.96 L75.63,65.08 L73.86,66.92 L71.95,68.43 L69.94,69.53 L67.86,70.14 L65.74,70.19 L64.68,69.98 L63.63,69.61 L62.44,68.75 L61.56,67.62 L60.97,66.26 L60.64,64.71 L60.56,63.00 L60.71,61.17 L61.07,59.27 L61.62,57.33 L63.21,53.49 L65.33,49.97 L66.54,48.42 L67.82,47.06 L69.17,45.94 L70.54,45.09 L70.44,45.92 L70.52,46.23 L70.87,46.10 L74.25,42.68 L74.84,42.54 L76.60,42.50 L78.27,42.93 L78.27,42.94 Z" fill="#006aba" stroke="#1e1e1e" stroke-width="1" stroke-linejoin="round"/><path d="M64.59,56.12 L71.02,56.79 L71.00,65.42 L64.55,64.75 L64.59,56.12 Z" fill="#9cebff" stroke="#9cebff" stroke-width="1" stroke-linejoin="round"/><path d="M77.48,48.73 L77.50,57.32 L71.04,65.36 L71.03,59.67 L71.04,56.80 L77.48,48.73 Z" fill="#50e6ff" stroke="#50e6ff" stroke-width="1" stroke-linejoin="round"/><path d="M70.99,48.15 L77.48,48.73 L71.02,56.77 L69.65,56.65 L64.59,56.12 L70.99,48.15 Z" fill="#c3f1ff" stroke="#c3f1ff" stroke-width="1" stroke-linejoin="round"/><path d="M71.32,40.88 L71.52,40.84 L73.09,41.31 L74.52,41.87 L74.50,42.21 L74.18,42.73 L72.97,44.05 L70.89,46.10 L70.54,46.23 L70.45,45.92 L70.56,45.09 L68.63,46.50 L66.80,48.26 L65.12,50.30 L63.62,52.59 L62.61,54.44 L61.80,56.32 L61.19,58.20 L60.80,60.04 L60.60,61.82 L60.60,63.51 L60.80,65.07 L61.19,66.49 L61.78,67.72 L62.55,68.75 L63.52,69.54 L64.67,70.06 L66.00,70.28 L67.52,70.17 L69.21,69.71 L71.08,68.87 L72.49,68.06 L73.87,66.96 L75.20,65.63 L76.46,64.08 L78.68,60.55 L80.36,56.67 L80.95,54.70 L81.35,52.76 L81.53,50.90 L81.47,49.15 L81.15,47.55 L80.56,46.15 L79.66,44.97 L78.45,44.07 L78.24,43.82 L78.19,43.43 L78.45,42.61 L78.99,42.00 L79.34,41.85 L79.70,41.89 L81.21,43.12 L82.33,44.85 L83.04,47.01 L83.31,49.57 L83.11,52.53 L82.43,55.57 L81.34,58.62 L79.88,61.57 L78.09,64.35 L76.02,66.88 L73.73,69.06 L71.26,70.81 L68.82,71.98 L66.52,72.54 L64.41,72.49 L62.56,71.88 L61.01,70.71 L59.83,69.01 L59.07,66.81 L58.78,64.13 L58.98,61.16 L59.66,58.12 L60.75,55.08 L62.21,52.12 L64.00,49.34 L66.06,46.82 L68.35,44.64 L70.82,42.88 L70.93,41.81 L71.06,41.22 L71.32,40.88 L71.32,40.88 Z" fill="#ffffff" stroke="#1e1e1e" stroke-width="1" stroke-linejoin="round"/></svg>