<svg xmlns="http://www.w3.org/2000/svg" viewBox="0.13 2.02 95.71 91.97"><path d="M32.37,25.97 L26.30,25.73 L20.65,25.08 L15.53,24.05 L11.08,22.70 L7.41,21.07 L5.90,20.16 L4.63,19.20 L3.62,18.19 L2.88,17.14 L2.43,16.05 L2.28,14.93 L2.13,73.30 L2.29,74.41 L2.73,75.50 L3.46,76.54 L4.46,77.55 L5.70,78.50 L7.19,79.41 L10.81,81.03 L15.20,82.39 L20.24,83.42 L25.82,84.09 L31.82,84.35 L32.23,84.35 L38.31,84.14 L43.96,83.52 L49.08,82.52 L53.55,81.19 L57.23,79.58 L58.74,78.68 L60.01,77.72 L61.03,76.72 L61.77,75.67 L62.23,74.58 L62.39,73.46 L62.54,15.07 L62.38,16.19 L61.92,17.28 L61.17,18.33 L60.15,19.34 L58.88,20.29 L57.37,21.19 L53.69,22.81 L49.22,24.14 L44.10,25.14 L38.45,25.76 L32.37,25.97 Z" fill="#006aba" stroke="#1e1e1e" stroke-width="1" stroke-linejoin="round"/><path d="M62.53,15.07 L62.37,16.19 L61.91,17.28 L61.17,18.33 L60.16,19.34 L58.89,20.29 L57.37,21.19 L53.69,22.81 L49.23,24.14 L44.11,25.14 L38.45,25.76 L32.37,25.97 L26.30,25.73 L20.65,25.08 L15.53,24.05 L11.08,22.70 L7.41,21.07 L5.90,20.16 L4.63,19.20 L3.62,18.19 L2.88,17.14 L2.43,16.05 L2.28,14.93 L2.44,13.81 L2.89,12.73 L3.64,11.68 L4.65,10.67 L5.93,9.72 L7.44,8.81 L11.12,7.19 L15.58,5.86 L20.70,4.85 L26.36,4.23 L32.43,4.02 L38.50,4.25 L44.16,4.91 L49.27,5.93 L53.73,7.29 L57.40,8.92 L58.91,9.83 L60.17,10.79 L61.18,11.80 L61.92,12.86 L62.38,13.95 L62.53,15.07 Z" fill="#e6e6e6" stroke="#1e1e1e" stroke-width="1" stroke-linejoin="round"/><path d="M55.47,14.17 L55.35,14.88 L55.00,15.57 L54.43,16.24 L53.65,16.88 L51.52,18.05 L48.69,19.08 L45.27,19.92 L41.35,20.56 L37.01,20.96 L32.36,21.10 L27.70,20.95 L23.37,20.54 L19.45,19.88 L16.04,19.02 L13.22,17.97 L11.10,16.78 L10.32,16.14 L9.76,15.47 L9.41,14.77 L9.29,14.06 L9.41,13.35 L9.76,12.67 L10.33,12.00 L11.11,11.36 L13.25,10.19 L16.07,9.16 L19.49,8.31 L23.41,7.67 L27.75,7.27 L32.41,7.13 L37.06,7.28 L41.39,7.69 L45.31,8.35 L48.73,9.21 L51.55,10.26 L53.67,11.45 L54.45,12.10 L55.02,12.77 L55.36,13.46 L55.48,14.17" fill="none" stroke="#1e1e1e" stroke-width="1" stroke-linejoin="round"/><path d="M32.39,15.71 L26.21,15.90 L20.09,16.77 L14.10,18.31 L20.08,19.94 L26.20,20.87 L32.39,21.08 L38.58,20.90 L44.71,20.01 L50.69,18.42 L44.70,16.84 L38.58,15.93 L32.39,15.71 L32.39,15.71 Z" fill="#198ab3" stroke="#198ab3" stroke-width="1" stroke-linejoin="round"/><path d="M30.14,91.98 L61.89,91.98 L62.76,91.81 L63.49,91.32 L93.24,61.25 L93.85,60.10 L93.71,58.81 L92.88,57.82 L91.64,57.45 L30.14,57.45 L29.03,57.75 L28.21,58.56 L27.91,59.68 L27.91,89.75 L28.21,90.87 L29.03,91.69 L30.14,91.98 L30.14,91.98 Z" fill="#3ccbe8" stroke="#1e1e1e" stroke-width="1" stroke-linejoin="round"/><path d="M62.53,67.67 L62.53,80.50 L51.45,86.94 L51.45,74.11 L62.53,67.67 Z" fill="#ffffff" stroke="#ffffff" stroke-width="1" stroke-linejoin="round" opacity="0.6"/><path d="M62.53,67.67 L51.45,74.12 L40.35,67.66 L51.45,61.22 L62.53,67.67 Z" fill="#ffffff" stroke="#ffffff" stroke-width="1" stroke-linejoin="round" opacity="0.9"/><path d="M51.45,74.12 L51.45,86.94 L40.35,80.50 L40.35,67.66 L51.45,74.12 Z" fill="#ffffff" stroke="#ffffff" stroke-width="1" stroke-linejoin="round" opacity="0.75"/></svg>