<svg xmlns="http://www.w3.org/2000/svg" viewBox="0.23 2.20 100.00 96.08"><path d="M33.89,27.18 L27.53,26.93 L21.61,26.25 L16.26,25.18 L11.60,23.76 L7.75,22.05 L6.17,21.10 L4.85,20.10 L3.79,19.04 L3.02,17.94 L2.54,16.80 L2.38,15.63 L2.23,76.73 L2.39,77.89 L2.86,79.03 L3.62,80.12 L4.67,81.17 L5.97,82.17 L7.52,83.12 L11.31,84.82 L15.91,86.24 L21.19,87.32 L27.03,88.02 L33.31,88.30 L33.74,88.30 L40.10,88.08 L46.02,87.42 L51.38,86.38 L56.05,84.99 L59.90,83.30 L61.49,82.36 L62.82,81.35 L63.88,80.30 L64.66,79.20 L65.14,78.06 L65.31,76.89 L65.46,15.77 L65.30,16.95 L64.81,18.09 L64.03,19.19 L62.97,20.24 L61.64,21.24 L60.05,22.19 L56.20,23.88 L51.52,25.27 L46.17,26.31 L40.24,26.97 L33.89,27.18 Z" fill="#006aba" stroke="#1e1e1e" stroke-width="1" stroke-linejoin="round"/><path d="M65.45,15.78 L65.29,16.95 L64.81,18.09 L64.03,19.19 L62.97,20.24 L61.64,21.24 L60.06,22.18 L56.20,23.87 L51.53,25.27 L46.17,26.31 L40.24,26.97 L33.89,27.18 L27.53,26.93 L21.61,26.25 L16.26,25.18 L11.60,23.76 L7.75,22.05 L6.17,21.10 L4.85,20.10 L3.79,19.04 L3.02,17.94 L2.54,16.80 L2.38,15.63 L2.55,14.46 L3.03,13.32 L3.81,12.22 L4.87,11.17 L6.20,10.17 L7.78,9.22 L11.64,7.53 L16.31,6.13 L21.67,5.08 L27.59,4.42 L33.95,4.20 L40.31,4.45 L46.22,5.14 L51.58,6.21 L56.24,7.63 L60.09,9.34 L61.66,10.29 L62.99,11.30 L64.04,12.36 L64.82,13.46 L65.29,14.60 L65.45,15.78 Z" fill="#e6e6e6" stroke="#1e1e1e" stroke-width="1" stroke-linejoin="round"/><path d="M58.06,14.83 L57.94,15.57 L57.57,16.30 L56.97,17.00 L56.16,17.66 L53.93,18.90 L50.97,19.97 L47.39,20.85 L43.28,21.52 L38.74,21.94 L33.87,22.09 L29.00,21.93 L24.46,21.50 L20.36,20.81 L16.79,19.91 L13.84,18.82 L11.62,17.57 L10.81,16.89 L10.21,16.19 L9.85,15.47 L9.73,14.72 L9.85,13.98 L10.22,13.26 L10.82,12.56 L11.63,11.89 L13.86,10.66 L16.82,9.59 L20.40,8.70 L24.51,8.03 L29.05,7.61 L33.92,7.46 L38.79,7.62 L43.33,8.05 L47.43,8.74 L51.01,9.64 L53.96,10.74 L56.18,11.99 L56.99,12.66 L57.59,13.36 L57.95,14.09 L58.08,14.83 L58.06,14.83 Z" fill="#50e6ff" stroke="#1e1e1e" stroke-width="1" stroke-linejoin="round"/><path d="M33.91,16.45 L27.44,16.64 L21.03,17.55 L14.76,19.17 L21.02,20.87 L27.43,21.84 L33.90,22.07 L40.38,21.88 L46.80,20.95 L53.06,19.28 L46.79,17.62 L40.38,16.68 L33.91,16.45 L33.91,16.45 Z" fill="#198ab3" stroke="#198ab3" stroke-width="1" stroke-linejoin="round"/><path d="M31.55,96.29 L64.79,96.29 L65.69,96.11 L66.46,95.59 L97.60,64.11 L98.23,62.91 L98.09,61.56 L97.23,60.52 L95.93,60.13 L31.55,60.13 L30.39,60.45 L29.53,61.30 L29.22,62.47 L29.22,93.95 L29.53,95.12 L30.39,95.97 L31.55,96.29 L31.55,96.29 Z" fill="#3ccbe8" stroke="#1e1e1e" stroke-width="1" stroke-linejoin="round"/><path d="M65.45,70.84 L65.45,84.27 L53.85,91.01 L53.85,77.57 L65.45,70.84 Z" fill="#ffffff" stroke="#ffffff" stroke-width="1" stroke-linejoin="round" opacity="0.6"/><path d="M65.45,70.84 L53.85,77.58 L42.24,70.83 L53.85,64.08 L65.45,70.84 Z" fill="#ffffff" stroke="#1e1e1e" stroke-width="1" stroke-linejoin="round" opacity="0.9"/><path d="M53.85,77.58 L53.85,91.01 L42.24,84.27 L42.24,70.83 L53.85,77.58 Z" fill="#ffffff" stroke="#ffffff" stroke-width="1" stroke-linejoin="round" opacity="0.75"/></svg>