<svg xmlns="http://www.w3.org/2000/svg" viewBox="-0.45 -1.36 96.48 100.00"><ellipse cx="48.05" cy="59.31" rx="32.37" ry="13.28" fill="#76bc2d" stroke="#1e1e1e" stroke-width="1"/><ellipse cx="48.85" cy="59.20" rx="10.77" ry="2.93" fill="#5e9624" stroke="#5e9624" stroke-width="1"/><path d="M75.63,66.13 L75.63,66.13" fill="none" stroke="#4394e7" stroke-width="1" stroke-linejoin="round"/><ellipse cx="48.05" cy="29.81" rx="32.37" ry="13.28" fill="#318ce2" stroke="#1e1e1e" stroke-width="1"/><ellipse cx="48.85" cy="29.65" rx="10.77" ry="2.93" fill="#005ba1" stroke="#005ba1" stroke-width="1"/><path d="M20.75,0.64 L4.75,0.64 L3.52,0.85 L2.47,1.53 L1.78,2.56 L1.55,3.79 L1.55,19.79 L1.75,20.56 L2.32,21.13 L3.09,21.33 L4.85,21.33 L5.65,21.14 L6.24,20.58 L6.45,19.79 L6.45,5.33 L20.75,5.33 L21.54,5.14 L22.13,4.58 L22.35,3.79 L22.35,2.24 L22.15,1.43 L21.56,0.84 L20.75,0.64 L20.75,0.64 Z" fill="#949494" stroke="#1e1e1e" stroke-width="1" stroke-linejoin="round"/><path d="M90.67,0.64 L74.67,0.64 L73.87,0.85 L73.28,1.44 L73.07,2.24 L73.07,3.95 L73.60,4.94 L74.67,5.33 L89.01,5.33 L89.01,19.73 L89.22,20.56 L89.83,21.16 L90.67,21.33 L92.43,21.33 L93.22,21.14 L93.81,20.58 L94.03,19.79 L94.03,3.79 L94.03,3.79 L93.77,2.53 L93.03,1.48 L91.94,0.82 L90.67,0.64 L90.67,0.64 Z" fill="#949494" stroke="#1e1e1e" stroke-width="1" stroke-linejoin="round"/><path d="M20.75,91.79 L6.45,91.79 L6.45,77.39 L6.24,76.60 L5.65,76.03 L4.85,75.84 L3.09,75.84 L2.32,76.05 L1.75,76.61 L1.55,77.39 L1.55,93.39 L1.55,93.39 L1.77,94.59 L2.43,95.61 L3.44,96.29 L4.64,96.53 L20.64,96.53 L21.44,96.34 L22.02,95.78 L22.24,94.99 L22.24,93.28 L21.77,92.25 L20.75,91.79 L20.75,91.79 Z" fill="#949494" stroke="#1e1e1e" stroke-width="1" stroke-linejoin="round"/><path d="M92.21,75.84 L90.67,75.84 L89.89,76.05 L89.33,76.61 L89.12,77.39 L89.12,91.79 L74.67,91.79 L73.88,92.02 L73.30,92.60 L73.07,93.39 L73.07,95.09 L73.30,95.87 L73.88,96.43 L74.67,96.64 L90.67,96.64 L91.87,96.40 L92.89,95.72 L93.57,94.70 L93.81,93.49 L93.81,77.49 L93.64,76.66 L93.04,76.05 L92.21,75.84 Z" fill="#949494" stroke="#1e1e1e" stroke-width="1" stroke-linejoin="round"/><path d="M48.00,72.32 L54.52,72.05 L60.60,71.28 L66.09,70.06 L70.89,68.44 L72.98,67.50 L74.84,66.48 L76.46,65.38 L77.83,64.22 L78.92,63.00 L79.72,61.72 L80.21,60.40 L80.37,59.04 L80.37,59.04 L80.37,66.88 L80.37,66.88 L80.14,68.21 L79.59,69.50 L78.75,70.74 L77.62,71.95 L76.23,73.09 L74.59,74.17 L72.72,75.18 L70.63,76.12 L65.86,77.73 L60.41,78.95 L54.41,79.73 L48.00,80.00 L41.57,79.73 L35.54,78.95 L30.05,77.72 L25.23,76.10 L23.13,75.16 L21.24,74.13 L19.60,73.04 L18.22,71.88 L17.11,70.66 L16.30,69.39 L15.80,68.07 L15.63,66.72 L15.63,59.04 L15.80,60.40 L16.30,61.72 L17.11,63.00 L18.20,64.22 L19.57,65.38 L21.20,66.48 L23.06,67.50 L25.15,68.44 L29.94,70.06 L35.43,71.28 L41.50,72.05 L48.00,72.32 Z" fill="#5e9624" stroke="#1e1e1e" stroke-width="1" stroke-linejoin="round"/><path d="M75.63,66.13 L75.63,66.13" fill="none" stroke="#4394e7" stroke-width="1" stroke-linejoin="round"/><path d="M48.00,42.67 L54.52,42.40 L60.60,41.62 L66.09,40.39 L70.89,38.77 L72.98,37.82 L74.84,36.80 L76.46,35.70 L77.83,34.54 L78.92,33.33 L79.72,32.06 L80.21,30.74 L80.37,29.39 L80.37,29.39 L80.37,37.33 L80.37,37.33 L80.14,38.66 L79.59,39.96 L78.75,41.20 L77.62,42.39 L76.23,43.52 L74.59,44.58 L72.72,45.57 L70.63,46.49 L65.86,48.05 L60.41,49.24 L54.41,49.98 L48.00,50.24 L41.57,49.97 L35.55,49.19 L30.06,47.96 L25.26,46.33 L23.16,45.39 L21.28,44.36 L19.64,43.26 L18.26,42.09 L17.16,40.87 L16.35,39.59 L15.85,38.27 L15.68,36.91 L15.68,29.55 L15.85,30.90 L16.34,32.21 L17.14,33.47 L18.22,34.68 L19.59,35.83 L21.21,36.91 L23.07,37.92 L25.16,38.85 L29.95,40.44 L35.43,41.64 L41.50,42.40 L48.00,42.67 Z" fill="#0078d4" stroke="#1e1e1e" stroke-width="1" stroke-linejoin="round"/></svg>