<svg xmlns="http://www.w3.org/2000/svg" viewBox="0.82 0.82 99.94 100.00"><path d="M11.96,2.82 L23.14,2.82 L23.14,6.04 L11.96,6.04 L11.96,2.82 Z" fill="#0078d4" stroke="#0078d4" stroke-width="1" stroke-linejoin="round"/><path d="M93.80,6.04 L95.60,6.04 L95.60,7.73 L98.71,7.73 L98.71,2.82 L93.80,2.82 L93.80,6.04 Z" fill="#0078d4" stroke="#0078d4" stroke-width="1" stroke-linejoin="round"/><path d="M7.90,95.38 L6.32,95.38 L6.32,93.57 L2.82,93.57 L2.82,98.82 L7.90,98.82 L7.90,95.44 L7.90,95.38 Z" fill="#0078d4" stroke="#0078d4" stroke-width="1" stroke-linejoin="round"/><path d="M95.66,93.69 L95.66,95.38 L93.86,95.38 L93.86,98.77 L98.77,98.77 L98.77,93.69 L95.66,93.69 L95.66,93.69 Z" fill="#0078d4" stroke="#0078d4" stroke-width="1" stroke-linejoin="round"/><path d="M6.38,7.68 L6.38,5.98 L7.96,5.98 L7.96,2.82 L2.82,2.82 L2.82,7.68 L6.38,7.68 L6.38,7.68 Z" fill="#0078d4" stroke="#0078d4" stroke-width="1" stroke-linejoin="round"/><path d="M28.61,2.82 L39.73,2.82 L39.73,6.04 L28.61,6.04 L28.61,2.82 Z" fill="#0078d4" stroke="#0078d4" stroke-width="1" stroke-linejoin="round"/><path d="M45.15,2.82 L56.27,2.82 L56.27,6.04 L45.15,6.04 L45.15,2.82 Z" fill="#0078d4" stroke="#0078d4" stroke-width="1" stroke-linejoin="round"/><path d="M61.86,2.82 L72.97,2.82 L72.97,6.04 L61.86,6.04 L61.86,2.82 Z" fill="#0078d4" stroke="#0078d4" stroke-width="1" stroke-linejoin="round"/><path d="M78.45,2.82 L89.57,2.82 L89.57,6.04 L78.45,6.04 L78.45,2.82 Z" fill="#0078d4" stroke="#0078d4" stroke-width="1" stroke-linejoin="round"/><path d="M12.08,95.38 L23.14,95.38 L23.14,98.60 L12.08,98.60 L12.08,95.38 Z" fill="#0078d4" stroke="#0078d4" stroke-width="1" stroke-linejoin="round"/><path d="M28.67,95.38 L39.79,95.38 L39.79,98.60 L28.67,98.60 L28.67,95.38 Z" fill="#0078d4" stroke="#0078d4" stroke-width="1" stroke-linejoin="round"/><path d="M45.32,95.38 L56.44,95.38 L56.44,98.60 L45.32,98.60 L45.32,95.38 Z" fill="#0078d4" stroke="#0078d4" stroke-width="1" stroke-linejoin="round"/><path d="M61.97,95.38 L73.09,95.38 L73.09,98.60 L61.97,98.60 L61.97,95.38 Z" fill="#0078d4" stroke="#0078d4" stroke-width="1" stroke-linejoin="round"/><path d="M78.56,95.38 L89.68,95.38 L89.68,98.60 L78.56,98.60 L78.56,95.38 Z" fill="#0078d4" stroke="#0078d4" stroke-width="1" stroke-linejoin="round"/><path d="M95.49,11.57 L98.71,11.57 L98.71,22.69 L95.49,22.69 L95.49,11.57 Z" fill="#0078d4" stroke="#0078d4" stroke-width="1" stroke-linejoin="round"/><path d="M95.49,28.22 L98.71,28.22 L98.71,39.34 L95.49,39.34 L95.49,28.22 Z" fill="#0078d4" stroke="#0078d4" stroke-width="1" stroke-linejoin="round"/><path d="M95.49,44.81 L98.71,44.81 L98.71,55.87 L95.49,55.87 L95.49,44.81 Z" fill="#0078d4" stroke="#0078d4" stroke-width="1" stroke-linejoin="round"/><path d="M95.49,61.40 L98.71,61.40 L98.71,72.52 L95.49,72.52 L95.49,61.40 Z" fill="#0078d4" stroke="#0078d4" stroke-width="1" stroke-linejoin="round"/><path d="M95.49,78.05 L98.71,78.05 L98.71,89.17 L95.49,89.17 L95.49,78.05 Z" fill="#0078d4" stroke="#0078d4" stroke-width="1" stroke-linejoin="round"/><path d="M2.82,11.46 L6.04,11.46 L6.04,22.57 L2.82,22.57 L2.82,11.46 Z" fill="#0078d4" stroke="#0078d4" stroke-width="1" stroke-linejoin="round"/><path d="M2.82,28.11 L6.04,28.11 L6.04,39.22 L2.82,39.22 L2.82,28.11 Z" fill="#0078d4" stroke="#0078d4" stroke-width="1" stroke-linejoin="round"/><path d="M2.82,44.70 L6.04,44.70 L6.04,55.87 L2.82,55.87 L2.82,44.70 Z" fill="#0078d4" stroke="#0078d4" stroke-width="1" stroke-linejoin="round"/><path d="M2.82,61.35 L6.04,61.35 L6.04,72.47 L2.82,72.47 L2.82,61.35 Z" fill="#0078d4" stroke="#0078d4" stroke-width="1" stroke-linejoin="round"/><path d="M2.82,77.88 L6.04,77.88 L6.04,89.00 L2.82,89.00 L2.82,77.88 Z" fill="#0078d4" stroke="#0078d4" stroke-width="1" stroke-linejoin="round"/><path d="M58.13,62.08 L56.59,59.95 L55.79,57.44 L55.79,54.81 L56.59,52.31 L58.13,50.17 L62.42,45.88 L54.93,44.65 L47.35,44.25 L41.03,44.50 L35.15,45.24 L29.83,46.41 L25.19,47.97 L21.37,49.87 L19.80,50.93 L18.49,52.06 L17.43,53.24 L16.66,54.49 L16.19,55.78 L16.03,57.11 L16.19,58.45 L16.66,59.74 L17.42,60.98 L18.47,62.17 L19.78,63.30 L21.34,64.36 L25.14,66.26 L29.76,67.82 L35.08,68.99 L40.96,69.73 L47.29,69.98 L52.86,69.69 L58.39,68.94 L63.83,67.72 L58.13,62.08 Z" fill="#76bc2d" stroke="#1e1e1e" stroke-width="1" stroke-linejoin="round"/><ellipse cx="47.29" cy="28.50" rx="31.27" ry="12.87" fill="#2688df" stroke="#1e1e1e" stroke-width="1"/><ellipse cx="48.03" cy="28.33" rx="10.38" ry="2.82" fill="#005ba1" stroke="#005ba1" stroke-width="1"/><path d="M87.93,60.11 L89.01,58.66 L89.58,56.95 L89.58,55.14 L89.01,53.42 L87.93,51.98 L78.00,41.99 L76.55,40.91 L74.84,40.34 L73.03,40.34 L71.32,40.91 L69.87,41.99 L59.94,51.92 L58.85,53.37 L58.28,55.08 L58.28,56.89 L58.85,58.60 L59.94,60.05 L68.23,68.51 L68.56,69.04 L68.68,69.64 L68.68,85.05 L68.84,85.78 L69.25,86.41 L73.03,90.19 L73.96,90.56 L74.89,90.19 L80.65,84.43 L80.86,83.89 L80.65,83.36 L78.96,81.78 L78.69,81.21 L78.96,80.65 L80.48,79.07 L80.69,78.53 L80.48,78.00 L78.96,76.47 L78.69,75.88 L78.96,75.29 L80.48,73.76 L80.69,73.23 L80.48,72.69 L78.34,70.43 L78.34,69.70 L87.93,60.11 Z" fill="#0078d4" stroke="#0078d4" stroke-width="1" stroke-linejoin="round"/><path d="M73.93,44.42 L75.60,44.46 L77.02,45.32 L77.84,46.77 L77.84,48.44 L77.02,49.89 L75.60,50.75 L73.93,50.79 L72.30,50.36 L71.10,49.16 L70.66,47.52 L71.10,45.88 L72.30,44.69 L73.93,44.25 L73.93,44.42 Z" fill="#ffffff" stroke="#ffffff" stroke-width="1" stroke-linejoin="round"/><path d="M68.01,40.07 L69.66,38.78 L71.58,37.93 L73.65,37.59 L75.53,37.82 L77.32,38.43 L77.94,37.13 L78.28,35.72 L78.28,28.22 L78.12,29.53 L77.64,30.79 L76.87,32.02 L75.82,33.20 L74.51,34.32 L72.94,35.37 L69.12,37.27 L64.49,38.84 L59.18,40.02 L53.31,40.77 L47.01,41.03 L40.72,40.77 L34.88,40.04 L29.60,38.87 L25.02,37.31 L21.24,35.42 L19.69,34.37 L18.39,33.24 L17.36,32.06 L16.60,30.83 L16.13,29.54 L15.97,28.22 L15.97,35.33 L16.13,36.65 L16.61,37.92 L17.38,39.16 L18.43,40.34 L19.75,41.47 L21.31,42.53 L25.14,44.43 L29.77,46.00 L35.09,47.19 L40.97,47.94 L47.29,48.20 L54.33,47.87 L61.29,46.84 L68.01,40.07 Z" fill="#0078d4" stroke="#1e1e1e" stroke-width="1" stroke-linejoin="round"/><path d="M71.39,85.22 L71.90,85.42 L72.41,85.22 L72.45,84.99 L72.41,84.77 L72.41,72.07 L72.30,71.73 L72.07,71.45 L71.59,71.27 L71.11,71.45 L71.06,71.65 L71.11,71.84 L71.11,84.66 L71.18,84.98 L71.39,85.22 Z" fill="#c3f1ff" stroke="#c3f1ff" stroke-width="1" stroke-linejoin="round" opacity="0.75"/><path d="M81.44,55.25 L81.67,55.28 L81.89,55.37 L82.08,55.52 L82.22,55.70 L82.31,55.92 L82.34,56.16 L82.34,56.27 L82.31,56.50 L82.22,56.72 L82.08,56.91 L81.89,57.05 L81.67,57.14 L81.44,57.17 L66.93,57.17 L66.70,57.14 L66.48,57.05 L66.30,56.91 L66.15,56.72 L66.06,56.50 L66.03,56.27 L66.03,56.16 L66.06,55.92 L66.15,55.70 L66.30,55.52 L66.48,55.37 L66.70,55.28 L66.93,55.25 L81.44,55.25 Z" fill="#c3f1ff" stroke="#c3f1ff" stroke-width="1" stroke-linejoin="round" opacity="0.75"/><path d="M81.44,58.41 L81.67,58.44 L81.89,58.53 L82.08,58.68 L82.22,58.86 L82.31,59.08 L82.34,59.32 L82.34,59.43 L82.31,59.66 L82.22,59.88 L82.08,60.07 L81.89,60.21 L81.67,60.30 L81.44,60.33 L66.93,60.33 L66.70,60.30 L66.48,60.21 L66.30,60.07 L66.15,59.88 L66.06,59.66 L66.03,59.43 L66.03,59.32 L66.06,59.08 L66.15,58.86 L66.30,58.68 L66.48,58.53 L66.70,58.44 L66.93,58.41 L81.44,58.41 Z" fill="#c3f1ff" stroke="#c3f1ff" stroke-width="1" stroke-linejoin="round" opacity="0.75"/><path d="M66.03,70.10 L63.66,67.72 L58.26,68.80 L52.80,69.44 L47.29,69.64 L40.97,69.39 L35.09,68.65 L29.77,67.48 L25.14,65.92 L21.31,64.02 L19.75,62.96 L18.43,61.83 L17.38,60.65 L16.61,59.40 L16.13,58.11 L15.97,56.78 L15.97,63.94 L16.13,65.26 L16.61,66.54 L17.38,67.77 L18.43,68.95 L19.75,70.08 L21.31,71.14 L25.14,73.04 L29.77,74.61 L35.09,75.80 L40.97,76.55 L47.29,76.81 L53.61,76.55 L59.88,75.68 L66.03,74.22 L66.03,70.10 Z" fill="#5e9624" stroke="#5e9624" stroke-width="1" stroke-linejoin="round"/><path d="M55.70,54.97 L51.90,54.22 L48.03,54.01 L44.02,54.24 L40.72,54.85 L39.44,55.27 L38.47,55.75 L37.86,56.27 L37.64,56.83 L37.86,57.39 L38.46,57.92 L39.43,58.39 L40.70,58.81 L44.00,59.43 L48.03,59.65 L52.10,59.42 L56.10,58.58 L55.71,56.77 L55.70,54.91 L55.70,54.97 Z" fill="#5e9624" stroke="#5e9624" stroke-width="1" stroke-linejoin="round"/></svg>