<svg xmlns="http://www.w3.org/2000/svg" viewBox="0.67 0.67 94.67 94.72"><path d="M11.31,2.67 L21.87,2.67 L21.87,5.71 L11.31,5.71 L11.31,2.67 Z" fill="#0078d4" stroke="#0078d4" stroke-width="1" stroke-linejoin="round"/><path d="M88.64,5.71 L90.35,5.71 L90.35,7.31 L93.28,7.31 L93.28,2.67 L88.64,2.67 L88.64,5.71 Z" fill="#0078d4" stroke="#0078d4" stroke-width="1" stroke-linejoin="round"/><path d="M7.47,90.13 L5.97,90.13 L5.97,88.43 L2.67,88.43 L2.67,93.39 L7.47,93.39 L7.47,90.19 L7.47,90.13 Z" fill="#0078d4" stroke="#0078d4" stroke-width="1" stroke-linejoin="round"/><path d="M90.40,88.53 L90.40,90.13 L88.69,90.13 L88.69,93.33 L93.33,93.33 L93.33,88.53 L90.40,88.53 L90.40,88.53 Z" fill="#0078d4" stroke="#0078d4" stroke-width="1" stroke-linejoin="round"/><path d="M6.03,7.25 L6.03,5.65 L7.52,5.65 L7.52,2.67 L2.67,2.67 L2.67,7.25 L6.03,7.25 L6.03,7.25 Z" fill="#0078d4" stroke="#0078d4" stroke-width="1" stroke-linejoin="round"/><path d="M27.04,2.67 L37.55,2.67 L37.55,5.71 L27.04,5.71 L27.04,2.67 Z" fill="#0078d4" stroke="#0078d4" stroke-width="1" stroke-linejoin="round"/><path d="M42.67,2.67 L53.17,2.67 L53.17,5.71 L42.67,5.71 L42.67,2.67 Z" fill="#0078d4" stroke="#0078d4" stroke-width="1" stroke-linejoin="round"/><path d="M58.45,2.67 L68.96,2.67 L68.96,5.71 L58.45,5.71 L58.45,2.67 Z" fill="#0078d4" stroke="#0078d4" stroke-width="1" stroke-linejoin="round"/><path d="M74.13,2.67 L84.64,2.67 L84.64,5.71 L74.13,5.71 L74.13,2.67 Z" fill="#0078d4" stroke="#0078d4" stroke-width="1" stroke-linejoin="round"/><path d="M11.41,90.13 L21.87,90.13 L21.87,93.17 L11.41,93.17 L11.41,90.13 Z" fill="#0078d4" stroke="#0078d4" stroke-width="1" stroke-linejoin="round"/><path d="M27.09,90.13 L37.60,90.13 L37.60,93.17 L27.09,93.17 L27.09,90.13 Z" fill="#0078d4" stroke="#0078d4" stroke-width="1" stroke-linejoin="round"/><path d="M42.83,90.13 L53.33,90.13 L53.33,93.17 L42.83,93.17 L42.83,90.13 Z" fill="#0078d4" stroke="#0078d4" stroke-width="1" stroke-linejoin="round"/><path d="M58.56,90.13 L69.07,90.13 L69.07,93.17 L58.56,93.17 L58.56,90.13 Z" fill="#0078d4" stroke="#0078d4" stroke-width="1" stroke-linejoin="round"/><path d="M74.24,90.13 L84.75,90.13 L84.75,93.17 L74.24,93.17 L74.24,90.13 Z" fill="#0078d4" stroke="#0078d4" stroke-width="1" stroke-linejoin="round"/><path d="M90.24,10.93 L93.28,10.93 L93.28,21.44 L90.24,21.44 L90.24,10.93 Z" fill="#0078d4" stroke="#0078d4" stroke-width="1" stroke-linejoin="round"/><path d="M90.24,26.67 L93.28,26.67 L93.28,37.17 L90.24,37.17 L90.24,26.67 Z" fill="#0078d4" stroke="#0078d4" stroke-width="1" stroke-linejoin="round"/><path d="M90.24,42.35 L93.28,42.35 L93.28,52.80 L90.24,52.80 L90.24,42.35 Z" fill="#0078d4" stroke="#0078d4" stroke-width="1" stroke-linejoin="round"/><path d="M90.24,58.03 L93.28,58.03 L93.28,68.53 L90.24,68.53 L90.24,58.03 Z" fill="#0078d4" stroke="#0078d4" stroke-width="1" stroke-linejoin="round"/><path d="M90.24,73.76 L93.28,73.76 L93.28,84.27 L90.24,84.27 L90.24,73.76 Z" fill="#0078d4" stroke="#0078d4" stroke-width="1" stroke-linejoin="round"/><path d="M2.67,10.83 L5.71,10.83 L5.71,21.33 L2.67,21.33 L2.67,10.83 Z" fill="#0078d4" stroke="#0078d4" stroke-width="1" stroke-linejoin="round"/><path d="M2.67,26.56 L5.71,26.56 L5.71,37.07 L2.67,37.07 L2.67,26.56 Z" fill="#0078d4" stroke="#0078d4" stroke-width="1" stroke-linejoin="round"/><path d="M2.67,42.24 L5.71,42.24 L5.71,52.80 L2.67,52.80 L2.67,42.24 Z" fill="#0078d4" stroke="#0078d4" stroke-width="1" stroke-linejoin="round"/><path d="M2.67,57.97 L5.71,57.97 L5.71,68.48 L2.67,68.48 L2.67,57.97 Z" fill="#0078d4" stroke="#0078d4" stroke-width="1" stroke-linejoin="round"/><path d="M2.67,73.60 L5.71,73.60 L5.71,84.11 L2.67,84.11 L2.67,73.60 Z" fill="#0078d4" stroke="#0078d4" stroke-width="1" stroke-linejoin="round"/><path d="M54.93,58.67 L53.48,56.65 L52.72,54.28 L52.72,51.80 L53.48,49.43 L54.93,47.41 L58.99,43.36 L51.91,42.19 L44.75,41.81 L38.77,42.06 L33.21,42.75 L28.19,43.86 L23.81,45.33 L20.20,47.13 L18.71,48.13 L17.47,49.19 L16.48,50.32 L15.75,51.49 L15.30,52.71 L15.15,53.97 L15.30,55.23 L15.74,56.46 L16.47,57.63 L17.45,58.75 L18.69,59.82 L20.16,60.82 L23.76,62.61 L28.13,64.09 L33.15,65.19 L38.71,65.89 L44.69,66.13 L49.96,65.86 L55.18,65.15 L60.32,64.00 L54.93,58.67 Z" fill="#76bc2d" stroke="#1e1e1e" stroke-width="1" stroke-linejoin="round"/><ellipse cx="44.69" cy="26.93" rx="29.55" ry="12.16" fill="#2688df" stroke="#1e1e1e" stroke-width="1"/><ellipse cx="45.39" cy="26.77" rx="9.81" ry="2.67" fill="#005ba1" stroke="#005ba1" stroke-width="1"/><path d="M83.09,56.80 L84.12,55.43 L84.66,53.81 L84.66,52.11 L84.12,50.49 L83.09,49.12 L73.71,39.68 L72.34,38.66 L70.72,38.12 L69.01,38.12 L67.39,38.66 L66.03,39.68 L56.64,49.07 L55.62,50.43 L55.08,52.05 L55.08,53.76 L55.62,55.38 L56.64,56.75 L64.48,64.75 L64.79,65.24 L64.91,65.81 L64.91,80.37 L65.05,81.06 L65.44,81.65 L69.01,85.23 L69.89,85.58 L70.77,85.23 L76.21,79.79 L76.41,79.28 L76.21,78.77 L74.61,77.28 L74.36,76.75 L74.61,76.21 L76.05,74.72 L76.25,74.21 L76.05,73.71 L74.61,72.27 L74.36,71.71 L74.61,71.15 L76.05,69.71 L76.25,69.20 L76.05,68.69 L74.03,66.56 L74.03,65.87 L83.09,56.80 Z" fill="#0078d4" stroke="#0078d4" stroke-width="1" stroke-linejoin="round"/><path d="M69.87,41.97 L71.44,42.02 L72.78,42.83 L73.56,44.20 L73.56,45.77 L72.78,47.14 L71.44,47.95 L69.87,48.00 L68.32,47.59 L67.19,46.45 L66.77,44.91 L67.19,43.36 L68.32,42.23 L69.87,41.81 L69.87,41.97 Z" fill="#ffffff" stroke="#ffffff" stroke-width="1" stroke-linejoin="round"/><path d="M64.27,37.87 L65.83,36.64 L67.64,35.84 L69.60,35.52 L71.38,35.74 L73.07,36.32 L73.66,35.09 L73.97,33.76 L73.97,26.67 L73.82,27.90 L73.37,29.10 L72.65,30.26 L71.65,31.37 L70.41,32.43 L68.93,33.43 L65.32,35.22 L60.95,36.70 L55.93,37.82 L50.38,38.53 L44.43,38.77 L38.48,38.53 L32.96,37.83 L27.97,36.73 L23.64,35.26 L20.07,33.47 L18.61,32.48 L17.38,31.42 L16.40,30.30 L15.68,29.13 L15.24,27.92 L15.09,26.67 L15.09,33.39 L15.25,34.63 L15.69,35.84 L16.42,37.00 L17.42,38.12 L18.66,39.18 L20.14,40.19 L23.75,41.99 L28.13,43.47 L33.16,44.59 L38.72,45.30 L44.69,45.55 L51.34,45.23 L57.92,44.27 L64.27,37.87 Z" fill="#0078d4" stroke="#1e1e1e" stroke-width="1" stroke-linejoin="round"/><path d="M67.47,80.53 L67.95,80.73 L68.43,80.53 L68.47,80.32 L68.43,80.11 L68.43,68.11 L68.32,67.78 L68.11,67.52 L67.65,67.35 L67.20,67.52 L67.15,67.71 L67.20,67.89 L67.20,80.00 L67.26,80.30 L67.47,80.53 Z" fill="#c3f1ff" stroke="#c3f1ff" stroke-width="1" stroke-linejoin="round" opacity="0.75"/><rect x="62.40" y="52.21" width="15.41" height="1.81" fill="#c3f1ff" stroke="#c3f1ff" stroke-width="1" opacity="0.75"/><rect x="62.40" y="55.20" width="15.41" height="1.81" fill="#c3f1ff" stroke="#c3f1ff" stroke-width="1" opacity="0.75"/><path d="M62.40,66.24 L60.16,64.00 L55.06,65.02 L49.89,65.62 L44.69,65.81 L38.72,65.57 L33.16,64.87 L28.13,63.77 L23.75,62.29 L20.14,60.50 L18.66,59.50 L17.42,58.43 L16.42,57.31 L15.69,56.14 L15.25,54.91 L15.09,53.65 L15.09,60.43 L15.25,61.67 L15.69,62.88 L16.42,64.04 L17.42,65.16 L18.66,66.22 L20.14,67.23 L23.75,69.03 L28.13,70.51 L33.16,71.63 L38.72,72.34 L44.69,72.59 L50.66,72.34 L56.59,71.52 L62.40,70.13 L62.40,66.24 Z" fill="#5e9624" stroke="#5e9624" stroke-width="1" stroke-linejoin="round"/><path d="M52.64,51.95 L49.05,51.24 L45.39,51.04 L41.60,51.25 L38.48,51.83 L37.27,52.23 L36.36,52.68 L35.78,53.18 L35.57,53.71 L35.77,54.23 L36.35,54.73 L37.26,55.18 L38.46,55.58 L41.58,56.16 L45.39,56.37 L49.24,56.15 L53.01,55.36 L52.65,53.65 L52.64,51.89 L52.64,51.95 Z" fill="#5e9624" stroke="#5e9624" stroke-width="1" stroke-linejoin="round"/></svg>