<svg xmlns="http://www.w3.org/2000/svg" viewBox="7.32 10.19 100.00 97.64"><ellipse cx="57.19" cy="75.45" rx="47.87" ry="19.66" fill="#76bc2d" stroke="#1e1e1e" stroke-width="1"/><ellipse cx="58.40" cy="75.26" rx="15.89" ry="4.34" fill="#5e9624" stroke="#5e9624" stroke-width="1"/><path d="M97.98,85.53 L97.98,85.53" fill="none" stroke="#4394e7" stroke-width="1" stroke-linejoin="round"/><ellipse cx="57.19" cy="31.85" rx="47.87" ry="19.66" fill="#5c9fee" stroke="#1e1e1e" stroke-width="1"/><ellipse cx="58.40" cy="31.60" rx="15.89" ry="4.34" fill="#005ba1" stroke="#005ba1" stroke-width="1"/><path d="M57.45,94.72 L62.35,94.62 L67.11,94.32 L71.70,93.84 L76.10,93.18 L80.29,92.35 L84.23,91.36 L87.92,90.23 L91.32,88.96 L94.40,87.57 L97.16,86.05 L99.55,84.43 L101.56,82.71 L103.17,80.91 L104.35,79.02 L105.07,77.07 L105.32,75.06 L105.32,75.06 L105.32,86.68 L105.32,86.68 L104.92,88.63 L104.07,90.53 L102.79,92.36 L101.11,94.12 L99.04,95.79 L96.61,97.37 L93.85,98.84 L90.77,100.20 L87.39,101.44 L83.75,102.55 L79.85,103.51 L75.73,104.32 L71.41,104.97 L66.91,105.44 L62.25,105.73 L57.45,105.83 L52.64,105.73 L47.95,105.43 L43.41,104.95 L39.03,104.28 L34.86,103.46 L30.91,102.47 L27.21,101.34 L23.79,100.07 L20.68,98.67 L17.89,97.16 L15.46,95.54 L13.41,93.82 L11.77,92.01 L10.57,90.13 L9.83,88.18 L9.57,86.17 L9.57,75.06 L9.78,77.07 L10.46,79.02 L11.61,80.91 L13.19,82.71 L15.19,84.43 L17.57,86.05 L20.32,87.57 L23.41,88.96 L26.81,90.23 L30.51,91.36 L34.47,92.35 L38.67,93.18 L43.10,93.84 L47.72,94.32 L52.51,94.62 L57.45,94.72 Z" fill="#5e9624" stroke="#1e1e1e" stroke-width="1" stroke-linejoin="round"/><path d="M97.98,85.53 L97.98,85.53" fill="none" stroke="#4394e7" stroke-width="1" stroke-linejoin="round"/><path d="M57.45,51.06 L62.35,50.96 L67.11,50.66 L71.70,50.18 L76.10,49.52 L80.29,48.69 L84.23,47.70 L87.92,46.57 L91.32,45.30 L94.40,43.91 L97.16,42.39 L99.55,40.77 L101.56,39.05 L103.17,37.25 L104.35,35.36 L105.07,33.41 L105.32,31.40 L105.32,31.40 L105.32,43.02 L105.32,43.02 L104.92,44.97 L104.07,46.87 L102.79,48.70 L101.11,50.46 L99.04,52.13 L96.61,53.71 L93.85,55.18 L90.77,56.55 L87.39,57.78 L83.75,58.89 L79.85,59.85 L75.73,60.66 L71.41,61.31 L66.91,61.78 L62.25,62.07 L57.45,62.17 L52.64,62.07 L47.95,61.77 L43.41,61.29 L39.03,60.62 L34.86,59.80 L30.91,58.81 L27.21,57.68 L23.79,56.41 L20.68,55.01 L17.89,53.50 L15.46,51.88 L13.41,50.16 L11.77,48.35 L10.57,46.47 L9.83,44.52 L9.57,42.51 L9.57,31.40 L9.78,33.41 L10.46,35.36 L11.61,37.25 L13.19,39.05 L15.19,40.77 L17.57,42.39 L20.32,43.91 L23.41,45.30 L26.81,46.57 L30.51,47.70 L34.47,48.69 L38.67,49.52 L43.10,50.18 L47.72,50.66 L52.51,50.96 L57.45,51.06 Z" fill="#0078d4" stroke="#1e1e1e" stroke-width="1" stroke-linejoin="round"/></svg>