<svg xmlns="http://www.w3.org/2000/svg" viewBox="-1.59 3.46 99.18 89.07"><path d="M29.55,69.89 L26.42,73.03 L25.79,73.40 L25.05,73.40 L24.41,73.03 L1.19,49.88 L0.45,48.61 L0.45,47.13 L1.19,45.86 L4.33,42.71 L4.33,42.71 L29.56,67.87 L29.93,68.51 L29.93,69.25 L29.56,69.89 L29.55,69.89 Z" fill="#50e6ff" stroke="#1e1e1e" stroke-width="1" stroke-linejoin="round"/><path d="M25.94,22.96 L29.08,26.10 L29.45,26.73 L29.45,27.47 L29.09,28.11 L4.30,52.97 L4.30,52.97 L1.15,49.83 L0.41,48.56 L0.41,47.09 L1.14,45.81 L23.93,22.95 L24.57,22.59 L25.30,22.59 L25.94,22.96 L25.94,22.96 Z" fill="#1490df" stroke="#1e1e1e" stroke-width="1" stroke-linejoin="round"/><path d="M91.68,42.73 L94.82,45.88 L95.55,47.15 L95.55,48.62 L94.81,49.90 L71.59,73.05 L70.95,73.42 L70.22,73.42 L69.58,73.05 L66.46,69.92 L66.09,69.28 L66.09,68.54 L66.46,67.90 L91.69,42.74 L91.69,42.74 L91.68,42.73 Z" fill="#50e6ff" stroke="#1e1e1e" stroke-width="1" stroke-linejoin="round"/><path d="M94.84,49.82 L91.69,52.95 L91.69,52.95 L66.90,28.09 L66.53,27.45 L66.53,26.72 L66.90,26.08 L70.05,22.94 L70.69,22.57 L71.43,22.58 L72.06,22.94 L94.85,45.80 L95.59,47.08 L95.59,48.55 L94.85,49.82 L94.84,49.82 Z" fill="#1490df" stroke="#1e1e1e" stroke-width="1" stroke-linejoin="round"/><path d="M45.11,52.80 L25.97,52.80 L25.24,52.53 L24.91,51.83 L24.93,51.63 L25.00,51.43 L47.95,6.03 L48.37,5.61 L48.94,5.46 L71.58,5.46 L72.31,5.73 L72.65,6.43 L72.60,6.71 L72.46,6.96 L45.51,42.49 L71.80,42.49 L72.53,42.75 L72.86,43.45 L72.79,43.80 L72.59,44.10 L28.91,89.54 L28.24,90.00 L27.27,90.50 L26.88,90.53 L26.65,90.27 L26.67,89.64 L27.01,88.53 L27.01,88.53 L45.11,52.80 Z" fill="#feae18" stroke="#1e1e1e" stroke-width="1" stroke-linejoin="round"/></svg>