<svg xmlns="http://www.w3.org/2000/svg" viewBox="9.50 1.74 84.77 100.00"><path d="M48.63,31.39 L54.38,31.39 L54.38,86.57 L48.63,86.57 L48.63,31.39 Z" fill="#32bedd" stroke="#32bedd" stroke-width="1" stroke-linejoin="round"/><path d="M88.99,3.74 L14.72,3.74 L13.10,4.22 L11.92,5.44 L11.50,7.07 L11.50,28.05 L11.93,29.70 L13.13,30.92 L14.77,31.39 L88.99,31.39 L90.64,30.94 L91.84,29.72 L92.26,28.05 L92.26,7.07 L91.84,5.41 L90.64,4.18 L88.99,3.74 Z" fill="#26afd4" stroke="#1e1e1e" stroke-width="1" stroke-linejoin="round"/><path d="M88.76,41.22 L14.49,41.22 L12.97,41.75 L11.89,42.93 L11.50,44.49 L11.50,65.53 L11.92,67.18 L13.12,68.39 L14.77,68.81 L88.76,68.81 L90.37,68.35 L91.55,67.15 L91.98,65.53 L91.98,44.49 L91.53,42.88 L90.36,41.69 L88.76,41.22 Z" fill="#26afd4" stroke="#1e1e1e" stroke-width="1" stroke-linejoin="round"/><ellipse cx="52.08" cy="91.06" rx="8.68" ry="8.68" fill="#7fba00" stroke="#1e1e1e" stroke-width="1"/><ellipse cx="51.85" cy="91.00" rx="8.68" ry="8.68" fill="#26afd4" stroke="#1e1e1e" stroke-width="1"/><path d="M84.04,8.91 L84.27,8.94 L84.47,9.03 L84.65,9.16 L84.79,9.34 L84.88,9.55 L84.91,9.77 L84.91,14.08 L84.88,14.31 L84.79,14.51 L84.65,14.69 L84.47,14.83 L84.27,14.92 L84.04,14.95 L79.73,14.95 L79.51,14.92 L79.30,14.83 L79.12,14.69 L78.98,14.51 L78.90,14.31 L78.87,14.08 L78.87,9.77 L78.90,9.55 L78.98,9.34 L79.12,9.16 L79.30,9.03 L79.51,8.94 L79.73,8.91 L84.04,8.91 Z" fill="#b4ec36" stroke="#b4ec36" stroke-width="1" stroke-linejoin="round"/><path d="M84.04,19.31 L84.27,19.34 L84.47,19.43 L84.65,19.57 L84.79,19.75 L84.88,19.95 L84.91,20.18 L84.91,24.49 L84.88,24.71 L84.79,24.92 L84.65,25.10 L84.47,25.24 L84.27,25.32 L84.04,25.35 L79.73,25.35 L79.51,25.32 L79.30,25.24 L79.12,25.10 L78.98,24.92 L78.90,24.71 L78.87,24.49 L78.87,20.18 L78.90,19.95 L78.98,19.75 L79.12,19.57 L79.30,19.43 L79.51,19.34 L79.73,19.31 L84.04,19.31 Z" fill="#b4ec36" stroke="#b4ec36" stroke-width="1" stroke-linejoin="round"/><path d="M84.04,46.22 L84.27,46.25 L84.47,46.33 L84.65,46.47 L84.79,46.65 L84.88,46.86 L84.91,47.08 L84.91,51.39 L84.88,51.61 L84.79,51.82 L84.65,52.00 L84.47,52.14 L84.27,52.22 L84.04,52.25 L79.73,52.25 L79.51,52.22 L79.30,52.14 L79.12,52.00 L78.98,51.82 L78.90,51.61 L78.87,51.39 L78.87,47.08 L78.90,46.86 L78.98,46.65 L79.12,46.47 L79.30,46.33 L79.51,46.25 L79.73,46.22 L84.04,46.22 Z" fill="#b4ec36" stroke="#b4ec36" stroke-width="1" stroke-linejoin="round"/><path d="M84.04,56.62 L84.27,56.65 L84.47,56.74 L84.65,56.88 L84.79,57.05 L84.88,57.26 L84.91,57.49 L84.91,61.80 L84.88,62.02 L84.79,62.23 L84.65,62.41 L84.47,62.54 L84.27,62.63 L84.04,62.66 L79.73,62.66 L79.51,62.63 L79.30,62.54 L79.12,62.41 L78.98,62.23 L78.90,62.02 L78.87,61.80 L78.87,57.49 L78.90,57.26 L78.98,57.05 L79.12,56.88 L79.30,56.74 L79.51,56.65 L79.73,56.62 L84.04,56.62 Z" fill="#b4ec36" stroke="#b4ec36" stroke-width="1" stroke-linejoin="round"/></svg>