<svg xmlns="http://www.w3.org/2000/svg" viewBox="4.99 0.93 86.08 94.19"><path d="M74.67,2.93 L10.67,2.93 L9.26,3.19 L8.07,3.98 L7.27,5.16 L6.99,6.56 L6.99,22.99 L7.27,24.39 L8.06,25.59 L9.26,26.39 L10.67,26.67 L74.67,26.67 L76.07,26.39 L77.27,25.59 L78.07,24.39 L78.35,22.99 L78.35,6.56 L78.05,5.17 L77.25,3.99 L76.06,3.21 L74.67,2.93 L74.67,2.93 Z" fill="#198ab3" stroke="#1e1e1e" stroke-width="1" stroke-linejoin="round"/><path d="M74.67,35.79 L10.67,35.79 L9.26,36.05 L8.07,36.83 L7.27,38.01 L6.99,39.41 L6.99,55.84 L7.27,57.25 L8.06,58.44 L9.26,59.24 L10.67,59.52 L74.67,59.52 L76.07,59.24 L77.27,58.44 L78.07,57.25 L78.35,55.84 L78.35,39.41 L78.07,38.01 L77.27,36.83 L76.07,36.05 L74.67,35.79 L74.67,35.79 Z" fill="#198ab3" stroke="#1e1e1e" stroke-width="1" stroke-linejoin="round"/><path d="M48.80,26.67 L54.13,26.67 L54.13,81.39 L48.80,81.39 L48.80,26.67 Z" fill="#32bedd" stroke="#32bedd" stroke-width="1" stroke-linejoin="round"/><path d="M86.03,10.24 L20.91,10.24 L19.39,10.65 L18.27,11.76 L17.87,13.28 L17.87,29.28 L18.37,30.67 L19.47,31.65 L20.91,32.00 L86.03,32.00 L87.55,31.59 L88.66,30.48 L89.07,28.96 L89.07,12.96 L88.56,11.57 L87.46,10.59 L86.03,10.24 L86.03,10.24 Z" fill="#27b2d7" stroke="#1e1e1e" stroke-width="1" stroke-linejoin="round"/><rect x="77.39" y="13.28" width="5.60" height="5.60" fill="#b4ec36" stroke="#b4ec36" stroke-width="1"/><rect x="77.39" y="22.93" width="5.60" height="5.60" fill="#b4ec36" stroke="#b4ec36" stroke-width="1"/><path d="M86.03,43.09 L20.91,43.09 L19.39,43.50 L18.27,44.61 L17.87,46.13 L17.87,62.13 L18.27,63.65 L19.39,64.77 L20.91,65.17 L86.03,65.17 L87.55,64.77 L88.66,63.65 L89.07,62.13 L89.07,46.13 L88.66,44.61 L87.55,43.50 L86.03,43.09 Z" fill="#27b2d7" stroke="#1e1e1e" stroke-width="1" stroke-linejoin="round"/><ellipse cx="51.52" cy="85.07" rx="8.05" ry="8.05" fill="#27b2d7" stroke="#27b2d7" stroke-width="1"/><rect x="77.39" y="46.40" width="5.60" height="5.60" fill="#b4ec36" stroke="#b4ec36" stroke-width="1"/><rect x="77.39" y="56.05" width="5.60" height="5.60" fill="#b4ec36" stroke="#b4ec36" stroke-width="1"/></svg>