<svg xmlns="http://www.w3.org/2000/svg" viewBox="4.99 0.93 86.08 94.19"><path d="M74.67,2.93 L10.67,2.93 L9.26,3.19 L8.07,3.98 L7.27,5.16 L6.99,6.56 L6.99,22.99 L7.27,24.39 L8.06,25.59 L9.26,26.39 L10.67,26.67 L74.67,26.67 L76.07,26.39 L77.27,25.59 L78.07,24.39 L78.35,22.99 L78.35,6.56 L78.05,5.17 L77.25,3.99 L76.06,3.21 L74.67,2.93 L74.67,2.93 Z" fill="#198ab3" stroke="#1e1e1e" stroke-width="1" stroke-linejoin="round"/><path d="M74.67,35.79 L10.67,35.79 L9.26,36.05 L8.07,36.83 L7.27,38.01 L6.99,39.41 L6.99,55.84 L7.27,57.25 L8.06,58.44 L9.26,59.24 L10.67,59.52 L74.67,59.52 L76.07,59.24 L77.27,58.44 L78.07,57.25 L78.35,55.84 L78.35,39.41 L78.07,38.01 L77.27,36.83 L76.07,36.05 L74.67,35.79 L74.67,35.79 Z" fill="#198ab3" stroke="#1e1e1e" stroke-width="1" stroke-linejoin="round"/><path d="M48.80,26.67 L54.13,26.67 L54.13,81.39 L48.80,81.39 L48.80,26.67 Z" fill="#32bedd" stroke="#32bedd" stroke-width="1" stroke-linejoin="round"/><path d="M86.03,10.24 L20.91,10.24 L19.39,10.65 L18.27,11.76 L17.87,13.28 L17.87,29.28 L18.37,30.67 L19.47,31.65 L20.91,32.00 L86.03,32.00 L87.55,31.59 L88.66,30.48 L89.07,28.96 L89.07,12.96 L88.56,11.57 L87.46,10.59 L86.03,10.24 L86.03,10.24 Z" fill="#27b2d7" stroke="#1e1e1e" stroke-width="1" stroke-linejoin="round"/><path d="M82.19,13.28 L82.39,13.31 L82.59,13.39 L82.75,13.51 L82.88,13.68 L82.96,13.87 L82.99,14.08 L82.99,18.08 L82.96,18.29 L82.88,18.48 L82.75,18.65 L82.59,18.77 L82.39,18.85 L82.19,18.88 L78.19,18.88 L77.98,18.85 L77.79,18.77 L77.62,18.65 L77.49,18.48 L77.41,18.29 L77.39,18.08 L77.39,14.08 L77.41,13.87 L77.49,13.68 L77.62,13.51 L77.79,13.39 L77.98,13.31 L78.19,13.28 L82.19,13.28 Z" fill="#b4ec36" stroke="#b4ec36" stroke-width="1" stroke-linejoin="round"/><path d="M82.19,22.93 L82.39,22.96 L82.59,23.04 L82.75,23.17 L82.88,23.33 L82.96,23.53 L82.99,23.73 L82.99,27.73 L82.96,27.94 L82.88,28.13 L82.75,28.30 L82.59,28.43 L82.39,28.51 L82.19,28.53 L78.19,28.53 L77.98,28.51 L77.79,28.43 L77.62,28.30 L77.49,28.13 L77.41,27.94 L77.39,27.73 L77.39,23.73 L77.41,23.53 L77.49,23.33 L77.62,23.17 L77.79,23.04 L77.98,22.96 L78.19,22.93 L82.19,22.93 Z" fill="#b4ec36" stroke="#b4ec36" stroke-width="1" stroke-linejoin="round"/><path d="M86.03,43.09 L20.91,43.09 L19.39,43.50 L18.27,44.61 L17.87,46.13 L17.87,62.13 L18.27,63.65 L19.39,64.77 L20.91,65.17 L86.03,65.17 L87.55,64.77 L88.66,63.65 L89.07,62.13 L89.07,46.13 L88.66,44.61 L87.55,43.50 L86.03,43.09 Z" fill="#27b2d7" stroke="#1e1e1e" stroke-width="1" stroke-linejoin="round"/><ellipse cx="51.52" cy="85.07" rx="8.05" ry="8.05" fill="#27b2d7" stroke="#27b2d7" stroke-width="1"/><path d="M82.19,46.40 L82.39,46.43 L82.59,46.51 L82.75,46.63 L82.88,46.80 L82.96,46.99 L82.99,47.20 L82.99,51.20 L82.96,51.41 L82.88,51.60 L82.75,51.77 L82.59,51.89 L82.39,51.97 L82.19,52.00 L78.19,52.00 L77.98,51.97 L77.79,51.89 L77.62,51.77 L77.49,51.60 L77.41,51.41 L77.39,51.20 L77.39,47.20 L77.41,46.99 L77.49,46.80 L77.62,46.63 L77.79,46.51 L77.98,46.43 L78.19,46.40 L82.19,46.40 Z" fill="#b4ec36" stroke="#b4ec36" stroke-width="1" stroke-linejoin="round"/><path d="M82.19,56.05 L82.39,56.08 L82.59,56.16 L82.75,56.29 L82.88,56.45 L82.96,56.65 L82.99,56.85 L82.99,60.85 L82.96,61.06 L82.88,61.25 L82.75,61.42 L82.59,61.55 L82.39,61.63 L82.19,61.65 L78.19,61.65 L77.98,61.63 L77.79,61.55 L77.62,61.42 L77.49,61.25 L77.41,61.06 L77.39,60.85 L77.39,56.85 L77.41,56.65 L77.49,56.45 L77.62,56.29 L77.79,56.16 L77.98,56.08 L78.19,56.05 L82.19,56.05 Z" fill="#b4ec36" stroke="#b4ec36" stroke-width="1" stroke-linejoin="round"/></svg>