<svg xmlns="http://www.w3.org/2000/svg" viewBox="8.67 1.47 78.93 93.07"><path d="M45.12,29.12 L50.45,29.12 L50.45,80.32 L45.12,80.32 L45.12,29.12 Z" fill="#32bedd" stroke="#32bedd" stroke-width="1" stroke-linejoin="round"/><path d="M82.56,3.47 L13.65,3.47 L12.15,3.92 L11.06,5.04 L10.67,6.56 L10.67,26.03 L11.07,27.56 L12.18,28.69 L13.71,29.12 L82.56,29.12 L84.10,28.70 L85.21,27.57 L85.60,26.03 L85.60,6.56 L85.21,5.02 L84.10,3.88 L82.56,3.47 Z" fill="#26afd4" stroke="#1e1e1e" stroke-width="1" stroke-linejoin="round"/><path d="M82.35,38.24 L13.44,38.24 L12.03,38.73 L11.03,39.83 L10.67,41.28 L10.67,60.80 L11.06,62.33 L12.18,63.45 L13.71,63.84 L82.35,63.84 L83.84,63.42 L84.94,62.30 L85.33,60.80 L85.33,41.28 L84.92,39.79 L83.83,38.68 L82.35,38.24 Z" fill="#26afd4" stroke="#1e1e1e" stroke-width="1" stroke-linejoin="round"/><ellipse cx="48.32" cy="84.48" rx="8.05" ry="8.05" fill="#7fba00" stroke="#7fba00" stroke-width="1"/><ellipse cx="48.11" cy="84.43" rx="8.05" ry="8.05" fill="#26afd4" stroke="#26afd4" stroke-width="1"/><rect x="73.17" y="8.27" width="5.60" height="5.60" fill="#b4ec36" stroke="#b4ec36" stroke-width="1"/><rect x="73.17" y="17.92" width="5.60" height="5.60" fill="#b4ec36" stroke="#b4ec36" stroke-width="1"/><rect x="73.17" y="42.88" width="5.60" height="5.60" fill="#b4ec36" stroke="#b4ec36" stroke-width="1"/><rect x="73.17" y="52.53" width="5.60" height="5.60" fill="#b4ec36" stroke="#b4ec36" stroke-width="1"/></svg>