<svg xmlns="http://www.w3.org/2000/svg" viewBox="8.67 1.47 78.93 93.07"><path d="M45.12,29.12 L50.45,29.12 L50.45,80.32 L45.12,80.32 L45.12,29.12 Z" fill="#32bedd" stroke="#32bedd" stroke-width="1" stroke-linejoin="round"/><path d="M82.56,3.47 L13.65,3.47 L12.15,3.92 L11.06,5.04 L10.67,6.56 L10.67,26.03 L11.07,27.56 L12.18,28.69 L13.71,29.12 L82.56,29.12 L84.10,28.70 L85.21,27.57 L85.60,26.03 L85.60,6.56 L85.21,5.02 L84.10,3.88 L82.56,3.47 Z" fill="#26afd4" stroke="#1e1e1e" stroke-width="1" stroke-linejoin="round"/><path d="M82.35,38.24 L13.44,38.24 L12.03,38.73 L11.03,39.83 L10.67,41.28 L10.67,60.80 L11.06,62.33 L12.18,63.45 L13.71,63.84 L82.35,63.84 L83.84,63.42 L84.94,62.30 L85.33,60.80 L85.33,41.28 L84.92,39.79 L83.83,38.68 L82.35,38.24 Z" fill="#26afd4" stroke="#1e1e1e" stroke-width="1" stroke-linejoin="round"/><ellipse cx="48.32" cy="84.48" rx="8.05" ry="8.05" fill="#7fba00" stroke="#7fba00" stroke-width="1"/><ellipse cx="48.11" cy="84.43" rx="8.05" ry="8.05" fill="#26afd4" stroke="#26afd4" stroke-width="1"/><path d="M77.97,8.27 L78.18,8.29 L78.37,8.37 L78.54,8.50 L78.67,8.67 L78.75,8.86 L78.77,9.07 L78.77,13.07 L78.75,13.27 L78.67,13.47 L78.54,13.63 L78.37,13.76 L78.18,13.84 L77.97,13.87 L73.97,13.87 L73.77,13.84 L73.57,13.76 L73.41,13.63 L73.28,13.47 L73.20,13.27 L73.17,13.07 L73.17,9.07 L73.20,8.86 L73.28,8.67 L73.41,8.50 L73.57,8.37 L73.77,8.29 L73.97,8.27 L77.97,8.27 Z" fill="#b4ec36" stroke="#b4ec36" stroke-width="1" stroke-linejoin="round"/><path d="M77.97,17.92 L78.18,17.95 L78.37,18.03 L78.54,18.15 L78.67,18.32 L78.75,18.51 L78.77,18.72 L78.77,22.72 L78.75,22.93 L78.67,23.12 L78.54,23.29 L78.37,23.41 L78.18,23.49 L77.97,23.52 L73.97,23.52 L73.77,23.49 L73.57,23.41 L73.41,23.29 L73.28,23.12 L73.20,22.93 L73.17,22.72 L73.17,18.72 L73.20,18.51 L73.28,18.32 L73.41,18.15 L73.57,18.03 L73.77,17.95 L73.97,17.92 L77.97,17.92 Z" fill="#b4ec36" stroke="#b4ec36" stroke-width="1" stroke-linejoin="round"/><path d="M77.97,42.88 L78.18,42.91 L78.37,42.99 L78.54,43.11 L78.67,43.28 L78.75,43.47 L78.77,43.68 L78.77,47.68 L78.75,47.89 L78.67,48.08 L78.54,48.25 L78.37,48.37 L78.18,48.45 L77.97,48.48 L73.97,48.48 L73.77,48.45 L73.57,48.37 L73.41,48.25 L73.28,48.08 L73.20,47.89 L73.17,47.68 L73.17,43.68 L73.20,43.47 L73.28,43.28 L73.41,43.11 L73.57,42.99 L73.77,42.91 L73.97,42.88 L77.97,42.88 Z" fill="#b4ec36" stroke="#b4ec36" stroke-width="1" stroke-linejoin="round"/><path d="M77.97,52.53 L78.18,52.56 L78.37,52.64 L78.54,52.77 L78.67,52.93 L78.75,53.13 L78.77,53.33 L78.77,57.33 L78.75,57.54 L78.67,57.73 L78.54,57.90 L78.37,58.03 L78.18,58.11 L77.97,58.13 L73.97,58.13 L73.77,58.11 L73.57,58.03 L73.41,57.90 L73.28,57.73 L73.20,57.54 L73.17,57.33 L73.17,53.33 L73.20,53.13 L73.28,52.93 L73.41,52.77 L73.57,52.64 L73.77,52.56 L73.97,52.53 L77.97,52.53 Z" fill="#b4ec36" stroke="#b4ec36" stroke-width="1" stroke-linejoin="round"/></svg>