<svg xmlns="http://www.w3.org/2000/svg" viewBox="5.44 1.12 91.37 100.00"><path d="M79.48,3.12 L11.35,3.12 L9.86,3.40 L8.59,4.23 L7.74,5.49 L7.44,6.98 L7.44,24.47 L7.74,25.97 L8.58,27.24 L9.86,28.09 L11.35,28.39 L79.48,28.39 L80.98,28.09 L82.25,27.24 L83.10,25.97 L83.40,24.47 L83.40,6.98 L83.08,5.50 L82.23,4.25 L80.97,3.42 L79.48,3.12 L79.48,3.12 Z" fill="#198ab3" stroke="#1e1e1e" stroke-width="1" stroke-linejoin="round"/><path d="M79.48,38.09 L11.35,38.09 L9.86,38.37 L8.59,39.20 L7.74,40.46 L7.44,41.95 L7.44,59.44 L7.74,60.94 L8.58,62.21 L9.86,63.06 L11.35,63.36 L79.48,63.36 L80.98,63.06 L82.25,62.21 L83.10,60.94 L83.40,59.44 L83.40,41.95 L83.10,40.46 L82.25,39.20 L80.97,38.37 L79.48,38.09 L79.48,38.09 Z" fill="#198ab3" stroke="#1e1e1e" stroke-width="1" stroke-linejoin="round"/><path d="M51.95,28.39 L57.62,28.39 L57.62,86.63 L51.95,86.63 L51.95,28.39 Z" fill="#32bedd" stroke="#32bedd" stroke-width="1" stroke-linejoin="round"/><path d="M91.57,10.90 L22.25,10.90 L20.64,11.33 L19.45,12.52 L19.02,14.14 L19.02,31.17 L19.56,32.64 L20.73,33.69 L22.25,34.06 L91.57,34.06 L93.19,33.63 L94.37,32.44 L94.81,30.83 L94.81,13.80 L94.27,12.32 L93.10,11.27 L91.57,10.90 L91.57,10.90 Z" fill="#27b2d7" stroke="#1e1e1e" stroke-width="1" stroke-linejoin="round"/><path d="M87.48,14.14 L87.70,14.17 L87.91,14.25 L88.09,14.39 L88.22,14.56 L88.31,14.77 L88.34,14.99 L88.34,19.25 L88.31,19.47 L88.22,19.67 L88.09,19.85 L87.91,19.98 L87.70,20.07 L87.48,20.10 L83.23,20.10 L83.01,20.07 L82.80,19.98 L82.62,19.85 L82.49,19.67 L82.40,19.47 L82.37,19.25 L82.37,14.99 L82.40,14.77 L82.49,14.56 L82.62,14.39 L82.80,14.25 L83.01,14.17 L83.23,14.14 L87.48,14.14 Z" fill="#b4ec36" stroke="#b4ec36" stroke-width="1" stroke-linejoin="round"/><path d="M87.48,24.41 L87.70,24.44 L87.91,24.53 L88.09,24.66 L88.22,24.84 L88.31,25.04 L88.34,25.26 L88.34,29.52 L88.31,29.74 L88.22,29.95 L88.09,30.12 L87.91,30.26 L87.70,30.34 L87.48,30.37 L83.23,30.37 L83.01,30.34 L82.80,30.26 L82.62,30.12 L82.49,29.95 L82.40,29.74 L82.37,29.52 L82.37,25.26 L82.40,25.04 L82.49,24.84 L82.62,24.66 L82.80,24.53 L83.01,24.44 L83.23,24.41 L87.48,24.41 Z" fill="#b4ec36" stroke="#b4ec36" stroke-width="1" stroke-linejoin="round"/><path d="M91.57,45.87 L22.25,45.87 L20.64,46.30 L19.45,47.49 L19.02,49.11 L19.02,66.14 L19.45,67.76 L20.64,68.94 L22.25,69.37 L91.57,69.37 L93.19,68.94 L94.37,67.76 L94.81,66.14 L94.81,49.11 L94.37,47.49 L93.19,46.30 L91.57,45.87 Z" fill="#27b2d7" stroke="#1e1e1e" stroke-width="1" stroke-linejoin="round"/><ellipse cx="54.84" cy="90.55" rx="8.57" ry="8.57" fill="#27b2d7" stroke="#27b2d7" stroke-width="1"/><path d="M87.48,49.39 L87.70,49.42 L87.91,49.50 L88.09,49.64 L88.22,49.82 L88.31,50.02 L88.34,50.24 L88.34,54.50 L88.31,54.72 L88.22,54.93 L88.09,55.10 L87.91,55.24 L87.70,55.32 L87.48,55.35 L83.23,55.35 L83.01,55.32 L82.80,55.24 L82.62,55.10 L82.49,54.93 L82.40,54.72 L82.37,54.50 L82.37,50.24 L82.40,50.02 L82.49,49.82 L82.62,49.64 L82.80,49.50 L83.01,49.42 L83.23,49.39 L87.48,49.39 Z" fill="#b4ec36" stroke="#b4ec36" stroke-width="1" stroke-linejoin="round"/><path d="M87.48,59.67 L87.70,59.70 L87.91,59.78 L88.09,59.92 L88.22,60.09 L88.31,60.30 L88.34,60.52 L88.34,64.78 L88.31,65.00 L88.22,65.20 L88.09,65.38 L87.91,65.51 L87.70,65.60 L87.48,65.63 L83.23,65.63 L83.01,65.60 L82.80,65.51 L82.62,65.38 L82.49,65.20 L82.40,65.00 L82.37,64.78 L82.37,60.52 L82.40,60.30 L82.49,60.09 L82.62,59.92 L82.80,59.78 L83.01,59.70 L83.23,59.67 L87.48,59.67 Z" fill="#b4ec36" stroke="#b4ec36" stroke-width="1" stroke-linejoin="round"/></svg>