<svg xmlns="http://www.w3.org/2000/svg" viewBox="0.03 0.99 95.94 94.03"><rect x="2.03" y="2.99" width="71.95" height="90.03" fill="#38c6e4" stroke="#1e1e1e" stroke-width="1"/><path d="M93.76,66.03 L78.45,50.72 L77.91,50.51 L77.37,50.73 L77.12,51.25 L77.12,60.21 L73.67,60.33 L70.26,60.67 L66.89,61.24 L63.61,62.02 L60.43,63.03 L57.39,64.25 L54.51,65.69 L51.82,67.33 L49.34,69.19 L47.11,71.24 L45.15,73.50 L43.48,75.96 L42.14,78.62 L41.15,81.47 L40.53,84.51 L40.32,87.73 L41.80,85.98 L44.25,83.81 L47.63,81.43 L51.90,79.03 L57.02,76.81 L59.89,75.84 L62.96,74.98 L66.22,74.28 L69.67,73.74 L73.31,73.40 L77.12,73.28 L77.12,81.87 L77.37,82.39 L77.91,82.61 L78.45,82.40 L93.76,67.09 L93.96,66.56 L93.76,66.03 Z" fill="#773adc" stroke="#1e1e1e" stroke-width="1" stroke-linejoin="round"/><path d="M58.99,29.87 L58.99,54.29 L38.03,66.56 L38.03,42.08 L58.99,29.87 Z" fill="#50e6ff" stroke="#1e1e1e" stroke-width="1" stroke-linejoin="round"/><path d="M58.99,29.87 L38.03,42.13 L17.01,29.87 L38.03,17.60 L58.99,29.87 Z" fill="#c3f1ff" stroke="#1e1e1e" stroke-width="1" stroke-linejoin="round"/><path d="M38.03,42.13 L38.03,66.56 L17.01,54.29 L17.01,29.87 L38.03,42.13 Z" fill="#9cebff" stroke="#1e1e1e" stroke-width="1" stroke-linejoin="round"/><path d="M17.01,54.29 L38.03,42.08 L38.03,66.56 L17.01,54.29 Z" fill="#c3f1ff" stroke="#1e1e1e" stroke-width="1" stroke-linejoin="round"/><path d="M58.99,54.29 L38.03,42.08 L38.03,66.56 L58.99,54.29 Z" fill="#9cebff" stroke="#1e1e1e" stroke-width="1" stroke-linejoin="round"/></svg>