<svg xmlns="http://www.w3.org/2000/svg" viewBox="-0.61 5.10 100.00 88.59"><path d="M47.05,67.68 L47.05,67.68 L46.16,67.29 L45.81,66.39 L45.81,64.30 L43.69,64.30 L42.80,63.93 L42.42,63.03 L42.80,62.13 L43.69,61.76 L47.07,61.76 L47.97,62.13 L48.34,63.03 L48.34,66.44 L47.95,67.33 L47.05,67.68 L47.05,67.68 Z" fill="#37c2b1" stroke="#37c2b1" stroke-width="1" stroke-linejoin="round"/><path d="M42.17,79.80 L41.39,79.51 L40.95,78.81 L41.04,77.98 L41.62,77.39 L43.21,76.28 L44.40,74.74 L45.08,72.92 L45.68,72.17 L46.63,72.06 L47.39,72.65 L47.52,73.61 L46.56,76.07 L44.92,78.15 L42.75,79.67 L42.47,79.77 L42.17,79.80 Z" fill="#37c2b1" stroke="#37c2b1" stroke-width="1" stroke-linejoin="round"/><path d="M38.01,85.42 L34.63,85.42 L33.73,85.05 L33.36,84.15 L33.77,82.04 L34.93,80.22 L35.81,79.81 L36.72,80.15 L37.13,81.04 L36.79,81.95 L36.44,82.39 L36.16,82.88 L38.01,82.88 L38.90,83.26 L39.27,84.15 L38.90,85.05 L38.01,85.42 L38.01,85.42 Z" fill="#37c2b1" stroke="#37c2b1" stroke-width="1" stroke-linejoin="round"/><path d="M65.40,85.42 L58.55,85.42 L57.66,85.05 L57.29,84.15 L57.66,83.26 L58.55,82.88 L65.40,82.88 L66.30,83.26 L66.67,84.15 L66.30,85.05 L65.40,85.42 L65.40,85.42 Z" fill="#37c2b1" stroke="#37c2b1" stroke-width="1" stroke-linejoin="round"/><path d="M75.63,85.42 L72.25,85.42 L71.35,85.05 L70.98,84.15 L71.35,83.26 L72.25,82.88 L74.08,82.88 L73.81,82.39 L73.46,81.95 L73.16,81.06 L73.56,80.21 L74.44,79.87 L75.31,80.22 L76.47,82.04 L76.89,84.15 L76.52,85.05 L75.63,85.42 L75.63,85.42 Z" fill="#37c2b1" stroke="#37c2b1" stroke-width="1" stroke-linejoin="round"/><path d="M68.07,79.80 L67.79,79.77 L67.52,79.67 L65.35,78.17 L63.71,76.10 L62.74,73.64 L62.85,72.67 L63.62,72.07 L64.58,72.19 L65.18,72.95 L65.86,74.77 L67.05,76.31 L68.64,77.42 L69.23,78.01 L69.32,78.84 L68.88,79.54 L68.10,79.82 L68.07,79.80 Z" fill="#37c2b1" stroke="#37c2b1" stroke-width="1" stroke-linejoin="round"/><path d="M63.18,67.68 L62.29,67.32 L61.91,66.44 L61.91,63.03 L62.28,62.14 L63.18,61.76 L66.56,61.76 L67.46,62.13 L67.83,63.03 L67.46,63.93 L66.56,64.30 L64.42,64.30 L64.42,66.39 L64.07,67.29 L63.18,67.68 L63.18,67.68 Z" fill="#37c2b1" stroke="#37c2b1" stroke-width="1" stroke-linejoin="round"/><path d="M93.11,64.30 L86.47,64.30 L85.57,63.93 L85.20,63.03 L85.57,62.13 L86.47,61.76 L93.11,61.76 L94.00,62.13 L94.38,63.03 L94.00,63.93 L93.11,64.30 L93.11,64.30 Z" fill="#37c2b1" stroke="#37c2b1" stroke-width="1" stroke-linejoin="round"/><path d="M79.82,64.30 L73.18,64.30 L72.29,63.93 L71.91,63.03 L72.29,62.13 L73.18,61.76 L79.82,61.76 L80.72,62.13 L81.09,63.03 L80.72,63.93 L79.82,64.30 L79.82,64.30 Z" fill="#37c2b1" stroke="#37c2b1" stroke-width="1" stroke-linejoin="round"/><path d="M37.02,64.30 L30.37,64.30 L29.48,63.93 L29.11,63.03 L29.48,62.13 L30.37,61.76 L37.02,61.76 L37.92,62.13 L38.29,63.03 L37.92,63.93 L37.02,64.30 L37.02,64.30 Z" fill="#37c2b1" stroke="#37c2b1" stroke-width="1" stroke-linejoin="round"/><path d="M23.73,64.30 L17.09,64.30 L16.19,63.93 L15.82,63.03 L16.19,62.13 L17.09,61.76 L23.73,61.76 L24.63,62.13 L25.00,63.03 L24.63,63.93 L23.73,64.30 L23.73,64.30 Z" fill="#37c2b1" stroke="#37c2b1" stroke-width="1" stroke-linejoin="round"/><path d="M96.12,59.49 L95.22,59.12 L94.85,58.22 L94.85,51.58 L95.22,50.69 L96.12,50.32 L97.02,50.69 L97.39,51.58 L97.39,58.22 L97.02,59.12 L96.12,59.49 L96.12,59.49 Z" fill="#37c2b1" stroke="#37c2b1" stroke-width="1" stroke-linejoin="round"/><path d="M14.11,59.49 L13.22,59.12 L12.85,58.22 L12.85,51.55 L13.22,50.65 L14.11,50.28 L15.01,50.65 L15.38,51.55 L15.38,58.20 L15.01,59.09 L14.11,59.46 L14.11,59.49 Z" fill="#37c2b1" stroke="#37c2b1" stroke-width="1" stroke-linejoin="round"/><path d="M96.12,46.21 L95.22,45.84 L94.85,44.94 L94.85,38.30 L95.22,37.40 L96.12,37.03 L97.02,37.40 L97.39,38.30 L97.39,44.94 L97.02,45.83 L96.12,46.21 Z" fill="#37c2b1" stroke="#37c2b1" stroke-width="1" stroke-linejoin="round"/><path d="M14.11,46.18 L13.22,45.81 L12.85,44.91 L12.85,38.27 L13.22,37.37 L14.11,37.00 L15.01,37.37 L15.38,38.27 L15.38,44.91 L15.01,45.81 L14.11,46.18 L14.11,46.18 Z" fill="#37c2b1" stroke="#37c2b1" stroke-width="1" stroke-linejoin="round"/><path d="M96.12,32.93 L95.22,32.56 L94.85,31.66 L94.85,25.01 L95.22,24.12 L96.12,23.74 L97.02,24.12 L97.39,25.01 L97.39,31.65 L97.02,32.55 L96.12,32.93 L96.12,32.93 Z" fill="#37c2b1" stroke="#37c2b1" stroke-width="1" stroke-linejoin="round"/><path d="M14.11,32.89 L13.22,32.52 L12.85,31.62 L12.85,24.98 L13.22,24.08 L14.11,23.71 L15.01,24.08 L15.38,24.98 L15.38,31.62 L15.01,32.52 L14.11,32.89 L14.11,32.89 Z" fill="#37c2b1" stroke="#37c2b1" stroke-width="1" stroke-linejoin="round"/><path d="M96.12,19.63 L95.22,19.26 L94.85,18.37 L94.85,11.73 L95.22,10.83 L96.12,10.46 L97.02,10.83 L97.39,11.73 L97.39,18.37 L97.02,19.26 L96.12,19.63 Z" fill="#37c2b1" stroke="#37c2b1" stroke-width="1" stroke-linejoin="round"/><path d="M14.11,19.60 L13.22,19.23 L12.85,18.33 L12.85,11.69 L13.22,10.80 L14.11,10.43 L15.01,10.80 L15.38,11.69 L15.38,18.33 L15.01,19.23 L14.11,19.60 L14.11,19.60 Z" fill="#37c2b1" stroke="#37c2b1" stroke-width="1" stroke-linejoin="round"/><path d="M91.64,9.63 L85.02,9.63 L84.13,9.26 L83.76,8.36 L84.13,7.47 L85.02,7.10 L91.64,7.10 L92.54,7.47 L92.91,8.36 L92.54,9.26 L91.64,9.63 L91.64,9.63 Z" fill="#37c2b1" stroke="#37c2b1" stroke-width="1" stroke-linejoin="round"/><path d="M78.35,9.63 L71.71,9.63 L70.82,9.26 L70.44,8.36 L70.82,7.47 L71.71,7.10 L78.35,7.10 L79.25,7.47 L79.62,8.36 L79.25,9.26 L78.35,9.63 L78.35,9.63 Z" fill="#37c2b1" stroke="#37c2b1" stroke-width="1" stroke-linejoin="round"/><path d="M65.07,9.63 L58.43,9.63 L57.53,9.26 L57.16,8.36 L57.53,7.47 L58.43,7.10 L65.07,7.10 L65.96,7.47 L66.33,8.36 L65.96,9.26 L65.07,9.63 L65.07,9.63 Z" fill="#37c2b1" stroke="#37c2b1" stroke-width="1" stroke-linejoin="round"/><path d="M51.78,9.63 L45.17,9.63 L44.27,9.26 L43.90,8.36 L44.27,7.47 L45.17,7.10 L51.81,7.10 L52.70,7.47 L53.08,8.36 L52.70,9.26 L51.81,9.63 L51.78,9.63 Z" fill="#37c2b1" stroke="#37c2b1" stroke-width="1" stroke-linejoin="round"/><path d="M38.50,9.63 L31.88,9.63 L30.99,9.26 L30.62,8.36 L30.99,7.47 L31.88,7.10 L38.52,7.10 L39.42,7.47 L39.79,8.36 L39.42,9.26 L38.52,9.63 L38.50,9.63 Z" fill="#37c2b1" stroke="#37c2b1" stroke-width="1" stroke-linejoin="round"/><path d="M25.21,9.63 L18.60,9.63 L17.70,9.26 L17.33,8.36 L17.70,7.47 L18.60,7.10 L25.24,7.10 L26.14,7.47 L26.51,8.36 L26.14,9.26 L25.24,9.63 L25.21,9.63 Z" fill="#37c2b1" stroke="#37c2b1" stroke-width="1" stroke-linejoin="round"/><path d="M80.66,15.89 L81.37,15.99 L82.03,16.26 L82.59,16.69 L83.03,17.26 L83.30,17.92 L83.39,18.63 L83.39,67.83 L83.30,68.54 L83.03,69.20 L82.59,69.76 L82.03,70.20 L81.37,70.47 L80.66,70.56 L4.13,70.56 L3.42,70.47 L2.76,70.20 L2.19,69.76 L1.76,69.20 L1.48,68.54 L1.39,67.83 L1.39,18.63 L1.48,17.92 L1.76,17.26 L2.19,16.69 L2.76,16.26 L3.42,15.99 L4.13,15.89 L80.66,15.89 Z" fill="#3a90e5" stroke="#1e1e1e" stroke-width="1" stroke-linejoin="round"/><path d="M58.84,87.10 L56.15,86.41 L54.10,85.30 L52.61,83.79 L51.59,81.88 L50.95,79.59 L50.60,76.94 L50.44,70.56 L34.35,70.56 L34.18,76.94 L33.83,79.60 L33.19,81.89 L32.17,83.79 L30.68,85.31 L28.64,86.41 L25.95,87.10 L24.38,87.63 L23.10,88.66 L22.24,90.07 L21.91,91.68 L62.91,91.68 L62.57,90.06 L61.70,88.66 L60.41,87.63 L58.84,87.10 Z" fill="#1f56a3" stroke="#1e1e1e" stroke-width="1" stroke-linejoin="round"/><path d="M54.80,35.01 L54.80,49.44 L42.39,56.73 L42.39,42.25 L54.80,35.01 Z" fill="#50e6ff" stroke="#50e6ff" stroke-width="1" stroke-linejoin="round"/><path d="M54.80,35.01 L42.44,42.29 L29.98,35.01 L42.44,27.77 L54.80,35.01 Z" fill="#c3f1ff" stroke="#1e1e1e" stroke-width="1" stroke-linejoin="round"/><path d="M42.39,42.29 L42.39,56.73 L29.98,49.44 L29.98,35.01 L42.39,42.29 Z" fill="#9cebff" stroke="#9cebff" stroke-width="1" stroke-linejoin="round"/><path d="M29.98,49.44 L42.39,42.25 L42.39,56.73 L29.98,49.44 Z" fill="#c3f1ff" stroke="#c3f1ff" stroke-width="1" stroke-linejoin="round"/><path d="M54.80,49.44 L42.39,42.25 L42.39,56.73 L54.80,49.44 Z" fill="#9cebff" stroke="#9cebff" stroke-width="1" stroke-linejoin="round"/><path d="M25.35,22.39 L13.97,22.39 L12.60,22.76 L11.60,23.76 L11.23,25.13 L11.23,36.55 L11.63,37.51 L12.59,37.91 L13.50,37.91 L14.47,37.51 L14.87,36.55 L14.87,25.99 L25.35,25.99 L26.29,25.58 L26.67,24.62 L26.67,23.76 L26.29,22.80 L25.35,22.39 L25.35,22.39 Z" fill="#ffffff" stroke="#ffffff" stroke-width="1" stroke-linejoin="round"/><path d="M25.35,58.22 L14.82,58.22 L14.82,47.74 L14.42,46.78 L13.46,46.38 L12.62,46.38 L11.66,46.78 L11.26,47.74 L11.26,59.33 L11.60,60.69 L12.59,61.71 L13.94,62.10 L25.35,62.10 L26.32,61.64 L26.69,60.63 L26.69,60.48 L26.69,59.58 L26.30,58.62 L25.35,58.22 L25.35,58.22 Z" fill="#ffffff" stroke="#ffffff" stroke-width="1" stroke-linejoin="round"/><path d="M70.98,22.50 L59.77,22.50 L58.81,22.90 L58.40,23.86 L58.40,24.75 L58.71,25.75 L59.64,26.23 L70.24,26.23 L70.24,36.62 L70.64,37.59 L71.61,37.99 L72.56,37.99 L73.52,37.59 L73.92,36.62 L73.92,25.24 L73.56,23.87 L72.55,22.87 L71.18,22.50 L70.98,22.50 Z" fill="#ffffff" stroke="#ffffff" stroke-width="1" stroke-linejoin="round"/><path d="M72.39,46.47 L71.52,46.47 L70.55,46.87 L70.15,47.83 L70.15,47.83 L70.15,58.34 L59.77,58.34 L58.80,58.74 L58.40,59.71 L58.40,60.62 L58.80,61.58 L59.77,61.98 L71.15,61.98 L72.52,61.62 L73.54,60.61 L73.92,59.24 L73.92,47.83 L73.52,46.86 L72.56,46.46 L72.47,46.46 L72.39,46.47 Z" fill="#ffffff" stroke="#ffffff" stroke-width="1" stroke-linejoin="round"/></svg>