<svg xmlns="http://www.w3.org/2000/svg" viewBox="-3.07 2.64 100.00 92.69"><rect x="-1.07" y="4.64" width="96.00" height="64.00" fill="#3990e4" stroke="#1e1e1e" stroke-width="1"/><path d="M62.93,27.31 L62.93,45.92 L46.93,55.31 L46.93,36.64 L62.93,27.31 Z" fill="#50e6ff" stroke="#1e1e1e" stroke-width="1" stroke-linejoin="round"/><path d="M62.93,27.31 L46.99,36.69 L30.93,27.31 L46.99,17.97 L62.93,27.31 Z" fill="#c3f1ff" stroke="#1e1e1e" stroke-width="1" stroke-linejoin="round"/><path d="M46.93,36.69 L46.93,55.31 L30.93,45.92 L30.93,27.31 L46.93,36.69 Z" fill="#9cebff" stroke="#1e1e1e" stroke-width="1" stroke-linejoin="round"/><path d="M30.93,45.92 L46.93,36.64 L46.93,55.31 L30.93,45.92 Z" fill="#c3f1ff" stroke="#c3f1ff" stroke-width="1" stroke-linejoin="round"/><path d="M62.93,45.92 L46.93,36.64 L46.93,55.31 L62.93,45.92 Z" fill="#9cebff" stroke="#9cebff" stroke-width="1" stroke-linejoin="round"/><path d="M66.19,88.00 L64.51,87.66 L63.04,87.19 L61.75,86.60 L60.64,85.90 L59.69,85.07 L58.90,84.13 L58.24,83.07 L57.70,81.90 L56.95,79.22 L56.55,76.11 L56.39,72.58 L56.37,68.64 L37.33,68.64 L37.18,76.11 L36.82,79.22 L36.13,81.90 L35.62,83.07 L34.98,84.13 L34.20,85.07 L33.26,85.90 L32.16,86.60 L30.87,87.19 L29.38,87.66 L27.68,88.00 L25.83,88.58 L24.32,89.77 L23.32,91.43 L22.99,93.33 L70.99,93.33 L70.57,91.44 L69.54,89.81 L68.02,88.61 L66.19,88.00 L66.19,88.00 Z" fill="#1a72c0" stroke="#1e1e1e" stroke-width="1" stroke-linejoin="round"/><path d="M24.96,11.04 L10.29,11.04 L8.95,11.31 L7.80,12.07 L7.04,13.21 L6.77,14.56 L6.77,29.28 L7.01,30.16 L7.65,30.80 L8.53,31.04 L9.71,31.04 L10.59,30.80 L11.23,30.16 L11.47,29.28 L11.47,15.68 L24.96,15.68 L25.82,15.43 L26.44,14.78 L26.67,13.92 L26.67,12.80 L26.44,11.94 L25.82,11.29 L24.96,11.04 L24.96,11.04 Z" fill="#ffffff" stroke="#1e1e1e" stroke-width="1" stroke-linejoin="round"/><path d="M24.96,57.23 L11.41,57.23 L11.41,43.73 L11.18,42.85 L10.53,42.21 L9.65,41.97 L8.53,41.97 L7.65,42.21 L7.01,42.85 L6.77,43.73 L6.77,58.67 L7.03,60.03 L7.79,61.19 L8.93,61.97 L10.29,62.24 L24.96,62.24 L25.90,61.92 L26.54,61.15 L26.67,60.16 L26.67,58.99 L26.44,58.12 L25.82,57.48 L24.96,57.23 L24.96,57.23 Z" fill="#ffffff" stroke="#1e1e1e" stroke-width="1" stroke-linejoin="round"/><path d="M83.79,11.20 L69.33,11.20 L68.45,11.44 L67.81,12.08 L67.57,12.96 L67.57,14.08 L67.75,15.03 L68.40,15.74 L69.33,16.00 L82.83,16.00 L82.83,29.39 L83.06,30.27 L83.71,30.91 L84.59,31.15 L85.81,31.15 L86.69,30.91 L87.34,30.27 L87.57,29.39 L87.57,14.72 L87.28,13.31 L86.45,12.13 L85.22,11.39 L83.79,11.20 L83.79,11.20 Z" fill="#ffffff" stroke="#1e1e1e" stroke-width="1" stroke-linejoin="round"/><path d="M85.60,42.08 L84.48,42.08 L83.60,42.32 L82.96,42.96 L82.72,43.84 L82.72,57.39 L69.33,57.39 L68.45,57.62 L67.81,58.27 L67.57,59.15 L67.57,60.32 L67.81,61.20 L68.45,61.84 L69.33,62.08 L84.00,62.08 L85.36,61.81 L86.51,61.05 L87.29,59.91 L87.57,58.56 L87.57,43.84 L87.31,42.89 L86.57,42.24 L85.60,42.08 Z" fill="#ffffff" stroke="#1e1e1e" stroke-width="1" stroke-linejoin="round"/></svg>