<svg xmlns="http://www.w3.org/2000/svg" viewBox="-1.19 1.13 100.00 95.30"><ellipse cx="38.97" cy="41.29" rx="38.16" ry="38.16" fill="#5c9fee" stroke="#1e1e1e" stroke-width="1"/><ellipse cx="39.12" cy="41.29" rx="33.22" ry="33.22" fill="#ffffff" stroke="#1e1e1e" stroke-width="1"/><path d="M38.20,63.67 L40.04,63.67 L40.04,69.37 L38.20,69.37 L38.20,63.67 Z" fill="#7a7a7a" stroke="#7a7a7a" stroke-width="1" stroke-linejoin="round"/><path d="M18.12,21.60 L19.42,20.30 L23.45,24.33 L22.15,25.63 L18.12,21.60 Z" fill="#7a7a7a" stroke="#7a7a7a" stroke-width="1" stroke-linejoin="round"/><path d="M18.40,60.68 L22.43,56.66 L23.73,57.96 L19.70,61.99 L18.40,60.68 Z" fill="#7a7a7a" stroke="#7a7a7a" stroke-width="1" stroke-linejoin="round"/><path d="M10.56,40.33 L16.26,40.33 L16.26,42.16 L10.56,42.16 L10.56,40.33 Z" fill="#7a7a7a" stroke="#7a7a7a" stroke-width="1" stroke-linejoin="round"/><path d="M52.89,51.48 L43.19,41.83 L42.46,41.34 L41.61,41.16 L41.83,40.64 L41.90,40.07 L41.90,15.51 L41.59,14.35 L40.74,13.49 L39.57,13.18 L39.12,13.18 L37.96,13.49 L37.10,14.35 L36.78,15.51 L36.78,40.10 L37.10,41.27 L37.96,42.12 L39.12,42.44 L39.38,42.44 L38.95,43.43 L39.02,44.51 L39.57,45.45 L49.24,55.09 L50.28,55.69 L51.49,55.69 L52.54,55.09 L52.85,54.78 L53.45,53.73 L53.45,52.52 L52.85,51.48 L52.89,51.48 Z" fill="#7a7a7a" stroke="#7a7a7a" stroke-width="1" stroke-linejoin="round"/><ellipse cx="39.15" cy="41.23" rx="5.41" ry="5.41" fill="#6e6e6e" stroke="#6e6e6e" stroke-width="1"/><path d="M48.06,90.01 L78.11,55.68 L81.38,56.05 L84.65,55.73 L87.78,54.73 L90.64,53.11 L93.10,50.93 L94.93,48.44 L96.18,45.61 L96.81,42.59 L96.80,39.50 L96.13,36.49 L88.18,45.42 L79.68,43.84 L76.85,35.77 L84.81,26.98 L81.67,26.71 L78.54,27.09 L75.54,28.09 L72.82,29.68 L70.46,31.78 L68.65,34.27 L67.41,37.08 L66.80,40.10 L66.84,43.17 L67.53,46.17 L35.51,82.78 L34.26,84.89 L33.80,87.30 L34.19,89.72 L35.38,91.86 L37.22,93.47 L39.50,94.37 L41.95,94.43 L44.28,93.66 L46.20,92.14 L48.06,90.01 Z" fill="#949494" stroke="#1e1e1e" stroke-width="1" stroke-linejoin="round"/></svg>