<svg xmlns="http://www.w3.org/2000/svg" viewBox="-1.17 -0.04 98.34 96.09"><path d="M54.13,15.88 L47.38,10.92 L40.73,15.83 L9.24,38.28 L21.49,75.33 L24.06,83.18 L34.16,83.18 L34.16,75.34 L29.72,75.33 L18.83,41.44 L47.38,20.84 L76.15,41.49 L74.25,47.41 L82.50,47.41 L82.50,47.71 L85.52,38.55 L85.52,38.28 L54.13,15.88 Z" fill="#e27908" stroke="#1e1e1e" stroke-width="1" stroke-linejoin="round"/><ellipse cx="25.96" cy="80.29" rx="13.46" ry="13.46" fill="#f48a0e" stroke="#1e1e1e" stroke-width="1"/><ellipse cx="81.71" cy="39.97" rx="13.46" ry="13.46" fill="#f48a0e" stroke="#1e1e1e" stroke-width="1"/><ellipse cx="14.29" cy="39.97" rx="13.46" ry="13.46" fill="#f48a0e" stroke="#1e1e1e" stroke-width="1"/><ellipse cx="47.38" cy="15.42" rx="13.46" ry="13.46" fill="#f48a0e" stroke="#1e1e1e" stroke-width="1"/><path d="M70.46,88.17 L73.57,86.87 L78.97,89.35 L82.20,86.12 L81.88,85.49 L79.64,81.23 L80.54,77.99 L85.71,75.86 L85.71,71.25 L85.47,71.06 L80.67,69.40 L79.45,66.25 L81.89,61.52 L82.12,60.99 L80.67,59.41 L78.93,57.60 L78.30,57.91 L73.69,60.28 L70.54,59.37 L68.53,54.25 L63.96,54.25 L63.72,54.49 L62.15,59.17 L58.92,60.39 L53.58,57.87 L50.35,61.10 L50.67,61.73 L53.07,66.30 L51.77,69.46 L46.22,71.47 L46.22,76.07 L46.90,76.27 L51.78,77.87 L53.08,81.22 L50.56,86.55 L53.79,89.82 L54.42,89.55 L59.03,87.19 L62.18,88.49 L64.19,94.04 L68.84,94.04 L70.46,88.17 Z" fill="#8953e5" stroke="#8953e5" stroke-width="1" stroke-linejoin="round"/><path d="M66.36,80.13 L64.06,79.73 L62.06,78.53 L60.61,76.71 L59.91,74.49 L60.04,72.16 L60.98,70.03 L62.62,68.37 L64.74,67.40 L67.06,67.25 L69.29,67.93 L71.13,69.36 L72.35,71.34 L72.78,73.63 L72.78,73.63 L72.47,75.63 L71.56,77.43 L70.14,78.87 L68.35,79.80 L66.36,80.13 L66.36,80.13 Z" fill="#ffffff" stroke="#ffffff" stroke-width="1" stroke-linejoin="round"/></svg>