<svg xmlns="http://www.w3.org/2000/svg" viewBox="-1.15 -0.01 100.00 97.71"><path d="M55.09,16.16 L48.21,11.12 L41.45,16.11 L9.40,38.95 L21.87,76.66 L24.48,84.65 L34.76,84.65 L34.76,76.67 L30.25,76.66 L19.16,42.17 L48.21,21.21 L77.49,42.23 L75.55,48.24 L83.95,48.24 L83.95,48.55 L87.03,39.23 L87.03,38.95 L55.09,16.16 Z" fill="#e27908" stroke="#1e1e1e" stroke-width="1" stroke-linejoin="round"/><ellipse cx="26.42" cy="81.70" rx="13.70" ry="13.70" fill="#f48a0e" stroke="#1e1e1e" stroke-width="1"/><ellipse cx="83.15" cy="40.67" rx="13.70" ry="13.70" fill="#f48a0e" stroke="#1e1e1e" stroke-width="1"/><ellipse cx="14.55" cy="40.67" rx="13.70" ry="13.70" fill="#f48a0e" stroke="#1e1e1e" stroke-width="1"/><ellipse cx="48.21" cy="15.69" rx="13.70" ry="13.70" fill="#f48a0e" stroke="#1e1e1e" stroke-width="1"/><path d="M71.70,89.73 L74.87,88.40 L80.36,90.93 L83.65,87.64 L83.33,87.00 L81.04,82.66 L81.96,79.37 L87.22,77.20 L87.22,72.51 L86.97,72.31 L82.09,70.63 L80.85,67.42 L83.33,62.61 L83.57,62.06 L82.09,60.46 L80.33,58.62 L79.69,58.94 L74.99,61.34 L71.78,60.42 L69.74,55.21 L65.09,55.21 L64.85,55.45 L63.25,60.22 L59.96,61.46 L54.53,58.89 L51.24,62.18 L51.56,62.82 L54.01,67.47 L52.68,70.68 L47.04,72.73 L47.04,77.42 L47.72,77.62 L52.69,79.25 L54.02,82.65 L51.45,88.08 L54.74,91.41 L55.38,91.13 L60.07,88.73 L63.28,90.05 L65.32,95.70 L70.06,95.70 L71.70,89.73 Z" fill="#8953e5" stroke="#8953e5" stroke-width="1" stroke-linejoin="round"/><path d="M67.53,81.55 L65.19,81.13 L63.16,79.92 L61.68,78.06 L60.96,75.80 L61.09,73.43 L62.05,71.26 L63.72,69.58 L65.88,68.59 L68.25,68.43 L70.51,69.13 L72.39,70.58 L73.63,72.60 L74.07,74.93 L74.07,74.93 L73.75,76.96 L72.82,78.80 L71.38,80.26 L69.55,81.20 L67.53,81.55 L67.53,81.55 Z" fill="#ffffff" stroke="#ffffff" stroke-width="1" stroke-linejoin="round"/></svg>