<svg xmlns="http://www.w3.org/2000/svg" viewBox="-0.34 -0.34 100.00 100.00"><path d="M49.68,53.54 L35.88,67.34 L35.70,66.51 L35.26,65.69 L34.22,64.03 L33.81,63.39 L33.39,63.06 L32.57,62.93 L45.81,49.68 L31.46,35.33 L33.10,34.42 L34.42,33.10 L35.33,31.46 L49.68,45.81 L64.03,31.46 L64.65,32.77 L65.04,33.25 L65.69,33.67 L66.87,34.40 L67.89,35.33 L53.54,49.68 L67.34,63.48 L65.65,64.44 L64.48,66.00 L64.03,67.89 L49.68,53.54 Z" fill="#e27908" stroke="#1e1e1e" stroke-width="1" stroke-linejoin="round"/><path d="M30.36,75.07 L42.50,87.21 L42.50,86.66 L42.89,84.42 L43.83,82.35 L45.26,80.59 L35.33,70.65 L34.66,72.28 L33.53,73.64 L32.05,74.59 L30.36,75.07 Z" fill="#e27908" stroke="#e27908" stroke-width="1" stroke-linejoin="round"/><path d="M12.14,56.30 L12.14,56.30 L23.74,68.45 L24.08,66.81 L24.89,65.36 L26.10,64.21 L27.60,63.48 L18.22,53.54 L16.45,54.98 L14.38,55.92 L12.14,56.30 L12.14,56.30 Z" fill="#e27908" stroke="#e27908" stroke-width="1" stroke-linejoin="round"/><path d="M23.74,30.91 L13.80,40.85 L15.99,41.58 L17.88,42.90 L19.32,44.71 L28.70,35.33 L25.39,33.67 L23.74,30.91 Z" fill="#e27908" stroke="#e27908" stroke-width="1" stroke-linejoin="round"/><path d="M42.50,12.14 L30.91,23.74 L32.90,24.63 L34.44,26.17 L35.33,28.15 L45.26,18.22 L43.76,16.49 L42.81,14.41 L42.50,12.14 L42.50,12.14 Z" fill="#e27908" stroke="#e27908" stroke-width="1" stroke-linejoin="round"/><path d="M69.00,23.74 L57.96,12.70 L57.44,14.85 L56.30,16.74 L54.65,18.22 L64.58,28.15 L65.47,26.17 L67.01,24.63 L69.00,23.74 L69.00,23.74 Z" fill="#e27908" stroke="#e27908" stroke-width="1" stroke-linejoin="round"/><path d="M86.66,41.40 L76.17,30.91 L75.28,32.90 L73.74,34.44 L71.76,35.33 L81.69,45.26 L82.84,43.40 L84.57,42.05 L86.66,41.40 Z" fill="#e27908" stroke="#e27908" stroke-width="1" stroke-linejoin="round"/><path d="M81.69,54.09 L72.31,63.48 L73.62,64.10 L74.09,64.49 L74.52,65.13 L75.44,66.24 L76.01,67.57 L76.17,69.00 L87.77,57.41 L85.52,56.74 L83.47,55.62 L81.69,54.09 L81.69,54.09 Z" fill="#e27908" stroke="#e27908" stroke-width="1" stroke-linejoin="round"/><path d="M64.58,71.21 L55.20,80.59 L55.75,81.14 L57.02,82.74 L57.77,84.63 L57.96,86.66 L69.55,75.07 L68.12,74.90 L66.79,74.33 L65.69,73.41 L64.97,72.39 L64.58,71.21 Z" fill="#e27908" stroke="#e27908" stroke-width="1" stroke-linejoin="round"/><ellipse cx="29.81" cy="29.81" rx="8.28" ry="8.28" fill="#f78d1e" stroke="#f78d1e" stroke-width="1"/><ellipse cx="69.55" cy="29.81" rx="8.28" ry="8.28" fill="#f78d1e" stroke="#f78d1e" stroke-width="1"/><ellipse cx="29.81" cy="69.55" rx="8.28" ry="8.28" fill="#f78d1e" stroke="#f78d1e" stroke-width="1"/><ellipse cx="69.55" cy="69.55" rx="8.28" ry="8.28" fill="#f78d1e" stroke="#f78d1e" stroke-width="1"/><path d="M12.14,39.19 L15.01,39.59 L17.66,40.76 L19.89,42.61 L21.53,45.00 L22.45,47.75 L22.59,50.65 L21.92,53.47 L20.51,56.00 L18.46,58.05 L15.93,59.46 L13.11,60.12 L10.22,59.99 L7.47,59.07 L5.08,57.43 L3.23,55.20 L2.06,52.55 L1.66,49.68 L2.01,46.96 L3.06,44.43 L4.73,42.26 L6.90,40.60 L9.43,39.55 L12.14,39.19 L12.14,39.19 Z" fill="#ec7a13" stroke="#1e1e1e" stroke-width="1" stroke-linejoin="round"/><path d="M87.21,39.19 L90.08,39.59 L92.73,40.76 L94.96,42.61 L96.60,45.00 L97.52,47.75 L97.66,50.65 L96.99,53.47 L95.58,56.00 L93.53,58.05 L91.00,59.46 L88.18,60.12 L85.29,59.99 L82.54,59.07 L80.15,57.43 L78.30,55.20 L77.13,52.55 L76.73,49.68 L77.08,46.96 L78.13,44.43 L79.80,42.26 L81.97,40.60 L84.50,39.55 L87.21,39.19 L87.21,39.19 Z" fill="#ec7a13" stroke="#1e1e1e" stroke-width="1" stroke-linejoin="round"/><path d="M49.68,1.66 L52.55,2.06 L55.20,3.23 L57.43,5.08 L59.07,7.47 L59.99,10.22 L60.12,13.11 L59.46,15.93 L58.05,18.46 L56.00,20.51 L53.47,21.92 L50.65,22.59 L47.75,22.45 L45.00,21.53 L42.61,19.89 L40.76,17.66 L39.59,15.01 L39.19,12.14 L39.55,9.43 L40.60,6.90 L42.26,4.73 L44.43,3.06 L46.96,2.01 L49.68,1.66 L49.68,1.66 Z" fill="#f68b1d" stroke="#1e1e1e" stroke-width="1" stroke-linejoin="round"/><path d="M49.68,76.73 L52.55,77.13 L55.20,78.30 L57.43,80.15 L59.07,82.54 L59.99,85.29 L60.12,88.18 L59.46,91.00 L58.05,93.53 L56.00,95.58 L53.47,96.99 L50.65,97.66 L47.75,97.52 L45.00,96.60 L42.61,94.96 L40.76,92.73 L39.59,90.08 L39.19,87.21 L39.55,84.50 L40.60,81.97 L42.26,79.80 L44.43,78.13 L46.96,77.08 L49.68,76.73 L49.68,76.73 Z" fill="#f68b1d" stroke="#1e1e1e" stroke-width="1" stroke-linejoin="round"/></svg>