<svg xmlns="http://www.w3.org/2000/svg" viewBox="1.82 2.64 92.35 90.72"><path d="M43.45,4.64 L37.99,6.11 L32.78,8.32 L27.93,11.23 L23.53,14.79 L19.67,18.92 L16.42,23.55 L13.84,28.59 L11.99,33.93 L10.89,39.48 L10.58,45.13 L11.05,50.76 L12.30,56.28 L14.30,61.57 L17.02,66.53 L20.40,71.07 L24.37,75.09 L28.87,78.52 L30.27,75.01 L30.88,74.53 L31.60,74.82 L41.64,87.79 L41.81,88.37 L41.52,88.89 L41.34,89.00 L41.13,89.06 L25.00,91.36 L24.42,91.20 L24.13,90.68 L24.13,90.48 L24.17,90.28 L26.22,85.09 L21.28,81.59 L16.82,77.48 L12.93,72.84 L9.66,67.74 L7.07,62.27 L5.20,56.51 L4.10,50.75 L3.82,44.89 L4.37,39.05 L5.75,33.36 L7.91,27.91 L10.83,22.82 L14.43,18.20 L18.65,14.13 L23.40,10.69 L28.60,7.97 L34.12,6.00 L38.74,5.05 L43.45,4.64 L43.45,4.64 Z" fill="#86d633" stroke="#1e1e1e" stroke-width="1" stroke-linejoin="round"/><path d="M52.74,5.55 L47.01,5.96 L41.40,7.20 L36.04,9.25 L31.02,12.05 L26.47,15.56 L22.48,19.69 L19.12,24.35 L16.49,29.46 L14.62,34.89 L13.56,40.54 L13.34,46.28 L13.95,51.99 L15.39,57.55 L17.62,62.84 L20.60,67.76 L24.26,72.18 L26.04,73.84 L27.93,75.38 L28.38,74.26 L29.00,73.32 L29.94,72.69 L31.05,72.49 L32.25,72.79 L33.20,73.57 L39.90,82.21 L45.41,83.68 L51.07,84.34 L56.77,84.17 L62.38,83.18 L67.80,81.39 L72.90,78.85 L77.58,75.59 L81.73,71.69 L85.29,67.23 L88.16,62.30 L90.29,57.01 L91.64,51.47 L92.17,45.80 L91.88,40.10 L90.77,34.51 L88.87,29.14 L86.20,24.09 L82.84,19.49 L78.85,15.42 L74.32,11.96 L69.33,9.20 L64.00,7.18 L58.43,5.96 L52.74,5.55 L52.74,5.55 Z" fill="#2f8ce2" stroke="#1e1e1e" stroke-width="1" stroke-linejoin="round"/><path d="M69.94,34.33 L69.94,54.34 L52.74,64.43 L52.74,44.36 L69.94,34.33 Z" fill="#67d4ee" stroke="#1e1e1e" stroke-width="1" stroke-linejoin="round"/><path d="M69.94,34.33 L52.80,44.42 L35.55,34.33 L52.80,24.30 L69.94,34.33 Z" fill="#c3f1ff" stroke="#1e1e1e" stroke-width="1" stroke-linejoin="round"/><path d="M52.74,44.42 L52.74,64.43 L35.55,54.34 L35.55,34.33 L52.74,44.42 Z" fill="#67d4ee" stroke="#1e1e1e" stroke-width="1" stroke-linejoin="round"/><path d="M41.32,20.31 L29.14,20.31 L27.68,20.71 L26.61,21.78 L26.21,23.24 L26.21,35.47 L26.41,36.20 L26.95,36.74 L27.68,36.93 L28.65,36.93 L29.38,36.74 L29.92,36.20 L30.11,35.47 L30.11,24.17 L41.32,24.17 L42.04,23.96 L42.55,23.43 L42.74,22.71 L42.74,21.78 L42.55,21.06 L42.04,20.52 L41.32,20.31 L41.32,20.31 Z" fill="#ffffff" stroke="#ffffff" stroke-width="1" stroke-linejoin="round"/><path d="M41.32,65.47 L30.07,65.47 L30.07,54.25 L29.87,53.52 L29.34,52.99 L28.61,52.79 L27.68,52.79 L26.95,52.99 L26.41,53.52 L26.21,54.25 L26.21,66.66 L26.58,68.13 L27.64,69.22 L29.09,69.63 L29.14,69.63 L41.32,69.63 L42.07,69.39 L42.59,68.82 L42.76,68.05 L42.74,67.90 L42.74,66.93 L42.55,66.21 L42.04,65.68 L41.32,65.47 L41.32,65.47 Z" fill="#ffffff" stroke="#ffffff" stroke-width="1" stroke-linejoin="round"/><path d="M76.13,20.45 L64.12,20.45 L63.39,20.65 L62.85,21.18 L62.66,21.91 L62.66,22.84 L62.78,23.59 L63.27,24.17 L63.98,24.43 L64.05,24.44 L64.12,24.44 L75.33,24.44 L75.33,35.56 L75.52,36.29 L76.06,36.83 L76.79,37.02 L77.81,37.02 L78.54,36.83 L79.08,36.29 L79.28,35.56 L79.28,23.38 L78.89,21.91 L77.82,20.84 L76.36,20.44 L76.13,20.45 Z" fill="#ffffff" stroke="#ffffff" stroke-width="1" stroke-linejoin="round"/><path d="M77.63,52.88 L76.70,52.88 L75.97,53.08 L75.44,53.62 L75.24,54.35 L75.24,54.35 L75.24,65.60 L64.12,65.60 L63.39,65.80 L62.85,66.33 L62.66,67.06 L62.66,68.04 L62.85,68.77 L63.39,69.30 L64.12,69.50 L76.30,69.50 L77.78,69.11 L78.86,68.04 L79.27,66.58 L79.27,54.35 L79.05,53.56 L78.44,53.02 L77.63,52.88 L77.63,52.88 Z" fill="#ffffff" stroke="#ffffff" stroke-width="1" stroke-linejoin="round"/></svg>