<svg xmlns="http://www.w3.org/2000/svg" viewBox="-1.74 7.12 100.00 82.29"><ellipse cx="60.88" cy="45.54" rx="35.38" ry="35.38" fill="#005ba1" stroke="#1e1e1e" stroke-width="1"/><path d="M36.04,9.12 L30.81,10.55 L25.84,12.74 L21.25,15.63 L17.14,19.17 L13.59,23.28 L10.69,27.86 L8.49,32.82 L7.05,38.05 L6.40,43.44 L6.55,48.86 L7.49,54.21 L9.21,59.35 L11.67,64.19 L14.82,68.61 L18.58,72.52 L22.88,75.83 L24.14,72.66 L24.69,72.22 L25.34,72.48 L34.41,84.19 L34.56,84.71 L34.30,85.19 L34.14,85.29 L33.95,85.34 L19.39,87.41 L18.87,87.27 L18.60,86.80 L18.60,86.62 L18.64,86.44 L20.49,81.75 L16.03,78.59 L12.00,74.89 L8.49,70.70 L5.54,66.09 L3.20,61.15 L1.51,55.95 L0.51,50.75 L0.26,45.46 L0.77,40.19 L2.01,35.05 L3.96,30.13 L6.59,25.54 L9.85,21.36 L13.66,17.69 L17.95,14.59 L22.63,12.13 L27.62,10.35 L31.80,9.49 L36.04,9.12 L36.04,9.12 Z" fill="#86d633" stroke="#1e1e1e" stroke-width="1" stroke-linejoin="round"/><path d="M44.43,9.94 L39.26,10.32 L34.20,11.44 L29.35,13.29 L24.82,15.82 L20.71,18.98 L17.11,22.71 L14.08,26.92 L11.70,31.53 L10.02,36.43 L9.06,41.53 L8.86,46.71 L9.41,51.87 L10.71,56.89 L12.73,61.67 L15.41,66.11 L18.72,70.10 L20.33,71.60 L22.03,72.99 L22.44,71.98 L22.99,71.13 L23.84,70.56 L24.85,70.37 L25.30,70.43 L25.74,70.56 L26.32,70.89 L26.79,71.36 L32.83,79.16 L38.03,80.52 L43.37,81.09 L48.73,80.85 L54.00,79.80 L59.05,77.97 L63.77,75.41 L68.05,72.16 L71.79,68.31 L74.90,63.93 L77.33,59.14 L79.00,54.04 L79.89,48.74 L79.97,43.37 L79.24,38.05 L77.72,32.90 L75.44,28.04 L72.46,23.57 L68.83,19.61 L64.65,16.23 L60.02,13.53 L55.02,11.55 L49.79,10.35 L44.43,9.94 L44.43,9.94 Z" fill="#2f8ce2" stroke="#1e1e1e" stroke-width="1" stroke-linejoin="round"/><path d="M59.96,35.93 L59.96,53.99 L44.44,63.10 L44.44,44.99 L59.96,35.93 Z" fill="#67d4ee" stroke="#1e1e1e" stroke-width="1" stroke-linejoin="round"/><path d="M59.96,35.93 L44.48,45.04 L28.91,35.93 L44.48,26.87 L59.96,35.93 Z" fill="#c3f1ff" stroke="#1e1e1e" stroke-width="1" stroke-linejoin="round"/><path d="M44.44,45.04 L44.44,63.10 L28.91,53.99 L28.91,35.93 L44.44,45.04 Z" fill="#67d4ee" stroke="#1e1e1e" stroke-width="1" stroke-linejoin="round"/><path d="M34.12,23.28 L23.12,23.28 L21.80,23.63 L20.84,24.60 L20.48,25.92 L20.48,36.96 L20.87,37.89 L21.80,38.28 L22.68,38.28 L23.62,37.89 L24.00,36.96 L24.00,26.76 L34.12,26.76 L35.03,26.35 L35.40,25.44 L35.40,24.60 L35.03,23.68 L34.12,23.28 L34.12,23.28 Z" fill="#ffffff" stroke="#ffffff" stroke-width="1" stroke-linejoin="round"/><path d="M34.12,64.04 L23.96,64.04 L23.96,53.92 L23.58,52.98 L22.64,52.60 L21.80,52.60 L20.87,52.98 L20.48,53.92 L20.48,65.12 L20.82,66.44 L21.77,67.43 L23.08,67.80 L34.12,67.80 L35.07,67.36 L35.42,66.38 L35.40,66.24 L35.40,65.36 L35.03,64.44 L34.12,64.04 L34.12,64.04 Z" fill="#ffffff" stroke="#ffffff" stroke-width="1" stroke-linejoin="round"/><path d="M65.54,23.40 L54.70,23.40 L53.77,23.79 L53.38,24.72 L53.38,25.56 L53.68,26.52 L54.58,26.99 L54.70,27.00 L64.82,27.00 L64.82,37.04 L65.21,37.97 L66.14,38.36 L67.06,38.36 L68.00,37.97 L68.38,37.04 L68.38,26.04 L68.03,24.72 L67.07,23.75 L65.75,23.39 L65.54,23.40 Z" fill="#ffffff" stroke="#ffffff" stroke-width="1" stroke-linejoin="round"/><path d="M66.90,52.68 L66.06,52.68 L65.13,53.07 L64.74,54.00 L64.74,54.00 L64.74,64.16 L54.70,64.16 L53.77,64.55 L53.38,65.48 L53.38,66.36 L53.77,67.30 L54.70,67.68 L65.70,67.68 L67.03,67.33 L68.01,66.37 L68.39,65.04 L68.39,54.00 L68.01,53.06 L67.08,52.67 L66.99,52.67 L66.90,52.68 Z" fill="#ffffff" stroke="#ffffff" stroke-width="1" stroke-linejoin="round"/></svg>