<svg xmlns="http://www.w3.org/2000/svg" viewBox="2.15 3.04 100.00 98.22"><path d="M47.21,5.04 L41.27,6.64 L35.62,9.04 L30.35,12.20 L25.57,16.07 L21.37,20.56 L17.84,25.59 L15.04,31.06 L13.02,36.87 L11.83,42.90 L11.49,49.03 L12.00,55.16 L13.36,61.15 L15.54,66.90 L18.49,72.29 L22.16,77.22 L26.48,81.59 L31.37,85.32 L32.89,81.51 L33.55,80.98 L34.33,81.30 L45.25,95.39 L45.42,96.02 L45.11,96.59 L44.91,96.71 L44.69,96.77 L27.17,99.26 L26.54,99.09 L26.22,98.53 L26.21,98.31 L26.27,98.10 L28.49,92.45 L23.12,88.65 L18.28,84.19 L14.05,79.15 L10.49,73.61 L7.68,67.66 L5.65,61.40 L4.45,55.14 L4.15,48.78 L4.75,42.44 L6.25,36.24 L8.60,30.32 L11.76,24.79 L15.68,19.77 L20.27,15.35 L25.43,11.62 L31.07,8.66 L37.07,6.52 L42.10,5.48 L47.21,5.04 L47.21,5.04 Z" fill="#86d633" stroke="#1e1e1e" stroke-width="1" stroke-linejoin="round"/><path d="M57.31,6.03 L51.08,6.48 L44.99,7.83 L39.16,10.05 L33.71,13.10 L28.76,16.90 L24.42,21.39 L20.78,26.46 L17.91,32.01 L15.89,37.91 L14.74,44.04 L14.49,50.28 L15.16,56.49 L16.72,62.53 L19.15,68.28 L22.38,73.62 L26.36,78.43 L28.30,80.24 L30.35,81.91 L30.83,80.69 L31.51,79.66 L32.53,78.98 L33.74,78.76 L35.04,79.09 L36.08,79.94 L43.35,89.33 L49.34,90.92 L55.49,91.64 L61.68,91.46 L67.78,90.38 L73.67,88.44 L79.21,85.67 L84.29,82.13 L88.81,77.89 L92.67,73.05 L95.79,67.70 L98.11,61.95 L99.57,55.93 L100.15,49.76 L99.83,43.57 L98.63,37.50 L96.56,31.66 L93.67,26.18 L90.02,21.18 L85.68,16.75 L80.75,13.00 L75.33,9.99 L69.54,7.80 L63.49,6.47 L57.31,6.03 L57.31,6.03 Z" fill="#2f8ce2" stroke="#1e1e1e" stroke-width="1" stroke-linejoin="round"/><path d="M76.00,37.30 L76.00,59.04 L57.31,70.00 L57.31,48.20 L76.00,37.30 Z" fill="#67d4ee" stroke="#1e1e1e" stroke-width="1" stroke-linejoin="round"/><path d="M76.00,37.30 L57.37,48.27 L38.62,37.30 L57.37,26.40 L76.00,37.30 Z" fill="#c3f1ff" stroke="#1e1e1e" stroke-width="1" stroke-linejoin="round"/><path d="M57.31,48.27 L57.31,70.00 L38.62,59.04 L38.62,37.30 L57.31,48.27 Z" fill="#67d4ee" stroke="#1e1e1e" stroke-width="1" stroke-linejoin="round"/><path d="M44.90,22.07 L31.66,22.07 L30.07,22.50 L28.91,23.66 L28.48,25.25 L28.48,38.54 L28.70,39.33 L29.28,39.92 L30.07,40.13 L31.13,40.13 L31.93,39.92 L32.51,39.33 L32.72,38.54 L32.72,26.26 L44.90,26.26 L45.68,26.03 L46.24,25.45 L46.44,24.67 L46.44,23.66 L46.24,22.88 L45.68,22.30 L44.90,22.07 L44.90,22.07 Z" fill="#ffffff" stroke="#1e1e1e" stroke-width="1" stroke-linejoin="round"/><path d="M44.90,71.13 L32.67,71.13 L32.67,58.95 L32.46,58.16 L31.88,57.57 L31.08,57.36 L30.07,57.36 L29.28,57.57 L28.70,58.16 L28.48,58.95 L28.48,72.43 L28.89,74.03 L30.03,75.21 L31.61,75.66 L31.66,75.66 L44.90,75.66 L45.71,75.40 L46.28,74.77 L46.46,73.94 L46.44,73.78 L46.44,72.72 L46.24,71.94 L45.68,71.36 L44.90,71.13 L44.90,71.13 Z" fill="#ffffff" stroke="#1e1e1e" stroke-width="1" stroke-linejoin="round"/><path d="M82.72,22.22 L69.67,22.22 L68.87,22.43 L68.29,23.02 L68.08,23.81 L68.08,24.82 L68.22,25.63 L68.75,26.26 L69.52,26.55 L69.59,26.55 L69.67,26.56 L81.85,26.56 L81.85,38.64 L82.06,39.44 L82.64,40.02 L83.44,40.23 L84.55,40.23 L85.34,40.02 L85.93,39.44 L86.14,38.64 L86.14,25.40 L85.72,23.81 L84.56,22.64 L82.97,22.21 L82.72,22.22 Z" fill="#ffffff" stroke="#1e1e1e" stroke-width="1" stroke-linejoin="round"/><path d="M84.35,57.46 L83.34,57.46 L82.55,57.68 L81.97,58.26 L81.75,59.05 L81.75,59.05 L81.75,71.28 L69.67,71.28 L68.87,71.49 L68.29,72.07 L68.08,72.87 L68.08,73.93 L68.29,74.72 L68.87,75.30 L69.67,75.52 L82.91,75.52 L84.51,75.09 L85.69,73.93 L86.14,72.34 L86.14,59.05 L85.89,58.20 L85.23,57.61 L84.35,57.46 L84.35,57.46 Z" fill="#ffffff" stroke="#1e1e1e" stroke-width="1" stroke-linejoin="round"/></svg>