<svg xmlns="http://www.w3.org/2000/svg" viewBox="-1.74 7.07 99.46 81.85"><ellipse cx="60.54" cy="45.28" rx="35.18" ry="35.18" fill="#005ba1" stroke="#1e1e1e" stroke-width="1"/><path d="M35.84,9.07 L30.64,10.49 L25.70,12.67 L21.13,15.54 L17.04,19.06 L13.52,23.15 L10.63,27.70 L8.45,32.64 L7.01,37.84 L6.36,43.20 L6.51,48.59 L7.45,53.90 L9.16,59.02 L11.61,63.83 L14.74,68.22 L18.48,72.11 L22.75,75.40 L24.01,72.25 L24.55,71.82 L25.20,72.08 L34.22,83.72 L34.37,84.24 L34.11,84.71 L33.94,84.81 L33.76,84.86 L19.28,86.92 L18.76,86.78 L18.49,86.31 L18.49,86.13 L18.54,85.96 L20.37,81.30 L15.94,78.15 L11.94,74.47 L8.44,70.30 L5.50,65.72 L3.18,60.81 L1.50,55.64 L0.51,50.47 L0.26,45.21 L0.76,39.97 L1.99,34.85 L3.94,29.96 L6.56,25.39 L9.79,21.24 L13.58,17.59 L17.85,14.51 L22.51,12.06 L27.47,10.30 L31.62,9.44 L35.84,9.07 L35.84,9.07 Z" fill="#86d633" stroke="#1e1e1e" stroke-width="1" stroke-linejoin="round"/><path d="M44.19,9.89 L39.04,10.26 L34.01,11.38 L29.19,13.21 L24.69,15.73 L20.60,18.88 L17.01,22.58 L14.00,26.77 L11.64,31.35 L9.96,36.23 L9.01,41.30 L8.81,46.45 L9.36,51.58 L10.65,56.57 L12.65,61.33 L15.33,65.74 L18.61,69.71 L20.22,71.20 L21.91,72.59 L22.31,71.58 L22.87,70.73 L23.71,70.17 L24.71,69.98 L25.16,70.03 L25.60,70.17 L26.17,70.49 L26.64,70.96 L32.65,78.71 L37.82,80.07 L43.13,80.64 L48.46,80.40 L53.70,79.36 L58.72,77.54 L63.41,74.99 L67.67,71.76 L71.39,67.92 L74.49,63.58 L76.90,58.81 L78.56,53.74 L79.44,48.47 L79.52,43.13 L78.80,37.84 L77.29,32.72 L75.02,27.88 L72.05,23.44 L68.45,19.50 L64.29,16.14 L59.68,13.45 L54.72,11.48 L49.51,10.29 L44.19,9.89 L44.19,9.89 Z" fill="#2f8ce2" stroke="#1e1e1e" stroke-width="1" stroke-linejoin="round"/><path d="M59.63,35.73 L59.63,53.69 L44.19,62.75 L44.19,44.74 L59.63,35.73 Z" fill="#67d4ee" stroke="#1e1e1e" stroke-width="1" stroke-linejoin="round"/><path d="M59.63,35.73 L44.23,44.78 L28.75,35.73 L44.23,26.72 L59.63,35.73 Z" fill="#c3f1ff" stroke="#1e1e1e" stroke-width="1" stroke-linejoin="round"/><path d="M44.19,44.78 L44.19,62.75 L28.75,53.69 L28.75,35.73 L44.19,44.78 Z" fill="#67d4ee" stroke="#1e1e1e" stroke-width="1" stroke-linejoin="round"/><path d="M33.93,23.15 L22.99,23.15 L21.68,23.50 L20.72,24.46 L20.37,25.77 L20.37,36.75 L20.75,37.68 L21.68,38.06 L22.56,38.06 L23.48,37.68 L23.87,36.75 L23.87,26.61 L33.93,26.61 L34.84,26.21 L35.21,25.29 L35.21,24.46 L34.84,23.54 L33.93,23.15 L33.93,23.15 Z" fill="#ffffff" stroke="#ffffff" stroke-width="1" stroke-linejoin="round"/><path d="M33.93,63.68 L23.83,63.68 L23.83,53.61 L23.44,52.69 L22.52,52.30 L21.68,52.30 L20.75,52.69 L20.37,53.61 L20.37,64.75 L20.70,66.07 L21.65,67.05 L22.95,67.42 L33.93,67.42 L34.87,66.98 L35.22,66.01 L35.21,65.87 L35.21,64.99 L34.84,64.08 L33.93,63.68 L33.93,63.68 Z" fill="#ffffff" stroke="#ffffff" stroke-width="1" stroke-linejoin="round"/><path d="M65.18,23.27 L54.40,23.27 L53.47,23.65 L53.08,24.58 L53.08,25.42 L53.38,26.38 L54.27,26.84 L54.40,26.85 L64.46,26.85 L64.46,36.83 L64.85,37.76 L65.77,38.15 L66.69,38.15 L67.62,37.76 L68.00,36.83 L68.00,25.89 L67.65,24.58 L66.70,23.62 L65.38,23.26 L65.18,23.27 Z" fill="#ffffff" stroke="#ffffff" stroke-width="1" stroke-linejoin="round"/><path d="M66.53,52.39 L65.69,52.39 L64.77,52.77 L64.38,53.70 L64.38,53.70 L64.38,63.80 L54.40,63.80 L53.47,64.19 L53.08,65.12 L53.08,65.99 L53.47,66.92 L54.40,67.30 L65.34,67.30 L66.66,66.95 L67.63,65.99 L68.00,64.68 L68.00,53.70 L67.63,52.77 L66.70,52.38 L66.62,52.38 L66.53,52.39 Z" fill="#ffffff" stroke="#ffffff" stroke-width="1" stroke-linejoin="round"/></svg>