<svg xmlns="http://www.w3.org/2000/svg" viewBox="0.09 0.10 100.00 99.99"><path d="M49.63,83.76 L48.39,81.04 L47.47,78.16 L46.90,75.15 L46.71,72.02 L46.82,69.66 L47.14,67.36 L47.67,65.13 L48.39,62.98 L49.30,60.92 L50.38,58.96 L51.62,57.11 L53.02,55.38 L54.56,53.78 L56.24,52.31 L58.04,51.00 L59.96,49.85 L61.98,48.86 L64.10,48.05 L66.30,47.43 L68.58,47.00 L68.58,15.51 L68.37,14.46 L67.78,13.60 L66.92,13.02 L65.87,12.81 L4.80,12.81 L3.74,13.02 L2.88,13.60 L2.30,14.46 L2.09,15.51 L2.09,81.04 L2.30,82.09 L2.88,82.95 L3.74,83.53 L4.80,83.74 L16.31,83.74 L16.31,83.76 L49.62,83.76 L49.63,83.76 Z" fill="#006aba" stroke="#1e1e1e" stroke-width="1" stroke-linejoin="round"/><path d="M46.71,72.02 L46.80,69.92 L47.05,67.86 L47.47,65.86 L48.05,63.91 L49.64,60.24 L51.78,56.89 L54.40,53.93 L57.45,51.40 L60.88,49.36 L64.62,47.88 L64.62,19.83 L64.59,19.58 L64.57,19.30 L64.49,19.05 L64.41,18.79 L64.29,18.56 L64.16,18.33 L64.00,18.13 L63.84,17.93 L63.64,17.77 L63.44,17.60 L63.21,17.48 L62.98,17.35 L62.73,17.27 L62.47,17.19 L62.20,17.17 L61.94,17.14 L61.91,17.14 L61.91,17.14 L8.94,17.14 L8.94,17.14 L8.92,17.14 L8.66,17.17 L8.38,17.19 L8.13,17.27 L7.88,17.35 L7.64,17.48 L7.42,17.60 L7.21,17.77 L7.02,17.93 L6.85,18.13 L6.69,18.33 L6.57,18.56 L6.45,18.79 L6.37,19.05 L6.29,19.30 L6.26,19.58 L6.23,19.83 L6.23,76.70 L6.45,77.75 L7.03,78.61 L7.89,79.19 L8.94,79.40 L47.82,79.40 L46.99,75.79 L46.71,72.02 L46.71,72.02 Z" fill="#0078d4" stroke="#1e1e1e" stroke-width="1" stroke-linejoin="round"/><path d="M40.51,7.91 L40.53,6.85 L40.34,5.84 L39.96,4.91 L39.41,4.07 L38.72,3.34 L37.89,2.76 L36.94,2.35 L35.91,2.12 L34.84,2.10 L33.83,2.29 L32.89,2.67 L32.04,3.21 L31.32,3.91 L30.73,4.73 L30.32,5.67 L30.09,6.71 L30.07,6.97 L30.07,7.91 L19.93,7.91 L19.05,8.09 L18.34,8.57 L17.85,9.28 L17.67,10.15 L17.67,10.15 L17.67,10.15 L17.67,19.64 L52.99,19.64 L52.99,10.15 L52.82,9.28 L52.34,8.57 L51.62,8.09 L50.75,7.91 L50.75,7.91 L40.52,7.91 L40.51,7.91 Z" fill="#5ea0ef" stroke="#5ea0ef" stroke-width="1" stroke-linejoin="round"/><path d="M34.57,5.39 L35.60,5.31 L36.56,5.62 L37.32,6.26 L37.80,7.17 L37.90,7.89 L37.84,7.89 L37.63,8.90 L37.07,9.72 L36.25,10.27 L35.24,10.47 L34.25,10.28 L33.44,9.75 L32.90,8.99 L32.66,8.08 L32.76,7.12 L33.03,6.52 L33.43,6.02 L33.95,5.63 L34.56,5.38 L34.57,5.39 Z" fill="#ffffff" stroke="#ffffff" stroke-width="1" stroke-linejoin="round"/><path d="M20.04,34.21 L20.45,34.26 L20.83,34.42 L21.16,34.67 L21.41,35.00 L21.56,35.38 L21.62,35.78 L21.62,39.60 L21.56,40.00 L21.41,40.38 L21.16,40.71 L20.83,40.96 L20.45,41.12 L20.04,41.17 L14.48,41.17 L14.07,41.12 L13.70,40.96 L13.37,40.71 L13.12,40.38 L12.96,40.00 L12.91,39.60 L12.91,35.78 L12.96,35.38 L13.12,35.00 L13.37,34.67 L13.70,34.42 L14.07,34.26 L14.48,34.21 L20.04,34.21 Z" fill="#ffffff" stroke="#ffffff" stroke-width="1" stroke-linejoin="round" opacity="0.8"/><path d="M56.02,34.21 L56.41,34.26 L56.78,34.41 L57.09,34.66 L57.34,34.97 L57.49,35.34 L57.54,35.73 L57.54,39.65 L57.49,40.04 L57.34,40.41 L57.09,40.72 L56.78,40.97 L56.41,41.12 L56.02,41.17 L29.08,41.17 L28.68,41.12 L28.31,40.97 L28.00,40.72 L27.76,40.41 L27.60,40.04 L27.55,39.65 L27.55,35.73 L27.60,35.34 L27.76,34.97 L28.00,34.66 L28.31,34.41 L28.68,34.26 L29.08,34.21 L56.02,34.21 Z" fill="#ffffff" stroke="#ffffff" stroke-width="1" stroke-linejoin="round"/><path d="M20.27,49.17 L20.67,49.22 L21.05,49.38 L21.38,49.63 L21.63,49.96 L21.79,50.34 L21.84,50.74 L21.84,54.56 L21.79,54.97 L21.63,55.35 L21.38,55.67 L21.05,55.92 L20.67,56.08 L20.27,56.13 L14.71,56.13 L14.30,56.08 L13.92,55.92 L13.59,55.67 L13.34,55.35 L13.18,54.97 L13.13,54.56 L13.13,50.74 L13.18,50.34 L13.34,49.96 L13.59,49.63 L13.92,49.38 L14.30,49.22 L14.71,49.17 L20.27,49.17 Z" fill="#ffffff" stroke="#ffffff" stroke-width="1" stroke-linejoin="round" opacity="0.8"/><path d="M57.53,51.35 L57.53,50.69 L57.52,50.59 L57.53,50.58 L57.50,50.42 L57.49,50.37 L57.42,50.13 L57.40,50.09 L57.27,49.85 L57.26,49.84 L56.73,49.35 L56.00,49.17 L29.29,49.17 L28.70,49.29 L28.21,49.61 L27.88,50.10 L27.76,50.69 L27.76,54.61 L27.88,55.20 L28.21,55.69 L28.70,56.01 L29.29,56.13 L35.49,56.13 L35.50,56.13 L52.37,56.13 L54.78,53.56 L57.52,51.35 L57.53,51.35 Z" fill="#ffffff" stroke="#ffffff" stroke-width="1" stroke-linejoin="round"/><ellipse cx="72.10" cy="72.02" rx="22.18" ry="22.07" fill="#0078d4" stroke="#1e1e1e" stroke-width="1"/><ellipse cx="72.01" cy="72.02" rx="19.31" ry="19.22" fill="#ffffff" stroke="#1e1e1e" stroke-width="1"/><path d="M71.75,72.68 L71.40,72.63 L71.07,72.50 L70.79,72.28 L70.57,72.00 L70.44,71.68 L70.39,71.33 L70.39,57.11 L70.44,56.76 L70.57,56.44 L70.79,56.16 L71.07,55.94 L71.40,55.81 L71.75,55.76 L72.02,55.76 L72.37,55.81 L72.69,55.94 L72.97,56.16 L73.19,56.44 L73.32,56.76 L73.37,57.11 L73.37,71.33 L73.32,71.68 L73.19,72.00 L72.97,72.28 L72.69,72.50 L72.37,72.63 L72.02,72.68 L71.75,72.68 Z" fill="#7a7a7a" stroke="#7a7a7a" stroke-width="1" stroke-linejoin="round"/><path d="M64.04,79.82 L64.23,80.01 L64.67,80.30 L65.18,80.40 L65.69,80.30 L66.14,80.01 L71.75,74.42 L72.05,73.98 L72.15,73.47 L72.05,72.96 L71.75,72.51 L71.57,72.33 L71.12,72.03 L70.61,71.93 L70.10,72.03 L69.65,72.33 L64.04,77.91 L63.74,78.36 L63.65,78.87 L63.74,79.37 L64.04,79.82 Z" fill="#7a7a7a" stroke="#7a7a7a" stroke-width="1" stroke-linejoin="round"/><ellipse cx="72.00" cy="71.98" rx="3.14" ry="3.14" fill="#5e5f60" stroke="#5e5f60" stroke-width="1"/><path d="M76.49,50.34 L78.70,50.91 L80.80,51.67 L82.79,52.63 L84.64,53.77 L86.37,55.07 L87.95,56.52 L89.38,58.11 L90.64,59.83 L91.74,61.65 L92.66,63.58 L93.39,65.59 L93.92,67.68 L94.25,69.83 L94.36,72.02 L94.25,74.24 L93.91,76.49 L93.34,78.72 L92.54,80.86 L91.53,82.89 L90.32,84.81 L88.92,86.60 L87.34,88.24 L85.59,89.71 L83.68,91.01 L82.95,89.07 L82.72,88.83 L82.39,88.82 L82.21,88.95 L76.43,95.93 L76.33,96.25 L76.48,96.54 L76.69,96.63 L85.68,98.09 L86.00,98.02 L86.17,97.73 L86.15,97.52 L85.08,94.64 L87.21,93.28 L89.19,91.73 L91.01,90.01 L92.64,88.12 L94.09,86.09 L95.34,83.92 L96.37,81.64 L97.19,79.25 L97.72,76.99 L98.02,74.74 L98.09,72.50 L97.93,70.29 L97.57,68.13 L97.00,66.02 L96.23,63.98 L95.26,62.03 L94.12,60.18 L92.81,58.44 L91.32,56.84 L89.68,55.37 L87.88,54.06 L85.95,52.92 L83.88,51.96 L81.67,51.21 L79.10,50.62 L76.48,50.34 L76.49,50.34 Z" fill="#86d633" stroke="#1e1e1e" stroke-width="1" stroke-linejoin="round"/></svg>