<svg xmlns="http://www.w3.org/2000/svg" viewBox="0.00 0.02 95.99 95.98"><path d="M47.55,80.26 L46.36,77.65 L45.49,74.90 L44.94,72.01 L44.76,69.01 L44.86,66.75 L45.17,64.55 L45.68,62.41 L46.37,60.35 L47.24,58.37 L48.27,56.50 L49.46,54.72 L50.80,53.06 L52.28,51.53 L53.89,50.13 L55.61,48.87 L57.45,47.76 L59.39,46.82 L61.42,46.04 L63.53,45.45 L65.71,45.04 L65.71,14.86 L65.51,13.85 L64.95,13.03 L64.13,12.48 L63.11,12.27 L4.60,12.27 L3.59,12.48 L2.76,13.03 L2.20,13.85 L2.00,14.86 L2.00,77.65 L2.20,78.66 L2.76,79.48 L3.59,80.04 L4.60,80.24 L15.63,80.24 L15.63,80.26 L47.55,80.26 L47.55,80.26 Z" fill="#006aba" stroke="#1e1e1e" stroke-width="1" stroke-linejoin="round"/><path d="M44.76,69.01 L44.84,67.00 L45.09,65.02 L45.49,63.10 L46.04,61.24 L47.57,57.72 L49.61,54.51 L52.13,51.67 L55.05,49.25 L58.33,47.30 L61.92,45.88 L61.92,19.00 L61.89,18.76 L61.87,18.50 L61.79,18.25 L61.72,18.01 L61.60,17.78 L61.48,17.56 L61.33,17.37 L61.17,17.18 L60.98,17.02 L60.78,16.86 L60.57,16.75 L60.35,16.62 L60.11,16.55 L59.86,16.47 L59.60,16.45 L59.35,16.42 L59.32,16.42 L59.32,16.42 L8.57,16.42 L8.57,16.42 L8.54,16.42 L8.29,16.45 L8.03,16.47 L7.79,16.55 L7.55,16.62 L7.32,16.75 L7.11,16.86 L6.91,17.02 L6.73,17.18 L6.57,17.37 L6.41,17.56 L6.29,17.78 L6.18,18.01 L6.10,18.25 L6.03,18.50 L6.00,18.76 L5.97,19.00 L5.97,73.49 L6.18,74.50 L6.73,75.32 L7.56,75.88 L8.57,76.08 L45.82,76.08 L45.03,72.63 L44.76,69.01 L44.76,69.01 Z" fill="#0078d4" stroke="#1e1e1e" stroke-width="1" stroke-linejoin="round"/><path d="M38.82,7.58 L38.84,6.56 L38.65,5.60 L38.29,4.70 L37.77,3.90 L37.10,3.20 L36.30,2.65 L35.40,2.25 L34.41,2.03 L33.39,2.02 L32.42,2.20 L31.51,2.56 L30.70,3.08 L30.01,3.74 L29.45,4.54 L29.05,5.44 L28.83,6.43 L28.81,6.68 L28.81,7.58 L19.09,7.58 L18.25,7.75 L17.57,8.21 L17.11,8.89 L16.93,9.72 L16.93,9.72 L16.93,9.72 L16.93,18.82 L50.78,18.82 L50.78,9.73 L50.61,8.89 L50.15,8.21 L49.47,7.75 L48.63,7.58 L48.63,7.58 L38.83,7.58 L38.82,7.58 Z" fill="#5ea0ef" stroke="#5ea0ef" stroke-width="1" stroke-linejoin="round"/><path d="M33.13,5.16 L34.12,5.08 L35.03,5.38 L35.76,6.00 L36.22,6.87 L36.32,7.56 L36.26,7.56 L36.06,8.52 L35.53,9.31 L34.74,9.84 L33.77,10.03 L32.82,9.85 L32.05,9.34 L31.52,8.61 L31.29,7.74 L31.39,6.83 L31.65,6.25 L32.04,5.77 L32.54,5.39 L33.12,5.16 L33.13,5.16 Z" fill="#ffffff" stroke="#ffffff" stroke-width="1" stroke-linejoin="round"/><rect x="12.37" y="32.78" width="8.35" height="6.67" fill="#ffffff" stroke="#ffffff" stroke-width="1" opacity="0.8"/><rect x="26.40" y="32.78" width="28.74" height="6.67" fill="#ffffff" stroke="#ffffff" stroke-width="1"/><rect x="12.58" y="47.11" width="8.35" height="6.67" fill="#ffffff" stroke="#ffffff" stroke-width="1" opacity="0.8"/><path d="M55.13,49.20 L55.13,48.57 L55.11,48.47 L55.13,48.47 L55.10,48.31 L55.09,48.26 L55.02,48.03 L55.00,47.99 L54.87,47.77 L54.87,47.75 L54.36,47.29 L53.66,47.11 L28.07,47.11 L27.50,47.23 L27.03,47.54 L26.72,48.01 L26.60,48.58 L26.60,52.33 L26.72,52.89 L27.03,53.36 L27.50,53.67 L28.07,53.79 L34.01,53.79 L34.02,53.79 L50.18,53.79 L52.49,51.33 L55.11,49.21 L55.13,49.20 Z" fill="#ffffff" stroke="#ffffff" stroke-width="1" stroke-linejoin="round"/><ellipse cx="69.09" cy="69.01" rx="21.25" ry="21.15" fill="#0078d4" stroke="#1e1e1e" stroke-width="1"/><ellipse cx="69.00" cy="69.01" rx="18.51" ry="18.42" fill="#ffffff" stroke="#1e1e1e" stroke-width="1"/><rect x="67.45" y="53.43" width="2.85" height="16.21" fill="#7a7a7a" stroke="#7a7a7a" stroke-width="1"/><path d="M61.37,76.49 L61.54,76.66 L61.97,76.95 L62.46,77.04 L62.95,76.95 L63.38,76.66 L68.75,71.31 L69.04,70.88 L69.13,70.40 L69.04,69.91 L68.75,69.48 L68.58,69.31 L68.15,69.02 L67.66,68.93 L67.17,69.02 L66.74,69.31 L61.37,74.66 L61.08,75.08 L60.99,75.57 L61.08,76.06 L61.37,76.49 Z" fill="#7a7a7a" stroke="#7a7a7a" stroke-width="1" stroke-linejoin="round"/><ellipse cx="68.99" cy="68.98" rx="3.01" ry="3.01" fill="#5e5f60" stroke="#5e5f60" stroke-width="1"/><path d="M73.29,48.24 L75.41,48.78 L77.42,49.51 L79.33,50.43 L81.11,51.52 L82.76,52.77 L84.27,54.16 L85.64,55.68 L86.85,57.33 L87.90,59.08 L88.78,60.92 L89.48,62.85 L89.99,64.85 L90.31,66.91 L90.42,69.01 L90.31,71.14 L89.99,73.29 L89.44,75.43 L88.67,77.48 L87.71,79.43 L86.55,81.27 L85.21,82.98 L83.69,84.55 L82.02,85.97 L80.19,87.21 L79.48,85.35 L79.27,85.12 L78.95,85.11 L78.77,85.23 L73.23,91.92 L73.14,92.22 L73.29,92.50 L73.49,92.59 L82.10,93.99 L82.41,93.92 L82.57,93.65 L82.55,93.44 L81.52,90.69 L83.57,89.38 L85.47,87.90 L87.20,86.24 L88.77,84.44 L90.16,82.49 L91.35,80.42 L92.34,78.23 L93.13,75.94 L93.64,73.78 L93.92,71.62 L93.99,69.47 L93.84,67.35 L93.49,65.28 L92.94,63.26 L92.20,61.31 L91.28,59.44 L90.19,57.67 L88.93,56.00 L87.50,54.46 L85.93,53.06 L84.21,51.80 L82.36,50.71 L80.37,49.79 L78.26,49.07 L75.80,48.51 L73.29,48.23 L73.29,48.24 Z" fill="#86d633" stroke="#1e1e1e" stroke-width="1" stroke-linejoin="round"/></svg>