<svg xmlns="http://www.w3.org/2000/svg" viewBox="-0.77 1.31 97.55 93.39"><path d="M85.33,38.40 L54.61,16.48 L54.61,16.48 L48.00,11.63 L48.00,11.63 L41.49,16.43 L41.49,16.43 L10.67,38.40 L10.67,38.40 L22.67,74.67 L22.67,74.67 L25.17,82.35 L71.04,82.35 L73.44,74.67 L73.44,74.67 L85.33,38.67 L85.33,38.67 L85.33,38.40 Z" fill="#e27908" stroke="#1e1e1e" stroke-width="1" stroke-linejoin="round"/><path d="M30.72,74.67 L20.05,41.49 L48.00,21.33 L76.16,41.55 L65.49,74.72 L30.72,74.67 Z" fill="#ffffff" stroke="#1e1e1e" stroke-width="1" stroke-linejoin="round"/><ellipse cx="27.04" cy="79.52" rx="13.17" ry="13.17" fill="#f48a0e" stroke="#1e1e1e" stroke-width="1"/><ellipse cx="68.21" cy="79.52" rx="13.17" ry="13.17" fill="#f48a0e" stroke="#1e1e1e" stroke-width="1"/><ellipse cx="81.60" cy="40.05" rx="13.17" ry="13.17" fill="#f48a0e" stroke="#1e1e1e" stroke-width="1"/><ellipse cx="14.40" cy="40.05" rx="13.17" ry="13.17" fill="#f48a0e" stroke="#1e1e1e" stroke-width="1"/><ellipse cx="48.00" cy="16.48" rx="13.17" ry="13.17" fill="#f48a0e" stroke="#1e1e1e" stroke-width="1"/></svg>