<svg xmlns="http://www.w3.org/2000/svg" viewBox="1.19 1.19 100.00 100.00"><path d="M86.33,3.19 L86.94,3.27 L87.52,3.51 L88.02,3.89 L88.40,4.38 L88.63,4.96 L88.72,5.58 L88.72,71.82 L88.63,72.43 L88.40,73.01 L88.02,73.51 L87.52,73.88 L86.94,74.12 L86.33,74.21 L34.37,74.21 L33.75,74.12 L33.18,73.88 L32.68,73.51 L32.30,73.01 L32.06,72.43 L31.98,71.82 L31.98,5.58 L32.06,4.96 L32.30,4.38 L32.68,3.89 L33.18,3.51 L33.75,3.27 L34.37,3.19 L86.33,3.19 Z" fill="#005ba1" stroke="#1e1e1e" stroke-width="1" stroke-linejoin="round"/><path d="M77.73,10.87 L78.35,10.95 L78.93,11.19 L79.42,11.57 L79.80,12.06 L80.04,12.64 L80.12,13.26 L80.12,79.50 L80.04,80.12 L79.80,80.69 L79.42,81.19 L78.93,81.57 L78.35,81.81 L77.73,81.89 L25.78,81.89 L25.16,81.81 L24.58,81.57 L24.09,81.19 L23.71,80.69 L23.47,80.12 L23.39,79.50 L23.39,13.26 L23.47,12.64 L23.71,12.06 L24.09,11.57 L24.58,11.19 L25.16,10.95 L25.78,10.87 L77.73,10.87 Z" fill="#0078d4" stroke="#1e1e1e" stroke-width="1" stroke-linejoin="round"/><path d="M69.03,18.61 L69.65,18.69 L70.22,18.93 L70.72,19.31 L71.10,19.80 L71.34,20.38 L71.42,21.00 L71.42,87.24 L71.34,87.86 L71.10,88.43 L70.72,88.93 L70.22,89.31 L69.65,89.55 L69.03,89.63 L17.07,89.63 L16.45,89.55 L15.88,89.31 L15.38,88.93 L15.00,88.43 L14.76,87.86 L14.68,87.24 L14.68,21.00 L14.76,20.38 L15.00,19.80 L15.38,19.31 L15.88,18.93 L16.45,18.69 L17.07,18.61 L69.03,18.61 Z" fill="#32bedd" stroke="#1e1e1e" stroke-width="1" stroke-linejoin="round"/><path d="M59.64,39.78 L59.64,59.07 L43.08,68.74 L43.08,49.45 L59.64,39.78 Z" fill="#50e6ff" stroke="#1e1e1e" stroke-width="1" stroke-linejoin="round"/><path d="M59.64,39.78 L43.08,49.51 L26.52,39.78 L43.08,30.10 L59.64,39.78 Z" fill="#c3f1ff" stroke="#1e1e1e" stroke-width="1" stroke-linejoin="round"/><path d="M43.08,49.51 L43.08,68.74 L26.52,59.07 L26.52,39.78 L43.08,49.51 Z" fill="#9cebff" stroke="#1e1e1e" stroke-width="1" stroke-linejoin="round"/><path d="M26.52,59.07 L43.08,49.45 L43.08,68.74 L26.52,59.07 Z" fill="#c3f1ff" stroke="#1e1e1e" stroke-width="1" stroke-linejoin="round"/><path d="M59.64,59.07 L43.08,49.45 L43.08,68.74 L59.64,59.07 Z" fill="#9cebff" stroke="#1e1e1e" stroke-width="1" stroke-linejoin="round"/><path d="M96.00,65.10 L96.82,65.21 L97.59,65.53 L98.25,66.03 L98.76,66.69 L99.08,67.46 L99.19,68.29 L99.19,96.00 L99.08,96.82 L98.76,97.59 L98.25,98.25 L97.59,98.76 L96.82,99.08 L96.00,99.19 L6.37,99.19 L5.55,99.08 L4.78,98.76 L4.12,98.25 L3.61,97.59 L3.30,96.82 L3.19,96.00 L3.19,68.29 L3.30,67.46 L3.61,66.69 L4.12,66.03 L4.78,65.53 L5.55,65.21 L6.37,65.10 L96.00,65.10 Z" fill="#3990e4" stroke="#1e1e1e" stroke-width="1" stroke-linejoin="round"/><path d="M62.48,73.52 L63.12,73.61 L63.71,73.85 L64.21,74.24 L64.60,74.75 L64.85,75.34 L64.93,75.97 L64.93,76.03 L64.85,76.66 L64.60,77.25 L64.21,77.76 L63.71,78.15 L63.12,78.39 L62.48,78.47 L40.00,78.47 L39.37,78.39 L38.78,78.15 L38.27,77.76 L37.89,77.25 L37.64,76.66 L37.56,76.03 L37.56,75.97 L37.64,75.34 L37.89,74.75 L38.27,74.24 L38.78,73.85 L39.37,73.61 L40.00,73.52 L62.48,73.52 Z" fill="#f2f2f2" stroke="#f2f2f2" stroke-width="1" stroke-linejoin="round"/></svg>