<svg xmlns="http://www.w3.org/2000/svg" viewBox="0.99 0.99 93.97 93.97"><path d="M80.91,2.99 L81.49,3.06 L82.03,3.29 L82.49,3.64 L82.85,4.11 L83.07,4.65 L83.15,5.23 L83.15,67.31 L83.07,67.89 L82.85,68.43 L82.49,68.89 L82.03,69.25 L81.49,69.47 L80.91,69.55 L32.21,69.55 L31.63,69.47 L31.09,69.25 L30.63,68.89 L30.27,68.43 L30.05,67.89 L29.97,67.31 L29.97,5.23 L30.05,4.65 L30.27,4.11 L30.63,3.64 L31.09,3.29 L31.63,3.06 L32.21,2.99 L80.91,2.99 Z" fill="#005ba1" stroke="#1e1e1e" stroke-width="1" stroke-linejoin="round"/><path d="M72.85,10.19 L73.43,10.26 L73.97,10.49 L74.44,10.84 L74.79,11.31 L75.02,11.85 L75.09,12.43 L75.09,74.51 L75.02,75.09 L74.79,75.63 L74.44,76.09 L73.97,76.45 L73.43,76.67 L72.85,76.75 L24.16,76.75 L23.58,76.67 L23.04,76.45 L22.58,76.09 L22.22,75.63 L22.00,75.09 L21.92,74.51 L21.92,12.43 L22.00,11.85 L22.22,11.31 L22.58,10.84 L23.04,10.49 L23.58,10.26 L24.16,10.19 L72.85,10.19 Z" fill="#0078d4" stroke="#1e1e1e" stroke-width="1" stroke-linejoin="round"/><path d="M64.69,17.44 L65.27,17.52 L65.81,17.74 L66.28,18.10 L66.63,18.56 L66.86,19.10 L66.93,19.68 L66.93,81.76 L66.86,82.34 L66.63,82.88 L66.28,83.34 L65.81,83.70 L65.27,83.92 L64.69,84.00 L16.00,84.00 L15.42,83.92 L14.88,83.70 L14.42,83.34 L14.06,82.88 L13.84,82.34 L13.76,81.76 L13.76,19.68 L13.84,19.10 L14.06,18.56 L14.42,18.10 L14.88,17.74 L15.42,17.52 L16.00,17.44 L64.69,17.44 Z" fill="#32bedd" stroke="#1e1e1e" stroke-width="1" stroke-linejoin="round"/><path d="M55.89,37.28 L55.89,55.36 L40.37,64.43 L40.37,46.35 L55.89,37.28 Z" fill="#50e6ff" stroke="#1e1e1e" stroke-width="1" stroke-linejoin="round"/><path d="M55.89,37.28 L40.37,46.40 L24.85,37.28 L40.37,28.21 L55.89,37.28 Z" fill="#c3f1ff" stroke="#1e1e1e" stroke-width="1" stroke-linejoin="round"/><path d="M40.37,46.40 L40.37,64.43 L24.85,55.36 L24.85,37.28 L40.37,46.40 Z" fill="#9cebff" stroke="#1e1e1e" stroke-width="1" stroke-linejoin="round"/><path d="M24.85,55.36 L40.37,46.35 L40.37,64.43 L24.85,55.36 Z" fill="#c3f1ff" stroke="#c3f1ff" stroke-width="1" stroke-linejoin="round"/><path d="M55.89,55.36 L40.37,46.35 L40.37,64.43 L55.89,55.36 Z" fill="#9cebff" stroke="#9cebff" stroke-width="1" stroke-linejoin="round"/><path d="M89.97,61.01 L90.75,61.12 L91.47,61.41 L92.09,61.89 L92.56,62.51 L92.86,63.23 L92.96,64.00 L92.96,89.97 L92.86,90.75 L92.56,91.47 L92.09,92.09 L91.47,92.56 L90.75,92.86 L89.97,92.96 L5.97,92.96 L5.20,92.86 L4.48,92.56 L3.86,92.09 L3.39,91.47 L3.09,90.75 L2.99,89.97 L2.99,64.00 L3.09,63.23 L3.39,62.51 L3.86,61.89 L4.48,61.41 L5.20,61.12 L5.97,61.01 L89.97,61.01 Z" fill="#3990e4" stroke="#1e1e1e" stroke-width="1" stroke-linejoin="round"/><path d="M58.56,68.91 L59.15,68.98 L59.71,69.21 L60.18,69.58 L60.55,70.05 L60.78,70.61 L60.85,71.20 L60.85,71.25 L60.78,71.85 L60.55,72.40 L60.18,72.87 L59.71,73.24 L59.15,73.47 L58.56,73.55 L37.49,73.55 L36.90,73.47 L36.35,73.24 L35.87,72.87 L35.51,72.40 L35.28,71.85 L35.20,71.25 L35.20,71.20 L35.28,70.61 L35.51,70.05 L35.87,69.58 L36.35,69.21 L36.90,68.98 L37.49,68.91 L58.56,68.91 Z" fill="#f2f2f2" stroke="#f2f2f2" stroke-width="1" stroke-linejoin="round"/></svg>