<svg xmlns="http://www.w3.org/2000/svg" viewBox="0.99 0.99 93.97 93.97"><rect x="29.97" y="2.99" width="53.17" height="66.56" fill="#005ba1" stroke="#1e1e1e" stroke-width="1"/><rect x="21.92" y="10.19" width="53.17" height="66.56" fill="#0078d4" stroke="#1e1e1e" stroke-width="1"/><rect x="13.76" y="17.44" width="53.17" height="66.56" fill="#32bedd" stroke="#1e1e1e" stroke-width="1"/><path d="M55.89,37.28 L55.89,55.36 L40.37,64.43 L40.37,46.35 L55.89,37.28 Z" fill="#50e6ff" stroke="#1e1e1e" stroke-width="1" stroke-linejoin="round"/><path d="M55.89,37.28 L40.37,46.40 L24.85,37.28 L40.37,28.21 L55.89,37.28 Z" fill="#c3f1ff" stroke="#1e1e1e" stroke-width="1" stroke-linejoin="round"/><path d="M40.37,46.40 L40.37,64.43 L24.85,55.36 L24.85,37.28 L40.37,46.40 Z" fill="#9cebff" stroke="#1e1e1e" stroke-width="1" stroke-linejoin="round"/><path d="M24.85,55.36 L40.37,46.35 L40.37,64.43 L24.85,55.36 Z" fill="#c3f1ff" stroke="#c3f1ff" stroke-width="1" stroke-linejoin="round"/><path d="M55.89,55.36 L40.37,46.35 L40.37,64.43 L55.89,55.36 Z" fill="#9cebff" stroke="#9cebff" stroke-width="1" stroke-linejoin="round"/><rect x="2.99" y="61.01" width="89.97" height="31.95" fill="#3990e4" stroke="#1e1e1e" stroke-width="1"/><rect x="35.20" y="68.91" width="25.65" height="4.64" fill="#f2f2f2" stroke="#f2f2f2" stroke-width="1"/></svg>