<svg xmlns="http://www.w3.org/2000/svg" viewBox="-0.72 4.99 100.00 88.51"><path d="M97.28,53.72 L96.71,49.43 L95.30,45.33 L93.09,41.60 L90.19,38.38 L86.70,35.81 L82.77,33.99 L78.56,32.99 L77.95,28.33 L76.54,23.84 L74.39,19.66 L71.55,15.91 L68.10,12.72 L64.16,10.16 L59.83,8.32 L55.25,7.25 L50.56,6.99 L45.66,7.34 L40.90,8.53 L36.42,10.55 L32.37,13.32 L28.86,16.75 L26.01,20.75 L23.90,25.19 L19.44,26.13 L15.22,27.85 L11.37,30.29 L8.01,33.37 L5.24,36.99 L3.16,41.05 L1.82,45.41 L1.28,49.93 L1.85,54.44 L3.19,58.78 L5.27,62.82 L8.01,66.44 L11.34,69.53 L15.16,71.99 L19.34,73.76 L23.77,74.77 L28.31,75.01 L30.69,74.91 L74.46,74.91 L75.04,74.86 L75.62,74.73 L79.75,74.31 L83.73,73.11 L87.41,71.17 L90.66,68.57 L93.36,65.41 L95.40,61.79 L96.73,57.84 L97.28,53.72 Z" fill="#3a90e5" stroke="#1e1e1e" stroke-width="1" stroke-linejoin="round"/><path d="M68.44,49.97 L69.89,47.97 L70.65,45.62 L70.65,43.15 L69.89,40.80 L68.44,38.80 L68.44,38.80 L54.84,25.19 L52.85,23.73 L50.50,22.97 L48.04,22.97 L45.69,23.73 L43.70,25.19 L43.70,25.19 L30.11,38.80 L28.66,40.80 L27.90,43.15 L27.90,45.62 L28.66,47.97 L30.11,49.97 L41.42,61.32 L41.90,62.04 L42.07,62.89 L42.07,83.97 L42.27,85.00 L42.85,85.87 L48.01,91.04 L48.81,91.50 L49.73,91.50 L50.53,91.04 L55.53,86.03 L55.53,85.96 L58.47,83.01 L58.78,82.28 L58.47,81.56 L56.35,79.43 L56.03,78.63 L56.35,77.84 L58.47,75.71 L58.78,74.98 L58.47,74.25 L56.35,72.12 L56.03,71.33 L56.35,70.54 L58.48,68.41 L58.78,67.68 L58.48,66.95 L55.53,63.99 L55.53,62.89 L68.44,49.97 Z" fill="#4ee3fd" stroke="#4ee3fd" stroke-width="1" stroke-linejoin="round"/><path d="M49.28,28.47 L51.14,28.87 L52.68,30.01 L53.60,31.69 L53.74,33.59 L53.07,35.38 L51.72,36.73 L49.93,37.40 L48.03,37.27 L46.35,36.35 L45.21,34.82 L44.80,32.95 L45.14,31.24 L46.11,29.78 L47.56,28.81 L49.28,28.47 L49.28,28.47 Z" fill="#3a90e5" stroke="#3a90e5" stroke-width="1" stroke-linejoin="round"/><path d="M45.73,84.41 L45.73,84.41 L46.43,84.70 L47.12,84.39 L47.38,83.68 L47.38,66.62 L47.26,66.14 L46.93,65.78 L46.93,65.78 L46.26,65.63 L45.66,65.97 L45.44,66.62 L45.44,83.68 L45.51,84.08 L45.73,84.41 L45.73,84.41 Z" fill="#0078d4" stroke="#0078d4" stroke-width="1" stroke-linejoin="round" opacity="0.75"/><path d="M39.58,43.34 L59.53,43.34 L60.38,43.69 L60.73,44.55 L60.73,44.78 L60.38,45.63 L59.53,45.98 L39.58,45.98 L38.73,45.63 L38.38,44.78 L38.38,44.55 L38.73,43.70 L39.59,43.34 L39.58,43.34 Z" fill="#0078d4" stroke="#0078d4" stroke-width="1" stroke-linejoin="round" opacity="0.75"/><path d="M39.58,47.63 L59.53,47.63 L60.38,47.99 L60.73,48.84 L60.73,49.06 L60.38,49.92 L59.52,50.27 L39.58,50.27 L38.73,49.92 L38.38,49.07 L38.38,48.84 L38.73,47.99 L39.58,47.63 L39.58,47.63 Z" fill="#0078d4" stroke="#0078d4" stroke-width="1" stroke-linejoin="round" opacity="0.75"/></svg>