<svg xmlns="http://www.w3.org/2000/svg" viewBox="0.67 4.12 94.67 87.77"><path d="M90.31,6.12 L91.09,6.22 L91.82,6.52 L92.45,7.00 L92.93,7.63 L93.23,8.36 L93.33,9.14 L93.33,63.54 L93.23,64.32 L92.93,65.05 L92.45,65.67 L91.82,66.15 L91.09,66.46 L90.31,66.56 L5.69,66.56 L4.91,66.46 L4.18,66.15 L3.55,65.67 L3.07,65.05 L2.77,64.32 L2.67,63.54 L2.67,9.14 L2.77,8.36 L3.07,7.63 L3.55,7.00 L4.18,6.52 L4.91,6.22 L5.69,6.12 L90.31,6.12 Z" fill="#005296" stroke="#1e1e1e" stroke-width="1" stroke-linejoin="round"/><path d="M66.18,84.85 L64.60,84.52 L63.21,84.08 L61.99,83.53 L60.94,82.86 L60.05,82.08 L59.29,81.19 L58.16,79.08 L57.45,76.56 L57.06,73.62 L56.90,70.28 L56.86,66.56 L39.08,66.56 L39.05,70.28 L38.90,73.62 L38.52,76.56 L37.81,79.08 L36.69,81.19 L35.94,82.08 L35.05,82.86 L34.00,83.53 L32.79,84.08 L31.40,84.52 L29.82,84.85 L28.06,85.38 L26.61,86.50 L25.66,88.07 L25.33,89.88 L70.67,89.88 L70.34,88.07 L69.39,86.50 L67.94,85.38 L66.18,84.85 L66.18,84.85 Z" fill="#a6a6a6" stroke="#1e1e1e" stroke-width="1" stroke-linejoin="round"/><path d="M12.94,53.48 L49.15,53.48 L84.58,18.05 L12.94,18.05 L12.94,53.48 Z" fill="#007ec6" stroke="#1e1e1e" stroke-width="1" stroke-linejoin="round"/><path d="M55.47,25.14 L48.38,25.14 L48.41,41.77 L42.25,25.13 L36.13,25.13 L30.88,39.03 L30.53,37.81 L29.94,36.78 L29.15,35.92 L28.20,35.21 L26.03,34.13 L23.79,33.35 L22.37,32.85 L21.12,32.25 L20.22,31.58 L19.97,31.22 L19.89,30.85 L20.09,30.27 L20.69,29.78 L21.69,29.46 L23.09,29.40 L25.75,29.79 L28.25,30.79 L30.70,26.53 L28.13,25.51 L25.45,24.88 L22.70,24.64 L22.70,24.64 L20.14,24.85 L17.73,25.73 L15.63,27.20 L14.72,28.41 L14.15,29.81 L13.95,31.31 L14.16,33.20 L15.00,34.91 L16.37,36.23 L18.68,37.53 L21.17,38.43 L23.68,39.36 L24.44,39.95 L24.70,40.69 L24.57,41.28 L24.24,41.79 L23.18,42.37 L21.97,42.50 L19.91,42.37 L17.92,41.80 L16.10,40.83 L13.93,45.16 L16.36,46.28 L18.95,46.96 L21.63,47.17 L22.27,47.17 L24.42,46.99 L26.48,46.34 L28.34,45.25 L28.60,45.03 L28.35,46.40 L34.33,46.40 L35.39,43.66 L37.86,44.19 L40.39,44.20 L42.86,43.69 L43.61,46.40 L54.31,46.40 L54.31,40.15 L56.59,40.15 L58.55,40.02 L60.29,39.64 L61.79,39.01 L63.04,38.16 L64.04,37.08 L64.76,35.80 L65.21,34.32 L65.36,32.65 L65.21,30.82 L64.76,29.26 L64.00,27.96 L62.93,26.92 L61.55,26.12 L59.85,25.56 L57.82,25.23 L55.46,25.13 L55.47,25.14 Z" fill="#ffffff" stroke="#ffffff" stroke-width="1" stroke-linejoin="round"/><path d="M39.16,39.35 L38.01,39.26 L36.90,38.96 L39.14,31.91 L39.18,31.91 L41.38,38.98 L40.28,39.26 L39.16,39.35 L39.16,39.35 Z" fill="#007ec6" stroke="#007ec6" stroke-width="1" stroke-linejoin="round"/><path d="M55.87,35.31 L54.31,35.31 L54.31,29.62 L55.87,29.62 L57.33,29.76 L58.51,30.23 L58.97,30.61 L59.31,31.10 L59.52,31.70 L59.60,32.43 L59.52,33.16 L59.31,33.77 L58.51,34.66 L57.33,35.15 L55.87,35.31 L55.87,35.31 Z" fill="#007ec6" stroke="#007ec6" stroke-width="1" stroke-linejoin="round"/></svg>