<svg xmlns="http://www.w3.org/2000/svg" viewBox="0.82 4.48 100.00 92.69"><path d="M95.62,6.48 L96.45,6.59 L97.22,6.91 L97.89,7.41 L98.39,8.08 L98.71,8.85 L98.82,9.68 L98.82,67.27 L98.71,68.10 L98.39,68.87 L97.89,69.54 L97.22,70.05 L96.45,70.37 L95.62,70.48 L6.03,70.48 L5.20,70.37 L4.42,70.05 L3.76,69.54 L3.25,68.87 L2.93,68.10 L2.82,67.27 L2.82,9.68 L2.93,8.85 L3.25,8.08 L3.76,7.41 L4.42,6.91 L5.20,6.59 L6.03,6.48 L95.62,6.48 Z" fill="#005296" stroke="#1e1e1e" stroke-width="1" stroke-linejoin="round"/><path d="M70.07,89.84 L68.40,89.50 L66.93,89.03 L65.64,88.44 L64.53,87.73 L63.58,86.91 L62.78,85.97 L61.58,83.74 L60.83,81.06 L60.42,77.95 L60.24,74.42 L60.21,70.48 L41.38,70.48 L41.35,74.42 L41.18,77.95 L40.78,81.06 L40.04,83.74 L38.85,85.97 L38.05,86.91 L37.11,87.73 L36.00,88.44 L34.72,89.03 L33.25,89.50 L31.57,89.84 L29.71,90.40 L28.17,91.59 L27.17,93.26 L26.82,95.17 L74.82,95.17 L74.48,93.26 L73.47,91.59 L71.94,90.40 L70.07,89.84 L70.07,89.84 Z" fill="#a6a6a6" stroke="#1e1e1e" stroke-width="1" stroke-linejoin="round"/><path d="M13.71,56.63 L52.04,56.63 L89.55,19.11 L13.71,19.11 L13.71,56.63 Z" fill="#007ec6" stroke="#1e1e1e" stroke-width="1" stroke-linejoin="round"/><path d="M58.73,26.61 L51.22,26.61 L51.25,44.23 L44.73,26.60 L38.26,26.60 L32.70,41.33 L32.33,40.03 L31.70,38.94 L30.86,38.03 L29.86,37.28 L27.56,36.14 L25.19,35.32 L23.69,34.78 L22.36,34.14 L21.41,33.43 L21.15,33.06 L21.06,32.67 L21.27,32.05 L21.90,31.53 L22.96,31.20 L24.45,31.13 L27.27,31.55 L29.91,32.61 L32.50,28.09 L29.79,27.02 L26.94,26.34 L24.03,26.09 L24.03,26.09 L21.33,26.31 L18.77,27.24 L16.55,28.80 L15.59,30.08 L14.98,31.57 L14.77,33.15 L14.99,35.16 L15.88,36.97 L17.33,38.37 L19.78,39.73 L22.41,40.69 L25.07,41.68 L25.87,42.30 L26.16,43.08 L26.02,43.71 L25.67,44.24 L24.54,44.86 L23.26,45.00 L21.08,44.86 L18.98,44.26 L17.05,43.23 L14.74,47.81 L17.32,49.00 L20.07,49.72 L22.90,49.94 L23.58,49.94 L25.86,49.76 L28.04,49.07 L30.01,47.91 L30.29,47.68 L30.02,49.13 L36.34,49.13 L37.47,46.23 L40.09,46.79 L42.76,46.80 L45.38,46.26 L46.17,49.13 L57.51,49.13 L57.51,42.51 L59.92,42.51 L61.99,42.37 L63.83,41.97 L65.42,41.31 L66.75,40.40 L67.81,39.27 L68.57,37.91 L69.05,36.34 L69.20,34.57 L69.05,32.63 L68.57,30.98 L67.77,29.61 L66.64,28.50 L65.17,27.66 L63.37,27.07 L61.22,26.72 L58.72,26.60 L58.73,26.61 Z" fill="#ffffff" stroke="#ffffff" stroke-width="1" stroke-linejoin="round"/><path d="M41.46,41.67 L40.25,41.57 L39.07,41.25 L41.44,33.79 L41.48,33.79 L43.81,41.27 L42.65,41.57 L41.46,41.67 L41.46,41.67 Z" fill="#007ec6" stroke="#007ec6" stroke-width="1" stroke-linejoin="round"/><path d="M59.15,37.38 L57.51,37.38 L57.51,31.36 L59.15,31.36 L60.70,31.51 L61.95,32.01 L62.43,32.41 L62.80,32.92 L63.03,33.56 L63.11,34.33 L63.03,35.11 L62.80,35.76 L61.96,36.70 L60.70,37.22 L59.15,37.38 L59.15,37.38 Z" fill="#007ec6" stroke="#007ec6" stroke-width="1" stroke-linejoin="round"/></svg>