<svg xmlns="http://www.w3.org/2000/svg" viewBox="-2.64 -0.88 100.00 92.69"><path d="M92.16,1.12 L92.99,1.23 L93.76,1.55 L94.42,2.06 L94.93,2.72 L95.25,3.49 L95.36,4.32 L95.36,61.92 L95.25,62.75 L94.93,63.52 L94.42,64.18 L93.76,64.69 L92.99,65.01 L92.16,65.12 L2.56,65.12 L1.73,65.01 L0.96,64.69 L0.30,64.18 L-0.21,63.52 L-0.53,62.75 L-0.64,61.92 L-0.64,4.32 L-0.53,3.49 L-0.21,2.72 L0.30,2.06 L0.96,1.55 L1.73,1.23 L2.56,1.12 L92.16,1.12 Z" fill="#3990e4" stroke="#1e1e1e" stroke-width="1" stroke-linejoin="round"/><path d="M63.36,23.79 L63.36,42.40 L47.36,51.79 L47.36,33.12 L63.36,23.79 Z" fill="#50e6ff" stroke="#1e1e1e" stroke-width="1" stroke-linejoin="round"/><path d="M63.36,23.79 L47.36,33.17 L31.36,23.79 L47.36,14.45 L63.36,23.79 Z" fill="#c3f1ff" stroke="#1e1e1e" stroke-width="1" stroke-linejoin="round"/><path d="M47.36,33.17 L47.36,51.79 L31.36,42.40 L31.36,23.79 L47.36,33.17 Z" fill="#9cebff" stroke="#1e1e1e" stroke-width="1" stroke-linejoin="round"/><path d="M31.36,42.40 L47.36,33.12 L47.36,51.79 L31.36,42.40 Z" fill="#c3f1ff" stroke="#c3f1ff" stroke-width="1" stroke-linejoin="round"/><path d="M63.36,42.40 L47.36,33.12 L47.36,51.79 L63.36,42.40 Z" fill="#9cebff" stroke="#9cebff" stroke-width="1" stroke-linejoin="round"/><path d="M66.61,84.48 L64.94,84.14 L63.46,83.67 L62.18,83.08 L61.07,82.38 L60.12,81.55 L59.32,80.61 L58.66,79.55 L58.12,78.38 L57.37,75.70 L56.95,72.59 L56.78,69.06 L56.75,65.12 L37.92,65.12 L37.89,69.06 L37.72,72.59 L37.32,75.70 L36.57,78.38 L36.04,79.55 L35.38,80.61 L34.59,81.55 L33.64,82.38 L32.54,83.08 L31.25,83.67 L29.78,84.14 L28.11,84.48 L26.25,85.04 L24.71,86.24 L23.70,87.90 L23.36,89.81 L71.36,89.81 L71.02,87.90 L70.01,86.24 L68.47,85.04 L66.61,84.48 L66.61,84.48 Z" fill="#a6a6a6" stroke="#1e1e1e" stroke-width="1" stroke-linejoin="round"/></svg>