<svg xmlns="http://www.w3.org/2000/svg" viewBox="-1.83 -2.00 99.66 100.00"><path d="M93.06,3.12 L93.06,53.62 L92.81,54.43 L92.15,54.97 L91.30,55.07 L90.54,54.68 L87.18,51.99 L83.41,49.91 L79.34,48.51 L75.09,47.82 L70.78,47.86 L66.54,48.63 L62.50,50.11 L58.77,52.26 L55.46,55.01 L52.66,58.29 L50.46,61.99 L3.30,61.99 L1.73,61.57 L0.59,60.43 L0.17,58.86 L0.17,3.13 L0.59,1.56 L1.73,0.42 L3.30,0.00 L89.94,0.00 L91.50,0.42 L92.64,1.56 L93.06,3.12 Z" fill="#3990e4" stroke="#1e1e1e" stroke-width="1" stroke-linejoin="round"/><path d="M48.88,85.63 L23.88,85.63 L24.25,83.79 L25.22,82.18 L26.69,81.00 L28.47,80.39 L30.09,80.12 L31.50,79.72 L32.73,79.20 L33.78,78.55 L34.68,77.79 L35.42,76.90 L36.03,75.90 L36.51,74.79 L37.18,72.23 L37.52,69.23 L37.66,62.02 L50.46,62.02 L48.89,66.17 L48.07,70.53 L48.02,74.97 L48.76,79.35 L50.25,83.53 L50.33,84.50 L49.80,85.32 L48.88,85.63 Z" fill="#1b6cb9" stroke="#1e1e1e" stroke-width="1" stroke-linejoin="round"/><path d="M51.29,25.67 L51.43,25.69 L51.57,25.75 L51.69,25.84 L51.77,25.96 L51.83,26.09 L51.85,26.24 L51.85,39.49 L51.83,39.64 L51.77,39.78 L51.69,39.89 L51.57,39.98 L51.43,40.04 L51.29,40.06 L38.03,40.06 L37.89,40.04 L37.75,39.98 L37.63,39.89 L37.54,39.78 L37.49,39.64 L37.47,39.49 L37.47,26.24 L37.49,26.09 L37.54,25.96 L37.63,25.84 L37.75,25.75 L37.89,25.69 L38.03,25.67 L51.29,25.67 Z" fill="#9cebff" stroke="#9cebff" stroke-width="1" stroke-linejoin="round"/><path d="M60.94,15.53 L47.35,15.53 L46.96,15.68 L46.79,16.06 L46.79,16.06 L46.79,18.53 L46.96,18.92 L47.35,19.07 L57.35,19.07 L58.15,19.40 L58.48,20.19 L58.48,20.19 L58.48,30.40 L58.64,30.78 L59.01,30.93 L61.49,30.93 L61.87,30.78 L62.03,30.40 L62.03,16.66 L61.70,15.86 L60.90,15.53 L60.94,15.53 Z" fill="#773adc" stroke="#773adc" stroke-width="1" stroke-linejoin="round"/><path d="M56.18,33.33 L56.18,42.28 L55.87,43.00 L55.15,43.30 L34.73,43.30 L34.00,43.00 L33.70,42.28 L33.70,42.28 L33.70,23.00 L34.00,22.27 L34.73,21.97 L44.97,21.97 L45.34,21.81 L45.50,21.43 L45.50,21.43 L45.50,19.30 L45.34,18.92 L44.97,18.77 L31.47,18.77 L30.74,19.06 L30.44,19.79 L30.44,45.55 L30.74,46.28 L31.47,46.58 L58.43,46.58 L59.16,46.28 L59.46,45.55 L59.46,33.33 L59.30,32.94 L58.90,32.79 L56.77,32.79 L56.37,32.94 L56.20,33.33 L56.18,33.33 Z" fill="#ffffff" stroke="#1e1e1e" stroke-width="1" stroke-linejoin="round"/><ellipse cx="72.84" cy="73.01" rx="22.99" ry="22.99" fill="#9c6fed" stroke="#1e1e1e" stroke-width="1"/><path d="M84.62,86.45 L61.06,86.45 L61.11,86.31 L65.91,75.35 L72.73,59.79 L72.86,59.62 L73.07,59.57 L73.47,59.62 L73.66,59.97 L81.53,78.97 L84.57,86.32 L84.62,86.45 Z" fill="#ffffff" stroke="#1e1e1e" stroke-width="1" stroke-linejoin="round"/><path d="M80.00,84.80 L72.16,65.53 L63.66,84.80 L80.00,84.80 Z" fill="#9c6fed" stroke="#1e1e1e" stroke-width="1" stroke-linejoin="round"/></svg>