<svg xmlns="http://www.w3.org/2000/svg" viewBox="-2.00 1.65 100.00 92.69"><rect x="0.00" y="3.65" width="96.00" height="64.00" fill="#3990e4" stroke="#1e1e1e" stroke-width="1"/><path d="M67.25,87.01 L65.58,86.67 L64.10,86.21 L62.82,85.62 L61.71,84.91 L60.76,84.09 L59.96,83.14 L59.30,82.08 L58.77,80.91 L58.02,78.24 L57.62,75.13 L57.46,71.59 L57.44,67.65 L38.40,67.65 L38.25,75.13 L37.89,78.24 L37.19,80.91 L36.68,82.08 L36.04,83.14 L35.26,84.09 L34.33,84.91 L33.22,85.62 L31.93,86.21 L30.45,86.67 L28.75,87.01 L26.90,87.59 L25.38,88.78 L24.39,90.44 L24.05,92.35 L72.05,92.35 L71.64,90.46 L70.61,88.82 L69.09,87.63 L67.25,87.01 Z" fill="#1a72c0" stroke="#1e1e1e" stroke-width="1" stroke-linejoin="round"/><rect x="38.95" y="30.40" width="14.90" height="14.90" fill="#9cebff" stroke="#9cebff" stroke-width="1"/><path d="M63.27,19.89 L49.20,19.89 L48.79,20.06 L48.62,20.47 L48.62,20.47 L48.62,23.03 L48.79,23.44 L49.20,23.61 L59.55,23.61 L60.38,23.95 L60.72,24.77 L60.72,24.77 L60.72,35.30 L60.89,35.71 L61.30,35.88 L63.86,35.88 L64.27,35.71 L64.44,35.30 L64.44,21.06 L64.10,20.24 L63.27,19.89 L63.27,19.89 Z" fill="#773adc" stroke="#773adc" stroke-width="1" stroke-linejoin="round"/><path d="M58.34,38.33 L58.34,47.59 L58.02,48.35 L57.27,48.66 L36.12,48.66 L35.36,48.35 L35.05,47.59 L35.05,47.59 L35.05,27.63 L35.36,26.87 L36.12,26.56 L46.73,26.56 L47.13,26.39 L47.30,25.98 L47.30,25.98 L47.30,23.76 L47.13,23.35 L46.73,23.18 L32.73,23.18 L31.98,23.49 L31.66,24.25 L31.66,50.99 L31.98,51.74 L32.73,52.05 L60.66,52.05 L61.42,51.74 L61.73,50.99 L61.73,38.33 L61.56,37.92 L61.15,37.75 L58.92,37.75 L58.51,37.92 L58.34,38.33 L58.34,38.33 Z" fill="#ffffff" stroke="#1e1e1e" stroke-width="1" stroke-linejoin="round"/></svg>