<svg xmlns="http://www.w3.org/2000/svg" viewBox="-2.91 2.64 100.00 92.69"><path d="M91.89,4.64 L92.72,4.75 L93.49,5.07 L94.16,5.58 L94.66,6.24 L94.98,7.01 L95.09,7.84 L95.09,65.44 L94.98,66.27 L94.66,67.04 L94.16,67.70 L93.49,68.21 L92.72,68.53 L91.89,68.64 L2.29,68.64 L1.47,68.53 L0.69,68.21 L0.03,67.70 L-0.48,67.04 L-0.80,66.27 L-0.91,65.44 L-0.91,7.84 L-0.80,7.01 L-0.48,6.24 L0.03,5.58 L0.69,5.07 L1.47,4.75 L2.29,4.64 L91.89,4.64 Z" fill="#3990e4" stroke="#1e1e1e" stroke-width="1" stroke-linejoin="round"/><path d="M88.00,9.97 L88.46,10.03 L88.88,10.21 L89.24,10.49 L89.52,10.85 L89.70,11.28 L89.76,11.73 L89.76,61.55 L89.70,62.00 L89.52,62.43 L89.24,62.79 L88.88,63.07 L88.46,63.25 L88.00,63.31 L6.19,63.31 L5.73,63.25 L5.31,63.07 L4.94,62.79 L4.66,62.43 L4.49,62.00 L4.43,61.55 L4.43,11.73 L4.49,11.28 L4.66,10.85 L4.94,10.49 L5.31,10.21 L5.73,10.03 L6.19,9.97 L88.00,9.97 Z" fill="#ffffff" stroke="#1e1e1e" stroke-width="1" stroke-linejoin="round"/><path d="M63.09,27.31 L63.09,45.92 L47.09,55.31 L47.09,36.64 L63.09,27.31 Z" fill="#0078d4" stroke="#1e1e1e" stroke-width="1" stroke-linejoin="round"/><path d="M63.09,27.31 L47.09,36.69 L31.09,27.31 L47.09,17.97 L63.09,27.31 Z" fill="#83b9f9" stroke="#1e1e1e" stroke-width="1" stroke-linejoin="round"/><path d="M47.09,36.69 L47.09,55.31 L31.09,45.92 L31.09,27.31 L47.09,36.69 Z" fill="#5ea0ef" stroke="#1e1e1e" stroke-width="1" stroke-linejoin="round"/><path d="M31.09,45.92 L47.09,36.64 L47.09,55.31 L31.09,45.92 Z" fill="#83b9f9" stroke="#83b9f9" stroke-width="1" stroke-linejoin="round" opacity="0.2"/><path d="M63.09,45.92 L47.09,36.64 L47.09,55.31 L63.09,45.92 Z" fill="#5ea0ef" stroke="#5ea0ef" stroke-width="1" stroke-linejoin="round" opacity="0.2"/><path d="M66.35,88.00 L64.67,87.66 L63.20,87.19 L61.91,86.60 L60.80,85.90 L59.85,85.07 L59.05,84.13 L58.39,83.07 L57.85,81.90 L57.10,79.22 L56.69,76.11 L56.51,72.58 L56.48,68.64 L37.65,68.64 L37.62,72.58 L37.45,76.11 L37.05,79.22 L36.31,81.90 L35.77,83.07 L35.12,84.13 L34.32,85.07 L33.38,85.90 L32.27,86.60 L30.99,87.19 L29.51,87.66 L27.84,88.00 L25.98,88.56 L24.44,89.76 L23.44,91.42 L23.09,93.33 L71.09,93.33 L70.75,91.42 L69.74,89.76 L68.21,88.56 L66.35,88.00 Z" fill="#1a72c0" stroke="#1e1e1e" stroke-width="1" stroke-linejoin="round"/><path d="M27.20,13.71 L13.97,13.71 L12.75,13.93 L11.71,14.61 L11.02,15.64 L10.77,16.85 L10.77,30.08 L10.99,30.88 L11.57,31.47 L12.37,31.68 L13.44,31.68 L14.24,31.47 L14.83,30.88 L15.04,30.08 L15.04,17.87 L27.20,17.87 L28.00,17.65 L28.59,17.07 L28.80,16.27 L28.80,15.25 L28.57,14.48 L27.98,13.91 L27.20,13.71 L27.20,13.71 Z" fill="#5ea0ef" stroke="#1e1e1e" stroke-width="1" stroke-linejoin="round"/><path d="M27.20,55.31 L14.99,55.31 L14.99,43.15 L14.77,42.35 L14.19,41.76 L13.39,41.55 L12.37,41.55 L11.57,41.76 L10.99,42.35 L10.77,43.15 L10.77,56.37 L11.02,57.59 L11.71,58.62 L12.75,59.30 L13.97,59.52 L27.20,59.52 L27.98,59.31 L28.57,58.75 L28.80,57.97 L28.80,56.91 L28.59,56.11 L28.00,55.52 L27.20,55.31 L27.20,55.31 Z" fill="#5ea0ef" stroke="#1e1e1e" stroke-width="1" stroke-linejoin="round"/><path d="M80.00,13.81 L66.99,13.81 L66.17,14.01 L65.58,14.60 L65.39,15.41 L65.39,16.43 L65.60,17.22 L66.19,17.78 L66.99,17.97 L79.15,17.97 L79.15,30.24 L79.36,31.03 L79.95,31.60 L80.75,31.79 L81.81,31.79 L82.59,31.58 L83.15,31.01 L83.36,30.24 L83.36,17.01 L83.12,15.74 L82.38,14.67 L81.28,13.99 L80.00,13.81 L80.00,13.81 Z" fill="#5ea0ef" stroke="#1e1e1e" stroke-width="1" stroke-linejoin="round"/><path d="M81.81,41.65 L80.80,41.65 L80.00,41.87 L79.41,42.45 L79.20,43.25 L79.20,55.41 L66.99,55.41 L66.17,55.61 L65.58,56.20 L65.39,57.01 L65.39,58.08 L65.60,58.88 L66.19,59.47 L66.99,59.68 L80.00,59.68 L81.22,59.44 L82.24,58.74 L82.92,57.70 L83.15,56.48 L83.15,43.25 L82.78,42.21 L81.81,41.65 L81.81,41.65 Z" fill="#5ea0ef" stroke="#1e1e1e" stroke-width="1" stroke-linejoin="round"/></svg>