<svg xmlns="http://www.w3.org/2000/svg" viewBox="-2.00 -2.00 100.00 100.00"><ellipse cx="73.01" cy="73.01" rx="22.99" ry="22.99" fill="#9c6fed" stroke="#1e1e1e" stroke-width="1"/><path d="M84.80,86.45 L61.23,86.45 L61.29,86.31 L66.09,75.35 L72.90,59.79 L73.03,59.62 L73.24,59.57 L73.64,59.62 L73.83,59.97 L81.70,78.97 L84.74,86.32 L84.80,86.45 Z" fill="#ffffff" stroke="#1e1e1e" stroke-width="1" stroke-linejoin="round"/><path d="M80.16,84.79 L72.32,65.52 L63.83,84.80 L80.16,84.79 Z" fill="#9c6fed" stroke="#1e1e1e" stroke-width="1" stroke-linejoin="round"/><path d="M90.41,42.20 L90.15,46.71 L89.34,51.16 L88.84,51.96 L87.97,52.30 L87.07,52.05 L83.09,49.88 L78.78,48.45 L74.29,47.81 L69.75,47.99 L65.33,48.98 L61.15,50.74 L57.35,53.23 L54.06,56.35 L51.38,60.01 L49.40,64.10 L48.18,68.47 L47.77,72.99 L47.98,76.19 L48.58,79.34 L43.38,78.33 L38.38,76.59 L33.67,74.17 L29.35,71.10 L25.51,67.45 L22.23,63.30 L19.56,58.73 L17.56,53.82 L17.56,53.82 L16.54,50.02 L15.93,46.13 L15.72,42.20 L15.85,39.02 L16.26,35.86 L16.78,33.29 L17.49,30.77 L19.43,25.92 L22.03,21.38 L25.23,17.25 L28.98,13.61 L33.21,10.52 L37.82,8.06 L42.73,6.26 L47.85,5.17 L53.06,4.80 L54.82,4.84 L59.95,5.44 L64.96,6.75 L69.73,8.74 L74.19,11.37 L78.24,14.58 L81.81,18.33 L84.83,22.53 L87.24,27.11 L88.99,31.97 L90.05,37.04 L90.41,42.20 L90.41,42.20 Z" fill="#878787" stroke="#1e1e1e" stroke-width="1" stroke-linejoin="round"/><path d="M70.67,42.20 L70.43,45.14 L69.70,48.00 L65.34,48.98 L61.22,50.71 L57.46,53.14 L54.20,56.19 L51.52,59.77 L47.90,59.07 L44.50,57.62 L41.48,55.50 L38.97,52.80 L37.35,50.19 L36.21,47.33 L36.21,47.33 L35.54,43.94 L35.54,40.49 L36.21,37.10 L36.21,37.10 L36.21,37.10 L37.66,33.65 L39.81,30.58 L42.56,28.04 L45.78,26.14 L49.34,24.96 L53.06,24.57 L53.94,24.59 L54.82,24.66 L58.44,25.41 L61.82,26.90 L64.82,29.06 L67.30,31.80 L69.15,35.00 L70.29,38.52 L70.67,42.20 Z" fill="#a6a6a6" stroke="#1e1e1e" stroke-width="1" stroke-linejoin="round"/><path d="M54.82,2.67 L54.82,55.52 L52.36,58.50 L50.39,61.81 L48.94,65.39 L48.06,69.14 L47.76,72.99 L47.96,76.19 L48.57,79.34 L49.05,80.93 L49.64,82.47 L49.68,83.43 L49.14,84.21 L48.24,84.51 L2.67,84.51 L1.33,84.15 L0.36,83.18 L0.00,81.85 L0.00,2.67 L0.36,1.33 L1.33,0.36 L2.67,0.00 L52.18,0.00 L53.50,0.37 L54.46,1.34 L54.82,2.67 L54.82,2.67 Z" fill="#006aba" stroke="#1e1e1e" stroke-width="1" stroke-linejoin="round"/><path d="M42.18,33.53 L42.28,50.81 L27.54,59.57 L27.43,42.26 L42.18,33.53 Z" fill="#50e6ff" stroke="#1e1e1e" stroke-width="1" stroke-linejoin="round"/><path d="M42.18,33.53 L27.43,42.29 L12.53,33.71 L27.32,24.94 L42.18,33.53 Z" fill="#c3f1ff" stroke="#1e1e1e" stroke-width="1" stroke-linejoin="round"/><path d="M27.43,42.29 L27.54,59.57 L12.64,50.99 L12.53,33.71 L27.43,42.29 Z" fill="#9cebff" stroke="#1e1e1e" stroke-width="1" stroke-linejoin="round"/><path d="M12.64,50.99 L27.43,42.26 L27.54,59.57 L12.64,50.99 Z" fill="#c3f1ff" stroke="#c3f1ff" stroke-width="1" stroke-linejoin="round"/><path d="M42.28,50.81 L27.43,42.26 L27.54,59.57 L42.28,50.81 Z" fill="#9cebff" stroke="#9cebff" stroke-width="1" stroke-linejoin="round"/></svg>