<svg xmlns="http://www.w3.org/2000/svg" viewBox="2.21 2.75 94.67 94.67"><path d="M56.32,4.75 L56.79,4.81 L57.23,4.99 L57.60,5.28 L57.89,5.65 L58.07,6.09 L58.13,6.56 L58.13,38.93 L58.07,39.40 L57.89,39.84 L57.60,40.22 L57.23,40.50 L56.79,40.68 L56.32,40.75 L6.03,40.75 L5.56,40.68 L5.12,40.50 L4.74,40.22 L4.46,39.84 L4.28,39.40 L4.21,38.93 L4.21,6.56 L4.28,6.09 L4.46,5.65 L4.74,5.28 L5.12,4.99 L5.56,4.81 L6.03,4.75 L56.32,4.75 Z" fill="#005ba1" stroke="#1e1e1e" stroke-width="1" stroke-linejoin="round"/><path d="M40.16,17.49 L40.16,28.00 L31.20,33.23 L31.20,22.77 L40.16,17.49 Z" fill="#50e6ff" stroke="#50e6ff" stroke-width="1" stroke-linejoin="round"/><path d="M40.16,17.49 L31.20,22.77 L22.19,17.49 L31.20,12.21 L40.16,17.49 Z" fill="#c3f1ff" stroke="#c3f1ff" stroke-width="1" stroke-linejoin="round"/><path d="M31.20,22.77 L31.20,33.23 L22.19,28.00 L22.19,17.49 L31.20,22.77 Z" fill="#9cebff" stroke="#9cebff" stroke-width="1" stroke-linejoin="round"/><path d="M77.49,25.39 L77.96,25.45 L78.40,25.63 L78.78,25.92 L79.06,26.29 L79.24,26.73 L79.31,27.20 L79.31,59.57 L79.24,60.04 L79.06,60.48 L78.78,60.86 L78.40,61.14 L77.96,61.32 L77.49,61.39 L27.20,61.39 L26.73,61.32 L26.29,61.14 L25.92,60.86 L25.63,60.48 L25.45,60.04 L25.39,59.57 L25.39,27.20 L25.45,26.73 L25.63,26.29 L25.92,25.92 L26.29,25.63 L26.73,25.45 L27.20,25.39 L77.49,25.39 Z" fill="#0078d4" stroke="#1e1e1e" stroke-width="1" stroke-linejoin="round"/><path d="M61.33,38.19 L61.33,48.64 L52.37,53.92 L52.37,43.41 L61.33,38.19 Z" fill="#50e6ff" stroke="#50e6ff" stroke-width="1" stroke-linejoin="round"/><path d="M61.33,38.19 L52.37,43.41 L43.36,38.19 L52.37,32.91 L61.33,38.19 Z" fill="#c3f1ff" stroke="#c3f1ff" stroke-width="1" stroke-linejoin="round"/><path d="M52.37,43.41 L52.37,53.92 L43.36,48.64 L43.36,38.19 L52.37,43.41 Z" fill="#9cebff" stroke="#9cebff" stroke-width="1" stroke-linejoin="round"/><path d="M93.07,45.44 L93.54,45.50 L93.97,45.68 L94.35,45.97 L94.64,46.35 L94.82,46.78 L94.88,47.25 L94.88,79.63 L94.82,80.10 L94.64,80.53 L94.35,80.91 L93.97,81.20 L93.54,81.38 L93.07,81.44 L42.77,81.44 L42.30,81.38 L41.87,81.20 L41.49,80.91 L41.20,80.53 L41.02,80.10 L40.96,79.63 L40.96,47.25 L41.02,46.78 L41.20,46.35 L41.49,45.97 L41.87,45.68 L42.30,45.50 L42.77,45.44 L93.07,45.44 Z" fill="#3990e4" stroke="#1e1e1e" stroke-width="1" stroke-linejoin="round"/><path d="M76.91,58.24 L76.91,68.69 L67.95,73.97 L67.95,63.47 L76.91,58.24 Z" fill="#50e6ff" stroke="#50e6ff" stroke-width="1" stroke-linejoin="round"/><path d="M76.91,58.24 L67.95,63.52 L58.93,58.24 L67.95,52.96 L76.91,58.24 Z" fill="#c3f1ff" stroke="#c3f1ff" stroke-width="1" stroke-linejoin="round"/><path d="M67.95,63.52 L67.95,73.97 L58.93,68.69 L58.93,58.24 L67.95,63.52 Z" fill="#9cebff" stroke="#9cebff" stroke-width="1" stroke-linejoin="round"/><path d="M58.93,68.69 L67.95,63.47 L67.95,73.97 L58.93,68.69 Z" fill="#c3f1ff" stroke="#c3f1ff" stroke-width="1" stroke-linejoin="round"/><path d="M76.91,68.69 L67.95,63.47 L67.95,73.97 L76.91,68.69 Z" fill="#9cebff" stroke="#9cebff" stroke-width="1" stroke-linejoin="round"/><path d="M78.72,92.37 L76.96,91.91 L75.64,91.19 L74.69,90.20 L74.05,88.96 L73.67,87.48 L73.47,85.77 L73.39,81.71 L62.72,81.71 L62.64,85.89 L62.44,87.63 L62.05,89.12 L61.42,90.35 L60.47,91.31 L59.15,91.98 L57.39,92.37 L56.04,92.92 L55.09,94.01 L54.72,95.41 L81.39,95.41 L81.02,94.01 L80.06,92.92 L78.72,92.37 Z" fill="#a6a6a6" stroke="#1e1e1e" stroke-width="1" stroke-linejoin="round"/></svg>