<svg xmlns="http://www.w3.org/2000/svg" viewBox="2.46 3.03 100.00 100.00"><path d="M59.63,5.03 L60.13,5.09 L60.59,5.28 L60.99,5.59 L61.30,5.99 L61.49,6.45 L61.55,6.95 L61.55,41.22 L61.49,41.72 L61.30,42.18 L60.99,42.58 L60.59,42.89 L60.13,43.08 L59.63,43.14 L6.38,43.14 L5.88,43.08 L5.42,42.89 L5.02,42.58 L4.72,42.18 L4.53,41.72 L4.46,41.22 L4.46,6.95 L4.53,6.45 L4.72,5.99 L5.02,5.59 L5.42,5.28 L5.88,5.09 L6.38,5.03 L59.63,5.03 Z" fill="#005ba1" stroke="#1e1e1e" stroke-width="1" stroke-linejoin="round"/><path d="M42.52,18.52 L42.52,29.65 L33.04,35.18 L33.04,24.11 L42.52,18.52 Z" fill="#50e6ff" stroke="#50e6ff" stroke-width="1" stroke-linejoin="round"/><path d="M42.52,18.52 L33.04,24.11 L23.49,18.52 L33.04,12.93 L42.52,18.52 Z" fill="#c3f1ff" stroke="#c3f1ff" stroke-width="1" stroke-linejoin="round"/><path d="M33.04,24.11 L33.04,35.18 L23.49,29.65 L23.49,18.52 L33.04,24.11 Z" fill="#9cebff" stroke="#9cebff" stroke-width="1" stroke-linejoin="round"/><path d="M82.05,26.88 L82.55,26.95 L83.01,27.14 L83.41,27.44 L83.71,27.84 L83.91,28.30 L83.97,28.80 L83.97,63.08 L83.91,63.57 L83.71,64.04 L83.41,64.44 L83.01,64.74 L82.55,64.93 L82.05,65.00 L28.80,65.00 L28.30,64.93 L27.84,64.74 L27.44,64.44 L27.14,64.04 L26.95,63.57 L26.88,63.08 L26.88,28.80 L26.95,28.30 L27.14,27.84 L27.44,27.44 L27.84,27.14 L28.30,26.95 L28.80,26.88 L82.05,26.88 Z" fill="#0078d4" stroke="#1e1e1e" stroke-width="1" stroke-linejoin="round"/><path d="M64.94,40.43 L64.94,51.50 L55.45,57.09 L55.45,45.97 L64.94,40.43 Z" fill="#50e6ff" stroke="#50e6ff" stroke-width="1" stroke-linejoin="round"/><path d="M64.94,40.43 L55.45,45.97 L45.91,40.43 L55.45,34.84 L64.94,40.43 Z" fill="#c3f1ff" stroke="#c3f1ff" stroke-width="1" stroke-linejoin="round"/><path d="M55.45,45.97 L55.45,57.09 L45.91,51.50 L45.91,40.43 L55.45,45.97 Z" fill="#9cebff" stroke="#9cebff" stroke-width="1" stroke-linejoin="round"/><path d="M98.54,48.11 L99.04,48.18 L99.50,48.37 L99.90,48.68 L100.20,49.07 L100.40,49.54 L100.46,50.03 L100.46,84.31 L100.40,84.81 L100.20,85.27 L99.90,85.67 L99.50,85.97 L99.04,86.17 L98.54,86.23 L45.29,86.23 L44.79,86.17 L44.33,85.97 L43.93,85.67 L43.63,85.27 L43.43,84.81 L43.37,84.31 L43.37,50.03 L43.43,49.54 L43.63,49.07 L43.93,48.68 L44.33,48.37 L44.79,48.18 L45.29,48.11 L98.54,48.11 Z" fill="#3990e4" stroke="#1e1e1e" stroke-width="1" stroke-linejoin="round"/><path d="M81.43,61.67 L81.43,72.73 L71.94,78.32 L71.94,67.20 L81.43,61.67 Z" fill="#50e6ff" stroke="#50e6ff" stroke-width="1" stroke-linejoin="round"/><path d="M81.43,61.67 L71.94,67.26 L62.40,61.67 L71.94,56.08 L81.43,61.67 Z" fill="#c3f1ff" stroke="#c3f1ff" stroke-width="1" stroke-linejoin="round"/><path d="M71.94,67.26 L71.94,78.32 L62.40,72.73 L62.40,61.67 L71.94,67.26 Z" fill="#9cebff" stroke="#9cebff" stroke-width="1" stroke-linejoin="round"/><path d="M62.40,72.73 L71.94,67.20 L71.94,78.32 L62.40,72.73 Z" fill="#c3f1ff" stroke="#c3f1ff" stroke-width="1" stroke-linejoin="round"/><path d="M81.43,72.73 L71.94,67.20 L71.94,78.32 L81.43,72.73 Z" fill="#9cebff" stroke="#9cebff" stroke-width="1" stroke-linejoin="round"/><path d="M83.35,97.81 L81.49,97.32 L80.09,96.55 L79.08,95.50 L78.41,94.19 L78.00,92.63 L77.79,90.82 L77.70,86.51 L66.41,86.51 L66.32,90.95 L66.11,92.79 L65.70,94.36 L65.03,95.66 L64.03,96.68 L62.63,97.40 L60.76,97.81 L59.34,98.38 L58.33,99.54 L57.94,101.03 L86.17,101.03 L85.79,99.54 L84.77,98.38 L83.35,97.81 Z" fill="#a6a6a6" stroke="#1e1e1e" stroke-width="1" stroke-linejoin="round"/></svg>