<svg xmlns="http://www.w3.org/2000/svg" viewBox="2.21 2.75 94.67 94.67"><rect x="4.21" y="4.75" width="53.92" height="36.00" fill="#005ba1" stroke="#1e1e1e" stroke-width="1"/><path d="M40.16,17.49 L40.16,28.00 L31.20,33.23 L31.20,22.77 L40.16,17.49 Z" fill="#50e6ff" stroke="#50e6ff" stroke-width="1" stroke-linejoin="round"/><path d="M40.16,17.49 L31.20,22.77 L22.19,17.49 L31.20,12.21 L40.16,17.49 Z" fill="#c3f1ff" stroke="#c3f1ff" stroke-width="1" stroke-linejoin="round"/><path d="M31.20,22.77 L31.20,33.23 L22.19,28.00 L22.19,17.49 L31.20,22.77 Z" fill="#9cebff" stroke="#9cebff" stroke-width="1" stroke-linejoin="round"/><rect x="25.39" y="25.39" width="53.92" height="36.00" fill="#0078d4" stroke="#1e1e1e" stroke-width="1"/><path d="M61.33,38.19 L61.33,48.64 L52.37,53.92 L52.37,43.41 L61.33,38.19 Z" fill="#50e6ff" stroke="#50e6ff" stroke-width="1" stroke-linejoin="round"/><path d="M61.33,38.19 L52.37,43.41 L43.36,38.19 L52.37,32.91 L61.33,38.19 Z" fill="#c3f1ff" stroke="#c3f1ff" stroke-width="1" stroke-linejoin="round"/><path d="M52.37,43.41 L52.37,53.92 L43.36,48.64 L43.36,38.19 L52.37,43.41 Z" fill="#9cebff" stroke="#9cebff" stroke-width="1" stroke-linejoin="round"/><rect x="40.96" y="45.44" width="53.92" height="36.00" fill="#3990e4" stroke="#1e1e1e" stroke-width="1"/><path d="M76.91,58.24 L76.91,68.69 L67.95,73.97 L67.95,63.47 L76.91,58.24 Z" fill="#50e6ff" stroke="#50e6ff" stroke-width="1" stroke-linejoin="round"/><path d="M76.91,58.24 L67.95,63.52 L58.93,58.24 L67.95,52.96 L76.91,58.24 Z" fill="#c3f1ff" stroke="#c3f1ff" stroke-width="1" stroke-linejoin="round"/><path d="M67.95,63.52 L67.95,73.97 L58.93,68.69 L58.93,58.24 L67.95,63.52 Z" fill="#9cebff" stroke="#9cebff" stroke-width="1" stroke-linejoin="round"/><path d="M58.93,68.69 L67.95,63.47 L67.95,73.97 L58.93,68.69 Z" fill="#c3f1ff" stroke="#c3f1ff" stroke-width="1" stroke-linejoin="round"/><path d="M76.91,68.69 L67.95,63.47 L67.95,73.97 L76.91,68.69 Z" fill="#9cebff" stroke="#9cebff" stroke-width="1" stroke-linejoin="round"/><path d="M78.72,92.37 L76.96,91.91 L75.64,91.19 L74.69,90.20 L74.05,88.96 L73.67,87.48 L73.47,85.77 L73.39,81.71 L62.72,81.71 L62.64,85.89 L62.44,87.63 L62.05,89.12 L61.42,90.35 L60.47,91.31 L59.15,91.98 L57.39,92.37 L56.04,92.92 L55.09,94.01 L54.72,95.41 L81.39,95.41 L81.02,94.01 L80.06,92.92 L78.72,92.37 Z" fill="#a6a6a6" stroke="#1e1e1e" stroke-width="1" stroke-linejoin="round"/></svg>