<svg xmlns="http://www.w3.org/2000/svg" viewBox="0.67 0.67 94.67 94.67"><ellipse cx="48.00" cy="48.00" rx="45.33" ry="45.33" fill="#006fc5" stroke="#1e1e1e" stroke-width="1"/><path d="M47.36,25.01 L45.82,25.32 L44.52,26.19 L43.65,27.49 L43.34,29.02 L43.34,48.73 L43.65,50.26 L44.52,51.56 L45.82,52.43 L47.36,52.74 L67.06,52.74 L68.59,52.43 L69.89,51.56 L70.76,50.26 L71.07,48.73 L71.07,29.02 L70.76,27.49 L69.89,26.19 L68.59,25.32 L67.06,25.01 L47.36,25.01 Z" fill="#7de2fb" stroke="#7de2fb" stroke-width="1" stroke-linejoin="round"/><path d="M50.97,30.23 L49.77,30.55 L48.88,31.43 L48.56,32.63 L48.56,45.11 L48.88,46.31 L49.77,47.20 L50.97,47.52 L63.47,47.52 L64.67,47.20 L65.55,46.31 L65.87,45.11 L65.87,32.63 L65.55,31.43 L64.67,30.55 L63.47,30.23 L50.97,30.23 Z" fill="#006fc5" stroke="#006fc5" stroke-width="1" stroke-linejoin="round"/><path d="M24.93,40.00 L25.26,38.80 L26.14,37.92 L27.34,37.59 L37.21,37.59 L38.41,37.92 L39.29,38.80 L39.62,40.00 L39.62,49.93 L39.29,51.13 L38.41,52.01 L37.21,52.33 L27.34,52.33 L26.14,52.01 L25.26,51.13 L24.93,49.93 L24.93,40.00 Z" fill="#ffffff" stroke="#ffffff" stroke-width="1" stroke-linejoin="round"/><path d="M24.93,58.71 L25.26,57.51 L26.14,56.63 L27.34,56.30 L37.21,56.30 L38.41,56.63 L39.29,57.51 L39.62,58.71 L39.62,68.58 L39.29,69.78 L38.41,70.66 L37.21,70.99 L27.34,70.99 L26.14,70.66 L25.26,69.78 L24.93,68.58 L24.93,58.71 Z" fill="#ffffff" stroke="#ffffff" stroke-width="1" stroke-linejoin="round"/><path d="M43.34,58.47 L43.67,57.27 L44.55,56.38 L45.75,56.06 L55.62,56.06 L56.83,56.39 L57.71,57.27 L58.03,58.47 L58.03,68.34 L57.71,69.54 L56.83,70.42 L55.62,70.75 L45.75,70.75 L44.55,70.43 L43.67,69.55 L43.34,68.34 L43.34,58.47 Z" fill="#ffffff" stroke="#ffffff" stroke-width="1" stroke-linejoin="round"/></svg>