<svg xmlns="http://www.w3.org/2000/svg" viewBox="0.82 0.82 100.00 100.00"><ellipse cx="50.82" cy="50.82" rx="48.00" ry="48.00" fill="#006fc5" stroke="#1e1e1e" stroke-width="1"/><path d="M50.15,26.48 L48.52,26.81 L47.14,27.73 L46.22,29.11 L45.89,30.73 L45.89,51.59 L46.22,53.22 L47.14,54.59 L48.52,55.51 L50.15,55.84 L71.00,55.84 L72.63,55.51 L74.00,54.59 L74.92,53.22 L75.25,51.59 L75.25,30.73 L74.92,29.11 L74.00,27.73 L72.63,26.81 L71.00,26.48 L50.15,26.48 Z" fill="#7de2fb" stroke="#1e1e1e" stroke-width="1" stroke-linejoin="round"/><path d="M53.97,32.01 L52.69,32.35 L51.76,33.28 L51.42,34.55 L51.42,47.76 L51.76,49.04 L52.69,49.97 L53.97,50.32 L67.20,50.32 L68.48,49.97 L69.41,49.04 L69.75,47.76 L69.75,34.55 L69.41,33.28 L68.47,32.35 L67.20,32.01 L53.97,32.01 Z" fill="#006fc5" stroke="#1e1e1e" stroke-width="1" stroke-linejoin="round"/><path d="M26.40,42.35 L26.74,41.08 L27.67,40.15 L28.95,39.81 L39.40,39.81 L40.67,40.15 L41.61,41.08 L41.95,42.35 L41.95,52.86 L41.61,54.14 L40.67,55.07 L39.40,55.41 L28.95,55.41 L27.67,55.07 L26.74,54.14 L26.40,52.86 L26.40,42.35 Z" fill="#ffffff" stroke="#ffffff" stroke-width="1" stroke-linejoin="round"/><path d="M26.40,62.16 L26.74,60.89 L27.67,59.96 L28.95,59.62 L39.40,59.62 L40.67,59.96 L41.61,60.89 L41.95,62.16 L41.95,72.62 L41.61,73.89 L40.67,74.82 L39.40,75.16 L28.95,75.16 L27.67,74.82 L26.74,73.89 L26.40,72.62 L26.40,62.16 Z" fill="#ffffff" stroke="#ffffff" stroke-width="1" stroke-linejoin="round"/><path d="M45.89,61.91 L46.24,60.63 L47.17,59.70 L48.45,59.36 L58.89,59.36 L60.17,59.70 L61.10,60.63 L61.45,61.91 L61.45,72.36 L61.10,73.64 L60.17,74.57 L58.89,74.91 L48.45,74.91 L47.17,74.57 L46.24,73.64 L45.89,72.36 L45.89,61.91 Z" fill="#ffffff" stroke="#ffffff" stroke-width="1" stroke-linejoin="round"/></svg>