<svg xmlns="http://www.w3.org/2000/svg" viewBox="0.71 7.30 100.00 86.65"><path d="M5.64,9.30 L95.83,9.30 L97.20,9.62 L98.25,10.56 L98.71,11.89 L98.71,74.47 L98.26,75.81 L97.21,76.76 L95.83,77.06 L5.64,77.06 L4.24,76.76 L3.17,75.81 L2.71,74.47 L2.71,12.01 L3.14,10.61 L4.21,9.62 L5.64,9.30 L5.64,9.30 Z" fill="#2f8ce2" stroke="#1e1e1e" stroke-width="1" stroke-linejoin="round"/><path d="M66.91,47.01 L81.91,55.69 L96.96,64.32 L97.36,64.88 L97.23,65.57 L97.11,65.72 L96.96,65.84 L86.92,71.48 L94.08,83.77 L94.68,85.58 L94.55,87.49 L93.71,89.21 L92.28,90.48 L90.81,91.32 L89.01,91.95 L87.10,91.84 L85.38,91.00 L84.11,89.57 L76.95,77.17 L66.97,82.81 L66.37,82.93 L65.84,82.61 L65.67,82.02 L65.67,47.80 L65.97,47.18 L66.62,46.95 L66.77,46.97 L66.91,47.01 Z" fill="#50e6ff" stroke="#1e1e1e" stroke-width="1" stroke-linejoin="round"/><path d="M42.84,18.72 L59.08,18.72 L59.63,18.95 L59.87,19.50 L59.87,19.50 L59.87,36.42 L59.65,36.93 L59.13,37.15 L43.18,37.15 L42.62,36.92 L42.39,36.36 L42.39,19.45 L42.52,18.99 L42.90,18.72 L42.84,18.72 Z" fill="#ffffff" stroke="#1e1e1e" stroke-width="1" stroke-linejoin="round"/><path d="M42.84,45.94 L59.08,45.94 L59.62,46.19 L59.87,46.73 L59.87,63.64 L59.65,64.16 L59.13,64.38 L43.18,64.38 L42.62,64.14 L42.39,63.59 L42.39,63.59 L42.39,46.68 L42.52,46.22 L42.90,45.94 L42.84,45.94 Z" fill="#83b9f9" stroke="#1e1e1e" stroke-width="1" stroke-linejoin="round"/><path d="M72.72,18.72 L88.95,18.72 L89.51,18.95 L89.74,19.50 L89.74,19.50 L89.74,36.42 L89.53,36.93 L89.01,37.15 L73.00,37.15 L72.44,36.92 L72.21,36.36 L72.21,36.36 L72.21,19.45 L72.34,18.99 L72.72,18.72 L72.72,18.72 Z" fill="#83b9f9" stroke="#1e1e1e" stroke-width="1" stroke-linejoin="round"/><path d="M14.43,45.94 L30.67,45.94 L31.21,46.19 L31.46,46.73 L31.46,63.64 L31.24,64.16 L30.72,64.38 L14.77,64.38 L14.21,64.14 L13.98,63.59 L13.98,63.59 L13.98,46.68 L14.11,46.22 L14.49,45.94 L14.43,45.94 Z" fill="#ffffff" stroke="#1e1e1e" stroke-width="1" stroke-linejoin="round"/><path d="M14.43,18.72 L30.67,18.72 L31.21,18.96 L31.46,19.50 L31.46,36.42 L31.24,36.93 L30.72,37.15 L14.77,37.15 L14.21,36.92 L13.98,36.36 L13.98,36.36 L13.98,19.45 L14.11,18.99 L14.49,18.72 L14.43,18.72 Z" fill="#ffffff" stroke="#1e1e1e" stroke-width="1" stroke-linejoin="round"/></svg>