<svg xmlns="http://www.w3.org/2000/svg" viewBox="0.56 6.80 94.83 82.19"><path d="M5.33,8.80 L90.67,8.80 L91.96,9.10 L92.95,9.99 L93.39,11.25 L93.39,70.45 L92.97,71.72 L91.97,72.62 L90.67,72.91 L5.33,72.91 L4.01,72.62 L3.00,71.73 L2.56,70.45 L2.56,11.36 L2.97,10.04 L3.99,9.10 L5.33,8.80 L5.33,8.80 Z" fill="#2f8ce2" stroke="#1e1e1e" stroke-width="1" stroke-linejoin="round"/><path d="M63.31,44.48 L77.49,52.69 L91.73,60.85 L92.11,61.39 L91.99,62.03 L91.88,62.18 L91.73,62.29 L82.24,67.63 L89.01,79.25 L89.58,80.97 L89.46,82.78 L88.66,84.40 L87.31,85.60 L85.92,86.40 L84.21,86.99 L82.40,86.89 L80.78,86.10 L79.57,84.75 L72.80,73.01 L63.36,78.35 L62.79,78.46 L62.29,78.16 L62.13,77.60 L62.13,45.23 L62.41,44.64 L63.03,44.42 L63.17,44.44 L63.31,44.48 Z" fill="#50e6ff" stroke="#1e1e1e" stroke-width="1" stroke-linejoin="round"/><path d="M40.53,17.71 L55.89,17.71 L56.42,17.93 L56.64,18.45 L56.64,18.45 L56.64,34.45 L56.44,34.94 L55.95,35.15 L40.85,35.15 L40.33,34.93 L40.11,34.40 L40.11,18.40 L40.23,17.97 L40.59,17.71 L40.53,17.71 Z" fill="#ffffff" stroke="#ffffff" stroke-width="1" stroke-linejoin="round"/><path d="M40.53,43.47 L55.89,43.47 L56.41,43.70 L56.64,44.21 L56.64,60.21 L56.44,60.70 L55.95,60.91 L40.85,60.91 L40.33,60.69 L40.11,60.16 L40.11,60.16 L40.11,44.16 L40.23,43.73 L40.59,43.47 L40.53,43.47 Z" fill="#83b9f9" stroke="#83b9f9" stroke-width="1" stroke-linejoin="round"/><path d="M68.80,17.71 L84.16,17.71 L84.69,17.93 L84.91,18.45 L84.91,18.45 L84.91,34.45 L84.70,34.94 L84.21,35.15 L69.07,35.15 L68.54,34.93 L68.32,34.40 L68.32,34.40 L68.32,18.40 L68.44,17.97 L68.80,17.71 L68.80,17.71 Z" fill="#83b9f9" stroke="#83b9f9" stroke-width="1" stroke-linejoin="round"/><path d="M13.65,43.47 L29.01,43.47 L29.53,43.70 L29.76,44.21 L29.76,60.21 L29.56,60.70 L29.07,60.91 L13.97,60.91 L13.45,60.69 L13.23,60.16 L13.23,60.16 L13.23,44.16 L13.35,43.73 L13.71,43.47 L13.65,43.47 Z" fill="#ffffff" stroke="#ffffff" stroke-width="1" stroke-linejoin="round"/><path d="M13.65,17.71 L29.01,17.71 L29.53,17.94 L29.76,18.45 L29.76,34.45 L29.56,34.94 L29.07,35.15 L13.97,35.15 L13.45,34.93 L13.23,34.40 L13.23,34.40 L13.23,18.40 L13.35,17.97 L13.71,17.71 L13.65,17.71 Z" fill="#ffffff" stroke="#ffffff" stroke-width="1" stroke-linejoin="round"/></svg>