<svg xmlns="http://www.w3.org/2000/svg" viewBox="5.99 3.28 84.00 89.39"><path d="M63.79,62.29 L63.97,61.93 L64.16,61.01 L64.16,40.37 L64.32,38.67 L64.79,36.97 L65.54,35.34 L66.54,33.80 L67.78,32.41 L69.22,31.21 L70.85,30.24 L72.64,29.55 L68.32,15.41 L67.33,12.57 L65.78,9.23 L64.83,7.70 L63.78,6.44 L62.65,5.59 L61.44,5.28 L61.39,5.28 L61.39,5.28 L61.12,5.47 L60.69,5.97 L60.10,7.57 L59.59,9.95 L58.83,16.40 L58.38,24.09 L58.24,31.79 L58.24,43.84 L63.36,61.71 L63.52,61.97 L63.84,62.24 L63.84,62.24 L63.79,62.29 Z" fill="#131595" stroke="#1e1e1e" stroke-width="1" stroke-linejoin="round"/><path d="M63.79,62.29 L63.97,61.93 L64.16,61.01 L64.16,40.37 L64.32,38.67 L64.79,36.97 L65.54,35.34 L66.54,33.80 L67.78,32.41 L69.22,31.21 L70.85,30.24 L72.64,29.55 L68.32,15.41 L67.33,12.57 L65.78,9.23 L64.83,7.70 L63.78,6.44 L62.65,5.59 L61.44,5.28 L61.39,5.28 L61.39,5.28 L61.12,5.47 L60.69,5.97 L60.10,7.57 L59.59,9.95 L58.83,16.40 L58.38,24.09 L58.24,31.79 L58.24,43.84 L63.36,61.71 L63.52,61.97 L63.84,62.24 L63.84,62.24 L63.79,62.29 Z" fill="#2a26c0" stroke="#1e1e1e" stroke-width="1" stroke-linejoin="round"/><path d="M85.39,29.12 L75.73,29.12 L73.38,29.38 L71.20,30.11 L69.24,31.25 L67.53,32.71 L66.12,34.42 L65.06,36.32 L64.39,38.33 L64.16,40.37 L64.16,61.01 L64.03,61.93 L63.79,62.29 L63.49,62.03 L63.31,61.76 L63.56,62.32 L63.85,62.71 L64.21,62.88 L74.77,62.88 L76.29,62.72 L78.23,62.21 L80.41,61.31 L82.63,59.98 L84.69,58.17 L85.60,57.07 L86.40,55.84 L87.06,54.46 L87.57,52.94 L87.89,51.27 L88.00,49.44 L88.00,32.11 L87.78,30.73 L87.19,29.82 L86.36,29.32 L85.39,29.17 L85.39,29.12 Z" fill="#6d71d1" stroke="#1e1e1e" stroke-width="1" stroke-linejoin="round"/><path d="M12.48,90.67 L41.17,90.67 L43.43,90.54 L45.51,90.18 L47.40,89.60 L49.13,88.83 L50.69,87.87 L52.08,86.74 L53.32,85.47 L54.41,84.07 L55.35,82.55 L56.14,80.95 L57.34,77.53 L58.02,73.95 L58.24,70.35 L58.24,31.79 L58.43,22.96 L59.03,14.37 L59.48,10.74 L60.04,7.86 L60.71,5.96 L61.09,5.46 L61.49,5.28 L44.27,5.28 L42.75,5.49 L41.28,6.10 L39.84,7.13 L38.41,8.57 L36.99,10.43 L35.57,12.70 L34.12,15.40 L32.64,18.51 L30.49,23.77 L27.31,32.17 L19.41,53.81 L8.53,84.43 L8.14,85.90 L7.99,87.17 L8.10,88.24 L8.47,89.10 L9.08,89.77 L9.96,90.24 L11.09,90.52 L12.48,90.61 L12.48,90.67 Z" fill="#3f3ece" stroke="#1e1e1e" stroke-width="1" stroke-linejoin="round"/></svg>