<svg xmlns="http://www.w3.org/2000/svg" viewBox="6.99 3.94 93.95 100.00"><path d="M71.72,70.04 L71.93,69.63 L72.13,68.60 L72.13,45.39 L72.32,43.47 L72.84,41.57 L73.68,39.73 L74.81,38.00 L76.20,36.44 L77.83,35.09 L79.66,34.00 L81.67,33.22 L76.81,17.33 L75.70,14.13 L73.96,10.37 L72.89,8.66 L71.71,7.24 L70.43,6.29 L69.08,5.94 L69.02,5.94 L69.02,5.94 L68.72,6.15 L68.24,6.72 L67.57,8.51 L67.00,11.18 L66.14,18.44 L65.64,27.09 L65.48,35.74 L65.48,49.29 L71.24,69.38 L71.42,69.68 L71.78,69.98 L71.78,69.98 L71.72,70.04 Z" fill="#131595" stroke="#1e1e1e" stroke-width="1" stroke-linejoin="round"/><path d="M71.72,70.04 L71.93,69.63 L72.13,68.60 L72.13,45.39 L72.32,43.47 L72.84,41.57 L73.68,39.73 L74.81,38.00 L76.20,36.44 L77.83,35.09 L79.66,34.00 L81.67,33.22 L76.81,17.33 L75.70,14.13 L73.96,10.37 L72.89,8.66 L71.71,7.24 L70.43,6.29 L69.08,5.94 L69.02,5.94 L69.02,5.94 L68.72,6.15 L68.24,6.72 L67.57,8.51 L67.00,11.18 L66.14,18.44 L65.64,27.09 L65.48,35.74 L65.48,49.29 L71.24,69.38 L71.42,69.68 L71.78,69.98 L71.78,69.98 L71.72,70.04 Z" fill="#2a26c0" stroke="#1e1e1e" stroke-width="1" stroke-linejoin="round"/><path d="M96.00,32.74 L85.15,32.74 L82.50,33.03 L80.05,33.86 L77.84,35.13 L75.92,36.77 L74.34,38.70 L73.15,40.83 L72.40,43.09 L72.13,45.39 L72.13,68.60 L71.99,69.63 L71.72,70.04 L71.38,69.74 L71.18,69.44 L71.46,70.07 L71.78,70.50 L72.19,70.70 L84.07,70.70 L85.77,70.52 L87.96,69.95 L90.41,68.93 L92.90,67.44 L95.21,65.40 L96.24,64.16 L97.14,62.78 L97.88,61.23 L98.45,59.52 L98.81,57.64 L98.94,55.59 L98.94,36.10 L98.69,34.54 L98.03,33.53 L97.09,32.97 L96.00,32.80 L96.00,32.74 Z" fill="#6d71d1" stroke="#1e1e1e" stroke-width="1" stroke-linejoin="round"/><path d="M14.03,101.94 L46.29,101.94 L48.83,101.80 L51.16,101.39 L53.29,100.74 L55.23,99.87 L56.99,98.79 L58.55,97.52 L59.95,96.09 L61.17,94.52 L62.23,92.82 L63.12,91.01 L64.46,87.16 L65.23,83.14 L65.48,79.09 L65.48,35.74 L65.70,25.82 L66.36,16.16 L66.87,12.08 L67.50,8.84 L68.26,6.71 L68.68,6.13 L69.14,5.94 L49.77,5.94 L48.07,6.17 L46.41,6.86 L44.79,8.02 L43.19,9.64 L41.59,11.73 L39.99,14.28 L38.36,17.31 L36.70,20.81 L34.28,26.73 L30.70,36.17 L21.82,60.49 L9.59,94.92 L9.15,96.58 L8.99,98.01 L9.11,99.20 L9.52,100.17 L10.21,100.92 L11.20,101.46 L12.47,101.77 L14.03,101.88 L14.03,101.94 Z" fill="#3f3ece" stroke="#1e1e1e" stroke-width="1" stroke-linejoin="round"/></svg>