<svg xmlns="http://www.w3.org/2000/svg" viewBox="0.11 0.06 100.00 99.94"><path d="M61.33,6.40 L58.88,4.55 L56.15,3.19 L53.20,2.35 L50.09,2.06 L46.78,2.38 L43.66,3.32 L40.79,4.85 L38.23,6.96 L7.01,38.23 L4.91,40.79 L3.37,43.66 L2.43,46.78 L2.11,50.09 L2.43,53.39 L3.37,56.51 L4.91,59.38 L7.01,61.94 L22.43,77.36 L29.11,84.03 L30.95,85.58 L32.98,86.75 L35.15,87.54 L37.40,87.96 L39.68,88.00 L41.94,87.67 L44.13,86.96 L46.19,85.87 L46.52,85.55 L46.64,85.15 L46.58,84.71 L46.36,84.31 L15.47,53.43 L14.88,52.70 L14.44,51.88 L14.17,51.00 L14.08,50.09 L14.17,49.17 L14.44,48.29 L14.88,47.47 L15.47,46.75 L36.62,25.60 L46.75,15.47 L48.92,13.36 L51.54,11.19 L54.44,9.60 L57.53,8.60 L60.72,8.18 L61.29,7.99 L61.66,7.51 L61.67,6.92 L61.38,6.46 L61.33,6.40 Z" fill="#4595ff" stroke="#1e1e1e" stroke-width="1" stroke-linejoin="round"/><path d="M93.16,38.23 L71.07,16.14 L69.22,14.59 L67.19,13.43 L65.03,12.63 L62.78,12.22 L60.49,12.17 L58.23,12.51 L56.05,13.22 L53.98,14.30 L53.66,14.62 L53.54,15.03 L53.59,15.46 L53.82,15.86 L84.70,46.75 L85.30,47.47 L85.73,48.29 L86.00,49.17 L86.09,50.09 L86.00,51.00 L85.73,51.88 L85.30,52.70 L84.70,53.43 L63.55,74.52 L53.43,84.65 L51.26,86.76 L48.64,88.92 L45.76,90.50 L42.69,91.50 L39.51,91.94 L39.46,91.94 L38.91,92.13 L38.57,92.61 L38.54,93.20 L38.85,93.66 L41.31,95.51 L44.05,96.88 L47.00,97.72 L50.09,98.00 L53.37,97.68 L56.49,96.74 L59.38,95.21 L61.94,93.11 L93.22,61.83 L95.32,59.27 L96.86,56.40 L97.80,53.28 L98.11,49.98 L97.80,46.67 L96.86,43.55 L95.32,40.68 L93.22,38.12 L93.16,38.23 Z" fill="#397af3" stroke="#1e1e1e" stroke-width="1" stroke-linejoin="round"/><path d="M50.09,64.50 L52.99,64.21 L55.70,63.37 L58.14,62.04 L60.28,60.28 L62.04,58.14 L63.37,55.70 L64.21,52.99 L64.50,50.09 L64.21,47.18 L63.37,44.48 L62.04,42.03 L60.28,39.90 L58.14,38.14 L55.70,36.81 L52.99,35.97 L50.09,35.67 L47.18,35.97 L44.48,36.81 L42.03,38.14 L39.90,39.90 L38.14,42.03 L36.81,44.48 L35.97,47.18 L35.67,50.09 L35.97,52.99 L36.81,55.70 L38.14,58.14 L39.90,60.28 L42.03,62.04 L44.48,63.37 L47.18,64.21 L50.09,64.50 Z" fill="#6864f6" stroke="#1e1e1e" stroke-width="1" stroke-linejoin="round"/></svg>