<svg xmlns="http://www.w3.org/2000/svg" viewBox="0.03 -0.03 96.00 95.95"><path d="M58.77,6.13 L56.42,4.36 L53.81,3.05 L50.98,2.25 L48.00,1.97 L44.83,2.28 L41.84,3.18 L39.09,4.65 L36.64,6.67 L6.72,36.64 L4.70,39.09 L3.23,41.84 L2.33,44.83 L2.03,48.00 L2.33,51.17 L3.23,54.16 L4.70,56.91 L6.72,59.36 L21.49,74.13 L27.89,80.53 L29.66,82.01 L31.61,83.13 L33.68,83.89 L35.84,84.29 L38.03,84.33 L40.19,84.01 L42.29,83.33 L44.27,82.29 L44.58,81.99 L44.69,81.60 L44.64,81.18 L44.43,80.80 L14.83,51.20 L14.26,50.50 L13.84,49.72 L13.58,48.88 L13.49,48.00 L13.58,47.12 L13.84,46.28 L14.26,45.49 L14.83,44.80 L35.09,24.53 L44.80,14.83 L46.88,12.80 L49.40,10.72 L52.17,9.20 L55.13,8.24 L58.19,7.84 L58.74,7.66 L59.09,7.20 L59.10,6.63 L58.83,6.19 L58.77,6.13 Z" fill="#4595ff" stroke="#1e1e1e" stroke-width="1" stroke-linejoin="round"/><path d="M89.28,36.64 L68.11,15.47 L66.34,13.99 L64.39,12.87 L62.32,12.11 L60.16,11.71 L57.97,11.67 L55.81,11.99 L53.71,12.67 L51.73,13.71 L51.42,14.01 L51.31,14.40 L51.36,14.82 L51.57,15.20 L81.17,44.80 L81.74,45.49 L82.16,46.28 L82.42,47.12 L82.51,48.00 L82.42,48.88 L82.16,49.72 L81.74,50.50 L81.17,51.20 L60.91,71.41 L51.20,81.12 L49.12,83.15 L46.61,85.22 L43.85,86.73 L40.91,87.68 L37.87,88.11 L37.81,88.11 L37.29,88.29 L36.96,88.75 L36.93,89.31 L37.23,89.76 L39.58,91.53 L42.21,92.84 L45.04,93.65 L48.00,93.92 L51.15,93.61 L54.14,92.71 L56.90,91.24 L59.36,89.23 L89.33,59.25 L91.35,56.80 L92.82,54.05 L93.72,51.06 L94.03,47.89 L93.72,44.72 L92.82,41.73 L91.35,38.98 L89.33,36.53 L89.28,36.64 Z" fill="#397af3" stroke="#1e1e1e" stroke-width="1" stroke-linejoin="round"/><path d="M48.00,61.81 L50.78,61.53 L53.38,60.73 L55.72,59.45 L57.77,57.77 L59.45,55.72 L60.73,53.38 L61.53,50.78 L61.81,48.00 L61.53,45.22 L60.73,42.62 L59.45,40.28 L57.77,38.23 L55.72,36.55 L53.38,35.27 L50.78,34.47 L48.00,34.19 L45.22,34.47 L42.62,35.27 L40.28,36.55 L38.23,38.23 L36.55,40.28 L35.27,42.62 L34.47,45.22 L34.19,48.00 L34.47,50.78 L35.27,53.38 L36.55,55.72 L38.23,57.77 L40.28,59.45 L42.62,60.73 L45.22,61.53 L48.00,61.81 Z" fill="#6864f6" stroke="#1e1e1e" stroke-width="1" stroke-linejoin="round"/></svg>