<svg xmlns="http://www.w3.org/2000/svg" viewBox="1.46 -2.00 93.10 100.00"><path d="M64.33,0.06 L65.38,0.16 L66.38,0.45 L67.33,0.90 L68.19,1.52 L68.97,2.29 L69.64,3.18 L70.19,4.19 L70.61,5.31 L76.83,27.66 L76.83,65.88 L57.59,65.88 L57.98,0.00 L64.33,0.00 L64.33,0.06 L64.33,0.06 Z" fill="#ec30a3" stroke="#1e1e1e" stroke-width="1" stroke-linejoin="round"/><path d="M92.57,29.93 L92.37,28.98 L91.85,28.22 L91.09,27.71 L90.17,27.53 L78.83,27.53 L75.92,27.82 L73.21,28.67 L70.76,30.00 L68.62,31.77 L66.85,33.91 L65.52,36.36 L64.68,39.07 L64.38,41.98 L64.38,65.95 L78.12,65.95 L81.03,65.65 L83.74,64.81 L86.19,63.48 L88.33,61.71 L90.09,59.57 L91.43,57.12 L92.27,54.41 L92.57,51.50 L92.57,29.93 L92.57,29.93 Z" fill="#3573e7" stroke="#1e1e1e" stroke-width="1" stroke-linejoin="round"/><path d="M64.33,0.06 L63.52,0.14 L62.78,0.37 L61.52,1.21 L60.68,2.47 L60.45,3.21 L60.37,4.02 L59.98,76.76 L59.88,78.73 L59.59,80.64 L59.12,82.48 L58.47,84.25 L57.66,85.93 L56.70,87.52 L55.59,89.00 L54.35,90.37 L52.98,91.61 L51.50,92.71 L49.92,93.68 L48.23,94.49 L46.47,95.14 L44.62,95.61 L42.71,95.90 L40.75,96.00 L5.83,96.00 L4.69,95.72 L3.87,95.00 L3.46,93.98 L3.56,92.83 L31.55,12.95 L32.77,10.19 L34.38,7.69 L36.33,5.49 L38.57,3.62 L41.08,2.11 L43.79,0.99 L46.67,0.30 L49.69,0.06 L64.39,0.06 L64.33,0.06 Z" fill="#1e71ea" stroke="#1e1e1e" stroke-width="1" stroke-linejoin="round"/></svg>