<svg xmlns="http://www.w3.org/2000/svg" viewBox="-1.70 1.86 100.00 94.23"><path d="M95.02,86.16 L79.39,70.53 L82.77,65.91 L85.44,60.85 L87.34,55.46 L88.43,49.84 L88.68,44.13 L88.09,38.44 L86.67,32.90 L84.45,27.62 L81.48,22.73 L77.83,18.33 L73.57,14.51 L68.80,11.36 L63.61,8.94 L58.13,7.31 L52.46,6.51 L46.74,6.54 L41.09,7.42 L35.63,9.11 L30.47,11.59 L25.73,14.79 L21.52,18.66 L17.92,23.11 L15.01,28.03 L12.85,33.33 L11.50,38.89 L10.97,44.58 L11.29,50.30 L12.44,55.90 L14.41,61.27 L17.14,66.30 L20.58,70.87 L24.65,74.89 L29.27,78.26 L34.33,80.93 L39.73,82.82 L45.35,83.89 L51.07,84.13 L56.75,83.53 L62.29,82.10 L67.56,79.87 L72.45,76.89 L88.36,92.81 L89.79,93.76 L91.47,94.09 L93.15,93.76 L94.57,92.81 L95.00,92.37 L95.96,90.95 L96.30,89.27 L95.97,87.59 L95.02,86.16 Z" fill="#2f8ce2" stroke="#1e1e1e" stroke-width="1" stroke-linejoin="round"/><ellipse cx="49.95" cy="45.59" rx="30.24" ry="30.24" fill="#ffffff" stroke="#1e1e1e" stroke-width="1"/><path d="M65.06,48.14 L56.36,68.32 L47.60,42.32 L39.84,57.12 L30.82,41.87 L17.31,41.87 L17.79,39.33 L18.49,36.83 L33.71,36.83 L39.58,46.75 L48.62,29.50 L56.95,54.20 L61.66,41.56 L67.22,41.56 L73.94,53.77 L78.93,53.77 L78.24,56.34 L77.33,58.83 L70.95,58.83 L65.06,48.14 Z" fill="#50e6ff" stroke="#1e1e1e" stroke-width="1" stroke-linejoin="round"/><path d="M72.32,38.22 L60.71,38.22 L59.95,34.39 L58.54,30.74 L56.50,27.41 L53.70,24.33 L50.38,21.82 L46.66,19.96 L42.66,18.82 L42.66,7.00 L42.34,5.60 L41.45,4.48 L40.16,3.86 L38.72,3.86 L37.43,4.48 L36.54,5.60 L36.22,7.00 L36.22,18.58 L31.98,19.41 L27.98,21.04 L24.38,23.42 L21.31,26.45 L18.88,30.02 L17.20,33.99 L16.31,38.22 L3.44,38.22 L2.04,38.54 L0.92,39.43 L0.30,40.72 L0.30,42.16 L0.92,43.45 L2.04,44.34 L3.44,44.66 L16.55,44.66 L17.37,48.07 L18.73,51.30 L20.58,54.27 L23.55,57.49 L27.08,60.08 L31.05,61.94 L35.31,62.99 L35.31,74.92 L35.62,76.32 L36.52,77.44 L37.81,78.06 L39.24,78.06 L40.54,77.44 L41.43,76.32 L41.75,74.92 L41.75,62.99 L45.65,62.07 L49.33,60.47 L52.66,58.23 L55.53,55.43 L57.86,52.16 L59.55,48.53 L60.57,44.65 L72.31,44.65 L73.71,44.33 L74.83,43.43 L75.45,42.14 L75.45,40.71 L74.83,39.42 L73.71,38.52 L72.31,38.20 L72.32,38.22 Z" fill="#faa21d" stroke="#1e1e1e" stroke-width="1" stroke-linejoin="round"/><path d="M48.43,54.08 L45.23,55.96 L41.70,57.07 L38.01,57.37 L34.34,56.84 L30.88,55.51 L27.81,53.44 L25.27,50.74 L23.40,47.54 L22.28,44.01 L21.98,40.31 L22.51,36.64 L23.85,33.19 L25.92,30.11 L28.62,27.58 L31.81,25.70 L35.35,24.59 L39.04,24.29 L42.71,24.82 L46.17,26.15 L49.24,28.22 L51.78,30.92 L53.67,34.12 L54.80,37.65 L55.10,41.35 L54.57,45.02 L53.23,48.48 L51.15,51.56 L48.43,54.08 Z" fill="#ffffff" stroke="#1e1e1e" stroke-width="1" stroke-linejoin="round"/></svg>