<svg xmlns="http://www.w3.org/2000/svg" viewBox="5.66 0.01 88.70 100.00"><path d="M7.66,4.79 L8.03,3.40 L9.05,2.39 L10.43,2.01 L11.82,2.38 L90.96,47.60 L91.99,48.62 L92.36,50.01 L91.99,51.41 L90.96,52.42 L11.82,97.65 L10.43,98.01 L9.05,97.64 L8.03,96.62 L7.66,95.23 L7.66,4.79 Z" fill="#3a90e5" stroke="#1e1e1e" stroke-width="1" stroke-linejoin="round"/><path d="M23.29,26.93 L23.29,73.09 L63.68,50.01 L23.29,26.93 Z" fill="#ffffff" stroke="#1e1e1e" stroke-width="1" stroke-linejoin="round"/><path d="M7.66,61.13 L7.66,38.90 L23.29,38.90 L23.29,61.13 L7.66,61.13 Z" fill="#76e8ff" stroke="#1e1e1e" stroke-width="1" stroke-linejoin="round"/><path d="M60.57,69.78 L41.59,80.64 L33.81,67.07 L52.81,56.21 L60.57,69.78 Z" fill="#76e8ff" stroke="#1e1e1e" stroke-width="1" stroke-linejoin="round"/><path d="M41.59,19.39 L60.57,30.24 L52.83,43.81 L33.83,32.96 L41.59,19.39 Z" fill="#76e8ff" stroke="#1e1e1e" stroke-width="1" stroke-linejoin="round"/></svg>