<svg xmlns="http://www.w3.org/2000/svg" viewBox="-2.00 -2.00 100.00 100.00"><path d="M0.00,14.40 L0.00,81.60 L0.29,84.50 L1.13,87.20 L2.46,89.65 L4.22,91.78 L6.35,93.54 L8.80,94.87 L11.50,95.71 L14.40,96.00 L81.60,96.00 L84.50,95.71 L87.20,94.87 L89.65,93.54 L91.78,91.78 L93.54,89.65 L94.87,87.20 L95.71,84.50 L96.00,81.60 L96.00,14.40 L95.71,11.50 L94.87,8.80 L93.54,6.35 L91.78,4.22 L89.65,2.46 L87.20,1.13 L84.50,0.29 L81.60,0.00 L14.40,0.00 L11.50,0.29 L8.80,1.13 L6.35,2.46 L4.22,4.22 L2.46,6.35 L1.13,8.80 L0.29,11.50 L0.00,14.40 Z" fill="#4298e6" stroke="#1e1e1e" stroke-width="1" stroke-linejoin="round"/><path d="M57.60,0.00 L57.60,19.20 L57.80,23.13 L58.38,26.94 L59.33,30.62 L60.62,34.15 L62.24,37.50 L64.16,40.67 L66.37,43.62 L68.85,46.35 L71.58,48.83 L74.53,51.04 L77.70,52.96 L81.05,54.58 L84.58,55.87 L88.26,56.82 L92.07,57.40 L96.00,57.60 L76.80,57.60 L72.87,57.80 L69.06,58.38 L65.38,59.33 L61.85,60.62 L58.50,62.23 L55.33,64.16 L52.38,66.37 L49.65,68.84 L47.17,71.57 L44.96,74.52 L43.04,77.69 L41.42,81.04 L40.13,84.57 L39.18,88.25 L38.60,92.06 L38.40,95.99 L38.40,76.80 L38.20,72.87 L37.62,69.06 L36.67,65.38 L35.38,61.85 L33.76,58.50 L31.84,55.33 L29.63,52.38 L27.15,49.65 L24.42,47.17 L21.47,44.96 L18.30,43.04 L14.95,41.42 L11.42,40.13 L7.74,39.18 L3.93,38.60 L0.00,38.40 L19.20,38.40 L23.13,38.20 L26.94,37.62 L30.62,36.67 L34.15,35.38 L37.50,33.76 L40.67,31.84 L43.62,29.63 L46.35,27.15 L48.83,24.42 L51.04,21.47 L52.96,18.30 L54.58,14.95 L55.87,11.42 L56.82,7.74 L57.40,3.93 L57.60,0.00 L57.60,0.00 Z" fill="#ffffff" stroke="#1e1e1e" stroke-width="1" stroke-linejoin="round"/></svg>