<svg xmlns="http://www.w3.org/2000/svg" viewBox="-0.67 5.63 100.00 87.50"><path d="M54.10,75.94 L52.98,75.38 L51.81,74.98 L49.37,74.66 L46.93,74.98 L45.75,75.38 L44.61,75.94 L18.66,90.92 L18.18,91.06 L17.70,91.03 L17.27,90.82 L16.95,90.48 L10.75,79.78 L10.61,79.30 L10.64,78.82 L10.85,78.40 L11.19,78.08 L23.59,70.94 L26.16,69.69 L28.89,68.76 L31.76,68.18 L34.73,67.98 L37.44,68.15 L40.11,68.69 L42.69,69.57 L45.10,70.78 L54.04,75.94 L54.10,75.94 Z" fill="#4938f0" stroke="#1e1e1e" stroke-width="1" stroke-linejoin="round"/><path d="M87.95,79.83 L81.75,90.53 L81.43,90.90 L81.01,91.10 L80.53,91.13 L80.05,90.97 L68.42,84.28 L54.04,75.99 L45.10,70.83 L42.65,69.63 L40.11,68.75 L37.44,68.21 L34.73,68.04 L63.98,68.04 L66.88,68.23 L69.73,68.80 L72.49,69.73 L75.11,71.00 L87.51,78.13 L87.88,78.45 L88.08,78.88 L88.11,79.36 L87.95,79.83 L87.95,79.83 Z" fill="#695ff0" stroke="#1e1e1e" stroke-width="1" stroke-linejoin="round"/><path d="M87.95,79.83 L81.75,90.53 L81.43,90.90 L81.01,91.10 L80.53,91.13 L80.05,90.97 L68.42,84.28 L54.04,75.99 L45.10,70.83 L42.65,69.63 L40.11,68.75 L37.44,68.21 L34.73,68.04 L63.98,68.04 L66.88,68.23 L69.73,68.80 L72.49,69.73 L75.11,71.00 L87.51,78.13 L87.88,78.45 L88.08,78.88 L88.11,79.36 L87.95,79.83 L87.95,79.83 Z" fill="#7274ff" stroke="#1e1e1e" stroke-width="1" stroke-linejoin="round"/><path d="M97.23,63.76 L91.03,74.46 L90.71,74.83 L90.28,75.03 L89.80,75.05 L89.32,74.89 L76.92,67.76 L74.49,66.13 L72.31,64.22 L70.40,62.04 L68.80,59.64 L67.60,57.19 L66.72,54.65 L66.18,51.98 L66.01,49.27 L66.01,38.90 L66.09,40.16 L66.33,41.38 L67.27,43.65 L68.76,45.58 L69.69,46.39 L70.72,47.08 L96.73,62.06 L97.10,62.38 L97.30,62.80 L97.33,63.28 L97.17,63.76 L97.23,63.76 Z" fill="#4938f0" stroke="#1e1e1e" stroke-width="1" stroke-linejoin="round"/><path d="M68.86,59.64 L54.21,34.29 L52.91,31.67 L51.99,28.93 L51.43,26.08 L51.25,23.15 L51.25,8.89 L51.34,8.41 L51.61,8.01 L52.01,7.73 L52.51,7.63 L64.85,7.63 L65.33,7.72 L65.73,7.99 L66.01,8.39 L66.12,8.89 L66.12,49.22 L66.29,51.93 L66.83,54.59 L67.71,57.17 L68.91,59.59 L68.86,59.64 Z" fill="#7274ff" stroke="#1e1e1e" stroke-width="1" stroke-linejoin="round"/><path d="M33.96,7.63 L46.31,7.63 L46.78,7.72 L47.19,7.99 L47.47,8.39 L47.57,8.89 L47.57,23.15 L47.38,26.06 L46.81,28.91 L45.88,31.66 L44.61,34.29 L43.09,36.56 L41.32,38.63 L39.27,40.44 L36.98,41.92 L28.04,47.08 L29.08,46.37 L30.00,45.55 L31.49,43.61 L32.43,41.35 L32.67,40.14 L32.76,38.90 L32.76,8.89 L32.85,8.42 L33.12,8.04 L33.52,7.78 L34.02,7.68 L34.02,7.68 L33.96,7.63 Z" fill="#4938f0" stroke="#1e1e1e" stroke-width="1" stroke-linejoin="round"/><path d="M44.55,34.29 L29.90,59.64 L28.27,62.08 L26.36,64.26 L24.19,66.16 L21.78,67.76 L9.38,74.89 L8.91,75.04 L8.43,75.00 L8.00,74.80 L7.68,74.46 L1.48,63.76 L1.33,63.28 L1.35,62.80 L1.55,62.38 L1.92,62.06 L36.87,41.86 L39.14,40.34 L41.21,38.57 L43.02,36.53 L44.50,34.24 L44.55,34.29 Z" fill="#7274ff" stroke="#1e1e1e" stroke-width="1" stroke-linejoin="round"/></svg>