<svg xmlns="http://www.w3.org/2000/svg" viewBox="-0.67 -0.67 97.33 97.33"><path d="M41.87,1.33 L69.60,1.33 L71.19,1.52 L72.73,2.07 L74.18,2.91 L75.47,4.00 L81.33,9.87 L81.63,10.35 L81.73,10.93 L81.63,11.52 L81.33,12.00 L71.20,22.13 L69.07,22.13 L62.67,15.73 L53.60,6.67 L51.99,5.25 L50.33,4.13 L48.58,3.22 L46.67,2.40 L44.27,2.13 L41.87,1.87 L41.87,1.87 L41.87,1.33 L41.87,1.33 Z" fill="#605bfe" stroke="#1e1e1e" stroke-width="1" stroke-linejoin="round"/><path d="M14.67,9.87 L20.53,4.00 L21.82,2.91 L23.27,2.07 L24.81,1.52 L26.40,1.33 L41.33,1.33 L44.20,1.40 L45.46,1.56 L46.67,1.87 L48.65,2.46 L50.53,3.40 L52.22,4.64 L53.60,6.13 L58.93,11.47 L58.51,11.16 L58.07,11.03 L57.20,11.20 L56.53,11.77 L56.27,12.53 L56.27,33.87 L55.87,34.67 L55.37,35.22 L54.67,35.47 L40.27,35.47 L39.47,35.27 L38.92,34.79 L38.67,33.87 L38.67,12.53 L38.64,11.83 L38.47,11.33 L37.99,11.03 L37.07,10.93 L36.00,10.93 L30.13,16.80 L25.33,21.60 L23.20,21.60 L13.07,11.47 L13.07,9.33 L14.67,9.33 L14.67,9.87 L14.67,9.87 Z" fill="#3e25d4" stroke="#1e1e1e" stroke-width="1" stroke-linejoin="round"/><path d="M1.33,54.13 L1.33,26.40 L1.52,24.81 L2.07,23.27 L2.91,21.82 L4.00,20.53 L9.87,14.67 L12.00,14.67 L22.13,24.80 L22.13,26.93 L15.73,33.33 L6.67,42.40 L5.25,44.01 L4.13,45.67 L3.22,47.43 L2.40,49.33 L2.13,51.73 L1.87,54.13 L1.33,54.13 L1.33,54.13 Z" fill="#605bfe" stroke="#1e1e1e" stroke-width="1" stroke-linejoin="round"/><path d="M9.87,81.33 L4.00,75.47 L2.91,74.17 L2.07,72.73 L1.52,71.19 L1.33,69.60 L1.33,54.67 L1.40,51.80 L1.56,50.54 L1.87,49.33 L2.46,47.35 L3.40,45.47 L4.64,43.78 L6.13,42.40 L11.47,37.07 L11.16,37.49 L11.03,37.93 L11.20,38.80 L11.77,39.47 L12.53,39.73 L33.87,39.73 L34.67,39.93 L35.22,40.41 L35.47,41.33 L35.47,55.73 L35.44,56.21 L35.27,56.73 L34.79,57.16 L33.87,57.33 L12.53,57.33 L11.83,57.43 L11.33,57.73 L11.03,58.23 L10.93,58.93 L10.93,60.00 L16.80,65.87 L21.60,70.67 L21.60,72.80 L11.47,82.93 L10.98,83.23 L10.40,83.33 L9.82,83.23 L9.33,82.93 L9.33,82.93 L9.33,81.33 L9.87,81.33 L9.87,81.33 Z" fill="#3e25d4" stroke="#1e1e1e" stroke-width="1" stroke-linejoin="round"/><path d="M54.13,94.67 L26.40,94.67 L24.81,94.47 L23.27,93.93 L21.82,93.09 L20.53,92.00 L14.67,86.13 L14.67,84.00 L24.80,73.87 L25.06,73.57 L25.67,73.47 L26.38,73.57 L26.93,73.87 L33.33,80.27 L42.40,89.33 L44.01,90.75 L45.67,91.87 L47.43,92.78 L49.33,93.60 L51.73,93.87 L54.13,94.13 L54.13,94.13 L54.13,94.67 L54.13,94.67 Z" fill="#605bfe" stroke="#1e1e1e" stroke-width="1" stroke-linejoin="round"/><path d="M81.33,86.13 L75.47,92.00 L74.17,93.09 L72.73,93.93 L71.19,94.47 L69.60,94.67 L54.67,94.67 L52.27,94.60 L51.07,94.44 L49.87,94.13 L47.88,93.54 L46.00,92.60 L44.32,91.36 L42.93,89.87 L37.60,84.53 L38.02,84.84 L38.47,84.97 L39.33,84.80 L40.00,84.23 L40.27,83.47 L40.27,62.13 L40.29,61.66 L40.47,61.13 L40.94,60.71 L41.87,60.53 L56.27,60.53 L56.74,60.63 L57.27,60.93 L57.69,61.43 L57.87,62.13 L57.87,83.47 L57.97,84.17 L58.27,84.67 L58.77,84.97 L59.47,85.07 L60.53,85.07 L66.40,79.20 L71.20,74.40 L71.68,74.10 L72.27,74.00 L72.85,74.10 L73.33,74.40 L83.47,84.53 L83.77,85.02 L83.87,85.60 L83.77,86.18 L83.47,86.67 L81.33,86.67 L81.33,86.13 Z" fill="#3e25d4" stroke="#1e1e1e" stroke-width="1" stroke-linejoin="round"/><path d="M94.67,41.87 L94.67,69.60 L94.47,71.19 L93.93,72.73 L93.09,74.18 L92.00,75.47 L86.13,81.33 L85.65,81.63 L85.07,81.73 L84.48,81.63 L84.00,81.33 L73.87,71.20 L73.57,70.72 L73.47,70.13 L73.57,69.55 L73.87,69.07 L80.27,62.67 L89.33,53.60 L90.75,51.99 L91.87,50.33 L92.78,48.58 L93.60,46.67 L93.87,44.27 L94.13,41.87 L94.67,41.87 Z" fill="#605bfe" stroke="#1e1e1e" stroke-width="1" stroke-linejoin="round"/><path d="M86.13,14.67 L92.00,20.53 L93.09,21.82 L93.93,23.27 L94.47,24.81 L94.67,26.40 L94.67,41.33 L94.60,43.73 L94.44,44.93 L94.13,46.13 L93.54,48.12 L92.60,50.00 L91.36,51.68 L89.87,53.07 L84.53,58.40 L84.84,57.98 L84.97,57.53 L84.80,56.67 L84.23,56.00 L83.47,55.73 L62.13,55.73 L61.66,55.63 L61.13,55.33 L60.71,54.83 L60.53,54.13 L60.53,39.73 L60.93,38.93 L61.43,38.38 L62.13,38.13 L83.47,38.13 L84.17,38.11 L84.67,37.93 L84.97,37.46 L85.07,36.53 L85.07,35.47 L79.20,29.60 L74.40,24.80 L74.10,24.54 L74.00,23.93 L74.10,23.23 L74.40,22.67 L84.53,12.53 L85.02,12.23 L85.60,12.13 L86.18,12.23 L86.67,12.53 L86.67,12.53 L86.67,14.67 L86.13,14.67 Z" fill="#3e25d4" stroke="#1e1e1e" stroke-width="1" stroke-linejoin="round"/></svg>