<svg xmlns="http://www.w3.org/2000/svg" viewBox="-0.71 5.41 97.31 85.16"><path d="M52.59,73.81 L51.50,73.27 L50.36,72.88 L47.99,72.57 L45.62,72.88 L44.47,73.27 L43.36,73.81 L18.13,88.37 L17.67,88.52 L17.21,88.48 L16.79,88.28 L16.48,87.95 L10.45,77.55 L10.31,77.09 L10.35,76.62 L10.54,76.20 L10.88,75.89 L22.93,68.96 L25.43,67.75 L28.09,66.84 L30.88,66.28 L33.76,66.08 L36.39,66.25 L38.99,66.77 L41.49,67.63 L43.84,68.80 L52.53,73.81 L52.59,73.81 Z" fill="#4938f0" stroke="#1e1e1e" stroke-width="1" stroke-linejoin="round"/><path d="M85.49,77.60 L79.47,88.00 L79.16,88.36 L78.74,88.55 L78.27,88.58 L77.81,88.43 L66.51,81.92 L52.53,73.87 L43.84,68.85 L41.45,67.68 L38.99,66.83 L36.39,66.30 L33.76,66.13 L62.19,66.13 L65.01,66.32 L67.78,66.87 L70.46,67.78 L73.01,69.01 L85.07,75.95 L85.43,76.26 L85.62,76.67 L85.64,77.14 L85.49,77.60 L85.49,77.60 Z" fill="#695ff0" stroke="#1e1e1e" stroke-width="1" stroke-linejoin="round"/><path d="M85.49,77.60 L79.47,88.00 L79.16,88.36 L78.74,88.55 L78.27,88.58 L77.81,88.43 L66.51,81.92 L52.53,73.87 L43.84,68.85 L41.45,67.68 L38.99,66.83 L36.39,66.30 L33.76,66.13 L62.19,66.13 L65.01,66.32 L67.78,66.87 L70.46,67.78 L73.01,69.01 L85.07,75.95 L85.43,76.26 L85.62,76.67 L85.64,77.14 L85.49,77.60 L85.49,77.60 Z" fill="#7274ff" stroke="#1e1e1e" stroke-width="1" stroke-linejoin="round"/><path d="M94.51,61.97 L88.48,72.37 L88.17,72.73 L87.75,72.93 L87.29,72.95 L86.83,72.80 L74.77,65.87 L72.41,64.28 L70.29,62.42 L68.44,60.31 L66.88,57.97 L65.71,55.59 L64.85,53.12 L64.33,50.53 L64.16,47.89 L64.16,37.81 L64.24,39.04 L64.48,40.22 L65.39,42.43 L66.84,44.31 L67.74,45.09 L68.75,45.76 L94.03,60.32 L94.39,60.63 L94.58,61.05 L94.60,61.51 L94.45,61.97 L94.51,61.97 Z" fill="#4938f0" stroke="#1e1e1e" stroke-width="1" stroke-linejoin="round"/><path d="M66.93,57.97 L52.69,33.33 L51.43,30.79 L50.53,28.12 L49.99,25.35 L49.81,22.51 L49.81,8.64 L49.91,8.18 L50.17,7.79 L50.56,7.52 L51.04,7.41 L63.04,7.41 L63.50,7.51 L63.89,7.77 L64.16,8.16 L64.27,8.64 L64.27,47.84 L64.43,50.47 L64.96,53.07 L65.81,55.57 L66.99,57.92 L66.93,57.97 Z" fill="#7274ff" stroke="#1e1e1e" stroke-width="1" stroke-linejoin="round"/><path d="M33.01,7.41 L45.01,7.41 L45.48,7.51 L45.87,7.77 L46.14,8.16 L46.24,8.64 L46.24,22.51 L46.05,25.33 L45.50,28.10 L44.60,30.78 L43.36,33.33 L41.88,35.54 L40.16,37.55 L38.17,39.31 L35.95,40.75 L27.25,45.76 L28.26,45.08 L29.16,44.28 L30.61,42.39 L31.52,40.19 L31.76,39.02 L31.84,37.81 L31.84,8.64 L31.93,8.19 L32.19,7.81 L32.58,7.56 L33.07,7.47 L33.07,7.47 L33.01,7.41 Z" fill="#4938f0" stroke="#1e1e1e" stroke-width="1" stroke-linejoin="round"/><path d="M43.31,33.33 L29.07,57.97 L27.48,60.34 L25.62,62.46 L23.51,64.31 L21.17,65.87 L9.12,72.80 L8.66,72.94 L8.19,72.91 L7.78,72.71 L7.47,72.37 L1.44,61.97 L1.29,61.51 L1.31,61.05 L1.51,60.63 L1.87,60.32 L35.84,40.69 L38.05,39.21 L40.05,37.49 L41.81,35.51 L43.25,33.28 L43.31,33.33 Z" fill="#7274ff" stroke="#1e1e1e" stroke-width="1" stroke-linejoin="round"/></svg>