<svg xmlns="http://www.w3.org/2000/svg" viewBox="5.35 -0.07 85.29 96.14"><path d="M7.35,4.60 L7.71,3.27 L8.68,2.29 L10.01,1.93 L11.34,2.28 L87.30,45.69 L88.28,46.66 L88.64,48.00 L88.28,49.34 L87.30,50.31 L11.34,93.72 L10.01,94.07 L8.68,93.71 L7.71,92.73 L7.35,91.40 L7.35,4.60 Z" fill="#3a90e5" stroke="#1e1e1e" stroke-width="1" stroke-linejoin="round"/><path d="M22.35,25.85 L22.35,70.15 L61.12,48.00 L22.35,25.85 Z" fill="#ffffff" stroke="#1e1e1e" stroke-width="1" stroke-linejoin="round"/><path d="M7.35,58.67 L7.35,37.33 L22.35,37.33 L22.35,58.67 L7.35,58.67 Z" fill="#76e8ff" stroke="#1e1e1e" stroke-width="1" stroke-linejoin="round"/><path d="M58.13,66.98 L39.91,77.39 L32.45,64.37 L50.68,53.95 L58.13,66.98 Z" fill="#76e8ff" stroke="#1e1e1e" stroke-width="1" stroke-linejoin="round"/><path d="M39.91,18.61 L58.13,29.02 L50.70,42.05 L32.47,31.63 L39.91,18.61 Z" fill="#76e8ff" stroke="#1e1e1e" stroke-width="1" stroke-linejoin="round"/></svg>