<svg xmlns="http://www.w3.org/2000/svg" viewBox="14.53 0.67 66.94 94.67"><path d="M57.92,87.95 L53.39,92.69 L52.68,93.17 L51.84,93.33 L44.16,93.33 L43.35,93.16 L42.67,92.69 L38.13,87.95 L37.65,87.21 L37.49,86.35 L37.49,75.20 L58.83,75.20 L58.83,86.35 L58.55,87.24 L57.92,87.95 Z" fill="#a3a3a3" stroke="#1e1e1e" stroke-width="1" stroke-linejoin="round"/><path d="M48.00,2.67 L43.22,2.99 L38.54,4.04 L34.08,5.80 L29.94,8.21 L26.22,11.24 L23.01,14.79 L20.38,18.80 L18.39,23.17 L17.10,27.78 L16.53,32.54 L16.69,37.33 L17.09,39.71 L17.71,41.94 L18.54,44.06 L19.53,46.10 L21.92,50.01 L24.63,53.88 L27.45,57.92 L30.13,62.32 L31.34,64.73 L32.43,67.30 L33.37,70.08 L34.13,73.07 L34.62,74.11 L35.52,74.84 L36.64,75.09 L59.36,75.09 L60.48,74.84 L61.38,74.11 L61.87,73.07 L62.63,70.08 L63.57,67.30 L64.66,64.73 L65.87,62.32 L68.55,57.92 L71.37,53.88 L74.08,50.01 L76.47,46.10 L77.46,44.06 L78.29,41.94 L78.91,39.71 L79.31,37.33 L79.47,32.54 L78.90,27.78 L77.61,23.17 L75.62,18.80 L72.99,14.79 L69.78,11.24 L66.06,8.21 L61.92,5.80 L57.46,4.04 L52.78,2.99 L48.00,2.67 L48.00,2.67 Z" fill="#50acf0" stroke="#1e1e1e" stroke-width="1" stroke-linejoin="round"/><path d="M71.09,13.76 L65.76,19.09 L65.36,19.21 L64.96,19.09 L58.08,16.80 L57.52,16.87 L57.12,17.28 L56.43,19.36 L56.48,19.93 L56.91,20.32 L64.00,22.93 L64.29,23.12 L64.48,23.41 L66.88,30.61 L67.27,31.04 L67.84,31.09 L69.92,30.40 L70.33,30.00 L70.40,29.44 L68.11,22.56 L67.99,22.16 L68.11,21.76 L73.44,16.43 L73.62,15.92 L73.44,15.41 L72.77,14.52 L72.05,13.65 L71.55,13.53 L71.09,13.76 Z" fill="#f2f2f2" stroke="#1e1e1e" stroke-width="1" stroke-linejoin="round"/><path d="M57.07,62.88 L56.75,62.24 L56.22,61.66 L55.48,61.43 L54.72,61.60 L50.29,64.00 L50.29,37.33 L56.43,34.29 L57.00,33.77 L57.24,33.03 L57.07,32.27 L56.75,31.63 L56.23,31.03 L55.49,30.77 L54.72,30.93 L50.29,33.17 L50.29,4.85 L50.61,3.70 L51.47,2.88 L48.00,2.67 L44.53,2.88 L45.39,3.70 L45.71,4.85 L45.71,33.23 L41.28,30.99 L40.51,30.83 L39.77,31.08 L39.25,31.68 L38.93,32.32 L38.76,33.08 L39.00,33.82 L39.57,34.35 L45.71,37.33 L45.71,64.00 L41.28,61.76 L40.52,61.59 L39.78,61.82 L39.25,62.40 L38.93,63.04 L38.76,63.80 L39.00,64.54 L39.57,65.07 L45.71,68.11 L45.71,73.44 L45.42,74.58 L44.59,75.41 L51.41,75.41 L50.58,74.58 L50.29,73.44 L50.29,68.11 L56.43,65.07 L57.07,64.51 L57.31,63.70 L57.07,62.88 Z" fill="#f2f2f2" stroke="#1e1e1e" stroke-width="1" stroke-linejoin="round"/><path d="M36.21,17.28 L30.45,19.20 L29.63,19.21 L28.91,18.83 L25.01,14.93 L24.31,14.49 L23.48,14.49 L22.77,14.93 L22.35,15.47 L21.99,16.45 L22.35,17.44 L26.29,21.33 L26.73,22.10 L26.67,22.99 L24.75,28.69 L24.69,29.48 L25.04,30.19 L25.71,30.61 L26.35,30.61 L27.12,30.66 L27.81,30.33 L28.27,29.71 L30.29,23.57 L30.66,22.98 L31.25,22.61 L37.33,20.80 L38.00,20.37 L38.35,19.67 L38.29,18.88 L38.29,18.24 L37.84,17.51 L37.06,17.15 L36.21,17.28 Z" fill="#e6e6e6" stroke="#e6e6e6" stroke-width="1" stroke-linejoin="round"/><path d="M67.04,46.08 L66.29,37.81 L62.61,38.19 L63.36,46.83 L56.91,52.64 L59.41,55.41 L65.87,49.60 L72.64,52.21 L74.77,49.01 L67.04,46.08 Z" fill="#f2f2f2" stroke="#1e1e1e" stroke-width="1" stroke-linejoin="round"/><path d="M37.97,51.63 L33.17,47.36 L32.77,46.78 L32.69,46.08 L33.23,39.68 L33.13,38.94 L32.68,38.34 L32.00,38.03 L31.20,38.03 L30.42,38.15 L29.81,38.66 L29.55,39.41 L29.01,45.17 L28.73,45.96 L28.05,46.45 L22.72,48.43 L22.00,48.96 L21.73,49.82 L22.03,50.67 L22.40,51.25 L23.21,51.85 L24.21,51.84 L29.01,49.97 L29.84,49.89 L30.56,50.29 L35.20,54.45 L35.87,54.87 L36.66,54.87 L37.33,54.45 L37.81,53.92 L38.34,53.24 L38.40,52.38 L37.97,51.63 Z" fill="#f2f2f2" stroke="#f2f2f2" stroke-width="1" stroke-linejoin="round"/><path d="M58.67,81.65 L37.33,86.03 L37.33,86.35 L37.49,87.21 L37.97,87.95 L37.97,87.95 L58.67,83.95 L58.67,81.65 Z" fill="#e6e6e6" stroke="#e6e6e6" stroke-width="1" stroke-linejoin="round"/><path d="M37.39,83.04 L58.56,78.67 L58.56,76.37 L37.39,80.75 L37.39,83.04 Z" fill="#e6e6e6" stroke="#e6e6e6" stroke-width="1" stroke-linejoin="round"/></svg>