<svg xmlns="http://www.w3.org/2000/svg" viewBox="15.50 0.82 70.65 100.00"><path d="M61.33,93.12 L56.53,98.15 L55.78,98.65 L54.89,98.82 L46.76,98.82 L45.90,98.64 L45.18,98.15 L40.38,93.12 L39.87,92.34 L39.70,91.43 L39.70,79.62 L62.29,79.62 L62.29,91.43 L61.99,92.38 L61.33,93.12 Z" fill="#a3a3a3" stroke="#1e1e1e" stroke-width="1" stroke-linejoin="round"/><path d="M50.82,2.82 L45.76,3.16 L40.81,4.28 L36.08,6.14 L31.70,8.70 L27.76,11.90 L24.36,15.67 L21.58,19.91 L19.47,24.53 L18.10,29.42 L17.50,34.46 L17.68,39.53 L18.09,42.04 L18.75,44.41 L19.63,46.65 L20.68,48.81 L23.21,52.95 L26.08,57.05 L29.06,61.32 L31.90,65.99 L33.18,68.54 L34.34,71.26 L35.34,74.20 L36.14,77.36 L36.66,78.47 L37.61,79.24 L38.80,79.51 L62.85,79.51 L64.04,79.24 L64.99,78.47 L65.51,77.36 L66.31,74.20 L67.31,71.26 L68.46,68.54 L69.75,65.99 L72.58,61.32 L75.56,57.05 L78.44,52.95 L80.97,48.81 L82.02,46.65 L82.89,44.41 L83.55,42.04 L83.97,39.53 L84.15,34.46 L83.54,29.42 L82.17,24.53 L80.07,19.91 L77.29,15.67 L73.89,11.90 L69.95,8.70 L65.56,6.14 L60.84,4.28 L55.89,3.16 L50.82,2.82 L50.82,2.82 Z" fill="#50acf0" stroke="#1e1e1e" stroke-width="1" stroke-linejoin="round"/><path d="M75.28,14.57 L69.63,20.22 L69.20,20.34 L68.78,20.22 L61.50,17.79 L60.90,17.86 L60.48,18.30 L59.75,20.50 L59.80,21.10 L60.25,21.52 L67.76,24.28 L68.07,24.48 L68.27,24.79 L70.81,32.41 L71.22,32.86 L71.83,32.92 L74.03,32.19 L74.47,31.77 L74.54,31.17 L72.11,23.89 L71.99,23.46 L72.11,23.04 L77.76,17.39 L77.95,16.86 L77.76,16.32 L77.05,15.37 L76.29,14.46 L75.76,14.33 L75.28,14.57 Z" fill="#f2f2f2" stroke="#1e1e1e" stroke-width="1" stroke-linejoin="round"/><path d="M60.42,66.58 L60.08,65.90 L59.53,65.29 L58.74,65.04 L57.94,65.22 L53.25,67.76 L53.25,39.53 L59.75,36.31 L60.36,35.76 L60.61,34.97 L60.42,34.16 L60.08,33.49 L59.54,32.85 L58.75,32.58 L57.94,32.75 L53.25,35.12 L53.25,5.14 L53.58,3.92 L54.49,3.05 L50.82,2.82 L47.15,3.05 L48.06,3.92 L48.40,5.14 L48.40,35.18 L43.71,32.81 L42.89,32.64 L42.10,32.91 L41.56,33.54 L41.22,34.22 L41.04,35.03 L41.29,35.81 L41.90,36.37 L48.40,39.53 L48.40,67.76 L43.71,65.39 L42.90,65.21 L42.12,65.46 L41.56,66.07 L41.22,66.75 L41.04,67.55 L41.29,68.34 L41.90,68.89 L48.40,72.11 L48.40,77.76 L48.09,78.97 L47.21,79.85 L54.44,79.85 L53.56,78.97 L53.25,77.76 L53.25,72.11 L59.75,68.89 L60.43,68.31 L60.68,67.44 L60.42,66.58 Z" fill="#f2f2f2" stroke="#1e1e1e" stroke-width="1" stroke-linejoin="round"/><path d="M38.34,18.30 L32.24,20.33 L31.38,20.34 L30.61,19.93 L26.48,15.81 L25.74,15.34 L24.86,15.34 L24.11,15.81 L23.66,16.38 L23.28,17.42 L23.66,18.47 L27.84,22.59 L28.30,23.40 L28.24,24.34 L26.20,30.38 L26.14,31.21 L26.52,31.96 L27.22,32.41 L27.90,32.41 L28.71,32.47 L29.45,32.12 L29.93,31.45 L32.08,24.96 L32.47,24.33 L33.09,23.94 L39.53,22.02 L40.23,21.57 L40.61,20.82 L40.55,19.99 L40.55,19.31 L40.07,18.54 L39.24,18.16 L38.34,18.30 Z" fill="#e6e6e6" stroke="#e6e6e6" stroke-width="1" stroke-linejoin="round"/><path d="M70.98,48.79 L70.19,40.04 L66.30,40.43 L67.09,49.58 L60.25,55.74 L62.91,58.67 L69.74,52.52 L76.91,55.28 L79.17,51.90 L70.98,48.79 Z" fill="#f2f2f2" stroke="#1e1e1e" stroke-width="1" stroke-linejoin="round"/><path d="M40.21,54.66 L35.12,50.15 L34.70,49.53 L34.62,48.79 L35.18,42.01 L35.08,41.23 L34.60,40.59 L33.88,40.26 L33.04,40.26 L32.21,40.40 L31.56,40.94 L31.28,41.73 L30.72,47.83 L30.42,48.66 L29.70,49.19 L24.06,51.28 L23.29,51.84 L23.01,52.75 L23.32,53.65 L23.72,54.27 L24.58,54.90 L25.64,54.89 L30.72,52.91 L31.59,52.83 L32.36,53.25 L37.27,57.66 L37.98,58.10 L38.82,58.10 L39.53,57.66 L40.04,57.09 L40.59,56.37 L40.66,55.46 L40.21,54.66 Z" fill="#f2f2f2" stroke="#1e1e1e" stroke-width="1" stroke-linejoin="round"/><path d="M62.12,86.46 L39.53,91.09 L39.53,91.43 L39.70,92.34 L40.21,93.12 L40.21,93.12 L62.12,88.88 L62.12,86.46 Z" fill="#e6e6e6" stroke="#e6e6e6" stroke-width="1" stroke-linejoin="round"/><path d="M39.59,87.92 L62.00,83.29 L62.00,80.87 L39.59,85.50 L39.59,87.92 Z" fill="#e6e6e6" stroke="#e6e6e6" stroke-width="1" stroke-linejoin="round"/></svg>