<svg xmlns="http://www.w3.org/2000/svg" viewBox="0.87 0.82 100.00 100.00"><path d="M50.85,2.82 L44.40,3.26 L38.07,4.56 L31.97,6.69 L26.22,9.62 L20.91,13.30 L16.14,17.66 L12.00,22.62 L8.56,28.09 L5.89,33.97 L4.03,40.16 L3.02,46.54 L2.87,53.00 L3.60,59.42 L5.18,65.69 L7.58,71.69 L10.77,77.31 L14.68,82.45 L19.25,87.01 L24.39,90.93 L30.01,94.12 L36.01,96.52 L42.27,98.10 L48.69,98.82 L55.15,98.68 L61.54,97.67 L67.72,95.81 L73.61,93.14 L79.08,89.70 L84.04,85.56 L88.40,80.79 L92.08,75.48 L95.01,69.72 L97.14,63.63 L98.44,57.30 L98.87,50.85 L98.46,44.58 L97.24,38.42 L95.22,32.47 L92.44,26.84 L88.95,21.61 L84.81,16.89 L80.08,12.75 L74.86,9.26 L69.23,6.48 L63.28,4.46 L57.12,3.24 L50.85,2.82 Z" fill="#6bb9f2" stroke="#1e1e1e" stroke-width="1" stroke-linejoin="round"/><ellipse cx="50.85" cy="50.85" rx="39.72" ry="39.72" fill="#ffffff" stroke="#1e1e1e" stroke-width="1"/><ellipse cx="42.09" cy="50.85" rx="4.35" ry="4.35" fill="#32bedd" stroke="#32bedd" stroke-width="1"/><path d="M29.72,38.42 L27.57,38.42 L26.75,38.64 L26.15,39.24 L25.93,40.06 L25.93,72.38 L26.19,73.65 L26.91,74.73 L27.99,75.45 L29.27,75.71 L60.74,75.71 L61.57,75.48 L62.17,74.86 L62.37,74.01 L62.37,71.87 L62.16,71.05 L61.56,70.45 L60.74,70.23 L32.49,70.23 L31.91,69.98 L31.70,69.38 L31.70,40.06 L31.43,39.13 L30.68,38.51 L29.72,38.42 Z" fill="#32bedd" stroke="#1e1e1e" stroke-width="1" stroke-linejoin="round"/><ellipse cx="59.61" cy="50.85" rx="4.35" ry="4.35" fill="#32bedd" stroke="#32bedd" stroke-width="1"/><path d="M70.17,25.99 L40.85,25.99 L40.01,26.22 L39.41,26.84 L39.21,27.68 L39.21,29.83 L39.43,30.65 L40.03,31.25 L40.85,31.47 L69.10,31.47 L69.70,31.72 L69.95,32.32 L69.95,61.64 L70.17,62.46 L70.77,63.06 L71.58,63.28 L73.73,63.28 L74.55,63.06 L75.15,62.46 L75.37,61.64 L75.37,29.32 L74.93,27.67 L73.74,26.45 L72.09,25.99 L70.17,25.99 Z" fill="#32bedd" stroke="#1e1e1e" stroke-width="1" stroke-linejoin="round"/></svg>