<svg xmlns="http://www.w3.org/2000/svg" viewBox="0.71 0.67 94.62 94.62"><path d="M48.00,2.67 L41.91,3.08 L35.94,4.30 L30.18,6.31 L24.75,9.08 L19.74,12.56 L15.23,16.67 L11.32,21.35 L8.08,26.52 L5.56,32.07 L3.80,37.91 L2.85,43.94 L2.71,50.03 L3.40,56.09 L4.89,62.01 L7.16,67.67 L10.17,72.97 L13.86,77.83 L18.17,82.14 L23.03,85.83 L28.33,88.84 L33.99,91.11 L39.91,92.60 L45.97,93.29 L52.06,93.15 L58.09,92.20 L63.93,90.44 L69.48,87.92 L74.65,84.68 L79.33,80.77 L83.44,76.26 L86.92,71.25 L89.69,65.82 L91.70,60.06 L92.92,54.09 L93.33,48.00 L92.95,42.08 L91.79,36.27 L89.88,30.65 L87.26,25.33 L83.97,20.40 L80.06,15.94 L75.60,12.03 L70.67,8.74 L65.35,6.12 L59.73,4.21 L53.92,3.05 L48.00,2.67 Z" fill="#6bb9f2" stroke="#1e1e1e" stroke-width="1" stroke-linejoin="round"/><ellipse cx="48.00" cy="48.00" rx="37.49" ry="37.49" fill="#ffffff" stroke="#1e1e1e" stroke-width="1"/><ellipse cx="39.73" cy="48.00" rx="4.11" ry="4.11" fill="#32bedd" stroke="#32bedd" stroke-width="1"/><path d="M28.05,36.27 L26.03,36.27 L25.25,36.47 L24.69,37.04 L24.48,37.81 L24.48,68.32 L24.72,69.52 L25.40,70.55 L26.42,71.23 L27.63,71.47 L57.33,71.47 L58.12,71.25 L58.69,70.66 L58.88,69.87 L58.88,67.84 L58.67,67.07 L58.11,66.50 L57.33,66.29 L30.67,66.29 L30.12,66.06 L29.92,65.49 L29.92,37.81 L29.67,36.93 L28.96,36.35 L28.05,36.27 Z" fill="#32bedd" stroke="#1e1e1e" stroke-width="1" stroke-linejoin="round"/><ellipse cx="56.27" cy="48.00" rx="4.11" ry="4.11" fill="#32bedd" stroke="#32bedd" stroke-width="1"/><path d="M66.24,24.53 L38.56,24.53 L37.77,24.75 L37.20,25.34 L37.01,26.13 L37.01,28.16 L37.22,28.93 L37.79,29.50 L38.56,29.71 L65.23,29.71 L65.79,29.94 L66.03,30.51 L66.03,58.19 L66.23,58.96 L66.80,59.53 L67.57,59.73 L69.60,59.73 L70.37,59.53 L70.94,58.96 L71.15,58.19 L71.15,27.68 L70.73,26.12 L69.60,24.97 L68.05,24.53 L66.24,24.53 Z" fill="#32bedd" stroke="#1e1e1e" stroke-width="1" stroke-linejoin="round"/></svg>