<svg xmlns="http://www.w3.org/2000/svg" viewBox="-2.00 -2.00 99.99 100.00"><path d="M88.64,24.22 L73.89,15.70 L73.36,15.56 L72.86,15.70 L72.48,16.06 L72.34,16.60 L72.34,20.98 L39.50,20.98 L39.50,29.25 L72.34,29.25 L72.34,33.63 L72.48,34.16 L72.85,34.52 L73.35,34.66 L73.89,34.53 L88.64,26.01 L89.02,25.62 L89.15,25.11 L89.02,24.61 L88.64,24.22 Z" fill="#7ec930" stroke="#1e1e1e" stroke-width="1" stroke-linejoin="round"/><path d="M23.97,51.28 L15.48,51.28 L15.48,26.57 L15.59,25.42 L15.92,24.35 L16.45,23.38 L17.14,22.53 L17.98,21.83 L18.95,21.30 L20.02,20.97 L21.17,20.85 L21.18,20.85 L50.43,20.85 L50.43,29.34 L23.98,29.34 L23.98,51.28 L23.97,51.28 Z" fill="#c0c0c0" stroke="#1e1e1e" stroke-width="1" stroke-linejoin="round"/><ellipse cx="50.42" cy="24.55" rx="13.90" ry="13.90" fill="#7ec930" stroke="#1e1e1e" stroke-width="1"/><path d="M50.42,76.80 L21.18,76.80 L20.03,76.68 L18.96,76.35 L17.99,75.82 L17.14,75.12 L16.45,74.28 L15.92,73.31 L15.59,72.23 L15.48,71.08 L15.48,71.07 L15.48,46.34 L23.97,46.34 L23.97,68.28 L50.42,68.28 L50.42,76.80 L50.42,76.80 Z" fill="#c0c0c0" stroke="#1e1e1e" stroke-width="1" stroke-linejoin="round"/><ellipse cx="50.42" cy="71.45" rx="13.90" ry="13.90" fill="#f8971e" stroke="#1e1e1e" stroke-width="1"/><path d="M26.71,64.51 L9.04,64.51 L8.06,64.23 L7.32,63.46 L6.91,62.32 L6.88,60.92 L10.00,36.74 L10.39,35.35 L11.09,34.21 L12.03,33.44 L13.08,33.16 L30.74,33.16 L31.73,33.44 L32.46,34.21 L32.88,35.35 L32.90,36.74 L29.79,60.92 L29.40,62.32 L28.70,63.46 L27.76,64.23 L26.71,64.51 Z" fill="#76e8ff" stroke="#1e1e1e" stroke-width="1" stroke-linejoin="round"/><path d="M1.93,16.74 L1.18,16.58 L0.57,16.17 L0.15,15.56 L0.00,14.81 L0.00,14.81 L0.00,1.93 L0.15,1.18 L0.57,0.56 L1.18,0.15 L1.93,0.00 L14.02,0.00 L14.77,0.15 L15.38,0.56 L15.79,1.18 L15.95,1.93 L15.79,2.67 L15.38,3.29 L14.77,3.70 L14.02,3.85 L3.86,3.85 L3.86,14.80 L3.71,15.55 L3.30,16.16 L2.69,16.58 L1.94,16.73 L1.93,16.73 L1.93,16.74 Z" fill="#76bc2d" stroke="#76bc2d" stroke-width="1" stroke-linejoin="round"/><path d="M95.99,14.81 L95.99,1.93 L95.84,1.18 L95.43,0.56 L94.82,0.15 L94.06,0.00 L81.98,0.00 L81.23,0.15 L80.61,0.56 L80.20,1.18 L80.05,1.93 L80.20,2.67 L80.61,3.29 L81.23,3.70 L81.98,3.85 L92.13,3.85 L92.13,14.80 L92.29,15.55 L92.70,16.16 L93.31,16.57 L94.06,16.72 L94.81,16.57 L95.43,16.16 L95.84,15.55 L95.99,14.80 L95.99,14.80 L95.99,14.81 Z" fill="#76bc2d" stroke="#76bc2d" stroke-width="1" stroke-linejoin="round"/><path d="M15.95,94.07 L15.79,93.32 L15.38,92.71 L14.77,92.30 L14.02,92.14 L3.86,92.14 L3.86,81.20 L3.71,80.45 L3.30,79.83 L2.68,79.42 L1.93,79.27 L1.18,79.42 L0.57,79.83 L0.15,80.45 L0.00,81.20 L0.00,94.07 L0.15,94.82 L0.57,95.43 L1.18,95.84 L1.93,95.99 L14.02,95.99 L14.77,95.84 L15.38,95.43 L15.79,94.82 L15.95,94.07 L15.95,94.07 Z" fill="#76bc2d" stroke="#76bc2d" stroke-width="1" stroke-linejoin="round"/><path d="M95.99,94.07 L95.99,81.20 L95.84,80.45 L95.43,79.83 L94.82,79.42 L94.06,79.27 L93.31,79.42 L92.70,79.83 L92.29,80.45 L92.13,81.20 L92.13,92.14 L81.98,92.14 L81.23,92.30 L80.61,92.71 L80.20,93.32 L80.05,94.07 L80.20,94.82 L80.61,95.44 L81.23,95.85 L81.98,96.00 L94.06,96.00 L94.81,95.85 L95.43,95.44 L95.84,94.83 L95.99,94.08 L95.99,94.07 Z" fill="#76bc2d" stroke="#76bc2d" stroke-width="1" stroke-linejoin="round"/></svg>