<svg xmlns="http://www.w3.org/2000/svg" viewBox="-2.00 -2.00 100.00 100.01"><path d="M1.93,16.74 L1.18,16.58 L0.57,16.17 L0.15,15.56 L0.00,14.81 L0.00,14.81 L0.00,1.93 L0.15,1.18 L0.57,0.56 L1.18,0.15 L1.93,0.00 L14.02,0.00 L14.77,0.15 L15.38,0.56 L15.80,1.18 L15.95,1.93 L15.80,2.67 L15.38,3.29 L14.77,3.70 L14.02,3.85 L3.86,3.85 L3.86,14.80 L3.71,15.55 L3.30,16.16 L2.69,16.58 L1.94,16.73 L1.93,16.73 L1.93,16.74 Z" fill="#76bc2d" stroke="#76bc2d" stroke-width="1" stroke-linejoin="round"/><path d="M96.00,14.81 L96.00,1.93 L95.85,1.18 L95.43,0.56 L94.82,0.15 L94.07,0.00 L81.98,0.00 L81.23,0.15 L80.62,0.56 L80.20,1.18 L80.05,1.93 L80.20,2.67 L80.62,3.29 L81.23,3.70 L81.98,3.85 L92.14,3.85 L92.14,14.80 L92.29,15.55 L92.70,16.16 L93.32,16.57 L94.07,16.73 L94.82,16.57 L95.43,16.16 L95.85,15.55 L96.00,14.80 L96.00,14.80 L96.00,14.81 Z" fill="#76bc2d" stroke="#76bc2d" stroke-width="1" stroke-linejoin="round"/><path d="M15.95,94.07 L15.80,93.33 L15.38,92.71 L14.77,92.30 L14.02,92.15 L3.86,92.15 L3.86,81.20 L3.71,80.45 L3.30,79.84 L2.68,79.43 L1.93,79.27 L1.18,79.43 L0.57,79.84 L0.15,80.45 L0.00,81.20 L0.00,94.08 L0.15,94.83 L0.57,95.44 L1.18,95.85 L1.93,96.00 L14.02,96.00 L14.77,95.85 L15.38,95.44 L15.80,94.82 L15.95,94.07 L15.95,94.07 Z" fill="#76bc2d" stroke="#76bc2d" stroke-width="1" stroke-linejoin="round"/><path d="M96.00,94.08 L96.00,81.20 L95.85,80.45 L95.43,79.84 L94.82,79.43 L94.07,79.27 L93.32,79.43 L92.71,79.84 L92.29,80.45 L92.14,81.20 L92.14,92.15 L81.98,92.15 L81.23,92.30 L80.62,92.71 L80.21,93.33 L80.05,94.08 L80.21,94.83 L80.62,95.44 L81.23,95.85 L81.98,96.01 L94.07,96.01 L94.82,95.85 L95.43,95.44 L95.85,94.83 L96.00,94.09 L96.00,94.08 Z" fill="#76bc2d" stroke="#76bc2d" stroke-width="1" stroke-linejoin="round"/><path d="M73.94,42.92 L73.66,46.69 L72.87,50.36 L71.63,53.91 L70.00,57.33 L68.05,60.60 L65.85,63.71 L63.46,66.65 L60.93,69.40 L58.35,71.96 L55.76,74.30 L50.86,78.30 L46.73,81.28 L43.90,83.15 L42.88,83.42 L41.85,83.15 L38.89,81.20 L34.67,78.15 L29.68,74.12 L27.07,71.76 L24.46,69.20 L21.91,66.45 L19.50,63.52 L17.28,60.43 L15.32,57.18 L13.68,53.79 L12.44,50.27 L11.64,46.64 L11.36,42.92 L11.36,18.06 L11.51,17.31 L11.90,16.70 L12.50,16.27 L13.24,16.09 L16.58,15.90 L19.42,15.55 L21.84,15.07 L23.89,14.47 L25.64,13.78 L27.14,13.03 L29.67,11.42 L31.97,9.84 L34.54,8.47 L36.08,7.93 L37.87,7.51 L39.99,7.25 L42.47,7.15 L44.96,7.25 L47.07,7.51 L48.86,7.93 L50.40,8.47 L52.95,9.84 L55.24,11.42 L57.75,13.03 L59.24,13.78 L60.98,14.47 L63.03,15.07 L65.44,15.55 L68.28,15.90 L71.62,16.09 L72.36,16.27 L72.95,16.70 L73.35,17.31 L73.50,18.06 L73.95,42.91 L73.94,42.92 Z" fill="#0078d4" stroke="#1e1e1e" stroke-width="1" stroke-linejoin="round"/><path d="M42.88,79.27 L38.45,76.23 L34.52,73.24 L31.05,70.32 L28.01,67.47 L25.39,64.71 L23.14,62.04 L21.24,59.48 L19.66,57.04 L18.38,54.72 L17.36,52.54 L15.99,48.63 L15.34,45.39 L15.18,42.92 L15.18,19.83 L18.65,19.52 L21.63,19.03 L24.17,18.39 L26.33,17.64 L28.18,16.80 L29.77,15.92 L32.44,14.14 L34.33,12.87 L36.36,11.86 L38.93,11.21 L42.47,10.97 L46.00,11.21 L48.57,11.86 L50.58,12.87 L52.45,14.13 L55.10,15.91 L56.69,16.80 L58.53,17.63 L60.69,18.39 L63.24,19.03 L66.22,19.52 L69.71,19.83 L70.12,42.98 L69.99,45.12 L69.42,48.19 L68.16,52.06 L67.20,54.26 L65.97,56.62 L64.45,59.12 L62.60,61.74 L60.39,64.47 L57.79,67.30 L54.77,70.21 L51.30,73.19 L47.34,76.21 L42.87,79.27 L42.88,79.27 Z" fill="#3990e4" stroke="#1e1e1e" stroke-width="1" stroke-linejoin="round"/><path d="M62.59,23.08 L62.78,23.11 L62.96,23.18 L63.12,23.30 L63.24,23.46 L63.31,23.64 L63.34,23.83 L63.34,26.02 L63.31,26.21 L63.24,26.39 L63.12,26.55 L62.96,26.67 L62.78,26.74 L62.59,26.77 L44.25,26.77 L44.05,26.74 L43.87,26.67 L43.71,26.55 L43.59,26.39 L43.52,26.21 L43.49,26.02 L43.49,23.83 L43.52,23.64 L43.59,23.46 L43.71,23.30 L43.87,23.18 L44.05,23.11 L44.25,23.08 L62.59,23.08 Z" fill="#ffffff" stroke="#ffffff" stroke-width="1" stroke-linejoin="round" opacity="0.7"/><path d="M62.59,30.62 L62.78,30.65 L62.96,30.72 L63.12,30.84 L63.24,31.00 L63.31,31.18 L63.34,31.38 L63.34,33.56 L63.31,33.75 L63.24,33.93 L63.12,34.09 L62.96,34.21 L62.78,34.28 L62.59,34.31 L44.25,34.31 L44.05,34.28 L43.87,34.21 L43.71,34.09 L43.59,33.93 L43.52,33.75 L43.49,33.56 L43.49,31.38 L43.52,31.18 L43.59,31.00 L43.71,30.84 L43.87,30.72 L44.05,30.65 L44.25,30.62 L62.59,30.62 Z" fill="#ffffff" stroke="#ffffff" stroke-width="1" stroke-linejoin="round" opacity="0.6"/><path d="M45.06,53.24 L45.25,53.27 L45.43,53.34 L45.59,53.46 L45.71,53.62 L45.78,53.80 L45.81,53.99 L45.81,56.18 L45.78,56.37 L45.71,56.55 L45.59,56.71 L45.43,56.83 L45.25,56.90 L45.06,56.93 L22.71,56.93 L22.51,56.90 L22.33,56.83 L22.18,56.71 L22.06,56.55 L21.98,56.37 L21.96,56.18 L21.96,53.99 L21.98,53.80 L22.06,53.62 L22.18,53.46 L22.33,53.34 L22.51,53.27 L22.71,53.24 L45.06,53.24 Z" fill="#ffffff" stroke="#ffffff" stroke-width="1" stroke-linejoin="round" opacity="0.3"/><path d="M62.59,45.71 L62.79,45.73 L62.97,45.81 L63.12,45.93 L63.24,46.08 L63.32,46.26 L63.34,46.46 L63.34,48.64 L63.32,48.83 L63.24,49.02 L63.12,49.17 L62.97,49.29 L62.79,49.37 L62.59,49.39 L22.71,49.39 L22.51,49.37 L22.33,49.29 L22.18,49.17 L22.06,49.02 L21.98,48.83 L21.96,48.64 L21.96,46.46 L21.98,46.26 L22.06,46.08 L22.18,45.93 L22.33,45.81 L22.51,45.73 L22.71,45.71 L62.59,45.71 Z" fill="#ffffff" stroke="#ffffff" stroke-width="1" stroke-linejoin="round" opacity="0.4"/><path d="M58.95,38.17 L59.14,38.19 L59.32,38.27 L59.48,38.38 L59.60,38.54 L59.67,38.72 L59.70,38.91 L59.70,41.10 L59.67,41.30 L59.60,41.48 L59.48,41.63 L59.32,41.75 L59.14,41.83 L58.95,41.85 L22.70,41.85 L22.51,41.83 L22.33,41.75 L22.18,41.63 L22.06,41.48 L21.98,41.30 L21.96,41.10 L21.96,38.91 L21.98,38.72 L22.06,38.54 L22.18,38.38 L22.33,38.27 L22.51,38.19 L22.70,38.17 L58.95,38.17 Z" fill="#ffffff" stroke="#ffffff" stroke-width="1" stroke-linejoin="round" opacity="0.5"/><path d="M22.59,23.08 L40.09,23.08 L40.54,23.24 L40.72,23.63 L40.72,33.77 L40.54,34.15 L40.09,34.31 L22.59,34.31 L22.14,34.15 L21.96,33.77 L21.96,23.63 L22.14,23.24 L22.59,23.08 Z" fill="#ffffff" stroke="#ffffff" stroke-width="1" stroke-linejoin="round" opacity="0.65"/><ellipse cx="66.39" cy="70.42" rx="18.36" ry="18.36" fill="#76bc2d" stroke="#1e1e1e" stroke-width="1"/><path d="M64.51,76.57 L62.83,78.25 L62.31,78.47 L61.79,78.25 L61.79,78.25 L55.09,71.55 L54.87,71.03 L55.09,70.51 L55.09,70.51 L56.26,69.34 L56.78,69.13 L57.30,69.34 L57.30,69.34 L64.51,76.56 L64.51,76.56 L64.51,76.57 Z" fill="#ffffff" stroke="#ffffff" stroke-width="1" stroke-linejoin="round"/><path d="M61.82,78.27 L60.13,76.59 L60.13,76.59 L75.54,61.18 L76.06,60.97 L76.58,61.18 L76.58,61.18 L77.74,62.35 L77.96,62.87 L77.74,63.39 L77.74,63.39 L62.86,78.28 L62.34,78.49 L61.82,78.28 L61.82,78.28 L61.82,78.27 Z" fill="#f0f0f0" stroke="#1e1e1e" stroke-width="1" stroke-linejoin="round"/></svg>