<svg xmlns="http://www.w3.org/2000/svg" viewBox="-2.00 -2.00 99.99 100.00"><path d="M1.93,16.74 L1.18,16.58 L0.57,16.17 L0.15,15.56 L0.00,14.81 L0.00,14.81 L0.00,1.93 L0.15,1.18 L0.57,0.56 L1.18,0.15 L1.93,0.00 L14.02,0.00 L14.77,0.15 L15.38,0.56 L15.79,1.18 L15.95,1.93 L15.79,2.67 L15.38,3.29 L14.77,3.70 L14.02,3.85 L3.86,3.85 L3.86,14.80 L3.71,15.55 L3.30,16.16 L2.69,16.58 L1.94,16.73 L1.93,16.73 L1.93,16.74 Z" fill="#76bc2d" stroke="#76bc2d" stroke-width="1" stroke-linejoin="round"/><path d="M95.99,14.81 L95.99,1.93 L95.84,1.18 L95.43,0.56 L94.82,0.15 L94.06,0.00 L81.98,0.00 L81.23,0.15 L80.61,0.56 L80.20,1.18 L80.05,1.93 L80.20,2.67 L80.61,3.29 L81.23,3.70 L81.98,3.85 L92.13,3.85 L92.13,14.80 L92.29,15.55 L92.70,16.16 L93.31,16.57 L94.06,16.72 L94.81,16.57 L95.43,16.16 L95.84,15.55 L95.99,14.80 L95.99,14.80 L95.99,14.81 Z" fill="#76bc2d" stroke="#76bc2d" stroke-width="1" stroke-linejoin="round"/><path d="M15.95,94.07 L15.79,93.32 L15.38,92.71 L14.77,92.30 L14.02,92.14 L3.86,92.14 L3.86,81.20 L3.71,80.45 L3.30,79.83 L2.68,79.42 L1.93,79.27 L1.18,79.42 L0.57,79.83 L0.15,80.45 L0.00,81.20 L0.00,94.07 L0.15,94.82 L0.57,95.43 L1.18,95.84 L1.93,95.99 L14.02,95.99 L14.77,95.84 L15.38,95.43 L15.79,94.82 L15.95,94.07 L15.95,94.07 Z" fill="#76bc2d" stroke="#76bc2d" stroke-width="1" stroke-linejoin="round"/><path d="M95.99,94.07 L95.99,81.20 L95.84,80.45 L95.43,79.83 L94.82,79.42 L94.06,79.27 L93.31,79.42 L92.70,79.83 L92.29,80.45 L92.13,81.20 L92.13,92.14 L81.98,92.14 L81.23,92.30 L80.61,92.71 L80.20,93.32 L80.05,94.07 L80.20,94.82 L80.61,95.44 L81.23,95.85 L81.98,96.00 L94.06,96.00 L94.81,95.85 L95.43,95.44 L95.84,94.83 L95.99,94.08 L95.99,94.07 Z" fill="#76bc2d" stroke="#76bc2d" stroke-width="1" stroke-linejoin="round"/><path d="M73.94,42.91 L73.66,46.69 L72.87,50.36 L71.62,53.91 L70.00,57.32 L68.05,60.59 L65.85,63.71 L63.45,66.65 L60.93,69.40 L58.34,71.96 L55.76,74.30 L50.86,78.29 L46.73,81.28 L43.90,83.15 L42.87,83.41 L41.84,83.15 L38.89,81.19 L34.67,78.14 L29.68,74.11 L27.07,71.76 L24.46,69.20 L21.91,66.45 L19.50,63.52 L17.28,60.42 L15.32,57.17 L13.68,53.78 L12.43,50.27 L11.64,46.64 L11.36,42.91 L11.36,18.06 L11.50,17.31 L11.90,16.70 L12.50,16.27 L13.24,16.09 L16.57,15.90 L19.42,15.55 L21.84,15.06 L23.89,14.47 L25.63,13.78 L27.14,13.02 L29.66,11.42 L31.96,9.84 L34.53,8.47 L36.08,7.93 L37.87,7.51 L39.98,7.25 L42.47,7.15 L44.96,7.25 L47.07,7.51 L48.86,7.93 L50.40,8.47 L52.95,9.84 L55.23,11.42 L57.74,13.03 L59.24,13.78 L60.98,14.47 L63.02,15.07 L65.44,15.55 L68.28,15.90 L71.62,16.09 L72.35,16.27 L72.95,16.70 L73.35,17.31 L73.49,18.06 L73.94,42.91 L73.94,42.91 Z" fill="#0078d4" stroke="#1e1e1e" stroke-width="1" stroke-linejoin="round"/><path d="M42.88,79.26 L38.45,76.22 L34.52,73.24 L31.05,70.32 L28.01,67.47 L25.39,64.71 L23.14,62.04 L21.24,59.48 L19.66,57.03 L18.38,54.71 L17.36,52.53 L15.99,48.63 L15.34,45.39 L15.18,42.91 L15.18,19.83 L18.65,19.52 L21.63,19.03 L24.17,18.39 L26.33,17.64 L28.18,16.80 L29.77,15.92 L32.44,14.14 L34.32,12.87 L36.35,11.86 L38.93,11.21 L42.47,10.97 L46.00,11.21 L48.56,11.86 L50.58,12.86 L52.45,14.13 L55.10,15.91 L56.69,16.80 L58.53,17.63 L60.69,18.39 L63.23,19.03 L66.22,19.52 L69.70,19.83 L70.12,42.98 L69.98,45.12 L69.41,48.18 L68.16,52.06 L67.20,54.26 L65.97,56.61 L64.45,59.11 L62.59,61.74 L60.39,64.47 L57.79,67.30 L54.77,70.21 L51.30,73.18 L47.34,76.21 L42.87,79.26 L42.88,79.26 Z" fill="#3990e4" stroke="#1e1e1e" stroke-width="1" stroke-linejoin="round"/><path d="M62.58,23.08 L62.78,23.11 L62.96,23.18 L63.11,23.30 L63.23,23.46 L63.31,23.64 L63.34,23.83 L63.34,26.01 L63.31,26.21 L63.23,26.39 L63.11,26.55 L62.96,26.67 L62.78,26.74 L62.58,26.77 L44.24,26.77 L44.05,26.74 L43.87,26.67 L43.71,26.55 L43.59,26.39 L43.52,26.21 L43.49,26.01 L43.49,23.83 L43.52,23.64 L43.59,23.46 L43.71,23.30 L43.87,23.18 L44.05,23.11 L44.24,23.08 L62.58,23.08 Z" fill="#ffffff" stroke="#ffffff" stroke-width="1" stroke-linejoin="round" opacity="0.7"/><path d="M62.58,30.62 L62.78,30.65 L62.96,30.72 L63.11,30.84 L63.23,31.00 L63.31,31.18 L63.34,31.37 L63.34,33.56 L63.31,33.75 L63.23,33.93 L63.11,34.09 L62.96,34.21 L62.78,34.28 L62.58,34.31 L44.24,34.31 L44.05,34.28 L43.87,34.21 L43.71,34.09 L43.59,33.93 L43.52,33.75 L43.49,33.56 L43.49,31.37 L43.52,31.18 L43.59,31.00 L43.71,30.84 L43.87,30.72 L44.05,30.65 L44.24,30.62 L62.58,30.62 Z" fill="#ffffff" stroke="#ffffff" stroke-width="1" stroke-linejoin="round" opacity="0.6"/><path d="M45.05,53.24 L45.25,53.27 L45.43,53.34 L45.59,53.46 L45.70,53.62 L45.78,53.80 L45.81,53.99 L45.81,56.17 L45.78,56.37 L45.70,56.55 L45.59,56.70 L45.43,56.82 L45.25,56.90 L45.05,56.92 L22.71,56.92 L22.51,56.90 L22.33,56.82 L22.18,56.70 L22.06,56.55 L21.98,56.37 L21.96,56.17 L21.96,53.99 L21.98,53.80 L22.06,53.62 L22.18,53.46 L22.33,53.34 L22.51,53.27 L22.71,53.24 L45.05,53.24 Z" fill="#ffffff" stroke="#ffffff" stroke-width="1" stroke-linejoin="round" opacity="0.3"/><path d="M62.59,45.70 L62.78,45.73 L62.96,45.80 L63.12,45.92 L63.24,46.08 L63.31,46.26 L63.34,46.46 L63.34,48.64 L63.31,48.83 L63.24,49.01 L63.12,49.17 L62.96,49.29 L62.78,49.36 L62.59,49.39 L22.71,49.39 L22.51,49.36 L22.33,49.29 L22.18,49.17 L22.06,49.01 L21.98,48.83 L21.96,48.64 L21.96,46.46 L21.98,46.26 L22.06,46.08 L22.18,45.92 L22.33,45.80 L22.51,45.73 L22.71,45.70 L62.59,45.70 Z" fill="#ffffff" stroke="#ffffff" stroke-width="1" stroke-linejoin="round" opacity="0.4"/><path d="M58.95,38.16 L59.14,38.19 L59.32,38.26 L59.47,38.38 L59.59,38.54 L59.67,38.72 L59.69,38.91 L59.69,41.10 L59.67,41.29 L59.59,41.48 L59.47,41.63 L59.32,41.75 L59.14,41.82 L58.95,41.85 L22.70,41.85 L22.51,41.82 L22.33,41.75 L22.17,41.63 L22.06,41.48 L21.98,41.29 L21.96,41.10 L21.96,38.91 L21.98,38.72 L22.06,38.54 L22.17,38.38 L22.33,38.26 L22.51,38.19 L22.70,38.16 L58.95,38.16 Z" fill="#ffffff" stroke="#ffffff" stroke-width="1" stroke-linejoin="round" opacity="0.5"/><path d="M22.59,23.08 L40.09,23.08 L40.53,23.24 L40.72,23.63 L40.72,33.76 L40.53,34.15 L40.09,34.31 L22.59,34.31 L22.14,34.15 L21.96,33.76 L21.96,23.63 L22.14,23.24 L22.59,23.08 Z" fill="#ffffff" stroke="#ffffff" stroke-width="1" stroke-linejoin="round" opacity="0.65"/><ellipse cx="66.39" cy="70.41" rx="18.36" ry="18.36" fill="#76bc2d" stroke="#1e1e1e" stroke-width="1"/><path d="M64.51,76.56 L62.82,78.25 L62.30,78.46 L61.78,78.25 L61.78,78.25 L55.08,71.55 L54.87,71.03 L55.08,70.51 L55.08,70.51 L56.25,69.34 L56.77,69.12 L57.29,69.34 L57.29,69.34 L64.51,76.56 L64.51,76.56 L64.51,76.56 Z" fill="#ffffff" stroke="#ffffff" stroke-width="1" stroke-linejoin="round"/><path d="M61.82,78.27 L60.13,76.58 L60.13,76.58 L75.53,61.18 L76.05,60.96 L76.57,61.18 L76.57,61.18 L77.74,62.35 L77.96,62.87 L77.74,63.39 L77.74,63.39 L62.86,78.27 L62.34,78.49 L61.82,78.27 L61.82,78.27 L61.82,78.27 Z" fill="#f0f0f0" stroke="#1e1e1e" stroke-width="1" stroke-linejoin="round"/></svg>