<svg xmlns="http://www.w3.org/2000/svg" viewBox="-2.00 4.64 100.00 92.69"><rect x="0.00" y="6.64" width="96.00" height="64.00" fill="#3a90e5" stroke="#1e1e1e" stroke-width="1"/><path d="M67.25,90.00 L65.58,89.66 L64.10,89.19 L62.82,88.61 L61.71,87.90 L60.76,87.07 L59.96,86.13 L59.30,85.07 L58.76,83.90 L58.01,81.22 L57.60,78.11 L57.44,74.58 L57.41,70.64 L38.59,70.64 L38.55,74.58 L38.38,78.11 L37.98,81.22 L37.23,83.90 L36.69,85.07 L36.03,86.13 L35.24,87.07 L34.29,87.90 L33.18,88.61 L31.90,89.19 L30.42,89.66 L28.75,90.00 L26.92,90.61 L25.42,91.81 L24.41,93.45 L24.02,95.33 L72.02,95.33 L71.61,93.45 L70.59,91.81 L69.08,90.61 L67.25,90.00 Z" fill="#a6a6a6" stroke="#1e1e1e" stroke-width="1" stroke-linejoin="round"/><path d="M28.55,61.36 L9.50,61.36 L8.70,61.15 L8.12,60.56 L7.90,59.76 L7.90,17.51 L8.12,16.71 L8.70,16.13 L9.50,15.91 L28.55,15.91 L29.35,16.13 L29.94,16.71 L30.15,17.51 L30.15,59.76 L29.94,60.56 L29.35,61.15 L28.55,61.36 L28.55,61.36 Z" fill="#ffffff" stroke="#1e1e1e" stroke-width="1" stroke-linejoin="round" opacity="0.3"/><path d="M59.13,59.76 L59.13,17.51 L58.91,16.71 L58.33,16.13 L57.53,15.91 L38.47,15.91 L37.67,16.13 L37.09,16.71 L36.87,17.51 L36.87,59.76 L37.09,60.56 L37.67,61.15 L38.47,61.36 L57.53,61.36 L58.33,61.15 L58.91,60.56 L59.13,59.76 Z" fill="#ffffff" stroke="#1e1e1e" stroke-width="1" stroke-linejoin="round" opacity="0.3"/><rect x="65.85" y="15.91" width="22.26" height="45.45" fill="#faa21d" stroke="#1e1e1e" stroke-width="1"/><path d="M78.93,45.33 L75.04,45.33 L74.42,45.11 L74.13,44.52 L73.71,26.78 L73.99,26.17 L74.62,25.94 L79.35,25.94 L79.99,26.17 L80.27,26.78 L79.85,44.52 L79.55,45.11 L78.93,45.33 L78.93,45.33 Z" fill="#ffffff" stroke="#ffffff" stroke-width="1" stroke-linejoin="round"/><path d="M76.99,47.53 L75.43,47.94 L74.29,49.08 L73.88,50.63 L74.29,52.19 L75.43,53.33 L76.99,53.74 L78.54,53.33 L79.68,52.19 L80.10,50.63 L79.67,49.08 L78.53,47.95 L76.97,47.55 L76.99,47.53 Z" fill="#ffffff" stroke="#ffffff" stroke-width="1" stroke-linejoin="round"/><path d="M55.31,34.13 L54.95,33.99 L54.60,34.13 L45.53,43.20 L42.08,39.75 L41.73,39.61 L41.37,39.75 L40.57,40.55 L40.42,40.91 L40.57,41.26 L45.16,45.85 L45.16,45.85 L45.51,45.99 L45.87,45.85 L56.11,35.62 L56.25,35.26 L56.11,34.91 L55.31,34.13 Z" fill="#ffffff" stroke="#ffffff" stroke-width="1" stroke-linejoin="round"/><path d="M25.97,34.13 L25.62,33.99 L25.26,34.13 L16.20,43.20 L12.80,39.71 L12.44,39.57 L12.09,39.71 L11.29,40.51 L11.15,40.86 L11.29,41.22 L15.87,45.80 L15.90,45.80 L16.25,45.95 L16.61,45.80 L26.78,35.62 L26.93,35.26 L26.78,34.91 L25.97,34.13 Z" fill="#ffffff" stroke="#ffffff" stroke-width="1" stroke-linejoin="round"/><path d="M86.49,62.40 L67.45,62.40 L66.15,62.05 L65.19,61.10 L64.84,59.80 L64.84,17.51 L65.19,16.21 L66.15,15.26 L67.45,14.91 L86.50,14.91 L87.80,15.26 L88.75,16.21 L89.10,17.51 L89.10,59.76 L88.75,61.06 L87.80,62.01 L86.50,62.36 L86.49,62.40 Z" fill="#ffffff" stroke="#ffffff" stroke-width="1" stroke-linejoin="round"/><path d="M67.45,16.91 L67.02,17.09 L66.84,17.51 L66.84,59.76 L67.02,60.18 L67.45,60.36 L86.50,60.36 L86.92,60.18 L87.10,59.76 L87.10,17.51 L86.92,17.09 L86.50,16.91 L67.45,16.91 Z" fill="#faa21d" stroke="#faa21d" stroke-width="1" stroke-linejoin="round"/></svg>