<svg xmlns="http://www.w3.org/2000/svg" viewBox="-2.08 -2.00 100.08 99.97"><path d="M47.20,0.00 L40.94,0.40 L34.78,1.64 L28.85,3.67 L23.24,6.48 L18.05,10.00 L13.37,14.19 L9.29,18.95 L5.87,24.22 L3.19,29.89 L1.28,35.87 L0.18,42.05 L-0.08,48.32 L0.48,54.57 L1.87,60.69 L4.06,66.57 L7.01,72.11 L10.67,77.21 L14.97,81.77 L19.84,85.73 L25.19,89.01 L30.93,91.54 L36.96,93.30 L43.16,94.24 L49.44,94.34 L55.67,93.62 L54.28,92.42 L50.21,88.29 L49.69,87.48 L49.52,86.53 L49.75,85.59 L52.44,79.88 L51.63,77.91 L46.60,76.27 L45.78,76.03 L44.89,75.54 L44.28,74.72 L44.06,73.73 L44.06,67.94 L44.26,66.98 L44.82,66.19 L45.66,65.69 L51.62,63.55 L52.44,61.59 L49.99,56.82 L49.60,56.04 L49.34,55.08 L49.50,54.09 L50.05,53.25 L54.12,49.22 L54.94,48.68 L55.91,48.52 L56.85,48.76 L62.58,51.54 L64.58,50.78 L66.18,45.98 L66.42,45.49 L66.76,45.06 L67.05,44.76 L67.83,44.24 L68.75,44.06 L74.46,44.06 L75.82,44.48 L76.70,45.58 L78.78,50.92 L80.69,51.45 L85.62,48.92 L86.40,48.53 L86.92,48.34 L87.47,48.28 L88.39,48.46 L89.17,48.98 L91.39,51.21 L93.21,53.05 L93.63,53.63 L93.87,54.30 L94.27,50.76 L94.40,47.21 L94.00,41.05 L92.79,34.99 L90.81,29.14 L88.08,23.61 L84.65,18.47 L80.58,13.83 L75.94,9.76 L70.80,6.33 L65.27,3.59 L59.42,1.61 L53.36,0.40 L47.20,0.00 L47.20,0.00 Z" fill="#0078d4" stroke="#1e1e1e" stroke-width="1" stroke-linejoin="round"/><path d="M50.21,88.29 L49.69,87.48 L49.52,86.53 L49.75,85.59 L52.44,79.88 L51.63,77.91 L46.60,76.27 L45.78,76.03 L44.89,75.54 L44.28,74.72 L44.06,73.73 L44.06,67.94 L44.26,66.98 L44.82,66.19 L45.66,65.69 L51.62,63.55 L52.44,61.59 L49.99,56.82 L49.60,56.04 L49.34,55.08 L49.50,54.09 L50.05,53.25 L54.12,49.22 L54.94,48.68 L55.91,48.52 L56.85,48.76 L62.58,51.54 L64.58,50.78 L66.18,45.98 L66.42,45.49 L66.76,45.06 L67.05,44.76 L67.83,44.24 L68.75,44.06 L74.46,44.06 L75.82,44.48 L76.70,45.58 L78.78,50.92 L80.69,51.45 L85.62,48.92 L86.40,48.53 L87.18,48.28 L88.00,48.37 L88.00,48.12 L87.59,42.31 L86.35,36.63 L84.32,31.17 L81.53,26.06 L78.04,21.40 L73.93,17.29 L69.27,13.80 L64.16,11.01 L58.71,8.97 L53.03,7.73 L47.22,7.32 L41.42,7.73 L35.73,8.97 L30.28,11.00 L25.17,13.79 L20.51,17.27 L16.39,21.39 L12.90,26.05 L10.11,31.15 L8.08,36.60 L6.84,42.29 L6.42,48.10 L6.83,53.90 L8.07,59.59 L10.10,65.04 L12.89,70.15 L16.38,74.81 L20.49,78.93 L25.15,82.42 L30.26,85.21 L35.71,87.24 L41.40,88.48 L47.20,88.90 L50.63,88.72 L50.21,88.29 Z" fill="#2f8ce2" stroke="#1e1e1e" stroke-width="1" stroke-linejoin="round"/><path d="M52.44,79.88 L51.63,77.91 L46.60,76.27 L45.78,76.03 L44.89,75.54 L44.28,74.72 L44.06,73.73 L44.06,67.94 L44.26,66.98 L44.82,66.19 L45.66,65.69 L51.62,63.55 L52.44,61.59 L49.99,56.82 L49.60,56.04 L49.34,55.08 L49.50,54.09 L50.05,53.25 L54.12,49.22 L54.94,48.68 L55.91,48.52 L56.85,48.76 L62.58,51.54 L64.58,50.78 L66.18,45.98 L66.42,45.49 L66.76,45.06 L67.05,44.76 L67.83,44.24 L68.75,44.06 L74.46,44.06 L75.82,44.48 L76.70,45.58 L78.78,50.92 L80.25,51.33 L80.45,46.16 L79.85,41.01 L78.45,36.02 L76.30,31.31 L73.44,26.99 L69.95,23.16 L65.90,19.93 L61.41,17.36 L56.56,15.51 L51.49,14.45 L46.32,14.18 L41.17,14.71 L36.16,16.04 L31.42,18.13 L27.06,20.94 L23.19,24.38 L19.90,28.38 L17.27,32.85 L15.37,37.66 L14.23,42.72 L13.90,47.89 L14.37,53.05 L15.63,58.07 L17.66,62.84 L20.41,67.23 L23.80,71.15 L27.76,74.49 L32.19,77.18 L36.98,79.14 L42.02,80.34 L47.18,80.75 L49.71,80.63 L52.23,80.32 L52.44,79.88 Z" fill="#5ea0ef" stroke="#1e1e1e" stroke-width="1" stroke-linejoin="round"/><path d="M44.06,67.94 L44.26,66.98 L44.82,66.19 L45.66,65.69 L51.62,63.55 L52.44,61.59 L49.99,56.82 L49.60,56.04 L49.34,55.08 L49.50,54.09 L50.05,53.25 L54.12,49.22 L54.94,48.68 L55.91,48.52 L56.85,48.76 L62.58,51.54 L64.58,50.78 L66.18,45.98 L66.42,45.49 L66.76,45.06 L67.05,44.76 L67.83,44.24 L68.75,44.06 L69.01,44.06 L67.93,39.97 L66.08,36.16 L63.55,32.77 L60.42,29.93 L56.80,27.73 L52.83,26.26 L48.66,25.58 L44.42,25.70 L40.30,26.63 L36.42,28.33 L32.94,30.73 L29.97,33.75 L27.64,37.28 L26.03,41.20 L25.19,45.34 L25.15,49.58 L25.92,53.74 L27.47,57.68 L29.74,61.25 L32.65,64.32 L36.09,66.78 L39.94,68.54 L44.05,69.54 L44.06,67.94 Z" fill="#005ba1" stroke="#1e1e1e" stroke-width="1" stroke-linejoin="round"/><ellipse cx="39.91" cy="39.50" rx="6.65" ry="6.65" fill="#83b9f9" stroke="#83b9f9" stroke-width="1"/><ellipse cx="47.20" cy="47.88" rx="2.95" ry="2.95" fill="#83b9f9" stroke="#83b9f9" stroke-width="1"/><path d="M96.00,73.45 L96.00,67.70 L95.69,67.41 L89.82,65.42 L88.30,61.46 L91.22,55.41 L91.53,54.73 L89.71,52.89 L87.47,50.67 L86.70,51.06 L80.94,54.01 L76.98,52.90 L74.47,46.45 L68.75,46.45 L68.46,46.75 L66.47,52.61 L62.45,54.12 L55.79,50.92 L51.73,54.93 L52.12,55.69 L55.07,61.44 L53.43,65.40 L46.50,67.91 L46.50,73.71 L47.32,73.95 L53.46,75.98 L55.11,79.94 L51.96,86.61 L56.03,90.74 L56.80,90.35 L62.56,87.40 L66.52,89.04 L69.05,95.97 L74.80,95.97 L75.04,95.15 L77.07,89.01 L80.99,87.36 L87.72,90.51 L91.79,86.44 L91.40,85.67 L88.45,79.91 L89.58,75.88 L96.00,73.45 Z" fill="#50e6ff" stroke="#50e6ff" stroke-width="1" stroke-linejoin="round"/><path d="M71.76,78.78 L69.26,78.40 L67.00,77.27 L65.20,75.49 L64.04,73.25 L63.63,70.75 L64.01,68.25 L65.15,65.99 L66.92,64.20 L69.17,63.03 L71.66,62.62 L74.16,63.00 L76.42,64.14 L78.22,65.92 L79.38,68.16 L79.79,70.66 L79.79,70.70 L79.40,73.19 L78.26,75.43 L76.48,77.22 L74.24,78.37 L71.76,78.78 L71.76,78.78 Z" fill="#ffffff" stroke="#ffffff" stroke-width="1" stroke-linejoin="round"/></svg>