<svg xmlns="http://www.w3.org/2000/svg" viewBox="-2.08 -2.00 100.00 99.89"><path d="M47.16,0.00 L40.90,0.40 L34.75,1.63 L28.82,3.67 L23.22,6.47 L18.03,10.00 L13.36,14.18 L9.28,18.94 L5.87,24.20 L3.19,29.87 L1.28,35.84 L0.18,42.01 L-0.08,48.28 L0.48,54.52 L1.87,60.63 L4.06,66.51 L7.00,72.04 L10.66,77.14 L14.96,81.70 L19.82,85.66 L25.17,88.93 L30.91,91.46 L36.93,93.22 L43.12,94.15 L49.39,94.26 L55.62,93.53 L54.23,92.34 L50.17,88.22 L49.64,87.41 L49.48,86.45 L49.71,85.51 L52.40,79.81 L51.58,77.84 L46.56,76.20 L45.74,75.96 L44.85,75.47 L44.24,74.66 L44.02,73.66 L44.02,67.88 L44.22,66.92 L44.78,66.13 L45.62,65.63 L51.58,63.50 L52.39,61.54 L49.95,56.77 L49.56,55.99 L49.30,55.03 L49.46,54.04 L50.00,53.20 L54.08,49.17 L54.89,48.64 L55.86,48.48 L56.80,48.72 L62.53,51.49 L64.52,50.74 L66.12,45.94 L66.36,45.45 L66.70,45.02 L66.99,44.72 L67.77,44.21 L68.69,44.03 L74.40,44.03 L75.75,44.44 L76.63,45.54 L78.71,50.87 L80.62,51.41 L85.55,48.88 L86.32,48.49 L86.84,48.30 L87.39,48.24 L88.31,48.42 L89.09,48.94 L91.31,51.17 L93.13,53.00 L93.55,53.58 L93.78,54.25 L94.18,50.72 L94.32,47.17 L93.92,41.01 L92.71,34.96 L90.73,29.12 L88.00,23.59 L84.58,18.46 L80.51,13.82 L75.87,9.75 L70.74,6.32 L65.21,3.59 L59.37,1.61 L53.32,0.40 L47.16,0.00 L47.16,0.00 Z" fill="#0078d4" stroke="#1e1e1e" stroke-width="1" stroke-linejoin="round"/><path d="M50.17,88.22 L49.64,87.41 L49.48,86.45 L49.71,85.51 L52.40,79.81 L51.58,77.84 L46.56,76.20 L45.74,75.96 L44.85,75.47 L44.24,74.66 L44.02,73.66 L44.02,67.88 L44.22,66.92 L44.78,66.13 L45.62,65.63 L51.58,63.50 L52.39,61.54 L49.95,56.77 L49.56,55.99 L49.30,55.03 L49.46,54.04 L50.00,53.20 L54.08,49.17 L54.89,48.64 L55.86,48.48 L56.80,48.72 L62.53,51.49 L64.52,50.74 L66.12,45.94 L66.36,45.45 L66.70,45.02 L66.99,44.72 L67.77,44.21 L68.69,44.03 L74.40,44.03 L75.75,44.44 L76.63,45.54 L78.71,50.87 L80.62,51.41 L85.55,48.88 L86.32,48.49 L87.11,48.24 L87.92,48.33 L87.92,48.08 L87.51,42.28 L86.28,36.59 L84.24,31.14 L81.46,26.04 L77.98,21.38 L73.87,17.27 L69.21,13.79 L64.11,11.00 L58.66,8.96 L52.98,7.73 L47.18,7.31 L41.38,7.72 L35.70,8.96 L30.25,10.99 L25.15,13.77 L20.49,17.26 L16.38,21.37 L12.89,26.02 L10.10,31.13 L8.07,36.57 L6.83,42.25 L6.42,48.05 L6.83,53.85 L8.06,59.54 L10.09,64.98 L12.88,70.09 L16.36,74.74 L20.47,78.86 L25.13,82.34 L30.23,85.13 L35.68,87.16 L41.36,88.40 L47.16,88.82 L50.59,88.64 L50.17,88.22 Z" fill="#2f8ce2" stroke="#1e1e1e" stroke-width="1" stroke-linejoin="round"/><path d="M52.40,79.81 L51.58,77.84 L46.56,76.20 L45.74,75.96 L44.85,75.47 L44.24,74.66 L44.02,73.66 L44.02,67.88 L44.22,66.92 L44.78,66.13 L45.62,65.63 L51.58,63.50 L52.39,61.54 L49.95,56.77 L49.56,55.99 L49.30,55.03 L49.46,54.04 L50.00,53.20 L54.08,49.17 L54.89,48.64 L55.86,48.48 L56.80,48.72 L62.53,51.49 L64.52,50.74 L66.12,45.94 L66.36,45.45 L66.70,45.02 L66.99,44.72 L67.77,44.21 L68.69,44.03 L74.40,44.03 L75.75,44.44 L76.63,45.54 L78.71,50.87 L80.18,51.29 L80.38,46.12 L79.78,40.98 L78.38,35.99 L76.23,31.28 L73.38,26.97 L69.89,23.14 L65.85,19.91 L61.35,17.34 L56.51,15.50 L51.45,14.43 L46.28,14.16 L41.13,14.70 L36.13,16.03 L31.39,18.12 L27.04,20.92 L23.17,24.36 L19.89,28.36 L17.26,32.82 L15.36,37.63 L14.22,42.68 L13.89,47.85 L14.36,53.00 L15.62,58.02 L17.65,62.78 L20.39,67.17 L23.78,71.09 L27.73,74.42 L32.16,77.11 L36.95,79.07 L41.98,80.27 L47.14,80.68 L49.67,80.56 L52.18,80.25 L52.40,79.81 Z" fill="#5ea0ef" stroke="#1e1e1e" stroke-width="1" stroke-linejoin="round"/><path d="M44.02,67.88 L44.22,66.92 L44.78,66.13 L45.62,65.63 L51.58,63.50 L52.39,61.54 L49.95,56.77 L49.56,55.99 L49.30,55.03 L49.46,54.04 L50.00,53.20 L54.08,49.17 L54.89,48.64 L55.86,48.48 L56.80,48.72 L62.53,51.49 L64.52,50.74 L66.12,45.94 L66.36,45.45 L66.70,45.02 L66.99,44.72 L67.77,44.21 L68.69,44.03 L68.95,44.03 L67.87,39.94 L66.03,36.13 L63.50,32.74 L60.37,29.90 L56.75,27.71 L52.79,26.24 L48.61,25.56 L44.39,25.68 L40.26,26.61 L36.39,28.30 L32.91,30.70 L29.95,33.72 L27.62,37.25 L26.00,41.16 L25.16,45.30 L25.13,49.53 L25.90,53.69 L27.45,57.63 L29.72,61.19 L32.62,64.26 L36.06,66.72 L39.91,68.48 L44.01,69.48 L44.02,67.88 Z" fill="#005ba1" stroke="#1e1e1e" stroke-width="1" stroke-linejoin="round"/><ellipse cx="39.88" cy="39.46" rx="6.64" ry="6.64" fill="#83b9f9" stroke="#83b9f9" stroke-width="1"/><ellipse cx="47.16" cy="47.84" rx="2.95" ry="2.95" fill="#83b9f9" stroke="#83b9f9" stroke-width="1"/><path d="M95.92,73.39 L95.92,67.64 L95.61,67.35 L89.75,65.36 L88.23,61.40 L91.14,55.36 L91.45,54.68 L89.63,52.84 L87.39,50.62 L86.62,51.01 L80.87,53.96 L76.91,52.85 L74.40,46.41 L68.69,46.41 L68.40,46.71 L66.42,52.57 L62.39,54.08 L55.74,50.88 L51.69,54.89 L52.08,55.64 L55.02,61.39 L53.38,65.35 L46.46,67.86 L46.46,73.64 L47.28,73.88 L53.41,75.91 L55.06,79.87 L51.92,86.54 L55.98,90.66 L56.75,90.27 L62.51,87.32 L66.46,88.96 L68.99,95.89 L74.73,95.89 L74.97,95.07 L77.00,88.93 L80.92,87.28 L87.64,90.43 L91.71,86.37 L91.32,85.59 L88.37,79.84 L89.51,75.82 L95.92,73.39 Z" fill="#50e6ff" stroke="#50e6ff" stroke-width="1" stroke-linejoin="round"/><path d="M71.70,78.72 L69.20,78.33 L66.94,77.20 L65.15,75.43 L63.99,73.18 L63.58,70.69 L63.96,68.19 L65.09,65.94 L66.87,64.14 L69.11,62.98 L71.60,62.57 L74.10,62.95 L76.36,64.08 L78.15,65.86 L79.31,68.10 L79.72,70.59 L79.72,70.64 L79.33,73.13 L78.19,75.37 L76.41,77.15 L74.18,78.30 L71.70,78.71 L71.70,78.72 Z" fill="#ffffff" stroke="#ffffff" stroke-width="1" stroke-linejoin="round"/></svg>