<svg xmlns="http://www.w3.org/2000/svg" viewBox="-1.87 -2.00 99.73 100.00"><path d="M82.18,51.73 L81.69,50.97 L80.97,50.26 L79.28,48.71 L78.52,47.77 L77.95,46.63 L77.67,45.24 L77.80,43.55 L78.86,38.21 L79.09,32.77 L78.47,27.36 L77.03,22.12 L74.54,18.07 L71.38,14.53 L67.65,11.58 L63.47,9.34 L58.95,7.86 L54.25,7.18 L48.33,6.92 L42.42,7.18 L37.71,7.86 L33.20,9.34 L29.02,11.59 L25.29,14.53 L22.13,18.07 L19.64,22.12 L18.19,27.36 L17.58,32.77 L17.81,38.21 L18.87,43.55 L19.00,45.24 L18.72,46.63 L18.15,47.77 L17.39,48.71 L15.70,50.26 L14.99,50.97 L14.50,51.73 L14.13,53.32 L14.17,55.26 L14.53,57.41 L15.11,59.68 L16.57,64.09 L17.81,67.57 L18.44,68.69 L19.37,69.42 L20.51,69.88 L21.76,70.19 L23.02,70.48 L24.19,70.88 L25.17,71.50 L25.87,72.47 L27.59,76.08 L29.46,79.38 L31.55,82.34 L33.90,84.90 L36.56,87.03 L39.58,88.69 L41.23,89.32 L43.00,89.82 L44.88,90.18 L46.87,90.39 L47.39,90.45 L47.90,90.47 L48.34,90.47 L48.76,90.47 L49.28,90.45 L49.79,90.39 L51.79,90.18 L53.67,89.82 L55.44,89.32 L57.09,88.69 L60.11,87.03 L62.77,84.90 L65.12,82.34 L67.21,79.38 L69.08,76.08 L70.80,72.47 L71.50,71.50 L72.48,70.88 L73.65,70.48 L74.91,70.19 L76.16,69.88 L77.30,69.42 L78.24,68.69 L78.86,67.57 L80.10,64.09 L81.55,59.67 L82.12,57.40 L82.48,55.25 L82.53,53.32 L82.18,51.73 Z" fill="#3d92e5" stroke="#1e1e1e" stroke-width="1" stroke-linejoin="round"/><path d="M3.20,26.18 L1.67,25.77 L0.54,24.65 L0.13,23.11 L0.13,3.06 L0.54,1.53 L1.67,0.41 L3.20,0.00 L21.97,0.00 L23.45,0.45 L24.52,1.57 L24.91,3.06 L24.52,4.56 L23.45,5.68 L21.97,6.13 L6.27,6.13 L6.27,23.11 L5.86,24.65 L4.74,25.77 L3.20,26.18 L3.20,26.18 Z" fill="#50e6ff" stroke="#1e1e1e" stroke-width="1" stroke-linejoin="round"/><path d="M92.80,26.18 L91.27,25.77 L90.15,24.65 L89.74,23.11 L89.74,6.13 L74.02,6.13 L72.54,5.68 L71.47,4.56 L71.08,3.06 L71.47,1.57 L72.54,0.45 L74.02,-0.00 L92.80,0.00 L94.33,0.41 L95.46,1.53 L95.87,3.06 L95.87,23.11 L95.46,24.65 L94.33,25.77 L92.80,26.18 L92.80,26.18 Z" fill="#50e6ff" stroke="#1e1e1e" stroke-width="1" stroke-linejoin="round"/><path d="M21.98,96.00 L3.20,96.00 L1.67,95.59 L0.54,94.47 L0.13,92.94 L0.13,72.89 L0.59,71.41 L1.70,70.34 L3.20,69.95 L4.69,70.34 L5.81,71.41 L6.26,72.89 L6.26,89.87 L21.98,89.87 L23.46,90.32 L24.53,91.44 L24.92,92.94 L24.53,94.43 L23.46,95.55 L21.98,96.00 Z" fill="#50e6ff" stroke="#1e1e1e" stroke-width="1" stroke-linejoin="round"/><path d="M92.80,96.00 L74.03,96.00 L72.55,95.55 L71.48,94.43 L71.09,92.94 L71.48,91.44 L72.55,90.32 L74.03,89.87 L89.74,89.87 L89.74,72.89 L90.19,71.41 L91.31,70.34 L92.80,69.95 L94.30,70.34 L95.41,71.41 L95.87,72.89 L95.87,92.94 L95.46,94.47 L94.33,95.59 L92.80,96.00 L92.80,96.00 Z" fill="#50e6ff" stroke="#1e1e1e" stroke-width="1" stroke-linejoin="round"/></svg>