<svg xmlns="http://www.w3.org/2000/svg" viewBox="1.28 -2.00 93.45 100.00"><path d="M47.06,0.70 L6.99,0.70 L5.78,0.95 L4.76,1.63 L4.07,2.66 L3.83,3.87 L3.83,90.27 L4.07,91.48 L4.76,92.51 L5.78,93.20 L6.99,93.44 L76.44,93.44 L77.65,93.20 L78.67,92.51 L79.36,91.48 L79.60,90.27 L79.60,33.09 L79.36,31.88 L78.67,30.86 L77.65,30.17 L76.44,29.93 L53.39,29.93 L52.18,29.68 L51.15,29.00 L50.46,27.97 L50.22,26.76 L50.22,3.87 L49.98,2.66 L49.30,1.63 L48.27,0.95 L47.06,0.70 L47.06,0.70 Z" fill="#83b9f9" stroke="#1e1e1e" stroke-width="1" stroke-linejoin="round"/><path d="M47.13,0.00 L6.48,0.00 L5.26,0.24 L4.22,0.94 L3.52,1.98 L3.28,3.20 L3.28,90.93 L3.52,92.16 L4.22,93.20 L5.26,93.89 L6.48,94.13 L76.95,94.13 L78.17,93.89 L79.21,93.20 L79.91,92.16 L80.15,90.93 L80.15,32.88 L79.91,31.66 L79.21,30.62 L78.17,29.92 L76.95,29.68 L53.55,29.68 L52.33,29.44 L51.29,28.74 L50.60,27.70 L50.35,26.48 L50.35,3.20 L50.11,1.98 L49.41,0.94 L48.38,0.24 L47.15,0.00 L47.13,0.00 Z" fill="#3a90e5" stroke="#1e1e1e" stroke-width="1" stroke-linejoin="round"/><path d="M45.60,4.75 L45.60,26.45 L45.99,28.91 L47.12,31.13 L48.88,32.89 L51.09,34.02 L53.55,34.42 L75.42,34.42 L75.42,89.40 L8.00,89.40 L8.00,4.75 L45.60,4.75 Z" fill="#83b9f9" stroke="#1e1e1e" stroke-width="1" stroke-linejoin="round"/><path d="M78.93,30.31 L49.24,0.70 L49.24,24.83 L49.64,26.91 L50.81,28.69 L52.57,29.88 L54.65,30.31 L78.93,30.31 Z" fill="#0078d4" stroke="#1e1e1e" stroke-width="1" stroke-linejoin="round"/><path d="M63.10,44.42 L63.89,44.52 L64.62,44.83 L65.24,45.31 L65.72,45.93 L66.02,46.66 L66.13,47.45 L66.13,48.65 L66.02,49.43 L65.72,50.16 L65.24,50.79 L64.62,51.27 L63.89,51.57 L63.10,51.67 L17.35,51.67 L16.57,51.57 L15.84,51.27 L15.21,50.79 L14.73,50.16 L14.43,49.43 L14.33,48.65 L14.33,47.45 L14.43,46.66 L14.73,45.93 L15.21,45.31 L15.84,44.83 L16.57,44.52 L17.35,44.42 L63.10,44.42 Z" fill="#ffffff" stroke="#ffffff" stroke-width="1" stroke-linejoin="round"/><path d="M63.10,59.11 L63.89,59.21 L64.62,59.51 L65.24,60.00 L65.72,60.62 L66.02,61.35 L66.13,62.13 L66.13,63.34 L66.02,64.12 L65.72,64.85 L65.24,65.48 L64.62,65.96 L63.89,66.26 L63.10,66.36 L17.35,66.36 L16.57,66.26 L15.84,65.96 L15.21,65.48 L14.73,64.85 L14.43,64.12 L14.33,63.34 L14.33,62.13 L14.43,61.35 L14.73,60.62 L15.21,60.00 L15.84,59.51 L16.57,59.21 L17.35,59.11 L63.10,59.11 Z" fill="#ffffff" stroke="#ffffff" stroke-width="1" stroke-linejoin="round" opacity="0.8"/><path d="M63.10,73.80 L63.89,73.91 L64.62,74.21 L65.24,74.69 L65.72,75.31 L66.02,76.04 L66.13,76.83 L66.13,78.03 L66.02,78.81 L65.72,79.54 L65.24,80.17 L64.62,80.65 L63.89,80.95 L63.10,81.06 L17.35,81.06 L16.57,80.95 L15.84,80.65 L15.21,80.17 L14.73,79.54 L14.43,78.81 L14.33,78.03 L14.33,76.83 L14.43,76.04 L14.73,75.31 L15.21,74.69 L15.84,74.21 L16.57,73.91 L17.35,73.80 L63.10,73.80 Z" fill="#ffffff" stroke="#ffffff" stroke-width="1" stroke-linejoin="round" opacity="0.6"/><path d="M67.79,94.86 L65.73,94.76 L63.73,94.47 L61.78,93.98 L59.89,93.30 L58.05,92.43 L56.28,91.38 L54.58,90.14 L52.95,88.73 L51.38,87.14 L49.90,85.38 L48.50,83.46 L47.18,81.36 L44.80,76.69 L42.80,71.40 L37.83,59.88 L32.28,48.63 L68.64,48.97 L70.72,49.12 L72.73,49.57 L74.67,50.28 L76.52,51.25 L78.27,52.44 L79.92,53.84 L81.45,55.41 L82.86,57.15 L84.14,59.02 L85.28,61.00 L86.27,63.08 L87.09,65.22 L87.75,67.41 L88.24,69.62 L88.53,71.84 L88.63,74.03 L88.23,78.10 L87.04,82.00 L85.11,85.60 L82.51,88.76 L79.36,91.35 L75.76,93.27 L71.85,94.46 L67.79,94.86 L67.79,94.86 Z" fill="#50e6ff" stroke="#1e1e1e" stroke-width="1" stroke-linejoin="round"/><path d="M30.40,47.47 L35.29,57.23 L39.08,65.28 L40.64,68.88 L41.71,71.73 L43.68,76.95 L46.06,81.65 L47.39,83.80 L48.82,85.80 L50.34,87.64 L51.95,89.31 L53.65,90.82 L55.44,92.15 L57.30,93.30 L59.25,94.25 L61.27,95.01 L63.37,95.55 L65.54,95.89 L67.79,96.00 L72.08,95.58 L76.20,94.33 L80.00,92.29 L83.34,89.56 L86.07,86.23 L88.10,82.43 L89.35,78.30 L89.78,74.01 L89.67,71.72 L89.37,69.40 L88.87,67.08 L88.18,64.80 L87.32,62.56 L86.29,60.39 L85.10,58.32 L83.76,56.36 L82.28,54.55 L80.67,52.91 L78.93,51.45 L77.07,50.21 L75.10,49.20 L73.04,48.45 L70.88,47.98 L68.64,47.82 L30.40,47.47 Z" fill="#50e6ff" stroke="#1e1e1e" stroke-width="1" stroke-linejoin="round"/><path d="M34.13,49.79 L68.63,50.10 L70.60,50.25 L72.50,50.68 L74.32,51.36 L76.06,52.28 L77.72,53.42 L79.27,54.75 L80.72,56.26 L82.05,57.91 L83.25,59.69 L84.33,61.59 L85.26,63.57 L86.04,65.61 L86.66,67.70 L87.12,69.81 L87.40,71.92 L87.49,74.01 L87.11,77.86 L85.99,81.56 L84.17,84.97 L81.71,87.96 L78.72,90.42 L75.31,92.24 L71.61,93.36 L67.76,93.74 L65.80,93.65 L63.90,93.36 L62.04,92.89 L60.23,92.23 L58.48,91.39 L56.79,90.37 L55.16,89.17 L53.60,87.81 L52.10,86.27 L50.68,84.57 L48.07,80.69 L45.78,76.17 L43.85,71.06 L39.27,60.29 L34.13,49.79 L34.13,49.79 Z" fill="#50e6ff" stroke="#1e1e1e" stroke-width="1" stroke-linejoin="round"/><ellipse cx="68.64" cy="71.91" rx="24.09" ry="24.09" fill="#ffffff" stroke="#1e1e1e" stroke-width="1"/><path d="M68.64,47.82 L64.30,48.22 L60.10,49.39 L56.18,51.30 L52.66,53.88 L49.68,57.06 L47.31,60.72 L45.64,64.75 L44.72,69.01 L44.59,73.37 L45.25,77.68 L46.67,81.80 L48.81,85.60 L51.61,88.95 L54.95,91.74 L58.75,93.88 L62.87,95.31 L67.19,95.96 L71.54,95.83 L75.81,94.91 L79.84,93.25 L83.50,90.88 L86.67,87.89 L89.26,84.38 L91.17,80.46 L92.34,76.26 L92.73,71.91 L92.37,67.73 L91.28,63.67 L89.50,59.87 L87.10,56.43 L84.13,53.46 L80.69,51.05 L76.88,49.28 L72.82,48.19 L68.64,47.82 L68.64,47.82 Z" fill="#50e6ff" stroke="#1e1e1e" stroke-width="1" stroke-linejoin="round"/><path d="M68.64,50.38 L72.84,50.79 L76.88,52.02 L80.61,54.01 L83.87,56.68 L86.55,59.95 L88.54,63.67 L89.77,67.71 L90.18,71.91 L89.77,76.11 L88.54,80.15 L86.55,83.88 L83.88,87.14 L80.61,89.82 L76.89,91.81 L72.85,93.04 L68.65,93.45 L64.45,93.04 L60.41,91.81 L56.68,89.82 L53.42,87.14 L50.74,83.88 L48.75,80.16 L47.52,76.12 L47.11,71.91 L47.53,67.72 L48.75,63.68 L50.74,59.96 L53.42,56.69 L56.68,54.02 L60.40,52.03 L64.44,50.80 L68.64,50.38 L68.64,50.38 Z" fill="#ffffff" stroke="#1e1e1e" stroke-width="1" stroke-linejoin="round"/><path d="M65.73,68.80 L57.95,68.80 L57.95,61.01 L65.73,61.01 L65.73,68.80 Z" fill="#50e6ff" stroke="#50e6ff" stroke-width="1" stroke-linejoin="round"/><path d="M79.33,61.02 L71.56,61.02 L71.56,68.80 L79.33,68.80 L79.33,61.02 Z" fill="#50e6ff" stroke="#50e6ff" stroke-width="1" stroke-linejoin="round"/><path d="M65.73,74.67 L57.95,74.67 L57.95,82.44 L65.73,82.44 L65.73,74.67 Z" fill="#50e6ff" stroke="#50e6ff" stroke-width="1" stroke-linejoin="round"/><path d="M79.33,74.67 L71.56,74.67 L71.56,82.44 L79.33,82.44 L79.33,74.67 Z" fill="#50e6ff" stroke="#50e6ff" stroke-width="1" stroke-linejoin="round"/></svg>