<svg xmlns="http://www.w3.org/2000/svg" viewBox="-0.68 -0.63 100.00 99.89"><path d="M60.99,97.26 L37.64,97.26 L34.67,96.98 L31.79,96.14 L29.08,94.72 L26.63,92.71 L5.92,72.00 L4.83,70.79 L3.89,69.52 L2.47,66.79 L1.64,63.91 L1.37,60.93 L1.46,59.09 L1.73,57.29 L2.18,55.52 L2.79,53.81 L4.39,50.79 L5.39,49.40 L6.52,48.11 L8.05,46.58 L7.19,47.87 L6.90,49.34 L7.19,50.79 L8.05,52.05 L47.73,91.73 L49.10,92.97 L50.58,94.06 L52.16,95.00 L53.81,95.78 L55.53,96.40 L57.32,96.84 L59.14,97.11 L60.99,97.21 L60.99,97.26 Z" fill="#6663fe" stroke="#1e1e1e" stroke-width="1" stroke-linejoin="round"/><path d="M97.26,60.93 L96.98,63.92 L96.14,66.82 L94.72,69.54 L93.79,70.81 L92.71,72.00 L72.00,92.71 L69.63,94.65 L66.95,96.08 L64.03,96.96 L60.99,97.26 L59.12,97.17 L57.29,96.90 L55.52,96.45 L53.81,95.84 L52.16,95.06 L50.58,94.12 L49.10,93.02 L47.73,91.78 L46.58,90.63 L47.87,91.49 L49.34,91.78 L50.79,91.49 L52.05,90.63 L91.73,50.96 L92.97,49.58 L94.07,48.10 L95.02,46.52 L95.81,44.86 L96.43,43.12 L96.89,41.33 L97.17,39.50 L97.26,37.64 L97.26,60.93 L97.26,60.93 Z" fill="#6663fe" stroke="#1e1e1e" stroke-width="1" stroke-linejoin="round"/><path d="M97.26,37.64 L97.17,39.50 L96.90,41.33 L96.45,43.11 L95.83,44.84 L95.04,46.50 L94.09,48.08 L92.99,49.57 L91.73,50.96 L90.58,52.11 L91.44,50.81 L91.73,49.35 L91.44,47.89 L90.58,46.63 L50.96,6.90 L49.58,5.66 L48.10,4.57 L46.53,3.63 L44.88,2.85 L43.15,2.23 L41.37,1.79 L39.54,1.52 L37.70,1.42 L61.04,1.42 L64.09,1.73 L67.00,2.61 L69.69,4.04 L72.05,5.97 L92.77,26.63 L94.70,29.00 L96.13,31.68 L97.01,34.60 L97.32,37.64 L97.26,37.64 Z" fill="#6663fe" stroke="#1e1e1e" stroke-width="1" stroke-linejoin="round"/><path d="M51.95,7.89 L50.67,7.13 L49.24,6.90 L47.82,7.21 L46.58,8.05 L8.00,46.58 L6.47,48.11 L4.34,50.82 L2.74,53.81 L2.12,55.52 L1.68,57.29 L1.41,59.09 L1.32,60.93 L1.32,37.64 L1.62,34.60 L2.50,31.68 L3.93,29.00 L5.86,26.63 L26.58,5.92 L29.03,3.91 L31.73,2.49 L34.61,1.65 L37.59,1.37 L39.46,1.46 L41.28,1.73 L43.05,2.18 L44.77,2.79 L46.42,3.57 L47.99,4.51 L49.48,5.61 L50.85,6.85 L51.84,7.84 L51.95,7.89 Z" fill="#6663fe" stroke="#1e1e1e" stroke-width="1" stroke-linejoin="round"/><path d="M71.34,36.05 L71.34,59.89 L71.25,58.04 L70.98,56.22 L70.53,54.43 L69.92,52.71 L69.14,51.06 L68.20,49.49 L67.11,48.00 L65.86,46.63 L52.11,32.88 L50.81,32.01 L49.34,31.73 L47.87,32.01 L46.58,32.88 L32.82,46.63 L31.96,47.93 L31.67,49.39 L31.96,50.85 L32.82,52.11 L31.58,50.74 L30.49,49.25 L29.55,47.68 L28.77,46.03 L28.15,44.30 L27.71,42.52 L27.43,40.70 L27.34,38.85 L27.34,36.11 L27.49,34.57 L27.94,33.12 L28.66,31.77 L29.64,30.58 L30.58,29.64 L31.77,28.66 L33.12,27.94 L34.57,27.49 L36.11,27.34 L62.68,27.34 L64.77,27.62 L66.68,28.44 L68.16,29.59 L69.10,30.52 L70.08,31.72 L70.80,33.06 L71.25,34.52 L71.40,36.05 L71.34,36.05 Z" fill="#6663fe" stroke="#1e1e1e" stroke-width="1" stroke-linejoin="round"/><path d="M71.34,59.89 L71.34,62.63 L71.19,64.17 L70.75,65.62 L70.02,66.97 L69.04,68.16 L68.11,69.10 L66.63,70.25 L66.30,70.41 L65.59,70.74 L64.13,71.18 L62.63,71.34 L36.05,71.34 L34.52,71.19 L33.06,70.75 L31.72,70.02 L30.52,69.04 L29.59,68.11 L28.61,66.91 L27.88,65.57 L27.44,64.11 L27.29,62.58 L27.29,38.74 L27.38,40.59 L27.65,42.41 L28.10,44.20 L28.71,45.92 L29.49,47.57 L30.43,49.14 L31.52,50.63 L32.77,52.00 L41.64,60.88 L46.58,65.81 L47.87,66.67 L49.34,66.96 L50.81,66.67 L52.11,65.81 L65.86,52.05 L66.73,50.76 L67.01,49.29 L66.73,47.84 L65.86,46.58 L67.11,47.95 L68.20,49.43 L69.14,51.01 L69.92,52.66 L70.53,54.38 L70.98,56.16 L71.25,57.99 L71.34,59.84 L71.34,59.89 Z" fill="#6663fe" stroke="#1e1e1e" stroke-width="1" stroke-linejoin="round"/></svg>