<svg xmlns="http://www.w3.org/2000/svg" viewBox="-1.36 -1.36 98.61 98.67"><path d="M67.79,0.64 L28.21,0.64 L25.40,0.78 L22.66,1.20 L20.02,1.88 L17.49,2.81 L15.08,3.97 L12.81,5.36 L10.69,6.95 L8.73,8.73 L6.95,10.69 L5.36,12.81 L3.97,15.08 L2.81,17.49 L1.88,20.02 L1.20,22.66 L0.78,25.40 L0.64,28.21 L0.64,67.79 L0.78,70.60 L1.20,73.33 L1.88,75.97 L2.80,78.50 L3.96,80.90 L5.34,83.17 L6.92,85.29 L8.70,87.25 L10.65,89.02 L12.77,90.61 L15.04,91.99 L17.45,93.14 L19.98,94.07 L22.61,94.75 L25.35,95.16 L28.16,95.31 L67.73,95.31 L70.55,95.16 L73.28,94.75 L75.92,94.07 L78.45,93.14 L80.85,91.99 L83.12,90.61 L85.24,89.02 L87.19,87.25 L88.97,85.29 L90.55,83.17 L91.93,80.90 L93.09,78.50 L94.02,75.97 L94.69,73.33 L95.11,70.60 L95.25,67.79 L95.25,28.21 L95.13,25.40 L94.73,22.66 L94.06,20.02 L93.14,17.49 L91.99,15.08 L90.62,12.81 L89.04,10.69 L87.26,8.73 L85.31,6.95 L83.19,5.36 L80.91,3.97 L78.51,2.81 L75.97,1.88 L73.34,1.20 L70.60,0.78 L67.79,0.64 Z" fill="#695ff0" stroke="#1e1e1e" stroke-width="1" stroke-linejoin="round"/><path d="M73.81,34.77 L67.95,34.77 L66.88,34.88 L64.37,27.20 L63.53,24.97 L62.27,22.65 L61.47,21.63 L60.56,20.79 L59.54,20.21 L58.40,19.95 L58.40,19.95 L46.93,19.89 L45.45,20.10 L44.09,20.68 L42.84,21.58 L41.68,22.75 L40.61,24.14 L39.63,25.68 L37.87,29.01 L34.27,37.66 L28.97,51.27 L21.76,70.29 L21.41,71.58 L21.32,72.73 L21.49,73.72 L21.92,74.56 L22.58,75.23 L23.44,75.71 L24.50,76.01 L25.76,76.11 L44.85,76.11 L46.46,76.03 L47.95,75.79 L49.32,75.41 L50.59,74.89 L52.79,73.49 L54.57,71.68 L55.94,69.54 L56.90,67.15 L57.47,64.60 L57.65,61.97 L57.65,55.41 L58.19,57.17 L58.19,57.17 L58.19,57.23 L58.19,57.33 L58.29,57.49 L59.08,58.46 L59.57,58.73 L60.11,58.83 L66.56,58.83 L68.00,58.68 L69.63,58.25 L71.34,57.52 L73.01,56.47 L74.51,55.11 L75.73,53.40 L76.55,51.36 L76.78,50.20 L76.85,48.96 L76.85,38.13 L76.62,36.78 L75.97,35.74 L74.96,35.07 L73.65,34.83 L73.81,34.77 Z" fill="#ffffff" stroke="#ffffff" stroke-width="1" stroke-linejoin="round"/><path d="M54.77,61.97 L54.55,64.51 L54.13,66.34 L53.36,68.27 L52.15,70.12 L51.35,70.95 L50.41,71.69 L49.30,72.30 L48.03,72.77 L46.56,73.07 L44.91,73.17 L25.81,73.17 L24.73,73.05 L24.37,72.85 L24.32,72.53 L24.59,71.25 L31.75,52.35 L37.01,38.85 L40.59,30.29 L42.35,27.00 L43.99,24.69 L44.76,23.89 L45.52,23.33 L46.26,22.99 L46.99,22.88 L56.00,22.88 L55.55,25.01 L55.17,27.98 L54.92,31.92 L54.83,36.96 L54.83,37.92 L54.83,61.97 L54.83,61.97 L54.77,61.97 Z" fill="#695ff0" stroke="#695ff0" stroke-width="1" stroke-linejoin="round"/><path d="M57.76,37.92 L57.76,35.31 L57.76,34.40 L57.81,32.69 L57.81,31.95 L57.92,30.08 L57.92,29.76 L58.28,26.11 L58.72,23.63 L58.83,23.20 L59.41,23.88 L60.08,24.95 L60.79,26.40 L61.49,28.21 L63.95,35.68 L63.09,36.27 L62.51,36.64 L61.44,37.49 L61.01,37.97 L59.79,39.63 L59.31,40.64 L59.04,41.44 L58.72,43.36 L58.72,48.69 L57.71,45.28 L57.71,37.97 L57.76,37.92 Z" fill="#695ff0" stroke="#695ff0" stroke-width="1" stroke-linejoin="round"/><path d="M74.08,48.91 L73.83,50.72 L73.16,52.22 L72.19,53.42 L71.03,54.35 L69.79,55.04 L68.59,55.50 L66.77,55.84 L61.76,55.84 L61.76,43.25 L61.88,42.30 L62.24,41.39 L62.40,41.17 L62.88,40.39 L63.52,39.68 L63.79,39.47 L64.55,38.87 L65.44,38.40 L65.76,38.24 L66.87,37.90 L68.11,37.76 L73.97,37.76 L74.24,38.13 L74.24,48.96 L74.24,48.96 L74.08,48.91 Z" fill="#695ff0" stroke="#695ff0" stroke-width="1" stroke-linejoin="round"/></svg>