<svg xmlns="http://www.w3.org/2000/svg" viewBox="0.40 -0.67 95.20 97.39"><path d="M61.33,1.33 L4.21,1.33 L3.69,1.44 L3.27,1.72 L2.98,2.14 L2.88,2.67 L2.88,15.89 L2.98,16.42 L3.27,16.84 L3.69,17.12 L4.21,17.23 L74.24,17.23 L75.04,17.31 L75.78,17.54 L77.03,18.38 L77.88,19.63 L78.11,20.38 L78.19,21.17 L78.19,19.52 L78.11,17.77 L77.87,16.04 L76.94,12.72 L75.46,9.64 L73.47,6.91 L72.30,5.70 L71.01,4.61 L69.63,3.66 L68.15,2.85 L66.58,2.21 L64.93,1.73 L63.19,1.43 L61.39,1.33 L61.33,1.33 Z" fill="#422cdf" stroke="#1e1e1e" stroke-width="1" stroke-linejoin="round"/><path d="M72.11,8.16 L73.37,9.56 L74.49,11.06 L75.45,12.67 L76.25,14.35 L76.88,16.11 L77.33,17.93 L77.61,19.80 L77.71,21.71 L77.71,93.33 L77.81,93.86 L78.09,94.28 L78.52,94.56 L79.04,94.67 L92.27,94.67 L92.79,94.56 L93.21,94.28 L93.50,93.86 L93.60,93.33 L93.60,36.21 L93.30,33.11 L92.40,30.15 L90.95,27.43 L88.96,25.01 L72.16,8.21 L72.11,8.16 Z" fill="#6866fe" stroke="#1e1e1e" stroke-width="1" stroke-linejoin="round"/><path d="M41.12,23.36 L3.73,23.36 L3.21,23.46 L2.79,23.75 L2.50,24.17 L2.40,24.69 L2.40,37.92 L2.50,38.44 L2.79,38.87 L3.21,39.15 L3.73,39.25 L53.92,39.25 L54.72,39.33 L55.46,39.56 L56.71,40.41 L57.56,41.66 L57.79,42.40 L57.87,43.20 L57.87,41.55 L57.79,39.80 L57.55,38.07 L56.62,34.75 L55.14,31.67 L53.15,28.93 L51.98,27.73 L50.69,26.64 L49.31,25.69 L47.83,24.88 L46.26,24.23 L44.61,23.76 L42.87,23.46 L41.07,23.36 L41.12,23.36 Z" fill="#422cdf" stroke="#1e1e1e" stroke-width="1" stroke-linejoin="round"/><path d="M52.32,28.00 L53.59,29.40 L54.70,30.90 L55.66,32.51 L56.46,34.19 L57.09,35.95 L57.55,37.77 L57.83,39.64 L57.92,41.55 L57.92,93.39 L58.02,93.91 L58.31,94.33 L58.73,94.62 L59.25,94.72 L72.48,94.72 L73.00,94.62 L73.43,94.33 L73.71,93.91 L73.81,93.39 L73.81,56.05 L73.51,52.95 L72.61,49.99 L71.16,47.27 L69.17,44.85 L52.37,28.05 L52.32,28.00 Z" fill="#6866fe" stroke="#1e1e1e" stroke-width="1" stroke-linejoin="round"/><path d="M21.28,43.15 L3.73,43.15 L3.21,43.25 L2.79,43.53 L2.50,43.96 L2.40,44.48 L2.40,57.71 L2.50,58.23 L2.79,58.65 L3.21,58.94 L3.73,59.04 L34.13,59.04 L34.93,59.12 L35.67,59.35 L36.93,60.19 L37.77,61.45 L38.00,62.19 L38.08,62.99 L38.08,61.33 L38.00,59.58 L37.76,57.86 L36.83,54.53 L35.35,51.45 L33.36,48.72 L32.19,47.51 L30.91,46.43 L29.52,45.47 L28.05,44.67 L26.47,44.02 L24.82,43.54 L23.09,43.25 L21.28,43.15 L21.28,43.15 Z" fill="#422cdf" stroke="#1e1e1e" stroke-width="1" stroke-linejoin="round"/><path d="M32.48,47.79 L33.75,49.18 L34.86,50.69 L35.82,52.29 L36.62,53.98 L37.25,55.74 L37.71,57.56 L37.99,59.43 L38.08,61.33 L38.08,93.33 L38.18,93.86 L38.47,94.28 L38.89,94.56 L39.41,94.67 L52.64,94.67 L53.16,94.56 L53.59,94.28 L53.87,93.86 L53.97,93.33 L53.97,75.79 L53.67,72.68 L52.77,69.73 L51.32,67.00 L49.33,64.59 L32.53,47.79 L32.48,47.79 Z" fill="#6866fe" stroke="#1e1e1e" stroke-width="1" stroke-linejoin="round"/></svg>