<svg xmlns="http://www.w3.org/2000/svg" viewBox="-0.57 -0.63 99.78 100.00"><path d="M37.12,79.94 L37.50,80.02 L37.82,80.25 L38.10,80.98 L37.93,82.77 L37.59,84.48 L37.10,86.11 L36.47,87.66 L34.81,90.45 L32.70,92.83 L30.20,94.76 L27.39,96.18 L24.36,97.07 L21.16,97.37 L18.89,97.06 L16.83,96.22 L15.04,94.83 L13.65,93.04 L6.14,79.99 L2.69,74.07 L3.57,75.38 L4.60,76.54 L5.76,77.56 L7.04,78.41 L8.42,79.09 L9.88,79.58 L11.41,79.89 L12.99,79.99 L37.23,79.99 L37.12,79.94 Z" fill="#7274ff" stroke="#1e1e1e" stroke-width="1" stroke-linejoin="round"/><path d="M15.52,77.74 L15.33,78.50 L15.53,79.21 L16.04,79.73 L16.78,79.94 L12.88,79.94 L11.32,79.83 L9.79,79.53 L8.33,79.03 L6.95,78.35 L5.66,77.50 L4.50,76.49 L3.46,75.32 L2.58,74.01 L1.71,71.90 L1.43,69.66 L1.71,67.42 L2.58,65.30 L29.55,18.59 L29.82,18.29 L30.17,18.13 L30.92,18.26 L32.71,19.59 L34.27,21.11 L35.62,22.80 L36.73,24.62 L37.61,26.55 L38.25,28.57 L38.63,30.66 L38.76,32.79 L38.62,35.00 L38.18,37.20 L37.44,39.35 L36.40,41.45 L15.46,77.69 L15.46,77.69 L15.52,77.74 Z" fill="#3e25d4" stroke="#1e1e1e" stroke-width="1" stroke-linejoin="round"/><path d="M15.52,77.74 L15.33,78.50 L15.53,79.21 L16.04,79.73 L16.78,79.94 L12.88,79.94 L11.32,79.83 L9.79,79.53 L8.33,79.03 L6.95,78.35 L5.66,77.50 L4.50,76.49 L3.46,75.32 L2.58,74.01 L1.71,71.90 L1.43,69.66 L1.71,67.42 L2.58,65.30 L29.55,18.59 L29.82,18.29 L30.17,18.13 L30.92,18.26 L32.71,19.59 L34.27,21.11 L35.62,22.80 L36.73,24.62 L37.61,26.55 L38.25,28.57 L38.63,30.66 L38.76,32.79 L38.62,35.00 L38.18,37.20 L37.44,39.35 L36.40,41.45 L15.46,77.69 L15.46,77.69 L15.52,77.74 Z" fill="#4f3ed6" stroke="#1e1e1e" stroke-width="1" stroke-linejoin="round" opacity="0.5"/><path d="M19.46,28.29 L19.20,28.59 L18.86,28.74 L18.09,28.62 L16.63,27.57 L15.32,26.42 L14.16,25.18 L13.15,23.86 L11.56,21.03 L10.55,18.01 L10.14,14.89 L10.31,11.75 L11.06,8.68 L12.39,5.76 L13.03,4.79 L13.77,3.94 L15.57,2.58 L17.65,1.71 L19.90,1.43 L41.83,1.43 L40.26,1.53 L38.74,1.83 L37.28,2.33 L35.90,3.01 L34.61,3.86 L33.44,4.87 L32.41,6.04 L31.52,7.35 L19.41,28.29 L19.46,28.29 Z" fill="#695ff0" stroke="#1e1e1e" stroke-width="1" stroke-linejoin="round"/><path d="M19.46,28.29 L19.20,28.59 L18.86,28.74 L18.09,28.62 L16.63,27.57 L15.32,26.42 L14.16,25.18 L13.15,23.86 L11.56,21.03 L10.55,18.01 L10.14,14.89 L10.31,11.75 L11.06,8.68 L12.39,5.76 L13.03,4.79 L13.77,3.94 L15.57,2.58 L17.65,1.71 L19.90,1.43 L41.83,1.43 L40.26,1.53 L38.74,1.83 L37.28,2.33 L35.90,3.01 L34.61,3.86 L33.44,4.87 L32.41,6.04 L31.52,7.35 L19.41,28.29 L19.46,28.29 Z" fill="#7274ff" stroke="#1e1e1e" stroke-width="1" stroke-linejoin="round"/><path d="M32.13,10.64 L31.58,10.08 L30.87,9.90 L30.15,10.08 L29.61,10.64 L31.52,7.29 L32.41,5.98 L33.44,4.82 L34.60,3.80 L35.88,2.95 L37.26,2.28 L38.72,1.78 L40.25,1.47 L41.83,1.37 L44.11,1.67 L46.18,2.53 L47.96,3.89 L49.34,5.70 L76.32,52.36 L76.41,53.13 L75.93,53.73 L73.88,54.60 L71.78,55.19 L69.65,55.51 L67.52,55.56 L65.40,55.35 L63.34,54.89 L61.34,54.19 L59.43,53.24 L57.57,52.00 L55.88,50.53 L54.37,48.82 L53.07,46.88 L32.13,10.64 L32.13,10.64 Z" fill="#3e25d4" stroke="#1e1e1e" stroke-width="1" stroke-linejoin="round"/><path d="M32.13,10.64 L31.58,10.08 L30.87,9.90 L30.15,10.08 L29.61,10.64 L31.52,7.29 L32.41,5.98 L33.44,4.82 L34.60,3.80 L35.88,2.95 L37.26,2.28 L38.72,1.78 L40.25,1.47 L41.83,1.37 L44.11,1.67 L46.18,2.53 L47.96,3.89 L49.34,5.70 L76.32,52.36 L76.41,53.13 L75.93,53.73 L73.88,54.60 L71.78,55.19 L69.65,55.51 L67.52,55.56 L65.40,55.35 L63.34,54.89 L61.34,54.19 L59.43,53.24 L57.57,52.00 L55.88,50.53 L54.37,48.82 L53.07,46.88 L32.13,10.64 L32.13,10.64 Z" fill="#4f3ed6" stroke="#1e1e1e" stroke-width="1" stroke-linejoin="round" opacity="0.5"/><path d="M73.03,38.82 L72.93,38.05 L73.41,37.45 L75.06,36.70 L76.71,36.14 L78.37,35.75 L80.02,35.53 L83.26,35.56 L86.38,36.21 L89.29,37.41 L91.92,39.13 L94.20,41.34 L96.05,43.97 L96.92,46.09 L97.21,48.30 L96.92,50.53 L96.05,52.63 L88.54,65.68 L85.09,71.60 L85.79,70.19 L86.29,68.71 L86.59,67.19 L86.69,65.65 L86.59,64.12 L86.29,62.60 L85.79,61.12 L85.09,59.71 L72.97,38.76 L72.97,38.76 L73.03,38.82 Z" fill="#7274ff" stroke="#1e1e1e" stroke-width="1" stroke-linejoin="round"/><path d="M81.91,58.61 L82.65,58.40 L83.16,57.88 L83.36,57.17 L83.17,56.42 L85.09,59.76 L85.79,61.18 L86.29,62.65 L86.59,64.17 L86.69,65.71 L86.59,67.25 L86.29,68.77 L85.79,70.24 L85.09,71.66 L83.70,73.47 L81.91,74.83 L79.83,75.69 L77.58,75.99 L23.68,75.99 L23.30,75.90 L22.99,75.67 L22.70,74.95 L22.96,72.73 L23.50,70.61 L24.28,68.61 L25.30,66.74 L26.54,65.02 L27.97,63.46 L29.58,62.09 L31.36,60.91 L33.36,59.93 L35.49,59.21 L37.74,58.76 L40.08,58.61 L81.91,58.61 L81.91,58.61 L81.91,58.61 Z" fill="#3e25d4" stroke="#1e1e1e" stroke-width="1" stroke-linejoin="round"/><path d="M81.91,58.61 L82.65,58.40 L83.16,57.88 L83.36,57.17 L83.17,56.42 L85.09,59.76 L85.79,61.18 L86.29,62.65 L86.59,64.17 L86.69,65.71 L86.59,67.25 L86.29,68.77 L85.79,70.24 L85.09,71.66 L83.70,73.47 L81.91,74.83 L79.83,75.69 L77.58,75.99 L23.68,75.99 L23.30,75.90 L22.99,75.67 L22.70,74.95 L22.96,72.73 L23.50,70.61 L24.28,68.61 L25.30,66.74 L26.54,65.02 L27.97,63.46 L29.58,62.09 L31.36,60.91 L33.36,59.93 L35.49,59.21 L37.74,58.76 L40.08,58.61 L81.91,58.61 L81.91,58.61 L81.91,58.61 Z" fill="#4f3ed6" stroke="#1e1e1e" stroke-width="1" stroke-linejoin="round" opacity="0.5"/></svg>