<svg xmlns="http://www.w3.org/2000/svg" viewBox="-0.72 -0.67 97.44 97.33"><path d="M59.36,94.67 L36.64,94.67 L33.74,94.40 L30.94,93.57 L28.31,92.19 L25.92,90.24 L5.76,70.08 L4.70,68.90 L3.79,67.66 L2.41,65.01 L1.60,62.20 L1.33,59.31 L1.42,57.52 L1.69,55.76 L2.12,54.04 L2.72,52.37 L4.27,49.44 L5.25,48.08 L6.35,46.83 L7.84,45.33 L7.00,46.59 L6.72,48.02 L7.00,49.44 L7.84,50.67 L46.45,89.28 L47.79,90.49 L49.23,91.55 L50.77,92.47 L52.37,93.23 L54.05,93.83 L55.79,94.26 L57.56,94.52 L59.36,94.61 L59.36,94.67 Z" fill="#6663fe" stroke="#1e1e1e" stroke-width="1" stroke-linejoin="round"/><path d="M94.67,59.31 L94.40,62.21 L93.57,65.03 L92.19,67.68 L91.29,68.92 L90.24,70.08 L70.08,90.24 L67.78,92.12 L65.16,93.51 L62.33,94.37 L59.36,94.67 L57.54,94.58 L55.77,94.31 L54.04,93.88 L52.37,93.28 L50.77,92.52 L49.23,91.61 L47.79,90.54 L46.45,89.33 L45.33,88.21 L46.59,89.05 L48.02,89.33 L49.44,89.05 L50.67,88.21 L89.28,49.60 L90.49,48.26 L91.56,46.82 L92.48,45.28 L93.25,43.66 L93.86,41.97 L94.31,40.23 L94.58,38.45 L94.67,36.64 L94.67,59.31 L94.67,59.31 Z" fill="#6663fe" stroke="#1e1e1e" stroke-width="1" stroke-linejoin="round"/><path d="M94.67,36.64 L94.58,38.45 L94.31,40.22 L93.88,41.96 L93.27,43.64 L92.51,45.26 L91.58,46.80 L90.51,48.25 L89.28,49.60 L88.16,50.72 L89.00,49.46 L89.28,48.03 L89.00,46.62 L88.16,45.39 L49.60,6.72 L48.26,5.51 L46.82,4.45 L45.29,3.53 L43.68,2.77 L42.00,2.17 L40.27,1.74 L38.49,1.48 L36.69,1.39 L59.41,1.39 L62.38,1.68 L65.21,2.54 L67.83,3.93 L70.13,5.81 L90.29,25.92 L92.18,28.22 L93.57,30.84 L94.43,33.67 L94.72,36.64 L94.67,36.64 Z" fill="#6663fe" stroke="#1e1e1e" stroke-width="1" stroke-linejoin="round"/><path d="M50.56,7.68 L49.32,6.94 L47.93,6.72 L46.55,7.02 L45.33,7.84 L7.79,45.33 L6.29,46.83 L4.22,49.46 L2.67,52.37 L2.07,54.04 L1.63,55.76 L1.37,57.52 L1.28,59.31 L1.28,36.64 L1.57,33.67 L2.43,30.84 L3.82,28.23 L5.71,25.92 L25.87,5.76 L28.25,3.81 L30.89,2.43 L33.69,1.61 L36.59,1.33 L38.41,1.42 L40.18,1.69 L41.90,2.12 L43.57,2.72 L45.18,3.48 L46.71,4.39 L48.16,5.46 L49.49,6.67 L50.45,7.63 L50.56,7.68 Z" fill="#6663fe" stroke="#1e1e1e" stroke-width="1" stroke-linejoin="round"/><path d="M69.44,35.09 L69.44,58.29 L69.35,56.50 L69.09,54.72 L68.65,52.98 L68.05,51.31 L67.29,49.70 L66.38,48.17 L65.32,46.72 L64.11,45.39 L50.72,32.00 L49.46,31.16 L48.03,30.88 L46.59,31.16 L45.33,32.00 L31.95,45.39 L31.11,46.65 L30.83,48.07 L31.11,49.49 L31.95,50.72 L30.74,49.38 L29.67,47.94 L28.76,46.41 L28.00,44.80 L27.40,43.12 L26.97,41.39 L26.70,39.61 L26.61,37.81 L26.61,35.15 L26.76,33.65 L27.19,32.23 L27.90,30.92 L28.85,29.76 L29.76,28.85 L30.92,27.90 L32.23,27.19 L33.65,26.76 L35.15,26.61 L61.01,26.61 L63.04,26.89 L64.91,27.68 L66.35,28.80 L67.25,29.71 L68.21,30.87 L68.91,32.18 L69.35,33.60 L69.49,35.09 L69.44,35.09 Z" fill="#6663fe" stroke="#1e1e1e" stroke-width="1" stroke-linejoin="round"/><path d="M69.44,58.29 L69.44,60.96 L69.29,62.45 L68.86,63.87 L68.16,65.18 L67.20,66.35 L66.29,67.25 L64.85,68.37 L64.53,68.53 L63.84,68.85 L62.42,69.29 L60.96,69.44 L35.09,69.44 L33.60,69.29 L32.18,68.86 L30.87,68.16 L29.71,67.20 L28.80,66.29 L27.84,65.13 L27.14,63.82 L26.71,62.40 L26.56,60.91 L26.56,37.71 L26.65,39.50 L26.91,41.28 L27.35,43.02 L27.95,44.69 L28.71,46.30 L29.62,47.83 L30.68,49.28 L31.89,50.61 L40.53,59.25 L45.33,64.05 L46.59,64.89 L48.03,65.17 L49.46,64.89 L50.72,64.05 L64.11,50.67 L64.95,49.41 L65.23,47.98 L64.95,46.56 L64.11,45.33 L65.32,46.67 L66.38,48.11 L67.29,49.65 L68.05,51.25 L68.65,52.93 L69.09,54.67 L69.35,56.44 L69.44,58.24 L69.44,58.29 Z" fill="#6663fe" stroke="#1e1e1e" stroke-width="1" stroke-linejoin="round"/></svg>