<svg xmlns="http://www.w3.org/2000/svg" viewBox="2.43 -0.72 91.16 97.37"><path d="M24.27,23.20 L25.76,20.69 L27.01,19.08 L28.63,17.87 L30.50,17.12 L32.53,16.85 L57.07,17.07 L57.33,17.07 L57.69,16.99 L57.92,16.75 L58.64,15.18 L59.03,13.55 L59.08,11.90 L58.82,10.29 L58.26,8.75 L57.40,7.33 L56.27,6.09 L54.88,5.07 L51.89,3.31 L50.10,2.39 L48.30,1.75 L46.51,1.38 L44.71,1.28 L42.92,1.44 L41.12,1.85 L39.31,2.51 L37.49,3.41 L13.55,16.91 L24.27,23.25 L24.27,23.20 Z" fill="#3e25d4" stroke="#1e1e1e" stroke-width="1" stroke-linejoin="round"/><path d="M7.95,24.59 L7.93,22.84 L8.17,21.17 L8.65,19.60 L9.36,18.13 L10.29,16.80 L11.43,15.62 L12.77,14.60 L14.29,13.76 L38.08,3.15 L38.93,2.83 L37.54,4.05 L36.27,5.39 L33.11,9.87 L28.27,17.12 L22.76,26.01 L17.65,35.09 L13.47,43.31 L11.25,47.84 L10.96,48.12 L10.53,48.19 L10.14,48.05 L9.97,47.73 L8.00,24.64 L7.95,24.59 Z" fill="#615cfe" stroke="#1e1e1e" stroke-width="1" stroke-linejoin="round"/><path d="M78.40,41.76 L79.84,44.32 L80.59,46.21 L80.83,48.21 L80.54,50.21 L79.73,52.11 L67.25,73.23 L67.15,73.44 L67.05,73.79 L67.15,74.13 L68.14,75.55 L69.35,76.70 L70.75,77.57 L72.27,78.16 L73.88,78.45 L75.52,78.42 L77.15,78.07 L78.72,77.39 L81.76,75.68 L83.46,74.59 L84.91,73.36 L86.13,72.00 L87.11,70.50 L87.88,68.87 L88.43,67.11 L88.77,65.22 L88.91,63.20 L89.33,35.73 L78.45,41.87 L78.40,41.76 Z" fill="#3e25d4" stroke="#1e1e1e" stroke-width="1" stroke-linejoin="round"/><path d="M85.39,26.93 L86.91,27.79 L88.24,28.83 L89.37,30.03 L90.27,31.38 L90.95,32.86 L91.39,34.44 L91.59,36.12 L91.52,37.87 L88.80,63.79 L88.69,64.69 L88.34,62.87 L87.79,61.12 L85.50,56.14 L81.65,48.32 L76.73,39.11 L71.41,30.13 L66.42,22.38 L63.63,18.19 L63.54,17.81 L63.70,17.41 L64.01,17.14 L64.37,17.12 L85.33,27.04 L85.39,26.93 Z" fill="#615cfe" stroke="#1e1e1e" stroke-width="1" stroke-linejoin="round"/><path d="M35.41,79.20 L32.48,79.20 L30.46,78.92 L28.61,78.13 L27.03,76.88 L25.81,75.25 L13.71,53.92 L13.60,53.71 L13.37,53.44 L13.01,53.33 L11.30,53.50 L9.70,53.99 L8.25,54.76 L6.98,55.79 L5.93,57.03 L5.13,58.46 L4.62,60.05 L4.43,61.76 L4.43,65.23 L4.54,67.24 L4.89,69.11 L5.47,70.85 L6.28,72.45 L7.31,73.93 L8.57,75.28 L10.04,76.50 L11.73,77.60 L35.36,91.63 L35.47,79.15 L35.41,79.20 Z" fill="#3e25d4" stroke="#1e1e1e" stroke-width="1" stroke-linejoin="round"/><path d="M44.80,92.64 L43.30,93.53 L41.74,94.16 L40.14,94.53 L38.51,94.65 L36.89,94.50 L35.30,94.10 L33.75,93.45 L32.27,92.53 L11.15,77.33 L10.45,76.80 L12.20,77.39 L14.03,77.81 L19.48,78.33 L28.21,78.88 L38.66,79.20 L49.07,79.04 L58.27,78.58 L63.31,78.24 L63.68,78.36 L63.95,78.69 L64.03,79.09 L63.84,79.41 L44.85,92.69 L44.80,92.64 Z" fill="#615cfe" stroke="#1e1e1e" stroke-width="1" stroke-linejoin="round"/><path d="M53.28,34.13 L53.94,34.31 L54.40,34.77 L61.65,47.36 L61.81,48.02 L61.65,48.64 L54.40,61.23 L53.94,61.71 L53.28,61.87 L38.77,61.87 L38.11,61.69 L37.65,61.23 L30.40,48.64 L30.24,47.98 L30.40,47.36 L37.65,34.77 L38.11,34.29 L38.77,34.13 L53.28,34.13 L53.28,34.13 Z" fill="#6866fe" stroke="#1e1e1e" stroke-width="1" stroke-linejoin="round"/></svg>