<svg xmlns="http://www.w3.org/2000/svg" viewBox="0.47 -0.63 97.75 100.00"><path d="M63.05,1.37 L4.33,1.37 L3.79,1.48 L3.36,1.77 L3.07,2.20 L2.96,2.74 L2.96,16.34 L3.07,16.88 L3.36,17.31 L3.79,17.60 L4.33,17.71 L76.32,17.71 L77.14,17.79 L77.90,18.03 L79.19,18.89 L80.06,20.18 L80.29,20.95 L80.37,21.77 L80.37,20.07 L80.29,18.27 L80.05,16.49 L79.09,13.07 L77.57,9.91 L75.52,7.10 L74.32,5.86 L73.00,4.74 L71.58,3.76 L70.06,2.93 L68.44,2.27 L66.74,1.78 L64.96,1.47 L63.10,1.37 L63.05,1.37 Z" fill="#422cdf" stroke="#1e1e1e" stroke-width="1" stroke-linejoin="round"/><path d="M74.12,8.39 L75.43,9.83 L76.57,11.37 L77.56,13.02 L78.38,14.75 L79.03,16.56 L79.50,18.43 L79.78,20.36 L79.88,22.31 L79.88,95.95 L79.99,96.48 L80.28,96.92 L80.71,97.21 L81.25,97.32 L94.85,97.32 L95.39,97.21 L95.82,96.92 L96.11,96.48 L96.22,95.95 L96.22,37.23 L95.91,34.03 L94.99,31.00 L93.49,28.20 L91.45,25.71 L74.18,8.44 L74.12,8.39 Z" fill="#6866fe" stroke="#1e1e1e" stroke-width="1" stroke-linejoin="round"/><path d="M42.27,24.01 L3.84,24.01 L3.30,24.12 L2.86,24.41 L2.57,24.85 L2.47,25.38 L2.47,38.98 L2.57,39.52 L2.86,39.95 L3.30,40.25 L3.84,40.35 L55.43,40.35 L56.25,40.43 L57.01,40.67 L58.30,41.54 L59.17,42.83 L59.40,43.59 L59.49,44.41 L59.49,42.71 L59.40,40.91 L59.16,39.14 L58.21,35.72 L56.68,32.55 L54.63,29.74 L53.43,28.50 L52.11,27.38 L50.69,26.41 L49.17,25.58 L47.56,24.91 L45.85,24.42 L44.07,24.12 L42.22,24.01 L42.27,24.01 Z" fill="#422cdf" stroke="#1e1e1e" stroke-width="1" stroke-linejoin="round"/><path d="M53.78,28.78 L55.09,30.22 L56.23,31.77 L57.22,33.42 L58.04,35.15 L58.69,36.96 L59.16,38.83 L59.44,40.75 L59.54,42.71 L59.54,96.00 L59.65,96.54 L59.94,96.97 L60.37,97.26 L60.91,97.37 L74.51,97.37 L75.05,97.26 L75.48,96.97 L75.77,96.54 L75.88,96.00 L75.88,57.62 L75.57,54.43 L74.65,51.39 L73.15,48.59 L71.11,46.11 L53.84,28.84 L53.78,28.78 Z" fill="#6866fe" stroke="#1e1e1e" stroke-width="1" stroke-linejoin="round"/><path d="M21.88,44.35 L3.84,44.35 L3.30,44.46 L2.86,44.75 L2.57,45.19 L2.47,45.72 L2.47,59.32 L2.57,59.86 L2.86,60.29 L3.30,60.59 L3.84,60.69 L35.09,60.69 L35.91,60.77 L36.67,61.01 L37.96,61.88 L38.83,63.17 L39.06,63.93 L39.15,64.75 L39.15,63.05 L39.06,61.25 L38.82,59.48 L37.87,56.06 L36.34,52.89 L34.29,50.08 L33.09,48.84 L31.77,47.73 L30.35,46.75 L28.83,45.92 L27.22,45.25 L25.51,44.76 L23.73,44.46 L21.88,44.35 L21.88,44.35 Z" fill="#422cdf" stroke="#1e1e1e" stroke-width="1" stroke-linejoin="round"/><path d="M33.39,49.12 L34.69,50.56 L35.84,52.11 L36.82,53.76 L37.64,55.49 L38.29,57.30 L38.76,59.17 L39.05,61.09 L39.15,63.05 L39.15,95.95 L39.25,96.48 L39.54,96.92 L39.98,97.21 L40.52,97.32 L54.11,97.32 L54.65,97.21 L55.09,96.92 L55.38,96.48 L55.48,95.95 L55.48,77.91 L55.17,74.71 L54.25,71.68 L52.75,68.88 L50.71,66.39 L33.44,49.12 L33.39,49.12 Z" fill="#6866fe" stroke="#1e1e1e" stroke-width="1" stroke-linejoin="round"/></svg>