<svg xmlns="http://www.w3.org/2000/svg" viewBox="2.42 -2.00 91.17 100.00"><path d="M56.83,0.00 L36.43,0.00 L35.87,0.03 L35.30,0.00 L14.90,0.00 L12.79,0.21 L10.82,0.82 L9.04,1.79 L7.49,3.07 L6.21,4.63 L5.24,6.41 L4.63,8.38 L4.42,10.49 L4.42,71.11 L4.63,73.23 L5.24,75.20 L5.94,76.56 L6.81,77.79 L7.86,78.88 L9.04,79.81 L10.36,80.57 L11.79,81.13 L13.31,81.48 L14.91,81.61 L56.84,81.61 L58.44,81.48 L59.96,81.13 L61.39,80.57 L62.70,79.81 L63.89,78.88 L64.93,77.79 L65.81,76.56 L66.50,75.20 L67.11,73.23 L67.33,71.11 L67.33,10.49 L67.11,8.38 L66.50,6.41 L65.53,4.63 L64.25,3.07 L62.70,1.79 L60.91,0.82 L58.95,0.21 L56.83,0.00 Z" fill="#368fe3" stroke="#1e1e1e" stroke-width="1" stroke-linejoin="round"/><path d="M52.22,55.08 L17.21,55.08 L16.55,54.95 L16.00,54.60 L15.62,54.06 L15.48,53.40 L15.60,52.74 L15.96,52.19 L16.49,51.81 L17.15,51.67 L17.21,51.67 L52.21,51.67 L52.88,51.79 L53.43,52.15 L53.80,52.68 L53.95,53.34 L53.82,54.01 L53.47,54.56 L52.93,54.93 L52.27,55.08 L52.22,55.08 L52.22,55.08 Z" fill="#ffffff" stroke="#ffffff" stroke-width="1" stroke-linejoin="round" opacity="0.8"/><path d="M45.08,62.15 L17.21,62.15 L16.55,62.03 L16.00,61.67 L15.62,61.13 L15.48,60.47 L15.60,59.81 L15.96,59.26 L16.49,58.89 L17.15,58.74 L17.21,58.74 L45.08,58.74 L45.74,58.89 L46.27,59.26 L46.63,59.81 L46.75,60.47 L46.61,61.12 L46.25,61.65 L45.72,62.01 L45.08,62.15 L45.08,62.15 Z" fill="#ffffff" stroke="#ffffff" stroke-width="1" stroke-linejoin="round" opacity="0.6"/><path d="M52.22,69.22 L17.21,69.22 L16.55,69.10 L16.00,68.74 L15.62,68.21 L15.48,67.55 L15.60,66.88 L15.96,66.33 L16.49,65.96 L17.15,65.81 L17.21,65.81 L52.21,65.81 L52.88,65.94 L53.43,66.29 L53.80,66.83 L53.95,67.49 L53.82,68.15 L53.47,68.70 L52.93,69.08 L52.27,69.22 L52.22,69.22 L52.22,69.22 Z" fill="#ffffff" stroke="#ffffff" stroke-width="1" stroke-linejoin="round" opacity="0.4"/><path d="M18.99,43.77 L18.99,45.93 L18.86,46.59 L18.51,47.14 L17.97,47.51 L17.31,47.66 L16.65,47.54 L16.10,47.18 L15.72,46.64 L15.58,45.98 L15.58,45.93 L15.58,43.78 L15.70,43.11 L16.06,42.56 L16.59,42.19 L17.25,42.04 L17.92,42.17 L18.47,42.52 L18.84,43.06 L18.99,43.72 L18.99,43.77 L18.99,43.77 Z" fill="#ffffff" stroke="#ffffff" stroke-width="1" stroke-linejoin="round" opacity="0.2"/><path d="M27.82,34.52 L27.82,45.93 L27.70,46.59 L27.34,47.14 L26.80,47.51 L26.14,47.66 L25.48,47.54 L24.93,47.18 L24.56,46.64 L24.41,45.98 L24.41,45.93 L24.41,34.53 L24.56,33.87 L24.93,33.33 L25.48,32.98 L26.14,32.85 L26.79,32.99 L27.32,33.35 L27.68,33.88 L27.82,34.53 L27.82,34.52 Z" fill="#ffffff" stroke="#ffffff" stroke-width="1" stroke-linejoin="round" opacity="0.3"/><path d="M36.65,25.94 L36.65,45.93 L36.52,46.59 L36.17,47.14 L35.63,47.51 L34.97,47.66 L34.31,47.54 L33.76,47.18 L33.38,46.64 L33.24,45.98 L33.24,45.93 L33.24,25.94 L33.36,25.28 L33.72,24.73 L34.25,24.35 L34.91,24.21 L35.58,24.33 L36.12,24.69 L36.50,25.22 L36.65,25.88 L36.65,25.94 L36.65,25.94 Z" fill="#ffffff" stroke="#ffffff" stroke-width="1" stroke-linejoin="round" opacity="0.5"/><path d="M45.48,18.44 L45.48,45.93 L45.35,46.59 L45.00,47.14 L44.46,47.51 L43.80,47.66 L43.14,47.54 L42.59,47.18 L42.21,46.64 L42.07,45.98 L42.07,45.93 L42.07,18.44 L42.19,17.78 L42.55,17.23 L43.08,16.85 L43.74,16.71 L44.41,16.83 L44.96,17.19 L45.33,17.72 L45.48,18.38 L45.48,18.44 L45.48,18.44 Z" fill="#ffffff" stroke="#ffffff" stroke-width="1" stroke-linejoin="round" opacity="0.6"/><path d="M54.30,12.33 L54.30,45.93 L54.18,46.59 L53.82,47.14 L53.29,47.51 L52.63,47.66 L51.96,47.54 L51.42,47.18 L51.04,46.64 L50.90,45.98 L50.90,45.93 L50.90,12.33 L51.02,11.67 L51.38,11.12 L51.91,10.74 L52.57,10.60 L53.24,10.72 L53.78,11.08 L54.16,11.61 L54.30,12.27 L54.30,12.33 L54.30,12.33 Z" fill="#ffffff" stroke="#ffffff" stroke-width="1" stroke-linejoin="round" opacity="0.8"/><path d="M90.73,94.85 L90.44,95.14 L89.47,95.79 L88.36,96.00 L87.25,95.79 L86.28,95.14 L72.37,81.23 L76.82,76.79 L90.73,90.70 L91.37,91.67 L91.59,92.78 L91.37,93.88 L90.73,94.85 L90.73,94.85 Z" fill="#198ab3" stroke="#1e1e1e" stroke-width="1" stroke-linejoin="round"/><path d="M63.42,47.79 L61.49,47.89 L59.61,48.18 L57.80,48.64 L56.06,49.28 L54.40,50.08 L52.84,51.02 L51.38,52.11 L50.04,53.34 L48.82,54.68 L47.73,56.14 L46.78,57.70 L45.98,59.35 L45.35,61.09 L44.88,62.91 L44.59,64.78 L44.50,66.72 L44.59,68.66 L44.88,70.53 L45.35,72.35 L45.98,74.09 L46.78,75.74 L47.73,77.30 L48.82,78.76 L50.04,80.10 L51.38,81.33 L52.84,82.42 L54.40,83.36 L56.06,84.16 L57.80,84.80 L59.61,85.26 L61.49,85.55 L63.42,85.65 L65.36,85.55 L67.24,85.26 L69.05,84.80 L70.79,84.16 L72.45,83.36 L74.01,82.42 L75.46,81.33 L76.81,80.10 L78.03,78.76 L79.12,77.30 L80.07,75.74 L80.86,74.09 L81.50,72.35 L81.97,70.53 L82.25,68.66 L82.35,66.72 L82.25,64.78 L81.97,62.91 L81.50,61.09 L80.86,59.35 L80.07,57.70 L79.12,56.14 L78.03,54.68 L76.81,53.34 L75.46,52.11 L74.01,51.02 L72.45,50.08 L70.79,49.28 L69.05,48.64 L67.24,48.18 L65.36,47.89 L63.42,47.79 L63.42,47.79 Z" fill="#32d2f3" stroke="#1e1e1e" stroke-width="1" stroke-linejoin="round"/><path d="M63.46,81.25 L60.47,80.95 L57.68,80.08 L55.15,78.71 L52.95,76.89 L51.14,74.69 L49.77,72.17 L48.90,69.38 L48.60,66.38 L48.90,63.39 L49.77,60.60 L51.14,58.07 L52.95,55.87 L55.15,54.06 L57.68,52.69 L60.47,51.82 L63.46,51.52 L66.46,51.82 L69.25,52.69 L71.77,54.06 L73.97,55.87 L75.79,58.07 L77.16,60.60 L78.02,63.39 L78.33,66.38 L78.02,69.38 L77.16,72.17 L75.79,74.69 L73.97,76.89 L71.77,78.71 L69.25,80.08 L66.46,80.95 L63.46,81.25 L63.46,81.25 Z" fill="#368fe3" stroke="#1e1e1e" stroke-width="1" stroke-linejoin="round"/><path d="M72.32,54.45 L70.30,53.15 L68.14,52.22 L65.88,51.65 L63.57,51.45 L61.26,51.61 L59.00,52.15 L56.82,53.05 L54.78,54.31 L58.17,53.73 L61.23,53.67 L63.97,54.05 L66.41,54.83 L68.56,55.92 L70.44,57.27 L72.06,58.80 L73.45,60.45 L74.61,62.16 L75.57,63.86 L76.93,66.95 L77.65,69.19 L77.86,70.06 L78.28,67.85 L78.36,65.65 L78.11,63.48 L77.53,61.39 L76.66,59.40 L75.49,57.56 L74.04,55.89 L72.32,54.45 Z" fill="#c3f1ff" stroke="#1e1e1e" stroke-width="1" stroke-linejoin="round"/><ellipse cx="63.42" cy="66.72" rx="18.93" ry="18.93" fill="#32d2f3" stroke="#1e1e1e" stroke-width="1" opacity="0.2"/><ellipse cx="63.46" cy="66.38" rx="14.86" ry="14.86" fill="#ffffff" stroke="#1e1e1e" stroke-width="1" opacity="0.2"/></svg>