<svg xmlns="http://www.w3.org/2000/svg" viewBox="-2.00 0.67 100.00 94.67"><path d="M51.73,72.70 L52.12,68.41 L53.28,64.26 L55.18,60.39 L57.75,56.93 L60.91,53.99 L64.55,51.69 L68.55,50.08 L72.78,49.23 L77.09,49.16 L81.34,49.88 L85.39,51.36 L89.10,53.55 L89.10,15.82 L88.77,14.47 L87.94,13.34 L86.75,12.62 L85.37,12.41 L3.73,12.41 L2.35,12.62 L1.16,13.34 L0.33,14.47 L0.00,15.82 L0.00,77.23 L0.33,78.59 L1.16,79.71 L2.35,80.44 L3.73,80.65 L53.16,80.65 L52.10,76.74 L51.73,72.70 L51.73,72.70 Z" fill="#5ea0ef" stroke="#1e1e1e" stroke-width="1" stroke-linejoin="round"/><path d="M51.73,72.70 L52.12,68.41 L53.28,64.26 L55.18,60.39 L57.75,56.93 L60.91,53.99 L64.55,51.69 L68.55,50.08 L72.78,49.23 L77.09,49.16 L81.34,49.88 L85.39,51.36 L89.10,53.55 L89.10,15.82 L88.84,14.52 L88.11,13.41 L87.01,12.67 L85.71,12.41 L44.41,12.41 L44.41,80.65 L53.16,80.65 L52.10,76.74 L51.73,72.70 L51.73,72.70 Z" fill="#0078d4" stroke="#1e1e1e" stroke-width="1" stroke-linejoin="round"/><path d="M37.43,2.67 L10.71,2.67 L9.82,2.91 L9.17,3.56 L8.93,4.46 L8.93,72.45 L9.17,73.34 L9.82,74.00 L10.71,74.24 L37.43,74.24 L39.56,74.39 L41.53,75.22 L43.13,76.64 L44.17,78.50 L44.56,80.60 L44.56,9.83 L44.22,7.62 L43.21,5.63 L41.63,4.04 L39.64,3.02 L37.43,2.67 L37.43,2.67 Z" fill="#f2f2f2" stroke="#1e1e1e" stroke-width="1" stroke-linejoin="round"/><path d="M51.73,72.70 L52.10,68.53 L53.21,64.48 L55.01,60.70 L57.45,57.29 L60.45,54.37 L63.93,52.03 L67.77,50.34 L71.84,49.35 L76.02,49.10 L80.19,49.60 L80.19,4.45 L79.95,3.56 L79.29,2.90 L78.40,2.67 L51.69,2.67 L49.48,3.02 L47.49,4.04 L45.91,5.63 L44.90,7.62 L44.56,9.83 L44.56,80.60 L44.95,78.50 L45.99,76.64 L47.59,75.22 L49.56,74.39 L51.69,74.24 L51.83,74.24 L51.73,72.70 Z" fill="#dedede" stroke="#1e1e1e" stroke-width="1" stroke-linejoin="round"/><ellipse cx="75.37" cy="72.70" rx="20.63" ry="20.63" fill="#3fdec6" stroke="#1e1e1e" stroke-width="1"/><path d="M37.29,19.98 L37.29,21.94 L37.05,22.49 L36.50,22.73 L17.00,22.73 L16.44,22.49 L16.21,21.94 L16.21,19.98 L16.44,19.43 L17.00,19.20 L36.50,19.20 L37.05,19.43 L37.29,19.98 L37.29,19.98 Z" fill="#b3b3b3" stroke="#b3b3b3" stroke-width="1" stroke-linejoin="round"/><path d="M36.50,29.79 L17.00,29.79 L16.44,30.02 L16.21,30.58 L16.21,32.53 L16.44,33.09 L17.00,33.32 L36.50,33.32 L37.05,33.09 L37.29,32.53 L37.29,30.58 L37.05,30.02 L36.50,29.79 L36.50,29.79 Z" fill="#b3b3b3" stroke="#b3b3b3" stroke-width="1" stroke-linejoin="round"/><path d="M36.50,8.60 L17.00,8.60 L16.44,8.83 L16.21,9.39 L16.21,11.34 L16.44,11.90 L17.00,12.13 L36.50,12.13 L37.05,11.90 L37.29,11.34 L37.29,9.39 L37.05,8.83 L36.50,8.60 Z" fill="#b3b3b3" stroke="#b3b3b3" stroke-width="1" stroke-linejoin="round"/><path d="M36.50,40.38 L17.00,40.38 L16.44,40.61 L16.21,41.17 L16.21,43.12 L16.44,43.68 L17.00,43.91 L36.50,43.91 L37.05,43.68 L37.29,43.12 L37.29,41.17 L37.05,40.61 L36.50,40.38 Z" fill="#b3b3b3" stroke="#b3b3b3" stroke-width="1" stroke-linejoin="round"/><path d="M36.50,50.97 L17.00,50.97 L16.44,51.20 L16.21,51.76 L16.21,53.71 L16.44,54.27 L17.00,54.50 L36.50,54.50 L37.05,54.27 L37.29,53.71 L37.29,51.76 L37.05,51.20 L36.50,50.97 L36.50,50.97 Z" fill="#b3b3b3" stroke="#b3b3b3" stroke-width="1" stroke-linejoin="round"/><path d="M25.96,61.56 L17.00,61.56 L16.44,61.80 L16.21,62.36 L16.21,64.30 L16.44,64.86 L17.00,65.09 L25.96,65.09 L26.52,64.86 L26.75,64.30 L26.75,62.36 L26.52,61.80 L25.96,61.56 L25.96,61.56 Z" fill="#b3b3b3" stroke="#b3b3b3" stroke-width="1" stroke-linejoin="round"/><path d="M89.34,73.07 L89.26,74.85 L88.99,76.62 L88.56,78.34 L87.97,80.02 L87.22,81.62 L86.30,83.13 L85.48,84.24 L84.60,85.30 L84.02,85.54 L83.45,85.30 L83.29,85.14 L83.07,84.58 L83.29,84.03 L84.08,83.11 L84.80,82.13 L85.62,80.77 L86.30,79.32 L86.84,77.82 L87.23,76.28 L87.54,73.08 L87.23,69.88 L86.84,68.34 L86.30,66.84 L85.62,65.40 L84.80,64.04 L84.09,63.04 L83.30,62.11 L83.08,61.55 L83.30,60.99 L83.46,60.83 L84.03,60.58 L84.61,60.83 L85.50,61.88 L86.31,63.00 L87.22,64.52 L87.97,66.12 L88.56,67.79 L89.00,69.50 L89.27,71.28 L89.34,73.07 L89.34,73.07 Z" fill="#ffffff" stroke="#ffffff" stroke-width="1" stroke-linejoin="round"/><path d="M83.38,68.21 L82.43,66.36 L81.19,64.69 L80.62,64.44 L80.04,64.69 L79.88,64.85 L79.65,65.37 L79.83,65.91 L80.89,67.34 L81.71,68.92 L82.47,71.84 L82.39,74.86 L81.49,77.74 L79.83,80.26 L79.65,80.80 L79.88,81.32 L80.04,81.48 L80.62,81.72 L81.19,81.48 L82.43,79.81 L83.38,77.96 L84.10,75.58 L84.34,73.10 L84.10,70.62 L83.38,68.24 L83.38,68.21 Z" fill="#ffffff" stroke="#ffffff" stroke-width="1" stroke-linejoin="round"/><path d="M77.09,69.73 L77.50,70.33 L77.82,70.99 L78.23,73.08 L77.82,75.17 L77.50,75.81 L77.10,76.41 L76.93,76.96 L77.17,77.48 L77.32,77.63 L77.93,77.86 L78.51,77.57 L79.07,76.76 L79.50,75.87 L79.91,74.51 L80.04,73.09 L79.90,71.68 L79.50,70.31 L79.07,69.44 L78.52,68.63 L77.94,68.33 L77.33,68.57 L77.17,68.72 L76.95,69.21 L77.09,69.73 L77.09,69.73 Z" fill="#ffffff" stroke="#ffffff" stroke-width="1" stroke-linejoin="round"/><path d="M66.96,67.63 L65.07,67.63 L64.27,67.84 L63.68,68.43 L63.47,69.23 L63.47,76.92 L63.68,77.72 L64.27,78.31 L65.07,78.52 L66.97,78.52 L67.57,78.64 L68.09,78.99 L72.85,83.73 L73.10,83.91 L73.41,83.97 L73.41,83.97 L74.08,83.69 L74.36,83.02 L74.36,63.14 L74.07,62.46 L73.40,62.18 L73.40,62.18 L73.09,62.24 L72.83,62.42 L68.09,67.16 L67.57,67.51 L66.95,67.63 L66.96,67.63 Z" fill="#ffffff" stroke="#ffffff" stroke-width="1" stroke-linejoin="round"/></svg>