<svg xmlns="http://www.w3.org/2000/svg" viewBox="-2.00 -2.00 100.00 100.00"><rect x="0.00" y="0.00" width="96.00" height="96.00" fill="#0078d4" stroke="#1e1e1e" stroke-width="1"/><rect x="4.68" y="4.68" width="86.64" height="86.64" fill="#2f8ce2" stroke="#1e1e1e" stroke-width="1"/><path d="M34.20,76.41 L31.90,76.35 L29.67,75.81 L27.61,74.81 L26.41,73.07 L25.76,71.06 L25.70,68.94 L25.70,53.71 L25.51,52.07 L24.93,50.87 L23.97,50.15 L22.63,49.90 L22.63,46.10 L23.35,46.03 L23.97,45.85 L24.50,45.54 L24.93,45.11 L25.27,44.55 L25.51,43.87 L25.65,43.07 L25.70,42.14 L25.70,27.20 L25.77,25.05 L26.42,22.99 L27.61,21.19 L29.66,20.15 L31.89,19.61 L34.20,19.59 L34.20,23.40 L32.74,23.62 L31.69,24.30 L31.04,25.44 L30.83,27.06 L30.83,41.70 L30.63,43.98 L30.04,45.78 L29.04,47.12 L27.63,48.00 L29.13,49.12 L30.23,50.64 L30.81,52.42 L30.83,54.30 L30.83,68.80 L30.97,70.32 L31.56,71.73 L32.71,72.44 L34.05,72.61 L34.20,76.42 L34.20,76.41 Z" fill="#ffffff" stroke="#1e1e1e" stroke-width="1" stroke-linejoin="round"/><path d="M59.40,19.59 L61.70,19.65 L63.93,20.19 L65.99,21.19 L67.19,22.93 L67.84,24.94 L67.90,27.06 L67.90,42.29 L68.09,43.93 L68.67,45.13 L69.63,45.85 L70.97,46.10 L70.97,49.90 L70.25,49.97 L69.63,50.15 L69.10,50.46 L68.67,50.89 L68.33,51.45 L68.09,52.13 L67.95,52.93 L67.90,53.86 L67.90,68.65 L67.84,70.81 L67.19,72.87 L65.99,74.67 L63.96,75.77 L61.72,76.37 L59.40,76.43 L59.40,72.62 L60.86,72.40 L61.91,71.72 L62.56,70.58 L62.77,68.96 L62.77,54.30 L62.97,52.02 L63.56,50.22 L64.56,48.88 L65.97,48.00 L64.47,46.88 L63.37,45.36 L62.79,43.58 L62.77,41.70 L62.77,27.20 L62.63,25.68 L62.04,24.27 L60.89,23.56 L59.55,23.39 L59.40,19.59 Z" fill="#ffffff" stroke="#1e1e1e" stroke-width="1" stroke-linejoin="round"/></svg>