<svg xmlns="http://www.w3.org/2000/svg" viewBox="0.67 1.20 94.77 93.60"><path d="M32.00,3.20 L91.31,3.20 L92.27,3.42 L93.01,4.08 L93.33,5.01 L93.33,50.83 L93.02,51.77 L92.28,52.44 L91.31,52.64 L32.00,52.64 L31.03,52.44 L30.28,51.77 L29.97,50.83 L29.97,5.01 L30.30,4.08 L31.04,3.42 L32.00,3.20 Z" fill="#e6e6e6" stroke="#1e1e1e" stroke-width="1" stroke-linejoin="round"/><path d="M31.68,3.20 L91.41,3.20 L92.32,3.40 L93.02,4.03 L93.33,4.91 L93.33,4.91 L93.33,11.84 L29.76,11.84 L29.76,4.91 L30.07,4.03 L30.77,3.40 L31.68,3.20 L31.68,3.20 Z" fill="#5ea0ef" stroke="#1e1e1e" stroke-width="1" stroke-linejoin="round"/><rect x="29.76" y="11.84" width="21.23" height="20.43" fill="#83b9f9" stroke="#1e1e1e" stroke-width="1"/><rect x="50.88" y="11.84" width="21.23" height="20.43" fill="#0078d4" stroke="#1e1e1e" stroke-width="1"/><rect x="72.11" y="11.84" width="21.23" height="20.43" fill="#83b9f9" stroke="#1e1e1e" stroke-width="1"/><path d="M90.29,52.85 L72.11,52.85 L72.11,52.85 L72.11,32.21 L72.11,32.21 L93.44,32.21 L93.44,32.21 L93.44,49.60 L93.26,50.85 L92.59,51.93 L91.54,52.64 L90.29,52.85 L90.29,52.85 Z" fill="#0078d4" stroke="#1e1e1e" stroke-width="1" stroke-linejoin="round"/><rect x="51.04" y="32.21" width="21.23" height="20.43" fill="#83b9f9" stroke="#1e1e1e" stroke-width="1"/><rect x="29.81" y="32.21" width="21.23" height="20.43" fill="#0078d4" stroke="#1e1e1e" stroke-width="1"/><path d="M57.23,92.80 L4.75,92.80 L4.16,92.68 L3.65,92.36 L2.91,91.29 L2.67,89.96 L2.77,89.32 L3.04,88.75 L21.12,62.08 L21.29,61.64 L21.33,61.17 L21.33,43.73 L21.10,43.05 L20.48,42.67 L19.47,42.67 L18.43,42.39 L17.67,41.63 L17.39,40.59 L17.39,39.68 L17.68,38.66 L18.44,37.92 L19.47,37.65 L42.67,37.65 L43.70,37.91 L44.47,38.65 L44.75,39.68 L44.75,40.64 L44.47,41.67 L43.70,42.41 L42.67,42.67 L41.55,42.67 L40.81,42.96 L40.48,43.68 L40.48,61.17 L40.58,61.79 L40.85,62.35 L58.99,88.69 L59.24,89.28 L59.33,89.94 L59.09,91.29 L58.35,92.36 L57.83,92.68 L57.23,92.80 Z" fill="#2ecaec" stroke="#1e1e1e" stroke-width="1" stroke-linejoin="round"/><path d="M11.68,85.33 L24.80,66.19 L25.44,64.89 L25.65,63.47 L25.65,55.47 L25.86,54.69 L26.43,54.13 L27.20,53.92 L34.67,53.92 L35.43,54.13 L35.98,54.70 L36.16,55.47 L36.16,64.00 L36.32,64.95 L36.75,65.81 L50.19,85.33 L50.42,86.14 L50.03,86.89 L49.23,87.15 L12.59,87.15 L11.81,86.86 L11.44,86.12 L11.68,85.33 Z" fill="#ffffff" stroke="#1e1e1e" stroke-width="1" stroke-linejoin="round"/></svg>