<svg xmlns="http://www.w3.org/2000/svg" viewBox="0.82 1.38 100.00 98.76"><path d="M33.84,3.38 L96.57,3.38 L97.59,3.62 L98.37,4.31 L98.71,5.30 L98.71,53.75 L98.38,54.76 L97.60,55.46 L96.57,55.67 L33.84,55.67 L32.81,55.46 L32.03,54.76 L31.70,53.75 L31.70,5.30 L32.04,4.31 L32.82,3.62 L33.84,3.38 Z" fill="#e6e6e6" stroke="#1e1e1e" stroke-width="1" stroke-linejoin="round"/><path d="M33.51,3.38 L96.68,3.38 L97.64,3.60 L98.38,4.26 L98.71,5.19 L98.71,5.19 L98.71,12.52 L31.47,12.52 L31.47,5.19 L31.80,4.26 L32.54,3.60 L33.51,3.38 L33.51,3.38 Z" fill="#5ea0ef" stroke="#1e1e1e" stroke-width="1" stroke-linejoin="round"/><rect x="31.47" y="12.52" width="22.45" height="21.60" fill="#83b9f9" stroke="#1e1e1e" stroke-width="1"/><rect x="53.81" y="12.52" width="22.45" height="21.60" fill="#0078d4" stroke="#1e1e1e" stroke-width="1"/><rect x="76.26" y="12.52" width="22.45" height="21.60" fill="#83b9f9" stroke="#1e1e1e" stroke-width="1"/><path d="M95.49,55.90 L76.26,55.90 L76.26,55.90 L76.26,34.07 L76.26,34.07 L98.82,34.07 L98.82,34.07 L98.82,52.46 L98.64,53.78 L97.93,54.92 L96.82,55.67 L95.49,55.90 L95.49,55.90 Z" fill="#0078d4" stroke="#1e1e1e" stroke-width="1" stroke-linejoin="round"/><rect x="53.98" y="34.07" width="22.45" height="21.60" fill="#83b9f9" stroke="#1e1e1e" stroke-width="1"/><rect x="31.53" y="34.07" width="22.45" height="21.60" fill="#0078d4" stroke="#1e1e1e" stroke-width="1"/><path d="M60.52,98.15 L5.02,98.15 L4.40,98.02 L3.86,97.68 L3.08,96.55 L2.82,95.15 L2.93,94.46 L3.22,93.86 L22.34,65.66 L22.51,65.19 L22.56,64.70 L22.56,46.25 L22.32,45.53 L21.66,45.12 L20.59,45.12 L19.49,44.83 L18.68,44.02 L18.39,42.92 L18.39,41.97 L18.70,40.89 L19.50,40.11 L20.59,39.82 L45.12,39.82 L46.22,40.09 L47.03,40.88 L47.32,41.97 L47.32,42.98 L47.03,44.07 L46.22,44.86 L45.12,45.12 L43.94,45.12 L43.16,45.43 L42.81,46.20 L42.81,64.70 L42.92,65.35 L43.21,65.94 L62.38,93.80 L62.65,94.43 L62.75,95.12 L62.49,96.55 L61.71,97.68 L61.16,98.02 L60.52,98.15 Z" fill="#2ecaec" stroke="#1e1e1e" stroke-width="1" stroke-linejoin="round"/><path d="M12.35,90.25 L26.23,70.00 L26.91,68.63 L27.13,67.12 L27.13,58.66 L27.35,57.84 L27.95,57.25 L28.77,57.03 L36.66,57.03 L37.47,57.25 L38.05,57.85 L38.24,58.66 L38.24,67.69 L38.41,68.69 L38.86,69.60 L53.08,90.25 L53.33,91.11 L52.91,91.89 L52.06,92.17 L13.31,92.17 L12.49,91.87 L12.10,91.09 L12.35,90.25 Z" fill="#ffffff" stroke="#1e1e1e" stroke-width="1" stroke-linejoin="round"/></svg>