<svg xmlns="http://www.w3.org/2000/svg" viewBox="-1.96 7.19 100.00 82.11"><path d="M38.12,20.60 L42.84,21.02 L47.40,22.27 L51.68,24.31 L55.53,27.08 L58.83,30.47 L61.47,34.40 L63.38,38.74 L74.77,36.89 L72.96,31.86 L70.46,27.13 L67.32,22.80 L63.61,18.96 L59.40,15.67 L54.76,13.00 L49.80,11.01 L44.61,9.73 L39.29,9.19 L33.95,9.40 L28.69,10.35 L23.62,12.04 L25.26,23.92 L29.33,22.09 L33.66,20.97 L38.12,20.60 L38.12,20.60 Z" fill="#006aba" stroke="#1e1e1e" stroke-width="1" stroke-linejoin="round"/><path d="M63.24,38.41 L64.38,42.76 L64.76,47.25 L64.37,51.84 L63.20,56.29 L61.28,60.48 L58.67,64.28 L55.44,67.57 L51.70,70.25 L47.55,72.25 L43.12,73.51 L38.53,73.98 L33.94,73.66 L29.46,72.55 L25.25,70.69 L21.42,68.14 L18.08,64.96 L15.34,61.25 L13.28,57.13 L11.96,52.72 L11.42,48.14 L11.68,43.54 L12.72,39.05 L14.52,34.81 L17.02,30.94 L19.75,27.36 L20.09,27.30 L20.42,27.42 L20.83,27.71 L26.94,32.08 L27.44,32.19 L27.88,31.91 L28.00,31.41 L25.01,13.21 L24.68,12.48 L24.02,12.01 L23.22,11.93 L5.05,14.94 L4.60,15.22 L4.48,15.74 L4.76,16.19 L10.87,20.56 L10.87,20.56 L7.27,24.82 L4.33,29.56 L2.12,34.68 L0.68,40.07 L0.04,45.61 L0.21,51.18 L1.20,56.67 L2.98,61.95 L5.51,66.92 L8.74,71.47 L12.60,75.49 L17.00,78.91 L21.86,81.65 L27.06,83.65 L32.50,84.87 L38.07,85.28 L43.63,84.88 L49.07,83.67 L54.28,81.67 L59.14,78.94 L63.55,75.53 L67.41,71.50 L70.65,66.96 L73.18,62.00 L74.97,56.71 L75.96,51.23 L76.14,45.65 L75.51,40.11 L74.08,34.73 L63.24,38.41 Z" fill="#1b83dc" stroke="#1e1e1e" stroke-width="1" stroke-linejoin="round"/><path d="M92.49,81.89 L93.84,81.63 L94.99,80.87 L95.76,79.73 L96.03,78.38 L96.04,78.16 L96.03,77.95 L95.28,73.90 L94.05,70.13 L92.34,66.71 L91.31,65.16 L90.15,63.73 L88.86,62.43 L87.44,61.27 L85.90,60.26 L84.23,59.41 L82.44,58.73 L80.50,58.24 L78.44,57.93 L76.25,57.83 L74.02,57.91 L71.92,58.18 L69.96,58.61 L68.14,59.22 L66.45,59.98 L64.90,60.91 L63.47,61.98 L62.18,63.21 L61.02,64.59 L59.98,66.11 L59.07,67.76 L58.29,69.56 L57.09,73.52 L56.39,77.98 L56.52,79.36 L57.17,80.58 L58.23,81.47 L59.55,81.88 L59.91,81.88 L92.49,81.89 Z" fill="#32bedd" stroke="#1e1e1e" stroke-width="1" stroke-linejoin="round"/><ellipse cx="76.22" cy="49.33" rx="11.13" ry="11.13" fill="#29acce" stroke="#1e1e1e" stroke-width="1"/><path d="M75.99,87.30 L77.71,86.97 L79.17,86.00 L80.15,84.55 L80.49,82.83 L80.49,82.56 L80.46,82.30 L80.06,79.68 L79.50,77.15 L78.80,74.70 L77.94,72.34 L76.93,70.11 L75.77,68.00 L74.45,66.02 L72.97,64.20 L71.34,62.55 L69.54,61.07 L67.58,59.79 L65.46,58.71 L63.17,57.84 L60.71,57.21 L58.09,56.82 L55.30,56.69 L52.46,56.80 L49.79,57.14 L47.30,57.69 L44.98,58.46 L42.84,59.43 L40.86,60.60 L39.05,61.97 L37.40,63.54 L35.93,65.29 L34.61,67.21 L33.46,69.32 L32.46,71.60 L31.63,74.04 L30.95,76.64 L30.42,79.39 L30.05,82.30 L30.21,84.05 L31.04,85.61 L32.39,86.73 L34.07,87.25 L34.30,87.25 L34.53,87.25 L75.99,87.30 Z" fill="#50e6ff" stroke="#1e1e1e" stroke-width="1" stroke-linejoin="round"/><ellipse cx="55.30" cy="45.90" rx="14.15" ry="14.15" fill="#45d8f3" stroke="#1e1e1e" stroke-width="1"/></svg>