<svg xmlns="http://www.w3.org/2000/svg" viewBox="-1.96 7.19 99.97 82.09"><path d="M38.11,20.59 L42.82,21.02 L47.39,22.27 L51.66,24.31 L55.51,27.07 L58.81,30.47 L61.45,34.39 L63.37,38.73 L74.75,36.87 L72.94,31.85 L70.44,27.12 L67.30,22.80 L63.59,18.95 L59.38,15.66 L54.75,13.00 L49.79,11.00 L44.60,9.72 L39.28,9.19 L33.94,9.40 L28.68,10.35 L23.61,12.03 L25.25,23.91 L29.33,22.08 L33.65,20.96 L38.11,20.59 L38.11,20.59 Z" fill="#006aba" stroke="#1e1e1e" stroke-width="1" stroke-linejoin="round"/><path d="M63.22,38.40 L64.36,42.75 L64.74,47.23 L64.35,51.82 L63.18,56.28 L61.26,60.46 L58.65,64.26 L55.43,67.55 L51.68,70.23 L47.53,72.23 L43.10,73.48 L38.52,73.96 L33.93,73.64 L29.46,72.53 L25.24,70.67 L21.41,68.12 L18.08,64.94 L15.34,61.23 L13.28,57.11 L11.96,52.70 L11.42,48.13 L11.68,43.53 L12.72,39.04 L14.52,34.80 L17.02,30.93 L19.74,27.35 L20.09,27.29 L20.42,27.41 L20.82,27.70 L26.93,32.07 L27.43,32.18 L27.87,31.90 L27.99,31.40 L25.00,13.21 L24.67,12.47 L24.02,12.01 L23.22,11.93 L5.05,14.93 L4.60,15.21 L4.48,15.73 L4.76,16.18 L10.86,20.55 L10.86,20.55 L7.27,24.81 L4.33,29.55 L2.12,34.67 L0.68,40.05 L0.04,45.59 L0.21,51.16 L1.20,56.65 L2.98,61.93 L5.51,66.90 L8.74,71.45 L12.59,75.47 L17.00,78.89 L21.85,81.63 L27.05,83.63 L32.49,84.85 L38.05,85.26 L43.61,84.85 L49.06,83.64 L54.26,81.65 L59.12,78.92 L63.53,75.50 L67.39,71.48 L70.62,66.94 L73.16,61.98 L74.95,56.70 L75.94,51.21 L76.12,45.64 L75.49,40.10 L74.05,34.71 L63.22,38.40 Z" fill="#1b83dc" stroke="#1e1e1e" stroke-width="1" stroke-linejoin="round"/><path d="M92.46,81.87 L93.81,81.60 L94.96,80.84 L95.73,79.70 L96.00,78.35 L96.01,78.14 L96.00,77.93 L95.25,73.88 L94.02,70.10 L92.32,66.69 L91.28,65.14 L90.12,63.71 L88.83,62.41 L87.42,61.25 L85.88,60.24 L84.21,59.39 L82.41,58.71 L80.48,58.22 L78.42,57.91 L76.22,57.81 L73.99,57.90 L71.90,58.16 L69.94,58.60 L68.12,59.20 L66.43,59.96 L64.88,60.89 L63.45,61.97 L62.16,63.19 L61.00,64.57 L59.96,66.09 L59.05,67.74 L58.27,69.53 L57.08,73.50 L56.37,77.96 L56.50,79.34 L57.15,80.56 L58.21,81.44 L59.54,81.85 L59.89,81.85 L92.46,81.87 Z" fill="#32bedd" stroke="#1e1e1e" stroke-width="1" stroke-linejoin="round"/><ellipse cx="76.20" cy="49.32" rx="11.13" ry="11.13" fill="#29acce" stroke="#1e1e1e" stroke-width="1"/><path d="M75.97,87.27 L77.69,86.94 L79.14,85.97 L80.12,84.52 L80.47,82.81 L80.46,82.54 L80.44,82.27 L80.03,79.66 L79.48,77.12 L78.78,74.67 L77.92,72.32 L76.91,70.09 L75.75,67.98 L74.43,66.00 L72.95,64.18 L71.32,62.53 L69.52,61.05 L67.56,59.77 L65.44,58.69 L63.15,57.83 L60.70,57.19 L58.07,56.80 L55.28,56.67 L52.44,56.79 L49.78,57.12 L47.29,57.67 L44.97,58.44 L42.82,59.41 L40.85,60.59 L39.04,61.96 L37.39,63.52 L35.91,65.27 L34.60,67.19 L33.45,69.30 L32.45,71.57 L31.62,74.01 L30.94,76.61 L30.41,79.37 L30.04,82.27 L30.21,84.02 L31.03,85.58 L32.38,86.70 L34.06,87.22 L34.29,87.23 L34.52,87.22 L75.97,87.27 Z" fill="#50e6ff" stroke="#1e1e1e" stroke-width="1" stroke-linejoin="round"/><ellipse cx="55.28" cy="45.88" rx="14.15" ry="14.15" fill="#45d8f3" stroke="#1e1e1e" stroke-width="1"/></svg>