<svg xmlns="http://www.w3.org/2000/svg" viewBox="-0.54 -0.61 100.00 99.88"><path d="M17.27,60.19 L16.73,57.87 L16.34,55.47 L16.03,50.56 L16.34,45.65 L16.73,43.25 L17.27,40.93 L30.45,40.93 L30.13,44.84 L29.98,48.87 L31.59,48.08 L33.34,47.55 L35.16,47.32 L36.98,47.44 L37.46,40.92 L53.92,40.92 L54.93,38.59 L56.36,36.57 L58.15,34.93 L60.24,33.70 L38.70,33.70 L40.29,28.02 L42.27,23.14 L44.51,19.32 L46.66,16.58 L47.71,15.63 L48.75,14.94 L49.78,14.53 L50.80,14.40 L51.83,14.53 L52.86,14.94 L53.89,15.63 L54.94,16.58 L57.09,19.31 L59.34,23.14 L61.19,27.67 L62.71,32.89 L64.52,32.69 L66.35,32.80 L68.15,33.22 L69.84,33.92 L70.07,33.71 L70.04,33.71 L68.92,29.02 L67.55,24.68 L65.94,20.72 L64.12,17.18 L67.77,19.02 L71.15,21.28 L74.25,23.91 L77.05,26.90 L81.76,21.56 L78.70,18.40 L75.52,15.66 L72.24,13.32 L68.86,11.38 L65.42,9.82 L61.93,8.63 L58.41,7.79 L54.87,7.31 L51.34,7.15 L47.83,7.32 L44.36,7.80 L40.95,8.58 L37.61,9.64 L34.37,10.98 L31.24,12.58 L28.24,14.43 L25.39,16.51 L22.70,18.82 L20.20,21.35 L17.90,24.08 L15.82,27.00 L13.99,30.09 L12.40,33.36 L11.10,36.77 L10.08,40.33 L9.38,44.02 L9.00,47.82 L8.98,51.73 L9.31,55.74 L10.03,59.83 L11.16,63.98 L12.70,68.20 L18.11,63.74 L22.66,60.19 L17.27,60.19 L17.27,60.19 Z" fill="#249ec3" stroke="#249ec3" stroke-width="1" stroke-linejoin="round"/><path d="M37.49,17.18 L35.67,20.72 L34.06,24.68 L32.69,29.02 L31.57,33.71 L20.03,33.71 L21.55,31.00 L23.29,28.45 L25.23,26.08 L27.36,23.88 L29.66,21.88 L32.12,20.09 L34.74,18.52 L37.49,17.18 Z" fill="#ffffff" stroke="#ffffff" stroke-width="1" stroke-linejoin="round"/><path d="M88.19,31.35 L83.28,36.55 L78.90,40.93 L84.34,40.93 L84.89,43.26 L85.27,45.65 L85.59,50.56 L85.27,55.48 L84.89,57.87 L84.34,60.20 L71.16,60.20 L71.58,54.32 L70.00,55.35 L68.26,56.11 L66.40,56.56 L64.47,56.65 L64.16,60.19 L47.00,60.19 L46.68,62.16 L46.02,64.08 L45.05,65.86 L43.82,67.41 L62.91,67.41 L61.32,73.09 L59.34,77.97 L57.09,81.80 L54.94,84.53 L53.89,85.48 L52.86,86.17 L51.83,86.58 L50.80,86.72 L49.78,86.58 L48.75,86.17 L47.71,85.49 L46.66,84.53 L44.51,81.80 L42.27,77.97 L40.75,74.39 L39.44,70.34 L37.71,70.84 L35.90,71.04 L34.08,70.92 L32.31,70.49 L33.36,74.25 L34.58,77.77 L35.96,81.00 L37.49,83.93 L33.58,81.93 L29.96,79.46 L26.68,76.54 L23.76,73.24 L21.13,75.34 L18.39,77.85 L21.46,81.30 L24.66,84.30 L27.98,86.88 L31.41,89.03 L34.91,90.78 L38.48,92.13 L42.09,93.11 L45.72,93.71 L49.35,93.96 L52.96,93.87 L56.54,93.45 L60.06,92.71 L63.50,91.67 L66.85,90.34 L70.08,88.73 L73.17,86.85 L76.11,84.73 L78.87,82.36 L81.44,79.77 L83.80,76.97 L85.92,73.96 L87.79,70.77 L89.38,67.40 L90.68,63.87 L91.67,60.19 L92.33,56.37 L92.63,52.43 L92.56,48.38 L92.11,44.24 L91.24,40.01 L89.94,35.70 L88.19,31.34 L88.19,31.35 Z" fill="#249ec3" stroke="#249ec3" stroke-width="1" stroke-linejoin="round"/><path d="M64.12,83.94 L65.94,80.40 L67.55,76.44 L68.92,72.10 L70.04,67.41 L81.59,67.41 L80.06,70.12 L78.32,72.66 L76.38,75.04 L74.26,77.24 L71.95,79.24 L69.49,81.03 L66.88,82.60 L64.12,83.94 Z" fill="#ffffff" stroke="#ffffff" stroke-width="1" stroke-linejoin="round"/><path d="M27.76,55.96 L27.22,58.27 L27.29,60.56 L21.05,65.31 L17.08,68.44 L12.97,71.96 L9.04,75.77 L5.60,79.79 L4.16,81.85 L2.96,83.92 L2.05,86.01 L1.46,88.09 L1.55,90.52 L2.09,92.53 L3.05,94.13 L4.36,95.36 L5.97,96.27 L7.83,96.86 L9.88,97.19 L12.06,97.28 L14.32,97.16 L16.61,96.86 L21.05,95.87 L24.93,94.55 L27.82,93.17 L25.69,91.32 L23.67,89.36 L18.00,91.08 L13.61,91.98 L10.40,92.15 L9.20,91.98 L8.26,91.66 L7.57,91.20 L7.10,90.60 L6.85,89.89 L6.81,89.06 L7.29,87.11 L8.44,84.84 L10.16,82.34 L12.35,79.69 L14.89,76.96 L17.71,74.26 L20.68,71.65 L23.71,69.22 L26.70,67.06 L29.54,65.25 L31.21,66.68 L33.12,67.56 L35.17,67.90 L37.23,67.74 L39.21,67.09 L40.98,65.97 L42.44,64.40 L43.47,62.40 L43.98,60.44 L44.09,58.59 L43.83,56.89 L43.26,55.35 L42.41,53.99 L41.34,52.82 L40.08,51.87 L38.68,51.15 L37.18,50.68 L35.64,50.48 L34.08,50.57 L32.57,50.97 L31.13,51.68 L29.83,52.74 L28.69,54.16 L27.77,55.96 L27.76,55.96 Z" fill="#2faabc" stroke="#2faabc" stroke-width="1" stroke-linejoin="round"/><path d="M38.82,60.50 L38.45,61.23 L37.99,61.81 L36.88,62.53 L35.62,62.72 L34.37,62.45 L33.27,61.76 L32.48,60.73 L32.14,59.41 L32.19,58.66 L32.40,57.87 L32.77,57.13 L33.22,56.55 L34.34,55.83 L35.61,55.66 L36.87,55.95 L37.97,56.65 L38.77,57.69 L39.10,58.99 L39.05,59.72 L38.82,60.50 Z" fill="#ffffff" stroke="#ffffff" stroke-width="1" stroke-linejoin="round"/><path d="M87.60,1.40 L85.36,1.62 L82.97,2.15 L80.53,2.92 L78.13,3.86 L73.80,5.91 L70.73,7.68 L73.06,9.26 L75.28,10.97 L79.27,9.01 L81.84,7.94 L84.53,7.07 L87.14,6.58 L88.35,6.54 L89.48,6.66 L90.49,6.97 L91.36,7.48 L92.06,8.24 L92.57,9.25 L92.17,11.15 L91.56,12.89 L90.78,14.51 L89.85,16.05 L87.66,19.08 L85.25,22.33 L81.98,26.27 L78.69,29.85 L74.90,33.60 L70.15,38.06 L68.10,36.81 L66.12,36.13 L64.24,35.98 L62.49,36.28 L60.90,36.98 L59.50,38.01 L58.31,39.32 L57.38,40.84 L56.73,42.51 L56.39,44.26 L56.39,46.05 L56.76,47.80 L57.54,49.46 L58.75,50.97 L60.42,52.26 L62.59,53.27 L63.74,53.53 L64.87,53.60 L65.97,53.51 L67.05,53.26 L69.04,52.33 L70.74,50.92 L72.08,49.13 L72.94,47.05 L73.24,44.79 L73.16,43.62 L72.89,42.44 L79.26,36.25 L83.27,32.24 L87.36,27.82 L91.17,23.10 L92.87,20.67 L94.36,18.22 L95.61,15.76 L96.58,13.31 L97.21,10.88 L97.46,8.50 L97.08,6.78 L96.33,5.28 L95.28,4.01 L93.98,2.98 L92.50,2.19 L90.90,1.66 L89.25,1.39 L87.60,1.40 L87.60,1.40 Z" fill="#2faabc" stroke="#2faabc" stroke-width="1" stroke-linejoin="round"/><path d="M63.88,48.26 L63.14,47.96 L62.53,47.56 L61.71,46.49 L61.38,45.21 L61.51,43.89 L62.04,42.68 L62.94,41.75 L64.16,41.25 L64.88,41.21 L65.67,41.34 L66.41,41.64 L67.02,42.05 L67.83,43.11 L68.16,44.39 L68.04,45.71 L67.51,46.92 L66.61,47.85 L65.39,48.35 L64.67,48.39 L63.88,48.26 Z" fill="#ffffff" stroke="#ffffff" stroke-width="1" stroke-linejoin="round"/></svg>