<svg xmlns="http://www.w3.org/2000/svg" viewBox="-0.58 -0.65 97.24 97.13"><path d="M16.77,58.46 L16.24,56.20 L15.87,53.87 L15.57,49.10 L15.87,44.33 L16.24,42.01 L16.77,39.75 L29.57,39.75 L29.26,43.55 L29.11,47.47 L30.68,46.70 L32.38,46.18 L34.14,45.96 L35.92,46.07 L36.38,39.74 L52.37,39.74 L53.34,37.48 L54.74,35.52 L56.48,33.92 L58.51,32.73 L37.58,32.73 L39.13,27.21 L41.05,22.47 L43.23,18.76 L45.32,16.11 L46.34,15.18 L47.35,14.51 L48.35,14.12 L49.34,13.98 L50.34,14.11 L51.34,14.51 L52.34,15.18 L53.36,16.10 L55.45,18.76 L57.63,22.47 L59.42,26.87 L60.90,31.95 L62.67,31.75 L64.45,31.86 L66.18,32.26 L67.83,32.94 L68.05,32.74 L68.03,32.74 L66.94,28.18 L65.61,23.97 L64.04,20.12 L62.28,16.69 L65.82,18.47 L69.10,20.67 L72.12,23.23 L74.83,26.12 L79.41,20.94 L76.44,17.87 L73.35,15.21 L70.16,12.94 L66.88,11.05 L63.54,9.53 L60.15,8.38 L56.73,7.57 L53.30,7.10 L49.86,6.95 L46.45,7.11 L43.08,7.58 L39.77,8.33 L36.53,9.36 L33.38,10.66 L30.34,12.22 L27.43,14.01 L24.66,16.04 L22.05,18.28 L19.62,20.74 L17.39,23.39 L15.37,26.22 L13.58,29.23 L12.05,32.40 L10.78,35.71 L9.79,39.17 L9.11,42.75 L8.74,46.45 L8.72,50.25 L9.04,54.13 L9.74,58.10 L10.83,62.14 L12.33,66.23 L17.59,61.90 L22.01,58.46 L16.77,58.46 L16.77,58.46 Z" fill="#249ec3" stroke="#249ec3" stroke-width="1" stroke-linejoin="round"/><path d="M36.41,16.69 L34.64,20.12 L33.08,23.97 L31.75,28.18 L30.66,32.74 L19.45,32.74 L20.93,30.11 L22.62,27.63 L24.50,25.32 L26.57,23.19 L28.80,21.25 L31.20,19.51 L33.74,17.98 L36.41,16.69 Z" fill="#ffffff" stroke="#ffffff" stroke-width="1" stroke-linejoin="round"/><path d="M85.65,30.45 L80.88,35.50 L76.63,39.75 L81.91,39.75 L82.44,42.01 L82.82,44.34 L83.12,49.11 L82.82,53.88 L82.44,56.21 L81.91,58.46 L69.11,58.46 L69.52,52.76 L67.98,53.75 L66.29,54.49 L64.49,54.93 L62.62,55.02 L62.31,58.46 L45.65,58.46 L45.34,60.37 L44.69,62.24 L43.75,63.97 L42.56,65.47 L61.10,65.47 L59.55,70.99 L57.63,75.73 L55.45,79.44 L53.36,82.10 L52.34,83.02 L51.34,83.69 L50.34,84.09 L49.34,84.22 L48.35,84.09 L47.35,83.69 L46.34,83.03 L45.32,82.10 L43.23,79.44 L41.05,75.73 L39.58,72.25 L38.31,68.32 L36.62,68.80 L34.86,68.99 L33.10,68.88 L31.38,68.46 L32.40,72.11 L33.59,75.53 L34.92,78.67 L36.41,81.51 L32.61,79.57 L29.10,77.17 L25.91,74.34 L23.08,71.13 L20.52,73.17 L17.86,75.61 L20.84,78.96 L23.95,81.88 L27.18,84.38 L30.51,86.47 L33.91,88.17 L37.37,89.48 L40.88,90.43 L44.40,91.01 L47.93,91.26 L51.44,91.17 L54.91,90.76 L58.33,90.04 L61.67,89.03 L64.92,87.74 L68.06,86.18 L71.06,84.36 L73.92,82.29 L76.60,79.99 L79.10,77.48 L81.39,74.75 L83.45,71.83 L85.26,68.73 L86.81,65.46 L88.07,62.03 L89.03,58.46 L89.67,54.75 L89.97,50.92 L89.90,46.99 L89.46,42.96 L88.61,38.85 L87.35,34.67 L85.65,30.44 L85.65,30.45 Z" fill="#249ec3" stroke="#249ec3" stroke-width="1" stroke-linejoin="round"/><path d="M62.28,81.52 L64.04,78.09 L65.61,74.24 L66.94,70.02 L68.03,65.47 L79.24,65.47 L77.76,68.10 L76.07,70.57 L74.18,72.88 L72.12,75.02 L69.88,76.96 L67.49,78.70 L64.95,80.22 L62.28,81.52 Z" fill="#ffffff" stroke="#ffffff" stroke-width="1" stroke-linejoin="round"/><path d="M26.97,54.35 L26.44,56.59 L26.51,58.82 L20.45,63.43 L16.59,66.48 L12.60,69.89 L8.78,73.59 L5.44,77.49 L4.04,79.49 L2.88,81.51 L1.99,83.54 L1.42,85.56 L1.50,87.92 L2.03,89.86 L2.96,91.42 L4.24,92.62 L5.80,93.49 L7.60,94.08 L9.59,94.39 L11.71,94.48 L13.91,94.36 L16.13,94.07 L20.44,93.11 L24.21,91.83 L27.02,90.49 L24.95,88.69 L22.99,86.78 L17.48,88.46 L13.22,89.34 L10.10,89.50 L8.94,89.34 L8.02,89.02 L7.35,88.57 L6.90,88.00 L6.65,87.30 L6.61,86.50 L7.08,84.61 L8.20,82.40 L9.87,79.97 L11.99,77.39 L14.47,74.75 L17.20,72.12 L20.08,69.59 L23.03,67.23 L25.93,65.13 L28.69,63.37 L30.31,64.76 L32.17,65.61 L34.15,65.95 L36.16,65.79 L38.08,65.16 L39.80,64.07 L41.22,62.54 L42.22,60.61 L42.72,58.70 L42.82,56.91 L42.57,55.25 L42.01,53.76 L41.19,52.43 L40.15,51.30 L38.92,50.38 L37.56,49.68 L36.11,49.22 L34.61,49.03 L33.10,49.12 L31.63,49.50 L30.24,50.20 L28.97,51.23 L27.87,52.61 L26.97,54.35 L26.97,54.35 Z" fill="#2faabc" stroke="#2faabc" stroke-width="1" stroke-linejoin="round"/><path d="M37.70,58.76 L37.34,59.47 L36.90,60.03 L35.82,60.73 L34.59,60.92 L33.38,60.65 L32.31,59.98 L31.55,58.98 L31.22,57.70 L31.26,56.98 L31.47,56.20 L31.82,55.48 L32.27,54.92 L33.35,54.23 L34.58,54.06 L35.81,54.34 L36.88,55.02 L37.65,56.03 L37.98,57.30 L37.92,58.01 L37.70,58.76 Z" fill="#ffffff" stroke="#ffffff" stroke-width="1" stroke-linejoin="round"/><path d="M85.08,1.36 L82.90,1.57 L80.58,2.09 L78.21,2.84 L75.88,3.74 L71.68,5.74 L68.69,7.46 L70.95,9.00 L73.11,10.66 L76.99,8.75 L79.49,7.72 L82.10,6.87 L84.63,6.39 L85.81,6.35 L86.90,6.47 L87.88,6.77 L88.73,7.27 L89.41,8.00 L89.91,8.98 L89.52,10.83 L88.93,12.52 L88.17,14.09 L87.26,15.59 L85.14,18.53 L82.79,21.69 L79.62,25.51 L76.42,28.99 L72.74,32.63 L68.13,36.96 L66.14,35.75 L64.22,35.09 L62.40,34.94 L60.69,35.24 L59.15,35.92 L57.79,36.92 L56.64,38.19 L55.73,39.66 L55.10,41.28 L54.77,42.99 L54.77,44.73 L55.13,46.43 L55.88,48.04 L57.06,49.50 L58.68,50.75 L60.79,51.73 L61.90,51.99 L63.00,52.06 L64.08,51.97 L65.12,51.72 L67.05,50.82 L68.71,49.45 L70.00,47.71 L70.84,45.69 L71.14,43.50 L71.05,42.36 L70.79,41.22 L76.98,35.20 L80.87,31.32 L84.84,27.02 L88.55,22.44 L90.20,20.08 L91.65,17.70 L92.86,15.31 L93.80,12.93 L94.41,10.57 L94.66,8.26 L94.29,6.59 L93.56,5.13 L92.54,3.89 L91.28,2.89 L89.84,2.13 L88.29,1.61 L86.68,1.35 L85.08,1.36 L85.08,1.36 Z" fill="#2faabc" stroke="#2faabc" stroke-width="1" stroke-linejoin="round"/><path d="M62.04,46.87 L61.32,46.58 L60.73,46.19 L59.94,45.15 L59.62,43.91 L59.74,42.63 L60.25,41.45 L61.12,40.55 L62.31,40.06 L63.01,40.03 L63.78,40.15 L64.50,40.44 L65.09,40.84 L65.88,41.87 L66.20,43.11 L66.08,44.40 L65.57,45.57 L64.69,46.48 L63.51,46.96 L62.81,47.00 L62.04,46.87 Z" fill="#ffffff" stroke="#ffffff" stroke-width="1" stroke-linejoin="round"/></svg>