<svg xmlns="http://www.w3.org/2000/svg" viewBox="-0.98 -2.00 97.97 100.00"><path d="M37.90,37.44 L91.47,37.44 L92.82,37.70 L93.96,38.46 L94.72,39.60 L94.99,40.95 L94.99,83.51 L94.72,84.86 L93.95,85.99 L92.81,86.76 L91.47,87.02 L69.55,87.02 L69.36,87.06 L69.19,87.15 L57.95,95.76 L57.14,96.00 L56.37,95.62 L56.07,94.83 L56.07,87.61 L55.90,87.20 L55.49,87.02 L37.88,87.02 L36.54,86.76 L35.40,85.99 L34.64,84.86 L34.38,83.51 L34.38,40.95 L34.65,39.60 L35.41,38.46 L36.55,37.70 L37.90,37.44 L37.90,37.44 Z" fill="#41d2ee" stroke="#1e1e1e" stroke-width="1" stroke-linejoin="round"/><path d="M61.61,3.51 L61.61,46.08 L61.35,47.42 L60.58,48.56 L59.45,49.32 L58.10,49.59 L40.54,49.59 L40.12,49.76 L39.95,50.17 L39.95,57.40 L39.64,58.19 L38.89,58.56 L38.07,58.33 L26.81,49.71 L26.64,49.63 L26.45,49.60 L4.53,49.60 L3.19,49.33 L2.05,48.57 L1.29,47.44 L1.02,46.09 L1.02,3.51 L1.29,2.17 L2.05,1.03 L3.19,0.27 L4.53,0.00 L58.10,0.00 L59.45,0.27 L60.59,1.03 L61.35,2.17 L61.61,3.51 L61.61,3.51 Z" fill="#2f8ce2" stroke="#1e1e1e" stroke-width="1" stroke-linejoin="round"/><path d="M27.55,32.28 L27.34,31.54 L27.20,30.78 L27.08,29.87 L27.04,28.96 L27.17,27.65 L27.60,26.41 L28.24,25.30 L29.01,24.27 L29.89,23.29 L30.83,22.36 L32.65,20.56 L33.41,19.68 L34.06,18.72 L34.49,17.69 L34.63,16.58 L34.53,15.65 L34.21,14.77 L33.71,14.07 L33.07,13.50 L32.27,13.04 L31.41,12.73 L30.42,12.53 L29.42,12.48 L26.98,12.89 L24.75,13.94 L22.87,15.54 L22.87,10.20 L25.33,9.00 L27.96,8.26 L30.68,8.00 L32.46,8.12 L34.21,8.49 L35.73,9.07 L37.12,9.92 L38.23,10.98 L39.07,12.27 L39.63,13.86 L39.79,15.54 L39.65,17.15 L39.19,18.70 L38.52,20.02 L37.68,21.24 L36.76,22.32 L35.74,23.31 L33.78,25.11 L32.97,25.99 L32.27,26.97 L31.82,28.00 L31.67,29.11 L31.72,30.01 L31.92,30.90 L32.15,31.59 L32.43,32.27 L27.55,32.28 Z" fill="#ffffff" stroke="#ffffff" stroke-width="1" stroke-linejoin="round"/><path d="M30.18,42.03 L28.93,41.80 L27.85,41.13 L27.12,40.15 L26.88,38.96 L27.12,37.77 L27.85,36.80 L28.92,36.12 L30.16,35.88 L31.41,36.12 L32.48,36.80 L33.21,37.78 L33.45,38.97 L33.21,40.16 L32.48,41.13 L31.41,41.80 L30.18,42.03 L30.18,42.03 Z" fill="#ffffff" stroke="#ffffff" stroke-width="1" stroke-linejoin="round"/></svg>