<svg xmlns="http://www.w3.org/2000/svg" viewBox="-2.00 -2.00 100.00 99.99"><path d="M38.93,37.43 L92.49,37.43 L93.83,37.70 L94.97,38.46 L95.73,39.60 L96.00,40.94 L96.00,83.51 L95.73,84.85 L94.97,85.99 L93.83,86.75 L92.49,87.02 L70.57,87.02 L70.38,87.05 L70.21,87.14 L58.97,95.75 L58.15,95.99 L57.39,95.62 L57.08,94.83 L57.08,87.61 L56.91,87.19 L56.50,87.02 L38.93,87.02 L37.59,86.75 L36.45,85.99 L35.69,84.85 L35.42,83.51 L35.42,40.94 L35.69,39.60 L36.45,38.47 L37.59,37.70 L38.93,37.43 L38.93,37.43 Z" fill="#50e6ff" stroke="#1e1e1e" stroke-width="1" stroke-linejoin="round"/><path d="M60.59,3.51 L60.59,46.07 L60.33,47.43 L59.56,48.57 L58.42,49.33 L57.07,49.60 L39.47,49.60 L39.06,49.77 L38.89,50.19 L38.89,57.41 L38.58,58.20 L37.82,58.58 L37.00,58.34 L25.79,49.71 L25.62,49.62 L25.43,49.60 L3.51,49.60 L2.17,49.33 L1.03,48.57 L0.27,47.42 L0.00,46.07 L0.00,3.51 L0.27,2.17 L1.03,1.03 L2.17,0.27 L3.51,0.00 L57.07,0.00 L58.41,0.27 L59.56,1.03 L60.32,2.17 L60.59,3.51 Z" fill="#2f8ce2" stroke="#1e1e1e" stroke-width="1" stroke-linejoin="round"/><path d="M43.20,22.72 L43.11,24.60 L42.83,26.45 L42.38,28.26 L41.76,30.01 L40.97,31.70 L40.01,33.29 L39.15,34.46 L38.21,35.56 L37.61,35.82 L37.01,35.56 L36.84,35.40 L36.61,34.82 L36.84,34.23 L37.68,33.25 L38.44,32.21 L40.02,29.27 L40.99,26.06 L41.32,22.70 L40.99,19.33 L40.58,17.71 L40.02,16.13 L39.29,14.62 L38.42,13.18 L37.66,12.14 L36.82,11.16 L36.59,10.57 L36.82,9.98 L36.99,9.82 L37.59,9.56 L38.19,9.82 L39.13,10.93 L39.98,12.10 L40.94,13.70 L41.72,15.38 L42.34,17.14 L42.79,18.94 L43.10,20.82 L43.20,22.72 L43.20,22.72 Z" fill="#ffffff" stroke="#ffffff" stroke-width="1" stroke-linejoin="round"/><path d="M36.93,17.60 L35.93,15.66 L34.63,13.90 L34.03,13.64 L33.42,13.90 L33.26,14.07 L33.01,14.62 L33.21,15.19 L34.75,17.45 L35.71,20.01 L36.04,22.73 L35.71,25.44 L34.75,28.00 L33.21,30.26 L33.01,30.84 L33.26,31.39 L33.42,31.56 L34.03,31.82 L34.63,31.56 L35.93,29.80 L36.93,27.86 L37.69,25.36 L37.94,22.75 L37.69,20.15 L36.93,17.64 L36.93,17.60 Z" fill="#ffffff" stroke="#ffffff" stroke-width="1" stroke-linejoin="round"/><path d="M30.33,19.20 L30.75,19.84 L31.09,20.52 L31.47,21.97 L31.47,23.47 L31.09,24.92 L30.76,25.60 L30.33,26.22 L30.16,26.78 L30.41,27.32 L30.57,27.48 L31.21,27.72 L31.82,27.41 L32.41,26.56 L32.89,25.63 L33.31,24.20 L33.45,22.71 L33.30,21.23 L32.87,19.80 L32.42,18.88 L31.84,18.03 L31.23,17.71 L30.58,17.96 L30.40,18.13 L30.16,18.65 L30.33,19.20 L30.33,19.20 Z" fill="#ffffff" stroke="#ffffff" stroke-width="1" stroke-linejoin="round"/><path d="M19.66,17.00 L17.67,17.00 L16.84,17.22 L16.23,17.83 L16.00,18.67 L16.00,26.76 L16.23,27.60 L16.84,28.21 L17.67,28.44 L19.67,28.44 L20.31,28.56 L20.85,28.93 L25.85,33.91 L26.12,34.09 L26.44,34.16 L26.44,34.16 L27.15,33.87 L27.44,33.16 L27.44,12.27 L27.14,11.55 L26.43,11.26 L26.43,11.26 L26.11,11.32 L25.83,11.50 L20.85,16.53 L20.31,16.88 L19.67,17.00 L19.66,17.00 Z" fill="#ffffff" stroke="#ffffff" stroke-width="1" stroke-linejoin="round"/><path d="M81.13,58.30 L82.97,58.70 L84.48,59.83 L85.38,61.49 L85.52,63.37 L84.86,65.13 L83.53,66.46 L81.76,67.12 L79.88,66.99 L78.23,66.08 L77.10,64.57 L76.70,62.73 L77.04,61.04 L78.00,59.60 L79.43,58.64 L81.13,58.30 L81.13,58.30 Z" fill="#ffffff" stroke="#ffffff" stroke-width="1" stroke-linejoin="round"/><path d="M62.57,62.77 L62.96,64.61 L64.09,66.12 L65.74,67.02 L67.62,67.16 L69.39,66.50 L70.72,65.17 L71.38,63.41 L71.25,61.53 L70.35,59.87 L68.84,58.74 L67.00,58.34 L65.30,58.68 L63.87,59.64 L62.90,61.07 L62.57,62.77 L62.57,62.77 Z" fill="#ffffff" stroke="#ffffff" stroke-width="1" stroke-linejoin="round"/><path d="M48.44,62.77 L48.84,64.61 L49.96,66.12 L51.62,67.02 L53.50,67.16 L55.26,66.50 L56.60,65.17 L57.26,63.41 L57.12,61.53 L56.22,59.87 L54.71,58.74 L52.87,58.34 L51.17,58.68 L49.74,59.64 L48.78,61.07 L48.44,62.77 L48.44,62.77 Z" fill="#ffffff" stroke="#ffffff" stroke-width="1" stroke-linejoin="round"/></svg>