<svg xmlns="http://www.w3.org/2000/svg" viewBox="-2.00 11.83 100.00 72.35"><path d="M77.37,39.81 L76.70,35.14 L75.25,30.66 L73.06,26.49 L70.19,22.75 L66.72,19.56 L62.76,17.01 L58.42,15.17 L53.83,14.10 L49.13,13.83 L44.28,14.22 L39.56,15.44 L35.12,17.45 L31.09,20.19 L27.60,23.59 L24.73,27.53 L22.59,31.90 L18.17,32.95 L14.00,34.73 L10.19,37.20 L6.86,40.29 L4.10,43.90 L2.00,47.92 L0.62,52.25 L-0.00,56.75 L0.50,61.26 L1.78,65.62 L3.80,69.69 L6.49,73.35 L9.78,76.48 L13.56,79.00 L17.72,80.82 L22.13,81.89 L26.67,82.18 L27.13,82.18 L74.56,82.18 L78.75,81.76 L82.77,80.53 L86.48,78.55 L89.73,75.88 L92.39,72.62 L94.37,68.91 L95.59,64.89 L96.00,60.70 L95.56,56.93 L94.46,53.29 L92.76,49.90 L90.49,46.86 L87.72,44.26 L84.55,42.18 L81.06,40.68 L77.37,39.81 Z" fill="#2487de" stroke="#1e1e1e" stroke-width="1" stroke-linejoin="round"/><path d="M73.53,54.39 L49.59,45.50 L48.98,47.03 L49.37,45.63 L28.12,40.95 L27.10,44.51 L45.03,48.40 L22.02,57.91 L23.79,61.07 L47.55,51.20 L51.80,69.92 L55.47,69.47 L51.14,50.14 L72.12,57.81 L73.53,54.39 Z" fill="#83b9f9" stroke="#1e1e1e" stroke-width="1" stroke-linejoin="round"/><path d="M24.43,45.87 L25.82,47.07 L27.56,47.65 L29.38,47.52 L31.02,46.70 L32.23,45.31 L32.81,43.58 L32.68,41.75 L31.86,40.11 L30.47,38.90 L28.73,38.33 L26.90,38.45 L25.26,39.27 L25.16,39.36 L24.00,40.75 L23.46,42.46 L23.61,44.26 L24.43,45.87 L24.43,45.87 Z" fill="#9cebff" stroke="#9cebff" stroke-width="1" stroke-linejoin="round"/><path d="M19.10,62.49 L20.50,63.69 L22.25,64.26 L24.09,64.12 L25.73,63.29 L26.93,61.89 L27.50,60.14 L27.36,58.30 L26.53,56.65 L25.13,55.45 L23.38,54.88 L21.54,55.02 L19.90,55.85 L18.70,57.25 L18.12,59.00 L18.26,60.84 L19.10,62.49 Z" fill="#9cebff" stroke="#9cebff" stroke-width="1" stroke-linejoin="round"/><path d="M68.50,58.38 L69.87,59.59 L71.60,60.17 L73.42,60.05 L75.06,59.24 L76.26,57.86 L76.84,56.13 L76.72,54.30 L75.90,52.67 L74.52,51.47 L72.79,50.89 L70.97,51.02 L69.33,51.84 L69.33,51.84 L68.14,53.19 L67.56,54.90 L67.68,56.70 L68.47,58.31 L68.50,58.38 Z" fill="#9cebff" stroke="#9cebff" stroke-width="1" stroke-linejoin="round"/><path d="M49.93,72.82 L51.30,74.01 L53.03,74.59 L54.85,74.46 L56.49,73.65 L57.69,72.27 L58.26,70.54 L58.14,68.72 L57.32,67.09 L55.94,65.89 L54.21,65.31 L52.39,65.44 L50.76,66.26 L50.76,66.26 L49.56,67.61 L48.96,69.32 L49.07,71.12 L49.87,72.75 L49.93,72.82 Z" fill="#9cebff" stroke="#9cebff" stroke-width="1" stroke-linejoin="round"/><path d="M62.59,48.20 L63.21,47.46 L63.21,46.50 L62.59,45.76 L52.27,39.79 L41.91,33.82 L40.95,33.64 L40.10,34.12 L39.78,35.04 L39.78,58.92 L40.10,59.84 L40.95,60.33 L41.91,60.14 L52.27,54.18 L62.59,48.20 Z" fill="#c3f1ff" stroke="#1e1e1e" stroke-width="1" stroke-linejoin="round"/></svg>