<svg xmlns="http://www.w3.org/2000/svg" viewBox="-0.29 3.81 100.00 91.73"><path d="M97.71,40.88 L97.28,37.65 L96.23,34.58 L94.57,31.78 L92.40,29.36 L89.78,27.44 L86.83,26.07 L83.66,25.32 L83.10,21.39 L81.80,17.65 L79.79,14.23 L77.16,11.26 L74.00,8.85 L70.44,7.10 L66.61,6.08 L62.65,5.81 L58.37,6.17 L54.26,7.40 L50.48,9.44 L47.20,12.21 L44.56,15.60 L42.65,19.45 L38.84,20.31 L35.28,21.92 L32.11,24.22 L29.48,27.11 L27.47,30.46 L26.19,34.16 L25.67,38.03 L26.20,41.83 L27.45,45.46 L29.39,48.77 L31.93,51.64 L34.98,53.96 L38.43,55.64 L42.13,56.62 L45.96,56.86 L46.86,56.85 L47.75,56.78 L80.59,56.78 L81.03,56.74 L81.46,56.65 L85.00,56.23 L88.37,55.07 L91.40,53.19 L93.96,50.71 L95.92,47.73 L97.19,44.40 L97.71,40.88 L97.71,40.88 Z" fill="#4395e7" stroke="#1e1e1e" stroke-width="1" stroke-linejoin="round"/><path d="M59.49,55.01 L59.60,57.39 L61.96,57.70 L65.13,58.51 L68.02,60.04 L70.48,62.19 L72.38,64.85 L73.61,67.88 L74.10,71.12 L73.67,74.19 L72.58,77.09 L70.89,79.69 L68.68,81.87 L66.05,83.51 L63.13,84.54 L60.05,84.92 L59.81,84.92 L59.63,84.95 L59.44,84.91 L23.00,84.91 L19.54,84.78 L16.17,83.98 L12.95,82.50 L10.06,80.43 L7.74,77.78 L5.97,74.72 L4.93,71.08 L4.72,67.30 L5.37,63.56 L6.84,60.07 L9.06,57.00 L11.36,54.96 L13.99,53.37 L16.85,52.26 L19.87,51.67 L21.60,51.46 L22.20,49.84 L23.93,46.31 L26.34,43.21 L29.32,40.66 L32.75,38.80 L36.48,37.68 L40.36,37.35 L40.50,37.35 L44.08,37.59 L47.55,38.52 L50.77,40.10 L53.63,42.28 L56.00,44.97 L57.81,48.07 L58.99,51.46 L59.49,55.01 L59.49,55.01 Z" fill="#ffffff" stroke="#1e1e1e" stroke-width="1" stroke-linejoin="round"/><path d="M59.57,87.77 L59.10,87.67 L23.00,87.67 L19.09,87.50 L15.27,86.59 L11.56,84.89 L8.24,82.50 L5.52,79.43 L3.46,75.88 L2.36,72.35 L1.95,68.68 L2.23,65.00 L3.19,61.44 L4.80,58.11 L7.01,55.15 L9.69,52.77 L12.74,50.91 L16.08,49.61 L19.59,48.93 L19.59,48.88 L20.99,45.82 L22.85,43.00 L25.11,40.51 L27.73,38.39 L30.63,36.69 L33.75,35.47 L37.04,34.76 L40.39,34.59 L44.50,34.88 L48.48,35.95 L52.18,37.77 L55.46,40.27 L58.19,43.36 L60.27,46.92 L61.63,50.81 L62.22,54.89 L62.30,54.96 L65.57,55.74 L68.62,57.14 L71.32,59.13 L73.58,61.63 L75.29,64.52 L76.40,67.69 L76.84,71.02 L76.36,74.72 L75.08,78.22 L73.07,81.36 L70.43,83.99 L67.27,85.97 L63.76,87.22 L60.06,87.68 L59.57,87.77 Z" fill="#50e6ff" stroke="#1e1e1e" stroke-width="1" stroke-linejoin="round"/><path d="M40.30,40.11 L36.97,40.40 L33.77,41.37 L30.84,42.97 L28.29,45.14 L26.25,47.78 L24.79,50.79 L23.60,54.00 L20.20,54.40 L16.82,55.16 L13.70,56.68 L11.04,58.90 L9.21,61.47 L7.99,64.38 L7.46,67.49 L7.63,70.64 L8.50,73.67 L9.99,76.21 L11.94,78.43 L14.36,80.15 L17.06,81.37 L19.90,82.05 L22.81,82.16 L59.67,82.16 L59.73,82.16 L59.78,82.16 L62.71,81.79 L65.44,80.69 L67.81,78.93 L69.65,76.63 L70.85,73.94 L71.32,71.03 L70.75,67.96 L69.35,65.18 L67.24,62.88 L64.57,61.26 L61.57,60.43 L56.91,59.82 L56.71,55.12 L56.17,51.68 L54.90,48.44 L52.93,45.57 L50.39,43.19 L47.38,41.44 L44.06,40.40 L40.59,40.11 L40.30,40.11 Z" fill="#ffffff" stroke="#1e1e1e" stroke-width="1" stroke-linejoin="round"/><path d="M28.15,69.00 L28.15,67.35 L26.46,66.79 L26.03,65.63 L26.86,63.91 L26.86,63.71 L26.30,63.16 L25.67,62.49 L25.46,62.49 L23.80,63.32 L22.64,63.02 L21.94,61.16 L20.29,61.16 L19.73,62.86 L18.58,63.29 L16.65,62.38 L15.46,63.58 L15.46,63.77 L16.28,65.43 L15.82,66.59 L13.80,67.29 L13.80,68.95 L14.03,68.95 L15.79,69.54 L16.29,70.67 L15.36,72.60 L16.56,73.80 L16.76,73.80 L18.42,72.94 L19.57,73.40 L20.31,75.43 L21.96,75.43 L21.96,75.20 L22.57,73.40 L23.67,72.94 L25.63,73.83 L26.79,72.67 L26.79,72.44 L26.06,70.85 L26.39,69.68 L28.15,69.00 Z" fill="#0078d4" stroke="#0078d4" stroke-width="1" stroke-linejoin="round"/><path d="M21.15,70.53 L19.83,70.15 L18.94,69.10 L18.79,67.74 L19.43,66.52 L20.64,65.87 L22.00,65.99 L22.60,66.35 L23.07,66.86 L23.37,67.49 L23.47,68.17 L23.18,69.32 L22.38,70.18 L21.26,70.53 L21.15,70.53 Z" fill="#ffffff" stroke="#ffffff" stroke-width="1" stroke-linejoin="round"/><path d="M21.06,87.80 L17.10,87.37 L13.31,86.14 L9.84,84.17 L6.85,81.53 L4.45,78.34 L2.75,74.73 L1.83,70.85 L1.71,66.87 L2.40,62.94 L3.88,59.23 L6.07,55.91 L8.90,53.09 L12.24,50.91 L15.96,49.46 L19.89,48.79 L23.87,48.94 L27.75,49.89 L31.35,51.60 L34.52,54.02 L37.14,57.03 L39.09,60.50 L40.30,64.31 L40.71,68.27 L34.78,68.27 L34.36,64.94 L33.14,61.80 L31.19,59.07 L28.63,56.89 L25.61,55.41 L22.32,54.72 L18.96,54.86 L15.74,55.81 L12.85,57.53 L10.47,59.91 L8.74,62.79 L7.78,66.01 L7.64,69.37 L8.33,72.66 L9.80,75.69 L11.97,78.25 L14.71,80.21 L17.84,81.43 L21.18,81.85 L25.50,81.85 L25.67,81.85 L25.81,81.76 L25.87,81.70 L25.90,81.62 L25.91,81.54 L25.90,81.46 L25.90,76.64 L26.00,76.42 L26.19,76.27 L26.43,76.27 L26.65,76.37 L34.93,84.65 L34.95,84.79 L34.93,84.92 L34.87,85.05 L34.78,85.15 L26.50,93.43 L26.39,93.50 L26.26,93.53 L26.14,93.53 L26.02,93.49 L25.91,93.43 L25.83,93.33 L25.77,93.22 L25.75,93.10 L25.75,88.21 L25.72,88.05 L25.63,87.91 L25.49,87.82 L25.33,87.79 L21.06,87.79 L21.06,87.80 Z" fill="#0078d4" stroke="#1e1e1e" stroke-width="1" stroke-linejoin="round"/></svg>