<svg xmlns="http://www.w3.org/2000/svg" viewBox="-0.35 3.61 96.75 88.76"><path d="M94.40,39.49 L93.99,36.38 L92.97,33.41 L91.37,30.70 L89.27,28.37 L86.74,26.51 L83.89,25.19 L80.83,24.46 L80.29,20.67 L79.03,17.05 L77.09,13.75 L74.55,10.88 L71.50,8.55 L68.06,6.86 L64.36,5.87 L60.53,5.61 L56.40,5.96 L52.42,7.15 L48.77,9.12 L45.60,11.80 L43.05,15.07 L41.21,18.79 L37.53,19.62 L34.08,21.18 L31.03,23.40 L28.48,26.19 L26.54,29.43 L25.30,33.00 L24.81,36.75 L25.31,40.42 L26.52,43.92 L28.39,47.12 L30.85,49.89 L33.80,52.13 L37.13,53.76 L40.71,54.70 L44.41,54.93 L45.27,54.92 L46.13,54.86 L77.87,54.86 L78.29,54.82 L78.70,54.73 L82.12,54.33 L85.38,53.20 L88.31,51.39 L90.78,49.00 L92.67,46.12 L93.90,42.90 L94.40,39.49 L94.40,39.49 Z" fill="#4395e7" stroke="#1e1e1e" stroke-width="1" stroke-linejoin="round"/><path d="M57.48,53.15 L57.58,55.45 L59.86,55.75 L62.92,56.53 L65.72,58.00 L68.10,60.08 L69.93,62.66 L71.12,65.59 L71.59,68.71 L71.18,71.68 L70.13,74.48 L68.50,77.00 L66.36,79.09 L63.82,80.68 L60.99,81.68 L58.02,82.04 L57.78,82.04 L57.61,82.07 L57.42,82.04 L22.22,82.04 L18.88,81.91 L15.62,81.14 L12.51,79.71 L9.72,77.71 L7.48,75.14 L5.77,72.19 L4.76,68.67 L4.56,65.02 L5.19,61.41 L6.61,58.04 L8.75,55.07 L10.98,53.10 L13.51,51.56 L16.28,50.49 L19.20,49.92 L20.87,49.72 L21.45,48.15 L23.12,44.74 L25.45,41.75 L28.33,39.29 L31.64,37.49 L35.25,36.41 L39.00,36.09 L39.13,36.09 L42.59,36.32 L45.94,37.21 L49.05,38.74 L51.81,40.85 L54.11,43.45 L55.86,46.44 L56.99,49.72 L57.47,53.15 L57.48,53.15 Z" fill="#ffffff" stroke="#1e1e1e" stroke-width="1" stroke-linejoin="round"/><path d="M57.55,84.80 L57.10,84.70 L22.22,84.70 L18.44,84.54 L14.76,83.66 L11.17,82.01 L7.96,79.71 L5.34,76.74 L3.34,73.31 L2.28,69.90 L1.88,66.36 L2.15,62.80 L3.08,59.36 L4.64,56.15 L6.77,53.29 L9.36,50.99 L12.31,49.18 L15.53,47.93 L18.93,47.27 L18.93,47.23 L20.28,44.27 L22.07,41.55 L24.26,39.14 L26.79,37.09 L29.59,35.45 L32.61,34.27 L35.78,33.58 L39.02,33.42 L43.00,33.70 L46.84,34.73 L50.41,36.49 L53.58,38.91 L56.22,41.89 L58.23,45.33 L59.55,49.09 L60.11,53.03 L60.19,53.10 L63.35,53.85 L66.29,55.21 L68.91,57.13 L71.09,59.54 L72.75,62.33 L73.81,65.40 L74.24,68.62 L73.77,72.19 L72.54,75.57 L70.60,78.61 L68.04,81.14 L64.99,83.06 L61.60,84.27 L58.03,84.71 L57.55,84.80 Z" fill="#50e6ff" stroke="#1e1e1e" stroke-width="1" stroke-linejoin="round"/><path d="M38.93,38.75 L35.72,39.03 L32.63,39.97 L29.79,41.51 L27.34,43.61 L25.36,46.16 L23.95,49.07 L22.81,52.18 L19.51,52.56 L16.25,53.29 L13.24,54.77 L10.67,56.91 L8.90,59.39 L7.72,62.20 L7.21,65.20 L7.37,68.24 L8.21,71.17 L9.65,73.63 L11.54,75.78 L13.87,77.44 L16.48,78.62 L19.22,79.27 L22.04,79.38 L57.65,79.38 L57.71,79.38 L57.76,79.38 L60.59,79.02 L63.23,77.96 L65.52,76.26 L67.30,74.04 L68.45,71.44 L68.91,68.62 L68.35,65.66 L67.00,62.97 L64.96,60.75 L62.39,59.19 L59.48,58.39 L54.99,57.80 L54.79,53.25 L54.27,49.93 L53.04,46.80 L51.14,44.02 L48.68,41.73 L45.77,40.04 L42.57,39.03 L39.22,38.75 L38.93,38.75 Z" fill="#ffffff" stroke="#1e1e1e" stroke-width="1" stroke-linejoin="round"/><path d="M27.20,66.67 L27.20,65.07 L25.56,64.53 L25.15,63.41 L25.95,61.74 L25.95,61.55 L25.41,61.02 L24.81,60.37 L24.60,60.37 L23.00,61.18 L21.88,60.89 L21.20,59.09 L19.60,59.09 L19.07,60.73 L17.95,61.15 L16.09,60.27 L14.93,61.42 L14.93,61.62 L15.73,63.22 L15.29,64.34 L13.33,65.01 L13.33,66.61 L13.56,66.61 L15.26,67.19 L15.74,68.28 L14.84,70.14 L16.00,71.30 L16.19,71.30 L17.79,70.47 L18.91,70.92 L19.62,72.87 L21.22,72.87 L21.22,72.65 L21.80,70.92 L22.87,70.47 L24.76,71.33 L25.88,70.21 L25.88,69.99 L25.18,68.45 L25.50,67.32 L27.20,66.67 Z" fill="#0078d4" stroke="#0078d4" stroke-width="1" stroke-linejoin="round"/><path d="M20.43,68.14 L19.16,67.78 L18.30,66.76 L18.16,65.44 L18.77,64.27 L19.94,63.64 L21.26,63.76 L21.83,64.10 L22.29,64.60 L22.57,65.20 L22.67,65.87 L22.40,66.97 L21.62,67.80 L20.54,68.14 L20.43,68.14 Z" fill="#ffffff" stroke="#ffffff" stroke-width="1" stroke-linejoin="round"/><path d="M20.35,84.83 L16.52,84.41 L12.85,83.22 L9.51,81.32 L6.61,78.77 L4.30,75.69 L2.66,72.20 L1.77,68.45 L1.65,64.60 L2.32,60.81 L3.74,57.23 L5.87,54.01 L8.60,51.30 L11.83,49.19 L15.42,47.79 L19.22,47.14 L23.07,47.28 L26.81,48.20 L30.29,49.86 L33.35,52.19 L35.88,55.10 L37.77,58.46 L38.93,62.13 L39.33,65.96 L33.60,65.96 L33.20,62.74 L32.02,59.71 L30.14,57.07 L27.66,54.97 L24.74,53.54 L21.56,52.87 L18.32,53.00 L15.20,53.92 L12.41,55.58 L10.11,57.88 L8.45,60.67 L7.52,63.78 L7.38,67.03 L8.05,70.21 L9.47,73.12 L11.57,75.61 L14.21,77.49 L17.24,78.68 L20.46,79.08 L24.64,79.08 L24.80,79.08 L24.94,79.00 L24.99,78.93 L25.02,78.86 L25.03,78.78 L25.02,78.70 L25.02,74.05 L25.12,73.83 L25.30,73.69 L25.53,73.69 L25.74,73.79 L33.74,81.79 L33.76,81.92 L33.74,82.05 L33.69,82.17 L33.60,82.27 L25.60,90.27 L25.49,90.34 L25.38,90.37 L25.26,90.37 L25.14,90.33 L25.04,90.27 L24.95,90.18 L24.90,90.07 L24.88,89.95 L24.88,85.22 L24.85,85.07 L24.76,84.94 L24.63,84.85 L24.47,84.82 L20.35,84.82 L20.35,84.83 Z" fill="#0078d4" stroke="#1e1e1e" stroke-width="1" stroke-linejoin="round"/></svg>