<svg xmlns="http://www.w3.org/2000/svg" viewBox="-2.00 -2.05 99.89 100.00"><path d="M92.06,20.78 L87.21,20.78 L85.74,20.73 L84.28,20.78 L82.84,20.46 L81.65,19.59 L80.90,18.32 L80.72,16.86 L81.14,15.45 L83.21,11.72 L81.92,10.84 L80.50,10.18 L75.54,19.02 L74.72,20.00 L73.61,20.65 L72.35,20.88 L67.92,20.88 L67.05,20.99 L66.22,21.31 L66.22,21.31 L57.86,26.64 L57.43,26.71 L57.00,26.64 L28.08,26.64 L27.30,26.90 L26.77,27.53 L26.64,28.34 L26.64,54.02 L17.31,56.90 L18.01,59.88 L26.64,58.60 L26.64,74.05 L26.84,74.82 L27.41,75.39 L28.18,75.60 L78.10,75.60 L84.23,83.53 L86.84,81.88 L83.21,75.60 L92.16,75.60 L92.96,75.41 L93.55,74.84 L93.76,74.05 L93.76,22.38 L93.53,21.54 L92.90,20.95 L92.06,20.78 L92.06,20.78 Z" fill="#005ba1" stroke="#1e1e1e" stroke-width="1" stroke-linejoin="round"/><ellipse cx="84.60" cy="5.75" rx="5.81" ry="5.81" fill="#50e5ff" stroke="#50e5ff" stroke-width="1"/><ellipse cx="88.33" cy="88.38" rx="7.56" ry="7.56" fill="#50e5ff" stroke="#50e5ff" stroke-width="1"/><ellipse cx="9.43" cy="60.95" rx="9.43" ry="9.43" fill="#50e5ff" stroke="#1e1e1e" stroke-width="1"/><path d="M80.82,25.31 L44.00,19.98 L43.26,19.98 L41.37,20.31 L39.72,21.29 L38.52,22.79 L37.93,24.61 L36.55,33.62 L85.24,33.62 L85.24,31.43 L85.17,29.35 L84.30,27.45 L82.77,26.03 L80.82,25.31 Z" fill="#0078d4" stroke="#1e1e1e" stroke-width="1" stroke-linejoin="round"/><path d="M80.44,27.60 L43.68,22.27 L43.21,22.27 L41.80,22.62 L40.70,23.58 L40.17,24.93 L38.89,33.62 L82.68,33.62 L83.05,31.11 L82.87,29.52 L81.92,28.23 L80.44,27.60 L80.44,27.60 Z" fill="#ffffff" stroke="#1e1e1e" stroke-width="1" stroke-linejoin="round"/><path d="M28.02,26.64 L60.25,26.64 L60.86,26.78 L61.37,27.12 L66.70,32.44 L67.21,32.80 L67.82,32.92 L92.32,32.92 L93.11,33.13 L93.69,33.69 L93.92,34.47 L93.92,74.05 L93.69,74.83 L93.11,75.39 L92.32,75.60 L28.40,75.60 L27.53,75.47 L26.88,74.89 L26.64,74.05 L26.64,28.34 L26.78,27.56 L27.28,26.94 L28.02,26.64 Z" fill="#2bc0e3" stroke="#1e1e1e" stroke-width="1" stroke-linejoin="round"/></svg>