<svg xmlns="http://www.w3.org/2000/svg" viewBox="-2.00 1.03 100.00 91.97"><path d="M96.00,50.67 L95.58,46.86 L94.50,43.18 L92.79,39.75 L90.51,36.67 L87.73,34.04 L84.53,31.93 L81.01,30.42 L77.28,29.54 L76.72,24.83 L75.35,20.29 L73.21,16.05 L70.38,12.24 L66.94,8.98 L62.98,6.36 L58.63,4.46 L54.02,3.34 L49.28,3.03 L44.95,3.31 L40.71,4.25 L36.67,5.84 L32.92,8.02 L29.56,10.76 L26.65,13.98 L24.27,17.61 L22.49,21.57 L18.00,22.58 L13.77,24.36 L9.91,26.86 L6.56,30.01 L3.82,33.70 L1.78,37.81 L0.49,42.22 L0.00,46.79 L0.52,51.35 L1.83,55.75 L3.88,59.85 L6.62,63.54 L9.95,66.69 L13.78,69.22 L17.99,71.05 L22.45,72.11 L27.03,72.39 L29.41,72.28 L73.18,72.28 L73.77,72.24 L74.34,72.11 L78.52,71.64 L82.52,70.39 L86.22,68.39 L89.48,65.74 L92.17,62.51 L94.20,58.83 L95.49,54.84 L96.00,50.67 L96.00,50.67 Z" fill="#2f8ce2" stroke="#1e1e1e" stroke-width="1" stroke-linejoin="round"/><path d="M84.00,38.76 L84.83,38.87 L85.60,39.19 L86.26,39.69 L86.77,40.36 L87.09,41.13 L87.20,41.96 L87.20,83.56 L87.09,84.39 L86.77,85.16 L86.26,85.82 L85.60,86.33 L84.83,86.65 L84.00,86.76 L42.40,86.76 L41.57,86.65 L40.80,86.33 L40.14,85.82 L39.63,85.16 L39.31,84.39 L39.20,83.56 L39.20,41.96 L39.31,41.13 L39.63,40.36 L40.14,39.69 L40.80,39.19 L41.57,38.87 L42.40,38.76 L84.00,38.76 Z" fill="#50e6ff" stroke="#1e1e1e" stroke-width="1" stroke-linejoin="round"/><path d="M86.32,38.36 L87.15,38.47 L87.92,38.79 L88.58,39.30 L89.09,39.96 L89.41,40.73 L89.52,41.56 L89.52,87.81 L89.41,88.64 L89.09,89.41 L88.58,90.07 L87.92,90.58 L87.15,90.90 L86.32,91.01 L40.07,91.01 L39.25,90.90 L38.47,90.58 L37.81,90.07 L37.30,89.41 L36.98,88.64 L36.87,87.81 L36.87,41.56 L36.98,40.73 L37.30,39.96 L37.81,39.30 L38.47,38.79 L39.25,38.47 L40.07,38.36 L86.32,38.36 Z" fill="#50e6ff" stroke="#1e1e1e" stroke-width="1" stroke-linejoin="round"/><path d="M81.91,45.54 L82.33,45.59 L82.71,45.75 L83.05,46.00 L83.30,46.34 L83.46,46.72 L83.51,47.14 L83.51,52.98 L83.46,53.40 L83.30,53.78 L83.05,54.11 L82.71,54.37 L82.33,54.53 L81.91,54.58 L46.36,54.58 L45.95,54.53 L45.56,54.37 L45.23,54.11 L44.98,53.78 L44.82,53.40 L44.76,52.98 L44.76,47.14 L44.82,46.72 L44.98,46.34 L45.23,46.00 L45.56,45.75 L45.95,45.59 L46.36,45.54 L81.91,45.54 Z" fill="#ffffff" stroke="#1e1e1e" stroke-width="1" stroke-linejoin="round"/><path d="M81.91,60.15 L82.33,60.21 L82.71,60.37 L83.05,60.62 L83.30,60.95 L83.46,61.34 L83.51,61.75 L83.51,67.60 L83.46,68.01 L83.30,68.40 L83.05,68.73 L82.71,68.99 L82.33,69.15 L81.91,69.20 L46.36,69.20 L45.95,69.15 L45.56,68.99 L45.23,68.73 L44.98,68.40 L44.82,68.01 L44.76,67.60 L44.76,61.75 L44.82,61.34 L44.98,60.95 L45.23,60.62 L45.56,60.37 L45.95,60.21 L46.36,60.15 L81.91,60.15 Z" fill="#ffffff" stroke="#1e1e1e" stroke-width="1" stroke-linejoin="round" opacity="0.8"/><path d="M81.91,74.77 L82.33,74.83 L82.71,74.99 L83.05,75.24 L83.30,75.57 L83.46,75.96 L83.51,76.37 L83.51,82.22 L83.46,82.63 L83.30,83.02 L83.05,83.35 L82.71,83.60 L82.33,83.76 L81.91,83.82 L46.36,83.82 L45.95,83.76 L45.56,83.60 L45.23,83.35 L44.98,83.02 L44.82,82.63 L44.76,82.22 L44.76,76.37 L44.82,75.96 L44.98,75.57 L45.23,75.24 L45.56,74.99 L45.95,74.83 L46.36,74.77 L81.91,74.77 Z" fill="#ffffff" stroke="#1e1e1e" stroke-width="1" stroke-linejoin="round" opacity="0.6"/></svg>