<svg xmlns="http://www.w3.org/2000/svg" viewBox="-2.00 1.03 100.00 91.97"><path d="M96.00,50.67 L95.58,46.86 L94.50,43.18 L92.79,39.75 L90.51,36.67 L87.73,34.04 L84.53,31.93 L81.01,30.42 L77.28,29.54 L76.72,24.83 L75.35,20.29 L73.21,16.05 L70.38,12.24 L66.94,8.98 L62.98,6.36 L58.63,4.46 L54.02,3.34 L49.28,3.03 L44.95,3.31 L40.71,4.25 L36.67,5.84 L32.92,8.02 L29.56,10.76 L26.65,13.98 L24.27,17.61 L22.49,21.57 L18.00,22.58 L13.77,24.36 L9.91,26.86 L6.56,30.01 L3.82,33.70 L1.78,37.81 L0.49,42.22 L0.00,46.79 L0.52,51.35 L1.83,55.75 L3.88,59.85 L6.62,63.54 L9.95,66.69 L13.78,69.22 L17.99,71.05 L22.45,72.11 L27.03,72.39 L29.41,72.28 L73.18,72.28 L73.77,72.24 L74.34,72.11 L78.52,71.64 L82.52,70.39 L86.22,68.39 L89.48,65.74 L92.17,62.51 L94.20,58.83 L95.49,54.84 L96.00,50.67 L96.00,50.67 Z" fill="#2f8ce2" stroke="#1e1e1e" stroke-width="1" stroke-linejoin="round"/><rect x="39.20" y="38.76" width="48.00" height="48.00" fill="#50e6ff" stroke="#1e1e1e" stroke-width="1"/><rect x="36.87" y="38.36" width="52.65" height="52.65" fill="#50e6ff" stroke="#1e1e1e" stroke-width="1"/><rect x="44.76" y="45.54" width="38.75" height="9.05" fill="#ffffff" stroke="#1e1e1e" stroke-width="1"/><rect x="44.76" y="60.15" width="38.75" height="9.05" fill="#ffffff" stroke="#1e1e1e" stroke-width="1" opacity="0.8"/><rect x="44.76" y="74.77" width="38.75" height="9.05" fill="#ffffff" stroke="#1e1e1e" stroke-width="1" opacity="0.6"/></svg>