<svg xmlns="http://www.w3.org/2000/svg" viewBox="-1.98 -1.19 99.96 98.38"><path d="M89.86,83.12 L12.89,6.14 L8.63,10.39 L44.75,46.51 L5.37,85.60 L9.59,89.86 L49.00,50.75 L85.61,87.37 L89.86,83.12 Z" fill="#41d2ee" stroke="#1e1e1e" stroke-width="1" stroke-linejoin="round"/><path d="M92.22,54.37 L92.09,52.61 L91.80,50.89 L90.80,47.62 L89.26,44.62 L87.23,41.94 L84.78,39.66 L81.96,37.81 L78.81,36.47 L77.13,36.01 L75.39,35.70 L75.16,33.22 L74.69,30.83 L74.00,28.53 L73.09,26.33 L71.99,24.24 L70.69,22.28 L69.23,20.46 L67.59,18.80 L65.81,17.29 L63.89,15.96 L61.84,14.81 L59.69,13.86 L57.43,13.12 L55.08,12.59 L52.65,12.30 L50.17,12.26 L46.22,12.49 L42.43,13.33 L38.86,14.72 L35.55,16.63 L32.57,19.02 L29.98,21.85 L27.83,25.07 L26.17,28.66 L24.07,29.01 L22.04,29.54 L20.09,30.24 L18.23,31.11 L16.47,32.13 L14.81,33.29 L13.27,34.59 L11.84,36.02 L10.54,37.56 L9.39,39.22 L8.37,40.98 L7.52,42.82 L6.82,44.75 L6.29,46.75 L5.95,48.82 L5.79,50.94 L6.00,53.34 L6.44,55.66 L7.11,57.89 L7.98,60.02 L9.05,62.03 L10.30,63.92 L11.72,65.68 L13.30,67.29 L15.03,68.74 L16.89,70.03 L18.87,71.13 L20.96,72.04 L23.15,72.75 L25.42,73.24 L27.77,73.51 L30.18,73.54 L71.78,73.54 L72.82,73.54 L74.78,73.42 L76.68,73.11 L78.51,72.63 L80.28,71.97 L81.95,71.16 L83.54,70.20 L85.02,69.10 L86.39,67.87 L87.64,66.52 L88.76,65.05 L89.74,63.48 L90.57,61.81 L91.25,60.06 L91.75,58.23 L92.08,56.33 L92.23,54.37 L92.22,54.37 Z" fill="#b8579d" stroke="#1e1e1e" stroke-width="1" stroke-linejoin="round"/><path d="M8.36,15.35 L9.84,15.69 L11.31,15.73 L12.73,15.48 L14.07,14.97 L15.29,14.22 L16.35,13.23 L17.22,12.04 L17.85,10.67 L18.18,9.19 L18.22,7.72 L17.98,6.30 L17.47,4.96 L16.71,3.74 L15.73,2.68 L14.54,1.81 L13.16,1.18 L11.69,0.85 L10.22,0.81 L8.79,1.05 L7.45,1.56 L6.23,2.32 L5.17,3.30 L4.30,4.49 L3.67,5.87 L3.34,7.35 L3.30,8.82 L3.54,10.24 L4.05,11.58 L4.81,12.80 L5.79,13.86 L6.98,14.73 L8.36,15.35 L8.36,15.35 Z" fill="#41d2ee" stroke="#41d2ee" stroke-width="1" stroke-linejoin="round"/><path d="M5.08,94.82 L6.56,95.15 L8.03,95.19 L9.45,94.95 L10.79,94.44 L12.01,93.68 L13.07,92.70 L13.94,91.51 L14.57,90.13 L14.90,88.66 L14.94,87.19 L14.70,85.77 L14.19,84.42 L13.43,83.20 L12.45,82.14 L11.26,81.28 L9.88,80.65 L8.41,80.31 L6.94,80.27 L5.51,80.52 L4.17,81.03 L2.95,81.78 L1.89,82.77 L1.03,83.96 L0.40,85.33 L0.06,86.81 L0.02,88.28 L0.27,89.70 L0.78,91.04 L1.53,92.26 L2.52,93.32 L3.70,94.19 L5.08,94.82 L5.08,94.82 Z" fill="#41d2ee" stroke="#41d2ee" stroke-width="1" stroke-linejoin="round"/><path d="M86.12,92.42 L87.60,92.75 L89.07,92.79 L90.49,92.55 L91.83,92.04 L93.05,91.28 L94.11,90.30 L94.98,89.11 L95.61,87.73 L95.94,86.26 L95.98,84.79 L95.74,83.37 L95.23,82.02 L94.47,80.80 L93.49,79.74 L92.30,78.88 L90.92,78.25 L89.45,77.91 L87.98,77.87 L86.55,78.12 L85.21,78.63 L83.99,79.38 L82.93,80.37 L82.07,81.56 L81.44,82.93 L81.10,84.41 L81.06,85.88 L81.31,87.30 L81.82,88.64 L82.57,89.86 L83.55,90.92 L84.74,91.79 L86.12,92.42 L86.12,92.42 Z" fill="#41d2ee" stroke="#41d2ee" stroke-width="1" stroke-linejoin="round"/></svg>