<svg xmlns="http://www.w3.org/2000/svg" viewBox="0.82 10.25 100.00 81.20"><path d="M2.82,32.70 L98.82,32.70 L98.82,32.70 L98.82,86.23 L98.39,87.84 L97.21,89.02 L95.60,89.45 L6.04,89.45 L4.43,89.02 L3.25,87.84 L2.82,86.23 L2.82,32.70 L2.82,32.70 Z" fill="#32d2f3" stroke="#1e1e1e" stroke-width="1" stroke-linejoin="round"/><path d="M6.04,12.25 L95.60,12.25 L97.21,12.69 L98.39,13.86 L98.82,15.47 L98.82,32.70 L98.82,32.70 L2.82,32.70 L2.82,32.70 L2.82,15.42 L3.27,13.83 L4.45,12.68 L6.04,12.25 L6.04,12.25 Z" fill="#198ab3" stroke="#1e1e1e" stroke-width="1" stroke-linejoin="round"/><path d="M15.87,38.91 L85.67,38.91 L86.43,39.11 L86.99,39.67 L87.19,40.43 L87.19,48.34 L86.99,49.10 L86.43,49.66 L85.67,49.86 L15.87,49.86 L14.83,49.40 L14.40,48.34 L14.40,40.43 L14.83,39.37 L15.87,38.91 L15.87,38.91 Z" fill="#ffffff" stroke="#1e1e1e" stroke-width="1" stroke-linejoin="round"/><path d="M15.92,54.66 L85.72,54.66 L86.48,54.87 L87.04,55.43 L87.25,56.19 L87.25,64.15 L87.04,64.91 L86.48,65.47 L85.72,65.68 L15.92,65.68 L15.17,65.47 L14.63,64.91 L14.46,64.15 L14.46,56.47 L14.52,55.59 L15.08,54.91 L15.92,54.66 L15.92,54.66 Z" fill="#9cebff" stroke="#1e1e1e" stroke-width="1" stroke-linejoin="round"/><path d="M15.92,70.59 L85.72,70.59 L86.48,70.79 L87.04,71.35 L87.25,72.11 L87.25,80.08 L87.04,80.84 L86.48,81.40 L85.72,81.60 L15.92,81.60 L15.17,81.39 L14.63,80.83 L14.46,80.08 L14.46,72.11 L14.63,71.35 L15.17,70.79 L15.92,70.59 L15.92,70.59 Z" fill="#9cebff" stroke="#1e1e1e" stroke-width="1" stroke-linejoin="round"/><path d="M28.86,44.39 L28.86,75.95 L29.07,76.74 L29.65,77.32 L30.44,77.53 L43.71,77.53 L44.75,77.03 L45.18,75.95 L45.18,57.20 L45.37,56.40 L45.95,55.82 L46.76,55.62 L54.72,55.62 L55.52,55.82 L56.11,56.40 L56.30,57.20 L56.30,75.95 L56.52,76.76 L57.12,77.34 L57.94,77.53 L71.21,77.53 L72.00,77.32 L72.58,76.74 L72.79,75.95 L72.79,44.39 L72.58,43.60 L72.00,43.02 L71.21,42.80 L30.44,42.80 L29.65,43.02 L29.07,43.60 L28.86,44.39 Z" fill="#0078d4" stroke="#1e1e1e" stroke-width="1" stroke-linejoin="round"/></svg>