<svg xmlns="http://www.w3.org/2000/svg" viewBox="-2.00 -2.05 100.00 100.11"><path d="M92.16,20.80 L87.31,20.80 L85.84,20.75 L84.37,20.80 L82.93,20.48 L81.74,19.61 L80.99,18.34 L80.81,16.88 L81.23,15.47 L83.31,11.73 L82.01,10.85 L80.59,10.19 L75.63,19.04 L74.80,20.03 L73.69,20.67 L72.43,20.91 L68.00,20.91 L67.12,21.01 L66.29,21.33 L66.29,21.33 L57.92,26.67 L57.49,26.74 L57.07,26.67 L28.11,26.67 L27.33,26.93 L26.80,27.56 L26.67,28.37 L26.67,54.08 L17.33,56.96 L18.03,59.95 L26.67,58.67 L26.67,74.13 L26.87,74.91 L27.44,75.47 L28.21,75.68 L78.19,75.68 L84.32,83.63 L86.93,81.97 L83.31,75.68 L92.27,75.68 L93.06,75.49 L93.65,74.92 L93.87,74.13 L93.87,22.40 L93.64,21.57 L93.01,20.98 L92.16,20.80 L92.16,20.80 Z" fill="#005ba1" stroke="#1e1e1e" stroke-width="1" stroke-linejoin="round"/><ellipse cx="84.69" cy="5.76" rx="5.81" ry="5.81" fill="#50e5ff" stroke="#50e5ff" stroke-width="1"/><ellipse cx="88.43" cy="88.48" rx="7.57" ry="7.57" fill="#50e5ff" stroke="#50e5ff" stroke-width="1"/><ellipse cx="9.44" cy="61.01" rx="9.44" ry="9.44" fill="#50e5ff" stroke="#1e1e1e" stroke-width="1"/><path d="M80.91,25.33 L44.05,20.00 L43.31,20.00 L41.41,20.33 L39.76,21.31 L38.56,22.81 L37.97,24.64 L36.59,33.65 L85.33,33.65 L85.33,31.47 L85.26,29.38 L84.40,27.48 L82.87,26.06 L80.91,25.33 Z" fill="#0078d4" stroke="#1e1e1e" stroke-width="1" stroke-linejoin="round"/><path d="M80.53,27.63 L43.73,22.29 L43.25,22.29 L41.84,22.65 L40.75,23.61 L40.21,24.96 L38.93,33.65 L82.77,33.65 L83.15,31.15 L82.96,29.55 L82.01,28.26 L80.53,27.63 L80.53,27.63 Z" fill="#ffffff" stroke="#1e1e1e" stroke-width="1" stroke-linejoin="round"/><path d="M28.05,26.67 L60.32,26.67 L60.92,26.81 L61.44,27.15 L66.77,32.48 L67.28,32.83 L67.89,32.96 L92.43,32.96 L93.21,33.17 L93.79,33.73 L94.03,34.51 L94.03,74.13 L93.79,74.91 L93.21,75.47 L92.43,75.68 L28.43,75.68 L27.56,75.55 L26.91,74.97 L26.67,74.13 L26.67,28.37 L26.81,27.59 L27.31,26.97 L28.05,26.67 Z" fill="#2bc0e3" stroke="#1e1e1e" stroke-width="1" stroke-linejoin="round"/></svg>