<svg xmlns="http://www.w3.org/2000/svg" viewBox="-1.72 12.18 99.43 71.66"><path d="M95.72,60.63 L95.27,56.89 L94.18,53.28 L92.47,49.92 L90.20,46.91 L87.44,44.35 L84.27,42.30 L80.79,40.85 L77.11,40.03 L76.50,35.39 L75.11,30.93 L72.97,26.77 L70.14,23.05 L66.72,19.87 L62.79,17.33 L58.49,15.50 L53.94,14.44 L49.27,14.18 L45.01,14.43 L40.83,15.33 L36.85,16.87 L33.14,18.99 L29.81,21.66 L26.93,24.81 L24.56,28.37 L22.77,32.25 L18.34,33.19 L14.14,34.90 L10.31,37.33 L6.97,40.39 L4.22,44.00 L2.15,48.03 L0.82,52.36 L0.28,56.86 L0.85,61.35 L2.18,65.66 L4.24,69.69 L6.97,73.29 L10.28,76.36 L14.07,78.82 L18.24,80.58 L22.64,81.59 L27.15,81.82 L29.52,81.72 L73.07,81.72 L73.65,81.67 L74.21,81.55 L78.32,81.12 L82.28,79.92 L85.94,77.99 L89.16,75.41 L91.84,72.25 L93.87,68.65 L95.18,64.73 L95.72,60.63 Z" fill="#3a90e5" stroke="#1e1e1e" stroke-width="1" stroke-linejoin="round"/><path d="M50.50,56.24 L50.00,51.74 L48.70,47.40 L46.65,43.37 L43.91,39.77 L40.56,36.72 L36.72,34.32 L32.52,32.65 L28.08,31.77 L23.56,31.69 L19.09,32.43 L14.83,33.95 L10.91,36.22 L7.46,39.15 L4.60,42.65 L2.41,46.62 L0.97,50.91 L0.32,55.38 L0.48,59.91 L1.46,64.33 L3.21,68.50 L5.68,72.29 L8.80,75.58 L12.45,78.25 L16.52,80.22 L20.88,81.43 L25.39,81.84 L26.23,81.84 L50.51,81.84 L50.51,56.24 L50.50,56.24 Z" fill="#50e6ff" stroke="#1e1e1e" stroke-width="1" stroke-linejoin="round"/><path d="M7.07,62.65 L16.57,70.51 L17.20,70.71 L17.80,70.43 L18.05,69.81 L18.05,66.39 L40.73,66.39 L40.73,61.06 L7.66,61.06 L6.99,61.33 L6.74,62.01 L7.07,62.65 L7.07,62.65 Z" fill="#ffffff" stroke="#1e1e1e" stroke-width="1" stroke-linejoin="round" opacity="0.75"/><path d="M42.45,54.69 L32.75,46.82 L32.12,46.61 L31.52,46.90 L31.27,47.51 L31.27,50.95 L10.72,50.95 L10.72,56.29 L41.88,56.29 L42.54,56.01 L42.79,55.33 L42.45,54.69 L42.45,54.69 Z" fill="#ffffff" stroke="#1e1e1e" stroke-width="1" stroke-linejoin="round"/></svg>