<svg xmlns="http://www.w3.org/2000/svg" viewBox="0.67 9.57 94.67 76.91"><path d="M2.67,30.88 L93.33,30.88 L93.33,30.88 L93.33,81.44 L92.93,82.96 L91.81,84.07 L90.29,84.48 L5.71,84.48 L4.19,84.07 L3.07,82.96 L2.67,81.44 L2.67,30.88 L2.67,30.88 Z" fill="#32d2f3" stroke="#1e1e1e" stroke-width="1" stroke-linejoin="round"/><path d="M5.71,11.57 L90.29,11.57 L91.81,11.98 L92.93,13.09 L93.33,14.61 L93.33,30.88 L93.33,30.88 L2.67,30.88 L2.67,30.88 L2.67,14.56 L3.09,13.06 L4.20,11.97 L5.71,11.57 L5.71,11.57 Z" fill="#198ab3" stroke="#1e1e1e" stroke-width="1" stroke-linejoin="round"/><path d="M14.99,36.75 L80.91,36.75 L81.63,36.94 L82.15,37.47 L82.35,38.19 L82.35,45.65 L82.15,46.37 L81.63,46.90 L80.91,47.09 L14.99,47.09 L14.00,46.65 L13.60,45.65 L13.60,38.19 L14.00,37.19 L14.99,36.75 L14.99,36.75 Z" fill="#ffffff" stroke="#1e1e1e" stroke-width="1" stroke-linejoin="round"/><path d="M15.04,51.63 L80.96,51.63 L81.68,51.82 L82.21,52.35 L82.40,53.07 L82.40,60.59 L82.21,61.31 L81.68,61.83 L80.96,62.03 L15.04,62.03 L14.33,61.83 L13.82,61.30 L13.65,60.59 L13.65,53.33 L13.71,52.50 L14.24,51.86 L15.04,51.63 L15.04,51.63 Z" fill="#9cebff" stroke="#1e1e1e" stroke-width="1" stroke-linejoin="round"/><path d="M15.04,66.67 L80.96,66.67 L81.68,66.86 L82.21,67.39 L82.40,68.11 L82.40,75.63 L82.21,76.35 L81.68,76.87 L80.96,77.07 L15.04,77.07 L14.33,76.87 L13.82,76.34 L13.65,75.63 L13.65,68.11 L13.82,67.39 L14.33,66.86 L15.04,66.67 L15.04,66.67 Z" fill="#9cebff" stroke="#1e1e1e" stroke-width="1" stroke-linejoin="round"/><path d="M27.25,41.92 L27.25,71.73 L27.45,72.48 L28.00,73.03 L28.75,73.23 L41.28,73.23 L42.27,72.75 L42.67,71.73 L42.67,54.03 L42.85,53.27 L43.40,52.72 L44.16,52.53 L51.68,52.53 L52.44,52.72 L52.99,53.27 L53.17,54.03 L53.17,71.73 L53.38,72.50 L53.95,73.04 L54.72,73.23 L67.25,73.23 L68.00,73.03 L68.55,72.48 L68.75,71.73 L68.75,41.92 L68.55,41.17 L68.00,40.63 L67.25,40.43 L28.75,40.43 L28.00,40.63 L27.45,41.17 L27.25,41.92 Z" fill="#0078d4" stroke="#1e1e1e" stroke-width="1" stroke-linejoin="round"/></svg>