<svg xmlns="http://www.w3.org/2000/svg" viewBox="-1.41 5.68 100.00 85.82"><path d="M96.59,41.47 L96.06,37.86 L94.69,34.47 L92.58,31.49 L89.83,29.08 L86.59,27.38 L83.05,26.48 L82.52,22.70 L81.26,19.09 L79.33,15.79 L76.79,12.93 L73.75,10.61 L70.32,8.92 L66.62,7.94 L62.81,7.68 L58.68,8.03 L54.72,9.22 L51.08,11.18 L47.91,13.85 L45.36,17.11 L43.53,20.82 L39.86,21.65 L36.42,23.21 L33.38,25.42 L30.83,28.20 L28.91,31.44 L27.67,35.00 L27.17,38.73 L27.68,42.39 L28.88,45.89 L30.75,49.08 L33.20,51.85 L36.14,54.08 L39.46,55.71 L43.03,56.65 L46.72,56.88 L48.44,56.81 L80.09,56.81 L80.52,56.77 L80.93,56.68 L84.35,56.29 L87.59,55.16 L90.52,53.35 L92.99,50.96 L94.88,48.09 L96.10,44.87 L96.59,41.47 Z" fill="#4395e7" stroke="#1e1e1e" stroke-width="1" stroke-linejoin="round"/><path d="M53.10,59.39 L53.20,61.62 L55.41,61.92 L58.33,62.67 L61.00,64.08 L63.26,66.07 L65.00,68.54 L66.10,71.35 L66.52,74.34 L66.17,77.19 L65.20,79.89 L63.66,82.31 L61.63,84.34 L59.20,85.87 L56.50,86.84 L53.65,87.18 L19.64,87.18 L16.04,86.90 L12.59,85.82 L9.48,84.00 L6.85,81.54 L4.83,78.54 L3.53,75.17 L3.02,71.60 L3.45,68.44 L4.51,65.44 L6.15,62.70 L8.30,60.35 L10.89,58.49 L13.79,57.18 L16.90,56.48 L18.52,56.28 L19.06,54.75 L20.63,51.52 L22.82,48.69 L25.54,46.36 L28.68,44.65 L32.11,43.61 L35.68,43.31 L35.80,43.31 L39.52,43.61 L43.08,44.73 L46.31,46.61 L49.04,49.15 L51.15,52.23 L52.52,55.70 L53.10,59.39 Z" fill="#ffffff" stroke="#1e1e1e" stroke-width="1" stroke-linejoin="round"/><path d="M73.43,30.56 L64.86,22.25 L64.20,21.79 L63.65,21.78 L63.27,22.22 L63.14,23.10 L63.14,26.83 L63.11,27.03 L63.05,27.23 L62.81,27.56 L62.47,27.77 L62.27,27.82 L62.06,27.84 L59.58,27.94 L56.47,28.39 L53.01,29.40 L51.24,30.18 L49.50,31.19 L47.81,32.43 L46.21,33.95 L44.75,35.77 L43.45,37.92 L42.35,40.41 L41.50,43.29 L40.92,46.57 L40.64,50.28 L40.96,51.04 L41.72,51.36 L47.18,51.36 L47.40,51.34 L47.61,51.27 L47.80,51.16 L47.97,51.02 L48.10,50.83 L48.20,50.63 L48.25,50.42 L48.25,50.19 L47.96,47.17 L48.39,44.15 L49.51,41.33 L51.27,38.84 L53.56,36.84 L56.25,35.42 L59.20,34.68 L62.25,34.66 L63.01,34.97 L63.33,35.74 L63.33,39.19 L63.43,40.21 L63.74,40.69 L64.28,40.63 L65.05,40.03 L73.43,32.33 L73.62,32.16 L73.77,31.95 L73.89,31.45 L73.77,30.95 L73.62,30.73 L73.43,30.56 Z" fill="#ffffff" stroke="#1e1e1e" stroke-width="1" stroke-linejoin="round"/><path d="M19.32,89.50 L15.73,89.15 L12.28,88.13 L9.09,86.46 L6.27,84.21 L3.94,81.47 L2.18,78.33 L1.05,74.91 L0.59,71.34 L0.59,71.17 L1.09,67.47 L2.32,63.95 L4.24,60.75 L6.76,57.99 L9.78,55.81 L13.18,54.27 L16.82,53.45 L18.63,49.74 L21.15,46.48 L24.29,43.81 L27.91,41.83 L31.86,40.64 L35.96,40.28 L39.74,40.53 L43.40,41.51 L46.80,43.19 L49.81,45.48 L52.32,48.32 L54.23,51.59 L55.47,55.16 L56.00,58.91 L56.00,58.91 L59.53,59.82 L62.75,61.52 L65.48,63.93 L67.58,66.90 L68.92,70.29 L69.43,73.90 L69.43,73.99 L69.01,77.42 L67.84,80.68 L65.99,83.61 L63.54,86.05 L60.61,87.90 L57.35,89.06 L53.91,89.47 L19.98,89.47 L19.32,89.50 Z" fill="#41d2ee" stroke="#1e1e1e" stroke-width="1" stroke-linejoin="round"/><path d="M5.94,71.27 L6.38,74.23 L7.48,77.02 L9.16,79.50 L11.36,81.54 L13.95,83.04 L16.81,83.93 L19.80,84.17 L53.88,84.17 L56.51,83.79 L58.96,82.76 L61.06,81.14 L62.68,79.04 L63.71,76.59 L64.09,73.97 L63.60,71.17 L62.35,68.62 L60.45,66.51 L58.03,65.01 L55.30,64.25 L50.86,63.65 L50.67,59.18 L50.19,56.08 L49.04,53.15 L47.27,50.56 L44.97,48.41 L42.25,46.83 L39.25,45.89 L36.12,45.63 L35.95,45.63 L32.92,45.88 L30.01,46.75 L27.34,48.19 L25.03,50.16 L23.17,52.56 L21.84,55.29 L20.72,58.37 L17.48,58.76 L14.48,59.48 L11.74,60.88 L9.40,62.89 L7.59,65.38 L6.42,68.22 L5.94,71.27 L5.94,71.27 Z" fill="#ffffff" stroke="#1e1e1e" stroke-width="1" stroke-linejoin="round"/></svg>