<svg xmlns="http://www.w3.org/2000/svg" viewBox="-2.01 0.08 100.00 95.88"><path d="M95.99,48.79 L95.54,45.03 L94.44,41.40 L92.72,38.02 L90.43,34.99 L87.66,32.40 L84.47,30.35 L80.97,28.88 L77.27,28.05 L76.65,23.39 L75.25,18.91 L73.09,14.74 L70.25,11.00 L66.80,7.80 L62.86,5.25 L58.54,3.41 L53.96,2.34 L49.27,2.08 L44.99,2.33 L40.79,3.23 L36.78,4.77 L33.06,6.90 L29.70,9.58 L26.80,12.74 L24.42,16.32 L22.61,20.21 L18.15,21.17 L13.93,22.90 L10.08,25.35 L6.73,28.43 L3.96,32.06 L1.88,36.12 L0.55,40.48 L0.00,45.01 L0.57,49.51 L1.91,53.86 L3.99,57.90 L6.73,61.52 L10.06,64.61 L13.88,67.07 L18.07,68.83 L22.50,69.84 L27.04,70.07 L28.21,70.11 L29.38,70.07 L73.16,70.07 L73.75,70.11 L74.34,70.07 L78.50,69.64 L82.51,68.42 L86.21,66.45 L89.47,63.82 L92.16,60.61 L94.19,56.94 L95.48,52.95 L95.99,48.79 Z" fill="#3990e4" stroke="#1e1e1e" stroke-width="1" stroke-linejoin="round"/><path d="M50.50,44.37 L50.01,39.83 L48.72,35.46 L46.66,31.39 L43.90,27.76 L40.53,24.68 L36.67,22.26 L32.44,20.57 L27.96,19.67 L23.40,19.58 L18.90,20.32 L14.61,21.86 L10.66,24.14 L7.19,27.09 L4.30,30.62 L2.09,34.61 L0.64,38.93 L-0.01,43.45 L0.16,48.00 L1.14,52.46 L2.91,56.66 L5.41,60.48 L8.55,63.78 L12.23,66.47 L16.34,68.46 L20.73,69.67 L25.28,70.07 L50.50,70.07 L50.50,44.37 Z" fill="#50e6ff" stroke="#1e1e1e" stroke-width="1" stroke-linejoin="round"/><path d="M62.92,81.80 L50.93,93.75 L50.50,93.96 L50.07,93.75 L38.13,81.80 L38.01,81.14 L38.55,80.74 L45.59,80.74 L46.08,80.51 L46.18,79.99 L46.18,64.52 L46.39,64.12 L46.82,63.99 L54.23,63.99 L54.65,64.16 L54.82,64.58 L54.82,79.99 L55.01,80.42 L55.46,80.58 L62.50,80.58 L63.14,80.70 L63.35,81.31 L62.92,81.80 L62.92,81.80 Z" fill="#0078d4" stroke="#1e1e1e" stroke-width="1" stroke-linejoin="round"/><path d="M38.13,52.37 L50.50,39.99 L62.92,52.37 L63.06,53.02 L62.50,53.38 L55.46,53.38 L55.01,53.57 L54.82,54.02 L54.82,70.02 L46.18,70.02 L46.18,54.02 L46.03,53.55 L45.59,53.33 L38.55,53.33 L38.04,52.98 L38.13,52.37 Z" fill="#ffffff" stroke="#1e1e1e" stroke-width="1" stroke-linejoin="round"/></svg>