<svg xmlns="http://www.w3.org/2000/svg" viewBox="-1.32 -1.32 100.00 100.00"><path d="M25.97,42.07 L27.00,41.39 L28.16,41.16 L29.33,41.39 L30.36,42.07 L31.00,42.99 L31.26,44.05 L31.15,45.12 L30.66,46.11 L30.36,46.45 L23.78,53.04 L21.92,55.31 L20.59,57.83 L19.80,60.51 L19.53,63.28 L19.80,66.04 L20.59,68.73 L21.92,71.24 L23.78,73.52 L25.96,75.32 L28.38,76.62 L30.96,77.43 L33.62,77.75 L36.29,77.58 L38.90,76.91 L41.38,75.75 L43.64,74.10 L44.26,73.52 L50.84,66.93 L51.87,66.25 L53.03,66.03 L54.20,66.25 L55.23,66.93 L55.86,67.86 L56.13,68.91 L56.02,69.99 L55.53,70.98 L55.23,71.32 L48.64,77.90 L47.07,79.32 L45.40,80.55 L43.64,81.60 L41.80,82.45 L39.90,83.11 L37.97,83.58 L36.00,83.87 L34.01,83.96 L32.03,83.87 L30.06,83.58 L28.12,83.11 L26.23,82.45 L24.39,81.60 L22.63,80.55 L20.96,79.32 L19.38,77.90 L18.00,76.38 L16.80,74.76 L15.78,73.06 L14.93,71.28 L14.26,69.45 L13.77,67.58 L13.46,65.68 L13.33,63.75 L13.37,61.83 L13.59,59.92 L14.00,58.02 L14.57,56.17 L15.33,54.37 L16.27,52.63 L17.38,50.96 L18.67,49.39 L19.38,48.64 L25.97,42.06 L25.97,42.07 Z" fill="#6cc85c" stroke="#1e1e1e" stroke-width="1" stroke-linejoin="round"/><path d="M48.65,19.39 L50.22,17.97 L51.89,16.74 L53.66,15.70 L55.49,14.84 L57.39,14.18 L59.33,13.71 L61.30,13.42 L63.28,13.33 L65.26,13.42 L67.23,13.71 L69.17,14.18 L71.06,14.84 L72.90,15.70 L74.66,16.74 L76.34,17.97 L77.91,19.39 L79.29,20.91 L80.49,22.53 L81.52,24.23 L82.36,26.01 L83.03,27.84 L83.52,29.71 L83.83,31.62 L83.96,33.54 L83.92,35.46 L83.70,37.38 L83.30,39.27 L82.72,41.12 L81.96,42.93 L81.03,44.67 L79.91,46.33 L78.62,47.90 L77.91,48.65 L71.33,55.23 L70.30,55.91 L69.13,56.14 L67.97,55.91 L66.94,55.23 L66.30,54.31 L66.04,53.25 L66.15,52.18 L66.64,51.19 L66.94,50.84 L73.52,44.26 L75.38,41.99 L76.70,39.47 L77.50,36.79 L77.77,34.02 L77.50,31.26 L76.70,28.57 L75.38,26.05 L73.52,23.78 L71.34,21.98 L68.92,20.68 L66.34,19.87 L63.68,19.55 L61.01,19.72 L58.40,20.39 L55.92,21.54 L53.66,23.20 L53.05,23.78 L46.46,30.36 L45.44,31.04 L44.27,31.27 L43.10,31.04 L42.08,30.36 L41.44,29.44 L41.18,28.39 L41.29,27.31 L41.77,26.32 L42.08,25.98 L48.66,19.39 L48.65,19.39 Z" fill="#6cc85c" stroke="#1e1e1e" stroke-width="1" stroke-linejoin="round"/><path d="M31.82,61.08 L61.08,31.82 L62.11,31.14 L63.28,30.91 L64.44,31.14 L65.47,31.82 L66.11,32.76 L66.37,33.82 L66.25,34.90 L65.75,35.90 L65.47,36.21 L36.21,65.47 L35.18,66.16 L34.02,66.38 L32.85,66.16 L31.82,65.47 L31.18,64.54 L30.92,63.48 L31.04,62.40 L31.55,61.40 L31.82,61.08 L61.08,31.82 L31.82,61.08 L31.82,61.08 Z" fill="#6cc85c" stroke="#1e1e1e" stroke-width="1" stroke-linejoin="round"/><path d="M44.85,41.85 L45.14,41.16 L44.85,40.46 L12.67,8.29 L12.35,8.01 L11.58,7.58 L10.74,7.39 L9.88,7.43 L9.06,7.72 L8.33,8.24 L7.75,9.00 L7.36,9.99 L7.21,11.22 L7.51,11.90 L40.46,44.86 L41.16,45.15 L41.85,44.86 L44.85,41.86 L44.85,41.85 Z" fill="#a6a6a6" stroke="#1e1e1e" stroke-width="1" stroke-linejoin="round"/><path d="M92.44,88.05 L56.83,52.45 L56.14,52.16 L55.44,52.45 L52.45,55.44 L52.16,56.14 L52.45,56.83 L87.27,91.66 L87.59,91.93 L88.36,92.36 L89.20,92.55 L90.06,92.51 L90.88,92.22 L91.61,91.70 L92.20,90.95 L92.59,89.95 L92.73,88.72 L92.44,88.04 L92.44,88.05 Z" fill="#a6a6a6" stroke="#1e1e1e" stroke-width="1" stroke-linejoin="round"/><ellipse cx="16.95" cy="16.95" rx="16.27" ry="16.27" fill="#4093e6" stroke="#1e1e1e" stroke-width="1"/><ellipse cx="80.40" cy="80.40" rx="16.27" ry="16.27" fill="#4093e6" stroke="#1e1e1e" stroke-width="1"/></svg>