<svg xmlns="http://www.w3.org/2000/svg" viewBox="-2.01 0.08 100.01 95.89"><path d="M96.00,48.80 L95.55,45.03 L94.45,41.40 L92.73,38.02 L90.45,34.99 L87.67,32.41 L84.48,30.35 L80.98,28.89 L77.28,28.05 L76.67,23.40 L75.26,18.91 L73.10,14.74 L70.26,11.00 L66.81,7.80 L62.87,5.25 L58.55,3.41 L53.97,2.34 L49.28,2.08 L44.99,2.33 L40.80,3.23 L36.79,4.77 L33.06,6.90 L29.71,9.58 L26.80,12.75 L24.42,16.32 L22.61,20.21 L18.15,21.17 L13.93,22.90 L10.09,25.35 L6.73,28.44 L3.96,32.07 L1.88,36.12 L0.55,40.49 L0.00,45.01 L0.57,49.52 L1.91,53.86 L3.99,57.91 L6.73,61.53 L10.06,64.62 L13.88,67.08 L18.07,68.84 L22.50,69.85 L27.04,70.08 L28.21,70.12 L29.39,70.08 L73.17,70.08 L73.76,70.12 L74.35,70.08 L78.52,69.65 L82.52,68.43 L86.23,66.46 L89.48,63.83 L92.18,60.61 L94.21,56.95 L95.50,52.96 L96.00,48.80 Z" fill="#3990e4" stroke="#1e1e1e" stroke-width="1" stroke-linejoin="round"/><path d="M50.51,44.37 L50.02,39.84 L48.72,35.46 L46.66,31.40 L43.91,27.76 L40.54,24.68 L36.68,22.26 L32.44,20.57 L27.97,19.67 L23.41,19.59 L18.91,20.32 L14.61,21.86 L10.66,24.14 L7.19,27.09 L4.30,30.62 L2.09,34.62 L0.64,38.94 L-0.01,43.45 L0.16,48.01 L1.14,52.47 L2.91,56.67 L5.41,60.49 L8.55,63.79 L12.23,66.48 L16.34,68.47 L20.74,69.68 L25.28,70.08 L50.51,70.08 L50.51,44.37 Z" fill="#50e6ff" stroke="#1e1e1e" stroke-width="1" stroke-linejoin="round"/><path d="M62.93,81.81 L50.93,93.76 L50.51,93.97 L50.08,93.76 L38.13,81.81 L38.01,81.15 L38.56,80.75 L45.60,80.75 L46.08,80.52 L46.19,80.00 L46.19,64.53 L46.40,64.13 L46.83,64.00 L54.24,64.00 L54.65,64.17 L54.83,64.59 L54.83,80.00 L55.02,80.43 L55.47,80.59 L62.51,80.59 L63.14,80.71 L63.36,81.32 L62.93,81.81 L62.93,81.81 Z" fill="#0078d4" stroke="#1e1e1e" stroke-width="1" stroke-linejoin="round"/><path d="M38.13,52.37 L50.51,40.00 L62.93,52.37 L63.07,53.03 L62.51,53.39 L55.47,53.39 L55.01,53.57 L54.83,54.03 L54.83,70.03 L46.19,70.03 L46.19,54.03 L46.04,53.56 L45.60,53.33 L38.56,53.33 L38.05,52.99 L38.13,52.37 Z" fill="#ffffff" stroke="#1e1e1e" stroke-width="1" stroke-linejoin="round"/></svg>