<svg xmlns="http://www.w3.org/2000/svg" viewBox="-2.00 -0.25 100.00 96.49"><path d="M33.16,58.02 L31.23,56.20 L29.95,53.88 L29.43,51.27 L29.43,47.40 L29.35,46.74 L29.33,46.07 L29.55,44.28 L30.17,42.63 L31.16,41.10 L32.50,39.71 L34.14,38.46 L36.06,37.34 L38.21,36.36 L40.58,35.51 L39.97,35.51 L35.26,35.71 L30.88,36.27 L26.91,37.15 L23.45,38.33 L20.60,39.75 L18.44,41.38 L17.66,42.26 L17.08,43.18 L16.73,44.13 L16.61,45.11 L16.64,45.62 L16.73,46.11 L16.73,50.32 L17.02,51.82 L17.87,53.25 L19.23,54.58 L21.04,55.81 L23.26,56.91 L25.85,57.86 L28.74,58.65 L31.91,59.26 L32.51,58.62 L33.16,58.02 Z" fill="#0078d4" stroke="#1e1e1e" stroke-width="1" stroke-linejoin="round"/><path d="M55.39,33.35 L58.72,31.89 L60.09,31.06 L61.26,30.18 L62.19,29.24 L62.88,28.25 L63.30,27.22 L63.45,26.16 L63.32,25.18 L62.97,24.23 L62.40,23.31 L61.61,22.42 L59.46,20.79 L56.60,19.37 L53.14,18.20 L49.18,17.31 L44.79,16.76 L40.08,16.56 L35.37,16.75 L30.98,17.31 L27.01,18.20 L23.55,19.37 L20.70,20.79 L18.55,22.42 L17.76,23.30 L17.18,24.22 L16.83,25.18 L16.71,26.16 L16.83,27.14 L17.18,28.09 L17.75,29.01 L18.52,29.89 L20.65,31.51 L23.47,32.92 L26.89,34.08 L30.82,34.97 L35.16,35.53 L39.83,35.73 L44.93,34.40 L50.13,33.61 L55.39,33.35 L55.39,33.35 Z" fill="#83b9f9" stroke="#1e1e1e" stroke-width="1" stroke-linejoin="round"/><ellipse cx="40.67" cy="26.04" rx="7.76" ry="2.12" fill="#005ba1" stroke="#005ba1" stroke-width="1"/><path d="M55.82,33.35 L59.27,33.47 L62.70,33.80 L63.21,32.76 L63.43,31.63 L63.43,25.96 L63.28,27.07 L62.84,28.14 L62.11,29.16 L61.12,30.13 L59.89,31.04 L58.42,31.89 L54.85,33.37 L55.82,33.35 Z" fill="#5ea0ef" stroke="#5ea0ef" stroke-width="1" stroke-linejoin="round"/><path d="M40.53,35.53 L40.21,35.53 L35.46,35.33 L31.05,34.77 L27.06,33.89 L23.60,32.71 L20.76,31.29 L18.62,29.66 L17.85,28.78 L17.28,27.86 L16.95,26.91 L16.84,25.93 L16.84,31.37 L17.13,32.86 L17.97,34.28 L19.32,35.61 L21.11,36.84 L23.32,37.93 L25.88,38.88 L28.76,39.68 L31.90,40.29 L34.52,38.26 L37.42,36.65 L40.53,35.53 L40.53,35.53 Z" fill="#5ea0ef" stroke="#1e1e1e" stroke-width="1" stroke-linejoin="round"/><path d="M79.08,65.00 L78.96,64.02 L78.61,63.06 L78.03,62.14 L77.25,61.26 L75.09,59.63 L72.24,58.21 L68.78,57.04 L64.81,56.15 L60.42,55.59 L55.71,55.40 L51.00,55.59 L46.62,56.15 L42.65,57.04 L39.19,58.21 L36.34,59.63 L34.18,61.26 L33.40,62.14 L32.82,63.06 L32.47,64.02 L32.35,65.00 L32.38,65.50 L32.47,65.99 L32.47,70.20 L32.59,71.18 L32.95,72.13 L33.54,73.05 L34.34,73.93 L36.53,75.56 L39.41,76.98 L42.89,78.16 L46.85,79.04 L51.20,79.60 L55.84,79.80 L60.46,79.61 L64.77,79.06 L68.68,78.19 L72.10,77.05 L74.96,75.67 L77.15,74.08 L77.97,73.22 L78.60,72.33 L79.01,71.40 L79.21,70.45 L79.08,66.46 L79.08,65.00 Z" fill="#0078d4" stroke="#1e1e1e" stroke-width="1" stroke-linejoin="round"/><ellipse cx="56.30" cy="64.87" rx="7.76" ry="2.12" fill="#005ba1" stroke="#005ba1" stroke-width="1"/><ellipse cx="55.82" cy="46.07" rx="23.37" ry="9.59" fill="#83b9f9" stroke="#1e1e1e" stroke-width="1"/><ellipse cx="56.42" cy="45.95" rx="7.76" ry="2.12" fill="#005ba1" stroke="#005ba1" stroke-width="1"/><path d="M55.81,55.63 L60.53,55.44 L64.92,54.88 L68.89,53.99 L72.35,52.82 L75.20,51.40 L77.35,49.77 L78.14,48.89 L78.71,47.97 L79.06,47.01 L79.18,46.03 L79.18,46.03 L79.18,51.73 L79.18,51.73 L78.99,52.69 L78.57,53.61 L77.95,54.51 L77.13,55.36 L74.93,56.95 L72.08,58.34 L68.65,59.48 L64.74,60.34 L60.43,60.89 L55.81,61.08 L51.18,60.89 L46.83,60.33 L42.86,59.44 L39.39,58.27 L36.51,56.85 L34.32,55.22 L33.52,54.34 L32.93,53.42 L32.57,52.46 L32.45,51.48 L32.45,46.04 L32.55,47.02 L32.88,47.97 L33.44,48.89 L34.21,49.77 L36.35,51.40 L39.20,52.82 L42.66,53.99 L46.65,54.88 L51.06,55.44 L55.81,55.63 Z" fill="#5ea0ef" stroke="#1e1e1e" stroke-width="1" stroke-linejoin="round"/><path d="M0.00,83.13 L0.12,83.59 L0.46,83.93 L6.97,87.71 L18.04,94.11 L18.72,94.20 L19.27,93.78 L19.27,93.78 L23.01,87.30 L23.10,86.60 L22.67,86.04 L9.72,78.58 L9.38,78.24 L9.26,77.78 L9.26,18.25 L9.38,17.79 L9.72,17.46 L22.67,9.94 L23.09,9.38 L23.01,8.69 L19.29,2.21 L18.74,1.78 L18.04,1.86 L18.04,1.86 L7.19,8.16 L0.46,12.07 L0.12,12.41 L0.00,12.86 L0.00,83.13 Z" fill="#949494" stroke="#1e1e1e" stroke-width="1" stroke-linejoin="round"/><path d="M23.01,8.69 L19.29,2.21 L18.89,1.84 L18.36,1.76 L18.12,1.78 L17.90,1.87 L7.06,8.16 L0.33,12.07 L0.14,12.21 L0.00,12.39 L0.11,12.45 L0.03,12.65 L0.00,12.86 L9.27,18.25 L9.39,17.79 L9.73,17.46 L22.67,9.94 L23.09,9.38 L23.01,8.69 L23.01,8.69 Z" fill="#a3a3a3" stroke="#1e1e1e" stroke-width="1" stroke-linejoin="round"/><path d="M23.01,87.32 L19.27,93.80 L18.88,94.16 L18.35,94.25 L18.11,94.22 L17.89,94.13 L7.05,87.84 L0.33,83.94 L0.14,83.79 L-0.00,83.61 L0.11,83.55 L0.03,83.35 L0.00,83.14 L9.27,77.75 L9.40,78.21 L9.73,78.55 L22.67,86.06 L23.10,86.62 L23.01,87.32 Z" fill="#a3a3a3" stroke="#1e1e1e" stroke-width="1" stroke-linejoin="round"/><path d="M96.00,12.87 L95.88,12.41 L95.54,12.07 L89.03,8.29 L77.95,1.87 L77.27,1.78 L76.71,2.20 L76.71,2.20 L72.98,8.68 L72.89,9.37 L73.32,9.94 L86.26,17.45 L86.59,17.78 L86.71,18.24 L86.71,77.75 L86.59,78.21 L86.26,78.54 L73.32,86.06 L72.90,86.62 L72.98,87.31 L76.71,93.79 L77.26,94.22 L77.96,94.14 L77.96,94.14 L88.80,87.85 L95.54,83.94 L95.88,83.60 L96.00,83.14 L96.00,12.87 Z" fill="#949494" stroke="#1e1e1e" stroke-width="1" stroke-linejoin="round"/><path d="M72.98,87.31 L76.71,93.79 L77.11,94.16 L77.64,94.24 L77.88,94.22 L78.10,94.13 L88.94,87.84 L95.67,83.93 L95.86,83.79 L96.00,83.61 L95.89,83.55 L95.97,83.35 L96.00,83.14 L86.73,77.75 L86.61,78.21 L86.27,78.54 L73.33,86.06 L72.90,86.61 L72.98,87.31 Z" fill="#a3a3a3" stroke="#1e1e1e" stroke-width="1" stroke-linejoin="round"/><path d="M72.98,8.68 L76.71,2.20 L77.11,1.84 L77.64,1.75 L77.88,1.78 L78.10,1.87 L88.94,8.16 L95.67,12.06 L95.86,12.21 L96.00,12.39 L95.89,12.45 L95.97,12.65 L96.00,12.86 L86.71,18.25 L86.59,17.79 L86.26,17.45 L73.32,9.94 L72.89,9.38 L72.98,8.68 Z" fill="#a3a3a3" stroke="#1e1e1e" stroke-width="1" stroke-linejoin="round"/></svg>