<svg xmlns="http://www.w3.org/2000/svg" viewBox="-2.00 -2.00 100.00 99.98"><path d="M96.00,77.19 L95.58,73.79 L94.59,70.58 L93.07,67.65 L91.09,65.03 L88.68,62.79 L85.91,60.98 L82.83,59.67 L79.48,58.91 L79.23,56.50 L78.76,54.18 L78.07,51.94 L77.17,49.81 L76.08,47.78 L74.81,45.89 L73.37,44.13 L71.77,42.51 L70.03,41.05 L68.15,39.77 L66.15,38.66 L64.05,37.74 L61.84,37.02 L59.56,36.52 L57.20,36.25 L54.78,36.20 L50.94,36.41 L47.24,37.20 L43.75,38.53 L40.52,40.36 L37.60,42.66 L35.05,45.39 L32.92,48.51 L31.27,51.98 L29.22,52.33 L27.23,52.85 L25.32,53.54 L23.50,54.39 L21.77,55.39 L20.14,56.53 L18.63,57.81 L17.23,59.21 L15.96,60.72 L14.82,62.35 L13.83,64.07 L12.99,65.88 L12.31,67.77 L11.79,69.73 L11.45,71.76 L11.29,73.84 L11.50,76.18 L11.94,78.45 L12.59,80.63 L13.44,82.72 L14.48,84.69 L15.71,86.54 L17.10,88.26 L18.64,89.84 L20.33,91.26 L22.14,92.52 L24.08,93.60 L26.13,94.50 L28.27,95.19 L30.49,95.68 L32.78,95.95 L35.14,95.98 L77.09,95.98 L79.00,95.86 L80.86,95.55 L82.65,95.07 L84.37,94.42 L86.00,93.62 L87.55,92.68 L88.99,91.60 L90.33,90.39 L91.54,89.06 L92.63,87.63 L93.59,86.09 L94.40,84.46 L95.05,82.74 L95.54,80.95 L95.86,79.10 L96.00,77.19 L96.00,77.19 Z" fill="#41d2ee" stroke="#1e1e1e" stroke-width="1" stroke-linejoin="round"/><path d="M40.76,85.34 L30.37,74.91 L30.19,74.60 L30.28,74.26 L30.37,74.17 L40.76,63.78 L41.16,63.64 L41.54,63.82 L41.69,64.15 L41.69,70.27 L41.82,70.64 L42.18,70.80 L42.34,70.78 L55.78,70.78 L56.13,70.96 L56.25,71.33 L56.25,71.33 L56.25,77.78 L56.10,78.14 L55.73,78.29 L42.34,78.29 L41.97,78.44 L41.82,78.80 L41.82,84.97 L41.80,85.40 L41.48,85.69 L41.05,85.66 L40.76,85.34 L40.76,85.34 L40.76,85.34 Z" fill="#ffffff" stroke="#1e1e1e" stroke-width="1" stroke-linejoin="round"/><path d="M66.35,63.78 L77.10,74.53 L66.35,85.33 L65.99,85.49 L65.63,85.35 L65.47,84.96 L65.47,78.84 L65.30,78.45 L64.91,78.29 L51.01,78.29 L51.01,70.78 L64.91,70.78 L65.32,70.65 L65.51,70.27 L65.51,70.27 L65.51,64.15 L65.68,63.79 L66.05,63.66 L66.35,63.78 L66.35,63.78 Z" fill="#ffffff" stroke="#1e1e1e" stroke-width="1" stroke-linejoin="round"/><path d="M7.54,73.99 L7.54,73.73 L7.77,71.01 L8.27,68.34 L9.03,65.75 L10.06,63.25 L5.92,62.17 L2.78,60.90 L1.63,60.21 L0.79,59.49 L0.27,58.74 L0.09,57.96 L0.09,72.35 L0.23,73.03 L0.63,73.69 L1.27,74.33 L2.16,74.94 L4.60,76.09 L7.85,77.11 L7.54,73.99 L7.54,73.99 Z" fill="#005ba1" stroke="#005ba1" stroke-width="1" stroke-linejoin="round"/><path d="M14.46,56.68 L16.09,55.05 L17.84,53.58 L19.71,52.27 L21.69,51.13 L17.17,51.54 L13.04,52.11 L9.36,52.83 L6.20,53.67 L3.63,54.61 L1.71,55.66 L0.51,56.78 L0.20,57.36 L0.09,57.96 L0.27,58.74 L0.79,59.49 L1.63,60.21 L2.78,60.90 L5.92,62.17 L10.05,63.25 L12.00,59.81 L14.46,56.67 L14.46,56.68 Z" fill="#198ab3" stroke="#198ab3" stroke-width="1" stroke-linejoin="round"/><path d="M60.77,32.93 L60.77,32.55 L60.73,32.92 L60.77,32.93 Z" fill="#0078d4" stroke="#0078d4" stroke-width="1" stroke-linejoin="round"/><path d="M28.63,48.61 L30.00,46.09 L31.61,43.73 L33.43,41.56 L35.46,39.59 L30.43,39.70 L24.31,39.55 L18.62,39.13 L13.47,38.48 L8.98,37.60 L5.27,36.54 L2.47,35.33 L1.45,34.67 L0.71,33.99 L0.25,33.28 L0.09,32.55 L0.09,46.94 L0.18,47.48 L0.43,48.01 L1.41,49.02 L2.98,49.98 L5.09,50.87 L7.70,51.67 L10.76,52.37 L14.22,52.97 L18.02,53.46 L20.46,51.81 L23.05,50.45 L25.79,49.38 L28.64,48.62 L28.63,48.61 Z" fill="#0078d4" stroke="#1e1e1e" stroke-width="1" stroke-linejoin="round"/><path d="M35.46,39.59 L37.44,37.99 L39.54,36.58 L41.77,35.36 L44.10,34.33 L46.52,33.52 L49.02,32.92 L51.58,32.56 L54.19,32.44 L54.76,32.44 L55.56,32.43 L58.18,32.55 L60.73,32.92 L60.76,32.55 L60.61,31.82 L60.15,31.11 L59.40,30.43 L58.38,29.77 L55.58,28.56 L51.88,27.50 L47.39,26.63 L42.23,25.97 L36.54,25.55 L30.43,25.41 L24.31,25.55 L18.62,25.97 L13.47,26.63 L8.98,27.50 L5.27,28.56 L2.47,29.77 L1.45,30.43 L0.71,31.11 L0.25,31.82 L0.09,32.55 L0.25,33.28 L0.71,33.99 L1.45,34.67 L2.47,35.33 L5.27,36.54 L8.98,37.60 L13.47,38.47 L18.62,39.13 L24.31,39.55 L30.43,39.69 L35.46,39.59 Z" fill="#32bedd" stroke="#1e1e1e" stroke-width="1" stroke-linejoin="round"/><path d="M30.34,14.29 L24.29,14.15 L18.65,13.74 L13.54,13.09 L9.08,12.24 L5.37,11.20 L2.55,10.01 L1.51,9.36 L0.73,8.69 L0.23,7.99 L0.03,7.27 L0.00,7.27 L0.00,21.53 L0.16,22.26 L0.62,22.97 L1.36,23.65 L2.38,24.31 L5.18,25.52 L8.89,26.58 L13.38,27.45 L18.53,28.11 L24.22,28.53 L30.34,28.67 L36.33,28.53 L41.92,28.13 L46.99,27.50 L51.44,26.66 L55.14,25.64 L57.98,24.47 L59.05,23.83 L59.86,23.17 L60.39,22.48 L60.65,21.78 L60.65,21.78 L60.65,21.53 L60.65,21.40 L60.65,21.21 L60.65,21.21 L60.65,7.14 L60.49,7.87 L60.04,8.58 L59.29,9.26 L58.28,9.92 L55.48,11.13 L51.78,12.19 L47.29,13.07 L42.14,13.73 L36.45,14.14 L30.34,14.29 L30.34,14.29 Z" fill="#5ea0ef" stroke="#1e1e1e" stroke-width="1" stroke-linejoin="round"/><ellipse cx="30.34" cy="7.14" rx="30.34" ry="7.14" fill="#9cebff" stroke="#1e1e1e" stroke-width="1"/></svg>