<svg xmlns="http://www.w3.org/2000/svg" viewBox="2.64 0.13 90.72 94.78"><path d="M74.67,25.60 L74.11,21.37 L72.82,17.30 L70.86,13.51 L68.26,10.13 L65.12,7.24 L61.53,4.93 L57.60,3.28 L53.44,2.34 L49.17,2.13 L44.75,2.44 L40.44,3.52 L36.39,5.34 L32.73,7.84 L29.55,10.94 L26.97,14.55 L25.07,18.56 L21.04,19.42 L17.23,20.97 L13.75,23.17 L10.72,25.95 L8.22,29.23 L6.34,32.89 L5.13,36.82 L4.64,40.91 L5.16,44.98 L6.38,48.90 L8.25,52.55 L10.73,55.82 L13.74,58.61 L17.19,60.84 L20.97,62.44 L24.97,63.36 L29.07,63.57 L31.20,63.57 L44.69,63.57 L44.69,77.60 L44.49,78.09 L44.00,78.29 L36.16,78.29 L35.68,78.50 L35.49,78.98 L35.68,79.47 L48.85,92.64 L49.55,92.91 L50.24,92.64 L63.41,79.47 L63.61,78.98 L63.41,78.50 L62.93,78.29 L55.04,78.29 L54.57,78.09 L54.40,77.60 L54.40,63.47 L70.72,63.47 L71.25,63.51 L71.79,63.47 L75.53,63.09 L79.13,62.01 L82.46,60.26 L85.39,57.91 L87.83,55.05 L89.68,51.77 L90.87,48.21 L91.36,44.48 L90.89,40.60 L89.65,36.89 L87.70,33.50 L85.11,30.57 L81.99,28.22 L78.46,26.54 L74.67,25.60 L74.67,25.60 Z" fill="#3990e4" stroke="#1e1e1e" stroke-width="1" stroke-linejoin="round"/><path d="M25.97,43.63 L39.15,30.51 L39.84,30.18 L40.53,30.51 L53.71,43.63 L53.88,44.33 L53.33,44.80 L45.39,44.80 L44.90,45.00 L44.69,45.49 L44.69,63.47 L35.04,63.47 L35.04,45.49 L34.84,45.00 L34.35,44.80 L26.67,44.80 L26.05,44.73 L25.74,44.20 L25.97,43.63 L25.97,43.63 Z" fill="#ffffff" stroke="#1e1e1e" stroke-width="1" stroke-linejoin="round"/></svg>