<svg xmlns="http://www.w3.org/2000/svg" viewBox="2.91 0.26 95.71 100.00"><path d="M78.96,27.07 L78.37,22.60 L77.01,18.30 L74.93,14.29 L72.19,10.71 L68.87,7.65 L65.07,5.22 L60.91,3.47 L56.51,2.48 L52.00,2.26 L47.32,2.58 L42.77,3.73 L38.49,5.65 L34.61,8.29 L31.25,11.57 L28.52,15.39 L26.51,19.63 L22.25,20.53 L18.22,22.18 L14.54,24.51 L11.33,27.45 L8.69,30.91 L6.70,34.78 L5.43,38.94 L4.91,43.26 L5.46,47.56 L6.74,51.71 L8.73,55.57 L11.35,59.03 L14.53,61.98 L18.18,64.34 L22.17,66.03 L26.40,67.00 L30.74,67.23 L32.99,67.23 L47.26,67.23 L47.26,82.06 L47.05,82.58 L46.53,82.79 L38.24,82.79 L37.74,83.02 L37.53,83.52 L37.73,84.04 L51.66,97.97 L52.40,98.26 L53.13,97.97 L67.06,84.04 L67.26,83.52 L67.06,83.02 L66.55,82.79 L58.20,82.79 L57.70,82.58 L57.53,82.06 L57.53,67.12 L74.79,67.12 L75.35,67.16 L75.91,67.12 L79.87,66.72 L83.68,65.57 L87.20,63.73 L90.30,61.24 L92.88,58.21 L94.83,54.75 L96.09,50.98 L96.61,47.04 L96.12,42.93 L94.81,39.01 L92.74,35.43 L90.01,32.33 L86.70,29.85 L82.97,28.07 L78.96,27.07 L78.96,27.07 Z" fill="#3990e4" stroke="#1e1e1e" stroke-width="1" stroke-linejoin="round"/><path d="M27.47,46.13 L41.40,32.26 L42.13,31.92 L42.86,32.26 L56.79,46.13 L56.97,46.88 L56.40,47.38 L48.00,47.38 L47.48,47.59 L47.26,48.11 L47.26,67.12 L37.05,67.12 L37.05,48.11 L36.84,47.59 L36.32,47.38 L28.20,47.38 L27.55,47.30 L27.22,46.74 L27.47,46.13 L27.47,46.13 Z" fill="#ffffff" stroke="#1e1e1e" stroke-width="1" stroke-linejoin="round"/></svg>