<svg xmlns="http://www.w3.org/2000/svg" viewBox="-2.00 4.29 100.00 87.29"><path d="M96.00,42.13 L95.60,38.83 L94.53,35.67 L92.86,32.79 L90.64,30.30 L87.97,28.32 L84.95,26.91 L81.71,26.13 L81.14,22.14 L79.82,18.34 L77.78,14.86 L75.11,11.84 L71.90,9.39 L68.29,7.61 L64.39,6.57 L60.37,6.29 L56.62,6.57 L52.97,7.50 L49.54,9.05 L46.44,11.19 L43.77,13.83 L41.60,16.91 L40.00,20.32 L36.11,21.19 L32.48,22.83 L29.26,25.17 L26.57,28.12 L24.54,31.54 L23.24,35.30 L22.72,39.25 L23.21,43.16 L24.46,46.89 L26.41,50.30 L28.99,53.26 L32.11,55.66 L35.64,57.40 L39.44,58.42 L43.36,58.67 L45.17,58.67 L78.56,58.67 L79.47,58.67 L83.13,58.22 L86.61,56.98 L89.73,55.01 L92.34,52.40 L94.32,49.28 L95.56,45.80 L96.00,42.13 L96.00,42.13 Z" fill="#3990e4" stroke="#1e1e1e" stroke-width="1" stroke-linejoin="round"/><path d="M76.75,27.84 L66.99,18.35 L66.23,17.81 L65.60,17.81 L65.17,18.31 L65.01,19.31 L65.01,23.57 L64.65,24.42 L63.79,24.75 L60.95,24.86 L57.40,25.38 L55.45,25.86 L53.44,26.54 L51.42,27.43 L49.43,28.57 L47.50,30.00 L45.67,31.74 L44.00,33.82 L42.52,36.27 L41.26,39.12 L40.28,42.41 L39.62,46.16 L39.31,50.40 L39.67,51.27 L40.53,51.63 L46.77,51.63 L47.68,51.23 L48.00,50.29 L47.67,46.83 L48.16,43.39 L49.44,40.15 L51.45,37.31 L54.06,35.02 L57.15,33.41 L60.52,32.56 L64.00,32.53 L64.87,32.89 L65.23,33.76 L65.23,37.71 L65.35,38.88 L65.71,39.43 L66.33,39.36 L67.20,38.67 L76.75,29.87 L77.22,29.24 L77.22,28.46 L76.75,27.84 L76.75,27.84 Z" fill="#ffffff" stroke="#1e1e1e" stroke-width="1" stroke-linejoin="round"/><path d="M75.31,72.85 L74.87,69.48 L73.76,66.27 L72.04,63.34 L69.76,60.82 L67.03,58.80 L63.95,57.37 L60.64,56.59 L60.06,52.47 L58.70,48.55 L56.60,44.97 L53.85,41.86 L50.55,39.34 L46.82,37.51 L42.81,36.44 L38.67,36.16 L34.82,36.43 L31.09,37.37 L27.57,38.95 L24.39,41.13 L21.64,43.83 L19.41,46.97 L17.76,50.45 L13.77,51.35 L10.04,53.03 L6.73,55.43 L3.97,58.44 L1.88,61.95 L0.54,65.81 L0.00,69.87 L0.55,73.85 L1.87,77.66 L3.90,81.13 L6.58,84.14 L9.79,86.56 L13.42,88.31 L17.31,89.32 L21.33,89.55 L57.49,89.55 L57.95,89.59 L58.40,89.55 L62.12,89.09 L65.64,87.84 L68.82,85.85 L71.48,83.22 L73.51,80.08 L74.80,76.56 L75.31,72.85 L75.31,72.85 Z" fill="#2ec7ea" stroke="#1e1e1e" stroke-width="1" stroke-linejoin="round"/></svg>