<svg xmlns="http://www.w3.org/2000/svg" viewBox="4.74 -2.00 86.53 100.00"><path d="M86.50,35.14 L60.23,35.14 L59.25,35.55 L58.85,36.52 L58.85,52.42 L58.44,53.40 L57.47,53.80 L34.17,53.80 L33.20,54.20 L32.79,55.17 L32.79,71.40 L32.39,72.38 L31.41,72.78 L8.11,72.78 L7.14,73.19 L6.74,74.15 L6.74,93.25 L7.11,94.63 L8.11,95.63 L9.48,96.00 L61.83,96.00 L61.98,95.99 L62.12,95.97 L86.50,95.97 L87.88,95.60 L88.89,94.59 L89.26,93.21 L89.26,37.90 L88.89,36.52 L87.88,35.51 L86.50,35.14 L86.50,35.14 Z" fill="#cccccc" stroke="#1e1e1e" stroke-width="1" stroke-linejoin="round"/><path d="M83.52,77.31 L83.88,77.35 L84.21,77.49 L84.50,77.71 L84.72,78.00 L84.85,78.33 L84.90,78.69 L84.90,90.38 L84.85,90.74 L84.72,91.07 L84.50,91.36 L84.21,91.58 L83.88,91.72 L83.52,91.77 L64.59,91.77 L64.23,91.72 L63.90,91.58 L63.61,91.36 L63.39,91.07 L63.25,90.74 L63.21,90.38 L63.21,78.69 L63.25,78.33 L63.39,78.00 L63.61,77.71 L63.90,77.49 L64.23,77.35 L64.59,77.31 L83.52,77.31 Z" fill="#005ba1" stroke="#1e1e1e" stroke-width="1" stroke-linejoin="round"/><path d="M83.52,58.33 L83.88,58.37 L84.21,58.51 L84.50,58.73 L84.72,59.02 L84.85,59.35 L84.90,59.71 L84.90,71.40 L84.85,71.76 L84.72,72.09 L84.50,72.38 L84.21,72.60 L83.88,72.74 L83.52,72.78 L64.59,72.78 L64.23,72.74 L63.90,72.60 L63.61,72.38 L63.39,72.09 L63.25,71.76 L63.21,71.40 L63.21,59.71 L63.25,59.35 L63.39,59.02 L63.61,58.73 L63.90,58.51 L64.23,58.37 L64.59,58.33 L83.52,58.33 Z" fill="#5ea0ef" stroke="#1e1e1e" stroke-width="1" stroke-linejoin="round"/><path d="M83.52,39.34 L83.88,39.39 L84.21,39.53 L84.50,39.75 L84.72,40.03 L84.85,40.37 L84.90,40.73 L84.90,52.42 L84.85,52.78 L84.72,53.11 L84.50,53.40 L84.21,53.62 L83.88,53.76 L83.52,53.80 L64.59,53.80 L64.23,53.76 L63.90,53.62 L63.61,53.40 L63.39,53.11 L63.25,52.78 L63.21,52.42 L63.21,40.73 L63.25,40.37 L63.39,40.03 L63.61,39.75 L63.90,39.53 L64.23,39.39 L64.59,39.34 L83.52,39.34 Z" fill="#ffffff" stroke="#1e1e1e" stroke-width="1" stroke-linejoin="round"/><path d="M57.47,77.33 L57.82,77.38 L58.16,77.52 L58.44,77.74 L58.66,78.02 L58.80,78.36 L58.85,78.71 L58.85,90.41 L58.80,90.77 L58.66,91.10 L58.44,91.39 L58.16,91.61 L57.82,91.74 L57.47,91.79 L38.53,91.79 L38.18,91.74 L37.84,91.61 L37.56,91.39 L37.34,91.10 L37.20,90.77 L37.15,90.41 L37.15,78.71 L37.20,78.36 L37.34,78.02 L37.56,77.74 L37.84,77.52 L38.18,77.38 L38.53,77.33 L57.47,77.33 Z" fill="#005ba1" stroke="#1e1e1e" stroke-width="1" stroke-linejoin="round"/><path d="M57.47,58.36 L57.82,58.40 L58.16,58.54 L58.44,58.76 L58.66,59.05 L58.80,59.38 L58.85,59.74 L58.85,71.43 L58.80,71.79 L58.66,72.13 L58.44,72.41 L58.16,72.63 L57.82,72.77 L57.47,72.82 L38.53,72.82 L38.18,72.77 L37.84,72.63 L37.56,72.41 L37.34,72.13 L37.20,71.79 L37.15,71.43 L37.15,59.74 L37.20,59.38 L37.34,59.05 L37.56,58.76 L37.84,58.54 L38.18,58.40 L38.53,58.36 L57.47,58.36 Z" fill="#ffffff" stroke="#1e1e1e" stroke-width="1" stroke-linejoin="round"/><path d="M31.41,77.33 L31.77,77.38 L32.10,77.52 L32.39,77.74 L32.61,78.02 L32.75,78.36 L32.79,78.71 L32.79,90.41 L32.75,90.77 L32.61,91.10 L32.39,91.39 L32.10,91.61 L31.77,91.74 L31.41,91.79 L12.48,91.79 L12.12,91.74 L11.79,91.61 L11.50,91.39 L11.28,91.10 L11.15,90.77 L11.10,90.41 L11.10,78.71 L11.15,78.36 L11.28,78.02 L11.50,77.74 L11.79,77.52 L12.12,77.38 L12.48,77.33 L31.41,77.33 Z" fill="#005ba1" stroke="#1e1e1e" stroke-width="1" stroke-linejoin="round"/><path d="M56.66,18.11 L57.08,18.17 L57.48,18.33 L57.82,18.59 L58.08,18.93 L58.24,19.33 L58.30,19.75 L58.30,33.65 L58.24,34.07 L58.08,34.47 L57.82,34.81 L57.48,35.07 L57.08,35.23 L56.66,35.29 L34.16,35.29 L33.73,35.23 L33.34,35.07 L33.00,34.81 L32.74,34.47 L32.57,34.07 L32.52,33.65 L32.52,19.75 L32.57,19.33 L32.74,18.93 L33.00,18.59 L33.34,18.33 L33.73,18.17 L34.16,18.11 L56.66,18.11 Z" fill="#5ea0ef" stroke="#1e1e1e" stroke-width="1" stroke-linejoin="round"/><path d="M30.87,36.05 L31.30,36.11 L31.70,36.27 L32.04,36.53 L32.30,36.87 L32.46,37.27 L32.52,37.70 L32.52,51.59 L32.46,52.01 L32.30,52.41 L32.04,52.75 L31.70,53.01 L31.30,53.18 L30.87,53.23 L8.38,53.23 L7.95,53.18 L7.56,53.01 L7.22,52.75 L6.96,52.41 L6.79,52.01 L6.74,51.59 L6.74,37.70 L6.79,37.27 L6.96,36.87 L7.22,36.53 L7.56,36.27 L7.95,36.11 L8.38,36.05 L30.87,36.05 Z" fill="#0078d4" stroke="#1e1e1e" stroke-width="1" stroke-linejoin="round"/><path d="M30.87,0.00 L31.30,0.06 L31.70,0.22 L32.04,0.48 L32.30,0.82 L32.46,1.22 L32.52,1.64 L32.52,15.54 L32.46,15.96 L32.30,16.36 L32.04,16.70 L31.70,16.96 L31.30,17.12 L30.87,17.18 L8.38,17.18 L7.95,17.12 L7.56,16.96 L7.22,16.70 L6.96,16.36 L6.79,15.96 L6.74,15.54 L6.74,1.64 L6.79,1.22 L6.96,0.82 L7.22,0.48 L7.56,0.22 L7.95,0.06 L8.38,0.00 L30.87,0.00 Z" fill="#83b9f9" stroke="#1e1e1e" stroke-width="1" stroke-linejoin="round"/></svg>