<svg xmlns="http://www.w3.org/2000/svg" viewBox="-2.00 -2.00 100.00 100.01"><path d="M46.44,82.62 L47.40,81.97 L48.54,81.74 L48.58,81.74 L53.17,81.74 L53.17,70.09 L53.17,70.09 L53.17,67.24 L53.40,65.67 L54.03,64.27 L46.74,64.80 L38.91,64.99 L31.15,64.81 L23.92,64.29 L17.36,63.46 L11.64,62.37 L6.89,61.05 L4.93,60.31 L3.28,59.52 L1.94,58.69 L0.94,57.83 L0.30,56.93 L0.04,56.01 L0.04,74.27 L0.24,75.21 L0.83,76.12 L1.79,76.99 L3.09,77.83 L4.73,78.64 L6.68,79.39 L11.43,80.74 L17.19,81.86 L23.80,82.70 L31.10,83.24 L38.94,83.42 L45.96,83.27 L46.43,82.62 L46.44,82.62 Z" fill="#0078d4" stroke="#1e1e1e" stroke-width="1" stroke-linejoin="round"/><path d="M58.78,61.63 L69.71,61.63 L71.16,61.16 L70.62,60.22 L70.45,59.14 L70.66,58.16 L71.19,57.31 L71.24,57.25 L71.30,57.19 L75.54,52.95 L73.11,51.68 L69.91,50.52 L66.03,49.48 L61.53,48.60 L56.49,47.88 L50.99,47.34 L45.10,47.01 L38.91,46.89 L31.07,47.08 L23.76,47.61 L17.15,48.45 L11.40,49.57 L6.64,50.93 L4.70,51.68 L3.06,52.48 L1.75,53.32 L0.79,54.20 L0.20,55.11 L0.00,56.04 L0.20,56.98 L0.79,57.89 L1.75,58.76 L3.06,59.60 L4.70,60.40 L6.64,61.16 L11.40,62.51 L17.15,63.63 L23.76,64.47 L31.07,65.00 L38.91,65.19 L46.66,65.01 L53.90,64.49 L54.77,63.32 L55.92,62.42 L57.27,61.84 L58.78,61.63 L58.78,61.63 Z" fill="#83b9f9" stroke="#1e1e1e" stroke-width="1" stroke-linejoin="round"/><path d="M0.00,32.77 L0.20,33.71 L0.79,34.62 L1.75,35.49 L3.06,36.33 L4.70,37.13 L6.64,37.89 L11.40,39.24 L17.15,40.36 L23.76,41.20 L31.07,41.73 L38.91,41.92 L46.75,41.73 L54.05,41.20 L60.66,40.36 L66.42,39.24 L71.17,37.89 L73.12,37.13 L74.76,36.33 L76.06,35.49 L77.02,34.62 L77.61,33.71 L77.81,32.77 L77.61,31.84 L77.02,30.93 L76.06,30.05 L74.76,29.21 L73.12,28.41 L71.17,27.66 L66.42,26.30 L60.66,25.19 L54.05,24.34 L46.75,23.81 L38.91,23.62 L31.07,23.81 L23.76,24.34 L17.15,25.18 L11.40,26.30 L6.64,27.65 L4.70,28.41 L3.06,29.21 L1.75,30.05 L0.79,30.93 L0.20,31.84 L0.00,32.77 Z" fill="#83b9f9" stroke="#1e1e1e" stroke-width="1" stroke-linejoin="round"/><path d="M77.82,50.68 L77.82,32.56 L77.62,33.50 L77.02,34.40 L76.07,35.28 L74.76,36.12 L73.12,36.92 L71.17,37.68 L66.42,39.03 L60.66,40.15 L54.05,40.99 L46.75,41.53 L38.91,41.71 L31.15,41.53 L23.92,41.01 L17.36,40.19 L11.64,39.10 L6.89,37.77 L4.94,37.03 L3.28,36.24 L1.94,35.42 L0.94,34.55 L0.30,33.66 L0.04,32.73 L0.04,51.00 L0.24,51.93 L0.83,52.84 L1.79,53.72 L3.09,54.56 L4.73,55.36 L6.68,56.11 L11.43,57.47 L17.19,58.59 L23.80,59.43 L31.10,59.96 L38.94,60.15 L44.38,60.06 L49.58,59.80 L54.50,59.39 L59.09,58.83 L63.30,58.13 L67.07,57.32 L70.36,56.39 L73.11,55.37 L77.81,50.67 L77.82,50.68 Z" fill="#0078d4" stroke="#1e1e1e" stroke-width="1" stroke-linejoin="round"/><path d="M38.91,18.10 L31.15,17.92 L23.92,17.40 L17.36,16.57 L11.64,15.48 L6.89,14.15 L4.93,13.41 L3.28,12.63 L1.94,11.80 L0.94,10.94 L0.30,10.04 L0.04,9.11 L0.04,9.11 L0.04,27.38 L0.24,28.32 L0.83,29.23 L1.79,30.10 L3.09,30.94 L4.73,31.74 L6.68,32.50 L11.43,33.85 L17.19,34.97 L23.80,35.81 L31.10,36.35 L38.94,36.53 L46.62,36.36 L53.79,35.84 L60.30,35.03 L66.00,33.96 L70.75,32.65 L74.40,31.15 L75.77,30.34 L76.80,29.49 L77.49,28.61 L77.81,27.71 L77.81,27.71 L77.81,26.98 L77.81,26.98 L77.81,8.94 L77.61,9.88 L77.02,10.79 L76.06,11.67 L74.75,12.51 L73.11,13.31 L71.16,14.06 L66.41,15.42 L60.65,16.53 L54.05,17.38 L46.75,17.91 L38.91,18.10 Z" fill="#0078d4" stroke="#1e1e1e" stroke-width="1" stroke-linejoin="round"/><path d="M0.00,9.15 L0.20,10.09 L0.79,11.00 L1.75,11.87 L3.06,12.71 L4.70,13.51 L6.64,14.27 L11.40,15.62 L17.15,16.74 L23.76,17.58 L31.07,18.11 L38.91,18.30 L46.75,18.11 L54.05,17.58 L60.66,16.74 L66.42,15.62 L71.17,14.27 L73.12,13.51 L74.76,12.71 L76.06,11.87 L77.02,11.00 L77.61,10.09 L77.81,9.15 L77.61,8.22 L77.02,7.31 L76.06,6.43 L74.76,5.59 L73.12,4.79 L71.17,4.04 L66.42,2.68 L60.66,1.56 L54.05,0.72 L46.75,0.19 L38.91,0.00 L31.07,0.19 L23.76,0.72 L17.15,1.56 L11.40,2.68 L6.64,4.03 L4.70,4.79 L3.06,5.59 L1.75,6.43 L0.79,7.31 L0.20,8.22 L0.00,9.15 Z" fill="#83b9f9" stroke="#1e1e1e" stroke-width="1" stroke-linejoin="round"/><path d="M80.43,72.01 L80.43,64.04 L58.78,64.04 L57.54,64.29 L56.52,64.98 L55.83,65.99 L55.58,67.24 L55.58,70.45 L55.58,70.46 L55.58,83.59 L55.58,83.59 L55.41,83.99 L55.02,84.15 L48.56,84.15 L48.15,84.31 L47.99,84.71 L48.15,85.11 L58.68,95.64 L59.10,95.91 L59.57,96.01 L60.04,95.91 L60.46,95.64 L70.99,85.11 L71.13,84.76 L70.98,84.36 L70.59,84.18 L64.12,84.18 L64.12,84.18 L63.72,84.01 L63.56,83.62 L63.56,72.01 L80.43,72.01 L80.43,72.01 Z" fill="#6635bb" stroke="#1e1e1e" stroke-width="1" stroke-linejoin="round"/><path d="M95.83,58.90 L85.30,48.37 L84.89,48.09 L84.41,48.00 L83.94,48.09 L83.53,48.37 L72.99,58.90 L72.85,59.24 L73.00,59.65 L73.39,59.83 L79.87,59.83 L79.87,59.83 L80.26,59.99 L80.43,60.39 L80.43,71.99 L63.55,71.99 L63.55,79.97 L85.20,79.97 L86.45,79.72 L87.47,79.03 L88.15,78.01 L88.41,76.76 L88.41,60.42 L88.41,60.42 L88.57,60.02 L88.97,59.86 L95.42,59.86 L95.83,59.69 L96.00,59.29 L95.83,58.90 L95.83,58.90 Z" fill="#a67bf4" stroke="#1e1e1e" stroke-width="1" stroke-linejoin="round"/></svg>