<svg xmlns="http://www.w3.org/2000/svg" viewBox="12.03 0.67 72.05 94.67"><path d="M48.00,27.41 L41.15,27.17 L34.77,26.47 L29.00,25.35 L23.97,23.86 L21.78,22.99 L19.83,22.04 L18.12,21.01 L16.70,19.92 L15.55,18.77 L14.72,17.56 L14.20,16.30 L14.03,14.99 L14.03,80.85 L14.20,82.11 L14.70,83.33 L15.53,84.51 L16.65,85.64 L18.06,86.72 L19.73,87.74 L21.65,88.69 L23.81,89.57 L28.77,91.10 L34.46,92.27 L40.75,93.03 L47.52,93.33 L48.00,93.33 L54.85,93.09 L61.24,92.39 L67.02,91.28 L72.05,89.79 L74.25,88.93 L76.21,87.98 L77.92,86.97 L79.35,85.89 L80.50,84.74 L81.33,83.55 L81.85,82.30 L82.03,81.01 L82.03,15.15 L81.86,16.41 L81.35,17.64 L80.52,18.82 L79.38,19.95 L77.95,21.03 L76.25,22.04 L74.29,22.99 L72.09,23.86 L67.05,25.36 L61.27,26.48 L54.87,27.18 L48.00,27.41 Z" fill="#0077d2" stroke="#1e1e1e" stroke-width="1" stroke-linejoin="round"/><path d="M82.08,15.15 L81.90,16.41 L81.39,17.64 L80.55,18.82 L79.40,19.95 L77.97,21.03 L76.26,22.04 L74.30,22.99 L72.11,23.86 L67.07,25.36 L61.29,26.48 L54.91,27.18 L48.05,27.41 L41.20,27.16 L34.83,26.45 L29.05,25.33 L24.03,23.84 L21.83,22.97 L19.88,22.02 L18.18,21.00 L16.75,19.91 L15.61,18.76 L14.77,17.55 L14.26,16.29 L14.08,14.99 L14.26,13.68 L14.77,12.42 L15.61,11.21 L16.76,10.06 L18.19,8.98 L19.89,7.96 L21.85,7.01 L24.04,6.15 L29.06,4.67 L34.82,3.57 L41.18,2.89 L48.00,2.67 L54.82,2.94 L61.18,3.68 L66.95,4.84 L71.99,6.37 L74.18,7.25 L76.15,8.21 L77.85,9.24 L79.29,10.32 L80.44,11.46 L81.28,12.65 L81.80,13.88 L81.97,15.15" fill="none" stroke="#1e1e1e" stroke-width="1" stroke-linejoin="round"/><path d="M74.13,14.13 L74.00,14.93 L73.60,15.71 L72.96,16.46 L72.08,17.18 L69.68,18.51 L66.49,19.67 L62.63,20.62 L58.20,21.33 L53.31,21.78 L48.05,21.92 L42.80,21.74 L37.91,21.27 L33.49,20.54 L29.64,19.57 L26.46,18.40 L24.07,17.05 L23.19,16.33 L22.55,15.57 L22.16,14.78 L22.03,13.97 L22.16,13.16 L22.56,12.38 L23.20,11.63 L24.08,10.90 L26.48,9.57 L29.65,8.42 L33.50,7.47 L37.91,6.77 L42.78,6.33 L48.00,6.19 L53.22,6.36 L58.10,6.84 L62.53,7.57 L66.39,8.54 L69.58,9.71 L71.99,11.05 L72.87,11.78 L73.51,12.54 L73.90,13.32 L74.03,14.13" fill="none" stroke="#1e1e1e" stroke-width="1" stroke-linejoin="round"/><path d="M48.00,16.00 L41.01,16.23 L34.08,17.23 L27.31,18.99 L34.08,20.76 L41.00,21.74 L48.00,21.92 L55.00,21.70 L61.93,20.68 L68.69,18.88 L61.91,17.17 L54.99,16.21 L48.00,16.00 L48.00,16.00 Z" fill="#198ab3" stroke="#198ab3" stroke-width="1" stroke-linejoin="round"/><path d="M66.51,54.29 L62.13,52.91 L61.81,52.85 L61.60,52.43 L60.69,50.19 L60.65,49.79 L60.69,49.39 L62.72,45.28 L62.90,44.85 L62.72,44.43 L62.72,44.43 L60.53,42.24 L59.95,41.92 L59.36,42.24 L59.36,42.24 L55.63,44.11 L54.93,44.11 L52.75,43.20 L52.22,43.10 L51.89,42.67 L50.40,38.35 L50.22,38.02 L49.87,37.87 L46.29,37.87 L45.91,37.92 L45.65,38.29 L44.21,42.67 L44.15,42.91 L44.01,43.09 L43.73,43.20 L41.49,44.11 L41.07,44.19 L40.64,44.11 L36.37,42.03 L36.05,41.93 L35.73,42.03 L33.23,44.59 L33.08,44.91 L33.23,45.23 L33.23,45.23 L35.31,49.28 L35.41,49.71 L35.31,50.13 L34.35,52.21 L34.13,52.64 L33.71,52.85 L29.39,54.35 L29.01,54.52 L28.91,54.93 L28.91,58.67 L28.96,59.09 L29.33,59.31 L33.71,60.75 L34.07,60.96 L34.24,61.33 L34.34,61.86 L34.59,62.41 L35.15,63.52 L35.23,63.92 L35.15,64.32 L33.07,68.64 L32.97,68.93 L33.07,69.23 L35.73,71.84 L35.79,71.94 L36.16,71.84 L38.72,70.51 L40.59,69.33 L41.33,69.33 L43.57,70.24 L43.87,70.41 L44.05,70.77 L45.55,75.20 L45.76,75.54 L46.13,75.68 L49.65,75.68 L50.05,75.63 L50.29,75.25 L51.73,70.88 L51.91,70.56 L52.21,70.35 L54.51,69.44 L54.85,69.36 L55.20,69.44 L59.47,71.52 L59.79,71.63 L60.11,71.52 L62.67,68.96 L63.11,68.43 L62.91,68.38 L62.67,68.21 L61.57,66.16 L60.59,64.05 L60.43,63.65 L60.59,63.25 L61.49,61.07 L61.68,60.72 L62.03,60.53 L66.40,58.99 L66.75,58.81 L66.83,58.35 L66.83,54.88 L66.81,54.23 L66.71,54.29 L66.51,54.29 Z" fill="#ffffff" stroke="#ffffff" stroke-width="1" stroke-linejoin="round"/><path d="M53.92,62.40 L53.49,62.77 L51.21,64.14 L48.61,64.73 L45.96,64.48 L43.52,63.41 L42.99,63.04 L41.43,61.56 L40.28,59.75 L39.63,57.71 L39.49,55.65 L39.88,53.63 L40.76,51.77 L42.08,50.19 L42.28,49.87 L42.08,49.55 L41.39,48.75 L45.55,48.75 L45.81,48.75 L45.81,48.75 L45.81,52.85 L44.64,51.73 L44.57,51.63 L44.11,51.73 L42.92,53.16 L42.23,54.88 L42.10,56.73 L42.55,58.53 L43.52,60.11 L43.94,60.54 L44.43,60.91 L45.07,61.23 L46.49,61.90 L48.05,62.13 L50.07,61.84 L51.82,60.81 L53.07,59.20 L53.69,57.44 L53.72,55.56 L53.16,53.78 L52.05,52.27 L51.78,52.03 L51.47,51.52 L51.47,51.15 L51.97,50.66 L52.43,50.13 L53.15,49.69 L53.71,50.13 L55.34,52.30 L56.22,54.87 L56.26,57.58 L55.47,60.18 L53.92,62.40 L53.92,62.40 Z" fill="#0077d2" stroke="#0077d2" stroke-width="1" stroke-linejoin="round"/></svg>