<svg xmlns="http://www.w3.org/2000/svg" viewBox="12.85 0.82 76.06 100.00"><path d="M50.82,29.03 L43.57,28.77 L36.82,28.03 L30.71,26.84 L25.38,25.26 L23.06,24.34 L20.99,23.33 L19.19,22.25 L17.68,21.09 L16.47,19.87 L15.58,18.59 L15.04,17.25 L14.85,15.87 L14.85,85.61 L15.03,86.94 L15.57,88.23 L16.44,89.48 L17.63,90.68 L19.12,91.82 L20.89,92.90 L22.93,93.91 L25.21,94.84 L30.46,96.46 L36.48,97.70 L43.15,98.50 L50.32,98.82 L50.82,98.82 L58.08,98.57 L64.84,97.83 L70.96,96.65 L76.29,95.08 L78.62,94.16 L80.69,93.16 L82.50,92.08 L84.02,90.94 L85.23,89.73 L86.12,88.46 L86.67,87.14 L86.85,85.78 L86.85,16.04 L86.68,17.38 L86.14,18.67 L85.26,19.93 L84.05,21.12 L82.54,22.26 L80.73,23.34 L78.66,24.34 L76.33,25.26 L71.00,26.85 L64.87,28.04 L58.10,28.78 L50.82,29.03 Z" fill="#0077d2" stroke="#1e1e1e" stroke-width="1" stroke-linejoin="round"/><path d="M86.91,16.04 L86.72,17.38 L86.18,18.67 L85.29,19.93 L84.07,21.12 L82.56,22.26 L80.75,23.34 L78.67,24.34 L76.35,25.26 L71.01,26.85 L64.90,28.04 L58.14,28.78 L50.88,29.03 L43.63,28.75 L36.87,28.00 L30.76,26.82 L25.44,25.24 L23.12,24.32 L21.05,23.32 L19.25,22.24 L17.73,21.08 L16.52,19.87 L15.64,18.59 L15.09,17.25 L14.91,15.87 L15.09,14.48 L15.64,13.15 L16.53,11.87 L17.74,10.65 L19.26,9.50 L21.06,8.43 L23.13,7.43 L25.45,6.51 L30.77,4.95 L36.87,3.78 L43.61,3.06 L50.82,2.82 L58.04,3.11 L64.78,3.90 L70.89,5.12 L76.22,6.74 L78.55,7.68 L80.62,8.70 L82.43,9.78 L83.95,10.93 L85.17,12.14 L86.06,13.40 L86.61,14.70 L86.80,16.04 L86.91,16.04 Z" fill="#f2f2f2" stroke="#1e1e1e" stroke-width="1" stroke-linejoin="round"/><path d="M78.49,14.96 L78.35,15.81 L77.93,16.63 L77.25,17.43 L76.32,18.19 L73.78,19.60 L70.40,20.82 L66.32,21.83 L61.63,22.59 L56.44,23.06 L50.88,23.21 L45.32,23.02 L40.14,22.52 L35.46,21.74 L31.38,20.72 L28.02,19.48 L25.48,18.06 L24.56,17.29 L23.88,16.48 L23.46,15.65 L23.32,14.80 L23.46,13.94 L23.88,13.11 L24.56,12.31 L25.49,11.55 L28.03,10.14 L31.40,8.92 L35.47,7.91 L40.14,7.16 L45.30,6.70 L50.82,6.55 L56.36,6.74 L61.52,7.24 L66.21,8.02 L70.30,9.04 L73.68,10.28 L76.23,11.70 L77.16,12.47 L77.83,13.28 L78.25,14.11 L78.38,14.96 L78.49,14.96 Z" fill="#50e6ff" stroke="#1e1e1e" stroke-width="1" stroke-linejoin="round"/><path d="M50.82,16.94 L43.42,17.18 L36.08,18.24 L28.91,20.10 L36.08,21.98 L43.42,23.02 L50.82,23.21 L58.23,22.98 L65.57,21.90 L72.73,19.99 L65.56,18.18 L58.22,17.16 L50.82,16.94 L50.82,16.94 Z" fill="#198ab3" stroke="#198ab3" stroke-width="1" stroke-linejoin="round"/><path d="M70.42,57.49 L65.79,56.02 L65.44,55.96 L65.22,55.51 L64.26,53.14 L64.22,52.72 L64.26,52.29 L66.41,47.94 L66.60,47.49 L66.41,47.04 L66.41,47.04 L64.09,44.72 L63.47,44.38 L62.85,44.72 L62.85,44.72 L58.90,46.70 L58.16,46.70 L55.85,45.74 L55.29,45.63 L54.95,45.18 L53.36,40.60 L53.17,40.25 L52.80,40.09 L49.02,40.09 L48.61,40.15 L48.34,40.55 L46.81,45.18 L46.75,45.44 L46.60,45.63 L46.31,45.74 L43.93,46.70 L43.48,46.79 L43.03,46.70 L38.51,44.50 L38.17,44.40 L37.84,44.50 L35.18,47.21 L35.03,47.55 L35.18,47.89 L35.18,47.89 L37.38,52.18 L37.49,52.63 L37.38,53.08 L36.37,55.28 L36.14,55.74 L35.69,55.96 L31.12,57.54 L30.71,57.73 L30.61,58.16 L30.61,62.12 L30.66,62.56 L31.06,62.80 L35.69,64.32 L36.07,64.54 L36.25,64.94 L36.36,65.50 L36.63,66.08 L37.21,67.26 L37.30,67.68 L37.21,68.10 L35.01,72.68 L34.91,72.99 L35.01,73.30 L37.84,76.07 L37.89,76.17 L38.29,76.07 L41.00,74.65 L42.97,73.41 L43.76,73.41 L46.14,74.37 L46.45,74.55 L46.64,74.94 L48.23,79.62 L48.45,79.98 L48.85,80.13 L52.57,80.13 L53.00,80.08 L53.25,79.68 L54.78,75.05 L54.96,74.71 L55.28,74.48 L57.71,73.52 L58.08,73.44 L58.45,73.52 L62.96,75.73 L63.30,75.84 L63.64,75.73 L66.35,73.02 L66.82,72.45 L66.61,72.40 L66.35,72.23 L65.19,70.05 L64.15,67.82 L63.98,67.40 L64.15,66.97 L65.11,64.66 L65.31,64.29 L65.68,64.09 L70.31,62.46 L70.68,62.27 L70.76,61.78 L70.76,58.11 L70.74,57.42 L70.64,57.49 L70.42,57.49 Z" fill="#ffffff" stroke="#1e1e1e" stroke-width="1" stroke-linejoin="round"/><path d="M57.09,66.07 L56.64,66.47 L54.22,67.92 L51.47,68.54 L48.66,68.27 L46.08,67.14 L45.52,66.75 L43.87,65.19 L42.65,63.26 L41.96,61.10 L41.82,58.93 L42.23,56.78 L43.16,54.81 L44.56,53.14 L44.77,52.80 L44.56,52.46 L43.82,51.61 L48.23,51.61 L48.51,51.61 L48.51,51.61 L48.51,55.96 L47.27,54.78 L47.20,54.67 L46.70,54.78 L45.45,56.29 L44.72,58.11 L44.58,60.07 L45.05,61.97 L46.08,63.64 L46.53,64.10 L47.04,64.49 L47.72,64.83 L49.23,65.54 L50.88,65.79 L53.01,65.48 L54.87,64.39 L56.19,62.68 L56.85,60.81 L56.88,58.83 L56.28,56.94 L55.12,55.34 L54.83,55.09 L54.49,54.55 L54.49,54.16 L55.02,53.64 L55.51,53.08 L56.27,52.62 L56.87,53.08 L58.59,55.38 L59.52,58.10 L59.57,60.97 L58.74,63.72 L57.09,66.07 Z" fill="#0077d2" stroke="#1e1e1e" stroke-width="1" stroke-linejoin="round"/></svg>