<svg xmlns="http://www.w3.org/2000/svg" viewBox="-1.97 -2.00 100.00 99.92"><path d="M55.38,51.75 L52.18,54.84 L49.55,58.44 L47.58,62.42 L46.31,66.69 L45.78,71.11 L45.78,71.15 L42.44,71.18 L34.05,70.98 L26.21,70.42 L19.11,69.53 L12.89,68.34 L7.72,66.91 L5.59,66.11 L3.77,65.26 L2.30,64.37 L1.19,63.44 L0.47,62.48 L0.15,61.48 L0.15,61.36 L0.15,61.23 L0.71,59.59 L1.92,58.37 L4.37,56.89 L7.76,55.53 L11.98,54.32 L16.96,53.28 L22.59,52.43 L28.78,51.80 L35.43,51.40 L42.47,51.27 L49.07,51.39 L55.38,51.75 Z" fill="#83b9f9" stroke="#1e1e1e" stroke-width="1" stroke-linejoin="round"/><path d="M0.03,35.64 L0.25,36.66 L0.89,37.65 L1.93,38.60 L3.35,39.51 L5.13,40.38 L7.25,41.20 L12.42,42.68 L18.68,43.89 L25.86,44.81 L33.80,45.39 L42.33,45.59 L50.85,45.39 L58.79,44.81 L65.98,43.89 L72.24,42.68 L77.40,41.20 L79.52,40.38 L81.30,39.51 L82.72,38.60 L83.77,37.65 L84.41,36.66 L84.63,35.64 L84.41,34.62 L83.77,33.64 L82.72,32.68 L81.30,31.77 L79.52,30.90 L77.40,30.08 L72.24,28.60 L65.98,27.39 L58.79,26.47 L50.85,25.89 L42.33,25.69 L33.80,25.89 L25.86,26.47 L18.68,27.39 L12.42,28.60 L7.25,30.08 L5.13,30.90 L3.35,31.77 L1.93,32.68 L0.89,33.63 L0.25,34.62 L0.03,35.64 Z" fill="#83b9f9" stroke="#1e1e1e" stroke-width="1" stroke-linejoin="round"/><path d="M0.03,9.95 L0.25,10.97 L0.89,11.96 L1.93,12.91 L3.35,13.83 L5.13,14.70 L7.25,15.52 L12.42,16.99 L18.68,18.20 L25.86,19.12 L33.80,19.70 L42.33,19.90 L50.85,19.70 L58.79,19.12 L65.98,18.20 L72.24,16.99 L77.40,15.52 L79.52,14.70 L81.30,13.83 L82.72,12.91 L83.77,11.96 L84.41,10.97 L84.63,9.95 L84.41,8.94 L83.77,7.95 L82.72,7.00 L81.30,6.08 L79.52,5.21 L77.40,4.39 L72.24,2.92 L65.98,1.70 L58.79,0.78 L50.85,0.20 L42.33,0.00 L33.80,0.20 L25.86,0.78 L18.68,1.70 L12.42,2.91 L7.25,4.39 L5.13,5.21 L3.35,6.08 L1.93,6.99 L0.89,7.95 L0.25,8.94 L0.03,9.95 L0.03,9.95 Z" fill="#83b9f9" stroke="#1e1e1e" stroke-width="1" stroke-linejoin="round"/><path d="M51.96,88.94 L52.25,89.80 L51.89,90.64 L51.05,91.01 L51.03,91.01 L47.70,91.13 L42.45,91.20 L33.93,91.01 L25.99,90.43 L18.80,89.52 L12.55,88.30 L7.38,86.82 L5.26,86.00 L3.48,85.13 L2.06,84.21 L1.02,83.25 L0.38,82.26 L0.16,81.24 L0.16,61.20 L0.17,61.45 L0.21,61.69 L0.21,61.69 L0.61,62.65 L1.38,63.57 L2.51,64.46 L3.97,65.32 L7.84,66.90 L12.83,68.28 L18.81,69.43 L25.62,70.31 L33.13,70.89 L41.17,71.12 L42.45,71.12 L43.77,71.12 L45.78,71.10 L45.78,71.13 L45.78,72.02 L46.18,76.59 L47.36,81.03 L49.31,85.18 L51.96,88.94 L51.96,88.94 Z" fill="#0078d4" stroke="#1e1e1e" stroke-width="1" stroke-linejoin="round"/><path d="M84.62,35.52 L84.62,35.52 L84.36,36.53 L83.68,37.51 L82.61,38.45 L81.16,39.35 L79.37,40.21 L77.24,41.02 L72.07,42.48 L65.83,43.67 L58.69,44.58 L50.80,45.15 L42.33,45.35 L33.87,45.15 L26.00,44.59 L18.88,43.70 L12.66,42.51 L7.50,41.07 L5.38,40.27 L3.58,39.42 L2.13,38.52 L1.05,37.58 L0.36,36.60 L0.07,35.60 L0.07,55.48 L0.65,57.15 L1.91,58.38 L1.91,58.38 L4.38,59.86 L7.78,61.20 L12.00,62.40 L16.97,63.43 L22.58,64.27 L28.74,64.90 L35.37,65.29 L42.36,65.43 L46.63,65.37 L47.99,61.49 L49.93,57.87 L52.41,54.59 L55.38,51.75 L55.38,51.75 L58.79,49.37 L62.54,47.56 L66.53,46.36 L70.65,45.82 L74.81,45.93 L78.90,46.70 L82.81,48.11 L83.64,48.21 L84.35,47.76 L84.62,46.97 L84.62,35.52 Z" fill="#0078d4" stroke="#1e1e1e" stroke-width="1" stroke-linejoin="round"/><path d="M42.33,19.68 L33.89,19.48 L26.03,18.92 L18.90,18.02 L12.68,16.83 L7.52,15.39 L5.39,14.59 L3.59,13.73 L2.14,12.83 L1.05,11.89 L0.36,10.92 L0.07,9.91 L0.07,9.91 L0.07,29.78 L0.29,30.80 L0.93,31.79 L1.97,32.74 L3.39,33.65 L5.17,34.53 L7.29,35.35 L12.46,36.82 L18.72,38.03 L25.90,38.95 L33.84,39.53 L42.37,39.73 L50.72,39.54 L58.51,38.98 L65.59,38.10 L71.78,36.93 L76.95,35.51 L79.09,34.72 L80.91,33.88 L82.40,33.00 L83.53,32.08 L84.28,31.12 L84.63,30.13 L84.63,30.13 L84.63,29.34 L84.63,29.34 L84.63,9.73 L84.41,10.74 L83.76,11.73 L82.72,12.69 L81.30,13.60 L79.51,14.47 L77.40,15.29 L72.23,16.77 L65.97,17.98 L58.79,18.90 L50.85,19.48 L42.33,19.68 Z" fill="#0078d4" stroke="#1e1e1e" stroke-width="1" stroke-linejoin="round"/><path d="M96.03,72.02 L95.62,76.43 L94.41,80.69 L92.43,84.66 L89.76,88.19 L86.49,91.18 L82.72,93.51 L78.59,95.11 L74.24,95.92 L69.80,95.92 L65.45,95.11 L61.32,93.51 L57.55,91.18 L54.28,88.19 L51.61,84.66 L49.63,80.69 L48.42,76.43 L48.01,72.02 L48.01,71.08 L48.01,71.06 L48.30,68.15 L48.95,65.29 L50.50,61.29 L52.74,57.63 L55.60,54.43 L58.98,51.78 L62.78,49.78 L66.87,48.49 L71.13,47.95 L75.42,48.18 L79.59,49.16 L83.53,50.87 L87.10,53.26 L90.18,56.24 L92.69,59.73 L94.53,63.60 L95.66,67.74 L96.03,72.02 L96.03,72.02 Z" fill="#8e5ae8" stroke="#1e1e1e" stroke-width="1" stroke-linejoin="round"/><path d="M77.26,77.47 L77.57,78.78 L78.42,81.99 L78.81,82.73 L79.53,83.16 L80.26,83.12 L80.89,82.76 L82.02,81.78 L82.96,80.63 L83.49,79.73 L83.00,79.50 L82.72,79.95 L82.41,80.37 L81.85,80.93 L81.24,81.44 L80.82,81.55 L80.50,81.24 L80.33,80.88 L80.21,80.49 L78.92,75.11 L78.64,73.96 L78.29,72.69 L77.76,71.19 L76.86,69.86 L76.68,69.75 L76.47,69.74 L73.23,70.32 L72.87,70.45 L72.88,70.88 L73.12,70.88 L73.60,70.87 L74.08,70.88 L75.00,71.15 L75.72,71.79 L76.07,72.68 L76.96,76.07 L77.26,77.47 Z" fill="#e6e6e6" stroke="#e6e6e6" stroke-width="1" stroke-linejoin="round"/><path d="M77.32,77.47 L75.47,80.37 L74.65,81.40 L73.76,82.39 L73.08,82.91 L72.26,83.18 L71.27,83.03 L70.61,82.27 L70.60,81.63 L70.95,81.09 L71.56,80.82 L72.20,80.97 L72.86,81.44 L73.24,81.62 L73.60,81.44 L74.18,80.85 L74.69,80.19 L76.94,76.60 L78.68,73.93 L79.04,73.40 L79.85,72.17 L80.80,71.05 L81.66,70.29 L82.67,69.76 L83.51,69.68 L84.27,70.05 L84.59,70.65 L84.51,71.32 L84.16,71.75 L83.61,71.90 L83.15,71.88 L82.71,71.76 L81.62,71.64 L80.74,72.29 L78.97,74.78 L77.32,77.47 Z" fill="#ffffff" stroke="#ffffff" stroke-width="1" stroke-linejoin="round"/><path d="M76.62,59.62 L76.50,60.24 L76.14,60.75 L75.60,61.09 L74.97,61.20 L74.05,61.10 L73.15,60.91 L72.74,60.84 L72.33,60.80 L71.86,60.98 L71.39,61.53 L70.77,62.77 L70.39,64.11 L69.94,65.98 L73.32,65.98 L73.13,66.81 L72.93,67.71 L72.80,68.25 L69.35,68.25 L67.50,75.89 L66.83,78.06 L65.76,80.07 L64.33,81.84 L62.89,82.95 L61.22,83.66 L59.42,83.92 L58.59,83.83 L57.82,83.47 L57.31,82.90 L57.13,82.16 L57.26,81.51 L57.66,80.99 L58.25,80.68 L58.90,80.59 L59.78,80.66 L60.58,80.74 L61.38,80.77 L62.09,80.71 L62.72,80.39 L63.35,79.15 L63.69,77.80 L66.07,68.25 L63.02,68.25 L63.23,67.41 L63.46,66.50 L63.60,65.96 L66.64,65.96 L67.31,63.69 L68.31,61.55 L69.53,60.04 L71.07,58.88 L72.64,58.17 L74.35,57.89 L75.18,57.98 L75.95,58.34 L76.44,58.90 L76.62,59.62 Z" fill="#ffffff" stroke="#ffffff" stroke-width="1" stroke-linejoin="round"/><path d="M58.21,82.91 L58.50,83.07 L58.81,83.16 L58.50,83.07 L58.22,82.91 L58.05,82.75 L57.91,82.56 L58.05,82.75 L58.22,82.91 L58.21,82.91 Z" fill="#8e5ae8" stroke="#8e5ae8" stroke-width="1" stroke-linejoin="round"/></svg>