<svg xmlns="http://www.w3.org/2000/svg" viewBox="4.74 -2.00 86.53 100.00"><path d="M86.50,35.14 L60.23,35.14 L59.25,35.55 L58.85,36.52 L58.85,52.42 L58.44,53.40 L57.47,53.80 L34.17,53.80 L33.20,54.20 L32.79,55.17 L32.79,71.40 L32.39,72.38 L31.41,72.78 L8.11,72.78 L7.14,73.19 L6.74,74.15 L6.74,93.25 L7.11,94.63 L8.11,95.63 L9.48,96.00 L61.83,96.00 L61.98,95.99 L62.12,95.97 L86.50,95.97 L87.88,95.60 L88.89,94.59 L89.26,93.21 L89.26,37.90 L88.89,36.52 L87.88,35.51 L86.50,35.14 L86.50,35.14 Z" fill="#cccccc" stroke="#1e1e1e" stroke-width="1" stroke-linejoin="round"/><rect x="63.21" y="77.31" width="21.70" height="14.46" fill="#005ba1" stroke="#1e1e1e" stroke-width="1"/><rect x="63.21" y="58.33" width="21.70" height="14.46" fill="#5ea0ef" stroke="#1e1e1e" stroke-width="1"/><rect x="63.21" y="39.34" width="21.70" height="14.46" fill="#ffffff" stroke="#1e1e1e" stroke-width="1"/><rect x="37.15" y="77.33" width="21.70" height="14.46" fill="#005ba1" stroke="#1e1e1e" stroke-width="1"/><rect x="37.15" y="58.36" width="21.70" height="14.46" fill="#ffffff" stroke="#1e1e1e" stroke-width="1"/><rect x="11.10" y="77.33" width="21.70" height="14.46" fill="#005ba1" stroke="#1e1e1e" stroke-width="1"/><rect x="32.52" y="18.11" width="25.78" height="17.18" fill="#5ea0ef" stroke="#1e1e1e" stroke-width="1"/><rect x="6.74" y="36.05" width="25.78" height="17.18" fill="#0078d4" stroke="#1e1e1e" stroke-width="1"/><rect x="6.74" y="0.00" width="25.78" height="17.18" fill="#83b9f9" stroke="#1e1e1e" stroke-width="1"/></svg>