<svg xmlns="http://www.w3.org/2000/svg" viewBox="-2.00 -2.00 100.00 100.00"><path d="M0.00,17.14 L0.00,78.86 L0.08,80.56 L0.33,82.22 L0.74,83.85 L1.31,85.42 L2.02,86.93 L2.88,88.37 L3.88,89.73 L5.02,90.98 L6.28,92.12 L7.63,93.12 L9.07,93.98 L10.58,94.70 L12.15,95.26 L13.78,95.67 L15.44,95.92 L17.14,96.00 L78.86,96.00 L80.56,95.92 L82.22,95.67 L83.85,95.26 L85.42,94.70 L86.93,93.98 L88.37,93.12 L89.72,92.12 L90.98,90.98 L92.12,89.72 L93.12,88.37 L93.98,86.93 L94.70,85.42 L95.26,83.85 L95.67,82.22 L95.92,80.56 L96.00,78.86 L96.00,17.14 L95.92,15.44 L95.67,13.78 L95.26,12.15 L94.69,10.58 L93.98,9.07 L93.12,7.63 L92.12,6.28 L90.98,5.02 L89.72,3.88 L88.37,2.88 L86.93,2.02 L85.42,1.31 L83.85,0.74 L82.22,0.33 L80.56,0.08 L78.86,0.00 L17.14,0.00 L15.44,0.08 L13.78,0.33 L12.15,0.74 L10.58,1.31 L9.07,2.02 L7.63,2.88 L6.28,3.88 L5.02,5.02 L3.88,6.28 L2.88,7.63 L2.02,9.07 L1.30,10.58 L0.74,12.15 L0.33,13.78 L0.08,15.44 L0.00,17.14 L0.00,17.14 Z" fill="#1072dd" stroke="#1e1e1e" stroke-width="1" stroke-linejoin="round"/><path d="M6.14,78.86 L6.14,17.14 L6.36,14.98 L6.98,12.93 L7.99,11.04 L9.37,9.37 L11.04,7.99 L12.93,6.98 L14.98,6.36 L17.14,6.14 L78.86,6.14 L81.02,6.36 L83.07,6.98 L84.96,7.99 L86.63,9.37 L88.01,11.04 L89.02,12.93 L89.64,14.98 L89.86,17.14 L89.86,78.86 L89.64,81.02 L89.02,83.07 L88.01,84.96 L86.63,86.64 L84.96,88.01 L83.07,89.02 L81.02,89.65 L78.86,89.86 L17.14,89.86 L14.98,89.65 L12.93,89.02 L11.04,88.01 L9.37,86.64 L7.99,84.96 L6.98,83.07 L6.36,81.02 L6.14,78.86 L6.14,78.86 Z" fill="#d0f1fd" stroke="#1e1e1e" stroke-width="1" stroke-linejoin="round"/><rect x="19.57" y="27.32" width="56.86" height="41.35" fill="#1072dd" stroke="#1e1e1e" stroke-width="1"/><path d="M14.40,67.13 L14.53,65.88 L14.89,64.71 L15.46,63.66 L16.22,62.74 L17.14,61.98 L18.19,61.41 L19.35,61.05 L20.60,60.92 L75.40,60.92 L76.65,61.05 L77.81,61.41 L78.86,61.98 L79.78,62.74 L80.54,63.66 L81.11,64.71 L81.47,65.88 L81.60,67.13 L81.60,75.40 L81.47,76.65 L81.11,77.81 L80.54,78.86 L79.78,79.78 L78.86,80.54 L77.81,81.11 L76.65,81.47 L75.40,81.60 L20.60,81.60 L19.35,81.47 L18.19,81.11 L17.14,80.54 L16.22,79.78 L15.46,78.86 L14.89,77.81 L14.53,76.65 L14.40,75.40 L14.40,67.13 Z" fill="#0094f0" stroke="#1e1e1e" stroke-width="1" stroke-linejoin="round"/><path d="M14.40,43.87 L14.53,42.62 L14.89,41.45 L15.46,40.40 L16.22,39.48 L17.14,38.72 L18.19,38.15 L19.35,37.79 L20.60,37.66 L75.40,37.66 L76.65,37.79 L77.81,38.15 L78.86,38.72 L79.78,39.48 L80.54,40.40 L81.11,41.45 L81.47,42.62 L81.60,43.87 L81.60,52.14 L81.47,53.39 L81.11,54.55 L80.54,55.61 L79.78,56.52 L78.86,57.28 L77.81,57.85 L76.65,58.22 L75.40,58.34 L20.60,58.34 L19.35,58.22 L18.19,57.85 L17.14,57.28 L16.22,56.52 L15.46,55.61 L14.89,54.55 L14.53,53.39 L14.40,52.14 L14.40,43.87 Z" fill="#0094f0" stroke="#1e1e1e" stroke-width="1" stroke-linejoin="round"/><path d="M14.40,20.60 L14.53,19.35 L14.89,18.19 L15.46,17.14 L16.22,16.22 L17.14,15.46 L18.19,14.89 L19.35,14.53 L20.60,14.40 L75.40,14.40 L76.65,14.53 L77.81,14.89 L78.86,15.46 L79.78,16.22 L80.54,17.14 L81.11,18.19 L81.47,19.35 L81.60,20.60 L81.60,28.87 L81.47,30.12 L81.11,31.29 L80.54,32.34 L79.78,33.26 L78.86,34.02 L77.81,34.59 L76.65,34.95 L75.40,35.08 L20.60,35.08 L19.35,34.95 L18.19,34.59 L17.14,34.02 L16.22,33.26 L15.46,32.34 L14.89,31.29 L14.53,30.12 L14.40,28.87 L14.40,20.60 L14.40,20.60 Z" fill="#0094f0" stroke="#1e1e1e" stroke-width="1" stroke-linejoin="round"/><path d="M38.95,70.61 L38.70,71.87 L38.01,72.90 L36.98,73.59 L35.72,73.85 L34.46,73.59 L33.44,72.90 L32.74,71.87 L32.49,70.61 L32.74,69.35 L33.44,68.33 L34.46,67.64 L35.72,67.38 L36.98,67.64 L38.01,68.33 L38.70,69.35 L38.95,70.61 Z" fill="#91d6fa" stroke="#91d6fa" stroke-width="1" stroke-linejoin="round"/><path d="M46.71,67.39 L45.45,67.64 L44.42,68.33 L43.73,69.36 L43.48,70.62 L43.73,71.88 L44.42,72.90 L45.45,73.60 L46.71,73.85 L69.97,73.85 L71.23,73.60 L72.26,72.90 L72.95,71.88 L73.21,70.62 L72.95,69.36 L72.26,68.33 L71.23,67.64 L69.97,67.39 L46.71,67.39 Z" fill="#91d6fa" stroke="#91d6fa" stroke-width="1" stroke-linejoin="round"/><path d="M28.61,48.65 L28.36,49.90 L27.67,50.93 L26.64,51.62 L25.38,51.88 L24.12,51.62 L23.10,50.93 L22.40,49.90 L22.15,48.65 L22.40,47.39 L23.10,46.36 L24.12,45.67 L25.38,45.41 L26.64,45.67 L27.67,46.36 L28.36,47.39 L28.61,48.65 Z" fill="#91d6fa" stroke="#91d6fa" stroke-width="1" stroke-linejoin="round"/><path d="M46.71,45.41 L45.45,45.67 L44.42,46.36 L43.73,47.39 L43.48,48.65 L43.73,49.90 L44.42,50.93 L45.45,51.62 L46.71,51.88 L69.97,51.88 L71.23,51.62 L72.26,50.93 L72.95,49.90 L73.21,48.65 L72.95,47.39 L72.26,46.36 L71.23,45.67 L69.97,45.41 L46.71,45.41 Z" fill="#91d6fa" stroke="#91d6fa" stroke-width="1" stroke-linejoin="round"/><path d="M38.95,25.39 L38.70,26.65 L38.01,27.67 L36.98,28.36 L35.72,28.62 L34.46,28.36 L33.44,27.67 L32.74,26.65 L32.49,25.39 L32.74,24.13 L33.44,23.10 L34.46,22.41 L35.72,22.15 L36.98,22.41 L38.01,23.10 L38.70,24.13 L38.95,25.39 Z" fill="#91d6fa" stroke="#91d6fa" stroke-width="1" stroke-linejoin="round"/><path d="M46.71,22.15 L45.45,22.41 L44.42,23.10 L43.73,24.13 L43.48,25.39 L43.73,26.65 L44.42,27.67 L45.45,28.36 L46.71,28.62 L69.97,28.62 L71.23,28.36 L72.26,27.67 L72.95,26.65 L73.21,25.39 L72.95,24.13 L72.26,23.10 L71.23,22.41 L69.97,22.15 L46.71,22.15 Z" fill="#91d6fa" stroke="#91d6fa" stroke-width="1" stroke-linejoin="round"/><path d="M28.61,70.61 L28.36,71.87 L27.67,72.90 L26.64,73.59 L25.38,73.85 L24.12,73.59 L23.10,72.90 L22.40,71.87 L22.15,70.61 L22.40,69.35 L23.10,68.33 L24.12,67.64 L25.38,67.38 L26.64,67.64 L27.67,68.33 L28.36,69.35 L28.61,70.61 Z" fill="#98f0b0" stroke="#98f0b0" stroke-width="1" stroke-linejoin="round"/><path d="M38.95,48.65 L38.70,49.90 L38.01,50.93 L36.98,51.62 L35.72,51.88 L34.46,51.62 L33.44,50.93 L32.74,49.90 L32.49,48.65 L32.74,47.39 L33.44,46.36 L34.46,45.67 L35.72,45.41 L36.98,45.67 L38.01,46.36 L38.70,47.39 L38.95,48.65 Z" fill="#98f0b0" stroke="#98f0b0" stroke-width="1" stroke-linejoin="round"/><path d="M28.61,25.39 L28.36,26.65 L27.67,27.67 L26.64,28.36 L25.38,28.62 L24.12,28.36 L23.10,27.67 L22.40,26.65 L22.15,25.39 L22.40,24.13 L23.10,23.10 L24.12,22.41 L25.38,22.15 L26.64,22.41 L27.67,23.10 L28.36,24.13 L28.61,25.39 Z" fill="#98f0b0" stroke="#98f0b0" stroke-width="1" stroke-linejoin="round"/></svg>