<svg xmlns="http://www.w3.org/2000/svg" viewBox="-1.97 -2.00 99.97 99.90"><path d="M55.37,51.73 L52.17,54.83 L49.54,58.42 L47.56,62.41 L46.29,66.67 L45.77,71.09 L45.77,71.13 L42.43,71.16 L34.04,70.96 L26.21,70.40 L19.10,69.51 L12.89,68.33 L7.72,66.89 L5.58,66.09 L3.77,65.25 L2.30,64.36 L1.19,63.43 L0.47,62.46 L0.15,61.47 L0.15,61.34 L0.15,61.21 L0.71,59.58 L1.92,58.35 L4.37,56.87 L7.76,55.51 L11.98,54.30 L16.95,53.26 L22.58,52.42 L28.77,51.79 L35.42,51.39 L42.45,51.25 L49.06,51.38 L55.37,51.73 Z" fill="#83b9f9" stroke="#1e1e1e" stroke-width="1" stroke-linejoin="round"/><path d="M0.03,35.63 L0.24,36.65 L0.89,37.64 L1.93,38.59 L3.35,39.50 L5.13,40.37 L7.25,41.19 L12.41,42.67 L18.67,43.88 L25.85,44.80 L33.79,45.38 L42.31,45.58 L50.84,45.38 L58.77,44.80 L65.96,43.88 L72.22,42.67 L77.38,41.19 L79.50,40.37 L81.28,39.50 L82.70,38.59 L83.74,37.64 L84.38,36.65 L84.60,35.63 L84.38,34.61 L83.74,33.63 L82.70,32.67 L81.28,31.76 L79.50,30.89 L77.38,30.07 L72.22,28.60 L65.96,27.38 L58.77,26.46 L50.84,25.88 L42.31,25.68 L33.79,25.88 L25.85,26.46 L18.67,27.38 L12.41,28.59 L7.25,30.07 L5.13,30.89 L3.35,31.76 L1.93,32.67 L0.89,33.63 L0.24,34.61 L0.03,35.63 Z" fill="#83b9f9" stroke="#1e1e1e" stroke-width="1" stroke-linejoin="round"/><path d="M0.03,9.95 L0.24,10.97 L0.89,11.96 L1.93,12.91 L3.35,13.82 L5.13,14.69 L7.25,15.51 L12.41,16.99 L18.67,18.20 L25.85,19.12 L33.79,19.70 L42.31,19.90 L50.84,19.70 L58.77,19.12 L65.96,18.20 L72.22,16.99 L77.38,15.51 L79.50,14.69 L81.28,13.82 L82.70,12.91 L83.74,11.96 L84.38,10.97 L84.60,9.95 L84.38,8.93 L83.74,7.95 L82.70,6.99 L81.28,6.08 L79.50,5.21 L77.38,4.39 L72.22,2.92 L65.96,1.70 L58.77,0.78 L50.84,0.20 L42.31,0.00 L33.79,0.20 L25.85,0.78 L18.67,1.70 L12.41,2.91 L7.25,4.39 L5.13,5.21 L3.35,6.08 L1.93,6.99 L0.89,7.95 L0.24,8.93 L0.03,9.95 L0.03,9.95 Z" fill="#83b9f9" stroke="#1e1e1e" stroke-width="1" stroke-linejoin="round"/><path d="M51.94,88.91 L52.24,89.77 L51.87,90.61 L51.04,90.98 L51.01,90.98 L47.69,91.10 L42.44,91.18 L33.92,90.98 L25.98,90.41 L18.80,89.49 L12.54,88.27 L7.38,86.80 L5.26,85.98 L3.48,85.10 L2.06,84.19 L1.02,83.23 L0.38,82.24 L0.16,81.22 L0.16,61.18 L0.17,61.43 L0.21,61.67 L0.21,61.67 L0.61,62.63 L1.38,63.55 L2.51,64.44 L3.97,65.30 L7.84,66.88 L12.83,68.26 L18.80,69.41 L25.61,70.29 L33.12,70.87 L41.16,71.10 L42.44,71.10 L43.76,71.10 L45.77,71.08 L45.77,71.11 L45.77,72.00 L46.16,76.57 L47.35,81.00 L49.30,85.16 L51.94,88.91 L51.94,88.91 Z" fill="#0078d4" stroke="#1e1e1e" stroke-width="1" stroke-linejoin="round"/><path d="M84.60,35.51 L84.60,35.51 L84.33,36.52 L83.66,37.50 L82.59,38.44 L81.14,39.34 L79.35,40.20 L77.22,41.01 L72.05,42.47 L65.82,43.66 L58.67,44.56 L50.78,45.13 L42.32,45.33 L33.86,45.14 L25.99,44.58 L18.87,43.68 L12.65,42.50 L7.50,41.06 L5.38,40.26 L3.58,39.40 L2.13,38.51 L1.05,37.57 L0.36,36.59 L0.07,35.59 L0.07,55.47 L0.65,57.13 L1.91,58.37 L1.91,58.37 L4.38,59.84 L7.78,61.19 L12.00,62.39 L16.96,63.42 L22.57,64.25 L28.74,64.88 L35.36,65.27 L42.35,65.41 L46.62,65.35 L47.97,61.47 L49.92,57.85 L52.40,54.58 L55.37,51.73 L55.37,51.73 L58.78,49.35 L62.52,47.54 L66.51,46.35 L70.63,45.81 L74.79,45.92 L78.88,46.69 L82.79,48.10 L83.62,48.19 L84.32,47.75 L84.60,46.96 L84.60,35.51 Z" fill="#0078d4" stroke="#1e1e1e" stroke-width="1" stroke-linejoin="round"/><path d="M42.31,19.67 L33.88,19.48 L26.02,18.91 L18.90,18.02 L12.68,16.83 L7.52,15.39 L5.39,14.58 L3.59,13.73 L2.14,12.83 L1.05,11.89 L0.36,10.91 L0.07,9.91 L0.07,9.91 L0.07,29.77 L0.29,30.79 L0.93,31.78 L1.97,32.73 L3.39,33.65 L5.17,34.52 L7.29,35.34 L12.45,36.81 L18.71,38.02 L25.89,38.94 L33.83,39.52 L42.36,39.72 L50.71,39.53 L58.50,38.97 L65.57,38.09 L71.76,36.92 L76.92,35.50 L79.07,34.71 L80.89,33.87 L82.38,32.99 L83.50,32.07 L84.25,31.11 L84.60,30.12 L84.60,30.12 L84.60,29.33 L84.60,29.33 L84.60,9.72 L84.38,10.74 L83.74,11.73 L82.70,12.68 L81.27,13.60 L79.49,14.47 L77.37,15.29 L72.21,16.76 L65.95,17.98 L58.77,18.89 L50.84,19.47 L42.31,19.67 Z" fill="#0078d4" stroke="#1e1e1e" stroke-width="1" stroke-linejoin="round"/><path d="M96.00,72.00 L95.59,76.41 L94.38,80.67 L92.41,84.63 L89.74,88.17 L86.46,91.15 L82.70,93.48 L78.57,95.08 L74.21,95.90 L69.79,95.90 L65.43,95.08 L61.30,93.48 L57.54,91.15 L54.26,88.17 L51.59,84.63 L49.62,80.67 L48.41,76.41 L48.00,72.00 L48.00,71.06 L48.00,71.04 L48.29,68.13 L48.94,65.27 L50.49,61.27 L52.73,57.61 L55.59,54.41 L58.97,51.77 L62.76,49.77 L66.85,48.48 L71.11,47.94 L75.40,48.16 L79.57,49.15 L83.51,50.86 L87.07,53.24 L90.16,56.23 L92.66,59.71 L94.51,63.58 L95.63,67.73 L96.00,72.00 L96.00,72.00 Z" fill="#8e5ae8" stroke="#1e1e1e" stroke-width="1" stroke-linejoin="round"/><path d="M77.24,77.45 L77.55,78.76 L78.39,81.96 L78.78,82.71 L79.51,83.14 L80.23,83.09 L80.86,82.74 L81.99,81.76 L82.93,80.60 L83.47,79.71 L82.98,79.48 L82.70,79.93 L82.39,80.35 L81.83,80.91 L81.22,81.42 L80.80,81.53 L80.47,81.22 L80.31,80.85 L80.19,80.47 L78.90,75.09 L78.62,73.94 L78.27,72.67 L77.74,71.17 L76.84,69.85 L76.66,69.73 L76.45,69.72 L73.21,70.30 L72.85,70.43 L72.86,70.86 L73.10,70.86 L73.58,70.85 L74.06,70.86 L74.98,71.13 L75.69,71.77 L76.05,72.66 L76.94,76.05 L77.24,77.45 Z" fill="#e6e6e6" stroke="#e6e6e6" stroke-width="1" stroke-linejoin="round"/><path d="M77.30,77.45 L75.45,80.35 L74.63,81.38 L73.74,82.36 L73.06,82.88 L72.24,83.16 L71.25,83.01 L70.59,82.25 L70.58,81.61 L70.93,81.07 L71.54,80.79 L72.18,80.95 L72.84,81.41 L73.22,81.60 L73.58,81.41 L74.16,80.82 L74.67,80.17 L76.92,76.58 L78.66,73.91 L79.02,73.38 L79.83,72.15 L80.77,71.03 L81.63,70.27 L82.65,69.74 L83.49,69.66 L84.25,70.03 L84.57,70.63 L84.49,71.30 L84.13,71.73 L83.59,71.88 L83.13,71.86 L82.69,71.74 L81.60,71.62 L80.71,72.27 L78.95,74.76 L77.30,77.45 Z" fill="#ffffff" stroke="#ffffff" stroke-width="1" stroke-linejoin="round"/><path d="M76.60,59.61 L76.48,60.22 L76.12,60.74 L75.58,61.07 L74.95,61.18 L74.03,61.08 L73.13,60.90 L72.72,60.82 L72.31,60.78 L71.84,60.97 L71.37,61.51 L70.76,62.76 L70.37,64.09 L69.93,65.96 L73.30,65.96 L73.11,66.79 L72.91,67.70 L72.78,68.23 L69.33,68.23 L67.48,75.87 L66.81,78.04 L65.74,80.05 L64.31,81.81 L62.87,82.92 L61.20,83.64 L59.41,83.90 L58.57,83.80 L57.81,83.45 L57.30,82.88 L57.11,82.13 L57.24,81.49 L57.64,80.97 L58.23,80.66 L58.89,80.57 L59.76,80.64 L60.56,80.72 L61.36,80.75 L62.07,80.69 L62.70,80.37 L63.33,79.12 L63.67,77.78 L66.05,68.23 L63.00,68.23 L63.22,67.39 L63.45,66.48 L63.58,65.95 L66.62,65.95 L67.29,63.68 L68.29,61.53 L69.51,60.03 L71.05,58.86 L72.62,58.15 L74.33,57.88 L75.16,57.96 L75.93,58.33 L76.42,58.88 L76.60,59.61 Z" fill="#ffffff" stroke="#ffffff" stroke-width="1" stroke-linejoin="round"/><path d="M58.20,82.89 L58.48,83.05 L58.79,83.14 L58.49,83.05 L58.21,82.89 L58.03,82.73 L57.89,82.54 L58.03,82.73 L58.21,82.89 L58.20,82.89 Z" fill="#8e5ae8" stroke="#8e5ae8" stroke-width="1" stroke-linejoin="round"/></svg>