<svg xmlns="http://www.w3.org/2000/svg" viewBox="-1.95 -1.99 99.95 100.00"><path d="M63.17,68.22 L61.90,67.98 L60.62,67.92 L59.36,68.03 L58.12,68.30 L51.21,56.97 L50.76,56.63 L50.20,56.71 L47.34,58.36 L46.99,58.82 L47.07,59.40 L53.98,70.74 L52.80,72.18 L51.93,73.80 L51.39,75.55 L51.18,77.37 L51.33,79.21 L51.85,81.03 L52.75,82.75 L54.04,84.35 L55.07,85.24 L56.22,85.96 L58.48,86.81 L60.79,87.09 L62.63,86.91 L64.40,86.38 L66.07,85.50 L67.58,84.28 L68.50,83.24 L69.24,82.06 L69.76,80.88 L70.12,79.68 L70.38,77.26 L70.01,74.87 L69.04,72.62 L67.92,71.10 L66.54,69.83 L64.95,68.87 L63.16,68.22 L63.17,68.22 Z" fill="#26a4c8" stroke="#26a4c8" stroke-width="1" stroke-linejoin="round"/><path d="M65.43,78.70 L65.10,79.59 L64.62,80.39 L63.99,81.07 L63.22,81.63 L62.36,82.03 L61.45,82.25 L60.52,82.29 L59.58,82.15 L58.53,81.74 L57.61,81.11 L56.86,80.28 L56.31,79.26 L55.98,77.82 L56.11,76.37 L56.66,75.02 L57.62,73.89 L59.11,73.01 L60.77,72.71 L61.97,72.86 L62.86,73.19 L63.66,73.67 L64.35,74.30 L64.91,75.07 L64.91,75.07 L65.31,75.93 L65.53,76.83 L65.57,77.76 L65.43,78.70 L65.43,78.70 Z" fill="#ffffff" stroke="#ffffff" stroke-width="1" stroke-linejoin="round"/><path d="M84.39,28.34 L82.41,28.51 L80.54,28.99 L78.81,29.77 L77.24,30.81 L75.86,32.09 L74.70,33.57 L73.79,35.23 L73.16,37.03 L59.61,37.03 L59.08,37.25 L58.86,37.79 L58.86,42.09 L59.08,42.62 L59.61,42.84 L73.16,42.84 L73.79,44.65 L74.70,46.30 L75.86,47.79 L77.23,49.06 L78.80,50.10 L80.54,50.88 L82.41,51.37 L84.39,51.54 L86.73,51.30 L88.91,50.62 L90.88,49.55 L92.60,48.13 L94.02,46.42 L95.09,44.45 L95.76,42.27 L96.00,39.94 L95.76,37.60 L95.09,35.43 L94.01,33.46 L92.59,31.74 L90.88,30.32 L88.90,29.25 L86.73,28.57 L84.39,28.34 L84.39,28.34 Z" fill="#26a4c8" stroke="#26a4c8" stroke-width="1" stroke-linejoin="round"/><path d="M90.09,41.07 L89.51,42.69 L88.50,44.04 L87.14,45.05 L85.53,45.63 L84.03,45.72 L82.63,45.46 L81.37,44.88 L80.29,44.04 L79.44,42.96 L78.86,41.70 L78.60,40.30 L78.69,38.80 L79.27,37.19 L80.28,35.83 L81.63,34.82 L83.25,34.25 L84.75,34.15 L86.15,34.41 L87.41,34.99 L88.49,35.83 L89.34,36.91 L89.92,38.17 L90.19,39.58 L90.09,41.07 L90.09,41.07 Z" fill="#ffffff" stroke="#ffffff" stroke-width="1" stroke-linejoin="round"/><path d="M15.88,15.75 L17.83,15.99 L18.98,15.90 L20.09,15.65 L24.81,23.37 L25.26,23.71 L25.82,23.63 L27.98,22.38 L28.34,21.92 L28.25,21.34 L23.52,13.59 L24.37,12.58 L25.02,11.46 L25.49,10.25 L25.76,8.98 L25.81,7.69 L25.66,6.39 L25.28,5.11 L24.68,3.88 L23.74,2.62 L22.59,1.57 L21.25,0.77 L19.76,0.25 L17.97,0.01 L16.20,0.17 L14.50,0.73 L12.93,1.67 L11.93,2.58 L11.11,3.64 L10.49,4.81 L10.07,6.07 L9.85,7.37 L9.85,8.70 L10.08,10.02 L10.53,11.30 L11.47,12.86 L12.71,14.15 L14.20,15.12 L15.89,15.75 L15.88,15.75 Z" fill="#26a4c8" stroke="#26a4c8" stroke-width="1" stroke-linejoin="round"/><path d="M15.44,4.78 L16.58,4.20 L17.81,3.99 L18.79,4.12 L19.67,4.45 L20.44,4.97 L21.06,5.66 L21.53,6.50 L21.82,7.80 L21.66,9.10 L21.09,10.29 L20.15,11.24 L19.39,11.67 L18.57,11.92 L17.71,11.99 L16.85,11.87 L15.97,11.53 L15.21,11.02 L14.58,10.33 L14.11,9.49 L13.83,8.20 L13.97,6.91 L14.52,5.73 L15.44,4.78 L15.44,4.78 Z" fill="#ffffff" stroke="#ffffff" stroke-width="1" stroke-linejoin="round"/><path d="M29.93,58.61 L25.51,56.07 L24.94,55.99 L24.49,56.35 L16.63,70.09 L14.16,69.68 L11.68,69.74 L9.27,70.25 L7.00,71.20 L4.93,72.56 L3.12,74.33 L1.65,76.48 L0.59,78.99 L0.09,81.35 L0.05,83.77 L0.29,85.43 L0.72,87.02 L1.33,88.52 L2.10,89.92 L3.04,91.21 L4.13,92.38 L5.37,93.41 L6.74,94.29 L8.28,95.04 L9.89,95.57 L11.53,95.90 L13.21,96.01 L14.71,95.92 L16.20,95.66 L17.68,95.23 L19.13,94.62 L21.31,93.28 L23.17,91.51 L24.19,90.16 L25.03,88.73 L25.67,87.24 L26.12,85.69 L26.38,84.10 L26.43,82.50 L26.29,80.89 L25.95,79.29 L25.36,77.61 L24.56,76.05 L23.57,74.62 L22.39,73.33 L30.22,59.64 L30.29,59.07 L29.94,58.62 L29.93,58.61 Z" fill="#26a4c8" stroke="#26a4c8" stroke-width="1" stroke-linejoin="round"/><path d="M18.97,86.05 L17.83,87.30 L16.38,88.53 L15.54,88.97 L14.63,89.25 L13.43,89.40 L12.24,89.34 L11.08,89.05 L9.97,88.55 L8.91,87.81 L8.02,86.88 L7.33,85.80 L6.86,84.58 L6.63,83.30 L6.66,82.02 L6.94,80.76 L7.47,79.57 L8.56,78.15 L9.94,77.09 L11.53,76.45 L13.23,76.22 L14.88,76.43 L16.46,77.08 L17.53,77.82 L18.42,78.75 L19.11,79.84 L19.58,81.05 L19.81,82.33 L19.78,83.62 L19.49,84.87 L18.97,86.06 L18.97,86.05 Z" fill="#ffffff" stroke="#ffffff" stroke-width="1" stroke-linejoin="round"/><path d="M52.91,28.20 L41.33,21.51 L39.91,20.93 L38.41,20.73 L36.90,20.93 L35.48,21.51 L23.90,28.20 L22.68,29.14 L21.76,30.34 L21.18,31.73 L20.98,33.25 L20.98,46.61 L21.18,48.14 L21.76,49.53 L22.68,50.74 L23.90,51.67 L35.49,58.36 L36.92,58.94 L38.42,59.14 L39.92,58.94 L41.34,58.36 L52.93,51.67 L54.15,50.74 L55.07,49.54 L55.65,48.14 L55.86,46.61 L55.86,33.25 L55.65,31.73 L55.06,30.33 L54.14,29.13 L52.91,28.20 L52.91,28.20 Z" fill="#9a72ce" stroke="#1e1e1e" stroke-width="1" stroke-linejoin="round"/></svg>