<svg xmlns="http://www.w3.org/2000/svg" viewBox="-2.00 14.00 100.00 68.00"><path d="M75.63,34.61 L51.47,34.61 L47.27,35.27 L43.30,36.74 L39.69,38.97 L36.59,41.87 L34.13,45.32 L32.40,49.19 L31.47,53.33 L39.04,53.33 L39.93,50.54 L41.41,48.00 L43.41,45.86 L45.84,44.20 L48.57,43.12 L51.47,42.67 L75.63,42.67 L78.66,43.18 L81.50,44.36 L84.02,46.13 L86.07,48.42 L87.57,51.10 L88.44,54.05 L88.64,57.12 L88.45,60.19 L87.58,63.15 L86.08,65.84 L84.02,68.13 L81.51,69.92 L78.66,71.10 L75.63,71.63 L51.47,71.63 L48.57,71.17 L45.84,70.09 L43.41,68.44 L41.41,66.29 L39.93,63.76 L39.04,60.96 L31.47,60.96 L32.19,64.64 L33.55,68.13 L35.49,71.34 L37.97,74.15 L40.90,76.49 L44.20,78.28 L47.76,79.46 L51.47,80.00 L75.63,80.00 L79.80,79.35 L83.77,77.89 L87.38,75.70 L90.50,72.84 L93.00,69.43 L94.79,65.60 L95.80,61.50 L96.00,57.28 L95.79,53.07 L94.77,48.97 L92.98,45.15 L90.48,41.76 L87.36,38.91 L83.76,36.72 L79.80,35.27 L75.63,34.61 L75.63,34.61 Z" fill="#6fb12a" stroke="#1e1e1e" stroke-width="1" stroke-linejoin="round"/><path d="M44.53,53.33 L20.37,53.33 L17.32,52.81 L14.45,51.62 L11.93,49.83 L9.87,47.51 L8.37,44.80 L7.52,41.82 L7.36,38.72 L7.55,35.65 L8.42,32.69 L9.92,30.00 L11.98,27.71 L14.49,25.92 L17.34,24.74 L20.37,24.21 L44.53,24.21 L47.43,24.67 L50.16,25.75 L52.59,27.40 L54.59,29.55 L56.07,32.08 L56.96,34.88 L64.53,34.88 L63.79,31.22 L62.42,27.75 L60.46,24.58 L57.98,21.79 L55.06,19.47 L51.77,17.70 L48.23,16.53 L44.53,16.00 L20.37,16.00 L16.20,16.65 L12.23,18.11 L8.62,20.30 L5.50,23.16 L3.00,26.57 L1.21,30.40 L0.20,34.50 L0.00,38.72 L0.21,42.93 L1.23,47.03 L3.02,50.85 L5.52,54.24 L8.64,57.09 L12.24,59.28 L16.20,60.73 L20.37,61.39 L44.53,61.39 L48.73,60.73 L52.70,59.26 L56.31,57.03 L59.41,54.13 L61.87,50.68 L63.60,46.81 L64.53,42.67 L56.96,42.67 L56.07,45.46 L54.59,48.00 L52.59,50.14 L50.16,51.80 L47.43,52.88 L44.53,53.33 L44.53,53.33 Z" fill="#3990e4" stroke="#1e1e1e" stroke-width="1" stroke-linejoin="round"/><path d="M44.53,53.33 L28.53,53.33 L28.53,61.55 L44.53,61.55 L48.23,61.01 L51.77,59.84 L55.06,58.07 L57.98,55.76 L60.46,52.97 L62.42,49.79 L63.79,46.32 L64.53,42.67 L56.96,42.67 L56.07,45.46 L54.59,48.00 L52.59,50.14 L50.16,51.80 L47.43,52.88 L44.53,53.33 L44.53,53.33 Z" fill="#1c70b9" stroke="#1e1e1e" stroke-width="1" stroke-linejoin="round" opacity="0.7"/></svg>