<svg xmlns="http://www.w3.org/2000/svg" viewBox="1.28 0.82 99.10 100.00"><path d="M59.63,95.60 L59.22,97.23 L58.04,98.41 L56.41,98.82 L6.44,98.82 L4.84,98.39 L3.68,97.21 L3.28,95.60 L3.28,6.04 L3.68,4.44 L4.84,3.26 L6.44,2.82 L56.47,2.82 L58.09,3.24 L59.28,4.42 L59.69,6.04 L59.63,95.60 Z" fill="#9d9d9d" stroke="#1e1e1e" stroke-width="1" stroke-linejoin="round"/><path d="M11.29,36.48 L11.61,34.54 L12.52,32.80 L13.94,31.44 L15.72,30.61 L17.68,30.38 L45.91,30.38 L47.75,30.72 L49.41,31.60 L50.72,32.95 L51.55,34.63 L51.84,36.48 L51.84,36.48 L51.56,38.38 L50.70,40.09 L49.34,41.46 L47.64,42.33 L45.74,42.64 L17.51,42.64 L15.59,42.35 L13.86,41.48 L12.48,40.12 L11.60,38.39 L11.29,36.48 Z" fill="#003067" stroke="#1e1e1e" stroke-width="1" stroke-linejoin="round"/><path d="M11.29,18.30 L11.61,16.35 L12.52,14.60 L13.94,13.24 L15.72,12.39 L17.68,12.14 L45.91,12.14 L47.77,12.48 L49.43,13.38 L50.74,14.74 L51.57,16.43 L51.84,18.30 L51.84,18.30 L51.54,20.18 L50.68,21.88 L49.33,23.23 L47.63,24.10 L45.74,24.40 L17.51,24.40 L15.59,24.13 L13.86,23.27 L12.49,21.92 L11.60,20.20 L11.29,18.30 Z" fill="#003067" stroke="#1e1e1e" stroke-width="1" stroke-linejoin="round"/><ellipse cx="17.90" cy="18.30" rx="4.12" ry="4.12" fill="#50e6ff" stroke="#50e6ff" stroke-width="1"/><ellipse cx="17.90" cy="36.48" rx="4.12" ry="4.12" fill="#50e6ff" stroke="#50e6ff" stroke-width="1"/><path d="M98.37,81.20 L97.92,77.72 L96.79,74.39 L95.02,71.36 L92.69,68.73 L89.88,66.62 L86.70,65.11 L83.29,64.26 L82.73,59.99 L81.36,55.90 L79.22,52.16 L76.40,48.90 L73.00,46.25 L69.15,44.31 L65.00,43.14 L60.71,42.80 L56.71,43.10 L52.82,44.10 L49.17,45.77 L45.88,48.05 L43.04,50.89 L40.75,54.18 L39.08,57.83 L34.96,58.80 L31.12,60.57 L27.72,63.09 L24.90,66.24 L22.76,69.89 L21.41,73.90 L20.89,78.10 L21.41,82.23 L22.72,86.19 L24.78,89.82 L27.51,92.97 L30.79,95.53 L34.52,97.40 L38.54,98.52 L42.69,98.82 L44.61,98.82 L79.96,98.82 L80.92,98.82 L84.80,98.32 L88.48,96.98 L91.77,94.87 L94.52,92.09 L96.60,88.78 L97.91,85.09 L98.37,81.20 Z" fill="#3990e4" stroke="#1e1e1e" stroke-width="1" stroke-linejoin="round"/></svg>