<svg xmlns="http://www.w3.org/2000/svg" viewBox="4.00 4.48 100.00 100.00"><path d="M51.42,52.14 L6.00,52.14 L6.00,13.08 L6.32,11.05 L7.25,9.22 L8.69,7.76 L10.51,6.82 L12.54,6.48 L51.42,6.48 L51.42,52.14 Z" fill="#949494" stroke="#1e1e1e" stroke-width="1" stroke-linejoin="round"/><path d="M11.64,46.50 L45.78,46.50 L45.78,12.00 L12.54,12.00 L11.90,12.26 L11.64,12.90 L11.64,46.50 Z" fill="#ffffff" stroke="#1e1e1e" stroke-width="1" stroke-linejoin="round"/><path d="M102.00,52.14 L56.58,52.14 L56.58,6.48 L95.46,6.48 L97.49,6.82 L99.31,7.76 L100.75,9.22 L101.68,11.05 L102.00,13.08 L102.00,52.14 Z" fill="#949494" stroke="#1e1e1e" stroke-width="1" stroke-linejoin="round"/><path d="M62.22,46.50 L96.36,46.50 L96.36,13.08 L96.17,12.32 L95.46,12.00 L62.22,12.00 L62.22,46.50 Z" fill="#ffffff" stroke="#1e1e1e" stroke-width="1" stroke-linejoin="round"/><path d="M51.42,102.48 L12.54,102.48 L10.53,102.16 L8.72,101.25 L7.27,99.81 L6.33,98.01 L6.00,96.00 L6.00,56.88 L51.42,56.88 L51.42,102.48 Z" fill="#949494" stroke="#1e1e1e" stroke-width="1" stroke-linejoin="round"/><path d="M11.64,62.52 L11.64,96.00 L11.90,96.64 L12.54,96.90 L45.78,96.90 L45.78,62.52 L11.64,62.52 Z" fill="#ffffff" stroke="#1e1e1e" stroke-width="1" stroke-linejoin="round"/><path d="M95.46,102.48 L56.58,102.48 L56.58,56.88 L102.00,56.88 L102.00,96.00 L101.67,98.01 L100.73,99.81 L99.28,101.25 L97.47,102.16 L95.46,102.48 L95.46,102.48 Z" fill="#949494" stroke="#1e1e1e" stroke-width="1" stroke-linejoin="round"/><path d="M62.22,96.84 L95.46,96.84 L96.10,96.58 L96.36,95.94 L96.36,62.52 L62.22,62.52 L62.22,96.84 Z" fill="#ffffff" stroke="#1e1e1e" stroke-width="1" stroke-linejoin="round"/><path d="M88.02,63.72 L87.51,60.14 L86.19,56.77 L84.13,53.80 L81.43,51.39 L78.25,49.66 L74.76,48.72 L74.12,44.45 L72.56,40.43 L70.15,36.86 L67.02,33.90 L63.30,31.70 L59.20,30.38 L54.90,30.00 L50.85,30.37 L46.96,31.56 L43.39,33.51 L40.29,36.15 L37.79,39.37 L36.00,43.02 L32.37,43.90 L28.99,45.49 L26.00,47.73 L23.52,50.53 L21.66,53.76 L20.48,57.31 L20.04,61.02 L20.65,65.13 L22.15,69.01 L24.47,72.45 L27.50,75.30 L31.08,77.40 L35.04,78.67 L39.18,79.02 L72.00,79.02 L72.84,79.02 L76.20,78.55 L79.37,77.37 L82.22,75.53 L84.61,73.13 L86.42,70.27 L87.58,67.08 L88.02,63.72 L88.02,63.72 Z" fill="#3990e4" stroke="#1e1e1e" stroke-width="1" stroke-linejoin="round"/></svg>