<svg xmlns="http://www.w3.org/2000/svg" viewBox="0.82 10.25 100.00 81.20"><path d="M2.82,32.70 L98.82,32.70 L98.82,32.70 L98.82,86.23 L98.39,87.84 L97.21,89.02 L95.60,89.45 L6.04,89.45 L4.43,89.02 L3.25,87.84 L2.82,86.23 L2.82,32.70 L2.82,32.70 Z" fill="#32d2f3" stroke="#1e1e1e" stroke-width="1" stroke-linejoin="round"/><path d="M6.04,12.25 L95.60,12.25 L97.21,12.69 L98.39,13.86 L98.82,15.47 L98.82,32.70 L98.82,32.70 L2.82,32.70 L2.82,32.70 L2.82,15.42 L3.27,13.83 L4.45,12.68 L6.04,12.25 L6.04,12.25 Z" fill="#005ba1" stroke="#1e1e1e" stroke-width="1" stroke-linejoin="round"/><path d="M84.37,18.35 L84.78,18.41 L85.16,18.56 L85.49,18.82 L85.74,19.14 L85.89,19.52 L85.95,19.93 L85.95,25.02 L85.89,25.43 L85.74,25.81 L85.49,26.13 L85.16,26.39 L84.78,26.54 L84.37,26.60 L17.34,26.60 L16.93,26.54 L16.55,26.39 L16.22,26.13 L15.97,25.81 L15.81,25.43 L15.76,25.02 L15.76,19.93 L15.81,19.52 L15.97,19.14 L16.22,18.82 L16.55,18.56 L16.93,18.41 L17.34,18.35 L84.37,18.35 Z" fill="#f2f2f2" stroke="#1e1e1e" stroke-width="1" stroke-linejoin="round"/><path d="M37.72,50.82 L32.64,67.76 L28.57,67.76 L25.47,56.47 L25.42,55.71 L25.47,54.95 L25.47,54.95 L25.52,55.68 L25.47,56.41 L21.46,67.76 L17.45,67.76 L12.42,50.82 L16.43,50.82 L19.54,63.19 L19.57,63.92 L19.54,64.66 L19.54,64.66 L19.50,63.92 L19.54,63.19 L23.60,50.82 L27.28,50.82 L30.38,63.25 L30.41,63.98 L30.38,64.72 L30.38,64.72 L30.35,63.98 L30.38,63.25 L33.88,50.82 L37.72,50.82 Z" fill="#ffffff" stroke="#1e1e1e" stroke-width="1" stroke-linejoin="round"/><path d="M63.70,50.82 L58.62,67.76 L54.55,67.76 L51.44,56.47 L51.40,55.71 L51.44,54.95 L51.44,54.95 L51.16,55.72 L50.82,56.47 L47.44,67.76 L43.48,67.76 L38.40,50.82 L42.41,50.82 L45.57,63.19 L45.60,63.92 L45.57,64.66 L45.57,64.66 L45.61,63.95 L45.85,63.19 L49.64,50.82 L53.25,50.82 L56.36,63.25 L56.39,63.98 L56.36,64.72 L56.36,64.72 L56.33,63.98 L56.36,63.25 L60.03,50.82 L63.70,50.82 Z" fill="#ffffff" stroke="#1e1e1e" stroke-width="1" stroke-linejoin="round"/><path d="M89.73,50.82 L84.71,67.76 L80.64,67.76 L77.42,56.47 L77.39,55.71 L77.42,54.95 L77.42,54.95 L77.33,55.69 L77.14,56.41 L73.41,67.76 L69.46,67.76 L64.38,50.82 L68.44,50.82 L71.55,63.19 L71.58,63.92 L71.55,64.66 L71.55,64.66 L71.51,63.92 L71.55,63.19 L75.61,50.82 L79.06,50.82 L82.11,63.25 L82.14,63.98 L82.11,64.72 L82.11,64.72 L82.08,63.98 L82.11,63.25 L86.00,50.82 L89.73,50.82 Z" fill="#ffffff" stroke="#1e1e1e" stroke-width="1" stroke-linejoin="round"/></svg>