<svg xmlns="http://www.w3.org/2000/svg" viewBox="0.70 0.87 94.41 94.47"><path d="M75.79,83.84 L70.65,87.29 L65.09,90.01 L59.21,91.94 L53.12,93.06 L46.94,93.34 L40.77,92.77 L34.74,91.37 L28.96,89.16 L23.53,86.18 L18.56,82.50 L14.14,78.17 L10.35,73.28 L7.26,67.91 L4.92,62.18 L3.39,56.18 L2.70,50.03 L2.84,43.84 L3.83,37.73 L5.64,31.82 L8.24,26.20 L11.57,20.99 L15.59,16.28 L20.21,12.16 L20.69,11.84 L25.85,8.51 L31.41,5.90 L37.27,4.08 L43.33,3.06 L49.47,2.87 L55.57,3.50 L61.54,4.96 L67.25,7.22 L72.61,10.22 L77.51,13.92 L81.86,18.24 L85.60,23.12 L88.63,28.46 L90.92,34.16 L92.42,40.11 L93.10,46.21 L92.95,52.35 L91.97,58.41 L90.18,64.29 L87.61,69.87 L84.32,75.05 L80.35,79.73 L75.79,83.84 L75.79,83.84 Z" fill="#3990e4" stroke="#1e1e1e" stroke-width="1" stroke-linejoin="round"/><path d="M35.68,38.56 L41.38,33.70 L47.57,29.48 L54.18,25.96 L61.13,23.16 L68.34,21.14 L75.72,19.90 L83.20,19.47 L79.46,15.38 L75.25,11.79 L68.84,12.46 L62.50,13.66 L56.29,15.40 L50.24,17.65 L44.26,20.58 L38.61,24.09 L33.33,28.14 L28.48,32.69 L31.28,34.12 L33.72,36.10 L35.68,38.56 L35.68,38.56 Z" fill="#ffffff" stroke="#1e1e1e" stroke-width="1" stroke-linejoin="round" opacity="0.6"/><path d="M13.23,56.80 L10.74,63.70 L8.80,70.77 L10.37,73.29 L12.11,75.68 L15.04,79.15 L16.54,72.85 L18.46,66.67 L20.80,60.64 L18.04,59.86 L15.48,58.57 L13.23,56.80 L13.23,56.80 Z" fill="#ffffff" stroke="#ffffff" stroke-width="1" stroke-linejoin="round" opacity="0.6"/><path d="M18.45,32.59 L16.79,27.47 L15.56,22.23 L14.77,16.91 L11.62,20.61 L8.91,24.64 L10.12,31.06 L11.95,37.33 L13.80,35.35 L16.00,33.75 L18.45,32.59 L18.45,32.59 Z" fill="#f2f2f2" stroke="#f2f2f2" stroke-width="1" stroke-linejoin="round" opacity="0.55"/><ellipse cx="23.36" cy="46.29" rx="14.56" ry="14.56" fill="#e4e4e4" stroke="#1e1e1e" stroke-width="1"/><path d="M44.59,72.91 L44.93,70.42 L45.91,68.10 L47.47,66.13 L42.68,63.23 L38.17,59.91 L33.97,56.21 L31.66,58.24 L28.97,59.74 L26.03,60.64 L29.77,64.20 L33.76,67.47 L39.06,71.07 L44.69,74.13 L44.62,73.52 L44.59,72.91 Z" fill="#f2f2f2" stroke="#1e1e1e" stroke-width="1" stroke-linejoin="round" opacity="0.55"/><path d="M78.19,74.03 L73.24,73.84 L68.32,73.27 L63.47,72.32 L63.49,72.61 L63.47,72.91 L63.16,75.33 L62.23,77.58 L60.75,79.52 L66.78,80.46 L72.88,80.88 L78.99,80.80 L82.36,77.40 L85.33,73.65 L81.77,73.94 L78.19,74.03 Z" fill="#f2f2f2" stroke="#f2f2f2" stroke-width="1" stroke-linejoin="round" opacity="0.55"/><ellipse cx="54.03" cy="72.91" rx="9.49" ry="9.49" fill="#e4e4e4" stroke="#1e1e1e" stroke-width="1"/><path d="M65.71,47.63 L66.39,45.63 L67.50,43.82 L68.96,42.29 L62.53,37.32 L56.41,31.97 L50.61,26.26 L45.17,20.21 L41.26,15.28 L37.70,10.08 L34.51,4.64 L31.56,5.65 L28.69,6.88 L32.11,12.80 L35.94,18.46 L40.16,23.84 L45.98,30.37 L52.19,36.53 L58.78,42.29 L65.71,47.63 L65.71,47.63 Z" fill="#f2f2f2" stroke="#1e1e1e" stroke-width="1" stroke-linejoin="round" opacity="0.7"/><ellipse cx="75.63" cy="49.44" rx="10.08" ry="10.08" fill="#e4e4e4" stroke="#1e1e1e" stroke-width="1"/><path d="M92.53,56.21 L90.67,55.31 L90.67,55.31 L89.07,54.45 L88.75,54.45 L87.36,53.33 L86.99,53.33 L85.33,52.27 L84.56,54.14 L83.40,55.80 L81.92,57.17 L83.95,58.35 L84.37,58.61 L86.24,59.63 L86.24,59.63 L90.83,62.03 L90.83,62.03 L91.70,59.09 L92.37,56.11 L92.53,56.21 Z" fill="#f2f2f2" stroke="#f2f2f2" stroke-width="1" stroke-linejoin="round" opacity="0.55"/><ellipse cx="23.36" cy="46.29" rx="14.56" ry="14.56" fill="#e4e4e4" stroke="#1e1e1e" stroke-width="1"/><ellipse cx="54.03" cy="72.91" rx="9.49" ry="9.49" fill="#e4e4e4" stroke="#1e1e1e" stroke-width="1"/></svg>