<svg xmlns="http://www.w3.org/2000/svg" viewBox="-2.00 2.05 100.00 91.88"><path d="M92.80,4.05 L93.63,4.16 L94.40,4.48 L95.06,4.99 L95.57,5.65 L95.89,6.43 L96.00,7.25 L96.00,68.85 L95.89,69.68 L95.57,70.45 L95.06,71.12 L94.40,71.62 L93.63,71.94 L92.80,72.05 L3.20,72.05 L2.37,71.94 L1.60,71.62 L0.94,71.12 L0.43,70.45 L0.11,69.68 L0.00,68.85 L0.00,7.25 L0.11,6.43 L0.43,5.65 L0.94,4.99 L1.60,4.48 L2.37,4.16 L3.20,4.05 L92.80,4.05 Z" fill="#f8931e" stroke="#1e1e1e" stroke-width="1" stroke-linejoin="round"/><path d="M88.80,10.03 L89.21,10.08 L89.60,10.24 L89.93,10.50 L90.19,10.83 L90.35,11.21 L90.40,11.63 L90.40,64.43 L90.35,64.84 L90.19,65.23 L89.93,65.56 L89.60,65.81 L89.21,65.97 L88.80,66.03 L7.20,66.03 L6.79,65.97 L6.40,65.81 L6.07,65.56 L5.81,65.23 L5.65,64.84 L5.60,64.43 L5.60,11.63 L5.65,11.21 L5.81,10.83 L6.07,10.50 L6.40,10.24 L6.79,10.08 L7.20,10.03 L88.80,10.03 Z" fill="#ffffff" stroke="#1e1e1e" stroke-width="1" stroke-linejoin="round"/><path d="M79.68,49.81 L79.48,50.57 L78.94,51.14 L78.19,51.36 L43.52,51.36 L42.61,51.06 L42.05,50.29 L42.05,49.34 L42.61,48.56 L43.52,48.27 L78.19,48.27 L78.95,48.48 L79.50,49.04 L79.68,49.81 L79.68,49.81 Z" fill="#d15900" stroke="#d15900" stroke-width="1" stroke-linejoin="round"/><path d="M79.68,40.21 L79.48,40.97 L78.94,41.54 L78.19,41.76 L43.52,41.76 L42.61,41.46 L42.05,40.69 L42.05,39.74 L42.61,38.96 L43.52,38.67 L78.19,38.67 L78.95,38.88 L79.50,39.44 L79.68,40.21 L79.68,40.21 Z" fill="#d15900" stroke="#d15900" stroke-width="1" stroke-linejoin="round"/><path d="M79.68,26.29 L79.50,27.06 L78.95,27.63 L78.19,27.84 L20.11,27.84 L19.20,27.54 L18.64,26.77 L18.64,25.82 L19.20,25.04 L20.11,24.75 L78.19,24.75 L78.95,24.96 L79.50,25.52 L79.68,26.29 L79.68,26.29 Z" fill="#d15900" stroke="#d15900" stroke-width="1" stroke-linejoin="round"/><path d="M27.36,67.68 L24.68,69.56 L21.62,70.73 L18.37,71.13 L15.12,70.73 L12.07,69.56 L9.39,67.68 L8.27,90.03 L8.51,91.06 L9.31,91.77 L10.38,91.88 L11.31,91.36 L18.24,84.32 L25.23,91.41 L26.14,91.93 L27.19,91.83 L27.99,91.15 L28.27,90.13 L27.36,67.68 Z" fill="#b31b1b" stroke="#1e1e1e" stroke-width="1" stroke-linejoin="round"/><ellipse cx="18.56" cy="56.21" rx="16.05" ry="16.11" fill="#e62323" stroke="#1e1e1e" stroke-width="1"/><ellipse cx="18.56" cy="56.21" rx="12.21" ry="12.21" fill="#ffb34d" stroke="#1e1e1e" stroke-width="1"/></svg>