<svg xmlns="http://www.w3.org/2000/svg" viewBox="-1.99 -2.00 99.99 100.00"><path d="M16.36,43.48 L16.51,46.46 L16.96,49.35 L17.68,52.15 L18.66,54.83 L19.89,57.38 L21.35,59.78 L23.03,62.03 L26.99,65.99 L29.24,67.67 L31.65,69.13 L34.20,70.36 L36.88,71.35 L39.67,72.07 L42.57,72.51 L47.99,72.54 L50.37,72.17 L52.66,71.58 L54.86,70.78 L56.95,69.77 L58.93,68.57 L60.77,67.19 L64.02,63.94 L65.40,62.09 L66.60,60.12 L67.61,58.03 L68.42,55.83 L69.01,53.54 L69.37,51.16 L69.63,48.02 L69.99,47.43 L70.54,47.02 L71.22,46.82 L71.93,46.89 L72.54,47.20 L73.01,47.71 L73.54,50.42 L73.64,52.52 L73.48,55.56 L73.03,58.51 L72.30,61.35 L71.30,64.08 L70.04,66.68 L66.84,71.42 L64.92,73.53 L62.81,75.45 L60.52,77.17 L58.07,78.66 L55.47,79.91 L52.74,80.91 L46.94,82.10 L43.91,82.25 L41.96,82.20 L40.04,82.05 L38.14,81.81 L36.28,81.48 L34.45,81.05 L30.89,79.95 L29.17,79.27 L27.49,78.51 L25.86,77.67 L24.27,76.75 L22.73,75.77 L21.24,74.71 L19.81,73.58 L17.12,71.13 L15.86,69.82 L14.67,68.44 L13.54,67.01 L12.48,65.52 L11.50,63.98 L10.58,62.40 L8.98,59.08 L8.30,57.36 L7.71,55.60 L7.20,53.80 L6.77,51.97 L6.44,50.11 L6.20,48.21 L6.00,44.34 L5.94,43.74 L5.76,43.17 L5.49,42.66 L5.12,42.22 L4.68,41.86 L4.17,41.58 L3.00,41.34 L2.40,41.40 L1.84,41.58 L1.33,41.86 L0.88,42.22 L0.52,42.66 L0.24,43.17 L0.01,44.34 L0.06,46.60 L0.23,48.82 L0.51,51.02 L0.90,53.18 L1.39,55.30 L1.98,57.38 L3.46,61.41 L4.34,63.36 L5.31,65.25 L6.37,67.09 L7.51,68.87 L8.74,70.59 L10.04,72.25 L12.88,75.37 L14.40,76.83 L16.00,78.21 L17.66,79.51 L19.38,80.74 L21.16,81.88 L23.00,82.94 L26.84,84.79 L28.83,85.58 L30.87,86.27 L32.95,86.87 L35.07,87.36 L37.23,87.74 L39.43,88.02 L41.65,88.19 L45.75,88.20 L47.56,88.07 L49.34,87.84 L51.10,87.52 L52.83,87.12 L54.52,86.64 L56.18,86.08 L59.39,84.72 L60.93,83.93 L62.42,83.07 L63.87,82.14 L65.27,81.14 L66.62,80.08 L67.92,78.96 L70.35,76.53 L71.47,75.24 L72.53,73.89 L73.53,72.49 L74.46,71.04 L75.32,69.54 L76.11,68.00 L77.47,64.79 L78.03,63.14 L78.51,61.44 L78.91,59.71 L79.22,57.96 L79.45,56.17 L79.59,54.36 L79.49,49.54 L79.04,46.65 L78.32,43.85 L77.34,41.17 L76.11,38.62 L74.65,36.22 L72.97,33.97 L69.01,30.01 L66.76,28.33 L64.35,26.87 L61.80,25.64 L59.12,24.65 L56.33,23.93 L53.43,23.49 L48.01,23.46 L45.63,23.83 L43.34,24.42 L41.14,25.22 L39.05,26.23 L37.07,27.43 L35.23,28.81 L31.98,32.06 L30.60,33.91 L29.40,35.88 L28.39,37.97 L27.58,40.17 L26.99,42.47 L26.63,44.84 L26.37,47.98 L26.01,48.57 L25.46,48.98 L24.78,49.18 L24.07,49.11 L23.46,48.80 L22.99,48.29 L22.74,47.63 L22.36,43.48 L22.52,40.44 L22.97,37.49 L23.70,34.65 L24.70,31.92 L25.96,29.32 L27.45,26.87 L31.08,22.47 L33.19,20.55 L35.48,18.84 L37.93,17.35 L40.53,16.09 L43.26,15.09 L46.11,14.36 L52.09,13.75 L54.04,13.80 L55.96,13.95 L57.86,14.19 L59.72,14.53 L61.55,14.95 L63.35,15.46 L66.83,16.74 L68.51,17.50 L70.14,18.34 L71.73,19.25 L73.27,20.24 L74.76,21.29 L76.19,22.42 L78.88,24.87 L80.14,26.19 L81.33,27.56 L82.46,29.00 L83.52,30.48 L84.50,32.02 L85.42,33.61 L87.02,36.92 L87.70,38.64 L88.29,40.40 L88.80,42.20 L89.23,44.03 L89.56,45.90 L89.80,47.79 L90.00,51.66 L90.06,52.27 L90.24,52.83 L90.51,53.34 L90.88,53.78 L91.32,54.15 L91.83,54.43 L93.00,54.66 L93.60,54.60 L94.16,54.43 L94.67,54.15 L95.12,53.78 L95.48,53.34 L95.76,52.83 L95.93,52.27 L95.94,49.41 L95.77,47.18 L95.49,44.99 L95.10,42.83 L94.61,40.70 L94.02,38.62 L93.33,36.58 L91.66,32.65 L90.69,30.75 L89.63,28.91 L88.48,27.13 L87.26,25.41 L85.95,23.75 L84.57,22.16 L81.59,19.18 L80.00,17.80 L78.34,16.49 L76.62,15.26 L74.84,14.12 L73.00,13.06 L71.10,12.09 L67.17,10.42 L65.13,9.73 L63.04,9.14 L60.92,8.65 L58.76,8.26 L56.57,7.98 L54.34,7.81 L50.25,7.80 L48.44,7.94 L46.65,8.17 L44.89,8.48 L43.17,8.88 L41.47,9.36 L39.81,9.93 L36.61,11.28 L35.07,12.07 L33.57,12.93 L32.12,13.86 L30.72,14.86 L29.37,15.92 L28.07,17.05 L25.65,19.47 L24.53,20.77 L23.46,22.12 L22.47,23.52 L21.54,24.97 L20.68,26.46 L19.89,28.00 L18.53,31.21 L17.97,32.87 L17.48,34.56 L17.08,36.29 L16.77,38.04 L16.54,39.83 L16.40,41.64 L16.36,43.48 Z" fill="#2f8ce2" stroke="#1e1e1e" stroke-width="1" stroke-linejoin="round"/><path d="M80.00,84.00 L80.00,92.00 L80.08,92.81 L80.31,93.56 L80.68,94.24 L81.17,94.83 L81.76,95.32 L82.44,95.69 L83.19,95.92 L84.00,96.00 L92.00,96.00 L92.81,95.92 L93.56,95.69 L94.24,95.32 L94.83,94.83 L95.32,94.24 L95.69,93.56 L95.92,92.81 L96.00,92.00 L96.00,84.00 L95.92,83.19 L95.69,82.44 L95.32,81.76 L94.83,81.17 L94.24,80.68 L93.56,80.31 L92.81,80.08 L92.00,80.00 L84.00,80.00 L83.19,80.08 L82.44,80.31 L81.76,80.68 L81.17,81.17 L80.68,81.76 L80.31,82.44 L80.08,83.19 L80.00,84.00 Z" fill="#32bedd" stroke="#32bedd" stroke-width="1" stroke-linejoin="round"/><path d="M5.33,13.33 L5.33,18.67 L5.39,19.20 L5.54,19.70 L5.79,20.16 L6.11,20.55 L6.51,20.88 L6.96,21.12 L7.46,21.28 L8.00,21.33 L13.33,21.33 L13.87,21.28 L14.37,21.12 L14.82,20.88 L15.22,20.55 L15.54,20.16 L15.79,19.70 L15.95,19.20 L16.00,18.67 L16.00,13.33 L15.95,12.80 L15.79,12.30 L15.54,11.84 L15.22,11.45 L14.82,11.12 L14.37,10.88 L13.87,10.72 L13.33,10.67 L8.00,10.67 L7.46,10.72 L6.96,10.88 L6.51,11.12 L6.11,11.45 L5.79,11.84 L5.54,12.30 L5.39,12.80 L5.33,13.33 Z" fill="#32bedd" stroke="#32bedd" stroke-width="1" stroke-linejoin="round"/><path d="M85.33,2.67 L85.33,8.00 L85.39,8.54 L85.54,9.04 L85.79,9.49 L86.11,9.89 L86.51,10.21 L86.96,10.46 L87.46,10.61 L88.00,10.67 L93.33,10.67 L93.87,10.61 L94.37,10.46 L94.82,10.21 L95.22,9.89 L95.54,9.49 L95.79,9.04 L95.95,8.54 L96.00,8.00 L96.00,2.67 L95.95,2.13 L95.79,1.63 L95.54,1.18 L95.22,0.78 L94.82,0.46 L94.37,0.21 L93.87,0.05 L93.33,0.00 L88.00,0.00 L87.46,0.05 L86.96,0.21 L86.51,0.46 L86.11,0.78 L85.79,1.18 L85.54,1.63 L85.39,2.13 L85.33,2.67 Z" fill="#32bedd" stroke="#32bedd" stroke-width="1" stroke-linejoin="round"/><path d="M37.33,56.00 L37.33,61.33 L37.39,61.87 L37.54,62.37 L37.79,62.82 L38.11,63.22 L38.51,63.54 L38.96,63.79 L39.46,63.95 L40.00,64.00 L45.33,64.00 L45.87,63.95 L46.37,63.79 L46.82,63.54 L47.22,63.22 L47.54,62.82 L47.79,62.37 L47.95,61.87 L48.00,61.33 L48.00,56.00 L47.95,55.46 L47.79,54.96 L47.54,54.51 L47.22,54.11 L46.82,53.79 L46.37,53.54 L45.87,53.39 L45.33,53.33 L40.00,53.33 L39.46,53.39 L38.96,53.54 L38.51,53.79 L38.11,54.11 L37.79,54.51 L37.54,54.96 L37.39,55.46 L37.33,56.00 Z" fill="#50e6ff" stroke="#50e6ff" stroke-width="1" stroke-linejoin="round"/><path d="M48.00,34.67 L48.00,40.00 L48.05,40.54 L48.21,41.04 L48.46,41.49 L48.78,41.89 L49.18,42.21 L49.63,42.46 L50.13,42.61 L50.67,42.67 L56.00,42.67 L56.54,42.61 L57.04,42.46 L57.49,42.21 L57.89,41.89 L58.21,41.49 L58.46,41.04 L58.61,40.54 L58.67,40.00 L58.67,34.67 L58.61,34.13 L58.46,33.63 L58.21,33.18 L57.89,32.78 L57.49,32.46 L57.04,32.21 L56.54,32.05 L56.00,32.00 L50.67,32.00 L50.13,32.05 L49.63,32.21 L49.18,32.46 L48.78,32.78 L48.46,33.18 L48.21,33.63 L48.05,34.13 L48.00,34.67 Z" fill="#50e6ff" stroke="#50e6ff" stroke-width="1" stroke-linejoin="round"/></svg>