<svg xmlns="http://www.w3.org/2000/svg" viewBox="-1.99 -2.00 195.99 196.00"><path d="M32.73,86.95 L33.03,92.91 L33.91,98.70 L35.35,104.29 L37.32,109.65 L39.78,114.75 L42.71,119.56 L46.07,124.06 L53.98,131.98 L58.48,135.34 L63.29,138.27 L68.39,140.73 L73.75,142.69 L79.34,144.13 L85.13,145.02 L95.98,145.07 L100.73,144.35 L105.32,143.17 L109.72,141.55 L113.90,139.53 L117.85,137.13 L121.54,134.37 L128.04,127.88 L130.80,124.19 L133.20,120.24 L135.22,116.05 L136.83,111.66 L138.01,107.07 L138.74,102.32 L139.25,96.04 L139.98,94.87 L141.08,94.03 L142.44,93.64 L143.85,93.78 L145.08,94.40 L146.01,95.42 L147.09,100.84 L147.27,105.05 L146.97,111.11 L146.06,117.01 L144.60,122.70 L142.60,128.16 L140.09,133.36 L133.68,142.84 L129.84,147.07 L125.62,150.91 L121.04,154.33 L116.14,157.31 L110.94,159.82 L105.48,161.82 L93.89,164.19 L87.82,164.50 L83.92,164.40 L80.08,164.11 L76.29,163.63 L72.56,162.96 L68.89,162.11 L61.78,159.89 L58.34,158.53 L54.98,157.01 L51.71,155.34 L48.54,153.51 L45.46,151.53 L42.49,149.42 L39.62,147.17 L34.23,142.27 L31.72,139.63 L29.34,136.88 L27.08,134.02 L24.97,131.04 L22.99,127.97 L21.16,124.79 L17.97,118.16 L16.61,114.72 L15.41,111.20 L14.39,107.61 L13.54,103.94 L12.88,100.21 L12.39,96.42 L12.00,88.68 L11.88,87.47 L11.53,86.35 L10.97,85.33 L10.24,84.44 L9.35,83.71 L8.34,83.16 L6.01,82.69 L4.80,82.81 L3.67,83.16 L2.66,83.71 L1.77,84.44 L1.04,85.33 L0.48,86.35 L0.01,88.68 L0.12,93.19 L0.46,97.65 L1.02,102.04 L1.79,106.36 L2.78,110.60 L3.96,114.77 L6.92,122.83 L8.68,126.72 L10.62,130.50 L12.74,134.18 L15.02,137.75 L17.47,141.19 L20.08,144.51 L25.75,150.75 L28.81,153.66 L31.99,156.42 L35.31,159.03 L38.76,161.48 L42.32,163.77 L46.00,165.88 L53.67,169.59 L57.66,171.16 L61.74,172.55 L65.90,173.73 L70.14,174.71 L74.46,175.49 L78.85,176.05 L83.31,176.39 L91.49,176.41 L95.11,176.13 L98.69,175.68 L102.20,175.05 L105.66,174.25 L109.04,173.28 L112.36,172.16 L118.77,169.44 L121.85,167.86 L124.84,166.14 L127.74,164.28 L130.55,162.29 L133.25,160.16 L135.84,157.92 L140.69,153.07 L142.94,150.47 L145.06,147.77 L147.05,144.97 L148.92,142.07 L150.64,139.08 L152.22,136.00 L154.93,129.59 L156.06,126.27 L157.02,122.88 L157.82,119.43 L158.45,115.91 L158.91,112.34 L159.18,108.72 L158.97,99.08 L158.09,93.29 L156.65,87.70 L154.68,82.34 L152.22,77.24 L149.29,72.43 L145.93,67.94 L138.02,60.02 L133.52,56.66 L128.71,53.73 L123.61,51.27 L118.25,49.31 L112.66,47.86 L106.87,46.98 L96.02,46.93 L91.27,47.65 L86.68,48.83 L82.28,50.45 L78.10,52.47 L74.15,54.87 L70.46,57.63 L63.96,64.12 L61.20,67.81 L58.80,71.76 L56.78,75.95 L55.17,80.34 L53.99,84.93 L53.26,89.68 L52.75,95.96 L52.02,97.13 L50.92,97.97 L49.56,98.36 L48.15,98.22 L46.92,97.60 L45.99,96.58 L45.47,95.25 L44.73,86.95 L45.03,80.89 L45.93,74.99 L47.40,69.30 L49.40,63.84 L51.91,58.64 L54.89,53.74 L62.16,44.94 L66.38,41.10 L70.96,37.68 L75.86,34.69 L81.06,32.19 L86.52,30.19 L92.21,28.72 L104.18,27.51 L108.08,27.61 L111.92,27.90 L115.71,28.38 L119.44,29.05 L123.11,29.90 L126.70,30.92 L133.66,33.48 L137.02,35.00 L140.29,36.67 L143.46,38.50 L146.54,40.47 L149.51,42.59 L152.38,44.84 L157.77,49.74 L160.28,52.37 L162.66,55.13 L164.92,57.99 L167.03,60.96 L169.01,64.04 L170.83,67.21 L174.03,73.84 L175.39,77.28 L176.59,80.80 L177.61,84.40 L178.46,88.07 L179.12,91.80 L179.61,95.59 L180.00,103.33 L180.12,104.54 L180.47,105.66 L181.02,106.68 L181.76,107.57 L182.64,108.30 L183.66,108.85 L185.99,109.32 L187.20,109.20 L188.33,108.85 L189.34,108.30 L190.23,107.57 L190.96,106.68 L191.52,105.66 L191.87,104.53 L191.87,98.82 L191.54,94.36 L190.98,89.97 L190.20,85.65 L189.22,81.41 L188.03,77.24 L186.65,73.17 L183.31,65.29 L181.37,61.51 L179.26,57.83 L176.97,54.27 L174.52,50.82 L171.91,47.50 L169.15,44.31 L163.18,38.35 L160.00,35.59 L156.68,32.98 L153.23,30.53 L149.67,28.24 L145.99,26.13 L142.21,24.18 L134.33,20.85 L130.25,19.46 L126.09,18.28 L121.84,17.30 L117.52,16.52 L113.14,15.96 L108.68,15.62 L100.50,15.60 L96.87,15.88 L93.30,16.33 L89.79,16.96 L86.33,17.76 L82.94,18.73 L79.63,19.85 L73.22,22.57 L70.14,24.15 L67.15,25.87 L64.25,27.73 L61.44,29.72 L58.74,31.85 L56.15,34.09 L51.30,38.94 L49.05,41.54 L46.93,44.24 L44.93,47.04 L43.07,49.94 L41.35,52.93 L39.77,56.01 L37.06,62.42 L35.93,65.73 L34.97,69.12 L34.17,72.57 L33.54,76.09 L33.08,79.66 L32.81,83.28 L32.73,86.95 Z" fill="#2f8ce2" stroke="#1e1e1e" stroke-width="1" stroke-linejoin="round"/><path d="M160.00,168.00 L160.00,184.00 L160.16,185.61 L160.63,187.11 L161.37,188.47 L162.34,189.66 L163.53,190.63 L164.89,191.37 L166.39,191.84 L168.00,192.00 L184.00,192.00 L185.61,191.84 L187.11,191.37 L188.47,190.63 L189.66,189.66 L190.63,188.47 L191.37,187.11 L191.84,185.61 L192.00,184.00 L192.00,168.00 L191.84,166.39 L191.37,164.89 L190.63,163.53 L189.66,162.34 L188.47,161.37 L187.11,160.63 L185.61,160.16 L184.00,160.00 L168.00,160.00 L166.39,160.16 L164.89,160.63 L163.53,161.37 L162.34,162.34 L161.37,163.53 L160.63,164.89 L160.16,166.39 L160.00,168.00 Z" fill="#32bedd" stroke="#1e1e1e" stroke-width="1" stroke-linejoin="round"/><path d="M10.67,26.67 L10.67,37.33 L10.78,38.41 L11.09,39.41 L11.58,40.32 L12.23,41.10 L13.02,41.76 L13.92,42.25 L14.93,42.56 L16.00,42.67 L26.67,42.67 L27.74,42.56 L28.74,42.25 L29.65,41.76 L30.44,41.10 L31.09,40.32 L31.58,39.41 L31.89,38.41 L32.00,37.33 L32.00,26.67 L31.89,25.59 L31.58,24.59 L31.09,23.68 L30.44,22.90 L29.65,22.24 L28.74,21.75 L27.74,21.44 L26.67,21.33 L16.00,21.33 L14.93,21.44 L13.92,21.75 L13.02,22.24 L12.23,22.90 L11.58,23.68 L11.09,24.59 L10.78,25.59 L10.67,26.67 Z" fill="#32bedd" stroke="#1e1e1e" stroke-width="1" stroke-linejoin="round"/><path d="M170.67,5.33 L170.67,16.00 L170.78,17.07 L171.09,18.08 L171.58,18.98 L172.23,19.77 L173.02,20.42 L173.92,20.91 L174.93,21.22 L176.00,21.33 L186.67,21.33 L187.74,21.22 L188.74,20.91 L189.65,20.42 L190.44,19.77 L191.09,18.98 L191.58,18.08 L191.89,17.07 L192.00,16.00 L192.00,5.33 L191.89,4.26 L191.58,3.26 L191.09,2.35 L190.44,1.56 L189.65,0.91 L188.74,0.42 L187.74,0.11 L186.67,0.00 L176.00,0.00 L174.93,0.11 L173.92,0.42 L173.02,0.91 L172.23,1.56 L171.58,2.35 L171.09,3.26 L170.78,4.26 L170.67,5.33 Z" fill="#32bedd" stroke="#1e1e1e" stroke-width="1" stroke-linejoin="round"/><path d="M74.67,112.00 L74.67,122.67 L74.78,123.74 L75.09,124.74 L75.58,125.65 L76.23,126.44 L77.02,127.09 L77.92,127.58 L78.93,127.89 L80.00,128.00 L90.67,128.00 L91.74,127.89 L92.74,127.58 L93.65,127.09 L94.44,126.44 L95.09,125.65 L95.58,124.74 L95.89,123.74 L96.00,122.67 L96.00,112.00 L95.89,110.93 L95.58,109.92 L95.09,109.02 L94.44,108.23 L93.65,107.58 L92.74,107.09 L91.74,106.78 L90.67,106.67 L80.00,106.67 L78.93,106.78 L77.92,107.09 L77.02,107.58 L76.23,108.23 L75.58,109.02 L75.09,109.92 L74.78,110.93 L74.67,112.00 Z" fill="#50e6ff" stroke="#1e1e1e" stroke-width="1" stroke-linejoin="round"/><path d="M96.00,69.33 L96.00,80.00 L96.11,81.07 L96.42,82.08 L96.91,82.98 L97.56,83.77 L98.35,84.42 L99.26,84.91 L100.26,85.22 L101.33,85.33 L112.00,85.33 L113.07,85.22 L114.08,84.91 L114.98,84.42 L115.77,83.77 L116.42,82.98 L116.91,82.08 L117.22,81.07 L117.33,80.00 L117.33,69.33 L117.22,68.26 L116.91,67.26 L116.42,66.35 L115.77,65.56 L114.98,64.91 L114.08,64.42 L113.07,64.11 L112.00,64.00 L101.33,64.00 L100.26,64.11 L99.26,64.42 L98.35,64.91 L97.56,65.56 L96.91,66.35 L96.42,67.26 L96.11,68.26 L96.00,69.33 Z" fill="#50e6ff" stroke="#1e1e1e" stroke-width="1" stroke-linejoin="round"/></svg>