<svg xmlns="http://www.w3.org/2000/svg" viewBox="6.80 -2.00 82.40 100.00"><path d="M53.53,0.00 L12.07,0.00 L10.82,0.25 L9.76,0.96 L9.05,2.02 L8.80,3.28 L8.80,92.72 L9.05,93.97 L9.76,95.03 L10.82,95.75 L12.07,96.00 L83.93,96.00 L85.18,95.75 L86.24,95.03 L86.95,93.97 L87.20,92.72 L87.20,33.53 L86.95,32.27 L86.24,31.21 L85.18,30.50 L83.93,30.25 L60.07,30.25 L58.82,30.00 L57.76,29.29 L57.05,28.23 L56.80,26.98 L56.80,3.28 L56.55,2.03 L55.84,0.97 L54.78,0.25 L53.53,0.00 L53.53,0.00 Z" fill="#49a198" stroke="#1e1e1e" stroke-width="1" stroke-linejoin="round"/><path d="M85.95,30.90 L55.67,0.71 L55.67,25.31 L55.77,26.40 L56.08,27.44 L56.59,28.40 L57.27,29.25 L58.12,29.95 L59.07,30.46 L60.10,30.79 L61.19,30.90 L85.95,30.90 L85.95,30.90 Z" fill="#318581" stroke="#1e1e1e" stroke-width="1" stroke-linejoin="round"/><path d="M37.65,71.66 L37.67,71.65 L37.90,71.05 L37.64,70.45 L22.69,55.54 L20.83,57.40 L20.45,57.96 L20.33,58.60 L20.45,59.23 L20.83,59.79 L34.60,73.53 L35.20,73.77 L35.80,73.53 L37.65,71.66 L37.65,71.66 Z" fill="#ffffff" stroke="#1e1e1e" stroke-width="1" stroke-linejoin="round" opacity="0.8"/><path d="M75.20,57.42 L73.34,55.55 L58.37,70.48 L58.12,71.08 L58.37,71.67 L60.23,73.54 L60.83,73.79 L61.42,73.54 L75.20,59.81 L75.57,59.25 L75.69,58.61 L75.57,57.98 L75.20,57.42 L75.20,57.42 Z" fill="#ffffff" stroke="#1e1e1e" stroke-width="1" stroke-linejoin="round" opacity="0.8"/><path d="M39.60,77.41 L51.75,39.46 L52.04,39.11 L52.50,39.07 L55.49,40.02 L55.84,40.32 L55.88,40.77 L43.73,78.73 L43.43,79.08 L42.98,79.11 L39.99,78.16 L39.64,77.87 L39.60,77.41 L39.60,77.41 Z" fill="#ffffff" stroke="#1e1e1e" stroke-width="1" stroke-linejoin="round"/><path d="M35.51,43.87 L37.38,45.73 L37.62,46.33 L37.38,46.92 L22.67,61.67 L20.81,59.81 L20.43,59.25 L20.31,58.61 L20.43,57.98 L20.81,57.42 L34.33,43.87 L34.92,43.62 L35.51,43.87 Z" fill="#ffffff" stroke="#1e1e1e" stroke-width="1" stroke-linejoin="round"/><path d="M75.18,59.80 L73.31,61.66 L58.62,46.94 L58.38,46.34 L58.62,45.74 L60.49,43.88 L61.09,43.63 L61.69,43.88 L75.18,57.42 L75.56,57.98 L75.68,58.62 L75.55,59.25 L75.18,59.81 L75.18,59.81 L75.18,59.80 L75.18,59.80 Z" fill="#ffffff" stroke="#1e1e1e" stroke-width="1" stroke-linejoin="round"/></svg>