<svg xmlns="http://www.w3.org/2000/svg" viewBox="1.09 0.67 93.81 94.67"><path d="M56.32,90.29 L55.93,91.82 L54.81,92.94 L53.28,93.33 L6.08,93.33 L4.57,92.92 L3.48,91.81 L3.09,90.29 L3.09,5.71 L3.48,4.19 L4.57,3.08 L6.08,2.67 L53.33,2.67 L54.86,3.06 L55.98,4.18 L56.37,5.71 L56.32,90.29 Z" fill="#9d9d9d" stroke="#1e1e1e" stroke-width="1" stroke-linejoin="round"/><path d="M10.67,34.45 L10.96,32.62 L11.83,30.98 L13.17,29.70 L14.85,28.91 L16.69,28.69 L43.36,28.69 L45.10,29.01 L46.66,29.85 L47.90,31.12 L48.69,32.70 L48.96,34.45 L48.96,34.45 L48.69,36.25 L47.88,37.87 L46.60,39.15 L44.99,39.98 L43.20,40.27 L16.53,40.27 L14.72,40.00 L13.09,39.18 L11.79,37.89 L10.95,36.26 L10.67,34.45 Z" fill="#003067" stroke="#1e1e1e" stroke-width="1" stroke-linejoin="round"/><path d="M10.67,17.28 L10.96,15.44 L11.83,13.79 L13.17,12.50 L14.85,11.70 L16.69,11.47 L43.36,11.47 L45.11,11.79 L46.68,12.63 L47.92,13.92 L48.70,15.52 L48.96,17.28 L48.96,17.28 L48.68,19.06 L47.86,20.67 L46.59,21.94 L44.98,22.76 L43.20,23.04 L16.53,23.04 L14.73,22.78 L13.09,21.98 L11.79,20.70 L10.95,19.08 L10.67,17.28 Z" fill="#003067" stroke="#1e1e1e" stroke-width="1" stroke-linejoin="round"/><ellipse cx="16.91" cy="17.28" rx="3.89" ry="3.89" fill="#50e6ff" stroke="#50e6ff" stroke-width="1"/><ellipse cx="16.91" cy="34.45" rx="3.89" ry="3.89" fill="#50e6ff" stroke="#50e6ff" stroke-width="1"/><path d="M92.91,76.69 L92.48,73.40 L91.41,70.26 L89.74,67.39 L87.54,64.91 L84.88,62.92 L81.89,61.50 L78.67,60.69 L78.14,56.66 L76.84,52.80 L74.82,49.26 L72.15,46.19 L68.94,43.68 L65.31,41.85 L61.39,40.75 L57.33,40.43 L53.56,40.71 L49.89,41.65 L46.44,43.22 L43.33,45.39 L40.65,48.06 L38.49,51.17 L36.91,54.61 L33.02,55.53 L29.39,57.21 L26.18,59.59 L23.51,62.56 L21.50,66.01 L20.22,69.79 L19.73,73.76 L20.22,77.67 L21.46,81.40 L23.41,84.83 L25.98,87.80 L29.08,90.22 L32.60,91.99 L36.39,93.04 L40.32,93.33 L42.13,93.33 L75.52,93.33 L76.43,93.33 L80.09,92.86 L83.56,91.59 L86.67,89.60 L89.27,86.97 L91.23,83.84 L92.47,80.36 L92.91,76.69 Z" fill="#3990e4" stroke="#1e1e1e" stroke-width="1" stroke-linejoin="round"/></svg>