<svg xmlns="http://www.w3.org/2000/svg" viewBox="3.33 3.76 89.33 89.33"><path d="M45.71,46.35 L5.33,46.35 L5.33,11.63 L5.62,9.82 L6.44,8.20 L7.73,6.90 L9.35,6.06 L11.15,5.76 L45.71,5.76 L45.71,46.35 Z" fill="#949494" stroke="#1e1e1e" stroke-width="1" stroke-linejoin="round"/><path d="M10.35,41.33 L40.69,41.33 L40.69,10.67 L11.15,10.67 L10.58,10.90 L10.35,11.47 L10.35,41.33 Z" fill="#ffffff" stroke="#1e1e1e" stroke-width="1" stroke-linejoin="round"/><path d="M90.67,46.35 L50.29,46.35 L50.29,5.76 L84.85,5.76 L86.65,6.06 L88.27,6.90 L89.56,8.20 L90.38,9.82 L90.67,11.63 L90.67,46.35 Z" fill="#949494" stroke="#1e1e1e" stroke-width="1" stroke-linejoin="round"/><path d="M55.31,41.33 L85.65,41.33 L85.65,11.63 L85.48,10.95 L84.85,10.67 L55.31,10.67 L55.31,41.33 Z" fill="#ffffff" stroke="#1e1e1e" stroke-width="1" stroke-linejoin="round"/><path d="M45.71,91.09 L11.15,91.09 L9.36,90.81 L7.75,90.00 L6.46,88.72 L5.63,87.12 L5.33,85.33 L5.33,50.56 L45.71,50.56 L45.71,91.09 Z" fill="#949494" stroke="#1e1e1e" stroke-width="1" stroke-linejoin="round"/><path d="M10.35,55.57 L10.35,85.33 L10.58,85.90 L11.15,86.13 L40.69,86.13 L40.69,55.57 L10.35,55.57 Z" fill="#ffffff" stroke="#1e1e1e" stroke-width="1" stroke-linejoin="round"/><path d="M84.85,91.09 L50.29,91.09 L50.29,50.56 L90.67,50.56 L90.67,85.33 L90.37,87.12 L89.54,88.72 L88.25,90.00 L86.64,90.81 L84.85,91.09 L84.85,91.09 Z" fill="#949494" stroke="#1e1e1e" stroke-width="1" stroke-linejoin="round"/><path d="M55.31,86.08 L84.85,86.08 L85.42,85.85 L85.65,85.28 L85.65,55.57 L55.31,55.57 L55.31,86.08 Z" fill="#ffffff" stroke="#1e1e1e" stroke-width="1" stroke-linejoin="round"/><path d="M78.24,56.64 L77.79,53.46 L76.61,50.46 L74.78,47.82 L72.38,45.68 L69.56,44.14 L66.45,43.31 L65.89,39.51 L64.50,35.94 L62.36,32.76 L59.57,30.13 L56.27,28.18 L52.62,27.01 L48.80,26.67 L45.20,27.00 L41.74,28.05 L38.57,29.79 L35.81,32.14 L33.59,34.99 L32.00,38.24 L28.77,39.02 L25.77,40.44 L23.11,42.43 L20.91,44.91 L19.25,47.79 L18.20,50.94 L17.81,54.24 L18.35,57.89 L19.69,61.34 L21.75,64.40 L24.44,66.93 L27.63,68.80 L31.15,69.93 L34.83,70.24 L64.00,70.24 L64.75,70.24 L67.73,69.82 L70.55,68.77 L73.09,67.14 L75.21,65.00 L76.82,62.46 L77.85,59.63 L78.24,56.64 L78.24,56.64 Z" fill="#3990e4" stroke="#1e1e1e" stroke-width="1" stroke-linejoin="round"/></svg>