<svg xmlns="http://www.w3.org/2000/svg" viewBox="0.67 0.73 94.67 94.54"><path d="M45.23,45.29 L45.23,4.27 L45.03,3.50 L44.47,2.93 L43.70,2.73 L4.19,2.73 L3.43,2.93 L2.87,3.50 L2.67,4.27 L2.67,43.76 L2.87,44.52 L3.43,45.08 L4.19,45.29 L45.23,45.29 Z" fill="#006bcf" stroke="#1e1e1e" stroke-width="1" stroke-linejoin="round"/><path d="M39.12,39.18 L10.29,39.18 L9.53,38.98 L8.97,38.42 L8.77,37.66 L8.77,10.36 L8.97,9.59 L9.53,9.04 L10.29,8.83 L37.59,8.83 L38.36,9.04 L38.92,9.59 L39.12,10.36 L39.12,39.18 Z" fill="#ffffff" stroke="#1e1e1e" stroke-width="1" stroke-linejoin="round"/><path d="M50.77,45.29 L91.81,45.29 L92.57,45.08 L93.13,44.52 L93.33,43.76 L93.33,4.27 L93.13,3.50 L92.57,2.94 L91.81,2.74 L52.30,2.74 L51.54,2.94 L50.98,3.50 L50.77,4.27 L50.77,45.29 Z" fill="#006bcf" stroke="#1e1e1e" stroke-width="1" stroke-linejoin="round"/><path d="M56.88,39.18 L56.88,10.38 L57.08,9.62 L57.64,9.06 L58.41,8.86 L85.71,8.86 L86.47,9.06 L87.03,9.62 L87.23,10.38 L87.23,37.66 L87.03,38.42 L86.47,38.98 L85.71,39.18 L56.88,39.18 Z" fill="#ffffff" stroke="#1e1e1e" stroke-width="1" stroke-linejoin="round"/><path d="M50.77,50.71 L50.77,91.73 L50.98,92.50 L51.54,93.06 L52.30,93.26 L91.81,93.26 L92.57,93.06 L93.13,92.50 L93.33,91.73 L93.33,52.27 L93.13,51.50 L92.57,50.95 L91.81,50.74 L50.77,50.71 Z" fill="#006bcf" stroke="#1e1e1e" stroke-width="1" stroke-linejoin="round"/><path d="M56.88,56.82 L85.71,56.82 L86.47,57.02 L87.03,57.58 L87.23,58.34 L87.23,85.64 L87.03,86.41 L86.47,86.96 L85.71,87.17 L58.41,87.17 L57.64,86.96 L57.08,86.41 L56.88,85.64 L56.88,56.84" fill="none" stroke="#1e1e1e" stroke-width="1" stroke-linejoin="round"/><path d="M45.23,50.71 L4.19,50.71 L3.42,50.92 L2.86,51.49 L2.67,52.27 L2.67,91.73 L2.87,92.50 L3.43,93.06 L4.19,93.26 L43.70,93.26 L44.46,93.06 L45.02,92.50 L45.23,91.73 L45.23,50.71 Z" fill="#006bcf" stroke="#1e1e1e" stroke-width="1" stroke-linejoin="round"/><path d="M39.12,56.82 L39.12,85.62 L38.92,86.38 L38.36,86.94 L37.59,87.14 L10.29,87.14 L9.53,86.94 L8.97,86.38 L8.77,85.62 L8.77,58.34 L8.97,57.58 L9.53,57.02 L10.29,56.82 L39.12,56.82 Z" fill="#ffffff" stroke="#1e1e1e" stroke-width="1" stroke-linejoin="round"/><path d="M79.47,43.84 L78.86,37.19 L77.74,30.61 L76.10,24.13 L73.96,17.81 L72.61,20.52 L70.95,23.06 L67.30,20.01 L63.22,17.56 L58.81,15.77 L54.17,14.67 L49.43,14.30 L44.40,14.72 L39.51,15.98 L34.90,18.04 L30.70,20.85 L27.03,24.32 L23.99,28.35 L21.67,32.84 L20.14,37.65 L19.43,42.65 L19.57,47.70 L20.55,52.66 L22.36,57.37 L24.92,61.72 L28.18,65.58 L32.04,68.84 L36.39,71.41 L41.11,73.21 L46.06,74.19 L51.11,74.34 L56.11,73.63 L60.92,72.10 L65.41,69.78 L69.44,66.74 L72.91,63.07 L75.72,58.87 L77.78,54.26 L79.04,49.37 L79.47,44.34 L79.47,43.84 Z" fill="#5fb832" stroke="#1e1e1e" stroke-width="1" stroke-linejoin="round"/><path d="M73.71,57.86 L72.21,59.54 L70.54,60.94 L68.71,62.09 L66.75,63.00 L64.68,63.71 L62.52,64.24 L58.00,64.84 L53.37,65.01 L48.79,64.94 L44.42,64.82 L40.42,64.87 L38.66,64.94 L36.91,65.12 L38.42,64.62 L45.89,62.24 L53.18,59.36 L57.44,56.79 L61.27,53.63 L64.61,49.95 L67.37,45.82 L69.50,41.33 L70.96,36.58 L68.76,41.05 L65.96,45.17 L62.60,48.86 L58.76,52.03 L54.51,54.63 L49.93,56.61 L41.74,59.04 L33.40,60.87 L32.90,60.62 L31.62,59.83 L30.52,58.78 L29.60,57.51 L28.87,56.05 L28.34,54.44 L28.02,52.71 L27.92,50.90 L28.05,49.04 L28.42,47.16 L29.03,45.29 L29.90,43.48 L31.04,41.74 L32.44,40.13 L34.13,38.67 L36.12,37.39 L38.40,36.33 L40.55,35.64 L42.69,35.20 L46.97,34.80 L51.36,34.54 L53.61,34.27 L55.93,33.83 L60.18,32.42 L64.16,30.36 L67.76,27.69 L70.89,24.47 L73.47,20.80 L74.86,25.07 L76.15,29.73 L77.18,34.62 L77.82,39.61 L77.93,44.57 L77.74,47.00 L77.37,49.36 L76.80,51.65 L76.01,53.84 L74.99,55.91 L73.71,57.86 Z" fill="#ffffff" stroke="#ffffff" stroke-width="1" stroke-linejoin="round"/><path d="M31.41,67.62 L32.66,67.28 L33.57,66.37 L33.90,65.12 L33.57,63.87 L32.65,62.95 L31.40,62.62 L30.15,62.95 L29.24,63.87 L28.90,65.12 L29.24,66.37 L30.16,67.29 L31.41,67.62 L31.41,67.62 Z" fill="#ffffff" stroke="#ffffff" stroke-width="1" stroke-linejoin="round"/></svg>