<svg xmlns="http://www.w3.org/2000/svg" viewBox="-0.91 -0.91 100.00 99.81"><path d="M50.32,21.38 L74.12,35.07 L90.71,25.49 L87.25,20.19 L83.12,15.40 L78.40,11.19 L73.16,7.64 L67.51,4.82 L61.52,2.76 L55.32,1.51 L49.01,1.09 L42.70,1.51 L36.50,2.75 L30.51,4.80 L24.85,7.62 L19.61,11.17 L14.89,15.37 L20.95,14.69 L27.05,14.69 L33.11,15.37 L39.06,16.73 L44.82,18.74 L50.32,21.38 L50.32,21.38 Z" fill="#004887" stroke="#1e1e1e" stroke-width="1" stroke-linejoin="round"/><path d="M73.81,35.07 L73.43,67.92 L90.68,72.55 L93.37,66.99 L95.32,61.12 L96.51,55.06 L96.90,48.89 L96.49,42.72 L95.29,36.66 L93.32,30.80 L90.62,25.25 L87.21,20.09 L83.18,15.41 L78.57,11.29 L73.47,7.80 L67.96,4.99 L62.14,2.92 L66.02,8.68 L69.16,14.87 L71.53,21.39 L73.09,28.16 L73.81,35.07 Z" fill="#0078d4" stroke="#1e1e1e" stroke-width="1" stroke-linejoin="round"/><path d="M73.77,63.40 L48.99,77.71 L49.38,96.77 L55.61,96.33 L61.74,95.09 L67.65,93.06 L73.25,90.28 L78.44,86.80 L83.13,82.67 L87.24,77.96 L90.70,72.76 L93.46,67.15 L95.46,61.23 L96.68,55.10 L97.09,48.86 L96.66,43.12 L95.52,37.49 L93.17,42.72 L90.25,47.66 L86.81,52.26 L82.88,56.44 L78.52,60.17 L73.77,63.40 L73.77,63.40 Z" fill="#5ea0ef" stroke="#1e1e1e" stroke-width="1" stroke-linejoin="round"/><path d="M48.99,77.71 L24.20,63.40 L7.76,73.26 L11.21,78.37 L15.30,83.00 L19.94,87.05 L25.07,90.48 L30.60,93.22 L36.44,95.22 L42.48,96.45 L48.64,96.90 L54.80,96.55 L60.86,95.40 L66.73,93.49 L72.29,90.84 L77.48,87.49 L82.18,83.50 L75.36,84.06 L68.52,83.75 L61.77,82.57 L55.23,80.55 L48.99,77.71 Z" fill="#004482" stroke="#1e1e1e" stroke-width="1" stroke-linejoin="round"/><path d="M24.18,63.40 L24.56,29.45 L7.59,24.98 L4.78,30.60 L2.74,36.55 L1.50,42.72 L1.09,48.99 L1.52,55.24 L2.77,61.39 L4.80,67.31 L7.58,72.93 L11.07,78.13 L15.20,82.84 L19.91,86.97 L25.12,90.46 L30.73,93.24 L36.66,95.27 L33.23,90.60 L30.30,85.60 L27.90,80.32 L26.07,74.82 L24.83,69.16 L24.18,63.40 L24.18,63.40 Z" fill="#0078d4" stroke="#1e1e1e" stroke-width="1" stroke-linejoin="round"/><path d="M25.04,34.30 L48.99,20.45 L42.93,17.60 L36.58,15.48 L30.02,14.10 L23.34,13.50 L16.65,13.67 L12.69,17.74 L9.24,22.24 L6.35,27.13 L4.07,32.32 L2.41,37.75 L1.42,43.33 L1.09,48.99 L1.53,55.36 L2.80,61.62 L5.21,56.16 L8.19,50.98 L11.71,46.16 L15.72,41.73 L20.18,37.76 L25.04,34.30 L25.04,34.30 Z" fill="#5ea0ef" stroke="#1e1e1e" stroke-width="1" stroke-linejoin="round"/><path d="M73.77,63.40 L73.77,34.76 L48.98,20.45 L24.18,34.76 L24.18,63.40 L48.98,77.71 L73.77,63.40 Z" fill="#c3f1ff" stroke="#1e1e1e" stroke-width="1" stroke-linejoin="round"/><path d="M49.01,49.38 L49.01,77.71 L24.18,63.40 L24.18,34.86 L49.01,49.38 Z" fill="#89ecff" stroke="#1e1e1e" stroke-width="1" stroke-linejoin="round"/><path d="M48.98,49.38 L48.98,77.71 L73.81,63.40 L73.81,34.86 L48.98,49.38 Z" fill="#50e6ff" stroke="#1e1e1e" stroke-width="1" stroke-linejoin="round"/></svg>