<svg xmlns="http://www.w3.org/2000/svg" viewBox="-2.00 11.21 100.00 73.59"><path d="M4.80,13.21 L77.99,13.21 L79.72,13.42 L81.24,14.28 L82.31,15.65 L82.79,17.33 L82.79,67.39 L82.31,69.07 L81.23,70.44 L79.72,71.30 L77.99,71.52 L48.04,71.52 L47.78,71.56 L47.55,71.66 L32.19,81.80 L31.13,82.13 L30.11,81.69 L29.62,80.70 L29.62,72.21 L29.36,71.70 L28.82,71.52 L4.80,71.52 L3.07,71.30 L1.55,70.44 L0.48,69.07 L0.00,67.39 L0.00,17.33 L0.48,15.66 L1.55,14.29 L3.07,13.43 L4.80,13.21 L4.80,13.21 Z" fill="#8f5ae8" stroke="#1e1e1e" stroke-width="1" stroke-linejoin="round"/><path d="M58.83,35.53 L60.92,35.94 L62.70,37.13 L63.88,38.90 L64.30,40.99 L63.88,43.08 L62.70,44.86 L60.92,46.04 L58.83,46.46 L56.74,46.04 L54.97,44.86 L53.78,43.08 L53.37,40.99 L53.78,38.90 L54.97,37.13 L56.74,35.94 L58.83,35.53 L58.83,35.53 Z" fill="#ffffff" stroke="#ffffff" stroke-width="1" stroke-linejoin="round" opacity="0.8"/><path d="M35.93,41.07 L36.36,43.15 L37.55,44.92 L39.32,46.10 L41.42,46.51 L43.50,46.08 L45.27,44.90 L46.45,43.12 L46.86,41.03 L46.45,38.94 L45.26,37.17 L43.49,35.99 L41.40,35.57 L39.30,35.99 L37.52,37.18 L36.34,38.97 L35.93,41.07 L35.93,41.07 Z" fill="#ffffff" stroke="#ffffff" stroke-width="1" stroke-linejoin="round" opacity="0.8"/><path d="M18.49,41.07 L18.92,43.15 L20.11,44.92 L21.88,46.10 L23.98,46.51 L26.06,46.08 L27.83,44.90 L29.01,43.12 L29.42,41.03 L29.01,38.94 L27.82,37.17 L26.05,35.99 L23.96,35.57 L21.86,35.99 L20.08,37.18 L18.90,38.97 L18.49,41.07 L18.49,41.07 Z" fill="#ffffff" stroke="#ffffff" stroke-width="1" stroke-linejoin="round" opacity="0.8"/><ellipse cx="74.27" cy="61.07" rx="21.73" ry="21.73" fill="#8aecff" stroke="#1e1e1e" stroke-width="1"/><path d="M86.21,72.74 L83.34,68.39 L82.76,67.85 L81.98,67.66 L81.21,67.86 L79.16,68.97 L78.51,69.08 L77.93,68.78 L75.99,66.66 L74.26,64.37 L72.61,61.58 L71.52,58.92 L70.67,56.17 L70.71,55.52 L71.13,55.02 L73.12,53.81 L73.67,53.25 L73.89,52.50 L73.73,51.73 L71.47,47.06 L70.96,46.48 L70.24,46.22 L69.48,46.35 L67.68,47.71 L66.26,49.48 L65.32,51.53 L64.85,53.19 L64.80,54.91 L65.10,56.66 L65.68,58.44 L67.37,61.96 L69.31,65.34 L69.33,65.34 L71.27,68.73 L73.46,71.97 L74.69,73.36 L76.06,74.51 L77.56,75.34 L79.23,75.78 L81.48,76.00 L83.72,75.67 L85.80,74.81 L86.30,74.22 L86.45,73.47 L86.21,72.74 Z" fill="#0078d4" stroke="#1e1e1e" stroke-width="1" stroke-linejoin="round"/></svg>