<svg xmlns="http://www.w3.org/2000/svg" viewBox="-0.93 -0.93 98.05 97.87"><path d="M49.30,20.94 L72.61,34.36 L88.87,24.97 L85.48,19.78 L81.44,15.09 L76.81,10.96 L71.68,7.49 L66.14,4.72 L60.28,2.70 L54.20,1.48 L48.02,1.07 L41.83,1.48 L35.76,2.69 L29.90,4.70 L24.35,7.47 L19.22,10.94 L14.59,15.06 L20.53,14.39 L26.50,14.39 L32.44,15.06 L38.27,16.39 L43.91,18.36 L49.30,20.94 L49.30,20.94 Z" fill="#004887" stroke="#1e1e1e" stroke-width="1" stroke-linejoin="round"/><path d="M72.31,34.36 L71.94,66.54 L88.84,71.08 L91.48,65.63 L93.39,59.88 L94.55,53.94 L94.93,47.90 L94.53,41.86 L93.36,35.92 L91.43,30.18 L88.78,24.73 L85.45,19.68 L81.49,15.09 L76.98,11.06 L71.98,7.64 L66.58,4.89 L60.88,2.86 L64.68,8.50 L67.76,14.57 L70.08,20.96 L71.61,27.59 L72.31,34.36 L72.31,34.36 Z" fill="#0078d4" stroke="#1e1e1e" stroke-width="1" stroke-linejoin="round"/><path d="M72.28,62.11 L48.00,76.14 L48.38,94.81 L54.49,94.38 L60.49,93.16 L66.28,91.18 L71.76,88.45 L76.85,85.04 L81.44,80.99 L85.47,76.38 L88.86,71.28 L91.57,65.79 L93.53,59.99 L94.72,53.98 L95.12,47.87 L94.70,42.25 L93.58,36.73 L91.28,41.85 L88.42,46.70 L85.05,51.20 L81.20,55.30 L76.93,58.95 L72.28,62.11 L72.28,62.11 Z" fill="#5ea0ef" stroke="#1e1e1e" stroke-width="1" stroke-linejoin="round"/><path d="M48.00,76.14 L23.71,62.11 L7.60,71.78 L10.99,76.78 L14.99,81.31 L19.54,85.29 L24.57,88.65 L29.98,91.33 L35.70,93.29 L41.62,94.50 L47.65,94.93 L53.69,94.59 L59.63,93.47 L65.37,91.60 L70.83,89.00 L75.91,85.72 L80.52,81.81 L73.83,82.35 L67.13,82.05 L60.52,80.90 L54.11,78.92 L48.00,76.14 Z" fill="#004482" stroke="#1e1e1e" stroke-width="1" stroke-linejoin="round"/><path d="M23.69,62.11 L24.06,28.85 L7.43,24.47 L4.68,29.98 L2.69,35.81 L1.47,41.85 L1.07,48.00 L1.49,54.12 L2.71,60.14 L4.70,65.95 L7.43,71.45 L10.84,76.55 L14.89,81.16 L19.51,85.21 L24.61,88.62 L30.11,91.35 L35.92,93.33 L32.55,88.76 L29.68,83.86 L27.34,78.69 L25.55,73.30 L24.33,67.75 L23.69,62.11 L23.69,62.11 Z" fill="#0078d4" stroke="#1e1e1e" stroke-width="1" stroke-linejoin="round"/><path d="M24.53,33.60 L48.00,20.04 L42.06,17.25 L35.83,15.16 L29.41,13.82 L22.87,13.22 L16.31,13.40 L12.43,17.38 L9.05,21.79 L6.23,26.58 L3.99,31.66 L2.37,36.98 L1.39,42.45 L1.07,48.00 L1.50,54.24 L2.74,60.37 L5.10,55.02 L8.02,49.95 L11.47,45.22 L15.40,40.89 L19.77,37.00 L24.53,33.60 L24.53,33.60 Z" fill="#5ea0ef" stroke="#1e1e1e" stroke-width="1" stroke-linejoin="round"/><path d="M72.28,62.11 L72.28,34.06 L47.98,20.04 L23.69,34.06 L23.69,62.11 L47.98,76.14 L72.28,62.11 Z" fill="#c3f1ff" stroke="#1e1e1e" stroke-width="1" stroke-linejoin="round"/><path d="M48.02,48.38 L48.02,76.14 L23.69,62.11 L23.69,34.15 L48.02,48.38 Z" fill="#89ecff" stroke="#1e1e1e" stroke-width="1" stroke-linejoin="round"/><path d="M47.98,48.38 L47.98,76.14 L72.31,62.11 L72.31,34.15 L47.98,48.38 Z" fill="#50e6ff" stroke="#1e1e1e" stroke-width="1" stroke-linejoin="round"/></svg>