<svg xmlns="http://www.w3.org/2000/svg" viewBox="0.82 0.89 100.00 99.86"><path d="M47.89,47.95 L47.89,4.52 L47.67,3.70 L47.08,3.11 L46.27,2.89 L4.44,2.89 L3.63,3.11 L3.04,3.70 L2.82,4.52 L2.82,46.33 L3.04,47.14 L3.63,47.73 L4.44,47.95 L47.89,47.95 Z" fill="#006bcf" stroke="#1e1e1e" stroke-width="1" stroke-linejoin="round"/><path d="M41.42,41.49 L10.90,41.49 L10.09,41.27 L9.50,40.68 L9.28,39.87 L9.28,10.97 L9.50,10.16 L10.09,9.57 L10.90,9.35 L39.81,9.35 L40.61,9.57 L41.20,10.16 L41.42,10.97 L41.42,41.49 Z" fill="#ffffff" stroke="#1e1e1e" stroke-width="1" stroke-linejoin="round"/><path d="M53.76,47.95 L97.21,47.95 L98.02,47.73 L98.61,47.14 L98.82,46.33 L98.82,4.52 L98.61,3.71 L98.02,3.12 L97.21,2.90 L55.38,2.90 L54.57,3.12 L53.98,3.71 L53.76,4.52 L53.76,47.95 Z" fill="#006bcf" stroke="#1e1e1e" stroke-width="1" stroke-linejoin="round"/><path d="M60.23,41.49 L60.23,10.99 L60.44,10.19 L61.03,9.60 L61.84,9.38 L90.75,9.38 L91.56,9.60 L92.15,10.19 L92.36,10.99 L92.36,39.87 L92.15,40.68 L91.56,41.27 L90.75,41.49 L60.23,41.49 Z" fill="#ffffff" stroke="#1e1e1e" stroke-width="1" stroke-linejoin="round"/><path d="M53.76,53.70 L53.76,97.13 L53.98,97.94 L54.57,98.53 L55.38,98.75 L97.21,98.75 L98.02,98.53 L98.61,97.94 L98.82,97.13 L98.82,55.34 L98.61,54.53 L98.02,53.94 L97.21,53.73 L53.76,53.70 Z" fill="#006bcf" stroke="#1e1e1e" stroke-width="1" stroke-linejoin="round"/><path d="M60.23,60.16 L90.75,60.16 L91.56,60.37 L92.15,60.97 L92.36,61.77 L92.36,90.68 L92.15,91.49 L91.56,92.08 L90.75,92.30 L61.84,92.30 L61.03,92.08 L60.44,91.49 L60.23,90.68 L60.23,60.19 L60.23,60.16 Z" fill="#ffffff" stroke="#1e1e1e" stroke-width="1" stroke-linejoin="round"/><path d="M47.89,53.70 L4.44,53.70 L3.62,53.92 L3.03,54.52 L2.82,55.34 L2.82,97.13 L3.04,97.94 L3.63,98.53 L4.44,98.75 L46.27,98.75 L47.08,98.53 L47.67,97.94 L47.89,97.13 L47.89,53.70 Z" fill="#006bcf" stroke="#1e1e1e" stroke-width="1" stroke-linejoin="round"/><path d="M41.42,60.16 L41.42,90.65 L41.20,91.46 L40.61,92.05 L39.81,92.27 L10.90,92.27 L10.09,92.05 L9.50,91.46 L9.28,90.65 L9.28,61.77 L9.50,60.97 L10.09,60.37 L10.90,60.16 L41.42,60.16 Z" fill="#ffffff" stroke="#1e1e1e" stroke-width="1" stroke-linejoin="round"/><path d="M84.14,46.42 L83.50,39.38 L82.31,32.41 L80.57,25.55 L78.31,18.86 L76.88,21.73 L75.13,24.42 L71.26,21.19 L66.93,18.60 L62.27,16.70 L57.36,15.54 L52.34,15.14 L47.01,15.59 L41.83,16.92 L36.95,19.11 L32.50,22.08 L28.62,25.75 L25.40,30.02 L22.94,34.77 L21.32,39.87 L20.57,45.16 L20.72,50.51 L21.76,55.75 L23.67,60.75 L26.39,65.35 L29.84,69.44 L33.92,72.89 L38.53,75.61 L43.52,77.52 L48.77,78.56 L54.11,78.71 L59.41,77.96 L64.50,76.34 L69.25,73.88 L73.53,70.67 L77.20,66.78 L80.17,62.34 L82.36,57.46 L83.69,52.28 L84.14,46.95 L84.14,46.42 Z" fill="#5fb832" stroke="#1e1e1e" stroke-width="1" stroke-linejoin="round"/><path d="M78.05,61.26 L76.46,63.05 L74.69,64.53 L72.75,65.74 L70.68,66.71 L68.48,67.46 L66.20,68.01 L61.42,68.65 L56.51,68.83 L51.66,68.76 L47.03,68.64 L42.80,68.69 L40.94,68.76 L39.08,68.95 L40.68,68.42 L48.59,65.90 L56.31,62.85 L60.82,60.13 L64.88,56.79 L68.41,52.89 L71.33,48.51 L73.59,43.76 L75.13,38.73 L72.81,43.47 L69.84,47.83 L66.28,51.73 L62.21,55.09 L57.71,57.85 L52.87,59.94 L44.20,62.51 L35.36,64.46 L34.83,64.19 L33.48,63.35 L32.31,62.23 L31.34,60.89 L30.57,59.35 L30.01,57.64 L29.67,55.81 L29.57,53.90 L29.70,51.92 L30.09,49.93 L30.74,47.96 L31.66,46.03 L32.86,44.20 L34.35,42.49 L36.14,40.94 L38.24,39.59 L40.66,38.47 L42.94,37.73 L45.20,37.27 L49.74,36.84 L54.38,36.57 L56.76,36.29 L59.22,35.82 L63.72,34.33 L67.94,32.14 L71.75,29.31 L75.06,25.91 L77.79,22.02 L79.27,26.55 L80.62,31.48 L81.72,36.66 L82.39,41.94 L82.51,47.20 L82.31,49.76 L81.92,52.26 L81.32,54.68 L80.48,57.00 L79.40,59.20 L78.05,61.26 Z" fill="#ffffff" stroke="#ffffff" stroke-width="1" stroke-linejoin="round"/><path d="M33.26,71.60 L34.58,71.24 L35.55,70.27 L35.90,68.95 L35.54,67.62 L34.57,66.66 L33.25,66.30 L31.92,66.66 L30.96,67.63 L30.60,68.95 L30.96,70.28 L31.93,71.25 L33.26,71.60 L33.26,71.60 Z" fill="#ffffff" stroke="#ffffff" stroke-width="1" stroke-linejoin="round"/></svg>