<svg xmlns="http://www.w3.org/2000/svg" viewBox="-2.00 10.37 100.00 73.85"><path d="M96.00,60.37 L95.59,56.54 L94.52,52.84 L92.82,49.39 L90.55,46.28 L87.76,43.62 L84.56,41.48 L81.03,39.94 L77.28,39.04 L76.73,34.31 L75.37,29.75 L73.25,25.49 L70.42,21.66 L66.97,18.38 L63.01,15.74 L58.65,13.83 L54.03,12.69 L49.28,12.37 L44.96,12.66 L40.73,13.62 L36.70,15.21 L32.97,17.41 L29.62,20.16 L26.73,23.39 L24.38,27.03 L22.61,30.99 L18.08,31.99 L13.80,33.78 L9.91,36.31 L6.53,39.49 L3.77,43.23 L1.72,47.40 L0.45,51.86 L0.00,56.48 L0.56,61.03 L1.89,65.42 L3.95,69.52 L6.68,73.20 L10.01,76.36 L13.82,78.90 L18.02,80.75 L22.47,81.86 L27.04,82.19 L29.39,82.19 L73.17,82.19 L73.76,82.23 L74.35,82.19 L78.56,81.71 L82.61,80.43 L86.34,78.39 L89.61,75.68 L92.29,72.39 L94.30,68.65 L95.55,64.59 L96.00,60.37 L96.00,60.37 Z" fill="#3990e4" stroke="#1e1e1e" stroke-width="1" stroke-linejoin="round"/><path d="M65.76,35.15 L63.64,32.36 L60.98,30.08 L57.89,28.43 L54.52,27.47 L51.03,27.24 L47.57,27.77 L44.30,29.02 L41.36,30.93 L38.91,33.43 L37.04,36.39 L35.84,39.68 L35.42,42.78 L35.58,45.90 L36.32,48.94 L37.60,51.79 L25.12,64.43 L24.20,65.80 L23.88,67.41 L24.20,69.03 L25.12,70.40 L26.49,71.31 L28.11,71.63 L29.73,71.32 L31.09,70.40 L43.52,57.81 L45.62,58.84 L47.84,59.57 L51.31,60.02 L54.80,59.73 L58.14,58.70 L61.19,56.99 L63.81,54.67 L65.88,51.85 L67.31,48.66 L68.02,45.23 L68.00,41.73 L67.23,38.32 L65.76,35.15 Z" fill="#f2f2f2" stroke="#1e1e1e" stroke-width="1" stroke-linejoin="round"/><path d="M62.88,46.35 L61.77,49.19 L59.96,51.64 L57.56,53.53 L54.76,54.73 L51.73,55.15 L50.36,55.06 L49.01,54.77 L47.06,54.11 L45.28,53.07 L43.65,51.71 L42.29,50.08 L41.16,47.96 L40.49,45.64 L40.31,43.24 L40.64,40.85 L41.72,38.00 L43.51,35.53 L45.90,33.62 L48.71,32.42 L51.73,32.00 L53.13,32.08 L54.51,32.32 L57.29,33.46 L59.69,35.28 L61.55,37.65 L62.76,40.40 L63.22,43.36 L62.88,46.35 Z" fill="#3990e4" stroke="#1e1e1e" stroke-width="1" stroke-linejoin="round"/><ellipse cx="51.68" cy="43.63" rx="11.47" ry="11.52" fill="#83b9f9" stroke="#1e1e1e" stroke-width="1"/></svg>