<svg xmlns="http://www.w3.org/2000/svg" viewBox="3.40 1.31 89.24 93.29"><path d="M37.44,3.31 L76.01,3.31 L79.26,3.68 L82.35,4.76 L85.12,6.50 L87.44,8.81 L89.18,11.58 L90.27,14.66 L90.65,17.92 L90.29,21.17 L89.22,24.26 L89.94,22.83 L76.53,49.64 L76.42,49.88 L74.32,54.06 L76.42,49.87 L74.66,52.59 L72.35,54.85 L69.59,56.55 L66.53,57.61 L63.32,57.97 L40.16,57.97 L23.76,90.76 L22.79,91.95 L21.41,92.61 L19.87,92.61 L18.49,91.95 L17.52,90.76 L6.06,67.83 L5.41,65.80 L5.42,63.67 L6.10,61.65 L18.71,36.43 L19.80,34.84 L21.28,33.61 L23.05,32.84 L24.95,32.57 L73.29,32.57 L71.12,30.90 L68.68,29.66 L66.05,28.91 L63.32,28.67 L28.27,28.67 L26.89,28.38 L25.73,27.57 L24.99,26.37 L24.78,24.97 L25.15,23.61 L34.31,5.24 L35.09,4.22 L36.18,3.55 L37.44,3.31 Z" fill="#ffffff" stroke="#1e1e1e" stroke-width="1" stroke-linejoin="round"/><path d="M12.18,57.97 L40.16,57.97 L23.76,90.76 L22.79,91.95 L21.40,92.60 L19.87,92.60 L18.49,91.95 L17.51,90.76 L6.06,67.83 L5.40,65.63 L5.51,63.33 L6.38,61.20 L7.90,59.48 L9.91,58.36 L12.18,57.97 L12.18,57.97 Z" fill="#2aa87f" stroke="#1e1e1e" stroke-width="1" stroke-linejoin="round"/><path d="M37.43,3.31 L76.01,3.31 L79.29,3.68 L82.40,4.78 L85.19,6.55 L87.51,8.90 L89.25,11.71 L90.31,14.83 L90.65,18.12 L90.24,21.39 L89.10,24.50 L76.53,49.64 L76.42,49.88 L74.32,54.06 L76.53,49.64 L77.60,46.55 L77.96,43.29 L77.59,40.04 L76.50,36.95 L74.76,34.18 L72.44,31.87 L69.67,30.13 L66.58,29.05 L63.32,28.69 L28.27,28.69 L26.89,28.40 L25.73,27.59 L24.99,26.39 L24.78,25.00 L25.15,23.63 L34.31,5.24 L35.09,4.22 L36.18,3.55 L37.43,3.31 L37.43,3.31 Z" fill="#047f86" stroke="#1e1e1e" stroke-width="1" stroke-linejoin="round"/><path d="M37.43,3.31 L76.01,3.31 L79.29,3.68 L82.40,4.78 L85.19,6.55 L87.51,8.90 L89.25,11.71 L90.31,14.83 L90.65,18.12 L90.24,21.39 L89.10,24.50 L76.50,49.70 L76.41,49.88 L75.30,52.11 L76.50,49.70 L77.59,46.60 L77.96,43.34 L77.59,40.08 L76.51,36.99 L74.77,34.21 L72.45,31.89 L69.68,30.14 L66.58,29.06 L63.32,28.69 L28.27,28.69 L26.89,28.40 L25.73,27.59 L24.99,26.39 L24.78,25.00 L25.15,23.63 L34.31,5.24 L35.09,4.22 L36.18,3.55 L37.43,3.31 L37.43,3.31 Z" fill="#1360ad" stroke="#1e1e1e" stroke-width="1" stroke-linejoin="round" opacity="0.42"/><path d="M63.32,58.36 L12.27,58.36 L10.36,58.62 L8.60,59.40 L7.11,60.63 L6.02,62.21 L18.71,36.84 L19.80,35.25 L21.28,34.02 L23.05,33.25 L24.95,32.98 L76.01,32.98 L79.21,32.62 L82.26,31.57 L85.01,29.87 L87.31,27.61 L89.07,24.91 L89.91,23.22 L76.39,50.26 L74.64,52.98 L72.33,55.24 L69.58,56.94 L66.53,58.00 L63.32,58.36 L63.32,58.36 Z" fill="#000000" stroke="#1e1e1e" stroke-width="1" stroke-linejoin="round" opacity="0.24"/><path d="M63.32,59.92 L12.27,59.92 L10.36,60.19 L8.60,60.96 L7.11,62.19 L6.02,63.78 L18.71,38.40 L19.80,36.81 L21.28,35.59 L23.05,34.81 L24.95,34.54 L76.01,34.54 L79.21,34.18 L82.26,33.13 L85.01,31.43 L87.31,29.18 L89.07,26.47 L89.91,24.78 L76.39,51.82 L74.64,54.54 L72.33,56.80 L69.58,58.50 L66.53,59.56 L63.32,59.92 Z" fill="#000000" stroke="#1e1e1e" stroke-width="1" stroke-linejoin="round" opacity="0.32"/><path d="M63.32,57.97 L12.27,57.97 L10.36,58.23 L8.60,59.01 L7.11,60.24 L6.02,61.82 L18.71,36.45 L19.80,34.86 L21.28,33.63 L23.05,32.86 L24.95,32.59 L76.01,32.59 L79.21,32.23 L82.26,31.18 L85.00,29.49 L87.31,27.24 L89.07,24.53 L89.91,22.85 L76.39,49.89 L74.64,52.60 L72.33,54.86 L69.58,56.55 L66.53,57.61 L63.32,57.97 Z" fill="#1da57d" stroke="#1e1e1e" stroke-width="1" stroke-linejoin="round"/><path d="M63.29,57.97 L12.30,57.97 L10.40,58.23 L8.63,59.01 L7.15,60.24 L6.06,61.82 L18.75,36.45 L19.84,34.86 L21.32,33.63 L23.08,32.86 L24.99,32.59 L76.27,32.59 L79.38,32.25 L82.34,31.23 L85.01,29.59 L87.25,27.41 L88.96,24.78 L76.38,49.88 L74.62,52.60 L72.31,54.86 L69.56,56.56 L66.50,57.61 L63.29,57.97 L63.29,57.97 Z" fill="#7dcd54" stroke="#1e1e1e" stroke-width="1" stroke-linejoin="round" opacity="0.11"/></svg>