<svg xmlns="http://www.w3.org/2000/svg" viewBox="0.70 0.87 94.41 94.79"><path d="M75.79,83.84 L70.65,87.29 L65.09,90.01 L59.21,91.94 L53.12,93.06 L46.94,93.34 L40.77,92.77 L34.74,91.37 L28.96,89.16 L23.53,86.18 L18.56,82.50 L14.14,78.17 L10.35,73.28 L7.26,67.91 L4.92,62.18 L3.39,56.18 L2.70,50.03 L2.84,43.84 L3.83,37.73 L5.64,31.82 L8.24,26.20 L11.57,20.99 L15.59,16.28 L20.21,12.16 L20.69,11.84 L25.85,8.51 L31.41,5.90 L37.27,4.08 L43.33,3.06 L49.47,2.87 L55.57,3.50 L61.54,4.96 L67.25,7.22 L72.61,10.22 L77.51,13.92 L81.86,18.24 L85.60,23.12 L88.63,28.46 L90.92,34.16 L92.42,40.11 L93.10,46.21 L92.95,52.35 L91.97,58.41 L90.18,64.29 L87.61,69.87 L84.32,75.05 L80.35,79.73 L75.79,83.84 L75.79,83.84 Z" fill="#3990e4" stroke="#1e1e1e" stroke-width="1" stroke-linejoin="round"/><path d="M22.03,37.60 L21.61,38.37 L21.69,39.24 L22.25,39.92 L23.09,40.16 L55.73,40.16 L57.98,40.42 L60.08,41.27 L61.87,42.67 L62.98,44.12 L63.75,45.79 L64.16,47.57 L64.13,49.78 L63.47,51.88 L62.24,53.71 L60.58,55.27 L58.52,56.26 L56.27,56.59 L45.01,56.59 L44.71,56.65 L44.53,56.91 L41.65,64.00 L39.68,68.75 L39.61,68.99 L39.68,69.23 L48.00,77.23 L61.81,91.04 L64.27,93.65 L75.68,87.31 L73.17,85.33 L65.55,77.65 L57.28,69.33 L56.91,69.33 L56.91,69.33 L59.68,68.96 L63.53,67.82 L67.08,65.94 L70.19,63.42 L72.75,60.33 L74.67,56.80 L75.76,53.61 L76.31,50.27 L76.31,46.90 L75.76,43.57 L74.67,40.37 L72.98,37.22 L70.77,34.40 L68.80,32.51 L66.58,30.92 L64.16,29.65 L61.31,28.63 L58.33,28.02 L55.31,27.84 L39.31,27.84 L39.31,21.60 L38.85,21.26 L38.29,21.33 L22.03,37.60 Z" fill="#f2f2f2" stroke="#1e1e1e" stroke-width="1" stroke-linejoin="round"/></svg>