<svg xmlns="http://www.w3.org/2000/svg" viewBox="0.85 1.03 99.60 100.00"><path d="M80.14,88.65 L74.70,92.30 L68.82,95.18 L62.61,97.22 L56.17,98.40 L49.63,98.70 L43.11,98.10 L36.74,96.61 L30.62,94.28 L24.89,91.13 L19.63,87.23 L14.95,82.66 L10.94,77.48 L7.67,71.81 L5.21,65.75 L3.59,59.41 L2.85,52.91 L3.00,46.36 L4.05,39.90 L5.96,33.64 L8.71,27.70 L12.24,22.19 L16.49,17.21 L21.37,12.86 L21.88,12.52 L27.34,9.00 L33.22,6.24 L39.41,4.31 L45.82,3.23 L52.31,3.03 L58.76,3.71 L65.07,5.25 L71.11,7.63 L76.78,10.80 L81.96,14.72 L86.56,19.29 L90.51,24.45 L93.72,30.09 L96.14,36.12 L97.73,42.41 L98.45,48.87 L98.29,55.36 L97.25,61.77 L95.36,67.98 L92.64,73.88 L89.16,79.35 L84.96,84.31 L80.14,88.65 L80.14,88.65 Z" fill="#3990e4" stroke="#1e1e1e" stroke-width="1" stroke-linejoin="round"/><path d="M23.29,39.76 L22.85,40.57 L22.94,41.49 L23.53,42.21 L24.42,42.47 L58.93,42.47 L61.31,42.74 L63.53,43.64 L65.42,45.12 L66.59,46.66 L67.41,48.41 L67.84,50.30 L67.81,52.63 L67.12,54.86 L65.81,56.79 L64.05,58.44 L61.88,59.49 L59.50,59.84 L47.60,59.84 L47.28,59.91 L47.09,60.17 L44.04,67.67 L41.96,72.69 L41.88,72.95 L41.96,73.20 L50.76,81.66 L65.36,96.27 L67.96,99.03 L80.02,92.32 L77.37,90.23 L69.31,82.11 L60.57,73.31 L60.17,73.31 L60.17,73.31 L63.11,72.92 L67.17,71.71 L70.93,69.73 L74.22,67.06 L76.93,63.79 L78.95,60.06 L80.11,56.68 L80.69,53.16 L80.69,49.59 L80.11,46.07 L78.95,42.69 L77.17,39.36 L74.84,36.37 L72.75,34.38 L70.40,32.70 L67.84,31.36 L64.82,30.27 L61.68,29.63 L58.48,29.44 L41.56,29.44 L41.56,22.84 L41.09,22.48 L40.49,22.56 L23.29,39.76 Z" fill="#f2f2f2" stroke="#1e1e1e" stroke-width="1" stroke-linejoin="round"/></svg>