<svg xmlns="http://www.w3.org/2000/svg" viewBox="-2.00 7.41 100.00 81.18"><path d="M0.00,29.87 L96.00,29.87 L96.00,29.87 L96.00,83.39 L95.76,84.61 L95.06,85.65 L94.02,86.34 L92.80,86.59 L3.20,86.59 L1.98,86.34 L0.94,85.65 L0.24,84.61 L0.00,83.39 L0.00,29.87 L0.00,29.87 Z" fill="#006ec2" stroke="#1e1e1e" stroke-width="1" stroke-linejoin="round"/><path d="M86.59,35.50 L87.42,35.61 L88.19,35.93 L88.85,36.44 L89.36,37.10 L89.68,37.88 L89.79,38.70 L89.79,77.71 L89.68,78.54 L89.36,79.31 L88.85,79.97 L88.19,80.48 L87.42,80.80 L86.59,80.91 L10.18,80.91 L9.35,80.80 L8.58,80.48 L7.92,79.97 L7.41,79.31 L7.09,78.54 L6.98,77.71 L6.98,38.70 L7.09,37.88 L7.41,37.10 L7.92,36.44 L8.58,35.93 L9.35,35.61 L10.18,35.50 L86.59,35.50 Z" fill="#5ea0ef" stroke="#1e1e1e" stroke-width="1" stroke-linejoin="round" opacity="0.6"/><path d="M3.20,9.41 L92.80,9.41 L94.02,9.65 L95.06,10.35 L95.76,11.38 L96.00,12.61 L96.00,29.87 L96.00,29.87 L0.00,29.87 L0.00,29.87 L0.00,12.61 L0.24,11.39 L0.94,10.35 L1.97,9.65 L3.20,9.41 L3.20,9.41 Z" fill="#005ba1" stroke="#1e1e1e" stroke-width="1" stroke-linejoin="round"/><path d="M37.91,70.49 L36.20,72.20 L35.66,72.43 L35.11,72.20 L22.71,59.76 L22.31,59.07 L22.31,58.27 L22.71,57.57 L24.42,55.87 L37.92,69.40 L38.14,69.95 L37.91,70.49 L37.91,70.49 Z" fill="#ffffff" stroke="#ffffff" stroke-width="1" stroke-linejoin="round" opacity="0.8"/><path d="M57.40,70.49 L59.11,72.20 L59.66,72.43 L60.20,72.20 L72.60,59.76 L73.00,59.07 L73.00,58.27 L72.60,57.57 L70.89,55.87 L57.39,69.40 L57.17,69.95 L57.40,70.49 Z" fill="#ffffff" stroke="#ffffff" stroke-width="1" stroke-linejoin="round" opacity="0.8"/><path d="M36.43,44.98 L38.14,46.69 L38.37,47.23 L38.14,47.78 L24.41,61.48 L22.70,59.76 L22.30,59.07 L22.30,58.27 L22.70,57.57 L35.34,44.97 L35.89,44.75 L36.43,44.98 L36.43,44.98 Z" fill="#ffffff" stroke="#ffffff" stroke-width="1" stroke-linejoin="round"/><path d="M58.87,44.98 L57.16,46.69 L56.93,47.23 L57.16,47.78 L70.90,61.48 L72.60,59.77 L73.00,59.07 L73.00,58.27 L72.60,57.57 L59.96,44.98 L59.41,44.75 L58.87,44.98 L58.87,44.98 Z" fill="#ffffff" stroke="#ffffff" stroke-width="1" stroke-linejoin="round"/><path d="M43.51,76.60 L40.78,75.73 L40.46,75.46 L40.42,75.03 L51.57,40.21 L51.84,39.88 L52.26,39.86 L55.00,40.73 L55.33,41.00 L55.35,41.42 L44.21,76.27 L43.93,76.58 L43.51,76.60 Z" fill="#ffffff" stroke="#1e1e1e" stroke-width="1" stroke-linejoin="round"/><path d="M16.89,20.52 L16.52,22.20 L15.49,23.58 L13.97,24.41 L12.26,24.53 L10.64,23.93 L9.42,22.71 L8.82,21.09 L8.94,19.38 L9.77,17.86 L11.15,16.83 L12.83,16.46 L14.38,16.77 L15.70,17.65 L16.58,18.97 L16.89,20.52 L16.89,20.52 Z" fill="#ffffff" stroke="#ffffff" stroke-width="1" stroke-linejoin="round"/><path d="M25.60,16.46 L23.92,16.83 L22.54,17.86 L21.71,19.38 L21.59,21.09 L22.19,22.71 L23.41,23.93 L25.02,24.53 L26.74,24.41 L28.25,23.58 L29.29,22.20 L29.65,20.52 L29.34,18.97 L28.47,17.65 L27.15,16.77 L25.60,16.46 L25.60,16.46 Z" fill="#ffffff" stroke="#ffffff" stroke-width="1" stroke-linejoin="round"/><path d="M38.36,16.46 L36.68,16.83 L35.30,17.86 L34.47,19.38 L34.35,21.09 L34.95,22.71 L36.17,23.93 L37.79,24.53 L39.50,24.41 L41.02,23.58 L42.05,22.20 L42.42,20.52 L42.11,18.96 L41.23,17.65 L39.91,16.77 L38.35,16.46 L38.36,16.46 Z" fill="#ffffff" stroke="#ffffff" stroke-width="1" stroke-linejoin="round"/></svg>