<svg xmlns="http://www.w3.org/2000/svg" viewBox="-1.89 9.68 99.79 76.64"><path d="M0.11,29.33 L83.03,29.33 L83.03,75.57 L82.66,76.95 L81.65,77.97 L80.27,78.34 L2.88,78.34 L1.49,77.97 L0.48,76.95 L0.11,75.57 L0.11,29.33 L0.11,29.33 Z" fill="#864ee4" stroke="#1e1e1e" stroke-width="1" stroke-linejoin="round"/><path d="M2.89,11.68 L80.25,11.68 L81.64,12.05 L82.65,13.07 L83.02,14.45 L83.02,14.45 L83.02,29.33 L0.11,29.33 L0.11,14.45 L0.48,13.07 L1.49,12.05 L2.88,11.68 L2.89,11.68 Z" fill="#773adc" stroke="#1e1e1e" stroke-width="1" stroke-linejoin="round"/><path d="M9.85,57.19 L9.85,36.76 L10.06,36.07 L10.57,35.78 L39.03,35.78 L39.54,36.07 L39.75,36.76 L39.75,57.19 L39.54,57.87 L39.03,58.16 L10.57,58.16 L10.06,57.88 L9.85,57.19 Z" fill="#f2f2f2" stroke="#1e1e1e" stroke-width="1" stroke-linejoin="round"/><path d="M38.11,71.93 L11.49,71.93 L10.85,71.85 L10.33,71.64 L9.98,71.33 L9.85,70.95 L9.85,64.17 L9.98,63.79 L10.33,63.48 L10.85,63.27 L11.49,63.19 L38.11,63.19 L38.75,63.27 L39.27,63.48 L39.62,63.79 L39.75,64.17 L39.75,70.93 L39.62,71.31 L39.27,71.63 L38.75,71.85 L38.11,71.93 Z" fill="#b796f9" stroke="#b796f9" stroke-width="1" stroke-linejoin="round"/><path d="M74.67,43.87 L47.08,43.87 L46.42,43.80 L45.88,43.59 L45.51,43.28 L45.38,42.90 L45.38,36.20 L45.51,35.82 L45.88,35.51 L46.42,35.30 L47.08,35.23 L74.67,35.23 L75.33,35.30 L75.87,35.51 L76.23,35.82 L76.36,36.20 L76.36,42.90 L76.23,43.28 L75.86,43.59 L75.32,43.80 L74.67,43.87 Z" fill="#b796f9" stroke="#b796f9" stroke-width="1" stroke-linejoin="round"/><path d="M94.10,78.93 L76.62,70.80 L75.66,69.97 L75.38,68.73 L75.38,65.92 L75.66,64.68 L76.62,63.84 L94.10,55.71 L94.77,55.75 L95.34,56.17 L95.74,56.87 L95.89,57.79 L95.89,76.85 L95.74,77.77 L95.34,78.48 L94.77,78.89 L94.10,78.93 Z" fill="#32bedd" stroke="#1e1e1e" stroke-width="1" stroke-linejoin="round"/><rect x="45.57" y="50.07" width="39.20" height="34.25" fill="#41d2ee" stroke="#1e1e1e" stroke-width="1"/><path d="M57.55,67.32 L57.55,59.97 L57.82,58.95 L58.56,58.20 L59.58,57.93 L60.60,58.20 L67.00,61.88 L73.37,65.56 L74.11,66.30 L74.39,67.32 L74.11,68.34 L73.37,69.09 L67.00,72.76 L60.60,76.44 L59.58,76.72 L58.56,76.44 L57.82,75.69 L57.55,74.67 L57.55,67.32 Z" fill="#c3f1ff" stroke="#1e1e1e" stroke-width="1" stroke-linejoin="round"/></svg>