<svg xmlns="http://www.w3.org/2000/svg" viewBox="-1.89 9.71 100.00 76.80"><path d="M0.11,29.40 L83.22,29.40 L83.22,75.74 L82.85,77.12 L81.83,78.14 L80.45,78.52 L2.89,78.52 L1.50,78.14 L0.48,77.13 L0.11,75.74 L0.11,29.40 L0.11,29.40 Z" fill="#864ee4" stroke="#1e1e1e" stroke-width="1" stroke-linejoin="round"/><path d="M2.90,11.71 L80.43,11.71 L81.82,12.08 L82.83,13.10 L83.20,14.49 L83.20,14.49 L83.20,29.40 L0.11,29.40 L0.11,14.49 L0.48,13.10 L1.50,12.08 L2.89,11.71 L2.90,11.71 Z" fill="#773adc" stroke="#1e1e1e" stroke-width="1" stroke-linejoin="round"/><path d="M9.87,57.32 L9.87,36.84 L10.08,36.15 L10.59,35.86 L39.12,35.86 L39.63,36.15 L39.84,36.84 L39.84,57.32 L39.63,58.00 L39.12,58.29 L10.59,58.29 L10.08,58.01 L9.87,57.32 Z" fill="#f2f2f2" stroke="#1e1e1e" stroke-width="1" stroke-linejoin="round"/><path d="M38.20,72.09 L11.51,72.09 L10.87,72.01 L10.35,71.80 L10.00,71.49 L9.87,71.11 L9.87,64.31 L10.00,63.93 L10.35,63.62 L10.87,63.41 L11.51,63.34 L38.20,63.34 L38.84,63.41 L39.36,63.62 L39.71,63.93 L39.84,64.31 L39.84,71.09 L39.71,71.47 L39.36,71.79 L38.84,72.01 L38.20,72.09 Z" fill="#b796f9" stroke="#b796f9" stroke-width="1" stroke-linejoin="round"/><path d="M74.83,43.97 L47.18,43.97 L46.52,43.89 L45.98,43.69 L45.62,43.38 L45.48,43.00 L45.48,36.28 L45.62,35.90 L45.98,35.59 L46.52,35.38 L47.18,35.31 L74.83,35.31 L75.50,35.38 L76.04,35.59 L76.40,35.90 L76.53,36.28 L76.53,43.00 L76.40,43.38 L76.03,43.69 L75.49,43.89 L74.83,43.97 Z" fill="#b796f9" stroke="#b796f9" stroke-width="1" stroke-linejoin="round"/><path d="M94.31,79.11 L76.79,70.96 L75.82,70.12 L75.54,68.88 L75.54,66.07 L75.83,64.82 L76.79,63.98 L94.31,55.84 L94.98,55.87 L95.56,56.29 L95.96,57.00 L96.11,57.92 L96.11,77.02 L95.96,77.94 L95.55,78.65 L94.98,79.07 L94.31,79.11 Z" fill="#32bedd" stroke="#1e1e1e" stroke-width="1" stroke-linejoin="round"/><path d="M82.90,50.18 L83.43,50.25 L83.93,50.46 L84.35,50.78 L84.68,51.21 L84.89,51.71 L84.96,52.24 L84.96,82.45 L84.89,82.98 L84.68,83.48 L84.35,83.91 L83.93,84.23 L83.43,84.44 L82.90,84.51 L47.73,84.51 L47.19,84.44 L46.70,84.23 L46.27,83.91 L45.95,83.48 L45.74,82.98 L45.67,82.45 L45.67,52.24 L45.74,51.71 L45.95,51.21 L46.27,50.78 L46.70,50.46 L47.19,50.25 L47.73,50.18 L82.90,50.18 Z" fill="#41d2ee" stroke="#1e1e1e" stroke-width="1" stroke-linejoin="round"/><path d="M57.67,67.47 L57.67,60.10 L57.95,59.08 L58.70,58.33 L59.72,58.06 L60.74,58.33 L67.15,62.02 L73.53,65.70 L74.28,66.45 L74.55,67.47 L74.28,68.49 L73.53,69.24 L67.15,72.92 L60.74,76.61 L59.71,76.89 L58.69,76.61 L57.94,75.86 L57.67,74.83 L57.67,67.47 Z" fill="#c3f1ff" stroke="#1e1e1e" stroke-width="1" stroke-linejoin="round"/></svg>