<svg xmlns="http://www.w3.org/2000/svg" viewBox="0.78 -0.92 96.30 100.00"><path d="M66.60,71.66 L61.89,74.80 L56.80,77.23 L51.40,78.92 L45.82,79.82 L40.17,79.91 L34.57,79.21 L29.12,77.71 L23.94,75.45 L19.14,72.47 L14.80,68.85 L11.03,64.64 L7.89,59.94 L5.46,54.84 L3.78,49.45 L2.88,43.87 L2.78,38.22 L3.49,32.61 L4.99,27.16 L7.25,21.98 L10.22,17.18 L13.85,12.85 L18.05,9.07 L18.47,8.77 L23.43,5.65 L28.79,3.30 L34.43,1.77 L40.24,1.08 L46.09,1.26 L51.85,2.30 L57.40,4.17 L62.60,6.84 L67.36,10.25 L71.56,14.32 L75.12,18.97 L77.95,24.09 L80.00,29.57 L81.21,35.30 L81.57,41.14 L81.07,46.97 L79.71,52.66 L77.53,58.09 L74.57,63.14 L70.90,67.70 L66.60,71.66 L66.60,71.66 Z" fill="#3a90e5" stroke="#1e1e1e" stroke-width="1" stroke-linejoin="round"/><path d="M31.56,32.13 L36.54,27.88 L41.94,24.20 L47.72,21.12 L53.79,18.68 L60.09,16.90 L66.54,15.82 L73.08,15.44 L69.83,11.85 L66.16,8.69 L58.69,9.59 L51.36,11.32 L44.28,13.85 L39.05,16.40 L34.11,19.45 L29.50,22.99 L25.26,26.97 L27.72,28.22 L29.85,29.96 L31.56,32.13 Z" fill="#ffffff" stroke="#1e1e1e" stroke-width="1" stroke-linejoin="round" opacity="0.6"/><path d="M11.95,48.04 L9.78,54.08 L8.06,60.26 L9.44,62.45 L10.96,64.56 L12.21,66.10 L13.54,67.57 L15.65,59.36 L18.58,51.41 L16.16,50.73 L13.92,49.59 L11.95,48.04 Z" fill="#ffffff" stroke="#ffffff" stroke-width="1" stroke-linejoin="round" opacity="0.6"/><path d="M16.51,26.91 L15.05,22.43 L13.98,17.84 L13.30,13.18 L10.54,16.44 L8.15,19.97 L9.23,25.53 L10.82,30.97 L12.45,29.27 L14.37,27.90 L16.51,26.91 L16.51,26.91 Z" fill="#f2f2f2" stroke="#f2f2f2" stroke-width="1" stroke-linejoin="round" opacity="0.55"/><ellipse cx="20.78" cy="38.89" rx="12.73" ry="12.73" fill="#e7e7e7" stroke="#1e1e1e" stroke-width="1"/><path d="M39.34,62.13 L39.63,59.96 L40.48,57.94 L41.84,56.22 L37.67,53.68 L33.74,50.79 L30.07,47.57 L28.04,49.32 L25.69,50.61 L23.12,51.37 L26.38,54.50 L29.88,57.35 L34.51,60.49 L39.42,63.16 L39.36,62.65 L39.34,62.13 Z" fill="#f2f2f2" stroke="#f2f2f2" stroke-width="1" stroke-linejoin="round" opacity="0.55"/><path d="M68.69,63.12 L62.23,62.74 L55.85,61.62 L55.88,62.13 L55.61,64.24 L54.81,66.21 L53.53,67.92 L58.79,68.73 L64.10,69.11 L69.42,69.05 L72.27,66.06 L74.78,62.79 L71.74,63.04 L68.69,63.12 L68.69,63.12 Z" fill="#f2f2f2" stroke="#f2f2f2" stroke-width="1" stroke-linejoin="round" opacity="0.55"/><ellipse cx="47.61" cy="62.13" rx="8.27" ry="8.27" fill="#e7e7e7" stroke="#e7e7e7" stroke-width="1"/><path d="M57.78,40.03 L58.40,38.30 L59.36,36.74 L60.64,35.42 L53.19,29.55 L46.25,23.09 L39.84,16.09 L34.87,9.53 L30.60,2.48 L28.03,3.37 L25.54,4.43 L28.49,9.62 L31.81,14.57 L35.47,19.28 L42.33,26.80 L49.78,33.74 L57.78,40.03 L57.78,40.03 Z" fill="#f2f2f2" stroke="#1e1e1e" stroke-width="1" stroke-linejoin="round" opacity="0.7"/><ellipse cx="66.46" cy="41.62" rx="8.79" ry="8.79" fill="#f2f2f2" stroke="#1e1e1e" stroke-width="1"/><path d="M81.22,47.54 L79.72,46.75 L79.58,46.68 L78.20,45.93 L77.95,45.79 L76.70,45.10 L76.40,44.92 L74.93,44.09 L73.79,46.48 L71.96,48.39 L73.71,49.39 L74.10,49.62 L75.73,50.51 L75.89,50.60 L79.90,52.72 L79.90,52.72 L80.65,50.15 L81.22,47.54 L81.22,47.54 Z" fill="#f2f2f2" stroke="#f2f2f2" stroke-width="1" stroke-linejoin="round" opacity="0.55"/><ellipse cx="20.78" cy="38.89" rx="12.73" ry="12.73" fill="#e7e7e7" stroke="#1e1e1e" stroke-width="1"/><ellipse cx="47.61" cy="62.13" rx="8.27" ry="8.27" fill="#f2f2f2" stroke="#f2f2f2" stroke-width="1"/><path d="M95.08,57.44 L93.36,52.23 L92.54,52.23 L86.37,52.23 L83.73,49.15 L84.57,42.19 L79.71,39.75 L79.10,40.36 L74.75,44.70 L70.71,44.42 L66.36,38.88 L61.16,40.60 L61.12,41.42 L61.12,47.60 L58.05,50.23 L51.20,49.38 L48.76,54.23 L49.37,54.84 L53.72,59.19 L53.44,63.23 L47.81,67.63 L49.53,72.83 L50.35,72.86 L56.52,72.86 L59.16,75.94 L58.32,82.90 L63.18,85.33 L63.79,84.73 L68.14,80.38 L72.18,80.66 L76.53,86.20 L81.73,84.48 L81.77,83.66 L81.77,77.49 L84.84,74.85 L91.80,75.69 L94.25,70.83 L93.64,70.22 L89.29,65.87 L89.57,61.83 L95.08,57.44 Z" fill="#32cced" stroke="#1e1e1e" stroke-width="1" stroke-linejoin="round"/><path d="M74.77,72.53 L71.90,73.06 L69.00,72.78 L66.28,71.72 L63.96,69.95 L62.22,67.62 L61.17,64.90 L60.92,61.99 L61.47,59.13 L62.78,56.53 L64.75,54.38 L67.23,52.86 L70.04,52.07 L72.96,52.09 L75.76,52.90 L78.23,54.44 L80.18,56.61 L81.47,59.22 L81.98,61.92 L81.78,64.67 L80.87,67.27 L79.33,69.54 L77.24,71.34 L74.77,72.53 Z" fill="#3a90e5" stroke="#1e1e1e" stroke-width="1" stroke-linejoin="round"/><path d="M41.36,80.16 L41.36,75.84 L40.75,75.62 L36.13,74.10 L34.93,71.18 L37.28,66.18 L34.23,63.13 L33.62,63.43 L29.31,65.61 L26.36,64.40 L24.49,59.22 L20.17,59.22 L19.95,59.83 L18.44,64.44 L15.48,65.66 L10.56,63.31 L7.54,66.33 L7.83,66.94 L10.01,71.26 L8.80,74.21 L3.53,76.07 L3.53,80.41 L4.13,80.64 L8.75,82.16 L9.96,85.11 L7.61,90.10 L10.64,93.13 L11.24,92.82 L15.56,90.65 L18.51,91.85 L20.40,97.08 L24.72,97.08 L24.94,96.47 L26.45,91.85 L29.40,90.65 L34.40,92.99 L37.43,89.96 L37.13,89.36 L34.95,85.05 L36.16,82.10 L41.36,80.16 Z" fill="#50e6ff" stroke="#50e6ff" stroke-width="1" stroke-linejoin="round"/><path d="M22.44,86.42 L19.88,86.02 L17.56,84.84 L15.72,83.00 L14.54,80.69 L14.13,78.12 L14.54,75.55 L15.72,73.23 L17.55,71.39 L19.87,70.21 L22.44,69.81 L25.01,70.21 L27.32,71.39 L29.16,73.23 L30.34,75.55 L30.75,78.11 L30.34,80.68 L29.16,83.00 L27.33,84.83 L25.01,86.01 L22.44,86.42 L22.44,86.42 Z" fill="#ffffff" stroke="#ffffff" stroke-width="1" stroke-linejoin="round"/><ellipse cx="71.45" cy="62.52" rx="10.55" ry="10.55" fill="#ffffff" stroke="#1e1e1e" stroke-width="1"/><ellipse cx="22.44" cy="78.11" rx="8.30" ry="8.30" fill="#ffffff" stroke="#ffffff" stroke-width="1"/></svg>