<svg xmlns="http://www.w3.org/2000/svg" viewBox="-2.08 -2.06 100.00 99.97"><path d="M74.52,54.65 L70.21,54.50 L66.19,54.06 L62.56,53.36 L59.39,52.43 L56.78,51.30 L54.81,49.98 L54.09,49.26 L53.56,48.51 L53.24,47.72 L53.13,46.91 L53.13,88.16 L53.24,88.95 L53.55,89.72 L54.07,90.46 L54.78,91.16 L56.72,92.47 L59.29,93.61 L62.41,94.55 L66.00,95.27 L69.96,95.73 L74.22,95.91 L74.52,95.91 L78.83,95.76 L82.84,95.32 L86.48,94.62 L89.65,93.69 L92.26,92.55 L94.23,91.23 L94.95,90.52 L95.48,89.76 L95.81,88.98 L95.92,88.16 L95.92,46.89 L95.81,47.69 L95.48,48.47 L94.95,49.21 L94.23,49.93 L92.26,51.25 L89.65,52.39 L86.48,53.34 L82.84,54.05 L78.83,54.50 L74.52,54.65 Z" fill="#0078d4" stroke="#1e1e1e" stroke-width="1" stroke-linejoin="round"/><path d="M95.92,46.89 L95.81,47.69 L95.48,48.46 L94.95,49.21 L94.23,49.92 L92.26,51.23 L89.65,52.38 L86.48,53.32 L82.84,54.03 L78.83,54.48 L74.52,54.64 L70.21,54.48 L66.20,54.05 L62.57,53.35 L59.40,52.42 L56.78,51.29 L54.81,49.97 L54.09,49.25 L53.56,48.50 L53.24,47.71 L53.13,46.89 L53.24,46.08 L53.56,45.29 L54.09,44.54 L54.81,43.82 L56.78,42.50 L59.40,41.36 L62.57,40.43 L66.20,39.74 L70.21,39.30 L74.52,39.15 L78.83,39.30 L82.84,39.74 L86.48,40.44 L89.65,41.38 L92.26,42.51 L94.23,43.83 L94.95,44.55 L95.48,45.30 L95.81,46.08 L95.92,46.89 Z" fill="#e8e8e8" stroke="#1e1e1e" stroke-width="1" stroke-linejoin="round"/><path d="M90.95,46.27 L90.86,46.78 L90.61,47.27 L89.65,48.20 L88.13,49.04 L86.13,49.77 L83.69,50.37 L80.90,50.83 L77.82,51.11 L74.52,51.21 L71.22,51.12 L68.14,50.83 L65.35,50.38 L62.91,49.78 L60.90,49.05 L59.38,48.21 L58.42,47.28 L58.17,46.78 L58.08,46.27 L58.17,45.77 L58.42,45.27 L59.38,44.35 L60.89,43.51 L62.90,42.79 L65.33,42.19 L68.12,41.75 L71.20,41.47 L74.51,41.37 L77.81,41.47 L80.89,41.75 L83.68,42.21 L86.11,42.81 L88.12,43.53 L89.64,44.37 L90.60,45.29 L90.84,45.77 L90.93,46.27 L90.95,46.27 Z" fill="#50e6ff" stroke="#1e1e1e" stroke-width="1" stroke-linejoin="round"/><path d="M74.52,47.51 L70.13,47.65 L65.78,48.28 L61.54,49.41 L65.79,50.51 L70.13,51.11 L74.52,51.21 L78.92,51.08 L83.26,50.43 L87.50,49.28 L83.25,48.21 L78.91,47.62 L74.52,47.51 L74.52,47.51 Z" fill="#198ab3" stroke="#198ab3" stroke-width="1" stroke-linejoin="round"/><path d="M42.70,47.31 L38.82,49.83 L34.56,51.65 L30.05,52.69 L25.43,52.93 L20.83,52.36 L16.40,51.00 L12.28,48.88 L8.59,46.09 L5.45,42.69 L2.94,38.80 L1.15,34.53 L0.13,30.01 L-0.08,25.38 L0.51,20.79 L1.89,16.37 L4.03,12.26 L6.84,8.59 L10.26,5.46 L10.53,5.27 L14.43,2.82 L18.69,1.09 L23.18,0.12 L27.78,-0.06 L32.33,0.55 L36.71,1.95 L40.79,4.09 L44.43,6.89 L47.53,10.29 L50.00,14.17 L51.75,18.42 L52.75,22.91 L52.95,27.50 L52.36,32.06 L50.99,36.45 L48.87,40.53 L46.08,44.19 L42.70,47.31 L42.70,47.31 Z" fill="#2f8ce2" stroke="#1e1e1e" stroke-width="1" stroke-linejoin="round"/><path d="M19.28,20.87 L23.20,17.59 L27.49,14.83 L32.09,12.64 L36.94,11.04 L41.94,10.06 L47.03,9.72 L44.85,7.34 L42.39,5.24 L37.40,5.83 L32.52,6.97 L27.79,8.66 L23.18,11.02 L18.91,13.96 L15.08,17.45 L16.72,18.27 L18.14,19.43 L19.28,20.87 L19.28,20.87 Z" fill="#ffffff" stroke="#1e1e1e" stroke-width="1" stroke-linejoin="round" opacity="0.6"/><path d="M6.18,31.52 L4.73,35.55 L3.59,39.68 L4.51,41.14 L5.52,42.54 L6.35,43.57 L7.24,44.56 L8.64,39.08 L10.60,33.76 L8.22,32.97 L6.18,31.52 L6.18,31.52 Z" fill="#ffffff" stroke="#ffffff" stroke-width="1" stroke-linejoin="round" opacity="0.6"/><path d="M9.23,17.38 L7.87,12.87 L7.10,8.23 L5.26,10.39 L3.67,12.74 L4.38,16.49 L5.45,20.15 L7.14,18.50 L9.23,17.38 L9.23,17.38 Z" fill="#f2f2f2" stroke="#f2f2f2" stroke-width="1" stroke-linejoin="round" opacity="0.55"/><ellipse cx="12.09" cy="25.39" rx="8.50" ry="8.50" fill="#e4e4e4" stroke="#e4e4e4" stroke-width="1"/><path d="M24.51,40.92 L24.71,39.47 L25.29,38.12 L26.20,36.97 L22.05,34.34 L18.29,31.18 L16.18,32.84 L13.65,33.76 L15.84,35.84 L18.17,37.75 L21.27,39.85 L24.56,41.64 L24.52,41.28 L24.51,40.92 Z" fill="#f2f2f2" stroke="#f2f2f2" stroke-width="1" stroke-linejoin="round" opacity="0.55"/><path d="M44.11,41.56 L39.78,41.32 L35.51,40.57 L35.52,40.74 L35.51,40.91 L35.10,43.00 L33.91,44.77 L39.22,45.48 L44.57,45.52 L46.55,43.54 L48.30,41.35 L46.21,41.52 L44.11,41.56 L44.11,41.56 Z" fill="#f2f2f2" stroke="#f2f2f2" stroke-width="1" stroke-linejoin="round" opacity="0.55"/><ellipse cx="30.00" cy="40.92" rx="5.54" ry="5.54" fill="#e4e4e4" stroke="#e4e4e4" stroke-width="1"/><path d="M36.82,26.16 L37.51,24.45 L38.72,23.05 L33.75,19.13 L29.11,14.82 L24.83,10.16 L21.48,5.77 L18.60,1.07 L16.88,1.65 L15.21,2.37 L18.29,7.49 L21.90,12.26 L26.48,17.30 L31.47,21.94 L36.82,26.16 L36.82,26.16 Z" fill="#f2f2f2" stroke="#1e1e1e" stroke-width="1" stroke-linejoin="round" opacity="0.7"/><ellipse cx="42.61" cy="27.22" rx="5.88" ry="5.88" fill="#ffffff" stroke="#ffffff" stroke-width="1"/><path d="M52.48,31.18 L51.39,30.65 L51.39,30.65 L50.46,30.15 L50.27,30.15 L49.46,29.49 L49.24,29.49 L48.28,28.87 L47.52,30.47 L46.29,31.74 L47.47,32.42 L47.72,32.58 L48.78,33.17 L48.78,33.17 L51.45,34.57 L51.45,34.57 L51.96,32.86 L52.35,31.11 L52.48,31.18 Z" fill="#f2f2f2" stroke="#f2f2f2" stroke-width="1" stroke-linejoin="round" opacity="0.55"/><ellipse cx="12.09" cy="25.39" rx="8.50" ry="8.50" fill="#ffffff" stroke="#ffffff" stroke-width="1"/><ellipse cx="30.00" cy="40.92" rx="5.54" ry="5.54" fill="#ffffff" stroke="#ffffff" stroke-width="1"/><path d="M47.96,79.86 L49.92,79.79 L49.92,86.19 L47.96,86.24 L42.27,85.80 L36.70,84.53 L31.38,82.44 L26.44,79.59 L21.97,76.03 L18.08,71.85 L14.85,67.14 L12.36,62.00 L10.66,56.55 L9.78,50.91 L13.13,52.89 L16.71,54.40 L18.05,59.05 L20.08,63.45 L22.75,67.48 L26.00,71.07 L29.75,74.13 L33.92,76.59 L38.42,78.38 L43.13,79.48 L47.96,79.86 L47.96,79.86 Z" fill="#41d2ee" stroke="#1e1e1e" stroke-width="1" stroke-linejoin="round"/><path d="M50.88,9.77 L52.86,13.12 L54.39,16.70 L58.70,17.92 L62.80,19.73 L66.62,22.09 L70.06,24.97 L73.07,28.29 L75.58,32.01 L77.55,36.04 L81.09,36.31 L84.60,36.81 L82.79,32.04 L80.37,27.56 L77.37,23.44 L73.85,19.75 L69.87,16.56 L65.50,13.93 L60.83,11.90 L55.92,10.50 L50.88,9.77 L50.88,9.77 Z" fill="#41d2ee" stroke="#1e1e1e" stroke-width="1" stroke-linejoin="round"/></svg>