<svg xmlns="http://www.w3.org/2000/svg" viewBox="-2.08 -2.06 100.08 100.05"><path d="M74.59,54.70 L70.27,54.55 L66.25,54.11 L62.61,53.41 L59.44,52.48 L56.83,51.34 L54.86,50.02 L54.14,49.30 L53.61,48.55 L53.28,47.76 L53.17,46.95 L53.17,88.24 L53.28,89.03 L53.60,89.80 L54.12,90.53 L54.83,91.24 L56.77,92.55 L59.34,93.69 L62.47,94.63 L66.05,95.35 L70.02,95.81 L74.28,95.99 L74.59,95.99 L78.90,95.84 L82.92,95.40 L86.55,94.71 L89.72,93.77 L92.34,92.63 L94.32,91.31 L95.04,90.59 L95.56,89.84 L95.89,89.05 L96.00,88.24 L96.00,46.93 L95.89,47.73 L95.56,48.51 L95.04,49.26 L94.32,49.97 L92.34,51.29 L89.72,52.44 L86.55,53.38 L82.92,54.09 L78.90,54.54 L74.59,54.70 Z" fill="#0078d4" stroke="#1e1e1e" stroke-width="1" stroke-linejoin="round"/><path d="M96.00,46.93 L95.89,47.73 L95.56,48.50 L95.04,49.25 L94.32,49.96 L92.34,51.28 L89.72,52.42 L86.55,53.37 L82.92,54.08 L78.90,54.53 L74.59,54.68 L70.27,54.53 L66.26,54.09 L62.62,53.40 L59.45,52.47 L56.83,51.33 L54.86,50.01 L54.14,49.29 L53.61,48.54 L53.28,47.75 L53.17,46.93 L53.28,46.12 L53.61,45.33 L54.14,44.57 L54.86,43.86 L56.83,42.54 L59.45,41.40 L62.62,40.47 L66.26,39.77 L70.27,39.34 L74.59,39.18 L78.90,39.34 L82.92,39.78 L86.55,40.48 L89.72,41.41 L92.34,42.55 L94.32,43.87 L95.04,44.59 L95.56,45.34 L95.89,46.12 L96.00,46.93 Z" fill="#e8e8e8" stroke="#1e1e1e" stroke-width="1" stroke-linejoin="round"/><path d="M91.02,46.31 L90.94,46.82 L90.69,47.31 L89.73,48.24 L88.21,49.08 L86.20,49.81 L83.76,50.42 L80.97,50.87 L77.89,51.16 L74.59,51.26 L71.28,51.16 L68.20,50.87 L65.40,50.42 L62.97,49.82 L60.95,49.09 L59.43,48.25 L58.47,47.32 L58.22,46.82 L58.13,46.31 L58.22,45.81 L58.47,45.31 L59.43,44.39 L60.95,43.55 L62.96,42.83 L65.39,42.23 L68.18,41.78 L71.26,41.50 L74.57,41.40 L77.88,41.50 L80.96,41.79 L83.75,42.24 L86.19,42.84 L88.19,43.57 L89.71,44.40 L90.67,45.33 L90.92,45.81 L91.01,46.31" fill="none" stroke="#1e1e1e" stroke-width="1" stroke-linejoin="round"/><path d="M74.59,47.55 L70.19,47.69 L65.84,48.33 L61.59,49.46 L65.84,50.55 L70.19,51.16 L74.59,51.26 L78.98,51.13 L83.33,50.48 L87.58,49.32 L83.32,48.25 L78.97,47.66 L74.59,47.55 L74.59,47.55 Z" fill="#198ab3" stroke="#198ab3" stroke-width="1" stroke-linejoin="round"/><path d="M42.74,47.35 L38.86,49.88 L34.59,51.69 L30.08,52.73 L25.45,52.97 L20.85,52.40 L16.42,51.04 L12.29,48.93 L8.60,46.13 L5.45,42.73 L2.94,38.83 L1.15,34.55 L0.13,30.03 L-0.08,25.40 L0.51,20.81 L1.90,16.39 L4.03,12.27 L6.85,8.59 L10.27,5.46 L10.54,5.27 L14.44,2.83 L18.70,1.09 L23.20,0.12 L27.80,-0.06 L32.36,0.55 L36.75,1.95 L40.82,4.09 L44.47,6.90 L47.57,10.30 L50.04,14.18 L51.80,18.43 L52.80,22.93 L53.00,27.52 L52.41,32.09 L51.03,36.48 L48.91,40.57 L46.12,44.23 L42.74,47.35" fill="none" stroke="#1e1e1e" stroke-width="1" stroke-linejoin="round"/><path d="M19.30,20.89 L23.22,17.61 L27.51,14.85 L32.12,12.65 L36.97,11.05 L41.98,10.07 L47.07,9.73 L44.89,7.34 L42.43,5.24 L37.44,5.83 L32.54,6.98 L27.81,8.67 L23.20,11.03 L18.93,13.97 L15.09,17.46 L16.73,18.29 L18.16,19.45 L19.30,20.89 L19.30,20.89 Z" fill="#ffffff" stroke="#1e1e1e" stroke-width="1" stroke-linejoin="round" opacity="0.6"/><path d="M6.18,31.55 L4.73,35.58 L3.59,39.71 L4.51,41.18 L5.53,42.58 L6.36,43.61 L7.24,44.60 L8.65,39.11 L10.61,33.79 L8.23,33.00 L6.18,31.55 L6.18,31.55 Z" fill="#ffffff" stroke="#ffffff" stroke-width="1" stroke-linejoin="round" opacity="0.6"/><path d="M9.24,17.40 L7.88,12.88 L7.10,8.23 L5.26,10.40 L3.67,12.75 L4.38,16.50 L5.45,20.17 L7.15,18.51 L9.24,17.40 L9.24,17.40 Z" fill="#f2f2f2" stroke="#f2f2f2" stroke-width="1" stroke-linejoin="round" opacity="0.55"/><ellipse cx="12.10" cy="25.41" rx="8.51" ry="8.51" fill="#e4e4e4" stroke="#e4e4e4" stroke-width="1"/><path d="M24.53,40.96 L24.73,39.50 L25.31,38.15 L26.22,37.00 L22.07,34.36 L18.30,31.21 L16.19,32.87 L13.66,33.79 L15.85,35.87 L18.18,37.78 L21.28,39.89 L24.58,41.67 L24.55,41.32 L24.53,40.96 Z" fill="#f2f2f2" stroke="#f2f2f2" stroke-width="1" stroke-linejoin="round" opacity="0.55"/><path d="M44.14,41.60 L39.81,41.35 L35.54,40.60 L35.55,40.78 L35.54,40.95 L35.13,43.04 L33.94,44.81 L39.25,45.52 L44.61,45.56 L46.59,43.57 L48.34,41.38 L46.25,41.55 L44.14,41.60 L44.14,41.60 Z" fill="#f2f2f2" stroke="#f2f2f2" stroke-width="1" stroke-linejoin="round" opacity="0.55"/><ellipse cx="30.02" cy="40.96" rx="5.55" ry="5.55" fill="#e4e4e4" stroke="#e4e4e4" stroke-width="1"/><path d="M36.85,26.19 L37.54,24.47 L38.75,23.07 L33.78,19.14 L29.13,14.83 L24.85,10.17 L21.49,5.78 L18.62,1.07 L16.89,1.65 L15.22,2.37 L18.31,7.50 L21.92,12.27 L26.51,17.31 L31.49,21.96 L36.85,26.19 L36.85,26.19 Z" fill="#f2f2f2" stroke="#1e1e1e" stroke-width="1" stroke-linejoin="round" opacity="0.7"/><ellipse cx="42.65" cy="27.24" rx="5.89" ry="5.89" fill="#ffffff" stroke="#ffffff" stroke-width="1"/><path d="M52.53,31.21 L51.43,30.67 L51.43,30.67 L50.50,30.18 L50.31,30.18 L49.50,29.52 L49.29,29.52 L48.32,28.90 L47.56,30.49 L46.33,31.77 L47.51,32.45 L47.76,32.61 L48.83,33.20 L48.83,33.20 L51.49,34.60 L51.49,34.60 L52.00,32.89 L52.39,31.14 L52.53,31.21 Z" fill="#f2f2f2" stroke="#f2f2f2" stroke-width="1" stroke-linejoin="round" opacity="0.55"/><ellipse cx="12.10" cy="25.41" rx="8.51" ry="8.51" fill="#ffffff" stroke="#ffffff" stroke-width="1"/><ellipse cx="30.02" cy="40.96" rx="5.55" ry="5.55" fill="#ffffff" stroke="#ffffff" stroke-width="1"/><path d="M48.00,79.93 L49.96,79.86 L49.96,86.26 L48.00,86.31 L42.30,85.88 L36.73,84.60 L31.41,82.51 L26.46,79.66 L21.99,76.10 L18.10,71.91 L14.87,67.20 L12.37,62.06 L10.67,56.60 L9.79,50.95 L13.14,52.93 L16.73,54.45 L18.07,59.10 L20.10,63.50 L22.77,67.54 L26.02,71.13 L29.78,74.19 L33.95,76.65 L38.45,78.45 L43.17,79.55 L48.00,79.93 L48.00,79.93 Z" fill="#41d2ee" stroke="#1e1e1e" stroke-width="1" stroke-linejoin="round"/><path d="M50.92,9.78 L52.91,13.13 L54.43,16.71 L58.75,17.93 L62.86,19.75 L66.67,22.11 L70.12,24.99 L73.13,28.32 L75.64,32.04 L77.62,36.07 L81.16,36.34 L84.68,36.84 L82.86,32.07 L80.44,27.58 L77.43,23.46 L73.91,19.77 L69.93,16.57 L65.56,13.94 L60.88,11.91 L55.97,10.51 L50.92,9.78 L50.92,9.78 Z" fill="#41d2ee" stroke="#1e1e1e" stroke-width="1" stroke-linejoin="round"/></svg>