<svg xmlns="http://www.w3.org/2000/svg" viewBox="9.29 0.82 83.03 100.00"><path d="M90.32,47.64 L90.23,50.05 L89.97,52.42 L88.96,57.06 L87.39,61.55 L85.33,65.87 L82.87,70.00 L80.08,73.94 L77.05,77.65 L73.86,81.13 L70.59,84.36 L67.32,87.31 L61.12,92.35 L55.90,96.11 L52.33,98.45 L51.03,98.82 L49.73,98.45 L46.07,96.10 L40.77,92.34 L34.49,87.30 L31.19,84.34 L27.89,81.11 L24.66,77.63 L21.61,73.91 L18.80,69.98 L16.31,65.84 L14.24,61.53 L12.65,57.04 L11.64,52.41 L11.38,50.04 L11.29,47.64 L11.29,16.60 L11.61,15.37 L12.50,14.46 L13.72,14.11 L17.97,13.88 L21.60,13.45 L24.68,12.84 L27.29,12.09 L29.51,11.22 L31.42,10.27 L34.63,8.23 L37.54,6.23 L39.08,5.32 L40.79,4.50 L42.73,3.81 L45.00,3.28 L47.66,2.94 L50.80,2.82 L53.95,2.94 L56.61,3.28 L58.87,3.81 L60.82,4.50 L62.52,5.32 L64.05,6.23 L66.95,8.23 L70.13,10.27 L72.02,11.22 L74.22,12.09 L76.81,12.84 L79.86,13.45 L83.45,13.88 L87.66,14.11 L88.88,14.46 L89.77,15.37 L90.09,16.60 L90.32,47.64 Z" fill="#1b93eb" stroke="#1e1e1e" stroke-width="1" stroke-linejoin="round"/><path d="M86.82,47.87 L86.49,52.26 L85.58,56.52 L84.14,60.64 L82.25,64.61 L79.99,68.40 L77.43,72.01 L74.66,75.42 L71.73,78.60 L68.73,81.56 L65.74,84.27 L60.05,88.88 L55.27,92.31 L51.99,94.44 L50.80,94.77 L49.62,94.44 L46.34,92.31 L41.56,88.88 L35.87,84.27 L32.87,81.56 L29.88,78.60 L26.95,75.42 L24.17,72.01 L21.62,68.40 L19.36,64.61 L17.47,60.64 L16.03,56.52 L15.11,52.26 L14.79,47.87 L14.79,19.64 L14.93,18.37 L15.72,17.36 L16.93,16.93 L20.79,16.72 L24.08,16.31 L26.87,15.75 L29.23,15.06 L31.23,14.26 L32.96,13.39 L35.86,11.54 L38.51,9.71 L39.92,8.88 L41.49,8.13 L43.30,7.50 L45.40,7.02 L47.88,6.71 L50.80,6.60 L53.73,6.72 L56.21,7.03 L58.31,7.52 L60.10,8.16 L61.67,8.92 L63.08,9.77 L65.73,11.62 L68.62,13.49 L70.35,14.36 L72.36,15.15 L74.72,15.83 L77.51,16.38 L80.80,16.75 L84.67,16.93 L85.77,17.27 L86.57,18.09 L86.87,19.19 L86.82,47.87 Z" fill="#349fed" stroke="#1e1e1e" stroke-width="1" stroke-linejoin="round"/><path d="M61.75,71.80 L59.78,71.36 L58.32,70.64 L57.31,69.64 L56.67,68.38 L56.30,66.86 L56.14,65.09 L56.11,60.85 L44.82,60.85 L44.73,65.09 L44.52,66.86 L44.11,68.38 L43.44,69.64 L42.44,70.64 L41.04,71.36 L39.18,71.80 L37.82,72.24 L36.79,73.23 L36.30,74.57 L65.09,74.57 L64.51,73.10 L63.30,72.10 L61.75,71.80 Z" fill="#1f56a3" stroke="#1e1e1e" stroke-width="1" stroke-linejoin="round"/><path d="M74.34,24.33 L74.80,24.39 L75.22,24.56 L75.58,24.84 L75.86,25.20 L76.03,25.63 L76.09,26.08 L76.09,59.27 L76.03,59.72 L75.86,60.15 L75.58,60.51 L75.22,60.79 L74.80,60.96 L74.34,61.02 L26.02,61.02 L25.57,60.96 L25.15,60.79 L24.79,60.51 L24.51,60.15 L24.33,59.72 L24.27,59.27 L24.27,26.08 L24.33,25.63 L24.51,25.20 L24.79,24.84 L25.15,24.56 L25.57,24.39 L26.02,24.33 L74.34,24.33 Z" fill="#1490df" stroke="#1e1e1e" stroke-width="1" stroke-linejoin="round"/><path d="M72.14,27.21 L72.37,27.24 L72.59,27.33 L72.78,27.47 L72.92,27.66 L73.01,27.88 L73.04,28.11 L73.04,56.73 L73.01,56.96 L72.92,57.18 L72.78,57.37 L72.59,57.51 L72.37,57.60 L72.14,57.63 L28.17,57.63 L27.93,57.60 L27.72,57.51 L27.53,57.37 L27.39,57.18 L27.30,56.96 L27.26,56.73 L27.26,28.11 L27.30,27.88 L27.39,27.66 L27.53,27.47 L27.72,27.33 L27.93,27.24 L28.17,27.21 L72.14,27.21 Z" fill="#ffffff" stroke="#1e1e1e" stroke-width="1" stroke-linejoin="round"/><path d="M59.44,37.09 L59.50,47.76 L50.13,53.17 L50.18,42.45 L59.44,37.09 Z" fill="#0078d4" stroke="#0078d4" stroke-width="1" stroke-linejoin="round"/><path d="M59.44,37.03 L50.18,42.45 L40.87,37.03 L50.13,31.67 L59.44,37.03 Z" fill="#83b9f9" stroke="#83b9f9" stroke-width="1" stroke-linejoin="round"/><path d="M50.18,42.45 L50.13,53.17 L40.81,47.76 L40.81,37.03 L50.18,42.45 Z" fill="#5ea0ef" stroke="#5ea0ef" stroke-width="1" stroke-linejoin="round"/><path d="M50.18,42.39 L50.13,42.45 L50.13,53.17 L50.13,53.17 L59.44,47.76 L50.18,42.39 Z" fill="#5ea0ef" stroke="#5ea0ef" stroke-width="1" stroke-linejoin="round" opacity="0.2"/><path d="M50.07,42.56 L50.13,42.56 L50.13,53.29 L50.13,53.29 L40.81,47.92 L50.07,42.56 Z" fill="#83b9f9" stroke="#83b9f9" stroke-width="1" stroke-linejoin="round" opacity="0.2"/></svg>