<svg xmlns="http://www.w3.org/2000/svg" viewBox="7.70 -1.03 82.55 100.00"><path d="M88.25,45.80 L88.16,48.21 L87.90,50.58 L86.90,55.22 L85.33,59.71 L83.27,64.03 L80.81,68.17 L78.02,72.11 L74.99,75.82 L71.80,79.30 L68.53,82.53 L65.27,85.48 L59.06,90.52 L53.85,94.27 L50.27,96.60 L48.97,96.97 L47.68,96.60 L44.10,94.27 L38.88,90.52 L32.68,85.48 L29.41,82.53 L26.14,79.30 L22.96,75.82 L19.93,72.11 L17.14,68.17 L14.68,64.03 L12.62,59.71 L11.05,55.22 L10.05,50.58 L9.79,48.21 L9.70,45.80 L9.70,14.74 L10.02,13.53 L10.90,12.63 L12.11,12.28 L16.32,12.05 L19.91,11.61 L22.96,10.99 L25.55,10.24 L27.75,9.37 L29.64,8.41 L32.82,6.38 L35.72,4.38 L37.25,3.46 L38.95,2.65 L40.90,1.96 L43.16,1.43 L45.83,1.09 L48.97,0.97 L52.12,1.09 L54.78,1.43 L57.05,1.96 L58.99,2.65 L60.69,3.46 L62.23,4.38 L65.12,6.38 L68.30,8.41 L70.20,9.37 L72.40,10.24 L74.98,10.99 L78.03,11.61 L81.63,12.05 L85.84,12.28 L87.05,12.63 L87.93,13.53 L88.25,14.74 L88.25,45.80 Z" fill="#65a127" stroke="#1e1e1e" stroke-width="1" stroke-linejoin="round"/><path d="M84.99,46.06 L84.67,50.44 L83.75,54.70 L82.31,58.82 L80.42,62.78 L78.16,66.58 L75.61,70.19 L72.83,73.59 L69.91,76.78 L66.91,79.74 L63.91,82.45 L58.23,87.07 L53.45,90.51 L50.16,92.65 L48.98,92.99 L47.79,92.65 L44.51,90.51 L39.73,87.07 L34.04,82.45 L31.04,79.74 L28.05,76.78 L25.12,73.59 L22.35,70.19 L19.79,66.58 L17.53,62.78 L15.65,58.82 L14.21,54.70 L13.29,50.44 L12.97,46.06 L12.97,17.58 L13.26,16.47 L14.07,15.64 L15.18,15.33 L19.04,15.11 L22.33,14.71 L25.13,14.15 L27.50,13.45 L29.51,12.66 L31.25,11.78 L34.16,9.92 L36.82,8.08 L38.22,7.24 L39.78,6.49 L41.57,5.86 L43.65,5.38 L46.09,5.07 L48.97,4.96 L51.86,5.07 L54.30,5.38 L56.38,5.86 L58.16,6.50 L59.72,7.25 L61.13,8.09 L63.79,9.93 L66.70,11.79 L68.44,12.67 L70.45,13.46 L72.83,14.16 L75.62,14.72 L78.92,15.12 L82.78,15.33 L83.89,15.64 L84.70,16.47 L84.99,17.58 L84.99,46.06 Z" fill="#6cab29" stroke="#1e1e1e" stroke-width="1" stroke-linejoin="round"/><path d="M66.51,55.24 L31.44,55.24 L30.02,55.53 L28.81,56.33 L28.00,57.54 L27.72,58.96 L27.72,63.58 L27.90,64.02 L28.34,64.20 L69.61,64.20 L70.05,64.02 L70.23,63.58 L70.23,58.96 L69.94,57.54 L69.14,56.33 L67.93,55.53 L66.51,55.24 L66.51,55.24 Z" fill="#ffffff" stroke="#1e1e1e" stroke-width="1" stroke-linejoin="round"/><path d="M66.35,68.80 L31.59,68.80 L31.28,68.93 L31.15,69.24 L31.15,71.57 L31.51,72.89 L32.48,73.86 L33.80,74.22 L64.14,74.22 L65.47,73.86 L66.44,72.89 L66.79,71.57 L66.79,69.24 L66.67,68.93 L66.35,68.80 Z" fill="#ffffff" stroke="#ffffff" stroke-width="1" stroke-linejoin="round"/><path d="M57.05,34.98 L58.71,32.89 L59.37,32.06 L59.88,31.17 L60.21,30.05 L60.33,28.57 L60.21,26.55 L59.82,23.86 L59.47,22.41 L58.97,21.14 L58.33,20.04 L57.58,19.11 L55.84,17.65 L53.95,16.69 L52.10,16.10 L50.48,15.81 L48.71,15.69 L46.93,15.81 L45.31,16.10 L43.46,16.68 L41.57,17.65 L39.84,19.10 L39.09,20.04 L38.45,21.14 L37.94,22.40 L37.59,23.86 L37.21,26.56 L37.09,28.57 L37.21,30.06 L37.53,31.17 L38.04,32.07 L38.70,32.90 L40.36,34.98 L41.66,40.04 L42.41,45.21 L42.60,50.43 L54.82,50.43 L55.00,45.21 L55.75,40.04 L57.05,34.98 L57.05,34.98 Z" fill="#ffffff" stroke="#1e1e1e" stroke-width="1" stroke-linejoin="round"/></svg>