<svg xmlns="http://www.w3.org/2000/svg" viewBox="7.50 -1.05 80.99 98.09"><path d="M86.50,44.89 L86.41,47.25 L86.15,49.57 L85.17,54.12 L83.63,58.53 L81.61,62.76 L79.20,66.82 L76.47,70.67 L73.50,74.31 L70.37,77.72 L67.17,80.89 L63.97,83.78 L57.89,88.72 L52.78,92.40 L49.27,94.68 L48.00,95.05 L46.73,94.68 L43.22,92.40 L38.11,88.72 L32.03,83.78 L28.83,80.89 L25.63,77.72 L22.50,74.31 L19.53,70.67 L16.80,66.82 L14.39,62.76 L12.37,58.53 L10.83,54.12 L9.85,49.57 L9.59,47.25 L9.50,44.89 L9.50,14.45 L9.82,13.26 L10.68,12.38 L11.87,12.04 L16.00,11.81 L19.52,11.38 L22.51,10.77 L25.04,10.03 L27.20,9.18 L29.05,8.25 L32.17,6.25 L35.01,4.29 L36.51,3.40 L38.18,2.60 L40.09,1.92 L42.31,1.40 L44.92,1.07 L48.00,0.95 L51.08,1.07 L53.69,1.40 L55.91,1.92 L57.82,2.60 L59.49,3.40 L60.99,4.29 L63.83,6.25 L66.95,8.25 L68.80,9.18 L70.96,10.03 L73.49,10.77 L76.48,11.38 L80.00,11.81 L84.13,12.04 L85.32,12.38 L86.18,13.26 L86.50,14.45 L86.50,44.89 Z" fill="#65a127" stroke="#1e1e1e" stroke-width="1" stroke-linejoin="round"/><path d="M83.30,45.15 L82.98,49.44 L82.08,53.61 L80.67,57.65 L78.82,61.54 L76.61,65.26 L74.11,68.79 L71.39,72.13 L68.52,75.26 L65.58,78.16 L62.64,80.82 L57.07,85.34 L52.38,88.71 L49.17,90.81 L48.01,91.14 L46.84,90.81 L43.63,88.71 L38.94,85.34 L33.36,80.82 L30.43,78.16 L27.49,75.26 L24.62,72.13 L21.90,68.79 L19.40,65.26 L17.19,61.54 L15.34,57.65 L13.93,53.61 L13.03,49.44 L12.71,45.15 L12.71,17.23 L13.00,16.14 L13.79,15.33 L14.87,15.02 L18.66,14.81 L21.89,14.42 L24.63,13.87 L26.95,13.19 L28.93,12.40 L30.63,11.55 L33.48,9.72 L36.08,7.92 L37.47,7.10 L38.99,6.36 L40.74,5.75 L42.78,5.27 L45.17,4.97 L48.00,4.86 L50.83,4.97 L53.22,5.27 L55.26,5.75 L57.01,6.37 L58.54,7.10 L59.92,7.93 L62.52,9.73 L65.38,11.56 L67.08,12.42 L69.05,13.20 L71.38,13.88 L74.12,14.42 L77.35,14.82 L81.14,15.02 L82.22,15.33 L83.01,16.14 L83.30,17.23 L83.30,45.15 Z" fill="#6cab29" stroke="#1e1e1e" stroke-width="1" stroke-linejoin="round"/><path d="M65.18,54.14 L30.82,54.14 L29.42,54.42 L28.24,55.21 L27.45,56.40 L27.17,57.79 L27.17,62.31 L27.35,62.74 L27.78,62.92 L68.22,62.92 L68.65,62.74 L68.83,62.31 L68.83,57.79 L68.55,56.40 L67.76,55.21 L66.58,54.42 L65.18,54.14 L65.18,54.14 Z" fill="#ffffff" stroke="#1e1e1e" stroke-width="1" stroke-linejoin="round"/><path d="M65.03,67.43 L30.97,67.43 L30.66,67.56 L30.53,67.86 L30.53,70.14 L30.88,71.44 L31.83,72.39 L33.13,72.74 L62.87,72.74 L64.17,72.39 L65.12,71.44 L65.47,70.14 L65.47,67.86 L65.34,67.56 L65.03,67.43 L65.03,67.43 Z" fill="#ffffff" stroke="#ffffff" stroke-width="1" stroke-linejoin="round"/><path d="M55.91,34.28 L57.55,32.24 L58.19,31.43 L58.69,30.55 L59.01,29.46 L59.13,28.00 L59.01,26.02 L58.63,23.38 L58.29,21.96 L57.80,20.72 L57.17,19.65 L56.43,18.73 L54.73,17.30 L52.88,16.36 L51.07,15.78 L49.48,15.50 L47.74,15.38 L46.00,15.49 L44.41,15.78 L42.60,16.35 L40.75,17.30 L39.05,18.72 L38.31,19.64 L37.68,20.72 L37.18,21.96 L36.84,23.38 L36.47,26.03 L36.35,28.00 L36.47,29.46 L36.79,30.55 L37.28,31.43 L37.93,32.24 L39.56,34.28 L40.84,39.24 L41.57,44.31 L41.75,49.42 L53.73,49.42 L53.91,44.31 L54.64,39.24 L55.91,34.28 L55.91,34.28 Z" fill="#ffffff" stroke="#1e1e1e" stroke-width="1" stroke-linejoin="round"/></svg>