<svg xmlns="http://www.w3.org/2000/svg" viewBox="9.81 -2.00 76.12 100.00"><path d="M80.10,46.11 L74.78,46.11 L74.78,29.73 L74.47,25.18 L73.49,20.73 L71.87,16.47 L69.64,12.49 L66.85,8.88 L63.70,5.80 L60.07,3.30 L56.05,1.47 L51.78,0.36 L47.39,0.00 L42.95,0.33 L38.63,1.43 L34.57,3.26 L30.89,5.77 L27.71,8.88 L24.90,12.48 L22.66,16.45 L21.04,20.72 L20.07,25.18 L19.79,29.73 L19.79,46.11 L15.48,46.11 L14.08,46.41 L12.90,47.20 L12.10,48.39 L11.81,49.78 L11.81,92.33 L12.10,93.73 L12.90,94.91 L14.08,95.71 L15.48,96.00 L80.10,96.00 L81.50,95.71 L82.70,94.91 L83.51,93.73 L83.82,92.33 L83.82,49.78 L83.51,48.38 L82.70,47.20 L81.50,46.40 L80.10,46.11 Z" fill="#29b9dd" stroke="#1e1e1e" stroke-width="1" stroke-linejoin="round"/><path d="M62.17,46.11 L32.60,46.11 L32.60,29.46 L32.93,26.33 L33.84,23.31 L35.29,20.51 L37.23,18.03 L39.30,16.11 L41.74,14.67 L44.42,13.77 L47.23,13.46 L50.05,13.77 L52.74,14.67 L55.19,16.11 L57.28,18.03 L58.18,19.14 L58.98,20.32 L58.98,20.32 L60.68,23.10 L61.78,26.18 L62.23,29.41 L62.17,46.11 Z" fill="#ffffff" stroke="#1e1e1e" stroke-width="1" stroke-linejoin="round"/><path d="M80.26,46.11 L15.53,46.11 L14.28,46.35 L13.19,47.02 L82.60,94.88 L83.58,93.65 L83.93,92.12 L83.93,49.57 L83.56,48.25 L82.75,47.14 L81.60,46.39 L80.26,46.11 Z" fill="#50e6ff" stroke="#1e1e1e" stroke-width="1" stroke-linejoin="round"/><path d="M15.64,46.11 L80.31,46.11 L81.59,46.35 L82.70,47.02 L13.24,94.88 L12.28,93.64 L11.91,92.12 L11.91,49.57 L12.29,48.24 L13.12,47.13 L14.28,46.39 L15.64,46.11 L15.64,46.11 Z" fill="#ffffff" stroke="#1e1e1e" stroke-width="1" stroke-linejoin="round" opacity="0.2"/><path d="M60.74,87.22 L27.66,70.74 L60.74,54.41 L62.23,57.49 L35.37,70.74 L62.23,84.19 L60.74,87.22 Z" fill="#198ab3" stroke="#1e1e1e" stroke-width="1" stroke-linejoin="round"/><ellipse cx="31.59" cy="70.84" rx="6.65" ry="6.65" fill="#e4e4e4" stroke="#e4e4e4" stroke-width="1"/><ellipse cx="61.22" cy="56.59" rx="6.65" ry="6.65" fill="#e4e4e4" stroke="#e4e4e4" stroke-width="1"/><ellipse cx="61.22" cy="85.68" rx="6.65" ry="6.65" fill="#e4e4e4" stroke="#e4e4e4" stroke-width="1"/></svg>