<svg xmlns="http://www.w3.org/2000/svg" viewBox="8.67 0.67 78.67 94.70"><path d="M85.33,45.01 L85.25,47.28 L85.00,49.53 L84.05,53.91 L82.57,58.15 L80.62,62.23 L78.30,66.14 L75.66,69.86 L72.80,73.37 L69.79,76.65 L66.70,79.70 L63.61,82.49 L57.75,87.25 L52.82,90.80 L49.44,93.01 L48.21,93.37 L46.99,93.01 L43.53,90.80 L38.52,87.25 L32.59,82.48 L29.47,79.68 L26.35,76.63 L23.30,73.34 L20.41,69.83 L17.76,66.12 L15.41,62.21 L13.45,58.13 L11.96,53.89 L11.00,49.52 L10.75,47.28 L10.67,45.01 L10.67,15.68 L10.97,14.52 L11.81,13.67 L12.96,13.33 L16.98,13.12 L20.41,12.71 L23.32,12.13 L25.78,11.42 L27.88,10.60 L29.69,9.70 L32.72,7.78 L35.47,5.89 L36.93,5.02 L38.53,4.25 L40.37,3.60 L42.51,3.10 L45.03,2.78 L48.00,2.67 L50.97,2.78 L53.49,3.10 L55.63,3.60 L57.46,4.25 L59.07,5.02 L60.52,5.89 L63.25,7.78 L66.26,9.70 L68.05,10.60 L70.12,11.42 L72.57,12.13 L75.45,12.71 L78.84,13.12 L82.83,13.33 L83.98,13.67 L84.81,14.52 L85.12,15.68 L85.33,45.01 Z" fill="#1b93eb" stroke="#1e1e1e" stroke-width="1" stroke-linejoin="round"/><path d="M82.03,45.23 L81.72,49.37 L80.85,53.40 L79.49,57.29 L77.71,61.04 L75.58,64.63 L73.16,68.04 L70.54,71.25 L67.77,74.27 L64.94,77.06 L62.11,79.62 L56.74,83.97 L52.22,87.21 L49.12,89.23 L48.00,89.54 L46.88,89.23 L43.78,87.21 L39.26,83.97 L33.89,79.62 L31.06,77.06 L28.23,74.27 L25.46,71.25 L22.84,68.04 L20.42,64.63 L18.29,61.04 L16.51,57.29 L15.15,53.40 L14.28,49.37 L13.97,45.23 L13.97,18.56 L14.10,17.35 L14.86,16.40 L16.00,16.00 L19.65,15.79 L22.75,15.41 L25.39,14.88 L27.61,14.23 L29.51,13.48 L31.14,12.65 L33.88,10.90 L36.38,9.17 L37.72,8.39 L39.20,7.68 L40.91,7.09 L42.89,6.64 L45.23,6.34 L48.00,6.24 L50.76,6.35 L53.10,6.64 L55.09,7.11 L56.79,7.71 L58.27,8.43 L59.60,9.23 L62.10,10.98 L64.84,12.75 L66.47,13.57 L68.36,14.32 L70.60,14.96 L73.23,15.47 L76.34,15.83 L80.00,16.00 L81.03,16.32 L81.79,17.09 L82.08,18.13 L82.03,45.23 Z" fill="#349fed" stroke="#1e1e1e" stroke-width="1" stroke-linejoin="round"/><path d="M48.00,34.83 L51.10,35.16 L54.07,36.10 L56.79,37.63 L59.15,39.68 L61.04,42.16 L62.39,44.97 L63.15,48.00 L63.64,49.11 L64.58,49.87 L65.76,50.13 L73.23,50.13 L74.62,49.77 L75.61,48.72 L75.89,47.31 L74.97,42.57 L73.24,38.06 L70.77,33.92 L67.63,30.26 L63.90,27.19 L59.71,24.81 L55.17,23.18 L50.41,22.35 L45.59,22.35 L40.83,23.18 L36.29,24.81 L32.10,27.19 L28.37,30.26 L25.23,33.92 L22.76,38.06 L21.03,42.57 L20.11,47.31 L20.39,48.72 L21.38,49.77 L22.77,50.13 L30.24,50.13 L31.42,49.87 L32.36,49.11 L32.85,48.00 L33.61,44.97 L34.96,42.16 L36.85,39.68 L39.21,37.63 L41.93,36.10 L44.90,35.16 L48.00,34.83 L48.00,34.83 Z" fill="#c3f1ff" stroke="#1e1e1e" stroke-width="1" stroke-linejoin="round"/><ellipse cx="48.00" cy="50.13" rx="10.19" ry="10.19" fill="#ffffff" stroke="#1e1e1e" stroke-width="1"/></svg>