<svg xmlns="http://www.w3.org/2000/svg" viewBox="2.65 -2.00 90.70 100.00"><path d="M55.16,39.47 L59.05,46.22 L59.79,46.96 L60.80,47.23 L68.59,47.23 L69.60,46.96 L70.35,46.22 L74.24,39.47 L74.51,38.46 L74.24,37.45 L70.35,30.71 L69.60,29.96 L68.59,29.69 L60.80,29.69 L59.79,29.96 L59.05,30.71 L55.16,37.45 L54.88,38.46 L55.16,39.47 L55.16,39.47 Z" fill="#006cbf" stroke="#1e1e1e" stroke-width="1" stroke-linejoin="round"/><path d="M70.34,49.98 L69.60,49.24 L68.59,48.97 L60.80,48.97 L59.78,49.24 L59.04,49.98 L55.15,56.72 L54.88,57.73 L55.15,58.75 L59.04,65.49 L59.78,66.23 L60.80,66.51 L68.59,66.51 L69.60,66.23 L70.34,65.49 L74.23,58.75 L74.51,57.74 L74.23,56.72 L70.34,49.98 Z" fill="#006cbf" stroke="#1e1e1e" stroke-width="1" stroke-linejoin="round"/><path d="M25.66,46.22 L26.40,46.96 L27.41,47.23 L35.20,47.23 L36.22,46.96 L36.96,46.22 L40.85,39.48 L41.12,38.47 L40.85,37.45 L36.96,30.71 L36.22,29.97 L35.20,29.70 L27.41,29.70 L26.40,29.97 L25.66,30.71 L21.77,37.45 L21.49,38.46 L21.77,39.48 L25.66,46.22 Z" fill="#006cbf" stroke="#1e1e1e" stroke-width="1" stroke-linejoin="round"/><path d="M40.84,56.73 L36.95,49.99 L36.21,49.25 L35.20,48.97 L27.41,48.97 L26.40,49.24 L25.65,49.99 L21.76,56.73 L21.49,57.74 L21.76,58.76 L25.65,65.50 L26.40,66.24 L27.41,66.51 L35.20,66.51 L36.21,66.24 L36.95,65.50 L40.84,58.76 L41.12,57.74 L40.84,56.73 Z" fill="#006cbf" stroke="#1e1e1e" stroke-width="1" stroke-linejoin="round"/><path d="M53.65,59.83 L52.90,59.09 L51.89,58.81 L44.10,58.81 L43.09,59.08 L42.35,59.83 L38.46,66.57 L38.18,67.58 L38.46,68.60 L42.35,75.34 L43.09,76.08 L44.10,76.35 L51.89,76.35 L52.90,76.08 L53.65,75.34 L57.54,68.60 L57.81,67.58 L57.54,66.57 L53.65,59.83 L53.65,59.83 Z" fill="#006cbf" stroke="#1e1e1e" stroke-width="1" stroke-linejoin="round"/><path d="M42.35,36.27 L43.10,37.01 L44.11,37.29 L51.90,37.29 L52.91,37.02 L53.65,36.27 L57.54,29.53 L57.82,28.52 L57.54,27.51 L53.65,20.76 L52.91,20.02 L51.90,19.75 L44.11,19.75 L43.10,20.02 L42.35,20.76 L38.46,27.51 L38.19,28.52 L38.46,29.53 L42.35,36.27 L42.35,36.27 Z" fill="#006cbf" stroke="#1e1e1e" stroke-width="1" stroke-linejoin="round"/><path d="M24.30,47.02 L20.35,40.17 L19.60,39.42 L18.57,39.14 L10.66,39.14 L9.63,39.42 L8.88,40.17 L4.93,47.02 L4.65,48.04 L4.93,49.07 L8.88,55.91 L9.63,56.67 L10.66,56.94 L18.57,56.94 L19.60,56.67 L20.35,55.91 L24.30,49.07 L24.58,48.04 L24.30,47.02 Z" fill="#50e6ff" stroke="#1e1e1e" stroke-width="1" stroke-linejoin="round"/><path d="M42.27,16.77 L43.02,17.53 L44.05,17.80 L51.95,17.80 L52.98,17.53 L53.74,16.77 L57.69,9.93 L57.96,8.90 L57.69,7.88 L53.74,1.03 L52.98,0.28 L51.95,0.00 L44.05,0.00 L43.02,0.27 L42.27,1.03 L38.32,7.87 L38.04,8.90 L38.32,9.93 L42.27,16.77 L42.27,16.77 Z" fill="#50e6ff" stroke="#1e1e1e" stroke-width="1" stroke-linejoin="round"/><path d="M91.07,47.02 L87.12,40.17 L86.37,39.42 L85.34,39.14 L77.43,39.14 L76.40,39.42 L75.65,40.17 L71.70,47.02 L71.42,48.04 L71.70,49.07 L75.65,55.91 L76.40,56.67 L77.43,56.94 L85.34,56.94 L86.37,56.67 L87.12,55.91 L91.07,49.07 L91.35,48.04 L91.07,47.02 Z" fill="#50e6ff" stroke="#1e1e1e" stroke-width="1" stroke-linejoin="round"/><path d="M40.99,76.23 L37.04,69.39 L36.29,68.64 L35.26,68.36 L27.36,68.36 L26.33,68.64 L25.57,69.39 L21.62,76.23 L21.35,77.26 L21.62,78.29 L25.57,85.13 L26.33,85.88 L27.36,86.16 L35.26,86.16 L36.29,85.88 L37.04,85.13 L40.99,78.29 L41.27,77.26 L40.99,76.23 L40.99,76.23 Z" fill="#50e6ff" stroke="#1e1e1e" stroke-width="1" stroke-linejoin="round"/><path d="M74.38,17.90 L70.43,11.06 L69.67,10.30 L68.64,10.03 L60.74,10.03 L59.71,10.30 L58.96,11.06 L55.01,17.90 L54.73,18.93 L55.01,19.95 L58.96,26.80 L59.71,27.55 L60.74,27.83 L68.64,27.83 L69.67,27.55 L70.43,26.80 L74.38,19.95 L74.65,18.93 L74.38,17.90 L74.38,17.90 Z" fill="#50e6ff" stroke="#1e1e1e" stroke-width="1" stroke-linejoin="round"/><path d="M53.73,79.23 L52.98,78.48 L51.95,78.20 L44.05,78.20 L43.02,78.48 L42.26,79.23 L38.31,86.07 L38.04,87.10 L38.31,88.13 L42.26,94.97 L43.02,95.72 L44.05,96.00 L51.95,96.00 L52.98,95.73 L53.73,94.97 L57.68,88.13 L57.96,87.10 L57.68,86.07 L53.73,79.23 L53.73,79.23 Z" fill="#50e6ff" stroke="#1e1e1e" stroke-width="1" stroke-linejoin="round"/><path d="M53.73,40.17 L52.98,39.41 L51.95,39.14 L44.05,39.14 L43.02,39.41 L42.26,40.17 L38.31,47.01 L38.04,48.04 L38.31,49.06 L42.26,55.91 L43.02,56.66 L44.05,56.94 L51.95,56.94 L52.98,56.66 L53.73,55.91 L57.68,49.06 L57.96,48.04 L57.68,47.01 L53.73,40.17 Z" fill="#50e6ff" stroke="#1e1e1e" stroke-width="1" stroke-linejoin="round"/><path d="M87.01,37.54 L86.23,34.97 L85.29,32.48 L84.19,30.07 L82.95,27.74 L81.56,25.51 L80.03,23.38 L78.37,21.35 L76.58,19.44 L76.42,20.22 L76.11,20.95 L74.63,23.50 L77.16,26.54 L79.35,29.85 L81.17,33.39 L82.60,37.15 L85.34,37.15 L86.20,37.26 L87.00,37.54 L87.01,37.54 Z" fill="#005ba1" stroke="#005ba1" stroke-width="1" stroke-linejoin="round"/><path d="M21.41,72.63 L18.87,69.58 L16.67,66.26 L14.84,62.71 L13.41,58.94 L10.67,58.94 L9.81,58.83 L9.00,58.54 L9.78,61.11 L10.73,63.61 L11.82,66.02 L13.07,68.35 L14.46,70.59 L15.99,72.72 L17.65,74.74 L19.44,76.65 L19.90,75.24 L21.41,72.63 L21.41,72.63 Z" fill="#005ba1" stroke="#005ba1" stroke-width="1" stroke-linejoin="round"/><path d="M10.67,37.15 L13.41,37.15 L15.03,32.95 L17.14,29.02 L19.70,25.41 L22.67,22.13 L26.01,19.24 L29.70,16.77 L33.68,14.75 L37.92,13.23 L36.59,10.92 L36.28,10.18 L36.12,9.40 L33.68,10.24 L31.31,11.22 L29.02,12.36 L26.81,13.62 L22.68,16.55 L18.96,19.97 L15.68,23.82 L12.90,28.06 L11.71,30.32 L10.66,32.65 L9.76,35.07 L9.00,37.55 L9.81,37.26 L10.67,37.15 L10.67,37.15 Z" fill="#005ba1" stroke="#1e1e1e" stroke-width="1" stroke-linejoin="round"/><path d="M85.34,58.94 L82.60,58.94 L80.98,63.13 L78.87,67.05 L76.32,70.67 L73.35,73.94 L70.01,76.83 L66.33,79.30 L62.36,81.32 L58.12,82.85 L59.41,85.08 L59.74,85.86 L59.90,86.69 L62.34,85.85 L64.71,84.86 L67.00,83.73 L69.20,82.46 L73.33,79.53 L77.06,76.12 L80.33,72.27 L83.11,68.03 L84.30,65.77 L85.35,63.44 L86.25,61.02 L87.00,58.54 L86.20,58.83 L85.34,58.94 L85.34,58.94 Z" fill="#005ba1" stroke="#1e1e1e" stroke-width="1" stroke-linejoin="round"/></svg>