<svg xmlns="http://www.w3.org/2000/svg" viewBox="-2.00 -2.00 100.00 100.00"><path d="M68.53,12.04 L48.00,24.09 L27.47,12.04 L48.00,0.00 L68.53,12.04 Z" fill="#b796f9" stroke="#1e1e1e" stroke-width="1" stroke-linejoin="round"/><path d="M32.80,55.19 L28.91,52.90 L20.55,48.00 L0.00,59.99 L20.53,72.04 L41.07,59.99 L32.80,55.19 Z" fill="#b796f9" stroke="#1e1e1e" stroke-width="1" stroke-linejoin="round"/><path d="M75.47,47.99 L67.09,52.90 L63.20,55.19 L54.93,59.99 L71.52,69.75 L75.47,72.04 L77.39,70.92 L96.00,59.99 L75.47,47.99 Z" fill="#b796f9" stroke="#1e1e1e" stroke-width="1" stroke-linejoin="round"/><path d="M48.00,24.10 L48.00,48.00 L39.68,43.15 L35.79,40.85 L27.47,36.00 L27.47,12.04 L46.08,22.98 L48.00,24.10 Z" fill="#a67af4" stroke="#1e1e1e" stroke-width="1" stroke-linejoin="round"/><path d="M0.00,60.02 L0.00,83.96 L20.55,96.00 L20.55,72.07 L0.00,60.02 Z" fill="#a67af4" stroke="#1e1e1e" stroke-width="1" stroke-linejoin="round"/><path d="M71.54,69.75 L71.54,69.70 L54.95,59.99 L54.95,83.99 L75.49,96.00 L75.49,72.05 L71.54,69.75 Z" fill="#a67af4" stroke="#1e1e1e" stroke-width="1" stroke-linejoin="round"/><path d="M64.43,71.95 L65.87,73.27 L66.78,75.00 L67.06,76.93 L66.69,77.95 L65.73,78.46 L65.61,78.46 L66.70,83.33 L67.03,84.81 L66.93,85.43 L66.70,85.52 L66.40,85.43 L65.66,85.01 L64.92,84.58 L62.35,83.10 L61.83,82.50 L61.71,81.71 L63.11,77.25 L63.01,76.84 L62.01,75.09 L61.74,73.10 L61.92,72.36 L62.27,71.85 L62.79,71.59 L63.47,71.58 L63.97,71.72 L64.43,71.95 Z" fill="#6635bb" stroke="#6635bb" stroke-width="1" stroke-linejoin="round"/><path d="M68.55,12.04 L68.55,35.99 L60.23,40.84 L56.34,43.14 L48.00,48.00 L48.00,24.04 L68.55,12.04 Z" fill="#773adc" stroke="#773adc" stroke-width="1" stroke-linejoin="round"/><path d="M24.50,69.70 L24.50,69.75 L20.55,72.04 L20.55,96.00 L41.09,84.00 L41.09,60.00 L24.50,69.70 Z" fill="#773adc" stroke="#773adc" stroke-width="1" stroke-linejoin="round"/><path d="M75.49,72.03 L75.49,96.00 L96.00,83.96 L96.00,60.02 L75.49,72.03 Z" fill="#773adc" stroke="#773adc" stroke-width="1" stroke-linejoin="round"/><path d="M41.07,69.80 L41.07,74.34 L54.93,74.34 L54.93,69.80 L41.07,69.80 Z" fill="#773adc" stroke="#773adc" stroke-width="1" stroke-linejoin="round"/><path d="M35.79,40.84 L28.91,52.90 L32.80,55.19 L39.68,43.14 L35.79,40.84 Z" fill="#773adc" stroke="#773adc" stroke-width="1" stroke-linejoin="round"/><path d="M60.21,40.84 L56.32,43.14 L63.20,55.19 L67.09,52.90 L60.21,40.84 Z" fill="#773adc" stroke="#773adc" stroke-width="1" stroke-linejoin="round"/><path d="M36.97,24.00 L38.40,25.33 L39.31,27.05 L39.59,28.99 L39.22,30.00 L38.27,30.51 L38.14,30.51 L39.24,35.38 L39.57,36.86 L39.46,37.45 L39.24,37.56 L38.93,37.48 L38.19,37.06 L37.46,36.63 L34.88,35.14 L34.37,34.53 L34.25,33.75 L35.64,29.29 L35.54,28.87 L34.55,27.13 L34.27,25.14 L34.45,24.39 L34.81,23.89 L35.33,23.63 L36.01,23.62 L36.51,23.77 L36.97,24.00 Z" fill="#6635bb" stroke="#6635bb" stroke-width="1" stroke-linejoin="round"/><path d="M9.50,71.95 L10.94,73.27 L11.84,75.00 L12.12,76.93 L11.75,77.95 L10.81,78.46 L10.67,78.46 L11.77,83.33 L12.10,84.81 L12.12,85.19 L12.00,85.43 L11.77,85.52 L11.47,85.43 L10.73,85.01 L9.99,84.58 L7.41,83.10 L6.90,82.50 L6.78,81.71 L8.18,77.25 L8.07,76.84 L7.08,75.09 L6.81,73.10 L6.99,72.36 L7.34,71.85 L7.86,71.59 L8.54,71.58 L9.04,71.72 L9.50,71.95 Z" fill="#6635bb" stroke="#6635bb" stroke-width="1" stroke-linejoin="round"/></svg>