<svg xmlns="http://www.w3.org/2000/svg" viewBox="7.61 1.90 78.21 102.76"><path d="M68.01,42.67 L73.86,42.19 L74.81,42.30 L75.63,42.75 L76.21,43.48 L76.47,44.41 L76.36,45.37 L75.90,46.18 L75.17,46.76 L74.24,47.03 L67.40,47.59 L66.45,47.48 L65.63,47.02 L58.23,40.74 L57.80,40.23 L57.52,39.60 L57.40,38.93 L57.45,38.31 L59.70,29.21 L53.45,23.90 L52.85,23.14 L52.60,22.24 L52.71,21.32 L53.17,20.47 L53.93,19.87 L54.83,19.62 L55.75,19.72 L56.60,20.19 L62.85,25.50 L71.47,21.82 L72.06,21.67 L72.72,21.67 L73.39,21.84 L73.99,22.20 L81.38,28.49 L81.97,29.23 L82.23,30.15 L82.77,36.99 L82.66,37.95 L82.20,38.76 L81.47,39.35 L80.55,39.61 L79.59,39.50 L78.78,39.05 L78.20,38.32 L77.93,37.39 L77.47,31.55 L71.98,26.88 L64.48,30.09 L62.53,38.00 L68.01,42.67 Z" fill="#0077d2" stroke="#1e1e1e" stroke-width="1" stroke-linejoin="round"/><path d="M61.82,65.77 L61.76,65.72 L58.81,63.30 L54.56,60.22 L52.30,58.77 L50.14,57.56 L48.22,56.74 L46.67,56.43 L32.72,67.84 L38.15,75.46 L38.10,76.49 L38.10,88.34 L38.32,89.46 L38.93,90.37 L39.83,90.98 L40.96,91.20 L63.82,91.20 L64.94,90.98 L65.85,90.37 L66.45,89.46 L66.68,88.34 L66.68,76.49 L66.59,74.94 L66.35,73.42 L65.95,71.96 L65.40,70.55 L64.71,69.22 L63.88,67.97 L62.91,66.82 L61.82,65.77 Z" fill="#0077d2" stroke="#1e1e1e" stroke-width="1" stroke-linejoin="round"/><path d="M54.51,27.49 L38.45,44.52 L37.68,45.11 L36.77,45.39 L35.76,45.35 L34.81,44.95 L26.27,39.33 L25.38,38.85 L24.43,38.55 L23.45,38.42 L22.47,38.46 L21.51,38.66 L20.58,39.03 L19.72,39.55 L18.95,40.24 L18.02,40.88 L16.96,41.12 L15.88,40.94 L14.92,40.34 L14.27,39.41 L14.03,38.34 L14.20,37.26 L14.80,36.29 L39.87,9.58 L39.88,9.57 L40.81,8.92 L41.88,8.68 L42.96,8.86 L43.92,9.46 L44.68,10.47 L44.86,11.43 L44.63,12.38 L44.12,13.35 L42.94,15.52 L42.57,16.79 L42.56,18.23 L42.84,19.36 L43.32,20.38 L43.98,21.27 L44.79,22.01 L45.73,22.58 L46.76,22.97 L47.87,23.15 L49.03,23.10 L52.03,22.68 L52.92,22.69 L53.74,22.97 L54.44,23.48 L54.97,24.20 L55.25,25.05 L55.26,25.92 L55.01,26.75 L54.51,27.49 Z" fill="#0077d2" stroke="#1e1e1e" stroke-width="1" stroke-linejoin="round"/><path d="M69.53,85.47 L35.23,85.47 L32.36,85.76 L29.68,86.60 L27.25,87.92 L25.13,89.67 L23.39,91.80 L22.07,94.23 L21.24,96.92 L20.94,99.80 L21.17,100.92 L21.78,101.83 L22.69,102.44 L23.80,102.67 L80.96,102.67 L82.07,102.44 L82.98,101.83 L83.59,100.92 L83.82,99.80 L83.53,96.92 L82.69,94.23 L81.37,91.80 L79.63,89.67 L77.51,87.92 L75.09,86.60 L72.40,85.76 L69.53,85.47 Z" fill="#3990e4" stroke="#1e1e1e" stroke-width="1" stroke-linejoin="round"/><path d="M62.31,67.21 L60.24,65.68 L57.95,64.56 L55.50,63.87 L52.93,63.64 L50.30,63.88 L47.78,64.61 L45.44,65.78 L43.33,67.37 L41.52,69.35 L40.08,71.69 L39.06,74.36 L38.54,77.33 L13.53,54.84 L11.72,52.71 L10.47,50.38 L9.78,47.92 L9.61,45.42 L9.96,42.96 L10.80,40.63 L12.13,38.52 L13.93,36.71 L15.66,35.55 L17.51,34.74 L19.45,34.27 L21.42,34.14 L23.38,34.34 L25.30,34.89 L27.11,35.78 L28.78,37.01 L62.31,67.21 L62.40,67.30 L62.31,67.21 Z" fill="#3990e4" stroke="#1e1e1e" stroke-width="1" stroke-linejoin="round"/><path d="M49.10,31.55 L42.20,25.43 L40.52,23.59 L39.27,21.52 L38.46,19.29 L38.10,16.95 L38.19,14.59 L38.73,12.27 L39.73,10.06 L41.20,8.04 L43.01,6.36 L45.07,5.10 L47.30,4.28 L49.63,3.90 L51.99,3.97 L54.32,4.50 L56.54,5.50 L58.58,6.98 L65.48,13.11 L66.22,14.08 L66.51,15.23 L66.35,16.40 L65.73,17.45 L53.45,31.29 L52.47,32.03 L51.33,32.32 L50.16,32.17 L49.10,31.55 Z" fill="#3990e4" stroke="#1e1e1e" stroke-width="1" stroke-linejoin="round"/></svg>