<svg xmlns="http://www.w3.org/2000/svg" viewBox="0.32 3.95 100.00 92.73"><path d="M95.26,5.95 L5.38,5.95 L4.19,6.19 L3.22,6.85 L2.56,7.83 L2.32,9.02 L2.32,66.89 L2.56,68.08 L3.22,69.05 L4.19,69.71 L5.38,69.95 L95.26,69.95 L96.45,69.71 L97.42,69.05 L98.08,68.08 L98.32,66.89 L98.32,9.02 L98.08,7.83 L97.42,6.85 L96.45,6.19 L95.26,5.95 Z" fill="#3a90e5" stroke="#1e1e1e" stroke-width="1" stroke-linejoin="round"/><path d="M69.57,89.31 L67.89,88.97 L66.41,88.51 L65.13,87.92 L64.02,87.21 L63.07,86.39 L62.27,85.45 L61.08,83.21 L60.33,80.54 L59.92,77.42 L59.76,73.89 L59.73,69.95 L40.90,69.95 L40.87,73.89 L40.70,77.42 L40.29,80.54 L39.54,83.22 L38.35,85.45 L37.55,86.39 L36.61,87.22 L35.50,87.93 L34.21,88.51 L32.74,88.98 L31.06,89.31 L30.12,89.55 L29.24,89.94 L28.43,90.47 L27.73,91.14 L27.15,91.92 L26.72,92.79 L26.45,93.71 L26.33,94.68 L74.36,94.68 L74.24,93.71 L73.96,92.78 L73.53,91.91 L72.94,91.12 L72.23,90.45 L71.41,89.92 L70.52,89.54 L69.57,89.31 Z" fill="#a6a6a6" stroke="#1e1e1e" stroke-width="1" stroke-linejoin="round"/><path d="M22.61,35.52 L24.55,33.58 L39.82,48.90 L40.08,49.52 L39.82,50.14 L37.88,52.07 L37.26,52.33 L36.64,52.07 L22.60,38.00 L22.22,37.43 L22.09,36.76 L22.23,36.08 L22.61,35.52 L22.61,35.52 Z" fill="#b4d2f7" stroke="#1e1e1e" stroke-width="1" stroke-linejoin="round"/><path d="M24.52,39.94 L22.59,38.00 L22.21,37.43 L22.07,36.76 L22.21,36.09 L22.59,35.52 L36.91,21.24 L37.53,20.98 L38.15,21.24 L40.08,23.18 L40.34,23.80 L40.08,24.42 L24.52,39.94 Z" fill="#f2f2f2" stroke="#1e1e1e" stroke-width="1" stroke-linejoin="round"/><path d="M63.85,52.09 L61.91,50.15 L61.72,49.87 L61.65,49.53 L61.72,49.20 L61.91,48.91 L77.20,33.58 L79.14,35.51 L79.52,36.08 L79.65,36.75 L79.52,37.43 L79.14,38.00 L65.09,52.09 L64.47,52.35 L63.84,52.09 L63.85,52.09 Z" fill="#b4d2f7" stroke="#1e1e1e" stroke-width="1" stroke-linejoin="round"/><path d="M61.61,23.19 L63.55,21.25 L64.17,20.99 L64.79,21.25 L79.11,35.53 L79.49,36.10 L79.62,36.77 L79.49,37.44 L79.11,38.01 L77.18,39.95 L61.63,24.45 L61.43,24.16 L61.36,23.82 L61.42,23.48 L61.61,23.19 Z" fill="#f2f2f2" stroke="#1e1e1e" stroke-width="1" stroke-linejoin="round"/><path d="M59.20,16.43 L56.10,15.44 L55.62,15.48 L55.31,15.84 L42.68,55.30 L42.72,55.78 L43.08,56.09 L46.18,57.08 L46.66,57.04 L46.97,56.67 L59.60,17.22 L59.56,16.74 L59.20,16.43 Z" fill="#f2f2f2" stroke="#1e1e1e" stroke-width="1" stroke-linejoin="round"/></svg>