<svg xmlns="http://www.w3.org/2000/svg" viewBox="-2.00 7.85 100.00 82.77"><path d="M10.34,34.64 L10.47,32.11 L10.85,29.65 L11.47,27.27 L12.31,24.99 L13.37,22.82 L14.63,20.78 L16.07,18.87 L17.69,17.11 L19.48,15.51 L21.41,14.08 L23.48,12.84 L25.67,11.80 L27.98,10.96 L30.39,10.35 L32.88,9.97 L35.45,9.85 L38.01,9.97 L40.51,10.35 L42.91,10.96 L45.22,11.80 L47.41,12.84 L49.48,14.08 L51.42,15.51 L53.20,17.11 L54.82,18.87 L56.27,20.78 L57.52,22.82 L58.58,24.99 L59.42,27.27 L60.04,29.65 L60.42,32.11 L60.55,34.64 L60.46,36.79 L60.19,38.88 L59.75,40.91 L59.14,42.88 L58.37,44.77 L57.46,46.58 L56.40,48.31 L55.21,49.94 L53.89,51.47 L52.46,52.88 L50.91,54.18 L49.26,55.36 L47.51,56.40 L45.67,57.30 L43.75,58.05 L41.76,58.65 L41.76,66.74 L78.90,66.74 L79.44,66.65 L79.93,66.41 L80.31,66.03 L80.57,65.54 L81.25,64.24 L82.28,63.24 L83.58,62.59 L85.04,62.36 L86.75,62.36 L87.89,62.45 L88.99,62.72 L90.03,63.16 L91.00,63.76 L91.86,64.40 L93.61,66.04 L94.91,68.00 L95.72,70.21 L96.00,72.57 L96.00,79.69 L95.82,81.44 L95.31,83.10 L94.48,84.64 L93.35,86.00 L93.04,86.31 L91.83,87.29 L90.45,88.02 L88.96,88.46 L87.40,88.62 L85.04,88.62 L83.58,88.39 L82.28,87.74 L81.25,86.73 L80.57,85.43 L80.31,84.94 L79.93,84.57 L79.44,84.33 L78.90,84.24 L31.76,84.24 L17.10,84.24 L16.56,84.33 L16.07,84.57 L15.69,84.94 L15.43,85.43 L14.75,86.73 L13.72,87.74 L12.42,88.39 L10.96,88.62 L8.60,88.62 L7.04,88.46 L5.55,88.02 L4.17,87.29 L2.96,86.31 L2.65,86.00 L1.52,84.64 L0.69,83.10 L0.18,81.44 L0.00,79.69 L0.00,70.09 L0.08,68.96 L0.34,67.85 L0.75,66.80 L1.32,65.80 L2.58,64.36 L4.14,63.27 L5.91,62.59 L7.83,62.36 L10.96,62.36 L12.42,62.59 L13.72,63.24 L14.75,64.24 L15.43,65.54 L15.69,66.03 L16.07,66.41 L16.56,66.65 L17.10,66.74 L30.29,66.74 L30.29,58.92 L28.18,58.39 L26.16,57.69 L24.22,56.83 L22.36,55.81 L20.61,54.65 L18.97,53.35 L17.44,51.93 L16.04,50.38 L14.77,48.72 L13.65,46.96 L12.67,45.10 L11.85,43.15 L11.20,41.12 L10.73,39.02 L10.44,36.86 L10.34,34.64 Z" fill="#3990e4" stroke="#3990e4" stroke-width="1" stroke-linejoin="round"/><path d="M35.45,12.76 L33.18,12.88 L30.98,13.21 L28.86,13.75 L26.82,14.48 L24.89,15.40 L23.06,16.50 L21.35,17.76 L19.78,19.17 L18.35,20.73 L17.08,22.41 L15.97,24.21 L15.03,26.13 L14.29,28.14 L13.74,30.23 L13.41,32.41 L13.29,34.64 L13.39,36.67 L13.66,38.64 L14.11,40.55 L14.72,42.40 L15.50,44.17 L16.42,45.85 L17.48,47.44 L18.67,48.93 L19.99,50.32 L21.42,51.58 L22.96,52.72 L24.60,53.73 L26.33,54.59 L28.15,55.31 L30.04,55.87 L31.99,56.26 L33.24,56.45 L33.24,57.70 L33.24,68.19 L33.24,69.65 L31.76,69.65 L17.10,69.65 L15.64,69.42 L14.35,68.77 L13.31,67.77 L12.63,66.47 L12.37,65.98 L11.99,65.61 L11.50,65.36 L10.96,65.28 L7.83,65.28 L6.64,65.42 L5.53,65.85 L4.56,66.52 L3.77,67.42 L3.16,68.70 L2.95,70.09 L2.95,79.69 L3.07,80.86 L3.42,81.99 L3.98,83.02 L4.74,83.94 L5.05,84.24 L5.81,84.86 L6.68,85.32 L7.62,85.60 L8.60,85.70 L10.96,85.70 L11.50,85.61 L11.99,85.37 L12.37,84.99 L12.63,84.51 L13.31,83.21 L14.35,82.20 L15.64,81.55 L17.10,81.32 L31.76,81.32 L78.90,81.32 L80.36,81.55 L81.65,82.20 L82.69,83.21 L83.37,84.51 L83.63,84.99 L84.01,85.37 L84.50,85.61 L85.04,85.70 L87.40,85.70 L88.38,85.60 L89.32,85.32 L90.19,84.86 L90.95,84.24 L91.26,83.94 L92.02,83.02 L92.58,81.99 L92.93,80.86 L93.05,79.69 L93.05,72.57 L92.85,70.88 L92.27,69.31 L91.34,67.91 L90.09,66.74 L89.22,66.09 L88.05,65.49 L86.75,65.28 L85.04,65.28 L84.50,65.36 L84.01,65.61 L83.63,65.98 L83.37,66.47 L82.69,67.77 L81.65,68.77 L80.36,69.42 L78.90,69.65 L40.28,69.65 L38.80,69.65 L38.80,68.19 L38.80,57.49 L38.80,56.31 L39.98,56.07 L41.84,55.60 L43.63,54.99 L46.98,53.33 L49.98,51.16 L52.56,48.54 L54.68,45.51 L55.54,43.87 L56.26,42.15 L56.84,40.36 L57.26,38.51 L57.51,36.60 L57.60,34.64 L57.49,32.41 L57.15,30.23 L56.60,28.14 L55.86,26.13 L54.93,24.21 L53.82,22.41 L52.54,20.73 L51.11,19.17 L49.54,17.76 L47.83,16.50 L46.01,15.40 L44.07,14.48 L42.03,13.75 L39.91,13.21 L37.71,12.88 L35.45,12.76 Z" fill="#ffffff" stroke="#ffffff" stroke-width="1" stroke-linejoin="round"/><path d="M10.34,71.11 L5.91,71.11 L5.91,68.19 L10.34,68.19 L10.34,71.11 Z" fill="#3990e4" stroke="#3990e4" stroke-width="1" stroke-linejoin="round"/><path d="M88.62,71.11 L84.18,71.11 L84.18,68.19 L88.62,68.19 L88.62,71.11 Z" fill="#3990e4" stroke="#3990e4" stroke-width="1" stroke-linejoin="round"/><path d="M5.91,74.03 L7.39,74.03 L7.41,74.03 L7.43,74.03 L7.45,74.03 L7.47,74.03 L7.49,74.03 L7.51,74.03 L7.53,74.03 L7.55,74.03 L7.57,74.03 L7.59,74.03 L7.61,74.03 L7.63,74.03 L7.65,74.03 L7.67,74.03 L7.69,74.03 L7.71,74.03 L7.73,74.03 L7.75,74.03 L7.78,74.03 L7.79,74.03 L7.81,74.03 L7.84,74.03 L7.86,74.03 L7.88,74.03 L7.90,74.03 L7.92,74.03 L7.94,74.03 L7.96,74.03 L7.99,74.03 L8.00,74.03 L8.02,74.03 L8.05,74.03 L8.07,74.03 L8.09,74.03 L8.12,74.03 L8.13,74.03 L8.15,74.03 L8.18,74.03 L8.20,74.03 L8.22,74.03 L8.24,74.03 L8.26,74.03 L8.29,74.03 L8.31,74.03 L8.33,74.03 L8.35,74.03 L8.37,74.03 L8.39,74.03 L8.42,74.03 L8.44,74.03 L8.46,74.03 L8.48,74.03 L8.50,74.03 L8.53,74.03 L8.55,74.03 L8.57,74.03 L8.59,74.03 L8.61,74.03 L8.63,74.03 L8.66,74.03 L8.67,74.03 L8.70,74.03 L8.72,74.03 L8.74,74.03 L8.77,74.03 L8.79,74.03 L8.80,74.03 L8.83,74.03 L8.85,74.03 L8.87,74.03 L8.89,74.03 L8.91,74.03 L8.93,74.03 L8.95,74.03 L8.98,74.03 L9.00,74.03 L9.01,74.03 L9.04,74.03 L9.06,74.03 L9.08,74.03 L9.10,74.03 L9.12,74.03 L9.14,74.03 L9.16,74.03 L9.18,74.03 L9.20,74.03 L9.22,74.03 L9.24,74.03 L9.26,74.03 L9.28,74.03 L9.30,74.03 L9.31,74.03 L9.34,74.03 L9.36,74.03 L9.38,74.03 L9.40,74.03 L9.41,74.03 L9.43,74.03 L9.45,74.03 L9.47,74.03 L9.49,74.03 L9.51,74.03 L9.52,74.03 L9.54,74.03 L9.56,74.03 L9.58,74.03 L9.60,74.03 L9.61,74.03 L9.63,74.03 L9.65,74.03 L9.67,74.03 L9.68,74.03 L9.70,74.03 L9.71,74.03 L9.73,74.03 L9.75,74.03 L9.77,74.03 L9.78,74.03 L9.79,74.03 L9.81,74.03 L9.83,74.03 L9.84,74.03 L9.85,74.03 L9.87,74.03 L9.89,74.03 L9.90,74.03 L9.92,74.03 L9.93,74.03 L9.94,74.03 L9.96,74.03 L9.98,74.03 L10.00,74.03 L10.03,74.03 L10.05,74.03 L10.08,74.03 L10.10,74.03 L10.12,74.03 L10.15,74.03 L10.16,74.03 L10.18,74.03 L10.20,74.03 L10.22,74.03 L10.24,74.03 L10.25,74.03 L10.27,74.03 L10.30,74.03 L10.32,74.03 L10.34,75.49 L10.33,76.95 L10.31,76.95 L10.29,76.95 L10.26,76.95 L10.24,76.95 L10.23,76.95 L10.22,76.95 L10.20,76.95 L10.18,76.95 L10.16,76.95 L10.14,76.95 L10.12,76.95 L10.10,76.95 L10.07,76.95 L10.05,76.95 L10.03,76.95 L10.00,76.95 L9.98,76.95 L9.96,76.95 L9.94,76.95 L9.93,76.95 L9.92,76.95 L9.90,76.95 L9.89,76.95 L9.87,76.95 L9.85,76.95 L9.84,76.95 L9.83,76.95 L9.81,76.95 L9.79,76.95 L9.78,76.95 L9.77,76.95 L9.75,76.95 L9.73,76.95 L9.71,76.95 L9.70,76.95 L9.68,76.95 L9.67,76.95 L9.65,76.95 L9.63,76.95 L9.61,76.95 L9.60,76.95 L9.58,76.95 L9.56,76.95 L9.54,76.95 L9.52,76.95 L9.51,76.95 L9.49,76.95 L9.47,76.95 L9.45,76.95 L9.43,76.95 L9.41,76.95 L9.40,76.95 L9.38,76.95 L9.36,76.95 L9.34,76.95 L9.31,76.95 L9.30,76.95 L9.28,76.95 L9.26,76.95 L9.24,76.95 L9.22,76.95 L9.20,76.95 L9.18,76.95 L9.16,76.95 L9.14,76.95 L9.12,76.95 L9.10,76.95 L9.08,76.95 L9.06,76.95 L9.04,76.95 L9.01,76.95 L9.00,76.95 L8.98,76.95 L8.95,76.95 L8.93,76.95 L8.91,76.95 L8.89,76.95 L8.87,76.95 L8.85,76.95 L8.83,76.95 L8.80,76.95 L8.79,76.95 L8.77,76.95 L8.74,76.95 L8.72,76.95 L8.70,76.95 L8.67,76.95 L8.66,76.95 L8.63,76.95 L8.61,76.95 L8.59,76.95 L8.57,76.95 L8.55,76.95 L8.53,76.95 L8.50,76.95 L8.48,76.95 L8.46,76.95 L8.44,76.95 L8.42,76.95 L8.39,76.95 L8.37,76.95 L8.35,76.95 L8.33,76.95 L8.31,76.95 L8.29,76.95 L8.26,76.95 L8.24,76.95 L8.22,76.95 L8.20,76.95 L8.18,76.95 L8.15,76.95 L8.13,76.95 L8.12,76.95 L8.09,76.95 L8.07,76.95 L8.05,76.95 L8.02,76.95 L8.00,76.95 L7.99,76.95 L7.96,76.95 L7.94,76.95 L7.92,76.95 L7.90,76.95 L7.88,76.95 L7.86,76.95 L7.84,76.95 L7.81,76.95 L7.79,76.95 L7.78,76.95 L7.75,76.95 L7.73,76.95 L7.71,76.95 L7.69,76.95 L7.67,76.95 L7.65,76.95 L7.63,76.95 L7.61,76.95 L7.59,76.95 L7.57,76.95 L7.55,76.95 L7.53,76.95 L7.51,76.95 L7.49,76.95 L7.47,76.95 L7.45,76.95 L7.43,76.95 L7.41,76.95 L7.39,76.95 L5.91,74.03 Z" fill="#3990e4" stroke="#3990e4" stroke-width="1" stroke-linejoin="round"/><path d="M84.18,74.03 L85.67,74.03 L85.69,74.03 L85.71,74.03 L85.73,74.03 L85.75,74.03 L85.76,74.03 L85.79,74.03 L85.81,74.03 L85.83,74.03 L85.85,74.03 L85.86,74.03 L85.88,74.03 L85.91,74.03 L85.93,74.03 L85.95,74.03 L85.96,74.03 L85.99,74.03 L86.01,74.03 L86.03,74.03 L86.05,74.03 L86.07,74.03 L86.09,74.03 L86.11,74.03 L86.13,74.03 L86.16,74.03 L86.17,74.03 L86.19,74.03 L86.22,74.03 L86.24,74.03 L86.26,74.03 L86.28,74.03 L86.30,74.03 L86.32,74.03 L86.35,74.03 L86.37,74.03 L86.39,74.03 L86.41,74.03 L86.43,74.03 L86.45,74.03 L86.48,74.03 L86.50,74.03 L86.52,74.03 L86.54,74.03 L86.56,74.03 L86.59,74.03 L86.61,74.03 L86.63,74.03 L86.65,74.03 L86.67,74.03 L86.69,74.03 L86.72,74.03 L86.73,74.03 L86.76,74.03 L86.78,74.03 L86.80,74.03 L86.83,74.03 L86.84,74.03 L86.87,74.03 L86.89,74.03 L86.91,74.03 L86.93,74.03 L86.95,74.03 L86.97,74.03 L87.00,74.03 L87.02,74.03 L87.04,74.03 L87.07,74.03 L87.08,74.03 L87.10,74.03 L87.13,74.03 L87.15,74.03 L87.17,74.03 L87.19,74.03 L87.21,74.03 L87.23,74.03 L87.25,74.03 L87.28,74.03 L87.29,74.03 L87.31,74.03 L87.33,74.03 L87.36,74.03 L87.38,74.03 L87.39,74.03 L87.41,74.03 L87.44,74.03 L87.46,74.03 L87.48,74.03 L87.49,74.03 L87.51,74.03 L87.54,74.03 L87.56,74.03 L87.58,74.03 L87.59,74.03 L87.61,74.03 L87.63,74.03 L87.65,74.03 L87.67,74.03 L87.69,74.03 L87.71,74.03 L87.73,74.03 L87.75,74.03 L87.77,74.03 L87.79,74.03 L87.80,74.03 L87.82,74.03 L87.84,74.03 L87.86,74.03 L87.88,74.03 L87.89,74.03 L87.91,74.03 L87.92,74.03 L87.94,74.03 L87.96,74.03 L87.97,74.03 L87.99,74.03 L88.01,74.03 L88.03,74.03 L88.04,74.03 L88.05,74.03 L88.07,74.03 L88.09,74.03 L88.10,74.03 L88.12,74.03 L88.13,74.03 L88.15,74.03 L88.16,74.03 L88.18,74.03 L88.19,74.03 L88.20,74.03 L88.22,74.03 L88.23,74.03 L88.25,74.03 L88.28,74.03 L88.31,74.03 L88.32,74.03 L88.35,74.03 L88.38,74.03 L88.40,74.03 L88.42,74.03 L88.44,74.03 L88.46,74.03 L88.48,74.03 L88.50,74.03 L88.52,74.03 L88.53,74.03 L88.55,74.03 L88.57,74.03 L88.60,74.03 L88.62,75.49 L88.61,76.95 L88.59,76.95 L88.57,76.95 L88.54,76.95 L88.52,76.95 L88.51,76.95 L88.49,76.95 L88.47,76.95 L88.46,76.95 L88.43,76.95 L88.42,76.95 L88.40,76.95 L88.37,76.95 L88.35,76.95 L88.32,76.95 L88.31,76.95 L88.28,76.95 L88.25,76.95 L88.23,76.95 L88.22,76.95 L88.20,76.95 L88.19,76.95 L88.18,76.95 L88.16,76.95 L88.15,76.95 L88.13,76.95 L88.12,76.95 L88.10,76.95 L88.09,76.95 L88.07,76.95 L88.05,76.95 L88.04,76.95 L88.03,76.95 L88.01,76.95 L87.99,76.95 L87.97,76.95 L87.96,76.95 L87.94,76.95 L87.92,76.95 L87.91,76.95 L87.89,76.95 L87.88,76.95 L87.86,76.95 L87.84,76.95 L87.82,76.95 L87.80,76.95 L87.79,76.95 L87.77,76.95 L87.75,76.95 L87.73,76.95 L87.71,76.95 L87.69,76.95 L87.67,76.95 L87.65,76.95 L87.63,76.95 L87.61,76.95 L87.59,76.95 L87.58,76.95 L87.56,76.95 L87.54,76.95 L87.51,76.95 L87.49,76.95 L87.48,76.95 L87.46,76.95 L87.44,76.95 L87.41,76.95 L87.39,76.95 L87.38,76.95 L87.36,76.95 L87.33,76.95 L87.31,76.95 L87.29,76.95 L87.28,76.95 L87.25,76.95 L87.23,76.95 L87.21,76.95 L87.19,76.95 L87.17,76.95 L87.15,76.95 L87.13,76.95 L87.10,76.95 L87.08,76.95 L87.07,76.95 L87.04,76.95 L87.02,76.95 L87.00,76.95 L86.97,76.95 L86.95,76.95 L86.93,76.95 L86.91,76.95 L86.89,76.95 L86.87,76.95 L86.84,76.95 L86.83,76.95 L86.80,76.95 L86.78,76.95 L86.76,76.95 L86.73,76.95 L86.72,76.95 L86.69,76.95 L86.67,76.95 L86.65,76.95 L86.63,76.95 L86.61,76.95 L86.59,76.95 L86.56,76.95 L86.54,76.95 L86.52,76.95 L86.50,76.95 L86.48,76.95 L86.45,76.95 L86.43,76.95 L86.41,76.95 L86.39,76.95 L86.37,76.95 L86.35,76.95 L86.32,76.95 L86.30,76.95 L86.28,76.95 L86.26,76.95 L86.24,76.95 L86.22,76.95 L86.19,76.95 L86.17,76.95 L86.16,76.95 L86.13,76.95 L86.11,76.95 L86.09,76.95 L86.07,76.95 L86.05,76.95 L86.03,76.95 L86.01,76.95 L85.99,76.95 L85.96,76.95 L85.95,76.95 L85.93,76.95 L85.91,76.95 L85.88,76.95 L85.86,76.95 L85.85,76.95 L85.83,76.95 L85.81,76.95 L85.79,76.95 L85.76,76.95 L85.75,76.95 L85.73,76.95 L85.71,76.95 L85.69,76.95 L85.67,76.95 L84.18,74.03 Z" fill="#3990e4" stroke="#3990e4" stroke-width="1" stroke-linejoin="round"/><path d="M10.34,82.78 L5.91,82.78 L5.91,79.86 L10.34,79.86 L10.34,82.78 Z" fill="#3990e4" stroke="#3990e4" stroke-width="1" stroke-linejoin="round"/><path d="M88.62,82.78 L84.18,82.78 L84.18,79.86 L88.62,79.86 L88.62,82.78 Z" fill="#3990e4" stroke="#3990e4" stroke-width="1" stroke-linejoin="round"/><path d="M35.45,52.15 L37.26,52.06 L39.02,51.79 L40.72,51.36 L42.34,50.77 L43.89,50.04 L45.36,49.16 L46.72,48.15 L47.98,47.02 L49.12,45.78 L50.14,44.43 L51.03,42.99 L51.78,41.46 L52.37,39.85 L52.81,38.17 L53.08,36.43 L53.17,34.64 L53.08,32.85 L52.81,31.12 L52.37,29.44 L51.78,27.83 L51.03,26.30 L50.14,24.86 L49.12,23.51 L47.98,22.27 L46.72,21.14 L45.36,20.13 L43.89,19.25 L42.34,18.52 L40.72,17.93 L39.02,17.50 L37.26,17.23 L35.45,17.14 L33.63,17.23 L31.87,17.50 L30.18,17.93 L28.55,18.52 L27.00,19.25 L25.54,20.13 L24.17,21.14 L22.91,22.27 L21.77,23.51 L20.75,24.86 L19.86,26.30 L19.12,27.83 L18.52,29.44 L18.08,31.12 L17.81,32.85 L17.72,34.64 L17.81,36.43 L18.08,38.17 L18.52,39.85 L19.12,41.46 L19.86,42.99 L20.75,44.43 L21.77,45.78 L22.91,47.02 L24.17,48.15 L25.54,49.16 L27.00,50.04 L28.55,50.77 L30.18,51.36 L31.87,51.79 L33.63,52.06 L35.45,52.15 Z" fill="#3990e4" stroke="#3990e4" stroke-width="1" stroke-linejoin="round"/><path d="M35.45,49.23 L38.42,48.93 L41.20,48.08 L43.70,46.74 L45.89,44.96 L47.69,42.80 L49.05,40.32 L49.92,37.58 L50.22,34.64 L49.92,31.70 L49.05,28.97 L47.69,26.49 L45.89,24.33 L43.70,22.55 L41.20,21.20 L38.42,20.35 L35.45,20.06 L32.47,20.35 L29.70,21.20 L27.19,22.55 L25.00,24.33 L23.20,26.49 L21.84,28.97 L20.98,31.70 L20.68,34.64 L20.98,37.58 L21.84,40.32 L23.20,42.80 L25.00,44.96 L27.19,46.74 L29.70,48.08 L32.47,48.93 L35.45,49.23 Z" fill="#ffffff" stroke="#ffffff" stroke-width="1" stroke-linejoin="round"/><path d="M36.92,37.56 L36.92,22.97 L33.97,22.97 L33.97,37.56 L36.92,37.56 Z" fill="#3990e4" stroke="#3990e4" stroke-width="1" stroke-linejoin="round"/><path d="M13.29,34.64 L13.41,32.41 L13.74,30.23 L14.29,28.14 L15.03,26.13 L15.97,24.21 L17.08,22.41 L18.35,20.73 L19.78,19.17 L21.35,17.76 L23.06,16.50 L24.89,15.40 L26.82,14.48 L28.86,13.75 L30.98,13.21 L33.18,12.88 L35.45,12.76 L37.71,12.88 L39.91,13.21 L42.03,13.75 L44.07,14.48 L46.01,15.40 L47.83,16.50 L49.54,17.76 L51.11,19.17 L52.54,20.73 L53.82,22.41 L54.93,24.21 L55.86,26.13 L56.60,28.14 L57.15,30.23 L57.49,32.41 L57.60,34.64 L57.51,36.60 L57.26,38.51 L56.84,40.36 L56.26,42.15 L55.54,43.87 L54.68,45.51 L52.56,48.54 L49.98,51.16 L46.98,53.33 L43.63,54.99 L41.84,55.60 L39.98,56.07 L38.80,56.31 L38.80,57.49 L38.80,68.19 L38.80,69.65 L40.28,69.65 L78.90,69.65 L80.36,69.42 L81.65,68.77 L82.69,67.77 L83.37,66.47 L83.63,65.98 L84.01,65.61 L84.50,65.36 L85.04,65.28 L86.75,65.28 L88.05,65.49 L89.22,66.09 L90.09,66.74 L91.34,67.91 L92.27,69.31 L92.85,70.88 L93.05,72.57 L93.05,79.69 L92.93,80.86 L92.58,81.99 L92.02,83.02 L91.26,83.94 L90.95,84.24 L90.19,84.86 L89.32,85.32 L88.38,85.60 L87.40,85.70 L85.04,85.70 L84.50,85.61 L84.01,85.37 L83.63,84.99 L83.37,84.51 L82.69,83.21 L81.65,82.20 L80.36,81.55 L78.90,81.32 L31.76,81.32 L17.10,81.32 L15.64,81.55 L14.35,82.20 L13.31,83.21 L12.63,84.51 L12.37,84.99 L11.99,85.37 L11.50,85.61 L10.96,85.70 L8.60,85.70 L7.62,85.60 L6.68,85.32 L5.81,84.86 L5.05,84.24 L4.74,83.94 L3.98,83.02 L3.42,81.99 L3.07,80.86 L2.95,79.69 L2.95,70.09 L3.16,68.70 L3.77,67.42 L4.56,66.52 L5.53,65.85 L6.64,65.42 L7.83,65.28 L10.96,65.28 L11.50,65.36 L11.99,65.61 L12.37,65.98 L12.63,66.47 L13.31,67.77 L14.35,68.77 L15.64,69.42 L17.10,69.65 L31.76,69.65 L33.24,69.65 L33.24,68.19 L33.24,57.70 L33.24,56.45 L31.99,56.26 L30.04,55.87 L28.15,55.31 L26.33,54.59 L24.60,53.73 L22.96,52.72 L21.42,51.58 L19.99,50.32 L18.67,48.93 L17.48,47.44 L16.42,45.85 L15.50,44.17 L14.72,42.40 L14.11,40.55 L13.66,38.64 L13.39,36.67 L13.29,34.64 Z" fill="#3990e4" stroke="#3990e4" stroke-width="1" stroke-linejoin="round"/><path d="M10.34,71.11 L5.91,71.11 L5.91,68.19 L10.34,68.19 L10.34,71.11 Z" fill="#3990e4" stroke="#3990e4" stroke-width="1" stroke-linejoin="round"/><path d="M88.62,71.11 L84.18,71.11 L84.18,68.19 L88.62,68.19 L88.62,71.11 Z" fill="#3990e4" stroke="#3990e4" stroke-width="1" stroke-linejoin="round"/><path d="M5.91,74.03 L7.39,74.03 L7.41,74.03 L7.43,74.03 L7.45,74.03 L7.47,74.03 L7.49,74.03 L7.51,74.03 L7.53,74.03 L7.55,74.03 L7.57,74.03 L7.59,74.03 L7.61,74.03 L7.63,74.03 L7.65,74.03 L7.67,74.03 L7.69,74.03 L7.71,74.03 L7.73,74.03 L7.75,74.03 L7.78,74.03 L7.79,74.03 L7.81,74.03 L7.84,74.03 L7.86,74.03 L7.88,74.03 L7.90,74.03 L7.92,74.03 L7.94,74.03 L7.96,74.03 L7.99,74.03 L8.00,74.03 L8.02,74.03 L8.05,74.03 L8.07,74.03 L8.09,74.03 L8.11,74.03 L8.13,74.03 L8.15,74.03 L8.18,74.03 L8.20,74.03 L8.22,74.03 L8.24,74.03 L8.26,74.03 L8.29,74.03 L8.31,74.03 L8.33,74.03 L8.35,74.03 L8.37,74.03 L8.39,74.03 L8.42,74.03 L8.43,74.03 L8.46,74.03 L8.48,74.03 L8.50,74.03 L8.53,74.03 L8.54,74.03 L8.57,74.03 L8.59,74.03 L8.61,74.03 L8.63,74.03 L8.65,74.03 L8.67,74.03 L8.70,74.03 L8.72,74.03 L8.74,74.03 L8.76,74.03 L8.78,74.03 L8.80,74.03 L8.83,74.03 L8.85,74.03 L8.86,74.03 L8.89,74.03 L8.91,74.03 L8.93,74.03 L8.95,74.03 L8.98,74.03 L8.99,74.03 L9.01,74.03 L9.04,74.03 L9.06,74.03 L9.08,74.03 L9.09,74.03 L9.12,74.03 L9.14,74.03 L9.16,74.03 L9.18,74.03 L9.20,74.03 L9.22,74.03 L9.24,74.03 L9.26,74.03 L9.28,74.03 L9.29,74.03 L9.31,74.03 L9.34,74.03 L9.36,74.03 L9.38,74.03 L9.39,74.03 L9.41,74.03 L9.43,74.03 L9.45,74.03 L9.47,74.03 L9.48,74.03 L9.50,74.03 L9.52,74.03 L9.54,74.03 L9.56,74.03 L9.57,74.03 L9.59,74.03 L9.61,74.03 L9.63,74.03 L9.65,74.03 L9.66,74.03 L9.68,74.03 L9.70,74.03 L9.71,74.03 L9.73,74.03 L9.74,74.03 L9.76,74.03 L9.78,74.03 L9.79,74.03 L9.81,74.03 L9.82,74.03 L9.84,74.03 L9.85,74.03 L9.87,74.03 L9.89,74.03 L9.90,74.03 L9.91,74.03 L9.93,74.03 L9.94,74.03 L9.96,74.03 L9.97,74.03 L9.99,74.03 L10.02,74.03 L10.05,74.03 L10.08,74.03 L10.09,74.03 L10.12,74.03 L10.14,74.03 L10.16,74.03 L10.18,74.03 L10.19,74.03 L10.21,74.03 L10.23,74.03 L10.25,74.03 L10.27,74.03 L10.29,74.03 L10.31,74.03 L10.34,74.03 L10.33,76.95 L10.31,76.95 L10.29,76.95 L10.27,76.95 L10.25,76.95 L10.23,76.95 L10.22,76.95 L10.20,76.95 L10.18,76.95 L10.16,76.95 L10.14,76.95 L10.12,76.95 L10.10,76.95 L10.08,76.95 L10.06,76.95 L10.03,76.95 L10.00,76.95 L9.98,76.95 L9.96,76.95 L9.94,76.95 L9.93,76.95 L9.91,76.95 L9.90,76.95 L9.89,76.95 L9.87,76.95 L9.85,76.95 L9.84,76.95 L9.82,76.95 L9.81,76.95 L9.79,76.95 L9.78,76.95 L9.76,76.95 L9.74,76.95 L9.73,76.95 L9.71,76.95 L9.70,76.95 L9.68,76.95 L9.66,76.95 L9.65,76.95 L9.63,76.95 L9.61,76.95 L9.59,76.95 L9.57,76.95 L9.56,76.95 L9.54,76.95 L9.52,76.95 L9.50,76.95 L9.48,76.95 L9.47,76.95 L9.45,76.95 L9.43,76.95 L9.41,76.95 L9.39,76.95 L9.38,76.95 L9.36,76.95 L9.34,76.95 L9.31,76.95 L9.29,76.95 L9.28,76.95 L9.26,76.95 L9.24,76.95 L9.22,76.95 L9.20,76.95 L9.18,76.95 L9.16,76.95 L9.14,76.95 L9.12,76.95 L9.09,76.95 L9.08,76.95 L9.06,76.95 L9.04,76.95 L9.01,76.95 L8.99,76.95 L8.98,76.95 L8.95,76.95 L8.93,76.95 L8.91,76.95 L8.89,76.95 L8.86,76.95 L8.85,76.95 L8.83,76.95 L8.80,76.95 L8.78,76.95 L8.76,76.95 L8.74,76.95 L8.72,76.95 L8.70,76.95 L8.67,76.95 L8.65,76.95 L8.63,76.95 L8.61,76.95 L8.59,76.95 L8.57,76.95 L8.54,76.95 L8.53,76.95 L8.50,76.95 L8.48,76.95 L8.46,76.95 L8.43,76.95 L8.42,76.95 L8.39,76.95 L8.37,76.95 L8.35,76.95 L8.33,76.95 L8.31,76.95 L8.29,76.95 L8.26,76.95 L8.24,76.95 L8.22,76.95 L8.20,76.95 L8.18,76.95 L8.15,76.95 L8.13,76.95 L8.11,76.95 L8.09,76.95 L8.07,76.95 L8.05,76.95 L8.02,76.95 L8.00,76.95 L7.99,76.95 L7.96,76.95 L7.94,76.95 L7.92,76.95 L7.90,76.95 L7.88,76.95 L7.86,76.95 L7.84,76.95 L7.81,76.95 L7.79,76.95 L7.78,76.95 L7.75,76.95 L7.73,76.95 L7.71,76.95 L7.69,76.95 L7.67,76.95 L7.65,76.95 L7.63,76.95 L7.61,76.95 L7.59,76.95 L7.57,76.95 L7.55,76.95 L7.53,76.95 L7.51,76.95 L7.49,76.95 L7.47,76.95 L7.45,76.95 L7.43,76.95 L7.41,76.95 L7.39,76.95 L5.91,74.03 Z" fill="#3990e4" stroke="#3990e4" stroke-width="1" stroke-linejoin="round"/><path d="M84.18,74.03 L85.67,74.03 L85.69,74.03 L85.71,74.03 L85.73,74.03 L85.75,74.03 L85.76,74.03 L85.79,74.03 L85.81,74.03 L85.83,74.03 L85.85,74.03 L85.86,74.03 L85.88,74.03 L85.91,74.03 L85.93,74.03 L85.95,74.03 L85.96,74.03 L85.99,74.03 L86.01,74.03 L86.03,74.03 L86.05,74.03 L86.07,74.03 L86.09,74.03 L86.11,74.03 L86.13,74.03 L86.16,74.03 L86.17,74.03 L86.19,74.03 L86.22,74.03 L86.24,74.03 L86.26,74.03 L86.28,74.03 L86.30,74.03 L86.32,74.03 L86.35,74.03 L86.37,74.03 L86.39,74.03 L86.41,74.03 L86.43,74.03 L86.45,74.03 L86.48,74.03 L86.49,74.03 L86.52,74.03 L86.54,74.03 L86.56,74.03 L86.59,74.03 L86.60,74.03 L86.63,74.03 L86.65,74.03 L86.67,74.03 L86.69,74.03 L86.71,74.03 L86.73,74.03 L86.76,74.03 L86.78,74.03 L86.80,74.03 L86.82,74.03 L86.84,74.03 L86.87,74.03 L86.89,74.03 L86.91,74.03 L86.93,74.03 L86.95,74.03 L86.97,74.03 L87.00,74.03 L87.02,74.03 L87.03,74.03 L87.06,74.03 L87.08,74.03 L87.10,74.03 L87.13,74.03 L87.14,74.03 L87.16,74.03 L87.19,74.03 L87.21,74.03 L87.23,74.03 L87.25,74.03 L87.27,74.03 L87.29,74.03 L87.31,74.03 L87.33,74.03 L87.36,74.03 L87.37,74.03 L87.39,74.03 L87.41,74.03 L87.44,74.03 L87.46,74.03 L87.47,74.03 L87.49,74.03 L87.51,74.03 L87.54,74.03 L87.56,74.03 L87.57,74.03 L87.59,74.03 L87.61,74.03 L87.63,74.03 L87.65,74.03 L87.67,74.03 L87.69,74.03 L87.71,74.03 L87.73,74.03 L87.75,74.03 L87.76,74.03 L87.78,74.03 L87.80,74.03 L87.82,74.03 L87.84,74.03 L87.85,74.03 L87.87,74.03 L87.89,74.03 L87.91,74.03 L87.92,74.03 L87.94,74.03 L87.96,74.03 L87.97,74.03 L87.99,74.03 L88.01,74.03 L88.02,74.03 L88.04,74.03 L88.05,74.03 L88.07,74.03 L88.09,74.03 L88.10,74.03 L88.12,74.03 L88.13,74.03 L88.15,74.03 L88.16,74.03 L88.17,74.03 L88.19,74.03 L88.20,74.03 L88.22,74.03 L88.23,74.03 L88.24,74.03 L88.27,74.03 L88.30,74.03 L88.32,74.03 L88.35,74.03 L88.37,74.03 L88.39,74.03 L88.42,74.03 L88.44,74.03 L88.46,74.03 L88.47,74.03 L88.49,74.03 L88.51,74.03 L88.53,74.03 L88.55,74.03 L88.57,74.03 L88.59,74.03 L88.61,74.03 L88.61,76.95 L88.59,76.95 L88.57,76.95 L88.55,76.95 L88.53,76.95 L88.51,76.95 L88.49,76.95 L88.47,76.95 L88.46,76.95 L88.44,76.95 L88.42,76.95 L88.40,76.95 L88.37,76.95 L88.36,76.95 L88.33,76.95 L88.31,76.95 L88.28,76.95 L88.25,76.95 L88.23,76.95 L88.22,76.95 L88.20,76.95 L88.19,76.95 L88.17,76.95 L88.16,76.95 L88.15,76.95 L88.13,76.95 L88.12,76.95 L88.10,76.95 L88.09,76.95 L88.07,76.95 L88.05,76.95 L88.04,76.95 L88.02,76.95 L88.01,76.95 L87.99,76.95 L87.97,76.95 L87.96,76.95 L87.94,76.95 L87.92,76.95 L87.91,76.95 L87.89,76.95 L87.87,76.95 L87.85,76.95 L87.84,76.95 L87.82,76.95 L87.80,76.95 L87.78,76.95 L87.76,76.95 L87.75,76.95 L87.73,76.95 L87.71,76.95 L87.69,76.95 L87.67,76.95 L87.65,76.95 L87.63,76.95 L87.61,76.95 L87.59,76.95 L87.57,76.95 L87.56,76.95 L87.54,76.95 L87.51,76.95 L87.49,76.95 L87.47,76.95 L87.46,76.95 L87.44,76.95 L87.41,76.95 L87.39,76.95 L87.37,76.95 L87.36,76.95 L87.33,76.95 L87.31,76.95 L87.29,76.95 L87.27,76.95 L87.25,76.95 L87.23,76.95 L87.21,76.95 L87.19,76.95 L87.16,76.95 L87.14,76.95 L87.13,76.95 L87.10,76.95 L87.08,76.95 L87.06,76.95 L87.03,76.95 L87.02,76.95 L87.00,76.95 L86.97,76.95 L86.95,76.95 L86.93,76.95 L86.91,76.95 L86.89,76.95 L86.87,76.95 L86.84,76.95 L86.82,76.95 L86.80,76.95 L86.78,76.95 L86.76,76.95 L86.73,76.95 L86.71,76.95 L86.69,76.95 L86.67,76.95 L86.65,76.95 L86.63,76.95 L86.60,76.95 L86.59,76.95 L86.56,76.95 L86.54,76.95 L86.52,76.95 L86.49,76.95 L86.48,76.95 L86.45,76.95 L86.43,76.95 L86.41,76.95 L86.39,76.95 L86.37,76.95 L86.35,76.95 L86.32,76.95 L86.30,76.95 L86.28,76.95 L86.26,76.95 L86.24,76.95 L86.22,76.95 L86.19,76.95 L86.17,76.95 L86.16,76.95 L86.13,76.95 L86.11,76.95 L86.09,76.95 L86.07,76.95 L86.05,76.95 L86.03,76.95 L86.01,76.95 L85.99,76.95 L85.96,76.95 L85.95,76.95 L85.93,76.95 L85.91,76.95 L85.88,76.95 L85.86,76.95 L85.85,76.95 L85.83,76.95 L85.81,76.95 L85.79,76.95 L85.76,76.95 L85.75,76.95 L85.73,76.95 L85.71,76.95 L85.69,76.95 L85.67,76.95 L84.18,74.03 Z" fill="#3990e4" stroke="#3990e4" stroke-width="1" stroke-linejoin="round"/><path d="M10.34,82.78 L5.91,82.78 L5.91,79.86 L10.34,79.86 L10.34,82.78 Z" fill="#3990e4" stroke="#3990e4" stroke-width="1" stroke-linejoin="round"/><path d="M88.62,82.78 L84.18,82.78 L84.18,79.86 L88.62,79.86 L88.62,82.78 Z" fill="#3990e4" stroke="#3990e4" stroke-width="1" stroke-linejoin="round"/><path d="M35.45,52.15 L37.26,52.06 L39.02,51.79 L40.72,51.36 L42.34,50.77 L43.89,50.04 L45.36,49.16 L46.72,48.15 L47.98,47.02 L49.12,45.78 L50.14,44.43 L51.03,42.99 L51.78,41.46 L52.37,39.85 L52.81,38.17 L53.08,36.43 L53.17,34.64 L53.08,32.85 L52.81,31.12 L52.37,29.44 L51.78,27.83 L51.03,26.30 L50.14,24.86 L49.12,23.51 L47.98,22.27 L46.72,21.14 L45.36,20.13 L43.89,19.25 L42.34,18.52 L40.72,17.93 L39.02,17.50 L37.26,17.23 L35.45,17.14 L33.63,17.23 L31.87,17.50 L30.18,17.93 L28.55,18.52 L27.00,19.25 L25.54,20.13 L24.17,21.14 L22.91,22.27 L21.77,23.51 L20.75,24.86 L19.86,26.30 L19.12,27.83 L18.52,29.44 L18.08,31.12 L17.81,32.85 L17.72,34.64 L17.81,36.43 L18.08,38.17 L18.52,39.85 L19.12,41.46 L19.86,42.99 L20.75,44.43 L21.77,45.78 L22.91,47.02 L24.17,48.15 L25.54,49.16 L27.00,50.04 L28.55,50.77 L30.18,51.36 L31.87,51.79 L33.63,52.06 L35.45,52.15 Z" fill="#3990e4" stroke="#3990e4" stroke-width="1" stroke-linejoin="round"/><path d="M5.91,71.11 L10.34,71.11 L10.34,68.19 L5.91,68.19 L5.91,71.11 Z" fill="#002050" stroke="#002050" stroke-width="1" stroke-linejoin="round"/><path d="M84.18,71.11 L88.62,71.11 L88.62,68.19 L84.18,68.19 L84.18,71.11 Z" fill="#002050" stroke="#002050" stroke-width="1" stroke-linejoin="round"/><path d="M7.38,74.03 L5.91,76.95 L7.40,76.95 L7.42,76.95 L7.44,76.95 L7.46,76.95 L7.47,76.95 L7.49,76.95 L7.52,76.95 L7.54,76.95 L7.56,76.95 L7.57,76.95 L7.59,76.95 L7.62,76.95 L7.64,76.95 L7.66,76.95 L7.67,76.95 L7.69,76.95 L7.72,76.95 L7.74,76.95 L7.76,76.95 L7.78,76.95 L7.80,76.95 L7.82,76.95 L7.84,76.95 L7.87,76.95 L7.88,76.95 L7.90,76.95 L7.93,76.95 L7.95,76.95 L7.97,76.95 L7.99,76.95 L8.01,76.95 L8.03,76.95 L8.05,76.95 L8.08,76.95 L8.09,76.95 L8.12,76.95 L8.14,76.95 L8.16,76.95 L8.19,76.95 L8.20,76.95 L8.22,76.95 L8.25,76.95 L8.27,76.95 L8.29,76.95 L8.31,76.95 L8.33,76.95 L8.36,76.95 L8.38,76.95 L8.40,76.95 L8.42,76.95 L8.44,76.95 L8.46,76.95 L8.49,76.95 L8.51,76.95 L8.53,76.95 L8.55,76.95 L8.57,76.95 L8.60,76.95 L8.62,76.95 L8.63,76.95 L8.66,76.95 L8.68,76.95 L8.70,76.95 L8.73,76.95 L8.74,76.95 L8.77,76.95 L8.79,76.95 L8.81,76.95 L8.83,76.95 L8.85,76.95 L8.87,76.95 L8.89,76.95 L8.92,76.95 L8.94,76.95 L8.96,76.95 L8.98,76.95 L9.00,76.95 L9.02,76.95 L9.04,76.95 L9.07,76.95 L9.08,76.95 L9.10,76.95 L9.12,76.95 L9.15,76.95 L9.17,76.95 L9.18,76.95 L9.20,76.95 L9.22,76.95 L9.25,76.95 L9.27,76.95 L9.28,76.95 L9.30,76.95 L9.32,76.95 L9.34,76.95 L9.36,76.95 L9.38,76.95 L9.40,76.95 L9.42,76.95 L9.44,76.95 L9.46,76.95 L9.47,76.95 L9.49,76.95 L9.51,76.95 L9.53,76.95 L9.55,76.95 L9.56,76.95 L9.58,76.95 L9.60,76.95 L9.62,76.95 L9.64,76.95 L9.65,76.95 L9.67,76.95 L9.68,76.95 L9.70,76.95 L9.72,76.95 L9.73,76.95 L9.75,76.95 L9.77,76.95 L9.78,76.95 L9.80,76.95 L9.81,76.95 L9.83,76.95 L9.84,76.95 L9.86,76.95 L9.88,76.95 L9.89,76.95 L9.90,76.95 L9.92,76.95 L9.93,76.95 L9.95,76.95 L9.96,76.95 L9.98,76.95 L10.01,76.95 L10.04,76.95 L10.06,76.95 L10.08,76.95 L10.11,76.95 L10.13,76.95 L10.15,76.95 L10.17,76.95 L10.18,76.95 L10.20,76.95 L10.22,76.95 L10.24,76.95 L10.25,76.95 L10.27,76.95 L10.30,76.95 L10.32,76.95 L10.34,76.95 L10.33,74.03 L10.30,74.03 L10.29,74.03 L10.26,74.03 L10.24,74.03 L10.23,74.03 L10.21,74.03 L10.19,74.03 L10.17,74.03 L10.15,74.03 L10.13,74.03 L10.11,74.03 L10.09,74.03 L10.06,74.03 L10.04,74.03 L10.01,74.03 L9.98,74.03 L9.97,74.03 L9.95,74.03 L9.94,74.03 L9.92,74.03 L9.91,74.03 L9.90,74.03 L9.88,74.03 L9.86,74.03 L9.85,74.03 L9.83,74.03 L9.82,74.03 L9.81,74.03 L9.79,74.03 L9.77,74.03 L9.75,74.03 L9.74,74.03 L9.73,74.03 L9.71,74.03 L9.69,74.03 L9.67,74.03 L9.66,74.03 L9.64,74.03 L9.62,74.03 L9.60,74.03 L9.59,74.03 L9.57,74.03 L9.55,74.03 L9.54,74.03 L9.52,74.03 L9.50,74.03 L9.48,74.03 L9.46,74.03 L9.44,74.03 L9.42,74.03 L9.40,74.03 L9.39,74.03 L9.37,74.03 L9.35,74.03 L9.33,74.03 L9.31,74.03 L9.29,74.03 L9.27,74.03 L9.25,74.03 L9.23,74.03 L9.21,74.03 L9.20,74.03 L9.17,74.03 L9.15,74.03 L9.13,74.03 L9.11,74.03 L9.09,74.03 L9.07,74.03 L9.05,74.03 L9.03,74.03 L9.01,74.03 L8.99,74.03 L8.97,74.03 L8.95,74.03 L8.92,74.03 L8.90,74.03 L8.88,74.03 L8.86,74.03 L8.84,74.03 L8.82,74.03 L8.80,74.03 L8.77,74.03 L8.76,74.03 L8.73,74.03 L8.71,74.03 L8.69,74.03 L8.67,74.03 L8.65,74.03 L8.63,74.03 L8.60,74.03 L8.58,74.03 L8.56,74.03 L8.54,74.03 L8.52,74.03 L8.50,74.03 L8.47,74.03 L8.45,74.03 L8.43,74.03 L8.41,74.03 L8.39,74.03 L8.36,74.03 L8.34,74.03 L8.33,74.03 L8.30,74.03 L8.28,74.03 L8.26,74.03 L8.23,74.03 L8.22,74.03 L8.19,74.03 L8.17,74.03 L8.15,74.03 L8.12,74.03 L8.11,74.03 L8.09,74.03 L8.06,74.03 L8.04,74.03 L8.02,74.03 L8.00,74.03 L7.98,74.03 L7.96,74.03 L7.93,74.03 L7.91,74.03 L7.90,74.03 L7.87,74.03 L7.85,74.03 L7.83,74.03 L7.81,74.03 L7.79,74.03 L7.77,74.03 L7.75,74.03 L7.72,74.03 L7.70,74.03 L7.69,74.03 L7.67,74.03 L7.64,74.03 L7.62,74.03 L7.60,74.03 L7.59,74.03 L7.57,74.03 L7.54,74.03 L7.52,74.03 L7.50,74.03 L7.49,74.03 L7.47,74.03 L7.45,74.03 L7.43,74.03 L7.40,74.03 L7.38,74.03 Z" fill="#002050" stroke="#002050" stroke-width="1" stroke-linejoin="round"/><path d="M85.66,74.03 L84.18,76.95 L85.68,76.95 L85.70,76.95 L85.72,76.95 L85.74,76.95 L85.75,76.95 L85.77,76.95 L85.79,76.95 L85.81,76.95 L85.83,76.95 L85.85,76.95 L85.87,76.95 L85.89,76.95 L85.91,76.95 L85.94,76.95 L85.95,76.95 L85.97,76.95 L85.99,76.95 L86.02,76.95 L86.04,76.95 L86.05,76.95 L86.07,76.95 L86.10,76.95 L86.12,76.95 L86.14,76.95 L86.16,76.95 L86.18,76.95 L86.20,76.95 L86.23,76.95 L86.25,76.95 L86.26,76.95 L86.29,76.95 L86.31,76.95 L86.33,76.95 L86.35,76.95 L86.37,76.95 L86.39,76.95 L86.42,76.95 L86.44,76.95 L86.46,76.95 L86.48,76.95 L86.50,76.95 L86.52,76.95 L86.55,76.95 L86.57,76.95 L86.59,76.95 L86.61,76.95 L86.63,76.95 L86.66,76.95 L86.68,76.95 L86.69,76.95 L86.72,76.95 L86.74,76.95 L86.76,76.95 L86.79,76.95 L86.80,76.95 L86.83,76.95 L86.85,76.95 L86.87,76.95 L86.90,76.95 L86.91,76.95 L86.93,76.95 L86.96,76.95 L86.98,76.95 L87.00,76.95 L87.02,76.95 L87.04,76.95 L87.07,76.95 L87.09,76.95 L87.11,76.95 L87.13,76.95 L87.15,76.95 L87.17,76.95 L87.19,76.95 L87.22,76.95 L87.24,76.95 L87.25,76.95 L87.28,76.95 L87.30,76.95 L87.32,76.95 L87.34,76.95 L87.36,76.95 L87.38,76.95 L87.40,76.95 L87.42,76.95 L87.44,76.95 L87.46,76.95 L87.48,76.95 L87.50,76.95 L87.52,76.95 L87.54,76.95 L87.56,76.95 L87.58,76.95 L87.60,76.95 L87.62,76.95 L87.64,76.95 L87.65,76.95 L87.67,76.95 L87.69,76.95 L87.71,76.95 L87.73,76.95 L87.75,76.95 L87.77,76.95 L87.79,76.95 L87.81,76.95 L87.83,76.95 L87.84,76.95 L87.86,76.95 L87.88,76.95 L87.89,76.95 L87.91,76.95 L87.92,76.95 L87.94,76.95 L87.96,76.95 L87.98,76.95 L88.00,76.95 L88.01,76.95 L88.03,76.95 L88.04,76.95 L88.06,76.95 L88.08,76.95 L88.09,76.95 L88.10,76.95 L88.12,76.95 L88.14,76.95 L88.15,76.95 L88.16,76.95 L88.18,76.95 L88.19,76.95 L88.21,76.95 L88.22,76.95 L88.23,76.95 L88.26,76.95 L88.29,76.95 L88.32,76.95 L88.34,76.95 L88.36,76.95 L88.38,76.95 L88.41,76.95 L88.43,76.95 L88.45,76.95 L88.46,76.95 L88.48,76.95 L88.50,76.95 L88.52,76.95 L88.53,76.95 L88.55,76.95 L88.57,76.95 L88.59,76.95 L88.62,76.95 L88.61,74.03 L88.58,74.03 L88.57,74.03 L88.54,74.03 L88.52,74.03 L88.50,74.03 L88.48,74.03 L88.47,74.03 L88.45,74.03 L88.43,74.03 L88.41,74.03 L88.39,74.03 L88.37,74.03 L88.34,74.03 L88.32,74.03 L88.29,74.03 L88.26,74.03 L88.24,74.03 L88.23,74.03 L88.21,74.03 L88.20,74.03 L88.18,74.03 L88.17,74.03 L88.16,74.03 L88.14,74.03 L88.13,74.03 L88.11,74.03 L88.10,74.03 L88.08,74.03 L88.07,74.03 L88.05,74.03 L88.03,74.03 L88.02,74.03 L88.00,74.03 L87.99,74.03 L87.97,74.03 L87.95,74.03 L87.94,74.03 L87.92,74.03 L87.90,74.03 L87.88,74.03 L87.86,74.03 L87.85,74.03 L87.83,74.03 L87.81,74.03 L87.79,74.03 L87.77,74.03 L87.76,74.03 L87.74,74.03 L87.72,74.03 L87.70,74.03 L87.68,74.03 L87.67,74.03 L87.65,74.03 L87.63,74.03 L87.61,74.03 L87.59,74.03 L87.57,74.03 L87.55,74.03 L87.53,74.03 L87.51,74.03 L87.49,74.03 L87.47,74.03 L87.45,74.03 L87.43,74.03 L87.41,74.03 L87.39,74.03 L87.37,74.03 L87.35,74.03 L87.33,74.03 L87.31,74.03 L87.28,74.03 L87.27,74.03 L87.25,74.03 L87.22,74.03 L87.20,74.03 L87.18,74.03 L87.16,74.03 L87.14,74.03 L87.12,74.03 L87.10,74.03 L87.07,74.03 L87.05,74.03 L87.03,74.03 L87.01,74.03 L86.99,74.03 L86.97,74.03 L86.94,74.03 L86.93,74.03 L86.90,74.03 L86.88,74.03 L86.86,74.03 L86.83,74.03 L86.82,74.03 L86.80,74.03 L86.77,74.03 L86.75,74.03 L86.73,74.03 L86.71,74.03 L86.69,74.03 L86.66,74.03 L86.64,74.03 L86.62,74.03 L86.60,74.03 L86.58,74.03 L86.56,74.03 L86.53,74.03 L86.51,74.03 L86.49,74.03 L86.47,74.03 L86.45,74.03 L86.42,74.03 L86.40,74.03 L86.39,74.03 L86.36,74.03 L86.34,74.03 L86.32,74.03 L86.29,74.03 L86.28,74.03 L86.26,74.03 L86.23,74.03 L86.21,74.03 L86.19,74.03 L86.17,74.03 L86.15,74.03 L86.13,74.03 L86.10,74.03 L86.08,74.03 L86.07,74.03 L86.05,74.03 L86.02,74.03 L86.00,74.03 L85.98,74.03 L85.96,74.03 L85.94,74.03 L85.92,74.03 L85.90,74.03 L85.88,74.03 L85.86,74.03 L85.84,74.03 L85.82,74.03 L85.80,74.03 L85.78,74.03 L85.76,74.03 L85.74,74.03 L85.72,74.03 L85.70,74.03 L85.68,74.03 L85.66,74.03 Z" fill="#002050" stroke="#002050" stroke-width="1" stroke-linejoin="round"/><path d="M5.91,82.78 L10.34,82.78 L10.34,79.86 L5.91,79.86 L5.91,82.78 Z" fill="#002050" stroke="#002050" stroke-width="1" stroke-linejoin="round"/><path d="M84.18,82.78 L88.62,82.78 L88.62,79.86 L84.18,79.86 L84.18,82.78 Z" fill="#002050" stroke="#002050" stroke-width="1" stroke-linejoin="round"/><path d="M53.17,34.64 L53.08,36.43 L52.81,38.17 L52.37,39.85 L51.78,41.46 L51.03,42.99 L50.14,44.43 L49.12,45.78 L47.98,47.02 L46.72,48.15 L45.36,49.16 L43.89,50.04 L42.34,50.77 L40.72,51.36 L39.02,51.79 L37.26,52.06 L35.45,52.15 L33.63,52.06 L31.87,51.79 L30.18,51.36 L28.55,50.77 L27.00,50.04 L25.54,49.16 L24.17,48.15 L22.91,47.02 L21.77,45.78 L20.75,44.43 L19.86,42.99 L19.12,41.46 L18.52,39.85 L18.08,38.17 L17.81,36.43 L17.72,34.64 L17.81,32.85 L18.08,31.12 L18.52,29.44 L19.12,27.83 L19.86,26.30 L20.75,24.86 L21.77,23.51 L22.91,22.27 L24.17,21.14 L25.54,20.13 L27.00,19.25 L28.55,18.52 L30.18,17.93 L31.87,17.50 L33.63,17.23 L35.45,17.14 L37.26,17.23 L39.02,17.50 L40.72,17.93 L42.34,18.52 L43.89,19.25 L45.36,20.13 L46.72,21.14 L47.98,22.27 L49.12,23.51 L50.14,24.86 L51.03,26.30 L51.78,27.83 L52.37,29.44 L52.81,31.12 L53.08,32.85 L53.17,34.64 Z" fill="#002050" stroke="#002050" stroke-width="1" stroke-linejoin="round"/><path d="M50.22,34.64 L49.92,37.58 L49.05,40.32 L47.69,42.80 L45.89,44.96 L43.70,46.74 L41.20,48.08 L38.42,48.93 L35.45,49.23 L32.47,48.93 L29.70,48.08 L27.19,46.74 L25.00,44.96 L23.20,42.80 L21.84,40.32 L20.98,37.58 L20.68,34.64 L20.98,31.70 L21.84,28.97 L23.20,26.49 L25.00,24.33 L27.19,22.55 L29.70,21.20 L32.47,20.35 L35.45,20.06 L38.42,20.35 L41.20,21.20 L43.70,22.55 L45.89,24.33 L47.69,26.49 L49.05,28.97 L49.92,31.70 L50.22,34.64 Z" fill="#3990e4" stroke="#3990e4" stroke-width="1" stroke-linejoin="round"/><path d="M36.92,22.97 L36.92,37.56 L33.97,37.56 L33.97,22.97 L36.92,22.97 Z" fill="#002050" stroke="#002050" stroke-width="1" stroke-linejoin="round"/></svg>