<svg xmlns="http://www.w3.org/2000/svg" viewBox="0.32 0.32 100.00 100.00"><path d="M3.95,46.36 L46.36,3.95 L47.24,3.24 L48.21,2.73 L49.25,2.42 L50.32,2.32 L51.38,2.42 L52.42,2.73 L53.39,3.24 L54.27,3.95 L96.68,46.36 L97.39,47.24 L97.91,48.21 L98.21,49.25 L98.32,50.32 L98.21,51.38 L97.91,52.42 L97.39,53.39 L96.68,54.27 L54.27,96.68 L53.39,97.39 L52.42,97.91 L51.38,98.21 L50.32,98.32 L49.25,98.21 L48.21,97.91 L47.24,97.39 L46.36,96.68 L3.95,54.27 L3.24,53.39 L2.73,52.42 L2.42,51.38 L2.32,50.32 L2.42,49.25 L2.73,48.21 L3.24,47.24 L3.95,46.36 Z" fill="#3990e4" stroke="#1e1e1e" stroke-width="1" stroke-linejoin="round"/><path d="M51.30,82.54 L49.79,82.43 L48.33,82.10 L46.93,81.56 L45.62,80.81 L44.43,79.89 L43.40,78.80 L42.53,77.57 L41.85,76.23 L41.38,74.79 L41.13,73.31 L41.09,71.81 L41.27,70.32 L41.68,68.86 L42.29,67.49 L43.09,66.23 L44.07,65.09 L45.22,64.10 L46.49,63.30 L47.86,62.69 L49.31,62.29 L50.81,62.11 L52.31,62.15 L53.79,62.40 L55.22,62.88 L56.56,63.56 L57.79,64.42 L58.87,65.46 L59.80,66.65 L60.54,67.96 L61.08,69.36 L61.41,70.83 L61.52,72.33 L61.32,74.33 L60.73,76.24 L59.79,77.99 L58.52,79.55 L56.96,80.82 L55.20,81.76 L53.30,82.34 L51.30,82.54 Z" fill="#ffffff" stroke="#ffffff" stroke-width="1" stroke-linejoin="round" opacity="0.9"/><path d="M51.30,66.42 L49.59,66.69 L48.03,67.44 L46.76,68.60 L45.87,70.09 L45.46,71.77 L45.55,73.49 L46.14,75.12 L47.17,76.51 L48.57,77.53 L50.19,78.11 L51.92,78.19 L53.60,77.77 L55.08,76.88 L56.24,75.60 L56.98,74.04 L57.23,72.33 L57.12,71.17 L56.78,70.06 L56.23,69.04 L55.50,68.14 L54.59,67.41 L53.57,66.86 L52.45,66.53 L51.30,66.42 L51.30,66.42 Z" fill="#3990e4" stroke="#3990e4" stroke-width="1" stroke-linejoin="round" opacity="0.9"/><path d="M75.12,36.08 L62.30,36.08 L62.05,36.15 L61.88,36.36 L61.85,36.62 L61.98,36.85 L65.64,40.51 L65.79,40.88 L65.64,41.25 L55.72,51.18 L54.54,52.60 L54.54,26.10 L54.67,25.78 L54.99,25.65 L60.34,25.65 L60.59,25.57 L60.75,25.37 L60.78,25.11 L60.66,24.87 L51.57,15.82 L51.26,15.69 L50.94,15.82 L41.90,24.87 L41.78,25.11 L41.81,25.37 L41.97,25.57 L42.22,25.65 L47.52,25.65 L47.83,25.79 L47.98,26.10 L47.98,52.58 L46.82,51.18 L36.89,41.25 L36.78,41.08 L36.74,40.88 L36.78,40.68 L36.89,40.51 L40.55,36.85 L40.67,36.54 L40.55,36.22 L40.40,36.13 L40.23,36.09 L27.41,36.09 L27.10,36.23 L26.97,36.54 L26.97,49.35 L27.00,49.52 L27.10,49.66 L27.25,49.76 L27.42,49.79 L27.74,49.67 L31.57,45.83 L31.74,45.72 L31.94,45.68 L32.14,45.72 L32.31,45.83 L42.23,55.76 L43.69,57.41 L44.95,59.21 L45.99,61.14 L46.80,63.19 L48.96,62.38 L51.26,62.10 L53.56,62.36 L55.73,63.15 L56.55,61.12 L57.59,59.19 L58.84,57.40 L60.30,55.76 L70.22,45.83 L70.39,45.72 L70.59,45.68 L70.79,45.72 L70.96,45.83 L74.80,49.67 L75.11,49.79 L75.43,49.66 L75.57,49.35 L75.57,36.53 L75.43,36.21 L75.12,36.08 L75.12,36.08 Z" fill="#ffffff" stroke="#1e1e1e" stroke-width="1" stroke-linejoin="round" opacity="0.85"/></svg>