<svg xmlns="http://www.w3.org/2000/svg" viewBox="-1.32 4.08 100.00 89.18"><path d="M85.18,72.72 L84.51,72.72 L84.51,73.40 L84.51,84.75 L84.38,86.06 L83.99,87.28 L83.39,88.39 L82.61,89.34 L81.67,90.13 L80.58,90.75 L79.39,91.14 L78.10,91.27 L7.08,91.27 L5.78,91.15 L4.58,90.79 L3.51,90.20 L2.58,89.40 L1.80,88.41 L1.19,87.28 L0.81,86.06 L0.68,84.75 L0.68,31.15 L0.80,29.82 L1.15,28.60 L1.73,27.50 L2.51,26.56 L3.49,25.77 L4.60,25.15 L5.80,24.76 L7.08,24.63 L12.17,24.63 L12.85,24.63 L12.85,23.95 L12.85,12.60 L12.96,11.28 L13.32,10.05 L13.90,8.96 L14.68,8.02 L15.66,7.22 L16.77,6.60 L17.96,6.21 L19.25,6.08 L90.27,6.08 L91.56,6.21 L92.75,6.60 L93.84,7.22 L94.78,8.01 L95.55,8.96 L96.16,10.07 L96.55,11.29 L96.68,12.60 L96.68,66.21 L96.55,67.52 L96.16,68.73 L95.55,69.85 L94.78,70.80 L93.84,71.59 L92.75,72.20 L91.56,72.59 L90.27,72.72 L85.18,72.72 Z" fill="#3990e4" stroke="#1e1e1e" stroke-width="1" stroke-linejoin="round"/><path d="M91.94,66.28 L91.94,66.28 L91.94,66.21 L91.94,12.60 L91.82,11.98 L91.46,11.45 L90.95,11.09 L90.35,10.92 L90.35,10.91 L90.27,10.91 L19.25,10.91 L18.63,11.04 L18.10,11.41 L17.75,11.92 L17.58,12.53 L17.58,12.53 L17.58,12.60 L17.58,23.95 L17.58,24.63 L18.25,24.63 L41.66,24.63 L12.85,57.22 L12.85,30.13 L12.85,29.46 L12.17,29.46 L7.08,29.46 L6.46,29.59 L5.94,29.95 L5.58,30.47 L5.41,31.07 L5.41,31.07 L5.41,31.15 L5.41,84.75 L5.53,85.37 L5.89,85.90 L6.40,86.26 L7.01,86.43 L7.01,86.44 L7.08,86.44 L78.10,86.44 L78.73,86.31 L79.25,85.95 L79.61,85.43 L79.77,84.82 L79.77,84.82 L79.77,84.75 L79.77,73.40 L79.77,72.72 L79.10,72.72 L55.69,72.72 L84.51,40.13 L84.51,67.22 L84.51,67.90 L85.18,67.90 L90.27,67.90 L90.90,67.77 L91.42,67.40 L91.78,66.89 L91.94,66.28 Z" fill="#ffffff" stroke="#1e1e1e" stroke-width="1" stroke-linejoin="round"/><path d="M79.10,24.63 L80.25,24.75 L81.34,25.10 L82.11,25.53 L82.81,26.13 L41.62,72.72 L18.25,72.72 L17.10,72.61 L16.01,72.25 L15.25,71.82 L14.55,71.22 L55.73,24.63 L79.10,24.63 Z" fill="#3990e4" stroke="#1e1e1e" stroke-width="1" stroke-linejoin="round"/></svg>