<svg xmlns="http://www.w3.org/2000/svg" viewBox="-2.00 -2.00 100.00 100.00"><path d="M67.20,14.76 L67.20,3.60 L67.17,3.11 L66.77,1.88 L65.98,0.90 L64.89,0.24 L63.60,0.00 L63.11,0.03 L62.64,0.13 L61.59,0.61 L60.75,1.40 L60.20,2.42 L60.00,3.60 L60.00,14.40 L51.60,14.40 L51.60,3.60 L51.57,3.11 L51.17,1.88 L50.38,0.90 L49.29,0.24 L48.00,0.00 L47.51,0.03 L46.28,0.43 L45.30,1.22 L44.64,2.31 L44.40,3.60 L44.40,14.40 L36.00,14.40 L36.00,3.60 L35.97,3.11 L35.57,1.88 L34.78,0.90 L33.69,0.24 L32.40,0.00 L31.00,0.28 L29.85,1.05 L29.08,2.20 L28.80,3.60 L28.80,14.76 L26.23,15.48 L23.83,16.56 L21.64,17.97 L19.67,19.67 L17.97,21.63 L16.57,23.83 L15.49,26.23 L14.76,28.80 L3.60,28.80 L3.11,28.83 L1.88,29.23 L0.90,30.02 L0.24,31.11 L0.00,32.40 L0.03,32.89 L0.43,34.12 L1.22,35.10 L2.31,35.76 L3.60,36.00 L14.40,36.00 L14.40,44.40 L3.60,44.40 L3.11,44.43 L1.88,44.83 L0.90,45.62 L0.24,46.71 L0.00,48.00 L0.03,48.49 L0.43,49.72 L1.22,50.70 L2.31,51.36 L3.60,51.60 L14.40,51.60 L14.40,60.00 L3.60,60.00 L3.11,60.03 L1.88,60.43 L0.90,61.22 L0.24,62.31 L0.00,63.60 L0.28,65.00 L1.05,66.15 L2.20,66.92 L3.60,67.20 L14.76,67.20 L15.49,69.77 L16.57,72.17 L17.97,74.37 L19.67,76.33 L21.64,78.03 L23.83,79.43 L26.23,80.52 L28.80,81.24 L28.80,92.40 L28.83,92.89 L29.23,94.12 L30.02,95.10 L31.11,95.76 L32.40,96.00 L32.89,95.97 L34.12,95.57 L35.10,94.78 L35.76,93.69 L36.00,92.40 L36.00,81.60 L44.40,81.60 L44.40,92.40 L44.43,92.89 L44.83,94.12 L45.62,95.10 L46.71,95.76 L48.00,96.00 L48.49,95.97 L49.72,95.57 L50.70,94.78 L51.36,93.69 L51.60,92.40 L51.60,81.60 L60.00,81.60 L60.00,92.40 L60.03,92.89 L60.43,94.12 L61.22,95.10 L62.31,95.76 L63.60,96.00 L65.00,95.72 L66.15,94.95 L66.92,93.80 L67.20,92.40 L67.20,81.24 L69.77,80.52 L72.16,79.44 L74.36,78.03 L76.32,76.33 L78.02,74.37 L79.43,72.18 L80.51,69.79 L81.24,67.22 L92.40,67.22 L92.89,67.19 L94.12,66.79 L95.10,66.00 L95.76,64.92 L96.00,63.62 L95.97,63.14 L95.57,61.91 L94.78,60.92 L93.69,60.26 L92.40,60.02 L81.60,60.02 L81.60,51.62 L92.40,51.62 L92.89,51.59 L94.12,51.19 L95.10,50.40 L95.76,49.32 L96.00,48.02 L95.97,47.54 L95.57,46.31 L94.78,45.32 L93.69,44.66 L92.40,44.42 L81.60,44.42 L81.60,36.02 L92.40,36.02 L92.89,35.99 L94.12,35.59 L95.10,34.80 L95.76,33.72 L96.00,32.42 L95.72,31.02 L94.95,29.88 L93.80,29.11 L92.40,28.82 L81.24,28.82 L80.52,26.25 L79.44,23.85 L78.04,21.65 L76.34,19.68 L74.37,17.98 L72.17,16.57 L69.77,15.49 L67.20,14.76 Z" fill="#3990e4" stroke="#1e1e1e" stroke-width="1" stroke-linejoin="round"/><path d="M76.83,31.22 L76.54,29.77 L76.01,27.89 L75.22,26.13 L74.19,24.51 L72.94,23.07 L71.50,21.82 L69.89,20.79 L68.13,20.00 L66.25,19.46 L64.80,19.17 L64.80,19.20 L31.20,19.20 L31.20,19.17 L29.76,19.46 L27.87,19.99 L26.12,20.79 L24.51,21.82 L23.07,23.06 L21.82,24.50 L20.79,26.11 L20.00,27.87 L19.46,29.75 L19.17,31.19 L19.20,31.19 L19.20,64.79 L19.17,64.79 L19.46,66.25 L20.00,68.13 L20.79,69.88 L21.82,71.49 L23.07,72.93 L24.51,74.18 L26.12,75.21 L27.87,76.01 L29.76,76.54 L31.20,76.83 L31.20,76.80 L64.80,76.80 L64.80,76.83 L66.25,76.54 L68.13,76.00 L69.88,75.21 L71.49,74.18 L72.93,72.94 L74.17,71.50 L75.21,69.89 L76.00,68.14 L76.53,66.26 L76.83,64.82 L76.80,64.82 L76.80,31.22 L76.83,31.22 Z" fill="#ffffff" stroke="#1e1e1e" stroke-width="1" stroke-linejoin="round"/><path d="M76.54,29.77 L76.83,31.22 L76.80,31.22 L76.80,64.82 L76.83,64.82 L76.53,66.26 L76.00,68.14 L75.21,69.89 L74.17,71.50 L72.93,72.94 L71.49,74.18 L69.88,75.21 L68.13,76.00 L66.25,76.54 L64.80,76.83 L64.80,76.80 L31.20,76.80 L31.20,76.83 L29.76,76.54 L27.87,76.01 L26.12,75.21 L24.51,74.18 L23.07,72.93 L21.82,71.49 L20.79,69.88 L20.00,68.13 L19.46,66.25 L19.17,64.79 L19.20,64.79 L19.20,31.19 L19.17,31.19 L19.46,29.75 L20.00,27.87 L20.79,26.11 L21.82,24.50 L23.07,23.06 L24.51,21.82 L26.12,20.79 L27.87,19.99 L29.76,19.46 L31.20,19.17 L31.20,19.20 L64.80,19.20 L64.80,19.17 L66.25,19.46 L68.13,20.00 L69.89,20.79 L71.50,21.82 L72.94,23.07 L74.19,24.51 L75.22,26.13 L76.01,27.89 L76.54,29.77 Z" fill="#3990e4" stroke="#1e1e1e" stroke-width="1" stroke-linejoin="round"/><path d="M25.03,48.24 L26.61,46.67 L39.02,59.12 L39.23,59.63 L39.02,60.13 L37.44,61.70 L36.94,61.91 L36.43,61.70 L25.02,50.26 L24.71,49.79 L24.60,49.25 L24.71,48.70 L25.02,48.24 L25.03,48.24 Z" fill="#b4d2f7" stroke="#b4d2f7" stroke-width="1" stroke-linejoin="round"/><path d="M26.58,51.84 L25.01,50.26 L24.70,49.80 L24.59,49.25 L24.70,48.70 L25.01,48.24 L36.65,36.63 L37.16,36.42 L37.66,36.63 L39.24,38.21 L39.44,38.72 L39.23,39.22 L26.58,51.84 Z" fill="#f2f2f2" stroke="#f2f2f2" stroke-width="1" stroke-linejoin="round"/><path d="M58.56,61.71 L56.98,60.14 L56.83,59.91 L56.77,59.64 L56.83,59.36 L56.98,59.13 L69.41,46.66 L70.99,48.24 L71.30,48.70 L71.41,49.25 L71.30,49.79 L70.99,50.26 L59.56,61.72 L59.06,61.93 L58.56,61.72 L58.56,61.71 Z" fill="#b4d2f7" stroke="#b4d2f7" stroke-width="1" stroke-linejoin="round"/><path d="M56.74,38.22 L58.31,36.64 L58.82,36.43 L59.32,36.64 L70.97,48.25 L71.28,48.71 L71.39,49.26 L71.28,49.81 L70.97,50.27 L69.40,51.85 L56.75,39.24 L56.59,39.01 L56.53,38.73 L56.59,38.45 L56.74,38.22 Z" fill="#f2f2f2" stroke="#f2f2f2" stroke-width="1" stroke-linejoin="round"/><path d="M54.78,32.72 L52.26,31.91 L51.87,31.95 L51.62,32.24 L41.35,64.33 L41.38,64.71 L41.68,64.97 L44.19,65.77 L44.58,65.74 L44.84,65.44 L55.11,33.36 L55.07,32.97 L54.78,32.72 Z" fill="#f2f2f2" stroke="#1e1e1e" stroke-width="1" stroke-linejoin="round"/></svg>