<svg xmlns="http://www.w3.org/2000/svg" viewBox="14.00 -2.00 71.20 100.00"><path d="M53.14,55.08 L55.03,56.23 L56.74,57.61 L58.25,59.19 L59.53,60.96 L60.57,62.89 L61.34,64.96 L61.82,67.14 L61.98,69.43 L61.89,71.09 L61.64,72.71 L61.22,74.27 L60.66,75.77 L59.11,78.53 L57.06,80.94 L54.57,82.93 L51.72,84.43 L50.17,84.98 L48.56,85.38 L46.90,85.63 L45.18,85.71 L43.46,85.63 L41.79,85.38 L40.18,84.98 L38.64,84.43 L35.79,82.93 L33.30,80.94 L31.25,78.53 L29.70,75.77 L29.13,74.27 L28.72,72.71 L28.47,71.09 L28.38,69.43 L28.54,67.14 L29.02,64.96 L29.79,62.89 L30.83,60.96 L32.11,59.19 L33.62,57.61 L35.33,56.23 L37.22,55.08 L37.22,19.71 L37.38,18.16 L37.85,16.71 L38.58,15.40 L39.55,14.26 L40.73,13.32 L42.08,12.61 L43.58,12.16 L45.18,12.00 L46.78,12.16 L48.28,12.61 L49.63,13.32 L50.81,14.26 L51.78,15.40 L52.51,16.71 L52.98,18.16 L53.14,19.71 L53.14,55.08 Z" fill="#9cebff" stroke="#9cebff" stroke-width="1" stroke-linejoin="round"/><path d="M38.99,19.71 L39.12,18.51 L39.48,17.38 L40.05,16.36 L40.80,15.47 L41.72,14.74 L42.77,14.19 L43.93,13.84 L45.18,13.71 L46.43,13.84 L47.59,14.19 L48.64,14.74 L49.56,15.47 L50.31,16.36 L50.88,17.38 L51.24,18.51 L51.37,19.71 L51.37,54.28 L51.37,54.86 L51.37,56.15 L52.26,56.57 L53.96,57.60 L55.50,58.83 L56.85,60.25 L58.01,61.83 L58.94,63.56 L59.63,65.42 L60.06,67.38 L60.21,69.43 L59.91,72.37 L59.03,75.10 L57.64,77.58 L55.81,79.73 L53.58,81.51 L51.03,82.85 L48.21,83.70 L45.18,84.00 L42.15,83.70 L39.33,82.85 L36.77,81.51 L34.55,79.73 L32.71,77.58 L31.33,75.10 L30.45,72.37 L30.15,69.43 L30.29,67.38 L30.72,65.42 L31.42,63.56 L32.35,61.83 L33.50,60.25 L34.86,58.83 L36.40,57.60 L38.10,56.57 L38.99,56.15 L38.99,54.86 L38.99,54.65 L38.99,54.28 L38.99,19.71 Z" fill="#ffffff" stroke="#ffffff" stroke-width="1" stroke-linejoin="round"/><path d="M51.37,54.28 L53.14,55.08 L51.37,54.28 Z" fill="#ffffff" stroke="#ffffff" stroke-width="1" stroke-linejoin="round"/><path d="M66.76,25.71 L68.01,25.59 L69.17,25.24 L70.23,24.69 L71.14,23.96 L71.90,23.07 L72.47,22.05 L72.83,20.92 L72.95,19.71 L72.83,18.51 L72.47,17.38 L71.90,16.36 L71.14,15.47 L70.23,14.74 L69.17,14.19 L68.01,13.84 L66.76,13.71 L65.52,13.84 L64.36,14.19 L63.30,14.74 L62.39,15.47 L61.63,16.36 L61.06,17.38 L60.70,18.51 L60.58,19.71 L60.70,20.92 L61.06,22.05 L61.63,23.07 L62.39,23.96 L63.30,24.69 L64.36,25.24 L65.52,25.59 L66.76,25.71 Z" fill="#9cebff" stroke="#9cebff" stroke-width="1" stroke-linejoin="round"/><path d="M66.76,24.00 L67.66,23.91 L68.49,23.66 L69.24,23.27 L69.89,22.74 L70.43,22.11 L70.84,21.38 L71.10,20.58 L71.19,19.71 L71.10,18.85 L70.84,18.05 L70.43,17.32 L69.89,16.68 L69.24,16.16 L68.49,15.77 L67.66,15.52 L66.76,15.43 L65.87,15.52 L65.04,15.77 L64.29,16.16 L63.64,16.68 L63.10,17.32 L62.69,18.05 L62.43,18.85 L62.34,19.71 L62.43,20.58 L62.69,21.38 L63.10,22.11 L63.64,22.74 L64.29,23.27 L65.04,23.66 L65.87,23.91 L66.76,24.00 Z" fill="#ffffff" stroke="#ffffff" stroke-width="1" stroke-linejoin="round"/><path d="M72.95,34.62 L72.83,35.82 L72.47,36.95 L71.90,37.97 L71.14,38.86 L70.23,39.59 L69.17,40.14 L68.01,40.49 L66.76,40.62 L65.52,40.49 L64.36,40.14 L63.30,39.59 L62.39,38.86 L61.63,37.97 L61.06,36.95 L60.70,35.82 L60.58,34.62 L60.70,33.41 L61.06,32.28 L61.63,31.26 L62.39,30.37 L63.30,29.64 L64.36,29.09 L65.52,28.74 L66.76,28.62 L68.01,28.74 L69.17,29.09 L70.23,29.64 L71.14,30.37 L71.90,31.26 L72.47,32.28 L72.83,33.41 L72.95,34.62 Z" fill="#9cebff" stroke="#9cebff" stroke-width="1" stroke-linejoin="round"/><path d="M71.19,34.62 L71.10,35.48 L70.84,36.28 L70.43,37.01 L69.89,37.65 L69.24,38.17 L68.49,38.56 L67.66,38.81 L66.76,38.90 L65.87,38.81 L65.04,38.56 L64.29,38.17 L63.64,37.65 L63.10,37.01 L62.69,36.28 L62.43,35.48 L62.34,34.62 L62.43,33.75 L62.69,32.95 L63.10,32.22 L63.64,31.58 L64.29,31.06 L65.04,30.67 L65.87,30.42 L66.76,30.33 L67.66,30.42 L68.49,30.67 L69.24,31.06 L69.89,31.58 L70.43,32.22 L70.84,32.95 L71.10,33.75 L71.19,34.62 Z" fill="#ffffff" stroke="#ffffff" stroke-width="1" stroke-linejoin="round"/><path d="M16.00,10.29 L16.22,8.21 L16.83,6.28 L17.81,4.53 L19.11,3.01 L20.68,1.76 L22.48,0.81 L24.47,0.21 L26.61,0.00 L72.59,0.00 L74.73,0.21 L76.72,0.81 L78.52,1.76 L80.09,3.01 L81.39,4.53 L82.37,6.28 L82.98,8.21 L83.20,10.29 L83.20,85.71 L82.98,87.79 L82.37,89.72 L81.39,91.46 L80.09,92.99 L78.52,94.24 L76.72,95.19 L74.73,95.79 L72.59,96.00 L26.61,96.00 L24.47,95.79 L22.48,95.19 L20.68,94.24 L19.11,92.99 L17.81,91.46 L16.83,89.72 L16.22,87.79 L16.00,85.71 L16.00,10.29 Z" fill="#9cebff" stroke="#1e1e1e" stroke-width="1" stroke-linejoin="round"/><path d="M26.61,1.71 L72.59,1.71 L74.37,1.89 L76.03,2.39 L77.53,3.18 L78.84,4.22 L79.92,5.49 L80.74,6.95 L81.25,8.56 L81.43,10.29 L81.43,85.71 L81.25,87.44 L80.74,89.05 L79.92,90.51 L78.84,91.78 L77.53,92.82 L76.03,93.61 L74.37,94.11 L72.59,94.29 L26.61,94.29 L24.83,94.11 L23.17,93.61 L21.67,92.82 L20.36,91.78 L19.28,90.51 L18.46,89.05 L17.95,87.44 L17.77,85.71 L17.77,10.29 L17.95,8.56 L18.46,6.95 L19.28,5.49 L20.36,4.22 L21.67,3.18 L23.17,2.39 L24.83,1.89 L26.61,1.71 Z" fill="#ffffff" stroke="#1e1e1e" stroke-width="1" stroke-linejoin="round"/><path d="M53.14,55.08 L55.03,56.23 L56.74,57.61 L58.25,59.19 L59.53,60.96 L60.57,62.89 L61.34,64.96 L61.82,67.14 L61.98,69.43 L61.89,71.09 L61.64,72.71 L61.22,74.27 L60.66,75.77 L59.11,78.53 L57.06,80.94 L54.57,82.93 L51.72,84.43 L50.17,84.98 L48.56,85.38 L46.90,85.63 L45.18,85.71 L43.46,85.63 L41.79,85.38 L40.18,84.98 L38.64,84.43 L35.79,82.93 L33.30,80.94 L31.25,78.53 L29.70,75.77 L29.13,74.27 L28.72,72.71 L28.47,71.09 L28.38,69.43 L28.54,67.14 L29.02,64.96 L29.79,62.89 L30.83,60.96 L32.11,59.19 L33.62,57.61 L35.33,56.23 L37.22,55.08 L37.22,19.71 L37.38,18.16 L37.85,16.71 L38.58,15.40 L39.55,14.26 L40.73,13.32 L42.08,12.61 L43.58,12.16 L45.18,12.00 L46.78,12.16 L48.28,12.61 L49.63,13.32 L50.81,14.26 L51.78,15.40 L52.51,16.71 L52.98,18.16 L53.14,19.71 L53.14,55.08 Z" fill="#9cebff" stroke="#9cebff" stroke-width="1" stroke-linejoin="round"/><path d="M38.99,19.71 L39.12,18.51 L39.48,17.38 L40.05,16.36 L40.80,15.47 L41.72,14.74 L42.77,14.19 L43.93,13.84 L45.18,13.71 L46.43,13.84 L47.59,14.19 L48.64,14.74 L49.56,15.47 L50.31,16.36 L50.88,17.38 L51.24,18.51 L51.37,19.71 L51.37,54.28 L51.37,54.86 L51.37,56.15 L52.26,56.57 L53.96,57.60 L55.50,58.83 L56.85,60.25 L58.01,61.83 L58.94,63.56 L59.63,65.42 L60.06,67.38 L60.21,69.43 L59.91,72.37 L59.03,75.10 L57.64,77.58 L55.81,79.73 L53.58,81.51 L51.03,82.85 L48.21,83.70 L45.18,84.00 L42.15,83.70 L39.33,82.85 L36.77,81.51 L34.55,79.73 L32.71,77.58 L31.33,75.10 L30.45,72.37 L30.15,69.43 L30.29,67.38 L30.72,65.42 L31.42,63.56 L32.35,61.83 L33.50,60.25 L34.86,58.83 L36.40,57.60 L38.10,56.57 L38.99,56.15 L38.99,54.86 L38.99,54.65 L38.99,54.28 L38.99,19.71 Z" fill="#ffffff" stroke="#ffffff" stroke-width="1" stroke-linejoin="round"/><path d="M51.37,54.28 L53.14,55.08 L51.37,54.28 Z" fill="#ffffff" stroke="#ffffff" stroke-width="1" stroke-linejoin="round"/><path d="M66.76,25.71 L68.01,25.59 L69.17,25.24 L70.23,24.69 L71.14,23.96 L71.90,23.07 L72.47,22.05 L72.83,20.92 L72.95,19.71 L72.83,18.51 L72.47,17.38 L71.90,16.36 L71.14,15.47 L70.23,14.74 L69.17,14.19 L68.01,13.84 L66.76,13.71 L65.52,13.84 L64.36,14.19 L63.30,14.74 L62.39,15.47 L61.63,16.36 L61.06,17.38 L60.70,18.51 L60.58,19.71 L60.70,20.92 L61.06,22.05 L61.63,23.07 L62.39,23.96 L63.30,24.69 L64.36,25.24 L65.52,25.59 L66.76,25.71 Z" fill="#9cebff" stroke="#9cebff" stroke-width="1" stroke-linejoin="round"/><path d="M66.76,24.00 L67.66,23.91 L68.49,23.66 L69.24,23.27 L69.89,22.74 L70.43,22.11 L70.84,21.38 L71.10,20.58 L71.19,19.71 L71.10,18.85 L70.84,18.05 L70.43,17.32 L69.89,16.68 L69.24,16.16 L68.49,15.77 L67.66,15.52 L66.76,15.43 L65.87,15.52 L65.04,15.77 L64.29,16.16 L63.64,16.68 L63.10,17.32 L62.69,18.05 L62.43,18.85 L62.34,19.71 L62.43,20.58 L62.69,21.38 L63.10,22.11 L63.64,22.74 L64.29,23.27 L65.04,23.66 L65.87,23.91 L66.76,24.00 Z" fill="#ffffff" stroke="#ffffff" stroke-width="1" stroke-linejoin="round"/><path d="M72.95,34.62 L72.83,35.82 L72.47,36.95 L71.90,37.97 L71.14,38.86 L70.23,39.59 L69.17,40.14 L68.01,40.49 L66.76,40.62 L65.52,40.49 L64.36,40.14 L63.30,39.59 L62.39,38.86 L61.63,37.97 L61.06,36.95 L60.70,35.82 L60.58,34.62 L60.70,33.41 L61.06,32.28 L61.63,31.26 L62.39,30.37 L63.30,29.64 L64.36,29.09 L65.52,28.74 L66.76,28.62 L68.01,28.74 L69.17,29.09 L70.23,29.64 L71.14,30.37 L71.90,31.26 L72.47,32.28 L72.83,33.41 L72.95,34.62 Z" fill="#9cebff" stroke="#9cebff" stroke-width="1" stroke-linejoin="round"/><path d="M71.19,34.62 L71.10,35.48 L70.84,36.28 L70.43,37.01 L69.89,37.65 L69.24,38.17 L68.49,38.56 L67.66,38.81 L66.76,38.90 L65.87,38.81 L65.04,38.56 L64.29,38.17 L63.64,37.65 L63.10,37.01 L62.69,36.28 L62.43,35.48 L62.34,34.62 L62.43,33.75 L62.69,32.95 L63.10,32.22 L63.64,31.58 L64.29,31.06 L65.04,30.67 L65.87,30.42 L66.76,30.33 L67.66,30.42 L68.49,30.67 L69.24,31.06 L69.89,31.58 L70.43,32.22 L70.84,32.95 L71.10,33.75 L71.19,34.62 Z" fill="#ffffff" stroke="#ffffff" stroke-width="1" stroke-linejoin="round"/><path d="M66.67,44.31 L67.05,44.45 L67.24,44.80 L67.24,44.88 L67.24,47.41 L68.90,45.97 L69.32,45.83 L69.71,46.02 L69.86,46.43 L69.66,46.82 L67.24,48.92 L67.24,51.12 L69.47,51.12 L71.60,48.73 L71.95,48.54 L72.34,48.63 L72.41,48.68 L72.60,49.03 L72.51,49.41 L72.46,49.48 L71.00,51.12 L73.56,51.12 L73.94,51.26 L74.13,51.61 L74.13,51.69 L73.99,52.07 L73.64,52.25 L73.56,52.26 L71.00,52.26 L72.46,53.91 L72.60,54.28 L72.46,54.65 L72.40,54.71 L72.03,54.85 L71.65,54.71 L71.59,54.65 L69.47,52.26 L67.24,52.26 L67.24,54.46 L69.66,56.57 L69.85,56.92 L69.77,57.30 L69.71,57.37 L69.36,57.56 L68.97,57.47 L68.90,57.42 L67.24,55.97 L67.24,58.51 L67.10,58.88 L66.74,59.07 L66.66,59.08 L66.28,58.94 L66.09,58.59 L66.09,58.51 L66.09,55.98 L64.43,57.42 L64.01,57.56 L63.62,57.37 L63.48,56.96 L63.67,56.57 L66.09,54.46 L66.09,52.26 L64.03,52.26 L61.74,54.84 L61.34,55.04 L60.93,54.90 L60.73,54.51 L60.88,54.09 L62.51,52.26 L59.77,52.26 L59.40,52.12 L59.21,51.77 L59.20,51.69 L59.34,51.32 L59.70,51.13 L59.77,51.12 L62.17,51.12 L60.88,49.67 L60.73,49.26 L60.93,48.87 L61.34,48.73 L61.74,48.92 L63.70,51.12 L66.09,51.12 L66.09,48.92 L63.67,46.82 L63.48,46.47 L63.57,46.08 L63.62,46.02 L63.97,45.83 L64.36,45.91 L64.43,45.96 L66.09,47.41 L66.09,44.88 L66.21,44.53 L66.51,44.33 L66.59,44.31 L66.67,44.31 Z" fill="#9cebff" stroke="#9cebff" stroke-width="1" stroke-linejoin="round"/><path d="M72.59,1.71 L26.61,1.71 L24.83,1.89 L23.17,2.39 L21.67,3.18 L20.36,4.22 L19.28,5.49 L18.46,6.95 L17.95,8.56 L17.77,10.29 L17.77,85.71 L17.95,87.44 L18.46,89.05 L19.28,90.51 L20.36,91.78 L21.67,92.82 L23.17,93.61 L24.83,94.11 L26.61,94.29 L72.59,94.29 L74.37,94.11 L76.03,93.61 L77.53,92.82 L78.84,91.78 L79.92,90.51 L80.74,89.05 L81.25,87.44 L81.43,85.71 L81.43,10.29 L81.25,8.56 L80.74,6.95 L79.92,5.49 L78.84,4.22 L77.53,3.18 L76.03,2.39 L74.37,1.89 L72.59,1.71 Z" fill="#9cebff" stroke="#9cebff" stroke-width="1" stroke-linejoin="round"/><path d="M53.14,55.08 L55.03,56.23 L56.74,57.61 L58.25,59.19 L59.53,60.96 L60.57,62.89 L61.34,64.96 L61.82,67.14 L61.98,69.43 L61.89,71.09 L61.64,72.71 L61.22,74.27 L60.66,75.77 L59.11,78.53 L57.06,80.94 L54.57,82.93 L51.72,84.43 L50.17,84.98 L48.56,85.38 L46.90,85.63 L45.18,85.71 L43.46,85.63 L41.79,85.38 L40.18,84.98 L38.64,84.43 L35.79,82.93 L33.30,80.94 L31.25,78.53 L29.70,75.77 L29.13,74.27 L28.72,72.71 L28.47,71.09 L28.38,69.43 L28.54,67.14 L29.02,64.96 L29.79,62.89 L30.83,60.96 L32.11,59.19 L33.62,57.61 L35.33,56.23 L37.22,55.08 L37.22,19.71 L37.38,18.16 L37.85,16.71 L38.58,15.40 L39.55,14.26 L40.73,13.32 L42.08,12.61 L43.58,12.16 L45.18,12.00 L46.78,12.16 L48.28,12.61 L49.63,13.32 L50.81,14.26 L51.78,15.40 L52.51,16.71 L52.98,18.16 L53.14,19.71 L53.14,55.08 Z" fill="#9cebff" stroke="#9cebff" stroke-width="1" stroke-linejoin="round"/><path d="M38.99,19.71 L39.12,18.51 L39.48,17.38 L40.05,16.36 L40.80,15.47 L41.72,14.74 L42.77,14.19 L43.93,13.84 L45.18,13.71 L46.43,13.84 L47.59,14.19 L48.64,14.74 L49.56,15.47 L50.31,16.36 L50.88,17.38 L51.24,18.51 L51.37,19.71 L51.37,54.28 L51.37,54.86 L51.37,56.15 L52.26,56.57 L53.96,57.60 L55.50,58.83 L56.85,60.25 L58.01,61.83 L58.94,63.56 L59.63,65.42 L60.06,67.38 L60.21,69.43 L59.91,72.37 L59.03,75.10 L57.64,77.58 L55.81,79.73 L53.58,81.51 L51.03,82.85 L48.21,83.70 L45.18,84.00 L42.15,83.70 L39.33,82.85 L36.77,81.51 L34.55,79.73 L32.71,77.58 L31.33,75.10 L30.45,72.37 L30.15,69.43 L30.29,67.38 L30.72,65.42 L31.42,63.56 L32.35,61.83 L33.50,60.25 L34.86,58.83 L36.40,57.60 L38.10,56.57 L38.99,56.15 L38.99,54.86 L38.99,54.65 L38.99,54.28 L38.99,19.71 Z" fill="#ffffff" stroke="#ffffff" stroke-width="1" stroke-linejoin="round"/><path d="M38.99,19.71 L39.12,18.51 L39.48,17.38 L40.05,16.36 L40.80,15.47 L41.72,14.74 L42.77,14.19 L43.93,13.84 L45.18,13.71 L46.43,13.84 L47.59,14.19 L48.64,14.74 L49.56,15.47 L50.31,16.36 L50.88,17.38 L51.24,18.51 L51.37,19.71 L51.37,54.28 L51.37,54.86 L51.37,56.15 L52.26,56.57 L53.96,57.60 L55.50,58.83 L56.85,60.25 L58.01,61.83 L58.94,63.56 L59.63,65.42 L60.06,67.38 L60.21,69.43 L59.91,72.37 L59.03,75.10 L57.64,77.58 L55.81,79.73 L53.58,81.51 L51.03,82.85 L48.21,83.70 L45.18,84.00 L42.15,83.70 L39.33,82.85 L36.77,81.51 L34.55,79.73 L32.71,77.58 L31.33,75.10 L30.45,72.37 L30.15,69.43 L30.29,67.38 L30.72,65.42 L31.42,63.56 L32.35,61.83 L33.50,60.25 L34.86,58.83 L36.40,57.60 L38.10,56.57 L38.99,56.15 L38.99,54.86 L38.99,54.65 L38.99,54.28 L38.99,19.71 Z" fill="#ffffff" stroke="#ffffff" stroke-width="1" stroke-linejoin="round"/><path d="M66.76,25.71 L68.01,25.59 L69.17,25.24 L70.23,24.69 L71.14,23.96 L71.90,23.07 L72.47,22.05 L72.83,20.92 L72.95,19.71 L72.83,18.51 L72.47,17.38 L71.90,16.36 L71.14,15.47 L70.23,14.74 L69.17,14.19 L68.01,13.84 L66.76,13.71 L65.52,13.84 L64.36,14.19 L63.30,14.74 L62.39,15.47 L61.63,16.36 L61.06,17.38 L60.70,18.51 L60.58,19.71 L60.70,20.92 L61.06,22.05 L61.63,23.07 L62.39,23.96 L63.30,24.69 L64.36,25.24 L65.52,25.59 L66.76,25.71 Z" fill="#9cebff" stroke="#9cebff" stroke-width="1" stroke-linejoin="round"/><path d="M66.76,24.00 L67.66,23.91 L68.49,23.66 L69.24,23.27 L69.89,22.74 L70.43,22.11 L70.84,21.38 L71.10,20.58 L71.19,19.71 L71.10,18.85 L70.84,18.05 L70.43,17.32 L69.89,16.68 L69.24,16.16 L68.49,15.77 L67.66,15.52 L66.76,15.43 L65.87,15.52 L65.04,15.77 L64.29,16.16 L63.64,16.68 L63.10,17.32 L62.69,18.05 L62.43,18.85 L62.34,19.71 L62.43,20.58 L62.69,21.38 L63.10,22.11 L63.64,22.74 L64.29,23.27 L65.04,23.66 L65.87,23.91 L66.76,24.00 Z" fill="#ffffff" stroke="#ffffff" stroke-width="1" stroke-linejoin="round"/><path d="M66.76,24.00 L67.66,23.91 L68.49,23.66 L69.24,23.27 L69.89,22.74 L70.43,22.11 L70.84,21.38 L71.10,20.58 L71.19,19.71 L71.10,18.85 L70.84,18.05 L70.43,17.32 L69.89,16.68 L69.24,16.16 L68.49,15.77 L67.66,15.52 L66.76,15.43 L65.87,15.52 L65.04,15.77 L64.29,16.16 L63.64,16.68 L63.10,17.32 L62.69,18.05 L62.43,18.85 L62.34,19.71 L62.43,20.58 L62.69,21.38 L63.10,22.11 L63.64,22.74 L64.29,23.27 L65.04,23.66 L65.87,23.91 L66.76,24.00 Z" fill="#ffffff" stroke="#ffffff" stroke-width="1" stroke-linejoin="round"/><path d="M72.95,34.62 L72.83,35.82 L72.47,36.95 L71.90,37.97 L71.14,38.86 L70.23,39.59 L69.17,40.14 L68.01,40.49 L66.76,40.62 L65.52,40.49 L64.36,40.14 L63.30,39.59 L62.39,38.86 L61.63,37.97 L61.06,36.95 L60.70,35.82 L60.58,34.62 L60.70,33.41 L61.06,32.28 L61.63,31.26 L62.39,30.37 L63.30,29.64 L64.36,29.09 L65.52,28.74 L66.76,28.62 L68.01,28.74 L69.17,29.09 L70.23,29.64 L71.14,30.37 L71.90,31.26 L72.47,32.28 L72.83,33.41 L72.95,34.62 Z" fill="#9cebff" stroke="#9cebff" stroke-width="1" stroke-linejoin="round"/><path d="M71.19,34.62 L71.10,35.48 L70.84,36.28 L70.43,37.01 L69.89,37.65 L69.24,38.17 L68.49,38.56 L67.66,38.81 L66.76,38.90 L65.87,38.81 L65.04,38.56 L64.29,38.17 L63.64,37.65 L63.10,37.01 L62.69,36.28 L62.43,35.48 L62.34,34.62 L62.43,33.75 L62.69,32.95 L63.10,32.22 L63.64,31.58 L64.29,31.06 L65.04,30.67 L65.87,30.42 L66.76,30.33 L67.66,30.42 L68.49,30.67 L69.24,31.06 L69.89,31.58 L70.43,32.22 L70.84,32.95 L71.10,33.75 L71.19,34.62 Z" fill="#ffffff" stroke="#ffffff" stroke-width="1" stroke-linejoin="round"/><path d="M71.19,34.62 L71.10,35.48 L70.84,36.28 L70.43,37.01 L69.89,37.65 L69.24,38.17 L68.49,38.56 L67.66,38.81 L66.76,38.90 L65.87,38.81 L65.04,38.56 L64.29,38.17 L63.64,37.65 L63.10,37.01 L62.69,36.28 L62.43,35.48 L62.34,34.62 L62.43,33.75 L62.69,32.95 L63.10,32.22 L63.64,31.58 L64.29,31.06 L65.04,30.67 L65.87,30.42 L66.76,30.33 L67.66,30.42 L68.49,30.67 L69.24,31.06 L69.89,31.58 L70.43,32.22 L70.84,32.95 L71.10,33.75 L71.19,34.62 Z" fill="#ffffff" stroke="#ffffff" stroke-width="1" stroke-linejoin="round"/><path d="M67.24,44.80 L67.05,44.45 L66.67,44.31 L66.59,44.31 L66.51,44.33 L66.21,44.53 L66.09,44.88 L66.09,47.41 L64.43,45.96 L64.36,45.91 L63.97,45.83 L63.62,46.02 L63.57,46.08 L63.48,46.47 L63.67,46.82 L66.09,48.92 L66.09,51.12 L63.70,51.12 L61.74,48.92 L61.34,48.73 L60.93,48.87 L60.73,49.26 L60.88,49.67 L62.17,51.12 L59.77,51.12 L59.70,51.13 L59.34,51.32 L59.20,51.69 L59.21,51.77 L59.40,52.12 L59.77,52.26 L62.51,52.26 L60.88,54.09 L60.73,54.51 L60.93,54.90 L61.34,55.04 L61.74,54.84 L64.03,52.26 L66.09,52.26 L66.09,54.46 L63.67,56.57 L63.48,56.96 L63.62,57.37 L64.01,57.56 L64.43,57.42 L66.09,55.98 L66.09,58.51 L66.09,58.59 L66.28,58.94 L66.66,59.08 L66.74,59.07 L67.10,58.88 L67.24,58.51 L67.24,55.97 L68.90,57.42 L68.97,57.47 L69.36,57.56 L69.71,57.37 L69.77,57.30 L69.85,56.92 L69.66,56.57 L67.24,54.46 L67.24,52.26 L69.47,52.26 L71.59,54.65 L71.65,54.71 L72.03,54.85 L72.40,54.71 L72.46,54.65 L72.60,54.28 L72.46,53.91 L71.00,52.26 L73.56,52.26 L73.64,52.25 L73.99,52.07 L74.13,51.69 L74.13,51.61 L73.94,51.26 L73.56,51.12 L71.00,51.12 L72.46,49.48 L72.51,49.41 L72.60,49.03 L72.41,48.68 L72.34,48.63 L71.95,48.54 L71.60,48.73 L69.47,51.12 L67.24,51.12 L67.24,48.92 L69.66,46.82 L69.86,46.43 L69.71,46.02 L69.32,45.83 L68.90,45.97 L67.24,47.41 L67.24,44.88 L67.24,44.80 Z" fill="#9cebff" stroke="#9cebff" stroke-width="1" stroke-linejoin="round"/><path d="M49.60,69.43 L49.51,70.29 L49.25,71.10 L48.85,71.82 L48.31,72.46 L47.65,72.98 L46.90,73.38 L46.07,73.63 L45.18,73.71 L44.29,73.63 L43.46,73.38 L42.71,72.98 L42.05,72.46 L41.51,71.82 L41.11,71.10 L40.85,70.29 L40.76,69.43 L40.97,68.10 L41.58,66.95 L42.49,66.02 L43.66,65.40 L43.66,63.61 L43.66,42.57 L43.80,41.88 L44.18,41.32 L44.74,40.94 L45.43,40.80 L46.12,40.94 L46.68,41.32 L47.06,41.88 L47.20,42.57 L47.20,63.76 L47.20,65.62 L48.18,66.28 L48.93,67.17 L49.43,68.23 L49.60,69.43 Z" fill="#ffc713" stroke="#ffc713" stroke-width="1" stroke-linejoin="round"/><path d="M66.67,44.31 L67.05,44.45 L67.24,44.80 L67.24,44.88 L67.24,47.41 L68.90,45.97 L69.32,45.83 L69.71,46.02 L69.86,46.43 L69.66,46.82 L67.24,48.92 L67.24,51.12 L69.47,51.12 L71.60,48.73 L71.95,48.54 L72.34,48.63 L72.41,48.68 L72.60,49.03 L72.51,49.41 L72.46,49.48 L71.00,51.12 L73.56,51.12 L73.94,51.26 L74.13,51.61 L74.13,51.69 L73.99,52.07 L73.64,52.25 L73.56,52.26 L71.00,52.26 L72.46,53.91 L72.60,54.28 L72.46,54.65 L72.40,54.71 L72.03,54.85 L71.65,54.71 L71.59,54.65 L69.47,52.26 L67.24,52.26 L67.24,54.46 L69.66,56.57 L69.85,56.92 L69.77,57.30 L69.71,57.37 L69.36,57.56 L68.97,57.47 L68.90,57.42 L67.24,55.97 L67.24,58.51 L67.10,58.88 L66.74,59.07 L66.66,59.08 L66.28,58.94 L66.10,58.59 L66.09,58.51 L66.09,55.98 L64.43,57.42 L64.01,57.56 L63.62,57.37 L63.48,56.96 L63.67,56.57 L66.09,54.46 L66.09,52.26 L64.03,52.26 L61.74,54.84 L61.34,55.04 L60.93,54.90 L60.73,54.51 L60.88,54.09 L62.51,52.26 L59.77,52.26 L59.40,52.12 L59.21,51.77 L59.20,51.69 L59.34,51.32 L59.70,51.13 L59.77,51.12 L62.17,51.12 L60.88,49.67 L60.73,49.26 L60.93,48.87 L61.34,48.73 L61.74,48.92 L63.70,51.12 L66.09,51.12 L66.09,48.92 L63.67,46.82 L63.48,46.47 L63.57,46.08 L63.62,46.02 L63.97,45.83 L64.36,45.91 L64.43,45.96 L66.09,47.41 L66.09,44.88 L66.21,44.53 L66.51,44.33 L66.59,44.31 L66.67,44.31 Z" fill="#3990e4" stroke="#3990e4" stroke-width="1" stroke-linejoin="round"/><path d="M66.76,38.90 L67.66,38.81 L68.49,38.56 L69.24,38.17 L69.89,37.65 L70.43,37.01 L70.84,36.28 L71.10,35.48 L71.19,34.62 L71.10,33.75 L70.84,32.95 L70.43,32.22 L69.89,31.58 L69.24,31.06 L68.49,30.67 L67.66,30.42 L66.76,30.33 L65.87,30.42 L65.04,30.67 L64.29,31.06 L63.64,31.58 L63.10,32.22 L62.69,32.95 L62.43,33.75 L62.34,34.62 L62.43,35.48 L62.69,36.28 L63.10,37.01 L63.64,37.65 L64.29,38.17 L65.04,38.56 L65.87,38.81 L66.76,38.90 Z" fill="#3990e4" stroke="#3990e4" stroke-width="1" stroke-linejoin="round"/><path d="M71.19,19.71 L71.10,20.58 L70.84,21.38 L70.43,22.11 L69.89,22.74 L69.24,23.27 L68.49,23.66 L67.66,23.91 L66.76,24.00 L65.87,23.91 L65.04,23.66 L64.29,23.27 L63.64,22.74 L63.10,22.11 L62.69,21.38 L62.43,20.58 L62.34,19.71 L62.43,18.85 L62.69,18.05 L63.10,17.32 L63.64,16.68 L64.29,16.16 L65.04,15.77 L65.87,15.52 L66.76,15.43 L67.66,15.52 L68.49,15.77 L69.24,16.16 L69.89,16.68 L70.43,17.32 L70.84,18.05 L71.10,18.85 L71.19,19.71 Z" fill="#3990e4" stroke="#3990e4" stroke-width="1" stroke-linejoin="round"/><path d="M65.66,44.31 L66.04,44.45 L66.23,44.80 L66.23,44.88 L66.23,47.41 L67.89,45.97 L68.31,45.83 L68.70,46.02 L68.85,46.43 L68.65,46.82 L66.23,48.92 L66.23,51.12 L68.46,51.12 L70.59,48.73 L70.94,48.54 L71.33,48.63 L71.40,48.68 L71.59,49.03 L71.50,49.41 L71.45,49.48 L69.99,51.12 L72.55,51.12 L72.93,51.26 L73.12,51.61 L73.12,51.69 L72.98,52.07 L72.63,52.25 L72.55,52.26 L69.98,52.26 L71.45,53.91 L71.59,54.28 L71.45,54.65 L71.39,54.71 L71.02,54.85 L70.64,54.71 L70.58,54.65 L68.46,52.26 L66.23,52.26 L66.23,54.46 L68.65,56.57 L68.84,56.92 L68.76,57.30 L68.70,57.37 L68.35,57.56 L67.96,57.47 L67.89,57.42 L66.23,55.97 L66.23,58.51 L66.09,58.88 L65.73,59.07 L65.65,59.08 L65.27,58.94 L65.08,58.59 L65.08,58.51 L65.08,55.98 L63.42,57.42 L63.00,57.56 L62.61,57.37 L62.47,56.96 L62.66,56.57 L65.08,54.46 L65.08,52.26 L63.02,52.26 L60.73,54.84 L60.33,55.04 L59.92,54.90 L59.72,54.51 L59.87,54.09 L61.49,52.26 L58.76,52.26 L58.38,52.12 L58.20,51.77 L58.19,51.69 L58.33,51.32 L58.69,51.13 L58.76,51.12 L61.16,51.12 L59.87,49.67 L59.72,49.26 L59.92,48.87 L60.33,48.73 L60.73,48.92 L62.68,51.12 L65.08,51.12 L65.08,48.92 L62.66,46.82 L62.47,46.47 L62.56,46.08 L62.61,46.02 L62.96,45.83 L63.35,45.91 L63.42,45.96 L65.08,47.41 L65.08,44.88 L65.20,44.53 L65.50,44.33 L65.58,44.31 L65.66,44.31 Z" fill="#3990e4" stroke="#3990e4" stroke-width="1" stroke-linejoin="round"/><path d="M65.75,38.90 L66.65,38.81 L67.48,38.56 L68.23,38.17 L68.88,37.65 L69.42,37.01 L69.83,36.28 L70.09,35.48 L70.18,34.62 L70.09,33.75 L69.83,32.95 L69.42,32.22 L68.88,31.58 L68.23,31.06 L67.48,30.67 L66.65,30.42 L65.75,30.33 L64.86,30.42 L64.03,30.67 L63.28,31.06 L62.63,31.58 L62.09,32.22 L61.68,32.95 L61.42,33.75 L61.33,34.62 L61.42,35.48 L61.68,36.28 L62.09,37.01 L62.63,37.65 L63.28,38.17 L64.03,38.56 L64.86,38.81 L65.75,38.90 Z" fill="#3990e4" stroke="#3990e4" stroke-width="1" stroke-linejoin="round"/><path d="M70.18,19.71 L70.09,20.58 L69.83,21.38 L69.42,22.11 L68.88,22.74 L68.23,23.27 L67.48,23.66 L66.65,23.91 L65.75,24.00 L64.86,23.91 L64.03,23.66 L63.28,23.27 L62.63,22.74 L62.09,22.11 L61.68,21.38 L61.42,20.58 L61.33,19.71 L61.42,18.85 L61.68,18.05 L62.09,17.32 L62.63,16.68 L63.28,16.16 L64.03,15.77 L64.86,15.52 L65.75,15.43 L66.65,15.52 L67.48,15.77 L68.23,16.16 L68.88,16.68 L69.42,17.32 L69.83,18.05 L70.09,18.85 L70.18,19.71 Z" fill="#3990e4" stroke="#3990e4" stroke-width="1" stroke-linejoin="round"/></svg>