<svg xmlns="http://www.w3.org/2000/svg" viewBox="-2.00 -2.00 100.20 102.90"><path d="M38.02,48.00 L39.66,48.10 L41.28,48.36 L41.87,48.70 L42.15,49.30 L42.40,51.49 L42.62,52.19 L43.08,52.75 L43.71,53.12 L44.46,53.26 L45.29,53.09 L47.38,52.21 L48.06,52.14 L48.65,52.46 L49.71,53.68 L50.62,55.00 L51.37,56.41 L51.95,57.90 L51.94,58.56 L51.54,59.09 L49.68,60.40 L49.06,61.10 L48.84,62.00 L49.06,62.89 L49.69,63.60 L51.54,64.91 L51.94,65.44 L51.95,66.10 L51.37,67.59 L50.62,69.00 L49.72,70.32 L48.65,71.54 L48.06,71.86 L47.39,71.79 L45.28,70.91 L44.34,70.75 L43.42,71.01 L42.73,71.64 L42.40,72.51 L42.15,74.70 L41.87,75.29 L41.29,75.63 L39.65,75.91 L38.00,76.00 L36.34,75.91 L34.70,75.63 L34.12,75.29 L33.85,74.70 L33.60,72.51 L33.27,71.65 L32.58,71.02 L31.66,70.75 L30.72,70.92 L28.61,71.80 L27.94,71.87 L27.35,71.55 L26.28,70.33 L25.38,69.00 L24.63,67.59 L24.05,66.10 L24.06,65.44 L24.46,64.91 L26.32,63.60 L26.94,62.90 L27.16,62.00 L26.94,61.11 L26.32,60.40 L24.46,59.09 L24.06,58.56 L24.05,57.90 L24.63,56.41 L25.38,55.00 L26.29,53.68 L27.35,52.46 L27.94,52.14 L28.62,52.21 L30.71,53.09 L31.66,53.25 L32.58,52.99 L33.27,52.35 L33.60,51.49 L33.85,49.30 L34.13,48.70 L34.72,48.36 L36.35,48.10 L38.02,48.00 Z" fill="#212121" stroke="#212121" stroke-width="1" stroke-linejoin="round"/><path d="M38.02,50.15 L35.99,50.32 L35.83,51.72 L35.60,52.67 L35.15,53.53 L34.51,54.27 L33.71,54.85 L32.77,55.24 L31.79,55.40 L30.78,55.35 L29.81,55.06 L28.47,54.50 L27.32,56.08 L26.45,57.82 L27.64,58.67 L28.38,59.33 L28.94,60.13 L29.28,61.03 L29.40,62.00 L29.28,62.97 L28.94,63.87 L28.39,64.67 L27.65,65.33 L26.45,66.18 L27.32,67.92 L28.47,69.51 L29.82,68.94 L30.79,68.66 L31.78,68.60 L32.77,68.77 L33.70,69.15 L34.51,69.73 L35.15,70.47 L35.59,71.32 L35.83,72.27 L35.99,73.68 L38.00,73.85 L40.01,73.68 L40.17,72.27 L40.40,71.32 L40.85,70.46 L41.49,69.73 L42.30,69.14 L43.23,68.76 L44.21,68.60 L45.21,68.65 L46.18,68.94 L47.53,69.51 L48.68,67.92 L49.55,66.18 L48.36,65.33 L47.62,64.67 L47.06,63.87 L46.72,62.97 L46.60,62.00 L46.72,61.03 L47.06,60.13 L47.61,59.33 L48.35,58.67 L49.55,57.82 L48.68,56.08 L47.53,54.50 L46.19,55.06 L45.34,55.32 L44.46,55.41 L42.89,55.13 L41.58,54.35 L40.63,53.18 L40.17,51.72 L40.01,50.32 L38.02,50.15 Z" fill="#ffffff" stroke="#ffffff" stroke-width="1" stroke-linejoin="round"/><path d="M38.00,56.62 L39.13,56.72 L40.18,57.04 L41.13,57.54 L41.96,58.19 L42.65,58.99 L43.16,59.90 L43.49,60.91 L43.61,62.00 L43.49,63.09 L43.16,64.10 L42.65,65.01 L41.96,65.81 L41.13,66.46 L40.18,66.96 L39.13,67.28 L38.00,67.38 L36.87,67.28 L35.81,66.96 L34.86,66.46 L34.03,65.81 L33.35,65.01 L32.83,64.10 L32.50,63.09 L32.39,62.00 L32.50,60.91 L32.83,59.90 L33.35,58.99 L34.03,58.19 L34.86,57.54 L35.81,57.04 L36.87,56.72 L38.00,56.62 Z" fill="#212121" stroke="#212121" stroke-width="1" stroke-linejoin="round"/><path d="M38.00,58.77 L36.69,59.02 L35.62,59.72 L34.90,60.74 L34.63,62.00 L34.90,63.26 L35.62,64.28 L36.69,64.98 L38.00,65.23 L39.31,64.98 L40.38,64.28 L41.10,63.26 L41.36,62.00 L41.10,60.74 L40.38,59.72 L39.31,59.02 L38.00,58.77 Z" fill="#ffffff" stroke="#ffffff" stroke-width="1" stroke-linejoin="round"/><path d="M83.05,32.00 L88.70,32.00 L88.70,59.79 L83.05,59.79 L83.05,54.10 L83.05,32.00 Z" fill="#0061b0" stroke="#0061b0" stroke-width="1" stroke-linejoin="round"/><path d="M83.05,54.10 L60.07,54.10 L60.07,59.79 L83.05,59.79 L83.05,54.10 Z" fill="#0061b0" stroke="#0061b0" stroke-width="1" stroke-linejoin="round"/><path d="M94.37,0.00 L52.90,0.00 L52.21,0.16 L51.63,0.57 L51.24,1.16 L51.11,1.86 L51.11,13.58 L51.24,14.28 L51.64,14.88 L52.23,15.29 L52.93,15.44 L94.37,15.44 L95.08,15.30 L95.68,14.89 L96.07,14.29 L96.20,13.58 L96.20,1.86 L96.07,1.15 L95.68,0.55 L95.08,0.14 L94.37,0.00 Z" fill="#3990e4" stroke="#1e1e1e" stroke-width="1" stroke-linejoin="round"/><path d="M94.24,16.59 L52.77,16.59 L52.12,16.78 L51.58,17.18 L51.23,17.76 L51.11,18.42 L51.11,30.17 L51.24,30.88 L51.63,31.47 L52.23,31.87 L52.93,32.00 L94.24,32.00 L94.93,31.85 L95.52,31.45 L95.90,30.86 L96.04,30.17 L96.04,18.42 L95.90,17.74 L95.51,17.15 L94.93,16.75 L94.24,16.59 Z" fill="#3990e4" stroke="#1e1e1e" stroke-width="1" stroke-linejoin="round"/><path d="M91.61,2.89 L89.20,2.89 L88.86,3.03 L88.72,3.37 L88.72,5.78 L88.86,6.12 L89.20,6.26 L91.61,6.26 L91.95,6.12 L92.09,5.78 L92.09,3.37 L91.95,3.03 L91.61,2.89 Z" fill="#92ceff" stroke="#92ceff" stroke-width="1" stroke-linejoin="round"/><path d="M91.61,8.70 L89.20,8.70 L88.86,8.84 L88.72,9.18 L88.72,11.59 L88.86,11.93 L89.20,12.07 L91.61,12.07 L91.95,11.93 L92.09,11.59 L92.09,9.18 L91.95,8.84 L91.61,8.70 Z" fill="#92ceff" stroke="#92ceff" stroke-width="1" stroke-linejoin="round"/><path d="M91.61,19.39 L89.20,19.39 L88.86,19.53 L88.72,19.87 L88.72,22.27 L88.86,22.62 L89.20,22.76 L91.61,22.76 L91.95,22.62 L92.09,22.27 L92.09,19.87 L91.95,19.53 L91.61,19.39 Z" fill="#92ceff" stroke="#92ceff" stroke-width="1" stroke-linejoin="round"/><path d="M91.61,25.20 L89.20,25.20 L88.86,25.34 L88.72,25.68 L88.72,28.08 L88.86,28.42 L89.20,28.57 L91.61,28.57 L91.95,28.42 L92.09,28.08 L92.09,25.68 L91.95,25.34 L91.61,25.20 Z" fill="#92ceff" stroke="#92ceff" stroke-width="1" stroke-linejoin="round"/><path d="M61.87,39.77 L2.13,39.77 L1.30,39.94 L0.62,40.39 L0.17,41.07 L0.00,41.90 L0.00,80.30 L0.17,81.13 L0.62,81.81 L1.30,82.27 L2.13,82.44 L61.87,82.44 L62.70,82.27 L63.38,81.81 L63.83,81.13 L64.00,80.30 L64.00,41.90 L63.83,41.07 L63.38,40.39 L62.70,39.94 L61.87,39.77 Z" fill="#3b91e5" stroke="#1e1e1e" stroke-width="1" stroke-linejoin="round"/><path d="M44.84,95.34 L42.74,94.80 L41.14,93.94 L39.97,92.76 L39.17,91.28 L38.67,89.49 L38.40,87.42 L38.26,82.44 L25.71,82.44 L25.57,87.42 L25.31,89.49 L24.81,91.28 L24.02,92.76 L22.86,93.94 L21.26,94.80 L19.16,95.34 L17.92,95.72 L16.90,96.51 L16.23,97.62 L16.00,98.90 L48.00,98.90 L47.77,97.62 L47.10,96.51 L46.08,95.72 L44.84,95.34 Z" fill="#9e9e9e" stroke="#1e1e1e" stroke-width="1" stroke-linejoin="round"/><path d="M48.00,62.66 L48.00,58.98 L47.48,58.79 L43.55,57.50 L42.52,54.98 L44.52,50.72 L41.94,48.14 L41.42,48.39 L37.75,50.26 L35.23,49.23 L33.62,44.80 L29.94,44.80 L29.75,45.31 L28.46,49.25 L25.94,50.29 L21.75,48.24 L19.17,50.83 L19.43,51.34 L21.30,55.02 L20.26,57.55 L15.75,59.16 L15.75,62.84 L16.27,63.04 L20.20,64.33 L21.23,66.85 L19.23,71.11 L21.81,73.69 L22.33,73.43 L26.00,71.56 L28.52,72.59 L30.13,77.05 L33.81,77.05 L34.01,76.53 L35.29,72.59 L37.81,71.56 L42.07,73.56 L44.65,70.98 L44.39,70.46 L42.52,66.78 L43.55,64.26 L48.00,62.66 Z" fill="#ffffff" stroke="#ffffff" stroke-width="1" stroke-linejoin="round"/><path d="M31.88,68.00 L29.82,67.70 L27.94,66.81 L26.40,65.41 L25.33,63.63 L24.83,61.61 L24.93,59.53 L25.63,57.57 L26.87,55.90 L28.54,54.66 L30.50,53.96 L32.57,53.86 L34.59,54.36 L36.37,55.43 L37.76,56.98 L38.65,58.86 L38.96,60.91 L38.82,62.30 L38.42,63.63 L37.77,64.85 L36.88,65.93 L35.81,66.81 L34.59,67.46 L33.26,67.87 L31.88,68.00 Z" fill="#3b91e5" stroke="#3b91e5" stroke-width="1" stroke-linejoin="round"/></svg>