<svg xmlns="http://www.w3.org/2000/svg" viewBox="-2.00 -2.00 100.00 100.00"><path d="M4.25,11.92 L24.11,45.90 L24.34,46.29 L24.34,46.75 L24.34,74.27 L24.34,75.99 L22.58,75.99 L13.31,75.99 L12.62,76.12 L12.06,76.49 L11.68,77.04 L11.55,77.71 L11.55,84.28 L11.78,84.83 L12.34,85.06 L30.26,85.06 L76.23,85.06 L92.11,85.06 L92.36,84.95 L92.47,84.70 L92.47,77.71 L92.33,77.04 L91.96,76.49 L91.39,76.12 L90.71,75.99 L86.56,75.99 L48.17,75.99 L37.93,75.99 L36.17,75.99 L36.17,74.27 L36.17,64.26 L36.17,46.75 L36.17,46.29 L36.40,45.90 L56.26,11.92 L54.87,10.67 L52.96,9.29 L50.53,7.88 L47.56,6.52 L44.06,5.30 L40.01,4.33 L35.41,3.67 L30.26,3.44 L25.10,3.67 L20.50,4.33 L16.45,5.30 L12.95,6.52 L9.99,7.88 L7.55,9.29 L5.64,10.67 L4.25,11.92 Z" fill="#40d0ec" stroke="#1e1e1e" stroke-width="1" stroke-linejoin="round"/><path d="M29.46,8.41 L26.01,8.59 L22.94,9.07 L20.23,9.78 L17.89,10.67 L15.92,11.68 L14.31,12.73 L13.08,13.76 L12.21,14.71 L11.46,15.68 L12.15,16.70 L17.91,25.11 L18.68,26.23 L19.97,25.78 L24.13,24.52 L27.69,23.91 L31.13,23.91 L34.76,24.53 L38.95,25.78 L40.24,26.22 L41.00,25.11 L46.76,16.70 L47.45,15.68 L46.70,14.71 L45.83,13.76 L44.60,12.73 L42.99,11.68 L41.02,10.67 L38.68,9.78 L35.97,9.07 L32.90,8.59 L29.46,8.41 Z" fill="#ffffff" stroke="#1e1e1e" stroke-width="1" stroke-linejoin="round"/><path d="M0.69,10.70 L2.12,9.13 L4.19,7.41 L6.90,5.63 L10.26,3.91 L14.28,2.37 L18.95,1.13 L24.27,0.30 L30.26,0.00 L36.24,0.30 L41.57,1.13 L46.23,2.37 L50.25,3.91 L53.61,5.63 L56.33,7.41 L58.39,9.13 L59.82,10.70 L60.51,11.60 L59.94,12.58 L39.70,47.20 L39.70,64.26 L39.70,72.55 L46.41,72.55 L46.41,70.20 L46.51,69.16 L46.82,68.19 L47.31,67.32 L47.96,66.55 L48.74,65.92 L49.64,65.45 L50.63,65.15 L51.70,65.04 L83.03,65.04 L84.10,65.15 L85.09,65.45 L85.99,65.92 L86.77,66.55 L87.42,67.32 L87.91,68.19 L88.21,69.16 L88.32,70.20 L88.32,72.55 L90.71,72.55 L91.77,72.65 L92.77,72.95 L93.67,73.43 L94.45,74.06 L95.10,74.82 L95.58,75.70 L95.89,76.67 L96.00,77.71 L96.00,84.70 L95.84,85.76 L95.41,86.71 L94.74,87.50 L93.87,88.08 L93.87,90.54 L93.76,91.58 L93.45,92.55 L92.97,93.42 L92.32,94.18 L91.54,94.81 L90.64,95.29 L89.64,95.59 L88.58,95.69 L79.76,95.69 L78.69,95.59 L77.70,95.29 L76.80,94.81 L76.02,94.18 L75.37,93.42 L74.88,92.55 L74.57,91.58 L74.47,90.54 L74.47,88.49 L32.02,88.49 L28.49,88.49 L14.11,88.49 L10.58,88.13 L9.54,87.49 L8.73,86.60 L8.21,85.51 L8.02,84.28 L8.02,77.71 L8.13,76.67 L8.43,75.70 L8.92,74.82 L9.57,74.06 L10.35,73.43 L11.25,72.95 L12.24,72.65 L13.31,72.55 L20.81,72.55 L20.81,47.20 L0.57,12.58 L0.00,11.60 L0.69,10.70 Z" fill="#40d0ec" stroke="#40d0ec" stroke-width="1" stroke-linejoin="round"/><path d="M4.25,11.92 L24.11,45.90 L24.34,46.29 L24.34,46.75 L24.34,74.27 L24.34,75.99 L22.58,75.99 L13.31,75.99 L12.62,76.12 L12.06,76.49 L11.68,77.04 L11.55,77.71 L11.55,84.28 L11.78,84.83 L12.34,85.06 L30.26,85.06 L76.23,85.06 L92.11,85.06 L92.36,84.95 L92.47,84.70 L92.47,77.71 L92.33,77.04 L91.96,76.49 L91.39,76.12 L90.71,75.99 L86.56,75.99 L48.17,75.99 L37.93,75.99 L36.17,75.99 L36.17,74.27 L36.17,64.26 L36.17,46.75 L36.17,46.29 L36.40,45.90 L56.26,11.92 L54.87,10.67 L52.96,9.29 L50.53,7.88 L47.56,6.52 L44.06,5.30 L40.01,4.33 L35.41,3.67 L30.26,3.44 L25.10,3.67 L20.50,4.33 L16.45,5.30 L12.95,6.52 L9.99,7.88 L7.55,9.29 L5.64,10.67 L4.25,11.92 Z" fill="#40d0ec" stroke="#40d0ec" stroke-width="1" stroke-linejoin="round"/><path d="M77.99,88.49 L77.99,90.54 L78.13,91.21 L78.51,91.75 L79.07,92.12 L79.76,92.26 L88.58,92.26 L89.26,92.12 L89.83,91.75 L90.20,91.21 L90.34,90.54 L90.34,88.49 L77.99,88.49 Z" fill="#ffffff" stroke="#ffffff" stroke-width="1" stroke-linejoin="round"/><path d="M84.79,72.55 L84.79,70.20 L84.66,69.53 L84.28,68.98 L83.72,68.62 L83.03,68.48 L51.70,68.48 L51.01,68.62 L50.45,68.98 L50.07,69.53 L49.93,70.20 L49.93,72.55 L84.79,72.55 Z" fill="#ffffff" stroke="#ffffff" stroke-width="1" stroke-linejoin="round"/><path d="M12.21,14.71 L13.08,13.76 L14.31,12.73 L15.92,11.68 L17.89,10.67 L20.23,9.78 L22.94,9.07 L26.01,8.59 L29.46,8.41 L32.90,8.59 L35.97,9.07 L38.68,9.78 L41.02,10.67 L42.99,11.68 L44.60,12.73 L45.83,13.76 L46.70,14.71 L47.45,15.68 L46.76,16.70 L41.00,25.11 L40.24,26.22 L38.95,25.78 L34.76,24.53 L31.13,23.91 L27.69,23.91 L24.13,24.52 L19.97,25.78 L18.68,26.23 L17.91,25.11 L12.15,16.70 L11.46,15.68 L12.21,14.71 Z" fill="#40d0ec" stroke="#40d0ec" stroke-width="1" stroke-linejoin="round"/><path d="M15.87,15.93 L20.09,22.10 L21.18,21.76 L19.24,17.90 L22.40,16.39 L24.67,20.88 L28.16,20.43 L31.55,20.50 L35.03,21.06 L38.82,22.10 L43.05,15.93 L41.15,14.61 L38.27,13.28 L36.46,12.72 L34.39,12.26 L32.05,11.96 L29.46,11.85 L26.86,11.96 L24.53,12.26 L22.45,12.72 L20.64,13.28 L17.76,14.61 L15.87,15.93 Z" fill="#ffffff" stroke="#ffffff" stroke-width="1" stroke-linejoin="round"/><path d="M14.11,88.49 L14.11,90.84 L14.24,91.51 L14.62,92.06 L15.18,92.43 L15.87,92.56 L26.73,92.56 L27.41,92.43 L27.98,92.06 L28.35,91.51 L28.49,90.84 L28.49,88.49 L14.11,88.49 Z" fill="#1e87dd" stroke="#1e87dd" stroke-width="1" stroke-linejoin="round"/><path d="M77.99,88.49 L77.99,90.54 L78.13,91.21 L78.51,91.75 L79.07,92.12 L79.76,92.26 L88.58,92.26 L89.26,92.12 L89.83,91.75 L90.20,91.21 L90.34,90.54 L90.34,88.49 L77.99,88.49 Z" fill="#1e87dd" stroke="#1e87dd" stroke-width="1" stroke-linejoin="round"/><path d="M84.79,72.55 L84.79,70.20 L84.66,69.53 L84.28,68.98 L83.72,68.62 L83.03,68.48 L51.70,68.48 L51.01,68.62 L50.45,68.98 L50.07,69.53 L49.93,70.20 L49.93,72.55 L84.79,72.55 Z" fill="#1e87dd" stroke="#1e87dd" stroke-width="1" stroke-linejoin="round"/><path d="M12.21,14.71 L13.08,13.76 L14.31,12.73 L15.92,11.68 L17.89,10.67 L20.23,9.78 L22.94,9.07 L26.01,8.59 L29.46,8.41 L32.90,8.59 L35.97,9.07 L38.68,9.78 L41.02,10.67 L42.99,11.68 L44.60,12.73 L45.83,13.76 L46.70,14.71 L47.45,15.68 L46.76,16.70 L41.00,25.11 L40.24,26.22 L38.95,25.78 L34.76,24.53 L31.13,23.91 L27.69,23.91 L24.13,24.52 L19.97,25.78 L18.68,26.23 L17.91,25.11 L12.15,16.70 L11.46,15.68 L12.21,14.71 Z" fill="#1e87dd" stroke="#1e87dd" stroke-width="1" stroke-linejoin="round"/><path d="M15.87,15.93 L20.09,22.10 L21.18,21.76 L19.24,17.90 L22.40,16.39 L24.67,20.88 L28.16,20.43 L31.55,20.50 L35.03,21.06 L38.82,22.10 L43.05,15.93 L41.15,14.61 L38.27,13.28 L36.46,12.72 L34.39,12.26 L32.05,11.96 L29.46,11.85 L26.86,11.96 L24.53,12.26 L22.45,12.72 L20.64,13.28 L17.76,14.61 L15.87,15.93 Z" fill="#ffffff" stroke="#ffffff" stroke-width="1" stroke-linejoin="round"/><path d="M10.58,88.13 L10.58,90.84 L10.68,91.88 L10.99,92.85 L11.48,93.73 L12.13,94.49 L12.91,95.12 L13.81,95.59 L14.80,95.90 L15.87,96.00 L26.73,96.00 L27.79,95.90 L28.79,95.59 L29.69,95.12 L30.47,94.49 L31.12,93.73 L31.60,92.85 L31.91,91.88 L32.02,90.84 L32.02,88.49 L28.49,88.49 L28.49,90.84 L28.35,91.51 L27.98,92.06 L27.41,92.43 L26.73,92.56 L15.87,92.56 L15.18,92.43 L14.62,92.06 L14.24,91.51 L14.11,90.84 L14.11,88.49 L10.58,88.13 Z" fill="#1e87dd" stroke="#1e87dd" stroke-width="1" stroke-linejoin="round"/><path d="M74.47,88.49 L74.47,90.54 L74.57,91.58 L74.88,92.55 L75.37,93.42 L76.02,94.18 L76.80,94.81 L77.70,95.29 L78.69,95.59 L79.76,95.69 L88.58,95.69 L89.64,95.59 L90.64,95.29 L91.54,94.81 L92.32,94.18 L92.97,93.42 L93.45,92.55 L93.76,91.58 L93.87,90.54 L93.87,88.49 L90.34,88.49 L90.34,90.54 L90.20,91.21 L89.83,91.75 L89.26,92.12 L88.58,92.26 L79.76,92.26 L79.07,92.12 L78.51,91.75 L78.13,91.21 L77.99,90.54 L77.99,88.49 L74.47,88.49 Z" fill="#1e87dd" stroke="#1e87dd" stroke-width="1" stroke-linejoin="round"/><path d="M88.32,72.55 L88.32,70.20 L88.21,69.16 L87.91,68.19 L87.42,67.32 L86.77,66.55 L85.99,65.92 L85.09,65.45 L84.10,65.15 L83.03,65.04 L51.70,65.04 L50.63,65.15 L49.64,65.45 L48.74,65.92 L47.96,66.55 L47.31,67.32 L46.82,68.19 L46.51,69.16 L46.41,70.20 L46.41,72.55 L49.93,72.55 L49.93,70.20 L50.07,69.53 L50.45,68.98 L51.01,68.62 L51.70,68.48 L83.03,68.48 L83.72,68.62 L84.28,68.98 L84.66,69.53 L84.79,70.20 L84.79,72.55 L88.32,72.55 Z" fill="#1e87dd" stroke="#1e87dd" stroke-width="1" stroke-linejoin="round"/></svg>