<svg xmlns="http://www.w3.org/2000/svg" viewBox="0.21 0.21 95.58 95.58"><path d="M3.77,44.23 L44.23,3.77 L45.07,3.09 L45.99,2.60 L46.98,2.31 L48.00,2.21 L49.02,2.31 L50.01,2.60 L50.93,3.09 L51.77,3.77 L92.23,44.23 L92.91,45.07 L93.40,45.99 L93.69,46.98 L93.79,48.00 L93.69,49.02 L93.40,50.01 L92.91,50.93 L92.23,51.77 L51.77,92.23 L50.93,92.91 L50.01,93.40 L49.02,93.69 L48.00,93.79 L46.98,93.69 L45.99,93.40 L45.07,92.91 L44.23,92.23 L3.77,51.77 L3.09,50.93 L2.60,50.01 L2.31,49.02 L2.21,48.00 L2.31,46.98 L2.60,45.99 L3.09,45.07 L3.77,44.23 Z" fill="#3990e4" stroke="#1e1e1e" stroke-width="1" stroke-linejoin="round"/><path d="M48.94,78.74 L47.50,78.63 L46.11,78.32 L44.77,77.80 L43.52,77.09 L42.38,76.21 L41.40,75.17 L40.57,74.00 L39.93,72.72 L39.48,71.35 L39.23,69.94 L39.20,68.51 L39.37,67.08 L39.76,65.70 L40.34,64.39 L41.11,63.18 L42.05,62.09 L43.14,61.15 L44.35,60.39 L45.65,59.81 L47.04,59.42 L48.47,59.25 L49.90,59.29 L51.31,59.53 L52.68,59.98 L53.96,60.63 L55.13,61.46 L56.16,62.45 L57.05,63.58 L57.76,64.83 L58.27,66.17 L58.58,67.57 L58.69,69.00 L58.49,70.91 L57.94,72.73 L57.04,74.40 L55.82,75.89 L54.34,77.10 L52.66,78.00 L50.85,78.55 L48.94,78.74 Z" fill="#ffffff" stroke="#ffffff" stroke-width="1" stroke-linejoin="round" opacity="0.9"/><path d="M48.94,63.37 L47.31,63.62 L45.82,64.33 L44.60,65.45 L43.76,66.86 L43.37,68.47 L43.46,70.11 L44.02,71.66 L45.00,72.98 L46.33,73.96 L47.88,74.52 L49.53,74.59 L51.13,74.19 L52.54,73.34 L53.65,72.12 L54.36,70.63 L54.60,69.00 L54.49,67.90 L54.17,66.84 L53.65,65.86 L52.94,65.00 L52.08,64.30 L51.10,63.79 L50.04,63.47 L48.94,63.37 L48.94,63.37 Z" fill="#3990e4" stroke="#3990e4" stroke-width="1" stroke-linejoin="round" opacity="0.9"/><path d="M71.66,34.42 L59.44,34.42 L59.19,34.49 L59.03,34.68 L59.01,34.93 L59.13,35.15 L62.62,38.65 L62.77,39.00 L62.62,39.35 L53.15,48.82 L52.03,50.18 L52.03,24.90 L52.16,24.59 L52.46,24.47 L57.56,24.47 L57.80,24.39 L57.95,24.20 L57.98,23.95 L57.87,23.73 L49.20,15.09 L48.90,14.97 L48.60,15.09 L39.97,23.73 L39.86,23.95 L39.89,24.20 L40.04,24.39 L40.28,24.47 L45.34,24.47 L45.63,24.61 L45.77,24.90 L45.77,50.16 L44.66,48.82 L35.20,39.35 L35.09,39.19 L35.05,39.00 L35.09,38.81 L35.20,38.65 L38.68,35.15 L38.80,34.85 L38.68,34.55 L38.54,34.46 L38.38,34.43 L26.15,34.43 L25.85,34.56 L25.73,34.86 L25.73,47.08 L25.76,47.24 L25.85,47.38 L25.99,47.47 L26.16,47.50 L26.46,47.38 L30.12,43.72 L30.28,43.61 L30.47,43.57 L30.66,43.61 L30.82,43.72 L40.29,53.19 L41.68,54.76 L42.88,56.48 L43.87,58.33 L44.65,60.28 L46.71,59.51 L48.90,59.24 L51.09,59.49 L53.17,60.25 L53.95,58.30 L54.94,56.47 L56.13,54.76 L57.52,53.19 L66.99,43.72 L67.15,43.61 L67.34,43.57 L67.53,43.61 L67.70,43.72 L71.36,47.38 L71.65,47.50 L71.96,47.38 L72.09,47.08 L72.09,34.85 L71.96,34.55 L71.66,34.42 L71.66,34.42 Z" fill="#ffffff" stroke="#1e1e1e" stroke-width="1" stroke-linejoin="round"/></svg>