<svg xmlns="http://www.w3.org/2000/svg" viewBox="-1.97 -2.00 101.31 100.00"><path d="M55.37,51.73 L53.30,53.61 L51.45,55.68 L49.84,57.94 L48.47,60.37 L47.36,62.93 L46.54,65.58 L46.01,68.31 L45.77,71.09 L45.77,71.13 L42.43,71.16 L34.04,70.96 L26.21,70.40 L19.10,69.51 L12.89,68.33 L7.72,66.89 L5.58,66.09 L3.77,65.25 L2.30,64.36 L1.19,63.43 L0.47,62.46 L0.15,61.47 L0.15,61.21 L0.34,60.36 L0.71,59.58 L1.24,58.89 L1.92,58.35 L4.37,56.87 L7.76,55.51 L11.98,54.30 L16.95,53.26 L22.58,52.42 L28.77,51.79 L35.42,51.39 L42.45,51.25 L49.06,51.38 L55.37,51.73 Z" fill="#83b9f9" stroke="#1e1e1e" stroke-width="1" stroke-linejoin="round"/><path d="M0.03,35.63 L0.25,36.65 L0.89,37.64 L1.93,38.59 L3.35,39.50 L5.13,40.37 L7.25,41.19 L12.41,42.67 L18.67,43.88 L25.85,44.80 L33.79,45.38 L42.31,45.58 L50.84,45.38 L58.77,44.80 L65.96,43.88 L72.22,42.67 L77.38,41.19 L79.50,40.37 L81.28,39.50 L82.70,38.59 L83.74,37.64 L84.38,36.65 L84.60,35.63 L84.38,34.61 L83.74,33.63 L82.70,32.67 L81.28,31.76 L79.50,30.89 L77.38,30.07 L72.22,28.60 L65.96,27.38 L58.77,26.46 L50.84,25.88 L42.31,25.68 L33.79,25.88 L25.85,26.46 L18.67,27.38 L12.41,28.59 L7.25,30.07 L5.13,30.89 L3.35,31.76 L1.93,32.67 L0.89,33.63 L0.25,34.61 L0.03,35.63 Z" fill="#83b9f9" stroke="#1e1e1e" stroke-width="1" stroke-linejoin="round"/><path d="M0.03,9.95 L0.25,10.97 L0.89,11.96 L1.93,12.91 L3.35,13.82 L5.13,14.69 L7.25,15.51 L12.41,16.99 L18.67,18.20 L25.85,19.12 L33.79,19.70 L42.31,19.90 L50.84,19.70 L58.77,19.12 L65.96,18.20 L72.22,16.99 L77.38,15.51 L79.50,14.69 L81.28,13.82 L82.70,12.91 L83.74,11.96 L84.38,10.97 L84.60,9.95 L84.38,8.93 L83.74,7.95 L82.70,6.99 L81.28,6.08 L79.50,5.21 L77.38,4.39 L72.22,2.92 L65.96,1.70 L58.77,0.78 L50.84,0.20 L42.31,0.00 L33.79,0.20 L25.85,0.78 L18.67,1.70 L12.41,2.91 L7.25,4.39 L5.13,5.21 L3.35,6.08 L1.93,6.99 L0.89,7.95 L0.25,8.93 L0.03,9.95 L0.03,9.95 Z" fill="#83b9f9" stroke="#1e1e1e" stroke-width="1" stroke-linejoin="round"/><path d="M51.94,88.91 L52.23,89.54 L52.13,90.23 L51.69,90.76 L51.04,90.98 L51.01,90.98 L47.69,91.10 L42.44,91.18 L33.92,90.98 L25.98,90.41 L18.80,89.49 L12.54,88.27 L7.38,86.80 L5.26,85.98 L3.48,85.10 L2.06,84.19 L1.02,83.23 L0.38,82.24 L0.16,81.22 L0.16,61.18 L0.21,61.67 L0.21,61.67 L0.61,62.63 L1.38,63.55 L2.51,64.44 L3.97,65.30 L7.84,66.88 L12.83,68.26 L18.80,69.41 L25.61,70.29 L33.12,70.87 L41.16,71.10 L42.44,71.10 L43.76,71.10 L45.77,71.08 L45.77,71.11 L45.77,72.00 L45.87,74.31 L46.17,76.59 L46.66,78.83 L47.35,81.00 L48.23,83.12 L49.29,85.15 L50.53,87.08 L51.94,88.91 Z" fill="#0078d4" stroke="#1e1e1e" stroke-width="1" stroke-linejoin="round"/><path d="M84.60,35.51 L84.33,36.52 L83.66,37.50 L82.59,38.44 L81.14,39.34 L79.35,40.20 L77.22,41.01 L72.05,42.47 L65.82,43.66 L58.67,44.56 L50.78,45.13 L42.32,45.33 L33.86,45.14 L25.99,44.58 L18.87,43.68 L12.65,42.50 L7.50,41.06 L5.38,40.26 L3.58,39.40 L2.13,38.51 L1.05,37.57 L0.36,36.59 L0.07,35.59 L0.07,55.47 L0.26,56.33 L0.65,57.13 L1.21,57.82 L1.91,58.37 L1.91,58.37 L4.38,59.84 L7.78,61.19 L12.00,62.39 L16.96,63.42 L22.57,64.25 L28.74,64.88 L35.36,65.27 L42.35,65.41 L46.62,65.35 L47.22,63.38 L47.98,61.46 L48.88,59.62 L49.92,57.85 L51.09,56.17 L52.39,54.59 L53.82,53.11 L55.37,51.73 L55.37,51.73 L58.34,49.62 L61.56,47.94 L64.98,46.73 L68.56,46.00 L72.20,45.77 L75.82,46.05 L79.37,46.83 L82.79,48.10 L83.41,48.22 L84.01,48.03 L84.44,47.57 L84.60,46.96 L84.60,35.51 Z" fill="#0078d4" stroke="#1e1e1e" stroke-width="1" stroke-linejoin="round"/><path d="M42.31,19.67 L33.88,19.48 L26.02,18.91 L18.90,18.02 L12.68,16.83 L7.52,15.39 L5.39,14.58 L3.59,13.73 L2.14,12.83 L1.05,11.89 L0.36,10.91 L0.07,9.91 L0.07,29.77 L0.29,30.79 L0.93,31.78 L1.97,32.73 L3.39,33.65 L5.17,34.52 L7.29,35.34 L12.45,36.81 L18.71,38.02 L25.89,38.94 L33.83,39.52 L42.36,39.72 L50.71,39.53 L58.50,38.97 L65.57,38.09 L71.76,36.92 L76.92,35.50 L79.07,34.71 L80.89,33.87 L82.38,32.99 L83.50,32.07 L84.25,31.11 L84.60,30.12 L84.60,29.33 L84.60,9.72 L84.38,10.74 L83.74,11.73 L82.70,12.68 L81.27,13.60 L79.49,14.47 L77.37,15.29 L72.21,16.76 L65.95,17.98 L58.77,18.89 L50.84,19.47 L42.31,19.67 Z" fill="#0078d4" stroke="#1e1e1e" stroke-width="1" stroke-linejoin="round"/><path d="M96.00,72.00 L95.88,74.37 L95.53,76.70 L94.96,78.98 L94.17,81.18 L93.17,83.30 L91.97,85.32 L90.56,87.21 L88.97,88.97 L87.21,90.56 L85.32,91.97 L83.30,93.17 L81.18,94.17 L78.98,94.96 L76.70,95.53 L74.37,95.88 L72.00,96.00 L69.63,95.88 L67.30,95.53 L65.02,94.96 L62.82,94.17 L60.70,93.17 L58.68,91.97 L56.79,90.56 L55.03,88.97 L53.44,87.21 L52.03,85.32 L50.83,83.30 L49.83,81.18 L49.04,78.98 L48.47,76.70 L48.12,74.37 L48.00,72.00 L48.00,71.06 L48.00,71.04 L48.29,68.13 L48.94,65.27 L49.63,63.23 L50.50,61.26 L51.53,59.39 L52.73,57.61 L54.08,55.96 L55.57,54.42 L57.20,53.02 L58.97,51.77 L60.83,50.68 L62.78,49.76 L64.79,49.03 L66.85,48.48 L68.96,48.11 L71.09,47.94 L73.24,47.95 L75.40,48.16 L77.52,48.56 L79.59,49.15 L81.59,49.92 L83.51,50.86 L85.33,51.97 L87.06,53.23 L88.67,54.66 L90.16,56.23 L91.50,57.92 L92.67,59.72 L93.68,61.62 L94.51,63.58 L95.16,65.62 L95.63,67.71 L95.91,69.84 L96.00,72.00 Z" fill="#ffffff" stroke="#1e1e1e" stroke-width="1" stroke-linejoin="round"/><path d="M70.00,96.00 L72.80,95.86 L75.51,95.46 L78.13,94.80 L80.64,93.90 L83.03,92.78 L85.29,91.45 L87.39,89.91 L89.33,88.19 L91.10,86.30 L92.67,84.24 L94.04,82.04 L95.19,79.71 L96.11,77.26 L96.78,74.71 L97.20,72.06 L97.34,69.33 L97.20,66.61 L96.78,63.96 L96.11,61.40 L95.19,58.95 L94.04,56.62 L92.67,54.42 L91.10,52.37 L89.33,50.48 L87.39,48.76 L85.29,47.22 L83.03,45.89 L80.64,44.76 L78.13,43.87 L75.51,43.21 L72.80,42.80 L70.00,42.67 L67.21,42.80 L64.49,43.21 L61.87,43.87 L59.36,44.76 L56.97,45.89 L54.72,47.22 L52.61,48.76 L50.67,50.48 L48.91,52.37 L47.34,54.42 L45.97,56.62 L44.81,58.95 L43.90,61.40 L43.22,63.96 L42.81,66.61 L42.67,69.33 L42.81,72.06 L43.22,74.71 L43.90,77.26 L44.81,79.71 L45.97,82.04 L47.34,84.24 L48.91,86.30 L50.67,88.19 L52.61,89.91 L54.72,91.45 L56.97,92.78 L59.36,93.90 L61.87,94.80 L64.49,95.46 L67.21,95.86 L70.00,96.00 Z" fill="#f78d1e" stroke="#1e1e1e" stroke-width="1" stroke-linejoin="round"/><path d="M70.11,92.55 L72.54,92.43 L74.91,92.08 L77.19,91.51 L79.37,90.73 L81.46,89.75 L83.42,88.59 L85.25,87.25 L86.94,85.75 L88.48,84.10 L89.85,82.32 L91.04,80.40 L92.04,78.37 L92.84,76.24 L93.43,74.01 L93.79,71.71 L93.91,69.33 L93.79,66.96 L93.43,64.65 L92.84,62.43 L92.04,60.29 L91.04,58.27 L89.85,56.35 L88.48,54.56 L86.94,52.91 L85.25,51.42 L83.42,50.08 L81.46,48.92 L79.37,47.94 L77.19,47.16 L74.91,46.59 L72.54,46.23 L70.11,46.11 L67.68,46.23 L65.31,46.59 L63.03,47.16 L60.85,47.94 L58.76,48.92 L56.80,50.08 L54.97,51.42 L53.28,52.91 L51.74,54.56 L50.37,56.35 L49.18,58.27 L48.18,60.29 L47.38,62.43 L46.79,64.65 L46.43,66.96 L46.31,69.33 L46.43,71.71 L46.79,74.01 L47.38,76.24 L48.18,78.37 L49.18,80.40 L50.37,82.32 L51.74,84.10 L53.28,85.75 L54.97,87.25 L56.80,88.59 L58.76,89.75 L60.85,90.73 L63.03,91.51 L65.31,92.08 L67.68,92.43 L70.11,92.55 Z" fill="#ffffff" stroke="#1e1e1e" stroke-width="1" stroke-linejoin="round"/><path d="M79.94,76.46 L73.02,69.71 L72.45,69.36 L71.78,69.26 L72.10,68.50 L72.10,51.32 L71.97,50.70 L71.61,50.17 L71.06,49.81 L70.42,49.68 L70.11,49.68 L69.47,49.81 L68.93,50.17 L68.56,50.70 L68.43,51.32 L68.43,68.50 L68.56,69.13 L68.93,69.65 L69.47,70.01 L70.11,70.13 L70.34,70.13 L70.06,70.63 L69.98,71.20 L70.11,71.76 L70.43,72.24 L77.35,78.98 L77.89,79.33 L78.53,79.46 L79.17,79.33 L79.71,78.98 L79.94,78.77 L80.30,78.24 L80.43,77.61 L80.30,76.99 L79.94,76.46 L79.94,76.46 Z" fill="#b3b3b3" stroke="#1e1e1e" stroke-width="1" stroke-linejoin="round"/><path d="M70.12,73.07 L71.63,72.78 L72.86,71.97 L73.69,70.77 L74.00,69.29 L73.69,67.82 L72.86,66.62 L71.63,65.81 L70.12,65.51 L68.61,65.81 L67.38,66.62 L66.55,67.82 L66.25,69.29 L66.55,70.77 L67.38,71.97 L68.61,72.78 L70.12,73.07 Z" fill="#666666" stroke="#666666" stroke-width="1" stroke-linejoin="round"/></svg>