<svg xmlns="http://www.w3.org/2000/svg" viewBox="-1.33 4.00 98.67 88.00"><path d="M84.00,71.71 L83.33,71.71 L83.33,72.38 L83.33,83.57 L83.21,84.87 L82.83,86.07 L82.23,87.16 L81.46,88.10 L80.54,88.88 L79.46,89.49 L78.28,89.87 L77.02,90.00 L6.98,90.00 L5.70,89.88 L4.52,89.53 L3.46,88.95 L2.55,88.16 L1.78,87.18 L1.17,86.07 L0.79,84.87 L0.67,83.57 L0.67,30.71 L0.78,29.41 L1.13,28.20 L1.70,27.12 L2.48,26.19 L3.44,25.41 L4.54,24.80 L5.72,24.41 L6.98,24.29 L12.00,24.29 L12.67,24.29 L12.67,23.62 L12.67,12.43 L12.78,11.12 L13.13,9.91 L13.70,8.84 L14.48,7.91 L15.44,7.12 L16.54,6.51 L17.72,6.13 L18.98,6.00 L89.02,6.00 L90.28,6.13 L91.46,6.51 L92.54,7.12 L93.46,7.90 L94.23,8.84 L94.83,9.93 L95.21,11.13 L95.33,12.43 L95.33,65.29 L95.21,66.58 L94.83,67.78 L94.23,68.88 L93.46,69.82 L92.54,70.59 L91.46,71.20 L90.28,71.59 L89.02,71.71 L84.00,71.71 Z" fill="#3990e4" stroke="#1e1e1e" stroke-width="1" stroke-linejoin="round"/><path d="M90.66,65.36 L90.67,65.36 L90.67,65.29 L90.67,12.43 L90.54,11.81 L90.19,11.29 L89.69,10.93 L89.09,10.77 L89.09,10.76 L89.02,10.76 L18.98,10.76 L18.37,10.89 L17.85,11.25 L17.50,11.76 L17.34,12.36 L17.33,12.36 L17.33,12.43 L17.33,23.62 L17.33,24.29 L18.00,24.29 L41.08,24.29 L12.67,56.43 L12.67,29.71 L12.67,29.05 L12.00,29.05 L6.98,29.05 L6.37,29.17 L5.85,29.53 L5.50,30.04 L5.34,30.64 L5.33,30.64 L5.33,30.71 L5.33,83.57 L5.46,84.19 L5.81,84.71 L6.31,85.07 L6.91,85.23 L6.91,85.24 L6.98,85.24 L77.02,85.24 L77.63,85.11 L78.15,84.75 L78.50,84.24 L78.66,83.64 L78.67,83.64 L78.67,83.57 L78.67,72.38 L78.67,71.71 L78.00,71.71 L54.92,71.71 L83.33,39.57 L83.33,66.29 L83.33,66.95 L84.00,66.95 L89.02,66.95 L89.63,66.83 L90.15,66.47 L90.50,65.96 L90.66,65.36 Z" fill="#ffffff" stroke="#1e1e1e" stroke-width="1" stroke-linejoin="round"/><path d="M78.00,24.29 L79.14,24.40 L80.21,24.75 L80.97,25.18 L81.66,25.76 L41.04,71.71 L18.00,71.71 L16.86,71.60 L15.79,71.25 L15.03,70.82 L14.34,70.24 L54.96,24.29 L78.00,24.29 Z" fill="#3990e4" stroke="#1e1e1e" stroke-width="1" stroke-linejoin="round"/></svg>