<svg xmlns="http://www.w3.org/2000/svg" viewBox="0.65 -0.12 97.35 100.00"><path d="M53.64,23.97 L57.82,20.42 L58.62,19.99 L59.49,19.91 L60.35,20.18 L61.08,20.77 L61.53,21.60 L61.64,22.50 L61.42,23.35 L60.86,24.07 L55.97,28.23 L55.18,28.65 L54.29,28.74 L45.10,27.73 L44.48,27.56 L43.91,27.21 L43.12,26.22 L39.68,17.76 L31.91,16.91 L31.03,16.63 L30.33,16.05 L29.88,15.26 L29.76,14.33 L30.00,13.44 L30.54,12.75 L31.30,12.33 L32.21,12.25 L39.98,13.10 L44.47,5.49 L45.34,4.69 L45.95,4.47 L46.61,4.43 L55.80,5.43 L56.67,5.70 L57.39,6.29 L61.68,11.45 L62.13,12.28 L62.25,13.17 L62.02,14.03 L61.47,14.75 L60.67,15.18 L59.80,15.25 L58.94,14.99 L58.21,14.39 L54.55,9.99 L47.73,9.24 L43.83,15.86 L46.82,23.23 L53.64,23.97 Z" fill="#605e5c" stroke="#1e1e1e" stroke-width="1" stroke-linejoin="round"/><path d="M55.00,62.98 L54.95,62.93 L52.12,60.66 L48.04,57.78 L45.88,56.42 L43.81,55.29 L41.96,54.52 L40.48,54.24 L27.12,64.91 L32.32,72.04 L32.27,73.01 L32.27,84.10 L32.48,85.15 L33.06,86.00 L33.93,86.57 L35.01,86.78 L56.92,86.78 L58.00,86.57 L58.86,86.00 L59.45,85.15 L59.66,84.10 L59.66,73.01 L59.35,70.14 L58.44,67.45 L56.98,65.04 L55.00,62.98 Z" fill="#a19f9d" stroke="#1e1e1e" stroke-width="1" stroke-linejoin="round"/><path d="M31.70,22.83 L27.22,44.81 L26.89,45.67 L26.30,46.33 L25.47,46.78 L24.50,46.90 L14.84,46.21 L13.87,46.24 L12.96,46.43 L12.11,46.79 L11.34,47.28 L10.66,47.91 L10.10,48.66 L9.67,49.51 L9.38,50.45 L8.96,51.44 L8.22,52.14 L7.26,52.50 L6.19,52.45 L5.20,51.98 L4.48,51.19 L4.08,50.20 L4.08,49.10 L11.02,14.70 L11.02,14.69 L11.45,13.70 L12.19,12.99 L13.15,12.63 L14.22,12.68 L15.34,13.17 L15.96,13.89 L16.24,14.80 L16.32,15.86 L16.44,18.24 L16.78,19.49 L17.48,20.71 L18.27,21.53 L19.16,22.16 L20.13,22.59 L21.15,22.83 L22.19,22.87 L23.22,22.71 L24.20,22.33 L25.11,21.74 L27.32,19.96 L28.04,19.55 L28.84,19.39 L29.66,19.49 L30.44,19.85 L31.09,20.43 L31.53,21.16 L31.74,21.98 L31.70,22.83 Z" fill="#a19f9d" stroke="#1e1e1e" stroke-width="1" stroke-linejoin="round"/><path d="M60.92,79.97 L28.85,79.97 L26.16,80.26 L23.65,81.07 L21.39,82.37 L19.41,84.08 L17.77,86.15 L16.54,88.53 L15.76,91.16 L15.49,93.98 L15.70,95.07 L16.27,95.96 L17.12,96.56 L18.16,96.78 L71.61,96.78 L72.65,96.56 L73.50,95.96 L74.07,95.07 L74.28,93.98 L74.01,91.16 L73.23,88.53 L72.00,86.15 L70.37,84.08 L68.39,82.37 L66.12,81.07 L63.61,80.26 L60.92,79.97 Z" fill="#c0c0c0" stroke="#1e1e1e" stroke-width="1" stroke-linejoin="round"/><path d="M55.87,59.66 L53.60,58.88 L51.26,58.53 L48.89,58.62 L46.56,59.15 L44.32,60.13 L42.32,61.51 L40.60,63.24 L39.21,65.27 L38.20,67.58 L37.62,70.10 L37.52,72.79 L37.93,75.62 L9.29,62.58 L7.07,61.19 L5.29,59.45 L3.95,57.44 L3.06,55.24 L2.65,52.92 L2.71,50.59 L3.25,48.30 L4.30,46.16 L5.48,44.62 L6.87,43.35 L8.44,42.37 L10.14,41.68 L11.93,41.30 L13.77,41.25 L15.63,41.52 L17.46,42.15 L55.87,59.66 L55.98,59.71 L55.87,59.66 Z" fill="#c0c0c0" stroke="#1e1e1e" stroke-width="1" stroke-linejoin="round"/><path d="M29.98,27.05 L21.32,25.51 L19.02,24.86 L16.95,23.79 L15.13,22.36 L13.61,20.62 L12.43,18.63 L11.62,16.45 L11.24,14.13 L11.32,11.73 L11.86,9.43 L12.82,7.36 L14.13,5.55 L15.76,4.06 L17.66,2.92 L19.77,2.18 L22.04,1.88 L24.43,2.06 L33.10,3.60 L34.19,4.03 L35.03,4.82 L35.52,5.86 L35.60,7.04 L33.26,24.64 L32.88,25.74 L32.14,26.56 L31.14,27.02 L29.98,27.05 Z" fill="#c0c0c0" stroke="#1e1e1e" stroke-width="1" stroke-linejoin="round"/><path d="M60.76,81.28 L63.52,80.98 L66.10,80.15 L68.43,78.82 L70.46,77.07 L72.14,74.95 L73.40,72.51 L74.20,69.82 L74.48,66.92 L74.20,64.03 L73.40,61.34 L72.14,58.90 L70.46,56.77 L68.43,55.02 L66.10,53.70 L63.52,52.86 L60.76,52.57 L57.99,52.86 L55.41,53.70 L53.08,55.02 L51.05,56.77 L49.37,58.90 L48.11,61.34 L47.31,64.03 L47.03,66.92 L47.31,69.82 L48.11,72.51 L49.37,74.95 L51.05,77.07 L53.08,78.82 L55.41,80.15 L57.99,80.98 L60.76,81.28 Z" fill="#ffffff" stroke="#1e1e1e" stroke-width="1" stroke-linejoin="round"/><path d="M95.12,71.39 L96.00,71.06 L96.00,70.12 L96.00,63.36 L96.00,62.44 L95.14,62.10 L94.23,61.74 L94.23,61.74 L94.17,61.72 L87.85,59.56 L86.48,56.05 L89.76,48.75 L90.13,47.92 L89.50,47.26 L84.97,42.52 L84.27,41.79 L83.36,42.25 L82.45,42.72 L82.45,42.72 L82.44,42.73 L76.56,45.86 L73.28,44.45 L70.65,36.89 L70.33,35.98 L69.36,35.98 L62.90,35.98 L61.94,35.98 L61.62,36.88 L61.29,37.82 L61.29,37.82 L61.27,37.87 L59.19,44.51 L55.93,45.90 L49.13,42.44 L48.23,41.99 L47.53,42.71 L43.00,47.46 L42.35,48.13 L42.75,48.98 L43.21,49.92 L43.21,49.92 L43.21,49.93 L46.24,56.15 L44.86,59.67 L37.49,62.43 L36.61,62.76 L36.61,63.70 L36.61,70.44 L36.61,71.37 L37.47,71.71 L38.38,72.06 L38.38,72.07 L38.43,72.09 L44.76,74.26 L46.13,77.76 L42.85,85.06 L42.48,85.90 L43.11,86.56 L47.64,91.30 L48.35,92.03 L49.25,91.56 L50.16,91.08 L50.17,91.08 L56.05,87.95 L59.33,89.35 L61.96,96.97 L62.28,97.88 L63.24,97.88 L69.71,97.88 L70.66,97.88 L70.98,96.98 L71.32,96.03 L71.33,96.03 L71.34,95.98 L73.42,89.34 L76.69,87.94 L83.61,91.34 L84.51,91.78 L85.19,91.06 L89.73,86.32 L90.37,85.64 L89.97,84.80 L89.52,83.85 L89.52,83.85 L89.52,83.84 L86.49,77.62 L87.86,74.11 L95.12,71.39 Z" fill="#3990e4" stroke="#1e1e1e" stroke-width="1" stroke-linejoin="round"/><path d="M66.31,78.56 L64.69,78.44 L63.11,78.07 L61.59,77.46 L60.17,76.61 L58.88,75.56 L57.75,74.32 L56.81,72.93 L56.07,71.39 L55.55,69.75 L55.27,68.06 L55.23,66.34 L55.43,64.62 L55.87,62.96 L56.54,61.39 L57.42,59.95 L58.49,58.64 L59.73,57.53 L61.10,56.62 L62.59,55.93 L64.16,55.47 L65.77,55.27 L67.39,55.31 L68.98,55.60 L70.53,56.13 L71.99,56.90 L73.32,57.88 L74.50,59.06 L75.51,60.41 L76.32,61.91 L76.91,63.51 L77.27,65.18 L77.40,66.91 L77.18,69.20 L76.54,71.39 L75.52,73.40 L74.13,75.17 L72.44,76.62 L70.53,77.68 L68.47,78.34 L66.31,78.56 Z" fill="#ffffff" stroke="#1e1e1e" stroke-width="1" stroke-linejoin="round"/></svg>