<svg xmlns="http://www.w3.org/2000/svg" viewBox="-2.00 -2.00 97.38 100.00"><path d="M36.90,46.59 L38.49,46.69 L40.07,46.95 L40.64,47.27 L40.91,47.85 L41.16,49.98 L41.38,50.66 L41.82,51.20 L42.43,51.57 L43.16,51.70 L43.96,51.53 L45.99,50.68 L46.65,50.61 L47.22,50.92 L48.25,52.10 L49.14,53.39 L49.86,54.76 L50.42,56.20 L50.42,56.84 L50.03,57.36 L48.23,58.63 L47.63,59.31 L47.41,60.18 L47.63,61.05 L48.23,61.73 L50.03,63.01 L50.42,63.53 L50.43,64.16 L49.87,65.61 L49.14,66.98 L48.26,68.26 L47.23,69.45 L46.65,69.76 L46.00,69.69 L43.96,68.83 L43.04,68.67 L42.15,68.93 L41.47,69.54 L41.16,70.38 L40.91,72.51 L40.65,73.09 L40.08,73.41 L38.49,73.68 L36.89,73.77 L35.28,73.68 L33.69,73.41 L33.12,73.09 L32.86,72.51 L32.61,70.39 L32.30,69.55 L31.62,68.94 L30.73,68.68 L29.82,68.84 L27.78,69.70 L27.12,69.76 L26.54,69.45 L25.51,68.27 L24.63,66.98 L23.91,65.61 L23.35,64.16 L23.35,63.53 L23.74,63.01 L25.54,61.74 L26.15,61.05 L26.36,60.18 L26.15,59.31 L25.54,58.63 L23.74,57.36 L23.35,56.84 L23.35,56.21 L23.91,54.76 L24.63,53.39 L25.52,52.11 L26.55,50.92 L27.12,50.61 L27.78,50.68 L29.81,51.54 L30.73,51.69 L31.62,51.43 L32.30,50.82 L32.61,49.98 L32.86,47.85 L33.13,47.27 L33.71,46.95 L35.29,46.69 L36.90,46.59 Z" fill="#212121" stroke="#212121" stroke-width="1" stroke-linejoin="round"/><path d="M36.90,48.68 L34.94,48.85 L34.78,50.21 L34.56,51.13 L34.12,51.96 L33.50,52.68 L32.72,53.24 L31.81,53.62 L30.85,53.78 L29.88,53.73 L28.94,53.45 L27.63,52.90 L26.52,54.44 L25.68,56.13 L26.83,56.95 L27.55,57.59 L28.09,58.37 L28.42,59.25 L28.54,60.18 L28.42,61.12 L28.09,62.00 L27.55,62.77 L26.84,63.42 L25.68,64.24 L26.52,65.93 L27.63,67.48 L28.95,66.92 L29.89,66.65 L30.85,66.59 L31.81,66.75 L32.71,67.12 L33.50,67.69 L34.12,68.40 L34.55,69.23 L34.78,70.15 L34.93,71.52 L36.89,71.68 L38.84,71.52 L39.00,70.15 L39.22,69.23 L39.65,68.40 L40.27,67.68 L41.06,67.12 L41.96,66.75 L42.92,66.59 L43.89,66.64 L44.83,66.92 L46.14,67.47 L47.26,65.93 L48.10,64.24 L46.94,63.42 L46.22,62.77 L45.68,62.00 L45.35,61.12 L45.23,60.18 L45.35,59.24 L45.68,58.37 L46.22,57.59 L46.94,56.95 L48.09,56.13 L47.25,54.44 L46.14,52.90 L44.84,53.45 L44.01,53.70 L43.15,53.79 L41.64,53.51 L40.36,52.76 L39.44,51.63 L39.00,50.21 L38.84,48.85 L36.90,48.68 Z" fill="#ffffff" stroke="#ffffff" stroke-width="1" stroke-linejoin="round"/><path d="M36.88,54.96 L37.98,55.06 L39.00,55.37 L39.93,55.85 L40.73,56.49 L41.40,57.26 L41.90,58.15 L42.22,59.13 L42.33,60.18 L42.22,61.24 L41.90,62.22 L41.40,63.11 L40.73,63.88 L39.93,64.52 L39.00,65.00 L37.98,65.30 L36.88,65.41 L35.79,65.30 L34.77,65.00 L33.84,64.52 L33.03,63.88 L32.37,63.11 L31.87,62.22 L31.55,61.24 L31.44,60.18 L31.55,59.13 L31.87,58.15 L32.37,57.26 L33.03,56.49 L33.84,55.85 L34.77,55.37 L35.79,55.06 L36.88,54.96 Z" fill="#212121" stroke="#212121" stroke-width="1" stroke-linejoin="round"/><path d="M36.88,57.05 L35.61,57.29 L34.57,57.97 L33.87,58.96 L33.62,60.18 L33.87,61.40 L34.57,62.40 L35.61,63.07 L36.88,63.32 L38.16,63.07 L39.19,62.40 L39.89,61.40 L40.15,60.18 L39.89,58.96 L39.19,57.97 L38.16,57.29 L36.88,57.05 Z" fill="#ffffff" stroke="#ffffff" stroke-width="1" stroke-linejoin="round"/><path d="M80.62,31.06 L86.10,31.06 L86.10,58.04 L80.62,58.04 L80.62,52.51 L80.62,31.06 Z" fill="#0061b0" stroke="#0061b0" stroke-width="1" stroke-linejoin="round"/><path d="M80.62,52.51 L58.31,52.51 L58.31,58.04 L80.62,58.04 L80.62,52.51 Z" fill="#0061b0" stroke="#0061b0" stroke-width="1" stroke-linejoin="round"/><path d="M91.61,0.00 L51.35,0.00 L50.68,0.16 L50.11,0.55 L49.74,1.13 L49.61,1.81 L49.61,13.18 L49.74,13.86 L50.13,14.45 L50.70,14.84 L51.38,14.99 L91.61,14.99 L92.29,14.85 L92.87,14.45 L93.26,13.87 L93.38,13.18 L93.38,1.81 L93.26,1.12 L92.87,0.53 L92.29,0.14 L91.61,0.00 Z" fill="#3990e4" stroke="#1e1e1e" stroke-width="1" stroke-linejoin="round"/><path d="M91.48,16.11 L51.23,16.11 L50.60,16.28 L50.07,16.68 L49.73,17.24 L49.61,17.88 L49.61,29.29 L49.73,29.97 L50.12,30.55 L50.70,30.94 L51.38,31.06 L91.48,31.06 L92.15,30.92 L92.72,30.53 L93.09,29.96 L93.23,29.29 L93.23,17.88 L93.09,17.22 L92.71,16.65 L92.15,16.26 L91.48,16.11 Z" fill="#3990e4" stroke="#1e1e1e" stroke-width="1" stroke-linejoin="round"/><path d="M88.93,2.80 L86.59,2.80 L86.26,2.94 L86.12,3.27 L86.12,5.61 L86.26,5.94 L86.59,6.08 L88.93,6.08 L89.26,5.94 L89.39,5.61 L89.39,3.27 L89.26,2.94 L88.93,2.80 Z" fill="#92ceff" stroke="#92ceff" stroke-width="1" stroke-linejoin="round"/><path d="M88.93,8.44 L86.59,8.44 L86.26,8.58 L86.12,8.91 L86.12,11.25 L86.26,11.58 L86.59,11.72 L88.93,11.72 L89.26,11.58 L89.39,11.25 L89.39,8.91 L89.26,8.58 L88.93,8.44 Z" fill="#92ceff" stroke="#92ceff" stroke-width="1" stroke-linejoin="round"/><path d="M88.93,18.82 L86.59,18.82 L86.26,18.95 L86.12,19.29 L86.12,21.62 L86.26,21.95 L86.59,22.09 L88.93,22.09 L89.26,21.95 L89.39,21.62 L89.39,19.29 L89.26,18.95 L88.93,18.82 Z" fill="#92ceff" stroke="#92ceff" stroke-width="1" stroke-linejoin="round"/><path d="M88.93,24.46 L86.59,24.46 L86.26,24.59 L86.12,24.92 L86.12,27.26 L86.26,27.59 L86.59,27.73 L88.93,27.73 L89.26,27.59 L89.39,27.26 L89.39,24.92 L89.26,24.59 L88.93,24.46 Z" fill="#92ceff" stroke="#92ceff" stroke-width="1" stroke-linejoin="round"/><path d="M60.05,38.60 L2.07,38.60 L1.26,38.77 L0.61,39.21 L0.16,39.87 L0.00,40.67 L0.00,77.95 L0.16,78.76 L0.61,79.41 L1.26,79.86 L2.07,80.02 L60.05,80.02 L60.86,79.86 L61.52,79.41 L61.96,78.76 L62.12,77.95 L62.12,40.67 L61.96,39.87 L61.52,39.21 L60.86,38.77 L60.05,38.60 Z" fill="#3b91e5" stroke="#1e1e1e" stroke-width="1" stroke-linejoin="round"/><path d="M43.52,92.55 L41.48,92.03 L39.93,91.19 L38.80,90.04 L38.03,88.60 L37.54,86.87 L37.27,84.86 L37.14,80.02 L24.95,80.02 L24.83,84.86 L24.56,86.87 L24.08,88.60 L23.31,90.04 L22.19,91.19 L20.64,92.03 L18.60,92.55 L17.40,92.91 L16.40,93.68 L15.75,94.76 L15.53,96.00 L46.59,96.00 L46.37,94.76 L45.72,93.68 L44.73,92.91 L43.52,92.55 Z" fill="#9e9e9e" stroke="#1e1e1e" stroke-width="1" stroke-linejoin="round"/><path d="M46.59,60.83 L46.59,57.25 L46.09,57.07 L42.27,55.81 L41.27,53.37 L43.21,49.23 L40.71,46.73 L40.21,46.98 L36.64,48.79 L34.20,47.79 L32.63,43.49 L29.06,43.49 L28.88,43.99 L27.62,47.81 L25.18,48.81 L21.11,46.83 L18.61,49.34 L18.86,49.84 L20.68,53.41 L19.67,55.86 L15.29,57.43 L15.29,61.00 L15.79,61.19 L19.61,62.45 L20.61,64.89 L18.67,69.03 L21.17,71.53 L21.68,71.28 L25.24,69.46 L27.69,70.47 L29.25,74.79 L32.82,74.79 L33.01,74.29 L34.26,70.47 L36.70,69.46 L40.83,71.41 L43.34,68.90 L43.09,68.40 L41.27,64.82 L42.27,62.38 L46.59,60.83 Z" fill="#ffffff" stroke="#ffffff" stroke-width="1" stroke-linejoin="round"/><path d="M30.94,66.01 L28.95,65.71 L27.12,64.85 L25.63,63.50 L24.59,61.76 L24.10,59.80 L24.20,57.79 L24.88,55.89 L26.08,54.26 L27.70,53.06 L29.60,52.38 L31.62,52.28 L33.57,52.77 L35.30,53.81 L36.66,55.31 L37.52,57.13 L37.82,59.13 L37.68,60.48 L37.29,61.76 L36.66,62.95 L35.80,64.00 L34.76,64.85 L33.57,65.49 L32.29,65.88 L30.94,66.01 Z" fill="#3b91e5" stroke="#3b91e5" stroke-width="1" stroke-linejoin="round"/></svg>