<svg xmlns="http://www.w3.org/2000/svg" viewBox="0.21 3.68 95.58 88.64"><path d="M90.87,5.68 L5.14,5.68 L4.00,5.91 L3.07,6.54 L2.44,7.46 L2.21,8.60 L2.21,63.81 L2.44,64.95 L3.07,65.87 L4.00,66.50 L5.14,66.73 L90.87,66.73 L92.01,66.50 L92.94,65.87 L93.56,64.95 L93.79,63.81 L93.79,8.60 L93.56,7.46 L92.94,6.54 L92.01,5.91 L90.87,5.68 Z" fill="#3a90e5" stroke="#1e1e1e" stroke-width="1" stroke-linejoin="round"/><path d="M66.36,85.20 L64.76,84.88 L63.36,84.43 L62.13,83.87 L61.07,83.20 L60.16,82.41 L59.40,81.51 L58.26,79.38 L57.55,76.83 L57.16,73.86 L57.01,70.49 L56.98,66.73 L39.02,66.73 L38.99,70.49 L38.83,73.86 L38.44,76.83 L37.72,79.39 L36.58,81.51 L35.82,82.41 L34.92,83.20 L33.86,83.88 L32.64,84.44 L31.23,84.88 L29.63,85.20 L28.73,85.42 L27.89,85.79 L27.12,86.30 L26.45,86.94 L25.90,87.69 L25.49,88.52 L25.23,89.40 L25.12,90.32 L70.93,90.32 L70.82,89.39 L70.56,88.50 L70.14,87.68 L69.58,86.93 L68.90,86.29 L68.12,85.78 L67.27,85.41 L66.36,85.20 Z" fill="#a6a6a6" stroke="#1e1e1e" stroke-width="1" stroke-linejoin="round"/><path d="M21.57,33.88 L23.42,32.04 L37.99,46.65 L38.23,47.24 L37.98,47.83 L36.13,49.68 L35.54,49.92 L34.95,49.67 L21.56,36.25 L21.20,35.70 L21.07,35.06 L21.20,34.42 L21.57,33.88 L21.57,33.88 Z" fill="#b4d2f7" stroke="#1e1e1e" stroke-width="1" stroke-linejoin="round"/><path d="M23.39,38.10 L21.55,36.25 L21.18,35.71 L21.06,35.07 L21.19,34.43 L21.55,33.88 L35.21,20.26 L35.80,20.02 L36.39,20.26 L38.24,22.11 L38.48,22.71 L38.24,23.30 L23.39,38.10 Z" fill="#f2f2f2" stroke="#1e1e1e" stroke-width="1" stroke-linejoin="round"/><path d="M60.91,49.69 L59.06,47.84 L58.88,47.57 L58.81,47.25 L58.87,46.93 L59.06,46.66 L73.64,32.03 L75.49,33.88 L75.86,34.42 L75.98,35.06 L75.86,35.70 L75.49,36.25 L62.09,49.69 L61.50,49.94 L60.90,49.69 L60.91,49.69 Z" fill="#b4d2f7" stroke="#1e1e1e" stroke-width="1" stroke-linejoin="round"/><path d="M58.78,22.12 L60.62,20.27 L61.21,20.03 L61.80,20.27 L75.47,33.89 L75.83,34.44 L75.96,35.08 L75.83,35.72 L75.47,36.26 L73.62,38.11 L58.79,23.32 L58.60,23.05 L58.53,22.72 L58.59,22.40 L58.78,22.12 Z" fill="#f2f2f2" stroke="#1e1e1e" stroke-width="1" stroke-linejoin="round"/><path d="M56.47,15.67 L53.51,14.73 L53.06,14.77 L52.76,15.11 L40.71,52.75 L40.75,53.21 L41.10,53.50 L44.06,54.45 L44.51,54.41 L44.81,54.06 L56.86,16.43 L56.82,15.97 L56.47,15.67 Z" fill="#f2f2f2" stroke="#1e1e1e" stroke-width="1" stroke-linejoin="round"/></svg>