<svg xmlns="http://www.w3.org/2000/svg" viewBox="-2.00 -1.25 100.00 92.10"><path d="M49.19,64.63 L47.75,64.52 L46.36,64.21 L45.02,63.69 L43.76,62.98 L42.63,62.10 L41.64,61.06 L40.81,59.89 L40.17,58.60 L39.72,57.23 L39.47,55.82 L39.44,54.38 L39.61,52.95 L40.00,51.57 L40.58,50.26 L41.35,49.04 L42.29,47.95 L43.38,47.01 L44.59,46.25 L45.90,45.67 L47.29,45.28 L48.72,45.11 L50.16,45.14 L51.57,45.39 L52.94,45.84 L54.22,46.49 L55.40,47.32 L56.43,48.31 L57.32,49.45 L58.03,50.70 L58.54,52.04 L58.85,53.44 L58.96,54.88 L58.77,56.79 L58.21,58.61 L57.31,60.29 L56.09,61.77 L54.61,62.99 L52.93,63.89 L51.10,64.44 L49.19,64.63 Z" fill="#70acf4" stroke="#70acf4" stroke-width="1" stroke-linejoin="round" opacity="0.9"/><path d="M49.19,49.23 L47.56,49.48 L46.07,50.20 L44.85,51.32 L44.01,52.74 L43.61,54.34 L43.70,55.99 L44.26,57.54 L45.25,58.87 L46.58,59.85 L48.14,60.40 L49.79,60.48 L51.39,60.08 L52.81,59.23 L53.91,58.00 L54.62,56.51 L54.87,54.88 L54.76,53.77 L54.43,52.71 L53.91,51.73 L53.20,50.87 L52.34,50.17 L51.36,49.65 L50.30,49.33 L49.19,49.23 L49.19,49.23 Z" fill="#ffffff" stroke="#ffffff" stroke-width="1" stroke-linejoin="round" opacity="0.9"/><path d="M71.96,20.24 L59.71,20.24 L59.47,20.31 L59.31,20.50 L59.28,20.75 L59.40,20.97 L62.90,24.47 L63.05,24.82 L62.90,25.17 L53.42,34.66 L52.29,36.02 L52.29,10.70 L52.42,10.39 L52.73,10.27 L57.83,10.27 L58.07,10.19 L58.23,10.00 L58.25,9.75 L58.14,9.53 L49.46,0.87 L49.15,0.75 L48.85,0.87 L40.21,9.53 L40.10,9.75 L40.13,10.00 L40.28,10.19 L40.52,10.27 L45.58,10.27 L45.88,10.40 L46.02,10.70 L46.02,36.00 L44.91,34.66 L35.43,25.17 L35.32,25.01 L35.28,24.82 L35.32,24.63 L35.43,24.47 L38.92,20.97 L39.04,20.67 L38.92,20.37 L38.78,20.28 L38.62,20.25 L26.37,20.25 L26.07,20.37 L25.94,20.68 L25.94,32.91 L25.98,33.08 L26.07,33.22 L26.21,33.31 L26.38,33.34 L26.68,33.22 L30.34,29.55 L30.50,29.44 L30.69,29.41 L30.88,29.44 L31.05,29.55 L40.53,39.04 L41.92,40.62 L43.12,42.34 L44.12,44.19 L44.89,46.14 L46.96,45.37 L49.16,45.10 L51.35,45.35 L53.43,46.11 L54.21,44.16 L55.20,42.32 L56.40,40.61 L57.79,39.04 L67.28,29.55 L67.44,29.44 L67.63,29.41 L67.82,29.44 L67.99,29.55 L71.65,33.22 L71.95,33.34 L72.25,33.22 L72.39,32.91 L72.39,20.66 L72.26,20.36 L71.96,20.24 L71.96,20.24 Z" fill="#70acf4" stroke="#1e1e1e" stroke-width="1" stroke-linejoin="round"/><path d="M96.00,75.89 L96.00,77.79 L95.78,78.82 L95.15,79.69 L94.22,80.27 L93.11,80.47 L82.29,80.47 L82.29,73.21 L93.11,73.21 L94.22,73.42 L95.15,74.00 L95.78,74.87 L96.00,75.89 L96.00,75.89 Z" fill="#32bedd" stroke="#32bedd" stroke-width="1" stroke-linejoin="round"/><path d="M13.71,73.21 L13.71,80.47 L2.89,80.47 L1.78,80.27 L0.85,79.69 L0.22,78.82 L0.00,77.79 L0.00,75.89 L0.22,74.87 L0.85,74.00 L1.78,73.42 L2.89,73.21 L13.71,73.21 Z" fill="#32bedd" stroke="#32bedd" stroke-width="1" stroke-linejoin="round"/><path d="M83.47,61.31 L13.47,61.31 L12.29,61.56 L11.29,62.27 L10.62,63.33 L10.38,64.59 L10.38,85.58 L10.62,86.83 L11.29,87.89 L12.29,88.60 L13.47,88.85 L83.47,88.85 L84.65,88.60 L85.66,87.89 L86.33,86.83 L86.56,85.58 L86.56,64.59 L86.33,63.33 L85.66,62.27 L84.65,61.56 L83.47,61.31 L83.47,61.31 Z" fill="#27b2d7" stroke="#1e1e1e" stroke-width="1" stroke-linejoin="round"/><path d="M78.29,65.08 L73.42,65.08 L72.75,65.37 L72.48,66.08 L72.48,71.24 L72.75,71.94 L73.42,72.23 L78.29,72.23 L78.96,71.94 L79.23,71.24 L79.23,66.08 L78.96,65.37 L78.29,65.08 Z" fill="#b4ec36" stroke="#b4ec36" stroke-width="1" stroke-linejoin="round"/><path d="M78.29,77.39 L73.42,77.39 L72.75,77.69 L72.48,78.39 L72.48,83.55 L72.75,84.25 L73.42,84.55 L78.29,84.55 L78.96,84.25 L79.23,83.55 L79.23,78.39 L78.96,77.69 L78.29,77.39 Z" fill="#b4ec36" stroke="#b4ec36" stroke-width="1" stroke-linejoin="round"/><path d="M34.97,54.17 L61.99,54.17 L62.63,54.30 L63.18,54.69 L63.55,55.27 L63.68,55.96 L63.68,61.32 L33.28,61.32 L33.28,55.95 L33.41,55.26 L33.78,54.69 L34.33,54.30 L34.97,54.17 L34.97,54.17 Z" fill="#198ab3" stroke="#198ab3" stroke-width="1" stroke-linejoin="round"/></svg>