<svg xmlns="http://www.w3.org/2000/svg" viewBox="-2.00 19.33 100.00 61.60"><path d="M0.00,21.33 L0.00,78.93 L96.00,78.93 L96.00,21.33 L0.00,21.33 Z" fill="#0077d2" stroke="#1e1e1e" stroke-width="1" stroke-linejoin="round"/><path d="M94.16,23.19 L1.85,23.19 L1.85,77.08 L94.16,77.08 L94.16,23.19 Z" fill="#ffffff" stroke="#1e1e1e" stroke-width="1" stroke-linejoin="round"/><path d="M1.85,23.19 L94.16,23.19 L94.16,77.08 L1.85,77.08 L1.85,23.19 Z" fill="#0077d2" stroke="#1e1e1e" stroke-width="1" stroke-linejoin="round"/><path d="M27.11,37.33 L13.79,37.33 L12.65,37.98 L12.63,37.95 L12.44,38.10 L12.22,38.22 L12.24,38.25 L11.39,38.92 L9.52,49.96 L10.80,51.43 L10.69,51.52 L10.79,51.62 L9.32,52.64 L7.46,63.80 L8.42,65.23 L11.30,62.98 L12.75,53.56 L23.46,53.56 L21.84,62.85 L23.89,65.29 L25.29,64.44 L27.16,53.32 L25.79,51.82 L25.95,51.67 L25.91,51.64 L27.51,50.35 L29.23,39.59 L28.46,38.68 L28.47,38.67 L28.38,38.58 L28.08,38.23 L28.04,38.26 L27.11,37.33 Z" fill="#ffffff" stroke="#ffffff" stroke-width="1" stroke-linejoin="round"/><path d="M14.68,40.92 L13.12,49.86 L23.93,49.86 L25.21,40.92 L14.68,40.92 Z" fill="#0077d2" stroke="#0077d2" stroke-width="1" stroke-linejoin="round"/><path d="M38.47,40.55 L36.35,37.95 L35.12,38.92 L33.25,49.96 L34.63,51.55 L33.05,52.64 L31.18,63.80 L32.15,65.23 L32.24,65.16 L33.14,66.23 L46.35,66.23 L48.04,65.18 L46.00,62.51 L35.10,62.49 L36.53,53.20 L35.26,51.62 L36.74,50.50 L38.47,40.55 Z" fill="#ffffff" stroke="#1e1e1e" stroke-width="1" stroke-linejoin="round"/><path d="M73.39,37.33 L60.08,37.33 L58.50,38.22 L60.53,40.92 L71.49,40.92 L70.22,49.86 L59.22,49.86 L56.98,51.52 L57.08,51.62 L55.61,52.64 L53.74,63.80 L54.71,65.23 L54.80,65.16 L55.70,66.23 L68.91,66.23 L70.60,65.18 L68.56,62.51 L57.66,62.49 L59.03,53.56 L70.16,53.56 L72.24,51.67 L72.20,51.64 L73.79,50.35 L75.52,39.59 L74.74,38.68 L74.75,38.67 L74.66,38.58 L74.36,38.23 L74.33,38.26 L73.39,37.33 Z" fill="#ffffff" stroke="#1e1e1e" stroke-width="1" stroke-linejoin="round"/><path d="M88.54,39.59 L87.39,38.23 L84.60,40.38 L83.19,50.25 L84.46,51.65 L82.86,53.06 L81.15,62.85 L83.20,65.29 L84.60,64.44 L86.47,53.32 L85.06,51.77 L86.82,50.35 L88.54,39.59 Z" fill="#ffffff" stroke="#ffffff" stroke-width="1" stroke-linejoin="round"/></svg>