<svg xmlns="http://www.w3.org/2000/svg" viewBox="-2.00 -2.00 100.00 100.00"><path d="M91.19,0.00 L4.81,0.00 L3.84,0.09 L2.94,0.35 L2.12,0.75 L1.41,1.29 L0.82,1.95 L0.38,2.70 L0.10,3.53 L0.00,4.42 L0.00,91.58 L0.10,92.47 L0.38,93.30 L0.82,94.05 L1.41,94.71 L2.12,95.25 L2.94,95.65 L3.84,95.91 L4.81,96.00 L91.19,96.00 L92.16,95.91 L93.06,95.65 L93.88,95.25 L94.59,94.71 L95.18,94.05 L95.62,93.30 L95.90,92.47 L96.00,91.58 L96.00,4.42 L95.90,3.53 L95.62,2.70 L95.18,1.95 L94.59,1.29 L93.88,0.75 L93.06,0.35 L92.16,0.09 L91.19,0.00 Z" fill="#70acf4" stroke="#1e1e1e" stroke-width="1" stroke-linejoin="round"/><path d="M17.03,23.42 L17.03,18.47 L17.16,17.94 L17.49,17.50 L17.95,17.22 L18.49,17.14 L76.75,17.14 L77.28,17.22 L77.73,17.51 L78.04,17.95 L78.14,18.47 L78.14,26.14 L78.04,26.66 L77.73,27.10 L77.28,27.38 L76.75,27.46 L76.21,27.38 L75.74,27.11 L75.42,26.67 L75.28,26.14 L75.28,19.79 L19.96,19.79 L19.96,23.42 L19.83,23.95 L19.50,24.39 L19.03,24.67 L18.49,24.75 L17.96,24.65 L17.50,24.37 L17.18,23.94 L17.03,23.42 Z" fill="#9cebff" stroke="#1e1e1e" stroke-width="1" stroke-linejoin="round"/><path d="M9.91,24.12 L9.91,12.96 L10.04,12.43 L10.37,11.99 L10.84,11.71 L11.38,11.63 L83.45,10.73 L84.01,10.82 L84.49,11.14 L84.81,11.55 L84.91,12.05 L84.91,31.93 L82.05,31.93 L82.05,13.45 L12.84,14.28 L12.84,24.12 L9.91,24.12 Z" fill="#9cebff" stroke="#1e1e1e" stroke-width="1" stroke-linejoin="round"/><path d="M64.59,43.97 L64.59,13.47 L64.39,12.92 L63.84,12.47 L63.02,12.17 L62.02,12.06 L36.40,12.06 L35.40,12.17 L34.59,12.47 L34.04,12.92 L33.83,13.47 L33.83,43.97 L34.04,44.52 L34.59,44.97 L35.40,45.27 L36.40,45.38 L62.02,45.38 L63.02,45.27 L63.84,44.97 L64.39,44.52 L64.59,43.97 Z" fill="#70acf4" stroke="#1e1e1e" stroke-width="1" stroke-linejoin="round"/><path d="M37.30,71.15 L37.30,76.91 L37.75,77.15 L38.84,77.25 L42.21,77.25 L43.29,77.15 L43.74,76.91 L43.74,71.15 L43.29,70.91 L42.21,70.81 L38.84,70.81 L37.75,70.91 L37.30,71.15 Z" fill="#2a4e77" stroke="#2a4e77" stroke-width="1" stroke-linejoin="round"/><path d="M53.40,71.15 L53.40,76.91 L53.85,77.15 L54.94,77.25 L58.31,77.25 L59.39,77.15 L59.84,76.91 L59.84,71.15 L59.39,70.91 L58.31,70.81 L54.94,70.81 L53.85,70.91 L53.40,71.15 Z" fill="#2a4e77" stroke="#2a4e77" stroke-width="1" stroke-linejoin="round"/><path d="M72.08,49.53 L72.08,7.09 L71.78,6.32 L70.94,5.70 L69.71,5.28 L68.20,5.12 L29.59,5.12 L28.08,5.28 L26.85,5.70 L26.02,6.32 L25.71,7.09 L25.71,49.53 L26.02,50.29 L26.85,50.92 L28.08,51.34 L29.59,51.49 L68.20,51.49 L69.71,51.34 L70.94,50.92 L71.78,50.29 L72.08,49.53 Z" fill="#2a4e77" stroke="#1e1e1e" stroke-width="1" stroke-linejoin="round"/><path d="M10.26,25.38 L10.26,73.74 L10.40,74.85 L10.80,75.77 L11.38,76.38 L12.10,76.61 L16.14,76.61 L16.86,76.38 L17.44,75.77 L17.84,74.85 L17.98,73.74 L17.98,25.38 L17.84,24.26 L17.44,23.35 L16.86,22.74 L16.14,22.51 L12.10,22.51 L11.38,22.74 L10.80,23.35 L10.40,24.26 L10.26,25.38 Z" fill="#2a4e77" stroke="#2a4e77" stroke-width="1" stroke-linejoin="round"/><path d="M77.88,29.04 L77.88,73.94 L78.02,74.98 L78.42,75.83 L79.00,76.40 L79.72,76.61 L83.76,76.61 L84.48,76.40 L85.06,75.83 L85.46,74.98 L85.60,73.94 L85.60,29.04 L85.46,28.00 L85.06,27.16 L84.48,26.58 L83.76,26.37 L79.72,26.37 L79.00,26.58 L78.42,27.16 L78.02,28.00 L77.88,29.04 Z" fill="#2a4e77" stroke="#2a4e77" stroke-width="1" stroke-linejoin="round"/><path d="M43.10,87.23 L43.20,88.21 L43.48,89.11 L43.92,89.93 L44.51,90.65 L45.23,91.24 L46.05,91.68 L46.96,91.96 L47.93,92.06 L48.90,91.96 L49.81,91.68 L50.63,91.24 L51.35,90.65 L51.94,89.93 L52.38,89.11 L52.66,88.21 L52.76,87.23 L52.66,86.26 L52.38,85.35 L51.94,84.53 L51.35,83.82 L50.63,83.23 L49.81,82.78 L48.90,82.50 L47.93,82.40 L46.96,82.50 L46.05,82.78 L45.23,83.23 L44.51,83.82 L43.92,84.53 L43.48,85.35 L43.20,86.26 L43.10,87.23 Z" fill="#2a4e77" stroke="#2a4e77" stroke-width="1" stroke-linejoin="round"/></svg>