<svg xmlns="http://www.w3.org/2000/svg" viewBox="-1.99 10.01 100.00 74.99"><path d="M0.11,29.65 L0.58,30.32 L1.20,30.91 L2.86,31.79 L49.31,50.00 L52.10,50.81 L55.07,51.13 L58.06,50.94 L60.92,50.25 L93.59,36.19 L94.31,35.86 L94.90,35.41 L95.33,34.87 L95.57,34.28 L95.57,33.85 L95.18,33.05 L94.54,32.34 L93.70,31.76 L92.70,31.33 L46.34,13.13 L43.55,12.33 L40.57,12.01 L37.58,12.20 L34.73,12.88 L1.95,26.92 L1.00,27.37 L0.32,28.03 L0.01,28.83 L0.11,29.65 Z" fill="#3990e4" stroke="#1e1e1e" stroke-width="1" stroke-linejoin="round"/><path d="M64.28,80.81 L64.18,80.93 L61.50,82.07 L61.38,82.13 L58.53,82.81 L55.54,83.00 L52.56,82.68 L49.77,81.88 L3.33,63.68 L1.87,62.93 L0.92,62.10 L0.48,61.23 L0.56,60.38 L0.06,29.65 L0.53,30.32 L1.15,30.91 L2.81,31.79 L49.26,50.00 L52.05,50.81 L55.02,51.13 L58.01,50.94 L60.87,50.25 L61.00,50.19 L93.54,36.18 L94.26,35.85 L94.84,35.40 L95.27,34.86 L95.50,34.27 L96.01,65.72 L96.01,66.16 L95.77,66.75 L95.34,67.28 L94.76,67.73 L94.04,68.07 L92.85,68.57 L64.28,80.81 Z" fill="#003067" stroke="#1e1e1e" stroke-width="1" stroke-linejoin="round"/><path d="M23.03,46.61 L7.68,40.18 L7.68,42.65 L23.03,49.09 L23.03,46.61 Z" fill="#32b0e7" stroke="#32b0e7" stroke-width="1" stroke-linejoin="round"/><path d="M23.03,52.93 L7.75,46.52 L7.75,48.99 L23.03,55.40 L23.03,52.93 Z" fill="#32b0e7" stroke="#32b0e7" stroke-width="1" stroke-linejoin="round"/><path d="M25.59,56.48 L25.59,54.00 L44.24,61.82 L44.24,64.29 L25.59,56.48 Z" fill="#32b0e7" stroke="#32b0e7" stroke-width="1" stroke-linejoin="round"/><path d="M23.03,59.28 L7.75,52.87 L7.75,55.34 L23.03,61.75 L23.03,59.28 Z" fill="#32b0e7" stroke="#32b0e7" stroke-width="1" stroke-linejoin="round"/><path d="M25.59,62.83 L25.59,60.35 L44.24,68.17 L44.24,70.64 L25.59,62.83 Z" fill="#32b0e7" stroke="#32b0e7" stroke-width="1" stroke-linejoin="round"/><path d="M25.59,50.17 L25.59,47.69 L44.17,55.48 L44.17,57.95 L25.59,50.17 Z" fill="#32b0e7" stroke="#32b0e7" stroke-width="1" stroke-linejoin="round"/><path d="M83.31,51.24 L82.62,50.65 L82.39,49.76 L82.62,48.66 L83.31,47.50 L84.36,46.48 L85.57,45.78 L86.77,45.49 L87.79,45.66 L88.45,46.26 L88.68,47.16 L88.46,48.23 L87.79,49.39 L86.74,50.40 L85.54,51.08 L84.33,51.38 L83.31,51.24 Z" fill="#50e6ff" stroke="#50e6ff" stroke-width="1" stroke-linejoin="round"/></svg>