<svg xmlns="http://www.w3.org/2000/svg" viewBox="-2.00 -2.00 100.00 100.00"><path d="M13.50,0.00 L82.50,0.00 L83.31,0.11 L84.02,0.40 L84.52,0.81 L84.71,1.28 L84.71,15.66 L84.52,16.13 L84.02,16.54 L83.31,16.83 L82.50,16.94 L13.50,16.94 L12.69,16.83 L11.98,16.54 L11.48,16.13 L11.29,15.66 L11.29,1.28 L11.48,0.67 L11.98,0.28 L12.69,0.06 L13.50,0.00 Z" fill="#005ba1" stroke="#1e1e1e" stroke-width="1" stroke-linejoin="round"/><path d="M5.14,5.65 L90.86,5.65 L91.90,5.79 L92.87,6.21 L93.74,6.88 L94.50,7.76 L95.13,8.84 L95.60,10.07 L95.90,11.44 L96.00,12.91 L96.00,84.71 L0.00,84.71 L0.00,12.91 L0.10,11.44 L0.40,10.07 L0.87,8.84 L1.50,7.76 L2.26,6.88 L3.13,6.21 L4.10,5.79 L5.14,5.65 Z" fill="#5ea0ef" stroke="#1e1e1e" stroke-width="1" stroke-linejoin="round"/><path d="M94.31,75.11 L0.00,75.11 L0.00,83.58 L94.31,83.58 L94.31,75.11 Z" fill="#0078d4" stroke="#1e1e1e" stroke-width="1" stroke-linejoin="round"/><path d="M14.68,60.42 L79.62,60.42 L80.45,60.62 L81.18,61.13 L81.69,61.85 L81.88,62.68 L81.88,67.76 L81.69,68.59 L81.18,69.32 L80.45,69.83 L79.62,70.02 L14.68,70.02 L13.85,69.83 L13.13,69.32 L12.62,68.59 L12.42,67.76 L12.42,62.68 L12.62,61.85 L13.13,61.13 L13.85,60.62 L14.68,60.42 Z" fill="#83b9f9" stroke="#1e1e1e" stroke-width="1" stroke-linejoin="round"/><path d="M78.49,44.61 L79.37,44.43 L80.09,43.95 L80.58,43.23 L80.75,42.35 L80.58,41.47 L80.09,40.76 L79.37,40.27 L78.49,40.09 L77.61,40.27 L76.90,40.76 L76.41,41.47 L76.24,42.35 L76.41,43.23 L76.90,43.95 L77.61,44.43 L78.49,44.61 Z" fill="#c3f1ff" stroke="#c3f1ff" stroke-width="1" stroke-linejoin="round"/><path d="M16.94,62.12 L77.36,62.12 L77.36,93.74 L77.17,94.57 L76.66,95.29 L75.94,95.81 L75.11,96.00 L19.20,96.00 L18.37,95.81 L17.65,95.29 L17.14,94.57 L16.94,93.74 L16.94,62.12 Z" fill="#afeeff" stroke="#1e1e1e" stroke-width="1" stroke-linejoin="round"/></svg>