<svg xmlns="http://www.w3.org/2000/svg" viewBox="-1.97 -2.00 100.00 98.71"><path d="M54.62,51.04 L52.58,52.88 L50.76,54.93 L49.17,57.16 L47.81,59.56 L46.73,62.08 L45.92,64.70 L45.39,67.39 L45.15,70.13 L45.15,70.17 L41.86,70.20 L33.58,70.01 L25.85,69.45 L18.85,68.57 L12.71,67.41 L7.62,65.99 L5.51,65.20 L3.72,64.37 L2.27,63.49 L1.18,62.57 L0.47,61.62 L0.15,60.64 L0.15,60.39 L0.33,59.55 L0.70,58.77 L1.23,58.10 L1.89,57.57 L4.31,56.10 L7.65,54.77 L11.82,53.57 L16.73,52.55 L22.28,51.71 L28.38,51.09 L34.95,50.70 L41.88,50.56 L48.40,50.69 L54.62,51.04 Z" fill="#83b9f9" stroke="#1e1e1e" stroke-width="1" stroke-linejoin="round"/><path d="M0.03,35.15 L0.24,36.16 L0.87,37.13 L1.90,38.07 L3.30,38.97 L5.06,39.83 L7.15,40.64 L12.25,42.09 L18.42,43.29 L25.51,44.19 L33.34,44.77 L41.74,44.96 L50.15,44.77 L57.98,44.19 L65.07,43.29 L71.24,42.09 L76.34,40.64 L78.43,39.83 L80.18,38.97 L81.59,38.07 L82.62,37.13 L83.25,36.16 L83.46,35.15 L83.25,34.15 L82.62,33.17 L81.59,32.23 L80.18,31.33 L78.43,30.47 L76.34,29.66 L71.24,28.21 L65.07,27.01 L57.98,26.11 L50.15,25.53 L41.74,25.33 L33.34,25.53 L25.51,26.11 L18.42,27.01 L12.25,28.21 L7.15,29.66 L5.06,30.47 L3.30,31.33 L1.90,32.23 L0.87,33.17 L0.24,34.15 L0.03,35.15 Z" fill="#83b9f9" stroke="#1e1e1e" stroke-width="1" stroke-linejoin="round"/><path d="M0.03,9.82 L0.24,10.82 L0.87,11.80 L1.90,12.74 L3.30,13.64 L5.06,14.50 L7.15,15.30 L12.25,16.76 L18.42,17.95 L25.51,18.86 L33.34,19.43 L41.74,19.63 L50.15,19.43 L57.98,18.86 L65.07,17.95 L71.24,16.76 L76.34,15.30 L78.43,14.50 L80.18,13.64 L81.59,12.74 L82.62,11.80 L83.25,10.82 L83.46,9.82 L83.25,8.81 L82.62,7.84 L81.59,6.90 L80.18,6.00 L78.43,5.14 L76.34,4.33 L71.24,2.88 L65.07,1.68 L57.98,0.77 L50.15,0.20 L41.74,0.00 L33.34,0.20 L25.51,0.77 L18.42,1.68 L12.25,2.87 L7.15,4.33 L5.06,5.14 L3.30,6.00 L1.90,6.90 L0.87,7.84 L0.24,8.81 L0.03,9.82 L0.03,9.82 Z" fill="#83b9f9" stroke="#1e1e1e" stroke-width="1" stroke-linejoin="round"/><path d="M51.24,87.71 L51.52,88.34 L51.43,89.01 L51.00,89.54 L50.35,89.76 L50.33,89.76 L47.05,89.88 L41.87,89.95 L33.46,89.76 L25.63,89.19 L18.55,88.29 L12.37,87.09 L7.28,85.63 L5.19,84.82 L3.44,83.96 L2.03,83.05 L1.01,82.11 L0.37,81.13 L0.16,80.13 L0.16,60.36 L0.21,60.84 L0.21,60.84 L0.60,61.78 L1.36,62.70 L2.47,63.58 L3.92,64.42 L7.73,65.98 L12.66,67.34 L18.55,68.48 L25.27,69.34 L32.67,69.91 L40.61,70.15 L41.87,70.15 L43.17,70.15 L45.15,70.12 L45.15,70.16 L45.15,71.03 L45.25,73.31 L45.54,75.56 L46.03,77.76 L46.71,79.91 L47.58,82.00 L48.62,84.00 L49.85,85.91 L51.24,87.71 Z" fill="#0078d4" stroke="#1e1e1e" stroke-width="1" stroke-linejoin="round"/><path d="M83.46,35.03 L83.20,36.03 L82.53,36.99 L81.47,37.92 L80.05,38.81 L78.28,39.66 L76.18,40.46 L71.08,41.89 L64.93,43.07 L57.88,43.96 L50.10,44.53 L41.75,44.72 L33.41,44.53 L25.64,43.97 L18.62,43.10 L12.48,41.93 L7.40,40.51 L5.31,39.72 L3.53,38.87 L2.10,37.99 L1.04,37.06 L0.35,36.10 L0.07,35.11 L0.07,54.72 L0.26,55.57 L0.64,56.36 L1.19,57.04 L1.88,57.58 L1.88,57.58 L4.32,59.03 L7.67,60.36 L11.84,61.55 L16.74,62.56 L22.27,63.39 L28.35,64.01 L34.88,64.39 L41.78,64.53 L45.99,64.47 L46.59,62.52 L47.33,60.64 L48.22,58.82 L49.24,57.07 L50.40,55.42 L51.69,53.85 L53.09,52.39 L54.62,51.04 L54.62,51.04 L57.55,48.95 L60.73,47.29 L64.11,46.10 L67.63,45.38 L71.23,45.15 L74.80,45.43 L78.30,46.20 L81.67,47.45 L82.28,47.57 L82.88,47.38 L83.30,46.93 L83.46,46.33 L83.46,35.03 Z" fill="#0078d4" stroke="#1e1e1e" stroke-width="1" stroke-linejoin="round"/><path d="M41.74,19.41 L33.42,19.22 L25.67,18.66 L18.64,17.78 L12.51,16.60 L7.42,15.18 L5.32,14.39 L3.54,13.54 L2.11,12.66 L1.04,11.73 L0.35,10.77 L0.07,9.78 L0.07,29.37 L0.28,30.37 L0.92,31.35 L1.94,32.29 L3.35,33.19 L5.10,34.05 L7.19,34.86 L12.29,36.31 L18.46,37.51 L25.55,38.42 L33.38,38.99 L41.79,39.19 L50.02,39.00 L57.71,38.45 L64.68,37.58 L70.80,36.43 L75.89,35.03 L78.00,34.25 L79.80,33.42 L81.27,32.54 L82.38,31.63 L83.12,30.69 L83.46,29.72 L83.46,28.94 L83.46,9.59 L83.25,10.60 L82.61,11.57 L81.58,12.51 L80.18,13.41 L78.42,14.27 L76.33,15.08 L71.24,16.53 L65.06,17.73 L57.98,18.64 L50.15,19.21 L41.74,19.41 Z" fill="#0078d4" stroke="#1e1e1e" stroke-width="1" stroke-linejoin="round"/><path d="M94.71,71.03 L94.59,73.37 L94.25,75.67 L93.68,77.92 L92.91,80.09 L91.92,82.18 L90.73,84.17 L89.35,86.04 L87.77,87.77 L86.04,89.35 L84.17,90.73 L82.18,91.92 L80.09,92.91 L77.92,93.68 L75.67,94.25 L73.37,94.59 L71.03,94.71 L68.69,94.59 L66.39,94.25 L64.14,93.68 L61.97,92.91 L59.88,91.92 L57.89,90.73 L56.02,89.35 L54.29,87.77 L52.72,86.04 L51.33,84.17 L50.14,82.18 L49.16,80.09 L48.38,77.92 L47.81,75.67 L47.47,73.37 L47.35,71.03 L47.35,70.10 L47.35,70.08 L47.64,67.21 L48.28,64.40 L48.96,62.37 L49.82,60.43 L50.84,58.59 L52.02,56.84 L53.35,55.20 L54.82,53.69 L56.43,52.31 L58.17,51.07 L60.01,49.99 L61.93,49.09 L63.92,48.37 L65.95,47.83 L68.03,47.47 L70.14,47.29 L72.26,47.31 L74.38,47.51 L76.48,47.91 L78.52,48.49 L80.49,49.25 L82.38,50.17 L84.18,51.27 L85.89,52.52 L87.48,53.92 L88.94,55.47 L90.26,57.14 L91.42,58.92 L92.41,60.79 L93.23,62.73 L93.88,64.74 L94.34,66.80 L94.62,68.90 L94.71,71.03 Z" fill="#ffffff" stroke="#1e1e1e" stroke-width="1" stroke-linejoin="round"/><path d="M69.06,94.71 L71.82,94.57 L74.49,94.17 L77.08,93.52 L79.56,92.64 L81.91,91.53 L84.14,90.21 L86.21,88.70 L88.13,87.00 L89.87,85.13 L91.42,83.11 L92.77,80.94 L93.91,78.64 L94.81,76.22 L95.48,73.70 L95.89,71.09 L96.03,68.40 L95.89,65.71 L95.48,63.10 L94.81,60.58 L93.91,58.16 L92.77,55.86 L91.42,53.69 L89.87,51.67 L88.13,49.80 L86.21,48.10 L84.14,46.59 L81.91,45.27 L79.56,44.16 L77.08,43.27 L74.49,42.63 L71.82,42.23 L69.06,42.09 L66.30,42.23 L63.62,42.63 L61.04,43.27 L58.56,44.16 L56.21,45.27 L53.98,46.59 L51.91,48.10 L49.99,49.80 L48.25,51.67 L46.70,53.69 L45.35,55.86 L44.21,58.16 L43.30,60.58 L42.64,63.10 L42.23,65.71 L42.09,68.40 L42.23,71.09 L42.64,73.70 L43.30,76.22 L44.21,78.64 L45.35,80.94 L46.70,83.11 L48.25,85.13 L49.99,87.00 L51.91,88.70 L53.98,90.21 L56.21,91.53 L58.56,92.64 L61.04,93.52 L63.62,94.17 L66.30,94.57 L69.06,94.71 Z" fill="#f78d1e" stroke="#1e1e1e" stroke-width="1" stroke-linejoin="round"/><path d="M69.17,91.31 L71.57,91.19 L73.90,90.84 L76.15,90.28 L78.31,89.51 L80.36,88.54 L82.29,87.39 L84.10,86.08 L85.77,84.60 L87.29,82.97 L88.64,81.21 L89.81,79.32 L90.80,77.32 L91.59,75.21 L92.17,73.02 L92.53,70.74 L92.65,68.40 L92.53,66.06 L92.17,63.78 L91.59,61.59 L90.80,59.48 L89.81,57.48 L88.64,55.59 L87.29,53.83 L85.77,52.20 L84.10,50.72 L82.29,49.40 L80.36,48.26 L78.31,47.29 L76.15,46.52 L73.90,45.96 L71.57,45.61 L69.17,45.49 L66.76,45.61 L64.43,45.96 L62.18,46.52 L60.03,47.29 L57.97,48.26 L56.04,49.40 L54.23,50.72 L52.56,52.20 L51.05,53.83 L49.69,55.59 L48.52,57.48 L47.53,59.48 L46.74,61.59 L46.16,63.78 L45.81,66.06 L45.68,68.40 L45.81,70.74 L46.16,73.02 L46.74,75.21 L47.53,77.32 L48.52,79.32 L49.69,81.21 L51.05,82.97 L52.56,84.60 L54.23,86.08 L56.04,87.39 L57.97,88.54 L60.03,89.51 L62.18,90.28 L64.43,90.84 L66.76,91.19 L69.17,91.31 Z" fill="#ffffff" stroke="#1e1e1e" stroke-width="1" stroke-linejoin="round"/><path d="M78.86,75.43 L72.04,68.77 L71.47,68.42 L70.81,68.33 L71.13,67.58 L71.13,50.63 L71.00,50.01 L70.64,49.49 L70.11,49.14 L69.48,49.02 L69.16,49.02 L68.53,49.14 L68.00,49.49 L67.64,50.01 L67.51,50.63 L67.51,67.58 L67.64,68.20 L68.00,68.72 L68.53,69.06 L69.16,69.19 L69.40,69.19 L69.12,69.68 L69.04,70.24 L69.17,70.79 L69.48,71.26 L76.31,77.92 L76.84,78.27 L77.47,78.39 L78.10,78.27 L78.64,77.92 L78.86,77.70 L79.22,77.18 L79.34,76.57 L79.22,75.95 L78.86,75.43 L78.86,75.43 Z" fill="#b3b3b3" stroke="#1e1e1e" stroke-width="1" stroke-linejoin="round"/><path d="M69.18,72.09 L70.67,71.80 L71.88,71.00 L72.70,69.81 L73.00,68.36 L72.70,66.91 L71.88,65.72 L70.67,64.92 L69.18,64.63 L67.69,64.92 L66.47,65.72 L65.66,66.91 L65.35,68.36 L65.66,69.81 L66.47,71.00 L67.69,71.80 L69.18,72.09 Z" fill="#666666" stroke="#666666" stroke-width="1" stroke-linejoin="round"/></svg>