<svg xmlns="http://www.w3.org/2000/svg" viewBox="-2.00 8.67 100.00 78.67"><path d="M4.67,18.69 L5.37,16.93 L6.29,15.36 L7.39,13.98 L8.66,12.83 L10.06,11.91 L11.58,11.23 L13.19,10.81 L14.85,10.67 L80.66,10.67 L82.36,10.82 L84.00,11.25 L85.54,11.96 L86.97,12.92 L88.25,14.12 L89.37,15.54 L90.28,17.16 L90.98,18.97 L93.21,27.13 L94.79,34.72 L95.71,41.90 L96.00,48.82 L95.66,55.66 L94.71,62.56 L93.17,69.68 L91.03,77.17 L90.33,78.96 L89.40,80.55 L88.29,81.95 L87.01,83.12 L85.60,84.07 L84.06,84.76 L82.44,85.19 L80.76,85.33 L15.30,85.33 L13.55,85.18 L11.88,84.72 L10.30,83.98 L8.85,82.97 L7.55,81.72 L6.43,80.25 L5.52,78.56 L4.84,76.69 L2.76,68.57 L1.26,60.98 L0.34,53.79 L0.00,46.84 L0.26,40.00 L1.12,33.12 L2.59,26.07 L4.67,18.69 Z" fill="#0078d4" stroke="#1e1e1e" stroke-width="1" stroke-linejoin="round"/><path d="M74.67,79.41 L76.70,79.20 L78.59,78.62 L80.30,77.69 L81.79,76.46 L83.02,74.97 L83.95,73.25 L84.54,71.36 L84.74,69.33 L84.54,67.30 L83.95,65.41 L83.02,63.70 L81.79,62.21 L80.30,60.98 L78.59,60.05 L76.70,59.46 L74.67,59.26 L72.64,59.46 L70.74,60.05 L69.03,60.98 L67.54,62.21 L66.31,63.70 L65.38,65.41 L64.80,67.30 L64.59,69.33 L64.80,71.36 L65.38,73.25 L66.31,74.97 L67.54,76.46 L69.03,77.69 L70.74,78.62 L72.64,79.20 L74.67,79.41 Z" fill="#ffffff" stroke="#1e1e1e" stroke-width="1" stroke-linejoin="round"/><path d="M82.14,62.58 L80.65,61.23 L74.15,68.70 L75.58,70.13 L82.14,62.58 Z" fill="#00188f" stroke="#00188f" stroke-width="1" stroke-linejoin="round"/><ellipse cx="45.57" cy="72.24" rx="2.90" ry="2.90" fill="#ffffff" stroke="#ffffff" stroke-width="1"/><ellipse cx="34.90" cy="72.24" rx="2.90" ry="2.90" fill="#ffffff" stroke="#ffffff" stroke-width="1"/><path d="M24.22,70.05 L24.91,70.14 L25.55,70.41 L26.11,70.83 L26.53,71.38 L26.80,72.02 L26.89,72.71 L26.89,72.71 L26.80,73.40 L26.53,74.05 L26.11,74.60 L25.55,75.02 L24.91,75.29 L24.22,75.38 L13.55,75.38 L12.86,75.29 L12.22,75.02 L11.67,74.60 L11.24,74.05 L10.98,73.40 L10.89,72.71 L10.89,72.71 L10.98,72.02 L11.24,71.38 L11.67,70.83 L12.22,70.41 L12.86,70.14 L13.55,70.05 L24.22,70.05 Z" fill="#ffffff" stroke="#ffffff" stroke-width="1" stroke-linejoin="round"/><path d="M12.87,21.55 L13.02,20.78 L13.45,20.15 L14.07,19.73 L14.85,19.57 L81.15,19.57 L81.92,19.73 L82.55,20.15 L82.98,20.78 L83.13,21.55 L83.13,49.26 L82.98,50.04 L82.55,50.66 L81.92,51.09 L81.15,51.24 L14.85,51.24 L14.07,51.09 L13.45,50.66 L13.02,50.04 L12.87,49.26 L12.87,21.55 Z" fill="#70acf4" stroke="#1e1e1e" stroke-width="1" stroke-linejoin="round"/></svg>