<svg xmlns="http://www.w3.org/2000/svg" viewBox="-2.00 -2.00 100.00 100.00"><path d="M28.33,28.66 L26.26,25.48 L29.60,23.58 L33.59,21.90 L35.85,26.18 L38.99,24.53 L37.06,20.85 L41.40,20.01 L46.22,19.59 L46.22,23.70 L49.78,23.70 L49.78,19.59 L54.45,19.99 L58.67,20.79 L56.97,24.43 L60.19,25.94 L62.12,21.80 L64.39,22.66 L66.48,23.62 L70.07,25.70 L67.78,28.51 L70.53,30.75 L72.89,27.86 L74.78,29.73 L76.04,31.35 L76.06,31.38 L73.77,34.50 L76.63,36.61 L80.38,31.50 L79.02,29.41 L78.09,28.13 L76.89,26.77 L75.44,25.36 L73.72,23.94 L71.30,22.25 L68.48,20.65 L65.28,19.18 L61.68,17.92 L58.61,17.12 L55.31,16.52 L51.77,16.13 L48.00,16.00 L43.83,16.16 L39.95,16.63 L36.36,17.36 L33.06,18.32 L30.05,19.46 L27.33,20.74 L24.91,22.13 L22.77,23.58 L20.88,25.09 L19.28,26.59 L17.98,28.04 L16.98,29.41 L15.62,31.50 L19.37,36.61 L22.23,34.50 L19.94,31.38 L19.96,31.35 L21.32,29.61 L23.40,27.61 L25.36,30.60 L28.33,28.66 Z" fill="#40d0ec" stroke="#1e1e1e" stroke-width="1" stroke-linejoin="round"/><path d="M10.67,10.67 L85.33,10.67 L85.33,56.89 L50.71,56.89 L35.24,34.54 L32.32,36.57 L46.38,56.89 L10.67,56.89 L10.67,10.67 Z" fill="#40d0ec" stroke="#1e1e1e" stroke-width="1" stroke-linejoin="round"/><path d="M10.67,0.00 L8.52,0.22 L6.51,0.84 L4.70,1.82 L3.12,3.12 L1.82,4.70 L0.84,6.51 L0.22,8.52 L0.00,10.67 L0.00,85.33 L0.22,87.48 L0.84,89.49 L1.82,91.30 L3.12,92.88 L4.70,94.18 L6.51,95.16 L8.52,95.78 L10.67,96.00 L85.33,96.00 L87.48,95.78 L89.49,95.16 L91.30,94.18 L92.88,92.88 L94.18,91.30 L95.16,89.49 L95.78,87.48 L96.00,85.33 L96.00,10.67 L95.78,8.52 L95.16,6.51 L94.18,4.70 L92.88,3.12 L91.30,1.82 L89.49,0.84 L87.48,0.22 L85.33,0.00 L10.67,0.00 Z" fill="#40d0ec" stroke="#1e1e1e" stroke-width="1" stroke-linejoin="round"/><path d="M28.33,28.66 L26.26,25.48 L29.60,23.58 L33.59,21.90 L35.85,26.18 L38.99,24.53 L37.06,20.85 L41.40,20.01 L46.22,19.59 L46.22,23.70 L49.78,23.70 L49.78,19.59 L54.45,19.99 L58.67,20.79 L56.97,24.43 L60.19,25.94 L62.12,21.80 L64.39,22.66 L66.48,23.62 L70.07,25.70 L67.78,28.51 L70.53,30.75 L72.89,27.86 L74.78,29.73 L76.04,31.35 L76.06,31.38 L73.77,34.50 L76.63,36.61 L80.38,31.50 L79.02,29.41 L78.09,28.13 L76.89,26.77 L75.44,25.36 L73.72,23.94 L71.30,22.25 L68.48,20.65 L65.28,19.18 L61.68,17.92 L58.61,17.12 L55.31,16.52 L51.77,16.13 L48.00,16.00 L43.83,16.16 L39.95,16.63 L36.36,17.36 L33.06,18.32 L30.05,19.46 L27.33,20.74 L24.91,22.13 L22.77,23.58 L20.88,25.09 L19.28,26.59 L17.98,28.04 L16.98,29.41 L15.62,31.50 L19.37,36.61 L22.23,34.50 L19.94,31.38 L19.96,31.35 L21.32,29.61 L23.40,27.61 L25.36,30.60 L28.33,28.66 Z" fill="#afeeff" stroke="#1e1e1e" stroke-width="1" stroke-linejoin="round"/><path d="M7.11,7.11 L88.89,7.11 L88.89,60.44 L7.11,60.44 L7.11,7.11 Z" fill="#afeeff" stroke="#1e1e1e" stroke-width="1" stroke-linejoin="round"/><path d="M8.89,87.11 L17.78,87.11 L17.78,83.56 L8.89,83.56 L8.89,87.11 Z" fill="#afeeff" stroke="#afeeff" stroke-width="1" stroke-linejoin="round"/><path d="M87.11,87.11 L78.22,87.11 L78.22,83.56 L87.11,83.56 L87.11,87.11 Z" fill="#afeeff" stroke="#afeeff" stroke-width="1" stroke-linejoin="round"/><path d="M28.33,28.66 L26.26,25.48 L29.60,23.58 L33.59,21.90 L35.85,26.18 L38.99,24.53 L37.06,20.85 L41.40,20.01 L46.22,19.59 L46.22,23.70 L49.78,23.70 L49.78,19.59 L54.45,19.99 L58.67,20.79 L56.97,24.43 L60.19,25.94 L62.12,21.80 L64.39,22.66 L66.48,23.62 L70.07,25.70 L67.78,28.51 L70.53,30.75 L72.89,27.86 L74.78,29.73 L76.04,31.35 L76.06,31.38 L73.77,34.50 L76.63,36.61 L80.38,31.50 L79.02,29.41 L78.09,28.13 L76.89,26.77 L75.44,25.36 L73.72,23.94 L71.30,22.25 L68.48,20.65 L65.28,19.18 L61.68,17.92 L58.61,17.12 L55.31,16.52 L51.77,16.13 L48.00,16.00 L43.83,16.16 L39.95,16.63 L36.36,17.36 L33.06,18.32 L30.05,19.46 L27.33,20.74 L24.91,22.13 L22.77,23.58 L20.88,25.09 L19.28,26.59 L17.98,28.04 L16.98,29.41 L15.62,31.50 L19.37,36.61 L22.23,34.50 L19.94,31.38 L19.96,31.35 L21.32,29.61 L23.40,27.61 L25.36,30.60 L28.33,28.66 Z" fill="#afeeff" stroke="#1e1e1e" stroke-width="1" stroke-linejoin="round"/><path d="M28.33,28.66 L26.26,25.48 L29.60,23.58 L33.59,21.90 L35.85,26.18 L38.99,24.53 L37.06,20.85 L41.40,20.01 L46.22,19.59 L46.22,23.70 L49.78,23.70 L49.78,19.59 L54.45,19.99 L58.67,20.79 L56.97,24.43 L60.19,25.94 L62.12,21.80 L64.39,22.66 L66.48,23.62 L70.07,25.70 L67.78,28.51 L70.53,30.75 L72.89,27.86 L74.78,29.73 L76.04,31.35 L76.06,31.38 L73.77,34.50 L76.63,36.61 L80.38,31.50 L79.02,29.41 L78.09,28.13 L76.89,26.77 L75.44,25.36 L73.72,23.94 L71.30,22.25 L68.48,20.65 L65.28,19.18 L61.68,17.92 L58.61,17.12 L55.31,16.52 L51.77,16.13 L48.00,16.00 L43.83,16.16 L39.95,16.63 L36.36,17.36 L33.06,18.32 L30.05,19.46 L27.33,20.74 L24.91,22.13 L22.77,23.58 L20.88,25.09 L19.28,26.59 L17.98,28.04 L16.98,29.41 L15.62,31.50 L19.37,36.61 L22.23,34.50 L19.94,31.38 L19.96,31.35 L21.32,29.61 L23.40,27.61 L25.36,30.60 L28.33,28.66 Z" fill="#005ba1" stroke="#1e1e1e" stroke-width="1" stroke-linejoin="round"/><path d="M8.89,87.11 L17.78,87.11 L17.78,83.56 L8.89,83.56 L8.89,87.11 Z" fill="#005ba1" stroke="#005ba1" stroke-width="1" stroke-linejoin="round"/><path d="M87.11,87.11 L78.22,87.11 L78.22,83.56 L87.11,83.56 L87.11,87.11 Z" fill="#005ba1" stroke="#005ba1" stroke-width="1" stroke-linejoin="round"/><path d="M88.89,7.11 L7.11,7.11 L7.11,60.44 L88.89,60.44 L88.89,7.11 Z" fill="#005ba1" stroke="#1e1e1e" stroke-width="1" stroke-linejoin="round"/><path d="M85.33,10.67 L10.67,10.67 L10.67,56.89 L46.38,56.89 L50.71,56.89 L85.33,56.89 L85.33,10.67 Z" fill="#afeeff" stroke="#1e1e1e" stroke-width="1" stroke-linejoin="round"/><path d="M28.33,28.66 L26.26,25.48 L29.60,23.58 L33.59,21.90 L35.85,26.18 L38.99,24.53 L37.06,20.85 L41.40,20.01 L46.22,19.59 L46.22,23.70 L49.78,23.70 L49.78,19.59 L54.45,19.99 L58.67,20.79 L56.97,24.43 L60.19,25.94 L62.12,21.80 L64.39,22.66 L66.48,23.62 L70.07,25.70 L67.78,28.51 L70.53,30.75 L72.89,27.86 L74.78,29.73 L76.04,31.35 L76.06,31.38 L73.77,34.50 L76.63,36.61 L80.38,31.50 L79.02,29.41 L78.09,28.13 L76.89,26.77 L75.44,25.36 L73.72,23.94 L71.30,22.25 L68.48,20.65 L65.28,19.18 L61.68,17.92 L58.61,17.12 L55.31,16.52 L51.77,16.13 L48.00,16.00 L43.83,16.16 L39.95,16.63 L36.36,17.36 L33.06,18.32 L30.05,19.46 L27.33,20.74 L24.91,22.13 L22.77,23.58 L20.88,25.09 L19.28,26.59 L17.98,28.04 L16.98,29.41 L15.62,31.50 L19.37,36.61 L22.23,34.50 L19.94,31.38 L19.96,31.35 L21.32,29.61 L23.40,27.61 L25.36,30.60 L28.33,28.66 Z" fill="#40d0ec" stroke="#1e1e1e" stroke-width="1" stroke-linejoin="round"/><path d="M28.33,28.66 L26.26,25.48 L29.60,23.58 L33.59,21.90 L35.85,26.18 L38.99,24.53 L37.06,20.85 L41.40,20.01 L46.22,19.59 L46.22,23.70 L49.78,23.70 L49.78,19.59 L54.45,19.99 L58.67,20.79 L56.97,24.43 L60.19,25.94 L62.12,21.80 L64.39,22.66 L66.48,23.62 L70.07,25.70 L67.78,28.51 L70.53,30.75 L72.89,27.86 L74.78,29.73 L76.04,31.35 L76.06,31.38 L73.77,34.50 L76.63,36.61 L80.38,31.50 L79.02,29.41 L78.09,28.13 L76.89,26.77 L75.44,25.36 L73.72,23.94 L71.30,22.25 L68.48,20.65 L65.28,19.18 L61.68,17.92 L58.61,17.12 L55.31,16.52 L51.77,16.13 L48.00,16.00 L43.83,16.16 L39.95,16.63 L36.36,17.36 L33.06,18.32 L30.05,19.46 L27.33,20.74 L24.91,22.13 L22.77,23.58 L20.88,25.09 L19.28,26.59 L17.98,28.04 L16.98,29.41 L15.62,31.50 L19.37,36.61 L22.23,34.50 L19.94,31.38 L19.96,31.35 L21.32,29.61 L23.40,27.61 L25.36,30.60 L28.33,28.66 Z" fill="#afeeff" stroke="#1e1e1e" stroke-width="1" stroke-linejoin="round"/><path d="M28.33,28.66 L26.26,25.48 L29.60,23.58 L33.59,21.90 L35.85,26.18 L38.99,24.53 L37.06,20.85 L41.40,20.01 L46.22,19.59 L46.22,23.70 L49.78,23.70 L49.78,19.59 L54.45,19.99 L58.67,20.79 L56.97,24.43 L60.19,25.94 L62.12,21.80 L64.39,22.66 L66.48,23.62 L70.07,25.70 L67.78,28.51 L70.53,30.75 L72.89,27.86 L74.78,29.73 L76.04,31.35 L76.06,31.38 L73.77,34.50 L76.63,36.61 L80.38,31.50 L79.02,29.41 L78.09,28.13 L76.89,26.77 L75.44,25.36 L73.72,23.94 L71.30,22.25 L68.48,20.65 L65.28,19.18 L61.68,17.92 L58.61,17.12 L55.31,16.52 L51.77,16.13 L48.00,16.00 L43.83,16.16 L39.95,16.63 L36.36,17.36 L33.06,18.32 L30.05,19.46 L27.33,20.74 L24.91,22.13 L22.77,23.58 L20.88,25.09 L19.28,26.59 L17.98,28.04 L16.98,29.41 L15.62,31.50 L19.37,36.61 L22.23,34.50 L19.94,31.38 L19.96,31.35 L21.32,29.61 L23.40,27.61 L25.36,30.60 L28.33,28.66 Z" fill="#afeeff" stroke="#1e1e1e" stroke-width="1" stroke-linejoin="round"/><path d="M28.33,28.66 L26.26,25.48 L29.60,23.58 L33.59,21.90 L35.85,26.18 L38.99,24.53 L37.06,20.85 L41.40,20.01 L46.22,19.59 L46.22,23.70 L49.78,23.70 L49.78,19.59 L54.45,19.99 L58.67,20.79 L56.97,24.43 L60.19,25.94 L62.12,21.80 L64.39,22.66 L66.48,23.62 L70.07,25.70 L67.78,28.51 L70.53,30.75 L72.89,27.86 L74.78,29.73 L76.04,31.35 L76.06,31.38 L73.77,34.50 L76.63,36.61 L80.38,31.50 L79.02,29.41 L78.09,28.13 L76.89,26.77 L75.44,25.36 L73.72,23.94 L71.30,22.25 L68.48,20.65 L65.28,19.18 L61.68,17.92 L58.61,17.12 L55.31,16.52 L51.77,16.13 L48.00,16.00 L43.83,16.16 L39.95,16.63 L36.36,17.36 L33.06,18.32 L30.05,19.46 L27.33,20.74 L24.91,22.13 L22.77,23.58 L20.88,25.09 L19.28,26.59 L17.98,28.04 L16.98,29.41 L15.62,31.50 L19.37,36.61 L22.23,34.50 L19.94,31.38 L19.96,31.35 L21.32,29.61 L23.40,27.61 L25.36,30.60 L28.33,28.66 Z" fill="#005ba1" stroke="#1e1e1e" stroke-width="1" stroke-linejoin="round"/><path d="M34.01,32.11 L33.00,32.72 L32.33,33.60 L32.10,34.64 L32.36,35.67 L45.10,60.39 L50.91,58.20 L38.15,33.46 L37.45,32.61 L36.42,32.05 L35.21,31.88 L34.01,32.11 L34.01,32.11 Z" fill="#0078d4" stroke="#1e1e1e" stroke-width="1" stroke-linejoin="round"/><path d="M58.04,63.16 L57.80,61.44 L57.24,59.86 L56.40,58.44 L55.31,57.22 L54.00,56.22 L52.52,55.49 L50.90,55.06 L49.17,54.95 L47.46,55.19 L45.88,55.75 L44.46,56.59 L43.23,57.68 L42.24,58.98 L41.51,60.46 L41.07,62.08 L40.96,63.81 L41.20,65.52 L41.76,67.11 L42.60,68.53 L43.69,69.75 L45.00,70.75 L46.48,71.48 L48.10,71.91 L49.83,72.02 L51.54,71.78 L53.12,71.22 L54.54,70.38 L55.77,69.29 L56.76,67.99 L57.49,66.51 L57.93,64.89 L58.04,63.16 Z" fill="#767676" stroke="#767676" stroke-width="1" stroke-linejoin="round"/></svg>