<svg xmlns="http://www.w3.org/2000/svg" viewBox="-2.00 -2.00 100.00 100.00"><path d="M13.33,64.61 L11.97,64.69 L10.65,64.93 L8.14,65.84 L5.88,67.29 L3.91,69.20 L2.28,71.53 L1.05,74.19 L0.27,77.14 L0.00,80.30 L0.27,83.47 L1.05,86.41 L2.28,89.08 L3.91,91.40 L5.88,93.32 L8.14,94.77 L10.65,95.68 L11.97,95.92 L13.33,96.00 L82.67,96.00 L84.03,95.92 L85.35,95.68 L87.86,94.77 L90.12,93.32 L92.09,91.40 L93.72,89.08 L94.95,86.41 L95.73,83.47 L96.00,80.30 L95.73,77.14 L94.95,74.19 L93.72,71.53 L92.09,69.20 L90.12,67.29 L87.86,65.84 L85.35,64.93 L84.03,64.69 L82.67,64.61 L13.33,64.61 Z" fill="#0078d4" stroke="#1e1e1e" stroke-width="1" stroke-linejoin="round"/><path d="M82.67,68.53 L13.33,68.53 L11.32,68.77 L9.44,69.46 L7.74,70.54 L6.26,71.98 L5.04,73.72 L4.12,75.72 L3.54,77.93 L3.33,80.30 L3.54,82.68 L4.12,84.89 L5.04,86.89 L6.26,88.63 L7.74,90.07 L9.44,91.15 L11.32,91.84 L13.33,92.08 L82.67,92.08 L84.68,91.84 L86.56,91.15 L88.26,90.07 L89.74,88.63 L90.96,86.89 L91.88,84.89 L92.46,82.68 L92.67,80.30 L92.46,77.93 L91.88,75.72 L90.96,73.72 L89.74,71.98 L88.26,70.54 L86.56,69.46 L84.68,68.77 L82.67,68.53 Z" fill="#ffffff" stroke="#1e1e1e" stroke-width="1" stroke-linejoin="round"/><path d="M13.33,68.53 L82.67,68.53 L84.68,68.77 L86.56,69.46 L88.26,70.54 L89.74,71.98 L90.96,73.72 L91.88,75.72 L92.46,77.93 L92.67,80.30 L92.46,82.68 L91.88,84.89 L90.96,86.89 L89.74,88.63 L88.26,90.07 L86.56,91.15 L84.68,91.84 L82.67,92.08 L13.33,92.08 L11.32,91.84 L9.44,91.15 L7.74,90.07 L6.26,88.63 L5.04,86.89 L4.12,84.89 L3.54,82.68 L3.33,80.30 L3.54,77.93 L4.12,75.72 L5.04,73.72 L6.26,71.98 L7.74,70.54 L9.44,69.46 L11.32,68.77 L13.33,68.53 Z" fill="#0078d4" stroke="#1e1e1e" stroke-width="1" stroke-linejoin="round"/><path d="M26.67,80.61 L26.49,82.47 L25.97,84.21 L25.15,85.77 L24.06,87.14 L22.75,88.27 L21.24,89.12 L19.57,89.66 L17.78,89.84 L15.99,89.66 L14.32,89.12 L12.81,88.27 L11.49,87.14 L10.41,85.77 L9.59,84.21 L9.07,82.47 L8.89,80.61 L9.07,78.75 L9.59,77.02 L10.41,75.45 L11.49,74.08 L12.81,72.96 L14.32,72.10 L15.99,71.57 L17.78,71.38 L19.57,71.57 L21.24,72.10 L22.75,72.96 L24.06,74.08 L25.15,75.45 L25.97,77.02 L26.49,78.75 L26.67,80.61 Z" fill="#7db6f8" stroke="#7db6f8" stroke-width="1" stroke-linejoin="round"/><path d="M23.70,80.61 L23.58,81.85 L23.24,83.01 L22.69,84.05 L21.97,84.96 L21.09,85.72 L20.08,86.28 L18.97,86.64 L17.78,86.77 L16.58,86.64 L15.47,86.28 L14.46,85.72 L13.59,84.96 L12.86,84.05 L12.32,83.01 L11.97,81.85 L11.85,80.61 L11.97,79.37 L12.32,78.22 L12.86,77.17 L13.59,76.26 L14.46,75.51 L15.47,74.94 L16.58,74.58 L17.78,74.46 L18.97,74.58 L20.08,74.94 L21.09,75.51 L21.97,76.26 L22.69,77.17 L23.24,78.22 L23.58,79.37 L23.70,80.61 Z" fill="#0078d4" stroke="#0078d4" stroke-width="1" stroke-linejoin="round"/><path d="M46.81,80.61 L46.63,82.47 L46.12,84.21 L45.30,85.77 L44.21,87.14 L42.90,88.27 L41.39,89.12 L39.72,89.66 L37.93,89.84 L36.13,89.66 L34.47,89.12 L32.96,88.27 L31.64,87.14 L30.56,85.77 L29.74,84.21 L29.22,82.47 L29.04,80.61 L29.22,78.75 L29.74,77.02 L30.56,75.45 L31.64,74.08 L32.96,72.96 L34.47,72.10 L36.13,71.57 L37.93,71.38 L39.72,71.57 L41.39,72.10 L42.90,72.96 L44.21,74.08 L45.30,75.45 L46.12,77.02 L46.63,78.75 L46.81,80.61 Z" fill="#7db6f8" stroke="#7db6f8" stroke-width="1" stroke-linejoin="round"/><path d="M43.85,80.61 L43.73,81.85 L43.39,83.01 L42.84,84.05 L42.12,84.96 L41.24,85.72 L40.23,86.28 L39.12,86.64 L37.93,86.77 L36.73,86.64 L35.62,86.28 L34.61,85.72 L33.74,84.96 L33.01,84.05 L32.47,83.01 L32.12,81.85 L32.00,80.61 L32.12,79.37 L32.47,78.22 L33.01,77.17 L33.74,76.26 L34.61,75.51 L35.62,74.94 L36.73,74.58 L37.93,74.46 L39.12,74.58 L40.23,74.94 L41.24,75.51 L42.12,76.26 L42.84,77.17 L43.39,78.22 L43.73,79.37 L43.85,80.61 Z" fill="#0078d4" stroke="#0078d4" stroke-width="1" stroke-linejoin="round"/><path d="M58.07,89.84 L59.87,89.66 L61.53,89.12 L63.04,88.27 L64.36,87.14 L65.45,85.77 L66.26,84.21 L66.78,82.47 L66.96,80.61 L66.78,78.75 L66.26,77.02 L65.45,75.45 L64.36,74.08 L63.04,72.96 L61.53,72.10 L59.87,71.57 L58.07,71.38 L56.28,71.57 L54.61,72.10 L53.10,72.96 L51.79,74.08 L50.70,75.45 L49.88,77.02 L49.37,78.75 L49.19,80.61 L49.37,82.47 L49.88,84.21 L50.70,85.77 L51.79,87.14 L53.10,88.27 L54.61,89.12 L56.28,89.66 L58.07,89.84 Z" fill="#7db6f8" stroke="#7db6f8" stroke-width="1" stroke-linejoin="round"/><path d="M58.07,86.77 L59.27,86.64 L60.38,86.28 L61.39,85.72 L62.26,84.96 L62.99,84.05 L63.53,83.01 L63.88,81.85 L64.00,80.61 L63.88,79.37 L63.53,78.22 L62.99,77.17 L62.26,76.26 L61.39,75.51 L60.38,74.94 L59.27,74.58 L58.07,74.46 L56.88,74.58 L55.77,74.94 L54.76,75.51 L53.88,76.26 L53.16,77.17 L52.61,78.22 L52.27,79.37 L52.15,80.61 L52.27,81.85 L52.61,83.01 L53.16,84.05 L53.88,84.96 L54.76,85.72 L55.77,86.28 L56.88,86.64 L58.07,86.77 Z" fill="#0078d4" stroke="#0078d4" stroke-width="1" stroke-linejoin="round"/><path d="M87.11,80.61 L86.93,82.47 L86.41,84.21 L85.59,85.77 L84.51,87.14 L83.19,88.27 L81.68,89.12 L80.01,89.66 L78.22,89.84 L76.43,89.66 L74.76,89.12 L73.25,88.27 L71.94,87.14 L70.85,85.77 L70.03,84.21 L69.51,82.47 L69.33,80.61 L69.51,78.75 L70.03,77.02 L70.85,75.45 L71.94,74.08 L73.25,72.96 L74.76,72.10 L76.43,71.57 L78.22,71.38 L80.01,71.57 L81.68,72.10 L83.19,72.96 L84.51,74.08 L85.59,75.45 L86.41,77.02 L86.93,78.75 L87.11,80.61 Z" fill="#7db6f8" stroke="#7db6f8" stroke-width="1" stroke-linejoin="round"/><path d="M84.15,80.61 L84.03,81.85 L83.68,83.01 L83.14,84.05 L82.41,84.96 L81.54,85.72 L80.53,86.28 L79.42,86.64 L78.22,86.77 L77.03,86.64 L75.92,86.28 L74.91,85.72 L74.03,84.96 L73.31,84.05 L72.76,83.01 L72.42,81.85 L72.30,80.61 L72.42,79.37 L72.76,78.22 L73.31,77.17 L74.03,76.26 L74.91,75.51 L75.92,74.94 L77.03,74.58 L78.22,74.46 L79.42,74.58 L80.53,74.94 L81.54,75.51 L82.41,76.26 L83.14,77.17 L83.68,78.22 L84.03,79.37 L84.15,80.61 Z" fill="#0078d4" stroke="#0078d4" stroke-width="1" stroke-linejoin="round"/><path d="M17.78,86.77 L18.97,86.64 L20.08,86.28 L21.09,85.72 L21.97,84.96 L22.69,84.05 L23.24,83.01 L23.58,81.85 L23.70,80.61 L23.58,79.37 L23.24,78.22 L22.69,77.17 L21.97,76.26 L21.09,75.51 L20.08,74.94 L18.97,74.58 L17.78,74.46 L16.58,74.58 L15.47,74.94 L14.46,75.51 L13.59,76.26 L12.86,77.17 L12.32,78.22 L11.97,79.37 L11.85,80.61 L11.97,81.85 L12.32,83.01 L12.86,84.05 L13.59,84.96 L14.46,85.72 L15.47,86.28 L16.58,86.64 L17.78,86.77 Z" fill="#7db6f8" stroke="#7db6f8" stroke-width="1" stroke-linejoin="round"/><path d="M37.93,86.77 L39.12,86.64 L40.23,86.28 L41.24,85.72 L42.12,84.96 L42.84,84.05 L43.39,83.01 L43.73,81.85 L43.85,80.61 L43.73,79.37 L43.39,78.22 L42.84,77.17 L42.12,76.26 L41.24,75.51 L40.23,74.94 L39.12,74.58 L37.93,74.46 L36.73,74.58 L35.62,74.94 L34.61,75.51 L33.74,76.26 L33.01,77.17 L32.47,78.22 L32.12,79.37 L32.00,80.61 L32.12,81.85 L32.47,83.01 L33.01,84.05 L33.74,84.96 L34.61,85.72 L35.62,86.28 L36.73,86.64 L37.93,86.77 Z" fill="#7db6f8" stroke="#7db6f8" stroke-width="1" stroke-linejoin="round"/><path d="M64.00,80.61 L63.88,81.85 L63.53,83.01 L62.99,84.05 L62.26,84.96 L61.39,85.72 L60.38,86.28 L59.27,86.64 L58.07,86.77 L56.88,86.64 L55.77,86.28 L54.76,85.72 L53.88,84.96 L53.16,84.05 L52.61,83.01 L52.27,81.85 L52.15,80.61 L52.27,79.37 L52.61,78.22 L53.16,77.17 L53.88,76.26 L54.76,75.51 L55.77,74.94 L56.88,74.58 L58.07,74.46 L59.27,74.58 L60.38,74.94 L61.39,75.51 L62.26,76.26 L62.99,77.17 L63.53,78.22 L63.88,79.37 L64.00,80.61 Z" fill="#7db6f8" stroke="#7db6f8" stroke-width="1" stroke-linejoin="round"/><path d="M78.22,86.77 L79.42,86.64 L80.53,86.28 L81.54,85.72 L82.41,84.96 L83.14,84.05 L83.68,83.01 L84.03,81.85 L84.15,80.61 L84.03,79.37 L83.68,78.22 L83.14,77.17 L82.41,76.26 L81.54,75.51 L80.53,74.94 L79.42,74.58 L78.22,74.46 L77.03,74.58 L75.92,74.94 L74.91,75.51 L74.03,76.26 L73.31,77.17 L72.76,78.22 L72.42,79.37 L72.30,80.61 L72.42,81.85 L72.76,83.01 L73.31,84.05 L74.03,84.96 L74.91,85.72 L75.92,86.28 L77.03,86.64 L78.22,86.77 Z" fill="#7db6f8" stroke="#7db6f8" stroke-width="1" stroke-linejoin="round"/><path d="M14.22,0.00 L14.22,60.07 L74.67,60.07 L74.67,0.00 L14.22,0.00 Z" fill="#3990e4" stroke="#1e1e1e" stroke-width="1" stroke-linejoin="round"/><path d="M70.89,3.95 L18.00,3.95 L18.00,56.12 L70.89,56.12 L70.89,3.95 Z" fill="#ffffff" stroke="#1e1e1e" stroke-width="1" stroke-linejoin="round"/><path d="M18.00,3.95 L70.89,3.95 L70.89,56.12 L18.00,56.12 L18.00,3.95 Z" fill="#3990e4" stroke="#1e1e1e" stroke-width="1" stroke-linejoin="round"/><path d="M26.67,0.59 L26.67,15.98 L62.22,15.98 L62.22,0.59 L26.67,0.59 Z" fill="#b1d4f7" stroke="#b1d4f7" stroke-width="1" stroke-linejoin="round"/><path d="M58.52,4.44 L30.37,4.44 L30.37,12.13 L58.52,12.13 L58.52,4.44 Z" fill="#3990e4" stroke="#3990e4" stroke-width="1" stroke-linejoin="round"/><path d="M30.37,4.44 L58.52,4.44 L58.52,12.13 L30.37,12.13 L30.37,4.44 Z" fill="#b1d4f7" stroke="#b1d4f7" stroke-width="1" stroke-linejoin="round"/></svg>