<svg xmlns="http://www.w3.org/2000/svg" viewBox="-2.00 -1.25 100.14 92.23"><path d="M49.26,64.73 L47.82,64.62 L46.42,64.30 L45.08,63.79 L43.83,63.08 L42.69,62.19 L41.70,61.15 L40.87,59.97 L40.23,58.68 L39.77,57.31 L39.53,55.90 L39.49,54.46 L39.67,53.03 L40.06,51.64 L40.64,50.33 L41.41,49.12 L42.35,48.02 L43.44,47.08 L44.66,46.31 L45.97,45.73 L47.36,45.35 L48.80,45.17 L50.23,45.21 L51.64,45.46 L53.01,45.91 L54.30,46.56 L55.48,47.39 L56.52,48.38 L57.40,49.52 L58.11,50.78 L58.63,52.12 L58.94,53.52 L59.04,54.96 L58.85,56.87 L58.30,58.69 L57.40,60.38 L56.17,61.86 L54.69,63.08 L53.00,63.98 L51.18,64.53 L49.26,64.73 Z" fill="#70acf4" stroke="#70acf4" stroke-width="1" stroke-linejoin="round" opacity="0.9"/><path d="M49.26,49.30 L47.63,49.56 L46.14,50.27 L44.92,51.39 L44.07,52.81 L43.68,54.42 L43.77,56.07 L44.33,57.63 L45.32,58.95 L46.65,59.94 L48.21,60.49 L49.86,60.57 L51.46,60.16 L52.88,59.31 L53.99,58.09 L54.70,56.59 L54.95,54.96 L54.84,53.85 L54.51,52.79 L53.99,51.81 L53.28,50.95 L52.42,50.24 L51.44,49.72 L50.37,49.41 L49.26,49.30 L49.26,49.30 Z" fill="#ffffff" stroke="#ffffff" stroke-width="1" stroke-linejoin="round" opacity="0.9"/><path d="M72.06,20.27 L59.80,20.27 L59.55,20.34 L59.39,20.53 L59.37,20.78 L59.49,21.00 L62.99,24.50 L63.14,24.86 L62.99,25.21 L53.49,34.71 L52.37,36.07 L52.37,10.71 L52.50,10.41 L52.80,10.28 L57.92,10.28 L58.15,10.20 L58.31,10.01 L58.34,9.76 L58.23,9.54 L49.53,0.87 L49.23,0.75 L48.93,0.87 L40.27,9.54 L40.16,9.76 L40.18,10.01 L40.34,10.20 L40.58,10.28 L45.65,10.28 L45.95,10.42 L46.08,10.71 L46.08,36.06 L44.98,34.71 L35.48,25.21 L35.37,25.05 L35.33,24.86 L35.37,24.67 L35.48,24.50 L38.98,21.00 L39.10,20.70 L38.98,20.40 L38.84,20.31 L38.67,20.28 L26.41,20.28 L26.11,20.40 L25.98,20.71 L25.98,32.96 L26.01,33.13 L26.11,33.27 L26.25,33.36 L26.41,33.39 L26.71,33.27 L30.39,29.60 L30.55,29.49 L30.74,29.45 L30.93,29.49 L31.09,29.60 L40.59,39.10 L41.98,40.68 L43.19,42.40 L44.18,44.25 L44.96,46.21 L47.03,45.43 L49.23,45.16 L51.43,45.41 L53.51,46.17 L54.29,44.22 L55.29,42.38 L56.48,40.67 L57.88,39.10 L67.37,29.60 L67.54,29.49 L67.73,29.45 L67.92,29.49 L68.08,29.60 L71.76,33.27 L72.05,33.39 L72.36,33.26 L72.49,32.96 L72.49,20.69 L72.36,20.39 L72.06,20.27 L72.06,20.27 Z" fill="#70acf4" stroke="#1e1e1e" stroke-width="1" stroke-linejoin="round"/><path d="M96.14,76.00 L96.14,77.91 L95.92,78.93 L95.29,79.80 L94.35,80.39 L93.24,80.59 L82.41,80.59 L82.41,73.32 L93.24,73.32 L94.35,73.52 L95.29,74.10 L95.92,74.98 L96.14,76.00 L96.14,76.00 Z" fill="#32bedd" stroke="#32bedd" stroke-width="1" stroke-linejoin="round"/><path d="M13.73,73.32 L13.73,80.59 L2.90,80.59 L1.79,80.39 L0.85,79.80 L0.22,78.93 L0.00,77.91 L0.00,76.00 L0.22,74.98 L0.85,74.10 L1.79,73.52 L2.90,73.32 L13.73,73.32 Z" fill="#32bedd" stroke="#32bedd" stroke-width="1" stroke-linejoin="round"/><path d="M83.59,61.40 L13.49,61.40 L12.31,61.65 L11.30,62.36 L10.63,63.43 L10.40,64.68 L10.40,85.70 L10.63,86.96 L11.30,88.02 L12.31,88.73 L13.49,88.98 L83.59,88.98 L84.78,88.73 L85.78,88.02 L86.45,86.96 L86.69,85.70 L86.69,64.68 L86.45,63.43 L85.78,62.36 L84.78,61.65 L83.59,61.40 L83.59,61.40 Z" fill="#27b2d7" stroke="#1e1e1e" stroke-width="1" stroke-linejoin="round"/><path d="M78.41,65.18 L73.53,65.18 L72.86,65.47 L72.59,66.17 L72.59,71.34 L72.86,72.05 L73.53,72.34 L78.41,72.34 L79.07,72.05 L79.35,71.34 L79.35,66.17 L79.07,65.47 L78.41,65.18 Z" fill="#b4ec36" stroke="#b4ec36" stroke-width="1" stroke-linejoin="round"/><path d="M78.41,77.51 L73.53,77.51 L72.86,77.80 L72.59,78.50 L72.59,83.67 L72.86,84.38 L73.53,84.67 L78.41,84.67 L79.07,84.38 L79.35,83.67 L79.35,78.50 L79.07,77.80 L78.41,77.51 Z" fill="#b4ec36" stroke="#b4ec36" stroke-width="1" stroke-linejoin="round"/><path d="M35.02,54.25 L62.08,54.25 L62.73,54.38 L63.27,54.77 L63.64,55.35 L63.77,56.04 L63.77,61.41 L33.33,61.41 L33.33,56.03 L33.46,55.35 L33.83,54.77 L34.38,54.38 L35.02,54.25 L35.02,54.25 Z" fill="#198ab3" stroke="#198ab3" stroke-width="1" stroke-linejoin="round"/></svg>