<svg xmlns="http://www.w3.org/2000/svg" viewBox="0.67 0.67 94.66 95.02"><path d="M48.07,43.23 L32.97,28.91 L45.00,28.91 L65.35,48.00 L45.30,67.09 L32.97,67.09 L48.08,52.80 L5.37,52.80 L4.30,52.50 L3.44,51.72 L2.87,50.64 L2.67,49.47 L2.67,45.52 L2.87,44.51 L3.44,43.79 L4.30,43.36 L5.37,43.22 L48.07,43.23 Z" fill="#57a300" stroke="#1e1e1e" stroke-width="1" stroke-linejoin="round"/><path d="M11.11,26.79 L13.02,28.15 L15.26,28.85 L17.60,28.82 L19.82,28.07 L21.70,26.67 L21.87,26.47 L25.51,23.42 L29.59,20.98 L34.00,19.21 L38.63,18.15 L43.37,17.83 L48.10,18.25 L52.71,19.41 L57.08,21.28 L61.10,23.80 L64.68,26.92 L65.06,27.31 L67.79,30.55 L70.04,34.14 L71.76,38.01 L72.93,42.08 L73.51,46.28 L73.49,50.51 L75.44,51.79 L76.91,53.60 L76.91,53.63 L76.91,53.66 L84.57,66.99 L86.76,61.26 L88.15,55.28 L88.73,49.17 L88.47,43.04 L87.39,37.00 L85.50,31.17 L82.85,25.63 L79.47,20.51 L75.43,15.89 L70.93,12.00 L65.97,8.72 L60.62,6.10 L54.98,4.21 L49.14,3.05 L43.20,2.67 L37.25,3.03 L31.41,4.17 L25.76,6.06 L20.40,8.68 L15.44,11.97 L10.95,15.89 L10.79,16.05 L9.44,17.96 L8.75,20.20 L8.78,22.54 L9.54,24.76 L10.95,26.63 L11.11,26.79 Z" fill="#0072c6" stroke="#1e1e1e" stroke-width="1" stroke-linejoin="round"/><path d="M44.22,90.04 L44.53,88.09 L45.32,86.27 L50.05,77.80 L45.69,78.46 L41.27,78.47 L36.91,77.84 L32.68,76.58 L28.67,74.72 L24.99,72.30 L21.69,69.36 L21.53,69.20 L19.62,67.85 L17.38,67.15 L15.03,67.19 L12.82,67.95 L10.94,69.36 L10.78,69.51 L9.44,71.43 L8.75,73.67 L8.78,76.01 L9.54,78.23 L10.94,80.11 L15.45,84.01 L20.42,87.29 L25.77,89.90 L31.41,91.80 L37.26,92.95 L43.20,93.33 L44.93,93.30 L44.39,91.71 L44.22,90.04 Z" fill="#0072c6" stroke="#1e1e1e" stroke-width="1" stroke-linejoin="round"/><path d="M92.74,88.16 L83.20,72.10 L73.66,55.57 L72.74,54.41 L71.40,53.77 L69.91,53.77 L68.58,54.41 L67.65,55.57 L58.13,71.10 L48.60,88.17 L48.02,89.59 L48.11,91.13 L48.85,92.49 L50.10,93.40 L51.61,93.69 L89.74,93.69 L91.26,93.40 L92.50,92.49 L93.24,91.13 L93.33,89.59 L92.75,88.17 L92.74,88.16 Z" fill="#ff8c00" stroke="#ff8c00" stroke-width="1" stroke-linejoin="round"/><path d="M71.17,65.60 L73.68,65.60 L72.67,80.15 L68.66,80.15 L68.16,65.60 L71.17,65.60 Z" fill="#ffffff" stroke="#ffffff" stroke-width="1" stroke-linejoin="round"/><path d="M70.67,87.67 L69.16,87.27 L68.06,86.17 L67.65,84.66 L68.06,83.15 L69.16,82.05 L70.67,81.65 L72.18,82.05 L73.28,83.16 L73.68,84.67 L73.28,86.17 L72.17,87.28 L70.67,87.67 L70.67,87.67 Z" fill="#ffffff" stroke="#ffffff" stroke-width="1" stroke-linejoin="round"/></svg>