<svg xmlns="http://www.w3.org/2000/svg" viewBox="0.67 0.67 94.67 94.67"><path d="M55.00,21.29 L54.67,24.95 L53.63,28.49 L51.92,31.75 L49.61,34.62 L46.79,36.98 L43.55,38.74 L40.04,39.84 L36.38,40.23 L36.38,40.23 L32.71,39.91 L29.18,38.87 L25.91,37.16 L23.05,34.85 L20.69,32.02 L18.92,28.79 L17.82,25.28 L17.43,21.62 L17.43,21.62 L17.76,17.95 L18.80,14.41 L20.50,11.15 L22.81,8.29 L25.64,5.92 L28.87,4.16 L32.39,3.06 L36.05,2.67 L36.21,2.67 L39.86,3.01 L43.38,4.06 L46.62,5.77 L49.46,8.08 L51.80,10.91 L53.54,14.13 L54.62,17.63 L55.00,21.28 L55.00,21.28" fill="none" stroke="#1e1e1e" stroke-width="1" stroke-linejoin="round"/><path d="M92.74,87.22 L83.20,71.16 L73.67,54.62 L72.74,53.47 L71.40,52.83 L69.92,52.83 L68.58,53.47 L67.65,54.62 L58.13,70.15 L48.60,87.22 L48.02,88.65 L48.11,90.19 L48.85,91.54 L50.10,92.45 L51.61,92.74 L89.74,92.74 L91.26,92.46 L92.51,91.55 L93.25,90.19 L93.33,88.65 L92.75,87.22 L92.74,87.22 Z" fill="#ff8c00" stroke="#ff8c00" stroke-width="1" stroke-linejoin="round"/><path d="M71.17,64.63 L73.68,64.63 L72.67,79.18 L68.66,79.18 L68.16,64.63 L71.17,64.63 Z" fill="#ffffff" stroke="#ffffff" stroke-width="1" stroke-linejoin="round"/><path d="M70.67,86.71 L69.16,86.31 L68.06,85.20 L67.65,83.69 L68.06,82.19 L69.16,81.08 L70.67,80.68 L72.18,81.09 L73.28,82.19 L73.68,83.70 L73.28,85.21 L72.17,86.31 L70.67,86.71 L70.67,86.71 Z" fill="#ffffff" stroke="#ffffff" stroke-width="1" stroke-linejoin="round"/><path d="M45.16,92.86 L44.44,91.04 L44.22,89.10 L44.54,87.15 L45.33,85.33 L54.84,68.32 L54.88,68.25 L54.92,68.19 L64.43,52.64 L65.81,50.91 L67.64,49.66 L69.76,49.01 L69.76,46.29 L49.95,46.29 L36.21,65.37 L22.48,46.29 L2.67,46.29 L2.67,93.33 L45.47,93.33 L45.16,92.86 Z" fill="#59b4d9" stroke="#1e1e1e" stroke-width="1" stroke-linejoin="round"/></svg>