<svg xmlns="http://www.w3.org/2000/svg" viewBox="2.46 -2.00 91.07 100.00"><path d="M80.67,43.48 L80.58,45.82 L80.33,48.12 L79.35,52.63 L77.83,56.99 L75.84,61.18 L73.45,65.20 L70.74,69.02 L67.81,72.62 L64.71,75.99 L61.54,79.12 L58.37,81.99 L52.35,86.87 L47.29,90.51 L43.82,92.77 L42.57,93.13 L41.31,92.77 L37.84,90.50 L32.78,86.86 L26.76,81.98 L23.59,79.11 L20.42,75.98 L17.33,72.61 L14.39,69.00 L11.68,65.19 L9.30,61.17 L7.30,56.98 L5.78,52.62 L4.81,48.12 L4.55,45.82 L4.46,43.48 L4.46,13.33 L4.78,12.16 L5.63,11.29 L6.81,10.95 L10.89,10.72 L14.38,10.30 L17.34,9.71 L19.84,8.98 L21.98,8.14 L23.81,7.21 L26.90,5.24 L29.71,3.30 L31.20,2.41 L32.85,1.62 L34.73,0.96 L36.93,0.45 L39.52,0.12 L42.57,0.00 L45.61,0.12 L48.20,0.45 L50.40,0.96 L52.28,1.62 L53.93,2.42 L55.43,3.30 L58.23,5.25 L61.32,7.22 L63.16,8.14 L65.29,8.99 L67.80,9.72 L70.76,10.32 L74.24,10.74 L78.33,10.97 L79.50,11.31 L80.35,12.18 L80.67,13.35 L80.67,43.48 Z" fill="#0078d4" stroke="#1e1e1e" stroke-width="1" stroke-linejoin="round"/><path d="M77.51,43.73 L77.20,47.98 L76.31,52.12 L74.91,56.11 L73.08,59.96 L70.89,63.64 L68.41,67.14 L65.72,70.44 L62.89,73.54 L59.98,76.41 L57.07,79.04 L51.55,83.52 L46.91,86.86 L43.72,88.93 L42.57,89.26 L41.42,88.93 L38.23,86.86 L33.59,83.52 L28.07,79.04 L25.17,76.41 L22.26,73.54 L19.42,70.45 L16.73,67.14 L14.25,63.64 L12.06,59.96 L10.23,56.11 L8.83,52.12 L7.94,47.99 L7.63,43.73 L7.63,16.11 L7.91,15.03 L8.69,14.24 L9.76,13.93 L13.51,13.71 L16.71,13.32 L19.42,12.78 L21.72,12.10 L23.68,11.33 L25.37,10.48 L28.20,8.67 L30.77,6.89 L32.14,6.08 L33.65,5.35 L35.38,4.74 L37.40,4.27 L39.77,3.97 L42.57,3.86 L45.36,3.97 L47.73,4.27 L49.75,4.74 L51.48,5.35 L52.99,6.08 L54.36,6.89 L56.93,8.67 L59.76,10.48 L61.44,11.33 L63.40,12.11 L65.70,12.78 L68.42,13.32 L71.62,13.72 L75.37,13.93 L76.44,14.24 L77.21,15.03 L77.50,16.11 L77.51,43.73 Z" fill="#2f8ce2" stroke="#1e1e1e" stroke-width="1" stroke-linejoin="round"/><ellipse cx="63.71" cy="68.18" rx="27.82" ry="27.82" fill="#76bc2d" stroke="#1e1e1e" stroke-width="1"/><path d="M43.84,65.56 L43.09,65.67 L42.49,65.22 L41.31,63.23 L41.21,62.49 L41.66,61.88 L51.00,56.34 L51.74,56.23 L52.35,56.69 L57.89,66.03 L58.00,66.77 L57.54,67.38 L55.56,68.55 L54.81,68.66 L54.21,68.21 L52.57,65.43 L52.22,67.76 L52.31,70.11 L52.85,72.41 L53.85,74.54 L54.82,75.96 L55.98,77.21 L57.31,78.27 L58.76,79.14 L60.32,79.80 L61.96,80.25 L63.23,80.42 L64.50,80.47 L65.15,80.73 L65.46,81.37 L65.91,86.17 L63.38,86.21 L60.87,85.89 L58.46,85.24 L56.15,84.26 L54.02,82.98 L52.07,81.41 L50.03,79.14 L48.40,76.56 L47.24,73.73 L46.58,70.75 L46.47,67.18 L47.08,63.65 L43.84,65.56 Z" fill="#ffffff" stroke="#1e1e1e" stroke-width="1" stroke-linejoin="round"/><path d="M66.54,56.50 L68.18,56.95 L69.74,57.62 L71.19,58.49 L72.51,59.55 L74.29,61.59 L75.54,63.99 L76.20,66.62 L76.29,68.97 L75.95,71.30 L74.30,68.52 L73.70,68.07 L72.95,68.18 L70.97,69.35 L70.52,69.96 L70.62,70.70 L76.17,80.05 L76.77,80.50 L77.51,80.39 L86.85,74.85 L87.31,74.25 L87.20,73.50 L86.02,71.51 L85.42,71.07 L84.67,71.17 L81.44,73.09 L82.04,69.57 L81.94,66.00 L81.28,63.02 L80.12,60.19 L78.49,57.60 L76.44,55.33 L74.50,53.77 L72.36,52.49 L70.06,51.51 L67.65,50.86 L65.64,50.57 L63.62,50.52 L62.93,50.86 L62.70,51.59 L63.06,55.38 L63.36,56.01 L64.02,56.27 L65.29,56.33 L66.54,56.53 L66.54,56.50 Z" fill="#ffffff" stroke="#1e1e1e" stroke-width="1" stroke-linejoin="round"/></svg>