<svg xmlns="http://www.w3.org/2000/svg" viewBox="4.71 0.67 86.57 94.67"><path d="M80.79,12.11 L15.21,12.11 L12.63,12.53 L10.31,13.70 L8.44,15.52 L7.20,17.81 L6.71,20.37 L7.01,22.96 L8.07,25.33 L12.13,33.51 L15.54,41.99 L16.86,44.04 L18.60,45.74 L20.68,47.01 L22.99,47.77 L25.42,48.00 L70.58,48.00 L73.00,47.77 L75.31,47.00 L77.38,45.74 L79.12,44.04 L80.44,41.99 L83.84,33.51 L87.90,25.33 L88.97,22.96 L89.27,20.37 L88.78,17.82 L87.55,15.53 L85.68,13.71 L83.36,12.54 L80.79,12.11 L80.79,12.11 Z" fill="#ff8c00" stroke="#1e1e1e" stroke-width="1" stroke-linejoin="round"/><path d="M83.11,22.35 L78.75,31.04 L75.11,40.06 L74.26,41.29 L73.00,42.09 L71.53,42.34 L24.47,42.34 L22.99,42.09 L21.72,41.28 L20.88,40.03 L17.24,31.03 L12.88,22.35 L12.46,21.32 L12.42,20.20 L12.78,19.15 L13.79,18.10 L15.19,17.75 L80.79,17.75 L82.20,18.10 L83.21,19.15 L83.57,20.20 L83.53,21.32 L83.11,22.35 L83.11,22.35 Z" fill="#ffffff" stroke="#1e1e1e" stroke-width="1" stroke-linejoin="round"/><path d="M80.79,12.11 L51.78,12.11 L51.78,17.78 L80.79,17.78 L82.20,18.12 L83.20,19.17 L83.56,20.22 L83.53,21.34 L83.11,22.37 L78.75,31.07 L75.11,40.09 L74.26,41.32 L73.00,42.12 L71.53,42.36 L51.79,42.36 L51.79,48.00 L70.59,48.00 L73.01,47.77 L75.32,47.00 L77.40,45.74 L79.14,44.04 L80.45,41.99 L83.86,33.51 L87.92,25.33 L88.98,22.96 L89.28,20.37 L88.79,17.81 L87.56,15.52 L85.69,13.70 L83.36,12.53 L80.79,12.11 L80.79,12.11 Z" fill="#dd5900" stroke="#1e1e1e" stroke-width="1" stroke-linejoin="round" opacity="0.6"/><path d="M40.44,55.56 L55.56,55.56 L55.56,76.36 L40.44,76.36 L40.44,55.56 Z" fill="#fcd116" stroke="#1e1e1e" stroke-width="1" stroke-linejoin="round"/><path d="M48.00,55.56 L55.56,55.56 L55.56,76.36 L48.00,76.36 L48.00,55.56 Z" fill="#dd5900" stroke="#dd5900" stroke-width="1" stroke-linejoin="round" opacity="0.4"/><path d="M72.42,90.98 L68.92,78.76 L68.08,76.99 L67.09,75.62 L66.47,75.12 L65.74,74.75 L64.86,74.52 L63.82,74.44 L32.18,74.44 L31.14,74.52 L30.26,74.75 L29.53,75.12 L28.91,75.62 L27.92,76.99 L27.08,78.76 L23.58,90.98 L23.54,92.11 L24.20,93.02 L25.29,93.33 L70.71,93.33 L71.80,93.02 L72.46,92.11 L72.42,90.98 Z" fill="#ff8c00" stroke="#1e1e1e" stroke-width="1" stroke-linejoin="round"/><path d="M72.42,90.98 L68.92,78.76 L68.08,76.99 L67.09,75.62 L66.47,75.12 L65.74,74.75 L64.86,74.52 L63.82,74.44 L48.00,74.44 L48.00,93.33 L70.71,93.33 L71.80,93.02 L72.46,92.11 L72.42,90.98 Z" fill="#dd5900" stroke="#1e1e1e" stroke-width="1" stroke-linejoin="round" opacity="0.6"/><path d="M40.44,61.02 L43.32,62.34 L46.42,63.02 L49.58,63.02 L52.68,62.34 L55.56,61.02 L55.56,55.56 L40.44,55.56 L40.44,61.02 Z" fill="#dd5900" stroke="#dd5900" stroke-width="1" stroke-linejoin="round" opacity="0.4"/><path d="M71.53,2.67 L24.33,2.67 L23.27,2.83 L22.49,3.26 L21.97,3.89 L21.67,4.64 L21.56,5.43 L21.60,6.19 L22.02,7.29 L22.51,7.92 L23.33,9.27 L24.35,11.45 L25.46,14.62 L26.53,18.92 L27.44,24.47 L28.08,31.42 L28.32,39.92 L28.81,43.95 L30.11,47.79 L32.18,51.28 L34.92,54.27 L38.22,56.63 L41.93,58.27 L45.90,59.10 L49.96,59.10 L53.93,58.27 L57.64,56.63 L60.94,54.27 L63.68,51.28 L65.75,47.79 L67.05,43.95 L67.54,39.92 L67.77,31.43 L68.38,24.48 L69.27,18.94 L70.32,14.65 L71.42,11.49 L72.45,9.30 L73.29,7.95 L73.84,7.29 L74.41,6.13 L74.41,4.83 L73.83,3.68 L72.80,2.90 L71.53,2.67 L71.53,2.67 Z" fill="#fcd116" stroke="#1e1e1e" stroke-width="1" stroke-linejoin="round"/><path d="M48.00,59.33 L51.78,58.93 L55.42,57.81 L58.78,56.01 L61.72,53.61 L64.15,50.68 L65.97,47.33 L67.11,43.70 L67.54,39.92 L67.77,31.43 L68.38,24.48 L69.27,18.94 L70.32,14.65 L71.42,11.49 L72.45,9.30 L73.29,7.95 L73.84,7.29 L74.41,6.13 L74.41,4.83 L73.83,3.68 L72.80,2.90 L71.53,2.67 L48.00,2.67 L48.00,59.33 Z" fill="#dd5900" stroke="#1e1e1e" stroke-width="1" stroke-linejoin="round" opacity="0.3"/></svg>