<svg xmlns="http://www.w3.org/2000/svg" viewBox="5.11 0.82 91.43 100.00"><path d="M85.55,12.82 L16.10,12.82 L13.38,13.27 L10.91,14.51 L8.94,16.43 L7.63,18.86 L7.11,21.57 L7.43,24.31 L8.55,26.82 L12.85,35.49 L16.46,44.46 L17.85,46.63 L19.69,48.43 L21.90,49.77 L24.35,50.58 L26.91,50.82 L74.73,50.82 L77.29,50.58 L79.74,49.77 L81.93,48.43 L83.78,46.63 L85.17,44.46 L88.78,35.49 L93.07,26.82 L94.20,24.31 L94.52,21.57 L94.00,18.87 L92.69,16.44 L90.72,14.52 L88.27,13.27 L85.55,12.82 L85.55,12.82 Z" fill="#ff8c00" stroke="#1e1e1e" stroke-width="1" stroke-linejoin="round"/><path d="M88.00,23.66 L83.38,32.87 L79.53,42.42 L78.63,43.72 L77.30,44.57 L75.74,44.83 L25.91,44.83 L24.34,44.57 L23.00,43.71 L22.11,42.39 L18.25,32.85 L13.64,23.66 L13.19,22.57 L13.15,21.39 L13.54,20.27 L14.60,19.17 L16.09,18.80 L85.55,18.80 L87.04,19.17 L88.10,20.27 L88.48,21.39 L88.45,22.57 L88.00,23.66 L88.00,23.66 Z" fill="#ffffff" stroke="#1e1e1e" stroke-width="1" stroke-linejoin="round"/><path d="M85.55,12.82 L54.82,12.82 L54.82,18.82 L85.55,18.82 L87.03,19.19 L88.09,20.30 L88.48,21.41 L88.45,22.59 L88.00,23.68 L83.38,32.89 L79.53,42.44 L78.63,43.75 L77.29,44.59 L75.73,44.85 L54.84,44.85 L54.84,50.82 L74.74,50.82 L77.31,50.58 L79.75,49.77 L81.95,48.43 L83.79,46.63 L85.19,44.46 L88.79,35.49 L93.09,26.82 L94.22,24.31 L94.53,21.57 L94.01,18.86 L92.71,16.43 L90.73,14.51 L88.27,13.27 L85.55,12.82 Z" fill="#dd5900" stroke="#1e1e1e" stroke-width="1" stroke-linejoin="round" opacity="0.6"/><path d="M42.82,58.83 L58.83,58.83 L58.83,80.85 L42.82,80.85 L42.82,58.83 Z" fill="#fcd116" stroke="#1e1e1e" stroke-width="1" stroke-linejoin="round"/><path d="M50.82,58.83 L58.83,58.83 L58.83,80.85 L50.82,80.85 L50.82,58.83 Z" fill="#dd5900" stroke="#dd5900" stroke-width="1" stroke-linejoin="round" opacity="0.4"/><path d="M76.68,96.33 L72.98,83.40 L72.08,81.52 L71.03,80.07 L70.38,79.54 L69.60,79.15 L68.68,78.90 L67.58,78.82 L34.07,78.82 L32.97,78.90 L32.04,79.15 L31.27,79.54 L30.62,80.07 L29.56,81.52 L28.67,83.40 L24.97,96.33 L24.92,97.53 L25.63,98.50 L26.78,98.82 L74.87,98.82 L76.02,98.50 L76.73,97.53 L76.68,96.33 Z" fill="#ff8c00" stroke="#1e1e1e" stroke-width="1" stroke-linejoin="round"/><path d="M76.68,96.33 L72.98,83.40 L72.08,81.52 L71.03,80.07 L70.38,79.54 L69.60,79.15 L68.68,78.90 L67.58,78.82 L50.82,78.82 L50.82,98.82 L74.87,98.82 L76.02,98.50 L76.73,97.53 L76.68,96.33 Z" fill="#dd5900" stroke="#1e1e1e" stroke-width="1" stroke-linejoin="round" opacity="0.6"/><path d="M42.82,64.61 L45.87,66.01 L49.15,66.72 L52.50,66.72 L55.78,66.01 L58.83,64.61 L58.83,58.83 L42.82,58.83 L42.82,64.61 Z" fill="#dd5900" stroke="#dd5900" stroke-width="1" stroke-linejoin="round" opacity="0.4"/><path d="M75.73,2.82 L25.76,2.82 L24.63,3.00 L23.81,3.46 L23.26,4.12 L22.94,4.92 L22.82,5.75 L22.87,6.55 L23.32,7.71 L23.84,8.39 L24.70,9.81 L25.78,12.13 L26.96,15.48 L28.09,20.03 L29.06,25.91 L29.73,33.27 L29.99,42.27 L30.50,46.53 L31.88,50.60 L34.07,54.30 L36.97,57.46 L40.46,59.96 L44.40,61.69 L48.60,62.58 L52.90,62.58 L57.10,61.69 L61.03,59.96 L64.52,57.46 L67.42,54.30 L69.61,50.60 L70.99,46.53 L71.51,42.27 L71.75,33.28 L72.41,25.92 L73.35,20.05 L74.46,15.51 L75.62,12.16 L76.71,9.85 L77.60,8.41 L78.18,7.71 L78.79,6.49 L78.78,5.12 L78.17,3.90 L77.08,3.07 L75.73,2.82 L75.73,2.82 Z" fill="#fcd116" stroke="#1e1e1e" stroke-width="1" stroke-linejoin="round"/><path d="M50.82,62.82 L54.83,62.40 L58.68,61.21 L62.23,59.31 L65.35,56.76 L67.93,53.66 L69.85,50.12 L71.06,46.27 L71.51,42.27 L71.75,33.28 L72.41,25.92 L73.35,20.05 L74.46,15.51 L75.62,12.16 L76.71,9.85 L77.60,8.41 L78.18,7.71 L78.79,6.49 L78.78,5.12 L78.17,3.90 L77.08,3.07 L75.73,2.82 L50.82,2.82 L50.82,62.82 Z" fill="#dd5900" stroke="#1e1e1e" stroke-width="1" stroke-linejoin="round" opacity="0.3"/></svg>