<svg xmlns="http://www.w3.org/2000/svg" viewBox="0.71 0.67 94.62 94.62"><path d="M48.00,2.67 L41.91,3.08 L35.94,4.30 L30.18,6.31 L24.75,9.08 L19.74,12.56 L15.23,16.67 L11.32,21.35 L8.08,26.52 L5.56,32.07 L3.80,37.91 L2.85,43.94 L2.71,50.03 L3.40,56.09 L4.89,62.01 L7.16,67.67 L10.17,72.97 L13.86,77.83 L18.17,82.14 L23.03,85.83 L28.33,88.84 L33.99,91.11 L39.91,92.60 L45.97,93.29 L52.06,93.15 L58.09,92.20 L63.93,90.44 L69.48,87.92 L74.65,84.68 L79.33,80.77 L83.44,76.26 L86.92,71.25 L89.69,65.82 L91.70,60.06 L92.92,54.09 L93.33,48.00 L92.94,42.09 L91.78,36.27 L89.87,30.66 L87.24,25.34 L83.95,20.42 L80.04,15.96 L75.58,12.05 L70.66,8.76 L65.34,6.13 L59.73,4.22 L53.91,3.06 L48.00,2.67 L48.00,2.67 Z" fill="#5c9fee" stroke="#1e1e1e" stroke-width="1" stroke-linejoin="round"/><path d="M48.00,87.15 L42.26,86.72 L36.64,85.46 L31.26,83.39 L26.25,80.55 L21.71,77.01 L17.74,72.83 L14.42,68.13 L11.83,62.98 L10.03,57.51 L9.04,51.84 L8.90,46.08 L9.61,40.36 L11.14,34.81 L13.48,29.55 L16.56,24.68 L20.32,20.32 L24.68,16.56 L29.55,13.48 L34.81,11.14 L40.36,9.61 L46.08,8.90 L51.84,9.04 L57.51,10.03 L62.98,11.83 L68.13,14.42 L72.83,17.74 L77.01,21.71 L80.55,26.25 L83.39,31.26 L85.46,36.64 L86.72,42.26 L87.15,48.00 L86.75,53.57 L85.56,59.03 L83.61,64.26 L80.93,69.16 L77.59,73.64 L73.64,77.59 L69.16,80.93 L64.26,83.61 L59.03,85.56 L53.57,86.75 L48.00,87.15 Z" fill="#ffffff" stroke="#1e1e1e" stroke-width="1" stroke-linejoin="round"/><ellipse cx="48.00" cy="48.00" rx="39.15" ry="39.15" fill="#ffffff" stroke="#1e1e1e" stroke-width="1"/><path d="M71.68,39.09 L73.22,37.07 L74.19,34.71 L74.52,32.19 L74.19,29.66 L73.22,27.31 L71.68,25.28 L71.68,25.28 L54.88,8.43 L52.86,6.89 L50.52,5.92 L48.00,5.59 L45.48,5.92 L43.14,6.89 L41.12,8.43 L41.12,8.43 L24.32,25.28 L22.78,27.31 L21.81,29.66 L21.48,32.19 L21.81,34.71 L22.78,37.07 L24.32,39.09 L38.29,53.33 L38.88,54.21 L39.09,55.25 L39.09,81.28 L39.34,82.55 L40.05,83.63 L46.45,90.03 L47.43,90.59 L48.57,90.59 L49.55,90.03 L55.73,83.84 L55.73,83.84 L59.36,80.21 L59.72,79.31 L59.36,78.40 L56.75,75.79 L56.36,74.80 L56.75,73.81 L59.36,71.20 L59.72,70.29 L59.36,69.39 L56.75,66.77 L56.36,65.79 L56.75,64.80 L59.36,62.19 L59.72,61.28 L59.36,60.37 L55.73,56.69 L55.73,55.36 L71.68,39.09 Z" fill="#ffca12" stroke="#ffca12" stroke-width="1" stroke-linejoin="round"/><path d="M48.00,12.53 L50.11,12.95 L51.90,14.15 L53.10,15.94 L53.52,18.05 L53.10,20.17 L51.90,21.96 L50.11,23.15 L48.00,23.57 L45.89,23.15 L44.10,21.96 L42.90,20.17 L42.48,18.05 L42.90,15.94 L44.10,14.15 L45.89,12.95 L48.00,12.53 L48.00,12.53 Z" fill="#ffffff" stroke="#ffffff" stroke-width="1" stroke-linejoin="round"/><path d="M43.63,81.60 L43.63,81.60 L44.48,81.90 L45.30,81.53 L45.65,80.69 L45.65,59.36 L45.49,58.75 L45.07,58.29 L45.07,58.29 L44.24,58.12 L43.50,58.55 L43.25,59.36 L43.25,80.69 L43.36,81.18 L43.63,81.60 Z" fill="#ff9300" stroke="#ff9300" stroke-width="1" stroke-linejoin="round" opacity="0.75"/><rect x="34.56" y="30.88" width="27.57" height="3.25" fill="#ff9300" stroke="#ff9300" stroke-width="1" opacity="0.75"/><rect x="34.56" y="36.16" width="27.57" height="3.25" fill="#ff9300" stroke="#ff9300" stroke-width="1" opacity="0.75"/></svg>