<svg xmlns="http://www.w3.org/2000/svg" viewBox="3.19 0.67 89.61 94.67"><path d="M90.81,44.34 L90.30,40.51 L89.04,36.86 L87.08,33.53 L84.50,30.66 L81.39,28.37 L77.89,26.74 L74.13,25.84 L73.59,21.68 L72.33,17.68 L70.41,13.95 L67.87,10.62 L64.79,7.77 L61.27,5.49 L57.41,3.85 L53.33,2.90 L49.14,2.67 L44.77,2.97 L40.52,4.04 L36.53,5.84 L32.91,8.31 L29.78,11.37 L27.24,14.94 L25.36,18.90 L21.38,19.74 L17.62,21.27 L14.18,23.45 L11.19,26.19 L8.72,29.43 L6.87,33.04 L5.68,36.93 L5.19,40.97 L5.70,44.99 L6.90,48.86 L8.75,52.47 L11.20,55.70 L14.17,58.46 L17.57,60.67 L21.31,62.25 L25.26,63.16 L29.31,63.37 L70.45,63.37 L70.98,63.40 L71.51,63.37 L75.24,62.98 L78.81,61.88 L82.11,60.12 L85.02,57.76 L87.42,54.89 L89.22,51.62 L90.36,48.06 L90.81,44.34 Z" fill="#3fcfec" stroke="#1e1e1e" stroke-width="1" stroke-linejoin="round"/><path d="M65.60,58.42 L68.24,58.00 L70.62,56.79 L72.50,54.90 L73.72,52.52 L74.13,49.89 L74.13,49.89 L74.13,29.22 L73.74,26.62 L72.56,24.28 L70.71,22.42 L68.38,21.22 L65.79,20.80 L44.95,20.80 L42.33,21.23 L39.97,22.45 L38.10,24.34 L36.90,26.71 L36.49,29.33 L36.49,46.51 L36.26,47.31 L35.78,48.00 L19.73,64.22 L19.10,65.16 L18.87,66.27 L18.87,74.07 L19.11,75.03 L19.78,75.74 L20.73,76.02 L32.92,76.02 L33.70,75.70 L34.02,74.93 L34.02,71.79 L34.38,70.91 L35.25,70.55 L38.49,70.55 L39.26,70.23 L39.58,69.46 L39.58,66.08 L39.93,65.24 L40.77,64.89 L44.01,64.89 L44.80,64.60 L45.15,63.82 L45.15,59.31 L45.96,58.45 L65.60,58.42 Z" fill="#2e8be1" stroke="#2e8be1" stroke-width="1" stroke-linejoin="round"/><path d="M67.41,27.49 L68.51,29.17 L68.84,31.15 L68.33,33.09 L67.09,34.67 L65.31,35.61 L63.31,35.75 L61.42,35.06 L59.97,33.67 L59.20,31.81 L59.26,29.81 L60.12,27.99 L61.64,26.68 L63.56,26.09 L65.55,26.34 L67.28,27.37 L67.41,27.49 Z" fill="#3fcfec" stroke="#3fcfec" stroke-width="1" stroke-linejoin="round"/><path d="M80.91,75.73 L83.53,75.32 L85.89,74.12 L87.76,72.25 L88.97,69.89 L89.38,67.27 L89.38,67.27 L89.38,46.58 L88.97,43.96 L87.76,41.60 L85.89,39.73 L83.53,38.53 L80.91,38.11 L60.27,38.11 L57.63,38.53 L55.25,39.74 L53.36,41.63 L52.15,44.01 L51.73,46.65 L51.73,63.87 L51.55,64.77 L51.02,65.53 L35.01,81.54 L34.41,82.48 L34.21,83.58 L34.21,91.43 L34.46,92.38 L35.16,93.08 L36.11,93.33 L48.24,93.33 L49.00,93.02 L49.33,92.27 L49.33,89.03 L49.68,88.19 L50.52,87.84 L53.75,87.84 L54.53,87.54 L54.85,86.77 L54.85,83.49 L55.20,82.65 L56.04,82.30 L59.27,82.30 L60.05,81.98 L60.37,81.21 L60.37,76.60 L61.22,75.79 L80.91,75.73 Z" fill="#50e6ff" stroke="#50e6ff" stroke-width="1" stroke-linejoin="round"/><path d="M82.67,44.86 L83.71,46.42 L84.07,48.26 L83.71,50.09 L82.66,51.65 L81.11,52.69 L79.27,53.05 L77.44,52.69 L75.88,51.65 L74.84,50.09 L74.47,48.26 L74.83,46.42 L75.87,44.86 L77.43,43.82 L79.27,43.45 L81.11,43.82 L82.67,44.86 L82.67,44.86 Z" fill="#3fcfec" stroke="#3fcfec" stroke-width="1" stroke-linejoin="round"/><path d="M37.78,83.91 L37.78,83.91 L38.12,84.63 L38.87,84.91 L39.26,84.82 L39.58,84.58 L52.76,71.78 L53.04,71.32 L53.09,70.78 L53.09,70.78 L52.67,70.20 L51.98,70.02 L51.33,70.31 L38.11,83.11 L37.87,83.48 L37.78,83.91 L37.78,83.91 Z" fill="#ffffff" stroke="#ffffff" stroke-width="1" stroke-linejoin="round"/><path d="M62.59,47.88 L62.86,47.68 L63.17,47.55 L63.50,47.51 L63.83,47.55 L64.14,47.68 L64.41,47.88 L79.64,63.11 L79.85,63.38 L79.98,63.69 L80.02,64.02 L79.98,64.36 L79.85,64.67 L79.64,64.93 L79.44,65.13 L79.18,65.34 L78.87,65.46 L78.53,65.51 L78.20,65.46 L77.89,65.34 L77.63,65.13 L62.39,49.90 L62.19,49.63 L62.06,49.32 L62.02,48.99 L62.06,48.66 L62.19,48.35 L62.39,48.08 L62.59,47.88 Z" fill="#ffffff" stroke="#1e1e1e" stroke-width="1" stroke-linejoin="round"/><path d="M59.33,51.15 L59.59,50.95 L59.90,50.82 L60.24,50.77 L60.57,50.82 L60.88,50.95 L61.14,51.15 L76.38,66.38 L76.58,66.65 L76.71,66.96 L76.75,67.29 L76.71,67.62 L76.58,67.93 L76.38,68.20 L76.18,68.40 L75.91,68.60 L75.60,68.73 L75.27,68.78 L74.93,68.73 L74.62,68.60 L74.36,68.40 L59.13,53.17 L58.92,52.90 L58.79,52.59 L58.75,52.26 L58.79,51.93 L58.92,51.62 L59.13,51.35 L59.33,51.15 Z" fill="#ffffff" stroke="#1e1e1e" stroke-width="1" stroke-linejoin="round"/></svg>