<svg xmlns="http://www.w3.org/2000/svg" viewBox="3.50 0.82 94.65 100.00"><path d="M96.15,46.95 L95.61,42.90 L94.28,39.03 L92.20,35.51 L89.47,32.47 L86.18,30.04 L82.47,28.31 L78.49,27.36 L77.92,22.96 L76.59,18.72 L74.55,14.78 L71.86,11.24 L68.61,8.22 L64.88,5.81 L60.79,4.07 L56.47,3.07 L52.03,2.82 L47.41,3.15 L42.91,4.28 L38.68,6.18 L34.85,8.79 L31.53,12.04 L28.84,15.82 L26.85,20.01 L22.64,20.90 L18.66,22.53 L15.02,24.83 L11.85,27.73 L9.24,31.16 L7.27,34.99 L6.01,39.10 L5.50,43.38 L6.04,47.63 L7.30,51.74 L9.26,55.56 L11.85,58.98 L15.00,61.90 L18.60,64.24 L22.56,65.91 L26.74,66.87 L31.03,67.09 L74.59,67.09 L75.16,67.13 L75.72,67.09 L79.66,66.68 L83.45,65.52 L86.94,63.66 L90.02,61.16 L92.56,58.12 L94.47,54.65 L95.68,50.88 L96.15,46.95 Z" fill="#3fcfec" stroke="#1e1e1e" stroke-width="1" stroke-linejoin="round"/><path d="M69.46,61.86 L72.25,61.42 L74.77,60.13 L76.77,58.13 L78.05,55.61 L78.49,52.82 L78.49,52.82 L78.49,30.93 L78.07,28.19 L76.82,25.71 L74.87,23.74 L72.40,22.47 L69.66,22.02 L47.60,22.02 L44.82,22.48 L42.33,23.77 L40.35,25.77 L39.07,28.28 L38.64,31.06 L38.64,49.24 L38.39,50.10 L37.88,50.82 L20.89,68.00 L20.22,68.99 L19.98,70.17 L19.98,78.43 L20.23,79.44 L20.95,80.20 L21.95,80.49 L34.86,80.49 L35.68,80.15 L36.02,79.34 L36.02,76.01 L36.40,75.08 L37.33,74.70 L40.75,74.70 L41.57,74.36 L41.91,73.54 L41.91,69.97 L42.28,69.08 L43.17,68.71 L46.59,68.71 L47.44,68.40 L47.80,67.58 L47.80,62.80 L48.66,61.89 L69.46,61.86 Z" fill="#2e8be1" stroke="#2e8be1" stroke-width="1" stroke-linejoin="round"/><path d="M71.37,29.10 L72.54,30.88 L72.89,32.98 L72.35,35.04 L71.03,36.71 L69.15,37.70 L67.03,37.85 L65.03,37.12 L63.50,35.65 L62.69,33.68 L62.74,31.56 L63.65,29.64 L65.26,28.25 L67.30,27.63 L69.41,27.89 L71.24,28.98 L71.37,29.10 Z" fill="#3fcfec" stroke="#3fcfec" stroke-width="1" stroke-linejoin="round"/><path d="M85.67,80.19 L88.44,79.75 L90.94,78.48 L92.93,76.50 L94.20,74.00 L94.64,71.23 L94.64,71.23 L94.64,49.32 L94.20,46.55 L92.92,44.05 L90.94,42.07 L88.44,40.79 L85.67,40.35 L63.81,40.35 L61.02,40.80 L58.50,42.08 L56.50,44.08 L55.22,46.60 L54.78,49.39 L54.78,67.62 L54.58,68.58 L54.02,69.39 L37.07,86.33 L36.43,87.33 L36.22,88.50 L36.22,96.81 L36.49,97.82 L37.22,98.55 L38.23,98.82 L51.08,98.82 L51.89,98.49 L52.24,97.69 L52.24,94.27 L52.60,93.38 L53.49,93.01 L56.92,93.01 L57.73,92.69 L58.07,91.88 L58.07,88.40 L58.44,87.51 L59.33,87.15 L62.76,87.15 L63.58,86.81 L63.92,85.99 L63.92,81.10 L64.82,80.24 L85.67,80.19 Z" fill="#50e6ff" stroke="#50e6ff" stroke-width="1" stroke-linejoin="round"/><path d="M87.54,47.50 L88.63,49.15 L89.02,51.10 L88.63,53.04 L87.53,54.69 L85.88,55.79 L83.94,56.17 L81.99,55.79 L80.34,54.69 L79.24,53.04 L78.85,51.10 L79.24,49.15 L80.34,47.50 L81.99,46.40 L83.93,46.01 L85.88,46.40 L87.53,47.50 L87.54,47.50 Z" fill="#3fcfec" stroke="#3fcfec" stroke-width="1" stroke-linejoin="round"/><path d="M40.00,88.85 L40.00,88.85 L40.36,89.61 L41.16,89.91 L41.57,89.80 L41.91,89.56 L55.86,76.00 L56.16,75.52 L56.21,74.95 L56.21,74.95 L55.77,74.33 L55.04,74.14 L54.35,74.45 L40.35,88.00 L40.10,88.39 L40.00,88.85 L40.00,88.85 Z" fill="#ffffff" stroke="#ffffff" stroke-width="1" stroke-linejoin="round"/><path d="M66.28,50.70 L66.56,50.48 L66.89,50.35 L67.24,50.30 L67.59,50.35 L67.92,50.48 L68.20,50.70 L84.33,66.83 L84.54,67.11 L84.68,67.44 L84.73,67.79 L84.68,68.14 L84.54,68.47 L84.33,68.75 L84.12,68.96 L83.83,69.18 L83.51,69.31 L83.15,69.36 L82.80,69.31 L82.47,69.18 L82.19,68.96 L66.06,52.83 L65.85,52.55 L65.71,52.22 L65.67,51.87 L65.71,51.52 L65.85,51.19 L66.06,50.91 L66.28,50.70 Z" fill="#ffffff" stroke="#1e1e1e" stroke-width="1" stroke-linejoin="round"/><path d="M62.82,54.16 L63.10,53.94 L63.43,53.81 L63.78,53.76 L64.13,53.81 L64.46,53.94 L64.74,54.16 L80.87,70.29 L81.08,70.57 L81.22,70.90 L81.27,71.25 L81.22,71.60 L81.08,71.93 L80.87,72.21 L80.66,72.42 L80.38,72.64 L80.05,72.78 L79.69,72.82 L79.34,72.78 L79.01,72.64 L78.73,72.42 L62.60,56.30 L62.39,56.01 L62.25,55.69 L62.21,55.33 L62.25,54.98 L62.39,54.65 L62.60,54.37 L62.82,54.16 Z" fill="#ffffff" stroke="#1e1e1e" stroke-width="1" stroke-linejoin="round"/></svg>