<svg xmlns="http://www.w3.org/2000/svg" viewBox="9.69 0.82 82.24 100.00"><path d="M89.93,47.64 L89.84,50.04 L89.58,52.41 L88.58,57.06 L87.02,61.55 L84.97,65.87 L82.52,70.01 L79.74,73.95 L76.73,77.66 L73.55,81.14 L70.30,84.37 L67.04,87.33 L60.87,92.37 L55.67,96.12 L52.10,98.45 L50.81,98.82 L49.52,98.45 L45.95,96.12 L40.75,92.37 L34.57,87.33 L31.32,84.38 L28.06,81.15 L24.89,77.67 L21.87,73.95 L19.10,70.02 L16.65,65.88 L14.60,61.55 L13.04,57.06 L12.04,52.41 L11.78,50.04 L11.69,47.64 L11.69,16.58 L12.01,15.36 L12.90,14.46 L14.12,14.12 L18.31,13.88 L21.89,13.45 L24.93,12.84 L27.50,12.08 L29.69,11.21 L31.58,10.26 L34.74,8.23 L37.62,6.23 L39.15,5.31 L40.85,4.50 L42.78,3.81 L45.04,3.28 L47.69,2.94 L50.82,2.82 L53.95,2.94 L56.60,3.28 L58.86,3.81 L60.79,4.50 L62.49,5.32 L64.02,6.23 L66.90,8.23 L70.07,10.27 L71.95,11.22 L74.14,12.09 L76.71,12.84 L79.75,13.45 L83.33,13.89 L87.52,14.12 L88.73,14.47 L89.61,15.36 L89.92,16.58 L89.92,47.64 L89.93,47.64 Z" fill="#54a2fc" stroke="#1e1e1e" stroke-width="1" stroke-linejoin="round"/><path d="M86.69,47.92 L86.37,52.30 L85.45,56.56 L84.02,60.68 L82.14,64.65 L79.89,68.44 L77.35,72.05 L74.58,75.46 L71.67,78.65 L68.68,81.61 L65.70,84.32 L60.03,88.94 L55.27,92.38 L52.00,94.52 L50.82,94.86 L49.64,94.52 L46.37,92.38 L41.60,88.94 L35.93,84.32 L32.95,81.61 L29.97,78.65 L27.05,75.45 L24.29,72.05 L21.75,68.44 L19.50,64.64 L17.62,60.68 L16.19,56.56 L15.27,52.30 L14.95,47.92 L14.95,19.44 L15.25,18.32 L16.05,17.50 L17.15,17.18 L21.00,16.96 L24.28,16.56 L27.07,16.00 L29.43,15.30 L31.44,14.51 L33.17,13.63 L36.07,11.77 L38.71,9.93 L40.12,9.09 L41.67,8.35 L43.45,7.72 L45.51,7.23 L47.95,6.92 L50.82,6.81 L53.69,6.92 L56.13,7.23 L58.19,7.72 L59.97,8.35 L61.52,9.09 L62.93,9.93 L65.57,11.77 L68.47,13.63 L70.20,14.51 L72.21,15.30 L74.57,16.00 L77.36,16.56 L80.64,16.96 L84.49,17.18 L85.33,17.37 L86.04,17.86 L86.52,18.59 L86.69,19.44 L86.69,47.92 Z" fill="#6eaefc" stroke="#1e1e1e" stroke-width="1" stroke-linejoin="round"/><path d="M45.85,36.59 L45.85,26.65 L45.56,25.58 L44.78,24.80 L43.71,24.51 L32.33,24.51 L31.27,24.80 L30.48,25.58 L30.20,26.65 L30.20,26.65 L30.20,37.42 L30.48,38.49 L31.27,39.27 L32.33,39.55 L42.87,39.55 L43.65,39.76 L44.21,40.33 L44.42,41.10 L44.42,55.49 L44.32,55.99 L44.02,56.39 L43.48,56.67 L42.89,56.75 L32.33,56.75 L31.27,57.03 L30.48,57.82 L30.20,58.88 L30.20,70.37 L30.48,71.44 L31.27,72.22 L32.33,72.51 L43.71,72.51 L44.78,72.22 L45.56,71.44 L45.85,70.37 L45.85,59.72 L46.05,58.95 L46.62,58.38 L47.39,58.18 L62.68,58.18 L63.74,57.89 L64.53,57.11 L64.81,56.04 L64.81,41.10 L65.02,40.32 L65.59,39.76 L66.36,39.55 L72.16,39.55 L73.23,39.27 L74.01,38.49 L74.29,37.42 L74.29,31.21 L74.01,30.14 L73.23,29.36 L72.16,29.07 L65.50,29.07 L64.44,29.36 L63.66,30.14 L63.37,31.21 L63.37,36.59 L63.16,37.36 L62.60,37.93 L61.83,38.13 L47.39,38.13 L46.62,37.93 L46.05,37.36 L45.85,36.59 Z" fill="#ffffff" stroke="#1e1e1e" stroke-width="1" stroke-linejoin="round"/><path d="M43.71,73.22 L32.33,73.22 L30.92,72.84 L29.89,71.81 L29.51,70.40 L29.51,58.88 L29.89,57.47 L30.92,56.43 L32.33,56.05 L42.87,56.05 L43.24,56.02 L43.57,55.86 L43.68,55.70 L43.71,55.51 L43.71,41.10 L43.47,40.51 L42.87,40.27 L32.33,40.27 L30.92,39.89 L29.89,38.85 L29.51,37.44 L29.51,26.64 L29.89,25.23 L30.92,24.20 L32.33,23.82 L43.72,23.82 L45.13,24.20 L46.16,25.23 L46.54,26.64 L46.54,36.59 L46.78,37.18 L47.37,37.42 L61.83,37.42 L62.43,37.18 L62.68,36.59 L62.68,31.18 L63.06,29.77 L64.09,28.74 L65.50,28.36 L72.14,28.36 L73.55,28.74 L74.58,29.77 L74.96,31.18 L74.96,37.39 L74.57,38.80 L73.54,39.83 L72.14,40.22 L66.35,40.22 L65.76,40.46 L65.52,41.05 L65.52,56.04 L65.14,57.45 L64.11,58.49 L62.69,58.87 L47.39,58.87 L46.80,59.11 L46.56,59.70 L46.56,70.35 L46.19,71.79 L45.15,72.84 L43.71,73.22 Z" fill="#5191fb" stroke="#1e1e1e" stroke-width="1" stroke-linejoin="round"/><path d="M32.33,57.46 L31.33,57.88 L30.91,58.88 L30.91,70.37 L31.33,71.38 L32.33,71.80 L43.71,71.80 L44.72,71.38 L45.13,70.37 L45.13,59.72 L45.44,58.59 L46.26,57.76 L47.39,57.46 L62.68,57.46 L63.68,57.04 L64.10,56.04 L64.10,41.10 L64.40,39.97 L65.22,39.14 L66.35,38.84 L72.15,38.84 L73.16,38.42 L73.57,37.41 L73.57,31.20 L73.15,30.20 L72.15,29.79 L65.50,29.79 L64.50,30.20 L64.08,31.20 L64.08,36.59 L63.78,37.72 L62.95,38.55 L61.82,38.85 L47.39,38.85 L46.26,38.55 L45.43,37.72 L45.13,36.59 L45.13,26.65 L45.03,26.10 L44.72,25.64 L44.26,25.33 L43.71,25.22 L32.33,25.22 L31.33,25.64 L30.91,26.64 L30.91,37.42 L31.33,38.43 L32.33,38.84 L42.87,38.84 L44.00,39.15 L44.83,39.97 L45.13,41.10 L45.13,55.49 L44.97,56.29 L44.48,56.94 L43.72,57.34 L42.87,57.46 L32.33,57.46 Z" fill="#ffffff" stroke="#1e1e1e" stroke-width="1" stroke-linejoin="round"/></svg>