<svg xmlns="http://www.w3.org/2000/svg" viewBox="8.82 0.82 83.98 100.00"><path d="M90.80,47.64 L90.71,50.05 L90.45,52.42 L89.43,57.06 L87.83,61.55 L85.73,65.87 L83.23,70.01 L80.39,73.94 L77.31,77.66 L74.06,81.14 L70.73,84.36 L67.40,87.32 L61.09,92.36 L55.78,96.11 L52.13,98.45 L50.81,98.82 L49.50,98.45 L45.85,96.12 L40.54,92.37 L34.22,87.33 L30.90,84.38 L27.57,81.15 L24.32,77.67 L21.24,73.96 L18.40,70.02 L15.89,65.88 L13.80,61.56 L12.20,57.07 L11.18,52.42 L10.91,50.05 L10.82,47.64 L10.82,16.59 L11.15,15.36 L12.05,14.46 L13.27,14.12 L17.56,13.88 L21.22,13.45 L24.33,12.83 L26.96,12.08 L29.20,11.21 L31.13,10.26 L34.37,8.23 L37.31,6.23 L38.88,5.31 L40.61,4.50 L42.59,3.81 L44.90,3.28 L47.61,2.94 L50.81,2.82 L54.02,2.94 L56.73,3.28 L59.04,3.81 L61.02,4.50 L62.75,5.31 L64.31,6.23 L67.26,8.23 L70.50,10.26 L72.43,11.21 L74.67,12.08 L77.30,12.83 L80.41,13.45 L84.06,13.88 L88.35,14.12 L89.57,14.45 L90.47,15.35 L90.80,16.57 L90.80,47.64 Z" fill="#76bc2d" stroke="#1e1e1e" stroke-width="1" stroke-linejoin="round"/><path d="M87.51,47.91 L87.18,52.29 L86.25,56.54 L84.78,60.66 L82.86,64.62 L80.56,68.42 L77.96,72.02 L75.13,75.43 L72.15,78.62 L69.10,81.58 L66.05,84.29 L60.26,88.91 L55.39,92.35 L52.04,94.49 L50.84,94.82 L49.63,94.49 L46.28,92.35 L41.40,88.91 L35.60,84.29 L32.54,81.58 L29.49,78.62 L26.51,75.43 L23.68,72.02 L21.07,68.42 L18.77,64.62 L16.85,60.66 L15.38,56.54 L14.44,52.29 L14.12,47.91 L14.12,19.43 L14.42,18.30 L15.24,17.47 L16.37,17.17 L20.31,16.95 L23.67,16.55 L26.52,15.99 L28.93,15.30 L30.99,14.50 L32.76,13.63 L35.73,11.76 L38.43,9.93 L39.87,9.09 L41.46,8.34 L43.27,7.71 L45.39,7.22 L47.88,6.91 L50.81,6.80 L53.75,6.91 L56.24,7.22 L58.36,7.71 L60.17,8.34 L61.76,9.09 L63.20,9.93 L65.90,11.76 L68.87,13.63 L70.64,14.50 L72.70,15.30 L75.11,15.99 L77.96,16.56 L81.32,16.96 L85.25,17.18 L86.38,17.48 L87.21,18.30 L87.51,19.43 L87.51,47.91 Z" fill="#68a528" stroke="#1e1e1e" stroke-width="1" stroke-linejoin="round"/><path d="M66.92,43.25 L64.62,43.25 L64.62,35.25 L64.37,32.46 L63.61,29.77 L62.36,27.26 L60.67,25.03 L58.28,22.97 L55.48,21.53 L52.41,20.79 L49.26,20.79 L46.19,21.53 L43.39,22.97 L41.00,25.03 L39.30,27.25 L38.04,29.76 L37.28,32.45 L37.05,35.24 L37.05,43.25 L34.71,43.25 L33.80,43.49 L33.13,44.15 L32.87,45.06 L32.87,65.84 L33.13,66.75 L33.80,67.40 L34.71,67.65 L66.92,67.65 L67.83,67.40 L68.50,66.75 L68.76,65.84 L68.76,45.06 L68.50,44.15 L67.83,43.49 L66.92,43.25 L66.92,43.25 Z" fill="#ffffff" stroke="#ffffff" stroke-width="1" stroke-linejoin="round"/><path d="M58.18,43.25 L43.47,43.25 L43.47,35.11 L43.76,33.07 L44.55,31.17 L45.79,29.52 L47.56,28.11 L49.70,27.36 L51.97,27.36 L54.11,28.11 L55.88,29.52 L56.34,30.07 L56.75,30.65 L56.75,30.65 L57.80,32.78 L58.20,35.12 L58.18,43.25 Z" fill="#68a528" stroke="#68a528" stroke-width="1" stroke-linejoin="round"/><path d="M34.71,43.24 L66.92,43.24 L67.55,43.36 L68.11,43.69 L33.53,67.19 L33.05,66.58 L32.87,65.83 L32.87,45.05 L33.13,44.14 L33.80,43.48 L34.71,43.24 Z" fill="#b3b3b3" stroke="#1e1e1e" stroke-width="1" stroke-linejoin="round" opacity="0.15"/><path d="M66.92,43.24 L34.71,43.24 L34.08,43.36 L33.53,43.69 L68.10,67.19 L68.58,66.58 L68.76,65.83 L68.76,45.05 L68.50,44.14 L67.83,43.48 L66.92,43.24 Z" fill="#a3a3a3" stroke="#1e1e1e" stroke-width="1" stroke-linejoin="round" opacity="0.09"/></svg>