<svg xmlns="http://www.w3.org/2000/svg" viewBox="6.73 -2.00 82.55 99.97"><path d="M87.27,44.80 L87.18,47.20 L86.92,49.58 L85.92,54.22 L84.35,58.71 L82.29,63.04 L79.83,67.17 L77.05,71.11 L74.02,74.82 L70.83,78.30 L67.56,81.53 L64.29,84.48 L58.09,89.52 L52.87,93.27 L49.29,95.61 L48.00,95.97 L46.71,95.61 L43.13,93.27 L37.91,89.52 L31.71,84.48 L28.44,81.53 L25.17,78.30 L21.98,74.82 L18.95,71.11 L16.17,67.17 L13.71,63.04 L11.65,58.71 L10.08,54.22 L9.08,49.58 L8.82,47.20 L8.73,44.80 L8.73,13.77 L9.05,12.55 L9.93,11.66 L11.14,11.31 L15.35,11.07 L18.94,10.64 L21.99,10.03 L24.58,9.27 L26.78,8.40 L28.67,7.45 L31.85,5.41 L34.74,3.41 L36.28,2.49 L37.98,1.68 L39.92,0.99 L42.19,0.46 L44.86,0.12 L48.00,0.00 L51.14,0.12 L53.81,0.46 L56.08,0.99 L58.02,1.68 L59.72,2.49 L61.26,3.41 L64.15,5.41 L67.33,7.45 L69.22,8.40 L71.42,9.27 L74.01,10.03 L77.06,10.64 L80.65,11.07 L84.86,11.31 L86.07,11.66 L86.95,12.55 L87.27,13.77 L87.27,44.80 Z" fill="#50e6ff" stroke="#1e1e1e" stroke-width="1" stroke-linejoin="round"/><path d="M84.02,45.09 L83.94,47.29 L83.70,49.47 L82.78,53.73 L81.34,57.85 L79.45,61.81 L77.19,65.60 L74.64,69.21 L71.86,72.62 L68.94,75.81 L65.94,78.77 L62.94,81.48 L57.25,86.10 L52.47,89.54 L49.18,91.68 L48.00,92.02 L46.82,91.68 L43.53,89.54 L38.75,86.10 L33.06,81.48 L30.06,78.77 L27.06,75.81 L24.14,72.61 L21.36,69.21 L18.81,65.60 L16.55,61.81 L14.66,57.84 L13.22,53.72 L12.30,49.47 L12.06,47.29 L11.98,45.09 L11.98,16.61 L12.28,15.49 L13.08,14.67 L14.19,14.35 L18.06,14.14 L21.35,13.73 L24.15,13.17 L26.52,12.48 L28.54,11.68 L30.27,10.81 L33.19,8.94 L35.84,7.11 L37.25,6.27 L38.81,5.52 L40.59,4.89 L42.67,4.40 L45.12,4.09 L48.00,3.98 L50.88,4.09 L53.33,4.40 L55.41,4.89 L57.19,5.52 L58.75,6.27 L60.16,7.11 L62.81,8.94 L65.73,10.81 L67.46,11.68 L69.48,12.48 L71.85,13.17 L74.65,13.73 L77.94,14.14 L81.81,14.35 L82.92,14.67 L83.72,15.49 L84.02,16.61 L84.02,45.09 Z" fill="#76e8ff" stroke="#1e1e1e" stroke-width="1" stroke-linejoin="round"/><ellipse cx="52.55" cy="42.86" rx="6.83" ry="6.83" fill="#ffffff" stroke="#ffffff" stroke-width="1"/><ellipse cx="42.74" cy="59.51" rx="4.61" ry="4.61" fill="#ffffff" stroke="#ffffff" stroke-width="1"/><ellipse cx="39.41" cy="24.38" rx="5.72" ry="5.72" fill="#ffffff" stroke="#ffffff" stroke-width="1"/><path d="M65.25,62.11 L53.70,41.89 L52.55,42.55 L53.49,41.86 L40.42,23.27 L38.03,25.01 L49.61,41.48 L23.94,43.59 L24.19,46.58 L49.61,44.46 L41.18,58.47 L43.71,60.00 L52.38,45.57 L62.68,63.57 L65.25,62.11 Z" fill="#e6e6e6" stroke="#1e1e1e" stroke-width="1" stroke-linejoin="round"/><path d="M52.55,36.10 L54.84,36.49 L56.88,37.61 L58.43,39.35 L59.31,41.49 L59.44,43.81 L58.80,46.04 L57.46,47.94 L55.56,49.28 L53.33,49.92 L51.01,49.79 L48.87,48.91 L47.13,47.36 L46.01,45.32 L45.62,43.03 L45.62,42.86 L46.00,40.76 L47.00,38.88 L48.53,37.38 L50.44,36.43 L52.55,36.10 Z" fill="#ffffff" stroke="#ffffff" stroke-width="1" stroke-linejoin="round"/><path d="M33.83,24.37 L34.18,26.42 L35.24,28.21 L36.87,29.50 L38.85,30.14 L40.92,30.03 L42.82,29.19 L44.31,27.73 L45.17,25.84 L45.31,23.77 L44.71,21.78 L43.43,20.14 L41.66,19.05 L39.62,18.67 L39.47,18.67 L37.72,18.96 L36.15,19.78 L34.90,21.05 L34.10,22.63 L33.83,24.38 L33.83,24.37 Z" fill="#ffffff" stroke="#ffffff" stroke-width="1" stroke-linejoin="round"/><path d="M19.47,45.43 L19.89,47.35 L21.06,48.92 L22.79,49.86 L24.74,50.00 L26.58,49.31 L27.97,47.93 L28.65,46.09 L28.51,44.13 L27.57,42.41 L26.00,41.24 L24.08,40.82 L22.32,41.17 L20.82,42.17 L19.82,43.67 L19.47,45.43 L19.47,45.43 Z" fill="#ffffff" stroke="#ffffff" stroke-width="1" stroke-linejoin="round"/><path d="M38.14,59.48 L38.54,61.41 L39.72,63.01 L41.44,63.97 L43.42,64.12 L45.27,63.45 L46.68,62.06 L47.39,60.21 L47.26,58.24 L46.33,56.49 L44.75,55.30 L42.82,54.86 L42.77,54.86 L41.01,55.20 L39.50,56.19 L38.49,57.68 L38.13,59.45 L38.14,59.48 Z" fill="#ffffff" stroke="#ffffff" stroke-width="1" stroke-linejoin="round"/><path d="M58.67,63.21 L59.07,65.27 L60.22,67.03 L61.95,68.20 L64.01,68.63 L66.07,68.23 L67.82,67.08 L69.00,65.34 L69.42,63.29 L69.03,61.23 L67.87,59.48 L66.14,58.30 L64.08,57.88 L64.05,57.88 L62.02,58.25 L60.28,59.37 L59.11,61.06 L58.67,63.08 L58.67,63.21 Z" fill="#ffffff" stroke="#ffffff" stroke-width="1" stroke-linejoin="round"/></svg>