<svg xmlns="http://www.w3.org/2000/svg" viewBox="9.04 0.67 77.90 94.67"><path d="M84.94,44.99 L84.85,47.26 L84.61,49.51 L83.67,53.89 L82.19,58.13 L80.26,62.22 L77.94,66.13 L75.32,69.84 L72.47,73.35 L69.47,76.64 L66.40,79.69 L63.32,82.48 L57.49,87.24 L52.58,90.79 L49.21,92.99 L47.99,93.34 L46.77,92.99 L43.40,90.79 L38.49,87.24 L32.65,82.49 L29.58,79.69 L26.51,76.65 L23.51,73.36 L20.66,69.85 L18.04,66.13 L15.72,62.22 L13.79,58.14 L12.31,53.89 L11.37,49.51 L11.12,47.26 L11.04,44.99 L11.04,15.66 L11.34,14.50 L12.18,13.65 L13.33,13.33 L17.30,13.11 L20.68,12.70 L23.54,12.12 L25.98,11.41 L28.04,10.59 L29.82,9.69 L32.81,7.77 L35.54,5.88 L36.98,5.02 L38.58,4.25 L40.41,3.60 L42.54,3.10 L45.04,2.78 L48.00,2.67 L50.96,2.78 L53.46,3.10 L55.59,3.60 L57.42,4.25 L59.02,5.02 L60.47,5.89 L63.19,7.78 L66.18,9.70 L67.96,10.60 L70.03,11.42 L72.46,12.13 L75.33,12.71 L78.70,13.12 L82.67,13.33 L83.81,13.66 L84.63,14.51 L84.93,15.66 L84.93,44.99 L84.94,44.99 Z" fill="#54a2fc" stroke="#1e1e1e" stroke-width="1" stroke-linejoin="round"/><path d="M81.88,45.26 L81.57,49.40 L80.71,53.42 L79.36,57.32 L77.58,61.06 L75.46,64.64 L73.05,68.05 L70.44,71.27 L67.69,74.29 L64.87,77.08 L62.05,79.64 L56.70,84.01 L52.20,87.26 L49.11,89.28 L48.00,89.60 L46.89,89.28 L43.79,87.26 L39.29,84.00 L33.94,79.64 L31.12,77.08 L28.30,74.28 L25.55,71.27 L22.94,68.05 L20.54,64.64 L18.42,61.06 L16.64,57.31 L15.29,53.42 L14.43,49.40 L14.12,45.26 L14.12,18.36 L14.40,17.31 L15.16,16.53 L16.20,16.22 L19.84,16.02 L22.94,15.64 L25.57,15.11 L27.80,14.46 L29.69,13.70 L31.33,12.88 L34.07,11.12 L36.57,9.38 L37.89,8.59 L39.36,7.88 L41.03,7.29 L42.99,6.83 L45.29,6.54 L48.00,6.43 L50.71,6.54 L53.01,6.83 L54.97,7.29 L56.64,7.88 L58.11,8.59 L59.43,9.38 L61.93,11.12 L64.67,12.88 L66.31,13.70 L68.20,14.46 L70.43,15.11 L73.06,15.64 L76.16,16.02 L79.80,16.22 L80.60,16.40 L81.27,16.87 L81.72,17.55 L81.88,18.36 L81.88,45.26 Z" fill="#6eaefc" stroke="#1e1e1e" stroke-width="1" stroke-linejoin="round"/><path d="M43.30,34.56 L43.30,25.17 L43.03,24.16 L42.29,23.42 L41.29,23.15 L30.54,23.15 L29.53,23.42 L28.79,24.16 L28.52,25.17 L28.52,25.17 L28.52,35.34 L28.79,36.35 L29.53,37.09 L30.54,37.36 L40.50,37.36 L41.23,37.55 L41.76,38.09 L41.96,38.82 L41.96,52.41 L41.86,52.88 L41.57,53.26 L41.07,53.52 L40.51,53.60 L30.54,53.60 L29.53,53.87 L28.79,54.61 L28.52,55.62 L28.52,66.47 L28.79,67.48 L29.53,68.22 L30.54,68.49 L41.29,68.49 L42.29,68.22 L43.03,67.48 L43.30,66.47 L43.30,56.41 L43.50,55.68 L44.03,55.14 L44.76,54.95 L59.20,54.95 L60.21,54.68 L60.95,53.94 L61.22,52.93 L61.22,38.82 L61.41,38.09 L61.95,37.55 L62.68,37.36 L68.15,37.36 L69.16,37.09 L69.90,36.35 L70.17,35.34 L70.17,29.48 L69.90,28.47 L69.16,27.73 L68.15,27.46 L61.87,27.46 L60.86,27.73 L60.12,28.47 L59.86,29.48 L59.86,34.56 L59.66,35.29 L59.12,35.82 L58.39,36.02 L44.76,36.02 L44.03,35.82 L43.50,35.29 L43.30,34.56 Z" fill="#ffffff" stroke="#1e1e1e" stroke-width="1" stroke-linejoin="round"/><path d="M41.29,69.16 L30.54,69.16 L29.21,68.80 L28.23,67.82 L27.87,66.49 L27.87,55.61 L28.23,54.28 L29.21,53.30 L30.54,52.94 L40.50,52.94 L40.84,52.91 L41.15,52.76 L41.26,52.61 L41.29,52.43 L41.29,38.82 L41.05,38.26 L40.50,38.03 L30.54,38.03 L29.21,37.67 L28.23,36.70 L27.87,35.37 L27.87,25.16 L28.23,23.83 L29.21,22.85 L30.54,22.50 L41.29,22.50 L42.62,22.85 L43.60,23.83 L43.96,25.16 L43.96,34.56 L44.19,35.11 L44.74,35.34 L58.40,35.34 L58.96,35.12 L59.20,34.56 L59.20,29.45 L59.56,28.12 L60.53,27.14 L61.87,26.78 L68.13,26.78 L69.47,27.14 L70.44,28.12 L70.80,29.45 L70.80,35.32 L70.43,36.65 L69.46,37.62 L68.13,37.98 L62.67,37.98 L62.11,38.21 L61.88,38.77 L61.88,52.93 L61.53,54.27 L60.55,55.24 L59.22,55.60 L44.76,55.60 L44.20,55.83 L43.97,56.38 L43.97,66.45 L43.63,67.81 L42.64,68.80 L41.29,69.16 Z" fill="#5191fb" stroke="#1e1e1e" stroke-width="1" stroke-linejoin="round"/><path d="M30.54,54.27 L29.59,54.66 L29.19,55.61 L29.19,66.47 L29.59,67.42 L30.54,67.81 L41.29,67.81 L42.24,67.42 L42.63,66.47 L42.63,56.41 L42.92,55.34 L43.70,54.56 L44.76,54.27 L59.20,54.27 L60.15,53.88 L60.54,52.93 L60.54,38.82 L60.82,37.75 L61.61,36.97 L62.67,36.68 L68.15,36.68 L69.10,36.29 L69.49,35.34 L69.49,29.47 L69.09,28.53 L68.15,28.13 L61.87,28.13 L60.92,28.53 L60.52,29.47 L60.52,34.56 L60.24,35.63 L59.46,36.41 L58.39,36.69 L44.76,36.69 L43.69,36.41 L42.91,35.63 L42.62,34.56 L42.62,25.17 L42.53,24.65 L42.23,24.22 L41.80,23.92 L41.29,23.82 L30.54,23.82 L29.59,24.22 L29.19,25.16 L29.19,35.34 L29.59,36.29 L30.54,36.69 L40.50,36.69 L41.56,36.97 L42.34,37.75 L42.63,38.82 L42.63,52.41 L42.48,53.16 L42.01,53.78 L41.30,54.15 L40.50,54.27 L30.54,54.27 Z" fill="#ffffff" stroke="#1e1e1e" stroke-width="1" stroke-linejoin="round"/></svg>