<svg xmlns="http://www.w3.org/2000/svg" viewBox="8.22 0.67 79.55 94.68"><path d="M85.78,45.00 L85.69,47.27 L85.44,49.52 L84.47,53.90 L82.96,58.14 L80.99,62.22 L78.62,66.13 L75.94,69.85 L73.03,73.36 L69.96,76.64 L66.81,79.69 L63.67,82.49 L57.70,87.24 L52.69,90.79 L49.24,93.00 L48.00,93.35 L46.76,93.00 L43.31,90.80 L38.29,87.25 L32.33,82.50 L29.19,79.70 L26.04,76.66 L22.97,73.37 L20.06,69.86 L17.38,66.14 L15.01,62.23 L13.04,58.15 L11.53,53.91 L10.56,49.52 L10.31,47.28 L10.22,45.00 L10.22,15.67 L10.54,14.51 L11.38,13.66 L12.54,13.33 L16.59,13.11 L20.05,12.70 L22.98,12.12 L25.47,11.41 L27.58,10.59 L29.40,9.69 L32.46,7.77 L35.25,5.88 L36.73,5.02 L38.36,4.25 L40.23,3.60 L42.41,3.10 L44.98,2.78 L48.00,2.67 L51.02,2.78 L53.59,3.10 L55.77,3.60 L57.64,4.25 L59.27,5.02 L60.75,5.88 L63.54,7.77 L66.60,9.69 L68.42,10.59 L70.53,11.41 L73.02,12.12 L75.95,12.70 L79.41,13.11 L83.46,13.33 L84.61,13.65 L85.46,14.50 L85.78,15.65 L85.78,45.00 Z" fill="#76bc2d" stroke="#1e1e1e" stroke-width="1" stroke-linejoin="round"/><path d="M82.67,45.25 L82.36,49.39 L81.47,53.41 L80.09,57.30 L78.27,61.05 L76.10,64.63 L73.64,68.04 L70.97,71.25 L68.16,74.27 L65.28,77.06 L62.39,79.62 L56.92,83.98 L52.32,87.23 L49.16,89.25 L48.02,89.57 L46.88,89.25 L43.71,87.23 L39.10,83.98 L33.63,79.62 L30.74,77.06 L27.85,74.27 L25.04,71.25 L22.36,68.04 L19.90,64.63 L17.73,61.05 L15.91,57.30 L14.53,53.41 L13.64,49.39 L13.33,45.25 L13.33,18.35 L13.62,17.29 L14.40,16.50 L15.47,16.22 L19.19,16.02 L22.36,15.64 L25.05,15.11 L27.33,14.45 L29.27,13.70 L30.94,12.87 L33.75,11.11 L36.30,9.38 L37.66,8.58 L39.16,7.88 L40.88,7.28 L42.87,6.82 L45.23,6.53 L48.00,6.43 L50.77,6.53 L53.13,6.82 L55.12,7.28 L56.84,7.88 L58.34,8.58 L59.70,9.38 L62.25,11.11 L65.06,12.87 L66.73,13.70 L68.67,14.45 L70.95,15.11 L73.64,15.64 L76.81,16.02 L80.53,16.22 L81.60,16.51 L82.38,17.29 L82.67,18.36 L82.67,45.25 Z" fill="#68a528" stroke="#1e1e1e" stroke-width="1" stroke-linejoin="round"/><path d="M63.22,40.85 L61.04,40.85 L61.04,33.30 L60.81,30.66 L60.09,28.12 L58.91,25.75 L57.31,23.65 L55.05,21.70 L52.40,20.34 L49.51,19.64 L46.53,19.64 L43.63,20.34 L40.99,21.70 L38.73,23.65 L37.12,25.74 L35.93,28.11 L35.22,30.66 L35.00,33.29 L35.00,40.85 L32.78,40.85 L31.93,41.08 L31.29,41.71 L31.05,42.56 L31.05,62.20 L31.29,63.05 L31.93,63.67 L32.78,63.90 L63.22,63.90 L64.07,63.67 L64.71,63.05 L64.95,62.20 L64.95,42.56 L64.71,41.71 L64.07,41.08 L63.22,40.85 L63.22,40.85 Z" fill="#ffffff" stroke="#ffffff" stroke-width="1" stroke-linejoin="round"/><path d="M54.95,40.85 L41.07,40.85 L41.07,33.17 L41.33,31.24 L42.08,29.44 L43.25,27.89 L44.93,26.55 L46.95,25.85 L49.09,25.85 L51.11,26.55 L52.79,27.89 L53.22,28.40 L53.61,28.95 L53.61,28.95 L54.60,30.96 L54.98,33.17 L54.95,40.85 Z" fill="#68a528" stroke="#68a528" stroke-width="1" stroke-linejoin="round"/><path d="M32.79,40.84 L63.22,40.84 L63.81,40.96 L64.34,41.27 L31.67,63.47 L31.22,62.89 L31.05,62.18 L31.05,42.55 L31.30,41.70 L31.93,41.07 L32.79,40.84 L32.79,40.84 Z" fill="#b3b3b3" stroke="#1e1e1e" stroke-width="1" stroke-linejoin="round" opacity="0.15"/><path d="M63.22,40.84 L32.78,40.84 L32.19,40.96 L31.67,41.27 L64.33,63.47 L64.79,62.89 L64.95,62.18 L64.95,42.55 L64.71,41.70 L64.07,41.08 L63.22,40.84 Z" fill="#a3a3a3" stroke="#1e1e1e" stroke-width="1" stroke-linejoin="round" opacity="0.09"/></svg>