<svg xmlns="http://www.w3.org/2000/svg" viewBox="6.73 -2.00 82.57 100.00"><path d="M87.30,44.81 L87.21,47.22 L86.95,49.59 L85.94,54.24 L84.37,58.73 L82.32,63.05 L79.85,67.19 L77.07,71.13 L74.04,74.84 L70.85,78.32 L67.58,81.55 L64.31,84.51 L58.11,89.54 L52.89,93.30 L49.30,95.63 L48.01,96.00 L46.72,95.63 L43.14,93.30 L37.92,89.54 L31.72,84.51 L28.45,81.55 L25.18,78.32 L21.99,74.84 L18.96,71.13 L16.17,67.19 L13.71,63.05 L11.65,58.73 L10.08,54.24 L9.08,49.59 L8.82,47.22 L8.73,44.81 L8.73,13.77 L9.05,12.56 L9.93,11.66 L11.14,11.31 L15.35,11.08 L18.95,10.64 L22.00,10.03 L24.58,9.27 L26.78,8.40 L28.68,7.45 L31.86,5.41 L34.75,3.41 L36.29,2.49 L37.99,1.68 L39.94,0.99 L42.20,0.46 L44.87,0.12 L48.01,0.00 L51.16,0.12 L53.83,0.46 L56.09,0.99 L58.04,1.68 L59.74,2.49 L61.27,3.41 L64.17,5.41 L67.35,7.45 L69.24,8.40 L71.44,9.27 L74.03,10.03 L77.08,10.64 L80.67,11.08 L84.89,11.31 L86.10,11.66 L86.98,12.56 L87.30,13.77 L87.30,44.81 Z" fill="#50e6ff" stroke="#1e1e1e" stroke-width="1" stroke-linejoin="round"/><path d="M84.04,45.10 L83.96,47.31 L83.72,49.48 L82.80,53.74 L81.36,57.86 L79.48,61.83 L77.22,65.62 L74.66,69.23 L71.88,72.64 L68.96,75.83 L65.96,78.79 L62.96,81.50 L57.27,86.12 L52.48,89.56 L49.20,91.71 L48.01,92.05 L46.83,91.71 L43.54,89.56 L38.76,86.12 L33.07,81.50 L30.07,78.79 L27.07,75.83 L24.14,72.64 L21.37,69.23 L18.81,65.62 L16.55,61.82 L14.66,57.86 L13.22,53.74 L12.30,49.48 L12.06,47.31 L11.98,45.10 L11.98,16.61 L12.28,15.50 L13.09,14.68 L14.20,14.36 L18.06,14.14 L21.36,13.74 L24.15,13.18 L26.53,12.48 L28.54,11.68 L30.28,10.81 L33.20,8.94 L35.85,7.11 L37.26,6.27 L38.82,5.52 L40.61,4.89 L42.68,4.41 L45.13,4.09 L48.01,3.99 L50.90,4.09 L53.34,4.41 L55.42,4.89 L57.20,5.52 L58.76,6.27 L60.17,7.11 L62.83,8.94 L65.75,10.81 L67.48,11.68 L69.50,12.48 L71.87,13.18 L74.67,13.74 L77.97,14.14 L81.83,14.36 L82.94,14.68 L83.75,15.50 L84.04,16.61 L84.04,45.10 Z" fill="#76e8ff" stroke="#1e1e1e" stroke-width="1" stroke-linejoin="round"/><ellipse cx="52.57" cy="42.88" rx="6.83" ry="6.83" fill="#ffffff" stroke="#ffffff" stroke-width="1"/><ellipse cx="42.75" cy="59.53" rx="4.61" ry="4.61" fill="#ffffff" stroke="#ffffff" stroke-width="1"/><ellipse cx="39.42" cy="24.39" rx="5.72" ry="5.72" fill="#ffffff" stroke="#ffffff" stroke-width="1"/><path d="M65.27,62.13 L53.72,41.91 L52.57,42.57 L53.51,41.87 L40.43,23.28 L38.04,25.01 L49.62,41.49 L23.95,43.61 L24.19,46.59 L49.62,44.48 L41.19,58.49 L43.72,60.02 L52.40,45.59 L62.70,63.59 L65.27,62.13 Z" fill="#e6e6e6" stroke="#1e1e1e" stroke-width="1" stroke-linejoin="round"/><path d="M52.57,36.11 L54.86,36.50 L56.89,37.62 L58.44,39.36 L59.33,41.50 L59.46,43.82 L58.82,46.06 L57.47,47.95 L55.58,49.30 L53.35,49.94 L51.03,49.81 L48.88,48.92 L47.15,47.37 L46.02,45.34 L45.63,43.05 L45.63,42.88 L46.02,40.77 L47.02,38.89 L48.55,37.40 L50.46,36.44 L52.57,36.11 Z" fill="#ffffff" stroke="#ffffff" stroke-width="1" stroke-linejoin="round"/><path d="M33.84,24.37 L34.19,26.42 L35.25,28.21 L36.88,29.51 L38.86,30.15 L40.93,30.04 L42.84,29.20 L44.32,27.74 L45.18,25.85 L45.32,23.78 L44.72,21.79 L43.44,20.14 L41.67,19.06 L39.63,18.67 L39.48,18.67 L37.73,18.97 L36.16,19.79 L34.91,21.05 L34.11,22.63 L33.84,24.39 L33.84,24.37 Z" fill="#ffffff" stroke="#ffffff" stroke-width="1" stroke-linejoin="round"/><path d="M19.48,45.45 L19.89,47.36 L21.07,48.94 L22.79,49.88 L24.75,50.01 L26.59,49.33 L27.98,47.94 L28.66,46.10 L28.52,44.14 L27.58,42.42 L26.00,41.25 L24.09,40.83 L22.32,41.19 L20.83,42.19 L19.83,43.68 L19.48,45.45 L19.48,45.45 Z" fill="#ffffff" stroke="#ffffff" stroke-width="1" stroke-linejoin="round"/><path d="M38.15,59.49 L38.55,61.43 L39.73,63.02 L41.46,63.98 L43.43,64.14 L45.29,63.46 L46.70,62.08 L47.40,60.23 L47.27,58.25 L46.34,56.51 L44.76,55.31 L42.83,54.88 L42.79,54.88 L41.02,55.22 L39.51,56.21 L38.50,57.70 L38.14,59.46 L38.15,59.49 Z" fill="#ffffff" stroke="#ffffff" stroke-width="1" stroke-linejoin="round"/><path d="M58.69,63.23 L59.08,65.29 L60.23,67.04 L61.97,68.22 L64.03,68.65 L66.09,68.25 L67.84,67.10 L69.02,65.36 L69.44,63.31 L69.05,61.25 L67.89,59.49 L66.15,58.32 L64.10,57.89 L64.07,57.89 L62.03,58.26 L60.30,59.38 L59.12,61.08 L58.68,63.10 L58.69,63.23 Z" fill="#ffffff" stroke="#ffffff" stroke-width="1" stroke-linejoin="round"/></svg>