<svg xmlns="http://www.w3.org/2000/svg" viewBox="7.80 0.40 69.61 100.00"><path d="M22.75,23.79 L23.64,23.62 L29.19,22.95 L30.17,19.95 L31.79,17.24 L33.98,14.96 L36.62,13.24 L39.58,12.14 L42.71,11.73 L45.84,12.14 L48.80,13.24 L51.44,14.97 L53.62,17.24 L55.25,19.95 L56.23,22.95 L61.78,23.62 L62.66,23.79 L64.13,24.11 L65.56,24.55 L65.08,20.43 L63.87,16.47 L61.95,12.80 L59.41,9.53 L56.31,6.77 L52.77,4.62 L48.90,3.15 L44.82,2.40 L40.68,2.40 L36.60,3.15 L32.73,4.62 L29.19,6.77 L26.09,9.53 L23.55,12.80 L21.63,16.47 L20.42,20.43 L19.94,24.55 L21.33,24.10 L22.75,23.79 L22.75,23.79 Z" fill="#215694" stroke="#1e1e1e" stroke-width="1" stroke-linejoin="round"/><path d="M75.41,37.44 L75.12,34.59 L74.25,31.86 L72.86,29.36 L70.98,27.20 L68.71,25.46 L66.13,24.21 L63.36,23.52 L62.41,23.35 L52.52,22.35 L42.59,22.01 L32.66,22.35 L22.77,23.35 L21.82,23.52 L19.05,24.21 L16.47,25.45 L14.20,27.19 L12.32,29.36 L10.93,31.86 L10.08,34.59 L9.80,37.44 L10.03,43.14 L10.93,48.77 L12.48,54.26 L14.65,59.54 L17.43,64.52 L20.76,69.15 L24.61,73.36 L28.93,77.09 L33.65,80.30 L36.44,81.70 L39.45,82.55 L42.56,82.84 L45.67,82.55 L48.68,81.70 L51.47,80.30 L56.23,77.13 L60.58,73.42 L64.46,69.22 L67.82,64.59 L70.61,59.60 L72.79,54.31 L74.33,48.80 L75.20,43.15 L75.41,37.44 L75.41,37.44 Z" fill="#0d64b0" stroke="#1e1e1e" stroke-width="1" stroke-linejoin="round"/><ellipse cx="42.90" cy="37.87" rx="11.03" ry="10.47" fill="#004795" stroke="#1e1e1e" stroke-width="1" opacity="0.4"/><ellipse cx="42.90" cy="74.30" rx="22.07" ry="21.56" fill="#004795" stroke="#1e1e1e" stroke-width="1" opacity="0.4"/><ellipse cx="42.90" cy="39.84" rx="11.03" ry="11.03" fill="#2eb6f1" stroke="#1e1e1e" stroke-width="1"/><ellipse cx="42.90" cy="76.33" rx="22.07" ry="22.07" fill="#28b2ef" stroke="#1e1e1e" stroke-width="1"/></svg>